version 1
nodes
0 "Plane01" -1
1 "Plane36" -1
2 "gutz00" -1
3 "berserkbody" 21
4 "hips" 23
5 "leftthigh" 24
6 "leftshin" 25
7 "rightthigh" 26
8 "rightshin" 27
9 "chest" 28
10 "rightarm" 29
11 "rightforearm" 30
12 "righthand" 31
13 "leftarm" 32
14 "leftforearm" 33
15 "lefthand" 34
16 "Grunt2_08Axe" 34
17 "Bone_Head" 35
18 "Bone_Foot_L" 25
19 "Bone_Foot_R" 27
20 "Grunt2_15AxeFree" -1
21 "Dummy01" -1
22 "Bone_Root" -1
23 "Bone_Pelvis" 22
24 "Bone_Leg1_L" 23
25 "Bone_Leg2_L" 24
26 "Bone_Leg1_R" 23
27 "Bone_Leg2_R" 26
28 "Bone_Chest" 22
29 "Bone_Arm1_R" 28
30 "Bone_Arm2_R" 29
31 "Bone_Hand_R" 30
32 "Bone_Arm1_L" 28
33 "Bone_Arm2_L" 32
34 "Bone_Hand_L" 33
35 "Bone_Headx" 28
36 "rightfoot" 19
37 "leftfoot" 18
end
skeleton
time 0
0 0.000000 1.591160 112.231003 0.000000 0.000000 0.000000
1 0.000000 1.591160 112.231003 0.000000 0.000000 0.000000
2 -19.562700 -59.341801 9.114950 0.000000 0.000000 0.000000
3 12.002430 -1.246981 4.277800 0.000000 0.000000 0.000000
4 1.589564 0.085792 4.826698 0.000000 0.000000 0.000000
5 1.874163 -5.972738 9.995998 0.000000 0.000000 0.000000
6 0.286280 -9.380429 28.461796 0.000000 0.000000 0.000000
7 1.874163 7.201330 9.995197 0.000000 0.000000 0.000000
8 -0.042560 9.777662 28.563095 0.000000 0.000000 0.000000
9 0.091730 0.088912 -0.177307 0.000000 0.000000 0.000000
10 8.468860 19.370621 -15.416901 0.000000 0.000000 0.000000
11 3.601930 26.519321 -3.062805 0.000000 0.000000 0.000000
12 -4.222520 33.550124 10.783897 0.000000 0.000000 0.000000
13 8.518430 -19.167879 -15.800499 0.000000 0.000000 0.000000
14 4.121000 -26.586678 -2.307899 0.000000 0.000000 0.000000
15 -4.331140 -33.779586 11.158005 0.000000 0.000000 0.000000
16 -8.275410 -0.781898 -7.115498 0.000000 0.000000 0.000000
17 4.071750 -0.052130 3.031898 0.000000 0.000000 0.000000
18 -7.469420 2.739150 -30.613631 -0.015835 0.540842 -0.002817
19 -7.485040 -2.491860 -30.558802 -0.001376 -0.078512 -0.001572
20 -7.739240 15.851400 27.273600 0.000000 0.000000 0.000000
21 1.685270 1.731140 16.240801 0.000000 0.000000 0.000000
22 0.969966 -0.305413 60.989678 0.000000 0.000000 0.000000
23 -0.314290 0.000000 -0.037804 0.173746 -0.016644 0.504695
24 -0.284599 6.058530 -5.169300 -0.249637 0.584908 -0.469140
25 1.587883 3.407690 -18.465797 0.002422 0.190323 0.025369
26 -0.284599 -7.115540 -5.168499 -0.337187 -0.785099 -0.324198
27 1.916723 -2.576330 -18.567898 -0.007306 0.260660 -0.024314
28 1.183544 -0.003120 4.966202 -0.256638 0.506741 -0.574223
29 -8.377130 -19.281709 15.239594 -0.067078 0.097199 -0.077515
30 4.866930 -7.148701 -12.354095 -0.004101 -0.549571 0.015916
31 7.824450 -7.030802 -13.846703 -0.000081 -0.078511 0.002059
32 -8.426700 19.256791 15.623299 0.210493 -0.508938 0.174578
33 4.397430 7.418800 -13.492599 0.002206 -1.037791 -0.040606
34 8.452140 7.192898 -13.465904 -0.153028 0.016065 -0.358526
35 -1.840710 0.012201 25.323296 -0.060281 -0.674521 0.604411
36 7.442480 12.269524 59.122004 0.000000 0.000000 0.000000
37 7.755700 -12.119580 59.075427 0.000000 0.000000 0.000000
time 1
0 0.000000 1.591160 112.231003 0.000000 0.000000 0.000000
1 0.000000 1.591160 112.231003 0.000000 0.000000 0.000000
2 -19.562700 -59.341801 9.114950 0.000000 0.000000 0.000000
3 12.002430 -1.246981 4.277800 0.000000 0.000000 0.000000
4 1.589564 0.085792 4.826698 0.000000 0.000000 0.000000
5 1.874163 -5.972738 9.995998 0.000000 0.000000 0.000000
6 0.286280 -9.380429 28.461796 0.000000 0.000000 0.000000
7 1.874163 7.201330 9.995197 0.000000 0.000000 0.000000
8 -0.042560 9.777662 28.563095 0.000000 0.000000 0.000000
9 0.091730 0.088912 -0.177307 0.000000 0.000000 0.000000
10 8.468860 19.370621 -15.416901 0.000000 0.000000 0.000000
11 3.601930 26.519321 -3.062805 0.000000 0.000000 0.000000
12 -4.222520 33.550124 10.783897 0.000000 0.000000 0.000000
13 8.518430 -19.167879 -15.800499 0.000000 0.000000 0.000000
14 4.121000 -26.586678 -2.307899 0.000000 0.000000 0.000000
15 -4.331140 -33.779586 11.158005 0.000000 0.000000 0.000000
16 -8.275410 -0.781898 -7.115498 0.000000 0.000000 0.000000
17 4.071750 -0.052130 3.031898 0.000000 0.000000 0.000000
18 -7.469420 2.739150 -30.613631 -0.023096 0.442895 -0.011356
19 -6.544249 -2.353835 -30.146468 -0.034141 0.144690 -0.031668
20 -7.739240 15.851400 27.273600 0.000000 0.000000 0.000000
21 1.685270 1.731140 16.240801 0.000000 0.000000 0.000000
22 0.969966 -3.798324 55.445605 0.000000 0.000000 0.000000
23 -0.314290 0.000000 -0.037804 0.091905 0.009475 0.410238
24 -0.284599 6.058530 -5.169300 -0.012694 0.486343 -0.352917
25 1.587883 3.407690 -18.465797 0.078614 0.892320 0.164067
26 -0.284599 -7.115540 -5.168499 -0.001781 -0.802189 -0.344541
27 1.916723 -2.576330 -18.567898 -0.012483 0.444969 -0.040718
28 1.183544 -0.003120 4.966202 -0.191358 0.578548 -0.363729
29 -10.304503 -18.803646 18.793209 -0.088023 0.065747 -0.035601
30 4.866930 -7.148701 -12.354095 -0.004845 -0.588906 0.017347
31 7.824450 -7.030802 -13.846703 -0.048831 0.058765 -0.010493
32 -8.426700 19.256791 15.623299 0.254696 -0.470324 0.133464
33 4.397430 7.418800 -13.492599 -0.000194 -0.973922 -0.036377
34 8.452140 7.192898 -13.465904 -0.189824 -0.056361 -0.351573
35 -1.840710 0.012201 25.323296 -0.041984 -0.705455 0.397162
36 7.442480 12.269524 59.122004 0.000000 0.000000 0.000000
37 7.755700 -12.119580 59.075427 0.000000 0.000000 0.000000
time 2
0 0.000000 1.591160 112.231003 0.000000 0.000000 0.000000
1 0.000000 1.591160 112.231003 0.000000 0.000000 0.000000
2 -19.562700 -59.341801 9.114950 0.000000 0.000000 0.000000
3 12.002430 -1.246981 4.277800 0.000000 0.000000 0.000000
4 1.589564 0.085792 4.826698 0.000000 0.000000 0.000000
5 1.874163 -5.972738 9.995998 0.000000 0.000000 0.000000
6 0.286280 -9.380429 28.461796 0.000000 0.000000 0.000000
7 1.874163 7.201330 9.995197 0.000000 0.000000 0.000000
8 -0.042560 9.777662 28.563095 0.000000 0.000000 0.000000
9 0.091730 0.088912 -0.177307 0.000000 0.000000 0.000000
10 8.468860 19.370621 -15.416901 0.000000 0.000000 0.000000
11 3.601930 26.519321 -3.062805 0.000000 0.000000 0.000000
12 -4.222520 33.550124 10.783897 0.000000 0.000000 0.000000
13 8.518430 -19.167879 -15.800499 0.000000 0.000000 0.000000
14 4.121000 -26.586678 -2.307899 0.000000 0.000000 0.000000
15 -4.331140 -33.779586 11.158005 0.000000 0.000000 0.000000
16 -8.275410 -0.781898 -7.115498 0.000000 0.000000 0.000000
17 4.071750 -0.052130 3.031898 0.000000 0.000000 0.000000
18 -7.469420 2.739150 -30.613631 -0.019501 0.210136 -0.012589
19 -5.525582 -2.204384 -29.700001 -0.132072 -0.188589 -0.038542
20 -7.739240 15.851400 27.273600 0.000000 0.000000 0.000000
21 1.685270 1.731140 16.240801 0.000000 0.000000 0.000000
22 0.969966 -7.115302 50.279060 0.000000 0.000000 0.000000
23 -0.314290 0.000000 -0.037804 -0.150319 0.040498 0.146340
24 -0.284599 6.058530 -5.169300 0.552372 0.172097 -0.169458
25 1.587883 3.407690 -18.465797 2.281138 1.374737 2.421851
26 -0.284599 -7.115540 -5.168499 0.345384 -0.844003 -0.450574
27 1.916723 -2.576330 -18.567898 0.136592 1.015764 0.051370
28 1.183544 -0.003120 4.966202 0.041674 0.559563 0.239520
29 -12.148806 -18.440883 22.013611 -0.316523 0.010191 0.128691
30 4.866930 -7.148701 -12.354095 -0.007005 -0.682678 0.021088
31 7.824450 -7.030802 -13.846703 0.060292 -0.232703 0.008563
32 -8.426700 19.256791 15.623299 0.395732 -0.270767 -0.160644
33 4.397430 7.418800 -13.492599 -0.005231 -0.622747 -0.020490
34 8.452140 7.192898 -13.465904 -0.312899 -0.363427 -0.238914
35 -1.840710 0.012201 25.323296 0.070934 -0.610174 -0.209944
36 7.442480 12.269524 59.122004 0.000000 0.000000 0.000000
37 7.755700 -12.119580 59.075427 0.000000 0.000000 0.000000
time 3
0 0.000000 1.591160 112.231003 0.000000 0.000000 0.000000
1 0.000000 1.591160 112.231003 0.000000 0.000000 0.000000
2 -19.562700 -59.341801 9.114950 0.000000 0.000000 0.000000
3 12.002430 -1.246981 4.277800 0.000000 0.000000 0.000000
4 1.589564 0.085792 4.826698 0.000000 0.000000 0.000000
5 1.874163 -5.972738 9.995998 0.000000 0.000000 0.000000
6 0.286280 -9.380429 28.461796 0.000000 0.000000 0.000000
7 1.874163 7.201330 9.995197 0.000000 0.000000 0.000000
8 -0.042560 9.777662 28.563095 0.000000 0.000000 0.000000
9 0.091730 0.088912 -0.177307 0.000000 0.000000 0.000000
10 8.468860 19.370621 -15.416901 0.000000 0.000000 0.000000
11 3.601930 26.519321 -3.062805 0.000000 0.000000 0.000000
12 -4.222520 33.550124 10.783897 0.000000 0.000000 0.000000
13 8.518430 -19.167879 -15.800499 0.000000 0.000000 0.000000
14 4.121000 -26.586678 -2.307899 0.000000 0.000000 0.000000
15 -4.331140 -33.779586 11.158005 0.000000 0.000000 0.000000
16 -8.275410 -0.781898 -7.115498 0.000000 0.000000 0.000000
17 4.071750 -0.052130 3.031898 0.000000 0.000000 0.000000
18 -7.469420 2.739150 -30.613631 -0.072467 0.020514 -0.058434
19 -5.046495 -2.134096 -29.490024 -0.082167 -0.437391 0.033729
20 -7.739240 15.851400 27.273600 0.000000 0.000000 0.000000
21 1.685270 1.731140 16.240801 0.000000 0.000000 0.000000
22 0.969966 -7.080966 51.476752 0.000000 0.000000 0.000000
23 -0.314290 0.000000 -0.037804 -0.233392 0.036448 0.056516
24 -0.284599 6.058530 -5.169300 0.710097 0.001455 -0.176901
25 1.587883 3.407690 -18.465797 0.565752 -1.303082 -0.593992
26 -0.284599 -7.115540 -5.168499 0.341883 -0.396027 -0.235881
27 1.916723 -2.576330 -18.567898 0.059687 0.837949 -0.016017
28 1.183544 -0.003120 4.966202 0.111332 0.526097 0.433188
29 -11.525638 -19.512201 19.074088 -0.397511 0.002156 0.185836
30 4.866930 -7.148701 -12.354095 -0.007738 -0.709497 0.022261
31 7.824450 -7.030802 -13.846703 0.060020 -0.226597 0.008575
32 -8.426700 19.256791 15.623299 0.421956 -0.210048 -0.247032
33 4.397430 7.418800 -13.492599 -0.005225 -0.497213 -0.016164
34 8.452140 7.192898 -13.465904 -0.370915 -0.468731 -0.190729
35 -1.840710 0.012201 25.323296 0.087857 -0.566502 -0.398994
36 7.442480 12.269524 59.122004 0.000000 0.000000 0.000000
37 7.755700 -12.119580 59.075427 0.000000 0.000000 0.000000
time 4
0 0.000000 1.591160 112.231003 0.000000 0.000000 0.000000
1 0.000000 1.591160 112.231003 0.000000 0.000000 0.000000
2 -19.562700 -59.341801 9.114950 0.000000 0.000000 0.000000
3 12.002430 -1.246981 4.277800 0.000000 0.000000 0.000000
4 1.589564 0.085792 4.826698 0.000000 0.000000 0.000000
5 1.874163 -5.972738 9.995998 0.000000 0.000000 0.000000
6 0.286280 -9.380429 28.461796 0.000000 0.000000 0.000000
7 1.874163 7.201330 9.995197 0.000000 0.000000 0.000000
8 -0.042560 9.777662 28.563095 0.000000 0.000000 0.000000
9 0.091730 0.088912 -0.177307 0.000000 0.000000 0.000000
10 8.468860 19.370621 -15.416901 0.000000 0.000000 0.000000
11 3.601930 26.519321 -3.062805 0.000000 0.000000 0.000000
12 -4.222520 33.550124 10.783897 0.000000 0.000000 0.000000
13 8.518430 -19.167879 -15.800499 0.000000 0.000000 0.000000
14 4.121000 -26.586678 -2.307899 0.000000 0.000000 0.000000
15 -4.331140 -33.779586 11.158005 0.000000 0.000000 0.000000
16 -8.275410 -0.781898 -7.115498 0.000000 0.000000 0.000000
17 4.071750 -0.052130 3.031898 0.000000 0.000000 0.000000
18 -7.469420 2.739150 -30.613631 -0.086049 0.100625 0.059185
19 -5.141286 -2.148003 -29.531570 0.147009 0.082636 0.013225
20 -7.739240 15.851400 27.273600 0.000000 0.000000 0.000000
21 1.685270 1.731140 16.240801 0.000000 0.000000 0.000000
22 0.969966 -3.808614 59.547453 0.000000 0.000000 0.000000
23 -0.314290 0.000000 -0.037804 -0.243646 0.022005 -0.070963
24 -0.284599 6.058530 -5.169300 0.845828 -0.674737 -0.632986
25 1.587883 3.407690 -18.465797 0.272573 1.133957 0.362593
26 -0.284599 -7.115540 -5.168499 0.434119 0.058961 0.044770
27 1.916723 -2.576330 -18.567898 -0.259859 0.432470 -0.125251
28 1.183544 -0.003120 4.966202 0.135829 0.530325 0.499875
29 -8.631712 -21.707266 10.979479 -0.364950 -0.052917 0.220059
30 4.866930 -7.148701 -12.354095 -0.012633 -0.848266 0.029347
31 7.824450 -7.030802 -13.846703 0.033808 -0.264684 0.007852
32 -8.426700 19.256791 15.623299 0.532608 0.195255 -0.370282
33 4.397430 7.418800 -13.492599 -0.005243 -0.504842 -0.016418
34 8.452140 7.192898 -13.465904 -0.276811 -0.365328 -0.112732
35 -1.840710 0.012201 25.323296 0.102599 -0.617752 -0.453738
36 7.442480 12.269524 59.122004 0.000000 0.000000 0.000000
37 7.755700 -12.119580 59.075427 0.000000 0.000000 0.000000
time 5
0 0.000000 1.591160 112.231003 0.000000 0.000000 0.000000
1 0.000000 1.591160 112.231003 0.000000 0.000000 0.000000
2 -19.562700 -59.341801 9.114950 0.000000 0.000000 0.000000
3 12.002430 -1.246981 4.277800 0.000000 0.000000 0.000000
4 1.589564 0.085792 4.826698 0.000000 0.000000 0.000000
5 1.874163 -5.972738 9.995998 0.000000 0.000000 0.000000
6 0.286280 -9.380429 28.461796 0.000000 0.000000 0.000000
7 1.874163 7.201330 9.995197 0.000000 0.000000 0.000000
8 -0.042560 9.777662 28.563095 0.000000 0.000000 0.000000
9 0.091730 0.088912 -0.177307 0.000000 0.000000 0.000000
10 8.468860 19.370621 -15.416901 0.000000 0.000000 0.000000
11 3.601930 26.519321 -3.062805 0.000000 0.000000 0.000000
12 -4.222520 33.550124 10.783897 0.000000 0.000000 0.000000
13 8.518430 -19.167879 -15.800499 0.000000 0.000000 0.000000
14 4.121000 -26.586678 -2.307899 0.000000 0.000000 0.000000
15 -4.331140 -33.779586 11.158005 0.000000 0.000000 0.000000
16 -8.275410 -0.781898 -7.115498 0.000000 0.000000 0.000000
17 4.071750 -0.052130 3.031898 0.000000 0.000000 0.000000
18 -7.469420 2.739150 -30.613631 0.133358 0.241605 0.077259
19 -5.396537 -2.185452 -29.643442 0.043399 0.976522 0.045063
20 -7.739240 15.851400 27.273600 0.000000 0.000000 0.000000
21 1.685270 1.731140 16.240801 0.000000 0.000000 0.000000
22 0.969966 -0.054570 64.615102 0.000000 0.000000 0.000000
23 -0.314290 0.000000 -0.037804 -0.270526 0.000000 -0.226893
24 -0.284599 6.058530 -5.169300 0.475021 -0.671074 -0.195898
25 1.587883 3.407690 -18.465797 0.074857 0.050498 0.002726
26 -0.284599 -7.115540 -5.168499 0.160061 0.265284 0.059021
27 1.916723 -2.576330 -18.567898 -0.024084 0.538381 -0.055838
28 1.183544 -0.003120 4.966202 0.170483 0.542879 0.632762
29 -8.582480 -21.702310 11.516218 -0.334742 -0.132805 0.274999
30 4.866930 -7.148701 -12.354095 -0.024950 -1.046623 0.044610
31 7.824450 -7.030802 -13.846703 -0.001196 -0.322771 0.008718
32 -8.426700 19.256791 15.623299 0.642874 0.762869 -0.472592
33 4.397430 7.418800 -13.492599 -0.005305 -0.549422 -0.017922
34 8.452140 7.192898 -13.465904 -0.146943 -0.249519 0.012863
35 -1.840710 0.012201 25.323296 0.145995 -0.683983 -0.572472
36 7.442480 12.269524 59.122004 0.000000 0.000000 0.000000
37 7.755700 -12.119580 59.075427 0.000000 0.000000 0.000000
time 6
0 0.000000 1.591160 112.231003 0.000000 0.000000 0.000000
1 0.000000 1.591160 112.231003 0.000000 0.000000 0.000000
2 -19.562700 -59.341801 9.114950 0.000000 0.000000 0.000000
3 12.002430 -1.246981 4.277800 0.000000 0.000000 0.000000
4 1.589564 0.085792 4.826698 0.000000 0.000000 0.000000
5 1.874163 -5.972738 9.995998 0.000000 0.000000 0.000000
6 0.286280 -9.380429 28.461796 0.000000 0.000000 0.000000
7 1.874163 7.201330 9.995197 0.000000 0.000000 0.000000
8 -0.042560 9.777662 28.563095 0.000000 0.000000 0.000000
9 0.091730 0.088912 -0.177307 0.000000 0.000000 0.000000
10 8.468860 19.370621 -15.416901 0.000000 0.000000 0.000000
11 3.601930 26.519321 -3.062805 0.000000 0.000000 0.000000
12 -4.222520 33.550124 10.783897 0.000000 0.000000 0.000000
13 8.518430 -19.167879 -15.800499 0.000000 0.000000 0.000000
14 4.121000 -26.586678 -2.307899 0.000000 0.000000 0.000000
15 -4.331140 -33.779586 11.158005 0.000000 0.000000 0.000000
16 -8.275410 -0.781898 -7.115498 0.000000 0.000000 0.000000
17 4.071750 -0.052130 3.031898 0.000000 0.000000 0.000000
18 -7.469420 2.739150 -30.613631 -0.040123 0.335556 0.002266
19 -5.766683 -2.239756 -29.805672 0.032596 0.938379 0.038905
20 -7.739240 15.851400 27.273600 0.000000 0.000000 0.000000
21 1.685270 1.731140 16.240801 0.000000 0.000000 0.000000
22 0.969966 3.763744 59.547453 0.000000 0.000000 0.000000
23 -0.314290 0.000000 -0.037804 -0.207984 0.011774 -0.198534
24 -0.284599 6.058530 -5.169300 0.121942 -0.443484 0.056936
25 1.587883 3.407690 -18.465797 0.112487 -0.134918 -0.000122
26 -0.284599 -7.115540 -5.168499 -0.035330 0.149183 0.028958
27 1.916723 -2.576330 -18.567898 -0.134775 1.107597 -0.193906
28 1.183544 -0.003120 4.966202 0.140558 0.533104 0.460219
29 -9.066393 -21.281927 13.742518 -0.329070 -0.127781 0.264745
30 4.866930 -7.148701 -12.354095 -0.024218 -1.038143 0.043755
31 7.824450 -7.030802 -13.846703 -0.004200 -0.350853 0.009598
32 -8.426700 19.256791 15.623299 0.589764 0.589920 -0.465789
33 4.397430 7.418800 -13.492599 -0.005248 -0.507144 -0.016495
34 8.452140 7.192898 -13.465904 -0.136414 -0.236350 0.010033
35 -1.840710 0.012201 25.323296 0.095408 -0.683812 -0.407002
36 7.442480 12.269524 59.122004 0.000000 0.000000 0.000000
37 7.755700 -12.119580 59.075427 0.000000 0.000000 0.000000
time 7
0 0.000000 1.591160 112.231003 0.000000 0.000000 0.000000
1 0.000000 1.591160 112.231003 0.000000 0.000000 0.000000
2 -19.562700 -59.341801 9.114950 0.000000 0.000000 0.000000
3 12.002430 -1.246981 4.277800 0.000000 0.000000 0.000000
4 1.589564 0.085792 4.826698 0.000000 0.000000 0.000000
5 1.874163 -5.972738 9.995998 0.000000 0.000000 0.000000
6 0.286280 -9.380429 28.461796 0.000000 0.000000 0.000000
7 1.874163 7.201330 9.995197 0.000000 0.000000 0.000000
8 -0.042560 9.777662 28.563095 0.000000 0.000000 0.000000
9 0.091730 0.088912 -0.177307 0.000000 0.000000 0.000000
10 8.468860 19.370621 -15.416901 0.000000 0.000000 0.000000
11 3.601930 26.519321 -3.062805 0.000000 0.000000 0.000000
12 -4.222520 33.550124 10.783897 0.000000 0.000000 0.000000
13 8.518430 -19.167879 -15.800499 0.000000 0.000000 0.000000
14 4.121000 -26.586678 -2.307899 0.000000 0.000000 0.000000
15 -4.331140 -33.779586 11.158005 0.000000 0.000000 0.000000
16 -8.275410 -0.781898 -7.115498 0.000000 0.000000 0.000000
17 4.071750 -0.052130 3.031898 0.000000 0.000000 0.000000
18 -7.469420 2.739150 -30.613631 0.141000 -0.008311 -0.084382
19 -6.206166 -2.304234 -29.998290 0.018219 0.760049 0.025408
20 -7.739240 15.851400 27.273600 0.000000 0.000000 0.000000
21 1.685270 1.731140 16.240801 0.000000 0.000000 0.000000
22 0.969966 7.106908 51.476752 0.000000 0.000000 0.000000
23 -0.314290 0.000000 -0.037804 0.001365 0.038242 -0.094095
24 -0.284599 6.058530 -5.169300 -0.109187 -1.043501 0.250546
25 1.587883 3.407690 -18.465797 0.030726 1.033355 0.146175
26 -0.284599 -7.115540 -5.168499 -0.564408 -0.208556 0.104228
27 1.916723 -2.576330 -18.567898 -2.236323 1.427306 -2.313066
28 1.183544 -0.003120 4.966202 0.075117 0.456881 -0.123379
29 -9.654841 -20.689564 16.334761 -0.298642 -0.091394 0.207082
30 4.866930 -7.148701 -12.354095 -0.018188 -0.955143 0.036512
31 7.824450 -7.030802 -13.846703 -0.008247 -0.456581 0.013224
32 -8.426700 19.256791 15.623299 0.375259 -0.125423 -0.355311
33 4.397430 7.418800 -13.492599 -0.004176 -0.311781 -0.010172
34 8.452140 7.192898 -13.465904 -0.129964 -0.202137 -0.042193
35 -1.840710 0.012201 25.323296 -0.064388 -0.611933 0.142451
36 7.442480 12.269524 59.122004 0.000000 0.000000 0.000000
37 7.755700 -12.119580 59.075427 0.000000 0.000000 0.000000
time 8
0 0.000000 1.591160 112.231003 0.000000 0.000000 0.000000
1 0.000000 1.591160 112.231003 0.000000 0.000000 0.000000
2 -19.562700 -59.341801 9.114950 0.000000 0.000000 0.000000
3 12.002430 -1.246981 4.277800 0.000000 0.000000 0.000000
4 1.589564 0.085792 4.826698 0.000000 0.000000 0.000000
5 1.874163 -5.972738 9.995998 0.000000 0.000000 0.000000
6 0.286280 -9.380429 28.461796 0.000000 0.000000 0.000000
7 1.874163 7.201330 9.995197 0.000000 0.000000 0.000000
8 -0.042560 9.777662 28.563095 0.000000 0.000000 0.000000
9 0.091730 0.088912 -0.177307 0.000000 0.000000 0.000000
10 8.468860 19.370621 -15.416901 0.000000 0.000000 0.000000
11 3.601930 26.519321 -3.062805 0.000000 0.000000 0.000000
12 -4.222520 33.550124 10.783897 0.000000 0.000000 0.000000
13 8.518430 -19.167879 -15.800499 0.000000 0.000000 0.000000
14 4.121000 -26.586678 -2.307899 0.000000 0.000000 0.000000
15 -4.331140 -33.779586 11.158005 0.000000 0.000000 0.000000
16 -8.275410 -0.781898 -7.115498 0.000000 0.000000 0.000000
17 4.071750 -0.052130 3.031898 0.000000 0.000000 0.000000
18 -7.469420 2.739150 -30.613631 0.154298 -0.532325 -0.167266
19 -6.669425 -2.372200 -30.201330 0.006437 0.447614 0.012011
20 -7.739240 15.851400 27.273600 0.000000 0.000000 0.000000
21 1.685270 1.731140 16.240801 0.000000 0.000000 0.000000
22 0.969966 7.042643 50.279060 0.000000 0.000000 0.000000
23 -0.314290 0.000000 -0.037804 0.077822 0.042645 -0.059583
24 -0.284599 6.058530 -5.169300 -0.173956 -0.520699 0.193015
25 1.587883 3.407690 -18.465797 0.083826 1.001513 0.171410
26 -0.284599 -7.115540 -5.168499 -0.772733 -0.314861 0.181406
27 1.916723 -2.576330 -18.567898 -2.849637 1.039478 -2.942320
28 1.183544 -0.003120 4.966202 0.067987 0.414346 -0.326460
29 -9.919215 -20.168669 17.969328 -0.238858 -0.025717 0.106722
30 4.866930 -7.148701 -12.354095 -0.010948 -0.806798 0.027020
31 7.824450 -7.030802 -13.846703 -0.033665 1.449161 -0.071309
32 -8.426700 19.256791 15.623299 0.277315 -0.358843 -0.290791
33 4.397430 7.418800 -13.492599 -0.003309 -0.224497 -0.007394
34 8.452140 7.192898 -13.465904 -0.128916 -0.139629 -0.142033
35 -1.840710 0.012201 25.323296 -0.101815 -0.560265 0.325477
36 7.442480 12.269524 59.122004 0.000000 0.000000 0.000000
37 7.755700 -12.119580 59.075427 0.000000 0.000000 0.000000
time 9
0 0.000000 1.591160 112.231003 0.000000 0.000000 0.000000
1 0.000000 1.591160 112.231003 0.000000 0.000000 0.000000
2 -19.562700 -59.341801 9.114950 0.000000 0.000000 0.000000
3 12.002430 -1.246981 4.277800 0.000000 0.000000 0.000000
4 1.589564 0.085792 4.826698 0.000000 0.000000 0.000000
5 1.874163 -5.972738 9.995998 0.000000 0.000000 0.000000
6 0.286280 -9.380429 28.461796 0.000000 0.000000 0.000000
7 1.874163 7.201330 9.995197 0.000000 0.000000 0.000000
8 -0.042560 9.777662 28.563095 0.000000 0.000000 0.000000
9 0.091730 0.088912 -0.177307 0.000000 0.000000 0.000000
10 8.468860 19.370621 -15.416901 0.000000 0.000000 0.000000
11 3.601930 26.519321 -3.062805 0.000000 0.000000 0.000000
12 -4.222520 33.550124 10.783897 0.000000 0.000000 0.000000
13 8.518430 -19.167879 -15.800499 0.000000 0.000000 0.000000
14 4.121000 -26.586678 -2.307899 0.000000 0.000000 0.000000
15 -4.331140 -33.779586 11.158005 0.000000 0.000000 0.000000
16 -8.275410 -0.781898 -7.115498 0.000000 0.000000 0.000000
17 4.071750 -0.052130 3.031898 0.000000 0.000000 0.000000
18 -7.469420 2.739150 -30.613631 -0.063725 -0.149922 -0.065160
19 -7.110903 -2.436970 -30.394823 0.000194 0.090070 0.002252
20 -7.739240 15.851400 27.273600 0.000000 0.000000 0.000000
21 1.685270 1.731140 16.240801 0.000000 0.000000 0.000000
22 0.969966 3.455397 55.445605 0.000000 0.000000 0.000000
23 -0.314290 0.000000 -0.037804 0.130740 0.021059 0.209544
24 -0.284599 6.058530 -5.169300 -0.176265 0.457340 -0.170459
25 1.587883 3.407690 -18.465797 0.069989 0.053127 0.056600
26 -0.284599 -7.115540 -5.168499 -0.628214 -0.565421 -0.004197
27 1.916723 -2.576330 -18.567898 -0.318938 1.305916 -0.383099
28 1.183544 -0.003120 4.966202 -0.075437 0.425989 -0.453342
29 -9.293074 -19.712878 17.058967 -0.152621 0.055348 -0.010914
30 4.866930 -7.148701 -12.354095 -0.005810 -0.633962 0.019081
31 7.824450 -7.030802 -13.846703 0.000957 -0.024694 0.000793
32 -8.426700 19.256791 15.623299 0.268237 -0.410966 -0.132012
33 4.397430 7.418800 -13.492599 -0.005308 -0.562639 -0.018376
34 8.452140 7.192898 -13.465904 -0.138920 -0.053576 -0.271074
35 -1.840710 0.012201 25.323296 -0.057429 -0.565219 0.455683
36 7.442480 12.269524 59.122004 0.000000 0.000000 0.000000
37 7.755700 -12.119580 59.075427 0.000000 0.000000 0.000000
time 10
0 0.000000 1.591160 112.231003 0.000000 0.000000 0.000000
1 0.000000 1.591160 112.231003 0.000000 0.000000 0.000000
2 -19.562700 -59.341801 9.114950 0.000000 0.000000 0.000000
3 12.002430 -1.246981 4.277800 0.000000 0.000000 0.000000
4 1.589564 0.085792 4.826698 0.000000 0.000000 0.000000
5 1.874163 -5.972738 9.995998 0.000000 0.000000 0.000000
6 0.286280 -9.380429 28.461796 0.000000 0.000000 0.000000
7 1.874163 7.201330 9.995197 0.000000 0.000000 0.000000
8 -0.042560 9.777662 28.563095 0.000000 0.000000 0.000000
9 0.091730 0.088912 -0.177307 0.000000 0.000000 0.000000
10 8.468860 19.370621 -15.416901 0.000000 0.000000 0.000000
11 3.601930 26.519321 -3.062805 0.000000 0.000000 0.000000
12 -4.222520 33.550124 10.783897 0.000000 0.000000 0.000000
13 8.518430 -19.167879 -15.800499 0.000000 0.000000 0.000000
14 4.121000 -26.586678 -2.307899 0.000000 0.000000 0.000000
15 -4.331140 -33.779586 11.158005 0.000000 0.000000 0.000000
16 -8.275410 -0.781898 -7.115498 0.000000 0.000000 0.000000
17 4.071750 -0.052130 3.031898 0.000000 0.000000 0.000000
18 -7.469420 2.739150 -30.613631 -0.015836 0.540842 -0.002817
19 -7.485040 -2.491860 -30.558802 -0.001376 -0.078511 -0.001572
20 -7.739240 15.851400 27.273600 0.000000 0.000000 0.000000
21 1.685270 1.731140 16.240801 0.000000 0.000000 0.000000
22 0.969966 -0.305413 60.989678 0.000000 0.000000 0.000000
23 -0.314290 0.000000 -0.037804 0.173746 -0.016644 0.504695
24 -0.284599 6.058530 -5.169300 -0.249638 0.584908 -0.469142
25 1.587883 3.407690 -18.465797 -0.001583 0.189006 0.033728
26 -0.284599 -7.115540 -5.168499 -0.337187 -0.785099 -0.324198
27 1.916723 -2.576330 -18.567898 -0.007306 0.260660 -0.024314
28 1.183544 -0.003120 4.966202 -0.256638 0.506741 -0.574223
29 -8.377130 -19.281709 15.239594 -0.067078 0.097199 -0.077515
30 4.866930 -7.148701 -12.354095 -0.004101 -0.549571 0.015916
31 7.824450 -7.030802 -13.846703 -0.000081 -0.078511 0.002059
32 -8.426700 19.256791 15.623299 0.210493 -0.508938 0.174578
33 4.397430 7.418800 -13.492599 0.002206 -1.037791 -0.040606
34 8.452140 7.192898 -13.465904 -0.153028 0.016065 -0.358526
35 -1.840710 0.012201 25.323296 -0.060281 -0.674521 0.604411
36 7.442480 12.269524 59.122004 0.000000 0.000000 0.000000
37 7.755700 -12.119580 59.075427 0.000000 0.000000 0.000000
end
