# Wavefront OBJ exported by MilkShape 3D

mtllib OrcCrossBow.mtl

v -18.914442 54.320778 2.206898
v -23.791264 54.320778 2.206898
v -23.144352 48.012093 2.206898
v -19.561352 48.012093 2.206898
v -18.914442 54.320778 2.206898
v -23.791264 54.320778 2.206898
v -23.144352 48.012093 2.206898
v -19.561352 48.012093 2.206898
v -23.791264 54.320778 2.206898
v -19.561352 48.012093 2.206898
v -23.144352 48.012093 2.206898
v -18.914442 54.320778 2.206898
v -18.880856 52.873528 23.888609
v -18.880852 49.473999 23.778580
v -18.777855 52.944351 25.637276
v -18.777855 52.878204 27.383646
v -18.777855 52.812057 29.130016
v -18.880856 52.873528 23.888609
v -18.880861 49.474487 23.778292
v -18.777855 52.944351 25.637276
v -18.777855 52.878204 27.383646
v -18.777855 52.812057 29.130016
v -18.777855 52.745911 30.730862
v -18.777855 52.563118 36.064487
v -18.777855 52.563118 37.810856
v -18.777855 52.563118 43.173367
v -18.777855 52.563118 44.919735
v -18.777855 52.745911 30.730862
v -18.777855 52.563118 36.064487
v -18.777855 52.563118 37.810856
v -18.777855 52.563118 43.173367
v -18.777855 52.563118 44.919735
v -23.824856 52.873528 23.888609
v -23.824852 49.473999 23.778580
v -23.927853 52.944103 25.637419
v -23.927853 52.877956 27.383791
v -23.927853 52.811810 29.130161
v -23.824856 52.873528 23.888609
v -23.824862 49.474487 23.778292
v -23.927862 52.944595 25.637131
v -23.927862 52.878448 27.383503
v -23.927862 52.812302 29.129873
v -23.927853 52.745663 30.731007
v -23.927853 52.562870 36.064632
v -23.927856 52.563118 37.810856
v -23.927856 52.563118 43.173367
v -23.927856 52.563118 44.919735
v -23.927862 52.746155 30.730717
v -23.927862 52.563362 36.064342
v -23.927856 52.563118 37.810856
v -23.927856 52.563118 43.173367
v -23.927856 52.563118 44.919735
v -18.777853 52.620728 51.922867
v -18.757908 48.943691 51.922867
v -18.777853 52.620728 51.922867
v -18.757908 48.943691 51.922867
v -18.757908 48.943691 51.922867
v -18.777853 52.620728 51.922867
v -23.927855 52.620728 51.922867
v -23.947800 48.943691 51.922867
v -23.927855 52.620728 51.922867
v -23.947800 48.943691 51.922867
v -23.947800 48.943691 51.922867
v -23.927855 52.620728 51.922867
v -19.664427 49.084068 25.522511
v -19.664427 48.132042 27.268881
v -19.664427 47.197983 29.130016
v -19.664427 46.776123 31.635275
v -19.664427 46.842022 34.630447
v -19.664427 47.226307 38.277454
v -19.664427 47.917282 43.295212
v -19.664427 48.741608 49.712666
v -19.664427 49.084068 25.522511
v -19.664427 48.132042 27.268881
v -19.664427 47.197983 29.130016
v -19.664427 46.776123 31.635275
v -19.664427 46.842022 34.630447
v -19.664427 47.226307 38.277454
v -19.664427 47.917282 43.295212
v -19.664427 48.741608 49.712666
v -23.041283 48.132042 27.268881
v -23.041283 47.197983 29.130016
v -23.041283 46.776123 31.635275
v -23.041283 46.842022 34.630447
v -23.041283 47.226307 38.277454
v -23.041283 47.917282 43.295212
v -23.041283 48.741608 49.712666
v -23.041283 48.132042 27.268881
v -23.041283 47.197983 29.130016
v -23.041283 46.776123 31.635275
v -23.041283 46.842022 34.630447
v -23.041283 47.226307 38.277454
v -23.041283 47.917282 43.295212
v -23.041283 48.741608 49.712666
v -23.041283 49.084068 25.522511
v -23.041283 49.084068 25.522511
v -23.049051 49.905247 25.437973
v -19.910252 49.904247 25.437973
v -23.049353 49.098045 24.951756
v -19.910551 49.097145 24.951756
v -22.701302 47.778996 14.772097
v -19.910801 47.778046 14.772097
v -23.049702 47.197598 13.985634
v -19.910954 47.196648 13.985634
v -21.480652 46.189148 14.060690
v -21.480652 46.189148 14.060690
v -21.480652 46.189148 14.060690
v -23.048752 49.905048 25.438293
v -21.479652 48.959946 26.691496
v -19.909952 49.904148 25.438293
v -23.049051 49.097946 24.952076
v -21.480051 47.632248 25.514374
v -19.910252 49.097046 24.952076
v -22.701302 47.778996 14.772097
v -21.480352 46.576046 15.780874
v -19.910801 47.778046 14.772097
v -23.049702 47.197598 13.985634
v -21.480553 45.994648 14.994413
v -19.910954 47.196648 13.985634
v -21.480652 46.189148 14.060690
v -21.480652 46.189148 14.060690
v -21.480652 46.189148 14.060690
v -19.589252 54.661247 14.755455
v -22.728052 54.665146 14.753647
v -19.587952 55.346848 14.057941
v -22.726751 55.350746 14.056128
v -21.156252 56.336346 14.272203
v -21.156252 56.336346 14.272203
v -21.156252 56.336346 14.272203
v -19.589552 54.661346 14.755804
v -21.158253 55.712948 15.921621
v -22.728352 54.665249 14.753990
v -19.588251 55.346947 14.058292
v -21.157051 56.398548 15.224121
v -22.727053 55.350845 14.056482
v -21.156551 56.336449 14.272545
v -21.156551 56.336449 14.272545
v -21.156551 56.336449 14.272545
v -19.598452 53.465546 19.641634
v -22.737251 53.469547 19.639812
v -19.598751 53.465649 19.641964
v -21.166851 54.839848 20.402584
v -22.737553 53.469646 19.640142
v -23.698153 52.223446 31.532497
v -24.827251 50.403149 32.114395
v -23.698652 49.222847 30.611290
v -24.616552 52.401447 30.953197
v -24.617052 49.400848 30.031990
v -24.616552 52.401447 30.953197
v -26.151852 50.805347 30.804996
v -24.617052 49.400848 30.031990
v -22.020653 49.222847 30.611290
v -21.906652 50.403149 32.114395
v -22.020151 52.223446 31.532497
v -18.671852 52.223446 31.532497
v -17.542751 50.403149 32.114395
v -18.671352 49.222847 30.611290
v -17.744051 52.401447 30.953197
v -17.743652 49.400848 30.031990
v -17.744051 52.401447 30.953197
v -16.208752 50.805347 30.804996
v -17.743652 49.400848 30.031990
v -20.349352 49.222847 30.611290
v -20.463251 50.403149 32.114395
v -20.349752 52.223446 31.532497
v -23.698120 55.586319 20.674904
v -24.827251 54.403248 19.174013
v -23.698521 52.584019 19.759264
v -24.616552 55.409447 21.255043
v -24.617052 52.407146 20.339394
v -24.616552 55.409447 21.255043
v -26.151852 54.003746 20.484644
v -24.617052 52.407146 20.339394
v -21.184921 52.584019 20.013994
v -21.184952 54.403248 19.174013
v -21.184921 55.586319 20.929644
v -18.671822 55.586319 20.674904
v -17.542751 54.403248 19.174013
v -18.671322 52.584019 19.759264
v -17.744051 55.409447 21.255043
v -17.743652 52.407146 20.339394
v -17.744051 55.409447 21.255043
v -16.208752 54.003746 20.484644
v -17.743652 52.407146 20.339394
v -21.184921 52.584019 20.013994
v -21.184952 54.403248 19.174013
v -21.184921 55.586319 20.929644
v -17.744152 55.409447 21.255043
v -17.744152 55.409447 21.255043
v -16.208853 54.003746 20.484644
v -17.743652 52.407146 20.339394
v -17.744051 52.995548 24.049515
v -17.744051 52.995548 24.049515
v -16.208752 51.494648 23.590244
v -17.743551 49.999146 23.135933
v -17.743551 49.999146 23.135933
v -24.616652 55.409447 21.255043
v -24.616652 55.409447 21.255043
v -24.617151 52.407146 20.339394
v -26.151953 54.003746 20.484644
v -24.617052 49.999146 23.135933
v -24.617052 49.999146 23.135933
v -24.616451 52.995548 24.049515
v -24.616451 52.995548 24.049515
v -26.151852 51.494648 23.590244
v -16.208551 50.805748 30.805298
v -16.208752 51.494648 23.590244
v -17.744051 52.995548 24.049515
v -17.744051 52.995548 24.049515
v -17.743952 52.401848 30.953495
v -26.151752 50.805748 30.805298
v -24.616352 52.401848 30.953495
v -24.616451 52.995548 24.049515
v -24.616451 52.995548 24.049515
v -26.151852 51.494648 23.590244
v -17.743952 52.401848 30.953495
v -17.743551 49.999146 23.135933
v -17.743452 49.401245 30.032291
v -24.617052 49.999146 23.135933
v -24.616352 52.401848 30.953495
v -24.616852 49.401245 30.032291
v -17.743452 49.401245 30.032291
v -24.616852 49.401245 30.032291
v -21.400461 51.989464 51.891251
v -21.400461 51.693165 50.164776
v -21.400461 49.901421 49.842274
v -21.400461 49.619404 51.629517
v -15.525787 52.396858 50.383453
v -15.201878 52.108025 52.006218
v -15.201878 49.782990 51.749454
v -15.525787 50.071835 50.126698
v -10.750780 52.589802 49.663277
v -10.141291 52.238293 51.102531
v -10.141291 50.058132 50.745468
v -10.750780 50.409641 49.306229
v -5.797036 52.707115 48.555561
v -5.262878 52.345425 49.136585
v -5.262878 50.567837 48.749001
v -5.797036 50.876205 48.156342
v -0.815387 52.963776 45.602505
v -0.468432 52.768669 46.040382
v -0.468432 51.498966 45.763531
v -0.815387 51.694077 45.325653
v -21.400461 51.989464 51.891251
v -21.400461 51.693165 50.164776
v -21.400461 49.901421 49.842274
v -21.400461 49.619404 51.629517
v -15.525787 52.396858 50.383453
v -15.201887 52.108433 52.005970
v -15.201887 49.783409 51.749210
v -15.525787 50.071835 50.126698
v -10.750780 52.589802 49.663277
v -10.141291 52.238293 51.102531
v -10.141291 50.058132 50.745468
v -10.750780 50.409641 49.306229
v -5.797036 52.707115 48.555561
v -5.262878 52.345425 49.136585
v -5.262878 50.567837 48.749001
v -5.797036 50.876205 48.156342
v -0.815387 52.963776 45.602505
v -0.468432 52.768669 46.040382
v -0.468432 51.498966 45.763531
v -0.815387 51.694077 45.325653
v -44.418598 53.103535 43.373611
v -44.464024 52.232208 43.184231
v -45.008205 52.135628 43.085777
v -44.962803 53.007034 43.275166
v -44.418598 53.103535 43.373611
v -44.497284 53.191826 43.270416
v -44.963165 52.175690 42.581623
v -45.332771 52.044434 42.953259
v -45.187939 53.060566 43.167076
v -44.497284 53.191826 43.270416
v -45.681988 53.411942 42.935768
v -45.897430 52.020775 42.211674
v -46.110519 51.809349 43.258636
v -45.793552 53.200516 43.499386
v -45.681988 53.411942 42.935768
v -46.834629 52.807419 42.138210
v -46.834629 52.807419 42.138210
v -46.834629 52.807419 42.138210
v -46.834629 52.807419 42.138210
v -46.834629 52.807419 42.138210
v -42.332676 52.768894 46.040447
v -42.332676 51.499191 45.763596
v -41.887268 51.694290 45.448086
v -41.887268 52.963993 45.724941
v -44.418598 53.103535 43.373611
v -44.962803 53.007034 43.275166
v -45.008205 52.135628 43.085777
v -44.464024 52.232208 43.184231
v -41.887268 52.963993 45.724941
v -42.332676 52.768894 46.040447
v -42.332676 51.499191 45.763596
v -41.887268 51.694290 45.448086
v -44.418598 53.103535 43.373611
v -44.962803 53.007034 43.275166
v -45.008205 52.135628 43.085777
v -44.464024 52.232208 43.184231
v -21.400461 51.989464 51.891251
v -21.400461 51.693165 50.164776
v -21.400461 49.901421 49.842274
v -21.400461 49.619404 51.629517
v -21.400461 51.989464 51.891251
v -21.400461 51.693165 50.164776
v -21.400461 49.901421 49.842274
v -21.400461 49.619404 51.629517
v -27.275152 52.396618 50.383511
v -27.599060 52.107777 52.006283
v -27.599060 49.782753 51.749523
v -27.275152 50.071594 50.126755
v -27.275152 52.396618 50.383511
v -27.599049 52.108189 52.006035
v -27.599049 49.783165 51.749275
v -27.275152 50.071594 50.126755
v -32.050125 52.602596 49.912220
v -32.659603 52.238049 51.102585
v -32.659603 50.057884 50.745522
v -32.050125 50.422436 49.555172
v -32.050125 52.602596 49.912220
v -32.659603 52.238049 51.102585
v -32.659603 50.057884 50.745522
v -32.050125 50.422436 49.555172
v -37.003826 52.706863 48.372578
v -37.537971 52.345169 49.136627
v -37.537971 50.567593 48.749035
v -37.003826 50.875946 47.973354
v -37.003826 52.706863 48.372578
v -37.537971 52.345169 49.136627
v -37.537971 50.567593 48.749035
v -37.003826 50.875946 47.973354
v -41.887268 52.963993 45.724941
v -42.332676 52.768894 46.040447
v -42.332676 51.499191 45.763596
v -41.887268 51.694290 45.448086
v -41.887268 52.963993 45.724941
v -42.332676 52.768894 46.040447
v -42.332676 51.499191 45.763596
v -41.887268 51.694290 45.448086
v 1.549802 53.103203 43.477757
v 1.595223 52.231869 43.288376
v 2.206983 52.135292 43.085869
v 2.161580 53.006699 43.275257
v 1.549802 53.103203 43.477757
v 1.696059 53.191494 43.270504
v 2.337859 52.175358 42.610165
v 2.531554 52.044098 42.953350
v 2.386718 53.060230 43.167164
v 1.696059 53.191494 43.270504
v 2.880771 53.411602 42.935860
v 3.209047 52.020439 42.228764
v 3.309299 51.809010 43.258728
v 2.992333 53.200180 43.499477
v 2.880771 53.411602 42.935860
v 4.033414 52.807087 42.138302
v 4.033414 52.807087 42.138302
v 4.033414 52.807087 42.138302
v 4.033414 52.807087 42.138302
v 4.033414 52.807087 42.138302
v -0.468432 52.768669 46.040382
v -0.468432 51.498966 45.763531
v -0.815387 51.694077 45.325653
v -0.815387 52.963776 45.602505
v 1.549802 53.103203 43.477757
v 2.161580 53.006699 43.275257
v 2.206983 52.135292 43.085869
v 1.595223 52.231869 43.288376
v -0.815387 52.963776 45.602505
v -0.468432 52.768669 46.040382
v -0.468432 51.498966 45.763531
v -0.815387 51.694077 45.325653
v 1.549802 53.103203 43.477757
v 2.161580 53.006699 43.275257
v 2.206983 52.135292 43.085869
v 1.595223 52.231869 43.288376
v -44.355587 53.176826 43.309067
v -44.407825 52.174805 43.091278
v -45.051239 53.065857 43.340611
v -45.103458 52.063740 43.122814
v -44.830425 53.083675 43.580265
v -44.088322 53.199081 43.508854
v -44.142651 52.156979 43.282360
v -44.884727 52.041473 43.353756
v 1.481812 53.176826 43.413124
v 1.534049 52.174805 43.195335
v 2.245046 53.065857 43.340611
v 2.297259 52.063740 43.122814
v 2.024228 53.083675 43.580265
v 1.214547 53.199081 43.612911
v 1.268872 52.156979 43.386417
v 2.078530 52.041473 43.353756
v -21.511990 52.730106 43.442657
v -21.511990 53.016869 43.442657
v 1.437970 52.994541 43.422485
v 1.437970 53.176666 43.422485
v 1.437970 52.994541 43.736408
v -21.511990 53.016869 43.842297
v -21.511990 52.730106 43.842297
v 1.437970 53.176666 43.736408
v -21.511990 52.730106 43.442657
v -21.511990 53.016869 43.442657
v -21.511990 53.016869 43.842297
v -21.511990 52.730106 43.842297
v -44.305798 52.994675 43.318340
v -44.305798 53.176800 43.318340
v -44.305798 52.994675 43.632267
v -44.305798 53.176800 43.632267
v -18.671322 52.584019 19.759264
v -18.671822 55.586319 20.674904
v -21.184921 55.586319 20.929644
v -21.184921 52.584019 20.013994
v -23.698521 52.584019 19.759264
v -21.184921 52.584019 20.013994
v -21.184921 55.586319 20.929644
v -23.698120 55.586319 20.674904
v -18.156786 51.722515 46.686161
v -25.324196 49.467335 55.756828
v -25.324196 52.251343 55.756828
v -25.906206 52.251167 55.420830
v -25.906206 49.467152 55.420830
v -25.319973 49.467335 55.853966
v -25.319973 52.251343 55.853966
v -25.992004 52.251167 55.853920
v -25.992004 49.467152 55.853920
v -25.290623 49.467335 55.951485
v -25.290623 52.251343 55.951485
v -25.872675 52.251167 56.287403
v -25.872675 49.467152 56.287403
v -25.227076 49.467335 56.028343
v -25.227076 52.251343 56.028343
v -25.563244 52.251167 56.610249
v -25.563244 49.467152 56.610249
v -25.144329 49.467178 56.066830
v -25.144329 52.251190 56.066830
v -25.144571 52.251015 56.738869
v -25.144571 49.466999 56.738869
v -21.352654 48.045261 56.141991
v -21.352654 51.047058 56.141991
v -21.352654 51.046757 56.814022
v -21.352654 48.044949 56.814022
v -23.931982 49.467327 52.284412
v -23.931982 52.251343 52.284412
v -24.604017 52.251160 52.284367
v -24.604017 49.467148 52.284367
v -24.048954 49.467335 52.749454
v -24.048954 52.251343 52.749454
v -24.630964 52.251167 52.413456
v -24.630964 49.467152 52.413456
v -23.931982 49.467327 44.825100
v -23.931982 52.251343 44.825100
v -24.604017 49.467148 44.825054
v -24.604017 52.251160 44.825054
v -25.324196 49.467335 55.756828
v -25.324196 52.251343 55.756828
v -25.906206 52.251167 55.420830
v -25.906206 49.467152 55.420830
v -25.319973 49.467335 55.853966
v -25.319973 52.251343 55.853966
v -25.992004 52.251167 55.853920
v -25.992004 49.467152 55.853920
v -25.290623 49.467335 55.951485
v -25.290623 52.251343 55.951485
v -25.872675 52.251167 56.287403
v -25.872675 49.467152 56.287403
v -25.227076 49.467335 56.028343
v -25.227076 52.251343 56.028343
v -25.563244 52.251167 56.610249
v -25.563244 49.467152 56.610249
v -25.144329 49.467178 56.066830
v -25.144329 52.251190 56.066830
v -25.144571 52.251015 56.738869
v -25.144571 49.466999 56.738869
v -23.931982 49.467327 52.284412
v -23.931982 52.251343 52.284412
v -24.604017 52.251160 52.284367
v -24.604017 49.467148 52.284367
v -24.048954 49.467335 52.749454
v -24.048954 52.251343 52.749454
v -24.630964 52.251167 52.413456
v -24.630964 49.467152 52.413456
v -23.931982 49.467327 44.825100
v -23.931982 52.251343 44.825100
v -24.604017 49.467148 44.825054
v -24.604017 52.251160 44.825054
v -17.381109 49.467606 55.756905
v -17.381109 52.251617 55.756905
v -16.799099 52.251442 55.420906
v -16.799099 49.467426 55.420906
v -17.385332 49.467606 55.854042
v -17.385332 52.251617 55.854042
v -16.713301 52.251442 55.853996
v -16.713301 49.467426 55.853996
v -17.414682 49.467606 55.951561
v -17.414682 52.251617 55.951561
v -16.832630 52.251442 56.287479
v -16.832630 49.467426 56.287479
v -17.478230 49.467606 56.028419
v -17.478230 52.251617 56.028419
v -17.142061 52.251442 56.610325
v -17.142061 49.467426 56.610325
v -17.561140 49.467453 56.066906
v -17.561140 52.251465 56.066906
v -17.560898 52.251289 56.738945
v -17.560898 49.467274 56.738945
v -21.352654 48.045261 56.141991
v -21.352654 51.047058 56.141991
v -21.352654 51.046757 56.814022
v -21.352654 48.044949 56.814022
v -18.780762 49.467602 52.284489
v -18.780762 52.251617 52.284489
v -18.108727 52.251434 52.284443
v -18.108727 49.467422 52.284443
v -18.663790 49.467606 52.749531
v -18.663790 52.251617 52.749531
v -18.081779 52.251442 52.413532
v -18.081779 49.467426 52.413532
v -18.780762 49.467602 44.825176
v -18.780762 52.251617 44.825176
v -18.108727 49.467422 44.825130
v -18.108727 52.251434 44.825130
v -17.381109 49.467606 55.756905
v -17.381109 52.251617 55.756905
v -16.799099 52.251442 55.420906
v -16.799099 49.467426 55.420906
v -17.385332 49.467606 55.854042
v -17.385332 52.251617 55.854042
v -16.713301 52.251442 55.853996
v -16.713301 49.467426 55.853996
v -17.414682 49.467606 55.951561
v -17.414682 52.251617 55.951561
v -16.832630 52.251442 56.287479
v -16.832630 49.467426 56.287479
v -17.478230 49.467606 56.028419
v -17.478230 52.251617 56.028419
v -17.142061 52.251442 56.610325
v -17.142061 49.467426 56.610325
v -17.561140 49.467453 56.066906
v -17.561140 52.251465 56.066906
v -17.560898 52.251289 56.738945
v -17.560898 49.467274 56.738945
v -18.780762 49.467602 52.284489
v -18.780762 52.251617 52.284489
v -18.108727 52.251434 52.284443
v -18.108727 49.467422 52.284443
v -18.663790 49.467606 52.749531
v -18.663790 52.251617 52.749531
v -18.081779 52.251442 52.413532
v -18.081779 49.467426 52.413532
v -18.780762 49.467602 44.825176
v -18.780762 52.251617 44.825176
v -18.108727 49.467422 44.825130
v -18.108727 52.251434 44.825130
v -21.352900 51.046600 56.141907
v -21.352900 51.046299 56.813938
v -17.560898 52.251289 56.738945
v -17.561140 52.251465 56.066906
v -21.352900 51.046600 56.141907
v -25.144329 52.251190 56.066830
v -25.144571 52.251015 56.738869
v -21.352900 51.046299 56.813938
v -21.352900 48.044495 56.813938
v -21.352900 48.044804 56.141907
v -17.561140 49.467453 56.066906
v -17.560898 49.467274 56.738945
v -25.144329 49.467178 56.066830
v -21.352900 48.044804 56.141907
v -21.352900 48.044495 56.813938
v -25.144571 49.466999 56.738869
v -18.156786 50.767780 45.731709
v -18.156698 50.768173 47.640942
v -18.156698 49.813435 46.686489
v -17.616743 50.767975 46.686325
v -24.447605 51.610985 46.686161
v -24.447605 50.656246 45.731709
v -24.447693 50.656639 47.640942
v -24.447693 49.701900 46.686489
v -24.987648 50.656441 46.686325
# 577 vertices

vt 0.761376 1.421671
vt 0.759119 1.396432
vt 0.758057 1.396373
vt 0.759889 1.421588
vt 0.788954 1.425021
vt 0.791472 1.399801
vt 0.790441 1.425103
vt 0.760568 1.423584
vt 0.759021 1.423498
vt 0.788756 1.427406
vt 0.789771 1.427463
vt 0.760899 1.425636
vt 0.759352 1.425551
vt 0.788482 1.429802
vt 0.789497 1.429858
vt 0.761231 1.427689
vt 0.759684 1.427603
vt 0.788358 1.431305
vt 0.789373 1.431361
vt 0.761582 1.429576
vt 0.760035 1.429490
vt 0.788290 1.433141
vt 0.789306 1.433197
vt 0.761933 1.431463
vt 0.760386 1.431377
vt 0.788073 1.435375
vt 0.789088 1.435432
vt 0.761700 1.433446
vt 0.760150 1.433360
vt 0.788002 1.437170
vt 0.789019 1.437227
vt 0.761466 1.435429
vt 0.759917 1.435343
vt 0.788068 1.438773
vt 0.789084 1.438829
vt 0.761232 1.437413
vt 0.759683 1.437326
vt 0.787816 1.440754
vt 0.788832 1.440811
vt 0.757886 1.446955
vt 0.787754 1.450717
vt 0.789315 1.450804
vt 0.756338 1.446869
vt 0.787033 0.924092
vt 0.787526 0.835280
vt 0.879827 0.839454
vt 0.879332 0.928266
vt 0.833814 0.909508
vt 0.789453 0.834800
vt 0.880138 0.837378
vt 0.879743 0.931869
vt 0.787371 0.927497
vt 0.787988 0.832627
vt 0.868970 0.867079
vt 0.803990 0.872735
vt 0.789593 0.885618
vt 0.785386 0.929025
vt 0.866802 0.922120
vt 0.809491 0.921985
vt 0.795093 0.934868
vt 0.887661 0.932096
vt 0.898308 0.847682
vt 0.891264 0.849179
vt 0.880617 0.933594
vt 0.905398 0.889066
vt 0.888626 0.880260
vt 0.795390 0.856239
vt 0.788346 0.857710
vt 0.777631 0.942139
vt 0.784675 0.940667
vt 0.769212 0.892250
vt 0.785124 0.888926
vt 0.790870 0.858629
vt 0.780155 0.943057
vt 0.834174 0.852973
vt 0.823481 0.937275
vt 0.827711 0.884738
vt 0.787727 0.928529
vt 0.780385 0.912876
vt 0.768060 0.925242
vt 0.772651 0.926967
vt 0.771760 0.855833
vt 0.763317 0.850941
vt 0.780474 0.846122
vt 0.786525 0.852403
vt 0.794926 0.930618
vt 0.780806 0.927178
vt 0.782286 0.855430
vt 0.796757 0.854087
vt 0.804591 0.929964
vt 0.797168 0.923839
vt 0.802678 0.853961
vt 0.810998 0.856325
vt 0.829918 0.927012
vt 0.824931 0.924065
vt 0.835608 0.854776
vt 0.841283 0.855939
vt 0.887556 0.934154
vt 0.886215 0.932179
vt 0.880369 0.862705
vt 0.885487 0.860279
vt 0.880791 0.860178
vt 0.881544 0.857723
vt 0.886638 0.929653
vt 0.887857 0.930772
vt 0.898703 0.930436
vt 0.898333 0.860323
vt 0.883006 0.857196
vt 0.885551 0.934764
vt 0.904433 0.921320
vt 0.793061 0.931609
vt 0.806034 0.929433
vt 0.812189 0.855353
vt 0.879136 0.861040
vt 0.884274 0.932053
vt 0.877949 0.858346
vt 0.880119 0.858488
vt 0.884529 0.934926
vt 0.491982 1.251254
vt 0.445263 1.206848
vt 0.455689 1.214698
vt 0.484857 1.247933
vt 0.464706 1.181024
vt 0.475132 1.188872
vt 0.502150 1.229427
vt 0.495027 1.226109
vt 0.492161 1.252309
vt 0.485037 1.248991
vt 0.502330 1.230483
vt 0.495208 1.227163
vt 0.852063 -0.173431
vt 0.778122 -0.173431
vt 0.775219 -0.044511
vt 0.849160 -0.044511
vt 0.856673 -0.173431
vt 0.853770 -0.044511
vt 0.850439 -0.044516
vt 0.853343 -0.173436
vt 0.886484 -0.173431
vt 0.883581 -0.044511
vt 0.880250 -0.044516
vt 0.883153 -0.173436
vt 0.888414 -0.173431
vt 0.885510 -0.044511
vt 0.888840 -0.044516
vt 0.891743 -0.173436
vt 0.892040 -0.044516
vt 0.894944 -0.173436
vt 0.889557 -0.173435
vt 0.886654 -0.044515
vt 0.893315 -0.044520
vt 0.896219 -0.173440
vt 0.890302 -0.211910
vt 0.887399 -0.077098
vt 0.894060 -0.077106
vt 0.896963 -0.211919
vt 0.901349 0.823782
vt 0.911395 0.823779
vt 0.911397 0.837221
vt 0.911393 0.810337
vt 0.922713 0.822920
# 161 texture coordinates

vn 0.000000 0.999521 0.030951
vn 0.000000 0.997780 0.066602
vn -0.000016 0.999989 -0.004737
vn 0.000000 -0.999610 -0.027915
vn 0.000000 -0.997712 0.067615
vn 0.000000 -0.992274 -0.124070
vn -0.000032 0.999897 -0.014325
vn -0.000048 0.999930 0.011799
vn 0.000000 -0.951491 -0.307676
vn 0.000000 -0.918576 -0.395245
vn -0.000047 0.999283 0.037850
vn 0.000000 -0.883371 -0.468674
vn 0.000000 -0.888621 -0.458643
vn -0.000047 0.999239 0.038995
vn -0.000047 0.999194 0.040140
vn 0.000000 -0.933753 -0.357917
vn 0.000000 -0.964847 -0.262812
vn -0.000047 0.999330 0.036596
vn 0.000000 -0.994600 -0.103780
vn 0.000000 -0.999165 -0.040848
vn -0.000047 0.999739 0.022837
vn 0.000000 -0.998768 0.049632
vn 0.000000 -0.997012 0.077251
vn -0.000016 1.000000 -0.000047
vn 0.000000 -0.993325 0.115346
vn 0.000000 -0.992044 0.125890
vn 0.000000 -0.991060 0.133415
vn 0.000000 -0.991460 0.130410
vn 0.000000 0.999996 -0.002742
vn 0.000000 -0.994662 0.103185
vn 0.000000 0.999966 -0.008226
vn 0.000000 -0.995846 0.091052
vn -0.998908 -0.033068 -0.032992
vn -0.994749 -0.102005 -0.008350
vn -0.998521 -0.050559 -0.020003
vn -0.993047 -0.073867 0.091654
vn 0.990749 -0.039235 0.129915
vn 0.994486 -0.101977 -0.024459
vn 0.998612 -0.051034 -0.013020
vn 0.989192 -0.080650 0.122451
vn -0.983594 -0.150495 0.099465
vn -0.973501 -0.212022 0.085686
vn 0.984205 -0.156586 0.082589
vn 0.976298 -0.208438 -0.058280
vn -0.979861 -0.196036 -0.037968
vn -0.982972 -0.173275 -0.061170
vn 0.978204 -0.194610 -0.072420
vn 0.984219 -0.173546 -0.034553
vn -0.985808 -0.165085 -0.030500
vn -0.987376 -0.154102 -0.036634
vn 0.985552 -0.164340 -0.040989
vn 0.988105 -0.153247 -0.012758
vn -0.988394 -0.151416 -0.012289
vn -0.988531 -0.150748 -0.009012
vn 0.988629 -0.150064 -0.009715
vn 0.988879 -0.148696 -0.002697
vn -0.988445 -0.151578 -0.000564
vn -0.987654 -0.156501 0.006827
vn 0.988396 -0.151825 0.004860
vn 0.987489 -0.157645 0.003786
vn -0.987132 -0.159809 0.005698
vn -0.985163 -0.171025 0.014277
vn 0.986869 -0.161003 0.012954
vn 0.985224 -0.171110 0.007434
vn -0.983743 -0.179379 0.008573
vn -0.981631 -0.190034 0.016960
vn 0.983774 -0.178749 0.015433
vn 0.979738 -0.200124 0.008000
vn -0.979259 -0.202413 0.009002
vn -0.982594 -0.141473 -0.120390
vn 0.942057 -0.323964 -0.087037
vn 0.960358 -0.261540 -0.096483
vn -0.974573 -0.112241 -0.193933
vn -0.925030 0.005018 -0.379861
vn 0.948927 -0.279166 -0.146984
vn 0.999985 0.005424 -0.000045
vn 0.000000 0.000000 1.000000
vn 0.000000 0.000000 -1.000000
vn 0.000156 0.515998 -0.856590
vn 0.000218 0.739584 -0.673064
vn 0.000281 0.913437 -0.406981
vn 0.000307 0.956380 -0.292126
vn 0.000293 0.892010 -0.452015
vn 0.000185 0.574364 -0.818600
vn 0.000126 0.416777 -0.909009
vn -0.000022 -0.074257 -0.997239
vn 0.000000 0.000000 0.000000
vn -0.293944 -0.590074 0.751938
vn -0.705298 -0.365621 0.607351
vn -0.717235 -0.548578 0.429694
vn -0.017047 -0.868895 0.494703
vn 0.665170 -0.439480 0.603661
vn 0.688691 -0.660819 0.298367
vn -0.765490 -0.594044 0.247260
vn -0.039963 -0.907583 0.417966
vn 0.696816 -0.642736 0.318336
vn -0.726951 -0.619974 0.295253
vn 0.197916 -0.945991 0.256770
vn 0.654550 -0.744529 0.131304
vn 0.526075 -0.832556 -0.173482
vn -0.526610 -0.832254 -0.173307
vn -0.001085 -0.971340 -0.237690
vn -0.000913 -0.914323 -0.404985
vn -0.000700 -0.825442 -0.564486
vn -0.000050 -0.454367 -0.890814
vn 0.000199 -0.285704 -0.958318
vn 0.000829 0.212886 -0.977077
vn 0.273373 0.941112 0.198937
vn 0.695142 0.697965 0.172109
vn 0.689170 0.668954 0.278471
vn 0.002019 0.885904 0.463865
vn -0.662580 0.731700 0.160013
vn -0.695411 0.597973 0.398536
vn 0.682389 0.652369 0.329788
vn -0.197262 0.901020 0.386330
vn -0.653962 0.719529 0.233693
vn -0.525232 0.849135 -0.055690
vn 0.527407 0.847828 -0.055052
vn 0.307858 0.555109 -0.772708
vn -0.195308 -0.735097 -0.649220
vn 0.550770 0.244878 -0.797927
vn -0.334767 -0.261595 0.905262
vn -0.472966 0.479427 0.739224
vn -0.637726 -0.471003 0.609476
vn -0.448639 -0.754178 0.479519
vn -0.589354 -0.776128 0.224248
vn -0.675148 -0.554449 0.486582
vn -0.337217 0.085503 -0.937536
vn -0.546885 0.245636 -0.800362
vn 0.195384 -0.735541 -0.648694
vn -0.579412 0.738318 -0.345207
vn 0.546858 0.461144 0.698779
vn 0.284766 -0.440081 0.851608
vn 0.634960 -0.471248 0.612169
vn 0.446168 -0.753424 0.482997
vn -0.618958 -0.777391 0.112048
vn -0.379080 -0.056103 0.923662
vn -0.578151 0.535818 -0.615338
vn 0.551032 -0.243508 0.798165
vn -0.141327 -0.633391 -0.760817
vn 0.361822 0.931922 0.024602
vn -0.473106 0.810979 -0.344216
vn -0.317996 0.281838 -0.905232
vn -0.637841 -0.049379 -0.768583
vn -0.448753 -0.356846 -0.819317
vn 0.049075 -0.336031 -0.940572
vn 0.023531 0.496863 -0.867510
vn 0.056553 0.827954 -0.557937
vn -0.359901 0.932631 0.025902
vn 0.141178 -0.632377 -0.761687
vn -0.547194 -0.244243 0.800578
vn 0.316351 0.281725 -0.905844
vn 0.471149 0.811102 -0.346601
vn 0.635098 -0.048082 -0.770933
vn 0.446326 -0.354321 -0.821735
vn -0.049074 -0.336035 -0.940570
vn -0.023532 0.496864 -0.867509
vn -0.056555 0.827955 -0.557935
vn -0.871145 -0.372107 -0.320377
vn -1.000000 -0.000141 -0.000085
vn -0.376475 0.720620 0.582215
vn 0.932900 -0.273167 -0.234687
vn 0.667321 -0.571734 -0.477288
vn 0.947975 0.240635 0.208419
vn 0.683109 0.552685 0.477391
vn 1.000000 -0.000132 -0.000168
vn 0.871120 -0.372099 -0.320456
vn 0.376493 0.720653 0.582162
vn -0.667330 -0.571749 -0.477256
vn -0.932904 -0.273190 -0.234643
vn -0.947967 0.240615 0.208478
vn -0.683072 0.552674 0.477455
vn -0.877093 -0.478527 -0.041475
vn -0.382392 0.919817 0.087820
vn 0.945699 -0.323821 -0.028157
vn 0.698974 -0.712194 -0.064916
vn 0.952757 0.302624 0.025937
vn 0.722154 0.689189 0.059256
vn 0.877087 -0.478535 -0.041503
vn 0.382418 0.919807 0.087820
vn -0.698970 -0.712201 -0.064887
vn -0.945699 -0.323824 -0.028117
vn -0.952754 0.302630 0.025973
vn -0.722155 0.689187 0.059276
vn -0.049436 0.996727 0.063956
vn -0.111070 0.979492 -0.168101
vn -0.067704 0.997689 0.005780
vn -0.006313 0.980569 0.196075
vn 0.028147 -0.984643 -0.172297
vn 0.029072 -0.987361 -0.155800
vn 0.033204 -0.985042 -0.169086
vn 0.027130 -0.978808 -0.202975
vn 0.010245 0.977294 0.211642
vn 0.064826 0.953548 0.294182
vn 0.015930 -0.974965 -0.221787
vn 0.003375 -0.949756 -0.312974
vn 0.121569 0.929611 0.347914
vn 0.153119 0.913253 0.377523
vn -0.030704 -0.930159 -0.365871
vn -0.050825 -0.911774 -0.407534
vn 0.154798 0.921557 0.356049
vn 0.123925 0.939182 0.320281
vn -0.066355 -0.919640 -0.387117
vn -0.056956 -0.927943 -0.368345
vn 0.048480 -0.109637 0.992789
vn -0.016287 -0.109752 0.993826
vn 0.121107 -0.126013 0.984608
vn -0.036685 0.132310 -0.990529
vn 0.042472 0.176987 -0.983296
vn 0.033179 0.143449 -0.989101
vn -0.102260 0.126376 -0.986697
vn 0.251156 -0.139405 0.957855
vn 0.321912 -0.168923 0.931578
vn -0.189051 0.141721 -0.971687
vn -0.203190 0.175039 -0.963367
vn 0.437168 -0.175689 0.882053
vn 0.494580 -0.185156 0.849181
vn -0.324646 0.184735 -0.927619
vn -0.416069 0.193723 -0.888458
vn 0.544854 -0.178638 0.819282
vn -0.508248 0.183472 -0.841441
vn 0.910434 0.357017 0.208922
vn -0.159133 0.256618 0.953323
vn 0.762488 -0.351766 -0.543021
vn 0.530331 -0.514534 -0.673798
vn 0.332648 -0.941834 0.047904
vn 0.032326 -0.892806 0.449281
vn -0.364733 0.093269 0.926429
vn -0.000681 -0.054232 0.998528
vn 0.159583 0.766097 0.622598
vn 0.751194 0.323462 -0.575396
vn 0.056182 0.887137 -0.458074
vn 0.167268 -0.631640 -0.757002
vn -0.122889 -0.679615 0.723203
vn -0.285007 0.261247 0.922237
vn 0.041771 0.562355 -0.825840
vn 0.383972 0.378822 -0.842057
vn -0.605580 -0.747081 -0.274121
vn -0.732645 0.199089 0.650842
vn -0.557045 0.807802 0.192761
vn 0.645937 -0.312999 -0.696274
vn 0.185583 -0.894169 -0.407458
vn 0.136971 -0.917313 -0.373867
vn 0.233447 -0.867424 -0.439407
vn -0.214282 0.934138 0.285429
vn -0.210884 0.936191 0.281200
vn -0.217672 0.932053 0.289649
vn -0.719708 -0.129809 0.682033
vn -0.716156 -0.112394 0.688831
vn -0.723000 -0.147178 0.674989
vn 0.673209 0.140586 -0.725965
vn 0.676782 0.156838 -0.719283
vn 0.669421 0.124289 -0.732413
vn 0.067664 0.997691 0.005778
vn 0.111029 0.979497 -0.168102
vn 0.053365 0.996476 0.064706
vn 0.007116 0.976869 0.213720
vn -0.033166 -0.985044 -0.169080
vn -0.029036 -0.987362 -0.155800
vn -0.028122 -0.984644 -0.172292
vn -0.029492 -0.974264 -0.223471
vn -0.020822 0.970114 0.241753
vn -0.069840 0.951458 0.299750
vn -0.011519 -0.966139 -0.257763
vn 0.003560 -0.948869 -0.315650
vn -0.107208 0.941099 0.320686
vn -0.136499 0.926039 0.351881
vn 0.026197 -0.943963 -0.329010
vn 0.046946 -0.923154 -0.381554
vn -0.143666 0.925295 0.350982
vn -0.149891 0.921521 0.358234
vn 0.056845 -0.916654 -0.395618
vn 0.078619 -0.893731 -0.441661
vn 0.016301 -0.109751 0.993825
vn -0.048472 -0.109637 0.992789
vn -0.121105 -0.126013 0.984609
vn -0.033194 0.143449 -0.989101
vn -0.042489 0.176987 -0.983296
vn 0.019962 0.132315 -0.991007
vn 0.068833 0.126771 -0.989541
vn -0.251160 -0.139405 0.957854
vn -0.321916 -0.168924 0.931576
vn 0.181948 0.141738 -0.973039
vn 0.238388 0.173469 -0.955552
vn -0.437167 -0.175692 0.882053
vn -0.494574 -0.185160 0.849183
vn 0.362712 0.182247 -0.913907
vn 0.417150 0.193619 -0.887974
vn -0.544843 -0.178642 0.819289
vn 0.475787 0.187382 -0.859369
vn -0.716192 -0.352816 -0.602154
vn 0.193820 0.247056 0.949419
vn -0.918721 0.383469 0.094361
vn -0.498746 -0.487746 -0.716489
vn -0.366505 -0.930416 0.000451
vn -0.044953 -0.919788 0.389833
vn 0.385267 0.008790 0.922763
vn 0.023219 -0.068072 0.997410
vn -0.134753 0.756386 0.640096
vn -0.711371 0.369089 -0.598101
vn -0.093520 0.859230 -0.502969
vn -0.179033 -0.626232 -0.758802
vn 0.141126 -0.668953 0.729784
vn 0.285004 0.261250 0.922237
vn -0.041769 0.562354 -0.825841
vn 0.732643 0.199088 0.650844
vn 0.662399 -0.718536 -0.211974
vn -0.411649 0.333872 -0.847983
vn -0.645935 -0.312997 -0.696277
vn 0.557040 0.807806 0.192760
vn -0.190220 -0.886805 -0.421181
vn -0.085817 -0.933565 -0.347982
vn -0.291114 -0.823688 -0.486612
vn 0.225941 0.924807 0.306076
vn 0.194644 0.944006 0.266396
vn 0.256577 0.902906 0.344861
vn 0.719701 -0.129811 0.682040
vn 0.716149 -0.112396 0.688838
vn 0.722993 -0.147179 0.674996
vn -0.660901 0.143250 -0.736674
vn -0.664943 0.159118 -0.729748
vn -0.656650 0.127337 -0.743368
vn 0.433958 -0.865331 0.250763
vn 0.696267 0.637833 -0.329213
vn -0.240789 0.445149 0.862475
vn -0.427425 -0.501121 0.752453
vn 0.072794 0.819120 -0.568984
vn -0.803697 0.545497 -0.237706
vn 0.287824 -0.058034 -0.955923
vn -0.262041 -0.884042 -0.387046
vn 0.314972 0.436471 0.842785
vn -0.650071 0.677917 -0.343272
vn -0.362629 -0.897658 0.250422
vn 0.462884 -0.489628 0.738920
vn 0.751244 0.602246 -0.270060
vn -0.123722 0.812945 -0.569046
vn -0.352853 -0.055518 -0.934030
vn 0.174556 -0.890564 -0.420031
vn 0.670491 -0.331781 0.663599
vn -0.666252 0.333496 0.667000
vn -0.398793 -0.820217 0.410132
vn 0.405080 0.817756 0.408883
vn -0.337972 0.665490 -0.665506
vn -0.815050 -0.409678 -0.409705
vn 0.339628 -0.665054 -0.665098
vn 0.815429 0.409309 -0.409319
vn 0.397148 -0.820860 0.410440
vn 0.664560 0.334178 0.668345
vn -0.672191 -0.331101 0.662218
vn -0.406617 0.817151 0.408568
vn 0.815668 -0.409065 -0.409086
vn 0.340698 0.664799 -0.664806
vn -0.336984 -0.665731 -0.665766
vn -0.814794 0.409943 -0.409947
vn -0.096490 -0.290349 0.952044
vn 0.096492 -0.290347 0.952044
vn 0.996644 0.000000 0.081862
vn 0.447262 0.000000 -0.894403
vn 0.894433 0.000000 -0.447201
vn 0.986506 0.000000 0.163724
vn -0.997656 0.000000 -0.068436
vn -0.447165 0.000000 -0.894452
vn -0.894421 0.000000 -0.447226
vn -0.990589 0.000000 -0.136872
vn 0.955950 0.000000 0.293531
vn 0.939525 0.000000 0.342480
vn -0.963561 0.000000 -0.267490
vn -0.944061 0.000000 -0.329770
vn 0.967917 0.000000 0.251269
vn 0.994636 0.000000 0.103434
vn -0.945174 0.000000 -0.326568
vn -0.965364 0.000000 -0.260906
vn 0.992045 0.000000 -0.125886
vn 0.978120 0.000000 -0.208040
vn -0.999114 0.000000 -0.042086
vn -0.993378 0.000000 0.114896
vn 0.911287 0.000000 -0.411772
vn 0.847879 0.000000 -0.530189
vn -0.908013 0.000000 0.418942
vn -0.825035 0.000000 0.565082
vn 0.668979 0.000000 -0.743281
vn 0.550062 0.000000 -0.835124
vn -0.596195 0.000000 0.802840
vn -0.449241 0.000000 0.893410
vn 0.293360 0.000000 -0.956002
vn 0.156782 0.000000 -0.987633
vn -0.204133 0.000000 0.978943
vn -0.112060 0.000000 0.993701
vn 0.019819 0.000000 -0.999804
vn -0.019815 0.000000 0.999804
vn 0.000267 -1.000000 0.000028
vn -0.000997 -0.999999 -0.000357
vn -0.996644 0.000000 0.081862
vn -0.986506 0.000000 0.163724
vn 0.997656 0.000000 -0.068436
vn 0.990589 0.000000 -0.136872
vn -0.955745 0.000000 0.294196
vn -0.939045 0.000000 0.343794
vn 0.963374 0.000000 -0.268160
vn 0.943599 0.000000 -0.331091
vn -0.967561 0.000000 0.252636
vn -0.994566 0.000000 0.104112
vn 0.944716 0.000000 -0.327890
vn 0.965183 0.000000 -0.261577
vn -0.992045 0.000000 -0.125886
vn -0.978120 0.000000 -0.208040
vn 0.999114 0.000000 -0.042086
vn 0.993378 0.000000 0.114896
vn -0.911287 0.000000 -0.411772
vn -0.847879 0.000000 -0.530189
vn 0.908013 0.000000 0.418942
vn 0.825035 0.000000 0.565082
vn -0.668796 0.000000 -0.743446
vn -0.549636 0.000000 -0.835404
vn 0.596166 0.000000 0.802861
vn 0.449175 0.000000 0.893444
vn -0.292866 0.000000 -0.956153
vn -0.156525 0.000000 -0.987674
vn 0.204055 0.000000 0.978959
vn 0.112011 0.000000 0.993707
vn -0.019799 0.000000 -0.999804
vn 0.019796 0.000000 0.999804
vn 0.001716 -0.999999 -0.000267
vn 0.302797 0.953055 0.000393
vn -0.351248 -0.936282 -0.000403
vn -0.302836 0.953043 0.000393
vn 0.351281 -0.936270 -0.000403
vn 0.870411 0.000120 0.492326
vn 0.870360 0.492417 -0.000130
vn 0.870394 -0.492356 0.000066
vn 0.870376 -0.000055 -0.492387
vn -0.870360 0.492415 -0.000130
vn -0.870411 0.000119 0.492326
vn -0.870394 -0.492356 0.000066
vn -0.870376 -0.000056 -0.492387
# 435 normals

g Mesh06
usemtl Material01
s 1
f 13/1/1 1/2/2 2/3/2
f 2/3/2 33/4/3 13/1/1
f 34/5/4 3/6/5 4/6/5
f 4/6/5 14/7/6 34/5/4
f 15/8/7 13/1/1 33/4/3
f 33/4/3 35/9/8 15/8/7
f 95/10/9 34/5/4 14/7/6
f 14/7/6 65/11/10 95/10/9
f 16/12/11 15/8/7 35/9/8
f 35/9/8 36/13/11 16/12/11
f 81/14/12 95/10/9 65/11/10
f 65/11/10 66/15/13 81/14/12
f 17/16/14 16/12/11 36/13/11
f 36/13/11 37/17/15 17/16/14
f 82/18/16 81/14/12 66/15/13
f 66/15/13 67/19/17 82/18/16
f 23/20/14 17/16/14 37/17/15
f 37/17/15 43/21/18 23/20/14
f 83/22/19 82/18/16 67/19/17
f 67/19/17 68/23/20 83/22/19
f 24/24/21 23/20/14 43/21/18
f 43/21/18 44/25/8 24/24/21
f 84/26/22 83/22/19 68/23/20
f 68/23/20 69/27/23 84/26/22
f 25/28/24 24/24/21 44/25/8
f 44/25/8 45/29/24 25/28/24
f 85/30/25 84/26/22 69/27/23
f 69/27/23 70/31/26 85/30/25
f 26/32/24 25/28/24 45/29/24
f 45/29/24 46/33/24 26/32/24
f 86/34/27 85/30/25 70/31/26
f 70/31/26 71/35/28 86/34/27
f 27/36/29 26/32/24 46/33/24
f 46/33/24 47/37/3 27/36/29
f 87/38/25 86/34/27 71/35/28
f 71/35/28 72/39/30 87/38/25
f 53/40/31 27/36/29 47/37/3
f 60/41/32 87/38/25 72/39/30
f 72/39/30 54/42/32 60/41/32
f 38/4/33 6/3/34 7/6/35
f 7/6/35 39/5/36 38/4/33
f 19/7/37 8/6/38 5/2/39
f 5/2/39 18/1/40 19/7/37
f 40/9/41 38/4/33 39/5/36
f 39/5/36 96/10/42 40/9/41
f 73/11/43 19/7/37 18/1/40
f 18/1/40 20/8/44 73/11/43
f 41/13/45 40/9/41 96/10/42
f 96/10/42 88/14/46 41/13/45
f 74/15/47 73/11/43 20/8/44
f 20/8/44 21/12/48 74/15/47
f 42/17/49 41/13/45 88/14/46
f 88/14/46 89/18/50 42/17/49
f 75/19/51 74/15/47 21/12/48
f 21/12/48 22/16/52 75/19/51
f 48/21/53 42/17/49 89/18/50
f 89/18/50 90/22/54 48/21/53
f 76/23/55 75/19/51 22/16/52
f 22/16/52 28/20/56 76/23/55
f 49/25/57 48/21/53 90/22/54
f 90/22/54 91/26/58 49/25/57
f 77/27/59 76/23/55 28/20/56
f 28/20/56 29/24/60 77/27/59
f 50/29/61 49/25/57 91/26/58
f 91/26/58 92/30/62 50/29/61
f 78/31/63 77/27/59 29/24/60
f 29/24/60 30/28/64 78/31/63
f 51/33/65 50/29/61 92/30/62
f 92/30/62 93/34/66 51/33/65
f 79/35/67 78/31/63 30/28/64
f 30/28/64 31/32/68 79/35/67
f 52/37/69 51/33/65 93/34/66
f 93/34/66 94/38/70 52/37/69
f 80/39/71 79/35/67 31/32/68
f 31/32/68 32/36/72 80/39/71
f 61/43/73 52/37/69 94/38/70
f 94/38/70 62/41/74 61/43/73
f 56/42/75 80/39/71 32/36/72
f 32/36/72 55/40/76 56/42/75
f 53/40/31 47/37/3 59/43/31
f 58/40/77 64/43/77 63/41/77
f 63/41/77 57/42/77 58/40/77
f 9/3/78 12/2/78 10/6/78
f 9/3/78 10/6/78 11/6/78
# 84 triangles in group

g Mesh07
usemtl Material04
f 97/44/79 98/45/79 100/46/80
f 100/46/80 99/47/81 97/44/79
f 99/47/81 100/46/80 102/45/82
f 102/45/82 101/44/83 99/47/81
f 101/44/83 102/45/82 104/46/84
f 104/46/84 103/47/85 101/44/83
f 107/48/86 106/49/87 105/49/87
f 106/49/87 107/48/86 104/46/84
f 103/47/85 104/46/84 107/48/86
f 107/48/86 105/49/87 103/47/85
f 109/50/88 108/51/89 111/52/90
f 111/52/90 112/53/91 109/50/88
f 110/51/92 109/50/88 112/53/91
f 112/53/91 113/52/93 110/51/92
f 112/53/91 111/52/90 114/51/94
f 114/51/94 115/50/95 112/53/91
f 113/52/93 112/53/91 115/50/95
f 115/50/95 116/51/96 113/52/93
f 115/50/95 114/51/94 117/52/97
f 117/52/97 118/53/98 115/50/95
f 116/51/96 115/50/95 118/53/98
f 118/53/98 119/52/99 116/51/96
f 122/50/87 121/50/100 120/50/101
f 118/53/98 117/52/97 120/50/101
f 120/50/101 121/50/100 118/53/98
f 119/52/99 118/53/98 121/50/100
f 121/50/100 122/50/87 119/52/99
f 122/50/87 120/50/101 117/52/97
f 139/54/102 140/54/102 124/55/103
f 124/55/103 123/55/104 139/54/102
f 123/55/104 124/55/103 126/56/105
f 126/56/105 125/56/106 123/55/104
f 129/57/107 128/57/87 127/57/87
f 128/57/87 129/57/107 126/56/105
f 125/56/106 126/56/105 129/57/107
f 129/57/107 127/57/87 125/56/106
f 142/58/108 141/54/109 130/55/110
f 130/55/110 131/59/111 142/58/108
f 143/54/112 142/58/108 131/59/111
f 131/59/111 132/55/113 143/54/112
f 131/59/111 130/55/110 133/56/114
f 133/56/114 134/60/115 131/59/111
f 132/55/113 131/59/111 134/60/115
f 134/60/115 135/56/116 132/55/113
f 138/57/87 137/57/117 136/57/118
f 134/60/115 133/56/114 136/57/118
f 136/57/118 137/57/117 134/60/115
f 135/56/116 134/60/115 137/57/117
f 137/57/117 138/57/87 135/56/116
f 138/57/87 136/57/118 133/56/114
f 144/61/119 146/62/120 148/63/121
f 148/63/121 147/64/121 144/61/119
f 145/65/122 144/61/119 149/64/123
f 149/64/123 150/66/124 145/65/122
f 146/62/120 145/65/122 150/66/124
f 150/66/124 151/63/125 146/62/120
f 152/62/126 153/65/127 154/61/128
f 145/65/122 146/62/120 152/62/126
f 152/62/126 153/65/127 145/65/122
f 144/61/119 145/65/122 153/65/127
f 144/61/119 154/61/128 153/65/127
f 146/62/120 144/61/119 154/61/128
f 154/61/128 152/62/126 146/62/120
f 159/63/129 157/62/130 155/61/131
f 155/61/131 158/64/129 159/63/129
f 160/64/132 155/61/131 156/65/133
f 156/65/133 161/66/134 160/64/132
f 161/66/134 156/65/133 157/62/130
f 157/62/130 162/63/135 161/66/134
f 163/62/136 164/65/137 165/61/138
f 163/62/136 157/62/130 156/65/133
f 156/65/133 164/65/137 163/62/136
f 164/65/137 156/65/133 155/61/131
f 155/61/131 165/61/138 164/65/137
f 165/61/138 155/61/131 157/62/130
f 157/62/130 163/62/136 165/61/138
f 170/67/139 168/68/140 166/69/141
f 166/69/141 169/70/139 170/67/139
f 171/70/142 166/69/141 167/71/143
f 167/71/143 172/72/144 171/70/142
f 172/72/144 167/71/143 168/68/140
f 168/68/140 173/67/145 172/72/144
f 174/73/146 168/68/140 167/71/143
f 167/71/143 175/71/147 174/73/146
f 175/71/147 167/71/143 166/69/141
f 166/69/141 176/74/148 175/71/147
f 177/69/149 179/68/150 181/67/151
f 181/67/151 180/70/151 177/69/149
f 178/71/152 177/69/149 182/70/153
f 182/70/153 183/72/154 178/71/152
f 179/68/150 178/71/152 183/72/154
f 183/72/154 184/67/155 179/68/150
f 178/71/152 179/68/150 185/73/156
f 185/73/156 186/71/157 178/71/152
f 177/69/149 178/71/152 186/71/157
f 186/71/157 187/74/158 177/69/149
f 191/67/159 196/75/160 192/76/160
f 192/76/160 189/70/161 191/67/159
f 191/67/159 190/72/162 195/75/163
f 190/72/162 194/77/164 195/75/163
f 188/70/165 193/76/165 194/77/164
f 194/77/164 190/72/162 189/70/161
f 203/76/166 202/75/166 199/67/167
f 199/67/167 198/70/168 203/76/166
f 201/75/169 200/72/170 199/67/167
f 201/75/169 205/77/171 200/72/170
f 205/77/171 204/76/172 197/70/172
f 198/70/168 200/72/170 205/77/171
f 156/65/133 155/61/131 160/64/132
f 217/75/173 218/63/160 216/64/160
f 216/64/160 208/76/174 217/75/173
f 217/75/173 207/77/175 222/63/176
f 207/77/175 206/66/177 222/63/176
f 209/76/178 210/64/178 206/66/177
f 206/66/177 207/77/175 208/76/174
f 220/64/166 221/63/166 219/75/179
f 219/75/179 214/76/180 220/64/166
f 223/63/181 215/77/182 219/75/179
f 223/63/181 211/66/183 215/77/182
f 211/66/183 212/64/184 213/76/184
f 214/76/180 215/77/182 211/66/183
f 228/78/185 225/79/186 224/80/187
f 224/80/187 229/81/188 228/78/185
f 230/82/189 227/83/190 226/84/191
f 226/84/191 231/85/192 230/82/189
f 232/86/193 228/78/185 229/81/188
f 229/81/188 233/87/194 232/86/193
f 234/88/195 230/82/189 231/85/192
f 231/85/192 235/89/196 234/88/195
f 236/90/197 232/86/193 233/87/194
f 233/87/194 237/91/198 236/90/197
f 238/92/199 234/88/195 235/89/196
f 235/89/196 239/93/200 238/92/199
f 240/94/201 236/90/197 237/91/198
f 237/91/198 241/95/202 240/94/201
f 242/96/203 238/92/199 239/93/200
f 239/93/200 243/97/204 242/96/203
f 249/81/205 244/80/206 247/83/206
f 247/83/206 250/82/207 249/81/205
f 251/85/208 246/84/209 245/79/210
f 245/79/210 248/78/211 251/85/208
f 253/87/212 249/81/205 250/82/207
f 250/82/207 254/88/213 253/87/212
f 255/89/214 251/85/208 248/78/211
f 248/78/211 252/86/215 255/89/214
f 257/91/216 253/87/212 254/88/213
f 254/88/213 258/92/217 257/91/216
f 259/93/218 255/89/214 252/86/215
f 252/86/215 256/90/219 259/93/218
f 261/95/220 257/91/216 258/92/217
f 258/92/217 262/96/220 261/95/220
f 263/97/221 259/93/218 256/90/219
f 256/90/219 260/94/221 263/97/221
f 269/98/222 264/99/223 265/100/224
f 265/100/224 270/101/225 269/98/222
f 270/101/225 265/100/224 266/102/226
f 266/102/226 271/103/227 270/101/225
f 271/103/227 266/102/226 264/99/223
f 264/99/223 269/98/222 271/103/227
f 271/103/227 266/102/226 267/104/228
f 267/104/228 272/105/229 271/103/227
f 272/105/229 267/104/228 268/99/230
f 268/99/230 273/98/231 272/105/229
f 273/98/231 268/99/230 266/102/226
f 266/102/226 271/103/227 273/98/231
f 274/106/232 269/98/222 270/101/225
f 270/101/225 275/107/233 274/106/232
f 275/107/233 270/101/225 271/103/227
f 271/103/227 276/108/234 275/107/233
f 276/108/234 271/103/227 269/98/222
f 269/98/222 274/106/232 276/108/234
f 276/108/234 271/103/227 272/105/229
f 272/105/229 277/109/235 276/108/234
f 277/109/235 272/105/229 273/98/231
f 273/98/231 278/106/236 277/109/235
f 278/106/236 273/98/231 271/103/227
f 271/103/227 276/108/234 278/106/236
f 279/110/237 280/110/238 281/110/239
f 281/110/239 282/110/240 283/110/241
f 279/110/237 274/106/232 275/107/233
f 275/107/233 280/110/238 279/110/237
f 280/110/238 275/107/233 276/108/234
f 276/108/234 281/110/239 280/110/238
f 281/110/239 276/108/234 274/106/232
f 274/106/232 279/110/237 281/110/239
f 281/110/239 276/108/234 277/109/235
f 277/109/235 282/110/240 281/110/239
f 282/110/240 277/109/235 278/106/236
f 278/106/236 283/110/241 282/110/240
f 283/110/241 278/106/236 276/108/234
f 276/108/234 281/110/239 283/110/241
f 291/100/242 286/97/243 285/96/242
f 285/96/242 290/102/244 291/100/242
f 289/104/245 284/95/246 287/94/245
f 287/94/245 288/99/247 289/104/245
f 297/104/248 298/102/249 294/96/248
f 297/104/248 294/96/248 293/95/250
f 296/99/251 292/94/252 295/97/251
f 295/97/251 299/100/253 296/99/251
f 300/80/254 301/79/255 308/78/256
f 308/78/256 309/81/257 300/80/254
f 302/84/258 303/83/259 310/82/260
f 310/82/260 311/85/261 302/84/258
f 309/81/257 308/78/256 316/111/262
f 316/111/262 317/87/263 309/81/257
f 311/85/261 310/82/260 318/88/264
f 318/88/264 319/67/265 311/85/261
f 317/87/263 316/111/262 324/112/266
f 324/112/266 325/91/267 317/87/263
f 319/67/265 318/88/264 326/92/268
f 326/92/268 327/113/269 319/67/265
f 325/91/267 324/112/266 332/94/270
f 332/94/270 333/95/271 325/91/267
f 327/113/269 326/92/268 334/96/272
f 334/96/272 335/97/273 327/113/269
f 307/83/274 304/80/274 313/81/275
f 313/81/275 314/82/276 307/83/274
f 305/79/277 306/84/278 315/85/279
f 315/85/279 312/78/280 305/79/277
f 314/82/276 313/81/275 321/87/281
f 321/87/281 322/88/282 314/82/276
f 312/78/280 315/85/279 323/67/283
f 323/67/283 320/111/284 312/78/280
f 322/88/282 321/87/281 329/91/285
f 329/91/285 330/92/286 322/88/282
f 320/111/284 323/67/283 331/113/287
f 331/113/287 328/112/288 320/111/284
f 330/92/286 329/91/285 337/95/289
f 337/95/289 338/96/289 330/92/286
f 328/112/288 331/113/287 339/97/290
f 339/97/290 336/94/290 328/112/288
f 341/100/291 340/99/292 345/98/293
f 345/98/293 346/101/294 341/100/291
f 342/102/295 341/100/291 346/101/294
f 346/101/294 347/103/296 342/102/295
f 340/99/292 342/102/295 347/103/296
f 347/103/296 345/98/293 340/99/292
f 343/104/297 342/102/295 347/103/296
f 347/103/296 348/105/298 343/104/297
f 344/99/299 343/104/297 348/105/298
f 348/105/298 349/98/300 344/99/299
f 342/102/295 344/99/299 349/98/300
f 349/98/300 347/103/296 342/102/295
f 346/101/294 345/98/293 350/106/301
f 350/106/301 351/107/302 346/101/294
f 347/103/296 346/101/294 351/107/302
f 351/107/302 352/108/303 347/103/296
f 345/98/293 347/103/296 352/108/303
f 352/108/303 350/106/301 345/98/293
f 348/105/298 347/103/296 352/108/303
f 352/108/303 353/109/304 348/105/298
f 349/98/300 348/105/298 353/109/304
f 353/109/304 354/106/305 349/98/300
f 347/103/296 349/98/300 354/106/305
f 354/106/305 352/108/303 347/103/296
f 357/110/306 356/110/307 355/110/308
f 359/110/309 358/110/310 357/110/306
f 351/107/302 350/106/301 355/110/308
f 355/110/308 356/110/307 351/107/302
f 352/108/303 351/107/302 356/110/307
f 356/110/307 357/110/306 352/108/303
f 350/106/301 352/108/303 357/110/306
f 357/110/306 355/110/308 350/106/301
f 353/109/304 352/108/303 357/110/306
f 357/110/306 358/110/310 353/109/304
f 354/106/305 353/109/304 358/110/310
f 358/110/310 359/110/309 354/106/305
f 352/108/303 354/106/305 359/110/309
f 359/110/309 357/110/306 352/108/303
f 361/96/311 362/97/312 367/100/311
f 367/100/311 366/102/313 361/96/311
f 363/94/314 360/95/315 365/104/314
f 365/104/314 364/99/316 363/94/314
f 370/96/317 374/102/318 373/104/317
f 369/95/319 370/96/317 373/104/317
f 371/97/320 368/94/321 372/99/320
f 372/99/320 375/100/322 371/97/320
f 382/114/323 381/109/324 380/115/325
f 382/114/323 380/115/325 383/116/326
f 376/98/327 378/99/328 380/115/325
f 380/115/325 381/109/324 376/98/327
f 377/102/329 376/98/327 381/109/324
f 381/109/324 382/114/323 377/102/329
f 378/99/328 379/117/330 383/116/326
f 383/116/326 380/115/325 378/99/328
f 379/117/330 377/102/329 382/114/323
f 382/114/323 383/116/326 379/117/330
f 376/98/327 377/102/329 378/99/328
f 377/102/329 379/117/330 378/99/328
f 388/115/331 389/118/332 390/114/333
f 391/116/334 388/115/331 390/114/333
f 388/115/331 386/99/335 384/109/336
f 384/109/336 389/118/332 388/115/331
f 389/118/332 384/109/336 385/114/337
f 385/114/337 390/114/333 389/118/332
f 391/116/334 387/117/338 386/99/335
f 386/99/335 388/115/331 391/116/334
f 390/114/333 385/114/337 387/117/338
f 387/117/338 391/116/334 390/114/333
f 386/99/335 385/114/337 384/109/336
f 386/99/335 387/117/338 385/114/337
f 396/119/339 397/120/340 398/121/341
f 396/119/339 399/122/342 397/120/340
f 397/120/340 393/123/343 392/124/344
f 392/124/344 398/121/341 397/120/340
f 398/121/341 392/124/344 394/125/345
f 394/125/345 396/119/339 398/121/341
f 396/119/339 394/125/345 395/126/346
f 395/126/346 399/122/342 396/119/339
f 399/122/342 395/126/346 393/123/343
f 393/123/343 397/120/340 399/122/342
f 395/126/346 394/125/345 393/123/343
f 393/123/343 394/125/345 392/124/344
f 403/121/347 402/120/348 406/127/349
f 402/120/348 407/128/350 406/127/349
f 400/124/351 401/123/352 402/120/348
f 402/120/348 403/121/347 400/124/351
f 404/129/353 400/124/351 403/121/347
f 403/121/347 406/127/349 404/129/353
f 405/130/354 404/129/353 406/127/349
f 406/127/349 407/128/350 405/130/354
f 401/123/352 405/130/354 407/128/350
f 407/128/350 402/120/348 401/123/352
f 401/123/352 404/129/353 405/130/354
f 400/124/351 404/129/353 401/123/352
f 414/74/355 415/69/355 412/68/355
f 412/68/355 413/73/355 414/74/355
f 408/68/356 409/69/356 410/74/356
f 410/74/356 411/73/356 408/68/356
f 441/131/357 449/132/358 450/133/359
f 450/133/359 442/134/360 441/131/357
f 443/134/361 452/133/362 451/132/363
f 451/132/363 444/131/364 443/134/361
f 445/135/365 441/131/357 442/134/360
f 442/134/360 446/136/366 445/135/365
f 447/137/367 443/134/361 444/131/364
f 444/131/364 448/138/368 447/137/367
f 417/139/369 445/135/365 446/136/366
f 446/136/366 418/140/370 417/139/369
f 419/141/371 447/137/367 448/138/368
f 448/138/368 420/142/372 419/141/371
f 421/139/373 417/139/369 418/140/370
f 418/140/370 422/140/374 421/139/373
f 423/140/375 419/141/371 420/142/372
f 420/142/372 424/139/376 423/140/375
f 425/143/377 421/139/373 422/140/374
f 422/140/374 426/144/378 425/143/377
f 427/145/379 423/140/375 424/139/376
f 424/139/376 428/146/380 427/145/379
f 429/143/381 425/143/377 426/144/378
f 426/144/378 430/144/382 429/143/381
f 431/147/383 427/145/379 428/146/380
f 428/146/380 432/148/384 431/147/383
f 433/149/385 429/143/381 430/144/382
f 430/144/382 434/150/386 433/149/385
f 435/151/387 431/147/383 432/148/384
f 432/148/384 436/152/388 435/151/387
f 437/153/389 433/149/385 434/150/386
f 434/150/386 438/154/389 437/153/389
f 439/155/390 435/151/387 436/152/388
f 436/152/388 440/156/390 439/155/390
f 474/134/24 482/133/24 484/133/24
f 484/133/24 475/134/24 474/134/24
f 476/131/391 483/132/391 481/132/391
f 481/132/391 473/131/391 476/131/391
f 478/136/24 474/134/24 475/134/24
f 475/134/24 479/137/24 478/136/24
f 480/138/391 476/131/391 473/131/391
f 473/131/391 477/135/391 480/138/391
f 454/140/24 478/136/24 479/137/24
f 479/137/24 455/141/24 454/140/24
f 456/142/391 480/138/391 477/135/391
f 477/135/391 453/139/391 456/142/391
f 458/140/24 454/140/24 455/141/24
f 455/141/24 459/140/24 458/140/24
f 460/139/391 456/142/391 453/139/391
f 453/139/391 457/139/391 460/139/391
f 462/144/24 458/140/24 459/140/24
f 459/140/24 463/145/24 462/144/24
f 464/146/391 460/139/391 457/139/391
f 457/139/391 461/143/391 464/146/391
f 466/144/24 462/144/24 463/145/24
f 463/145/24 467/147/24 466/144/24
f 468/148/391 464/146/391 461/143/391
f 461/143/391 465/143/391 468/148/391
f 470/150/24 466/144/24 467/147/24
f 467/147/24 471/151/24 470/150/24
f 472/152/392 468/148/391 465/143/391
f 465/143/391 469/149/392 472/152/392
f 452/133/362 450/133/359 449/132/358
f 449/132/358 451/132/363 452/133/362
f 518/133/363 517/132/362 509/131/393
f 509/131/393 510/134/394 518/133/363
f 519/132/359 520/133/358 511/134/395
f 511/134/395 512/131/396 519/132/359
f 510/134/394 509/131/393 513/135/397
f 513/135/397 514/136/398 510/134/394
f 512/131/396 511/134/395 515/137/399
f 515/137/399 516/138/400 512/131/396
f 514/136/398 513/135/397 485/139/401
f 485/139/401 486/140/402 514/136/398
f 516/138/400 515/137/399 487/141/403
f 487/141/403 488/142/404 516/138/400
f 486/140/402 485/139/401 489/139/405
f 489/139/405 490/140/406 486/140/402
f 488/142/404 487/141/403 491/140/407
f 491/140/407 492/139/408 488/142/404
f 490/140/406 489/139/405 493/143/409
f 493/143/409 494/144/410 490/140/406
f 492/139/408 491/140/407 495/145/411
f 495/145/411 496/146/412 492/139/408
f 494/144/410 493/143/409 497/143/413
f 497/143/413 498/144/414 494/144/410
f 496/146/412 495/145/411 499/147/415
f 499/147/415 500/148/416 496/146/412
f 498/144/414 497/143/413 501/149/417
f 501/149/417 502/150/418 498/144/414
f 500/148/416 499/147/415 503/151/419
f 503/151/419 504/152/420 500/148/416
f 502/150/418 501/149/417 505/153/421
f 505/153/421 506/154/421 502/150/418
f 504/152/420 503/151/419 507/155/422
f 507/155/422 508/156/422 504/152/420
f 552/133/24 550/133/24 542/134/24
f 542/134/24 543/134/24 552/133/24
f 549/132/391 551/132/391 544/131/391
f 544/131/391 541/131/391 549/132/391
f 543/134/24 542/134/24 546/136/24
f 546/136/24 547/137/24 543/134/24
f 541/131/391 544/131/391 548/138/391
f 548/138/391 545/135/391 541/131/391
f 547/137/24 546/136/24 522/140/24
f 522/140/24 523/141/24 547/137/24
f 545/135/391 548/138/391 524/142/391
f 524/142/391 521/139/391 545/135/391
f 523/141/24 522/140/24 526/140/24
f 526/140/24 527/140/24 523/141/24
f 521/139/391 524/142/391 528/139/391
f 528/139/391 525/139/391 521/139/391
f 527/140/24 526/140/24 530/144/24
f 530/144/24 531/145/24 527/140/24
f 525/139/391 528/139/391 532/146/391
f 532/146/391 529/143/391 525/139/391
f 531/145/24 530/144/24 534/144/24
f 534/144/24 535/147/24 531/145/24
f 529/143/391 532/146/391 536/148/391
f 536/148/391 533/143/391 529/143/391
f 535/147/24 534/144/24 538/150/24
f 538/150/24 539/151/24 535/147/24
f 533/143/391 536/148/391 540/152/391
f 540/152/391 537/149/423 533/143/391
f 517/132/362 518/133/363 520/133/358
f 520/133/358 519/132/359 517/132/362
f 557/154/424 558/150/424 559/151/424
f 559/151/424 560/155/424 557/154/424
f 567/156/425 568/152/425 565/149/425
f 565/149/425 566/153/425 567/156/425
f 555/151/426 556/150/426 553/154/426
f 553/154/426 554/155/426 555/151/426
f 563/149/427 564/152/427 561/156/427
f 561/156/427 562/153/427 563/149/427
f 570/157/428 572/158/166 416/159/429
f 570/157/428 571/160/430 572/158/166
f 572/158/166 571/160/430 569/161/431
f 416/159/429 572/158/166 569/161/431
f 573/159/432 577/158/160 575/157/433
f 577/158/160 576/160/434 575/157/433
f 574/161/435 576/160/434 577/158/160
f 574/161/435 577/158/160 573/159/432
# 469 triangles in group

# 553 triangles total

