# Wavefront OBJ exported by MilkShape 3D

mtllib Ork_pike.mtl

v -21.087450 35.605034 171.738968
v -21.149345 37.622650 176.254562
v -19.780659 38.709080 167.866440
v -21.522484 39.454784 176.484589
v -21.055763 33.508408 177.869156
v -21.197243 40.386349 170.208145
v -20.755215 39.409634 170.085510
v -20.952600 39.731834 174.388275
v -21.125984 36.499420 177.423904
v -21.172707 38.422005 177.665283
v -21.829424 37.730896 167.743622
v -19.752705 38.973171 165.768433
v -21.479586 39.533504 172.232208
v -21.356951 36.489254 173.981155
v -21.424561 39.271393 174.330460
v -21.219782 40.257668 178.716553
v -21.149345 37.622650 176.254562
v -20.424141 37.764515 167.747849
v -21.062725 33.268070 182.101242
v -21.543495 37.416260 169.835236
v -21.115540 35.441345 182.374100
v -21.117281 35.776440 180.285019
v -21.101328 36.439552 169.712601
v -21.149345 37.622650 176.254562
v -21.062725 33.268070 182.101242
v -20.753262 34.848431 175.906250
v -21.411974 36.751362 171.882904
v -21.543495 37.416260 169.835236
v -21.149345 37.622650 176.254562
v -21.522484 39.191357 178.582687
v -21.339460 34.044140 182.198669
v -21.077116 33.507301 184.986603
v -21.104149 36.819016 167.629135
v -21.522484 39.454784 176.484589
v -20.886732 39.547688 172.233994
v -20.941692 39.282948 174.331909
v -20.200207 38.033298 165.650436
v -21.378618 34.306629 180.100464
v -20.424141 37.764515 167.747849
v -21.543495 37.416260 169.835236
v -21.211332 39.646492 180.770920
v -21.117281 35.776440 180.285019
v -21.115540 35.441345 182.374100
v -21.125984 36.499420 177.423904
v -21.125984 36.499420 177.423904
v -21.194424 40.533722 168.095535
v -21.874559 39.588215 167.976822
v -20.865585 39.470497 176.486572
v -20.753262 34.585007 178.004333
v -21.912369 65.783401 -25.477030
v -21.963898 38.393429 169.957916
v -21.104149 36.819016 167.629135
v -21.101328 36.439552 169.712601
v -21.424561 39.271393 174.330460
v -21.194424 40.797146 165.997452
v -21.443964 36.223755 176.078918
v -20.941692 39.282948 174.331909
v -20.753262 34.848431 175.906250
v -20.424141 37.764515 167.747849
v -21.104149 36.819016 167.629135
v -20.941692 39.282948 174.331909
v -21.591452 39.389629 170.082993
v -21.117281 35.776440 180.285019
v -21.219723 40.784512 174.520447
v -21.788328 63.874069 -25.712885
v -21.149345 37.622650 176.254562
v -21.591452 39.389629 170.082993
v -21.117281 35.776440 180.285019
v -20.784866 34.320835 180.102249
v -21.543495 37.416260 169.835236
v -20.874081 36.500805 173.982605
v -21.149345 37.622650 176.254562
v -20.824020 34.056473 182.200226
v -21.411974 36.751362 171.882904
v -21.115540 35.441345 182.374100
v -21.077116 33.507301 184.986603
v -20.469337 39.621834 167.981033
v -20.977385 37.745064 166.217026
v -21.726788 38.135677 172.056702
v -20.753262 34.848431 175.906250
v -21.829424 37.730896 167.743622
v -20.200207 38.033298 165.650436
v -21.328920 35.335831 173.836334
v -20.952600 39.731834 174.388275
v -21.219723 40.784512 174.520447
v -21.874559 39.588215 167.976822
v -21.378618 34.306629 180.100464
v -22.900930 64.766975 -25.591618
v -21.591452 39.389629 170.082993
v -21.378618 34.306629 180.100464
v -21.339460 34.044140 182.198669
v -21.424561 39.271393 174.330460
v -22.098495 39.846283 165.878052
v -20.571918 38.163307 172.060181
v -21.194424 40.797146 165.997452
v -20.941692 39.282948 174.331909
v -21.435471 39.720284 174.386826
v -21.511576 39.005894 176.428238
v -21.522484 39.454784 176.484589
v -20.941692 39.282948 174.331909
v -20.874081 36.500805 173.982605
v -21.172707 38.422005 177.665283
v -22.098495 39.846283 165.878052
v -21.410160 34.569290 178.002350
v -19.780659 38.709080 167.866440
v -21.110085 34.367764 189.108749
v -20.334803 38.432404 169.962814
v -20.865585 39.470497 176.486572
v -21.356951 36.489254 173.981155
v -21.788328 63.874069 -25.712885
v -20.784866 34.320835 180.102249
v -21.410160 34.832714 175.904266
v -20.854677 39.021610 176.430206
v -20.865585 39.207073 178.584656
v -21.055763 33.508408 177.869156
v -20.753262 34.848431 175.906250
v -21.112663 34.970013 185.170258
v -21.172707 38.422005 177.665283
v -21.443964 36.223755 176.078918
v -21.062725 33.268070 182.101242
v -22.289387 38.833157 166.420395
v -21.219782 40.257668 178.716553
v -20.753262 34.585007 178.004333
v -19.945168 38.867310 166.428421
v -20.824020 34.056473 182.200226
v -21.055763 33.244991 179.967178
v -21.104149 37.082439 165.531052
v -21.182144 38.445461 180.620117
v -20.886732 39.547688 172.233994
v -21.212276 40.741505 172.383881
v -21.104149 36.819016 167.629135
v -21.057503 33.843445 175.780060
v -21.378618 34.306629 180.100464
v -21.055763 33.508408 177.869156
v -21.190393 38.521477 182.760834
v -20.886732 39.547688 172.233994
v -21.115540 35.441345 182.374100
v -20.819120 36.765545 171.884689
v -21.479586 39.533504 172.232208
v -21.212276 40.741505 172.383881
v -21.077116 33.507301 184.986603
v -20.784866 34.320835 180.102249
v -21.356951 36.489254 173.981155
v -21.619678 37.874813 174.155121
v -20.784866 34.320835 180.102249
v -21.212276 40.741505 172.383881
v -20.799833 64.890427 -25.598244
v -21.087450 35.605034 171.738968
v -21.055763 33.244991 179.967178
v -21.424561 39.271393 174.330460
v -21.149345 37.622650 176.254562
v -21.328920 35.335831 173.836334
v -19.780659 38.709080 167.866440
v -21.522484 39.191357 178.582687
v -21.339460 34.044140 182.198669
v -21.212276 40.741505 172.383881
v -21.339460 34.044140 182.198669
v -20.865585 39.207073 178.584656
v -21.726788 38.135677 172.056702
v -20.424141 37.764515 167.747849
v -21.874559 39.588215 167.976822
v -22.053358 37.988960 165.644867
v -21.172707 38.422005 177.665283
v -20.571918 38.163307 172.060181
v -21.435471 39.720284 174.386826
v -20.865585 39.207073 178.584656
v -20.707258 37.436268 169.837738
v -21.125984 36.499420 177.423904
v -21.212276 40.741505 172.383881
v -20.469337 39.621834 167.981033
v -21.410160 34.832714 175.904266
v -21.055763 33.508408 177.869156
v -20.854677 39.021610 176.430206
v -21.522484 39.191357 178.582687
v -21.194424 40.533722 168.095535
v -21.219782 40.257668 178.716553
v -21.424561 39.271393 174.330460
v -21.149345 37.622650 176.254562
v -20.200207 38.033298 165.650436
v -20.941692 39.282948 174.331909
v -21.591452 39.389629 170.082993
v -21.435471 39.720284 174.386826
v -21.149345 37.622650 176.254562
v -20.753262 34.585007 178.004333
v -20.753262 34.585007 178.004333
v -20.707258 37.436268 169.837738
v -20.200207 38.033298 165.650436
v -21.212276 40.741505 172.383881
v -21.197243 40.386349 170.208145
v -21.219782 40.521095 176.618469
v -22.546000 38.906345 165.760040
v -21.378618 34.306629 180.100464
v -21.219723 40.784512 174.520447
v -21.182144 38.445461 180.620117
v -21.087450 35.605034 171.738968
v -20.753262 34.848431 175.906250
v -19.780659 38.709080 167.866440
v -21.077116 33.507301 184.986603
v -21.077116 33.507301 184.986603
v -21.411974 36.751362 171.882904
v -21.087450 35.605034 171.738968
v -21.182144 38.445461 180.620117
v -20.571918 38.163307 172.060181
v -21.511576 39.005894 176.428238
v -20.245344 39.890621 165.883621
v -21.055763 33.508408 177.869156
v -21.591452 39.389629 170.082993
v -21.149345 37.622650 176.254562
v -21.101328 36.439552 169.712601
v -21.788328 63.874069 -25.712885
v -21.219723 40.784512 174.520447
v -21.219782 40.521095 176.618469
v -20.865585 39.207073 178.584656
v -21.726788 38.135677 172.056702
v -21.410160 34.569290 178.002350
v -21.077116 33.507301 184.986603
v -20.952600 39.731834 174.388275
v -20.854677 39.021610 176.430206
v -21.087450 35.605034 171.738968
v -21.172707 38.422005 177.665283
v -22.518047 38.643589 167.858215
v -19.945168 38.867310 166.428421
v -21.543495 37.416260 169.835236
v -21.963898 38.393429 169.957916
v -20.755215 39.409634 170.085510
v -21.443964 36.223755 176.078918
v -22.900930 64.766975 -25.591618
v -20.846050 35.347382 173.837784
v -21.066698 34.487698 173.729843
v -20.799833 64.890427 -25.598244
v -21.112663 34.970013 185.170258
v -20.799833 64.890427 -25.598244
v -21.062725 33.268070 182.101242
v -21.077116 33.507301 184.986603
v -21.479586 39.533504 172.232208
v -21.112663 34.970013 185.170258
v -21.726788 38.135677 172.056702
v -21.726788 38.135677 172.056702
v -20.334803 38.432404 169.962814
v -22.518047 38.643589 167.858215
v -21.543495 37.416260 169.835236
v -22.900930 64.766975 -25.591618
v -21.212276 40.741505 172.383881
v -21.149345 37.622650 176.254562
v -20.469337 39.621834 167.981033
v -21.115540 35.441345 182.374100
v -21.104149 36.819016 167.629135
v -21.104149 36.819016 167.629135
v -20.846050 35.347382 173.837784
v -21.356951 36.489254 173.981155
v -20.846050 35.347382 173.837784
v -21.115540 35.441345 182.374100
v -20.865585 39.470497 176.486572
v -21.829424 37.730896 167.743622
v -21.087450 35.605034 171.738968
v -20.865585 39.470497 176.486572
v -20.865585 39.470497 176.486572
v -20.824020 34.056473 182.200226
v -22.518047 38.643589 167.858215
v -22.518047 38.643589 167.858215
v -20.755215 39.409634 170.085510
v -21.087450 35.605034 171.738968
v -21.219782 40.521095 176.618469
v -21.057503 33.843445 175.780060
v -20.865585 39.470497 176.486572
v -21.212276 40.741505 172.383881
v -21.522484 39.454784 176.484589
v -20.854677 39.021610 176.430206
v -21.522484 39.454784 176.484589
v -21.066698 34.487698 173.729843
v -20.679026 37.897320 174.157944
v -21.543495 37.416260 169.835236
v -21.356951 36.489254 173.981155
v -21.182144 38.445461 180.620117
v -21.125984 36.499420 177.423904
v -20.245344 39.890621 165.883621
v -20.571918 38.163307 172.060181
v -20.784866 34.320835 180.102249
v -21.410160 34.832714 175.904266
v -21.788328 63.874069 -25.712885
v -20.707258 37.436268 169.837738
v -20.941692 39.282948 174.331909
v -20.977385 37.745064 166.217026
v -22.900930 64.766975 -25.591618
v -21.219782 40.521095 176.618469
v -21.829424 37.730896 167.743622
v -20.679026 37.897320 174.157944
v -21.066698 34.487698 173.729843
v -21.104149 36.819016 167.629135
v -21.219723 40.784512 174.520447
v -21.062725 33.268070 182.101242
v -20.571918 38.163307 172.060181
v -21.219782 40.257668 178.716553
v -22.518047 38.643589 167.858215
v -22.053358 37.988960 165.644867
v -21.087450 35.605034 171.738968
v -21.125984 36.499420 177.423904
v -20.787066 36.239471 176.080887
v -20.824020 34.056473 182.200226
v -21.591452 39.389629 170.082993
v -21.055763 33.244991 179.967178
v -20.707258 37.436268 169.837738
v -21.963898 38.393429 169.957916
v -21.066698 34.487698 173.729843
v -21.104149 36.819016 167.629135
v -21.435471 39.720284 174.386826
v -22.546000 38.906345 165.760040
v -19.780659 38.709080 167.866440
v -20.679026 37.897320 174.157944
v -22.053358 37.988960 165.644867
v -21.522484 39.191357 178.582687
v -19.752705 38.973171 165.768433
v -20.952600 39.731834 174.388275
v -21.115540 35.441345 182.374100
v -20.707258 37.436268 169.837738
v -20.753262 34.848431 175.906250
v -21.912369 65.783401 -25.477030
v -20.334803 38.432404 169.962814
v -21.479586 39.533504 172.232208
v -21.619678 37.874813 174.155121
v -21.110085 34.367764 189.108749
v -20.571918 38.163307 172.060181
v -20.874081 36.500805 173.982605
v -20.874081 36.500805 173.982605
v -21.328920 35.335831 173.836334
v -20.707258 37.436268 169.837738
v -21.619678 37.874813 174.155121
v -20.753262 34.848431 175.906250
v -22.098495 39.846283 165.878052
v -21.219782 40.257668 178.716553
v -19.780659 38.709080 167.866440
v -20.865585 39.470497 176.486572
v -21.182144 38.445461 180.620117
v -20.799833 64.890427 -25.598244
v -20.874081 36.500805 173.982605
v -20.852551 39.963425 166.494064
v -20.787066 36.239471 176.080887
v -20.755215 39.409634 170.085510
v -20.334803 38.432404 169.962814
v -21.057503 33.843445 175.780060
v -20.787066 36.239471 176.080887
v -20.784866 34.320835 180.102249
v -21.057503 33.843445 175.780060
v -21.410160 34.832714 175.904266
v -22.098495 39.846283 165.878052
v -21.172707 38.422005 177.665283
v -21.062725 33.268070 182.101242
v -21.591452 39.389629 170.082993
v -20.886732 39.547688 172.233994
v -21.125984 36.499420 177.423904
v -21.410160 34.832714 175.904266
v -21.874559 39.588215 167.976822
v -20.799833 64.890427 -25.598244
v -20.865585 39.470497 176.486572
v -22.289387 38.833157 166.420395
v -20.977385 37.745064 166.217026
v -21.101328 36.439552 169.712601
v -21.328920 35.335831 173.836334
v -21.125984 36.499420 177.423904
v -21.912369 65.783401 -25.477030
v -21.356951 36.489254 173.981155
v -20.571918 38.163307 172.060181
v -21.194424 40.533722 168.095535
v -21.066698 34.487698 173.729843
v -19.780659 38.709080 167.866440
v -21.424561 39.271393 174.330460
v -21.055763 33.508408 177.869156
v -20.755215 39.409634 170.085510
v -21.410160 34.569290 178.002350
v -21.219782 40.257668 178.716553
v -20.874081 36.500805 173.982605
v -21.211332 39.646492 180.770920
v -21.211332 39.646492 180.770920
v -21.055763 33.508408 177.869156
v -21.055763 33.508408 177.869156
v -21.194424 40.533722 168.095535
v -22.289387 38.833157 166.420395
v -19.945168 38.867310 166.428421
v -21.219782 40.257668 178.716553
v -21.190393 38.521477 182.760834
v -20.819120 36.765545 171.884689
v -21.194424 40.533722 168.095535
v -21.197243 40.386349 170.208145
v -21.219782 40.257668 178.716553
v -21.194424 40.533722 168.095535
v -20.469337 39.621834 167.981033
v -22.518047 38.643589 167.858215
v -21.511576 39.005894 176.428238
v -21.172707 38.422005 177.665283
v -21.077116 33.507301 184.986603
v -20.941692 39.282948 174.331909
v -20.787066 36.239471 176.080887
v -20.874081 36.500805 173.982605
v -21.963898 38.393429 169.957916
v -20.846050 35.347382 173.837784
v -21.511576 39.005894 176.428238
v -21.212276 40.741505 172.383881
v -21.104149 37.082439 165.531052
v -20.707258 37.436268 169.837738
v -21.182144 38.445461 180.620117
v -21.543495 37.416260 169.835236
v -21.211332 39.646492 180.770920
v -21.522484 39.454784 176.484589
v -20.755215 39.409634 170.085510
v -20.245344 39.890621 165.883621
v -21.356951 36.489254 173.981155
v -20.784866 34.320835 180.102249
v -21.182144 38.445461 180.620117
v -21.378618 34.306629 180.100464
v -21.410160 34.832714 175.904266
v -21.125984 36.499420 177.423904
v -21.112663 34.970013 185.170258
v -21.619678 37.874813 174.155121
v -21.378618 34.306629 180.100464
v -20.753262 34.848431 175.906250
v -20.755215 39.409634 170.085510
v -21.522484 39.454784 176.484589
v -21.726788 38.135677 172.056702
v -21.087450 35.605034 171.738968
v -21.726788 38.135677 172.056702
v -20.874081 36.500805 173.982605
v -21.194424 40.533722 168.095535
v -21.087450 35.605034 171.738968
v -21.424561 39.271393 174.330460
v -21.125984 36.499420 177.423904
v -22.900930 64.766975 -25.591618
v -22.518047 38.643589 167.858215
v -21.356951 36.489254 173.981155
v -19.780659 38.709080 167.866440
v -20.819120 36.765545 171.884689
v -20.784866 34.320835 180.102249
v -21.591452 39.389629 170.082993
v -21.410160 34.832714 175.904266
v -20.852551 39.963425 166.494064
v -21.172707 38.422005 177.665283
v -21.197243 40.386349 170.208145
v -20.571918 38.163307 172.060181
v -21.066698 34.487698 173.729843
v -21.219723 40.784512 174.520447
v -21.410160 34.832714 175.904266
v -21.378618 34.306629 180.100464
v -21.194424 40.533722 168.095535
v -21.115540 35.441345 182.374100
v -21.182144 38.445461 180.620117
v -21.522484 39.454784 176.484589
v -20.707258 37.436268 169.837738
v -21.411974 36.751362 171.882904
v -21.212276 40.741505 172.383881
v -21.149345 37.622650 176.254562
v -21.726788 38.135677 172.056702
v -20.245344 39.890621 165.883621
v -20.755215 39.409634 170.085510
v -21.410160 34.569290 178.002350
v -22.518047 38.643589 167.858215
v -21.424561 39.271393 174.330460
v -21.912369 65.783401 -25.477030
v -22.053358 37.988960 165.644867
v -20.819120 36.765545 171.884689
v -21.055763 33.244991 179.967178
v -20.679026 37.897320 174.157944
v -21.443964 36.223755 176.078918
v -20.852551 39.963425 166.494064
# 462 vertices

vt 0.822591 0.898438
vt 0.839319 0.870477
vt 0.839319 0.898438
vt 0.864377 0.786596
vt 0.839319 0.786596
vt 0.839319 0.814556
vt 0.864377 0.814556
vt 0.822591 0.870477
vt 0.821545 0.842517
vt 0.863087 0.702714
vt 0.889434 0.702714
vt 0.864377 0.674754
vt 0.857093 0.842517
vt 0.872777 0.870477
vt 0.856048 0.870477
vt 0.815008 0.702714
vt 0.793374 0.702714
vt 0.787109 0.730675
vt 0.892858 0.637291
vt 0.903525 0.674754
vt 0.889434 0.674754
vt 0.806175 0.758635
vt 0.806175 0.730675
vt 0.856636 0.741443
vt 0.889434 0.730675
vt 0.889434 0.758635
vt 0.866510 0.637291
vt 0.808893 0.674754
vt 0.190169 0.225481
vt 0.405121 0.199362
vt 0.405124 0.225770
vt 0.908686 0.730675
vt 0.805862 0.870477
vt 0.805862 0.898438
vt 0.874867 0.842517
vt 0.885154 0.814556
vt 0.885154 0.786596
vt 0.900536 0.786596
vt 0.814262 0.786596
vt 0.806175 0.786596
vt 0.822003 0.741443
vt 0.839319 0.842517
vt 0.839319 0.758635
vt 0.814262 0.758635
vt 0.856048 0.898438
vt 0.814262 0.814556
vt 0.787109 0.786596
vt 0.792628 0.814556
vt 0.908686 0.702714
vt 0.787109 0.758635
vt 0.907396 0.758635
vt 0.190169 0.199458
vt 0.803772 0.842517
vt 0.872777 0.898438
vt 0.864377 0.758635
vt 0.380656 0.212861
vt 0.401872 0.212861
vt 0.391264 0.223613
vt 0.391264 0.202112
vt 0.868421 0.584627
# 60 texture coordinates

vn 0.882493 0.465043 0.070297
vn -0.981531 -0.189450 0.026549
vn -0.975158 -0.221502 -0.002097
vn -0.824895 0.541592 0.161946
vn 0.984631 -0.174609 0.003761
vn -0.984770 0.171537 0.028336
vn 0.810644 -0.585266 0.017894
vn -0.999709 -0.023918 -0.003004
vn 0.955672 -0.292997 0.029059
vn -0.962546 0.269005 0.033775
vn 0.979822 0.198314 0.024899
vn 0.770109 0.632581 0.082299
vn -0.949216 -0.312173 -0.039195
vn 0.693529 0.714816 0.089748
vn -0.911990 -0.403790 -0.072308
vn -0.810596 0.562747 0.162019
vn 0.963265 -0.229780 -0.139000
vn 0.998864 0.029020 -0.037808
vn 0.945691 -0.322534 -0.040496
vn 0.975254 0.218421 0.034222
vn -0.910163 -0.414250 0.000381
vn -0.950297 -0.275630 -0.144786
vn -0.893598 -0.407955 0.187233
vn 0.963266 -0.266457 -0.033455
vn -0.967086 -0.244332 -0.071038
vn 0.825419 -0.564299 0.015812
vn -0.984782 0.169142 0.039935
vn -0.914758 -0.400353 0.054177
vn 0.969232 0.246146 -0.001577
vn -0.953678 -0.281549 -0.105965
vn 0.966689 -0.235534 -0.100179
vn 0.970179 -0.240500 -0.030196
vn 0.963168 -0.268211 -0.019263
vn -0.998864 -0.018773 -0.043808
vn 0.974370 -0.224932 -0.002858
vn 0.967483 -0.159752 0.196100
vn -0.957366 -0.286627 -0.035987
vn -0.797045 -0.603647 0.018153
vn -0.629376 -0.770349 -0.102215
vn -0.979575 0.200502 -0.015256
vn -0.942711 -0.329523 -0.052062
vn -0.718951 0.688500 0.095281
vn 0.989297 -0.142255 0.032474
vn -0.982522 0.142411 0.119878
vn 0.718938 -0.688346 -0.096483
vn -0.959888 -0.205907 0.190310
vn -0.924864 0.374263 -0.067483
vn -0.693478 -0.714865 -0.089755
vn -0.984501 0.169300 0.045775
vn -0.942587 -0.333090 -0.024079
vn 0.928892 -0.370303 0.005906
vn -0.932522 0.330318 0.145918
vn 0.984781 -0.173772 -0.003123
vn -0.978071 0.207782 -0.014272
vn 0.999709 0.023918 0.003004
vn 0.930718 -0.359595 -0.066754
vn -0.979854 0.199576 -0.007432
vn -0.976423 0.209563 0.051784
vn 0.727446 -0.680820 -0.085480
vn 0.969541 -0.244860 0.005811
vn 0.974988 0.216170 0.051659
vn 0.975310 0.216036 0.045821
vn -0.782198 -0.622992 0.006856
vn -0.781768 -0.623432 0.013088
vn 0.957674 -0.284097 -0.046359
vn 0.948347 0.314759 0.039546
vn -0.940599 0.236424 0.243675
vn -0.644315 -0.758148 -0.100346
vn 0.904116 -0.425269 -0.041485
vn -0.907161 -0.391232 -0.154908
vn -0.941266 -0.323319 -0.097377
vn 0.797042 0.580432 0.166799
vn 0.978066 -0.197828 -0.065199
vn -0.993250 -0.009626 -0.115589
vn -0.954171 -0.266871 0.135416
vn -0.984631 0.168248 0.046839
vn 0.965242 0.257876 0.042516
vn 0.957569 -0.287617 -0.018371
vn 0.782278 0.601852 0.160672
vn 0.932512 -0.356166 0.059727
vn -0.904127 0.422302 0.064930
vn -0.969248 -0.053707 0.240156
vn 0.910941 -0.364791 0.192649
vn -0.928944 -0.367337 -0.046121
vn 0.959898 0.152422 0.235295
vn -0.930674 0.365046 0.024223
vn 0.964983 0.255915 0.057575
vn 0.975161 0.215139 0.052696
vn -0.618063 0.778655 0.108141
vn -0.976686 0.211518 0.036676
vn -0.956736 -0.290957 0.000025
vn 0.797559 0.581711 0.159723
vn -0.811042 0.563840 0.155868
vn -0.010296 0.121962 -0.992481
vn 0.629420 0.770582 0.100168
vn 0.968955 0.247059 -0.009411
vn 0.893603 0.348995 0.282270
vn 0.969239 -0.007339 0.246014
vn 0.993254 0.037897 -0.109589
vn -0.989292 0.129849 0.066638
vn 0.978413 0.202698 0.040264
vn -0.962434 -0.271376 -0.008661
vn 0.906349 0.417963 -0.061963
vn -0.987428 0.153523 0.037634
vn 0.973851 0.189210 0.125750
vn -0.987218 0.155637 0.034325
vn 0.741503 -0.664391 -0.093582
vn -0.949120 -0.313919 -0.025031
vn -0.882478 -0.468014 -0.046853
vn -0.975307 -0.220668 -0.009009
vn 0.974647 -0.222873 -0.019766
vn 0.781850 0.600744 0.166783
vn -0.727399 0.680870 0.085486
vn -0.988321 0.151201 0.018984
vn 0.824880 -0.564839 0.023030
vn -0.967477 0.106352 0.229516
vn 0.965001 -0.220990 0.141199
vn 0.967075 0.254353 -0.008426
vn 0.811091 -0.584804 0.011655
vn -0.797565 -0.603133 0.010937
vn 0.925792 -0.347277 -0.149359
vn 0.954158 0.225149 0.197209
vn -0.910951 0.305814 0.276852
vn -0.962709 -0.269325 -0.025618
vn 0.956209 -0.277969 -0.091637
vn -0.940719 -0.338380 0.023364
vn 0.914763 0.374521 0.151469
vn 0.978714 0.200556 0.043537
vn -0.965010 0.179205 0.191417
vn 0.926718 0.281132 0.249317
vn -0.825433 0.542853 0.154823
vn 0.981541 0.176957 0.072553
vn 0.912039 0.409023 0.029750
# 133 normals

g Mesh02
usemtl Material02
s 1
f 205/1/1 3/2/1 12/3/1
f 406/4/2 413/5/2 238/6/2
f 74/7/3 273/4/3 418/6/3
f 47/8/4 294/2/4 89/9/4
f 94/6/5 393/4/5 458/7/5
f 42/10/6 192/11/6 75/12/6
f 326/13/7 60/14/7 39/15/7
f 408/16/8 402/17/8 370/18/8
f 141/19/9 347/20/9 258/21/9
f 267/22/10 311/23/10 330/18/10
f 44/24/11 184/25/11 26/26/11
f 216/19/8 236/27/8 246/12/8
f 373/17/8 128/16/8 380/28/8
f 334/29/12 462/30/12 378/31/12
f 172/32/13 453/25/13 112/26/13
f 175/33/14 276/1/14 55/34/14
f 305/14/15 23/35/15 70/13/15
f 86/8/16 181/9/16 382/33/16
f 219/36/17 395/37/17 229/38/17
f 108/22/18 391/39/18 8/40/18
f 253/22/19 166/23/19 220/41/19
f 443/12/20 111/11/20 22/10/20
f 174/23/21 389/41/21 274/16/21
f 364/38/22 358/37/22 296/36/22
f 40/13/23 394/42/23 387/2/23
f 116/26/24 123/25/24 115/32/24
f 208/43/25 388/44/25 177/39/25
f 105/2/26 59/15/26 179/45/26
f 79/6/27 235/46/27 67/9/27
f 303/42/28 20/13/28 420/6/28
f 193/47/29 217/40/29 188/48/29
f 325/37/30 288/38/30 433/26/30
f 415/26/31 270/38/31 228/37/31
f 145/11/32 126/49/32 134/32/32
f 342/11/33 206/32/33 49/25/33
f 424/39/34 204/44/34 99/22/34
f 165/40/34 15/39/34 4/22/34
f 324/4/35 419/36/35 381/7/35
f 17/43/36 71/4/36 309/5/36
f 269/22/10 190/50/10 290/47/10
f 375/32/37 149/49/37 90/11/37
f 81/15/38 272/13/38 454/2/38
f 283/29/39 426/30/39 280/31/39
f 182/40/40 417/22/40 64/47/40
f 264/51/41 5/32/41 344/26/41
f 355/30/42 50/29/42 284/52/42
f 277/6/43 271/5/43 335/4/43
f 157/21/44 198/19/44 21/12/44
f 124/52/45 210/31/45 353/30/45
f 327/5/46 143/4/46 29/43/46
f 383/53/47 207/9/47 397/48/47
f 127/54/48 131/14/48 457/45/48
f 133/11/49 68/10/49 359/24/49
f 120/20/50 91/21/50 38/11/50
f 444/16/51 10/41/51 158/23/51
f 51/42/52 159/6/52 432/9/52
f 164/6/53 430/7/53 186/13/53
f 109/4/54 56/55/54 178/43/54
f 384/18/55 41/17/55 400/16/55
f 399/13/56 53/35/56 289/14/56
f 169/48/57 306/40/57 85/47/57
f 152/37/34 440/26/34 361/4/34
f 13/46/58 366/39/58 146/48/58
f 187/45/59 52/14/59 398/54/59
f 407/11/60 19/20/60 459/49/60
f 275/24/61 63/10/61 431/11/61
f 452/9/62 129/46/62 362/6/62
f 247/14/63 11/15/63 310/45/63
f 286/15/64 248/14/64 241/13/64
f 58/26/65 374/32/65 343/51/65
f 439/47/66 263/50/66 265/22/66
f 154/23/67 333/16/67 16/18/67
f 88/30/68 78/29/68 121/52/68
f 331/2/69 37/45/69 312/3/69
f 357/35/70 423/36/70 28/13/70
f 438/38/71 340/51/71 351/26/71
f 404/9/72 365/2/72 245/8/72
f 61/39/73 113/44/73 244/43/73
f 54/39/74 97/40/74 156/48/74
f 98/44/75 66/43/75 346/41/75
f 319/46/76 237/6/76 150/39/76
f 243/48/77 136/46/77 338/9/77
f 69/11/78 73/21/78 291/20/78
f 376/33/79 77/8/79 405/1/79
f 437/6/80 167/13/80 239/42/80
f 307/3/81 427/2/81 93/1/81
f 461/55/82 279/26/82 350/24/82
f 197/2/83 339/42/83 315/13/83
f 435/41/84 30/23/84 403/22/84
f 57/39/85 2/43/85 287/5/85
f 348/9/86 189/53/86 46/33/86
f 266/48/87 96/39/87 35/46/87
f 36/39/88 322/6/88 349/46/88
f 360/29/89 377/30/89 336/31/89
f 410/26/34 119/55/34 428/4/34
f 300/9/90 139/46/90 130/48/90
f 301/49/91 25/20/91 414/11/91
f 451/1/92 386/8/92 153/2/92
f 345/1/93 352/8/93 422/33/93
f 242/56/94 147/57/94 110/58/94
f 434/30/95 230/29/95 456/52/95
f 211/47/96 48/22/96 84/40/96
f 232/57/94 227/56/94 317/59/94
f 7/9/97 318/42/97 308/2/97
f 354/22/98 102/41/98 173/44/98
f 140/48/99 313/40/99 100/39/99
f 214/6/100 144/5/100 455/39/100
f 168/24/101 278/11/101 185/25/101
f 200/7/102 255/36/102 14/4/102
f 448/48/103 225/9/103 6/53/103
f 441/11/104 31/21/104 252/12/104
f 43/12/105 234/19/105 299/21/105
f 369/25/106 87/11/106 9/24/106
f 65/31/107 222/52/107 356/29/107
f 148/36/74 83/37/74 250/4/74
f 396/44/82 118/41/82 445/22/82
f 215/25/108 367/32/108 409/11/108
f 106/60/55 76/19/55 117/27/55
f 191/3/109 162/45/109 221/2/109
f 371/4/99 251/37/99 201/36/99
f 135/28/55 202/16/55 372/17/55
f 401/13/110 27/7/110 450/6/110
f 281/13/111 138/7/111 195/36/111
f 385/33/112 416/9/112 170/8/112
f 95/34/113 103/1/113 363/33/113
f 231/27/8 390/19/8 321/60/8
f 171/26/114 104/25/114 425/24/114
f 429/2/115 302/13/115 160/15/115
f 320/5/116 151/43/116 92/39/116
f 421/4/18 316/26/18 249/37/18
f 163/41/117 24/43/117 268/44/117
f 314/12/55 412/27/55 32/19/55
f 45/24/98 80/26/98 341/55/98
f 332/22/18 218/44/18 180/39/18
f 449/43/118 337/55/118 323/4/118
f 82/45/119 18/15/119 33/14/119
f 293/18/66 114/23/66 256/22/66
f 295/45/120 254/15/120 260/2/120
f 285/50/10 34/22/10 379/18/10
f 446/13/121 1/36/121 209/35/121
f 72/43/122 297/24/122 298/55/122
f 259/2/123 224/42/123 62/9/123
f 262/36/124 447/7/124 223/13/124
f 328/26/125 132/51/125 304/38/125
f 176/18/66 257/22/66 212/50/66
f 155/21/126 233/20/126 199/19/126
f 368/9/127 203/6/127 107/42/127
f 101/4/18 392/55/18 196/26/18
f 137/12/128 125/21/128 142/11/128
f 226/55/129 411/24/129 183/43/129
f 122/18/130 194/16/130 213/23/130
f 240/2/131 161/8/131 329/1/131
f 282/39/132 460/5/132 292/6/132
f 442/33/133 436/53/133 261/9/133
# 154 triangles in group

# 154 triangles total

