version 1
nodes
  0 "Bip01"  -1
  1 "Bip01 Pelvis"   0
  2 "Bip01 L Thigh"   1
  3 "Bip01 L Knee"   2
  4 "Bip01 L Foot"   3
  5 "Bip01 L Toe0"   4
  6 "Bip01 L Toe01"   5
  7 "Bip01 L Toe02"   6
  8 "Bip01 R Thigh"   1
  9 "Bip01 R Knee"   8
 10 "Bip01 R Foot"   9
 11 "Bip01 R Toe0"  10
 12 "Bip01 R Toe01"  11
 13 "Bip01 R Toe02"  12
 14 "Bip01 Spine"   1
 15 "Bip01 Spine1"  14
 16 "Bip01 Spine2"  15
 17 "Bip01 Spine3"  16
 18 "Bip01 Neck"  17
 19 "Bip01 Head"  18
 20 "Bip01 L Clavicle"  18
 21 "Bip01 L UpperArm"  20
 22 "Bip01 L Forearm"  21
 23 "Bip01 L Hand"  22
 24 "Bip01 L Finger0"  23
 25 "Bip01 L Finger01"  24
 26 "Bip01 L Finger02"  25
 27 "Bip01 L Finger1"  23
 28 "Bip01 L Finger11"  27
 29 "Bip01 L Finger12"  28
 30 "Bip01 R Clavicle"  18
 31 "Bip01 R UpperArm"  30
 32 "Bip01 R Forearm"  31
 33 "Bip01 R Hand"  32
 34 "Bip01 R Finger0"  33
 35 "Bip01 R Finger01"  34
 36 "Bip01 R Finger02"  35
 37 "Bip01 R Finger1"  33
 38 "Bip01 R Finger11"  37
 39 "Bip01 R Finger12"  38
end
skeleton
time 0
  0 0.192741 -0.192741 32.016155 1.570796 0.000000 0.000000
  1 0.000000 -6.750002 -3.510001 0.000000 0.000000 0.000000
  2 3.007735 -0.000004 -0.000002 0.797811 0.244409 0.000000
  3 0.000000 0.000000 12.794512 1.206479 0.519567 0.000000
  4 0.000000 0.000000 14.050400 0.821108 1.470961 -3.141592
  5 0.000000 0.000000 6.031133 0.113066 0.523561 0.000000
  6 0.000000 0.000000 0.757964 -0.000001 0.000000 0.000000
  7 0.000000 0.000000 0.757950 -0.000002 0.000000 0.000000
  8 -3.007735 0.000004 0.000005 -0.763901 0.236183 -3.141592
  9 0.000000 0.000000 12.794530 -1.262723 0.580349 0.000000
 10 0.000000 0.000000 13.961749 -0.758599 1.461174 -3.141592
 11 0.000000 0.000000 6.030940 -0.114774 0.523252 0.000000
 12 0.000000 0.000000 0.757934 -0.000000 -0.000000 -3.141592
 13 0.000000 0.000000 0.757953 -0.000000 -0.000000 -3.141592
 14 0.000001 1.047682 0.554789 -1.230097 0.005566 0.000000
 15 0.000000 0.000000 4.300853 0.069617 0.000476 0.000000
 16 0.000000 0.000000 3.909713 -0.008841 0.001047 -3.141592
 17 0.000000 0.000000 4.692176 0.114524 0.000608 -3.141592
 18 0.000000 0.000000 5.479362 0.000000 0.000000 0.000000
 19 0.645092 -2.464382 2.019449 -0.067789 0.159939 0.000000
 20 3.518158 -2.206055 -1.728387 2.911160 1.048239 -3.141592
 21 0.000000 0.000000 4.558179 0.290227 0.851123 0.000000
 22 0.000000 0.000000 11.949879 -0.351181 0.004253 -3.141592
 23 0.000000 0.000000 4.822874 0.000000 0.000000 0.000000
 24 -1.376730 -0.804586 1.281520 -0.659309 1.255116 -3.141592
 25 0.000000 0.000000 1.416892 0.073536 0.071051 -3.141592
 26 0.000000 0.000000 1.920310 0.269862 0.568862 0.000000
 27 0.213890 -0.856740 4.255571 0.528081 0.318569 0.000000
 28 0.000000 0.000000 1.378407 -0.049177 0.309751 -3.141592
 29 0.000000 0.000000 3.006212 0.930783 0.778878 -3.141592
 30 -3.352225 -2.014409 -1.625205 -3.111551 1.200587 0.000000
 31 0.000000 0.000000 4.228487 -0.030722 1.031015 0.000000
 32 0.000000 0.000000 13.042765 0.453051 0.161047 -3.141592
 33 0.000000 0.000000 7.153650 0.000000 0.000000 0.000000
 34 -1.945980 -0.135012 0.247196 -3.077445 1.523081 0.000000
 35 0.000000 0.000000 1.172377 -0.535111 0.583828 -3.141592
 36 0.000000 0.000000 1.923266 -0.123086 0.631228 0.000000
 37 0.111389 0.206554 2.803840 0.313340 0.079789 -3.141592
 38 0.000000 0.000000 2.609086 0.476630 0.064040 0.000000
 39 0.000000 0.000000 2.388648 0.340473 0.179722 0.000000
time 1
  0 0.192741 -0.192741 31.871620 1.570796 0.000000 0.000000
  1 0.000000 -6.750002 -3.510001 0.000000 0.000000 0.000000
  2 3.007735 -0.000004 -0.000002 0.797811 0.244409 0.000000
  3 0.000000 0.000000 12.794512 1.226570 0.519483 0.009969
  4 0.000000 0.000000 14.050400 1.028229 1.468804 -2.935518
  5 0.000000 0.000000 6.031133 0.113066 0.523561 0.000000
  6 0.000000 0.000000 0.757964 -0.000001 0.000000 0.000000
  7 0.000000 0.000000 0.757950 -0.000002 0.000000 0.000000
  8 -3.007735 0.000004 0.000005 -0.781844 0.236147 -3.145787
  9 0.000000 0.000000 12.794530 -1.262723 0.580349 0.000000
 10 0.000000 0.000000 13.961749 -1.230969 1.447853 -3.610909
 11 0.000000 0.000000 6.030940 -0.114774 0.523252 0.000000
 12 0.000000 0.000000 0.757934 -0.000000 -0.000000 -3.141592
 13 0.000000 0.000000 0.757953 -0.000000 -0.000000 -3.141592
 14 0.000001 1.047682 0.554789 -1.250051 -0.052056 0.033030
 15 0.000000 0.000000 4.300853 0.067232 -0.023895 -0.048777
 16 0.000000 0.000000 3.909713 -0.012556 0.021732 -3.200919
 17 0.000000 0.000000 4.692176 0.114524 0.000608 -3.141592
 18 0.000000 0.000000 5.479362 -0.010436 -0.000875 0.041874
 19 0.645092 -2.464382 2.019449 -0.067789 0.159939 0.059317
 20 3.518158 -2.206055 -1.728387 2.911160 1.048239 -3.141592
 21 0.000000 0.000000 4.558179 0.342325 0.859190 -0.044183
 22 0.000000 0.000000 11.949879 -0.511746 0.004201 -3.142251
 23 0.000000 0.000000 4.822874 0.153580 0.000000 0.000000
 24 -1.376730 -0.804586 1.281520 -0.659309 1.255116 -3.141592
 25 0.000000 0.000000 1.416892 0.073536 0.071051 -3.141592
 26 0.000000 0.000000 1.920310 0.269862 0.568862 0.000000
 27 0.213890 -0.856740 4.255571 0.528081 0.318569 0.000000
 28 0.000000 0.000000 1.378407 -0.049177 0.309751 -3.141592
 29 0.000000 0.000000 3.006212 0.930783 0.778878 -3.141592
 30 -3.352225 -2.014409 -1.625205 -3.111551 1.200587 0.000000
 31 0.000000 0.000000 4.228487 0.145557 0.570377 0.283746
 32 0.000000 0.000000 13.042765 0.534653 -0.025161 -2.802230
 33 0.000000 0.000000 7.153650 0.013975 -0.001618 0.090707
 34 -1.945980 -0.135012 0.247196 -3.077445 1.523081 0.000000
 35 0.000000 0.000000 1.172377 -0.535111 0.583828 -3.141592
 36 0.000000 0.000000 1.923266 -0.123086 0.631228 0.000000
 37 0.111389 0.206554 2.803840 0.313340 0.079789 -3.141592
 38 0.000000 0.000000 2.609086 0.476630 0.064040 0.000000
 39 0.000000 0.000000 2.388648 0.340473 0.179722 0.000000
time 2
  0 0.192741 -0.192741 31.715364 1.570796 0.000000 0.000000
  1 0.000000 -6.750002 -3.510001 0.000000 0.000000 0.000000
  2 3.007735 -0.000004 -0.000002 0.797811 0.244409 0.000000
  3 0.000000 0.000000 12.794512 1.246660 0.519219 0.019952
  4 0.000000 0.000000 14.050400 1.219152 1.462560 -2.745673
  5 0.000000 0.000000 6.031133 0.113066 0.523561 0.000000
  6 0.000000 0.000000 0.757964 -0.000001 0.000000 0.000000
  7 0.000000 0.000000 0.757950 -0.000002 0.000000 0.000000
  8 -3.007735 0.000004 0.000005 -0.799787 0.236039 -3.149981
  9 0.000000 0.000000 12.794530 -1.262723 0.580349 0.000000
 10 0.000000 0.000000 13.961749 -1.556461 1.414475 -3.933246
 11 0.000000 0.000000 6.030940 -0.114774 0.523252 0.000000
 12 0.000000 0.000000 0.757934 -0.000000 -0.000000 -3.141592
 13 0.000000 0.000000 0.757953 -0.000000 -0.000000 -3.141592
 14 0.000001 1.047682 0.554789 -1.271995 -0.108971 0.067377
 15 0.000000 0.000000 4.300853 0.066034 -0.048352 -0.097543
 16 0.000000 0.000000 3.909713 -0.017506 0.042154 -3.260369
 17 0.000000 0.000000 4.692176 0.114524 0.000608 -3.141592
 18 0.000000 0.000000 5.479362 -0.020934 -0.001306 0.083772
 19 0.645092 -2.464382 2.019449 -0.067789 0.159939 0.118660
 20 3.518158 -2.206055 -1.728387 2.911160 1.048239 -3.141592
 21 0.000000 0.000000 4.558179 0.394422 0.868749 -0.088131
 22 0.000000 0.000000 11.949879 -0.672310 0.004046 -3.142910
 23 0.000000 0.000000 4.822874 0.307160 0.000000 0.000000
 24 -1.376730 -0.804586 1.281520 -0.659309 1.255116 -3.141592
 25 0.000000 0.000000 1.416892 0.073536 0.071051 -3.141592
 26 0.000000 0.000000 1.920310 0.269862 0.568862 0.000000
 27 0.213890 -0.856740 4.255571 0.528081 0.318569 0.000000
 28 0.000000 0.000000 1.378407 -0.049177 0.309751 -3.141592
 29 0.000000 0.000000 3.006212 0.930783 0.778878 -3.141592
 30 -3.352225 -2.014409 -1.625205 -3.111551 1.200587 0.000000
 31 0.000000 0.000000 4.228487 0.166028 0.095305 0.444308
 32 0.000000 0.000000 13.042765 0.550448 -0.227790 -2.470369
 33 0.000000 0.000000 7.153650 0.027739 -0.004494 0.181374
 34 -1.945980 -0.135012 0.247196 -3.077445 1.523081 0.000000
 35 0.000000 0.000000 1.172377 -0.535111 0.583828 -3.141592
 36 0.000000 0.000000 1.923266 -0.123086 0.631228 0.000000
 37 0.111389 0.206554 2.803840 0.313340 0.079789 -3.141592
 38 0.000000 0.000000 2.609086 0.476630 0.064040 0.000000
 39 0.000000 0.000000 2.388648 0.340473 0.179722 0.000000
time 3
  0 0.192741 -0.192741 31.563017 1.570796 0.000000 0.000000
  1 0.000000 -6.750002 -3.510001 0.000000 0.000000 0.000000
  2 3.007735 -0.000004 -0.000002 0.797811 0.244409 0.000000
  3 0.000000 0.000000 12.794512 1.266751 0.518788 0.029920
  4 0.000000 0.000000 14.050400 1.384138 1.452900 -2.581682
  5 0.000000 0.000000 6.031133 0.113066 0.523561 0.000000
  6 0.000000 0.000000 0.757964 -0.000001 0.000000 0.000000
  7 0.000000 0.000000 0.757950 -0.000002 0.000000 0.000000
  8 -3.007735 0.000004 0.000005 -0.817730 0.235859 -3.154176
  9 0.000000 0.000000 12.794530 -1.262723 0.580349 0.000000
 10 0.000000 0.000000 13.961749 -1.755207 1.370865 -4.129026
 11 0.000000 0.000000 6.030940 -0.114774 0.523252 0.000000
 12 0.000000 0.000000 0.757934 -0.000000 -0.000000 -3.141592
 13 0.000000 0.000000 0.757953 -0.000000 -0.000000 -3.141592
 14 0.000001 1.047682 0.554789 -1.296084 -0.165095 0.103235
 15 0.000000 0.000000 4.300853 0.066022 -0.072843 -0.146356
 16 0.000000 0.000000 3.909713 -0.023666 0.062252 -3.319978
 17 0.000000 0.000000 4.692176 0.114524 0.000608 -3.141592
 18 0.000000 0.000000 5.479362 -0.031411 -0.001306 0.125658
 19 0.645092 -2.464382 2.019449 -0.067789 0.159939 0.178003
 20 3.518158 -2.206055 -1.728387 2.911160 1.048239 -3.141592
 21 0.000000 0.000000 4.558179 0.446424 0.879800 -0.131767
 22 0.000000 0.000000 11.949879 -0.832875 0.003787 -3.143537
 23 0.000000 0.000000 4.822874 0.460740 0.000000 0.000000
 24 -1.376730 -0.804586 1.281520 -0.659309 1.255116 -3.141592
 25 0.000000 0.000000 1.416892 0.073536 0.071051 -3.141592
 26 0.000000 0.000000 1.920310 0.269862 0.568862 0.000000
 27 0.213890 -0.856740 4.255571 0.528081 0.318569 0.000000
 28 0.000000 0.000000 1.378407 -0.049177 0.309751 -3.141592
 29 0.000000 0.000000 3.006212 0.930783 0.778878 -3.141592
 30 -3.352225 -2.014409 -1.625205 -3.111551 1.200587 0.000000
 31 0.000000 0.000000 4.228487 0.108979 -0.376947 0.606307
 32 0.000000 0.000000 13.042765 0.494446 -0.423971 -2.118485
 33 0.000000 0.000000 7.153650 0.041229 -0.008605 0.271999
 34 -1.945980 -0.135012 0.247196 -3.077445 1.523081 0.000000
 35 0.000000 0.000000 1.172377 -0.535111 0.583828 -3.141592
 36 0.000000 0.000000 1.923266 -0.123086 0.631228 0.000000
 37 0.111389 0.206554 2.803840 0.313340 0.079789 -3.141592
 38 0.000000 0.000000 2.609086 0.476630 0.064040 0.000000
 39 0.000000 0.000000 2.388648 0.340473 0.179722 0.000000
time 4
  0 0.192741 -0.192741 31.434107 1.570796 0.000000 0.000000
  1 0.000000 -6.750002 -3.510001 0.000000 0.000000 0.000000
  2 3.007735 -0.000004 -0.000002 0.797811 0.244409 0.000000
  3 0.000000 0.000000 12.794512 1.286842 0.518177 0.039874
  4 0.000000 0.000000 14.050400 1.521220 1.440568 -2.445715
  5 0.000000 0.000000 6.031133 0.113066 0.523561 0.000000
  6 0.000000 0.000000 0.757964 -0.000001 0.000000 0.000000
  7 0.000000 0.000000 0.757950 -0.000002 0.000000 0.000000
  8 -3.007735 0.000004 0.000005 -0.835673 0.235608 -3.158371
  9 0.000000 0.000000 12.794530 -1.262723 0.580349 0.000000
 10 0.000000 0.000000 13.961749 -1.880610 1.322379 -4.251269
 11 0.000000 0.000000 6.030940 -0.114774 0.523252 0.000000
 12 0.000000 0.000000 0.757934 -0.000000 -0.000000 -3.141592
 13 0.000000 0.000000 0.757953 -0.000000 -0.000000 -3.141592
 14 0.000001 1.047682 0.554789 -1.322486 -0.220296 0.140879
 15 0.000000 0.000000 4.300853 0.067220 -0.097316 -0.195265
 16 0.000000 0.000000 3.909713 -0.031012 0.081955 -3.379795
 17 0.000000 0.000000 4.692176 0.114524 0.000608 -3.141592
 18 0.000000 0.000000 5.479362 -0.041888 -0.000875 0.167545
 19 0.645092 -2.464382 2.019449 -0.067789 0.159939 0.237346
 20 3.518158 -2.206055 -1.728387 2.911160 1.048239 -3.141592
 21 0.000000 0.000000 4.558179 0.498426 0.892283 -0.175090
 22 0.000000 0.000000 11.949879 -0.993440 0.003424 -3.144133
 23 0.000000 0.000000 4.822874 0.614352 0.000000 0.000000
 24 -1.376730 -0.804586 1.281520 -0.659309 1.255116 -3.141592
 25 0.000000 0.000000 1.416892 0.073536 0.071051 -3.141592
 26 0.000000 0.000000 1.920310 0.269862 0.568862 0.000000
 27 0.213890 -0.856740 4.255571 0.528081 0.318569 0.000000
 28 0.000000 0.000000 1.378407 -0.049177 0.309751 -3.141592
 29 0.000000 0.000000 3.006212 0.930783 0.778878 -3.141592
 30 -3.352225 -2.014409 -1.625205 -3.111551 1.200587 0.000000
 31 0.000000 0.000000 4.228487 -0.077760 -0.827984 0.868759
 32 0.000000 0.000000 13.042765 0.355654 -0.587097 -1.717090
 33 0.000000 0.000000 7.153650 0.054265 -0.013914 0.362585
 34 -1.945980 -0.135012 0.247196 -3.077445 1.523081 0.000000
 35 0.000000 0.000000 1.172377 -0.535111 0.583828 -3.141592
 36 0.000000 0.000000 1.923266 -0.123086 0.631228 0.000000
 37 0.111389 0.206554 2.803840 0.313340 0.079789 -3.141592
 38 0.000000 0.000000 2.609086 0.476630 0.064040 0.000000
 39 0.000000 0.000000 2.388648 0.340473 0.179722 0.000000
time 5
  0 0.192741 -0.192741 31.352072 1.570796 0.000000 0.000000
  1 0.000000 -6.750002 -3.510001 0.000000 0.000000 0.000000
  2 3.007735 -0.000004 -0.000002 0.797811 0.244409 0.000000
  3 0.000000 0.000000 12.794512 1.306896 0.517398 0.049799
  4 0.000000 0.000000 14.050400 1.633020 1.426247 -2.334940
  5 0.000000 0.000000 6.031133 0.113066 0.523561 0.000000
  6 0.000000 0.000000 0.757964 -0.000001 0.000000 0.000000
  7 0.000000 0.000000 0.757950 -0.000002 0.000000 0.000000
  8 -3.007735 0.000004 0.000005 -0.853615 0.235272 -3.162553
  9 0.000000 0.000000 12.794530 -1.262723 0.580349 0.000000
 10 0.000000 0.000000 13.961749 -1.964883 1.271327 -4.332477
 11 0.000000 0.000000 6.030940 -0.114774 0.523252 0.000000
 12 0.000000 0.000000 0.757934 -0.000000 -0.000000 -3.141592
 13 0.000000 0.000000 0.757953 -0.000000 -0.000000 -3.141592
 14 0.000001 1.047682 0.554789 -1.351381 -0.274454 0.180524
 15 0.000000 0.000000 4.300853 0.069617 -0.121688 -0.244342
 16 0.000000 0.000000 3.909713 -0.039558 0.101166 -3.439869
 17 0.000000 0.000000 4.692176 0.114524 0.000608 -3.141592
 18 0.000000 0.000000 5.479362 -0.052344 0.000000 0.209431
 19 0.645092 -2.464382 2.019449 -0.067789 0.159939 0.296690
 20 3.518158 -2.206055 -1.728387 2.911160 1.048239 -3.141592
 21 0.000000 0.000000 4.558179 0.550332 0.906160 -0.218021
 22 0.000000 0.000000 11.949879 -1.154005 0.002958 -3.144635
 23 0.000000 0.000000 4.822874 0.767932 0.000000 0.000000
 24 -1.376730 -0.804586 1.281520 -0.659309 1.255116 -3.141592
 25 0.000000 0.000000 1.416892 0.073536 0.071051 -3.141592
 26 0.000000 0.000000 1.920310 0.269862 0.568862 0.000000
 27 0.213890 -0.856740 4.255571 0.528081 0.318569 0.000000
 28 0.000000 0.000000 1.378407 -0.049177 0.309751 -3.141592
 29 0.000000 0.000000 3.006212 0.930783 0.778878 -3.141592
 30 -3.352225 -2.014409 -1.625205 -3.111551 1.200587 0.000000
 31 0.000000 0.000000 4.228487 -0.724223 -1.168981 1.579112
 32 0.000000 0.000000 13.042765 0.133477 -0.684241 -1.250777
 33 0.000000 0.000000 7.153650 0.066755 -0.020386 0.453089
 34 -1.945980 -0.135012 0.247196 -3.077445 1.523081 0.000000
 35 0.000000 0.000000 1.172377 -0.535111 0.583828 -3.141592
 36 0.000000 0.000000 1.923266 -0.123086 0.631228 0.000000
 37 0.111389 0.206554 2.803840 0.313340 0.079789 -3.141592
 38 0.000000 0.000000 2.609086 0.476630 0.064040 0.000000
 39 0.000000 0.000000 2.388648 0.340473 0.179722 0.000000
time 6
  0 0.192741 -0.192741 31.313009 1.570796 0.000000 0.000000
  1 0.000000 -6.750002 -3.510001 0.000000 0.000000 0.000000
  2 3.007735 -0.000004 -0.000002 0.797811 0.244409 0.000000
  3 0.000000 0.000000 12.794512 1.303566 0.517542 0.048150
  4 0.000000 0.000000 14.050400 1.615979 1.428739 -2.351830
  5 0.000000 0.000000 6.031133 0.113066 0.523561 0.000000
  6 0.000000 0.000000 0.757964 -0.000001 0.000000 0.000000
  7 0.000000 0.000000 0.757950 -0.000002 0.000000 0.000000
  8 -3.007735 0.000004 0.000005 -0.850646 0.235332 -3.161858
  9 0.000000 0.000000 12.794530 -1.262723 0.580349 0.000000
 10 0.000000 0.000000 13.961749 -1.952803 1.279960 -4.320876
 11 0.000000 0.000000 6.030940 -0.114774 0.523252 0.000000
 12 0.000000 0.000000 0.757934 -0.000000 -0.000000 -3.141592
 13 0.000000 0.000000 0.757953 -0.000000 -0.000000 -3.141592
 14 0.000001 1.047682 0.554789 -1.346384 -0.265513 0.173765
 15 0.000000 0.000000 4.300853 0.069437 -0.042596 -0.161193
 16 0.000000 0.000000 3.909713 -0.040816 0.062192 -3.400048
 17 0.000000 0.000000 4.692176 0.114524 0.000608 -3.097963
 18 0.000000 0.000000 5.479362 -0.030727 0.043432 0.201113
 19 0.645092 -2.464382 2.019449 -0.109031 0.104399 0.168420
 20 3.518158 -2.206055 -1.728387 2.911160 1.048239 -3.141592
 21 0.000000 0.000000 4.558179 0.328917 0.838247 -0.426502
 22 0.000000 0.000000 11.949879 -1.222262 -0.093284 -3.018006
 23 0.000000 0.000000 4.822874 0.742320 0.000000 0.000000
 24 -1.376730 -0.804586 1.281520 -0.659309 1.255116 -3.141592
 25 0.000000 0.000000 1.416892 0.073536 0.071051 -3.141592
 26 0.000000 0.000000 1.920310 0.269862 0.568862 0.000000
 27 0.213890 -0.856740 4.255571 0.528081 0.318569 0.000000
 28 0.000000 0.000000 1.378407 -0.049177 0.309751 -3.141592
 29 0.000000 0.000000 3.006212 0.930783 0.778878 -3.141592
 30 -3.352225 -2.014409 -1.625205 -3.111551 1.200587 0.000000
 31 0.000000 0.000000 4.228487 -0.503409 -0.757556 1.157626
 32 0.000000 0.000000 13.042765 0.124415 -0.804598 -1.405195
 33 0.000000 0.000000 7.153650 -0.084338 -0.123501 0.569353
 34 -1.945980 -0.135012 0.247196 -3.363074 1.391849 -0.487375
 35 0.000000 0.000000 1.172377 -0.535111 0.781611 -3.141592
 36 0.000000 0.000000 1.923266 -0.316358 0.716803 -0.167619
 37 0.111389 0.206554 2.803840 0.406711 0.079453 -3.134162
 38 0.000000 0.000000 2.609086 0.584459 0.063680 0.006879
 39 0.000000 0.000000 2.388648 0.402553 0.179386 0.011086
time 7
  0 0.192741 -0.192741 31.305197 1.570796 0.000000 0.000000
  1 0.000000 -6.750002 -3.510001 0.000000 0.000000 0.000000
  2 3.007735 -0.000004 -0.000002 0.797811 0.244409 0.000000
  3 0.000000 0.000000 12.794512 1.300236 0.517673 0.046500
  4 0.000000 0.000000 14.050400 1.598282 1.431196 -2.369286
  5 0.000000 0.000000 6.031133 0.113066 0.523561 0.000000
  6 0.000000 0.000000 0.757964 -0.000001 0.000000 0.000000
  7 0.000000 0.000000 0.757950 -0.000002 0.000000 0.000000
  8 -3.007735 0.000004 0.000005 -0.847634 0.235392 -3.161163
  9 0.000000 0.000000 12.794530 -1.262723 0.580349 0.000000
 10 0.000000 0.000000 13.961749 -1.940052 1.288555 -4.308700
 11 0.000000 0.000000 6.030940 -0.114774 0.523252 0.000000
 12 0.000000 0.000000 0.757934 -0.000000 -0.000000 -3.141592
 13 0.000000 0.000000 0.757953 -0.000000 -0.000000 -3.141592
 14 0.000001 1.047682 0.554789 -1.341458 -0.256525 0.167065
 15 0.000000 0.000000 4.300853 0.075813 0.036224 -0.078080
 16 0.000000 0.000000 3.909713 -0.043620 0.023290 -3.360240
 17 0.000000 0.000000 4.692176 0.114524 0.000608 -3.054333
 18 0.000000 0.000000 5.479362 -0.009400 0.087044 0.193707
 19 0.645092 -2.464382 2.019449 -0.142650 0.044138 0.043096
 20 3.518158 -2.206055 -1.728387 2.911160 1.048239 -3.141592
 21 0.000000 0.000000 4.558179 0.148108 0.744955 -0.594007
 22 0.000000 0.000000 11.949879 -1.303170 -0.179836 -2.883410
 23 0.000000 0.000000 4.822874 0.716739 0.000000 0.000000
 24 -1.376730 -0.804586 1.281520 -0.659309 1.255116 -3.141592
 25 0.000000 0.000000 1.416892 0.073536 0.071051 -3.141592
 26 0.000000 0.000000 1.920310 0.269862 0.568862 0.000000
 27 0.213890 -0.856740 4.255571 0.528081 0.318569 0.000000
 28 0.000000 0.000000 1.378407 -0.049177 0.309751 -3.141592
 29 0.000000 0.000000 3.006212 0.930783 0.778878 -3.141592
 30 -3.352225 -2.014409 -1.625205 -3.111551 1.200587 0.000000
 31 0.000000 0.000000 4.228487 -0.515922 -0.329346 0.928060
 32 0.000000 0.000000 13.042765 0.144816 -0.924438 -1.581311
 33 0.000000 0.000000 7.153650 -0.248920 -0.207106 0.701884
 34 -1.945980 -0.135012 0.247196 -3.318815 1.258412 -0.647323
 35 0.000000 0.000000 1.172377 -0.535111 0.979424 -3.141592
 36 0.000000 0.000000 1.923266 -0.539615 0.773463 -0.366128
 37 0.111389 0.206554 2.803840 0.500083 0.078411 -3.126803
 38 0.000000 0.000000 2.609086 0.692308 0.062566 0.013686
 39 0.000000 0.000000 2.388648 0.464621 0.178380 0.022136
time 8
  0 0.192741 -0.192741 31.320822 1.570796 0.000000 0.000000
  1 0.000000 -6.750002 -3.510001 0.000000 0.000000 0.000000
  2 3.007735 -0.000004 -0.000002 0.797811 0.244409 0.000000
  3 0.000000 0.000000 12.794512 1.296869 0.517805 0.044836
  4 0.000000 0.000000 14.050400 1.580023 1.433617 -2.387403
  5 0.000000 0.000000 6.031133 0.113066 0.523561 0.000000
  6 0.000000 0.000000 0.757964 -0.000001 0.000000 0.000000
  7 0.000000 0.000000 0.757950 -0.000002 0.000000 0.000000
  8 -3.007735 0.000004 0.000005 -0.844665 0.235452 -3.160468
  9 0.000000 0.000000 12.794530 -1.262723 0.580349 0.000000
 10 0.000000 0.000000 13.961749 -1.926534 1.297076 -4.295660
 11 0.000000 0.000000 6.030940 -0.114774 0.523252 0.000000
 12 0.000000 0.000000 0.757934 -0.000000 -0.000000 -3.141592
 13 0.000000 0.000000 0.757953 -0.000000 -0.000000 -3.141592
 14 0.000001 1.047682 0.554789 -1.336604 -0.247513 0.160426
 15 0.000000 0.000000 4.300853 0.088792 0.114244 0.006016
 16 0.000000 0.000000 3.909713 -0.047971 -0.015444 -3.320333
 17 0.000000 0.000000 4.692176 0.114524 0.000608 -3.010703
 18 0.000000 0.000000 5.479362 0.011678 0.130812 0.187199
 19 0.645092 -2.464382 2.019449 -0.168472 -0.019822 -0.080035
 20 3.518158 -2.206055 -1.728387 2.911160 1.048239 -3.141592
 21 0.000000 0.000000 4.558179 0.003115 0.633899 -0.724991
 22 0.000000 0.000000 11.949879 -1.396775 -0.254420 -2.739655
 23 0.000000 0.000000 4.822874 0.691126 0.000000 0.000000
 24 -1.376730 -0.804586 1.281520 -0.659309 1.255116 -3.141592
 25 0.000000 0.000000 1.416892 0.073536 0.071051 -3.141592
 26 0.000000 0.000000 1.920310 0.269862 0.568862 0.000000
 27 0.213890 -0.856740 4.255571 0.528081 0.318569 0.000000
 28 0.000000 0.000000 1.378407 -0.049177 0.309751 -3.141592
 29 0.000000 0.000000 3.006212 0.930783 0.778878 -3.141592
 30 -3.352225 -2.014409 -1.625205 -3.111551 1.200587 0.000000
 31 0.000000 0.000000 4.228487 -0.622447 0.085906 0.705232
 32 0.000000 0.000000 13.042765 0.210127 -1.039464 -1.796203
 33 0.000000 0.000000 7.153650 -0.426327 -0.267232 0.849060
 34 -1.945980 -0.135012 0.247196 -3.238075 1.127823 -0.775066
 35 0.000000 0.000000 1.172377 -0.535111 1.177237 -3.141592
 36 0.000000 0.000000 1.923266 -0.782968 0.794772 -0.585098
 37 0.111389 0.206554 2.803840 0.593437 0.076697 -3.119565
 38 0.000000 0.000000 2.609086 0.800118 0.060732 0.020338
 39 0.000000 0.000000 2.388648 0.526654 0.176690 0.033089
time 9
  0 0.192741 -0.192741 31.348166 1.570796 0.000000 0.000000
  1 0.000000 -6.750002 -3.510001 0.000000 0.000000 0.000000
  2 3.007735 -0.000004 -0.000002 0.797811 0.244409 0.000000
  3 0.000000 0.000000 12.794512 1.293539 0.517937 0.043187
  4 0.000000 0.000000 14.050400 1.561015 1.435978 -2.406179
  5 0.000000 0.000000 6.031133 0.113066 0.523561 0.000000
  6 0.000000 0.000000 0.757964 -0.000001 0.000000 0.000000
  7 0.000000 0.000000 0.757950 -0.000002 0.000000 0.000000
  8 -3.007735 0.000004 0.000005 -0.841654 0.235500 -3.159773
  9 0.000000 0.000000 12.794530 -1.262723 0.580349 0.000000
 10 0.000000 0.000000 13.961749 -1.912153 1.305560 -4.281854
 11 0.000000 0.000000 6.030940 -0.114774 0.523252 0.000000
 12 0.000000 0.000000 0.757934 -0.000000 -0.000000 -3.141592
 13 0.000000 0.000000 0.757953 -0.000000 -0.000000 -3.141592
 14 0.000001 1.047682 0.554789 -1.331822 -0.238476 0.153858
 15 0.000000 0.000000 4.300853 0.108543 0.190883 0.092150
 16 0.000000 0.000000 3.909713 -0.053867 -0.053998 -3.280206
 17 0.000000 0.000000 4.692176 0.114524 0.000608 -2.967073
 18 0.000000 0.000000 5.479362 0.032632 0.174687 0.181603
 19 0.645092 -2.464382 2.019449 -0.186287 -0.086449 -0.201906
 20 3.518158 -2.206055 -1.728387 2.911160 1.048239 -3.141592
 21 0.000000 0.000000 4.558179 -0.113625 0.510654 -0.826964
 22 0.000000 0.000000 11.949879 -1.502428 -0.314677 -2.586396
 23 0.000000 0.000000 4.822874 0.665545 0.000000 0.000000
 24 -1.376730 -0.804586 1.281520 -0.659309 1.255116 -3.141592
 25 0.000000 0.000000 1.416892 0.073536 0.071051 -3.141592
 26 0.000000 0.000000 1.920310 0.269862 0.568862 0.000000
 27 0.213890 -0.856740 4.255571 0.528081 0.318569 0.000000
 28 0.000000 0.000000 1.378407 -0.049177 0.309751 -3.141592
 29 0.000000 0.000000 3.006212 0.930783 0.778878 -3.141592
 30 -3.352225 -2.014409 -1.625205 -3.111551 1.200587 0.000000
 31 0.000000 0.000000 4.228487 -0.838640 0.461076 0.409446
 32 0.000000 0.000000 13.042765 0.347632 -1.142197 -2.078900
 33 0.000000 0.000000 7.153650 -0.613343 -0.300394 1.006946
 34 -1.945980 -0.135012 0.247196 -3.143816 1.001893 -0.895417
 35 0.000000 0.000000 1.172377 -0.535111 1.375020 -3.141592
 36 0.000000 0.000000 1.923266 -1.027536 0.777832 -0.805305
 37 0.111389 0.206554 2.803840 0.686757 0.074312 -3.112518
 38 0.000000 0.000000 2.609086 0.907907 0.058192 0.026750
 39 0.000000 0.000000 2.388648 0.588650 0.174329 0.043924
time 10
  0 0.192741 -0.192741 31.375511 1.570796 0.000000 0.000000
  1 0.000000 -6.750002 -3.510001 0.000000 0.000000 0.000000
  2 3.007735 -0.000004 -0.000002 0.797811 0.244409 0.000000
  3 0.000000 0.000000 12.794512 1.290172 0.518057 0.041523
  4 0.000000 0.000000 14.050400 1.541445 1.438303 -2.425617
  5 0.000000 0.000000 6.031133 0.113066 0.523561 0.000000
  6 0.000000 0.000000 0.757964 -0.000001 0.000000 0.000000
  7 0.000000 0.000000 0.757950 -0.000002 0.000000 0.000000
  8 -3.007735 0.000004 0.000005 -0.838684 0.235548 -3.159066
  9 0.000000 0.000000 12.794530 -1.262723 0.580349 0.000000
 10 0.000000 0.000000 13.961749 -1.896909 1.314007 -4.267089
 11 0.000000 0.000000 6.030940 -0.114774 0.523252 0.000000
 12 0.000000 0.000000 0.757934 -0.000000 -0.000000 -3.141592
 13 0.000000 0.000000 0.757953 -0.000000 -0.000000 -3.141592
 14 0.000001 1.047682 0.554789 -1.327112 -0.229404 0.147339
 15 0.000000 0.000000 4.300853 0.135412 0.265531 0.181363
 16 0.000000 0.000000 3.909713 -0.061334 -0.092277 -3.239735
 17 0.000000 0.000000 4.692176 0.114524 0.000608 -2.923430
 18 0.000000 0.000000 5.479362 0.053524 0.218683 0.176881
 19 0.645092 -2.464382 2.019449 -0.195941 -0.154746 -0.323591
 20 3.518158 -2.206055 -1.728387 2.911160 1.048239 -3.141592
 21 0.000000 0.000000 4.558179 -0.209585 0.379048 -0.906884
 22 0.000000 0.000000 11.949879 -1.618553 -0.358251 -2.424448
 23 0.000000 0.000000 4.822874 0.639933 0.000000 0.000000
 24 -1.376730 -0.804586 1.281520 -0.659309 1.255116 -3.141592
 25 0.000000 0.000000 1.416892 0.073536 0.071051 -3.141592
 26 0.000000 0.000000 1.920310 0.269862 0.568862 0.000000
 27 0.213890 -0.856740 4.255571 0.528081 0.318569 0.000000
 28 0.000000 0.000000 1.378407 -0.049177 0.309751 -3.141592
 29 0.000000 0.000000 3.006212 0.930783 0.778878 -3.141592
 30 -3.352225 -2.014409 -1.625205 -3.111551 1.200587 0.000000
 31 0.000000 0.000000 4.228487 -1.241572 0.734330 -0.057594
 32 0.000000 0.000000 13.042765 0.594270 -1.218580 -2.467946
 33 0.000000 0.000000 7.153650 -0.804573 -0.304409 1.169415
 34 -1.945980 -0.135012 0.247196 -3.041096 0.882321 -1.015109
 35 0.000000 0.000000 1.172377 -3.676703 1.568745 -0.000000
 36 0.000000 0.000000 1.923266 -1.253872 0.724966 -1.006863
 37 0.111389 0.206554 2.803840 0.780026 0.071292 -3.105722
 38 0.000000 0.000000 2.609086 1.015658 0.054980 0.032850
 39 0.000000 0.000000 2.388648 0.650586 0.171321 0.054578
time 11
  0 0.192741 -0.192741 31.398949 1.570796 0.000000 0.000000
  1 0.000000 -6.750002 -3.510001 0.000000 0.000000 0.000000
  2 3.007735 -0.000004 -0.000002 0.797811 0.244409 0.000000
  3 0.000000 0.000000 12.794512 1.286842 0.518177 0.039874
  4 0.000000 0.000000 14.050400 1.521220 1.440568 -2.445715
  5 0.000000 0.000000 6.031133 0.113066 0.523561 0.000000
  6 0.000000 0.000000 0.757964 -0.000001 0.000000 0.000000
  7 0.000000 0.000000 0.757950 -0.000002 0.000000 0.000000
  8 -3.007735 0.000004 0.000005 -0.835673 0.235608 -3.158371
  9 0.000000 0.000000 12.794530 -1.262723 0.580349 0.000000
 10 0.000000 0.000000 13.961749 -1.880610 1.322379 -4.251269
 11 0.000000 0.000000 6.030940 -0.114774 0.523252 0.000000
 12 0.000000 0.000000 0.757934 -0.000000 -0.000000 -3.141592
 13 0.000000 0.000000 0.757953 -0.000000 -0.000000 -3.141592
 14 0.000001 1.047682 0.554789 -1.322486 -0.220296 0.140879
 15 0.000000 0.000000 4.300853 0.169820 0.337487 0.274723
 16 0.000000 0.000000 3.909713 -0.070382 -0.130232 -3.198800
 17 0.000000 0.000000 4.692176 0.114524 0.000608 -2.879800
 18 0.000000 0.000000 5.479362 0.074416 0.262762 0.173069
 19 0.645092 -2.464382 2.019449 -0.197148 -0.223707 -0.446186
 20 3.518158 -2.206055 -1.728387 2.911160 1.048239 -3.141592
 21 0.000000 0.000000 4.558179 -0.290413 0.241612 -0.970148
 22 0.000000 0.000000 11.949879 -1.742232 -0.383199 -2.256008
 23 0.000000 0.000000 4.822874 0.614352 0.000000 0.000000
 24 -1.376730 -0.804586 1.281520 -0.659309 1.255116 -3.141592
 25 0.000000 0.000000 1.416892 0.073536 0.071051 -3.141592
 26 0.000000 0.000000 1.920310 0.269862 0.568862 0.000000
 27 0.213890 -0.856740 4.255571 0.528081 0.318569 0.000000
 28 0.000000 0.000000 1.378407 -0.049177 0.309751 -3.141592
 29 0.000000 0.000000 3.006212 0.930783 0.778878 -3.141592
 30 -3.352225 -2.014409 -1.625205 -3.111551 1.200587 0.000000
 31 0.000000 0.000000 4.228487 -1.832848 0.787504 -0.707838
 32 0.000000 0.000000 13.042765 0.949495 -1.247466 -2.964034
 33 0.000000 0.000000 7.153650 -0.993378 -0.279001 1.329248
 34 -1.945980 -0.135012 0.247196 -2.931293 0.770899 -1.137161
 35 0.000000 0.000000 1.172377 -3.676703 1.370932 -0.000000
 36 0.000000 0.000000 1.923266 -1.450750 0.642349 -1.178282
 37 0.111389 0.206554 2.803840 0.873261 0.067649 -3.099251
 38 0.000000 0.000000 2.609086 1.123368 0.051133 0.038566
 39 0.000000 0.000000 2.388648 0.712451 0.167677 0.065016
time 12
  0 0.192741 -0.192741 31.418480 1.570796 0.000000 0.000000
  1 0.000000 -6.750002 -3.510001 0.000000 0.000000 0.000000
  2 3.007735 -0.000004 -0.000002 0.797811 0.244409 0.000000
  3 0.000000 0.000000 12.794512 1.283511 0.518297 0.038210
  4 0.000000 0.000000 14.050400 1.500245 1.442773 -2.466473
  5 0.000000 0.000000 6.031133 0.113066 0.523561 0.000000
  6 0.000000 0.000000 0.757964 -0.000001 0.000000 0.000000
  7 0.000000 0.000000 0.757950 -0.000002 0.000000 0.000000
  8 -3.007735 0.000004 0.000005 -0.832703 0.235656 -3.157676
  9 0.000000 0.000000 12.794530 -1.262723 0.580349 0.000000
 10 0.000000 0.000000 13.961749 -1.863161 1.330677 -4.234395
 11 0.000000 0.000000 6.030940 -0.114774 0.523252 0.000000
 12 0.000000 0.000000 0.757934 -0.000000 -0.000000 -3.141592
 13 0.000000 0.000000 0.757953 -0.000000 -0.000000 -3.141592
 14 0.000001 1.047682 0.554789 -1.317908 -0.211163 0.134467
 15 0.000000 0.000000 4.300853 0.127167 0.374955 0.271858
 16 0.000000 0.000000 3.909713 -0.047623 -0.110098 -3.185126
 17 0.000000 0.000000 4.692176 0.114524 0.000608 -2.849983
 18 0.000000 0.000000 5.479362 0.070296 0.252096 0.165268
 19 0.645092 -2.464382 2.019449 -0.155427 -0.190619 -0.522419
 20 3.518158 -2.206055 -1.728387 2.911160 1.048239 -3.141592
 21 0.000000 0.000000 4.558179 -0.079628 0.391375 -1.244943
 22 0.000000 0.000000 11.949879 -1.441445 -0.649540 -2.483450
 23 0.000000 0.000000 4.822874 0.353137 0.000000 0.000000
 24 -1.376730 -0.804586 1.281520 -0.659309 1.255116 -3.141592
 25 0.000000 0.000000 1.416892 0.073536 0.071051 -3.141592
 26 0.000000 0.000000 1.920310 0.269862 0.568862 0.000000
 27 0.213890 -0.856740 4.255571 0.528081 0.318569 0.000000
 28 0.000000 0.000000 1.378407 -0.049177 0.309751 -3.141592
 29 0.000000 0.000000 3.006212 0.930783 0.778878 -3.141592
 30 -3.352225 -2.014409 -1.625205 -3.111551 1.200587 0.000000
 31 0.000000 0.000000 4.228487 -1.703799 0.759171 -0.664081
 32 0.000000 0.000000 13.042765 0.852940 -1.122295 -2.781745
 33 0.000000 0.000000 7.153650 -0.808272 -0.212774 1.291724
 34 -1.945980 -0.135012 0.247196 -2.968673 0.792913 -1.017157
 35 0.000000 0.000000 1.172377 2.025774 1.222925 -0.723486
 36 0.000000 0.000000 1.923266 -1.351724 0.890178 -1.036206
 37 0.111389 0.206554 2.803840 0.736399 0.074779 -3.103230
 38 0.000000 0.000000 2.609086 1.006203 0.055291 0.032334
 39 0.000000 0.000000 2.388648 0.626270 0.172579 0.050407
time 13
  0 0.192741 -0.192741 31.438013 1.570796 0.000000 0.000000
  1 0.000000 -6.750002 -3.510001 0.000000 0.000000 0.000000
  2 3.007735 -0.000004 -0.000002 0.797811 0.244409 0.000000
  3 0.000000 0.000000 12.794512 1.280145 0.518404 0.036561
  4 0.000000 0.000000 14.050400 1.478522 1.444930 -2.488081
  5 0.000000 0.000000 6.031133 0.113066 0.523561 0.000000
  6 0.000000 0.000000 0.757964 -0.000001 0.000000 0.000000
  7 0.000000 0.000000 0.757950 -0.000002 0.000000 0.000000
  8 -3.007735 0.000004 0.000005 -0.829692 0.235692 -3.156981
  9 0.000000 0.000000 12.794530 -1.262723 0.580349 0.000000
 10 0.000000 0.000000 13.961749 -1.844561 1.338901 -4.216274
 11 0.000000 0.000000 6.030940 -0.114774 0.523252 0.000000
 12 0.000000 0.000000 0.757934 -0.000000 -0.000000 -3.141592
 13 0.000000 0.000000 0.757953 -0.000000 -0.000000 -3.141592
 14 0.000001 1.047682 0.554789 -1.313414 -0.202007 0.128115
 15 0.000000 0.000000 4.300853 0.083735 0.412287 0.267220
 16 0.000000 0.000000 3.909713 -0.024649 -0.090276 -3.171023
 17 0.000000 0.000000 4.692176 0.114524 0.000608 -2.820166
 18 0.000000 0.000000 5.479362 0.066279 0.241406 0.157525
 19 0.645092 -2.464382 2.019449 -0.116617 -0.154561 -0.596752
 20 3.518158 -2.206055 -1.728387 2.911160 1.048239 -3.141592
 21 0.000000 0.000000 4.558179 0.094765 0.588637 -1.503159
 22 0.000000 0.000000 11.949879 -0.995386 -0.826634 -2.864277
 23 0.000000 0.000000 4.822874 0.091890 0.000000 0.000000
 24 -1.376730 -0.804586 1.281520 -0.659309 1.255116 -3.141592
 25 0.000000 0.000000 1.416892 0.073536 0.071051 -3.141592
 26 0.000000 0.000000 1.920310 0.269862 0.568862 0.000000
 27 0.213890 -0.856740 4.255571 0.528081 0.318569 0.000000
 28 0.000000 0.000000 1.378407 -0.049177 0.309751 -3.141592
 29 0.000000 0.000000 3.006212 0.930783 0.778878 -3.141592
 30 -3.352225 -2.014409 -1.625205 -3.111551 1.200587 0.000000
 31 0.000000 0.000000 4.228487 -1.580077 0.727079 -0.626793
 32 0.000000 0.000000 13.042765 0.818477 -0.993213 -2.659007
 33 0.000000 0.000000 7.153650 -0.628107 -0.141035 1.267587
 34 -1.945980 -0.135012 0.247196 -3.002853 0.817956 -0.895452
 35 0.000000 0.000000 1.172377 1.873910 1.022708 -1.022909
 36 0.000000 0.000000 1.923266 -1.128306 1.119636 -0.773310
 37 0.111389 0.206554 2.803840 0.599418 0.081275 -3.108143
 38 0.000000 0.000000 2.609086 0.888978 0.058695 0.025647
 39 0.000000 0.000000 2.388648 0.539945 0.176234 0.035426
time 14
  0 0.192741 -0.192741 31.465357 1.570796 0.000000 0.000000
  1 0.000000 -6.750002 -3.510001 0.000000 0.000000 0.000000
  2 3.007735 -0.000004 -0.000002 0.797811 0.244409 0.000000
  3 0.000000 0.000000 12.794512 1.276814 0.518512 0.034897
  4 0.000000 0.000000 14.050400 1.456049 1.447016 -2.510349
  5 0.000000 0.000000 6.031133 0.113066 0.523561 0.000000
  6 0.000000 0.000000 0.757964 -0.000001 0.000000 0.000000
  7 0.000000 0.000000 0.757950 -0.000002 0.000000 0.000000
  8 -3.007735 0.000004 0.000005 -0.826722 0.235740 -3.156273
  9 0.000000 0.000000 12.794530 -1.262723 0.580349 0.000000
 10 0.000000 0.000000 13.961749 -1.824524 1.347050 -4.196811
 11 0.000000 0.000000 6.030940 -0.114774 0.523252 0.000000
 12 0.000000 0.000000 0.757934 -0.000000 -0.000000 -3.141592
 13 0.000000 0.000000 0.757953 -0.000000 -0.000000 -3.141592
 14 0.000001 1.047682 0.554789 -1.308980 -0.192815 0.121823
 15 0.000000 0.000000 4.300853 0.039368 0.449381 0.260689
 16 0.000000 0.000000 3.909713 -0.001447 -0.070789 -3.156479
 17 0.000000 0.000000 4.692176 0.114524 0.000608 -2.790349
 18 0.000000 0.000000 5.479362 0.062366 0.230679 0.149843
 19 0.645092 -2.464382 2.019449 -0.080815 -0.115784 -0.669238
 20 3.518158 -2.206055 -1.728387 2.911160 1.048239 -3.141592
 21 0.000000 0.000000 4.558179 0.224243 0.818462 -1.759576
 22 0.000000 0.000000 11.949879 -0.437186 -0.844639 -3.359875
 23 0.000000 0.000000 4.822874 -0.169293 0.000000 0.000000
 24 -1.376730 -0.804586 1.281520 -0.659309 1.255116 -3.141592
 25 0.000000 0.000000 1.416892 0.073536 0.071051 -3.141592
 26 0.000000 0.000000 1.920310 0.269862 0.568862 0.000000
 27 0.213890 -0.856740 4.255571 0.528081 0.318569 0.000000
 28 0.000000 0.000000 1.378407 -0.049177 0.309751 -3.141592
 29 0.000000 0.000000 3.006212 0.930783 0.778878 -3.141592
 30 -3.352225 -2.014409 -1.625205 -3.111551 1.200587 0.000000
 31 0.000000 0.000000 4.228487 -1.461488 0.691898 -0.595974
 32 0.000000 0.000000 13.042765 0.813921 -0.863099 -2.562697
 33 0.000000 0.000000 7.153650 -0.451034 -0.066227 1.256918
 34 -1.945980 -0.135012 0.247196 -3.033186 0.845709 -0.771526
 35 0.000000 0.000000 1.172377 1.847353 0.813052 -1.205937
 36 0.000000 0.000000 1.923266 -0.554687 1.281969 -0.162051
 37 0.111389 0.206554 2.803840 0.462352 0.087064 -3.113920
 38 0.000000 0.000000 2.609086 0.771715 0.061284 0.018612
 39 0.000000 0.000000 2.388648 0.453536 0.178607 0.020158
time 15
  0 0.192741 -0.192741 31.488796 1.570796 0.000000 0.000000
  1 0.000000 -6.750002 -3.510001 0.000000 0.000000 0.000000
  2 3.007735 -0.000004 -0.000002 0.797811 0.244409 0.000000
  3 0.000000 0.000000 12.794512 1.273448 0.518608 0.033233
  4 0.000000 0.000000 14.050400 1.432828 1.449041 -2.533372
  5 0.000000 0.000000 6.031133 0.113066 0.523561 0.000000
  6 0.000000 0.000000 0.757964 -0.000001 0.000000 0.000000
  7 0.000000 0.000000 0.757950 -0.000002 0.000000 0.000000
  8 -3.007735 0.000004 0.000005 -0.823711 0.235776 -3.155578
  9 0.000000 0.000000 12.794530 -1.262723 0.580349 0.000000
 10 0.000000 0.000000 13.961749 -1.803144 1.355087 -4.175910
 11 0.000000 0.000000 6.030940 -0.114774 0.523252 0.000000
 12 0.000000 0.000000 0.757934 -0.000000 -0.000000 -3.141592
 13 0.000000 0.000000 0.757953 -0.000000 -0.000000 -3.141592
 14 0.000001 1.047682 0.554789 -1.304617 -0.183599 0.115579
 15 0.000000 0.000000 4.300853 -0.006126 0.486185 0.252192
 16 0.000000 0.000000 3.909713 0.022031 -0.051649 -3.141531
 17 0.000000 0.000000 4.692176 0.114524 0.000608 -2.760531
 18 0.000000 0.000000 5.479362 0.058535 0.219929 0.142233
 19 0.645092 -2.464382 2.019449 -0.048078 -0.074580 -0.739985
 20 3.518158 -2.206055 -1.728387 2.911160 1.048239 -3.141592
 21 0.000000 0.000000 4.558179 0.279693 1.066247 -2.055250
 22 0.000000 0.000000 11.949879 0.039967 -0.693606 -3.772759
 23 0.000000 0.000000 4.822874 -0.430508 0.000000 0.000000
 24 -1.376730 -0.804586 1.281520 -0.659309 1.255116 -3.141592
 25 0.000000 0.000000 1.416892 0.073536 0.071051 -3.141592
 26 0.000000 0.000000 1.920310 0.269862 0.568862 0.000000
 27 0.213890 -0.856740 4.255571 0.528081 0.318569 0.000000
 28 0.000000 0.000000 1.378407 -0.049177 0.309751 -3.141592
 29 0.000000 0.000000 3.006212 0.930783 0.778878 -3.141592
 30 -3.352225 -2.014409 -1.625205 -3.111551 1.200587 0.000000
 31 0.000000 0.000000 4.228487 -1.347712 0.654234 -0.571445
 32 0.000000 0.000000 13.042765 0.826795 -0.733201 -2.479256
 33 0.000000 0.000000 7.153650 -0.275174 0.009276 1.259554
 34 -1.945980 -0.135012 0.247196 -3.058965 0.875802 -0.644754
 35 0.000000 0.000000 1.172377 1.871417 0.603576 -1.351958
 36 0.000000 0.000000 1.923266 0.323831 1.249796 0.753600
 37 0.111389 0.206554 2.803840 0.325165 0.092013 -3.120427
 38 0.000000 0.000000 2.609086 0.654411 0.063033 0.011313
 39 0.000000 0.000000 2.388648 0.367079 0.179662 0.004746
time 16
  0 0.192741 -0.192741 31.516140 1.570796 0.000000 0.000000
  1 0.000000 -6.750002 -3.510001 0.000000 0.000000 0.000000
  2 3.007735 -0.000004 -0.000002 0.797811 0.244409 0.000000
  3 0.000000 0.000000 12.794512 1.270118 0.518704 0.031584
  4 0.000000 0.000000 14.050400 1.408857 1.451007 -2.557149
  5 0.000000 0.000000 6.031133 0.113066 0.523561 0.000000
  6 0.000000 0.000000 0.757964 -0.000001 0.000000 0.000000
  7 0.000000 0.000000 0.757950 -0.000002 0.000000 0.000000
  8 -3.007735 0.000004 0.000005 -0.820741 0.235823 -3.154883
  9 0.000000 0.000000 12.794530 -1.262723 0.580349 0.000000
 10 0.000000 0.000000 13.961749 -1.780038 1.363050 -4.153283
 11 0.000000 0.000000 6.030940 -0.114774 0.523252 0.000000
 12 0.000000 0.000000 0.757934 -0.000000 -0.000000 -3.141592
 13 0.000000 0.000000 0.757953 -0.000000 -0.000000 -3.141592
 14 0.000001 1.047682 0.554789 -1.300315 -0.174359 0.109383
 15 0.000000 0.000000 4.300853 -0.052889 0.522597 0.241597
 16 0.000000 0.000000 3.909713 0.045773 -0.032869 -3.126130
 17 0.000000 0.000000 4.692176 0.114524 0.000608 -2.730714
 18 0.000000 0.000000 5.479362 0.054787 0.209143 0.134683
 19 0.645092 -2.464382 2.019449 -0.018386 -0.031188 -0.809232
 20 3.518158 -2.206055 -1.728387 2.911160 1.048239 -3.141592
 21 0.000000 0.000000 4.558179 0.101660 1.307966 -2.562455
 22 0.000000 0.000000 11.949879 0.364989 -0.439959 -4.026518
 23 0.000000 0.000000 4.822874 -0.691723 0.000000 0.000000
 24 -1.376730 -0.804586 1.281520 -0.659309 1.255116 -3.141592
 25 0.000000 0.000000 1.416892 0.073536 0.071051 -3.141592
 26 0.000000 0.000000 1.920310 0.269862 0.568862 0.000000
 27 0.213890 -0.856740 4.255571 0.528081 0.318569 0.000000
 28 0.000000 0.000000 1.378407 -0.049177 0.309751 -3.141592
 29 0.000000 0.000000 3.006212 0.930783 0.778878 -3.141592
 30 -3.352225 -2.014409 -1.625205 -3.111551 1.200587 0.000000
 31 0.000000 0.000000 4.228487 -1.238300 0.614689 -0.553026
 32 0.000000 0.000000 13.042765 0.851454 -0.604462 -2.401931
 33 0.000000 0.000000 7.153650 -0.098495 0.083149 1.275457
 34 -1.945980 -0.135012 0.247196 -3.079339 0.907778 -0.514270
 35 0.000000 0.000000 1.172377 1.925586 0.398760 -1.487623
 36 0.000000 0.000000 1.923266 0.764914 1.058568 1.232682
 37 0.111389 0.206554 2.803840 0.187928 0.096016 -3.127558
 38 0.000000 0.000000 2.609086 0.537108 0.063932 0.003859
 39 0.000000 0.000000 2.388648 0.280610 0.179410 -0.010690
time 17
  0 0.192741 -0.192741 31.543484 1.570796 0.000000 0.000000
  1 0.000000 -6.750002 -3.510001 0.000000 0.000000 0.000000
  2 3.007735 -0.000004 -0.000002 0.797811 0.244409 0.000000
  3 0.000000 0.000000 12.794512 1.266751 0.518788 0.029920
  4 0.000000 0.000000 14.050400 1.384138 1.452900 -2.581682
  5 0.000000 0.000000 6.031133 0.113066 0.523561 0.000000
  6 0.000000 0.000000 0.757964 -0.000001 0.000000 0.000000
  7 0.000000 0.000000 0.757950 -0.000002 0.000000 0.000000
  8 -3.007735 0.000004 0.000005 -0.817730 0.235859 -3.154176
  9 0.000000 0.000000 12.794530 -1.262723 0.580349 0.000000
 10 0.000000 0.000000 13.961749 -1.755207 1.370865 -4.129026
 11 0.000000 0.000000 6.030940 -0.114774 0.523252 0.000000
 12 0.000000 0.000000 0.757934 -0.000000 -0.000000 -3.141592
 13 0.000000 0.000000 0.757953 -0.000000 -0.000000 -3.141592
 14 0.000001 1.047682 0.554789 -1.296084 -0.165095 0.103235
 15 0.000000 0.000000 4.300853 -0.101151 0.558516 0.228774
 16 0.000000 0.000000 3.909713 0.069790 -0.014449 -3.110299
 17 0.000000 0.000000 4.692176 0.114524 0.000608 -2.700897
 18 0.000000 0.000000 5.479362 0.051143 0.198333 0.127180
 19 0.645092 -2.464382 2.019449 0.008240 0.014127 -0.877114
 20 3.518158 -2.206055 -1.728387 2.911160 1.048239 -3.141592
 21 0.000000 0.000000 4.558179 -1.061917 1.397608 2.237221
 22 0.000000 0.000000 11.949879 0.593394 -0.138308 -4.169395
 23 0.000000 0.000000 4.822874 -0.952938 0.000000 0.000000
 24 -1.376730 -0.804586 1.281520 -0.659309 1.255116 -3.141592
 25 0.000000 0.000000 1.416892 0.073536 0.071051 -3.141592
 26 0.000000 0.000000 1.920310 0.269862 0.568862 0.000000
 27 0.213890 -0.856740 4.255571 0.528081 0.318569 0.000000
 28 0.000000 0.000000 1.378407 -0.049177 0.309751 -3.141592
 29 0.000000 0.000000 3.006212 0.930783 0.778878 -3.141592
 30 -3.352225 -2.014409 -1.625205 -3.111551 1.200587 0.000000
 31 0.000000 0.000000 4.228487 -1.132738 0.573802 -0.540357
 32 0.000000 0.000000 13.042765 0.885372 -0.477572 -2.326800
 33 0.000000 0.000000 7.153650 0.080821 0.153055 1.304340
 34 -1.945980 -0.135012 0.247196 -3.093373 0.941200 -0.379135
 35 0.000000 0.000000 1.172377 2.004106 0.202269 -1.626069
 36 0.000000 0.000000 1.923266 0.939953 0.821682 1.447984
 37 0.111389 0.206554 2.803840 0.050588 0.099024 -3.135180
 38 0.000000 0.000000 2.609086 0.419804 0.063944 -0.003631
 39 0.000000 0.000000 2.388648 0.194165 0.177852 -0.026054
time 18
  0 0.192741 -0.192741 31.566923 1.570796 0.000000 0.000000
  1 0.000000 -6.750002 -3.510001 0.000000 0.000000 0.000000
  2 3.007735 -0.000004 -0.000002 0.797811 0.244409 0.000000
  3 0.000000 0.000000 12.794512 1.263421 0.518872 0.028256
  4 0.000000 0.000000 14.050400 1.358575 1.454710 -2.607064
  5 0.000000 0.000000 6.031133 0.113066 0.523561 0.000000
  6 0.000000 0.000000 0.757964 -0.000001 0.000000 0.000000
  7 0.000000 0.000000 0.757950 -0.000002 0.000000 0.000000
  8 -3.007735 0.000004 0.000005 -0.814760 0.235895 -3.153481
  9 0.000000 0.000000 12.794530 -1.262723 0.580349 0.000000
 10 0.000000 0.000000 13.961749 -1.728362 1.378567 -4.102661
 11 0.000000 0.000000 6.030940 -0.114774 0.523252 0.000000
 12 0.000000 0.000000 0.757934 -0.000000 -0.000000 -3.141592
 13 0.000000 0.000000 0.757953 -0.000000 -0.000000 -3.141592
 14 0.000001 1.047682 0.554789 -1.291914 -0.155795 0.097147
 15 0.000000 0.000000 4.300853 -0.078489 0.528081 0.139501
 16 0.000000 0.000000 3.909713 0.045186 -0.014952 -3.143724
 17 0.000000 0.000000 4.692176 0.140471 -0.004162 -2.774734
 18 0.000000 0.000000 5.479362 0.047582 0.187499 0.119738
 19 0.645092 -2.464382 2.019449 -0.108093 -0.020671 -0.731553
 20 3.518158 -2.206055 -1.728387 2.911160 1.048239 -3.141592
 21 0.000000 0.000000 4.558179 -1.777014 1.409581 1.795627
 22 0.000000 0.000000 11.949879 0.637694 -0.050849 -4.114408
 23 0.000000 0.000000 4.822874 -0.641096 0.000000 0.000000
 24 -1.376730 -0.804586 1.281520 -0.727401 1.243419 -3.020341
 25 0.000000 0.000000 1.416892 0.148191 0.100126 -3.240862
 26 0.000000 0.000000 1.920310 0.479565 0.558867 0.112380
 27 0.213890 -0.856740 4.255571 0.668885 0.315633 0.043959
 28 0.000000 0.000000 1.378407 -0.177380 0.307378 -3.180566
 29 0.000000 0.000000 3.006212 1.049021 0.775378 -3.058626
 30 -3.352225 -2.014409 -1.625205 -3.111551 1.200587 0.000000
 31 0.000000 0.000000 4.228487 -0.972373 0.702506 -0.553116
 32 0.000000 0.000000 13.042765 0.994703 -0.532463 -2.464079
 33 0.000000 0.000000 7.153650 0.071848 0.147878 1.254321
 34 -1.945980 -0.135012 0.247196 -3.103176 0.973199 -0.367544
 35 0.000000 0.000000 1.172377 1.918779 0.290219 -1.637958
 36 0.000000 0.000000 1.923266 0.880229 0.842137 1.367069
 37 0.111389 0.206554 2.803840 0.065198 0.097922 -3.135396
 38 0.000000 0.000000 2.609086 0.422962 0.063956 -0.003428
 39 0.000000 0.000000 2.388648 0.202291 0.178056 -0.024616
time 19
  0 0.192741 -0.192741 31.586454 1.570796 0.000000 0.000000
  1 0.000000 -6.750002 -3.510001 0.000000 0.000000 0.000000
  2 3.007735 -0.000004 -0.000002 0.797811 0.244409 0.000000
  3 0.000000 0.000000 12.794512 1.260054 0.518956 0.026592
  4 0.000000 0.000000 14.050400 1.332263 1.456448 -2.633201
  5 0.000000 0.000000 6.031133 0.113066 0.523561 0.000000
  6 0.000000 0.000000 0.757964 -0.000001 0.000000 0.000000
  7 0.000000 0.000000 0.757950 -0.000002 0.000000 0.000000
  8 -3.007735 0.000004 0.000005 -0.811749 0.235931 -3.152786
  9 0.000000 0.000000 12.794530 -1.262723 0.580349 0.000000
 10 0.000000 0.000000 13.961749 -1.699313 1.386121 -4.074185
 11 0.000000 0.000000 6.030940 -0.114774 0.523252 0.000000
 12 0.000000 0.000000 0.757934 -0.000000 -0.000000 -3.141592
 13 0.000000 0.000000 0.757953 -0.000000 -0.000000 -3.141592
 14 0.000001 1.047682 0.554789 -1.287803 -0.146482 0.091107
 15 0.000000 0.000000 4.300853 -0.053201 0.499486 0.050946
 16 0.000000 0.000000 3.909713 0.020617 -0.016271 -3.177149
 17 0.000000 0.000000 4.692176 0.166705 -0.007014 -2.848665
 18 0.000000 0.000000 5.479362 0.044124 0.176641 0.112356
 19 0.645092 -2.464382 2.019449 -0.228315 -0.038031 -0.582860
 20 3.518158 -2.206055 -1.728387 2.911160 1.048239 -3.141592
 21 0.000000 0.000000 4.558179 -2.411954 1.372543 1.434577
 22 0.000000 0.000000 11.949879 0.686720 0.033941 -4.055595
 23 0.000000 0.000000 4.822874 -0.329284 0.000000 0.000000
 24 -1.376730 -0.804586 1.281520 -0.797284 1.234395 -2.900573
 25 0.000000 0.000000 1.416892 0.219855 0.136367 -3.338053
 26 0.000000 0.000000 1.920310 0.684216 0.529517 0.218613
 27 0.213890 -0.856740 4.255571 0.809158 0.306860 0.086984
 28 0.000000 0.000000 1.378407 -0.305213 0.300259 -3.218857
 29 0.000000 0.000000 3.006212 1.165685 0.764964 -2.977349
 30 -3.352225 -2.014409 -1.625205 -3.111551 1.200587 0.000000
 31 0.000000 0.000000 4.228487 -0.793271 0.831076 -0.536943
 32 0.000000 0.000000 13.042765 1.115075 -0.573213 -2.611689
 33 0.000000 0.000000 7.153650 0.063147 0.142269 1.204424
 34 -1.945980 -0.135012 0.247196 -3.112776 1.005267 -0.355953
 35 0.000000 0.000000 1.172377 1.829712 0.376817 -1.658188
 36 0.000000 0.000000 1.923266 0.816940 0.859217 1.282663
 37 0.111389 0.206554 2.803840 0.079809 0.096807 -3.135636
 38 0.000000 0.000000 2.609086 0.426120 0.063968 -0.003224
 39 0.000000 0.000000 2.388648 0.210416 0.178248 -0.023178
time 20
  0 0.192741 -0.192741 31.609894 1.570796 0.000000 0.000000
  1 0.000000 -6.750002 -3.510001 0.000000 0.000000 0.000000
  2 3.007735 -0.000004 -0.000002 0.797811 0.244409 0.000000
  3 0.000000 0.000000 12.794512 1.256724 0.519028 0.024943
  4 0.000000 0.000000 14.050400 1.305109 1.458114 -2.660187
  5 0.000000 0.000000 6.031133 0.113066 0.523561 0.000000
  6 0.000000 0.000000 0.757964 -0.000001 0.000000 0.000000
  7 0.000000 0.000000 0.757950 -0.000002 0.000000 0.000000
  8 -3.007735 0.000004 0.000005 -0.808737 0.235955 -3.152079
  9 0.000000 0.000000 12.794530 -1.262723 0.580349 0.000000
 10 0.000000 0.000000 13.961749 -1.667866 1.393526 -4.043217
 11 0.000000 0.000000 6.030940 -0.114774 0.523252 0.000000
 12 0.000000 0.000000 0.757934 -0.000000 -0.000000 -3.141592
 13 0.000000 0.000000 0.757953 -0.000000 -0.000000 -3.141592
 14 0.000001 1.047682 0.554789 -1.283764 -0.137147 0.085103
 15 0.000000 0.000000 4.300853 -0.025529 0.472935 -0.037104
 16 0.000000 0.000000 3.909713 -0.003891 -0.018404 -3.210525
 17 0.000000 0.000000 4.692176 0.193083 -0.007913 -2.922650
 18 0.000000 0.000000 5.479362 0.040749 0.165759 0.105021
 19 0.645092 -2.464382 2.019449 -0.349839 -0.037301 -0.433123
 20 3.518158 -2.206055 -1.728387 2.911160 1.048239 -3.141592
 21 0.000000 0.000000 4.558179 -2.847889 1.308241 1.274033
 22 0.000000 0.000000 11.949879 0.740983 0.115598 -3.992328
 23 0.000000 0.000000 4.822874 -0.017442 0.000000 0.000000
 24 -1.376730 -0.804586 1.281520 -0.868386 1.228139 -2.781763
 25 0.000000 0.000000 1.416892 0.288082 0.179260 -3.432977
 26 0.000000 0.000000 1.920310 0.880008 0.482669 0.313768
 27 0.213890 -0.856740 4.255571 0.948394 0.292467 0.128151
 28 0.000000 0.000000 1.378407 -0.432284 0.288574 -3.255781
 29 0.000000 0.000000 3.006212 1.279319 0.747910 -2.899313
 30 -3.352225 -2.014409 -1.625205 -3.111551 1.200587 0.000000
 31 0.000000 0.000000 4.228487 -0.579965 0.954947 -0.478900
 32 0.000000 0.000000 13.042765 1.244014 -0.597972 -2.767376
 33 0.000000 0.000000 7.153650 0.054750 0.136229 1.154568
 34 -1.945980 -0.135012 0.247196 -3.122159 1.037404 -0.344327
 35 0.000000 0.000000 1.172377 1.735372 0.461341 -1.687718
 36 0.000000 0.000000 1.923266 0.750449 0.872622 1.195208
 37 0.111389 0.206554 2.803840 0.094402 0.095717 -3.135888
 38 0.000000 0.000000 2.609086 0.429278 0.063968 -0.003020
 39 0.000000 0.000000 2.388648 0.218542 0.178428 -0.021740
time 21
  0 0.192741 -0.192741 31.633331 1.570796 0.000000 0.000000
  1 0.000000 -6.750002 -3.510001 0.000000 0.000000 0.000000
  2 3.007735 -0.000004 -0.000002 0.797811 0.244409 0.000000
  3 0.000000 0.000000 12.794512 1.253357 0.519100 0.023279
  4 0.000000 0.000000 14.050400 1.277206 1.459683 -2.687927
  5 0.000000 0.000000 6.031133 0.113066 0.523561 0.000000
  6 0.000000 0.000000 0.757964 -0.000001 0.000000 0.000000
  7 0.000000 0.000000 0.757950 -0.000002 0.000000 0.000000
  8 -3.007735 0.000004 0.000005 -0.805768 0.235991 -3.151384
  9 0.000000 0.000000 12.794530 -1.262723 0.580349 0.000000
 10 0.000000 0.000000 13.961749 -1.633735 1.400707 -4.009564
 11 0.000000 0.000000 6.030940 -0.114774 0.523252 0.000000
 12 0.000000 0.000000 0.757934 -0.000000 -0.000000 -3.141592
 13 0.000000 0.000000 0.757953 -0.000000 -0.000000 -3.141592
 14 0.000001 1.047682 0.554789 -1.279785 -0.127775 0.079146
 15 0.000000 0.000000 4.300853 0.004265 0.448632 -0.124843
 16 0.000000 0.000000 3.909713 -0.028304 -0.021352 -3.243852
 17 0.000000 0.000000 4.692176 0.219449 -0.006858 -2.996635
 18 0.000000 0.000000 5.479362 0.037457 0.154853 0.097734
 19 0.645092 -2.464382 2.019449 -0.469851 -0.018510 -0.284618
 20 3.518158 -2.206055 -1.728387 2.911160 1.048239 -3.141592
 21 0.000000 0.000000 4.558179 3.121312 1.235186 1.237983
 22 0.000000 0.000000 11.949879 0.801039 0.193549 -3.923885
 23 0.000000 0.000000 4.822874 0.294370 0.000000 0.000000
 24 -1.376730 -0.804586 1.281520 -0.940240 1.224723 -2.663520
 25 0.000000 0.000000 1.416892 0.352463 0.228289 -3.525599
 26 0.000000 0.000000 1.920310 1.065004 0.420912 0.394761
 27 0.213890 -0.856740 4.255571 1.086214 0.272788 0.166646
 28 0.000000 0.000000 1.378407 -0.558337 0.272503 -3.290729
 29 0.000000 0.000000 3.006212 1.388773 0.724648 -2.825759
 30 -3.352225 -2.014409 -1.625205 -3.111551 1.200587 0.000000
 31 0.000000 0.000000 4.228487 -0.307943 1.066531 -0.356255
 32 0.000000 0.000000 13.042765 1.377459 -0.605537 -2.927334
 33 0.000000 0.000000 7.153650 0.046686 0.129793 1.104833
 34 -1.945980 -0.135012 0.247196 -3.131316 1.069587 -0.332667
 35 0.000000 0.000000 1.172377 1.633650 0.542799 -1.727794
 36 0.000000 0.000000 1.923266 0.681487 0.882174 1.105366
 37 0.111389 0.206554 2.803840 0.109013 0.094614 -3.136163
 38 0.000000 0.000000 2.609086 0.432436 0.063980 -0.002816
 39 0.000000 0.000000 2.388648 0.226667 0.178595 -0.020302
time 22
  0 0.192741 -0.192741 31.664581 1.570796 0.000000 0.000000
  1 0.000000 -6.750002 -3.510001 0.000000 0.000000 0.000000
  2 3.007735 -0.000004 -0.000002 0.797811 0.244409 0.000000
  3 0.000000 0.000000 12.794512 1.250027 0.519160 0.021616
  4 0.000000 0.000000 14.050400 1.248554 1.461170 -2.716423
  5 0.000000 0.000000 6.031133 0.113066 0.523561 0.000000
  6 0.000000 0.000000 0.757964 -0.000001 0.000000 0.000000
  7 0.000000 0.000000 0.757950 -0.000002 0.000000 0.000000
  8 -3.007735 0.000004 0.000005 -0.802756 0.236015 -3.150689
  9 0.000000 0.000000 12.794530 -1.262723 0.580349 0.000000
 10 0.000000 0.000000 13.961749 -1.596728 1.407703 -3.973035
 11 0.000000 0.000000 6.030940 -0.114774 0.523252 0.000000
 12 0.000000 0.000000 0.757934 -0.000000 -0.000000 -3.141592
 13 0.000000 0.000000 0.757953 -0.000000 -0.000000 -3.141592
 14 0.000001 1.047682 0.554789 -1.275854 -0.118391 0.073238
 15 0.000000 0.000000 4.300853 0.035976 0.426781 -0.212391
 16 0.000000 0.000000 3.909713 -0.052621 -0.025115 -3.277093
 17 0.000000 0.000000 4.692176 0.245671 -0.003862 -3.070553
 18 0.000000 0.000000 5.479362 0.034247 0.143923 0.090496
 19 0.645092 -2.464382 2.019449 -0.585762 0.017642 -0.139405
 20 3.518158 -2.206055 -1.728387 2.911160 1.048239 -3.141592
 21 0.000000 0.000000 4.558179 2.868102 1.162051 1.266135
 22 0.000000 0.000000 11.949879 0.867582 0.267045 -3.849483
 23 0.000000 0.000000 4.822874 0.606181 0.000000 0.000000
 24 -1.376730 -0.804586 1.281520 -1.012380 1.224208 -2.545516
 25 0.000000 0.000000 1.416892 0.412731 0.282867 -3.616022
 26 0.000000 0.000000 1.920310 1.239168 0.347147 0.460194
 27 0.213890 -0.856740 4.255571 1.222365 0.248231 0.201761
 28 0.000000 0.000000 1.378407 -0.683119 0.252369 -3.323135
 29 0.000000 0.000000 3.006212 1.493299 0.695693 -2.757572
 30 -3.352225 -2.014409 -1.625205 -3.111551 1.200587 0.000000
 31 0.000000 0.000000 4.228487 0.055075 1.152536 -0.138728
 32 0.000000 0.000000 13.042765 1.510557 -0.595479 -3.086946
 33 0.000000 0.000000 7.153650 0.038955 0.122962 1.055179
 34 -1.945980 -0.135012 0.247196 -3.140208 1.101838 -0.320937
 35 0.000000 0.000000 1.172377 1.522532 0.620048 -1.779855
 36 0.000000 0.000000 1.923266 0.610782 0.887695 1.013845
 37 0.111389 0.206554 2.803840 0.123624 0.093523 -3.136451
 38 0.000000 0.000000 2.609086 0.435594 0.063992 -0.002625
 39 0.000000 0.000000 2.388648 0.234793 0.178751 -0.018852
time 23
  0 0.192741 -0.192741 31.699739 1.570796 0.000000 0.000000
  1 0.000000 -6.750002 -3.510001 0.000000 0.000000 0.000000
  2 3.007735 -0.000004 -0.000002 0.797811 0.244409 0.000000
  3 0.000000 0.000000 12.794512 1.246660 0.519219 0.019952
  4 0.000000 0.000000 14.050400 1.219152 1.462560 -2.745673
  5 0.000000 0.000000 6.031133 0.113066 0.523561 0.000000
  6 0.000000 0.000000 0.757964 -0.000001 0.000000 0.000000
  7 0.000000 0.000000 0.757950 -0.000002 0.000000 0.000000
  8 -3.007735 0.000004 0.000005 -0.799787 0.236039 -3.149981
  9 0.000000 0.000000 12.794530 -1.262723 0.580349 0.000000
 10 0.000000 0.000000 13.961749 -1.556461 1.414475 -3.933246
 11 0.000000 0.000000 6.030940 -0.114774 0.523252 0.000000
 12 0.000000 0.000000 0.757934 -0.000000 -0.000000 -3.141592
 13 0.000000 0.000000 0.757953 -0.000000 -0.000000 -3.141592
 14 0.000001 1.047682 0.554789 -1.271995 -0.108971 0.067377
 15 0.000000 0.000000 4.300853 0.069365 0.407502 -0.299854
 16 0.000000 0.000000 3.909713 -0.076794 -0.029681 -3.310237
 17 0.000000 0.000000 4.692176 0.271594 0.001051 -3.144363
 18 0.000000 0.000000 5.479362 0.031121 0.132969 0.083305
 19 0.645092 -2.464382 2.019449 -0.695487 0.069946 0.000910
 20 3.518158 -2.206055 -1.728387 2.911160 1.048239 -3.141592
 21 0.000000 0.000000 4.558179 2.645921 1.093373 1.329555
 22 0.000000 0.000000 11.949879 0.941168 0.335281 -3.768399
 23 0.000000 0.000000 4.822874 0.918024 0.000000 0.000000
 24 -1.376730 -0.804586 1.281520 -1.084390 1.226569 -2.427426
 25 0.000000 0.000000 1.416892 0.468647 0.342430 -3.704469
 26 0.000000 0.000000 1.920310 1.403747 0.264226 0.509880
 27 0.213890 -0.856740 4.255571 1.356695 0.219337 0.232933
 28 0.000000 0.000000 1.378407 -0.806492 0.228519 -3.352557
 29 0.000000 0.000000 3.006212 1.592474 0.661633 -2.695269
 30 -3.352225 -2.014409 -1.625205 -3.111551 1.200587 0.000000
 31 0.000000 0.000000 4.228487 0.516532 1.192618 0.179161
 32 0.000000 0.000000 13.042765 1.638506 -0.568312 -3.241595
 33 0.000000 0.000000 7.153650 0.031558 0.115759 1.005648
 34 -1.945980 -0.135012 0.247196 -3.148825 1.134112 -0.309034
 35 0.000000 0.000000 1.172377 1.399910 0.691737 -1.845819
 36 0.000000 0.000000 1.923266 0.539267 0.889066 0.921529
 37 0.111389 0.206554 2.803840 0.138217 0.092433 -3.136750
 38 0.000000 0.000000 2.609086 0.438753 0.064004 -0.002421
 39 0.000000 0.000000 2.388648 0.242918 0.178895 -0.017402
time 24
  0 0.192741 -0.192741 31.746616 1.570796 0.000000 0.000000
  1 0.000000 -6.750002 -3.510001 0.000000 0.000000 0.000000
  2 3.007735 -0.000004 -0.000002 0.797811 0.244409 0.000000
  3 0.000000 0.000000 12.794512 1.239963 0.519327 0.016624
  4 0.000000 0.000000 14.050400 1.158102 1.465065 -2.806344
  5 0.000000 0.000000 6.031133 0.113066 0.523561 0.000000
  6 0.000000 0.000000 0.757964 -0.000001 0.000000 0.000000
  7 0.000000 0.000000 0.757950 -0.000002 0.000000 0.000000
  8 -3.007735 0.000004 0.000005 -0.793806 0.236087 -3.148591
  9 0.000000 0.000000 12.794530 -1.262723 0.580349 0.000000
 10 0.000000 0.000000 13.961749 -1.464997 1.427127 -3.842834
 11 0.000000 0.000000 6.030940 -0.114774 0.523252 0.000000
 12 0.000000 0.000000 0.757934 -0.000000 -0.000000 -3.141592
 13 0.000000 0.000000 0.757953 -0.000000 -0.000000 -3.141592
 14 0.000001 1.047682 0.554789 -1.264445 -0.090083 0.055764
 15 0.000000 0.000000 4.300853 0.078414 0.339939 -0.247254
 16 0.000000 0.000000 3.909713 -0.065840 -0.023773 -3.282264
 17 0.000000 0.000000 4.692176 0.245420 0.000944 -3.143906
 18 0.000000 0.000000 5.479362 0.025137 0.110989 0.069055
 19 0.645092 -2.464382 2.019449 -0.591222 0.084626 -0.003159
 20 3.518158 -2.206055 -1.728387 2.911160 1.048239 -3.141592
 21 0.000000 0.000000 4.558179 2.241973 1.178598 1.094721
 22 0.000000 0.000000 11.949879 0.736303 0.228030 -3.699894
 23 0.000000 0.000000 4.822874 0.765009 0.000000 0.000000
 24 -1.376730 -0.804586 1.281520 -1.012380 1.224208 -2.545516
 25 0.000000 0.000000 1.416892 0.412731 0.282867 -3.616022
 26 0.000000 0.000000 1.920310 1.239168 0.347147 0.460194
 27 0.213890 -0.856740 4.255571 1.222365 0.248231 0.201761
 28 0.000000 0.000000 1.378407 -0.683119 0.252369 -3.323135
 29 0.000000 0.000000 3.006212 1.493299 0.695693 -2.757572
 30 -3.352225 -2.014409 -1.625205 -3.111551 1.200587 0.000000
 31 0.000000 0.000000 4.228487 0.406478 1.169119 0.129564
 32 0.000000 0.000000 13.042765 1.411130 -0.462657 -3.155788
 33 0.000000 0.000000 7.153650 0.018311 0.099616 0.837134
 34 -1.945980 -0.135012 0.247196 -3.164993 1.198799 -0.284672
 35 0.000000 0.000000 1.172377 1.111521 0.810978 -2.025779
 36 0.000000 0.000000 1.923266 0.397737 0.879414 0.738354
 37 0.111389 0.206554 2.803840 0.167422 0.090264 -3.137398
 38 0.000000 0.000000 2.609086 0.445069 0.064016 -0.002013
 39 0.000000 0.000000 2.388648 0.259182 0.179147 -0.014513
time 25
  0 0.192741 -0.192741 31.805212 1.570796 0.000000 0.000000
  1 0.000000 -6.750002 -3.510001 0.000000 0.000000 0.000000
  2 3.007735 -0.000004 -0.000002 0.797811 0.244409 0.000000
  3 0.000000 0.000000 12.794512 1.233267 0.519423 0.013296
  4 0.000000 0.000000 14.050400 1.094336 1.467150 -2.869752
  5 0.000000 0.000000 6.031133 0.113066 0.523561 0.000000
  6 0.000000 0.000000 0.757964 -0.000001 0.000000 0.000000
  7 0.000000 0.000000 0.757950 -0.000002 0.000000 0.000000
  8 -3.007735 0.000004 0.000005 -0.787825 0.236123 -3.147189
  9 0.000000 0.000000 12.794530 -1.262723 0.580349 0.000000
 10 0.000000 0.000000 13.961749 -1.357043 1.438364 -3.735932
 11 0.000000 0.000000 6.030940 -0.114774 0.523252 0.000000
 12 0.000000 0.000000 0.757934 -0.000000 -0.000000 -3.141592
 13 0.000000 0.000000 0.757953 -0.000000 -0.000000 -3.141592
 14 0.000001 1.047682 0.554789 -1.257134 -0.071111 0.044319
 15 0.000000 0.000000 4.300853 0.083591 0.272036 -0.196403
 16 0.000000 0.000000 3.909713 -0.054730 -0.018176 -3.254242
 17 0.000000 0.000000 4.692176 0.219233 0.000848 -3.143448
 18 0.000000 0.000000 5.479362 0.019484 0.088938 0.054973
 19 0.645092 -2.464382 2.019449 -0.486899 0.099652 -0.005728
 20 3.518158 -2.206055 -1.728387 2.911160 1.048239 -3.141592
 21 0.000000 0.000000 4.558179 1.730190 1.211357 0.750015
 22 0.000000 0.000000 11.949879 0.528287 0.136556 -3.612035
 23 0.000000 0.000000 4.822874 0.612026 0.000000 0.000000
 24 -1.376730 -0.804586 1.281520 -0.940240 1.224723 -2.663520
 25 0.000000 0.000000 1.416892 0.352463 0.228289 -3.525599
 26 0.000000 0.000000 1.920310 1.065004 0.420912 0.394761
 27 0.213890 -0.856740 4.255571 1.086214 0.272788 0.166646
 28 0.000000 0.000000 1.378407 -0.558337 0.272503 -3.290729
 29 0.000000 0.000000 3.006212 1.388773 0.724648 -2.825759
 30 -3.352225 -2.014409 -1.625205 -3.111551 1.200587 0.000000
 31 0.000000 0.000000 4.228487 0.305280 1.143808 0.089131
 32 0.000000 0.000000 13.042765 1.204699 -0.343418 -3.101314
 33 0.000000 0.000000 7.153650 0.007973 0.081495 0.669066
 34 -1.945980 -0.135012 0.247196 -3.179218 1.263623 -0.258853
 35 0.000000 0.000000 1.172377 0.762157 0.883057 -2.270936
 36 0.000000 0.000000 1.923266 0.264026 0.853875 0.562737
 37 0.111389 0.206554 2.803840 0.196609 0.088118 -3.138117
 38 0.000000 0.000000 2.609086 0.451385 0.064028 -0.001606
 39 0.000000 0.000000 2.388648 0.275445 0.179350 -0.011613
time 26
  0 0.192741 -0.192741 31.867714 1.570796 0.000000 0.000000
  1 0.000000 -6.750002 -3.510001 0.000000 0.000000 0.000000
  2 3.007735 -0.000004 -0.000002 0.797811 0.244409 0.000000
  3 0.000000 0.000000 12.794512 1.226570 0.519483 0.009969
  4 0.000000 0.000000 14.050400 1.028229 1.468804 -2.935518
  5 0.000000 0.000000 6.031133 0.113066 0.523561 0.000000
  6 0.000000 0.000000 0.757964 -0.000001 0.000000 0.000000
  7 0.000000 0.000000 0.757950 -0.000002 0.000000 0.000000
  8 -3.007735 0.000004 0.000005 -0.781844 0.236147 -3.145787
  9 0.000000 0.000000 12.794530 -1.262723 0.580349 0.000000
 10 0.000000 0.000000 13.961749 -1.230969 1.447853 -3.610909
 11 0.000000 0.000000 6.030940 -0.114774 0.523252 0.000000
 12 0.000000 0.000000 0.757934 -0.000000 -0.000000 -3.141592
 13 0.000000 0.000000 0.757953 -0.000000 -0.000000 -3.141592
 14 0.000001 1.047682 0.554789 -1.250051 -0.052056 0.033030
 15 0.000000 0.000000 4.300853 0.085149 0.203963 -0.146739
 16 0.000000 0.000000 3.909713 -0.043464 -0.012879 -3.226160
 17 0.000000 0.000000 4.692176 0.193059 0.000776 -3.142977
 18 0.000000 0.000000 5.479362 0.014142 0.066802 0.041035
 19 0.645092 -2.464382 2.019449 -0.382443 0.114863 -0.006692
 20 3.518158 -2.206055 -1.728387 2.911160 1.048239 -3.141592
 21 0.000000 0.000000 4.558179 1.219653 1.177420 0.406561
 22 0.000000 0.000000 11.949879 0.314850 0.065158 -3.507896
 23 0.000000 0.000000 4.822874 0.459012 0.000000 0.000000
 24 -1.376730 -0.804586 1.281520 -0.868386 1.228139 -2.781763
 25 0.000000 0.000000 1.416892 0.288082 0.179260 -3.432977
 26 0.000000 0.000000 1.920310 0.880008 0.482669 0.313768
 27 0.213890 -0.856740 4.255571 0.948394 0.292467 0.128151
 28 0.000000 0.000000 1.378407 -0.432284 0.288574 -3.255781
 29 0.000000 0.000000 3.006212 1.279319 0.747910 -2.899313
 30 -3.352225 -2.014409 -1.625205 -3.111551 1.200587 0.000000
 31 0.000000 0.000000 4.228487 0.211974 1.117020 0.056875
 32 0.000000 0.000000 13.042765 1.012331 -0.216657 -3.074655
 33 0.000000 0.000000 7.153650 0.000849 0.061912 0.501485
 34 -1.945980 -0.135012 0.247196 -3.190160 1.328562 -0.230118
 35 0.000000 0.000000 1.172377 0.378566 0.891925 -2.551950
 36 0.000000 0.000000 1.923266 0.143484 0.814096 0.399758
 37 0.111389 0.206554 2.803840 0.225796 0.085997 -3.138896
 38 0.000000 0.000000 2.609086 0.457701 0.064028 -0.001210
 39 0.000000 0.000000 2.388648 0.291696 0.179518 -0.008713
time 27
  0 0.192741 -0.192741 31.930216 1.570796 0.000000 0.000000
  1 0.000000 -6.750002 -3.510001 0.000000 0.000000 0.000000
  2 3.007735 -0.000004 -0.000002 0.797811 0.244409 0.000000
  3 0.000000 0.000000 12.794512 1.219873 0.519531 0.006641
  4 0.000000 0.000000 14.050400 0.960250 1.470002 -3.003172
  5 0.000000 0.000000 6.031133 0.113066 0.523561 0.000000
  6 0.000000 0.000000 0.757964 -0.000001 0.000000 0.000000
  7 0.000000 0.000000 0.757950 -0.000002 0.000000 0.000000
  8 -3.007735 0.000004 0.000005 -0.775863 0.236171 -3.144385
  9 0.000000 0.000000 12.794530 -1.262723 0.580349 0.000000
 10 0.000000 0.000000 13.961749 -1.086775 1.455072 -3.467669
 11 0.000000 0.000000 6.030940 -0.114774 0.523252 0.000000
 12 0.000000 0.000000 0.757934 -0.000000 -0.000000 -3.141592
 13 0.000000 0.000000 0.757953 -0.000000 -0.000000 -3.141592
 14 0.000001 1.047682 0.554789 -1.243184 -0.032917 0.021884
 15 0.000000 0.000000 4.300853 0.083279 0.135907 -0.097758
 16 0.000000 0.000000 3.909713 -0.032055 -0.007917 -3.198028
 17 0.000000 0.000000 4.692176 0.166873 0.000704 -3.142520
 18 0.000000 0.000000 5.479362 0.009111 0.044595 0.027241
 19 0.645092 -2.464382 2.019449 -0.277794 0.130100 -0.006049
 20 3.518158 -2.206055 -1.728387 2.911160 1.048239 -3.141592
 21 0.000000 0.000000 4.558179 0.818003 1.091469 0.174073
 22 0.000000 0.000000 11.949879 0.095713 0.017672 -3.391274
 23 0.000000 0.000000 4.822874 0.305997 0.000000 0.000000
 24 -1.376730 -0.804586 1.281520 -0.797284 1.234395 -2.900573
 25 0.000000 0.000000 1.416892 0.219855 0.136367 -3.338053
 26 0.000000 0.000000 1.920310 0.684216 0.529517 0.218613
 27 0.213890 -0.856740 4.255571 0.809158 0.306860 0.086984
 28 0.000000 0.000000 1.378407 -0.305213 0.300259 -3.218857
 29 0.000000 0.000000 3.006212 1.165685 0.764964 -2.977349
 30 -3.352225 -2.014409 -1.625205 -3.111551 1.200587 0.000000
 31 0.000000 0.000000 4.228487 0.125471 1.089090 0.031897
 32 0.000000 0.000000 13.042765 0.827092 -0.087317 -3.073270
 33 0.000000 0.000000 7.153650 -0.002880 0.041419 0.334148
 34 -1.945980 -0.135012 0.247196 -3.194474 1.393570 -0.195103
 35 0.000000 0.000000 1.172377 0.015972 0.835175 -2.810914
 36 0.000000 0.000000 1.923266 0.038704 0.762282 0.251760
 37 0.111389 0.206554 2.803840 0.254983 0.083900 -3.139735
 38 0.000000 0.000000 2.609086 0.464017 0.064040 -0.000803
 39 0.000000 0.000000 2.388648 0.307959 0.179638 -0.005801
time 28
  0 0.192741 -0.192741 31.980997 1.570796 0.000000 0.000000
  1 0.000000 -6.750002 -3.510001 0.000000 0.000000 0.000000
  2 3.007735 -0.000004 -0.000002 0.797811 0.244409 0.000000
  3 0.000000 0.000000 12.794512 1.213176 0.519567 0.003328
  4 0.000000 0.000000 14.050400 0.890960 1.470721 -3.072052
  5 0.000000 0.000000 6.031133 0.113066 0.523561 0.000000
  6 0.000000 0.000000 0.757964 -0.000001 0.000000 0.000000
  7 0.000000 0.000000 0.757950 -0.000002 0.000000 0.000000
  8 -3.007735 0.000004 0.000005 -0.769882 0.236183 -3.142982
  9 0.000000 0.000000 12.794530 -1.262723 0.580349 0.000000
 10 0.000000 0.000000 13.961749 -0.927145 1.459611 -3.309089
 11 0.000000 0.000000 6.030940 -0.114774 0.523252 0.000000
 12 0.000000 0.000000 0.757934 -0.000000 -0.000000 -3.141592
 13 0.000000 0.000000 0.757953 -0.000000 -0.000000 -3.141592
 14 0.000001 1.047682 0.554789 -1.236533 -0.013705 0.010870
 15 0.000000 0.000000 4.300853 0.078090 0.068021 -0.048993
 16 0.000000 0.000000 3.909713 -0.020502 -0.003267 -3.169834
 17 0.000000 0.000000 4.692176 0.140698 0.000644 -3.142050
 18 0.000000 0.000000 5.479362 0.004390 0.022327 0.013567
 19 0.645092 -2.464382 2.019449 -0.172935 0.145179 -0.003828
 20 3.518158 -2.206055 -1.728387 2.911160 1.048239 -3.141592
 21 0.000000 0.000000 4.558179 0.521219 0.977449 0.050908
 22 0.000000 0.000000 11.949879 -0.127317 -0.003053 -3.267186
 23 0.000000 0.000000 4.822874 0.152983 0.000000 0.000000
 24 -1.376730 -0.804586 1.281520 -0.727401 1.243419 -3.020341
 25 0.000000 0.000000 1.416892 0.148191 0.100126 -3.240862
 26 0.000000 0.000000 1.920310 0.479565 0.558867 0.112380
 27 0.213890 -0.856740 4.255571 0.668885 0.315633 0.043959
 28 0.000000 0.000000 1.378407 -0.177380 0.307378 -3.180566
 29 0.000000 0.000000 3.006212 1.049021 0.775378 -3.058626
 30 -3.352225 -2.014409 -1.625205 -3.111551 1.200587 0.000000
 31 0.000000 0.000000 4.228487 0.044872 1.060355 0.013208
 32 0.000000 0.000000 13.042765 0.642646 0.040046 -3.095717
 33 0.000000 0.000000 7.153650 -0.003153 0.020590 0.167054
 34 -1.945980 -0.135012 0.247196 -3.180956 1.458532 -0.142457
 35 0.000000 0.000000 1.172377 -0.288715 0.726454 -3.008611
 36 0.000000 0.000000 1.923266 -0.049829 0.700637 0.118920
 37 0.111389 0.206554 2.803840 0.284170 0.081826 -3.140634
 38 0.000000 0.000000 2.609086 0.470334 0.064040 -0.000395
 39 0.000000 0.000000 2.388648 0.324222 0.179698 -0.002900
time 29
  0 0.192741 -0.192741 32.016155 1.570796 0.000000 0.000000
  1 0.000000 -6.750002 -3.510001 0.000000 0.000000 0.000000
  2 3.007735 -0.000004 -0.000002 0.797811 0.244409 0.000000
  3 0.000000 0.000000 12.794512 1.206479 0.519567 0.000000
  4 0.000000 0.000000 14.050400 0.821108 1.470961 -3.141592
  5 0.000000 0.000000 6.031133 0.113066 0.523561 0.000000
  6 0.000000 0.000000 0.757964 -0.000001 0.000000 0.000000
  7 0.000000 0.000000 0.757950 -0.000002 0.000000 0.000000
  8 -3.007735 0.000004 0.000005 -0.763901 0.236183 -3.141592
  9 0.000000 0.000000 12.794530 -1.262723 0.580349 0.000000
 10 0.000000 0.000000 13.961749 -0.758599 1.461174 -3.141592
 11 0.000000 0.000000 6.030940 -0.114774 0.523252 0.000000
 12 0.000000 0.000000 0.757934 -0.000000 -0.000000 -3.141592
 13 0.000000 0.000000 0.757953 -0.000000 -0.000000 -3.141592
 14 0.000001 1.047682 0.554789 -1.230097 0.005566 0.000000
 15 0.000000 0.000000 4.300853 0.069617 0.000476 0.000000
 16 0.000000 0.000000 3.909713 -0.008841 0.001047 -3.141592
 17 0.000000 0.000000 4.692176 0.114524 0.000608 -3.141592
 18 0.000000 0.000000 5.479362 0.000000 0.000000 0.000000
 19 0.645092 -2.464382 2.019449 -0.067789 0.159939 0.000000
 20 3.518158 -2.206055 -1.728387 2.911160 1.048239 -3.141592
 21 0.000000 0.000000 4.558179 0.290227 0.851123 0.000000
 22 0.000000 0.000000 11.949879 -0.351181 0.004253 -3.141592
 23 0.000000 0.000000 4.822874 0.000000 0.000000 0.000000
 24 -1.376730 -0.804586 1.281520 -0.659309 1.255116 -3.141592
 25 0.000000 0.000000 1.416892 0.073536 0.071051 -3.141592
 26 0.000000 0.000000 1.920310 0.269862 0.568862 0.000000
 27 0.213890 -0.856740 4.255571 0.528081 0.318569 0.000000
 28 0.000000 0.000000 1.378407 -0.049177 0.309751 -3.141592
 29 0.000000 0.000000 3.006212 0.930783 0.778878 -3.141592
 30 -3.352225 -2.014409 -1.625205 -3.111551 1.200587 0.000000
 31 0.000000 0.000000 4.228487 -0.030722 1.031015 0.000000
 32 0.000000 0.000000 13.042765 0.453051 0.161047 -3.141592
 33 0.000000 0.000000 7.153650 0.000000 0.000000 0.000000
 34 -1.945980 -0.135012 0.247196 -3.077445 1.523081 0.000000
 35 0.000000 0.000000 1.172377 -0.535111 0.583828 -3.141592
 36 0.000000 0.000000 1.923266 -0.123086 0.631228 0.000000
 37 0.111389 0.206554 2.803840 0.313340 0.079789 -3.141592
 38 0.000000 0.000000 2.609086 0.476630 0.064040 0.000000
 39 0.000000 0.000000 2.388648 0.340473 0.179722 0.000000
end
