version 1
nodes
  0 "Bip01"  -1
  1 "Bip01 Pelvis"   0
  2 "Bip01 L Thigh"   1
  3 "Bip01 L Knee"   2
  4 "Bip01 L Foot"   3
  5 "Bip01 L Toe0"   4
  6 "Bip01 L Toe01"   5
  7 "Bip01 L Toe02"   6
  8 "Bip01 R Thigh"   1
  9 "Bip01 R Knee"   8
 10 "Bip01 R Foot"   9
 11 "Bip01 R Toe0"  10
 12 "Bip01 R Toe01"  11
 13 "Bip01 R Toe02"  12
 14 "Bip01 Spine"   1
 15 "Bip01 Spine1"  14
 16 "Bip01 Spine2"  15
 17 "Bip01 Spine3"  16
 18 "Bip01 Neck"  17
 19 "Bip01 Head"  18
 20 "Bip01 L Clavicle"  18
 21 "Bip01 L UpperArm"  20
 22 "Bip01 L Forearm"  21
 23 "Bip01 L Hand"  22
 24 "Bip01 L Finger0"  23
 25 "Bip01 L Finger01"  24
 26 "Bip01 L Finger02"  25
 27 "Bip01 L Finger1"  23
 28 "Bip01 L Finger11"  27
 29 "Bip01 L Finger12"  28
 30 "Bip01 R Clavicle"  18
 31 "Bip01 R UpperArm"  30
 32 "Bip01 R Forearm"  31
 33 "Bip01 R Hand"  32
 34 "Bip01 R Finger0"  33
 35 "Bip01 R Finger01"  34
 36 "Bip01 R Finger02"  35
 37 "Bip01 R Finger1"  33
 38 "Bip01 R Finger11"  37
 39 "Bip01 R Finger12"  38
end
skeleton
time 0
  0 0.192741 -0.192741 32.016155 1.570796 0.000000 0.000000
  1 0.000000 -6.750002 -3.510001 0.000000 0.000000 0.000000
  2 3.007735 -0.000004 -0.000002 0.797811 0.244409 0.000000
  3 0.000000 0.000000 12.794512 1.206479 0.519567 0.000000
  4 0.000000 0.000000 14.050400 0.821108 1.470961 -3.141592
  5 0.000000 0.000000 6.031133 0.113066 0.523561 0.000000
  6 0.000000 0.000000 0.757964 -0.000001 0.000000 0.000000
  7 0.000000 0.000000 0.757950 -0.000002 0.000000 0.000000
  8 -3.007735 0.000004 0.000005 -0.763901 0.236183 -3.141592
  9 0.000000 0.000000 12.794530 -1.262723 0.580349 0.000000
 10 0.000000 0.000000 13.961749 -0.758599 1.461174 -3.141592
 11 0.000000 0.000000 6.030940 -0.114774 0.523252 0.000000
 12 0.000000 0.000000 0.757934 -0.000000 -0.000000 -3.141592
 13 0.000000 0.000000 0.757953 -0.000000 -0.000000 -3.141592
 14 0.000001 1.047682 0.554789 -1.230097 0.005566 0.000000
 15 0.000000 0.000000 4.300853 0.069617 0.000476 0.000000
 16 0.000000 0.000000 3.909713 -0.008841 0.001047 -3.141592
 17 0.000000 0.000000 4.692176 0.114524 0.000608 -3.141592
 18 0.000000 0.000000 5.479362 0.000000 0.000000 0.000000
 19 0.645092 -2.464382 2.019449 -0.067789 0.159939 0.000000
 20 3.518158 -2.206055 -1.728387 2.911160 1.048239 -3.141592
 21 0.000000 0.000000 4.558179 0.290227 0.851123 0.000000
 22 0.000000 0.000000 11.949879 -0.351181 0.004253 -3.141592
 23 0.000000 0.000000 4.822874 0.000000 0.000000 0.000000
 24 -1.376730 -0.804586 1.281520 -0.659309 1.255116 -3.141592
 25 0.000000 0.000000 1.416892 0.073536 0.071051 -3.141592
 26 0.000000 0.000000 1.920310 0.269862 0.568862 0.000000
 27 0.213890 -0.856740 4.255571 0.528081 0.318569 0.000000
 28 0.000000 0.000000 1.378407 -0.049177 0.309751 -3.141592
 29 0.000000 0.000000 3.006212 0.930783 0.778878 -3.141592
 30 -3.352225 -2.014409 -1.625205 -3.111551 1.200587 0.000000
 31 0.000000 0.000000 4.228487 -0.030722 1.031015 0.000000
 32 0.000000 0.000000 13.042765 0.453051 0.161047 -3.141592
 33 0.000000 0.000000 7.153650 0.000000 0.000000 0.000000
 34 -1.945980 -0.135012 0.247196 -3.077445 1.523081 0.000000
 35 0.000000 0.000000 1.172377 -0.535111 0.583828 -3.141592
 36 0.000000 0.000000 1.923266 -0.123086 0.631228 0.000000
 37 0.111389 0.206554 2.803840 0.313340 0.079789 -3.141592
 38 0.000000 0.000000 2.609086 0.476630 0.064040 0.000000
 39 0.000000 0.000000 2.388648 0.340473 0.179722 0.000000
time 1
  0 0.192741 -0.192741 31.426294 1.570796 0.000000 0.000000
  1 0.000000 -6.750002 -3.510001 0.000000 0.000000 0.000000
  2 3.007735 -0.000004 -0.000002 0.712417 0.243558 -0.020637
  3 0.000000 0.000000 12.794512 1.321955 0.516703 0.057242
  4 0.000000 0.000000 14.050400 1.077950 1.467605 -2.885981
  5 0.000000 0.000000 6.031133 0.113066 0.523561 0.000000
  6 0.000000 0.000000 0.757964 -0.000001 0.000000 0.000000
  7 0.000000 0.000000 0.757950 -0.000002 0.000000 0.000000
  8 -3.007735 0.000004 0.000005 -0.696605 0.235668 -3.125856
  9 0.000000 0.000000 12.794530 -1.382540 0.577069 -0.065587
 10 0.000000 0.000000 13.961749 -1.237297 1.447443 -3.617237
 11 0.000000 0.000000 6.030940 -0.114774 0.523252 0.000000
 12 0.000000 0.000000 0.757934 -0.000000 -0.000000 -3.141592
 13 0.000000 0.000000 0.757953 -0.000000 -0.000000 -3.141592
 14 0.000001 1.047682 0.554789 -1.142837 0.005554 0.000479
 15 0.000000 0.000000 4.300853 0.130702 0.000476 0.000024
 16 0.000000 0.000000 3.909713 -0.021928 0.001047 -3.141604
 17 0.000000 0.000000 4.692176 0.114524 0.000608 -3.141592
 18 0.000000 0.000000 5.479362 -0.113426 0.000000 0.000000
 19 0.645092 -2.464382 2.019449 -0.067789 0.159939 0.000000
 20 3.518158 -2.206055 -1.728387 2.911160 1.048239 -3.141592
 21 0.000000 0.000000 4.558179 0.329875 0.850750 0.029794
 22 0.000000 0.000000 11.949879 -0.730790 0.003968 -3.143161
 23 0.000000 0.000000 4.822874 0.000000 0.000000 0.000000
 24 -1.376730 -0.804586 1.281520 -0.659309 1.255116 -3.141592
 25 0.000000 0.000000 1.416892 0.073536 0.071051 -3.141592
 26 0.000000 0.000000 1.920310 0.269862 0.568862 0.000000
 27 0.213890 -0.856740 4.255571 0.528081 0.318569 0.000000
 28 0.000000 0.000000 1.378407 -0.049177 0.309751 -3.141592
 29 0.000000 0.000000 3.006212 0.930783 0.778878 -3.141592
 30 -3.352225 -2.014409 -1.625205 -3.111551 1.200587 0.000000
 31 0.000000 0.000000 4.228487 -0.030722 1.031015 0.000000
 32 0.000000 0.000000 13.042765 0.863536 0.147894 -3.077598
 33 0.000000 0.000000 7.153650 0.000000 0.000000 0.000000
 34 -1.945980 -0.135012 0.247196 -3.077445 1.523081 0.000000
 35 0.000000 0.000000 1.172377 -0.535111 0.583828 -3.141592
 36 0.000000 0.000000 1.923266 -0.123086 0.631228 0.000000
 37 0.111389 0.206554 2.803840 0.313340 0.079789 -3.141592
 38 0.000000 0.000000 2.609086 0.476630 0.064040 0.000000
 39 0.000000 0.000000 2.388648 0.340473 0.179722 0.000000
time 2
  0 0.192741 -0.192741 31.063002 1.570796 0.000000 0.000000
  1 0.000000 -6.750002 -3.510001 0.000000 0.000000 0.000000
  2 3.007735 -0.000004 -0.000002 0.627061 0.240993 -0.041131
  3 0.000000 0.000000 12.794512 1.436671 0.508122 0.113536
  4 0.000000 0.000000 14.050400 1.305109 1.458114 -2.660187
  5 0.000000 0.000000 6.031133 0.113066 0.523561 0.000000
  6 0.000000 0.000000 0.757964 -0.000001 0.000000 0.000000
  7 0.000000 0.000000 0.757950 -0.000002 0.000000 0.000000
  8 -3.007735 0.000004 0.000005 -0.629308 0.234134 -3.110193
  9 0.000000 0.000000 12.794530 -1.501357 0.567249 -0.129973
 10 0.000000 0.000000 13.961749 -1.564227 1.413210 -3.941012
 11 0.000000 0.000000 6.030940 -0.114774 0.523252 0.000000
 12 0.000000 0.000000 0.757934 -0.000000 -0.000000 -3.141592
 13 0.000000 0.000000 0.757953 -0.000000 -0.000000 -3.141592
 14 0.000001 1.047682 0.554789 -1.055565 0.005482 0.000959
 15 0.000000 0.000000 4.300853 0.191788 0.000476 0.000048
 16 0.000000 0.000000 3.909713 -0.035015 0.001047 -3.141617
 17 0.000000 0.000000 4.692176 0.114524 0.000608 -3.141592
 18 0.000000 0.000000 5.479362 -0.226873 0.000000 0.000000
 19 0.645092 -2.464382 2.019449 -0.067789 0.159939 0.000000
 20 3.518158 -2.206055 -1.728387 2.911160 1.048239 -3.141592
 21 0.000000 0.000000 4.558179 0.369523 0.849572 0.059588
 22 0.000000 0.000000 11.949879 -1.110399 0.003087 -3.144509
 23 0.000000 0.000000 4.822874 0.000000 0.000000 0.000000
 24 -1.376730 -0.804586 1.281520 -0.659309 1.255116 -3.141592
 25 0.000000 0.000000 1.416892 0.073536 0.071051 -3.141592
 26 0.000000 0.000000 1.920310 0.269862 0.568862 0.000000
 27 0.213890 -0.856740 4.255571 0.528081 0.318569 0.000000
 28 0.000000 0.000000 1.378407 -0.049177 0.309751 -3.141592
 29 0.000000 0.000000 3.006212 0.930783 0.778878 -3.141592
 30 -3.352225 -2.014409 -1.625205 -3.111551 1.200587 0.000000
 31 0.000000 0.000000 4.228487 -0.030722 1.031015 0.000000
 32 0.000000 0.000000 13.042765 1.271099 0.110626 -3.024336
 33 0.000000 0.000000 7.153650 0.000000 0.000000 0.000000
 34 -1.945980 -0.135012 0.247196 -3.077445 1.523081 0.000000
 35 0.000000 0.000000 1.172377 -0.535111 0.583828 -3.141592
 36 0.000000 0.000000 1.923266 -0.123086 0.631228 0.000000
 37 0.111389 0.206554 2.803840 0.313340 0.079789 -3.141592
 38 0.000000 0.000000 2.609086 0.476630 0.064040 0.000000
 39 0.000000 0.000000 2.388648 0.340473 0.179722 0.000000
time 3
  0 0.192741 -0.192741 30.242664 1.570796 0.000000 0.000000
  1 0.000000 -6.750002 -3.510001 0.000000 0.000000 0.000000
  2 3.007735 -0.000004 -0.000002 0.541819 0.236751 -0.061301
  3 0.000000 0.000000 12.794512 1.549976 0.494028 0.168006
  4 0.000000 0.000000 14.050400 1.489477 1.443852 -2.477230
  5 0.000000 0.000000 6.031133 0.113066 0.523561 0.000000
  6 0.000000 0.000000 0.757964 -0.000001 0.000000 0.000000
  7 0.000000 0.000000 0.757950 -0.000002 0.000000 0.000000
  8 -3.007735 0.000004 0.000005 -0.562096 0.231569 -3.094685
  9 0.000000 0.000000 12.794530 -1.618246 0.551148 -0.192033
 10 0.000000 0.000000 13.961749 -1.762398 1.368669 -4.136025
 11 0.000000 0.000000 6.030940 -0.114774 0.523252 0.000000
 12 0.000000 0.000000 0.757934 -0.000000 -0.000000 -3.141592
 13 0.000000 0.000000 0.757953 -0.000000 -0.000000 -3.141592
 14 0.000001 1.047682 0.554789 -0.968306 0.005386 0.001438
 15 0.000000 0.000000 4.300853 0.252873 0.000476 0.000084
 16 0.000000 0.000000 3.909713 -0.048103 0.001047 -3.141629
 17 0.000000 0.000000 4.692176 0.114524 0.000608 -3.141592
 18 0.000000 0.000000 5.479362 -0.340320 0.000000 0.000000
 19 0.645092 -2.464382 2.019449 -0.067789 0.159939 0.000000
 20 3.518158 -2.206055 -1.728387 2.911160 1.048239 -3.141592
 21 0.000000 0.000000 4.558179 0.408979 0.847629 0.089226
 22 0.000000 0.000000 11.949879 -1.490009 0.001792 -3.145450
 23 0.000000 0.000000 4.822874 0.000000 0.000000 0.000000
 24 -1.376730 -0.804586 1.281520 -0.659309 1.255116 -3.141592
 25 0.000000 0.000000 1.416892 0.073536 0.071051 -3.141592
 26 0.000000 0.000000 1.920310 0.269862 0.568862 0.000000
 27 0.213890 -0.856740 4.255571 0.528081 0.318569 0.000000
 28 0.000000 0.000000 1.378407 -0.049177 0.309751 -3.141592
 29 0.000000 0.000000 3.006212 0.930783 0.778878 -3.141592
 30 -3.352225 -2.014409 -1.625205 -3.111551 1.200587 0.000000
 31 0.000000 0.000000 4.228487 -0.030722 1.031015 0.000000
 32 0.000000 0.000000 13.042765 1.674603 0.055563 -2.990348
 33 0.000000 0.000000 7.153650 0.000000 0.000000 0.000000
 34 -1.945980 -0.135012 0.247196 -3.077445 1.523081 0.000000
 35 0.000000 0.000000 1.172377 -0.535111 0.583828 -3.141592
 36 0.000000 0.000000 1.923266 -0.123086 0.631228 0.000000
 37 0.111389 0.206554 2.803840 0.313340 0.079789 -3.141592
 38 0.000000 0.000000 2.609086 0.476630 0.064040 0.000000
 39 0.000000 0.000000 2.388648 0.340473 0.179722 0.000000
time 4
  0 0.192741 -0.192741 28.269947 1.570796 0.000000 0.000000
  1 0.000000 -6.750002 -3.510001 0.000000 0.000000 0.000000
  2 3.007735 -0.000004 -0.000002 0.456805 0.230854 -0.081016
  3 0.000000 0.000000 12.794512 1.661289 0.474661 0.219877
  4 0.000000 0.000000 14.050400 1.633020 1.426247 -2.334940
  5 0.000000 0.000000 6.031133 0.113066 0.523561 0.000000
  6 0.000000 0.000000 0.757964 -0.000001 0.000000 0.000000
  7 0.000000 0.000000 0.757950 -0.000002 0.000000 0.000000
  8 -3.007735 0.000004 0.000005 -0.495009 0.227998 -3.079392
  9 0.000000 0.000000 12.794530 -1.732393 0.529086 -0.250774
 10 0.000000 0.000000 13.961749 -1.886842 1.319254 -4.257309
 11 0.000000 0.000000 6.030940 -0.114774 0.523252 0.000000
 12 0.000000 0.000000 0.757934 -0.000000 -0.000000 -3.141592
 13 0.000000 0.000000 0.757953 -0.000000 -0.000000 -3.141592
 14 0.000001 1.047682 0.554789 -0.881034 0.005230 0.001894
 15 0.000000 0.000000 4.300853 0.313959 0.000476 0.000108
 16 0.000000 0.000000 3.909713 -0.061190 0.001047 -3.141641
 17 0.000000 0.000000 4.692176 0.114524 0.000608 -3.141592
 18 0.000000 0.000000 5.479362 -0.453766 0.000000 0.000000
 19 0.645092 -2.464382 2.019449 -0.067789 0.159939 0.000000
 20 3.518158 -2.206055 -1.728387 2.911160 1.048239 -3.141592
 21 0.000000 0.000000 4.558179 0.448339 0.844901 0.118629
 22 0.000000 0.000000 11.949879 -1.869618 0.000238 -3.145827
 23 0.000000 0.000000 4.822874 0.000000 0.000000 0.000000
 24 -1.376730 -0.804586 1.281520 -0.659309 1.255116 -3.141592
 25 0.000000 0.000000 1.416892 0.073536 0.071051 -3.141592
 26 0.000000 0.000000 1.920310 0.269862 0.568862 0.000000
 27 0.213890 -0.856740 4.255571 0.528081 0.318569 0.000000
 28 0.000000 0.000000 1.378407 -0.049177 0.309751 -3.141592
 29 0.000000 0.000000 3.006212 0.930783 0.778878 -3.141592
 30 -3.352225 -2.014409 -1.625205 -3.111551 1.200587 0.000000
 31 0.000000 0.000000 4.228487 -0.030722 1.031015 0.000000
 32 0.000000 0.000000 13.042765 2.075531 -0.008355 -2.980769
 33 0.000000 0.000000 7.153650 0.000000 0.000000 0.000000
 34 -1.945980 -0.135012 0.247196 -3.077445 1.523081 0.000000
 35 0.000000 0.000000 1.172377 -0.535111 0.583828 -3.141592
 36 0.000000 0.000000 1.923266 -0.123086 0.631228 0.000000
 37 0.111389 0.206554 2.803840 0.313340 0.079789 -3.141592
 38 0.000000 0.000000 2.609086 0.476630 0.064040 0.000000
 39 0.000000 0.000000 2.388648 0.340473 0.179722 0.000000
time 5
  0 0.192741 -0.192741 24.531551 1.284595 0.000000 0.000000
  1 0.000000 -6.750002 -3.510001 0.000000 0.000000 0.000000
  2 3.007735 -0.000004 -0.000002 0.456805 0.230854 -0.081016
  3 0.000000 0.000000 12.794512 1.661289 0.474661 0.219877
  4 0.000000 0.000000 14.050400 1.633020 1.426247 -2.334940
  5 0.000000 0.000000 6.031133 0.113066 0.523561 0.000000
  6 0.000000 0.000000 0.757964 -0.000001 0.000000 0.000000
  7 0.000000 0.000000 0.757950 -0.000002 0.000000 0.000000
  8 -3.007735 0.000004 0.000005 -0.495009 0.227998 -3.079392
  9 0.000000 0.000000 12.794530 -1.732393 0.529086 -0.250774
 10 0.000000 0.000000 13.961749 -1.886842 1.319254 -4.257309
 11 0.000000 0.000000 6.030940 -0.114774 0.523252 0.000000
 12 0.000000 0.000000 0.757934 -0.000000 -0.000000 -3.141592
 13 0.000000 0.000000 0.757953 -0.000000 -0.000000 -3.141592
 14 0.000001 1.047682 0.554789 -0.881034 0.005230 0.001894
 15 0.000000 0.000000 4.300853 0.313959 0.000476 0.000108
 16 0.000000 0.000000 3.909713 -0.061190 0.001047 -3.141641
 17 0.000000 0.000000 4.692176 0.114524 0.000608 -3.141592
 18 0.000000 0.000000 5.479362 -0.453766 0.000000 0.000000
 19 0.645092 -2.464382 2.019449 -0.067789 0.159939 0.000000
 20 3.518158 -2.206055 -1.728387 2.911160 1.048239 -3.141592
 21 0.000000 0.000000 4.558179 0.448339 0.844901 0.118629
 22 0.000000 0.000000 11.949879 -1.869618 0.000238 -3.145827
 23 0.000000 0.000000 4.822874 0.000000 0.000000 0.000000
 24 -1.376730 -0.804586 1.281520 -0.659309 1.255116 -3.141592
 25 0.000000 0.000000 1.416892 0.073536 0.071051 -3.141592
 26 0.000000 0.000000 1.920310 0.269862 0.568862 0.000000
 27 0.213890 -0.856740 4.255571 0.528081 0.318569 0.000000
 28 0.000000 0.000000 1.378407 -0.049177 0.309751 -3.141592
 29 0.000000 0.000000 3.006212 0.930783 0.778878 -3.141592
 30 -3.352225 -2.014409 -1.625205 -3.111551 1.200587 0.000000
 31 0.000000 0.000000 4.228487 -0.030722 1.031015 0.000000
 32 0.000000 0.000000 13.042765 2.075531 -0.008355 -2.980769
 33 0.000000 0.000000 7.153650 0.000000 0.000000 0.000000
 34 -1.945980 -0.135012 0.247196 -3.077445 1.523081 0.000000
 35 0.000000 0.000000 1.172377 -0.535111 0.583828 -3.141592
 36 0.000000 0.000000 1.923266 -0.123086 0.631228 0.000000
 37 0.111389 0.206554 2.803840 0.313340 0.079789 -3.141592
 38 0.000000 0.000000 2.609086 0.476630 0.064040 0.000000
 39 0.000000 0.000000 2.388648 0.340473 0.179722 0.000000
time 6
  0 0.192741 -0.192741 19.543118 0.998343 0.000000 0.000000
  1 0.000000 -6.750002 -3.510001 0.000000 0.000000 0.000000
  2 3.007735 -0.000004 -0.000002 0.456805 0.230854 -0.081016
  3 0.000000 0.000000 12.794512 1.661289 0.474661 0.219877
  4 0.000000 0.000000 14.050400 1.633020 1.426247 -2.334940
  5 0.000000 0.000000 6.031133 0.113066 0.523561 0.000000
  6 0.000000 0.000000 0.757964 -0.000001 0.000000 0.000000
  7 0.000000 0.000000 0.757950 -0.000002 0.000000 0.000000
  8 -3.007735 0.000004 0.000005 -0.495009 0.227998 -3.079392
  9 0.000000 0.000000 12.794530 -1.732393 0.529086 -0.250774
 10 0.000000 0.000000 13.961749 -1.886842 1.319254 -4.257309
 11 0.000000 0.000000 6.030940 -0.114774 0.523252 0.000000
 12 0.000000 0.000000 0.757934 -0.000000 -0.000000 -3.141592
 13 0.000000 0.000000 0.757953 -0.000000 -0.000000 -3.141592
 14 0.000001 1.047682 0.554789 -0.881034 0.005230 0.001894
 15 0.000000 0.000000 4.300853 0.313959 0.000476 0.000108
 16 0.000000 0.000000 3.909713 -0.061190 0.001047 -3.141641
 17 0.000000 0.000000 4.692176 0.114524 0.000608 -3.141592
 18 0.000000 0.000000 5.479362 -0.453766 0.000000 0.000000
 19 0.645092 -2.464382 2.019449 -0.067789 0.159939 0.000000
 20 3.518158 -2.206055 -1.728387 2.911160 1.048239 -3.141592
 21 0.000000 0.000000 4.558179 0.448339 0.844901 0.118629
 22 0.000000 0.000000 11.949879 -1.869618 0.000238 -3.145827
 23 0.000000 0.000000 4.822874 0.000000 0.000000 0.000000
 24 -1.376730 -0.804586 1.281520 -0.659309 1.255116 -3.141592
 25 0.000000 0.000000 1.416892 0.073536 0.071051 -3.141592
 26 0.000000 0.000000 1.920310 0.269862 0.568862 0.000000
 27 0.213890 -0.856740 4.255571 0.528081 0.318569 0.000000
 28 0.000000 0.000000 1.378407 -0.049177 0.309751 -3.141592
 29 0.000000 0.000000 3.006212 0.930783 0.778878 -3.141592
 30 -3.352225 -2.014409 -1.625205 -3.111551 1.200587 0.000000
 31 0.000000 0.000000 4.228487 -0.030722 1.031015 0.000000
 32 0.000000 0.000000 13.042765 2.075531 -0.008355 -2.980769
 33 0.000000 0.000000 7.153650 0.000000 0.000000 0.000000
 34 -1.945980 -0.135012 0.247196 -3.077445 1.523081 0.000000
 35 0.000000 0.000000 1.172377 -0.535111 0.583828 -3.141592
 36 0.000000 0.000000 1.923266 -0.123086 0.631228 0.000000
 37 0.111389 0.206554 2.803840 0.313340 0.079789 -3.141592
 38 0.000000 0.000000 2.609086 0.476630 0.064040 0.000000
 39 0.000000 0.000000 2.388648 0.340473 0.179722 0.000000
time 7
  0 0.192742 -0.192742 14.296865 0.712142 0.000000 0.000000
  1 0.000000 -6.750002 -3.510001 0.000000 0.000000 0.000000
  2 3.007735 -0.000004 -0.000002 0.456805 0.230854 -0.081016
  3 0.000000 0.000000 12.794512 1.661289 0.474661 0.219877
  4 0.000000 0.000000 14.050400 1.633020 1.426247 -2.334940
  5 0.000000 0.000000 6.031133 0.113066 0.523561 0.000000
  6 0.000000 0.000000 0.757964 -0.000001 0.000000 0.000000
  7 0.000000 0.000000 0.757950 -0.000002 0.000000 0.000000
  8 -3.007735 0.000004 0.000005 -0.495009 0.227998 -3.079392
  9 0.000000 0.000000 12.794530 -1.732393 0.529086 -0.250774
 10 0.000000 0.000000 13.961749 -1.886842 1.319254 -4.257309
 11 0.000000 0.000000 6.030940 -0.114774 0.523252 0.000000
 12 0.000000 0.000000 0.757934 -0.000000 -0.000000 -3.141592
 13 0.000000 0.000000 0.757953 -0.000000 -0.000000 -3.141592
 14 0.000001 1.047682 0.554789 -0.881034 0.005230 0.001894
 15 0.000000 0.000000 4.300853 0.313959 0.000476 0.000108
 16 0.000000 0.000000 3.909713 -0.061190 0.001047 -3.141641
 17 0.000000 0.000000 4.692176 0.114524 0.000608 -3.141592
 18 0.000000 0.000000 5.479362 -0.453766 0.000000 0.000000
 19 0.645092 -2.464382 2.019449 -0.067789 0.159939 0.000000
 20 3.518158 -2.206055 -1.728387 2.911160 1.048239 -3.141592
 21 0.000000 0.000000 4.558179 0.448339 0.844901 0.118629
 22 0.000000 0.000000 11.949879 -1.869618 0.000238 -3.145827
 23 0.000000 0.000000 4.822874 0.000000 0.000000 0.000000
 24 -1.376730 -0.804586 1.281520 -0.659309 1.255116 -3.141592
 25 0.000000 0.000000 1.416892 0.073536 0.071051 -3.141592
 26 0.000000 0.000000 1.920310 0.269862 0.568862 0.000000
 27 0.213890 -0.856740 4.255571 0.528081 0.318569 0.000000
 28 0.000000 0.000000 1.378407 -0.049177 0.309751 -3.141592
 29 0.000000 0.000000 3.006212 0.930783 0.778878 -3.141592
 30 -3.352225 -2.014409 -1.625205 -3.111551 1.200587 0.000000
 31 0.000000 0.000000 4.228487 -0.030722 1.031015 0.000000
 32 0.000000 0.000000 13.042765 2.075531 -0.008355 -2.980769
 33 0.000000 0.000000 7.153650 0.000000 0.000000 0.000000
 34 -1.945980 -0.135012 0.247196 -3.077445 1.523081 0.000000
 35 0.000000 0.000000 1.172377 -0.535111 0.583828 -3.141592
 36 0.000000 0.000000 1.923266 -0.123086 0.631228 0.000000
 37 0.111389 0.206554 2.803840 0.313340 0.079789 -3.141592
 38 0.000000 0.000000 2.609086 0.476630 0.064040 0.000000
 39 0.000000 0.000000 2.388648 0.340473 0.179722 0.000000
time 8
  0 0.192742 -0.192742 9.788915 0.425889 0.000000 0.000000
  1 0.000000 -6.750002 -3.510001 0.000000 0.000000 0.000000
  2 3.007735 -0.000004 -0.000002 0.456805 0.230854 -0.081016
  3 0.000000 0.000000 12.794512 1.661289 0.474661 0.219877
  4 0.000000 0.000000 14.050400 1.633020 1.426247 -2.334940
  5 0.000000 0.000000 6.031133 0.113066 0.523561 0.000000
  6 0.000000 0.000000 0.757964 -0.000001 0.000000 0.000000
  7 0.000000 0.000000 0.757950 -0.000002 0.000000 0.000000
  8 -3.007735 0.000004 0.000005 -0.495009 0.227998 -3.079392
  9 0.000000 0.000000 12.794530 -1.732393 0.529086 -0.250774
 10 0.000000 0.000000 13.961749 -1.886842 1.319254 -4.257309
 11 0.000000 0.000000 6.030940 -0.114774 0.523252 0.000000
 12 0.000000 0.000000 0.757934 -0.000000 -0.000000 -3.141592
 13 0.000000 0.000000 0.757953 -0.000000 -0.000000 -3.141592
 14 0.000001 1.047682 0.554789 -0.881034 0.005230 0.001894
 15 0.000000 0.000000 4.300853 0.313959 0.000476 0.000108
 16 0.000000 0.000000 3.909713 -0.061190 0.001047 -3.141641
 17 0.000000 0.000000 4.692176 0.114524 0.000608 -3.141592
 18 0.000000 0.000000 5.479362 -0.453766 0.000000 0.000000
 19 0.645092 -2.464382 2.019449 -0.067789 0.159939 0.000000
 20 3.518158 -2.206055 -1.728387 2.911160 1.048239 -3.141592
 21 0.000000 0.000000 4.558179 0.448339 0.844901 0.118629
 22 0.000000 0.000000 11.949879 -1.869618 0.000238 -3.145827
 23 0.000000 0.000000 4.822874 0.000000 0.000000 0.000000
 24 -1.376730 -0.804586 1.281520 -0.659309 1.255116 -3.141592
 25 0.000000 0.000000 1.416892 0.073536 0.071051 -3.141592
 26 0.000000 0.000000 1.920310 0.269862 0.568862 0.000000
 27 0.213890 -0.856740 4.255571 0.528081 0.318569 0.000000
 28 0.000000 0.000000 1.378407 -0.049177 0.309751 -3.141592
 29 0.000000 0.000000 3.006212 0.930783 0.778878 -3.141592
 30 -3.352225 -2.014409 -1.625205 -3.111551 1.200587 0.000000
 31 0.000000 0.000000 4.228487 -0.030722 1.031015 0.000000
 32 0.000000 0.000000 13.042765 2.075531 -0.008355 -2.980769
 33 0.000000 0.000000 7.153650 0.000000 0.000000 0.000000
 34 -1.945980 -0.135012 0.247196 -3.077445 1.523081 0.000000
 35 0.000000 0.000000 1.172377 -0.535111 0.583828 -3.141592
 36 0.000000 0.000000 1.923266 -0.123086 0.631228 0.000000
 37 0.111389 0.206554 2.803840 0.313340 0.079789 -3.141592
 38 0.000000 0.000000 2.609086 0.476630 0.064040 0.000000
 39 0.000000 0.000000 2.388648 0.340473 0.179722 0.000000
time 9
  0 0.192742 -0.192742 7.019299 0.139637 0.000000 0.000000
  1 0.000000 -6.750002 -3.510001 0.000000 0.000000 0.000000
  2 3.007735 -0.000004 -0.000002 0.456805 0.230854 -0.081016
  3 0.000000 0.000000 12.794512 1.661289 0.474661 0.219877
  4 0.000000 0.000000 14.050400 1.633020 1.426247 -2.334940
  5 0.000000 0.000000 6.031133 0.113066 0.523561 0.000000
  6 0.000000 0.000000 0.757964 -0.000001 0.000000 0.000000
  7 0.000000 0.000000 0.757950 -0.000002 0.000000 0.000000
  8 -3.007735 0.000004 0.000005 -0.495009 0.227998 -3.079392
  9 0.000000 0.000000 12.794530 -1.732393 0.529086 -0.250774
 10 0.000000 0.000000 13.961749 -1.886842 1.319254 -4.257309
 11 0.000000 0.000000 6.030940 -0.114774 0.523252 0.000000
 12 0.000000 0.000000 0.757934 -0.000000 -0.000000 -3.141592
 13 0.000000 0.000000 0.757953 -0.000000 -0.000000 -3.141592
 14 0.000001 1.047682 0.554789 -0.881034 0.005230 0.001894
 15 0.000000 0.000000 4.300853 0.313959 0.000476 0.000108
 16 0.000000 0.000000 3.909713 -0.061190 0.001047 -3.141641
 17 0.000000 0.000000 4.692176 0.114524 0.000608 -3.141592
 18 0.000000 0.000000 5.479362 -0.453766 0.000000 0.000000
 19 0.645092 -2.464382 2.019449 -0.067789 0.159939 0.000000
 20 3.518158 -2.206055 -1.728387 2.911160 1.048239 -3.141592
 21 0.000000 0.000000 4.558179 0.448339 0.844901 0.118629
 22 0.000000 0.000000 11.949879 -1.869618 0.000238 -3.145827
 23 0.000000 0.000000 4.822874 0.000000 0.000000 0.000000
 24 -1.376730 -0.804586 1.281520 -0.659309 1.255116 -3.141592
 25 0.000000 0.000000 1.416892 0.073536 0.071051 -3.141592
 26 0.000000 0.000000 1.920310 0.269862 0.568862 0.000000
 27 0.213890 -0.856740 4.255571 0.528081 0.318569 0.000000
 28 0.000000 0.000000 1.378407 -0.049177 0.309751 -3.141592
 29 0.000000 0.000000 3.006212 0.930783 0.778878 -3.141592
 30 -3.352225 -2.014409 -1.625205 -3.111551 1.200587 0.000000
 31 0.000000 0.000000 4.228487 -0.030722 1.031015 0.000000
 32 0.000000 0.000000 13.042765 2.075531 -0.008355 -2.980769
 33 0.000000 0.000000 7.153650 0.000000 0.000000 0.000000
 34 -1.945980 -0.135012 0.247196 -3.077445 1.523081 0.000000
 35 0.000000 0.000000 1.172377 -0.535111 0.583828 -3.141592
 36 0.000000 0.000000 1.923266 -0.123086 0.631228 0.000000
 37 0.111389 0.206554 2.803840 0.313340 0.079789 -3.141592
 38 0.000000 0.000000 2.609086 0.476630 0.064040 0.000000
 39 0.000000 0.000000 2.388648 0.340473 0.179722 0.000000
time 10
  0 0.192742 -0.192742 5.691133 0.115195 -0.016946 -0.002876
  1 0.000000 -6.750002 -3.510001 0.000000 0.000000 0.000000
  2 3.007735 -0.000004 -0.000002 0.587537 0.239232 -0.050527
  3 0.000000 0.000000 12.794512 1.490102 0.502177 0.139399
  4 0.000000 0.000000 14.050400 1.580023 1.433617 -2.387403
  5 0.000000 0.000000 6.031133 0.113066 0.523561 0.000000
  6 0.000000 0.000000 0.757964 -0.000001 0.000000 0.000000
  7 0.000000 0.000000 0.757950 -0.000002 0.000000 0.000000
  8 -3.007735 0.000004 0.000005 -0.600658 0.233163 -3.103553
  9 0.000000 0.000000 12.794530 -1.554502 0.560731 -0.158377
 10 0.000000 0.000000 13.961749 -1.843315 1.339422 -4.215124
 11 0.000000 0.000000 6.030940 -0.114774 0.523252 0.000000
 12 0.000000 0.000000 0.757934 -0.000000 -0.000000 -3.141592
 13 0.000000 0.000000 0.757953 -0.000000 -0.000000 -3.141592
 14 0.000001 1.047682 0.554789 -0.942119 0.005290 0.005117
 15 0.000000 0.000000 4.300853 0.275560 0.000476 0.000096
 16 0.000000 0.000000 3.909713 -0.052465 0.001047 -3.141629
 17 0.000000 0.000000 4.692176 0.109299 0.000608 -3.141592
 18 0.000000 0.000000 5.479362 -0.408400 0.000000 0.000000
 19 0.645092 -2.464382 2.019449 -0.067789 0.159939 0.000000
 20 3.518158 -2.206055 -1.728387 2.911160 1.048239 -3.141592
 21 0.000000 0.000000 4.558179 0.351039 0.850220 0.045747
 22 0.000000 0.000000 11.949879 -1.684586 0.001015 -3.145701
 23 0.000000 0.000000 4.822874 -0.061061 0.000000 0.000000
 24 -1.376730 -0.804586 1.281520 -0.659309 1.255116 -3.141592
 25 0.000000 0.000000 1.416892 0.073536 0.071051 -3.141592
 26 0.000000 0.000000 1.920310 0.269862 0.568862 0.000000
 27 0.213890 -0.856740 4.255571 0.528081 0.318569 0.000000
 28 0.000000 0.000000 1.378407 -0.049177 0.309751 -3.141592
 29 0.000000 0.000000 3.006212 0.930783 0.778878 -3.141592
 30 -3.352225 -2.014409 -1.625205 -3.111551 1.200587 0.000000
 31 0.000000 0.000000 4.228487 0.009963 1.030679 0.034862
 32 0.000000 0.000000 13.042765 1.880786 0.023153 -2.982211
 33 0.000000 0.000000 7.153650 0.055841 0.000000 0.000000
 34 -1.945980 -0.135012 0.247196 -3.077445 1.523081 0.000000
 35 0.000000 0.000000 1.172377 -0.535111 0.583828 -3.141592
 36 0.000000 0.000000 1.923266 -0.123086 0.631228 0.000000
 37 0.111389 0.206554 2.803840 0.313340 0.079789 -3.141592
 38 0.000000 0.000000 2.609086 0.476630 0.064040 0.000000
 39 0.000000 0.000000 2.388648 0.340473 0.179722 0.000000
time 11
  0 0.192742 -0.192742 4.800481 0.090803 -0.033964 -0.005321
  1 0.000000 -6.750002 -3.510001 0.000000 0.000000 0.000000
  2 3.007735 -0.000004 -0.000002 0.718688 0.243678 -0.019127
  3 0.000000 0.000000 12.794512 1.314933 0.517038 0.053769
  4 0.000000 0.000000 14.050400 1.521220 1.440568 -2.445715
  5 0.000000 0.000000 6.031133 0.113066 0.523561 0.000000
  6 0.000000 0.000000 0.757964 -0.000001 0.000000 0.000000
  7 0.000000 0.000000 0.757950 -0.000002 0.000000 0.000000
  8 -3.007735 0.000004 0.000005 -0.706475 0.235811 -3.128170
  9 0.000000 0.000000 12.794530 -1.371088 0.577669 -0.059342
 10 0.000000 0.000000 13.961749 -1.791831 1.359069 -4.164789
 11 0.000000 0.000000 6.030940 -0.114774 0.523252 0.000000
 12 0.000000 0.000000 0.757934 -0.000000 -0.000000 -3.141592
 13 0.000000 0.000000 0.757953 -0.000000 -0.000000 -3.141592
 14 0.000001 1.047682 0.554789 -1.003193 0.005554 0.008329
 15 0.000000 0.000000 4.300853 0.237162 0.000476 0.000072
 16 0.000000 0.000000 3.909713 -0.043740 0.001047 -3.141629
 17 0.000000 0.000000 4.692176 0.104061 0.000608 -3.141592
 18 0.000000 0.000000 5.479362 -0.363013 0.000000 0.000000
 19 0.645092 -2.464382 2.019449 -0.067789 0.159939 0.000000
 20 3.518158 -2.206055 -1.728387 2.911160 1.048239 -3.141592
 21 0.000000 0.000000 4.558179 0.253261 0.850789 -0.027839
 22 0.000000 0.000000 11.949879 -1.499601 0.001766 -3.145450
 23 0.000000 0.000000 4.822874 -0.122154 0.000000 0.000000
 24 -1.376730 -0.804586 1.281520 -0.659309 1.255116 -3.141592
 25 0.000000 0.000000 1.416892 0.073536 0.071051 -3.141592
 26 0.000000 0.000000 1.920310 0.269862 0.568862 0.000000
 27 0.213890 -0.856740 4.255571 0.528081 0.318569 0.000000
 28 0.000000 0.000000 1.378407 -0.049177 0.309751 -3.141592
 29 0.000000 0.000000 3.006212 0.930783 0.778878 -3.141592
 30 -3.352225 -2.014409 -1.625205 -3.111551 1.200587 0.000000
 31 0.000000 0.000000 4.228487 0.050647 1.029605 0.069724
 32 0.000000 0.000000 13.042765 1.685843 0.053844 -2.989771
 33 0.000000 0.000000 7.153650 0.111682 0.000000 0.000000
 34 -1.945980 -0.135012 0.247196 -3.077445 1.523081 0.000000
 35 0.000000 0.000000 1.172377 -0.535111 0.583828 -3.141592
 36 0.000000 0.000000 1.923266 -0.123086 0.631228 0.000000
 37 0.111389 0.206554 2.803840 0.313340 0.079789 -3.141592
 38 0.000000 0.000000 2.609086 0.476630 0.064040 0.000000
 39 0.000000 0.000000 2.388648 0.340473 0.179722 0.000000
time 12
  0 0.192742 -0.192742 4.277028 0.066412 -0.051042 -0.007383
  1 0.000000 -6.750002 -3.510001 0.000000 0.000000 0.000000
  2 3.007735 -0.000004 -0.000002 0.849952 0.244097 0.012608
  3 0.000000 0.000000 12.794512 1.138171 0.518572 -0.033905
  4 0.000000 0.000000 14.050400 1.456049 1.447016 -2.510349
  5 0.000000 0.000000 6.031133 0.113066 0.523561 0.000000
  6 0.000000 0.000000 0.757964 -0.000001 0.000000 0.000000
  7 0.000000 0.000000 0.757950 -0.000002 0.000000 0.000000
  8 -3.007735 0.000004 0.000005 -0.812334 0.235919 -3.152918
  9 0.000000 0.000000 12.794530 -1.185563 0.578998 0.042279
 10 0.000000 0.000000 13.961749 -1.730088 1.378083 -4.104386
 11 0.000000 0.000000 6.030940 -0.114774 0.523252 0.000000
 12 0.000000 0.000000 0.757934 -0.000000 -0.000000 -3.141592
 13 0.000000 0.000000 0.757953 -0.000000 -0.000000 -3.141592
 14 0.000001 1.047682 0.554789 -1.064278 0.005997 0.011517
 15 0.000000 0.000000 4.300853 0.198763 0.000476 0.000060
 16 0.000000 0.000000 3.909713 -0.035015 0.001047 -3.141617
 17 0.000000 0.000000 4.692176 0.098824 0.000608 -3.141592
 18 0.000000 0.000000 5.479362 -0.317647 0.000000 0.000000
 19 0.645092 -2.464382 2.019449 -0.067789 0.159939 0.000000
 20 3.518158 -2.206055 -1.728387 2.911160 1.048239 -3.141592
 21 0.000000 0.000000 4.558179 0.155673 0.846628 -0.101034
 22 0.000000 0.000000 11.949879 -1.314569 0.002440 -3.145074
 23 0.000000 0.000000 4.822874 -0.183246 0.000000 0.000000
 24 -1.376730 -0.804586 1.281520 -0.659309 1.255116 -3.141592
 25 0.000000 0.000000 1.416892 0.073536 0.071051 -3.141592
 26 0.000000 0.000000 1.920310 0.269862 0.568862 0.000000
 27 0.213890 -0.856740 4.255571 0.528081 0.318569 0.000000
 28 0.000000 0.000000 1.378407 -0.049177 0.309751 -3.141592
 29 0.000000 0.000000 3.006212 0.930783 0.778878 -3.141592
 30 -3.352225 -2.014409 -1.625205 -3.111551 1.200587 0.000000
 31 0.000000 0.000000 4.228487 0.091075 1.027792 0.104406
 32 0.000000 0.000000 13.042765 1.490256 0.082472 -3.003101
 33 0.000000 0.000000 7.153650 0.167523 0.000000 0.000000
 34 -1.945980 -0.135012 0.247196 -3.077445 1.523081 0.000000
 35 0.000000 0.000000 1.172377 -0.535111 0.583828 -3.141592
 36 0.000000 0.000000 1.923266 -0.123086 0.631228 0.000000
 37 0.111389 0.206554 2.803840 0.313340 0.079789 -3.141592
 38 0.000000 0.000000 2.609086 0.476630 0.064040 0.000000
 39 0.000000 0.000000 2.388648 0.340473 0.179722 0.000000
time 13
  0 0.192742 -0.192742 4.046552 0.042072 -0.068156 -0.009012
  1 0.000000 -6.750002 -3.510001 0.000000 0.000000 0.000000
  2 3.007735 -0.000004 -0.000002 0.981140 0.240478 0.044127
  3 0.000000 0.000000 12.794512 0.962386 0.506708 -0.120279
  4 0.000000 0.000000 14.050400 1.384138 1.452900 -2.581682
  5 0.000000 0.000000 6.031133 0.113066 0.523561 0.000000
  6 0.000000 0.000000 0.757964 -0.000001 0.000000 0.000000
  7 0.000000 0.000000 0.757950 -0.000002 0.000000 0.000000
  8 -3.007735 0.000004 0.000005 -0.918193 0.233486 -3.177558
  9 0.000000 0.000000 12.794530 -1.001556 0.564655 0.142045
 10 0.000000 0.000000 13.961749 -1.655402 1.396242 -4.030945
 11 0.000000 0.000000 6.030940 -0.114774 0.523252 0.000000
 12 0.000000 0.000000 0.757934 -0.000000 -0.000000 -3.141592
 13 0.000000 0.000000 0.757953 -0.000000 -0.000000 -3.141592
 14 0.000001 1.047682 0.554789 -1.125352 0.006645 0.014681
 15 0.000000 0.000000 4.300853 0.160364 0.000476 0.000036
 16 0.000000 0.000000 3.909713 -0.026291 0.001047 -3.141604
 17 0.000000 0.000000 4.692176 0.093587 0.000608 -3.141592
 18 0.000000 0.000000 5.479362 -0.272260 0.000000 0.000000
 19 0.645092 -2.464382 2.019449 -0.067789 0.159939 0.000000
 20 3.518158 -2.206055 -1.728387 2.911160 1.048239 -3.141592
 21 0.000000 0.000000 4.558179 0.059618 0.837795 -0.172744
 22 0.000000 0.000000 11.949879 -1.129584 0.003035 -3.144572
 23 0.000000 0.000000 4.822874 -0.244339 0.000000 0.000000
 24 -1.376730 -0.804586 1.281520 -0.659309 1.255116 -3.141592
 25 0.000000 0.000000 1.416892 0.073536 0.071051 -3.141592
 26 0.000000 0.000000 1.920310 0.269862 0.568862 0.000000
 27 0.213890 -0.856740 4.255571 0.528081 0.318569 0.000000
 28 0.000000 0.000000 1.378407 -0.049177 0.309751 -3.141592
 29 0.000000 0.000000 3.006212 0.930783 0.778878 -3.141592
 30 -3.352225 -2.014409 -1.625205 -3.111551 1.200587 0.000000
 31 0.000000 0.000000 4.228487 0.131182 1.025241 0.138728
 32 0.000000 0.000000 13.042765 1.293778 0.107961 -3.021855
 33 0.000000 0.000000 7.153650 0.223395 0.000000 0.000000
 34 -1.945980 -0.135012 0.247196 -3.077445 1.523081 0.000000
 35 0.000000 0.000000 1.172377 -0.535111 0.583828 -3.141592
 36 0.000000 0.000000 1.923266 -0.123086 0.631228 0.000000
 37 0.111389 0.206554 2.803840 0.313340 0.079789 -3.141592
 38 0.000000 0.000000 2.609086 0.476630 0.064040 0.000000
 39 0.000000 0.000000 2.388648 0.340473 0.179722 0.000000
time 14
  0 0.192742 -0.192742 4.030926 0.017681 -0.085318 -0.010211
  1 0.000000 -6.750002 -3.510001 0.000000 0.000000 0.000000
  2 3.007735 -0.000004 -0.000002 1.111987 0.232892 0.074844
  3 0.000000 0.000000 12.794512 0.790113 0.481971 -0.202173
  4 0.000000 0.000000 14.050400 1.305109 1.458114 -2.660187
  5 0.000000 0.000000 6.031133 0.113066 0.523561 0.000000
  6 0.000000 0.000000 0.757964 -0.000001 0.000000 0.000000
  7 0.000000 0.000000 0.757950 -0.000002 0.000000 0.000000
  8 -3.007735 0.000004 0.000005 -1.023843 0.228525 -3.201779
  9 0.000000 0.000000 12.794530 -0.822553 0.535389 0.235827
 10 0.000000 0.000000 13.961749 -1.564227 1.413210 -3.941012
 11 0.000000 0.000000 6.030940 -0.114774 0.523252 0.000000
 12 0.000000 0.000000 0.757934 -0.000000 -0.000000 -3.141592
 13 0.000000 0.000000 0.757953 -0.000000 -0.000000 -3.141592
 14 0.000001 1.047682 0.554789 -1.186425 0.007472 0.017785
 15 0.000000 0.000000 4.300853 0.121966 0.000476 0.000024
 16 0.000000 0.000000 3.909713 -0.017566 0.001047 -3.141592
 17 0.000000 0.000000 4.692176 0.088350 0.000608 -3.141606
 18 0.000000 0.000000 5.479362 -0.226873 0.000000 0.000000
 19 0.645092 -2.464382 2.019449 -0.067789 0.159939 0.000000
 20 3.518158 -2.206055 -1.728387 2.911160 1.048239 -3.141592
 21 0.000000 0.000000 4.558179 -0.034138 0.824488 -0.242029
 22 0.000000 0.000000 11.949879 -0.944552 0.003528 -3.143945
 23 0.000000 0.000000 4.822874 -0.305432 0.000000 0.000000
 24 -1.376730 -0.804586 1.281520 -0.659309 1.255116 -3.141592
 25 0.000000 0.000000 1.416892 0.073536 0.071051 -3.141592
 26 0.000000 0.000000 1.920310 0.269862 0.568862 0.000000
 27 0.213890 -0.856740 4.255571 0.528081 0.318569 0.000000
 28 0.000000 0.000000 1.378407 -0.049177 0.309751 -3.141592
 29 0.000000 0.000000 3.006212 0.930783 0.778878 -3.141592
 30 -3.352225 -2.014409 -1.625205 -3.111551 1.200587 0.000000
 31 0.000000 0.000000 4.228487 0.170969 1.021951 0.172692
 32 0.000000 0.000000 13.042765 1.096309 0.129282 -3.045283
 33 0.000000 0.000000 7.153650 0.279236 0.000000 0.000000
 34 -1.945980 -0.135012 0.247196 -3.077445 1.523081 0.000000
 35 0.000000 0.000000 1.172377 -0.535111 0.583828 -3.141592
 36 0.000000 0.000000 1.923266 -0.123086 0.631228 0.000000
 37 0.111389 0.206554 2.803840 0.313340 0.079789 -3.141592
 38 0.000000 0.000000 2.609086 0.476630 0.064040 0.000000
 39 0.000000 0.000000 2.388648 0.340473 0.179722 0.000000
time 15
  0 0.192742 -0.192742 4.163743 -0.006711 -0.102492 -0.010978
  1 0.000000 -6.750002 -3.510001 0.000000 0.000000 0.000000
  2 3.007735 -0.000004 -0.000002 1.242225 0.221482 0.104230
  3 0.000000 0.000000 12.794512 0.623269 0.445442 -0.276944
  4 0.000000 0.000000 14.050400 1.219152 1.462560 -2.745673
  5 0.000000 0.000000 6.031133 0.113066 0.523561 0.000000
  6 0.000000 0.000000 0.757964 -0.000001 0.000000 0.000000
  7 0.000000 0.000000 0.757950 -0.000002 0.000000 0.000000
  8 -3.007735 0.000004 0.000005 -1.129242 0.221118 -3.225281
  9 0.000000 0.000000 12.794530 -0.650963 0.492616 0.320359
 10 0.000000 0.000000 13.961749 -1.452438 1.428615 -3.830467
 11 0.000000 0.000000 6.030940 -0.114774 0.523252 0.000000
 12 0.000000 0.000000 0.757934 -0.000000 -0.000000 -3.141592
 13 0.000000 0.000000 0.757953 -0.000000 -0.000000 -3.141592
 14 0.000001 1.047682 0.554789 -1.247487 0.008502 0.020841
 15 0.000000 0.000000 4.300853 0.083579 0.000476 0.000000
 16 0.000000 0.000000 3.909713 -0.008841 0.001047 -3.141592
 17 0.000000 0.000000 4.692176 0.083112 0.000608 -3.141606
 18 0.000000 0.000000 5.479362 -0.181507 0.000000 0.000000
 19 0.645092 -2.464382 2.019449 -0.067789 0.159939 0.000000
 20 3.518158 -2.206055 -1.728387 2.911160 1.048239 -3.141592
 21 0.000000 0.000000 4.558179 -0.124830 0.806940 -0.308108
 22 0.000000 0.000000 11.949879 -0.759567 0.003916 -3.143255
 23 0.000000 0.000000 4.822874 -0.366493 0.000000 0.000000
 24 -1.376730 -0.804586 1.281520 -0.659309 1.255116 -3.141592
 25 0.000000 0.000000 1.416892 0.073536 0.071051 -3.141592
 26 0.000000 0.000000 1.920310 0.269862 0.568862 0.000000
 27 0.213890 -0.856740 4.255571 0.528081 0.318569 0.000000
 28 0.000000 0.000000 1.378407 -0.049177 0.309751 -3.141592
 29 0.000000 0.000000 3.006212 0.930783 0.778878 -3.141592
 30 -3.352225 -2.014409 -1.625205 -3.111551 1.200587 0.000000
 31 0.000000 0.000000 4.228487 0.210242 1.018057 0.206206
 32 0.000000 0.000000 13.042765 0.897900 0.145616 -3.072577
 33 0.000000 0.000000 7.153650 0.335077 0.000000 0.000000
 34 -1.945980 -0.135012 0.247196 -3.077445 1.523081 0.000000
 35 0.000000 0.000000 1.172377 -0.535111 0.583828 -3.141592
 36 0.000000 0.000000 1.923266 -0.123086 0.631228 0.000000
 37 0.111389 0.206554 2.803840 0.313340 0.079789 -3.141592
 38 0.000000 0.000000 2.609086 0.476630 0.064040 0.000000
 39 0.000000 0.000000 2.388648 0.340473 0.179722 0.000000
time 16
  0 0.192742 -0.192743 4.370780 -0.031153 -0.119678 -0.011361
  1 0.000000 -6.750002 -3.510001 0.000000 0.000000 0.000000
  2 3.007735 -0.000004 -0.000002 1.371703 0.206454 0.131759
  3 0.000000 0.000000 12.794512 0.462942 0.398499 -0.342754
  4 0.000000 0.000000 14.050400 1.126453 1.466155 -2.837765
  5 0.000000 0.000000 6.031133 0.113066 0.523561 0.000000
  6 0.000000 0.000000 0.757964 -0.000001 0.000000 0.000000
  7 0.000000 0.000000 0.757950 -0.000002 0.000000 0.000000
  8 -3.007735 0.000004 0.000005 -1.234180 0.211351 -3.247824
  9 0.000000 0.000000 12.794530 -0.488081 0.438201 0.393603
 10 0.000000 0.000000 13.961749 -1.315817 1.441862 -3.695089
 11 0.000000 0.000000 6.030940 -0.114774 0.523252 0.000000
 12 0.000000 0.000000 0.757934 -0.000000 -0.000000 -3.141592
 13 0.000000 0.000000 0.757953 -0.000000 -0.000000 -3.141592
 14 0.000001 1.047682 0.554789 -1.308560 0.009713 0.023837
 15 0.000000 0.000000 4.300853 0.045192 0.000476 -0.000012
 16 0.000000 0.000000 3.909713 -0.000116 0.001047 -3.141592
 17 0.000000 0.000000 4.692176 0.077875 0.000608 -3.141606
 18 0.000000 0.000000 5.479362 -0.136120 0.000000 0.000000
 19 0.645092 -2.464382 2.019449 -0.067789 0.159939 0.000000
 20 3.518158 -2.206055 -1.728387 2.911160 1.048239 -3.141592
 21 0.000000 0.000000 4.558179 -0.211979 0.785428 -0.370355
 22 0.000000 0.000000 11.949879 -0.574581 0.004149 -3.142533
 23 0.000000 0.000000 4.822874 -0.427586 0.000000 0.000000
 24 -1.376730 -0.804586 1.281520 -0.659309 1.255116 -3.141592
 25 0.000000 0.000000 1.416892 0.073536 0.071051 -3.141592
 26 0.000000 0.000000 1.920310 0.269862 0.568862 0.000000
 27 0.213890 -0.856740 4.255571 0.528081 0.318569 0.000000
 28 0.000000 0.000000 1.378407 -0.049177 0.309751 -3.141592
 29 0.000000 0.000000 3.006212 0.930783 0.778878 -3.141592
 30 -3.352225 -2.014409 -1.625205 -3.111551 1.200587 0.000000
 31 0.000000 0.000000 4.228487 0.249001 1.013425 0.239091
 32 0.000000 0.000000 13.042765 0.698698 0.156319 -3.102642
 33 0.000000 0.000000 7.153650 0.390949 0.000000 0.000000
 34 -1.945980 -0.135012 0.247196 -3.077445 1.523081 0.000000
 35 0.000000 0.000000 1.172377 -0.535111 0.583828 -3.141592
 36 0.000000 0.000000 1.923266 -0.123086 0.631228 0.000000
 37 0.111389 0.206554 2.803840 0.313340 0.079789 -3.141592
 38 0.000000 0.000000 2.609086 0.476630 0.064040 0.000000
 39 0.000000 0.000000 2.388648 0.340473 0.179722 0.000000
time 17
  0 0.192743 -0.192743 4.573912 -0.055595 -0.136876 -0.011313
  1 0.000000 -6.750002 -3.510001 0.000000 0.000000 0.000000
  2 3.007735 -0.000004 -0.000002 1.500307 0.188105 0.156986
  3 0.000000 0.000000 12.794512 0.309348 0.342746 -0.398508
  4 0.000000 0.000000 14.050400 1.028229 1.468804 -2.935518
  5 0.000000 0.000000 6.031133 0.113066 0.523561 0.000000
  6 0.000000 0.000000 0.757964 -0.000001 0.000000 0.000000
  7 0.000000 0.000000 0.757950 -0.000002 0.000000 0.000000
  8 -3.007735 0.000004 0.000005 -1.338659 0.199330 -3.269144
  9 0.000000 0.000000 12.794530 -0.333983 0.374138 0.454617
 10 0.000000 0.000000 13.961749 -1.151969 1.452206 -3.532482
 11 0.000000 0.000000 6.030940 -0.114774 0.523252 0.000000
 12 0.000000 0.000000 0.757934 -0.000000 -0.000000 -3.141592
 13 0.000000 0.000000 0.757953 -0.000000 -0.000000 -3.141592
 14 0.000001 1.047682 0.554789 -1.369634 0.011103 0.026738
 15 0.000000 0.000000 4.300853 0.006794 0.000476 -0.000024
 16 0.000000 0.000000 3.909713 0.008609 0.001047 -3.141580
 17 0.000000 0.000000 4.692176 0.072638 0.000608 -3.141606
 18 0.000000 0.000000 5.479362 -0.090753 0.000000 0.000000
 19 0.645092 -2.464382 2.019449 -0.067789 0.159939 0.000000
 20 3.518158 -2.206055 -1.728387 2.911160 1.048239 -3.141592
 21 0.000000 0.000000 4.558179 -0.295105 0.760284 -0.428457
 22 0.000000 0.000000 11.949879 -0.389550 0.004253 -3.141749
 23 0.000000 0.000000 4.822874 -0.488678 0.000000 0.000000
 24 -1.376730 -0.804586 1.281520 -0.659309 1.255116 -3.141592
 25 0.000000 0.000000 1.416892 0.073536 0.071051 -3.141592
 26 0.000000 0.000000 1.920310 0.269862 0.568862 0.000000
 27 0.213890 -0.856740 4.255571 0.528081 0.318569 0.000000
 28 0.000000 0.000000 1.378407 -0.049177 0.309751 -3.141592
 29 0.000000 0.000000 3.006212 0.930783 0.778878 -3.141592
 30 -3.352225 -2.014409 -1.625205 -3.111551 1.200587 0.000000
 31 0.000000 0.000000 4.228487 0.287183 1.008121 0.271437
 32 0.000000 0.000000 13.042765 0.499002 0.160918 -3.134264
 33 0.000000 0.000000 7.153650 0.446790 0.000000 0.000000
 34 -1.945980 -0.135012 0.247196 -3.077445 1.523081 0.000000
 35 0.000000 0.000000 1.172377 -0.535111 0.583828 -3.141592
 36 0.000000 0.000000 1.923266 -0.123086 0.631228 0.000000
 37 0.111389 0.206554 2.803840 0.313340 0.079789 -3.141592
 38 0.000000 0.000000 2.609086 0.476630 0.064040 0.000000
 39 0.000000 0.000000 2.388648 0.340473 0.179722 0.000000
time 18
  0 0.192743 -0.192743 4.702822 -0.080140 -0.154062 -0.010834
  1 0.000000 -6.750002 -3.510001 0.000000 0.000000 0.000000
  2 3.007735 -0.000004 -0.000002 1.627923 0.166737 0.179541
  3 0.000000 0.000000 12.794512 0.162088 0.279851 -0.443695
  4 0.000000 0.000000 14.050400 0.925792 1.470422 -3.037517
  5 0.000000 0.000000 6.031133 0.113066 0.523561 0.000000
  6 0.000000 0.000000 0.757964 -0.000001 0.000000 0.000000
  7 0.000000 0.000000 0.757950 -0.000002 0.000000 0.000000
  8 -3.007735 0.000004 0.000005 -1.442552 0.185201 -3.289015
  9 0.000000 0.000000 12.794530 -0.187852 0.302421 0.503220
 10 0.000000 0.000000 13.961749 -0.963098 1.458867 -3.344851
 11 0.000000 0.000000 6.030940 -0.114774 0.523252 0.000000
 12 0.000000 0.000000 0.757934 -0.000000 -0.000000 -3.141592
 13 0.000000 0.000000 0.757953 -0.000000 -0.000000 -3.141592
 14 0.000001 1.047682 0.554789 -1.430695 0.012673 0.029554
 15 0.000000 0.000000 4.300853 -0.031605 0.000476 -0.000048
 16 0.000000 0.000000 3.909713 0.017333 0.001047 -3.141568
 17 0.000000 0.000000 4.692176 0.067401 0.000608 -3.141619
 18 0.000000 0.000000 5.479362 -0.045366 0.000000 0.000000
 19 0.645092 -2.464382 2.019449 -0.067789 0.159939 0.000000
 20 3.518158 -2.206055 -1.728387 2.911160 1.048239 -3.141592
 21 0.000000 0.000000 4.558179 -0.374018 0.731882 -0.482024
 22 0.000000 0.000000 11.949879 -0.204611 0.004227 -3.140996
 23 0.000000 0.000000 4.822874 -0.549771 0.000000 0.000000
 24 -1.376730 -0.804586 1.281520 -0.659309 1.255116 -3.141592
 25 0.000000 0.000000 1.416892 0.073536 0.071051 -3.141592
 26 0.000000 0.000000 1.920310 0.269862 0.568862 0.000000
 27 0.213890 -0.856740 4.255571 0.528081 0.318569 0.000000
 28 0.000000 0.000000 1.378407 -0.049177 0.309751 -3.141592
 29 0.000000 0.000000 3.006212 0.930783 0.778878 -3.141592
 30 -3.352225 -2.014409 -1.625205 -3.111551 1.200587 0.000000
 31 0.000000 0.000000 4.228487 0.324659 1.002145 0.303064
 32 0.000000 0.000000 13.042765 0.299255 0.159199 -3.166117
 33 0.000000 0.000000 7.153650 0.502631 0.000000 0.000000
 34 -1.945980 -0.135012 0.247196 -3.077445 1.523081 0.000000
 35 0.000000 0.000000 1.172377 -0.535111 0.583828 -3.141592
 36 0.000000 0.000000 1.923266 -0.123086 0.631228 0.000000
 37 0.111389 0.206554 2.803840 0.313340 0.079789 -3.141592
 38 0.000000 0.000000 2.609086 0.476630 0.064040 0.000000
 39 0.000000 0.000000 2.388648 0.340473 0.179722 0.000000
time 19
  0 0.192743 -0.192743 4.683290 -0.104787 -0.171236 -0.009923
  1 0.000000 -6.750002 -3.510001 0.000000 0.000000 0.000000
  2 3.007735 -0.000004 -0.000002 1.754551 0.142720 0.199088
  3 0.000000 0.000000 12.794512 0.020295 0.211407 -0.478256
  4 0.000000 0.000000 14.050400 0.821108 1.470961 -3.141592
  5 0.000000 0.000000 6.031133 0.113066 0.523561 0.000000
  6 0.000000 0.000000 0.757964 -0.000001 0.000000 0.000000
  7 0.000000 0.000000 0.757950 -0.000002 0.000000 0.000000
  8 -3.007735 0.000004 0.000005 -1.545902 0.169129 -3.307243
  9 0.000000 0.000000 12.794530 -0.048356 0.224915 0.539646
 10 0.000000 0.000000 13.961749 -0.758599 1.461174 -3.141592
 11 0.000000 0.000000 6.030940 -0.114774 0.523252 0.000000
 12 0.000000 0.000000 0.757934 -0.000000 -0.000000 -3.141592
 13 0.000000 0.000000 0.757953 -0.000000 -0.000000 -3.141592
 14 0.000001 1.047682 0.554789 -1.491757 0.014399 0.032275
 15 0.000000 0.000000 4.300853 -0.070003 0.000476 -0.000060
 16 0.000000 0.000000 3.909713 0.026058 0.001047 -3.141568
 17 0.000000 0.000000 4.692176 0.062175 0.000608 -3.141619
 18 0.000000 0.000000 5.479362 0.000000 0.000000 0.000000
 19 0.645092 -2.464382 2.019449 -0.067789 0.159939 0.000000
 20 3.518158 -2.206055 -1.728387 2.911160 1.048239 -3.141592
 21 0.000000 0.000000 4.558179 -0.448908 0.700517 -0.531212
 22 0.000000 0.000000 11.949879 -0.019579 0.004046 -3.140212
 23 0.000000 0.000000 4.822874 -0.610864 0.000000 0.000000
 24 -1.376730 -0.804586 1.281520 -0.659309 1.255116 -3.141592
 25 0.000000 0.000000 1.416892 0.073536 0.071051 -3.141592
 26 0.000000 0.000000 1.920310 0.269862 0.568862 0.000000
 27 0.213890 -0.856740 4.255571 0.528081 0.318569 0.000000
 28 0.000000 0.000000 1.378407 -0.049177 0.309751 -3.141592
 29 0.000000 0.000000 3.006212 0.930783 0.778878 -3.141592
 30 -3.352225 -2.014409 -1.625205 -3.111551 1.200587 0.000000
 31 0.000000 0.000000 4.228487 0.361430 0.995633 0.333972
 32 0.000000 0.000000 13.042765 0.099806 0.151290 -3.197047
 33 0.000000 0.000000 7.153650 0.558502 0.000000 0.000000
 34 -1.945980 -0.135012 0.247196 -3.077445 1.523081 0.000000
 35 0.000000 0.000000 1.172377 -0.535111 0.583828 -3.141592
 36 0.000000 0.000000 1.923266 -0.123086 0.631228 0.000000
 37 0.111389 0.206554 2.803840 0.313340 0.079789 -3.141592
 38 0.000000 0.000000 2.609086 0.476630 0.064040 0.000000
 39 0.000000 0.000000 2.388648 0.340473 0.179722 0.000000
time 20
  0 0.192743 -0.192743 4.589537 -0.104787 -0.171236 -0.009923
  1 0.000000 -6.750002 -3.510001 0.000000 0.000000 0.000000
  2 3.007735 -0.000004 -0.000002 1.754551 0.142720 0.199088
  3 0.000000 0.000000 12.794512 0.020295 0.211407 -0.478256
  4 0.000000 0.000000 14.050400 0.821108 1.470961 -3.141592
  5 0.000000 0.000000 6.031133 0.113066 0.523561 0.000000
  6 0.000000 0.000000 0.757964 -0.000001 0.000000 0.000000
  7 0.000000 0.000000 0.757950 -0.000002 0.000000 0.000000
  8 -3.007735 0.000004 0.000005 -1.545902 0.169129 -3.307243
  9 0.000000 0.000000 12.794530 -0.048356 0.224915 0.539646
 10 0.000000 0.000000 13.961749 -0.758599 1.461174 -3.141592
 11 0.000000 0.000000 6.030940 -0.114774 0.523252 0.000000
 12 0.000000 0.000000 0.757934 -0.000000 -0.000000 -3.141592
 13 0.000000 0.000000 0.757953 -0.000000 -0.000000 -3.141592
 14 0.000001 1.047682 0.554789 -1.491757 0.014399 0.032275
 15 0.000000 0.000000 4.300853 -0.070003 0.000476 -0.000060
 16 0.000000 0.000000 3.909713 0.026058 0.001047 -3.141568
 17 0.000000 0.000000 4.692176 0.062175 0.000608 -3.141619
 18 0.000000 0.000000 5.479362 0.000000 0.000000 0.000000
 19 0.645092 -2.464382 2.019449 -0.067789 0.159939 0.000000
 20 3.518158 -2.206055 -1.728387 2.911160 1.048239 -3.141592
 21 0.000000 0.000000 4.558179 -0.448908 0.700517 -0.531212
 22 0.000000 0.000000 11.949879 -0.019579 0.004046 -3.140212
 23 0.000000 0.000000 4.822874 -0.610864 0.000000 0.000000
 24 -1.376730 -0.804586 1.281520 -0.659309 1.255116 -3.141592
 25 0.000000 0.000000 1.416892 0.073536 0.071051 -3.141592
 26 0.000000 0.000000 1.920310 0.269862 0.568862 0.000000
 27 0.213890 -0.856740 4.255571 0.528081 0.318569 0.000000
 28 0.000000 0.000000 1.378407 -0.049177 0.309751 -3.141592
 29 0.000000 0.000000 3.006212 0.930783 0.778878 -3.141592
 30 -3.352225 -2.014409 -1.625205 -3.111551 1.200587 0.000000
 31 0.000000 0.000000 4.228487 0.361430 0.995633 0.333972
 32 0.000000 0.000000 13.042765 0.099806 0.151290 -3.197047
 33 0.000000 0.000000 7.153650 0.558502 0.000000 0.000000
 34 -1.945980 -0.135012 0.247196 -3.077445 1.523081 0.000000
 35 0.000000 0.000000 1.172377 -0.535111 0.583828 -3.141592
 36 0.000000 0.000000 1.923266 -0.123086 0.631228 0.000000
 37 0.111389 0.206554 2.803840 0.313340 0.079789 -3.141592
 38 0.000000 0.000000 2.609086 0.476630 0.064040 0.000000
 39 0.000000 0.000000 2.388648 0.340473 0.179722 0.000000
time 21
  0 0.192743 -0.192743 4.534848 -0.104787 -0.171236 -0.009923
  1 0.000000 -6.750002 -3.510001 0.000000 0.000000 0.000000
  2 3.007735 -0.000004 -0.000002 1.754551 0.142720 0.199088
  3 0.000000 0.000000 12.794512 0.020295 0.211407 -0.478256
  4 0.000000 0.000000 14.050400 0.821108 1.470961 -3.141592
  5 0.000000 0.000000 6.031133 0.113066 0.523561 0.000000
  6 0.000000 0.000000 0.757964 -0.000001 0.000000 0.000000
  7 0.000000 0.000000 0.757950 -0.000002 0.000000 0.000000
  8 -3.007735 0.000004 0.000005 -1.545902 0.169129 -3.307243
  9 0.000000 0.000000 12.794530 -0.048356 0.224915 0.539646
 10 0.000000 0.000000 13.961749 -0.758599 1.461174 -3.141592
 11 0.000000 0.000000 6.030940 -0.114774 0.523252 0.000000
 12 0.000000 0.000000 0.757934 -0.000000 -0.000000 -3.141592
 13 0.000000 0.000000 0.757953 -0.000000 -0.000000 -3.141592
 14 0.000001 1.047682 0.554789 -1.491757 0.014399 0.032275
 15 0.000000 0.000000 4.300853 -0.070003 0.000476 -0.000060
 16 0.000000 0.000000 3.909713 0.026058 0.001047 -3.141568
 17 0.000000 0.000000 4.692176 0.062175 0.000608 -3.141619
 18 0.000000 0.000000 5.479362 0.000000 0.000000 0.000000
 19 0.645092 -2.464382 2.019449 -0.067789 0.159939 0.000000
 20 3.518158 -2.206055 -1.728387 2.911160 1.048239 -3.141592
 21 0.000000 0.000000 4.558179 -0.448908 0.700517 -0.531212
 22 0.000000 0.000000 11.949879 -0.019579 0.004046 -3.140212
 23 0.000000 0.000000 4.822874 -0.610864 0.000000 0.000000
 24 -1.376730 -0.804586 1.281520 -0.659309 1.255116 -3.141592
 25 0.000000 0.000000 1.416892 0.073536 0.071051 -3.141592
 26 0.000000 0.000000 1.920310 0.269862 0.568862 0.000000
 27 0.213890 -0.856740 4.255571 0.528081 0.318569 0.000000
 28 0.000000 0.000000 1.378407 -0.049177 0.309751 -3.141592
 29 0.000000 0.000000 3.006212 0.930783 0.778878 -3.141592
 30 -3.352225 -2.014409 -1.625205 -3.111551 1.200587 0.000000
 31 0.000000 0.000000 4.228487 0.361430 0.995633 0.333972
 32 0.000000 0.000000 13.042765 0.099806 0.151290 -3.197047
 33 0.000000 0.000000 7.153650 0.558502 0.000000 0.000000
 34 -1.945980 -0.135012 0.247196 -3.077445 1.523081 0.000000
 35 0.000000 0.000000 1.172377 -0.535111 0.583828 -3.141592
 36 0.000000 0.000000 1.923266 -0.123086 0.631228 0.000000
 37 0.111389 0.206554 2.803840 0.313340 0.079789 -3.141592
 38 0.000000 0.000000 2.609086 0.476630 0.064040 0.000000
 39 0.000000 0.000000 2.388648 0.340473 0.179722 0.000000
time 22
  0 0.192743 -0.192743 4.511410 -0.104787 -0.171236 -0.009923
  1 0.000000 -6.750002 -3.510001 0.000000 0.000000 0.000000
  2 3.007735 -0.000004 -0.000002 1.754551 0.142720 0.199088
  3 0.000000 0.000000 12.794512 0.020295 0.211407 -0.478256
  4 0.000000 0.000000 14.050400 0.821108 1.470961 -3.141592
  5 0.000000 0.000000 6.031133 0.113066 0.523561 0.000000
  6 0.000000 0.000000 0.757964 -0.000001 0.000000 0.000000
  7 0.000000 0.000000 0.757950 -0.000002 0.000000 0.000000
  8 -3.007735 0.000004 0.000005 -1.545902 0.169129 -3.307243
  9 0.000000 0.000000 12.794530 -0.048356 0.224915 0.539646
 10 0.000000 0.000000 13.961749 -0.758599 1.461174 -3.141592
 11 0.000000 0.000000 6.030940 -0.114774 0.523252 0.000000
 12 0.000000 0.000000 0.757934 -0.000000 -0.000000 -3.141592
 13 0.000000 0.000000 0.757953 -0.000000 -0.000000 -3.141592
 14 0.000001 1.047682 0.554789 -1.491757 0.014399 0.032275
 15 0.000000 0.000000 4.300853 -0.070003 0.000476 -0.000060
 16 0.000000 0.000000 3.909713 0.026058 0.001047 -3.141568
 17 0.000000 0.000000 4.692176 0.062175 0.000608 -3.141619
 18 0.000000 0.000000 5.479362 0.000000 0.000000 0.000000
 19 0.645092 -2.464382 2.019449 -0.067789 0.159939 0.000000
 20 3.518158 -2.206055 -1.728387 2.911160 1.048239 -3.141592
 21 0.000000 0.000000 4.558179 -0.448908 0.700517 -0.531212
 22 0.000000 0.000000 11.949879 -0.019579 0.004046 -3.140212
 23 0.000000 0.000000 4.822874 -0.610864 0.000000 0.000000
 24 -1.376730 -0.804586 1.281520 -0.659309 1.255116 -3.141592
 25 0.000000 0.000000 1.416892 0.073536 0.071051 -3.141592
 26 0.000000 0.000000 1.920310 0.269862 0.568862 0.000000
 27 0.213890 -0.856740 4.255571 0.528081 0.318569 0.000000
 28 0.000000 0.000000 1.378407 -0.049177 0.309751 -3.141592
 29 0.000000 0.000000 3.006212 0.930783 0.778878 -3.141592
 30 -3.352225 -2.014409 -1.625205 -3.111551 1.200587 0.000000
 31 0.000000 0.000000 4.228487 0.361430 0.995633 0.333972
 32 0.000000 0.000000 13.042765 0.099806 0.151290 -3.197047
 33 0.000000 0.000000 7.153650 0.558502 0.000000 0.000000
 34 -1.945980 -0.135012 0.247196 -3.077445 1.523081 0.000000
 35 0.000000 0.000000 1.172377 -0.535111 0.583828 -3.141592
 36 0.000000 0.000000 1.923266 -0.123086 0.631228 0.000000
 37 0.111389 0.206554 2.803840 0.313340 0.079789 -3.141592
 38 0.000000 0.000000 2.609086 0.476630 0.064040 0.000000
 39 0.000000 0.000000 2.388648 0.340473 0.179722 0.000000
time 23
  0 0.192743 -0.192743 4.515316 -0.104787 -0.171236 -0.009923
  1 0.000000 -6.750002 -3.510001 0.000000 0.000000 0.000000
  2 3.007735 -0.000004 -0.000002 1.754551 0.142720 0.199088
  3 0.000000 0.000000 12.794512 0.020295 0.211407 -0.478256
  4 0.000000 0.000000 14.050400 0.821108 1.470961 -3.141592
  5 0.000000 0.000000 6.031133 0.113066 0.523561 0.000000
  6 0.000000 0.000000 0.757964 -0.000001 0.000000 0.000000
  7 0.000000 0.000000 0.757950 -0.000002 0.000000 0.000000
  8 -3.007735 0.000004 0.000005 -1.545902 0.169129 -3.307243
  9 0.000000 0.000000 12.794530 -0.048356 0.224915 0.539646
 10 0.000000 0.000000 13.961749 -0.758599 1.461174 -3.141592
 11 0.000000 0.000000 6.030940 -0.114774 0.523252 0.000000
 12 0.000000 0.000000 0.757934 -0.000000 -0.000000 -3.141592
 13 0.000000 0.000000 0.757953 -0.000000 -0.000000 -3.141592
 14 0.000001 1.047682 0.554789 -1.491757 0.014399 0.032275
 15 0.000000 0.000000 4.300853 -0.070003 0.000476 -0.000060
 16 0.000000 0.000000 3.909713 0.026058 0.001047 -3.141568
 17 0.000000 0.000000 4.692176 0.062175 0.000608 -3.141619
 18 0.000000 0.000000 5.479362 0.000000 0.000000 0.000000
 19 0.645092 -2.464382 2.019449 -0.067789 0.159939 0.000000
 20 3.518158 -2.206055 -1.728387 2.911160 1.048239 -3.141592
 21 0.000000 0.000000 4.558179 -0.448908 0.700517 -0.531212
 22 0.000000 0.000000 11.949879 -0.019579 0.004046 -3.140212
 23 0.000000 0.000000 4.822874 -0.610864 0.000000 0.000000
 24 -1.376730 -0.804586 1.281520 -0.659309 1.255116 -3.141592
 25 0.000000 0.000000 1.416892 0.073536 0.071051 -3.141592
 26 0.000000 0.000000 1.920310 0.269862 0.568862 0.000000
 27 0.213890 -0.856740 4.255571 0.528081 0.318569 0.000000
 28 0.000000 0.000000 1.378407 -0.049177 0.309751 -3.141592
 29 0.000000 0.000000 3.006212 0.930783 0.778878 -3.141592
 30 -3.352225 -2.014409 -1.625205 -3.111551 1.200587 0.000000
 31 0.000000 0.000000 4.228487 0.361430 0.995633 0.333972
 32 0.000000 0.000000 13.042765 0.099806 0.151290 -3.197047
 33 0.000000 0.000000 7.153650 0.558502 0.000000 0.000000
 34 -1.945980 -0.135012 0.247196 -3.077445 1.523081 0.000000
 35 0.000000 0.000000 1.172377 -0.535111 0.583828 -3.141592
 36 0.000000 0.000000 1.923266 -0.123086 0.631228 0.000000
 37 0.111389 0.206554 2.803840 0.313340 0.079789 -3.141592
 38 0.000000 0.000000 2.609086 0.476630 0.064040 0.000000
 39 0.000000 0.000000 2.388648 0.340473 0.179722 0.000000
time 24
  0 0.192743 -0.192743 4.538754 -0.104787 -0.171236 -0.009923
  1 0.000000 -6.750002 -3.510001 0.000000 0.000000 0.000000
  2 3.007735 -0.000004 -0.000002 1.754551 0.142720 0.199088
  3 0.000000 0.000000 12.794512 0.020295 0.211407 -0.478256
  4 0.000000 0.000000 14.050400 0.821108 1.470961 -3.141592
  5 0.000000 0.000000 6.031133 0.113066 0.523561 0.000000
  6 0.000000 0.000000 0.757964 -0.000001 0.000000 0.000000
  7 0.000000 0.000000 0.757950 -0.000002 0.000000 0.000000
  8 -3.007735 0.000004 0.000005 -1.545902 0.169129 -3.307243
  9 0.000000 0.000000 12.794530 -0.048356 0.224915 0.539646
 10 0.000000 0.000000 13.961749 -0.758599 1.461174 -3.141592
 11 0.000000 0.000000 6.030940 -0.114774 0.523252 0.000000
 12 0.000000 0.000000 0.757934 -0.000000 -0.000000 -3.141592
 13 0.000000 0.000000 0.757953 -0.000000 -0.000000 -3.141592
 14 0.000001 1.047682 0.554789 -1.491757 0.014399 0.032275
 15 0.000000 0.000000 4.300853 -0.070003 0.000476 -0.000060
 16 0.000000 0.000000 3.909713 0.026058 0.001047 -3.141568
 17 0.000000 0.000000 4.692176 0.062175 0.000608 -3.141619
 18 0.000000 0.000000 5.479362 0.000000 0.000000 0.000000
 19 0.645092 -2.464382 2.019449 -0.067789 0.159939 0.000000
 20 3.518158 -2.206055 -1.728387 2.911160 1.048239 -3.141592
 21 0.000000 0.000000 4.558179 -0.448908 0.700517 -0.531212
 22 0.000000 0.000000 11.949879 -0.019579 0.004046 -3.140212
 23 0.000000 0.000000 4.822874 -0.610864 0.000000 0.000000
 24 -1.376730 -0.804586 1.281520 -0.659309 1.255116 -3.141592
 25 0.000000 0.000000 1.416892 0.073536 0.071051 -3.141592
 26 0.000000 0.000000 1.920310 0.269862 0.568862 0.000000
 27 0.213890 -0.856740 4.255571 0.528081 0.318569 0.000000
 28 0.000000 0.000000 1.378407 -0.049177 0.309751 -3.141592
 29 0.000000 0.000000 3.006212 0.930783 0.778878 -3.141592
 30 -3.352225 -2.014409 -1.625205 -3.111551 1.200587 0.000000
 31 0.000000 0.000000 4.228487 0.361430 0.995633 0.333972
 32 0.000000 0.000000 13.042765 0.099806 0.151290 -3.197047
 33 0.000000 0.000000 7.153650 0.558502 0.000000 0.000000
 34 -1.945980 -0.135012 0.247196 -3.077445 1.523081 0.000000
 35 0.000000 0.000000 1.172377 -0.535111 0.583828 -3.141592
 36 0.000000 0.000000 1.923266 -0.123086 0.631228 0.000000
 37 0.111389 0.206554 2.803840 0.313340 0.079789 -3.141592
 38 0.000000 0.000000 2.609086 0.476630 0.064040 0.000000
 39 0.000000 0.000000 2.388648 0.340473 0.179722 0.000000
time 25
  0 0.192743 -0.192743 4.573912 -0.104787 -0.171236 -0.009923
  1 0.000000 -6.750002 -3.510001 0.000000 0.000000 0.000000
  2 3.007735 -0.000004 -0.000002 1.754551 0.142720 0.199088
  3 0.000000 0.000000 12.794512 0.020295 0.211407 -0.478256
  4 0.000000 0.000000 14.050400 0.821108 1.470961 -3.141592
  5 0.000000 0.000000 6.031133 0.113066 0.523561 0.000000
  6 0.000000 0.000000 0.757964 -0.000001 0.000000 0.000000
  7 0.000000 0.000000 0.757950 -0.000002 0.000000 0.000000
  8 -3.007735 0.000004 0.000005 -1.545902 0.169129 -3.307243
  9 0.000000 0.000000 12.794530 -0.048356 0.224915 0.539646
 10 0.000000 0.000000 13.961749 -0.758599 1.461174 -3.141592
 11 0.000000 0.000000 6.030940 -0.114774 0.523252 0.000000
 12 0.000000 0.000000 0.757934 -0.000000 -0.000000 -3.141592
 13 0.000000 0.000000 0.757953 -0.000000 -0.000000 -3.141592
 14 0.000001 1.047682 0.554789 -1.491757 0.014399 0.032275
 15 0.000000 0.000000 4.300853 -0.070003 0.000476 -0.000060
 16 0.000000 0.000000 3.909713 0.026058 0.001047 -3.141568
 17 0.000000 0.000000 4.692176 0.062175 0.000608 -3.141619
 18 0.000000 0.000000 5.479362 0.000000 0.000000 0.000000
 19 0.645092 -2.464382 2.019449 -0.067789 0.159939 0.000000
 20 3.518158 -2.206055 -1.728387 2.911160 1.048239 -3.141592
 21 0.000000 0.000000 4.558179 -0.448908 0.700517 -0.531212
 22 0.000000 0.000000 11.949879 -0.019579 0.004046 -3.140212
 23 0.000000 0.000000 4.822874 -0.610864 0.000000 0.000000
 24 -1.376730 -0.804586 1.281520 -0.659309 1.255116 -3.141592
 25 0.000000 0.000000 1.416892 0.073536 0.071051 -3.141592
 26 0.000000 0.000000 1.920310 0.269862 0.568862 0.000000
 27 0.213890 -0.856740 4.255571 0.528081 0.318569 0.000000
 28 0.000000 0.000000 1.378407 -0.049177 0.309751 -3.141592
 29 0.000000 0.000000 3.006212 0.930783 0.778878 -3.141592
 30 -3.352225 -2.014409 -1.625205 -3.111551 1.200587 0.000000
 31 0.000000 0.000000 4.228487 0.361430 0.995633 0.333972
 32 0.000000 0.000000 13.042765 0.099806 0.151290 -3.197047
 33 0.000000 0.000000 7.153650 0.558502 0.000000 0.000000
 34 -1.945980 -0.135012 0.247196 -3.077445 1.523081 0.000000
 35 0.000000 0.000000 1.172377 -0.535111 0.583828 -3.141592
 36 0.000000 0.000000 1.923266 -0.123086 0.631228 0.000000
 37 0.111389 0.206554 2.803840 0.313340 0.079789 -3.141592
 38 0.000000 0.000000 2.609086 0.476630 0.064040 0.000000
 39 0.000000 0.000000 2.388648 0.340473 0.179722 0.000000
time 26
  0 0.192743 -0.192743 4.612975 -0.104787 -0.171236 -0.009923
  1 0.000000 -6.750002 -3.510001 0.000000 0.000000 0.000000
  2 3.007735 -0.000004 -0.000002 1.754551 0.142720 0.199088
  3 0.000000 0.000000 12.794512 0.020295 0.211407 -0.478256
  4 0.000000 0.000000 14.050400 0.821108 1.470961 -3.141592
  5 0.000000 0.000000 6.031133 0.113066 0.523561 0.000000
  6 0.000000 0.000000 0.757964 -0.000001 0.000000 0.000000
  7 0.000000 0.000000 0.757950 -0.000002 0.000000 0.000000
  8 -3.007735 0.000004 0.000005 -1.545902 0.169129 -3.307243
  9 0.000000 0.000000 12.794530 -0.048356 0.224915 0.539646
 10 0.000000 0.000000 13.961749 -0.758599 1.461174 -3.141592
 11 0.000000 0.000000 6.030940 -0.114774 0.523252 0.000000
 12 0.000000 0.000000 0.757934 -0.000000 -0.000000 -3.141592
 13 0.000000 0.000000 0.757953 -0.000000 -0.000000 -3.141592
 14 0.000001 1.047682 0.554789 -1.491757 0.014399 0.032275
 15 0.000000 0.000000 4.300853 -0.070003 0.000476 -0.000060
 16 0.000000 0.000000 3.909713 0.026058 0.001047 -3.141568
 17 0.000000 0.000000 4.692176 0.062175 0.000608 -3.141619
 18 0.000000 0.000000 5.479362 0.000000 0.000000 0.000000
 19 0.645092 -2.464382 2.019449 -0.067789 0.159939 0.000000
 20 3.518158 -2.206055 -1.728387 2.911160 1.048239 -3.141592
 21 0.000000 0.000000 4.558179 -0.448908 0.700517 -0.531212
 22 0.000000 0.000000 11.949879 -0.019579 0.004046 -3.140212
 23 0.000000 0.000000 4.822874 -0.610864 0.000000 0.000000
 24 -1.376730 -0.804586 1.281520 -0.659309 1.255116 -3.141592
 25 0.000000 0.000000 1.416892 0.073536 0.071051 -3.141592
 26 0.000000 0.000000 1.920310 0.269862 0.568862 0.000000
 27 0.213890 -0.856740 4.255571 0.528081 0.318569 0.000000
 28 0.000000 0.000000 1.378407 -0.049177 0.309751 -3.141592
 29 0.000000 0.000000 3.006212 0.930783 0.778878 -3.141592
 30 -3.352225 -2.014409 -1.625205 -3.111551 1.200587 0.000000
 31 0.000000 0.000000 4.228487 0.361430 0.995633 0.333972
 32 0.000000 0.000000 13.042765 0.099806 0.151290 -3.197047
 33 0.000000 0.000000 7.153650 0.558502 0.000000 0.000000
 34 -1.945980 -0.135012 0.247196 -3.077445 1.523081 0.000000
 35 0.000000 0.000000 1.172377 -0.535111 0.583828 -3.141592
 36 0.000000 0.000000 1.923266 -0.123086 0.631228 0.000000
 37 0.111389 0.206554 2.803840 0.313340 0.079789 -3.141592
 38 0.000000 0.000000 2.609086 0.476630 0.064040 0.000000
 39 0.000000 0.000000 2.388648 0.340473 0.179722 0.000000
time 27
  0 0.192743 -0.192743 4.648132 -0.104787 -0.171236 -0.009923
  1 0.000000 -6.750002 -3.510001 0.000000 0.000000 0.000000
  2 3.007735 -0.000004 -0.000002 1.754551 0.142720 0.199088
  3 0.000000 0.000000 12.794512 0.020295 0.211407 -0.478256
  4 0.000000 0.000000 14.050400 0.821108 1.470961 -3.141592
  5 0.000000 0.000000 6.031133 0.113066 0.523561 0.000000
  6 0.000000 0.000000 0.757964 -0.000001 0.000000 0.000000
  7 0.000000 0.000000 0.757950 -0.000002 0.000000 0.000000
  8 -3.007735 0.000004 0.000005 -1.545902 0.169129 -3.307243
  9 0.000000 0.000000 12.794530 -0.048356 0.224915 0.539646
 10 0.000000 0.000000 13.961749 -0.758599 1.461174 -3.141592
 11 0.000000 0.000000 6.030940 -0.114774 0.523252 0.000000
 12 0.000000 0.000000 0.757934 -0.000000 -0.000000 -3.141592
 13 0.000000 0.000000 0.757953 -0.000000 -0.000000 -3.141592
 14 0.000001 1.047682 0.554789 -1.491757 0.014399 0.032275
 15 0.000000 0.000000 4.300853 -0.070003 0.000476 -0.000060
 16 0.000000 0.000000 3.909713 0.026058 0.001047 -3.141568
 17 0.000000 0.000000 4.692176 0.062175 0.000608 -3.141619
 18 0.000000 0.000000 5.479362 0.000000 0.000000 0.000000
 19 0.645092 -2.464382 2.019449 -0.067789 0.159939 0.000000
 20 3.518158 -2.206055 -1.728387 2.911160 1.048239 -3.141592
 21 0.000000 0.000000 4.558179 -0.448908 0.700517 -0.531212
 22 0.000000 0.000000 11.949879 -0.019579 0.004046 -3.140212
 23 0.000000 0.000000 4.822874 -0.610864 0.000000 0.000000
 24 -1.376730 -0.804586 1.281520 -0.659309 1.255116 -3.141592
 25 0.000000 0.000000 1.416892 0.073536 0.071051 -3.141592
 26 0.000000 0.000000 1.920310 0.269862 0.568862 0.000000
 27 0.213890 -0.856740 4.255571 0.528081 0.318569 0.000000
 28 0.000000 0.000000 1.378407 -0.049177 0.309751 -3.141592
 29 0.000000 0.000000 3.006212 0.930783 0.778878 -3.141592
 30 -3.352225 -2.014409 -1.625205 -3.111551 1.200587 0.000000
 31 0.000000 0.000000 4.228487 0.361430 0.995633 0.333972
 32 0.000000 0.000000 13.042765 0.099806 0.151290 -3.197047
 33 0.000000 0.000000 7.153650 0.558502 0.000000 0.000000
 34 -1.945980 -0.135012 0.247196 -3.077445 1.523081 0.000000
 35 0.000000 0.000000 1.172377 -0.535111 0.583828 -3.141592
 36 0.000000 0.000000 1.923266 -0.123086 0.631228 0.000000
 37 0.111389 0.206554 2.803840 0.313340 0.079789 -3.141592
 38 0.000000 0.000000 2.609086 0.476630 0.064040 0.000000
 39 0.000000 0.000000 2.388648 0.340473 0.179722 0.000000
time 28
  0 0.192743 -0.192743 4.675477 -0.104787 -0.171236 -0.009923
  1 0.000000 -6.750002 -3.510001 0.000000 0.000000 0.000000
  2 3.007735 -0.000004 -0.000002 1.754551 0.142720 0.199088
  3 0.000000 0.000000 12.794512 0.020295 0.211407 -0.478256
  4 0.000000 0.000000 14.050400 0.821108 1.470961 -3.141592
  5 0.000000 0.000000 6.031133 0.113066 0.523561 0.000000
  6 0.000000 0.000000 0.757964 -0.000001 0.000000 0.000000
  7 0.000000 0.000000 0.757950 -0.000002 0.000000 0.000000
  8 -3.007735 0.000004 0.000005 -1.545902 0.169129 -3.307243
  9 0.000000 0.000000 12.794530 -0.048356 0.224915 0.539646
 10 0.000000 0.000000 13.961749 -0.758599 1.461174 -3.141592
 11 0.000000 0.000000 6.030940 -0.114774 0.523252 0.000000
 12 0.000000 0.000000 0.757934 -0.000000 -0.000000 -3.141592
 13 0.000000 0.000000 0.757953 -0.000000 -0.000000 -3.141592
 14 0.000001 1.047682 0.554789 -1.491757 0.014399 0.032275
 15 0.000000 0.000000 4.300853 -0.070003 0.000476 -0.000060
 16 0.000000 0.000000 3.909713 0.026058 0.001047 -3.141568
 17 0.000000 0.000000 4.692176 0.062175 0.000608 -3.141619
 18 0.000000 0.000000 5.479362 0.000000 0.000000 0.000000
 19 0.645092 -2.464382 2.019449 -0.067789 0.159939 0.000000
 20 3.518158 -2.206055 -1.728387 2.911160 1.048239 -3.141592
 21 0.000000 0.000000 4.558179 -0.448908 0.700517 -0.531212
 22 0.000000 0.000000 11.949879 -0.019579 0.004046 -3.140212
 23 0.000000 0.000000 4.822874 -0.610864 0.000000 0.000000
 24 -1.376730 -0.804586 1.281520 -0.659309 1.255116 -3.141592
 25 0.000000 0.000000 1.416892 0.073536 0.071051 -3.141592
 26 0.000000 0.000000 1.920310 0.269862 0.568862 0.000000
 27 0.213890 -0.856740 4.255571 0.528081 0.318569 0.000000
 28 0.000000 0.000000 1.378407 -0.049177 0.309751 -3.141592
 29 0.000000 0.000000 3.006212 0.930783 0.778878 -3.141592
 30 -3.352225 -2.014409 -1.625205 -3.111551 1.200587 0.000000
 31 0.000000 0.000000 4.228487 0.361430 0.995633 0.333972
 32 0.000000 0.000000 13.042765 0.099806 0.151290 -3.197047
 33 0.000000 0.000000 7.153650 0.558502 0.000000 0.000000
 34 -1.945980 -0.135012 0.247196 -3.077445 1.523081 0.000000
 35 0.000000 0.000000 1.172377 -0.535111 0.583828 -3.141592
 36 0.000000 0.000000 1.923266 -0.123086 0.631228 0.000000
 37 0.111389 0.206554 2.803840 0.313340 0.079789 -3.141592
 38 0.000000 0.000000 2.609086 0.476630 0.064040 0.000000
 39 0.000000 0.000000 2.388648 0.340473 0.179722 0.000000
time 29
  0 0.192743 -0.192743 4.683290 -0.104787 -0.171236 -0.009923
  1 0.000000 -6.750002 -3.510001 0.000000 0.000000 0.000000
  2 3.007735 -0.000004 -0.000002 1.754551 0.142720 0.199088
  3 0.000000 0.000000 12.794512 0.020295 0.211407 -0.478256
  4 0.000000 0.000000 14.050400 0.821108 1.470961 -3.141592
  5 0.000000 0.000000 6.031133 0.113066 0.523561 0.000000
  6 0.000000 0.000000 0.757964 -0.000001 0.000000 0.000000
  7 0.000000 0.000000 0.757950 -0.000002 0.000000 0.000000
  8 -3.007735 0.000004 0.000005 -1.545902 0.169129 -3.307243
  9 0.000000 0.000000 12.794530 -0.048356 0.224915 0.539646
 10 0.000000 0.000000 13.961749 -0.758599 1.461174 -3.141592
 11 0.000000 0.000000 6.030940 -0.114774 0.523252 0.000000
 12 0.000000 0.000000 0.757934 -0.000000 -0.000000 -3.141592
 13 0.000000 0.000000 0.757953 -0.000000 -0.000000 -3.141592
 14 0.000001 1.047682 0.554789 -1.491757 0.014399 0.032275
 15 0.000000 0.000000 4.300853 -0.070003 0.000476 -0.000060
 16 0.000000 0.000000 3.909713 0.026058 0.001047 -3.141568
 17 0.000000 0.000000 4.692176 0.062175 0.000608 -3.141619
 18 0.000000 0.000000 5.479362 0.000000 0.000000 0.000000
 19 0.645092 -2.464382 2.019449 -0.067789 0.159939 0.000000
 20 3.518158 -2.206055 -1.728387 2.911160 1.048239 -3.141592
 21 0.000000 0.000000 4.558179 -0.448908 0.700517 -0.531212
 22 0.000000 0.000000 11.949879 -0.019579 0.004046 -3.140212
 23 0.000000 0.000000 4.822874 -0.610864 0.000000 0.000000
 24 -1.376730 -0.804586 1.281520 -0.659309 1.255116 -3.141592
 25 0.000000 0.000000 1.416892 0.073536 0.071051 -3.141592
 26 0.000000 0.000000 1.920310 0.269862 0.568862 0.000000
 27 0.213890 -0.856740 4.255571 0.528081 0.318569 0.000000
 28 0.000000 0.000000 1.378407 -0.049177 0.309751 -3.141592
 29 0.000000 0.000000 3.006212 0.930783 0.778878 -3.141592
 30 -3.352225 -2.014409 -1.625205 -3.111551 1.200587 0.000000
 31 0.000000 0.000000 4.228487 0.361430 0.995633 0.333972
 32 0.000000 0.000000 13.042765 0.099806 0.151290 -3.197047
 33 0.000000 0.000000 7.153650 0.558502 0.000000 0.000000
 34 -1.945980 -0.135012 0.247196 -3.077445 1.523081 0.000000
 35 0.000000 0.000000 1.172377 -0.535111 0.583828 -3.141592
 36 0.000000 0.000000 1.923266 -0.123086 0.631228 0.000000
 37 0.111389 0.206554 2.803840 0.313340 0.079789 -3.141592
 38 0.000000 0.000000 2.609086 0.476630 0.064040 0.000000
 39 0.000000 0.000000 2.388648 0.340473 0.179722 0.000000
end
