version 1
nodes
  0 "Bip01"  -1
  1 "Bip01 Pelvis"   0
  2 "Bip01 L Thigh"   1
  3 "Bip01 L Knee"   2
  4 "Bip01 L Foot"   3
  5 "Bip01 L Toe0"   4
  6 "Bip01 L Toe01"   5
  7 "Bip01 L Toe02"   6
  8 "Bip01 R Thigh"   1
  9 "Bip01 R Knee"   8
 10 "Bip01 R Foot"   9
 11 "Bip01 R Toe0"  10
 12 "Bip01 R Toe01"  11
 13 "Bip01 R Toe02"  12
 14 "Bip01 Spine"   1
 15 "Bip01 Spine1"  14
 16 "Bip01 Spine2"  15
 17 "Bip01 Spine3"  16
 18 "Bip01 Neck"  17
 19 "Bip01 Head"  18
 20 "Bip01 L Clavicle"  18
 21 "Bip01 L UpperArm"  20
 22 "Bip01 L Forearm"  21
 23 "Bip01 L Hand"  22
 24 "Bip01 L Finger0"  23
 25 "Bip01 L Finger01"  24
 26 "Bip01 L Finger02"  25
 27 "Bip01 L Finger1"  23
 28 "Bip01 L Finger11"  27
 29 "Bip01 L Finger12"  28
 30 "Bip01 R Clavicle"  18
 31 "Bip01 R UpperArm"  30
 32 "Bip01 R Forearm"  31
 33 "Bip01 R Hand"  32
 34 "Bip01 R Finger0"  33
 35 "Bip01 R Finger01"  34
 36 "Bip01 R Finger02"  35
 37 "Bip01 R Finger1"  33
 38 "Bip01 R Finger11"  37
 39 "Bip01 R Finger12"  38
end
skeleton
time 0
  0 0.192741 -0.192741 32.016155 1.570796 0.000000 0.000000
  1 0.000000 -6.750002 -3.510001 0.000000 0.000000 0.000000
  2 3.007735 -0.000004 -0.000002 0.797811 0.244409 0.000000
  3 0.000000 0.000000 12.794512 1.206479 0.519567 0.000000
  4 0.000000 0.000000 14.050400 0.821108 1.470961 -3.141592
  5 0.000000 0.000000 6.031133 0.113066 0.523561 0.000000
  6 0.000000 0.000000 0.757964 -0.000001 0.000000 0.000000
  7 0.000000 0.000000 0.757950 -0.000002 0.000000 0.000000
  8 -3.007735 0.000004 0.000005 -0.763901 0.236183 -3.141592
  9 0.000000 0.000000 12.794530 -1.262723 0.580349 0.000000
 10 0.000000 0.000000 13.961749 -0.758599 1.461174 -3.141592
 11 0.000000 0.000000 6.030940 -0.114774 0.523252 0.000000
 12 0.000000 0.000000 0.757934 -0.000000 -0.000000 -3.141592
 13 0.000000 0.000000 0.757953 -0.000000 -0.000000 -3.141592
 14 0.000001 1.047682 0.554789 -1.230097 0.005566 0.000000
 15 0.000000 0.000000 4.300853 0.069617 0.000476 0.000000
 16 0.000000 0.000000 3.909713 -0.008841 0.001047 -3.141592
 17 0.000000 0.000000 4.692176 0.114524 0.000608 -3.141592
 18 0.000000 0.000000 5.479362 0.000000 0.000000 0.000000
 19 0.645092 -2.464382 2.019449 -0.067789 0.159939 0.000000
 20 3.518158 -2.206055 -1.728387 2.911160 1.048239 -3.141592
 21 0.000000 0.000000 4.558179 0.290227 0.851123 0.000000
 22 0.000000 0.000000 11.949879 -0.351181 0.004253 -3.141592
 23 0.000000 0.000000 4.822874 0.000000 0.000000 0.000000
 24 -1.376730 -0.804586 1.281520 -0.659309 1.255116 -3.141592
 25 0.000000 0.000000 1.416892 0.073536 0.071051 -3.141592
 26 0.000000 0.000000 1.920310 0.269862 0.568862 0.000000
 27 0.213890 -0.856740 4.255571 0.528081 0.318569 0.000000
 28 0.000000 0.000000 1.378407 -0.049177 0.309751 -3.141592
 29 0.000000 0.000000 3.006212 0.930783 0.778878 -3.141592
 30 -3.352225 -2.014409 -1.625205 -3.111551 1.200587 0.000000
 31 0.000000 0.000000 4.228487 -0.030722 1.031015 0.000000
 32 0.000000 0.000000 13.042765 0.453051 0.161047 -3.141592
 33 0.000000 0.000000 7.153650 0.000000 0.000000 0.000000
 34 -1.945980 -0.135012 0.247196 -3.077445 1.523081 0.000000
 35 0.000000 0.000000 1.172377 -0.535111 0.583828 -3.141592
 36 0.000000 0.000000 1.923266 -0.123086 0.631228 0.000000
 37 0.111389 0.206554 2.803840 0.313340 0.079789 -3.141592
 38 0.000000 0.000000 2.609086 0.476630 0.064040 0.000000
 39 0.000000 0.000000 2.388648 0.340473 0.179722 0.000000
time 1
  0 0.192741 -0.192741 31.723177 1.570796 0.000000 0.000000
  1 0.000000 -6.750002 -3.510001 0.000000 0.000000 0.000000
  2 3.007735 -0.000004 -0.000002 0.777289 0.244361 -0.004974
  3 0.000000 0.000000 12.794512 1.263891 0.518860 0.028490
  4 0.000000 0.000000 14.050400 0.821108 1.470961 -3.141592
  5 0.000000 0.000000 6.031133 0.127675 0.585823 0.004974
  6 0.000000 0.000000 0.757964 -0.000001 0.000000 0.000000
  7 0.000000 0.000000 0.757950 -0.000002 0.000000 0.000000
  8 -3.007735 0.000004 0.000005 -0.743407 0.236135 -3.136798
  9 0.000000 0.000000 12.794530 -1.313385 0.579770 -0.027751
 10 0.000000 0.000000 13.961749 -0.758599 1.476133 -3.141592
 11 0.000000 0.000000 6.030940 -0.114774 0.523252 0.000000
 12 0.000000 0.000000 0.757934 -0.000000 -0.000000 -3.141592
 13 0.000000 0.000000 0.757953 -0.000000 -0.000000 -3.141592
 14 0.000001 1.047682 0.554789 -1.230097 0.005566 0.000000
 15 0.000000 0.000000 4.300853 0.052167 0.000476 0.000000
 16 0.000000 0.000000 3.909713 0.006116 0.001047 -3.141580
 17 0.000000 0.000000 4.692176 0.114524 0.000608 -3.141592
 18 0.000000 0.000000 5.479362 0.007475 0.000216 0.009971
 19 0.645092 -2.464382 2.019449 -0.100603 0.159859 -0.005220
 20 3.518158 -2.206055 -1.728387 2.911160 1.048239 -3.141592
 21 0.000000 0.000000 4.558179 0.417023 0.851928 0.062716
 22 0.000000 0.000000 11.949879 -0.395945 0.008035 -3.134848
 23 0.000000 0.000000 4.822874 0.000000 0.000000 0.000000
 24 -1.376730 -0.804586 1.281520 -0.659309 1.255116 -3.141592
 25 0.000000 0.000000 1.416892 0.073536 0.071051 -3.141592
 26 0.000000 0.000000 1.920310 0.269862 0.568862 0.000000
 27 0.213890 -0.856740 4.255571 0.528081 0.318569 0.000000
 28 0.000000 0.000000 1.378407 -0.049177 0.309751 -3.141592
 29 0.000000 0.000000 3.006212 0.930783 0.778878 -3.141592
 30 -3.352225 -2.014409 -1.625205 -3.111551 1.200587 0.000000
 31 0.000000 0.000000 4.228487 -0.030722 1.031015 -0.027404
 32 0.000000 0.000000 13.042765 0.526235 0.164185 -3.141881
 33 0.000000 0.000000 7.153650 0.000000 0.000000 0.000000
 34 -1.945980 -0.135012 0.247196 -3.077445 1.523081 0.000000
 35 0.000000 0.000000 1.172377 -0.535111 0.583828 -3.141592
 36 0.000000 0.000000 1.923266 -0.123086 0.631228 0.000000
 37 0.111389 0.206554 2.803840 0.313340 0.079789 -3.141592
 38 0.000000 0.000000 2.609086 0.476630 0.064040 0.000000
 39 0.000000 0.000000 2.388648 0.340473 0.179722 0.000000
time 2
  0 0.192741 -0.192741 31.387230 1.570796 0.000000 0.000000
  1 0.000000 -6.750002 -3.510001 0.000000 0.000000 0.000000
  2 3.007735 -0.000004 -0.000002 0.756729 0.244217 -0.009935
  3 0.000000 0.000000 12.794512 1.321231 0.516739 0.056878
  4 0.000000 0.000000 14.050400 0.821108 1.470961 -3.141592
  5 0.000000 0.000000 6.031133 0.143327 0.648005 0.011313
  6 0.000000 0.000000 0.757964 -0.000001 0.000000 0.000000
  7 0.000000 0.000000 0.757950 -0.000002 0.000000 0.000000
  8 -3.007735 0.000004 0.000005 -0.722871 0.235991 -3.132004
  9 0.000000 0.000000 12.794530 -1.363973 0.578012 -0.055449
 10 0.000000 0.000000 13.961749 -0.758599 1.491091 -3.141592
 11 0.000000 0.000000 6.030940 -0.114774 0.523252 0.000000
 12 0.000000 0.000000 0.757934 -0.000000 -0.000000 -3.141592
 13 0.000000 0.000000 0.757953 -0.000000 -0.000000 -3.141592
 14 0.000001 1.047682 0.554789 -1.230097 0.005566 0.000000
 15 0.000000 0.000000 4.300853 0.034718 0.000476 -0.000012
 16 0.000000 0.000000 3.909713 0.021073 0.001047 -3.141568
 17 0.000000 0.000000 4.692176 0.114524 0.000608 -3.141592
 18 0.000000 0.000000 5.479362 0.014950 0.000372 0.019942
 19 0.645092 -2.464382 2.019449 -0.133436 0.159607 -0.010439
 20 3.518158 -2.206055 -1.728387 2.911160 1.048239 -3.141592
 21 0.000000 0.000000 4.558179 0.543341 0.847551 0.125042
 22 0.000000 0.000000 11.949879 -0.440708 0.012128 -3.128293
 23 0.000000 0.000000 4.822874 0.000000 0.000000 0.000000
 24 -1.376730 -0.804586 1.281520 -0.659309 1.255116 -3.141592
 25 0.000000 0.000000 1.416892 0.073536 0.071051 -3.141592
 26 0.000000 0.000000 1.920310 0.269862 0.568862 0.000000
 27 0.213890 -0.856740 4.255571 0.528081 0.318569 0.000000
 28 0.000000 0.000000 1.378407 -0.049177 0.309751 -3.141592
 29 0.000000 0.000000 3.006212 0.930783 0.778878 -3.141592
 30 -3.352225 -2.014409 -1.625205 -3.111551 1.200587 0.000000
 31 0.000000 0.000000 4.228487 -0.030722 1.031015 -0.054808
 32 0.000000 0.000000 13.042765 0.599518 0.167366 -3.141996
 33 0.000000 0.000000 7.153650 0.000000 0.000000 0.000000
 34 -1.945980 -0.135012 0.247196 -3.077445 1.523081 0.000000
 35 0.000000 0.000000 1.172377 -0.535111 0.583828 -3.141592
 36 0.000000 0.000000 1.923266 -0.123086 0.631228 0.000000
 37 0.111389 0.206554 2.803840 0.313340 0.079789 -3.141592
 38 0.000000 0.000000 2.609086 0.476630 0.064040 0.000000
 39 0.000000 0.000000 2.388648 0.340473 0.179722 0.000000
time 3
  0 0.192741 -0.192741 31.039562 1.570796 0.000000 0.000000
  1 0.000000 -6.750002 -3.510001 0.000000 0.000000 0.000000
  2 3.007735 -0.000004 -0.000002 0.736169 0.243966 -0.014909
  3 0.000000 0.000000 12.794512 1.378390 0.513191 0.085032
  4 0.000000 0.000000 14.050400 0.821108 1.470961 -3.141592
  5 0.000000 0.000000 6.031133 0.160321 0.710108 0.019271
  6 0.000000 0.000000 0.757964 -0.000001 0.000000 0.000000
  7 0.000000 0.000000 0.757950 -0.000002 0.000000 0.000000
  8 -3.007735 0.000004 0.000005 -0.702377 0.235764 -3.127211
  9 0.000000 0.000000 12.794530 -1.414412 0.575075 -0.082938
 10 0.000000 0.000000 13.961749 -0.758599 1.506050 -3.141592
 11 0.000000 0.000000 6.030940 -0.114774 0.523252 0.000000
 12 0.000000 0.000000 0.757934 -0.000000 -0.000000 -3.141592
 13 0.000000 0.000000 0.757953 -0.000000 -0.000000 -3.141592
 14 0.000001 1.047682 0.554789 -1.230097 0.005566 0.000000
 15 0.000000 0.000000 4.300853 0.017268 0.000476 -0.000024
 16 0.000000 0.000000 3.909713 0.036029 0.001047 -3.141556
 17 0.000000 0.000000 4.692176 0.114524 0.000608 -3.141592
 18 0.000000 0.000000 5.479362 0.022424 0.000443 0.029914
 19 0.645092 -2.464382 2.019449 -0.166269 0.159183 -0.015659
 20 3.518158 -2.206055 -1.728387 2.911160 1.048239 -3.141592
 21 0.000000 0.000000 4.558179 0.668126 0.838031 0.185568
 22 0.000000 0.000000 11.949879 -0.485471 0.016533 -3.121894
 23 0.000000 0.000000 4.822874 0.000000 0.000000 0.000000
 24 -1.376730 -0.804586 1.281520 -0.659309 1.255116 -3.141592
 25 0.000000 0.000000 1.416892 0.073536 0.071051 -3.141592
 26 0.000000 0.000000 1.920310 0.269862 0.568862 0.000000
 27 0.213890 -0.856740 4.255571 0.528081 0.318569 0.000000
 28 0.000000 0.000000 1.378407 -0.049177 0.309751 -3.141592
 29 0.000000 0.000000 3.006212 0.930783 0.778878 -3.141592
 30 -3.352225 -2.014409 -1.625205 -3.111551 1.200587 0.000000
 31 0.000000 0.000000 4.228487 -0.030722 1.031015 -0.082213
 32 0.000000 0.000000 13.042765 0.672802 0.170547 -3.141881
 33 0.000000 0.000000 7.153650 0.000000 0.000000 0.000000
 34 -1.945980 -0.135012 0.247196 -3.077445 1.523081 0.000000
 35 0.000000 0.000000 1.172377 -0.535111 0.583828 -3.141592
 36 0.000000 0.000000 1.923266 -0.123086 0.631228 0.000000
 37 0.111389 0.206554 2.803840 0.313340 0.079789 -3.141592
 38 0.000000 0.000000 2.609086 0.476630 0.064040 0.000000
 39 0.000000 0.000000 2.388648 0.340473 0.179722 0.000000
time 4
  0 0.192741 -0.192741 30.715334 1.570796 0.000000 0.000000
  1 0.000000 -6.750002 -3.510001 0.000000 0.000000 0.000000
  2 3.007735 -0.000004 -0.000002 0.715609 0.243618 -0.019870
  3 0.000000 0.000000 12.794512 1.435260 0.508266 0.112850
  4 0.000000 0.000000 14.050400 0.821108 1.470961 -3.141592
  5 0.000000 0.000000 6.031133 0.178981 0.772092 0.029159
  6 0.000000 0.000000 0.757964 -0.000001 0.000000 0.000000
  7 0.000000 0.000000 0.757950 -0.000002 0.000000 0.000000
  8 -3.007735 0.000004 0.000005 -0.681882 0.235428 -3.122417
  9 0.000000 0.000000 12.794530 -1.464630 0.570980 -0.110166
 10 0.000000 0.000000 13.961749 -0.758599 1.521008 -3.141592
 11 0.000000 0.000000 6.030940 -0.114774 0.523252 0.000000
 12 0.000000 0.000000 0.757934 -0.000000 -0.000000 -3.141592
 13 0.000000 0.000000 0.757953 -0.000000 -0.000000 -3.141592
 14 0.000001 1.047682 0.554789 -1.230097 0.005566 0.000000
 15 0.000000 0.000000 4.300853 -0.000193 0.000476 -0.000024
 16 0.000000 0.000000 3.909713 0.050986 0.001047 -3.141531
 17 0.000000 0.000000 4.692176 0.114524 0.000608 -3.141592
 18 0.000000 0.000000 5.479362 0.029920 0.000443 0.039885
 19 0.645092 -2.464382 2.019449 -0.199083 0.158586 -0.020852
 20 3.518158 -2.206055 -1.728387 2.911160 1.048239 -3.141592
 21 0.000000 0.000000 4.558179 0.790134 0.823624 0.243045
 22 0.000000 0.000000 11.949879 -0.530189 0.021196 -3.115715
 23 0.000000 0.000000 4.822874 0.000000 0.000000 0.000000
 24 -1.376730 -0.804586 1.281520 -0.659309 1.255116 -3.141592
 25 0.000000 0.000000 1.416892 0.073536 0.071051 -3.141592
 26 0.000000 0.000000 1.920310 0.269862 0.568862 0.000000
 27 0.213890 -0.856740 4.255571 0.528081 0.318569 0.000000
 28 0.000000 0.000000 1.378407 -0.049177 0.309751 -3.141592
 29 0.000000 0.000000 3.006212 0.930783 0.778878 -3.141592
 30 -3.352225 -2.014409 -1.625205 -3.111551 1.200587 0.000000
 31 0.000000 0.000000 4.228487 -0.030722 1.031015 -0.109617
 32 0.000000 0.000000 13.042765 0.746184 0.173727 -3.141592
 33 0.000000 0.000000 7.153650 0.000000 0.000000 0.000000
 34 -1.945980 -0.135012 0.247196 -3.077445 1.523081 0.000000
 35 0.000000 0.000000 1.172377 -0.535111 0.583828 -3.141592
 36 0.000000 0.000000 1.923266 -0.123086 0.631228 0.000000
 37 0.111389 0.206554 2.803840 0.313340 0.079789 -3.141592
 38 0.000000 0.000000 2.609086 0.476630 0.064040 0.000000
 39 0.000000 0.000000 2.388648 0.340473 0.179722 0.000000
time 5
  0 0.192741 -0.192741 30.441889 1.570796 0.000000 0.000000
  1 0.000000 -6.750002 -3.510001 0.000000 0.000000 0.000000
  2 3.007735 -0.000004 -0.000002 0.695049 0.243175 -0.024820
  3 0.000000 0.000000 12.794512 1.491803 0.501974 0.140202
  4 0.000000 0.000000 14.050400 0.821108 1.470961 -3.141592
  5 0.000000 0.000000 6.031133 0.199798 0.833918 0.041419
  6 0.000000 0.000000 0.757964 -0.000001 0.000000 0.000000
  7 0.000000 0.000000 0.757950 -0.000002 0.000000 0.000000
  8 -3.007735 0.000004 0.000005 -0.661346 0.234997 -3.117635
  9 0.000000 0.000000 12.794530 -1.514550 0.565770 -0.137054
 10 0.000000 0.000000 13.961749 -0.758599 1.535967 -3.141592
 11 0.000000 0.000000 6.030940 -0.114774 0.523252 0.000000
 12 0.000000 0.000000 0.757934 -0.000000 -0.000000 -3.141592
 13 0.000000 0.000000 0.757953 -0.000000 -0.000000 -3.141592
 14 0.000001 1.047682 0.554789 -1.230097 0.005566 0.000000
 15 0.000000 0.000000 4.300853 -0.017643 0.000476 -0.000036
 16 0.000000 0.000000 3.909713 0.065955 0.001047 -3.141519
 17 0.000000 0.000000 4.692176 0.114524 0.000608 -3.141592
 18 0.000000 0.000000 5.479362 0.037395 0.000372 0.049868
 19 0.645092 -2.464382 2.019449 -0.231897 0.157830 -0.026018
 20 3.518158 -2.206055 -1.728387 2.911160 1.048239 -3.141592
 21 0.000000 0.000000 4.558179 0.908695 0.804663 0.296612
 22 0.000000 0.000000 11.949879 -0.574859 0.026144 -3.109755
 23 0.000000 0.000000 4.822874 0.000000 0.000000 0.000000
 24 -1.376730 -0.804586 1.281520 -0.659309 1.255116 -3.141592
 25 0.000000 0.000000 1.416892 0.073536 0.071051 -3.141592
 26 0.000000 0.000000 1.920310 0.269862 0.568862 0.000000
 27 0.213890 -0.856740 4.255571 0.528081 0.318569 0.000000
 28 0.000000 0.000000 1.378407 -0.049177 0.309751 -3.141592
 29 0.000000 0.000000 3.006212 0.930783 0.778878 -3.141592
 30 -3.352225 -2.014409 -1.625205 -3.111551 1.200587 0.000000
 31 0.000000 0.000000 4.228487 -0.030722 1.031015 -0.137111
 32 0.000000 0.000000 13.042765 0.819566 0.176865 -3.140958
 33 0.000000 0.000000 7.153650 0.000000 0.000000 0.000000
 34 -1.945980 -0.135012 0.247196 -3.077445 1.523081 0.000000
 35 0.000000 0.000000 1.172377 -0.535111 0.583828 -3.141592
 36 0.000000 0.000000 1.923266 -0.123086 0.631228 0.000000
 37 0.111389 0.206554 2.803840 0.313340 0.079789 -3.141592
 38 0.000000 0.000000 2.609086 0.476630 0.064040 0.000000
 39 0.000000 0.000000 2.388648 0.340473 0.179722 0.000000
time 6
  0 0.192741 -0.192741 30.254383 1.570796 0.000000 0.000000
  1 0.000000 -6.750002 -3.510001 0.000000 0.000000 0.000000
  2 3.007735 -0.000004 -0.000002 0.674527 0.242635 -0.029758
  3 0.000000 0.000000 12.794512 1.547912 0.494339 0.167013
  4 0.000000 0.000000 14.050400 0.821108 1.470961 -3.141592
  5 0.000000 0.000000 6.031133 0.223384 0.895531 0.056651
  6 0.000000 0.000000 0.757964 -0.000001 0.000000 0.000000
  7 0.000000 0.000000 0.757950 -0.000002 0.000000 0.000000
  8 -3.007735 0.000004 0.000005 -0.640852 0.234469 -3.112865
  9 0.000000 0.000000 12.794530 -1.564063 0.559402 -0.163472
 10 0.000000 0.000000 13.961749 -0.758599 1.550925 -3.141592
 11 0.000000 0.000000 6.030940 -0.114774 0.523252 0.000000
 12 0.000000 0.000000 0.757934 -0.000000 -0.000000 -3.141592
 13 0.000000 0.000000 0.757953 -0.000000 -0.000000 -3.141592
 14 0.000001 1.047682 0.554789 -1.230097 0.005566 0.000000
 15 0.000000 0.000000 4.300853 -0.035092 0.000476 -0.000048
 16 0.000000 0.000000 3.909713 0.080912 0.001047 -3.141506
 17 0.000000 0.000000 4.692176 0.114524 0.000608 -3.141592
 18 0.000000 0.000000 5.479362 0.044869 0.000216 0.059839
 19 0.645092 -2.464382 2.019449 -0.264711 0.156902 -0.031157
 20 3.518158 -2.206055 -1.728387 2.911160 1.048239 -3.141592
 21 0.000000 0.000000 4.558179 1.023041 0.781561 0.345487
 22 0.000000 0.000000 11.949879 -0.619530 0.031325 -3.103983
 23 0.000000 0.000000 4.822874 0.000000 0.000000 0.000000
 24 -1.376730 -0.804586 1.281520 -0.659309 1.255116 -3.141592
 25 0.000000 0.000000 1.416892 0.073536 0.071051 -3.141592
 26 0.000000 0.000000 1.920310 0.269862 0.568862 0.000000
 27 0.213890 -0.856740 4.255571 0.528081 0.318569 0.000000
 28 0.000000 0.000000 1.378407 -0.049177 0.309751 -3.141592
 29 0.000000 0.000000 3.006212 0.930783 0.778878 -3.141592
 30 -3.352225 -2.014409 -1.625205 -3.111551 1.200587 0.000000
 31 0.000000 0.000000 4.228487 -0.030722 1.031015 -0.164515
 32 0.000000 0.000000 13.042765 0.892998 0.179960 -3.140150
 33 0.000000 0.000000 7.153650 0.000000 0.000000 0.000000
 34 -1.945980 -0.135012 0.247196 -3.077445 1.523081 0.000000
 35 0.000000 0.000000 1.172377 -0.535111 0.583828 -3.141592
 36 0.000000 0.000000 1.923266 -0.123086 0.631228 0.000000
 37 0.111389 0.206554 2.803840 0.313340 0.079789 -3.141592
 38 0.000000 0.000000 2.609086 0.476630 0.064040 0.000000
 39 0.000000 0.000000 2.388648 0.340473 0.179722 0.000000
time 7
  0 0.192741 -0.192741 30.184069 1.570796 0.000000 0.000000
  1 0.000000 -6.750002 -3.510001 0.000000 0.000000 0.000000
  2 3.007735 -0.000004 -0.000002 0.653967 0.241988 -0.034683
  3 0.000000 0.000000 12.794512 1.603515 0.485411 0.193182
  4 0.000000 0.000000 14.050400 0.821108 1.470961 -3.141592
  5 0.000000 0.000000 6.031133 0.250613 0.956881 0.075707
  6 0.000000 0.000000 0.757964 -0.000001 0.000000 0.000000
  7 0.000000 0.000000 0.757950 -0.000002 0.000000 0.000000
  8 -3.007735 0.000004 0.000005 -0.620358 0.233846 -3.108119
  9 0.000000 0.000000 12.794530 -1.613206 0.551962 -0.189393
 10 0.000000 0.000000 13.961749 -3.900096 1.565884 -0.000000
 11 0.000000 0.000000 6.030940 -0.114774 0.523252 0.000000
 12 0.000000 0.000000 0.757934 -0.000000 -0.000000 -3.141592
 13 0.000000 0.000000 0.757953 -0.000000 -0.000000 -3.141592
 14 0.000001 1.047682 0.554789 -1.230097 0.005566 0.000000
 15 0.000000 0.000000 4.300853 -0.052554 0.000476 -0.000048
 16 0.000000 0.000000 3.909713 0.095868 0.001047 -3.141494
 17 0.000000 0.000000 4.692176 0.114524 0.000608 -3.141592
 18 0.000000 0.000000 5.479362 0.052344 0.000000 0.069810
 19 0.645092 -2.464382 2.019449 -0.297506 0.155815 -0.036270
 20 3.518158 -2.206055 -1.728387 2.911160 1.048239 -3.141592
 21 0.000000 0.000000 4.558179 1.133078 0.754769 0.389357
 22 0.000000 0.000000 11.949879 -0.664155 0.036791 -3.098494
 23 0.000000 0.000000 4.822874 0.000000 0.000000 0.000000
 24 -1.376730 -0.804586 1.281520 -0.659309 1.255116 -3.141592
 25 0.000000 0.000000 1.416892 0.073536 0.071051 -3.141592
 26 0.000000 0.000000 1.920310 0.269862 0.568862 0.000000
 27 0.213890 -0.856740 4.255571 0.528081 0.318569 0.000000
 28 0.000000 0.000000 1.378407 -0.049177 0.309751 -3.141592
 29 0.000000 0.000000 3.006212 0.930783 0.778878 -3.141592
 30 -3.352225 -2.014409 -1.625205 -3.111551 1.200587 0.000000
 31 0.000000 0.000000 4.228487 -0.030722 1.031015 -0.191919
 32 0.000000 0.000000 13.042765 0.966429 0.182969 -3.139053
 33 0.000000 0.000000 7.153650 0.000000 0.000000 0.000000
 34 -1.945980 -0.135012 0.247196 -3.077445 1.523081 0.000000
 35 0.000000 0.000000 1.172377 -0.535111 0.583828 -3.141592
 36 0.000000 0.000000 1.923266 -0.123086 0.631228 0.000000
 37 0.111389 0.206554 2.803840 0.313340 0.079789 -3.141592
 38 0.000000 0.000000 2.609086 0.476630 0.064040 0.000000
 39 0.000000 0.000000 2.388648 0.340473 0.179722 0.000000
time 8
  0 0.192741 -0.192741 30.238758 1.570796 0.000000 0.000000
  1 0.000000 -6.750002 -3.510001 0.000000 0.000000 0.000000
  2 3.007735 -0.000004 -0.000002 0.671943 0.242551 -0.030381
  3 0.000000 0.000000 12.794512 1.554863 0.493297 0.170326
  4 0.000000 0.000000 14.050400 0.821108 1.470961 -3.141592
  5 0.000000 0.000000 6.031133 0.226572 0.903228 0.058808
  6 0.000000 0.000000 0.757964 -0.000001 0.000000 0.000000
  7 0.000000 0.000000 0.757950 -0.000002 0.000000 0.000000
  8 -3.007735 0.000004 0.000005 -0.638301 0.234397 -3.112278
  9 0.000000 0.000000 12.794530 -1.570252 0.558544 -0.166738
 10 0.000000 0.000000 13.961749 -0.758599 1.552786 -3.141592
 11 0.000000 0.000000 6.030940 -0.114774 0.523252 0.000000
 12 0.000000 0.000000 0.757934 -0.000000 -0.000000 -3.141592
 13 0.000000 0.000000 0.757953 -0.000000 -0.000000 -3.141592
 14 0.000001 1.047682 0.554789 -1.230097 0.005566 0.000000
 15 0.000000 0.000000 4.300853 -0.037274 0.000476 -0.000048
 16 0.000000 0.000000 3.909713 0.082781 0.001047 -3.141506
 17 0.000000 0.000000 4.692176 0.114524 0.000608 -3.141592
 18 0.000000 0.000000 5.479362 0.045801 0.000192 0.061085
 19 0.645092 -2.464382 2.019449 -0.268810 0.156783 -0.031800
 20 3.518158 -2.206055 -1.728387 2.911160 1.048239 -3.141592
 21 0.000000 0.000000 4.558179 1.037119 0.778401 0.351274
 22 0.000000 0.000000 11.949879 -0.625137 0.031998 -3.103293
 23 0.000000 0.000000 4.822874 0.000000 0.000000 0.000000
 24 -1.376730 -0.804586 1.281520 -0.659309 1.255116 -3.141592
 25 0.000000 0.000000 1.416892 0.073536 0.071051 -3.141592
 26 0.000000 0.000000 1.920310 0.269862 0.568862 0.000000
 27 0.213890 -0.856740 4.255571 0.528081 0.318569 0.000000
 28 0.000000 0.000000 1.378407 -0.049177 0.309751 -3.141592
 29 0.000000 0.000000 3.006212 0.930783 0.778878 -3.141592
 30 -3.352225 -2.014409 -1.625205 -3.111551 1.200587 0.000000
 31 0.000000 0.000000 4.228487 -0.030722 1.031015 -0.167929
 32 0.000000 0.000000 13.042765 0.902158 0.180304 -3.140034
 33 0.000000 0.000000 7.153650 0.000000 0.000000 0.000000
 34 -1.945980 -0.135012 0.247196 -3.077445 1.523081 0.000000
 35 0.000000 0.000000 1.172377 -0.535111 0.583828 -3.141592
 36 0.000000 0.000000 1.923266 -0.123086 0.631228 0.000000
 37 0.111389 0.206554 2.803840 0.313340 0.079789 -3.141592
 38 0.000000 0.000000 2.609086 0.476630 0.064040 0.000000
 39 0.000000 0.000000 2.388648 0.340473 0.179722 0.000000
time 9
  0 0.192741 -0.192741 30.387199 1.570796 0.000000 0.000000
  1 0.000000 -6.750002 -3.510001 0.000000 0.000000 0.000000
  2 3.007735 -0.000004 -0.000002 0.689919 0.243055 -0.026054
  3 0.000000 0.000000 12.794512 1.505849 0.500188 0.146974
  4 0.000000 0.000000 14.050400 0.821108 1.470961 -3.141592
  5 0.000000 0.000000 6.031133 0.205407 0.849338 0.044918
  6 0.000000 0.000000 0.757964 -0.000001 0.000000 0.000000
  7 0.000000 0.000000 0.757950 -0.000002 0.000000 0.000000
  8 -3.007735 0.000004 0.000005 -0.656244 0.234865 -3.116449
  9 0.000000 0.000000 12.794530 -1.526965 0.564269 -0.143691
 10 0.000000 0.000000 13.961749 -0.758599 1.539688 -3.141592
 11 0.000000 0.000000 6.030940 -0.114774 0.523252 0.000000
 12 0.000000 0.000000 0.757934 -0.000000 -0.000000 -3.141592
 13 0.000000 0.000000 0.757953 -0.000000 -0.000000 -3.141592
 14 0.000001 1.047682 0.554789 -1.230097 0.005566 0.000000
 15 0.000000 0.000000 4.300853 -0.022005 0.000476 -0.000036
 16 0.000000 0.000000 3.909713 0.069694 0.001047 -3.141519
 17 0.000000 0.000000 4.692176 0.114524 0.000608 -3.141592
 18 0.000000 0.000000 5.479362 0.039258 0.000336 0.052361
 19 0.645092 -2.464382 2.019449 -0.240115 0.157618 -0.027303
 20 3.518158 -2.206055 -1.728387 2.911160 1.048239 -3.141592
 21 0.000000 0.000000 4.558179 0.937617 0.799266 0.309281
 22 0.000000 0.000000 11.949879 -0.586027 0.027413 -3.108280
 23 0.000000 0.000000 4.822874 0.000000 0.000000 0.000000
 24 -1.376730 -0.804586 1.281520 -0.659309 1.255116 -3.141592
 25 0.000000 0.000000 1.416892 0.073536 0.071051 -3.141592
 26 0.000000 0.000000 1.920310 0.269862 0.568862 0.000000
 27 0.213890 -0.856740 4.255571 0.528081 0.318569 0.000000
 28 0.000000 0.000000 1.378407 -0.049177 0.309751 -3.141592
 29 0.000000 0.000000 3.006212 0.930783 0.778878 -3.141592
 30 -3.352225 -2.014409 -1.625205 -3.111551 1.200587 0.000000
 31 0.000000 0.000000 4.228487 -0.030722 1.031015 -0.143940
 32 0.000000 0.000000 13.042765 0.837887 0.177639 -3.140785
 33 0.000000 0.000000 7.153650 0.000000 0.000000 0.000000
 34 -1.945980 -0.135012 0.247196 -3.077445 1.523081 0.000000
 35 0.000000 0.000000 1.172377 -0.535111 0.583828 -3.141592
 36 0.000000 0.000000 1.923266 -0.123086 0.631228 0.000000
 37 0.111389 0.206554 2.803840 0.313340 0.079789 -3.141592
 38 0.000000 0.000000 2.609086 0.476630 0.064040 0.000000
 39 0.000000 0.000000 2.388648 0.340473 0.179722 0.000000
time 10
  0 0.192741 -0.192741 30.602049 1.570796 0.000000 0.000000
  1 0.000000 -6.750002 -3.510001 0.000000 0.000000 0.000000
  2 3.007735 -0.000004 -0.000002 0.707895 0.243462 -0.021728
  3 0.000000 0.000000 12.794512 1.456509 0.506072 0.123169
  4 0.000000 0.000000 14.050400 0.821108 1.470961 -3.141592
  5 0.000000 0.000000 6.031133 0.186508 0.795302 0.033449
  6 0.000000 0.000000 0.757964 -0.000001 0.000000 0.000000
  7 0.000000 0.000000 0.757950 -0.000002 0.000000 0.000000
  8 -3.007735 0.000004 0.000005 -0.674187 0.235272 -3.120631
  9 0.000000 0.000000 12.794530 -1.483382 0.569157 -0.120305
 10 0.000000 0.000000 13.961749 -0.758599 1.526590 -3.141592
 11 0.000000 0.000000 6.030940 -0.114774 0.523252 0.000000
 12 0.000000 0.000000 0.757934 -0.000000 -0.000000 -3.141592
 13 0.000000 0.000000 0.757953 -0.000000 -0.000000 -3.141592
 14 0.000001 1.047682 0.554789 -1.230097 0.005566 0.000000
 15 0.000000 0.000000 4.300853 -0.006737 0.000476 -0.000036
 16 0.000000 0.000000 3.909713 0.056607 0.001047 -3.141531
 17 0.000000 0.000000 4.692176 0.114524 0.000608 -3.141592
 18 0.000000 0.000000 5.479362 0.032715 0.000419 0.043624
 19 0.645092 -2.464382 2.019449 -0.211400 0.158321 -0.022779
 20 3.518158 -2.206055 -1.728387 2.911160 1.048239 -3.141592
 21 0.000000 0.000000 4.558179 0.835049 0.817029 0.263612
 22 0.000000 0.000000 11.949879 -0.546917 0.023009 -3.113456
 23 0.000000 0.000000 4.822874 0.000000 0.000000 0.000000
 24 -1.376730 -0.804586 1.281520 -0.659309 1.255116 -3.141592
 25 0.000000 0.000000 1.416892 0.073536 0.071051 -3.141592
 26 0.000000 0.000000 1.920310 0.269862 0.568862 0.000000
 27 0.213890 -0.856740 4.255571 0.528081 0.318569 0.000000
 28 0.000000 0.000000 1.378407 -0.049177 0.309751 -3.141592
 29 0.000000 0.000000 3.006212 0.930783 0.778878 -3.141592
 30 -3.352225 -2.014409 -1.625205 -3.111551 1.200587 0.000000
 31 0.000000 0.000000 4.228487 -0.030722 1.031015 -0.119950
 32 0.000000 0.000000 13.042765 0.773665 0.174888 -3.141361
 33 0.000000 0.000000 7.153650 0.000000 0.000000 0.000000
 34 -1.945980 -0.135012 0.247196 -3.077445 1.523081 0.000000
 35 0.000000 0.000000 1.172377 -0.535111 0.583828 -3.141592
 36 0.000000 0.000000 1.923266 -0.123086 0.631228 0.000000
 37 0.111389 0.206554 2.803840 0.313340 0.079789 -3.141592
 38 0.000000 0.000000 2.609086 0.476630 0.064040 0.000000
 39 0.000000 0.000000 2.388648 0.340473 0.179722 0.000000
time 11
  0 0.192741 -0.192741 30.871590 1.570796 0.000000 0.000000
  1 0.000000 -6.750002 -3.510001 0.000000 0.000000 0.000000
  2 3.007735 -0.000004 -0.000002 0.725870 0.243810 -0.017390
  3 0.000000 0.000000 12.794512 1.406879 0.510902 0.098999
  4 0.000000 0.000000 14.050400 0.821108 1.470961 -3.141592
  5 0.000000 0.000000 6.031133 0.169418 0.741120 0.023945
  6 0.000000 0.000000 0.757964 -0.000001 0.000000 0.000000
  7 0.000000 0.000000 0.757950 -0.000002 0.000000 0.000000
  8 -3.007735 0.000004 0.000005 -0.692129 0.235608 -3.124814
  9 0.000000 0.000000 12.794530 -1.439539 0.573167 -0.096604
 10 0.000000 0.000000 13.961749 -0.758599 1.513529 -3.141592
 11 0.000000 0.000000 6.030940 -0.114774 0.523252 0.000000
 12 0.000000 0.000000 0.757934 -0.000000 -0.000000 -3.141592
 13 0.000000 0.000000 0.757953 -0.000000 -0.000000 -3.141592
 14 0.000001 1.047682 0.554789 -1.230097 0.005566 0.000000
 15 0.000000 0.000000 4.300853 0.008532 0.000476 -0.000024
 16 0.000000 0.000000 3.909713 0.043508 0.001047 -3.141543
 17 0.000000 0.000000 4.692176 0.114524 0.000608 -3.141592
 18 0.000000 0.000000 5.479362 0.026172 0.000455 0.034899
 19 0.645092 -2.464382 2.019449 -0.182686 0.158905 -0.018255
 20 3.518158 -2.206055 -1.728387 2.911160 1.048239 -3.141592
 21 0.000000 0.000000 4.558179 0.729513 0.831416 0.214737
 22 0.000000 0.000000 11.949879 -0.507807 0.018812 -3.118788
 23 0.000000 0.000000 4.822874 0.000000 0.000000 0.000000
 24 -1.376730 -0.804586 1.281520 -0.659309 1.255116 -3.141592
 25 0.000000 0.000000 1.416892 0.073536 0.071051 -3.141592
 26 0.000000 0.000000 1.920310 0.269862 0.568862 0.000000
 27 0.213890 -0.856740 4.255571 0.528081 0.318569 0.000000
 28 0.000000 0.000000 1.378407 -0.049177 0.309751 -3.141592
 29 0.000000 0.000000 3.006212 0.930783 0.778878 -3.141592
 30 -3.352225 -2.014409 -1.625205 -3.111551 1.200587 0.000000
 31 0.000000 0.000000 4.228487 -0.030722 1.031015 -0.095960
 32 0.000000 0.000000 13.042765 0.709493 0.172137 -3.141708
 33 0.000000 0.000000 7.153650 0.000000 0.000000 0.000000
 34 -1.945980 -0.135012 0.247196 -3.077445 1.523081 0.000000
 35 0.000000 0.000000 1.172377 -0.535111 0.583828 -3.141592
 36 0.000000 0.000000 1.923266 -0.123086 0.631228 0.000000
 37 0.111389 0.206554 2.803840 0.313340 0.079789 -3.141592
 38 0.000000 0.000000 2.609086 0.476630 0.064040 0.000000
 39 0.000000 0.000000 2.388648 0.340473 0.179722 0.000000
time 12
  0 0.192741 -0.192741 31.168472 1.570796 0.000000 0.000000
  1 0.000000 -6.750002 -3.510001 0.000000 0.000000 0.000000
  2 3.007735 -0.000004 -0.000002 0.743884 0.244073 -0.013051
  3 0.000000 0.000000 12.794512 1.356996 0.514689 0.074509
  4 0.000000 0.000000 14.050400 0.821108 1.470961 -3.141592
  5 0.000000 0.000000 6.031133 0.153778 0.686833 0.016083
  6 0.000000 0.000000 0.757964 -0.000001 0.000000 0.000000
  7 0.000000 0.000000 0.757950 -0.000002 0.000000 0.000000
  8 -3.007735 0.000004 0.000005 -0.710072 0.235859 -3.129009
  9 0.000000 0.000000 12.794530 -1.395511 0.576318 -0.072669
 10 0.000000 0.000000 13.961749 -0.758599 1.500431 -3.141592
 11 0.000000 0.000000 6.030940 -0.114774 0.523252 0.000000
 12 0.000000 0.000000 0.757934 -0.000000 -0.000000 -3.141592
 13 0.000000 0.000000 0.757953 -0.000000 -0.000000 -3.141592
 14 0.000001 1.047682 0.554789 -1.230097 0.005566 0.000000
 15 0.000000 0.000000 4.300853 0.023812 0.000476 -0.000012
 16 0.000000 0.000000 3.909713 0.030421 0.001047 -3.141556
 17 0.000000 0.000000 4.692176 0.114524 0.000608 -3.141592
 18 0.000000 0.000000 5.479362 0.019629 0.000419 0.026174
 19 0.645092 -2.464382 2.019449 -0.153952 0.159355 -0.013705
 20 3.518158 -2.206055 -1.728387 2.911160 1.048239 -3.141592
 21 0.000000 0.000000 4.558179 0.621583 0.842192 0.163125
 22 0.000000 0.000000 11.949879 -0.468697 0.014849 -3.124278
 23 0.000000 0.000000 4.822874 0.000000 0.000000 0.000000
 24 -1.376730 -0.804586 1.281520 -0.659309 1.255116 -3.141592
 25 0.000000 0.000000 1.416892 0.073536 0.071051 -3.141592
 26 0.000000 0.000000 1.920310 0.269862 0.568862 0.000000
 27 0.213890 -0.856740 4.255571 0.528081 0.318569 0.000000
 28 0.000000 0.000000 1.378407 -0.049177 0.309751 -3.141592
 29 0.000000 0.000000 3.006212 0.930783 0.778878 -3.141592
 30 -3.352225 -2.014409 -1.625205 -3.111551 1.200587 0.000000
 31 0.000000 0.000000 4.228487 -0.030722 1.031015 -0.071970
 32 0.000000 0.000000 13.042765 0.645320 0.169386 -3.141938
 33 0.000000 0.000000 7.153650 0.000000 0.000000 0.000000
 34 -1.945980 -0.135012 0.247196 -3.077445 1.523081 0.000000
 35 0.000000 0.000000 1.172377 -0.535111 0.583828 -3.141592
 36 0.000000 0.000000 1.923266 -0.123086 0.631228 0.000000
 37 0.111389 0.206554 2.803840 0.313340 0.079789 -3.141592
 38 0.000000 0.000000 2.609086 0.476630 0.064040 0.000000
 39 0.000000 0.000000 2.388648 0.340473 0.179722 0.000000
time 13
  0 0.192741 -0.192741 31.473169 1.570796 0.000000 0.000000
  1 0.000000 -6.750002 -3.510001 0.000000 0.000000 0.000000
  2 3.007735 -0.000004 -0.000002 0.761860 0.244265 -0.008701
  3 0.000000 0.000000 12.794512 1.306896 0.517398 0.049799
  4 0.000000 0.000000 14.050400 0.821108 1.470961 -3.141592
  5 0.000000 0.000000 6.031133 0.139300 0.632466 0.009588
  6 0.000000 0.000000 0.757964 -0.000001 0.000000 0.000000
  7 0.000000 0.000000 0.757950 -0.000002 0.000000 0.000000
  8 -3.007735 0.000004 0.000005 -0.728015 0.236039 -3.133203
  9 0.000000 0.000000 12.794530 -1.351335 0.578548 -0.048550
 10 0.000000 0.000000 13.961749 -0.758599 1.487333 -3.141592
 11 0.000000 0.000000 6.030940 -0.114774 0.523252 0.000000
 12 0.000000 0.000000 0.757934 -0.000000 -0.000000 -3.141592
 13 0.000000 0.000000 0.757953 -0.000000 -0.000000 -3.141592
 14 0.000001 1.047682 0.554789 -1.230097 0.005566 0.000000
 15 0.000000 0.000000 4.300853 0.039080 0.000476 -0.000012
 16 0.000000 0.000000 3.909713 0.017333 0.001047 -3.141568
 17 0.000000 0.000000 4.692176 0.114524 0.000608 -3.141592
 18 0.000000 0.000000 5.479362 0.013086 0.000336 0.017450
 19 0.645092 -2.464382 2.019449 -0.125237 0.159687 -0.009128
 20 3.518158 -2.206055 -1.728387 2.911160 1.048239 -3.141592
 21 0.000000 0.000000 4.558179 0.511833 0.849141 0.109558
 22 0.000000 0.000000 11.949879 -0.429540 0.011092 -3.129892
 23 0.000000 0.000000 4.822874 0.000000 0.000000 0.000000
 24 -1.376730 -0.804586 1.281520 -0.659309 1.255116 -3.141592
 25 0.000000 0.000000 1.416892 0.073536 0.071051 -3.141592
 26 0.000000 0.000000 1.920310 0.269862 0.568862 0.000000
 27 0.213890 -0.856740 4.255571 0.528081 0.318569 0.000000
 28 0.000000 0.000000 1.378407 -0.049177 0.309751 -3.141592
 29 0.000000 0.000000 3.006212 0.930783 0.778878 -3.141592
 30 -3.352225 -2.014409 -1.625205 -3.111551 1.200587 0.000000
 31 0.000000 0.000000 4.228487 -0.030722 1.031015 -0.047980
 32 0.000000 0.000000 13.042765 0.581198 0.166592 -3.141996
 33 0.000000 0.000000 7.153650 0.000000 0.000000 0.000000
 34 -1.945980 -0.135012 0.247196 -3.077445 1.523081 0.000000
 35 0.000000 0.000000 1.172377 -0.535111 0.583828 -3.141592
 36 0.000000 0.000000 1.923266 -0.123086 0.631228 0.000000
 37 0.111389 0.206554 2.803840 0.313340 0.079789 -3.141592
 38 0.000000 0.000000 2.609086 0.476630 0.064040 0.000000
 39 0.000000 0.000000 2.388648 0.340473 0.179722 0.000000
time 14
  0 0.192741 -0.192741 31.762241 1.570796 0.000000 0.000000
  1 0.000000 -6.750002 -3.510001 0.000000 0.000000 0.000000
  2 3.007735 -0.000004 -0.000002 0.779835 0.244373 -0.004350
  3 0.000000 0.000000 12.794512 1.256724 0.519028 0.024943
  4 0.000000 0.000000 14.050400 0.821108 1.470961 -3.141592
  5 0.000000 0.000000 6.031133 0.125794 0.578033 0.004278
  6 0.000000 0.000000 0.757964 -0.000001 0.000000 0.000000
  7 0.000000 0.000000 0.757950 -0.000002 0.000000 0.000000
  8 -3.007735 0.000004 0.000005 -0.745958 0.236147 -3.137398
  9 0.000000 0.000000 12.794530 -1.307047 0.579899 -0.024301
 10 0.000000 0.000000 13.961749 -0.758599 1.474235 -3.141592
 11 0.000000 0.000000 6.030940 -0.114774 0.523252 0.000000
 12 0.000000 0.000000 0.757934 -0.000000 -0.000000 -3.141592
 13 0.000000 0.000000 0.757953 -0.000000 -0.000000 -3.141592
 14 0.000001 1.047682 0.554789 -1.230097 0.005566 0.000000
 15 0.000000 0.000000 4.300853 0.054349 0.000476 0.000000
 16 0.000000 0.000000 3.909713 0.004246 0.001047 -3.141580
 17 0.000000 0.000000 4.692176 0.114524 0.000608 -3.141592
 18 0.000000 0.000000 5.479362 0.006522 0.000192 0.008725
 19 0.645092 -2.464382 2.019449 -0.096504 0.159886 -0.004550
 20 3.518158 -2.206055 -1.728387 2.911160 1.048239 -3.141592
 21 0.000000 0.000000 4.558179 0.401126 0.852124 0.054896
 22 0.000000 0.000000 11.949879 -0.390337 0.007543 -3.135695
 23 0.000000 0.000000 4.822874 0.000000 0.000000 0.000000
 24 -1.376730 -0.804586 1.281520 -0.659309 1.255116 -3.141592
 25 0.000000 0.000000 1.416892 0.073536 0.071051 -3.141592
 26 0.000000 0.000000 1.920310 0.269862 0.568862 0.000000
 27 0.213890 -0.856740 4.255571 0.528081 0.318569 0.000000
 28 0.000000 0.000000 1.378407 -0.049177 0.309751 -3.141592
 29 0.000000 0.000000 3.006212 0.930783 0.778878 -3.141592
 30 -3.352225 -2.014409 -1.625205 -3.111551 1.200587 0.000000
 31 0.000000 0.000000 4.228487 -0.030722 1.031015 -0.023990
 32 0.000000 0.000000 13.042765 0.517075 0.163798 -3.141881
 33 0.000000 0.000000 7.153650 0.000000 0.000000 0.000000
 34 -1.945980 -0.135012 0.247196 -3.077445 1.523081 0.000000
 35 0.000000 0.000000 1.172377 -0.535111 0.583828 -3.141592
 36 0.000000 0.000000 1.923266 -0.123086 0.631228 0.000000
 37 0.111389 0.206554 2.803840 0.313340 0.079789 -3.141592
 38 0.000000 0.000000 2.609086 0.476630 0.064040 0.000000
 39 0.000000 0.000000 2.388648 0.340473 0.179722 0.000000
time 15
  0 0.192741 -0.192741 32.016155 1.570796 0.000000 0.000000
  1 0.000000 -6.750002 -3.510001 0.000000 0.000000 0.000000
  2 3.007735 -0.000004 -0.000002 0.797811 0.244409 0.000000
  3 0.000000 0.000000 12.794512 1.206479 0.519567 0.000000
  4 0.000000 0.000000 14.050400 0.821108 1.470961 -3.141592
  5 0.000000 0.000000 6.031133 0.113066 0.523561 0.000000
  6 0.000000 0.000000 0.757964 -0.000001 0.000000 0.000000
  7 0.000000 0.000000 0.757950 -0.000002 0.000000 0.000000
  8 -3.007735 0.000004 0.000005 -0.763901 0.236183 -3.141592
  9 0.000000 0.000000 12.794530 -1.262723 0.580349 0.000000
 10 0.000000 0.000000 13.961749 -0.758599 1.461174 -3.141592
 11 0.000000 0.000000 6.030940 -0.114774 0.523252 0.000000
 12 0.000000 0.000000 0.757934 -0.000000 -0.000000 -3.141592
 13 0.000000 0.000000 0.757953 -0.000000 -0.000000 -3.141592
 14 0.000001 1.047682 0.554789 -1.230097 0.005566 0.000000
 15 0.000000 0.000000 4.300853 0.069617 0.000476 0.000000
 16 0.000000 0.000000 3.909713 -0.008841 0.001047 -3.141592
 17 0.000000 0.000000 4.692176 0.114524 0.000608 -3.141592
 18 0.000000 0.000000 5.479362 0.000000 0.000000 0.000000
 19 0.645092 -2.464382 2.019449 -0.067789 0.159939 0.000000
 20 3.518158 -2.206055 -1.728387 2.911160 1.048239 -3.141592
 21 0.000000 0.000000 4.558179 0.290227 0.851123 0.000000
 22 0.000000 0.000000 11.949879 -0.351181 0.004253 -3.141592
 23 0.000000 0.000000 4.822874 0.000000 0.000000 0.000000
 24 -1.376730 -0.804586 1.281520 -0.659309 1.255116 -3.141592
 25 0.000000 0.000000 1.416892 0.073536 0.071051 -3.141592
 26 0.000000 0.000000 1.920310 0.269862 0.568862 0.000000
 27 0.213890 -0.856740 4.255571 0.528081 0.318569 0.000000
 28 0.000000 0.000000 1.378407 -0.049177 0.309751 -3.141592
 29 0.000000 0.000000 3.006212 0.930783 0.778878 -3.141592
 30 -3.352225 -2.014409 -1.625205 -3.111551 1.200587 0.000000
 31 0.000000 0.000000 4.228487 -0.030722 1.031015 0.000000
 32 0.000000 0.000000 13.042765 0.453051 0.161047 -3.141592
 33 0.000000 0.000000 7.153650 0.000000 0.000000 0.000000
 34 -1.945980 -0.135012 0.247196 -3.077445 1.523081 0.000000
 35 0.000000 0.000000 1.172377 -0.535111 0.583828 -3.141592
 36 0.000000 0.000000 1.923266 -0.123086 0.631228 0.000000
 37 0.111389 0.206554 2.803840 0.313340 0.079789 -3.141592
 38 0.000000 0.000000 2.609086 0.476630 0.064040 0.000000
 39 0.000000 0.000000 2.388648 0.340473 0.179722 0.000000
end
