version 1
nodes
  0 "Bip01"  -1
  1 "Bip01 Pelvis"   0
  2 "Bip01 L Thigh"   1
  3 "Bip01 L Knee"   2
  4 "Bip01 L Foot"   3
  5 "Bip01 L Toe0"   4
  6 "Bip01 L Toe01"   5
  7 "Bip01 L Toe02"   6
  8 "Bip01 R Thigh"   1
  9 "Bip01 R Knee"   8
 10 "Bip01 R Foot"   9
 11 "Bip01 R Toe0"  10
 12 "Bip01 R Toe01"  11
 13 "Bip01 R Toe02"  12
 14 "Bip01 Spine"   1
 15 "Bip01 Spine1"  14
 16 "Bip01 Spine2"  15
 17 "Bip01 Spine3"  16
 18 "Bip01 Neck"  17
 19 "Bip01 Head"  18
 20 "Bip01 L Clavicle"  18
 21 "Bip01 L UpperArm"  20
 22 "Bip01 L Forearm"  21
 23 "Bip01 L Hand"  22
 24 "Bip01 L Finger0"  23
 25 "Bip01 L Finger01"  24
 26 "Bip01 L Finger02"  25
 27 "Bip01 L Finger1"  23
 28 "Bip01 L Finger11"  27
 29 "Bip01 L Finger12"  28
 30 "Bip01 R Clavicle"  18
 31 "Bip01 R UpperArm"  30
 32 "Bip01 R Forearm"  31
 33 "Bip01 R Hand"  32
 34 "Bip01 R Finger0"  33
 35 "Bip01 R Finger01"  34
 36 "Bip01 R Finger02"  35
 37 "Bip01 R Finger1"  33
 38 "Bip01 R Finger11"  37
 39 "Bip01 R Finger12"  38
end
skeleton
time 0
  0 0.192741 -0.192741 32.016155 1.570796 0.000000 0.000000
  1 0.000000 -6.750002 -3.510001 0.000000 0.000000 0.000000
  2 3.007735 -0.000004 -0.000002 0.797811 0.244409 0.000000
  3 0.000000 0.000000 12.794512 1.206479 0.519567 0.000000
  4 0.000000 0.000000 14.050400 0.821108 1.470961 -3.141592
  5 0.000000 0.000000 6.031133 0.113066 0.523561 0.000000
  6 0.000000 0.000000 0.757964 -0.000001 0.000000 0.000000
  7 0.000000 0.000000 0.757950 -0.000002 0.000000 0.000000
  8 -3.007735 0.000004 0.000005 -0.763901 0.236183 -3.141592
  9 0.000000 0.000000 12.794530 -1.262723 0.580349 0.000000
 10 0.000000 0.000000 13.961749 -0.758599 1.461174 -3.141592
 11 0.000000 0.000000 6.030940 -0.114774 0.523252 0.000000
 12 0.000000 0.000000 0.757934 -0.000000 -0.000000 -3.141592
 13 0.000000 0.000000 0.757953 -0.000000 -0.000000 -3.141592
 14 0.000001 1.047682 0.554789 -1.230097 0.005566 0.000000
 15 0.000000 0.000000 4.300853 0.069617 0.000476 0.000000
 16 0.000000 0.000000 3.909713 -0.008841 0.001047 -3.141592
 17 0.000000 0.000000 4.692176 0.114524 0.000608 -3.141592
 18 0.000000 0.000000 5.479362 0.000000 0.000000 0.000000
 19 0.645092 -2.464382 2.019449 -0.067789 0.159939 0.000000
 20 3.518158 -2.206055 -1.728387 2.911160 1.048239 -3.141592
 21 0.000000 0.000000 4.558179 0.290227 0.851123 0.000000
 22 0.000000 0.000000 11.949879 -0.351181 0.004253 -3.141592
 23 0.000000 0.000000 4.822874 0.000000 0.000000 0.000000
 24 -1.376730 -0.804586 1.281520 -0.659309 1.255116 -3.141592
 25 0.000000 0.000000 1.416892 0.073536 0.071051 -3.141592
 26 0.000000 0.000000 1.920310 0.269862 0.568862 0.000000
 27 0.213890 -0.856740 4.255571 0.528081 0.318569 0.000000
 28 0.000000 0.000000 1.378407 -0.049177 0.309751 -3.141592
 29 0.000000 0.000000 3.006212 0.930783 0.778878 -3.141592
 30 -3.352225 -2.014409 -1.625205 -3.111551 1.200587 0.000000
 31 0.000000 0.000000 4.228487 -0.030722 1.031015 0.000000
 32 0.000000 0.000000 13.042765 0.453051 0.161047 -3.141592
 33 0.000000 0.000000 7.153650 0.000000 0.000000 0.000000
 34 -1.945980 -0.135012 0.247196 -3.077445 1.523081 0.000000
 35 0.000000 0.000000 1.172377 -0.535111 0.583828 -3.141592
 36 0.000000 0.000000 1.923266 -0.123086 0.631228 0.000000
 37 0.111389 0.206554 2.803840 0.313340 0.079789 -3.141592
 38 0.000000 0.000000 2.609086 0.476630 0.064040 0.000000
 39 0.000000 0.000000 2.388648 0.340473 0.179722 0.000000
time 1
  0 0.192741 -0.192741 31.859901 1.570796 0.000000 0.000000
  1 0.000000 -6.750002 -3.510001 0.000000 0.000000 0.000000
  2 3.007735 -0.000004 -0.000002 0.788234 0.244409 -0.002313
  3 0.000000 0.000000 12.794512 1.233267 0.519423 0.013296
  4 0.000000 0.000000 14.050400 0.821108 1.470961 -3.141592
  5 0.000000 0.000000 6.031133 0.119765 0.552616 0.002157
  6 0.000000 0.000000 0.757964 -0.000001 0.000000 0.000000
  7 0.000000 0.000000 0.757950 -0.000002 0.000000 0.000000
  8 -3.007735 0.000004 0.000005 -0.754365 0.236183 -3.139363
  9 0.000000 0.000000 12.794530 -1.286368 0.580242 -0.012961
 10 0.000000 0.000000 13.961749 -0.758599 1.468132 -3.141592
 11 0.000000 0.000000 6.030940 -0.114774 0.523252 0.000000
 12 0.000000 0.000000 0.757934 -0.000000 -0.000000 -3.141592
 13 0.000000 0.000000 0.757953 -0.000000 -0.000000 -3.141592
 14 0.000001 1.047682 0.554789 -1.230097 0.005566 0.000000
 15 0.000000 0.000000 4.300853 0.061479 0.000476 0.000000
 16 0.000000 0.000000 3.909713 -0.001878 0.000532 -3.166514
 17 0.000000 0.000000 4.692176 0.114524 0.000608 -3.164026
 18 0.000000 0.000000 5.479362 0.003479 -0.000120 -0.017785
 19 0.645092 -2.464382 2.019449 -0.112441 0.119120 -0.081426
 20 3.518158 -2.206055 -1.728387 2.911160 1.048239 -3.141592
 21 0.000000 0.000000 4.558179 0.466535 0.849533 0.120584
 22 0.000000 0.000000 11.949879 -0.474304 0.007180 -3.139773
 23 0.000000 0.000000 4.822874 0.000000 0.000000 0.000000
 24 -1.376730 -0.804586 1.281520 -0.659309 1.255116 -3.141592
 25 0.000000 0.000000 1.416892 0.073536 0.071051 -3.141592
 26 0.000000 0.000000 1.920310 0.269862 0.568862 0.000000
 27 0.213890 -0.856740 4.255571 0.528081 0.318569 0.000000
 28 0.000000 0.000000 1.378407 -0.049177 0.309751 -3.141592
 29 0.000000 0.000000 3.006212 0.930783 0.778878 -3.141592
 30 -3.352225 -2.014409 -1.625205 -3.111551 1.200587 0.000000
 31 0.000000 0.000000 4.228487 0.085749 1.031015 0.087334
 32 0.000000 0.000000 13.042765 0.588971 0.131431 -3.198143
 33 0.000000 0.000000 7.153650 0.000000 0.000000 0.000000
 34 -1.945980 -0.135012 0.247196 -3.077445 1.523081 0.000000
 35 0.000000 0.000000 1.172377 -0.535111 0.583828 -3.141592
 36 0.000000 0.000000 1.923266 -0.123086 0.631228 0.000000
 37 0.111389 0.206554 2.803840 0.313340 0.079789 -3.141592
 38 0.000000 0.000000 2.609086 0.476630 0.064040 0.000000
 39 0.000000 0.000000 2.388648 0.340473 0.179722 0.000000
time 2
  0 0.192741 -0.192741 31.699739 1.570796 0.000000 0.000000
  1 0.000000 -6.750002 -3.510001 0.000000 0.000000 0.000000
  2 3.007735 -0.000004 -0.000002 0.778657 0.244373 -0.004638
  3 0.000000 0.000000 12.794512 1.260054 0.518956 0.026592
  4 0.000000 0.000000 14.050400 0.821108 1.470961 -3.141592
  5 0.000000 0.000000 6.031133 0.126669 0.581670 0.004602
  6 0.000000 0.000000 0.757964 -0.000001 0.000000 0.000000
  7 0.000000 0.000000 0.757950 -0.000002 0.000000 0.000000
  8 -3.007735 0.000004 0.000005 -0.744787 0.236147 -3.137122
  9 0.000000 0.000000 12.794530 -1.310012 0.579856 -0.025921
 10 0.000000 0.000000 13.961749 -0.758599 1.475128 -3.141592
 11 0.000000 0.000000 6.030940 -0.114774 0.523252 0.000000
 12 0.000000 0.000000 0.757934 -0.000000 -0.000000 -3.141592
 13 0.000000 0.000000 0.757953 -0.000000 -0.000000 -3.141592
 14 0.000001 1.047682 0.554789 -1.230097 0.005566 0.000000
 15 0.000000 0.000000 4.300853 0.053330 0.000476 0.000000
 16 0.000000 0.000000 3.909713 0.005109 0.000184 -3.191436
 17 0.000000 0.000000 4.692176 0.114524 0.000608 -3.186459
 18 0.000000 0.000000 5.479362 0.006978 -0.000180 -0.035570
 19 0.645092 -2.464382 2.019449 -0.153435 0.074866 -0.160631
 20 3.518158 -2.206055 -1.728387 2.911160 1.048239 -3.141592
 21 0.000000 0.000000 4.558179 0.639683 0.834105 0.237806
 22 0.000000 0.000000 11.949879 -0.597427 0.010341 -3.138299
 23 0.000000 0.000000 4.822874 0.000000 0.000000 0.000000
 24 -1.376730 -0.804586 1.281520 -0.659309 1.255116 -3.141592
 25 0.000000 0.000000 1.416892 0.073536 0.071051 -3.141592
 26 0.000000 0.000000 1.920310 0.269862 0.568862 0.000000
 27 0.213890 -0.856740 4.255571 0.528081 0.318569 0.000000
 28 0.000000 0.000000 1.378407 -0.049177 0.309751 -3.141592
 29 0.000000 0.000000 3.006212 0.930783 0.778878 -3.141592
 30 -3.352225 -2.014409 -1.625205 -3.111551 1.200587 0.000000
 31 0.000000 0.000000 4.228487 0.201386 1.025980 0.173770
 32 0.000000 0.000000 13.042765 0.725981 0.109681 -3.258041
 33 0.000000 0.000000 7.153650 0.000000 0.000000 0.000000
 34 -1.945980 -0.135012 0.247196 -3.077445 1.523081 0.000000
 35 0.000000 0.000000 1.172377 -0.535111 0.583828 -3.141592
 36 0.000000 0.000000 1.923266 -0.123086 0.631228 0.000000
 37 0.111389 0.206554 2.803840 0.313340 0.079789 -3.141592
 38 0.000000 0.000000 2.609086 0.476630 0.064040 0.000000
 39 0.000000 0.000000 2.388648 0.340473 0.179722 0.000000
time 3
  0 0.192741 -0.192741 31.539577 1.570796 0.000000 0.000000
  1 0.000000 -6.750002 -3.510001 0.000000 0.000000 0.000000
  2 3.007735 -0.000004 -0.000002 0.769042 0.244313 -0.006951
  3 0.000000 0.000000 12.794512 1.286842 0.518177 0.039874
  4 0.000000 0.000000 14.050400 0.821108 1.470961 -3.141592
  5 0.000000 0.000000 6.031133 0.133799 0.610712 0.007335
  6 0.000000 0.000000 0.757964 -0.000001 0.000000 0.000000
  7 0.000000 0.000000 0.757950 -0.000002 0.000000 0.000000
  8 -3.007735 0.000004 0.000005 -0.735209 0.236099 -3.134881
  9 0.000000 0.000000 12.794530 -1.333620 0.579213 -0.038856
 10 0.000000 0.000000 13.961749 -0.758599 1.482086 -3.141592
 11 0.000000 0.000000 6.030940 -0.114774 0.523252 0.000000
 12 0.000000 0.000000 0.757934 -0.000000 -0.000000 -3.141592
 13 0.000000 0.000000 0.757953 -0.000000 -0.000000 -3.141592
 14 0.000001 1.047682 0.554789 -1.230097 0.005566 0.000000
 15 0.000000 0.000000 4.300853 0.045192 0.000476 -0.000012
 16 0.000000 0.000000 3.909713 0.012096 0.000004 -3.216357
 17 0.000000 0.000000 4.692176 0.114524 0.000608 -3.208906
 18 0.000000 0.000000 5.479362 0.010477 -0.000168 -0.053355
 19 0.645092 -2.464382 2.019449 -0.190712 0.027575 -0.237775
 20 3.518158 -2.206055 -1.728387 2.911160 1.048239 -3.141592
 21 0.000000 0.000000 4.558179 0.805074 0.805743 0.346738
 22 0.000000 0.000000 11.949879 -0.720549 0.013631 -3.137201
 23 0.000000 0.000000 4.822874 0.000000 0.000000 0.000000
 24 -1.376730 -0.804586 1.281520 -0.659309 1.255116 -3.141592
 25 0.000000 0.000000 1.416892 0.073536 0.071051 -3.141592
 26 0.000000 0.000000 1.920310 0.269862 0.568862 0.000000
 27 0.213890 -0.856740 4.255571 0.528081 0.318569 0.000000
 28 0.000000 0.000000 1.378407 -0.049177 0.309751 -3.141592
 29 0.000000 0.000000 3.006212 0.930783 0.778878 -3.141592
 30 -3.352225 -2.014409 -1.625205 -3.111551 1.200587 0.000000
 31 0.000000 0.000000 4.228487 0.314264 1.015775 0.257420
 32 0.000000 0.000000 13.042765 0.863783 0.096312 -3.320246
 33 0.000000 0.000000 7.153650 0.000000 0.000000 0.000000
 34 -1.945980 -0.135012 0.247196 -3.077445 1.523081 0.000000
 35 0.000000 0.000000 1.172377 -0.535111 0.583828 -3.141592
 36 0.000000 0.000000 1.923266 -0.123086 0.631228 0.000000
 37 0.111389 0.206554 2.803840 0.313340 0.079789 -3.141592
 38 0.000000 0.000000 2.609086 0.476630 0.064040 0.000000
 39 0.000000 0.000000 2.388648 0.340473 0.179722 0.000000
time 4
  0 0.192741 -0.192741 31.379417 1.570796 0.000000 0.000000
  1 0.000000 -6.750002 -3.510001 0.000000 0.000000 0.000000
  2 3.007735 -0.000004 -0.000002 0.759465 0.244241 -0.009276
  3 0.000000 0.000000 12.794512 1.313593 0.517098 0.053112
  4 0.000000 0.000000 14.050400 0.821108 1.470961 -3.141592
  5 0.000000 0.000000 6.031133 0.141170 0.639727 0.010379
  6 0.000000 0.000000 0.757964 -0.000001 0.000000 0.000000
  7 0.000000 0.000000 0.757950 -0.000002 0.000000 0.000000
  8 -3.007735 0.000004 0.000005 -0.725631 0.236027 -3.132640
  9 0.000000 0.000000 12.794530 -1.357228 0.578312 -0.051764
 10 0.000000 0.000000 13.961749 -0.758599 1.489082 -3.141592
 11 0.000000 0.000000 6.030940 -0.114774 0.523252 0.000000
 12 0.000000 0.000000 0.757934 -0.000000 -0.000000 -3.141592
 13 0.000000 0.000000 0.757953 -0.000000 -0.000000 -3.141592
 14 0.000001 1.047682 0.554789 -1.230097 0.005566 0.000000
 15 0.000000 0.000000 4.300853 0.037043 0.000476 -0.000012
 16 0.000000 0.000000 3.909713 0.019083 0.000004 -3.241292
 17 0.000000 0.000000 4.692176 0.114524 0.000608 -3.231340
 18 0.000000 0.000000 5.479362 0.013956 -0.000108 -0.071141
 19 0.645092 -2.464382 2.019449 -0.224235 -0.022422 -0.313098
 20 3.518158 -2.206055 -1.728387 2.911160 1.048239 -3.141592
 21 0.000000 0.000000 4.558179 0.959835 0.765878 0.444254
 22 0.000000 0.000000 11.949879 -0.843672 0.017051 -3.136542
 23 0.000000 0.000000 4.822874 0.000000 0.000000 0.000000
 24 -1.376730 -0.804586 1.281520 -0.659309 1.255116 -3.141592
 25 0.000000 0.000000 1.416892 0.073536 0.071051 -3.141592
 26 0.000000 0.000000 1.920310 0.269862 0.568862 0.000000
 27 0.213890 -0.856740 4.255571 0.528081 0.318569 0.000000
 28 0.000000 0.000000 1.378407 -0.049177 0.309751 -3.141592
 29 0.000000 0.000000 3.006212 0.930783 0.778878 -3.141592
 30 -3.352225 -2.014409 -1.625205 -3.111551 1.200587 0.000000
 31 0.000000 0.000000 4.228487 0.423034 1.000803 0.336847
 32 0.000000 0.000000 13.042765 1.002081 0.091541 -3.383722
 33 0.000000 0.000000 7.153650 0.000000 0.000000 0.000000
 34 -1.945980 -0.135012 0.247196 -3.077445 1.523081 0.000000
 35 0.000000 0.000000 1.172377 -0.535111 0.583828 -3.141592
 36 0.000000 0.000000 1.923266 -0.123086 0.631228 0.000000
 37 0.111389 0.206554 2.803840 0.313340 0.079789 -3.141592
 38 0.000000 0.000000 2.609086 0.476630 0.064040 0.000000
 39 0.000000 0.000000 2.388648 0.340473 0.179722 0.000000
time 5
  0 0.192741 -0.192741 31.223162 1.570796 0.000000 0.000000
  1 0.000000 -6.750002 -3.510001 0.000000 0.000000 0.000000
  2 3.007735 -0.000004 -0.000002 0.749850 0.244145 -0.011601
  3 0.000000 0.000000 12.794512 1.340308 0.515708 0.066291
  4 0.000000 0.000000 14.050400 0.821108 1.470961 -3.141592
  5 0.000000 0.000000 6.031133 0.148828 0.668728 0.013770
  6 0.000000 0.000000 0.757964 -0.000001 0.000000 0.000000
  7 0.000000 0.000000 0.757950 -0.000002 0.000000 0.000000
  8 -3.007735 0.000004 0.000005 -0.716053 0.235931 -3.130399
  9 0.000000 0.000000 12.794530 -1.380798 0.577154 -0.064647
 10 0.000000 0.000000 13.961749 -0.758599 1.496077 -3.141592
 11 0.000000 0.000000 6.030940 -0.114774 0.523252 0.000000
 12 0.000000 0.000000 0.757934 -0.000000 -0.000000 -3.141592
 13 0.000000 0.000000 0.757953 -0.000000 -0.000000 -3.141592
 14 0.000001 1.047682 0.554789 -1.230097 0.005566 0.000000
 15 0.000000 0.000000 4.300853 0.028893 0.000476 -0.000012
 16 0.000000 0.000000 3.909713 0.026070 0.000184 -3.266213
 17 0.000000 0.000000 4.692176 0.114524 0.000608 -3.253787
 18 0.000000 0.000000 5.479362 0.017455 0.000012 -0.088926
 19 0.645092 -2.464382 2.019449 -0.253964 -0.074779 -0.386896
 20 3.518158 -2.206055 -1.728387 2.911160 1.048239 -3.141592
 21 0.000000 0.000000 4.558179 1.102433 0.716258 0.528553
 22 0.000000 0.000000 11.949879 -0.966795 0.020522 -3.136322
 23 0.000000 0.000000 4.822874 0.000000 0.000000 0.000000
 24 -1.376730 -0.804586 1.281520 -0.659309 1.255116 -3.141592
 25 0.000000 0.000000 1.416892 0.073536 0.071051 -3.141592
 26 0.000000 0.000000 1.920310 0.269862 0.568862 0.000000
 27 0.213890 -0.856740 4.255571 0.528081 0.318569 0.000000
 28 0.000000 0.000000 1.378407 -0.049177 0.309751 -3.141592
 29 0.000000 0.000000 3.006212 0.930783 0.778878 -3.141592
 30 -3.352225 -2.014409 -1.625205 -3.111551 1.200587 0.000000
 31 0.000000 0.000000 4.228487 0.526478 0.981467 0.410794
 32 0.000000 0.000000 13.042765 1.140329 0.095539 -3.447197
 33 0.000000 0.000000 7.153650 0.000000 0.000000 0.000000
 34 -1.945980 -0.135012 0.247196 -3.077445 1.523081 0.000000
 35 0.000000 0.000000 1.172377 -0.535111 0.583828 -3.141592
 36 0.000000 0.000000 1.923266 -0.123086 0.631228 0.000000
 37 0.111389 0.206554 2.803840 0.313340 0.079789 -3.141592
 38 0.000000 0.000000 2.609086 0.476630 0.064040 0.000000
 39 0.000000 0.000000 2.388648 0.340473 0.179722 0.000000
time 6
  0 0.192741 -0.192741 31.078627 1.570796 0.000000 0.000000
  1 0.000000 -6.750002 -3.510001 0.000000 0.000000 0.000000
  2 3.007735 -0.000004 -0.000002 0.740274 0.244025 -0.013914
  3 0.000000 0.000000 12.794512 1.366987 0.514018 0.079427
  4 0.000000 0.000000 14.050400 0.821108 1.470961 -3.141592
  5 0.000000 0.000000 6.031133 0.156798 0.697704 0.017533
  6 0.000000 0.000000 0.757964 -0.000001 0.000000 0.000000
  7 0.000000 0.000000 0.757950 -0.000002 0.000000 0.000000
  8 -3.007735 0.000004 0.000005 -0.706475 0.235811 -3.128170
  9 0.000000 0.000000 12.794530 -1.404332 0.575761 -0.077477
 10 0.000000 0.000000 13.961749 -0.758599 1.503036 -3.141592
 11 0.000000 0.000000 6.030940 -0.114774 0.523252 0.000000
 12 0.000000 0.000000 0.757934 -0.000000 -0.000000 -3.141592
 13 0.000000 0.000000 0.757953 -0.000000 -0.000000 -3.141592
 14 0.000001 1.047682 0.554789 -1.230097 0.005566 0.000000
 15 0.000000 0.000000 4.300853 0.020756 0.000476 -0.000012
 16 0.000000 0.000000 3.909713 0.033045 0.000532 -3.291147
 17 0.000000 0.000000 4.692176 0.114524 0.000608 -3.276220
 18 0.000000 0.000000 5.479362 0.020934 0.000204 -0.106711
 19 0.645092 -2.464382 2.019449 -0.279901 -0.129165 -0.459462
 20 3.518158 -2.206055 -1.728387 2.911160 1.048239 -3.141592
 21 0.000000 0.000000 4.558179 1.233251 0.658650 0.599559
 22 0.000000 0.000000 11.949879 -1.089964 0.023993 -3.136511
 23 0.000000 0.000000 4.822874 0.000000 0.000000 0.000000
 24 -1.376730 -0.804586 1.281520 -0.659309 1.255116 -3.141592
 25 0.000000 0.000000 1.416892 0.073536 0.071051 -3.141592
 26 0.000000 0.000000 1.920310 0.269862 0.568862 0.000000
 27 0.213890 -0.856740 4.255571 0.528081 0.318569 0.000000
 28 0.000000 0.000000 1.378407 -0.049177 0.309751 -3.141592
 29 0.000000 0.000000 3.006212 0.930783 0.778878 -3.141592
 30 -3.352225 -2.014409 -1.625205 -3.111551 1.200587 0.000000
 31 0.000000 0.000000 4.228487 0.623955 0.958103 0.478630
 32 0.000000 0.000000 13.042765 1.278230 0.108219 -3.509576
 33 0.000000 0.000000 7.153650 0.000000 0.000000 0.000000
 34 -1.945980 -0.135012 0.247196 -3.077445 1.523081 0.000000
 35 0.000000 0.000000 1.172377 -0.535111 0.583828 -3.141592
 36 0.000000 0.000000 1.923266 -0.123086 0.631228 0.000000
 37 0.111389 0.206554 2.803840 0.313340 0.079789 -3.141592
 38 0.000000 0.000000 2.609086 0.476630 0.064040 0.000000
 39 0.000000 0.000000 2.388648 0.340473 0.179722 0.000000
time 7
  0 0.192741 -0.192741 30.949717 1.570796 0.000000 0.000000
  1 0.000000 -6.750002 -3.510001 0.000000 0.000000 0.000000
  2 3.007735 -0.000004 -0.000002 0.730697 0.243882 -0.016227
  3 0.000000 0.000000 12.794512 1.393594 0.512017 0.092490
  4 0.000000 0.000000 14.050400 0.821108 1.470961 -3.141592
  5 0.000000 0.000000 6.031133 0.165115 0.726652 0.021704
  6 0.000000 0.000000 0.757964 -0.000001 0.000000 0.000000
  7 0.000000 0.000000 0.757950 -0.000002 0.000000 0.000000
  8 -3.007735 0.000004 0.000005 -0.696897 0.235680 -3.125928
  9 0.000000 0.000000 12.794530 -1.427828 0.574089 -0.090228
 10 0.000000 0.000000 13.961749 -0.758599 1.510031 -3.141592
 11 0.000000 0.000000 6.030940 -0.114774 0.523252 0.000000
 12 0.000000 0.000000 0.757934 -0.000000 -0.000000 -3.141592
 13 0.000000 0.000000 0.757953 -0.000000 -0.000000 -3.141592
 14 0.000001 1.047682 0.554789 -1.230097 0.005566 0.000000
 15 0.000000 0.000000 4.300853 0.012606 0.000476 -0.000024
 16 0.000000 0.000000 3.909713 0.040020 0.001047 -3.316069
 17 0.000000 0.000000 4.692176 0.114524 0.000608 -3.298667
 18 0.000000 0.000000 5.479362 0.024433 0.000443 -0.124496
 19 0.645092 -2.464382 2.019449 -0.301988 -0.185261 -0.531253
 20 3.518158 -2.206055 -1.728387 2.911160 1.048239 -3.141592
 21 0.000000 0.000000 4.558179 1.353153 0.594623 0.657896
 22 0.000000 0.000000 11.949879 -1.213087 0.027413 -3.137107
 23 0.000000 0.000000 4.822874 0.000000 0.000000 0.000000
 24 -1.376730 -0.804586 1.281520 -0.659309 1.255116 -3.141592
 25 0.000000 0.000000 1.416892 0.073536 0.071051 -3.141592
 26 0.000000 0.000000 1.920310 0.269862 0.568862 0.000000
 27 0.213890 -0.856740 4.255571 0.528081 0.318569 0.000000
 28 0.000000 0.000000 1.378407 -0.049177 0.309751 -3.141592
 29 0.000000 0.000000 3.006212 0.930783 0.778878 -3.141592
 30 -3.352225 -2.014409 -1.625205 -3.111551 1.200587 0.000000
 31 0.000000 0.000000 4.228487 0.715335 0.931247 0.539998
 32 0.000000 0.000000 13.042765 1.415289 0.129282 -3.569705
 33 0.000000 0.000000 7.153650 0.000000 0.000000 0.000000
 34 -1.945980 -0.135012 0.247196 -3.077445 1.523081 0.000000
 35 0.000000 0.000000 1.172377 -0.535111 0.583828 -3.141592
 36 0.000000 0.000000 1.923266 -0.123086 0.631228 0.000000
 37 0.111389 0.206554 2.803840 0.313340 0.079789 -3.141592
 38 0.000000 0.000000 2.609086 0.476630 0.064040 0.000000
 39 0.000000 0.000000 2.388648 0.340473 0.179722 0.000000
time 8
  0 0.192741 -0.192741 30.824713 1.570796 0.000000 0.000000
  1 0.000000 -6.750002 -3.510001 0.000000 0.000000 0.000000
  2 3.007735 -0.000004 -0.000002 0.721082 0.243726 -0.018552
  3 0.000000 0.000000 12.794512 1.420128 0.509716 0.105465
  4 0.000000 0.000000 14.050400 0.821108 1.470961 -3.141592
  5 0.000000 0.000000 6.031133 0.173816 0.755575 0.026306
  6 0.000000 0.000000 0.757964 -0.000001 0.000000 0.000000
  7 0.000000 0.000000 0.757950 -0.000002 0.000000 0.000000
  8 -3.007735 0.000004 0.000005 -0.687320 0.235524 -3.123699
  9 0.000000 0.000000 12.794530 -1.451251 0.572180 -0.102954
 10 0.000000 0.000000 13.961749 -0.758599 1.516990 -3.141592
 11 0.000000 0.000000 6.030940 -0.114774 0.523252 0.000000
 12 0.000000 0.000000 0.757934 -0.000000 -0.000000 -3.141592
 13 0.000000 0.000000 0.757953 -0.000000 -0.000000 -3.141592
 14 0.000001 1.047682 0.554789 -1.230097 0.005566 0.000000
 15 0.000000 0.000000 4.300853 0.004469 0.000476 -0.000024
 16 0.000000 0.000000 3.909713 0.046995 0.001574 -3.294247
 17 0.000000 0.000000 4.692176 0.114524 0.000608 -3.279031
 18 0.000000 0.000000 5.479362 0.027911 0.000683 -0.100203
 19 0.645092 -2.464382 2.019449 -0.310781 -0.143076 -0.468536
 20 3.518158 -2.206055 -1.728387 2.911160 1.048239 -3.141592
 21 0.000000 0.000000 4.558179 1.330073 0.616980 0.628571
 22 0.000000 0.000000 11.949879 -1.144505 0.029719 -3.132653
 23 0.000000 0.000000 4.822874 0.000000 0.000000 0.000000
 24 -1.376730 -0.804586 1.281520 -0.659309 1.255116 -3.141592
 25 0.000000 0.000000 1.416892 0.073536 0.071051 -3.141592
 26 0.000000 0.000000 1.920310 0.269862 0.568862 0.000000
 27 0.213890 -0.856740 4.255571 0.528081 0.318569 0.000000
 28 0.000000 0.000000 1.378407 -0.049177 0.309751 -3.141592
 29 0.000000 0.000000 3.006212 0.930783 0.778878 -3.141592
 30 -3.352225 -2.014409 -1.625205 -3.111551 1.200587 0.000000
 31 0.000000 0.000000 4.228487 0.639228 0.958841 0.465782
 32 0.000000 0.000000 13.042765 1.358594 0.125370 -3.515231
 33 0.000000 0.000000 7.153650 0.000000 0.000000 0.000000
 34 -1.945980 -0.135012 0.247196 -3.077445 1.523081 0.000000
 35 0.000000 0.000000 1.172377 -0.535111 0.583828 -3.141592
 36 0.000000 0.000000 1.923266 -0.123086 0.631228 0.000000
 37 0.111389 0.206554 2.803840 0.313340 0.079789 -3.141592
 38 0.000000 0.000000 2.609086 0.476630 0.064040 0.000000
 39 0.000000 0.000000 2.388648 0.340473 0.179722 0.000000
time 9
  0 0.192741 -0.192741 30.691896 1.570796 0.000000 0.000000
  1 0.000000 -6.750002 -3.510001 0.000000 0.000000 0.000000
  2 3.007735 -0.000004 -0.000002 0.711505 0.243546 -0.020865
  3 0.000000 0.000000 12.794512 1.446590 0.507115 0.118353
  4 0.000000 0.000000 14.050400 0.821108 1.470961 -3.141592
  5 0.000000 0.000000 6.031133 0.182960 0.784471 0.031400
  6 0.000000 0.000000 0.757964 -0.000001 0.000000 0.000000
  7 0.000000 0.000000 0.757950 -0.000002 0.000000 0.000000
  8 -3.007735 0.000004 0.000005 -0.677783 0.235344 -3.121458
  9 0.000000 0.000000 12.794530 -1.474636 0.570036 -0.115575
 10 0.000000 0.000000 13.961749 -0.758599 1.523985 -3.141592
 11 0.000000 0.000000 6.030940 -0.114774 0.523252 0.000000
 12 0.000000 0.000000 0.757934 -0.000000 -0.000000 -3.141592
 13 0.000000 0.000000 0.757953 -0.000000 -0.000000 -3.141592
 14 0.000001 1.047682 0.554789 -1.230097 0.005566 0.000000
 15 0.000000 0.000000 4.300853 -0.003681 0.000476 -0.000024
 16 0.000000 0.000000 3.909713 0.053970 0.001958 -3.272425
 17 0.000000 0.000000 4.692176 0.114524 0.000608 -3.259395
 18 0.000000 0.000000 5.479362 0.031411 0.000839 -0.075910
 19 0.645092 -2.464382 2.019449 -0.316853 -0.100440 -0.406490
 20 3.518158 -2.206055 -1.728387 2.911160 1.048239 -3.141592
 21 0.000000 0.000000 4.558179 1.305843 0.638767 0.598073
 22 0.000000 0.000000 11.949879 -1.075923 0.031739 -3.128042
 23 0.000000 0.000000 4.822874 0.000000 0.000000 0.000000
 24 -1.376730 -0.804586 1.281520 -0.659309 1.255116 -3.141592
 25 0.000000 0.000000 1.416892 0.073536 0.071051 -3.141592
 26 0.000000 0.000000 1.920310 0.269862 0.568862 0.000000
 27 0.213890 -0.856740 4.255571 0.528081 0.318569 0.000000
 28 0.000000 0.000000 1.378407 -0.049177 0.309751 -3.141592
 29 0.000000 0.000000 3.006212 0.930783 0.778878 -3.141592
 30 -3.352225 -2.014409 -1.625205 -3.111551 1.200587 0.000000
 31 0.000000 0.000000 4.228487 0.556832 0.982944 0.385097
 32 0.000000 0.000000 13.042765 1.301750 0.124510 -3.460642
 33 0.000000 0.000000 7.153650 0.000000 0.000000 0.000000
 34 -1.945980 -0.135012 0.247196 -3.077445 1.523081 0.000000
 35 0.000000 0.000000 1.172377 -0.535111 0.583828 -3.141592
 36 0.000000 0.000000 1.923266 -0.123086 0.631228 0.000000
 37 0.111389 0.206554 2.803840 0.313340 0.079789 -3.141592
 38 0.000000 0.000000 2.609086 0.476630 0.064040 0.000000
 39 0.000000 0.000000 2.388648 0.340473 0.179722 0.000000
time 10
  0 0.192741 -0.192741 30.562986 1.570796 0.000000 0.000000
  1 0.000000 -6.750002 -3.510001 0.000000 0.000000 0.000000
  2 3.007735 -0.000004 -0.000002 0.701928 0.243330 -0.023166
  3 0.000000 0.000000 12.794512 1.473016 0.504227 0.131138
  4 0.000000 0.000000 14.050400 0.821108 1.470961 -3.141592
  5 0.000000 0.000000 6.031133 0.192584 0.813327 0.037032
  6 0.000000 0.000000 0.757964 -0.000001 0.000000 0.000000
  7 0.000000 0.000000 0.757950 -0.000002 0.000000 0.000000
  8 -3.007735 0.000004 0.000005 -0.668206 0.235152 -3.119229
  9 0.000000 0.000000 12.794530 -1.497947 0.567635 -0.128144
 10 0.000000 0.000000 13.961749 -0.758599 1.530981 -3.141592
 11 0.000000 0.000000 6.030940 -0.114774 0.523252 0.000000
 12 0.000000 0.000000 0.757934 -0.000000 -0.000000 -3.141592
 13 0.000000 0.000000 0.757953 -0.000000 -0.000000 -3.141592
 14 0.000001 1.047682 0.554789 -1.230097 0.005566 0.000000
 15 0.000000 0.000000 4.300853 -0.011830 0.000476 -0.000036
 16 0.000000 0.000000 3.909713 0.060957 0.002186 -3.250603
 17 0.000000 0.000000 4.692176 0.114524 0.000608 -3.239759
 18 0.000000 0.000000 5.479362 0.034910 0.000911 -0.051630
 19 0.645092 -2.464382 2.019449 -0.320263 -0.057499 -0.344951
 20 3.518158 -2.206055 -1.728387 2.911160 1.048239 -3.141592
 21 0.000000 0.000000 4.558179 1.280369 0.659926 0.566480
 22 0.000000 0.000000 11.949879 -1.007342 0.033423 -3.123305
 23 0.000000 0.000000 4.822874 0.000000 0.000000 0.000000
 24 -1.376730 -0.804586 1.281520 -0.659309 1.255116 -3.141592
 25 0.000000 0.000000 1.416892 0.073536 0.071051 -3.141592
 26 0.000000 0.000000 1.920310 0.269862 0.568862 0.000000
 27 0.213890 -0.856740 4.255571 0.528081 0.318569 0.000000
 28 0.000000 0.000000 1.378407 -0.049177 0.309751 -3.141592
 29 0.000000 0.000000 3.006212 0.930783 0.778878 -3.141592
 30 -3.352225 -2.014409 -1.625205 -3.111551 1.200587 0.000000
 31 0.000000 0.000000 4.228487 0.468211 1.002951 0.298212
 32 0.000000 0.000000 13.042765 1.245005 0.126745 -3.406111
 33 0.000000 0.000000 7.153650 0.000000 0.000000 0.000000
 34 -1.945980 -0.135012 0.247196 -3.077445 1.523081 0.000000
 35 0.000000 0.000000 1.172377 -0.535111 0.583828 -3.141592
 36 0.000000 0.000000 1.923266 -0.123086 0.631228 0.000000
 37 0.111389 0.206554 2.803840 0.313340 0.079789 -3.141592
 38 0.000000 0.000000 2.609086 0.476630 0.064040 0.000000
 39 0.000000 0.000000 2.388648 0.340473 0.179722 0.000000
time 11
  0 0.192741 -0.192741 30.445795 1.570796 0.000000 0.000000
  1 0.000000 -6.750002 -3.510001 0.000000 0.000000 0.000000
  2 3.007735 -0.000004 -0.000002 0.692313 0.243115 -0.025479
  3 0.000000 0.000000 12.794512 1.499296 0.501027 0.143821
  4 0.000000 0.000000 14.050400 0.821108 1.470961 -3.141592
  5 0.000000 0.000000 6.031133 0.202771 0.842143 0.043264
  6 0.000000 0.000000 0.757964 -0.000001 0.000000 0.000000
  7 0.000000 0.000000 0.757950 -0.000002 0.000000 0.000000
  8 -3.007735 0.000004 0.000005 -0.658628 0.234925 -3.117000
  9 0.000000 0.000000 12.794530 -1.521147 0.564977 -0.140582
 10 0.000000 0.000000 13.961749 -0.758599 1.537939 -3.141592
 11 0.000000 0.000000 6.030940 -0.114774 0.523252 0.000000
 12 0.000000 0.000000 0.757934 -0.000000 -0.000000 -3.141592
 13 0.000000 0.000000 0.757953 -0.000000 -0.000000 -3.141592
 14 0.000001 1.047682 0.554789 -1.230097 0.005566 0.000000
 15 0.000000 0.000000 4.300853 -0.019968 0.000476 -0.000036
 16 0.000000 0.000000 3.909713 0.067944 0.002257 -3.228769
 17 0.000000 0.000000 4.692176 0.114524 0.000608 -3.220123
 18 0.000000 0.000000 5.479362 0.038388 0.000899 -0.027337
 19 0.645092 -2.464382 2.019449 -0.321010 -0.014452 -0.283627
 20 3.518158 -2.206055 -1.728387 2.911160 1.048239 -3.141592
 21 0.000000 0.000000 4.558179 1.253554 0.680418 0.533636
 22 0.000000 0.000000 11.949879 -0.938713 0.034770 -3.118443
 23 0.000000 0.000000 4.822874 0.000000 0.000000 0.000000
 24 -1.376730 -0.804586 1.281520 -0.659309 1.255116 -3.141592
 25 0.000000 0.000000 1.416892 0.073536 0.071051 -3.141592
 26 0.000000 0.000000 1.920310 0.269862 0.568862 0.000000
 27 0.213890 -0.856740 4.255571 0.528081 0.318569 0.000000
 28 0.000000 0.000000 1.378407 -0.049177 0.309751 -3.141592
 29 0.000000 0.000000 3.006212 0.930783 0.778878 -3.141592
 30 -3.352225 -2.014409 -1.625205 -3.111551 1.200587 0.000000
 31 0.000000 0.000000 4.228487 0.374071 1.018661 0.205846
 32 0.000000 0.000000 13.042765 1.188359 0.132033 -3.351696
 33 0.000000 0.000000 7.153650 0.000000 0.000000 0.000000
 34 -1.945980 -0.135012 0.247196 -3.077445 1.523081 0.000000
 35 0.000000 0.000000 1.172377 -0.535111 0.583828 -3.141592
 36 0.000000 0.000000 1.923266 -0.123086 0.631228 0.000000
 37 0.111389 0.206554 2.803840 0.313340 0.079789 -3.141592
 38 0.000000 0.000000 2.609086 0.476630 0.064040 0.000000
 39 0.000000 0.000000 2.388648 0.340473 0.179722 0.000000
time 12
  0 0.192741 -0.192741 30.340322 1.570796 0.000000 0.000000
  1 0.000000 -6.750002 -3.510001 0.000000 0.000000 0.000000
  2 3.007735 -0.000004 -0.000002 0.682736 0.242863 -0.027792
  3 0.000000 0.000000 12.794512 1.525505 0.497551 0.156373
  4 0.000000 0.000000 14.050400 0.821108 1.470961 -3.141592
  5 0.000000 0.000000 6.031133 0.213569 0.870920 0.050156
  6 0.000000 0.000000 0.757964 -0.000001 0.000000 0.000000
  7 0.000000 0.000000 0.757950 -0.000002 0.000000 0.000000
  8 -3.007735 0.000004 0.000005 -0.649050 0.234685 -3.114783
  9 0.000000 0.000000 12.794530 -1.544310 0.562082 -0.152968
 10 0.000000 0.000000 13.961749 -0.758599 1.544935 -3.141592
 11 0.000000 0.000000 6.030940 -0.114774 0.523252 0.000000
 12 0.000000 0.000000 0.757934 -0.000000 -0.000000 -3.141592
 13 0.000000 0.000000 0.757953 -0.000000 -0.000000 -3.141592
 14 0.000001 1.047682 0.554789 -1.230097 0.005566 0.000000
 15 0.000000 0.000000 4.300853 -0.028117 0.000476 -0.000036
 16 0.000000 0.000000 3.909713 0.074931 0.002186 -3.206948
 17 0.000000 0.000000 4.692176 0.114524 0.000608 -3.200487
 18 0.000000 0.000000 5.479362 0.041888 0.000803 -0.003044
 19 0.645092 -2.464382 2.019449 -0.319113 0.028583 -0.222330
 20 3.518158 -2.206055 -1.728387 2.911160 1.048239 -3.141592
 21 0.000000 0.000000 4.558179 1.225494 0.700203 0.499541
 22 0.000000 0.000000 11.949879 -0.870085 0.035781 -3.113519
 23 0.000000 0.000000 4.822874 0.000000 0.000000 0.000000
 24 -1.376730 -0.804586 1.281520 -0.659309 1.255116 -3.141592
 25 0.000000 0.000000 1.416892 0.073536 0.071051 -3.141592
 26 0.000000 0.000000 1.920310 0.269862 0.568862 0.000000
 27 0.213890 -0.856740 4.255571 0.528081 0.318569 0.000000
 28 0.000000 0.000000 1.378407 -0.049177 0.309751 -3.141592
 29 0.000000 0.000000 3.006212 0.930783 0.778878 -3.141592
 30 -3.352225 -2.014409 -1.625205 -3.111551 1.200587 0.000000
 31 0.000000 0.000000 4.228487 0.275440 1.029538 0.108988
 32 0.000000 0.000000 13.042765 1.132109 0.140372 -3.297684
 33 0.000000 0.000000 7.153650 0.000000 0.000000 0.000000
 34 -1.945980 -0.135012 0.247196 -3.077445 1.523081 0.000000
 35 0.000000 0.000000 1.172377 -0.535111 0.583828 -3.141592
 36 0.000000 0.000000 1.923266 -0.123086 0.631228 0.000000
 37 0.111389 0.206554 2.803840 0.313340 0.079789 -3.141592
 38 0.000000 0.000000 2.609086 0.476630 0.064040 0.000000
 39 0.000000 0.000000 2.388648 0.340473 0.179722 0.000000
time 13
  0 0.192741 -0.192741 30.258289 1.570796 0.000000 0.000000
  1 0.000000 -6.750002 -3.510001 0.000000 0.000000 0.000000
  2 3.007735 -0.000004 -0.000002 0.673159 0.242587 -0.030093
  3 0.000000 0.000000 12.794512 1.551605 0.493788 0.168779
  4 0.000000 0.000000 14.050400 0.821108 1.470961 -3.141592
  5 0.000000 0.000000 6.031133 0.225074 0.899631 0.057802
  6 0.000000 0.000000 0.757964 -0.000001 0.000000 0.000000
  7 0.000000 0.000000 0.757950 -0.000002 0.000000 0.000000
  8 -3.007735 0.000004 0.000005 -0.639514 0.234433 -3.112554
  9 0.000000 0.000000 12.794530 -1.567362 0.558952 -0.165223
 10 0.000000 0.000000 13.961749 -0.758599 1.551930 -3.141592
 11 0.000000 0.000000 6.030940 -0.114774 0.523252 0.000000
 12 0.000000 0.000000 0.757934 -0.000000 -0.000000 -3.141592
 13 0.000000 0.000000 0.757953 -0.000000 -0.000000 -3.141592
 14 0.000001 1.047682 0.554789 -1.230097 0.005566 0.000000
 15 0.000000 0.000000 4.300853 -0.036255 0.000476 -0.000048
 16 0.000000 0.000000 3.909713 0.081918 0.001946 -3.185126
 17 0.000000 0.000000 4.692176 0.114524 0.000608 -3.180851
 18 0.000000 0.000000 5.479362 0.045387 0.000611 0.021237
 19 0.645092 -2.464382 2.019449 -0.314573 0.071404 -0.160819
 20 3.518158 -2.206055 -1.728387 2.911160 1.048239 -3.141592
 21 0.000000 0.000000 4.558179 1.196094 0.719222 0.464117
 22 0.000000 0.000000 11.949879 -0.801457 0.036454 -3.108531
 23 0.000000 0.000000 4.822874 0.000000 0.000000 0.000000
 24 -1.376730 -0.804586 1.281520 -0.659309 1.255116 -3.141592
 25 0.000000 0.000000 1.416892 0.073536 0.071051 -3.141592
 26 0.000000 0.000000 1.920310 0.269862 0.568862 0.000000
 27 0.213890 -0.856740 4.255571 0.528081 0.318569 0.000000
 28 0.000000 0.000000 1.378407 -0.049177 0.309751 -3.141592
 29 0.000000 0.000000 3.006212 0.930783 0.778878 -3.141592
 30 -3.352225 -2.014409 -1.625205 -3.111551 1.200587 0.000000
 31 0.000000 0.000000 4.228487 0.173921 1.035245 0.009165
 32 0.000000 0.000000 13.042765 1.076255 0.151676 -3.244134
 33 0.000000 0.000000 7.153650 0.000000 0.000000 0.000000
 34 -1.945980 -0.135012 0.247196 -3.077445 1.523081 0.000000
 35 0.000000 0.000000 1.172377 -0.535111 0.583828 -3.141592
 36 0.000000 0.000000 1.923266 -0.123086 0.631228 0.000000
 37 0.111389 0.206554 2.803840 0.313340 0.079789 -3.141592
 38 0.000000 0.000000 2.609086 0.476630 0.064040 0.000000
 39 0.000000 0.000000 2.388648 0.340473 0.179722 0.000000
time 14
  0 0.192741 -0.192741 30.203600 1.570796 0.000000 0.000000
  1 0.000000 -6.750002 -3.510001 0.000000 0.000000 0.000000
  2 3.007735 -0.000004 -0.000002 0.663582 0.242300 -0.032394
  3 0.000000 0.000000 12.794512 1.577632 0.489737 0.181054
  4 0.000000 0.000000 14.050400 0.821108 1.470961 -3.141592
  5 0.000000 0.000000 6.031133 0.237382 0.928302 0.066275
  6 0.000000 0.000000 0.757964 -0.000001 0.000000 0.000000
  7 0.000000 0.000000 0.757950 -0.000002 0.000000 0.000000
  8 -3.007735 0.000004 0.000005 -0.629936 0.234146 -3.110337
  9 0.000000 0.000000 12.794530 -1.590339 0.555586 -0.177373
 10 0.000000 0.000000 13.961749 -3.900096 1.558888 -0.000000
 11 0.000000 0.000000 6.030940 -0.114774 0.523252 0.000000
 12 0.000000 0.000000 0.757934 -0.000000 -0.000000 -3.141592
 13 0.000000 0.000000 0.757953 -0.000000 -0.000000 -3.141592
 14 0.000001 1.047682 0.554789 -1.230097 0.005566 0.000000
 15 0.000000 0.000000 4.300853 -0.044404 0.000476 -0.000048
 16 0.000000 0.000000 3.909713 0.088905 0.001574 -3.163292
 17 0.000000 0.000000 4.692176 0.114524 0.000608 -3.161215
 18 0.000000 0.000000 5.479362 0.048866 0.000348 0.045517
 19 0.645092 -2.464382 2.019449 -0.307390 0.113868 -0.098879
 20 3.518158 -2.206055 -1.728387 2.911160 1.048239 -3.141592
 21 0.000000 0.000000 4.558179 1.165256 0.737437 0.427441
 22 0.000000 0.000000 11.949879 -0.732829 0.036791 -3.103513
 23 0.000000 0.000000 4.822874 0.000000 0.000000 0.000000
 24 -1.376730 -0.804586 1.281520 -0.659309 1.255116 -3.141592
 25 0.000000 0.000000 1.416892 0.073536 0.071051 -3.141592
 26 0.000000 0.000000 1.920310 0.269862 0.568862 0.000000
 27 0.213890 -0.856740 4.255571 0.528081 0.318569 0.000000
 28 0.000000 0.000000 1.378407 -0.049177 0.309751 -3.141592
 29 0.000000 0.000000 3.006212 0.930783 0.778878 -3.141592
 30 -3.352225 -2.014409 -1.625205 -3.111551 1.200587 0.000000
 31 0.000000 0.000000 4.228487 0.071182 1.035715 -0.091737
 32 0.000000 0.000000 13.042765 1.020996 0.165861 -3.191218
 33 0.000000 0.000000 7.153650 0.000000 0.000000 0.000000
 34 -1.945980 -0.135012 0.247196 -3.077445 1.523081 0.000000
 35 0.000000 0.000000 1.172377 -0.535111 0.583828 -3.141592
 36 0.000000 0.000000 1.923266 -0.123086 0.631228 0.000000
 37 0.111389 0.206554 2.803840 0.313340 0.079789 -3.141592
 38 0.000000 0.000000 2.609086 0.476630 0.064040 0.000000
 39 0.000000 0.000000 2.388648 0.340473 0.179722 0.000000
time 15
  0 0.192741 -0.192741 30.184069 1.570796 0.000000 0.000000
  1 0.000000 -6.750002 -3.510001 0.000000 0.000000 0.000000
  2 3.007735 -0.000004 -0.000002 0.653967 0.241988 -0.034683
  3 0.000000 0.000000 12.794512 1.603515 0.485411 0.193182
  4 0.000000 0.000000 14.050400 0.821108 1.470961 -3.141592
  5 0.000000 0.000000 6.031133 0.250613 0.956881 0.075707
  6 0.000000 0.000000 0.757964 -0.000001 0.000000 0.000000
  7 0.000000 0.000000 0.757950 -0.000002 0.000000 0.000000
  8 -3.007735 0.000004 0.000005 -0.620358 0.233846 -3.108119
  9 0.000000 0.000000 12.794530 -1.613206 0.551962 -0.189393
 10 0.000000 0.000000 13.961749 -3.900096 1.565884 -0.000000
 11 0.000000 0.000000 6.030940 -0.114774 0.523252 0.000000
 12 0.000000 0.000000 0.757934 -0.000000 -0.000000 -3.141592
 13 0.000000 0.000000 0.757953 -0.000000 -0.000000 -3.141592
 14 0.000001 1.047682 0.554789 -1.230097 0.005566 0.000000
 15 0.000000 0.000000 4.300853 -0.052554 0.000476 -0.000048
 16 0.000000 0.000000 3.909713 0.095868 0.001047 -3.141494
 17 0.000000 0.000000 4.692176 0.114524 0.000608 -3.141592
 18 0.000000 0.000000 5.479362 0.052344 0.000000 0.069810
 19 0.645092 -2.464382 2.019449 -0.297506 0.155815 -0.036270
 20 3.518158 -2.206055 -1.728387 2.911160 1.048239 -3.141592
 21 0.000000 0.000000 4.558179 1.133078 0.754769 0.389357
 22 0.000000 0.000000 11.949879 -0.664155 0.036791 -3.098494
 23 0.000000 0.000000 4.822874 0.000000 0.000000 0.000000
 24 -1.376730 -0.804586 1.281520 -0.659309 1.255116 -3.141592
 25 0.000000 0.000000 1.416892 0.073536 0.071051 -3.141592
 26 0.000000 0.000000 1.920310 0.269862 0.568862 0.000000
 27 0.213890 -0.856740 4.255571 0.528081 0.318569 0.000000
 28 0.000000 0.000000 1.378407 -0.049177 0.309751 -3.141592
 29 0.000000 0.000000 3.006212 0.930783 0.778878 -3.141592
 30 -3.352225 -2.014409 -1.625205 -3.111551 1.200587 0.000000
 31 0.000000 0.000000 4.228487 -0.030722 1.031015 -0.191919
 32 0.000000 0.000000 13.042765 0.966429 0.182969 -3.139053
 33 0.000000 0.000000 7.153650 0.000000 0.000000 0.000000
 34 -1.945980 -0.135012 0.247196 -3.077445 1.523081 0.000000
 35 0.000000 0.000000 1.172377 -0.535111 0.583828 -3.141592
 36 0.000000 0.000000 1.923266 -0.123086 0.631228 0.000000
 37 0.111389 0.206554 2.803840 0.313340 0.079789 -3.141592
 38 0.000000 0.000000 2.609086 0.476630 0.064040 0.000000
 39 0.000000 0.000000 2.388648 0.340473 0.179722 0.000000
time 16
  0 0.192741 -0.192741 30.207506 1.570796 0.000000 0.000000
  1 0.000000 -6.750002 -3.510001 0.000000 0.000000 0.000000
  2 3.007735 -0.000004 -0.000002 0.662974 0.242288 -0.032538
  3 0.000000 0.000000 12.794512 1.579225 0.489474 0.181827
  4 0.000000 0.000000 14.050400 0.821108 1.470961 -3.141592
  5 0.000000 0.000000 6.031133 0.238185 0.930088 0.066838
  6 0.000000 0.000000 0.757964 -0.000001 0.000000 0.000000
  7 0.000000 0.000000 0.757950 -0.000002 0.000000 0.000000
  8 -3.007735 0.000004 0.000005 -0.629308 0.234134 -3.110193
  9 0.000000 0.000000 12.794530 -1.591748 0.555350 -0.178105
 10 0.000000 0.000000 13.961749 -3.900096 1.559335 -0.000000
 11 0.000000 0.000000 6.030940 -0.114774 0.523252 0.000000
 12 0.000000 0.000000 0.757934 -0.000000 -0.000000 -3.141592
 13 0.000000 0.000000 0.757953 -0.000000 -0.000000 -3.141592
 14 0.000001 1.047682 0.554789 -1.230097 0.005566 0.000000
 15 0.000000 0.000000 4.300853 -0.044920 0.000578 0.004302
 16 0.000000 0.000000 3.909713 0.089385 -0.000104 -3.091320
 17 0.000000 0.000000 4.692176 0.114524 0.000608 -3.106691
 18 0.000000 0.000000 5.479362 0.049073 -0.000240 0.095985
 19 0.645092 -2.464382 2.019449 -0.307333 0.210187 0.014187
 20 3.518158 -2.206055 -1.728387 2.911160 1.048239 -3.141592
 21 0.000000 0.000000 4.558179 1.082130 0.757949 0.440109
 22 0.000000 0.000000 11.949879 -0.792838 0.061894 -3.129924
 23 0.000000 0.000000 4.822874 0.050156 0.000000 0.000000
 24 -1.376730 -0.804586 1.281520 -0.659309 1.255116 -3.141592
 25 0.000000 0.000000 1.416892 0.073536 0.071051 -3.141592
 26 0.000000 0.000000 1.920310 0.269862 0.568862 0.000000
 27 0.213890 -0.856740 4.255571 0.528081 0.318569 0.000000
 28 0.000000 0.000000 1.378407 -0.049177 0.309751 -3.141592
 29 0.000000 0.000000 3.006212 0.930783 0.778878 -3.141592
 30 -3.352225 -2.014409 -1.625205 -3.111551 1.200587 0.000000
 31 0.000000 0.000000 4.228487 -0.137503 1.001474 -0.173320
 32 0.000000 0.000000 13.042765 0.998466 0.064289 -3.186429
 33 0.000000 0.000000 7.153650 0.000000 0.000000 0.000000
 34 -1.945980 -0.135012 0.247196 -3.077445 1.523081 0.000000
 35 0.000000 0.000000 1.172377 -0.535111 0.583828 -3.141592
 36 0.000000 0.000000 1.923266 -0.123086 0.631228 0.000000
 37 0.111389 0.206554 2.803840 0.313340 0.079789 -3.141592
 38 0.000000 0.000000 2.609086 0.476630 0.064040 0.000000
 39 0.000000 0.000000 2.388648 0.340473 0.179722 0.000000
time 17
  0 0.192741 -0.192741 30.262196 1.570796 0.000000 0.000000
  1 0.000000 -6.750002 -3.510001 0.000000 0.000000 0.000000
  2 3.007735 -0.000004 -0.000002 0.671943 0.242551 -0.030381
  3 0.000000 0.000000 12.794512 1.554863 0.493297 0.170326
  4 0.000000 0.000000 14.050400 0.821108 1.470961 -3.141592
  5 0.000000 0.000000 6.031133 0.226572 0.903228 0.058808
  6 0.000000 0.000000 0.757964 -0.000001 0.000000 0.000000
  7 0.000000 0.000000 0.757950 -0.000002 0.000000 0.000000
  8 -3.007735 0.000004 0.000005 -0.638301 0.234397 -3.112278
  9 0.000000 0.000000 12.794530 -1.570252 0.558544 -0.166738
 10 0.000000 0.000000 13.961749 -0.758599 1.552786 -3.141592
 11 0.000000 0.000000 6.030940 -0.114774 0.523252 0.000000
 12 0.000000 0.000000 0.757934 -0.000000 -0.000000 -3.141592
 13 0.000000 0.000000 0.757953 -0.000000 -0.000000 -3.141592
 14 0.000001 1.047682 0.554789 -1.230097 0.005566 0.000000
 15 0.000000 0.000000 4.300853 -0.037274 0.000663 0.008665
 16 0.000000 0.000000 3.909713 0.082853 -0.000930 -3.041158
 17 0.000000 0.000000 4.692176 0.114524 0.000608 -3.071790
 18 0.000000 0.000000 5.479362 0.045801 -0.000395 0.122171
 19 0.645092 -2.464382 2.019449 -0.314439 0.264998 0.064804
 20 3.518158 -2.206055 -1.728387 2.911160 1.048239 -3.141592
 21 0.000000 0.000000 4.558179 1.031182 0.763013 0.490704
 22 0.000000 0.000000 11.949879 -0.922448 0.082749 -3.164333
 23 0.000000 0.000000 4.822874 0.100344 0.000000 0.000000
 24 -1.376730 -0.804586 1.281520 -0.659309 1.255116 -3.141592
 25 0.000000 0.000000 1.416892 0.073536 0.071051 -3.141592
 26 0.000000 0.000000 1.920310 0.269862 0.568862 0.000000
 27 0.213890 -0.856740 4.255571 0.528081 0.318569 0.000000
 28 0.000000 0.000000 1.378407 -0.049177 0.309751 -3.141592
 29 0.000000 0.000000 3.006212 0.930783 0.778878 -3.141592
 30 -3.352225 -2.014409 -1.625205 -3.111551 1.200587 0.000000
 31 0.000000 0.000000 4.228487 -0.240627 0.973074 -0.150049
 32 0.000000 0.000000 13.042765 1.036049 -0.052714 -3.237613
 33 0.000000 0.000000 7.153650 0.000000 0.000000 0.000000
 34 -1.945980 -0.135012 0.247196 -3.077445 1.523081 0.000000
 35 0.000000 0.000000 1.172377 -0.535111 0.583828 -3.141592
 36 0.000000 0.000000 1.923266 -0.123086 0.631228 0.000000
 37 0.111389 0.206554 2.803840 0.313340 0.079789 -3.141592
 38 0.000000 0.000000 2.609086 0.476630 0.064040 0.000000
 39 0.000000 0.000000 2.388648 0.340473 0.179722 0.000000
time 18
  0 0.192741 -0.192741 30.352041 1.570796 0.000000 0.000000
  1 0.000000 -6.750002 -3.510001 0.000000 0.000000 0.000000
  2 3.007735 -0.000004 -0.000002 0.680950 0.242815 -0.028224
  3 0.000000 0.000000 12.794512 1.530428 0.496868 0.158708
  4 0.000000 0.000000 14.050400 0.821108 1.470961 -3.141592
  5 0.000000 0.000000 6.031133 0.215666 0.876303 0.051534
  6 0.000000 0.000000 0.757964 -0.000001 0.000000 0.000000
  7 0.000000 0.000000 0.757950 -0.000002 0.000000 0.000000
  8 -3.007735 0.000004 0.000005 -0.647251 0.234637 -3.114363
  9 0.000000 0.000000 12.794530 -1.548646 0.561525 -0.155267
 10 0.000000 0.000000 13.961749 -0.758599 1.546237 -3.141592
 11 0.000000 0.000000 6.030940 -0.114774 0.523252 0.000000
 12 0.000000 0.000000 0.757934 -0.000000 -0.000000 -3.141592
 13 0.000000 0.000000 0.757953 -0.000000 -0.000000 -3.141592
 14 0.000001 1.047682 0.554789 -1.230097 0.005566 0.000000
 15 0.000000 0.000000 4.300853 -0.029639 0.000714 0.013039
 16 0.000000 0.000000 3.909713 0.076274 -0.001422 -2.990983
 17 0.000000 0.000000 4.692176 0.114524 0.000608 -3.036875
 18 0.000000 0.000000 5.479362 0.042530 -0.000467 0.148345
 19 0.645092 -2.464382 2.019449 -0.318730 0.320087 0.115823
 20 3.518158 -2.206055 -1.728387 2.911160 1.048239 -3.141592
 21 0.000000 0.000000 4.558179 0.980329 0.769922 0.541300
 22 0.000000 0.000000 11.949879 -1.052893 0.098992 -3.201284
 23 0.000000 0.000000 4.822874 0.150532 0.000000 0.000000
 24 -1.376730 -0.804586 1.281520 -0.659309 1.255116 -3.141592
 25 0.000000 0.000000 1.416892 0.073536 0.071051 -3.141592
 26 0.000000 0.000000 1.920310 0.269862 0.568862 0.000000
 27 0.213890 -0.856740 4.255571 0.528081 0.318569 0.000000
 28 0.000000 0.000000 1.378407 -0.049177 0.309751 -3.141592
 29 0.000000 0.000000 3.006212 0.930783 0.778878 -3.141592
 30 -3.352225 -2.014409 -1.625205 -3.111551 1.200587 0.000000
 31 0.000000 0.000000 4.228487 -0.340927 0.946085 -0.122825
 32 0.000000 0.000000 13.042765 1.080117 -0.167526 -3.293818
 33 0.000000 0.000000 7.153650 0.000000 0.000000 0.000000
 34 -1.945980 -0.135012 0.247196 -3.077445 1.523081 0.000000
 35 0.000000 0.000000 1.172377 -0.535111 0.583828 -3.141592
 36 0.000000 0.000000 1.923266 -0.123086 0.631228 0.000000
 37 0.111389 0.206554 2.803840 0.313340 0.079789 -3.141592
 38 0.000000 0.000000 2.609086 0.476630 0.064040 0.000000
 39 0.000000 0.000000 2.388648 0.340473 0.179722 0.000000
time 19
  0 0.192741 -0.192741 30.457514 1.570796 0.000000 0.000000
  1 0.000000 -6.750002 -3.510001 0.000000 0.000000 0.000000
  2 3.007735 -0.000004 -0.000002 0.689919 0.243055 -0.026054
  3 0.000000 0.000000 12.794512 1.505849 0.500188 0.146974
  4 0.000000 0.000000 14.050400 0.821108 1.470961 -3.141592
  5 0.000000 0.000000 6.031133 0.205407 0.849338 0.044918
  6 0.000000 0.000000 0.757964 -0.000001 0.000000 0.000000
  7 0.000000 0.000000 0.757950 -0.000002 0.000000 0.000000
  8 -3.007735 0.000004 0.000005 -0.656244 0.234865 -3.116449
  9 0.000000 0.000000 12.794530 -1.526965 0.564269 -0.143691
 10 0.000000 0.000000 13.961749 -0.758599 1.539688 -3.141592
 11 0.000000 0.000000 6.030940 -0.114774 0.523252 0.000000
 12 0.000000 0.000000 0.757934 -0.000000 -0.000000 -3.141592
 13 0.000000 0.000000 0.757953 -0.000000 -0.000000 -3.141592
 14 0.000001 1.047682 0.554789 -1.230097 0.005566 0.000000
 15 0.000000 0.000000 4.300853 -0.022005 0.000731 0.017402
 16 0.000000 0.000000 3.909713 0.069694 -0.001590 -2.940809
 17 0.000000 0.000000 4.692176 0.114524 0.000608 -3.001974
 18 0.000000 0.000000 5.479362 0.039237 -0.000455 0.174532
 19 0.645092 -2.464382 2.019449 -0.320090 0.375308 0.167644
 20 3.518158 -2.206055 -1.728387 2.911160 1.048239 -3.141592
 21 0.000000 0.000000 4.558179 0.929764 0.778676 0.591661
 22 0.000000 0.000000 11.949879 -1.184079 0.110287 -3.240053
 23 0.000000 0.000000 4.822874 0.200688 0.000000 0.000000
 24 -1.376730 -0.804586 1.281520 -0.659309 1.255116 -3.141592
 25 0.000000 0.000000 1.416892 0.073536 0.071051 -3.141592
 26 0.000000 0.000000 1.920310 0.269862 0.568862 0.000000
 27 0.213890 -0.856740 4.255571 0.528081 0.318569 0.000000
 28 0.000000 0.000000 1.378407 -0.049177 0.309751 -3.141592
 29 0.000000 0.000000 3.006212 0.930783 0.778878 -3.141592
 30 -3.352225 -2.014409 -1.625205 -3.111551 1.200587 0.000000
 31 0.000000 0.000000 4.228487 -0.438852 0.920841 -0.092096
 32 0.000000 0.000000 13.042765 1.132010 -0.279543 -3.356716
 33 0.000000 0.000000 7.153650 0.000000 0.000000 0.000000
 34 -1.945980 -0.135012 0.247196 -3.077445 1.523081 0.000000
 35 0.000000 0.000000 1.172377 -0.535111 0.583828 -3.141592
 36 0.000000 0.000000 1.923266 -0.123086 0.631228 0.000000
 37 0.111389 0.206554 2.803840 0.313340 0.079789 -3.141592
 38 0.000000 0.000000 2.609086 0.476630 0.064040 0.000000
 39 0.000000 0.000000 2.388648 0.340473 0.179722 0.000000
time 20
  0 0.192741 -0.192741 30.582518 1.570796 0.000000 0.000000
  1 0.000000 -6.750002 -3.510001 0.000000 0.000000 0.000000
  2 3.007735 -0.000004 -0.000002 0.698926 0.243270 -0.023897
  3 0.000000 0.000000 12.794512 1.481233 0.503256 0.135122
  4 0.000000 0.000000 14.050400 0.821108 1.470961 -3.141592
  5 0.000000 0.000000 6.031133 0.195712 0.822333 0.038914
  6 0.000000 0.000000 0.757964 -0.000001 0.000000 0.000000
  7 0.000000 0.000000 0.757950 -0.000002 0.000000 0.000000
  8 -3.007735 0.000004 0.000005 -0.665194 0.235080 -3.118534
  9 0.000000 0.000000 12.794530 -1.505211 0.566820 -0.132037
 10 0.000000 0.000000 13.961749 -0.758599 1.533139 -3.141592
 11 0.000000 0.000000 6.030940 -0.114774 0.523252 0.000000
 12 0.000000 0.000000 0.757934 -0.000000 -0.000000 -3.141592
 13 0.000000 0.000000 0.757953 -0.000000 -0.000000 -3.141592
 14 0.000001 1.047682 0.554789 -1.230097 0.005566 0.000000
 15 0.000000 0.000000 4.300853 -0.014371 0.000714 0.021776
 16 0.000000 0.000000 3.909713 0.063102 -0.001422 -2.890623
 17 0.000000 0.000000 4.692176 0.114524 0.000608 -2.967073
 18 0.000000 0.000000 5.479362 0.035966 -0.000348 0.200706
 19 0.645092 -2.464382 2.019449 -0.318328 0.430529 0.220590
 20 3.518158 -2.206055 -1.728387 2.911160 1.048239 -3.141592
 21 0.000000 0.000000 4.558179 0.879294 0.789255 0.641787
 22 0.000000 0.000000 11.949879 -1.315681 0.116427 -3.280046
 23 0.000000 0.000000 4.822874 0.250876 0.000000 0.000000
 24 -1.376730 -0.804586 1.281520 -0.659309 1.255116 -3.141592
 25 0.000000 0.000000 1.416892 0.073536 0.071051 -3.141592
 26 0.000000 0.000000 1.920310 0.269862 0.568862 0.000000
 27 0.213890 -0.856740 4.255571 0.528081 0.318569 0.000000
 28 0.000000 0.000000 1.378407 -0.049177 0.309751 -3.141592
 29 0.000000 0.000000 3.006212 0.930783 0.778878 -3.141592
 30 -3.352225 -2.014409 -1.625205 -3.111551 1.200587 0.000000
 31 0.000000 0.000000 4.228487 -0.534981 0.897409 -0.058582
 32 0.000000 0.000000 13.042765 1.193360 -0.387907 -3.428270
 33 0.000000 0.000000 7.153650 0.000000 0.000000 0.000000
 34 -1.945980 -0.135012 0.247196 -3.077445 1.523081 0.000000
 35 0.000000 0.000000 1.172377 -0.535111 0.583828 -3.141592
 36 0.000000 0.000000 1.923266 -0.123086 0.631228 0.000000
 37 0.111389 0.206554 2.803840 0.313340 0.079789 -3.141592
 38 0.000000 0.000000 2.609086 0.476630 0.064040 0.000000
 39 0.000000 0.000000 2.388648 0.340473 0.179722 0.000000
time 21
  0 0.192741 -0.192741 30.711428 1.570796 0.000000 0.000000
  1 0.000000 -6.750002 -3.510001 0.000000 0.000000 0.000000
  2 3.007735 -0.000004 -0.000002 0.707895 0.243462 -0.021728
  3 0.000000 0.000000 12.794512 1.456509 0.506072 0.123169
  4 0.000000 0.000000 14.050400 0.821108 1.470961 -3.141592
  5 0.000000 0.000000 6.031133 0.186508 0.795302 0.033449
  6 0.000000 0.000000 0.757964 -0.000001 0.000000 0.000000
  7 0.000000 0.000000 0.757950 -0.000002 0.000000 0.000000
  8 -3.007735 0.000004 0.000005 -0.674187 0.235272 -3.120631
  9 0.000000 0.000000 12.794530 -1.483382 0.569157 -0.120305
 10 0.000000 0.000000 13.961749 -0.758599 1.526590 -3.141592
 11 0.000000 0.000000 6.030940 -0.114774 0.523252 0.000000
 12 0.000000 0.000000 0.757934 -0.000000 -0.000000 -3.141592
 13 0.000000 0.000000 0.757953 -0.000000 -0.000000 -3.141592
 14 0.000001 1.047682 0.554789 -1.230097 0.005566 0.000000
 15 0.000000 0.000000 4.300853 -0.006737 0.000663 0.026138
 16 0.000000 0.000000 3.909713 0.056535 -0.000930 -2.840448
 17 0.000000 0.000000 4.692176 0.114524 0.000608 -2.932159
 18 0.000000 0.000000 5.479362 0.032694 -0.000168 0.226892
 19 0.645092 -2.464382 2.019449 -0.313233 0.485578 0.275115
 20 3.518158 -2.206055 -1.728387 2.911160 1.048239 -3.141592
 21 0.000000 0.000000 4.558179 0.829112 0.801582 0.691678
 22 0.000000 0.000000 11.949879 -1.447516 0.117281 -3.320510
 23 0.000000 0.000000 4.822874 0.301064 0.000000 0.000000
 24 -1.376730 -0.804586 1.281520 -0.659309 1.255116 -3.141592
 25 0.000000 0.000000 1.416892 0.073536 0.071051 -3.141592
 26 0.000000 0.000000 1.920310 0.269862 0.568862 0.000000
 27 0.213890 -0.856740 4.255571 0.528081 0.318569 0.000000
 28 0.000000 0.000000 1.378407 -0.049177 0.309751 -3.141592
 29 0.000000 0.000000 3.006212 0.930783 0.778878 -3.141592
 30 -3.352225 -2.014409 -1.625205 -3.111551 1.200587 0.000000
 31 0.000000 0.000000 4.228487 -0.629698 0.876126 -0.022642
 32 0.000000 0.000000 13.042765 1.266445 -0.491542 -3.510788
 33 0.000000 0.000000 7.153650 0.000000 0.000000 0.000000
 34 -1.945980 -0.135012 0.247196 -3.077445 1.523081 0.000000
 35 0.000000 0.000000 1.172377 -0.535111 0.583828 -3.141592
 36 0.000000 0.000000 1.923266 -0.123086 0.631228 0.000000
 37 0.111389 0.206554 2.803840 0.313340 0.079789 -3.141592
 38 0.000000 0.000000 2.609086 0.476630 0.064040 0.000000
 39 0.000000 0.000000 2.388648 0.340473 0.179722 0.000000
time 22
  0 0.192741 -0.192741 30.840338 1.570796 0.000000 0.000000
  1 0.000000 -6.750002 -3.510001 0.000000 0.000000 0.000000
  2 3.007735 -0.000004 -0.000002 0.716901 0.243642 -0.019559
  3 0.000000 0.000000 12.794512 1.431712 0.508613 0.111128
  4 0.000000 0.000000 14.050400 0.821108 1.470961 -3.141592
  5 0.000000 0.000000 6.031133 0.177759 0.768218 0.028475
  6 0.000000 0.000000 0.757964 -0.000001 0.000000 0.000000
  7 0.000000 0.000000 0.757950 -0.000002 0.000000 0.000000
  8 -3.007735 0.000004 0.000005 -0.683137 0.235452 -3.122716
  9 0.000000 0.000000 12.794530 -1.461479 0.571280 -0.108494
 10 0.000000 0.000000 13.961749 -0.758599 1.520078 -3.141592
 11 0.000000 0.000000 6.030940 -0.114774 0.523252 0.000000
 12 0.000000 0.000000 0.757934 -0.000000 -0.000000 -3.141592
 13 0.000000 0.000000 0.757953 -0.000000 -0.000000 -3.141592
 14 0.000001 1.047682 0.554789 -1.230097 0.005566 0.000000
 15 0.000000 0.000000 4.300853 0.000897 0.000578 0.030501
 16 0.000000 0.000000 3.909713 0.050003 -0.000104 -2.790286
 17 0.000000 0.000000 4.692176 0.114524 0.000608 -2.897258
 18 0.000000 0.000000 5.479362 0.029423 0.000096 0.253067
 19 0.645092 -2.464382 2.019449 -0.304478 0.540296 0.331702
 20 3.518158 -2.206055 -1.728387 2.911160 1.048239 -3.141592
 21 0.000000 0.000000 4.558179 0.779121 0.815655 0.741335
 22 0.000000 0.000000 11.949879 -1.579258 0.112877 -3.360722
 23 0.000000 0.000000 4.822874 0.351220 0.000000 0.000000
 24 -1.376730 -0.804586 1.281520 -0.659309 1.255116 -3.141592
 25 0.000000 0.000000 1.416892 0.073536 0.071051 -3.141592
 26 0.000000 0.000000 1.920310 0.269862 0.568862 0.000000
 27 0.213890 -0.856740 4.255571 0.528081 0.318569 0.000000
 28 0.000000 0.000000 1.378407 -0.049177 0.309751 -3.141592
 29 0.000000 0.000000 3.006212 0.930783 0.778878 -3.141592
 30 -3.352225 -2.014409 -1.625205 -3.111551 1.200587 0.000000
 31 0.000000 0.000000 4.228487 -0.723324 0.857059 0.015364
 32 0.000000 0.000000 13.042765 1.354038 -0.588816 -3.607270
 33 0.000000 0.000000 7.153650 0.000000 0.000000 0.000000
 34 -1.945980 -0.135012 0.247196 -3.077445 1.523081 0.000000
 35 0.000000 0.000000 1.172377 -0.535111 0.583828 -3.141592
 36 0.000000 0.000000 1.923266 -0.123086 0.631228 0.000000
 37 0.111389 0.206554 2.803840 0.313340 0.079789 -3.141592
 38 0.000000 0.000000 2.609086 0.476630 0.064040 0.000000
 39 0.000000 0.000000 2.388648 0.340473 0.179722 0.000000
time 23
  0 0.192741 -0.192741 30.961435 1.570796 0.000000 0.000000
  1 0.000000 -6.750002 -3.510001 0.000000 0.000000 0.000000
  2 3.007735 -0.000004 -0.000002 0.725870 0.243810 -0.017390
  3 0.000000 0.000000 12.794512 1.406879 0.510902 0.098999
  4 0.000000 0.000000 14.050400 0.821108 1.470961 -3.141592
  5 0.000000 0.000000 6.031133 0.169418 0.741120 0.023945
  6 0.000000 0.000000 0.757964 -0.000001 0.000000 0.000000
  7 0.000000 0.000000 0.757950 -0.000002 0.000000 0.000000
  8 -3.007735 0.000004 0.000005 -0.692129 0.235608 -3.124814
  9 0.000000 0.000000 12.794530 -1.439539 0.573167 -0.096604
 10 0.000000 0.000000 13.961749 -0.758599 1.513529 -3.141592
 11 0.000000 0.000000 6.030940 -0.114774 0.523252 0.000000
 12 0.000000 0.000000 0.757934 -0.000000 -0.000000 -3.141592
 13 0.000000 0.000000 0.757953 -0.000000 -0.000000 -3.141592
 14 0.000001 1.047682 0.554789 -1.230097 0.005566 0.000000
 15 0.000000 0.000000 4.300853 0.008532 0.000476 0.034875
 16 0.000000 0.000000 3.909713 0.043508 0.001047 -2.740112
 17 0.000000 0.000000 4.692176 0.114524 0.000608 -2.862343
 18 0.000000 0.000000 5.479362 0.026172 0.000455 0.279253
 19 0.645092 -2.464382 2.019449 -0.291682 0.594470 0.390831
 20 3.518158 -2.206055 -1.728387 2.911160 1.048239 -3.141592
 21 0.000000 0.000000 4.558179 0.729513 0.831416 0.790679
 22 0.000000 0.000000 11.949879 -1.710582 0.103240 -3.399994
 23 0.000000 0.000000 4.822874 0.401408 0.000000 0.000000
 24 -1.376730 -0.804586 1.281520 -0.659309 1.255116 -3.141592
 25 0.000000 0.000000 1.416892 0.073536 0.071051 -3.141592
 26 0.000000 0.000000 1.920310 0.269862 0.568862 0.000000
 27 0.213890 -0.856740 4.255571 0.528081 0.318569 0.000000
 28 0.000000 0.000000 1.378407 -0.049177 0.309751 -3.141592
 29 0.000000 0.000000 3.006212 0.930783 0.778878 -3.141592
 30 -3.352225 -2.014409 -1.625205 -3.111551 1.200587 0.000000
 31 0.000000 0.000000 4.228487 -0.816052 0.840342 0.055168
 32 0.000000 0.000000 13.042765 1.459407 -0.677708 -3.721122
 33 0.000000 0.000000 7.153650 0.000000 0.000000 0.000000
 34 -1.945980 -0.135012 0.247196 -3.077445 1.523081 0.000000
 35 0.000000 0.000000 1.172377 -0.535111 0.583828 -3.141592
 36 0.000000 0.000000 1.923266 -0.123086 0.631228 0.000000
 37 0.111389 0.206554 2.803840 0.313340 0.079789 -3.141592
 38 0.000000 0.000000 2.609086 0.476630 0.064040 0.000000
 39 0.000000 0.000000 2.388648 0.340473 0.179722 0.000000
time 24
  0 0.192741 -0.192741 31.078627 1.570796 0.000000 0.000000
  1 0.000000 -6.750002 -3.510001 0.000000 0.000000 0.000000
  2 3.007735 -0.000004 -0.000002 0.734877 0.243954 -0.015220
  3 0.000000 0.000000 12.794512 1.381938 0.512928 0.086783
  4 0.000000 0.000000 14.050400 0.821108 1.470961 -3.141592
  5 0.000000 0.000000 6.031133 0.161436 0.713983 0.019823
  6 0.000000 0.000000 0.757964 -0.000001 0.000000 0.000000
  7 0.000000 0.000000 0.757950 -0.000002 0.000000 0.000000
  8 -3.007735 0.000004 0.000005 -0.701080 0.235740 -3.126911
  9 0.000000 0.000000 12.794530 -1.417562 0.574860 -0.084663
 10 0.000000 0.000000 13.961749 -0.758599 1.506980 -3.141592
 11 0.000000 0.000000 6.030940 -0.114774 0.523252 0.000000
 12 0.000000 0.000000 0.757934 -0.000000 -0.000000 -3.141592
 13 0.000000 0.000000 0.757953 -0.000000 -0.000000 -3.141592
 14 0.000001 1.047682 0.554789 -1.230097 0.005566 0.000000
 15 0.000000 0.000000 4.300853 0.016178 0.000374 0.030513
 16 0.000000 0.000000 3.909713 0.037024 0.002186 -2.790299
 17 0.000000 0.000000 4.692176 0.114524 0.000608 -2.897258
 18 0.000000 0.000000 5.479362 0.022901 0.000791 0.244342
 19 0.645092 -2.464382 2.019449 -0.271856 0.536185 0.343158
 20 3.518158 -2.206055 -1.728387 2.911160 1.048239 -3.141592
 21 0.000000 0.000000 4.558179 0.679044 0.846236 0.695979
 22 0.000000 0.000000 11.949879 -1.539638 0.111738 -3.363545
 23 0.000000 0.000000 4.822874 0.351220 0.000000 0.000000
 24 -1.376730 -0.804586 1.281520 -0.659309 1.255116 -3.141592
 25 0.000000 0.000000 1.416892 0.073536 0.071051 -3.141592
 26 0.000000 0.000000 1.920310 0.269862 0.568862 0.000000
 27 0.213890 -0.856740 4.255571 0.528081 0.318569 0.000000
 28 0.000000 0.000000 1.378407 -0.049177 0.309751 -3.141592
 29 0.000000 0.000000 3.006212 0.930783 0.778878 -3.141592
 30 -3.352225 -2.014409 -1.625205 -3.111551 1.200587 0.000000
 31 0.000000 0.000000 4.228487 -0.726661 0.861960 0.036479
 32 0.000000 0.000000 13.042765 1.280656 -0.611641 -3.583785
 33 0.000000 0.000000 7.153650 0.000000 0.000000 0.000000
 34 -1.945980 -0.135012 0.247196 -3.077445 1.523081 0.000000
 35 0.000000 0.000000 1.172377 -0.535111 0.583828 -3.141592
 36 0.000000 0.000000 1.923266 -0.123086 0.631228 0.000000
 37 0.111389 0.206554 2.803840 0.313340 0.079789 -3.141592
 38 0.000000 0.000000 2.609086 0.476630 0.064040 0.000000
 39 0.000000 0.000000 2.388648 0.340473 0.179722 0.000000
time 25
  0 0.192741 -0.192741 31.207537 1.570796 0.000000 0.000000
  1 0.000000 -6.750002 -3.510001 0.000000 0.000000 0.000000
  2 3.007735 -0.000004 -0.000002 0.743884 0.244073 -0.013051
  3 0.000000 0.000000 12.794512 1.356996 0.514689 0.074509
  4 0.000000 0.000000 14.050400 0.821108 1.470961 -3.141592
  5 0.000000 0.000000 6.031133 0.153778 0.686833 0.016083
  6 0.000000 0.000000 0.757964 -0.000001 0.000000 0.000000
  7 0.000000 0.000000 0.757950 -0.000002 0.000000 0.000000
  8 -3.007735 0.000004 0.000005 -0.710072 0.235859 -3.129009
  9 0.000000 0.000000 12.794530 -1.395511 0.576318 -0.072669
 10 0.000000 0.000000 13.961749 -0.758599 1.500431 -3.141592
 11 0.000000 0.000000 6.030940 -0.114774 0.523252 0.000000
 12 0.000000 0.000000 0.757934 -0.000000 -0.000000 -3.141592
 13 0.000000 0.000000 0.757953 -0.000000 -0.000000 -3.141592
 14 0.000001 1.047682 0.554789 -1.230097 0.005566 0.000000
 15 0.000000 0.000000 4.300853 0.023812 0.000289 0.026150
 16 0.000000 0.000000 3.909713 0.030492 0.003012 -2.840485
 17 0.000000 0.000000 4.692176 0.114524 0.000608 -2.932159
 18 0.000000 0.000000 5.479362 0.019629 0.001019 0.209431
 19 0.645092 -2.464382 2.019449 -0.249539 0.478762 0.295699
 20 3.518158 -2.206055 -1.728387 2.911160 1.048239 -3.141592
 21 0.000000 0.000000 4.558179 0.625893 0.857757 0.598777
 22 0.000000 0.000000 11.949879 -1.368369 0.113914 -3.326124
 23 0.000000 0.000000 4.822874 0.301064 0.000000 0.000000
 24 -1.376730 -0.804586 1.281520 -0.659309 1.255116 -3.141592
 25 0.000000 0.000000 1.416892 0.073536 0.071051 -3.141592
 26 0.000000 0.000000 1.920310 0.269862 0.568862 0.000000
 27 0.213890 -0.856740 4.255571 0.528081 0.318569 0.000000
 28 0.000000 0.000000 1.378407 -0.049177 0.309751 -3.141592
 29 0.000000 0.000000 3.006212 0.930783 0.778878 -3.141592
 30 -3.352225 -2.014409 -1.625205 -3.111551 1.200587 0.000000
 31 0.000000 0.000000 4.228487 -0.635538 0.884586 0.020396
 32 0.000000 0.000000 13.042765 1.122206 -0.528122 -3.468375
 33 0.000000 0.000000 7.153650 0.000000 0.000000 0.000000
 34 -1.945980 -0.135012 0.247196 -3.077445 1.523081 0.000000
 35 0.000000 0.000000 1.172377 -0.535111 0.583828 -3.141592
 36 0.000000 0.000000 1.923266 -0.123086 0.631228 0.000000
 37 0.111389 0.206554 2.803840 0.313340 0.079789 -3.141592
 38 0.000000 0.000000 2.609086 0.476630 0.064040 0.000000
 39 0.000000 0.000000 2.388648 0.340473 0.179722 0.000000
time 26
  0 0.192741 -0.192741 31.336447 1.570796 0.000000 0.000000
  1 0.000000 -6.750002 -3.510001 0.000000 0.000000 0.000000
  2 3.007735 -0.000004 -0.000002 0.752853 0.244181 -0.010870
  3 0.000000 0.000000 12.794512 1.331982 0.516175 0.062176
  4 0.000000 0.000000 14.050400 0.821108 1.470961 -3.141592
  5 0.000000 0.000000 6.031133 0.146407 0.659656 0.012680
  6 0.000000 0.000000 0.757964 -0.000001 0.000000 0.000000
  7 0.000000 0.000000 0.757950 -0.000002 0.000000 0.000000
  8 -3.007735 0.000004 0.000005 -0.719065 0.235955 -3.131106
  9 0.000000 0.000000 12.794530 -1.373460 0.577540 -0.060623
 10 0.000000 0.000000 13.961749 -0.758599 1.493882 -3.141592
 11 0.000000 0.000000 6.030940 -0.114774 0.523252 0.000000
 12 0.000000 0.000000 0.757934 -0.000000 -0.000000 -3.141592
 13 0.000000 0.000000 0.757953 -0.000000 -0.000000 -3.141592
 14 0.000001 1.047682 0.554789 -1.230097 0.005566 0.000000
 15 0.000000 0.000000 4.300853 0.031446 0.000238 0.021788
 16 0.000000 0.000000 3.909713 0.023925 0.003516 -2.890672
 17 0.000000 0.000000 4.692176 0.114524 0.000608 -2.967073
 18 0.000000 0.000000 5.479362 0.016337 0.001139 0.174532
 19 0.645092 -2.464382 2.019449 -0.224867 0.422320 0.248134
 20 3.518158 -2.206055 -1.728387 2.911160 1.048239 -3.141592
 21 0.000000 0.000000 4.558179 0.570731 0.865785 0.499619
 22 0.000000 0.000000 11.949879 -1.197146 0.109743 -3.288923
 23 0.000000 0.000000 4.822874 0.250876 0.000000 0.000000
 24 -1.376730 -0.804586 1.281520 -0.659309 1.255116 -3.141592
 25 0.000000 0.000000 1.416892 0.073536 0.071051 -3.141592
 26 0.000000 0.000000 1.920310 0.269862 0.568862 0.000000
 27 0.213890 -0.856740 4.255571 0.528081 0.318569 0.000000
 28 0.000000 0.000000 1.378407 -0.049177 0.309751 -3.141592
 29 0.000000 0.000000 3.006212 0.930783 0.778878 -3.141592
 30 -3.352225 -2.014409 -1.625205 -3.111551 1.200587 0.000000
 31 0.000000 0.000000 4.228487 -0.542425 0.908084 0.007278
 32 0.000000 0.000000 13.042765 0.982522 -0.431106 -3.374085
 33 0.000000 0.000000 7.153650 0.000000 0.000000 0.000000
 34 -1.945980 -0.135012 0.247196 -3.077445 1.523081 0.000000
 35 0.000000 0.000000 1.172377 -0.535111 0.583828 -3.141592
 36 0.000000 0.000000 1.923266 -0.123086 0.631228 0.000000
 37 0.111389 0.206554 2.803840 0.313340 0.079789 -3.141592
 38 0.000000 0.000000 2.609086 0.476630 0.064040 0.000000
 39 0.000000 0.000000 2.388648 0.340473 0.179722 0.000000
time 27
  0 0.192741 -0.192741 31.473169 1.570796 0.000000 0.000000
  1 0.000000 -6.750002 -3.510001 0.000000 0.000000 0.000000
  2 3.007735 -0.000004 -0.000002 0.761860 0.244265 -0.008701
  3 0.000000 0.000000 12.794512 1.306896 0.517398 0.049799
  4 0.000000 0.000000 14.050400 0.821108 1.470961 -3.141592
  5 0.000000 0.000000 6.031133 0.139300 0.632466 0.009588
  6 0.000000 0.000000 0.757964 -0.000001 0.000000 0.000000
  7 0.000000 0.000000 0.757950 -0.000002 0.000000 0.000000
  8 -3.007735 0.000004 0.000005 -0.728015 0.236039 -3.133203
  9 0.000000 0.000000 12.794530 -1.351335 0.578548 -0.048550
 10 0.000000 0.000000 13.961749 -0.758599 1.487333 -3.141592
 11 0.000000 0.000000 6.030940 -0.114774 0.523252 0.000000
 12 0.000000 0.000000 0.757934 -0.000000 -0.000000 -3.141592
 13 0.000000 0.000000 0.757953 -0.000000 -0.000000 -3.141592
 14 0.000001 1.047682 0.554789 -1.230097 0.005566 0.000000
 15 0.000000 0.000000 4.300853 0.039080 0.000221 0.017438
 16 0.000000 0.000000 3.909713 0.017333 0.003672 -2.940858
 17 0.000000 0.000000 4.692176 0.114524 0.000608 -3.001974
 18 0.000000 0.000000 5.479362 0.013065 0.001139 0.139620
 19 0.645092 -2.464382 2.019449 -0.197915 0.367006 0.200193
 20 3.518158 -2.206055 -1.728387 2.911160 1.048239 -3.141592
 21 0.000000 0.000000 4.558179 0.514132 0.870221 0.399289
 22 0.000000 0.000000 11.949879 -1.026340 0.099328 -3.252976
 23 0.000000 0.000000 4.822874 0.200688 0.000000 0.000000
 24 -1.376730 -0.804586 1.281520 -0.659309 1.255116 -3.141592
 25 0.000000 0.000000 1.416892 0.073536 0.071051 -3.141592
 26 0.000000 0.000000 1.920310 0.269862 0.568862 0.000000
 27 0.213890 -0.856740 4.255571 0.528081 0.318569 0.000000
 28 0.000000 0.000000 1.378407 -0.049177 0.309751 -3.141592
 29 0.000000 0.000000 3.006212 0.930783 0.778878 -3.141592
 30 -3.352225 -2.014409 -1.625205 -3.111551 1.200587 0.000000
 31 0.000000 0.000000 4.228487 -0.446810 0.932187 -0.002516
 32 0.000000 0.000000 13.042765 0.858584 -0.323989 -3.298607
 33 0.000000 0.000000 7.153650 0.000000 0.000000 0.000000
 34 -1.945980 -0.135012 0.247196 -3.077445 1.523081 0.000000
 35 0.000000 0.000000 1.172377 -0.535111 0.583828 -3.141592
 36 0.000000 0.000000 1.923266 -0.123086 0.631228 0.000000
 37 0.111389 0.206554 2.803840 0.313340 0.079789 -3.141592
 38 0.000000 0.000000 2.609086 0.476630 0.064040 0.000000
 39 0.000000 0.000000 2.388648 0.340473 0.179722 0.000000
time 28
  0 0.192741 -0.192741 31.609894 1.570796 0.000000 0.000000
  1 0.000000 -6.750002 -3.510001 0.000000 0.000000 0.000000
  2 3.007735 -0.000004 -0.000002 0.770866 0.244325 -0.006520
  3 0.000000 0.000000 12.794512 1.281810 0.518345 0.037378
  4 0.000000 0.000000 14.050400 0.821108 1.470961 -3.141592
  5 0.000000 0.000000 6.031133 0.132445 0.605263 0.006795
  6 0.000000 0.000000 0.757964 -0.000001 0.000000 0.000000
  7 0.000000 0.000000 0.757950 -0.000002 0.000000 0.000000
  8 -3.007735 0.000004 0.000005 -0.737008 0.236111 -3.135300
  9 0.000000 0.000000 12.794530 -1.329210 0.579341 -0.036426
 10 0.000000 0.000000 13.961749 -0.758599 1.480784 -3.141592
 11 0.000000 0.000000 6.030940 -0.114774 0.523252 0.000000
 12 0.000000 0.000000 0.757934 -0.000000 -0.000000 -3.141592
 13 0.000000 0.000000 0.757953 -0.000000 -0.000000 -3.141592
 14 0.000001 1.047682 0.554789 -1.230097 0.005566 0.000000
 15 0.000000 0.000000 4.300853 0.046714 0.000238 0.013075
 16 0.000000 0.000000 3.909713 0.010742 0.003516 -2.991045
 17 0.000000 0.000000 4.692176 0.114524 0.000608 -3.036875
 18 0.000000 0.000000 5.479362 0.009773 0.001019 0.104709
 19 0.645092 -2.464382 2.019449 -0.168721 0.312965 0.151611
 20 3.518158 -2.206055 -1.728387 2.911160 1.048239 -3.141592
 21 0.000000 0.000000 4.558179 0.456959 0.870928 0.298333
 22 0.000000 0.000000 11.949879 -0.856184 0.082982 -3.219383
 23 0.000000 0.000000 4.822874 0.150532 0.000000 0.000000
 24 -1.376730 -0.804586 1.281520 -0.659309 1.255116 -3.141592
 25 0.000000 0.000000 1.416892 0.073536 0.071051 -3.141592
 26 0.000000 0.000000 1.920310 0.269862 0.568862 0.000000
 27 0.213890 -0.856740 4.255571 0.528081 0.318569 0.000000
 28 0.000000 0.000000 1.378407 -0.049177 0.309751 -3.141592
 29 0.000000 0.000000 3.006212 0.930783 0.778878 -3.141592
 30 -3.352225 -2.014409 -1.625205 -3.111551 1.200587 0.000000
 31 0.000000 0.000000 4.228487 -0.348306 0.956827 -0.008626
 32 0.000000 0.000000 13.042765 0.746877 -0.209350 -3.239402
 33 0.000000 0.000000 7.153650 0.000000 0.000000 0.000000
 34 -1.945980 -0.135012 0.247196 -3.077445 1.523081 0.000000
 35 0.000000 0.000000 1.172377 -0.535111 0.583828 -3.141592
 36 0.000000 0.000000 1.923266 -0.123086 0.631228 0.000000
 37 0.111389 0.206554 2.803840 0.313340 0.079789 -3.141592
 38 0.000000 0.000000 2.609086 0.476630 0.064040 0.000000
 39 0.000000 0.000000 2.388648 0.340473 0.179722 0.000000
time 29
  0 0.192741 -0.192741 31.746616 1.570796 0.000000 0.000000
  1 0.000000 -6.750002 -3.510001 0.000000 0.000000 0.000000
  2 3.007735 -0.000004 -0.000002 0.779835 0.244373 -0.004350
  3 0.000000 0.000000 12.794512 1.256724 0.519028 0.024943
  4 0.000000 0.000000 14.050400 0.821108 1.470961 -3.141592
  5 0.000000 0.000000 6.031133 0.125794 0.578033 0.004278
  6 0.000000 0.000000 0.757964 -0.000001 0.000000 0.000000
  7 0.000000 0.000000 0.757950 -0.000002 0.000000 0.000000
  8 -3.007735 0.000004 0.000005 -0.745958 0.236147 -3.137398
  9 0.000000 0.000000 12.794530 -1.307047 0.579899 -0.024301
 10 0.000000 0.000000 13.961749 -0.758599 1.474235 -3.141592
 11 0.000000 0.000000 6.030940 -0.114774 0.523252 0.000000
 12 0.000000 0.000000 0.757934 -0.000000 -0.000000 -3.141592
 13 0.000000 0.000000 0.757953 -0.000000 -0.000000 -3.141592
 14 0.000001 1.047682 0.554789 -1.230097 0.005566 0.000000
 15 0.000000 0.000000 4.300853 0.054349 0.000289 0.008713
 16 0.000000 0.000000 3.909713 0.004174 0.003012 -3.041231
 17 0.000000 0.000000 4.692176 0.114524 0.000608 -3.071790
 18 0.000000 0.000000 5.479362 0.006502 0.000791 0.069810
 19 0.645092 -2.464382 2.019449 -0.137325 0.260330 0.102198
 20 3.518158 -2.206055 -1.728387 2.911160 1.048239 -3.141592
 21 0.000000 0.000000 4.558179 0.400073 0.867944 0.197689
 22 0.000000 0.000000 11.949879 -0.686954 0.061246 -3.189082
 23 0.000000 0.000000 4.822874 0.100344 0.000000 0.000000
 24 -1.376730 -0.804586 1.281520 -0.659309 1.255116 -3.141592
 25 0.000000 0.000000 1.416892 0.073536 0.071051 -3.141592
 26 0.000000 0.000000 1.920310 0.269862 0.568862 0.000000
 27 0.213890 -0.856740 4.255571 0.528081 0.318569 0.000000
 28 0.000000 0.000000 1.378407 -0.049177 0.309751 -3.141592
 29 0.000000 0.000000 3.006212 0.930783 0.778878 -3.141592
 30 -3.352225 -2.014409 -1.625205 -3.111551 1.200587 0.000000
 31 0.000000 0.000000 4.228487 -0.246530 0.981668 -0.010512
 32 0.000000 0.000000 13.042765 0.644082 -0.089251 -3.194392
 33 0.000000 0.000000 7.153650 0.000000 0.000000 0.000000
 34 -1.945980 -0.135012 0.247196 -3.077445 1.523081 0.000000
 35 0.000000 0.000000 1.172377 -0.535111 0.583828 -3.141592
 36 0.000000 0.000000 1.923266 -0.123086 0.631228 0.000000
 37 0.111389 0.206554 2.803840 0.313340 0.079789 -3.141592
 38 0.000000 0.000000 2.609086 0.476630 0.064040 0.000000
 39 0.000000 0.000000 2.388648 0.340473 0.179722 0.000000
time 30
  0 0.192741 -0.192741 31.883339 1.570796 0.000000 0.000000
  1 0.000000 -6.750002 -3.510001 0.000000 0.000000 0.000000
  2 3.007735 -0.000004 -0.000002 0.788842 0.244409 -0.002169
  3 0.000000 0.000000 12.794512 1.231601 0.519435 0.012464
  4 0.000000 0.000000 14.050400 0.821108 1.470961 -3.141592
  5 0.000000 0.000000 6.031133 0.119334 0.550804 0.002013
  6 0.000000 0.000000 0.757964 -0.000001 0.000000 0.000000
  7 0.000000 0.000000 0.757950 -0.000002 0.000000 0.000000
  8 -3.007735 0.000004 0.000005 -0.754950 0.236183 -3.139495
  9 0.000000 0.000000 12.794530 -1.284885 0.580242 -0.012151
 10 0.000000 0.000000 13.961749 -0.758599 1.467686 -3.141592
 11 0.000000 0.000000 6.030940 -0.114774 0.523252 0.000000
 12 0.000000 0.000000 0.757934 -0.000000 -0.000000 -3.141592
 13 0.000000 0.000000 0.757953 -0.000000 -0.000000 -3.141592
 14 0.000001 1.047682 0.554789 -1.230097 0.005566 0.000000
 15 0.000000 0.000000 4.300853 0.061983 0.000374 0.004350
 16 0.000000 0.000000 3.909713 -0.002357 0.002198 -3.091418
 17 0.000000 0.000000 4.692176 0.114524 0.000608 -3.106691
 18 0.000000 0.000000 5.479362 0.003251 0.000455 0.034899
 19 0.645092 -2.464382 2.019449 -0.103668 0.209259 0.051715
 20 3.518158 -2.206055 -1.728387 2.911160 1.048239 -3.141592
 21 0.000000 0.000000 4.558179 0.344240 0.861310 0.097985
 22 0.000000 0.000000 11.949879 -0.518650 0.034745 -3.162922
 23 0.000000 0.000000 4.822874 0.050156 0.000000 0.000000
 24 -1.376730 -0.804586 1.281520 -0.659309 1.255116 -3.141592
 25 0.000000 0.000000 1.416892 0.073536 0.071051 -3.141592
 26 0.000000 0.000000 1.920310 0.269862 0.568862 0.000000
 27 0.213890 -0.856740 4.255571 0.528081 0.318569 0.000000
 28 0.000000 0.000000 1.378407 -0.049177 0.309751 -3.141592
 29 0.000000 0.000000 3.006212 0.930783 0.778878 -3.141592
 30 -3.352225 -2.014409 -1.625205 -3.111551 1.200587 0.000000
 31 0.000000 0.000000 4.228487 -0.140840 1.006509 -0.007817
 32 0.000000 0.000000 13.042765 0.547081 0.034630 -3.162020
 33 0.000000 0.000000 7.153650 0.000000 0.000000 0.000000
 34 -1.945980 -0.135012 0.247196 -3.077445 1.523081 0.000000
 35 0.000000 0.000000 1.172377 -0.535111 0.583828 -3.141592
 36 0.000000 0.000000 1.923266 -0.123086 0.631228 0.000000
 37 0.111389 0.206554 2.803840 0.313340 0.079789 -3.141592
 38 0.000000 0.000000 2.609086 0.476630 0.064040 0.000000
 39 0.000000 0.000000 2.388648 0.340473 0.179722 0.000000
time 31
  0 0.192741 -0.192741 32.016155 1.570796 0.000000 0.000000
  1 0.000000 -6.750002 -3.510001 0.000000 0.000000 0.000000
  2 3.007735 -0.000004 -0.000002 0.797811 0.244409 0.000000
  3 0.000000 0.000000 12.794512 1.206479 0.519567 0.000000
  4 0.000000 0.000000 14.050400 0.821108 1.470961 -3.141592
  5 0.000000 0.000000 6.031133 0.113066 0.523561 0.000000
  6 0.000000 0.000000 0.757964 -0.000001 0.000000 0.000000
  7 0.000000 0.000000 0.757950 -0.000002 0.000000 0.000000
  8 -3.007735 0.000004 0.000005 -0.763901 0.236183 -3.141592
  9 0.000000 0.000000 12.794530 -1.262723 0.580349 0.000000
 10 0.000000 0.000000 13.961749 -0.758599 1.461174 -3.141592
 11 0.000000 0.000000 6.030940 -0.114774 0.523252 0.000000
 12 0.000000 0.000000 0.757934 -0.000000 -0.000000 -3.141592
 13 0.000000 0.000000 0.757953 -0.000000 -0.000000 -3.141592
 14 0.000001 1.047682 0.554789 -1.230097 0.005566 0.000000
 15 0.000000 0.000000 4.300853 0.069617 0.000476 0.000000
 16 0.000000 0.000000 3.909713 -0.008841 0.001047 -3.141592
 17 0.000000 0.000000 4.692176 0.114524 0.000608 -3.141592
 18 0.000000 0.000000 5.479362 0.000000 0.000000 0.000000
 19 0.645092 -2.464382 2.019449 -0.067789 0.159939 0.000000
 20 3.518158 -2.206055 -1.728387 2.911160 1.048239 -3.141592
 21 0.000000 0.000000 4.558179 0.290227 0.851123 0.000000
 22 0.000000 0.000000 11.949879 -0.351181 0.004253 -3.141592
 23 0.000000 0.000000 4.822874 0.000000 0.000000 0.000000
 24 -1.376730 -0.804586 1.281520 -0.659309 1.255116 -3.141592
 25 0.000000 0.000000 1.416892 0.073536 0.071051 -3.141592
 26 0.000000 0.000000 1.920310 0.269862 0.568862 0.000000
 27 0.213890 -0.856740 4.255571 0.528081 0.318569 0.000000
 28 0.000000 0.000000 1.378407 -0.049177 0.309751 -3.141592
 29 0.000000 0.000000 3.006212 0.930783 0.778878 -3.141592
 30 -3.352225 -2.014409 -1.625205 -3.111551 1.200587 0.000000
 31 0.000000 0.000000 4.228487 -0.030722 1.031015 0.000000
 32 0.000000 0.000000 13.042765 0.453051 0.161047 -3.141592
 33 0.000000 0.000000 7.153650 0.000000 0.000000 0.000000
 34 -1.945980 -0.135012 0.247196 -3.077445 1.523081 0.000000
 35 0.000000 0.000000 1.172377 -0.535111 0.583828 -3.141592
 36 0.000000 0.000000 1.923266 -0.123086 0.631228 0.000000
 37 0.111389 0.206554 2.803840 0.313340 0.079789 -3.141592
 38 0.000000 0.000000 2.609086 0.476630 0.064040 0.000000
 39 0.000000 0.000000 2.388648 0.340473 0.179722 0.000000
end
