version 1
nodes
  0 "Bip01"  -1
  1 "Bip01 Pelvis"   0
  2 "Bip01 L Thigh"   1
  3 "Bip01 L Knee"   2
  4 "Bip01 L Foot"   3
  5 "Bip01 L Toe0"   4
  6 "Bip01 L Toe01"   5
  7 "Bip01 L Toe02"   6
  8 "Bip01 R Thigh"   1
  9 "Bip01 R Knee"   8
 10 "Bip01 R Foot"   9
 11 "Bip01 R Toe0"  10
 12 "Bip01 R Toe01"  11
 13 "Bip01 R Toe02"  12
 14 "Bip01 Spine"   1
 15 "Bip01 Spine1"  14
 16 "Bip01 Spine2"  15
 17 "Bip01 Spine3"  16
 18 "Bip01 Neck"  17
 19 "Bip01 Head"  18
 20 "Bip01 L Clavicle"  18
 21 "Bip01 L UpperArm"  20
 22 "Bip01 L Forearm"  21
 23 "Bip01 L Hand"  22
 24 "Bip01 L Finger0"  23
 25 "Bip01 L Finger01"  24
 26 "Bip01 L Finger02"  25
 27 "Bip01 L Finger1"  23
 28 "Bip01 L Finger11"  27
 29 "Bip01 L Finger12"  28
 30 "Bip01 R Clavicle"  18
 31 "Bip01 R UpperArm"  30
 32 "Bip01 R Forearm"  31
 33 "Bip01 R Hand"  32
 34 "Bip01 R Finger0"  33
 35 "Bip01 R Finger01"  34
 36 "Bip01 R Finger02"  35
 37 "Bip01 R Finger1"  33
 38 "Bip01 R Finger11"  37
 39 "Bip01 R Finger12"  38
end
skeleton
time 0
  0 0.192741 -0.192741 32.016155 1.570796 0.000000 0.000000
  1 0.000000 -6.750002 -3.510001 0.000000 0.000000 0.000000
  2 3.007735 -0.000004 -0.000002 0.797811 0.244409 0.000000
  3 0.000000 0.000000 12.794512 1.206479 0.519567 0.000000
  4 0.000000 0.000000 14.050400 0.821108 1.470961 -3.141592
  5 0.000000 0.000000 6.031133 0.113066 0.523561 0.000000
  6 0.000000 0.000000 0.757964 -0.000001 0.000000 0.000000
  7 0.000000 0.000000 0.757950 -0.000002 0.000000 0.000000
  8 -3.007735 0.000004 0.000005 -0.280698 0.036124 -3.055543
  9 0.000000 0.000000 12.794530 -0.952673 0.558180 0.168097
 10 0.000000 0.000000 13.961749 0.078954 0.241865 -2.318107
 11 0.000000 0.000000 6.030940 -0.114774 0.523252 0.000000
 12 0.000000 0.000000 0.757934 -0.000000 -0.000000 -3.141592
 13 0.000000 0.000000 0.757953 -0.000000 -0.000000 -3.141592
 14 0.000001 1.047682 0.554789 -1.073015 0.005506 0.000863
 15 0.000000 0.000000 4.300853 0.121966 0.000476 0.000024
 16 0.000000 0.000000 3.909713 -0.008841 0.001047 -3.141592
 17 0.000000 0.000000 4.692176 0.114524 0.000608 -3.141592
 18 0.000000 0.000000 5.479362 -0.366512 0.000000 0.000000
 19 0.645092 -2.464382 2.019449 -0.067789 0.159939 0.000000
 20 3.518158 -2.206055 -1.728387 2.911160 1.048239 -3.141592
 21 0.000000 0.000000 4.558179 0.290227 0.851123 0.000000
 22 0.000000 0.000000 11.949879 -0.351181 0.004253 -3.141592
 23 0.000000 0.000000 4.822874 0.000000 0.000000 0.000000
 24 -1.376730 -0.804586 1.281520 -0.659309 1.255116 -3.141592
 25 0.000000 0.000000 1.416892 0.073536 0.071051 -3.141592
 26 0.000000 0.000000 1.920310 0.269862 0.568862 0.000000
 27 0.213890 -0.856740 4.255571 0.528081 0.318569 0.000000
 28 0.000000 0.000000 1.378407 -0.049177 0.309751 -3.141592
 29 0.000000 0.000000 3.006212 0.930783 0.778878 -3.141592
 30 -3.352225 -2.014409 -1.625205 -3.111551 1.200587 0.000000
 31 0.000000 0.000000 4.228487 -0.030722 1.031015 0.000000
 32 0.000000 0.000000 13.042765 0.453051 0.161047 -3.141592
 33 0.000000 0.000000 7.153650 0.000000 0.000000 0.000000
 34 -1.945980 -0.135012 0.247196 -3.077445 1.523081 0.000000
 35 0.000000 0.000000 1.172377 -0.535111 0.583828 -3.141592
 36 0.000000 0.000000 1.923266 -0.123086 0.631228 0.000000
 37 0.111389 0.206554 2.803840 0.313340 0.079789 -3.141592
 38 0.000000 0.000000 2.609086 0.476630 0.064040 0.000000
 39 0.000000 0.000000 2.388648 0.340473 0.179722 0.000000
time 1
  0 0.192741 4.807259 33.035717 1.570796 0.000000 0.000000
  1 0.000000 -6.750002 -3.510001 0.000000 0.000000 0.000000
  2 3.007735 -0.000004 -0.000002 1.052245 0.236847 0.060942
  3 0.000000 0.000000 12.794512 1.181284 0.519435 -0.012523
  4 0.000000 0.000000 14.050400 2.727337 1.550635 -1.263147
  5 0.000000 0.000000 6.031133 0.113066 0.523561 0.000000
  6 0.000000 0.000000 0.757964 -0.000001 0.000000 0.000000
  7 0.000000 0.000000 0.757950 -0.000002 0.000000 0.000000
  8 -3.007735 0.000004 0.000005 -0.321853 0.039636 -3.057101
  9 0.000000 0.000000 12.794530 -0.906199 0.621814 0.217144
 10 0.000000 0.000000 13.961749 0.126316 0.345421 -2.355403
 11 0.000000 0.000000 6.030940 -0.114774 0.523252 0.000000
 12 0.000000 0.000000 0.757934 -0.000000 -0.000000 -3.141592
 13 0.000000 0.000000 0.757953 -0.000000 -0.000000 -3.141592
 14 0.000001 1.047682 0.554789 -1.073015 0.005506 0.000863
 15 0.000000 0.000000 4.300853 0.116908 -0.031083 -0.016958
 16 0.000000 0.000000 3.909713 0.015584 0.008010 -3.141065
 17 0.000000 0.000000 4.692176 0.083112 0.017998 -3.143247
 18 0.000000 0.000000 5.479362 -0.373470 0.000503 0.024425
 19 0.645092 -2.464382 2.019449 -0.092481 0.158361 -0.024813
 20 3.518158 -2.206055 -1.728387 2.911160 1.048239 -3.141592
 21 0.000000 0.000000 4.558179 0.448339 0.844901 0.118629
 22 0.000000 0.000000 11.949879 -0.497751 0.004227 -3.142188
 23 0.000000 0.000000 4.822874 0.205936 0.000000 0.000000
 24 -1.376730 -0.804586 1.281520 -0.659309 1.255116 -3.141592
 25 0.000000 0.000000 1.416892 0.073536 0.071051 -3.141592
 26 0.000000 0.000000 1.920310 0.269862 0.568862 0.000000
 27 0.213890 -0.856740 4.255571 0.528081 0.318569 0.000000
 28 0.000000 0.000000 1.378407 -0.049177 0.309751 -3.141592
 29 0.000000 0.000000 3.006212 0.930783 0.778878 -3.141592
 30 -3.352225 -2.014409 -1.625205 -3.111551 1.200587 0.000000
 31 0.000000 0.000000 4.228487 0.415077 0.984622 0.378807
 32 0.000000 0.000000 13.042765 0.355258 0.233777 -3.327402
 33 0.000000 0.000000 7.153650 0.000000 0.000000 0.000000
 34 -1.945980 -0.135012 0.247196 -3.077445 1.523081 0.000000
 35 0.000000 0.000000 1.172377 -0.535111 0.583828 -3.141592
 36 0.000000 0.000000 1.923266 -0.123086 0.631228 0.000000
 37 0.111389 0.206554 2.803840 0.313340 0.079789 -3.141592
 38 0.000000 0.000000 2.609086 0.476630 0.064040 0.000000
 39 0.000000 0.000000 2.388648 0.340473 0.179722 0.000000
time 2
  0 0.192741 9.807259 34.195908 1.570796 0.000000 0.000000
  1 0.000000 -6.750002 -3.510001 0.000000 0.000000 0.000000
  2 3.007735 -0.000004 -0.000002 1.304893 0.214651 0.117785
  3 0.000000 0.000000 12.794512 1.156053 0.519028 -0.025031
  4 0.000000 0.000000 14.050400 3.663223 1.451905 -0.355062
  5 0.000000 0.000000 6.031133 0.113066 0.523561 0.000000
  6 0.000000 0.000000 0.757964 -0.000001 0.000000 0.000000
  7 0.000000 0.000000 0.757950 -0.000002 0.000000 0.000000
  8 -3.007735 0.000004 0.000005 -0.362967 0.043087 -3.058803
  9 0.000000 0.000000 12.794530 -0.853499 0.683390 0.272358
 10 0.000000 0.000000 13.961749 0.171377 0.450503 -2.388864
 11 0.000000 0.000000 6.030940 -0.114774 0.523252 0.000000
 12 0.000000 0.000000 0.757934 -0.000000 -0.000000 -3.141592
 13 0.000000 0.000000 0.757953 -0.000000 -0.000000 -3.141592
 14 0.000001 1.047682 0.554789 -1.073015 0.005506 0.000863
 15 0.000000 0.000000 4.300853 0.112378 -0.062709 -0.033821
 16 0.000000 0.000000 3.909713 0.040032 0.014961 -3.140355
 17 0.000000 0.000000 4.692176 0.051665 0.035327 -3.145452
 18 0.000000 0.000000 5.479362 -0.380427 0.001186 0.048849
 19 0.645092 -2.464382 2.019449 -0.117134 0.156173 -0.049600
 20 3.518158 -2.206055 -1.728387 2.911160 1.048239 -3.141592
 21 0.000000 0.000000 4.558179 0.602142 0.826549 0.232879
 22 0.000000 0.000000 11.949879 -0.644368 0.004072 -3.142816
 23 0.000000 0.000000 4.822874 0.411872 0.000000 0.000000
 24 -1.376730 -0.804586 1.281520 -0.659309 1.255116 -3.141592
 25 0.000000 0.000000 1.416892 0.073536 0.071051 -3.141592
 26 0.000000 0.000000 1.920310 0.269862 0.568862 0.000000
 27 0.213890 -0.856740 4.255571 0.528081 0.318569 0.000000
 28 0.000000 0.000000 1.378407 -0.049177 0.309751 -3.141592
 29 0.000000 0.000000 3.006212 0.930783 0.778878 -3.141592
 30 -3.352225 -2.014409 -1.625205 -3.111551 1.200587 0.000000
 31 0.000000 0.000000 4.228487 0.763143 0.863639 0.658151
 32 0.000000 0.000000 13.042765 0.243501 0.287034 -3.522791
 33 0.000000 0.000000 7.153650 0.000000 0.000000 0.000000
 34 -1.945980 -0.135012 0.247196 -3.077445 1.523081 0.000000
 35 0.000000 0.000000 1.172377 -0.535111 0.583828 -3.141592
 36 0.000000 0.000000 1.923266 -0.123086 0.631228 0.000000
 37 0.111389 0.206554 2.803840 0.313340 0.079789 -3.141592
 38 0.000000 0.000000 2.609086 0.476630 0.064040 0.000000
 39 0.000000 0.000000 2.388648 0.340473 0.179722 0.000000
time 3
  0 0.192741 14.807258 35.289692 1.570796 0.000000 0.000000
  1 0.000000 -6.750002 -3.510001 0.000000 0.000000 0.000000
  2 3.007735 -0.000004 -0.000002 1.554424 0.179405 0.166885
  3 0.000000 0.000000 12.794512 1.130858 0.518345 -0.037524
  4 0.000000 0.000000 14.050400 3.748431 1.344643 -0.297882
  5 0.000000 0.000000 6.031133 0.113066 0.523561 0.000000
  6 0.000000 0.000000 0.757964 -0.000001 0.000000 0.000000
  7 0.000000 0.000000 0.757950 -0.000002 0.000000 0.000000
  8 -3.007735 0.000004 0.000005 -0.404123 0.046455 -3.060648
  9 0.000000 0.000000 12.794530 -0.793461 0.742393 0.334862
 10 0.000000 0.000000 13.961749 0.215095 0.556851 -2.418778
 11 0.000000 0.000000 6.030940 -0.114774 0.523252 0.000000
 12 0.000000 0.000000 0.757934 -0.000000 -0.000000 -3.141592
 13 0.000000 0.000000 0.757953 -0.000000 -0.000000 -3.141592
 14 0.000001 1.047682 0.554789 -1.073015 0.005506 0.000863
 15 0.000000 0.000000 4.300853 0.108375 -0.094421 -0.050587
 16 0.000000 0.000000 3.909713 0.064481 0.021888 -3.139472
 17 0.000000 0.000000 4.692176 0.020145 0.052585 -3.148209
 18 0.000000 0.000000 5.479362 -0.387363 0.002037 0.073274
 19 0.645092 -2.464382 2.019449 -0.141711 0.153388 -0.074306
 20 3.518158 -2.206055 -1.728387 2.911160 1.048239 -3.141592
 21 0.000000 0.000000 4.558179 0.748188 0.796950 0.338918
 22 0.000000 0.000000 11.949879 -0.790985 0.003864 -3.143380
 23 0.000000 0.000000 4.822874 0.617840 0.000000 0.000000
 24 -1.376730 -0.804586 1.281520 -0.659309 1.255116 -3.141592
 25 0.000000 0.000000 1.416892 0.073536 0.071051 -3.141592
 26 0.000000 0.000000 1.920310 0.269862 0.568862 0.000000
 27 0.213890 -0.856740 4.255571 0.528081 0.318569 0.000000
 28 0.000000 0.000000 1.378407 -0.049177 0.309751 -3.141592
 29 0.000000 0.000000 3.006212 0.930783 0.778878 -3.141592
 30 -3.352225 -2.014409 -1.625205 -3.111551 1.200587 0.000000
 31 0.000000 0.000000 4.228487 1.012256 0.699015 0.834616
 32 0.000000 0.000000 13.042765 0.121593 0.317854 -3.725739
 33 0.000000 0.000000 7.153650 0.000000 0.000000 0.000000
 34 -1.945980 -0.135012 0.247196 -3.077445 1.523081 0.000000
 35 0.000000 0.000000 1.172377 -0.535111 0.583828 -3.141592
 36 0.000000 0.000000 1.923266 -0.123086 0.631228 0.000000
 37 0.111389 0.206554 2.803840 0.313340 0.079789 -3.141592
 38 0.000000 0.000000 2.609086 0.476630 0.064040 0.000000
 39 0.000000 0.000000 2.388648 0.340473 0.179722 0.000000
time 4
  0 0.192741 19.807259 36.098312 1.570796 0.000000 0.000000
  1 0.000000 -6.750002 -3.510001 0.000000 0.000000 0.000000
  2 3.007735 -0.000004 -0.000002 1.800383 0.133420 0.205392
  3 0.000000 0.000000 12.794512 1.105700 0.517386 -0.049989
  4 0.000000 0.000000 14.050400 3.788038 1.237034 -0.286560
  5 0.000000 0.000000 6.031133 0.113066 0.523561 0.000000
  6 0.000000 0.000000 0.757964 -0.000001 0.000000 0.000000
  7 0.000000 0.000000 0.757950 -0.000002 0.000000 0.000000
  8 -3.007735 0.000004 0.000005 -0.445321 0.049751 -3.062626
  9 0.000000 0.000000 12.794530 -0.724824 0.798245 0.405884
 10 0.000000 0.000000 13.961749 0.258143 0.664240 -2.445048
 11 0.000000 0.000000 6.030940 -0.114774 0.523252 0.000000
 12 0.000000 0.000000 0.757934 -0.000000 -0.000000 -3.141592
 13 0.000000 0.000000 0.757953 -0.000000 -0.000000 -3.141592
 14 0.000001 1.047682 0.554789 -1.073015 0.005506 0.000863
 15 0.000000 0.000000 4.300853 0.104900 -0.126201 -0.067270
 16 0.000000 0.000000 3.909713 0.088929 0.028803 -3.138431
 17 0.000000 0.000000 4.692176 -0.011446 0.069735 -3.151518
 18 0.000000 0.000000 5.479362 -0.394279 0.003056 0.097686
 19 0.645092 -2.464382 2.019449 -0.166212 0.150006 -0.098932
 20 3.518158 -2.206055 -1.728387 2.911160 1.048239 -3.141592
 21 0.000000 0.000000 4.558179 0.884274 0.757379 0.434401
 22 0.000000 0.000000 11.949879 -0.937601 0.003554 -3.143945
 23 0.000000 0.000000 4.822874 0.823776 0.000000 0.000000
 24 -1.376730 -0.804586 1.281520 -0.659309 1.255116 -3.141592
 25 0.000000 0.000000 1.416892 0.073536 0.071051 -3.141592
 26 0.000000 0.000000 1.920310 0.269862 0.568862 0.000000
 27 0.213890 -0.856740 4.255571 0.528081 0.318569 0.000000
 28 0.000000 0.000000 1.378407 -0.049177 0.309751 -3.141592
 29 0.000000 0.000000 3.006212 0.930783 0.778878 -3.141592
 30 -3.352225 -2.014409 -1.625205 -3.111551 1.200587 0.000000
 31 0.000000 0.000000 4.228487 1.196941 0.511631 0.940459
 32 0.000000 0.000000 13.042765 -0.005118 0.324345 -3.932380
 33 0.000000 0.000000 7.153650 0.000000 0.000000 0.000000
 34 -1.945980 -0.135012 0.247196 -3.077445 1.523081 0.000000
 35 0.000000 0.000000 1.172377 -0.535111 0.583828 -3.141592
 36 0.000000 0.000000 1.923266 -0.123086 0.631228 0.000000
 37 0.111389 0.206554 2.803840 0.313340 0.079789 -3.141592
 38 0.000000 0.000000 2.609086 0.476630 0.064040 0.000000
 39 0.000000 0.000000 2.388648 0.340473 0.179722 0.000000
time 5
  0 0.192741 24.807257 36.414726 1.570796 0.000000 0.000000
  1 0.000000 -6.750002 -3.510001 0.000000 0.000000 0.000000
  2 3.007735 -0.000004 -0.000002 2.043074 0.079597 0.231327
  3 0.000000 0.000000 12.794512 1.080541 0.516151 -0.062409
  4 0.000000 0.000000 14.050400 3.815661 1.129364 -0.287881
  5 0.000000 0.000000 6.031133 0.113066 0.523561 0.000000
  6 0.000000 0.000000 0.757964 -0.000001 0.000000 0.000000
  7 0.000000 0.000000 0.757950 -0.000002 0.000000 0.000000
  8 -3.007735 0.000004 0.000005 -0.486476 0.052963 -3.064735
  9 0.000000 0.000000 12.794530 -0.646293 0.850194 0.486758
 10 0.000000 0.000000 13.961749 0.301573 0.772448 -2.467387
 11 0.000000 0.000000 6.030940 -0.114774 0.523252 0.000000
 12 0.000000 0.000000 0.757934 -0.000000 -0.000000 -3.141592
 13 0.000000 0.000000 0.757953 -0.000000 -0.000000 -3.141592
 14 0.000001 1.047682 0.554789 -1.073015 0.005506 0.000863
 15 0.000000 0.000000 4.300853 0.101927 -0.158015 -0.083916
 16 0.000000 0.000000 3.909713 0.113402 0.035682 -3.137218
 17 0.000000 0.000000 4.692176 -0.043145 0.086789 -3.155365
 18 0.000000 0.000000 5.479362 -0.401153 0.004243 0.122087
 19 0.645092 -2.464382 2.019449 -0.190597 0.146014 -0.123451
 20 3.518158 -2.206055 -1.728387 2.911160 1.048239 -3.141592
 21 0.000000 0.000000 4.558179 1.009538 0.709271 0.518387
 22 0.000000 0.000000 11.949879 -1.084218 0.003165 -3.144415
 23 0.000000 0.000000 4.822874 1.029713 0.000000 0.000000
 24 -1.376730 -0.804586 1.281520 -0.659309 1.255116 -3.141592
 25 0.000000 0.000000 1.416892 0.073536 0.071051 -3.141592
 26 0.000000 0.000000 1.920310 0.269862 0.568862 0.000000
 27 0.213890 -0.856740 4.255571 0.528081 0.318569 0.000000
 28 0.000000 0.000000 1.378407 -0.049177 0.309751 -3.141592
 29 0.000000 0.000000 3.006212 0.930783 0.778878 -3.141592
 30 -3.352225 -2.014409 -1.625205 -3.111551 1.200587 0.000000
 31 0.000000 0.000000 4.228487 1.345242 0.312498 1.000209
 32 0.000000 0.000000 13.042765 -0.130293 0.306033 -4.137809
 33 0.000000 0.000000 7.153650 0.000000 0.000000 0.000000
 34 -1.945980 -0.135012 0.247196 -3.077445 1.523081 0.000000
 35 0.000000 0.000000 1.172377 -0.535111 0.583828 -3.141592
 36 0.000000 0.000000 1.923266 -0.123086 0.631228 0.000000
 37 0.111389 0.206554 2.803840 0.313340 0.079789 -3.141592
 38 0.000000 0.000000 2.609086 0.476630 0.064040 0.000000
 39 0.000000 0.000000 2.388648 0.340473 0.179722 0.000000
time 6
  0 0.192741 29.807257 36.074871 1.570796 0.000000 0.000000
  1 0.000000 -6.750002 -3.510001 0.000000 0.000000 0.000000
  2 3.007735 -0.000004 -0.000002 1.757705 0.142097 0.199531
  3 0.000000 0.000000 12.794512 1.094804 0.516882 -0.055360
  4 0.000000 0.000000 14.050400 3.885419 1.231065 -0.158990
  5 0.000000 0.000000 6.031133 0.113066 0.523561 0.000000
  6 0.000000 0.000000 0.757964 -0.000001 0.000000 0.000000
  7 0.000000 0.000000 0.757950 -0.000002 0.000000 0.000000
  8 -3.007735 0.000004 0.000005 -0.527674 0.056091 -3.066988
  9 0.000000 0.000000 12.794530 -0.641586 0.923648 0.523680
 10 0.000000 0.000000 13.961749 0.346538 0.881325 -2.485220
 11 0.000000 0.000000 6.030940 -0.114774 0.523252 0.000000
 12 0.000000 0.000000 0.757934 -0.000000 -0.000000 -3.141592
 13 0.000000 0.000000 0.757953 -0.000000 -0.000000 -3.141592
 14 0.000001 1.047682 0.554789 -1.073015 0.005506 0.000863
 15 0.000000 0.000000 4.300853 0.104360 -0.131498 -0.070050
 16 0.000000 0.000000 3.909713 0.093004 0.029954 -3.138235
 17 0.000000 0.000000 4.692176 -0.016731 0.072587 -3.152123
 18 0.000000 0.000000 5.479362 -0.395418 0.003248 0.101749
 19 0.645092 -2.464382 2.019449 -0.170273 0.149383 -0.103028
 20 3.518158 -2.206055 -1.728387 2.911160 1.048239 -3.141592
 21 0.000000 0.000000 4.558179 0.905918 0.749901 0.449259
 22 0.000000 0.000000 11.949879 -0.962022 0.003502 -3.144007
 23 0.000000 0.000000 4.822874 0.858094 0.000000 0.000000
 24 -1.376730 -0.804586 1.281520 -0.659309 1.255116 -3.141592
 25 0.000000 0.000000 1.416892 0.073536 0.071051 -3.141592
 26 0.000000 0.000000 1.920310 0.269862 0.568862 0.000000
 27 0.213890 -0.856740 4.255571 0.528081 0.318569 0.000000
 28 0.000000 0.000000 1.378407 -0.049177 0.309751 -3.141592
 29 0.000000 0.000000 3.006212 0.930783 0.778878 -3.141592
 30 -3.352225 -2.014409 -1.625205 -3.111551 1.200587 0.000000
 31 0.000000 0.000000 4.228487 1.223637 0.479069 0.953128
 32 0.000000 0.000000 13.042765 -0.026261 0.323012 -3.966830
 33 0.000000 0.000000 7.153650 0.000000 0.000000 0.000000
 34 -1.945980 -0.135012 0.247196 -3.077445 1.523081 0.000000
 35 0.000000 0.000000 1.172377 -0.535111 0.583828 -3.141592
 36 0.000000 0.000000 1.923266 -0.123086 0.631228 0.000000
 37 0.111389 0.206554 2.803840 0.313340 0.079789 -3.141592
 38 0.000000 0.000000 2.609086 0.476630 0.064040 0.000000
 39 0.000000 0.000000 2.388648 0.340473 0.179722 0.000000
time 7
  0 0.192741 34.807255 35.231098 1.570796 0.000000 0.000000
  1 0.000000 -6.750002 -3.510001 0.000000 0.000000 0.000000
  2 3.007735 -0.000004 -0.000002 1.467700 0.193067 0.150814
  3 0.000000 0.000000 12.794512 1.109102 0.517530 -0.048296
  4 0.000000 0.000000 14.050400 -2.247136 1.327062 -6.233459
  5 0.000000 0.000000 6.031133 0.113066 0.523561 0.000000
  6 0.000000 0.000000 0.757964 -0.000001 0.000000 0.000000
  7 0.000000 0.000000 0.757950 -0.000002 0.000000 0.000000
  8 -3.007735 0.000004 0.000005 -0.568913 0.059111 -3.069361
  9 0.000000 0.000000 12.794530 -0.631432 0.996908 0.565332
 10 0.000000 0.000000 13.961749 0.395146 0.990612 -2.497013
 11 0.000000 0.000000 6.030940 -0.114774 0.523252 0.000000
 12 0.000000 0.000000 0.757934 -0.000000 -0.000000 -3.141592
 13 0.000000 0.000000 0.757953 -0.000000 -0.000000 -3.141592
 14 0.000001 1.047682 0.554789 -1.073015 0.005506 0.000863
 15 0.000000 0.000000 4.300853 0.107153 -0.105014 -0.056148
 16 0.000000 0.000000 3.909713 0.072630 0.024201 -3.139142
 17 0.000000 0.000000 4.692176 0.009623 0.058314 -3.149258
 18 0.000000 0.000000 5.479362 -0.389661 0.002361 0.081411
 19 0.645092 -2.464382 2.019449 -0.149891 0.152327 -0.082524
 20 3.518158 -2.206055 -1.728387 2.911160 1.048239 -3.141592
 21 0.000000 0.000000 4.558179 0.794731 0.784780 0.371997
 22 0.000000 0.000000 11.949879 -0.839872 0.003761 -3.143568
 23 0.000000 0.000000 4.822874 0.686475 0.000000 0.000000
 24 -1.376730 -0.804586 1.281520 -0.659309 1.255116 -3.141592
 25 0.000000 0.000000 1.416892 0.073536 0.071051 -3.141592
 26 0.000000 0.000000 1.920310 0.269862 0.568862 0.000000
 27 0.213890 -0.856740 4.255571 0.528081 0.318569 0.000000
 28 0.000000 0.000000 1.378407 -0.049177 0.309751 -3.141592
 29 0.000000 0.000000 3.006212 0.930783 0.778878 -3.141592
 30 -3.352225 -2.014409 -1.625205 -3.111551 1.200587 0.000000
 31 0.000000 0.000000 4.228487 1.079379 0.638389 0.876306
 32 0.000000 0.000000 13.042765 0.079554 0.322754 -3.794407
 33 0.000000 0.000000 7.153650 0.000000 0.000000 0.000000
 34 -1.945980 -0.135012 0.247196 -3.077445 1.523081 0.000000
 35 0.000000 0.000000 1.172377 -0.535111 0.583828 -3.141592
 36 0.000000 0.000000 1.923266 -0.123086 0.631228 0.000000
 37 0.111389 0.206554 2.803840 0.313340 0.079789 -3.141592
 38 0.000000 0.000000 2.609086 0.476630 0.064040 0.000000
 39 0.000000 0.000000 2.388648 0.340473 0.179722 0.000000
time 8
  0 0.192741 39.807259 34.145126 1.570796 0.000000 0.000000
  1 0.000000 -6.750002 -3.510001 0.000000 0.000000 0.000000
  2 3.007735 -0.000004 -0.000002 1.172906 0.228026 0.088770
  3 0.000000 0.000000 12.794512 1.123365 0.518081 -0.041231
  4 0.000000 0.000000 14.050400 -1.899093 1.406424 -5.828010
  5 0.000000 0.000000 6.031133 0.113066 0.523561 0.000000
  6 0.000000 0.000000 0.757964 -0.000001 0.000000 0.000000
  7 0.000000 0.000000 0.757950 -0.000002 0.000000 0.000000
  8 -3.007735 0.000004 0.000005 -0.610111 0.062047 -3.071854
  9 0.000000 0.000000 12.794530 -0.613568 1.069847 0.613961
 10 0.000000 0.000000 13.961749 0.451137 1.100122 -2.499506
 11 0.000000 0.000000 6.030940 -0.114774 0.523252 0.000000
 12 0.000000 0.000000 0.757934 -0.000000 -0.000000 -3.141592
 13 0.000000 0.000000 0.757953 -0.000000 -0.000000 -3.141592
 14 0.000001 1.047682 0.554789 -1.073015 0.005506 0.000863
 15 0.000000 0.000000 4.300853 0.110317 -0.078565 -0.042210
 16 0.000000 0.000000 3.909713 0.052244 0.018425 -3.139938
 17 0.000000 0.000000 4.692176 0.035917 0.043968 -3.146770
 18 0.000000 0.000000 5.479362 -0.383905 0.001594 0.061061
 19 0.645092 -2.464382 2.019449 -0.129432 0.154860 -0.061967
 20 3.518158 -2.206055 -1.728387 2.911160 1.048239 -3.141592
 21 0.000000 0.000000 4.558179 0.676267 0.813064 0.287072
 22 0.000000 0.000000 11.949879 -0.717676 0.003994 -3.143098
 23 0.000000 0.000000 4.822874 0.514856 0.000000 0.000000
 24 -1.376730 -0.804586 1.281520 -0.659309 1.255116 -3.141592
 25 0.000000 0.000000 1.416892 0.073536 0.071051 -3.141592
 26 0.000000 0.000000 1.920310 0.269862 0.568862 0.000000
 27 0.213890 -0.856740 4.255571 0.528081 0.318569 0.000000
 28 0.000000 0.000000 1.378407 -0.049177 0.309751 -3.141592
 29 0.000000 0.000000 3.006212 0.930783 0.778878 -3.141592
 30 -3.352225 -2.014409 -1.625205 -3.111551 1.200587 0.000000
 31 0.000000 0.000000 4.228487 0.897967 0.785221 0.757255
 32 0.000000 0.000000 13.042765 0.183488 0.305389 -3.623543
 33 0.000000 0.000000 7.153650 0.000000 0.000000 0.000000
 34 -1.945980 -0.135012 0.247196 -3.077445 1.523081 0.000000
 35 0.000000 0.000000 1.172377 -0.535111 0.583828 -3.141592
 36 0.000000 0.000000 1.923266 -0.123086 0.631228 0.000000
 37 0.111389 0.206554 2.803840 0.313340 0.079789 -3.141592
 38 0.000000 0.000000 2.609086 0.476630 0.064040 0.000000
 39 0.000000 0.000000 2.388648 0.340473 0.179722 0.000000
time 9
  0 0.192741 44.807255 33.074780 1.570796 0.000000 0.000000
  1 0.000000 -6.750002 -3.510001 0.000000 0.000000 0.000000
  2 3.007735 -0.000004 -0.000002 0.874654 0.243726 0.018576
  3 0.000000 0.000000 12.794512 1.137664 0.518548 -0.034138
  4 0.000000 0.000000 14.050400 -1.206285 1.435283 -5.078066
  5 0.000000 0.000000 6.031133 0.113066 0.523561 0.000000
  6 0.000000 0.000000 0.757964 -0.000001 0.000000 0.000000
  7 0.000000 0.000000 0.757950 -0.000002 0.000000 0.000000
  8 -3.007735 0.000004 0.000005 -0.651350 0.064863 -3.074466
  9 0.000000 0.000000 12.794530 -0.584439 1.142186 0.673329
 10 0.000000 0.000000 13.961749 0.522179 1.209483 -2.485316
 11 0.000000 0.000000 6.030940 -0.114774 0.523252 0.000000
 12 0.000000 0.000000 0.757934 -0.000000 -0.000000 -3.141592
 13 0.000000 0.000000 0.757953 -0.000000 -0.000000 -3.141592
 14 0.000001 1.047682 0.554789 -1.073015 0.005506 0.000863
 15 0.000000 0.000000 4.300853 0.113828 -0.052150 -0.028212
 16 0.000000 0.000000 3.909713 0.031883 0.012648 -3.140612
 17 0.000000 0.000000 4.692176 0.062151 0.029563 -3.144659
 18 0.000000 0.000000 5.479362 -0.378108 0.000947 0.040712
 19 0.645092 -2.464382 2.019449 -0.108936 0.156968 -0.041356
 20 3.518158 -2.206055 -1.728387 2.911160 1.048239 -3.141592
 21 0.000000 0.000000 4.558179 0.551577 0.833968 0.195578
 22 0.000000 0.000000 11.949879 -0.595527 0.004149 -3.142596
 23 0.000000 0.000000 4.822874 0.343238 0.000000 0.000000
 24 -1.376730 -0.804586 1.281520 -0.659309 1.255116 -3.141592
 25 0.000000 0.000000 1.416892 0.073536 0.071051 -3.141592
 26 0.000000 0.000000 1.920310 0.269862 0.568862 0.000000
 27 0.213890 -0.856740 4.255571 0.528081 0.318569 0.000000
 28 0.000000 0.000000 1.378407 -0.049177 0.309751 -3.141592
 29 0.000000 0.000000 3.006212 0.930783 0.778878 -3.141592
 30 -3.352225 -2.014409 -1.625205 -3.111551 1.200587 0.000000
 31 0.000000 0.000000 4.228487 0.659570 0.910233 0.577825
 32 0.000000 0.000000 13.042765 0.282073 0.271646 -3.456661
 33 0.000000 0.000000 7.153650 0.000000 0.000000 0.000000
 34 -1.945980 -0.135012 0.247196 -3.077445 1.523081 0.000000
 35 0.000000 0.000000 1.172377 -0.535111 0.583828 -3.141592
 36 0.000000 0.000000 1.923266 -0.123086 0.631228 0.000000
 37 0.111389 0.206554 2.803840 0.313340 0.079789 -3.141592
 38 0.000000 0.000000 2.609086 0.476630 0.064040 0.000000
 39 0.000000 0.000000 2.388648 0.340473 0.179722 0.000000
time 10
  0 0.192741 49.807255 32.277882 1.570796 0.000000 0.000000
  1 0.000000 -6.750002 -3.510001 0.000000 0.000000 0.000000
  2 3.007735 -0.000004 -0.000002 0.575642 0.238632 -0.053343
  3 0.000000 0.000000 12.794512 1.151963 0.518932 -0.027045
  4 0.000000 0.000000 14.050400 -0.599341 1.387860 -4.413987
  5 0.000000 0.000000 6.031133 0.113066 0.523561 0.000000
  6 0.000000 0.000000 0.757964 -0.000001 0.000000 0.000000
  7 0.000000 0.000000 0.757950 -0.000002 0.000000 0.000000
  8 -3.007735 0.000004 0.000005 -0.692631 0.067572 -3.077199
  9 0.000000 0.000000 12.794530 -0.537557 1.213475 0.749943
 10 0.000000 0.000000 13.961749 0.628982 1.317951 -2.434406
 11 0.000000 0.000000 6.030940 -0.114774 0.523252 0.000000
 12 0.000000 0.000000 0.757934 -0.000000 -0.000000 -3.141592
 13 0.000000 0.000000 0.757953 -0.000000 -0.000000 -3.141592
 14 0.000001 1.047682 0.554789 -1.073015 0.005506 0.000863
 15 0.000000 0.000000 4.300853 0.117711 -0.025803 -0.014142
 16 0.000000 0.000000 3.909713 0.011509 0.006848 -3.141163
 17 0.000000 0.000000 4.692176 0.088362 0.015097 -3.142937
 18 0.000000 0.000000 5.479362 -0.372310 0.000407 0.020350
 19 0.645092 -2.464382 2.019449 -0.088362 0.158666 -0.020691
 20 3.518158 -2.206055 -1.728387 2.911160 1.048239 -3.141592
 21 0.000000 0.000000 4.558179 0.422099 0.846805 0.099079
 22 0.000000 0.000000 11.949879 -0.473331 0.004227 -3.142094
 23 0.000000 0.000000 4.822874 0.171619 0.000000 0.000000
 24 -1.376730 -0.804586 1.281520 -0.659309 1.255116 -3.141592
 25 0.000000 0.000000 1.416892 0.073536 0.071051 -3.141592
 26 0.000000 0.000000 1.920310 0.269862 0.568862 0.000000
 27 0.213890 -0.856740 4.255571 0.528081 0.318569 0.000000
 28 0.000000 0.000000 1.378407 -0.049177 0.309751 -3.141592
 29 0.000000 0.000000 3.006212 0.930783 0.778878 -3.141592
 30 -3.352225 -2.014409 -1.625205 -3.111551 1.200587 0.000000
 31 0.000000 0.000000 4.228487 0.346157 0.998453 0.321213
 32 0.000000 0.000000 13.042765 0.372588 0.222902 -3.295722
 33 0.000000 0.000000 7.153650 0.000000 0.000000 0.000000
 34 -1.945980 -0.135012 0.247196 -3.077445 1.523081 0.000000
 35 0.000000 0.000000 1.172377 -0.535111 0.583828 -3.141592
 36 0.000000 0.000000 1.923266 -0.123086 0.631228 0.000000
 37 0.111389 0.206554 2.803840 0.313340 0.079789 -3.141592
 38 0.000000 0.000000 2.609086 0.476630 0.064040 0.000000
 39 0.000000 0.000000 2.388648 0.340473 0.179722 0.000000
time 11
  0 0.192741 54.807255 32.016155 1.570796 0.000000 0.000000
  1 0.000000 -6.750002 -3.510001 0.000000 0.000000 0.000000
  2 3.007735 -0.000004 -0.000002 0.278796 0.213261 -0.120313
  3 0.000000 0.000000 12.794512 1.166298 0.519219 -0.019952
  4 0.000000 0.000000 14.050400 -0.323584 1.301954 -4.080626
  5 0.000000 0.000000 6.031133 0.113066 0.523561 0.000000
  6 0.000000 0.000000 0.757964 -0.000001 0.000000 0.000000
  7 0.000000 0.000000 0.757950 -0.000002 0.000000 0.000000
  8 -3.007735 0.000004 0.000005 -0.733871 0.070172 -3.080040
  9 0.000000 0.000000 12.794530 -0.460656 1.282855 0.856216
 10 0.000000 0.000000 13.961749 0.848917 1.422773 -2.269498
 11 0.000000 0.000000 6.030940 -0.114774 0.523252 0.000000
 12 0.000000 0.000000 0.757934 -0.000000 -0.000000 -3.141592
 13 0.000000 0.000000 0.757953 -0.000000 -0.000000 -3.141592
 14 0.000001 1.047682 0.554789 -1.073015 0.005506 0.000863
 15 0.000000 0.000000 4.300853 0.121966 0.000476 0.000024
 16 0.000000 0.000000 3.909713 -0.008841 0.001047 -3.141592
 17 0.000000 0.000000 4.692176 0.114524 0.000608 -3.141592
 18 0.000000 0.000000 5.479362 -0.366512 0.000000 0.000000
 19 0.645092 -2.464382 2.019449 -0.067789 0.159939 0.000000
 20 3.518158 -2.206055 -1.728387 2.911160 1.048239 -3.141592
 21 0.000000 0.000000 4.558179 0.290227 0.851123 0.000000
 22 0.000000 0.000000 11.949879 -0.351181 0.004253 -3.141592
 23 0.000000 0.000000 4.822874 0.000000 0.000000 0.000000
 24 -1.376730 -0.804586 1.281520 -0.659309 1.255116 -3.141592
 25 0.000000 0.000000 1.416892 0.073536 0.071051 -3.141592
 26 0.000000 0.000000 1.920310 0.269862 0.568862 0.000000
 27 0.213890 -0.856740 4.255571 0.528081 0.318569 0.000000
 28 0.000000 0.000000 1.378407 -0.049177 0.309751 -3.141592
 29 0.000000 0.000000 3.006212 0.930783 0.778878 -3.141592
 30 -3.352225 -2.014409 -1.625205 -3.111551 1.200587 0.000000
 31 0.000000 0.000000 4.228487 -0.030722 1.031015 0.000000
 32 0.000000 0.000000 13.042765 0.453051 0.161047 -3.141592
 33 0.000000 0.000000 7.153650 0.000000 0.000000 0.000000
 34 -1.945980 -0.135012 0.247196 -3.077445 1.523081 0.000000
 35 0.000000 0.000000 1.172377 -0.535111 0.583828 -3.141592
 36 0.000000 0.000000 1.923266 -0.123086 0.631228 0.000000
 37 0.111389 0.206554 2.803840 0.313340 0.079789 -3.141592
 38 0.000000 0.000000 2.609086 0.476630 0.064040 0.000000
 39 0.000000 0.000000 2.388648 0.340473 0.179722 0.000000
time 12
  0 0.192741 59.807255 32.484921 1.570796 0.000000 0.000000
  1 0.000000 -6.750002 -3.510001 0.000000 0.000000 0.000000
  2 3.007735 -0.000004 -0.000002 0.321664 0.218139 -0.111133
  3 0.000000 0.000000 12.794512 1.127781 0.518237 -0.039042
  4 0.000000 0.000000 14.050400 -0.286130 1.319967 -4.060434
  5 0.000000 0.000000 6.031133 0.113066 0.523561 0.000000
  6 0.000000 0.000000 0.757964 -0.000001 0.000000 0.000000
  7 0.000000 0.000000 0.757950 -0.000002 0.000000 0.000000
  8 -3.007735 0.000004 0.000005 -0.966919 0.082469 -3.097884
  9 0.000000 0.000000 12.794530 -0.565834 1.228354 0.728334
 10 0.000000 0.000000 13.961749 1.222154 1.321896 -1.850421
 11 0.000000 0.000000 6.030940 -0.114774 0.523252 0.000000
 12 0.000000 0.000000 0.757934 -0.000000 -0.000000 -3.141592
 13 0.000000 0.000000 0.757953 -0.000000 -0.000000 -3.141592
 14 0.000001 1.047682 0.554789 -1.073015 0.005506 0.000863
 15 0.000000 0.000000 4.300853 0.107440 0.026619 -0.001306
 16 0.000000 0.000000 3.909713 0.017333 -0.007642 -3.142364
 17 0.000000 0.000000 4.692176 0.102899 0.000608 -3.141592
 18 0.000000 0.000000 5.479362 -0.326053 -0.023502 -0.000419
 19 0.645092 -2.464382 2.019449 -0.026547 0.159806 0.006558
 20 3.518158 -2.206055 -1.728387 2.911160 1.048239 -3.141592
 21 0.000000 0.000000 4.558179 0.233916 0.881703 0.140916
 22 0.000000 0.000000 11.949879 -0.495156 0.031998 -3.215054
 23 0.000000 0.000000 4.822874 0.000000 0.000000 0.000000
 24 -1.376730 -0.804586 1.281520 -0.659309 1.255116 -3.141592
 25 0.000000 0.000000 1.416892 0.073536 0.071051 -3.141592
 26 0.000000 0.000000 1.920310 0.269862 0.568862 0.000000
 27 0.213890 -0.856740 4.255571 0.528081 0.318569 0.000000
 28 0.000000 0.000000 1.378407 -0.049177 0.309751 -3.141592
 29 0.000000 0.000000 3.006212 0.930783 0.778878 -3.141592
 30 -3.352225 -2.014409 -1.625205 -3.111551 1.200587 0.000000
 31 0.000000 0.000000 4.228487 -0.035920 1.040683 0.013388
 32 0.000000 0.000000 13.042765 0.640468 0.189761 -3.153075
 33 0.000000 0.000000 7.153650 -0.127962 0.000000 0.000000
 34 -1.945980 -0.135012 0.247196 -3.077445 1.523081 0.000000
 35 0.000000 0.000000 1.172377 -0.535111 0.583828 -3.141592
 36 0.000000 0.000000 1.923266 -0.123086 0.631228 0.000000
 37 0.111389 0.206554 2.803840 0.313340 0.079789 -3.141592
 38 0.000000 0.000000 2.609086 0.476630 0.064040 0.000000
 39 0.000000 0.000000 2.388648 0.340473 0.179722 0.000000
time 13
  0 0.192741 64.807259 33.520107 1.570796 0.000000 0.000000
  1 0.000000 -6.750002 -3.510001 0.000000 0.000000 0.000000
  2 3.007735 -0.000004 -0.000002 0.364646 0.222609 -0.101737
  3 0.000000 0.000000 12.794512 1.089337 0.516619 -0.058060
  4 0.000000 0.000000 14.050400 -0.244275 1.337752 -4.035807
  5 0.000000 0.000000 6.031133 0.113066 0.523561 0.000000
  6 0.000000 0.000000 0.757964 -0.000001 0.000000 0.000000
  7 0.000000 0.000000 0.757950 -0.000002 0.000000 0.000000
  8 -3.007735 0.000004 0.000005 -1.200386 0.090319 -3.118126
  9 0.000000 0.000000 12.794530 -0.638399 1.170594 0.632853
 10 0.000000 0.000000 13.961749 1.356569 1.205316 -1.669405
 11 0.000000 0.000000 6.030940 -0.114774 0.523252 0.000000
 12 0.000000 0.000000 0.757934 -0.000000 -0.000000 -3.141592
 13 0.000000 0.000000 0.757953 -0.000000 -0.000000 -3.141592
 14 0.000001 1.047682 0.554789 -1.073015 0.005506 0.000863
 15 0.000000 0.000000 4.300853 0.092855 0.052761 -0.003032
 16 0.000000 0.000000 3.909713 0.043520 -0.016319 -3.143357
 17 0.000000 0.000000 4.692176 0.091262 0.000608 -3.141606
 18 0.000000 0.000000 5.479362 -0.285553 -0.046968 -0.001798
 19 0.645092 -2.464382 2.019449 0.014696 0.159409 0.013116
 20 3.518158 -2.206055 -1.728387 2.911160 1.048239 -3.141592
 21 0.000000 0.000000 4.558179 0.182871 0.917152 0.284804
 22 0.000000 0.000000 11.949879 -0.640893 0.048863 -3.291809
 23 0.000000 0.000000 4.822874 0.000000 0.000000 0.000000
 24 -1.376730 -0.804586 1.281520 -0.659309 1.255116 -3.141592
 25 0.000000 0.000000 1.416892 0.073536 0.071051 -3.141592
 26 0.000000 0.000000 1.920310 0.269862 0.568862 0.000000
 27 0.213890 -0.856740 4.255571 0.528081 0.318569 0.000000
 28 0.000000 0.000000 1.378407 -0.049177 0.309751 -3.141592
 29 0.000000 0.000000 3.006212 0.930783 0.778878 -3.141592
 30 -3.352225 -2.014409 -1.625205 -3.111551 1.200587 0.000000
 31 0.000000 0.000000 4.228487 -0.040989 1.050418 0.026865
 32 0.000000 0.000000 13.042765 0.828726 0.220151 -3.158962
 33 0.000000 0.000000 7.153650 -0.255954 0.000000 0.000000
 34 -1.945980 -0.135012 0.247196 -3.077445 1.523081 0.000000
 35 0.000000 0.000000 1.172377 -0.535111 0.583828 -3.141592
 36 0.000000 0.000000 1.923266 -0.123086 0.631228 0.000000
 37 0.111389 0.206554 2.803840 0.313340 0.079789 -3.141592
 38 0.000000 0.000000 2.609086 0.476630 0.064040 0.000000
 39 0.000000 0.000000 2.388648 0.340473 0.179722 0.000000
time 14
  0 0.192741 69.807251 34.832649 1.570796 0.000000 0.000000
  1 0.000000 -6.750002 -3.510001 0.000000 0.000000 0.000000
  2 3.007735 -0.000004 -0.000002 0.407704 0.226696 -0.092150
  3 0.000000 0.000000 12.794512 1.050966 0.514354 -0.076975
  4 0.000000 0.000000 14.050400 -0.197083 1.355274 -4.005802
  5 0.000000 0.000000 6.031133 0.113066 0.523561 0.000000
  6 0.000000 0.000000 0.757964 -0.000001 0.000000 0.000000
  7 0.000000 0.000000 0.757950 -0.000002 0.000000 0.000000
  8 -3.007735 0.000004 0.000005 -1.434062 0.093291 -3.139639
  9 0.000000 0.000000 12.794530 -0.689580 1.110819 0.558486
 10 0.000000 0.000000 13.961749 1.413805 1.084345 -1.564612
 11 0.000000 0.000000 6.030940 -0.114774 0.523252 0.000000
 12 0.000000 0.000000 0.757934 -0.000000 -0.000000 -3.141592
 13 0.000000 0.000000 0.757953 -0.000000 -0.000000 -3.141592
 14 0.000001 1.047682 0.554789 -1.073015 0.005506 0.000863
 15 0.000000 0.000000 4.300853 0.078210 0.078853 -0.005141
 16 0.000000 0.000000 3.909713 0.069718 -0.024972 -3.144582
 17 0.000000 0.000000 4.692176 0.079625 0.000608 -3.141606
 18 0.000000 0.000000 5.479362 -0.244949 -0.070350 -0.004135
 19 0.645092 -2.464382 2.019449 0.055938 0.158745 0.019647
 20 3.518158 -2.206055 -1.728387 2.911160 1.048239 -3.141592
 21 0.000000 0.000000 4.558179 0.138531 0.956859 0.432915
 22 0.000000 0.000000 11.949879 -0.787602 0.054355 -3.370258
 23 0.000000 0.000000 4.822874 0.000000 0.000000 0.000000
 24 -1.376730 -0.804586 1.281520 -0.659309 1.255116 -3.141592
 25 0.000000 0.000000 1.416892 0.073536 0.071051 -3.141592
 26 0.000000 0.000000 1.920310 0.269862 0.568862 0.000000
 27 0.213890 -0.856740 4.255571 0.528081 0.318569 0.000000
 28 0.000000 0.000000 1.378407 -0.049177 0.309751 -3.141592
 29 0.000000 0.000000 3.006212 0.930783 0.778878 -3.141592
 30 -3.352225 -2.014409 -1.625205 -3.111551 1.200587 0.000000
 31 0.000000 0.000000 4.228487 -0.045866 1.060153 0.040522
 32 0.000000 0.000000 13.042765 1.018173 0.251056 -3.158904
 33 0.000000 0.000000 7.153650 -0.383946 0.000000 0.000000
 34 -1.945980 -0.135012 0.247196 -3.077445 1.523081 0.000000
 35 0.000000 0.000000 1.172377 -0.535111 0.583828 -3.141592
 36 0.000000 0.000000 1.923266 -0.123086 0.631228 0.000000
 37 0.111389 0.206554 2.803840 0.313340 0.079789 -3.141592
 38 0.000000 0.000000 2.609086 0.476630 0.064040 0.000000
 39 0.000000 0.000000 2.388648 0.340473 0.179722 0.000000
time 15
  0 0.192741 74.807251 36.129562 1.570796 0.000000 0.000000
  1 0.000000 -6.750002 -3.510001 0.000000 0.000000 0.000000
  2 3.007735 -0.000004 -0.000002 0.450876 0.230375 -0.082370
  3 0.000000 0.000000 12.794512 1.012739 0.511465 -0.095745
  4 0.000000 0.000000 14.050400 -0.143055 1.372424 -3.969002
  5 0.000000 0.000000 6.031133 0.113066 0.523561 0.000000
  6 0.000000 0.000000 0.757964 -0.000001 0.000000 0.000000
  7 0.000000 0.000000 0.757950 -0.000002 0.000000 0.000000
  8 -3.007735 0.000004 0.000005 -1.667737 0.091229 -3.161259
  9 0.000000 0.000000 12.794530 -0.726233 1.049737 0.498307
 10 0.000000 0.000000 13.961749 1.438349 0.961774 -1.491075
 11 0.000000 0.000000 6.030940 -0.114774 0.523252 0.000000
 12 0.000000 0.000000 0.757934 -0.000000 -0.000000 -3.141592
 13 0.000000 0.000000 0.757953 -0.000000 -0.000000 -3.141592
 14 0.000001 1.047682 0.554789 -1.073015 0.005506 0.000863
 15 0.000000 0.000000 4.300853 0.063469 0.104928 -0.007634
 16 0.000000 0.000000 3.909713 0.095928 -0.033576 -3.146040
 17 0.000000 0.000000 4.692176 0.067988 0.000608 -3.141619
 18 0.000000 0.000000 5.479362 -0.204221 -0.093636 -0.007430
 19 0.645092 -2.464382 2.019449 0.097162 0.157804 0.026152
 20 3.518158 -2.206055 -1.728387 2.911160 1.048239 -3.141592
 21 0.000000 0.000000 4.558179 0.102714 1.000041 0.587047
 22 0.000000 0.000000 11.949879 -0.934265 0.048319 -3.448675
 23 0.000000 0.000000 4.822874 0.000000 0.000000 0.000000
 24 -1.376730 -0.804586 1.281520 -0.659309 1.255116 -3.141592
 25 0.000000 0.000000 1.416892 0.073536 0.071051 -3.141592
 26 0.000000 0.000000 1.920310 0.269862 0.568862 0.000000
 27 0.213890 -0.856740 4.255571 0.528081 0.318569 0.000000
 28 0.000000 0.000000 1.378407 -0.049177 0.309751 -3.141592
 29 0.000000 0.000000 3.006212 0.930783 0.778878 -3.141592
 30 -3.352225 -2.014409 -1.625205 -3.111551 1.200587 0.000000
 31 0.000000 0.000000 4.228487 -0.050551 1.069955 0.054269
 32 0.000000 0.000000 13.042765 1.209254 0.281403 -3.152787
 33 0.000000 0.000000 7.153650 -0.511938 0.000000 0.000000
 34 -1.945980 -0.135012 0.247196 -3.077445 1.523081 0.000000
 35 0.000000 0.000000 1.172377 -0.535111 0.583828 -3.141592
 36 0.000000 0.000000 1.923266 -0.123086 0.631228 0.000000
 37 0.111389 0.206554 2.803840 0.313340 0.079789 -3.141592
 38 0.000000 0.000000 2.609086 0.476630 0.064040 0.000000
 39 0.000000 0.000000 2.388648 0.340473 0.179722 0.000000
time 16
  0 0.192741 79.807259 37.117874 1.570796 0.000000 0.000000
  1 0.000000 -6.750002 -3.510001 0.000000 0.000000 0.000000
  2 3.007735 -0.000004 -0.000002 0.494086 0.233635 -0.072435
  3 0.000000 0.000000 12.794512 0.974621 0.507966 -0.114339
  4 0.000000 0.000000 14.050400 -0.080694 1.389118 -3.923806
  5 0.000000 0.000000 6.031133 0.113066 0.523561 0.000000
  6 0.000000 0.000000 0.757964 -0.000001 0.000000 0.000000
  7 0.000000 0.000000 0.757950 -0.000002 0.000000 0.000000
  8 -3.007735 0.000004 0.000005 -1.901246 0.084218 -3.181813
  9 0.000000 0.000000 12.794530 -0.752694 0.987818 0.447954
 10 0.000000 0.000000 13.961749 1.445923 0.838608 -1.432494
 11 0.000000 0.000000 6.030940 -0.114774 0.523252 0.000000
 12 0.000000 0.000000 0.757934 -0.000000 -0.000000 -3.141592
 13 0.000000 0.000000 0.757953 -0.000000 -0.000000 -3.141592
 14 0.000001 1.047682 0.554789 -1.073015 0.005506 0.000863
 15 0.000000 0.000000 4.300853 0.048620 0.130951 -0.010522
 16 0.000000 0.000000 3.909713 0.122175 -0.042145 -3.147719
 17 0.000000 0.000000 4.692176 0.056351 0.000608 -3.141619
 18 0.000000 0.000000 5.479362 -0.163327 -0.116754 -0.011673
 19 0.645092 -2.464382 2.019449 0.138385 0.156610 0.032603
 20 3.518158 -2.206055 -1.728387 2.911160 1.048239 -3.141592
 21 0.000000 0.000000 4.558179 0.077910 1.045853 0.749781
 22 0.000000 0.000000 11.949879 -1.079955 0.030962 -3.525336
 23 0.000000 0.000000 4.822874 0.000000 0.000000 0.000000
 24 -1.376730 -0.804586 1.281520 -0.659309 1.255116 -3.141592
 25 0.000000 0.000000 1.416892 0.073536 0.071051 -3.141592
 26 0.000000 0.000000 1.920310 0.269862 0.568862 0.000000
 27 0.213890 -0.856740 4.255571 0.528081 0.318569 0.000000
 28 0.000000 0.000000 1.378407 -0.049177 0.309751 -3.141592
 29 0.000000 0.000000 3.006212 0.930783 0.778878 -3.141592
 30 -3.352225 -2.014409 -1.625205 -3.111551 1.200587 0.000000
 31 0.000000 0.000000 4.228487 -0.054979 1.079825 0.068286
 32 0.000000 0.000000 13.042765 1.402217 0.310031 -3.140785
 33 0.000000 0.000000 7.153650 -0.639930 0.000000 0.000000
 34 -1.945980 -0.135012 0.247196 -3.077445 1.523081 0.000000
 35 0.000000 0.000000 1.172377 -0.535111 0.583828 -3.141592
 36 0.000000 0.000000 1.923266 -0.123086 0.631228 0.000000
 37 0.111389 0.206554 2.803840 0.313340 0.079789 -3.141592
 38 0.000000 0.000000 2.609086 0.476630 0.064040 0.000000
 39 0.000000 0.000000 2.388648 0.340473 0.179722 0.000000
time 17
  0 0.192741 84.807251 37.512417 1.570796 0.000000 0.000000
  1 0.000000 -6.750002 -3.510001 0.000000 0.000000 0.000000
  2 3.007735 -0.000004 -0.000002 0.537335 0.236475 -0.062356
  3 0.000000 0.000000 12.794512 0.936648 0.503843 -0.132729
  4 0.000000 0.000000 14.050400 -0.007752 1.405190 -3.867947
  5 0.000000 0.000000 6.031133 0.113066 0.523561 0.000000
  6 0.000000 0.000000 0.757964 -0.000001 0.000000 0.000000
  7 0.000000 0.000000 0.757950 -0.000002 0.000000 0.000000
  8 -3.007735 0.000004 0.000005 -2.134420 0.072677 -3.200161
  9 0.000000 0.000000 12.794530 -0.771669 0.925320 0.404578
 10 0.000000 0.000000 13.961749 1.443047 0.715404 -1.381967
 11 0.000000 0.000000 6.030940 -0.114774 0.523252 0.000000
 12 0.000000 0.000000 0.757934 -0.000000 -0.000000 -3.141592
 13 0.000000 0.000000 0.757953 -0.000000 -0.000000 -3.141592
 14 0.000001 1.047682 0.554789 -1.073015 0.005506 0.000863
 15 0.000000 0.000000 4.300853 0.033627 0.156940 -0.013818
 16 0.000000 0.000000 3.909713 0.148433 -0.050678 -3.149618
 17 0.000000 0.000000 4.692176 0.044714 0.000608 -3.141633
 18 0.000000 0.000000 5.479362 -0.122205 -0.139692 -0.016886
 19 0.645092 -2.464382 2.019449 0.179570 0.155152 0.039000
 20 3.518158 -2.206055 -1.728387 2.911160 1.048239 -3.141592
 21 0.000000 0.000000 4.558179 0.067376 1.093176 0.924401
 22 0.000000 0.000000 11.949879 -1.223837 0.002750 -3.598609
 23 0.000000 0.000000 4.822874 0.000000 0.000000 0.000000
 24 -1.376730 -0.804586 1.281520 -0.659309 1.255116 -3.141592
 25 0.000000 0.000000 1.416892 0.073536 0.071051 -3.141592
 26 0.000000 0.000000 1.920310 0.269862 0.568862 0.000000
 27 0.213890 -0.856740 4.255571 0.528081 0.318569 0.000000
 28 0.000000 0.000000 1.378407 -0.049177 0.309751 -3.141592
 29 0.000000 0.000000 3.006212 0.930783 0.778878 -3.141592
 30 -3.352225 -2.014409 -1.625205 -3.111551 1.200587 0.000000
 31 0.000000 0.000000 4.228487 -0.059278 1.089694 0.082392
 32 0.000000 0.000000 13.042765 1.597309 0.335951 -3.122954
 33 0.000000 0.000000 7.153650 -0.767922 0.000000 0.000000
 34 -1.945980 -0.135012 0.247196 -3.077445 1.523081 0.000000
 35 0.000000 0.000000 1.172377 -0.535111 0.583828 -3.141592
 36 0.000000 0.000000 1.923266 -0.123086 0.631228 0.000000
 37 0.111389 0.206554 2.803840 0.313340 0.079789 -3.141592
 38 0.000000 0.000000 2.609086 0.476630 0.064040 0.000000
 39 0.000000 0.000000 2.388648 0.340473 0.179722 0.000000
time 18
  0 0.192741 89.807251 37.235065 1.570796 0.000000 0.000000
  1 0.000000 -6.750002 -3.510001 0.000000 0.000000 0.000000
  2 3.007735 -0.000004 -0.000002 0.580659 0.238896 -0.052157
  3 0.000000 0.000000 12.794512 0.981246 0.508613 -0.111128
  4 0.000000 0.000000 14.050400 0.078673 1.420446 -3.798689
  5 0.000000 0.000000 6.031133 0.113066 0.523561 0.000000
  6 0.000000 0.000000 0.757964 -0.000001 0.000000 0.000000
  7 0.000000 0.000000 0.757950 -0.000002 0.000000 0.000000
  8 -3.007735 0.000004 0.000005 -1.825376 0.087023 -3.175317
  9 0.000000 0.000000 12.794530 -0.846235 0.872534 0.331778
 10 0.000000 0.000000 13.961749 1.163575 0.725228 -1.596156
 11 0.000000 0.000000 6.030940 -0.114774 0.523252 0.000000
 12 0.000000 0.000000 0.757934 -0.000000 -0.000000 -3.141592
 13 0.000000 0.000000 0.757953 -0.000000 -0.000000 -3.141592
 14 0.000001 1.047682 0.554789 -1.073015 0.005506 0.000863
 15 0.000000 0.000000 4.300853 0.048620 0.130951 -0.010522
 16 0.000000 0.000000 3.909713 0.122175 -0.042145 -3.147719
 17 0.000000 0.000000 4.692176 0.056351 0.000608 -3.141619
 18 0.000000 0.000000 5.479362 -0.163327 -0.116754 -0.011673
 19 0.645092 -2.464382 2.019449 0.138385 0.156610 0.032603
 20 3.518158 -2.206055 -1.728387 2.911160 1.048239 -3.141592
 21 0.000000 0.000000 4.558179 0.077910 1.045853 0.749781
 22 0.000000 0.000000 11.949879 -1.079955 0.030962 -3.525336
 23 0.000000 0.000000 4.822874 0.000000 0.000000 0.000000
 24 -1.376730 -0.804586 1.281520 -0.659309 1.255116 -3.141592
 25 0.000000 0.000000 1.416892 0.073536 0.071051 -3.141592
 26 0.000000 0.000000 1.920310 0.269862 0.568862 0.000000
 27 0.213890 -0.856740 4.255571 0.528081 0.318569 0.000000
 28 0.000000 0.000000 1.378407 -0.049177 0.309751 -3.141592
 29 0.000000 0.000000 3.006212 0.930783 0.778878 -3.141592
 30 -3.352225 -2.014409 -1.625205 -3.111551 1.200587 0.000000
 31 0.000000 0.000000 4.228487 -0.054979 1.079825 0.068286
 32 0.000000 0.000000 13.042765 1.402217 0.310031 -3.140785
 33 0.000000 0.000000 7.153650 -0.639930 0.000000 0.000000
 34 -1.945980 -0.135012 0.247196 -3.077445 1.523081 0.000000
 35 0.000000 0.000000 1.172377 -0.535111 0.583828 -3.141592
 36 0.000000 0.000000 1.923266 -0.123086 0.631228 0.000000
 37 0.111389 0.206554 2.803840 0.313340 0.079789 -3.141592
 38 0.000000 0.000000 2.609086 0.476630 0.064040 0.000000
 39 0.000000 0.000000 2.388648 0.340473 0.179722 0.000000
time 19
  0 0.192741 94.807259 36.496761 1.570796 0.000000 0.000000
  1 0.000000 -6.750002 -3.510001 0.000000 0.000000 0.000000
  2 3.007735 -0.000004 -0.000002 0.624059 0.240874 -0.041850
  3 0.000000 0.000000 12.794512 1.026025 0.512544 -0.089235
  4 0.000000 0.000000 14.050400 0.181859 1.434612 -3.712542
  5 0.000000 0.000000 6.031133 0.113066 0.523561 0.000000
  6 0.000000 0.000000 0.757964 -0.000001 0.000000 0.000000
  7 0.000000 0.000000 0.757950 -0.000002 0.000000 0.000000
  8 -3.007735 0.000004 0.000005 -1.515829 0.093147 -3.147249
  9 0.000000 0.000000 12.794530 -0.910572 0.816747 0.269196
 10 0.000000 0.000000 13.961749 0.890526 0.690585 -1.803537
 11 0.000000 0.000000 6.030940 -0.114774 0.523252 0.000000
 12 0.000000 0.000000 0.757934 -0.000000 -0.000000 -3.141592
 13 0.000000 0.000000 0.757953 -0.000000 -0.000000 -3.141592
 14 0.000001 1.047682 0.554789 -1.073015 0.005506 0.000863
 15 0.000000 0.000000 4.300853 0.063469 0.104928 -0.007634
 16 0.000000 0.000000 3.909713 0.095928 -0.033576 -3.146040
 17 0.000000 0.000000 4.692176 0.067988 0.000608 -3.141619
 18 0.000000 0.000000 5.479362 -0.204221 -0.093636 -0.007430
 19 0.645092 -2.464382 2.019449 0.097162 0.157804 0.026152
 20 3.518158 -2.206055 -1.728387 2.911160 1.048239 -3.141592
 21 0.000000 0.000000 4.558179 0.102714 1.000041 0.587047
 22 0.000000 0.000000 11.949879 -0.934265 0.048319 -3.448675
 23 0.000000 0.000000 4.822874 0.000000 0.000000 0.000000
 24 -1.376730 -0.804586 1.281520 -0.659309 1.255116 -3.141592
 25 0.000000 0.000000 1.416892 0.073536 0.071051 -3.141592
 26 0.000000 0.000000 1.920310 0.269862 0.568862 0.000000
 27 0.213890 -0.856740 4.255571 0.528081 0.318569 0.000000
 28 0.000000 0.000000 1.378407 -0.049177 0.309751 -3.141592
 29 0.000000 0.000000 3.006212 0.930783 0.778878 -3.141592
 30 -3.352225 -2.014409 -1.625205 -3.111551 1.200587 0.000000
 31 0.000000 0.000000 4.228487 -0.050551 1.069955 0.054269
 32 0.000000 0.000000 13.042765 1.209254 0.281403 -3.152787
 33 0.000000 0.000000 7.153650 -0.511938 0.000000 0.000000
 34 -1.945980 -0.135012 0.247196 -3.077445 1.523081 0.000000
 35 0.000000 0.000000 1.172377 -0.535111 0.583828 -3.141592
 36 0.000000 0.000000 1.923266 -0.123086 0.631228 0.000000
 37 0.111389 0.206554 2.803840 0.313340 0.079789 -3.141592
 38 0.000000 0.000000 2.609086 0.476630 0.064040 0.000000
 39 0.000000 0.000000 2.388648 0.340473 0.179722 0.000000
time 20
  0 0.192741 99.807251 35.449852 1.570796 0.000000 0.000000
  1 0.000000 -6.750002 -3.510001 0.000000 0.000000 0.000000
  2 3.007735 -0.000004 -0.000002 0.667459 0.242420 -0.031460
  3 0.000000 0.000000 12.794512 1.070984 0.515612 -0.067123
  4 0.000000 0.000000 14.050400 0.305739 1.447291 -3.605825
  5 0.000000 0.000000 6.031133 0.113066 0.523561 0.000000
  6 0.000000 0.000000 0.757964 -0.000001 0.000000 0.000000
  7 0.000000 0.000000 0.757950 -0.000002 0.000000 0.000000
  8 -3.007735 0.000004 0.000005 -1.206200 0.090462 -3.118654
  9 0.000000 0.000000 12.794530 -0.966386 0.758580 0.215132
 10 0.000000 0.000000 13.961749 0.642597 0.616499 -1.983977
 11 0.000000 0.000000 6.030940 -0.114774 0.523252 0.000000
 12 0.000000 0.000000 0.757934 -0.000000 -0.000000 -3.141592
 13 0.000000 0.000000 0.757953 -0.000000 -0.000000 -3.141592
 14 0.000001 1.047682 0.554789 -1.073015 0.005506 0.000863
 15 0.000000 0.000000 4.300853 0.078210 0.078853 -0.005141
 16 0.000000 0.000000 3.909713 0.069718 -0.024972 -3.144582
 17 0.000000 0.000000 4.692176 0.079625 0.000608 -3.141606
 18 0.000000 0.000000 5.479362 -0.244949 -0.070350 -0.004135
 19 0.645092 -2.464382 2.019449 0.055938 0.158745 0.019647
 20 3.518158 -2.206055 -1.728387 2.911160 1.048239 -3.141592
 21 0.000000 0.000000 4.558179 0.138531 0.956859 0.432915
 22 0.000000 0.000000 11.949879 -0.787602 0.054355 -3.370258
 23 0.000000 0.000000 4.822874 0.000000 0.000000 0.000000
 24 -1.376730 -0.804586 1.281520 -0.659309 1.255116 -3.141592
 25 0.000000 0.000000 1.416892 0.073536 0.071051 -3.141592
 26 0.000000 0.000000 1.920310 0.269862 0.568862 0.000000
 27 0.213890 -0.856740 4.255571 0.528081 0.318569 0.000000
 28 0.000000 0.000000 1.378407 -0.049177 0.309751 -3.141592
 29 0.000000 0.000000 3.006212 0.930783 0.778878 -3.141592
 30 -3.352225 -2.014409 -1.625205 -3.111551 1.200587 0.000000
 31 0.000000 0.000000 4.228487 -0.045866 1.060153 0.040522
 32 0.000000 0.000000 13.042765 1.018173 0.251056 -3.158904
 33 0.000000 0.000000 7.153650 -0.383946 0.000000 0.000000
 34 -1.945980 -0.135012 0.247196 -3.077445 1.523081 0.000000
 35 0.000000 0.000000 1.172377 -0.535111 0.583828 -3.141592
 36 0.000000 0.000000 1.923266 -0.123086 0.631228 0.000000
 37 0.111389 0.206554 2.803840 0.313340 0.079789 -3.141592
 38 0.000000 0.000000 2.609086 0.476630 0.064040 0.000000
 39 0.000000 0.000000 2.388648 0.340473 0.179722 0.000000
time 21
  0 0.192741 104.807251 34.254505 1.570796 0.000000 0.000000
  1 0.000000 -6.750002 -3.510001 0.000000 0.000000 0.000000
  2 3.007735 -0.000004 -0.000002 0.710897 0.243522 -0.021009
  3 0.000000 0.000000 12.794512 1.116089 0.517805 -0.044836
  4 0.000000 0.000000 14.050400 0.453496 1.457994 -3.475047
  5 0.000000 0.000000 6.031133 0.113066 0.523561 0.000000
  6 0.000000 0.000000 0.757964 -0.000001 0.000000 0.000000
  7 0.000000 0.000000 0.757950 -0.000002 0.000000 0.000000
  8 -3.007735 0.000004 0.000005 -0.896946 0.079221 -3.092240
  9 0.000000 0.000000 12.794530 -1.015195 0.698484 0.168175
 10 0.000000 0.000000 13.961749 0.427072 0.511491 -2.128847
 11 0.000000 0.000000 6.030940 -0.114774 0.523252 0.000000
 12 0.000000 0.000000 0.757934 -0.000000 -0.000000 -3.141592
 13 0.000000 0.000000 0.757953 -0.000000 -0.000000 -3.141592
 14 0.000001 1.047682 0.554789 -1.073015 0.005506 0.000863
 15 0.000000 0.000000 4.300853 0.092855 0.052761 -0.003032
 16 0.000000 0.000000 3.909713 0.043520 -0.016319 -3.143357
 17 0.000000 0.000000 4.692176 0.091262 0.000608 -3.141606
 18 0.000000 0.000000 5.479362 -0.285553 -0.046968 -0.001798
 19 0.645092 -2.464382 2.019449 0.014696 0.159409 0.013116
 20 3.518158 -2.206055 -1.728387 2.911160 1.048239 -3.141592
 21 0.000000 0.000000 4.558179 0.182871 0.917152 0.284804
 22 0.000000 0.000000 11.949879 -0.640893 0.048863 -3.291809
 23 0.000000 0.000000 4.822874 0.000000 0.000000 0.000000
 24 -1.376730 -0.804586 1.281520 -0.659309 1.255116 -3.141592
 25 0.000000 0.000000 1.416892 0.073536 0.071051 -3.141592
 26 0.000000 0.000000 1.920310 0.269862 0.568862 0.000000
 27 0.213890 -0.856740 4.255571 0.528081 0.318569 0.000000
 28 0.000000 0.000000 1.378407 -0.049177 0.309751 -3.141592
 29 0.000000 0.000000 3.006212 0.930783 0.778878 -3.141592
 30 -3.352225 -2.014409 -1.625205 -3.111551 1.200587 0.000000
 31 0.000000 0.000000 4.228487 -0.040989 1.050418 0.026865
 32 0.000000 0.000000 13.042765 0.828726 0.220151 -3.158962
 33 0.000000 0.000000 7.153650 -0.255954 0.000000 0.000000
 34 -1.945980 -0.135012 0.247196 -3.077445 1.523081 0.000000
 35 0.000000 0.000000 1.172377 -0.535111 0.583828 -3.141592
 36 0.000000 0.000000 1.923266 -0.123086 0.631228 0.000000
 37 0.111389 0.206554 2.803840 0.313340 0.079789 -3.141592
 38 0.000000 0.000000 2.609086 0.476630 0.064040 0.000000
 39 0.000000 0.000000 2.388648 0.340473 0.179722 0.000000
time 22
  0 0.192741 109.807251 33.059155 1.570796 0.000000 0.000000
  1 0.000000 -6.750002 -3.510001 0.000000 0.000000 0.000000
  2 3.007735 -0.000004 -0.000002 0.754373 0.244193 -0.010510
  3 0.000000 0.000000 12.794512 1.161266 0.519136 -0.022447
  4 0.000000 0.000000 14.050400 0.626534 1.466095 -3.319077
  5 0.000000 0.000000 6.031133 0.113066 0.523561 0.000000
  6 0.000000 0.000000 0.757964 -0.000001 0.000000 0.000000
  7 0.000000 0.000000 0.757950 -0.000002 0.000000 0.000000
  8 -3.007735 0.000004 0.000005 -0.588445 0.060513 -3.070524
  9 0.000000 0.000000 12.794530 -1.058148 0.636844 0.127125
 10 0.000000 0.000000 13.961749 0.241365 0.384269 -2.238721
 11 0.000000 0.000000 6.030940 -0.114774 0.523252 0.000000
 12 0.000000 0.000000 0.757934 -0.000000 -0.000000 -3.141592
 13 0.000000 0.000000 0.757953 -0.000000 -0.000000 -3.141592
 14 0.000001 1.047682 0.554789 -1.073015 0.005506 0.000863
 15 0.000000 0.000000 4.300853 0.107440 0.026619 -0.001306
 16 0.000000 0.000000 3.909713 0.017333 -0.007642 -3.142364
 17 0.000000 0.000000 4.692176 0.102899 0.000608 -3.141592
 18 0.000000 0.000000 5.479362 -0.326053 -0.023502 -0.000419
 19 0.645092 -2.464382 2.019449 -0.026547 0.159806 0.006558
 20 3.518158 -2.206055 -1.728387 2.911160 1.048239 -3.141592
 21 0.000000 0.000000 4.558179 0.233916 0.881703 0.140916
 22 0.000000 0.000000 11.949879 -0.495156 0.031998 -3.215054
 23 0.000000 0.000000 4.822874 0.000000 0.000000 0.000000
 24 -1.376730 -0.804586 1.281520 -0.659309 1.255116 -3.141592
 25 0.000000 0.000000 1.416892 0.073536 0.071051 -3.141592
 26 0.000000 0.000000 1.920310 0.269862 0.568862 0.000000
 27 0.213890 -0.856740 4.255571 0.528081 0.318569 0.000000
 28 0.000000 0.000000 1.378407 -0.049177 0.309751 -3.141592
 29 0.000000 0.000000 3.006212 0.930783 0.778878 -3.141592
 30 -3.352225 -2.014409 -1.625205 -3.111551 1.200587 0.000000
 31 0.000000 0.000000 4.228487 -0.035920 1.040683 0.013388
 32 0.000000 0.000000 13.042765 0.640468 0.189761 -3.153075
 33 0.000000 0.000000 7.153650 -0.127962 0.000000 0.000000
 34 -1.945980 -0.135012 0.247196 -3.077445 1.523081 0.000000
 35 0.000000 0.000000 1.172377 -0.535111 0.583828 -3.141592
 36 0.000000 0.000000 1.923266 -0.123086 0.631228 0.000000
 37 0.111389 0.206554 2.803840 0.313340 0.079789 -3.141592
 38 0.000000 0.000000 2.609086 0.476630 0.064040 0.000000
 39 0.000000 0.000000 2.388648 0.340473 0.179722 0.000000
time 23
  0 0.192741 114.807251 32.016155 1.570796 0.000000 0.000000
  1 0.000000 -6.750002 -3.510001 0.000000 0.000000 0.000000
  2 3.007735 -0.000004 -0.000002 0.797811 0.244409 0.000000
  3 0.000000 0.000000 12.794512 1.206479 0.519567 0.000000
  4 0.000000 0.000000 14.050400 0.821108 1.470961 -3.141592
  5 0.000000 0.000000 6.031133 0.113066 0.523561 0.000000
  6 0.000000 0.000000 0.757964 -0.000001 0.000000 0.000000
  7 0.000000 0.000000 0.757950 -0.000002 0.000000 0.000000
  8 -3.007735 0.000004 0.000005 -0.280698 0.036124 -3.055543
  9 0.000000 0.000000 12.794530 -0.952673 0.558180 0.168097
 10 0.000000 0.000000 13.961749 0.078954 0.241865 -2.318107
 11 0.000000 0.000000 6.030940 -0.114774 0.523252 0.000000
 12 0.000000 0.000000 0.757934 -0.000000 -0.000000 -3.141592
 13 0.000000 0.000000 0.757953 -0.000000 -0.000000 -3.141592
 14 0.000001 1.047682 0.554789 -1.073015 0.005506 0.000863
 15 0.000000 0.000000 4.300853 0.121966 0.000476 0.000024
 16 0.000000 0.000000 3.909713 -0.008841 0.001047 -3.141592
 17 0.000000 0.000000 4.692176 0.114524 0.000608 -3.141592
 18 0.000000 0.000000 5.479362 -0.366512 0.000000 0.000000
 19 0.645092 -2.464382 2.019449 -0.067789 0.159939 0.000000
 20 3.518158 -2.206055 -1.728387 2.911160 1.048239 -3.141592
 21 0.000000 0.000000 4.558179 0.290227 0.851123 0.000000
 22 0.000000 0.000000 11.949879 -0.351181 0.004253 -3.141592
 23 0.000000 0.000000 4.822874 0.000000 0.000000 0.000000
 24 -1.376730 -0.804586 1.281520 -0.659309 1.255116 -3.141592
 25 0.000000 0.000000 1.416892 0.073536 0.071051 -3.141592
 26 0.000000 0.000000 1.920310 0.269862 0.568862 0.000000
 27 0.213890 -0.856740 4.255571 0.528081 0.318569 0.000000
 28 0.000000 0.000000 1.378407 -0.049177 0.309751 -3.141592
 29 0.000000 0.000000 3.006212 0.930783 0.778878 -3.141592
 30 -3.352225 -2.014409 -1.625205 -3.111551 1.200587 0.000000
 31 0.000000 0.000000 4.228487 -0.030722 1.031015 0.000000
 32 0.000000 0.000000 13.042765 0.453051 0.161047 -3.141592
 33 0.000000 0.000000 7.153650 0.000000 0.000000 0.000000
 34 -1.945980 -0.135012 0.247196 -3.077445 1.523081 0.000000
 35 0.000000 0.000000 1.172377 -0.535111 0.583828 -3.141592
 36 0.000000 0.000000 1.923266 -0.123086 0.631228 0.000000
 37 0.111389 0.206554 2.803840 0.313340 0.079789 -3.141592
 38 0.000000 0.000000 2.609086 0.476630 0.064040 0.000000
 39 0.000000 0.000000 2.388648 0.340473 0.179722 0.000000
end
