version 1
nodes
  0 "Bip01"  -1
  1 "Bip01 Pelvis"   0
  2 "Bip01 L Thigh"   1
  3 "Bip01 L Knee"   2
  4 "Bip01 L Foot"   3
  5 "Bip01 L Toe0"   4
  6 "Bip01 L Toe01"   5
  7 "Bip01 L Toe02"   6
  8 "Bip01 R Thigh"   1
  9 "Bip01 R Knee"   8
 10 "Bip01 R Foot"   9
 11 "Bip01 R Toe0"  10
 12 "Bip01 R Toe01"  11
 13 "Bip01 R Toe02"  12
 14 "Bip01 Spine"   1
 15 "Bip01 Spine1"  14
 16 "Bip01 Spine2"  15
 17 "Bip01 Spine3"  16
 18 "Bip01 Neck"  17
 19 "Bip01 Head"  18
 20 "Bip01 L Clavicle"  18
 21 "Bip01 L UpperArm"  20
 22 "Bip01 L Forearm"  21
 23 "Bip01 L Hand"  22
 24 "Bip01 L Finger0"  23
 25 "Bip01 L Finger01"  24
 26 "Bip01 L Finger02"  25
 27 "Bip01 L Finger1"  23
 28 "Bip01 L Finger11"  27
 29 "Bip01 L Finger12"  28
 30 "Bip01 R Clavicle"  18
 31 "Bip01 R UpperArm"  30
 32 "Bip01 R Forearm"  31
 33 "Bip01 R Hand"  32
 34 "Bip01 R Finger0"  33
 35 "Bip01 R Finger01"  34
 36 "Bip01 R Finger02"  35
 37 "Bip01 R Finger1"  33
 38 "Bip01 R Finger11"  37
 39 "Bip01 R Finger12"  38
end
skeleton
time 0
  0 0.192741 -0.192741 32.016155 1.570796 0.000000 0.000000
  1 0.000000 -6.750002 -3.510001 0.000000 0.000000 0.000000
  2 3.007735 -0.000004 -0.000002 0.797811 0.244409 0.000000
  3 0.000000 0.000000 12.794512 1.206479 0.519567 0.000000
  4 0.000000 0.000000 14.050400 0.821108 1.470961 -3.141592
  5 0.000000 0.000000 6.031133 0.113066 0.523561 0.000000
  6 0.000000 0.000000 0.757964 -0.000001 0.000000 0.000000
  7 0.000000 0.000000 0.757950 -0.000002 0.000000 0.000000
  8 -3.007735 0.000004 0.000005 -0.763901 0.236183 -3.141592
  9 0.000000 0.000000 12.794530 -1.262723 0.580349 0.000000
 10 0.000000 0.000000 13.961749 -0.758599 1.461174 -3.141592
 11 0.000000 0.000000 6.030940 -0.114774 0.523252 0.000000
 12 0.000000 0.000000 0.757934 -0.000000 -0.000000 -3.141592
 13 0.000000 0.000000 0.757953 -0.000000 -0.000000 -3.141592
 14 0.000001 1.047682 0.554789 -1.230097 0.005566 0.000000
 15 0.000000 0.000000 4.300853 0.069617 0.000476 0.000000
 16 0.000000 0.000000 3.909713 -0.008841 0.001047 -3.141592
 17 0.000000 0.000000 4.692176 0.114524 0.000608 -3.141592
 18 0.000000 0.000000 5.479362 0.000000 0.000000 0.000000
 19 0.645092 -2.464382 2.019449 -0.067789 0.159939 0.000000
 20 3.518158 -2.206055 -1.728387 2.911160 1.048239 -3.141592
 21 0.000000 0.000000 4.558179 0.290227 0.851123 0.000000
 22 0.000000 0.000000 11.949879 -0.351181 0.004253 -3.141592
 23 0.000000 0.000000 4.822874 0.000000 0.000000 0.000000
 24 -1.376730 -0.804586 1.281520 -0.659309 1.255116 -3.141592
 25 0.000000 0.000000 1.416892 0.073536 0.071051 -3.141592
 26 0.000000 0.000000 1.920310 0.269862 0.568862 0.000000
 27 0.213890 -0.856740 4.255571 0.528081 0.318569 0.000000
 28 0.000000 0.000000 1.378407 -0.049177 0.309751 -3.141592
 29 0.000000 0.000000 3.006212 0.930783 0.778878 -3.141592
 30 -3.352225 -2.014409 -1.625205 -3.111551 1.200587 0.000000
 31 0.000000 0.000000 4.228487 -0.030722 1.031015 0.000000
 32 0.000000 0.000000 13.042765 0.453051 0.161047 -3.141592
 33 0.000000 0.000000 7.153650 0.000000 0.000000 0.000000
 34 -1.945980 -0.135012 0.247196 -3.077445 1.523081 0.000000
 35 0.000000 0.000000 1.172377 -0.535111 0.583828 -3.141592
 36 0.000000 0.000000 1.923266 -0.123086 0.631228 0.000000
 37 0.111389 0.206554 2.803840 0.313340 0.079789 -3.141592
 38 0.000000 0.000000 2.609086 0.476630 0.064040 0.000000
 39 0.000000 0.000000 2.388648 0.340473 0.179722 0.000000
time 1
  0 0.192741 -0.192741 32.172409 1.570796 0.000000 0.000000
  1 0.000000 -6.750002 -3.510001 0.000000 0.000000 0.000000
  2 3.007735 -0.000004 -0.000002 0.817763 0.244373 0.004830
  3 0.000000 0.000000 12.794512 1.179691 0.519423 -0.013296
  4 0.000000 0.000000 14.050400 0.821108 1.470961 -3.141592
  5 0.000000 0.000000 6.031133 0.113066 0.523561 0.000000
  6 0.000000 0.000000 0.757964 -0.000001 0.000000 0.000000
  7 0.000000 0.000000 0.757950 -0.000002 0.000000 0.000000
  8 -3.007735 0.000004 0.000005 -0.781844 0.236147 -3.145787
  9 0.000000 0.000000 12.794530 -1.237225 0.580220 0.013980
 10 0.000000 0.000000 13.961749 -0.758599 1.461174 -3.141592
 11 0.000000 0.000000 6.030940 -0.114774 0.523252 0.000000
 12 0.000000 0.000000 0.757934 -0.000000 -0.000000 -3.141592
 13 0.000000 0.000000 0.757953 -0.000000 -0.000000 -3.141592
 14 0.000001 1.047682 0.554789 -1.230097 0.005566 0.000000
 15 0.000000 0.000000 4.300853 0.054109 0.000476 0.000000
 16 0.000000 0.000000 3.909713 0.006667 0.001047 -3.141580
 17 0.000000 0.000000 4.692176 0.099016 0.000608 -3.141592
 18 0.000000 0.000000 5.479362 0.000000 0.000000 0.000000
 19 0.645092 -2.464382 2.019449 -0.067789 0.159939 0.000000
 20 3.518158 -2.206055 -1.728387 2.911160 1.048239 -3.141592
 21 0.000000 0.000000 4.558179 0.472186 1.007009 -0.119568
 22 0.000000 0.000000 11.949879 -0.642978 -0.169085 -3.135538
 23 0.000000 0.000000 4.822874 0.000000 0.000000 0.000000
 24 -1.376730 -0.804586 1.281520 -0.659309 1.255116 -3.141592
 25 0.000000 0.000000 1.416892 0.073536 0.071051 -3.141592
 26 0.000000 0.000000 1.920310 0.269862 0.568862 0.000000
 27 0.213890 -0.856740 4.255571 0.528081 0.318569 0.000000
 28 0.000000 0.000000 1.378407 -0.049177 0.309751 -3.141592
 29 0.000000 0.000000 3.006212 0.930783 0.778878 -3.141592
 30 -3.352225 -2.014409 -1.625205 -3.111551 1.200587 0.000000
 31 0.000000 0.000000 4.228487 -0.123642 1.130716 0.229027
 32 0.000000 0.000000 13.042765 0.748214 0.004971 -3.165309
 33 0.000000 0.000000 7.153650 0.000000 0.000000 0.000000
 34 -1.945980 -0.135012 0.247196 -3.077445 1.523081 0.000000
 35 0.000000 0.000000 1.172377 -0.535111 0.583828 -3.141592
 36 0.000000 0.000000 1.923266 -0.123086 0.631228 0.000000
 37 0.111389 0.206554 2.803840 0.313340 0.079789 -3.141592
 38 0.000000 0.000000 2.609086 0.476630 0.064040 0.000000
 39 0.000000 0.000000 2.388648 0.340473 0.179722 0.000000
time 2
  0 0.192741 -0.192741 32.340385 1.570796 0.000000 0.000000
  1 0.000000 -6.750002 -3.510001 0.000000 0.000000 0.000000
  2 3.007735 -0.000004 -0.000002 0.837753 0.244229 0.009660
  3 0.000000 0.000000 12.794512 1.152904 0.518956 -0.026592
  4 0.000000 0.000000 14.050400 0.821108 1.470961 -3.141592
  5 0.000000 0.000000 6.031133 0.113066 0.523561 0.000000
  6 0.000000 0.000000 0.757964 -0.000001 0.000000 0.000000
  7 0.000000 0.000000 0.757950 -0.000002 0.000000 0.000000
  8 -3.007735 0.000004 0.000005 -0.799787 0.236039 -3.149981
  9 0.000000 0.000000 12.794530 -1.211727 0.579770 0.027933
 10 0.000000 0.000000 13.961749 -0.758599 1.461174 -3.141592
 11 0.000000 0.000000 6.030940 -0.114774 0.523252 0.000000
 12 0.000000 0.000000 0.757934 -0.000000 -0.000000 -3.141592
 13 0.000000 0.000000 0.757953 -0.000000 -0.000000 -3.141592
 14 0.000001 1.047682 0.554789 -1.230097 0.005566 0.000000
 15 0.000000 0.000000 4.300853 0.038601 0.000476 -0.000012
 16 0.000000 0.000000 3.909713 0.022175 0.001047 -3.141568
 17 0.000000 0.000000 4.692176 0.083496 0.000608 -3.141606
 18 0.000000 0.000000 5.479362 0.000000 0.000000 0.000000
 19 0.645092 -2.464382 2.019449 -0.067789 0.159939 0.000000
 20 3.518158 -2.206055 -1.728387 2.911160 1.048239 -3.141592
 21 0.000000 0.000000 4.558179 0.671861 1.173573 -0.207699
 22 0.000000 0.000000 11.949879 -0.948862 -0.332993 -3.076914
 23 0.000000 0.000000 4.822874 0.000000 0.000000 0.000000
 24 -1.376730 -0.804586 1.281520 -0.659309 1.255116 -3.141592
 25 0.000000 0.000000 1.416892 0.073536 0.071051 -3.141592
 26 0.000000 0.000000 1.920310 0.269862 0.568862 0.000000
 27 0.213890 -0.856740 4.255571 0.528081 0.318569 0.000000
 28 0.000000 0.000000 1.378407 -0.049177 0.309751 -3.141592
 29 0.000000 0.000000 3.006212 0.930783 0.778878 -3.141592
 30 -3.352225 -2.014409 -1.625205 -3.111551 1.200587 0.000000
 31 0.000000 0.000000 4.228487 -0.171322 1.238070 0.496061
 32 0.000000 0.000000 13.042765 1.049913 -0.137308 -3.233920
 33 0.000000 0.000000 7.153650 0.000000 0.000000 0.000000
 34 -1.945980 -0.135012 0.247196 -3.077445 1.523081 0.000000
 35 0.000000 0.000000 1.172377 -0.535111 0.583828 -3.141592
 36 0.000000 0.000000 1.923266 -0.123086 0.631228 0.000000
 37 0.111389 0.206554 2.803840 0.313340 0.079789 -3.141592
 38 0.000000 0.000000 2.609086 0.476630 0.064040 0.000000
 39 0.000000 0.000000 2.388648 0.340473 0.179722 0.000000
time 3
  0 0.192741 -0.192741 32.492733 1.570796 0.000000 0.000000
  1 0.000000 -6.750002 -3.510001 0.000000 0.000000 0.000000
  2 3.007735 -0.000004 -0.000002 0.857743 0.243990 0.014489
  3 0.000000 0.000000 12.794512 1.126116 0.518177 -0.039874
  4 0.000000 0.000000 14.050400 0.821108 1.470961 -3.141592
  5 0.000000 0.000000 6.031133 0.113066 0.523561 0.000000
  6 0.000000 0.000000 0.757964 -0.000001 0.000000 0.000000
  7 0.000000 0.000000 0.757950 -0.000002 0.000000 0.000000
  8 -3.007735 0.000004 0.000005 -0.817730 0.235859 -3.154176
  9 0.000000 0.000000 12.794530 -1.186267 0.579020 0.041887
 10 0.000000 0.000000 13.961749 -0.758599 1.461174 -3.141592
 11 0.000000 0.000000 6.030940 -0.114774 0.523252 0.000000
 12 0.000000 0.000000 0.757934 -0.000000 -0.000000 -3.141592
 13 0.000000 0.000000 0.757953 -0.000000 -0.000000 -3.141592
 14 0.000001 1.047682 0.554789 -1.230097 0.005566 0.000000
 15 0.000000 0.000000 4.300853 0.023081 0.000476 -0.000012
 16 0.000000 0.000000 3.909713 0.037695 0.001047 -3.141556
 17 0.000000 0.000000 4.692176 0.067988 0.000608 -3.141619
 18 0.000000 0.000000 5.479362 0.000000 0.000000 0.000000
 19 0.645092 -2.464382 2.019449 -0.067789 0.159939 0.000000
 20 3.518158 -2.206055 -1.728387 2.911160 1.048239 -3.141592
 21 0.000000 0.000000 4.558179 0.948821 1.344926 -0.208872
 22 0.000000 0.000000 11.949879 -1.285190 -0.470710 -2.962173
 23 0.000000 0.000000 4.822874 0.000000 0.000000 0.000000
 24 -1.376730 -0.804586 1.281520 -0.659309 1.255116 -3.141592
 25 0.000000 0.000000 1.416892 0.073536 0.071051 -3.141592
 26 0.000000 0.000000 1.920310 0.269862 0.568862 0.000000
 27 0.213890 -0.856740 4.255571 0.528081 0.318569 0.000000
 28 0.000000 0.000000 1.378407 -0.049177 0.309751 -3.141592
 29 0.000000 0.000000 3.006212 0.930783 0.778878 -3.141592
 30 -3.352225 -2.014409 -1.625205 -3.111551 1.200587 0.000000
 31 0.000000 0.000000 4.228487 -0.111385 1.345693 0.864985
 32 0.000000 0.000000 13.042765 1.368546 -0.251990 -3.344598
 33 0.000000 0.000000 7.153650 0.000000 0.000000 0.000000
 34 -1.945980 -0.135012 0.247196 -3.077445 1.523081 0.000000
 35 0.000000 0.000000 1.172377 -0.535111 0.583828 -3.141592
 36 0.000000 0.000000 1.923266 -0.123086 0.631228 0.000000
 37 0.111389 0.206554 2.803840 0.313340 0.079789 -3.141592
 38 0.000000 0.000000 2.609086 0.476630 0.064040 0.000000
 39 0.000000 0.000000 2.388648 0.340473 0.179722 0.000000
time 4
  0 0.192741 -0.192741 32.621643 1.570796 0.000000 0.000000
  1 0.000000 -6.750002 -3.510001 0.000000 0.000000 0.000000
  2 3.007735 -0.000004 -0.000002 0.877732 0.243666 0.019319
  3 0.000000 0.000000 12.794512 1.099365 0.517098 -0.053112
  4 0.000000 0.000000 14.050400 0.821108 1.470961 -3.141592
  5 0.000000 0.000000 6.031133 0.113066 0.523561 0.000000
  6 0.000000 0.000000 0.757964 -0.000001 0.000000 0.000000
  7 0.000000 0.000000 0.757950 -0.000002 0.000000 0.000000
  8 -3.007735 0.000004 0.000005 -0.835673 0.235608 -3.158371
  9 0.000000 0.000000 12.794530 -1.160806 0.577969 0.055815
 10 0.000000 0.000000 13.961749 -0.758599 1.461174 -3.141592
 11 0.000000 0.000000 6.030940 -0.114774 0.523252 0.000000
 12 0.000000 0.000000 0.757934 -0.000000 -0.000000 -3.141592
 13 0.000000 0.000000 0.757953 -0.000000 -0.000000 -3.141592
 14 0.000001 1.047682 0.554789 -1.230097 0.005566 0.000000
 15 0.000000 0.000000 4.300853 0.007573 0.000476 -0.000024
 16 0.000000 0.000000 3.909713 0.053203 0.001047 -3.141531
 17 0.000000 0.000000 4.692176 0.052468 0.000608 -3.141619
 18 0.000000 0.000000 5.479362 0.000000 0.000000 0.000000
 19 0.645092 -2.464382 2.019449 -0.067789 0.159939 0.000000
 20 3.518158 -2.206055 -1.728387 2.911160 1.048239 -3.141592
 21 0.000000 0.000000 4.558179 1.873650 1.494276 0.442924
 22 0.000000 0.000000 11.949879 -1.660258 -0.563117 -2.793168
 23 0.000000 0.000000 4.822874 0.000000 0.000000 0.000000
 24 -1.376730 -0.804586 1.281520 -0.659309 1.255116 -3.141592
 25 0.000000 0.000000 1.416892 0.073536 0.071051 -3.141592
 26 0.000000 0.000000 1.920310 0.269862 0.568862 0.000000
 27 0.213890 -0.856740 4.255571 0.528081 0.318569 0.000000
 28 0.000000 0.000000 1.378407 -0.049177 0.309751 -3.141592
 29 0.000000 0.000000 3.006212 0.930783 0.778878 -3.141592
 30 -3.352225 -2.014409 -1.625205 -3.111551 1.200587 0.000000
 31 0.000000 0.000000 4.228487 0.268445 1.431899 1.550360
 32 0.000000 0.000000 13.042765 1.707332 -0.325450 -3.490476
 33 0.000000 0.000000 7.153650 0.000000 0.000000 0.000000
 34 -1.945980 -0.135012 0.247196 -3.077445 1.523081 0.000000
 35 0.000000 0.000000 1.172377 -0.535111 0.583828 -3.141592
 36 0.000000 0.000000 1.923266 -0.123086 0.631228 0.000000
 37 0.111389 0.206554 2.803840 0.313340 0.079789 -3.141592
 38 0.000000 0.000000 2.609086 0.476630 0.064040 0.000000
 39 0.000000 0.000000 2.388648 0.340473 0.179722 0.000000
time 5
  0 0.192741 -0.192741 32.758366 1.570796 0.000000 0.000000
  1 0.000000 -6.750002 -3.510001 0.000000 0.000000 0.000000
  2 3.007735 -0.000004 -0.000002 0.897722 0.243246 0.024137
  3 0.000000 0.000000 12.794512 1.072650 0.515708 -0.066291
  4 0.000000 0.000000 14.050400 0.821108 1.470961 -3.141592
  5 0.000000 0.000000 6.031133 0.113066 0.523561 0.000000
  6 0.000000 0.000000 0.757964 -0.000001 0.000000 0.000000
  7 0.000000 0.000000 0.757950 -0.000002 0.000000 0.000000
  8 -3.007735 0.000004 0.000005 -0.853615 0.235272 -3.162553
  9 0.000000 0.000000 12.794530 -1.135420 0.576640 0.069664
 10 0.000000 0.000000 13.961749 -0.758599 1.461174 -3.141592
 11 0.000000 0.000000 6.030940 -0.114774 0.523252 0.000000
 12 0.000000 0.000000 0.757934 -0.000000 -0.000000 -3.141592
 13 0.000000 0.000000 0.757953 -0.000000 -0.000000 -3.141592
 14 0.000001 1.047682 0.554789 -1.230097 0.005566 0.000000
 15 0.000000 0.000000 4.300853 -0.007947 0.000476 -0.000036
 16 0.000000 0.000000 3.909713 0.068723 0.001047 -3.141519
 17 0.000000 0.000000 4.692176 0.036960 0.000608 -3.141633
 18 0.000000 0.000000 5.479362 0.000000 0.000000 0.000000
 19 0.645092 -2.464382 2.019449 -0.067789 0.159939 0.000000
 20 3.518158 -2.206055 -1.728387 2.911160 1.048239 -3.141592
 21 0.000000 0.000000 4.558179 -2.653097 1.410582 1.927315
 22 0.000000 0.000000 11.949879 -1.357108 -0.493455 -2.932437
 23 0.000000 0.000000 4.822874 0.000000 0.000000 0.000000
 24 -1.376730 -0.804586 1.281520 -0.659309 1.255116 -3.141592
 25 0.000000 0.000000 1.416892 0.073536 0.071051 -3.141592
 26 0.000000 0.000000 1.920310 0.269862 0.568862 0.000000
 27 0.213890 -0.856740 4.255571 0.528081 0.318569 0.000000
 28 0.000000 0.000000 1.378407 -0.049177 0.309751 -3.141592
 29 0.000000 0.000000 3.006212 0.930783 0.778878 -3.141592
 30 -3.352225 -2.014409 -1.625205 -3.111551 1.200587 0.000000
 31 0.000000 0.000000 4.228487 1.073732 1.431161 2.659827
 32 0.000000 0.000000 13.042765 1.434798 -0.270387 -3.371315
 33 0.000000 0.000000 7.153650 0.000000 0.000000 0.000000
 34 -1.945980 -0.135012 0.247196 -3.077445 1.523081 0.000000
 35 0.000000 0.000000 1.172377 -0.535111 0.583828 -3.141592
 36 0.000000 0.000000 1.923266 -0.123086 0.631228 0.000000
 37 0.111389 0.206554 2.803840 0.313340 0.079789 -3.141592
 38 0.000000 0.000000 2.609086 0.476630 0.064040 0.000000
 39 0.000000 0.000000 2.388648 0.340473 0.179722 0.000000
time 6
  0 0.192741 -0.192741 32.910713 1.570796 0.000000 0.000000
  1 0.000000 -6.750002 -3.510001 0.000000 0.000000 0.000000
  2 3.007735 -0.000004 -0.000002 0.917674 0.242731 0.028943
  3 0.000000 0.000000 12.794512 1.045971 0.514018 -0.079427
  4 0.000000 0.000000 14.050400 0.821108 1.470961 -3.141592
  5 0.000000 0.000000 6.031133 0.113066 0.523561 0.000000
  6 0.000000 0.000000 0.757964 -0.000001 0.000000 0.000000
  7 0.000000 0.000000 0.757950 -0.000002 0.000000 0.000000
  8 -3.007735 0.000004 0.000005 -0.871558 0.234865 -3.166736
  9 0.000000 0.000000 12.794530 -1.110033 0.575010 0.083487
 10 0.000000 0.000000 13.961749 -0.758599 1.461174 -3.141592
 11 0.000000 0.000000 6.030940 -0.114774 0.523252 0.000000
 12 0.000000 0.000000 0.757934 -0.000000 -0.000000 -3.141592
 13 0.000000 0.000000 0.757953 -0.000000 -0.000000 -3.141592
 14 0.000001 1.047682 0.554789 -1.230097 0.005566 0.000000
 15 0.000000 0.000000 4.300853 -0.023455 0.000476 -0.000036
 16 0.000000 0.000000 3.909713 0.084231 0.001047 -3.141506
 17 0.000000 0.000000 4.692176 0.021440 0.000608 -3.141646
 18 0.000000 0.000000 5.479362 0.000000 0.000000 0.000000
 19 0.645092 -2.464382 2.019449 -0.067789 0.159939 0.000000
 20 3.518158 -2.206055 -1.728387 2.911160 1.048239 -3.141592
 21 0.000000 0.000000 4.558179 -2.280657 1.240662 2.024205
 22 0.000000 0.000000 11.949879 -1.079028 -0.392266 -3.037893
 23 0.000000 0.000000 4.822874 0.000000 0.000000 0.000000
 24 -1.376730 -0.804586 1.281520 -0.659309 1.255116 -3.141592
 25 0.000000 0.000000 1.416892 0.073536 0.071051 -3.141592
 26 0.000000 0.000000 1.920310 0.269862 0.568862 0.000000
 27 0.213890 -0.856740 4.255571 0.528081 0.318569 0.000000
 28 0.000000 0.000000 1.378407 -0.049177 0.309751 -3.141592
 29 0.000000 0.000000 3.006212 0.930783 0.778878 -3.141592
 30 -3.352225 -2.014409 -1.625205 -3.111551 1.200587 0.000000
 31 0.000000 0.000000 4.228487 1.447338 1.344418 -2.944202
 32 0.000000 0.000000 13.042765 1.174989 -0.187299 -3.273390
 33 0.000000 0.000000 7.153650 0.000000 0.000000 0.000000
 34 -1.945980 -0.135012 0.247196 -3.077445 1.523081 0.000000
 35 0.000000 0.000000 1.172377 -0.535111 0.583828 -3.141592
 36 0.000000 0.000000 1.923266 -0.123086 0.631228 0.000000
 37 0.111389 0.206554 2.803840 0.313340 0.079789 -3.141592
 38 0.000000 0.000000 2.609086 0.476630 0.064040 0.000000
 39 0.000000 0.000000 2.388648 0.340473 0.179722 0.000000
time 7
  0 0.192741 -0.192741 33.035717 1.570796 0.000000 0.000000
  1 0.000000 -6.750002 -3.510001 0.000000 0.000000 0.000000
  2 3.007735 -0.000004 -0.000002 0.937626 0.242120 0.033737
  3 0.000000 0.000000 12.794512 1.019364 0.512017 -0.092490
  4 0.000000 0.000000 14.050400 0.821108 1.470961 -3.141592
  5 0.000000 0.000000 6.031133 0.113066 0.523561 0.000000
  6 0.000000 0.000000 0.757964 -0.000001 0.000000 0.000000
  7 0.000000 0.000000 0.757950 -0.000002 0.000000 0.000000
  8 -3.007735 0.000004 0.000005 -0.889501 0.234397 -3.170907
  9 0.000000 0.000000 12.794530 -1.084758 0.573081 0.097231
 10 0.000000 0.000000 13.961749 -0.758599 1.461174 -3.141592
 11 0.000000 0.000000 6.030940 -0.114774 0.523252 0.000000
 12 0.000000 0.000000 0.757934 -0.000000 -0.000000 -3.141592
 13 0.000000 0.000000 0.757953 -0.000000 -0.000000 -3.141592
 14 0.000001 1.047682 0.554789 -1.230097 0.005566 0.000000
 15 0.000000 0.000000 4.300853 -0.038975 0.000476 -0.000048
 16 0.000000 0.000000 3.909713 0.099751 0.001047 -3.141482
 17 0.000000 0.000000 4.692176 0.005932 0.000608 -3.141646
 18 0.000000 0.000000 5.479362 0.000000 0.000000 0.000000
 19 0.645092 -2.464382 2.019449 -0.067789 0.159939 0.000000
 20 3.518158 -2.206055 -1.728387 2.911160 1.048239 -3.141592
 21 0.000000 0.000000 4.558179 -2.063456 1.071330 1.957813
 22 0.000000 0.000000 11.949879 -0.823700 -0.269575 -3.106900
 23 0.000000 0.000000 4.822874 0.000000 0.000000 0.000000
 24 -1.376730 -0.804586 1.281520 -0.659309 1.255116 -3.141592
 25 0.000000 0.000000 1.416892 0.073536 0.071051 -3.141592
 26 0.000000 0.000000 1.920310 0.269862 0.568862 0.000000
 27 0.213890 -0.856740 4.255571 0.528081 0.318569 0.000000
 28 0.000000 0.000000 1.378407 -0.049177 0.309751 -3.141592
 29 0.000000 0.000000 3.006212 0.930783 0.778878 -3.141592
 30 -3.352225 -2.014409 -1.625205 -3.111551 1.200587 0.000000
 31 0.000000 0.000000 4.228487 1.505157 1.236728 -2.577255
 32 0.000000 0.000000 13.042765 0.927659 -0.082932 -3.201201
 33 0.000000 0.000000 7.153650 0.000000 0.000000 0.000000
 34 -1.945980 -0.135012 0.247196 -3.077445 1.523081 0.000000
 35 0.000000 0.000000 1.172377 -0.535111 0.583828 -3.141592
 36 0.000000 0.000000 1.923266 -0.123086 0.631228 0.000000
 37 0.111389 0.206554 2.803840 0.313340 0.079789 -3.141592
 38 0.000000 0.000000 2.609086 0.476630 0.064040 0.000000
 39 0.000000 0.000000 2.388648 0.340473 0.179722 0.000000
time 8
  0 0.192741 -0.192741 33.086502 1.570796 0.000000 0.000000
  1 0.000000 -6.750002 -3.510001 0.000000 0.000000 0.000000
  2 3.007735 -0.000004 -0.000002 0.957616 0.241425 0.038506
  3 0.000000 0.000000 12.794512 0.992830 0.509716 -0.105465
  4 0.000000 0.000000 14.050400 0.821108 1.470961 -3.141592
  5 0.000000 0.000000 6.031133 0.113066 0.523561 0.000000
  6 0.000000 0.000000 0.757964 -0.000001 0.000000 0.000000
  7 0.000000 0.000000 0.757950 -0.000002 0.000000 0.000000
  8 -3.007735 0.000004 0.000005 -0.907444 0.233846 -3.175065
  9 0.000000 0.000000 12.794530 -1.059519 0.570872 0.110871
 10 0.000000 0.000000 13.961749 -0.758599 1.461174 -3.141592
 11 0.000000 0.000000 6.030940 -0.114774 0.523252 0.000000
 12 0.000000 0.000000 0.757934 -0.000000 -0.000000 -3.141592
 13 0.000000 0.000000 0.757953 -0.000000 -0.000000 -3.141592
 14 0.000001 1.047682 0.554789 -1.230097 0.005566 0.000000
 15 0.000000 0.000000 4.300853 -0.054483 0.000476 -0.000048
 16 0.000000 0.000000 3.909713 0.115259 0.001047 -3.141470
 17 0.000000 0.000000 4.692176 -0.009588 0.000608 -3.141659
 18 0.000000 0.000000 5.479362 0.000000 0.000000 0.000000
 19 0.645092 -2.464382 2.019449 -0.067789 0.159939 0.000000
 20 3.518158 -2.206055 -1.728387 2.911160 1.048239 -3.141592
 21 0.000000 0.000000 4.558179 -1.877475 0.910675 1.848099
 22 0.000000 0.000000 11.949879 -0.584035 -0.134682 -3.140839
 23 0.000000 0.000000 4.822874 0.000000 0.000000 0.000000
 24 -1.376730 -0.804586 1.281520 -0.659309 1.255116 -3.141592
 25 0.000000 0.000000 1.416892 0.073536 0.071051 -3.141592
 26 0.000000 0.000000 1.920310 0.269862 0.568862 0.000000
 27 0.213890 -0.856740 4.255571 0.528081 0.318569 0.000000
 28 0.000000 0.000000 1.378407 -0.049177 0.309751 -3.141592
 29 0.000000 0.000000 3.006212 0.930783 0.778878 -3.141592
 30 -3.352225 -2.014409 -1.625205 -3.111551 1.200587 0.000000
 31 0.000000 0.000000 4.228487 1.456771 1.129440 -2.310940
 32 0.000000 0.000000 13.042765 0.689092 0.035533 -3.156884
 33 0.000000 0.000000 7.153650 0.000000 0.000000 0.000000
 34 -1.945980 -0.135012 0.247196 -3.077445 1.523081 0.000000
 35 0.000000 0.000000 1.172377 -0.535111 0.583828 -3.141592
 36 0.000000 0.000000 1.923266 -0.123086 0.631228 0.000000
 37 0.111389 0.206554 2.803840 0.313340 0.079789 -3.141592
 38 0.000000 0.000000 2.609086 0.476630 0.064040 0.000000
 39 0.000000 0.000000 2.388648 0.340473 0.179722 0.000000
time 9
  0 0.192741 -0.192741 33.012280 1.570796 0.000000 0.000000
  1 0.000000 -6.750002 -3.510001 0.000000 0.000000 0.000000
  2 3.007735 -0.000004 -0.000002 0.977568 0.240634 0.043276
  3 0.000000 0.000000 12.794512 0.966368 0.507115 -0.118353
  4 0.000000 0.000000 14.050400 0.821108 1.470961 -3.141592
  5 0.000000 0.000000 6.031133 0.113066 0.523561 0.000000
  6 0.000000 0.000000 0.757964 -0.000001 0.000000 0.000000
  7 0.000000 0.000000 0.757950 -0.000002 0.000000 0.000000
  8 -3.007735 0.000004 0.000005 -0.925387 0.233223 -3.179224
  9 0.000000 0.000000 12.794530 -1.034355 0.568364 0.124459
 10 0.000000 0.000000 13.961749 -0.758599 1.461174 -3.141592
 11 0.000000 0.000000 6.030940 -0.114774 0.523252 0.000000
 12 0.000000 0.000000 0.757934 -0.000000 -0.000000 -3.141592
 13 0.000000 0.000000 0.757953 -0.000000 -0.000000 -3.141592
 14 0.000001 1.047682 0.554789 -1.230097 0.005566 0.000000
 15 0.000000 0.000000 4.300853 -0.070003 0.000476 -0.000060
 16 0.000000 0.000000 3.909713 0.130779 0.001047 -3.141458
 17 0.000000 0.000000 4.692176 -0.025096 0.000608 -3.141673
 18 0.000000 0.000000 5.479362 0.000000 0.000000 0.000000
 19 0.645092 -2.464382 2.019449 -0.067789 0.159939 0.000000
 20 3.518158 -2.206055 -1.728387 2.911160 1.048239 -3.141592
 21 0.000000 0.000000 4.558179 -1.697623 0.763601 1.716254
 22 0.000000 0.000000 11.949879 -0.351181 0.004253 -3.141592
 23 0.000000 0.000000 4.822874 0.000000 0.000000 0.000000
 24 -1.376730 -0.804586 1.281520 -0.659309 1.255116 -3.141592
 25 0.000000 0.000000 1.416892 0.073536 0.071051 -3.141592
 26 0.000000 0.000000 1.920310 0.269862 0.568862 0.000000
 27 0.213890 -0.856740 4.255571 0.528081 0.318569 0.000000
 28 0.000000 0.000000 1.378407 -0.049177 0.309751 -3.141592
 29 0.000000 0.000000 3.006212 0.930783 0.778878 -3.141592
 30 -3.352225 -2.014409 -1.625205 -3.111551 1.200587 0.000000
 31 0.000000 0.000000 4.228487 1.363402 1.029874 -2.082182
 32 0.000000 0.000000 13.042765 0.453051 0.161047 -3.141592
 33 0.000000 0.000000 7.153650 0.000000 0.000000 0.000000
 34 -1.945980 -0.135012 0.247196 -3.077445 1.523081 0.000000
 35 0.000000 0.000000 1.172377 -0.535111 0.583828 -3.141592
 36 0.000000 0.000000 1.923266 -0.123086 0.631228 0.000000
 37 0.111389 0.206554 2.803840 0.313340 0.079789 -3.141592
 38 0.000000 0.000000 2.609086 0.476630 0.064040 0.000000
 39 0.000000 0.000000 2.388648 0.340473 0.179722 0.000000
time 10
  0 0.192741 -0.192741 32.672424 1.570796 0.000000 0.000000
  1 0.000000 -6.750002 -3.510001 0.000000 0.000000 0.000000
  2 3.007735 -0.000004 -0.000002 0.928163 0.242420 0.031460
  3 0.000000 0.000000 12.794512 1.035980 0.513299 -0.084331
  4 0.000000 0.000000 14.050400 0.821108 1.470961 -3.141592
  5 0.000000 0.000000 6.031133 0.113066 0.523561 0.000000
  6 0.000000 0.000000 0.757964 -0.000001 0.000000 0.000000
  7 0.000000 0.000000 0.757950 -0.000002 0.000000 0.000000
  8 -3.007735 0.000004 0.000005 -0.882767 0.234577 -3.169348
  9 0.000000 0.000000 12.794530 -1.103992 0.574582 0.086779
 10 0.000000 0.000000 13.961749 -0.758599 1.461174 -3.141592
 11 0.000000 0.000000 6.030940 -0.114774 0.523252 0.000000
 12 0.000000 0.000000 0.757934 -0.000000 -0.000000 -3.141592
 13 0.000000 0.000000 0.757953 -0.000000 -0.000000 -3.141592
 14 0.000001 1.047682 0.554789 -1.195198 0.005566 0.000192
 15 0.000000 0.000000 4.300853 -0.004556 0.000476 -0.000024
 16 0.000000 0.000000 3.909713 0.074056 0.001047 -3.141506
 17 0.000000 0.000000 4.692176 0.022902 0.000608 -3.141646
 18 0.000000 0.000000 5.479362 -0.078537 0.000000 0.000000
 19 0.645092 -2.464382 2.019449 -0.120812 0.159727 -0.008432
 20 3.518158 -2.206055 -1.728387 2.911160 1.048239 -3.141592
 21 0.000000 0.000000 4.558179 -2.209406 1.106739 1.830973
 22 0.000000 0.000000 11.949879 -0.351181 0.004253 -3.141592
 23 0.000000 0.000000 4.822874 0.000000 0.000000 0.000000
 24 -1.376730 -0.804586 1.281520 -0.659309 1.255116 -3.141592
 25 0.000000 0.000000 1.416892 0.073536 0.071051 -3.141592
 26 0.000000 0.000000 1.920310 0.269862 0.568862 0.000000
 27 0.213890 -0.856740 4.255571 0.528081 0.318569 0.000000
 28 0.000000 0.000000 1.378407 -0.049177 0.309751 -3.141592
 29 0.000000 0.000000 3.006212 0.930783 0.778878 -3.141592
 30 -3.352225 -2.014409 -1.625205 -3.111551 1.200587 0.000000
 31 0.000000 0.000000 4.228487 2.071983 1.318032 -2.107070
 32 0.000000 0.000000 13.042765 0.453051 0.161047 -3.141592
 33 0.000000 0.000000 7.153650 0.000000 0.000000 0.000000
 34 -1.945980 -0.135012 0.247196 -3.077445 1.523081 0.000000
 35 0.000000 0.000000 1.172377 -0.535111 0.583828 -3.141592
 36 0.000000 0.000000 1.923266 -0.123086 0.631228 0.000000
 37 0.111389 0.206554 2.803840 0.313340 0.079789 -3.141592
 38 0.000000 0.000000 2.609086 0.476630 0.064040 0.000000
 39 0.000000 0.000000 2.388648 0.340473 0.179722 0.000000
time 11
  0 0.192741 -0.192741 32.113815 1.570796 0.000000 0.000000
  1 0.000000 -6.750002 -3.510001 0.000000 0.000000 0.000000
  2 3.007735 -0.000004 -0.000002 0.878721 0.243642 0.019559
  3 0.000000 0.000000 12.794512 1.106062 0.517398 -0.049799
  4 0.000000 0.000000 14.050400 0.821108 1.470961 -3.141592
  5 0.000000 0.000000 6.031133 0.113066 0.523561 0.000000
  6 0.000000 0.000000 0.757964 -0.000001 0.000000 0.000000
  7 0.000000 0.000000 0.757950 -0.000002 0.000000 0.000000
  8 -3.007735 0.000004 0.000005 -0.840148 0.235524 -3.159425
  9 0.000000 0.000000 12.794530 -1.174111 0.578548 0.048550
 10 0.000000 0.000000 13.961749 -0.758599 1.461174 -3.141592
 11 0.000000 0.000000 6.030940 -0.114774 0.523252 0.000000
 12 0.000000 0.000000 0.757934 -0.000000 -0.000000 -3.141592
 13 0.000000 0.000000 0.757953 -0.000000 -0.000000 -3.141592
 14 0.000001 1.047682 0.554789 -1.160287 0.005554 0.000384
 15 0.000000 0.000000 4.300853 0.060892 0.000476 0.000000
 16 0.000000 0.000000 3.909713 0.017333 0.001047 -3.141568
 17 0.000000 0.000000 4.692176 0.070900 0.000608 -3.141619
 18 0.000000 0.000000 5.479362 -0.157074 0.000000 0.000000
 19 0.645092 -2.464382 2.019449 -0.173836 0.159064 -0.016837
 20 3.518158 -2.206055 -1.728387 2.911160 1.048239 -3.141592
 21 0.000000 0.000000 4.558179 2.762183 1.389050 1.096597
 22 0.000000 0.000000 11.949879 -0.351181 0.004253 -3.141592
 23 0.000000 0.000000 4.822874 0.000000 0.000000 0.000000
 24 -1.376730 -0.804586 1.281520 -0.659309 1.255116 -3.141592
 25 0.000000 0.000000 1.416892 0.073536 0.071051 -3.141592
 26 0.000000 0.000000 1.920310 0.269862 0.568862 0.000000
 27 0.213890 -0.856740 4.255571 0.528081 0.318569 0.000000
 28 0.000000 0.000000 1.378407 -0.049177 0.309751 -3.141592
 29 0.000000 0.000000 3.006212 0.930783 0.778878 -3.141592
 30 -3.352225 -2.014409 -1.625205 -3.111551 1.200587 0.000000
 31 0.000000 0.000000 4.228487 -2.079330 1.387454 -0.683938
 32 0.000000 0.000000 13.042765 0.453051 0.161047 -3.141592
 33 0.000000 0.000000 7.153650 0.000000 0.000000 0.000000
 34 -1.945980 -0.135012 0.247196 -3.077445 1.523081 0.000000
 35 0.000000 0.000000 1.172377 -0.535111 0.583828 -3.141592
 36 0.000000 0.000000 1.923266 -0.123086 0.631228 0.000000
 37 0.111389 0.206554 2.803840 0.313340 0.079789 -3.141592
 38 0.000000 0.000000 2.609086 0.476630 0.064040 0.000000
 39 0.000000 0.000000 2.388648 0.340473 0.179722 0.000000
time 12
  0 0.192741 -0.192741 31.578642 1.570796 0.000000 0.000000
  1 0.000000 -6.750002 -3.510001 0.000000 0.000000 0.000000
  2 3.007735 -0.000004 -0.000002 0.829278 0.244301 0.007610
  3 0.000000 0.000000 12.794512 1.176325 0.519375 -0.014960
  4 0.000000 0.000000 14.050400 0.821108 1.470961 -3.141592
  5 0.000000 0.000000 6.031133 0.113066 0.523561 0.000000
  6 0.000000 0.000000 0.757964 -0.000001 0.000000 0.000000
  7 0.000000 0.000000 0.757950 -0.000002 0.000000 0.000000
  8 -3.007735 0.000004 0.000005 -0.797528 0.236063 -3.149466
  9 0.000000 0.000000 12.794530 -1.244489 0.580285 0.010008
 10 0.000000 0.000000 13.961749 -0.758599 1.461174 -3.141592
 11 0.000000 0.000000 6.030940 -0.114774 0.523252 0.000000
 12 0.000000 0.000000 0.757934 -0.000000 -0.000000 -3.141592
 13 0.000000 0.000000 0.757953 -0.000000 -0.000000 -3.141592
 14 0.000001 1.047682 0.554789 -1.125388 0.005542 0.000575
 15 0.000000 0.000000 4.300853 0.126328 0.000476 0.000024
 16 0.000000 0.000000 3.909713 -0.039378 0.001047 -3.141617
 17 0.000000 0.000000 4.692176 0.118886 0.000608 -3.141592
 18 0.000000 0.000000 5.479362 -0.235611 0.000000 0.000000
 19 0.645092 -2.464382 2.019449 -0.226859 0.157963 -0.025215
 20 3.518158 -2.206055 -1.728387 2.911160 1.048239 -3.141592
 21 0.000000 0.000000 4.558179 1.157978 1.162424 0.066001
 22 0.000000 0.000000 11.949879 -0.351181 0.004253 -3.141592
 23 0.000000 0.000000 4.822874 0.000000 0.000000 0.000000
 24 -1.376730 -0.804586 1.281520 -0.659309 1.255116 -3.141592
 25 0.000000 0.000000 1.416892 0.073536 0.071051 -3.141592
 26 0.000000 0.000000 1.920310 0.269862 0.568862 0.000000
 27 0.213890 -0.856740 4.255571 0.528081 0.318569 0.000000
 28 0.000000 0.000000 1.378407 -0.049177 0.309751 -3.141592
 29 0.000000 0.000000 3.006212 0.930783 0.778878 -3.141592
 30 -3.352225 -2.014409 -1.625205 -3.111551 1.200587 0.000000
 31 0.000000 0.000000 4.228487 -1.153722 1.105069 -0.481506
 32 0.000000 0.000000 13.042765 0.453051 0.161047 -3.141592
 33 0.000000 0.000000 7.153650 0.000000 0.000000 0.000000
 34 -1.945980 -0.135012 0.247196 -3.077445 1.523081 0.000000
 35 0.000000 0.000000 1.172377 -0.535111 0.583828 -3.141592
 36 0.000000 0.000000 1.923266 -0.123086 0.631228 0.000000
 37 0.111389 0.206554 2.803840 0.313340 0.079789 -3.141592
 38 0.000000 0.000000 2.609086 0.476630 0.064040 0.000000
 39 0.000000 0.000000 2.388648 0.340473 0.179722 0.000000
time 13
  0 0.192741 -0.192741 31.309103 1.570796 0.000000 0.000000
  1 0.000000 -6.750002 -3.510001 0.000000 0.000000 0.000000
  2 3.007735 -0.000004 -0.000002 0.779835 0.244373 -0.004350
  3 0.000000 0.000000 12.794512 1.246660 0.519219 0.019952
  4 0.000000 0.000000 14.050400 0.821108 1.470961 -3.141592
  5 0.000000 0.000000 6.031133 0.113066 0.523561 0.000000
  6 0.000000 0.000000 0.757964 -0.000001 0.000000 0.000000
  7 0.000000 0.000000 0.757950 -0.000002 0.000000 0.000000
  8 -3.007735 0.000004 0.000005 -0.754950 0.236183 -3.139495
  9 0.000000 0.000000 12.794530 -1.314867 0.579727 -0.028587
 10 0.000000 0.000000 13.961749 -0.758599 1.461174 -3.141592
 11 0.000000 0.000000 6.030940 -0.114774 0.523252 0.000000
 12 0.000000 0.000000 0.757934 -0.000000 -0.000000 -3.141592
 13 0.000000 0.000000 0.757953 -0.000000 -0.000000 -3.141592
 14 0.000001 1.047682 0.554789 -1.090477 0.005518 0.000767
 15 0.000000 0.000000 4.300853 0.191788 0.000476 0.000048
 16 0.000000 0.000000 3.909713 -0.096101 0.001047 -3.141678
 17 0.000000 0.000000 4.692176 0.166873 0.000608 -3.141565
 18 0.000000 0.000000 5.479362 -0.314148 0.000000 0.000000
 19 0.645092 -2.464382 2.019449 -0.279844 0.156425 -0.033513
 20 3.518158 -2.206055 -1.728387 2.911160 1.048239 -3.141592
 21 0.000000 0.000000 4.558179 0.609708 0.814831 0.133565
 22 0.000000 0.000000 11.949879 -0.351181 0.004253 -3.141592
 23 0.000000 0.000000 4.822874 0.000000 0.000000 0.000000
 24 -1.376730 -0.804586 1.281520 -0.659309 1.255116 -3.141592
 25 0.000000 0.000000 1.416892 0.073536 0.071051 -3.141592
 26 0.000000 0.000000 1.920310 0.269862 0.568862 0.000000
 27 0.213890 -0.856740 4.255571 0.528081 0.318569 0.000000
 28 0.000000 0.000000 1.378407 -0.049177 0.309751 -3.141592
 29 0.000000 0.000000 3.006212 0.930783 0.778878 -3.141592
 30 -3.352225 -2.014409 -1.625205 -3.111551 1.200587 0.000000
 31 0.000000 0.000000 4.228487 -0.628543 0.850278 -0.728234
 32 0.000000 0.000000 13.042765 0.453051 0.161047 -3.141592
 33 0.000000 0.000000 7.153650 0.000000 0.000000 0.000000
 34 -1.945980 -0.135012 0.247196 -3.077445 1.523081 0.000000
 35 0.000000 0.000000 1.172377 -0.535111 0.583828 -3.141592
 36 0.000000 0.000000 1.923266 -0.123086 0.631228 0.000000
 37 0.111389 0.206554 2.803840 0.313340 0.079789 -3.141592
 38 0.000000 0.000000 2.609086 0.476630 0.064040 0.000000
 39 0.000000 0.000000 2.388648 0.340473 0.179722 0.000000
time 14
  0 0.192741 -0.192741 31.270039 1.570796 0.000000 0.000000
  1 0.000000 -6.750002 -3.510001 0.000000 0.000000 0.000000
  2 3.007735 -0.000004 -0.000002 0.780975 0.244385 -0.004075
  3 0.000000 0.000000 12.794512 1.244163 0.519267 0.018711
  4 0.000000 0.000000 14.050400 0.821108 1.470961 -3.141592
  5 0.000000 0.000000 6.031133 0.113066 0.523561 0.000000
  6 0.000000 0.000000 0.757964 -0.000001 0.000000 0.000000
  7 0.000000 0.000000 0.757950 -0.000002 0.000000 0.000000
  8 -3.007735 0.000004 0.000005 -0.755494 0.236183 -3.139627
  9 0.000000 0.000000 12.794530 -1.311606 0.579813 -0.026784
 10 0.000000 0.000000 13.961749 -0.758599 1.461174 -3.141592
 11 0.000000 0.000000 6.030940 -0.114774 0.523252 0.000000
 12 0.000000 0.000000 0.757934 -0.000000 -0.000000 -3.141592
 13 0.000000 0.000000 0.757953 -0.000000 -0.000000 -3.141592
 14 0.000001 1.047682 0.554789 -1.099201 0.005518 0.000719
 15 0.000000 0.000000 4.300853 0.184154 0.000476 0.000048
 16 0.000000 0.000000 3.909713 -0.090648 0.001047 -3.141678
 17 0.000000 0.000000 4.692176 0.163601 0.000608 -3.141565
 18 0.000000 0.000000 5.479362 -0.294519 0.000000 0.000000
 19 0.645092 -2.464382 2.019449 -0.266607 0.156849 -0.031452
 20 3.518158 -2.206055 -1.728387 2.911160 1.048239 -3.141592
 21 0.000000 0.000000 4.558179 0.590363 0.817912 0.125902
 22 0.000000 0.000000 11.949879 -0.351181 0.004253 -3.141592
 23 0.000000 0.000000 4.822874 0.000000 0.000000 0.000000
 24 -1.376730 -0.804586 1.281520 -0.659309 1.255116 -3.141592
 25 0.000000 0.000000 1.416892 0.073536 0.071051 -3.141592
 26 0.000000 0.000000 1.920310 0.269862 0.568862 0.000000
 27 0.213890 -0.856740 4.255571 0.528081 0.318569 0.000000
 28 0.000000 0.000000 1.378407 -0.049177 0.309751 -3.141592
 29 0.000000 0.000000 3.006212 0.930783 0.778878 -3.141592
 30 -3.352225 -2.014409 -1.625205 -3.111551 1.200587 0.000000
 31 0.000000 0.000000 4.228487 -0.602682 0.867935 -0.693911
 32 0.000000 0.000000 13.042765 0.453051 0.161047 -3.141592
 33 0.000000 0.000000 7.153650 0.000000 0.000000 0.000000
 34 -1.945980 -0.135012 0.247196 -3.077445 1.523081 0.000000
 35 0.000000 0.000000 1.172377 -0.535111 0.583828 -3.141592
 36 0.000000 0.000000 1.923266 -0.123086 0.631228 0.000000
 37 0.111389 0.206554 2.803840 0.313340 0.079789 -3.141592
 38 0.000000 0.000000 2.609086 0.476630 0.064040 0.000000
 39 0.000000 0.000000 2.388648 0.340473 0.179722 0.000000
time 15
  0 0.192741 -0.192741 31.254414 1.570796 0.000000 0.000000
  1 0.000000 -6.750002 -3.510001 0.000000 0.000000 0.000000
  2 3.007735 -0.000004 -0.000002 0.782077 0.244385 -0.003799
  3 0.000000 0.000000 12.794512 1.241629 0.519303 0.017456
  4 0.000000 0.000000 14.050400 0.821108 1.470961 -3.141592
  5 0.000000 0.000000 6.031133 0.113066 0.523561 0.000000
  6 0.000000 0.000000 0.757964 -0.000001 0.000000 0.000000
  7 0.000000 0.000000 0.757950 -0.000002 0.000000 0.000000
  8 -3.007735 0.000004 0.000005 -0.756080 0.236183 -3.139759
  9 0.000000 0.000000 12.794530 -1.308345 0.579877 -0.025007
 10 0.000000 0.000000 13.961749 -0.758599 1.461174 -3.141592
 11 0.000000 0.000000 6.030940 -0.114774 0.523252 0.000000
 12 0.000000 0.000000 0.757934 -0.000000 -0.000000 -3.141592
 13 0.000000 0.000000 0.757953 -0.000000 -0.000000 -3.141592
 14 0.000001 1.047682 0.554789 -1.107926 0.005530 0.000671
 15 0.000000 0.000000 4.300853 0.176508 0.000476 0.000048
 16 0.000000 0.000000 3.909713 -0.085195 0.001047 -3.141666
 17 0.000000 0.000000 4.692176 0.160329 0.000608 -3.141565
 18 0.000000 0.000000 5.479362 -0.274869 0.000000 0.000000
 19 0.645092 -2.464382 2.019449 -0.253351 0.157247 -0.029364
 20 3.518158 -2.206055 -1.728387 2.911160 1.048239 -3.141592
 21 0.000000 0.000000 4.558179 0.571018 0.820896 0.118160
 22 0.000000 0.000000 11.949879 -0.351181 0.004253 -3.141592
 23 0.000000 0.000000 4.822874 0.000000 0.000000 0.000000
 24 -1.376730 -0.804586 1.281520 -0.659309 1.255116 -3.141592
 25 0.000000 0.000000 1.416892 0.073536 0.071051 -3.141592
 26 0.000000 0.000000 1.920310 0.269862 0.568862 0.000000
 27 0.213890 -0.856740 4.255571 0.528081 0.318569 0.000000
 28 0.000000 0.000000 1.378407 -0.049177 0.309751 -3.141592
 29 0.000000 0.000000 3.006212 0.930783 0.778878 -3.141592
 30 -3.352225 -2.014409 -1.625205 -3.111551 1.200587 0.000000
 31 0.000000 0.000000 4.228487 -0.575345 0.884989 -0.658240
 32 0.000000 0.000000 13.042765 0.453051 0.161047 -3.141592
 33 0.000000 0.000000 7.153650 0.000000 0.000000 0.000000
 34 -1.945980 -0.135012 0.247196 -3.077445 1.523081 0.000000
 35 0.000000 0.000000 1.172377 -0.535111 0.583828 -3.141592
 36 0.000000 0.000000 1.923266 -0.123086 0.631228 0.000000
 37 0.111389 0.206554 2.803840 0.313340 0.079789 -3.141592
 38 0.000000 0.000000 2.609086 0.476630 0.064040 0.000000
 39 0.000000 0.000000 2.388648 0.340473 0.179722 0.000000
time 16
  0 0.192741 -0.192741 31.254414 1.570796 0.000000 0.000000
  1 0.000000 -6.750002 -3.510001 0.000000 0.000000 0.000000
  2 3.007735 -0.000004 -0.000002 0.783218 0.244385 -0.003535
  3 0.000000 0.000000 12.794512 1.239131 0.519339 0.016215
  4 0.000000 0.000000 14.050400 0.821108 1.470961 -3.141592
  5 0.000000 0.000000 6.031133 0.113066 0.523561 0.000000
  6 0.000000 0.000000 0.757964 -0.000001 0.000000 0.000000
  7 0.000000 0.000000 0.757950 -0.000002 0.000000 0.000000
  8 -3.007735 0.000004 0.000005 -0.756623 0.236183 -3.139890
  9 0.000000 0.000000 12.794530 -1.305083 0.579942 -0.023230
 10 0.000000 0.000000 13.961749 -0.758599 1.461174 -3.141592
 11 0.000000 0.000000 6.030940 -0.114774 0.523252 0.000000
 12 0.000000 0.000000 0.757934 -0.000000 -0.000000 -3.141592
 13 0.000000 0.000000 0.757953 -0.000000 -0.000000 -3.141592
 14 0.000001 1.047682 0.554789 -1.116651 0.005530 0.000623
 15 0.000000 0.000000 4.300853 0.168873 0.000476 0.000036
 16 0.000000 0.000000 3.909713 -0.079742 0.001047 -3.141666
 17 0.000000 0.000000 4.692176 0.157057 0.000608 -3.141579
 18 0.000000 0.000000 5.479362 -0.255240 0.000000 0.000000
 19 0.645092 -2.464382 2.019449 -0.240115 0.157618 -0.027303
 20 3.518158 -2.206055 -1.728387 2.911160 1.048239 -3.141592
 21 0.000000 0.000000 4.558179 0.551481 0.823781 0.110340
 22 0.000000 0.000000 11.949879 -0.351181 0.004253 -3.141592
 23 0.000000 0.000000 4.822874 0.000000 0.000000 0.000000
 24 -1.376730 -0.804586 1.281520 -0.659309 1.255116 -3.141592
 25 0.000000 0.000000 1.416892 0.073536 0.071051 -3.141592
 26 0.000000 0.000000 1.920310 0.269862 0.568862 0.000000
 27 0.213890 -0.856740 4.255571 0.528081 0.318569 0.000000
 28 0.000000 0.000000 1.378407 -0.049177 0.309751 -3.141592
 29 0.000000 0.000000 3.006212 0.930783 0.778878 -3.141592
 30 -3.352225 -2.014409 -1.625205 -3.111551 1.200587 0.000000
 31 0.000000 0.000000 4.228487 -0.546532 0.901438 -0.621043
 32 0.000000 0.000000 13.042765 0.453051 0.161047 -3.141592
 33 0.000000 0.000000 7.153650 0.000000 0.000000 0.000000
 34 -1.945980 -0.135012 0.247196 -3.077445 1.523081 0.000000
 35 0.000000 0.000000 1.172377 -0.535111 0.583828 -3.141592
 36 0.000000 0.000000 1.923266 -0.123086 0.631228 0.000000
 37 0.111389 0.206554 2.803840 0.313340 0.079789 -3.141592
 38 0.000000 0.000000 2.609086 0.476630 0.064040 0.000000
 39 0.000000 0.000000 2.388648 0.340473 0.179722 0.000000
time 17
  0 0.192741 -0.192741 31.273945 1.570796 0.000000 0.000000
  1 0.000000 -6.750002 -3.510001 0.000000 0.000000 0.000000
  2 3.007735 -0.000004 -0.000002 0.784358 0.244397 -0.003260
  3 0.000000 0.000000 12.794512 1.236633 0.519375 0.014960
  4 0.000000 0.000000 14.050400 0.821108 1.470961 -3.141592
  5 0.000000 0.000000 6.031133 0.113066 0.523561 0.000000
  6 0.000000 0.000000 0.757964 -0.000001 0.000000 0.000000
  7 0.000000 0.000000 0.757950 -0.000002 0.000000 0.000000
  8 -3.007735 0.000004 0.000005 -0.757209 0.236183 -3.140022
  9 0.000000 0.000000 12.794530 -1.301822 0.580006 -0.021427
 10 0.000000 0.000000 13.961749 -0.758599 1.461174 -3.141592
 11 0.000000 0.000000 6.030940 -0.114774 0.523252 0.000000
 12 0.000000 0.000000 0.757934 -0.000000 -0.000000 -3.141592
 13 0.000000 0.000000 0.757953 -0.000000 -0.000000 -3.141592
 14 0.000001 1.047682 0.554789 -1.125388 0.005542 0.000575
 15 0.000000 0.000000 4.300853 0.161239 0.000476 0.000036
 16 0.000000 0.000000 3.909713 -0.074289 0.001047 -3.141654
 17 0.000000 0.000000 4.692176 0.153786 0.000608 -3.141579
 18 0.000000 0.000000 5.479362 -0.235611 0.000000 0.000000
 19 0.645092 -2.464382 2.019449 -0.226859 0.157963 -0.025215
 20 3.518158 -2.206055 -1.728387 2.911160 1.048239 -3.141592
 21 0.000000 0.000000 4.558179 0.531849 0.826549 0.102364
 22 0.000000 0.000000 11.949879 -0.351181 0.004253 -3.141592
 23 0.000000 0.000000 4.822874 0.000000 0.000000 0.000000
 24 -1.376730 -0.804586 1.281520 -0.659309 1.255116 -3.141592
 25 0.000000 0.000000 1.416892 0.073536 0.071051 -3.141592
 26 0.000000 0.000000 1.920310 0.269862 0.568862 0.000000
 27 0.213890 -0.856740 4.255571 0.528081 0.318569 0.000000
 28 0.000000 0.000000 1.378407 -0.049177 0.309751 -3.141592
 29 0.000000 0.000000 3.006212 0.930783 0.778878 -3.141592
 30 -3.352225 -2.014409 -1.625205 -3.111551 1.200587 0.000000
 31 0.000000 0.000000 4.228487 -0.516050 0.917148 -0.582317
 32 0.000000 0.000000 13.042765 0.453051 0.161047 -3.141592
 33 0.000000 0.000000 7.153650 0.000000 0.000000 0.000000
 34 -1.945980 -0.135012 0.247196 -3.077445 1.523081 0.000000
 35 0.000000 0.000000 1.172377 -0.535111 0.583828 -3.141592
 36 0.000000 0.000000 1.923266 -0.123086 0.631228 0.000000
 37 0.111389 0.206554 2.803840 0.313340 0.079789 -3.141592
 38 0.000000 0.000000 2.609086 0.476630 0.064040 0.000000
 39 0.000000 0.000000 2.388648 0.340473 0.179722 0.000000
time 18
  0 0.192741 -0.192741 31.309103 1.570796 0.000000 0.000000
  1 0.000000 -6.750002 -3.510001 0.000000 0.000000 0.000000
  2 3.007735 -0.000004 -0.000002 0.785460 0.244397 -0.002984
  3 0.000000 0.000000 12.794512 1.234099 0.519411 0.013720
  4 0.000000 0.000000 14.050400 0.821108 1.470961 -3.141592
  5 0.000000 0.000000 6.031133 0.113066 0.523561 0.000000
  6 0.000000 0.000000 0.757964 -0.000001 0.000000 0.000000
  7 0.000000 0.000000 0.757950 -0.000002 0.000000 0.000000
  8 -3.007735 0.000004 0.000005 -0.757753 0.236183 -3.140154
  9 0.000000 0.000000 12.794530 -1.298561 0.580070 -0.019650
 10 0.000000 0.000000 13.961749 -0.758599 1.461174 -3.141592
 11 0.000000 0.000000 6.030940 -0.114774 0.523252 0.000000
 12 0.000000 0.000000 0.757934 -0.000000 -0.000000 -3.141592
 13 0.000000 0.000000 0.757953 -0.000000 -0.000000 -3.141592
 14 0.000001 1.047682 0.554789 -1.134112 0.005542 0.000527
 15 0.000000 0.000000 4.300853 0.153605 0.000476 0.000036
 16 0.000000 0.000000 3.909713 -0.068836 0.001047 -3.141654
 17 0.000000 0.000000 4.692176 0.150514 0.000608 -3.141579
 18 0.000000 0.000000 5.479362 -0.215982 0.000000 0.000000
 19 0.645092 -2.464382 2.019449 -0.213603 0.158281 -0.023127
 20 3.518158 -2.206055 -1.728387 2.911160 1.048239 -3.141592
 21 0.000000 0.000000 4.558179 0.512121 0.829218 0.094309
 22 0.000000 0.000000 11.949879 -0.351181 0.004253 -3.141592
 23 0.000000 0.000000 4.822874 0.000000 0.000000 0.000000
 24 -1.376730 -0.804586 1.281520 -0.659309 1.255116 -3.141592
 25 0.000000 0.000000 1.416892 0.073536 0.071051 -3.141592
 26 0.000000 0.000000 1.920310 0.269862 0.568862 0.000000
 27 0.213890 -0.856740 4.255571 0.528081 0.318569 0.000000
 28 0.000000 0.000000 1.378407 -0.049177 0.309751 -3.141592
 29 0.000000 0.000000 3.006212 0.930783 0.778878 -3.141592
 30 -3.352225 -2.014409 -1.625205 -3.111551 1.200587 0.000000
 31 0.000000 0.000000 4.228487 -0.483965 0.932120 -0.541975
 32 0.000000 0.000000 13.042765 0.453051 0.161047 -3.141592
 33 0.000000 0.000000 7.153650 0.000000 0.000000 0.000000
 34 -1.945980 -0.135012 0.247196 -3.077445 1.523081 0.000000
 35 0.000000 0.000000 1.172377 -0.535111 0.583828 -3.141592
 36 0.000000 0.000000 1.923266 -0.123086 0.631228 0.000000
 37 0.111389 0.206554 2.803840 0.313340 0.079789 -3.141592
 38 0.000000 0.000000 2.609086 0.476630 0.064040 0.000000
 39 0.000000 0.000000 2.388648 0.340473 0.179722 0.000000
time 19
  0 0.192741 -0.192741 31.355978 1.570796 0.000000 0.000000
  1 0.000000 -6.750002 -3.510001 0.000000 0.000000 0.000000
  2 3.007735 -0.000004 -0.000002 0.786600 0.244397 -0.002709
  3 0.000000 0.000000 12.794512 1.231601 0.519435 0.012464
  4 0.000000 0.000000 14.050400 0.821108 1.470961 -3.141592
  5 0.000000 0.000000 6.031133 0.113066 0.523561 0.000000
  6 0.000000 0.000000 0.757964 -0.000001 0.000000 0.000000
  7 0.000000 0.000000 0.757950 -0.000002 0.000000 0.000000
  8 -3.007735 0.000004 0.000005 -0.758296 0.236183 -3.140286
  9 0.000000 0.000000 12.794530 -1.295299 0.580113 -0.017873
 10 0.000000 0.000000 13.961749 -0.758599 1.461174 -3.141592
 11 0.000000 0.000000 6.030940 -0.114774 0.523252 0.000000
 12 0.000000 0.000000 0.757934 -0.000000 -0.000000 -3.141592
 13 0.000000 0.000000 0.757953 -0.000000 -0.000000 -3.141592
 14 0.000001 1.047682 0.554789 -1.142837 0.005554 0.000479
 15 0.000000 0.000000 4.300853 0.145971 0.000476 0.000036
 16 0.000000 0.000000 3.909713 -0.063383 0.001047 -3.141641
 17 0.000000 0.000000 4.692176 0.147242 0.000608 -3.141579
 18 0.000000 0.000000 5.479362 -0.196332 0.000000 0.000000
 19 0.645092 -2.464382 2.019449 -0.200347 0.158560 -0.021039
 20 3.518158 -2.206055 -1.728387 2.911160 1.048239 -3.141592
 21 0.000000 0.000000 4.558179 0.492297 0.831789 0.086176
 22 0.000000 0.000000 11.949879 -0.351181 0.004253 -3.141592
 23 0.000000 0.000000 4.822874 0.000000 0.000000 0.000000
 24 -1.376730 -0.804586 1.281520 -0.659309 1.255116 -3.141592
 25 0.000000 0.000000 1.416892 0.073536 0.071051 -3.141592
 26 0.000000 0.000000 1.920310 0.269862 0.568862 0.000000
 27 0.213890 -0.856740 4.255571 0.528081 0.318569 0.000000
 28 0.000000 0.000000 1.378407 -0.049177 0.309751 -3.141592
 29 0.000000 0.000000 3.006212 0.930783 0.778878 -3.141592
 30 -3.352225 -2.014409 -1.625205 -3.111551 1.200587 0.000000
 31 0.000000 0.000000 4.228487 -0.450275 0.946286 -0.500105
 32 0.000000 0.000000 13.042765 0.453051 0.161047 -3.141592
 33 0.000000 0.000000 7.153650 0.000000 0.000000 0.000000
 34 -1.945980 -0.135012 0.247196 -3.077445 1.523081 0.000000
 35 0.000000 0.000000 1.172377 -0.535111 0.583828 -3.141592
 36 0.000000 0.000000 1.923266 -0.123086 0.631228 0.000000
 37 0.111389 0.206554 2.803840 0.313340 0.079789 -3.141592
 38 0.000000 0.000000 2.609086 0.476630 0.064040 0.000000
 39 0.000000 0.000000 2.388648 0.340473 0.179722 0.000000
time 20
  0 0.192741 -0.192741 31.410667 1.570796 0.000000 0.000000
  1 0.000000 -6.750002 -3.510001 0.000000 0.000000 0.000000
  2 3.007735 -0.000004 -0.000002 0.787702 0.244397 -0.002445
  3 0.000000 0.000000 12.794512 1.229067 0.519459 0.011224
  4 0.000000 0.000000 14.050400 0.821108 1.470961 -3.141592
  5 0.000000 0.000000 6.031133 0.113066 0.523561 0.000000
  6 0.000000 0.000000 0.757964 -0.000001 0.000000 0.000000
  7 0.000000 0.000000 0.757950 -0.000002 0.000000 0.000000
  8 -3.007735 0.000004 0.000005 -0.758882 0.236183 -3.140418
  9 0.000000 0.000000 12.794530 -1.292038 0.580156 -0.016070
 10 0.000000 0.000000 13.961749 -0.758599 1.461174 -3.141592
 11 0.000000 0.000000 6.030940 -0.114774 0.523252 0.000000
 12 0.000000 0.000000 0.757934 -0.000000 -0.000000 -3.141592
 13 0.000000 0.000000 0.757953 -0.000000 -0.000000 -3.141592
 14 0.000001 1.047682 0.554789 -1.151562 0.005554 0.000431
 15 0.000000 0.000000 4.300853 0.138337 0.000476 0.000024
 16 0.000000 0.000000 3.909713 -0.057918 0.001047 -3.141641
 17 0.000000 0.000000 4.692176 0.143970 0.000608 -3.141579
 18 0.000000 0.000000 5.479362 -0.176703 0.000000 0.000000
 19 0.645092 -2.464382 2.019449 -0.187091 0.158825 -0.018951
 20 3.518158 -2.206055 -1.728387 2.911160 1.048239 -3.141592
 21 0.000000 0.000000 4.558179 0.472473 0.834243 0.077965
 22 0.000000 0.000000 11.949879 -0.351181 0.004253 -3.141592
 23 0.000000 0.000000 4.822874 0.000000 0.000000 0.000000
 24 -1.376730 -0.804586 1.281520 -0.659309 1.255116 -3.141592
 25 0.000000 0.000000 1.416892 0.073536 0.071051 -3.141592
 26 0.000000 0.000000 1.920310 0.269862 0.568862 0.000000
 27 0.213890 -0.856740 4.255571 0.528081 0.318569 0.000000
 28 0.000000 0.000000 1.378407 -0.049177 0.309751 -3.141592
 29 0.000000 0.000000 3.006212 0.930783 0.778878 -3.141592
 30 -3.352225 -2.014409 -1.625205 -3.111551 1.200587 0.000000
 31 0.000000 0.000000 4.228487 -0.414852 0.959580 -0.456527
 32 0.000000 0.000000 13.042765 0.453051 0.161047 -3.141592
 33 0.000000 0.000000 7.153650 0.000000 0.000000 0.000000
 34 -1.945980 -0.135012 0.247196 -3.077445 1.523081 0.000000
 35 0.000000 0.000000 1.172377 -0.535111 0.583828 -3.141592
 36 0.000000 0.000000 1.923266 -0.123086 0.631228 0.000000
 37 0.111389 0.206554 2.803840 0.313340 0.079789 -3.141592
 38 0.000000 0.000000 2.609086 0.476630 0.064040 0.000000
 39 0.000000 0.000000 2.388648 0.340473 0.179722 0.000000
time 21
  0 0.192741 -0.192741 31.477076 1.570796 0.000000 0.000000
  1 0.000000 -6.750002 -3.510001 0.000000 0.000000 0.000000
  2 3.007735 -0.000004 -0.000002 0.788842 0.244409 -0.002169
  3 0.000000 0.000000 12.794512 1.226570 0.519483 0.009969
  4 0.000000 0.000000 14.050400 0.821108 1.470961 -3.141592
  5 0.000000 0.000000 6.031133 0.113066 0.523561 0.000000
  6 0.000000 0.000000 0.757964 -0.000001 0.000000 0.000000
  7 0.000000 0.000000 0.757950 -0.000002 0.000000 0.000000
  8 -3.007735 0.000004 0.000005 -0.759426 0.236183 -3.140550
  9 0.000000 0.000000 12.794530 -1.288777 0.580199 -0.014293
 10 0.000000 0.000000 13.961749 -0.758599 1.461174 -3.141592
 11 0.000000 0.000000 6.030940 -0.114774 0.523252 0.000000
 12 0.000000 0.000000 0.757934 -0.000000 -0.000000 -3.141592
 13 0.000000 0.000000 0.757953 -0.000000 -0.000000 -3.141592
 14 0.000001 1.047682 0.554789 -1.160287 0.005554 0.000384
 15 0.000000 0.000000 4.300853 0.130702 0.000476 0.000024
 16 0.000000 0.000000 3.909713 -0.052465 0.001047 -3.141629
 17 0.000000 0.000000 4.692176 0.140698 0.000608 -3.141579
 18 0.000000 0.000000 5.479362 -0.157074 0.000000 0.000000
 19 0.645092 -2.464382 2.019449 -0.173836 0.159064 -0.016837
 20 3.518158 -2.206055 -1.728387 2.911160 1.048239 -3.141592
 21 0.000000 0.000000 4.558179 0.452457 0.836579 0.069598
 22 0.000000 0.000000 11.949879 -0.351181 0.004253 -3.141592
 23 0.000000 0.000000 4.822874 0.000000 0.000000 0.000000
 24 -1.376730 -0.804586 1.281520 -0.659309 1.255116 -3.141592
 25 0.000000 0.000000 1.416892 0.073536 0.071051 -3.141592
 26 0.000000 0.000000 1.920310 0.269862 0.568862 0.000000
 27 0.213890 -0.856740 4.255571 0.528081 0.318569 0.000000
 28 0.000000 0.000000 1.378407 -0.049177 0.309751 -3.141592
 29 0.000000 0.000000 3.006212 0.930783 0.778878 -3.141592
 30 -3.352225 -2.014409 -1.625205 -3.111551 1.200587 0.000000
 31 0.000000 0.000000 4.228487 -0.377825 0.971933 -0.411333
 32 0.000000 0.000000 13.042765 0.453051 0.161047 -3.141592
 33 0.000000 0.000000 7.153650 0.000000 0.000000 0.000000
 34 -1.945980 -0.135012 0.247196 -3.077445 1.523081 0.000000
 35 0.000000 0.000000 1.172377 -0.535111 0.583828 -3.141592
 36 0.000000 0.000000 1.923266 -0.123086 0.631228 0.000000
 37 0.111389 0.206554 2.803840 0.313340 0.079789 -3.141592
 38 0.000000 0.000000 2.609086 0.476630 0.064040 0.000000
 39 0.000000 0.000000 2.388648 0.340473 0.179722 0.000000
time 22
  0 0.192741 -0.192741 31.547390 1.570796 0.000000 0.000000
  1 0.000000 -6.750002 -3.510001 0.000000 0.000000 0.000000
  2 3.007735 -0.000004 -0.000002 0.789944 0.244409 -0.001894
  3 0.000000 0.000000 12.794512 1.224072 0.519507 0.008728
  4 0.000000 0.000000 14.050400 0.821108 1.470961 -3.141592
  5 0.000000 0.000000 6.031133 0.113066 0.523561 0.000000
  6 0.000000 0.000000 0.757964 -0.000001 0.000000 0.000000
  7 0.000000 0.000000 0.757950 -0.000002 0.000000 0.000000
  8 -3.007735 0.000004 0.000005 -0.760011 0.236183 -3.140682
  9 0.000000 0.000000 12.794530 -1.285515 0.580242 -0.012490
 10 0.000000 0.000000 13.961749 -0.758599 1.461174 -3.141592
 11 0.000000 0.000000 6.030940 -0.114774 0.523252 0.000000
 12 0.000000 0.000000 0.757934 -0.000000 -0.000000 -3.141592
 13 0.000000 0.000000 0.757953 -0.000000 -0.000000 -3.141592
 14 0.000001 1.047682 0.554789 -1.169012 0.005566 0.000336
 15 0.000000 0.000000 4.300853 0.123056 0.000476 0.000024
 16 0.000000 0.000000 3.909713 -0.047012 0.001047 -3.141629
 17 0.000000 0.000000 4.692176 0.137427 0.000608 -3.141592
 18 0.000000 0.000000 5.479362 -0.137445 0.000000 0.000000
 19 0.645092 -2.464382 2.019449 -0.160580 0.159263 -0.014749
 20 3.518158 -2.206055 -1.728387 2.911160 1.048239 -3.141592
 21 0.000000 0.000000 4.558179 0.432442 0.838797 0.061152
 22 0.000000 0.000000 11.949879 -0.351181 0.004253 -3.141592
 23 0.000000 0.000000 4.822874 0.000000 0.000000 0.000000
 24 -1.376730 -0.804586 1.281520 -0.659309 1.255116 -3.141592
 25 0.000000 0.000000 1.416892 0.073536 0.071051 -3.141592
 26 0.000000 0.000000 1.920310 0.269862 0.568862 0.000000
 27 0.213890 -0.856740 4.255571 0.528081 0.318569 0.000000
 28 0.000000 0.000000 1.378407 -0.049177 0.309751 -3.141592
 29 0.000000 0.000000 3.006212 0.930783 0.778878 -3.141592
 30 -3.352225 -2.014409 -1.625205 -3.111551 1.200587 0.000000
 31 0.000000 0.000000 4.228487 -0.339130 0.983347 -0.364611
 32 0.000000 0.000000 13.042765 0.453051 0.161047 -3.141592
 33 0.000000 0.000000 7.153650 0.000000 0.000000 0.000000
 34 -1.945980 -0.135012 0.247196 -3.077445 1.523081 0.000000
 35 0.000000 0.000000 1.172377 -0.535111 0.583828 -3.141592
 36 0.000000 0.000000 1.923266 -0.123086 0.631228 0.000000
 37 0.111389 0.206554 2.803840 0.313340 0.079789 -3.141592
 38 0.000000 0.000000 2.609086 0.476630 0.064040 0.000000
 39 0.000000 0.000000 2.388648 0.340473 0.179722 0.000000
time 23
  0 0.192741 -0.192741 31.621613 1.570796 0.000000 0.000000
  1 0.000000 -6.750002 -3.510001 0.000000 0.000000 0.000000
  2 3.007735 -0.000004 -0.000002 0.791084 0.244409 -0.001630
  3 0.000000 0.000000 12.794512 1.221538 0.519519 0.007473
  4 0.000000 0.000000 14.050400 0.821108 1.470961 -3.141592
  5 0.000000 0.000000 6.031133 0.113066 0.523561 0.000000
  6 0.000000 0.000000 0.757964 -0.000001 0.000000 0.000000
  7 0.000000 0.000000 0.757950 -0.000002 0.000000 0.000000
  8 -3.007735 0.000004 0.000005 -0.760555 0.236183 -3.140813
  9 0.000000 0.000000 12.794530 -1.282254 0.580263 -0.010713
 10 0.000000 0.000000 13.961749 -0.758599 1.461174 -3.141592
 11 0.000000 0.000000 6.030940 -0.114774 0.523252 0.000000
 12 0.000000 0.000000 0.757934 -0.000000 -0.000000 -3.141592
 13 0.000000 0.000000 0.757953 -0.000000 -0.000000 -3.141592
 14 0.000001 1.047682 0.554789 -1.177748 0.005566 0.000288
 15 0.000000 0.000000 4.300853 0.115422 0.000476 0.000012
 16 0.000000 0.000000 3.909713 -0.041559 0.001047 -3.141617
 17 0.000000 0.000000 4.692176 0.134155 0.000608 -3.141592
 18 0.000000 0.000000 5.479362 -0.117795 0.000000 0.000000
 19 0.645092 -2.464382 2.019449 -0.147324 0.159448 -0.012634
 20 3.518158 -2.206055 -1.728387 2.911160 1.048239 -3.141592
 21 0.000000 0.000000 4.558179 0.412331 0.840916 0.052629
 22 0.000000 0.000000 11.949879 -0.351181 0.004253 -3.141592
 23 0.000000 0.000000 4.822874 0.000000 0.000000 0.000000
 24 -1.376730 -0.804586 1.281520 -0.659309 1.255116 -3.141592
 25 0.000000 0.000000 1.416892 0.073536 0.071051 -3.141592
 26 0.000000 0.000000 1.920310 0.269862 0.568862 0.000000
 27 0.213890 -0.856740 4.255571 0.528081 0.318569 0.000000
 28 0.000000 0.000000 1.378407 -0.049177 0.309751 -3.141592
 29 0.000000 0.000000 3.006212 0.930783 0.778878 -3.141592
 30 -3.352225 -2.014409 -1.625205 -3.111551 1.200587 0.000000
 31 0.000000 0.000000 4.228487 -0.298894 0.993753 -0.316272
 32 0.000000 0.000000 13.042765 0.453051 0.161047 -3.141592
 33 0.000000 0.000000 7.153650 0.000000 0.000000 0.000000
 34 -1.945980 -0.135012 0.247196 -3.077445 1.523081 0.000000
 35 0.000000 0.000000 1.172377 -0.535111 0.583828 -3.141592
 36 0.000000 0.000000 1.923266 -0.123086 0.631228 0.000000
 37 0.111389 0.206554 2.803840 0.313340 0.079789 -3.141592
 38 0.000000 0.000000 2.609086 0.476630 0.064040 0.000000
 39 0.000000 0.000000 2.388648 0.340473 0.179722 0.000000
time 24
  0 0.192741 -0.192741 31.695833 1.570796 0.000000 0.000000
  1 0.000000 -6.750002 -3.510001 0.000000 0.000000 0.000000
  2 3.007735 -0.000004 -0.000002 0.792224 0.244409 -0.001354
  3 0.000000 0.000000 12.794512 1.219040 0.519543 0.006232
  4 0.000000 0.000000 14.050400 0.821108 1.470961 -3.141592
  5 0.000000 0.000000 6.031133 0.113066 0.523561 0.000000
  6 0.000000 0.000000 0.757964 -0.000001 0.000000 0.000000
  7 0.000000 0.000000 0.757950 -0.000002 0.000000 0.000000
  8 -3.007735 0.000004 0.000005 -0.761099 0.236183 -3.140945
  9 0.000000 0.000000 12.794530 -1.278993 0.580306 -0.008937
 10 0.000000 0.000000 13.961749 -0.758599 1.461174 -3.141592
 11 0.000000 0.000000 6.030940 -0.114774 0.523252 0.000000
 12 0.000000 0.000000 0.757934 -0.000000 -0.000000 -3.141592
 13 0.000000 0.000000 0.757953 -0.000000 -0.000000 -3.141592
 14 0.000001 1.047682 0.554789 -1.186473 0.005566 0.000240
 15 0.000000 0.000000 4.300853 0.107788 0.000476 0.000012
 16 0.000000 0.000000 3.909713 -0.036106 0.001047 -3.141617
 17 0.000000 0.000000 4.692176 0.130883 0.000608 -3.141592
 18 0.000000 0.000000 5.479362 -0.098166 0.000000 0.000000
 19 0.645092 -2.464382 2.019449 -0.134068 0.159594 -0.010546
 20 3.518158 -2.206055 -1.728387 2.911160 1.048239 -3.141592
 21 0.000000 0.000000 4.558179 0.392124 0.842918 0.044027
 22 0.000000 0.000000 11.949879 -0.351181 0.004253 -3.141592
 23 0.000000 0.000000 4.822874 0.000000 0.000000 0.000000
 24 -1.376730 -0.804586 1.281520 -0.659309 1.255116 -3.141592
 25 0.000000 0.000000 1.416892 0.073536 0.071051 -3.141592
 26 0.000000 0.000000 1.920310 0.269862 0.568862 0.000000
 27 0.213890 -0.856740 4.255571 0.528081 0.318569 0.000000
 28 0.000000 0.000000 1.378407 -0.049177 0.309751 -3.141592
 29 0.000000 0.000000 3.006212 0.930783 0.778878 -3.141592
 30 -3.352225 -2.014409 -1.625205 -3.111551 1.200587 0.000000
 31 0.000000 0.000000 4.228487 -0.257183 1.002951 -0.266405
 32 0.000000 0.000000 13.042765 0.453051 0.161047 -3.141592
 33 0.000000 0.000000 7.153650 0.000000 0.000000 0.000000
 34 -1.945980 -0.135012 0.247196 -3.077445 1.523081 0.000000
 35 0.000000 0.000000 1.172377 -0.535111 0.583828 -3.141592
 36 0.000000 0.000000 1.923266 -0.123086 0.631228 0.000000
 37 0.111389 0.206554 2.803840 0.313340 0.079789 -3.141592
 38 0.000000 0.000000 2.609086 0.476630 0.064040 0.000000
 39 0.000000 0.000000 2.388648 0.340473 0.179722 0.000000
time 25
  0 0.192741 -0.192741 31.770054 1.570796 0.000000 0.000000
  1 0.000000 -6.750002 -3.510001 0.000000 0.000000 0.000000
  2 3.007735 -0.000004 -0.000002 0.793327 0.244409 -0.001079
  3 0.000000 0.000000 12.794512 1.216506 0.519555 0.004977
  4 0.000000 0.000000 14.050400 0.821108 1.470961 -3.141592
  5 0.000000 0.000000 6.031133 0.113066 0.523561 0.000000
  6 0.000000 0.000000 0.757964 -0.000001 0.000000 0.000000
  7 0.000000 0.000000 0.757950 -0.000002 0.000000 0.000000
  8 -3.007735 0.000004 0.000005 -0.761684 0.236183 -3.141077
  9 0.000000 0.000000 12.794530 -1.275731 0.580328 -0.007134
 10 0.000000 0.000000 13.961749 -0.758599 1.461174 -3.141592
 11 0.000000 0.000000 6.030940 -0.114774 0.523252 0.000000
 12 0.000000 0.000000 0.757934 -0.000000 -0.000000 -3.141592
 13 0.000000 0.000000 0.757953 -0.000000 -0.000000 -3.141592
 14 0.000001 1.047682 0.554789 -1.195198 0.005566 0.000192
 15 0.000000 0.000000 4.300853 0.100154 0.000476 0.000012
 16 0.000000 0.000000 3.909713 -0.030653 0.001047 -3.141604
 17 0.000000 0.000000 4.692176 0.127611 0.000608 -3.141592
 18 0.000000 0.000000 5.479362 -0.078537 0.000000 0.000000
 19 0.645092 -2.464382 2.019449 -0.120812 0.159727 -0.008432
 20 3.518158 -2.206055 -1.728387 2.911160 1.048239 -3.141592
 21 0.000000 0.000000 4.558179 0.371821 0.844783 0.035346
 22 0.000000 0.000000 11.949879 -0.351181 0.004253 -3.141592
 23 0.000000 0.000000 4.822874 0.000000 0.000000 0.000000
 24 -1.376730 -0.804586 1.281520 -0.659309 1.255116 -3.141592
 25 0.000000 0.000000 1.416892 0.073536 0.071051 -3.141592
 26 0.000000 0.000000 1.920310 0.269862 0.568862 0.000000
 27 0.213890 -0.856740 4.255571 0.528081 0.318569 0.000000
 28 0.000000 0.000000 1.378407 -0.049177 0.309751 -3.141592
 29 0.000000 0.000000 3.006212 0.930783 0.778878 -3.141592
 30 -3.352225 -2.014409 -1.625205 -3.111551 1.200587 0.000000
 31 0.000000 0.000000 4.228487 -0.213996 1.011075 -0.215280
 32 0.000000 0.000000 13.042765 0.453051 0.161047 -3.141592
 33 0.000000 0.000000 7.153650 0.000000 0.000000 0.000000
 34 -1.945980 -0.135012 0.247196 -3.077445 1.523081 0.000000
 35 0.000000 0.000000 1.172377 -0.535111 0.583828 -3.141592
 36 0.000000 0.000000 1.923266 -0.123086 0.631228 0.000000
 37 0.111389 0.206554 2.803840 0.313340 0.079789 -3.141592
 38 0.000000 0.000000 2.609086 0.476630 0.064040 0.000000
 39 0.000000 0.000000 2.388648 0.340473 0.179722 0.000000
time 26
  0 0.192741 -0.192741 31.840368 1.570796 0.000000 0.000000
  1 0.000000 -6.750002 -3.510001 0.000000 0.000000 0.000000
  2 3.007735 -0.000004 -0.000002 0.794467 0.244409 -0.000815
  3 0.000000 0.000000 12.794512 1.214008 0.519555 0.003736
  4 0.000000 0.000000 14.050400 0.821108 1.470961 -3.141592
  5 0.000000 0.000000 6.031133 0.113066 0.523561 0.000000
  6 0.000000 0.000000 0.757964 -0.000001 0.000000 0.000000
  7 0.000000 0.000000 0.757950 -0.000002 0.000000 0.000000
  8 -3.007735 0.000004 0.000005 -0.762228 0.236183 -3.141209
  9 0.000000 0.000000 12.794530 -1.272470 0.580328 -0.005357
 10 0.000000 0.000000 13.961749 -0.758599 1.461174 -3.141592
 11 0.000000 0.000000 6.030940 -0.114774 0.523252 0.000000
 12 0.000000 0.000000 0.757934 -0.000000 -0.000000 -3.141592
 13 0.000000 0.000000 0.757953 -0.000000 -0.000000 -3.141592
 14 0.000001 1.047682 0.554789 -1.203923 0.005566 0.000144
 15 0.000000 0.000000 4.300853 0.092520 0.000476 0.000000
 16 0.000000 0.000000 3.909713 -0.025200 0.001047 -3.141604
 17 0.000000 0.000000 4.692176 0.124339 0.000608 -3.141592
 18 0.000000 0.000000 5.479362 -0.058887 0.000000 0.000000
 19 0.645092 -2.464382 2.019449 -0.107556 0.159820 -0.006317
 20 3.518158 -2.206055 -1.728387 2.911160 1.048239 -3.141592
 21 0.000000 0.000000 4.558179 0.351518 0.846550 0.026588
 22 0.000000 0.000000 11.949879 -0.351181 0.004253 -3.141592
 23 0.000000 0.000000 4.822874 0.000000 0.000000 0.000000
 24 -1.376730 -0.804586 1.281520 -0.659309 1.255116 -3.141592
 25 0.000000 0.000000 1.416892 0.073536 0.071051 -3.141592
 26 0.000000 0.000000 1.920310 0.269862 0.568862 0.000000
 27 0.213890 -0.856740 4.255571 0.528081 0.318569 0.000000
 28 0.000000 0.000000 1.378407 -0.049177 0.309751 -3.141592
 29 0.000000 0.000000 3.006212 0.930783 0.778878 -3.141592
 30 -3.352225 -2.014409 -1.625205 -3.111551 1.200587 0.000000
 31 0.000000 0.000000 4.228487 -0.169589 1.017990 -0.162898
 32 0.000000 0.000000 13.042765 0.453051 0.161047 -3.141592
 33 0.000000 0.000000 7.153650 0.000000 0.000000 0.000000
 34 -1.945980 -0.135012 0.247196 -3.077445 1.523081 0.000000
 35 0.000000 0.000000 1.172377 -0.535111 0.583828 -3.141592
 36 0.000000 0.000000 1.923266 -0.123086 0.631228 0.000000
 37 0.111389 0.206554 2.803840 0.313340 0.079789 -3.141592
 38 0.000000 0.000000 2.609086 0.476630 0.064040 0.000000
 39 0.000000 0.000000 2.388648 0.340473 0.179722 0.000000
time 27
  0 0.192741 -0.192741 31.910683 1.570796 0.000000 0.000000
  1 0.000000 -6.750002 -3.510001 0.000000 0.000000 0.000000
  2 3.007735 -0.000004 -0.000002 0.795569 0.244409 -0.000539
  3 0.000000 0.000000 12.794512 1.211475 0.519567 0.002496
  4 0.000000 0.000000 14.050400 0.821108 1.470961 -3.141592
  5 0.000000 0.000000 6.031133 0.113066 0.523561 0.000000
  6 0.000000 0.000000 0.757964 -0.000001 0.000000 0.000000
  7 0.000000 0.000000 0.757950 -0.000002 0.000000 0.000000
  8 -3.007735 0.000004 0.000005 -0.762814 0.236183 -3.141340
  9 0.000000 0.000000 12.794530 -1.269209 0.580349 -0.003554
 10 0.000000 0.000000 13.961749 -0.758599 1.461174 -3.141592
 11 0.000000 0.000000 6.030940 -0.114774 0.523252 0.000000
 12 0.000000 0.000000 0.757934 -0.000000 -0.000000 -3.141592
 13 0.000000 0.000000 0.757953 -0.000000 -0.000000 -3.141592
 14 0.000001 1.047682 0.554789 -1.212647 0.005566 0.000096
 15 0.000000 0.000000 4.300853 0.084885 0.000476 0.000000
 16 0.000000 0.000000 3.909713 -0.019747 0.001047 -3.141592
 17 0.000000 0.000000 4.692176 0.121068 0.000608 -3.141592
 18 0.000000 0.000000 5.479362 -0.039258 0.000000 0.000000
 19 0.645092 -2.464382 2.019449 -0.094301 0.159886 -0.004202
 20 3.518158 -2.206055 -1.728387 2.911160 1.048239 -3.141592
 21 0.000000 0.000000 4.558179 0.331120 0.848198 0.017830
 22 0.000000 0.000000 11.949879 -0.351181 0.004253 -3.141592
 23 0.000000 0.000000 4.822874 0.000000 0.000000 0.000000
 24 -1.376730 -0.804586 1.281520 -0.659309 1.255116 -3.141592
 25 0.000000 0.000000 1.416892 0.073536 0.071051 -3.141592
 26 0.000000 0.000000 1.920310 0.269862 0.568862 0.000000
 27 0.213890 -0.856740 4.255571 0.528081 0.318569 0.000000
 28 0.000000 0.000000 1.378407 -0.049177 0.309751 -3.141592
 29 0.000000 0.000000 3.006212 0.930783 0.778878 -3.141592
 30 -3.352225 -2.014409 -1.625205 -3.111551 1.200587 0.000000
 31 0.000000 0.000000 4.228487 -0.124156 1.023630 -0.109347
 32 0.000000 0.000000 13.042765 0.453051 0.161047 -3.141592
 33 0.000000 0.000000 7.153650 0.000000 0.000000 0.000000
 34 -1.945980 -0.135012 0.247196 -3.077445 1.523081 0.000000
 35 0.000000 0.000000 1.172377 -0.535111 0.583828 -3.141592
 36 0.000000 0.000000 1.923266 -0.123086 0.631228 0.000000
 37 0.111389 0.206554 2.803840 0.313340 0.079789 -3.141592
 38 0.000000 0.000000 2.609086 0.476630 0.064040 0.000000
 39 0.000000 0.000000 2.388648 0.340473 0.179722 0.000000
time 28
  0 0.192741 -0.192741 31.969278 1.570796 0.000000 0.000000
  1 0.000000 -6.750002 -3.510001 0.000000 0.000000 0.000000
  2 3.007735 -0.000004 -0.000002 0.796709 0.244409 -0.000264
  3 0.000000 0.000000 12.794512 1.208977 0.519567 0.001241
  4 0.000000 0.000000 14.050400 0.821108 1.470961 -3.141592
  5 0.000000 0.000000 6.031133 0.113066 0.523561 0.000000
  6 0.000000 0.000000 0.757964 -0.000001 0.000000 0.000000
  7 0.000000 0.000000 0.757950 -0.000002 0.000000 0.000000
  8 -3.007735 0.000004 0.000005 -0.763357 0.236183 -3.141472
  9 0.000000 0.000000 12.794530 -1.265947 0.580349 -0.001777
 10 0.000000 0.000000 13.961749 -0.758599 1.461174 -3.141592
 11 0.000000 0.000000 6.030940 -0.114774 0.523252 0.000000
 12 0.000000 0.000000 0.757934 -0.000000 -0.000000 -3.141592
 13 0.000000 0.000000 0.757953 -0.000000 -0.000000 -3.141592
 14 0.000001 1.047682 0.554789 -1.221372 0.005566 0.000048
 15 0.000000 0.000000 4.300853 0.077251 0.000476 0.000000
 16 0.000000 0.000000 3.909713 -0.014294 0.001047 -3.141592
 17 0.000000 0.000000 4.692176 0.117796 0.000608 -3.141592
 18 0.000000 0.000000 5.479362 -0.019629 0.000000 0.000000
 19 0.645092 -2.464382 2.019449 -0.081045 0.159926 -0.002088
 20 3.518158 -2.206055 -1.728387 2.911160 1.048239 -3.141592
 21 0.000000 0.000000 4.558179 0.310721 0.849729 0.008915
 22 0.000000 0.000000 11.949879 -0.351181 0.004253 -3.141592
 23 0.000000 0.000000 4.822874 0.000000 0.000000 0.000000
 24 -1.376730 -0.804586 1.281520 -0.659309 1.255116 -3.141592
 25 0.000000 0.000000 1.416892 0.073536 0.071051 -3.141592
 26 0.000000 0.000000 1.920310 0.269862 0.568862 0.000000
 27 0.213890 -0.856740 4.255571 0.528081 0.318569 0.000000
 28 0.000000 0.000000 1.378407 -0.049177 0.309751 -3.141592
 29 0.000000 0.000000 3.006212 0.930783 0.778878 -3.141592
 30 -3.352225 -2.014409 -1.625205 -3.111551 1.200587 0.000000
 31 0.000000 0.000000 4.228487 -0.077760 1.027994 -0.054988
 32 0.000000 0.000000 13.042765 0.453051 0.161047 -3.141592
 33 0.000000 0.000000 7.153650 0.000000 0.000000 0.000000
 34 -1.945980 -0.135012 0.247196 -3.077445 1.523081 0.000000
 35 0.000000 0.000000 1.172377 -0.535111 0.583828 -3.141592
 36 0.000000 0.000000 1.923266 -0.123086 0.631228 0.000000
 37 0.111389 0.206554 2.803840 0.313340 0.079789 -3.141592
 38 0.000000 0.000000 2.609086 0.476630 0.064040 0.000000
 39 0.000000 0.000000 2.388648 0.340473 0.179722 0.000000
time 29
  0 0.192741 -0.192741 32.016155 1.570796 0.000000 0.000000
  1 0.000000 -6.750002 -3.510001 0.000000 0.000000 0.000000
  2 3.007735 -0.000004 -0.000002 0.797811 0.244409 0.000000
  3 0.000000 0.000000 12.794512 1.206479 0.519567 0.000000
  4 0.000000 0.000000 14.050400 0.821108 1.470961 -3.141592
  5 0.000000 0.000000 6.031133 0.113066 0.523561 0.000000
  6 0.000000 0.000000 0.757964 -0.000001 0.000000 0.000000
  7 0.000000 0.000000 0.757950 -0.000002 0.000000 0.000000
  8 -3.007735 0.000004 0.000005 -0.763901 0.236183 -3.141592
  9 0.000000 0.000000 12.794530 -1.262723 0.580349 0.000000
 10 0.000000 0.000000 13.961749 -0.758599 1.461174 -3.141592
 11 0.000000 0.000000 6.030940 -0.114774 0.523252 0.000000
 12 0.000000 0.000000 0.757934 -0.000000 -0.000000 -3.141592
 13 0.000000 0.000000 0.757953 -0.000000 -0.000000 -3.141592
 14 0.000001 1.047682 0.554789 -1.230097 0.005566 0.000000
 15 0.000000 0.000000 4.300853 0.069617 0.000476 0.000000
 16 0.000000 0.000000 3.909713 -0.008841 0.001047 -3.141592
 17 0.000000 0.000000 4.692176 0.114524 0.000608 -3.141592
 18 0.000000 0.000000 5.479362 0.000000 0.000000 0.000000
 19 0.645092 -2.464382 2.019449 -0.067789 0.159939 0.000000
 20 3.518158 -2.206055 -1.728387 2.911160 1.048239 -3.141592
 21 0.000000 0.000000 4.558179 0.290227 0.851123 0.000000
 22 0.000000 0.000000 11.949879 -0.351181 0.004253 -3.141592
 23 0.000000 0.000000 4.822874 0.000000 0.000000 0.000000
 24 -1.376730 -0.804586 1.281520 -0.659309 1.255116 -3.141592
 25 0.000000 0.000000 1.416892 0.073536 0.071051 -3.141592
 26 0.000000 0.000000 1.920310 0.269862 0.568862 0.000000
 27 0.213890 -0.856740 4.255571 0.528081 0.318569 0.000000
 28 0.000000 0.000000 1.378407 -0.049177 0.309751 -3.141592
 29 0.000000 0.000000 3.006212 0.930783 0.778878 -3.141592
 30 -3.352225 -2.014409 -1.625205 -3.111551 1.200587 0.000000
 31 0.000000 0.000000 4.228487 -0.030722 1.031015 0.000000
 32 0.000000 0.000000 13.042765 0.453051 0.161047 -3.141592
 33 0.000000 0.000000 7.153650 0.000000 0.000000 0.000000
 34 -1.945980 -0.135012 0.247196 -3.077445 1.523081 0.000000
 35 0.000000 0.000000 1.172377 -0.535111 0.583828 -3.141592
 36 0.000000 0.000000 1.923266 -0.123086 0.631228 0.000000
 37 0.111389 0.206554 2.803840 0.313340 0.079789 -3.141592
 38 0.000000 0.000000 2.609086 0.476630 0.064040 0.000000
 39 0.000000 0.000000 2.388648 0.340473 0.179722 0.000000
end
