version 1
nodes
  0 "Bip01"  -1
  1 "Bip01 Pelvis"   0
  2 "Bip01 L Thigh"   1
  3 "Bip01 L Knee"   2
  4 "Bip01 L Foot"   3
  5 "Bip01 L Toe0"   4
  6 "Bip01 L Toe01"   5
  7 "Bip01 L Toe02"   6
  8 "Bip01 R Thigh"   1
  9 "Bip01 R Knee"   8
 10 "Bip01 R Foot"   9
 11 "Bip01 R Toe0"  10
 12 "Bip01 R Toe01"  11
 13 "Bip01 R Toe02"  12
 14 "Bip01 Spine"   1
 15 "Bip01 Spine1"  14
 16 "Bip01 Spine2"  15
 17 "Bip01 Spine3"  16
 18 "Bip01 Neck"  17
 19 "Bip01 Head"  18
 20 "Bip01 L Clavicle"  18
 21 "Bip01 L UpperArm"  20
 22 "Bip01 L Forearm"  21
 23 "Bip01 L Hand"  22
 24 "Bip01 L Finger0"  23
 25 "Bip01 L Finger01"  24
 26 "Bip01 L Finger02"  25
 27 "Bip01 L Finger1"  23
 28 "Bip01 L Finger11"  27
 29 "Bip01 L Finger12"  28
 30 "Bip01 R Clavicle"  18
 31 "Bip01 R UpperArm"  30
 32 "Bip01 R Forearm"  31
 33 "Bip01 R Hand"  32
 34 "Bip01 R Finger0"  33
 35 "Bip01 R Finger01"  34
 36 "Bip01 R Finger02"  35
 37 "Bip01 R Finger1"  33
 38 "Bip01 R Finger11"  37
 39 "Bip01 R Finger12"  38
end
skeleton
time 0
  0 0.192741 -0.192741 32.016155 1.570796 0.000000 0.000000
  1 0.000000 -6.750002 -3.510001 0.000000 0.000000 0.000000
  2 3.007735 -0.000004 -0.000002 0.797811 0.244409 0.000000
  3 0.000000 0.000000 12.794512 1.206479 0.519567 0.000000
  4 0.000000 0.000000 14.050400 0.821108 1.470961 -3.141592
  5 0.000000 0.000000 6.031133 0.113066 0.523561 0.000000
  6 0.000000 0.000000 0.757964 -0.000001 0.000000 0.000000
  7 0.000000 0.000000 0.757950 -0.000002 0.000000 0.000000
  8 -3.007735 0.000004 0.000005 -0.280698 0.036124 -3.055543
  9 0.000000 0.000000 12.794530 -0.952673 0.558180 0.168097
 10 0.000000 0.000000 13.961749 0.078954 0.241865 -2.318107
 11 0.000000 0.000000 6.030940 -0.114774 0.523252 0.000000
 12 0.000000 0.000000 0.757934 -0.000000 -0.000000 -3.141592
 13 0.000000 0.000000 0.757953 -0.000000 -0.000000 -3.141592
 14 0.000001 1.047682 0.554789 -1.073015 0.005506 0.000863
 15 0.000000 0.000000 4.300853 0.121966 0.000476 0.000024
 16 0.000000 0.000000 3.909713 -0.008841 0.001047 -3.141592
 17 0.000000 0.000000 4.692176 0.114524 0.000608 -3.141592
 18 0.000000 0.000000 5.479362 -0.366512 0.000000 0.000000
 19 0.645092 -2.464382 2.019449 -0.067789 0.159939 0.000000
 20 3.518158 -2.206055 -1.728387 2.911160 1.048239 -3.141592
 21 0.000000 0.000000 4.558179 0.290227 0.851123 0.000000
 22 0.000000 0.000000 11.949879 -0.351181 0.004253 -3.141592
 23 0.000000 0.000000 4.822874 0.000000 0.000000 0.000000
 24 -1.376730 -0.804586 1.281520 -0.659309 1.255116 -3.141592
 25 0.000000 0.000000 1.416892 0.073536 0.071051 -3.141592
 26 0.000000 0.000000 1.920310 0.269862 0.568862 0.000000
 27 0.213890 -0.856740 4.255571 0.528081 0.318569 0.000000
 28 0.000000 0.000000 1.378407 -0.049177 0.309751 -3.141592
 29 0.000000 0.000000 3.006212 0.930783 0.778878 -3.141592
 30 -3.352225 -2.014409 -1.625205 -3.111551 1.200587 0.000000
 31 0.000000 0.000000 4.228487 -0.030722 1.031015 0.000000
 32 0.000000 0.000000 13.042765 0.453051 0.161047 -3.141592
 33 0.000000 0.000000 7.153650 0.000000 0.000000 0.000000
 34 -1.945980 -0.135012 0.247196 -3.077445 1.523081 0.000000
 35 0.000000 0.000000 1.172377 -0.535111 0.583828 -3.141592
 36 0.000000 0.000000 1.923266 -0.123086 0.631228 0.000000
 37 0.111389 0.206554 2.803840 0.313340 0.079789 -3.141592
 38 0.000000 0.000000 2.609086 0.476630 0.064040 0.000000
 39 0.000000 0.000000 2.388648 0.340473 0.179722 0.000000
time 1
  0 0.192741 2.307259 32.016155 1.570796 0.000000 0.000000
  1 0.000000 -6.750002 -3.510001 0.000000 0.000000 0.000000
  2 3.007735 -0.000004 -0.000002 0.991249 0.240035 0.046536
  3 0.000000 0.000000 12.794512 1.064903 0.515253 -0.070130
  4 0.000000 0.000000 14.050400 2.727337 1.550635 -1.263147
  5 0.000000 0.000000 6.031133 0.113066 0.523561 0.000000
  6 0.000000 0.000000 0.757964 -0.000001 0.000000 0.000000
  7 0.000000 0.000000 0.757950 -0.000002 0.000000 0.000000
  8 -3.007735 0.000004 0.000005 -0.321853 0.039636 -3.057101
  9 0.000000 0.000000 12.794530 -0.906199 0.621814 0.217144
 10 0.000000 0.000000 13.961749 0.126316 0.345421 -2.355403
 11 0.000000 0.000000 6.030940 -0.114774 0.523252 0.000000
 12 0.000000 0.000000 0.757934 -0.000000 -0.000000 -3.141592
 13 0.000000 0.000000 0.757953 -0.000000 -0.000000 -3.141592
 14 0.000001 1.047682 0.554789 -1.073015 0.005506 0.000863
 15 0.000000 0.000000 4.300853 0.144784 -0.029550 -0.019535
 16 0.000000 0.000000 3.909713 -0.008841 0.008022 -3.141592
 17 0.000000 0.000000 4.692176 0.114524 0.018058 -3.141592
 18 0.000000 0.000000 5.479362 -0.429209 0.004590 0.024089
 19 0.645092 -2.464382 2.019449 -0.092481 0.158361 -0.024813
 20 3.518158 -2.206055 -1.728387 2.911160 1.048239 -3.141592
 21 0.000000 0.000000 4.558179 0.448339 0.844901 0.118629
 22 0.000000 0.000000 11.949879 -0.497751 0.004227 -3.142188
 23 0.000000 0.000000 4.822874 0.205936 0.000000 0.000000
 24 -1.376730 -0.804586 1.281520 -0.659309 1.255116 -3.141592
 25 0.000000 0.000000 1.416892 0.073536 0.071051 -3.141592
 26 0.000000 0.000000 1.920310 0.269862 0.568862 0.000000
 27 0.213890 -0.856740 4.255571 0.528081 0.318569 0.000000
 28 0.000000 0.000000 1.378407 -0.049177 0.309751 -3.141592
 29 0.000000 0.000000 3.006212 0.930783 0.778878 -3.141592
 30 -3.352225 -2.014409 -1.625205 -3.111551 1.200587 0.000000
 31 0.000000 0.000000 4.228487 0.415077 0.984622 0.378807
 32 0.000000 0.000000 13.042765 0.355258 0.233777 -3.327402
 33 0.000000 0.000000 7.153650 0.000000 0.000000 0.000000
 34 -1.945980 -0.135012 0.247196 -3.077445 1.523081 0.000000
 35 0.000000 0.000000 1.172377 -0.535111 0.583828 -3.141592
 36 0.000000 0.000000 1.923266 -0.123086 0.631228 0.000000
 37 0.111389 0.206554 2.803840 0.313340 0.079789 -3.141592
 38 0.000000 0.000000 2.609086 0.476630 0.064040 0.000000
 39 0.000000 0.000000 2.388648 0.340473 0.179722 0.000000
time 2
  0 0.192741 4.807259 32.016155 1.570796 0.000000 0.000000
  1 0.000000 -6.750002 -3.510001 0.000000 0.000000 0.000000
  2 3.007735 -0.000004 -0.000002 1.183927 0.227055 0.091251
  3 0.000000 0.000000 12.794512 0.924630 0.502405 -0.138538
  4 0.000000 0.000000 14.050400 3.663223 1.451905 -0.355062
  5 0.000000 0.000000 6.031133 0.113066 0.523561 0.000000
  6 0.000000 0.000000 0.757964 -0.000001 0.000000 0.000000
  7 0.000000 0.000000 0.757950 -0.000002 0.000000 0.000000
  8 -3.007735 0.000004 0.000005 -0.362967 0.043087 -3.058803
  9 0.000000 0.000000 12.794530 -0.853499 0.683390 0.272358
 10 0.000000 0.000000 13.961749 0.171377 0.450503 -2.388864
 11 0.000000 0.000000 6.030940 -0.114774 0.523252 0.000000
 12 0.000000 0.000000 0.757934 -0.000000 -0.000000 -3.141592
 13 0.000000 0.000000 0.757953 -0.000000 -0.000000 -3.141592
 14 0.000001 1.047682 0.554789 -1.073015 0.005506 0.000863
 15 0.000000 0.000000 4.300853 0.168226 -0.059133 -0.039825
 16 0.000000 0.000000 3.909713 -0.008841 0.015009 -3.141592
 17 0.000000 0.000000 4.692176 0.114524 0.035507 -3.141592
 18 0.000000 0.000000 5.479362 -0.491782 0.010678 0.047854
 19 0.645092 -2.464382 2.019449 -0.117134 0.156173 -0.049600
 20 3.518158 -2.206055 -1.728387 2.911160 1.048239 -3.141592
 21 0.000000 0.000000 4.558179 0.602142 0.826549 0.232879
 22 0.000000 0.000000 11.949879 -0.644368 0.004072 -3.142816
 23 0.000000 0.000000 4.822874 0.411872 0.000000 0.000000
 24 -1.376730 -0.804586 1.281520 -0.659309 1.255116 -3.141592
 25 0.000000 0.000000 1.416892 0.073536 0.071051 -3.141592
 26 0.000000 0.000000 1.920310 0.269862 0.568862 0.000000
 27 0.213890 -0.856740 4.255571 0.528081 0.318569 0.000000
 28 0.000000 0.000000 1.378407 -0.049177 0.309751 -3.141592
 29 0.000000 0.000000 3.006212 0.930783 0.778878 -3.141592
 30 -3.352225 -2.014409 -1.625205 -3.111551 1.200587 0.000000
 31 0.000000 0.000000 4.228487 0.763143 0.863639 0.658151
 32 0.000000 0.000000 13.042765 0.243501 0.287034 -3.522791
 33 0.000000 0.000000 7.153650 0.000000 0.000000 0.000000
 34 -1.945980 -0.135012 0.247196 -3.077445 1.523081 0.000000
 35 0.000000 0.000000 1.172377 -0.535111 0.583828 -3.141592
 36 0.000000 0.000000 1.923266 -0.123086 0.631228 0.000000
 37 0.111389 0.206554 2.803840 0.313340 0.079789 -3.141592
 38 0.000000 0.000000 2.609086 0.476630 0.064040 0.000000
 39 0.000000 0.000000 2.388648 0.340473 0.179722 0.000000
time 3
  0 0.192741 7.307259 32.016155 1.570796 0.000000 0.000000
  1 0.000000 -6.750002 -3.510001 0.000000 0.000000 0.000000
  2 3.007735 -0.000004 -0.000002 1.375085 0.206022 0.132442
  3 0.000000 0.000000 12.794512 0.786963 0.481396 -0.203632
  4 0.000000 0.000000 14.050400 3.748431 1.344643 -0.297882
  5 0.000000 0.000000 6.031133 0.113066 0.523561 0.000000
  6 0.000000 0.000000 0.757964 -0.000001 0.000000 0.000000
  7 0.000000 0.000000 0.757950 -0.000002 0.000000 0.000000
  8 -3.007735 0.000004 0.000005 -0.404123 0.046455 -3.060648
  9 0.000000 0.000000 12.794530 -0.793461 0.742393 0.334862
 10 0.000000 0.000000 13.961749 0.215095 0.556851 -2.418778
 11 0.000000 0.000000 6.030940 -0.114774 0.523252 0.000000
 12 0.000000 0.000000 0.757934 -0.000000 -0.000000 -3.141592
 13 0.000000 0.000000 0.757953 -0.000000 -0.000000 -3.141592
 14 0.000001 1.047682 0.554789 -1.073015 0.005506 0.000863
 15 0.000000 0.000000 4.300853 0.192303 -0.088222 -0.060834
 16 0.000000 0.000000 3.909713 -0.008841 0.021984 -3.141592
 17 0.000000 0.000000 4.692176 0.114524 0.052957 -3.141592
 18 0.000000 0.000000 5.479362 -0.554210 0.018253 0.071188
 19 0.645092 -2.464382 2.019449 -0.141711 0.153388 -0.074306
 20 3.518158 -2.206055 -1.728387 2.911160 1.048239 -3.141592
 21 0.000000 0.000000 4.558179 0.748188 0.796950 0.338918
 22 0.000000 0.000000 11.949879 -0.790985 0.003864 -3.143380
 23 0.000000 0.000000 4.822874 0.617840 0.000000 0.000000
 24 -1.376730 -0.804586 1.281520 -0.659309 1.255116 -3.141592
 25 0.000000 0.000000 1.416892 0.073536 0.071051 -3.141592
 26 0.000000 0.000000 1.920310 0.269862 0.568862 0.000000
 27 0.213890 -0.856740 4.255571 0.528081 0.318569 0.000000
 28 0.000000 0.000000 1.378407 -0.049177 0.309751 -3.141592
 29 0.000000 0.000000 3.006212 0.930783 0.778878 -3.141592
 30 -3.352225 -2.014409 -1.625205 -3.111551 1.200587 0.000000
 31 0.000000 0.000000 4.228487 1.012256 0.699015 0.834616
 32 0.000000 0.000000 13.042765 0.121593 0.317854 -3.725739
 33 0.000000 0.000000 7.153650 0.000000 0.000000 0.000000
 34 -1.945980 -0.135012 0.247196 -3.077445 1.523081 0.000000
 35 0.000000 0.000000 1.172377 -0.535111 0.583828 -3.141592
 36 0.000000 0.000000 1.923266 -0.123086 0.631228 0.000000
 37 0.111389 0.206554 2.803840 0.313340 0.079789 -3.141592
 38 0.000000 0.000000 2.609086 0.476630 0.064040 0.000000
 39 0.000000 0.000000 2.388648 0.340473 0.179722 0.000000
time 4
  0 0.192741 9.807260 32.016155 1.570796 0.000000 0.000000
  1 0.000000 -6.750002 -3.510001 0.000000 0.000000 0.000000
  2 3.007735 -0.000004 -0.000002 1.564305 0.177763 0.168635
  3 0.000000 0.000000 12.794512 0.652808 0.452825 -0.264130
  4 0.000000 0.000000 14.050400 3.788038 1.237034 -0.286560
  5 0.000000 0.000000 6.031133 0.113066 0.523561 0.000000
  6 0.000000 0.000000 0.757964 -0.000001 0.000000 0.000000
  7 0.000000 0.000000 0.757950 -0.000002 0.000000 0.000000
  8 -3.007735 0.000004 0.000005 -0.445321 0.049751 -3.062626
  9 0.000000 0.000000 12.794530 -0.724824 0.798245 0.405884
 10 0.000000 0.000000 13.961749 0.258143 0.664240 -2.445048
 11 0.000000 0.000000 6.030940 -0.114774 0.523252 0.000000
 12 0.000000 0.000000 0.757934 -0.000000 -0.000000 -3.141592
 13 0.000000 0.000000 0.757953 -0.000000 -0.000000 -3.141592
 14 0.000001 1.047682 0.554789 -1.073015 0.005506 0.000863
 15 0.000000 0.000000 4.300853 0.217063 -0.116800 -0.082610
 16 0.000000 0.000000 3.909713 -0.008841 0.028971 -3.141592
 17 0.000000 0.000000 4.692176 0.114524 0.070418 -3.141592
 18 0.000000 0.000000 5.479362 -0.616431 0.027253 0.094019
 19 0.645092 -2.464382 2.019449 -0.166212 0.150006 -0.098932
 20 3.518158 -2.206055 -1.728387 2.911160 1.048239 -3.141592
 21 0.000000 0.000000 4.558179 0.884274 0.757379 0.434401
 22 0.000000 0.000000 11.949879 -0.937601 0.003554 -3.143945
 23 0.000000 0.000000 4.822874 0.823776 0.000000 0.000000
 24 -1.376730 -0.804586 1.281520 -0.659309 1.255116 -3.141592
 25 0.000000 0.000000 1.416892 0.073536 0.071051 -3.141592
 26 0.000000 0.000000 1.920310 0.269862 0.568862 0.000000
 27 0.213890 -0.856740 4.255571 0.528081 0.318569 0.000000
 28 0.000000 0.000000 1.378407 -0.049177 0.309751 -3.141592
 29 0.000000 0.000000 3.006212 0.930783 0.778878 -3.141592
 30 -3.352225 -2.014409 -1.625205 -3.111551 1.200587 0.000000
 31 0.000000 0.000000 4.228487 1.196941 0.511631 0.940459
 32 0.000000 0.000000 13.042765 -0.005118 0.324345 -3.932380
 33 0.000000 0.000000 7.153650 0.000000 0.000000 0.000000
 34 -1.945980 -0.135012 0.247196 -3.077445 1.523081 0.000000
 35 0.000000 0.000000 1.172377 -0.535111 0.583828 -3.141592
 36 0.000000 0.000000 1.923266 -0.123086 0.631228 0.000000
 37 0.111389 0.206554 2.803840 0.313340 0.079789 -3.141592
 38 0.000000 0.000000 2.609086 0.476630 0.064040 0.000000
 39 0.000000 0.000000 2.388648 0.340473 0.179722 0.000000
time 5
  0 0.192741 12.307259 32.016155 1.570796 0.000000 0.000000
  1 0.000000 -6.750002 -3.510001 0.000000 0.000000 0.000000
  2 3.007735 -0.000004 -0.000002 1.751397 0.143355 0.198633
  3 0.000000 0.000000 12.794512 0.522744 0.417374 -0.319008
  4 0.000000 0.000000 14.050400 3.815661 1.129364 -0.287881
  5 0.000000 0.000000 6.031133 0.113066 0.523561 0.000000
  6 0.000000 0.000000 0.757964 -0.000001 0.000000 0.000000
  7 0.000000 0.000000 0.757950 -0.000002 0.000000 0.000000
  8 -3.007735 0.000004 0.000005 -0.486476 0.052963 -3.064735
  9 0.000000 0.000000 12.794530 -0.646293 0.850194 0.486758
 10 0.000000 0.000000 13.961749 0.301573 0.772448 -2.467387
 11 0.000000 0.000000 6.030940 -0.114774 0.523252 0.000000
 12 0.000000 0.000000 0.757934 -0.000000 -0.000000 -3.141592
 13 0.000000 0.000000 0.757953 -0.000000 -0.000000 -3.141592
 14 0.000001 1.047682 0.554789 -1.073015 0.005506 0.000863
 15 0.000000 0.000000 4.300853 0.242543 -0.144816 -0.105165
 16 0.000000 0.000000 3.909713 -0.008841 0.035946 -3.141592
 17 0.000000 0.000000 4.692176 0.114524 0.087868 -3.141592
 18 0.000000 0.000000 5.479362 -0.678486 0.037668 0.116239
 19 0.645092 -2.464382 2.019449 -0.190597 0.146014 -0.123451
 20 3.518158 -2.206055 -1.728387 2.911160 1.048239 -3.141592
 21 0.000000 0.000000 4.558179 1.009538 0.709271 0.518387
 22 0.000000 0.000000 11.949879 -1.084218 0.003165 -3.144415
 23 0.000000 0.000000 4.822874 1.029713 0.000000 0.000000
 24 -1.376730 -0.804586 1.281520 -0.659309 1.255116 -3.141592
 25 0.000000 0.000000 1.416892 0.073536 0.071051 -3.141592
 26 0.000000 0.000000 1.920310 0.269862 0.568862 0.000000
 27 0.213890 -0.856740 4.255571 0.528081 0.318569 0.000000
 28 0.000000 0.000000 1.378407 -0.049177 0.309751 -3.141592
 29 0.000000 0.000000 3.006212 0.930783 0.778878 -3.141592
 30 -3.352225 -2.014409 -1.625205 -3.111551 1.200587 0.000000
 31 0.000000 0.000000 4.228487 1.345242 0.312498 1.000209
 32 0.000000 0.000000 13.042765 -0.130293 0.306033 -4.137809
 33 0.000000 0.000000 7.153650 0.000000 0.000000 0.000000
 34 -1.945980 -0.135012 0.247196 -3.077445 1.523081 0.000000
 35 0.000000 0.000000 1.172377 -0.535111 0.583828 -3.141592
 36 0.000000 0.000000 1.923266 -0.123086 0.631228 0.000000
 37 0.111389 0.206554 2.803840 0.313340 0.079789 -3.141592
 38 0.000000 0.000000 2.609086 0.476630 0.064040 0.000000
 39 0.000000 0.000000 2.388648 0.340473 0.179722 0.000000
time 6
  0 0.192741 14.807259 32.016155 1.570796 0.000000 0.000000
  1 0.000000 -6.750002 -3.510001 0.000000 0.000000 0.000000
  2 3.007735 -0.000004 -0.000002 1.511100 0.186416 0.159000
  3 0.000000 0.000000 12.794512 0.624645 0.445790 -0.276360
  4 0.000000 0.000000 14.050400 3.885419 1.231065 -0.158990
  5 0.000000 0.000000 6.031133 0.113066 0.523561 0.000000
  6 0.000000 0.000000 0.757964 -0.000001 0.000000 0.000000
  7 0.000000 0.000000 0.757950 -0.000002 0.000000 0.000000
  8 -3.007735 0.000004 0.000005 -0.527674 0.056091 -3.066988
  9 0.000000 0.000000 12.794530 -0.641586 0.923648 0.523680
 10 0.000000 0.000000 13.961749 0.346538 0.881325 -2.485220
 11 0.000000 0.000000 6.030940 -0.114774 0.523252 0.000000
 12 0.000000 0.000000 0.757934 -0.000000 -0.000000 -3.141592
 13 0.000000 0.000000 0.757953 -0.000000 -0.000000 -3.141592
 14 0.000001 1.047682 0.554789 -1.073015 0.005506 0.000863
 15 0.000000 0.000000 4.300853 0.221258 -0.121518 -0.086313
 16 0.000000 0.000000 3.909713 -0.008841 0.030134 -3.141592
 17 0.000000 0.000000 4.692176 0.114524 0.073319 -3.141592
 18 0.000000 0.000000 5.479362 -0.626804 0.028895 0.097758
 19 0.645092 -2.464382 2.019449 -0.170273 0.149383 -0.103028
 20 3.518158 -2.206055 -1.728387 2.911160 1.048239 -3.141592
 21 0.000000 0.000000 4.558179 0.905918 0.749901 0.449259
 22 0.000000 0.000000 11.949879 -0.962022 0.003502 -3.144007
 23 0.000000 0.000000 4.822874 0.858094 0.000000 0.000000
 24 -1.376730 -0.804586 1.281520 -0.659309 1.255116 -3.141592
 25 0.000000 0.000000 1.416892 0.073536 0.071051 -3.141592
 26 0.000000 0.000000 1.920310 0.269862 0.568862 0.000000
 27 0.213890 -0.856740 4.255571 0.528081 0.318569 0.000000
 28 0.000000 0.000000 1.378407 -0.049177 0.309751 -3.141592
 29 0.000000 0.000000 3.006212 0.930783 0.778878 -3.141592
 30 -3.352225 -2.014409 -1.625205 -3.111551 1.200587 0.000000
 31 0.000000 0.000000 4.228487 1.223637 0.479069 0.953128
 32 0.000000 0.000000 13.042765 -0.026261 0.323012 -3.966830
 33 0.000000 0.000000 7.153650 0.000000 0.000000 0.000000
 34 -1.945980 -0.135012 0.247196 -3.077445 1.523081 0.000000
 35 0.000000 0.000000 1.172377 -0.535111 0.583828 -3.141592
 36 0.000000 0.000000 1.923266 -0.123086 0.631228 0.000000
 37 0.111389 0.206554 2.803840 0.313340 0.079789 -3.141592
 38 0.000000 0.000000 2.609086 0.476630 0.064040 0.000000
 39 0.000000 0.000000 2.388648 0.340473 0.179722 0.000000
time 7
  0 0.192741 17.307259 32.016155 1.570796 0.000000 0.000000
  1 0.000000 -6.750002 -3.510001 0.000000 0.000000 0.000000
  2 3.007735 -0.000004 -0.000002 1.267345 0.218846 0.109707
  3 0.000000 0.000000 12.794512 0.729117 0.470059 -0.230152
  4 0.000000 0.000000 14.050400 -2.247136 1.327062 -6.233459
  5 0.000000 0.000000 6.031133 0.113066 0.523561 0.000000
  6 0.000000 0.000000 0.757964 -0.000001 0.000000 0.000000
  7 0.000000 0.000000 0.757950 -0.000002 0.000000 0.000000
  8 -3.007735 0.000004 0.000005 -0.568913 0.059111 -3.069361
  9 0.000000 0.000000 12.794530 -0.631432 0.996908 0.565332
 10 0.000000 0.000000 13.961749 0.395146 0.990612 -2.497013
 11 0.000000 0.000000 6.030940 -0.114774 0.523252 0.000000
 12 0.000000 0.000000 0.757934 -0.000000 -0.000000 -3.141592
 13 0.000000 0.000000 0.757953 -0.000000 -0.000000 -3.141592
 14 0.000001 1.047682 0.554789 -1.073015 0.005506 0.000863
 15 0.000000 0.000000 4.300853 0.200477 -0.097810 -0.068001
 16 0.000000 0.000000 3.909713 -0.008841 0.024309 -3.141592
 17 0.000000 0.000000 4.692176 0.114524 0.058781 -3.141592
 18 0.000000 0.000000 5.479362 -0.574978 0.021093 0.078859
 19 0.645092 -2.464382 2.019449 -0.149891 0.152327 -0.082524
 20 3.518158 -2.206055 -1.728387 2.911160 1.048239 -3.141592
 21 0.000000 0.000000 4.558179 0.794731 0.784780 0.371997
 22 0.000000 0.000000 11.949879 -0.839872 0.003761 -3.143568
 23 0.000000 0.000000 4.822874 0.686475 0.000000 0.000000
 24 -1.376730 -0.804586 1.281520 -0.659309 1.255116 -3.141592
 25 0.000000 0.000000 1.416892 0.073536 0.071051 -3.141592
 26 0.000000 0.000000 1.920310 0.269862 0.568862 0.000000
 27 0.213890 -0.856740 4.255571 0.528081 0.318569 0.000000
 28 0.000000 0.000000 1.378407 -0.049177 0.309751 -3.141592
 29 0.000000 0.000000 3.006212 0.930783 0.778878 -3.141592
 30 -3.352225 -2.014409 -1.625205 -3.111551 1.200587 0.000000
 31 0.000000 0.000000 4.228487 1.079379 0.638389 0.876306
 32 0.000000 0.000000 13.042765 0.079554 0.322754 -3.794407
 33 0.000000 0.000000 7.153650 0.000000 0.000000 0.000000
 34 -1.945980 -0.135012 0.247196 -3.077445 1.523081 0.000000
 35 0.000000 0.000000 1.172377 -0.535111 0.583828 -3.141592
 36 0.000000 0.000000 1.923266 -0.123086 0.631228 0.000000
 37 0.111389 0.206554 2.803840 0.313340 0.079789 -3.141592
 38 0.000000 0.000000 2.609086 0.476630 0.064040 0.000000
 39 0.000000 0.000000 2.388648 0.340473 0.179722 0.000000
time 8
  0 0.192741 19.807259 32.016155 1.570796 0.000000 0.000000
  1 0.000000 -6.750002 -3.510001 0.000000 0.000000 0.000000
  2 3.007735 -0.000004 -0.000002 1.020778 0.238596 0.053535
  3 0.000000 0.000000 12.794512 0.835941 0.489833 -0.180776
  4 0.000000 0.000000 14.050400 -1.899093 1.406424 -5.828010
  5 0.000000 0.000000 6.031133 0.113066 0.523561 0.000000
  6 0.000000 0.000000 0.757964 -0.000001 0.000000 0.000000
  7 0.000000 0.000000 0.757950 -0.000002 0.000000 0.000000
  8 -3.007735 0.000004 0.000005 -0.610111 0.062047 -3.071854
  9 0.000000 0.000000 12.794530 -0.613568 1.069847 0.613961
 10 0.000000 0.000000 13.961749 0.451137 1.100122 -2.499506
 11 0.000000 0.000000 6.030940 -0.114774 0.523252 0.000000
 12 0.000000 0.000000 0.757934 -0.000000 -0.000000 -3.141592
 13 0.000000 0.000000 0.757953 -0.000000 -0.000000 -3.141592
 14 0.000001 1.047682 0.554789 -1.073015 0.005506 0.000863
 15 0.000000 0.000000 4.300853 0.180187 -0.073745 -0.050227
 16 0.000000 0.000000 3.909713 -0.008841 0.018497 -3.141592
 17 0.000000 0.000000 4.692176 0.114524 0.044232 -3.141592
 18 0.000000 0.000000 5.479362 -0.523006 0.014286 0.059575
 19 0.645092 -2.464382 2.019449 -0.129432 0.154860 -0.061967
 20 3.518158 -2.206055 -1.728387 2.911160 1.048239 -3.141592
 21 0.000000 0.000000 4.558179 0.676267 0.813064 0.287072
 22 0.000000 0.000000 11.949879 -0.717676 0.003994 -3.143098
 23 0.000000 0.000000 4.822874 0.514856 0.000000 0.000000
 24 -1.376730 -0.804586 1.281520 -0.659309 1.255116 -3.141592
 25 0.000000 0.000000 1.416892 0.073536 0.071051 -3.141592
 26 0.000000 0.000000 1.920310 0.269862 0.568862 0.000000
 27 0.213890 -0.856740 4.255571 0.528081 0.318569 0.000000
 28 0.000000 0.000000 1.378407 -0.049177 0.309751 -3.141592
 29 0.000000 0.000000 3.006212 0.930783 0.778878 -3.141592
 30 -3.352225 -2.014409 -1.625205 -3.111551 1.200587 0.000000
 31 0.000000 0.000000 4.228487 0.897967 0.785221 0.757255
 32 0.000000 0.000000 13.042765 0.183488 0.305389 -3.623543
 33 0.000000 0.000000 7.153650 0.000000 0.000000 0.000000
 34 -1.945980 -0.135012 0.247196 -3.077445 1.523081 0.000000
 35 0.000000 0.000000 1.172377 -0.535111 0.583828 -3.141592
 36 0.000000 0.000000 1.923266 -0.123086 0.631228 0.000000
 37 0.111389 0.206554 2.803840 0.313340 0.079789 -3.141592
 38 0.000000 0.000000 2.609086 0.476630 0.064040 0.000000
 39 0.000000 0.000000 2.388648 0.340473 0.179722 0.000000
time 9
  0 0.192741 22.307259 32.016155 1.570796 0.000000 0.000000
  1 0.000000 -6.750002 -3.510001 0.000000 0.000000 0.000000
  2 3.007735 -0.000004 -0.000002 0.772767 0.244337 -0.006064
  3 0.000000 0.000000 12.794512 0.944757 0.504766 -0.128832
  4 0.000000 0.000000 14.050400 -1.206285 1.435283 -5.078066
  5 0.000000 0.000000 6.031133 0.113066 0.523561 0.000000
  6 0.000000 0.000000 0.757964 -0.000001 0.000000 0.000000
  7 0.000000 0.000000 0.757950 -0.000002 0.000000 0.000000
  8 -3.007735 0.000004 0.000005 -0.651350 0.064863 -3.074466
  9 0.000000 0.000000 12.794530 -0.584439 1.142186 0.673329
 10 0.000000 0.000000 13.961749 0.522179 1.209483 -2.485316
 11 0.000000 0.000000 6.030940 -0.114774 0.523252 0.000000
 12 0.000000 0.000000 0.757934 -0.000000 -0.000000 -3.141592
 13 0.000000 0.000000 0.757953 -0.000000 -0.000000 -3.141592
 14 0.000001 1.047682 0.554789 -1.073015 0.005506 0.000863
 15 0.000000 0.000000 4.300853 0.160340 -0.049340 -0.032982
 16 0.000000 0.000000 3.909713 -0.008841 0.012672 -3.141592
 17 0.000000 0.000000 4.692176 0.114524 0.029695 -3.141592
 18 0.000000 0.000000 5.479362 -0.470952 0.008485 0.039981
 19 0.645092 -2.464382 2.019449 -0.108936 0.156968 -0.041356
 20 3.518158 -2.206055 -1.728387 2.911160 1.048239 -3.141592
 21 0.000000 0.000000 4.558179 0.551577 0.833968 0.195578
 22 0.000000 0.000000 11.949879 -0.595527 0.004149 -3.142596
 23 0.000000 0.000000 4.822874 0.343238 0.000000 0.000000
 24 -1.376730 -0.804586 1.281520 -0.659309 1.255116 -3.141592
 25 0.000000 0.000000 1.416892 0.073536 0.071051 -3.141592
 26 0.000000 0.000000 1.920310 0.269862 0.568862 0.000000
 27 0.213890 -0.856740 4.255571 0.528081 0.318569 0.000000
 28 0.000000 0.000000 1.378407 -0.049177 0.309751 -3.141592
 29 0.000000 0.000000 3.006212 0.930783 0.778878 -3.141592
 30 -3.352225 -2.014409 -1.625205 -3.111551 1.200587 0.000000
 31 0.000000 0.000000 4.228487 0.659570 0.910233 0.577825
 32 0.000000 0.000000 13.042765 0.282073 0.271646 -3.456661
 33 0.000000 0.000000 7.153650 0.000000 0.000000 0.000000
 34 -1.945980 -0.135012 0.247196 -3.077445 1.523081 0.000000
 35 0.000000 0.000000 1.172377 -0.535111 0.583828 -3.141592
 36 0.000000 0.000000 1.923266 -0.123086 0.631228 0.000000
 37 0.111389 0.206554 2.803840 0.313340 0.079789 -3.141592
 38 0.000000 0.000000 2.609086 0.476630 0.064040 0.000000
 39 0.000000 0.000000 2.388648 0.340473 0.179722 0.000000
time 10
  0 0.192741 24.807259 32.016155 1.570796 0.000000 0.000000
  1 0.000000 -6.750002 -3.510001 0.000000 0.000000 0.000000
  2 3.007735 -0.000004 -0.000002 0.524869 0.235708 -0.065280
  3 0.000000 0.000000 12.794512 1.055057 0.514629 -0.074961
  4 0.000000 0.000000 14.050400 -0.599341 1.387860 -4.413987
  5 0.000000 0.000000 6.031133 0.113066 0.523561 0.000000
  6 0.000000 0.000000 0.757964 -0.000001 0.000000 0.000000
  7 0.000000 0.000000 0.757950 -0.000002 0.000000 0.000000
  8 -3.007735 0.000004 0.000005 -0.692631 0.067572 -3.077199
  9 0.000000 0.000000 12.794530 -0.537557 1.213475 0.749943
 10 0.000000 0.000000 13.961749 0.628982 1.317951 -2.434406
 11 0.000000 0.000000 6.030940 -0.114774 0.523252 0.000000
 12 0.000000 0.000000 0.757934 -0.000000 -0.000000 -3.141592
 13 0.000000 0.000000 0.757953 -0.000000 -0.000000 -3.141592
 14 0.000001 1.047682 0.554789 -1.073015 0.005506 0.000863
 15 0.000000 0.000000 4.300853 0.140949 -0.024577 -0.016227
 16 0.000000 0.000000 3.909713 -0.008841 0.006860 -3.141592
 17 0.000000 0.000000 4.692176 0.114524 0.015145 -3.141592
 18 0.000000 0.000000 5.479362 -0.418774 0.003715 0.020098
 19 0.645092 -2.464382 2.019449 -0.088362 0.158666 -0.020691
 20 3.518158 -2.206055 -1.728387 2.911160 1.048239 -3.141592
 21 0.000000 0.000000 4.558179 0.422099 0.846805 0.099079
 22 0.000000 0.000000 11.949879 -0.473331 0.004227 -3.142094
 23 0.000000 0.000000 4.822874 0.171619 0.000000 0.000000
 24 -1.376730 -0.804586 1.281520 -0.659309 1.255116 -3.141592
 25 0.000000 0.000000 1.416892 0.073536 0.071051 -3.141592
 26 0.000000 0.000000 1.920310 0.269862 0.568862 0.000000
 27 0.213890 -0.856740 4.255571 0.528081 0.318569 0.000000
 28 0.000000 0.000000 1.378407 -0.049177 0.309751 -3.141592
 29 0.000000 0.000000 3.006212 0.930783 0.778878 -3.141592
 30 -3.352225 -2.014409 -1.625205 -3.111551 1.200587 0.000000
 31 0.000000 0.000000 4.228487 0.346157 0.998453 0.321213
 32 0.000000 0.000000 13.042765 0.372588 0.222902 -3.295722
 33 0.000000 0.000000 7.153650 0.000000 0.000000 0.000000
 34 -1.945980 -0.135012 0.247196 -3.077445 1.523081 0.000000
 35 0.000000 0.000000 1.172377 -0.535111 0.583828 -3.141592
 36 0.000000 0.000000 1.923266 -0.123086 0.631228 0.000000
 37 0.111389 0.206554 2.803840 0.313340 0.079789 -3.141592
 38 0.000000 0.000000 2.609086 0.476630 0.064040 0.000000
 39 0.000000 0.000000 2.388648 0.340473 0.179722 0.000000
time 11
  0 0.192741 27.307259 32.016155 1.570796 0.000000 0.000000
  1 0.000000 -6.750002 -3.510001 0.000000 0.000000 0.000000
  2 3.007735 -0.000004 -0.000002 0.278796 0.213261 -0.120313
  3 0.000000 0.000000 12.794512 1.166298 0.519219 -0.019952
  4 0.000000 0.000000 14.050400 -0.323584 1.301954 -4.080626
  5 0.000000 0.000000 6.031133 0.113066 0.523561 0.000000
  6 0.000000 0.000000 0.757964 -0.000001 0.000000 0.000000
  7 0.000000 0.000000 0.757950 -0.000002 0.000000 0.000000
  8 -3.007735 0.000004 0.000005 -0.733871 0.070172 -3.080040
  9 0.000000 0.000000 12.794530 -0.460656 1.282855 0.856216
 10 0.000000 0.000000 13.961749 0.848917 1.422773 -2.269498
 11 0.000000 0.000000 6.030940 -0.114774 0.523252 0.000000
 12 0.000000 0.000000 0.757934 -0.000000 -0.000000 -3.141592
 13 0.000000 0.000000 0.757953 -0.000000 -0.000000 -3.141592
 14 0.000001 1.047682 0.554789 -1.073015 0.005506 0.000863
 15 0.000000 0.000000 4.300853 0.121966 0.000476 0.000024
 16 0.000000 0.000000 3.909713 -0.008841 0.001047 -3.141592
 17 0.000000 0.000000 4.692176 0.114524 0.000608 -3.141592
 18 0.000000 0.000000 5.479362 -0.366512 0.000000 0.000000
 19 0.645092 -2.464382 2.019449 -0.067789 0.159939 0.000000
 20 3.518158 -2.206055 -1.728387 2.911160 1.048239 -3.141592
 21 0.000000 0.000000 4.558179 0.290227 0.851123 0.000000
 22 0.000000 0.000000 11.949879 -0.351181 0.004253 -3.141592
 23 0.000000 0.000000 4.822874 0.000000 0.000000 0.000000
 24 -1.376730 -0.804586 1.281520 -0.659309 1.255116 -3.141592
 25 0.000000 0.000000 1.416892 0.073536 0.071051 -3.141592
 26 0.000000 0.000000 1.920310 0.269862 0.568862 0.000000
 27 0.213890 -0.856740 4.255571 0.528081 0.318569 0.000000
 28 0.000000 0.000000 1.378407 -0.049177 0.309751 -3.141592
 29 0.000000 0.000000 3.006212 0.930783 0.778878 -3.141592
 30 -3.352225 -2.014409 -1.625205 -3.111551 1.200587 0.000000
 31 0.000000 0.000000 4.228487 -0.030722 1.031015 0.000000
 32 0.000000 0.000000 13.042765 0.453051 0.161047 -3.141592
 33 0.000000 0.000000 7.153650 0.000000 0.000000 0.000000
 34 -1.945980 -0.135012 0.247196 -3.077445 1.523081 0.000000
 35 0.000000 0.000000 1.172377 -0.535111 0.583828 -3.141592
 36 0.000000 0.000000 1.923266 -0.123086 0.631228 0.000000
 37 0.111389 0.206554 2.803840 0.313340 0.079789 -3.141592
 38 0.000000 0.000000 2.609086 0.476630 0.064040 0.000000
 39 0.000000 0.000000 2.388648 0.340473 0.179722 0.000000
time 12
  0 0.192741 29.807259 32.016155 1.570796 0.000000 0.000000
  1 0.000000 -6.750002 -3.510001 0.000000 0.000000 0.000000
  2 3.007735 -0.000004 -0.000002 0.321664 0.218139 -0.111133
  3 0.000000 0.000000 12.794512 1.127781 0.518237 -0.039042
  4 0.000000 0.000000 14.050400 -0.286130 1.319967 -4.060434
  5 0.000000 0.000000 6.031133 0.113066 0.523561 0.000000
  6 0.000000 0.000000 0.757964 -0.000001 0.000000 0.000000
  7 0.000000 0.000000 0.757950 -0.000002 0.000000 0.000000
  8 -3.007735 0.000004 0.000005 -0.902760 0.079508 -3.092695
  9 0.000000 0.000000 12.794530 -0.429414 1.186889 0.846313
 10 0.000000 0.000000 13.961749 1.377661 1.459983 -1.662119
 11 0.000000 0.000000 6.030940 -0.114774 0.523252 0.000000
 12 0.000000 0.000000 0.757934 -0.000000 -0.000000 -3.141592
 13 0.000000 0.000000 0.757953 -0.000000 -0.000000 -3.141592
 14 0.000001 1.047682 0.554789 -1.073015 0.005506 0.000863
 15 0.000000 0.000000 4.300853 0.121978 0.026653 0.000024
 16 0.000000 0.000000 3.909713 -0.008841 -0.007678 -3.141592
 17 0.000000 0.000000 4.692176 0.114524 0.000608 -3.141592
 18 0.000000 0.000000 5.479362 -0.366740 -0.023262 0.002900
 19 0.645092 -2.464382 2.019449 -0.088401 0.159912 -0.003266
 20 3.518158 -2.206055 -1.728387 2.911160 1.048239 -3.141592
 21 0.000000 0.000000 4.558179 0.233916 0.881703 0.140916
 22 0.000000 0.000000 11.949879 -0.495156 0.031998 -3.215054
 23 0.000000 0.000000 4.822874 0.000000 0.000000 0.000000
 24 -1.376730 -0.804586 1.281520 -0.659309 1.255116 -3.141592
 25 0.000000 0.000000 1.416892 0.073536 0.071051 -3.141592
 26 0.000000 0.000000 1.920310 0.269862 0.568862 0.000000
 27 0.213890 -0.856740 4.255571 0.528081 0.318569 0.000000
 28 0.000000 0.000000 1.378407 -0.049177 0.309751 -3.141592
 29 0.000000 0.000000 3.006212 0.930783 0.778878 -3.141592
 30 -3.352225 -2.014409 -1.625205 -3.111551 1.200587 0.000000
 31 0.000000 0.000000 4.228487 -0.035920 1.040683 0.013388
 32 0.000000 0.000000 13.042765 0.640468 0.189761 -3.153075
 33 0.000000 0.000000 7.153650 -0.127962 0.000000 0.000000
 34 -1.945980 -0.135012 0.247196 -3.077445 1.523081 0.000000
 35 0.000000 0.000000 1.172377 -0.535111 0.583828 -3.141592
 36 0.000000 0.000000 1.923266 -0.123086 0.631228 0.000000
 37 0.111389 0.206554 2.803840 0.313340 0.079789 -3.141592
 38 0.000000 0.000000 2.609086 0.476630 0.064040 0.000000
 39 0.000000 0.000000 2.388648 0.340473 0.179722 0.000000
time 13
  0 0.192741 32.307259 32.016155 1.570796 0.000000 0.000000
  1 0.000000 -6.750002 -3.510001 0.000000 0.000000 0.000000
  2 3.007735 -0.000004 -0.000002 0.364646 0.222609 -0.101737
  3 0.000000 0.000000 12.794512 1.089337 0.516619 -0.058060
  4 0.000000 0.000000 14.050400 -0.244275 1.337752 -4.035807
  5 0.000000 0.000000 6.031133 0.113066 0.523561 0.000000
  6 0.000000 0.000000 0.757964 -0.000001 0.000000 0.000000
  7 0.000000 0.000000 0.757950 -0.000002 0.000000 0.000000
  8 -3.007735 0.000004 0.000005 -1.071941 0.086591 -3.106765
  9 0.000000 0.000000 12.794530 -0.402026 1.091030 0.831810
 10 0.000000 0.000000 13.961749 2.027877 1.445657 -0.933264
 11 0.000000 0.000000 6.030940 -0.114774 0.523252 0.000000
 12 0.000000 0.000000 0.757934 -0.000000 -0.000000 -3.141592
 13 0.000000 0.000000 0.757953 -0.000000 -0.000000 -3.141592
 14 0.000001 1.047682 0.554789 -1.073015 0.005506 0.000863
 15 0.000000 0.000000 4.300853 0.121978 0.052830 0.000024
 16 0.000000 0.000000 3.909713 -0.008841 -0.016403 -3.141592
 17 0.000000 0.000000 4.692176 0.114524 0.000608 -3.141592
 18 0.000000 0.000000 5.479362 -0.367051 -0.046536 0.005813
 19 0.645092 -2.464382 2.019449 -0.109031 0.159806 -0.006558
 20 3.518158 -2.206055 -1.728387 2.911160 1.048239 -3.141592
 21 0.000000 0.000000 4.558179 0.182871 0.917152 0.284804
 22 0.000000 0.000000 11.949879 -0.640893 0.048863 -3.291809
 23 0.000000 0.000000 4.822874 0.000000 0.000000 0.000000
 24 -1.376730 -0.804586 1.281520 -0.659309 1.255116 -3.141592
 25 0.000000 0.000000 1.416892 0.073536 0.071051 -3.141592
 26 0.000000 0.000000 1.920310 0.269862 0.568862 0.000000
 27 0.213890 -0.856740 4.255571 0.528081 0.318569 0.000000
 28 0.000000 0.000000 1.378407 -0.049177 0.309751 -3.141592
 29 0.000000 0.000000 3.006212 0.930783 0.778878 -3.141592
 30 -3.352225 -2.014409 -1.625205 -3.111551 1.200587 0.000000
 31 0.000000 0.000000 4.228487 -0.040989 1.050418 0.026865
 32 0.000000 0.000000 13.042765 0.828726 0.220151 -3.158962
 33 0.000000 0.000000 7.153650 -0.255954 0.000000 0.000000
 34 -1.945980 -0.135012 0.247196 -3.077445 1.523081 0.000000
 35 0.000000 0.000000 1.172377 -0.535111 0.583828 -3.141592
 36 0.000000 0.000000 1.923266 -0.123086 0.631228 0.000000
 37 0.111389 0.206554 2.803840 0.313340 0.079789 -3.141592
 38 0.000000 0.000000 2.609086 0.476630 0.064040 0.000000
 39 0.000000 0.000000 2.388648 0.340473 0.179722 0.000000
time 14
  0 0.192741 34.807259 32.016155 1.570796 0.000000 0.000000
  1 0.000000 -6.750002 -3.510001 0.000000 0.000000 0.000000
  2 3.007735 -0.000004 -0.000002 0.407704 0.226696 -0.092150
  3 0.000000 0.000000 12.794512 1.050966 0.514354 -0.076975
  4 0.000000 0.000000 14.050400 -0.197083 1.355274 -4.005802
  5 0.000000 0.000000 6.031133 0.113066 0.523561 0.000000
  6 0.000000 0.000000 0.757964 -0.000001 0.000000 0.000000
  7 0.000000 0.000000 0.757950 -0.000002 0.000000 0.000000
  8 -3.007735 0.000004 0.000005 -1.241249 0.091205 -3.121830
  9 0.000000 0.000000 12.794530 -0.376232 0.995365 0.814695
 10 0.000000 0.000000 13.961749 -3.889454 1.391814 -0.488684
 11 0.000000 0.000000 6.030940 -0.114774 0.523252 0.000000
 12 0.000000 0.000000 0.757934 -0.000000 -0.000000 -3.141592
 13 0.000000 0.000000 0.757953 -0.000000 -0.000000 -3.141592
 14 0.000001 1.047682 0.554789 -1.073015 0.005506 0.000863
 15 0.000000 0.000000 4.300853 0.121978 0.079006 0.000024
 16 0.000000 0.000000 3.909713 -0.008841 -0.025127 -3.141592
 17 0.000000 0.000000 4.692176 0.114524 0.000608 -3.141592
 18 0.000000 0.000000 5.479362 -0.367424 -0.069798 0.008737
 19 0.645092 -2.464382 2.019449 -0.129662 0.159647 -0.009824
 20 3.518158 -2.206055 -1.728387 2.911160 1.048239 -3.141592
 21 0.000000 0.000000 4.558179 0.138531 0.956859 0.432915
 22 0.000000 0.000000 11.949879 -0.787602 0.054355 -3.370258
 23 0.000000 0.000000 4.822874 0.000000 0.000000 0.000000
 24 -1.376730 -0.804586 1.281520 -0.659309 1.255116 -3.141592
 25 0.000000 0.000000 1.416892 0.073536 0.071051 -3.141592
 26 0.000000 0.000000 1.920310 0.269862 0.568862 0.000000
 27 0.213890 -0.856740 4.255571 0.528081 0.318569 0.000000
 28 0.000000 0.000000 1.378407 -0.049177 0.309751 -3.141592
 29 0.000000 0.000000 3.006212 0.930783 0.778878 -3.141592
 30 -3.352225 -2.014409 -1.625205 -3.111551 1.200587 0.000000
 31 0.000000 0.000000 4.228487 -0.045866 1.060153 0.040522
 32 0.000000 0.000000 13.042765 1.018173 0.251056 -3.158904
 33 0.000000 0.000000 7.153650 -0.383946 0.000000 0.000000
 34 -1.945980 -0.135012 0.247196 -3.077445 1.523081 0.000000
 35 0.000000 0.000000 1.172377 -0.535111 0.583828 -3.141592
 36 0.000000 0.000000 1.923266 -0.123086 0.631228 0.000000
 37 0.111389 0.206554 2.803840 0.313340 0.079789 -3.141592
 38 0.000000 0.000000 2.609086 0.476630 0.064040 0.000000
 39 0.000000 0.000000 2.388648 0.340473 0.179722 0.000000
time 15
  0 0.192741 37.307259 32.016155 1.570796 0.000000 0.000000
  1 0.000000 -6.750002 -3.510001 0.000000 0.000000 0.000000
  2 3.007735 -0.000004 -0.000002 0.450876 0.230375 -0.082370
  3 0.000000 0.000000 12.794512 1.012739 0.511465 -0.095745
  4 0.000000 0.000000 14.050400 -0.143055 1.372424 -3.969002
  5 0.000000 0.000000 6.031133 0.113066 0.523561 0.000000
  6 0.000000 0.000000 0.757964 -0.000001 0.000000 0.000000
  7 0.000000 0.000000 0.757950 -0.000002 0.000000 0.000000
  8 -3.007735 0.000004 0.000005 -1.410681 0.093219 -3.137470
  9 0.000000 0.000000 12.794530 -0.351031 0.899956 0.795750
 10 0.000000 0.000000 13.961749 -3.728194 1.323161 -0.248129
 11 0.000000 0.000000 6.030940 -0.114774 0.523252 0.000000
 12 0.000000 0.000000 0.757934 -0.000000 -0.000000 -3.141592
 13 0.000000 0.000000 0.757953 -0.000000 -0.000000 -3.141592
 14 0.000001 1.047682 0.554789 -1.073015 0.005506 0.000863
 15 0.000000 0.000000 4.300853 0.121978 0.105183 0.000024
 16 0.000000 0.000000 3.909713 -0.008841 -0.033852 -3.141592
 17 0.000000 0.000000 4.692176 0.114524 0.000608 -3.141592
 18 0.000000 0.000000 5.479362 -0.367858 -0.093072 0.011685
 19 0.645092 -2.464382 2.019449 -0.150274 0.159409 -0.013116
 20 3.518158 -2.206055 -1.728387 2.911160 1.048239 -3.141592
 21 0.000000 0.000000 4.558179 0.102714 1.000041 0.587047
 22 0.000000 0.000000 11.949879 -0.934265 0.048319 -3.448675
 23 0.000000 0.000000 4.822874 0.000000 0.000000 0.000000
 24 -1.376730 -0.804586 1.281520 -0.659309 1.255116 -3.141592
 25 0.000000 0.000000 1.416892 0.073536 0.071051 -3.141592
 26 0.000000 0.000000 1.920310 0.269862 0.568862 0.000000
 27 0.213890 -0.856740 4.255571 0.528081 0.318569 0.000000
 28 0.000000 0.000000 1.378407 -0.049177 0.309751 -3.141592
 29 0.000000 0.000000 3.006212 0.930783 0.778878 -3.141592
 30 -3.352225 -2.014409 -1.625205 -3.111551 1.200587 0.000000
 31 0.000000 0.000000 4.228487 -0.050551 1.069955 0.054269
 32 0.000000 0.000000 13.042765 1.209254 0.281403 -3.152787
 33 0.000000 0.000000 7.153650 -0.511938 0.000000 0.000000
 34 -1.945980 -0.135012 0.247196 -3.077445 1.523081 0.000000
 35 0.000000 0.000000 1.172377 -0.535111 0.583828 -3.141592
 36 0.000000 0.000000 1.923266 -0.123086 0.631228 0.000000
 37 0.111389 0.206554 2.803840 0.313340 0.079789 -3.141592
 38 0.000000 0.000000 2.609086 0.476630 0.064040 0.000000
 39 0.000000 0.000000 2.388648 0.340473 0.179722 0.000000
time 16
  0 0.192741 39.807259 32.016155 1.570796 0.000000 0.000000
  1 0.000000 -6.750002 -3.510001 0.000000 0.000000 0.000000
  2 3.007735 -0.000004 -0.000002 0.494086 0.233635 -0.072435
  3 0.000000 0.000000 12.794512 0.974621 0.507966 -0.114339
  4 0.000000 0.000000 14.050400 -0.080694 1.389118 -3.923806
  5 0.000000 0.000000 6.031133 0.113066 0.523561 0.000000
  6 0.000000 0.000000 0.757964 -0.000001 0.000000 0.000000
  7 0.000000 0.000000 0.757950 -0.000002 0.000000 0.000000
  8 -3.007735 0.000004 0.000005 -1.580114 0.092596 -3.153217
  9 0.000000 0.000000 12.794530 -0.325866 0.804870 0.775316
 10 0.000000 0.000000 13.961749 -3.656384 1.249410 -0.096356
 11 0.000000 0.000000 6.030940 -0.114774 0.523252 0.000000
 12 0.000000 0.000000 0.757934 -0.000000 -0.000000 -3.141592
 13 0.000000 0.000000 0.757953 -0.000000 -0.000000 -3.141592
 14 0.000001 1.047682 0.554789 -1.073015 0.005506 0.000863
 15 0.000000 0.000000 4.300853 0.121978 0.131360 0.000024
 16 0.000000 0.000000 3.909713 -0.008841 -0.042577 -3.141592
 17 0.000000 0.000000 4.692176 0.114524 0.000608 -3.141592
 18 0.000000 0.000000 5.479362 -0.368376 -0.116334 0.014645
 19 0.645092 -2.464382 2.019449 -0.170905 0.159104 -0.016382
 20 3.518158 -2.206055 -1.728387 2.911160 1.048239 -3.141592
 21 0.000000 0.000000 4.558179 0.077910 1.045853 0.749781
 22 0.000000 0.000000 11.949879 -1.079955 0.030962 -3.525336
 23 0.000000 0.000000 4.822874 0.000000 0.000000 0.000000
 24 -1.376730 -0.804586 1.281520 -0.659309 1.255116 -3.141592
 25 0.000000 0.000000 1.416892 0.073536 0.071051 -3.141592
 26 0.000000 0.000000 1.920310 0.269862 0.568862 0.000000
 27 0.213890 -0.856740 4.255571 0.528081 0.318569 0.000000
 28 0.000000 0.000000 1.378407 -0.049177 0.309751 -3.141592
 29 0.000000 0.000000 3.006212 0.930783 0.778878 -3.141592
 30 -3.352225 -2.014409 -1.625205 -3.111551 1.200587 0.000000
 31 0.000000 0.000000 4.228487 -0.054979 1.079825 0.068286
 32 0.000000 0.000000 13.042765 1.402217 0.310031 -3.140785
 33 0.000000 0.000000 7.153650 -0.639930 0.000000 0.000000
 34 -1.945980 -0.135012 0.247196 -3.077445 1.523081 0.000000
 35 0.000000 0.000000 1.172377 -0.535111 0.583828 -3.141592
 36 0.000000 0.000000 1.923266 -0.123086 0.631228 0.000000
 37 0.111389 0.206554 2.803840 0.313340 0.079789 -3.141592
 38 0.000000 0.000000 2.609086 0.476630 0.064040 0.000000
 39 0.000000 0.000000 2.388648 0.340473 0.179722 0.000000
time 17
  0 0.192741 42.307259 32.016155 1.570796 0.000000 0.000000
  1 0.000000 -6.750002 -3.510001 0.000000 0.000000 0.000000
  2 3.007735 -0.000004 -0.000002 0.537335 0.236475 -0.062356
  3 0.000000 0.000000 12.794512 0.936648 0.503843 -0.132729
  4 0.000000 0.000000 14.050400 -0.007752 1.405190 -3.867947
  5 0.000000 0.000000 6.031133 0.113066 0.523561 0.000000
  6 0.000000 0.000000 0.757964 -0.000001 0.000000 0.000000
  7 0.000000 0.000000 0.757950 -0.000002 0.000000 0.000000
  8 -3.007735 0.000004 0.000005 -1.749505 0.089324 -3.168629
  9 0.000000 0.000000 12.794530 -0.300294 0.710126 0.753497
 10 0.000000 0.000000 13.961749 -3.627047 1.173650 -6.269091
 11 0.000000 0.000000 6.030940 -0.114774 0.523252 0.000000
 12 0.000000 0.000000 0.757934 -0.000000 -0.000000 -3.141592
 13 0.000000 0.000000 0.757953 -0.000000 -0.000000 -3.141592
 14 0.000001 1.047682 0.554789 -1.073015 0.005506 0.000863
 15 0.000000 0.000000 4.300853 0.121978 0.157554 0.000024
 16 0.000000 0.000000 3.909713 -0.008841 -0.051302 -3.141592
 17 0.000000 0.000000 4.692176 0.114524 0.000608 -3.141592
 18 0.000000 0.000000 5.479362 -0.368956 -0.139597 0.017617
 19 0.645092 -2.464382 2.019449 -0.191516 0.158745 -0.019647
 20 3.518158 -2.206055 -1.728387 2.911160 1.048239 -3.141592
 21 0.000000 0.000000 4.558179 0.067376 1.093176 0.924401
 22 0.000000 0.000000 11.949879 -1.223837 0.002750 -3.598609
 23 0.000000 0.000000 4.822874 0.000000 0.000000 0.000000
 24 -1.376730 -0.804586 1.281520 -0.659309 1.255116 -3.141592
 25 0.000000 0.000000 1.416892 0.073536 0.071051 -3.141592
 26 0.000000 0.000000 1.920310 0.269862 0.568862 0.000000
 27 0.213890 -0.856740 4.255571 0.528081 0.318569 0.000000
 28 0.000000 0.000000 1.378407 -0.049177 0.309751 -3.141592
 29 0.000000 0.000000 3.006212 0.930783 0.778878 -3.141592
 30 -3.352225 -2.014409 -1.625205 -3.111551 1.200587 0.000000
 31 0.000000 0.000000 4.228487 -0.059278 1.089694 0.082392
 32 0.000000 0.000000 13.042765 1.597309 0.335951 -3.122954
 33 0.000000 0.000000 7.153650 -0.767922 0.000000 0.000000
 34 -1.945980 -0.135012 0.247196 -3.077445 1.523081 0.000000
 35 0.000000 0.000000 1.172377 -0.535111 0.583828 -3.141592
 36 0.000000 0.000000 1.923266 -0.123086 0.631228 0.000000
 37 0.111389 0.206554 2.803840 0.313340 0.079789 -3.141592
 38 0.000000 0.000000 2.609086 0.476630 0.064040 0.000000
 39 0.000000 0.000000 2.388648 0.340473 0.179722 0.000000
time 18
  0 0.192741 44.807259 32.016155 1.570796 0.000000 0.000000
  1 0.000000 -6.750002 -3.510001 0.000000 0.000000 0.000000
  2 3.007735 -0.000004 -0.000002 0.580659 0.238896 -0.052157
  3 0.000000 0.000000 12.794512 0.981246 0.508613 -0.111128
  4 0.000000 0.000000 14.050400 0.078673 1.420446 -3.798689
  5 0.000000 0.000000 6.031133 0.113066 0.523561 0.000000
  6 0.000000 0.000000 0.757964 -0.000001 0.000000 0.000000
  7 0.000000 0.000000 0.757950 -0.000002 0.000000 0.000000
  8 -3.007735 0.000004 0.000005 -1.504160 0.093207 -3.146158
  9 0.000000 0.000000 12.794530 -0.442237 0.717866 0.633376
 10 0.000000 0.000000 13.961749 1.905734 1.351515 -0.700092
 11 0.000000 0.000000 6.030940 -0.114774 0.523252 0.000000
 12 0.000000 0.000000 0.757934 -0.000000 -0.000000 -3.141592
 13 0.000000 0.000000 0.757953 -0.000000 -0.000000 -3.141592
 14 0.000001 1.047682 0.554789 -1.073015 0.005506 0.000863
 15 0.000000 0.000000 4.300853 0.121978 0.131360 0.000024
 16 0.000000 0.000000 3.909713 -0.008841 -0.042577 -3.141592
 17 0.000000 0.000000 4.692176 0.114524 0.000608 -3.141592
 18 0.000000 0.000000 5.479362 -0.368376 -0.116334 0.014645
 19 0.645092 -2.464382 2.019449 -0.170905 0.159104 -0.016382
 20 3.518158 -2.206055 -1.728387 2.911160 1.048239 -3.141592
 21 0.000000 0.000000 4.558179 0.077910 1.045853 0.749781
 22 0.000000 0.000000 11.949879 -1.079955 0.030962 -3.525336
 23 0.000000 0.000000 4.822874 0.000000 0.000000 0.000000
 24 -1.376730 -0.804586 1.281520 -0.659309 1.255116 -3.141592
 25 0.000000 0.000000 1.416892 0.073536 0.071051 -3.141592
 26 0.000000 0.000000 1.920310 0.269862 0.568862 0.000000
 27 0.213890 -0.856740 4.255571 0.528081 0.318569 0.000000
 28 0.000000 0.000000 1.378407 -0.049177 0.309751 -3.141592
 29 0.000000 0.000000 3.006212 0.930783 0.778878 -3.141592
 30 -3.352225 -2.014409 -1.625205 -3.111551 1.200587 0.000000
 31 0.000000 0.000000 4.228487 -0.054979 1.079825 0.068286
 32 0.000000 0.000000 13.042765 1.402217 0.310031 -3.140785
 33 0.000000 0.000000 7.153650 -0.639930 0.000000 0.000000
 34 -1.945980 -0.135012 0.247196 -3.077445 1.523081 0.000000
 35 0.000000 0.000000 1.172377 -0.535111 0.583828 -3.141592
 36 0.000000 0.000000 1.923266 -0.123086 0.631228 0.000000
 37 0.111389 0.206554 2.803840 0.313340 0.079789 -3.141592
 38 0.000000 0.000000 2.609086 0.476630 0.064040 0.000000
 39 0.000000 0.000000 2.388648 0.340473 0.179722 0.000000
time 19
  0 0.192741 47.307259 32.016155 1.570796 0.000000 0.000000
  1 0.000000 -6.750002 -3.510001 0.000000 0.000000 0.000000
  2 3.007735 -0.000004 -0.000002 0.624059 0.240874 -0.041850
  3 0.000000 0.000000 12.794512 1.026025 0.512544 -0.089235
  4 0.000000 0.000000 14.050400 0.181859 1.434612 -3.712542
  5 0.000000 0.000000 6.031133 0.113066 0.523561 0.000000
  6 0.000000 0.000000 0.757964 -0.000001 0.000000 0.000000
  7 0.000000 0.000000 0.757950 -0.000002 0.000000 0.000000
  8 -3.007735 0.000004 0.000005 -1.258773 0.091529 -3.123424
  9 0.000000 0.000000 12.794530 -0.584550 0.712656 0.512888
 10 0.000000 0.000000 13.961749 0.805198 1.271029 -1.764707
 11 0.000000 0.000000 6.030940 -0.114774 0.523252 0.000000
 12 0.000000 0.000000 0.757934 -0.000000 -0.000000 -3.141592
 13 0.000000 0.000000 0.757953 -0.000000 -0.000000 -3.141592
 14 0.000001 1.047682 0.554789 -1.073015 0.005506 0.000863
 15 0.000000 0.000000 4.300853 0.121978 0.105183 0.000024
 16 0.000000 0.000000 3.909713 -0.008841 -0.033852 -3.141592
 17 0.000000 0.000000 4.692176 0.114524 0.000608 -3.141592
 18 0.000000 0.000000 5.479362 -0.367858 -0.093072 0.011685
 19 0.645092 -2.464382 2.019449 -0.150274 0.159409 -0.013116
 20 3.518158 -2.206055 -1.728387 2.911160 1.048239 -3.141592
 21 0.000000 0.000000 4.558179 0.102714 1.000041 0.587047
 22 0.000000 0.000000 11.949879 -0.934265 0.048319 -3.448675
 23 0.000000 0.000000 4.822874 0.000000 0.000000 0.000000
 24 -1.376730 -0.804586 1.281520 -0.659309 1.255116 -3.141592
 25 0.000000 0.000000 1.416892 0.073536 0.071051 -3.141592
 26 0.000000 0.000000 1.920310 0.269862 0.568862 0.000000
 27 0.213890 -0.856740 4.255571 0.528081 0.318569 0.000000
 28 0.000000 0.000000 1.378407 -0.049177 0.309751 -3.141592
 29 0.000000 0.000000 3.006212 0.930783 0.778878 -3.141592
 30 -3.352225 -2.014409 -1.625205 -3.111551 1.200587 0.000000
 31 0.000000 0.000000 4.228487 -0.050551 1.069955 0.054269
 32 0.000000 0.000000 13.042765 1.209254 0.281403 -3.152787
 33 0.000000 0.000000 7.153650 -0.511938 0.000000 0.000000
 34 -1.945980 -0.135012 0.247196 -3.077445 1.523081 0.000000
 35 0.000000 0.000000 1.172377 -0.535111 0.583828 -3.141592
 36 0.000000 0.000000 1.923266 -0.123086 0.631228 0.000000
 37 0.111389 0.206554 2.803840 0.313340 0.079789 -3.141592
 38 0.000000 0.000000 2.609086 0.476630 0.064040 0.000000
 39 0.000000 0.000000 2.388648 0.340473 0.179722 0.000000
time 20
  0 0.192741 49.807259 32.016155 1.570796 0.000000 0.000000
  1 0.000000 -6.750002 -3.510001 0.000000 0.000000 0.000000
  2 3.007735 -0.000004 -0.000002 0.667459 0.242420 -0.031460
  3 0.000000 0.000000 12.794512 1.070984 0.515612 -0.067123
  4 0.000000 0.000000 14.050400 0.305739 1.447291 -3.605825
  5 0.000000 0.000000 6.031133 0.113066 0.523561 0.000000
  6 0.000000 0.000000 0.757964 -0.000001 0.000000 0.000000
  7 0.000000 0.000000 0.757950 -0.000002 0.000000 0.000000
  8 -3.007735 0.000004 0.000005 -1.013596 0.084410 -3.101779
  9 0.000000 0.000000 12.794530 -0.723638 0.694710 0.395719
 10 0.000000 0.000000 13.961749 0.410198 1.038836 -2.122710
 11 0.000000 0.000000 6.030940 -0.114774 0.523252 0.000000
 12 0.000000 0.000000 0.757934 -0.000000 -0.000000 -3.141592
 13 0.000000 0.000000 0.757953 -0.000000 -0.000000 -3.141592
 14 0.000001 1.047682 0.554789 -1.073015 0.005506 0.000863
 15 0.000000 0.000000 4.300853 0.121978 0.079006 0.000024
 16 0.000000 0.000000 3.909713 -0.008841 -0.025127 -3.141592
 17 0.000000 0.000000 4.692176 0.114524 0.000608 -3.141592
 18 0.000000 0.000000 5.479362 -0.367424 -0.069798 0.008737
 19 0.645092 -2.464382 2.019449 -0.129662 0.159647 -0.009824
 20 3.518158 -2.206055 -1.728387 2.911160 1.048239 -3.141592
 21 0.000000 0.000000 4.558179 0.138531 0.956859 0.432915
 22 0.000000 0.000000 11.949879 -0.787602 0.054355 -3.370258
 23 0.000000 0.000000 4.822874 0.000000 0.000000 0.000000
 24 -1.376730 -0.804586 1.281520 -0.659309 1.255116 -3.141592
 25 0.000000 0.000000 1.416892 0.073536 0.071051 -3.141592
 26 0.000000 0.000000 1.920310 0.269862 0.568862 0.000000
 27 0.213890 -0.856740 4.255571 0.528081 0.318569 0.000000
 28 0.000000 0.000000 1.378407 -0.049177 0.309751 -3.141592
 29 0.000000 0.000000 3.006212 0.930783 0.778878 -3.141592
 30 -3.352225 -2.014409 -1.625205 -3.111551 1.200587 0.000000
 31 0.000000 0.000000 4.228487 -0.045866 1.060153 0.040522
 32 0.000000 0.000000 13.042765 1.018173 0.251056 -3.158904
 33 0.000000 0.000000 7.153650 -0.383946 0.000000 0.000000
 34 -1.945980 -0.135012 0.247196 -3.077445 1.523081 0.000000
 35 0.000000 0.000000 1.172377 -0.535111 0.583828 -3.141592
 36 0.000000 0.000000 1.923266 -0.123086 0.631228 0.000000
 37 0.111389 0.206554 2.803840 0.313340 0.079789 -3.141592
 38 0.000000 0.000000 2.609086 0.476630 0.064040 0.000000
 39 0.000000 0.000000 2.388648 0.340473 0.179722 0.000000
time 21
  0 0.192741 52.307259 32.016155 1.570796 0.000000 0.000000
  1 0.000000 -6.750002 -3.510001 0.000000 0.000000 0.000000
  2 3.007735 -0.000004 -0.000002 0.710897 0.243522 -0.021009
  3 0.000000 0.000000 12.794512 1.116089 0.517805 -0.044836
  4 0.000000 0.000000 14.050400 0.453496 1.457994 -3.475047
  5 0.000000 0.000000 6.031133 0.113066 0.523561 0.000000
  6 0.000000 0.000000 0.757964 -0.000001 0.000000 0.000000
  7 0.000000 0.000000 0.757950 -0.000002 0.000000 0.000000
  8 -3.007735 0.000004 0.000005 -0.768795 0.072282 -3.082520
  9 0.000000 0.000000 12.794530 -0.856501 0.664823 0.285057
 10 0.000000 0.000000 13.961749 0.247596 0.778848 -2.245816
 11 0.000000 0.000000 6.030940 -0.114774 0.523252 0.000000
 12 0.000000 0.000000 0.757934 -0.000000 -0.000000 -3.141592
 13 0.000000 0.000000 0.757953 -0.000000 -0.000000 -3.141592
 14 0.000001 1.047682 0.554789 -1.073015 0.005506 0.000863
 15 0.000000 0.000000 4.300853 0.121978 0.052830 0.000024
 16 0.000000 0.000000 3.909713 -0.008841 -0.016403 -3.141592
 17 0.000000 0.000000 4.692176 0.114524 0.000608 -3.141592
 18 0.000000 0.000000 5.479362 -0.367051 -0.046536 0.005813
 19 0.645092 -2.464382 2.019449 -0.109031 0.159806 -0.006558
 20 3.518158 -2.206055 -1.728387 2.911160 1.048239 -3.141592
 21 0.000000 0.000000 4.558179 0.182871 0.917152 0.284804
 22 0.000000 0.000000 11.949879 -0.640893 0.048863 -3.291809
 23 0.000000 0.000000 4.822874 0.000000 0.000000 0.000000
 24 -1.376730 -0.804586 1.281520 -0.659309 1.255116 -3.141592
 25 0.000000 0.000000 1.416892 0.073536 0.071051 -3.141592
 26 0.000000 0.000000 1.920310 0.269862 0.568862 0.000000
 27 0.213890 -0.856740 4.255571 0.528081 0.318569 0.000000
 28 0.000000 0.000000 1.378407 -0.049177 0.309751 -3.141592
 29 0.000000 0.000000 3.006212 0.930783 0.778878 -3.141592
 30 -3.352225 -2.014409 -1.625205 -3.111551 1.200587 0.000000
 31 0.000000 0.000000 4.228487 -0.040989 1.050418 0.026865
 32 0.000000 0.000000 13.042765 0.828726 0.220151 -3.158962
 33 0.000000 0.000000 7.153650 -0.255954 0.000000 0.000000
 34 -1.945980 -0.135012 0.247196 -3.077445 1.523081 0.000000
 35 0.000000 0.000000 1.172377 -0.535111 0.583828 -3.141592
 36 0.000000 0.000000 1.923266 -0.123086 0.631228 0.000000
 37 0.111389 0.206554 2.803840 0.313340 0.079789 -3.141592
 38 0.000000 0.000000 2.609086 0.476630 0.064040 0.000000
 39 0.000000 0.000000 2.388648 0.340473 0.179722 0.000000
time 22
  0 0.192741 54.807259 32.016155 1.570796 0.000000 0.000000
  1 0.000000 -6.750002 -3.510001 0.000000 0.000000 0.000000
  2 3.007735 -0.000004 -0.000002 0.754373 0.244193 -0.010510
  3 0.000000 0.000000 12.794512 1.161266 0.519136 -0.022447
  4 0.000000 0.000000 14.050400 0.626534 1.466095 -3.319077
  5 0.000000 0.000000 6.031133 0.113066 0.523561 0.000000
  6 0.000000 0.000000 0.757964 -0.000001 0.000000 0.000000
  7 0.000000 0.000000 0.757950 -0.000002 0.000000 0.000000
  8 -3.007735 0.000004 0.000005 -0.524537 0.055851 -3.066808
  9 0.000000 0.000000 12.794530 -0.981025 0.624130 0.183096
 10 0.000000 0.000000 13.961749 0.151243 0.511603 -2.297781
 11 0.000000 0.000000 6.030940 -0.114774 0.523252 0.000000
 12 0.000000 0.000000 0.757934 -0.000000 -0.000000 -3.141592
 13 0.000000 0.000000 0.757953 -0.000000 -0.000000 -3.141592
 14 0.000001 1.047682 0.554789 -1.073015 0.005506 0.000863
 15 0.000000 0.000000 4.300853 0.121978 0.026653 0.000024
 16 0.000000 0.000000 3.909713 -0.008841 -0.007678 -3.141592
 17 0.000000 0.000000 4.692176 0.114524 0.000608 -3.141592
 18 0.000000 0.000000 5.479362 -0.366740 -0.023262 0.002900
 19 0.645092 -2.464382 2.019449 -0.088401 0.159912 -0.003266
 20 3.518158 -2.206055 -1.728387 2.911160 1.048239 -3.141592
 21 0.000000 0.000000 4.558179 0.233916 0.881703 0.140916
 22 0.000000 0.000000 11.949879 -0.495156 0.031998 -3.215054
 23 0.000000 0.000000 4.822874 0.000000 0.000000 0.000000
 24 -1.376730 -0.804586 1.281520 -0.659309 1.255116 -3.141592
 25 0.000000 0.000000 1.416892 0.073536 0.071051 -3.141592
 26 0.000000 0.000000 1.920310 0.269862 0.568862 0.000000
 27 0.213890 -0.856740 4.255571 0.528081 0.318569 0.000000
 28 0.000000 0.000000 1.378407 -0.049177 0.309751 -3.141592
 29 0.000000 0.000000 3.006212 0.930783 0.778878 -3.141592
 30 -3.352225 -2.014409 -1.625205 -3.111551 1.200587 0.000000
 31 0.000000 0.000000 4.228487 -0.035920 1.040683 0.013388
 32 0.000000 0.000000 13.042765 0.640468 0.189761 -3.153075
 33 0.000000 0.000000 7.153650 -0.127962 0.000000 0.000000
 34 -1.945980 -0.135012 0.247196 -3.077445 1.523081 0.000000
 35 0.000000 0.000000 1.172377 -0.535111 0.583828 -3.141592
 36 0.000000 0.000000 1.923266 -0.123086 0.631228 0.000000
 37 0.111389 0.206554 2.803840 0.313340 0.079789 -3.141592
 38 0.000000 0.000000 2.609086 0.476630 0.064040 0.000000
 39 0.000000 0.000000 2.388648 0.340473 0.179722 0.000000
time 23
  0 0.192741 57.307259 32.016155 1.570796 0.000000 0.000000
  1 0.000000 -6.750002 -3.510001 0.000000 0.000000 0.000000
  2 3.007735 -0.000004 -0.000002 0.797811 0.244409 0.000000
  3 0.000000 0.000000 12.794512 1.206479 0.519567 0.000000
  4 0.000000 0.000000 14.050400 0.821108 1.470961 -3.141592
  5 0.000000 0.000000 6.031133 0.113066 0.523561 0.000000
  6 0.000000 0.000000 0.757964 -0.000001 0.000000 0.000000
  7 0.000000 0.000000 0.757950 -0.000002 0.000000 0.000000
  8 -3.007735 0.000004 0.000005 -0.280698 0.036124 -3.055543
  9 0.000000 0.000000 12.794530 -0.952673 0.558180 0.168097
 10 0.000000 0.000000 13.961749 0.078954 0.241865 -2.318107
 11 0.000000 0.000000 6.030940 -0.114774 0.523252 0.000000
 12 0.000000 0.000000 0.757934 -0.000000 -0.000000 -3.141592
 13 0.000000 0.000000 0.757953 -0.000000 -0.000000 -3.141592
 14 0.000001 1.047682 0.554789 -1.073015 0.005506 0.000863
 15 0.000000 0.000000 4.300853 0.121966 0.000476 0.000024
 16 0.000000 0.000000 3.909713 -0.008841 0.001047 -3.141592
 17 0.000000 0.000000 4.692176 0.114524 0.000608 -3.141592
 18 0.000000 0.000000 5.479362 -0.366512 0.000000 0.000000
 19 0.645092 -2.464382 2.019449 -0.067789 0.159939 0.000000
 20 3.518158 -2.206055 -1.728387 2.911160 1.048239 -3.141592
 21 0.000000 0.000000 4.558179 0.290227 0.851123 0.000000
 22 0.000000 0.000000 11.949879 -0.351181 0.004253 -3.141592
 23 0.000000 0.000000 4.822874 0.000000 0.000000 0.000000
 24 -1.376730 -0.804586 1.281520 -0.659309 1.255116 -3.141592
 25 0.000000 0.000000 1.416892 0.073536 0.071051 -3.141592
 26 0.000000 0.000000 1.920310 0.269862 0.568862 0.000000
 27 0.213890 -0.856740 4.255571 0.528081 0.318569 0.000000
 28 0.000000 0.000000 1.378407 -0.049177 0.309751 -3.141592
 29 0.000000 0.000000 3.006212 0.930783 0.778878 -3.141592
 30 -3.352225 -2.014409 -1.625205 -3.111551 1.200587 0.000000
 31 0.000000 0.000000 4.228487 -0.030722 1.031015 0.000000
 32 0.000000 0.000000 13.042765 0.453051 0.161047 -3.141592
 33 0.000000 0.000000 7.153650 0.000000 0.000000 0.000000
 34 -1.945980 -0.135012 0.247196 -3.077445 1.523081 0.000000
 35 0.000000 0.000000 1.172377 -0.535111 0.583828 -3.141592
 36 0.000000 0.000000 1.923266 -0.123086 0.631228 0.000000
 37 0.111389 0.206554 2.803840 0.313340 0.079789 -3.141592
 38 0.000000 0.000000 2.609086 0.476630 0.064040 0.000000
 39 0.000000 0.000000 2.388648 0.340473 0.179722 0.000000
end
