version 1
nodes
  0 "Bip01"  -1
  1 "Bip01 Pelvis"   0
  2 "Bip01 L Leg"   1
  3 "Bip01 L Leg1"   2
  4 "Bip01 L Foot"   3
  5 "Bip01 R Leg"   1
  6 "Bip01 R Leg1"   5
  7 "Bip01 R Foot"   6
  8 "Bip01 Spine"   1
  9 "Bip01 Spine1"   8
 10 "Bip01 Spine2"   9
 11 "Bip01 Spine3"  10
 12 "Bip01 Neck"  11
 13 "Bip01 Head"  12
 14 "Bip01 L Arm"  12
 15 "Bip01 R Arm"  12
 16 "Bip01 L Arm1"  14
 17 "Bip01 L Arm2"  16
 18 "bone_shield"  17
 19 "bone_root_plate"  14
 20 "Bip01 R Arm1"  15
 21 "bone_plate_root"  20
 22 "Bip01 L Hand"  17
 23 "Bip01 L Finger0"  22
 24 "Bip01 L Finger01"  23
 25 "Bip01 L Finger02"  24
 26 "Bip01 L Finger1"  22
 27 "Bip01 L Finger11"  26
 28 "Bip01 L Finger12"  27
 29 "Bip01 R Arm2"  20
 30 "Bip01 R Hand"  29
 31 "Bip01 R Finger0"  30
 32 "Bip01 R Finger01"  31
 33 "Bip01 R Finger1"  30
 34 "Bip01 R Finger11"  33
 35 "sword"  30
end
skeleton
time 0
  0 -0.038098 0.038098 -1.357941 0.000000 0.000000 -1.570829
  1 0.863307 0.000000 0.000000 -1.570795 -1.570451 0.000000
  2 -0.000005 0.000007 3.713254 -0.132321 -2.814393 -0.671397
  3 18.045725 0.000000 0.000000 -0.000000 -0.000000 -0.787913
  4 17.597599 0.000000 0.000000 -0.107902 -0.168158 0.068247
  5 0.000005 -0.000003 -3.713254 0.627418 2.664071 -0.062022
  6 18.045721 -0.000000 -0.000001 0.000000 0.000000 -0.869602
  7 17.597593 0.000000 -0.000000 0.283193 0.341543 0.523663
  8 1.293338 0.684453 -0.000001 -0.338744 -0.156664 0.079433
  9 5.309647 -0.003832 -0.000000 -0.240520 0.114573 0.219449
 10 4.826592 -0.004567 -0.000000 -0.208568 0.039154 0.068106
 11 5.792761 -0.005304 -0.000000 0.012995 0.000000 0.191976
 12 6.661936 -0.000705 0.000000 -0.000000 -0.000001 0.959670
 13 2.044495 -0.000000 -0.000000 0.819975 -0.019903 -1.268293
 14 -2.037766 2.797702 4.341911 -0.000013 -1.370798 2.181129
 15 -1.877674 2.582454 -4.140396 -0.000013 1.370795 2.181118
 16 4.827231 0.000000 0.000001 -0.576975 0.844922 0.050320
 17 11.139763 -0.000000 -0.000000 0.000000 -0.000000 -0.587962
 18 8.575572 -8.394946 9.511936 -1.535143 -1.058019 1.499774
 19 -1.465386 0.506167 4.002137 0.034889 -0.200000 -0.000001
 20 4.972047 0.000000 0.000001 0.213168 -0.969715 -0.646544
 21 -9.249866 0.683183 -1.946118 -0.000014 -1.670796 0.000014
 22 10.313008 -0.000000 0.000000 -1.037284 0.247339 0.073579
 23 1.646738 0.449549 -1.702246 0.154002 0.442277 0.277235
 24 0.928314 0.000000 0.000000 0.000000 0.000000 0.000000
 25 0.928314 -0.000000 -0.000000 0.000000 0.000000 0.000000
 26 2.975832 -0.386307 -0.044144 -0.000797 -0.043611 0.000035
 27 1.438890 0.000003 0.000001 -0.000000 -0.000000 0.793722
 28 1.485299 -0.000005 -0.000000 0.000000 -0.000000 1.465316
 29 11.585355 0.000000 0.000001 0.000000 0.000000 -0.976337
 30 10.125607 -0.000000 0.000001 2.152066 0.060083 -0.028099
 31 1.533671 0.109715 1.664491 -0.233255 -0.412980 0.435685
 32 0.928314 -0.000001 0.000000 0.000000 0.000000 0.000000
 33 2.683748 -0.427340 0.044205 0.001045 0.043611 0.000046
 34 1.438886 0.000003 0.000000 0.000000 0.000000 0.758827
 35 2.027418 0.730720 12.541074 -1.531161 -0.031283 2.992741
time 1
  0 0.227535 -0.227535 -1.518102 0.000000 0.000000 -1.570829
  1 0.863307 0.000000 0.000000 -1.570795 -1.570451 0.000000
  2 -0.000005 0.000007 3.713254 -0.129733 -2.820336 -0.690336
  3 18.045725 0.000000 0.000000 -0.000000 -0.000000 -0.810176
  4 17.597599 0.000000 0.000000 -0.110901 -0.159704 0.073966
  5 0.000005 -0.000003 -3.713254 0.618042 2.649543 -0.079127
  6 18.045721 -0.000000 -0.000001 0.000000 0.000000 -0.890539
  7 17.597593 0.000000 -0.000000 0.283442 0.344820 0.523922
  8 1.293338 0.684453 -0.000001 -0.339006 -0.156076 0.081101
  9 5.309647 -0.003832 -0.000000 -0.241843 0.115507 0.223344
 10 4.826592 -0.004567 -0.000000 -0.218923 0.038626 0.069718
 11 5.792761 -0.005304 -0.000000 0.009872 0.000000 0.191976
 12 6.661936 -0.000705 0.000000 -0.000000 -0.000001 0.959670
 13 2.044495 -0.000000 -0.000000 0.835221 -0.014500 -1.276031
 14 -2.037766 2.797702 4.341911 -0.000013 -1.370798 2.181129
 15 -1.877674 2.582454 -4.140396 -0.000013 1.370795 2.181118
 16 4.827231 0.000000 0.000001 -0.604842 0.832752 0.030105
 17 11.139763 -0.000000 -0.000000 0.000000 -0.000000 -0.587962
 18 8.575572 -8.394946 9.511936 -1.535143 -1.058019 1.499774
 19 -1.465386 0.506167 4.002137 0.034889 -0.200000 -0.000001
 20 4.972047 0.000000 0.000001 0.234068 -0.964889 -0.687414
 21 -9.249866 0.683183 -1.946118 -0.000014 -1.670796 0.000014
 22 10.313008 -0.000000 0.000000 -1.034583 0.265136 0.084428
 23 1.646738 0.449549 -1.702246 0.161804 0.439649 0.295512
 24 0.928314 0.000000 0.000000 0.000000 0.000000 0.016725
 25 0.928314 -0.000000 -0.000000 0.000000 0.000000 0.016742
 26 2.975832 -0.386307 -0.044144 -0.001516 -0.043599 0.016762
 27 1.438890 0.000003 0.000001 -0.000000 -0.000000 0.810462
 28 1.485299 -0.000005 -0.000000 0.000000 -0.000000 1.482060
 29 11.585355 0.000000 0.000001 0.000000 0.000000 -0.976337
 30 10.125607 -0.000000 0.000001 2.133018 0.048636 -0.035283
 31 1.533671 0.109715 1.664491 -0.233255 -0.412980 0.435685
 32 0.928314 -0.000001 0.000000 0.000000 0.000000 0.000000
 33 2.683748 -0.427340 0.044205 0.001045 0.043611 0.000046
 34 1.438886 0.000003 0.000000 0.000000 0.000000 0.758827
 35 2.027418 0.730720 12.541074 -1.531161 -0.031283 2.992741
time 2
  0 0.520512 -0.520512 -1.709514 0.000000 0.000000 -1.570829
  1 0.863307 0.000000 0.000000 -1.570795 -1.570451 0.000000
  2 -0.000005 0.000007 3.713254 -0.126858 -2.826951 -0.711897
  3 18.045725 0.000000 0.000000 -0.000000 -0.000000 -0.835556
  4 17.597599 0.000000 0.000000 -0.114358 -0.150341 0.080417
  5 0.000005 -0.000003 -3.713254 0.607041 2.633152 -0.098752
  6 18.045721 -0.000000 -0.000001 0.000000 0.000000 -0.914518
  7 17.597593 0.000000 -0.000000 0.283669 0.348658 0.524476
  8 1.293338 0.684453 -0.000001 -0.339347 -0.155309 0.083306
  9 5.309647 -0.003832 -0.000000 -0.243347 0.116574 0.227759
 10 4.826592 -0.004567 -0.000000 -0.230380 0.038075 0.071513
 11 5.792761 -0.005304 -0.000000 0.006288 0.000000 0.191976
 12 6.661936 -0.000705 0.000000 -0.000000 -0.000001 0.959670
 13 2.044495 -0.000000 -0.000000 0.852323 -0.007588 -1.285369
 14 -2.037766 2.797702 4.341911 -0.000013 -1.370798 2.181129
 15 -1.877674 2.582454 -4.140396 -0.000013 1.370795 2.181118
 16 4.827231 0.000000 0.000001 -0.634374 0.818540 0.010940
 17 11.139763 -0.000000 -0.000000 0.000000 -0.000000 -0.587962
 18 8.575572 -8.394946 9.511936 -1.535143 -1.058019 1.499774
 19 -1.465386 0.506167 4.002137 0.034889 -0.200000 -0.000001
 20 4.972047 0.000000 0.000001 0.260169 -0.958534 -0.736473
 21 -9.249866 0.683183 -1.946118 -0.000014 -1.670796 0.000014
 22 10.313008 -0.000000 0.000000 -1.031354 0.284310 0.096325
 23 1.646738 0.449549 -1.702246 0.170277 0.436624 0.315502
 24 0.928314 0.000000 0.000000 0.000000 0.000000 0.035075
 25 0.928314 -0.000000 -0.000000 0.000000 0.000000 0.035091
 26 2.975832 -0.386307 -0.044144 -0.002319 -0.043563 0.035152
 27 1.438890 0.000003 0.000001 -0.000000 -0.000000 0.828801
 28 1.485299 -0.000005 -0.000000 0.000000 -0.000000 1.500381
 29 11.585355 0.000000 0.000001 0.000000 0.000000 -0.976337
 30 10.125607 -0.000000 0.000001 2.111779 0.035670 -0.043139
 31 1.533671 0.109715 1.664491 -0.233255 -0.412980 0.435685
 32 0.928314 -0.000001 0.000000 0.000000 0.000000 0.000000
 33 2.683748 -0.427340 0.044205 0.001045 0.043611 0.000046
 34 1.438886 0.000003 0.000000 0.000000 0.000000 0.758827
 35 2.027418 0.730720 12.541074 -1.531161 -0.031283 2.992741
time 3
  0 0.836928 -0.836928 -1.904833 0.000000 0.000000 -1.570829
  1 0.863307 0.000000 0.000000 -1.570795 -1.570451 0.000000
  2 -0.000005 0.000007 3.713254 -0.124557 -2.834524 -0.733264
  3 18.045725 0.000000 0.000000 -0.000000 -0.000000 -0.859452
  4 17.597599 0.000000 0.000000 -0.118273 -0.140152 0.085678
  5 0.000005 -0.000003 -3.713254 0.595370 2.616668 -0.119055
  6 18.045721 -0.000000 -0.000001 0.000000 0.000000 -0.937265
  7 17.597593 0.000000 -0.000000 0.283760 0.352661 0.523330
  8 1.293338 0.684453 -0.000001 -0.339739 -0.154410 0.085889
  9 5.309647 -0.003832 -0.000000 -0.245017 0.117737 0.232533
 10 4.826592 -0.004567 -0.000000 -0.242676 0.037536 0.073455
 11 5.792761 -0.005304 -0.000000 0.002369 0.000000 0.191976
 12 6.661936 -0.000705 0.000000 -0.000000 -0.000001 0.959670
 13 2.044495 -0.000000 -0.000000 0.870685 -0.000090 -1.295108
 14 -2.037766 2.797702 4.341911 -0.000013 -1.370798 2.181129
 15 -1.877674 2.582454 -4.140396 -0.000013 1.370795 2.181118
 16 4.827231 0.000000 0.000001 -0.664168 0.804158 -0.006737
 17 11.139763 -0.000000 -0.000000 0.000000 -0.000000 -0.587962
 18 8.575572 -8.394946 9.511936 -1.535143 -1.058019 1.499774
 19 -1.465386 0.506167 4.002137 0.034889 -0.200000 -0.000001
 20 4.972047 0.000000 0.000001 0.286364 -0.951455 -0.787249
 21 -9.249866 0.683183 -1.946118 -0.000014 -1.670796 0.000014
 22 10.313008 -0.000000 0.000000 -1.027663 0.304589 0.109007
 23 1.646738 0.449549 -1.702246 0.179242 0.433221 0.336762
 24 0.928314 0.000000 0.000000 0.000000 0.000000 0.054676
 25 0.928314 -0.000000 -0.000000 0.000000 0.000000 0.054674
 26 2.975832 -0.386307 -0.044144 -0.003170 -0.043503 0.054754
 27 1.438890 0.000003 0.000001 -0.000000 -0.000000 0.848378
 28 1.485299 -0.000005 -0.000000 0.000000 -0.000000 1.519982
 29 11.585355 0.000000 0.000001 0.000000 0.000000 -0.976337
 30 10.125607 -0.000000 0.000001 2.088920 0.021630 -0.051296
 31 1.533671 0.109715 1.664491 -0.233255 -0.412980 0.435685
 32 0.928314 -0.000001 0.000000 0.000000 0.000000 0.000000
 33 2.683748 -0.427340 0.044205 0.001045 0.043611 0.000046
 34 1.438886 0.000003 0.000000 0.000000 0.000000 0.758827
 35 2.027418 0.730720 12.541074 -1.531161 -0.031283 2.992741
time 4
  0 1.168970 -1.168970 -2.064994 0.000000 0.000000 -1.570829
  1 0.863307 0.000000 0.000000 -1.570795 -1.570451 0.000000
  2 -0.000005 0.000007 3.713254 -0.123599 -2.843151 -0.751766
  3 18.045725 0.000000 0.000000 -0.000000 -0.000000 -0.877930
  4 17.597599 0.000000 0.000000 -0.122594 -0.129302 0.088286
  5 0.000005 -0.000003 -3.713254 0.584081 2.601395 -0.138244
  6 18.045721 -0.000000 -0.000001 0.000000 0.000000 -0.955014
  7 17.597593 0.000000 -0.000000 0.283737 0.356453 0.518856
  8 1.293338 0.684453 -0.000001 -0.340158 -0.153452 0.088632
  9 5.309647 -0.003832 -0.000000 -0.246753 0.118971 0.237547
 10 4.826592 -0.004567 -0.000000 -0.255559 0.036984 0.075506
 11 5.792761 -0.005304 -0.000000 -0.001740 0.000000 0.191976
 12 6.661936 -0.000705 0.000000 -0.000000 -0.000001 0.959670
 13 2.044495 -0.000000 -0.000000 0.889842 0.006845 -1.304179
 14 -2.037766 2.797702 4.341911 -0.000013 -1.370798 2.181129
 15 -1.877674 2.582454 -4.140396 -0.000013 1.370795 2.181118
 16 4.827231 0.000000 0.000001 -0.693086 0.791393 -0.022752
 17 11.139763 -0.000000 -0.000000 0.000000 -0.000000 -0.587962
 18 8.575572 -8.394946 9.511936 -1.535143 -1.058019 1.499774
 19 -1.465386 0.506167 4.002137 0.034889 -0.200000 -0.000001
 20 4.972047 0.000000 0.000001 0.307914 -0.944698 -0.833500
 21 -9.249866 0.683183 -1.946118 -0.000014 -1.670796 0.000014
 22 10.313008 -0.000000 0.000000 -1.023512 0.325582 0.122400
 23 1.646738 0.449549 -1.702246 0.188494 0.429477 0.358898
 24 0.928314 0.000000 0.000000 0.000000 0.000000 0.075130
 25 0.928314 -0.000000 -0.000000 0.000000 0.000000 0.075119
 26 2.975832 -0.386307 -0.044144 -0.004069 -0.043431 0.075222
 27 1.438890 0.000003 0.000001 -0.000000 -0.000000 0.868834
 28 1.485299 -0.000005 -0.000000 0.000000 -0.000000 1.540420
 29 11.585355 0.000000 0.000001 0.000000 0.000000 -0.976337
 30 10.125607 -0.000000 0.000001 2.065110 0.006830 -0.059377
 31 1.533671 0.109715 1.664491 -0.233255 -0.412980 0.435685
 32 0.928314 -0.000001 0.000000 0.000000 0.000000 0.000000
 33 2.683748 -0.427340 0.044205 0.001045 0.043611 0.000046
 34 1.438886 0.000003 0.000000 0.000000 0.000000 0.758827
 35 2.027418 0.730720 12.541074 -1.531161 -0.031283 2.992741
time 5
  0 1.508824 -1.508824 -2.158747 0.000000 0.000000 -1.570829
  1 0.863307 0.000000 0.000000 -1.570795 -1.570451 0.000000
  2 -0.000005 0.000007 3.713254 -0.124653 -2.852833 -0.765072
  3 18.045725 0.000000 0.000000 -0.000000 -0.000000 -0.887355
  4 17.597599 0.000000 0.000000 -0.127220 -0.118012 0.086776
  5 0.000005 -0.000003 -3.713254 0.574419 2.588916 -0.154477
  6 18.045721 -0.000000 -0.000001 0.000000 0.000000 -0.964287
  7 17.597593 0.000000 -0.000000 0.283601 0.359566 0.509649
  8 1.293338 0.684453 -0.000001 -0.340577 -0.152493 0.091376
  9 5.309647 -0.003832 -0.000000 -0.248522 0.120241 0.242661
 10 4.826592 -0.004567 -0.000000 -0.268790 0.036469 0.077631
 11 5.792761 -0.005304 -0.000000 -0.005953 0.000000 0.191976
 12 6.661936 -0.000705 0.000000 -0.000000 -0.000001 0.959670
 13 2.044495 -0.000000 -0.000000 0.909397 0.012113 -1.311583
 14 -2.037766 2.797702 4.341911 -0.000013 -1.370798 2.181129
 15 -1.877674 2.582454 -4.140396 -0.000013 1.370795 2.181118
 16 4.827231 0.000000 0.000001 -0.720164 0.782117 -0.037629
 17 11.139763 -0.000000 -0.000000 0.000000 -0.000000 -0.587962
 18 8.575572 -8.394946 9.511936 -1.535143 -1.058019 1.499774
 19 -1.465386 0.506167 4.002137 0.034889 -0.200000 -0.000001
 20 4.972047 0.000000 0.000001 0.320733 -0.939631 -0.869456
 21 -9.249866 0.683183 -1.946118 -0.000014 -1.670796 0.000014
 22 10.313008 -0.000000 0.000000 -1.018899 0.346943 0.136242
 23 1.646738 0.449549 -1.702246 0.197854 0.425462 0.381489
 24 0.928314 0.000000 0.000000 0.000000 0.000000 0.096063
 25 0.928314 -0.000000 -0.000000 0.000000 0.000000 0.096068
 26 2.975832 -0.386307 -0.044144 -0.004980 -0.043335 0.096174
 27 1.438890 0.000003 0.000001 -0.000000 -0.000000 0.889770
 28 1.485299 -0.000005 -0.000000 0.000000 -0.000000 1.561401
 29 11.585355 0.000000 0.000001 0.000000 0.000000 -0.976337
 30 10.125607 -0.000000 0.000001 2.041013 -0.008412 -0.067309
 31 1.533671 0.109715 1.664491 -0.233255 -0.412980 0.435685
 32 0.928314 -0.000001 0.000000 0.000000 0.000000 0.000000
 33 2.683748 -0.427340 0.044205 0.001045 0.043611 0.000046
 34 1.438886 0.000003 0.000000 0.000000 0.000000 0.758827
 35 2.027418 0.730720 12.541074 -1.531161 -0.031283 2.992741
time 6
  0 1.844772 -1.844772 -2.154840 0.000000 0.000000 -1.570829
  1 0.863307 0.000000 0.000000 -1.570795 -1.570451 0.000000
  2 -0.000005 0.000007 3.713254 -0.128008 -2.863665 -0.770754
  3 18.045725 0.000000 0.000000 -0.000000 -0.000000 -0.883941
  4 17.597599 0.000000 0.000000 -0.132024 -0.106501 0.079868
  5 0.000005 -0.000003 -3.713254 0.567818 2.580534 -0.165719
  6 18.045721 -0.000000 -0.000001 0.000000 0.000000 -0.961679
  7 17.597593 0.000000 -0.000000 0.283352 0.361579 0.494379
  8 1.293338 0.684453 -0.000001 -0.340970 -0.151594 0.093940
  9 5.309647 -0.003832 -0.000000 -0.250274 0.121500 0.247734
 10 4.826592 -0.004567 -0.000000 -0.282093 0.035966 0.079756
 11 5.792761 -0.005304 -0.000000 -0.010124 0.000000 0.191976
 12 6.661936 -0.000705 0.000000 -0.000000 -0.000001 0.959670
 13 2.044495 -0.000000 -0.000000 0.928952 0.015738 -1.317386
 14 -2.037766 2.797702 4.341911 -0.000013 -1.370798 2.181129
 15 -1.877674 2.582454 -4.140396 -0.000013 1.370795 2.181118
 16 4.827231 0.000000 0.000001 -0.746278 0.775054 -0.053818
 17 11.139763 -0.000000 -0.000000 0.000000 -0.000000 -0.587962
 18 8.575572 -8.394946 9.511936 -1.535143 -1.058019 1.499774
 19 -1.465386 0.506167 4.002137 0.034889 -0.200000 -0.000001
 20 4.972047 0.000000 0.000001 0.320454 -0.937619 -0.889657
 21 -9.249866 0.683183 -1.946118 -0.000014 -1.670796 0.000014
 22 10.313008 -0.000000 0.000000 -1.013957 0.368378 0.150383
 23 1.646738 0.449549 -1.702246 0.207154 0.421213 0.404128
 24 0.928314 0.000000 0.000000 0.000000 0.000000 0.117129
 25 0.928314 -0.000000 -0.000000 0.000000 0.000000 0.117137
 26 2.975832 -0.386307 -0.044144 -0.005890 -0.043227 0.117266
 27 1.438890 0.000003 0.000001 -0.000000 -0.000000 0.910865
 28 1.485299 -0.000005 -0.000000 0.000000 -0.000000 1.582430
 29 11.585355 0.000000 0.000001 0.000000 0.000000 -0.976337
 30 10.125607 -0.000000 0.000001 2.017203 -0.023780 -0.074717
 31 1.533671 0.109715 1.664491 -0.233255 -0.412980 0.435685
 32 0.928314 -0.000001 0.000000 0.000000 0.000000 0.000000
 33 2.683748 -0.427340 0.044205 0.001045 0.043611 0.000046
 34 1.438886 0.000003 0.000000 0.000000 0.000000 0.758827
 35 2.027418 0.730720 12.541074 -1.531161 -0.031283 2.992741
time 7
  0 2.169000 -2.169000 -2.080619 0.000000 0.000000 -1.570829
  1 0.863307 0.000000 0.000000 -1.570795 -1.570451 0.000000
  2 -0.000005 0.000007 3.713254 -0.132800 -2.874977 -0.770754
  3 18.045725 0.000000 0.000000 -0.000000 -0.000000 -0.871251
  4 17.597599 0.000000 0.000000 -0.136803 -0.095210 0.069208
  5 0.000005 -0.000003 -3.713254 0.563705 2.575319 -0.172793
  6 18.045721 -0.000000 -0.000001 0.000000 0.000000 -0.950378
  7 17.597593 0.000000 -0.000000 0.283057 0.362726 0.475226
  8 1.293338 0.684453 -0.000001 -0.341310 -0.150815 0.096145
  9 5.309647 -0.003832 -0.000000 -0.251944 0.122722 0.252608
 10 4.826592 -0.004567 -0.000000 -0.295240 0.035510 0.081881
 11 5.792761 -0.005304 -0.000000 -0.014106 0.000000 0.191976
 12 6.661936 -0.000705 0.000000 -0.000000 -0.000001 0.959670
 13 2.044495 -0.000000 -0.000000 0.947976 0.018485 -1.322122
 14 -2.037766 2.797702 4.341911 -0.000013 -1.370798 2.181129
 15 -1.877674 2.582454 -4.140396 -0.000013 1.370795 2.181118
 16 4.827231 0.000000 0.000001 -0.771867 0.767735 -0.072458
 17 11.139763 -0.000000 -0.000000 0.000000 -0.000000 -0.587962
 18 8.575572 -8.394946 9.511936 -1.535143 -1.058019 1.499774
 19 -1.465386 0.506167 4.002137 0.034889 -0.200000 -0.000001
 20 4.972047 0.000000 0.000001 0.309958 -0.938183 -0.896911
 21 -9.249866 0.683183 -1.946118 -0.000014 -1.670796 0.000014
 22 10.313008 -0.000000 0.000000 -1.008751 0.389518 0.164599
 23 1.646738 0.449549 -1.702246 0.216226 0.416839 0.426407
 24 0.928314 0.000000 0.000000 0.000000 0.000000 0.137956
 25 0.928314 -0.000000 -0.000000 0.000000 0.000000 0.137967
 26 2.975832 -0.386307 -0.044144 -0.006789 -0.043096 0.138114
 27 1.438890 0.000003 0.000001 -0.000000 -0.000000 0.931681
 28 1.485299 -0.000005 -0.000000 0.000000 -0.000000 1.603262
 29 11.585355 0.000000 0.000001 0.000000 0.000000 -0.976337
 30 10.125607 -0.000000 0.000001 1.994344 -0.038769 -0.081601
 31 1.533671 0.109715 1.664491 -0.233255 -0.412980 0.435685
 32 0.928314 -0.000001 0.000000 0.000000 0.000000 0.000000
 33 2.683748 -0.427340 0.044205 0.001045 0.043611 0.000046
 34 1.438886 0.000003 0.000000 0.000000 0.000000 0.758827
 35 2.027418 0.730720 12.541074 -1.531161 -0.031283 2.992741
time 8
  0 2.473697 -2.473697 -1.986866 0.000000 0.000000 -1.570829
  1 0.863307 0.000000 0.000000 -1.570795 -1.570451 0.000000
  2 -0.000005 0.000007 3.713254 -0.137785 -2.886001 -0.768617
  3 18.045725 0.000000 0.000000 -0.000000 -0.000000 -0.855667
  4 17.597599 0.000000 0.000000 -0.141353 -0.084636 0.057496
  5 0.000005 -0.000003 -3.713254 0.560835 2.571687 -0.177833
  6 18.045721 -0.000000 -0.000001 0.000000 0.000000 -0.936396
  7 17.597593 0.000000 -0.000000 0.282762 0.363545 0.455518
  8 1.293338 0.684453 -0.000001 -0.341546 -0.150228 0.097813
  9 5.309647 -0.003832 -0.000000 -0.253481 0.123873 0.257143
 10 4.826592 -0.004567 -0.000000 -0.307956 0.035079 0.083932
 11 5.792761 -0.005304 -0.000000 -0.017816 0.000012 0.191976
 12 6.661936 -0.000705 0.000000 -0.000000 -0.000001 0.959670
 13 2.044495 -0.000000 -0.000000 0.966072 0.020128 -1.325591
 14 -2.037766 2.797702 4.341911 -0.000013 -1.370798 2.181129
 15 -1.877674 2.582454 -4.140396 -0.000013 1.370795 2.181118
 16 4.827231 0.000000 0.000001 -0.795790 0.760332 -0.092498
 17 11.139763 -0.000000 -0.000000 0.000000 -0.000000 -0.587962
 18 8.575572 -8.394946 9.511936 -1.535143 -1.058019 1.499774
 19 -1.465386 0.506167 4.002137 0.034889 -0.200000 -0.000001
 20 4.972047 0.000000 0.000001 0.294910 -0.939791 -0.897691
 21 -9.249866 0.683183 -1.946118 -0.000014 -1.670796 0.000014
 22 10.313008 -0.000000 0.000000 -1.003215 0.410019 0.178666
 23 1.646738 0.449549 -1.702246 0.224903 0.412428 0.447944
 24 0.928314 0.000000 0.000000 0.000000 0.000000 0.158143
 25 0.928314 -0.000000 -0.000000 0.000000 0.000000 0.158161
 26 2.975832 -0.386307 -0.044144 -0.007652 -0.042952 0.158340
 27 1.438890 0.000003 0.000001 -0.000000 -0.000000 0.951857
 28 1.485299 -0.000005 -0.000000 0.000000 -0.000000 1.623503
 29 11.585355 0.000000 0.000001 0.000000 0.000000 -0.976337
 30 10.125607 -0.000000 0.000001 1.973105 -0.053000 -0.087737
 31 1.533671 0.109715 1.664491 -0.233255 -0.412980 0.435685
 32 0.928314 -0.000001 0.000000 0.000000 0.000000 0.000000
 33 2.683748 -0.427340 0.044205 0.001045 0.043611 0.000046
 34 1.438886 0.000003 0.000000 0.000000 0.000000 0.758827
 35 2.027418 0.730720 12.541074 -1.531161 -0.031283 2.992741
time 9
  0 2.751050 -2.751050 -1.881394 0.000000 0.000000 -1.570829
  1 0.863307 0.000000 0.000000 -1.570795 -1.570451 0.000000
  2 -0.000005 0.000007 3.713254 -0.142769 -2.896354 -0.764490
  3 18.045725 0.000000 0.000000 -0.000000 -0.000000 -0.837560
  4 17.597599 0.000000 0.000000 -0.145522 -0.075053 0.045143
  5 0.000005 -0.000003 -3.713254 0.559304 2.569452 -0.180789
  6 18.045721 -0.000000 -0.000001 0.000000 0.000000 -0.920096
  7 17.597593 0.000000 -0.000000 0.282467 0.364014 0.435847
  8 1.293338 0.684453 -0.000001 -0.341703 -0.149904 0.098763
  9 5.309647 -0.003832 -0.000000 -0.254837 0.124903 0.261218
 10 4.826592 -0.004567 -0.000000 -0.320013 0.034683 0.085874
 11 5.792761 -0.005304 -0.000000 -0.021107 0.000012 0.191976
 12 6.661936 -0.000705 0.000000 -0.000000 -0.000001 0.959670
 13 2.044495 -0.000000 -0.000000 0.982777 0.020466 -1.327658
 14 -2.037766 2.797702 4.341911 -0.000013 -1.370798 2.181129
 15 -1.877674 2.582454 -4.140396 -0.000013 1.370795 2.181118
 16 4.827231 0.000000 0.000001 -0.817347 0.753268 -0.112713
 17 11.139763 -0.000000 -0.000000 0.000000 -0.000000 -0.587962
 18 8.575572 -8.394946 9.511936 -1.535143 -1.058019 1.499774
 19 -1.465386 0.506167 4.002137 0.034889 -0.200000 -0.000001
 20 4.972047 0.000000 0.000001 0.275217 -0.942365 -0.891763
 21 -9.249866 0.683183 -1.946118 -0.000014 -1.670796 0.000014
 22 10.313008 -0.000000 0.000000 -0.997614 0.429611 0.192395
 23 1.646738 0.449549 -1.702246 0.233040 0.408053 0.468353
 24 0.928314 0.000000 0.000000 0.000000 0.000000 0.177372
 25 0.928314 -0.000000 -0.000000 0.000000 0.000000 0.177384
 26 2.975832 -0.386307 -0.044144 -0.008479 -0.042796 0.177561
 27 1.438890 0.000003 0.000001 -0.000000 -0.000000 0.971075
 28 1.485299 -0.000005 -0.000000 0.000000 -0.000000 1.642710
 29 11.585355 0.000000 0.000001 0.000000 0.000000 -0.976337
 30 10.125607 -0.000000 0.000001 1.953961 -0.066091 -0.093049
 31 1.533671 0.109715 1.664491 -0.233255 -0.412980 0.435685
 32 0.928314 -0.000001 0.000000 0.000000 0.000000 0.000000
 33 2.683748 -0.427340 0.044205 0.001045 0.043611 0.000046
 34 1.438886 0.000003 0.000000 0.000000 0.000000 0.758827
 35 2.027418 0.730720 12.541074 -1.531161 -0.031283 2.992741
time 10
  0 2.993244 -2.993245 -1.760297 0.000000 0.000000 -1.570829
  1 0.863307 0.000000 0.000000 -1.570795 -1.570451 0.000000
  2 -0.000005 0.000007 3.713254 -0.147561 -2.905749 -0.758419
  3 18.045725 0.000000 0.000000 -0.000000 -0.000000 -0.817374
  4 17.597599 0.000000 0.000000 -0.149182 -0.066709 0.032424
  5 0.000005 -0.000003 -3.713254 0.559113 2.568893 -0.181419
  6 18.045721 -0.000000 -0.000001 0.000000 0.000000 -0.901840
  7 17.597593 0.000000 -0.000000 0.282240 0.364084 0.416805
  8 1.293338 0.684453 -0.000001 -0.341703 -0.149892 0.098799
  9 5.309647 -0.003832 -0.000000 -0.255961 0.125790 0.264693
 10 4.826592 -0.004567 -0.000000 -0.331122 0.034324 0.087633
 11 5.792761 -0.005304 -0.000000 -0.023853 0.000012 0.191976
 12 6.661936 -0.000705 0.000000 -0.000000 -0.000001 0.959670
 13 2.044495 -0.000000 -0.000000 0.997758 0.019295 -1.328125
 14 -2.037766 2.797702 4.341911 -0.000013 -1.370798 2.181129
 15 -1.877674 2.582454 -4.140396 -0.000013 1.370795 2.181118
 16 4.827231 0.000000 0.000001 -0.835750 0.746886 -0.132228
 17 11.139763 -0.000000 -0.000000 0.000000 -0.000000 -0.587962
 18 8.575572 -8.394946 9.511936 -1.535143 -1.058019 1.499774
 19 -1.465386 0.506167 4.002137 0.034889 -0.200000 -0.000001
 20 4.972047 0.000000 0.000001 0.251066 -0.945664 -0.878738
 21 -9.249866 0.683183 -1.946118 -0.000014 -1.670796 0.000014
 22 10.313008 -0.000000 0.000000 -0.992079 0.447899 0.205526
 23 1.646738 0.449549 -1.702246 0.240507 0.403876 0.487253
 24 0.928314 0.000000 0.000000 0.000000 0.000000 0.195216
 25 0.928314 -0.000000 -0.000000 0.000000 0.000000 0.195241
 26 2.975832 -0.386307 -0.044144 -0.009246 -0.042628 0.195431
 27 1.438890 0.000003 0.000001 -0.000000 -0.000000 0.988934
 28 1.485299 -0.000005 -0.000000 0.000000 -0.000000 1.660539
 29 11.585355 0.000000 0.000001 0.000000 0.000000 -0.976337
 30 10.125607 -0.000000 0.000001 1.937580 -0.077539 -0.097464
 31 1.533671 0.109715 1.664491 -0.233255 -0.412980 0.435685
 32 0.928314 -0.000001 0.000000 0.000000 0.000000 0.000000
 33 2.683748 -0.427340 0.044205 0.001045 0.043611 0.000046
 34 1.438886 0.000003 0.000000 0.000000 0.000000 0.758827
 35 2.027418 0.730720 12.541074 -1.531161 -0.031283 2.992741
time 11
  0 3.192469 -3.192469 -1.623574 0.000000 0.000000 -1.570829
  1 0.863307 0.000000 0.000000 -1.570795 -1.570451 0.000000
  2 -0.000005 0.000007 3.713254 -0.152066 -2.913993 -0.750455
  3 18.045725 0.000000 0.000000 -0.000000 -0.000000 -0.795631
  4 17.597599 0.000000 0.000000 -0.152181 -0.059852 0.019751
  5 0.000005 -0.000003 -3.713254 0.560356 2.570104 -0.179723
  6 18.045721 -0.000000 -0.000001 0.000000 0.000000 -0.882280
  7 17.597593 0.000000 -0.000000 0.282058 0.363780 0.398946
  8 1.293338 0.684453 -0.000001 -0.341546 -0.150252 0.097759
  9 5.309647 -0.003832 -0.000000 -0.256787 0.126473 0.267410
 10 4.826592 -0.004567 -0.000000 -0.341069 0.034012 0.089208
 11 5.792761 -0.005304 -0.000000 -0.025928 0.000012 0.191976
 12 6.661936 -0.000705 0.000000 -0.000000 -0.000001 0.959670
 13 2.044495 -0.000000 -0.000000 1.010419 0.016346 -1.326725
 14 -2.037766 2.797702 4.341911 -0.000013 -1.370798 2.181129
 15 -1.877674 2.582454 -4.140396 -0.000013 1.370795 2.181118
 16 4.827231 0.000000 0.000001 -0.850296 0.741865 -0.150081
 17 11.139763 -0.000000 -0.000000 0.000000 -0.000000 -0.587962
 18 8.575572 -8.394946 9.511936 -1.535143 -1.058019 1.499774
 19 -1.465386 0.506167 4.002137 0.034889 -0.200000 -0.000001
 20 4.972047 0.000000 0.000001 0.222364 -0.949525 -0.858225
 21 -9.249866 0.683183 -1.946118 -0.000014 -1.670796 0.000014
 22 10.313008 -0.000000 0.000000 -0.986675 0.464639 0.217760
 23 1.646738 0.449549 -1.702246 0.247158 0.399970 0.504247
 24 0.928314 0.000000 0.000000 0.000000 0.000000 0.211355
 25 0.928314 -0.000000 -0.000000 0.000000 0.000000 0.211360
 26 2.975832 -0.386307 -0.044144 -0.009929 -0.042484 0.211570
 27 1.438890 0.000003 0.000001 -0.000000 -0.000000 1.005075
 28 1.485299 -0.000005 -0.000000 0.000000 -0.000000 1.676692
 29 11.585355 0.000000 0.000001 0.000000 0.000000 -0.976337
 30 10.125607 -0.000000 0.000001 1.924531 -0.086962 -0.100906
 31 1.533671 0.109715 1.664491 -0.233255 -0.412980 0.435685
 32 0.928314 -0.000001 0.000000 0.000000 0.000000 0.000000
 33 2.683748 -0.427340 0.044205 0.001045 0.043611 0.000046
 34 1.438886 0.000003 0.000000 0.000000 0.000000 0.758827
 35 2.027418 0.730720 12.541074 -1.531161 -0.031283 2.992741
time 12
  0 3.337005 -3.337005 -1.482945 0.000000 0.000000 -1.570829
  1 0.863307 0.000000 0.000000 -1.570795 -1.570451 0.000000
  2 -0.000005 0.000007 3.713254 -0.156283 -2.920703 -0.740791
  3 18.045725 0.000000 0.000000 -0.000000 -0.000000 -0.772922
  4 17.597599 0.000000 0.000000 -0.154342 -0.054757 0.007536
  5 0.000005 -0.000003 -3.713254 0.562939 2.572897 -0.175652
  6 18.045721 -0.000000 -0.000001 0.000000 0.000000 -0.861778
  7 17.597593 0.000000 -0.000000 0.281967 0.363077 0.382825
  8 1.293338 0.684453 -0.000001 -0.341206 -0.151067 0.095464
  9 5.309647 -0.003832 -0.000000 -0.257283 0.126929 0.269228
 10 4.826592 -0.004567 -0.000000 -0.349567 0.033725 0.090527
 11 5.792761 -0.005304 -0.000000 -0.027207 0.000012 0.191976
 12 6.661936 -0.000705 0.000000 -0.000000 -0.000001 0.959670
 13 2.044495 -0.000000 -0.000000 1.020428 0.011483 -1.323323
 14 -2.037766 2.797702 4.341911 -0.000013 -1.370798 2.181129
 15 -1.877674 2.582454 -4.140396 -0.000013 1.370795 2.181118
 16 4.827231 0.000000 0.000001 -0.860374 0.738801 -0.165395
 17 11.139763 -0.000000 -0.000000 0.000000 -0.000000 -0.587962
 18 8.575572 -8.394946 9.511936 -1.535143 -1.058019 1.499774
 19 -1.465386 0.506167 4.002137 0.034889 -0.200000 -0.000001
 20 4.972047 0.000000 0.000001 0.189109 -0.953547 -0.829834
 21 -9.249866 0.683183 -1.946118 -0.000014 -1.670796 0.000014
 22 10.313008 -0.000000 0.000000 -0.981667 0.479487 0.228796
 23 1.646738 0.449549 -1.702246 0.252875 0.396513 0.519000
 24 0.928314 0.000000 0.000000 0.000000 0.000000 0.225390
 25 0.928314 -0.000000 -0.000000 0.000000 0.000000 0.225382
 26 2.975832 -0.386307 -0.044144 -0.010528 -0.042341 0.225630
 27 1.438890 0.000003 0.000001 -0.000000 -0.000000 1.019099
 28 1.485299 -0.000005 -0.000000 0.000000 -0.000000 1.690679
 29 11.585355 0.000000 0.000001 0.000000 0.000000 -0.976337
 30 10.125607 -0.000000 0.000001 1.915483 -0.093919 -0.103376
 31 1.533671 0.109715 1.664491 -0.233255 -0.412980 0.435685
 32 0.928314 -0.000001 0.000000 0.000000 0.000000 0.000000
 33 2.683748 -0.427340 0.044205 0.001045 0.043611 0.000046
 34 1.438886 0.000003 0.000000 0.000000 0.000000 0.758827
 35 2.027418 0.730720 12.541074 -1.531161 -0.031283 2.992741
time 13
  0 3.422945 -3.422945 -1.330596 0.000000 0.000000 -1.570829
  1 0.863307 0.000000 0.000000 -1.570795 -1.570451 0.000000
  2 -0.000005 0.000007 3.713254 -0.159926 -2.925592 -0.729477
  3 18.045725 0.000000 0.000000 -0.000000 -0.000000 -0.749768
  4 17.597599 0.000000 0.000000 -0.155562 -0.051645 -0.003902
  5 0.000005 -0.000003 -3.713254 0.566862 2.577554 -0.169256
  6 18.045721 -0.000000 -0.000001 0.000000 0.000000 -0.840914
  7 17.597593 0.000000 -0.000000 0.281967 0.361930 0.368996
  8 1.293338 0.684453 -0.000001 -0.340630 -0.152361 0.091734
  9 5.309647 -0.003832 -0.000000 -0.257399 0.127121 0.270047
 10 4.826592 -0.004567 -0.000000 -0.356386 0.033461 0.091516
 11 5.792761 -0.005304 -0.000000 -0.027542 0.000012 0.191976
 12 6.661936 -0.000705 0.000000 -0.000000 -0.000001 0.959670
 13 2.044495 -0.000000 -0.000000 1.027322 0.004480 -1.317586
 14 -2.037766 2.797702 4.341911 -0.000013 -1.370798 2.181129
 15 -1.877674 2.582454 -4.140396 -0.000013 1.370795 2.181118
 16 4.827231 0.000000 0.000001 -0.865369 0.738205 -0.177472
 17 11.139763 -0.000000 -0.000000 0.000000 -0.000000 -0.587962
 18 8.575572 -8.394946 9.511936 -1.535143 -1.058019 1.499774
 19 -1.465386 0.506167 4.002137 0.034889 -0.200000 -0.000001
 20 4.972047 0.000000 0.000001 0.151304 -0.957649 -0.793254
 21 -9.249866 0.683183 -1.946118 -0.000014 -1.670796 0.000014
 22 10.313008 -0.000000 0.000000 -0.977186 0.492122 0.238410
 23 1.646738 0.449549 -1.702246 0.257537 0.393597 0.531105
 24 0.928314 0.000000 0.000000 0.000000 0.000000 0.236922
 25 0.928314 -0.000000 -0.000000 0.000000 0.000000 0.236935
 26 2.975832 -0.386307 -0.044144 -0.011008 -0.042209 0.237163
 27 1.438890 0.000003 0.000001 -0.000000 -0.000000 1.030646
 28 1.485299 -0.000005 -0.000000 0.000000 -0.000000 1.702252
 29 11.585355 0.000000 0.000001 0.000000 0.000000 -0.976337
 30 10.125607 -0.000000 0.000001 1.911102 -0.097967 -0.104648
 31 1.533671 0.109715 1.664491 -0.233255 -0.412980 0.435685
 32 0.928314 -0.000001 0.000000 0.000000 0.000000 0.000000
 33 2.683748 -0.427340 0.044205 0.001045 0.043611 0.000046
 34 1.438886 0.000003 0.000000 0.000000 0.000000 0.758827
 35 2.027418 0.730720 12.541074 -1.531161 -0.031283 2.992741
time 14
  0 3.442477 -3.442477 -1.174342 0.000000 0.000000 -1.570829
  1 0.863307 0.000000 0.000000 -1.570795 -1.570451 0.000000
  2 -0.000005 0.000007 3.713254 -0.163185 -2.928372 -0.716753
  3 18.045725 0.000000 0.000000 -0.000000 -0.000000 -0.726837
  4 17.597599 0.000000 0.000000 -0.155740 -0.050737 -0.014059
  5 0.000005 -0.000003 -3.713254 0.572123 2.583980 -0.160534
  6 18.045721 -0.000000 -0.000001 0.000000 0.000000 -0.820267
  7 17.597593 0.000000 -0.000000 0.282058 0.360339 0.358088
  8 1.293338 0.684453 -0.000001 -0.339870 -0.154123 0.086696
  9 5.309647 -0.003832 -0.000000 -0.257052 0.127013 0.269667
 10 4.826592 -0.004567 -0.000000 -0.361252 0.033233 0.092175
 11 5.792761 -0.005304 -0.000000 -0.026850 0.000012 0.191976
 12 6.661936 -0.000705 0.000000 -0.000000 -0.000001 0.959670
 13 2.044495 -0.000000 -0.000000 1.030636 -0.004548 -1.309515
 14 -2.037766 2.797702 4.341911 -0.000013 -1.370798 2.181129
 15 -1.877674 2.582454 -4.140396 -0.000013 1.370795 2.181118
 16 4.827231 0.000000 0.000001 -0.865018 0.740673 -0.185348
 17 11.139763 -0.000000 -0.000000 0.000000 -0.000000 -0.587962
 18 8.575572 -8.394946 9.511936 -1.535143 -1.058019 1.499774
 19 -1.465386 0.506167 4.002137 0.034889 -0.200000 -0.000001
 20 4.972047 0.000000 0.000001 0.109597 -0.961269 -0.748641
 21 -9.249866 0.683183 -1.946118 -0.000014 -1.670796 0.000014
 22 10.313008 -0.000000 0.000000 -0.973430 0.502274 0.246192
 23 1.646738 0.449549 -1.702246 0.261012 0.391364 0.540225
 24 0.928314 0.000000 0.000000 0.000000 0.000000 0.245658
 25 0.928314 -0.000000 -0.000000 0.000000 0.000000 0.245648
 26 2.975832 -0.386307 -0.044144 -0.011379 -0.042113 0.245890
 27 1.438890 0.000003 0.000001 -0.000000 -0.000000 1.039356
 28 1.485299 -0.000005 -0.000000 0.000000 -0.000000 1.710969
 29 11.585355 0.000000 0.000001 0.000000 0.000000 -0.976337
 30 10.125607 -0.000000 0.000001 1.911769 -0.098663 -0.104797
 31 1.533671 0.109715 1.664491 -0.233255 -0.412980 0.435685
 32 0.928314 -0.000001 0.000000 0.000000 0.000000 0.000000
 33 2.683748 -0.427340 0.044205 0.001045 0.043611 0.000046
 34 1.438886 0.000003 0.000000 0.000000 0.000000 0.758827
 35 2.027418 0.730720 12.541074 -1.531161 -0.031283 2.992741
time 15
  0 3.403413 -3.403413 -1.014180 0.000000 0.000000 -1.570829
  1 0.863307 0.000000 0.000000 -1.570795 -1.570451 0.000000
  2 -0.000005 0.000007 3.713254 -0.165964 -2.929426 -0.702816
  3 18.045725 0.000000 0.000000 -0.000000 -0.000000 -0.704203
  4 17.597599 0.000000 0.000000 -0.155003 -0.051728 -0.023163
  5 0.000005 -0.000003 -3.713254 0.578437 2.591989 -0.149970
  6 18.045721 -0.000000 -0.000001 0.000000 0.000000 -0.799838
  7 17.597593 0.000000 -0.000000 0.282194 0.358396 0.349658
  8 1.293338 0.684453 -0.000001 -0.338928 -0.156268 0.080563
  9 5.309647 -0.003832 -0.000000 -0.256209 0.126557 0.268009
 10 4.826592 -0.004567 -0.000000 -0.363936 0.033018 0.092468
 11 5.792761 -0.005304 -0.000000 -0.025006 0.000012 0.191976
 12 6.661936 -0.000705 0.000000 -0.000000 -0.000001 0.959670
 13 2.044495 -0.000000 -0.000000 1.029907 -0.015468 -1.299110
 14 -2.037766 2.797702 4.341911 -0.000013 -1.370798 2.181129
 15 -1.877674 2.582454 -4.140396 -0.000013 1.370795 2.181118
 16 4.827231 0.000000 0.000001 -0.858797 0.746290 -0.188236
 17 11.139763 -0.000000 -0.000000 0.000000 -0.000000 -0.587962
 18 8.575572 -8.394946 9.511936 -1.535143 -1.058019 1.499774
 19 -1.465386 0.506167 4.002137 0.034889 -0.200000 -0.000001
 20 4.972047 0.000000 0.000001 0.064731 -0.964245 -0.696539
 21 -9.249866 0.683183 -1.946118 -0.000014 -1.670796 0.000014
 22 10.313008 -0.000000 0.000000 -0.970662 0.509624 0.251915
 23 1.646738 0.449549 -1.702246 0.263206 0.389924 0.545965
 24 0.928314 0.000000 0.000000 0.000000 0.000000 0.251144
 25 0.928314 -0.000000 -0.000000 0.000000 0.000000 0.251149
 26 2.975832 -0.386307 -0.044144 -0.011607 -0.042053 0.251397
 27 1.438890 0.000003 0.000001 -0.000000 -0.000000 1.044869
 28 1.485299 -0.000005 -0.000000 0.000000 -0.000000 1.716485
 29 11.585355 0.000000 0.000001 0.000000 0.000000 -0.976337
 30 10.125607 -0.000000 0.000001 1.917293 -0.096386 -0.103899
 31 1.533671 0.109715 1.664491 -0.233255 -0.412980 0.435685
 32 0.928314 -0.000001 0.000000 0.000000 0.000000 0.000000
 33 2.683748 -0.427340 0.044205 0.001045 0.043611 0.000046
 34 1.438886 0.000003 0.000000 0.000000 0.000000 0.758827
 35 2.027418 0.730720 12.541074 -1.531161 -0.031283 2.992741
time 16
  0 3.321379 -3.321380 -0.854019 0.000000 0.000000 -1.570829
  1 0.863307 0.000000 0.000000 -1.570795 -1.570451 0.000000
  2 -0.000005 0.000007 3.713254 -0.168552 -2.929235 -0.688005
  3 18.045725 0.000000 0.000000 -0.000000 -0.000000 -0.681643
  4 17.597599 0.000000 0.000000 -0.153681 -0.054014 -0.031581
  5 0.000005 -0.000003 -3.713254 0.585325 2.601022 -0.138196
  6 18.045721 -0.000000 -0.000001 0.000000 0.000000 -0.779698
  7 17.597593 0.000000 -0.000000 0.282376 0.356242 0.342892
  8 1.293338 0.684453 -0.000001 -0.337828 -0.158713 0.073534
  9 5.309647 -0.003832 -0.000000 -0.254870 0.125778 0.265133
 10 4.826592 -0.004567 -0.000000 -0.364164 0.032838 0.092285
 11 5.792761 -0.005304 -0.000000 -0.022155 0.000012 0.191976
 12 6.661936 -0.000705 0.000000 -0.000000 -0.000001 0.959670
 13 2.044495 -0.000000 -0.000000 1.025002 -0.027896 -1.286503
 14 -2.037766 2.797702 4.341911 -0.000013 -1.370798 2.181129
 15 -1.877674 2.582454 -4.140396 -0.000013 1.370795 2.181118
 16 4.827231 0.000000 0.000001 -0.846441 0.754970 -0.184998
 17 11.139763 -0.000000 -0.000000 0.000000 -0.000000 -0.587962
 18 8.575572 -8.394946 9.511936 -1.535143 -1.058019 1.499774
 19 -1.465386 0.506167 4.002137 0.034889 -0.200000 -0.000001
 20 4.972047 0.000000 0.000001 0.017730 -0.966337 -0.637965
 21 -9.249866 0.683183 -1.946118 -0.000014 -1.670796 0.000014
 22 10.313008 -0.000000 0.000000 -0.969080 0.513852 0.255245
 23 1.646738 0.449549 -1.702246 0.263961 0.389438 0.547967
 24 0.928314 0.000000 0.000000 0.000000 0.000000 0.253061
 25 0.928314 -0.000000 -0.000000 0.000000 0.000000 0.253067
 26 2.975832 -0.386307 -0.044144 -0.011691 -0.042029 0.253302
 27 1.438890 0.000003 0.000001 -0.000000 -0.000000 1.046787
 28 1.485299 -0.000005 -0.000000 0.000000 -0.000000 1.718357
 29 11.585355 0.000000 0.000001 0.000000 0.000000 -0.976337
 30 10.125607 -0.000000 0.000001 1.926627 -0.091895 -0.102103
 31 1.533671 0.109715 1.664491 -0.233255 -0.412980 0.435685
 32 0.928314 -0.000001 0.000000 0.000000 0.000000 0.000000
 33 2.683748 -0.427340 0.044205 0.001045 0.043611 0.000046
 34 1.438886 0.000003 0.000000 0.000000 0.000000 0.758827
 35 2.027418 0.730720 12.541074 -1.531161 -0.031283 2.992741
time 17
  0 3.204188 -3.204189 -0.697765 0.000000 0.000000 -1.570829
  1 0.863307 0.000000 0.000000 -1.570795 -1.570451 0.000000
  2 -0.000005 0.000007 3.713254 -0.170948 -2.927892 -0.672611
  3 18.045725 0.000000 0.000000 -0.000000 -0.000000 -0.659380
  4 17.597599 0.000000 0.000000 -0.151826 -0.057483 -0.039267
  5 0.000005 -0.000003 -3.713254 0.592595 2.610987 -0.125451
  6 18.045721 -0.000000 -0.000001 0.000000 0.000000 -0.759848
  7 17.597593 0.000000 -0.000000 0.282580 0.353878 0.337752
  8 1.293338 0.684453 -0.000001 -0.336597 -0.161386 0.065806
  9 5.309647 -0.003832 -0.000000 -0.253101 0.124736 0.261198
 10 4.826592 -0.004567 -0.000000 -0.361467 0.032658 0.091553
 11 5.792761 -0.005304 -0.000000 -0.018403 0.000012 0.191976
 12 6.661936 -0.000705 0.000000 -0.000000 -0.000001 0.959670
 13 2.044495 -0.000000 -0.000000 1.015655 -0.041360 -1.271895
 14 -2.037766 2.797702 4.341911 -0.000013 -1.370798 2.181129
 15 -1.877674 2.582454 -4.140396 -0.000013 1.370795 2.181118
 16 4.827231 0.000000 0.000001 -0.828213 0.765948 -0.177384
 17 11.139763 -0.000000 -0.000000 0.000000 -0.000000 -0.587962
 18 8.575572 -8.394946 9.511936 -1.535143 -1.058019 1.499774
 19 -1.465386 0.506167 4.002137 0.034889 -0.200000 -0.000001
 20 4.972047 0.000000 0.000001 -0.030108 -0.967302 -0.574242
 21 -9.249866 0.683183 -1.946118 -0.000014 -1.670796 0.000014
 22 10.313008 -0.000000 0.000000 -0.969937 0.511516 0.253412
 23 1.646738 0.449549 -1.702246 0.263625 0.389654 0.547068
 24 0.928314 0.000000 0.000000 0.000000 0.000000 0.252209
 25 0.928314 -0.000000 -0.000000 0.000000 0.000000 0.252204
 26 2.975832 -0.386307 -0.044144 -0.011655 -0.042041 0.252470
 27 1.438890 0.000003 0.000001 -0.000000 -0.000000 1.045908
 28 1.485299 -0.000005 -0.000000 0.000000 -0.000000 1.717520
 29 11.585355 0.000000 0.000001 0.000000 0.000000 -0.976337
 30 10.125607 -0.000000 0.000001 1.939199 -0.085444 -0.099484
 31 1.533671 0.109715 1.664491 -0.233255 -0.412980 0.435685
 32 0.928314 -0.000001 0.000000 0.000000 0.000000 0.000000
 33 2.683748 -0.427340 0.044205 0.001045 0.043611 0.000046
 34 1.438886 0.000003 0.000000 0.000000 0.000000 0.758827
 35 2.027418 0.730720 12.541074 -1.531161 -0.031283 2.992741
time 18
  0 3.051840 -3.051840 -0.541510 0.000000 0.000000 -1.570829
  1 0.863307 0.000000 0.000000 -1.570795 -1.570451 0.000000
  2 -0.000005 0.000007 3.713254 -0.173249 -2.925592 -0.656731
  3 18.045725 0.000000 0.000000 -0.000000 -0.000000 -0.637636
  4 17.597599 0.000000 0.000000 -0.149563 -0.062000 -0.046313
  5 0.000005 -0.000003 -3.713254 0.600249 2.621790 -0.112029
  6 18.045721 -0.000000 -0.000001 0.000000 0.000000 -0.740433
  7 17.597593 0.000000 -0.000000 0.282762 0.351397 0.334091
  8 1.293338 0.684453 -0.000001 -0.335262 -0.164226 0.057575
  9 5.309647 -0.003832 -0.000000 -0.250985 0.123465 0.256364
 10 4.826592 -0.004567 -0.000000 -0.355763 0.032490 0.090270
 11 5.792761 -0.005304 -0.000000 -0.013876 0.000000 0.191976
 12 6.661936 -0.000705 0.000000 -0.000000 -0.000001 0.959670
 13 2.044495 -0.000000 -0.000000 1.001868 -0.055297 -1.255353
 14 -2.037766 2.797702 4.341911 -0.000013 -1.370798 2.181129
 15 -1.877674 2.582454 -4.140396 -0.000013 1.370795 2.181118
 16 4.827231 0.000000 0.000001 -0.804991 0.778203 -0.167846
 17 11.139763 -0.000000 -0.000000 0.000000 -0.000000 -0.587962
 18 8.575572 -8.394946 9.511936 -1.535143 -1.058019 1.499774
 19 -1.465386 0.506167 4.002137 0.034889 -0.200000 -0.000001
 20 4.972047 0.000000 0.000001 -0.077574 -0.967141 -0.506776
 21 -9.249866 0.683183 -1.946118 -0.000014 -1.670796 0.000014
 22 10.313008 -0.000000 0.000000 -0.974089 0.500553 0.244882
 23 1.646738 0.449549 -1.702246 0.262630 0.390302 0.544443
 24 0.928314 0.000000 0.000000 0.000000 0.000000 0.249679
 25 0.928314 -0.000000 -0.000000 0.000000 0.000000 0.249699
 26 2.975832 -0.386307 -0.044144 -0.011547 -0.042065 0.249942
 27 1.438890 0.000003 0.000001 -0.000000 -0.000000 1.043391
 28 1.485299 -0.000005 -0.000000 0.000000 -0.000000 1.715008
 29 11.585355 0.000000 0.000001 0.000000 0.000000 -0.976337
 30 10.125607 -0.000000 0.000001 1.954819 -0.077286 -0.096117
 31 1.533671 0.109715 1.664491 -0.233255 -0.412980 0.435685
 32 0.928314 -0.000001 0.000000 0.000000 0.000000 0.000000
 33 2.683748 -0.427340 0.044205 0.001045 0.043611 0.000046
 34 1.438886 0.000003 0.000000 0.000000 0.000000 0.758827
 35 2.027418 0.730720 12.541074 -1.531161 -0.031283 2.992741
time 19
  0 2.872147 -2.872147 -0.389161 0.000000 0.000000 -1.570829
  1 0.863307 0.000000 0.000000 -1.570795 -1.570451 0.000000
  2 -0.000005 0.000007 3.713254 -0.175357 -2.922428 -0.640609
  3 18.045725 0.000000 0.000000 -0.000000 -0.000000 -0.616412
  4 17.597599 0.000000 0.000000 -0.146920 -0.067452 -0.052718
  5 0.000005 -0.000003 -3.713254 0.607902 2.633059 -0.098074
  6 18.045721 -0.000000 -0.000001 0.000000 0.000000 -0.721670
  7 17.597593 0.000000 -0.000000 0.282943 0.348799 0.331836
  8 1.293338 0.684453 -0.000001 -0.333848 -0.167126 0.049094
  9 5.309647 -0.003832 -0.000000 -0.248555 0.122015 0.250811
 10 4.826592 -0.004567 -0.000000 -0.347457 0.032334 0.088475
 11 5.792761 -0.005304 -0.000000 -0.008740 0.000000 0.191976
 12 6.661936 -0.000705 0.000000 -0.000000 -0.000001 0.959670
 13 2.044495 -0.000000 -0.000000 0.984368 -0.069053 -1.237410
 14 -2.037766 2.797702 4.341911 -0.000013 -1.370798 2.181129
 15 -1.877674 2.582454 -4.140396 -0.000013 1.370795 2.181118
 16 4.827231 0.000000 0.000001 -0.777212 0.791053 -0.156207
 17 11.139763 -0.000000 -0.000000 0.000000 -0.000000 -0.587962
 18 8.575572 -8.394946 9.511936 -1.535143 -1.058019 1.499774
 19 -1.465386 0.506167 4.002137 0.034889 -0.200000 -0.000001
 20 4.972047 0.000000 0.000001 -0.123275 -0.966096 -0.437593
 21 -9.249866 0.683183 -1.946118 -0.000014 -1.670796 0.000014
 22 10.313008 -0.000000 0.000000 -0.980547 0.482731 0.231265
 23 1.646738 0.449549 -1.702246 0.261012 0.391364 0.540225
 24 0.928314 0.000000 0.000000 0.000000 0.000000 0.245658
 25 0.928314 -0.000000 -0.000000 0.000000 0.000000 0.245648
 26 2.975832 -0.386307 -0.044144 -0.011379 -0.042113 0.245890
 27 1.438890 0.000003 0.000001 -0.000000 -0.000000 1.039356
 28 1.485299 -0.000005 -0.000000 0.000000 -0.000000 1.710969
 29 11.585355 0.000000 0.000001 0.000000 0.000000 -0.976337
 30 10.125607 -0.000000 0.000001 1.972915 -0.067609 -0.091927
 31 1.533671 0.109715 1.664491 -0.233255 -0.412980 0.435685
 32 0.928314 -0.000001 0.000000 0.000000 0.000000 0.000000
 33 2.683748 -0.427340 0.044205 0.001045 0.043611 0.000046
 34 1.438886 0.000003 0.000000 0.000000 0.000000 0.758827
 35 2.027418 0.730720 12.541074 -1.531161 -0.031283 2.992741
time 20
  0 2.669016 -2.669016 -0.248532 0.000000 0.000000 -1.570829
  1 0.863307 0.000000 0.000000 -1.570795 -1.570451 0.000000
  2 -0.000005 0.000007 3.713254 -0.177370 -2.918402 -0.624389
  3 18.045725 0.000000 0.000000 -0.000000 -0.000000 -0.596078
  4 17.597599 0.000000 0.000000 -0.143997 -0.073703 -0.058391
  5 0.000005 -0.000003 -3.713254 0.615651 2.644886 -0.083924
  6 18.045721 -0.000000 -0.000001 0.000000 0.000000 -0.703776
  7 17.597593 0.000000 -0.000000 0.283079 0.346177 0.330875
  8 1.293338 0.684453 -0.000001 -0.332408 -0.170050 0.040540
  9 5.309647 -0.003832 -0.000000 -0.245926 0.120445 0.244698
 10 4.826592 -0.004567 -0.000000 -0.336899 0.032215 0.086277
 11 5.792761 -0.005304 -0.000000 -0.003123 0.000000 0.191976
 12 6.661936 -0.000705 0.000000 -0.000000 -0.000001 0.959670
 13 2.044495 -0.000000 -0.000000 0.963554 -0.082045 -1.218400
 14 -2.037766 2.797702 4.341911 -0.000013 -1.370798 2.181129
 15 -1.877674 2.582454 -4.140396 -0.000013 1.370795 2.181118
 16 4.827231 0.000000 0.000001 -0.745402 0.804073 -0.142292
 17 11.139763 -0.000000 -0.000000 0.000000 -0.000000 -0.587962
 18 8.575572 -8.394946 9.511936 -1.535143 -1.058019 1.499774
 19 -1.465386 0.506167 4.002137 0.034889 -0.200000 -0.000001
 20 4.972047 0.000000 0.000001 -0.166283 -0.964165 -0.368723
 21 -9.249866 0.683183 -1.946118 -0.000014 -1.670796 0.000014
 22 10.313008 -0.000000 0.000000 -0.988257 0.459772 0.214168
 23 1.646738 0.449549 -1.702246 0.258831 0.392768 0.534496
 24 0.928314 0.000000 0.000000 0.000000 0.000000 0.240171
 25 0.928314 -0.000000 -0.000000 0.000000 0.000000 0.240183
 26 2.975832 -0.386307 -0.044144 -0.011152 -0.042173 0.240418
 27 1.438890 0.000003 0.000001 -0.000000 -0.000000 1.033882
 28 1.485299 -0.000005 -0.000000 0.000000 -0.000000 1.705503
 29 11.585355 0.000000 0.000001 0.000000 0.000000 -0.976337
 30 10.125607 -0.000000 0.000001 1.993201 -0.056794 -0.087063
 31 1.533671 0.109715 1.664491 -0.233255 -0.412980 0.435685
 32 0.928314 -0.000001 0.000000 0.000000 0.000000 0.000000
 33 2.683748 -0.427340 0.044205 0.001045 0.043611 0.000046
 34 1.438886 0.000003 0.000000 0.000000 0.000000 0.758827
 35 2.027418 0.730720 12.541074 -1.531161 -0.031283 2.992741
time 21
  0 2.442446 -2.442446 -0.115716 0.000000 0.000000 -1.570829
  1 0.863307 0.000000 0.000000 -1.570795 -1.570451 0.000000
  2 -0.000005 0.000007 3.713254 -0.179287 -2.913609 -0.608412
  3 18.045725 0.000000 0.000000 -0.000000 -0.000000 -0.576858
  4 17.597599 0.000000 0.000000 -0.140845 -0.080643 -0.063378
  5 0.000005 -0.000003 -3.713254 0.623208 2.656900 -0.069678
  6 18.045721 -0.000000 -0.000001 0.000000 0.000000 -0.686897
  7 17.597593 0.000000 -0.000000 0.283170 0.343532 0.331207
  8 1.293338 0.684453 -0.000001 -0.330994 -0.172903 0.032148
  9 5.309647 -0.003832 -0.000000 -0.243116 0.118803 0.238186
 10 4.826592 -0.004567 -0.000000 -0.324495 0.032143 0.083713
 11 5.792761 -0.005304 -0.000000 0.002851 0.000000 0.191976
 12 6.661936 -0.000705 0.000000 -0.000000 -0.000001 0.959670
 13 2.044495 -0.000000 -0.000000 0.940287 -0.093685 -1.198923
 14 -2.037766 2.797702 4.341911 -0.000013 -1.370798 2.181129
 15 -1.877674 2.582454 -4.140396 -0.000013 1.370795 2.181118
 16 4.827231 0.000000 0.000001 -0.710175 0.816753 -0.126190
 17 11.139763 -0.000000 -0.000000 0.000000 -0.000000 -0.587962
 18 8.575572 -8.394946 9.511936 -1.535143 -1.058019 1.499774
 19 -1.465386 0.506167 4.002137 0.034889 -0.200000 -0.000001
 20 4.972047 0.000000 0.000001 -0.205482 -0.961832 -0.301959
 21 -9.249866 0.683183 -1.946118 -0.000014 -1.670796 0.000014
 22 10.313008 -0.000000 0.000000 -0.996494 0.433495 0.195164
 23 1.646738 0.449549 -1.702246 0.256099 0.394497 0.527389
 24 0.928314 0.000000 0.000000 0.000000 0.000000 0.233380
 25 0.928314 -0.000000 -0.000000 0.000000 0.000000 0.233388
 26 2.975832 -0.386307 -0.044144 -0.010864 -0.042245 0.233630
 27 1.438890 0.000003 0.000001 -0.000000 -0.000000 1.027090
 28 1.485299 -0.000005 -0.000000 0.000000 -0.000000 1.698706
 29 11.585355 0.000000 0.000001 0.000000 0.000000 -0.976337
 30 10.125607 -0.000000 0.000001 2.015298 -0.045031 -0.081451
 31 1.533671 0.109715 1.664491 -0.233255 -0.412980 0.435685
 32 0.928314 -0.000001 0.000000 0.000000 0.000000 0.000000
 33 2.683748 -0.427340 0.044205 0.001045 0.043611 0.000046
 34 1.438886 0.000003 0.000000 0.000000 0.000000 0.758827
 35 2.027418 0.730720 12.541074 -1.531161 -0.031283 2.992741
time 22
  0 2.196345 -2.196345 0.005382 0.000000 0.000000 -1.570829
  1 0.863307 0.000000 0.000000 -1.570795 -1.570451 0.000000
  2 -0.000005 0.000007 3.713254 -0.181012 -2.908241 -0.592824
  3 18.045725 0.000000 0.000000 -0.000000 -0.000000 -0.559047
  4 17.597599 0.000000 0.000000 -0.137566 -0.088216 -0.067541
  5 0.000005 -0.000003 -3.713254 0.630479 2.668914 -0.055626
  6 18.045721 -0.000000 -0.000001 0.000000 0.000000 -0.671248
  7 17.597593 0.000000 -0.000000 0.283193 0.340911 0.332797
  8 1.293338 0.684453 -0.000001 -0.329580 -0.175623 0.024079
  9 5.309647 -0.003832 -0.000000 -0.240239 0.117113 0.231454
 10 4.826592 -0.004567 -0.000000 -0.310605 0.032119 0.080855
 11 5.792761 -0.005304 -0.000000 0.009034 0.000000 0.191976
 12 6.661936 -0.000705 0.000000 -0.000000 -0.000001 0.959670
 13 2.044495 -0.000000 -0.000000 0.915031 -0.103569 -1.179446
 14 -2.037766 2.797702 4.341911 -0.000013 -1.370798 2.181129
 15 -1.877674 2.582454 -4.140396 -0.000013 1.370795 2.181118
 16 4.827231 0.000000 0.000001 -0.672143 0.828497 -0.107813
 17 11.139763 -0.000000 -0.000000 0.000000 -0.000000 -0.587962
 18 8.575572 -8.394946 9.511936 -1.535143 -1.058019 1.499774
 19 -1.465386 0.506167 4.002137 0.034889 -0.200000 -0.000001
 20 4.972047 0.000000 0.000001 -0.239851 -0.959499 -0.239094
 21 -9.249866 0.683183 -1.946118 -0.000014 -1.670796 0.000014
 22 10.313008 -0.000000 0.000000 -1.004402 0.405718 0.175710
 23 1.646738 0.449549 -1.702246 0.252875 0.396513 0.519000
 24 0.928314 0.000000 0.000000 0.000000 0.000000 0.225390
 25 0.928314 -0.000000 -0.000000 0.000000 0.000000 0.225382
 26 2.975832 -0.386307 -0.044144 -0.010528 -0.042341 0.225630
 27 1.438890 0.000003 0.000001 -0.000000 -0.000000 1.019099
 28 1.485299 -0.000005 -0.000000 0.000000 -0.000000 1.690679
 29 11.585355 0.000000 0.000001 0.000000 0.000000 -0.976337
 30 10.125607 -0.000000 0.000001 2.038728 -0.032571 -0.075240
 31 1.533671 0.109715 1.664491 -0.233255 -0.412980 0.435685
 32 0.928314 -0.000001 0.000000 0.000000 0.000000 0.000000
 33 2.683748 -0.427340 0.044205 0.001045 0.043611 0.000046
 34 1.438886 0.000003 0.000000 0.000000 0.000000 0.758827
 35 2.027418 0.730720 12.541074 -1.531161 -0.031283 2.992741
time 23
  0 1.938525 -1.938525 0.110854 0.000000 0.000000 -1.570829
  1 0.863307 0.000000 0.000000 -1.570795 -1.570451 0.000000
  2 -0.000005 0.000007 3.713254 -0.182546 -2.902202 -0.577964
  3 18.045725 0.000000 0.000000 -0.000000 -0.000000 -0.543018
  4 17.597599 0.000000 0.000000 -0.134185 -0.096229 -0.070790
  5 0.000005 -0.000003 -3.713254 0.637462 2.680927 -0.041961
  6 18.045721 -0.000000 -0.000001 0.000000 0.000000 -0.657267
  7 17.597593 0.000000 -0.000000 0.283193 0.338383 0.335644
  8 1.293338 0.684453 -0.000001 -0.328271 -0.178140 0.016602
  9 5.309647 -0.003832 -0.000000 -0.237346 0.115436 0.224663
 10 4.826592 -0.004567 -0.000000 -0.295624 0.032179 0.077851
 11 5.792761 -0.005304 -0.000000 0.015322 -0.000012 0.191976
 12 6.661936 -0.000705 0.000000 -0.000000 -0.000001 0.959670
 13 2.044495 -0.000000 -0.000000 0.888583 -0.110954 -1.161036
 14 -2.037766 2.797702 4.341911 -0.000013 -1.370798 2.181129
 15 -1.877674 2.582454 -4.140396 -0.000013 1.370795 2.181118
 16 4.827231 0.000000 0.000001 -0.632183 0.839050 -0.087510
 17 11.139763 -0.000000 -0.000000 0.000000 -0.000000 -0.587962
 18 8.575572 -8.394946 9.511936 -1.535143 -1.058019 1.499774
 19 -1.465386 0.506167 4.002137 0.034889 -0.200000 -0.000001
 20 4.972047 0.000000 0.000001 -0.268460 -0.957488 -0.181689
 21 -9.249866 0.683183 -1.946118 -0.000014 -1.670796 0.000014
 22 10.313008 -0.000000 0.000000 -1.011584 0.378285 0.157005
 23 1.646738 0.449549 -1.702246 0.249172 0.398763 0.509436
 24 0.928314 0.000000 0.000000 0.000000 0.000000 0.216282
 25 0.928314 -0.000000 -0.000000 0.000000 0.000000 0.216286
 26 2.975832 -0.386307 -0.044144 -0.010133 -0.042425 0.216522
 27 1.438890 0.000003 0.000001 -0.000000 -0.000000 1.009990
 28 1.485299 -0.000005 -0.000000 0.000000 -0.000000 1.681617
 29 11.585355 0.000000 0.000001 0.000000 0.000000 -0.976337
 30 10.125607 -0.000000 0.000001 2.063110 -0.019669 -0.068506
 31 1.533671 0.109715 1.664491 -0.233255 -0.412980 0.435685
 32 0.928314 -0.000001 0.000000 0.000000 0.000000 0.000000
 33 2.683748 -0.427340 0.044205 0.001045 0.043611 0.000046
 34 1.438886 0.000003 0.000000 0.000000 0.000000 0.758827
 35 2.027418 0.730720 12.541074 -1.531161 -0.031283 2.992741
time 24
  0 1.672891 -1.672892 0.200700 0.000000 0.000000 -1.570829
  1 0.863307 0.000000 0.000000 -1.570795 -1.570451 0.000000
  2 -0.000005 0.000007 3.713254 -0.183888 -2.895779 -0.564172
  3 18.045725 0.000000 0.000000 -0.000000 -0.000000 -0.529140
  4 17.597599 0.000000 0.000000 -0.130779 -0.104601 -0.072940
  5 0.000005 -0.000003 -3.713254 0.643968 2.692475 -0.028975
  6 18.045721 -0.000000 -0.000001 0.000000 0.000000 -0.645096
  7 17.597593 0.000000 -0.000000 0.283125 0.335972 0.339786
  8 1.293338 0.684453 -0.000001 -0.327066 -0.180381 0.009878
  9 5.309647 -0.003832 -0.000000 -0.234503 0.113806 0.217971
 10 4.826592 -0.004567 -0.000000 -0.279924 0.032298 0.074700
 11 5.792761 -0.005304 -0.000000 0.021547 -0.000012 0.191976
 12 6.661936 -0.000705 0.000000 -0.000000 -0.000001 0.959670
 13 2.044495 -0.000000 -0.000000 0.861736 -0.115547 -1.144427
 14 -2.037766 2.797702 4.341911 -0.000013 -1.370798 2.181129
 15 -1.877674 2.582454 -4.140396 -0.000013 1.370795 2.181118
 16 4.827231 0.000000 0.000001 -0.591434 0.847900 -0.065720
 17 11.139763 -0.000000 -0.000000 0.000000 -0.000000 -0.587962
 18 8.575572 -8.394946 9.511936 -1.535143 -1.058019 1.499774
 19 -1.465386 0.506167 4.002137 0.034889 -0.200000 -0.000001
 20 4.972047 0.000000 0.000001 -0.290475 -0.956362 -0.131538
 21 -9.249866 0.683183 -1.946118 -0.000014 -1.670796 0.000014
 22 10.313008 -0.000000 0.000000 -1.017515 0.353113 0.140282
 23 1.646738 0.449549 -1.702246 0.245037 0.401230 0.498818
 24 0.928314 0.000000 0.000000 0.000000 0.000000 0.206188
 25 0.928314 -0.000000 -0.000000 0.000000 0.000000 0.206207
 26 2.975832 -0.386307 -0.044144 -0.009714 -0.042532 0.206409
 27 1.438890 0.000003 0.000001 -0.000000 -0.000000 0.999922
 28 1.485299 -0.000005 -0.000000 0.000000 -0.000000 1.671521
 29 11.585355 0.000000 0.000001 0.000000 0.000000 -0.976337
 30 10.125607 -0.000000 0.000001 2.088159 -0.006514 -0.061173
 31 1.533671 0.109715 1.664491 -0.233255 -0.412980 0.435685
 32 0.928314 -0.000001 0.000000 0.000000 0.000000 0.000000
 33 2.683748 -0.427340 0.044205 0.001045 0.043611 0.000046
 34 1.438886 0.000003 0.000000 0.000000 0.000000 0.758827
 35 2.027418 0.730720 12.541074 -1.531161 -0.031283 2.992741
time 25
  0 1.399446 -1.399446 0.271015 0.000000 0.000000 -1.570829
  1 0.863307 0.000000 0.000000 -1.570795 -1.570451 0.000000
  2 -0.000005 0.000007 3.713254 -0.184846 -2.888781 -0.551741
  3 18.045725 0.000000 0.000000 -0.000000 -0.000000 -0.518009
  4 17.597599 0.000000 0.000000 -0.127373 -0.113248 -0.073901
  5 0.000005 -0.000003 -3.713254 0.649995 2.703372 -0.016909
  6 18.045721 -0.000000 -0.000001 0.000000 0.000000 -0.635316
  7 17.597593 0.000000 -0.000000 0.283011 0.333725 0.345258
  8 1.293338 0.684453 -0.000001 -0.326045 -0.182299 0.004158
  9 5.309647 -0.003832 -0.000000 -0.231791 0.112260 0.211539
 10 4.826592 -0.004567 -0.000000 -0.263877 0.032502 0.071513
 11 5.792761 -0.005304 -0.000000 0.027605 -0.000012 0.191976
 12 6.661936 -0.000705 0.000000 -0.000000 -0.000001 0.959670
 13 2.044495 -0.000000 -0.000000 0.835155 -0.117528 -1.130153
 14 -2.037766 2.797702 4.341911 -0.000013 -1.370798 2.181129
 15 -1.877674 2.582454 -4.140396 -0.000013 1.370795 2.181118
 16 4.827231 0.000000 0.000001 -0.550861 0.854964 -0.042880
 17 11.139763 -0.000000 -0.000000 0.000000 -0.000000 -0.587962
 18 8.575572 -8.394946 9.511936 -1.535143 -1.058019 1.499774
 19 -1.465386 0.506167 4.002137 0.034889 -0.200000 -0.000001
 20 4.972047 0.000000 0.000001 -0.304780 -0.956604 -0.090278
 21 -9.249866 0.683183 -1.946118 -0.000014 -1.670796 0.000014
 22 10.313008 -0.000000 0.000000 -1.022128 0.332096 0.126590
 23 1.646738 0.449549 -1.702246 0.240507 0.403876 0.487253
 24 0.928314 0.000000 0.000000 0.000000 0.000000 0.195216
 25 0.928314 -0.000000 -0.000000 0.000000 0.000000 0.195241
 26 2.975832 -0.386307 -0.044144 -0.009246 -0.042628 0.195431
 27 1.438890 0.000003 0.000001 -0.000000 -0.000000 0.988934
 28 1.485299 -0.000005 -0.000000 0.000000 -0.000000 1.660539
 29 11.585355 0.000000 0.000001 0.000000 0.000000 -0.976337
 30 10.125607 -0.000000 0.000001 2.113398 0.006514 -0.053466
 31 1.533671 0.109715 1.664491 -0.233255 -0.412980 0.435685
 32 0.928314 -0.000001 0.000000 0.000000 0.000000 0.000000
 33 2.683748 -0.427340 0.044205 0.001045 0.043611 0.000046
 34 1.438886 0.000003 0.000000 0.000000 0.000000 0.758827
 35 2.027418 0.730720 12.541074 -1.531161 -0.031283 2.992741
time 26
  0 1.126000 -1.126000 0.321798 0.000000 0.000000 -1.570829
  1 0.863307 0.000000 0.000000 -1.570795 -1.570451 0.000000
  2 -0.000005 0.000007 3.713254 -0.185422 -2.881400 -0.541106
  3 18.045725 0.000000 0.000000 -0.000000 -0.000000 -0.510142
  4 17.597599 0.000000 0.000000 -0.124043 -0.122005 -0.073398
  5 0.000005 -0.000003 -3.713254 0.655352 2.713429 -0.005909
  6 18.045721 -0.000000 -0.000001 0.000000 0.000000 -0.628216
  7 17.597593 0.000000 -0.000000 0.282830 0.331665 0.352135
  8 1.293338 0.684453 -0.000001 -0.325207 -0.183797 -0.000343
  9 5.309647 -0.003832 -0.000000 -0.229295 0.110833 0.205566
 10 4.826592 -0.004567 -0.000000 -0.247889 0.032778 0.068399
 11 5.792761 -0.005304 -0.000000 0.033327 -0.000024 0.191976
 12 6.661936 -0.000705 0.000000 -0.000000 -0.000001 0.959670
 13 2.044495 -0.000000 -0.000000 0.809435 -0.117168 -1.118614
 14 -2.037766 2.797702 4.341911 -0.000013 -1.370798 2.181129
 15 -1.877674 2.582454 -4.140396 -0.000013 1.370795 2.181118
 16 4.827231 0.000000 0.000001 -0.511866 0.860155 -0.019689
 17 11.139763 -0.000000 -0.000000 0.000000 -0.000000 -0.587962
 18 8.575572 -8.394946 9.511936 -1.535143 -1.058019 1.499774
 19 -1.465386 0.506167 4.002137 0.034889 -0.200000 -0.000001
 20 4.972047 0.000000 0.000001 -0.311096 -0.958373 -0.058768
 21 -9.249866 0.683183 -1.946118 -0.000014 -1.670796 0.000014
 22 10.313008 -0.000000 0.000000 -1.025225 0.317200 0.117013
 23 1.646738 0.449549 -1.702246 0.235605 0.406631 0.474837
 24 0.928314 0.000000 0.000000 0.000000 0.000000 0.183497
 25 0.928314 -0.000000 -0.000000 0.000000 0.000000 0.183496
 26 2.975832 -0.386307 -0.044144 -0.008743 -0.042736 0.183690
 27 1.438890 0.000003 0.000001 -0.000000 -0.000000 0.977228
 28 1.485299 -0.000005 -0.000000 0.000000 -0.000000 1.648817
 29 11.585355 0.000000 0.000001 0.000000 0.000000 -0.976337
 30 10.125607 -0.000000 0.000001 2.138351 0.019353 -0.045459
 31 1.533671 0.109715 1.664491 -0.233255 -0.412980 0.435685
 32 0.928314 -0.000001 0.000000 0.000000 0.000000 0.000000
 33 2.683748 -0.427340 0.044205 0.001045 0.043611 0.000046
 34 1.438886 0.000003 0.000000 0.000000 0.000000 0.758827
 35 2.027418 0.730720 12.541074 -1.531161 -0.031283 2.992741
time 27
  0 0.852554 -0.852554 0.349142 0.000000 0.000000 -1.570829
  1 0.863307 0.000000 0.000000 -1.570795 -1.570451 0.000000
  2 -0.000005 0.000007 3.713254 -0.185517 -2.873635 -0.532801
  3 18.045725 0.000000 0.000000 -0.000000 -0.000000 -0.506432
  4 17.597599 0.000000 0.000000 -0.120789 -0.130817 -0.071110
  5 0.000005 -0.000003 -3.713254 0.659944 2.722277 0.003685
  6 18.045721 -0.000000 -0.000001 0.000000 0.000000 -0.624449
  7 17.597593 0.000000 -0.000000 0.282648 0.329862 0.360640
  8 1.293338 0.684453 -0.000001 -0.324657 -0.184815 -0.003445
  9 5.309647 -0.003832 -0.000000 -0.227063 0.109575 0.200193
 10 4.826592 -0.004567 -0.000000 -0.232309 0.033125 0.065395
 11 5.792761 -0.005304 -0.000000 0.038588 -0.000024 0.191976
 12 6.661936 -0.000705 0.000000 -0.000000 -0.000001 0.959670
 13 2.044495 -0.000000 -0.000000 0.785373 -0.114826 -1.110343
 14 -2.037766 2.797702 4.341911 -0.000013 -1.370798 2.181129
 15 -1.877674 2.582454 -4.140396 -0.000013 1.370795 2.181118
 16 4.827231 0.000000 0.000001 -0.475674 0.863559 0.003064
 17 11.139763 -0.000000 -0.000000 0.000000 -0.000000 -0.587962
 18 8.575572 -8.394946 9.511936 -1.535143 -1.058019 1.499774
 19 -1.465386 0.506167 4.002137 0.034889 -0.200000 -0.000001
 20 4.972047 0.000000 0.000001 -0.309517 -0.961671 -0.037553
 21 -9.249866 0.683183 -1.946118 -0.000014 -1.670796 0.000014
 22 10.313008 -0.000000 0.000000 -1.027202 0.306826 0.110429
 23 1.646738 0.449549 -1.702246 0.230392 0.409493 0.461702
 24 0.928314 0.000000 0.000000 0.000000 0.000000 0.171087
 25 0.928314 -0.000000 -0.000000 0.000000 0.000000 0.171104
 26 2.975832 -0.386307 -0.044144 -0.008215 -0.042844 0.171292
 27 1.438890 0.000003 0.000001 -0.000000 -0.000000 0.964802
 28 1.485299 -0.000005 -0.000000 0.000000 -0.000000 1.636407
 29 11.585355 0.000000 0.000001 0.000000 0.000000 -0.976337
 30 10.125607 -0.000000 0.000001 2.162734 0.031686 -0.037303
 31 1.533671 0.109715 1.664491 -0.233255 -0.412980 0.435685
 32 0.928314 -0.000001 0.000000 0.000000 0.000000 0.000000
 33 2.683748 -0.427340 0.044205 0.001045 0.043611 0.000046
 34 1.438886 0.000003 0.000000 0.000000 0.000000 0.758827
 35 2.027418 0.730720 12.541074 -1.531161 -0.031283 2.992741
time 28
  0 0.586921 -0.586921 0.337423 0.000000 0.000000 -1.570829
  1 0.863307 0.000000 0.000000 -1.570795 -1.570451 0.000000
  2 -0.000005 0.000007 3.713254 -0.184463 -2.865199 -0.528431
  3 18.045725 0.000000 0.000000 -0.000000 -0.000000 -0.509697
  4 17.597599 0.000000 0.000000 -0.117637 -0.139601 -0.065711
  5 0.000005 -0.000003 -3.713254 0.663388 2.729075 0.010760
  6 18.045721 -0.000000 -0.000001 0.000000 0.000000 -0.626478
  7 17.597593 0.000000 -0.000000 0.282444 0.328435 0.371917
  8 1.293338 0.684453 -0.000001 -0.324369 -0.185307 -0.004916
  9 5.309647 -0.003832 -0.000000 -0.225195 0.108497 0.195598
 10 4.826592 -0.004567 -0.000000 -0.217544 0.033521 0.062574
 11 5.792761 -0.005304 -0.000000 0.043262 -0.000024 0.191976
 12 6.661936 -0.000705 0.000000 -0.000000 -0.000001 0.959670
 13 2.044495 -0.000000 -0.000000 0.763564 -0.110774 -1.105607
 14 -2.037766 2.797702 4.341911 -0.000013 -1.370798 2.181129
 15 -1.877674 2.582454 -4.140396 -0.000013 1.370795 2.181118
 16 4.827231 0.000000 0.000001 -0.443513 0.865346 0.024679
 17 11.139763 -0.000000 -0.000000 0.000000 -0.000000 -0.587962
 18 8.575572 -8.394946 9.511936 -1.535143 -1.058019 1.499774
 19 -1.465386 0.506167 4.002137 0.034889 -0.200000 -0.000001
 20 4.972047 0.000000 0.000001 -0.300043 -0.966337 -0.027179
 21 -9.249866 0.683183 -1.946118 -0.000014 -1.670796 0.000014
 22 10.313008 -0.000000 0.000000 -1.028849 0.298026 0.104892
 23 1.646738 0.449549 -1.702246 0.224903 0.412428 0.447944
 24 0.928314 0.000000 0.000000 0.000000 0.000000 0.158143
 25 0.928314 -0.000000 -0.000000 0.000000 0.000000 0.158161
 26 2.975832 -0.386307 -0.044144 -0.007652 -0.042952 0.158340
 27 1.438890 0.000003 0.000001 -0.000000 -0.000000 0.951857
 28 1.485299 -0.000005 -0.000000 0.000000 -0.000000 1.623503
 29 11.585355 0.000000 0.000001 0.000000 0.000000 -0.976337
 30 10.125607 -0.000000 0.000001 2.185973 0.043450 -0.029296
 31 1.533671 0.109715 1.664491 -0.233255 -0.412980 0.435685
 32 0.928314 -0.000001 0.000000 0.000000 0.000000 0.000000
 33 2.683748 -0.427340 0.044205 0.001045 0.043611 0.000046
 34 1.438886 0.000003 0.000000 0.000000 0.000000 0.758827
 35 2.027418 0.730720 12.541074 -1.531161 -0.031283 2.992741
time 29
  0 0.333007 -0.333007 0.286641 0.000000 0.000000 -1.570829
  1 0.863307 0.000000 0.000000 -1.570795 -1.570451 0.000000
  2 -0.000005 0.000007 3.713254 -0.182354 -2.856284 -0.528140
  3 18.045725 0.000000 0.000000 -0.000000 -0.000000 -0.519864
  4 17.597599 0.000000 0.000000 -0.114612 -0.148248 -0.057293
  5 0.000005 -0.000003 -3.713254 0.665588 2.733545 0.015411
  6 18.045721 -0.000000 -0.000001 0.000000 0.000000 -0.634374
  7 17.597593 0.000000 -0.000000 0.282240 0.327451 0.385820
  8 1.293338 0.684453 -0.000001 -0.324500 -0.185091 -0.004288
  9 5.309647 -0.003832 -0.000000 -0.223741 0.107658 0.191923
 10 4.826592 -0.004567 -0.000000 -0.203954 0.033964 0.060046
 11 5.792761 -0.005304 -0.000000 0.047203 -0.000036 0.191976
 12 6.661936 -0.000705 0.000000 -0.000000 -0.000001 0.959670
 13 2.044495 -0.000000 -0.000000 0.744673 -0.105303 -1.105006
 14 -2.037766 2.797702 4.341911 -0.000013 -1.370798 2.181129
 15 -1.877674 2.582454 -4.140396 -0.000013 1.370795 2.181118
 16 4.827231 0.000000 0.000001 -0.417136 0.865686 0.044282
 17 11.139763 -0.000000 -0.000000 0.000000 -0.000000 -0.587962
 18 8.575572 -8.394946 9.511936 -1.535143 -1.058019 1.499774
 19 -1.465386 0.506167 4.002137 0.034889 -0.200000 -0.000001
 20 4.972047 0.000000 0.000001 -0.282115 -0.972129 -0.028739
 21 -9.249866 0.683183 -1.946118 -0.000014 -1.670796 0.000014
 22 10.313008 -0.000000 0.000000 -1.030233 0.290652 0.100253
 23 1.646738 0.449549 -1.702246 0.219162 0.415362 0.433694
 24 0.928314 0.000000 0.000000 0.000000 0.000000 0.144774
 25 0.928314 -0.000000 -0.000000 0.000000 0.000000 0.144786
 26 2.975832 -0.386307 -0.044144 -0.007077 -0.043048 0.144937
 27 1.438890 0.000003 0.000001 -0.000000 -0.000000 0.938473
 28 1.485299 -0.000005 -0.000000 0.000000 -0.000000 1.610108
 29 11.585355 0.000000 0.000001 0.000000 0.000000 -0.976337
 30 10.125607 -0.000000 0.000001 2.207879 0.054391 -0.021440
 31 1.533671 0.109715 1.664491 -0.233255 -0.412980 0.435685
 32 0.928314 -0.000001 0.000000 0.000000 0.000000 0.000000
 33 2.683748 -0.427340 0.044205 0.001045 0.043611 0.000046
 34 1.438886 0.000003 0.000000 0.000000 0.000000 0.758827
 35 2.027418 0.730720 12.541074 -1.531161 -0.031283 2.992741
time 30
  0 0.090812 -0.090812 0.204607 0.000000 0.000000 -1.570829
  1 0.863307 0.000000 0.000000 -1.570795 -1.570451 0.000000
  2 -0.000005 0.000007 3.713254 -0.179191 -2.846986 -0.531345
  3 18.045725 0.000000 0.000000 -0.000000 -0.000000 -0.535819
  4 17.597599 0.000000 0.000000 -0.111766 -0.156620 -0.046496
  5 0.000005 -0.000003 -3.713254 0.666927 2.735967 0.017883
  6 18.045721 -0.000000 -0.000001 0.000000 0.000000 -0.647052
  7 17.597593 0.000000 -0.000000 0.282035 0.326843 0.401756
  8 1.293338 0.684453 -0.000001 -0.325024 -0.184156 -0.001437
  9 5.309647 -0.003832 -0.000000 -0.222815 0.107082 0.189386
 10 4.826592 -0.004567 -0.000000 -0.191921 0.034420 0.057848
 11 5.792761 -0.005304 -0.000000 0.050263 -0.000036 0.191976
 12 6.661936 -0.000705 0.000000 -0.000000 -0.000001 0.959670
 13 2.044495 -0.000000 -0.000000 0.729360 -0.098683 -1.108808
 14 -2.037766 2.797702 4.341911 -0.000013 -1.370798 2.181129
 15 -1.877674 2.582454 -4.140396 -0.000013 1.370795 2.181118
 16 4.827231 0.000000 0.000001 -0.397507 0.865005 0.061346
 17 11.139763 -0.000000 -0.000000 0.000000 -0.000000 -0.587962
 18 8.575572 -8.394946 9.511936 -1.535143 -1.058019 1.499774
 19 -1.465386 0.506167 4.002137 0.034889 -0.200000 -0.000001
 20 4.972047 0.000000 0.000001 -0.255456 -0.978725 -0.042934
 21 -9.249866 0.683183 -1.946118 -0.000014 -1.670796 0.000014
 22 10.313008 -0.000000 0.000000 -1.031288 0.284482 0.096400
 23 1.646738 0.449549 -1.702246 0.213242 0.418315 0.419049
 24 0.928314 0.000000 0.000000 0.000000 0.000000 0.131058
 25 0.928314 -0.000000 -0.000000 0.000000 0.000000 0.131075
 26 2.975832 -0.386307 -0.044144 -0.006490 -0.043144 0.131222
 27 1.438890 0.000003 0.000001 -0.000000 -0.000000 0.924769
 28 1.485299 -0.000005 -0.000000 0.000000 -0.000000 1.596367
 29 11.585355 0.000000 0.000001 0.000000 0.000000 -0.976337
 30 10.125607 -0.000000 0.000001 2.227689 0.064320 -0.014032
 31 1.533671 0.109715 1.664491 -0.233255 -0.412980 0.435685
 32 0.928314 -0.000001 0.000000 0.000000 0.000000 0.000000
 33 2.683748 -0.427340 0.044205 0.001045 0.043611 0.000046
 34 1.438886 0.000003 0.000000 0.000000 0.000000 0.758827
 35 2.027418 0.730720 12.541074 -1.531161 -0.031283 2.992741
time 31
  0 -0.135758 0.135758 0.095228 0.000000 0.000000 -1.570829
  1 0.863307 0.000000 0.000000 -1.570795 -1.570451 0.000000
  2 -0.000005 0.000007 3.713254 -0.175262 -2.837687 -0.537463
  3 18.045725 0.000000 0.000000 -0.000000 -0.000000 -0.556079
  4 17.597599 0.000000 0.000000 -0.109097 -0.164606 -0.033960
  5 0.000005 -0.000003 -3.713254 0.667310 2.736619 0.018416
  6 18.045721 -0.000000 -0.000001 0.000000 0.000000 -0.663642
  7 17.597593 0.000000 -0.000000 0.281877 0.326609 0.419097
  8 1.293338 0.684453 -0.000001 -0.325888 -0.182574 0.003297
  9 5.309647 -0.003832 -0.000000 -0.222600 0.106867 0.188367
 10 4.826592 -0.004567 -0.000000 -0.181830 0.034863 0.056090
 11 5.792761 -0.005304 -0.000000 0.052359 -0.000036 0.191976
 12 6.661936 -0.000705 0.000000 -0.000000 -0.000001 0.959670
 13 2.044495 -0.000000 -0.000000 0.718224 -0.091343 -1.116946
 14 -2.037766 2.797702 4.341911 -0.000013 -1.370798 2.181129
 15 -1.877674 2.582454 -4.140396 -0.000013 1.370795 2.181118
 16 4.827231 0.000000 0.000001 -0.385414 0.863899 0.075698
 17 11.139763 -0.000000 -0.000000 0.000000 -0.000000 -0.587962
 18 8.575572 -8.394946 9.511936 -1.535143 -1.058019 1.499774
 19 -1.465386 0.506167 4.002137 0.034889 -0.200000 -0.000001
 20 4.972047 0.000000 0.000001 -0.220344 -0.985401 -0.070077
 21 -9.249866 0.683183 -1.946118 -0.000014 -1.670796 0.000014
 22 10.313008 -0.000000 0.000000 -1.032210 0.279344 0.093220
 23 1.646738 0.449549 -1.702246 0.207154 0.421213 0.404128
 24 0.928314 0.000000 0.000000 0.000000 0.000000 0.117129
 25 0.928314 -0.000000 -0.000000 0.000000 0.000000 0.117137
 26 2.975832 -0.386307 -0.044144 -0.005890 -0.043227 0.117266
 27 1.438890 0.000003 0.000001 -0.000000 -0.000000 0.910865
 28 1.485299 -0.000005 -0.000000 0.000000 -0.000000 1.582430
 29 11.585355 0.000000 0.000001 0.000000 0.000000 -0.976337
 30 10.125607 -0.000000 0.000001 2.245309 0.073112 -0.007297
 31 1.533671 0.109715 1.664491 -0.233255 -0.412980 0.435685
 32 0.928314 -0.000001 0.000000 0.000000 0.000000 0.000000
 33 2.683748 -0.427340 0.044205 0.001045 0.043611 0.000046
 34 1.438886 0.000003 0.000000 0.000000 0.000000 0.758827
 35 2.027418 0.730720 12.541074 -1.531161 -0.031283 2.992741
time 32
  0 -0.338889 0.338889 -0.037588 0.000000 0.000000 -1.570829
  1 0.863307 0.000000 0.000000 -1.570795 -1.570451 0.000000
  2 -0.000005 0.000007 3.713254 -0.170469 -2.828676 -0.545913
  3 18.045725 0.000000 0.000000 -0.000000 -0.000000 -0.579603
  4 17.597599 0.000000 0.000000 -0.106631 -0.172013 -0.020326
  5 0.000005 -0.000003 -3.713254 0.667023 2.735687 0.017301
  6 18.045721 -0.000000 -0.000001 0.000000 0.000000 -0.683274
  7 17.597593 0.000000 -0.000000 0.281763 0.326702 0.437252
  8 1.293338 0.684453 -0.000001 -0.327014 -0.180477 0.009627
  9 5.309647 -0.003832 -0.000000 -0.223228 0.107034 0.189027
 10 4.826592 -0.004567 -0.000000 -0.174064 0.035283 0.054844
 11 5.792761 -0.005304 -0.000000 0.052673 -0.000036 0.191976
 12 6.661936 -0.000705 0.000000 -0.000000 -0.000001 0.959670
 13 2.044495 -0.000000 -0.000000 0.712523 -0.083463 -1.129086
 14 -2.037766 2.797702 4.341911 -0.000013 -1.370798 2.181129
 15 -1.877674 2.582454 -4.140396 -0.000013 1.370795 2.181118
 16 4.827231 0.000000 0.000001 -0.381033 0.862878 0.088125
 17 11.139763 -0.000000 -0.000000 0.000000 -0.000000 -0.587962
 18 8.575572 -8.394946 9.511936 -1.535143 -1.058019 1.499774
 19 -1.465386 0.506167 4.002137 0.034889 -0.200000 -0.000001
 20 4.972047 0.000000 0.000001 -0.177801 -0.991274 -0.110401
 21 -9.249866 0.683183 -1.946118 -0.000014 -1.670796 0.000014
 22 10.313008 -0.000000 0.000000 -1.032935 0.275018 0.090526
 23 1.646738 0.449549 -1.702246 0.200970 0.424058 0.389051
 24 0.928314 0.000000 0.000000 0.000000 0.000000 0.103094
 25 0.928314 -0.000000 -0.000000 0.000000 0.000000 0.103103
 26 2.975832 -0.386307 -0.044144 -0.005279 -0.043299 0.103205
 27 1.438890 0.000003 0.000001 -0.000000 -0.000000 0.896802
 28 1.485299 -0.000005 -0.000000 0.000000 -0.000000 1.568394
 29 11.585355 0.000000 0.000001 0.000000 0.000000 -0.976337
 30 10.125607 -0.000000 0.000001 2.259977 0.080638 -0.001461
 31 1.533671 0.109715 1.664491 -0.233255 -0.412980 0.435685
 32 0.928314 -0.000001 0.000000 0.000000 0.000000 0.000000
 33 2.683748 -0.427340 0.044205 0.001045 0.043611 0.000046
 34 1.438886 0.000003 0.000000 0.000000 0.000000 0.758827
 35 2.027418 0.730720 12.541074 -1.531161 -0.031283 2.992741
time 33
  0 -0.518582 0.518582 -0.189937 0.000000 0.000000 -1.570829
  1 0.863307 0.000000 0.000000 -1.570795 -1.570451 0.000000
  2 -0.000005 0.000007 3.713254 -0.165197 -2.820144 -0.556257
  3 18.045725 0.000000 0.000000 -0.000000 -0.000000 -0.605355
  4 17.597599 0.000000 0.000000 -0.104420 -0.178760 -0.006144
  5 0.000005 -0.000003 -3.713254 0.665971 2.733266 0.014733
  6 18.045721 -0.000000 -0.000001 0.000000 0.000000 -0.705008
  7 17.597593 0.000000 -0.000000 0.281695 0.327124 0.455666
  8 1.293338 0.684453 -0.000001 -0.328376 -0.177936 0.017212
  9 5.309647 -0.003832 -0.000000 -0.224518 0.107526 0.191064
 10 4.826592 -0.004567 -0.000000 -0.170025 0.035714 0.054441
 11 5.792761 -0.005304 -0.000000 0.050892 -0.000036 0.191976
 12 6.661936 -0.000705 0.000000 -0.000000 -0.000001 0.959670
 13 2.044495 -0.000000 -0.000000 0.713650 -0.075177 -1.144827
 14 -2.037766 2.797702 4.341911 -0.000013 -1.370798 2.181129
 15 -1.877674 2.582454 -4.140396 -0.000013 1.370795 2.181118
 16 4.827231 0.000000 0.000001 -0.384801 0.862538 0.099676
 17 11.139763 -0.000000 -0.000000 0.000000 -0.000000 -0.587962
 18 8.575572 -8.394946 9.511936 -1.535143 -1.058019 1.499774
 19 -1.465386 0.506167 4.002137 0.034889 -0.200000 -0.000001
 20 4.972047 0.000000 0.000001 -0.129499 -0.995537 -0.163750
 21 -9.249866 0.683183 -1.946118 -0.000014 -1.670796 0.000014
 22 10.313008 -0.000000 0.000000 -1.033528 0.271331 0.088282
 23 1.646738 0.449549 -1.702246 0.194738 0.426830 0.373939
 24 0.928314 0.000000 0.000000 0.000000 0.000000 0.089059
 25 0.928314 -0.000000 -0.000000 0.000000 0.000000 0.089057
 26 2.975832 -0.386307 -0.044144 -0.004668 -0.043371 0.089179
 27 1.438890 0.000003 0.000001 -0.000000 -0.000000 0.882778
 28 1.485299 -0.000005 -0.000000 0.000000 -0.000000 1.554358
 29 11.585355 0.000000 0.000001 0.000000 0.000000 -0.976337
 30 10.125607 -0.000000 0.000001 2.271406 0.086773 0.003328
 31 1.533671 0.109715 1.664491 -0.233255 -0.412980 0.435685
 32 0.928314 -0.000001 0.000000 0.000000 0.000000 0.000000
 33 2.683748 -0.427340 0.044205 0.001045 0.043611 0.000046
 34 1.438886 0.000003 0.000000 0.000000 0.000000 0.758827
 35 2.027418 0.730720 12.541074 -1.531161 -0.031283 2.992741
time 34
  0 -0.670930 0.670930 -0.354004 0.000000 0.000000 -1.570829
  1 0.863307 0.000000 0.000000 -1.570795 -1.570451 0.000000
  2 -0.000005 0.000007 3.713254 -0.159542 -2.812380 -0.568057
  3 18.045725 0.000000 0.000000 -0.000000 -0.000000 -0.632293
  4 17.597599 0.000000 0.000000 -0.102513 -0.184626 0.008176
  5 0.000005 -0.000003 -3.713254 0.664249 2.729541 0.010808
  6 18.045721 -0.000000 -0.000001 0.000000 0.000000 -0.728262
  7 17.597593 0.000000 -0.000000 0.281672 0.327849 0.473747
  8 1.293338 0.684453 -0.000001 -0.329868 -0.175072 0.025747
  9 5.309647 -0.003832 -0.000000 -0.226353 0.108281 0.194180
 10 4.826592 -0.004567 -0.000000 -0.170229 0.036169 0.055137
 11 5.792761 -0.005304 -0.000000 0.047370 -0.000036 0.191976
 12 6.661936 -0.000705 0.000000 -0.000000 -0.000001 0.959670
 13 2.044495 -0.000000 -0.000000 0.721538 -0.066599 -1.163237
 14 -2.037766 2.797702 4.341911 -0.000013 -1.370798 2.181129
 15 -1.877674 2.582454 -4.140396 -0.000013 1.370795 2.181118
 16 4.827231 0.000000 0.000001 -0.395842 0.863218 0.110615
 17 11.139763 -0.000000 -0.000000 0.000000 -0.000000 -0.587962
 18 8.575572 -8.394946 9.511936 -1.535143 -1.058019 1.499774
 19 -1.465386 0.506167 4.002137 0.034889 -0.200000 -0.000001
 20 4.972047 0.000000 0.000001 -0.077203 -0.997548 -0.228253
 21 -9.249866 0.683183 -1.946118 -0.000014 -1.670796 0.000014
 22 10.313008 -0.000000 0.000000 -1.034055 0.268110 0.086261
 23 1.646738 0.449549 -1.702246 0.188494 0.429477 0.358898
 24 0.928314 0.000000 0.000000 0.000000 0.000000 0.075130
 25 0.928314 -0.000000 -0.000000 0.000000 0.000000 0.075119
 26 2.975832 -0.386307 -0.044144 -0.004069 -0.043431 0.075222
 27 1.438890 0.000003 0.000001 -0.000000 -0.000000 0.868834
 28 1.485299 -0.000005 -0.000000 0.000000 -0.000000 1.540420
 29 11.585355 0.000000 0.000001 0.000000 0.000000 -0.976337
 30 10.125607 -0.000000 0.000001 2.274549 0.090061 0.005349
 31 1.533671 0.109715 1.664491 -0.233255 -0.412980 0.435685
 32 0.928314 -0.000001 0.000000 0.000000 0.000000 0.000000
 33 2.683748 -0.427340 0.044205 0.001045 0.043611 0.000046
 34 1.438886 0.000003 0.000000 0.000000 0.000000 0.758827
 35 2.027418 0.730720 12.541074 -1.531161 -0.031283 2.992741
time 35
  0 -0.745151 0.745151 -0.525884 0.000000 0.000000 -1.570829
  1 0.863307 0.000000 0.000000 -1.570795 -1.570451 0.000000
  2 -0.000005 0.000007 3.713254 -0.153791 -2.806820 -0.582189
  3 18.045725 0.000000 0.000000 -0.000000 -0.000000 -0.660196
  4 17.597599 0.000000 0.000000 -0.101369 -0.188068 0.021764
  5 0.000005 -0.000003 -3.713254 0.661092 2.723301 0.004218
  6 18.045721 -0.000000 -0.000001 0.000000 0.000000 -0.752749
  7 17.597593 0.000000 -0.000000 0.281763 0.329090 0.489683
  8 1.293338 0.684453 -0.000001 -0.331465 -0.171968 0.034910
  9 5.309647 -0.003832 -0.000000 -0.228568 0.109240 0.198075
 10 4.826592 -0.004567 -0.000000 -0.173765 0.036661 0.056676
 11 5.792761 -0.005304 -0.000000 0.042529 -0.000024 0.191976
 12 6.661936 -0.000705 0.000000 -0.000000 -0.000001 0.959670
 13 2.044495 -0.000000 -0.000000 0.734464 -0.057863 -1.183115
 14 -2.037766 2.797702 4.341911 -0.000013 -1.370798 2.181129
 15 -1.877674 2.582454 -4.140396 -0.000013 1.370795 2.181118
 16 4.827231 0.000000 0.000001 -0.412843 0.864665 0.120416
 17 11.139763 -0.000000 -0.000000 0.000000 -0.000000 -0.587962
 18 8.575572 -8.394946 9.511936 -1.535143 -1.058019 1.499774
 19 -1.465386 0.506167 4.002137 0.034889 -0.200000 -0.000001
 20 4.972047 0.000000 0.000001 -0.022770 -0.997146 -0.300243
 21 -9.249866 0.683183 -1.946118 -0.000014 -1.670796 0.000014
 22 10.313008 -0.000000 0.000000 -1.034583 0.265136 0.084428
 23 1.646738 0.449549 -1.702246 0.182298 0.431997 0.344073
 24 0.928314 0.000000 0.000000 0.000000 0.000000 0.061414
 25 0.928314 -0.000000 -0.000000 0.000000 0.000000 0.061409
 26 2.975832 -0.386307 -0.044144 -0.003470 -0.043491 0.061507
 27 1.438890 0.000003 0.000001 -0.000000 -0.000000 0.855130
 28 1.485299 -0.000005 -0.000000 0.000000 -0.000000 1.526729
 29 11.585355 0.000000 0.000001 0.000000 0.000000 -0.976337
 30 10.125607 -0.000000 0.000001 2.266263 0.089682 0.003702
 31 1.533671 0.109715 1.664491 -0.233255 -0.412980 0.435685
 32 0.928314 -0.000001 0.000000 0.000000 0.000000 0.000000
 33 2.683748 -0.427340 0.044205 0.001045 0.043611 0.000046
 34 1.438886 0.000003 0.000000 0.000000 0.000000 0.758827
 35 2.027418 0.730720 12.541074 -1.531161 -0.031283 2.992741
time 36
  0 -0.717807 0.717807 -0.705577 0.000000 0.000000 -1.570829
  1 0.863307 0.000000 0.000000 -1.570795 -1.570451 0.000000
  2 -0.000005 0.000007 3.713254 -0.148328 -2.804327 -0.598991
  3 18.045725 0.000000 0.000000 -0.000000 -0.000000 -0.688545
  4 17.597599 0.000000 0.000000 -0.101344 -0.188040 0.034117
  5 0.000005 -0.000003 -3.713254 0.656308 2.713988 -0.005909
  6 18.045721 -0.000000 -0.000001 0.000000 0.000000 -0.778104
  7 17.597593 0.000000 -0.000000 0.281990 0.330986 0.502069
  8 1.293338 0.684453 -0.000001 -0.333062 -0.168732 0.044395
  9 5.309647 -0.003832 -0.000000 -0.231048 0.110318 0.202510
 10 4.826592 -0.004567 -0.000000 -0.179673 0.037164 0.058764
 11 5.792761 -0.005304 -0.000000 0.036806 -0.000024 0.191976
 12 6.661936 -0.000705 0.000000 -0.000000 -0.000001 0.959670
 13 2.044495 -0.000000 -0.000000 0.750904 -0.049443 -1.202925
 14 -2.037766 2.797702 4.341911 -0.000013 -1.370798 2.181129
 15 -1.877674 2.582454 -4.140396 -0.000013 1.370795 2.181118
 16 4.827231 0.000000 0.000001 -0.434049 0.866622 0.128905
 17 11.139763 -0.000000 -0.000000 0.000000 -0.000000 -0.587962
 18 8.575572 -8.394946 9.511936 -1.535143 -1.058019 1.499774
 19 -1.465386 0.506167 4.002137 0.034889 -0.200000 -0.000001
 20 4.972047 0.000000 0.000001 0.031663 -0.994491 -0.375977
 21 -9.249866 0.683183 -1.946118 -0.000014 -1.670796 0.000014
 22 10.313008 -0.000000 0.000000 -1.035044 0.262211 0.082670
 23 1.646738 0.449549 -1.702246 0.176209 0.434392 0.329560
 24 0.928314 0.000000 0.000000 0.000000 0.000000 0.048018
 25 0.928314 -0.000000 -0.000000 0.000000 0.000000 0.048034
 26 2.975832 -0.386307 -0.044144 -0.002882 -0.043527 0.048105
 27 1.438890 0.000003 0.000001 -0.000000 -0.000000 0.841746
 28 1.485299 -0.000005 -0.000000 0.000000 -0.000000 1.513334
 29 11.585355 0.000000 0.000001 0.000000 0.000000 -0.976337
 30 10.125607 -0.000000 0.000001 2.249405 0.086520 -0.000787
 31 1.533671 0.109715 1.664491 -0.233255 -0.412980 0.435685
 32 0.928314 -0.000001 0.000000 0.000000 0.000000 0.000000
 33 2.683748 -0.427340 0.044205 0.001045 0.043611 0.000046
 34 1.438886 0.000003 0.000000 0.000000 0.000000 0.758827
 35 2.027418 0.730720 12.541074 -1.531161 -0.031283 2.992741
time 37
  0 -0.608428 0.608428 -0.881364 0.000000 0.000000 -1.570829
  1 0.863307 0.000000 0.000000 -1.570795 -1.570451 0.000000
  2 -0.000005 0.000007 3.713254 -0.143248 -2.804519 -0.617396
  3 18.045725 0.000000 0.000000 -0.000000 -0.000000 -0.716448
  4 17.597599 0.000000 0.000000 -0.102183 -0.185314 0.045006
  5 0.000005 -0.000003 -3.713254 0.649995 2.702347 -0.018653
  6 18.045721 -0.000000 -0.000001 0.000000 0.000000 -0.803388
  7 17.597593 0.000000 -0.000000 0.282285 0.333350 0.511313
  8 1.293338 0.684453 -0.000001 -0.334660 -0.165484 0.053899
  9 5.309647 -0.003832 -0.000000 -0.233610 0.111457 0.207144
 10 4.826592 -0.004567 -0.000000 -0.187044 0.037680 0.061219
 11 5.792761 -0.005304 -0.000000 0.030560 -0.000024 0.191976
 12 6.661936 -0.000705 0.000000 -0.000000 -0.000001 0.959670
 13 2.044495 -0.000000 -0.000000 0.769133 -0.041518 -1.221668
 14 -2.037766 2.797702 4.341911 -0.000013 -1.370798 2.181129
 15 -1.877674 2.582454 -4.140396 -0.000013 1.370795 2.181118
 16 4.827231 0.000000 0.000001 -0.463406 0.866707 0.125054
 17 11.139763 -0.000000 -0.000000 0.000000 -0.000000 -0.587962
 18 8.575572 -8.394946 9.511936 -1.535143 -1.058019 1.499774
 19 -1.465386 0.506167 4.002137 0.034889 -0.200000 -0.000001
 20 4.972047 0.000000 0.000001 0.084052 -0.989745 -0.451711
 21 -9.249866 0.683183 -1.946118 -0.000014 -1.670796 0.000014
 22 10.313008 -0.000000 0.000000 -1.035505 0.259163 0.080800
 23 1.646738 0.449549 -1.702246 0.170277 0.436624 0.315502
 24 0.928314 0.000000 0.000000 0.000000 0.000000 0.035075
 25 0.928314 -0.000000 -0.000000 0.000000 0.000000 0.035091
 26 2.975832 -0.386307 -0.044144 -0.002319 -0.043563 0.035152
 27 1.438890 0.000003 0.000001 -0.000000 -0.000000 0.828801
 28 1.485299 -0.000005 -0.000000 0.000000 -0.000000 1.500381
 29 11.585355 0.000000 0.000001 0.000000 0.000000 -0.976337
 30 10.125607 -0.000000 0.000001 2.226832 0.081144 -0.007073
 31 1.533671 0.109715 1.664491 -0.233255 -0.412980 0.435685
 32 0.928314 -0.000001 0.000000 0.000000 0.000000 0.000000
 33 2.683748 -0.427340 0.044205 0.001045 0.043611 0.000046
 34 1.438886 0.000003 0.000000 0.000000 0.000000 0.758827
 35 2.027418 0.730720 12.541074 -1.531161 -0.031283 2.992741
time 38
  0 -0.444361 0.444361 -1.053244 0.000000 0.000000 -1.570829
  1 0.863307 0.000000 0.000000 -1.570795 -1.570451 0.000000
  2 -0.000005 0.000007 3.713254 -0.138839 -2.806628 -0.636238
  3 18.045725 0.000000 0.000000 -0.000000 -0.000000 -0.742867
  4 17.597599 0.000000 0.000000 -0.103708 -0.180578 0.054385
  5 0.000005 -0.000003 -3.713254 0.642724 2.689588 -0.032851
  6 18.045721 -0.000000 -0.000001 0.000000 0.000000 -0.827657
  7 17.597593 0.000000 -0.000000 0.282625 0.336018 0.517673
  8 1.293338 0.684453 -0.000001 -0.336152 -0.162308 0.063116
  9 5.309647 -0.003832 -0.000000 -0.236139 0.112595 0.211699
 10 4.826592 -0.004567 -0.000000 -0.194941 0.038195 0.063747
 11 5.792761 -0.005304 -0.000000 0.024251 -0.000012 0.191976
 12 6.661936 -0.000705 0.000000 -0.000000 -0.000001 0.959670
 13 2.044495 -0.000000 -0.000000 0.787759 -0.033953 -1.239011
 14 -2.037766 2.797702 4.341911 -0.000013 -1.370798 2.181129
 15 -1.877674 2.582454 -4.140396 -0.000013 1.370795 2.181118
 16 4.827231 0.000000 0.000001 -0.501350 0.862452 0.104752
 17 11.139763 -0.000000 -0.000000 0.000000 -0.000000 -0.587962
 18 8.575572 -8.394946 9.511936 -1.535143 -1.058019 1.499774
 19 -1.465386 0.506167 4.002137 0.034889 -0.200000 -0.000001
 20 4.972047 0.000000 0.000001 0.132633 -0.983632 -0.524091
 21 -9.249866 0.683183 -1.946118 -0.000014 -1.670796 0.000014
 22 10.313008 -0.000000 0.000000 -1.036032 0.255820 0.078742
 23 1.646738 0.449549 -1.702246 0.164560 0.438676 0.302007
 24 0.928314 0.000000 0.000000 0.000000 0.000000 0.022691
 25 0.928314 -0.000000 -0.000000 0.000000 0.000000 0.022699
 26 2.975832 -0.386307 -0.044144 -0.001780 -0.043587 0.022754
 27 1.438890 0.000003 0.000001 -0.000000 -0.000000 0.816415
 28 1.485299 -0.000005 -0.000000 0.000000 -0.000000 1.488020
 29 11.585355 0.000000 0.000001 0.000000 0.000000 -0.976337
 30 10.125607 -0.000000 0.000001 2.201212 0.074440 -0.014331
 31 1.533671 0.109715 1.664491 -0.233255 -0.412980 0.435685
 32 0.928314 -0.000001 0.000000 0.000000 0.000000 0.000000
 33 2.683748 -0.427340 0.044205 0.001045 0.043611 0.000046
 34 1.438886 0.000003 0.000000 0.000000 0.000000 0.758827
 35 2.027418 0.730720 12.541074 -1.531161 -0.031283 2.992741
time 39
  0 -0.249042 0.249042 -1.213405 0.000000 0.000000 -1.570829
  1 0.863307 0.000000 0.000000 -1.570795 -1.570451 0.000000
  2 -0.000005 0.000007 3.713254 -0.135197 -2.810175 -0.654546
  3 18.045725 0.000000 0.000000 -0.000000 -0.000000 -0.766911
  4 17.597599 0.000000 0.000000 -0.105690 -0.174602 0.062117
  5 0.000005 -0.000003 -3.713254 0.635071 2.676550 -0.047679
  6 18.045721 -0.000000 -0.000001 0.000000 0.000000 -0.849970
  7 17.597593 0.000000 -0.000000 0.282943 0.338804 0.521629
  8 1.293338 0.684453 -0.000001 -0.337540 -0.159336 0.071741
  9 5.309647 -0.003832 -0.000000 -0.238487 0.113662 0.215893
 10 4.826592 -0.004567 -0.000000 -0.202420 0.038698 0.066128
 11 5.792761 -0.005304 -0.000000 0.018256 -0.000012 0.191976
 12 6.661936 -0.000705 0.000000 -0.000000 -0.000001 0.959670
 13 2.044495 -0.000000 -0.000000 0.805193 -0.026725 -1.254686
 14 -2.037766 2.797702 4.341911 -0.000013 -1.370798 2.181129
 15 -1.877674 2.582454 -4.140396 -0.000013 1.370795 2.181118
 16 4.827231 0.000000 0.000001 -0.541222 0.854708 0.076923
 17 11.139763 -0.000000 -0.000000 0.000000 -0.000000 -0.587962
 18 8.575572 -8.394946 9.511936 -1.535143 -1.058019 1.499774
 19 -1.465386 0.506167 4.002137 0.034889 -0.200000 -0.000001
 20 4.972047 0.000000 0.000001 0.176105 -0.976633 -0.589997
 21 -9.249866 0.683183 -1.946118 -0.000014 -1.670796 0.000014
 22 10.313008 -0.000000 0.000000 -1.036625 0.251936 0.076348
 23 1.646738 0.449549 -1.702246 0.159119 0.440585 0.289208
 24 0.928314 0.000000 0.000000 0.000000 0.000000 0.010946
 25 0.928314 -0.000000 -0.000000 0.000000 0.000000 0.010966
 26 2.975832 -0.386307 -0.044144 -0.001264 -0.043611 0.010979
 27 1.438890 0.000003 0.000001 -0.000000 -0.000000 0.804669
 28 1.485299 -0.000005 -0.000000 0.000000 -0.000000 1.476298
 29 11.585355 0.000000 0.000001 0.000000 0.000000 -0.976337
 30 10.125607 -0.000000 0.000001 2.175401 0.067103 -0.021589
 31 1.533671 0.109715 1.664491 -0.233255 -0.412980 0.435685
 32 0.928314 -0.000001 0.000000 0.000000 0.000000 0.000000
 33 2.683748 -0.427340 0.044205 0.001045 0.043611 0.000046
 34 1.438886 0.000003 0.000000 0.000000 0.000000 0.758827
 35 2.027418 0.730720 12.541074 -1.531161 -0.031283 2.992741
time 40
  0 -0.038098 0.038098 -1.357941 0.000000 0.000000 -1.570829
  1 0.863307 0.000000 0.000000 -1.570795 -1.570451 0.000000
  2 -0.000005 0.000007 3.713254 -0.132321 -2.814393 -0.671397
  3 18.045725 0.000000 0.000000 -0.000000 -0.000000 -0.787913
  4 17.597599 0.000000 0.000000 -0.107902 -0.168158 0.068247
  5 0.000005 -0.000003 -3.713254 0.627418 2.664071 -0.062022
  6 18.045721 -0.000000 -0.000001 0.000000 0.000000 -0.869602
  7 17.597593 0.000000 -0.000000 0.283193 0.341543 0.523663
  8 1.293338 0.684453 -0.000001 -0.338744 -0.156664 0.079433
  9 5.309647 -0.003832 -0.000000 -0.240520 0.114573 0.219449
 10 4.826592 -0.004567 -0.000000 -0.208568 0.039154 0.068106
 11 5.792761 -0.005304 -0.000000 0.012995 0.000000 0.191976
 12 6.661936 -0.000705 0.000000 -0.000000 -0.000001 0.959670
 13 2.044495 -0.000000 -0.000000 0.819975 -0.019903 -1.268293
 14 -2.037766 2.797702 4.341911 -0.000013 -1.370798 2.181129
 15 -1.877674 2.582454 -4.140396 -0.000013 1.370795 2.181118
 16 4.827231 0.000000 0.000001 -0.576975 0.844922 0.050320
 17 11.139763 -0.000000 -0.000000 0.000000 -0.000000 -0.587962
 18 8.575572 -8.394946 9.511936 -1.535143 -1.058019 1.499774
 19 -1.465386 0.506167 4.002137 0.034889 -0.200000 -0.000001
 20 4.972047 0.000000 0.000001 0.213168 -0.969715 -0.646544
 21 -9.249866 0.683183 -1.946118 -0.000014 -1.670796 0.000014
 22 10.313008 -0.000000 0.000000 -1.037284 0.247339 0.073579
 23 1.646738 0.449549 -1.702246 0.154002 0.442277 0.277235
 24 0.928314 0.000000 0.000000 0.000000 0.000000 0.000000
 25 0.928314 -0.000000 -0.000000 0.000000 0.000000 0.000000
 26 2.975832 -0.386307 -0.044144 -0.000797 -0.043611 0.000035
 27 1.438890 0.000003 0.000001 -0.000000 -0.000000 0.793722
 28 1.485299 -0.000005 -0.000000 0.000000 -0.000000 1.465316
 29 11.585355 0.000000 0.000001 0.000000 0.000000 -0.976337
 30 10.125607 -0.000000 0.000001 2.152066 0.060083 -0.028099
 31 1.533671 0.109715 1.664491 -0.233255 -0.412980 0.435685
 32 0.928314 -0.000001 0.000000 0.000000 0.000000 0.000000
 33 2.683748 -0.427340 0.044205 0.001045 0.043611 0.000046
 34 1.438886 0.000003 0.000000 0.000000 0.000000 0.758827
 35 2.027418 0.730720 12.541074 -1.531161 -0.031283 2.992741
end
