version 1
nodes
  0 "Bip01"  -1
  1 "Bip01 Pelvis"   0
  2 "Bip01 L Leg"   1
  3 "Bip01 L Leg1"   2
  4 "Bip01 L Foot"   3
  5 "Bip01 R Leg"   1
  6 "Bip01 R Leg1"   5
  7 "Bip01 R Foot"   6
  8 "Bip01 Spine"   1
  9 "Bip01 Spine1"   8
 10 "Bip01 Spine2"   9
 11 "Bip01 Spine3"  10
 12 "Bip01 Neck"  11
 13 "Bip01 Head"  12
 14 "Bip01 L Arm"  12
 15 "Bip01 R Arm"  12
 16 "Bip01 L Arm1"  14
 17 "Bip01 L Arm2"  16
 18 "bone_shield"  17
 19 "bone_root_plate"  14
 20 "Bip01 R Arm1"  15
 21 "bone_plate_root"  20
 22 "Bip01 L Hand"  17
 23 "Bip01 L Finger0"  22
 24 "Bip01 L Finger01"  23
 25 "Bip01 L Finger02"  24
 26 "Bip01 L Finger1"  22
 27 "Bip01 L Finger11"  26
 28 "Bip01 L Finger12"  27
 29 "Bip01 R Arm2"  20
 30 "Bip01 R Hand"  29
 31 "Bip01 R Finger0"  30
 32 "Bip01 R Finger01"  31
 33 "Bip01 R Finger1"  30
 34 "Bip01 R Finger11"  33
 35 "sword"  30
end
skeleton
time 0
  0 0.282224 -0.282224 4.130508 0.000000 0.000000 -1.570829
  1 0.863307 0.000000 0.000000 -1.570795 -1.570451 0.000000
  2 -0.000005 0.000007 3.713254 0.174395 -3.017523 -1.294395
  3 18.045725 0.000000 0.000000 -0.000000 -0.000000 -1.964746
  4 17.597599 0.000000 0.000000 -0.347347 -0.201644 0.673990
  5 0.000005 -0.000003 -3.713254 0.015160 2.761019 -0.817652
  6 18.045721 -0.000000 -0.000001 0.000000 0.000000 -2.025964
  7 17.597593 0.000000 -0.000000 0.421116 0.245409 1.168768
  8 1.293338 0.684453 -0.000001 -0.338744 -0.156664 0.079433
  9 5.309647 -0.003832 -0.000000 -0.228601 0.149580 0.367287
 10 4.826592 -0.004567 -0.000000 -0.151425 0.076402 0.301178
 11 5.792761 -0.005304 -0.000000 0.091534 -0.000072 0.191955
 12 6.661936 -0.000705 0.000000 -0.000000 -0.000001 0.959670
 13 2.044495 -0.000000 -0.000000 0.727040 -0.053000 -1.650030
 14 -2.037766 2.797702 4.341911 -0.000013 -1.370798 2.181129
 15 -1.877674 2.582454 -4.140396 -0.000013 1.370795 2.181118
 16 4.827231 0.000000 0.000001 -0.759335 0.616171 -0.317577
 17 11.139763 -0.000000 -0.000000 0.000000 -0.000000 -0.587962
 18 8.575572 -8.394946 9.511936 -1.535143 -1.058019 1.499774
 19 -1.465386 0.506167 4.002137 0.034889 -0.200000 -0.000001
 20 4.972047 0.000000 0.000001 0.206851 -0.771831 -0.386896
 21 -9.249866 0.683183 -1.946118 -0.000014 -1.670796 0.000014
 22 10.313008 -0.000000 0.000000 -1.395108 0.247339 0.073579
 23 1.646738 0.449549 -1.702246 0.154002 0.442277 0.277235
 24 0.928314 0.000000 0.000000 0.000000 0.000000 0.000000
 25 0.928314 -0.000000 -0.000000 0.000000 0.000000 0.000000
 26 2.975832 -0.386307 -0.044144 -0.000797 -0.043611 0.000035
 27 1.438890 0.000003 0.000001 -0.000000 -0.000000 0.793722
 28 1.485299 -0.000005 -0.000000 0.000000 -0.000000 1.465316
 29 11.585355 0.000000 0.000001 0.000000 0.000000 -0.717244
 30 10.125607 -0.000000 0.000001 2.108445 0.060083 -0.028099
 31 1.533671 0.109715 1.664491 -0.233255 -0.412980 0.435685
 32 0.928314 -0.000001 0.000000 0.000000 0.000000 0.000000
 33 2.683748 -0.427340 0.044205 0.001045 0.043611 0.000046
 34 1.438886 0.000003 0.000000 0.000000 0.000000 0.758827
 35 2.027418 0.730720 12.541074 -1.531161 -0.031283 2.992741
time 1
  0 -0.209979 1.872167 4.478175 0.000000 0.000000 -1.570829
  1 0.863307 0.000000 0.000000 -1.570795 -1.570451 0.000000
  2 -0.000005 0.000007 3.713254 0.171137 -2.985601 -1.448239
  3 18.045725 0.000000 0.000000 -0.000000 -0.000000 -1.999773
  4 17.597599 0.000000 0.000000 -0.232073 -0.240582 0.355014
  5 0.000005 -0.000003 -3.713254 0.116757 2.690613 -0.689727
  6 18.045721 -0.000000 -0.000001 0.000000 0.000000 -1.980904
  7 17.597593 0.000000 -0.000000 0.305726 0.260366 1.217575
  8 1.293338 0.684453 -0.000001 -0.338744 -0.156664 0.079433
  9 5.309647 -0.003832 -0.000000 -0.227973 0.129541 0.372001
 10 4.826592 -0.004567 -0.000000 -0.151425 0.076402 0.301178
 11 5.792761 -0.005304 -0.000000 0.091534 -0.000072 0.191955
 12 6.661936 -0.000705 0.000000 -0.000000 -0.000001 0.959670
 13 2.044495 -0.000000 -0.000000 0.722997 -0.032894 -1.648096
 14 -2.037766 2.797702 4.341911 -0.000013 -1.370798 2.181129
 15 -1.877674 2.582454 -4.140396 -0.000013 1.370795 2.181118
 16 4.827231 0.000000 0.000001 -0.752763 0.598896 -0.304013
 17 11.139763 -0.000000 -0.000000 0.000000 -0.000000 -0.641153
 18 8.575572 -8.394946 9.511936 -1.535143 -1.058019 1.499774
 19 -1.465386 0.506167 4.002137 0.034889 -0.200000 -0.000001
 20 4.972047 0.000000 0.000001 0.216326 -0.762821 -0.374261
 21 -9.249866 0.683183 -1.946118 -0.000014 -1.670796 0.000014
 22 10.313008 -0.000000 0.000000 -1.395108 0.247339 0.073579
 23 1.646738 0.449549 -1.702246 0.154002 0.442277 0.277235
 24 0.928314 0.000000 0.000000 0.000000 0.000000 0.000000
 25 0.928314 -0.000000 -0.000000 0.000000 0.000000 0.000000
 26 2.975832 -0.386307 -0.044144 -0.000797 -0.043611 0.000035
 27 1.438890 0.000003 0.000001 -0.000000 -0.000000 0.793722
 28 1.485299 -0.000005 -0.000000 0.000000 -0.000000 1.465316
 29 11.585355 0.000000 0.000001 0.000000 0.000000 -0.717244
 30 10.125607 -0.000000 0.000001 2.138637 0.060083 -0.028099
 31 1.533671 0.109715 1.664491 -0.233255 -0.412980 0.435685
 32 0.928314 -0.000001 0.000000 0.000000 0.000000 0.000000
 33 2.683748 -0.427340 0.044205 0.001045 0.043611 0.000046
 34 1.438886 0.000003 0.000000 0.000000 0.000000 0.758827
 35 2.027418 0.730720 12.541074 -1.531161 -0.031283 2.992741
time 2
  0 -0.772496 4.096873 4.868812 0.000000 0.000000 -1.570829
  1 0.863307 0.000000 0.000000 -1.570795 -1.570451 0.000000
  2 -0.000005 0.000007 3.713254 -2.966479 -0.189901 1.525391
  3 18.045725 0.000000 0.000000 -0.000000 -0.000000 -2.046229
  4 17.597599 0.000000 0.000000 -0.112477 -0.238407 0.007765
  5 0.000005 -0.000003 -3.713254 0.234999 2.626447 -0.548137
  6 18.045721 -0.000000 -0.000001 0.000000 0.000000 -1.923310
  7 17.597593 0.000000 -0.000000 0.181123 0.285248 1.258654
  8 1.293338 0.684453 -0.000001 -0.338744 -0.156664 0.079433
  9 5.309647 -0.003832 -0.000000 -0.227361 0.106675 0.377335
 10 4.826592 -0.004567 -0.000000 -0.151425 0.076402 0.301178
 11 5.792761 -0.005304 -0.000000 0.091534 -0.000072 0.191955
 12 6.661936 -0.000705 0.000000 -0.000000 -0.000001 0.959670
 13 2.044495 -0.000000 -0.000000 0.718489 -0.009952 -1.645961
 14 -2.037766 2.797702 4.341911 -0.000013 -1.370798 2.181129
 15 -1.877674 2.582454 -4.140396 -0.000013 1.370795 2.181118
 16 4.827231 0.000000 0.000001 -0.745753 0.579152 -0.288874
 17 11.139763 -0.000000 -0.000000 0.000000 -0.000000 -0.701912
 18 8.575572 -8.394946 9.511936 -1.535143 -1.058019 1.499774
 19 -1.465386 0.506167 4.002137 0.034889 -0.200000 -0.000001
 20 4.972047 0.000000 0.000001 0.226822 -0.752847 -0.359285
 21 -9.249866 0.683183 -1.946118 -0.000014 -1.670796 0.000014
 22 10.313008 -0.000000 0.000000 -1.395108 0.247339 0.073579
 23 1.646738 0.449549 -1.702246 0.154002 0.442277 0.277235
 24 0.928314 0.000000 0.000000 0.000000 0.000000 0.000000
 25 0.928314 -0.000000 -0.000000 0.000000 0.000000 0.000000
 26 2.975832 -0.386307 -0.044144 -0.000797 -0.043611 0.000035
 27 1.438890 0.000003 0.000001 -0.000000 -0.000000 0.793722
 28 1.485299 -0.000005 -0.000000 0.000000 -0.000000 1.465316
 29 11.585355 0.000000 0.000001 0.000000 0.000000 -0.717244
 30 10.125607 -0.000000 0.000001 2.173210 0.060083 -0.028099
 31 1.533671 0.109715 1.664491 -0.233255 -0.412980 0.435685
 32 0.928314 -0.000001 0.000000 0.000000 0.000000 0.000000
 33 2.683748 -0.427340 0.044205 0.001045 0.043611 0.000046
 34 1.438886 0.000003 0.000000 0.000000 0.000000 0.758827
 35 2.027418 0.730720 12.541074 -1.531161 -0.031283 2.992741
time 3
  0 -1.303762 6.290328 5.181321 0.000000 0.000000 -1.570829
  1 0.863307 0.000000 0.000000 -1.570795 -1.570451 0.000000
  2 -0.000005 0.000007 3.713254 -2.962070 -0.219618 1.383057
  3 18.045725 0.000000 0.000000 -0.000000 -0.000000 -2.069754
  4 17.597599 0.000000 0.000000 -0.033374 -0.200377 -0.289617
  5 0.000005 -0.000003 -3.713254 0.361660 2.570662 -0.397195
  6 18.045721 -0.000000 -0.000001 0.000000 0.000000 -1.859559
  7 17.597593 0.000000 -0.000000 0.057564 0.327217 1.289788
  8 1.293338 0.684453 -0.000001 -0.338744 -0.156664 0.079433
  9 5.309647 -0.003832 -0.000000 -0.226849 0.082682 0.382908
 10 4.826592 -0.004567 -0.000000 -0.151425 0.076402 0.301178
 11 5.792761 -0.005304 -0.000000 0.091534 -0.000072 0.191955
 12 6.661936 -0.000705 0.000000 -0.000000 -0.000001 0.959670
 13 2.044495 -0.000000 -0.000000 0.713783 0.014094 -1.643827
 14 -2.037766 2.797702 4.341911 -0.000013 -1.370798 2.181129
 15 -1.877674 2.582454 -4.140396 -0.000013 1.370795 2.181118
 16 4.827231 0.000000 0.000001 -0.738917 0.558303 -0.273384
 17 11.139763 -0.000000 -0.000000 0.000000 -0.000000 -0.765684
 18 8.575572 -8.394946 9.511936 -1.535143 -1.058019 1.499774
 19 -1.465386 0.506167 4.002137 0.034889 -0.200000 -0.000001
 20 4.972047 0.000000 0.000001 0.237412 -0.742711 -0.342984
 21 -9.249866 0.683183 -1.946118 -0.000014 -1.670796 0.000014
 22 10.313008 -0.000000 0.000000 -1.395108 0.247339 0.073579
 23 1.646738 0.449549 -1.702246 0.154002 0.442277 0.277235
 24 0.928314 0.000000 0.000000 0.000000 0.000000 0.000000
 25 0.928314 -0.000000 -0.000000 0.000000 0.000000 0.000000
 26 2.975832 -0.386307 -0.044144 -0.000797 -0.043611 0.000035
 27 1.438890 0.000003 0.000001 -0.000000 -0.000000 0.793722
 28 1.485299 -0.000005 -0.000000 0.000000 -0.000000 1.465316
 29 11.585355 0.000000 0.000001 0.000000 0.000000 -0.717244
 30 10.125607 -0.000000 0.000001 2.209403 0.060083 -0.028099
 31 1.533671 0.109715 1.664491 -0.233255 -0.412980 0.435685
 32 0.928314 -0.000001 0.000000 0.000000 0.000000 0.000000
 33 2.683748 -0.427340 0.044205 0.001045 0.043611 0.000046
 34 1.438886 0.000003 0.000000 0.000000 0.000000 0.758827
 35 2.027418 0.730720 12.541074 -1.531161 -0.031283 2.992741
time 4
  0 -1.686586 8.335340 5.310231 0.000000 0.000000 -1.570829
  1 0.863307 0.000000 0.000000 -1.570795 -1.570451 0.000000
  2 -0.000005 0.000007 3.713254 -2.967629 -0.241091 1.307300
  3 18.045725 0.000000 0.000000 -0.000000 -0.000000 -2.035839
  4 17.597599 0.000000 0.000000 -0.011056 -0.161384 -0.468000
  5 0.000005 -0.000003 -3.713254 0.487842 2.522608 -0.242668
  6 18.045721 -0.000000 -0.000001 0.000000 0.000000 -1.796605
  7 17.597593 0.000000 -0.000000 -0.055535 0.388427 1.308756
  8 1.293338 0.684453 -0.000001 -0.338744 -0.156664 0.079433
  9 5.309647 -0.003832 -0.000000 -0.226485 0.059252 0.388321
 10 4.826592 -0.004567 -0.000000 -0.151425 0.076402 0.301178
 11 5.792761 -0.005304 -0.000000 0.091534 -0.000072 0.191955
 12 6.661936 -0.000705 0.000000 -0.000000 -0.000001 0.959670
 13 2.044495 -0.000000 -0.000000 0.709209 0.037623 -1.641893
 14 -2.037766 2.797702 4.341911 -0.000013 -1.370798 2.181129
 15 -1.877674 2.582454 -4.140396 -0.000013 1.370795 2.181118
 16 4.827231 0.000000 0.000001 -0.732608 0.537878 -0.258682
 17 11.139763 -0.000000 -0.000000 0.000000 -0.000000 -0.827915
 18 8.575572 -8.394946 9.511936 -1.535143 -1.058019 1.499774
 19 -1.465386 0.506167 4.002137 0.034889 -0.200000 -0.000001
 20 4.972047 0.000000 0.000001 0.247351 -0.732978 -0.326527
 21 -9.249866 0.683183 -1.946118 -0.000014 -1.670796 0.000014
 22 10.313008 -0.000000 0.000000 -1.395108 0.247339 0.073579
 23 1.646738 0.449549 -1.702246 0.154002 0.442277 0.277235
 24 0.928314 0.000000 0.000000 0.000000 0.000000 0.000000
 25 0.928314 -0.000000 -0.000000 0.000000 0.000000 0.000000
 26 2.975832 -0.386307 -0.044144 -0.000797 -0.043611 0.000035
 27 1.438890 0.000003 0.000001 -0.000000 -0.000000 0.793722
 28 1.485299 -0.000005 -0.000000 0.000000 -0.000000 1.465316
 29 11.585355 0.000000 0.000001 0.000000 0.000000 -0.717244
 30 10.125607 -0.000000 0.000001 2.244738 0.060083 -0.028099
 31 1.533671 0.109715 1.664491 -0.233255 -0.412980 0.435685
 32 0.928314 -0.000001 0.000000 0.000000 0.000000 0.000000
 33 2.683748 -0.427340 0.044205 0.001045 0.043611 0.000046
 34 1.438886 0.000003 0.000000 0.000000 0.000000 0.758827
 35 2.027418 0.730720 12.541074 -1.531161 -0.031283 2.992741
time 5
  0 -1.819403 10.130346 5.126632 0.000000 0.000000 -1.570829
  1 0.863307 0.000000 0.000000 -1.570795 -1.570451 0.000000
  2 -0.000005 0.000007 3.713254 -2.998396 -0.253457 1.332504
  3 18.045725 0.000000 0.000000 -0.000000 -0.000000 -1.891277
  4 17.597599 0.000000 0.000000 -0.043847 -0.136242 -0.488908
  5 0.000005 -0.000003 -3.713254 0.603884 2.478278 -0.090708
  6 18.045721 -0.000000 -0.000001 0.000000 0.000000 -1.742271
  7 17.597593 0.000000 -0.000000 -0.150819 0.467872 1.314487
  8 1.293338 0.684453 -0.000001 -0.338744 -0.156664 0.079433
  9 5.309647 -0.003832 -0.000000 -0.226270 0.038075 0.393195
 10 4.826592 -0.004567 -0.000000 -0.151425 0.076402 0.301178
 11 5.792761 -0.005304 -0.000000 0.091534 -0.000072 0.191955
 12 6.661936 -0.000705 0.000000 -0.000000 -0.000001 0.959670
 13 2.044495 -0.000000 -0.000000 0.705099 0.058877 -1.640225
 14 -2.037766 2.797702 4.341911 -0.000013 -1.370798 2.181129
 15 -1.877674 2.582454 -4.140396 -0.000013 1.370795 2.181118
 16 4.827231 0.000000 0.000001 -0.727262 0.519326 -0.245555
 17 11.139763 -0.000000 -0.000000 0.000000 -0.000000 -0.884189
 18 8.575572 -8.394946 9.511936 -1.535143 -1.058019 1.499774
 19 -1.465386 0.506167 4.002137 0.034889 -0.200000 -0.000001
 20 4.972047 0.000000 0.000001 0.255896 -0.724531 -0.311240
 21 -9.249866 0.683183 -1.946118 -0.000014 -1.670796 0.000014
 22 10.313008 -0.000000 0.000000 -1.395108 0.247339 0.073579
 23 1.646738 0.449549 -1.702246 0.154002 0.442277 0.277235
 24 0.928314 0.000000 0.000000 0.000000 0.000000 0.000000
 25 0.928314 -0.000000 -0.000000 0.000000 0.000000 0.000000
 26 2.975832 -0.386307 -0.044144 -0.000797 -0.043611 0.000035
 27 1.438890 0.000003 0.000001 -0.000000 -0.000000 0.793722
 28 1.485299 -0.000005 -0.000000 0.000000 -0.000000 1.465316
 29 11.585355 0.000000 0.000001 0.000000 0.000000 -0.717244
 30 10.125607 -0.000000 0.000001 2.276739 0.060083 -0.028099
 31 1.533671 0.109715 1.664491 -0.233255 -0.412980 0.435685
 32 0.928314 -0.000001 0.000000 0.000000 0.000000 0.000000
 33 2.683748 -0.427340 0.044205 0.001045 0.043611 0.000046
 34 1.438886 0.000003 0.000000 0.000000 0.000000 0.758827
 35 2.027418 0.730720 12.541074 -1.531161 -0.031283 2.992741
time 6
  0 -1.682680 11.655811 4.720369 0.000000 0.000000 -1.570829
  1 0.863307 0.000000 0.000000 -1.570795 -1.570451 0.000000
  2 -0.000005 0.000007 3.713254 -3.048046 -0.255279 1.429870
  3 18.045725 0.000000 0.000000 -0.000000 -0.000000 -1.669239
  4 17.597599 0.000000 0.000000 -0.104064 -0.105454 -0.399968
  5 0.000005 -0.000003 -3.713254 0.708924 2.438233 0.057181
  6 18.045721 -0.000000 -0.000001 0.000000 0.000000 -1.690328
  7 17.597593 0.000000 -0.000000 -0.227360 0.557077 1.297589
  8 1.293338 0.684453 -0.000001 -0.338744 -0.156664 0.079433
  9 5.309647 -0.003832 -0.000000 -0.226171 0.020841 0.397170
 10 4.826592 -0.004567 -0.000000 -0.151425 0.076402 0.301178
 11 5.792761 -0.005304 -0.000000 0.091534 -0.000072 0.191955
 12 6.661936 -0.000705 0.000000 -0.000000 -0.000001 0.959670
 13 2.044495 -0.000000 -0.000000 0.701851 0.076168 -1.638891
 14 -2.037766 2.797702 4.341911 -0.000013 -1.370798 2.181129
 15 -1.877674 2.582454 -4.140396 -0.000013 1.370795 2.181118
 16 4.827231 0.000000 0.000001 -0.723231 0.504178 -0.235142
 17 11.139763 -0.000000 -0.000000 0.000000 -0.000000 -0.929881
 18 8.575572 -8.394946 9.511936 -1.535143 -1.058019 1.499774
 19 -1.465386 0.506167 4.002137 0.034889 -0.200000 -0.000001
 20 4.972047 0.000000 0.000001 0.262677 -0.717694 -0.298449
 21 -9.249866 0.683183 -1.946118 -0.000014 -1.670796 0.000014
 22 10.313008 -0.000000 0.000000 -1.395108 0.247339 0.073579
 23 1.646738 0.449549 -1.702246 0.154002 0.442277 0.277235
 24 0.928314 0.000000 0.000000 0.000000 0.000000 0.000000
 25 0.928314 -0.000000 -0.000000 0.000000 0.000000 0.000000
 26 2.975832 -0.386307 -0.044144 -0.000797 -0.043611 0.000035
 27 1.438890 0.000003 0.000001 -0.000000 -0.000000 0.793722
 28 1.485299 -0.000005 -0.000000 0.000000 -0.000000 1.465316
 29 11.585355 0.000000 0.000001 0.000000 0.000000 -0.717244
 30 10.125607 -0.000000 0.000001 2.302741 0.060083 -0.028099
 31 1.533671 0.109715 1.664491 -0.233255 -0.412980 0.435685
 32 0.928314 -0.000001 0.000000 0.000000 0.000000 0.000000
 33 2.683748 -0.427340 0.044205 0.001045 0.043611 0.000046
 34 1.438886 0.000003 0.000000 0.000000 0.000000 0.758827
 35 2.027418 0.730720 12.541074 -1.531161 -0.031283 2.992741
time 7
  0 -1.377983 13.013304 4.314107 0.000000 0.000000 -1.570829
  1 0.863307 0.000000 0.000000 -1.570795 -1.570451 0.000000
  2 -0.000005 0.000007 3.713254 -3.094245 -0.246268 1.545350
  3 18.045725 0.000000 0.000000 -0.000000 -0.000000 -1.464343
  4 17.597599 0.000000 0.000000 -0.157138 -0.063845 -0.265780
  5 0.000005 -0.000003 -3.713254 0.807555 2.409921 0.200757
  6 18.045721 -0.000000 -0.000001 0.000000 0.000000 -1.627301
  7 17.597593 0.000000 -0.000000 -0.291852 0.642701 1.244419
  8 1.293338 0.684453 -0.000001 -0.338744 -0.156664 0.079433
  9 5.309647 -0.003832 -0.000000 -0.226138 0.009264 0.399827
 10 4.826592 -0.004567 -0.000000 -0.151425 0.076402 0.301178
 11 5.792761 -0.005304 -0.000000 0.091534 -0.000072 0.191955
 12 6.661936 -0.000705 0.000000 -0.000000 -0.000001 0.959670
 13 2.044495 -0.000000 -0.000000 0.699597 0.087808 -1.638024
 14 -2.037766 2.797702 4.341911 -0.000013 -1.370798 2.181129
 15 -1.877674 2.582454 -4.140396 -0.000013 1.370795 2.181118
 16 4.827231 0.000000 0.000001 -0.720603 0.494051 -0.228228
 17 11.139763 -0.000000 -0.000000 0.000000 -0.000000 -0.960647
 18 8.575572 -8.394946 9.511936 -1.535143 -1.058019 1.499774
 19 -1.465386 0.506167 4.002137 0.034889 -0.200000 -0.000001
 20 4.972047 0.000000 0.000001 0.267136 -0.713270 -0.289791
 21 -9.249866 0.683183 -1.946118 -0.000014 -1.670796 0.000014
 22 10.313008 -0.000000 0.000000 -1.395108 0.247339 0.073579
 23 1.646738 0.449549 -1.702246 0.154002 0.442277 0.277235
 24 0.928314 0.000000 0.000000 0.000000 0.000000 0.000000
 25 0.928314 -0.000000 -0.000000 0.000000 0.000000 0.000000
 26 2.975832 -0.386307 -0.044144 -0.000797 -0.043611 0.000035
 27 1.438890 0.000003 0.000001 -0.000000 -0.000000 0.793722
 28 1.485299 -0.000005 -0.000000 0.000000 -0.000000 1.465316
 29 11.585355 0.000000 0.000001 0.000000 0.000000 -0.717244
 30 10.125607 -0.000000 0.000001 2.320170 0.060083 -0.028099
 31 1.533671 0.109715 1.664491 -0.233255 -0.412980 0.435685
 32 0.928314 -0.000001 0.000000 0.000000 0.000000 0.000000
 33 2.683748 -0.427340 0.044205 0.001045 0.043611 0.000046
 34 1.438886 0.000003 0.000000 0.000000 0.000000 0.758827
 35 2.027418 0.730720 12.541074 -1.531161 -0.031283 2.992741
time 8
  0 -0.960001 14.257510 4.130508 0.000000 0.000000 -1.570829
  1 0.863307 0.000000 0.000000 -1.570795 -1.570451 0.000000
  2 -0.000005 0.000007 3.713254 0.025638 -2.906899 -1.516080
  3 18.045725 0.000000 0.000000 -0.000000 -0.000000 -1.371431
  4 17.597599 0.000000 0.000000 -0.185734 -0.038400 -0.146004
  5 0.000005 -0.000003 -3.713254 0.900829 2.400795 0.335418
  6 18.045721 -0.000000 -0.000001 0.000000 0.000000 -1.540440
  7 17.597593 0.000000 -0.000000 -0.353325 0.712501 1.139742
  8 1.293338 0.684453 -0.000001 -0.338744 -0.156664 0.079433
  9 5.309647 -0.003832 -0.000000 -0.226121 0.005034 0.400806
 10 4.826592 -0.004567 -0.000000 -0.151425 0.076402 0.301178
 11 5.792761 -0.005304 -0.000000 0.091534 -0.000072 0.191955
 12 6.661936 -0.000705 0.000000 -0.000000 -0.000001 0.959670
 13 2.044495 -0.000000 -0.000000 0.698802 0.092064 -1.637757
 14 -2.037766 2.797702 4.341911 -0.000013 -1.370798 2.181129
 15 -1.877674 2.582454 -4.140396 -0.000013 1.370795 2.181118
 16 4.827231 0.000000 0.000001 -0.719639 0.490307 -0.225690
 17 11.139763 -0.000000 -0.000000 0.000000 -0.000000 -0.971929
 18 8.575572 -8.394946 9.511936 -1.535143 -1.058019 1.499774
 19 -1.465386 0.506167 4.002137 0.034889 -0.200000 -0.000001
 20 4.972047 0.000000 0.000001 0.268715 -0.711661 -0.286515
 21 -9.249866 0.683183 -1.946118 -0.000014 -1.670796 0.000014
 22 10.313008 -0.000000 0.000000 -1.395108 0.247339 0.073579
 23 1.646738 0.449549 -1.702246 0.154002 0.442277 0.277235
 24 0.928314 0.000000 0.000000 0.000000 0.000000 0.000000
 25 0.928314 -0.000000 -0.000000 0.000000 0.000000 0.000000
 26 2.975832 -0.386307 -0.044144 -0.000797 -0.043611 0.000035
 27 1.438890 0.000003 0.000001 -0.000000 -0.000000 0.793722
 28 1.485299 -0.000005 -0.000000 0.000000 -0.000000 1.465316
 29 11.585355 0.000000 0.000001 0.000000 0.000000 -0.717244
 30 10.125607 -0.000000 0.000001 2.326551 0.060083 -0.028099
 31 1.533671 0.109715 1.664491 -0.233255 -0.412980 0.435685
 32 0.928314 -0.000001 0.000000 0.000000 0.000000 0.000000
 33 2.683748 -0.427340 0.044205 0.001045 0.043611 0.000046
 34 1.438886 0.000003 0.000000 0.000000 0.000000 0.758827
 35 2.027418 0.730720 12.541074 -1.531161 -0.031283 2.992741
time 9
  0 -0.487331 15.447029 4.314107 0.000000 0.000000 -1.570829
  1 0.863307 0.000000 0.000000 -1.570795 -1.570451 0.000000
  2 -0.000005 0.000007 3.713254 0.036181 -2.919361 -1.515060
  3 18.045725 0.000000 0.000000 -0.000000 -0.000000 -1.475178
  4 17.597599 0.000000 0.000000 -0.202892 -0.039804 0.000856
  5 0.000005 -0.000003 -3.713254 0.873277 2.286525 0.222175
  6 18.045721 -0.000000 -0.000001 0.000000 0.000000 -1.661060
  7 17.597593 0.000000 -0.000000 -0.446613 0.669596 0.922144
  8 1.293338 0.684453 -0.000001 -0.338744 -0.156664 0.079433
  9 5.309647 -0.003832 -0.000000 -0.226138 0.009264 0.399827
 10 4.826592 -0.004567 -0.000000 -0.151425 0.076402 0.301178
 11 5.792761 -0.005304 -0.000000 0.091534 -0.000072 0.191955
 12 6.661936 -0.000705 0.000000 -0.000000 -0.000001 0.959670
 13 2.044495 -0.000000 -0.000000 0.699597 0.087808 -1.638024
 14 -2.037766 2.797702 4.341911 -0.000013 -1.370798 2.181129
 15 -1.877674 2.582454 -4.140396 -0.000013 1.370795 2.181118
 16 4.827231 0.000000 0.000001 -0.720603 0.494051 -0.228228
 17 11.139763 -0.000000 -0.000000 0.000000 -0.000000 -0.960647
 18 8.575572 -8.394946 9.511936 -1.535143 -1.058019 1.499774
 19 -1.465386 0.506167 4.002137 0.034889 -0.200000 -0.000001
 20 4.972047 0.000000 0.000001 0.267136 -0.713270 -0.289791
 21 -9.249866 0.683183 -1.946118 -0.000014 -1.670796 0.000014
 22 10.313008 -0.000000 0.000000 -1.395108 0.247339 0.073579
 23 1.646738 0.449549 -1.702246 0.154002 0.442277 0.277235
 24 0.928314 0.000000 0.000000 0.000000 0.000000 0.000000
 25 0.928314 -0.000000 -0.000000 0.000000 0.000000 0.000000
 26 2.975832 -0.386307 -0.044144 -0.000797 -0.043611 0.000035
 27 1.438890 0.000003 0.000001 -0.000000 -0.000000 0.793722
 28 1.485299 -0.000005 -0.000000 0.000000 -0.000000 1.465316
 29 11.585355 0.000000 0.000001 0.000000 0.000000 -0.717244
 30 10.125607 -0.000000 0.000001 2.320170 0.060083 -0.028099
 31 1.533671 0.109715 1.664491 -0.233255 -0.412980 0.435685
 32 0.928314 -0.000001 0.000000 0.000000 0.000000 0.000000
 33 2.683748 -0.427340 0.044205 0.001045 0.043611 0.000046
 34 1.438886 0.000003 0.000000 0.000000 0.000000 0.758827
 35 2.027418 0.730720 12.541074 -1.531161 -0.031283 2.992741
time 10
  0 -0.022473 16.644360 4.720369 0.000000 0.000000 -1.570829
  1 0.863307 0.000000 0.000000 -1.570795 -1.570451 0.000000
  2 -0.000005 0.000007 3.713254 0.045095 -2.936999 -1.490439
  3 18.045725 0.000000 0.000000 -0.000000 -0.000000 -1.553989
  4 17.597599 0.000000 0.000000 -0.225006 -0.047267 0.123469
  5 0.000005 -0.000003 -3.713254 0.614407 2.120848 -0.191401
  6 18.045721 -0.000000 -0.000001 0.000000 0.000000 -1.902446
  7 17.597593 0.000000 -0.000000 -0.452422 0.532429 0.629005
  8 1.293338 0.684453 -0.000001 -0.338744 -0.156664 0.079433
  9 5.309647 -0.003832 -0.000000 -0.226171 0.020841 0.397170
 10 4.826592 -0.004567 -0.000000 -0.151425 0.076402 0.301178
 11 5.792761 -0.005304 -0.000000 0.091534 -0.000072 0.191955
 12 6.661936 -0.000705 0.000000 -0.000000 -0.000001 0.959670
 13 2.044495 -0.000000 -0.000000 0.701851 0.076168 -1.638891
 14 -2.037766 2.797702 4.341911 -0.000013 -1.370798 2.181129
 15 -1.877674 2.582454 -4.140396 -0.000013 1.370795 2.181118
 16 4.827231 0.000000 0.000001 -0.723231 0.504178 -0.235142
 17 11.139763 -0.000000 -0.000000 0.000000 -0.000000 -0.929881
 18 8.575572 -8.394946 9.511936 -1.535143 -1.058019 1.499774
 19 -1.465386 0.506167 4.002137 0.034889 -0.200000 -0.000001
 20 4.972047 0.000000 0.000001 0.262677 -0.717694 -0.298449
 21 -9.249866 0.683183 -1.946118 -0.000014 -1.670796 0.000014
 22 10.313008 -0.000000 0.000000 -1.395108 0.247339 0.073579
 23 1.646738 0.449549 -1.702246 0.154002 0.442277 0.277235
 24 0.928314 0.000000 0.000000 0.000000 0.000000 0.000000
 25 0.928314 -0.000000 -0.000000 0.000000 0.000000 0.000000
 26 2.975832 -0.386307 -0.044144 -0.000797 -0.043611 0.000035
 27 1.438890 0.000003 0.000001 -0.000000 -0.000000 0.793722
 28 1.485299 -0.000005 -0.000000 0.000000 -0.000000 1.465316
 29 11.585355 0.000000 0.000001 0.000000 0.000000 -0.717244
 30 10.125607 -0.000000 0.000001 2.302741 0.060083 -0.028099
 31 1.533671 0.109715 1.664491 -0.233255 -0.412980 0.435685
 32 0.928314 -0.000001 0.000000 0.000000 0.000000 0.000000
 33 2.683748 -0.427340 0.044205 0.001045 0.043611 0.000046
 34 1.438886 0.000003 0.000000 0.000000 0.000000 0.758827
 35 2.027418 0.730720 12.541074 -1.531161 -0.031283 2.992741
time 11
  0 0.372070 17.912004 5.126632 0.000000 0.000000 -1.570829
  1 0.863307 0.000000 0.000000 -1.570795 -1.570451 0.000000
  2 -0.000005 0.000007 3.713254 0.054680 -2.956459 -1.455378
  3 18.045725 0.000000 0.000000 -0.000000 -0.000000 -1.620779
  4 17.597599 0.000000 0.000000 -0.248798 -0.059494 0.227506
  5 0.000005 -0.000003 -3.713254 0.136368 2.085552 -0.821964
  6 18.045721 -0.000000 -0.000001 0.000000 0.000000 -2.153322
  7 17.597593 0.000000 -0.000000 -0.326117 0.426628 0.400388
  8 1.293338 0.684453 -0.000001 -0.338744 -0.156664 0.079433
  9 5.309647 -0.003832 -0.000000 -0.226270 0.038075 0.393195
 10 4.826592 -0.004567 -0.000000 -0.151425 0.076402 0.301178
 11 5.792761 -0.005304 -0.000000 0.091534 -0.000072 0.191955
 12 6.661936 -0.000705 0.000000 -0.000000 -0.000001 0.959670
 13 2.044495 -0.000000 -0.000000 0.705099 0.058877 -1.640225
 14 -2.037766 2.797702 4.341911 -0.000013 -1.370798 2.181129
 15 -1.877674 2.582454 -4.140396 -0.000013 1.370795 2.181118
 16 4.827231 0.000000 0.000001 -0.727262 0.519326 -0.245555
 17 11.139763 -0.000000 -0.000000 0.000000 -0.000000 -0.884189
 18 8.575572 -8.394946 9.511936 -1.535143 -1.058019 1.499774
 19 -1.465386 0.506167 4.002137 0.034889 -0.200000 -0.000001
 20 4.972047 0.000000 0.000001 0.255896 -0.724531 -0.311240
 21 -9.249866 0.683183 -1.946118 -0.000014 -1.670796 0.000014
 22 10.313008 -0.000000 0.000000 -1.395108 0.247339 0.073579
 23 1.646738 0.449549 -1.702246 0.154002 0.442277 0.277235
 24 0.928314 0.000000 0.000000 0.000000 0.000000 0.000000
 25 0.928314 -0.000000 -0.000000 0.000000 0.000000 0.000000
 26 2.975832 -0.386307 -0.044144 -0.000797 -0.043611 0.000035
 27 1.438890 0.000003 0.000001 -0.000000 -0.000000 0.793722
 28 1.485299 -0.000005 -0.000000 0.000000 -0.000000 1.465316
 29 11.585355 0.000000 0.000001 0.000000 0.000000 -0.717244
 30 10.125607 -0.000000 0.000001 2.276739 0.060083 -0.028099
 31 1.533671 0.109715 1.664491 -0.233255 -0.412980 0.435685
 32 0.928314 -0.000001 0.000000 0.000000 0.000000 0.000000
 33 2.683748 -0.427340 0.044205 0.001045 0.043611 0.000046
 34 1.438886 0.000003 0.000000 0.000000 0.000000 0.758827
 35 2.027418 0.730720 12.541074 -1.531161 -0.031283 2.992741
time 12
  0 0.645516 19.300747 5.310231 0.000000 0.000000 -1.570829
  1 0.863307 0.000000 0.000000 -1.570795 -1.570451 0.000000
  2 -0.000005 0.000007 3.713254 0.067811 -2.974002 -1.422453
  3 18.045725 0.000000 0.000000 -0.000000 -0.000000 -1.689201
  4 17.597599 0.000000 0.000000 -0.270404 -0.076870 0.319420
  5 0.000005 -0.000003 -3.713254 -0.129294 2.186784 -1.177101
  6 18.045721 -0.000000 -0.000001 0.000000 0.000000 -2.302124
  7 17.597593 0.000000 -0.000000 -0.177233 0.423281 0.313866
  8 1.293338 0.684453 -0.000001 -0.338744 -0.156664 0.079433
  9 5.309647 -0.003832 -0.000000 -0.226485 0.059252 0.388321
 10 4.826592 -0.004567 -0.000000 -0.151425 0.076402 0.301178
 11 5.792761 -0.005304 -0.000000 0.091534 -0.000072 0.191955
 12 6.661936 -0.000705 0.000000 -0.000000 -0.000001 0.959670
 13 2.044495 -0.000000 -0.000000 0.709209 0.037623 -1.641893
 14 -2.037766 2.797702 4.341911 -0.000013 -1.370798 2.181129
 15 -1.877674 2.582454 -4.140396 -0.000013 1.370795 2.181118
 16 4.827231 0.000000 0.000001 -0.732608 0.537878 -0.258682
 17 11.139763 -0.000000 -0.000000 0.000000 -0.000000 -0.827915
 18 8.575572 -8.394946 9.511936 -1.535143 -1.058019 1.499774
 19 -1.465386 0.506167 4.002137 0.034889 -0.200000 -0.000001
 20 4.972047 0.000000 0.000001 0.247351 -0.732978 -0.326527
 21 -9.249866 0.683183 -1.946118 -0.000014 -1.670796 0.000014
 22 10.313008 -0.000000 0.000000 -1.395108 0.247339 0.073579
 23 1.646738 0.449549 -1.702246 0.154002 0.442277 0.277235
 24 0.928314 0.000000 0.000000 0.000000 0.000000 0.000000
 25 0.928314 -0.000000 -0.000000 0.000000 0.000000 0.000000
 26 2.975832 -0.386307 -0.044144 -0.000797 -0.043611 0.000035
 27 1.438890 0.000003 0.000001 -0.000000 -0.000000 0.793722
 28 1.485299 -0.000005 -0.000000 0.000000 -0.000000 1.465316
 29 11.585355 0.000000 0.000001 0.000000 0.000000 -0.717244
 30 10.125607 -0.000000 0.000001 2.244738 0.060083 -0.028099
 31 1.533671 0.109715 1.664491 -0.233255 -0.412980 0.435685
 32 0.928314 -0.000001 0.000000 0.000000 0.000000 0.000000
 33 2.683748 -0.427340 0.044205 0.001045 0.043611 0.000046
 34 1.438886 0.000003 0.000000 0.000000 0.000000 0.758827
 35 2.027418 0.730720 12.541074 -1.531161 -0.031283 2.992741
time 13
  0 0.711925 20.896528 5.181321 0.000000 0.000000 -1.570829
  1 0.863307 0.000000 0.000000 -1.570795 -1.570451 0.000000
  2 -0.000005 0.000007 3.713254 0.086885 -2.985122 -1.396327
  3 18.045725 0.000000 0.000000 -0.000000 -0.000000 -1.765119
  4 17.597599 0.000000 0.000000 -0.285706 -0.101599 0.405798
  5 0.000005 -0.000003 -3.713254 -0.129964 2.335418 -1.170899
  6 18.045721 -0.000000 -0.000001 0.000000 0.000000 -2.297559
  7 17.597593 0.000000 -0.000000 -0.013940 0.476837 0.458365
  8 1.293338 0.684453 -0.000001 -0.338744 -0.156664 0.079433
  9 5.309647 -0.003832 -0.000000 -0.226849 0.082682 0.382908
 10 4.826592 -0.004567 -0.000000 -0.151425 0.076402 0.301178
 11 5.792761 -0.005304 -0.000000 0.091534 -0.000072 0.191955
 12 6.661936 -0.000705 0.000000 -0.000000 -0.000001 0.959670
 13 2.044495 -0.000000 -0.000000 0.713783 0.014094 -1.643827
 14 -2.037766 2.797702 4.341911 -0.000013 -1.370798 2.181129
 15 -1.877674 2.582454 -4.140396 -0.000013 1.370795 2.181118
 16 4.827231 0.000000 0.000001 -0.738917 0.558303 -0.273384
 17 11.139763 -0.000000 -0.000000 0.000000 -0.000000 -0.765684
 18 8.575572 -8.394946 9.511936 -1.535143 -1.058019 1.499774
 19 -1.465386 0.506167 4.002137 0.034889 -0.200000 -0.000001
 20 4.972047 0.000000 0.000001 0.237412 -0.742711 -0.342984
 21 -9.249866 0.683183 -1.946118 -0.000014 -1.670796 0.000014
 22 10.313008 -0.000000 0.000000 -1.395108 0.247339 0.073579
 23 1.646738 0.449549 -1.702246 0.154002 0.442277 0.277235
 24 0.928314 0.000000 0.000000 0.000000 0.000000 0.000000
 25 0.928314 -0.000000 -0.000000 0.000000 0.000000 0.000000
 26 2.975832 -0.386307 -0.044144 -0.000797 -0.043611 0.000035
 27 1.438890 0.000003 0.000001 -0.000000 -0.000000 0.793722
 28 1.485299 -0.000005 -0.000000 0.000000 -0.000000 1.465316
 29 11.585355 0.000000 0.000001 0.000000 0.000000 -0.717244
 30 10.125607 -0.000000 0.000001 2.209403 0.060083 -0.028099
 31 1.533671 0.109715 1.664491 -0.233255 -0.412980 0.435685
 32 0.928314 -0.000001 0.000000 0.000000 0.000000 0.000000
 33 2.683748 -0.427340 0.044205 0.001045 0.043611 0.000046
 34 1.438886 0.000003 0.000000 0.000000 0.000000 0.758827
 35 2.027418 0.730720 12.541074 -1.531161 -0.031283 2.992741
time 14
  0 0.602546 22.668095 4.868812 0.000000 0.000000 -1.570829
  1 0.863307 0.000000 0.000000 -1.570795 -1.570451 0.000000
  2 -0.000005 0.000007 3.713254 0.109218 -2.987614 -1.369326
  3 18.045725 0.000000 0.000000 -0.000000 -0.000000 -1.841407
  4 17.597599 0.000000 0.000000 -0.293434 -0.131670 0.491901
  5 0.000005 -0.000003 -3.713254 -0.063477 2.522794 -1.036384
  6 18.045721 -0.000000 -0.000001 0.000000 0.000000 -2.206134
  7 17.597593 0.000000 -0.000000 0.208490 0.465016 0.765739
  8 1.293338 0.684453 -0.000001 -0.338744 -0.156664 0.079433
  9 5.309647 -0.003832 -0.000000 -0.227361 0.106675 0.377335
 10 4.826592 -0.004567 -0.000000 -0.151425 0.076402 0.301178
 11 5.792761 -0.005304 -0.000000 0.091534 -0.000072 0.191955
 12 6.661936 -0.000705 0.000000 -0.000000 -0.000001 0.959670
 13 2.044495 -0.000000 -0.000000 0.718489 -0.009952 -1.645961
 14 -2.037766 2.797702 4.341911 -0.000013 -1.370798 2.181129
 15 -1.877674 2.582454 -4.140396 -0.000013 1.370795 2.181118
 16 4.827231 0.000000 0.000001 -0.745753 0.579152 -0.288874
 17 11.139763 -0.000000 -0.000000 0.000000 -0.000000 -0.701912
 18 8.575572 -8.394946 9.511936 -1.535143 -1.058019 1.499774
 19 -1.465386 0.506167 4.002137 0.034889 -0.200000 -0.000001
 20 4.972047 0.000000 0.000001 0.226822 -0.752847 -0.359285
 21 -9.249866 0.683183 -1.946118 -0.000014 -1.670796 0.000014
 22 10.313008 -0.000000 0.000000 -1.395108 0.247339 0.073579
 23 1.646738 0.449549 -1.702246 0.154002 0.442277 0.277235
 24 0.928314 0.000000 0.000000 0.000000 0.000000 0.000000
 25 0.928314 -0.000000 -0.000000 0.000000 0.000000 0.000000
 26 2.975832 -0.386307 -0.044144 -0.000797 -0.043611 0.000035
 27 1.438890 0.000003 0.000001 -0.000000 -0.000000 0.793722
 28 1.485299 -0.000005 -0.000000 0.000000 -0.000000 1.465316
 29 11.585355 0.000000 0.000001 0.000000 0.000000 -0.717244
 30 10.125607 -0.000000 0.000001 2.173210 0.060083 -0.028099
 31 1.533671 0.109715 1.664491 -0.233255 -0.412980 0.435685
 32 0.928314 -0.000001 0.000000 0.000000 0.000000 0.000000
 33 2.683748 -0.427340 0.044205 0.001045 0.043611 0.000046
 34 1.438886 0.000003 0.000000 0.000000 0.000000 0.758827
 35 2.027418 0.730720 12.541074 -1.531161 -0.031283 2.992741
time 15
  0 0.422853 24.509975 4.478175 0.000000 0.000000 -1.570829
  1 0.863307 0.000000 0.000000 -1.570795 -1.570451 0.000000
  2 -0.000005 0.000007 3.713254 0.129442 -2.981479 -1.335333
  3 18.045725 0.000000 0.000000 -0.000000 -0.000000 -1.912204
  4 17.597599 0.000000 0.000000 -0.294400 -0.161411 0.582854
  5 0.000005 -0.000003 -3.713254 -0.011818 2.688843 -0.896781
  6 18.045721 -0.000000 -0.000001 0.000000 0.000000 -2.093700
  7 17.597593 0.000000 -0.000000 0.372464 0.341543 1.042646
  8 1.293338 0.684453 -0.000001 -0.338744 -0.156664 0.079433
  9 5.309647 -0.003832 -0.000000 -0.227973 0.129541 0.372001
 10 4.826592 -0.004567 -0.000000 -0.151425 0.076402 0.301178
 11 5.792761 -0.005304 -0.000000 0.091534 -0.000072 0.191955
 12 6.661936 -0.000705 0.000000 -0.000000 -0.000001 0.959670
 13 2.044495 -0.000000 -0.000000 0.722997 -0.032894 -1.648096
 14 -2.037766 2.797702 4.341911 -0.000013 -1.370798 2.181129
 15 -1.877674 2.582454 -4.140396 -0.000013 1.370795 2.181118
 16 4.827231 0.000000 0.000001 -0.752763 0.598896 -0.304013
 17 11.139763 -0.000000 -0.000000 0.000000 -0.000000 -0.641153
 18 8.575572 -8.394946 9.511936 -1.535143 -1.058019 1.499774
 19 -1.465386 0.506167 4.002137 0.034889 -0.200000 -0.000001
 20 4.972047 0.000000 0.000001 0.216326 -0.762821 -0.374261
 21 -9.249866 0.683183 -1.946118 -0.000014 -1.670796 0.000014
 22 10.313008 -0.000000 0.000000 -1.395108 0.247339 0.073579
 23 1.646738 0.449549 -1.702246 0.154002 0.442277 0.277235
 24 0.928314 0.000000 0.000000 0.000000 0.000000 0.000000
 25 0.928314 -0.000000 -0.000000 0.000000 0.000000 0.000000
 26 2.975832 -0.386307 -0.044144 -0.000797 -0.043611 0.000035
 27 1.438890 0.000003 0.000001 -0.000000 -0.000000 0.793722
 28 1.485299 -0.000005 -0.000000 0.000000 -0.000000 1.465316
 29 11.585355 0.000000 0.000001 0.000000 0.000000 -0.717244
 30 10.125607 -0.000000 0.000001 2.138637 0.060083 -0.028099
 31 1.533671 0.109715 1.664491 -0.233255 -0.412980 0.435685
 32 0.928314 -0.000001 0.000000 0.000000 0.000000 0.000000
 33 2.683748 -0.427340 0.044205 0.001045 0.043611 0.000046
 34 1.438886 0.000003 0.000000 0.000000 0.000000 0.758827
 35 2.027418 0.730720 12.541074 -1.531161 -0.031283 2.992741
time 16
  0 0.282224 26.312794 4.130508 0.000000 0.000000 -1.570829
  1 0.863307 0.000000 0.000000 -1.570795 -1.570451 0.000000
  2 -0.000005 0.000007 3.713254 0.174395 -3.017523 -1.294395
  3 18.045725 0.000000 0.000000 -0.000000 -0.000000 -1.964746
  4 17.597599 0.000000 0.000000 -0.347347 -0.201644 0.673990
  5 0.000005 -0.000003 -3.713254 0.015160 2.761019 -0.817652
  6 18.045721 -0.000000 -0.000001 0.000000 0.000000 -2.025964
  7 17.597593 0.000000 -0.000000 0.421116 0.245409 1.168768
  8 1.293338 0.684453 -0.000001 -0.338744 -0.156664 0.079433
  9 5.309647 -0.003832 -0.000000 -0.228601 0.149580 0.367287
 10 4.826592 -0.004567 -0.000000 -0.151425 0.076402 0.301178
 11 5.792761 -0.005304 -0.000000 0.091534 -0.000072 0.191955
 12 6.661936 -0.000705 0.000000 -0.000000 -0.000001 0.959670
 13 2.044495 -0.000000 -0.000000 0.727040 -0.053000 -1.650030
 14 -2.037766 2.797702 4.341911 -0.000013 -1.370798 2.181129
 15 -1.877674 2.582454 -4.140396 -0.000013 1.370795 2.181118
 16 4.827231 0.000000 0.000001 -0.759335 0.616171 -0.317577
 17 11.139763 -0.000000 -0.000000 0.000000 -0.000000 -0.587962
 18 8.575572 -8.394946 9.511936 -1.535143 -1.058019 1.499774
 19 -1.465386 0.506167 4.002137 0.034889 -0.200000 -0.000001
 20 4.972047 0.000000 0.000001 0.206851 -0.771831 -0.386896
 21 -9.249866 0.683183 -1.946118 -0.000014 -1.670796 0.000014
 22 10.313008 -0.000000 0.000000 -1.395108 0.247339 0.073579
 23 1.646738 0.449549 -1.702246 0.154002 0.442277 0.277235
 24 0.928314 0.000000 0.000000 0.000000 0.000000 0.000000
 25 0.928314 -0.000000 -0.000000 0.000000 0.000000 0.000000
 26 2.975832 -0.386307 -0.044144 -0.000797 -0.043611 0.000035
 27 1.438890 0.000003 0.000001 -0.000000 -0.000000 0.793722
 28 1.485299 -0.000005 -0.000000 0.000000 -0.000000 1.465316
 29 11.585355 0.000000 0.000001 0.000000 0.000000 -0.717244
 30 10.125607 -0.000000 0.000001 2.108445 0.060083 -0.028099
 31 1.533671 0.109715 1.664491 -0.233255 -0.412980 0.435685
 32 0.928314 -0.000001 0.000000 0.000000 0.000000 0.000000
 33 2.683748 -0.427340 0.044205 0.001045 0.043611 0.000046
 34 1.438886 0.000003 0.000000 0.000000 0.000000 0.758827
 35 2.027418 0.730720 12.541074 -1.531161 -0.031283 2.992741
end
