version 1
nodes
  0 "Bip01"  -1
  1 "Bip01 Pelvis"   0
  2 "Bip01 L Leg"   1
  3 "Bip01 L Leg1"   2
  4 "Bip01 L Foot"   3
  5 "Bip01 R Leg"   1
  6 "Bip01 R Leg1"   5
  7 "Bip01 R Foot"   6
  8 "Bip01 Spine"   1
  9 "Bip01 Spine1"   8
 10 "Bip01 Spine2"   9
 11 "Bip01 Spine3"  10
 12 "Bip01 Neck"  11
 13 "Bip01 Head"  12
 14 "Bip01 L Arm"  12
 15 "Bip01 R Arm"  12
 16 "Bip01 L Arm1"  14
 17 "Bip01 L Arm2"  16
 18 "bone_shield"  17
 19 "bone_root_plate"  14
 20 "Bip01 R Arm1"  15
 21 "bone_plate_root"  20
 22 "Bip01 L Hand"  17
 23 "Bip01 L Finger0"  22
 24 "Bip01 L Finger01"  23
 25 "Bip01 L Finger02"  24
 26 "Bip01 L Finger1"  22
 27 "Bip01 L Finger11"  26
 28 "Bip01 L Finger12"  27
 29 "Bip01 R Arm2"  20
 30 "Bip01 R Hand"  29
 31 "Bip01 R Finger0"  30
 32 "Bip01 R Finger01"  31
 33 "Bip01 R Finger1"  30
 34 "Bip01 R Finger11"  33
 35 "sword"  30
end
skeleton
time 0
  0 0.235348 -0.235348 -0.748547 0.000000 -0.235464 -1.570829
  1 2.332101 -0.171880 0.000000 -1.570795 -1.570787 0.000000
  2 -0.000005 0.000007 3.713254 -0.042607 -3.081750 -0.292032
  3 18.045725 0.000000 0.000000 -0.000000 -0.000000 -0.875778
  4 17.597599 0.000000 0.000000 -0.090007 -0.030138 0.345956
  5 0.000005 -0.000003 -3.713254 0.227154 3.008463 0.006495
  6 18.045721 -0.000000 -0.000001 0.000000 0.000000 -0.832728
  7 17.597593 0.000000 -0.000000 -0.016572 0.074980 0.579089
  8 1.293338 0.684453 -0.000001 -0.069758 0.000658 0.009501
  9 5.309647 -0.003832 -0.000000 -0.000000 0.000000 -0.279097
 10 4.826592 -0.004567 -0.000000 -0.077924 -0.009480 -0.121773
 11 5.792761 -0.005304 -0.000000 0.000000 -0.000000 -0.087221
 12 6.661936 -0.000705 0.000000 -0.000000 -0.000001 -0.462276
 13 2.044495 -0.000000 -0.000000 0.138872 0.085489 0.294207
 14 -3.072953 -1.596963 4.341911 -0.000013 -1.370798 3.603067
 15 -2.834734 -1.472357 -4.140396 -0.000013 1.370795 3.603012
 16 4.827231 0.000000 0.000001 0.766495 0.641871 0.981702
 17 11.139763 -0.000000 -0.000000 0.000000 -0.000000 -0.540097
 18 8.575572 -8.394946 9.511936 -1.535143 -1.058019 1.499774
 19 -1.465386 0.506167 4.002137 0.034889 -0.200000 -0.000001
 20 4.972047 0.000000 0.000001 -0.767644 -0.680369 0.961262
 21 -9.249866 0.683183 -1.946118 -0.000014 -1.670796 0.000014
 22 10.313008 -0.000000 0.000000 -1.570000 0.000000 -0.069778
 23 1.646738 0.449549 -1.702246 0.154002 0.442277 0.277235
 24 0.928314 0.000000 0.000000 0.000000 0.000000 0.000000
 25 0.928314 -0.000000 -0.000000 0.000000 0.000000 0.000000
 26 2.975832 -0.386307 -0.044144 -0.000797 -0.043611 0.000035
 27 1.438890 0.000003 0.000001 -0.000000 -0.000000 0.793722
 28 1.485299 -0.000005 -0.000000 0.000000 -0.000000 1.465316
 29 11.585355 0.000000 0.000001 0.000000 0.000000 -1.290222
 30 10.125607 -0.000000 0.000001 1.569752 -0.000000 -0.069778
 31 1.533671 0.109715 1.664491 -0.233255 -0.412980 0.435685
 32 0.928314 -0.000001 0.000000 0.000000 0.000000 0.000000
 33 2.683748 -0.427340 0.044205 0.001045 0.043611 0.000046
 34 1.438886 0.000003 0.000000 0.000000 0.000000 1.099000
 35 2.027418 0.730720 12.541074 -1.531161 -0.031283 2.992741
time 1
  0 0.235348 -0.235348 -3.061118 0.000000 -0.320029 -1.570829
  1 2.019592 -0.132817 0.000000 -1.570795 -1.570787 0.000000
  2 -0.000005 0.000007 3.713254 -0.033597 -3.073985 -0.409795
  3 18.045725 0.000000 0.000000 -0.000000 -0.000000 -1.170172
  4 17.597599 0.000000 0.000000 -0.086855 -0.027825 0.438190
  5 0.000005 -0.000003 -3.713254 0.199698 2.968231 -0.108831
  6 18.045721 -0.000000 -0.000001 0.000000 0.000000 -1.177202
  7 17.597593 0.000000 -0.000000 -0.018614 0.071352 0.721702
  8 1.293338 0.684453 -0.000001 -0.069758 0.000658 0.009501
  9 5.309647 -0.003832 -0.000000 -0.000000 0.000000 -0.260600
 10 4.826592 -0.004567 -0.000000 -0.078391 -0.004063 -0.052496
 11 5.792761 -0.005304 -0.000000 0.000000 -0.000000 -0.078646
 12 6.661936 -0.000705 0.000000 -0.000000 -0.000001 -0.462276
 13 2.044495 -0.000000 -0.000000 0.148152 0.068716 0.323489
 14 -3.072953 -1.596963 4.341911 -0.000013 -1.370798 3.603067
 15 -2.834734 -1.472357 -4.140396 -0.000013 1.370795 3.603012
 16 4.827231 0.000000 0.000001 0.694287 0.717866 0.916856
 17 11.139763 -0.000000 -0.000000 0.000000 -0.000000 -0.540097
 18 8.575572 -8.394946 9.511936 -1.535143 -1.058019 1.499774
 19 -1.465386 0.506167 4.002137 0.034889 -0.200000 -0.000001
 20 4.972047 0.000000 0.000001 -0.693798 -0.756949 0.893639
 21 -9.249866 0.683183 -1.946118 -0.000014 -1.670796 0.000014
 22 10.313008 -0.000000 0.000000 -1.570000 0.000000 -0.069778
 23 1.646738 0.449549 -1.702246 0.154002 0.442277 0.277235
 24 0.928314 0.000000 0.000000 0.000000 0.000000 0.000000
 25 0.928314 -0.000000 -0.000000 0.000000 0.000000 0.000000
 26 2.975832 -0.386307 -0.044144 -0.000797 -0.043611 0.000035
 27 1.438890 0.000003 0.000001 -0.000000 -0.000000 0.793722
 28 1.485299 -0.000005 -0.000000 0.000000 -0.000000 1.465316
 29 11.585355 0.000000 0.000001 0.000000 0.000000 -1.290222
 30 10.125607 -0.000000 0.000001 1.569752 -0.000000 -0.069778
 31 1.533671 0.109715 1.664491 -0.233255 -0.412980 0.435685
 32 0.928314 -0.000001 0.000000 0.000000 0.000000 0.000000
 33 2.683748 -0.427340 0.044205 0.001045 0.043611 0.000046
 34 1.438886 0.000003 0.000000 0.000000 0.000000 1.099000
 35 2.027418 0.730720 12.541074 -1.531161 -0.031283 2.992741
time 2
  0 0.235348 -0.235348 -4.963520 0.000000 -0.379517 -1.570829
  1 1.441449 -0.066408 0.000000 -1.570795 -1.570787 0.000000
  2 -0.000005 0.000007 3.713254 -0.024875 -3.070438 -0.542125
  3 18.045725 0.000000 0.000000 -0.000000 -0.000000 -1.394362
  4 17.597599 0.000000 0.000000 -0.085279 -0.023089 0.470947
  5 0.000005 -0.000003 -3.713254 0.170138 2.938523 -0.237483
  6 18.045721 -0.000000 -0.000001 0.000000 0.000000 -1.450464
  7 17.597593 0.000000 -0.000000 -0.020952 0.064190 0.807743
  8 1.293338 0.684453 -0.000001 -0.069758 0.000658 0.009501
  9 5.309647 -0.003832 -0.000000 -0.000000 0.000000 -0.211740
 10 4.826592 -0.004567 -0.000000 -0.078427 0.003152 0.039348
 11 5.792761 -0.005304 -0.000000 0.000000 -0.000000 -0.054997
 12 6.661936 -0.000705 0.000000 -0.000000 -0.000001 -0.462276
 13 2.044495 -0.000000 -0.000000 0.160747 0.031408 0.421808
 14 -3.072953 -1.596963 4.341911 -0.000013 -1.370798 3.603067
 15 -2.834734 -1.472357 -4.140396 -0.353593 1.358011 3.256718
 16 4.827231 0.000000 0.000001 0.540407 0.836326 0.775700
 17 11.139763 -0.000000 -0.000000 0.000000 -0.000000 -0.540097
 18 8.575572 -8.394946 9.511936 -1.535143 -1.058019 1.499774
 19 -1.465386 0.506167 4.002137 0.034889 -0.200000 -0.000001
 20 4.972047 0.000000 0.000001 -0.391724 -0.937056 0.642727
 21 -9.249866 0.683183 -1.946118 -0.000014 -1.670796 0.000014
 22 10.313008 -0.000000 0.000000 -1.570000 0.000000 -0.069778
 23 1.646738 0.449549 -1.702246 0.154002 0.442277 0.277235
 24 0.928314 0.000000 0.000000 0.000000 0.000000 0.000000
 25 0.928314 -0.000000 -0.000000 0.000000 0.000000 0.000000
 26 2.975832 -0.386307 -0.044144 -0.000797 -0.043611 0.000035
 27 1.438890 0.000003 0.000001 -0.000000 -0.000000 0.793722
 28 1.485299 -0.000005 -0.000000 0.000000 -0.000000 1.465316
 29 11.585355 0.000000 0.000001 0.000000 0.000000 -1.290222
 30 10.125607 -0.000000 0.000001 1.569752 -0.000000 -0.069778
 31 1.533671 0.109715 1.664491 -0.233255 -0.412980 0.435685
 32 0.928314 -0.000001 0.000000 0.000000 0.000000 0.000000
 33 2.683748 -0.427340 0.044205 0.001045 0.043611 0.000046
 34 1.438886 0.000003 0.000000 0.000000 0.000000 1.099000
 35 2.027418 0.730720 12.541074 -1.531161 -0.031283 2.992741
time 3
  0 0.235348 -0.235348 -6.553412 0.000000 -0.440517 -1.570829
  1 0.835962 0.000000 0.000000 -1.570795 -1.570787 0.000000
  2 -0.000005 0.000007 3.713254 -0.019124 -3.069671 -0.641191
  3 18.045725 0.000000 0.000000 -0.000000 -0.000000 -1.537144
  4 17.597599 0.000000 0.000000 -0.084542 -0.016865 0.454065
  5 0.000005 -0.000003 -3.713254 0.144978 2.918966 -0.338611
  6 18.045721 -0.000000 -0.000001 0.000000 0.000000 -1.641645
  7 17.597593 0.000000 -0.000000 -0.024128 0.053984 0.839172
  8 1.293338 0.684453 -0.000001 -0.069758 0.000658 0.009501
  9 5.309647 -0.003832 -0.000000 -0.000000 0.000000 -0.161941
 10 4.826592 -0.004567 -0.000000 -0.077792 0.010510 0.133280
 11 5.792761 -0.005304 -0.000000 0.000000 -0.000000 -0.030850
 12 6.661936 -0.000705 0.000000 -0.000000 -0.000001 -0.462276
 13 2.044495 -0.000000 -0.000000 0.163995 -0.008758 0.521461
 14 -3.072953 -1.596963 4.341911 0.006027 -1.370798 3.597122
 15 -2.834734 -1.472357 -4.140396 -0.669783 1.317787 2.948870
 16 4.827231 0.000000 0.000001 0.039246 0.976572 0.224117
 17 11.139763 -0.000000 -0.000000 0.000000 -0.000000 -0.540097
 18 8.575572 -8.394946 9.511936 -1.535143 -1.058019 1.499774
 19 -1.465386 0.506167 4.002137 0.034889 -0.200000 -0.000001
 20 4.972047 0.000000 0.000001 0.111454 -1.017658 0.199321
 21 -9.249866 0.683183 -1.946118 -0.000014 -1.670796 0.000014
 22 10.313008 -0.000000 0.000000 -1.570000 0.000000 -0.069778
 23 1.646738 0.449549 -1.702246 0.154002 0.442277 0.277235
 24 0.928314 0.000000 0.000000 0.000000 0.000000 0.000000
 25 0.928314 -0.000000 -0.000000 0.000000 0.000000 0.000000
 26 2.975832 -0.386307 -0.044144 -0.000797 -0.043611 0.000035
 27 1.438890 0.000003 0.000001 -0.000000 -0.000000 0.793722
 28 1.485299 -0.000005 -0.000000 0.000000 -0.000000 1.465316
 29 11.585355 0.000000 0.000001 0.000000 0.000000 -1.290222
 30 10.125607 -0.000000 0.000001 1.569752 -0.000000 -0.069778
 31 1.533671 0.109715 1.664491 -0.233255 -0.412980 0.435685
 32 0.928314 -0.000001 0.000000 0.000000 0.000000 0.000000
 33 2.683748 -0.427340 0.044205 0.001045 0.043611 0.000046
 34 1.438886 0.000003 0.000000 0.000000 0.000000 1.099000
 35 2.027418 0.730720 12.541074 -1.531161 -0.031283 2.992741
time 4
  0 0.235348 -0.235348 -8.037832 0.000000 -0.502940 -1.570829
  1 0.218756 0.066408 0.000000 -1.570795 -1.570787 0.000000
  2 -0.000005 0.000007 3.713254 -0.015865 -3.070343 -0.711072
  3 18.045725 0.000000 0.000000 -0.000000 -0.000000 -1.627458
  4 17.597599 0.000000 0.000000 -0.084745 -0.009926 0.412523
  5 0.000005 -0.000003 -3.713254 0.124027 2.905369 -0.416529
  6 18.045721 -0.000000 -0.000001 0.000000 0.000000 -1.777479
  7 17.597593 0.000000 -0.000000 -0.027464 0.042397 0.837693
  8 1.293338 0.684453 -0.000001 -0.069758 0.000658 0.009501
  9 5.309647 -0.003832 -0.000000 -0.000000 0.000000 -0.111184
 10 4.826592 -0.004567 -0.000000 -0.076426 0.017917 0.229081
 11 5.792761 -0.005304 -0.000000 0.000000 -0.000000 -0.006267
 12 6.661936 -0.000705 0.000000 -0.000000 -0.000001 -0.462276
 13 2.044495 -0.000000 -0.000000 0.157101 -0.049353 0.623049
 14 -3.072953 -1.596963 4.341911 0.012834 -1.370798 3.590411
 15 -2.834734 -1.472357 -4.140396 -0.869390 1.266403 2.756836
 16 4.827231 0.000000 0.000001 -0.568563 0.886366 -0.436855
 17 11.139763 -0.000000 -0.000000 0.000000 -0.000000 -0.540097
 18 8.575572 -8.394946 9.511936 -1.535143 -1.058019 1.499774
 19 -1.465386 0.506167 4.002137 0.034889 -0.200000 -0.000001
 20 4.972047 0.000000 0.000001 0.603114 -0.942205 -0.232308
 21 -9.249866 0.683183 -1.946118 -0.000014 -1.670796 0.000014
 22 10.313008 -0.000000 0.000000 -1.570000 0.000000 -0.069778
 23 1.646738 0.449549 -1.702246 0.154002 0.442277 0.277235
 24 0.928314 0.000000 0.000000 0.000000 0.000000 0.000000
 25 0.928314 -0.000000 -0.000000 0.000000 0.000000 0.000000
 26 2.975832 -0.386307 -0.044144 -0.000797 -0.043611 0.000035
 27 1.438890 0.000003 0.000001 -0.000000 -0.000000 0.793722
 28 1.485299 -0.000005 -0.000000 0.000000 -0.000000 1.465316
 29 11.585355 0.000000 0.000001 0.000000 0.000000 -1.290222
 30 10.125607 -0.000000 0.000001 1.569752 -0.000000 -0.069778
 31 1.533671 0.109715 1.664491 -0.233255 -0.412980 0.435685
 32 0.928314 -0.000001 0.000000 0.000000 0.000000 0.000000
 33 2.683748 -0.427340 0.044205 0.001045 0.043611 0.000046
 34 1.438886 0.000003 0.000000 0.000000 0.000000 1.099000
 35 2.027418 0.730720 12.541074 -1.531161 -0.031283 2.992741
time 5
  0 0.235348 -0.235348 -9.729290 0.000000 -0.573188 -1.570829
  1 -0.457046 0.140629 0.000000 -1.570795 -1.570787 0.000000
  2 -0.000005 0.000007 3.713254 -0.014619 -3.071589 -0.750989
  3 18.045725 0.000000 0.000000 -0.000000 -0.000000 -1.691650
  4 17.597599 0.000000 0.000000 -0.085533 -0.002848 0.366818
  5 0.000005 -0.000003 -3.713254 0.106520 2.893914 -0.466488
  6 18.045721 -0.000000 -0.000001 0.000000 0.000000 -1.880713
  7 17.597593 0.000000 -0.000000 -0.031867 0.031817 0.823420
  8 1.293338 0.684453 -0.000001 -0.069758 0.000658 0.009501
  9 5.309647 -0.003832 -0.000000 -0.000000 0.000000 -0.054873
 10 4.826592 -0.004567 -0.000000 -0.074077 0.025983 0.336055
 11 5.792761 -0.005304 -0.000000 0.000000 -0.000000 0.020994
 12 6.661936 -0.000705 0.000000 -0.000000 -0.000001 -0.462276
 13 2.044495 -0.000000 -0.000000 0.137745 -0.090960 0.736776
 14 -3.072953 -1.596963 4.341911 0.018874 -1.370774 3.584563
 15 -2.834734 -1.472357 -4.140396 -0.992012 1.215902 2.640925
 16 4.827231 0.000000 0.000001 -0.921716 0.623575 -0.828293
 17 11.139763 -0.000000 -0.000000 0.000000 -0.000000 -0.540097
 18 8.575572 -8.394946 9.511936 -1.535143 -1.058019 1.499774
 19 -1.465386 0.506167 4.002137 0.034889 -0.200000 -0.000001
 20 4.972047 0.000000 0.000001 0.934448 -0.759362 -0.504280
 21 -9.249866 0.683183 -1.946118 -0.000014 -1.670796 0.000014
 22 10.313008 -0.000000 0.000000 -1.570000 0.000000 -0.069778
 23 1.646738 0.449549 -1.702246 0.154002 0.442277 0.277235
 24 0.928314 0.000000 0.000000 0.000000 0.000000 0.000000
 25 0.928314 -0.000000 -0.000000 0.000000 0.000000 0.000000
 26 2.975832 -0.386307 -0.044144 -0.000797 -0.043611 0.000035
 27 1.438890 0.000003 0.000001 -0.000000 -0.000000 0.793722
 28 1.485299 -0.000005 -0.000000 0.000000 -0.000000 1.465316
 29 11.585355 0.000000 0.000001 0.000000 0.000000 -1.290222
 30 10.125607 -0.000000 0.000001 1.569752 -0.000000 -0.069778
 31 1.533671 0.109715 1.664491 -0.233255 -0.412980 0.435685
 32 0.928314 -0.000001 0.000000 0.000000 0.000000 0.000000
 33 2.683748 -0.427340 0.044205 0.001045 0.043611 0.000046
 34 1.438886 0.000003 0.000000 0.000000 0.000000 1.099000
 35 2.027418 0.730720 12.541074 -1.531161 -0.031283 2.992741
time 6
  0 0.235348 -0.235348 -12.334839 0.000000 -0.610536 -1.570829
  1 -0.796900 0.179693 0.000000 -1.570795 -1.570787 0.000000
  2 -0.000005 0.000007 3.713254 0.010014 -3.004773 -1.022110
  3 18.045725 0.000000 0.000000 -0.000000 -0.000000 -1.608980
  4 17.597599 0.000000 0.000000 -0.019978 -0.000205 0.235787
  5 0.000005 -0.000003 -3.713254 0.213570 2.965530 -0.712259
  6 18.045721 -0.000000 -0.000001 0.000000 0.000000 -1.907372
  7 17.597593 0.000000 -0.000000 0.003965 0.016439 0.624531
  8 1.293338 0.684453 -0.000001 -0.069758 0.000658 0.009501
  9 5.309647 -0.003832 -0.000000 -0.000000 0.000000 -0.026168
 10 4.826592 -0.004567 -0.000000 -0.072519 0.030045 0.391374
 11 5.792761 -0.005304 -0.000000 0.000000 -0.000000 0.034885
 12 6.661936 -0.000705 0.000000 -0.000000 -0.000001 -0.462276
 13 2.044495 -0.000000 -0.000000 0.123493 -0.109738 0.795207
 14 -3.072953 -1.596963 4.341911 0.023955 -1.370749 3.579481
 15 -2.834734 -1.472357 -4.140396 -1.074079 1.168615 2.564610
 16 4.827231 0.000000 0.000001 -1.041945 0.401377 -0.988701
 17 11.139763 -0.000000 -0.000000 0.000000 -0.000000 -0.540097
 18 8.575572 -8.394946 9.511936 -1.535143 -1.058019 1.499774
 19 -1.465386 0.506167 4.002137 0.034889 -0.200000 -0.000001
 20 4.972047 0.000000 0.000001 1.065050 -0.611109 -0.586097
 21 -9.249866 0.683183 -1.946118 -0.000014 -1.670796 0.000014
 22 10.313008 -0.000000 0.000000 -1.570000 0.000000 -0.069778
 23 1.646738 0.449549 -1.702246 0.154002 0.442277 0.277235
 24 0.928314 0.000000 0.000000 0.000000 0.000000 0.000000
 25 0.928314 -0.000000 -0.000000 0.000000 0.000000 0.000000
 26 2.975832 -0.386307 -0.044144 -0.000797 -0.043611 0.000035
 27 1.438890 0.000003 0.000001 -0.000000 -0.000000 0.793722
 28 1.485299 -0.000005 -0.000000 0.000000 -0.000000 1.465316
 29 11.585355 0.000000 0.000001 0.000000 0.000000 -1.290222
 30 10.125607 -0.000000 0.000001 1.569752 -0.000000 -0.069778
 31 1.533671 0.109715 1.664491 -0.233255 -0.412980 0.435685
 32 0.928314 -0.000001 0.000000 0.000000 0.000000 0.000000
 33 2.683748 -0.427340 0.044205 0.001045 0.043611 0.000046
 34 1.438886 0.000003 0.000000 0.000000 0.000000 1.099000
 35 2.027418 0.730720 12.541074 -1.531161 -0.031283 2.992741
time 7
  0 0.235348 -0.235348 -16.233395 0.000000 -0.746941 -1.570829
  1 -1.429732 0.222663 0.000000 -1.570795 -1.570787 0.000000
  2 -0.000005 0.000007 3.713254 0.052859 -2.945819 -1.296872
  3 18.045725 0.000000 0.000000 -0.000000 -0.000000 -1.522821
  4 17.597599 0.000000 0.000000 0.046009 -0.011000 0.109469
  5 0.000005 -0.000003 -3.713254 0.333534 3.011815 -0.959193
  6 18.045721 -0.000000 -0.000001 0.000000 0.000000 -1.925846
  7 17.597593 0.000000 -0.000000 0.079984 0.012928 0.437733
  8 1.293338 0.684453 -0.000001 -0.069758 0.000658 0.009501
  9 5.309647 -0.003832 -0.000000 -0.000000 0.000000 0.091187
 10 4.826592 -0.004567 -0.000000 -0.072519 0.030045 0.391374
 11 5.792761 -0.005304 -0.000000 0.000000 -0.000000 0.034885
 12 6.661936 -0.000705 0.000000 -0.000000 -0.000001 -0.124040
 13 2.044495 -0.000000 -0.000000 0.109838 -0.123562 0.513323
 14 -3.424526 -0.487554 4.341911 0.028461 -1.370725 3.236820
 15 -3.158963 -0.448889 -4.140396 -1.135726 1.122529 2.170284
 16 4.827231 0.000000 0.000001 -1.115030 0.168201 -1.094152
 17 11.139763 -0.000000 -0.000000 0.000000 -0.000000 -0.540097
 18 8.575572 -8.394946 9.511936 -1.535143 -1.058019 1.499774
 19 -1.465386 0.506167 4.002137 0.034889 -0.200000 -0.000001
 20 4.972047 0.000000 0.000001 1.173265 -0.446608 -0.643112
 21 -9.249866 0.683183 -1.946118 -0.000014 -1.670796 0.000014
 22 10.313008 -0.000000 0.000000 -1.570000 0.000000 -0.069778
 23 1.646738 0.449549 -1.702246 0.154002 0.442277 0.277235
 24 0.928314 0.000000 0.000000 0.000000 0.000000 0.000000
 25 0.928314 -0.000000 -0.000000 0.000000 0.000000 0.000000
 26 2.975832 -0.386307 -0.044144 -0.000797 -0.043611 0.000035
 27 1.438890 0.000003 0.000001 -0.000000 -0.000000 0.793722
 28 1.485299 -0.000005 -0.000000 0.000000 -0.000000 1.465316
 29 11.585355 0.000000 0.000001 0.000000 0.000000 -1.290222
 30 10.125607 -0.000000 0.000001 1.569752 -0.000000 -0.069778
 31 1.533671 0.109715 1.664491 -0.233255 -0.412980 0.435685
 32 0.928314 -0.000001 0.000000 0.000000 0.000000 0.000000
 33 2.683748 -0.427340 0.044205 0.001045 0.043611 0.000046
 34 1.438886 0.000003 0.000000 0.000000 0.000000 1.099000
 35 2.027418 0.730720 12.541074 -1.531161 -0.031283 2.992741
time 8
  0 0.235348 -0.235348 -21.663248 0.000000 -0.881391 -1.570829
  1 -2.003968 0.265633 0.000000 -1.570795 -1.570787 0.000000
  2 -0.000005 0.000007 3.713254 0.096279 -2.910254 -1.518556
  3 18.045725 0.000000 0.000000 -0.000000 -0.000000 -1.445419
  4 17.597599 0.000000 0.000000 0.094610 -0.026806 0.001588
  5 0.000005 -0.000003 -3.713254 0.446610 3.019731 -1.159996
  6 18.045721 -0.000000 -0.000001 0.000000 0.000000 -1.939465
  7 17.597593 0.000000 -0.000000 0.163242 0.022899 0.292679
  8 1.293338 0.684453 -0.000001 -0.069758 0.000658 0.009501
  9 5.309647 -0.003832 -0.000000 -0.000000 0.000000 0.201671
 10 4.826592 -0.004567 -0.000000 -0.072519 0.030045 0.391374
 11 5.792761 -0.005304 -0.000000 0.000000 -0.000000 0.034885
 12 6.661936 -0.000705 0.000000 -0.000000 -0.000001 0.226098
 13 2.044495 -0.000000 -0.000000 0.094062 -0.135337 0.224503
 14 -3.385463 0.719514 4.341911 0.032776 -1.370700 2.882462
 15 -3.119900 0.664427 -4.140396 -1.186539 1.074995 1.774808
 16 4.827231 0.000000 0.000001 -1.156917 -0.050848 -1.168361
 17 11.139763 -0.000000 -0.000000 0.000000 -0.000000 -0.540097
 18 8.575572 -8.394946 9.511936 -1.535143 -1.058019 1.499774
 19 -1.465386 0.506167 4.002137 0.034889 -0.200000 -0.000001
 20 4.972047 0.000000 0.000001 1.251570 -0.283715 -0.665965
 21 -9.249866 0.683183 -1.946118 -0.000014 -1.670796 0.000014
 22 10.313008 -0.000000 0.000000 -1.570000 0.000000 -0.069778
 23 1.646738 0.449549 -1.702246 0.154002 0.442277 0.277235
 24 0.928314 0.000000 0.000000 0.000000 0.000000 0.000000
 25 0.928314 -0.000000 -0.000000 0.000000 0.000000 0.000000
 26 2.975832 -0.386307 -0.044144 -0.000797 -0.043611 0.000035
 27 1.438890 0.000003 0.000001 -0.000000 -0.000000 0.793722
 28 1.485299 -0.000005 -0.000000 0.000000 -0.000000 1.465316
 29 11.585355 0.000000 0.000001 0.000000 0.000000 -1.290222
 30 10.125607 -0.000000 0.000001 1.569752 -0.000000 -0.069778
 31 1.533671 0.109715 1.664491 -0.233255 -0.412980 0.435685
 32 0.928314 -0.000001 0.000000 0.000000 0.000000 0.000000
 33 2.683748 -0.427340 0.044205 0.001045 0.043611 0.000046
 34 1.438886 0.000003 0.000000 0.000000 0.000000 1.099000
 35 2.027418 0.730720 12.541074 -1.531161 -0.031283 2.992741
time 9
  0 0.235348 -0.235348 -27.511084 0.000000 -0.983295 -1.570829
  1 -2.406324 0.292978 0.000000 -1.570795 -1.570787 0.000000
  2 -0.000005 0.000007 3.713254 -3.005968 -0.250869 1.433415
  3 18.045725 0.000000 0.000000 -0.000000 -0.000000 -1.364233
  4 17.597599 0.000000 0.000000 0.130628 -0.042365 -0.104874
  5 0.000005 -0.000003 -3.713254 0.563418 2.993003 -1.335554
  6 18.045721 -0.000000 -0.000001 0.000000 0.000000 -1.951564
  7 17.597593 0.000000 -0.000000 0.252127 0.043755 0.166890
  8 1.293338 0.684453 -0.000001 -0.069758 0.000658 0.009501
  9 5.309647 -0.003832 -0.000000 -0.000000 0.000000 0.282731
 10 4.826592 -0.004567 -0.000000 -0.072519 0.030045 0.391374
 11 5.792761 -0.005304 -0.000000 0.000000 -0.000000 0.034885
 12 6.661936 -0.000705 0.000000 -0.000000 -0.000001 0.500577
 13 2.044495 -0.000000 -0.000000 0.083721 -0.141169 -0.020294
 14 -3.069047 1.606259 4.341911 0.037090 -1.370676 2.603846
 15 -2.830828 1.480858 -4.140396 -1.229777 1.025836 1.462741
 16 4.827231 0.000000 0.000001 -1.174619 -0.227007 -1.220780
 17 11.139763 -0.000000 -0.000000 0.000000 -0.000000 -0.540097
 18 8.575572 -8.394946 9.511936 -1.535143 -1.058019 1.499774
 19 -1.465386 0.506167 4.002137 0.034889 -0.200000 -0.000001
 20 4.972047 0.000000 0.000001 1.301916 -0.150183 -0.658321
 21 -9.249866 0.683183 -1.946118 -0.000014 -1.670796 0.000014
 22 10.313008 -0.000000 0.000000 -1.570000 0.000000 -0.069778
 23 1.646738 0.449549 -1.702246 0.154002 0.442277 0.277235
 24 0.928314 0.000000 0.000000 0.000000 0.000000 0.000000
 25 0.928314 -0.000000 -0.000000 0.000000 0.000000 0.000000
 26 2.975832 -0.386307 -0.044144 -0.000797 -0.043611 0.000035
 27 1.438890 0.000003 0.000001 -0.000000 -0.000000 0.793722
 28 1.485299 -0.000005 -0.000000 0.000000 -0.000000 1.465316
 29 11.585355 0.000000 0.000001 0.000000 0.000000 -1.290222
 30 10.125607 -0.000000 0.000001 1.569752 -0.000000 -0.069778
 31 1.533671 0.109715 1.664491 -0.233255 -0.412980 0.435685
 32 0.928314 -0.000001 0.000000 0.000000 0.000000 0.000000
 33 2.683748 -0.427340 0.044205 0.001045 0.043611 0.000046
 34 1.438886 0.000003 0.000000 0.000000 0.000000 1.099000
 35 2.027418 0.730720 12.541074 -1.531161 -0.031283 2.992741
time 10
  0 0.235348 -0.235348 -31.823715 0.000000 -1.055321 -1.570829
  1 -2.597737 0.304697 0.000000 -1.570795 -1.570787 0.000000
  2 -0.000005 0.000007 3.713254 -2.989578 -0.251924 1.313953
  3 18.045725 0.000000 0.000000 -0.000000 -0.000000 -1.266497
  4 17.597599 0.000000 0.000000 0.145371 -0.044320 -0.215134
  5 0.000005 -0.000003 -3.713254 0.692948 2.916172 -1.460717
  6 18.045721 -0.000000 -0.000001 0.000000 0.000000 -1.963155
  7 17.597593 0.000000 -0.000000 0.333433 0.076080 0.055854
  8 1.293338 0.684453 -0.000001 -0.069758 0.000658 0.009501
  9 5.309647 -0.003832 -0.000000 -0.000000 0.000000 0.322722
 10 4.826592 -0.004567 -0.000000 -0.072519 0.030045 0.391374
 11 5.792761 -0.005304 -0.000000 0.000000 -0.000000 0.034885
 12 6.661936 -0.000705 0.000000 -0.000000 -0.000001 0.716504
 13 2.044495 -0.000000 -0.000000 0.079479 -0.143150 -0.228405
 14 -2.651065 2.227372 4.341911 0.040925 -1.370652 2.384194
 15 -2.444098 2.055094 -4.140396 -1.262854 0.981197 1.218935
 16 4.827231 0.000000 0.000001 -1.179701 -0.312022 -1.244058
 17 11.139763 -0.000000 -0.000000 0.000000 -0.000000 -0.540097
 18 8.575572 -8.394946 9.511936 -1.535143 -1.058019 1.499774
 19 -1.465386 0.506167 4.002137 0.034889 -0.200000 -0.000001
 20 4.972047 0.000000 0.000001 1.327646 -0.080279 -0.630165
 21 -9.249866 0.683183 -1.946118 -0.000014 -1.670796 0.000014
 22 10.313008 -0.000000 0.000000 -1.570000 0.000000 -0.069778
 23 1.646738 0.449549 -1.702246 0.154002 0.442277 0.277235
 24 0.928314 0.000000 0.000000 0.000000 0.000000 0.000000
 25 0.928314 -0.000000 -0.000000 0.000000 0.000000 0.000000
 26 2.975832 -0.386307 -0.044144 -0.000797 -0.043611 0.000035
 27 1.438890 0.000003 0.000001 -0.000000 -0.000000 0.793722
 28 1.485299 -0.000005 -0.000000 0.000000 -0.000000 1.465316
 29 11.585355 0.000000 0.000001 0.000000 0.000000 -1.290222
 30 10.125607 -0.000000 0.000001 1.569752 -0.000000 -0.069778
 31 1.533671 0.109715 1.664491 -0.233255 -0.412980 0.435685
 32 0.928314 -0.000001 0.000000 0.000000 0.000000 0.000000
 33 2.683748 -0.427340 0.044205 0.001045 0.043611 0.000046
 34 1.438886 0.000003 0.000000 0.000000 0.000000 1.099000
 35 2.027418 0.730720 12.541074 -1.531161 -0.031283 2.992741
time 11
  0 0.235348 -0.235348 -34.292542 0.000000 -1.085732 -1.570829
  1 -1.468796 0.199225 0.000000 -1.570795 -1.570787 0.000000
  2 -0.000005 0.000007 3.713254 -3.055618 -0.209745 1.440457
  3 18.045725 0.000000 0.000000 -0.000000 -0.000000 -1.136258
  4 17.597599 0.000000 0.000000 0.094737 0.009792 -0.318623
  5 0.000005 -0.000003 -3.713254 0.865911 2.762322 -1.401261
  6 18.045721 -0.000000 -0.000001 0.000000 0.000000 -1.963155
  7 17.597593 0.000000 -0.000000 0.345846 0.105597 -0.046346
  8 1.293338 0.684453 -0.000001 -0.069705 -0.002889 -0.041424
  9 5.309647 -0.003832 -0.000000 -0.000000 0.000000 0.248234
 10 4.826592 -0.004567 -0.000000 -0.075599 0.021141 0.271467
 11 5.792761 -0.005304 -0.000000 0.000000 -0.000000 0.034885
 12 6.661936 -0.000705 0.000000 -0.000000 -0.000001 0.846039
 13 2.044495 -0.000000 -0.000000 0.081732 -0.143150 -0.183582
 14 -2.342462 2.551601 4.341911 0.040925 -1.370652 2.254666
 15 -2.158933 2.351978 -4.140396 -1.262854 0.981197 1.089411
 16 4.827231 0.000000 0.000001 -1.109772 -0.005915 -1.175274
 17 11.139763 -0.000000 -0.000000 0.000000 -0.000000 -0.551801
 18 8.575572 -8.394946 9.511936 -1.535143 -1.058019 1.499774
 19 -1.465386 0.506167 4.002137 0.034889 -0.200000 -0.000001
 20 4.972047 0.000000 0.000001 1.218037 -0.337610 -0.549205
 21 -9.249866 0.683183 -1.946118 -0.000014 -1.670796 0.000014
 22 10.313008 -0.000000 0.000000 -1.570000 0.000000 -0.069778
 23 1.646738 0.449549 -1.702246 0.154002 0.442277 0.277235
 24 0.928314 0.000000 0.000000 0.000000 0.000000 0.000000
 25 0.928314 -0.000000 -0.000000 0.000000 0.000000 0.000000
 26 2.975832 -0.386307 -0.044144 -0.000797 -0.043611 0.000035
 27 1.438890 0.000003 0.000001 -0.000000 -0.000000 0.793722
 28 1.485299 -0.000005 -0.000000 0.000000 -0.000000 1.465316
 29 11.585355 0.000000 0.000001 0.000000 0.000000 -1.232482
 30 10.125607 -0.000000 0.000001 1.569752 -0.000000 -0.069778
 31 1.533671 0.109715 1.664491 -0.233255 -0.412980 0.435685
 32 0.928314 -0.000001 0.000000 0.000000 0.000000 0.000000
 33 2.683748 -0.427340 0.044205 0.001045 0.043611 0.000046
 34 1.438886 0.000003 0.000000 0.000000 0.000000 1.099000
 35 2.027418 0.730720 12.541074 -1.531161 -0.031283 2.992741
time 12
  0 0.235348 -0.235348 -35.526951 0.000000 -1.089111 -1.570829
  1 0.789086 -0.003906 0.000000 -1.570795 -1.570787 0.000000
  2 -0.000005 0.000007 3.713254 -0.032830 -3.053567 -1.329020
  3 18.045725 0.000000 0.000000 -0.000000 -0.000000 -0.976705
  4 17.597599 0.000000 0.000000 -0.041635 0.098518 -0.416392
  5 0.000005 -0.000003 -3.713254 1.142192 2.593758 -1.086876
  6 18.045721 -0.000000 -0.000001 0.000000 0.000000 -1.963155
  7 17.597593 0.000000 -0.000000 0.276045 0.105550 -0.147251
  8 1.293338 0.684453 -0.000001 -0.069234 -0.008570 -0.122976
  9 5.309647 -0.003832 -0.000000 -0.000000 0.000000 0.080460
 10 4.826592 -0.004567 -0.000000 -0.078223 0.006508 0.082027
 11 5.792761 -0.005304 -0.000000 0.000000 -0.000000 0.034885
 12 6.661936 -0.000705 0.000000 -0.000000 -0.000001 0.758513
 13 2.044495 -0.000000 -0.000000 0.113020 -0.120388 -0.010823
 14 -2.557312 2.336751 4.341911 0.040925 -1.370652 2.342105
 15 -2.358158 2.152753 -4.140396 -1.262854 0.981197 1.176847
 16 4.827231 0.000000 0.000001 -0.865982 0.569451 -0.899877
 17 11.139763 -0.000000 -0.000000 0.000000 -0.000000 -0.570232
 18 8.575572 -8.394946 9.511936 -1.535143 -1.058019 1.499774
 19 -1.465386 0.506167 4.002137 0.034889 -0.200000 -0.000001
 20 4.972047 0.000000 0.000001 0.862831 -0.793469 -0.218659
 21 -9.249866 0.683183 -1.946118 -0.000014 -1.670796 0.000014
 22 10.313008 -0.000000 0.000000 -1.570000 0.000000 -0.069778
 23 1.646738 0.449549 -1.702246 0.154002 0.442277 0.277235
 24 0.928314 0.000000 0.000000 0.000000 0.000000 0.000000
 25 0.928314 -0.000000 -0.000000 0.000000 0.000000 0.000000
 26 2.975832 -0.386307 -0.044144 -0.000797 -0.043611 0.000035
 27 1.438890 0.000003 0.000001 -0.000000 -0.000000 0.793722
 28 1.485299 -0.000005 -0.000000 0.000000 -0.000000 1.465316
 29 11.585355 0.000000 0.000001 0.000000 0.000000 -1.137349
 30 10.125607 -0.000000 0.000001 1.569752 -0.000000 -0.069778
 31 1.533671 0.109715 1.664491 -0.233255 -0.412980 0.435685
 32 0.928314 -0.000001 0.000000 0.000000 0.000000 0.000000
 33 2.683748 -0.427340 0.044205 0.001045 0.043611 0.000046
 34 1.438886 0.000003 0.000000 0.000000 0.000000 1.099000
 35 2.027418 0.730720 12.541074 -1.531161 -0.031283 2.992741
time 13
  0 0.235348 -0.235348 -35.710552 0.000000 -1.082264 -1.570829
  1 3.054780 -0.207038 0.000000 -1.570795 -1.570787 0.000000
  2 -0.000005 0.000007 3.713254 -0.091969 -3.193812 -0.971265
  3 18.045725 0.000000 0.000000 -0.000000 -0.000000 -0.847875
  4 17.597599 0.000000 0.000000 -0.178693 0.144011 -0.466856
  5 0.000005 -0.000003 -3.713254 1.426414 2.531455 -0.690066
  6 18.045721 -0.000000 -0.000001 0.000000 0.000000 -1.963155
  7 17.597593 0.000000 -0.000000 0.167712 0.076385 -0.231517
  8 1.293338 0.684453 -0.000001 -0.068134 -0.015030 -0.216739
  9 5.309647 -0.003832 -0.000000 -0.000000 0.000000 -0.069795
 10 4.826592 -0.004567 -0.000000 -0.078140 -0.007442 -0.095689
 11 5.792761 -0.005304 -0.000000 0.000000 -0.000000 0.034885
 12 6.661936 -0.000705 0.000000 -0.000000 -0.000001 0.489986
 13 2.044495 -0.000000 -0.000000 0.153323 -0.054689 0.091098
 14 -3.084672 1.575009 4.341911 0.040925 -1.370652 2.610654
 15 -2.846454 1.453513 -4.140396 -1.262854 0.981197 1.445388
 16 4.827231 0.000000 0.000001 -0.039885 0.956574 -0.007613
 17 11.139763 -0.000000 -0.000000 0.000000 -0.000000 -0.594549
 18 8.575572 -8.394946 9.511936 -1.535143 -1.058019 1.499774
 19 -1.465386 0.506167 4.002137 0.034889 -0.200000 -0.000001
 20 4.972047 0.000000 0.000001 -0.043948 -1.011303 0.695842
 21 -9.249866 0.683183 -1.946118 -0.000014 -1.670796 0.000014
 22 10.313008 -0.000000 0.000000 -1.570000 0.000000 -0.069778
 23 1.646738 0.449549 -1.702246 0.154002 0.442277 0.277235
 24 0.928314 0.000000 0.000000 0.000000 0.000000 0.000000
 25 0.928314 -0.000000 -0.000000 0.000000 0.000000 0.000000
 26 2.975832 -0.386307 -0.044144 -0.000797 -0.043611 0.000035
 27 1.438890 0.000003 0.000001 -0.000000 -0.000000 0.793722
 28 1.485299 -0.000005 -0.000000 0.000000 -0.000000 1.465316
 29 11.585355 0.000000 0.000001 0.000000 0.000000 -1.008068
 30 10.125607 -0.000000 0.000001 1.569752 -0.000000 -0.069778
 31 1.533671 0.109715 1.664491 -0.233255 -0.412980 0.435685
 32 0.928314 -0.000001 0.000000 0.000000 0.000000 0.000000
 33 2.683748 -0.427340 0.044205 0.001045 0.043611 0.000046
 34 1.438886 0.000003 0.000000 0.000000 0.000000 1.099000
 35 2.027418 0.730720 12.541074 -1.531161 -0.031283 2.992741
time 14
  0 0.235348 -0.235348 -33.128441 0.000000 -1.076662 -1.570829
  1 4.625140 -0.343760 0.000000 -1.570795 -1.570787 0.000000
  2 -0.000005 0.000007 3.713254 -0.088710 -3.229185 -0.797172
  3 18.045725 0.000000 0.000000 -0.000000 -0.000000 -0.847875
  4 17.597599 0.000000 0.000000 -0.194199 0.158881 -0.293048
  5 0.000005 -0.000003 -3.713254 1.491562 2.531269 -0.393658
  6 18.045721 -0.000000 -0.000001 0.000000 0.000000 -1.963155
  7 17.597593 0.000000 -0.000000 -0.090140 0.022267 -0.217282
  8 1.293338 0.684453 -0.000001 -0.065306 -0.024569 -0.359275
  9 5.309647 -0.003832 -0.000000 -0.000000 0.000000 -0.069795
 10 4.826592 -0.004567 -0.000000 -0.076941 -0.015520 -0.199440
 11 5.792761 -0.005304 -0.000000 0.000000 -0.000000 -0.004357
 12 6.661936 -0.000705 0.000000 -0.000000 -0.000001 0.134464
 13 2.044495 -0.000000 -0.000000 0.154251 0.043702 0.051477
 14 -3.436245 0.407004 4.341911 0.040925 -1.370652 2.966162
 15 -3.166776 0.375355 -4.140396 -1.262854 0.981197 1.800981
 16 4.827231 0.000000 0.000001 0.771140 0.677954 0.903554
 17 11.139763 -0.000000 -0.000000 0.000000 -0.000000 -0.622161
 18 8.575572 -8.394946 9.511936 -1.535143 -1.058019 1.499774
 19 -1.465386 0.506167 4.002137 0.034889 -0.200000 -0.000001
 20 4.972047 0.000000 0.000001 -0.714140 -0.770302 1.405838
 21 -9.249866 0.683183 -1.946118 -0.000014 -1.670796 0.000014
 22 10.313008 -0.000000 0.000000 -1.570000 0.000000 -0.069778
 23 1.646738 0.449549 -1.702246 0.154002 0.442277 0.277235
 24 0.928314 0.000000 0.000000 0.000000 0.000000 0.000000
 25 0.928314 -0.000000 -0.000000 0.000000 0.000000 0.000000
 26 2.975832 -0.386307 -0.044144 -0.000797 -0.043611 0.000035
 27 1.438890 0.000003 0.000001 -0.000000 -0.000000 0.793722
 28 1.485299 -0.000005 -0.000000 0.000000 -0.000000 1.465316
 29 11.585355 0.000000 0.000001 0.000000 0.000000 -0.860621
 30 10.125607 -0.000000 0.000001 1.569752 -0.000000 -0.069778
 31 1.533671 0.109715 1.664491 -0.233255 -0.412980 0.435685
 32 0.928314 -0.000001 0.000000 0.000000 0.000000 0.000000
 33 2.683748 -0.427340 0.044205 0.001045 0.043611 0.000046
 34 1.438886 0.000003 0.000000 0.000000 0.000000 1.099000
 35 2.027418 0.730720 12.541074 -1.531161 -0.031283 2.992741
time 15
  0 0.235348 -0.235348 -30.765089 0.000000 -1.090623 -1.570829
  1 5.355631 -0.406262 0.000000 -1.570795 -1.570787 0.000000
  2 -0.000005 0.000007 3.713254 -0.076058 -3.215189 -0.718696
  3 18.045725 0.000000 0.000000 -0.000000 -0.000000 -0.847875
  4 17.597599 0.000000 0.000000 -0.178693 0.144011 -0.213899
  5 0.000005 -0.000003 -3.713254 1.446886 2.528475 -0.219893
  6 18.045721 -0.000000 -0.000001 0.000000 0.000000 -1.963155
  7 17.597593 0.000000 -0.000000 -0.289219 0.059883 -0.213769
  8 1.293338 0.684453 -0.000001 -0.063290 -0.029399 -0.434371
  9 5.309647 -0.003832 -0.000000 -0.000000 0.000000 -0.069795
 10 4.826592 -0.004567 -0.000000 -0.076354 -0.018229 -0.234793
 11 5.792761 -0.005304 -0.000000 0.000000 -0.000000 -0.043599
 12 6.661936 -0.000705 0.000000 -0.000000 -0.000001 -0.113378
 13 2.044495 -0.000000 -0.000000 0.121041 0.102893 -0.013758
 14 -3.428433 -0.448491 4.341911 0.040925 -1.370652 3.214002
 15 -3.162869 -0.413731 -4.140396 -1.262854 0.981197 2.048813
 16 4.827231 0.000000 0.000001 0.966119 0.332615 1.191116
 17 11.139763 -0.000000 -0.000000 0.000000 -0.000000 -0.644797
 18 8.575572 -8.394946 9.511936 -1.535143 -1.058019 1.499774
 19 -1.465386 0.506167 4.002137 0.034889 -0.200000 -0.000001
 20 4.972047 0.000000 0.000001 -0.896667 -0.538150 1.623758
 21 -9.249866 0.683183 -1.946118 -0.000014 -1.670796 0.000014
 22 10.313008 -0.000000 0.000000 -1.570000 0.000000 -0.069778
 23 1.646738 0.449549 -1.702246 0.154002 0.442277 0.277235
 24 0.928314 0.000000 0.000000 0.000000 0.000000 0.000000
 25 0.928314 -0.000000 -0.000000 0.000000 0.000000 0.000000
 26 2.975832 -0.386307 -0.044144 -0.000797 -0.043611 0.000035
 27 1.438890 0.000003 0.000001 -0.000000 -0.000000 0.793722
 28 1.485299 -0.000005 -0.000000 0.000000 -0.000000 1.465316
 29 11.585355 0.000000 0.000001 0.000000 0.000000 -0.740776
 30 10.125607 -0.000000 0.000001 1.569752 -0.000000 -0.069778
 31 1.533671 0.109715 1.664491 -0.233255 -0.412980 0.435685
 32 0.928314 -0.000001 0.000000 0.000000 0.000000 0.000000
 33 2.683748 -0.427340 0.044205 0.001045 0.043611 0.000046
 34 1.438886 0.000003 0.000000 0.000000 0.000000 1.099000
 35 2.027418 0.730720 12.541074 -1.531161 -0.031283 2.992741
time 16
  0 0.235348 -0.235348 -31.561987 0.000000 -1.155091 -1.570829
  1 4.355601 -0.335948 0.000000 -1.570795 -1.570787 0.000000
  2 -0.000005 0.000007 3.713254 -0.073566 -3.217585 -0.686062
  3 18.045725 0.000000 0.000000 -0.000000 -0.000000 -0.847875
  4 17.597599 0.000000 0.000000 -0.178693 0.144011 -0.181233
  5 0.000005 -0.000003 -3.713254 1.471568 2.528847 -0.185198
  6 18.045721 -0.000000 -0.000001 0.000000 0.000000 -1.963155
  7 17.597593 0.000000 -0.000000 -0.309688 0.039986 -0.211218
  8 1.293338 0.684453 -0.000001 -0.065621 -0.023730 -0.346561
  9 5.309647 -0.003832 -0.000000 -0.000000 0.000000 -0.015222
 10 4.826592 -0.004567 -0.000000 -0.076486 -0.017665 -0.227429
 11 5.792761 -0.005304 -0.000000 0.000000 -0.000000 -0.043599
 12 6.661936 -0.000705 0.000000 -0.000000 -0.000001 0.130001
 13 2.044495 -0.000000 -0.000000 0.155245 0.044737 0.083294
 14 -3.436245 0.391379 4.341911 0.040925 -1.370652 2.970572
 15 -3.170682 0.359730 -4.140396 -1.262854 0.981197 1.805391
 16 4.827231 0.000000 0.000001 0.834234 0.577876 1.014868
 17 11.139763 -0.000000 -0.000000 0.000000 -0.000000 -0.644797
 18 8.575572 -8.394946 9.511936 -1.535143 -1.058019 1.499774
 19 -1.465386 0.506167 4.002137 0.034889 -0.200000 -0.000001
 20 4.972047 0.000000 0.000001 -0.691476 -0.797652 1.370584
 21 -9.249866 0.683183 -1.946118 -0.000014 -1.670796 0.000014
 22 10.313008 -0.000000 0.000000 -1.570000 0.000000 -0.069778
 23 1.646738 0.449549 -1.702246 0.154002 0.442277 0.277235
 24 0.928314 0.000000 0.000000 0.000000 0.000000 0.000000
 25 0.928314 -0.000000 -0.000000 0.000000 0.000000 0.000000
 26 2.975832 -0.386307 -0.044144 -0.000797 -0.043611 0.000035
 27 1.438890 0.000003 0.000001 -0.000000 -0.000000 0.793722
 28 1.485299 -0.000005 -0.000000 0.000000 -0.000000 1.465316
 29 11.585355 0.000000 0.000001 0.000000 0.000000 -0.740776
 30 10.125607 -0.000000 0.000001 1.569752 -0.000000 -0.069778
 31 1.533671 0.109715 1.664491 -0.233255 -0.412980 0.435685
 32 0.928314 -0.000001 0.000000 0.000000 0.000000 0.000000
 33 2.683748 -0.427340 0.044205 0.001045 0.043611 0.000046
 34 1.438886 0.000003 0.000000 0.000000 0.000000 1.099000
 35 2.027418 0.730720 12.541074 -1.531161 -0.031283 2.992741
time 17
  0 0.235348 -0.235348 -32.960468 0.000000 -1.258329 -1.570829
  1 2.800866 -0.222663 0.000000 -1.570795 -1.570787 0.000000
  2 -0.000005 0.000007 3.713254 -0.072991 -3.218161 -0.678050
  3 18.045725 0.000000 0.000000 -0.000000 -0.000000 -0.847875
  4 17.597599 0.000000 0.000000 -0.178693 0.144011 -0.173226
  5 0.000005 -0.000003 -3.713254 1.497876 2.528847 -0.203612
  6 18.045721 -0.000000 -0.000001 0.000000 0.000000 -1.963155
  7 17.597593 0.000000 -0.000000 -0.276353 0.018101 -0.211587
  8 1.293338 0.684453 -0.000001 -0.068134 -0.014970 -0.215985
  9 5.309647 -0.003832 -0.000000 -0.000000 0.000000 0.047900
 10 4.826592 -0.004567 -0.000000 -0.076929 -0.015580 -0.200209
 11 5.792761 -0.005304 -0.000000 0.000000 -0.000000 -0.043599
 12 6.661936 -0.000705 0.000000 -0.000000 -0.000001 0.479714
 13 2.044495 -0.000000 -0.000000 0.149876 -0.067140 0.300477
 14 -3.100298 1.543758 4.341911 0.040925 -1.370652 2.620912
 15 -2.858173 1.422262 -4.140396 -1.262854 0.981197 1.455742
 16 4.827231 0.000000 0.000001 0.322206 0.907300 0.407891
 17 11.139763 -0.000000 -0.000000 0.000000 -0.000000 -0.644797
 18 8.575572 -8.394946 9.511936 -1.535143 -1.058019 1.499774
 19 -1.465386 0.506167 4.002137 0.034889 -0.200000 -0.000001
 20 4.972047 0.000000 0.000001 -0.012924 -1.017095 0.630247
 21 -9.249866 0.683183 -1.946118 -0.000014 -1.670796 0.000014
 22 10.313008 -0.000000 0.000000 -1.570000 0.000000 -0.069778
 23 1.646738 0.449549 -1.702246 0.154002 0.442277 0.277235
 24 0.928314 0.000000 0.000000 0.000000 0.000000 0.000000
 25 0.928314 -0.000000 -0.000000 0.000000 0.000000 0.000000
 26 2.975832 -0.386307 -0.044144 -0.000797 -0.043611 0.000035
 27 1.438890 0.000003 0.000001 -0.000000 -0.000000 0.793722
 28 1.485299 -0.000005 -0.000000 0.000000 -0.000000 1.465316
 29 11.585355 0.000000 0.000001 0.000000 0.000000 -0.740776
 30 10.125607 -0.000000 0.000001 1.569752 -0.000000 -0.069778
 31 1.533671 0.109715 1.664491 -0.233255 -0.412980 0.435685
 32 0.928314 -0.000001 0.000000 0.000000 0.000000 0.000000
 33 2.683748 -0.427340 0.044205 0.001045 0.043611 0.000046
 34 1.438886 0.000003 0.000000 0.000000 0.000000 1.099000
 35 2.027418 0.730720 12.541074 -1.531161 -0.031283 2.992741
time 18
  0 0.235348 -0.235348 -33.870651 0.000000 -1.334446 -1.570829
  1 1.628955 -0.132817 0.000000 -1.570795 -1.570787 0.000000
  2 -0.000005 0.000007 3.713254 -0.072032 -3.219023 -0.666395
  3 18.045725 0.000000 0.000000 -0.000000 -0.000000 -0.847875
  4 17.597599 0.000000 0.000000 -0.178693 0.144011 -0.161560
  5 0.000005 -0.000003 -3.713254 1.516626 2.528475 -0.219893
  6 18.045721 -0.000000 -0.000001 0.000000 0.000000 -1.963155
  7 17.597593 0.000000 -0.000000 -0.249485 0.002511 -0.212512
  8 1.293338 0.684453 -0.000001 -0.069260 -0.008438 -0.121021
  9 5.309647 -0.003832 -0.000000 -0.000000 0.000000 0.087212
 10 4.826592 -0.004567 -0.000000 -0.077313 -0.013543 -0.173905
 11 5.792761 -0.005304 -0.000000 0.000000 -0.000000 -0.043599
 12 6.661936 -0.000705 0.000000 -0.000000 -0.000001 0.146117
 13 2.044495 -0.000000 -0.000000 0.164724 0.009411 0.062149
 14 -3.432339 0.446068 4.341911 0.040925 -1.370652 2.954465
 15 -3.162869 0.410513 -4.140396 -1.262854 0.981197 1.789284
 16 4.827231 0.000000 0.000001 0.367949 0.889600 0.547208
 17 11.139763 -0.000000 -0.000000 0.000000 -0.000000 -0.605552
 18 8.575572 -8.394946 9.511936 -1.535143 -1.058019 1.499774
 19 -1.465386 0.506167 4.002137 0.034889 -0.200000 -0.000001
 20 4.972047 0.000000 0.000001 -0.125319 -1.035999 0.829527
 21 -9.249866 0.683183 -1.946118 -0.000014 -1.670796 0.000014
 22 10.313008 -0.000000 0.000000 -1.570000 0.000000 -0.069778
 23 1.646738 0.449549 -1.702246 0.154002 0.442277 0.277235
 24 0.928314 0.000000 0.000000 0.000000 0.000000 0.000000
 25 0.928314 -0.000000 -0.000000 0.000000 0.000000 0.000000
 26 2.975832 -0.386307 -0.044144 -0.000797 -0.043611 0.000035
 27 1.438890 0.000003 0.000001 -0.000000 -0.000000 0.793722
 28 1.485299 -0.000005 -0.000000 0.000000 -0.000000 1.465316
 29 11.585355 0.000000 0.000001 0.000000 0.000000 -0.684039
 30 10.125607 -0.000000 0.000001 1.569752 -0.000000 -0.069778
 31 1.533671 0.109715 1.664491 -0.233255 -0.412980 0.435685
 32 0.928314 -0.000001 0.000000 0.000000 0.000000 0.000000
 33 2.683748 -0.427340 0.044205 0.001045 0.043611 0.000046
 34 1.438886 0.000003 0.000000 0.000000 0.000000 1.099000
 35 2.027418 0.730720 12.541074 -1.531161 -0.031283 2.992741
time 19
  0 0.235348 -0.235348 -33.835495 0.000000 -1.334446 -1.570829
  1 1.593798 -0.125004 0.000000 -1.570795 -1.570787 0.000000
  2 -0.000005 0.000007 3.713254 -0.069924 -3.220941 -0.639249
  3 18.045725 0.000000 0.000000 -0.000000 -0.000000 -0.785835
  4 17.597599 0.000000 0.000000 -0.178693 0.144011 -0.196468
  5 0.000005 -0.000003 -3.713254 1.516626 2.528475 -0.219893
  6 18.045721 -0.000000 -0.000001 0.000000 0.000000 -1.963155
  7 17.597593 0.000000 -0.000000 -0.249485 0.002511 -0.212512
  8 1.293338 0.684453 -0.000001 -0.069260 -0.008438 -0.121021
  9 5.309647 -0.003832 -0.000000 -0.000000 0.000000 0.080760
 10 4.826592 -0.004567 -0.000000 -0.077600 -0.011793 -0.151338
 11 5.792761 -0.005304 -0.000000 0.000000 -0.000000 -0.043599
 12 6.661936 -0.000705 0.000000 -0.000000 -0.000001 -0.261651
 13 2.044495 -0.000000 -0.000000 0.133503 0.097197 -0.118280
 14 -3.326867 -0.952412 4.341911 0.040925 -1.370652 3.362226
 15 -3.065210 -0.878589 -4.140396 -1.262949 0.981197 2.197129
 16 4.827231 0.000000 0.000001 0.634348 0.755821 0.915456
 17 11.139763 -0.000000 -0.000000 0.000000 -0.000000 -0.566307
 18 8.575572 -8.394946 9.511936 -1.535143 -1.058019 1.499774
 19 -1.465386 0.506167 4.002137 0.034889 -0.200000 -0.000001
 20 4.972047 0.000000 0.000001 -0.547777 -0.938585 1.338138
 21 -9.249866 0.683183 -1.946118 -0.000014 -1.670796 0.000014
 22 10.313008 -0.000000 0.000000 -1.570000 0.000000 -0.069778
 23 1.646738 0.449549 -1.702246 0.154002 0.442277 0.277235
 24 0.928314 0.000000 0.000000 0.000000 0.000000 0.000000
 25 0.928314 -0.000000 -0.000000 0.000000 0.000000 0.000000
 26 2.975832 -0.386307 -0.044144 -0.000797 -0.043611 0.000035
 27 1.438890 0.000003 0.000001 -0.000000 -0.000000 0.793722
 28 1.485299 -0.000005 -0.000000 0.000000 -0.000000 1.465316
 29 11.585355 0.000000 0.000001 0.000000 0.000000 -0.627360
 30 10.125607 -0.000000 0.000001 1.569752 -0.000000 -0.069778
 31 1.533671 0.109715 1.664491 -0.233255 -0.412980 0.435685
 32 0.928314 -0.000001 0.000000 0.000000 0.000000 0.000000
 33 2.683748 -0.427340 0.044205 0.001045 0.043611 0.000046
 34 1.438886 0.000003 0.000000 0.000000 0.000000 1.099000
 35 2.027418 0.730720 12.541074 -1.531161 -0.031283 2.992741
time 20
  0 0.235348 -0.235348 -33.937061 0.000000 -1.334446 -1.570829
  1 1.699270 -0.125004 0.000000 -1.570795 -1.570787 0.000000
  2 -0.000005 0.000007 3.713254 -0.067527 -3.223049 -0.609141
  3 18.045725 0.000000 0.000000 -0.000000 -0.000000 -0.700567
  4 17.597599 0.000000 0.000000 -0.178693 0.144011 -0.251689
  5 0.000005 -0.000003 -3.713254 1.516626 2.528475 -0.219893
  6 18.045721 -0.000000 -0.000001 0.000000 0.000000 -1.963155
  7 17.597593 0.000000 -0.000000 -0.249485 0.002511 -0.212512
  8 1.293338 0.684453 -0.000001 -0.069260 -0.008438 -0.121021
  9 5.309647 -0.003832 -0.000000 -0.000000 0.000000 0.050058
 10 4.826592 -0.004567 -0.000000 -0.077852 -0.010031 -0.128844
 11 5.792761 -0.005304 -0.000000 0.000000 -0.000000 -0.043599
 12 6.661936 -0.000705 0.000000 -0.000000 -0.000001 -0.261651
 13 2.044495 -0.000000 -0.000000 0.134762 0.095148 -0.110209
 14 -3.326867 -0.952412 4.341911 0.040925 -1.370652 3.362226
 15 -3.065210 -0.878589 -4.140396 -1.262949 0.981197 2.197129
 16 4.827231 0.000000 0.000001 0.643374 0.751141 0.923594
 17 11.139763 -0.000000 -0.000000 0.000000 -0.000000 -0.566307
 18 8.575572 -8.394946 9.511936 -1.535143 -1.058019 1.499774
 19 -1.465386 0.506167 4.002137 0.034889 -0.200000 -0.000001
 20 4.972047 0.000000 0.000001 -0.554465 -0.931345 1.344689
 21 -9.249866 0.683183 -1.946118 -0.000014 -1.670796 0.000014
 22 10.313008 -0.000000 0.000000 -1.570000 0.000000 -0.069778
 23 1.646738 0.449549 -1.702246 0.154002 0.442277 0.277235
 24 0.928314 0.000000 0.000000 0.000000 0.000000 0.000000
 25 0.928314 -0.000000 -0.000000 0.000000 0.000000 0.000000
 26 2.975832 -0.386307 -0.044144 -0.000797 -0.043611 0.000035
 27 1.438890 0.000003 0.000001 -0.000000 -0.000000 0.793722
 28 1.485299 -0.000005 -0.000000 0.000000 -0.000000 1.465316
 29 11.585355 0.000000 0.000001 0.000000 0.000000 -0.627360
 30 10.125607 -0.000000 0.000001 1.569752 -0.000000 -0.069778
 31 1.533671 0.109715 1.664491 -0.233255 -0.412980 0.435685
 32 0.928314 -0.000001 0.000000 0.000000 0.000000 0.000000
 33 2.683748 -0.427340 0.044205 0.001045 0.043611 0.000046
 34 1.438886 0.000003 0.000000 0.000000 0.000000 1.099000
 35 2.027418 0.730720 12.541074 -1.531161 -0.031283 2.992741
time 21
  0 0.235348 -0.235348 -34.019093 0.000000 -1.334446 -1.570829
  1 1.785210 -0.128910 0.000000 -1.570795 -1.570787 0.000000
  2 -0.000005 0.000007 3.713254 -0.065802 -3.224488 -0.587822
  3 18.045725 0.000000 0.000000 -0.000000 -0.000000 -0.638527
  4 17.597599 0.000000 0.000000 -0.178693 0.144011 -0.292407
  5 0.000005 -0.000003 -3.713254 1.516626 2.528475 -0.219893
  6 18.045721 -0.000000 -0.000001 0.000000 0.000000 -1.963155
  7 17.597593 0.000000 -0.000000 -0.249485 0.002511 -0.212512
  8 1.293338 0.684453 -0.000001 -0.069260 -0.008438 -0.121021
  9 5.309647 -0.003832 -0.000000 -0.000000 0.000000 0.026147
 10 4.826592 -0.004567 -0.000000 -0.077996 -0.008809 -0.113054
 11 5.792761 -0.005304 -0.000000 0.000000 -0.000000 -0.043599
 12 6.661936 -0.000705 0.000000 -0.000000 -0.000001 -0.261651
 13 2.044495 -0.000000 -0.000000 0.135757 0.093527 -0.102071
 14 -3.326867 -0.952412 4.341911 0.040925 -1.370652 3.362226
 15 -3.065210 -0.878589 -4.140396 -1.262949 0.981197 2.197129
 16 4.827231 0.000000 0.000001 0.651874 0.746035 0.931295
 17 11.139763 -0.000000 -0.000000 0.000000 -0.000000 -0.566307
 18 8.575572 -8.394946 9.511936 -1.535143 -1.058019 1.499774
 19 -1.465386 0.506167 4.002137 0.034889 -0.200000 -0.000001
 20 4.972047 0.000000 0.000001 -0.561617 -0.924508 1.351631
 21 -9.249866 0.683183 -1.946118 -0.000014 -1.670796 0.000014
 22 10.313008 -0.000000 0.000000 -1.570000 0.000000 -0.069778
 23 1.646738 0.449549 -1.702246 0.154002 0.442277 0.277235
 24 0.928314 0.000000 0.000000 0.000000 0.000000 0.000000
 25 0.928314 -0.000000 -0.000000 0.000000 0.000000 0.000000
 26 2.975832 -0.386307 -0.044144 -0.000797 -0.043611 0.000035
 27 1.438890 0.000003 0.000001 -0.000000 -0.000000 0.793722
 28 1.485299 -0.000005 -0.000000 0.000000 -0.000000 1.465316
 29 11.585355 0.000000 0.000001 0.000000 0.000000 -0.627360
 30 10.125607 -0.000000 0.000001 1.569752 -0.000000 -0.069778
 31 1.533671 0.109715 1.664491 -0.233255 -0.412980 0.435685
 32 0.928314 -0.000001 0.000000 0.000000 0.000000 0.000000
 33 2.683748 -0.427340 0.044205 0.001045 0.043611 0.000046
 34 1.438886 0.000003 0.000000 0.000000 0.000000 1.099000
 35 2.027418 0.730720 12.541074 -1.531161 -0.031283 2.992741
time 22
  0 0.235348 -0.235348 -34.019093 0.000000 -1.334446 -1.570829
  1 1.785210 -0.128910 0.000000 -1.570795 -1.570787 0.000000
  2 -0.000005 0.000007 3.713254 -0.065802 -3.224488 -0.587822
  3 18.045725 0.000000 0.000000 -0.000000 -0.000000 -0.638527
  4 17.597599 0.000000 0.000000 -0.178693 0.144011 -0.292407
  5 0.000005 -0.000003 -3.713254 1.516626 2.528475 -0.219893
  6 18.045721 -0.000000 -0.000001 0.000000 0.000000 -1.963155
  7 17.597593 0.000000 -0.000000 -0.249485 0.002511 -0.212512
  8 1.293338 0.684453 -0.000001 -0.069260 -0.008438 -0.121021
  9 5.309647 -0.003832 -0.000000 -0.000000 0.000000 0.026147
 10 4.826592 -0.004567 -0.000000 -0.077996 -0.008809 -0.113054
 11 5.792761 -0.005304 -0.000000 0.000000 -0.000000 -0.043599
 12 6.661936 -0.000705 0.000000 -0.000000 -0.000001 -0.261651
 13 2.044495 -0.000000 -0.000000 0.135757 0.093527 -0.102071
 14 -3.326867 -0.952412 4.341911 0.040925 -1.370652 3.362226
 15 -3.065210 -0.878589 -4.140396 -1.262949 0.981197 2.197129
 16 4.827231 0.000000 0.000001 0.651874 0.746035 0.931295
 17 11.139763 -0.000000 -0.000000 0.000000 -0.000000 -0.566307
 18 8.575572 -8.394946 9.511936 -1.535143 -1.058019 1.499774
 19 -1.465386 0.506167 4.002137 0.034889 -0.200000 -0.000001
 20 4.972047 0.000000 0.000001 -0.561617 -0.924508 1.351631
 21 -9.249866 0.683183 -1.946118 -0.000014 -1.670796 0.000014
 22 10.313008 -0.000000 0.000000 -1.570000 0.000000 -0.069778
 23 1.646738 0.449549 -1.702246 0.154002 0.442277 0.277235
 24 0.928314 0.000000 0.000000 0.000000 0.000000 0.000000
 25 0.928314 -0.000000 -0.000000 0.000000 0.000000 0.000000
 26 2.975832 -0.386307 -0.044144 -0.000797 -0.043611 0.000035
 27 1.438890 0.000003 0.000001 -0.000000 -0.000000 0.793722
 28 1.485299 -0.000005 -0.000000 0.000000 -0.000000 1.465316
 29 11.585355 0.000000 0.000001 0.000000 0.000000 -0.627360
 30 10.125607 -0.000000 0.000001 1.569752 -0.000000 -0.069778
 31 1.533671 0.109715 1.664491 -0.233255 -0.412980 0.435685
 32 0.928314 -0.000001 0.000000 0.000000 0.000000 0.000000
 33 2.683748 -0.427340 0.044205 0.001045 0.043611 0.000046
 34 1.438886 0.000003 0.000000 0.000000 0.000000 1.099000
 35 2.027418 0.730720 12.541074 -1.531161 -0.031283 2.992741
time 23
  0 0.235348 -0.235348 -34.019093 0.000000 -1.334446 -1.570829
  1 1.785210 -0.128910 0.000000 -1.570795 -1.570787 0.000000
  2 -0.000005 0.000007 3.713254 -0.065802 -3.224488 -0.587822
  3 18.045725 0.000000 0.000000 -0.000000 -0.000000 -0.638527
  4 17.597599 0.000000 0.000000 -0.178693 0.144011 -0.292407
  5 0.000005 -0.000003 -3.713254 1.516626 2.528475 -0.219893
  6 18.045721 -0.000000 -0.000001 0.000000 0.000000 -1.963155
  7 17.597593 0.000000 -0.000000 -0.249485 0.002511 -0.212512
  8 1.293338 0.684453 -0.000001 -0.069260 -0.008438 -0.121021
  9 5.309647 -0.003832 -0.000000 -0.000000 0.000000 0.026147
 10 4.826592 -0.004567 -0.000000 -0.077996 -0.008809 -0.113054
 11 5.792761 -0.005304 -0.000000 0.000000 -0.000000 -0.043599
 12 6.661936 -0.000705 0.000000 -0.000000 -0.000001 -0.261651
 13 2.044495 -0.000000 -0.000000 0.135757 0.093527 -0.102071
 14 -3.326867 -0.952412 4.341911 0.040925 -1.370652 3.362226
 15 -3.065210 -0.878589 -4.140396 -1.262949 0.981197 2.197129
 16 4.827231 0.000000 0.000001 0.651874 0.746035 0.931295
 17 11.139763 -0.000000 -0.000000 0.000000 -0.000000 -0.566307
 18 8.575572 -8.394946 9.511936 -1.535143 -1.058019 1.499774
 19 -1.465386 0.506167 4.002137 0.034889 -0.200000 -0.000001
 20 4.972047 0.000000 0.000001 -0.561617 -0.924508 1.351631
 21 -9.249866 0.683183 -1.946118 -0.000014 -1.670796 0.000014
 22 10.313008 -0.000000 0.000000 -1.570000 0.000000 -0.069778
 23 1.646738 0.449549 -1.702246 0.154002 0.442277 0.277235
 24 0.928314 0.000000 0.000000 0.000000 0.000000 0.000000
 25 0.928314 -0.000000 -0.000000 0.000000 0.000000 0.000000
 26 2.975832 -0.386307 -0.044144 -0.000797 -0.043611 0.000035
 27 1.438890 0.000003 0.000001 -0.000000 -0.000000 0.793722
 28 1.485299 -0.000005 -0.000000 0.000000 -0.000000 1.465316
 29 11.585355 0.000000 0.000001 0.000000 0.000000 -0.627360
 30 10.125607 -0.000000 0.000001 1.569752 -0.000000 -0.069778
 31 1.533671 0.109715 1.664491 -0.233255 -0.412980 0.435685
 32 0.928314 -0.000001 0.000000 0.000000 0.000000 0.000000
 33 2.683748 -0.427340 0.044205 0.001045 0.043611 0.000046
 34 1.438886 0.000003 0.000000 0.000000 0.000000 1.099000
 35 2.027418 0.730720 12.541074 -1.531161 -0.031283 2.992741
time 24
  0 0.235348 -0.235348 -34.019093 0.000000 -1.334446 -1.570829
  1 1.785210 -0.128910 0.000000 -1.570795 -1.570787 0.000000
  2 -0.000005 0.000007 3.713254 -0.065802 -3.224488 -0.587822
  3 18.045725 0.000000 0.000000 -0.000000 -0.000000 -0.638527
  4 17.597599 0.000000 0.000000 -0.178693 0.144011 -0.292407
  5 0.000005 -0.000003 -3.713254 1.516626 2.528475 -0.219893
  6 18.045721 -0.000000 -0.000001 0.000000 0.000000 -1.963155
  7 17.597593 0.000000 -0.000000 -0.249485 0.002511 -0.212512
  8 1.293338 0.684453 -0.000001 -0.069260 -0.008438 -0.121021
  9 5.309647 -0.003832 -0.000000 -0.000000 0.000000 0.026147
 10 4.826592 -0.004567 -0.000000 -0.077996 -0.008809 -0.113054
 11 5.792761 -0.005304 -0.000000 0.000000 -0.000000 -0.043599
 12 6.661936 -0.000705 0.000000 -0.000000 -0.000001 -0.261651
 13 2.044495 -0.000000 -0.000000 0.135757 0.093527 -0.102071
 14 -3.326867 -0.952412 4.341911 0.040925 -1.370652 3.362226
 15 -3.065210 -0.878589 -4.140396 -1.262949 0.981197 2.197129
 16 4.827231 0.000000 0.000001 0.651874 0.746035 0.931295
 17 11.139763 -0.000000 -0.000000 0.000000 -0.000000 -0.566307
 18 8.575572 -8.394946 9.511936 -1.535143 -1.058019 1.499774
 19 -1.465386 0.506167 4.002137 0.034889 -0.200000 -0.000001
 20 4.972047 0.000000 0.000001 -0.561617 -0.924508 1.351631
 21 -9.249866 0.683183 -1.946118 -0.000014 -1.670796 0.000014
 22 10.313008 -0.000000 0.000000 -1.570000 0.000000 -0.069778
 23 1.646738 0.449549 -1.702246 0.154002 0.442277 0.277235
 24 0.928314 0.000000 0.000000 0.000000 0.000000 0.000000
 25 0.928314 -0.000000 -0.000000 0.000000 0.000000 0.000000
 26 2.975832 -0.386307 -0.044144 -0.000797 -0.043611 0.000035
 27 1.438890 0.000003 0.000001 -0.000000 -0.000000 0.793722
 28 1.485299 -0.000005 -0.000000 0.000000 -0.000000 1.465316
 29 11.585355 0.000000 0.000001 0.000000 0.000000 -0.627360
 30 10.125607 -0.000000 0.000001 1.569752 -0.000000 -0.069778
 31 1.533671 0.109715 1.664491 -0.233255 -0.412980 0.435685
 32 0.928314 -0.000001 0.000000 0.000000 0.000000 0.000000
 33 2.683748 -0.427340 0.044205 0.001045 0.043611 0.000046
 34 1.438886 0.000003 0.000000 0.000000 0.000000 1.099000
 35 2.027418 0.730720 12.541074 -1.531161 -0.031283 2.992741
end
