version 1
nodes
  0 "Bip01"  -1
  1 "Bip01 Pelvis"   0
  2 "Bip01 L Leg"   1
  3 "Bip01 L Leg1"   2
  4 "Bip01 L Foot"   3
  5 "Bip01 R Leg"   1
  6 "Bip01 R Leg1"   5
  7 "Bip01 R Foot"   6
  8 "Bip01 Spine"   1
  9 "Bip01 Spine1"   8
 10 "Bip01 Spine2"   9
 11 "Bip01 Spine3"  10
 12 "Bip01 Neck"  11
 13 "Bip01 Head"  12
 14 "Bip01 L Arm"  12
 15 "Bip01 R Arm"  12
 16 "Bip01 L Arm1"  14
 17 "Bip01 L Arm2"  16
 18 "bone_shield"  17
 19 "bone_root_plate"  14
 20 "Bip01 R Arm1"  15
 21 "bone_plate_root"  20
 22 "Bip01 L Hand"  17
 23 "Bip01 L Finger0"  22
 24 "Bip01 L Finger01"  23
 25 "Bip01 L Finger02"  24
 26 "Bip01 L Finger1"  22
 27 "Bip01 L Finger11"  26
 28 "Bip01 L Finger12"  27
 29 "Bip01 R Arm2"  20
 30 "Bip01 R Hand"  29
 31 "Bip01 R Finger0"  30
 32 "Bip01 R Finger01"  31
 33 "Bip01 R Finger1"  30
 34 "Bip01 R Finger11"  33
 35 "sword"  30
end
skeleton
time 0
  0 0.235347 -0.235347 2.884376 0.000000 0.000000 -1.570829
  1 0.679707 -0.015625 0.000000 -1.570795 -1.570787 0.000000
  2 -0.000005 0.000007 3.713254 -0.055259 -3.106578 -0.210011
  3 18.045725 0.000000 0.000000 -0.000000 -0.000000 -0.234821
  4 17.597599 0.000000 0.000000 -0.095599 -0.022621 0.023183
  5 0.000005 -0.000003 -3.713254 0.257863 3.091161 0.080537
  6 18.045721 -0.000000 -0.000001 0.000000 0.000000 -0.127551
  7 17.597593 0.000000 -0.000000 -0.018138 0.069152 0.192736
  8 1.293338 0.684453 -0.000001 -0.069758 0.000658 0.009501
  9 5.309647 -0.003832 -0.000000 0.000000 0.000000 -0.069795
 10 4.826592 -0.004567 -0.000000 -0.078499 0.000060 -0.000035
 11 5.792761 -0.005304 -0.000000 0.000000 0.000000 0.017444
 12 6.661936 -0.000705 0.000000 -0.000000 -0.000001 0.471000
 13 2.044495 -0.000000 -0.000000 0.158559 -0.045255 -0.152098
 14 -3.112017 1.516413 4.341911 -0.000013 -1.370798 2.669809
 15 -2.869892 1.398824 -4.140396 -0.000013 1.370795 2.669783
 16 4.827231 0.000000 0.000001 0.484148 1.160390 0.758723
 17 11.139763 -0.000000 -0.000000 0.000000 -0.000000 -0.287179
 18 8.575572 -8.394946 9.511936 -1.535143 -1.058019 1.499774
 19 -1.465386 0.506167 4.002137 0.034889 -0.200000 -0.000001
 20 4.972047 0.000000 0.000001 -0.592828 -1.258740 0.836936
 21 -9.249866 0.683183 -1.946118 -0.000014 -1.670796 0.000014
 22 10.313008 -0.000000 0.000000 -1.570000 0.000000 -0.069778
 23 1.646738 0.449549 -1.702246 0.154002 0.442277 0.277235
 24 0.928314 0.000000 0.000000 0.000000 0.000000 0.000000
 25 0.928314 -0.000000 -0.000000 0.000000 0.000000 0.000000
 26 2.975832 -0.386307 -0.044144 -0.000797 -0.043611 0.000035
 27 1.438890 0.000003 0.000001 -0.000000 -0.000000 0.793722
 28 1.485299 -0.000005 -0.000000 0.000000 -0.000000 1.465316
 29 11.585355 0.000000 0.000001 0.000000 0.000000 -1.290222
 30 10.125607 -0.000000 0.000001 1.569752 0.000000 -0.069778
 31 1.533671 0.109715 1.664491 -0.233255 -0.412980 0.435685
 32 0.928314 -0.000001 0.000000 0.000000 0.000000 0.000000
 33 2.683748 -0.427340 0.044205 0.001045 0.043611 0.000046
 34 1.438886 0.000003 0.000000 0.000000 0.000000 0.915819
 35 2.027418 0.730720 12.541074 -1.531161 -0.031283 2.992741
time 1
  0 0.235348 -0.235348 10.322104 0.566919 -0.235464 -2.739603
  1 0.679707 -0.015625 0.000000 -1.570795 -1.570787 0.000000
  2 -0.000005 0.000007 3.713254 -0.497697 -3.517056 0.347575
  3 18.045725 0.000000 0.000000 -0.000000 -0.000000 -0.601199
  4 17.597599 0.000000 0.000000 -0.126610 0.446486 -0.480535
  5 0.000005 -0.000003 -3.713254 0.257863 3.091161 0.080537
  6 18.045721 -0.000000 -0.000001 0.000000 0.000000 -0.554902
  7 17.597593 0.000000 -0.000000 -0.068583 0.020114 -0.409109
  8 1.293338 0.684453 -0.000001 -0.069758 0.000658 0.009501
  9 5.309647 -0.003832 -0.000000 0.000000 0.000000 -0.069795
 10 4.826592 -0.004567 -0.000000 -0.078499 0.000060 -0.000035
 11 5.792761 -0.005304 -0.000000 0.000000 0.000000 0.017444
 12 6.661936 -0.000705 0.000000 -0.000000 -0.000001 0.471000
 13 2.044495 -0.000000 -0.000000 0.141722 0.084566 -0.962330
 14 -3.112017 1.516413 4.341911 -0.000013 -1.370798 2.669809
 15 -2.869892 1.398824 -4.140396 -0.000013 1.370795 2.669783
 16 4.827231 0.000000 0.000001 0.409925 0.583407 1.556913
 17 11.139763 -0.000000 -0.000000 0.000000 -0.000000 -0.287179
 18 8.575572 -8.394946 9.511936 -1.535143 -1.058019 1.499774
 19 -1.465386 0.506167 4.002137 0.034889 -0.200000 -0.000001
 20 4.972047 0.000000 0.000001 -0.520839 -0.714959 1.060784
 21 -9.249866 0.683183 -1.946118 -0.000014 -1.670796 0.000014
 22 10.313008 -0.000000 0.000000 -1.570000 0.000000 -0.069778
 23 1.646738 0.449549 -1.702246 0.154002 0.442277 0.277235
 24 0.928314 0.000000 0.000000 0.000000 0.000000 0.000000
 25 0.928314 -0.000000 -0.000000 0.000000 0.000000 0.000000
 26 2.975832 -0.386307 -0.044144 -0.000797 -0.043611 0.000035
 27 1.438890 0.000003 0.000001 -0.000000 -0.000000 0.793722
 28 1.485299 -0.000005 -0.000000 0.000000 -0.000000 1.465316
 29 11.585355 0.000000 0.000001 0.000000 0.000000 -0.217399
 30 10.125607 -0.000000 0.000001 1.569752 0.000000 -0.069778
 31 1.533671 0.109715 1.664491 -0.233255 -0.412980 0.435685
 32 0.928314 -0.000001 0.000000 0.000000 0.000000 0.000000
 33 2.683748 -0.427340 0.044205 0.001045 0.043611 0.000046
 34 1.438886 0.000003 0.000000 0.000000 0.000000 0.915819
 35 2.027418 0.730720 12.541074 -1.531161 -0.031283 2.992741
time 2
  0 0.235348 -0.235348 13.826117 0.696285 0.049618 -3.234622
  1 0.679707 -0.015625 0.000000 -1.570795 -1.570787 0.000000
  2 -0.000005 0.000007 3.713254 -0.639650 -3.508908 0.311930
  3 18.045725 0.000000 0.000000 -0.000000 -0.000000 -0.601199
  4 17.597599 0.000000 0.000000 -0.068706 0.565698 -0.484882
  5 0.000005 -0.000003 -3.713254 0.355920 3.086971 0.002716
  6 18.045721 -0.000000 -0.000001 0.000000 0.000000 -0.600035
  7 17.597593 0.000000 -0.000000 -0.121546 -0.086460 -0.526505
  8 1.293338 0.684453 -0.000001 -0.069758 0.000658 0.009501
  9 5.309647 -0.003832 -0.000000 0.000000 0.000000 -0.069795
 10 4.826592 -0.004567 -0.000000 -0.078499 0.000060 -0.000035
 11 5.792761 -0.005304 -0.000000 0.000000 0.000000 0.017444
 12 6.661936 -0.000705 0.000000 -0.000000 -0.000001 0.471000
 13 2.044495 -0.000000 -0.000000 0.141722 0.084566 -0.962330
 14 -3.112017 1.516413 4.341911 -0.000013 -1.370798 2.669809
 15 -2.869892 1.398824 -4.140396 -0.000013 1.370795 2.669783
 16 4.827231 0.000000 0.000001 0.408961 0.538219 1.635235
 17 11.139763 -0.000000 -0.000000 0.000000 -0.000000 -0.287179
 18 8.575572 -8.394946 9.511936 -1.535143 -1.058019 1.499774
 19 -1.465386 0.506167 4.002137 0.034889 -0.200000 -0.000001
 20 4.972047 0.000000 0.000001 -0.301529 -0.778105 0.765960
 21 -9.249866 0.683183 -1.946118 -0.000014 -1.670796 0.000014
 22 10.313008 -0.000000 0.000000 -1.570000 0.000000 -0.069778
 23 1.646738 0.449549 -1.702246 0.154002 0.442277 0.277235
 24 0.928314 0.000000 0.000000 0.000000 0.000000 0.000000
 25 0.928314 -0.000000 -0.000000 0.000000 0.000000 0.000000
 26 2.975832 -0.386307 -0.044144 -0.000797 -0.043611 0.000035
 27 1.438890 0.000003 0.000001 -0.000000 -0.000000 0.793722
 28 1.485299 -0.000005 -0.000000 0.000000 -0.000000 1.465316
 29 11.585355 0.000000 0.000001 0.000000 0.000000 -0.217399
 30 10.125607 -0.000000 0.000001 1.569752 0.000000 -0.069778
 31 1.533671 0.109715 1.664491 -0.233255 -0.412980 0.435685
 32 0.928314 -0.000001 0.000000 0.000000 0.000000 0.000000
 33 2.683748 -0.427340 0.044205 0.001045 0.043611 0.000046
 34 1.438886 0.000003 0.000000 0.000000 0.000000 0.915819
 35 2.027418 0.730720 12.541074 -1.531161 -0.031283 2.992741
time 3
  0 0.235348 -0.235348 16.525417 0.655995 0.330966 -3.615493
  1 0.679707 -0.015625 0.000000 -1.570795 -1.570787 0.000000
  2 -0.000005 0.000007 3.713254 -0.759269 -3.455992 0.246566
  3 18.045725 0.000000 0.000000 -0.000000 -0.000000 -0.601199
  4 17.597599 0.000000 0.000000 -0.015022 0.652965 -0.535436
  5 0.000005 -0.000003 -3.713254 0.466222 3.072908 -0.082131
  6 18.045721 -0.000000 -0.000001 0.000000 0.000000 -0.615539
  7 17.597593 0.000000 -0.000000 -0.167884 -0.204245 -0.606741
  8 1.293338 0.684453 -0.000001 -0.069758 0.000658 0.009501
  9 5.309647 -0.003832 -0.000000 0.000000 0.000000 -0.069795
 10 4.826592 -0.004567 -0.000000 -0.078499 0.000060 -0.000035
 11 5.792761 -0.005304 -0.000000 0.000000 0.000000 0.017444
 12 6.661936 -0.000705 0.000000 -0.000000 -0.000001 0.471000
 13 2.044495 -0.000000 -0.000000 0.141722 0.084566 -0.962330
 14 -3.112017 1.516413 4.341911 -0.000013 -1.370798 2.669809
 15 -2.869892 1.398824 -4.140396 -0.000013 1.370795 2.669783
 16 4.827231 0.000000 0.000001 0.430255 0.508944 1.700344
 17 11.139763 -0.000000 -0.000000 0.000000 -0.000000 -0.287179
 18 8.575572 -8.394946 9.511936 -1.535143 -1.058019 1.499774
 19 -1.465386 0.506167 4.002137 0.034889 -0.200000 -0.000001
 20 4.972047 0.000000 0.000001 -0.025185 -0.810684 0.393764
 21 -9.249866 0.683183 -1.946118 -0.000014 -1.670796 0.000014
 22 10.313008 -0.000000 0.000000 -1.570000 0.000000 -0.069778
 23 1.646738 0.449549 -1.702246 0.154002 0.442277 0.277235
 24 0.928314 0.000000 0.000000 0.000000 0.000000 0.000000
 25 0.928314 -0.000000 -0.000000 0.000000 0.000000 0.000000
 26 2.975832 -0.386307 -0.044144 -0.000797 -0.043611 0.000035
 27 1.438890 0.000003 0.000001 -0.000000 -0.000000 0.793722
 28 1.485299 -0.000005 -0.000000 0.000000 -0.000000 1.465316
 29 11.585355 0.000000 0.000001 0.000000 0.000000 -0.217399
 30 10.125607 -0.000000 0.000001 1.569752 0.000000 -0.069778
 31 1.533671 0.109715 1.664491 -0.233255 -0.412980 0.435685
 32 0.928314 -0.000001 0.000000 0.000000 0.000000 0.000000
 33 2.683748 -0.427340 0.044205 0.001045 0.043611 0.000046
 34 1.438886 0.000003 0.000000 0.000000 0.000000 0.915819
 35 2.027418 0.730720 12.541074 -1.531161 -0.031283 2.992741
time 4
  0 0.235348 -0.235348 18.177811 0.505243 0.560650 -3.982381
  1 0.679707 -0.015625 0.000000 -1.570795 -1.570787 0.000000
  2 -0.000005 0.000007 3.713254 -0.843808 -3.398188 0.193974
  3 18.045725 0.000000 0.000000 -0.000000 -0.000000 -0.601199
  4 17.597599 0.000000 0.000000 0.025267 0.715311 -0.586586
  5 0.000005 -0.000003 -3.713254 0.554234 3.055027 -0.153702
  6 18.045721 -0.000000 -0.000001 0.000000 0.000000 -0.621334
  7 17.597593 0.000000 -0.000000 -0.201537 -0.299068 -0.662573
  8 1.293338 0.684453 -0.000001 -0.069758 0.000658 0.009501
  9 5.309647 -0.003832 -0.000000 0.000000 0.000000 -0.069795
 10 4.826592 -0.004567 -0.000000 -0.078499 0.000060 -0.000035
 11 5.792761 -0.005304 -0.000000 0.000000 0.000000 0.017444
 12 6.661936 -0.000705 0.000000 -0.000000 -0.000001 0.471000
 13 2.044495 -0.000000 -0.000000 0.141722 0.084566 -0.962330
 14 -3.112017 1.516413 4.341911 -0.000013 -1.370798 2.669809
 15 -2.869892 1.398824 -4.140396 -0.000013 1.370795 2.669783
 16 4.827231 0.000000 0.000001 0.451812 0.490818 1.744624
 17 11.139763 -0.000000 -0.000000 0.000000 -0.000000 -0.287179
 18 8.575572 -8.394946 9.511936 -1.535143 -1.058019 1.499774
 19 -1.465386 0.506167 4.002137 0.034889 -0.200000 -0.000001
 20 4.972047 0.000000 0.000001 0.217719 -0.786632 0.064076
 21 -9.249866 0.683183 -1.946118 -0.000014 -1.670796 0.000014
 22 10.313008 -0.000000 0.000000 -1.570000 0.000000 -0.069778
 23 1.646738 0.449549 -1.702246 0.154002 0.442277 0.277235
 24 0.928314 0.000000 0.000000 0.000000 0.000000 0.000000
 25 0.928314 -0.000000 -0.000000 0.000000 0.000000 0.000000
 26 2.975832 -0.386307 -0.044144 -0.000797 -0.043611 0.000035
 27 1.438890 0.000003 0.000001 -0.000000 -0.000000 0.793722
 28 1.485299 -0.000005 -0.000000 0.000000 -0.000000 1.465316
 29 11.585355 0.000000 0.000001 0.000000 0.000000 -0.217399
 30 10.125607 -0.000000 0.000001 1.569752 0.000000 -0.069778
 31 1.533671 0.109715 1.664491 -0.233255 -0.412980 0.435685
 32 0.928314 -0.000001 0.000000 0.000000 0.000000 0.000000
 33 2.683748 -0.427340 0.044205 0.001045 0.043611 0.000046
 34 1.438886 0.000003 0.000000 0.000000 0.000000 0.915819
 35 2.027418 0.730720 12.541074 -1.531161 -0.031283 2.992741
time 5
  0 0.235348 -0.235348 18.654388 0.205458 0.739383 -4.461705
  1 0.679707 -0.015625 0.000000 -1.570795 -1.570787 0.000000
  2 -0.000005 0.000007 3.713254 -0.907835 -3.340959 0.152648
  3 18.045725 0.000000 0.000000 -0.000000 -0.000000 -0.601199
  4 17.597599 0.000000 0.000000 0.058515 0.764493 -0.633892
  5 0.000005 -0.000003 -3.713254 0.618138 3.037891 -0.212092
  6 18.045721 -0.000000 -0.000001 0.000000 0.000000 -0.624811
  7 17.597593 0.000000 -0.000000 -0.224796 -0.369571 -0.704540
  8 1.293338 0.684453 -0.000001 -0.069758 0.000658 0.009501
  9 5.309647 -0.003832 -0.000000 0.000000 0.000000 -0.069795
 10 4.826592 -0.004567 -0.000000 -0.078499 0.000060 -0.000035
 11 5.792761 -0.005304 -0.000000 0.000000 0.000000 0.017444
 12 6.661936 -0.000705 0.000000 -0.000000 -0.000001 0.471000
 13 2.044495 -0.000000 -0.000000 0.141722 0.084566 -0.962330
 14 -3.112017 1.516413 4.341911 -0.000013 -1.370798 2.669809
 15 -2.869892 1.398824 -4.140396 -0.000013 1.370795 2.669783
 16 4.827231 0.000000 0.000001 0.469514 0.479925 1.773415
 17 11.139763 -0.000000 -0.000000 0.000000 -0.000000 -0.287179
 18 8.575572 -8.394946 9.511936 -1.535143 -1.058019 1.499774
 19 -1.465386 0.506167 4.002137 0.034889 -0.200000 -0.000001
 20 4.972047 0.000000 0.000001 0.398481 -0.729197 -0.192452
 21 -9.249866 0.683183 -1.946118 -0.000014 -1.670796 0.000014
 22 10.313008 -0.000000 0.000000 -1.570000 0.000000 -0.069778
 23 1.646738 0.449549 -1.702246 0.154002 0.442277 0.277235
 24 0.928314 0.000000 0.000000 0.000000 0.000000 0.000000
 25 0.928314 -0.000000 -0.000000 0.000000 0.000000 0.000000
 26 2.975832 -0.386307 -0.044144 -0.000797 -0.043611 0.000035
 27 1.438890 0.000003 0.000001 -0.000000 -0.000000 0.793722
 28 1.485299 -0.000005 -0.000000 0.000000 -0.000000 1.465316
 29 11.585355 0.000000 0.000001 0.000000 0.000000 -0.217399
 30 10.125607 -0.000000 0.000001 1.569752 0.000000 -0.069778
 31 1.533671 0.109715 1.664491 -0.233255 -0.412980 0.435685
 32 0.928314 -0.000001 0.000000 0.000000 0.000000 0.000000
 33 2.683748 -0.427340 0.044205 0.001045 0.043611 0.000046
 34 1.438886 0.000003 0.000000 0.000000 0.000000 0.915819
 35 2.027418 0.730720 12.541074 -1.531161 -0.031283 2.992741
time 6
  0 0.235348 -0.235348 17.521542 -0.263983 0.821902 -5.098647
  1 0.679707 -0.015625 0.000000 -1.570795 -1.570787 0.000000
  2 -0.000005 0.000007 3.713254 -0.959689 -3.282196 0.119771
  3 18.045725 0.000000 0.000000 -0.000000 -0.000000 -0.601199
  4 17.597599 0.000000 0.000000 0.090695 0.805690 -0.677630
  5 0.000005 -0.000003 -3.713254 0.661379 3.024015 -0.262196
  6 18.045721 -0.000000 -0.000001 0.000000 0.000000 -0.629158
  7 17.597593 0.000000 -0.000000 -0.239070 -0.419967 -0.739888
  8 1.293338 0.684453 -0.000001 -0.069758 0.000658 0.009501
  9 5.309647 -0.003832 -0.000000 0.000000 0.000000 -0.069795
 10 4.826592 -0.004567 -0.000000 -0.078499 0.000060 -0.000035
 11 5.792761 -0.005304 -0.000000 0.000000 0.000000 0.017444
 12 6.661936 -0.000705 0.000000 -0.000000 -0.000001 0.471000
 13 2.044495 -0.000000 -0.000000 0.141722 0.084566 -0.962330
 14 -3.112017 1.516413 4.341911 -0.000013 -1.370798 2.669809
 15 -2.869892 1.398824 -4.140396 -0.000013 1.370795 2.669783
 16 4.827231 0.000000 0.000001 0.484060 0.473883 1.792055
 17 11.139763 -0.000000 -0.000000 0.000000 -0.000000 -0.287179
 18 8.575572 -8.394946 9.511936 -1.535143 -1.058019 1.499774
 19 -1.465386 0.506167 4.002137 0.034889 -0.200000 -0.000001
 20 4.972047 0.000000 0.000001 0.533912 -0.653180 -0.399141
 21 -9.249866 0.683183 -1.946118 -0.000014 -1.670796 0.000014
 22 10.313008 -0.000000 0.000000 -1.570000 0.000000 -0.069778
 23 1.646738 0.449549 -1.702246 0.154002 0.442277 0.277235
 24 0.928314 0.000000 0.000000 0.000000 0.000000 0.000000
 25 0.928314 -0.000000 -0.000000 0.000000 0.000000 0.000000
 26 2.975832 -0.386307 -0.044144 -0.000797 -0.043611 0.000035
 27 1.438890 0.000003 0.000001 -0.000000 -0.000000 0.793722
 28 1.485299 -0.000005 -0.000000 0.000000 -0.000000 1.465316
 29 11.585355 0.000000 0.000001 0.000000 0.000000 -0.217399
 30 10.125607 -0.000000 0.000001 1.569752 0.000000 -0.069778
 31 1.533671 0.109715 1.664491 -0.233255 -0.412980 0.435685
 32 0.928314 -0.000001 0.000000 0.000000 0.000000 0.000000
 33 2.683748 -0.427340 0.044205 0.001045 0.043611 0.000046
 34 1.438886 0.000003 0.000000 0.000000 0.000000 0.915819
 35 2.027418 0.730720 12.541074 -1.531161 -0.031283 2.992741
time 7
  0 0.235348 -0.235348 14.876929 -0.757770 0.716085 -5.728930
  1 0.679707 -0.015625 0.000000 -1.570795 -1.570787 0.000000
  2 -0.000005 0.000007 3.713254 -0.984227 -3.238962 0.109622
  3 18.045725 0.000000 0.000000 -0.000000 -0.000000 -0.601199
  4 17.597599 0.000000 0.000000 0.122647 0.823644 -0.695839
  5 0.000005 -0.000003 -3.713254 0.679364 3.016751 -0.306388
  6 18.045721 -0.000000 -0.000001 0.000000 0.000000 -0.637707
  7 17.597593 0.000000 -0.000000 -0.241271 -0.446441 -0.772204
  8 1.293338 0.684453 -0.000001 -0.069758 0.000658 0.009501
  9 5.309647 -0.003832 -0.000000 0.000000 0.000000 -0.069795
 10 4.826592 -0.004567 -0.000000 -0.078499 0.000060 -0.000035
 11 5.792761 -0.005304 -0.000000 0.000000 0.000000 0.017444
 12 6.661936 -0.000705 0.000000 -0.000000 -0.000001 0.471000
 13 2.044495 -0.000000 -0.000000 0.141722 0.084566 -0.962330
 14 -3.112017 1.516413 4.341911 -0.000013 -1.370798 2.669809
 15 -2.869892 1.398824 -4.140396 -0.000013 1.370795 2.669783
 16 4.827231 0.000000 0.000001 0.496504 0.472181 1.802294
 17 11.139763 -0.000000 -0.000000 0.000000 -0.000000 -0.287179
 18 8.575572 -8.394946 9.511936 -1.535143 -1.058019 1.499774
 19 -1.465386 0.506167 4.002137 0.034889 -0.200000 -0.000001
 20 4.972047 0.000000 0.000001 0.643892 -0.557134 -0.585863
 21 -9.249866 0.683183 -1.946118 -0.000014 -1.670796 0.000014
 22 10.313008 -0.000000 0.000000 -1.570000 0.000000 -0.069778
 23 1.646738 0.449549 -1.702246 0.154002 0.442277 0.277235
 24 0.928314 0.000000 0.000000 0.000000 0.000000 0.000000
 25 0.928314 -0.000000 -0.000000 0.000000 0.000000 0.000000
 26 2.975832 -0.386307 -0.044144 -0.000797 -0.043611 0.000035
 27 1.438890 0.000003 0.000001 -0.000000 -0.000000 0.793722
 28 1.485299 -0.000005 -0.000000 0.000000 -0.000000 1.465316
 29 11.585355 0.000000 0.000001 0.000000 0.000000 -0.217399
 30 10.125607 -0.000000 0.000001 1.569752 0.000000 -0.069778
 31 1.533671 0.109715 1.664491 -0.233255 -0.412980 0.435685
 32 0.928314 -0.000001 0.000000 0.000000 0.000000 0.000000
 33 2.683748 -0.427340 0.044205 0.001045 0.043611 0.000046
 34 1.438886 0.000003 0.000000 0.000000 0.000000 0.915819
 35 2.027418 0.730720 12.541074 -1.531161 -0.031283 2.992741
time 8
  0 0.235348 -0.235348 10.810399 -1.057937 0.417309 -6.127971
  1 0.679707 -0.015625 0.000000 -1.570795 -1.570787 0.000000
  2 -0.000005 0.000007 3.713254 -0.884735 -3.276348 0.205677
  3 18.045725 0.000000 0.000000 -0.000000 -0.000000 -0.601199
  4 17.597599 0.000000 0.000000 0.154979 0.722526 -0.586357
  5 0.000005 -0.000003 -3.713254 0.660900 3.022898 -0.339726
  6 18.045721 -0.000000 -0.000001 0.000000 0.000000 -0.646472
  7 17.597593 0.000000 -0.000000 -0.231173 -0.436095 -0.795610
  8 1.293338 0.684453 -0.000001 -0.069758 0.000658 0.009501
  9 5.309647 -0.003832 -0.000000 0.000000 0.000000 -0.069795
 10 4.826592 -0.004567 -0.000000 -0.078499 0.000060 -0.000035
 11 5.792761 -0.005304 -0.000000 0.000000 0.000000 0.017444
 12 6.661936 -0.000705 0.000000 -0.000000 -0.000001 0.471000
 13 2.044495 -0.000000 -0.000000 0.141722 0.084566 -0.962330
 14 -3.112017 1.516413 4.341911 -0.000013 -1.370798 2.669809
 15 -2.869892 1.398824 -4.140396 -0.000013 1.370795 2.669783
 16 4.827231 0.000000 0.000001 0.504829 0.478138 1.799056
 17 11.139763 -0.000000 -0.000000 0.000000 -0.000000 -0.287179
 18 8.575572 -8.394946 9.511936 -1.535143 -1.058019 1.499774
 19 -1.465386 0.506167 4.002137 0.034889 -0.200000 -0.000001
 20 4.972047 0.000000 0.000001 0.735481 -0.433496 -0.769700
 21 -9.249866 0.683183 -1.946118 -0.000014 -1.670796 0.000014
 22 10.313008 -0.000000 0.000000 -1.570000 0.000000 -0.069778
 23 1.646738 0.449549 -1.702246 0.154002 0.442277 0.277235
 24 0.928314 0.000000 0.000000 0.000000 0.000000 0.000000
 25 0.928314 -0.000000 -0.000000 0.000000 0.000000 0.000000
 26 2.975832 -0.386307 -0.044144 -0.000797 -0.043611 0.000035
 27 1.438890 0.000003 0.000001 -0.000000 -0.000000 0.793722
 28 1.485299 -0.000005 -0.000000 0.000000 -0.000000 1.465316
 29 11.585355 0.000000 0.000001 0.000000 0.000000 -0.217399
 30 10.125607 -0.000000 0.000001 1.569752 0.000000 -0.069778
 31 1.533671 0.109715 1.664491 -0.233255 -0.412980 0.435685
 32 0.928314 -0.000001 0.000000 0.000000 0.000000 0.000000
 33 2.683748 -0.427340 0.044205 0.001045 0.043611 0.000046
 34 1.438886 0.000003 0.000000 0.000000 0.000000 0.915819
 35 2.027418 0.730720 12.541074 -1.531161 -0.031283 2.992741
time 9
  0 0.235349 -0.235349 6.091505 -1.171932 0.020007 -0.028414
  1 0.679707 -0.015625 0.000000 -1.570795 -1.570787 0.000000
  2 -0.000005 0.000007 3.713254 -0.620480 -3.350257 0.408180
  3 18.045725 0.000000 0.000000 -0.000000 -0.000000 -0.601199
  4 17.597599 0.000000 0.000000 0.118681 0.481597 -0.409667
  5 0.000005 -0.000003 -3.713254 0.623113 3.037333 -0.363373
  6 18.045721 -0.000000 -0.000001 0.000000 0.000000 -0.651181
  7 17.597593 0.000000 -0.000000 -0.218442 -0.403933 -0.807922
  8 1.293338 0.684453 -0.000001 -0.069758 0.000658 0.009501
  9 5.309647 -0.003832 -0.000000 0.000000 0.000000 -0.069795
 10 4.826592 -0.004567 -0.000000 -0.078499 0.000060 -0.000035
 11 5.792761 -0.005304 -0.000000 0.000000 0.000000 0.017444
 12 6.661936 -0.000705 0.000000 -0.000000 -0.000001 0.471000
 13 2.044495 -0.000000 -0.000000 0.141722 0.084566 -0.962330
 14 -3.112017 1.516413 4.341911 -0.000013 -1.370798 2.669809
 15 -2.869892 1.398824 -4.140396 -0.000013 1.370795 2.669783
 16 4.827231 0.000000 0.000001 0.499133 0.501200 1.762652
 17 11.139763 -0.000000 -0.000000 0.000000 -0.000000 -0.287179
 18 8.575572 -8.394946 9.511936 -1.535143 -1.058019 1.499774
 19 -1.465386 0.506167 4.002137 0.034889 -0.200000 -0.000001
 20 4.972047 0.000000 0.000001 0.802918 -0.284921 -0.947842
 21 -9.249866 0.683183 -1.946118 -0.000014 -1.670796 0.000014
 22 10.313008 -0.000000 0.000000 -1.570000 0.000000 -0.069778
 23 1.646738 0.449549 -1.702246 0.154002 0.442277 0.277235
 24 0.928314 0.000000 0.000000 0.000000 0.000000 0.000000
 25 0.928314 -0.000000 -0.000000 0.000000 0.000000 0.000000
 26 2.975832 -0.386307 -0.044144 -0.000797 -0.043611 0.000035
 27 1.438890 0.000003 0.000001 -0.000000 -0.000000 0.793722
 28 1.485299 -0.000005 -0.000000 0.000000 -0.000000 1.465316
 29 11.585355 0.000000 0.000001 0.000000 0.000000 -0.217399
 30 10.125607 -0.000000 0.000001 1.569752 0.000000 -0.069778
 31 1.533671 0.109715 1.664491 -0.233255 -0.412980 0.435685
 32 0.928314 -0.000001 0.000000 0.000000 0.000000 0.000000
 33 2.683748 -0.427340 0.044205 0.001045 0.043611 0.000046
 34 1.438886 0.000003 0.000000 0.000000 0.000000 0.915819
 35 2.027418 0.730720 12.541074 -1.531161 -0.031283 2.992741
time 10
  0 0.235349 -0.235349 1.110884 -1.200096 -0.418020 -0.098139
  1 0.679707 -0.015625 0.000000 -1.570795 -1.570787 0.000000
  2 -0.000005 0.000007 3.713254 -0.470093 -3.339329 0.444747
  3 18.045725 0.000000 0.000000 -0.000000 -0.000000 -0.601199
  4 17.597599 0.000000 0.000000 0.061438 0.345560 -0.407700
  5 0.000005 -0.000003 -3.713254 0.574993 3.056983 -0.381447
  6 18.045721 -0.000000 -0.000001 0.000000 0.000000 -0.654731
  7 17.597593 0.000000 -0.000000 -0.204555 -0.360161 -0.812618
  8 1.293338 0.684453 -0.000001 -0.069758 0.000658 0.009501
  9 5.309647 -0.003832 -0.000000 0.000000 0.000000 -0.069795
 10 4.826592 -0.004567 -0.000000 -0.078499 0.000060 -0.000035
 11 5.792761 -0.005304 -0.000000 0.000000 0.000000 0.017444
 12 6.661936 -0.000705 0.000000 -0.000000 -0.000001 0.471000
 13 2.044495 -0.000000 -0.000000 0.141722 0.084566 -0.962330
 14 -3.112017 1.516413 4.341911 -0.000013 -1.370798 2.669809
 15 -2.869892 1.398824 -4.140396 -0.000013 1.370795 2.669783
 16 4.827231 0.000000 0.000001 0.443663 0.560005 1.638998
 17 11.139763 -0.000000 -0.000000 0.000000 -0.000000 -0.287179
 18 8.575572 -8.394946 9.511936 -1.535143 -1.058019 1.499774
 19 -1.465386 0.506167 4.002137 0.034889 -0.200000 -0.000001
 20 4.972047 0.000000 0.000001 0.835615 -0.152757 -1.082541
 21 -9.249866 0.683183 -1.946118 -0.000014 -1.670796 0.000014
 22 10.313008 -0.000000 0.000000 -1.570000 0.000000 -0.069778
 23 1.646738 0.449549 -1.702246 0.154002 0.442277 0.277235
 24 0.928314 0.000000 0.000000 0.000000 0.000000 0.000000
 25 0.928314 -0.000000 -0.000000 0.000000 0.000000 0.000000
 26 2.975832 -0.386307 -0.044144 -0.000797 -0.043611 0.000035
 27 1.438890 0.000003 0.000001 -0.000000 -0.000000 0.793722
 28 1.485299 -0.000005 -0.000000 0.000000 -0.000000 1.465316
 29 11.585355 0.000000 0.000001 0.000000 0.000000 -0.217399
 30 10.125607 -0.000000 0.000001 1.569752 0.000000 -0.069778
 31 1.533671 0.109715 1.664491 -0.233255 -0.412980 0.435685
 32 0.928314 -0.000001 0.000000 0.000000 0.000000 0.000000
 33 2.683748 -0.427340 0.044205 0.001045 0.043611 0.000046
 34 1.438886 0.000003 0.000000 0.000000 0.000000 0.915819
 35 2.027418 0.730720 12.541074 -1.531161 -0.031283 2.992741
time 11
  0 0.235349 -0.235349 -3.764264 -1.211171 -0.862272 -0.113263
  1 0.679707 -0.015625 0.000000 -1.570795 -1.570787 0.000000
  2 -0.000005 0.000007 3.713254 -0.472585 -3.282675 0.312901
  3 18.045725 0.000000 0.000000 -0.000000 -0.000000 -0.629918
  4 17.597599 0.000000 0.000000 0.050330 0.362221 -0.472575
  5 0.000005 -0.000003 -3.713254 0.515585 3.082128 -0.396371
  6 18.045721 -0.000000 -0.000001 0.000000 0.000000 -0.658788
  7 17.597593 0.000000 -0.000000 -0.188466 -0.304592 -0.810326
  8 1.293338 0.684453 -0.000001 -0.069758 0.000658 0.009501
  9 5.309647 -0.003832 -0.000000 0.000000 0.000000 -0.069795
 10 4.826592 -0.004567 -0.000000 -0.078499 0.000060 -0.000035
 11 5.792761 -0.005304 -0.000000 0.000000 0.000000 0.017444
 12 6.661936 -0.000705 0.000000 -0.000000 -0.000001 0.471000
 13 2.044495 -0.000000 -0.000000 0.141722 0.084566 -0.962330
 14 -3.112017 1.516413 4.341911 -0.000013 -1.370798 2.669809
 15 -2.869892 1.398824 -4.140396 -0.000013 1.370795 2.669783
 16 4.827231 0.000000 0.000001 -0.484963 0.619150 0.318017
 17 11.139763 -0.000000 -0.000000 0.000000 -0.000000 -0.287179
 18 8.575572 -8.394946 9.511936 -1.535143 -1.058019 1.499774
 19 -1.465386 0.506167 4.002137 0.034889 -0.200000 -0.000001
 20 4.972047 0.000000 0.000001 0.828927 -0.213731 -1.031063
 21 -9.249866 0.683183 -1.946118 -0.000014 -1.670796 0.000014
 22 10.313008 -0.000000 0.000000 -1.570000 0.000000 -0.069778
 23 1.646738 0.449549 -1.702246 0.154002 0.442277 0.277235
 24 0.928314 0.000000 0.000000 0.000000 0.000000 0.000000
 25 0.928314 -0.000000 -0.000000 0.000000 0.000000 0.000000
 26 2.975832 -0.386307 -0.044144 -0.000797 -0.043611 0.000035
 27 1.438890 0.000003 0.000001 -0.000000 -0.000000 0.793722
 28 1.485299 -0.000005 -0.000000 0.000000 -0.000000 1.465316
 29 11.585355 0.000000 0.000001 0.000000 0.000000 -0.217399
 30 10.125607 -0.000000 0.000001 1.569752 0.000000 -0.069778
 31 1.533671 0.109715 1.664491 -0.233255 -0.412980 0.435685
 32 0.928314 -0.000001 0.000000 0.000000 0.000000 0.000000
 33 2.683748 -0.427340 0.044205 0.001045 0.043611 0.000046
 34 1.438886 0.000003 0.000000 0.000000 0.000000 0.915819
 35 2.027418 0.730720 12.541074 -1.531161 -0.031283 2.992741
time 12
  0 0.235349 -0.235349 -8.303465 -1.271892 -1.320218 -0.046677
  1 0.679707 -0.015625 0.000000 -1.570795 -1.570787 0.000000
  2 -0.000005 0.000007 3.713254 -0.499614 -3.212697 0.149248
  3 18.045725 0.000000 0.000000 -0.000000 -0.000000 -0.661309
  4 17.597599 0.000000 0.000000 0.048805 0.410605 -0.565449
  5 0.000005 -0.000003 -3.713254 0.441253 3.114351 -0.408582
  6 18.045721 -0.000000 -0.000001 0.000000 0.000000 -0.665598
  7 17.597593 0.000000 -0.000000 -0.168406 -0.234160 -0.798531
  8 1.293338 0.684453 -0.000001 -0.069758 0.000658 0.009501
  9 5.309647 -0.003832 -0.000000 0.000000 0.000000 -0.069795
 10 4.826592 -0.004567 -0.000000 -0.078499 0.000060 -0.000035
 11 5.792761 -0.005304 -0.000000 0.000000 0.000000 0.017444
 12 6.661936 -0.000705 0.000000 -0.000000 -0.000001 0.471000
 13 2.044495 -0.000000 -0.000000 0.141722 0.084566 -0.962330
 14 -3.112017 1.516413 4.341911 -0.000013 -1.370798 2.669809
 15 -2.869892 1.398824 -4.140396 -0.000013 1.370795 2.669783
 16 4.827231 0.000000 0.000001 -0.698958 0.002169 -0.679173
 17 11.139763 -0.000000 -0.000000 0.000000 -0.000000 -0.287179
 18 8.575572 -8.394946 9.511936 -1.535143 -1.058019 1.499774
 19 -1.465386 0.506167 4.002137 0.034889 -0.200000 -0.000001
 20 4.972047 0.000000 0.000001 0.705849 -0.534208 -0.690378
 21 -9.249866 0.683183 -1.946118 -0.000014 -1.670796 0.000014
 22 10.313008 -0.000000 0.000000 -1.570000 0.000000 -0.069778
 23 1.646738 0.449549 -1.702246 0.154002 0.442277 0.277235
 24 0.928314 0.000000 0.000000 0.000000 0.000000 0.000000
 25 0.928314 -0.000000 -0.000000 0.000000 0.000000 0.000000
 26 2.975832 -0.386307 -0.044144 -0.000797 -0.043611 0.000035
 27 1.438890 0.000003 0.000001 -0.000000 -0.000000 0.793722
 28 1.485299 -0.000005 -0.000000 0.000000 -0.000000 1.465316
 29 11.585355 0.000000 0.000001 0.000000 0.000000 -0.217399
 30 10.125607 -0.000000 0.000001 1.569752 0.000000 -0.069778
 31 1.533671 0.109715 1.664491 -0.233255 -0.412980 0.435685
 32 0.928314 -0.000001 0.000000 0.000000 0.000000 0.000000
 33 2.683748 -0.427340 0.044205 0.001045 0.043611 0.000046
 34 1.438886 0.000003 0.000000 0.000000 0.000000 0.915819
 35 2.027418 0.730720 12.541074 -1.531161 -0.031283 2.992741
time 13
  0 0.235349 -0.235349 -12.889543 -1.015356 -1.817379 -0.278301
  1 0.679707 -0.015625 0.000000 -1.570795 -1.570787 0.000000
  2 -0.000005 0.000007 3.713254 -0.526356 -3.132556 -0.032081
  3 18.045725 0.000000 0.000000 -0.000000 -0.000000 -0.695298
  4 17.597599 0.000000 0.000000 0.048703 0.471739 -0.669304
  5 0.000005 -0.000003 -3.713254 0.353719 3.152627 -0.417789
  6 18.045721 -0.000000 -0.000001 0.000000 0.000000 -0.680521
  7 17.597593 0.000000 -0.000000 -0.143603 -0.151204 -0.771982
  8 1.293338 0.684453 -0.000001 -0.069758 0.000658 0.009501
  9 5.309647 -0.003832 -0.000000 0.000000 0.000000 -0.069795
 10 4.826592 -0.004567 -0.000000 -0.078499 0.000060 -0.000035
 11 5.792761 -0.005304 -0.000000 0.000000 0.000000 0.017444
 12 6.661936 -0.000705 0.000000 -0.000000 -0.000001 0.471000
 13 2.044495 -0.000000 -0.000000 0.141722 0.084566 -0.962330
 14 -3.112017 1.516413 4.341911 -0.000013 -1.370798 2.669809
 15 -2.869892 1.398824 -4.140396 -0.000013 1.370795 2.669783
 16 4.827231 0.000000 0.000001 -0.419678 0.238749 -0.600501
 17 11.139763 -0.000000 -0.000000 0.000000 -0.000000 -0.589083
 18 8.575572 -8.394946 9.511936 -1.535143 -1.058019 1.499774
 19 -1.465386 0.506167 4.002137 0.034889 -0.200000 -0.000001
 20 4.972047 0.000000 0.000001 0.705849 -0.534208 -0.690378
 21 -9.249866 0.683183 -1.946118 -0.000014 -1.670796 0.000014
 22 10.313008 -0.000000 0.000000 -1.570000 0.000000 -0.069778
 23 1.646738 0.449549 -1.702246 0.154002 0.442277 0.277235
 24 0.928314 0.000000 0.000000 0.000000 0.000000 0.000000
 25 0.928314 -0.000000 -0.000000 0.000000 0.000000 0.000000
 26 2.975832 -0.386307 -0.044144 -0.000797 -0.043611 0.000035
 27 1.438890 0.000003 0.000001 -0.000000 -0.000000 0.793722
 28 1.485299 -0.000005 -0.000000 0.000000 -0.000000 1.465316
 29 11.585355 0.000000 0.000001 0.000000 0.000000 -0.217399
 30 10.125607 -0.000000 0.000001 1.569752 0.000000 -0.069778
 31 1.533671 0.109715 1.664491 -0.233255 -0.412980 0.435685
 32 0.928314 -0.000001 0.000000 0.000000 0.000000 0.000000
 33 2.683748 -0.427340 0.044205 0.001045 0.043611 0.000046
 34 1.438886 0.000003 0.000000 0.000000 0.000000 0.915819
 35 2.027418 0.730720 12.541074 -1.531161 -0.031283 2.992741
time 14
  0 0.235350 -0.235350 -18.038137 -1.090875 -2.297289 -0.180991
  1 0.679707 -0.015625 0.000000 -1.570795 -1.570787 0.000000
  2 -0.000005 0.000007 3.713254 -0.544376 -3.035737 -0.257553
  3 18.045725 0.000000 0.000000 -0.000000 -0.000000 -0.737227
  4 17.597599 0.000000 0.000000 0.045882 0.546449 -0.789857
  5 0.000005 -0.000003 -3.713254 0.277474 3.185781 -0.427480
  6 18.045721 -0.000000 -0.000001 0.000000 0.000000 -0.716816
  7 17.597593 0.000000 -0.000000 -0.119867 -0.079508 -0.726725
  8 1.293338 0.684453 -0.000001 -0.069758 0.000658 0.009501
  9 5.309647 -0.003832 -0.000000 0.000000 0.000000 -0.069795
 10 4.826592 -0.004567 -0.000000 -0.078499 0.000060 -0.000035
 11 5.792761 -0.005304 -0.000000 0.000000 0.000000 0.017444
 12 6.661936 -0.000705 0.000000 -0.000000 -0.000001 0.471000
 13 2.044495 -0.000000 -0.000000 0.141722 0.084566 -0.962330
 14 -3.112017 1.516413 4.341911 -0.000013 -1.370798 2.669809
 15 -2.869892 1.398824 -4.140396 -0.000013 1.370795 2.669783
 16 4.827231 0.000000 0.000001 -0.024374 0.509114 -0.245993
 17 11.139763 -0.000000 -0.000000 0.000000 -0.000000 -0.906895
 18 8.575572 -8.394946 9.511936 -1.535143 -1.058019 1.499774
 19 -1.465386 0.506167 4.002137 0.034889 -0.200000 -0.000001
 20 4.972047 0.000000 0.000001 0.705849 -0.534208 -0.690378
 21 -9.249866 0.683183 -1.946118 -0.000014 -1.670796 0.000014
 22 10.313008 -0.000000 0.000000 -1.570000 0.000000 -0.069778
 23 1.646738 0.449549 -1.702246 0.154002 0.442277 0.277235
 24 0.928314 0.000000 0.000000 0.000000 0.000000 0.000000
 25 0.928314 -0.000000 -0.000000 0.000000 0.000000 0.000000
 26 2.975832 -0.386307 -0.044144 -0.000797 -0.043611 0.000035
 27 1.438890 0.000003 0.000001 -0.000000 -0.000000 0.793722
 28 1.485299 -0.000005 -0.000000 0.000000 -0.000000 1.465316
 29 11.585355 0.000000 0.000001 0.000000 0.000000 -0.217399
 30 10.125607 -0.000000 0.000001 1.569752 0.000000 -0.069778
 31 1.533671 0.109715 1.664491 -0.233255 -0.412980 0.435685
 32 0.928314 -0.000001 0.000000 0.000000 0.000000 0.000000
 33 2.683748 -0.427340 0.044205 0.001045 0.043611 0.000046
 34 1.438886 0.000003 0.000000 0.000000 0.000000 0.915819
 35 2.027418 0.730720 12.541074 -1.531161 -0.031283 2.992741
time 15
  0 0.235350 -0.235350 -22.612495 -1.105769 -2.698147 -0.153595
  1 -3.203224 0.347667 0.000000 -1.570795 -1.570787 0.000000
  2 -0.000005 0.000007 3.713254 -0.537091 -2.962211 -0.503082
  3 18.045725 0.000000 0.000000 -0.000000 -0.000000 -0.782792
  4 17.597599 0.000000 0.000000 0.032461 0.602433 -0.873216
  5 0.000005 -0.000003 -3.713254 0.268769 3.168458 -0.456506
  6 18.045721 -0.000000 -0.000001 0.000000 0.000000 -1.078315
  7 17.597593 0.000000 -0.000000 -0.105208 -0.068834 -0.391287
  8 1.293338 0.684453 -0.000001 -0.069758 0.000658 0.009501
  9 5.309647 -0.003832 -0.000000 0.000000 0.000000 0.340160
 10 4.826592 -0.004567 -0.000000 -0.063530 0.046129 0.626498
 11 5.792761 -0.005304 -0.000000 0.433607 -0.048142 0.102779
 12 6.661936 -0.000705 0.000000 -0.000000 -0.000001 0.471000
 13 2.044495 -0.000000 -0.000000 -0.298426 -0.163369 -0.719401
 14 -3.112017 1.516413 4.341911 -0.000013 -1.370798 2.669809
 15 -2.869892 1.398824 -4.140396 -0.000013 1.370795 2.669783
 16 4.827231 0.000000 0.000001 -0.600285 0.455586 -0.946345
 17 11.139763 -0.000000 -0.000000 0.000000 -0.000000 -1.261429
 18 8.575572 -8.394946 9.511936 -1.535143 -1.058019 1.499774
 19 -1.465386 0.506167 4.002137 0.034889 -0.200000 -0.000001
 20 4.972047 0.000000 0.000001 1.486207 0.346862 -0.703559
 21 -9.249866 0.683183 -1.946118 -0.000014 -1.670796 0.000014
 22 10.313008 -0.000000 0.000000 -1.570000 0.000000 -0.069778
 23 1.646738 0.449549 -1.702246 0.154002 0.442277 0.277235
 24 0.928314 0.000000 0.000000 0.000000 0.000000 0.000000
 25 0.928314 -0.000000 -0.000000 0.000000 0.000000 0.000000
 26 2.975832 -0.386307 -0.044144 -0.000797 -0.043611 0.000035
 27 1.438890 0.000003 0.000001 -0.000000 -0.000000 0.793722
 28 1.485299 -0.000005 -0.000000 0.000000 -0.000000 1.465316
 29 11.585355 0.000000 0.000001 0.000000 0.000000 -0.217399
 30 10.125607 -0.000000 0.000001 1.569752 0.000000 -0.069778
 31 1.533671 0.109715 1.664491 -0.233255 -0.412980 0.435685
 32 0.928314 -0.000001 0.000000 0.000000 0.000000 0.000000
 33 2.683748 -0.427340 0.044205 0.001045 0.043611 0.000046
 34 1.438886 0.000003 0.000000 0.000000 0.000000 0.915819
 35 2.027418 0.730720 12.541074 -1.531161 -0.031283 2.992741
time 16
  0 0.235350 -0.235350 -26.655588 -1.081423 -2.913782 -0.140183
  1 -4.961090 -2.011780 0.000000 -1.570795 -1.570787 0.000000
  2 -0.000005 0.000007 3.713254 -0.553002 -3.265420 -0.736227
  3 18.045725 0.000000 0.000000 -0.000000 -0.000000 -0.828877
  4 17.597599 0.000000 0.000000 -0.105792 0.583074 -0.366432
  5 0.000005 -0.000003 -3.713254 0.156075 2.914588 -0.349126
  6 18.045721 -0.000000 -0.000001 0.000000 0.000000 -1.222987
  7 17.597593 0.000000 -0.000000 0.088766 0.087714 -0.197019
  8 1.293338 0.684453 -0.000001 0.106355 -0.060068 0.512206
  9 5.309647 -0.003832 -0.000000 0.194314 -0.237942 0.300210
 10 4.826592 -0.004567 -0.000000 -0.077313 -0.013543 -0.173905
 11 5.792761 -0.005304 -0.000000 0.433607 -0.048142 0.102779
 12 6.661936 -0.000705 0.000000 -0.000000 -0.000001 0.471000
 13 2.044495 -0.000000 -0.000000 -0.657173 0.329326 -0.618347
 14 -3.112017 1.516413 4.341911 -0.000013 -1.370798 2.669809
 15 -2.869892 1.398824 -4.140396 -0.000013 1.370795 2.669783
 16 4.827231 0.000000 0.000001 0.471003 0.396866 -0.367546
 17 11.139763 -0.000000 -0.000000 0.000000 -0.000000 -1.639159
 18 8.575572 -8.394946 9.511936 -1.535143 -1.058019 1.499774
 19 -1.465386 0.506167 4.002137 0.034889 -0.200000 -0.000001
 20 4.972047 0.000000 0.000001 1.715364 -0.290633 -0.423476
 21 -9.249866 0.683183 -1.946118 -0.000014 -1.670796 0.000014
 22 10.313008 -0.000000 0.000000 -1.570000 0.000000 -0.069778
 23 1.646738 0.449549 -1.702246 0.154002 0.442277 0.277235
 24 0.928314 0.000000 0.000000 0.000000 0.000000 0.000000
 25 0.928314 -0.000000 -0.000000 0.000000 0.000000 0.000000
 26 2.975832 -0.386307 -0.044144 -0.000797 -0.043611 0.000035
 27 1.438890 0.000003 0.000001 -0.000000 -0.000000 0.793722
 28 1.485299 -0.000005 -0.000000 0.000000 -0.000000 1.465316
 29 11.585355 0.000000 0.000001 0.000000 0.000000 -0.565078
 30 10.125607 -0.000000 0.000001 1.569752 0.000000 -0.069778
 31 1.533671 0.109715 1.664491 -0.233255 -0.412980 0.435685
 32 0.928314 -0.000001 0.000000 0.000000 0.000000 0.000000
 33 2.683748 -0.427340 0.044205 0.001045 0.043611 0.000046
 34 1.438886 0.000003 0.000000 0.000000 0.000000 0.915819
 35 2.027418 0.730720 12.541074 -1.531161 -0.031283 2.992741
time 17
  0 0.235350 -0.235350 -26.889971 -1.081423 -2.913782 -0.140183
  1 -4.961090 -2.011780 0.000000 -1.570795 -1.570787 0.000000
  2 -0.000005 0.000007 3.713254 -0.651247 -3.659602 -0.899103
  3 18.045725 0.000000 0.000000 -0.000000 -0.000000 -0.856335
  4 17.597599 0.000000 0.000000 0.208842 0.173614 -0.464522
  5 0.000005 -0.000003 -3.713254 0.065576 2.641906 -0.258077
  6 18.045721 -0.000000 -0.000001 0.000000 0.000000 -1.322454
  7 17.597593 0.000000 -0.000000 0.271416 0.252969 -0.087499
  8 1.293338 0.684453 -0.000001 0.106355 -0.060068 0.512206
  9 5.309647 -0.003832 -0.000000 0.194314 -0.237942 0.300210
 10 4.826592 -0.004567 -0.000000 -0.077313 -0.013543 -0.173905
 11 5.792761 -0.005304 -0.000000 0.433607 -0.048142 0.102779
 12 6.661936 -0.000705 0.000000 -0.000000 -0.000001 0.471000
 13 2.044495 -0.000000 -0.000000 -0.683953 0.259305 -0.710529
 14 -3.112017 1.516413 4.341911 -0.000013 -1.370798 2.669809
 15 -2.869892 1.398824 -4.140396 -0.000013 1.370795 2.669783
 16 4.827231 0.000000 0.000001 0.471003 0.396866 -0.367546
 17 11.139763 -0.000000 -0.000000 0.000000 -0.000000 -1.639159
 18 8.575572 -8.394946 9.511936 -1.535143 -1.058019 1.499774
 19 -1.465386 0.506167 4.002137 0.034889 -0.200000 -0.000001
 20 4.972047 0.000000 0.000001 1.722888 -0.425371 -0.443053
 21 -9.249866 0.683183 -1.946118 -0.000014 -1.670796 0.000014
 22 10.313008 -0.000000 0.000000 -1.570000 0.000000 -0.069778
 23 1.646738 0.449549 -1.702246 0.154002 0.442277 0.277235
 24 0.928314 0.000000 0.000000 0.000000 0.000000 0.000000
 25 0.928314 -0.000000 -0.000000 0.000000 0.000000 0.000000
 26 2.975832 -0.386307 -0.044144 -0.000797 -0.043611 0.000035
 27 1.438890 0.000003 0.000001 -0.000000 -0.000000 0.793722
 28 1.485299 -0.000005 -0.000000 0.000000 -0.000000 1.465316
 29 11.585355 0.000000 0.000001 0.000000 0.000000 -0.915530
 30 10.125607 -0.000000 0.000001 1.569752 -0.096006 -0.069778
 31 1.533671 0.109715 1.664491 -0.233255 -0.412980 0.435685
 32 0.928314 -0.000001 0.000000 0.000000 0.000000 0.000000
 33 2.683748 -0.427340 0.044205 0.001045 0.043611 0.000046
 34 1.438886 0.000003 0.000000 0.000000 0.000000 0.915819
 35 2.027418 0.730720 12.541074 -1.531161 -0.031283 2.992741
time 18
  0 0.235350 -0.235350 -26.038382 -1.081423 -2.913782 -0.140183
  1 -4.441543 -1.800836 0.000000 -1.570795 -1.570787 0.000000
  2 -0.000005 0.000007 3.713254 -0.651247 -3.659602 -0.899103
  3 18.045725 0.000000 0.000000 -0.000000 -0.000000 -0.856335
  4 17.597599 0.000000 0.000000 0.162656 0.130600 -0.433824
  5 0.000005 -0.000003 -3.713254 0.069115 2.554924 -0.251196
  6 18.045721 -0.000000 -0.000001 0.000000 0.000000 -1.322454
  7 17.597593 0.000000 -0.000000 0.182190 0.265960 -0.110386
  8 1.293338 0.684453 -0.000001 0.106355 -0.060068 0.512206
  9 5.309647 -0.003832 -0.000000 0.200563 -0.212607 0.170609
 10 4.826592 -0.004567 -0.000000 -0.077313 -0.013543 -0.173905
 11 5.792761 -0.005304 -0.000000 0.433607 -0.048142 0.102779
 12 6.661936 -0.000705 0.000000 -0.000000 -0.000001 0.471000
 13 2.044495 -0.000000 -0.000000 -0.687268 0.237803 -0.678445
 14 -3.112017 1.516413 4.341911 -0.000013 -1.370798 2.669809
 15 -2.869892 1.398824 -4.140396 -0.000013 1.370795 2.669783
 16 4.827231 0.000000 0.000001 0.840981 0.787649 0.139319
 17 11.139763 -0.000000 -0.000000 0.000000 -0.000000 -1.909527
 18 8.575572 -8.394946 9.511936 -1.535143 -1.058019 1.499774
 19 -1.465386 0.506167 4.002137 0.034889 -0.200000 -0.000001
 20 4.972047 0.000000 0.000001 1.621639 -0.639586 -0.404991
 21 -9.249866 0.683183 -1.946118 -0.000014 -1.670796 0.000014
 22 10.313008 -0.000000 0.000000 -1.570000 0.000000 -0.069778
 23 1.646738 0.449549 -1.702246 0.154002 0.442277 0.277235
 24 0.928314 0.000000 0.000000 0.000000 0.000000 0.000000
 25 0.928314 -0.000000 -0.000000 0.000000 0.000000 0.000000
 26 2.975832 -0.386307 -0.044144 -0.000797 -0.043611 0.000035
 27 1.438890 0.000003 0.000001 -0.000000 -0.000000 0.793722
 28 1.485299 -0.000005 -0.000000 0.000000 -0.000000 1.046651
 29 11.585355 0.000000 0.000001 0.000000 0.000000 -1.230772
 30 10.125607 -0.000000 0.000001 1.569752 -0.191443 -0.069778
 31 1.533671 0.109715 1.664491 -0.233255 -0.412980 0.435685
 32 0.928314 -0.000001 0.000000 0.000000 0.000000 0.000000
 33 2.683748 -0.427340 0.044205 0.001045 0.043611 0.000046
 34 1.438886 0.000003 0.000000 0.000000 0.000000 0.915819
 35 2.027418 0.730720 12.541074 -1.531161 -0.031283 2.992741
time 19
  0 0.235350 -0.235350 -26.698559 -1.081423 -2.913782 -0.140183
  1 -4.652487 -1.843806 0.000000 -1.570795 -1.570787 0.000000
  2 -0.000005 0.000007 3.713254 -0.651247 -3.659602 -0.899103
  3 18.045725 0.000000 0.000000 -0.000000 -0.000000 -0.856335
  4 17.597599 0.000000 0.000000 0.042628 0.156375 -0.388484
  5 0.000005 -0.000003 -3.713254 0.067202 2.598042 -0.254685
  6 18.045721 -0.000000 -0.000001 0.000000 0.000000 -1.322454
  7 17.597593 0.000000 -0.000000 0.226439 0.259781 -0.098887
  8 1.293338 0.684453 -0.000001 0.106355 -0.060068 0.512206
  9 5.309647 -0.003832 -0.000000 0.197901 -0.225250 0.234650
 10 4.826592 -0.004567 -0.000000 -0.077313 -0.013543 -0.173905
 11 5.792761 -0.005304 -0.000000 0.435954 -0.011613 0.024130
 12 6.661936 -0.000705 0.000000 -0.000000 -0.000001 0.471000
 13 2.044495 -0.000000 -0.000000 -0.710071 0.148666 -0.729006
 14 -3.112017 1.516413 4.341911 -0.000013 -1.370798 2.669809
 15 -2.869892 1.398824 -4.140396 -0.000013 1.370795 2.669783
 16 4.827231 0.000000 0.000001 1.520823 1.005762 0.962974
 17 11.139763 -0.000000 -0.000000 0.000000 -0.000000 -2.179895
 18 8.575572 -8.394946 9.511936 -1.535143 -1.058019 1.499774
 19 -1.465386 0.506167 4.002137 0.034889 -0.200000 -0.000001
 20 4.972047 0.000000 0.000001 1.582347 -0.721394 -0.361703
 21 -9.249866 0.683183 -1.946118 -0.000014 -1.670796 0.000014
 22 10.313008 -0.000000 0.000000 -1.570000 0.000000 -0.069778
 23 1.646738 0.449549 -1.702246 0.154002 0.442277 0.277235
 24 0.928314 0.000000 0.000000 0.000000 0.000000 0.000000
 25 0.928314 -0.000000 -0.000000 0.000000 0.000000 0.000000
 26 2.975832 -0.386307 -0.044144 -0.000797 -0.043611 0.000035
 27 1.438890 0.000003 0.000001 -0.000000 -0.000000 0.793722
 28 1.485299 -0.000005 -0.000000 0.000000 -0.000000 0.627986
 29 11.585355 0.000000 0.000001 0.000000 0.000000 -1.473469
 30 10.125607 -0.000000 0.000001 1.569752 -0.266579 -0.069778
 31 1.533671 0.109715 1.664491 -0.233255 -0.412980 0.435685
 32 0.928314 -0.000001 0.000000 0.000000 0.000000 0.000000
 33 2.683748 -0.427340 0.044205 0.001045 0.043611 0.000046
 34 1.438886 0.000003 0.000000 0.000000 0.000000 0.915819
 35 2.027418 0.730720 12.541074 -1.531161 -0.031283 2.992741
time 20
  0 0.235350 -0.235350 -27.327484 -1.081423 -2.913782 -0.140183
  1 -4.867337 -1.898495 0.000000 -1.570795 -1.570787 0.000000
  2 -0.000005 0.000007 3.713254 -0.651247 -3.659602 -0.899103
  3 18.045725 0.000000 0.000000 -0.000000 -0.000000 -0.856335
  4 17.597599 0.000000 0.000000 -0.042855 0.179094 -0.358335
  5 0.000005 -0.000003 -3.713254 0.065576 2.641906 -0.258077
  6 18.045721 -0.000000 -0.000001 0.000000 0.000000 -1.322454
  7 17.597593 0.000000 -0.000000 0.271416 0.252969 -0.087499
  8 1.293338 0.684453 -0.000001 0.106355 -0.060068 0.512206
  9 5.309647 -0.003832 -0.000000 0.194314 -0.237942 0.300210
 10 4.826592 -0.004567 -0.000000 -0.077313 -0.013543 -0.173905
 11 5.792761 -0.005304 -0.000000 0.435745 0.018073 -0.039591
 12 6.661936 -0.000705 0.000000 -0.000000 -0.000001 0.471000
 13 2.044495 -0.000000 -0.000000 -0.720677 0.076258 -0.771695
 14 -3.112017 1.516413 4.341911 -0.000013 -1.370798 2.669809
 15 -2.869892 1.398824 -4.140396 -0.000013 1.370795 2.669783
 16 4.827231 0.000000 0.000001 1.415315 1.009251 0.996841
 17 11.139763 -0.000000 -0.000000 0.000000 -0.000000 -2.179895
 18 8.575572 -8.394946 9.511936 -1.535143 -1.058019 1.499774
 19 -1.465386 0.506167 4.002137 0.034889 -0.200000 -0.000001
 20 4.972047 0.000000 0.000001 1.560054 -0.771750 -0.331363
 21 -9.249866 0.683183 -1.946118 -0.000014 -1.670796 0.000014
 22 10.313008 -0.000000 0.000000 -1.570000 0.418647 -0.069778
 23 1.646738 0.449549 -1.702246 0.154002 0.442277 0.277235
 24 0.928314 0.000000 0.000000 0.000000 0.000000 0.000000
 25 0.928314 -0.000000 -0.000000 0.000000 0.000000 0.000000
 26 2.975832 -0.386307 -0.044144 -0.000797 -0.043611 0.000035
 27 1.438890 0.000003 0.000001 -0.000000 -0.000000 0.793722
 28 1.485299 -0.000005 -0.000000 0.000000 -0.000000 0.627986
 29 11.585355 0.000000 0.000001 0.000000 0.000000 -1.656598
 30 10.125607 -0.000000 0.000001 1.569752 -0.322677 -0.069778
 31 1.533671 0.109715 1.664491 -0.233255 -0.412980 0.435685
 32 0.928314 -0.000001 0.000000 0.000000 0.000000 0.000000
 33 2.683748 -0.427340 0.044205 0.001045 0.043611 0.000046
 34 1.438886 0.000003 0.000000 0.000000 0.000000 0.915819
 35 2.027418 0.730720 12.541074 -1.531161 -0.031283 2.992741
end
