version 1
nodes
  0 "Bip01"  -1
  1 "Bip01 Pelvis"   0
  2 "Bip01 L Leg"   1
  3 "Bip01 L Leg1"   2
  4 "Bip01 L Foot"   3
  5 "Bip01 R Leg"   1
  6 "Bip01 R Leg1"   5
  7 "Bip01 R Foot"   6
  8 "Bip01 Spine"   1
  9 "Bip01 Spine1"   8
 10 "Bip01 Spine2"   9
 11 "Bip01 Spine3"  10
 12 "Bip01 Neck"  11
 13 "Bip01 Head"  12
 14 "Bip01 L Arm"  12
 15 "Bip01 R Arm"  12
 16 "Bip01 L Arm1"  14
 17 "Bip01 L Arm2"  16
 18 "bone_shield"  17
 19 "bone_root_plate"  14
 20 "Bip01 R Arm1"  15
 21 "bone_plate_root"  20
 22 "Bip01 L Hand"  17
 23 "Bip01 L Finger0"  22
 24 "Bip01 L Finger01"  23
 25 "Bip01 L Finger02"  24
 26 "Bip01 L Finger1"  22
 27 "Bip01 L Finger11"  26
 28 "Bip01 L Finger12"  27
 29 "Bip01 R Arm2"  20
 30 "Bip01 R Hand"  29
 31 "Bip01 R Finger0"  30
 32 "Bip01 R Finger01"  31
 33 "Bip01 R Finger1"  30
 34 "Bip01 R Finger11"  33
 35 "sword"  30
end
skeleton
time 0
  0 0.235347 -0.235347 2.884376 0.000000 0.000000 -1.570829
  1 0.679707 -0.015625 0.000000 -1.570795 -1.570787 0.000000
  2 -0.000005 0.000007 3.713254 -0.055259 -3.106578 -0.210011
  3 18.045725 0.000000 0.000000 -0.000000 -0.000000 -0.234821
  4 17.597599 0.000000 0.000000 -0.095599 -0.022621 0.023183
  5 0.000005 -0.000003 -3.713254 0.257863 3.091161 0.080537
  6 18.045721 -0.000000 -0.000001 0.000000 0.000000 -0.127551
  7 17.597593 0.000000 -0.000000 -0.018138 0.069152 0.192736
  8 1.293338 0.684453 -0.000001 -0.069758 0.000658 0.009501
  9 5.309647 -0.003832 -0.000000 0.000000 0.000000 -0.069795
 10 4.826592 -0.004567 -0.000000 -0.078499 0.000060 -0.000035
 11 5.792761 -0.005304 -0.000000 0.000000 -0.000000 0.017444
 12 6.661936 -0.000705 0.000000 -0.000000 -0.000001 0.471000
 13 2.044495 -0.000000 -0.000000 0.158559 -0.045255 -0.152098
 14 -3.112017 1.516413 4.341911 -0.000013 -1.370798 2.669809
 15 -2.869892 1.398824 -4.140396 -0.000013 1.370795 2.669783
 16 4.827231 0.000000 0.000001 0.484148 1.160390 0.758723
 17 11.139763 -0.000000 -0.000000 0.000000 -0.000000 -0.287179
 18 8.575572 -8.394946 9.511936 -1.535143 -1.058019 1.499774
 19 -1.465386 0.506167 4.002137 0.034889 -0.200000 -0.000001
 20 4.972047 0.000000 0.000001 -0.592828 -1.258740 0.836936
 21 -9.249866 0.683183 -1.946118 -0.000014 -1.670796 0.000014
 22 10.313008 -0.000000 0.000000 -1.570000 0.000000 -0.069778
 23 1.646738 0.449549 -1.702246 0.154002 0.442277 0.277235
 24 0.928314 0.000000 0.000000 0.000000 0.000000 0.000000
 25 0.928314 -0.000000 -0.000000 0.000000 0.000000 0.000000
 26 2.975832 -0.386307 -0.044144 -0.000797 -0.043611 0.000035
 27 1.438890 0.000003 0.000001 -0.000000 -0.000000 0.793722
 28 1.485299 -0.000005 -0.000000 0.000000 -0.000000 1.465316
 29 11.585355 0.000000 0.000001 0.000000 0.000000 -1.290222
 30 10.125607 -0.000000 0.000001 1.569752 0.000000 -0.069778
 31 1.533671 0.109715 1.664491 -0.233255 -0.412980 0.435685
 32 0.928314 -0.000001 0.000000 0.000000 0.000000 0.000000
 33 2.683748 -0.427340 0.044205 0.001045 0.043611 0.000046
 34 1.438886 0.000003 0.000000 0.000000 0.000000 1.099000
 35 2.027418 0.730720 12.541074 -1.531161 -0.031283 2.992741
time 1
  0 0.235348 -0.235348 4.876624 0.000000 -0.510232 -1.570829
  1 2.546952 -0.179693 0.000000 -1.570795 -1.570787 0.000000
  2 -0.000005 0.000007 3.713254 -0.037047 -3.087693 -0.012754
  3 18.045725 0.000000 0.000000 -0.000000 -0.000000 -0.796373
  4 17.597599 0.000000 0.000000 -0.044762 -0.091465 -0.564992
  5 0.000005 -0.000003 -3.713254 0.182861 3.030814 0.244901
  6 18.045721 -0.000000 -0.000001 0.000000 0.000000 -0.804692
  7 17.597593 0.000000 -0.000000 -0.030460 0.056910 -0.446564
  8 1.293338 0.684453 -0.000001 -0.069496 -0.006017 -0.086216
  9 5.309647 -0.003832 -0.000000 0.000000 0.000000 -0.170071
 10 4.826592 -0.004567 -0.000000 -0.078140 -0.007442 -0.095689
 11 5.792761 -0.005304 -0.000000 0.000000 -0.000000 -0.091581
 12 6.661936 -0.000705 0.000000 -0.000000 -0.000001 0.117781
 13 2.044495 -0.000000 -0.000000 0.157366 0.043049 -0.031034
 14 -3.444058 0.348409 4.341911 -0.000013 -1.370798 3.023016
 15 -3.174589 0.320666 -4.140396 -0.000013 1.370795 3.022980
 16 4.827231 0.000000 0.000001 0.975670 0.483669 1.210806
 17 11.139763 -0.000000 -0.000000 0.000000 -0.000000 -0.287179
 18 8.575572 -8.394946 9.511936 -1.535143 -1.058019 1.499774
 19 -1.465386 0.506167 4.002137 0.034889 -0.200000 -0.000001
 20 4.972047 0.000000 0.000001 -1.003303 -0.471947 1.135504
 21 -9.249866 0.683183 -1.946118 -0.000014 -1.670796 0.000014
 22 10.313008 -0.000000 0.000000 -1.570000 0.000000 -0.069778
 23 1.646738 0.449549 -1.702246 0.154002 0.442277 0.277235
 24 0.928314 0.000000 0.000000 0.000000 0.000000 0.000000
 25 0.928314 -0.000000 -0.000000 0.000000 0.000000 0.000000
 26 2.975832 -0.386307 -0.044144 -0.000797 -0.043611 0.000035
 27 1.438890 0.000003 0.000001 -0.000000 -0.000000 0.793722
 28 1.485299 -0.000005 -0.000000 0.000000 -0.000000 1.465316
 29 11.585355 0.000000 0.000001 0.000000 0.000000 -0.928270
 30 10.125607 -0.000000 0.000001 1.569752 0.000000 -0.069778
 31 1.533671 0.109715 1.664491 -0.233255 -0.412980 0.435685
 32 0.928314 -0.000001 0.000000 0.000000 0.000000 0.000000
 33 2.683748 -0.427340 0.044205 0.001045 0.043611 0.000046
 34 1.438886 0.000003 0.000000 0.000000 0.000000 1.099000
 35 2.027418 0.730720 12.541074 -1.531161 -0.031283 2.992741
time 2
  0 0.235348 -0.235348 6.282917 0.000000 -1.020464 -1.570829
  1 4.246222 -0.332041 0.000000 -1.570795 -1.570787 0.000000
  2 -0.000005 0.000007 3.713254 -0.031584 -3.079449 0.155173
  3 18.045725 0.000000 0.000000 -0.000000 -0.000000 -0.979302
  4 17.597599 0.000000 0.000000 0.035740 -0.107162 -0.825360
  5 0.000005 -0.000003 -3.713254 0.155501 3.020290 0.402384
  6 18.045721 -0.000000 -0.000001 0.000000 0.000000 -1.187127
  7 17.597593 0.000000 -0.000000 -0.107273 0.058174 -0.546619
  8 1.293338 0.684453 -0.000001 -0.068606 -0.012645 -0.181934
  9 5.309647 -0.003832 -0.000000 0.000000 0.000000 -0.270388
 10 4.826592 -0.004567 -0.000000 -0.077073 -0.014885 -0.191307
 11 5.792761 -0.005304 -0.000000 0.000000 -0.000000 -0.200607
 12 6.661936 -0.000705 0.000000 -0.000000 -0.000001 -0.235474
 13 2.044495 -0.000000 -0.000000 0.109971 0.116200 0.085895
 14 -3.350306 -0.862566 4.341911 -0.000013 -1.370798 3.376224
 15 -3.088649 -0.796556 -4.140396 -0.000013 1.370795 3.376272
 16 4.827231 0.000000 0.000001 1.175557 -0.233304 1.270751
 17 11.139763 -0.000000 -0.000000 0.000000 -0.000000 -0.287179
 18 8.575572 -8.394946 9.511936 -1.535143 -1.058019 1.499774
 19 -1.465386 0.506167 4.002137 0.034889 -0.200000 -0.000001
 20 4.972047 0.000000 0.000001 -1.265992 0.301896 1.062890
 21 -9.249866 0.683183 -1.946118 -0.000014 -1.670796 0.000014
 22 10.313008 -0.000000 0.000000 -1.570000 0.000000 -0.069778
 23 1.646738 0.449549 -1.702246 0.154002 0.442277 0.277235
 24 0.928314 0.000000 0.000000 0.000000 0.000000 0.000000
 25 0.928314 -0.000000 -0.000000 0.000000 0.000000 0.000000
 26 2.975832 -0.386307 -0.044144 -0.000797 -0.043611 0.000035
 27 1.438890 0.000003 0.000001 -0.000000 -0.000000 0.793722
 28 1.485299 -0.000005 -0.000000 0.000000 -0.000000 1.465316
 29 11.585355 0.000000 0.000001 0.000000 0.000000 -0.566317
 30 10.125607 -0.000000 0.000001 1.569752 0.000000 -0.069778
 31 1.533671 0.109715 1.664491 -0.233255 -0.412980 0.435685
 32 0.928314 -0.000001 0.000000 0.000000 0.000000 0.000000
 33 2.683748 -0.427340 0.044205 0.001045 0.043611 0.000046
 34 1.438886 0.000003 0.000000 0.000000 0.000000 1.099000
 35 2.027418 0.730720 12.541074 -1.531161 -0.031283 2.992741
time 3
  0 0.235348 -0.235348 6.654022 0.000000 -1.341560 -1.570829
  1 3.527450 -0.269539 0.000000 -1.570795 -1.570787 0.000000
  2 -0.000005 0.000007 3.713254 -0.029379 -3.074560 0.271138
  3 18.045725 0.000000 0.000000 -0.000000 -0.000000 -1.069913
  4 17.597599 0.000000 0.000000 0.085408 -0.093393 -1.010331
  5 0.000005 -0.000003 -3.713254 0.140769 3.016937 0.513495
  6 18.045721 -0.000000 -0.000001 0.000000 0.000000 -1.447711
  7 17.597593 0.000000 -0.000000 -0.150819 0.037622 -0.546471
  8 1.293338 0.684453 -0.000001 -0.069025 -0.010176 -0.146197
  9 5.309647 -0.003832 -0.000000 0.000000 0.000000 -0.215815
 10 4.826592 -0.004567 -0.000000 -0.077660 -0.011433 -0.146722
 11 5.792761 -0.005304 -0.000000 0.000000 -0.000000 -0.158001
 12 6.661936 -0.000705 0.000000 -0.000000 -0.000001 -0.176534
 13 2.044495 -0.000000 -0.000000 0.137281 0.085422 0.148195
 14 -3.393275 -0.663341 4.341911 -0.000013 -1.370798 3.317356
 15 -3.131618 -0.612956 -4.140396 -0.000013 1.370795 3.317310
 16 4.827231 0.000000 0.000001 1.127009 0.105567 1.132921
 17 11.139763 -0.000000 -0.000000 0.000000 -0.000000 -0.287179
 18 8.575572 -8.394946 9.511936 -1.535143 -1.058019 1.499774
 19 -1.465386 0.506167 4.002137 0.034889 -0.200000 -0.000001
 20 4.972047 0.000000 0.000001 -1.210259 -0.062261 0.955802
 21 -9.249866 0.683183 -1.946118 -0.000014 -1.670796 0.000014
 22 10.313008 -0.000000 0.000000 -1.570000 0.000000 -0.069778
 23 1.646738 0.449549 -1.702246 0.154002 0.442277 0.277235
 24 0.928314 0.000000 0.000000 0.000000 0.000000 0.000000
 25 0.928314 -0.000000 -0.000000 0.000000 0.000000 0.000000
 26 2.975832 -0.386307 -0.044144 -0.000797 -0.043611 0.000035
 27 1.438890 0.000003 0.000001 -0.000000 -0.000000 0.793722
 28 1.485299 -0.000005 -0.000000 0.000000 -0.000000 1.465316
 29 11.585355 0.000000 0.000001 0.000000 0.000000 -0.566317
 30 10.125607 -0.000000 0.000001 1.569752 0.000000 -0.069778
 31 1.533671 0.109715 1.664491 -0.233255 -0.412980 0.435685
 32 0.928314 -0.000001 0.000000 0.000000 0.000000 0.000000
 33 2.683748 -0.427340 0.044205 0.001045 0.043611 0.000046
 34 1.438886 0.000003 0.000000 0.000000 0.000000 1.099000
 35 2.027418 0.730720 12.541074 -1.531161 -0.031283 2.992741
time 4
  0 0.235348 -0.235348 5.294606 0.000000 -1.614816 -1.570829
  1 2.601641 -0.187506 0.000000 -1.570795 -1.570787 0.000000
  2 -0.000005 0.000007 3.713254 -0.029379 -3.074560 0.271138
  3 18.045725 0.000000 0.000000 -0.000000 -0.000000 -1.069913
  4 17.597599 0.000000 0.000000 0.072444 -0.072051 -1.399214
  5 0.000005 -0.000003 -3.713254 0.140769 3.016937 0.513495
  6 18.045721 -0.000000 -0.000001 0.000000 0.000000 -1.651643
  7 17.597593 0.000000 -0.000000 -0.092432 0.014238 -0.629739
  8 1.293338 0.684453 -0.000001 -0.069391 -0.007132 -0.102337
  9 5.309647 -0.003832 -0.000000 0.000000 0.000000 -0.151434
 10 4.826592 -0.004567 -0.000000 -0.078152 -0.007263 -0.093418
 11 5.792761 -0.005304 -0.000000 0.000000 -0.000000 -0.106011
 12 6.661936 -0.000705 0.000000 -0.000000 -0.000001 -0.093152
 13 2.044495 -0.000000 -0.000000 0.158294 0.039626 0.212296
 14 -3.440152 -0.378176 4.341911 -0.000013 -1.370798 3.233944
 15 -3.170682 -0.351229 -4.140396 -0.000013 1.370795 3.233901
 16 4.827231 0.000000 0.000001 0.982768 0.473457 0.920794
 17 11.139763 -0.000000 -0.000000 0.000000 -0.000000 -0.287179
 18 8.575572 -8.394946 9.511936 -1.535143 -1.058019 1.499774
 19 -1.465386 0.506167 4.002137 0.034889 -0.200000 -0.000001
 20 4.972047 0.000000 0.000001 -1.069718 -0.470257 0.778284
 21 -9.249866 0.683183 -1.946118 -0.000014 -1.670796 0.000014
 22 10.313008 -0.000000 0.000000 -1.570000 0.000000 -0.069778
 23 1.646738 0.449549 -1.702246 0.154002 0.442277 0.277235
 24 0.928314 0.000000 0.000000 0.000000 0.000000 0.000000
 25 0.928314 -0.000000 -0.000000 0.000000 0.000000 0.000000
 26 2.975832 -0.386307 -0.044144 -0.000797 -0.043611 0.000035
 27 1.438890 0.000003 0.000001 -0.000000 -0.000000 0.793722
 28 1.485299 -0.000005 -0.000000 0.000000 -0.000000 1.465316
 29 11.585355 0.000000 0.000001 0.000000 0.000000 -0.566317
 30 10.125607 -0.000000 0.000001 1.569752 0.000000 -0.069778
 31 1.533671 0.109715 1.664491 -0.233255 -0.412980 0.435685
 32 0.928314 -0.000001 0.000000 0.000000 0.000000 0.000000
 33 2.683748 -0.427340 0.044205 0.001045 0.043611 0.000046
 34 1.438886 0.000003 0.000000 0.000000 0.000000 1.099000
 35 2.027418 0.730720 12.541074 -1.531161 -0.031283 2.992741
time 5
  0 0.235348 -0.235348 3.286732 0.000000 -1.814178 -1.570829
  1 1.734427 -0.109378 0.000000 -1.570795 -1.570787 0.000000
  2 -0.000005 0.000007 3.713254 -0.029379 -3.074560 0.271138
  3 18.045725 0.000000 0.000000 -0.000000 -0.000000 -1.069913
  4 17.597599 0.000000 0.000000 0.032842 -0.088408 -1.297693
  5 0.000005 -0.000003 -3.713254 0.140769 3.016937 0.513495
  6 18.045721 -0.000000 -0.000001 0.000000 0.000000 -1.612305
  7 17.597593 0.000000 -0.000000 -0.037245 0.053539 -0.435509
  8 1.293338 0.684453 -0.000001 -0.069627 -0.004411 -0.063157
  9 5.309647 -0.003832 -0.000000 0.000000 0.000000 -0.094524
 10 4.826592 -0.004567 -0.000000 -0.078415 -0.003547 -0.046049
 11 5.792761 -0.005304 -0.000000 0.000000 -0.000000 -0.059607
 12 6.661936 -0.000705 0.000000 -0.000000 -0.000001 -0.015970
 13 2.044495 -0.000000 -0.000000 0.164128 -0.004796 0.262790
 14 -3.455777 -0.112543 4.341911 -0.000013 -1.370798 3.156764
 15 -3.190214 -0.105128 -4.140396 -0.000013 1.370795 3.156723
 16 4.827231 0.000000 0.000001 0.720927 0.747226 0.609954
 17 11.139763 -0.000000 -0.000000 0.000000 -0.000000 -0.287179
 18 8.575572 -8.394946 9.511936 -1.535143 -1.058019 1.499774
 19 -1.465386 0.506167 4.002137 0.034889 -0.200000 -0.000001
 20 4.972047 0.000000 0.000001 -0.810001 -0.781886 0.480106
 21 -9.249866 0.683183 -1.946118 -0.000014 -1.670796 0.000014
 22 10.313008 -0.000000 0.000000 -1.570000 0.000000 -0.069778
 23 1.646738 0.449549 -1.702246 0.154002 0.442277 0.277235
 24 0.928314 0.000000 0.000000 0.000000 0.000000 0.000000
 25 0.928314 -0.000000 -0.000000 0.000000 0.000000 0.000000
 26 2.975832 -0.386307 -0.044144 -0.000797 -0.043611 0.000035
 27 1.438890 0.000003 0.000001 -0.000000 -0.000000 0.793722
 28 1.485299 -0.000005 -0.000000 0.000000 -0.000000 1.465316
 29 11.585355 0.000000 0.000001 0.000000 0.000000 -0.566317
 30 10.125607 -0.000000 0.000001 1.569752 0.000000 -0.069778
 31 1.533671 0.109715 1.664491 -0.233255 -0.412980 0.435685
 32 0.928314 -0.000001 0.000000 0.000000 0.000000 0.000000
 33 2.683748 -0.427340 0.044205 0.001045 0.043611 0.000046
 34 1.438886 0.000003 0.000000 0.000000 0.000000 1.099000
 35 2.027418 0.730720 12.541074 -1.531161 -0.031283 2.992741
time 6
  0 0.235348 -0.235348 1.099165 0.000000 -1.973792 -1.570829
  1 0.964872 -0.042970 0.000000 -1.570795 -1.570787 0.000000
  2 -0.000005 0.000007 3.713254 -0.118998 -3.058168 -0.124009
  3 18.045725 0.000000 0.000000 -0.000000 -0.000000 -0.901010
  4 17.597599 0.000000 0.000000 -0.061818 0.009902 -1.049220
  5 0.000005 -0.000003 -3.713254 0.209360 2.988999 0.330136
  6 18.045721 -0.000000 -0.000001 0.000000 0.000000 -1.416487
  7 17.597593 0.000000 -0.000000 0.010727 0.003822 -0.248821
  8 1.293338 0.684453 -0.000001 -0.069732 -0.002050 -0.029338
  9 5.309647 -0.003832 -0.000000 0.000000 0.000000 -0.045664
 10 4.826592 -0.004567 -0.000000 -0.078487 -0.000348 -0.005311
 11 5.792761 -0.005304 -0.000000 0.000000 -0.000000 -0.019576
 12 6.661936 -0.000705 0.000000 -0.000000 -0.000001 0.051614
 13 2.044495 -0.000000 -0.000000 0.159222 -0.042778 0.301944
 14 -3.455777 0.121839 4.341911 -0.000013 -1.370798 3.089171
 15 -3.190214 0.113629 -4.140396 -0.000013 1.370795 3.089132
 16 4.827231 0.000000 0.000001 0.332021 0.891131 0.181499
 17 11.139763 -0.000000 -0.000000 0.000000 -0.000000 -0.287179
 18 8.575572 -8.394946 9.511936 -1.535143 -1.058019 1.499774
 19 -1.465386 0.506167 4.002137 0.034889 -0.200000 -0.000001
 20 4.972047 0.000000 0.000001 -0.388565 -0.950731 0.018058
 21 -9.249866 0.683183 -1.946118 -0.000014 -1.670796 0.000014
 22 10.313008 -0.000000 0.000000 -1.570000 0.000000 -0.069778
 23 1.646738 0.449549 -1.702246 0.154002 0.442277 0.277235
 24 0.928314 0.000000 0.000000 0.000000 0.000000 0.000000
 25 0.928314 -0.000000 -0.000000 0.000000 0.000000 0.000000
 26 2.975832 -0.386307 -0.044144 -0.000797 -0.043611 0.000035
 27 1.438890 0.000003 0.000001 -0.000000 -0.000000 0.793722
 28 1.485299 -0.000005 -0.000000 0.000000 -0.000000 1.465316
 29 11.585355 0.000000 0.000001 0.000000 0.000000 -0.566317
 30 10.125607 -0.000000 0.000001 1.569752 0.000000 -0.069778
 31 1.533671 0.109715 1.664491 -0.233255 -0.412980 0.435685
 32 0.928314 -0.000001 0.000000 0.000000 0.000000 0.000000
 33 2.683748 -0.427340 0.044205 0.001045 0.043611 0.000046
 34 1.438886 0.000003 0.000000 0.000000 0.000000 1.099000
 35 2.027418 0.730720 12.541074 -1.531161 -0.031283 2.992741
time 7
  0 0.235348 -0.235348 -1.201686 0.000000 -2.120424 -1.570829
  1 0.242194 0.019532 0.000000 -1.570795 -1.570787 0.000000
  2 -0.000005 0.000007 3.713254 -0.210821 -2.994708 -0.589182
  3 18.045725 0.000000 0.000000 -0.000000 -0.000000 -0.698415
  4 17.597599 0.000000 0.000000 0.036502 0.164086 -0.715375
  5 0.000005 -0.000003 -3.713254 0.279292 2.944483 0.132773
  6 18.045721 -0.000000 -0.000001 0.000000 0.000000 -1.188141
  7 17.597593 0.000000 -0.000000 -0.027578 -0.059799 -0.047640
  8 1.293338 0.684453 -0.000001 -0.069758 0.000155 0.002382
  9 5.309647 -0.003832 -0.000000 0.000000 0.000000 -0.000001
 10 4.826592 -0.004567 -0.000000 -0.078451 0.002637 0.032827
 11 5.792761 -0.005304 -0.000000 0.000000 -0.000000 0.017922
 12 6.661936 -0.000705 0.000000 -0.000000 -0.000001 0.115549
 13 2.044495 -0.000000 -0.000000 0.146760 -0.075830 0.334695
 14 -3.444058 0.340596 4.341911 -0.000013 -1.370798 3.025222
 15 -3.174589 0.316760 -4.140396 -0.000013 1.370795 3.025185
 16 4.827231 0.000000 0.000001 -0.124537 0.889089 -0.312939
 17 11.139763 -0.000000 -0.000000 0.000000 -0.000000 -0.287179
 18 8.575572 -8.394946 9.511936 -1.535143 -1.058019 1.499774
 19 -1.465386 0.506167 4.002137 0.034889 -0.200000 -0.000001
 20 4.972047 0.000000 0.000001 0.124273 -0.946146 -0.541250
 21 -9.249866 0.683183 -1.946118 -0.000014 -1.670796 0.000014
 22 10.313008 -0.000000 0.000000 -1.570000 0.000000 -0.069778
 23 1.646738 0.449549 -1.702246 0.154002 0.442277 0.277235
 24 0.928314 0.000000 0.000000 0.000000 0.000000 0.000000
 25 0.928314 -0.000000 -0.000000 0.000000 0.000000 0.000000
 26 2.975832 -0.386307 -0.044144 -0.000797 -0.043611 0.000035
 27 1.438890 0.000003 0.000001 -0.000000 -0.000000 0.793722
 28 1.485299 -0.000005 -0.000000 0.000000 -0.000000 1.465316
 29 11.585355 0.000000 0.000001 0.000000 0.000000 -0.566317
 30 10.125607 -0.000000 0.000001 1.569752 0.000000 -0.069778
 31 1.533671 0.109715 1.664491 -0.233255 -0.412980 0.435685
 32 0.928314 -0.000001 0.000000 0.000000 0.000000 0.000000
 33 2.683748 -0.427340 0.044205 0.001045 0.043611 0.000046
 34 1.438886 0.000003 0.000000 0.000000 0.000000 1.099000
 35 2.027418 0.730720 12.541074 -1.531161 -0.031283 2.992741
time 8
  0 0.235348 -0.235348 -3.697856 0.000000 -2.249271 -1.570829
  1 -0.511735 0.085940 0.000000 -1.570795 -1.570787 0.000000
  2 -0.000005 0.000007 3.713254 -0.281270 -2.901147 -0.962864
  3 18.045725 0.000000 0.000000 -0.000000 -0.000000 -0.511775
  4 17.597599 0.000000 0.000000 0.273304 0.140431 -0.373890
  5 0.000005 -0.000003 -3.713254 0.334204 2.890468 -0.061101
  6 18.045721 -0.000000 -0.000001 0.000000 0.000000 -0.965881
  7 17.597593 0.000000 -0.000000 -0.126153 -0.064387 0.131283
  8 1.293338 0.684453 -0.000001 -0.069732 0.002492 0.035681
  9 5.309647 -0.003832 -0.000000 0.000000 0.000000 0.048000
 10 4.826592 -0.004567 -0.000000 -0.078283 0.005789 0.072832
 11 5.792761 -0.005304 -0.000000 0.000000 -0.000000 0.057309
 12 6.661936 -0.000705 0.000000 -0.000000 -0.000001 0.182920
 13 2.044495 -0.000000 -0.000000 0.126874 -0.105978 0.363577
 14 -3.412807 0.571072 4.341911 -0.000013 -1.370798 2.957821
 15 -3.147244 0.527704 -4.140396 -0.000013 1.370795 2.957786
 16 4.827231 0.000000 0.000001 -0.518526 0.737269 -0.750583
 17 11.139763 -0.000000 -0.000000 0.000000 -0.000000 -0.287179
 18 8.575572 -8.394946 9.511936 -1.535143 -1.058019 1.499774
 19 -1.465386 0.506167 4.002137 0.034889 -0.200000 -0.000001
 20 4.972047 0.000000 0.000001 0.524809 -0.769900 -1.001113
 21 -9.249866 0.683183 -1.946118 -0.000014 -1.670796 0.000014
 22 10.313008 -0.000000 0.000000 -1.570000 0.000000 -0.069778
 23 1.646738 0.449549 -1.702246 0.154002 0.442277 0.277235
 24 0.928314 0.000000 0.000000 0.000000 0.000000 0.000000
 25 0.928314 -0.000000 -0.000000 0.000000 0.000000 0.000000
 26 2.975832 -0.386307 -0.044144 -0.000797 -0.043611 0.000035
 27 1.438890 0.000003 0.000001 -0.000000 -0.000000 0.793722
 28 1.485299 -0.000005 -0.000000 0.000000 -0.000000 1.465316
 29 11.585355 0.000000 0.000001 0.000000 0.000000 -0.566317
 30 10.125607 -0.000000 0.000001 1.569752 0.000000 -0.069778
 31 1.533671 0.109715 1.664491 -0.233255 -0.412980 0.435685
 32 0.928314 -0.000001 0.000000 0.000000 0.000000 0.000000
 33 2.683748 -0.427340 0.044205 0.001045 0.043611 0.000046
 34 1.438886 0.000003 0.000000 0.000000 0.000000 1.099000
 35 2.027418 0.730720 12.541074 -1.531161 -0.031283 2.992741
time 9
  0 0.235348 -0.235348 -6.404970 0.000000 -2.364691 -1.570829
  1 -1.320354 0.156255 0.000000 -1.570795 -1.570787 0.000000
  2 -0.000005 0.000007 3.713254 -0.401465 -2.826951 -0.906630
  3 18.045725 0.000000 0.000000 -0.000000 -0.000000 -0.405431
  4 17.597599 0.000000 0.000000 0.427596 0.018851 -0.092842
  5 0.000005 -0.000003 -3.713254 0.371609 2.827606 -0.271257
  6 18.045721 -0.000000 -0.000001 0.000000 0.000000 -0.738912
  7 17.597593 0.000000 -0.000000 -0.227950 0.012810 0.276669
  8 1.293338 0.684453 -0.000001 -0.069601 0.005021 0.071920
  9 5.309647 -0.003832 -0.000000 0.000000 0.000000 0.100156
 10 4.826592 -0.004567 -0.000000 -0.077960 0.009192 0.116391
 11 5.792761 -0.005304 -0.000000 0.000000 -0.000000 0.100163
 12 6.661936 -0.000705 0.000000 -0.000000 -0.000001 0.256313
 13 2.044495 -0.000000 -0.000000 0.099829 -0.131442 0.383121
 14 -3.362025 0.821079 4.341911 -0.000013 -1.370798 2.884476
 15 -3.100368 0.758179 -4.140396 -0.000013 1.370795 2.884443
 16 4.827231 0.000000 0.000001 -0.781418 0.454735 -1.070611
 17 11.139763 -0.000000 -0.000000 0.000000 -0.000000 -0.287179
 18 8.575572 -8.394946 9.511936 -1.535143 -1.058019 1.499774
 19 -1.465386 0.506167 4.002137 0.034889 -0.200000 -0.000001
 20 4.972047 0.000000 0.000001 0.742540 -0.465190 -1.299993
 21 -9.249866 0.683183 -1.946118 -0.000014 -1.670796 0.000014
 22 10.313008 -0.000000 0.000000 -1.570000 0.000000 -0.069778
 23 1.646738 0.449549 -1.702246 0.154002 0.442277 0.277235
 24 0.928314 0.000000 0.000000 0.000000 0.000000 0.000000
 25 0.928314 -0.000000 -0.000000 0.000000 0.000000 0.000000
 26 2.975832 -0.386307 -0.044144 -0.000797 -0.043611 0.000035
 27 1.438890 0.000003 0.000001 -0.000000 -0.000000 0.793722
 28 1.485299 -0.000005 -0.000000 0.000000 -0.000000 1.465316
 29 11.585355 0.000000 0.000001 0.000000 0.000000 -0.566317
 30 10.125607 -0.000000 0.000001 1.569752 0.000000 -0.069778
 31 1.533671 0.109715 1.664491 -0.233255 -0.412980 0.435685
 32 0.928314 -0.000001 0.000000 0.000000 0.000000 0.000000
 33 2.683748 -0.427340 0.044205 0.001045 0.043611 0.000046
 34 1.438886 0.000003 0.000000 0.000000 0.000000 1.099000
 35 2.027418 0.730720 12.541074 -1.531161 -0.031283 2.992741
time 10
  0 0.235348 -0.235348 -8.893327 0.000000 -2.473353 -1.570829
  1 -2.043032 0.218757 0.000000 -1.570795 -1.570787 0.000000
  2 -0.000005 0.000007 3.713254 -0.496739 -2.802314 -0.779495
  3 18.045725 0.000000 0.000000 -0.000000 -0.000000 -0.354671
  4 17.597599 0.000000 0.000000 0.481407 -0.081028 0.097802
  5 0.000005 -0.000003 -3.713254 0.377636 2.763440 -0.517173
  6 18.045721 -0.000000 -0.000001 0.000000 0.000000 -0.513319
  7 17.597593 0.000000 -0.000000 -0.276330 0.137056 0.352690
  8 1.293338 0.684453 -0.000001 -0.069391 0.007334 0.105201
  9 5.309647 -0.003832 -0.000000 0.000000 0.000000 0.148277
 10 4.826592 -0.004567 -0.000000 -0.077528 0.012320 0.156507
 11 5.792761 -0.005304 -0.000000 0.000000 -0.000000 0.139550
 12 6.661936 -0.000705 0.000000 -0.000000 -0.000001 0.322727
 13 2.044495 -0.000000 -0.000000 0.075369 -0.146190 0.368179
 14 -3.299523 1.043742 4.341911 -0.000013 -1.370798 2.818033
 15 -3.041772 0.961311 -4.140396 -0.000013 1.370795 2.818003
 16 4.827231 0.000000 0.000001 -0.930304 0.104035 -1.292627
 17 11.139763 -0.000000 -0.000000 0.000000 -0.000000 -0.287179
 18 8.575572 -8.394946 9.511936 -1.535143 -1.058019 1.499774
 19 -1.465386 0.506167 4.002137 0.034889 -0.200000 -0.000001
 20 4.972047 0.000000 0.000001 0.819638 -0.111249 -1.469322
 21 -9.249866 0.683183 -1.946118 -0.000014 -1.670796 0.000014
 22 10.313008 -0.000000 0.000000 -1.570000 0.000000 -0.069778
 23 1.646738 0.449549 -1.702246 0.154002 0.442277 0.277235
 24 0.928314 0.000000 0.000000 0.000000 0.000000 0.000000
 25 0.928314 -0.000000 -0.000000 0.000000 0.000000 0.000000
 26 2.975832 -0.386307 -0.044144 -0.000797 -0.043611 0.000035
 27 1.438890 0.000003 0.000001 -0.000000 -0.000000 0.793722
 28 1.485299 -0.000005 -0.000000 0.000000 -0.000000 1.465316
 29 11.585355 0.000000 0.000001 0.000000 0.000000 -0.566317
 30 10.125607 -0.000000 0.000001 1.569752 0.000000 -0.069778
 31 1.533671 0.109715 1.664491 -0.233255 -0.412980 0.435685
 32 0.928314 -0.000001 0.000000 0.000000 0.000000 0.000000
 33 2.683748 -0.427340 0.044205 0.001045 0.043611 0.000046
 34 1.438886 0.000003 0.000000 0.000000 0.000000 1.099000
 35 2.027418 0.730720 12.541074 -1.531161 -0.031283 2.992741
time 11
  0 0.235348 -0.235348 -10.655100 0.000000 -2.580771 -1.570829
  1 -2.043032 0.218757 0.000000 -1.570795 -1.570787 0.000000
  2 -0.000005 0.000007 3.713254 -0.461946 -2.781512 -0.984232
  3 18.045725 0.000000 0.000000 -0.000000 -0.000000 -0.304133
  4 17.597599 0.000000 0.000000 0.457565 -0.175263 0.203899
  5 0.000005 -0.000003 -3.713254 0.317175 2.731962 -0.858355
  6 18.045721 -0.000000 -0.000001 0.000000 0.000000 -0.290841
  7 17.597593 0.000000 -0.000000 -0.267775 0.195809 0.280478
  8 1.293338 0.684453 -0.000001 -0.069391 0.007334 0.105201
  9 5.309647 -0.003832 -0.000000 0.000000 0.000000 0.148277
 10 4.826592 -0.004567 -0.000000 -0.077528 0.012320 0.156507
 11 5.792761 -0.005304 -0.000000 0.000000 -0.000000 0.139550
 12 6.661936 -0.000705 0.000000 -0.000000 -0.000001 0.322727
 13 2.044495 -0.000000 -0.000000 0.078484 -0.144546 0.346901
 14 -3.299523 1.043742 4.341911 -0.000013 -1.370798 2.818033
 15 -3.041772 0.961311 -4.140396 -0.000013 1.370795 2.818003
 16 4.827231 0.000000 0.000001 -1.041595 -0.197817 -1.470100
 17 11.139763 -0.000000 -0.000000 0.000000 -0.000000 -0.287179
 18 8.575572 -8.394946 9.511936 -1.535143 -1.058019 1.499774
 19 -1.465386 0.506167 4.002137 0.034889 -0.200000 -0.000001
 20 4.972047 0.000000 0.000001 0.825304 0.156700 -1.483361
 21 -9.249866 0.683183 -1.946118 -0.000014 -1.670796 0.000014
 22 10.313008 -0.000000 0.000000 -1.570000 0.000000 -0.069778
 23 1.646738 0.449549 -1.702246 0.154002 0.442277 0.277235
 24 0.928314 0.000000 0.000000 0.000000 0.000000 0.000000
 25 0.928314 -0.000000 -0.000000 0.000000 0.000000 0.000000
 26 2.975832 -0.386307 -0.044144 -0.000797 -0.043611 0.000035
 27 1.438890 0.000003 0.000001 -0.000000 -0.000000 0.793722
 28 1.485299 -0.000005 -0.000000 0.000000 -0.000000 1.465316
 29 11.585355 0.000000 0.000001 0.000000 0.000000 -0.550393
 30 10.125607 -0.000000 0.000001 1.569752 -0.042817 -0.069778
 31 1.533671 0.109715 1.664491 -0.233255 -0.412980 0.435685
 32 0.928314 -0.000001 0.000000 0.000000 0.000000 0.000000
 33 2.683748 -0.427340 0.044205 0.001045 0.043611 0.000046
 34 1.438886 0.000003 0.000000 0.000000 0.000000 1.099000
 35 2.027418 0.730720 12.541074 -1.531161 -0.031283 2.992741
time 12
  0 0.235348 -0.235348 -10.912920 0.000000 -2.687387 -1.570829
  1 -2.043032 0.218757 0.000000 -1.570795 -1.570787 0.000000
  2 -0.000005 0.000007 3.713254 -0.385650 -2.777965 -1.262976
  3 18.045725 0.000000 0.000000 -0.000000 -0.000000 -0.265321
  4 17.597599 0.000000 0.000000 0.406803 -0.228438 0.267584
  5 0.000005 -0.000003 -3.713254 0.211465 2.766234 -1.258896
  6 18.045721 -0.000000 -0.000001 0.000000 0.000000 -0.097124
  7 17.597593 0.000000 -0.000000 -0.260650 0.144570 0.054449
  8 1.293338 0.684453 -0.000001 -0.069391 0.007334 0.105201
  9 5.309647 -0.003832 -0.000000 0.000000 0.000000 0.148277
 10 4.826592 -0.004567 -0.000000 -0.077528 0.012320 0.156507
 11 5.792761 -0.005304 -0.000000 0.000000 -0.000000 0.139550
 12 6.661936 -0.000705 0.000000 -0.000000 -0.000001 0.322727
 13 2.044495 -0.000000 -0.000000 0.129923 -0.100957 -0.066919
 14 -3.299523 1.043742 4.341911 -0.000013 -1.370798 2.818033
 15 -3.041772 0.961311 -4.140396 -0.000013 1.370795 2.818003
 16 4.827231 0.000000 0.000001 -1.228424 -0.662467 -1.639171
 17 11.139763 -0.000000 -0.000000 0.000000 -0.000000 -0.287179
 18 8.575572 -8.394946 9.511936 -1.535143 -1.058019 1.499774
 19 -1.465386 0.506167 4.002137 0.034889 -0.200000 -0.000001
 20 4.972047 0.000000 0.000001 0.876672 0.523832 -1.301553
 21 -9.249866 0.683183 -1.946118 -0.000014 -1.670796 0.000014
 22 10.313008 -0.000000 0.000000 -1.570000 0.000000 -0.069778
 23 1.646738 0.449549 -1.702246 0.154002 0.442277 0.277235
 24 0.928314 0.000000 0.000000 0.000000 0.000000 0.000000
 25 0.928314 -0.000000 -0.000000 0.000000 0.000000 0.000000
 26 2.975832 -0.386307 -0.044144 -0.000797 -0.043611 0.000035
 27 1.438890 0.000003 0.000001 -0.000000 -0.000000 0.793722
 28 1.485299 -0.000005 -0.000000 0.000000 -0.000000 1.465316
 29 11.585355 0.000000 0.000001 0.000000 0.000000 -0.516126
 30 10.125607 -0.000000 0.000001 1.569752 -0.136104 -0.069778
 31 1.533671 0.109715 1.664491 -0.233255 -0.412980 0.435685
 32 0.928314 -0.000001 0.000000 0.000000 0.000000 0.000000
 33 2.683748 -0.427340 0.044205 0.001045 0.043611 0.000046
 34 1.438886 0.000003 0.000000 0.000000 0.000000 1.099000
 35 2.027418 0.730720 12.541074 -1.531161 -0.031283 2.992741
time 13
  0 0.235348 -0.235348 -10.850418 0.000000 -2.782356 -1.570829
  1 -2.043032 0.218757 0.000000 -1.570795 -1.570787 0.000000
  2 -0.000005 0.000007 3.713254 -0.315201 -2.767229 -1.501851
  3 18.045725 0.000000 0.000000 -0.000000 -0.000000 -0.241277
  4 17.597599 0.000000 0.000000 0.370886 -0.252506 0.250245
  5 0.000005 -0.000003 -3.713254 0.134742 2.803672 -1.564123
  6 18.045721 -0.000000 -0.000001 0.000000 0.000000 0.018715
  7 17.597593 0.000000 -0.000000 -0.262715 0.097639 -0.159416
  8 1.293338 0.684453 -0.000001 -0.069391 0.007334 0.105201
  9 5.309647 -0.003832 -0.000000 0.000000 0.000000 0.148277
 10 4.826592 -0.004567 -0.000000 -0.077528 0.012320 0.156507
 11 5.792761 -0.005304 -0.000000 0.000000 -0.000000 0.139550
 12 6.661936 -0.000705 0.000000 -0.000000 -0.000001 0.322727
 13 2.044495 -0.000000 -0.000000 0.159620 -0.039379 -0.484142
 14 -3.299523 1.043742 4.341911 -0.000013 -1.370798 2.818033
 15 -3.041772 0.961311 -4.140396 -0.000013 1.370795 2.818003
 16 4.827231 0.000000 0.000001 -1.483956 -1.102863 -1.678726
 17 11.139763 -0.000000 -0.000000 0.000000 -0.000000 -0.287179
 18 8.575572 -8.394946 9.511936 -1.535143 -1.058019 1.499774
 19 -1.465386 0.506167 4.002137 0.034889 -0.200000 -0.000001
 20 4.972047 0.000000 0.000001 1.036905 0.848814 -0.946360
 21 -9.249866 0.683183 -1.946118 -0.000014 -1.670796 0.000014
 22 10.313008 -0.000000 0.000000 -1.570000 0.000000 -0.069778
 23 1.646738 0.449549 -1.702246 0.154002 0.442277 0.277235
 24 0.928314 0.000000 0.000000 0.000000 0.000000 0.000000
 25 0.928314 -0.000000 -0.000000 0.000000 0.000000 0.000000
 26 2.975832 -0.386307 -0.044144 -0.000797 -0.043611 0.000035
 27 1.438890 0.000003 0.000001 -0.000000 -0.000000 0.793722
 28 1.485299 -0.000005 -0.000000 0.000000 -0.000000 1.465316
 29 11.585355 0.000000 0.000001 0.000000 0.000000 -0.474546
 30 10.125607 -0.000000 0.000001 1.569752 -0.226734 -0.069778
 31 1.533671 0.109715 1.664491 -0.233255 -0.412980 0.435685
 32 0.928314 -0.000001 0.000000 0.000000 0.000000 0.000000
 33 2.683748 -0.427340 0.044205 0.001045 0.043611 0.000046
 34 1.438886 0.000003 0.000000 0.000000 0.000000 1.099000
 35 2.027418 0.730720 12.541074 -1.531161 -0.031283 2.992741
time 14
  0 0.235348 -0.235348 -14.377870 0.000000 -2.782356 -1.570829
  1 -2.367261 0.273446 0.000000 -1.570795 -1.570787 0.000000
  2 -0.000005 0.000007 3.713254 2.899860 -0.424666 1.370139
  3 18.045725 0.000000 0.000000 -0.000000 -0.000000 -0.241277
  4 17.597599 0.000000 0.000000 0.400677 -0.228659 -0.009255
  5 0.000005 -0.000003 -3.713254 -3.075688 0.336121 1.276684
  6 18.045721 -0.000000 -0.000001 0.000000 0.000000 0.018715
  7 17.597593 0.000000 -0.000000 -0.284046 0.060000 -0.443200
  8 1.293338 0.684453 -0.000001 -0.069391 0.007334 0.105201
  9 5.309647 -0.003832 -0.000000 0.000000 0.000000 0.148277
 10 4.826592 -0.004567 -0.000000 -0.076546 0.017414 0.222486
 11 5.792761 -0.005304 -0.000000 0.000000 -0.000000 0.302828
 12 6.661936 -0.000705 0.000000 -0.000000 -0.000001 0.322727
 13 2.044495 -0.000000 -0.000000 0.059128 -0.153440 0.247515
 14 -3.299523 1.043742 4.341911 -0.000013 -1.370798 2.818033
 15 -3.041772 0.961311 -4.140396 -0.000013 1.370795 2.818003
 16 4.827231 0.000000 0.000001 -1.494559 -1.124904 -1.752061
 17 11.139763 -0.000000 -0.000000 0.000000 -0.000000 -0.287179
 18 8.575572 -8.394946 9.511936 -1.535143 -1.058019 1.499774
 19 -1.465386 0.506167 4.002137 0.034889 -0.200000 -0.000001
 20 4.972047 0.000000 0.000001 1.040341 1.099468 -0.738891
 21 -9.249866 0.683183 -1.946118 -0.000014 -1.670796 0.000014
 22 10.313008 -0.000000 0.000000 -1.570000 0.000000 -0.069778
 23 1.646738 0.449549 -1.702246 0.154002 0.442277 0.277235
 24 0.928314 0.000000 0.000000 0.000000 0.000000 0.000000
 25 0.928314 -0.000000 -0.000000 0.000000 0.000000 0.000000
 26 2.975832 -0.386307 -0.044144 -0.000797 -0.043611 0.000035
 27 1.438890 0.000003 0.000001 -0.000000 -0.000000 0.793722
 28 1.485299 -0.000005 -0.000000 0.000000 -0.000000 1.465316
 29 11.585355 0.000000 0.000001 0.000000 0.000000 -0.438805
 30 10.125607 -0.000000 0.000001 1.569752 -0.138507 -0.069778
 31 1.533671 0.109715 1.664491 -0.233255 -0.412980 0.435685
 32 0.928314 -0.000001 0.000000 0.000000 0.000000 0.000000
 33 2.683748 -0.427340 0.044205 0.001045 0.043611 0.000046
 34 1.438886 0.000003 0.000000 0.000000 0.000000 1.099000
 35 2.027418 0.730720 12.541074 -1.531161 -0.031283 2.992741
time 15
  0 0.235348 -0.235348 -15.936511 0.000000 -2.782356 -1.570829
  1 -2.742272 0.335948 0.000000 -1.570795 -1.570787 0.000000
  2 -0.000005 0.000007 3.713254 2.999255 -0.477677 1.074787
  3 18.045725 0.000000 0.000000 -0.000000 -0.000000 -0.241277
  4 17.597599 0.000000 0.000000 0.429451 -0.218167 -0.286460
  5 0.000005 -0.000003 -3.713254 3.132125 0.336959 0.989240
  6 18.045721 -0.000000 -0.000001 0.000000 0.000000 0.018715
  7 17.597593 0.000000 -0.000000 -0.297343 0.043638 -0.715078
  8 1.293338 0.684453 -0.000001 -0.069391 0.007334 0.105201
  9 5.309647 -0.003832 -0.000000 0.000000 0.000000 0.148277
 10 4.826592 -0.004567 -0.000000 -0.074640 0.024317 0.313561
 11 5.792761 -0.005304 -0.000000 0.000000 -0.000000 0.528935
 12 6.661936 -0.000705 0.000000 -0.000000 -0.000001 0.322727
 13 2.044495 -0.000000 -0.000000 0.007093 -0.164224 0.256453
 14 -3.299523 1.043742 4.341911 -0.000013 -1.370798 2.818033
 15 -3.041772 0.961311 -4.140396 -0.000013 1.370795 2.818003
 16 4.827231 0.000000 0.000001 -1.128963 -1.393057 -2.149012
 17 11.139763 -0.000000 -0.000000 0.000000 -0.000000 -0.287179
 18 8.575572 -8.394946 9.511936 -1.535143 -1.058019 1.499774
 19 -1.465386 0.506167 4.002137 0.034889 -0.200000 -0.000001
 20 4.972047 0.000000 0.000001 1.746481 1.299766 -0.393292
 21 -9.249866 0.683183 -1.946118 -0.000014 -1.670796 0.000014
 22 10.313008 -0.000000 0.000000 -1.570000 0.000000 -0.069778
 23 1.646738 0.449549 -1.702246 0.154002 0.442277 0.277235
 24 0.928314 0.000000 0.000000 0.000000 0.000000 0.000000
 25 0.928314 -0.000000 -0.000000 0.000000 0.000000 0.000000
 26 2.975832 -0.386307 -0.044144 -0.000797 -0.043611 0.000035
 27 1.438890 0.000003 0.000001 -0.000000 -0.000000 0.793722
 28 1.485299 -0.000005 -0.000000 0.000000 -0.000000 1.465316
 29 11.585355 0.000000 0.000001 0.000000 0.000000 -0.409316
 30 10.125607 -0.000000 0.000001 1.569752 0.000000 -0.069778
 31 1.533671 0.109715 1.664491 -0.233255 -0.412980 0.435685
 32 0.928314 -0.000001 0.000000 0.000000 0.000000 0.000000
 33 2.683748 -0.427340 0.044205 0.001045 0.043611 0.000046
 34 1.438886 0.000003 0.000000 0.000000 0.000000 1.099000
 35 2.027418 0.730720 12.541074 -1.531161 -0.031283 2.992741
time 16
  0 0.235348 -0.235348 -17.167017 0.000000 -2.782356 -1.570829
  1 -2.910246 0.363292 0.000000 -1.570795 -1.570787 0.000000
  2 -0.000005 0.000007 3.713254 3.088012 -0.493973 0.914533
  3 18.045725 0.000000 0.000000 -0.000000 -0.000000 -0.241277
  4 17.597599 0.000000 0.000000 0.419080 -0.227860 -0.426778
  5 0.000005 -0.000003 -3.713254 3.082474 0.342081 0.897222
  6 18.045721 -0.000000 -0.000001 0.000000 0.000000 0.018715
  7 17.597593 0.000000 -0.000000 -0.288834 0.062364 -0.801156
  8 1.293338 0.684453 -0.000001 -0.069391 0.007334 0.105201
  9 5.309647 -0.003832 -0.000000 0.000000 0.000000 0.148277
 10 4.826592 -0.004567 -0.000000 -0.073286 0.028128 0.365107
 11 5.792761 -0.005304 -0.000000 0.000000 -0.000000 0.672177
 12 6.661936 -0.000705 0.000000 -0.000000 -0.000001 0.322727
 13 2.044495 -0.000000 -0.000000 -0.018229 -0.163346 0.216765
 14 -3.299523 1.043742 4.341911 -0.000013 -1.370798 2.818033
 15 -3.041772 0.961311 -4.140396 -0.000013 1.370795 2.818003
 16 4.827231 0.000000 0.000001 0.225900 -1.465903 2.771043
 17 11.139763 -0.000000 -0.000000 0.000000 -0.000000 -0.287179
 18 8.575572 -8.394946 9.511936 -1.535143 -1.058019 1.499774
 19 -1.465386 0.506167 4.002137 0.034889 -0.200000 -0.000001
 20 4.972047 0.000000 0.000001 2.419460 1.367015 0.509198
 21 -9.249866 0.683183 -1.946118 -0.000014 -1.670796 0.000014
 22 10.313008 -0.000000 0.000000 -1.570000 0.000000 -0.069778
 23 1.646738 0.449549 -1.702246 0.154002 0.442277 0.277235
 24 0.928314 0.000000 0.000000 0.000000 0.000000 0.000000
 25 0.928314 -0.000000 -0.000000 0.000000 0.000000 0.000000
 26 2.975832 -0.386307 -0.044144 -0.000797 -0.043611 0.000035
 27 1.438890 0.000003 0.000001 -0.000000 -0.000000 0.793722
 28 1.485299 -0.000005 -0.000000 0.000000 -0.000000 1.465316
 29 11.585355 0.000000 0.000001 0.000000 0.000000 -0.449067
 30 10.125607 -0.000000 0.000001 1.569752 -0.177340 -0.069778
 31 1.533671 0.109715 1.664491 -0.233255 -0.412980 0.435685
 32 0.928314 -0.000001 0.000000 0.000000 0.000000 0.000000
 33 2.683748 -0.427340 0.044205 0.001045 0.043611 0.000046
 34 1.438886 0.000003 0.000000 0.000000 0.000000 1.099000
 35 2.027418 0.730720 12.541074 -1.531161 -0.031283 2.992741
time 17
  0 0.235348 -0.235348 -18.233456 0.000000 -2.782356 -1.570829
  1 -2.918059 0.367199 0.000000 -1.570795 -1.570787 0.000000
  2 -0.000005 0.000007 3.713254 3.134211 -0.484579 0.927159
  3 18.045725 0.000000 0.000000 -0.000000 -0.000000 -0.241277
  4 17.597599 0.000000 0.000000 0.370886 -0.252506 -0.403857
  5 0.000005 -0.000003 -3.713254 3.068794 0.355864 0.983086
  6 18.045721 -0.000000 -0.000001 0.000000 0.000000 0.018715
  7 17.597593 0.000000 -0.000000 -0.262715 0.097639 -0.717629
  8 1.293338 0.684453 -0.000001 -0.069391 0.007334 0.105201
  9 5.309647 -0.003832 -0.000000 0.000000 0.000000 0.148277
 10 4.826592 -0.004567 -0.000000 -0.073286 0.028140 0.365290
 11 5.792761 -0.005304 -0.000000 0.000000 -0.000000 0.697778
 12 6.661936 -0.000705 0.000000 -0.000000 -0.000001 0.322727
 13 2.044495 -0.000000 -0.000000 -0.014053 -0.163774 0.165538
 14 -3.299523 1.043742 4.341911 -0.000013 -1.370798 2.818033
 15 -3.041772 0.961311 -4.140396 -0.000013 1.370795 2.818003
 16 4.827231 0.000000 0.000001 0.293025 -1.462073 2.712586
 17 11.139763 -0.000000 -0.000000 0.000000 -0.000000 -0.287179
 18 8.575572 -8.394946 9.511936 -1.535143 -1.058019 1.499774
 19 -1.465386 0.506167 4.002137 0.034889 -0.200000 -0.000001
 20 4.972047 0.000000 0.000001 2.230432 1.297353 0.446723
 21 -9.249866 0.683183 -1.946118 -0.000014 -1.670796 0.000014
 22 10.313008 -0.000000 0.000000 -1.570000 0.000000 -0.069778
 23 1.646738 0.449549 -1.702246 0.154002 0.442277 0.277235
 24 0.928314 0.000000 0.000000 0.000000 0.000000 0.000000
 25 0.928314 -0.000000 -0.000000 0.000000 0.000000 0.000000
 26 2.975832 -0.386307 -0.044144 -0.000797 -0.043611 0.000035
 27 1.438890 0.000003 0.000001 -0.000000 -0.000000 0.793722
 28 1.485299 -0.000005 -0.000000 0.000000 -0.000000 1.465316
 29 11.585355 0.000000 0.000001 0.000000 0.000000 -0.487462
 30 10.125607 -0.000000 0.000001 1.569752 -0.279860 -0.069778
 31 1.533671 0.109715 1.664491 -0.233255 -0.412980 0.435685
 32 0.928314 -0.000001 0.000000 0.000000 0.000000 0.000000
 33 2.683748 -0.427340 0.044205 0.001045 0.043611 0.000046
 34 1.438886 0.000003 0.000000 0.000000 0.000000 1.099000
 35 2.027418 0.730720 12.541074 -1.531161 -0.031283 2.992741
time 18
  0 0.235348 -0.235348 -18.999104 0.000000 -2.729270 -1.570829
  1 -3.019624 0.398450 0.000000 -1.570795 -1.570787 0.000000
  2 -0.000005 0.000007 3.713254 -3.128080 -0.467899 1.036520
  3 18.045725 0.000000 0.000000 -0.000000 -0.000000 -0.323725
  4 17.597599 0.000000 0.000000 0.390637 -0.186443 -0.420144
  5 0.000005 -0.000003 -3.713254 3.073960 0.372814 1.132865
  6 18.045721 -0.000000 -0.000001 0.000000 0.000000 0.005965
  7 17.597593 0.000000 -0.000000 -0.246581 0.090242 -0.731753
  8 1.293338 0.684453 -0.000001 -0.069234 0.008640 0.124064
  9 5.309647 -0.003832 -0.000000 0.000000 0.006088 0.148277
 10 4.826592 -0.004567 -0.000000 -0.073873 0.026558 0.343822
 11 5.792761 -0.005304 -0.000000 0.000000 -0.000000 0.670454
 12 6.661936 -0.000705 0.000000 -0.000000 -0.000001 0.216499
 13 2.044495 -0.000000 -0.000000 0.018693 -0.163954 0.073155
 14 -3.393275 0.688263 4.341911 -0.000013 -1.370798 2.924264
 15 -3.127712 0.633176 -4.140396 -0.000013 1.370795 2.924230
 16 4.827231 0.000000 0.000001 0.084989 -1.491859 2.895484
 17 11.139763 -0.000000 -0.000000 0.000000 -0.000000 -0.405754
 18 8.575572 -8.394946 9.511936 -1.535143 -1.058019 1.499774
 19 -1.465386 0.506167 4.002137 0.034889 -0.200000 -0.000001
 20 4.972047 0.000000 0.000001 2.130297 1.225117 0.330120
 21 -9.249866 0.683183 -1.946118 -0.000014 -1.670796 0.000014
 22 10.313008 -0.000000 0.000000 -1.570000 0.000000 -0.069778
 23 1.646738 0.449549 -1.702246 0.154002 0.442277 0.277235
 24 0.928314 0.000000 0.000000 0.000000 0.000000 0.000000
 25 0.928314 -0.000000 -0.000000 0.000000 0.000000 0.000000
 26 2.975832 -0.386307 -0.044144 -0.000797 -0.043611 0.000035
 27 1.438890 0.000003 0.000001 -0.000000 -0.000000 0.793722
 28 1.485299 -0.000005 -0.000000 0.000000 -0.000000 1.465316
 29 11.585355 0.000000 0.000001 0.000000 0.000000 -0.495661
 30 10.125607 -0.000000 0.000001 1.569752 -0.261962 -0.069778
 31 1.533671 0.109715 1.664491 -0.233255 -0.412980 0.435685
 32 0.928314 -0.000001 0.000000 0.000000 0.000000 0.000000
 33 2.683748 -0.427340 0.044205 0.001045 0.043611 0.000046
 34 1.438886 0.000003 0.000000 0.000000 0.000000 1.099000
 35 2.027418 0.730720 12.541074 -1.531161 -0.031283 2.992741
time 19
  0 0.235348 -0.235348 -19.620216 0.000000 -2.668892 -1.570829
  1 -3.113377 0.433607 0.000000 -1.570795 -1.570787 0.000000
  2 -0.000005 0.000007 3.713254 -3.113511 -0.450261 1.187450
  3 18.045725 0.000000 0.000000 -0.000000 -0.000000 -0.418195
  4 17.597599 0.000000 0.000000 0.401694 -0.115864 -0.415386
  5 0.000005 -0.000003 -3.713254 3.088501 0.391160 1.317969
  6 18.045721 -0.000000 -0.000001 0.000000 0.000000 -0.008235
  7 17.597593 0.000000 -0.000000 -0.228109 0.086380 -0.733639
  8 1.293338 0.684453 -0.000001 -0.069025 0.010126 0.145528
  9 5.309647 -0.003832 -0.000000 0.000000 0.013039 0.148277
 10 4.826592 -0.004567 -0.000000 -0.074640 0.024305 0.313524
 11 5.792761 -0.005304 -0.000000 0.000000 -0.000000 0.623717
 12 6.661936 -0.000705 0.000000 -0.000000 -0.000001 0.071839
 13 2.044495 -0.000000 -0.000000 0.068873 -0.151301 -0.072456
 14 -3.455777 0.192154 4.341911 -0.000013 -1.370798 3.068941
 15 -3.186308 0.176130 -4.140396 -0.000013 1.370795 3.068903
 16 4.827231 0.000000 0.000001 -0.590821 -1.528452 -2.753889
 17 11.139763 -0.000000 -0.000000 0.000000 -0.000000 -0.557687
 18 8.575572 -8.394946 9.511936 -1.535143 -1.058019 1.499774
 19 -1.465386 0.506167 4.002137 0.034889 -0.200000 -0.000001
 20 4.972047 0.000000 0.000001 2.016695 1.150548 0.204546
 21 -9.249866 0.683183 -1.946118 -0.000014 -1.670796 0.000014
 22 10.313008 -0.000000 0.000000 -1.570000 0.000000 -0.069778
 23 1.646738 0.449549 -1.702246 0.154002 0.442277 0.277235
 24 0.928314 0.000000 0.000000 0.000000 0.000000 0.000000
 25 0.928314 -0.000000 -0.000000 0.000000 0.000000 0.000000
 26 2.975832 -0.386307 -0.044144 -0.000797 -0.043611 0.000035
 27 1.438890 0.000003 0.000001 -0.000000 -0.000000 0.793722
 28 1.485299 -0.000005 -0.000000 0.000000 -0.000000 1.465316
 29 11.585355 0.000000 0.000001 0.000000 0.000000 -0.503151
 30 10.125607 -0.000000 0.000001 1.569752 -0.238624 -0.069778
 31 1.533671 0.109715 1.664491 -0.233255 -0.412980 0.435685
 32 0.928314 -0.000001 0.000000 0.000000 0.000000 0.000000
 33 2.683748 -0.427340 0.044205 0.001045 0.043611 0.000046
 34 1.438886 0.000003 0.000000 0.000000 0.000000 1.099000
 35 2.027418 0.730720 12.541074 -1.531161 -0.031283 2.992741
time 20
  0 0.235348 -0.235348 -20.186640 0.000000 -2.609314 -1.570829
  1 -3.195411 0.464858 0.000000 -1.570795 -1.570787 0.000000
  2 -0.000005 0.000007 3.713254 -3.101338 -0.434252 1.346733
  3 18.045725 0.000000 0.000000 -0.000000 -0.000000 -0.511849
  4 17.597599 0.000000 0.000000 0.400804 -0.050103 -0.403582
  5 0.000005 -0.000003 -3.713254 3.108591 0.405968 1.505737
  6 18.045721 -0.000000 -0.000001 0.000000 0.000000 -0.022072
  7 17.597593 0.000000 -0.000000 -0.210296 0.086216 -0.730053
  8 1.293338 0.684453 -0.000001 -0.068789 0.011588 0.166687
  9 5.309647 -0.003832 -0.000000 0.000000 0.019882 0.148277
 10 4.826592 -0.004567 -0.000000 -0.075383 0.021884 0.281176
 11 5.792761 -0.005304 -0.000000 0.000000 -0.000000 0.571021
 12 6.661936 -0.000705 0.000000 -0.000000 -0.000001 -0.058440
 13 2.044495 -0.000000 -0.000000 0.113285 -0.123810 -0.223469
 14 -3.447965 -0.260985 4.341911 -0.000013 -1.370798 3.199237
 15 -3.182401 -0.237945 -4.140396 -0.000013 1.370795 3.199194
 16 4.827231 0.000000 0.000001 -1.550468 -1.478923 -1.809731
 17 11.139763 -0.000000 -0.000000 0.000000 -0.000000 -0.719782
 18 8.575572 -8.394946 9.511936 -1.535143 -1.058019 1.499774
 19 -1.465386 0.506167 4.002137 0.034889 -0.200000 -0.000001
 20 4.972047 0.000000 0.000001 1.921019 1.081449 0.105726
 21 -9.249866 0.683183 -1.946118 -0.000014 -1.670796 0.000014
 22 10.313008 -0.000000 0.000000 -1.570000 0.000000 -0.069778
 23 1.646738 0.449549 -1.702246 0.154002 0.442277 0.277235
 24 0.928314 0.000000 0.000000 0.000000 0.000000 0.000000
 25 0.928314 -0.000000 -0.000000 0.000000 0.000000 0.000000
 26 2.975832 -0.386307 -0.044144 -0.000797 -0.043611 0.000035
 27 1.438890 0.000003 0.000001 -0.000000 -0.000000 0.793722
 28 1.485299 -0.000005 -0.000000 0.000000 -0.000000 1.465316
 29 11.585355 0.000000 0.000001 0.000000 0.000000 -0.509403
 30 10.125607 -0.000000 0.000001 1.569752 -0.216236 -0.069778
 31 1.533671 0.109715 1.664491 -0.233255 -0.412980 0.435685
 32 0.928314 -0.000001 0.000000 0.000000 0.000000 0.000000
 33 2.683748 -0.427340 0.044205 0.001045 0.043611 0.000046
 34 1.438886 0.000003 0.000000 0.000000 0.000000 1.099000
 35 2.027418 0.730720 12.541074 -1.531161 -0.031283 2.992741
time 21
  0 0.235348 -0.235348 -20.772596 0.000000 -2.553649 -1.570829
  1 -3.261819 0.496109 0.000000 -1.570795 -1.570787 0.000000
  2 -0.000005 0.000007 3.713254 -3.090028 -0.420160 1.504218
  3 18.045725 0.000000 0.000000 -0.000000 -0.000000 -0.601644
  4 17.597599 0.000000 0.000000 0.389569 0.007726 -0.391412
  5 0.000005 -0.000003 -3.713254 -0.010287 2.725723 -1.457810
  6 18.045721 -0.000000 -0.000001 0.000000 0.000000 -0.034749
  7 17.597593 0.000000 -0.000000 -0.194298 0.088908 -0.724137
  8 1.293338 0.684453 -0.000001 -0.068553 0.012954 0.186501
  9 5.309647 -0.003832 -0.000000 0.000017 0.026282 0.148277
 10 4.826592 -0.004567 -0.000000 -0.076042 0.019487 0.249633
 11 5.792761 -0.005304 -0.000000 0.000000 -0.000000 0.518284
 12 6.661936 -0.000705 0.000000 -0.000000 -0.000001 -0.144832
 13 2.044495 -0.000000 -0.000000 0.141789 -0.092987 -0.349137
 14 -3.412807 -0.557869 4.341911 -0.000013 -1.370798 3.285621
 15 -3.147244 -0.511391 -4.140396 -0.000013 1.370795 3.285576
 16 4.827231 0.000000 0.000001 -1.567381 -1.351442 -1.762387
 17 11.139763 -0.000000 -0.000000 0.000000 -0.000000 -0.876831
 18 8.575572 -8.394946 9.511936 -1.535143 -1.058019 1.499774
 19 -1.465386 0.506167 4.002137 0.034889 -0.200000 -0.000001
 20 4.972047 0.000000 0.000001 1.842064 1.020636 0.031630
 21 -9.249866 0.683183 -1.946118 -0.000014 -1.670796 0.000014
 22 10.313008 -0.000000 0.000000 -1.570000 0.000000 -0.069778
 23 1.646738 0.449549 -1.702246 0.154002 0.442277 0.277235
 24 0.928314 0.000000 0.000000 0.000000 0.000000 0.000000
 25 0.928314 -0.000000 -0.000000 0.000000 0.000000 0.000000
 26 2.975832 -0.386307 -0.044144 -0.000797 -0.043611 0.000035
 27 1.438890 0.000003 0.000001 -0.000000 -0.000000 0.793722
 28 1.485299 -0.000005 -0.000000 0.000000 -0.000000 1.465316
 29 11.585355 0.000000 0.000001 0.000000 0.000000 -0.514534
 30 10.125607 -0.000000 0.000001 1.569752 -0.196693 -0.069778
 31 1.533671 0.109715 1.664491 -0.233255 -0.412980 0.435685
 32 0.928314 -0.000001 0.000000 0.000000 0.000000 0.000000
 33 2.683748 -0.427340 0.044205 0.001045 0.043611 0.000046
 34 1.438886 0.000003 0.000000 0.000000 0.000000 1.099000
 35 2.027418 0.730720 12.541074 -1.531161 -0.031283 2.992741
time 22
  0 0.235348 -0.235348 -21.436678 0.000000 -2.501719 -1.570829
  1 -3.316509 0.523453 0.000000 -1.570795 -1.570787 0.000000
  2 -0.000005 0.000007 3.713254 0.063115 -2.734061 -1.480435
  3 18.045725 0.000000 0.000000 -0.000000 -0.000000 -0.689584
  4 17.597599 0.000000 0.000000 0.369717 0.057707 -0.381667
  5 0.000005 -0.000003 -3.713254 0.012864 2.720228 -1.290393
  6 18.045721 -0.000000 -0.000001 0.000000 0.000000 -0.046558
  7 17.597593 0.000000 -0.000000 -0.180206 0.093683 -0.717222
  8 1.293338 0.684453 -0.000001 -0.068318 0.014225 0.204971
  9 5.309647 -0.003832 -0.000000 0.000017 0.032251 0.148277
 10 4.826592 -0.004567 -0.000000 -0.076594 0.017186 0.219482
 11 5.792761 -0.005304 -0.000000 0.000000 -0.000000 0.467124
 12 6.661936 -0.000705 0.000000 -0.000000 -0.000001 -0.174444
 13 2.044495 -0.000000 -0.000000 0.155974 -0.071147 -0.432915
 14 -3.397182 -0.659435 4.341911 -0.000013 -1.370798 3.315247
 15 -3.131618 -0.605143 -4.140396 -0.000013 1.370795 3.315201
 16 4.827231 0.000000 0.000001 -1.439702 -1.155541 -1.808768
 17 11.139763 -0.000000 -0.000000 0.000000 -0.000000 -1.019864
 18 8.575572 -8.394946 9.511936 -1.535143 -1.058019 1.499774
 19 -1.465386 0.506167 4.002137 0.034889 -0.200000 -0.000001
 20 4.972047 0.000000 0.000001 1.774812 0.966901 -0.024917
 21 -9.249866 0.683183 -1.946118 -0.000014 -1.670796 0.000014
 22 10.313008 -0.000000 0.000000 -1.570000 0.000000 -0.069778
 23 1.646738 0.449549 -1.702246 0.154002 0.442277 0.277235
 24 0.928314 0.000000 0.000000 0.000000 0.000000 0.000000
 25 0.928314 -0.000000 -0.000000 0.000000 0.000000 0.000000
 26 2.975832 -0.386307 -0.044144 -0.000797 -0.043611 0.000035
 27 1.438890 0.000003 0.000001 -0.000000 -0.000000 0.793722
 28 1.485299 -0.000005 -0.000000 0.000000 -0.000000 1.465316
 29 11.585355 0.000000 0.000001 0.000000 0.000000 -0.518780
 30 10.125607 -0.000000 0.000001 1.569752 -0.179743 -0.069778
 31 1.533671 0.109715 1.664491 -0.233255 -0.412980 0.435685
 32 0.928314 -0.000001 0.000000 0.000000 0.000000 0.000000
 33 2.683748 -0.427340 0.044205 0.001045 0.043611 0.000046
 34 1.438886 0.000003 0.000000 0.000000 0.000000 1.099000
 35 2.027418 0.730720 12.541074 -1.531161 -0.031283 2.992741
time 23
  0 0.235348 -0.235348 -22.112480 0.000000 -2.451923 -1.570829
  1 -3.363385 0.550798 0.000000 -1.570795 -1.570787 0.000000
  2 -0.000005 0.000007 3.713254 0.075767 -2.745373 -1.317851
  3 18.045725 0.000000 0.000000 -0.000000 -0.000000 -0.779750
  4 17.597599 0.000000 0.000000 0.341731 0.100226 -0.375628
  5 0.000005 -0.000003 -3.713254 0.036493 2.718738 -1.127967
  6 18.045721 -0.000000 -0.000001 0.000000 0.000000 -0.057859
  7 17.597593 0.000000 -0.000000 -0.167544 0.100190 -0.709605
  8 1.293338 0.684453 -0.000001 -0.068056 0.015423 0.222669
  9 5.309647 -0.003832 -0.000000 0.000017 0.037979 0.148277
 10 4.826592 -0.004567 -0.000000 -0.077061 0.014921 0.190101
 11 5.792761 -0.005304 -0.000000 0.000000 -0.000000 0.416795
 12 6.661936 -0.000705 0.000000 -0.000000 -0.000001 -0.152447
 13 2.044495 -0.000000 -0.000000 0.162669 -0.060498 -0.486677
 14 -3.408901 -0.581307 4.341911 -0.000013 -1.370798 3.293195
 15 -3.143338 -0.538735 -4.140396 -0.000013 1.370795 3.293246
 16 4.827231 0.000000 0.000001 -1.294235 -0.886367 -1.823557
 17 11.139763 -0.000000 -0.000000 0.000000 -0.000000 -1.154417
 18 8.575572 -8.394946 9.511936 -1.535143 -1.058019 1.499774
 19 -1.465386 0.506167 4.002137 0.034889 -0.200000 -0.000001
 20 4.972047 0.000000 0.000001 1.715456 0.916545 -0.069375
 21 -9.249866 0.683183 -1.946118 -0.000014 -1.670796 0.000014
 22 10.313008 -0.000000 0.000000 -1.609209 0.000000 -0.069778
 23 1.646738 0.449549 -1.702246 0.154002 0.442277 0.277235
 24 0.928314 0.000000 0.000000 0.000000 0.000000 0.000000
 25 0.928314 -0.000000 -0.000000 0.000000 0.000000 0.000000
 26 2.975832 -0.386307 -0.044144 -0.000797 -0.043611 0.000035
 27 1.438890 0.000003 0.000001 -0.000000 -0.000000 0.752809
 28 1.485299 -0.000005 -0.000000 0.000000 -0.000000 1.347611
 29 11.585355 0.000000 0.000001 0.000000 0.000000 -0.522614
 30 10.125607 -0.000000 0.000001 1.569752 -0.164248 -0.069778
 31 1.533671 0.109715 1.664491 -0.233255 -0.412980 0.435685
 32 0.928314 -0.000001 0.000000 0.000000 0.000000 0.000000
 33 2.683748 -0.427340 0.044205 0.001045 0.043611 0.000046
 34 1.438886 0.000003 0.000000 0.000000 0.000000 1.099000
 35 2.027418 0.730720 12.541074 -1.531161 -0.031283 2.992741
time 24
  0 0.235348 -0.235348 -22.803907 0.000000 -2.401949 -1.570829
  1 -3.402449 0.578143 0.000000 -1.570795 -1.570787 0.000000
  2 -0.000005 0.000007 3.713254 0.090336 -2.755630 -1.142640
  3 18.045725 0.000000 0.000000 -0.000000 -0.000000 -0.876223
  4 17.597599 0.000000 0.000000 0.305535 0.134262 -0.374759
  5 0.000005 -0.000003 -3.713254 0.060888 2.721252 -0.961761
  6 18.045721 -0.000000 -0.000001 0.000000 0.000000 -0.069305
  7 17.597593 0.000000 -0.000000 -0.155812 0.108546 -0.701064
  8 1.293338 0.684453 -0.000001 -0.067768 0.016634 0.240439
  9 5.309647 -0.003832 -0.000000 0.000033 0.043720 0.148277
 10 4.826592 -0.004567 -0.000000 -0.077480 0.012608 0.160243
 11 5.792761 -0.005304 -0.000000 0.000000 -0.000000 0.365283
 12 6.661936 -0.000705 0.000000 -0.000000 -0.000001 -0.106294
 13 2.044495 -0.000000 -0.000000 0.166845 -0.055589 -0.524897
 14 -3.432339 -0.425053 4.341911 -0.000013 -1.370798 3.247079
 15 -3.166776 -0.390293 -4.140396 -0.000013 1.370795 3.247035
 16 4.827231 0.000000 0.000001 -1.162087 -0.584004 -1.797042
 17 11.139763 -0.000000 -0.000000 0.000000 -0.000000 -1.281822
 18 8.575572 -8.394946 9.511936 -1.535143 -1.058019 1.499774
 19 -1.465386 0.506167 4.002137 0.034889 -0.200000 -0.000001
 20 4.972047 0.000000 0.000001 1.662045 0.864661 -0.104473
 21 -9.249866 0.683183 -1.946118 -0.000014 -1.670796 0.000014
 22 10.313008 -0.000000 0.000000 -1.655140 0.000000 -0.069778
 23 1.646738 0.449549 -1.702246 0.154002 0.442277 0.277235
 24 0.928314 0.000000 0.000000 0.000000 0.000000 0.000000
 25 0.928314 -0.000000 -0.000000 0.000000 0.000000 0.000000
 26 2.975832 -0.386307 -0.044144 -0.000797 -0.043611 0.000035
 27 1.438890 0.000003 0.000001 -0.000000 -0.000000 0.704905
 28 1.485299 -0.000005 -0.000000 0.000000 -0.000000 1.209813
 29 11.585355 0.000000 0.000001 0.000000 0.000000 -0.526388
 30 10.125607 -0.000000 0.000001 1.569752 -0.148563 -0.069778
 31 1.533671 0.109715 1.664491 -0.233255 -0.412980 0.435685
 32 0.928314 -0.000001 0.000000 0.000000 0.000000 0.000000
 33 2.683748 -0.427340 0.044205 0.001045 0.043611 0.000046
 34 1.438886 0.000003 0.000000 0.000000 0.000000 1.099000
 35 2.027418 0.730720 12.541074 -1.531161 -0.031283 2.992741
time 25
  0 0.235348 -0.235348 -23.628151 0.000000 -2.349219 -1.570829
  1 -3.437606 0.605487 0.000000 -1.570795 -1.570787 0.000000
  2 -0.000005 0.000007 3.713254 0.107397 -2.764257 -0.951598
  3 18.045725 0.000000 0.000000 -0.000000 -0.000000 -0.981232
  4 17.597599 0.000000 0.000000 0.262552 0.156320 -0.380981
  5 0.000005 -0.000003 -3.713254 0.086622 2.728423 -0.781794
  6 18.045721 -0.000000 -0.000001 0.000000 0.000000 -0.081766
  7 17.597593 0.000000 -0.000000 -0.144647 0.119407 -0.691118
  8 1.293338 0.684453 -0.000001 -0.067427 0.017904 0.259177
  9 5.309647 -0.003832 -0.000000 0.000033 0.049784 0.148277
 10 4.826592 -0.004567 -0.000000 -0.077840 0.010139 0.128444
 11 5.792761 -0.005304 -0.000000 0.000000 -0.000000 0.310116
 12 6.661936 -0.000705 0.000000 -0.000000 -0.000001 -0.050505
 13 2.044495 -0.000000 -0.000000 0.170226 -0.054149 -0.547376
 14 -3.451871 -0.233640 4.341911 -0.000013 -1.370798 3.191279
 15 -3.182401 -0.214507 -4.140396 -0.000013 1.370795 3.191237
 16 4.827231 0.000000 0.000001 -1.033796 -0.274408 -1.743485
 17 11.139763 -0.000000 -0.000000 0.000000 -0.000000 -1.400818
 18 8.575572 -8.394946 9.511936 -1.535143 -1.058019 1.499774
 19 -1.465386 0.506167 4.002137 0.034889 -0.200000 -0.000001
 20 4.972047 0.000000 0.000001 1.613651 0.806341 -0.130602
 21 -9.249866 0.683183 -1.946118 -0.000014 -1.670796 0.000014
 22 10.313008 -0.000000 0.000000 -1.702388 0.000000 -0.069778
 23 1.646738 0.449549 -1.702246 0.154002 0.442277 0.277235
 24 0.928314 0.000000 0.000000 0.000000 0.000000 0.000000
 25 0.928314 -0.000000 -0.000000 0.000000 0.000000 0.000000
 26 2.975832 -0.386307 -0.044144 -0.000797 -0.043611 0.000035
 27 1.438890 0.000003 0.000001 -0.000000 -0.000000 0.655642
 28 1.485299 -0.000005 -0.000000 0.000000 -0.000000 1.067976
 29 11.585355 0.000000 0.000001 0.000000 0.000000 -0.530517
 30 10.125607 -0.000000 0.000001 1.569752 -0.131044 -0.069778
 31 1.533671 0.109715 1.664491 -0.233255 -0.412980 0.435685
 32 0.928314 -0.000001 0.000000 0.000000 0.000000 0.000000
 33 2.683748 -0.427340 0.044205 0.001045 0.043611 0.000046
 34 1.438886 0.000003 0.000000 0.000000 0.000000 1.099000
 35 2.027418 0.730720 12.541074 -1.531161 -0.031283 2.992741
time 26
  0 0.235348 -0.235348 -24.569588 0.000000 -2.291420 -1.570829
  1 -3.472763 0.632832 0.000000 -1.570795 -1.570787 0.000000
  2 -0.000005 0.000007 3.713254 0.126854 -2.769913 -0.751669
  3 18.045725 0.000000 0.000000 -0.000000 -0.000000 -1.091434
  4 17.597599 0.000000 0.000000 0.218399 0.162186 -0.396857
  5 0.000005 -0.000003 -3.713254 0.113504 2.741834 -0.579198
  6 18.045721 -0.000000 -0.000001 0.000000 0.000000 -0.095748
  7 17.597593 0.000000 -0.000000 -0.134254 0.133569 -0.679138
  8 1.293338 0.684453 -0.000001 -0.067061 0.019282 0.279726
  9 5.309647 -0.003832 -0.000000 0.000033 0.056411 0.148277
 10 4.826592 -0.004567 -0.000000 -0.078152 0.007383 0.093311
 11 5.792761 -0.005304 -0.000000 0.000000 -0.000000 0.248907
 12 6.661936 -0.000705 0.000000 -0.000000 -0.000001 0.011871
 13 2.044495 -0.000000 -0.000000 0.173474 -0.054959 -0.557047
 14 -3.459684 -0.018790 4.341911 -0.000013 -1.370798 3.128864
 15 -3.190214 -0.015282 -4.140396 -0.000013 1.370795 3.128919
 16 4.827231 0.000000 0.000001 -0.888416 0.043528 -1.662362
 17 11.139763 -0.000000 -0.000000 0.000000 -0.000000 -1.517080
 18 8.575572 -8.394946 9.511936 -1.535143 -1.058019 1.499774
 19 -1.465386 0.506167 4.002137 0.034889 -0.200000 -0.000001
 20 4.972047 0.000000 0.000001 1.570086 0.737564 -0.146357
 21 -9.249866 0.683183 -1.946118 -0.000014 -1.670796 0.000014
 22 10.313008 -0.000000 0.000000 -1.751350 0.000000 -0.069778
 23 1.646738 0.449549 -1.702246 0.154002 0.442277 0.277235
 24 0.928314 0.000000 0.000000 0.000000 0.000000 0.000000
 25 0.928314 -0.000000 -0.000000 0.000000 0.000000 0.000000
 26 2.975832 -0.386307 -0.044144 -0.000797 -0.043611 0.000035
 27 1.438890 0.000003 0.000001 -0.000000 -0.000000 0.604622
 28 1.485299 -0.000005 -0.000000 0.000000 -0.000000 0.921214
 29 11.585355 0.000000 0.000001 0.000000 0.000000 -0.535412
 30 10.125607 -0.000000 0.000001 1.569752 -0.110237 -0.069778
 31 1.533671 0.109715 1.664491 -0.233255 -0.412980 0.435685
 32 0.928314 -0.000001 0.000000 0.000000 0.000000 0.000000
 33 2.683748 -0.427340 0.044205 0.001045 0.043611 0.000046
 34 1.438886 0.000003 0.000000 0.000000 0.000000 1.099000
 35 2.027418 0.730720 12.541074 -1.531161 -0.031283 2.992741
time 27
  0 0.235348 -0.235348 -26.011038 0.000000 -2.227218 -1.570829
  1 -3.500108 0.664083 0.000000 -1.570795 -1.570787 0.000000
  2 -0.000005 0.000007 3.713254 0.146983 -2.770584 -0.572234
  3 18.045725 0.000000 0.000000 -0.000000 -0.000000 -1.192658
  4 17.597599 0.000000 0.000000 0.183601 0.153016 -0.426366
  5 0.000005 -0.000003 -3.713254 0.139908 2.763533 -0.348884
  6 18.045721 -0.000000 -0.000001 0.000000 0.000000 -0.111758
  7 17.597593 0.000000 -0.000000 -0.125586 0.151733 -0.664718
  8 1.293338 0.684453 -0.000001 -0.066589 0.020816 0.302553
  9 5.309647 -0.003832 -0.000000 0.000050 0.063794 0.148277
 10 4.826592 -0.004567 -0.000000 -0.078379 0.004302 0.054038
 11 5.792761 -0.005304 -0.000000 0.000000 -0.000000 0.180224
 12 6.661936 -0.000705 0.000000 -0.000000 -0.000001 0.082572
 13 2.044495 -0.000000 -0.000000 0.176855 -0.057481 -0.557915
 14 -3.451871 0.227311 4.341911 -0.000013 -1.370798 3.058203
 15 -3.182401 0.211288 -4.140396 -0.000013 1.370795 3.058165
 16 4.827231 0.000000 0.000001 -0.689756 0.374740 -1.531095
 17 11.139763 -0.000000 -0.000000 0.000000 -0.000000 -1.638108
 18 8.575572 -8.394946 9.511936 -1.535143 -1.058019 1.499774
 19 -1.465386 0.506167 4.002137 0.034889 -0.200000 -0.000001
 20 4.972047 0.000000 0.000001 1.530701 0.657043 -0.149399
 21 -9.249866 0.683183 -1.946118 -0.000014 -1.670796 0.000014
 22 10.313008 -0.000000 0.000000 -1.804266 0.000000 -0.069778
 23 1.646738 0.449549 -1.702246 0.154002 0.442277 0.277235
 24 0.928314 0.000000 0.000000 0.000000 0.000000 0.000000
 25 0.928314 -0.000000 -0.000000 0.000000 0.000000 0.000000
 26 2.975832 -0.386307 -0.044144 -0.000797 -0.043611 0.000035
 27 1.438890 0.000003 0.000001 -0.000000 -0.000000 0.549446
 28 1.485299 -0.000005 -0.000000 0.000000 -0.000000 0.762386
 29 11.585355 0.000000 0.000001 0.000000 0.000000 -0.541192
 30 10.125607 -0.000000 0.000001 1.569752 -0.085444 -0.069778
 31 1.533671 0.109715 1.664491 -0.233255 -0.412980 0.435685
 32 0.928314 -0.000001 0.000000 0.000000 0.000000 0.000000
 33 2.683748 -0.427340 0.044205 0.001045 0.043611 0.000046
 34 1.438886 0.000003 0.000000 0.000000 0.000000 1.099000
 35 2.027418 0.730720 12.541074 -1.531161 -0.031283 2.992741
time 28
  0 0.235348 -0.235348 -26.589180 0.000000 -2.157059 -1.570829
  1 -3.523546 0.695334 0.000000 -1.570795 -1.570787 0.000000
  2 -0.000005 0.000007 3.713254 0.168740 -2.767037 -0.398625
  3 18.045725 0.000000 0.000000 -0.000000 -0.000000 -1.293362
  4 17.597599 0.000000 0.000000 0.141965 0.127433 -0.503411
  5 0.000005 -0.000003 -3.713254 0.161815 2.794079 -0.093809
  6 18.045721 -0.000000 -0.000001 0.000000 0.000000 -0.129579
  7 17.597593 0.000000 -0.000000 -0.120344 0.173782 -0.647894
  8 1.293338 0.684453 -0.000001 -0.066066 0.022470 0.327495
  9 5.309647 -0.003832 -0.000000 0.000050 0.071860 0.148277
 10 4.826592 -0.004567 -0.000000 -0.078487 0.000923 0.011029
 11 5.792761 -0.005304 -0.000000 0.000000 -0.000000 0.104959
 12 6.661936 -0.000705 0.000000 -0.000000 -0.000001 0.163474
 13 2.044495 -0.000000 -0.000000 0.180501 -0.061466 -0.554112
 14 -3.424526 0.504663 4.341911 -0.000013 -1.370798 2.977284
 15 -3.155057 0.469108 -4.140396 -0.000013 1.370795 2.977248
 16 4.827231 0.000000 0.000001 -0.359826 0.698974 -1.281688
 17 11.139763 -0.000000 -0.000000 0.000000 -0.000000 -1.769298
 18 8.575572 -8.394946 9.511936 -1.535143 -1.058019 1.499774
 19 -1.465386 0.506167 4.002137 0.034889 -0.200000 -0.000001
 20 4.972047 0.000000 0.000001 1.493360 0.568879 -0.138635
 21 -9.249866 0.683183 -1.946118 -0.000014 -1.670796 0.000014
 22 10.313008 -0.000000 0.000000 -1.863112 0.000000 -0.069778
 23 1.646738 0.449549 -1.702246 0.154002 0.442277 0.277235
 24 0.928314 0.000000 0.000000 0.000000 0.000000 0.000000
 25 0.928314 -0.000000 -0.000000 0.000000 0.000000 0.000000
 26 2.975832 -0.386307 -0.044144 -0.000797 -0.043611 0.000035
 27 1.438890 0.000003 0.000001 -0.000000 -0.000000 0.488077
 28 1.485299 -0.000005 -0.000000 0.000000 -0.000000 0.585927
 29 11.585355 0.000000 0.000001 0.000000 0.000000 -0.547798
 30 10.125607 -0.000000 0.000001 1.569752 -0.057680 -0.069778
 31 1.533671 0.109715 1.664491 -0.233255 -0.412980 0.435685
 32 0.928314 -0.000001 0.000000 0.000000 0.000000 0.000000
 33 2.683748 -0.427340 0.044205 0.001045 0.043611 0.000046
 34 1.438886 0.000003 0.000000 0.000000 0.000000 1.099000
 35 2.027418 0.730720 12.541074 -1.531161 -0.031283 2.992741
time 29
  0 0.235348 -0.235348 -27.112633 0.000000 -2.085389 -1.570829
  1 -3.539171 0.726585 0.000000 -1.570795 -1.570787 0.000000
  2 -0.000005 0.000007 3.713254 0.179763 -2.765503 -0.294800
  3 18.045725 0.000000 0.000000 -0.000000 -0.000000 -1.351988
  4 17.597599 0.000000 0.000000 0.074351 0.078553 -0.646154
  5 0.000005 -0.000003 -3.713254 0.174347 2.830307 0.167758
  6 18.045721 -0.000000 -0.000001 0.000000 0.000000 -0.148198
  7 17.597593 0.000000 -0.000000 -0.120321 0.197869 -0.630405
  8 1.293338 0.684453 -0.000001 -0.065464 0.024148 0.352994
  9 5.309647 -0.003832 -0.000000 0.000050 0.080093 0.148277
 10 4.826592 -0.004567 -0.000000 -0.078451 -0.002505 -0.032750
 11 5.792761 -0.005304 -0.000000 0.000000 -0.000000 0.028531
 12 6.661936 -0.000705 0.000000 -0.000000 -0.000001 0.250503
 13 2.044495 -0.000000 -0.000000 0.184213 -0.066599 -0.548710
 14 -3.365931 0.801547 4.341911 -0.000013 -1.370798 2.890228
 15 -3.104274 0.738648 -4.140396 -0.000013 1.370795 2.890195
 16 4.827231 0.000000 0.000001 0.230369 0.916236 -0.789788
 17 11.139763 -0.000000 -0.000000 0.000000 -0.000000 -1.907635
 18 8.575572 -8.394946 9.511936 -1.535143 -1.058019 1.499774
 19 -1.465386 0.506167 4.002137 0.034889 -0.200000 -0.000001
 20 4.972047 0.000000 0.000001 1.452860 0.488519 -0.117888
 21 -9.249866 0.683183 -1.946118 -0.000014 -1.670796 0.000014
 22 10.313008 -0.000000 0.000000 -1.925781 0.000000 -0.069778
 23 1.646738 0.449549 -1.702246 0.154002 0.442277 0.277235
 24 0.928314 0.000000 0.000000 0.000000 0.000000 0.000000
 25 0.928314 -0.000000 -0.000000 0.000000 0.000000 0.000000
 26 2.975832 -0.386307 -0.044144 -0.000797 -0.043611 0.000035
 27 1.438890 0.000003 0.000001 -0.000000 -0.000000 0.422753
 28 1.485299 -0.000005 -0.000000 0.000000 -0.000000 0.397895
 29 11.585355 0.000000 0.000001 0.000000 0.000000 -0.554403
 30 10.125607 -0.000000 0.000001 1.569752 -0.031812 -0.069778
 31 1.533671 0.109715 1.664491 -0.233255 -0.412980 0.435685
 32 0.928314 -0.000001 0.000000 0.000000 0.000000 0.000000
 33 2.683748 -0.427340 0.044205 0.001045 0.043611 0.000046
 34 1.438886 0.000003 0.000000 0.000000 0.000000 1.099000
 35 2.027418 0.730720 12.541074 -1.531161 -0.031283 2.992741
time 30
  0 0.235348 -0.235348 -28.011099 0.000000 -2.023499 -1.570829
  1 -3.550891 0.750023 0.000000 -1.570795 -1.570787 0.000000
  2 -0.000005 0.000007 3.713254 0.180817 -2.764928 -0.245559
  3 18.045725 0.000000 0.000000 -0.000000 -0.000000 -1.375216
  4 17.597599 0.000000 0.000000 0.022954 0.029977 -0.759113
  5 0.000005 -0.000003 -3.713254 0.175591 2.861784 0.390367
  6 18.045721 -0.000000 -0.000001 0.000000 0.000000 -0.164425
  7 17.597593 0.000000 -0.000000 -0.125586 0.219825 -0.617094
  8 1.293338 0.684453 -0.000001 -0.064914 0.025586 0.375013
  9 5.309647 -0.003832 -0.000000 0.000066 0.087212 0.148277
 10 4.826592 -0.004567 -0.000000 -0.078307 -0.005393 -0.069568
 11 5.792761 -0.005304 -0.000000 0.000000 -0.000000 -0.034878
 12 6.661936 -0.000705 0.000000 -0.000000 -0.000001 0.322727
 13 2.044495 -0.000000 -0.000000 0.187527 -0.071553 -0.540972
 14 -3.299523 1.043742 4.341911 -0.000013 -1.370798 2.818033
 15 -3.041772 0.961311 -4.140396 -0.000013 1.370795 2.818003
 16 4.827231 0.000000 0.000001 0.878400 0.901684 -0.241530
 17 11.139763 -0.000000 -0.000000 0.000000 -0.000000 -2.031606
 18 8.575572 -8.394946 9.511936 -1.535143 -1.058019 1.499774
 19 -1.465386 0.506167 4.002137 0.034889 -0.200000 -0.000001
 20 4.972047 0.000000 0.000001 1.458991 0.421109 -0.001207
 21 -9.249866 0.683183 -1.946118 -0.000014 -1.670796 0.000014
 22 10.313008 -0.000000 0.000000 -1.979883 0.000000 -0.069778
 23 1.646738 0.449549 -1.702246 0.154002 0.442277 0.277235
 24 0.928314 0.000000 0.000000 0.000000 0.000000 0.000000
 25 0.928314 -0.000000 -0.000000 0.000000 0.000000 0.000000
 26 2.975832 -0.386307 -0.044144 -0.000797 -0.043611 0.000035
 27 1.438890 0.000003 0.000001 -0.000000 -0.000000 0.366299
 28 1.485299 -0.000005 -0.000000 0.000000 -0.000000 0.235472
 29 11.585355 0.000000 0.000001 0.000000 0.000000 -0.566317
 30 10.125607 -0.000000 0.000001 1.569752 0.000000 -0.069778
 31 1.533671 0.109715 1.664491 -0.233255 -0.412980 0.435685
 32 0.928314 -0.000001 0.000000 0.000000 0.000000 0.000000
 33 2.683748 -0.427340 0.044205 0.001045 0.043611 0.000046
 34 1.438886 0.000003 0.000000 0.000000 0.000000 1.099000
 35 2.027418 0.730720 12.541074 -1.531161 -0.031283 2.992741
time 31
  0 0.235348 -0.235348 -27.620461 0.000000 -2.023499 -1.570829
  1 -3.214943 0.726585 0.000000 -1.570795 -1.570787 0.000000
  2 -0.000005 0.000007 3.713254 0.171232 -2.759176 -0.193889
  3 18.045725 0.000000 0.000000 -0.000000 -0.000000 -1.375216
  4 17.597599 0.000000 0.000000 0.025496 0.020366 -0.710800
  5 0.000005 -0.000003 -3.713254 0.134742 2.863181 0.415322
  6 18.045721 -0.000000 -0.000001 0.000000 0.000000 -0.164425
  7 17.597593 0.000000 -0.000000 -0.091888 0.254538 -0.585258
  8 1.293338 0.684453 -0.000001 -0.064914 0.025586 0.375013
  9 5.309647 -0.003832 -0.000000 0.000066 0.087212 0.082658
 10 4.826592 -0.004567 -0.000000 -0.078307 -0.005393 -0.069568
 11 5.792761 -0.005304 -0.000000 0.000000 -0.000000 -0.034878
 12 6.661936 -0.000705 0.000000 -0.000000 -0.000001 0.322727
 13 2.044495 -0.000000 -0.000000 0.174402 -0.096769 -0.372015
 14 -3.299523 1.043742 4.341911 -0.000013 -1.370798 2.818033
 15 -3.041772 0.961311 -4.140396 -0.000013 1.370795 2.818003
 16 4.827231 0.000000 0.000001 0.980402 0.919981 -0.153056
 17 11.139763 -0.000000 -0.000000 0.000000 -0.000000 -2.031606
 18 8.575572 -8.394946 9.511936 -1.535143 -1.058019 1.499774
 19 -1.465386 0.506167 4.002137 0.034889 -0.200000 -0.000001
 20 4.972047 0.000000 0.000001 1.390067 0.426418 -0.011580
 21 -9.249866 0.683183 -1.946118 -0.000014 -1.670796 0.000014
 22 10.313008 -0.000000 0.000000 -1.979883 0.000000 -0.069778
 23 1.646738 0.449549 -1.702246 0.154002 0.442277 0.277235
 24 0.928314 0.000000 0.000000 0.000000 0.000000 0.000000
 25 0.928314 -0.000000 -0.000000 0.000000 0.000000 0.000000
 26 2.975832 -0.386307 -0.044144 -0.000797 -0.043611 0.000035
 27 1.438890 0.000003 0.000001 -0.000000 -0.000000 0.366299
 28 1.485299 -0.000005 -0.000000 0.000000 -0.000000 0.235472
 29 11.585355 0.000000 0.000001 0.000000 0.000000 -0.777579
 30 10.125607 -0.000000 0.000001 1.569752 0.000000 -0.069778
 31 1.533671 0.109715 1.664491 -0.233255 -0.412980 0.435685
 32 0.928314 -0.000001 0.000000 0.000000 0.000000 0.000000
 33 2.683748 -0.427340 0.044205 0.001045 0.043611 0.000046
 34 1.438886 0.000003 0.000000 0.000000 0.000000 1.099000
 35 2.027418 0.730720 12.541074 -1.531161 -0.031283 2.992741
time 32
  0 0.235348 -0.235348 -27.526709 0.000000 -2.023499 -1.570829
  1 -2.824306 0.699240 0.000000 -1.570795 -1.570787 0.000000
  2 -0.000005 0.000007 3.713254 0.160210 -2.756013 -0.190004
  3 18.045725 0.000000 0.000000 -0.000000 -0.000000 -1.375216
  4 17.597599 0.000000 0.000000 0.022954 0.029977 -0.706774
  5 0.000005 -0.000003 -3.713254 0.194819 2.874636 0.461598
  6 18.045721 -0.000000 -0.000001 0.000000 0.000000 -0.164425
  7 17.597593 0.000000 -0.000000 -0.125586 0.219825 -0.547322
  8 1.293338 0.684453 -0.000001 -0.064914 0.025586 0.375013
  9 5.309647 -0.003832 -0.000000 0.000066 0.087212 0.008709
 10 4.826592 -0.004567 -0.000000 -0.078307 -0.005393 -0.069568
 11 5.792761 -0.005304 -0.000000 0.000000 -0.000000 -0.034878
 12 6.661936 -0.000705 0.000000 -0.000000 -0.000001 0.322727
 13 2.044495 -0.000000 -0.000000 0.152792 -0.125611 -0.159435
 14 -3.299523 1.043742 4.341911 -0.000013 -1.370798 2.818033
 15 -3.041772 0.961311 -4.140396 -0.000013 1.370795 2.818003
 16 4.827231 0.000000 0.000001 1.100544 0.933767 -0.047955
 17 11.139763 -0.000000 -0.000000 0.000000 -0.000000 -2.031606
 18 8.575572 -8.394946 9.511936 -1.535143 -1.058019 1.499774
 19 -1.465386 0.506167 4.002137 0.034889 -0.200000 -0.000001
 20 4.972047 0.000000 0.000001 1.312041 0.431567 -0.023747
 21 -9.249866 0.683183 -1.946118 -0.000014 -1.670796 0.000014
 22 10.313008 -0.000000 0.000000 -1.979883 0.000000 -0.069778
 23 1.646738 0.449549 -1.702246 0.154002 0.442277 0.277235
 24 0.928314 0.000000 0.000000 0.000000 0.000000 0.000000
 25 0.928314 -0.000000 -0.000000 0.000000 0.000000 0.000000
 26 2.975832 -0.386307 -0.044144 -0.000797 -0.043611 0.000035
 27 1.438890 0.000003 0.000001 -0.000000 -0.000000 0.366299
 28 1.485299 -0.000005 -0.000000 0.000000 -0.000000 0.235472
 29 11.585355 0.000000 0.000001 0.000000 0.000000 -0.889049
 30 10.125607 -0.000000 0.000001 1.569752 0.000000 -0.069778
 31 1.533671 0.109715 1.664491 -0.233255 -0.412980 0.435685
 32 0.928314 -0.000001 0.000000 0.000000 0.000000 0.000000
 33 2.683748 -0.427340 0.044205 0.001045 0.043611 0.000046
 34 1.438886 0.000003 0.000000 0.000000 0.000000 1.099000
 35 2.027418 0.730720 12.541074 -1.531161 -0.031283 2.992741
time 33
  0 0.235348 -0.235348 -27.671244 0.000000 -2.023499 -1.570829
  1 -3.015718 0.714866 0.000000 -1.570795 -1.570787 0.000000
  2 -0.000005 0.000007 3.713254 0.165577 -2.758218 -0.204378
  3 18.045725 0.000000 0.000000 -0.000000 -0.000000 -1.375216
  4 17.597599 0.000000 0.000000 0.022954 0.029977 -0.720270
  5 0.000005 -0.000003 -3.713254 0.191854 2.870352 0.437515
  6 18.045721 -0.000000 -0.000001 0.000000 0.000000 -0.164425
  7 17.597593 0.000000 -0.000000 -0.128014 0.217367 -0.571429
  8 1.293338 0.684453 -0.000001 -0.064914 0.025586 0.375013
  9 5.309647 -0.003832 -0.000000 0.000066 0.087212 0.044664
 10 4.826592 -0.004567 -0.000000 -0.078307 -0.005393 -0.069568
 11 5.792761 -0.005304 -0.000000 0.000000 -0.000000 -0.034878
 12 6.661936 -0.000705 0.000000 -0.000000 -0.000001 0.322727
 13 2.044495 -0.000000 -0.000000 0.163465 -0.112935 -0.258088
 14 -3.299523 1.043742 4.341911 -0.000013 -1.370798 2.818033
 15 -3.041772 0.961311 -4.140396 -0.000013 1.370795 2.818003
 16 4.827231 0.000000 0.000001 1.041569 0.927980 -0.099674
 17 11.139763 -0.000000 -0.000000 0.000000 -0.000000 -2.031606
 18 8.575572 -8.394946 9.511936 -1.535143 -1.058019 1.499774
 19 -1.465386 0.506167 4.002137 0.034889 -0.200000 -0.000001
 20 4.972047 0.000000 0.000001 1.350032 0.429153 -0.017742
 21 -9.249866 0.683183 -1.946118 -0.000014 -1.670796 0.000014
 22 10.313008 -0.000000 0.000000 -1.979883 0.000000 -0.069778
 23 1.646738 0.449549 -1.702246 0.154002 0.442277 0.277235
 24 0.928314 0.000000 0.000000 0.000000 0.000000 0.000000
 25 0.928314 -0.000000 -0.000000 0.000000 0.000000 0.000000
 26 2.975832 -0.386307 -0.044144 -0.000797 -0.043611 0.000035
 27 1.438890 0.000003 0.000001 -0.000000 -0.000000 0.366299
 28 1.485299 -0.000005 -0.000000 0.000000 -0.000000 0.235472
 29 11.585355 0.000000 0.000001 0.000000 0.000000 -0.805889
 30 10.125607 -0.000000 0.000001 1.569752 0.000000 -0.069778
 31 1.533671 0.109715 1.664491 -0.233255 -0.412980 0.435685
 32 0.928314 -0.000001 0.000000 0.000000 0.000000 0.000000
 33 2.683748 -0.427340 0.044205 0.001045 0.043611 0.000046
 34 1.438886 0.000003 0.000000 0.000000 0.000000 1.099000
 35 2.027418 0.730720 12.541074 -1.531161 -0.031283 2.992741
time 34
  0 0.235348 -0.235348 -27.905626 0.000000 -2.023499 -1.570829
  1 -3.328228 0.734397 0.000000 -1.570795 -1.570787 0.000000
  2 -0.000005 0.000007 3.713254 0.174395 -2.762052 -0.228174
  3 18.045725 0.000000 0.000000 -0.000000 -0.000000 -1.375216
  4 17.597599 0.000000 0.000000 0.022954 0.029977 -0.742734
  5 0.000005 -0.000003 -3.713254 0.182383 2.865230 0.409944
  6 18.045721 -0.000000 -0.000001 0.000000 0.000000 -0.164425
  7 17.597593 0.000000 -0.000000 -0.126629 0.218748 -0.598199
  8 1.293338 0.684453 -0.000001 -0.064914 0.025586 0.375013
  9 5.309647 -0.003832 -0.000000 0.000066 0.087212 0.104491
 10 4.826592 -0.004567 -0.000000 -0.078307 -0.005393 -0.069568
 11 5.792761 -0.005304 -0.000000 0.000000 -0.000000 -0.034878
 12 6.661936 -0.000705 0.000000 -0.000000 -0.000001 0.322727
 13 2.044495 -0.000000 -0.000000 0.178578 -0.089812 -0.421709
 14 -3.299523 1.043742 4.341911 -0.000013 -1.370798 2.818033
 15 -3.041772 0.961311 -4.140396 -0.000013 1.370795 2.818003
 16 4.827231 0.000000 0.000001 0.945876 0.914534 -0.183072
 17 11.139763 -0.000000 -0.000000 0.000000 -0.000000 -2.031606
 18 8.575572 -8.394946 9.511936 -1.535143 -1.058019 1.499774
 19 -1.465386 0.506167 4.002137 0.034889 -0.200000 -0.000001
 20 4.972047 0.000000 0.000001 1.413011 0.424729 -0.008070
 21 -9.249866 0.683183 -1.946118 -0.000014 -1.670796 0.000014
 22 10.313008 -0.000000 0.000000 -1.979883 0.000000 -0.069778
 23 1.646738 0.449549 -1.702246 0.154002 0.442277 0.277235
 24 0.928314 0.000000 0.000000 0.000000 0.000000 0.000000
 25 0.928314 -0.000000 -0.000000 0.000000 0.000000 0.000000
 26 2.975832 -0.386307 -0.044144 -0.000797 -0.043611 0.000035
 27 1.438890 0.000003 0.000001 -0.000000 -0.000000 0.366299
 28 1.485299 -0.000005 -0.000000 0.000000 -0.000000 0.235472
 29 11.585355 0.000000 0.000001 0.000000 0.000000 -0.667525
 30 10.125607 -0.000000 0.000001 1.569752 0.000000 -0.069778
 31 1.533671 0.109715 1.664491 -0.233255 -0.412980 0.435685
 32 0.928314 -0.000001 0.000000 0.000000 0.000000 0.000000
 33 2.683748 -0.427340 0.044205 0.001045 0.043611 0.000046
 34 1.438886 0.000003 0.000000 0.000000 0.000000 1.099000
 35 2.027418 0.730720 12.541074 -1.531161 -0.031283 2.992741
time 35
  0 0.235348 -0.235348 -28.085320 0.000000 -2.023499 -1.570829
  1 -3.550891 0.750023 0.000000 -1.570795 -1.570787 0.000000
  2 -0.000005 0.000007 3.713254 0.180817 -2.764928 -0.245559
  3 18.045725 0.000000 0.000000 -0.000000 -0.000000 -1.375216
  4 17.597599 0.000000 0.000000 0.022954 0.029977 -0.759113
  5 0.000005 -0.000003 -3.713254 0.175591 2.861784 0.390367
  6 18.045721 -0.000000 -0.000001 0.000000 0.000000 -0.164425
  7 17.597593 0.000000 -0.000000 -0.125586 0.219825 -0.617094
  8 1.293338 0.684453 -0.000001 -0.064914 0.025586 0.375013
  9 5.309647 -0.003832 -0.000000 0.000066 0.087212 0.148277
 10 4.826592 -0.004567 -0.000000 -0.078307 -0.005393 -0.069568
 11 5.792761 -0.005304 -0.000000 0.000000 -0.000000 -0.034878
 12 6.661936 -0.000705 0.000000 -0.000000 -0.000001 0.322727
 13 2.044495 -0.000000 -0.000000 0.187527 -0.071553 -0.540972
 14 -3.299523 1.043742 4.341911 -0.000013 -1.370798 2.818033
 15 -3.041772 0.961311 -4.140396 -0.000013 1.370795 2.818003
 16 4.827231 0.000000 0.000001 0.878400 0.901684 -0.241530
 17 11.139763 -0.000000 -0.000000 0.000000 -0.000000 -2.031606
 18 8.575572 -8.394946 9.511936 -1.535143 -1.058019 1.499774
 19 -1.465386 0.506167 4.002137 0.034889 -0.200000 -0.000001
 20 4.972047 0.000000 0.000001 1.458991 0.421109 -0.001207
 21 -9.249866 0.683183 -1.946118 -0.000014 -1.670796 0.000014
 22 10.313008 -0.000000 0.000000 -1.979883 0.000000 -0.069778
 23 1.646738 0.449549 -1.702246 0.154002 0.442277 0.277235
 24 0.928314 0.000000 0.000000 0.000000 0.000000 0.000000
 25 0.928314 -0.000000 -0.000000 0.000000 0.000000 0.000000
 26 2.975832 -0.386307 -0.044144 -0.000797 -0.043611 0.000035
 27 1.438890 0.000003 0.000001 -0.000000 -0.000000 0.366299
 28 1.485299 -0.000005 -0.000000 0.000000 -0.000000 0.235472
 29 11.585355 0.000000 0.000001 0.000000 0.000000 -0.566317
 30 10.125607 -0.000000 0.000001 1.569752 0.000000 -0.069778
 31 1.533671 0.109715 1.664491 -0.233255 -0.412980 0.435685
 32 0.928314 -0.000001 0.000000 0.000000 0.000000 0.000000
 33 2.683748 -0.427340 0.044205 0.001045 0.043611 0.000046
 34 1.438886 0.000003 0.000000 0.000000 0.000000 1.099000
 35 2.027418 0.730720 12.541074 -1.531161 -0.031283 2.992741
end
