version 1
nodes
  0 "Bip01"  -1
  1 "Bip01 Pelvis"   0
  2 "Bip01 L Leg"   1
  3 "Bip01 L Leg1"   2
  4 "Bip01 L Foot"   3
  5 "Bip01 R Leg"   1
  6 "Bip01 R Leg1"   5
  7 "Bip01 R Foot"   6
  8 "Bip01 Spine"   1
  9 "Bip01 Spine1"   8
 10 "Bip01 Spine2"   9
 11 "Bip01 Spine3"  10
 12 "Bip01 Neck"  11
 13 "Bip01 Head"  12
 14 "Bip01 L Arm"  12
 15 "Bip01 R Arm"  12
 16 "Bip01 L Arm1"  14
 17 "Bip01 L Arm2"  16
 18 "bone_shield"  17
 19 "bone_root_plate"  14
 20 "Bip01 R Arm1"  15
 21 "bone_plate_root"  20
 22 "Bip01 L Hand"  17
 23 "Bip01 L Finger0"  22
 24 "Bip01 L Finger01"  23
 25 "Bip01 L Finger02"  24
 26 "Bip01 L Finger1"  22
 27 "Bip01 L Finger11"  26
 28 "Bip01 L Finger12"  27
 29 "Bip01 R Arm2"  20
 30 "Bip01 R Hand"  29
 31 "Bip01 R Finger0"  30
 32 "Bip01 R Finger01"  31
 33 "Bip01 R Finger1"  30
 34 "Bip01 R Finger11"  33
 35 "sword"  30
end
skeleton
time 0
  0 -0.194353 0.194353 2.829687 0.000000 0.000000 -1.570829
  1 -0.000001 0.000000 0.000000 -1.570795 -1.570787 0.000000
  2 -0.000005 0.000007 3.713254 0.004359 -3.100539 -0.146104
  3 18.045725 0.000000 0.000000 -0.000000 -0.000000 -0.339755
  4 17.597599 0.000000 0.000000 0.001577 -0.041181 0.193696
  5 0.000005 -0.000003 -3.713254 -0.001390 3.115096 -0.147790
  6 18.045721 -0.000000 -0.000001 0.000000 0.000000 -0.343074
  7 17.597593 0.000000 -0.000000 -0.002594 0.026340 0.195250
  8 1.293338 0.684453 -0.000001 -0.000004 -0.000001 0.114184
  9 5.309647 -0.003832 -0.000000 -0.000000 0.000000 -0.069795
 10 4.826592 -0.004567 -0.000000 -0.000000 0.000000 -0.095946
 11 5.792761 -0.005304 -0.000000 0.000000 -0.000000 0.017444
 12 6.661936 -0.000705 0.000000 -0.000000 -0.000001 0.471000
 13 2.044495 -0.000000 -0.000000 0.000000 0.000000 -0.262424
 14 -3.112017 1.516413 4.341911 -0.000013 -1.370798 2.669809
 15 -2.869892 1.398824 -4.140396 -0.000013 1.370795 2.669783
 16 4.827231 0.000000 0.000001 0.083324 1.147285 0.082962
 17 11.139763 -0.000000 -0.000000 0.000000 -0.000000 -0.200000
 18 8.575572 -8.394946 9.511936 -1.535143 -1.058019 1.499774
 19 -1.465386 0.506167 4.002137 0.034889 -0.200000 -0.000001
 20 4.972047 0.000000 0.000001 -0.083333 -1.147329 0.082951
 21 -9.249866 0.683183 -1.946118 -0.000014 -1.670796 0.000014
 22 10.313008 -0.000000 0.000000 -1.570000 -0.226764 -0.000007
 23 1.646738 0.449549 -1.702246 0.287462 0.372839 0.611126
 24 0.928314 0.000000 0.000000 0.000000 0.000000 0.000000
 25 0.928314 -0.000000 -0.000000 0.000000 0.000000 0.000000
 26 2.975832 -0.386307 -0.044144 -0.019829 -0.038853 0.453927
 27 1.438890 0.000003 0.000001 -0.000000 -0.000000 0.924529
 28 1.485299 -0.000005 -0.000000 0.000000 -0.000000 1.552536
 29 11.585355 0.000000 0.000001 0.000000 0.000000 -0.871591
 30 10.125607 -0.000000 0.000001 1.569752 -0.000000 -0.000039
 31 1.533671 0.109715 1.664491 -0.233255 -0.412980 0.435685
 32 0.928314 -0.000001 0.000000 0.000000 0.000000 0.000000
 33 2.683748 -0.427340 0.044205 -0.009154 0.042652 -0.235660
 34 1.438886 0.000003 0.000000 0.000000 0.000000 0.470985
 35 2.027418 0.730720 12.541074 -1.531161 -0.031283 2.992741
time 1
  0 -0.194353 0.194353 5.521175 0.000000 0.055932 -1.570829
  1 0.542984 0.000000 0.000000 -1.570795 -1.570787 0.000000
  2 -0.000005 0.000007 3.713254 0.011548 -3.102072 -0.325977
  3 18.045725 0.000000 0.000000 -0.000000 -0.000000 -0.730548
  4 17.597599 0.000000 0.000000 0.017692 -0.037133 -0.001248
  5 0.000005 -0.000003 -3.713254 0.000523 3.115096 -0.075251
  6 18.045721 -0.000000 -0.000001 0.000000 0.000000 -0.225424
  7 17.597593 0.000000 -0.000000 -0.010468 0.024257 -0.158750
  8 1.293338 0.684453 -0.000001 -0.000004 -0.000001 0.114184
  9 5.309647 -0.003832 -0.000000 -0.000000 0.000000 -0.119134
 10 4.826592 -0.004567 -0.000000 -0.000000 0.000000 -0.157859
 11 5.792761 -0.005304 -0.000000 0.000000 -0.000000 -0.040567
 12 6.661936 -0.000705 0.000000 -0.000000 -0.000001 0.471000
 13 2.044495 -0.000000 -0.000000 0.000000 0.000000 -0.153432
 14 -3.112017 1.516413 4.341911 -0.000013 -1.370798 2.669809
 15 -2.869892 1.398824 -4.140396 -0.000013 1.370795 2.669783
 16 4.827231 0.000000 0.000001 -0.588630 0.782628 -0.690375
 17 11.139763 -0.000000 -0.000000 0.000000 -0.000000 -0.581655
 18 8.575572 -8.394946 9.511936 -1.535143 -1.058019 1.499774
 19 -1.465386 0.506167 4.002137 0.034889 -0.200000 -0.000001
 20 4.972047 0.000000 0.000001 0.609245 -0.800387 -0.660505
 21 -9.249866 0.683183 -1.946118 -0.000014 -1.670796 0.000014
 22 10.313008 -0.000000 0.000000 -1.570000 -0.226764 -0.000007
 23 1.646738 0.449549 -1.702246 0.287462 0.372839 0.611126
 24 0.928314 0.000000 0.000000 0.000000 0.000000 0.000000
 25 0.928314 -0.000000 -0.000000 0.000000 0.000000 0.000000
 26 2.975832 -0.386307 -0.044144 -0.019829 -0.038853 0.453927
 27 1.438890 0.000003 0.000001 -0.000000 -0.000000 0.924529
 28 1.485299 -0.000005 -0.000000 0.000000 -0.000000 1.552536
 29 11.585355 0.000000 0.000001 0.000000 0.000000 -1.021810
 30 10.125607 -0.000000 0.000001 1.569752 -0.000000 -0.000039
 31 1.533671 0.109715 1.664491 -0.233255 -0.412980 0.435685
 32 0.928314 -0.000001 0.000000 0.000000 0.000000 0.000000
 33 2.683748 -0.427340 0.044205 -0.009154 0.042652 -0.235660
 34 1.438886 0.000003 0.000000 0.000000 0.000000 0.470985
 35 2.027418 0.730720 12.541074 -1.531161 -0.031283 2.992741
time 2
  0 -0.194353 0.194353 8.947062 0.000000 0.122089 -1.570829
  1 1.062531 0.000000 0.000000 -1.570795 -1.570787 0.000000
  2 -0.000005 0.000007 3.713254 0.018833 -3.105140 -0.518719
  3 18.045725 0.000000 0.000000 -0.000000 -0.000000 -1.133883
  4 17.597599 0.000000 0.000000 0.030986 -0.026861 -0.202461
  5 0.000005 -0.000003 -3.713254 0.002341 3.115282 -0.007169
  6 18.045721 -0.000000 -0.000001 0.000000 0.000000 -0.112483
  7 17.597593 0.000000 -0.000000 -0.017412 0.019809 -0.517483
  8 1.293338 0.684453 -0.000001 -0.000004 -0.000001 0.114184
  9 5.309647 -0.003832 -0.000000 -0.000000 0.000000 -0.166915
 10 4.826592 -0.004567 -0.000000 -0.000000 0.000000 -0.218050
 11 5.792761 -0.005304 -0.000000 0.000000 -0.000000 -0.097229
 12 6.661936 -0.000705 0.000000 -0.000000 -0.000001 0.471000
 13 2.044495 -0.000000 -0.000000 0.000000 0.000000 -0.048510
 14 -3.112017 1.516413 4.341911 -0.000013 -1.370798 2.669809
 15 -2.869892 1.398824 -4.140396 -0.000013 1.370795 2.669783
 16 4.827231 0.000000 0.000001 -0.769501 0.302064 -1.029568
 17 11.139763 -0.000000 -0.000000 0.000000 -0.000000 -0.964501
 18 8.575572 -8.394946 9.511936 -1.535143 -1.058019 1.499774
 19 -1.465386 0.506167 4.002137 0.034889 -0.200000 -0.000001
 20 4.972047 0.000000 0.000001 0.821310 -0.326992 -0.971163
 21 -9.249866 0.683183 -1.946118 -0.000014 -1.670796 0.000014
 22 10.313008 -0.000000 0.000000 -1.570000 -0.226764 -0.000007
 23 1.646738 0.449549 -1.702246 0.287462 0.372839 0.611126
 24 0.928314 0.000000 0.000000 0.000000 0.000000 0.000000
 25 0.928314 -0.000000 -0.000000 0.000000 0.000000 0.000000
 26 2.975832 -0.386307 -0.044144 -0.019829 -0.038853 0.453927
 27 1.438890 0.000003 0.000001 -0.000000 -0.000000 0.924529
 28 1.485299 -0.000005 -0.000000 0.000000 -0.000000 1.552536
 29 11.585355 0.000000 0.000001 0.000000 0.000000 -1.168844
 30 10.125607 -0.000000 0.000001 1.569752 -0.000000 -0.000039
 31 1.533671 0.109715 1.664491 -0.233255 -0.412980 0.435685
 32 0.928314 -0.000001 0.000000 0.000000 0.000000 0.000000
 33 2.683748 -0.427340 0.044205 -0.009154 0.042652 -0.235660
 34 1.438886 0.000003 0.000000 0.000000 0.000000 0.470985
 35 2.027418 0.730720 12.541074 -1.531161 -0.031283 2.992741
time 3
  0 -0.194353 0.194353 12.208879 0.000000 0.185224 -1.570829
  1 1.289101 0.000000 0.000000 -1.570795 -1.570787 0.000000
  2 -0.000005 0.000007 3.713254 0.025254 -3.109358 -0.704807
  3 18.045725 0.000000 0.000000 -0.000000 -0.000000 -1.447646
  4 17.597599 0.000000 0.000000 0.037214 -0.017030 -0.359433
  5 0.000005 -0.000003 -3.713254 0.002819 3.115375 0.011389
  6 18.045721 -0.000000 -0.000001 0.000000 0.000000 -0.067422
  7 17.597593 0.000000 -0.000000 -0.021247 0.015549 -0.761703
  8 1.293338 0.684453 -0.000001 -0.000004 -0.000001 0.114184
  9 5.309647 -0.003832 -0.000000 -0.000000 0.000000 -0.187769
 10 4.826592 -0.004567 -0.000000 -0.000000 0.000000 -0.245710
 11 5.792761 -0.005304 -0.000000 0.000000 -0.000000 -0.124760
 12 6.661936 -0.000705 0.000000 -0.000000 -0.000001 0.471000
 13 2.044495 -0.000000 -0.000000 0.000000 0.000000 -0.005887
 14 -3.112017 1.516413 4.341911 -0.000013 -1.370798 2.669809
 15 -2.869892 1.398824 -4.140396 -0.000013 1.370795 2.669783
 16 4.827231 0.000000 0.000001 -0.818749 -0.147353 -1.262873
 17 11.139763 -0.000000 -0.000000 0.000000 -0.000000 -1.272432
 18 8.575572 -8.394946 9.511936 -1.535143 -1.058019 1.499774
 19 -1.465386 0.506167 4.002137 0.034889 -0.200000 -0.000001
 20 4.972047 0.000000 0.000001 0.891534 0.022685 -1.139088
 21 -9.249866 0.683183 -1.946118 -0.000014 -1.670796 0.000014
 22 10.313008 -0.000000 0.000000 -1.570000 -0.226764 -0.000007
 23 1.646738 0.449549 -1.702246 0.287462 0.372839 0.611126
 24 0.928314 0.000000 0.000000 0.000000 0.000000 0.000000
 25 0.928314 -0.000000 -0.000000 0.000000 0.000000 0.000000
 26 2.975832 -0.386307 -0.044144 -0.019829 -0.038853 0.453927
 27 1.438890 0.000003 0.000001 -0.000000 -0.000000 0.924529
 28 1.485299 -0.000005 -0.000000 0.000000 -0.000000 1.552536
 29 11.585355 0.000000 0.000001 0.000000 0.000000 -1.241801
 30 10.125607 -0.000000 0.000001 1.569752 -0.000000 -0.000039
 31 1.533671 0.109715 1.664491 -0.233255 -0.412980 0.435685
 32 0.928314 -0.000001 0.000000 0.000000 0.000000 0.000000
 33 2.683748 -0.427340 0.044205 -0.009166 0.042652 -0.235660
 34 1.438886 0.000003 0.000000 0.000000 0.000000 0.470985
 35 2.027418 0.730720 12.541074 -1.531161 -0.031283 2.992741
time 4
  0 -0.194353 0.194353 14.955057 0.000000 0.240889 -1.570829
  1 1.191442 0.000000 0.000000 -1.570795 -1.570787 0.000000
  2 -0.000005 0.000007 3.713254 0.031005 -3.114918 -0.901288
  3 18.045725 0.000000 0.000000 -0.000000 -0.000000 -1.680296
  4 17.597599 0.000000 0.000000 0.039324 -0.011137 -0.476738
  5 0.000005 -0.000003 -3.713254 0.001767 3.115282 -0.030428
  6 18.045721 -0.000000 -0.000001 0.000000 0.000000 -0.103282
  7 17.597593 0.000000 -0.000000 -0.022926 0.012904 -0.886753
  8 1.293338 0.684453 -0.000001 -0.000004 -0.000001 0.114184
  9 5.309647 -0.003832 -0.000000 -0.000000 0.000000 -0.176883
 10 4.826592 -0.004567 -0.000000 -0.000000 0.000000 -0.235269
 11 5.792761 -0.005304 -0.000000 0.000000 -0.000000 -0.118448
 12 6.661936 -0.000705 0.000000 -0.000000 -0.000001 0.471000
 13 2.044495 -0.000000 -0.000000 0.000000 0.000000 -0.037037
 14 -3.112017 1.516413 4.341911 -0.000013 -1.370798 2.669809
 15 -2.869892 1.398824 -4.140396 -0.000013 1.370795 2.669783
 16 4.827231 0.000000 0.000001 -0.844513 -0.282322 -1.343734
 17 11.139763 -0.000000 -0.000000 0.000000 -0.000000 -1.298992
 18 8.575572 -8.394946 9.511936 -1.535143 -1.058019 1.499774
 19 -1.465386 0.506167 4.002137 0.034889 -0.200000 -0.000001
 20 4.972047 0.000000 0.000001 0.933148 0.238347 -1.232995
 21 -9.249866 0.683183 -1.946118 -0.000014 -1.670796 0.000014
 22 10.313008 -0.000000 0.000000 -1.570000 -0.226764 -0.000007
 23 1.646738 0.449549 -1.702246 0.287462 0.372839 0.611126
 24 0.928314 0.000000 0.000000 0.000000 0.000000 0.000000
 25 0.928314 -0.000000 -0.000000 0.000000 0.000000 0.000000
 26 2.975832 -0.386307 -0.044144 -0.019829 -0.038853 0.453927
 27 1.438890 0.000003 0.000001 -0.000000 -0.000000 0.924529
 28 1.485299 -0.000005 -0.000000 0.000000 -0.000000 1.552536
 29 11.585355 0.000000 0.000001 0.000000 0.000000 -1.229179
 30 10.125607 -0.000000 0.000001 1.569752 -0.000000 -0.000039
 31 1.533671 0.109715 1.664491 -0.233255 -0.412980 0.435685
 32 0.928314 -0.000001 0.000000 0.000000 0.000000 0.000000
 33 2.683748 -0.427340 0.044205 -0.009154 0.042652 -0.235660
 34 1.438886 0.000003 0.000000 0.000000 0.000000 0.470985
 35 2.027418 0.730720 12.541074 -1.531161 -0.031283 2.992741
time 5
  0 -0.194353 0.194353 17.087934 0.000000 0.289084 -1.570829
  1 0.640644 0.000000 0.000000 -1.570795 -1.570787 0.000000
  2 -0.000005 0.000007 3.713254 0.036756 -3.124217 -1.167358
  3 18.045725 0.000000 0.000000 -0.000000 -0.000000 -1.869607
  4 17.597599 0.000000 0.000000 0.039400 -0.010036 -0.583383
  5 0.000005 -0.000003 -3.713254 -0.001007 3.115282 -0.135676
  6 18.045721 -0.000000 -0.000001 0.000000 0.000000 -0.227814
  7 17.597593 0.000000 -0.000000 -0.023130 0.012506 -0.884054
  8 1.293338 0.684453 -0.000001 -0.000004 -0.000001 0.114184
  9 5.309647 -0.003832 -0.000000 -0.000000 0.000000 -0.122230
 10 4.826592 -0.004567 -0.000000 -0.000000 0.000000 -0.173062
 11 5.792761 -0.005304 -0.000000 0.000000 -0.000000 -0.067455
 12 6.661936 -0.000705 0.000000 -0.000000 -0.000001 0.471000
 13 2.044495 -0.000000 -0.000000 0.000000 0.000000 -0.165038
 14 -3.112017 1.516413 4.341911 -0.000013 -1.370798 2.669809
 15 -2.869892 1.398824 -4.140396 -0.000013 1.370795 2.669783
 16 4.827231 0.000000 0.000001 -0.949582 -0.167862 -1.316868
 17 11.139763 -0.000000 -0.000000 0.000000 -0.000000 -1.062122
 18 8.575572 -8.394946 9.511936 -1.535143 -1.058019 1.499774
 19 -1.465386 0.506167 4.002137 0.034889 -0.200000 -0.000001
 20 4.972047 0.000000 0.000001 1.013125 0.310825 -1.267547
 21 -9.249866 0.683183 -1.946118 -0.000014 -1.670796 0.000014
 22 10.313008 -0.000000 0.000000 -1.570000 -0.226764 -0.000007
 23 1.646738 0.449549 -1.702246 0.287462 0.372839 0.611126
 24 0.928314 0.000000 0.000000 0.000000 0.000000 0.000000
 25 0.928314 -0.000000 -0.000000 0.000000 0.000000 0.000000
 26 2.975832 -0.386307 -0.044144 -0.019829 -0.038853 0.453927
 27 1.438890 0.000003 0.000001 -0.000000 -0.000000 0.924529
 28 1.485299 -0.000005 -0.000000 0.000000 -0.000000 1.552536
 29 11.585355 0.000000 0.000001 0.000000 0.000000 -1.094177
 30 10.125607 -0.000000 0.000001 1.569752 -0.000000 -0.000039
 31 1.533671 0.109715 1.664491 -0.233255 -0.412980 0.435685
 32 0.928314 -0.000001 0.000000 0.000000 0.000000 0.000000
 33 2.683748 -0.427340 0.044205 -0.009154 0.042652 -0.235660
 34 1.438886 0.000003 0.000000 0.000000 0.000000 0.470985
 35 2.027418 0.730720 12.541074 -1.531161 -0.031283 2.992741
time 6
  0 -0.194353 0.194353 18.681732 0.000000 0.331411 -1.570829
  1 -0.230477 0.000000 0.000000 -1.570795 -1.570787 0.000000
  2 -0.000005 0.000007 3.713254 0.040015 -3.136966 -1.485923
  3 18.045725 0.000000 0.000000 -0.000000 -0.000000 -2.037694
  4 17.597599 0.000000 0.000000 0.038510 -0.012018 -0.688977
  5 0.000005 -0.000003 -3.713254 -0.004451 3.115654 -0.271208
  6 18.045721 -0.000000 -0.000001 0.000000 0.000000 -0.397335
  7 17.597593 0.000000 -0.000000 -0.022585 0.013489 -0.807552
  8 1.293338 0.684453 -0.000001 -0.000004 -0.000001 0.114184
  9 5.309647 -0.003832 -0.000000 -0.000000 0.000000 -0.038713
 10 4.826592 -0.004567 -0.000000 -0.000000 0.000000 -0.076749
 11 5.792761 -0.005304 -0.000000 0.000000 -0.000000 0.012772
 12 6.661936 -0.000705 0.000000 -0.000000 -0.000001 0.471000
 13 2.044495 -0.000000 -0.000000 0.000000 0.000000 -0.355473
 14 -3.112017 1.516413 4.341911 -0.000013 -1.370798 2.669809
 15 -2.869892 1.398824 -4.140396 -0.000013 1.370795 2.669783
 16 4.827231 0.000000 0.000001 -1.068760 -0.116121 -1.334282
 17 11.139763 -0.000000 -0.000000 0.000000 -0.000000 -0.813969
 18 8.575572 -8.394946 9.511936 -1.535143 -1.058019 1.499774
 19 -1.465386 0.506167 4.002137 0.034889 -0.200000 -0.000001
 20 4.972047 0.000000 0.000001 1.119668 0.287014 -1.295469
 21 -9.249866 0.683183 -1.946118 -0.000014 -1.670796 0.000014
 22 10.313008 -0.000000 0.000000 -1.570000 -0.226764 -0.000007
 23 1.646738 0.449549 -1.702246 0.287462 0.372839 0.611126
 24 0.928314 0.000000 0.000000 0.000000 0.000000 0.000000
 25 0.928314 -0.000000 -0.000000 0.000000 0.000000 0.000000
 26 2.975832 -0.386307 -0.044144 -0.019829 -0.038853 0.453927
 27 1.438890 0.000003 0.000001 -0.000000 -0.000000 0.924529
 28 1.485299 -0.000005 -0.000000 0.000000 -0.000000 1.552536
 29 11.585355 0.000000 0.000001 0.000000 0.000000 -0.876545
 30 10.125607 -0.000000 0.000001 1.569752 -0.000000 -0.000039
 31 1.533671 0.109715 1.664491 -0.233255 -0.412980 0.435685
 32 0.928314 -0.000001 0.000000 0.000000 0.000000 0.000000
 33 2.683748 -0.427340 0.044205 -0.009154 0.042652 -0.235660
 34 1.438886 0.000003 0.000000 0.000000 0.000000 0.470985
 35 2.027418 0.730720 12.541074 -1.531161 -0.031283 2.992741
time 7
  0 -0.194353 0.194353 19.873177 0.000000 0.369914 -1.570829
  1 -1.187537 0.000000 0.000000 -1.570795 -1.570787 0.000000
  2 -0.000005 0.000007 3.713254 -3.102105 0.007956 1.349258
  3 18.045725 0.000000 0.000000 -0.000000 -0.000000 -2.168602
  4 17.597599 0.000000 0.000000 0.037011 -0.015736 -0.772838
  5 0.000005 -0.000003 -3.713254 -0.008374 3.116586 -0.423798
  6 18.045721 -0.000000 -0.000001 0.000000 0.000000 -0.588951
  7 17.597593 0.000000 -0.000000 -0.021564 0.015058 -0.697810
  8 1.293338 0.684453 -0.000001 -0.000004 -0.000001 0.114184
  9 5.309647 -0.003832 -0.000000 -0.000000 0.000000 0.052475
 10 4.826592 -0.004567 -0.000000 -0.000000 0.000000 0.028980
 11 5.792761 -0.005304 -0.000000 0.000000 -0.000000 0.101679
 12 6.661936 -0.000705 0.000000 -0.000000 -0.000001 0.471000
 13 2.044495 -0.000000 -0.000000 0.000000 0.000000 -0.565719
 14 -3.112017 1.516413 4.341911 -0.000013 -1.370798 2.669809
 15 -2.869892 1.398824 -4.140396 -0.000013 1.370795 2.669783
 16 4.827231 0.000000 0.000001 -1.175407 -0.109057 -1.392740
 17 11.139763 -0.000000 -0.000000 0.000000 -0.000000 -0.581865
 18 8.575572 -8.394946 9.511936 -1.535143 -1.058019 1.499774
 19 -1.465386 0.506167 4.002137 0.034889 -0.200000 -0.000001
 20 4.972047 0.000000 0.000001 1.203733 0.221294 -1.344061
 21 -9.249866 0.683183 -1.946118 -0.000014 -1.670796 0.000014
 22 10.313008 -0.000000 0.000000 -1.570000 -0.226764 -0.000007
 23 1.646738 0.449549 -1.702246 0.287462 0.372839 0.611126
 24 0.928314 0.000000 0.000000 0.000000 0.000000 0.000000
 25 0.928314 -0.000000 -0.000000 0.000000 0.000000 0.000000
 26 2.975832 -0.386307 -0.044144 -0.019829 -0.038853 0.453927
 27 1.438890 0.000003 0.000001 -0.000000 -0.000000 0.924529
 28 1.485299 -0.000005 -0.000000 0.000000 -0.000000 1.552536
 29 11.585355 0.000000 0.000001 0.000000 0.000000 -0.640335
 30 10.125607 -0.000000 0.000001 1.569752 -0.000000 -0.000039
 31 1.533671 0.109715 1.664491 -0.233255 -0.412980 0.435685
 32 0.928314 -0.000001 0.000000 0.000000 0.000000 0.000000
 33 2.683748 -0.427340 0.044205 -0.009154 0.042652 -0.235660
 34 1.438886 0.000003 0.000000 0.000000 0.000000 0.470985
 35 2.027418 0.730720 12.541074 -1.531161 -0.031283 2.992741
time 8
  0 -0.194353 0.194353 20.779453 0.000000 0.406194 -1.570829
  1 -2.023500 0.000000 0.000000 -1.570795 -1.570787 0.000000
  2 -0.000005 0.000007 3.713254 -3.105268 0.017638 1.099990
  3 18.045725 0.000000 0.000000 -0.000000 -0.000000 -2.252757
  4 17.597599 0.000000 0.000000 0.034952 -0.020059 -0.821426
  5 0.000005 -0.000003 -3.713254 -0.012392 3.118355 -0.589955
  6 18.045721 -0.000000 -0.000001 0.000000 0.000000 -0.793897
  7 17.597593 0.000000 -0.000000 -0.020248 0.016790 -0.576162
  8 1.293338 0.684453 -0.000001 -0.000004 -0.000001 0.114184
  9 5.309647 -0.003832 -0.000000 -0.000000 0.000000 0.136052
 10 4.826592 -0.004567 -0.000000 -0.000000 0.000000 0.126209
 11 5.792761 -0.005304 -0.000000 0.000000 -0.000000 0.184522
 12 6.661936 -0.000705 0.000000 -0.000000 -0.000001 0.471000
 13 2.044495 -0.000000 -0.000000 0.000000 0.000000 -0.764825
 14 -3.112017 1.516413 4.341911 -0.000013 -1.370798 2.669809
 15 -2.869892 1.398824 -4.140396 -0.000013 1.370795 2.669783
 16 4.827231 0.000000 0.000001 -1.251296 -0.117823 -1.470712
 17 11.139763 -0.000000 -0.000000 0.000000 -0.000000 -0.376741
 18 8.575572 -8.394946 9.511936 -1.535143 -1.058019 1.499774
 19 -1.465386 0.506167 4.002137 0.034889 -0.200000 -0.000001
 20 4.972047 0.000000 0.000001 1.246926 0.152919 -1.398346
 21 -9.249866 0.683183 -1.946118 -0.000014 -1.670796 0.000014
 22 10.313008 -0.000000 0.000000 -1.570000 -0.226764 -0.000007
 23 1.646738 0.449549 -1.702246 0.287462 0.372839 0.611126
 24 0.928314 0.000000 0.000000 0.000000 0.000000 0.000000
 25 0.928314 -0.000000 -0.000000 0.000000 0.000000 0.000000
 26 2.975832 -0.386307 -0.044144 -0.019829 -0.038853 0.453927
 27 1.438890 0.000003 0.000001 -0.000000 -0.000000 0.924529
 28 1.485299 -0.000005 -0.000000 0.000000 -0.000000 1.552536
 29 11.585355 0.000000 0.000001 0.000000 0.000000 -0.431138
 30 10.125607 -0.000000 0.000001 1.569752 -0.000000 -0.000039
 31 1.533671 0.109715 1.664491 -0.233255 -0.412980 0.435685
 32 0.928314 -0.000001 0.000000 0.000000 0.000000 0.000000
 33 2.683748 -0.427340 0.044205 -0.009154 0.042652 -0.235660
 34 1.438886 0.000003 0.000000 0.000000 0.000000 0.470985
 35 2.027418 0.730720 12.541074 -1.531161 -0.031283 2.992741
time 9
  0 -0.194353 0.194353 21.365408 0.000000 0.440695 -1.570829
  1 -2.636800 0.000000 0.000000 -1.570795 -1.570787 0.000000
  2 -0.000005 0.000007 3.713254 -3.108335 0.023198 0.935755
  3 18.045725 0.000000 0.000000 -0.000000 -0.000000 -2.286003
  4 17.597599 0.000000 0.000000 0.032511 -0.024218 -0.827373
  5 0.000005 -0.000003 -3.713254 -0.016314 3.120963 -0.770552
  6 18.045721 -0.000000 -0.000001 0.000000 0.000000 -1.008986
  7 17.597593 0.000000 -0.000000 -0.018796 0.018428 -0.458322
  8 1.293338 0.684453 -0.000001 -0.000004 -0.000001 0.114184
  9 5.309647 -0.003832 -0.000000 -0.000000 0.000000 0.201891
 10 4.826592 -0.004567 -0.000000 -0.000000 0.000000 0.203143
 11 5.792761 -0.005304 -0.000000 0.000000 -0.000000 0.251399
 12 6.661936 -0.000705 0.000000 -0.000000 -0.000001 0.471000
 13 2.044495 -0.000000 -0.000000 0.000000 0.000000 -0.932114
 14 -3.112017 1.516413 4.341911 -0.000013 -1.370798 2.669809
 15 -2.869892 1.398824 -4.140396 -0.000013 1.370795 2.669783
 16 4.827231 0.000000 0.000001 -1.286523 -0.130758 -1.535033
 17 11.139763 -0.000000 -0.000000 0.000000 -0.000000 -0.219903
 18 8.575572 -8.394946 9.511936 -1.535143 -1.058019 1.499774
 19 -1.465386 0.506167 4.002137 0.034889 -0.200000 -0.000001
 20 4.972047 0.000000 0.000001 1.253521 0.105781 -1.428842
 21 -9.249866 0.683183 -1.946118 -0.000014 -1.670796 0.000014
 22 10.313008 -0.000000 0.000000 -1.570000 -0.226764 -0.000007
 23 1.646738 0.449549 -1.702246 0.287462 0.372839 0.611126
 24 0.928314 0.000000 0.000000 0.000000 0.000000 0.000000
 25 0.928314 -0.000000 -0.000000 0.000000 0.000000 0.000000
 26 2.975832 -0.386307 -0.044144 -0.019829 -0.038853 0.453927
 27 1.438890 0.000003 0.000001 -0.000000 -0.000000 0.924529
 28 1.485299 -0.000005 -0.000000 0.000000 -0.000000 1.552536
 29 11.585355 0.000000 0.000001 0.000000 0.000000 -0.278796
 30 10.125607 -0.000000 0.000001 1.569752 -0.000000 -0.000039
 31 1.533671 0.109715 1.664491 -0.233255 -0.412980 0.435685
 32 0.928314 -0.000001 0.000000 0.000000 0.000000 0.000000
 33 2.683748 -0.427340 0.044205 -0.009154 0.042652 -0.235660
 34 1.438886 0.000003 0.000000 0.000000 0.000000 0.470985
 35 2.027418 0.730720 12.541074 -1.531161 -0.031283 2.992741
time 10
  0 -0.194353 0.194353 21.396660 0.000000 0.470929 -1.570829
  1 -3.003999 0.000000 0.000000 -1.570795 -1.570787 0.000000
  2 -0.000005 0.000007 3.713254 -3.109293 0.025116 0.870439
  3 18.045725 0.000000 0.000000 -0.000000 -0.000000 -2.268415
  4 17.597599 0.000000 0.000000 0.029995 -0.027770 -0.788439
  5 0.000005 -0.000003 -3.713254 -0.020045 3.124502 -0.966849
  6 18.045721 -0.000000 -0.000001 0.000000 0.000000 -1.228710
  7 17.597593 0.000000 -0.000000 -0.017480 0.019669 -0.366143
  8 1.293338 0.684453 -0.000001 -0.000004 -0.000001 0.114184
  9 5.309647 -0.003832 -0.000000 -0.000000 0.000000 0.244219
 10 4.826592 -0.004567 -0.000000 -0.000000 0.000000 0.252930
 11 5.792761 -0.005304 -0.000000 0.000000 -0.000000 0.296537
 12 6.661936 -0.000705 0.000000 -0.000000 -0.000001 0.471000
 13 2.044495 -0.000000 -0.000000 0.000000 0.000000 -1.055046
 14 -3.112017 1.516413 4.341911 -0.000013 -1.370798 2.669809
 15 -2.869892 1.398824 -4.140396 -0.000013 1.370795 2.669783
 16 4.827231 0.000000 0.000001 -1.231228 -0.193647 -1.453998
 17 11.139763 -0.000000 -0.000000 0.000000 -0.000000 -0.200000
 18 8.575572 -8.394946 9.511936 -1.535143 -1.058019 1.499774
 19 -1.465386 0.506167 4.002137 0.034889 -0.200000 -0.000001
 20 4.972047 0.000000 0.000001 1.236244 0.094841 -1.419015
 21 -9.249866 0.683183 -1.946118 -0.000014 -1.670796 0.000014
 22 10.313008 -0.000000 0.000000 -1.570000 -0.226764 -0.000007
 23 1.646738 0.449549 -1.702246 0.287462 0.372839 0.611126
 24 0.928314 0.000000 0.000000 0.000000 0.000000 0.000000
 25 0.928314 -0.000000 -0.000000 0.000000 0.000000 0.000000
 26 2.975832 -0.386307 -0.044144 -0.019829 -0.038853 0.453927
 27 1.438890 0.000003 0.000001 -0.000000 -0.000000 0.924529
 28 1.485299 -0.000005 -0.000000 0.000000 -0.000000 1.552536
 29 11.585355 0.000000 0.000001 0.000000 0.000000 -0.200000
 30 10.125607 -0.000000 0.000001 1.569752 -0.000000 -0.000039
 31 1.533671 0.109715 1.664491 -0.233255 -0.412980 0.435685
 32 0.928314 -0.000001 0.000000 0.000000 0.000000 0.000000
 33 2.683748 -0.427340 0.044205 -0.009154 0.042652 -0.235660
 34 1.438886 0.000003 0.000000 0.000000 0.000000 0.470985
 35 2.027418 0.730720 12.541074 -1.531161 -0.031283 2.992741
time 11
  0 -0.194353 0.194353 20.521633 0.000000 0.491647 -1.570829
  1 -3.254007 0.000000 0.000000 -1.570795 -1.570787 0.000000
  2 -0.000005 0.000007 3.713254 -3.107664 0.023678 0.900839
  3 18.045725 0.000000 0.000000 -0.000000 -0.000000 -2.195392
  4 17.597599 0.000000 0.000000 0.027275 -0.031075 -0.706499
  5 0.000005 -0.000003 -3.713254 -0.023584 3.130183 -1.219549
  6 18.045721 -0.000000 -0.000001 0.000000 0.000000 -1.492771
  7 17.597593 0.000000 -0.000000 -0.016504 0.020371 -0.311235
  8 1.293338 0.684453 -0.000001 -0.000004 -0.000001 0.123329
  9 5.309647 -0.003832 -0.000000 -0.000000 0.000000 0.265512
 10 4.826592 -0.004567 -0.000000 -0.000000 0.000000 0.278538
 11 5.792761 -0.005304 -0.000000 0.000000 -0.000000 0.322408
 12 6.661936 -0.000705 0.000000 -0.000000 -0.000001 0.471000
 13 2.044495 -0.000000 -0.000000 0.000000 0.000000 -1.148430
 14 -3.112017 1.516413 4.341911 -0.000013 -1.370798 2.669809
 15 -2.869892 1.398824 -4.140396 -0.000013 1.370795 2.669783
 16 4.827231 0.000000 0.000001 -1.177861 -0.293726 -1.326319
 17 11.139763 -0.000000 -0.000000 0.000000 -0.000000 -0.254522
 18 8.575572 -8.394946 9.511936 -1.535143 -1.058019 1.499774
 19 -1.465386 0.506167 4.002137 0.034889 -0.200000 -0.000001
 20 4.972047 0.000000 0.000001 1.207355 0.119053 -1.369097
 21 -9.249866 0.683183 -1.946118 -0.000014 -1.670796 0.000014
 22 10.313008 -0.000000 0.000000 -1.570000 -0.226764 -0.000007
 23 1.646738 0.449549 -1.702246 0.287462 0.372839 0.611126
 24 0.928314 0.000000 0.000000 0.000000 0.000000 0.000000
 25 0.928314 -0.000000 -0.000000 0.000000 0.000000 0.000000
 26 2.975832 -0.386307 -0.044144 -0.019829 -0.038853 0.453927
 27 1.438890 0.000003 0.000001 -0.000000 -0.000000 0.924529
 28 1.485299 -0.000005 -0.000000 0.000000 -0.000000 1.552536
 29 11.585355 0.000000 0.000001 0.000000 0.000000 -0.186907
 30 10.125607 -0.000000 0.000001 1.569752 -0.000000 -0.000039
 31 1.533671 0.109715 1.664491 -0.233255 -0.412980 0.435685
 32 0.928314 -0.000001 0.000000 0.000000 0.000000 0.000000
 33 2.683748 -0.427340 0.044205 -0.009154 0.042652 -0.235660
 34 1.438886 0.000003 0.000000 0.000000 0.000000 0.470985
 35 2.027418 0.730720 12.541074 -1.531161 -0.031283 2.992741
time 12
  0 -0.194353 0.194353 19.064558 0.000000 0.504185 -1.570829
  1 -3.425887 0.000000 0.000000 -1.570795 -1.570787 0.000000
  2 -0.000005 0.000007 3.713254 -3.104884 0.020323 0.981111
  3 18.045725 0.000000 0.000000 -0.000000 -0.000000 -2.090978
  4 17.597599 0.000000 0.000000 0.024200 -0.034241 -0.604520
  5 0.000005 -0.000003 -3.713254 -0.025785 3.138378 -1.539168
  6 18.045721 -0.000000 -0.000001 0.000000 0.000000 -1.816961
  7 17.597593 0.000000 -0.000000 -0.015619 0.020839 -0.275185
  8 1.293338 0.684453 -0.000001 -0.000004 -0.000001 0.133622
  9 5.309647 -0.003832 -0.000000 -0.000000 0.000000 0.276039
 10 4.826592 -0.004567 -0.000000 -0.000000 0.000000 0.291763
 11 5.792761 -0.005304 -0.000000 0.000000 -0.000000 0.338270
 12 6.661936 -0.000705 0.000000 -0.000000 -0.000001 0.471000
 13 2.044495 -0.000000 -0.000000 0.000000 0.000000 -1.221602
 14 -3.112017 1.516413 4.341911 -0.000013 -1.370798 2.669809
 15 -2.869892 1.398824 -4.140396 -0.000013 1.370795 2.669783
 16 4.827231 0.000000 0.000001 -1.139479 -0.372869 -1.189626
 17 11.139763 -0.000000 -0.000000 0.000000 -0.000000 -0.312688
 18 8.575572 -8.394946 9.511936 -1.535143 -1.058019 1.499774
 19 -1.465386 0.506167 4.002137 0.034889 -0.200000 -0.000001
 20 4.972047 0.000000 0.000001 1.177166 0.150747 -1.297965
 21 -9.249866 0.683183 -1.946118 -0.000014 -1.670796 0.000014
 22 10.313008 -0.000000 0.000000 -1.570000 -0.226764 -0.000007
 23 1.646738 0.449549 -1.702246 0.287462 0.372839 0.611126
 24 0.928314 0.000000 0.000000 0.000000 0.000000 0.000000
 25 0.928314 -0.000000 -0.000000 0.000000 0.000000 0.000000
 26 2.975832 -0.386307 -0.044144 -0.019829 -0.038853 0.453927
 27 1.438890 0.000003 0.000001 -0.000000 -0.000000 0.924529
 28 1.485299 -0.000005 -0.000000 0.000000 -0.000000 1.552536
 29 11.585355 0.000000 0.000001 0.000000 0.000000 -0.205013
 30 10.125607 -0.000000 0.000001 1.569752 -0.000000 -0.000039
 31 1.533671 0.109715 1.664491 -0.233255 -0.412980 0.435685
 32 0.928314 -0.000001 0.000000 0.000000 0.000000 0.000000
 33 2.683748 -0.427340 0.044205 -0.009154 0.042652 -0.235660
 34 1.438886 0.000003 0.000000 0.000000 0.000000 0.470985
 35 2.027418 0.730720 12.541074 -1.531161 -0.031283 2.992741
time 13
  0 -0.194353 0.194353 17.212938 0.000000 0.511566 -1.570829
  1 -3.550891 0.000000 0.000000 -1.570795 -1.570787 0.000000
  2 -0.000005 0.000007 3.713254 -3.102105 0.016105 1.081585
  3 18.045725 0.000000 0.000000 -0.000000 -0.000000 -1.976471
  4 17.597599 0.000000 0.000000 0.020921 -0.037105 -0.497006
  5 0.000005 -0.000003 -3.713254 3.116244 -0.005570 1.270724
  6 18.045721 -0.000000 -0.000001 0.000000 0.000000 -2.144556
  7 17.597593 0.000000 -0.000000 -0.014689 0.021378 -0.245752
  8 1.293338 0.684453 -0.000001 -0.000004 -0.000001 0.144058
  9 5.309647 -0.003832 -0.000000 -0.000000 0.000000 0.280973
 10 4.826592 -0.004567 -0.000000 -0.000000 0.000000 0.298504
 11 5.792761 -0.005304 -0.000000 0.000000 -0.000000 0.348693
 12 6.661936 -0.000705 0.000000 -0.000000 -0.000001 0.471000
 13 2.044495 -0.000000 -0.000000 0.000000 0.000000 -1.281967
 14 -3.112017 1.516413 4.341911 -0.000013 -1.370798 2.669809
 15 -2.869892 1.398824 -4.140396 -0.000013 1.370795 2.669783
 16 4.827231 0.000000 0.000001 -1.112313 -0.437801 -1.050308
 17 11.139763 -0.000000 -0.000000 0.000000 -0.000000 -0.369313
 18 8.575572 -8.394946 9.511936 -1.535143 -1.058019 1.499774
 19 -1.465386 0.506167 4.002137 0.034889 -0.200000 -0.000001
 20 4.972047 0.000000 0.000001 1.150415 0.186302 -1.219657
 21 -9.249866 0.683183 -1.946118 -0.000014 -1.670796 0.000014
 22 10.313008 -0.000000 0.000000 -1.570000 -0.226764 -0.000007
 23 1.646738 0.449549 -1.702246 0.287462 0.372839 0.611126
 24 0.928314 0.000000 0.000000 0.000000 0.000000 0.000000
 25 0.928314 -0.000000 -0.000000 0.000000 0.000000 0.000000
 26 2.975832 -0.386307 -0.044144 -0.019829 -0.038853 0.453927
 27 1.438890 0.000003 0.000001 -0.000000 -0.000000 0.924529
 28 1.485299 -0.000005 -0.000000 0.000000 -0.000000 1.552536
 29 11.585355 0.000000 0.000001 0.000000 0.000000 -0.237452
 30 10.125607 -0.000000 0.000001 1.569752 -0.000000 -0.000039
 31 1.533671 0.109715 1.664491 -0.233255 -0.412980 0.435685
 32 0.928314 -0.000001 0.000000 0.000000 0.000000 0.000000
 33 2.683748 -0.427340 0.044205 -0.009154 0.042652 -0.235660
 34 1.438886 0.000003 0.000000 0.000000 0.000000 0.470985
 35 2.027418 0.730720 12.541074 -1.531161 -0.031283 2.992741
time 14
  0 -0.194353 0.194353 14.966776 0.000000 0.515567 -1.570829
  1 -3.656363 0.000000 0.000000 -1.570795 -1.570787 0.000000
  2 -0.000005 0.000007 3.713254 -3.099613 0.011024 1.195511
  3 18.045725 0.000000 0.000000 -0.000000 -0.000000 -1.854320
  4 17.597599 0.000000 0.000000 0.017286 -0.039832 -0.383864
  5 0.000005 -0.000003 -3.713254 3.118636 -0.012182 0.996848
  6 18.045721 -0.000000 -0.000001 0.000000 0.000000 -2.403474
  7 17.597593 0.000000 -0.000000 -0.013577 0.022197 -0.207409
  8 1.293338 0.684453 -0.000001 -0.000004 -0.000001 0.154781
  9 5.309647 -0.003832 -0.000000 -0.000000 0.000000 0.282711
 10 4.826592 -0.004567 -0.000000 -0.000000 0.000000 0.301618
 11 5.792761 -0.005304 -0.000000 0.000000 -0.000000 0.356126
 12 6.661936 -0.000705 0.000000 -0.000000 -0.000001 0.471000
 13 2.044495 -0.000000 -0.000000 0.000000 0.000000 -1.335996
 14 -3.112017 1.516413 4.341911 -0.000013 -1.370798 2.669809
 15 -2.869892 1.398824 -4.140396 -0.000013 1.370795 2.669783
 16 4.827231 0.000000 0.000001 -1.094612 -0.494053 -0.911603
 17 11.139763 -0.000000 -0.000000 0.000000 -0.000000 -0.423625
 18 8.575572 -8.394946 9.511936 -1.535143 -1.058019 1.499774
 19 -1.465386 0.506167 4.002137 0.034889 -0.200000 -0.000001
 20 4.972047 0.000000 0.000001 1.127100 0.225879 -1.135734
 21 -9.249866 0.683183 -1.946118 -0.000014 -1.670796 0.000014
 22 10.313008 -0.000000 0.000000 -1.570000 -0.226764 -0.000007
 23 1.646738 0.449549 -1.702246 0.287462 0.372839 0.611126
 24 0.928314 0.000000 0.000000 0.000000 0.000000 0.000000
 25 0.928314 -0.000000 -0.000000 0.000000 0.000000 0.000000
 26 2.975832 -0.386307 -0.044144 -0.019829 -0.038853 0.453927
 27 1.438890 0.000003 0.000001 -0.000000 -0.000000 0.924529
 28 1.485299 -0.000005 -0.000000 0.000000 -0.000000 1.552536
 29 11.585355 0.000000 0.000001 0.000000 0.000000 -0.278914
 30 10.125607 -0.000000 0.000001 1.569752 -0.000000 -0.000039
 31 1.533671 0.109715 1.664491 -0.233255 -0.412980 0.435685
 32 0.928314 -0.000001 0.000000 0.000000 0.000000 0.000000
 33 2.683748 -0.427340 0.044205 -0.009154 0.042652 -0.235660
 34 1.438886 0.000003 0.000000 0.000000 0.000000 0.470985
 35 2.027418 0.730720 12.541074 -1.531161 -0.031283 2.992741
time 15
  0 -0.194353 0.194353 12.212786 0.000000 0.516723 -1.570829
  1 -3.750115 0.000000 0.000000 -1.570795 -1.570787 0.000000
  2 -0.000005 0.000007 3.713254 -3.097408 0.004889 1.327162
  3 18.045725 0.000000 0.000000 -0.000000 -0.000000 -1.718589
  4 17.597599 0.000000 0.000000 0.012888 -0.042530 -0.258186
  5 0.000005 -0.000003 -3.713254 3.119880 -0.014790 0.870522
  6 18.045721 -0.000000 -0.000001 0.000000 0.000000 -2.501419
  7 17.597593 0.000000 -0.000000 -0.011897 0.023484 -0.140262
  8 1.293338 0.684453 -0.000001 -0.000004 -0.000001 0.166526
  9 5.309647 -0.003832 -0.000000 -0.000000 0.000000 0.282192
 10 4.826592 -0.004567 -0.000000 -0.000000 0.000000 0.302204
 11 5.792761 -0.005304 -0.000000 0.000000 -0.000000 0.361878
 12 6.661936 -0.000705 0.000000 -0.000000 -0.000001 0.471000
 13 2.044495 -0.000000 -0.000000 0.000000 0.000000 -1.389091
 14 -3.112017 1.516413 4.341911 -0.000013 -1.370798 2.669809
 15 -2.869892 1.398824 -4.140396 -0.000013 1.370795 2.669783
 16 4.827231 0.000000 0.000001 -1.085323 -0.544007 -0.775523
 17 11.139763 -0.000000 -0.000000 0.000000 -0.000000 -0.475063
 18 8.575572 -8.394946 9.511936 -1.535143 -1.058019 1.499774
 19 -1.465386 0.506167 4.002137 0.034889 -0.200000 -0.000001
 20 4.972047 0.000000 0.000001 1.106385 0.271891 -1.041437
 21 -9.249866 0.683183 -1.946118 -0.000014 -1.670796 0.000014
 22 10.313008 -0.000000 0.000000 -1.570000 -0.226764 -0.000007
 23 1.646738 0.449549 -1.702246 0.287462 0.372839 0.611126
 24 0.928314 0.000000 0.000000 0.000000 0.000000 0.000000
 25 0.928314 -0.000000 -0.000000 0.000000 0.000000 0.000000
 26 2.975832 -0.386307 -0.044144 -0.019829 -0.038853 0.453927
 27 1.438890 0.000003 0.000001 -0.000000 -0.000000 0.924529
 28 1.485299 -0.000005 -0.000000 0.000000 -0.000000 1.552536
 29 11.585355 0.000000 0.000001 0.000000 0.000000 -0.330225
 30 10.125607 -0.000000 0.000001 1.569752 -0.000000 -0.000039
 31 1.533671 0.109715 1.664491 -0.233255 -0.412980 0.435685
 32 0.928314 -0.000001 0.000000 0.000000 0.000000 0.000000
 33 2.683748 -0.427340 0.044205 -0.009154 0.042652 -0.235660
 34 1.438886 0.000003 0.000000 0.000000 0.000000 0.470985
 35 2.027418 0.730720 12.541074 -1.531161 -0.031283 2.992741
time 16
  0 -0.194353 0.194353 8.829870 0.000000 0.514945 -1.570829
  1 -3.847775 0.000000 0.000000 -1.570795 -1.570787 0.000000
  2 -0.000005 0.000007 3.713254 -3.095875 -0.002780 1.484454
  3 18.045725 0.000000 0.000000 -0.000000 -0.000000 -1.561188
  4 17.597599 0.000000 0.000000 0.007296 -0.045174 -0.111005
  5 0.000005 -0.000003 -3.713254 3.117488 -0.011996 0.973153
  6 18.045721 -0.000000 -0.000001 0.000000 0.000000 -2.346460
  7 17.597593 0.000000 -0.000000 -0.009152 0.025287 -0.037804
  8 1.293338 0.684453 -0.000001 -0.000004 -0.000001 0.180118
  9 5.309647 -0.003832 -0.000000 -0.000000 0.000000 0.279535
 10 4.826592 -0.004567 -0.000000 -0.000000 0.000000 0.300446
 11 5.792761 -0.005304 -0.000000 0.000000 -0.000000 0.366508
 12 6.661936 -0.000705 0.000000 -0.000000 -0.000001 0.471000
 13 2.044495 -0.000000 -0.000000 0.000000 0.000000 -1.445054
 14 -3.112017 1.516413 4.341911 -0.000013 -1.370798 2.669809
 15 -2.869892 1.398824 -4.140396 -0.000013 1.370795 2.669783
 16 4.827231 0.000000 0.000001 -1.083482 -0.588004 -0.644607
 17 11.139763 -0.000000 -0.000000 0.000000 -0.000000 -0.522858
 18 8.575572 -8.394946 9.511936 -1.535143 -1.058019 1.499774
 19 -1.465386 0.506167 4.002137 0.034889 -0.200000 -0.000001
 20 4.972047 0.000000 0.000001 1.088551 0.327798 -0.929981
 21 -9.249866 0.683183 -1.946118 -0.000014 -1.670796 0.000014
 22 10.313008 -0.000000 0.000000 -1.570000 -0.226764 -0.000007
 23 1.646738 0.449549 -1.702246 0.287462 0.372839 0.611126
 24 0.928314 0.000000 0.000000 0.000000 0.000000 0.000000
 25 0.928314 -0.000000 -0.000000 0.000000 0.000000 0.000000
 26 2.975832 -0.386307 -0.044144 -0.019829 -0.038853 0.453927
 27 1.438890 0.000003 0.000001 -0.000000 -0.000000 0.924529
 28 1.485299 -0.000005 -0.000000 0.000000 -0.000000 1.552536
 29 11.585355 0.000000 0.000001 0.000000 0.000000 -0.394630
 30 10.125607 -0.000000 0.000001 1.569752 -0.000000 -0.000039
 31 1.533671 0.109715 1.664491 -0.233255 -0.412980 0.435685
 32 0.928314 -0.000001 0.000000 0.000000 0.000000 0.000000
 33 2.683748 -0.427340 0.044205 -0.009154 0.042652 -0.235660
 34 1.438886 0.000003 0.000000 0.000000 0.000000 0.470985
 35 2.027418 0.730720 12.541074 -1.531161 -0.031283 2.992741
time 17
  0 -0.194353 0.194353 4.778965 0.000000 0.510410 -1.570829
  1 -3.945434 0.000000 0.000000 -1.570795 -1.570787 0.000000
  2 -0.000005 0.000007 3.713254 0.045862 -3.129681 -1.470432
  3 18.045725 0.000000 0.000000 -0.000000 -0.000000 -1.379446
  4 17.597599 0.000000 0.000000 -0.000075 -0.047460 0.063581
  5 0.000005 -0.000003 -3.713254 3.113948 -0.004453 1.241262
  6 18.045721 -0.000000 -0.000001 0.000000 0.000000 -2.002710
  7 17.597593 0.000000 -0.000000 -0.004999 0.027510 0.090241
  8 1.293338 0.684453 -0.000001 -0.000004 -0.000001 0.196077
  9 5.309647 -0.003832 -0.000000 -0.000000 0.000000 0.274721
 10 4.826592 -0.004567 -0.000000 -0.000000 0.000000 0.296489
 11 5.792761 -0.005304 -0.000000 0.000000 -0.000000 0.370266
 12 6.661936 -0.000705 0.000000 -0.000000 -0.000001 0.471000
 13 2.044495 -0.000000 -0.000000 0.000000 0.000000 -1.505887
 14 -3.112017 1.516413 4.341911 -0.000013 -1.370798 2.669809
 15 -2.869892 1.398824 -4.140396 -0.000013 1.370795 2.669783
 16 4.827231 0.000000 0.000001 -1.087426 -0.626044 -0.521041
 17 11.139763 -0.000000 -0.000000 0.000000 -0.000000 -0.566518
 18 8.575572 -8.394946 9.511936 -1.535143 -1.058019 1.499774
 19 -1.465386 0.506167 4.002137 0.034889 -0.200000 -0.000001
 20 4.972047 0.000000 0.000001 1.076382 0.395770 -0.796218
 21 -9.249866 0.683183 -1.946118 -0.000014 -1.670796 0.000014
 22 10.313008 -0.000000 0.000000 -1.570000 -0.226764 -0.000007
 23 1.646738 0.449549 -1.702246 0.287462 0.372839 0.611126
 24 0.928314 0.000000 0.000000 0.000000 0.000000 0.000000
 25 0.928314 -0.000000 -0.000000 0.000000 0.000000 0.000000
 26 2.975832 -0.386307 -0.044144 -0.019829 -0.038853 0.453927
 27 1.438890 0.000003 0.000001 -0.000000 -0.000000 0.924529
 28 1.485299 -0.000005 -0.000000 0.000000 -0.000000 1.552536
 29 11.585355 0.000000 0.000001 0.000000 0.000000 -0.474310
 30 10.125607 -0.000000 0.000001 1.569752 -0.000000 -0.000039
 31 1.533671 0.109715 1.664491 -0.233255 -0.412980 0.435685
 32 0.928314 -0.000001 0.000000 0.000000 0.000000 0.000000
 33 2.683748 -0.427340 0.044205 -0.009154 0.042652 -0.235660
 34 1.438886 0.000003 0.000000 0.000000 0.000000 0.470985
 35 2.027418 0.730720 12.541074 -1.531161 -0.031283 2.992741
time 18
  0 -0.194353 0.194353 0.321798 0.000000 0.504719 -1.570829
  1 -4.050906 0.000000 0.000000 -1.570795 -1.570787 0.000000
  2 -0.000005 0.000007 3.713254 0.044520 -3.119711 -1.269240
  3 18.045725 0.000000 0.000000 -0.000000 -0.000000 -1.188947
  4 17.597599 0.000000 0.000000 -0.009099 -0.048754 0.259349
  5 0.000005 -0.000003 -3.713254 -0.028846 3.133721 -1.495945
  6 18.045721 -0.000000 -0.000001 0.000000 0.000000 -1.503638
  7 17.597593 0.000000 -0.000000 0.001650 0.029874 0.255002
  8 1.293338 0.684453 -0.000001 -0.000004 -0.000001 0.213829
  9 5.309647 -0.003832 -0.000000 -0.000000 0.000000 0.268768
 10 4.826592 -0.004567 -0.000000 -0.000000 0.000000 0.291360
 11 5.792761 -0.005304 -0.000000 0.000000 -0.000000 0.373879
 12 6.661936 -0.000705 0.000000 -0.000000 -0.000001 0.471000
 13 2.044495 -0.000000 -0.000000 0.000000 0.000000 -1.570121
 14 -3.112017 1.516413 4.341911 -0.000013 -1.370798 2.669809
 15 -2.869892 1.398824 -4.140396 -0.000013 1.370795 2.669783
 16 4.827231 0.000000 0.000001 -1.097328 -0.659233 -0.403951
 17 11.139763 -0.000000 -0.000000 0.000000 -0.000000 -0.606463
 18 8.575572 -8.394946 9.511936 -1.535143 -1.058019 1.499774
 19 -1.465386 0.506167 4.002137 0.034889 -0.200000 -0.000001
 20 4.972047 0.000000 0.000001 1.075175 0.471385 -0.643580
 21 -9.249866 0.683183 -1.946118 -0.000014 -1.670796 0.000014
 22 10.313008 -0.000000 0.000000 -1.570000 -0.226764 -0.000007
 23 1.646738 0.449549 -1.702246 0.287462 0.372839 0.611126
 24 0.928314 0.000000 0.000000 0.000000 0.000000 0.000000
 25 0.928314 -0.000000 -0.000000 0.000000 0.000000 0.000000
 26 2.975832 -0.386307 -0.044144 -0.019829 -0.038853 0.453927
 27 1.438890 0.000003 0.000001 -0.000000 -0.000000 0.924529
 28 1.485299 -0.000005 -0.000000 0.000000 -0.000000 1.552536
 29 11.585355 0.000000 0.000001 0.000000 0.000000 -0.564489
 30 10.125607 -0.000000 0.000001 1.569752 -0.000000 -0.000039
 31 1.533671 0.109715 1.664491 -0.233255 -0.412980 0.435685
 32 0.928314 -0.000001 0.000000 0.000000 0.000000 0.000000
 33 2.683748 -0.427340 0.044205 -0.009154 0.042652 -0.235660
 34 1.438886 0.000003 0.000000 0.000000 0.000000 0.470985
 35 2.027418 0.730720 12.541074 -1.531161 -0.031283 2.992741
time 19
  0 -0.194353 0.194353 -3.600197 0.000000 0.503207 -1.570829
  1 -4.168097 0.000000 0.000000 -1.570795 -1.570787 0.000000
  2 -0.000005 0.000007 3.713254 0.042603 -3.111946 -1.115105
  3 18.045725 0.000000 0.000000 -0.000000 -0.000000 -1.050247
  4 17.597599 0.000000 0.000000 -0.017894 -0.048754 0.439425
  5 0.000005 -0.000003 -3.713254 -0.026072 3.121987 -1.115852
  6 18.045721 -0.000000 -0.000001 0.000000 0.000000 -1.051583
  7 17.597593 0.000000 -0.000000 0.010114 0.031021 0.439397
  8 1.293338 0.684453 -0.000001 -0.000004 -0.000001 0.230092
  9 5.309647 -0.003832 -0.000000 -0.000000 0.000000 0.266052
 10 4.826592 -0.004567 -0.000000 -0.000000 0.000000 0.289858
 11 5.792761 -0.005304 -0.000000 0.000000 -0.000000 0.379941
 12 6.661936 -0.000705 0.000000 -0.000000 -0.000001 0.471000
 13 2.044495 -0.000000 -0.000000 0.000000 0.000000 -1.630620
 14 -3.112017 1.516413 4.341911 -0.000013 -1.370798 2.669809
 15 -2.869892 1.398824 -4.140396 -0.000013 1.370795 2.669783
 16 4.827231 0.000000 0.000001 -1.116344 -0.689529 -0.284585
 17 11.139763 -0.000000 -0.000000 0.000000 -0.000000 -0.649702
 18 8.575572 -8.394946 9.511936 -1.535143 -1.058019 1.499774
 19 -1.465386 0.506167 4.002137 0.034889 -0.200000 -0.000001
 20 4.972047 0.000000 0.000001 1.087808 0.532922 -0.501238
 21 -9.249866 0.683183 -1.946118 -0.000014 -1.670796 0.000014
 22 10.313008 -0.000000 0.000000 -1.570000 -0.226764 -0.000007
 23 1.646738 0.449549 -1.702246 0.287462 0.372839 0.611126
 24 0.928314 0.000000 0.000000 0.000000 0.000000 0.000000
 25 0.928314 -0.000000 -0.000000 0.000000 0.000000 0.000000
 26 2.975832 -0.386307 -0.044144 -0.019829 -0.038853 0.453927
 27 1.438890 0.000003 0.000001 -0.000000 -0.000000 0.924529
 28 1.485299 -0.000005 -0.000000 0.000000 -0.000000 1.552536
 29 11.585355 0.000000 0.000001 0.000000 0.000000 -0.640217
 30 10.125607 -0.000000 0.000001 1.569752 -0.000000 -0.000039
 31 1.533671 0.109715 1.664491 -0.233255 -0.412980 0.435685
 32 0.928314 -0.000001 0.000000 0.000000 0.000000 0.000000
 33 2.683748 -0.427340 0.044205 -0.009154 0.042652 -0.235660
 34 1.438886 0.000003 0.000000 0.000000 0.000000 0.470985
 35 2.027418 0.730720 12.541074 -1.531161 -0.031283 2.992741
time 20
  0 -0.194353 0.194353 -9.037863 0.000000 0.511833 -1.570829
  1 -4.293101 0.000000 0.000000 -1.570795 -1.570787 0.000000
  2 -0.000005 0.000007 3.713254 0.057364 -3.117985 -1.388654
  3 18.045725 0.000000 0.000000 -0.000000 -0.000000 -1.543748
  4 17.597599 0.000000 0.000000 -0.018631 -0.059163 0.668134
  5 0.000005 -0.000003 -3.713254 -0.035734 3.125712 -1.389486
  6 18.045721 -0.000000 -0.000001 0.000000 0.000000 -1.545076
  7 17.597593 0.000000 -0.000000 0.010659 0.037669 0.667903
  8 1.293338 0.684453 -0.000001 -0.000004 -0.000001 0.246195
  9 5.309647 -0.003832 -0.000000 -0.000000 0.000000 0.265353
 10 4.826592 -0.004567 -0.000000 -0.000000 0.000000 0.290994
 11 5.792761 -0.005304 -0.000000 0.000000 -0.000000 0.388496
 12 6.661936 -0.000705 0.000000 -0.000000 -0.000001 0.471000
 13 2.044495 -0.000000 -0.000000 0.000000 0.000000 -1.597002
 14 -3.112017 1.516413 4.341911 -0.000013 -1.370798 2.669809
 15 -2.869892 1.398824 -4.140396 -0.000013 1.370795 2.669783
 16 4.827231 0.000000 0.000001 -1.105040 -0.702379 -0.192349
 17 11.139763 -0.000000 -0.000000 0.000000 -0.000000 -0.719221
 18 8.575572 -8.394946 9.511936 -1.535143 -1.058019 1.499774
 19 -1.465386 0.506167 4.002137 0.034889 -0.200000 -0.000001
 20 4.972047 0.000000 0.000001 1.077776 0.552308 -0.435487
 21 -9.249866 0.683183 -1.946118 -0.000014 -1.670796 0.000014
 22 10.313008 -0.000000 0.000000 -1.570000 -0.226764 -0.000007
 23 1.646738 0.449549 -1.702246 0.287462 0.372839 0.611126
 24 0.928314 0.000000 0.000000 0.000000 0.000000 0.000000
 25 0.928314 -0.000000 -0.000000 0.000000 0.000000 0.000000
 26 2.975832 -0.386307 -0.044144 -0.019829 -0.038853 0.453927
 27 1.438890 0.000003 0.000001 -0.000000 -0.000000 0.924529
 28 1.485299 -0.000005 -0.000000 0.000000 -0.000000 1.552536
 29 11.585355 0.000000 0.000001 0.000000 0.000000 -0.707689
 30 10.125607 -0.000000 0.000001 1.569752 -0.000000 -0.000039
 31 1.533671 0.109715 1.664491 -0.233255 -0.412980 0.435685
 32 0.928314 -0.000001 0.000000 0.000000 0.000000 0.000000
 33 2.683748 -0.427340 0.044205 -0.009154 0.042652 -0.235660
 34 1.438886 0.000003 0.000000 0.000000 0.000000 0.470985
 35 2.027418 0.730720 12.541074 -1.531161 -0.031283 2.992741
time 21
  0 -0.194353 0.194353 -14.479435 0.000000 0.459191 -1.570829
  1 -4.558734 0.000000 0.000000 -1.570795 -1.570787 0.000000
  2 -0.000005 0.000007 3.713254 -3.065970 -0.017734 1.564144
  3 18.045725 0.000000 0.000000 -0.000000 -0.000000 -1.941369
  4 17.597599 0.000000 0.000000 -0.017131 -0.075686 0.824465
  5 0.000005 -0.000003 -3.713254 3.094050 0.012404 1.563013
  6 18.045721 -0.000000 -0.000001 0.000000 0.000000 -1.942870
  7 17.597593 0.000000 -0.000000 0.009570 0.048156 0.824049
  8 1.293338 0.684453 -0.000001 -0.000004 -0.000001 0.288620
  9 5.309647 -0.003832 -0.000000 -0.000000 0.000000 0.254546
 10 4.826592 -0.004567 -0.000000 -0.000000 0.000000 0.280370
 11 5.792761 -0.005304 -0.000000 0.000000 -0.000000 0.395804
 12 6.661936 -0.000705 0.000000 -0.000000 -0.000001 0.471000
 13 2.044495 -0.000000 -0.000000 0.000000 0.000000 -1.423043
 14 -3.112017 1.516413 4.341911 -0.000013 -1.370798 2.669809
 15 -2.869892 1.398824 -4.140396 -0.000013 1.370795 2.669783
 16 4.827231 0.000000 0.000001 -0.800610 -0.464097 -0.561558
 17 11.139763 -0.000000 -0.000000 0.000000 -0.000000 -0.822449
 18 8.575572 -8.394946 9.511936 -1.535143 -1.058019 1.499774
 19 -1.465386 0.506167 4.002137 0.034889 -0.200000 -0.000001
 20 4.972047 0.000000 0.000001 0.876021 0.362790 -0.744351
 21 -9.249866 0.683183 -1.946118 -0.000014 -1.670796 0.000014
 22 10.313008 -0.000000 0.000000 -1.570000 -0.226764 -0.000007
 23 1.646738 0.449549 -1.702246 0.287462 0.372839 0.611126
 24 0.928314 0.000000 0.000000 0.000000 0.000000 0.000000
 25 0.928314 -0.000000 -0.000000 0.000000 0.000000 0.000000
 26 2.975832 -0.386307 -0.044144 -0.019829 -0.038853 0.453927
 27 1.438890 0.000003 0.000001 -0.000000 -0.000000 0.924529
 28 1.485299 -0.000005 -0.000000 0.000000 -0.000000 1.552536
 29 11.585355 0.000000 0.000001 0.000000 0.000000 -0.807776
 30 10.125607 -0.000000 0.000001 1.569752 -0.000000 -0.348884
 31 1.533671 0.109715 1.664491 -0.233255 -0.412980 0.435685
 32 0.928314 -0.000001 0.000000 0.000000 0.000000 0.000000
 33 2.683748 -0.427340 0.044205 -0.009154 0.042652 -0.235660
 34 1.438886 0.000003 0.000000 0.000000 0.000000 0.470985
 35 2.027418 0.730720 12.541074 -1.531161 -0.031283 2.992741
time 22
  0 -0.194353 0.194353 -22.444523 0.000000 0.318606 -1.570829
  1 -5.949401 0.000000 0.000000 -1.570795 -1.570787 0.000000
  2 -0.000005 0.000007 3.713254 -3.017758 0.001150 1.256991
  3 18.045725 0.000000 0.000000 -0.000000 -0.000000 -2.410529
  4 17.597599 0.000000 0.000000 -0.001804 -0.123767 0.844732
  5 0.000005 -0.000003 -3.713254 3.062863 0.000483 1.254055
  6 18.045721 -0.000000 -0.000001 0.000000 0.000000 -2.412964
  7 17.597593 0.000000 -0.000000 -0.000302 0.078655 0.844163
  8 1.293338 0.684453 -0.000001 -0.000004 -0.000001 0.490904
  9 5.309647 -0.003832 -0.000000 -0.000000 0.000000 0.247075
 10 4.826592 -0.004567 -0.000000 -0.000000 0.000000 0.276889
 11 5.792761 -0.005304 -0.000000 0.000000 -0.000000 0.466211
 12 6.661936 -0.000705 0.000000 -0.000000 -0.000001 0.471000
 13 2.044495 -0.000000 -0.000000 0.000000 0.000000 -1.471735
 14 -3.112017 1.516413 4.341911 -0.000013 -1.370798 2.669809
 15 -2.869892 1.398824 -4.140396 -0.000013 1.370795 2.669783
 16 4.827231 0.000000 0.000001 -0.785274 -0.330149 -0.841419
 17 11.139763 -0.000000 -0.000000 0.000000 -0.000000 -0.916777
 18 8.575572 -8.394946 9.511936 -1.535143 -1.058019 1.499774
 19 -1.465386 0.506167 4.002137 0.034889 -0.200000 -0.000001
 20 4.972047 0.000000 0.000001 1.008945 0.366248 -0.967341
 21 -9.249866 0.683183 -1.946118 -0.000014 -1.670796 0.000014
 22 10.313008 -0.000000 0.000000 -1.570000 -0.226764 -0.000007
 23 1.646738 0.449549 -1.702246 0.287462 0.372839 0.611126
 24 0.928314 0.000000 0.000000 0.000000 0.000000 0.000000
 25 0.928314 -0.000000 -0.000000 0.000000 0.000000 0.000000
 26 2.975832 -0.386307 -0.044144 -0.019829 -0.038853 0.453927
 27 1.438890 0.000003 0.000001 -0.000000 -0.000000 0.924529
 28 1.485299 -0.000005 -0.000000 0.000000 -0.000000 1.552536
 29 11.585355 0.000000 0.000001 0.000000 0.000000 -1.333159
 30 10.125607 -0.000000 0.000001 1.569752 -0.000000 -0.279070
 31 1.533671 0.109715 1.664491 -0.233255 -0.412980 0.435685
 32 0.928314 -0.000001 0.000000 0.000000 0.000000 0.000000
 33 2.683748 -0.427340 0.044205 -0.009154 0.042652 -0.235660
 34 1.438886 0.000003 0.000000 0.000000 0.000000 0.470985
 35 2.027418 0.730720 12.541074 -1.531161 -0.031283 2.992741
time 23
  0 -0.194353 0.194353 -23.159388 0.000000 0.185846 -1.570829
  1 -6.410353 0.000000 0.000000 -1.570795 -1.570787 0.000000
  2 -0.000005 0.000007 3.713254 -3.004243 0.013037 1.268014
  3 18.045725 0.000000 0.000000 -0.000000 -0.000000 -2.468784
  4 17.597599 0.000000 0.000000 0.003102 -0.137866 0.780041
  5 0.000005 -0.000003 -3.713254 3.054253 -0.007060 1.263940
  6 18.045721 -0.000000 -0.000001 0.000000 0.000000 -2.471427
  7 17.597593 0.000000 -0.000000 -0.003524 0.087503 0.779235
  8 1.293338 0.684453 -0.000001 -0.000004 -0.000001 0.592431
  9 5.309647 -0.003832 -0.000000 -0.000000 0.000000 0.208263
 10 4.826592 -0.004567 -0.000000 -0.000000 0.000000 0.234869
 11 5.792761 -0.005304 -0.000000 0.000000 -0.000000 0.467747
 12 6.661936 -0.000705 0.000000 -0.000000 -0.000001 0.471000
 13 2.044495 -0.000000 -0.000000 0.000000 0.000000 -1.618680
 14 -3.112017 1.516413 4.341911 -0.000013 -1.370798 2.669809
 15 -2.869892 1.398824 -4.140396 -0.000013 1.370795 2.669783
 16 4.827231 0.000000 0.000001 -0.751011 -0.097484 -1.065273
 17 11.139763 -0.000000 -0.000000 0.000000 -0.000000 -0.897715
 18 8.575572 -8.394946 9.511936 -1.535143 -1.058019 1.499774
 19 -1.465386 0.506167 4.002137 0.034889 -0.200000 -0.000001
 20 4.972047 0.000000 0.000001 1.047494 0.330130 -1.012189
 21 -9.249866 0.683183 -1.946118 -0.000014 -1.670796 0.000014
 22 10.313008 -0.000000 0.000000 -1.570000 -0.226764 -0.000007
 23 1.646738 0.449549 -1.702246 0.287462 0.372839 0.611126
 24 0.928314 0.000000 0.000000 0.000000 0.000000 0.000000
 25 0.928314 -0.000000 -0.000000 0.000000 0.000000 0.000000
 26 2.975832 -0.386307 -0.044144 -0.019829 -0.038853 0.453927
 27 1.438890 0.000003 0.000001 -0.000000 -0.000000 0.924529
 28 1.485299 -0.000005 -0.000000 0.000000 -0.000000 1.552536
 29 11.585355 0.000000 0.000001 0.000000 0.000000 -1.315052
 30 10.125607 -0.000000 0.000001 1.569752 -0.000000 -0.247792
 31 1.533671 0.109715 1.664491 -0.233255 -0.412980 0.435685
 32 0.928314 -0.000001 0.000000 0.000000 0.000000 0.000000
 33 2.683748 -0.427340 0.044205 -0.009154 0.042652 -0.235660
 34 1.438886 0.000003 0.000000 0.000000 0.000000 0.470985
 35 2.027418 0.730720 12.541074 -1.531161 -0.031283 2.992741
time 24
  0 -0.194353 0.194353 -20.745251 0.000000 0.185846 -1.570829
  1 -6.410353 0.000000 0.000000 -1.570795 -1.570787 0.000000
  2 -0.000005 0.000007 3.713254 -3.029547 -0.005081 1.406512
  3 18.045725 0.000000 0.000000 -0.000000 -0.000000 -2.338841
  4 17.597599 0.000000 0.000000 0.002619 -0.112118 0.789831
  5 0.000005 -0.000003 -3.713254 3.070612 0.004674 1.404221
  6 18.045721 -0.000000 -0.000001 0.000000 0.000000 -2.341026
  7 17.597593 0.000000 -0.000000 -0.003274 0.071071 0.789625
  8 1.293338 0.684453 -0.000001 -0.000004 -0.000001 0.592431
  9 5.309647 -0.003832 -0.000000 -0.000000 0.000000 0.208263
 10 4.826592 -0.004567 -0.000000 -0.000000 0.000000 0.234869
 11 5.792761 -0.005304 -0.000000 0.000000 -0.000000 0.467747
 12 6.661936 -0.000705 0.000000 -0.000000 -0.000001 0.471000
 13 2.044495 -0.000000 -0.000000 0.000000 0.000000 -1.618680
 14 -3.112017 1.516413 4.341911 -0.000013 -1.370798 2.669809
 15 -2.869892 1.398824 -4.140396 -0.000013 1.370795 2.669783
 16 4.827231 0.000000 0.000001 -0.751011 -0.097484 -1.065273
 17 11.139763 -0.000000 -0.000000 0.000000 -0.000000 -0.897715
 18 8.575572 -8.394946 9.511936 -1.535143 -1.058019 1.499774
 19 -1.465386 0.506167 4.002137 0.034889 -0.200000 -0.000001
 20 4.972047 0.000000 0.000001 1.082513 0.273580 -1.057114
 21 -9.249866 0.683183 -1.946118 -0.000014 -1.670796 0.000014
 22 10.313008 -0.000000 0.000000 -1.570000 -0.226764 -0.000007
 23 1.646738 0.449549 -1.702246 0.287462 0.372839 0.611126
 24 0.928314 0.000000 0.000000 0.000000 0.000000 0.000000
 25 0.928314 -0.000000 -0.000000 0.000000 0.000000 0.000000
 26 2.975832 -0.386307 -0.044144 -0.019829 -0.038853 0.453927
 27 1.438890 0.000003 0.000001 -0.000000 -0.000000 0.924529
 28 1.485299 -0.000005 -0.000000 0.000000 -0.000000 1.552536
 29 11.585355 0.000000 0.000001 0.000000 0.000000 -1.269757
 30 10.125607 -0.000000 0.000001 1.569752 -0.000000 -0.212998
 31 1.533671 0.109715 1.664491 -0.233255 -0.412980 0.435685
 32 0.928314 -0.000001 0.000000 0.000000 0.000000 0.000000
 33 2.683748 -0.427340 0.044205 -0.009154 0.042652 -0.235660
 34 1.438886 0.000003 0.000000 0.000000 0.000000 0.470985
 35 2.027418 0.730720 12.541074 -1.531161 -0.031283 2.992741
time 25
  0 -0.194353 0.194353 -17.963917 0.000000 0.172241 -1.570829
  1 -5.879086 0.000000 0.000000 -1.570795 -1.570787 0.000000
  2 -0.000005 0.000007 3.713254 0.094457 -3.128339 -1.564156
  3 18.045725 0.000000 0.000000 -0.000000 -0.000000 -2.199771
  4 17.597599 0.000000 0.000000 -0.003863 -0.095348 0.808681
  5 0.000005 -0.000003 -3.713254 -0.059554 3.131673 -1.565722
  6 18.045721 -0.000000 -0.000001 0.000000 0.000000 -2.201643
  7 17.597593 0.000000 -0.000000 0.000765 0.060444 0.808482
  8 1.293338 0.684453 -0.000001 -0.000004 -0.000001 0.535033
  9 5.309647 -0.003832 -0.000000 -0.000000 0.000000 0.174884
 10 4.826592 -0.004567 -0.000000 -0.000000 0.000000 0.195157
 11 5.792761 -0.005304 -0.000000 0.000000 -0.000000 0.413702
 12 6.661936 -0.000705 0.000000 -0.000000 -0.000001 0.471000
 13 2.044495 -0.000000 -0.000000 0.000000 0.000000 -1.455927
 14 -3.112017 1.516413 4.341911 -0.000013 -1.370798 2.669809
 15 -2.869892 1.398824 -4.140396 -0.000013 1.370795 2.669783
 16 4.827231 0.000000 0.000001 -0.736551 0.084462 -1.056609
 17 11.139763 -0.000000 -0.000000 0.000000 -0.000000 -0.813969
 18 8.575572 -8.394946 9.511936 -1.535143 -1.058019 1.499774
 19 -1.465386 0.506167 4.002137 0.034889 -0.200000 -0.000001
 20 4.972047 0.000000 0.000001 1.035140 0.061377 -1.074351
 21 -9.249866 0.683183 -1.946118 -0.000014 -1.670796 0.000014
 22 10.313008 -0.000000 0.000000 -1.570000 -0.226764 -0.000007
 23 1.646738 0.449549 -1.702246 0.287462 0.372839 0.611126
 24 0.928314 0.000000 0.000000 0.000000 0.000000 0.000000
 25 0.928314 -0.000000 -0.000000 0.000000 0.000000 0.000000
 26 2.975832 -0.386307 -0.044144 -0.019829 -0.038853 0.453927
 27 1.438890 0.000003 0.000001 -0.000000 -0.000000 0.924529
 28 1.485299 -0.000005 -0.000000 0.000000 -0.000000 1.552536
 29 11.585355 0.000000 0.000001 0.000000 0.000000 -1.215555
 30 10.125607 -0.000000 0.000001 1.569752 -0.000000 -0.179475
 31 1.533671 0.109715 1.664491 -0.233255 -0.412980 0.435685
 32 0.928314 -0.000001 0.000000 0.000000 0.000000 0.000000
 33 2.683748 -0.427340 0.044205 -0.009154 0.042652 -0.235660
 34 1.438886 0.000003 0.000000 0.000000 0.000000 0.470985
 35 2.027418 0.730720 12.541074 -1.531161 -0.031283 2.992741
time 26
  0 -0.194353 0.194353 -15.209927 0.000000 0.156413 -1.570829
  1 -5.234536 0.000000 0.000000 -1.570795 -1.570787 0.000000
  2 -0.000005 0.000007 3.713254 0.080847 -3.122874 -1.403756
  3 18.045725 0.000000 0.000000 -0.000000 -0.000000 -2.052982
  4 17.597599 0.000000 0.000000 -0.008031 -0.082625 0.806805
  5 0.000005 -0.000003 -3.713254 -0.050753 3.128134 -1.404895
  6 18.045721 -0.000000 -0.000001 0.000000 0.000000 -2.054652
  7 17.597593 0.000000 -0.000000 0.003375 0.052416 0.806634
  8 1.293338 0.684453 -0.000001 -0.000004 -0.000001 0.475142
  9 5.309647 -0.003832 -0.000000 -0.000000 0.000000 0.140067
 10 4.826592 -0.004567 -0.000000 -0.000000 0.000000 0.153722
 11 5.792761 -0.005304 -0.000000 0.000000 -0.000000 0.357310
 12 6.661936 -0.000705 0.000000 -0.000000 -0.000001 0.471000
 13 2.044495 -0.000000 -0.000000 0.000000 0.000000 -1.286036
 14 -3.112017 1.516413 4.341911 -0.000013 -1.370798 2.669809
 15 -2.869892 1.398824 -4.140396 -0.000013 1.370795 2.669783
 16 4.827231 0.000000 0.000001 -0.722355 0.273130 -1.029831
 17 11.139763 -0.000000 -0.000000 0.000000 -0.000000 -0.726580
 18 8.575572 -8.394946 9.511936 -1.535143 -1.058019 1.499774
 19 -1.465386 0.506167 4.002137 0.034889 -0.200000 -0.000001
 20 4.972047 0.000000 0.000001 0.989531 -0.153642 -1.063120
 21 -9.249866 0.683183 -1.946118 -0.000014 -1.670796 0.000014
 22 10.313008 -0.000000 0.000000 -1.570000 -0.226764 -0.000007
 23 1.646738 0.449549 -1.702246 0.287462 0.372839 0.611126
 24 0.928314 0.000000 0.000000 0.000000 0.000000 0.000000
 25 0.928314 -0.000000 -0.000000 0.000000 0.000000 0.000000
 26 2.975832 -0.386307 -0.044144 -0.019829 -0.038853 0.453927
 27 1.438890 0.000003 0.000001 -0.000000 -0.000000 0.924529
 28 1.485299 -0.000005 -0.000000 0.000000 -0.000000 1.552536
 29 11.585355 0.000000 0.000001 0.000000 0.000000 -1.161472
 30 10.125607 -0.000000 0.000001 1.569752 -0.000000 -0.149245
 31 1.533671 0.109715 1.664491 -0.233255 -0.412980 0.435685
 32 0.928314 -0.000001 0.000000 0.000000 0.000000 0.000000
 33 2.683748 -0.427340 0.044205 -0.009154 0.042652 -0.235660
 34 1.438886 0.000003 0.000000 0.000000 0.000000 0.470985
 35 2.027418 0.730720 12.541074 -1.531161 -0.031283 2.992741
time 27
  0 -0.194353 0.194353 -12.530157 0.000000 0.139162 -1.570829
  1 -4.519670 0.000000 0.000000 -1.570795 -1.570787 0.000000
  2 -0.000005 0.000007 3.713254 0.069633 -3.118465 -1.251807
  3 18.045725 0.000000 0.000000 -0.000000 -0.000000 -1.899217
  4 17.597599 0.000000 0.000000 -0.010116 -0.072684 0.787818
  5 0.000005 -0.000003 -3.713254 -0.043387 3.125340 -1.252694
  6 18.045721 -0.000000 -0.000001 0.000000 0.000000 -1.900707
  7 17.597593 0.000000 -0.000000 0.004691 0.046142 0.787665
  8 1.293338 0.684453 -0.000001 -0.000004 -0.000001 0.416632
  9 5.309647 -0.003832 -0.000000 -0.000000 0.000000 0.106069
 10 4.826592 -0.004567 -0.000000 -0.000000 0.000000 0.113241
 11 5.792761 -0.005304 -0.000000 0.000000 -0.000000 0.302226
 12 6.661936 -0.000705 0.000000 -0.000000 -0.000001 0.471000
 13 2.044495 -0.000000 -0.000000 0.000000 0.000000 -1.120148
 14 -3.112017 1.516413 4.341911 -0.000013 -1.370798 2.669809
 15 -2.869892 1.398824 -4.140396 -0.000013 1.370795 2.669783
 16 4.827231 0.000000 0.000001 -0.702638 0.454309 -0.983887
 17 11.139763 -0.000000 -0.000000 0.000000 -0.000000 -0.641293
 18 8.575572 -8.394946 9.511936 -1.535143 -1.058019 1.499774
 19 -1.465386 0.506167 4.002137 0.034889 -0.200000 -0.000001
 20 4.972047 0.000000 0.000001 0.939093 -0.357399 -1.027008
 21 -9.249866 0.683183 -1.946118 -0.000014 -1.670796 0.000014
 22 10.313008 -0.000000 0.000000 -1.570000 -0.226764 -0.000007
 23 1.646738 0.449549 -1.702246 0.287462 0.372839 0.611126
 24 0.928314 0.000000 0.000000 0.000000 0.000000 0.000000
 25 0.928314 -0.000000 -0.000000 0.000000 0.000000 0.000000
 26 2.975832 -0.386307 -0.044144 -0.019829 -0.038853 0.453927
 27 1.438890 0.000003 0.000001 -0.000000 -0.000000 0.924529
 28 1.485299 -0.000005 -0.000000 0.000000 -0.000000 1.552536
 29 11.585355 0.000000 0.000001 0.000000 0.000000 -1.111517
 30 10.125607 -0.000000 0.000001 1.569752 -0.000000 -0.122756
 31 1.533671 0.109715 1.664491 -0.233255 -0.412980 0.435685
 32 0.928314 -0.000001 0.000000 0.000000 0.000000 0.000000
 33 2.683748 -0.427340 0.044205 -0.009154 0.042652 -0.235660
 34 1.438886 0.000003 0.000000 0.000000 0.000000 0.470985
 35 2.027418 0.730720 12.541074 -1.531161 -0.031283 2.992741
time 28
  0 -0.194353 0.194353 -9.951953 0.000000 0.120311 -1.570829
  1 -3.769647 0.000000 0.000000 -1.570795 -1.570787 0.000000
  2 -0.000005 0.000007 3.713254 0.059760 -3.114534 -1.105199
  3 18.045725 0.000000 0.000000 -0.000000 -0.000000 -1.738774
  4 17.597599 0.000000 0.000000 -0.010599 -0.064781 0.755061
  5 0.000005 -0.000003 -3.713254 -0.036977 3.123012 -1.105919
  6 18.045721 -0.000000 -0.000001 0.000000 0.000000 -1.740170
  7 17.597593 0.000000 -0.000000 0.004986 0.041157 0.755016
  8 1.293338 0.684453 -0.000001 -0.000004 -0.000001 0.360220
  9 5.309647 -0.003832 -0.000000 -0.000000 0.000000 0.073249
 10 4.826592 -0.004567 -0.000000 -0.000000 0.000000 0.074224
 11 5.792761 -0.005304 -0.000000 0.000000 -0.000000 0.249115
 12 6.661936 -0.000705 0.000000 -0.000000 -0.000001 0.471000
 13 2.044495 -0.000000 -0.000000 0.000000 0.000000 -0.960196
 14 -3.112017 1.516413 4.341911 -0.000013 -1.370798 2.669809
 15 -2.869892 1.398824 -4.140396 -0.000013 1.370795 2.669783
 16 4.827231 0.000000 0.000001 -0.670127 0.624170 -0.915629
 17 11.139763 -0.000000 -0.000000 0.000000 -0.000000 -0.558949
 18 8.575572 -8.394946 9.511936 -1.535143 -1.058019 1.499774
 19 -1.465386 0.506167 4.002137 0.034889 -0.200000 -0.000001
 20 4.972047 0.000000 0.000001 0.874721 -0.546194 -0.964923
 21 -9.249866 0.683183 -1.946118 -0.000014 -1.670796 0.000014
 22 10.313008 -0.000000 0.000000 -1.570000 -0.226764 -0.000007
 23 1.646738 0.449549 -1.702246 0.287462 0.372839 0.611126
 24 0.928314 0.000000 0.000000 0.000000 0.000000 0.000000
 25 0.928314 -0.000000 -0.000000 0.000000 0.000000 0.000000
 26 2.975832 -0.386307 -0.044144 -0.019829 -0.038853 0.453927
 27 1.438890 0.000003 0.000001 -0.000000 -0.000000 0.924529
 28 1.485299 -0.000005 -0.000000 0.000000 -0.000000 1.552536
 29 11.585355 0.000000 0.000001 0.000000 0.000000 -1.066634
 30 10.125607 -0.000000 0.000001 1.569752 -0.000000 -0.099634
 31 1.533671 0.109715 1.664491 -0.233255 -0.412980 0.435685
 32 0.928314 -0.000001 0.000000 0.000000 0.000000 0.000000
 33 2.683748 -0.427340 0.044205 -0.009154 0.042652 -0.235660
 34 1.438886 0.000003 0.000000 0.000000 0.000000 0.470985
 35 2.027418 0.730720 12.541074 -1.531161 -0.031283 2.992741
time 29
  0 -0.194353 0.194353 -7.510472 0.000000 0.100037 -1.570829
  1 -3.000093 0.000000 0.000000 -1.570795 -1.570787 0.000000
  2 -0.000005 0.000007 3.713254 0.050750 -3.110988 -0.962184
  3 18.045725 0.000000 0.000000 -0.000000 -0.000000 -1.571800
  4 17.597599 0.000000 0.000000 -0.009887 -0.058475 0.710728
  5 0.000005 -0.000003 -3.713254 -0.031142 3.120776 -0.962779
  6 18.045721 -0.000000 -0.000001 0.000000 0.000000 -1.573113
  7 17.597593 0.000000 -0.000000 0.004555 0.037224 0.710757
  8 1.293338 0.684453 -0.000001 -0.000004 -0.000001 0.306444
  9 5.309647 -0.003832 -0.000000 -0.000000 0.000000 0.042008
 10 4.826592 -0.004567 -0.000000 -0.000000 0.000000 0.037040
 11 5.792761 -0.005304 -0.000000 0.000000 -0.000000 0.198475
 12 6.661936 -0.000705 0.000000 -0.000000 -0.000001 0.471000
 13 2.044495 -0.000000 -0.000000 0.000000 0.000000 -0.807714
 14 -3.112017 1.516413 4.341911 -0.000013 -1.370798 2.669809
 15 -2.869892 1.398824 -4.140396 -0.000013 1.370795 2.669783
 16 4.827231 0.000000 0.000001 -0.615621 0.778543 -0.819016
 17 11.139763 -0.000000 -0.000000 0.000000 -0.000000 -0.480530
 18 8.575572 -8.394946 9.511936 -1.535143 -1.058019 1.499774
 19 -1.465386 0.506167 4.002137 0.034889 -0.200000 -0.000001
 20 4.972047 0.000000 0.000001 0.787405 -0.716889 -0.872264
 21 -9.249866 0.683183 -1.946118 -0.000014 -1.670796 0.000014
 22 10.313008 -0.000000 0.000000 -1.570000 -0.226764 -0.000007
 23 1.646738 0.449549 -1.702246 0.287462 0.372839 0.611126
 24 0.928314 0.000000 0.000000 0.000000 0.000000 0.000000
 25 0.928314 -0.000000 -0.000000 0.000000 0.000000 0.000000
 26 2.975832 -0.386307 -0.044144 -0.019829 -0.038853 0.453927
 27 1.438890 0.000003 0.000001 -0.000000 -0.000000 0.924529
 28 1.485299 -0.000005 -0.000000 0.000000 -0.000000 1.552536
 29 11.585355 0.000000 0.000001 0.000000 0.000000 -1.026351
 30 10.125607 -0.000000 0.000001 1.569752 -0.000000 -0.079356
 31 1.533671 0.109715 1.664491 -0.233255 -0.412980 0.435685
 32 0.928314 -0.000001 0.000000 0.000000 0.000000 0.000000
 33 2.683748 -0.427340 0.044205 -0.009154 0.042652 -0.235660
 34 1.438886 0.000003 0.000000 0.000000 0.000000 0.470985
 35 2.027418 0.730720 12.541074 -1.531161 -0.031283 2.992741
time 30
  0 -0.194353 0.194353 -5.240872 0.000000 0.078696 -1.570829
  1 -2.242257 0.000000 0.000000 -1.570795 -1.570787 0.000000
  2 -0.000005 0.000007 3.713254 0.042220 -3.107728 -0.822084
  3 18.045725 0.000000 0.000000 -0.000000 -0.000000 -1.398815
  4 17.597599 0.000000 0.000000 -0.008286 -0.053518 0.656376
  5 0.000005 -0.000003 -3.713254 -0.025689 3.118821 -0.822594
  6 18.045721 -0.000000 -0.000001 0.000000 0.000000 -1.400115
  7 17.597593 0.000000 -0.000000 0.003533 0.034111 0.656552
  8 1.293338 0.684453 -0.000001 -0.000004 -0.000001 0.256093
  9 5.309647 -0.003832 -0.000000 -0.000000 0.000000 0.012724
 10 4.826592 -0.004567 -0.000000 -0.000000 0.000000 0.002200
 11 5.792761 -0.005304 -0.000000 0.000000 -0.000000 0.151052
 12 6.661936 -0.000705 0.000000 -0.000000 -0.000001 0.471000
 13 2.044495 -0.000000 -0.000000 0.000000 0.000000 -0.664905
 14 -3.112017 1.516413 4.341911 -0.000013 -1.370798 2.669809
 15 -2.869892 1.398824 -4.140396 -0.000013 1.370795 2.669783
 16 4.827231 0.000000 0.000001 -0.528515 0.912151 -0.686262
 17 11.139763 -0.000000 -0.000000 0.000000 -0.000000 -0.407016
 18 8.575572 -8.394946 9.511936 -1.535143 -1.058019 1.499774
 19 -1.465386 0.506167 4.002137 0.034889 -0.200000 -0.000001
 20 4.972047 0.000000 0.000001 0.667393 -0.865142 -0.741621
 21 -9.249866 0.683183 -1.946118 -0.000014 -1.670796 0.000014
 22 10.313008 -0.000000 0.000000 -1.570000 -0.226764 -0.000007
 23 1.646738 0.449549 -1.702246 0.287462 0.372839 0.611126
 24 0.928314 0.000000 0.000000 0.000000 0.000000 0.000000
 25 0.928314 -0.000000 -0.000000 0.000000 0.000000 0.000000
 26 2.975832 -0.386307 -0.044144 -0.019829 -0.038853 0.453927
 27 1.438890 0.000003 0.000001 -0.000000 -0.000000 0.924529
 28 1.485299 -0.000005 -0.000000 0.000000 -0.000000 1.552536
 29 11.585355 0.000000 0.000001 0.000000 0.000000 -0.989667
 30 10.125607 -0.000000 0.000001 1.569752 -0.000000 -0.061098
 31 1.533671 0.109715 1.664491 -0.233255 -0.412980 0.435685
 32 0.928314 -0.000001 0.000000 0.000000 0.000000 0.000000
 33 2.683748 -0.427340 0.044205 -0.009154 0.042652 -0.235660
 34 1.438886 0.000003 0.000000 0.000000 0.000000 0.470985
 35 2.027418 0.730720 12.541074 -1.531161 -0.031283 2.992741
time 31
  0 -0.194353 0.194353 -3.193934 0.000000 0.056376 -1.570829
  1 -1.527391 0.000000 0.000000 -1.570795 -1.570787 0.000000
  2 -0.000005 0.000007 3.713254 0.034073 -3.104948 -0.684994
  3 18.045725 0.000000 0.000000 -0.000000 -0.000000 -1.221451
  4 17.597599 0.000000 0.000000 -0.006023 -0.049690 0.593651
  5 0.000005 -0.000003 -3.713254 -0.020332 3.117144 -0.685559
  6 18.045721 -0.000000 -0.000001 0.000000 0.000000 -1.222770
  7 17.597593 0.000000 -0.000000 0.002126 0.031700 0.593953
  8 1.293338 0.684453 -0.000001 -0.000004 -0.000001 0.210135
  9 5.309647 -0.003832 -0.000000 -0.000000 0.000000 -0.014003
 10 4.826592 -0.004567 -0.000000 -0.000000 0.000000 -0.029600
 11 5.792761 -0.005304 -0.000000 0.000000 -0.000000 0.107783
 12 6.661936 -0.000705 0.000000 -0.000000 -0.000001 0.471000
 13 2.044495 -0.000000 -0.000000 0.000000 0.000000 -0.534569
 14 -3.112017 1.516413 4.341911 -0.000013 -1.370798 2.669809
 15 -2.869892 1.398824 -4.140396 -0.000013 1.370795 2.669783
 16 4.827231 0.000000 0.000001 -0.400311 1.018697 -0.511415
 17 11.139763 -0.000000 -0.000000 0.000000 -0.000000 -0.339949
 18 8.575572 -8.394946 9.511936 -1.535143 -1.058019 1.499774
 19 -1.465386 0.506167 4.002137 0.034889 -0.200000 -0.000001
 20 4.972047 0.000000 0.000001 0.506510 -0.985321 -0.565818
 21 -9.249866 0.683183 -1.946118 -0.000014 -1.670796 0.000014
 22 10.313008 -0.000000 0.000000 -1.570000 -0.226764 -0.000007
 23 1.646738 0.449549 -1.702246 0.287462 0.372839 0.611126
 24 0.928314 0.000000 0.000000 0.000000 0.000000 0.000000
 25 0.928314 -0.000000 -0.000000 0.000000 0.000000 0.000000
 26 2.975832 -0.386307 -0.044144 -0.019829 -0.038853 0.453927
 27 1.438890 0.000003 0.000001 -0.000000 -0.000000 0.924529
 28 1.485299 -0.000005 -0.000000 0.000000 -0.000000 1.552536
 29 11.585355 0.000000 0.000001 0.000000 0.000000 -0.955636
 30 10.125607 -0.000000 0.000001 1.569752 -0.000000 -0.044112
 31 1.533671 0.109715 1.664491 -0.233255 -0.412980 0.435685
 32 0.928314 -0.000001 0.000000 0.000000 0.000000 0.000000
 33 2.683748 -0.427340 0.044205 -0.009154 0.042652 -0.235660
 34 1.438886 0.000003 0.000000 0.000000 0.000000 0.470985
 35 2.027418 0.730720 12.541074 -1.531161 -0.031283 2.992741
time 32
  0 -0.194353 0.194353 -1.424349 0.000000 0.033435 -1.570829
  1 -0.890653 0.000000 0.000000 -1.570795 -1.570787 0.000000
  2 -0.000005 0.000007 3.713254 0.026117 -3.102552 -0.552566
  3 18.045725 0.000000 0.000000 -0.000000 -0.000000 -1.043346
  4 17.597599 0.000000 0.000000 -0.003380 -0.046799 0.524888
  5 0.000005 -0.000003 -3.713254 -0.015261 3.115841 -0.553128
  6 18.045721 -0.000000 -0.000001 0.000000 0.000000 -1.044701
  7 17.597593 0.000000 -0.000000 0.000493 0.029898 0.525327
  8 1.293338 0.684453 -0.000001 -0.000004 -0.000001 0.169897
  9 5.309647 -0.003832 -0.000000 -0.000000 0.000000 -0.037395
 10 4.826592 -0.004567 -0.000000 -0.000000 0.000000 -0.057406
 11 5.792761 -0.005304 -0.000000 0.000000 -0.000000 0.069912
 12 6.661936 -0.000705 0.000000 -0.000000 -0.000001 0.471000
 13 2.044495 -0.000000 -0.000000 0.000000 0.000000 -0.420441
 14 -3.112017 1.516413 4.341911 -0.000013 -1.370798 2.669809
 15 -2.869892 1.398824 -4.140396 -0.000013 1.370795 2.669783
 16 4.827231 0.000000 0.000001 -0.234075 1.092394 -0.300950
 17 11.139763 -0.000000 -0.000000 0.000000 -0.000000 -0.281293
 18 8.575572 -8.394946 9.511936 -1.535143 -1.058019 1.499774
 19 -1.465386 0.506167 4.002137 0.034889 -0.200000 -0.000001
 20 4.972047 0.000000 0.000001 0.306428 -1.071875 -0.347352
 21 -9.249866 0.683183 -1.946118 -0.000014 -1.670796 0.000014
 22 10.313008 -0.000000 0.000000 -1.570000 -0.226764 -0.000007
 23 1.646738 0.449549 -1.702246 0.287462 0.372839 0.611126
 24 0.928314 0.000000 0.000000 0.000000 0.000000 0.000000
 25 0.928314 -0.000000 -0.000000 0.000000 0.000000 0.000000
 26 2.975832 -0.386307 -0.044144 -0.019829 -0.038853 0.453927
 27 1.438890 0.000003 0.000001 -0.000000 -0.000000 0.924529
 28 1.485299 -0.000005 -0.000000 0.000000 -0.000000 1.552536
 29 11.585355 0.000000 0.000001 0.000000 0.000000 -0.923905
 30 10.125607 -0.000000 0.000001 1.569752 -0.000000 -0.028099
 31 1.533671 0.109715 1.664491 -0.233255 -0.412980 0.435685
 32 0.928314 -0.000001 0.000000 0.000000 0.000000 0.000000
 33 2.683748 -0.427340 0.044205 -0.009154 0.042652 -0.235660
 34 1.438886 0.000003 0.000000 0.000000 0.000000 0.470985
 35 2.027418 0.730720 12.541074 -1.531161 -0.031283 2.992741
time 33
  0 -0.194353 0.194353 0.009288 0.000000 0.010848 -1.570829
  1 -0.363293 0.000000 0.000000 -1.570795 -1.570787 0.000000
  2 -0.000005 0.000007 3.713254 0.018641 -3.100922 -0.428879
  3 18.045725 0.000000 0.000000 -0.000000 -0.000000 -0.871771
  4 17.597599 0.000000 0.000000 -0.000609 -0.044733 0.454111
  5 0.000005 -0.000003 -3.713254 -0.010478 3.114909 -0.429516
  6 18.045721 -0.000000 -0.000001 0.000000 0.000000 -0.873297
  7 17.597593 0.000000 -0.000000 -0.001187 0.028587 0.454704
  8 1.293338 0.684453 -0.000001 -0.000004 -0.000001 0.136849
  9 5.309647 -0.003832 -0.000000 -0.000000 0.000000 -0.056611
 10 4.826592 -0.004567 -0.000000 -0.000000 0.000000 -0.080266
 11 5.792761 -0.005304 -0.000000 0.000000 -0.000000 0.038788
 12 6.661936 -0.000705 0.000000 -0.000000 -0.000001 0.471000
 13 2.044495 -0.000000 -0.000000 0.000000 0.000000 -0.326725
 14 -3.112017 1.516413 4.341911 -0.000013 -1.370798 2.669809
 15 -2.869892 1.398824 -4.140396 -0.000013 1.370795 2.669783
 16 4.827231 0.000000 0.000001 -0.055834 1.132903 -0.084010
 17 11.139763 -0.000000 -0.000000 0.000000 -0.000000 -0.233078
 18 8.575572 -8.394946 9.511936 -1.535143 -1.058019 1.499774
 19 -1.465386 0.506167 4.002137 0.034889 -0.200000 -0.000001
 20 4.972047 0.000000 0.000001 0.091019 -1.123358 -0.111493
 21 -9.249866 0.683183 -1.946118 -0.000014 -1.670796 0.000014
 22 10.313008 -0.000000 0.000000 -1.570000 -0.226764 -0.000007
 23 1.646738 0.449549 -1.702246 0.287462 0.372839 0.611126
 24 0.928314 0.000000 0.000000 0.000000 0.000000 0.000000
 25 0.928314 -0.000000 -0.000000 0.000000 0.000000 0.000000
 26 2.975832 -0.386307 -0.044144 -0.019829 -0.038853 0.453927
 27 1.438890 0.000003 0.000001 -0.000000 -0.000000 0.924529
 28 1.485299 -0.000005 -0.000000 0.000000 -0.000000 1.552536
 29 11.585355 0.000000 0.000001 0.000000 0.000000 -0.895006
 30 10.125607 -0.000000 0.000001 1.569752 -0.000000 -0.013134
 31 1.533671 0.109715 1.664491 -0.233255 -0.412980 0.435685
 32 0.928314 -0.000001 0.000000 0.000000 0.000000 0.000000
 33 2.683748 -0.427340 0.044205 -0.009154 0.042652 -0.235660
 34 1.438886 0.000003 0.000000 0.000000 0.000000 0.470985
 35 2.027418 0.730720 12.541074 -1.531161 -0.031283 2.992741
end
