version 1
nodes
  0 "Bip01"  -1
  1 "Bip01 Pelvis"   0
  2 "Bip01 L Leg"   1
  3 "Bip01 L Leg1"   2
  4 "Bip01 L Foot"   3
  5 "Bip01 R Leg"   1
  6 "Bip01 R Leg1"   5
  7 "Bip01 R Foot"   6
  8 "Bip01 Spine"   1
  9 "Bip01 Spine1"   8
 10 "Bip01 Spine2"   9
 11 "Bip01 Spine3"  10
 12 "Bip01 Neck"  11
 13 "Bip01 Head"  12
 14 "Bip01 L Arm"  12
 15 "Bip01 R Arm"  12
 16 "Bip01 L Arm1"  14
 17 "Bip01 L Arm2"  16
 18 "bone_shield"  17
 19 "bone_root_plate"  14
 20 "Bip01 R Arm1"  15
 21 "bone_plate_root"  20
 22 "Bip01 L Hand"  17
 23 "Bip01 L Finger0"  22
 24 "Bip01 L Finger01"  23
 25 "Bip01 L Finger02"  24
 26 "Bip01 L Finger1"  22
 27 "Bip01 L Finger11"  26
 28 "Bip01 L Finger12"  27
 29 "Bip01 R Arm2"  20
 30 "Bip01 R Hand"  29
 31 "Bip01 R Finger0"  30
 32 "Bip01 R Finger01"  31
 33 "Bip01 R Finger1"  30
 34 "Bip01 R Finger11"  33
 35 "sword"  30
end
skeleton
time 0
  0 -0.038098 0.038098 -1.357941 0.000000 0.000000 -1.570829
  1 0.863307 0.000000 0.000000 -1.570795 -1.570451 0.000000
  2 -0.000005 0.000007 3.713254 -0.132321 -2.814393 -0.671397
  3 18.045725 0.000000 0.000000 -0.000000 -0.000000 -0.787913
  4 17.597599 0.000000 0.000000 -0.107902 -0.168158 0.068247
  5 0.000005 -0.000003 -3.713254 0.627418 2.664071 -0.062022
  6 18.045721 -0.000000 -0.000001 0.000000 0.000000 -0.869602
  7 17.597593 0.000000 -0.000000 0.283193 0.341543 0.523663
  8 1.293338 0.684453 -0.000001 -0.338744 -0.156664 0.079433
  9 5.309647 -0.003832 -0.000000 -0.240520 0.114573 0.219449
 10 4.826592 -0.004567 -0.000000 -0.208568 0.039154 0.068106
 11 5.792761 -0.005304 -0.000000 0.012995 0.000000 0.191976
 12 6.661936 -0.000705 0.000000 -0.000000 -0.000001 -0.000207
 13 2.044495 -0.000000 -0.000000 0.807049 -0.166003 -0.170041
 14 -3.459684 -0.057854 4.341911 -0.000013 -1.370798 3.141040
 15 -3.190214 -0.054345 -4.140396 -0.000013 1.370795 3.141000
 16 4.827231 0.000000 0.000001 -0.576975 0.844922 0.050320
 17 11.139763 -0.000000 -0.000000 0.000000 -0.000000 -0.587962
 18 8.575572 -8.394946 9.511936 -1.535143 -1.058019 1.499774
 19 -1.465386 0.506167 4.002137 0.034889 -0.200000 -0.000001
 20 4.972047 0.000000 0.000001 0.213168 -0.969715 -0.646544
 21 -9.249866 0.683183 -1.946118 -0.000014 -1.670796 0.000014
 22 10.313008 -0.000000 0.000000 -1.037284 0.247339 0.073579
 23 1.646738 0.449549 -1.702246 0.154002 0.442277 0.277235
 24 0.928314 0.000000 0.000000 0.000000 0.000000 0.000000
 25 0.928314 -0.000000 -0.000000 0.000000 0.000000 0.000000
 26 2.975832 -0.386307 -0.044144 -0.000797 -0.043611 0.000035
 27 1.438890 0.000003 0.000001 -0.000000 -0.000000 0.793722
 28 1.485299 -0.000005 -0.000000 0.000000 -0.000000 1.465316
 29 11.585355 0.000000 0.000001 0.000000 0.000000 -0.976337
 30 10.125607 -0.000000 0.000001 2.152066 0.060083 -0.028099
 31 1.533671 0.109715 1.664491 -0.233255 -0.412980 0.435685
 32 0.928314 -0.000001 0.000000 0.000000 0.000000 0.000000
 33 2.683748 -0.427340 0.044205 0.001045 0.043611 0.000046
 34 1.438886 0.000003 0.000000 0.000000 0.000000 0.758827
 35 2.027418 0.730720 12.541074 -1.531161 -0.031283 2.992741
time 1
  0 -0.038098 0.038098 -1.428256 -0.004296 -0.002934 -1.739767
  1 0.863307 0.000000 0.000000 -0.000018 -1.600700 -1.570790
  2 -0.000005 0.000007 3.713254 -0.285871 -2.787935 -0.660373
  3 18.045725 0.000000 0.000000 -0.000000 -0.000000 -0.915481
  4 17.597599 0.000000 0.000000 -0.090261 -0.041869 0.191592
  5 0.000005 -0.000003 -3.713254 0.610102 2.656341 -0.129861
  6 18.045721 -0.000000 -0.000001 0.000000 0.000000 -0.887496
  7 17.597593 0.000000 -0.000000 0.116269 0.344586 0.478331
  8 1.293338 0.684453 -0.035158 -0.265927 -0.108737 0.083880
  9 5.309647 -0.003832 -0.000000 -0.179320 0.094690 0.178320
 10 4.826592 -0.004567 -0.000000 -0.151401 0.036901 0.049642
 11 5.792761 -0.005304 -0.000000 0.014421 -0.003116 0.152444
 12 6.661936 -0.000705 0.000000 -0.000000 -0.000001 0.043148
 13 2.044495 -0.000000 -0.000000 0.628007 -0.090938 -0.069187
 14 -3.459684 0.090588 4.341911 -0.014873 -1.395565 3.112277
 15 -3.190214 0.086284 -4.140396 -0.185719 1.392832 2.914739
 16 4.827231 0.000000 0.000001 -0.492850 0.870111 0.132930
 17 11.139763 -0.000000 -0.000000 0.000000 -0.000000 -0.861834
 18 8.575572 -8.394946 9.511936 -1.535143 -1.058019 1.499774
 19 -1.465386 0.506167 4.002137 0.034889 -0.200000 -0.000001
 20 4.972047 0.000000 0.000001 0.327421 -0.946066 -0.632895
 21 -9.249866 0.683183 -1.946118 -0.000014 -1.670796 0.000014
 22 10.313008 -0.000000 0.000000 -1.109376 0.136845 0.070736
 23 1.646738 0.449549 -1.702246 0.154002 0.442277 0.277235
 24 0.928314 0.000000 0.000000 0.000000 0.000000 0.000000
 25 0.928314 -0.000000 -0.000000 0.000000 0.000000 0.000000
 26 2.975832 -0.386307 -0.044144 -0.000797 -0.043611 0.000035
 27 1.438890 0.000003 0.000001 -0.000000 -0.000000 0.793722
 28 1.485299 -0.000005 -0.000000 0.000000 -0.000000 1.465316
 29 11.585355 0.000000 0.000001 0.000000 0.000000 -1.195856
 30 10.125607 -0.000000 0.000001 2.190449 0.052936 -0.015678
 31 1.533671 0.109715 1.664491 -0.233255 -0.412980 0.435685
 32 0.928314 -0.000001 0.000000 0.000000 0.000000 0.000000
 33 2.683748 -0.427340 0.044205 0.001045 0.043611 0.000046
 34 1.438886 0.000003 0.000000 0.000000 0.000000 0.622308
 35 2.027418 0.730720 12.541074 -1.531161 -0.031283 2.992741
time 2
  0 -0.038098 0.038098 -1.580604 -0.008497 -0.005869 -1.916125
  1 0.863307 0.000000 0.000000 -0.000018 -1.625880 -1.570790
  2 -0.000005 0.000007 3.713254 -0.443159 -2.767708 -0.648136
  3 18.045725 0.000000 0.000000 -0.000000 -0.000000 -1.043049
  4 17.597599 0.000000 0.000000 -0.073587 0.083978 0.331819
  5 0.000005 -0.000003 -3.713254 0.602832 2.647028 -0.206664
  6 18.045721 -0.000000 -0.000001 0.000000 0.000000 -0.913359
  7 17.597593 0.000000 -0.000000 -0.056057 0.353855 0.443427
  8 1.293338 0.684453 -0.070316 -0.191617 -0.065341 0.089923
  9 5.309647 -0.003832 -0.000000 -0.117392 0.077253 0.135632
 10 4.826592 -0.004567 -0.000000 -0.094283 0.036146 0.031031
 11 5.792761 -0.005304 -0.000000 0.016077 -0.005537 0.111063
 12 6.661936 -0.000705 0.000000 -0.000000 -0.000001 0.087425
 13 2.044495 -0.000000 -0.000000 0.455991 -0.000878 0.005719
 14 -3.451871 0.242937 4.341911 -0.040855 -1.423428 3.093773
 15 -3.182401 0.226913 -4.140396 -0.431538 1.409500 2.626832
 16 4.827231 0.000000 0.000001 -0.405569 0.905854 0.239169
 17 11.139763 -0.000000 -0.000000 0.000000 -0.000000 -1.165280
 18 8.575572 -8.394946 9.511936 -1.535143 -1.058019 1.499774
 19 -1.465386 0.506167 4.002137 0.034889 -0.200000 -0.000001
 20 4.972047 0.000000 0.000001 0.403311 -0.896595 -0.595067
 21 -9.249866 0.683183 -1.946118 -0.000014 -1.670796 0.000014
 22 10.313008 -0.000000 0.000000 -1.188058 0.006391 0.076198
 23 1.646738 0.449549 -1.702246 0.154002 0.442277 0.277235
 24 0.928314 0.000000 0.000000 0.000000 0.000000 0.000000
 25 0.928314 -0.000000 -0.000000 0.000000 0.000000 0.000000
 26 2.975832 -0.386307 -0.044144 -0.000797 -0.043611 0.000035
 27 1.438890 0.000003 0.000001 -0.000000 -0.000000 0.793722
 28 1.485299 -0.000005 -0.000000 0.000000 -0.000000 1.465316
 29 11.585355 0.000000 0.000001 0.000000 0.000000 -1.447578
 30 10.125607 -0.000000 0.000001 2.232356 0.043450 -0.003481
 31 1.533671 0.109715 1.664491 -0.233255 -0.412980 0.435685
 32 0.928314 -0.000001 0.000000 0.000000 0.000000 0.000000
 33 2.683748 -0.427340 0.044205 0.001045 0.043611 0.000046
 34 1.438886 0.000003 0.000000 0.000000 0.000000 0.473749
 35 2.027418 0.730720 12.541074 -1.531161 -0.031283 2.992741
time 3
  0 -0.038098 0.038098 -1.693889 -0.011266 -0.010937 -2.077548
  1 0.863307 0.000000 0.000000 -0.000018 -1.624981 -1.570790
  2 -0.000005 0.000007 3.713254 -0.557124 -2.780745 -0.592435
  3 18.045725 0.000000 0.000000 -0.000000 -0.000000 -1.070655
  4 17.597599 0.000000 0.000000 -0.059657 0.144204 0.416915
  5 0.000005 -0.000003 -3.713254 0.589438 2.624584 -0.282499
  6 18.045721 -0.000000 -0.000001 0.000000 0.000000 -0.940018
  7 17.597593 0.000000 -0.000000 -0.215855 0.353527 0.404344
  8 1.293338 0.684453 -0.066409 -0.120319 -0.048706 0.097365
  9 5.309647 -0.003832 -0.000000 -0.054885 0.062536 0.092246
 10 4.826592 -0.004567 -0.000000 -0.037128 0.036229 0.012421
 11 5.792761 -0.005304 -0.000000 0.017774 -0.008209 0.070617
 12 6.661936 -0.000705 0.000000 -0.000000 -0.000001 0.132232
 13 2.044495 -0.000000 -0.000000 0.289875 0.098773 0.052611
 14 -3.436245 0.399191 4.341911 -0.074506 -1.449585 3.082556
 15 -3.170682 0.367543 -4.140396 -0.712254 1.414727 2.302397
 16 4.827231 0.000000 0.000001 -0.302690 0.927129 0.348821
 17 11.139763 -0.000000 -0.000000 0.000000 -0.000000 -1.454009
 18 8.575572 -8.394946 9.511936 -1.535143 -1.058019 1.499774
 19 -1.465386 0.506167 4.002137 0.034889 -0.200000 -0.000001
 20 4.972047 0.000000 0.000001 0.429970 -0.835942 -0.514965
 21 -9.249866 0.683183 -1.946118 -0.000014 -1.670796 0.000014
 22 10.313008 -0.000000 0.000000 -1.264170 -0.113198 0.091162
 23 1.646738 0.449549 -1.702246 0.154002 0.442277 0.277235
 24 0.928314 0.000000 0.000000 0.000000 0.000000 0.000000
 25 0.928314 -0.000000 -0.000000 0.000000 0.000000 0.000000
 26 2.975832 -0.386307 -0.044144 -0.000797 -0.043611 0.000035
 27 1.438890 0.000003 0.000001 -0.000000 -0.000000 0.793722
 28 1.485299 -0.000005 -0.000000 0.000000 -0.000000 1.465316
 29 11.585355 0.000000 0.000001 0.000000 0.000000 -1.699240
 30 10.125607 -0.000000 0.000001 2.274168 0.033457 0.008267
 31 1.533671 0.109715 1.664491 -0.233255 -0.412980 0.435685
 32 0.928314 -0.000001 0.000000 0.000000 0.000000 0.000000
 33 2.683748 -0.427340 0.044205 0.001045 0.043611 0.000046
 34 1.438886 0.000003 0.000000 0.000000 0.000000 0.325236
 35 2.027418 0.730720 12.541074 -1.531161 -0.031283 2.992741
time 4
  0 -0.038098 0.038098 -1.654825 -0.011266 -0.020007 -2.201493
  1 0.863307 0.000000 0.000000 -0.000018 -1.638344 -1.570790
  2 -0.000005 0.000007 3.713254 -0.567475 -2.735595 -0.570874
  3 18.045725 0.000000 0.000000 -0.000000 -0.000000 -1.078225
  4 17.597599 0.000000 0.000000 -0.120535 0.124900 0.420255
  5 0.000005 -0.000003 -3.713254 0.575950 2.639671 -0.327418
  6 18.045721 -0.000000 -0.000001 0.000000 0.000000 -0.936251
  7 17.597593 0.000000 -0.000000 -0.340754 0.321600 0.348623
  8 1.293338 0.684453 -0.085941 -0.050774 -0.019644 0.105523
  9 5.309647 -0.003832 -0.000000 0.008018 0.050755 0.048979
 10 4.826592 -0.004567 -0.000000 0.020194 0.036505 -0.006080
 11 5.792761 -0.005304 -0.000000 0.019388 -0.012056 0.033867
 12 6.661936 -0.000705 0.000000 -0.000000 -0.000001 0.177253
 13 2.044495 -0.000000 -0.000000 0.128001 0.203783 0.070154
 14 -3.416714 0.551540 4.341911 -0.102981 -1.469428 3.066065
 15 -3.151150 0.512078 -4.140396 -0.966797 1.407205 2.003082
 16 4.827231 0.000000 0.000001 -0.193590 0.916236 0.419530
 17 11.139763 -0.000000 -0.000000 0.000000 -0.000000 -1.683660
 18 8.575572 -8.394946 9.511936 -1.535143 -1.058019 1.499774
 19 -1.465386 0.506167 4.002137 0.034889 -0.200000 -0.000001
 20 4.972047 0.000000 0.000001 0.413250 -0.779151 -0.390484
 21 -9.249866 0.683183 -1.946118 -0.000014 -1.670796 0.000014
 22 10.313008 -0.000000 0.000000 -1.327102 -0.191785 0.110204
 23 1.646738 0.449549 -1.702246 0.154002 0.442277 0.277235
 24 0.928314 0.000000 0.000000 0.000000 0.000000 0.000000
 25 0.928314 -0.000000 -0.000000 0.000000 0.000000 0.000000
 26 2.975832 -0.386307 -0.044144 -0.000797 -0.043611 0.000035
 27 1.438890 0.000003 0.000001 -0.000000 -0.000000 0.793722
 28 1.485299 -0.000005 -0.000000 0.000000 -0.000000 1.465316
 29 11.585355 0.000000 0.000001 0.000000 0.000000 -1.918759
 30 10.125607 -0.000000 0.000001 2.312170 0.024919 0.019641
 31 1.533671 0.109715 1.664491 -0.233255 -0.412980 0.435685
 32 0.928314 -0.000001 0.000000 0.000000 0.000000 0.000000
 33 2.683748 -0.427340 0.044205 0.001045 0.043611 0.000046
 34 1.438886 0.000003 0.000000 0.000000 0.000000 0.188718
 35 2.027418 0.730720 12.541074 -1.531161 -0.031283 2.992741
time 5
  0 -0.038098 0.038098 -1.361847 0.000000 -0.055487 -2.060046
  1 0.863307 0.000000 0.000000 -0.000018 -1.644408 -1.570790
  2 -0.000005 0.000007 3.713254 -0.599872 -2.774419 -0.521584
  3 18.045725 0.000000 0.000000 -0.000000 -0.000000 -1.031843
  4 17.597599 0.000000 0.000000 0.069775 0.157036 0.415040
  5 0.000005 -0.000003 -3.713254 0.569540 2.662395 -0.217276
  6 18.045721 -0.000000 -0.000001 0.000000 0.000000 -0.890321
  7 17.597593 0.000000 -0.000000 -0.215628 0.286699 0.341523
  8 1.293338 0.684453 -0.093754 0.012381 -0.000480 0.113861
  9 5.309647 -0.003832 -0.000000 0.071120 0.041982 0.006731
 10 4.826592 -0.004567 -0.000000 0.077840 0.036289 -0.024434
 11 5.792761 -0.005304 -0.000000 0.020835 -0.018025 0.003595
 12 6.661936 -0.000705 0.000000 -0.000000 -0.000001 0.222131
 13 2.044495 -0.000000 -0.000000 -0.031354 0.311247 0.057080
 14 -3.389369 0.707795 4.341911 -0.097899 -1.478423 3.016114
 15 -3.123806 0.652707 -4.140396 -1.145984 1.391207 1.778834
 16 4.827231 0.000000 0.000001 -0.093603 0.867218 0.400715
 17 11.139763 -0.000000 -0.000000 0.000000 -0.000000 -1.810154
 18 8.575572 -8.394946 9.511936 -1.535143 -1.058019 1.499774
 19 -1.465386 0.506167 4.002137 0.034889 -0.200000 -0.000001
 20 4.972047 0.000000 0.000001 0.365226 -0.737321 -0.221389
 21 -9.249866 0.683183 -1.946118 -0.000014 -1.670796 0.000014
 22 10.313008 -0.000000 0.000000 -1.362159 -0.200462 0.122886
 23 1.646738 0.449549 -1.702246 0.154002 0.442277 0.277235
 24 0.928314 0.000000 0.000000 0.000000 0.000000 0.000000
 25 0.928314 -0.000000 -0.000000 0.000000 0.000000 0.000000
 26 2.975832 -0.386307 -0.044144 -0.000797 -0.043611 0.000035
 27 1.438890 0.000003 0.000001 -0.000000 -0.000000 0.793722
 28 1.485299 -0.000005 -0.000000 0.000000 -0.000000 1.465316
 29 11.585355 0.000000 0.000001 0.000000 0.000000 -2.073932
 30 10.125607 -0.000000 0.000001 2.342933 0.019922 0.031014
 31 1.533671 0.109715 1.664491 -0.233255 -0.412980 0.435685
 32 0.928314 -0.000001 0.000000 0.000000 0.000000 0.000000
 33 2.683748 -0.427340 0.044205 0.001045 0.043611 0.000046
 34 1.438886 0.000003 0.000000 0.000000 0.000000 0.076303
 35 2.027418 0.730720 12.541074 -1.531161 -0.031283 2.992741
time 6
  0 -0.038098 0.038098 -0.768079 -0.000477 -0.130715 -1.922498
  1 0.863307 0.000000 0.000000 -0.000018 -1.650760 -1.570790
  2 -0.000005 0.000007 3.713254 -0.618755 -2.818035 -0.416399
  3 18.045725 0.000000 0.000000 -0.000000 -0.000000 -0.948282
  4 17.597599 0.000000 0.000000 0.241378 0.178956 0.394452
  5 0.000005 -0.000003 -3.713254 0.397438 2.712033 -0.009883
  6 18.045721 -0.000000 -0.000001 0.000000 0.000000 -0.866487
  7 17.597593 0.000000 -0.000000 -0.096176 0.108921 0.172806
  8 1.293338 0.684453 -0.101567 0.019529 -0.000516 0.113808
  9 5.309647 -0.003832 -0.000000 0.132155 0.037967 -0.020236
 10 4.826592 -0.004567 -0.000000 0.138686 0.022375 -0.042349
 11 5.792761 -0.005304 -0.000000 0.018843 -0.044882 0.035383
 12 6.661936 -0.000705 0.000000 -0.000000 -0.000001 0.266620
 13 2.044495 -0.000000 -0.000000 -0.126940 0.450795 -0.026631
 14 -3.354212 0.856237 4.341911 -0.056003 -1.478545 2.929921
 15 -3.092555 0.789430 -4.140396 -1.238598 1.372879 1.641736
 16 4.827231 0.000000 0.000001 -0.123836 0.771224 0.264810
 17 11.139763 -0.000000 -0.000000 0.000000 -0.000000 -1.853604
 18 8.575572 -8.394946 9.511936 -1.535143 -1.058019 1.499774
 19 -1.465386 0.506167 4.002137 0.034889 -0.200000 -0.000001
 20 4.972047 0.000000 0.000001 0.393000 -0.745687 -0.116874
 21 -9.249866 0.683183 -1.946118 -0.000014 -1.670796 0.000014
 22 10.313008 -0.000000 0.000000 -1.373625 -0.148300 0.125730
 23 1.646738 0.449549 -1.702246 0.154002 0.442277 0.277235
 24 0.928314 0.000000 0.000000 0.000000 0.000000 0.000000
 25 0.928314 -0.000000 -0.000000 0.000000 0.000000 0.000000
 26 2.975832 -0.386307 -0.044144 -0.000797 -0.043611 0.000035
 27 1.438890 0.000003 0.000001 -0.000000 -0.000000 0.793722
 28 1.485299 -0.000005 -0.000000 0.000000 -0.000000 1.465316
 29 11.585355 0.000000 0.000001 0.000000 0.000000 -2.132616
 30 10.125607 -0.000000 0.000001 2.362839 0.020491 0.042762
 31 1.533671 0.109715 1.664491 -0.233255 -0.412980 0.435685
 32 0.928314 -0.000001 0.000000 0.000000 0.000000 0.000000
 33 2.683748 -0.427340 0.044205 0.001045 0.043611 0.000046
 34 1.438886 0.000003 0.000000 0.000000 0.000000 0.000008
 35 2.027418 0.730720 12.541074 -1.531161 -0.031283 2.992741
time 7
  0 -0.038098 0.038098 0.075697 0.000000 -0.204164 -1.725689
  1 0.863307 0.000000 0.000000 -0.000018 -1.665681 -1.570790
  2 -0.000005 0.000007 3.713254 -0.631790 -2.881496 -0.294946
  3 18.045725 0.000000 0.000000 -0.000000 -0.000000 -0.821159
  4 17.597599 0.000000 0.000000 0.446660 0.202419 0.357714
  5 0.000005 -0.000003 -3.713254 0.290389 2.834032 0.363668
  6 18.045721 -0.000000 -0.000001 0.000000 0.000000 -0.695228
  7 17.597593 0.000000 -0.000000 -0.003138 0.058923 -0.049673
  8 1.289432 0.684453 -0.121098 0.030317 -0.000624 0.113664
  9 5.309647 -0.003832 -0.000000 0.131345 0.026342 -0.031482
 10 4.826592 -0.004567 -0.000000 0.136289 0.009396 -0.042605
 11 5.792761 -0.005304 -0.000000 0.012849 -0.044715 0.068687
 12 6.661936 -0.000705 0.000000 -0.000000 -0.000001 0.310330
 13 2.044495 -0.000000 -0.000000 -0.099299 0.542926 -0.105340
 14 -3.311242 1.000772 4.341911 -0.001451 -1.475035 2.831936
 15 -3.053491 0.926153 -4.140396 -1.265730 1.354621 1.571557
 16 4.827231 0.000000 0.000001 -0.206209 0.686209 0.196901
 17 11.139763 -0.000000 -0.000000 0.000000 -0.000000 -1.867129
 18 8.575572 -8.394946 9.511936 -1.535143 -1.058019 1.499774
 19 -1.465386 0.506167 4.002137 0.034889 -0.200000 -0.000001
 20 4.972047 0.000000 0.000001 0.434521 -0.758880 -0.095738
 21 -9.249866 0.683183 -1.946118 -0.000014 -1.670796 0.000014
 22 10.313008 -0.000000 0.000000 -1.377316 -0.067771 0.123298
 23 1.646738 0.449549 -1.702246 0.154002 0.442277 0.277235
 24 0.928314 0.000000 0.000000 0.000000 0.000000 0.000000
 25 0.928314 -0.000000 -0.000000 0.000000 0.000000 0.000000
 26 2.975832 -0.386307 -0.044144 -0.000797 -0.043611 0.000035
 27 1.438890 0.000003 0.000001 -0.000000 -0.000000 0.793722
 28 1.485299 -0.000005 -0.000000 0.000000 -0.000000 1.465316
 29 11.585355 0.000000 0.000001 0.000000 0.000000 -2.086967
 30 10.125607 -0.000000 0.000001 2.371887 0.027701 0.055932
 31 1.533671 0.109715 1.664491 -0.233255 -0.412980 0.435685
 32 0.928314 -0.000001 0.000000 0.000000 0.000000 0.000000
 33 2.683748 -0.427340 0.044205 0.001045 0.043611 0.000046
 34 1.438886 0.000003 0.000000 0.000000 0.000000 -0.041477
 35 2.027418 0.730720 12.541074 -1.531161 -0.031283 2.992741
time 8
  0 -0.038098 0.038098 1.056195 0.000000 -0.276457 -1.524219
  1 0.863307 0.000000 0.000000 -0.000018 -1.702737 -1.570790
  2 -0.000005 0.000007 3.713254 -0.637158 -2.931535 -0.155768
  3 18.045725 0.000000 0.000000 -0.000000 -0.000000 -0.661235
  4 17.597599 0.000000 0.000000 0.624973 0.219933 0.303133
  5 0.000005 -0.000003 -3.713254 0.248870 2.847070 0.159618
  6 18.045721 -0.000000 -0.000001 0.000000 0.000000 -1.013405
  7 17.597593 0.000000 -0.000000 -0.086918 0.145296 -0.056625
  8 1.285525 0.684453 -0.167975 0.052180 -0.000876 0.113180
  9 5.309647 -0.003832 -0.000000 0.089023 0.009048 0.009647
 10 4.826592 -0.004567 -0.000000 0.094774 0.003176 -0.004285
 11 5.792761 -0.005304 -0.000000 0.016747 -0.014477 0.055523
 12 6.661936 -0.000705 0.000000 -0.000000 -0.000001 0.352941
 13 2.044495 -0.000000 -0.000000 -0.005900 0.598223 -0.192320
 14 -3.268272 1.141402 4.341911 0.056265 -1.468453 2.731745
 15 -3.014428 1.055063 -4.140396 -1.258060 1.336151 1.538097
 16 4.827231 0.000000 0.000001 -0.333799 0.620937 0.149908
 17 11.139763 -0.000000 -0.000000 0.000000 -0.000000 -1.856267
 18 8.575572 -8.394946 9.511936 -1.535143 -1.058019 1.499774
 19 -1.465386 0.506167 4.002137 0.034889 -0.200000 -0.000001
 20 4.972047 0.000000 0.000001 0.509854 -0.753731 -0.127560
 21 -9.249866 0.683183 -1.946118 -0.000014 -1.670796 0.000014
 22 10.313008 -0.000000 0.000000 -1.375009 0.034217 0.117499
 23 1.646738 0.449549 -1.702246 0.154002 0.442277 0.277235
 24 0.928314 0.000000 0.000000 0.000000 0.000000 0.000000
 25 0.928314 -0.000000 -0.000000 0.000000 0.000000 0.000000
 26 2.975832 -0.386307 -0.044144 -0.000797 -0.043611 0.000035
 27 1.438890 0.000003 0.000001 -0.000000 -0.000000 0.793722
 28 1.485299 -0.000005 -0.000000 0.000000 -0.000000 1.465316
 29 11.585355 0.000000 0.000001 0.000000 0.000000 -1.966355
 30 10.125607 -0.000000 0.000001 2.373792 0.040161 0.070972
 31 1.533671 0.109715 1.664491 -0.233255 -0.412980 0.435685
 32 0.928314 -0.000001 0.000000 0.000000 0.000000 0.000000
 33 2.683748 -0.427340 0.044205 0.001045 0.043611 0.000046
 34 1.438886 0.000003 0.000000 0.000000 0.000000 -0.060966
 35 2.027418 0.730720 12.541074 -1.531161 -0.031283 2.992741
time 9
  0 -0.038098 0.038098 2.056226 -0.007733 -0.355686 -1.403128
  1 0.863307 0.000000 0.000000 -0.000018 -1.762300 -1.570790
  2 -0.000005 0.000007 3.713254 -0.644826 -2.937191 0.002301
  3 18.045725 0.000000 0.000000 -0.000000 -0.000000 -0.482313
  4 17.597599 0.000000 0.000000 0.682012 0.227588 0.223435
  5 0.000005 -0.000003 -3.713254 0.260446 2.874915 -0.171630
  6 18.045721 -0.000000 -0.000001 0.000000 0.000000 -1.464880
  7 17.597593 0.000000 -0.000000 -0.194729 0.257370 -0.021794
  8 1.273806 0.684453 -0.246102 0.092111 -0.001271 0.112086
  9 5.309647 -0.003832 -0.000000 0.044801 0.012512 0.071891
 10 4.826592 -0.004567 -0.000000 0.054710 0.026198 0.049093
 11 5.792761 -0.005304 -0.000000 0.029680 0.041383 0.026102
 12 6.661936 -0.000705 0.000000 -0.000000 -0.000001 0.394172
 13 2.044495 -0.000000 -0.000000 0.063039 0.614434 -0.295841
 14 -3.217489 1.274218 4.341911 0.110337 -1.459433 2.637019
 15 -2.967551 1.176161 -4.140396 -1.230928 1.318034 1.526017
 16 4.827231 0.000000 0.000001 -0.450086 0.587918 0.089350
 17 11.139763 -0.000000 -0.000000 0.000000 -0.000000 -1.826553
 18 8.575572 -8.394946 9.511936 -1.535143 -1.058019 1.499774
 19 -1.465386 0.506167 4.002137 0.034889 -0.200000 -0.000001
 20 4.972047 0.000000 0.000001 0.573390 -0.719464 -0.111571
 21 -9.249866 0.683183 -1.946118 -0.000014 -1.670796 0.000014
 22 10.313008 -0.000000 0.000000 -1.368288 0.150930 0.110316
 23 1.646738 0.449549 -1.702246 0.154002 0.442277 0.277235
 24 0.928314 0.000000 0.000000 0.000000 0.000000 0.000000
 25 0.928314 -0.000000 -0.000000 0.000000 0.000000 0.000000
 26 2.975832 -0.386307 -0.044144 -0.000797 -0.043611 0.000035
 27 1.438890 0.000003 0.000001 -0.000000 -0.000000 0.793722
 28 1.485299 -0.000005 -0.000000 0.000000 -0.000000 1.465316
 29 11.585355 0.000000 0.000001 0.000000 0.000000 -1.793960
 30 10.125607 -0.000000 0.000001 2.370553 0.056162 0.086686
 31 1.533671 0.109715 1.664491 -0.233255 -0.412980 0.435685
 32 0.928314 -0.000001 0.000000 0.000000 0.000000 0.000000
 33 2.683748 -0.427340 0.044205 0.001045 0.043611 0.000046
 34 1.438886 0.000003 0.000000 0.000000 0.000000 -0.063496
 35 2.027418 0.730720 12.541074 -1.531161 -0.031283 2.992741
time 10
  0 -0.038098 0.038098 3.017193 -0.166314 -0.388232 -1.265866
  1 0.863307 0.000000 0.000000 -0.000018 -1.682435 -1.570790
  2 -0.000005 0.000007 3.713254 -0.636870 -2.955596 0.143130
  3 18.045725 0.000000 0.000000 -0.000000 -0.000000 -0.231704
  4 17.597599 0.000000 0.000000 0.673751 0.242073 0.097665
  5 0.000005 -0.000003 -3.713254 0.226006 2.746025 -0.549251
  6 18.045721 -0.000000 -0.000001 0.000000 0.000000 -1.865427
  7 17.597593 0.000000 -0.000000 -0.284636 0.382505 0.027235
  8 1.289432 0.684453 -0.140630 0.058779 -0.000756 0.113467
  9 5.309647 -0.003832 -0.000000 0.002711 0.022267 0.119332
 10 4.826592 -0.004567 -0.000000 0.010810 0.051797 0.088329
 11 5.792761 -0.005304 -0.000000 0.024188 0.088638 0.003512
 12 6.661936 -0.000705 0.000000 -0.000000 -0.000001 0.433631
 13 2.044495 -0.000000 -0.000000 0.185737 0.496883 -0.309982
 14 -3.162800 1.403128 4.341911 0.157027 -1.448707 2.551306
 15 -2.916768 1.293352 -4.140396 -1.195359 1.300659 1.524675
 16 4.827231 0.000000 0.000001 -0.488643 0.675571 0.131093
 17 11.139763 -0.000000 -0.000000 0.000000 -0.000000 -1.783454
 18 8.575572 -8.394946 9.511936 -1.535143 -1.058019 1.499774
 19 -1.465386 0.506167 4.002137 0.034889 -0.200000 -0.000001
 20 4.972047 0.000000 0.000001 0.517843 -0.589390 -0.056662
 21 -9.249866 0.683183 -1.946118 -0.000014 -1.670796 0.000014
 22 10.313008 -0.000000 0.000000 -1.358271 0.275583 0.103583
 23 1.646738 0.449549 -1.702246 0.154002 0.442277 0.277235
 24 0.928314 0.000000 0.000000 0.000000 0.000000 0.000000
 25 0.928314 -0.000000 -0.000000 0.000000 0.000000 0.000000
 26 2.975832 -0.386307 -0.044144 -0.000797 -0.043611 0.000035
 27 1.438890 0.000003 0.000001 -0.000000 -0.000000 0.793722
 28 1.485299 -0.000005 -0.000000 0.000000 -0.000000 1.465316
 29 11.585355 0.000000 0.000001 0.000000 0.000000 -1.593196
 30 10.125607 -0.000000 0.000001 2.364172 0.073870 0.102250
 31 1.533671 0.109715 1.664491 -0.233255 -0.412980 0.435685
 32 0.928314 -0.000001 0.000000 0.000000 0.000000 0.000000
 33 2.683748 -0.427340 0.044205 0.001045 0.043611 0.000046
 34 1.438886 0.000003 0.000000 0.000000 0.000000 -0.054196
 35 2.027418 0.730720 12.541074 -1.531161 -0.031283 2.992741
time 11
  0 -0.038098 0.038098 3.786747 -0.349527 -0.417398 -1.117664
  1 0.863307 0.000000 0.000000 -1.570795 -1.570787 0.000000
  2 -0.000005 0.000007 3.713254 -0.645880 -2.970455 0.277500
  3 18.045725 0.000000 0.000000 -0.000000 -0.000000 -0.001799
  4 17.597599 0.000000 0.000000 0.572559 0.274540 -0.028470
  5 0.000005 -0.000003 -3.713254 0.057540 2.616109 -0.909573
  6 18.045721 -0.000000 -0.000001 0.000000 0.000000 -2.031036
  7 17.597593 0.000000 -0.000000 -0.362720 0.494018 0.055928
  8 1.293338 0.684453 -0.000001 -0.000004 -0.000001 0.114184
  9 5.309647 -0.003832 -0.000000 -0.041825 0.020901 0.195778
 10 4.826592 -0.004567 -0.000000 -0.036913 0.065556 0.149106
 11 5.792761 -0.005304 -0.000000 0.013645 0.136672 -0.037806
 12 6.661936 -0.000705 0.000000 -0.000000 -0.000001 0.471000
 13 2.044495 -0.000000 -0.000000 0.332696 0.371655 -0.347269
 14 -3.112017 1.516413 4.341911 0.195376 -1.437006 2.476140
 15 -2.869892 1.398824 -4.140396 -1.158927 1.284555 1.526304
 16 4.827231 0.000000 0.000001 -0.573558 0.775820 0.159971
 17 11.139763 -0.000000 -0.000000 0.000000 -0.000000 -1.732436
 18 8.575572 -8.394946 9.511936 -1.535143 -1.058019 1.499774
 19 -1.465386 0.506167 4.002137 0.034889 -0.200000 -0.000001
 20 4.972047 0.000000 0.000001 0.519143 -0.441701 -0.064305
 21 -9.249866 0.683183 -1.946118 -0.000014 -1.670796 0.000014
 22 10.313008 -0.000000 0.000000 -1.345751 0.401318 0.098906
 23 1.646738 0.449549 -1.702246 0.154002 0.442277 0.277235
 24 0.928314 0.000000 0.000000 0.000000 0.000000 0.000000
 25 0.928314 -0.000000 -0.000000 0.000000 0.000000 0.000000
 26 2.975832 -0.386307 -0.044144 -0.000797 -0.043611 0.000035
 27 1.438890 0.000003 0.000001 -0.000000 -0.000000 0.793722
 28 1.485299 -0.000005 -0.000000 0.000000 -0.000000 1.465316
 29 11.585355 0.000000 0.000001 0.000000 0.000000 -1.387242
 30 10.125607 -0.000000 0.000001 2.356743 0.091579 0.116467
 31 1.533671 0.109715 1.664491 -0.233255 -0.412980 0.435685
 32 0.928314 -0.000001 0.000000 0.000000 0.000000 0.000000
 33 2.683748 -0.427340 0.044205 0.001045 0.043611 0.000046
 34 1.438886 0.000003 0.000000 0.000000 0.000000 -0.038103
 35 2.027418 0.730720 12.541074 -1.531161 -0.031283 2.992741
time 12
  0 -0.038098 0.038098 4.267231 -0.444523 -0.429402 -0.974695
  1 0.863307 0.000000 0.000000 -1.570795 -1.570787 0.000000
  2 -0.000005 0.000007 3.713254 -0.670992 -2.838742 0.245498
  3 18.045725 0.000000 0.000000 -0.000000 -0.000000 -0.156825
  4 17.597599 0.000000 0.000000 0.386824 0.318408 0.031372
  5 0.000005 -0.000003 -3.713254 -0.145845 2.561070 -1.143230
  6 18.045721 -0.000000 -0.000001 0.000000 0.000000 -1.683301
  7 17.597593 0.000000 -0.000000 -0.439102 0.640992 0.058812
  8 1.293338 0.684453 -0.000001 -0.000004 -0.000001 0.114184
  9 5.309647 -0.003832 -0.000000 -0.084593 0.042389 0.276519
 10 4.826592 -0.004567 -0.000000 -0.075383 0.090220 0.219262
 11 5.792761 -0.005304 -0.000000 0.027877 0.151665 -0.061891
 12 6.661936 -0.000705 0.000000 -0.000000 -0.000001 0.480032
 13 2.044495 -0.000000 -0.000000 0.412772 0.540067 -0.326925
 14 -3.100298 1.543758 4.341911 0.225960 -1.425159 2.437118
 15 -2.858173 1.422262 -4.140396 -1.127481 1.270535 1.551232
 16 4.827231 0.000000 0.000001 -0.718587 0.751566 0.097838
 17 11.139763 -0.000000 -0.000000 0.000000 -0.000000 -1.678965
 18 8.575572 -8.394946 9.511936 -1.535143 -1.058019 1.499774
 19 -1.465386 0.506167 4.002137 0.034889 -0.200000 -0.000001
 20 4.972047 0.000000 0.000001 0.615933 -0.404537 -0.088484
 21 -9.249866 0.683183 -1.946118 -0.000014 -1.670796 0.000014
 22 10.313008 -0.000000 0.000000 -1.330990 0.521300 0.097747
 23 1.646738 0.449549 -1.702246 0.154002 0.442277 0.277235
 24 0.928314 0.000000 0.000000 0.000000 0.000000 0.000000
 25 0.928314 -0.000000 -0.000000 0.000000 0.000000 0.000000
 26 2.975832 -0.386307 -0.044144 -0.000797 -0.043611 0.000035
 27 1.438890 0.000003 0.000001 -0.000000 -0.000000 0.793722
 28 1.485299 -0.000005 -0.000000 0.000000 -0.000000 1.465316
 29 11.585355 0.000000 0.000001 0.000000 0.000000 -1.199395
 30 10.125607 -0.000000 0.000001 2.349981 0.107327 0.128664
 31 1.533671 0.109715 1.664491 -0.233255 -0.412980 0.435685
 32 0.928314 -0.000001 0.000000 0.000000 0.000000 0.000000
 33 2.683748 -0.427340 0.044205 0.001045 0.043611 0.000046
 34 1.438886 0.000003 0.000000 0.000000 0.000000 -0.020324
 35 2.027418 0.730720 12.541074 -1.531161 -0.031283 2.992741
time 13
  0 -0.038098 0.038098 4.310201 -0.557849 -0.346705 -0.824877
  1 0.863307 0.000000 0.000000 -1.570795 -1.570787 0.000000
  2 -0.000005 0.000007 3.713254 -0.641375 -2.616439 0.037848
  3 18.045725 0.000000 0.000000 -0.000000 -0.000000 -0.489809
  4 17.597599 0.000000 0.000000 0.194810 0.358668 0.186331
  5 0.000005 -0.000003 -3.713254 -0.417725 2.507707 -1.351060
  6 18.045721 -0.000000 -0.000001 0.000000 0.000000 -1.026952
  7 17.597593 0.000000 -0.000000 -0.242178 0.785556 0.210595
  8 1.293338 0.684453 -0.000001 -0.000004 -0.000001 0.114184
  9 5.309647 -0.003832 -0.000000 -0.097603 0.100191 0.306102
 10 4.826592 -0.004567 -0.000000 -0.090220 0.148813 0.246189
 11 5.792761 -0.005304 -0.000000 0.028213 0.155908 -0.066874
 12 6.661936 -0.000705 0.000000 -0.000000 -0.000001 0.471000
 13 2.044495 -0.000000 -0.000000 0.437165 0.570845 -0.266159
 14 -3.112017 1.516413 4.341911 0.249737 -1.413970 2.423024
 15 -2.869892 1.398824 -4.140396 -1.105238 1.259587 1.584595
 16 4.827231 0.000000 0.000001 -0.772655 0.787649 0.048920
 17 11.139763 -0.000000 -0.000000 0.000000 -0.000000 -1.628507
 18 8.575572 -8.394946 9.511936 -1.535143 -1.058019 1.499774
 19 -1.465386 0.506167 4.002137 0.034889 -0.200000 -0.000001
 20 4.972047 0.000000 0.000001 0.649930 -0.321039 -0.041453
 21 -9.249866 0.683183 -1.946118 -0.000014 -1.670796 0.000014
 22 10.313008 -0.000000 0.000000 -1.314186 0.628647 0.101413
 23 1.646738 0.449549 -1.702246 0.154002 0.442277 0.277235
 24 0.928314 0.000000 0.000000 0.000000 0.000000 0.000000
 25 0.928314 -0.000000 -0.000000 0.000000 0.000000 0.000000
 26 2.975832 -0.386307 -0.044144 -0.000797 -0.043611 0.000035
 27 1.438890 0.000003 0.000001 -0.000000 -0.000000 0.793722
 28 1.485299 -0.000005 -0.000000 0.000000 -0.000000 1.465316
 29 11.585355 0.000000 0.000001 0.000000 0.000000 -1.053010
 30 10.125607 -0.000000 0.000001 2.345790 0.119217 0.138018
 31 1.533671 0.109715 1.664491 -0.233255 -0.412980 0.435685
 32 0.928314 -0.000001 0.000000 0.000000 0.000000 0.000000
 33 2.683748 -0.427340 0.044205 0.001045 0.043611 0.000046
 34 1.438886 0.000003 0.000000 0.000000 0.000000 -0.005918
 35 2.027418 0.730720 12.541074 -1.531161 -0.031283 2.992741
time 14
  0 -0.038098 0.038098 3.884407 -0.586300 -0.248180 -0.754010
  1 0.863307 0.000000 0.000000 -1.570795 -1.570787 0.000000
  2 -0.000005 0.000007 3.713254 -0.587891 -2.501597 -0.173202
  3 18.045725 0.000000 0.000000 -0.000000 -0.000000 -0.721420
  4 17.597599 0.000000 0.000000 -0.042881 0.373071 0.281126
  5 0.000005 -0.000003 -3.713254 -0.597958 2.488895 -1.557145
  6 18.045721 -0.000000 -0.000001 0.000000 0.000000 -0.601846
  7 17.597593 0.000000 -0.000000 -0.042418 0.739396 0.326068
  8 1.293338 0.684453 -0.000001 -0.000004 -0.000001 0.114184
  9 5.309647 -0.003832 -0.000000 -0.074591 0.131063 0.287365
 10 4.826592 -0.004567 -0.000000 -0.074652 0.180308 0.238093
 11 5.792761 -0.005304 -0.000000 0.006225 0.152612 -0.039425
 12 6.661936 -0.000705 0.000000 -0.000000 -0.000001 0.471000
 13 2.044495 -0.000000 -0.000000 0.432459 0.417180 -0.307981
 14 -3.112017 1.516413 4.341911 0.267857 -1.404146 2.405479
 15 -2.869892 1.398824 -4.140396 -1.096034 1.252807 1.594950
 16 4.827231 0.000000 0.000001 -0.771691 0.780841 -0.023102
 17 11.139763 -0.000000 -0.000000 0.000000 -0.000000 -1.586600
 18 8.575572 -8.394946 9.511936 -1.535143 -1.058019 1.499774
 19 -1.465386 0.506167 4.002137 0.034889 -0.200000 -0.000001
 20 4.972047 0.000000 0.000001 0.684020 -0.283152 0.046059
 21 -9.249866 0.683183 -1.946118 -0.000014 -1.670796 0.000014
 22 10.313008 -0.000000 0.000000 -1.295669 0.716403 0.110952
 23 1.646738 0.449549 -1.702246 0.154002 0.442277 0.277235
 24 0.928314 0.000000 0.000000 0.000000 0.000000 0.000000
 25 0.928314 -0.000000 -0.000000 0.000000 0.000000 0.000000
 26 2.975832 -0.386307 -0.044144 -0.000797 -0.043611 0.000035
 27 1.438890 0.000003 0.000001 -0.000000 -0.000000 0.793722
 28 1.485299 -0.000005 -0.000000 0.000000 -0.000000 1.465316
 29 11.585355 0.000000 0.000001 0.000000 0.000000 -0.971383
 30 10.125607 -0.000000 0.000001 2.345886 0.125226 0.143630
 31 1.533671 0.109715 1.664491 -0.233255 -0.412980 0.435685
 32 0.928314 -0.000001 0.000000 0.000000 0.000000 0.000000
 33 2.683748 -0.427340 0.044205 0.001045 0.043611 0.000046
 34 1.438886 0.000003 0.000000 0.000000 0.000000 0.000008
 35 2.027418 0.730720 12.541074 -1.531161 -0.031283 2.992741
time 15
  0 -0.038098 0.038098 3.192979 -0.586777 -0.204875 -0.696366
  1 0.863307 0.000000 0.000000 -1.570795 -1.570451 0.000000
  2 -0.000005 0.000007 3.713254 -0.554727 -2.439479 -0.298054
  3 18.045725 0.000000 0.000000 -0.000000 -0.000000 -0.898858
  4 17.597599 0.000000 0.000000 -0.231285 0.360265 0.364302
  5 0.000005 -0.000003 -3.713254 2.560429 0.682561 1.339096
  6 18.045721 -0.000000 -0.000001 0.000000 0.000000 -0.699792
  7 17.597593 0.000000 -0.000000 -0.280006 0.743235 0.138752
  8 1.293338 0.684453 -0.000001 -0.000004 -0.000001 0.114184
  9 5.309647 -0.003832 -0.000000 -0.044570 0.123813 0.258321
 10 4.826592 -0.004567 -0.000000 -0.044223 0.176617 0.216441
 11 5.792761 -0.005304 -0.000000 0.004968 0.160438 -0.021715
 12 6.661936 -0.000705 0.000000 -0.000000 -0.000001 0.471000
 13 2.044495 -0.000000 -0.000000 0.396266 0.308680 -0.327392
 14 -3.112017 1.516413 4.341911 0.281279 -1.396516 2.392535
 15 -2.869892 1.398824 -4.140396 -1.101883 1.255244 1.588622
 16 4.827231 0.000000 0.000001 -0.709999 0.738886 -0.099499
 17 11.139763 -0.000000 -0.000000 0.000000 -0.000000 -1.558708
 18 8.575572 -8.394946 9.511936 -1.535143 -1.058019 1.499774
 19 -1.465386 0.506167 4.002137 0.034889 -0.200000 -0.000001
 20 4.972047 0.000000 0.000001 0.719225 -0.280577 0.149871
 21 -9.249866 0.683183 -1.946118 -0.000014 -1.670796 0.000014
 22 10.313008 -0.000000 0.000000 -1.276558 0.777636 0.126366
 23 1.646738 0.449549 -1.702246 0.154002 0.442277 0.277235
 24 0.928314 0.000000 0.000000 0.000000 0.000000 0.000000
 25 0.928314 -0.000000 -0.000000 0.000000 0.000000 0.000000
 26 2.975832 -0.386307 -0.044144 -0.000797 -0.043611 0.000035
 27 1.438890 0.000003 0.000001 -0.000000 -0.000000 0.793722
 28 1.485299 -0.000005 -0.000000 0.000000 -0.000000 1.465316
 29 11.585355 0.000000 0.000001 0.000000 0.000000 -0.998926
 30 10.125607 -0.000000 0.000001 2.354553 0.121178 0.142582
 31 1.533671 0.109715 1.664491 -0.233255 -0.412980 0.435685
 32 0.928314 -0.000001 0.000000 0.000000 0.000000 0.000000
 33 2.683748 -0.427340 0.044205 0.001045 0.043611 0.000046
 34 1.438886 0.000003 0.000000 0.000000 0.000000 0.000008
 35 2.027418 0.730720 12.541074 -1.531161 -0.031283 2.992741
time 16
  0 -0.038098 0.038098 2.501552 -0.643488 -0.221415 -0.605428
  1 0.863307 0.000000 0.000000 -1.570795 -1.570451 0.000000
  2 -0.000005 0.000007 3.713254 -0.581086 -2.378511 -0.270374
  3 18.045725 0.000000 0.000000 -0.000000 -0.000000 -0.900565
  4 17.597599 0.000000 0.000000 -0.160620 0.264516 0.412752
  5 0.000005 -0.000003 -3.713254 2.672453 0.747659 1.109073
  6 18.045721 -0.000000 -0.000001 0.000000 0.000000 -1.028980
  7 17.597593 0.000000 -0.000000 -0.651638 0.562695 -0.111015
  8 1.293338 0.684453 -0.000001 -0.000004 -0.000001 0.114184
  9 5.309647 -0.003832 -0.000000 -0.013920 0.142784 0.280854
 10 4.826592 -0.004567 -0.000000 -0.013962 0.194210 0.226663
 11 5.792761 -0.005304 -0.000000 0.007755 0.155788 -0.062866
 12 6.661936 -0.000705 0.000000 -0.000000 -0.000001 0.471000
 13 2.044495 -0.000000 -0.000000 0.383141 0.148464 -0.357207
 14 -3.112017 1.516413 4.341911 0.290674 -1.391811 2.383523
 15 -2.869892 1.398824 -4.140396 -1.118852 1.267851 1.569447
 16 4.827231 0.000000 0.000001 -0.694664 0.754034 -0.195412
 17 11.139763 -0.000000 -0.000000 0.000000 -0.000000 -1.550298
 18 8.575572 -8.394946 9.511936 -1.535143 -1.058019 1.499774
 19 -1.465386 0.506167 4.002137 0.034889 -0.200000 -0.000001
 20 4.972047 0.000000 0.000001 0.782668 -0.214375 0.197839
 21 -9.249866 0.683183 -1.946118 -0.000014 -1.670796 0.000014
 22 10.313008 -0.000000 0.000000 -1.259623 0.805462 0.146380
 23 1.646738 0.449549 -1.702246 0.154002 0.442277 0.277235
 24 0.928314 0.000000 0.000000 0.000000 0.000000 0.000000
 25 0.928314 -0.000000 -0.000000 0.000000 0.000000 0.000000
 26 2.975832 -0.386307 -0.044144 -0.000797 -0.043611 0.000035
 27 1.438890 0.000003 0.000001 -0.000000 -0.000000 0.793722
 28 1.485299 -0.000005 -0.000000 0.000000 -0.000000 1.465316
 29 11.585355 0.000000 0.000001 0.000000 0.000000 -1.128680
 30 10.125607 -0.000000 0.000001 2.370363 0.107390 0.133902
 31 1.533671 0.109715 1.664491 -0.233255 -0.412980 0.435685
 32 0.928314 -0.000001 0.000000 0.000000 0.000000 0.000000
 33 2.683748 -0.427340 0.044205 0.001045 0.043611 0.000046
 34 1.438886 0.000003 0.000000 0.000000 0.000000 0.000008
 35 2.027418 0.730720 12.541074 -1.531161 -0.031283 2.992741
time 17
  0 -0.038098 0.038098 2.118728 -0.701059 -0.238310 -0.515823
  1 0.863307 0.000000 0.000000 -1.570795 -1.570451 0.000000
  2 -0.000005 0.000007 3.713254 -0.569201 -2.342947 -0.199328
  3 18.045725 0.000000 0.000000 -0.000000 -0.000000 -0.837337
  4 17.597599 0.000000 0.000000 -0.051777 0.154475 0.447019
  5 0.000005 -0.000003 -3.713254 2.771658 0.770568 1.042349
  6 18.045721 -0.000000 -0.000001 0.000000 0.000000 -1.254356
  7 17.597593 0.000000 -0.000000 -0.743609 0.359636 -0.162078
  8 1.293338 0.684453 -0.000001 -0.000004 -0.000001 0.114184
  9 5.309647 -0.003832 -0.000000 -0.000777 0.161313 0.276898
 10 4.826592 -0.004567 -0.000000 -0.006939 0.202719 0.227872
 11 5.792761 -0.005304 -0.000000 -0.010271 0.124172 -0.050284
 12 6.661936 -0.000705 0.000000 -0.000000 -0.000001 0.471000
 13 2.044495 -0.000000 -0.000000 0.432525 0.001373 -0.390359
 14 -3.112017 1.516413 4.341911 0.296235 -1.390641 2.378154
 15 -2.869892 1.398824 -4.140396 -1.142533 1.285650 1.543082
 16 4.827231 0.000000 0.000001 -0.702726 0.775224 -0.269709
 17 11.139763 -0.000000 -0.000000 0.000000 -0.000000 -1.568028
 18 8.575572 -8.394946 9.511936 -1.535143 -1.058019 1.499774
 19 -1.465386 0.506167 4.002137 0.034889 -0.200000 -0.000001
 20 4.972047 0.000000 0.000001 0.841931 -0.165064 0.178340
 21 -9.249866 0.683183 -1.946118 -0.000014 -1.670796 0.000014
 22 10.313008 -0.000000 0.000000 -1.245323 0.786510 0.174326
 23 1.646738 0.449549 -1.702246 0.154002 0.442277 0.277235
 24 0.928314 0.000000 0.000000 0.000000 0.000000 0.000000
 25 0.928314 -0.000000 -0.000000 0.000000 0.000000 0.000000
 26 2.975832 -0.386307 -0.044144 -0.000797 -0.043611 0.000035
 27 1.438890 0.000003 0.000001 -0.000000 -0.000000 0.793722
 28 1.485299 -0.000005 -0.000000 0.000000 -0.000000 1.465316
 29 11.585355 0.000000 0.000001 0.000000 0.000000 -1.306795
 30 10.125607 -0.000000 0.000001 2.387030 0.088480 0.119984
 31 1.533671 0.109715 1.664491 -0.233255 -0.412980 0.435685
 32 0.928314 -0.000001 0.000000 0.000000 0.000000 0.000000
 33 2.683748 -0.427340 0.044205 0.001045 0.043611 0.000046
 34 1.438886 0.000003 0.000000 0.000000 0.000000 0.000008
 35 2.027418 0.730720 12.541074 -1.531161 -0.031283 2.992741
time 18
  0 -0.038098 0.038098 2.099196 -0.714998 -0.276101 -0.432210
  1 0.863307 0.000000 0.000000 -1.570795 -1.570787 0.000000
  2 -0.000005 0.000007 3.713254 -0.478623 -2.378895 -0.147707
  3 18.045725 0.000000 0.000000 -0.000000 -0.000000 -0.811363
  4 17.597599 0.000000 0.000000 -0.065580 0.158165 0.458045
  5 0.000005 -0.000003 -3.713254 2.827527 0.725028 1.127438
  6 18.045721 -0.000000 -0.000001 0.000000 0.000000 -1.300648
  7 17.597593 0.000000 -0.000000 -0.713315 0.343158 -0.183264
  8 1.293338 0.684453 -0.000001 -0.000004 -0.000001 0.114184
  9 5.309647 -0.003832 -0.000000 0.014366 0.140567 0.266451
 10 4.826592 -0.004567 -0.000000 0.009360 0.176102 0.227066
 11 5.792761 -0.005304 -0.000000 -0.010941 0.105896 -0.023562
 12 6.661936 -0.000705 0.000000 -0.000000 -0.000001 0.471000
 13 2.044495 -0.000000 -0.000000 0.463548 -0.090082 -0.434916
 14 -3.112017 1.516413 4.341911 0.298344 -1.392567 2.375853
 15 -2.869892 1.398824 -4.140396 -1.166597 1.303837 1.516430
 16 4.827231 0.000000 0.000001 -0.685200 0.782628 -0.372884
 17 11.139763 -0.000000 -0.000000 0.000000 -0.000000 -1.609376
 18 8.575572 -8.394946 9.511936 -1.535143 -1.058019 1.499774
 19 -1.465386 0.506167 4.002137 0.034889 -0.200000 -0.000001
 20 4.972047 0.000000 0.000001 0.882152 -0.182279 0.183409
 21 -9.249866 0.683183 -1.946118 -0.000014 -1.670796 0.000014
 22 10.313008 -0.000000 0.000000 -1.234648 0.720140 0.209941
 23 1.646738 0.449549 -1.702246 0.154002 0.442277 0.277235
 24 0.928314 0.000000 0.000000 0.000000 0.000000 0.000000
 25 0.928314 -0.000000 -0.000000 0.000000 0.000000 0.000000
 26 2.975832 -0.386307 -0.044144 -0.000797 -0.043611 0.000035
 27 1.438890 0.000003 0.000001 -0.000000 -0.000000 0.793722
 28 1.485299 -0.000005 -0.000000 0.000000 -0.000000 1.465316
 29 11.585355 0.000000 0.000001 0.000000 0.000000 -1.479308
 30 10.125607 -0.000000 0.000001 2.398079 0.068874 0.103447
 31 1.533671 0.109715 1.664491 -0.233255 -0.412980 0.435685
 32 0.928314 -0.000001 0.000000 0.000000 0.000000 0.000000
 33 2.683748 -0.427340 0.044205 0.001045 0.043611 0.000046
 34 1.438886 0.000003 0.000000 0.000000 0.000000 0.000008
 35 2.027418 0.730720 12.541074 -1.531161 -0.031283 2.992741
time 19
  0 -0.038098 0.038098 2.317953 -0.717767 -0.275479 -0.343080
  1 0.863307 0.000000 0.000000 -1.570795 -1.570451 0.000000
  2 -0.000005 0.000007 3.713254 -0.328716 -2.432961 -0.148338
  3 18.045725 0.000000 0.000000 -0.000000 -0.000000 -0.785686
  4 17.597599 0.000000 0.000000 -0.068503 0.169841 0.428124
  5 0.000005 -0.000003 -3.713254 2.873063 0.660769 1.250711
  6 18.045721 -0.000000 -0.000001 0.000000 0.000000 -1.319846
  7 17.597593 0.000000 -0.000000 -0.667091 0.377098 -0.210700
  8 1.293338 0.684453 -0.000001 -0.000004 -0.000001 0.114184
  9 5.309647 -0.003832 -0.000000 0.030055 0.117761 0.252668
 10 4.826592 -0.004567 -0.000000 0.030573 0.149472 0.206440
 11 5.792761 -0.005304 -0.000000 0.006665 0.093516 -0.044761
 12 6.661936 -0.000705 0.000000 -0.000000 -0.000001 0.471000
 13 2.044495 -0.000000 -0.000000 0.461427 -0.185929 -0.407167
 14 -3.112017 1.516413 4.341911 0.297481 -1.396808 2.376524
 15 -2.869892 1.398824 -4.140396 -1.181170 1.317752 1.500131
 16 4.827231 0.000000 0.000001 -0.570140 0.862623 -0.435805
 17 11.139763 -0.000000 -0.000000 0.000000 -0.000000 -1.666210
 18 8.575572 -8.394946 9.511936 -1.535143 -1.058019 1.499774
 19 -1.465386 0.506167 4.002137 0.034889 -0.200000 -0.000001
 20 4.972047 0.000000 0.000001 0.802361 -0.223706 0.255634
 21 -9.249866 0.683183 -1.946118 -0.000014 -1.670796 0.000014
 22 10.313008 -0.000000 0.000000 -1.230825 0.618765 0.247127
 23 1.646738 0.449549 -1.702246 0.154002 0.442277 0.277235
 24 0.928314 0.000000 0.000000 0.000000 0.000000 0.000000
 25 0.928314 -0.000000 -0.000000 0.000000 0.000000 0.000000
 26 2.975832 -0.386307 -0.044144 -0.000797 -0.043611 0.000035
 27 1.438890 0.000003 0.000001 -0.000000 -0.000000 0.793722
 28 1.485299 -0.000005 -0.000000 0.000000 -0.000000 1.465316
 29 11.585355 0.000000 0.000001 0.000000 0.000000 -1.592312
 30 10.125607 -0.000000 0.000001 2.396936 0.052747 0.087360
 31 1.533671 0.109715 1.664491 -0.233255 -0.412980 0.435685
 32 0.928314 -0.000001 0.000000 0.000000 0.000000 0.000000
 33 2.683748 -0.427340 0.044205 0.001045 0.043611 0.000046
 34 1.438886 0.000003 0.000000 0.000000 0.000000 0.000008
 35 2.027418 0.730720 12.541074 -1.531161 -0.031283 2.992741
time 20
  0 -0.038098 0.038098 2.692964 -0.680627 -0.212967 -0.258135
  1 0.863307 0.000000 0.000000 -1.570795 -1.570451 0.000000
  2 -0.000005 0.000007 3.713254 -0.163951 -2.532369 -0.197240
  3 18.045725 0.000000 0.000000 -0.000000 -0.000000 -0.728841
  4 17.597599 0.000000 0.000000 -0.064131 0.193607 0.378485
  5 0.000005 -0.000003 -3.713254 2.899276 0.580119 1.394433
  6 18.045721 -0.000000 -0.000001 0.000000 0.000000 -1.317962
  7 17.597593 0.000000 -0.000000 -0.618757 0.451487 -0.233920
  8 1.293338 0.684453 -0.000001 -0.000004 -0.000001 0.114184
  9 5.309647 -0.003832 -0.000000 0.044900 0.080740 0.204887
 10 4.826592 -0.004567 -0.000000 0.049748 0.115052 0.159071
 11 5.792761 -0.005304 -0.000000 0.017146 0.100599 -0.045135
 12 6.661936 -0.000705 0.000000 -0.000000 -0.000001 0.471000
 13 2.044495 -0.000000 -0.000000 0.459637 -0.269324 -0.337864
 14 -3.112017 1.516413 4.341911 0.293551 -1.402561 2.380167
 15 -2.869892 1.398824 -4.140396 -1.180498 1.327322 1.499939
 16 4.827231 0.000000 0.000001 -0.377790 0.983040 -0.420665
 17 11.139763 -0.000000 -0.000000 0.000000 -0.000000 -1.730333
 18 8.575572 -8.394946 9.511936 -1.535143 -1.058019 1.499774
 19 -1.465386 0.506167 4.002137 0.034889 -0.200000 -0.000001
 20 4.972047 0.000000 0.000001 0.620485 -0.286771 0.360226
 21 -9.249866 0.683183 -1.946118 -0.000014 -1.670796 0.000014
 22 10.313008 -0.000000 0.000000 -1.234186 0.494998 0.282891
 23 1.646738 0.449549 -1.702246 0.154002 0.442277 0.277235
 24 0.928314 0.000000 0.000000 0.000000 0.000000 0.000000
 25 0.928314 -0.000000 -0.000000 0.000000 0.000000 0.000000
 26 2.975832 -0.386307 -0.044144 -0.000797 -0.043611 0.000035
 27 1.438890 0.000003 0.000001 -0.000000 -0.000000 0.793722
 28 1.485299 -0.000005 -0.000000 0.000000 -0.000000 1.465316
 29 11.585355 0.000000 0.000001 0.000000 0.000000 -1.647634
 30 10.125607 -0.000000 0.000001 2.384840 0.038516 0.070523
 31 1.533671 0.109715 1.664491 -0.233255 -0.412980 0.435685
 32 0.928314 -0.000001 0.000000 0.000000 0.000000 0.000000
 33 2.683748 -0.427340 0.044205 0.001045 0.043611 0.000046
 34 1.438886 0.000003 0.000000 0.000000 0.000000 0.000008
 35 2.027418 0.730720 12.541074 -1.531161 -0.031283 2.992741
time 21
  0 -0.038098 0.038098 3.091413 -0.613510 -0.121289 -0.162346
  1 0.863307 0.000000 0.000000 -1.570795 -1.570787 0.000000
  2 -0.000005 0.000007 3.713254 -0.026792 -2.659289 -0.247404
  3 18.045725 0.000000 0.000000 -0.000000 -0.000000 -0.643054
  4 17.597599 0.000000 0.000000 -0.059505 0.228277 0.314570
  5 0.000005 -0.000003 -3.713254 2.902050 0.487921 1.545520
  6 18.045721 -0.000000 -0.000001 0.000000 0.000000 -1.301010
  7 17.597593 0.000000 -0.000000 -0.574257 0.550242 -0.241611
  8 1.293338 0.684453 -0.000001 -0.000004 -0.000001 0.114184
  9 5.309647 -0.003832 -0.000000 0.063978 0.036745 0.147078
 10 4.826592 -0.004567 -0.000000 0.069163 0.065208 0.105547
 11 5.792761 -0.005304 -0.000000 0.015762 0.082550 -0.033591
 12 6.661936 -0.000705 0.000000 -0.000000 -0.000001 0.471000
 13 2.044495 -0.000000 -0.000000 0.479523 -0.291974 -0.270695
 14 -3.112017 1.516413 4.341911 0.286552 -1.408973 2.386783
 15 -2.869892 1.398824 -4.140396 -1.169761 1.335868 1.510198
 16 4.827231 0.000000 0.000001 -0.083613 1.061163 -0.278722
 17 11.139763 -0.000000 -0.000000 0.000000 -0.000000 -1.793475
 18 8.575572 -8.394946 9.511936 -1.535143 -1.058019 1.499774
 19 -1.465386 0.506167 4.002137 0.034889 -0.200000 -0.000001
 20 4.972047 0.000000 0.000001 0.374422 -0.393114 0.473866
 21 -9.249866 0.683183 -1.946118 -0.000014 -1.670796 0.000014
 22 10.313008 -0.000000 0.000000 -1.243214 0.361397 0.315888
 23 1.646738 0.449549 -1.702246 0.154002 0.442277 0.277235
 24 0.928314 0.000000 0.000000 0.000000 0.000000 0.000000
 25 0.928314 -0.000000 -0.000000 0.000000 0.000000 0.000000
 26 2.975832 -0.386307 -0.044144 -0.000797 -0.043611 0.000035
 27 1.438890 0.000003 0.000001 -0.000000 -0.000000 0.793722
 28 1.485299 -0.000005 -0.000000 0.000000 -0.000000 1.465316
 29 11.585355 0.000000 0.000001 0.000000 0.000000 -1.685675
 30 10.125607 -0.000000 0.000001 2.368077 0.022768 0.051068
 31 1.533671 0.109715 1.664491 -0.233255 -0.412980 0.435685
 32 0.928314 -0.000001 0.000000 0.000000 0.000000 0.000000
 33 2.683748 -0.427340 0.044205 0.001045 0.043611 0.000046
 34 1.438886 0.000003 0.000000 0.000000 0.000000 0.000008
 35 2.027418 0.730720 12.541074 -1.531161 -0.031283 2.992741
time 22
  0 -0.038098 0.038098 3.388298 -0.543146 -0.026943 -0.024799
  1 0.863307 0.000000 0.000000 -1.570795 -1.570787 0.000000
  2 -0.000005 0.000007 3.713254 0.067811 -2.782663 -0.291935
  3 18.045725 0.000000 0.000000 -0.000000 -0.000000 -0.562312
  4 17.597599 0.000000 0.000000 -0.043440 0.271483 0.244343
  5 0.000005 -0.000003 -3.713254 -0.259973 2.751333 -1.446810
  6 18.045721 -0.000000 -0.000001 0.000000 0.000000 -1.275003
  7 17.597593 0.000000 -0.000000 -0.530143 0.653609 -0.222495
  8 1.293338 0.684453 -0.000001 -0.000004 -0.000001 0.114184
  9 5.309647 -0.003832 -0.000000 0.078625 -0.003284 0.115118
 10 4.826592 -0.004567 -0.000000 0.083221 0.011817 0.070121
 11 5.792761 -0.005304 -0.000000 0.012828 0.041011 -0.042207
 12 6.661936 -0.000705 0.000000 -0.000000 -0.000001 0.471000
 13 2.044495 -0.000000 -0.000000 0.529968 -0.285557 -0.234609
 14 -3.112017 1.516413 4.341911 0.276581 -1.415238 2.396466
 15 -2.869892 1.398824 -4.140396 -1.152791 1.343744 1.526688
 16 4.827231 0.000000 0.000001 0.232822 1.082863 -0.065807
 17 11.139763 -0.000000 -0.000000 0.000000 -0.000000 -1.847577
 18 8.575572 -8.394946 9.511936 -1.535143 -1.058019 1.499774
 19 -1.465386 0.506167 4.002137 0.034889 -0.200000 -0.000001
 20 4.972047 0.000000 0.000001 0.095106 -0.509191 0.581110
 21 -9.249866 0.683183 -1.946118 -0.000014 -1.670796 0.000014
 22 10.313008 -0.000000 0.000000 -1.255273 0.230501 0.344956
 23 1.646738 0.449549 -1.702246 0.154002 0.442277 0.277235
 24 0.928314 0.000000 0.000000 0.000000 0.000000 0.000000
 25 0.928314 -0.000000 -0.000000 0.000000 0.000000 0.000000
 26 2.975832 -0.386307 -0.044144 -0.000797 -0.043611 0.000035
 27 1.438890 0.000003 0.000001 -0.000000 -0.000000 0.793722
 28 1.485299 -0.000005 -0.000000 0.000000 -0.000000 1.465316
 29 11.585355 0.000000 0.000001 0.000000 0.000000 -1.710387
 30 10.125607 -0.000000 0.000001 2.347409 0.006388 0.030790
 31 1.533671 0.109715 1.664491 -0.233255 -0.412980 0.435685
 32 0.928314 -0.000001 0.000000 0.000000 0.000000 0.000000
 33 2.683748 -0.427340 0.044205 0.001045 0.043611 0.000046
 34 1.438886 0.000003 0.000000 0.000000 0.000000 0.000008
 35 2.027418 0.730720 12.541074 -1.531161 -0.031283 2.992741
time 23
  0 -0.038098 0.038098 3.489863 -0.447196 0.083320 -6.106187
  1 0.863307 0.000000 0.000000 -0.000018 -1.613260 -1.570790
  2 -0.000005 0.000007 3.713254 0.116503 -2.889740 -0.382406
  3 18.045725 0.000000 0.000000 -0.000000 -0.000000 -0.551700
  4 17.597599 0.000000 0.000000 0.003356 0.318022 0.184958
  5 0.000005 -0.000003 -3.713254 -0.257486 2.859735 -1.294948
  6 18.045721 -0.000000 -0.000001 0.000000 0.000000 -1.245880
  7 17.597593 0.000000 -0.000000 -0.475455 0.740286 -0.165960
  8 1.293338 0.684453 -0.054690 0.000860 -0.000265 0.114077
  9 5.309647 -0.003832 -0.000000 0.079501 -0.029566 0.112780
 10 4.826592 -0.004567 -0.000000 0.087799 -0.032502 0.067667
 11 5.792761 -0.005304 -0.000000 0.023497 -0.012859 -0.038595
 12 6.661936 -0.000705 0.000000 -0.000000 -0.000001 0.471000
 13 2.044495 -0.000000 -0.000000 0.604143 -0.243770 -0.284502
 14 -3.112017 1.516413 4.341911 0.263542 -1.420527 2.409122
 15 -2.869892 1.398824 -4.140396 -1.134479 1.351266 1.544712
 16 4.827231 0.000000 0.000001 0.370228 1.034952 0.021879
 17 11.139763 -0.000000 -0.000000 0.000000 -0.000000 -1.884369
 18 8.575572 -8.394946 9.511936 -1.535143 -1.058019 1.499774
 19 -1.465386 0.506167 4.002137 0.034889 -0.200000 -0.000001
 20 4.972047 0.000000 0.000001 -0.147241 -0.661224 0.644053
 21 -9.249866 0.683183 -1.946118 -0.000014 -1.670796 0.000014
 22 10.313008 -0.000000 0.000000 -1.267003 0.114574 0.368300
 23 1.646738 0.449549 -1.702246 0.154002 0.442277 0.277235
 24 0.928314 0.000000 0.000000 0.000000 0.000000 0.000000
 25 0.928314 -0.000000 -0.000000 0.000000 0.000000 0.000000
 26 2.975832 -0.386307 -0.044144 -0.000797 -0.043611 0.000035
 27 1.438890 0.000003 0.000001 -0.000000 -0.000000 0.793722
 28 1.485299 -0.000005 -0.000000 0.000000 -0.000000 1.465316
 29 11.585355 0.000000 0.000001 0.000000 0.000000 -1.725663
 30 10.125607 -0.000000 0.000001 2.323313 -0.009487 0.011410
 31 1.533671 0.109715 1.664491 -0.233255 -0.412980 0.435685
 32 0.928314 -0.000001 0.000000 0.000000 0.000000 0.000000
 33 2.683748 -0.427340 0.044205 0.001045 0.043611 0.000046
 34 1.438886 0.000003 0.000000 0.000000 0.000000 0.000008
 35 2.027418 0.730720 12.541074 -1.531161 -0.031283 2.992741
time 24
  0 -0.038098 0.038098 3.310170 -0.219493 0.232174 -5.802365
  1 0.863307 0.000000 0.000000 -0.000018 -1.755661 -1.570790
  2 -0.000005 0.000007 3.713254 0.005318 -2.941217 -0.513134
  3 18.045725 0.000000 0.000000 -0.000000 -0.000000 -0.577897
  4 17.597599 0.000000 0.000000 0.039883 0.312570 0.282042
  5 0.000005 -0.000003 -3.713254 -0.181623 3.013119 -1.155974
  6 18.045721 -0.000000 -0.000001 0.000000 0.000000 -1.219655
  7 17.597593 0.000000 -0.000000 -0.399095 0.788622 -0.066941
  8 1.273806 0.684453 -0.234383 -0.023700 -0.001140 0.112230
  9 5.309647 -0.003832 -0.000000 0.049810 -0.049820 0.135512
 10 4.826592 -0.004567 -0.000000 0.064801 -0.062919 0.077631
 11 5.792761 -0.005304 -0.000000 0.041606 -0.042761 -0.076051
 12 6.661936 -0.000705 0.000000 -0.000000 -0.000001 0.471000
 13 2.044495 -0.000000 -0.000000 0.762636 -0.145469 -0.366346
 14 -3.112017 1.516413 4.341911 0.248107 -1.424013 2.424175
 15 -2.869892 1.398824 -4.140396 -1.119907 1.358929 1.558805
 16 4.827231 0.000000 0.000001 0.387316 0.910534 0.108515
 17 11.139763 -0.000000 -0.000000 0.000000 -0.000000 -1.895722
 18 8.575572 -8.394946 9.511936 -1.535143 -1.058019 1.499774
 19 -1.465386 0.506167 4.002137 0.034889 -0.200000 -0.000001
 20 4.972047 0.000000 0.000001 -0.422749 -0.848732 0.642103
 21 -9.249866 0.683183 -1.946118 -0.000014 -1.670796 0.000014
 22 10.313008 -0.000000 0.000000 -1.274384 0.025811 0.383039
 23 1.646738 0.449549 -1.702246 0.154002 0.442277 0.277235
 24 0.928314 0.000000 0.000000 0.000000 0.000000 0.000000
 25 0.928314 -0.000000 -0.000000 0.000000 0.000000 0.000000
 26 2.975832 -0.386307 -0.044144 -0.000797 -0.043611 0.000035
 27 1.438890 0.000003 0.000001 -0.000000 -0.000000 0.793722
 28 1.485299 -0.000005 -0.000000 0.000000 -0.000000 1.465316
 29 11.585355 0.000000 0.000001 0.000000 0.000000 -1.735512
 30 10.125607 -0.000000 0.000001 2.296264 -0.023843 -0.005426
 31 1.533671 0.109715 1.664491 -0.233255 -0.412980 0.435685
 32 0.928314 -0.000001 0.000000 0.000000 0.000000 0.000000
 33 2.683748 -0.427340 0.044205 0.001045 0.043611 0.000046
 34 1.438886 0.000003 0.000000 0.000000 0.000000 0.000008
 35 2.027418 0.730720 12.541074 -1.531161 -0.031283 2.992741
time 25
  0 -0.038098 0.038098 2.427331 -0.073323 0.346616 -5.447177
  1 0.863307 0.000000 0.000000 -0.000018 -1.775567 -1.570790
  2 -0.000005 0.000007 3.713254 -0.274465 -2.935370 -0.641823
  3 18.045725 0.000000 0.000000 -0.000000 -0.000000 -0.718600
  4 17.597599 0.000000 0.000000 0.004017 0.227010 0.460470
  5 0.000005 -0.000003 -3.713254 -0.293073 3.167900 -1.080867
  6 18.045721 -0.000000 -0.000001 0.000000 0.000000 -1.164597
  7 17.597593 0.000000 -0.000000 -0.237390 0.711120 0.161048
  8 1.269900 0.684453 -0.261728 -0.050486 -0.001235 0.111799
  9 5.309647 -0.003832 -0.000000 0.023045 -0.039921 0.154929
 10 4.826592 -0.004567 -0.000000 0.041359 -0.062967 0.100089
 11 5.792761 -0.005304 -0.000000 0.053533 -0.069618 -0.068119
 12 6.661936 -0.000705 0.000000 -0.000000 -0.000001 0.475994
 13 2.044495 -0.000000 -0.000000 0.849274 -0.174423 -0.434048
 14 -3.108110 1.532038 4.341911 0.231521 -1.424915 2.435680
 15 -2.865985 1.410543 -4.140396 -1.115209 1.367228 1.557847
 16 4.827231 0.000000 0.000001 0.323696 0.930873 0.098801
 17 11.139763 -0.000000 -0.000000 0.000000 -0.000000 -1.873436
 18 8.575572 -8.394946 9.511936 -1.535143 -1.058019 1.499774
 19 -1.465386 0.506167 4.002137 0.034889 -0.200000 -0.000001
 20 4.972047 0.000000 0.000001 -0.521025 -0.883161 0.553188
 21 -9.249866 0.683183 -1.946118 -0.000014 -1.670796 0.000014
 22 10.313008 -0.000000 0.000000 -1.273000 -0.023672 0.385583
 23 1.646738 0.449549 -1.702246 0.154002 0.442277 0.277235
 24 0.928314 0.000000 0.000000 0.000000 0.000000 0.000000
 25 0.928314 -0.000000 -0.000000 0.000000 0.000000 0.000000
 26 2.975832 -0.386307 -0.044144 -0.000797 -0.043611 0.000035
 27 1.438890 0.000003 0.000001 -0.000000 -0.000000 0.793722
 28 1.485299 -0.000005 -0.000000 0.000000 -0.000000 1.465316
 29 11.585355 0.000000 0.000001 0.000000 0.000000 -1.743828
 30 10.125607 -0.000000 0.000001 2.266644 -0.035354 -0.018072
 31 1.533671 0.109715 1.664491 -0.233255 -0.412980 0.435685
 32 0.928314 -0.000001 0.000000 0.000000 0.000000 0.000000
 33 2.683748 -0.427340 0.044205 0.001045 0.043611 0.000046
 34 1.438886 0.000003 0.000000 0.000000 0.000000 0.000008
 35 2.027418 0.730720 12.541074 -1.531161 -0.031283 2.992741
time 26
  0 -0.038098 0.038098 0.790562 0.010407 0.334523 -5.153058
  1 0.863307 0.000000 0.000000 -0.000018 -1.696469 -1.570790
  2 -0.000005 0.000007 3.713254 -0.510541 -2.933069 -0.632839
  3 18.045725 0.000000 0.000000 -0.000000 -0.000000 -0.895889
  4 17.597599 0.000000 0.000000 -0.149233 0.123192 0.597128
  5 0.000005 -0.000003 -3.713254 -0.536254 3.276489 -0.985456
  6 18.045721 -0.000000 -0.000001 0.000000 0.000000 -1.081938
  7 17.597593 0.000000 -0.000000 -0.094701 0.459235 0.370586
  8 1.285525 0.684453 -0.160162 -0.038023 -0.000768 0.113270
  9 5.309647 -0.003832 -0.000000 0.005538 -0.011889 0.157006
 10 4.826592 -0.004567 -0.000000 0.019020 -0.033281 0.114596
 11 5.792761 -0.005304 -0.000000 0.040936 -0.063770 -0.031805
 12 6.661936 -0.000705 0.000000 -0.000000 -0.000001 0.486054
 13 2.044495 -0.000000 -0.000000 0.846954 -0.317956 -0.428512
 14 -3.092485 1.563289 4.341911 0.214072 -1.423794 2.442870
 15 -2.850360 1.441794 -4.140396 -1.127481 1.376693 1.534645
 16 4.827231 0.000000 0.000001 0.263581 1.080906 0.035093
 17 11.139763 -0.000000 -0.000000 0.000000 -0.000000 -1.824731
 18 8.575572 -8.394946 9.511936 -1.535143 -1.058019 1.499774
 19 -1.465386 0.506167 4.002137 0.034889 -0.200000 -0.000001
 20 4.972047 0.000000 0.000001 -0.504862 -0.760328 0.462634
 21 -9.249866 0.683183 -1.946118 -0.000014 -1.670796 0.000014
 22 10.313008 -0.000000 0.000000 -1.264038 -0.043632 0.378026
 23 1.646738 0.449549 -1.702246 0.154002 0.442277 0.277235
 24 0.928314 0.000000 0.000000 0.000000 0.000000 0.000000
 25 0.928314 -0.000000 -0.000000 0.000000 0.000000 0.000000
 26 2.975832 -0.386307 -0.044144 -0.000797 -0.043611 0.000035
 27 1.438890 0.000003 0.000001 -0.000000 -0.000000 0.793722
 28 1.485299 -0.000005 -0.000000 0.000000 -0.000000 1.465316
 29 11.585355 0.000000 0.000001 0.000000 0.000000 -1.754503
 30 10.125607 -0.000000 0.000001 2.234928 -0.042627 -0.024956
 31 1.533671 0.109715 1.664491 -0.233255 -0.412980 0.435685
 32 0.928314 -0.000001 0.000000 0.000000 0.000000 0.000000
 33 2.683748 -0.427340 0.044205 0.001045 0.043611 0.000046
 34 1.438886 0.000003 0.000000 0.000000 0.000000 0.000008
 35 2.027418 0.730720 12.541074 -1.531161 -0.031283 2.992741
time 27
  0 -0.038098 0.038098 -1.057150 0.085639 0.295397 -4.866357
  1 0.863307 0.000000 0.000000 -0.000018 -1.573423 -1.570790
  2 -0.000005 0.000007 3.713254 -0.612812 -3.018865 -0.604819
  3 18.045725 0.000000 0.000000 -0.000000 -0.000000 -1.039858
  4 17.597599 0.000000 0.000000 -0.334256 0.051539 0.687120
  5 0.000005 -0.000003 -3.713254 -0.729594 3.242217 -0.848325
  6 18.045721 -0.000000 -0.000001 0.000000 0.000000 -1.026662
  7 17.597593 0.000000 -0.000000 -0.038833 0.240985 0.463985
  8 1.293338 0.684453 -0.000001 -0.000737 -0.000013 0.114184
  9 5.309647 -0.003832 -0.000000 -0.005026 0.012752 0.146579
 10 4.826592 -0.004567 -0.000000 0.002697 -0.000012 0.117527
 11 5.792761 -0.005304 -0.000000 0.023434 -0.038207 0.008329
 12 6.661936 -0.000705 0.000000 -0.000000 -0.000001 0.493599
 13 2.044495 -0.000000 -0.000000 0.743745 -0.473152 -0.346802
 14 -3.080766 1.586728 4.341911 0.195664 -1.421941 2.453704
 15 -2.838641 1.461326 -4.140396 -1.240227 1.389371 1.412024
 16 4.827231 0.000000 0.000001 0.179105 1.265489 -0.101337
 17 11.139763 -0.000000 -0.000000 0.000000 -0.000000 -1.763271
 18 8.575572 -8.394946 9.511936 -1.535143 -1.058019 1.499774
 19 -1.465386 0.506167 4.002137 0.034889 -0.200000 -0.000001
 20 4.972047 0.000000 0.000001 -0.382899 -0.598882 0.427926
 21 -9.249866 0.683183 -1.946118 -0.000014 -1.670796 0.000014
 22 10.313008 -0.000000 0.000000 -1.251649 -0.052727 0.365269
 23 1.646738 0.449549 -1.702246 0.154002 0.442277 0.277235
 24 0.928314 0.000000 0.000000 0.000000 0.000000 0.000000
 25 0.928314 -0.000000 -0.000000 0.000000 0.000000 0.000000
 26 2.975832 -0.386307 -0.044144 -0.000797 -0.043611 0.000035
 27 1.438890 0.000003 0.000001 -0.000000 -0.000000 0.793722
 28 1.485299 -0.000005 -0.000000 0.000000 -0.000000 1.465316
 29 11.585355 0.000000 0.000001 0.000000 0.000000 -1.765886
 30 10.125607 -0.000000 0.000001 2.177782 -0.031053 -0.009243
 31 1.533671 0.109715 1.664491 -0.233255 -0.412980 0.435685
 32 0.928314 -0.000001 0.000000 0.000000 0.000000 0.000000
 33 2.683748 -0.427340 0.044205 0.001045 0.043611 0.000046
 34 1.438886 0.000003 0.000000 0.000000 0.000000 -0.012969
 35 2.027418 0.730720 12.541074 -1.531161 -0.031283 2.992741
time 28
  0 -0.038098 0.038098 -2.654855 0.143973 0.234753 -4.589836
  1 0.863307 0.000000 0.000000 -0.000018 -1.492815 -1.570790
  2 -0.000005 0.000007 3.713254 -0.630161 -3.084817 -0.577284
  3 18.045725 0.000000 0.000000 -0.000000 -0.000000 -1.156517
  4 17.597599 0.000000 0.000000 -0.550570 -0.009237 0.753368
  5 0.000005 -0.000003 -3.713254 -0.825929 3.092093 -0.808784
  6 18.045721 -0.000000 -0.000001 0.000000 0.000000 -1.195603
  7 17.597593 0.000000 -0.000000 -0.009651 0.259383 0.666979
  8 1.293338 0.684453 0.097658 0.018508 0.000478 0.113826
  9 5.309647 -0.003832 -0.000000 0.004083 0.044259 0.122349
 10 4.826592 -0.004567 -0.000000 0.010774 0.032275 0.107928
 11 5.792761 -0.005304 -0.000000 0.018089 -0.035990 0.052595
 12 6.661936 -0.000705 0.000000 -0.000000 -0.000001 0.491084
 13 2.044495 -0.000000 -0.000000 0.576833 -0.534663 -0.218133
 14 -3.084672 1.578915 4.341911 0.176681 -1.419382 2.474989
 15 -2.842547 1.453513 -4.140396 -1.429193 1.399330 1.222579
 16 4.827231 0.000000 0.000001 0.036529 1.377907 -0.318102
 17 11.139763 -0.000000 -0.000000 0.000000 -0.000000 -1.690528
 18 8.575572 -8.394946 9.511936 -1.535143 -1.058019 1.499774
 19 -1.465386 0.506167 4.002137 0.034889 -0.200000 -0.000001
 20 4.972047 0.000000 0.000001 -0.205296 -0.505330 0.440952
 21 -9.249866 0.683183 -1.946118 -0.000014 -1.670796 0.000014
 22 10.313008 -0.000000 0.000000 -1.236493 -0.052064 0.348098
 23 1.646738 0.449549 -1.702246 0.154002 0.442277 0.277235
 24 0.928314 0.000000 0.000000 0.000000 0.000000 0.000000
 25 0.928314 -0.000000 -0.000000 0.000000 0.000000 0.000000
 26 2.975832 -0.386307 -0.044144 -0.000797 -0.043611 0.000035
 27 1.438890 0.000003 0.000001 -0.000000 -0.000000 0.793722
 28 1.485299 -0.000005 -0.000000 0.000000 -0.000000 1.465316
 29 11.585355 0.000000 0.000001 0.000000 0.000000 -1.761699
 30 10.125607 -0.000000 0.000001 2.105397 -0.001328 0.022110
 31 1.533671 0.109715 1.664491 -0.233255 -0.412980 0.435685
 32 0.928314 -0.000001 0.000000 0.000000 0.000000 0.000000
 33 2.683748 -0.427340 0.044205 0.001045 0.043611 0.000046
 34 1.438886 0.000003 0.000000 0.000000 0.000000 -0.025923
 35 2.027418 0.730720 12.541074 -1.531161 -0.031283 2.992741
time 29
  0 -0.038098 0.038098 -3.533789 0.180635 0.159881 -4.322921
  1 0.863307 0.000000 0.000000 -0.000018 -1.464459 -1.570790
  2 -0.000005 0.000007 3.713254 -0.591629 -3.120670 -0.540134
  3 18.045725 0.000000 0.000000 -0.000000 -0.000000 -1.216479
  4 17.597599 0.000000 0.000000 -0.734094 -0.053903 0.779400
  5 0.000005 -0.000003 -3.713254 -0.822389 2.957614 -0.706686
  6 18.045721 -0.000000 -0.000001 0.000000 0.000000 -1.263339
  7 17.597593 0.000000 -0.000000 0.043858 0.256785 0.801494
  8 1.289432 0.684453 0.136722 0.027018 0.000646 0.113539
  9 5.309647 -0.003832 -0.000000 0.036469 0.086385 0.099277
 10 4.826592 -0.004567 -0.000000 0.042473 0.056399 0.076789
 11 5.792761 -0.005304 -0.000000 0.016580 -0.089561 0.031230
 12 6.661936 -0.000705 0.000000 -0.000000 -0.000001 0.471000
 13 2.044495 -0.000000 -0.000000 0.419732 -0.477858 -0.033101
 14 -3.112017 1.516413 4.341911 0.157602 -1.416237 2.514106
 15 -2.869892 1.398824 -4.140396 -1.500619 1.408512 1.170136
 16 4.827231 0.000000 0.000001 0.430693 1.394757 -0.008313
 17 11.139763 -0.000000 -0.000000 0.000000 -0.000000 -1.608184
 18 8.575572 -8.394946 9.511936 -1.535143 -1.058019 1.499774
 19 -1.465386 0.506167 4.002137 0.034889 -0.200000 -0.000001
 20 4.972047 0.000000 0.000001 -0.180309 -0.495757 0.541488
 21 -9.249866 0.683183 -1.946118 -0.000014 -1.670796 0.000014
 22 10.313008 -0.000000 0.000000 -1.219030 -0.042772 0.327335
 23 1.646738 0.449549 -1.702246 0.154002 0.442277 0.277235
 24 0.928314 0.000000 0.000000 0.000000 0.000000 0.000000
 25 0.928314 -0.000000 -0.000000 0.000000 0.000000 0.000000
 26 2.975832 -0.386307 -0.044144 -0.000797 -0.043611 0.000035
 27 1.438890 0.000003 0.000001 -0.000000 -0.000000 0.793722
 28 1.485299 -0.000005 -0.000000 0.000000 -0.000000 1.465316
 29 11.585355 0.000000 0.000001 0.000000 0.000000 -1.724365
 30 10.125607 -0.000000 0.000001 2.066824 0.020491 0.038048
 31 1.533671 0.109715 1.664491 -0.233255 -0.412980 0.435685
 32 0.928314 -0.000001 0.000000 0.000000 0.000000 0.000000
 33 2.683748 -0.427340 0.044205 0.001045 0.043611 0.000046
 34 1.438886 0.000003 0.000000 0.000000 0.000000 0.000008
 35 2.027418 0.730720 12.541074 -1.531161 -0.031283 2.992741
time 30
  0 -0.038098 0.038098 -3.799422 0.194001 0.078696 -4.062190
  1 0.863307 0.000000 0.000000 -0.000018 -1.472213 -1.570790
  2 -0.000005 0.000007 3.713254 -0.532586 -3.120957 -0.496477
  3 18.045725 0.000000 0.000000 -0.000000 -0.000000 -1.236442
  4 17.597599 0.000000 0.000000 -0.826669 -0.082267 0.766910
  5 0.000005 -0.000003 -3.713254 -0.716583 2.848467 -0.545133
  6 18.045721 -0.000000 -0.000001 0.000000 0.000000 -1.239577
  7 17.597593 0.000000 -0.000000 0.093894 0.238246 0.891639
  8 1.289432 0.684453 0.125003 -0.006079 -0.013208 0.106366
  9 5.309647 -0.003832 -0.000000 0.013077 0.090687 0.108985
 10 4.826592 -0.004567 -0.000000 0.021500 0.056699 0.073491
 11 5.792761 -0.005304 -0.000000 0.015532 -0.085246 0.044602
 12 6.661936 -0.000705 0.000000 -0.000000 -0.000001 0.436606
 13 2.044495 -0.000000 -0.000000 0.453936 -0.469482 -0.053179
 14 -3.158893 1.410941 4.341911 0.138620 -1.412556 2.567222
 15 -2.912862 1.301165 -4.140396 -1.422290 1.421225 1.283554
 16 4.827231 0.000000 0.000001 0.179280 1.354164 -0.179485
 17 11.139763 -0.000000 -0.000000 0.000000 -0.000000 -1.517641
 18 8.575572 -8.394946 9.511936 -1.535143 -1.058019 1.499774
 19 -1.465386 0.506167 4.002137 0.034889 -0.200000 -0.000001
 20 4.972047 0.000000 0.000001 -0.117981 -0.549653 0.437832
 21 -9.249866 0.683183 -1.946118 -0.000014 -1.670796 0.000014
 22 10.313008 -0.000000 0.000000 -1.200051 -0.026032 0.303766
 23 1.646738 0.449549 -1.702246 0.154002 0.442277 0.277235
 24 0.928314 0.000000 0.000000 0.000000 0.000000 0.000000
 25 0.928314 -0.000000 -0.000000 0.000000 0.000000 0.000000
 26 2.975832 -0.386307 -0.044144 -0.000797 -0.043611 0.000035
 27 1.438890 0.000003 0.000001 -0.000000 -0.000000 0.793722
 28 1.485299 -0.000005 -0.000000 0.000000 -0.000000 1.465316
 29 11.585355 0.000000 0.000001 0.000000 0.000000 -1.661671
 30 10.125607 -0.000000 0.000001 2.063491 0.027701 0.036103
 31 1.533671 0.109715 1.664491 -0.233255 -0.412980 0.435685
 32 0.928314 -0.000001 0.000000 0.000000 0.000000 0.000000
 33 2.683748 -0.427340 0.044205 0.001045 0.043611 0.000046
 34 1.438886 0.000003 0.000000 0.000000 0.000000 0.061709
 35 2.027418 0.730720 12.541074 -1.531161 -0.031283 2.992741
time 31
  0 -0.038098 0.038098 -3.889268 0.184740 -0.001067 -3.803456
  1 0.863307 0.000000 0.000000 -0.000018 -1.481190 -1.570790
  2 -0.000005 0.000007 3.713254 -0.464821 -3.083763 -0.474722
  3 18.045725 0.000000 0.000000 -0.000000 -0.000000 -1.245793
  4 17.597599 0.000000 0.000000 -0.825830 -0.110769 0.710179
  5 0.000005 -0.000003 -3.713254 -0.547065 2.775267 -0.356201
  6 18.045721 -0.000000 -0.000001 0.000000 0.000000 -1.184809
  7 17.597593 0.000000 -0.000000 0.124211 0.214207 0.947213
  8 1.289432 0.684453 0.113284 -0.040563 -0.027769 0.099732
  9 5.309647 -0.003832 -0.000000 -0.012118 0.093995 0.119712
 10 4.826592 -0.004567 -0.000000 -0.001198 0.056124 0.071183
 11 5.792761 -0.005304 -0.000000 0.014588 -0.078990 0.059136
 12 6.661936 -0.000705 0.000000 -0.000000 -0.000001 0.396864
 13 2.044495 -0.000000 -0.000000 0.491919 -0.457054 -0.078792
 14 -3.213583 1.285937 4.341911 0.120212 -1.408436 2.625323
 15 -2.963645 1.183974 -4.140396 -1.304750 1.432914 1.441649
 16 4.827231 0.000000 0.000001 -0.009740 1.297998 -0.279072
 17 11.139763 -0.000000 -0.000000 0.000000 -0.000000 -1.420440
 18 8.575572 -8.394946 9.511936 -1.535143 -1.058019 1.499774
 19 -1.465386 0.506167 4.002137 0.034889 -0.200000 -0.000001
 20 4.972047 0.000000 0.000001 -0.056395 -0.603307 0.323568
 21 -9.249866 0.683183 -1.946118 -0.000014 -1.670796 0.000014
 22 10.313008 -0.000000 0.000000 -1.180216 -0.003024 0.278252
 23 1.646738 0.449549 -1.702246 0.154002 0.442277 0.277235
 24 0.928314 0.000000 0.000000 0.000000 0.000000 0.000000
 25 0.928314 -0.000000 -0.000000 0.000000 0.000000 0.000000
 26 2.975832 -0.386307 -0.044144 -0.000797 -0.043611 0.000035
 27 1.438890 0.000003 0.000001 -0.000000 -0.000000 0.793722
 28 1.485299 -0.000005 -0.000000 0.000000 -0.000000 1.465316
 29 11.585355 0.000000 0.000001 0.000000 0.000000 -1.593904
 30 10.125607 -0.000000 0.000001 2.065110 0.033457 0.032137
 31 1.533671 0.109715 1.664491 -0.233255 -0.412980 0.435685
 32 0.928314 -0.000001 0.000000 0.000000 0.000000 0.000000
 33 2.683748 -0.427340 0.044205 0.001045 0.043611 0.000046
 34 1.438886 0.000003 0.000000 0.000000 0.000000 0.129359
 35 2.027418 0.730720 12.541074 -1.531161 -0.031283 2.992741
time 32
  0 -0.038098 0.038098 -3.818954 0.155144 -0.072738 -3.542439
  1 0.863307 0.000000 0.000000 -0.000018 -1.491149 -1.570790
  2 -0.000005 0.000007 3.713254 -0.396193 -3.043022 -0.487008
  3 18.045725 0.000000 0.000000 -0.000000 -0.000000 -1.244605
  4 17.597599 0.000000 0.000000 -0.770900 -0.112229 0.624899
  5 0.000005 -0.000003 -3.713254 -0.338036 2.751705 -0.154138
  6 18.045721 -0.000000 -0.000001 0.000000 0.000000 -1.105772
  7 17.597593 0.000000 -0.000000 0.128863 0.189442 0.964222
  8 1.293338 0.684453 0.101565 -0.076199 -0.042942 0.093814
  9 5.309647 -0.003832 -0.000000 -0.038817 0.096560 0.131238
 10 4.826592 -0.004567 -0.000000 -0.025335 0.054853 0.069608
 11 5.792761 -0.005304 -0.000000 0.013750 -0.071129 0.074583
 12 6.661936 -0.000705 0.000000 -0.000000 -0.000001 0.352729
 13 2.044495 -0.000000 -0.000000 0.532818 -0.439087 -0.107141
 14 -3.268272 1.141402 4.341911 0.102284 -1.404000 2.687067
 15 -3.014428 1.055063 -4.140396 -1.145313 1.441920 1.645858
 16 4.827231 0.000000 0.000001 -0.147233 1.232300 -0.318715
 17 11.139763 -0.000000 -0.000000 0.000000 -0.000000 -1.318194
 18 8.575572 -8.394946 9.511936 -1.535143 -1.058019 1.499774
 19 -1.465386 0.506167 4.002137 0.034889 -0.200000 -0.000001
 20 4.972047 0.000000 0.000001 0.003053 -0.655030 0.200413
 21 -9.249866 0.683183 -1.946118 -0.000014 -1.670796 0.000014
 22 10.313008 -0.000000 0.000000 -1.159986 0.024975 0.251504
 23 1.646738 0.449549 -1.702246 0.154002 0.442277 0.277235
 24 0.928314 0.000000 0.000000 0.000000 0.000000 0.000000
 25 0.928314 -0.000000 -0.000000 0.000000 0.000000 0.000000
 26 2.975832 -0.386307 -0.044144 -0.000797 -0.043611 0.000035
 27 1.438890 0.000003 0.000001 -0.000000 -0.000000 0.793722
 28 1.485299 -0.000005 -0.000000 0.000000 -0.000000 1.465316
 29 11.585355 0.000000 0.000001 0.000000 0.000000 -1.521950
 30 10.125607 -0.000000 0.000001 2.070920 0.038010 0.026600
 31 1.533671 0.109715 1.664491 -0.233255 -0.412980 0.435685
 32 0.928314 -0.000001 0.000000 0.000000 0.000000 0.000000
 33 2.683748 -0.427340 0.044205 0.001045 0.043611 0.000046
 34 1.438886 0.000003 0.000000 0.000000 0.000000 0.201929
 35 2.027418 0.730720 12.541074 -1.531161 -0.031283 2.992741
time 33
  0 -0.038098 0.038098 -3.619729 0.108648 -0.130448 -3.276475
  1 0.863307 0.000000 0.000000 -0.000018 -1.501887 -1.570790
  2 -0.000005 0.000007 3.713254 -0.334562 -3.014935 -0.517893
  3 18.045725 0.000000 0.000000 -0.000000 -0.000000 -1.228205
  4 17.597599 0.000000 0.000000 -0.681401 -0.083011 0.530195
  5 0.000005 -0.000003 -3.713254 -0.126042 2.784487 0.038719
  6 18.045721 -0.000000 -0.000001 0.000000 0.000000 -1.011956
  7 17.597593 0.000000 -0.000000 0.109393 0.162968 0.941704
  8 1.293338 0.684453 0.085939 -0.112725 -0.058618 0.088740
  9 5.309647 -0.003832 -0.000000 -0.066722 0.098669 0.143443
 10 4.826592 -0.004567 -0.000000 -0.050599 0.053032 0.068729
 11 5.792761 -0.005304 -0.000000 0.013100 -0.062008 0.090778
 12 6.661936 -0.000705 0.000000 -0.000000 -0.000001 0.305158
 13 2.044495 -0.000000 -0.000000 0.575441 -0.414681 -0.135356
 14 -3.319055 0.985147 4.341911 0.085218 -1.399295 2.751591
 15 -3.061304 0.906621 -4.140396 -0.949924 1.446440 1.889472
 16 4.827231 0.000000 0.000001 -0.250375 1.162092 -0.316527
 17 11.139763 -0.000000 -0.000000 0.000000 -0.000000 -1.212303
 18 8.575572 -8.394946 9.511936 -1.535143 -1.058019 1.499774
 19 -1.465386 0.506167 4.002137 0.034889 -0.200000 -0.000001
 20 4.972047 0.000000 0.000001 0.058322 -0.704019 0.070939
 21 -9.249866 0.683183 -1.946118 -0.000014 -1.670796 0.000014
 22 10.313008 -0.000000 0.000000 -1.139953 0.056685 0.224119
 23 1.646738 0.449549 -1.702246 0.154002 0.442277 0.277235
 24 0.928314 0.000000 0.000000 0.000000 0.000000 0.000000
 25 0.928314 -0.000000 -0.000000 0.000000 0.000000 0.000000
 26 2.975832 -0.386307 -0.044144 -0.000797 -0.043611 0.000035
 27 1.438890 0.000003 0.000001 -0.000000 -0.000000 0.793722
 28 1.485299 -0.000005 -0.000000 0.000000 -0.000000 1.465316
 29 11.585355 0.000000 0.000001 0.000000 0.000000 -1.446693
 30 10.125607 -0.000000 0.000001 2.079872 0.041679 0.019716
 31 1.533671 0.109715 1.664491 -0.233255 -0.412980 0.435685
 32 0.928314 -0.000001 0.000000 0.000000 0.000000 0.000000
 33 2.683748 -0.427340 0.044205 0.001045 0.043611 0.000046
 34 1.438886 0.000003 0.000000 0.000000 0.000000 0.278340
 35 2.027418 0.730720 12.541074 -1.531161 -0.031283 2.992741
time 34
  0 -0.038098 0.038098 -3.322845 0.050601 -0.169929 -3.004519
  1 0.863307 0.000000 0.000000 -0.000018 -1.513201 -1.570790
  2 -0.000005 0.000007 3.713254 -0.282612 -3.003719 -0.548875
  3 18.045725 0.000000 0.000000 -0.000000 -0.000000 -1.198595
  4 17.597599 0.000000 0.000000 -0.578251 -0.031378 0.447248
  5 0.000005 -0.000003 -3.713254 0.042425 2.877709 0.023310
  6 18.045721 -0.000000 -0.000001 0.000000 0.000000 -1.130113
  7 17.597593 0.000000 -0.000000 0.056338 0.114211 0.857696
  8 1.293338 0.684453 0.074220 -0.149959 -0.074689 0.084615
  9 5.309647 -0.003832 -0.000000 -0.095471 0.100575 0.156107
 10 4.826592 -0.004567 -0.000000 -0.076677 0.050839 0.068326
 11 5.792761 -0.005304 -0.000000 0.012639 -0.051965 0.107492
 12 6.661936 -0.000705 0.000000 -0.000000 -0.000001 0.255037
 13 2.044495 -0.000000 -0.000000 0.618528 -0.383498 -0.160436
 14 -3.362025 0.817173 4.341911 0.069016 -1.394419 2.817746
 15 -3.100368 0.754273 -4.140396 -0.736798 1.445098 2.152931
 16 4.827231 0.000000 0.000001 -0.331521 1.091884 -0.286161
 17 11.139763 -0.000000 -0.000000 0.000000 -0.000000 -1.104450
 18 8.575572 -8.394946 9.511936 -1.535143 -1.058019 1.499774
 19 -1.465386 0.506167 4.002137 0.034889 -0.200000 -0.000001
 20 4.972047 0.000000 0.000001 0.107274 -0.750272 -0.061497
 21 -9.249866 0.683183 -1.946118 -0.000014 -1.670796 0.000014
 22 10.313008 -0.000000 0.000000 -1.120447 0.090779 0.196660
 23 1.646738 0.449549 -1.702246 0.154002 0.442277 0.277235
 24 0.928314 0.000000 0.000000 0.000000 0.000000 0.000000
 25 0.928314 -0.000000 -0.000000 0.000000 0.000000 0.000000
 26 2.975832 -0.386307 -0.044144 -0.000797 -0.043611 0.000035
 27 1.438890 0.000003 0.000001 -0.000000 -0.000000 0.793722
 28 1.485299 -0.000005 -0.000000 0.000000 -0.000000 1.465316
 29 11.585355 0.000000 0.000001 0.000000 0.000000 -1.369018
 30 10.125607 -0.000000 0.000001 2.091206 0.044714 0.011934
 31 1.533671 0.109715 1.664491 -0.233255 -0.412980 0.435685
 32 0.928314 -0.000001 0.000000 0.000000 0.000000 0.000000
 33 2.683748 -0.427340 0.044205 0.001045 0.043611 0.000046
 34 1.438886 0.000003 0.000000 0.000000 0.000000 0.357516
 35 2.027418 0.730720 12.541074 -1.531161 -0.031283 2.992741
time 35
  0 -0.038098 0.038098 -2.955646 -0.012698 -0.188780 -2.727522
  1 0.863307 0.000000 0.000000 -0.000018 -1.524862 -1.570790
  2 -0.000005 0.000007 3.713254 -0.238618 -2.999597 -0.568397
  3 18.045725 0.000000 0.000000 -0.000000 -0.000000 -1.164458
  4 17.597599 0.000000 0.000000 -0.476907 0.024717 0.391981
  5 0.000005 -0.000003 -3.713254 0.192523 2.935543 -0.113386
  6 18.045721 -0.000000 -0.000001 0.000000 0.000000 -1.304343
  7 17.597593 0.000000 -0.000000 0.029584 0.074816 0.720075
  8 1.293338 0.684453 0.058595 -0.187690 -0.091036 0.081495
  9 5.309647 -0.003832 -0.000000 -0.124748 0.102504 0.169051
 10 4.826592 -0.004567 -0.000000 -0.103271 0.048418 0.068289
 11 5.792761 -0.005304 -0.000000 0.012367 -0.041347 0.124538
 12 6.661936 -0.000705 0.000000 -0.000000 -0.000001 0.203358
 13 2.044495 -0.000000 -0.000000 0.660686 -0.346055 -0.179846
 14 -3.401088 0.641386 4.341911 0.053580 -1.389471 2.884667
 15 -3.135525 0.594112 -4.140396 -0.531246 1.437541 2.410063
 16 4.827231 0.000000 0.000001 -0.398033 1.025335 -0.236454
 17 11.139763 -0.000000 -0.000000 0.000000 -0.000000 -0.996037
 18 8.575572 -8.394946 9.511936 -1.535143 -1.058019 1.499774
 19 -1.465386 0.506167 4.002137 0.034889 -0.200000 -0.000001
 20 4.972047 0.000000 0.000001 0.147960 -0.794354 -0.193310
 21 -9.249866 0.683183 -1.946118 -0.000014 -1.670796 0.000014
 22 10.313008 -0.000000 0.000000 -1.101732 0.125882 0.169650
 23 1.646738 0.449549 -1.702246 0.154002 0.442277 0.277235
 24 0.928314 0.000000 0.000000 0.000000 0.000000 0.000000
 25 0.928314 -0.000000 -0.000000 0.000000 0.000000 0.000000
 26 2.975832 -0.386307 -0.044144 -0.000797 -0.043611 0.000035
 27 1.438890 0.000003 0.000001 -0.000000 -0.000000 0.793722
 28 1.485299 -0.000005 -0.000000 0.000000 -0.000000 1.465316
 29 11.585355 0.000000 0.000001 0.000000 0.000000 -1.289868
 30 10.125607 -0.000000 0.000001 2.104064 0.047434 0.003628
 31 1.533671 0.109715 1.664491 -0.233255 -0.412980 0.435685
 32 0.928314 -0.000001 0.000000 0.000000 0.000000 0.000000
 33 2.683748 -0.427340 0.044205 0.001045 0.043611 0.000046
 34 1.438886 0.000003 0.000000 0.000000 0.000000 0.438471
 35 2.027418 0.730720 12.541074 -1.531161 -0.031283 2.992741
time 36
  0 -0.038098 0.038098 -2.545477 -0.074278 -0.187358 -2.447481
  1 0.863307 0.000000 0.000000 -0.000018 -1.536667 -1.570790
  2 -0.000005 0.000007 3.713254 -0.197594 -2.983396 -0.577381
  3 18.045725 0.000000 0.000000 -0.000000 -0.000000 -1.137074
  4 17.597599 0.000000 0.000000 -0.387941 0.062774 0.369334
  5 0.000005 -0.000003 -3.713254 0.318706 2.921853 -0.231620
  6 18.045721 -0.000000 -0.000001 0.000000 0.000000 -1.380265
  7 17.597593 0.000000 -0.000000 0.033442 0.096000 0.565149
  8 1.293338 0.684453 0.042969 -0.225630 -0.107527 0.079451
  9 5.309647 -0.003832 -0.000000 -0.154225 0.104685 0.182075
 10 4.826592 -0.004567 -0.000000 -0.130057 0.045913 0.068399
 11 5.792761 -0.005304 -0.000000 0.012304 -0.030501 0.141709
 12 6.661936 -0.000705 0.000000 -0.000000 -0.000001 0.151041
 13 2.044495 -0.000000 -0.000000 0.700989 -0.303547 -0.191519
 14 -3.428433 0.461693 4.341911 0.039007 -1.384522 2.951301
 15 -3.162869 0.426138 -4.140396 -0.352538 1.424721 2.640638
 16 4.827231 0.000000 0.000001 -0.454204 0.965254 -0.173796
 17 11.139763 -0.000000 -0.000000 0.000000 -0.000000 -0.888675
 18 8.575572 -8.394946 9.511936 -1.535143 -1.058019 1.499774
 19 -1.465386 0.506167 4.002137 0.034889 -0.200000 -0.000001
 20 4.972047 0.000000 0.000001 0.178892 -0.837310 -0.320522
 21 -9.249866 0.683183 -1.946118 -0.000014 -1.670796 0.000014
 22 10.313008 -0.000000 0.000000 -1.084006 0.160517 0.143500
 23 1.646738 0.449549 -1.702246 0.154002 0.442277 0.277235
 24 0.928314 0.000000 0.000000 0.000000 0.000000 0.000000
 25 0.928314 -0.000000 -0.000000 0.000000 0.000000 0.000000
 26 2.975832 -0.386307 -0.044144 -0.000797 -0.043611 0.000035
 27 1.438890 0.000003 0.000001 -0.000000 -0.000000 0.793722
 28 1.485299 -0.000005 -0.000000 0.000000 -0.000000 1.465316
 29 11.585355 0.000000 0.000001 0.000000 0.000000 -1.210129
 30 10.125607 -0.000000 0.000001 2.117398 0.050090 -0.004828
 31 1.533671 0.109715 1.664491 -0.233255 -0.412980 0.435685
 32 0.928314 -0.000001 0.000000 0.000000 0.000000 0.000000
 33 2.683748 -0.427340 0.044205 0.001045 0.043611 0.000046
 34 1.438886 0.000003 0.000000 0.000000 0.000000 0.520130
 35 2.027418 0.730720 12.541074 -1.531161 -0.031283 2.992741
time 37
  0 -0.038098 0.038098 -2.111870 -0.096619 -0.141119 -2.160495
  1 0.863307 0.000000 0.000000 -0.000018 -1.548399 -1.570790
  2 -0.000005 0.000007 3.713254 -0.137401 -2.884947 -0.579129
  3 18.045725 0.000000 0.000000 -0.000000 -0.000000 -1.125423
  4 17.597599 0.000000 0.000000 -0.286037 -0.025650 0.393033
  5 0.000005 -0.000003 -3.713254 0.417432 2.842972 -0.241844
  6 18.045721 -0.000000 -0.000001 0.000000 0.000000 -1.278552
  7 17.597593 0.000000 -0.000000 0.060763 0.189559 0.519781
  8 1.293338 0.684453 0.027344 -0.263623 -0.124054 0.078447
  9 5.309647 -0.003832 -0.000000 -0.183568 0.107310 0.194979
 10 4.826592 -0.004567 -0.000000 -0.156746 0.043444 0.068546
 11 5.792761 -0.005304 -0.000000 0.012409 -0.019763 0.158797
 12 6.661936 -0.000705 0.000000 -0.000000 -0.000001 0.099043
 13 2.044495 -0.000000 -0.000000 0.738839 -0.257796 -0.194054
 14 -3.447965 0.285907 4.341911 0.025202 -1.379720 3.016881
 15 -3.178495 0.262071 -4.140396 -0.206907 1.408265 2.837465
 16 4.827231 0.000000 0.000001 -0.502139 0.914109 -0.102562
 17 11.139763 -0.000000 -0.000000 0.000000 -0.000000 -0.783835
 18 8.575572 -8.394946 9.511936 -1.535143 -1.058019 1.499774
 19 -1.465386 0.506167 4.002137 0.034889 -0.200000 -0.000001
 20 4.972047 0.000000 0.000001 0.199606 -0.880345 -0.439933
 21 -9.249866 0.683183 -1.946118 -0.000014 -1.670796 0.000014
 22 10.313008 -0.000000 0.000000 -1.067400 0.193284 0.118509
 23 1.646738 0.449549 -1.702246 0.154002 0.442277 0.277235
 24 0.928314 0.000000 0.000000 0.000000 0.000000 0.000000
 25 0.928314 -0.000000 -0.000000 0.000000 0.000000 0.000000
 26 2.975832 -0.386307 -0.044144 -0.000797 -0.043611 0.000035
 27 1.438890 0.000003 0.000001 -0.000000 -0.000000 0.793722
 28 1.485299 -0.000005 -0.000000 0.000000 -0.000000 1.465316
 29 11.585355 0.000000 0.000001 0.000000 0.000000 -1.130744
 30 10.125607 -0.000000 0.000001 2.130446 0.052936 -0.013208
 31 1.533671 0.109715 1.664491 -0.233255 -0.412980 0.435685
 32 0.928314 -0.000001 0.000000 0.000000 0.000000 0.000000
 33 2.683748 -0.427340 0.044205 0.001045 0.043611 0.000046
 34 1.438886 0.000003 0.000000 0.000000 0.000000 0.601460
 35 2.027418 0.730720 12.541074 -1.531161 -0.031283 2.992741
time 38
  0 -0.038098 0.038098 -1.689982 -0.058716 -0.063401 -1.866661
  1 0.863307 0.000000 0.000000 -0.000018 -1.559857 -1.570790
  2 -0.000005 0.000007 3.713254 -0.123503 -2.822541 -0.630605
  3 18.045725 0.000000 0.000000 -0.000000 -0.000000 -1.014997
  4 17.597599 0.000000 0.000000 -0.187056 -0.114459 0.290780
  5 0.000005 -0.000003 -3.713254 0.514915 2.751333 -0.175652
  6 18.045721 -0.000000 -0.000001 0.000000 0.000000 -1.072375
  7 17.597593 0.000000 -0.000000 0.153234 0.278881 0.575095
  8 1.293338 0.684453 0.011718 -0.301406 -0.140472 0.078465
  9 5.309647 -0.003832 -0.000000 -0.212449 0.110558 0.207504
 10 4.826592 -0.004567 -0.000000 -0.183017 0.041155 0.068509
 11 5.792761 -0.005304 -0.000000 0.012660 -0.009480 0.175615
 12 6.661936 -0.000705 0.000000 -0.000000 -0.000001 0.048320
 13 2.044495 -0.000000 -0.000000 0.774170 -0.211100 -0.186850
 14 -3.459684 0.110120 4.341911 0.012259 -1.375113 3.080350
 15 -3.190214 0.101909 -4.140396 -0.091380 1.389795 3.002463
 16 4.827231 0.000000 0.000001 -0.542887 0.873601 -0.026690
 17 11.139763 -0.000000 -0.000000 0.000000 -0.000000 -0.683060
 18 8.575572 -8.394946 9.511936 -1.535143 -1.058019 1.499774
 19 -1.465386 0.506167 4.002137 0.034889 -0.200000 -0.000001
 20 4.972047 0.000000 0.000001 0.210567 -0.924347 -0.549127
 21 -9.249866 0.683183 -1.946118 -0.000014 -1.670796 0.000014
 22 10.313008 -0.000000 0.000000 -1.051848 0.222708 0.095090
 23 1.646738 0.449549 -1.702246 0.154002 0.442277 0.277235
 24 0.928314 0.000000 0.000000 0.000000 0.000000 0.000000
 25 0.928314 -0.000000 -0.000000 0.000000 0.000000 0.000000
 26 2.975832 -0.386307 -0.044144 -0.000797 -0.043611 0.000035
 27 1.438890 0.000003 0.000001 -0.000000 -0.000000 0.793722
 28 1.485299 -0.000005 -0.000000 0.000000 -0.000000 1.465316
 29 11.585355 0.000000 0.000001 0.000000 0.000000 -1.052479
 30 10.125607 -0.000000 0.000001 2.142256 0.056162 -0.021065
 31 1.533671 0.109715 1.664491 -0.233255 -0.412980 0.435685
 32 0.928314 -0.000001 0.000000 0.000000 0.000000 0.000000
 33 2.683748 -0.427340 0.044205 0.001045 0.043611 0.000046
 34 1.438886 0.000003 0.000000 0.000000 0.000000 0.681362
 35 2.027418 0.730720 12.541074 -1.531161 -0.031283 2.992741
time 39
  0 -0.038098 0.038098 -1.357941 0.000000 0.000000 -1.570829
  1 0.863307 0.000000 0.000000 -1.570795 -1.570451 0.000000
  2 -0.000005 0.000007 3.713254 -0.132321 -2.814393 -0.671397
  3 18.045725 0.000000 0.000000 -0.000000 -0.000000 -0.787913
  4 17.597599 0.000000 0.000000 -0.107902 -0.168158 0.068247
  5 0.000005 -0.000003 -3.713254 0.627418 2.664071 -0.062022
  6 18.045721 -0.000000 -0.000001 0.000000 0.000000 -0.869602
  7 17.597593 0.000000 -0.000000 0.283193 0.341543 0.523663
  8 1.293338 0.684453 -0.000001 -0.338744 -0.156664 0.079433
  9 5.309647 -0.003832 -0.000000 -0.240520 0.114573 0.219449
 10 4.826592 -0.004567 -0.000000 -0.208568 0.039154 0.068106
 11 5.792761 -0.005304 -0.000000 0.012995 0.000000 0.191976
 12 6.661936 -0.000705 0.000000 -0.000000 -0.000001 -0.000207
 13 2.044495 -0.000000 -0.000000 0.807049 -0.166003 -0.170041
 14 -3.459684 -0.057854 4.341911 -0.000013 -1.370798 3.141040
 15 -3.190214 -0.054345 -4.140396 -0.000013 1.370795 3.141000
 16 4.827231 0.000000 0.000001 -0.576975 0.844922 0.050320
 17 11.139763 -0.000000 -0.000000 0.000000 -0.000000 -0.587962
 18 8.575572 -8.394946 9.511936 -1.535143 -1.058019 1.499774
 19 -1.465386 0.506167 4.002137 0.034889 -0.200000 -0.000001
 20 4.972047 0.000000 0.000001 0.213168 -0.969715 -0.646544
 21 -9.249866 0.683183 -1.946118 -0.000014 -1.670796 0.000014
 22 10.313008 -0.000000 0.000000 -1.037284 0.247339 0.073579
 23 1.646738 0.449549 -1.702246 0.154002 0.442277 0.277235
 24 0.928314 0.000000 0.000000 0.000000 0.000000 0.000000
 25 0.928314 -0.000000 -0.000000 0.000000 0.000000 0.000000
 26 2.975832 -0.386307 -0.044144 -0.000797 -0.043611 0.000035
 27 1.438890 0.000003 0.000001 -0.000000 -0.000000 0.793722
 28 1.485299 -0.000005 -0.000000 0.000000 -0.000000 1.465316
 29 11.585355 0.000000 0.000001 0.000000 0.000000 -0.976337
 30 10.125607 -0.000000 0.000001 2.152066 0.060083 -0.028099
 31 1.533671 0.109715 1.664491 -0.233255 -0.412980 0.435685
 32 0.928314 -0.000001 0.000000 0.000000 0.000000 0.000000
 33 2.683748 -0.427340 0.044205 0.001045 0.043611 0.000046
 34 1.438886 0.000003 0.000000 0.000000 0.000000 0.758827
 35 2.027418 0.730720 12.541074 -1.531161 -0.031283 2.992741
time 40
  0 -0.038098 0.038098 -1.357941 0.000000 0.000000 -1.570829
  1 0.863307 0.000000 0.000000 -1.570795 -1.570451 0.000000
  2 -0.000005 0.000007 3.713254 -0.132321 -2.814393 -0.671397
  3 18.045725 0.000000 0.000000 -0.000000 -0.000000 -0.787913
  4 17.597599 0.000000 0.000000 -0.107902 -0.168158 0.068247
  5 0.000005 -0.000003 -3.713254 0.627418 2.664071 -0.062022
  6 18.045721 -0.000000 -0.000001 0.000000 0.000000 -0.869602
  7 17.597593 0.000000 -0.000000 0.283193 0.341543 0.523663
  8 1.293338 0.684453 -0.000001 -0.338744 -0.156664 0.079433
  9 5.309647 -0.003832 -0.000000 -0.240520 0.114573 0.219449
 10 4.826592 -0.004567 -0.000000 -0.208568 0.039154 0.068106
 11 5.792761 -0.005304 -0.000000 0.012995 0.000000 0.191976
 12 6.661936 -0.000705 0.000000 -0.000000 -0.000001 -0.000207
 13 2.044495 -0.000000 -0.000000 0.807049 -0.166003 -0.170041
 14 -3.459684 -0.057854 4.341911 -0.000013 -1.370798 3.141040
 15 -3.190214 -0.054345 -4.140396 -0.000013 1.370795 3.141000
 16 4.827231 0.000000 0.000001 -0.576975 0.844922 0.050320
 17 11.139763 -0.000000 -0.000000 0.000000 -0.000000 -0.587962
 18 8.575572 -8.394946 9.511936 -1.535143 -1.058019 1.499774
 19 -1.465386 0.506167 4.002137 0.034889 -0.200000 -0.000001
 20 4.972047 0.000000 0.000001 0.213168 -0.969715 -0.646544
 21 -9.249866 0.683183 -1.946118 -0.000014 -1.670796 0.000014
 22 10.313008 -0.000000 0.000000 -1.037284 0.247339 0.073579
 23 1.646738 0.449549 -1.702246 0.154002 0.442277 0.277235
 24 0.928314 0.000000 0.000000 0.000000 0.000000 0.000000
 25 0.928314 -0.000000 -0.000000 0.000000 0.000000 0.000000
 26 2.975832 -0.386307 -0.044144 -0.000797 -0.043611 0.000035
 27 1.438890 0.000003 0.000001 -0.000000 -0.000000 0.793722
 28 1.485299 -0.000005 -0.000000 0.000000 -0.000000 1.465316
 29 11.585355 0.000000 0.000001 0.000000 0.000000 -0.976337
 30 10.125607 -0.000000 0.000001 2.152066 0.060083 -0.028099
 31 1.533671 0.109715 1.664491 -0.233255 -0.412980 0.435685
 32 0.928314 -0.000001 0.000000 0.000000 0.000000 0.000000
 33 2.683748 -0.427340 0.044205 0.001045 0.043611 0.000046
 34 1.438886 0.000003 0.000000 0.000000 0.000000 0.758827
 35 2.027418 0.730720 12.541074 -1.531161 -0.031283 2.992741
time 41
  0 -0.038098 0.038098 -1.357941 0.000000 0.000000 -1.570829
  1 0.863307 0.000000 0.000000 -1.570795 -1.570451 0.000000
  2 -0.000005 0.000007 3.713254 -0.132321 -2.814393 -0.671397
  3 18.045725 0.000000 0.000000 -0.000000 -0.000000 -0.787913
  4 17.597599 0.000000 0.000000 -0.107902 -0.168158 0.068247
  5 0.000005 -0.000003 -3.713254 0.627418 2.664071 -0.062022
  6 18.045721 -0.000000 -0.000001 0.000000 0.000000 -0.869602
  7 17.597593 0.000000 -0.000000 0.283193 0.341543 0.523663
  8 1.293338 0.684453 -0.000001 -0.338744 -0.156664 0.079433
  9 5.309647 -0.003832 -0.000000 -0.240520 0.114573 0.219449
 10 4.826592 -0.004567 -0.000000 -0.208568 0.039154 0.068106
 11 5.792761 -0.005304 -0.000000 0.012995 0.000000 0.191976
 12 6.661936 -0.000705 0.000000 -0.000000 -0.000001 -0.000207
 13 2.044495 -0.000000 -0.000000 0.807049 -0.166003 -0.170041
 14 -3.459684 -0.057854 4.341911 -0.000013 -1.370798 3.141040
 15 -3.190214 -0.054345 -4.140396 -0.000013 1.370795 3.141000
 16 4.827231 0.000000 0.000001 -0.576975 0.844922 0.050320
 17 11.139763 -0.000000 -0.000000 0.000000 -0.000000 -0.587962
 18 8.575572 -8.394946 9.511936 -1.535143 -1.058019 1.499774
 19 -1.465386 0.506167 4.002137 0.034889 -0.200000 -0.000001
 20 4.972047 0.000000 0.000001 0.213168 -0.969715 -0.646544
 21 -9.249866 0.683183 -1.946118 -0.000014 -1.670796 0.000014
 22 10.313008 -0.000000 0.000000 -1.037284 0.247339 0.073579
 23 1.646738 0.449549 -1.702246 0.154002 0.442277 0.277235
 24 0.928314 0.000000 0.000000 0.000000 0.000000 0.000000
 25 0.928314 -0.000000 -0.000000 0.000000 0.000000 0.000000
 26 2.975832 -0.386307 -0.044144 -0.000797 -0.043611 0.000035
 27 1.438890 0.000003 0.000001 -0.000000 -0.000000 0.793722
 28 1.485299 -0.000005 -0.000000 0.000000 -0.000000 1.465316
 29 11.585355 0.000000 0.000001 0.000000 0.000000 -0.976337
 30 10.125607 -0.000000 0.000001 2.152066 0.060083 -0.028099
 31 1.533671 0.109715 1.664491 -0.233255 -0.412980 0.435685
 32 0.928314 -0.000001 0.000000 0.000000 0.000000 0.000000
 33 2.683748 -0.427340 0.044205 0.001045 0.043611 0.000046
 34 1.438886 0.000003 0.000000 0.000000 0.000000 0.758827
 35 2.027418 0.730720 12.541074 -1.531161 -0.031283 2.992741
end
