version 1
nodes
  0 "Bip01"  -1
  1 "Bip01 Pelvis"   0
  2 "Bip01 L Leg"   1
  3 "Bip01 L Leg1"   2
  4 "Bip01 L Foot"   3
  5 "Bip01 R Leg"   1
  6 "Bip01 R Leg1"   5
  7 "Bip01 R Foot"   6
  8 "Bip01 Spine"   1
  9 "Bip01 Spine1"   8
 10 "Bip01 Spine2"   9
 11 "Bip01 Spine3"  10
 12 "Bip01 Neck"  11
 13 "Bip01 Head"  12
 14 "Bip01 L Arm"  12
 15 "Bip01 R Arm"  12
 16 "Bip01 L Arm1"  14
 17 "Bip01 L Arm2"  16
 18 "bone_shield"  17
 19 "bone_root_plate"  14
 20 "Bip01 R Arm1"  15
 21 "bone_plate_root"  20
 22 "Bip01 L Hand"  17
 23 "Bip01 L Finger0"  22
 24 "Bip01 L Finger01"  23
 25 "Bip01 L Finger02"  24
 26 "Bip01 L Finger1"  22
 27 "Bip01 L Finger11"  26
 28 "Bip01 L Finger12"  27
 29 "Bip01 R Arm2"  20
 30 "Bip01 R Hand"  29
 31 "Bip01 R Finger0"  30
 32 "Bip01 R Finger01"  31
 33 "Bip01 R Finger1"  30
 34 "Bip01 R Finger11"  33
 35 "sword"  30
end
skeleton
time 0
  0 -0.038098 0.038098 -1.518102 0.000000 0.000000 -1.570829
  1 0.863307 0.000000 0.000000 -1.570795 -1.570451 0.000000
  2 -0.000005 0.000007 3.713254 -0.132321 -2.814393 -0.671397
  3 18.045725 0.000000 0.000000 -0.000000 -0.000000 -0.787913
  4 17.597599 0.000000 0.000000 -0.107902 -0.168158 0.068247
  5 0.000005 -0.000003 -3.713254 0.627418 2.664071 -0.062022
  6 18.045721 -0.000000 -0.000001 0.000000 0.000000 -0.869602
  7 17.597593 0.000000 -0.000000 0.283193 0.341543 0.523663
  8 1.293338 0.684453 -0.000001 -0.338744 -0.156664 0.079433
  9 5.309647 -0.003832 -0.000000 -0.240520 0.114573 0.219449
 10 4.826592 -0.004567 -0.000000 -0.208568 0.039154 0.068106
 11 5.792761 -0.005304 -0.000000 0.012995 0.000000 0.191976
 12 6.661936 -0.000705 0.000000 -0.000000 -0.000001 0.959670
 13 2.044495 -0.000000 -0.000000 0.819975 -0.019903 -1.268293
 14 -2.037766 2.797702 4.341911 -0.000013 -1.370798 2.181129
 15 -1.877674 2.582454 -4.140396 -0.000013 1.370795 2.181118
 16 4.827231 0.000000 0.000001 -0.576975 0.844922 0.050320
 17 11.139763 -0.000000 -0.000000 0.000000 -0.000000 -0.587962
 18 8.575572 -8.394946 9.511936 -1.535143 -1.058019 1.499774
 19 -1.465386 0.506167 4.002137 0.034889 -0.200000 -0.000001
 20 4.972047 0.000000 0.000001 0.213168 -0.969715 -0.646544
 21 -9.249866 0.683183 -1.946118 -0.000014 -1.670796 0.000014
 22 10.313008 -0.000000 0.000000 -1.037284 0.247339 0.073579
 23 1.646738 0.449549 -1.702246 0.154002 0.442277 0.277235
 24 0.928314 0.000000 0.000000 0.000000 0.000000 0.000000
 25 0.928314 -0.000000 -0.000000 0.000000 0.000000 0.000000
 26 2.975832 -0.386307 -0.044144 -0.000797 -0.043611 0.000035
 27 1.438890 0.000003 0.000001 -0.000000 -0.000000 0.793722
 28 1.485299 -0.000005 -0.000000 0.000000 -0.000000 1.465316
 29 11.585355 0.000000 0.000001 0.000000 0.000000 -0.976337
 30 10.125607 -0.000000 0.000001 2.152066 0.060083 -0.028099
 31 1.533671 0.109715 1.664491 -0.233255 -0.412980 0.435685
 32 0.928314 -0.000001 0.000000 0.000000 0.000000 0.000000
 33 2.683748 -0.427340 0.044205 0.001045 0.043611 0.000046
 34 1.438886 0.000003 0.000000 0.000000 0.000000 0.758827
 35 2.027418 0.730720 12.541074 -1.531161 -0.031283 2.992741
time 1
  0 -0.038098 0.038098 -1.518102 0.000000 0.000000 -1.570829
  1 0.863307 0.000000 0.000000 -1.570795 -1.570451 0.000000
  2 -0.000005 0.000007 3.713254 -0.133376 -2.826567 -0.683683
  3 18.045725 0.000000 0.000000 -0.000000 -0.000000 -0.718526
  4 17.597599 0.000000 0.000000 -0.113342 -0.154664 -0.010216
  5 0.000005 -0.000003 -3.713254 0.604075 2.650195 -0.138922
  6 18.045721 -0.000000 -0.000001 0.000000 0.000000 -0.922777
  7 17.597593 0.000000 -0.000000 0.281831 0.310926 0.512866
  8 1.293338 0.684453 -0.000001 -0.300359 -0.222795 -0.123298
  9 5.309647 -0.003832 -0.000000 -0.236619 0.122542 0.252429
 10 4.826592 -0.004567 -0.000000 -0.200227 0.070613 0.219849
 11 5.792761 -0.005304 -0.000000 0.012891 -0.001666 0.320352
 12 6.661936 -0.000705 0.000000 -0.000000 -0.000001 1.114744
 13 2.044495 -0.000000 -0.000000 0.760383 -0.254171 -1.392159
 14 -1.580720 3.078961 4.341911 -0.000013 -1.370798 2.026097
 15 -1.459693 2.840274 -4.140396 -0.000013 1.370795 2.026091
 16 4.827231 0.000000 0.000001 -0.875709 0.621022 -0.327378
 17 11.139763 -0.000000 -0.000000 0.000000 -0.000000 -0.527763
 18 8.575572 -8.394946 9.511936 -1.535143 -1.058019 1.499774
 19 -1.465386 0.506167 4.002137 0.034889 -0.200000 -0.000001
 20 4.972047 0.000000 0.000001 0.666464 -0.682058 -1.208972
 21 -9.249866 0.683183 -1.946118 -0.000014 -1.670796 0.000014
 22 10.313008 -0.000000 0.000000 -1.310166 0.247339 0.073579
 23 1.646738 0.449549 -1.702246 0.154002 0.442277 0.277235
 24 0.928314 0.000000 0.000000 0.000000 0.000000 0.000000
 25 0.928314 -0.000000 -0.000000 0.000000 0.000000 0.000000
 26 2.975832 -0.386307 -0.044144 -0.000797 -0.043611 0.000035
 27 1.438890 0.000003 0.000001 -0.000000 -0.000000 0.793722
 28 1.485299 -0.000005 -0.000000 0.000000 -0.000000 1.465316
 29 11.585355 0.000000 0.000001 0.000000 0.000000 -0.714826
 30 10.125607 -0.000000 0.000001 2.152066 0.060083 -0.028099
 31 1.533671 0.109715 1.664491 -0.233255 -0.412980 0.435685
 32 0.928314 -0.000001 0.000000 0.000000 0.000000 0.000000
 33 2.683748 -0.427340 0.044205 0.001045 0.043611 0.000046
 34 1.438886 0.000003 0.000000 0.000000 0.000000 0.758827
 35 2.027418 0.730720 12.541074 -1.531161 -0.031283 2.992741
time 2
  0 -0.038098 0.038098 -1.518102 0.000000 0.000000 -1.570829
  1 0.863307 0.000000 0.000000 -1.570795 -1.570451 0.000000
  2 -0.000005 0.000007 3.713254 -0.136826 -2.840179 -0.684508
  3 18.045725 0.000000 0.000000 -0.000000 -0.000000 -0.629399
  4 17.597599 0.000000 0.000000 -0.119722 -0.142052 -0.097325
  5 0.000005 -0.000003 -3.713254 0.581403 2.641347 -0.212479
  6 18.045721 -0.000000 -0.000001 0.000000 0.000000 -0.964070
  7 17.597593 0.000000 -0.000000 0.282898 0.279607 0.495858
  8 1.293338 0.684453 -0.000001 -0.248332 -0.279829 -0.331768
  9 5.309647 -0.003832 -0.000000 -0.232453 0.130368 0.285468
 10 4.826592 -0.004567 -0.000000 -0.187187 0.100467 0.372250
 11 5.792761 -0.005304 -0.000000 0.012576 -0.003308 0.448728
 12 6.661936 -0.000705 0.000000 -0.000000 -0.000001 1.269853
 13 2.044495 -0.000000 -0.000000 0.630725 -0.455253 -1.474203
 14 -1.088518 3.285998 4.341911 -0.000013 -1.370798 1.870970
 15 -1.002647 3.031686 -4.140396 -0.000013 1.370795 1.870968
 16 4.827231 0.000000 0.000001 -1.054126 0.317468 -0.564621
 17 11.139763 -0.000000 -0.000000 0.000000 -0.000000 -0.467565
 18 8.575572 -8.394946 9.511936 -1.535143 -1.058019 1.499774
 19 -1.465386 0.506167 4.002137 0.034889 -0.200000 -0.000001
 20 4.972047 0.000000 0.000001 0.813972 -0.297711 -1.518069
 21 -9.249866 0.683183 -1.946118 -0.000014 -1.670796 0.000014
 22 10.313008 -0.000000 0.000000 -1.583048 0.247339 0.073579
 23 1.646738 0.449549 -1.702246 0.154002 0.442277 0.277235
 24 0.928314 0.000000 0.000000 0.000000 0.000000 0.000000
 25 0.928314 -0.000000 -0.000000 0.000000 0.000000 0.000000
 26 2.975832 -0.386307 -0.044144 -0.000797 -0.043611 0.000035
 27 1.438890 0.000003 0.000001 -0.000000 -0.000000 0.793722
 28 1.485299 -0.000005 -0.000000 0.000000 -0.000000 1.465316
 29 11.585355 0.000000 0.000001 0.000000 0.000000 -0.453373
 30 10.125607 -0.000000 0.000001 2.152066 0.060083 -0.028099
 31 1.533671 0.109715 1.664491 -0.233255 -0.412980 0.435685
 32 0.928314 -0.000001 0.000000 0.000000 0.000000 0.000000
 33 2.683748 -0.427340 0.044205 0.001045 0.043611 0.000046
 34 1.438886 0.000003 0.000000 0.000000 0.000000 0.758827
 35 2.027418 0.730720 12.541074 -1.531161 -0.031283 2.992741
time 3
  0 -0.038098 0.038098 -1.518102 0.000000 0.000000 -1.570829
  1 0.863307 0.000000 0.000000 -1.570795 -1.570451 0.000000
  2 -0.000005 0.000007 3.713254 -0.139318 -2.846986 -0.680041
  3 18.045725 0.000000 0.000000 -0.000000 -0.000000 -0.580271
  4 17.597599 0.000000 0.000000 -0.122899 -0.136655 -0.140834
  5 0.000005 -0.000003 -3.713254 0.571358 2.638833 -0.244848
  6 18.045721 -0.000000 -0.000001 0.000000 0.000000 -0.979211
  7 17.597593 0.000000 -0.000000 0.284282 0.265188 0.486244
  8 1.293338 0.684453 -0.000001 -0.220524 -0.302001 -0.428579
  9 5.309647 -0.003832 -0.000000 -0.231015 0.132921 0.296394
 10 4.826592 -0.004567 -0.000000 -0.179289 0.114045 0.445924
 11 5.792761 -0.005304 -0.000000 0.012367 -0.004027 0.506096
 12 6.661936 -0.000705 0.000000 -0.000000 -0.000001 1.352384
 13 2.044495 -0.000000 -0.000000 0.545943 -0.529192 -1.501885
 14 -0.811165 3.364126 4.341911 -0.000013 -1.370798 1.788420
 15 -0.748733 3.102001 -4.140396 -0.000013 1.370795 1.788422
 16 4.827231 0.000000 0.000001 -1.116081 0.176371 -0.640319
 17 11.139763 -0.000000 -0.000000 0.000000 -0.000000 -0.435889
 18 8.575572 -8.394946 9.511936 -1.535143 -1.058019 1.499774
 19 -1.465386 0.506167 4.002137 0.034889 -0.200000 -0.000001
 20 4.972047 0.000000 0.000001 0.824840 -0.127016 -1.624846
 21 -9.249866 0.683183 -1.946118 -0.000014 -1.670796 0.000014
 22 10.313008 -0.000000 0.000000 -1.726638 0.247339 0.073579
 23 1.646738 0.449549 -1.702246 0.154002 0.442277 0.277235
 24 0.928314 0.000000 0.000000 0.000000 0.000000 0.000000
 25 0.928314 -0.000000 -0.000000 0.000000 0.000000 0.000000
 26 2.975832 -0.386307 -0.044144 -0.000797 -0.043611 0.000035
 27 1.438890 0.000003 0.000001 -0.000000 -0.000000 0.793722
 28 1.485299 -0.000005 -0.000000 0.000000 -0.000000 1.465316
 29 11.585355 0.000000 0.000001 0.000000 0.000000 -0.315716
 30 10.125607 -0.000000 0.000001 2.152066 0.060083 -0.028099
 31 1.533671 0.109715 1.664491 -0.233255 -0.412980 0.435685
 32 0.928314 -0.000001 0.000000 0.000000 0.000000 0.000000
 33 2.683748 -0.427340 0.044205 0.001045 0.043611 0.000046
 34 1.438886 0.000003 0.000000 0.000000 0.000000 0.758827
 35 2.027418 0.730720 12.541074 -1.531161 -0.031283 2.992741
time 4
  0 -0.038098 0.038098 -1.518102 0.000000 0.000000 -1.570829
  1 0.863307 0.000000 0.000000 -1.570795 -1.570451 0.000000
  2 -0.000005 0.000007 3.713254 -0.139222 -2.846794 -0.680235
  3 18.045725 0.000000 0.000000 -0.000000 -0.000000 -0.582201
  4 17.597599 0.000000 0.000000 -0.122823 -0.136875 -0.139187
  5 0.000005 -0.000003 -3.713254 0.571645 2.639019 -0.243685
  6 18.045721 -0.000000 -0.000001 0.000000 0.000000 -0.978704
  7 17.597593 0.000000 -0.000000 0.284327 0.265726 0.486614
  8 1.293338 0.684453 -0.000001 -0.221572 -0.301246 -0.425047
  9 5.309647 -0.003832 -0.000000 -0.232403 0.130452 0.285807
 10 4.826592 -0.004567 -0.000000 -0.179122 0.114321 0.447426
 11 5.792761 -0.005304 -0.000000 0.012388 -0.003931 0.498165
 12 6.661936 -0.000705 0.000000 -0.000000 -0.000001 1.369386
 13 2.044495 -0.000000 -0.000000 0.551644 -0.523360 -1.517026
 14 -0.756476 3.379751 4.341911 -0.000013 -1.370798 1.771450
 15 -0.694044 3.113720 -4.140396 -0.000013 1.370795 1.771452
 16 4.827231 0.000000 0.000001 -1.116782 0.233814 -0.631917
 17 11.139763 -0.000000 -0.000000 0.000000 -0.000000 -0.430703
 18 8.575572 -8.394946 9.511936 -1.535143 -1.058019 1.499774
 19 -1.465386 0.506167 4.002137 0.034889 -0.200000 -0.000001
 20 4.972047 0.000000 0.000001 0.820753 -0.181313 -1.589904
 21 -9.249866 0.683183 -1.946118 -0.000014 -1.670796 0.000014
 22 10.313008 -0.000000 0.000000 -1.750164 0.247339 0.073579
 23 1.646738 0.449549 -1.702246 0.154002 0.442277 0.277235
 24 0.928314 0.000000 0.000000 0.000000 0.000000 0.000000
 25 0.928314 -0.000000 -0.000000 0.000000 0.000000 0.000000
 26 2.975832 -0.386307 -0.044144 -0.000797 -0.043611 0.000035
 27 1.438890 0.000003 0.000001 -0.000000 -0.000000 0.793722
 28 1.485299 -0.000005 -0.000000 0.000000 -0.000000 1.465316
 29 11.585355 0.000000 0.000001 0.000000 0.000000 -0.293186
 30 10.125607 -0.000000 0.000001 2.152066 0.060083 -0.028099
 31 1.533671 0.109715 1.664491 -0.233255 -0.412980 0.435685
 32 0.928314 -0.000001 0.000000 0.000000 0.000000 0.000000
 33 2.683748 -0.427340 0.044205 0.001045 0.043611 0.000046
 34 1.438886 0.000003 0.000000 0.000000 0.000000 0.758827
 35 2.027418 0.730720 12.541074 -1.531161 -0.031283 2.992741
time 5
  0 -0.038098 0.038098 -1.518102 0.000000 0.000000 -1.570829
  1 0.863307 0.000000 0.000000 -1.570795 -1.570451 0.000000
  2 -0.000005 0.000007 3.713254 -0.138839 -2.846027 -0.680866
  3 18.045725 0.000000 0.000000 -0.000000 -0.000000 -0.587618
  4 17.597599 0.000000 0.000000 -0.122543 -0.137453 -0.134475
  5 0.000005 -0.000003 -3.713254 0.572601 2.639205 -0.240390
  6 18.045721 -0.000000 -0.000001 0.000000 0.000000 -0.977255
  7 17.597593 0.000000 -0.000000 0.284259 0.267224 0.487723
  8 1.293338 0.684453 -0.000001 -0.224583 -0.299040 -0.414880
  9 5.309647 -0.003832 -0.000000 -0.234420 0.126725 0.270027
 10 4.826592 -0.004567 -0.000000 -0.180188 0.112607 0.437937
 11 5.792761 -0.005304 -0.000000 0.012450 -0.003691 0.479250
 12 6.661936 -0.000705 0.000000 -0.000000 -0.000001 1.377037
 13 2.044495 -0.000000 -0.000000 0.569409 -0.505439 -1.522896
 14 -0.729132 3.383657 4.341911 -0.000013 -1.370798 1.763780
 15 -0.670606 3.121533 -4.140396 -0.000013 1.370795 1.763782
 16 4.827231 0.000000 0.000001 -1.100045 0.345721 -0.606539
 17 11.139763 -0.000000 -0.000000 0.000000 -0.000000 -0.430422
 18 8.575572 -8.394946 9.511936 -1.535143 -1.058019 1.499774
 19 -1.465386 0.506167 4.002137 0.034889 -0.200000 -0.000001
 20 4.972047 0.000000 0.000001 0.805147 -0.293207 -1.511362
 21 -9.249866 0.683183 -1.946118 -0.000014 -1.670796 0.000014
 22 10.313008 -0.000000 0.000000 -1.751482 0.247339 0.073579
 23 1.646738 0.449549 -1.702246 0.154002 0.442277 0.277235
 24 0.928314 0.000000 0.000000 0.000000 0.000000 0.000000
 25 0.928314 -0.000000 -0.000000 0.000000 0.000000 0.000000
 26 2.975832 -0.386307 -0.044144 -0.000797 -0.043611 0.000035
 27 1.438890 0.000003 0.000001 -0.000000 -0.000000 0.793722
 28 1.485299 -0.000005 -0.000000 0.000000 -0.000000 1.465316
 29 11.585355 0.000000 0.000001 0.000000 0.000000 -0.291948
 30 10.125607 -0.000000 0.000001 2.152066 0.060083 -0.028099
 31 1.533671 0.109715 1.664491 -0.233255 -0.412980 0.435685
 32 0.928314 -0.000001 0.000000 0.000000 0.000000 0.000000
 33 2.683748 -0.427340 0.044205 0.001045 0.043611 0.000046
 34 1.438886 0.000003 0.000000 0.000000 0.000000 0.758827
 35 2.027418 0.730720 12.541074 -1.531161 -0.031283 2.992741
time 6
  0 -0.038098 0.038098 -1.518102 0.000000 0.000000 -1.570829
  1 0.863307 0.000000 0.000000 -1.570795 -1.570451 0.000000
  2 -0.000005 0.000007 3.713254 -0.138360 -2.844877 -0.681789
  3 18.045725 0.000000 0.000000 -0.000000 -0.000000 -0.596078
  4 17.597599 0.000000 0.000000 -0.122060 -0.138362 -0.127155
  5 0.000005 -0.000003 -3.713254 0.574132 2.639671 -0.235060
  6 18.045721 -0.000000 -0.000001 0.000000 0.000000 -0.974792
  7 17.597593 0.000000 -0.000000 0.284101 0.269612 0.489387
  8 1.293338 0.684453 -0.000001 -0.229322 -0.295481 -0.398742
  9 5.309647 -0.003832 -0.000000 -0.236850 0.122063 0.250451
 10 4.826592 -0.004567 -0.000000 -0.182274 0.109168 0.419107
 11 5.792761 -0.005304 -0.000000 0.012555 -0.003344 0.451324
 12 6.661936 -0.000705 0.000000 -0.000000 -0.000001 1.376541
 13 2.044495 -0.000000 -0.000000 0.595526 -0.476777 -1.519427
 14 -0.729132 3.383657 4.341911 -0.000013 -1.370798 1.764260
 15 -0.674512 3.121533 -4.140396 -0.000013 1.370795 1.764262
 16 4.827231 0.000000 0.000001 -1.062714 0.496009 -0.557795
 17 11.139763 -0.000000 -0.000000 0.000000 -0.000000 -0.434207
 18 8.575572 -8.394946 9.511936 -1.535143 -1.058019 1.499774
 19 -1.465386 0.506167 4.002137 0.034889 -0.200000 -0.000001
 20 4.972047 0.000000 0.000001 0.763069 -0.445562 -1.391872
 21 -9.249866 0.683183 -1.946118 -0.000014 -1.670796 0.000014
 22 10.313008 -0.000000 0.000000 -1.734546 0.247339 0.073579
 23 1.646738 0.449549 -1.702246 0.154002 0.442277 0.277235
 24 0.928314 0.000000 0.000000 0.000000 0.000000 0.000000
 25 0.928314 -0.000000 -0.000000 0.000000 0.000000 0.000000
 26 2.975832 -0.386307 -0.044144 -0.000797 -0.043611 0.000035
 27 1.438890 0.000003 0.000001 -0.000000 -0.000000 0.793722
 28 1.485299 -0.000005 -0.000000 0.000000 -0.000000 1.465316
 29 11.585355 0.000000 0.000001 0.000000 0.000000 -0.308167
 30 10.125607 -0.000000 0.000001 2.152066 0.060083 -0.028099
 31 1.533671 0.109715 1.664491 -0.233255 -0.412980 0.435685
 32 0.928314 -0.000001 0.000000 0.000000 0.000000 0.000000
 33 2.683748 -0.427340 0.044205 0.001045 0.043611 0.000046
 34 1.438886 0.000003 0.000000 0.000000 0.000000 0.758827
 35 2.027418 0.730720 12.541074 -1.531161 -0.031283 2.992741
time 7
  0 -0.038098 0.038098 -1.518102 0.000000 0.000000 -1.570829
  1 0.863307 0.000000 0.000000 -1.570795 -1.570451 0.000000
  2 -0.000005 0.000007 3.713254 -0.137689 -2.843439 -0.682857
  3 18.045725 0.000000 0.000000 -0.000000 -0.000000 -0.606987
  4 17.597599 0.000000 0.000000 -0.121399 -0.139574 -0.117456
  5 0.000005 -0.000003 -3.713254 0.576237 2.640230 -0.227985
  6 18.045721 -0.000000 -0.000001 0.000000 0.000000 -0.971532
  7 17.597593 0.000000 -0.000000 0.283896 0.272795 0.491569
  8 1.293338 0.684453 -0.000001 -0.235501 -0.290627 -0.377332
  9 5.309647 -0.003832 -0.000000 -0.239479 0.116754 0.228438
 10 4.826592 -0.004567 -0.000000 -0.185102 0.104278 0.392583
 11 5.792761 -0.005304 -0.000000 0.012660 -0.002900 0.416359
 12 6.661936 -0.000705 0.000000 -0.000000 -0.000001 1.369103
 13 2.044495 -0.000000 -0.000000 0.626084 -0.438772 -1.506554
 14 -0.756476 3.379751 4.341911 -0.000013 -1.370798 1.771738
 15 -0.697951 3.113720 -4.140396 -0.000013 1.370795 1.771740
 16 4.827231 0.000000 0.000001 -0.996202 0.667146 -0.474047
 17 11.139763 -0.000000 -0.000000 0.000000 -0.000000 -0.441075
 18 8.575572 -8.394946 9.511936 -1.535143 -1.058019 1.499774
 19 -1.465386 0.506167 4.002137 0.034889 -0.200000 -0.000001
 20 4.972047 0.000000 0.000001 0.673710 -0.617062 -1.224493
 21 -9.249866 0.683183 -1.946118 -0.000014 -1.670796 0.000014
 22 10.313008 -0.000000 0.000000 -1.703245 0.247339 0.073579
 23 1.646738 0.449549 -1.702246 0.154002 0.442277 0.277235
 24 0.928314 0.000000 0.000000 0.000000 0.000000 0.000000
 25 0.928314 -0.000000 -0.000000 0.000000 0.000000 0.000000
 26 2.975832 -0.386307 -0.044144 -0.000797 -0.043611 0.000035
 27 1.438890 0.000003 0.000001 -0.000000 -0.000000 0.793722
 28 1.485299 -0.000005 -0.000000 0.000000 -0.000000 1.465316
 29 11.585355 0.000000 0.000001 0.000000 0.000000 -0.338187
 30 10.125607 -0.000000 0.000001 2.152066 0.060083 -0.028099
 31 1.533671 0.109715 1.664491 -0.233255 -0.412980 0.435685
 32 0.928314 -0.000001 0.000000 0.000000 0.000000 0.000000
 33 2.683748 -0.427340 0.044205 0.001045 0.043611 0.000046
 34 1.438886 0.000003 0.000000 0.000000 0.000000 0.758827
 35 2.027418 0.730720 12.541074 -1.531161 -0.031283 2.992741
time 8
  0 -0.038098 0.038098 -1.518102 0.000000 0.000000 -1.570829
  1 0.863307 0.000000 0.000000 -1.570795 -1.570451 0.000000
  2 -0.000005 0.000007 3.713254 -0.137018 -2.841617 -0.683926
  3 18.045725 0.000000 0.000000 -0.000000 -0.000000 -0.619974
  4 17.597599 0.000000 0.000000 -0.120611 -0.141061 -0.105881
  5 0.000005 -0.000003 -3.713254 0.578820 2.640975 -0.219263
  6 18.045721 -0.000000 -0.000001 0.000000 0.000000 -0.967330
  7 17.597593 0.000000 -0.000000 0.283669 0.276681 0.494120
  8 1.293338 0.684453 -0.000001 -0.242885 -0.284539 -0.351331
  9 5.309647 -0.003832 -0.000000 -0.242107 0.111133 0.205386
 10 4.826592 -0.004567 -0.000000 -0.188386 0.098166 0.360088
 11 5.792761 -0.005304 -0.000000 0.012765 -0.002385 0.376308
 12 6.661936 -0.000705 0.000000 -0.000000 -0.000001 1.355961
 13 2.044495 -0.000000 -0.000000 0.657571 -0.393134 -1.484475
 14 -0.799446 3.368032 4.341911 -0.000013 -1.370798 1.784873
 15 -0.737014 3.105907 -4.140396 -0.000013 1.370795 1.784874
 16 4.827231 0.000000 0.000001 -0.883509 0.838880 -0.336917
 17 11.139763 -0.000000 -0.000000 0.000000 -0.000000 -0.450325
 18 8.575572 -8.394946 9.511936 -1.535143 -1.058019 1.499774
 19 -1.465386 0.506167 4.002137 0.034889 -0.200000 -0.000001
 20 4.972047 0.000000 0.000001 0.511526 -0.780116 -0.991832
 21 -9.249866 0.683183 -1.946118 -0.000014 -1.670796 0.000014
 22 10.313008 -0.000000 0.000000 -1.661466 0.247339 0.073579
 23 1.646738 0.449549 -1.702246 0.154002 0.442277 0.277235
 24 0.928314 0.000000 0.000000 0.000000 0.000000 0.000000
 25 0.928314 -0.000000 -0.000000 0.000000 0.000000 0.000000
 26 2.975832 -0.386307 -0.044144 -0.000797 -0.043611 0.000035
 27 1.438890 0.000003 0.000001 -0.000000 -0.000000 0.793722
 28 1.485299 -0.000005 -0.000000 0.000000 -0.000000 1.465316
 29 11.585355 0.000000 0.000001 0.000000 0.000000 -0.378175
 30 10.125607 -0.000000 0.000001 2.152066 0.060083 -0.028099
 31 1.533671 0.109715 1.664491 -0.233255 -0.412980 0.435685
 32 0.928314 -0.000001 0.000000 0.000000 0.000000 0.000000
 33 2.683748 -0.427340 0.044205 0.001045 0.043611 0.000046
 34 1.438886 0.000003 0.000000 0.000000 0.000000 0.758827
 35 2.027418 0.730720 12.541074 -1.531161 -0.031283 2.992741
time 9
  0 -0.038098 0.038098 -1.518102 0.000000 0.000000 -1.570829
  1 0.863307 0.000000 0.000000 -1.570795 -1.570451 0.000000
  2 -0.000005 0.000007 3.713254 -0.136251 -2.839604 -0.684800
  3 18.045725 0.000000 0.000000 -0.000000 -0.000000 -0.634371
  4 17.597599 0.000000 0.000000 -0.119696 -0.142796 -0.092750
  5 0.000005 -0.000003 -3.713254 0.581881 2.641906 -0.209136
  6 18.045721 -0.000000 -0.000001 0.000000 0.000000 -0.962331
  7 17.597593 0.000000 -0.000000 0.283442 0.281152 0.497004
  8 1.293338 0.684453 -0.000001 -0.251186 -0.277288 -0.321404
  9 5.309647 -0.003832 -0.000000 -0.244554 0.105524 0.182674
 10 4.826592 -0.004567 -0.000000 -0.191873 0.091107 0.323233
 11 5.792761 -0.005304 -0.000000 0.012870 -0.001834 0.333142
 12 6.661936 -0.000705 0.000000 -0.000000 -0.000001 1.338286
 13 2.044495 -0.000000 -0.000000 0.687400 -0.342115 -1.454193
 14 -0.858042 3.352407 4.341911 -0.000013 -1.370798 1.802514
 15 -0.791703 3.094188 -4.140396 -0.000013 1.370795 1.802515
 16 4.827231 0.000000 0.000001 -0.699221 0.987210 -0.121465
 17 11.139763 -0.000000 -0.000000 0.000000 -0.000000 -0.460977
 18 8.575572 -8.394946 9.511936 -1.535143 -1.058019 1.499774
 19 -1.465386 0.506167 4.002137 0.034889 -0.200000 -0.000001
 20 4.972047 0.000000 0.000001 0.257847 -0.901341 -0.679536
 21 -9.249866 0.683183 -1.946118 -0.000014 -1.670796 0.000014
 22 10.313008 -0.000000 0.000000 -1.613163 0.247339 0.073579
 23 1.646738 0.449549 -1.702246 0.154002 0.442277 0.277235
 24 0.928314 0.000000 0.000000 0.000000 0.000000 0.000000
 25 0.928314 -0.000000 -0.000000 0.000000 0.000000 0.000000
 26 2.975832 -0.386307 -0.044144 -0.000797 -0.043611 0.000035
 27 1.438890 0.000003 0.000001 -0.000000 -0.000000 0.793722
 28 1.485299 -0.000005 -0.000000 0.000000 -0.000000 1.465316
 29 11.585355 0.000000 0.000001 0.000000 0.000000 -0.424473
 30 10.125607 -0.000000 0.000001 2.152066 0.060083 -0.028099
 31 1.533671 0.109715 1.664491 -0.233255 -0.412980 0.435685
 32 0.928314 -0.000001 0.000000 0.000000 0.000000 0.000000
 33 2.683748 -0.427340 0.044205 0.001045 0.043611 0.000046
 34 1.438886 0.000003 0.000000 0.000000 0.000000 0.758827
 35 2.027418 0.730720 12.541074 -1.531161 -0.031283 2.992741
time 10
  0 -0.038098 0.038098 -1.518102 0.000000 0.000000 -1.570829
  1 0.863307 0.000000 0.000000 -1.570795 -1.570451 0.000000
  2 -0.000005 0.000007 3.713254 -0.135484 -2.837399 -0.685480
  3 18.045725 0.000000 0.000000 -0.000000 -0.000000 -0.649807
  4 17.597599 0.000000 0.000000 -0.118705 -0.144751 -0.078384
  5 0.000005 -0.000003 -3.713254 0.585325 2.643024 -0.197797
  6 18.045721 -0.000000 -0.000001 0.000000 0.000000 -0.956463
  7 17.597593 0.000000 -0.000000 0.283215 0.286091 0.500036
  8 1.293338 0.684453 -0.000001 -0.260114 -0.268935 -0.288231
  9 5.309647 -0.003832 -0.000000 -0.246720 0.100275 0.161640
 10 4.826592 -0.004567 -0.000000 -0.195313 0.083377 0.283703
 11 5.792761 -0.005304 -0.000000 0.012933 -0.001258 0.288793
 12 6.661936 -0.000705 0.000000 -0.000000 -0.000001 1.317317
 13 2.044495 -0.000000 -0.000000 0.713849 -0.288484 -1.417573
 14 -0.928357 3.332875 4.341911 -0.000013 -1.370798 1.823511
 15 -0.858112 3.074656 -4.140396 -0.000013 1.370795 1.823511
 16 4.827231 0.000000 0.000001 -0.430632 1.085161 0.182637
 17 11.139763 -0.000000 -0.000000 0.000000 -0.000000 -0.472190
 18 8.575572 -8.394946 9.511936 -1.535143 -1.058019 1.499774
 19 -1.465386 0.506167 4.002137 0.034889 -0.200000 -0.000001
 20 4.972047 0.000000 0.000001 -0.057417 -0.952662 -0.319898
 21 -9.249866 0.683183 -1.946118 -0.000014 -1.670796 0.000014
 22 10.313008 -0.000000 0.000000 -1.562290 0.247339 0.073579
 23 1.646738 0.449549 -1.702246 0.154002 0.442277 0.277235
 24 0.928314 0.000000 0.000000 0.000000 0.000000 0.000000
 25 0.928314 -0.000000 -0.000000 0.000000 0.000000 0.000000
 26 2.975832 -0.386307 -0.044144 -0.000797 -0.043611 0.000035
 27 1.438890 0.000003 0.000001 -0.000000 -0.000000 0.793722
 28 1.485299 -0.000005 -0.000000 0.000000 -0.000000 1.465316
 29 11.585355 0.000000 0.000001 0.000000 0.000000 -0.473249
 30 10.125607 -0.000000 0.000001 2.152066 0.060083 -0.028099
 31 1.533671 0.109715 1.664491 -0.233255 -0.412980 0.435685
 32 0.928314 -0.000001 0.000000 0.000000 0.000000 0.000000
 33 2.683748 -0.427340 0.044205 0.001045 0.043611 0.000046
 34 1.438886 0.000003 0.000000 0.000000 0.000000 0.758827
 35 2.027418 0.730720 12.541074 -1.531161 -0.031283 2.992741
time 11
  0 -0.038098 0.038098 -1.518102 0.000000 0.000000 -1.570829
  1 0.863307 0.000000 0.000000 -1.570795 -1.570451 0.000000
  2 -0.000005 0.000007 3.713254 -0.134717 -2.835003 -0.685771
  3 18.045725 0.000000 0.000000 -0.000000 -0.000000 -0.665762
  4 17.597599 0.000000 0.000000 -0.117637 -0.146871 -0.063195
  5 0.000005 -0.000003 -3.713254 0.589056 2.644421 -0.185392
  6 18.045721 -0.000000 -0.000001 0.000000 0.000000 -0.949871
  7 17.597593 0.000000 -0.000000 0.283057 0.291451 0.503179
  8 1.293338 0.684453 -0.000001 -0.269462 -0.259587 -0.252494
  9 5.309647 -0.003832 -0.000000 -0.248472 0.095757 0.143642
 10 4.826592 -0.004567 -0.000000 -0.198537 0.075311 0.243148
 11 5.792761 -0.005304 -0.000000 0.012974 -0.000695 0.245274
 12 6.661936 -0.000705 0.000000 -0.000000 -0.000001 1.294258
 13 2.044495 -0.000000 -0.000000 0.735989 -0.235372 -1.376951
 14 -1.006484 3.313343 4.341911 -0.000013 -1.370798 1.846617
 15 -0.928426 3.055125 -4.140396 -0.000013 1.370795 1.846521
 16 4.827231 0.000000 0.000001 -0.134614 1.116563 0.513954
 17 11.139763 -0.000000 -0.000000 0.000000 -0.000000 -0.483123
 18 8.575572 -8.394946 9.511936 -1.535143 -1.058019 1.499774
 19 -1.465386 0.506167 4.002137 0.034889 -0.200000 -0.000001
 20 4.972047 0.000000 0.000001 -0.343979 -0.939550 -0.004950
 21 -9.249866 0.683183 -1.946118 -0.000014 -1.670796 0.000014
 22 10.313008 -0.000000 0.000000 -1.512669 0.247339 0.073579
 23 1.646738 0.449549 -1.702246 0.154002 0.442277 0.277235
 24 0.928314 0.000000 0.000000 0.000000 0.000000 0.000000
 25 0.928314 -0.000000 -0.000000 0.000000 0.000000 0.000000
 26 2.975832 -0.386307 -0.044144 -0.000797 -0.043611 0.000035
 27 1.438890 0.000003 0.000001 -0.000000 -0.000000 0.793722
 28 1.485299 -0.000005 -0.000000 0.000000 -0.000000 1.465316
 29 11.585355 0.000000 0.000001 0.000000 0.000000 -0.520844
 30 10.125607 -0.000000 0.000001 2.152066 0.060083 -0.028099
 31 1.533671 0.109715 1.664491 -0.233255 -0.412980 0.435685
 32 0.928314 -0.000001 0.000000 0.000000 0.000000 0.000000
 33 2.683748 -0.427340 0.044205 0.001045 0.043611 0.000046
 34 1.438886 0.000003 0.000000 0.000000 0.000000 0.758827
 35 2.027418 0.730720 12.541074 -1.531161 -0.031283 2.992741
time 12
  0 -0.038098 0.038098 -1.518102 0.000000 0.000000 -1.570829
  1 0.863307 0.000000 0.000000 -1.570795 -1.570451 0.000000
  2 -0.000005 0.000007 3.713254 -0.134046 -2.832606 -0.685674
  3 18.045725 0.000000 0.000000 -0.000000 -0.000000 -0.681866
  4 17.597599 0.000000 0.000000 -0.116519 -0.149157 -0.047457
  5 0.000005 -0.000003 -3.713254 0.592978 2.646004 -0.172163
  6 18.045721 -0.000000 -0.000001 0.000000 0.000000 -0.942481
  7 17.597593 0.000000 -0.000000 0.282943 0.297116 0.506322
  8 1.293338 0.684453 -0.000001 -0.278940 -0.249340 -0.214874
  9 5.309647 -0.003832 -0.000000 -0.249761 0.092317 0.130059
 10 4.826592 -0.004567 -0.000000 -0.201377 0.067234 0.203180
 11 5.792761 -0.005304 -0.000000 0.012995 -0.000168 0.204496
 12 6.661936 -0.000705 0.000000 -0.000000 -0.000001 1.270278
 13 2.044495 -0.000000 -0.000000 0.753820 -0.186266 -1.335262
 14 -1.084611 3.285998 4.341911 -0.000013 -1.370798 1.870586
 15 -0.998741 3.031686 -4.140396 -0.000013 1.370795 1.870585
 16 4.827231 0.000000 0.000001 0.078241 1.096650 0.755485
 17 11.139763 -0.000000 -0.000000 0.000000 -0.000000 -0.492934
 18 8.575572 -8.394946 9.511936 -1.535143 -1.058019 1.499774
 19 -1.465386 0.506167 4.002137 0.034889 -0.200000 -0.000001
 20 4.972047 0.000000 0.000001 -0.539138 -0.902547 0.201036
 21 -9.249866 0.683183 -1.946118 -0.000014 -1.670796 0.000014
 22 10.313008 -0.000000 0.000000 -1.468188 0.247339 0.073579
 23 1.646738 0.449549 -1.702246 0.154002 0.442277 0.277235
 24 0.928314 0.000000 0.000000 0.000000 0.000000 0.000000
 25 0.928314 -0.000000 -0.000000 0.000000 0.000000 0.000000
 26 2.975832 -0.386307 -0.044144 -0.000797 -0.043611 0.000035
 27 1.438890 0.000003 0.000001 -0.000000 -0.000000 0.793722
 28 1.485299 -0.000005 -0.000000 0.000000 -0.000000 1.465316
 29 11.585355 0.000000 0.000001 0.000000 0.000000 -0.563427
 30 10.125607 -0.000000 0.000001 2.152066 0.060083 -0.028099
 31 1.533671 0.109715 1.664491 -0.233255 -0.412980 0.435685
 32 0.928314 -0.000001 0.000000 0.000000 0.000000 0.000000
 33 2.683748 -0.427340 0.044205 0.001045 0.043611 0.000046
 34 1.438886 0.000003 0.000000 0.000000 0.000000 0.758827
 35 2.027418 0.730720 12.541074 -1.531161 -0.031283 2.992741
time 13
  0 -0.038098 0.038098 -1.518102 0.000000 0.000000 -1.570829
  1 0.863307 0.000000 0.000000 -1.570795 -1.570451 0.000000
  2 -0.000005 0.000007 3.713254 -0.133471 -2.830114 -0.685140
  3 18.045725 0.000000 0.000000 -0.000000 -0.000000 -0.697895
  4 17.597599 0.000000 0.000000 -0.115400 -0.151553 -0.031444
  5 0.000005 -0.000003 -3.713254 0.597187 2.647866 -0.158305
  6 18.045721 -0.000000 -0.000001 0.000000 0.000000 -0.934440
  7 17.597593 0.000000 -0.000000 0.282921 0.302944 0.509391
  8 1.293338 0.684453 -0.000001 -0.288314 -0.238339 -0.175981
  9 5.309647 -0.003832 -0.000000 -0.250472 0.090328 0.122249
 10 4.826592 -0.004567 -0.000000 -0.203774 0.059503 0.165482
 11 5.792761 -0.005304 -0.000000 0.012995 0.000288 0.168452
 12 6.661936 -0.000705 0.000000 -0.000000 -0.000001 1.246616
 13 2.044495 -0.000000 -0.000000 0.767807 -0.144726 -1.295575
 14 -1.162739 3.262560 4.341911 -0.000013 -1.370798 1.894172
 15 -1.072962 3.008248 -4.140396 -0.000013 1.370795 1.894170
 16 4.827231 0.000000 0.000001 0.172357 1.058014 0.865662
 17 11.139763 -0.000000 -0.000000 0.000000 -0.000000 -0.502535
 18 8.575572 -8.394946 9.511936 -1.535143 -1.058019 1.499774
 19 -1.465386 0.506167 4.002137 0.034889 -0.200000 -0.000001
 20 4.972047 0.000000 0.000001 -0.646889 -0.877932 0.304927
 21 -9.249866 0.683183 -1.946118 -0.000014 -1.670796 0.000014
 22 10.313008 -0.000000 0.000000 -1.424498 0.247339 0.073579
 23 1.646738 0.449549 -1.702246 0.154002 0.442277 0.277235
 24 0.928314 0.000000 0.000000 0.000000 0.000000 0.000000
 25 0.928314 -0.000000 -0.000000 0.000000 0.000000 0.000000
 26 2.975832 -0.386307 -0.044144 -0.000797 -0.043611 0.000035
 27 1.438890 0.000003 0.000001 -0.000000 -0.000000 0.793722
 28 1.485299 -0.000005 -0.000000 0.000000 -0.000000 1.465316
 29 11.585355 0.000000 0.000001 0.000000 0.000000 -0.605302
 30 10.125607 -0.000000 0.000001 2.152066 0.060083 -0.028099
 31 1.533671 0.109715 1.664491 -0.233255 -0.412980 0.435685
 32 0.928314 -0.000001 0.000000 0.000000 0.000000 0.000000
 33 2.683748 -0.427340 0.044205 0.001045 0.043611 0.000046
 34 1.438886 0.000003 0.000000 0.000000 0.000000 0.758827
 35 2.027418 0.730720 12.541074 -1.531161 -0.031283 2.992741
time 14
  0 -0.038098 0.038098 -1.518102 0.000000 0.000000 -1.570829
  1 0.863307 0.000000 0.000000 -1.570795 -1.570451 0.000000
  2 -0.000005 0.000007 3.713254 -0.132896 -2.827621 -0.684168
  3 18.045725 0.000000 0.000000 -0.000000 -0.000000 -0.713479
  4 17.597599 0.000000 0.000000 -0.114307 -0.154059 -0.015431
  5 0.000005 -0.000003 -3.713254 0.601397 2.649915 -0.144059
  6 18.045721 -0.000000 -0.000001 0.000000 0.000000 -0.925819
  7 17.597593 0.000000 -0.000000 0.282989 0.308889 0.512312
  8 1.293338 0.684453 -0.000001 -0.297426 -0.226749 -0.136496
  9 5.309647 -0.003832 -0.000000 -0.250439 0.090424 0.122608
 10 4.826592 -0.004567 -0.000000 -0.207058 0.046596 0.103459
 11 5.792761 -0.005304 -0.000000 0.012974 0.000791 0.129750
 12 6.661936 -0.000705 0.000000 -0.000000 -0.000001 1.218775
 13 2.044495 -0.000000 -0.000000 0.779009 -0.112350 -1.219667
 14 -1.252585 3.227403 4.341911 -0.000013 -1.370798 1.922072
 15 -1.154996 2.976997 -4.140396 -0.000013 1.370795 1.922069
 16 4.827231 0.000000 0.000001 0.222833 0.992912 0.919919
 17 11.139763 -0.000000 -0.000000 0.000000 -0.000000 -0.513397
 18 8.575572 -8.394946 9.511936 -1.535143 -1.058019 1.499774
 19 -1.465386 0.506167 4.002137 0.034889 -0.200000 -0.000001
 20 4.972047 0.000000 0.000001 -0.743029 -0.864901 0.384249
 21 -9.249866 0.683183 -1.946118 -0.000014 -1.670796 0.000014
 22 10.313008 -0.000000 0.000000 -1.375405 0.247339 0.073579
 23 1.646738 0.449549 -1.702246 0.154002 0.442277 0.277235
 24 0.928314 0.000000 0.000000 0.000000 0.000000 0.000000
 25 0.928314 -0.000000 -0.000000 0.000000 0.000000 0.000000
 26 2.975832 -0.386307 -0.044144 -0.000797 -0.043611 0.000035
 27 1.438890 0.000003 0.000001 -0.000000 -0.000000 0.793722
 28 1.485299 -0.000005 -0.000000 0.000000 -0.000000 1.465316
 29 11.585355 0.000000 0.000001 0.000000 0.000000 -0.652308
 30 10.125607 -0.000000 0.000001 2.152066 0.060083 -0.028099
 31 1.533671 0.109715 1.664491 -0.233255 -0.412980 0.435685
 32 0.928314 -0.000001 0.000000 0.000000 0.000000 0.000000
 33 2.683748 -0.427340 0.044205 0.001045 0.043611 0.000046
 34 1.438886 0.000003 0.000000 0.000000 0.000000 0.758827
 35 2.027418 0.730720 12.541074 -1.531161 -0.031283 2.992741
time 15
  0 -0.038098 0.038098 -1.518102 0.000000 0.000000 -1.570829
  1 0.863307 0.000000 0.000000 -1.570795 -1.570451 0.000000
  2 -0.000005 0.000007 3.713254 -0.132513 -2.825129 -0.682712
  3 18.045725 0.000000 0.000000 -0.000000 -0.000000 -0.728396
  4 17.597599 0.000000 0.000000 -0.113214 -0.156592 0.000353
  5 0.000005 -0.000003 -3.713254 0.605702 2.652150 -0.129619
  6 18.045721 -0.000000 -0.000001 0.000000 0.000000 -0.916691
  7 17.597593 0.000000 -0.000000 0.283147 0.314835 0.515011
  8 1.293338 0.684453 -0.000001 -0.306067 -0.214765 -0.097011
  9 5.309647 -0.003832 -0.000000 -0.249646 0.092605 0.131218
 10 4.826592 -0.004567 -0.000000 -0.210102 0.029674 0.023521
 11 5.792761 -0.005304 -0.000000 0.012933 0.001330 0.087871
 12 6.661936 -0.000705 0.000000 -0.000000 -0.000001 1.182894
 13 2.044495 -0.000000 -0.000000 0.788489 -0.087561 -1.112010
 14 -1.369776 3.180526 4.341911 -0.000013 -1.370798 1.957929
 15 -1.260468 2.934027 -4.140396 -0.000013 1.370795 1.957925
 16 4.827231 0.000000 0.000001 0.245529 0.910364 0.933395
 17 11.139763 -0.000000 -0.000000 0.000000 -0.000000 -0.525100
 18 8.575572 -8.394946 9.511936 -1.535143 -1.058019 1.499774
 19 -1.465386 0.506167 4.002137 0.034889 -0.200000 -0.000001
 20 4.972047 0.000000 0.000001 -0.833038 -0.863694 0.449765
 21 -9.249866 0.683183 -1.946118 -0.000014 -1.670796 0.000014
 22 10.313008 -0.000000 0.000000 -1.322225 0.247339 0.073579
 23 1.646738 0.449549 -1.702246 0.154002 0.442277 0.277235
 24 0.928314 0.000000 0.000000 0.000000 0.000000 0.000000
 25 0.928314 -0.000000 -0.000000 0.000000 0.000000 0.000000
 26 2.975832 -0.386307 -0.044144 -0.000797 -0.043611 0.000035
 27 1.438890 0.000003 0.000001 -0.000000 -0.000000 0.793722
 28 1.485299 -0.000005 -0.000000 0.000000 -0.000000 1.465316
 29 11.585355 0.000000 0.000001 0.000000 0.000000 -0.703325
 30 10.125607 -0.000000 0.000001 2.152066 0.060083 -0.028099
 31 1.533671 0.109715 1.664491 -0.233255 -0.412980 0.435685
 32 0.928314 -0.000001 0.000000 0.000000 0.000000 0.000000
 33 2.683748 -0.427340 0.044205 0.001045 0.043611 0.000046
 34 1.438886 0.000003 0.000000 0.000000 0.000000 0.758827
 35 2.027418 0.730720 12.541074 -1.531161 -0.031283 2.992741
time 16
  0 -0.038098 0.038098 -1.518102 0.000000 0.000000 -1.570829
  1 0.863307 0.000000 0.000000 -1.570795 -1.570451 0.000000
  2 -0.000005 0.000007 3.713254 -0.132130 -2.822829 -0.680915
  3 18.045725 0.000000 0.000000 -0.000000 -0.000000 -0.742496
  4 17.597599 0.000000 0.000000 -0.112198 -0.159126 0.015725
  5 0.000005 -0.000003 -3.713254 0.610007 2.654479 -0.115179
  6 18.045721 -0.000000 -0.000001 0.000000 0.000000 -0.907201
  7 17.597593 0.000000 -0.000000 0.283397 0.320710 0.517451
  8 1.293338 0.684453 -0.000001 -0.314131 -0.202577 -0.058154
  9 5.309647 -0.003832 -0.000000 -0.248274 0.096308 0.145840
 10 4.826592 -0.004567 -0.000000 -0.211264 0.019595 -0.023628
 11 5.792761 -0.005304 -0.000000 0.012870 0.001762 0.055108
 12 6.661936 -0.000705 0.000000 -0.000000 -0.000001 1.141168
 13 2.044495 -0.000000 -0.000000 0.796708 -0.069189 -1.039104
 14 -1.498686 3.121931 4.341911 -0.000013 -1.370798 1.999635
 15 -1.381565 2.879338 -4.140396 -0.000013 1.370795 1.999630
 16 4.827231 0.000000 0.000001 0.206971 0.861006 0.873450
 17 11.139763 -0.000000 -0.000000 0.000000 -0.000000 -0.537504
 18 8.575572 -8.394946 9.511936 -1.535143 -1.058019 1.499774
 19 -1.465386 0.506167 4.002137 0.034889 -0.200000 -0.000001
 20 4.972047 0.000000 0.000001 -0.842141 -0.896916 0.438768
 21 -9.249866 0.683183 -1.946118 -0.000014 -1.670796 0.000014
 22 10.313008 -0.000000 0.000000 -1.266081 0.247339 0.073579
 23 1.646738 0.449549 -1.702246 0.154002 0.442277 0.277235
 24 0.928314 0.000000 0.000000 0.000000 0.000000 0.000000
 25 0.928314 -0.000000 -0.000000 0.000000 0.000000 0.000000
 26 2.975832 -0.386307 -0.044144 -0.000797 -0.043611 0.000035
 27 1.438890 0.000003 0.000001 -0.000000 -0.000000 0.793722
 28 1.485299 -0.000005 -0.000000 0.000000 -0.000000 1.465316
 29 11.585355 0.000000 0.000001 0.000000 0.000000 -0.757113
 30 10.125607 -0.000000 0.000001 2.152066 0.060083 -0.028099
 31 1.533671 0.109715 1.664491 -0.233255 -0.412980 0.435685
 32 0.928314 -0.000001 0.000000 0.000000 0.000000 0.000000
 33 2.683748 -0.427340 0.044205 0.001045 0.043611 0.000046
 34 1.438886 0.000003 0.000000 0.000000 0.000000 0.758827
 35 2.027418 0.730720 12.541074 -1.531161 -0.031283 2.992741
time 17
  0 -0.038098 0.038098 -1.518102 0.000000 0.000000 -1.570829
  1 0.863307 0.000000 0.000000 -1.570795 -1.570451 0.000000
  2 -0.000005 0.000007 3.713254 -0.131842 -2.820528 -0.678778
  3 18.045725 0.000000 0.000000 -0.000000 -0.000000 -0.755631
  4 17.597599 0.000000 0.000000 -0.111232 -0.161631 0.030366
  5 0.000005 -0.000003 -3.713254 0.614216 2.656993 -0.101029
  6 18.045721 -0.000000 -0.000001 0.000000 0.000000 -0.897566
  7 17.597593 0.000000 -0.000000 0.283737 0.326375 0.519596
  8 1.293338 0.684453 -0.000001 -0.321463 -0.190424 -0.020480
  9 5.309647 -0.003832 -0.000000 -0.246455 0.100922 0.164217
 10 4.826592 -0.004567 -0.000000 -0.211228 0.020074 -0.021430
 11 5.792761 -0.005304 -0.000000 0.012849 0.001906 0.043688
 12 6.661936 -0.000705 0.000000 -0.000000 -0.000001 1.095793
 13 2.044495 -0.000000 -0.000000 0.803867 -0.055544 -1.032568
 14 -1.639316 3.047710 4.341911 -0.000013 -1.370798 2.045081
 15 -1.510475 2.812930 -4.140396 -0.000013 1.370795 2.044978
 16 4.827231 0.000000 0.000001 0.091036 0.858368 0.732907
 17 11.139763 -0.000000 -0.000000 0.000000 -0.000000 -0.550259
 18 8.575572 -8.394946 9.511936 -1.535143 -1.058019 1.499774
 19 -1.465386 0.506167 4.002137 0.034889 -0.200000 -0.000001
 20 4.972047 0.000000 0.000001 -0.722500 -0.965050 0.307033
 21 -9.249866 0.683183 -1.946118 -0.000014 -1.670796 0.000014
 22 10.313008 -0.000000 0.000000 -1.208223 0.247339 0.073579
 23 1.646738 0.449549 -1.702246 0.154002 0.442277 0.277235
 24 0.928314 0.000000 0.000000 0.000000 0.000000 0.000000
 25 0.928314 -0.000000 -0.000000 0.000000 0.000000 0.000000
 26 2.975832 -0.386307 -0.044144 -0.000797 -0.043611 0.000035
 27 1.438890 0.000003 0.000001 -0.000000 -0.000000 0.793722
 28 1.485299 -0.000005 -0.000000 0.000000 -0.000000 1.465316
 29 11.585355 0.000000 0.000001 0.000000 0.000000 -0.812553
 30 10.125607 -0.000000 0.000001 2.152066 0.060083 -0.028099
 31 1.533671 0.109715 1.664491 -0.233255 -0.412980 0.435685
 32 0.928314 -0.000001 0.000000 0.000000 0.000000 0.000000
 33 2.683748 -0.427340 0.044205 0.001045 0.043611 0.000046
 34 1.438886 0.000003 0.000000 0.000000 0.000000 0.758827
 35 2.027418 0.730720 12.541074 -1.531161 -0.031283 2.992741
time 18
  0 -0.038098 0.038098 -1.518102 0.000000 0.000000 -1.570829
  1 0.863307 0.000000 0.000000 -1.570795 -1.570451 0.000000
  2 -0.000005 0.000007 3.713254 -0.131650 -2.818419 -0.676447
  3 18.045725 0.000000 0.000000 -0.000000 -0.000000 -0.767653
  4 17.597599 0.000000 0.000000 -0.110342 -0.164055 0.044182
  5 0.000005 -0.000003 -3.713254 0.618234 2.659601 -0.087365
  6 18.045721 -0.000000 -0.000001 0.000000 0.000000 -0.887931
  7 17.597593 0.000000 -0.000000 0.284123 0.331782 0.521444
  8 1.293338 0.684453 -0.000001 -0.328061 -0.178547 0.015383
  9 5.309647 -0.003832 -0.000000 -0.244405 0.105884 0.184113
 10 4.826592 -0.004567 -0.000000 -0.210653 0.025467 0.003812
 11 5.792761 -0.005304 -0.000000 0.012912 0.001534 0.072631
 12 6.661936 -0.000705 0.000000 -0.000000 -0.000001 1.048967
 13 2.044495 -0.000000 -0.000000 0.810098 -0.044287 -1.086530
 14 -1.779945 2.969582 4.341911 -0.000013 -1.370798 2.091868
 15 -1.643292 2.738708 -4.140396 -0.000013 1.370795 2.091860
 16 4.827231 0.000000 0.000001 -0.105871 0.875558 0.518592
 17 11.139763 -0.000000 -0.000000 0.000000 -0.000000 -0.563084
 18 8.575572 -8.394946 9.511936 -1.535143 -1.058019 1.499774
 19 -1.465386 0.506167 4.002137 0.034889 -0.200000 -0.000001
 20 4.972047 0.000000 0.000001 -0.450151 -1.028035 0.027418
 21 -9.249866 0.683183 -1.946118 -0.000014 -1.670796 0.000014
 22 10.313008 -0.000000 0.000000 -1.150035 0.247339 0.073579
 23 1.646738 0.449549 -1.702246 0.154002 0.442277 0.277235
 24 0.928314 0.000000 0.000000 0.000000 0.000000 0.000000
 25 0.928314 -0.000000 -0.000000 0.000000 0.000000 0.000000
 26 2.975832 -0.386307 -0.044144 -0.000797 -0.043611 0.000035
 27 1.438890 0.000003 0.000001 -0.000000 -0.000000 0.793722
 28 1.485299 -0.000005 -0.000000 0.000000 -0.000000 1.465316
 29 11.585355 0.000000 0.000001 0.000000 0.000000 -0.868347
 30 10.125607 -0.000000 0.000001 2.152066 0.060083 -0.028099
 31 1.533671 0.109715 1.664491 -0.233255 -0.412980 0.435685
 32 0.928314 -0.000001 0.000000 0.000000 0.000000 0.000000
 33 2.683748 -0.427340 0.044205 0.001045 0.043611 0.000046
 34 1.438886 0.000003 0.000000 0.000000 0.000000 0.758827
 35 2.027418 0.730720 12.541074 -1.531161 -0.031283 2.992741
time 19
  0 -0.038098 0.038098 -1.518102 0.000000 0.000000 -1.570829
  1 0.863307 0.000000 0.000000 -1.570795 -1.570451 0.000000
  2 -0.000005 0.000007 3.713254 -0.131459 -2.816502 -0.673970
  3 18.045725 0.000000 0.000000 -0.000000 -0.000000 -0.778414
  4 17.597599 0.000000 0.000000 -0.109529 -0.166340 0.056901
  5 0.000005 -0.000003 -3.713254 0.622060 2.662208 -0.074427
  6 18.045721 -0.000000 -0.000001 0.000000 0.000000 -0.878513
  7 17.597593 0.000000 -0.000000 0.284577 0.336814 0.522997
  8 1.293338 0.684453 -0.000001 -0.333822 -0.167210 0.048860
  9 5.309647 -0.003832 -0.000000 -0.242339 0.110618 0.203269
 10 4.826592 -0.004567 -0.000000 -0.209646 0.032814 0.038249
 11 5.792761 -0.005304 -0.000000 0.012974 0.000755 0.132304
 12 6.661936 -0.000705 0.000000 -0.000000 -0.000001 1.002848
 13 2.044495 -0.000000 -0.000000 0.815468 -0.033165 -1.179379
 14 -1.916668 2.883642 4.341911 -0.000013 -1.370798 2.137985
 15 -1.768296 2.660581 -4.140396 -0.000013 1.370795 2.137975
 16 4.827231 0.000000 0.000001 -0.357372 0.876154 0.263235
 17 11.139763 -0.000000 -0.000000 0.000000 -0.000000 -0.575768
 18 8.575572 -8.394946 9.511936 -1.535143 -1.058019 1.499774
 19 -1.465386 0.506167 4.002137 0.034889 -0.200000 -0.000001
 20 4.972047 0.000000 0.000001 -0.079153 -1.029483 -0.349068
 21 -9.249866 0.683183 -1.946118 -0.000014 -1.670796 0.000014
 22 10.313008 -0.000000 0.000000 -1.092638 0.247339 0.073579
 23 1.646738 0.449549 -1.702246 0.154002 0.442277 0.277235
 24 0.928314 0.000000 0.000000 0.000000 0.000000 0.000000
 25 0.928314 -0.000000 -0.000000 0.000000 0.000000 0.000000
 26 2.975832 -0.386307 -0.044144 -0.000797 -0.043611 0.000035
 27 1.438890 0.000003 0.000001 -0.000000 -0.000000 0.793722
 28 1.485299 -0.000005 -0.000000 0.000000 -0.000000 1.465316
 29 11.585355 0.000000 0.000001 0.000000 0.000000 -0.923316
 30 10.125607 -0.000000 0.000001 2.152066 0.060083 -0.028099
 31 1.533671 0.109715 1.664491 -0.233255 -0.412980 0.435685
 32 0.928314 -0.000001 0.000000 0.000000 0.000000 0.000000
 33 2.683748 -0.427340 0.044205 0.001045 0.043611 0.000046
 34 1.438886 0.000003 0.000000 0.000000 0.000000 0.758827
 35 2.027418 0.730720 12.541074 -1.531161 -0.031283 2.992741
time 20
  0 -0.038098 0.038098 -1.518102 0.000000 0.000000 -1.570829
  1 0.863307 0.000000 0.000000 -1.570795 -1.570451 0.000000
  2 -0.000005 0.000007 3.713254 -0.131459 -2.814680 -0.671445
  3 18.045725 0.000000 0.000000 -0.000000 -0.000000 -0.787913
  4 17.597599 0.000000 0.000000 -0.108842 -0.168461 0.068430
  5 0.000005 -0.000003 -3.713254 0.625600 2.664630 -0.062507
  6 18.045721 -0.000000 -0.000001 0.000000 0.000000 -0.869602
  7 17.597593 0.000000 -0.000000 0.285031 0.341402 0.524255
  8 1.293338 0.684453 -0.000001 -0.338744 -0.156664 0.079433
  9 5.309647 -0.003832 -0.000000 -0.240520 0.114573 0.219449
 10 4.826592 -0.004567 -0.000000 -0.208568 0.039154 0.068106
 11 5.792761 -0.005304 -0.000000 0.012995 0.000000 0.191976
 12 6.661936 -0.000705 0.000000 -0.000000 -0.000001 0.959670
 13 2.044495 -0.000000 -0.000000 0.819975 -0.019903 -1.268293
 14 -2.037766 2.797702 4.341911 -0.000013 -1.370798 2.181129
 15 -1.877674 2.582454 -4.140396 -0.000013 1.370795 2.181118
 16 4.827231 0.000000 0.000001 -0.576975 0.844922 0.050320
 17 11.139763 -0.000000 -0.000000 0.000000 -0.000000 -0.587962
 18 8.575572 -8.394946 9.511936 -1.535143 -1.058019 1.499774
 19 -1.465386 0.506167 4.002137 0.034889 -0.200000 -0.000001
 20 4.972047 0.000000 0.000001 0.213168 -0.969715 -0.646544
 21 -9.249866 0.683183 -1.946118 -0.000014 -1.670796 0.000014
 22 10.313008 -0.000000 0.000000 -1.037284 0.247339 0.073579
 23 1.646738 0.449549 -1.702246 0.154002 0.442277 0.277235
 24 0.928314 0.000000 0.000000 0.000000 0.000000 0.000000
 25 0.928314 -0.000000 -0.000000 0.000000 0.000000 0.000000
 26 2.975832 -0.386307 -0.044144 -0.000797 -0.043611 0.000035
 27 1.438890 0.000003 0.000001 -0.000000 -0.000000 0.793722
 28 1.485299 -0.000005 -0.000000 0.000000 -0.000000 1.465316
 29 11.585355 0.000000 0.000001 0.000000 0.000000 -0.976337
 30 10.125607 -0.000000 0.000001 2.152066 0.060083 -0.028099
 31 1.533671 0.109715 1.664491 -0.233255 -0.412980 0.435685
 32 0.928314 -0.000001 0.000000 0.000000 0.000000 0.000000
 33 2.683748 -0.427340 0.044205 0.001045 0.043611 0.000046
 34 1.438886 0.000003 0.000000 0.000000 0.000000 0.758827
 35 2.027418 0.730720 12.541074 -1.531161 -0.031283 2.992741
end
