version 1
nodes
  0 "Bip01"  -1
  1 "Bip01 Pelvis"   0
  2 "Bip01 L Leg"   1
  3 "Bip01 L Leg1"   2
  4 "Bip01 L Foot"   3
  5 "Bip01 R Leg"   1
  6 "Bip01 R Leg1"   5
  7 "Bip01 R Foot"   6
  8 "Bip01 Spine"   1
  9 "Bip01 Spine1"   8
 10 "Bip01 Spine2"   9
 11 "Bip01 Spine3"  10
 12 "Bip01 Neck"  11
 13 "Bip01 Head"  12
 14 "Bip01 L Arm"  12
 15 "Bip01 R Arm"  12
 16 "Bip01 L Arm1"  14
 17 "Bip01 L Arm2"  16
 18 "bone_shield"  17
 19 "bone_root_plate"  14
 20 "Bip01 R Arm1"  15
 21 "bone_plate_root"  20
 22 "Bip01 L Hand"  17
 23 "Bip01 L Finger0"  22
 24 "Bip01 L Finger01"  23
 25 "Bip01 L Finger02"  24
 26 "Bip01 L Finger1"  22
 27 "Bip01 L Finger11"  26
 28 "Bip01 L Finger12"  27
 29 "Bip01 R Arm2"  20
 30 "Bip01 R Hand"  29
 31 "Bip01 R Finger0"  30
 32 "Bip01 R Finger01"  31
 33 "Bip01 R Finger1"  30
 34 "Bip01 R Finger11"  33
 35 "sword"  30
end
skeleton
time 0
  0 0.235347 -0.235347 2.544522 0.000000 1.447821 -1.570829
  1 1.320352 1.007843 0.000000 -0.000018 -1.553361 -1.570790
  2 -0.000005 0.000007 3.713254 -0.202291 -2.432481 -0.694075
  3 18.045725 0.000000 0.000000 -0.000000 -0.000000 -0.740715
  4 17.597599 0.000000 0.000000 -0.294832 -0.331209 -0.654709
  5 0.000005 -0.000003 -3.713254 0.245522 2.508825 -0.656970
  6 18.045721 -0.000000 -0.000001 0.000000 0.000000 -0.563596
  7 17.597593 0.000000 -0.000000 0.479299 0.457151 -0.598014
  8 1.293338 0.684453 0.019531 -0.069941 -0.016779 0.009501
  9 5.309647 -0.003832 -0.000000 0.000083 0.104661 -0.069775
 10 4.826592 -0.004567 -0.000000 -0.078187 0.094858 -0.129906
 11 5.792761 -0.005304 -0.000000 0.000126 0.174436 -0.122082
 12 6.661936 -0.000705 0.000000 -0.000000 -0.000001 0.000005
 13 2.044495 -0.000000 -0.000000 0.352715 -0.151278 -0.637023
 14 -3.459684 -0.057854 4.341911 -3.141488 -1.299812 -0.000723
 15 -3.190214 -0.054345 -4.140396 -3.141487 1.282366 -0.000762
 16 4.827231 0.000000 0.000001 -0.877287 -0.670041 -0.540818
 17 11.139763 -0.000000 -0.000000 0.000000 -0.000000 -0.287179
 18 8.575572 -8.394946 9.511936 -1.535143 -1.058019 1.499774
 19 -1.465386 0.506167 4.002137 0.034889 -0.200000 -0.000001
 20 4.972047 0.000000 0.000001 1.427223 -0.308249 -1.347960
 21 -9.249866 0.683183 -1.946118 -0.000014 -1.670796 0.000014
 22 10.313008 -0.000000 0.000000 -0.662921 0.000000 -0.069778
 23 1.646738 0.449549 -1.702246 0.154002 0.442277 0.277235
 24 0.928314 0.000000 0.000000 0.000000 0.000000 0.000000
 25 0.928314 -0.000000 -0.000000 0.000000 0.000000 0.000000
 26 2.975832 -0.386307 -0.044144 -0.000797 -0.043611 0.000035
 27 1.438890 0.000003 0.000001 -0.000000 -0.000000 0.427388
 28 1.485299 -0.000005 -0.000000 0.000000 -0.000000 0.104667
 29 11.585355 0.000000 0.000001 0.000000 0.000000 -1.447224
 30 10.125607 -0.000000 0.000001 1.569752 -0.000000 -0.069778
 31 1.533671 0.109715 1.664491 -0.233255 -0.412980 0.435685
 32 0.928314 -0.000001 0.000000 0.000000 0.000000 0.000000
 33 2.683748 -0.427340 0.044205 -0.005031 0.043335 -0.139594
 34 1.438886 0.000003 0.000000 0.000000 0.000000 0.523315
 35 2.027418 0.730720 12.541074 -1.531161 -0.031283 2.992741
time 1
  0 0.235347 -0.235347 2.470301 0.000000 1.447821 -1.570829
  1 1.246131 0.773461 0.000000 -0.000018 -1.554583 -1.570790
  2 -0.000005 0.000007 3.713254 -0.193473 -2.412542 -0.753903
  3 18.045725 0.000000 0.000000 -0.000000 -0.000000 -0.916371
  4 17.597599 0.000000 0.000000 -0.335146 -0.250827 -0.332943
  5 0.000005 -0.000003 -3.713254 0.222562 2.401633 -0.753398
  6 18.045721 -0.000000 -0.000001 0.000000 0.000000 -0.765934
  7 17.597593 0.000000 -0.000000 0.400466 0.377520 -0.390436
  8 1.293338 0.684453 0.019531 -0.069915 -0.015557 0.009501
  9 5.309647 -0.003832 -0.000000 0.000050 0.082646 -0.069795
 10 4.826592 -0.004567 -0.000000 -0.078187 0.066287 -0.110197
 11 5.792761 -0.005304 -0.000000 0.000105 0.146428 -0.122082
 12 6.661936 -0.000705 0.000000 -0.000000 -0.000001 0.000005
 13 2.044495 -0.000000 -0.000000 0.301077 -0.090555 -0.647629
 14 -3.459684 -0.057854 4.341911 -3.141488 -1.342764 -0.000723
 15 -3.190214 -0.054345 -4.140396 -3.141487 1.282366 -0.000762
 16 4.827231 0.000000 0.000001 -0.979552 -0.429036 -0.559283
 17 11.139763 -0.000000 -0.000000 0.000000 -0.000000 -0.287179
 18 8.575572 -8.394946 9.511936 -1.535143 -1.058019 1.499774
 19 -1.465386 0.506167 4.002137 0.034889 -0.200000 -0.000001
 20 4.972047 0.000000 0.000001 1.511287 -0.341310 -1.362468
 21 -9.249866 0.683183 -1.946118 -0.000014 -1.670796 0.000014
 22 10.313008 -0.000000 0.000000 -0.662921 0.000000 -0.069778
 23 1.646738 0.449549 -1.702246 0.154002 0.442277 0.277235
 24 0.928314 0.000000 0.000000 0.000000 0.000000 0.000000
 25 0.928314 -0.000000 -0.000000 0.000000 0.000000 0.000000
 26 2.975832 -0.386307 -0.044144 -0.000797 -0.043611 0.000035
 27 1.438890 0.000003 0.000001 -0.000000 -0.000000 0.427388
 28 1.485299 -0.000005 -0.000000 0.000000 -0.000000 0.104667
 29 11.585355 0.000000 0.000001 0.000000 0.000000 -1.447224
 30 10.125607 -0.000000 0.000001 1.569752 -0.000000 -0.069778
 31 1.533671 0.109715 1.664491 -0.233255 -0.412980 0.435685
 32 0.928314 -0.000001 0.000000 0.000000 0.000000 0.000000
 33 2.683748 -0.427340 0.044205 -0.005031 0.043335 -0.139594
 34 1.438886 0.000003 0.000000 0.000000 0.000000 0.523315
 35 2.027418 0.730720 12.541074 -1.531161 -0.031283 2.992741
time 2
  0 0.235347 -0.235347 2.435143 0.000000 1.447821 -1.570829
  1 1.210974 0.300790 0.000000 -0.000018 -1.556201 -1.570790
  2 -0.000005 0.000007 3.713254 -0.172003 -2.382825 -0.847482
  3 18.045725 0.000000 0.000000 -0.000000 -0.000000 -1.176999
  4 17.597599 0.000000 0.000000 -0.358735 -0.129770 0.129508
  5 0.000005 -0.000003 -3.713254 0.147752 2.250112 -0.926339
  6 18.045721 -0.000000 -0.000001 0.000000 0.000000 -1.064478
  7 17.597593 0.000000 -0.000000 0.276158 0.284359 -0.069455
  8 1.293338 0.684453 0.015624 -0.069915 -0.013927 0.009501
  9 5.309647 -0.003832 -0.000000 0.000017 0.040843 -0.069795
 10 4.826592 -0.004567 -0.000000 -0.078032 0.009240 -0.108548
 11 5.792761 -0.005304 -0.000000 0.000063 0.093228 -0.122103
 12 6.661936 -0.000705 0.000000 -0.000000 -0.000001 0.000005
 13 2.044495 -0.000000 -0.000000 0.197139 0.019498 -0.640092
 14 -3.459684 -0.057854 4.341911 -3.141488 -1.404122 -0.000723
 15 -3.190214 -0.054345 -4.140396 -3.141487 1.282366 -0.000762
 16 4.827231 0.000000 0.000001 -1.064905 -0.098505 -0.619141
 17 11.139763 -0.000000 -0.000000 0.000000 -0.000000 -0.287179
 18 8.575572 -8.394946 9.511936 -1.535143 -1.058019 1.499774
 19 -1.465386 0.506167 4.002137 0.034889 -0.200000 -0.000001
 20 4.972047 0.000000 0.000001 1.669198 -0.421751 -1.406691
 21 -9.249866 0.683183 -1.946118 -0.000014 -1.670796 0.000014
 22 10.313008 -0.000000 0.000000 -0.662921 0.000000 -0.069778
 23 1.646738 0.449549 -1.702246 0.154002 0.442277 0.277235
 24 0.928314 0.000000 0.000000 0.000000 0.000000 0.000000
 25 0.928314 -0.000000 -0.000000 0.000000 0.000000 0.000000
 26 2.975832 -0.386307 -0.044144 -0.000797 -0.043611 0.000035
 27 1.438890 0.000003 0.000001 -0.000000 -0.000000 0.427388
 28 1.485299 -0.000005 -0.000000 0.000000 -0.000000 0.104667
 29 11.585355 0.000000 0.000001 0.000000 0.000000 -1.447224
 30 10.125607 -0.000000 0.000001 1.569752 -0.000000 -0.069778
 31 1.533671 0.109715 1.664491 -0.233255 -0.412980 0.435685
 32 0.928314 -0.000001 0.000000 0.000000 0.000000 0.000000
 33 2.683748 -0.427340 0.044205 -0.005031 0.043335 -0.139594
 34 1.438886 0.000003 0.000000 0.000000 0.000000 0.523315
 35 2.027418 0.730720 12.541074 -1.531161 -0.031283 2.992741
time 3
  0 0.235347 -0.235347 2.399986 0.000000 1.447821 -1.570829
  1 1.175816 -0.156255 0.000000 -0.000018 -1.558107 -1.570790
  2 -0.000005 0.000007 3.713254 -0.174495 -2.361831 -0.922607
  3 18.045725 0.000000 0.000000 -0.000000 -0.000000 -1.410689
  4 17.597599 0.000000 0.000000 -0.335858 -0.018462 0.575808
  5 0.000005 -0.000003 -3.713254 0.054383 2.109300 -1.126755
  6 18.045721 -0.000000 -0.000001 0.000000 0.000000 -1.340782
  7 17.597593 0.000000 -0.000000 0.134195 0.224108 0.264763
  8 1.293338 0.684453 0.015624 -0.069889 -0.012034 0.009501
  9 5.309647 -0.003832 -0.000000 0.000000 0.000779 -0.069795
 10 4.826592 -0.004567 -0.000000 -0.078128 -0.045553 -0.108438
 11 5.792761 -0.005304 -0.000000 0.000021 0.042222 -0.122103
 12 6.661936 -0.000705 0.000000 -0.000000 -0.000001 0.000005
 13 2.044495 -0.000000 -0.000000 0.097840 0.125521 -0.641026
 14 -3.459684 -0.057854 4.341911 -3.141488 -1.465503 -0.000819
 15 -3.190214 -0.054345 -4.140396 -3.141487 1.282366 -0.000762
 16 4.827231 0.000000 0.000001 -1.134396 0.227771 -0.534780
 17 11.139763 -0.000000 -0.000000 0.000000 -0.000000 -0.287179
 18 8.575572 -8.394946 9.511936 -1.535143 -1.058019 1.499774
 19 -1.465386 0.506167 4.002137 0.034889 -0.200000 -0.000001
 20 4.972047 0.000000 0.000001 1.832311 -0.504606 -1.474626
 21 -9.249866 0.683183 -1.946118 -0.000014 -1.670796 0.000014
 22 10.313008 -0.000000 0.000000 -0.662921 0.000000 -0.069778
 23 1.646738 0.449549 -1.702246 0.154002 0.442277 0.277235
 24 0.928314 0.000000 0.000000 0.000000 0.000000 0.000000
 25 0.928314 -0.000000 -0.000000 0.000000 0.000000 0.000000
 26 2.975832 -0.386307 -0.044144 -0.000797 -0.043611 0.000035
 27 1.438890 0.000003 0.000001 -0.000000 -0.000000 0.427388
 28 1.485299 -0.000005 -0.000000 0.000000 -0.000000 0.104667
 29 11.585355 0.000000 0.000001 0.000000 0.000000 -1.447224
 30 10.125607 -0.000000 0.000001 1.569752 -0.000000 -0.069778
 31 1.533671 0.109715 1.664491 -0.233255 -0.412980 0.435685
 32 0.928314 -0.000001 0.000000 0.000000 0.000000 0.000000
 33 2.683748 -0.427340 0.044205 -0.005031 0.043335 -0.139594
 34 1.438886 0.000003 0.000000 0.000000 0.000000 0.523315
 35 2.027418 0.730720 12.541074 -1.531161 -0.031283 2.992741
time 4
  0 0.235347 -0.235347 2.368735 0.000000 1.447821 -1.570829
  1 1.144565 -0.531266 0.000000 -0.000018 -1.560192 -1.570790
  2 -0.000005 0.000007 3.713254 -0.259704 -2.371801 -0.902308
  3 18.045725 0.000000 0.000000 -0.000000 -0.000000 -1.467534
  4 17.597599 0.000000 0.000000 -0.280318 0.025929 0.796374
  5 0.000005 -0.000003 -3.713254 0.119722 2.023622 -1.163291
  6 18.045721 -0.000000 -0.000001 0.000000 0.000000 -1.437496
  7 17.597593 0.000000 -0.000000 0.024024 0.217016 0.448456
  8 1.293338 0.684453 0.011718 -0.069862 -0.009936 0.009501
  9 5.309647 -0.003832 -0.000000 -0.000017 -0.031843 -0.069795
 10 4.826592 -0.004567 -0.000000 -0.078367 -0.090208 -0.108695
 11 5.792761 -0.005304 -0.000000 0.000000 0.000695 -0.122103
 12 6.661936 -0.000705 0.000000 -0.000000 -0.000001 0.000005
 13 2.044495 -0.000000 -0.000000 0.016042 0.211753 -0.648496
 14 -3.459684 -0.057854 4.341911 -3.141488 -1.539732 -0.000819
 15 -3.190214 -0.054345 -4.140396 -3.141487 1.282366 -0.000762
 16 4.827231 0.000000 0.000001 -1.194949 0.544346 -0.089786
 17 11.139763 -0.000000 -0.000000 0.000000 -0.000000 -0.025361
 18 8.575572 -8.394946 9.511936 -1.535143 -1.058019 1.499774
 19 -1.465386 0.506167 4.002137 0.034889 -0.200000 -0.000001
 20 4.972047 0.000000 0.000001 1.980747 -0.578772 -1.558081
 21 -9.249866 0.683183 -1.946118 -0.000014 -1.670796 0.000014
 22 10.313008 -0.000000 0.000000 -0.662921 0.000000 -0.069778
 23 1.646738 0.449549 -1.702246 0.154002 0.442277 0.277235
 24 0.928314 0.000000 0.000000 0.000000 0.000000 0.000000
 25 0.928314 -0.000000 -0.000000 0.000000 0.000000 0.000000
 26 2.975832 -0.386307 -0.044144 -0.000797 -0.043611 0.000035
 27 1.438890 0.000003 0.000001 -0.000000 -0.000000 0.427388
 28 1.485299 -0.000005 -0.000000 0.000000 -0.000000 0.104667
 29 11.585355 0.000000 0.000001 0.000000 0.000000 -1.447224
 30 10.125607 -0.000000 0.000001 1.569752 -0.000000 -0.069778
 31 1.533671 0.109715 1.664491 -0.233255 -0.412980 0.435685
 32 0.928314 -0.000001 0.000000 0.000000 0.000000 0.000000
 33 2.683748 -0.427340 0.044205 -0.005031 0.043335 -0.139594
 34 1.438886 0.000003 0.000000 0.000000 0.000000 0.523315
 35 2.027418 0.730720 12.541074 -1.531161 -0.031283 2.992741
time 5
  0 0.235347 -0.235347 2.337484 0.000000 1.447821 -1.570829
  1 1.113314 -0.867214 0.000000 -0.000018 -1.562433 -1.570742
  2 -0.000005 0.000007 3.713254 -0.558274 -2.473606 -0.685722
  3 18.045725 0.000000 0.000000 -0.000000 -0.000000 -1.078299
  4 17.597599 0.000000 0.000000 -0.198901 -0.052912 0.454202
  5 0.000005 -0.000003 -3.713254 0.723083 2.091792 -0.714585
  6 18.045721 -0.000000 -0.000001 0.000000 0.000000 -1.093166
  7 17.597593 0.000000 -0.000000 -0.018297 0.273591 0.252561
  8 1.293338 0.684453 0.007812 -0.069836 -0.007695 0.009501
  9 5.309647 -0.003832 -0.000000 -0.000033 -0.061589 -0.069795
 10 4.826592 -0.004567 -0.000000 -0.078715 -0.130908 -0.109061
 11 5.792761 -0.005304 -0.000000 -0.000021 -0.037152 -0.122103
 12 6.661936 -0.000705 0.000000 -0.000000 -0.000001 0.000005
 13 2.044495 -0.000000 -0.000000 -0.060322 0.289858 -0.661036
 14 -3.459684 -0.057854 4.341911 -0.000013 -1.531565 3.140848
 15 -3.190214 -0.054345 -4.140396 -3.141487 1.282366 -0.000762
 16 4.827231 0.000000 0.000001 -1.131154 0.826795 0.548696
 17 11.139763 -0.000000 -0.000000 0.000000 -0.000000 0.254538
 18 8.575572 -8.394946 9.511936 -1.535143 -1.058019 1.499774
 19 -1.465386 0.506167 4.002137 0.034889 -0.200000 -0.000001
 20 4.972047 0.000000 0.000001 -1.008319 -2.499784 1.480012
 21 -9.249866 0.683183 -1.946118 -0.000014 -1.670796 0.000014
 22 10.313008 -0.000000 0.000000 -0.662921 0.000000 -0.069778
 23 1.646738 0.449549 -1.702246 0.154002 0.442277 0.277235
 24 0.928314 0.000000 0.000000 0.000000 0.000000 0.000000
 25 0.928314 -0.000000 -0.000000 0.000000 0.000000 0.000000
 26 2.975832 -0.386307 -0.044144 -0.000797 -0.043611 0.000035
 27 1.438890 0.000003 0.000001 -0.000000 -0.000000 0.427388
 28 1.485299 -0.000005 -0.000000 0.000000 -0.000000 0.104667
 29 11.585355 0.000000 0.000001 0.000000 0.000000 -1.447224
 30 10.125607 -0.000000 0.000001 1.569752 -0.000000 -0.069778
 31 1.533671 0.109715 1.664491 -0.233255 -0.412980 0.435685
 32 0.928314 -0.000001 0.000000 0.000000 0.000000 0.000000
 33 2.683748 -0.427340 0.044205 -0.005031 0.043335 -0.139594
 34 1.438886 0.000003 0.000000 0.000000 0.000000 0.523315
 35 2.027418 0.730720 12.541074 -1.531161 -0.031283 2.992741
time 6
  0 0.235347 -0.235347 2.310140 0.000000 1.447821 -1.570829
  1 1.082063 -1.152379 0.000000 -0.000018 -1.564758 -1.570790
  2 -0.000005 0.000007 3.713254 -0.874096 -2.721120 -0.441311
  3 18.045725 0.000000 0.000000 -0.000000 -0.000000 -0.386285
  4 17.597599 0.000000 0.000000 -0.077094 -0.162347 -0.326629
  5 0.000005 -0.000003 -3.713254 1.215950 2.445590 -0.389733
  6 18.045721 -0.000000 -0.000001 0.000000 0.000000 -0.443193
  7 17.597593 0.000000 -0.000000 -0.053674 0.371106 -0.242868
  8 1.293338 0.684453 0.007812 -0.069810 -0.005370 0.009501
  9 5.309647 -0.003832 -0.000000 -0.000066 -0.087212 -0.069795
 10 4.826592 -0.004567 -0.000000 -0.079134 -0.165999 -0.109391
 11 5.792761 -0.005304 -0.000000 -0.000042 -0.069774 -0.122103
 12 6.661936 -0.000705 0.000000 -0.000000 -0.000001 0.000005
 13 2.044495 -0.000000 -0.000000 -0.128266 0.356480 -0.676578
 14 -3.459684 -0.057854 4.341911 -0.000013 -1.510333 3.140752
 15 -3.190214 -0.054345 -4.140396 -3.141487 1.282366 -0.000762
 16 4.827231 0.000000 0.000001 -0.942397 0.943298 0.902066
 17 11.139763 -0.000000 -0.000000 0.000000 -0.000000 0.166307
 18 8.575572 -8.394946 9.511936 -1.535143 -1.058019 1.499774
 19 -1.465386 0.506167 4.002137 0.034889 -0.200000 -0.000001
 20 4.972047 0.000000 0.000001 -0.859883 -2.452002 1.364734
 21 -9.249866 0.683183 -1.946118 -0.000014 -1.670796 0.000014
 22 10.313008 -0.000000 0.000000 -0.662921 0.000000 -0.069778
 23 1.646738 0.449549 -1.702246 0.154002 0.442277 0.277235
 24 0.928314 0.000000 0.000000 0.000000 0.000000 0.000000
 25 0.928314 -0.000000 -0.000000 0.000000 0.000000 0.000000
 26 2.975832 -0.386307 -0.044144 -0.000797 -0.043611 0.000035
 27 1.438890 0.000003 0.000001 -0.000000 -0.000000 0.427388
 28 1.485299 -0.000005 -0.000000 0.000000 -0.000000 0.104667
 29 11.585355 0.000000 0.000001 0.000000 0.000000 -1.447224
 30 10.125607 -0.000000 0.000001 1.569752 -0.000000 -0.069778
 31 1.533671 0.109715 1.664491 -0.233255 -0.412980 0.435685
 32 0.928314 -0.000001 0.000000 0.000000 0.000000 0.000000
 33 2.683748 -0.427340 0.044205 -0.005031 0.043335 -0.139594
 34 1.438886 0.000003 0.000000 0.000000 0.000000 0.523315
 35 2.027418 0.730720 12.541074 -1.531161 -0.031283 2.992741
time 7
  0 0.235347 -0.235347 2.294514 0.000000 1.447821 -1.570829
  1 1.070344 -1.250038 0.000000 -0.000018 -1.567071 -1.570790
  2 -0.000005 0.000007 3.713254 -0.935152 -2.936520 -0.324472
  3 18.045725 0.000000 0.000000 -0.000000 -0.000000 0.012598
  4 17.597599 0.000000 0.000000 -0.001295 -0.175896 -0.809347
  5 0.000005 -0.000003 -3.713254 1.287125 2.748539 -0.318550
  6 18.045721 -0.000000 -0.000001 0.000000 0.000000 -0.052064
  7 17.597593 0.000000 -0.000000 -0.101418 0.383465 -0.574276
  8 1.293338 0.684453 0.003905 -0.069810 -0.003069 0.009501
  9 5.309647 -0.003832 -0.000000 -0.000066 -0.095805 -0.069775
 10 4.826592 -0.004567 -0.000000 -0.079302 -0.177684 -0.108475
 11 5.792761 -0.005304 -0.000000 -0.000063 -0.080704 -0.122103
 12 6.661936 -0.000705 0.000000 -0.000000 -0.000001 0.000005
 13 2.044495 -0.000000 -0.000000 -0.151798 0.378432 -0.683982
 14 -3.459684 -0.057854 4.341911 -0.000013 -1.521571 3.140848
 15 -3.190214 -0.054345 -4.140396 -3.141487 1.282366 -0.000762
 16 4.827231 0.000000 0.000001 -0.647781 0.987550 1.085140
 17 11.139763 -0.000000 -0.000000 0.000000 -0.000000 -0.186965
 18 8.575572 -8.394946 9.511936 -1.535143 -1.058019 1.499774
 19 -1.465386 0.506167 4.002137 0.034889 -0.200000 -0.000001
 20 4.972047 0.000000 0.000001 -0.782878 -2.411459 1.284788
 21 -9.249866 0.683183 -1.946118 -0.000014 -1.670796 0.000014
 22 10.313008 -0.000000 0.000000 -0.662921 0.000000 -0.069778
 23 1.646738 0.449549 -1.702246 0.154002 0.442277 0.277235
 24 0.928314 0.000000 0.000000 0.000000 0.000000 0.000000
 25 0.928314 -0.000000 -0.000000 0.000000 0.000000 0.000000
 26 2.975832 -0.386307 -0.044144 -0.000797 -0.043611 0.000035
 27 1.438890 0.000003 0.000001 -0.000000 -0.000000 0.427388
 28 1.485299 -0.000005 -0.000000 0.000000 -0.000000 0.104667
 29 11.585355 0.000000 0.000001 0.000000 0.000000 -1.447224
 30 10.125607 -0.000000 0.000001 1.569752 -0.000000 -0.069778
 31 1.533671 0.109715 1.664491 -0.233255 -0.412980 0.435685
 32 0.928314 -0.000001 0.000000 0.000000 0.000000 0.000000
 33 2.683748 -0.427340 0.044205 -0.005031 0.043335 -0.139594
 34 1.438886 0.000003 0.000000 0.000000 0.000000 0.523315
 35 2.027418 0.730720 12.541074 -1.531161 -0.031283 2.992741
time 8
  0 0.235347 -0.235347 2.317953 0.000000 1.447821 -1.570829
  1 1.093782 -1.089877 0.000000 -0.000018 -1.569181 -1.570838
  2 -0.000005 0.000007 3.713254 -0.819750 -3.050308 -0.257019
  3 18.045725 0.000000 0.000000 -0.000000 -0.000000 0.069146
  4 17.597599 0.000000 0.000000 0.004144 -0.146596 -0.888542
  5 0.000005 -0.000003 -3.713254 1.153002 2.907604 -0.271645
  6 18.045721 -0.000000 -0.000001 0.000000 0.000000 0.027481
  7 17.597593 0.000000 -0.000000 -0.115283 0.304348 -0.657027
  8 1.293338 0.684453 -0.000001 -0.069784 -0.000960 0.009501
  9 5.309647 -0.003832 -0.000000 -0.000050 -0.081268 -0.069795
 10 4.826592 -0.004567 -0.000000 -0.079014 -0.157921 -0.110050
 11 5.792761 -0.005304 -0.000000 -0.000042 -0.062200 -0.122103
 12 6.661936 -0.000705 0.000000 -0.000000 -0.000001 0.000005
 13 2.044495 -0.000000 -0.000000 -0.112158 0.341192 -0.671842
 14 -3.459684 -0.057854 4.341911 -0.000109 -1.544851 3.140848
 15 -3.190214 -0.054345 -4.140396 -3.141487 1.282366 -0.000762
 16 4.827231 0.000000 0.000001 -0.175012 1.007804 1.338835
 17 11.139763 -0.000000 -0.000000 0.000000 -0.000000 -0.660214
 18 8.575572 -8.394946 9.511936 -1.535143 -1.058019 1.499774
 19 -1.465386 0.506167 4.002137 0.034889 -0.200000 -0.000001
 20 4.972047 0.000000 0.000001 -0.815389 -2.358609 1.273323
 21 -9.249866 0.683183 -1.946118 -0.000014 -1.670796 0.000014
 22 10.313008 -0.000000 0.000000 -0.662921 0.000000 -0.069778
 23 1.646738 0.449549 -1.702246 0.154002 0.442277 0.277235
 24 0.928314 0.000000 0.000000 0.000000 0.000000 0.000000
 25 0.928314 -0.000000 -0.000000 0.000000 0.000000 0.000000
 26 2.975832 -0.386307 -0.044144 -0.000797 -0.043611 0.000035
 27 1.438890 0.000003 0.000001 -0.000000 -0.000000 0.427388
 28 1.485299 -0.000005 -0.000000 0.000000 -0.000000 0.104667
 29 11.585355 0.000000 0.000001 0.000000 0.000000 -1.447224
 30 10.125607 -0.000000 0.000001 1.569752 -0.000000 -0.069778
 31 1.533671 0.109715 1.664491 -0.233255 -0.412980 0.435685
 32 0.928314 -0.000001 0.000000 0.000000 0.000000 0.000000
 33 2.683748 -0.427340 0.044205 -0.005031 0.043335 -0.139594
 34 1.438886 0.000003 0.000000 0.000000 0.000000 0.523315
 35 2.027418 0.730720 12.541074 -1.531161 -0.031283 2.992741
time 9
  0 0.235347 -0.235347 2.345297 0.000000 1.447821 -1.570829
  1 1.121127 -0.882839 0.000000 -1.570795 -1.570787 0.000000
  2 -0.000005 0.000007 3.713254 -0.650385 -3.123450 -0.187916
  3 18.045725 0.000000 0.000000 -0.000000 -0.000000 0.028108
  4 17.597599 0.000000 0.000000 -0.015378 -0.112752 -0.863882
  5 0.000005 -0.000003 -3.713254 0.955071 3.017217 -0.207294
  6 18.045721 -0.000000 -0.000001 0.000000 0.000000 0.020164
  7 17.597593 0.000000 -0.000000 -0.100125 0.205148 -0.685091
  8 1.293338 0.684453 -0.000001 -0.069758 0.000658 0.009501
  9 5.309647 -0.003832 -0.000000 -0.000050 -0.062883 -0.069795
 10 4.826592 -0.004567 -0.000000 -0.078715 -0.132921 -0.112065
 11 5.792761 -0.005304 -0.000000 -0.000021 -0.038794 -0.122103
 12 6.661936 -0.000705 0.000000 -0.000000 -0.000001 0.000005
 13 2.044495 -0.000000 -0.000000 -0.063304 0.293573 -0.658635
 14 -3.459684 -0.057854 4.341911 -3.139091 -1.569594 -0.003216
 15 -3.190214 -0.054345 -4.140396 -3.141487 1.282366 -0.000762
 16 4.827231 0.000000 0.000001 0.256658 0.991891 1.517970
 17 11.139763 -0.000000 -0.000000 0.000000 -0.000000 -1.138089
 18 8.575572 -8.394946 9.511936 -1.535143 -1.058019 1.499774
 19 -1.465386 0.506167 4.002137 0.034889 -0.200000 -0.000001
 20 4.972047 0.000000 0.000001 -0.875209 -2.307449 1.288220
 21 -9.249866 0.683183 -1.946118 -0.000014 -1.670796 0.000014
 22 10.313008 -0.000000 0.000000 -0.662921 0.000000 -0.069778
 23 1.646738 0.449549 -1.702246 0.154002 0.442277 0.277235
 24 0.928314 0.000000 0.000000 0.000000 0.000000 0.000000
 25 0.928314 -0.000000 -0.000000 0.000000 0.000000 0.000000
 26 2.975832 -0.386307 -0.044144 -0.000797 -0.043611 0.000035
 27 1.438890 0.000003 0.000001 -0.000000 -0.000000 0.427388
 28 1.485299 -0.000005 -0.000000 0.000000 -0.000000 0.104667
 29 11.585355 0.000000 0.000001 0.000000 0.000000 -1.447224
 30 10.125607 -0.000000 0.000001 1.569752 -0.000000 -0.069778
 31 1.533671 0.109715 1.664491 -0.233255 -0.412980 0.435685
 32 0.928314 -0.000001 0.000000 0.000000 0.000000 0.000000
 33 2.683748 -0.427340 0.044205 -0.005031 0.043335 -0.139594
 34 1.438886 0.000003 0.000000 0.000000 0.000000 0.523315
 35 2.027418 0.730720 12.541074 -1.531161 -0.031283 2.992741
time 10
  0 0.235347 -0.235347 2.368735 0.000000 1.447821 -1.570829
  1 1.144565 -0.707053 0.000000 -1.570795 -1.570787 0.000000
  2 -0.000005 0.000007 3.713254 -0.460987 -3.170901 -0.114296
  3 18.045725 0.000000 0.000000 -0.000000 -0.000000 -0.050630
  4 17.597599 0.000000 0.000000 -0.044507 -0.081882 -0.805870
  5 0.000005 -0.000003 -3.713254 0.731693 3.090323 -0.127680
  6 18.045721 -0.000000 -0.000001 0.000000 0.000000 -0.021057
  7 17.597593 0.000000 -0.000000 -0.071101 0.112081 -0.708940
  8 1.293338 0.684453 -0.000001 -0.069758 0.000658 0.009501
  9 5.309647 -0.003832 -0.000000 -0.000033 -0.047267 -0.069795
 10 4.826592 -0.004567 -0.000000 -0.078487 -0.111696 -0.113750
 11 5.792761 -0.005304 -0.000000 0.000000 -0.018924 -0.122103
 12 6.661936 -0.000705 0.000000 -0.000000 -0.000001 0.000005
 13 2.044495 -0.000000 -0.000000 -0.022803 0.252731 -0.649363
 14 -3.459684 -0.057854 4.341911 -3.141488 -1.541633 -0.000819
 15 -3.190214 -0.054345 -4.140396 -3.141487 1.282366 -0.000762
 16 4.827231 0.000000 0.000001 0.586501 0.980147 1.594193
 17 11.139763 -0.000000 -0.000000 0.000000 -0.000000 -1.580433
 18 8.575572 -8.394946 9.511936 -1.535143 -1.058019 1.499774
 19 -1.465386 0.506167 4.002137 0.034889 -0.200000 -0.000001
 20 4.972047 0.000000 0.000001 -0.932707 -2.266505 1.311073
 21 -9.249866 0.683183 -1.946118 -0.000014 -1.670796 0.000014
 22 10.313008 -0.000000 0.000000 -0.662921 0.000000 -0.069778
 23 1.646738 0.449549 -1.702246 0.154002 0.442277 0.277235
 24 0.928314 0.000000 0.000000 0.000000 0.000000 0.000000
 25 0.928314 -0.000000 -0.000000 0.000000 0.000000 0.000000
 26 2.975832 -0.386307 -0.044144 -0.000797 -0.043611 0.000035
 27 1.438890 0.000003 0.000001 -0.000000 -0.000000 0.427388
 28 1.485299 -0.000005 -0.000000 0.000000 -0.000000 0.104667
 29 11.585355 0.000000 0.000001 0.000000 0.000000 -1.447224
 30 10.125607 -0.000000 0.000001 1.569752 -0.000000 -0.069778
 31 1.533671 0.109715 1.664491 -0.233255 -0.412980 0.435685
 32 0.928314 -0.000001 0.000000 0.000000 0.000000 0.000000
 33 2.683748 -0.427340 0.044205 -0.005031 0.043335 -0.139594
 34 1.438886 0.000003 0.000000 0.000000 0.000000 0.523315
 35 2.027418 0.730720 12.541074 -1.531161 -0.031283 2.992741
time 11
  0 0.235347 -0.235347 2.392174 0.000000 1.447821 -1.570829
  1 1.168003 -0.500015 0.000000 -1.570795 -1.570787 0.000000
  2 -0.000005 0.000007 3.713254 -0.251078 -3.197454 -0.033101
  3 18.045725 0.000000 0.000000 -0.000000 -0.000000 -0.151408
  4 17.597599 0.000000 0.000000 -0.078340 -0.055501 -0.735231
  5 0.000005 -0.000003 -3.713254 0.482293 3.135398 -0.032318
  6 18.045721 -0.000000 -0.000001 0.000000 0.000000 -0.080679
  7 17.597593 0.000000 -0.000000 -0.036950 0.032262 -0.746617
  8 1.293338 0.684453 -0.000001 -0.069758 0.000658 0.009501
  9 5.309647 -0.003832 -0.000000 -0.000017 -0.028787 -0.069795
 10 4.826592 -0.004567 -0.000000 -0.078271 -0.086565 -0.115729
 11 5.792761 -0.005304 -0.000000 0.000000 0.004590 -0.122103
 12 6.661936 -0.000705 0.000000 -0.000000 -0.000001 0.000005
 13 2.044495 -0.000000 -0.000000 0.024129 0.204031 -0.640359
 14 -3.459684 -0.057854 4.341911 -3.141488 -1.513843 -0.000819
 15 -3.190214 -0.054345 -4.140396 -3.141487 1.282366 -0.000762
 16 4.827231 0.000000 0.000001 0.871915 0.998103 1.635935
 17 11.139763 -0.000000 -0.000000 0.000000 -0.000000 -1.973300
 18 8.575572 -8.394946 9.511936 -1.535143 -1.058019 1.499774
 19 -1.465386 0.506167 4.002137 0.034889 -0.200000 -0.000001
 20 4.972047 0.000000 0.000001 -1.020766 -2.235454 1.364734
 21 -9.249866 0.683183 -1.946118 -0.000014 -1.670796 0.000014
 22 10.313008 -0.000000 0.000000 -0.662921 0.000000 -0.069778
 23 1.646738 0.449549 -1.702246 0.154002 0.442277 0.277235
 24 0.928314 0.000000 0.000000 0.000000 0.000000 0.000000
 25 0.928314 -0.000000 -0.000000 0.000000 0.000000 0.000000
 26 2.975832 -0.386307 -0.044144 -0.000797 -0.043611 0.000035
 27 1.438890 0.000003 0.000001 -0.000000 -0.000000 0.427388
 28 1.485299 -0.000005 -0.000000 0.000000 -0.000000 0.104667
 29 11.585355 0.000000 0.000001 0.000000 0.000000 -1.447224
 30 10.125607 -0.000000 0.000001 1.569752 -0.000000 -0.069778
 31 1.533671 0.109715 1.664491 -0.233255 -0.412980 0.435685
 32 0.928314 -0.000001 0.000000 0.000000 0.000000 0.000000
 33 2.683748 -0.427340 0.044205 -0.005031 0.043335 -0.139594
 34 1.438886 0.000003 0.000000 0.000000 0.000000 0.523315
 35 2.027418 0.730720 12.541074 -1.531161 -0.031283 2.992741
time 12
  0 0.235347 -0.235347 2.415612 0.000000 1.447821 -1.570829
  1 1.191442 -0.289071 0.000000 -1.570795 -1.570787 0.000000
  2 -0.000005 0.000007 3.713254 -0.062543 -3.209150 0.045763
  3 18.045725 0.000000 0.000000 -0.000000 -0.000000 -0.234821
  4 17.597599 0.000000 0.000000 -0.104572 -0.039308 -0.686918
  5 0.000005 -0.000003 -3.713254 0.257576 3.158587 0.062753
  6 18.045721 -0.000000 -0.000001 0.000000 0.000000 -0.127551
  7 17.597593 0.000000 -0.000000 -0.011943 -0.019281 -0.801600
  8 1.293338 0.684453 -0.000001 -0.069758 0.000658 0.009501
  9 5.309647 -0.003832 -0.000000 0.000000 -0.010463 -0.069795
 10 4.826592 -0.004567 -0.000000 -0.078104 -0.061673 -0.117670
 11 5.792761 -0.005304 -0.000000 0.000021 0.027900 -0.122103
 12 6.661936 -0.000705 0.000000 -0.000000 -0.000001 0.000005
 13 2.044495 -0.000000 -0.000000 0.069933 0.155466 -0.633622
 14 -3.459684 -0.057854 4.341911 -3.141488 -1.486663 -0.000819
 15 -3.190214 -0.054345 -4.140396 -3.141487 1.282366 -0.000762
 16 4.827231 0.000000 0.000001 1.102385 1.059290 1.652212
 17 11.139763 -0.000000 -0.000000 0.000000 -0.000000 -2.296859
 18 8.575572 -8.394946 9.511936 -1.535143 -1.058019 1.499774
 19 -1.465386 0.506167 4.002137 0.034889 -0.200000 -0.000001
 20 4.972047 0.000000 0.000001 -1.122944 -2.220653 1.436568
 21 -9.249866 0.683183 -1.946118 -0.000014 -1.670796 0.000014
 22 10.313008 -0.000000 0.000000 -0.662921 0.000000 -0.069778
 23 1.646738 0.449549 -1.702246 0.154002 0.442277 0.277235
 24 0.928314 0.000000 0.000000 0.000000 0.000000 0.000000
 25 0.928314 -0.000000 -0.000000 0.000000 0.000000 0.000000
 26 2.975832 -0.386307 -0.044144 -0.000797 -0.043611 0.000035
 27 1.438890 0.000003 0.000001 -0.000000 -0.000000 0.427388
 28 1.485299 -0.000005 -0.000000 0.000000 -0.000000 0.104667
 29 11.585355 0.000000 0.000001 0.000000 0.000000 -1.447224
 30 10.125607 -0.000000 0.000001 1.569752 -0.000000 -0.069778
 31 1.533671 0.109715 1.664491 -0.233255 -0.412980 0.435685
 32 0.928314 -0.000001 0.000000 0.000000 0.000000 0.000000
 33 2.683748 -0.427340 0.044205 -0.005031 0.043335 -0.139594
 34 1.438886 0.000003 0.000000 0.000000 0.000000 0.523315
 35 2.027418 0.730720 12.541074 -1.531161 -0.031283 2.992741
time 13
  0 0.235347 -0.235347 2.439050 0.000000 1.447821 -1.570829
  1 1.214880 -0.109378 0.000000 -1.570795 -1.570787 0.000000
  2 -0.000005 0.000007 3.713254 -0.062543 -3.209150 0.045763
  3 18.045725 0.000000 0.000000 -0.000000 -0.000000 -0.234821
  4 17.597599 0.000000 0.000000 -0.104572 -0.039308 -0.686918
  5 0.000005 -0.000003 -3.713254 0.257576 3.158587 0.062753
  6 18.045721 -0.000000 -0.000001 0.000000 0.000000 -0.127551
  7 17.597593 0.000000 -0.000000 -0.011943 -0.019281 -0.801600
  8 1.293338 0.684453 -0.000001 -0.069758 0.000658 0.009501
  9 5.309647 -0.003832 -0.000000 0.000000 0.005369 -0.069795
 10 4.826592 -0.004567 -0.000000 -0.078008 -0.040124 -0.119355
 11 5.792761 -0.005304 -0.000000 0.000021 0.048070 -0.122103
 12 6.661936 -0.000705 0.000000 -0.000000 -0.000001 0.000005
 13 2.044495 -0.000000 -0.000000 0.109043 0.113273 -0.629486
 14 -3.459684 -0.057854 4.341911 -3.141488 -1.461822 -0.000819
 15 -3.190214 -0.054345 -4.140396 -3.141487 1.282366 -0.000762
 16 4.827231 0.000000 0.000001 1.232692 1.172644 1.633835
 17 11.139763 -0.000000 -0.000000 0.000000 -0.000000 -2.494484
 18 8.575572 -8.394946 9.511936 -1.535143 -1.058019 1.499774
 19 -1.465386 0.506167 4.002137 0.034889 -0.200000 -0.000001
 20 4.972047 0.000000 0.000001 -1.220755 -2.225077 1.510352
 21 -9.249866 0.683183 -1.946118 -0.000014 -1.670796 0.000014
 22 10.313008 -0.000000 0.000000 -0.662921 0.000000 -0.069778
 23 1.646738 0.449549 -1.702246 0.154002 0.442277 0.277235
 24 0.928314 0.000000 0.000000 0.000000 0.000000 0.000000
 25 0.928314 -0.000000 -0.000000 0.000000 0.000000 0.000000
 26 2.975832 -0.386307 -0.044144 -0.000797 -0.043611 0.000035
 27 1.438890 0.000003 0.000001 -0.000000 -0.000000 0.427388
 28 1.485299 -0.000005 -0.000000 0.000000 -0.000000 0.104667
 29 11.585355 0.000000 0.000001 0.000000 0.000000 -1.447224
 30 10.125607 -0.000000 0.000001 1.569752 -0.000000 -0.069778
 31 1.533671 0.109715 1.664491 -0.233255 -0.412980 0.435685
 32 0.928314 -0.000001 0.000000 0.000000 0.000000 0.000000
 33 2.683748 -0.427340 0.044205 -0.005031 0.043335 -0.139594
 34 1.438886 0.000003 0.000000 0.000000 0.000000 0.523315
 35 2.027418 0.730720 12.541074 -1.531161 -0.031283 2.992741
time 14
  0 0.235347 -0.235347 2.450769 0.000000 1.447821 -1.570829
  1 1.226599 0.023438 0.000000 -1.570795 -1.570787 0.000000
  2 -0.000005 0.000007 3.713254 -0.062543 -3.209150 0.045763
  3 18.045725 0.000000 0.000000 -0.000000 -0.000000 -0.234821
  4 17.597599 0.000000 0.000000 -0.104572 -0.039308 -0.686918
  5 0.000005 -0.000003 -3.713254 0.257576 3.158587 0.062753
  6 18.045721 -0.000000 -0.000001 0.000000 0.000000 -0.127551
  7 17.597593 0.000000 -0.000000 -0.011943 -0.019281 -0.801600
  8 1.293338 0.684453 -0.000001 -0.069758 0.000658 0.009501
  9 5.309647 -0.003832 -0.000000 0.000000 0.017378 -0.069795
 10 4.826592 -0.004567 -0.000000 -0.077948 -0.023801 -0.120638
 11 5.792761 -0.005304 -0.000000 0.000042 0.063351 -0.122103
 12 6.661936 -0.000705 0.000000 -0.000000 -0.000001 0.000005
 13 2.044495 -0.000000 -0.000000 0.138541 0.081211 -0.627352
 14 -3.459684 -0.057854 4.341911 -3.141488 -1.438835 -0.000819
 15 -3.190214 -0.054345 -4.140396 -3.141487 1.282366 -0.000762
 16 4.827231 0.000000 0.000001 1.034295 1.376631 1.378477
 17 11.139763 -0.000000 -0.000000 0.000000 -0.000000 -2.496376
 18 8.575572 -8.394946 9.511936 -1.535143 -1.058019 1.499774
 19 -1.465386 0.506167 4.002137 0.034889 -0.200000 -0.000001
 20 4.972047 0.000000 0.000001 1.842435 -0.895549 -1.570093
 21 -9.249866 0.683183 -1.946118 -0.000014 -1.670796 0.000014
 22 10.313008 -0.000000 0.000000 -0.662921 0.000000 -0.069778
 23 1.646738 0.449549 -1.702246 0.154002 0.442277 0.277235
 24 0.928314 0.000000 0.000000 0.000000 0.000000 0.000000
 25 0.928314 -0.000000 -0.000000 0.000000 0.000000 0.000000
 26 2.975832 -0.386307 -0.044144 -0.000797 -0.043611 0.000035
 27 1.438890 0.000003 0.000001 -0.000000 -0.000000 0.427388
 28 1.485299 -0.000005 -0.000000 0.000000 -0.000000 0.104667
 29 11.585355 0.000000 0.000001 0.000000 0.000000 -1.447224
 30 10.125607 -0.000000 0.000001 1.569752 -0.000000 -0.069778
 31 1.533671 0.109715 1.664491 -0.233255 -0.412980 0.435685
 32 0.928314 -0.000001 0.000000 0.000000 0.000000 0.000000
 33 2.683748 -0.427340 0.044205 -0.005031 0.043335 -0.139594
 34 1.438886 0.000003 0.000000 0.000000 0.000000 0.523315
 35 2.027418 0.730720 12.541074 -1.531161 -0.031283 2.992741
time 15
  0 0.235347 -0.235347 2.462488 0.000000 1.447821 -1.570829
  1 1.238318 0.136723 0.000000 -0.000066 -1.569600 -1.570838
  2 -0.000005 0.000007 3.713254 -0.116314 -3.105524 -0.063064
  3 18.045725 0.000000 0.000000 -0.000000 -0.000000 -0.590661
  4 17.597599 0.000000 0.000000 0.000941 -0.189445 -0.679552
  5 0.000005 -0.000003 -3.713254 0.285893 3.068345 -0.035516
  6 18.045721 -0.000000 -0.000001 0.000000 0.000000 -0.426893
  7 17.597593 0.000000 -0.000000 -0.074188 0.118214 -0.811879
  8 1.293338 0.684453 -0.000001 -0.069784 -0.000612 0.009501
  9 5.309647 -0.003832 -0.000000 0.000017 0.027349 -0.069795
 10 4.826592 -0.004567 -0.000000 -0.077924 -0.010247 -0.121700
 11 5.792761 -0.005304 -0.000000 0.000042 0.076042 -0.122103
 12 6.661936 -0.000705 0.000000 -0.000000 -0.000001 0.000005
 13 2.044495 -0.000000 -0.000000 0.162868 0.054599 -0.626151
 14 -3.459684 -0.057854 4.341911 -3.141488 -1.415457 -0.000723
 15 -3.190214 -0.054345 -4.140396 -3.141487 1.282366 -0.000762
 16 4.827231 0.000000 0.000001 -0.995501 1.367440 -0.623429
 17 11.139763 -0.000000 -0.000000 0.000000 -0.000000 -2.322298
 18 8.575572 -8.394946 9.511936 -1.535143 -1.058019 1.499774
 19 -1.465386 0.506167 4.002137 0.034889 -0.200000 -0.000001
 20 4.972047 0.000000 0.000001 1.777228 -0.861925 -1.518849
 21 -9.249866 0.683183 -1.946118 -0.000014 -1.670796 0.000014
 22 10.313008 -0.000000 0.000000 -0.662921 0.000000 -0.069778
 23 1.646738 0.449549 -1.702246 0.154002 0.442277 0.277235
 24 0.928314 0.000000 0.000000 0.000000 0.000000 0.000000
 25 0.928314 -0.000000 -0.000000 0.000000 0.000000 0.000000
 26 2.975832 -0.386307 -0.044144 -0.000797 -0.043611 0.000035
 27 1.438890 0.000003 0.000001 -0.000000 -0.000000 0.427388
 28 1.485299 -0.000005 -0.000000 0.000000 -0.000000 0.104667
 29 11.585355 0.000000 0.000001 0.000000 0.000000 -1.447224
 30 10.125607 -0.000000 0.000001 1.569752 -0.000000 -0.069778
 31 1.533671 0.109715 1.664491 -0.233255 -0.412980 0.435685
 32 0.928314 -0.000001 0.000000 0.000000 0.000000 0.000000
 33 2.683748 -0.427340 0.044205 -0.005031 0.043335 -0.139594
 34 1.438886 0.000003 0.000000 0.000000 0.000000 0.523315
 35 2.027418 0.730720 12.541074 -1.531161 -0.031283 2.992741
time 16
  0 0.235347 -0.235347 2.474207 0.000000 1.447821 -1.570829
  1 1.250037 0.250008 0.000000 -0.000018 -1.567910 -1.570790
  2 -0.000005 0.000007 3.713254 -0.165293 -2.977740 -0.184856
  3 18.045725 0.000000 0.000000 -0.000000 -0.000000 -1.019598
  4 17.597599 0.000000 0.000000 0.160216 -0.281559 -0.712630
  5 0.000005 -0.000003 -3.713254 0.307704 2.959477 -0.149098
  6 18.045721 -0.000000 -0.000001 0.000000 0.000000 -0.787740
  7 17.597593 0.000000 -0.000000 -0.180251 0.233003 -0.850850
  8 1.293338 0.684453 0.003905 -0.069784 -0.002230 0.009501
  9 5.309647 -0.003832 -0.000000 0.000017 0.037200 -0.069795
 10 4.826592 -0.004567 -0.000000 -0.077912 0.003140 -0.122763
 11 5.792761 -0.005304 -0.000000 0.000063 0.088578 -0.122103
 12 6.661936 -0.000705 0.000000 -0.000000 -0.000001 0.000005
 13 2.044495 -0.000000 -0.000000 0.186930 0.028279 -0.625617
 14 -3.459684 -0.057854 4.341911 -3.141488 -1.392859 -0.000723
 15 -3.190214 -0.054345 -4.140396 -3.141487 1.282366 -0.000762
 16 4.827231 0.000000 0.000001 -1.356628 0.981764 -0.880274
 17 11.139763 -0.000000 -0.000000 0.000000 -0.000000 -2.023688
 18 8.575572 -8.394946 9.511936 -1.535143 -1.058019 1.499774
 19 -1.465386 0.506167 4.002137 0.034889 -0.200000 -0.000001
 20 4.972047 0.000000 0.000001 1.716664 -0.818004 -1.472754
 21 -9.249866 0.683183 -1.946118 -0.000014 -1.670796 0.000014
 22 10.313008 -0.000000 0.000000 -0.662921 0.000000 -0.069778
 23 1.646738 0.449549 -1.702246 0.154002 0.442277 0.277235
 24 0.928314 0.000000 0.000000 0.000000 0.000000 0.000000
 25 0.928314 -0.000000 -0.000000 0.000000 0.000000 0.000000
 26 2.975832 -0.386307 -0.044144 -0.000797 -0.043611 0.000035
 27 1.438890 0.000003 0.000001 -0.000000 -0.000000 0.427388
 28 1.485299 -0.000005 -0.000000 0.000000 -0.000000 0.104667
 29 11.585355 0.000000 0.000001 0.000000 0.000000 -1.447224
 30 10.125607 -0.000000 0.000001 1.569752 -0.000000 -0.069778
 31 1.533671 0.109715 1.664491 -0.233255 -0.412980 0.435685
 32 0.928314 -0.000001 0.000000 0.000000 0.000000 0.000000
 33 2.683748 -0.427340 0.044205 -0.005031 0.043335 -0.139594
 34 1.438886 0.000003 0.000000 0.000000 0.000000 0.523315
 35 2.027418 0.730720 12.541074 -1.531161 -0.031283 2.992741
time 17
  0 0.235347 -0.235347 2.485926 0.000000 1.447821 -1.570829
  1 1.261756 0.359386 0.000000 -0.000018 -1.566149 -1.570790
  2 -0.000005 0.000007 3.713254 -0.197786 -2.854271 -0.295529
  3 18.045725 0.000000 0.000000 -0.000000 -0.000000 -1.406384
  4 17.597599 0.000000 0.000000 0.286242 -0.288939 -0.759067
  5 0.000005 -0.000003 -3.713254 0.316697 2.856103 -0.255557
  6 18.045721 -0.000000 -0.000001 0.000000 0.000000 -1.113161
  7 17.597593 0.000000 -0.000000 -0.281754 0.294845 -0.904649
  8 1.293338 0.684453 0.003905 -0.069810 -0.003992 0.009501
  9 5.309647 -0.003832 -0.000000 0.000033 0.046596 -0.069795
 10 4.826592 -0.004567 -0.000000 -0.077912 0.015916 -0.123752
 11 5.792761 -0.005304 -0.000000 0.000063 0.100539 -0.122103
 12 6.661936 -0.000705 0.000000 -0.000000 -0.000001 0.000005
 13 2.044495 -0.000000 -0.000000 0.209866 0.003130 -0.625617
 14 -3.459684 -0.057854 4.341911 -3.141488 -1.372187 -0.000723
 15 -3.190214 -0.054345 -4.140396 -3.141487 1.282366 -0.000762
 16 4.827231 0.000000 0.000001 -1.460033 0.582471 -0.826105
 17 11.139763 -0.000000 -0.000000 0.000000 -0.000000 -1.673148
 18 8.575572 -8.394946 9.511936 -1.535143 -1.058019 1.499774
 19 -1.465386 0.506167 4.002137 0.034889 -0.200000 -0.000001
 20 4.972047 0.000000 0.000001 1.663532 -0.766522 -1.434692
 21 -9.249866 0.683183 -1.946118 -0.000014 -1.670796 0.000014
 22 10.313008 -0.000000 0.000000 -0.662921 0.000000 -0.069778
 23 1.646738 0.449549 -1.702246 0.154002 0.442277 0.277235
 24 0.928314 0.000000 0.000000 0.000000 0.000000 0.000000
 25 0.928314 -0.000000 -0.000000 0.000000 0.000000 0.000000
 26 2.975832 -0.386307 -0.044144 -0.000797 -0.043611 0.000035
 27 1.438890 0.000003 0.000001 -0.000000 -0.000000 0.427388
 28 1.485299 -0.000005 -0.000000 0.000000 -0.000000 0.104667
 29 11.585355 0.000000 0.000001 0.000000 0.000000 -1.447224
 30 10.125607 -0.000000 0.000001 1.569752 -0.000000 -0.069778
 31 1.533671 0.109715 1.664491 -0.233255 -0.412980 0.435685
 32 0.928314 -0.000001 0.000000 0.000000 0.000000 0.000000
 33 2.683748 -0.427340 0.044205 -0.005031 0.043335 -0.139594
 34 1.438886 0.000003 0.000000 0.000000 0.000000 0.523315
 35 2.027418 0.730720 12.541074 -1.531161 -0.031283 2.992741
time 18
  0 0.235347 -0.235347 2.493739 0.000000 1.447821 -1.570829
  1 1.273475 0.457045 0.000000 -0.000018 -1.564375 -1.570790
  2 -0.000005 0.000007 3.713254 -0.215518 -2.742593 -0.394061
  3 18.045725 0.000000 0.000000 -0.000000 -0.000000 -1.725787
  4 17.597599 0.000000 0.000000 0.346510 -0.261566 -0.794158
  5 0.000005 -0.000003 -3.713254 0.314688 2.763906 -0.352421
  6 18.045721 -0.000000 -0.000001 0.000000 0.000000 -1.382003
  7 17.597593 0.000000 -0.000000 -0.353802 0.326094 -0.956266
  8 1.293338 0.684453 0.007812 -0.069836 -0.005766 0.009501
  9 5.309647 -0.003832 -0.000000 0.000033 0.055405 -0.069795
 10 4.826592 -0.004567 -0.000000 -0.077912 0.027888 -0.124668
 11 5.792761 -0.005304 -0.000000 0.000084 0.111744 -0.122103
 12 6.661936 -0.000705 0.000000 -0.000000 -0.000001 0.000005
 13 2.044495 -0.000000 -0.000000 0.231343 -0.020354 -0.626084
 14 -3.459684 -0.057854 4.341911 -3.141488 -1.354392 -0.000723
 15 -3.190214 -0.054345 -4.140396 -3.141487 1.282366 -0.000762
 16 4.827231 0.000000 0.000001 -1.524179 0.241387 -0.720129
 17 11.139763 -0.000000 -0.000000 0.000000 -0.000000 -1.348679
 18 8.575572 -8.394946 9.511936 -1.535143 -1.058019 1.499774
 19 -1.465386 0.506167 4.002137 0.034889 -0.200000 -0.000001
 20 4.972047 0.000000 0.000001 1.618202 -0.709811 -1.405053
 21 -9.249866 0.683183 -1.946118 -0.000014 -1.670796 0.000014
 22 10.313008 -0.000000 0.000000 -0.662921 0.000000 -0.069778
 23 1.646738 0.449549 -1.702246 0.154002 0.442277 0.277235
 24 0.928314 0.000000 0.000000 0.000000 0.000000 0.000000
 25 0.928314 -0.000000 -0.000000 0.000000 0.000000 0.000000
 26 2.975832 -0.386307 -0.044144 -0.000797 -0.043611 0.000035
 27 1.438890 0.000003 0.000001 -0.000000 -0.000000 0.427388
 28 1.485299 -0.000005 -0.000000 0.000000 -0.000000 0.104667
 29 11.585355 0.000000 0.000001 0.000000 0.000000 -1.447224
 30 10.125607 -0.000000 0.000001 1.569752 -0.000000 -0.069778
 31 1.533671 0.109715 1.664491 -0.233255 -0.412980 0.435685
 32 0.928314 -0.000001 0.000000 0.000000 0.000000 0.000000
 33 2.683748 -0.427340 0.044205 -0.005031 0.043335 -0.139594
 34 1.438886 0.000003 0.000000 0.000000 0.000000 0.523315
 35 2.027418 0.730720 12.541074 -1.531161 -0.031283 2.992741
time 19
  0 0.235347 -0.235347 2.505458 0.000000 1.447821 -1.570829
  1 1.281288 0.550798 0.000000 -0.000018 -1.562637 -1.570790
  2 -0.000005 0.000007 3.713254 -0.221844 -2.643280 -0.483268
  3 18.045725 0.000000 0.000000 -0.000000 -0.000000 -1.969718
  4 17.597599 0.000000 0.000000 0.350679 -0.241216 -0.816439
  5 0.000005 -0.000003 -3.713254 0.304452 2.683162 -0.441436
  6 18.045721 -0.000000 -0.000001 0.000000 0.000000 -1.587529
  7 17.597593 0.000000 -0.000000 -0.391062 0.353316 -0.997863
  8 1.293338 0.684453 0.007812 -0.069836 -0.007515 0.009501
  9 5.309647 -0.003832 -0.000000 0.000050 0.063554 -0.069795
 10 4.826592 -0.004567 -0.000000 -0.077936 0.038962 -0.125547
 11 5.792761 -0.005304 -0.000000 0.000084 0.122123 -0.122103
 12 6.661936 -0.000705 0.000000 -0.000000 -0.000001 0.000005
 13 2.044495 -0.000000 -0.000000 0.251229 -0.042103 -0.626885
 14 -3.459684 -0.057854 4.341911 -3.141488 -1.340058 -0.000723
 15 -3.190214 -0.054345 -4.140396 -3.141487 1.282366 -0.000762
 16 4.827231 0.000000 0.000001 -1.549942 -0.001064 -0.629292
 17 11.139763 -0.000000 -0.000000 0.000000 -0.000000 -1.116574
 18 8.575572 -8.394946 9.511936 -1.535143 -1.058019 1.499774
 19 -1.465386 0.506167 4.002137 0.034889 -0.200000 -0.000001
 20 4.972047 0.000000 0.000001 1.580211 -0.650284 -1.383137
 21 -9.249866 0.683183 -1.946118 -0.000014 -1.670796 0.000014
 22 10.313008 -0.000000 0.000000 -0.662921 0.000000 -0.069778
 23 1.646738 0.449549 -1.702246 0.154002 0.442277 0.277235
 24 0.928314 0.000000 0.000000 0.000000 0.000000 0.000000
 25 0.928314 -0.000000 -0.000000 0.000000 0.000000 0.000000
 26 2.975832 -0.386307 -0.044144 -0.000797 -0.043611 0.000035
 27 1.438890 0.000003 0.000001 -0.000000 -0.000000 0.427388
 28 1.485299 -0.000005 -0.000000 0.000000 -0.000000 0.104667
 29 11.585355 0.000000 0.000001 0.000000 0.000000 -1.447224
 30 10.125607 -0.000000 0.000001 1.569752 -0.000000 -0.069778
 31 1.533671 0.109715 1.664491 -0.233255 -0.412980 0.435685
 32 0.928314 -0.000001 0.000000 0.000000 0.000000 0.000000
 33 2.683748 -0.427340 0.044205 -0.005031 0.043335 -0.139594
 34 1.438886 0.000003 0.000000 0.000000 0.000000 0.523315
 35 2.027418 0.730720 12.541074 -1.531161 -0.031283 2.992741
time 20
  0 0.235347 -0.235347 2.513271 0.000000 1.447821 -1.570829
  1 1.289101 0.632832 0.000000 -0.000018 -1.560971 -1.570790
  2 -0.000005 0.000007 3.713254 -0.219640 -2.561894 -0.559705
  3 18.045725 0.000000 0.000000 -0.000000 -0.000000 -2.099438
  4 17.597599 0.000000 0.000000 0.316261 -0.250964 -0.827877
  5 0.000005 -0.000003 -3.713254 0.289241 2.617599 -0.518142
  6 18.045721 -0.000000 -0.000001 0.000000 0.000000 -1.697283
  7 17.597593 0.000000 -0.000000 -0.388544 0.398095 -1.022193
  8 1.293338 0.684453 0.011718 -0.069862 -0.009169 0.009501
  9 5.309647 -0.003832 -0.000000 0.000050 0.071081 -0.069795
 10 4.826592 -0.004567 -0.000000 -0.077960 0.049197 -0.126353
 11 5.792761 -0.005304 -0.000000 0.000105 0.131699 -0.122103
 12 6.661936 -0.000705 0.000000 -0.000000 -0.000001 0.000005
 13 2.044495 -0.000000 -0.000000 0.269657 -0.062164 -0.628019
 14 -3.459684 -0.057854 4.341911 -3.141488 -1.329162 -0.000723
 15 -3.190214 -0.054345 -4.140396 -3.141487 1.282366 -0.000762
 16 4.827231 0.000000 0.000001 -1.520498 -0.168628 -0.566809
 17 11.139763 -0.000000 -0.000000 0.000000 -0.000000 -0.953498
 18 8.575572 -8.394946 9.511936 -1.535143 -1.058019 1.499774
 19 -1.465386 0.506167 4.002137 0.034889 -0.200000 -0.000001
 20 4.972047 0.000000 0.000001 1.548071 -0.589873 -1.367693
 21 -9.249866 0.683183 -1.946118 -0.000014 -1.670796 0.000014
 22 10.313008 -0.000000 0.000000 -0.662921 0.000000 -0.069778
 23 1.646738 0.449549 -1.702246 0.154002 0.442277 0.277235
 24 0.928314 0.000000 0.000000 0.000000 0.000000 0.000000
 25 0.928314 -0.000000 -0.000000 0.000000 0.000000 0.000000
 26 2.975832 -0.386307 -0.044144 -0.000797 -0.043611 0.000035
 27 1.438890 0.000003 0.000001 -0.000000 -0.000000 0.427388
 28 1.485299 -0.000005 -0.000000 0.000000 -0.000000 0.104667
 29 11.585355 0.000000 0.000001 0.000000 0.000000 -1.447224
 30 10.125607 -0.000000 0.000001 1.569752 -0.000000 -0.069778
 31 1.533671 0.109715 1.664491 -0.233255 -0.412980 0.435685
 32 0.928314 -0.000001 0.000000 0.000000 0.000000 0.000000
 33 2.683748 -0.427340 0.044205 -0.005031 0.043335 -0.139594
 34 1.438886 0.000003 0.000000 0.000000 0.000000 0.523315
 35 2.027418 0.730720 12.541074 -1.531161 -0.031283 2.992741
time 21
  0 0.235347 -0.235347 2.517177 0.000000 1.447821 -1.570829
  1 1.293007 0.710959 0.000000 -0.000018 -1.559389 -1.570790
  2 -0.000005 0.000007 3.713254 -0.214080 -2.507349 -0.613754
  3 18.045725 0.000000 0.000000 -0.000000 -0.000000 -2.043780
  4 17.597599 0.000000 0.000000 0.249232 -0.305296 -0.827053
  5 0.000005 -0.000003 -3.713254 0.274987 2.573642 -0.572656
  6 18.045721 -0.000000 -0.000001 0.000000 0.000000 -1.651715
  7 17.597593 0.000000 -0.000000 -0.325187 0.481706 -1.013874
  8 1.293338 0.684453 0.011718 -0.069862 -0.010751 0.009501
  9 5.309647 -0.003832 -0.000000 0.000050 0.078020 -0.069795
 10 4.826592 -0.004567 -0.000000 -0.077996 0.058629 -0.127085
 11 5.792761 -0.005304 -0.000000 0.000105 0.140531 -0.122103
 12 6.661936 -0.000705 0.000000 -0.000000 -0.000001 0.000005
 13 2.044495 -0.000000 -0.000000 0.286693 -0.080649 -0.629286
 14 -3.459684 -0.057854 4.341911 -3.141488 -1.320874 -0.000723
 15 -3.190214 -0.054345 -4.140396 -3.141487 1.282366 -0.000762
 16 4.827231 0.000000 0.000001 -1.445135 -0.304363 -0.518940
 17 11.139763 -0.000000 -0.000000 0.000000 -0.000000 -0.804368
 18 8.575572 -8.394946 9.511936 -1.535143 -1.058019 1.499774
 19 -1.465386 0.506167 4.002137 0.034889 -0.200000 -0.000001
 20 4.972047 0.000000 0.000001 1.520669 -0.530588 -1.357554
 21 -9.249866 0.683183 -1.946118 -0.000014 -1.670796 0.000014
 22 10.313008 -0.000000 0.000000 -0.662921 0.000000 -0.069778
 23 1.646738 0.449549 -1.702246 0.154002 0.442277 0.277235
 24 0.928314 0.000000 0.000000 0.000000 0.000000 0.000000
 25 0.928314 -0.000000 -0.000000 0.000000 0.000000 0.000000
 26 2.975832 -0.386307 -0.044144 -0.000797 -0.043611 0.000035
 27 1.438890 0.000003 0.000001 -0.000000 -0.000000 0.427388
 28 1.485299 -0.000005 -0.000000 0.000000 -0.000000 0.104667
 29 11.585355 0.000000 0.000001 0.000000 0.000000 -1.447224
 30 10.125607 -0.000000 0.000001 1.569752 -0.000000 -0.069778
 31 1.533671 0.109715 1.664491 -0.233255 -0.412980 0.435685
 32 0.928314 -0.000001 0.000000 0.000000 0.000000 0.000000
 33 2.683748 -0.427340 0.044205 -0.005031 0.043335 -0.139594
 34 1.438886 0.000003 0.000000 0.000000 0.000000 0.523315
 35 2.027418 0.730720 12.541074 -1.531161 -0.031283 2.992741
time 22
  0 0.235347 -0.235347 2.524990 0.000000 1.447821 -1.570829
  1 1.300820 0.785180 0.000000 -0.000018 -1.557915 -1.570790
  2 -0.000005 0.000007 3.713254 -0.209000 -2.473701 -0.648718
  3 18.045725 0.000000 0.000000 -0.000000 -0.000000 -1.834951
  4 17.597599 0.000000 0.000000 0.145956 -0.376592 -0.805916
  5 0.000005 -0.000003 -3.713254 0.263890 2.546076 -0.608223
  6 18.045721 -0.000000 -0.000001 0.000000 0.000000 -1.477703
  7 17.597593 0.000000 -0.000000 -0.186015 0.577722 -0.955342
  8 1.293338 0.684453 0.015624 -0.069889 -0.012213 0.009501
  9 5.309647 -0.003832 -0.000000 0.000066 0.084431 -0.069795
 10 4.826592 -0.004567 -0.000000 -0.078032 0.067341 -0.127782
 11 5.792761 -0.005304 -0.000000 0.000105 0.148693 -0.122082
 12 6.661936 -0.000705 0.000000 -0.000000 -0.000001 0.000005
 13 2.044495 -0.000000 -0.000000 0.302469 -0.097692 -0.630753
 14 -3.459684 -0.057854 4.341911 -3.141488 -1.314560 -0.000723
 15 -3.190214 -0.054345 -4.140396 -3.141487 1.282366 -0.000762
 16 4.827231 0.000000 0.000001 -1.337612 -0.414399 -0.492425
 17 11.139763 -0.000000 -0.000000 0.000000 -0.000000 -0.669465
 18 8.575572 -8.394946 9.511936 -1.535143 -1.058019 1.499774
 19 -1.465386 0.506167 4.002137 0.034889 -0.200000 -0.000001
 20 4.972047 0.000000 0.000001 1.496982 -0.473877 -1.351470
 21 -9.249866 0.683183 -1.946118 -0.000014 -1.670796 0.000014
 22 10.313008 -0.000000 0.000000 -0.662921 0.000000 -0.069778
 23 1.646738 0.449549 -1.702246 0.154002 0.442277 0.277235
 24 0.928314 0.000000 0.000000 0.000000 0.000000 0.000000
 25 0.928314 -0.000000 -0.000000 0.000000 0.000000 0.000000
 26 2.975832 -0.386307 -0.044144 -0.000797 -0.043611 0.000035
 27 1.438890 0.000003 0.000001 -0.000000 -0.000000 0.427388
 28 1.485299 -0.000005 -0.000000 0.000000 -0.000000 0.104667
 29 11.585355 0.000000 0.000001 0.000000 0.000000 -1.447224
 30 10.125607 -0.000000 0.000001 1.569752 -0.000000 -0.069778
 31 1.533671 0.109715 1.664491 -0.233255 -0.412980 0.435685
 32 0.928314 -0.000001 0.000000 0.000000 0.000000 0.000000
 33 2.683748 -0.427340 0.044205 -0.005031 0.043335 -0.139594
 34 1.438886 0.000003 0.000000 0.000000 0.000000 0.523315
 35 2.027418 0.730720 12.541074 -1.531161 -0.031283 2.992741
time 23
  0 0.235347 -0.235347 2.528896 0.000000 1.447821 -1.570829
  1 1.308633 0.851588 0.000000 -0.000018 -1.556549 -1.570790
  2 -0.000005 0.000007 3.713254 -0.205837 -2.455104 -0.668726
  3 18.045725 0.000000 0.000000 -0.000000 -0.000000 -1.536624
  4 17.597599 0.000000 0.000000 0.011185 -0.421065 -0.762178
  5 0.000005 -0.000003 -3.713254 0.256619 2.530151 -0.629059
  6 18.045721 -0.000000 -0.000001 0.000000 0.000000 -1.228566
  7 17.597593 0.000000 -0.000000 0.021029 0.629008 -0.843418
  8 1.293338 0.684453 0.015624 -0.069889 -0.013580 0.009501
  9 5.309647 -0.003832 -0.000000 0.000066 0.090340 -0.069775
 10 4.826592 -0.004567 -0.000000 -0.078068 0.075383 -0.128404
 11 5.792761 -0.005304 -0.000000 0.000126 0.156207 -0.122082
 12 6.661936 -0.000705 0.000000 -0.000000 -0.000001 0.000005
 13 2.044495 -0.000000 -0.000000 0.317119 -0.113385 -0.632354
 14 -3.459684 -0.057854 4.341911 -3.141488 -1.309709 -0.000723
 15 -3.190214 -0.054345 -4.140396 -3.141487 1.282366 -0.000762
 16 4.827231 0.000000 0.000001 -1.210723 -0.502393 -0.487699
 17 11.139763 -0.000000 -0.000000 0.000000 -0.000000 -0.549278
 18 8.575572 -8.394946 9.511936 -1.535143 -1.058019 1.499774
 19 -1.465386 0.506167 4.002137 0.034889 -0.200000 -0.000001
 20 4.972047 0.000000 0.000001 1.476082 -0.421591 -1.348351
 21 -9.249866 0.683183 -1.946118 -0.000014 -1.670796 0.000014
 22 10.313008 -0.000000 0.000000 -0.662921 0.000000 -0.069778
 23 1.646738 0.449549 -1.702246 0.154002 0.442277 0.277235
 24 0.928314 0.000000 0.000000 0.000000 0.000000 0.000000
 25 0.928314 -0.000000 -0.000000 0.000000 0.000000 0.000000
 26 2.975832 -0.386307 -0.044144 -0.000797 -0.043611 0.000035
 27 1.438890 0.000003 0.000001 -0.000000 -0.000000 0.427388
 28 1.485299 -0.000005 -0.000000 0.000000 -0.000000 0.104667
 29 11.585355 0.000000 0.000001 0.000000 0.000000 -1.447224
 30 10.125607 -0.000000 0.000001 1.569752 -0.000000 -0.069778
 31 1.533671 0.109715 1.664491 -0.233255 -0.412980 0.435685
 32 0.928314 -0.000001 0.000000 0.000000 0.000000 0.000000
 33 2.683748 -0.427340 0.044205 -0.005031 0.043335 -0.139594
 34 1.438886 0.000003 0.000000 0.000000 0.000000 0.523315
 35 2.027418 0.730720 12.541074 -1.531161 -0.031283 2.992741
time 24
  0 0.235347 -0.235347 2.536709 0.000000 1.447821 -1.570829
  1 1.312539 0.910184 0.000000 -0.000018 -1.555303 -1.570790
  2 -0.000005 0.000007 3.713254 -0.204495 -2.445902 -0.679021
  3 18.045725 0.000000 0.000000 -0.000000 -0.000000 -1.212398
  4 17.597599 0.000000 0.000000 -0.127449 -0.416191 -0.711029
  5 0.000005 -0.000003 -3.713254 0.252314 2.521490 -0.640301
  6 18.045721 -0.000000 -0.000001 0.000000 0.000000 -0.957695
  7 17.597593 0.000000 -0.000000 0.237082 0.603821 -0.720661
  8 1.293338 0.684453 0.019531 -0.069915 -0.014826 0.009501
  9 5.309647 -0.003832 -0.000000 0.000066 0.095745 -0.069775
 10 4.826592 -0.004567 -0.000000 -0.078116 0.082730 -0.128954
 11 5.792761 -0.005304 -0.000000 0.000126 0.163086 -0.122082
 12 6.661936 -0.000705 0.000000 -0.000000 -0.000001 0.000005
 13 2.044495 -0.000000 -0.000000 0.330509 -0.127705 -0.633955
 14 -3.459684 -0.057854 4.341911 -3.141488 -1.305882 -0.000723
 15 -3.190214 -0.054345 -4.140396 -3.141487 1.282366 -0.000762
 16 4.827231 0.000000 0.000001 -1.079101 -0.571069 -0.500038
 17 11.139763 -0.000000 -0.000000 0.000000 -0.000000 -0.444579
 18 8.575572 -8.394946 9.511936 -1.535143 -1.058019 1.499774
 19 -1.465386 0.506167 4.002137 0.034889 -0.200000 -0.000001
 20 4.972047 0.000000 0.000001 1.457505 -0.375337 -1.347337
 21 -9.249866 0.683183 -1.946118 -0.000014 -1.670796 0.000014
 22 10.313008 -0.000000 0.000000 -0.662921 0.000000 -0.069778
 23 1.646738 0.449549 -1.702246 0.154002 0.442277 0.277235
 24 0.928314 0.000000 0.000000 0.000000 0.000000 0.000000
 25 0.928314 -0.000000 -0.000000 0.000000 0.000000 0.000000
 26 2.975832 -0.386307 -0.044144 -0.000797 -0.043611 0.000035
 27 1.438890 0.000003 0.000001 -0.000000 -0.000000 0.427388
 28 1.485299 -0.000005 -0.000000 0.000000 -0.000000 0.104667
 29 11.585355 0.000000 0.000001 0.000000 0.000000 -1.447224
 30 10.125607 -0.000000 0.000001 1.569752 -0.000000 -0.069778
 31 1.533671 0.109715 1.664491 -0.233255 -0.412980 0.435685
 32 0.928314 -0.000001 0.000000 0.000000 0.000000 0.000000
 33 2.683748 -0.427340 0.044205 -0.005031 0.043335 -0.139594
 34 1.438886 0.000003 0.000000 0.000000 0.000000 0.523315
 35 2.027418 0.730720 12.541074 -1.531161 -0.031283 2.992741
time 25
  0 0.235347 -0.235347 2.540616 0.000000 1.447821 -1.570829
  1 1.316445 0.964873 0.000000 -0.000018 -1.554224 -1.570790
  2 -0.000005 0.000007 3.713254 -0.203729 -2.440246 -0.685431
  3 18.045725 0.000000 0.000000 -0.000000 -0.000000 -0.925870
  4 17.597599 0.000000 0.000000 -0.234081 -0.373755 -0.673467
  5 0.000005 -0.000003 -3.713254 0.249157 2.515809 -0.647666
  6 18.045721 -0.000000 -0.000001 0.000000 0.000000 -0.718265
  7 17.597593 0.000000 -0.000000 0.394385 0.526741 -0.637467
  8 1.293338 0.684453 0.019531 -0.069915 -0.015905 0.009501
  9 5.309647 -0.003832 -0.000000 0.000066 0.100575 -0.069775
 10 4.826592 -0.004567 -0.000000 -0.078152 0.089297 -0.129503
 11 5.792761 -0.005304 -0.000000 0.000126 0.169234 -0.122082
 12 6.661936 -0.000705 0.000000 -0.000000 -0.000001 0.000005
 13 2.044495 -0.000000 -0.000000 0.342507 -0.140471 -0.635556
 14 -3.459684 -0.057854 4.341911 -3.141488 -1.302713 -0.000723
 15 -3.190214 -0.054345 -4.140396 -3.141487 1.282366 -0.000762
 16 4.827231 0.000000 0.000001 -0.960711 -0.624682 -0.521303
 17 11.139763 -0.000000 -0.000000 0.000000 -0.000000 -0.356558
 18 8.575572 -8.394946 9.511936 -1.535143 -1.058019 1.499774
 19 -1.465386 0.506167 4.002137 0.034889 -0.200000 -0.000001
 20 4.972047 0.000000 0.000001 1.441063 -0.336886 -1.347414
 21 -9.249866 0.683183 -1.946118 -0.000014 -1.670796 0.000014
 22 10.313008 -0.000000 0.000000 -0.662921 0.000000 -0.069778
 23 1.646738 0.449549 -1.702246 0.154002 0.442277 0.277235
 24 0.928314 0.000000 0.000000 0.000000 0.000000 0.000000
 25 0.928314 -0.000000 -0.000000 0.000000 0.000000 0.000000
 26 2.975832 -0.386307 -0.044144 -0.000797 -0.043611 0.000035
 27 1.438890 0.000003 0.000001 -0.000000 -0.000000 0.427388
 28 1.485299 -0.000005 -0.000000 0.000000 -0.000000 0.104667
 29 11.585355 0.000000 0.000001 0.000000 0.000000 -1.447224
 30 10.125607 -0.000000 0.000001 1.569752 -0.000000 -0.069778
 31 1.533671 0.109715 1.664491 -0.233255 -0.412980 0.435685
 32 0.928314 -0.000001 0.000000 0.000000 0.000000 0.000000
 33 2.683748 -0.427340 0.044205 -0.005031 0.043335 -0.139594
 34 1.438886 0.000003 0.000000 0.000000 0.000000 0.523315
 35 2.027418 0.730720 12.541074 -1.531161 -0.031283 2.992741
time 26
  0 0.235347 -0.235347 2.544522 0.000000 1.447821 -1.570829
  1 1.320352 1.007843 0.000000 -0.000018 -1.553361 -1.570790
  2 -0.000005 0.000007 3.713254 -0.202291 -2.432481 -0.694075
  3 18.045725 0.000000 0.000000 -0.000000 -0.000000 -0.740715
  4 17.597599 0.000000 0.000000 -0.294832 -0.331209 -0.654709
  5 0.000005 -0.000003 -3.713254 0.245522 2.508825 -0.656970
  6 18.045721 -0.000000 -0.000001 0.000000 0.000000 -0.563596
  7 17.597593 0.000000 -0.000000 0.479299 0.457151 -0.598014
  8 1.293338 0.684453 0.019531 -0.069941 -0.016779 0.009501
  9 5.309647 -0.003832 -0.000000 0.000083 0.104661 -0.069775
 10 4.826592 -0.004567 -0.000000 -0.078187 0.094858 -0.129906
 11 5.792761 -0.005304 -0.000000 0.000126 0.174436 -0.122082
 12 6.661936 -0.000705 0.000000 -0.000000 -0.000001 0.000005
 13 2.044495 -0.000000 -0.000000 0.352715 -0.151278 -0.637023
 14 -3.459684 -0.057854 4.341911 -3.141488 -1.299812 -0.000723
 15 -3.190214 -0.054345 -4.140396 -3.141487 1.282366 -0.000762
 16 4.827231 0.000000 0.000001 -0.877287 -0.670041 -0.540818
 17 11.139763 -0.000000 -0.000000 0.000000 -0.000000 -0.287179
 18 8.575572 -8.394946 9.511936 -1.535143 -1.058019 1.499774
 19 -1.465386 0.506167 4.002137 0.034889 -0.200000 -0.000001
 20 4.972047 0.000000 0.000001 1.427223 -0.308249 -1.347960
 21 -9.249866 0.683183 -1.946118 -0.000014 -1.670796 0.000014
 22 10.313008 -0.000000 0.000000 -0.662921 0.000000 -0.069778
 23 1.646738 0.449549 -1.702246 0.154002 0.442277 0.277235
 24 0.928314 0.000000 0.000000 0.000000 0.000000 0.000000
 25 0.928314 -0.000000 -0.000000 0.000000 0.000000 0.000000
 26 2.975832 -0.386307 -0.044144 -0.000797 -0.043611 0.000035
 27 1.438890 0.000003 0.000001 -0.000000 -0.000000 0.427388
 28 1.485299 -0.000005 -0.000000 0.000000 -0.000000 0.104667
 29 11.585355 0.000000 0.000001 0.000000 0.000000 -1.447224
 30 10.125607 -0.000000 0.000001 1.569752 -0.000000 -0.069778
 31 1.533671 0.109715 1.664491 -0.233255 -0.412980 0.435685
 32 0.928314 -0.000001 0.000000 0.000000 0.000000 0.000000
 33 2.683748 -0.427340 0.044205 -0.005031 0.043335 -0.139594
 34 1.438886 0.000003 0.000000 0.000000 0.000000 0.523315
 35 2.027418 0.730720 12.541074 -1.531161 -0.031283 2.992741
end
