version 1
nodes
  0 "Bip01"  -1
  1 "Bip01 Pelvis"   0
  2 "Bip01 L Leg"   1
  3 "Bip01 L Leg1"   2
  4 "Bip01 L Foot"   3
  5 "Bip01 R Leg"   1
  6 "Bip01 R Leg1"   5
  7 "Bip01 R Foot"   6
  8 "Bip01 Spine"   1
  9 "Bip01 Spine1"   8
 10 "Bip01 Spine2"   9
 11 "Bip01 Spine3"  10
 12 "Bip01 Neck"  11
 13 "Bip01 Head"  12
 14 "Bip01 L Arm"  12
 15 "Bip01 R Arm"  12
 16 "Bip01 L Arm1"  14
 17 "Bip01 L Arm2"  16
 18 "bone_shield"  17
 19 "bone_root_plate"  14
 20 "Bip01 R Arm1"  15
 21 "bone_plate_root"  20
 22 "Bip01 L Hand"  17
 23 "Bip01 L Finger0"  22
 24 "Bip01 L Finger01"  23
 25 "Bip01 L Finger02"  24
 26 "Bip01 L Finger1"  22
 27 "Bip01 L Finger11"  26
 28 "Bip01 L Finger12"  27
 29 "Bip01 R Arm2"  20
 30 "Bip01 R Hand"  29
 31 "Bip01 R Finger0"  30
 32 "Bip01 R Finger01"  31
 33 "Bip01 R Finger1"  30
 34 "Bip01 R Finger11"  33
 35 "sword"  30
end
skeleton
time 0
  0 0.235347 -0.235347 2.814061 0.000000 0.000000 -1.658057
  1 0.320321 0.035157 0.000000 -1.570795 -1.570787 0.000000
  2 -0.000005 0.000007 3.713254 -0.162130 -3.132748 -0.295043
  3 18.045725 0.000000 0.000000 -0.000000 -0.000000 -0.121501
  4 17.597599 0.000000 0.000000 0.070538 0.038651 -0.171167
  5 0.000005 -0.000003 -3.713254 -0.006556 3.157749 0.219801
  6 18.045721 -0.000000 -0.000001 0.000000 0.000000 -0.389149
  7 17.597593 0.000000 -0.000000 -0.007972 -0.014763 0.207674
  8 1.293338 0.684453 -0.000001 -0.000004 -0.000001 0.044395
  9 5.309647 -0.003832 -0.000000 0.104414 0.007191 -0.069415
 10 4.826592 -0.004567 -0.000000 0.034875 -0.000324 0.008684
 11 5.792761 -0.005304 -0.000000 -0.139512 0.002529 0.017278
 12 6.661936 -0.000705 0.000000 -0.000000 -0.000001 0.471000
 13 2.044495 -0.000000 -0.000000 -0.001525 -0.005854 -0.192920
 14 -3.112017 1.516413 4.341911 -0.897673 -1.256420 3.542857
 15 -2.869892 1.398824 -4.140396 -0.774188 1.294549 1.914878
 16 4.827231 0.000000 0.000001 0.223972 1.248895 0.204340
 17 11.139763 -0.000000 -0.000000 0.000000 -0.000000 -0.165170
 18 8.575572 -8.394946 9.511936 -1.535143 -1.058019 1.499774
 19 -1.465386 0.506167 4.002137 0.034889 -0.200000 -0.000001
 20 4.972047 0.000000 0.000001 -0.516845 -1.206775 0.536029
 21 -9.249866 0.683183 -1.946118 -0.000014 -1.670796 0.000014
 22 10.313008 -0.000000 0.000000 -1.570000 0.000000 0.296546
 23 1.646738 0.449549 -1.702246 0.154002 0.442277 0.277235
 24 0.928314 0.000000 0.000000 0.000000 0.000000 0.000000
 25 0.928314 -0.000000 -0.000000 0.000000 0.000000 0.000000
 26 2.975832 -0.386307 -0.044144 -0.000797 -0.043611 0.000035
 27 1.438890 0.000003 0.000001 -0.000000 -0.000000 0.314000
 28 1.485299 -0.000005 -0.000000 0.000000 -0.000000 0.104667
 29 11.585355 0.000000 0.000001 0.000000 0.000000 -0.269772
 30 10.125607 -0.000000 0.000001 1.569752 -0.000000 -0.069778
 31 1.533671 0.109715 1.664491 -0.233255 -0.412980 0.435685
 32 0.928314 -0.000001 0.000000 0.000000 0.000000 0.000000
 33 2.683748 -0.427340 0.044205 0.001045 0.043611 0.000046
 34 1.438886 0.000003 0.000000 0.000000 0.000000 0.331444
 35 2.027418 0.730720 12.541074 -1.531161 -0.031283 2.992741
time 1
  0 0.235347 2.118904 2.966410 0.000000 0.000000 -1.648545
  1 0.320321 0.035157 0.000000 -1.570795 -1.570787 0.000000
  2 -0.000005 0.000007 3.713254 -0.137880 -3.131023 -0.311603
  3 18.045725 0.000000 0.000000 -0.000000 -0.000000 -0.267251
  4 17.597599 0.000000 0.000000 0.056888 0.032207 -0.042882
  5 0.000005 -0.000003 -3.713254 -0.005791 3.158028 0.172216
  6 18.045721 -0.000000 -0.000001 0.000000 0.000000 -0.481878
  7 17.597593 0.000000 -0.000000 -0.004159 -0.014529 0.164561
  8 1.293338 0.684453 -0.000001 -0.000004 -0.000001 0.044395
  9 5.309647 -0.003832 -0.000000 0.104414 0.007191 -0.069415
 10 4.826592 -0.004567 -0.000000 0.034875 -0.000324 0.008684
 11 5.792761 -0.005304 -0.000000 -0.139512 0.002529 0.017278
 12 6.661936 -0.000705 0.000000 -0.000000 -0.000001 0.471000
 13 2.044495 -0.000000 -0.000000 -0.001525 -0.005854 -0.192920
 14 -3.112017 1.516413 4.341911 -0.897673 -1.256420 3.542857
 15 -2.869892 1.398824 -4.140396 -0.774188 1.294549 1.914878
 16 4.827231 0.000000 0.000001 0.223972 1.248895 0.204340
 17 11.139763 -0.000000 -0.000000 0.000000 -0.000000 -0.165170
 18 8.575572 -8.394946 9.511936 -1.535143 -1.058019 1.499774
 19 -1.465386 0.506167 4.002137 0.034889 -0.200000 -0.000001
 20 4.972047 0.000000 0.000001 -0.516845 -1.206775 0.536029
 21 -9.249866 0.683183 -1.946118 -0.000014 -1.670796 0.000014
 22 10.313008 -0.000000 0.000000 -1.570000 0.000000 0.296546
 23 1.646738 0.449549 -1.702246 0.154002 0.442277 0.277235
 24 0.928314 0.000000 0.000000 0.000000 0.000000 0.000000
 25 0.928314 -0.000000 -0.000000 0.000000 0.000000 0.000000
 26 2.975832 -0.386307 -0.044144 -0.000797 -0.043611 0.000035
 27 1.438890 0.000003 0.000001 -0.000000 -0.000000 0.314000
 28 1.485299 -0.000005 -0.000000 0.000000 -0.000000 0.104667
 29 11.585355 0.000000 0.000001 0.000000 0.000000 -0.269772
 30 10.125607 -0.000000 0.000001 1.569752 -0.000000 -0.069778
 31 1.533671 0.109715 1.664491 -0.233255 -0.412980 0.435685
 32 0.928314 -0.000001 0.000000 0.000000 0.000000 0.000000
 33 2.683748 -0.427340 0.044205 0.001045 0.043611 0.000046
 34 1.438886 0.000003 0.000000 0.000000 0.000000 0.331444
 35 2.027418 0.730720 12.541074 -1.531161 -0.031283 2.992741
time 2
  0 0.235347 4.473156 3.208605 0.000000 0.000000 -1.635037
  1 0.320321 0.035157 0.000000 -1.570795 -1.570787 0.000000
  2 -0.000005 0.000007 3.713254 -0.095611 -3.141759 -0.262264
  3 18.045725 0.000000 0.000000 -0.000000 -0.000000 -0.319866
  4 17.597599 0.000000 0.000000 0.028165 0.024910 0.058777
  5 0.000005 -0.000003 -3.713254 -0.004451 3.158494 0.090228
  6 18.045721 -0.000000 -0.000001 0.000000 0.000000 -0.647052
  7 17.597593 0.000000 -0.000000 0.002535 -0.013242 0.087135
  8 1.293338 0.684453 -0.000001 -0.000004 -0.000001 0.044395
  9 5.309647 -0.003832 -0.000000 0.104414 0.007191 -0.069415
 10 4.826592 -0.004567 -0.000000 0.034875 -0.000324 0.008684
 11 5.792761 -0.005304 -0.000000 -0.139512 0.002529 0.017278
 12 6.661936 -0.000705 0.000000 -0.000000 -0.000001 0.471000
 13 2.044495 -0.000000 -0.000000 -0.001525 -0.005854 -0.192920
 14 -3.112017 1.516413 4.341911 -0.897673 -1.256420 3.542857
 15 -2.869892 1.398824 -4.140396 -0.774188 1.294549 1.914878
 16 4.827231 0.000000 0.000001 0.223972 1.248895 0.204340
 17 11.139763 -0.000000 -0.000000 0.000000 -0.000000 -0.165170
 18 8.575572 -8.394946 9.511936 -1.535143 -1.058019 1.499774
 19 -1.465386 0.506167 4.002137 0.034889 -0.200000 -0.000001
 20 4.972047 0.000000 0.000001 -0.516845 -1.206775 0.536029
 21 -9.249866 0.683183 -1.946118 -0.000014 -1.670796 0.000014
 22 10.313008 -0.000000 0.000000 -1.570000 0.000000 0.296546
 23 1.646738 0.449549 -1.702246 0.154002 0.442277 0.277235
 24 0.928314 0.000000 0.000000 0.000000 0.000000 0.000000
 25 0.928314 -0.000000 -0.000000 0.000000 0.000000 0.000000
 26 2.975832 -0.386307 -0.044144 -0.000797 -0.043611 0.000035
 27 1.438890 0.000003 0.000001 -0.000000 -0.000000 0.314000
 28 1.485299 -0.000005 -0.000000 0.000000 -0.000000 0.104667
 29 11.585355 0.000000 0.000001 0.000000 0.000000 -0.269772
 30 10.125607 -0.000000 0.000001 1.569752 -0.000000 -0.069778
 31 1.533671 0.109715 1.664491 -0.233255 -0.412980 0.435685
 32 0.928314 -0.000001 0.000000 0.000000 0.000000 0.000000
 33 2.683748 -0.427340 0.044205 0.001045 0.043611 0.000046
 34 1.438886 0.000003 0.000000 0.000000 0.000000 0.331444
 35 2.027418 0.730720 12.541074 -1.531161 -0.031283 2.992741
time 3
  0 0.235347 6.827408 3.458612 0.000000 0.000000 -1.618581
  1 0.320321 0.035157 0.000000 -1.570795 -1.570787 0.000000
  2 -0.000005 0.000007 3.713254 -0.054588 -3.154604 -0.172716
  3 18.045725 0.000000 0.000000 -0.000000 -0.000000 -0.292928
  4 17.597599 0.000000 0.000000 0.003839 0.022184 0.121135
  5 0.000005 -0.000003 -3.713254 -0.003112 3.158773 0.012552
  6 18.045721 -0.000000 -0.000001 0.000000 0.000000 -0.804909
  7 17.597593 0.000000 -0.000000 0.008685 -0.011042 0.013036
  8 1.293338 0.684453 -0.000001 -0.000004 -0.000001 0.044395
  9 5.309647 -0.003832 -0.000000 0.104414 0.007191 -0.069415
 10 4.826592 -0.004567 -0.000000 0.034875 -0.000324 0.008684
 11 5.792761 -0.005304 -0.000000 -0.139512 0.002529 0.017278
 12 6.661936 -0.000705 0.000000 -0.000000 -0.000001 0.471000
 13 2.044495 -0.000000 -0.000000 -0.001525 -0.005854 -0.192920
 14 -3.112017 1.516413 4.341911 -0.897673 -1.256420 3.542857
 15 -2.869892 1.398824 -4.140396 -0.774188 1.294549 1.914878
 16 4.827231 0.000000 0.000001 0.223972 1.248895 0.204340
 17 11.139763 -0.000000 -0.000000 0.000000 -0.000000 -0.165170
 18 8.575572 -8.394946 9.511936 -1.535143 -1.058019 1.499774
 19 -1.465386 0.506167 4.002137 0.034889 -0.200000 -0.000001
 20 4.972047 0.000000 0.000001 -0.516845 -1.206775 0.536029
 21 -9.249866 0.683183 -1.946118 -0.000014 -1.670796 0.000014
 22 10.313008 -0.000000 0.000000 -1.570000 0.000000 0.296546
 23 1.646738 0.449549 -1.702246 0.154002 0.442277 0.277235
 24 0.928314 0.000000 0.000000 0.000000 0.000000 0.000000
 25 0.928314 -0.000000 -0.000000 0.000000 0.000000 0.000000
 26 2.975832 -0.386307 -0.044144 -0.000797 -0.043611 0.000035
 27 1.438890 0.000003 0.000001 -0.000000 -0.000000 0.314000
 28 1.485299 -0.000005 -0.000000 0.000000 -0.000000 0.104667
 29 11.585355 0.000000 0.000001 0.000000 0.000000 -0.269772
 30 10.125607 -0.000000 0.000001 1.569752 -0.000000 -0.069778
 31 1.533671 0.109715 1.664491 -0.233255 -0.412980 0.435685
 32 0.928314 -0.000001 0.000000 0.000000 0.000000 0.000000
 33 2.683748 -0.427340 0.044205 0.001045 0.043611 0.000046
 34 1.438886 0.000003 0.000000 0.000000 0.000000 0.331444
 35 2.027418 0.730720 12.541074 -1.531161 -0.031283 2.992741
time 4
  0 0.235347 9.181661 3.642212 0.000000 0.000000 -1.599937
  1 0.320321 0.035157 0.000000 -1.570795 -1.570787 0.000000
  2 -0.000005 0.000007 3.713254 -0.017782 -3.163520 -0.049369
  3 18.045725 0.000000 0.000000 -0.000000 -0.000000 -0.196825
  4 17.597599 0.000000 0.000000 -0.012378 0.022817 0.147854
  5 0.000005 -0.000003 -3.713254 -0.002060 3.158959 -0.056159
  6 18.045721 -0.000000 -0.000001 0.000000 0.000000 -0.939004
  7 17.597593 0.000000 -0.000000 0.013563 -0.008490 -0.049341
  8 1.293338 0.684453 -0.000001 -0.000004 -0.000001 0.044395
  9 5.309647 -0.003832 -0.000000 0.104414 0.007191 -0.069415
 10 4.826592 -0.004567 -0.000000 0.034875 -0.000324 0.008684
 11 5.792761 -0.005304 -0.000000 -0.139512 0.002529 0.017278
 12 6.661936 -0.000705 0.000000 -0.000000 -0.000001 0.471000
 13 2.044495 -0.000000 -0.000000 -0.001525 -0.005854 -0.192920
 14 -3.112017 1.516413 4.341911 -0.897673 -1.256420 3.542857
 15 -2.869892 1.398824 -4.140396 -0.774188 1.294549 1.914878
 16 4.827231 0.000000 0.000001 0.223972 1.248895 0.204340
 17 11.139763 -0.000000 -0.000000 0.000000 -0.000000 -0.165170
 18 8.575572 -8.394946 9.511936 -1.535143 -1.058019 1.499774
 19 -1.465386 0.506167 4.002137 0.034889 -0.200000 -0.000001
 20 4.972047 0.000000 0.000001 -0.516845 -1.206775 0.536029
 21 -9.249866 0.683183 -1.946118 -0.000014 -1.670796 0.000014
 22 10.313008 -0.000000 0.000000 -1.570000 0.000000 0.296546
 23 1.646738 0.449549 -1.702246 0.154002 0.442277 0.277235
 24 0.928314 0.000000 0.000000 0.000000 0.000000 0.000000
 25 0.928314 -0.000000 -0.000000 0.000000 0.000000 0.000000
 26 2.975832 -0.386307 -0.044144 -0.000797 -0.043611 0.000035
 27 1.438890 0.000003 0.000001 -0.000000 -0.000000 0.314000
 28 1.485299 -0.000005 -0.000000 0.000000 -0.000000 0.104667
 29 11.585355 0.000000 0.000001 0.000000 0.000000 -0.269772
 30 10.125607 -0.000000 0.000001 1.569752 -0.000000 -0.069778
 31 1.533671 0.109715 1.664491 -0.233255 -0.412980 0.435685
 32 0.928314 -0.000001 0.000000 0.000000 0.000000 0.000000
 33 2.683748 -0.427340 0.044205 0.001045 0.043611 0.000046
 34 1.438886 0.000003 0.000000 0.000000 0.000000 0.331444
 35 2.027418 0.730720 12.541074 -1.531161 -0.031283 2.992741
time 5
  0 0.235347 11.535912 3.704714 0.000000 0.000000 -1.580056
  1 0.320321 0.035157 0.000000 -1.570795 -1.570787 0.000000
  2 -0.000005 0.000007 3.713254 0.005701 -3.164958 0.122151
  3 18.045725 0.000000 0.000000 -0.000000 -0.000000 -0.001799
  4 17.597599 0.000000 0.000000 -0.012098 0.023891 0.123789
  5 0.000005 -0.000003 -3.713254 -0.000433 3.159053 -0.145512
  6 18.045721 -0.000000 -0.000001 0.000000 0.000000 -1.008551
  7 17.597593 0.000000 -0.000000 0.015628 -0.007905 -0.070305
  8 1.293338 0.684453 -0.000001 -0.000004 -0.000001 0.044395
  9 5.309647 -0.003832 -0.000000 0.104414 0.007191 -0.069415
 10 4.826592 -0.004567 -0.000000 0.034875 -0.000324 0.008684
 11 5.792761 -0.005304 -0.000000 -0.139512 0.002529 0.017278
 12 6.661936 -0.000705 0.000000 -0.000000 -0.000001 0.471000
 13 2.044495 -0.000000 -0.000000 -0.001525 -0.005854 -0.192920
 14 -3.112017 1.516413 4.341911 -0.897673 -1.256420 3.542857
 15 -2.869892 1.398824 -4.140396 -0.774188 1.294549 1.914878
 16 4.827231 0.000000 0.000001 0.223972 1.248895 0.204340
 17 11.139763 -0.000000 -0.000000 0.000000 -0.000000 -0.165170
 18 8.575572 -8.394946 9.511936 -1.535143 -1.058019 1.499774
 19 -1.465386 0.506167 4.002137 0.034889 -0.200000 -0.000001
 20 4.972047 0.000000 0.000001 -0.516845 -1.206775 0.536029
 21 -9.249866 0.683183 -1.946118 -0.000014 -1.670796 0.000014
 22 10.313008 -0.000000 0.000000 -1.570000 0.000000 0.296546
 23 1.646738 0.449549 -1.702246 0.154002 0.442277 0.277235
 24 0.928314 0.000000 0.000000 0.000000 0.000000 0.000000
 25 0.928314 -0.000000 -0.000000 0.000000 0.000000 0.000000
 26 2.975832 -0.386307 -0.044144 -0.000797 -0.043611 0.000035
 27 1.438890 0.000003 0.000001 -0.000000 -0.000000 0.314000
 28 1.485299 -0.000005 -0.000000 0.000000 -0.000000 0.104667
 29 11.585355 0.000000 0.000001 0.000000 0.000000 -0.269772
 30 10.125607 -0.000000 0.000001 1.569752 -0.000000 -0.069778
 31 1.533671 0.109715 1.664491 -0.233255 -0.412980 0.435685
 32 0.928314 -0.000001 0.000000 0.000000 0.000000 0.000000
 33 2.683748 -0.427340 0.044205 0.001045 0.043611 0.000046
 34 1.438886 0.000003 0.000000 0.000000 0.000000 0.331444
 35 2.027418 0.730720 12.541074 -1.531161 -0.031283 2.992741
time 6
  0 0.235347 13.890163 3.646118 0.000000 0.000000 -1.559985
  1 0.320321 0.035157 0.000000 -1.570795 -1.570787 0.000000
  2 -0.000005 0.000007 3.713254 0.007810 -3.165341 0.149831
  3 18.045725 0.000000 0.000000 -0.000000 -0.000000 -0.073858
  4 17.597599 0.000000 0.000000 -0.011107 0.024166 0.150599
  5 0.000005 -0.000003 -3.713254 0.000523 3.159332 -0.268253
  6 18.045721 -0.000000 -0.000001 0.000000 0.000000 -1.010724
  7 17.597593 0.000000 -0.000000 0.014312 -0.009286 -0.054147
  8 1.293338 0.684453 -0.000001 -0.000004 -0.000001 0.044395
  9 5.309647 -0.003832 -0.000000 0.104414 0.007191 -0.069415
 10 4.826592 -0.004567 -0.000000 0.034875 -0.000324 0.008684
 11 5.792761 -0.005304 -0.000000 -0.139512 0.002529 0.017278
 12 6.661936 -0.000705 0.000000 -0.000000 -0.000001 0.471000
 13 2.044495 -0.000000 -0.000000 -0.001525 -0.005854 -0.192920
 14 -3.112017 1.516413 4.341911 -0.897673 -1.256420 3.542857
 15 -2.869892 1.398824 -4.140396 -0.774188 1.294549 1.914878
 16 4.827231 0.000000 0.000001 0.223972 1.248895 0.204340
 17 11.139763 -0.000000 -0.000000 0.000000 -0.000000 -0.165170
 18 8.575572 -8.394946 9.511936 -1.535143 -1.058019 1.499774
 19 -1.465386 0.506167 4.002137 0.034889 -0.200000 -0.000001
 20 4.972047 0.000000 0.000001 -0.516845 -1.206775 0.536029
 21 -9.249866 0.683183 -1.946118 -0.000014 -1.670796 0.000014
 22 10.313008 -0.000000 0.000000 -1.570000 0.000000 0.296546
 23 1.646738 0.449549 -1.702246 0.154002 0.442277 0.277235
 24 0.928314 0.000000 0.000000 0.000000 0.000000 0.000000
 25 0.928314 -0.000000 -0.000000 0.000000 0.000000 0.000000
 26 2.975832 -0.386307 -0.044144 -0.000797 -0.043611 0.000035
 27 1.438890 0.000003 0.000001 -0.000000 -0.000000 0.314000
 28 1.485299 -0.000005 -0.000000 0.000000 -0.000000 0.104667
 29 11.585355 0.000000 0.000001 0.000000 0.000000 -0.269772
 30 10.125607 -0.000000 0.000001 1.569752 -0.000000 -0.069778
 31 1.533671 0.109715 1.664491 -0.233255 -0.412980 0.435685
 32 0.928314 -0.000001 0.000000 0.000000 0.000000 0.000000
 33 2.683748 -0.427340 0.044205 0.001045 0.043611 0.000046
 34 1.438886 0.000003 0.000000 0.000000 0.000000 0.331444
 35 2.027418 0.730720 12.541074 -1.531161 -0.031283 2.992741
time 7
  0 0.235347 16.244415 3.509395 0.000000 0.000000 -1.540390
  1 0.320321 0.035157 0.000000 -1.570795 -1.570787 0.000000
  2 -0.000005 0.000007 3.713254 0.007714 -3.165916 0.161195
  3 18.045725 0.000000 0.000000 -0.000000 -0.000000 -0.161797
  4 17.597599 0.000000 0.000000 -0.010243 0.024276 0.178873
  5 0.000005 -0.000003 -3.713254 0.001289 3.159611 -0.370205
  6 18.045721 -0.000000 -0.000001 0.000000 0.000000 -1.007609
  7 17.597593 0.000000 -0.000000 0.012815 -0.010386 -0.038692
  8 1.293338 0.684453 -0.000001 -0.000004 -0.000001 0.044395
  9 5.309647 -0.003832 -0.000000 0.104414 0.007191 -0.069415
 10 4.826592 -0.004567 -0.000000 0.034875 -0.000324 0.008684
 11 5.792761 -0.005304 -0.000000 -0.139512 0.002529 0.017278
 12 6.661936 -0.000705 0.000000 -0.000000 -0.000001 0.471000
 13 2.044495 -0.000000 -0.000000 -0.001525 -0.005854 -0.192920
 14 -3.112017 1.516413 4.341911 -0.897673 -1.256420 3.542857
 15 -2.869892 1.398824 -4.140396 -0.774188 1.294549 1.914878
 16 4.827231 0.000000 0.000001 0.223972 1.248895 0.204340
 17 11.139763 -0.000000 -0.000000 0.000000 -0.000000 -0.165170
 18 8.575572 -8.394946 9.511936 -1.535143 -1.058019 1.499774
 19 -1.465386 0.506167 4.002137 0.034889 -0.200000 -0.000001
 20 4.972047 0.000000 0.000001 -0.516845 -1.206775 0.536029
 21 -9.249866 0.683183 -1.946118 -0.000014 -1.670796 0.000014
 22 10.313008 -0.000000 0.000000 -1.570000 0.000000 0.296546
 23 1.646738 0.449549 -1.702246 0.154002 0.442277 0.277235
 24 0.928314 0.000000 0.000000 0.000000 0.000000 0.000000
 25 0.928314 -0.000000 -0.000000 0.000000 0.000000 0.000000
 26 2.975832 -0.386307 -0.044144 -0.000797 -0.043611 0.000035
 27 1.438890 0.000003 0.000001 -0.000000 -0.000000 0.314000
 28 1.485299 -0.000005 -0.000000 0.000000 -0.000000 0.104667
 29 11.585355 0.000000 0.000001 0.000000 0.000000 -0.269772
 30 10.125607 -0.000000 0.000001 1.569752 -0.000000 -0.069778
 31 1.533671 0.109715 1.664491 -0.233255 -0.412980 0.435685
 32 0.928314 -0.000001 0.000000 0.000000 0.000000 0.000000
 33 2.683748 -0.427340 0.044205 0.001045 0.043611 0.000046
 34 1.438886 0.000003 0.000000 0.000000 0.000000 0.331444
 35 2.027418 0.730720 12.541074 -1.531161 -0.031283 2.992741
time 8
  0 0.235347 18.598667 3.345328 0.000000 0.000000 -1.522412
  1 0.320321 0.035157 0.000000 -1.570795 -1.570787 0.000000
  2 -0.000005 0.000007 3.713254 0.007331 -3.166395 0.169401
  3 18.045725 0.000000 0.000000 -0.000000 -0.000000 -0.239273
  4 17.597599 0.000000 0.000000 -0.009607 0.024359 0.203213
  5 0.000005 -0.000003 -3.713254 0.002628 3.159425 -0.469589
  6 18.045721 -0.000000 -0.000001 0.000000 0.000000 -0.998119
  7 17.597593 0.000000 -0.000000 0.011158 -0.011814 -0.015139
  8 1.293338 0.684453 -0.000001 -0.000004 -0.000001 0.044395
  9 5.309647 -0.003832 -0.000000 0.104414 0.007191 -0.069415
 10 4.826592 -0.004567 -0.000000 0.034875 -0.000324 0.008684
 11 5.792761 -0.005304 -0.000000 -0.139512 0.002529 0.017278
 12 6.661936 -0.000705 0.000000 -0.000000 -0.000001 0.471000
 13 2.044495 -0.000000 -0.000000 -0.001525 -0.005854 -0.192920
 14 -3.112017 1.516413 4.341911 -0.897673 -1.256420 3.542857
 15 -2.869892 1.398824 -4.140396 -0.774188 1.294549 1.914878
 16 4.827231 0.000000 0.000001 0.223972 1.248895 0.204340
 17 11.139763 -0.000000 -0.000000 0.000000 -0.000000 -0.165170
 18 8.575572 -8.394946 9.511936 -1.535143 -1.058019 1.499774
 19 -1.465386 0.506167 4.002137 0.034889 -0.200000 -0.000001
 20 4.972047 0.000000 0.000001 -0.516845 -1.206775 0.536029
 21 -9.249866 0.683183 -1.946118 -0.000014 -1.670796 0.000014
 22 10.313008 -0.000000 0.000000 -1.570000 0.000000 0.296546
 23 1.646738 0.449549 -1.702246 0.154002 0.442277 0.277235
 24 0.928314 0.000000 0.000000 0.000000 0.000000 0.000000
 25 0.928314 -0.000000 -0.000000 0.000000 0.000000 0.000000
 26 2.975832 -0.386307 -0.044144 -0.000797 -0.043611 0.000035
 27 1.438890 0.000003 0.000001 -0.000000 -0.000000 0.314000
 28 1.485299 -0.000005 -0.000000 0.000000 -0.000000 0.104667
 29 11.585355 0.000000 0.000001 0.000000 0.000000 -0.269772
 30 10.125607 -0.000000 0.000001 1.569752 -0.000000 -0.069778
 31 1.533671 0.109715 1.664491 -0.233255 -0.412980 0.435685
 32 0.928314 -0.000001 0.000000 0.000000 0.000000 0.000000
 33 2.683748 -0.427340 0.044205 0.001045 0.043611 0.000046
 34 1.438886 0.000003 0.000000 0.000000 0.000000 0.331444
 35 2.027418 0.730720 12.541074 -1.531161 -0.031283 2.992741
time 9
  0 0.235347 20.952919 3.169541 0.000000 0.000000 -1.506812
  1 0.320321 0.035157 0.000000 -1.570795 -1.570787 0.000000
  2 -0.000005 0.000007 3.713254 0.007235 -3.166683 0.181202
  3 18.045725 0.000000 0.000000 -0.000000 -0.000000 -0.305692
  4 17.597599 0.000000 0.000000 -0.009277 0.024442 0.224395
  5 0.000005 -0.000003 -3.713254 0.006933 3.157655 -0.577647
  6 18.045721 -0.000000 -0.000001 0.000000 0.000000 -0.964142
  7 17.597593 0.000000 -0.000000 0.008526 -0.015302 0.046721
  8 1.293338 0.684453 -0.000001 -0.000004 -0.000001 0.044395
  9 5.309647 -0.003832 -0.000000 0.104414 0.007191 -0.069415
 10 4.826592 -0.004567 -0.000000 0.034875 -0.000324 0.008684
 11 5.792761 -0.005304 -0.000000 -0.139512 0.002529 0.017278
 12 6.661936 -0.000705 0.000000 -0.000000 -0.000001 0.471000
 13 2.044495 -0.000000 -0.000000 -0.001525 -0.005854 -0.192920
 14 -3.112017 1.516413 4.341911 -0.897673 -1.256420 3.542857
 15 -2.869892 1.398824 -4.140396 -0.774188 1.294549 1.914878
 16 4.827231 0.000000 0.000001 0.223972 1.248895 0.204340
 17 11.139763 -0.000000 -0.000000 0.000000 -0.000000 -0.165170
 18 8.575572 -8.394946 9.511936 -1.535143 -1.058019 1.499774
 19 -1.465386 0.506167 4.002137 0.034889 -0.200000 -0.000001
 20 4.972047 0.000000 0.000001 -0.516845 -1.206775 0.536029
 21 -9.249866 0.683183 -1.946118 -0.000014 -1.670796 0.000014
 22 10.313008 -0.000000 0.000000 -1.570000 0.000000 0.296546
 23 1.646738 0.449549 -1.702246 0.154002 0.442277 0.277235
 24 0.928314 0.000000 0.000000 0.000000 0.000000 0.000000
 25 0.928314 -0.000000 -0.000000 0.000000 0.000000 0.000000
 26 2.975832 -0.386307 -0.044144 -0.000797 -0.043611 0.000035
 27 1.438890 0.000003 0.000001 -0.000000 -0.000000 0.314000
 28 1.485299 -0.000005 -0.000000 0.000000 -0.000000 0.104667
 29 11.585355 0.000000 0.000001 0.000000 0.000000 -0.269772
 30 10.125607 -0.000000 0.000001 1.569752 -0.000000 -0.069778
 31 1.533671 0.109715 1.664491 -0.233255 -0.412980 0.435685
 32 0.928314 -0.000001 0.000000 0.000000 0.000000 0.000000
 33 2.683748 -0.427340 0.044205 0.001045 0.043611 0.000046
 34 1.438886 0.000003 0.000000 0.000000 0.000000 0.331444
 35 2.027418 0.730720 12.541074 -1.531161 -0.031283 2.992741
time 10
  0 0.235347 23.307171 3.005474 0.000000 0.000000 -1.494541
  1 0.320321 0.035157 0.000000 -1.570795 -1.570787 0.000000
  2 -0.000005 0.000007 3.713254 0.008289 -3.166491 0.222917
  3 18.045725 0.000000 0.000000 -0.000000 -0.000000 -0.307102
  4 17.597599 0.000000 0.000000 -0.008819 0.024634 0.258709
  5 0.000005 -0.000003 -3.713254 0.039076 3.142010 -0.528561
  6 18.045721 -0.000000 -0.000001 0.000000 0.000000 -0.693561
  7 17.597593 0.000000 -0.000000 -0.005861 -0.022769 0.456294
  8 1.293338 0.684453 -0.000001 -0.000004 -0.000001 0.044395
  9 5.309647 -0.003832 -0.000000 0.104414 0.007191 -0.069415
 10 4.826592 -0.004567 -0.000000 0.034875 -0.000324 0.008684
 11 5.792761 -0.005304 -0.000000 -0.139512 0.002529 0.017278
 12 6.661936 -0.000705 0.000000 -0.000000 -0.000001 0.471000
 13 2.044495 -0.000000 -0.000000 -0.001525 -0.005854 -0.192920
 14 -3.112017 1.516413 4.341911 -0.897673 -1.256420 3.542857
 15 -2.869892 1.398824 -4.140396 -0.774188 1.294549 1.914878
 16 4.827231 0.000000 0.000001 0.223972 1.248895 0.204340
 17 11.139763 -0.000000 -0.000000 0.000000 -0.000000 -0.165170
 18 8.575572 -8.394946 9.511936 -1.535143 -1.058019 1.499774
 19 -1.465386 0.506167 4.002137 0.034889 -0.200000 -0.000001
 20 4.972047 0.000000 0.000001 -0.516845 -1.206775 0.536029
 21 -9.249866 0.683183 -1.946118 -0.000014 -1.670796 0.000014
 22 10.313008 -0.000000 0.000000 -1.570000 0.000000 0.296546
 23 1.646738 0.449549 -1.702246 0.154002 0.442277 0.277235
 24 0.928314 0.000000 0.000000 0.000000 0.000000 0.000000
 25 0.928314 -0.000000 -0.000000 0.000000 0.000000 0.000000
 26 2.975832 -0.386307 -0.044144 -0.000797 -0.043611 0.000035
 27 1.438890 0.000003 0.000001 -0.000000 -0.000000 0.314000
 28 1.485299 -0.000005 -0.000000 0.000000 -0.000000 0.104667
 29 11.585355 0.000000 0.000001 0.000000 0.000000 -0.269772
 30 10.125607 -0.000000 0.000001 1.569752 -0.000000 -0.069778
 31 1.533671 0.109715 1.664491 -0.233255 -0.412980 0.435685
 32 0.928314 -0.000001 0.000000 0.000000 0.000000 0.000000
 33 2.683748 -0.427340 0.044205 0.001045 0.043611 0.000046
 34 1.438886 0.000003 0.000000 0.000000 0.000000 0.331444
 35 2.027418 0.730720 12.541074 -1.531161 -0.031283 2.992741
time 11
  0 0.235347 25.661423 2.872657 0.000000 0.000000 -1.486455
  1 0.320321 0.035157 0.000000 -1.570795 -1.570787 0.000000
  2 -0.000005 0.000007 3.713254 0.009344 -3.166012 0.266768
  3 18.045725 0.000000 0.000000 -0.000000 -0.000000 -0.279199
  4 17.597599 0.000000 0.000000 -0.008947 0.024579 0.284009
  5 0.000005 -0.000003 -3.713254 0.089109 3.124688 -0.383191
  6 18.045721 -0.000000 -0.000001 0.000000 0.000000 -0.284466
  7 17.597593 0.000000 -0.000000 -0.004000 -0.014810 0.040472
  8 1.293338 0.684453 -0.000001 -0.000004 -0.000001 0.044395
  9 5.309647 -0.003832 -0.000000 0.104414 0.007191 -0.069415
 10 4.826592 -0.004567 -0.000000 0.034875 -0.000324 0.008684
 11 5.792761 -0.005304 -0.000000 -0.139512 0.002529 0.017278
 12 6.661936 -0.000705 0.000000 -0.000000 -0.000001 0.471000
 13 2.044495 -0.000000 -0.000000 -0.001525 -0.005854 -0.192920
 14 -3.112017 1.516413 4.341911 -0.897673 -1.256420 3.542857
 15 -2.869892 1.398824 -4.140396 -0.774188 1.294549 1.914878
 16 4.827231 0.000000 0.000001 0.223972 1.248895 0.204340
 17 11.139763 -0.000000 -0.000000 0.000000 -0.000000 -0.165170
 18 8.575572 -8.394946 9.511936 -1.535143 -1.058019 1.499774
 19 -1.465386 0.506167 4.002137 0.034889 -0.200000 -0.000001
 20 4.972047 0.000000 0.000001 -0.516845 -1.206775 0.536029
 21 -9.249866 0.683183 -1.946118 -0.000014 -1.670796 0.000014
 22 10.313008 -0.000000 0.000000 -1.570000 0.000000 0.296546
 23 1.646738 0.449549 -1.702246 0.154002 0.442277 0.277235
 24 0.928314 0.000000 0.000000 0.000000 0.000000 0.000000
 25 0.928314 -0.000000 -0.000000 0.000000 0.000000 0.000000
 26 2.975832 -0.386307 -0.044144 -0.000797 -0.043611 0.000035
 27 1.438890 0.000003 0.000001 -0.000000 -0.000000 0.314000
 28 1.485299 -0.000005 -0.000000 0.000000 -0.000000 0.104667
 29 11.585355 0.000000 0.000001 0.000000 0.000000 -0.269772
 30 10.125607 -0.000000 0.000001 1.569752 -0.000000 -0.069778
 31 1.533671 0.109715 1.664491 -0.233255 -0.412980 0.435685
 32 0.928314 -0.000001 0.000000 0.000000 0.000000 0.000000
 33 2.683748 -0.427340 0.044205 0.001045 0.043611 0.000046
 34 1.438886 0.000003 0.000000 0.000000 0.000000 0.331444
 35 2.027418 0.730720 12.541074 -1.531161 -0.031283 2.992741
time 12
  0 0.235347 28.015675 2.814061 0.000000 0.000000 -1.483602
  1 0.320321 0.035157 0.000000 -1.570795 -1.570787 0.000000
  2 -0.000005 0.000007 3.713254 0.008673 -3.166204 0.240253
  3 18.045725 0.000000 0.000000 -0.000000 -0.000000 -0.348215
  4 17.597599 0.000000 0.000000 -0.011336 0.023560 0.239402
  5 0.000005 -0.000003 -3.713254 0.106329 3.124315 -0.264958
  6 18.045721 -0.000000 -0.000001 0.000000 0.000000 -0.057787
  7 17.597593 0.000000 -0.000000 -0.002525 -0.011252 -0.207520
  8 1.293338 0.684453 -0.000001 -0.000004 -0.000001 0.044395
  9 5.309647 -0.003832 -0.000000 0.104414 0.007191 -0.069415
 10 4.826592 -0.004567 -0.000000 0.034875 -0.000324 0.008684
 11 5.792761 -0.005304 -0.000000 -0.139512 0.002529 0.017278
 12 6.661936 -0.000705 0.000000 -0.000000 -0.000001 0.471000
 13 2.044495 -0.000000 -0.000000 -0.001525 -0.005854 -0.192920
 14 -3.112017 1.516413 4.341911 -0.897673 -1.256420 3.542857
 15 -2.869892 1.398824 -4.140396 -0.774188 1.294549 1.914878
 16 4.827231 0.000000 0.000001 0.223972 1.248895 0.204340
 17 11.139763 -0.000000 -0.000000 0.000000 -0.000000 -0.165170
 18 8.575572 -8.394946 9.511936 -1.535143 -1.058019 1.499774
 19 -1.465386 0.506167 4.002137 0.034889 -0.200000 -0.000001
 20 4.972047 0.000000 0.000001 -0.516845 -1.206775 0.536029
 21 -9.249866 0.683183 -1.946118 -0.000014 -1.670796 0.000014
 22 10.313008 -0.000000 0.000000 -1.570000 0.000000 0.296546
 23 1.646738 0.449549 -1.702246 0.154002 0.442277 0.277235
 24 0.928314 0.000000 0.000000 0.000000 0.000000 0.000000
 25 0.928314 -0.000000 -0.000000 0.000000 0.000000 0.000000
 26 2.975832 -0.386307 -0.044144 -0.000797 -0.043611 0.000035
 27 1.438890 0.000003 0.000001 -0.000000 -0.000000 0.314000
 28 1.485299 -0.000005 -0.000000 0.000000 -0.000000 0.104667
 29 11.585355 0.000000 0.000001 0.000000 0.000000 -0.269772
 30 10.125607 -0.000000 0.000001 1.569752 -0.000000 -0.069778
 31 1.533671 0.109715 1.664491 -0.233255 -0.412980 0.435685
 32 0.928314 -0.000001 0.000000 0.000000 0.000000 0.000000
 33 2.683748 -0.427340 0.044205 0.001045 0.043611 0.000046
 34 1.438886 0.000003 0.000000 0.000000 0.000000 0.331444
 35 2.027418 0.730720 12.541074 -1.531161 -0.031283 2.992741
time 13
  0 0.235347 30.369928 2.892189 0.000000 0.000000 -1.486455
  1 0.320321 0.035157 0.000000 -1.570795 -1.570787 0.000000
  2 -0.000005 0.000007 3.713254 0.006468 -3.166875 0.152308
  3 18.045725 0.000000 0.000000 -0.000000 -0.000000 -0.520383
  4 17.597599 0.000000 0.000000 -0.015835 0.020807 0.122096
  5 0.000005 -0.000003 -3.713254 0.089683 3.133070 -0.193097
  6 18.045721 -0.000000 -0.000001 0.000000 0.000000 -0.017000
  7 17.597593 0.000000 -0.000000 -0.001368 -0.008677 -0.184891
  8 1.293338 0.684453 -0.000001 -0.000004 -0.000001 0.044395
  9 5.309647 -0.003832 -0.000000 0.104414 0.007191 -0.069415
 10 4.826592 -0.004567 -0.000000 0.034875 -0.000324 0.008684
 11 5.792761 -0.005304 -0.000000 -0.139512 0.002529 0.017278
 12 6.661936 -0.000705 0.000000 -0.000000 -0.000001 0.471000
 13 2.044495 -0.000000 -0.000000 -0.001525 -0.005854 -0.192920
 14 -3.112017 1.516413 4.341911 -0.897673 -1.256420 3.542857
 15 -2.869892 1.398824 -4.140396 -0.774188 1.294549 1.914878
 16 4.827231 0.000000 0.000001 0.223972 1.248895 0.204340
 17 11.139763 -0.000000 -0.000000 0.000000 -0.000000 -0.165170
 18 8.575572 -8.394946 9.511936 -1.535143 -1.058019 1.499774
 19 -1.465386 0.506167 4.002137 0.034889 -0.200000 -0.000001
 20 4.972047 0.000000 0.000001 -0.516845 -1.206775 0.536029
 21 -9.249866 0.683183 -1.946118 -0.000014 -1.670796 0.000014
 22 10.313008 -0.000000 0.000000 -1.570000 0.000000 0.296546
 23 1.646738 0.449549 -1.702246 0.154002 0.442277 0.277235
 24 0.928314 0.000000 0.000000 0.000000 0.000000 0.000000
 25 0.928314 -0.000000 -0.000000 0.000000 0.000000 0.000000
 26 2.975832 -0.386307 -0.044144 -0.000797 -0.043611 0.000035
 27 1.438890 0.000003 0.000001 -0.000000 -0.000000 0.314000
 28 1.485299 -0.000005 -0.000000 0.000000 -0.000000 0.104667
 29 11.585355 0.000000 0.000001 0.000000 0.000000 -0.269772
 30 10.125607 -0.000000 0.000001 1.569752 -0.000000 -0.069778
 31 1.533671 0.109715 1.664491 -0.233255 -0.412980 0.435685
 32 0.928314 -0.000001 0.000000 0.000000 0.000000 0.000000
 33 2.683748 -0.427340 0.044205 0.001045 0.043611 0.000046
 34 1.438886 0.000003 0.000000 0.000000 0.000000 0.331444
 35 2.027418 0.730720 12.541074 -1.531161 -0.031283 2.992741
time 14
  0 0.235347 32.724178 3.114852 0.000000 0.000000 -1.494541
  1 0.320321 0.035157 0.000000 -1.570795 -1.570787 0.000000
  2 -0.000005 0.000007 3.713254 0.003593 -3.167450 0.039305
  3 18.045725 0.000000 0.000000 -0.000000 -0.000000 -0.733813
  4 17.597599 0.000000 0.000000 -0.020512 0.016208 -0.028607
  5 0.000005 -0.000003 -3.713254 0.064141 3.142289 -0.133205
  6 18.045721 -0.000000 -0.000001 0.000000 0.000000 -0.022216
  7 17.597593 0.000000 -0.000000 -0.000075 -0.008443 -0.104434
  8 1.293338 0.684453 -0.000001 -0.000004 -0.000001 0.044395
  9 5.309647 -0.003832 -0.000000 0.104414 0.007191 -0.069415
 10 4.826592 -0.004567 -0.000000 0.034875 -0.000324 0.008684
 11 5.792761 -0.005304 -0.000000 -0.139512 0.002529 0.017278
 12 6.661936 -0.000705 0.000000 -0.000000 -0.000001 0.471000
 13 2.044495 -0.000000 -0.000000 -0.001525 -0.005854 -0.192920
 14 -3.112017 1.516413 4.341911 -0.897673 -1.256420 3.542857
 15 -2.869892 1.398824 -4.140396 -0.774188 1.294549 1.914878
 16 4.827231 0.000000 0.000001 0.223972 1.248895 0.204340
 17 11.139763 -0.000000 -0.000000 0.000000 -0.000000 -0.165170
 18 8.575572 -8.394946 9.511936 -1.535143 -1.058019 1.499774
 19 -1.465386 0.506167 4.002137 0.034889 -0.200000 -0.000001
 20 4.972047 0.000000 0.000001 -0.516845 -1.206775 0.536029
 21 -9.249866 0.683183 -1.946118 -0.000014 -1.670796 0.000014
 22 10.313008 -0.000000 0.000000 -1.570000 0.000000 0.296546
 23 1.646738 0.449549 -1.702246 0.154002 0.442277 0.277235
 24 0.928314 0.000000 0.000000 0.000000 0.000000 0.000000
 25 0.928314 -0.000000 -0.000000 0.000000 0.000000 0.000000
 26 2.975832 -0.386307 -0.044144 -0.000797 -0.043611 0.000035
 27 1.438890 0.000003 0.000001 -0.000000 -0.000000 0.314000
 28 1.485299 -0.000005 -0.000000 0.000000 -0.000000 0.104667
 29 11.585355 0.000000 0.000001 0.000000 0.000000 -0.269772
 30 10.125607 -0.000000 0.000001 1.569752 -0.000000 -0.069778
 31 1.533671 0.109715 1.664491 -0.233255 -0.412980 0.435685
 32 0.928314 -0.000001 0.000000 0.000000 0.000000 0.000000
 33 2.683748 -0.427340 0.044205 0.001045 0.043611 0.000046
 34 1.438886 0.000003 0.000000 0.000000 0.000000 0.331444
 35 2.027418 0.730720 12.541074 -1.531161 -0.031283 2.992741
time 15
  0 0.235347 35.078430 3.400017 0.000000 0.000000 -1.506812
  1 0.320321 0.035157 0.000000 -1.570795 -1.570787 0.000000
  2 -0.000005 0.000007 3.713254 0.000621 -3.167737 -0.079089
  3 18.045725 0.000000 0.000000 -0.000000 -0.000000 -0.944423
  4 17.597599 0.000000 0.000000 -0.023766 0.010893 -0.175651
  5 0.000005 -0.000003 -3.713254 0.038789 3.149647 -0.081938
  6 18.045721 -0.000000 -0.000001 0.000000 0.000000 -0.043008
  7 17.597593 0.000000 -0.000000 0.000969 -0.010410 -0.014214
  8 1.293338 0.684453 -0.000001 -0.000004 -0.000001 0.044395
  9 5.309647 -0.003832 -0.000000 0.104414 0.007191 -0.069415
 10 4.826592 -0.004567 -0.000000 0.034875 -0.000324 0.008684
 11 5.792761 -0.005304 -0.000000 -0.139512 0.002529 0.017278
 12 6.661936 -0.000705 0.000000 -0.000000 -0.000001 0.471000
 13 2.044495 -0.000000 -0.000000 -0.001525 -0.005854 -0.192920
 14 -3.112017 1.516413 4.341911 -0.897673 -1.256420 3.542857
 15 -2.869892 1.398824 -4.140396 -0.774188 1.294549 1.914878
 16 4.827231 0.000000 0.000001 0.223972 1.248895 0.204340
 17 11.139763 -0.000000 -0.000000 0.000000 -0.000000 -0.165170
 18 8.575572 -8.394946 9.511936 -1.535143 -1.058019 1.499774
 19 -1.465386 0.506167 4.002137 0.034889 -0.200000 -0.000001
 20 4.972047 0.000000 0.000001 -0.516845 -1.206775 0.536029
 21 -9.249866 0.683183 -1.946118 -0.000014 -1.670796 0.000014
 22 10.313008 -0.000000 0.000000 -1.570000 0.000000 0.296546
 23 1.646738 0.449549 -1.702246 0.154002 0.442277 0.277235
 24 0.928314 0.000000 0.000000 0.000000 0.000000 0.000000
 25 0.928314 -0.000000 -0.000000 0.000000 0.000000 0.000000
 26 2.975832 -0.386307 -0.044144 -0.000797 -0.043611 0.000035
 27 1.438890 0.000003 0.000001 -0.000000 -0.000000 0.314000
 28 1.485299 -0.000005 -0.000000 0.000000 -0.000000 0.104667
 29 11.585355 0.000000 0.000001 0.000000 0.000000 -0.269772
 30 10.125607 -0.000000 0.000001 1.569752 -0.000000 -0.069778
 31 1.533671 0.109715 1.664491 -0.233255 -0.412980 0.435685
 32 0.928314 -0.000001 0.000000 0.000000 0.000000 0.000000
 33 2.683748 -0.427340 0.044205 0.001045 0.043611 0.000046
 34 1.438886 0.000003 0.000000 0.000000 0.000000 0.331444
 35 2.027418 0.730720 12.541074 -1.531161 -0.031283 2.992741
time 16
  0 0.235347 37.432682 3.626586 0.000000 0.000000 -1.522412
  1 0.320321 0.035157 0.000000 -1.570795 -1.570787 0.000000
  2 -0.000005 0.000007 3.713254 -0.002446 -3.167546 -0.197143
  3 18.045725 0.000000 0.000000 -0.000000 -0.000000 -1.132918
  4 17.597599 0.000000 0.000000 -0.025443 0.006046 -0.301192
  5 0.000005 -0.000003 -3.713254 0.015256 3.155234 -0.034111
  6 18.045721 -0.000000 -0.000001 0.000000 0.000000 -0.070175
  7 17.597593 0.000000 -0.000000 0.001718 -0.013827 0.074304
  8 1.293338 0.684453 -0.000001 -0.000004 -0.000001 0.044395
  9 5.309647 -0.003832 -0.000000 0.104414 0.007191 -0.069415
 10 4.826592 -0.004567 -0.000000 0.034875 -0.000324 0.008684
 11 5.792761 -0.005304 -0.000000 -0.139512 0.002529 0.017278
 12 6.661936 -0.000705 0.000000 -0.000000 -0.000001 0.471000
 13 2.044495 -0.000000 -0.000000 -0.001525 -0.005854 -0.192920
 14 -3.112017 1.516413 4.341911 -0.897673 -1.256420 3.542857
 15 -2.869892 1.398824 -4.140396 -0.774188 1.294549 1.914878
 16 4.827231 0.000000 0.000001 0.223972 1.248895 0.204340
 17 11.139763 -0.000000 -0.000000 0.000000 -0.000000 -0.165170
 18 8.575572 -8.394946 9.511936 -1.535143 -1.058019 1.499774
 19 -1.465386 0.506167 4.002137 0.034889 -0.200000 -0.000001
 20 4.972047 0.000000 0.000001 -0.516845 -1.206775 0.536029
 21 -9.249866 0.683183 -1.946118 -0.000014 -1.670796 0.000014
 22 10.313008 -0.000000 0.000000 -1.570000 0.000000 0.296546
 23 1.646738 0.449549 -1.702246 0.154002 0.442277 0.277235
 24 0.928314 0.000000 0.000000 0.000000 0.000000 0.000000
 25 0.928314 -0.000000 -0.000000 0.000000 0.000000 0.000000
 26 2.975832 -0.386307 -0.044144 -0.000797 -0.043611 0.000035
 27 1.438890 0.000003 0.000001 -0.000000 -0.000000 0.314000
 28 1.485299 -0.000005 -0.000000 0.000000 -0.000000 0.104667
 29 11.585355 0.000000 0.000001 0.000000 0.000000 -0.269772
 30 10.125607 -0.000000 0.000001 1.569752 -0.000000 -0.069778
 31 1.533671 0.109715 1.664491 -0.233255 -0.412980 0.435685
 32 0.928314 -0.000001 0.000000 0.000000 0.000000 0.000000
 33 2.683748 -0.427340 0.044205 0.001045 0.043611 0.000046
 34 1.438886 0.000003 0.000000 0.000000 0.000000 0.331444
 35 2.027418 0.730720 12.541074 -1.531161 -0.031283 2.992741
time 17
  0 0.235347 39.786934 3.704714 0.000000 0.000000 -1.540390
  1 0.320321 0.035157 0.000000 -1.570795 -1.570787 0.000000
  2 -0.000005 0.000007 3.713254 -0.005321 -3.167162 -0.306407
  3 18.045725 0.000000 0.000000 -0.000000 -0.000000 -1.266201
  4 17.597599 0.000000 0.000000 -0.025901 0.003540 -0.374896
  5 0.000005 -0.000003 -3.713254 -0.003112 3.158773 0.013279
  6 18.045721 -0.000000 -0.000001 0.000000 0.000000 -0.097994
  7 17.597593 0.000000 -0.000000 0.002285 -0.017385 0.148550
  8 1.293338 0.684453 -0.000001 -0.000004 -0.000001 0.044395
  9 5.309647 -0.003832 -0.000000 0.104414 0.007191 -0.069415
 10 4.826592 -0.004567 -0.000000 0.034875 -0.000324 0.008684
 11 5.792761 -0.005304 -0.000000 -0.139512 0.002529 0.017278
 12 6.661936 -0.000705 0.000000 -0.000000 -0.000001 0.471000
 13 2.044495 -0.000000 -0.000000 -0.001525 -0.005854 -0.192920
 14 -3.112017 1.516413 4.341911 -0.897673 -1.256420 3.542857
 15 -2.869892 1.398824 -4.140396 -0.774188 1.294549 1.914878
 16 4.827231 0.000000 0.000001 0.223972 1.248895 0.204340
 17 11.139763 -0.000000 -0.000000 0.000000 -0.000000 -0.165170
 18 8.575572 -8.394946 9.511936 -1.535143 -1.058019 1.499774
 19 -1.465386 0.506167 4.002137 0.034889 -0.200000 -0.000001
 20 4.972047 0.000000 0.000001 -0.516845 -1.206775 0.536029
 21 -9.249866 0.683183 -1.946118 -0.000014 -1.670796 0.000014
 22 10.313008 -0.000000 0.000000 -1.570000 0.000000 0.296546
 23 1.646738 0.449549 -1.702246 0.154002 0.442277 0.277235
 24 0.928314 0.000000 0.000000 0.000000 0.000000 0.000000
 25 0.928314 -0.000000 -0.000000 0.000000 0.000000 0.000000
 26 2.975832 -0.386307 -0.044144 -0.000797 -0.043611 0.000035
 27 1.438890 0.000003 0.000001 -0.000000 -0.000000 0.314000
 28 1.485299 -0.000005 -0.000000 0.000000 -0.000000 0.104667
 29 11.585355 0.000000 0.000001 0.000000 0.000000 -0.269772
 30 10.125607 -0.000000 0.000001 1.569752 -0.000000 -0.069778
 31 1.533671 0.109715 1.664491 -0.233255 -0.412980 0.435685
 32 0.928314 -0.000001 0.000000 0.000000 0.000000 0.000000
 33 2.683748 -0.427340 0.044205 0.001045 0.043611 0.000046
 34 1.438886 0.000003 0.000000 0.000000 0.000000 0.331444
 35 2.027418 0.730720 12.541074 -1.531161 -0.031283 2.992741
time 18
  0 0.235347 42.141186 3.653931 0.000000 0.000000 -1.559985
  1 0.320321 0.035157 0.000000 -1.570795 -1.570787 0.000000
  2 -0.000005 0.000007 3.713254 -0.006855 -3.166779 -0.396246
  3 18.045725 0.000000 0.000000 -0.000000 -0.000000 -1.303454
  4 17.597599 0.000000 0.000000 -0.025367 0.004614 -0.363916
  5 0.000005 -0.000003 -3.713254 -0.011244 3.159798 0.056163
  6 18.045721 -0.000000 -0.000001 0.000000 0.000000 -0.130739
  7 17.597593 0.000000 -0.000000 0.003238 -0.019047 0.200685
  8 1.293338 0.684453 -0.000001 -0.000004 -0.000001 0.044395
  9 5.309647 -0.003832 -0.000000 0.104414 0.007191 -0.069415
 10 4.826592 -0.004567 -0.000000 0.034875 -0.000324 0.008684
 11 5.792761 -0.005304 -0.000000 -0.139512 0.002529 0.017278
 12 6.661936 -0.000705 0.000000 -0.000000 -0.000001 0.471000
 13 2.044495 -0.000000 -0.000000 -0.001525 -0.005854 -0.192920
 14 -3.112017 1.516413 4.341911 -0.897673 -1.256420 3.542857
 15 -2.869892 1.398824 -4.140396 -0.774188 1.294549 1.914878
 16 4.827231 0.000000 0.000001 0.223972 1.248895 0.204340
 17 11.139763 -0.000000 -0.000000 0.000000 -0.000000 -0.165170
 18 8.575572 -8.394946 9.511936 -1.535143 -1.058019 1.499774
 19 -1.465386 0.506167 4.002137 0.034889 -0.200000 -0.000001
 20 4.972047 0.000000 0.000001 -0.516845 -1.206775 0.536029
 21 -9.249866 0.683183 -1.946118 -0.000014 -1.670796 0.000014
 22 10.313008 -0.000000 0.000000 -1.570000 0.000000 0.296546
 23 1.646738 0.449549 -1.702246 0.154002 0.442277 0.277235
 24 0.928314 0.000000 0.000000 0.000000 0.000000 0.000000
 25 0.928314 -0.000000 -0.000000 0.000000 0.000000 0.000000
 26 2.975832 -0.386307 -0.044144 -0.000797 -0.043611 0.000035
 27 1.438890 0.000003 0.000001 -0.000000 -0.000000 0.314000
 28 1.485299 -0.000005 -0.000000 0.000000 -0.000000 0.104667
 29 11.585355 0.000000 0.000001 0.000000 0.000000 -0.269772
 30 10.125607 -0.000000 0.000001 1.569752 -0.000000 -0.069778
 31 1.533671 0.109715 1.664491 -0.233255 -0.412980 0.435685
 32 0.928314 -0.000001 0.000000 0.000000 0.000000 0.000000
 33 2.683748 -0.427340 0.044205 0.001045 0.043611 0.000046
 34 1.438886 0.000003 0.000000 0.000000 0.000000 0.331444
 35 2.027418 0.730720 12.541074 -1.531161 -0.031283 2.992741
time 19
  0 0.235347 44.495438 3.528927 0.000000 0.000000 -1.580056
  1 0.320321 0.035157 0.000000 -1.570795 -1.570787 0.000000
  2 -0.000005 0.000007 3.713254 -0.007526 -3.166491 -0.479723
  3 18.045725 0.000000 0.000000 -0.000000 -0.000000 -1.278742
  4 17.597599 0.000000 0.000000 -0.023766 0.007891 -0.296616
  5 0.000005 -0.000003 -3.713254 -0.011722 3.159518 0.092457
  6 18.045721 -0.000000 -0.000001 0.000000 0.000000 -0.176886
  7 17.597593 0.000000 -0.000000 0.004600 -0.019000 0.244427
  8 1.293338 0.684453 -0.000001 -0.000004 -0.000001 0.044395
  9 5.309647 -0.003832 -0.000000 0.104414 0.007191 -0.069415
 10 4.826592 -0.004567 -0.000000 0.034875 -0.000324 0.008684
 11 5.792761 -0.005304 -0.000000 -0.139512 0.002529 0.017278
 12 6.661936 -0.000705 0.000000 -0.000000 -0.000001 0.471000
 13 2.044495 -0.000000 -0.000000 -0.001525 -0.005854 -0.192920
 14 -3.112017 1.516413 4.341911 -0.897673 -1.256420 3.542857
 15 -2.869892 1.398824 -4.140396 -0.774188 1.294549 1.914878
 16 4.827231 0.000000 0.000001 0.223972 1.248895 0.204340
 17 11.139763 -0.000000 -0.000000 0.000000 -0.000000 -0.165170
 18 8.575572 -8.394946 9.511936 -1.535143 -1.058019 1.499774
 19 -1.465386 0.506167 4.002137 0.034889 -0.200000 -0.000001
 20 4.972047 0.000000 0.000001 -0.516845 -1.206775 0.536029
 21 -9.249866 0.683183 -1.946118 -0.000014 -1.670796 0.000014
 22 10.313008 -0.000000 0.000000 -1.570000 0.000000 0.296546
 23 1.646738 0.449549 -1.702246 0.154002 0.442277 0.277235
 24 0.928314 0.000000 0.000000 0.000000 0.000000 0.000000
 25 0.928314 -0.000000 -0.000000 0.000000 0.000000 0.000000
 26 2.975832 -0.386307 -0.044144 -0.000797 -0.043611 0.000035
 27 1.438890 0.000003 0.000001 -0.000000 -0.000000 0.314000
 28 1.485299 -0.000005 -0.000000 0.000000 -0.000000 0.104667
 29 11.585355 0.000000 0.000001 0.000000 0.000000 -0.269772
 30 10.125607 -0.000000 0.000001 1.569752 -0.000000 -0.069778
 31 1.533671 0.109715 1.664491 -0.233255 -0.412980 0.435685
 32 0.928314 -0.000001 0.000000 0.000000 0.000000 0.000000
 33 2.683748 -0.427340 0.044205 0.001045 0.043611 0.000046
 34 1.438886 0.000003 0.000000 0.000000 0.000000 0.331444
 35 2.027418 0.730720 12.541074 -1.531161 -0.031283 2.992741
time 20
  0 0.235347 46.849689 3.372672 0.000000 0.000000 -1.599937
  1 0.320321 0.035157 0.000000 -1.570795 -1.570787 0.000000
  2 -0.000005 0.000007 3.713254 -0.008676 -3.166012 -0.566358
  3 18.045725 0.000000 0.000000 -0.000000 -0.000000 -1.202453
  4 17.597599 0.000000 0.000000 -0.020512 0.013619 -0.174141
  5 0.000005 -0.000003 -3.713254 -0.007991 3.158680 0.123954
  6 18.045721 -0.000000 -0.000001 0.000000 0.000000 -0.229336
  7 17.597593 0.000000 -0.000000 0.005621 -0.017830 0.277076
  8 1.293338 0.684453 -0.000001 -0.000004 -0.000001 0.044395
  9 5.309647 -0.003832 -0.000000 0.104414 0.007191 -0.069415
 10 4.826592 -0.004567 -0.000000 0.034875 -0.000324 0.008684
 11 5.792761 -0.005304 -0.000000 -0.139512 0.002529 0.017278
 12 6.661936 -0.000705 0.000000 -0.000000 -0.000001 0.471000
 13 2.044495 -0.000000 -0.000000 -0.001525 -0.005854 -0.192920
 14 -3.112017 1.516413 4.341911 -0.897673 -1.256420 3.542857
 15 -2.869892 1.398824 -4.140396 -0.774188 1.294549 1.914878
 16 4.827231 0.000000 0.000001 0.223972 1.248895 0.204340
 17 11.139763 -0.000000 -0.000000 0.000000 -0.000000 -0.165170
 18 8.575572 -8.394946 9.511936 -1.535143 -1.058019 1.499774
 19 -1.465386 0.506167 4.002137 0.034889 -0.200000 -0.000001
 20 4.972047 0.000000 0.000001 -0.516845 -1.206775 0.536029
 21 -9.249866 0.683183 -1.946118 -0.000014 -1.670796 0.000014
 22 10.313008 -0.000000 0.000000 -1.570000 0.000000 0.296546
 23 1.646738 0.449549 -1.702246 0.154002 0.442277 0.277235
 24 0.928314 0.000000 0.000000 0.000000 0.000000 0.000000
 25 0.928314 -0.000000 -0.000000 0.000000 0.000000 0.000000
 26 2.975832 -0.386307 -0.044144 -0.000797 -0.043611 0.000035
 27 1.438890 0.000003 0.000001 -0.000000 -0.000000 0.314000
 28 1.485299 -0.000005 -0.000000 0.000000 -0.000000 0.104667
 29 11.585355 0.000000 0.000001 0.000000 0.000000 -0.269772
 30 10.125607 -0.000000 0.000001 1.569752 -0.000000 -0.069778
 31 1.533671 0.109715 1.664491 -0.233255 -0.412980 0.435685
 32 0.928314 -0.000001 0.000000 0.000000 0.000000 0.000000
 33 2.683748 -0.427340 0.044205 0.001045 0.043611 0.000046
 34 1.438886 0.000003 0.000000 0.000000 0.000000 0.331444
 35 2.027418 0.730720 12.541074 -1.531161 -0.031283 2.992741
time 21
  0 0.235347 49.203941 3.204698 0.000000 0.000000 -1.618581
  1 0.320321 0.035157 0.000000 -1.570795 -1.570787 0.000000
  2 -0.000005 0.000007 3.713254 -0.013469 -3.163999 -0.642454
  3 18.045725 0.000000 0.000000 -0.000000 -0.000000 -1.094922
  4 17.597599 0.000000 0.000000 -0.013954 0.022128 -0.010353
  5 0.000005 -0.000003 -3.713254 -0.005504 3.158214 0.153367
  6 18.045721 -0.000000 -0.000001 0.000000 0.000000 -0.277729
  7 17.597593 0.000000 -0.000000 0.005258 -0.016706 0.294713
  8 1.293338 0.684453 -0.000001 -0.000004 -0.000001 0.044395
  9 5.309647 -0.003832 -0.000000 0.104414 0.007191 -0.069415
 10 4.826592 -0.004567 -0.000000 0.034875 -0.000324 0.008684
 11 5.792761 -0.005304 -0.000000 -0.139512 0.002529 0.017278
 12 6.661936 -0.000705 0.000000 -0.000000 -0.000001 0.471000
 13 2.044495 -0.000000 -0.000000 -0.001525 -0.005854 -0.192920
 14 -3.112017 1.516413 4.341911 -0.897673 -1.256420 3.542857
 15 -2.869892 1.398824 -4.140396 -0.774188 1.294549 1.914878
 16 4.827231 0.000000 0.000001 0.223972 1.248895 0.204340
 17 11.139763 -0.000000 -0.000000 0.000000 -0.000000 -0.165170
 18 8.575572 -8.394946 9.511936 -1.535143 -1.058019 1.499774
 19 -1.465386 0.506167 4.002137 0.034889 -0.200000 -0.000001
 20 4.972047 0.000000 0.000001 -0.516845 -1.206775 0.536029
 21 -9.249866 0.683183 -1.946118 -0.000014 -1.670796 0.000014
 22 10.313008 -0.000000 0.000000 -1.570000 0.000000 0.296546
 23 1.646738 0.449549 -1.702246 0.154002 0.442277 0.277235
 24 0.928314 0.000000 0.000000 0.000000 0.000000 0.000000
 25 0.928314 -0.000000 -0.000000 0.000000 0.000000 0.000000
 26 2.975832 -0.386307 -0.044144 -0.000797 -0.043611 0.000035
 27 1.438890 0.000003 0.000001 -0.000000 -0.000000 0.314000
 28 1.485299 -0.000005 -0.000000 0.000000 -0.000000 0.104667
 29 11.585355 0.000000 0.000001 0.000000 0.000000 -0.269772
 30 10.125607 -0.000000 0.000001 1.569752 -0.000000 -0.069778
 31 1.533671 0.109715 1.664491 -0.233255 -0.412980 0.435685
 32 0.928314 -0.000001 0.000000 0.000000 0.000000 0.000000
 33 2.683748 -0.427340 0.044205 0.001045 0.043611 0.000046
 34 1.438886 0.000003 0.000000 0.000000 0.000000 0.331444
 35 2.027418 0.730720 12.541074 -1.531161 -0.031283 2.992741
time 22
  0 0.235347 51.558193 3.044537 0.000000 0.000000 -1.635037
  1 0.320321 0.035157 0.000000 -1.570795 -1.570787 0.000000
  2 -0.000005 0.000007 3.713254 -0.053150 -3.149524 -0.573350
  3 18.045725 0.000000 0.000000 -0.000000 -0.000000 -0.817671
  4 17.597599 0.000000 0.000000 0.022242 0.035925 0.391386
  5 0.000005 -0.000003 -3.713254 -0.005982 3.158028 0.181762
  6 18.045721 -0.000000 -0.000001 0.000000 0.000000 -0.321341
  7 17.597593 0.000000 -0.000000 0.001922 -0.015770 0.281846
  8 1.293338 0.684453 -0.000001 -0.000004 -0.000001 0.044395
  9 5.309647 -0.003832 -0.000000 0.104414 0.007191 -0.069415
 10 4.826592 -0.004567 -0.000000 0.034875 -0.000324 0.008684
 11 5.792761 -0.005304 -0.000000 -0.139512 0.002529 0.017278
 12 6.661936 -0.000705 0.000000 -0.000000 -0.000001 0.471000
 13 2.044495 -0.000000 -0.000000 -0.001525 -0.005854 -0.192920
 14 -3.112017 1.516413 4.341911 -0.897673 -1.256420 3.542857
 15 -2.869892 1.398824 -4.140396 -0.774188 1.294549 1.914878
 16 4.827231 0.000000 0.000001 0.223972 1.248895 0.204340
 17 11.139763 -0.000000 -0.000000 0.000000 -0.000000 -0.165170
 18 8.575572 -8.394946 9.511936 -1.535143 -1.058019 1.499774
 19 -1.465386 0.506167 4.002137 0.034889 -0.200000 -0.000001
 20 4.972047 0.000000 0.000001 -0.516845 -1.206775 0.536029
 21 -9.249866 0.683183 -1.946118 -0.000014 -1.670796 0.000014
 22 10.313008 -0.000000 0.000000 -1.570000 0.000000 0.296546
 23 1.646738 0.449549 -1.702246 0.154002 0.442277 0.277235
 24 0.928314 0.000000 0.000000 0.000000 0.000000 0.000000
 25 0.928314 -0.000000 -0.000000 0.000000 0.000000 0.000000
 26 2.975832 -0.386307 -0.044144 -0.000797 -0.043611 0.000035
 27 1.438890 0.000003 0.000001 -0.000000 -0.000000 0.314000
 28 1.485299 -0.000005 -0.000000 0.000000 -0.000000 0.104667
 29 11.585355 0.000000 0.000001 0.000000 0.000000 -0.269772
 30 10.125607 -0.000000 0.000001 1.569752 -0.000000 -0.069778
 31 1.533671 0.109715 1.664491 -0.233255 -0.412980 0.435685
 32 0.928314 -0.000001 0.000000 0.000000 0.000000 0.000000
 33 2.683748 -0.427340 0.044205 0.001045 0.043611 0.000046
 34 1.438886 0.000003 0.000000 0.000000 0.000000 0.331444
 35 2.027418 0.730720 12.541074 -1.531161 -0.031283 2.992741
time 23
  0 0.235347 53.912445 2.814061 0.000000 0.000000 -1.658057
  1 0.320321 0.035157 0.000000 -1.570795 -1.570787 0.000000
  2 -0.000005 0.000007 3.713254 -0.162130 -3.132748 -0.295043
  3 18.045725 0.000000 0.000000 -0.000000 -0.000000 -0.121501
  4 17.597599 0.000000 0.000000 0.070538 0.038651 -0.171167
  5 0.000005 -0.000003 -3.713254 -0.006556 3.157749 0.219801
  6 18.045721 -0.000000 -0.000001 0.000000 0.000000 -0.389149
  7 17.597593 0.000000 -0.000000 -0.007972 -0.014763 0.207674
  8 1.293338 0.684453 -0.000001 -0.000004 -0.000001 0.044395
  9 5.309647 -0.003832 -0.000000 0.104414 0.007191 -0.069415
 10 4.826592 -0.004567 -0.000000 0.034875 -0.000324 0.008684
 11 5.792761 -0.005304 -0.000000 -0.139512 0.002529 0.017278
 12 6.661936 -0.000705 0.000000 -0.000000 -0.000001 0.471000
 13 2.044495 -0.000000 -0.000000 -0.001525 -0.005854 -0.192920
 14 -3.112017 1.516413 4.341911 -0.897673 -1.256420 3.542857
 15 -2.869892 1.398824 -4.140396 -0.774188 1.294549 1.914878
 16 4.827231 0.000000 0.000001 0.223972 1.248895 0.204340
 17 11.139763 -0.000000 -0.000000 0.000000 -0.000000 -0.165170
 18 8.575572 -8.394946 9.511936 -1.535143 -1.058019 1.499774
 19 -1.465386 0.506167 4.002137 0.034889 -0.200000 -0.000001
 20 4.972047 0.000000 0.000001 -0.516845 -1.206775 0.536029
 21 -9.249866 0.683183 -1.946118 -0.000014 -1.670796 0.000014
 22 10.313008 -0.000000 0.000000 -1.570000 0.000000 0.296546
 23 1.646738 0.449549 -1.702246 0.154002 0.442277 0.277235
 24 0.928314 0.000000 0.000000 0.000000 0.000000 0.000000
 25 0.928314 -0.000000 -0.000000 0.000000 0.000000 0.000000
 26 2.975832 -0.386307 -0.044144 -0.000797 -0.043611 0.000035
 27 1.438890 0.000003 0.000001 -0.000000 -0.000000 0.314000
 28 1.485299 -0.000005 -0.000000 0.000000 -0.000000 0.104667
 29 11.585355 0.000000 0.000001 0.000000 0.000000 -0.269772
 30 10.125607 -0.000000 0.000001 1.569752 -0.000000 -0.069778
 31 1.533671 0.109715 1.664491 -0.233255 -0.412980 0.435685
 32 0.928314 -0.000001 0.000000 0.000000 0.000000 0.000000
 33 2.683748 -0.427340 0.044205 0.001045 0.043611 0.000046
 34 1.438886 0.000003 0.000000 0.000000 0.000000 0.331444
 35 2.027418 0.730720 12.541074 -1.531161 -0.031283 2.992741
end
