version 1
nodes
  0 "Bip01"  -1
  1 "Bip01 Pelvis"   0
  2 "Bip01 L Leg"   1
  3 "Bip01 L Leg1"   2
  4 "Bip01 L Foot"   3
  5 "Bip01 R Leg"   1
  6 "Bip01 R Leg1"   5
  7 "Bip01 R Foot"   6
  8 "Bip01 Spine"   1
  9 "Bip01 Spine1"   8
 10 "Bip01 Spine2"   9
 11 "Bip01 Spine3"  10
 12 "Bip01 Neck"  11
 13 "Bip01 Head"  12
 14 "Bip01 L Arm"  12
 15 "Bip01 R Arm"  12
 16 "Bip01 L Arm1"  14
 17 "Bip01 L Arm2"  16
 18 "bone_shield"  17
 19 "bone_root_plate"  14
 20 "Bip01 R Arm1"  15
 21 "bone_plate_root"  20
 22 "Bip01 L Hand"  17
 23 "Bip01 L Finger0"  22
 24 "Bip01 L Finger01"  23
 25 "Bip01 L Finger02"  24
 26 "Bip01 L Finger1"  22
 27 "Bip01 L Finger11"  26
 28 "Bip01 L Finger12"  27
 29 "Bip01 R Arm2"  20
 30 "Bip01 R Hand"  29
 31 "Bip01 R Finger0"  30
 32 "Bip01 R Finger01"  31
 33 "Bip01 R Finger1"  30
 34 "Bip01 R Finger11"  33
 35 "sword"  30
end
skeleton
time 0
  0 0.161126 -0.161126 1.134323 -0.009070 -0.071582 -1.534207
  1 0.863307 0.000000 0.000000 -0.000018 -1.533371 -1.570790
  2 -0.000005 0.000007 3.713254 0.059664 -3.223721 0.001524
  3 18.045725 0.000000 0.000000 -0.000000 -0.000000 -0.725131
  4 17.597599 0.000000 0.000000 -0.001651 0.014253 0.362838
  5 0.000005 -0.000003 -3.713254 0.021761 3.059032 -0.947999
  6 18.045721 -0.000000 -0.000001 0.000000 0.000000 -2.151583
  7 17.597593 0.000000 -0.000000 -0.089301 0.043615 0.492641
  8 1.293338 0.684453 0.046875 -0.000449 0.000323 0.297353
  9 5.309647 -0.003832 -0.000000 -0.184808 -0.056280 0.074188
 10 4.826592 -0.004567 -0.000000 -0.186948 -0.048609 0.088805
 11 5.792761 -0.005304 -0.000000 0.000000 -0.000000 0.141792
 12 6.661936 -0.000705 0.000000 -0.000000 -0.000001 0.706586
 13 2.044495 -0.000000 -0.000000 0.202177 0.135473 -0.772696
 14 -2.674504 2.200027 4.341911 -0.226561 -1.175050 2.643827
 15 -2.467536 2.027750 -4.140396 -0.485706 1.524981 1.948913
 16 4.827231 0.000000 0.000001 -0.403817 0.775820 -0.679786
 17 11.139763 -0.000000 -0.000000 0.000000 -0.000000 -1.676932
 18 8.575572 -8.394946 9.511936 -1.535143 -1.058019 1.499774
 19 -1.465386 0.506167 4.002137 0.034889 -0.200000 -0.000001
 20 4.972047 0.000000 0.000001 -1.005068 -0.779955 0.791387
 21 -9.249866 0.683183 -1.946118 -0.000014 -1.670796 0.000014
 22 10.313008 -0.000000 0.000000 -2.375729 -0.005924 0.646447
 23 1.646738 0.449549 -1.702246 0.154002 0.442277 0.277235
 24 0.928314 0.000000 0.000000 0.000000 0.000000 0.872638
 25 0.928314 -0.000000 -0.000000 0.000000 0.000000 0.000000
 26 2.975832 -0.386307 -0.044144 -0.039855 -0.017712 1.134799
 27 1.438890 0.000003 0.000001 -0.000000 -0.000000 1.623156
 28 1.485299 -0.000005 -0.000000 0.000000 -0.000000 0.000013
 29 11.585355 0.000000 0.000001 0.000000 0.000000 -1.776502
 30 10.125607 -0.000000 0.000001 2.638376 0.220347 0.732521
 31 1.533671 0.109715 1.664491 -0.233255 -0.412980 0.435685
 32 0.928314 -0.000001 0.000000 0.000000 0.000000 0.698124
 33 2.683748 -0.427340 0.044205 0.043602 -0.001044 1.570797
 34 1.438886 0.000003 0.000000 0.000000 0.000000 0.310830
 35 2.027418 0.730720 12.541074 -1.531161 -0.031283 2.992741
time 1
  0 0.165033 3.975128 2.427331 -0.016899 -0.080207 -1.544290
  1 0.863307 0.000000 0.000000 -3.141572 -1.568677 1.570790
  2 -0.000005 0.000007 3.713254 0.062731 -3.160452 0.100055
  3 18.045725 0.000000 0.000000 -0.000000 -0.000000 -0.677487
  4 17.597599 0.000000 0.000000 -0.000508 0.004339 0.359955
  5 0.000005 -0.000003 -3.713254 0.005115 3.119380 -1.007116
  6 18.045721 -0.000000 -0.000001 0.000000 0.000000 -1.899621
  7 17.597593 0.000000 -0.000000 -0.052494 0.028540 0.430264
  8 1.293338 0.684453 -0.000001 -0.000266 0.000035 0.297371
  9 5.309647 -0.003832 -0.000000 -0.196761 -0.033209 0.066537
 10 4.826592 -0.004567 -0.000000 -0.197949 -0.025084 0.081038
 11 5.792761 -0.005304 -0.000000 0.000000 -0.000000 0.141792
 12 6.661936 -0.000705 0.000000 -0.000000 -0.000001 0.706586
 13 2.044495 -0.000000 -0.000000 0.257593 0.104402 -0.750217
 14 -2.674504 2.200027 4.341911 -0.281113 -1.189749 2.695983
 15 -2.467536 2.027750 -4.140396 -0.842642 1.546453 1.591594
 16 4.827231 0.000000 0.000001 -0.440884 0.754970 -0.799676
 17 11.139763 -0.000000 -0.000000 0.000000 -0.000000 -1.589052
 18 8.575572 -8.394946 9.511936 -1.535143 -1.058019 1.499774
 19 -1.465386 0.506167 4.002137 0.034889 -0.200000 -0.000001
 20 4.972047 0.000000 0.000001 -1.061823 -0.687609 0.834285
 21 -9.249866 0.683183 -1.946118 -0.000014 -1.670796 0.000014
 22 10.313008 -0.000000 0.000000 -2.355960 -0.019591 0.639788
 23 1.646738 0.449549 -1.702246 0.154002 0.442277 0.277235
 24 0.928314 0.000000 0.000000 0.000000 0.000000 0.872638
 25 0.928314 -0.000000 -0.000000 0.000000 0.000000 0.000000
 26 2.975832 -0.386307 -0.044144 -0.039855 -0.017712 1.134799
 27 1.438890 0.000003 0.000001 -0.000000 -0.000000 1.623156
 28 1.485299 -0.000005 -0.000000 0.000000 -0.000000 0.000013
 29 11.585355 0.000000 0.000001 0.000000 0.000000 -1.784523
 30 10.125607 -0.000000 0.000001 2.639328 0.235842 0.732446
 31 1.533671 0.109715 1.664491 -0.233255 -0.412980 0.435685
 32 0.928314 -0.000001 0.000000 0.000000 0.000000 0.698124
 33 2.683748 -0.427340 0.044205 0.043602 -0.001044 1.570797
 34 1.438886 0.000003 0.000000 0.000000 0.000000 0.310830
 35 2.027418 0.730720 12.541074 -1.531161 -0.031283 2.992741
time 2
  0 0.168939 8.111382 3.642212 -0.023868 -0.087677 -1.554183
  1 0.863307 0.000000 0.000000 -0.000018 -1.605182 -1.570790
  2 -0.000005 0.000007 3.713254 0.049983 -3.106482 0.204172
  3 18.045725 0.000000 0.000000 -0.000000 -0.000000 -0.619900
  4 17.597599 0.000000 0.000000 0.000789 -0.007309 0.309355
  5 0.000005 -0.000003 -3.713254 -0.008182 3.169017 -1.040939
  6 18.045721 -0.000000 -0.000001 0.000000 0.000000 -1.634908
  7 17.597593 0.000000 -0.000000 -0.021587 0.006069 0.376021
  8 1.293338 0.684453 -0.042971 -0.000187 -0.000181 0.297371
  9 5.309647 -0.003832 -0.000000 -0.206167 -0.012859 0.059786
 10 4.826592 -0.004567 -0.000000 -0.206518 -0.004362 0.074188
 11 5.792761 -0.005304 -0.000000 0.000000 -0.000000 0.141792
 12 6.661936 -0.000705 0.000000 -0.000000 -0.000001 0.706586
 13 2.044495 -0.000000 -0.000000 0.303861 0.072588 -0.732875
 14 -2.674504 2.200027 4.341911 -0.328858 -1.200329 2.742196
 15 -2.467536 2.027750 -4.140396 -1.870018 1.551009 0.564122
 16 4.827231 0.000000 0.000001 -0.449998 0.739312 -0.889550
 17 11.139763 -0.000000 -0.000000 0.000000 -0.000000 -1.508951
 18 8.575572 -8.394946 9.511936 -1.535143 -1.058019 1.499774
 19 -1.465386 0.506167 4.002137 0.034889 -0.200000 -0.000001
 20 4.972047 0.000000 0.000001 -1.104273 -0.603146 0.878586
 21 -9.249866 0.683183 -1.946118 -0.000014 -1.670796 0.000014
 22 10.313008 -0.000000 0.000000 -2.338365 -0.033652 0.633803
 23 1.646738 0.449549 -1.702246 0.154002 0.442277 0.277235
 24 0.928314 0.000000 0.000000 0.000000 0.000000 0.872638
 25 0.928314 -0.000000 -0.000000 0.000000 0.000000 0.000000
 26 2.975832 -0.386307 -0.044144 -0.039855 -0.017712 1.134799
 27 1.438890 0.000003 0.000001 -0.000000 -0.000000 1.623156
 28 1.485299 -0.000005 -0.000000 0.000000 -0.000000 0.000013
 29 11.585355 0.000000 0.000001 0.000000 0.000000 -1.788829
 30 10.125607 -0.000000 0.000001 2.629995 0.264492 0.717930
 31 1.533671 0.109715 1.664491 -0.233255 -0.412980 0.435685
 32 0.928314 -0.000001 0.000000 0.000000 0.000000 0.698124
 33 2.683748 -0.427340 0.044205 0.043602 -0.001044 1.570797
 34 1.438886 0.000003 0.000000 0.000000 0.000000 0.310830
 35 2.027418 0.730720 12.541074 -1.531161 -0.031283 2.992741
time 3
  0 0.172846 12.247637 4.743808 -0.029406 -0.092923 -1.565312
  1 0.863307 0.000000 0.000000 -0.000018 -1.618485 -1.570790
  2 -0.000005 0.000007 3.713254 0.006085 -3.077532 0.329510
  3 18.045725 0.000000 0.000000 -0.000000 -0.000000 -0.520532
  4 17.597599 0.000000 0.000000 0.004347 -0.019977 0.106678
  5 0.000005 -0.000003 -3.713254 -0.028655 3.193324 -0.989091
  6 18.045721 -0.000000 -0.000001 0.000000 0.000000 -1.300865
  7 17.597593 0.000000 -0.000000 -0.011920 0.002090 0.342226
  8 1.293338 0.684453 -0.058597 -0.000554 -0.000205 0.297335
  9 5.309647 -0.003832 -0.000000 -0.207920 0.000024 0.055431
 10 4.826592 -0.004567 -0.000000 -0.207741 0.008581 0.069828
 11 5.792761 -0.005304 -0.000000 0.000000 -0.000000 0.141792
 12 6.661936 -0.000705 0.000000 -0.000000 -0.000001 0.706586
 13 2.044495 -0.000000 -0.000000 0.328852 0.041540 -0.728405
 14 -2.674504 2.200027 4.341911 -0.349854 -1.201962 2.762234
 15 -2.467536 2.027750 -4.140396 -2.205574 1.528478 0.228183
 16 4.827231 0.000000 0.000001 -0.380594 0.748077 -0.904865
 17 11.139763 -0.000000 -0.000000 0.000000 -0.000000 -1.453658
 18 8.575572 -8.394946 9.511936 -1.535143 -1.058019 1.499774
 19 -1.465386 0.506167 4.002137 0.034889 -0.200000 -0.000001
 20 4.972047 0.000000 0.000001 -1.143751 -0.540402 0.965084
 21 -9.249866 0.683183 -1.946118 -0.000014 -1.670796 0.000014
 22 10.313008 -0.000000 0.000000 -2.331710 -0.054055 0.632643
 23 1.646738 0.449549 -1.702246 0.154002 0.442277 0.277235
 24 0.928314 0.000000 0.000000 0.000000 0.000000 0.872638
 25 0.928314 -0.000000 -0.000000 0.000000 0.000000 0.000000
 26 2.975832 -0.386307 -0.044144 -0.039855 -0.017712 1.134799
 27 1.438890 0.000003 0.000001 -0.000000 -0.000000 1.623156
 28 1.485299 -0.000005 -0.000000 0.000000 -0.000000 0.000013
 29 11.585355 0.000000 0.000001 0.000000 0.000000 -1.785054
 30 10.125607 -0.000000 0.000001 2.585612 0.337919 0.653578
 31 1.533671 0.109715 1.664491 -0.233255 -0.412980 0.435685
 32 0.928314 -0.000001 0.000000 0.000000 0.000000 0.698124
 33 2.683748 -0.427340 0.044205 0.043602 -0.001044 1.570797
 34 1.438886 0.000003 0.000000 0.000000 0.000000 0.310830
 35 2.027418 0.730720 12.541074 -1.531161 -0.031283 2.992741
time 4
  0 0.176752 16.383892 5.552426 -0.031793 -0.094435 -1.573493
  1 0.863307 0.000000 0.000000 -0.000018 -1.618761 -1.570790
  2 -0.000005 0.000007 3.713254 -0.030913 -3.072643 0.453148
  3 18.045725 0.000000 0.000000 -0.000000 -0.000000 -0.434893
  4 17.597599 0.000000 0.000000 0.012634 -0.029753 -0.126469
  5 0.000005 -0.000003 -3.713254 -0.045109 3.197608 -0.923335
  6 18.045721 -0.000000 -0.000001 0.000000 0.000000 -1.016810
  7 17.597593 0.000000 -0.000000 -0.006950 0.001247 0.345332
  8 1.293338 0.684453 -0.058597 -0.000842 -0.000145 0.297299
  9 5.309647 -0.003832 -0.000000 -0.206151 0.009396 0.054193
 10 4.826592 -0.004567 -0.000000 -0.205596 0.017869 0.068582
 11 5.792761 -0.005304 -0.000000 0.000000 -0.000000 0.141792
 12 6.661936 -0.000705 0.000000 -0.000000 -0.000001 0.706586
 13 2.044495 -0.000000 -0.000000 0.340651 0.011212 -0.732007
 14 -2.674504 2.200027 4.341911 -0.352347 -1.199695 2.764247
 15 -2.467536 2.027750 -4.140396 -2.188221 1.512091 0.245152
 16 4.827231 0.000000 0.000001 -0.294103 0.769267 -0.885962
 17 11.139763 -0.000000 -0.000000 0.000000 -0.000000 -1.403271
 18 8.575572 -8.394946 9.511936 -1.535143 -1.058019 1.499774
 19 -1.465386 0.506167 4.002137 0.034889 -0.200000 -0.000001
 20 4.972047 0.000000 0.000001 -1.159542 -0.507180 1.047213
 21 -9.249866 0.683183 -1.946118 -0.000014 -1.670796 0.000014
 22 10.313008 -0.000000 0.000000 -2.319057 -0.065215 0.627667
 23 1.646738 0.449549 -1.702246 0.154002 0.442277 0.277235
 24 0.928314 0.000000 0.000000 0.000000 0.000000 0.872638
 25 0.928314 -0.000000 -0.000000 0.000000 0.000000 0.000000
 26 2.975832 -0.386307 -0.044144 -0.039855 -0.017712 1.134799
 27 1.438890 0.000003 0.000001 -0.000000 -0.000000 1.623156
 28 1.485299 -0.000005 -0.000000 0.000000 -0.000000 0.000013
 29 11.585355 0.000000 0.000001 0.000000 0.000000 -1.771489
 30 10.125607 -0.000000 0.000001 2.524656 0.406224 0.575908
 31 1.533671 0.109715 1.664491 -0.233255 -0.412980 0.435685
 32 0.928314 -0.000001 0.000000 0.000000 0.000000 0.698124
 33 2.683748 -0.427340 0.044205 0.043602 -0.001044 1.570797
 34 1.438886 0.000003 0.000000 0.000000 0.000000 0.310830
 35 2.027418 0.730720 12.541074 -1.531161 -0.031283 2.992741
time 5
  0 0.176752 20.524052 5.849310 -0.028451 -0.089277 -1.571495
  1 0.863307 0.000000 0.000000 -0.000018 -1.603133 -1.570790
  2 -0.000005 0.000007 3.713254 -0.011935 -3.092007 0.569550
  3 18.045725 0.000000 0.000000 -0.000000 -0.000000 -0.391554
  4 17.597599 0.000000 0.000000 0.031113 -0.044954 -0.298996
  5 0.000005 -0.000003 -3.713254 -0.044726 3.178051 -0.917375
  6 18.045721 -0.000000 -0.000001 0.000000 0.000000 -0.920386
  7 17.597593 0.000000 -0.000000 -0.002594 -0.003481 0.430634
  8 1.293338 0.684453 -0.039065 -0.000554 -0.000097 0.297353
  9 5.309647 -0.003832 -0.000000 -0.205936 0.016299 0.059666
 10 4.826592 -0.004567 -0.000000 -0.205104 0.024760 0.074078
 11 5.792761 -0.005304 -0.000000 0.000000 -0.000000 0.141792
 12 6.661936 -0.000705 0.000000 -0.000000 -0.000001 0.706586
 13 2.044495 -0.000000 -0.000000 0.343302 -0.017404 -0.746148
 14 -2.674504 2.200027 4.341911 -0.339404 -1.193454 2.751304
 15 -2.467536 2.027750 -4.140396 -2.093210 1.519684 0.340354
 16 4.827231 0.000000 0.000001 -0.243364 0.791393 -0.857784
 17 11.139763 -0.000000 -0.000000 0.000000 -0.000000 -1.341671
 18 8.575572 -8.394946 9.511936 -1.535143 -1.058019 1.499774
 19 -1.465386 0.506167 4.002137 0.034889 -0.200000 -0.000001
 20 4.972047 0.000000 0.000001 -1.128888 -0.528094 1.088863
 21 -9.249866 0.683183 -1.946118 -0.000014 -1.670796 0.000014
 22 10.313008 -0.000000 0.000000 -2.273917 -0.042206 0.603126
 23 1.646738 0.449549 -1.702246 0.154002 0.442277 0.277235
 24 0.928314 0.000000 0.000000 0.000000 0.000000 0.872638
 25 0.928314 -0.000000 -0.000000 0.000000 0.000000 0.000000
 26 2.975832 -0.386307 -0.044144 -0.039855 -0.017712 1.134799
 27 1.438890 0.000003 0.000001 -0.000000 -0.000000 1.623156
 28 1.485299 -0.000005 -0.000000 0.000000 -0.000000 0.000013
 29 11.585355 0.000000 0.000001 0.000000 0.000000 -1.741646
 30 10.125607 -0.000000 0.000001 2.467320 0.425957 0.512604
 31 1.533671 0.109715 1.664491 -0.233255 -0.412980 0.435685
 32 0.928314 -0.000001 0.000000 0.000000 0.000000 0.698124
 33 2.683748 -0.427340 0.044205 0.043602 -0.001044 1.570797
 34 1.438886 0.000003 0.000000 0.000000 0.000000 0.310830
 35 2.027418 0.730720 12.541074 -1.531161 -0.031283 2.992741
time 6
  0 0.180658 24.660305 5.736026 -0.021577 -0.080385 -1.569593
  1 0.863307 0.000000 0.000000 -0.000018 -1.586367 -1.570790
  2 -0.000005 0.000007 3.713254 0.014136 -3.110508 0.639916
  3 18.045725 0.000000 0.000000 -0.000000 -0.000000 -0.440310
  4 17.597599 0.000000 0.000000 0.057041 -0.058998 -0.421471
  5 0.000005 -0.000003 -3.713254 -0.027985 3.152906 -0.909573
  6 18.045721 -0.000000 -0.000001 0.000000 0.000000 -0.900319
  7 17.597593 0.000000 -0.000000 -0.000075 -0.002264 0.516490
  8 1.293338 0.684453 -0.019533 -0.000083 -0.000085 0.297425
  9 5.309647 -0.003832 -0.000000 -0.199472 0.024365 0.064240
 10 4.826592 -0.004567 -0.000000 -0.198321 0.032562 0.078730
 11 5.792761 -0.005304 -0.000000 0.000000 -0.000000 0.141792
 12 6.661936 -0.000705 0.000000 -0.000000 -0.000001 0.706586
 13 2.044495 -0.000000 -0.000000 0.334287 -0.048542 -0.755687
 14 -2.674504 2.200027 4.341911 -0.315723 -1.191309 2.728773
 15 -2.467536 2.027750 -4.140396 -1.491223 1.536529 0.943013
 16 4.827231 0.000000 0.000001 -0.196482 0.830029 -0.814378
 17 11.139763 -0.000000 -0.000000 0.000000 -0.000000 -1.274674
 18 8.575572 -8.394946 9.511936 -1.535143 -1.058019 1.499774
 19 -1.465386 0.506167 4.002137 0.034889 -0.200000 -0.000001
 20 4.972047 0.000000 0.000001 -1.068418 -0.581749 1.089331
 21 -9.249866 0.683183 -1.946118 -0.000014 -1.670796 0.000014
 22 10.313008 -0.000000 0.000000 -2.234247 -0.016912 0.586179
 23 1.646738 0.449549 -1.702246 0.154002 0.442277 0.277235
 24 0.928314 0.000000 0.000000 0.000000 0.000000 0.872638
 25 0.928314 -0.000000 -0.000000 0.000000 0.000000 0.000000
 26 2.975832 -0.386307 -0.044144 -0.039855 -0.017712 1.134799
 27 1.438890 0.000003 0.000001 -0.000000 -0.000000 1.623156
 28 1.485299 -0.000005 -0.000000 0.000000 -0.000000 0.000013
 29 11.585355 0.000000 0.000001 0.000000 0.000000 -1.705256
 30 10.125607 -0.000000 0.000001 2.426937 0.427601 0.490604
 31 1.533671 0.109715 1.664491 -0.233255 -0.412980 0.435685
 32 0.928314 -0.000001 0.000000 0.000000 0.000000 0.698124
 33 2.683748 -0.427340 0.044205 0.043602 -0.001044 1.570797
 34 1.438886 0.000003 0.000000 0.000000 0.000000 0.310830
 35 2.027418 0.730720 12.541074 -1.531161 -0.031283 2.992741
time 7
  0 0.184565 28.796560 5.208666 -0.011075 -0.067847 -1.577488
  1 0.863307 0.000000 0.000000 -0.000018 -1.583155 -1.570790
  2 -0.000005 0.000007 3.713254 -0.005417 -3.113863 0.613742
  3 18.045725 0.000000 0.000000 -0.000000 -0.000000 -0.676003
  4 17.597599 0.000000 0.000000 0.070589 -0.059549 -0.459947
  5 0.000005 -0.000003 -3.713254 0.014682 3.139402 -0.856611
  6 18.045721 -0.000000 -0.000001 0.000000 0.000000 -0.895248
  7 17.597593 0.000000 -0.000000 0.000175 0.000288 0.520853
  8 1.293338 0.684453 -0.015626 0.000232 -0.000121 0.297442
  9 5.309647 -0.003832 -0.000000 -0.178873 0.037152 0.059746
 10 4.826592 -0.004567 -0.000000 -0.177204 0.044499 0.074407
 11 5.792761 -0.005304 -0.000000 0.000000 -0.000000 0.141792
 12 6.661936 -0.000705 0.000000 -0.000000 -0.000001 0.706586
 13 2.044495 -0.000000 -0.000000 0.308038 -0.086367 -0.736476
 14 -2.674504 2.200027 4.341911 -0.280250 -1.206130 2.696846
 15 -2.467536 2.027750 -4.140396 -0.349662 1.505275 2.085245
 16 4.827231 0.000000 0.000001 -0.126903 0.902960 -0.749970
 17 11.139763 -0.000000 -0.000000 0.000000 -0.000000 -1.203263
 18 8.575572 -8.394946 9.511936 -1.535143 -1.058019 1.499774
 19 -1.465386 0.506167 4.002137 0.034889 -0.200000 -0.000001
 20 4.972047 0.000000 0.000001 -0.969956 -0.638138 1.019525
 21 -9.249866 0.683183 -1.946118 -0.000014 -1.670796 0.000014
 22 10.313008 -0.000000 0.000000 -2.234445 -0.026130 0.603949
 23 1.646738 0.449549 -1.702246 0.154002 0.442277 0.277235
 24 0.928314 0.000000 0.000000 0.000000 0.000000 0.872638
 25 0.928314 -0.000000 -0.000000 0.000000 0.000000 0.000000
 26 2.975832 -0.386307 -0.044144 -0.039855 -0.017712 1.134799
 27 1.438890 0.000003 0.000001 -0.000000 -0.000000 1.623156
 28 1.485299 -0.000005 -0.000000 0.000000 -0.000000 0.000013
 29 11.585355 0.000000 0.000001 0.000000 0.000000 -1.670341
 30 10.125607 -0.000000 0.000001 2.427699 0.431459 0.567677
 31 1.533671 0.109715 1.664491 -0.233255 -0.412980 0.435685
 32 0.928314 -0.000001 0.000000 0.000000 0.000000 0.698124
 33 2.683748 -0.427340 0.044205 0.043602 -0.001044 1.570797
 34 1.438886 0.000003 0.000000 0.000000 0.000000 0.310830
 35 2.027418 0.730720 12.541074 -1.531161 -0.031283 2.992741
time 8
  0 0.188471 32.932816 4.388328 -0.001337 -0.056287 -1.589473
  1 0.863307 0.000000 0.000000 -3.141572 -1.550772 1.570790
  2 -0.000005 0.000007 3.713254 -0.038677 -3.105907 0.520260
  3 18.045725 0.000000 0.000000 -0.000000 -0.000000 -0.992141
  4 17.597599 0.000000 0.000000 0.085433 -0.050158 -0.458987
  5 0.000005 -0.000003 -3.713254 0.066245 3.142196 -0.773750
  6 18.045721 -0.000000 -0.000001 0.000000 0.000000 -0.893943
  7 17.597593 0.000000 -0.000000 -0.000347 0.002371 0.489794
  8 1.293338 0.684453 -0.023439 0.000729 -0.000265 0.297425
  9 5.309647 -0.003832 -0.000000 -0.149910 0.056196 0.052415
 10 4.826592 -0.004567 -0.000000 -0.147482 0.062344 0.067300
 11 5.792761 -0.005304 -0.000000 0.000000 -0.000000 0.141792
 12 6.661936 -0.000705 0.000000 -0.000000 -0.000001 0.706586
 13 2.044495 -0.000000 -0.000000 0.275292 -0.126804 -0.714131
 14 -2.674504 2.200027 4.341911 -0.242956 -1.222999 2.663194
 15 -2.467536 2.027750 -4.140396 -0.079779 1.437859 2.355128
 16 4.827231 0.000000 0.000001 -0.041901 0.986444 -0.663246
 17 11.139763 -0.000000 -0.000000 0.000000 -0.000000 -1.124984
 18 8.575572 -8.394946 9.511936 -1.535143 -1.058019 1.499774
 19 -1.465386 0.506167 4.002137 0.034889 -0.200000 -0.000001
 20 4.972047 0.000000 0.000001 -0.836010 -0.700238 0.884358
 21 -9.249866 0.683183 -1.946118 -0.000014 -1.670796 0.000014
 22 10.313008 -0.000000 0.000000 -2.253951 -0.037413 0.630735
 23 1.646738 0.449549 -1.702246 0.154002 0.442277 0.277235
 24 0.928314 0.000000 0.000000 0.000000 0.000000 0.872638
 25 0.928314 -0.000000 -0.000000 0.000000 0.000000 0.000000
 26 2.975832 -0.386307 -0.044144 -0.039855 -0.017712 1.134799
 27 1.438890 0.000003 0.000001 -0.000000 -0.000000 1.623156
 28 1.485299 -0.000005 -0.000000 0.000000 -0.000000 0.000013
 29 11.585355 0.000000 0.000001 0.000000 0.000000 -1.635130
 30 10.125607 -0.000000 0.000001 2.442652 0.428360 0.666898
 31 1.533671 0.109715 1.664491 -0.233255 -0.412980 0.435685
 32 0.928314 -0.000001 0.000000 0.000000 0.000000 0.698124
 33 2.683748 -0.427340 0.044205 0.043602 -0.001044 1.570749
 34 1.438886 0.000003 0.000000 0.000000 0.000000 0.310830
 35 2.027418 0.730720 12.541074 -1.531161 -0.031283 2.992741
time 9
  0 0.192377 37.069069 3.286732 0.002482 -0.052108 -1.603266
  1 0.863307 0.000000 0.000000 -0.000018 -1.615837 -1.570790
  2 -0.000005 0.000007 3.713254 -0.064364 -3.076765 0.363794
  3 18.045725 0.000000 0.000000 -0.000000 -0.000000 -1.331728
  4 17.597599 0.000000 0.000000 0.136830 -0.032727 -0.454915
  5 0.000005 -0.000003 -3.713254 0.109869 3.176840 -0.657406
  6 18.045721 -0.000000 -0.000001 0.000000 0.000000 -0.856924
  7 17.597593 0.000000 -0.000000 -0.000438 0.008574 0.434368
  8 1.293338 0.684453 -0.054690 0.001724 -0.000612 0.297281
  9 5.309647 -0.003832 -0.000000 -0.115044 0.088506 0.044844
 10 4.826592 -0.004567 -0.000000 -0.111301 0.093192 0.060046
 11 5.792761 -0.005304 -0.000000 0.000000 -0.000000 0.141792
 12 6.661936 -0.000705 0.000000 -0.000000 -0.000001 0.706586
 13 2.044495 -0.000000 -0.000000 0.247915 -0.175324 -0.711596
 14 -2.674504 2.200027 4.341911 -0.221863 -1.226363 2.643443
 15 -2.467536 2.027750 -4.140396 0.002863 1.366027 2.437099
 16 4.827231 0.000000 0.000001 0.045467 1.064907 -0.564009
 17 11.139763 -0.000000 -0.000000 0.000000 -0.000000 -1.030376
 18 8.575572 -8.394946 9.511936 -1.535143 -1.058019 1.499774
 19 -1.465386 0.506167 4.002137 0.034889 -0.200000 -0.000001
 20 4.972047 0.000000 0.000001 -0.655806 -0.757110 0.669479
 21 -9.249866 0.683183 -1.946118 -0.000014 -1.670796 0.000014
 22 10.313008 -0.000000 0.000000 -2.285581 -0.021263 0.646709
 23 1.646738 0.449549 -1.702246 0.154002 0.442277 0.277235
 24 0.928314 0.000000 0.000000 0.000000 0.000000 0.872638
 25 0.928314 -0.000000 -0.000000 0.000000 0.000000 0.000000
 26 2.975832 -0.386307 -0.044144 -0.039855 -0.017712 1.134799
 27 1.438890 0.000003 0.000001 -0.000000 -0.000000 1.623156
 28 1.485299 -0.000005 -0.000000 0.000000 -0.000000 0.000013
 29 11.585355 0.000000 0.000001 0.000000 0.000000 -1.598091
 30 10.125607 -0.000000 0.000001 2.451129 0.411727 0.725862
 31 1.533671 0.109715 1.664491 -0.233255 -0.412980 0.435685
 32 0.928314 -0.000001 0.000000 0.000000 0.000000 0.698124
 33 2.683748 -0.427340 0.044205 0.043602 -0.001044 1.570797
 34 1.438886 0.000003 0.000000 0.000000 0.000000 0.310830
 35 2.027418 0.730720 12.541074 -1.531161 -0.031283 2.992741
time 10
  0 0.192377 41.209229 2.224200 0.002960 -0.051663 -1.618581
  1 0.863307 0.000000 0.000000 -0.000018 -1.645283 -1.570790
  2 -0.000005 0.000007 3.713254 -0.076058 -3.044172 0.168625
  3 18.045725 0.000000 0.000000 -0.000000 -0.000000 -1.641484
  4 17.597599 0.000000 0.000000 0.182177 -0.006759 -0.441418
  5 0.000005 -0.000003 -3.713254 0.135029 3.226571 -0.526186
  6 18.045721 -0.000000 -0.000001 0.000000 0.000000 -0.807589
  7 17.597593 0.000000 -0.000000 -0.001028 0.010353 0.377722
  8 1.293338 0.684453 -0.093754 0.002719 -0.000984 0.297084
  9 5.309647 -0.003832 -0.000000 -0.076145 0.120901 0.040769
 10 4.826592 -0.004567 -0.000000 -0.071069 0.123945 0.056236
 11 5.792761 -0.005304 -0.000000 0.000000 -0.000000 0.141792
 12 6.661936 -0.000705 0.000000 -0.000000 -0.000001 0.706586
 13 2.044495 -0.000000 -0.000000 0.223985 -0.219251 -0.720134
 14 -2.674504 2.200027 4.341911 -0.211701 -1.232970 2.634335
 15 -2.467536 2.027750 -4.140396 0.016477 1.304473 2.450138
 16 4.827231 0.000000 0.000001 0.162981 1.135881 -0.422153
 17 11.139763 -0.000000 -0.000000 0.000000 -0.000000 -0.941445
 18 8.575572 -8.394946 9.511936 -1.535143 -1.058019 1.499774
 19 -1.465386 0.506167 4.002137 0.034889 -0.200000 -0.000001
 20 4.972047 0.000000 0.000001 -0.455445 -0.800870 0.401798
 21 -9.249866 0.683183 -1.946118 -0.000014 -1.670796 0.000014
 22 10.313008 -0.000000 0.000000 -2.322220 -0.004449 0.661075
 23 1.646738 0.449549 -1.702246 0.154002 0.442277 0.277235
 24 0.928314 0.000000 0.000000 0.000000 0.000000 0.872638
 25 0.928314 -0.000000 -0.000000 0.000000 0.000000 0.000000
 26 2.975832 -0.386307 -0.044144 -0.039855 -0.017712 1.134799
 27 1.438890 0.000003 0.000001 -0.000000 -0.000000 1.623156
 28 1.485299 -0.000005 -0.000000 0.000000 -0.000000 0.000013
 29 11.585355 0.000000 0.000001 0.000000 0.000000 -1.566597
 30 10.125607 -0.000000 0.000001 2.453986 0.397939 0.754969
 31 1.533671 0.109715 1.664491 -0.233255 -0.412980 0.435685
 32 0.928314 -0.000001 0.000000 0.000000 0.000000 0.698124
 33 2.683748 -0.427340 0.044205 0.043602 -0.001044 1.570797
 34 1.438886 0.000003 0.000000 0.000000 0.000000 0.310830
 35 2.027418 0.730720 12.541074 -1.531161 -0.031283 2.992741
time 11
  0 0.196284 45.345486 1.474177 0.000286 -0.054064 -1.636369
  1 0.863307 0.000000 0.000000 -0.000018 -1.672188 -1.570790
  2 -0.000005 0.000007 3.713254 -0.078838 -3.027588 -0.039511
  3 18.045725 0.000000 0.000000 -0.000000 -0.000000 -1.834061
  4 17.597599 0.000000 0.000000 0.201674 0.024800 -0.434144
  5 0.000005 -0.000003 -3.713254 0.132063 3.274812 -0.396226
  6 18.045721 -0.000000 -0.000001 0.000000 0.000000 -0.756299
  7 17.597593 0.000000 -0.000000 -0.000846 -0.002404 0.355019
  8 1.289432 0.684453 -0.128911 0.003374 -0.001283 0.296851
  9 5.309647 -0.003832 -0.000000 -0.034667 0.142497 0.046262
 10 4.826592 -0.004567 -0.000000 -0.028703 0.143815 0.061951
 11 5.792761 -0.005304 -0.000000 0.000000 -0.000000 0.141792
 12 6.661936 -0.000705 0.000000 -0.000000 -0.000001 0.706586
 13 2.044495 -0.000000 -0.000000 0.211059 -0.246044 -0.750284
 14 -2.674504 2.200027 4.341911 -0.208633 -1.258395 2.633089
 15 -2.467536 2.027750 -4.140396 -0.036828 1.271065 2.399037
 16 4.827231 0.000000 0.000001 0.313881 1.192899 -0.220877
 17 11.139763 -0.000000 -0.000000 0.000000 -0.000000 -0.874869
 18 8.575572 -8.394946 9.511936 -1.535143 -1.058019 1.499774
 19 -1.465386 0.506167 4.002137 0.034889 -0.200000 -0.000001
 20 4.972047 0.000000 0.000001 -0.232605 -0.856696 0.087787
 21 -9.249866 0.683183 -1.946118 -0.000014 -1.670796 0.000014
 22 10.313008 -0.000000 0.000000 -2.353983 -0.012782 0.679855
 23 1.646738 0.449549 -1.702246 0.154002 0.442277 0.277235
 24 0.928314 0.000000 0.000000 0.000000 0.000000 0.872638
 25 0.928314 -0.000000 -0.000000 0.000000 0.000000 0.000000
 26 2.975832 -0.386307 -0.044144 -0.039855 -0.017712 1.134799
 27 1.438890 0.000003 0.000001 -0.000000 -0.000000 1.623156
 28 1.485299 -0.000005 -0.000000 0.000000 -0.000000 0.000013
 29 11.585355 0.000000 0.000001 0.000000 0.000000 -1.545659
 30 10.125607 -0.000000 0.000001 2.441890 0.403758 0.729154
 31 1.533671 0.109715 1.664491 -0.233255 -0.412980 0.435685
 32 0.928314 -0.000001 0.000000 0.000000 0.000000 0.698124
 33 2.683748 -0.427340 0.044205 0.043602 -0.001044 1.570797
 34 1.438886 0.000003 0.000000 0.000000 0.000000 0.310830
 35 2.027418 0.730720 12.541074 -1.531161 -0.031283 2.992741
time 12
  0 0.200190 49.481739 1.165574 -0.003437 -0.057354 -1.650257
  1 0.863307 0.000000 0.000000 -0.000018 -1.685084 -1.570790
  2 -0.000005 0.000007 3.713254 -0.064652 -3.035928 -0.261098
  3 18.045725 0.000000 0.000000 -0.000000 -0.000000 -1.954875
  4 17.597599 0.000000 0.000000 0.194200 0.034713 -0.406327
  5 0.000005 -0.000003 -3.713254 0.108721 3.308804 -0.262535
  6 18.045721 -0.000000 -0.000001 0.000000 0.000000 -0.702617
  7 17.597593 0.000000 -0.000000 0.000946 -0.020053 0.341708
  8 1.289432 0.684453 -0.144537 0.003557 -0.001403 0.296707
  9 5.309647 -0.003832 -0.000000 0.006613 0.151821 0.052894
 10 4.826592 -0.004567 -0.000000 0.012955 0.151413 0.068656
 11 5.792761 -0.005304 -0.000000 0.000000 -0.000000 0.141792
 12 6.661936 -0.000705 0.000000 -0.000000 -0.000001 0.706586
 13 2.044495 -0.000000 -0.000000 0.189251 -0.260836 -0.773296
 14 -2.674504 2.200027 4.341911 -0.220905 -1.289988 2.646799
 15 -2.467536 2.027750 -4.140396 -0.102405 1.259163 2.336624
 16 4.827231 0.000000 0.000001 0.538041 1.217833 0.048832
 17 11.139763 -0.000000 -0.000000 0.000000 -0.000000 -0.837726
 18 8.575572 -8.394946 9.511936 -1.535143 -1.058019 1.499774
 19 -1.465386 0.506167 4.002137 0.034889 -0.200000 -0.000001
 20 4.972047 0.000000 0.000001 0.002403 -0.878576 -0.239952
 21 -9.249866 0.683183 -1.946118 -0.000014 -1.670796 0.000014
 22 10.313008 -0.000000 0.000000 -2.384032 -0.020009 0.698261
 23 1.646738 0.449549 -1.702246 0.154002 0.442277 0.277235
 24 0.928314 0.000000 0.000000 0.000000 0.000000 0.872638
 25 0.928314 -0.000000 -0.000000 0.000000 0.000000 0.000000
 26 2.975832 -0.386307 -0.044144 -0.039855 -0.017712 1.134799
 27 1.438890 0.000003 0.000001 -0.000000 -0.000000 1.623156
 28 1.485299 -0.000005 -0.000000 0.000000 -0.000000 0.000013
 29 11.585355 0.000000 0.000001 0.000000 0.000000 -1.540705
 30 10.125607 -0.000000 0.000001 2.429890 0.420897 0.694210
 31 1.533671 0.109715 1.664491 -0.233255 -0.412980 0.435685
 32 0.928314 -0.000001 0.000000 0.000000 0.000000 0.698124
 33 2.683748 -0.427340 0.044205 0.043602 -0.001044 1.570797
 34 1.438886 0.000003 0.000000 0.000000 0.000000 0.310830
 35 2.027418 0.730720 12.541074 -1.531161 -0.031283 2.992741
time 13
  0 0.204096 53.617992 1.685121 -0.006015 -0.058421 -1.653681
  1 0.863307 0.000000 0.000000 -0.000018 -1.661606 -1.570790
  2 -0.000005 0.000007 3.713254 -0.039444 -3.097950 -0.507695
  3 18.045725 0.000000 0.000000 -0.000000 -0.000000 -2.029531
  4 17.597599 0.000000 0.000000 0.109810 0.007258 -0.314048
  5 0.000005 -0.000003 -3.713254 0.073420 3.284591 -0.138874
  6 18.045721 -0.000000 -0.000001 0.000000 0.000000 -0.688128
  7 17.597593 0.000000 -0.000000 -0.007563 -0.024501 0.337382
  8 1.289432 0.684453 -0.117192 0.002614 -0.001080 0.296923
  9 5.309647 -0.003832 -0.000000 0.045082 0.139429 0.052455
 10 4.826592 -0.004567 -0.000000 0.050851 0.137439 0.068106
 11 5.792761 -0.005304 -0.000000 0.000000 -0.000000 0.141792
 12 6.661936 -0.000705 0.000000 -0.000000 -0.000001 0.706586
 13 2.044495 -0.000000 -0.000000 0.132442 -0.253834 -0.749683
 14 -2.674504 2.200027 4.341911 -0.269129 -1.320045 2.695312
 15 -2.467536 2.027750 -4.140396 -0.170571 1.276927 2.270759
 16 4.827231 0.000000 0.000001 0.817409 1.174091 0.332018
 17 11.139763 -0.000000 -0.000000 0.000000 -0.000000 -0.852724
 18 8.575572 -8.394946 9.511936 -1.535143 -1.058019 1.499774
 19 -1.465386 0.506167 4.002137 0.034889 -0.200000 -0.000001
 20 4.972047 0.000000 0.000001 0.197934 -0.886942 -0.506464
 21 -9.249866 0.683183 -1.946118 -0.000014 -1.670796 0.000014
 22 10.313008 -0.000000 0.000000 -2.411775 -0.003663 0.712140
 23 1.646738 0.449549 -1.702246 0.154002 0.442277 0.277235
 24 0.928314 0.000000 0.000000 0.000000 0.000000 0.872638
 25 0.928314 -0.000000 -0.000000 0.000000 0.000000 0.000000
 26 2.975832 -0.386307 -0.044144 -0.039855 -0.017712 1.134799
 27 1.438890 0.000003 0.000001 -0.000000 -0.000000 1.623156
 28 1.485299 -0.000005 -0.000000 0.000000 -0.000000 0.000013
 29 11.585355 0.000000 0.000001 0.000000 0.000000 -1.563235
 30 10.125607 -0.000000 0.000001 2.435223 0.454544 0.697278
 31 1.533671 0.109715 1.664491 -0.233255 -0.412980 0.435685
 32 0.928314 -0.000001 0.000000 0.000000 0.000000 0.698124
 33 2.683748 -0.427340 0.044205 0.043602 -0.001044 1.570797
 34 1.438886 0.000003 0.000000 0.000000 0.000000 0.310830
 35 2.027418 0.730720 12.541074 -1.531161 -0.031283 2.992741
time 14
  0 0.204096 57.758152 2.528896 -0.008306 -0.059311 -1.648545
  1 0.863307 0.000000 0.000000 -0.000018 -1.627414 -1.570790
  2 -0.000005 0.000007 3.713254 -0.028325 -3.170517 -0.712966
  3 18.045725 0.000000 0.000000 -0.000000 -0.000000 -2.030125
  4 17.597599 0.000000 0.000000 0.018404 -0.002187 -0.224559
  5 0.000005 -0.000003 -3.713254 0.047112 3.246035 -0.038278
  6 18.045721 -0.000000 -0.000001 0.000000 0.000000 -0.673639
  7 17.597593 0.000000 -0.000000 -0.008199 -0.028667 0.187263
  8 1.293338 0.684453 -0.070316 0.001488 -0.000648 0.297191
  9 5.309647 -0.003832 -0.000000 0.077550 0.120589 0.048240
 10 4.826592 -0.004567 -0.000000 0.082490 0.117281 0.063673
 11 5.792761 -0.005304 -0.000000 0.000000 -0.000000 0.141792
 12 6.661936 -0.000705 0.000000 -0.000000 -0.000001 0.706586
 13 2.044495 -0.000000 -0.000000 0.064829 -0.236002 -0.712530
 14 -2.674504 2.200027 4.341911 -0.334706 -1.347201 2.761083
 15 -2.467536 2.027750 -4.140396 -0.222151 1.302142 2.219755
 16 4.827231 0.000000 0.000001 1.009408 1.090012 0.519555
 17 11.139763 -0.000000 -0.000000 0.000000 -0.000000 -0.889726
 18 8.575572 -8.394946 9.511936 -1.535143 -1.058019 1.499774
 19 -1.465386 0.506167 4.002137 0.034889 -0.200000 -0.000001
 20 4.972047 0.000000 0.000001 0.328907 -0.877932 -0.685620
 21 -9.249866 0.683183 -1.946118 -0.000014 -1.670796 0.000014
 22 10.313008 -0.000000 0.000000 -2.435894 0.020943 0.720857
 23 1.646738 0.449549 -1.702246 0.154002 0.442277 0.277235
 24 0.928314 0.000000 0.000000 0.000000 0.000000 0.872638
 25 0.928314 -0.000000 -0.000000 0.000000 0.000000 0.000000
 26 2.975832 -0.386307 -0.044144 -0.039855 -0.017712 1.134799
 27 1.438890 0.000003 0.000001 -0.000000 -0.000000 1.623156
 28 1.485299 -0.000005 -0.000000 0.000000 -0.000000 0.000013
 29 11.585355 0.000000 0.000001 0.000000 0.000000 -1.600156
 30 10.125607 -0.000000 0.000001 2.444652 0.484775 0.711121
 31 1.533671 0.109715 1.664491 -0.233255 -0.412980 0.435685
 32 0.928314 -0.000001 0.000000 0.000000 0.000000 0.698124
 33 2.683748 -0.427340 0.044205 0.043602 -0.001044 1.570797
 34 1.438886 0.000003 0.000000 0.000000 0.000000 0.310830
 35 2.027418 0.730720 12.541074 -1.531161 -0.031283 2.992741
time 15
  0 0.208003 61.894405 3.286732 -0.010884 -0.061267 -1.635227
  1 0.863307 0.000000 0.000000 -0.000018 -1.600412 -1.570790
  2 -0.000005 0.000007 3.713254 -0.019124 -3.222858 -0.828445
  3 18.045725 0.000000 0.000000 -0.000000 -0.000000 -1.958363
  4 17.597599 0.000000 0.000000 -0.012124 -0.000535 -0.191755
  5 0.000005 -0.000003 -3.713254 0.035441 3.207480 0.052577
  6 18.045721 -0.000000 -0.000001 0.000000 0.000000 -0.625101
  7 17.597593 0.000000 -0.000000 -0.005385 -0.016940 0.140120
  8 1.293338 0.684453 -0.035158 0.000808 -0.000349 0.297299
  9 5.309647 -0.003832 -0.000000 0.100364 0.107981 0.042507
 10 4.826592 -0.004567 -0.000000 0.104745 0.103727 0.057812
 11 5.792761 -0.005304 -0.000000 0.000000 -0.000000 0.141792
 12 6.661936 -0.000705 0.000000 -0.000000 -0.000001 0.706586
 13 2.044495 -0.000000 -0.000000 0.001856 -0.224272 -0.683048
 14 -2.674504 2.200027 4.341911 -0.359345 -1.362485 2.786394
 15 -2.467536 2.027750 -4.140396 -0.202593 1.316445 2.237875
 16 4.827231 0.000000 0.000001 1.092658 1.014953 0.595340
 17 11.139763 -0.000000 -0.000000 0.000000 -0.000000 -0.930652
 18 8.575572 -8.394946 9.511936 -1.535143 -1.058019 1.499774
 19 -1.465386 0.506167 4.002137 0.034889 -0.200000 -0.000001
 20 4.972047 0.000000 0.000001 0.360210 -0.857018 -0.748875
 21 -9.249866 0.683183 -1.946118 -0.000014 -1.670796 0.000014
 22 10.313008 -0.000000 0.000000 -2.449205 0.048401 0.714759
 23 1.646738 0.449549 -1.702246 0.154002 0.442277 0.277235
 24 0.928314 0.000000 0.000000 0.000000 0.000000 0.872638
 25 0.928314 -0.000000 -0.000000 0.000000 0.000000 0.000000
 26 2.975832 -0.386307 -0.044144 -0.039855 -0.017712 1.134799
 27 1.438890 0.000003 0.000001 -0.000000 -0.000000 1.623156
 28 1.485299 -0.000005 -0.000000 0.000000 -0.000000 0.000013
 29 11.585355 0.000000 0.000001 0.000000 0.000000 -1.639023
 30 10.125607 -0.000000 0.000001 2.449605 0.494831 0.723991
 31 1.533671 0.109715 1.664491 -0.233255 -0.412980 0.435685
 32 0.928314 -0.000001 0.000000 0.000000 0.000000 0.698124
 33 2.683748 -0.427340 0.044205 0.043602 -0.001044 1.570797
 34 1.438886 0.000003 0.000000 0.000000 0.000000 0.310830
 35 2.027418 0.730720 12.541074 -1.531161 -0.031283 2.992741
time 16
  0 0.211909 66.030663 4.068006 -0.013462 -0.063490 -1.618010
  1 0.863307 0.000000 0.000000 -0.000018 -1.574730 -1.570790
  2 -0.000005 0.000007 3.713254 -0.009251 -3.268871 -0.906047
  3 18.045725 0.000000 0.000000 -0.000000 -0.000000 -1.847344
  4 17.597599 0.000000 0.000000 -0.026282 0.001062 -0.175651
  5 0.000005 -0.000003 -3.713254 0.029606 3.169576 0.143046
  6 18.045721 -0.000000 -0.000001 0.000000 0.000000 -0.576563
  7 17.597593 0.000000 -0.000000 -0.003569 -0.004979 0.093014
  8 1.293338 0.684453 -0.003907 0.000284 -0.000073 0.297371
  9 5.309647 -0.003832 -0.000000 0.119293 0.096524 0.035755
 10 4.826592 -0.004567 -0.000000 0.123178 0.091502 0.050924
 11 5.792761 -0.005304 -0.000000 0.000000 -0.000000 0.141792
 12 6.661936 -0.000705 0.000000 -0.000000 -0.000001 0.706586
 13 2.044495 -0.000000 -0.000000 -0.060653 -0.212249 -0.654499
 14 -2.674504 2.200027 4.341911 -0.369316 -1.373991 2.796941
 15 -2.467536 2.027750 -4.140396 -0.151109 1.328028 2.287441
 16 4.827231 0.000000 0.000001 1.141468 0.941851 0.636207
 17 11.139763 -0.000000 -0.000000 0.000000 -0.000000 -0.976625
 18 8.575572 -8.394946 9.511936 -1.535143 -1.058019 1.499774
 19 -1.465386 0.506167 4.002137 0.034889 -0.200000 -0.000001
 20 4.972047 0.000000 0.000001 0.348878 -0.842458 -0.761744
 21 -9.249866 0.683183 -1.946118 -0.000014 -1.670796 0.000014
 22 10.313008 -0.000000 0.000000 -2.459221 0.077727 0.702975
 23 1.646738 0.449549 -1.702246 0.154002 0.442277 0.277235
 24 0.928314 0.000000 0.000000 0.000000 0.000000 0.872638
 25 0.928314 -0.000000 -0.000000 0.000000 0.000000 0.000000
 26 2.975832 -0.386307 -0.044144 -0.039855 -0.017712 1.134799
 27 1.438890 0.000003 0.000001 -0.000000 -0.000000 1.623156
 28 1.485299 -0.000005 -0.000000 0.000000 -0.000000 0.000013
 29 11.585355 0.000000 0.000001 0.000000 0.000000 -1.681252
 30 10.125607 -0.000000 0.000001 2.453224 0.497298 0.737310
 31 1.533671 0.109715 1.664491 -0.233255 -0.412980 0.435685
 32 0.928314 -0.000001 0.000000 0.000000 0.000000 0.698124
 33 2.683748 -0.427340 0.044205 0.043602 -0.001044 1.570797
 34 1.438886 0.000003 0.000000 0.000000 0.000000 0.310830
 35 2.027418 0.730720 12.541074 -1.531161 -0.031283 2.992741
time 17
  0 0.215816 70.166916 4.841467 -0.015944 -0.065357 -1.601934
  1 0.863307 0.000000 0.000000 -0.000018 -1.555674 -1.570790
  2 -0.000005 0.000007 3.713254 0.002251 -3.302231 -0.959028
  3 18.045725 0.000000 0.000000 -0.000000 -0.000000 -1.700184
  4 17.597599 0.000000 0.000000 -0.034391 0.006928 -0.147972
  5 0.000005 -0.000003 -3.713254 0.027979 3.138192 0.233417
  6 18.045721 -0.000000 -0.000001 0.000000 0.000000 -0.528025
  7 17.597593 0.000000 -0.000000 -0.002798 0.007076 0.045796
  8 1.293338 0.684453 0.019531 -0.000109 0.000119 0.297407
  9 5.309647 -0.003832 -0.000000 0.139759 0.086205 0.029383
 10 4.826592 -0.004567 -0.000000 0.143192 0.080357 0.044367
 11 5.792761 -0.005304 -0.000000 0.000000 -0.000000 0.141792
 12 6.661936 -0.000705 0.000000 -0.000000 -0.000001 0.706586
 13 2.044495 -0.000000 -0.000000 -0.119848 -0.197614 -0.630820
 14 -2.674504 2.200027 4.341911 -0.373822 -1.385936 2.802214
 15 -2.467536 2.027750 -4.140396 -0.108158 1.336539 2.328954
 16 4.827231 0.000000 0.000001 1.171087 0.863218 0.669112
 17 11.139763 -0.000000 -0.000000 0.000000 -0.000000 -1.026522
 18 8.575572 -8.394946 9.511936 -1.535143 -1.058019 1.499774
 19 -1.465386 0.506167 4.002137 0.034889 -0.200000 -0.000001
 20 4.972047 0.000000 0.000001 0.318503 -0.828300 -0.752072
 21 -9.249866 0.683183 -1.946118 -0.000014 -1.670796 0.000014
 22 10.313008 -0.000000 0.000000 -2.472006 0.106020 0.688908
 23 1.646738 0.449549 -1.702246 0.154002 0.442277 0.277235
 24 0.928314 0.000000 0.000000 0.000000 0.000000 0.872638
 25 0.928314 -0.000000 -0.000000 0.000000 0.000000 0.000000
 26 2.975832 -0.386307 -0.044144 -0.039855 -0.017712 1.134799
 27 1.438890 0.000003 0.000001 -0.000000 -0.000000 1.623156
 28 1.485299 -0.000005 -0.000000 0.000000 -0.000000 0.000013
 29 11.585355 0.000000 0.000001 0.000000 0.000000 -1.726901
 30 10.125607 -0.000000 0.000001 2.452938 0.495337 0.742249
 31 1.533671 0.109715 1.664491 -0.233255 -0.412980 0.435685
 32 0.928314 -0.000001 0.000000 0.000000 0.000000 0.698124
 33 2.683748 -0.427340 0.044205 0.043602 -0.001044 1.570797
 34 1.438886 0.000003 0.000000 0.000000 0.000000 0.310830
 35 2.027418 0.730720 12.541074 -1.531161 -0.031283 2.992741
time 18
  0 0.219722 74.303169 5.693056 -0.019286 -0.067580 -1.589283
  1 0.863307 0.000000 0.000000 -0.000018 -1.550856 -1.570790
  2 -0.000005 0.000007 3.713254 0.029855 -3.311721 -0.955726
  3 18.045725 0.000000 0.000000 -0.000000 -0.000000 -1.458035
  4 17.597599 0.000000 0.000000 -0.023994 0.013922 -0.081496
  5 0.000005 -0.000003 -3.713254 0.058209 3.122639 0.352474
  6 18.045721 -0.000000 -0.000001 0.000000 0.000000 -0.446090
  7 17.597593 0.000000 -0.000000 -0.003524 0.009580 -0.121738
  8 1.293338 0.684453 0.023437 -0.000318 0.000179 0.297425
  9 5.309647 -0.003832 -0.000000 0.167681 0.078403 0.023351
 10 4.826592 -0.004567 -0.000000 0.170756 0.071416 0.038139
 11 5.792761 -0.005304 -0.000000 0.000000 -0.000000 0.141792
 12 6.661936 -0.000705 0.000000 -0.000000 -0.000001 0.706586
 13 2.044495 -0.000000 -0.000000 -0.177783 -0.180412 -0.617880
 14 -2.674504 2.200027 4.341911 -0.367974 -1.402732 2.797420
 15 -2.467536 2.027750 -4.140396 -0.102501 1.340706 2.334419
 16 4.827231 0.000000 0.000001 1.183619 0.762289 0.717680
 17 11.139763 -0.000000 -0.000000 0.000000 -0.000000 -1.087211
 18 8.575572 -8.394946 9.511936 -1.535143 -1.058019 1.499774
 19 -1.465386 0.506167 4.002137 0.034889 -0.200000 -0.000001
 20 4.972047 0.000000 0.000001 0.256732 -0.806179 -0.705587
 21 -9.249866 0.683183 -1.946118 -0.000014 -1.670796 0.000014
 22 10.313008 -0.000000 0.000000 -2.496651 0.131732 0.670727
 23 1.646738 0.449549 -1.702246 0.154002 0.442277 0.277235
 24 0.928314 0.000000 0.000000 0.000000 0.000000 0.872638
 25 0.928314 -0.000000 -0.000000 0.000000 0.000000 0.000000
 26 2.975832 -0.386307 -0.044144 -0.039855 -0.017712 1.134799
 27 1.438890 0.000003 0.000001 -0.000000 -0.000000 1.623156
 28 1.485299 -0.000005 -0.000000 0.000000 -0.000000 0.000013
 29 11.585355 0.000000 0.000001 0.000000 0.000000 -1.784464
 30 10.125607 -0.000000 0.000001 2.439414 0.481802 0.721222
 31 1.533671 0.109715 1.664491 -0.233255 -0.412980 0.435685
 32 0.928314 -0.000001 0.000000 0.000000 0.000000 0.698124
 33 2.683748 -0.427340 0.044205 0.043602 -0.001044 1.570797
 34 1.438886 0.000003 0.000000 0.000000 0.000000 0.310830
 35 2.027418 0.730720 12.541074 -1.531161 -0.031283 2.992741
time 19
  0 0.219722 78.443329 6.318075 -0.020145 -0.067491 -1.579390
  1 0.863307 0.000000 0.000000 -0.000018 -1.557472 -1.570790
  2 -0.000005 0.000007 3.713254 0.056022 -3.297917 -0.932756
  3 18.045725 0.000000 0.000000 -0.000000 -0.000000 -1.209355
  4 17.597599 0.000000 0.000000 -0.010751 0.014528 -0.006144
  5 0.000005 -0.000003 -3.713254 0.085378 3.121242 0.471774
  6 18.045721 -0.000000 -0.000001 0.000000 0.000000 -0.364155
  7 17.597593 0.000000 -0.000000 -0.004364 0.009159 -0.289309
  8 1.293338 0.684453 0.015624 -0.000240 0.000131 0.297425
  9 5.309647 -0.003832 -0.000000 0.192462 0.071476 0.020095
 10 4.826592 -0.004567 -0.000000 0.195217 0.063482 0.034695
 11 5.792761 -0.005304 -0.000000 0.000000 -0.000000 0.141792
 12 6.661936 -0.000705 0.000000 -0.000000 -0.000001 0.706586
 13 2.044495 -0.000000 -0.000000 -0.221334 -0.160217 -0.615212
 14 -2.674504 2.200027 4.341911 -0.366632 -1.417383 2.796845
 15 -2.467536 2.027750 -4.140396 -0.121292 1.340353 2.316107
 16 4.827231 0.000000 0.000001 1.166180 0.676592 0.755223
 17 11.139763 -0.000000 -0.000000 0.000000 -0.000000 -1.144606
 18 8.575572 -8.394946 9.511936 -1.535143 -1.058019 1.499774
 19 -1.465386 0.506167 4.002137 0.034889 -0.200000 -0.000001
 20 4.972047 0.000000 0.000001 0.179356 -0.791217 -0.636483
 21 -9.249866 0.683183 -1.946118 -0.000014 -1.670796 0.000014
 22 10.313008 -0.000000 0.000000 -2.518332 0.153266 0.653630
 23 1.646738 0.449549 -1.702246 0.154002 0.442277 0.277235
 24 0.928314 0.000000 0.000000 0.000000 0.000000 0.872638
 25 0.928314 -0.000000 -0.000000 0.000000 0.000000 0.000000
 26 2.975832 -0.386307 -0.044144 -0.039855 -0.017712 1.134799
 27 1.438890 0.000003 0.000001 -0.000000 -0.000000 1.623156
 28 1.485299 -0.000005 -0.000000 0.000000 -0.000000 0.000013
 29 11.585355 0.000000 0.000001 0.000000 0.000000 -1.836897
 30 10.125607 -0.000000 0.000001 2.429604 0.468964 0.700869
 31 1.533671 0.109715 1.664491 -0.233255 -0.412980 0.435685
 32 0.928314 -0.000001 0.000000 0.000000 0.000000 0.698124
 33 2.683748 -0.427340 0.044205 0.043602 -0.001044 1.570797
 34 1.438886 0.000003 0.000000 0.000000 0.000000 0.310830
 35 2.027418 0.730720 12.541074 -1.531161 -0.031283 2.992741
time 20
  0 0.223628 82.579590 6.400108 -0.014512 -0.062245 -1.574159
  1 0.863307 0.000000 0.000000 -0.000018 -1.573507 -1.570790
  2 -0.000005 0.000007 3.713254 0.053146 -3.262161 -0.960728
  3 18.045725 0.000000 0.000000 -0.000000 -0.000000 -1.070804
  4 17.597599 0.000000 0.000000 -0.008413 0.016153 0.037960
  5 0.000005 -0.000003 -3.713254 0.069594 3.138844 0.625769
  6 18.045721 -0.000000 -0.000001 0.000000 0.000000 -0.227814
  7 17.597593 0.000000 -0.000000 -0.018206 0.023578 -0.477254
  8 1.293338 0.684453 -0.000001 0.000127 -0.000037 0.297425
  9 5.309647 -0.003832 -0.000000 0.205109 0.063171 0.023950
 10 4.826592 -0.004567 -0.000000 0.207501 0.054674 0.038395
 11 5.792761 -0.005304 -0.000000 0.000000 -0.000000 0.141792
 12 6.661936 -0.000705 0.000000 -0.000000 -0.000001 0.706586
 13 2.044495 -0.000000 -0.000000 -0.235387 -0.134842 -0.623149
 14 -2.674504 2.200027 4.341911 -0.399708 -1.426573 2.830114
 15 -2.467536 2.027750 -4.140396 -0.160409 1.334950 2.278141
 16 4.827231 0.000000 0.000001 1.121663 0.644339 0.773337
 17 11.139763 -0.000000 -0.000000 0.000000 -0.000000 -1.183641
 18 8.575572 -8.394946 9.511936 -1.535143 -1.058019 1.499774
 19 -1.465386 0.506167 4.002137 0.034889 -0.200000 -0.000001
 20 4.972047 0.000000 0.000001 0.115077 -0.794676 -0.574632
 21 -9.249866 0.683183 -1.946118 -0.000014 -1.670796 0.000014
 22 10.313008 -0.000000 0.000000 -2.520967 0.170964 0.644577
 23 1.646738 0.449549 -1.702246 0.154002 0.442277 0.277235
 24 0.928314 0.000000 0.000000 0.000000 0.000000 0.872638
 25 0.928314 -0.000000 -0.000000 0.000000 0.000000 0.000000
 26 2.975832 -0.386307 -0.044144 -0.039855 -0.017712 1.134799
 27 1.438890 0.000003 0.000001 -0.000000 -0.000000 1.623156
 28 1.485299 -0.000005 -0.000000 0.000000 -0.000000 0.000013
 29 11.585355 0.000000 0.000001 0.000000 0.000000 -1.865206
 30 10.125607 -0.000000 0.000001 2.440462 0.472569 0.709699
 31 1.533671 0.109715 1.664491 -0.233255 -0.412980 0.435685
 32 0.928314 -0.000001 0.000000 0.000000 0.000000 0.698124
 33 2.683748 -0.427340 0.044205 0.043602 -0.001044 1.570797
 34 1.438886 0.000003 0.000000 0.000000 0.000000 0.310830
 35 2.027418 0.730720 12.541074 -1.531161 -0.031283 2.992741
time 21
  0 0.227535 86.715836 6.071973 -0.005156 -0.053798 -1.569117
  1 0.863307 0.000000 0.000000 -3.141572 -1.550293 1.570790
  2 -0.000005 0.000007 3.713254 0.042316 -3.221228 -0.981463
  3 18.045725 0.000000 0.000000 -0.000000 -0.000000 -0.990582
  4 17.597599 0.000000 0.000000 -0.006532 0.013289 0.090757
  5 0.000005 -0.000003 -3.713254 0.052470 3.151230 0.723651
  6 18.045721 -0.000000 -0.000001 0.000000 0.000000 -0.199996
  7 17.597593 0.000000 -0.000000 -0.037154 0.035984 -0.610919
  8 1.293338 0.684453 -0.023439 0.000729 -0.000265 0.297407
  9 5.309647 -0.003832 -0.000000 0.206514 0.053643 0.028784
 10 4.826592 -0.004567 -0.000000 0.208520 0.045098 0.043231
 11 5.792761 -0.005304 -0.000000 0.000000 -0.000000 0.141792
 12 6.661936 -0.000705 0.000000 -0.000000 -0.000001 0.706586
 13 2.044495 -0.000000 -0.000000 -0.229818 -0.105640 -0.632821
 14 -2.674504 2.200027 4.341911 -0.432784 -1.423331 2.862808
 15 -2.467536 2.027750 -4.140396 -0.203743 1.328805 2.236149
 16 4.827231 0.000000 0.000001 1.062600 0.646892 0.773775
 17 11.139763 -0.000000 -0.000000 0.000000 -0.000000 -1.214055
 18 8.575572 -8.394946 9.511936 -1.535143 -1.058019 1.499774
 19 -1.465386 0.506167 4.002137 0.034889 -0.200000 -0.000001
 20 4.972047 0.000000 0.000001 0.050148 -0.816878 -0.507478
 21 -9.249866 0.683183 -1.946118 -0.000014 -1.670796 0.000014
 22 10.313008 -0.000000 0.000000 -2.515959 0.179887 0.638890
 23 1.646738 0.449549 -1.702246 0.154002 0.442277 0.277235
 24 0.928314 0.000000 0.000000 0.000000 0.000000 0.872638
 25 0.928314 -0.000000 -0.000000 0.000000 0.000000 0.000000
 26 2.975832 -0.386307 -0.044144 -0.039855 -0.017712 1.134799
 27 1.438890 0.000003 0.000001 -0.000000 -0.000000 1.623156
 28 1.485299 -0.000005 -0.000000 0.000000 -0.000000 0.000013
 29 11.585355 0.000000 0.000001 0.000000 0.000000 -1.875056
 30 10.125607 -0.000000 0.000001 2.467129 0.489771 0.736113
 31 1.533671 0.109715 1.664491 -0.233255 -0.412980 0.435685
 32 0.928314 -0.000001 0.000000 0.000000 0.000000 0.698124
 33 2.683748 -0.427340 0.044205 0.043602 -0.001044 1.570797
 34 1.438886 0.000003 0.000000 0.000000 0.000000 0.310830
 35 2.027418 0.730720 12.541074 -1.531161 -0.031283 2.992741
time 22
  0 0.231441 90.852097 5.318044 0.008497 -0.041615 -1.557702
  1 0.863307 0.000000 0.000000 -0.000018 -1.603612 -1.570790
  2 -0.000005 0.000007 3.713254 0.034073 -3.192949 -0.952472
  3 18.045725 0.000000 0.000000 -0.000000 -0.000000 -0.961640
  4 17.597599 0.000000 0.000000 -0.003888 0.009186 0.195206
  5 0.000005 -0.000003 -3.713254 0.048834 3.152720 0.660900
  6 18.045721 -0.000000 -0.000001 0.000000 0.000000 -0.497091
  7 17.597593 0.000000 -0.000000 -0.064316 0.046634 -0.580082
  8 1.293338 0.684453 -0.039065 0.001829 -0.000552 0.297389
  9 5.309647 -0.003832 -0.000000 0.192909 0.044103 0.029203
 10 4.826592 -0.004567 -0.000000 0.194546 0.036122 0.043744
 11 5.792761 -0.005304 -0.000000 0.000000 -0.000000 0.141792
 12 6.661936 -0.000705 0.000000 -0.000000 -0.000001 0.706586
 13 2.044495 -0.000000 -0.000000 -0.208341 -0.071463 -0.627285
 14 -2.674504 2.200027 4.341911 -0.427799 -1.399222 2.856480
 15 -2.467536 2.027750 -4.140396 -0.233560 1.328064 2.207291
 16 4.827231 0.000000 0.000001 0.993898 0.673869 0.745071
 17 11.139763 -0.000000 -0.000000 0.000000 -0.000000 -1.240896
 18 8.575572 -8.394946 9.511936 -1.535143 -1.058019 1.499774
 19 -1.465386 0.506167 4.002137 0.034889 -0.200000 -0.000001
 20 4.972047 0.000000 0.000001 -0.032987 -0.867475 -0.425036
 21 -9.249866 0.683183 -1.946118 -0.000014 -1.670796 0.000014
 22 10.313008 -0.000000 0.000000 -2.511083 0.172636 0.633503
 23 1.646738 0.449549 -1.702246 0.154002 0.442277 0.277235
 24 0.928314 0.000000 0.000000 0.000000 0.000000 0.872638
 25 0.928314 -0.000000 -0.000000 0.000000 0.000000 0.000000
 26 2.975832 -0.386307 -0.044144 -0.039855 -0.017712 1.134799
 27 1.438890 0.000003 0.000001 -0.000000 -0.000000 1.623156
 28 1.485299 -0.000005 -0.000000 0.000000 -0.000000 0.000013
 29 11.585355 0.000000 0.000001 0.000000 0.000000 -1.865206
 30 10.125607 -0.000000 0.000001 2.520466 0.526707 0.792009
 31 1.533671 0.109715 1.664491 -0.233255 -0.412980 0.435685
 32 0.928314 -0.000001 0.000000 0.000000 0.000000 0.698124
 33 2.683748 -0.427340 0.044205 0.043602 -0.001044 1.570797
 34 1.438886 0.000003 0.000000 0.000000 0.000000 0.310830
 35 2.027418 0.730720 12.541074 -1.531161 -0.031283 2.992741
time 23
  0 0.235347 94.988342 4.275043 0.021100 -0.030678 -1.548190
  1 0.863307 0.000000 0.000000 -0.000018 -1.607184 -1.570790
  2 -0.000005 0.000007 3.713254 0.018545 -3.175023 -0.897112
  3 18.045725 0.000000 0.000000 -0.000000 -0.000000 -0.966315
  4 17.597599 0.000000 0.000000 -0.001601 0.002136 0.302629
  5 0.000005 -0.000003 -3.713254 0.057731 3.140892 0.525512
  6 18.045721 -0.000000 -0.000001 0.000000 0.000000 -0.904376
  7 17.597593 0.000000 -0.000000 -0.092818 0.047968 -0.498884
  8 1.293338 0.684453 -0.046877 0.002483 -0.000696 0.297371
  9 5.309647 -0.003832 -0.000000 0.169682 0.029638 0.028065
 10 4.826592 -0.004567 -0.000000 0.170744 0.022615 0.042755
 11 5.792761 -0.005304 -0.000000 0.000000 -0.000000 0.141792
 12 6.661936 -0.000705 0.000000 -0.000000 -0.000001 0.706586
 13 2.044495 -0.000000 -0.000000 -0.172878 -0.037217 -0.624817
 14 -2.674504 2.200027 4.341911 -0.414952 -1.356562 2.840660
 15 -2.467536 2.027750 -4.140396 -0.265677 1.328735 2.175941
 16 4.827231 0.000000 0.000001 0.900045 0.717951 0.672962
 17 11.139763 -0.000000 -0.000000 0.000000 -0.000000 -1.264232
 18 8.575572 -8.394946 9.511936 -1.535143 -1.058019 1.499774
 19 -1.465386 0.506167 4.002137 0.034889 -0.200000 -0.000001
 20 4.972047 0.000000 0.000001 -0.123554 -0.927564 -0.322315
 21 -9.249866 0.683183 -1.946118 -0.000014 -1.670796 0.000014
 22 10.313008 -0.000000 0.000000 -2.501198 0.156191 0.628453
 23 1.646738 0.449549 -1.702246 0.154002 0.442277 0.277235
 24 0.928314 0.000000 0.000000 0.000000 0.000000 0.872638
 25 0.928314 -0.000000 -0.000000 0.000000 0.000000 0.000000
 26 2.975832 -0.386307 -0.044144 -0.039855 -0.017712 1.134799
 27 1.438890 0.000003 0.000001 -0.000000 -0.000000 1.623156
 28 1.485299 -0.000005 -0.000000 0.000000 -0.000000 0.000013
 29 11.585355 0.000000 0.000001 0.000000 0.000000 -1.837840
 30 10.125607 -0.000000 0.000001 2.578278 0.567184 0.843116
 31 1.533671 0.109715 1.664491 -0.233255 -0.412980 0.435685
 32 0.928314 -0.000001 0.000000 0.000000 0.000000 0.698124
 33 2.683748 -0.427340 0.044205 0.043602 -0.001044 1.570797
 34 1.438886 0.000003 0.000000 0.000000 0.000000 0.310830
 35 2.027418 0.730720 12.541074 -1.531161 -0.031283 2.992741
time 24
  0 0.235347 99.128510 2.970316 0.026160 -0.025609 -1.549427
  1 0.863307 0.000000 0.000000 -0.000018 -1.592467 -1.570790
  2 -0.000005 0.000007 3.713254 -0.011456 -3.175982 -0.825337
  3 18.045725 0.000000 0.000000 -0.000000 -0.000000 -0.992437
  4 17.597599 0.000000 0.000000 -0.000940 -0.011055 0.371851
  5 0.000005 -0.000003 -3.713254 0.076864 3.095445 0.378641
  6 18.045721 -0.000000 -0.000001 0.000000 0.000000 -1.285435
  7 17.597593 0.000000 -0.000000 -0.117144 0.032075 -0.469415
  8 1.293338 0.684453 -0.027346 0.001515 -0.000420 0.297407
  9 5.309647 -0.003832 -0.000000 0.143165 0.001702 0.025248
 10 4.826592 -0.004567 -0.000000 0.143120 -0.004207 0.040117
 11 5.792761 -0.005304 -0.000000 0.000000 -0.000000 0.141792
 12 6.661936 -0.000705 0.000000 -0.000000 -0.000001 0.706586
 13 2.044495 -0.000000 -0.000000 -0.127670 -0.003783 -0.644828
 14 -2.674504 2.200027 4.341911 -0.412555 -1.284137 2.831648
 15 -2.467536 2.027750 -4.140396 -0.315915 1.324108 2.127237
 16 4.827231 0.000000 0.000001 0.755979 0.756842 0.522093
 17 11.139763 -0.000000 -0.000000 0.000000 -0.000000 -1.281542
 18 8.575572 -8.394946 9.511936 -1.535143 -1.058019 1.499774
 19 -1.465386 0.506167 4.002137 0.034889 -0.200000 -0.000001
 20 4.972047 0.000000 0.000001 -0.187647 -0.988217 -0.211405
 21 -9.249866 0.683183 -1.946118 -0.000014 -1.670796 0.000014
 22 10.313008 -0.000000 0.000000 -2.482088 0.134584 0.621046
 23 1.646738 0.449549 -1.702246 0.154002 0.442277 0.277235
 24 0.928314 0.000000 0.000000 0.000000 0.000000 0.872638
 25 0.928314 -0.000000 -0.000000 0.000000 0.000000 0.000000
 26 2.975832 -0.386307 -0.044144 -0.039855 -0.017712 1.134799
 27 1.438890 0.000003 0.000001 -0.000000 -0.000000 1.623156
 28 1.485299 -0.000005 -0.000000 0.000000 -0.000000 0.000013
 29 11.585355 0.000000 0.000001 0.000000 0.000000 -1.783816
 30 10.125607 -0.000000 0.000001 2.617137 0.615819 0.847082
 31 1.533671 0.109715 1.664491 -0.233255 -0.412980 0.435685
 32 0.928314 -0.000001 0.000000 0.000000 0.000000 0.698124
 33 2.683748 -0.427340 0.044205 0.043602 -0.001044 1.570797
 34 1.438886 0.000003 0.000000 0.000000 0.000000 0.310830
 35 2.027418 0.730720 12.541074 -1.531161 -0.031283 2.992741
time 25
  0 0.239254 103.264763 1.689027 0.026160 -0.025609 -1.552946
  1 0.863307 0.000000 0.000000 -1.570795 -1.570451 0.000000
  2 -0.000005 0.000007 3.713254 -0.040690 -3.189210 -0.734673
  3 18.045725 0.000000 0.000000 -0.000000 -0.000000 -1.016333
  4 17.597599 0.000000 0.000000 0.000255 -0.020831 0.422451
  5 0.000005 -0.000003 -3.713254 0.088822 3.044504 0.197656
  6 18.045721 -0.000000 -0.000001 0.000000 0.000000 -1.621578
  7 17.597593 0.000000 -0.000000 -0.125858 0.009276 -0.414544
  8 1.293338 0.684453 -0.000001 0.000048 -0.000013 0.297425
  9 5.309647 -0.003832 -0.000000 0.106712 -0.027756 0.025308
 10 4.826592 -0.004567 -0.000000 0.105476 -0.032143 0.040373
 11 5.792761 -0.005304 -0.000000 0.000000 -0.000000 0.141792
 12 6.661936 -0.000705 0.000000 -0.000000 -0.000001 0.706586
 13 2.044495 -0.000000 -0.000000 -0.075833 0.028076 -0.675377
 14 -2.674504 2.200027 4.341911 -0.405173 -1.213712 2.816212
 15 -2.467536 2.027750 -4.140396 -0.361455 1.327393 2.082464
 16 4.827231 0.000000 0.000001 0.586764 0.797521 0.326505
 17 11.139763 -0.000000 -0.000000 0.000000 -0.000000 -1.306210
 18 8.575572 -8.394946 9.511936 -1.535143 -1.058019 1.499774
 19 -1.465386 0.506167 4.002137 0.034889 -0.200000 -0.000001
 20 4.972047 0.000000 0.000001 -0.284437 -1.044284 -0.057676
 21 -9.249866 0.683183 -1.946118 -0.000014 -1.670796 0.000014
 22 10.313008 -0.000000 0.000000 -2.459551 0.109412 0.615509
 23 1.646738 0.449549 -1.702246 0.154002 0.442277 0.277235
 24 0.928314 0.000000 0.000000 0.000000 0.000000 0.872638
 25 0.928314 -0.000000 -0.000000 0.000000 0.000000 0.000000
 26 2.975832 -0.386307 -0.044144 -0.039855 -0.017712 1.134799
 27 1.438890 0.000003 0.000001 -0.000000 -0.000000 1.623156
 28 1.485299 -0.000005 -0.000000 0.000000 -0.000000 0.000013
 29 11.585355 0.000000 0.000001 0.000000 0.000000 -1.735630
 30 10.125607 -0.000000 0.000001 2.628376 0.634350 0.818348
 31 1.533671 0.109715 1.664491 -0.233255 -0.412980 0.435685
 32 0.928314 -0.000001 0.000000 0.000000 0.000000 0.698124
 33 2.683748 -0.427340 0.044205 0.043602 -0.001044 1.570797
 34 1.438886 0.000003 0.000000 0.000000 0.000000 0.310830
 35 2.027418 0.730720 12.541074 -1.531161 -0.031283 2.992741
time 26
  0 0.243160 107.401016 0.649933 0.020240 -0.032901 -1.551424
  1 0.863307 0.000000 0.000000 -0.000018 -1.550557 -1.570790
  2 -0.000005 0.000007 3.713254 -0.059380 -3.208575 -0.627157
  3 18.045725 0.000000 0.000000 -0.000000 -0.000000 -1.014849
  4 17.597599 0.000000 0.000000 0.002136 -0.017581 0.461797
  5 0.000005 -0.000003 -3.713254 0.088631 3.021128 -0.038957
  6 18.045721 -0.000000 -0.000001 0.000000 0.000000 -1.832392
  7 17.597593 0.000000 -0.000000 -0.122545 0.001856 -0.273151
  8 1.293338 0.684453 0.023437 -0.001130 0.000335 0.297407
  9 5.309647 -0.003832 -0.000000 0.049727 -0.048897 0.034317
 10 4.826592 -0.004567 -0.000000 0.047663 -0.050911 0.049605
 11 5.792761 -0.005304 -0.000000 0.000000 -0.000000 0.141792
 12 6.661936 -0.000705 0.000000 -0.000000 -0.000001 0.706586
 13 2.044495 -0.000000 -0.000000 -0.015909 0.055972 -0.714265
 14 -2.674504 2.200027 4.341911 -0.379671 -1.178072 2.787353
 15 -2.467536 2.027750 -4.140396 -0.390217 1.355963 2.052073
 16 4.827231 0.000000 0.000001 0.371542 0.861346 0.088825
 17 11.139763 -0.000000 -0.000000 0.000000 -0.000000 -1.357579
 18 8.575572 -8.394946 9.511936 -1.535143 -1.058019 1.499774
 19 -1.465386 0.506167 4.002137 0.034889 -0.200000 -0.000001
 20 4.972047 0.000000 0.000001 -0.475509 -1.069060 0.189805
 21 -9.249866 0.683183 -1.946118 -0.000014 -1.670796 0.000014
 22 10.313008 -0.000000 0.000000 -2.437541 0.081906 0.616631
 23 1.646738 0.449549 -1.702246 0.154002 0.442277 0.277235
 24 0.928314 0.000000 0.000000 0.000000 0.000000 0.872638
 25 0.928314 -0.000000 -0.000000 0.000000 0.000000 0.000000
 26 2.975832 -0.386307 -0.044144 -0.039855 -0.017712 1.134799
 27 1.438890 0.000003 0.000001 -0.000000 -0.000000 1.623156
 28 1.485299 -0.000005 -0.000000 0.000000 -0.000000 0.000013
 29 11.585355 0.000000 0.000001 0.000000 0.000000 -1.738284
 30 10.125607 -0.000000 0.000001 2.583707 0.558962 0.744643
 31 1.533671 0.109715 1.664491 -0.233255 -0.412980 0.435685
 32 0.928314 -0.000001 0.000000 0.000000 0.000000 0.698124
 33 2.683748 -0.427340 0.044205 0.043602 -0.001044 1.570797
 34 1.438886 0.000003 0.000000 0.000000 0.000000 0.310830
 35 2.027418 0.730720 12.541074 -1.531161 -0.031283 2.992741
time 27
  0 0.247067 111.537270 0.067884 0.012221 -0.042682 -1.548380
  1 0.863307 0.000000 0.000000 -0.000018 -1.534294 -1.570790
  2 -0.000005 0.000007 3.713254 -0.060243 -3.228993 -0.499100
  3 18.045725 0.000000 0.000000 -0.000000 -0.000000 -0.974033
  4 17.597599 0.000000 0.000000 0.003636 -0.011082 0.486411
  5 0.000005 -0.000003 -3.713254 0.078012 3.012840 -0.278380
  6 18.045721 -0.000000 -0.000001 0.000000 0.000000 -1.965908
  7 17.597593 0.000000 -0.000000 -0.118392 0.004056 -0.104581
  8 1.293338 0.684453 0.046875 -0.001942 0.000598 0.297371
  9 5.309647 -0.003832 -0.000000 -0.010696 -0.062260 0.045963
 10 4.826592 -0.004567 -0.000000 -0.013279 -0.061757 0.061329
 11 5.792761 -0.005304 -0.000000 0.000000 -0.000000 0.141792
 12 6.661936 -0.000705 0.000000 -0.000000 -0.000001 0.706586
 13 2.044495 -0.000000 -0.000000 0.041960 0.082000 -0.748349
 14 -2.674504 2.200027 4.341911 -0.349183 -1.160935 2.756481
 15 -2.467536 2.027750 -4.140396 -0.413610 1.393114 2.026379
 16 4.827231 0.000000 0.000001 0.125124 0.888578 -0.174146
 17 11.139763 -0.000000 -0.000000 0.000000 -0.000000 -1.416236
 18 8.575572 -8.394946 9.511936 -1.535143 -1.058019 1.499774
 19 -1.465386 0.506167 4.002137 0.034889 -0.200000 -0.000001
 20 4.972047 0.000000 0.000001 -0.662773 -1.051524 0.420751
 21 -9.249866 0.683183 -1.946118 -0.000014 -1.670796 0.000014
 22 10.313008 -0.000000 0.000000 -2.418036 0.056193 0.620821
 23 1.646738 0.449549 -1.702246 0.154002 0.442277 0.277235
 24 0.928314 0.000000 0.000000 0.000000 0.000000 0.872638
 25 0.928314 -0.000000 -0.000000 0.000000 0.000000 0.000000
 26 2.975832 -0.386307 -0.044144 -0.039855 -0.017712 1.134799
 27 1.438890 0.000003 0.000001 -0.000000 -0.000000 1.623156
 28 1.485299 -0.000005 -0.000000 0.000000 -0.000000 0.000013
 29 11.585355 0.000000 0.000001 0.000000 0.000000 -1.744477
 30 10.125607 -0.000000 0.000001 2.547991 0.457263 0.685605
 31 1.533671 0.109715 1.664491 -0.233255 -0.412980 0.435685
 32 0.928314 -0.000001 0.000000 0.000000 0.000000 0.698124
 33 2.683748 -0.427340 0.044205 0.043602 -0.001044 1.570797
 34 1.438886 0.000003 0.000000 0.000000 0.000000 0.310830
 35 2.027418 0.730720 12.541074 -1.531161 -0.031283 2.992741
time 28
  0 0.247067 115.677429 0.438989 0.006588 -0.050241 -1.545051
  1 0.863307 0.000000 0.000000 -0.000018 -1.531453 -1.570790
  2 -0.000005 0.000007 3.713254 -0.030721 -3.236087 -0.341031
  3 18.045725 0.000000 0.000000 -0.000000 -0.000000 -0.855444
  4 17.597599 0.000000 0.000000 0.004322 -0.008301 0.491032
  5 0.000005 -0.000003 -3.713254 0.061079 3.018241 -0.459219
  6 18.045721 -0.000000 -0.000001 0.000000 0.000000 -2.030601
  7 17.597593 0.000000 -0.000000 -0.116123 0.017164 0.047460
  8 1.293338 0.684453 0.050782 -0.001758 0.000586 0.297353
  9 5.309647 -0.003832 -0.000000 -0.057150 -0.063698 0.053993
 10 4.826592 -0.004567 -0.000000 -0.059743 -0.061277 0.069278
 11 5.792761 -0.005304 -0.000000 0.000000 -0.000000 0.141792
 12 6.661936 -0.000705 0.000000 -0.000000 -0.000001 0.706586
 13 2.044495 -0.000000 -0.000000 0.084782 0.097828 -0.761156
 14 -2.674504 2.200027 4.341911 -0.319846 -1.160716 2.729060
 15 -2.467536 2.027750 -4.140396 -0.424347 1.426628 2.013723
 16 4.827231 0.000000 0.000001 -0.055483 0.883813 -0.355207
 17 11.139763 -0.000000 -0.000000 0.000000 -0.000000 -1.466903
 18 8.575572 -8.394946 9.511936 -1.535143 -1.058019 1.499774
 19 -1.465386 0.506167 4.002137 0.034889 -0.200000 -0.000001
 20 4.972047 0.000000 0.000001 -0.771917 -1.015808 0.536418
 21 -9.249866 0.683183 -1.946118 -0.000014 -1.670796 0.000014
 22 10.313008 -0.000000 0.000000 -2.405778 0.038913 0.626919
 23 1.646738 0.449549 -1.702246 0.154002 0.442277 0.277235
 24 0.928314 0.000000 0.000000 0.000000 0.000000 0.872638
 25 0.928314 -0.000000 -0.000000 0.000000 0.000000 0.000000
 26 2.975832 -0.386307 -0.044144 -0.039855 -0.017712 1.134799
 27 1.438890 0.000003 0.000001 -0.000000 -0.000000 1.623156
 28 1.485299 -0.000005 -0.000000 0.000000 -0.000000 0.000013
 29 11.585355 0.000000 0.000001 0.000000 0.000000 -1.712510
 30 10.125607 -0.000000 0.000001 2.564849 0.392753 0.689645
 31 1.533671 0.109715 1.664491 -0.233255 -0.412980 0.435685
 32 0.928314 -0.000001 0.000000 0.000000 0.000000 0.698124
 33 2.683748 -0.427340 0.044205 0.043602 -0.001044 1.570797
 34 1.438886 0.000003 0.000000 0.000000 0.000000 0.310830
 35 2.027418 0.730720 12.541074 -1.531161 -0.031283 2.992741
time 29
  0 0.161126 119.903526 1.134323 -0.009070 -0.071582 -1.534207
  1 0.863307 0.000000 0.000000 -0.000018 -1.533371 -1.570790
  2 -0.000005 0.000007 3.713254 0.059664 -3.223721 0.001524
  3 18.045725 0.000000 0.000000 -0.000000 -0.000000 -0.725131
  4 17.597599 0.000000 0.000000 -0.001651 0.014253 0.362838
  5 0.000005 -0.000003 -3.713254 0.021761 3.059032 -0.947999
  6 18.045721 -0.000000 -0.000001 0.000000 0.000000 -2.151583
  7 17.597593 0.000000 -0.000000 -0.089301 0.043615 0.492641
  8 1.293338 0.684453 0.046875 -0.000449 0.000323 0.297353
  9 5.309647 -0.003832 -0.000000 -0.184808 -0.056280 0.074188
 10 4.826592 -0.004567 -0.000000 -0.186948 -0.048609 0.088805
 11 5.792761 -0.005304 -0.000000 0.000000 -0.000000 0.141792
 12 6.661936 -0.000705 0.000000 -0.000000 -0.000001 0.706586
 13 2.044495 -0.000000 -0.000000 0.202177 0.135473 -0.772696
 14 -2.674504 2.200027 4.341911 -0.226561 -1.175050 2.643827
 15 -2.467536 2.027750 -4.140396 -0.485706 1.524981 1.948913
 16 4.827231 0.000000 0.000001 -0.403817 0.775820 -0.679786
 17 11.139763 -0.000000 -0.000000 0.000000 -0.000000 -1.676932
 18 8.575572 -8.394946 9.511936 -1.535143 -1.058019 1.499774
 19 -1.465386 0.506167 4.002137 0.034889 -0.200000 -0.000001
 20 4.972047 0.000000 0.000001 -1.005068 -0.779955 0.791387
 21 -9.249866 0.683183 -1.946118 -0.000014 -1.670796 0.000014
 22 10.313008 -0.000000 0.000000 -2.375729 -0.005924 0.646447
 23 1.646738 0.449549 -1.702246 0.154002 0.442277 0.277235
 24 0.928314 0.000000 0.000000 0.000000 0.000000 0.872638
 25 0.928314 -0.000000 -0.000000 0.000000 0.000000 0.000000
 26 2.975832 -0.386307 -0.044144 -0.039855 -0.017712 1.134799
 27 1.438890 0.000003 0.000001 -0.000000 -0.000000 1.623156
 28 1.485299 -0.000005 -0.000000 0.000000 -0.000000 0.000013
 29 11.585355 0.000000 0.000001 0.000000 0.000000 -1.776502
 30 10.125607 -0.000000 0.000001 2.638376 0.220347 0.732521
 31 1.533671 0.109715 1.664491 -0.233255 -0.412980 0.435685
 32 0.928314 -0.000001 0.000000 0.000000 0.000000 0.698124
 33 2.683748 -0.427340 0.044205 0.043602 -0.001044 1.570797
 34 1.438886 0.000003 0.000000 0.000000 0.000000 0.310830
 35 2.027418 0.730720 12.541074 -1.531161 -0.031283 2.992741
end
