version 1
nodes
  0 "Chaurus" -1
  1 "NPC Root [Root]" 0
  2 "Pelvis [Pelv]" 1
  3 "Spine[Spn0]" 2
  4 "Spine[Spn1]" 3
  5 "Spine[Spn2]" 4
  6 "Ribcage[Spn3]" 5
  7 "[Neck0]" 6
  8 "[Neck1]" 7
  9 "[Neck2]" 8
 10 "[Neck3]" 9
 11 "NPC Head [Head]" 10
 12 "Head[LeftPincher]" 11
 13 "Head[RightPincher]" 11
 14 "R UpperArm[RClv]" 6
 15 "R UpperArm[RUar]" 14
 16 "R UpperArm[RLar]" 15
 17 "R UpperArm[RHnd]" 16
 18 "L UpperArm[RClv]" 6
 19 "L UpperArm[LUar]" 18
 20 "L UpperArm[LLar]" 19
 21 "L UpperArm[LHnd]" 20
 22 "Tail[Tal0]" 2
 23 "Tail[Tal1]" 22
 24 "Tail[Tal2]" 23
 25 "Tail[Tal3]" 24
 26 "[TalRightPincher]" 25
 27 "[TalLeftPincher]" 25
 28 "R Leg[RThg0]" 2
 29 "R Leg[RThg1]" 28
 30 "R Leg[RClf]" 29
 31 "R Leg[RAnkle]" 30
 32 "LLeg[RThg0]" 2
 33 "LLeg[LThg1]" 32
 34 "LLeg[LClf]" 33
 35 "LLeg[LAnkle]" 34
end
skeleton
time 0
  0 0.000000 0.000000 0.000000 0.000000 -0.000000 -1.570796
  1 0.000000 0.000000 0.000000 0.000000 -0.000000 0.000000
  2 0.000000 -2.951586 18.054731 -1.570797 -0.261799 1.570797
  3 4.222169 -0.467508 0.000000 0.008406 -0.000297 -0.172506
  4 4.476987 -0.000002 -0.000000 0.009095 -0.014595 -0.087911
  5 4.477083 0.000000 0.000002 -0.009550 0.027545 -0.063592
  6 4.477077 -0.000004 -0.000002 -0.008694 -0.014598 -0.007866
  7 5.413502 -7.700466 -0.000000 0.000000 0.000000 -0.453786
  8 6.890240 0.000002 -0.000000 0.000000 0.000000 -0.000000
  9 8.011925 0.000004 0.000005 0.000000 0.000000 -0.000000
 10 7.210720 -0.000002 -0.000000 0.000000 0.000000 -0.000000
 11 8.581028 -0.304903 -0.000000 0.001405 0.002301 1.050566
 12 22.523008 2.194031 6.355708 0.000000 -0.000000 0.000000
 13 22.523005 2.194038 -6.355709 0.000000 -0.000000 0.000000
 14 -3.006533 7.804720 -11.355459 0.108324 0.270361 1.510860
 15 10.384675 0.000008 0.000005 -0.008195 0.181198 -1.892750
 16 22.550743 -0.000006 -0.000004 0.131742 0.036609 2.064336
 17 30.814247 -0.000015 -0.000004 2.662439 -0.000215 0.531983
 18 -3.013796 7.815494 11.355459 -0.182765 -0.248304 1.529165
 19 10.374533 -0.000002 0.000007 0.013925 -0.188678 -1.918021
 20 22.550726 -0.000027 -0.000013 -0.127930 -0.012466 2.057289
 21 30.814270 -0.000023 0.000002 -2.628438 -0.083137 0.533023
 22 -4.250660 -0.770624 0.000001 0.000000 -0.000000 -2.983957
 23 10.363422 0.000000 0.000000 -0.000000 -0.020142 0.008171
 24 10.363076 0.000000 -0.000000 0.000000 0.040277 -0.000000
 25 10.363081 -0.000004 -0.000002 -0.001930 -0.020043 0.096012
 26 8.210358 -0.000006 -7.703991 0.000000 0.000000 -0.000000
 27 8.210346 -0.000002 7.704017 0.000000 0.000000 -0.000000
 28 1.854841 1.227791 -13.762345 2.693081 0.174438 2.475398
 29 10.456543 -0.000004 0.000004 0.046753 0.092263 -1.244068
 30 24.248093 0.000001 0.000007 0.027092 0.031179 0.925669
 31 26.336971 0.000019 0.000002 0.317183 -0.054601 0.968053
 32 1.854847 1.227798 13.762341 -2.735031 -0.196214 2.479249
 33 10.456542 -0.000008 0.000004 -0.063201 -0.089519 -1.239522
 34 24.248116 0.000002 -0.000004 -0.027401 -0.031664 0.934097
 35 26.336975 0.000000 0.000004 -0.303314 0.000501 0.964539
time 1
  0 0.000000 0.000000 0.000000 0.000000 -0.000000 -1.570796
  1 0.000000 0.000000 0.000000 0.000000 -0.000000 0.000000
  2 0.000000 -2.951586 18.054731 -1.570797 -0.261799 1.570797
  3 4.222169 -0.467508 0.000000 0.008406 -0.000297 -0.172506
  4 4.476987 -0.000002 -0.000000 0.009095 -0.014595 -0.087911
  5 4.477083 0.000000 0.000002 -0.009550 0.027545 -0.063592
  6 4.477077 -0.000004 -0.000002 -0.008694 -0.014598 -0.007866
  7 5.413502 -7.700466 -0.000000 0.000000 0.000000 -0.453786
  8 6.890240 0.000002 -0.000000 0.000000 0.000000 -0.000000
  9 8.011925 0.000004 0.000005 0.000000 0.000000 -0.000000
 10 7.210720 -0.000002 -0.000000 0.000000 0.000000 -0.000000
 11 8.581028 -0.304903 -0.000000 0.001405 0.002301 1.050566
 12 22.523008 2.194031 6.355708 0.000000 -0.000000 0.000000
 13 22.523005 2.194038 -6.355709 0.000000 -0.000000 0.000000
 14 -3.006533 7.804720 -11.355459 0.108324 0.270361 1.510860
 15 10.384675 0.000008 0.000005 -0.008195 0.181198 -1.892750
 16 22.550743 -0.000006 -0.000004 0.131742 0.036609 2.064336
 17 30.814247 -0.000015 -0.000004 2.662439 -0.000215 0.531983
 18 -3.013796 7.815494 11.355459 -0.182765 -0.248304 1.529165
 19 10.374533 -0.000002 0.000007 0.013925 -0.188678 -1.918021
 20 22.550726 -0.000027 -0.000013 -0.127930 -0.012466 2.057289
 21 30.814270 -0.000023 0.000002 -2.628438 -0.083137 0.533023
 22 -4.250660 -0.770624 0.000001 0.000000 -0.000000 -2.983957
 23 10.363422 0.000000 0.000000 -0.000000 -0.020142 0.008171
 24 10.363076 0.000000 -0.000000 0.000000 0.040277 -0.000000
 25 10.363081 -0.000004 -0.000002 -0.001930 -0.020043 0.096012
 26 8.210358 -0.000006 -7.703991 0.000000 0.000000 -0.000000
 27 8.210346 -0.000002 7.704017 0.000000 0.000000 -0.000000
 28 1.854841 1.227791 -13.762345 2.693081 0.174438 2.475398
 29 10.456543 -0.000004 0.000004 0.046753 0.092263 -1.244068
 30 24.248093 0.000001 0.000007 0.027092 0.031179 0.925669
 31 26.336971 0.000019 0.000002 0.317183 -0.054601 0.968053
 32 1.854847 1.227798 13.762341 -2.735031 -0.196214 2.479249
 33 10.456542 -0.000008 0.000004 -0.063201 -0.089519 -1.239522
 34 24.248116 0.000002 -0.000004 -0.027401 -0.031664 0.934097
 35 26.336975 0.000000 0.000004 -0.303314 0.000501 0.964539
time 2
  0 0.000000 0.000000 0.000000 0.000000 -0.000000 -1.570796
  1 0.000000 0.000000 0.000000 0.000000 -0.000000 0.000000
  2 0.296884 -3.062801 18.469790 -1.570826 -0.243201 1.570920
  3 4.222169 -0.467508 0.000000 0.009394 0.000167 -0.199061
  4 4.476987 -0.000002 -0.000000 0.008458 -0.014857 -0.121792
  5 4.477083 0.000000 0.000002 -0.009656 0.027724 -0.058300
  6 4.477077 -0.000004 -0.000002 -0.009919 -0.013777 0.027155
  7 5.413502 -7.700466 -0.000000 -0.001063 0.006100 -0.471148
  8 6.890240 0.000002 -0.000000 -0.000120 -0.000183 0.041819
  9 8.011925 0.000004 0.000005 -0.000052 0.000288 0.017027
 10 7.210720 -0.000002 -0.000000 0.000000 0.000000 -0.010325
 11 8.581028 -0.304903 -0.000000 0.001409 0.002299 1.052178
 12 22.523008 2.194031 6.355708 0.000000 -0.001650 0.000000
 13 22.523005 2.194038 -6.355709 0.000000 0.001452 0.000000
 14 -3.006533 7.804720 -11.355459 0.110467 0.269876 1.517471
 15 10.384675 0.000008 0.000005 -0.005906 0.181714 -1.879427
 16 22.550743 -0.000006 -0.000004 0.130999 0.036916 2.052156
 17 30.814247 -0.000015 -0.000004 2.662348 0.004250 0.531399
 18 -3.013796 7.815494 11.355459 -0.170484 -0.248604 1.540349
 19 10.374533 -0.000002 0.000007 0.011887 -0.189144 -1.907518
 20 22.550726 -0.000027 -0.000013 -0.126933 -0.012597 2.043795
 21 30.814270 -0.000023 0.000002 -2.639948 -0.076478 0.544874
 22 -4.250660 -0.770624 0.000001 -0.008569 0.023446 -3.015811
 23 10.363422 0.000000 0.000000 -0.000349 -0.029651 0.063010
 24 10.363076 0.000000 -0.000000 0.001104 0.026545 -0.021686
 25 10.363081 -0.000004 -0.000002 0.006113 -0.037579 0.065154
 26 8.210358 -0.000006 -7.703991 0.000000 0.000000 -0.014539
 27 8.210346 -0.000002 7.704017 0.000000 0.000000 -0.014479
 28 1.854841 1.227791 -13.762345 2.681408 0.168504 2.441963
 29 10.456543 -0.000004 0.000004 0.042276 0.093095 -1.293398
 30 24.248093 0.000001 0.000007 0.028440 0.032351 0.968542
 31 26.336971 0.000019 0.000002 0.325820 -0.059691 0.957935
 32 1.854847 1.227798 13.762341 -2.722726 -0.190372 2.445461
 33 10.456542 -0.000008 0.000004 -0.058437 -0.090808 -1.288207
 34 24.248116 0.000002 -0.000004 -0.028600 -0.032456 0.973046
 35 26.336975 0.000000 0.000004 -0.308972 0.002358 0.957384
time 3
  0 0.000000 0.000000 0.000000 0.000000 -0.000000 -1.570796
  1 0.000000 0.000000 0.000000 0.000000 -0.000000 0.000000
  2 0.808618 -3.275119 19.262177 -1.570757 -0.196994 1.571081
  3 4.222169 -0.467508 0.000000 0.012542 0.000819 -0.270022
  4 4.476987 -0.000002 -0.000000 0.006886 -0.015692 -0.210028
  5 4.477083 0.000000 0.000002 -0.010358 0.028228 -0.033052
  6 4.477077 -0.000004 -0.000002 -0.011248 -0.013308 0.091398
  7 5.413502 -7.700466 -0.000000 -0.002180 0.012081 -0.499494
  8 6.890240 0.000002 -0.000000 0.000000 -0.001085 0.096925
  9 8.011925 0.000004 0.000005 -0.000026 0.000495 0.033899
 10 7.210720 -0.000002 -0.000000 0.000000 0.000000 -0.020998
 11 8.581028 -0.304903 -0.000000 0.001430 0.002320 1.061397
 12 22.523008 2.194031 6.355708 0.000000 -0.613544 0.000000
 13 22.523005 2.194038 -6.355709 0.000000 0.540158 0.000000
 14 -3.006533 7.804720 -11.355459 0.116640 0.271159 1.535408
 15 10.384675 0.000008 0.000005 0.000073 0.182908 -1.843794
 16 22.550743 -0.000006 -0.000004 0.129307 0.037467 2.018199
 17 30.814247 -0.000015 -0.000004 2.661999 0.015767 0.541598
 18 -3.013796 7.815494 11.355459 -0.145859 -0.249673 1.559117
 19 10.374533 -0.000002 0.000007 0.007383 -0.190455 -1.885329
 20 22.550726 -0.000027 -0.000013 -0.124361 -0.012862 2.008989
 21 30.814270 -0.000023 0.000002 -2.655893 -0.066592 0.559640
 22 -4.250660 -0.770624 0.000001 -0.023310 0.061543 -3.075422
 23 10.363422 0.000000 0.000000 -0.001520 -0.042666 0.153154
 24 10.363076 0.000000 -0.000000 0.002140 0.000532 -0.044745
 25 10.363081 -0.000004 -0.000002 0.019395 -0.072758 0.020578
 26 8.210358 -0.000006 -7.703991 0.000000 0.000000 -0.049121
 27 8.210346 -0.000002 7.704017 0.000000 0.000000 -0.048863
 28 1.854841 1.227791 -13.762345 2.653537 0.155732 2.370134
 29 10.456543 -0.000004 0.000004 0.035051 0.093378 -1.367927
 30 24.248093 0.000001 0.000007 0.029946 0.033354 1.020007
 31 26.336971 0.000019 0.000002 0.345238 -0.072509 0.948696
 32 1.854847 1.227798 13.762341 -2.693223 -0.176996 2.371996
 33 10.456542 -0.000008 0.000004 -0.051523 -0.092460 -1.362158
 34 24.248116 0.000002 -0.000004 -0.030244 -0.033745 1.024262
 35 26.336975 0.000000 0.000004 -0.324369 0.013550 0.944229
time 4
  0 0.000000 0.000000 0.000000 0.000000 -0.000000 -1.570796
  1 0.000000 0.000000 0.000000 0.000000 -0.000000 0.000000
  2 1.437543 -3.549111 20.284731 -1.570472 -0.133628 1.571239
  3 4.222169 -0.467508 0.000000 0.016887 0.001732 -0.365853
  4 4.476987 -0.000002 -0.000000 0.004888 -0.017107 -0.330111
  5 4.477083 0.000000 0.000002 -0.011401 0.028891 0.000380
  6 4.477077 -0.000004 -0.000002 -0.012789 -0.012533 0.159406
  7 5.413502 -7.700466 -0.000000 -0.003708 0.017858 -0.540846
  8 6.890240 0.000002 -0.000000 -0.000060 -0.001987 0.152148
  9 8.011925 0.000004 0.000005 0.000052 0.000591 0.050771
 10 7.210720 -0.000002 -0.000000 0.000000 0.000000 -0.032181
 11 8.581028 -0.304903 -0.000000 0.001484 0.002351 1.075136
 12 22.523008 2.194031 6.355708 0.000000 -0.284988 0.000000
 13 22.523005 2.194038 -6.355709 0.000000 0.238665 0.000000
 14 -3.006533 7.804720 -11.355459 0.125013 0.273273 1.559577
 15 10.384675 0.000008 0.000005 0.008436 0.184230 -1.794303
 16 22.550743 -0.000006 -0.000004 0.126996 0.038033 1.970691
 17 30.814247 -0.000015 -0.000004 2.661680 0.031558 0.558741
 18 -3.013796 7.815494 11.355459 -0.120207 -0.251380 1.578521
 19 10.374533 -0.000002 0.000007 -0.003746 -0.194672 -1.826498
 20 22.550726 -0.000027 -0.000013 -0.120794 -0.013090 1.961049
 21 30.814270 -0.000023 0.000002 -2.672476 -0.056031 0.574813
 22 -4.250660 -0.770624 0.000001 -0.043540 0.103122 3.121344
 23 10.363422 0.000000 0.000000 -0.003789 -0.056219 0.247224
 24 10.363076 0.000000 -0.000000 0.003363 -0.029117 -0.065788
 25 10.363081 -0.000004 -0.000002 0.035974 -0.113058 -0.026728
 26 8.210358 -0.000006 -7.703991 0.000000 0.000000 -0.090598
 27 8.210346 -0.000002 7.704017 0.000000 0.000000 -0.090131
 28 1.854841 1.227791 -13.762345 2.617027 0.136137 2.275352
 29 10.456543 -0.000004 0.000004 0.027538 0.093140 -1.444286
 30 24.248093 0.000001 0.000007 0.031694 0.034332 1.072425
 31 26.336971 0.000019 0.000002 0.368509 -0.088382 0.932595
 32 1.854847 1.227798 13.762341 -2.654631 -0.156045 2.274923
 33 10.456542 -0.000008 0.000004 -0.044156 -0.093528 -1.439182
 34 24.248116 0.000002 -0.000004 -0.032045 -0.034820 1.076036
 35 26.336975 0.000000 0.000004 -0.345641 0.029990 0.927477
time 5
  0 0.000000 0.000000 0.000000 0.000000 -0.000000 -1.570796
  1 0.000000 0.000000 -0.003906 0.000000 -0.000000 0.000000
  2 2.086000 -3.835235 21.352564 -1.570258 -0.065180 1.571356
  3 4.222169 -0.467508 0.000000 0.021438 0.002788 -0.464919
  4 4.476987 -0.000002 -0.000000 0.002969 -0.018928 -0.456466
  5 4.477083 0.000000 0.000002 -0.012529 0.029493 0.029647
  6 4.477077 -0.000004 -0.000002 -0.014344 -0.011501 0.229856
  7 5.413502 -7.700466 -0.000000 -0.005330 0.023516 -0.586181
  8 6.890240 0.000002 -0.000000 -0.000252 -0.002823 0.204997
  9 8.011925 0.000004 0.000005 0.000196 0.000639 0.067539
 10 7.210720 -0.000002 -0.000000 0.000000 0.000000 -0.043712
 11 8.581028 -0.304903 -0.000000 0.001541 0.002380 1.089998
 12 22.523008 2.194031 6.355708 0.000000 0.169074 0.000000
 13 22.523005 2.194038 -6.355709 0.000000 -0.171845 0.000000
 14 -3.006533 7.804720 -11.355459 0.133739 0.275458 1.584304
 15 10.384675 0.000008 0.000005 0.017582 0.185205 -1.740325
 16 22.550743 -0.000006 -0.000004 0.124471 0.038536 1.918672
 17 30.814247 -0.000015 -0.000004 2.661645 0.048703 0.578581
 18 -3.013796 7.815494 11.355459 -0.093913 -0.253735 1.598274
 19 10.374533 -0.000002 0.000007 -0.014495 -0.198027 -1.770716
 20 22.550726 -0.000027 -0.000013 -0.116914 -0.013109 1.908966
 21 30.814270 -0.000023 0.000002 -2.689420 -0.044838 0.590171
 22 -4.250660 -0.770624 0.000001 -0.064992 0.132104 3.021532
 23 10.363422 0.000000 0.000000 -0.006693 -0.069184 0.335171
 24 10.363076 0.000000 -0.000000 0.004508 -0.053219 -0.082142
 25 10.363081 -0.000004 -0.000002 0.051820 -0.145605 -0.065539
 26 8.210358 -0.000006 -7.703991 -0.000012 0.000000 -0.125451
 27 8.210346 -0.000002 7.704017 -0.000012 0.000000 -0.124786
 28 1.854841 1.227791 -13.762345 2.579951 0.111664 2.175180
 29 10.456543 -0.000004 0.000004 0.020236 0.092360 -1.518891
 30 24.248093 0.000001 0.000007 0.033448 0.035221 1.124073
 31 26.336971 0.000019 0.000002 0.399830 -0.109925 0.918247
 32 1.854847 1.227798 13.762341 -2.615535 -0.129736 2.172388
 33 10.456542 -0.000008 0.000004 -0.036531 -0.093979 -1.517840
 34 24.248116 0.000002 -0.000004 -0.033785 -0.035691 1.126691
 35 26.336975 0.000000 0.000004 -0.368472 0.047514 0.910030
time 6
  0 0.000000 0.000000 0.000000 0.000000 -0.000000 -1.570796
  1 0.000000 0.000000 -0.007813 0.000000 -0.000000 0.000000
  2 2.664143 -4.093050 22.314747 -1.570031 -0.002102 1.571435
  3 4.222169 -0.467508 0.000000 0.025344 0.003544 -0.547442
  4 4.476987 -0.000002 -0.000000 0.001498 -0.020901 -0.565799
  5 4.477083 0.000000 0.000002 -0.013504 0.029783 0.043865
  6 4.477077 -0.000004 -0.000002 -0.015634 -0.010401 0.297968
  7 5.413502 -7.700466 -0.000000 -0.007191 0.029038 -0.635094
  8 6.890240 0.000002 -0.000000 -0.000479 -0.003529 0.253867
  9 8.011925 0.000004 0.000005 0.000380 0.000623 0.084514
 10 7.210720 -0.000002 -0.000000 0.000000 0.000000 -0.055726
 11 8.581028 -0.304903 -0.000000 0.001592 0.002395 1.102861
 12 22.523008 2.194031 6.355708 0.000000 0.402002 0.000000
 13 22.523005 2.194038 -6.355709 0.000000 -0.356879 0.000000
 14 -3.006533 7.804720 -11.355459 0.140826 0.277130 1.604399
 15 10.384675 0.000008 0.000005 0.026110 0.185652 -1.690348
 16 22.550743 -0.000006 -0.000004 0.122143 0.038867 1.870375
 17 30.814247 -0.000015 -0.000004 2.661900 0.064501 0.597357
 18 -3.013796 7.815494 11.355459 -0.066708 -0.256627 1.618543
 19 10.374533 -0.000002 0.000007 -0.023844 -0.200355 -1.722574
 20 22.550726 -0.000027 -0.000013 -0.113334 -0.012960 1.860754
 21 30.814270 -0.000023 0.000002 -2.706971 -0.032798 0.605929
 22 -4.250660 -0.770624 0.000001 -0.087691 0.145472 2.899034
 23 10.363422 0.000000 0.000000 -0.006943 -0.078461 0.378531
 24 10.363076 0.000000 -0.000000 0.003895 -0.064120 -0.068730
 25 10.363081 -0.000004 -0.000002 0.058202 -0.161097 -0.058343
 26 8.210358 -0.000006 -7.703991 0.000330 0.000000 -0.134148
 27 8.210346 -0.000002 7.704017 0.000336 0.000000 -0.133433
 28 1.854841 1.227791 -13.762345 2.548481 0.086308 2.084911
 29 10.456543 -0.000004 0.000004 0.013505 0.091120 -1.588725
 30 24.248093 0.000001 0.000007 0.035126 0.036055 1.172997
 31 26.336971 0.000019 0.000002 0.429120 -0.129983 0.906861
 32 1.854847 1.227798 13.762341 -2.582444 -0.102426 2.080144
 33 10.456542 -0.000008 0.000004 -0.029197 -0.093862 -1.593883
 34 24.248116 0.000002 -0.000004 -0.035335 -0.036350 1.174596
 35 26.336975 0.000000 0.000004 -0.388671 0.062585 0.894712
time 7
  0 0.000000 0.000000 0.000000 0.000000 -0.000000 -1.570796
  1 0.000000 0.000000 -0.011719 0.000000 -0.000000 0.000000
  2 3.070405 -4.275038 22.993933 -1.569906 0.043722 1.571435
  3 4.222169 -0.467508 0.000000 0.027918 0.003541 -0.596634
  4 4.476987 -0.000002 -0.000000 0.000680 -0.022512 -0.636496
  5 4.477083 0.000000 0.000002 -0.014191 0.029807 0.044992
  6 4.477077 -0.000004 -0.000002 -0.015811 -0.010115 0.324645
  7 5.413502 -7.700466 -0.000000 -0.009118 0.033710 -0.679993
  8 6.890240 0.000002 -0.000000 -0.000671 -0.004039 0.296547
  9 8.011925 0.000004 0.000005 0.000550 0.000607 0.098998
 10 7.210720 -0.000002 -0.000000 0.000000 0.000000 -0.068143
 11 8.581028 -0.304903 -0.000000 0.001610 0.002417 1.110712
 12 22.523008 2.194031 6.355708 0.000024 0.546635 -0.000012
 13 22.523005 2.194038 -6.355709 0.000000 -0.476272 0.000000
 14 -3.006533 7.804720 -11.355459 0.144523 0.277812 1.614797
 15 10.384675 0.000008 0.000005 0.032312 0.185688 -1.653767
 16 22.550743 -0.000006 -0.000004 0.120444 0.039020 1.834887
 17 30.814247 -0.000015 -0.000004 2.662251 0.075968 0.610801
 18 -3.013796 7.815494 11.355459 -0.042528 -0.259560 1.636515
 19 10.374533 -0.000002 0.000007 -0.030564 -0.201743 -1.688325
 20 22.550726 -0.000027 -0.000013 -0.110732 -0.012721 1.825544
 21 30.814270 -0.000023 0.000002 -2.722700 -0.021561 0.619769
 22 -4.250660 -0.770624 0.000001 -0.117797 0.125348 2.672703
 23 10.363422 0.000000 0.000000 -0.004351 -0.082745 0.359214
 24 10.363076 0.000000 -0.000000 -0.006931 -0.065537 0.144553
 25 10.363081 -0.000004 -0.000002 0.025252 -0.167742 0.196005
 26 8.210358 -0.000006 -7.703991 0.004275 0.000000 -0.061724
 27 8.210346 -0.000002 7.704017 0.004278 0.000000 -0.061003
 28 1.854841 1.227791 -13.762345 2.527671 0.066378 2.020616
 29 10.456543 -0.000004 0.000004 0.008234 0.089773 -1.644455
 30 24.248093 0.000001 0.000007 0.036333 0.036642 1.207690
 31 26.336971 0.000019 0.000002 0.446565 -0.142163 0.900543
 32 1.854847 1.227798 13.762341 -2.560601 -0.081022 2.014596
 33 10.456542 -0.000008 0.000004 -0.025658 -0.093419 -1.632342
 34 24.248116 0.000002 -0.000004 -0.036361 -0.036708 1.208666
 35 26.336975 0.000000 0.000004 -0.402487 0.072318 0.884145
time 8
  0 0.000000 0.000000 0.000000 0.000000 -0.000000 -1.570796
  1 0.000000 0.000000 -0.015625 0.000000 -0.000000 0.000000
  2 3.242285 -4.351877 23.280703 -1.570000 0.062895 1.571276
  3 4.222169 -0.467508 0.000000 0.028906 0.003318 -0.613319
  4 4.476987 -0.000002 -0.000000 0.000391 -0.023214 -0.661752
  5 4.477083 0.000000 0.000002 -0.014623 0.029818 0.046682
  6 4.477077 -0.000004 -0.000002 -0.015834 -0.010029 0.335577
  7 5.413502 -7.700466 -0.000000 -0.009450 0.034254 -0.684132
  8 6.890240 0.000002 -0.000000 -0.000755 -0.004313 0.327311
  9 8.011925 0.000004 0.000005 0.000498 0.000607 0.094949
 10 7.210720 -0.000002 -0.000000 0.000000 0.000000 -0.081042
 11 8.581028 -0.304903 -0.000000 0.001618 0.002429 1.114357
 12 22.523008 2.194031 6.355708 -0.000216 0.592463 0.000192
 13 22.523005 2.194038 -6.355709 0.000012 -0.524096 -0.000012
 14 -3.006533 7.804720 -11.355459 0.145345 0.277778 1.616954
 15 10.384675 0.000008 0.000005 0.034980 0.185618 -1.638050
 16 22.550743 -0.000006 -0.000004 0.119705 0.039029 1.819396
 17 30.814247 -0.000015 -0.000004 2.662368 0.080702 0.615458
 18 -3.013796 7.815494 11.355459 -0.042125 -0.259686 1.637206
 19 10.374533 -0.000002 0.000007 -0.033650 -0.202275 -1.672795
 20 22.550726 -0.000027 -0.000013 -0.109628 -0.012543 1.810466
 21 30.814270 -0.000023 0.000002 -2.723248 -0.020709 0.618686
 22 -4.250660 -0.770624 0.000001 -0.137739 0.103475 2.491925
 23 10.363422 0.000000 0.000000 -0.002038 -0.086010 0.335170
 24 10.363076 0.000000 -0.000000 -0.017206 -0.066853 0.321730
 25 10.363081 -0.000004 -0.000002 -0.004355 -0.169409 0.405642
 26 8.210358 -0.000006 -7.703991 0.007634 0.000475 -0.005163
 27 8.210346 -0.000002 7.704017 0.007634 0.000495 -0.004476
 28 1.854841 1.227791 -13.762345 2.520171 0.057703 1.994083
 29 10.456543 -0.000004 0.000004 0.005156 0.088641 -1.678896
 30 24.248093 0.000001 0.000007 0.036909 0.036871 1.221982
 31 26.336971 0.000019 0.000002 0.451743 -0.146194 0.898657
 32 1.854847 1.227798 13.762341 -2.552663 -0.071820 1.987755
 33 10.456542 -0.000008 0.000004 -0.023287 -0.093211 -1.654834
 34 24.248116 0.000002 -0.000004 -0.036830 -0.036794 1.222953
 35 26.336975 0.000000 0.000004 -0.410118 0.077201 0.878235
time 9
  0 0.000000 0.000000 0.000000 0.000000 -0.000000 -1.570796
  1 0.000000 0.000000 -0.019532 0.000000 -0.000000 0.000000
  2 3.246192 -4.353899 23.288248 -1.570303 0.060881 1.571036
  3 4.222169 -0.467508 0.000000 0.028768 0.003341 -0.611448
  4 4.476987 -0.000002 -0.000000 0.000404 -0.023117 -0.656999
  5 4.477083 0.000000 0.000002 -0.014830 0.029844 0.048224
  6 4.477077 -0.000004 -0.000002 -0.015830 -0.010048 0.334098
  7 5.413502 -7.700466 -0.000000 -0.009450 0.033948 -0.678842
  8 6.890240 0.000002 -0.000000 -0.000863 -0.004261 0.327218
  9 8.011925 0.000004 0.000005 0.000419 0.000623 0.088434
 10 7.210720 -0.000002 -0.000000 0.000000 0.000000 -0.094343
 11 8.581028 -0.304903 -0.000000 0.001649 0.002423 1.117932
 12 22.523008 2.194031 6.355708 -0.003020 0.482873 0.002733
 13 22.523005 2.194038 -6.355709 0.000719 -0.431110 -0.000695
 14 -3.006533 7.804720 -11.355459 0.145745 0.277699 1.618095
 15 10.384675 0.000008 0.000005 0.034752 0.185573 -1.639126
 16 22.550743 -0.000006 -0.000004 0.119774 0.038992 1.820185
 17 30.814247 -0.000015 -0.000004 2.662219 0.080094 0.613186
 18 -3.013796 7.815494 11.355459 -0.045139 -0.259431 1.635463
 19 10.374533 -0.000002 0.000007 -0.033815 -0.202313 -1.671906
 20 22.550726 -0.000027 -0.000013 -0.109735 -0.012513 1.811525
 21 30.814270 -0.000023 0.000002 -2.721267 -0.021689 0.615411
 22 -4.250660 -0.770624 0.000001 -0.136277 0.105272 2.505573
 23 10.363422 0.000000 0.000000 -0.002623 -0.085949 0.344492
 24 10.363076 0.000000 -0.000000 -0.018428 -0.065031 0.352243
 25 10.363081 -0.000004 -0.000002 -0.008064 -0.166990 0.428430
 26 8.210358 -0.000006 -7.703991 0.008098 0.000645 -0.004858
 27 8.210346 -0.000002 7.704017 0.008090 0.000681 -0.004205
 28 1.854841 1.227791 -13.762345 2.522335 0.058577 1.996902
 29 10.456543 -0.000004 0.000004 0.005715 0.088903 -1.672968
 30 24.248093 0.000001 0.000007 0.037133 0.036932 1.227141
 31 26.336971 0.000019 0.000002 0.453842 -0.147860 0.897744
 32 1.854847 1.227798 13.762341 -2.554841 -0.072980 1.990919
 33 10.456542 -0.000008 0.000004 -0.022689 -0.093114 -1.660734
 34 24.248116 0.000002 -0.000004 -0.037027 -0.036833 1.228292
 35 26.336975 0.000000 0.000004 -0.412905 0.078443 0.876071
time 10
  0 0.000000 0.000000 0.000000 0.000000 -0.000000 -1.570796
  1 0.000000 0.000000 -0.027345 0.000000 -0.000000 0.000000
  2 3.195409 -4.331656 23.205236 -1.570507 0.056088 1.570836
  3 4.222169 -0.467508 0.000000 0.028472 0.003398 -0.606940
  4 4.476987 -0.000002 -0.000000 0.000482 -0.022928 -0.649824
  5 4.477083 0.000000 0.000002 -0.014844 0.029835 0.049426
  6 4.477077 -0.000004 -0.000002 -0.015810 -0.010068 0.331139
  7 5.413502 -7.700466 -0.000000 -0.009371 0.033337 -0.669570
  8 6.890240 0.000002 -0.000000 -0.001007 -0.004169 0.322773
  9 8.011925 0.000004 0.000005 0.000354 0.000639 0.082152
 10 7.210720 -0.000002 -0.000000 0.000000 0.000000 -0.108101
 11 8.581028 -0.304903 -0.000000 0.001656 0.002435 1.121262
 12 22.523008 2.194031 6.355708 -0.009612 0.232989 0.009060
 13 22.523005 2.194038 -6.355709 0.002852 -0.219487 -0.002912
 14 -3.006533 7.804720 -11.355459 0.145723 0.277603 1.618009
 15 10.384675 0.000008 0.000005 0.034113 0.185535 -1.642746
 16 22.550743 -0.000006 -0.000004 0.119947 0.038946 1.823472
 17 30.814247 -0.000015 -0.000004 2.662014 0.078790 0.610386
 18 -3.013796 7.815494 11.355459 -0.048064 -0.259163 1.633779
 19 10.374533 -0.000002 0.000007 -0.033375 -0.202222 -1.674277
 20 22.550726 -0.000027 -0.000013 -0.110006 -0.012503 1.815021
 21 30.814270 -0.000023 0.000002 -2.719121 -0.022837 0.612135
 22 -4.250660 -0.770624 0.000001 -0.130045 0.112991 2.566618
 23 10.363422 0.000000 0.000000 -0.003741 -0.085378 0.359849
 24 10.363076 0.000000 -0.000000 -0.016103 -0.065449 0.314930
 25 10.363081 -0.000004 -0.000002 0.004722 -0.167818 0.343209
 26 8.210358 -0.000006 -7.703991 0.007072 0.000713 -0.048305
 27 8.210346 -0.000002 7.704017 0.007071 0.000712 -0.047710
 28 1.854841 1.227791 -13.762345 2.525696 0.060689 2.003510
 29 10.456543 -0.000004 0.000004 0.006852 0.089376 -1.660586
 30 24.248093 0.000001 0.000007 0.037096 0.036912 1.227141
 31 26.336971 0.000019 0.000002 0.453083 -0.147419 0.897835
 32 1.854847 1.227798 13.762341 -2.558156 -0.075390 1.997873
 33 10.456542 -0.000008 0.000004 -0.023338 -0.093130 -1.656261
 34 24.248116 0.000002 -0.000004 -0.037093 -0.036903 1.228346
 35 26.336975 0.000000 0.000004 -0.412062 0.077161 0.876652
time 11
  0 0.000000 0.000000 0.000000 0.000000 -0.000000 -1.570796
  1 0.000000 0.000000 -0.031251 0.000000 -0.000000 0.000000
  2 3.109469 -4.296269 23.073172 -1.570609 0.048131 1.570717
  3 4.222169 -0.467508 0.000000 0.028017 0.003487 -0.599180
  4 4.476987 -0.000002 -0.000000 0.000627 -0.022624 -0.638962
  5 4.477083 0.000000 0.000002 -0.014705 0.029823 0.050108
  6 4.477077 -0.000004 -0.000002 -0.015768 -0.010133 0.326187
  7 5.413502 -7.700466 -0.000000 -0.009171 0.032334 -0.655225
  8 6.890240 0.000002 -0.000000 -0.001163 -0.004065 0.318352
  9 8.011925 0.000004 0.000005 0.000275 0.000655 0.075871
 10 7.210720 -0.000002 -0.000000 0.000000 0.000000 -0.122233
 11 8.581028 -0.304903 -0.000000 0.001663 0.002447 1.124346
 12 22.523008 2.194031 6.355708 -0.017629 -0.067459 0.017090
 13 22.523005 2.194038 -6.355709 0.004938 0.016395 -0.004926
 14 -3.006533 7.804720 -11.355459 0.145368 0.277438 1.616833
 15 10.384675 0.000008 0.000005 0.033040 0.185524 -1.649023
 16 22.550743 -0.000006 -0.000004 0.120255 0.038909 1.829567
 17 30.814247 -0.000015 -0.000004 2.661793 0.076707 0.606900
 18 -3.013796 7.815494 11.355459 -0.051416 -0.258928 1.631740
 19 10.374533 -0.000002 0.000007 -0.032330 -0.201995 -1.679910
 20 22.550726 -0.000027 -0.000013 -0.110466 -0.012534 1.821086
 21 30.814270 -0.000023 0.000002 -2.716555 -0.024297 0.608717
 22 -4.250660 -0.770624 0.000001 -0.121344 0.121914 2.643487
 23 10.363422 0.000000 0.000000 -0.004834 -0.084830 0.374567
 24 10.363076 0.000000 -0.000000 -0.013278 -0.066330 0.266914
 25 10.363081 -0.000004 -0.000002 0.021480 -0.167247 0.229021
 26 8.210358 -0.000006 -7.703991 0.005704 0.000747 -0.107889
 27 8.210346 -0.000002 7.704017 0.005705 0.000743 -0.107424
 28 1.854841 1.227791 -13.762345 2.530314 0.064136 2.014410
 29 10.456543 -0.000004 0.000004 0.008090 0.089796 -1.647724
 30 24.248093 0.000001 0.000007 0.036989 0.036883 1.223939
 31 26.336971 0.000019 0.000002 0.449916 -0.145212 0.898872
 32 1.854847 1.227798 13.762341 -2.562837 -0.079288 2.009174
 33 10.456542 -0.000008 0.000004 -0.024766 -0.093251 -1.642916
 34 24.248116 0.000002 -0.000004 -0.037056 -0.036987 1.224943
 35 26.336975 0.000000 0.000004 -0.409020 0.074384 0.879002
time 12
  0 0.000000 0.000000 0.000000 0.000000 -0.000000 -1.570796
  1 0.000000 0.000000 -0.035157 0.000000 -0.000000 0.000000
  2 3.000090 -4.248751 22.895828 -1.570806 0.037299 1.570557
  3 4.222169 -0.467508 0.000000 0.027405 0.003569 -0.588307
  4 4.476987 -0.000002 -0.000000 0.000824 -0.022250 -0.624236
  5 4.477083 0.000000 0.000002 -0.014455 0.029791 0.050063
  6 4.477077 -0.000004 -0.000002 -0.015690 -0.010225 0.319070
  7 5.413502 -7.700466 -0.000000 -0.008852 0.030941 -0.635374
  8 6.890240 0.000002 -0.000000 -0.001318 -0.003947 0.313558
  9 8.011925 0.000004 0.000005 0.000196 0.000671 0.069901
 10 7.210720 -0.000002 -0.000000 0.000000 0.000000 -0.136500
 11 8.581028 -0.304903 -0.000000 0.001669 0.002443 1.127186
 12 22.523008 2.194031 6.355708 -0.023993 -0.312699 0.024077
 13 22.523005 2.194038 -6.355709 0.007023 0.216341 -0.006208
 14 -3.006533 7.804720 -11.355459 0.144572 0.277236 1.614571
 15 10.384675 0.000008 0.000005 0.031582 0.185501 -1.657675
 16 22.550743 -0.000006 -0.000004 0.120682 0.038871 1.838041
 17 30.814247 -0.000015 -0.000004 2.661567 0.073899 0.602901
 18 -3.013796 7.815494 11.355459 -0.055204 -0.258605 1.629381
 19 10.374533 -0.000002 0.000007 -0.030609 -0.201680 -1.688445
 20 22.550726 -0.000027 -0.000013 -0.111098 -0.012578 1.829463
 21 30.814270 -0.000023 0.000002 -2.713675 -0.026025 0.605179
 22 -4.250660 -0.770624 0.000001 -0.109887 0.131462 2.735053
 23 10.363422 0.000000 0.000000 -0.005972 -0.084291 0.389196
 24 10.363076 0.000000 -0.000000 -0.010032 -0.067318 0.211058
 25 10.363081 -0.000004 -0.000002 0.040300 -0.164394 0.098017
 26 8.210358 -0.000006 -7.703991 0.004153 0.000679 -0.176033
 27 8.210346 -0.000002 7.704017 0.004159 0.000681 -0.175650
 28 1.854841 1.227791 -13.762345 2.536148 0.068746 2.029149
 29 10.456543 -0.000004 0.000004 0.009475 0.090202 -1.633248
 30 24.248093 0.000001 0.000007 0.036751 0.036861 1.216470
 31 26.336971 0.000019 0.000002 0.444757 -0.141639 0.900719
 32 1.854847 1.227798 13.762341 -2.568795 -0.084399 2.024436
 33 10.456542 -0.000008 0.000004 -0.026451 -0.093396 -1.624582
 34 24.248116 0.000002 -0.000004 -0.036864 -0.037015 1.217013
 35 26.336975 0.000000 0.000004 -0.404864 0.071011 0.882249
time 13
  0 0.000000 0.000000 0.000000 0.000000 -0.000000 -1.570796
  1 0.000000 0.000000 -0.039064 0.000000 -0.000000 0.000000
  2 2.867274 -4.191121 22.680752 -1.570804 0.023974 1.570477
  3 4.222169 -0.467508 0.000000 0.026656 0.003608 -0.574353
  4 4.476987 -0.000002 -0.000000 0.001079 -0.021787 -0.605356
  5 4.477083 0.000000 0.000002 -0.014098 0.029736 0.049115
  6 4.477077 -0.000004 -0.000002 -0.015573 -0.010347 0.309602
  7 5.413502 -7.700466 -0.000000 -0.008440 0.029106 -0.609300
  8 6.890240 0.000002 -0.000000 -0.001486 -0.003816 0.308438
  9 8.011925 0.000004 0.000005 0.000144 0.000655 0.061050
 10 7.210720 -0.000002 -0.000000 0.000000 0.000000 -0.150901
 11 8.581028 -0.304903 -0.000000 0.001698 0.002456 1.129815
 12 22.523008 2.194031 6.355708 -0.026786 -0.422930 0.029458
 13 22.523005 2.194038 -6.355709 0.007946 0.306877 -0.006508
 14 -3.006533 7.804720 -11.355459 0.143500 0.277003 1.611440
 15 10.384675 0.000008 0.000005 0.029730 0.185451 -1.668532
 16 22.550743 -0.000006 -0.000004 0.121192 0.038823 1.848710
 17 30.814247 -0.000015 -0.000004 2.661292 0.070467 0.598379
 18 -3.013796 7.815494 11.355459 -0.059628 -0.258239 1.626472
 19 10.374533 -0.000002 0.000007 -0.028479 -0.201221 -1.699528
 20 22.550726 -0.000027 -0.000013 -0.111884 -0.012642 1.839905
 21 30.814270 -0.000023 0.000002 -2.710444 -0.028023 0.601521
 22 -4.250660 -0.770624 0.000001 -0.097806 0.139919 2.825954
 23 10.363422 0.000000 0.000000 -0.007120 -0.083724 0.403847
 24 10.363076 0.000000 -0.000000 -0.006706 -0.068061 0.153720
 25 10.363081 -0.000004 -0.000002 0.058690 -0.159102 -0.033297
 26 8.210358 -0.000006 -7.703991 0.002614 0.000509 -0.244143
 27 8.210346 -0.000002 7.704017 0.002601 0.000526 -0.243875
 28 1.854841 1.227791 -13.762345 2.543076 0.074365 2.047477
 29 10.456543 -0.000004 0.000004 0.011061 0.090620 -1.616634
 30 24.248093 0.000001 0.000007 0.036181 0.036648 1.199333
 31 26.336971 0.000019 0.000002 0.438146 -0.137024 0.903267
 32 1.854847 1.227798 13.762341 -2.575913 -0.090586 2.043255
 33 10.456542 -0.000008 0.000004 -0.028236 -0.093542 -1.605534
 34 24.248116 0.000002 -0.000004 -0.036279 -0.036791 1.200078
 35 26.336975 0.000000 0.000004 -0.399895 0.067255 0.886149
time 14
  0 0.000000 0.000000 0.000000 0.000000 -0.000000 -1.570796
  1 0.000000 0.000000 -0.042970 0.000000 -0.000000 0.000000
  2 2.714926 -4.124393 22.431717 -1.570896 0.008539 1.570397
  3 4.222169 -0.467508 0.000000 0.025771 0.003642 -0.557470
  4 4.476987 -0.000002 -0.000000 0.001401 -0.021257 -0.582212
  5 4.477083 0.000000 0.000002 -0.013677 0.029642 0.047069
  6 4.477077 -0.000004 -0.000002 -0.015391 -0.010499 0.297674
  7 5.413502 -7.700466 -0.000000 -0.007948 0.026846 -0.576878
  8 6.890240 0.000002 -0.000000 -0.001654 -0.003686 0.302969
  9 8.011925 0.000004 0.000005 0.000131 0.000527 0.043321
 10 7.210720 -0.000002 -0.000000 0.000000 0.000000 -0.165355
 11 8.581028 -0.304903 -0.000000 0.001703 0.002452 1.132198
 12 22.523008 2.194031 6.355708 -0.026630 -0.421953 0.033413
 13 22.523005 2.194038 -6.355709 0.007730 0.305304 -0.005141
 14 -3.006533 7.804720 -11.355459 0.142149 0.276738 1.607441
 15 10.384675 0.000008 0.000005 0.027590 0.185412 -1.681197
 16 22.550743 -0.000006 -0.000004 0.121803 0.038746 1.861208
 17 30.814247 -0.000015 -0.000004 2.661020 0.066520 0.593480
 18 -3.013796 7.815494 11.355459 -0.064785 -0.257756 1.622997
 19 10.374533 -0.000002 0.000007 -0.025893 -0.200690 -1.712683
 20 22.550726 -0.000027 -0.000013 -0.112806 -0.012723 1.852101
 21 30.814270 -0.000023 0.000002 -2.706967 -0.030246 0.597768
 22 -4.250660 -0.770624 0.000001 -0.085486 0.147061 2.914064
 23 10.363422 0.000000 0.000000 -0.008266 -0.083142 0.418430
 24 10.363076 0.000000 -0.000000 -0.003708 -0.068261 0.101844
 25 10.363081 -0.000004 -0.000002 0.074176 -0.152503 -0.147049
 26 8.210358 -0.000006 -7.703991 0.001270 0.000272 -0.303149
 27 8.210346 -0.000002 7.704017 0.001270 0.000279 -0.302945
 28 1.854841 1.227791 -13.762345 2.551035 0.080762 2.068838
 29 10.456543 -0.000004 0.000004 0.012843 0.091067 -1.597402
 30 24.248093 0.000001 0.000007 0.035512 0.036344 1.179942
 31 26.336971 0.000019 0.000002 0.430540 -0.131781 0.906433
 32 1.854847 1.227798 13.762341 -2.584082 -0.097616 2.065226
 33 10.456542 -0.000008 0.000004 -0.030096 -0.093655 -1.585693
 34 24.248116 0.000002 -0.000004 -0.035620 -0.036477 1.181056
 35 26.336975 0.000000 0.000004 -0.394285 0.063145 0.890573
time 15
  0 0.000000 0.000000 0.000000 0.000000 -0.000000 -1.570796
  1 0.000000 0.000000 -0.046876 0.000000 -0.000000 0.000000
  2 2.539139 -4.049576 22.152496 -1.570984 -0.008812 1.570358
  3 4.222169 -0.467508 0.000000 0.024772 0.003596 -0.537704
  4 4.476987 -0.000002 -0.000000 0.001784 -0.020679 -0.554694
  5 4.477083 0.000000 0.000002 -0.013244 0.029540 0.043733
  6 4.477077 -0.000004 -0.000002 -0.015153 -0.010702 0.283067
  7 5.413502 -7.700466 -0.000000 -0.007430 0.024331 -0.540722
  8 6.890240 0.000002 -0.000000 -0.001846 -0.003542 0.297198
  9 8.011925 0.000004 0.000005 0.000131 0.000383 0.022686
 10 7.210720 -0.000002 -0.000000 0.000000 0.000000 -0.179917
 11 8.581028 -0.304903 -0.000000 0.001707 0.002466 1.134371
 12 22.523008 2.194031 6.355708 -0.025815 -0.398367 0.036997
 13 22.523005 2.194038 -6.355709 0.007095 0.280832 -0.003008
 14 -3.006533 7.804720 -11.355459 0.140519 0.276410 1.602787
 15 10.384675 0.000008 0.000005 0.025174 0.185322 -1.695388
 16 22.550743 -0.000006 -0.000004 0.122483 0.038682 1.875173
 17 30.814247 -0.000015 -0.000004 2.660796 0.062102 0.588220
 18 -3.013796 7.815494 11.355459 -0.070737 -0.257190 1.618783
 19 10.374533 -0.000002 0.000007 -0.022971 -0.200033 -1.727612
 20 22.550726 -0.000027 -0.000013 -0.113846 -0.012791 1.865795
 21 30.814270 -0.000023 0.000002 -2.703170 -0.032681 0.593893
 22 -4.250660 -0.770624 0.000001 -0.073106 0.152870 2.998666
 23 10.363422 0.000000 0.000000 -0.009509 -0.082525 0.433851
 24 10.363076 0.000000 -0.000000 -0.001431 -0.067698 0.062059
 25 10.363081 -0.000004 -0.000002 0.084992 -0.146553 -0.226528
 26 8.210358 -0.000006 -7.703991 0.000354 0.000068 -0.344252
 27 8.210346 -0.000002 7.704017 0.000348 0.000062 -0.344077
 28 1.854841 1.227791 -13.762345 2.559864 0.087800 2.092973
 29 10.456543 -0.000004 0.000004 0.014835 0.091516 -1.575900
 30 24.248093 0.000001 0.000007 0.034845 0.036049 1.161202
 31 26.336971 0.000019 0.000002 0.422350 -0.126200 0.910000
 32 1.854847 1.227798 13.762341 -2.593257 -0.105279 2.089931
 33 10.456542 -0.000008 0.000004 -0.032056 -0.093731 -1.565098
 34 24.248116 0.000002 -0.000004 -0.034979 -0.036167 1.162695
 35 26.336975 0.000000 0.000004 -0.388120 0.058767 0.895496
time 16
  0 0.000000 0.000000 0.000000 0.000000 -0.000000 -1.570796
  1 0.000000 0.000000 -0.050783 0.000000 -0.000000 0.000000
  2 2.355540 -3.968693 21.850636 -1.570976 -0.027697 1.570357
  3 4.222169 -0.467508 0.000000 0.023657 0.003509 -0.515209
  4 4.476987 -0.000002 -0.000000 0.002227 -0.020085 -0.523402
  5 4.477083 0.000000 0.000002 -0.012818 0.029395 0.038915
  6 4.477077 -0.000004 -0.000002 -0.014843 -0.010936 0.265657
  7 5.413502 -7.700466 -0.000000 -0.006938 0.021834 -0.504784
  8 6.890240 0.000002 -0.000000 -0.002025 -0.003385 0.291171
  9 8.011925 0.000004 0.000005 0.000105 0.000240 0.002466
 10 7.210720 -0.000002 -0.000000 0.000000 0.000000 -0.194479
 11 8.581028 -0.304903 -0.000000 0.001712 0.002462 1.136334
 12 22.523008 2.194031 6.355708 -0.024820 -0.369556 0.040712
 13 22.523005 2.194038 -6.355709 0.006472 0.251430 -0.000048
 14 -3.006533 7.804720 -11.355459 0.138647 0.276062 1.597411
 15 10.384675 0.000008 0.000005 0.022567 0.185206 -1.710822
 16 22.550743 -0.000006 -0.000004 0.123216 0.038620 1.890421
 17 30.814247 -0.000015 -0.000004 2.660541 0.057340 0.582776
 18 -3.013796 7.815494 11.355459 -0.077321 -0.256540 1.614012
 19 10.374533 -0.000002 0.000007 -0.019779 -0.199262 -1.743958
 20 22.550726 -0.000027 -0.000013 -0.114964 -0.012870 1.880618
 21 30.814270 -0.000023 0.000002 -2.699200 -0.035292 0.589982
 22 -4.250660 -0.770624 0.000001 -0.062560 0.156866 3.067956
 23 10.363422 0.000000 0.000000 -0.010165 -0.082131 0.442178
 24 10.363076 0.000000 -0.000000 -0.000261 -0.066287 0.040329
 25 10.363081 -0.000004 -0.000002 0.089920 -0.143277 -0.257388
 26 8.210358 -0.000006 -7.703991 -0.000000 0.000000 -0.359573
 27 8.210346 -0.000002 7.704017 -0.000000 0.000000 -0.359336
 28 1.854841 1.227791 -13.762345 2.569486 0.095261 2.119318
 29 10.456543 -0.000004 0.000004 0.016971 0.091933 -1.553088
 30 24.248093 0.000001 0.000007 0.034175 0.035735 1.142819
 31 26.336971 0.000019 0.000002 0.413755 -0.120382 0.913936
 32 1.854847 1.227798 13.762341 -2.603249 -0.113384 2.116945
 33 10.456542 -0.000008 0.000004 -0.034070 -0.093770 -1.543870
 34 24.248116 0.000002 -0.000004 -0.034364 -0.035858 1.144792
 35 26.336975 0.000000 0.000004 -0.381486 0.054161 0.900727
time 17
  0 0.000000 0.000000 0.000000 0.000000 -0.000000 -1.570796
  1 0.000000 0.000000 -0.050783 0.000000 -0.000000 0.000000
  2 2.156315 -3.883765 21.533680 -1.571063 -0.047637 1.570357
  3 4.222169 -0.467508 0.000000 0.022460 0.003325 -0.490001
  4 4.476987 -0.000002 -0.000000 0.002722 -0.019483 -0.488956
  5 4.477083 0.000000 0.000002 -0.012427 0.029238 0.032406
  6 4.477077 -0.000004 -0.000002 -0.014435 -0.011240 0.245351
  7 5.413502 -7.700466 -0.000000 -0.006460 0.019353 -0.469064
  8 6.890240 0.000002 -0.000000 -0.002229 -0.003215 0.284841
  9 8.011925 0.000004 0.000005 0.000079 0.000096 -0.017677
 10 7.210720 -0.000002 -0.000000 0.000000 0.000000 -0.209041
 11 8.581028 -0.304903 -0.000000 0.001716 0.002477 1.138086
 12 22.523008 2.194031 6.355708 -0.023226 -0.319237 0.044739
 13 22.523005 2.194038 -6.355709 0.005765 0.213559 0.004015
 14 -3.006533 7.804720 -11.355459 0.136586 0.275698 1.591532
 15 10.384675 0.000008 0.000005 0.019830 0.185025 -1.727160
 16 22.550743 -0.000006 -0.000004 0.123984 0.038525 1.906523
 17 30.814247 -0.000015 -0.000004 2.660341 0.052279 0.577167
 18 -3.013796 7.815494 11.355459 -0.084238 -0.255869 1.608939
 19 10.374533 -0.000002 0.000007 -0.016416 -0.198388 -1.761188
 20 22.550726 -0.000027 -0.000013 -0.116148 -0.012935 1.896441
 21 30.814270 -0.000023 0.000002 -2.694980 -0.038029 0.585998
 22 -4.250660 -0.770624 0.000001 -0.056112 0.158888 3.109079
 23 10.363422 0.000000 0.000000 -0.009259 -0.082233 0.430036
 24 10.363076 0.000000 -0.000000 0.000160 -0.064884 0.031200
 25 10.363081 -0.000004 -0.000002 0.089868 -0.141139 -0.253582
 26 8.210358 -0.000006 -7.703991 -0.000000 0.000000 -0.354409
 27 8.210346 -0.000002 7.704017 -0.000000 0.000000 -0.354080
 28 1.854841 1.227791 -13.762345 2.579764 0.102948 2.147570
 29 10.456543 -0.000004 0.000004 0.019236 0.092330 -1.529271
 30 24.248093 0.000001 0.000007 0.033544 0.035436 1.124910
 31 26.336971 0.000019 0.000002 0.404893 -0.114407 0.918153
 32 1.854847 1.227798 13.762341 -2.613988 -0.121713 2.145850
 33 10.456542 -0.000008 0.000004 -0.036168 -0.093739 -1.522008
 34 24.248116 0.000002 -0.000004 -0.033773 -0.035541 1.127245
 35 26.336975 0.000000 0.000004 -0.374554 0.049386 0.906248
time 18
  0 0.000000 0.000000 0.000000 0.000000 -0.000000 -1.570796
  1 0.000000 0.000000 -0.054689 0.000000 -0.000000 0.000000
  2 1.949277 -3.794794 21.201633 -1.571054 -0.068440 1.570357
  3 4.222169 -0.467508 0.000000 0.021179 0.003064 -0.462433
  4 4.476987 -0.000002 -0.000000 0.003261 -0.018878 -0.452269
  5 4.477083 0.000000 0.000002 -0.012110 0.029035 0.024119
  6 4.477077 -0.000004 -0.000002 -0.013993 -0.011537 0.223689
  7 5.413502 -7.700466 -0.000000 -0.006008 0.016889 -0.433779
  8 6.890240 0.000002 -0.000000 -0.002433 -0.003058 0.278302
  9 8.011925 0.000004 0.000005 0.000039 -0.000032 -0.037663
 10 7.210720 -0.000002 -0.000000 0.000000 0.000000 -0.223522
 11 8.581028 -0.304903 -0.000000 0.001719 0.002474 1.139664
 12 22.523008 2.194031 6.355708 -0.021237 -0.260669 0.048825
 13 22.523005 2.194038 -6.355709 0.005093 0.169455 0.008941
 14 -3.006533 7.804720 -11.355459 0.134428 0.275300 1.585291
 15 10.384675 0.000008 0.000005 0.016976 0.184809 -1.744119
 16 22.550743 -0.000006 -0.000004 0.124779 0.038411 1.923112
 17 30.814247 -0.000015 -0.000004 2.660202 0.047028 0.571536
 18 -3.013796 7.815494 11.355459 -0.091350 -0.255201 1.603628
 19 10.374533 -0.000002 0.000007 -0.013007 -0.197435 -1.779004
 20 22.550726 -0.000027 -0.000013 -0.117358 -0.012969 1.912762
 21 30.814270 -0.000023 0.000002 -2.690656 -0.040921 0.581989
 22 -4.250660 -0.770624 0.000001 -0.052157 0.159449 3.133020
 23 10.363422 0.000000 0.000000 -0.007211 -0.082157 0.400397
 24 10.363076 0.000000 -0.000000 0.000485 -0.064288 0.024127
 25 10.363081 -0.000004 -0.000002 0.086837 -0.137115 -0.241664
 26 8.210358 -0.000006 -7.703991 -0.000000 0.000000 -0.341127
 27 8.210346 -0.000002 7.704017 -0.000000 0.000000 -0.340686
 28 1.854841 1.227791 -13.762345 2.590535 0.110698 2.177131
 29 10.456543 -0.000004 0.000004 0.021570 0.092676 -1.504841
 30 24.248093 0.000001 0.000007 0.032912 0.035116 1.107416
 31 26.336971 0.000019 0.000002 0.395899 -0.108376 0.922619
 32 1.854847 1.227798 13.762341 -2.625244 -0.130080 2.176115
 33 10.456542 -0.000008 0.000004 -0.038332 -0.093697 -1.499669
 34 24.248116 0.000002 -0.000004 -0.033198 -0.035225 1.110155
 35 26.336975 0.000000 0.000004 -0.367410 0.044497 0.911922
time 19
  0 0.000000 0.000000 0.000000 0.000000 -0.000000 -1.570796
  1 0.000000 0.000000 -0.054689 0.000000 -0.000000 0.000000
  2 1.738334 -3.703800 20.862040 -1.571048 -0.089626 1.570396
  3 4.222169 -0.467508 0.000000 0.019824 0.002730 -0.432871
  4 4.476987 -0.000002 -0.000000 0.003845 -0.018284 -0.413784
  5 4.477083 0.000000 0.000002 -0.011845 0.028822 0.014838
  6 4.477077 -0.000004 -0.000002 -0.013572 -0.011788 0.202198
  7 5.413502 -7.700466 -0.000000 -0.005582 0.014425 -0.398743
  8 6.890240 0.000002 -0.000000 -0.002637 -0.002888 0.271530
  9 8.011925 0.000004 0.000005 0.000000 -0.000176 -0.057546
 10 7.210720 -0.000002 -0.000000 0.000000 0.000000 -0.238003
 11 8.581028 -0.304903 -0.000000 0.001722 0.002472 1.140995
 12 22.523008 2.194031 6.355708 -0.019020 -0.203445 0.052852
 13 22.523005 2.194038 -6.355709 0.004350 0.119907 0.014537
 14 -3.006533 7.804720 -11.355459 0.132117 0.274866 1.578687
 15 10.384675 0.000008 0.000005 0.014046 0.184526 -1.761472
 16 22.550743 -0.000006 -0.000004 0.125575 0.038294 1.940070
 17 30.814247 -0.000015 -0.000004 2.660077 0.041676 0.565918
 18 -3.013796 7.815494 11.355459 -0.098670 -0.254524 1.598139
 19 10.374533 -0.000002 0.000007 -0.009495 -0.196424 -1.796990
 20 22.550726 -0.000027 -0.000013 -0.118609 -0.012999 1.929522
 21 30.814270 -0.000023 0.000002 -2.686155 -0.043910 0.577955
 22 -4.250660 -0.770624 0.000001 -0.049089 0.159128 -3.132651
 23 10.363422 0.000000 0.000000 -0.004665 -0.081589 0.361850
 24 10.363076 0.000000 -0.000000 0.000751 -0.064008 0.018546
 25 10.363081 -0.000004 -0.000002 0.081389 -0.131345 -0.223444
 26 8.210358 -0.000006 -7.703991 -0.000000 0.000000 -0.321153
 27 8.210346 -0.000002 7.704017 -0.000000 0.000000 -0.320679
 28 1.854841 1.227791 -13.762345 2.601668 0.118436 2.207835
 29 10.456543 -0.000004 0.000004 0.023970 0.092968 -1.479972
 30 24.248093 0.000001 0.000007 0.032317 0.034777 1.090277
 31 26.336971 0.000019 0.000002 0.386865 -0.102303 0.927211
 32 1.854847 1.227798 13.762341 -2.636944 -0.138386 2.207453
 33 10.456542 -0.000008 0.000004 -0.040564 -0.093583 -1.476817
 34 24.248116 0.000002 -0.000004 -0.032635 -0.034902 1.093422
 35 26.336975 0.000000 0.000004 -0.360182 0.039537 0.917679
time 20
  0 0.000000 0.000000 0.000000 0.000000 -0.000000 -1.570796
  1 0.000000 0.000000 -0.050783 0.000000 -0.000000 0.000000
  2 1.527390 -3.611795 20.518673 -1.571044 -0.111004 1.570435
  3 4.222169 -0.467508 0.000000 0.018428 0.002347 -0.402083
  4 4.476987 -0.000002 -0.000000 0.004460 -0.017706 -0.374412
  5 4.477083 0.000000 0.000002 -0.011588 0.028624 0.005676
  6 4.477077 -0.000004 -0.000002 -0.013161 -0.012030 0.180972
  7 5.413502 -7.700466 -0.000000 -0.005170 0.011979 -0.364143
  8 6.890240 0.000002 -0.000000 -0.002852 -0.002719 0.264548
  9 8.011925 0.000004 0.000005 -0.000026 -0.000320 -0.077299
 10 7.210720 -0.000002 -0.000000 0.000000 0.000000 -0.252351
 11 8.581028 -0.304903 -0.000000 0.001724 0.002470 1.142187
 12 22.523008 2.194031 6.355708 -0.016695 -0.141853 0.056771
 13 22.523005 2.194038 -6.355709 0.003452 0.066094 0.020650
 14 -3.006533 7.804720 -11.355459 0.129727 0.274419 1.571797
 15 10.384675 0.000008 0.000005 0.011149 0.184212 -1.778823
 16 22.550743 -0.000006 -0.000004 0.126377 0.038177 1.956908
 17 30.814247 -0.000015 -0.000004 2.660056 0.036302 0.560394
 18 -3.013796 7.815494 11.355459 -0.106082 -0.253848 1.592412
 19 10.374533 -0.000002 0.000007 -0.006071 -0.195353 -1.814851
 20 22.550726 -0.000027 -0.000013 -0.119866 -0.013021 1.946282
 21 30.814270 -0.000023 0.000002 -2.681512 -0.046975 0.573907
 22 -4.250660 -0.770624 0.000001 -0.046213 0.158551 -3.116493
 23 10.363422 0.000000 0.000000 -0.001975 -0.080764 0.321408
 24 10.363076 0.000000 -0.000000 0.000953 -0.063526 0.014353
 25 10.363081 -0.000004 -0.000002 0.074048 -0.124050 -0.199812
 26 8.210358 -0.000006 -7.703991 -0.000000 0.000000 -0.295641
 27 8.210346 -0.000002 7.704017 -0.000000 0.000000 -0.295112
 28 1.854841 1.227791 -13.762345 2.612991 0.125966 2.239025
 29 10.456543 -0.000004 0.000004 0.026403 0.093195 -1.454972
 30 24.248093 0.000001 0.000007 0.031723 0.034440 1.073495
 31 26.336971 0.000019 0.000002 0.377929 -0.096297 0.931835
 32 1.854847 1.227798 13.762341 -2.648910 -0.146446 2.239326
 33 10.456542 -0.000008 0.000004 -0.042814 -0.093399 -1.453569
 34 24.248116 0.000002 -0.000004 -0.032100 -0.034583 1.077096
 35 26.336975 0.000000 0.000004 -0.352958 0.034623 0.923480
time 21
  0 0.000000 0.000000 0.000000 0.000000 -0.000000 -1.570796
  1 0.000000 0.000000 -0.050783 0.000000 -0.000000 0.000000
  2 1.316446 -3.520802 20.179079 -1.571047 -0.132190 1.570515
  3 4.222169 -0.467508 0.000000 0.017013 0.001958 -0.370743
  4 4.476987 -0.000002 -0.000000 0.005088 -0.017177 -0.334863
  5 4.477083 0.000000 0.000002 -0.011336 0.028442 -0.003264
  6 4.477077 -0.000004 -0.000002 -0.012760 -0.012264 0.159964
  7 5.413502 -7.700466 -0.000000 -0.004785 0.009532 -0.330041
  8 6.890240 0.000002 -0.000000 -0.003080 -0.002536 0.257404
  9 8.011925 0.000004 0.000005 -0.000079 -0.000463 -0.096844
 10 7.210720 -0.000002 -0.000000 0.000000 0.000000 -0.266618
 11 8.581028 -0.304903 -0.000000 0.001727 0.002486 1.143169
 12 22.523008 2.194031 6.355708 -0.014370 -0.069139 0.060510
 13 22.523005 2.194038 -6.355709 0.002373 0.009014 0.027145
 14 -3.006533 7.804720 -11.355459 0.127313 0.273969 1.564839
 15 10.384675 0.000008 0.000005 0.008263 0.183841 -1.795889
 16 22.550743 -0.000006 -0.000004 0.127161 0.038027 1.973438
 17 30.814247 -0.000015 -0.000004 2.660008 0.030970 0.555091
 18 -3.013796 7.815494 11.355459 -0.113579 -0.253212 1.586637
 19 10.374533 -0.000002 0.000007 -0.002769 -0.194255 -1.832054
 20 22.550726 -0.000027 -0.000013 -0.121103 -0.013000 1.962851
 21 30.814270 -0.000023 0.000002 -2.676831 -0.050116 0.569846
 22 -4.250660 -0.770624 0.000001 -0.043468 0.157812 -3.101027
 23 10.363422 0.000000 0.000000 0.000741 -0.079662 0.280061
 24 10.363076 0.000000 -0.000000 0.001104 -0.062314 0.011293
 25 10.363081 -0.000004 -0.000002 0.065302 -0.115403 -0.171878
 26 8.210358 -0.000006 -7.703991 -0.000000 0.000000 -0.265748
 27 8.210346 -0.000002 7.704017 -0.000000 0.000000 -0.265170
 28 1.854841 1.227791 -13.762345 2.624315 0.133193 2.270332
 29 10.456543 -0.000004 0.000004 0.028820 0.093348 -1.430146
 30 24.248093 0.000001 0.000007 0.031168 0.034122 1.057128
 31 26.336971 0.000019 0.000002 0.369179 -0.090389 0.936422
 32 1.854847 1.227798 13.762341 -2.660871 -0.154138 2.271258
 33 10.456542 -0.000008 0.000004 -0.045144 -0.093173 -1.429966
 34 24.248116 0.000002 -0.000004 -0.031569 -0.034267 1.061177
 35 26.336975 0.000000 0.000004 -0.345822 0.029735 0.929156
time 22
  0 0.000000 0.000000 0.000000 0.000000 -0.000000 -1.570796
  1 0.000000 0.000000 -0.042970 0.000000 -0.000000 0.000000
  2 1.109408 -3.431830 19.847033 -1.571047 -0.152705 1.570554
  3 4.222169 -0.467508 0.000000 0.015613 0.001550 -0.339587
  4 4.476987 -0.000002 -0.000000 0.005717 -0.016686 -0.295959
  5 4.477083 0.000000 0.000002 -0.011087 0.028292 -0.011923
  6 4.477077 -0.000004 -0.000002 -0.012369 -0.012490 0.139174
  7 5.413502 -7.700466 -0.000000 -0.004413 0.007085 -0.296561
  8 6.890240 0.000002 -0.000000 -0.003308 -0.002366 0.250074
  9 8.011925 0.000004 0.000005 -0.000118 -0.000607 -0.116130
 10 7.210720 -0.000002 -0.000000 0.000000 0.000000 -0.280670
 11 8.581028 -0.304903 -0.000000 0.001751 0.002484 1.143975
 12 22.523008 2.194031 6.355708 -0.011901 0.008127 0.064238
 13 22.523005 2.194038 -6.355709 0.001091 -0.050183 0.033905
 14 -3.006533 7.804720 -11.355459 0.124875 0.273480 1.557807
 15 10.384675 0.000008 0.000005 0.005513 0.183437 -1.812387
 16 22.550743 -0.000006 -0.000004 0.127921 0.037880 1.989177
 17 30.814247 -0.000015 -0.000004 2.660061 0.025814 0.550060
 18 -3.013796 7.815494 11.355459 -0.121008 -0.252617 1.580814
 19 10.374533 -0.000002 0.000007 0.000355 -0.193203 -1.848304
 20 22.550726 -0.000027 -0.000013 -0.122294 -0.012966 1.978856
 21 30.814270 -0.000023 0.000002 -2.672117 -0.053262 0.565843
 22 -4.250660 -0.770624 0.000001 -0.040832 0.156930 -3.086278
 23 10.363422 0.000000 0.000000 0.003394 -0.078229 0.238185
 24 10.363076 0.000000 -0.000000 0.001184 -0.059868 0.009107
 25 10.363081 -0.000004 -0.000002 0.055692 -0.105609 -0.140857
 26 8.210358 -0.000006 -7.703991 -0.000000 0.000000 -0.232729
 27 8.210346 -0.000002 7.704017 -0.000000 0.000000 -0.232108
 28 1.854841 1.227791 -13.762345 2.635413 0.140035 2.301241
 29 10.456543 -0.000004 0.000004 0.031186 0.093438 -1.405842
 30 24.248093 0.000001 0.000007 0.030616 0.033784 1.041176
 31 26.336971 0.000019 0.000002 0.360793 -0.084680 0.940939
 32 1.854847 1.227798 13.762341 -2.672658 -0.161372 2.302756
 33 10.456542 -0.000008 0.000004 -0.047439 -0.092880 -1.406126
 34 24.248116 0.000002 -0.000004 -0.031067 -0.033956 1.045666
 35 26.336975 0.000000 0.000004 -0.338903 0.025008 0.934721
time 23
  0 0.000000 0.000000 0.000000 0.000000 -0.000000 -1.570796
  1 0.000000 0.000000 -0.039064 0.000000 -0.000000 0.000000
  2 0.910184 -3.345892 19.526304 -1.571056 -0.172357 1.570635
  3 4.222169 -0.467508 0.000000 0.014240 0.001185 -0.309244
  4 4.476987 -0.000002 -0.000000 0.006346 -0.016246 -0.258389
  5 4.477083 0.000000 0.000002 -0.010852 0.028143 -0.020240
  6 4.477077 -0.000004 -0.000002 -0.011963 -0.012728 0.118539
  7 5.413502 -7.700466 -0.000000 -0.004067 0.004656 -0.263735
  8 6.890240 0.000002 -0.000000 -0.003547 -0.002196 0.242627
  9 8.011925 0.000004 0.000005 -0.000170 -0.000751 -0.135182
 10 7.210720 -0.000002 -0.000000 0.000000 0.000000 -0.294588
 11 8.581028 -0.304903 -0.000000 0.001753 0.002483 1.144571
 12 22.523008 2.194031 6.355708 -0.009168 0.085148 0.068097
 13 22.523005 2.194038 -6.355709 -0.000384 -0.110560 0.040832
 14 -3.006533 7.804720 -11.355459 0.122451 0.273005 1.550851
 15 10.384675 0.000008 0.000005 0.002916 0.183024 -1.828036
 16 22.550743 -0.000006 -0.000004 0.128626 0.037753 2.004003
 17 30.814247 -0.000015 -0.000004 2.660127 0.020873 0.545443
 18 -3.013796 7.815494 11.355459 -0.128434 -0.252051 1.574999
 19 10.374533 -0.000002 0.000007 0.003210 -0.192174 -1.863131
 20 22.550726 -0.000027 -0.000013 -0.123416 -0.012930 1.994049
 21 30.814270 -0.000023 0.000002 -2.667334 -0.056455 0.561876
 22 -4.250660 -0.770624 0.000001 -0.038291 0.155919 -3.072016
 23 10.363422 0.000000 0.000000 0.005904 -0.076487 0.196023
 24 10.363076 0.000000 -0.000000 0.001193 -0.055685 0.007565
 25 10.363081 -0.000004 -0.000002 0.045684 -0.094923 -0.107855
 26 8.210358 -0.000006 -7.703991 -0.000000 0.000000 -0.197740
 27 8.210346 -0.000002 7.704017 -0.000000 0.000000 -0.197114
 28 1.854841 1.227791 -13.762345 2.646130 0.146423 2.331365
 29 10.456543 -0.000004 0.000004 0.033469 0.093462 -1.382367
 30 24.248093 0.000001 0.000007 0.030065 0.033451 1.025521
 31 26.336971 0.000019 0.000002 0.352859 -0.079269 0.945354
 32 1.854847 1.227798 13.762341 -2.684093 -0.168052 2.333424
 33 10.456542 -0.000008 0.000004 -0.049761 -0.092522 -1.382089
 34 24.248116 0.000002 -0.000004 -0.030569 -0.033650 1.030562
 35 26.336975 0.000000 0.000004 -0.332330 0.020480 0.939987
time 24
  0 0.000000 0.000000 0.000000 0.000000 -0.000000 -1.570796
  1 0.000000 0.000000 -0.031251 0.000000 -0.000000 0.000000
  2 0.726584 -3.265009 19.224443 -1.570965 -0.190667 1.570675
  3 4.222169 -0.467508 0.000000 0.012955 0.000833 -0.280495
  4 4.476987 -0.000002 -0.000000 0.006939 -0.015893 -0.222995
  5 4.477083 0.000000 0.000002 -0.010640 0.028028 -0.028113
  6 4.477077 -0.000004 -0.000002 -0.011555 -0.012977 0.098076
  7 5.413502 -7.700466 -0.000000 -0.003735 0.002175 -0.231437
  8 6.890240 0.000002 -0.000000 -0.003787 -0.002026 0.235064
  9 8.011925 0.000004 0.000005 -0.000196 -0.000895 -0.153923
 10 7.210720 -0.000002 -0.000000 0.000000 0.000000 -0.308238
 11 8.581028 -0.304903 -0.000000 0.001754 0.002483 1.145061
 12 22.523008 2.194031 6.355708 -0.006376 0.160489 0.071848
 13 22.523005 2.194038 -6.355709 -0.002025 -0.170847 0.047819
 14 -3.006533 7.804720 -11.355459 0.120080 0.272529 1.544115
 15 10.384675 0.000008 0.000005 0.000531 0.182610 -1.842495
 16 22.550743 -0.000006 -0.000004 0.129274 0.037625 2.017426
 17 30.814247 -0.000015 -0.000004 2.660248 0.016262 0.541260
 18 -3.013796 7.815494 11.355459 -0.135668 -0.251539 1.569259
 19 10.374533 -0.000002 0.000007 0.005674 -0.191248 -1.876239
 20 22.550726 -0.000027 -0.000013 -0.124468 -0.012875 2.008115
 21 30.814270 -0.000023 0.000002 -2.662623 -0.059631 0.557979
 22 -4.250660 -0.770624 0.000001 -0.035822 0.154812 -3.058163
 23 10.363422 0.000000 0.000000 0.008164 -0.074410 0.154150
 24 10.363076 0.000000 -0.000000 0.001146 -0.049261 0.006409
 25 10.363081 -0.000004 -0.000002 0.035745 -0.083661 -0.074087
 26 8.210358 -0.000006 -7.703991 0.000000 0.000000 -0.162139
 27 8.210346 -0.000002 7.704017 0.000000 0.000000 -0.161509
 28 1.854841 1.227791 -13.762345 2.656139 0.152333 2.360158
 29 10.456543 -0.000004 0.000004 0.035664 0.093437 -1.359983
 30 24.248093 0.000001 0.000007 0.029595 0.033096 1.010340
 31 26.336971 0.000019 0.000002 0.345469 -0.074221 0.949529
 32 1.854847 1.227798 13.762341 -2.694846 -0.174160 2.362688
 33 10.456542 -0.000008 0.000004 -0.052099 -0.092102 -1.357936
 34 24.248116 0.000002 -0.000004 -0.030090 -0.033337 1.015864
 35 26.336975 0.000000 0.000004 -0.326232 0.016256 0.944981
time 25
  0 0.000000 0.000000 0.000000 0.000000 -0.000000 -1.570796
  1 0.000000 0.000000 -0.027345 0.000000 -0.000000 0.000000
  2 0.554704 -3.191203 18.948996 -1.570972 -0.207444 1.570715
  3 4.222169 -0.467508 0.000000 0.011758 0.000536 -0.253939
  4 4.476987 -0.000002 -0.000000 0.007497 -0.015580 -0.190423
  5 4.477083 0.000000 0.000002 -0.010427 0.027915 -0.035511
  6 4.477077 -0.000004 -0.000002 -0.011132 -0.013238 0.077676
  7 5.413502 -7.700466 -0.000000 -0.003429 0.000085 -0.202469
  8 6.890240 0.000002 -0.000000 -0.004039 -0.001856 0.227384
  9 8.011925 0.000004 0.000005 -0.000223 -0.001038 -0.172404
 10 7.210720 -0.000002 -0.000000 0.000000 0.000000 -0.321271
 11 8.581028 -0.304903 -0.000000 0.001754 0.002482 1.145342
 12 22.523008 2.194031 6.355708 -0.003883 0.232073 0.075096
 13 22.523005 2.194038 -6.355709 -0.003775 -0.230135 0.054794
 14 -3.006533 7.804720 -11.355459 0.117798 0.272061 1.537526
 15 10.384675 0.000008 0.000005 -0.001615 0.182182 -1.855429
 16 22.550743 -0.000006 -0.000004 0.129850 0.037496 2.029260
 17 30.814247 -0.000015 -0.000004 2.660419 0.012060 0.537592
 18 -3.013796 7.815494 11.355459 -0.142672 -0.251035 1.563643
 19 10.374533 -0.000002 0.000007 0.007816 -0.190440 -1.887278
 20 22.550726 -0.000027 -0.000013 -0.125409 -0.012795 2.020802
 21 30.814270 -0.000023 0.000002 -2.657915 -0.062791 0.554153
 22 -4.250660 -0.770624 0.000001 -0.033509 0.154314 -3.044490
 23 10.363422 0.000000 0.000000 0.009141 -0.069729 0.119678
 24 10.363076 0.000000 -0.000000 0.001033 -0.040068 0.005407
 25 10.363081 -0.000004 -0.000002 0.026268 -0.072145 -0.040630
 26 8.210358 -0.000006 -7.703991 0.000000 0.000000 -0.127082
 27 8.210346 -0.000002 7.704017 0.000000 0.000000 -0.126413
 28 1.854841 1.227791 -13.762345 2.665335 0.157761 2.387272
 29 10.456543 -0.000004 0.000004 0.037707 0.093344 -1.338996
 30 24.248093 0.000001 0.000007 0.029128 0.032765 0.995516
 31 26.336971 0.000019 0.000002 0.338714 -0.069596 0.953388
 32 1.854847 1.227798 13.762341 -2.704723 -0.179668 2.390119
 33 10.456542 -0.000008 0.000004 -0.054286 -0.091667 -1.335051
 34 24.248116 0.000002 -0.000004 -0.029616 -0.033042 1.001574
 35 26.336975 0.000000 0.000004 -0.320607 0.012393 0.949565
time 26
  0 0.000000 0.000000 0.000000 0.000000 -0.000000 -1.570796
  1 0.000000 0.000000 -0.019532 0.000000 -0.000000 0.000000
  2 0.398450 -3.124474 18.699959 -1.570988 -0.222207 1.570797
  3 4.222169 -0.467508 0.000000 0.010698 0.000264 -0.230357
  4 4.476987 -0.000002 -0.000000 0.007986 -0.015343 -0.161514
  5 4.477083 0.000000 0.000002 -0.010245 0.027822 -0.042331
  6 4.477077 -0.000004 -0.000002 -0.010703 -0.013478 0.058910
  7 5.413502 -7.700466 -0.000000 -0.003150 -0.000612 -0.183707
  8 6.890240 0.000002 -0.000000 -0.004290 -0.001699 0.219635
  9 8.011925 0.000004 0.000005 -0.000249 -0.001166 -0.190469
 10 7.210720 -0.000002 -0.000000 0.000000 0.000000 -0.333339
 11 8.581028 -0.304903 -0.000000 0.001755 0.002482 1.145482
 12 22.523008 2.194031 6.355708 -0.001366 0.302373 0.078271
 13 22.523005 2.194038 -6.355709 -0.005537 -0.287155 0.061613
 14 -3.006533 7.804720 -11.355459 0.115680 0.271605 1.531372
 15 10.384675 0.000008 0.000005 -0.003482 0.181815 -1.866609
 16 22.550743 -0.000006 -0.000004 0.130331 0.037414 2.039147
 17 30.814247 -0.000015 -0.000004 2.660639 0.008349 0.534596
 18 -3.013796 7.815494 11.355459 -0.149450 -0.250612 1.558165
 19 10.374533 -0.000002 0.000007 0.009591 -0.189762 -1.896365
 20 22.550726 -0.000027 -0.000013 -0.126202 -0.012739 2.031740
 21 30.814270 -0.000023 0.000002 -2.653316 -0.065870 0.550434
 22 -4.250660 -0.770624 0.000001 -0.030249 0.147670 -3.031251
 23 10.363422 0.000000 0.000000 0.008685 -0.062457 0.094085
 24 10.363076 0.000000 -0.000000 0.000843 -0.027556 0.004250
 25 10.363081 -0.000004 -0.000002 0.017634 -0.060822 -0.008694
 26 8.210358 -0.000006 -7.703991 0.000000 0.000000 -0.093927
 27 8.210346 -0.000002 7.704017 0.000000 0.000000 -0.093250
 28 1.854841 1.227791 -13.762345 2.673432 0.162652 2.412111
 29 10.456543 -0.000004 0.000004 0.039571 0.093223 -1.319711
 30 24.248093 0.000001 0.000007 0.028667 0.032436 0.981107
 31 26.336971 0.000019 0.000002 0.332809 -0.065534 0.956941
 32 1.854847 1.227798 13.762341 -2.713509 -0.184541 2.415250
 33 10.456542 -0.000008 0.000004 -0.056253 -0.091262 -1.314581
 34 24.248116 0.000002 -0.000004 -0.029163 -0.032739 0.987742
 35 26.336975 0.000000 0.000004 -0.315671 0.008944 0.953606
time 27
  0 0.000000 0.000000 0.000000 0.000000 -0.000000 -1.570796
  1 0.000000 0.000000 -0.011719 0.000000 -0.000000 0.000000
  2 0.265633 -3.065834 18.481110 -1.570893 -0.234765 1.570797
  3 4.222169 -0.467508 0.000000 0.009801 0.000058 -0.210317
  4 4.476987 -0.000002 -0.000000 0.008408 -0.015161 -0.136869
  5 4.477083 0.000000 0.000002 -0.010069 0.027734 -0.048529
  6 4.477077 -0.000004 -0.000002 -0.010273 -0.013669 0.042807
  7 5.413502 -7.700466 -0.000000 -0.002884 -0.000799 -0.169269
  8 6.890240 0.000002 -0.000000 -0.004542 -0.001542 0.211839
  9 8.011925 0.000004 0.000005 -0.000249 -0.001310 -0.208224
 10 7.210720 -0.000002 -0.000000 0.000000 0.000000 -0.344602
 11 8.581028 -0.304903 -0.000000 0.001755 0.002482 1.145482
 12 22.523008 2.194031 6.355708 0.001402 0.373314 0.081675
 13 22.523005 2.194038 -6.355709 -0.007227 -0.341058 0.068192
 14 -3.006533 7.804720 -11.355459 0.113675 0.271164 1.525652
 15 10.384675 0.000008 0.000005 -0.004982 0.181479 -1.875755
 16 22.550743 -0.000006 -0.000004 0.130732 0.037322 2.047322
 17 30.814247 -0.000015 -0.000004 2.660861 0.005246 0.532294
 18 -3.013796 7.815494 11.355459 -0.155877 -0.250249 1.552942
 19 10.374533 -0.000002 0.000007 0.011032 -0.189221 -1.903681
 20 22.550726 -0.000027 -0.000013 -0.126849 -0.012665 2.040801
 21 30.814270 -0.000023 0.000002 -2.649093 -0.068724 0.547063
 22 -4.250660 -0.770624 0.000001 -0.023454 0.117934 -3.019396
 23 10.363422 0.000000 0.000000 0.007537 -0.054423 0.073103
 24 10.363076 0.000000 -0.000000 0.000570 -0.011796 0.002835
 25 10.363081 -0.000004 -0.000002 0.010109 -0.050081 0.020730
 26 8.210358 -0.000006 -7.703991 0.000000 0.000000 -0.063762
 27 8.210346 -0.000002 7.704017 0.000000 0.000000 -0.063105
 28 1.854841 1.227791 -13.762345 2.680226 0.167050 2.434445
 29 10.456543 -0.000004 0.000004 0.041264 0.093053 -1.302260
 30 24.248093 0.000001 0.000007 0.028247 0.032111 0.967054
 31 26.336971 0.000019 0.000002 0.327760 -0.062051 0.960070
 32 1.854847 1.227798 13.762341 -2.720954 -0.188810 2.437680
 33 10.456542 -0.000008 0.000004 -0.057957 -0.090883 -1.296686
 34 24.248116 0.000002 -0.000004 -0.028715 -0.032457 0.974266
 35 26.336975 0.000000 0.000004 -0.311423 0.006003 0.957191
time 28
  0 0.000000 0.000000 0.000000 0.000000 -0.000000 -1.570796
  1 0.000000 0.000000 -0.007813 0.000000 -0.000000 0.000000
  2 0.156255 -3.018315 18.303766 -1.570892 -0.244735 1.570797
  3 4.222169 -0.467508 0.000000 0.009094 -0.000092 -0.194647
  4 4.476987 -0.000002 -0.000000 0.008730 -0.015049 -0.117376
  5 4.477083 0.000000 0.000002 -0.009921 0.027668 -0.053999
  6 4.477077 -0.000004 -0.000002 -0.009917 -0.013811 0.029570
  7 5.413502 -7.700466 -0.000000 -0.002632 -0.000816 -0.156543
  8 6.890240 0.000002 -0.000000 -0.004794 -0.001398 0.204020
  9 8.011925 0.000004 0.000005 -0.000249 -0.001454 -0.225589
 10 7.210720 -0.000002 -0.000000 0.000000 0.000000 -0.355141
 11 8.581028 -0.304903 -0.000000 0.001754 0.002482 1.145307
 12 22.523008 2.194031 6.355708 0.004243 0.440834 0.085079
 13 22.523005 2.194038 -6.355709 -0.008833 -0.390123 0.074317
 14 -3.006533 7.804720 -11.355459 0.111875 0.270794 1.520517
 15 10.384675 0.000008 0.000005 -0.006139 0.181228 -1.882587
 16 22.550743 -0.000006 -0.000004 0.131077 0.037279 2.053793
 17 30.814247 -0.000015 -0.000004 2.661127 0.002771 0.530795
 18 -3.013796 7.815494 11.355459 -0.161965 -0.249901 1.548023
 19 10.374533 -0.000002 0.000007 0.012106 -0.188789 -1.909403
 20 22.550726 -0.000027 -0.000013 -0.127355 -0.012594 2.047672
 21 30.814270 -0.000023 0.000002 -2.645361 -0.071209 0.544188
 22 -4.250660 -0.770624 0.000001 -0.016071 0.082469 -3.008129
 23 10.363422 0.000000 0.000000 0.006094 -0.046593 0.055497
 24 10.363076 0.000000 -0.000000 0.000246 0.005198 0.001341
 25 10.363081 -0.000004 -0.000002 0.003990 -0.040435 0.046434
 26 8.210358 -0.000006 -7.703991 0.000000 0.000000 -0.038046
 27 8.210346 -0.000002 7.704017 0.000000 0.000000 -0.037368
 28 1.854841 1.227791 -13.762345 2.685475 0.170432 2.451923
 29 10.456543 -0.000004 0.000004 0.042739 0.092895 -1.286991
 30 24.248093 0.000001 0.000007 0.027833 0.031770 0.953356
 31 26.336971 0.000019 0.000002 0.323739 -0.059273 0.962732
 32 1.854847 1.227798 13.762341 -2.726714 -0.192086 2.455233
 33 10.456542 -0.000008 0.000004 -0.059407 -0.090544 -1.281365
 34 24.248116 0.000002 -0.000004 -0.028278 -0.032166 0.961299
 35 26.336975 0.000000 0.000004 -0.308076 0.003650 0.960059
time 29
  0 0.000000 0.000000 0.000000 0.000000 -0.000000 -1.570796
  1 0.000000 0.000000 0.000000 0.000000 -0.000000 0.000000
  2 0.074221 -2.982929 18.171703 -1.570903 -0.252308 1.570838
  3 4.222169 -0.467508 0.000000 0.008625 -0.000203 -0.183638
  4 4.476987 -0.000002 -0.000000 0.008947 -0.014989 -0.103300
  5 4.477083 0.000000 0.000002 -0.009786 0.027608 -0.058670
  6 4.477077 -0.000004 -0.000002 -0.009648 -0.013982 0.019151
  7 5.413502 -7.700466 -0.000000 -0.002406 -0.000612 -0.145777
  8 6.890240 0.000002 -0.000000 -0.005057 -0.001268 0.196201
  9 8.011925 0.000004 0.000005 -0.000249 -0.001550 -0.240721
 10 7.210720 -0.000002 -0.000000 0.000000 0.000000 -0.365064
 11 8.581028 -0.304903 -0.000000 0.001754 0.002483 1.145026
 12 22.523008 2.194031 6.355708 0.006448 0.493353 0.087631
 13 22.523005 2.194038 -6.355709 -0.010331 -0.432955 0.079794
 14 -3.006533 7.804720 -11.355459 0.110282 0.270463 1.515961
 15 10.384675 0.000008 0.000005 -0.006902 0.181047 -1.887441
 16 22.550743 -0.000006 -0.000004 0.131345 0.037198 2.058793
 17 30.814247 -0.000015 -0.000004 2.661391 0.001092 0.530215
 18 -3.013796 7.815494 11.355459 -0.167131 -0.249624 1.543718
 19 10.374533 -0.000002 0.000007 0.012970 -0.188537 -1.913650
 20 22.550726 -0.000027 -0.000013 -0.127686 -0.012542 2.052544
 21 30.814270 -0.000023 0.000002 -2.642156 -0.073347 0.541795
 22 -4.250660 -0.770624 0.000001 -0.009132 0.047164 -2.996940
 23 10.363422 0.000000 0.000000 0.004562 -0.039414 0.041112
 24 10.363076 0.000000 -0.000000 -0.000070 0.021006 0.000052
 25 10.363081 -0.000004 -0.000002 -0.000532 -0.032338 0.067431
 26 8.210358 -0.000006 -7.703991 0.000000 0.000000 -0.017868
 27 8.210346 -0.000002 7.704017 0.000000 0.000000 -0.017192
 28 1.854841 1.227791 -13.762345 2.689239 0.172663 2.463996
 29 10.456543 -0.000004 0.000004 0.043968 0.092729 -1.274078
 30 24.248093 0.000001 0.000007 0.027462 0.031453 0.940015
 31 26.336971 0.000019 0.000002 0.320792 -0.057250 0.964911
 32 1.854847 1.227798 13.762341 -2.730778 -0.194265 2.467335
 33 10.456542 -0.000008 0.000004 -0.060563 -0.090262 -1.268735
 34 24.248116 0.000002 -0.000004 -0.027857 -0.031887 0.948586
 35 26.336975 0.000000 0.000004 -0.305631 0.001978 0.962300
time 30
  0 0.000000 0.000000 0.000000 0.000000 -0.000000 -1.570796
  1 0.000000 0.000000 0.000000 0.000000 -0.000000 0.000000
  2 0.019532 -2.960685 18.088690 -1.570903 -0.257868 1.570838
  3 4.222169 -0.467508 0.000000 0.008335 -0.000262 -0.176661
  4 4.476987 -0.000002 -0.000000 0.009087 -0.014989 -0.093975
  5 4.477083 0.000000 0.000002 -0.009676 0.027571 -0.062525
  6 4.477077 -0.000004 -0.000002 -0.009527 -0.014182 0.011553
  7 5.413502 -7.700466 -0.000000 -0.002206 -0.000187 -0.136909
  8 6.890240 0.000002 -0.000000 -0.005333 -0.001137 0.188358
  9 8.011925 0.000004 0.000005 -0.000288 -0.001630 -0.252947
 10 7.210720 -0.000002 -0.000000 0.000000 0.000000 -0.374557
 11 8.581028 -0.304903 -0.000000 0.001753 0.002483 1.144606
 12 22.523008 2.194031 6.355708 0.008497 0.540128 0.089968
 13 22.523005 2.194038 -6.355709 -0.011661 -0.468256 0.084479
 14 -3.006533 7.804720 -11.355459 0.108955 0.270220 1.512206
 15 10.384675 0.000008 0.000005 -0.007434 0.180918 -1.890602
 16 22.550743 -0.000006 -0.000004 0.131543 0.037127 2.062388
 17 30.814247 -0.000015 -0.000004 2.661654 0.000147 0.530504
 18 -3.013796 7.815494 11.355459 -0.171363 -0.249354 1.540195
 19 10.374533 -0.000002 0.000007 0.013602 -0.188331 -1.916658
 20 22.550726 -0.000027 -0.000013 -0.127912 -0.012512 2.055856
 21 30.814270 -0.000023 0.000002 -2.639368 -0.075232 0.539800
 22 -4.250660 -0.770624 0.000001 -0.003320 0.015277 -2.987030
 23 10.363422 0.000000 0.000000 0.003147 -0.033344 0.029857
 24 10.363076 0.000000 -0.000000 -0.000353 0.033158 -0.000723
 25 10.363081 -0.000004 -0.000002 -0.003240 -0.026229 0.082730
 26 8.210358 -0.000006 -7.703991 0.000000 0.000000 -0.004416
 27 8.210346 -0.000002 7.704017 0.000000 0.000000 -0.003730
 28 1.854841 1.227791 -13.762345 2.691741 0.173939 2.471461
 29 10.456543 -0.000004 0.000004 0.044967 0.092592 -1.263740
 30 24.248093 0.000001 0.000007 0.027175 0.031167 0.928335
 31 26.336971 0.000019 0.000002 0.318740 -0.055906 0.966634
 32 1.854847 1.227798 13.762341 -2.733441 -0.195590 2.474884
 33 10.456542 -0.000008 0.000004 -0.061511 -0.090041 -1.258679
 34 24.248116 0.000002 -0.000004 -0.027484 -0.031653 0.937552
 35 26.336975 0.000000 0.000004 -0.304172 0.000967 0.963742
time 31
  0 0.000000 0.000000 0.000000 0.000000 -0.000000 -1.570796
  1 0.000000 0.000000 0.000000 0.000000 -0.000000 0.000000
  2 0.000000 -2.951586 18.054731 -1.570807 -0.261511 1.570838
  3 4.222169 -0.467508 0.000000 0.008202 -0.000294 -0.172920
  4 4.476987 -0.000002 -0.000000 0.009141 -0.014996 -0.088581
  5 4.477083 0.000000 0.000002 -0.009600 0.027544 -0.065416
  6 4.477077 -0.000004 -0.000002 -0.009420 -0.014365 0.005791
  7 5.413502 -7.700466 -0.000000 -0.002047 0.000476 -0.130002
  8 6.890240 0.000002 -0.000000 -0.005597 -0.001019 0.180562
  9 8.011925 0.000004 0.000005 -0.000341 -0.001677 -0.262732
 10 7.210720 -0.000002 -0.000000 0.000000 0.000000 -0.383648
 11 8.581028 -0.304903 -0.000000 0.001751 0.002484 1.144045
 12 22.523008 2.194031 6.355708 0.009504 0.563928 0.091071
 13 22.523005 2.194038 -6.355709 -0.012668 -0.494724 0.087500
 14 -3.006533 7.804720 -11.355459 0.107984 0.269982 1.509384
 15 10.384675 0.000008 0.000005 -0.007750 0.180841 -1.892352
 16 22.550743 -0.000006 -0.000004 0.131680 0.037065 2.064824
 17 30.814247 -0.000015 -0.000004 2.661915 -0.000112 0.531365
 18 -3.013796 7.815494 11.355459 -0.174652 -0.249139 1.537400
 19 10.374533 -0.000002 0.000007 0.014012 -0.188240 -1.918487
 20 22.550726 -0.000027 -0.000013 -0.128017 -0.012469 2.057727
 21 30.814270 -0.000023 0.000002 -2.636992 -0.076858 0.538145
 22 -4.250660 -0.770624 0.000001 -0.002373 0.010078 -2.985698
 23 10.363422 0.000000 0.000000 0.002030 -0.028757 0.021622
 24 10.363076 0.000000 -0.000000 -0.000526 0.039893 -0.000852
 25 10.363081 -0.000004 -0.000002 -0.004134 -0.022439 0.091720
 26 8.210358 -0.000006 -7.703991 0.000000 0.000000 0.001665
 27 8.210346 -0.000002 7.704017 0.000000 0.000000 0.002340
 28 1.854841 1.227791 -13.762345 2.693117 0.174527 2.475355
 29 10.456543 -0.000004 0.000004 0.045671 0.092463 -1.256150
 30 24.248093 0.000001 0.000007 0.027136 0.031140 0.927090
 31 26.336971 0.000019 0.000002 0.317542 -0.055058 0.967844
 32 1.854847 1.227798 13.762341 -2.734909 -0.196261 2.478798
 33 10.456542 -0.000008 0.000004 -0.062173 -0.089868 -1.251355
 34 24.248116 0.000002 -0.000004 -0.027436 -0.031635 0.936027
 35 26.336975 0.000000 0.000004 -0.303528 0.000531 0.964530
time 32
  0 0.000000 0.000000 0.000000 0.000000 -0.000000 -1.570796
  1 0.000000 0.000000 0.000000 0.000000 -0.000000 0.000000
  2 0.000000 -2.951586 18.054731 -1.570807 -0.263524 1.570838
  3 4.222169 -0.467508 0.000000 0.008166 -0.000305 -0.171555
  4 4.476987 -0.000002 -0.000000 0.009153 -0.014996 -0.086161
  5 4.477083 0.000000 0.000002 -0.009533 0.027525 -0.067328
  6 4.477077 -0.000004 -0.000002 -0.009256 -0.014482 0.001089
  7 5.413502 -7.700466 -0.000000 -0.001954 0.001410 -0.124712
  8 6.890240 0.000002 -0.000000 -0.005872 -0.000915 0.173022
  9 8.011925 0.000004 0.000005 -0.000419 -0.001709 -0.271194
 10 7.210720 -0.000002 -0.000000 0.000000 0.000000 -0.392981
 11 8.581028 -0.304903 -0.000000 0.001727 0.002485 1.143414
 12 22.523008 2.194031 6.355708 0.010415 0.585039 0.092150
 13 22.523005 2.194038 -6.355709 -0.012895 -0.513297 0.086037
 14 -3.006533 7.804720 -11.355459 0.107300 0.269865 1.507436
 15 10.384675 0.000008 0.000005 -0.007919 0.180835 -1.893086
 16 22.550743 -0.000006 -0.000004 0.131779 0.037025 2.066224
 17 30.814247 -0.000015 -0.000004 2.662177 0.000072 0.532399
 18 -3.013796 7.815494 11.355459 -0.177207 -0.248938 1.535148
 19 10.374533 -0.000002 0.000007 0.014212 -0.188225 -1.919549
 20 22.550726 -0.000027 -0.000013 -0.128048 -0.012444 2.058537
 21 30.814270 -0.000023 0.000002 -2.634882 -0.078310 0.536779
 22 -4.250660 -0.770624 0.000001 -0.001930 0.008232 -2.985391
 23 10.363422 0.000000 0.000000 0.001222 -0.025475 0.015942
 24 10.363076 0.000000 -0.000000 -0.000571 0.042183 -0.000491
 25 10.363081 -0.000004 -0.000002 -0.003722 -0.020521 0.095718
 26 8.210358 -0.000006 -7.703991 0.000000 0.000000 0.002344
 27 8.210346 -0.000002 7.704017 0.000000 0.000000 0.003018
 28 1.854841 1.227791 -13.762345 2.693719 0.174623 2.476541
 29 10.456543 -0.000004 0.000004 0.046177 0.092382 -1.250872
 30 24.248093 0.000001 0.000007 0.027133 0.031164 0.926972
 31 26.336971 0.000019 0.000002 0.316937 -0.054631 0.968567
 32 1.854847 1.227798 13.762341 -2.735457 -0.196462 2.480049
 33 10.456542 -0.000008 0.000004 -0.062632 -0.089718 -1.246250
 34 24.248116 0.000002 -0.000004 -0.027427 -0.031643 0.935722
 35 26.336975 0.000000 0.000004 -0.303400 0.000484 0.964900
time 33
  0 0.000000 0.000000 0.000000 0.000000 -0.000000 -1.570796
  1 0.000000 0.000000 0.000000 0.000000 -0.000000 0.000000
  2 0.000000 -2.951586 18.054731 -1.570807 -0.264387 1.570838
  3 4.222169 -0.467508 0.000000 0.008214 -0.000304 -0.171678
  4 4.476987 -0.000002 -0.000000 0.009136 -0.014978 -0.085783
  5 4.477083 0.000000 0.000002 -0.009496 0.027517 -0.068174
  6 4.477077 -0.000004 -0.000002 -0.009070 -0.014552 -0.002602
  7 5.413502 -7.700466 -0.000000 -0.001848 0.002651 -0.124868
  8 6.890240 0.000002 -0.000000 -0.006004 -0.000810 0.162294
  9 8.011925 0.000004 0.000005 -0.000432 -0.001741 -0.275244
 10 7.210720 -0.000002 -0.000000 0.000000 0.000000 -0.396869
 11 8.581028 -0.304903 -0.000000 0.001724 0.002470 1.141942
 12 22.523008 2.194031 6.355708 0.011122 0.605142 0.091586
 13 22.523005 2.194038 -6.355709 -0.011745 -0.525033 0.076678
 14 -3.006533 7.804720 -11.355459 0.106997 0.269856 1.506503
 15 10.384675 0.000008 0.000005 -0.007977 0.180876 -1.893199
 16 22.550743 -0.000006 -0.000004 0.131828 0.036961 2.066705
 17 30.814247 -0.000015 -0.000004 2.662352 0.000534 0.533289
 18 -3.013796 7.815494 11.355459 -0.179101 -0.248773 1.533322
 19 10.374533 -0.000002 0.000007 0.014256 -0.188255 -1.919786
 20 22.550726 -0.000027 -0.000013 -0.128049 -0.012428 2.058661
 21 30.814270 -0.000023 0.000002 -2.633038 -0.079616 0.535655
 22 -4.250660 -0.770624 0.000001 -0.001402 0.006210 -2.985033
 23 10.363422 0.000000 0.000000 0.000672 -0.023246 0.012287
 24 10.363076 0.000000 -0.000000 -0.000525 0.041703 0.000052
 25 10.363081 -0.000004 -0.000002 -0.002664 -0.019950 0.096388
 26 8.210358 -0.000006 -7.703991 0.000000 0.000000 0.000068
 27 8.210346 -0.000002 7.704017 0.000000 0.000000 0.000678
 28 1.854841 1.227791 -13.762345 2.693793 0.174465 2.476207
 29 10.456543 -0.000004 0.000004 0.046470 0.092334 -1.247513
 30 24.248093 0.000001 0.000007 0.027125 0.031150 0.926735
 31 26.336971 0.000019 0.000002 0.316739 -0.054527 0.969009
 32 1.854847 1.227798 13.762341 -2.735501 -0.196368 2.479756
 33 10.456542 -0.000008 0.000004 -0.062927 -0.089652 -1.242963
 34 24.248116 0.000002 -0.000004 -0.027427 -0.031643 0.935316
 35 26.336975 0.000000 0.000004 -0.303571 0.000619 0.964916
time 34
  0 0.000000 0.000000 0.000000 0.000000 -0.000000 -1.570796
  1 0.000000 0.000000 0.000000 0.000000 -0.000000 0.000000
  2 0.000000 -2.951586 18.054731 -1.570807 -0.264195 1.570838
  3 4.222169 -0.467508 0.000000 0.008298 -0.000298 -0.172445
  4 4.476987 -0.000002 -0.000000 0.009111 -0.014907 -0.086537
  5 4.477083 0.000000 0.000002 -0.009488 0.027504 -0.067877
  6 4.477077 -0.000004 -0.000002 -0.008887 -0.014576 -0.005312
  7 5.413502 -7.700466 -0.000000 -0.001435 0.003126 -0.219271
  8 6.890240 0.000002 -0.000000 -0.003751 -0.000497 0.101370
  9 8.011925 0.000004 0.000005 0.000000 -0.000639 -0.191326
 10 7.210720 -0.000002 -0.000000 0.000000 0.000000 -0.281582
 11 8.581028 -0.304903 -0.000000 0.001606 0.002420 1.109100
 12 22.523008 2.194031 6.355708 0.007538 0.606303 0.061889
 13 22.523005 2.194038 -6.355709 -0.008857 -0.531265 0.057239
 14 -3.006533 7.804720 -11.355459 0.106982 0.269911 1.506652
 15 10.384675 0.000008 0.000005 -0.008001 0.180963 -1.892918
 16 22.550743 -0.000006 -0.000004 0.131819 0.036851 2.066446
 17 30.814247 -0.000015 -0.000004 2.662439 0.001132 0.533624
 18 -3.013796 7.815494 11.355459 -0.180610 -0.248593 1.531792
 19 10.374533 -0.000002 0.000007 0.014212 -0.188358 -1.919551
 20 22.550726 -0.000027 -0.000013 -0.128004 -0.012437 2.058286
 21 30.814270 -0.000023 0.000002 -2.631380 -0.080836 0.534677
 22 -4.250660 -0.770624 0.000001 -0.000863 0.004172 -2.984674
 23 10.363422 0.000000 0.000000 0.000333 -0.021784 0.010108
 24 10.363076 0.000000 -0.000000 -0.000400 0.040121 0.000491
 25 10.363081 -0.000004 -0.000002 -0.001613 -0.020044 0.095555
 26 8.210358 -0.000006 -7.703991 0.000000 0.000000 -0.002718
 27 8.210346 -0.000002 7.704017 0.000000 0.000000 -0.002204
 28 1.854841 1.227791 -13.762345 2.693545 0.174247 2.475286
 29 10.456543 -0.000004 0.000004 0.046651 0.092296 -1.245551
 30 24.248093 0.000001 0.000007 0.027114 0.031160 0.926380
 31 26.336971 0.000019 0.000002 0.316870 -0.054552 0.969000
 32 1.854847 1.227798 13.762341 -2.735229 -0.196178 2.478883
 33 10.456542 -0.000008 0.000004 -0.063097 -0.089588 -1.241064
 34 24.248116 0.000002 -0.000004 -0.027414 -0.031654 0.934910
 35 26.336975 0.000000 0.000004 -0.303743 0.000763 0.964753
time 35
  0 0.000000 0.000000 0.000000 0.000000 -0.000000 -1.570796
  1 0.000000 0.000000 0.000000 0.000000 -0.000000 0.000000
  2 0.000000 -2.951586 18.054731 -1.570797 -0.263237 1.570797
  3 4.222169 -0.467508 0.000000 0.008382 -0.000293 -0.172981
  4 4.476987 -0.000002 -0.000000 0.009090 -0.014791 -0.087558
  5 4.477083 0.000000 0.000002 -0.009506 0.027518 -0.066365
  6 4.477077 -0.000004 -0.000002 -0.008742 -0.014591 -0.007072
  7 5.413502 -7.700466 -0.000000 -0.000319 0.000612 -0.386328
  8 6.890240 0.000002 -0.000000 -0.001774 -0.000157 0.046450
  9 8.011925 0.000004 0.000005 0.000039 -0.000112 -0.085631
 10 7.210720 -0.000002 -0.000000 0.000000 0.000000 -0.118801
 11 8.581028 -0.304903 -0.000000 0.001473 0.002341 1.070089
 12 22.523008 2.194031 6.355708 0.003763 0.606425 0.030920
 13 22.523005 2.194038 -6.355709 -0.004722 -0.533624 0.030453
 14 -3.006533 7.804720 -11.355459 0.107425 0.270080 1.508105
 15 10.384675 0.000008 0.000005 -0.008083 0.181071 -1.892749
 16 22.550743 -0.000006 -0.000004 0.131787 0.036734 2.065575
 17 30.814247 -0.000015 -0.000004 2.662439 0.001607 0.532974
 18 -3.013796 7.815494 11.355459 -0.181757 -0.248454 1.530449
 19 10.374533 -0.000002 0.000007 0.014080 -0.188534 -1.918845
 20 22.550726 -0.000027 -0.000013 -0.127956 -0.012450 2.057725
 21 30.814270 -0.000023 0.000002 -2.629873 -0.081990 0.533832
 22 -4.250660 -0.770624 0.000001 -0.000384 0.002118 -2.984316
 23 10.363422 0.000000 0.000000 0.000129 -0.020837 0.008919
 24 10.363076 0.000000 -0.000000 -0.000217 0.039091 0.000568
 25 10.363081 -0.000004 -0.000002 -0.001156 -0.020276 0.094858
 26 8.210358 -0.000006 -7.703991 0.000000 0.000000 -0.003533
 27 8.210346 -0.000002 7.704017 0.000000 0.000000 -0.003255
 28 1.854841 1.227791 -13.762345 2.693215 0.174139 2.474653
 29 10.456543 -0.000004 0.000004 0.046722 0.092287 -1.244591
 30 24.248093 0.000001 0.000007 0.027103 0.031169 0.926024
 31 26.336971 0.000019 0.000002 0.317061 -0.054616 0.968688
 32 1.854847 1.227798 13.762341 -2.734968 -0.196066 2.478406
 33 10.456542 -0.000008 0.000004 -0.063155 -0.089551 -1.240035
 34 24.248116 0.000002 -0.000004 -0.027414 -0.031653 0.934503
 35 26.336975 0.000000 0.000004 -0.303743 0.000772 0.964573
time 36
  0 0.000000 0.000000 0.000000 0.000000 -0.000000 -1.570796
  1 0.000000 0.000000 0.000000 0.000000 -0.000000 0.000000
  2 0.000000 -2.951586 18.054731 -1.570797 -0.261799 1.570797
  3 4.222169 -0.467508 0.000000 0.008406 -0.000297 -0.172506
  4 4.476987 -0.000002 -0.000000 0.009095 -0.014595 -0.087911
  5 4.477083 0.000000 0.000002 -0.009550 0.027545 -0.063592
  6 4.477077 -0.000004 -0.000002 -0.008694 -0.014598 -0.007866
  7 5.413502 -7.700466 -0.000000 0.000000 0.000000 -0.453786
  8 6.890240 0.000002 -0.000000 0.000000 0.000000 -0.000000
  9 8.011925 0.000004 0.000005 0.000000 0.000000 -0.000000
 10 7.210720 -0.000002 -0.000000 0.000000 0.000000 -0.000000
 11 8.581028 -0.304903 -0.000000 0.001405 0.002301 1.050566
 12 22.523008 2.194031 6.355708 0.000000 0.606456 0.000000
 13 22.523005 2.194038 -6.355709 0.000000 -0.534017 0.000000
 14 -3.006533 7.804720 -11.355459 0.108324 0.270361 1.510860
 15 10.384675 0.000008 0.000005 -0.008195 0.181198 -1.892750
 16 22.550743 -0.000006 -0.000004 0.131742 0.036609 2.064336
 17 30.814247 -0.000015 -0.000004 2.662263 0.001821 0.531006
 18 -3.013796 7.815494 11.355459 -0.182765 -0.248304 1.529165
 19 10.374533 -0.000002 0.000007 0.013925 -0.188678 -1.918021
 20 22.550726 -0.000027 -0.000013 -0.127930 -0.012466 2.057289
 21 30.814270 -0.000023 0.000002 -2.628438 -0.083137 0.533023
 22 -4.250660 -0.770624 0.000001 0.000000 -0.000000 -2.983957
 23 10.363422 0.000000 0.000000 -0.000000 -0.020142 0.008171
 24 10.363076 0.000000 -0.000000 0.000000 0.040277 -0.000000
 25 10.363081 -0.000004 -0.000002 -0.001930 -0.020043 0.096012
 26 8.210358 -0.000006 -7.703991 0.000000 0.000000 -0.000000
 27 8.210346 -0.000002 7.704017 0.000000 0.000000 -0.000000
 28 1.854841 1.227791 -13.762345 2.693081 0.174438 2.475398
 29 10.456543 -0.000004 0.000004 0.046753 0.092263 -1.244068
 30 24.248093 0.000001 0.000007 0.027092 0.031179 0.925669
 31 26.336971 0.000019 0.000002 0.317183 -0.054601 0.968053
 32 1.854847 1.227798 13.762341 -2.735031 -0.196214 2.479249
 33 10.456542 -0.000008 0.000004 -0.063201 -0.089519 -1.239522
 34 24.248116 0.000002 -0.000004 -0.027401 -0.031664 0.934097
 35 26.336975 0.000000 0.000004 -0.303314 0.000501 0.964539
end
