version 1
nodes
  0 "Chaurus" -1
  1 "NPC Root [Root]" 0
  2 "Pelvis [Pelv]" 1
  3 "Spine[Spn0]" 2
  4 "Spine[Spn1]" 3
  5 "Spine[Spn2]" 4
  6 "Ribcage[Spn3]" 5
  7 "[Neck0]" 6
  8 "[Neck1]" 7
  9 "[Neck2]" 8
 10 "[Neck3]" 9
 11 "NPC Head [Head]" 10
 12 "Head[LeftPincher]" 11
 13 "Head[RightPincher]" 11
 14 "R UpperArm[RClv]" 6
 15 "R UpperArm[RUar]" 14
 16 "R UpperArm[RLar]" 15
 17 "R UpperArm[RHnd]" 16
 18 "L UpperArm[RClv]" 6
 19 "L UpperArm[LUar]" 18
 20 "L UpperArm[LLar]" 19
 21 "L UpperArm[LHnd]" 20
 22 "Tail[Tal0]" 2
 23 "Tail[Tal1]" 22
 24 "Tail[Tal2]" 23
 25 "Tail[Tal3]" 24
 26 "[TalRightPincher]" 25
 27 "[TalLeftPincher]" 25
 28 "R Leg[RThg0]" 2
 29 "R Leg[RThg1]" 28
 30 "R Leg[RClf]" 29
 31 "R Leg[RAnkle]" 30
 32 "LLeg[RThg0]" 2
 33 "LLeg[LThg1]" 32
 34 "LLeg[LClf]" 33
 35 "LLeg[LAnkle]" 34
end
skeleton
time 0
  0 0.000000 0.000000 0.000000 0.000000 -0.000000 -1.570796
  1 0.000000 0.000000 0.000000 0.000000 -0.000000 0.000000
  2 11.996460 -2.951586 22.730656 -1.492286 -0.191553 1.484615
  3 4.222169 -0.467508 0.000000 0.008406 -0.000297 -0.172506
  4 4.476987 -0.000002 -0.000000 -0.013951 -0.109584 -0.048377
  5 4.477083 0.000000 0.000002 -0.043694 -0.058069 0.166678
  6 4.477077 -0.000004 -0.000002 -0.023315 -0.029688 0.124800
  7 5.413502 -7.700466 -0.000000 0.015219 -0.112176 0.024734
  8 6.890240 0.000002 -0.000000 -0.004099 0.016769 -0.479948
  9 8.011925 0.000004 0.000005 -0.004689 0.051649 -0.261409
 10 7.210720 -0.000002 -0.000000 0.017816 0.155911 -0.190161
 11 7.811473 -0.304903 -0.000000 -0.073158 0.047252 1.114778
 12 22.523008 2.194031 6.355708 0.000000 -0.000000 0.000000
 13 22.523005 2.194038 -6.355709 0.000000 -0.000000 0.000000
 14 -3.006533 7.804720 -11.355459 0.076528 0.058520 1.401532
 15 10.384675 0.000008 0.000005 0.011489 0.217054 -1.768342
 16 22.550743 -0.000006 -0.000004 0.076599 -0.217883 1.486732
 17 30.814247 -0.000015 -0.000004 3.063370 0.202606 0.682572
 18 -3.013796 7.815494 11.355459 0.649047 -1.246940 0.406088
 19 10.374533 -0.000002 0.000007 -0.668331 -0.906118 -0.656435
 20 22.550726 -0.000027 -0.000013 0.169549 0.138831 2.190855
 21 30.814270 -0.000023 0.000002 -1.871824 -0.301947 0.373903
 22 -4.250660 -0.770624 0.000001 0.070397 -0.117982 3.133302
 23 10.363422 0.000000 0.000000 -0.019271 0.064721 -0.332549
 24 10.363076 0.000000 -0.000000 -0.010283 0.100859 0.180953
 25 10.363081 -0.000004 -0.000002 0.046800 0.039470 0.457591
 26 8.210358 -0.000006 -7.703991 0.000000 0.000000 -0.000000
 27 8.210346 -0.000002 7.704017 0.000000 0.000000 -0.000000
 28 1.854841 1.227791 -13.762345 2.417807 0.179841 1.910316
 29 10.456543 -0.000004 0.000004 -0.033015 0.064717 -2.325773
 30 24.248093 0.000001 0.000007 0.060902 0.037212 1.889879
 31 26.336971 0.000019 0.000002 0.501247 0.034194 0.597099
 32 1.854847 1.227798 13.762341 -2.226659 -1.063589 2.006175
 33 10.456542 -0.000008 0.000004 0.102604 0.243730 -0.787793
 34 24.248116 0.000002 -0.000004 -0.025264 0.017641 1.905432
 35 26.336975 0.000000 0.000004 -1.488430 -0.202566 0.064398
time 1
  0 0.000000 0.000000 0.000000 0.000000 -0.000000 -1.570796
  1 0.000000 0.000000 0.000000 0.000000 -0.000000 0.000000
  2 11.996460 -2.951586 22.730656 -1.492286 -0.191553 1.484615
  3 4.222169 -0.467508 0.000000 0.008406 -0.000297 -0.172506
  4 4.476987 -0.000002 -0.000000 -0.013951 -0.109584 -0.048377
  5 4.477083 0.000000 0.000002 -0.043694 -0.058069 0.166678
  6 4.477077 -0.000004 -0.000002 -0.023315 -0.029688 0.124800
  7 5.413502 -7.700466 -0.000000 0.015219 -0.112176 0.024734
  8 6.890240 0.000002 -0.000000 -0.004099 0.016769 -0.479948
  9 8.011925 0.000004 0.000005 -0.004689 0.051649 -0.261409
 10 7.210720 -0.000002 -0.000000 0.017816 0.155911 -0.190161
 11 7.811473 -0.304903 -0.000000 -0.073158 0.047252 1.114778
 12 22.523008 2.194031 6.355708 0.000000 -0.000000 0.000000
 13 22.523005 2.194038 -6.355709 0.000000 -0.000000 0.000000
 14 -3.006533 7.804720 -11.355459 0.076528 0.058520 1.401532
 15 10.384675 0.000008 0.000005 0.011489 0.217054 -1.768342
 16 22.550743 -0.000006 -0.000004 0.076599 -0.217883 1.486732
 17 30.814247 -0.000015 -0.000004 3.063370 0.202606 0.682572
 18 -3.013796 7.815494 11.355459 0.649047 -1.246940 0.406088
 19 10.374533 -0.000002 0.000007 -0.668331 -0.906118 -0.656435
 20 22.550726 -0.000027 -0.000013 0.169549 0.138831 2.190855
 21 30.814270 -0.000023 0.000002 -1.871824 -0.301947 0.373903
 22 -4.250660 -0.770624 0.000001 0.070397 -0.117982 3.133302
 23 10.363422 0.000000 0.000000 -0.019271 0.064721 -0.332549
 24 10.363076 0.000000 -0.000000 -0.010283 0.100859 0.180953
 25 10.363081 -0.000004 -0.000002 0.046800 0.039470 0.457591
 26 8.210358 -0.000006 -7.703991 0.000000 0.000000 -0.000000
 27 8.210346 -0.000002 7.704017 0.000000 0.000000 -0.000000
 28 1.854841 1.227791 -13.762345 2.417807 0.179841 1.910316
 29 10.456543 -0.000004 0.000004 -0.033015 0.064717 -2.325773
 30 24.248093 0.000001 0.000007 0.060902 0.037212 1.889879
 31 26.336971 0.000019 0.000002 0.501247 0.034194 0.597099
 32 1.854847 1.227798 13.762341 -2.226659 -1.063589 2.006175
 33 10.456542 -0.000008 0.000004 0.102604 0.243730 -0.787793
 34 24.248116 0.000002 -0.000004 -0.025264 0.017641 1.905432
 35 26.336975 0.000000 0.000004 -1.488430 -0.202566 0.064398
time 2
  0 0.000000 0.000000 0.000000 0.000000 -0.000000 -1.570796
  1 0.000000 0.000000 0.000000 0.000000 -0.000000 0.000000
  2 11.668324 -2.951586 22.980663 -1.494395 -0.191194 1.487203
  3 4.222169 -0.467508 0.000000 0.008406 -0.000297 -0.172506
  4 4.476987 -0.000002 -0.000000 -0.013053 -0.106435 -0.049465
  5 4.477083 0.000000 0.000002 -0.042544 -0.057196 0.166633
  6 4.477077 -0.000004 -0.000002 -0.023663 -0.031605 0.124785
  7 5.413502 -7.700466 -0.000000 0.015245 -0.102253 0.024796
  8 6.890240 0.000002 -0.000000 -0.005860 0.005411 -0.467382
  9 8.011925 0.000004 0.000005 0.001283 0.040131 -0.302602
 10 7.210720 -0.000002 -0.000000 0.017541 0.144753 -0.184208
 11 7.811473 -0.304903 -0.000000 -0.044545 0.058946 1.115829
 12 22.523008 2.194031 6.355708 0.000000 -0.000000 0.000000
 13 22.523005 2.194038 -6.355709 0.000000 -0.000000 0.000000
 14 -3.006533 7.804720 -11.355459 0.066218 0.090353 1.210483
 15 10.384675 0.000008 0.000005 0.029605 0.164076 -1.433717
 16 22.550743 -0.000006 -0.000004 0.119779 -0.214210 1.234915
 17 30.814247 -0.000015 -0.000004 3.077391 0.176493 0.789004
 18 -3.013796 7.815494 11.355459 -0.121364 -1.386768 1.323223
 19 10.374533 -0.000002 0.000007 -0.648310 -0.838046 -0.944216
 20 22.550726 -0.000027 -0.000013 -0.032495 0.094170 2.219454
 21 30.814270 -0.000023 0.000002 -1.697544 -0.151572 0.313212
 22 -4.250660 -0.770624 0.000001 0.068708 -0.114147 -3.135365
 23 10.363422 0.000000 0.000000 -0.018109 0.063498 -0.312920
 24 10.363076 0.000000 -0.000000 -0.006975 0.097096 0.148897
 25 10.363081 -0.000004 -0.000002 0.046763 0.040148 0.420542
 26 8.210358 -0.000006 -7.703991 0.000000 0.000000 -0.000000
 27 8.210346 -0.000002 7.704017 0.000000 0.000000 -0.000000
 28 1.854841 1.227791 -13.762345 2.433769 0.168837 1.909708
 29 10.456543 -0.000004 0.000004 -0.027076 0.069824 -2.248920
 30 24.248093 0.000001 0.000007 0.057602 0.037212 1.812148
 31 26.336971 0.000019 0.000002 0.487152 0.031199 0.593012
 32 1.854847 1.227798 13.762341 -1.969924 -1.060443 1.692889
 33 10.456542 -0.000008 0.000004 0.080865 0.227033 -0.815578
 34 24.248116 0.000002 -0.000004 -0.030173 0.010989 1.888728
 35 26.336975 0.000000 0.000004 -1.598254 -0.300408 0.088926
time 3
  0 0.000000 0.000000 0.000000 0.000000 -0.000000 -1.570796
  1 0.000000 0.000000 0.000000 0.000000 -0.000000 0.000000
  2 10.793298 -2.951586 23.586151 -1.500530 -0.191673 1.492859
  3 4.222169 -0.467508 0.000000 0.008406 -0.000297 -0.172506
  4 4.476987 -0.000002 -0.000000 -0.010919 -0.097975 -0.050198
  5 4.477083 0.000000 0.000002 -0.039332 -0.050670 0.166337
  6 4.477077 -0.000004 -0.000002 -0.023411 -0.030421 0.124582
  7 5.413502 -7.700466 -0.000000 0.015232 -0.084548 0.024889
  8 6.890240 0.000002 -0.000000 -0.007323 -0.015566 -0.447438
  9 8.011925 0.000004 0.000005 0.005723 0.013387 -0.333957
 10 7.210720 -0.000002 -0.000000 0.017459 0.120177 -0.178979
 11 7.811473 -0.304903 -0.000000 -0.002476 0.094695 1.114392
 12 22.523008 2.194031 6.355708 0.000000 -0.000000 0.000000
 13 22.523005 2.194038 -6.355709 0.000000 -0.000000 0.000000
 14 -3.006533 7.804720 -11.355459 0.050700 0.149107 1.068948
 15 10.384675 0.000008 0.000005 0.008650 0.096820 -1.198063
 16 22.550743 -0.000006 -0.000004 0.153524 -0.218601 1.080435
 17 30.814247 -0.000015 -0.000004 3.086564 0.111509 0.841361
 18 -3.013796 7.815494 11.355459 -0.962698 -1.317713 2.301063
 19 10.374533 -0.000002 0.000007 -0.710800 -0.808610 -1.071030
 20 22.550726 -0.000027 -0.000013 -0.142883 0.037633 2.235646
 21 30.814270 -0.000023 0.000002 -1.579148 -0.009515 0.259493
 22 -4.250660 -0.770624 0.000001 0.060714 -0.103010 -3.091758
 23 10.363422 0.000000 0.000000 -0.014813 0.061161 -0.262988
 24 10.363076 0.000000 -0.000000 0.001822 0.086070 0.067209
 25 10.363081 -0.000004 -0.000002 0.045852 0.040533 0.308777
 26 8.210358 -0.000006 -7.703991 0.000000 0.000000 -0.000000
 27 8.210346 -0.000002 7.704017 0.000000 0.000000 -0.000000
 28 1.854841 1.227791 -13.762345 2.469212 0.169503 1.958303
 29 10.456543 -0.000004 0.000004 -0.011807 0.079842 -2.066907
 30 24.248093 0.000001 0.000007 0.050373 0.036022 1.630756
 31 26.336971 0.000019 0.000002 0.470664 0.016167 0.634101
 32 1.854847 1.227798 13.762341 -1.809548 -0.995513 1.490709
 33 10.456542 -0.000008 0.000004 0.018124 0.185596 -0.914854
 34 24.248116 0.000002 -0.000004 -0.034383 0.004050 1.873953
 35 26.336975 0.000000 0.000004 -1.637320 -0.409046 0.119389
time 4
  0 0.000000 0.000000 0.000000 0.000000 -0.000000 -1.570796
  1 0.000000 0.000000 0.000000 0.000000 -0.000000 0.000000
  2 9.453413 -2.951586 24.402580 -1.510020 -0.192790 1.501103
  3 4.222169 -0.467508 0.000000 0.008406 -0.000297 -0.172506
  4 4.476987 -0.000002 -0.000000 -0.007743 -0.085103 -0.050597
  5 4.477083 0.000000 0.000002 -0.034346 -0.039460 0.165788
  6 4.477077 -0.000004 -0.000002 -0.022644 -0.026794 0.124208
  7 5.413502 -7.700466 -0.000000 0.015205 -0.058076 0.024983
  8 6.890240 0.000002 -0.000000 -0.008869 -0.039654 -0.425656
  9 8.011925 0.000004 0.000005 0.009325 -0.023101 -0.357059
 10 7.210720 -0.000002 -0.000000 0.017459 0.085962 -0.174581
 11 7.811473 -0.304903 -0.000000 0.038675 0.128087 1.113446
 12 22.523008 2.194031 6.355708 0.000000 -0.000000 0.000000
 13 22.523005 2.194038 -6.355709 0.000000 -0.000000 0.000000
 14 -3.006533 7.804720 -11.355459 0.028996 0.207120 0.928236
 15 10.384675 0.000008 0.000005 -0.030568 0.029563 -1.059603
 16 22.550743 -0.000006 -0.000004 0.172763 -0.237570 1.026743
 17 30.814247 -0.000015 -0.000004 3.091587 0.046243 0.888812
 18 -3.013796 7.815494 11.355459 -1.121240 -1.193131 2.604476
 19 10.374533 -0.000002 0.000007 -0.847305 -0.818145 -1.069812
 20 22.550726 -0.000027 -0.000013 -0.180611 -0.046251 2.241601
 21 30.814270 -0.000023 0.000002 -1.528281 0.127721 0.188537
 22 -4.250660 -0.770624 0.000001 0.049101 -0.086561 -3.029510
 23 10.363422 0.000000 0.000000 -0.010187 0.057806 -0.194703
 24 10.363076 0.000000 -0.000000 0.012584 0.068728 -0.043877
 25 10.363081 -0.000004 -0.000002 0.044990 0.041350 0.193978
 26 8.210358 -0.000006 -7.703991 0.000000 0.000000 -0.000000
 27 8.210346 -0.000002 7.704017 0.000000 0.000000 -0.000000
 28 1.854841 1.227791 -13.762345 2.523519 0.232121 2.129695
 29 10.456543 -0.000004 0.000004 0.019185 0.089238 -1.726153
 30 24.248093 0.000001 0.000007 0.043367 0.033459 1.444331
 31 26.336971 0.000019 0.000002 0.453393 0.001609 0.675962
 32 1.854847 1.227798 13.762341 -1.735067 -0.901031 1.389554
 33 10.456542 -0.000008 0.000004 -0.076088 0.123593 -1.070882
 34 24.248116 0.000002 -0.000004 -0.024629 -0.009061 1.903300
 35 26.336975 0.000000 0.000004 -1.629730 -0.528324 0.158498
time 5
  0 0.000000 0.000000 0.000000 0.000000 -0.000000 -1.570796
  1 0.000000 0.000000 0.000000 0.000000 -0.000000 0.000000
  2 7.734611 -2.951586 25.289328 -1.522195 -0.194425 1.511552
  3 4.222169 -0.467508 0.000000 0.008406 -0.000297 -0.172506
  4 4.476987 -0.000002 -0.000000 -0.003705 -0.068697 -0.050686
  5 4.477083 0.000000 0.000002 -0.027910 -0.024485 0.164944
  6 4.477077 -0.000004 -0.000002 -0.021482 -0.021344 0.123601
  7 5.413502 -7.700466 -0.000000 0.015219 -0.023108 0.025045
  8 6.890240 0.000002 -0.000000 -0.010463 -0.060488 -0.407481
  9 8.011925 0.000004 0.000005 0.012259 -0.063742 -0.373256
 10 7.210720 -0.000002 -0.000000 0.017459 0.045815 -0.171041
 11 7.811473 -0.304903 -0.000000 0.078333 0.158544 1.112745
 12 22.523008 2.194031 6.355708 0.000000 -0.000000 0.000000
 13 22.523005 2.194038 -6.355709 0.000000 -0.000000 0.000000
 14 -3.006533 7.804720 -11.355459 0.034260 0.286260 0.823029
 15 10.384675 0.000008 0.000005 -0.062653 -0.036739 -0.992789
 16 22.550743 -0.000006 -0.000004 0.171915 -0.272725 1.064515
 17 30.814247 -0.000015 -0.000004 3.081715 -0.002660 0.883369
 18 -3.013796 7.815494 11.355459 -1.051031 -1.089213 2.670482
 19 10.374533 -0.000002 0.000007 -1.051826 -0.866451 -0.984342
 20 22.550726 -0.000027 -0.000013 -0.179345 -0.168985 2.262756
 21 30.814270 -0.000023 0.000002 -1.540700 0.222801 0.089830
 22 -4.250660 -0.770624 0.000001 0.036301 -0.067015 -2.959068
 23 10.363422 0.000000 0.000000 -0.005034 0.053635 -0.120322
 24 10.363076 0.000000 -0.000000 0.024568 0.047695 -0.164951
 25 10.363081 -0.000004 -0.000002 0.043981 0.042028 0.049781
 26 8.210358 -0.000006 -7.703991 0.000000 0.000000 -0.000000
 27 8.210346 -0.000002 7.704017 0.000000 0.000000 -0.000000
 28 1.854841 1.227791 -13.762345 2.570746 0.298859 2.321706
 29 10.456543 -0.000004 0.000004 0.055016 0.085394 -1.330255
 30 24.248093 0.000001 0.000007 0.035804 0.028980 1.202790
 31 26.336971 0.000019 0.000002 0.438384 -0.011662 0.721744
 32 1.854847 1.227798 13.762341 -1.724398 -0.795660 1.365170
 33 10.456542 -0.000008 0.000004 -0.187834 0.040664 -1.264193
 34 24.248116 0.000002 -0.000004 -0.013449 -0.022304 1.937572
 35 26.336975 0.000000 0.000004 -1.625356 -0.648998 0.199756
time 6
  0 0.000000 0.000000 0.000000 0.000000 -0.000000 -1.570796
  1 0.000000 0.000000 0.000000 0.000000 -0.000000 0.000000
  2 5.718925 -2.951586 26.094040 -1.536478 -0.196340 1.523727
  3 4.222169 -0.467508 0.000000 0.008406 -0.000297 -0.172506
  4 4.476987 -0.000002 -0.000000 0.001017 -0.049678 -0.050442
  5 4.477083 0.000000 0.000002 -0.020324 -0.006652 0.163787
  6 4.477077 -0.000004 -0.000002 -0.020031 -0.014673 0.122744
  7 5.413502 -7.700466 -0.000000 0.015259 0.015394 0.025107
  8 6.890240 0.000002 -0.000000 -0.011805 -0.075531 -0.394985
  9 8.011925 0.000004 0.000005 0.014511 -0.102882 -0.383794
 10 7.210720 -0.000002 -0.000000 0.017459 0.003513 -0.168520
 11 7.811473 -0.304903 -0.000000 0.115672 0.185210 1.111938
 12 22.523008 2.194031 6.355708 0.000000 -0.000000 0.000000
 13 22.523005 2.194038 -6.355709 0.000000 -0.000000 0.000000
 14 -3.006533 7.804720 -11.355459 0.037244 0.369321 0.719813
 15 10.384675 0.000008 0.000005 -0.067845 -0.102828 -0.958355
 16 22.550743 -0.000006 -0.000004 0.148278 -0.314997 1.166029
 17 30.814247 -0.000015 -0.000004 3.055333 -0.012409 0.851460
 18 -3.013796 7.815494 11.355459 -0.918098 -0.992619 2.635370
 19 10.374533 -0.000002 0.000007 -1.290930 -0.944291 -0.879214
 20 22.550726 -0.000027 -0.000013 -0.181245 -0.293249 2.289990
 21 30.814270 -0.000023 0.000002 -1.584936 0.253311 -0.019197
 22 -4.250660 -0.770624 0.000001 0.024149 -0.047084 -2.890726
 23 10.363422 0.000000 0.000000 -0.000012 0.049045 -0.052192
 24 10.363076 0.000000 -0.000000 0.036625 0.025680 -0.276113
 25 10.363081 -0.000004 -0.000002 0.043045 0.042767 -0.093906
 26 8.210358 -0.000006 -7.703991 0.000000 0.000000 -0.000000
 27 8.210346 -0.000002 7.704017 0.000000 0.000000 -0.000000
 28 1.854841 1.227791 -13.762345 2.626549 0.356666 2.515783
 29 10.456543 -0.000004 0.000004 0.083720 0.068294 -0.940611
 30 24.248093 0.000001 0.000007 0.029057 0.022684 0.919394
 31 26.336971 0.000019 0.000002 0.453654 -0.019729 0.808063
 32 1.854847 1.227798 13.762341 -1.723790 -0.691247 1.351729
 33 10.456542 -0.000008 0.000004 -0.299072 -0.049557 -1.472402
 34 24.248116 0.000002 -0.000004 0.011060 -0.032095 2.007334
 35 26.336975 0.000000 0.000004 -1.626342 -0.766290 0.246551
time 7
  0 0.000000 0.000000 0.000000 0.000000 -0.000000 -1.570796
  1 0.000000 0.000000 0.000000 0.000000 -0.000000 0.000000
  2 3.496201 -2.951586 26.672182 -1.552487 -0.198374 1.537148
  3 4.222169 -0.467508 0.000000 0.008406 -0.000297 -0.172506
  4 4.476987 -0.000002 -0.000000 0.006243 -0.028945 -0.049931
  5 4.477083 0.000000 0.000002 -0.011887 0.013136 0.162291
  6 4.477077 -0.000004 -0.000002 -0.018378 -0.007382 0.121623
  7 5.413502 -7.700466 -0.000000 0.015312 0.051245 0.025138
  8 6.890240 0.000002 -0.000000 -0.012907 -0.086654 -0.386095
  9 8.011925 0.000004 0.000005 0.016004 -0.134881 -0.389894
 10 7.210720 -0.000002 -0.000000 0.017486 -0.037340 -0.167072
 11 7.811473 -0.304903 -0.000000 0.149359 0.206738 1.110572
 12 22.523008 2.194031 6.355708 0.000000 -0.000000 0.000000
 13 22.523005 2.194038 -6.355709 0.000000 -0.000000 0.000000
 14 -3.006533 7.804720 -11.355459 0.063777 0.469906 0.627859
 15 10.384675 0.000008 0.000005 -0.042259 -0.160516 -0.934251
 16 22.550743 -0.000006 -0.000004 0.117700 -0.355575 1.276017
 17 30.814247 -0.000015 -0.000004 3.006456 0.021039 0.818907
 18 -3.013796 7.815494 11.355459 -0.796111 -0.897520 2.554202
 19 10.374533 -0.000002 0.000007 -1.481969 -1.035587 -0.822215
 20 22.550726 -0.000027 -0.000013 -0.217421 -0.395135 2.365986
 21 30.814270 -0.000023 0.000002 -1.630085 0.225688 -0.108087
 22 -4.250660 -0.770624 0.000001 0.013531 -0.029496 -2.833958
 23 10.363422 0.000000 0.000000 0.004362 0.044659 -0.002612
 24 10.363076 0.000000 -0.000000 0.046165 0.004539 -0.357414
 25 10.363081 -0.000004 -0.000002 0.042220 0.043399 -0.230532
 26 8.210358 -0.000006 -7.703991 0.000000 0.000000 -0.000000
 27 8.210346 -0.000002 7.704017 0.000000 0.000000 -0.000000
 28 1.854841 1.227791 -13.762345 2.654164 0.406602 2.651656
 29 10.456543 -0.000004 0.000004 0.098674 0.046869 -0.623259
 30 24.248093 0.000001 0.000007 0.025757 0.015925 0.656896
 31 26.336971 0.000019 0.000002 0.474362 -0.027376 0.891951
 32 1.854847 1.227798 13.762341 -1.755966 -0.605358 1.375208
 33 10.456542 -0.000008 0.000004 -0.390165 -0.154805 -1.673516
 34 24.248116 0.000002 -0.000004 0.033666 -0.042127 2.082884
 35 26.336975 0.000000 0.000004 -1.619524 -0.850948 0.312167
time 8
  0 0.000000 0.000000 0.000000 0.000000 -0.000000 -1.570796
  1 0.000000 0.000000 0.000000 0.000000 -0.000000 0.000000
  2 1.140660 -2.951586 26.918283 -1.569455 -0.200448 1.551432
  3 4.222169 -0.467508 0.000000 0.008406 -0.000297 -0.172506
  4 4.476987 -0.000002 -0.000000 0.011804 -0.007377 -0.049132
  5 4.477083 0.000000 0.000002 -0.002911 0.033990 0.160393
  6 4.477077 -0.000004 -0.000002 -0.016628 -0.000071 0.120191
  7 5.413502 -7.700466 -0.000000 0.015392 0.078142 0.025138
  8 6.890240 0.000002 -0.000000 -0.013626 -0.092705 -0.381231
  9 8.011925 0.000004 0.000005 0.016764 -0.154020 -0.392749
 10 7.210720 -0.000002 -0.000000 0.017541 -0.071344 -0.166616
 11 7.811473 -0.304903 -0.000000 0.173976 0.217818 1.108609
 12 22.523008 2.194031 6.355708 0.000000 -0.000000 0.000000
 13 22.523005 2.194038 -6.355709 0.000000 -0.000000 0.000000
 14 -3.006533 7.804720 -11.355459 0.087054 0.572435 0.544971
 15 10.384675 0.000008 0.000005 -0.012901 -0.212921 -0.917311
 16 22.550743 -0.000006 -0.000004 0.082820 -0.388233 1.385945
 17 30.814247 -0.000015 -0.000004 2.953735 0.058374 0.784671
 18 -3.013796 7.815494 11.355459 -0.683645 -0.818526 2.419624
 19 10.374533 -0.000002 0.000007 -1.533201 -1.133261 -0.874517
 20 22.550726 -0.000027 -0.000013 -0.288344 -0.430157 2.478335
 21 30.814270 -0.000023 0.000002 -1.684669 0.145484 -0.180074
 22 -4.250660 -0.770624 0.000001 0.003631 -0.013480 -2.791324
 23 10.363422 0.000000 0.000000 0.007838 0.041087 0.017964
 24 10.363076 0.000000 -0.000000 0.050024 -0.015020 -0.391509
 25 10.363081 -0.000004 -0.000002 0.041740 0.043260 -0.337196
 26 8.210358 -0.000006 -7.703991 0.000000 0.000000 -0.000000
 27 8.210346 -0.000002 7.704017 0.000000 0.000000 -0.000000
 28 1.854841 1.227791 -13.762345 2.638597 0.446201 2.683161
 29 10.456543 -0.000004 0.000004 0.099757 0.037758 -0.515579
 30 24.248093 0.000001 0.000007 0.026462 0.013604 0.584907
 31 26.336971 0.000019 0.000002 0.520301 -0.024617 0.901726
 32 1.854847 1.227798 13.762341 -1.816875 -0.551290 1.424837
 33 10.456542 -0.000008 0.000004 -0.441883 -0.233338 -1.859181
 34 24.248116 0.000002 -0.000004 0.029520 -0.044811 2.175900
 35 26.336975 0.000000 0.000004 -1.577241 -0.888360 0.361563
time 9
  0 0.000000 0.000000 0.000000 0.000000 -0.000000 -1.570796
  1 0.000000 0.000000 0.000000 0.000000 -0.000000 0.000000
  2 -1.242225 -2.951586 26.898750 -1.586518 -0.202323 1.566099
  3 4.222169 -0.467508 0.000000 0.008406 -0.000297 -0.172506
  4 4.476987 -0.000002 -0.000000 0.017472 0.013955 -0.048111
  5 4.477083 0.000000 0.000002 0.006246 0.054812 0.158007
  6 4.477077 -0.000004 -0.000002 -0.014914 0.006581 0.118446
  7 5.413502 -7.700466 -0.000000 0.015458 0.089577 0.025169
  8 6.890240 0.000002 -0.000000 -0.013902 -0.092522 -0.380742
  9 8.011925 0.000004 0.000005 0.016489 -0.155921 -0.391815
 10 7.210720 -0.000002 -0.000000 0.017486 -0.083049 -0.165704
 11 7.811473 -0.304903 -0.000000 0.184769 0.213584 1.106155
 12 22.523008 2.194031 6.355708 0.000000 -0.000000 0.000000
 13 22.523005 2.194038 -6.355709 0.000000 -0.000000 0.000000
 14 -3.006533 7.804720 -11.355459 0.108487 0.651151 0.512969
 15 10.384675 0.000008 0.000005 0.015710 -0.231210 -0.934140
 16 22.550743 -0.000006 -0.000004 0.049460 -0.395006 1.482010
 17 30.814247 -0.000015 -0.000004 2.897477 0.090349 0.749611
 18 -3.013796 7.815494 11.355459 -0.543635 -0.757356 2.196753
 19 10.374533 -0.000002 0.000007 -1.323691 -1.203527 -1.128609
 20 22.550726 -0.000027 -0.000013 -0.355957 -0.388421 2.579580
 21 30.814270 -0.000023 0.000002 -1.779808 0.021044 -0.232761
 22 -4.250660 -0.770624 0.000001 -0.006723 0.004429 -2.757063
 23 10.363422 0.000000 0.000000 0.010582 0.038091 0.016929
 24 10.363076 0.000000 -0.000000 0.049341 -0.035657 -0.385341
 25 10.363081 -0.000004 -0.000002 0.043267 0.040965 -0.394085
 26 8.210358 -0.000006 -7.703991 0.000000 0.000000 -0.000000
 27 8.210346 -0.000002 7.704017 0.000000 0.000000 -0.000000
 28 1.854841 1.227791 -13.762345 2.570175 0.483727 2.599229
 29 10.456543 -0.000004 0.000004 0.090917 0.045196 -0.662380
 30 24.248093 0.000001 0.000007 0.031763 0.016792 0.795959
 31 26.336971 0.000019 0.000002 0.593866 -0.006301 0.786967
 32 1.854847 1.227798 13.762341 -1.910906 -0.532055 1.506735
 33 10.456542 -0.000008 0.000004 -0.441476 -0.273634 -2.020569
 34 24.248116 0.000002 -0.000004 -0.010405 -0.041264 2.277547
 35 26.336975 0.000000 0.000004 -1.454810 -0.865187 0.351616
time 10
  0 0.000000 0.000000 0.000000 0.000000 -0.000000 -1.570796
  1 0.000000 0.000000 0.000000 0.000000 -0.000000 0.000000
  2 -3.578234 -2.951586 26.719059 -1.603485 -0.204038 1.580383
  3 4.222169 -0.467508 0.000000 0.008406 -0.000297 -0.172506
  4 4.476987 -0.000002 -0.000000 0.023105 0.034217 -0.046957
  5 4.477083 0.000000 0.000002 0.015282 0.074794 0.155043
  6 4.477077 -0.000004 -0.000002 -0.013320 0.012012 0.116328
  7 5.413502 -7.700466 -0.000000 0.015524 0.084123 0.025169
  8 6.890240 0.000002 -0.000000 -0.013746 -0.085739 -0.384582
  9 8.011925 0.000004 0.000005 0.013686 -0.140968 -0.380731
 10 7.210720 -0.000002 -0.000000 0.017239 -0.071820 -0.165436
 11 7.811473 -0.304903 -0.000000 0.186193 0.198578 1.103281
 12 22.523008 2.194031 6.355708 0.000000 -0.000000 0.000000
 13 22.523005 2.194038 -6.355709 0.000000 -0.000000 0.000000
 14 -3.006533 7.804720 -11.355459 0.119881 0.698599 0.502805
 15 10.384675 0.000008 0.000005 0.030912 -0.217100 -0.977794
 16 22.550743 -0.000006 -0.000004 0.011781 -0.389266 1.584553
 17 30.814247 -0.000015 -0.000004 2.824882 0.101916 0.706315
 18 -3.013796 7.815494 11.355459 -0.400519 -0.659977 1.950055
 19 10.374533 -0.000002 0.000007 -0.794792 -1.134889 -1.624210
 20 22.550726 -0.000027 -0.000013 -0.371993 -0.276504 2.593414
 21 30.814270 -0.000023 0.000002 -1.921287 -0.085290 -0.234016
 22 -4.250660 -0.770624 0.000001 -0.017102 0.023237 -2.730152
 23 10.363422 0.000000 0.000000 0.013075 0.034688 0.016049
 24 10.363076 0.000000 -0.000000 0.049353 -0.061053 -0.368255
 25 10.363081 -0.000004 -0.000002 0.045126 0.038207 -0.445793
 26 8.210358 -0.000006 -7.703991 0.000000 0.000000 -0.000000
 27 8.210346 -0.000002 7.704017 0.000000 0.000000 -0.000000
 28 1.854841 1.227791 -13.762345 2.488824 0.523301 2.492429
 29 10.456543 -0.000004 0.000004 0.079929 0.052599 -0.835406
 30 24.248093 0.000001 0.000007 0.039029 0.019900 1.070475
 31 26.336971 0.000019 0.000002 0.690357 0.031514 0.638574
 32 1.854847 1.227798 13.762341 -2.044473 -0.519551 1.630335
 33 10.456542 -0.000008 0.000004 -0.401221 -0.288272 -2.166863
 34 24.248116 0.000002 -0.000004 -0.057559 -0.033677 2.374320
 35 26.336975 0.000000 0.000004 -1.253688 -0.787106 0.305216
time 11
  0 0.000000 0.000000 0.000000 0.000000 -0.000000 -1.570796
  1 0.000000 0.000000 0.000000 0.000000 -0.000000 0.000000
  2 -5.781426 -2.951586 26.367485 -1.619590 -0.205435 1.594284
  3 4.222169 -0.467508 0.000000 0.008406 -0.000297 -0.172506
  4 4.476987 -0.000002 -0.000000 0.028486 0.052486 -0.045758
  5 4.477083 0.000000 0.000002 0.023911 0.092983 0.151322
  6 4.477077 -0.000004 -0.000002 -0.011930 0.015752 0.113868
  7 5.413502 -7.700466 -0.000000 0.015591 0.074268 0.025169
  8 6.890240 0.000002 -0.000000 -0.013303 -0.074708 -0.391191
  9 8.011925 0.000004 0.000005 0.007740 -0.112308 -0.354255
 10 7.210720 -0.000002 -0.000000 0.017239 -0.069084 -0.170880
 11 7.811473 -0.304903 -0.000000 0.183919 0.165748 1.100162
 12 22.523008 2.194031 6.355708 0.000000 -0.000000 0.000000
 13 22.523005 2.194038 -6.355709 0.000000 -0.000000 0.000000
 14 -3.006533 7.804720 -11.355459 0.128834 0.739441 0.494633
 15 10.384675 0.000008 0.000005 0.036290 -0.191895 -1.025835
 16 22.550743 -0.000006 -0.000004 -0.048191 -0.361803 1.725655
 17 30.814247 -0.000015 -0.000004 2.739664 0.088562 0.636160
 18 -3.013796 7.815494 11.355459 -0.278634 -0.541038 1.751181
 19 10.374533 -0.000002 0.000007 -0.452147 -0.936218 -1.902829
 20 22.550726 -0.000027 -0.000013 -0.343354 -0.161211 2.531811
 21 30.814270 -0.000023 0.000002 -2.121631 -0.150740 -0.164204
 22 -4.250660 -0.770624 0.000001 -0.027109 0.041932 -2.709641
 23 10.363422 0.000000 0.000000 0.015292 0.031164 0.014817
 24 10.363076 0.000000 -0.000000 0.049377 -0.088617 -0.341877
 25 10.363081 -0.000004 -0.000002 0.046985 0.035603 -0.499139
 26 8.210358 -0.000006 -7.703991 0.000000 0.000000 -0.000000
 27 8.210346 -0.000002 7.704017 0.000000 0.000000 -0.000000
 28 1.854841 1.227791 -13.762345 2.403735 0.586462 2.383256
 29 10.456543 -0.000004 0.000004 0.072189 0.055464 -0.941262
 30 24.248093 0.000001 0.000007 0.045072 0.021433 1.273595
 31 26.336971 0.000019 0.000002 0.798986 0.086646 0.524145
 32 1.854847 1.227798 13.762341 -2.205557 -0.479055 1.790941
 33 10.456542 -0.000008 0.000004 -0.350587 -0.293086 -2.301570
 34 24.248116 0.000002 -0.000004 -0.103792 -0.026822 2.437075
 35 26.336975 0.000000 0.000004 -1.027780 -0.662492 0.292669
time 12
  0 0.000000 0.000000 0.000000 0.000000 -0.000000 -1.570796
  1 0.000000 0.000000 0.000000 0.000000 -0.000000 0.000000
  2 -7.769768 -2.951586 25.773716 -1.634161 -0.206591 1.607033
  3 4.222169 -0.467508 0.000000 0.008406 -0.000297 -0.172506
  4 4.476987 -0.000002 -0.000000 0.033424 0.067864 -0.044582
  5 4.477083 0.000000 0.000002 0.031773 0.108474 0.146787
  6 4.477077 -0.000004 -0.000002 -0.010779 0.017988 0.111267
  7 5.413502 -7.700466 -0.000000 0.015618 0.073181 0.025169
  8 6.890240 0.000002 -0.000000 -0.012320 -0.054188 -0.403386
  9 8.011925 0.000004 0.000005 0.000760 -0.076970 -0.316125
 10 7.210720 -0.000002 -0.000000 0.017514 -0.084726 -0.179676
 11 7.811473 -0.304903 -0.000000 0.184930 0.098519 1.096797
 12 22.523008 2.194031 6.355708 0.000000 -0.000000 0.000000
 13 22.523005 2.194038 -6.355709 0.000000 -0.000000 0.000000
 14 -3.006533 7.804720 -11.355459 0.133338 0.782509 0.483577
 15 10.384675 0.000008 0.000005 0.023105 -0.151626 -1.074988
 16 22.550743 -0.000006 -0.000004 -0.123836 -0.322056 1.889336
 17 30.814247 -0.000015 -0.000004 2.654577 0.063954 0.560489
 18 -3.013796 7.815494 11.355459 -0.153999 -0.475608 1.561427
 19 10.374533 -0.000002 0.000007 -0.378873 -0.772232 -1.881201
 20 22.550726 -0.000027 -0.000013 -0.251453 -0.087967 2.423680
 21 30.814270 -0.000023 0.000002 -2.389751 -0.200579 -0.049738
 22 -4.250660 -0.770624 0.000001 -0.036385 0.059601 -2.694611
 23 10.363422 0.000000 0.000000 0.017174 0.027748 0.013364
 24 10.363076 0.000000 -0.000000 0.049053 -0.115906 -0.308582
 25 10.363081 -0.000004 -0.000002 0.048782 0.033077 -0.544860
 26 8.210358 -0.000006 -7.703991 0.000000 0.000000 -0.000000
 27 8.210346 -0.000002 7.704017 0.000000 0.000000 -0.000000
 28 1.854841 1.227791 -13.762345 2.307477 0.654902 2.260094
 29 10.456543 -0.000004 0.000004 0.066250 0.056549 -1.017246
 30 24.248093 0.000001 0.000007 0.049558 0.022038 1.406442
 31 26.336971 0.000019 0.000002 0.914532 0.153604 0.448375
 32 1.854847 1.227798 13.762341 -2.365054 -0.395792 1.962534
 33 10.456542 -0.000008 0.000004 -0.292696 -0.290693 -2.386264
 34 24.248116 0.000002 -0.000004 -0.132085 -0.022040 2.446620
 35 26.336975 0.000000 0.000004 -0.811564 -0.507043 0.326070
time 13
  0 0.000000 0.000000 0.000000 0.000000 -0.000000 -1.570796
  1 0.000000 0.000000 0.000000 0.000000 -0.000000 0.000000
  2 -9.457320 -2.951586 24.890877 -1.646623 -0.207469 1.618250
  3 4.222169 -0.467508 0.000000 0.008406 -0.000297 -0.172506
  4 4.476987 -0.000002 -0.000000 0.037726 0.079430 -0.043538
  5 4.477083 0.000000 0.000002 0.038137 0.120460 0.142607
  6 4.477077 -0.000004 -0.000002 -0.009868 0.019040 0.108822
  7 5.413502 -7.700466 -0.000000 0.015644 0.081048 0.025138
  8 6.890240 0.000002 -0.000000 -0.010738 -0.016324 -0.429449
  9 8.011925 0.000004 0.000005 -0.004911 -0.043821 -0.273141
 10 7.210720 -0.000002 -0.000000 0.017733 -0.104200 -0.184664
 11 7.811473 -0.304903 -0.000000 0.187685 0.021370 1.093117
 12 22.523008 2.194031 6.355708 0.000000 -0.000000 0.000000
 13 22.523005 2.194038 -6.355709 0.000000 -0.000000 0.000000
 14 -3.006533 7.804720 -11.355459 0.117440 0.845079 0.460640
 15 10.384675 0.000008 0.000005 0.006932 -0.110169 -1.120086
 16 22.550743 -0.000006 -0.000004 -0.194748 -0.278837 2.047811
 17 30.814247 -0.000015 -0.000004 2.563506 0.034738 0.485499
 18 -3.013796 7.815494 11.355459 -0.018877 -0.478485 1.338214
 19 10.374533 -0.000002 0.000007 -0.461787 -0.682066 -1.649549
 20 22.550726 -0.000027 -0.000013 -0.101845 -0.044327 2.276838
 21 30.814270 -0.000023 0.000002 -2.679901 -0.233047 0.086929
 22 -4.250660 -0.770624 0.000001 -0.044547 0.075312 -2.683984
 23 10.363422 0.000000 0.000000 0.018720 0.024680 0.011890
 24 10.363076 0.000000 -0.000000 0.048334 -0.140535 -0.270771
 25 10.363081 -0.000004 -0.000002 0.050543 0.030396 -0.568109
 26 8.210358 -0.000006 -7.703991 0.000000 0.000000 -0.000000
 27 8.210346 -0.000002 7.704017 0.000000 0.000000 -0.000000
 28 1.854841 1.227791 -13.762345 2.196840 0.726797 2.113943
 29 10.456543 -0.000004 0.000004 0.062616 0.056336 -1.059189
 30 24.248093 0.000001 0.000007 0.053042 0.022200 1.493527
 31 26.336971 0.000019 0.000002 1.031687 0.230705 0.393812
 32 1.854847 1.227798 13.762341 -2.495447 -0.286289 2.109871
 33 10.456542 -0.000008 0.000004 -0.234941 -0.280814 -2.401437
 34 24.248116 0.000002 -0.000004 -0.136748 -0.019104 2.396609
 35 26.336975 0.000000 0.000004 -0.623436 -0.345793 0.388408
time 14
  0 0.000000 0.000000 0.000000 0.000000 -0.000000 -1.570796
  1 0.000000 0.000000 0.000000 0.000000 -0.000000 0.000000
  2 -10.758141 -2.951586 23.879128 -1.656305 -0.208067 1.627453
  3 4.222169 -0.467508 0.000000 0.008406 -0.000297 -0.172506
  4 4.476987 -0.000002 -0.000000 0.041166 0.086262 -0.042784
  5 4.477083 0.000000 0.000002 0.042391 0.128569 0.140221
  6 4.477077 -0.000004 -0.000002 -0.009233 0.019285 0.106798
  7 5.413502 -7.700466 -0.000000 0.015644 0.092857 0.025138
  8 6.890240 0.000002 -0.000000 -0.009731 0.018429 -0.464682
  9 8.011925 0.000004 0.000005 -0.008159 -0.022078 -0.231714
 10 7.210720 -0.000002 -0.000000 0.017843 -0.123373 -0.186997
 11 7.811473 -0.304903 -0.000000 0.190441 -0.055539 1.089121
 12 22.523008 2.194031 6.355708 0.000000 -0.000000 0.000000
 13 22.523005 2.194038 -6.355709 0.000000 -0.000000 0.000000
 14 -3.006533 7.804720 -11.355459 0.077450 0.950116 0.429806
 15 10.384675 0.000008 0.000005 0.002189 -0.077453 -1.151577
 16 22.550743 -0.000006 -0.000004 -0.256528 -0.244027 2.191637
 17 30.814247 -0.000015 -0.000004 2.453478 0.000005 0.407251
 18 -3.013796 7.815494 11.355459 0.116042 -0.507445 1.089237
 19 10.374533 -0.000002 0.000007 -0.629975 -0.619275 -1.292650
 20 22.550726 -0.000027 -0.000013 0.063758 -0.011956 2.085516
 21 30.814270 -0.000023 0.000002 -2.916834 -0.257931 0.229314
 22 -4.250660 -0.770624 0.000001 -0.051126 0.088118 -2.676815
 23 10.363422 0.000000 0.000000 0.019858 0.022188 0.010636
 24 10.363076 0.000000 -0.000000 0.047543 -0.159997 -0.231049
 25 10.363081 -0.000004 -0.000002 0.052378 0.027716 -0.583735
 26 8.210358 -0.000006 -7.703991 0.000000 0.000000 -0.000000
 27 8.210346 -0.000002 7.704017 0.000000 0.000000 -0.000000
 28 1.854841 1.227791 -13.762345 2.064304 0.786651 1.938841
 29 10.456543 -0.000004 0.000004 0.060467 0.055571 -1.080942
 30 24.248093 0.000001 0.000007 0.055712 0.022200 1.555688
 31 26.336971 0.000019 0.000002 1.153497 0.318292 0.365205
 32 1.854847 1.227798 13.762341 -2.575837 -0.176814 2.207106
 33 10.456542 -0.000008 0.000004 -0.183731 -0.264812 -2.355524
 34 24.248116 0.000002 -0.000004 -0.126009 -0.017894 2.291509
 35 26.336975 0.000000 0.000004 -0.473002 -0.202380 0.459280
time 15
  0 0.000000 0.000000 0.000000 0.000000 -0.000000 -1.570796
  1 0.000000 0.000000 0.000000 0.000000 -0.000000 0.000000
  2 -11.578478 -2.951586 23.113480 -1.662536 -0.208426 1.633971
  3 4.222169 -0.467508 0.000000 0.008406 -0.000297 -0.172506
  4 4.476987 -0.000002 -0.000000 0.043539 0.087419 -0.042429
  5 4.477083 0.000000 0.000002 0.044680 0.132882 0.139317
  6 4.477077 -0.000004 -0.000002 -0.008886 0.019040 0.105505
  7 5.413502 -7.700466 -0.000000 0.015644 0.103935 0.025107
  8 6.890240 0.000002 -0.000000 -0.009072 0.041824 -0.506943
  9 8.011925 0.000004 0.000005 -0.008749 -0.021998 -0.198204
 10 7.210720 -0.000002 -0.000000 0.017871 -0.138645 -0.187748
 11 7.811473 -0.304903 -0.000000 0.195194 -0.125927 1.085160
 12 22.523008 2.194031 6.355708 0.000000 -0.000000 0.000000
 13 22.523005 2.194038 -6.355709 0.000000 -0.000000 0.000000
 14 -3.006533 7.804720 -11.355459 0.031221 1.089741 0.419024
 15 10.384675 0.000008 0.000005 0.001180 -0.047707 -1.177791
 16 22.550743 -0.000006 -0.000004 -0.305401 -0.212775 2.319361
 17 30.814247 -0.000015 -0.000004 2.326153 -0.041375 0.326173
 18 -3.013796 7.815494 11.355459 0.229170 -0.517646 0.861065
 19 10.374533 -0.000002 0.000007 -0.810431 -0.537249 -0.913020
 20 22.550726 -0.000027 -0.000013 0.196248 0.016667 1.837678
 21 30.814270 -0.000023 0.000002 -3.057998 -0.285848 0.384530
 22 -4.250660 -0.770624 0.000001 -0.055620 0.097104 -2.671847
 23 10.363422 0.000000 0.000000 0.020566 0.020534 0.009667
 24 10.363076 0.000000 -0.000000 0.046884 -0.172438 -0.190502
 25 10.363081 -0.000004 -0.000002 0.054421 0.025204 -0.601642
 26 8.210358 -0.000006 -7.703991 0.000000 0.000000 -0.000000
 27 8.210346 -0.000002 7.704017 0.000000 0.000000 -0.000000
 28 1.854841 1.227791 -13.762345 1.911980 0.819638 1.733754
 29 10.456543 -0.000004 0.000004 0.060292 0.054521 -1.074603
 30 24.248093 0.000001 0.000007 0.056564 0.022381 1.572087
 31 26.336971 0.000019 0.000002 1.274089 0.410188 0.354601
 32 1.854847 1.227798 13.762341 -2.612639 -0.092156 2.253246
 33 10.456542 -0.000008 0.000004 -0.142254 -0.243495 -2.265588
 34 24.248116 0.000002 -0.000004 -0.109907 -0.017235 2.149294
 35 26.336975 0.000000 0.000004 -0.365151 -0.087507 0.519753
time 16
  0 0.000000 0.000000 0.000000 0.000000 -0.000000 -1.570796
  1 0.000000 0.000000 0.000000 0.000000 -0.000000 0.000000
  2 -11.902707 -2.951586 22.808783 -1.664837 -0.208586 1.637518
  3 4.222169 -0.467508 0.000000 0.008406 -0.000297 -0.172506
  4 4.476987 -0.000002 -0.000000 0.044629 0.081893 -0.042606
  5 4.477083 0.000000 0.000002 0.045112 0.133512 0.139599
  6 4.477077 -0.000004 -0.000002 -0.008862 0.018665 0.105194
  7 5.413502 -7.700466 -0.000000 0.015631 0.109763 0.025045
  8 6.890240 0.000002 -0.000000 -0.008138 0.052763 -0.534775
  9 8.011925 0.000004 0.000005 -0.008015 -0.037542 -0.180788
 10 7.210720 -0.000002 -0.000000 0.017871 -0.146395 -0.188043
 11 7.811473 -0.304903 -0.000000 0.198570 -0.169785 1.083163
 12 22.523008 2.194031 6.355708 0.000000 -0.000000 0.000000
 13 22.523005 2.194038 -6.355709 0.000000 -0.000000 0.000000
 14 -3.006533 7.804720 -11.355459 0.051948 1.247562 0.505758
 15 10.384675 0.000008 0.000005 -0.001024 -0.017686 -1.206394
 16 22.550743 -0.000006 -0.000004 -0.326735 -0.189386 2.411310
 17 30.814247 -0.000015 -0.000004 2.166943 -0.090465 0.238685
 18 -3.013796 7.815494 11.355459 0.302739 -0.485585 0.696163
 19 10.374533 -0.000002 0.000007 -0.934331 -0.437581 -0.598681
 20 22.550726 -0.000027 -0.000013 0.265026 0.041382 1.537107
 21 30.814270 -0.000023 0.000002 -3.103462 -0.307917 0.550009
 22 -4.250660 -0.770624 0.000001 -0.057502 0.101261 -2.668723
 23 10.363422 0.000000 0.000000 0.020817 0.019934 0.009667
 24 10.363076 0.000000 -0.000000 0.045613 -0.177687 -0.145335
 25 10.363081 -0.000004 -0.000002 0.055948 0.023263 -0.608917
 26 8.210358 -0.000006 -7.703991 0.000000 0.000000 -0.000000
 27 8.210346 -0.000002 7.704017 0.000000 0.000000 -0.000000
 28 1.854841 1.227791 -13.762345 1.755170 0.821315 1.517963
 29 10.456543 -0.000004 0.000004 0.061725 0.053364 -1.041257
 30 24.248093 0.000001 0.000007 0.055786 0.022543 1.537336
 31 26.336971 0.000019 0.000002 1.386938 0.503792 0.354270
 32 1.854847 1.227798 13.762341 -2.621587 -0.046516 2.269315
 33 10.456542 -0.000008 0.000004 -0.108747 -0.218672 -2.151020
 34 24.248116 0.000002 -0.000004 -0.094647 -0.015904 1.998398
 35 26.336975 0.000000 0.000004 -0.301127 -0.001857 0.561406
time 17
  0 0.000000 0.000000 0.000000 0.000000 -0.000000 -1.570796
  1 0.000000 0.000000 0.000000 0.000000 -0.000000 0.000000
  2 -11.844111 -2.951586 22.855659 -1.662728 -0.208546 1.637806
  3 4.222169 -0.467508 0.000000 0.008406 -0.000297 -0.172506
  4 4.476987 -0.000002 -0.000000 0.044282 0.070756 -0.043072
  5 4.477083 0.000000 0.000002 0.043817 0.130540 0.140784
  6 4.477077 -0.000004 -0.000002 -0.009161 0.018477 0.106144
  7 5.413502 -7.700466 -0.000000 0.015618 0.105583 0.025014
  8 6.890240 0.000002 -0.000000 -0.006687 0.056083 -0.520720
  9 8.011925 0.000004 0.000005 -0.008736 -0.027861 -0.191689
 10 7.210720 -0.000002 -0.000000 0.017926 -0.142794 -0.188955
 11 7.811473 -0.304903 -0.000000 0.184241 -0.188632 1.087333
 12 22.523008 2.194031 6.355708 0.000000 -0.000000 0.000000
 13 22.523005 2.194038 -6.355709 0.000000 -0.000000 0.000000
 14 -3.006533 7.804720 -11.355459 0.382390 1.398033 0.924254
 15 10.384675 0.000008 0.000005 -0.006029 0.011932 -1.222167
 16 22.550743 -0.000006 -0.000004 -0.324736 -0.176300 2.454652
 17 30.814247 -0.000015 -0.000004 1.984321 -0.153098 0.153524
 18 -3.013796 7.815494 11.355459 0.340414 -0.424415 0.594645
 19 10.374533 -0.000002 0.000007 -1.003224 -0.349110 -0.377815
 20 22.550726 -0.000027 -0.000013 0.281347 0.056753 1.226115
 21 30.814270 -0.000023 0.000002 -3.091780 -0.324628 0.714484
 22 -4.250660 -0.770624 0.000001 -0.056136 0.097313 -2.677941
 23 10.363422 0.000000 0.000000 0.020781 0.020270 0.018998
 24 10.363076 0.000000 -0.000000 0.042521 -0.176045 -0.089663
 25 10.363081 -0.000004 -0.000002 0.056182 0.022616 -0.580916
 26 8.210358 -0.000006 -7.703991 0.000000 0.000000 -0.000000
 27 8.210346 -0.000002 7.704017 0.000000 0.000000 -0.000000
 28 1.854841 1.227791 -13.762345 1.615070 0.788921 1.313546
 29 10.456543 -0.000004 0.000004 0.064450 0.051798 -0.989110
 30 24.248093 0.000001 0.000007 0.053635 0.022180 1.450547
 31 26.336971 0.000019 0.000002 1.496393 0.598631 0.370838
 32 1.854847 1.227798 13.762341 -2.615712 -0.033136 2.279396
 33 10.456542 -0.000008 0.000004 -0.078530 -0.192764 -2.022776
 34 24.248116 0.000002 -0.000004 -0.082509 -0.014910 1.849379
 35 26.336975 0.000000 0.000004 -0.277370 0.062389 0.587347
time 18
  0 0.000000 0.000000 0.000000 0.000000 -0.000000 -1.570796
  1 0.000000 0.000000 0.000000 0.000000 -0.000000 0.000000
  2 -11.543321 -2.951586 23.148636 -1.656593 -0.208267 1.635218
  3 4.222169 -0.467508 0.000000 0.008406 -0.000297 -0.172506
  4 4.476987 -0.000002 -0.000000 0.042292 0.059875 -0.043006
  5 4.477083 0.000000 0.000002 0.040869 0.124046 0.142652
  6 4.477077 -0.000004 -0.000002 -0.009833 0.017481 0.107857
  7 5.413502 -7.700466 -0.000000 0.015604 0.088711 0.024952
  8 6.890240 0.000002 -0.000000 -0.005141 0.061429 -0.492235
  9 8.011925 0.000004 0.000005 -0.011014 0.010384 -0.221773
 10 7.210720 -0.000002 -0.000000 0.018063 -0.125845 -0.191207
 11 7.811473 -0.304903 -0.000000 0.155284 -0.201795 1.096201
 12 22.523008 2.194031 6.355708 0.000000 -0.000000 0.000000
 13 22.523005 2.194038 -6.355709 0.000000 -0.000000 0.000000
 14 -3.006533 7.804720 -11.355459 1.463948 1.428029 2.100625
 15 10.384675 0.000008 0.000005 -0.009764 0.043205 -1.194508
 16 22.550743 -0.000006 -0.000004 -0.310934 -0.168150 2.443514
 17 30.814247 -0.000015 -0.000004 1.810740 -0.229086 0.078248
 18 -3.013796 7.815494 11.355459 0.361238 -0.359994 0.524250
 19 10.374533 -0.000002 0.000007 -1.048254 -0.282498 -0.235461
 20 22.550726 -0.000027 -0.000013 0.280918 0.063585 0.947010
 21 30.814270 -0.000023 0.000002 -3.068206 -0.340556 0.866910
 22 -4.250660 -0.770624 0.000001 -0.051534 0.084250 -2.706774
 23 10.363422 0.000000 0.000000 0.020602 0.021241 0.042566
 24 10.363076 0.000000 -0.000000 0.037176 -0.167799 -0.021293
 25 10.363081 -0.000004 -0.000002 0.055985 0.022847 -0.510898
 26 8.210358 -0.000006 -7.703991 0.000000 0.000000 -0.000000
 27 8.210346 -0.000002 7.704017 0.000000 0.000000 -0.000000
 28 1.854841 1.227791 -13.762345 1.509226 0.740021 1.146958
 29 10.456543 -0.000004 0.000004 0.068398 0.049698 -0.922982
 30 24.248093 0.000001 0.000007 0.050262 0.021473 1.333802
 31 26.336971 0.000019 0.000002 1.588968 0.683143 0.406403
 32 1.854847 1.227798 13.762341 -2.610478 -0.040360 2.308562
 33 10.456542 -0.000008 0.000004 -0.054112 -0.162124 -1.851772
 34 24.248116 0.000002 -0.000004 -0.071601 -0.013148 1.700919
 35 26.336975 0.000000 0.000004 -0.279471 0.117266 0.606676
time 19
  0 0.000000 0.000000 0.000000 0.000000 -0.000000 -1.570796
  1 0.000000 0.000000 0.000000 0.000000 -0.000000 0.000000
  2 -11.023774 -2.951586 23.711155 -1.647007 -0.207668 1.630329
  3 4.222169 -0.467508 0.000000 0.008406 -0.000297 -0.172506
  4 4.476987 -0.000002 -0.000000 0.038889 0.049852 -0.042540
  5 4.477083 0.000000 0.000002 0.036351 0.114079 0.144979
  6 4.477077 -0.000004 -0.000002 -0.010863 0.014793 0.109694
  7 5.413502 -7.700466 -0.000000 0.015604 0.060879 0.024889
  8 6.890240 0.000002 -0.000000 -0.003488 0.069244 -0.469220
  9 8.011925 0.000004 0.000005 -0.013084 0.050531 -0.254478
 10 7.210720 -0.000002 -0.000000 0.018173 -0.097508 -0.194640
 11 7.811473 -0.304903 -0.000000 0.124582 -0.215316 1.105945
 12 22.523008 2.194031 6.355708 0.000000 -0.000000 0.000000
 13 22.523005 2.194038 -6.355709 0.000000 -0.000000 0.000000
 14 -3.006533 7.804720 -11.355459 1.886252 1.315325 2.617255
 15 10.384675 0.000008 0.000005 -0.000986 0.078849 -1.128528
 16 22.550743 -0.000006 -0.000004 -0.288513 -0.158450 2.389760
 17 30.814247 -0.000015 -0.000004 1.675902 -0.305762 0.011280
 18 -3.013796 7.815494 11.355459 0.371828 -0.302561 0.478364
 19 10.374533 -0.000002 0.000007 -1.081824 -0.231535 -0.144540
 20 22.550726 -0.000027 -0.000013 0.279917 0.065352 0.711765
 21 30.814270 -0.000023 0.000002 -3.042422 -0.354478 0.996549
 22 -4.250660 -0.770624 0.000001 -0.044235 0.065073 -2.749331
 23 10.363422 0.000000 0.000000 0.020182 0.022739 0.075025
 24 10.363076 0.000000 -0.000000 0.030585 -0.153837 0.054459
 25 10.363081 -0.000004 -0.000002 0.055640 0.023294 -0.405710
 26 8.210358 -0.000006 -7.703991 0.000000 0.000000 -0.000000
 27 8.210346 -0.000002 7.704017 0.000000 0.000000 -0.000000
 28 1.854841 1.227791 -13.762345 1.458085 0.705727 1.064182
 29 10.456543 -0.000004 0.000004 0.070058 0.050197 -0.911390
 30 24.248093 0.000001 0.000007 0.048297 0.021090 1.290467
 31 26.336971 0.000019 0.000002 1.634343 0.728448 0.425070
 32 1.854847 1.227798 13.762341 -2.616556 -0.074699 2.381412
 33 10.456542 -0.000008 0.000004 -0.034883 -0.124138 -1.617986
 34 24.248116 0.000002 -0.000004 -0.060758 -0.010535 1.545910
 35 26.336975 0.000000 0.000004 -0.285946 0.171554 0.625213
time 20
  0 0.000000 0.000000 0.000000 0.000000 -0.000000 -1.570796
  1 0.000000 0.000000 0.000000 0.000000 -0.000000 0.000000
  2 -10.246407 -2.951586 24.593994 -1.634640 -0.206631 1.623714
  3 4.222169 -0.467508 0.000000 0.008406 -0.000297 -0.172506
  4 4.476987 -0.000002 -0.000000 0.034490 0.037858 -0.042362
  5 4.477083 0.000000 0.000002 0.030359 0.100720 0.147528
  6 4.477077 -0.000004 -0.000002 -0.012182 0.010659 0.111579
  7 5.413502 -7.700466 -0.000000 0.015591 0.026047 0.024827
  8 6.890240 0.000002 -0.000000 -0.001798 0.077518 -0.449370
  9 8.011925 0.000004 0.000005 -0.015009 0.087003 -0.286457
 10 7.210720 -0.000002 -0.000000 0.018228 -0.061739 -0.198689
 11 7.811473 -0.304903 -0.000000 0.093420 -0.229093 1.116250
 12 22.523008 2.194031 6.355708 0.000000 -0.000000 0.000000
 13 22.523005 2.194038 -6.355709 0.000000 -0.000000 0.000000
 14 -3.006533 7.804720 -11.355459 1.881314 1.200502 2.689636
 15 10.384675 0.000008 0.000005 0.015038 0.115024 -1.052827
 16 22.550743 -0.000006 -0.000004 -0.264172 -0.146512 2.324991
 17 30.814247 -0.000015 -0.000004 1.589024 -0.360308 -0.049887
 18 -3.013796 7.815494 11.355459 0.377937 -0.253461 0.445874
 19 10.374533 -0.000002 0.000007 -1.106429 -0.191070 -0.078553
 20 22.550726 -0.000027 -0.000013 0.280979 0.065450 0.537937
 21 30.814270 -0.000023 0.000002 -3.016814 -0.367764 1.104154
 22 -4.250660 -0.770624 0.000001 -0.035007 0.043040 -2.798724
 23 10.363422 0.000000 0.000000 0.019415 0.024668 0.110279
 24 10.363076 0.000000 -0.000000 0.024113 -0.135693 0.128094
 25 10.363081 -0.000004 -0.000002 0.055308 0.023756 -0.290267
 26 8.210358 -0.000006 -7.703991 0.000000 0.000000 -0.000000
 27 8.210346 -0.000002 7.704017 0.000000 0.000000 -0.000000
 28 1.854841 1.227791 -13.762345 1.459580 0.698621 1.077197
 29 10.456543 -0.000004 0.000004 0.066634 0.056104 -1.012122
 30 24.248093 0.000001 0.000007 0.049558 0.021776 1.390695
 31 26.336971 0.000019 0.000002 1.618464 0.717332 0.402759
 32 1.854847 1.227798 13.762341 -2.630297 -0.119080 2.472012
 33 10.456542 -0.000008 0.000004 -0.014975 -0.080169 -1.356494
 34 24.248116 0.000002 -0.000004 -0.049644 -0.008474 1.372064
 35 26.336975 0.000000 0.000004 -0.298254 0.221064 0.643750
time 21
  0 0.000000 0.000000 0.000000 0.000000 -0.000000 -1.570796
  1 0.000000 0.000000 0.000000 0.000000 -0.000000 0.000000
  2 -9.172155 -2.951586 25.656525 -1.620070 -0.205155 1.616140
  3 4.222169 -0.467508 0.000000 0.008406 -0.000297 -0.172506
  4 4.476987 -0.000002 -0.000000 0.029349 0.024000 -0.042451
  5 4.477083 0.000000 0.000002 0.023060 0.084308 0.150152
  6 4.477077 -0.000004 -0.000002 -0.013692 0.005491 0.113479
  7 5.413502 -7.700466 -0.000000 0.015591 -0.011979 0.024796
  8 6.890240 0.000002 -0.000000 -0.000216 0.084954 -0.433196
  9 8.011925 0.000004 0.000005 -0.016947 0.117867 -0.316151
 10 7.210720 -0.000002 -0.000000 0.018118 -0.022439 -0.202792
 11 7.811473 -0.304903 -0.000000 0.061501 -0.242989 1.127220
 12 22.523008 2.194031 6.355708 0.000000 -0.000000 0.000000
 13 22.523005 2.194038 -6.355709 0.000000 -0.000000 0.000000
 14 -3.006533 7.804720 -11.355459 1.794933 1.107477 2.645823
 15 10.384675 0.000008 0.000005 0.036776 0.150731 -0.986236
 16 22.550743 -0.000006 -0.000004 -0.239607 -0.129810 2.270935
 17 30.814247 -0.000015 -0.000004 1.544340 -0.379587 -0.113954
 18 -3.013796 7.815494 11.355459 0.387407 -0.226743 0.419483
 19 10.374533 -0.000002 0.000007 -1.119034 -0.186950 -0.045675
 20 22.550726 -0.000027 -0.000013 0.287781 0.073872 0.468580
 21 30.814270 -0.000023 0.000002 -3.000536 -0.378431 1.163339
 22 -4.250660 -0.770624 0.000001 -0.025084 0.021199 -2.848143
 23 10.363422 0.000000 0.000000 0.018205 0.026921 0.142452
 24 10.363076 0.000000 -0.000000 0.018540 -0.115103 0.190786
 25 10.363081 -0.000004 -0.000002 0.055209 0.024141 -0.175629
 26 8.210358 -0.000006 -7.703991 0.000000 0.000000 -0.000000
 27 8.210346 -0.000002 7.704017 0.000000 0.000000 -0.000000
 28 1.854841 1.227791 -13.762345 1.490229 0.705653 1.148783
 29 10.456543 -0.000004 0.000004 0.058178 0.064486 -1.187753
 30 24.248093 0.000001 0.000007 0.052486 0.022462 1.566345
 31 26.336971 0.000019 0.000002 1.569131 0.667797 0.374648
 32 1.854847 1.227798 13.762341 -2.647618 -0.161026 2.562698
 33 10.456542 -0.000008 0.000004 0.010833 -0.037869 -1.102490
 34 24.248116 0.000002 -0.000004 -0.038632 -0.005729 1.197862
 35 26.336975 0.000000 0.000004 -0.331574 0.256894 0.662401
time 22
  0 0.000000 0.000000 0.000000 0.000000 -0.000000 -1.570796
  1 0.000000 0.000000 0.000000 0.000000 -0.000000 0.000000
  2 -7.746330 -2.951586 26.523739 -1.603965 -0.203161 1.608280
  3 4.222169 -0.467508 0.000000 0.008406 -0.000297 -0.172506
  4 4.476987 -0.000002 -0.000000 0.023692 0.008772 -0.042739
  5 4.477083 0.000000 0.000002 0.014743 0.065522 0.152819
  6 4.477077 -0.000004 -0.000002 -0.015345 -0.000410 0.115363
  7 5.413502 -7.700466 -0.000000 0.015578 -0.050277 0.024827
  8 6.890240 0.000002 -0.000000 0.001091 0.090287 -0.421188
  9 8.011925 0.000004 0.000005 -0.018742 0.140792 -0.341718
 10 7.210720 -0.000002 -0.000000 0.017898 0.016666 -0.206520
 11 7.811473 -0.304903 -0.000000 0.028112 -0.257330 1.139242
 12 22.523008 2.194031 6.355708 0.000000 -0.000000 0.000000
 13 22.523005 2.194038 -6.355709 0.000000 -0.000000 0.000000
 14 -3.006533 7.804720 -11.355459 1.695149 1.035439 2.546590
 15 10.384675 0.000008 0.000005 0.068338 0.188157 -0.961798
 16 22.550743 -0.000006 -0.000004 -0.212052 -0.100538 2.262884
 17 30.814247 -0.000015 -0.000004 1.531761 -0.360433 -0.181030
 18 -3.013796 7.815494 11.355459 0.405125 -0.223193 0.391724
 19 10.374533 -0.000002 0.000007 -1.121124 -0.245189 -0.038601
 20 22.550726 -0.000027 -0.000013 0.305001 0.103750 0.536448
 21 30.814270 -0.000023 0.000002 -3.000045 -0.386139 1.165933
 22 -4.250660 -0.770624 0.000001 -0.016287 0.002295 -2.890803
 23 10.363422 0.000000 0.000000 0.016383 0.029414 0.165888
 24 10.363076 0.000000 -0.000000 0.013950 -0.093902 0.234172
 25 10.363081 -0.000004 -0.000002 0.055049 0.024711 -0.067139
 26 8.210358 -0.000006 -7.703991 0.000000 0.000000 -0.000000
 27 8.210346 -0.000002 7.704017 0.000000 0.000000 -0.000000
 28 1.854841 1.227791 -13.762345 1.528311 0.717298 1.237033
 29 10.456543 -0.000004 0.000004 0.046124 0.072155 -1.394386
 30 24.248093 0.000001 0.000007 0.055600 0.022523 1.751704
 31 26.336971 0.000019 0.000002 1.516317 0.606331 0.362830
 32 1.854847 1.227798 13.762341 -2.666626 -0.199169 2.643949
 33 10.456542 -0.000008 0.000004 0.035997 0.003206 -0.893966
 34 24.248116 0.000002 -0.000004 -0.028139 -0.003093 1.066208
 35 26.336975 0.000000 0.000004 -0.374886 0.284721 0.674100
time 23
  0 0.000000 0.000000 0.000000 0.000000 -0.000000 -1.570796
  1 0.000000 0.000000 0.000000 0.000000 -0.000000 0.000000
  2 -5.910336 -2.951586 26.898750 -1.586997 -0.201206 1.597255
  3 4.222169 -0.467508 0.000000 0.008406 -0.000297 -0.172506
  4 4.476987 -0.000002 -0.000000 0.017736 -0.007334 -0.043183
  5 4.477083 0.000000 0.000002 0.005778 0.045314 0.155502
  6 4.477077 -0.000004 -0.000002 -0.017047 -0.006686 0.117185
  7 5.413502 -7.700466 -0.000000 0.015564 -0.078244 0.024920
  8 6.890240 0.000002 -0.000000 0.001965 0.092378 -0.413811
  9 8.011925 0.000004 0.000005 -0.020143 0.153285 -0.361160
 10 7.210720 -0.000002 -0.000000 0.017624 0.051764 -0.209309
 11 7.811473 -0.304903 -0.000000 -0.000800 -0.269314 1.149968
 12 22.523008 2.194031 6.355708 0.000000 -0.000000 0.000000
 13 22.523005 2.194038 -6.355709 0.000000 -0.000000 0.000000
 14 -3.006533 7.804720 -11.355459 1.579467 0.981807 2.385551
 15 10.384675 0.000008 0.000005 0.087387 0.223567 -1.000454
 16 22.550743 -0.000006 -0.000004 -0.184641 -0.071180 2.324749
 17 30.814247 -0.000015 -0.000004 1.556352 -0.298646 -0.256915
 18 -3.013796 7.815494 11.355459 0.427373 -0.228425 0.363851
 19 10.374533 -0.000002 0.000007 -1.114720 -0.359608 -0.043762
 20 22.550726 -0.000027 -0.000013 0.338563 0.154123 0.710649
 21 30.814270 -0.000023 0.000002 -3.008955 -0.390665 1.131041
 22 -4.250660 -0.770624 0.000001 -0.007179 -0.015903 -2.930364
 23 10.363422 0.000000 0.000000 0.013734 0.031991 0.175021
 24 10.363076 0.000000 -0.000000 0.009887 -0.074068 0.249271
 25 10.363081 -0.000004 -0.000002 0.054150 0.026098 0.018155
 26 8.210358 -0.000006 -7.703991 0.000000 0.000000 -0.000000
 27 8.210346 -0.000002 7.704017 0.000000 0.000000 -0.000000
 28 1.854841 1.227791 -13.762345 1.594930 0.742611 1.366459
 29 10.456543 -0.000004 0.000004 0.032550 0.077280 -1.600758
 30 24.248093 0.000001 0.000007 0.058677 0.022240 1.926702
 31 26.336971 0.000019 0.000002 1.444319 0.523054 0.384092
 32 1.854847 1.227798 13.762341 -2.680807 -0.229568 2.689959
 33 10.456542 -0.000008 0.000004 0.055125 0.045645 -0.778768
 34 24.248116 0.000002 -0.000004 -0.019240 -0.001211 1.032342
 35 26.336975 0.000000 0.000004 -0.430934 0.294741 0.652115
time 24
  0 0.000000 0.000000 0.000000 0.000000 -0.000000 -1.570796
  1 0.000000 0.000000 0.000000 0.000000 -0.000000 0.000000
  2 -3.609485 -2.951586 26.898750 -1.569742 -0.199531 1.581725
  3 4.222169 -0.467508 0.000000 0.008406 -0.000297 -0.172506
  4 4.476987 -0.000002 -0.000000 0.011708 -0.023805 -0.043694
  5 4.477083 0.000000 0.000002 -0.003462 0.024605 0.158155
  6 4.477077 -0.000004 -0.000002 -0.018737 -0.013001 0.118929
  7 5.413502 -7.700466 -0.000000 0.015591 -0.080844 0.024952
  8 6.890240 0.000002 -0.000000 0.002265 0.090405 -0.411437
  9 8.011925 0.000004 0.000005 -0.020811 0.154052 -0.372996
 10 7.210720 -0.000002 -0.000000 0.017432 0.080118 -0.210784
 11 7.811473 -0.304903 -0.000000 -0.009181 -0.266293 1.151195
 12 22.523008 2.194031 6.355708 0.000000 -0.000000 0.000000
 13 22.523005 2.194038 -6.355709 0.000000 -0.000000 0.000000
 14 -3.006533 7.804720 -11.355459 1.402038 0.916729 2.114566
 15 10.384675 0.000008 0.000005 0.071737 0.251913 -1.122585
 16 22.550743 -0.000006 -0.000004 -0.157037 -0.058122 2.440608
 17 30.814247 -0.000015 -0.000004 1.637814 -0.183004 -0.333839
 18 -3.013796 7.815494 11.355459 0.458736 -0.262802 0.344984
 19 10.374533 -0.000002 0.000007 -1.103058 -0.484126 -0.057098
 20 22.550726 -0.000027 -0.000013 0.385239 0.202239 0.935781
 21 30.814270 -0.000023 0.000002 -3.012744 -0.393381 1.083626
 22 -4.250660 -0.770624 0.000001 0.003715 -0.035160 -2.970949
 23 10.363422 0.000000 0.000000 0.010211 0.035682 0.152531
 24 10.363076 0.000000 -0.000000 0.006124 -0.051825 0.246948
 25 10.363081 -0.000004 -0.000002 0.053067 0.027777 0.094750
 26 8.210358 -0.000006 -7.703991 0.000000 0.000000 -0.000000
 27 8.210346 -0.000002 7.704017 0.000000 0.000000 -0.000000
 28 1.854841 1.227791 -13.762345 1.755126 0.753689 1.588271
 29 10.456543 -0.000004 0.000004 0.019185 0.079718 -1.779732
 30 24.248093 0.000001 0.000007 0.061235 0.022503 2.052327
 31 26.336971 0.000019 0.000002 1.307326 0.407402 0.416068
 32 1.854847 1.227798 13.762341 -2.691105 -0.256957 2.715292
 33 10.456542 -0.000008 0.000004 0.056379 0.093733 -0.778295
 34 24.248116 0.000002 -0.000004 -0.014719 0.000251 1.127694
 35 26.336975 0.000000 0.000004 -0.508124 0.280843 0.575930
time 25
  0 0.000000 0.000000 0.000000 0.000000 -0.000000 -1.570796
  1 0.000000 0.000000 0.000000 0.000000 -0.000000 0.000000
  2 -0.824244 -2.951586 26.695620 -1.552679 -0.198055 1.563128
  3 4.222169 -0.467508 0.000000 0.008406 -0.000297 -0.172506
  4 4.476987 -0.000002 -0.000000 0.005811 -0.040297 -0.044271
  5 4.477083 0.000000 0.000002 -0.012642 0.004203 0.160734
  6 4.477077 -0.000004 -0.000002 -0.020343 -0.019033 0.120533
  7 5.413502 -7.700466 -0.000000 0.015578 -0.080589 0.024952
  8 6.890240 0.000002 -0.000000 0.001918 0.083556 -0.414439
  9 8.011925 0.000004 0.000005 -0.020549 0.144994 -0.377123
 10 7.210720 -0.000002 -0.000000 0.017349 0.101993 -0.210918
 11 7.811473 -0.304903 -0.000000 -0.014876 -0.253181 1.148776
 12 22.523008 2.194031 6.355708 0.000000 -0.000000 0.000000
 13 22.523005 2.194038 -6.355709 0.000000 -0.000000 0.000000
 14 -3.006533 7.804720 -11.355459 1.176046 0.737286 1.784179
 15 10.384675 0.000008 0.000005 0.006633 0.270817 -1.402115
 16 22.550743 -0.000006 -0.000004 -0.126219 -0.052871 2.557013
 17 30.814247 -0.000015 -0.000004 1.783877 -0.028115 -0.351100
 18 -3.013796 7.815494 11.355459 0.493764 -0.343291 0.339284
 19 10.374533 -0.000002 0.000007 -1.069757 -0.601900 -0.108937
 20 22.550726 -0.000027 -0.000013 0.424091 0.221438 1.181697
 21 30.814270 -0.000023 0.000002 -2.978014 -0.387607 1.003410
 22 -4.250660 -0.770624 0.000001 0.016155 -0.054690 -3.011714
 23 10.363422 0.000000 0.000000 0.005836 0.040740 0.095359
 24 10.363076 0.000000 -0.000000 0.002673 -0.025195 0.238844
 25 10.363081 -0.000004 -0.000002 0.051996 0.029564 0.169090
 26 8.210358 -0.000006 -7.703991 0.000000 0.000000 -0.000000
 27 8.210346 -0.000002 7.704017 0.000000 0.000000 -0.000000
 28 1.854841 1.227791 -13.762345 1.988493 0.688678 1.850773
 29 10.456543 -0.000004 0.000004 0.007428 0.080109 -1.916720
 30 24.248093 0.000001 0.000007 0.062051 0.023754 2.094242
 31 26.336971 0.000019 0.000002 1.103642 0.274617 0.453511
 32 1.854847 1.227798 13.762341 -2.682191 -0.287904 2.683067
 33 10.456542 -0.000008 0.000004 0.030673 0.145662 -0.875522
 34 24.248116 0.000002 -0.000004 -0.017802 0.001318 1.330430
 35 26.336975 0.000000 0.000004 -0.620906 0.235458 0.450633
time 26
  0 0.000000 0.000000 0.000000 0.000000 -0.000000 -1.570796
  1 0.000000 0.000000 0.000000 0.000000 -0.000000 0.000000
  2 2.324290 -2.951586 26.293264 -1.536574 -0.196619 1.543283
  3 4.222169 -0.467508 0.000000 0.008406 -0.000297 -0.172506
  4 4.476987 -0.000002 -0.000000 0.000298 -0.056146 -0.044892
  5 4.477083 0.000000 0.000002 -0.021319 -0.014793 0.163106
  6 4.477077 -0.000004 -0.000002 -0.021757 -0.024408 0.121966
  7 5.413502 -7.700466 -0.000000 0.015551 -0.083410 0.024920
  8 6.890240 0.000002 -0.000000 0.001210 0.074119 -0.420839
  9 8.011925 0.000004 0.000005 -0.019396 0.129178 -0.373853
 10 7.210720 -0.000002 -0.000000 0.017377 0.118288 -0.209845
 11 7.811473 -0.304903 -0.000000 -0.023487 -0.232729 1.144710
 12 22.523008 2.194031 6.355708 0.000000 -0.000000 0.000000
 13 22.523005 2.194038 -6.355709 0.000000 -0.000000 0.000000
 14 -3.006533 7.804720 -11.355459 0.958953 0.444469 1.542930
 15 10.384675 0.000008 0.000005 -0.070385 0.270668 -1.769619
 16 22.550743 -0.000006 -0.000004 -0.083295 -0.059701 2.604713
 17 30.814247 -0.000015 -0.000004 1.999564 0.129628 -0.268375
 18 -3.013796 7.815494 11.355459 0.528995 -0.436298 0.333755
 19 10.374533 -0.000002 0.000007 -0.995404 -0.695986 -0.222414
 20 22.550726 -0.000027 -0.000013 0.431057 0.205694 1.421656
 21 30.814270 -0.000023 0.000002 -2.894067 -0.371238 0.903225
 22 -4.250660 -0.770624 0.000001 0.029242 -0.073145 -3.050456
 23 10.363422 0.000000 0.000000 0.000707 0.046396 0.014267
 24 10.363076 0.000000 -0.000000 -0.000539 0.003664 0.227772
 25 10.363081 -0.000004 -0.000002 0.050949 0.031490 0.239913
 26 8.210358 -0.000006 -7.703991 0.000000 0.000000 -0.000000
 27 8.210346 -0.000002 7.704017 0.000000 0.000000 -0.000000
 28 1.854841 1.227791 -13.762345 2.182944 0.554955 2.021435
 29 10.456543 -0.000004 0.000004 -0.001395 0.078899 -2.005208
 30 24.248093 0.000001 0.000007 0.061717 0.026316 2.051854
 31 26.336971 0.000019 0.000002 0.893519 0.166717 0.502828
 32 1.854847 1.227798 13.762341 -2.649745 -0.357704 2.632748
 33 10.456542 -0.000008 0.000004 -0.000766 0.191913 -0.976650
 34 24.248116 0.000002 -0.000004 -0.022854 0.002983 1.539868
 35 26.336975 0.000000 0.000004 -0.736133 0.175183 0.329405
time 27
  0 0.000000 0.000000 0.000000 0.000000 -0.000000 -1.570796
  1 0.000000 0.000000 0.000000 0.000000 -0.000000 0.000000
  2 5.547044 -2.951586 25.640900 -1.522099 -0.195183 1.523823
  3 4.222169 -0.467508 0.000000 0.008406 -0.000297 -0.172506
  4 4.476987 -0.000002 -0.000000 -0.004615 -0.070903 -0.045514
  5 4.477083 0.000000 0.000002 -0.029121 -0.031512 0.165136
  6 4.477077 -0.000004 -0.000002 -0.022908 -0.028786 0.123165
  7 5.413502 -7.700466 -0.000000 0.015498 -0.088082 0.024889
  8 6.890240 0.000002 -0.000000 0.000336 0.063912 -0.429124
  9 8.011925 0.000004 0.000005 -0.017497 0.109592 -0.363678
 10 7.210720 -0.000002 -0.000000 0.017486 0.130188 -0.207646
 11 7.811473 -0.304903 -0.000000 -0.034533 -0.200531 1.138752
 12 22.523008 2.194031 6.355708 0.000000 -0.000000 0.000000
 13 22.523005 2.194038 -6.355709 0.000000 -0.000000 0.000000
 14 -3.006533 7.804720 -11.355459 0.718312 0.171966 1.413207
 15 10.384675 0.000008 0.000005 -0.106354 0.261779 -2.011604
 16 22.550743 -0.000006 -0.000004 -0.045457 -0.077809 2.539519
 17 30.814247 -0.000015 -0.000004 2.284221 0.261634 -0.117571
 18 -3.013796 7.815494 11.355459 0.558678 -0.571156 0.332444
 19 10.374533 -0.000002 0.000007 -0.896244 -0.778810 -0.361927
 20 22.550726 -0.000027 -0.000013 0.401479 0.173382 1.632272
 21 30.814270 -0.000023 0.000002 -2.760691 -0.348337 0.798074
 22 -4.250660 -0.770624 0.000001 0.042090 -0.089546 -3.085459
 23 10.363422 0.000000 0.000000 -0.004866 0.051933 -0.078885
 24 10.363076 0.000000 -0.000000 -0.003595 0.032415 0.215176
 25 10.363081 -0.000004 -0.000002 0.049915 0.033570 0.307542
 26 8.210358 -0.000006 -7.703991 0.000000 0.000000 -0.000000
 27 8.210346 -0.000002 7.704017 0.000000 0.000000 -0.000000
 28 1.854841 1.227791 -13.762345 2.298067 0.422540 2.069544
 29 10.456543 -0.000004 0.000004 -0.009745 0.076924 -2.087922
 30 24.248093 0.000001 0.000007 0.061124 0.029020 1.999520
 31 26.336971 0.000019 0.000002 0.731294 0.097263 0.550820
 32 1.854847 1.227798 13.762341 -2.610985 -0.487537 2.592898
 33 10.456542 -0.000008 0.000004 -0.004259 0.217404 -0.988277
 34 24.248116 0.000002 -0.000004 -0.034137 0.004517 1.691983
 35 26.336975 0.000000 0.000004 -0.881292 0.119283 0.237622
time 28
  0 0.000000 0.000000 0.000000 0.000000 -0.000000 -1.570796
  1 0.000000 0.000000 0.000000 0.000000 -0.000000 0.000000
  2 8.386974 -2.951586 24.722904 -1.509829 -0.193867 1.506567
  3 4.222169 -0.467508 0.000000 0.008406 -0.000297 -0.172506
  4 4.476987 -0.000002 -0.000000 -0.008714 -0.084118 -0.046180
  5 4.477083 0.000000 0.000002 -0.035652 -0.045113 0.166678
  6 4.477077 -0.000004 -0.000002 -0.023723 -0.031849 0.124084
  7 5.413502 -7.700466 -0.000000 0.015431 -0.093944 0.024858
  8 6.890240 0.000002 -0.000000 -0.000647 0.053090 -0.439177
  9 8.011925 0.000004 0.000005 -0.015061 0.089111 -0.346988
 10 7.210720 -0.000002 -0.000000 0.017624 0.138839 -0.204482
 11 7.811473 -0.304903 -0.000000 -0.045624 -0.127958 1.132443
 12 22.523008 2.194031 6.355708 0.000000 -0.000000 0.000000
 13 22.523005 2.194038 -6.355709 0.000000 -0.000000 0.000000
 14 -3.006533 7.804720 -11.355459 0.458028 0.014393 1.384295
 15 10.384675 0.000008 0.000005 -0.103067 0.260166 -2.095747
 16 22.550743 -0.000006 -0.000004 -0.021484 -0.110496 2.372388
 17 30.814247 -0.000015 -0.000004 2.596353 0.315270 0.087559
 18 -3.013796 7.815494 11.355459 0.589480 -0.712104 0.329024
 19 10.374533 -0.000002 0.000007 -0.774637 -0.849242 -0.521213
 20 22.550726 -0.000027 -0.000013 0.362156 0.146703 1.836313
 21 30.814270 -0.000023 0.000002 -2.583360 -0.322573 0.691111
 22 -4.250660 -0.770624 0.000001 0.053715 -0.103042 -3.114855
 23 10.363422 0.000000 0.000000 -0.010415 0.056763 -0.172081
 24 10.363076 0.000000 -0.000000 -0.006388 0.058793 0.202607
 25 10.363081 -0.000004 -0.000002 0.048943 0.035788 0.369747
 26 8.210358 -0.000006 -7.703991 0.000000 0.000000 -0.000000
 27 8.210346 -0.000002 7.704017 0.000000 0.000000 -0.000000
 28 1.854841 1.227791 -13.762345 2.371590 0.318720 2.055555
 29 10.456543 -0.000004 0.000004 -0.017729 0.074290 -2.169029
 30 24.248093 0.000001 0.000007 0.060420 0.031663 1.947956
 31 26.336971 0.000019 0.000002 0.612529 0.054981 0.595442
 32 1.854847 1.227798 13.762341 -2.580834 -0.645252 2.527500
 33 10.456542 -0.000008 0.000004 0.015886 0.239528 -0.953989
 34 24.248116 0.000002 -0.000004 -0.042234 0.005956 1.783120
 35 26.336975 0.000000 0.000004 -1.025508 0.052896 0.159346
time 29
  0 0.000000 0.000000 0.000000 0.000000 -0.000000 -1.570796
  1 0.000000 0.000000 0.000000 0.000000 -0.000000 0.000000
  2 10.457351 -2.951586 23.711155 -1.500338 -0.192750 1.493146
  3 4.222169 -0.467508 0.000000 0.008406 -0.000297 -0.172506
  4 4.476987 -0.000002 -0.000000 -0.011782 -0.095276 -0.046868
  5 4.477083 0.000000 0.000002 -0.040518 -0.054660 0.167567
  6 4.477077 -0.000004 -0.000002 -0.024118 -0.033240 0.124707
  7 5.413502 -7.700466 -0.000000 0.015352 -0.100350 0.024796
  8 6.890240 0.000002 -0.000000 -0.001738 0.041628 -0.450999
  9 8.011925 0.000004 0.000005 -0.012193 0.070708 -0.324172
 10 7.210720 -0.000002 -0.000000 0.017761 0.145283 -0.200432
 11 7.811473 -0.304903 -0.000000 -0.056463 -0.055163 1.125643
 12 22.523008 2.194031 6.355708 0.000000 -0.000000 0.000000
 13 22.523005 2.194038 -6.355709 0.000000 -0.000000 0.000000
 14 -3.006533 7.804720 -11.355459 0.240175 -0.012882 1.409292
 15 10.384675 0.000008 0.000005 -0.077332 0.260081 -2.076808
 16 22.550743 -0.000006 -0.000004 -0.005843 -0.155322 2.130256
 17 30.814247 -0.000015 -0.000004 2.851177 0.285176 0.310487
 18 -3.013796 7.815494 11.355459 0.603939 -0.872671 0.353249
 19 10.374533 -0.000002 0.000007 -0.656535 -0.899707 -0.661711
 20 22.550726 -0.000027 -0.000013 0.306738 0.127523 1.996865
 21 30.814270 -0.000023 0.000002 -2.374175 -0.299672 0.599851
 22 -4.250660 -0.770624 0.000001 0.063027 -0.112815 -3.136696
 23 10.363422 0.000000 0.000000 -0.015208 0.060562 -0.253195
 24 10.363076 0.000000 -0.000000 -0.008665 0.080521 0.191638
 25 10.363081 -0.000004 -0.000002 0.048265 0.037237 0.400407
 26 8.210358 -0.000006 -7.703991 0.000000 0.000000 -0.000000
 27 8.210346 -0.000002 7.704017 0.000000 0.000000 -0.000000
 28 1.854841 1.227791 -13.762345 2.415036 0.246924 2.013771
 29 10.456543 -0.000004 0.000004 -0.023075 0.071354 -2.222348
 30 24.248093 0.000001 0.000007 0.059641 0.034266 1.897457
 31 26.336971 0.000019 0.000002 0.535093 0.036349 0.624933
 32 1.854847 1.227798 13.762341 -2.532756 -0.802474 2.442501
 33 10.456542 -0.000008 0.000004 0.038880 0.259815 -0.915485
 34 24.248116 0.000002 -0.000004 -0.049022 0.008065 1.867150
 35 26.336975 0.000000 0.000004 -1.180916 -0.026612 0.114076
time 30
  0 0.000000 0.000000 0.000000 0.000000 -0.000000 -1.570796
  1 0.000000 0.000000 0.000000 0.000000 -0.000000 0.000000
  2 11.629261 -2.951586 22.972851 -1.494299 -0.191952 1.485285
  3 4.222169 -0.467508 0.000000 0.008406 -0.000297 -0.172506
  4 4.476987 -0.000002 -0.000000 -0.013604 -0.103929 -0.047601
  5 4.477083 0.000000 0.000002 -0.043323 -0.059280 0.167611
  6 4.477077 -0.000004 -0.000002 -0.024010 -0.032639 0.124956
  7 5.413502 -7.700466 -0.000000 0.015272 -0.106653 0.024765
  8 6.890240 0.000002 -0.000000 -0.002900 0.029525 -0.464589
  9 8.011925 0.000004 0.000005 -0.008840 0.057256 -0.295542
 10 7.210720 -0.000002 -0.000000 0.017843 0.150615 -0.195605
 11 7.811473 -0.304903 -0.000000 -0.066866 0.011844 1.118878
 12 22.523008 2.194031 6.355708 0.000000 -0.000000 0.000000
 13 22.523005 2.194038 -6.355709 0.000000 -0.000000 0.000000
 14 -3.006533 7.804720 -11.355459 0.115106 0.024462 1.472884
 15 10.384675 0.000008 0.000005 -0.032287 0.248073 -2.009883
 16 22.550743 -0.000006 -0.000004 0.027486 -0.200779 1.813064
 17 30.814247 -0.000015 -0.000004 3.005102 0.230004 0.522135
 18 -3.013796 7.815494 11.355459 0.613205 -1.035405 0.381749
 19 10.374533 -0.000002 0.000007 -0.589259 -0.931966 -0.739933
 20 22.550726 -0.000027 -0.000013 0.243414 0.122301 2.118333
 21 30.814270 -0.000023 0.000002 -2.134401 -0.293653 0.499386
 22 -4.250660 -0.770624 0.000001 0.068923 -0.118062 3.134172
 23 10.363422 0.000000 0.000000 -0.018432 0.063223 -0.310477
 24 10.363076 0.000000 -0.000000 -0.010091 0.095298 0.183869
 25 10.363081 -0.000004 -0.000002 0.047453 0.038438 0.429106
 26 8.210358 -0.000006 -7.703991 0.000000 0.000000 -0.000000
 27 8.210346 -0.000002 7.704017 0.000000 0.000000 -0.000000
 28 1.854841 1.227791 -13.762345 2.416312 0.212753 1.962013
 29 10.456543 -0.000004 0.000004 -0.028141 0.068169 -2.274060
 30 24.248093 0.000001 0.000007 0.059901 0.036365 1.872592
 31 26.336971 0.000019 0.000002 0.498724 0.028045 0.631781
 32 1.854847 1.227798 13.762341 -2.439671 -0.959477 2.285728
 33 10.456542 -0.000008 0.000004 0.070894 0.253220 -0.851875
 34 24.248116 0.000002 -0.000004 -0.037505 0.012919 1.887408
 35 26.336975 0.000000 0.000004 -1.335638 -0.112821 0.082709
time 31
  0 0.000000 0.000000 0.000000 0.000000 -0.000000 -1.570796
  1 0.000000 0.000000 0.000000 0.000000 -0.000000 0.000000
  2 11.996460 -2.951586 22.730656 -1.492286 -0.191553 1.484615
  3 4.222169 -0.467508 0.000000 0.008406 -0.000297 -0.172506
  4 4.476987 -0.000002 -0.000000 -0.013951 -0.109584 -0.048377
  5 4.477083 0.000000 0.000002 -0.043694 -0.058069 0.166678
  6 4.477077 -0.000004 -0.000002 -0.023315 -0.029688 0.124800
  7 5.413502 -7.700466 -0.000000 0.015219 -0.112176 0.024734
  8 6.890240 0.000002 -0.000000 -0.004099 0.016769 -0.479948
  9 8.011925 0.000004 0.000005 -0.004689 0.051649 -0.261409
 10 7.210720 -0.000002 -0.000000 0.017816 0.155911 -0.190161
 11 7.811473 -0.304903 -0.000000 -0.073158 0.047252 1.114778
 12 22.523008 2.194031 6.355708 0.000000 -0.000000 0.000000
 13 22.523005 2.194038 -6.355709 0.000000 -0.000000 0.000000
 14 -3.006533 7.804720 -11.355459 0.076528 0.058520 1.401532
 15 10.384675 0.000008 0.000005 0.011489 0.217054 -1.768342
 16 22.550743 -0.000006 -0.000004 0.076599 -0.217883 1.486732
 17 30.814247 -0.000015 -0.000004 3.063370 0.202606 0.682572
 18 -3.013796 7.815494 11.355459 0.649047 -1.246940 0.406088
 19 10.374533 -0.000002 0.000007 -0.668331 -0.906118 -0.656435
 20 22.550726 -0.000027 -0.000013 0.169549 0.138831 2.190855
 21 30.814270 -0.000023 0.000002 -1.871824 -0.301947 0.373903
 22 -4.250660 -0.770624 0.000001 0.070397 -0.117982 3.133302
 23 10.363422 0.000000 0.000000 -0.019271 0.064721 -0.332549
 24 10.363076 0.000000 -0.000000 -0.010283 0.100859 0.180953
 25 10.363081 -0.000004 -0.000002 0.046800 0.039470 0.457591
 26 8.210358 -0.000006 -7.703991 0.000000 0.000000 -0.000000
 27 8.210346 -0.000002 7.704017 0.000000 0.000000 -0.000000
 28 1.854841 1.227791 -13.762345 2.417807 0.179841 1.910316
 29 10.456543 -0.000004 0.000004 -0.033015 0.064717 -2.325773
 30 24.248093 0.000001 0.000007 0.060902 0.037212 1.889879
 31 26.336971 0.000019 0.000002 0.501247 0.034194 0.597099
 32 1.854847 1.227798 13.762341 -2.226659 -1.063589 2.006175
 33 10.456542 -0.000008 0.000004 0.102604 0.243730 -0.787793
 34 24.248116 0.000002 -0.000004 -0.025264 0.017641 1.905432
 35 26.336975 0.000000 0.000004 -1.488430 -0.202566 0.064398
end
