version 1
nodes
  0 "Chaurus" -1
  1 "NPC Root [Root]" 0
  2 "Pelvis [Pelv]" 1
  3 "Spine[Spn0]" 2
  4 "Spine[Spn1]" 3
  5 "Spine[Spn2]" 4
  6 "Ribcage[Spn3]" 5
  7 "[Neck0]" 6
  8 "[Neck1]" 7
  9 "[Neck2]" 8
 10 "[Neck3]" 9
 11 "NPC Head [Head]" 10
 12 "Head[LeftPincher]" 11
 13 "Head[RightPincher]" 11
 14 "R UpperArm[RClv]" 6
 15 "R UpperArm[RUar]" 14
 16 "R UpperArm[RLar]" 15
 17 "R UpperArm[RHnd]" 16
 18 "L UpperArm[RClv]" 6
 19 "L UpperArm[LUar]" 18
 20 "L UpperArm[LLar]" 19
 21 "L UpperArm[LHnd]" 20
 22 "Tail[Tal0]" 2
 23 "Tail[Tal1]" 22
 24 "Tail[Tal2]" 23
 25 "Tail[Tal3]" 24
 26 "[TalRightPincher]" 25
 27 "[TalLeftPincher]" 25
 28 "R Leg[RThg0]" 2
 29 "R Leg[RThg1]" 28
 30 "R Leg[RClf]" 29
 31 "R Leg[RAnkle]" 30
 32 "LLeg[RThg0]" 2
 33 "LLeg[LThg1]" 32
 34 "LLeg[LClf]" 33
 35 "LLeg[LAnkle]" 34
end
skeleton
time 0
  0 0.000000 0.000000 0.000000 0.000000 -0.000000 -1.570796
  1 0.000000 0.000000 0.000000 0.000000 -0.000000 0.000000
  2 3.597766 -2.951586 29.996502 -1.492478 0.007776 1.499377
  3 4.222169 -0.467508 0.000000 -0.042768 0.002243 0.105033
  4 4.476987 -0.000002 -0.000000 -0.041108 -0.092599 0.282275
  5 4.477083 0.000000 0.000002 -0.051951 -0.062995 -0.131905
  6 4.477077 -0.000004 -0.000002 -0.041316 -0.020969 -0.239234
  7 5.413502 -7.700466 -0.000000 0.008958 -0.112464 0.086684
  8 6.890240 0.000002 -0.000000 0.001522 0.016729 -0.147959
  9 8.011925 0.000004 0.000005 -0.000144 0.051984 -0.165343
 10 7.210720 -0.000002 -0.000000 -0.022455 0.155170 -0.446132
 11 7.811473 -0.304903 -0.000000 -0.085328 0.045288 0.659549
 12 22.523008 2.194031 6.355708 0.000000 -0.000000 0.000000
 13 22.523005 2.194038 -6.355709 0.000000 -0.000000 0.000000
 14 -3.006533 7.804720 -11.355459 0.171537 0.159918 0.934279
 15 10.384675 0.000008 0.000005 -0.208846 0.253292 -1.723077
 16 22.550743 -0.000006 -0.000004 -0.105893 -0.538897 1.986128
 17 30.814247 -0.000015 -0.000004 3.027684 0.381288 0.462652
 18 -3.013796 7.815494 11.355459 0.788803 -0.125105 0.159676
 19 10.374533 -0.000002 0.000007 0.093940 -1.277314 -1.622760
 20 22.550726 -0.000027 -0.000013 0.045904 0.072870 2.375602
 21 30.814270 -0.000023 0.000002 -2.835974 -0.494675 0.603142
 22 -4.250660 -0.770624 0.000001 0.079961 -0.113746 2.924025
 23 10.363422 0.000000 0.000000 -0.019271 0.064721 -0.332571
 24 10.363076 0.000000 -0.000000 -0.010283 0.100859 0.180953
 25 10.363081 -0.000004 -0.000002 0.030807 0.052858 0.117678
 26 8.210358 -0.000006 -7.786025 0.000000 0.000000 -0.000815
 27 8.210346 -0.000002 7.704017 0.000000 0.000000 -0.000814
 28 1.854841 1.227791 -13.762345 2.735163 0.203329 1.737768
 29 10.456543 -0.000004 0.000004 -0.098092 0.047527 -1.753072
 30 24.248093 0.000001 0.000007 0.036063 0.032551 1.155607
 31 26.336971 0.000019 0.000002 0.204378 -0.023803 0.782990
 32 1.854847 1.227798 13.762341 2.778692 -0.602430 2.416739
 33 10.456542 -0.000008 0.000004 1.015633 0.287505 -0.076306
 34 24.248116 0.000002 -0.000004 -0.073363 -0.131592 0.448455
 35 26.336975 0.000000 0.000004 -0.814909 0.108456 0.884511
time 1
  0 0.000000 0.000000 0.000000 0.000000 -0.000000 -1.570796
  1 0.000000 0.000000 0.000000 0.000000 -0.000000 0.000000
  2 3.597766 -2.951586 29.996502 -1.492478 0.007776 1.499377
  3 4.222169 -0.467508 0.000000 -0.042768 0.002243 0.105033
  4 4.476987 -0.000002 -0.000000 -0.041108 -0.092599 0.282275
  5 4.477083 0.000000 0.000002 -0.051951 -0.062995 -0.131905
  6 4.477077 -0.000004 -0.000002 -0.041316 -0.020969 -0.239234
  7 5.413502 -7.700466 -0.000000 0.008958 -0.112464 0.086684
  8 6.890240 0.000002 -0.000000 0.001522 0.016729 -0.147959
  9 8.011925 0.000004 0.000005 -0.000144 0.051984 -0.165343
 10 7.210720 -0.000002 -0.000000 -0.022455 0.155170 -0.446132
 11 7.811473 -0.304903 -0.000000 -0.085328 0.045288 0.659549
 12 22.523008 2.194031 6.355708 0.000000 -0.000000 0.000000
 13 22.523005 2.194038 -6.355709 0.000000 -0.000000 0.000000
 14 -3.006533 7.804720 -11.355459 0.171537 0.159918 0.934279
 15 10.384675 0.000008 0.000005 -0.208846 0.253292 -1.723077
 16 22.550743 -0.000006 -0.000004 -0.105893 -0.538897 1.986128
 17 30.814247 -0.000015 -0.000004 3.027684 0.381288 0.462652
 18 -3.013796 7.815494 11.355459 0.788803 -0.125105 0.159676
 19 10.374533 -0.000002 0.000007 0.093940 -1.277314 -1.622760
 20 22.550726 -0.000027 -0.000013 0.045904 0.072870 2.375602
 21 30.814270 -0.000023 0.000002 -2.835974 -0.494675 0.603142
 22 -4.250660 -0.770624 0.000001 0.079961 -0.113746 2.924025
 23 10.363422 0.000000 0.000000 -0.019271 0.064721 -0.332571
 24 10.363076 0.000000 -0.000000 -0.010283 0.100859 0.180953
 25 10.363081 -0.000004 -0.000002 0.030807 0.052858 0.117678
 26 8.210358 -0.000006 -7.786025 0.000000 0.000000 -0.000815
 27 8.210346 -0.000002 7.704017 0.000000 0.000000 -0.000814
 28 1.854841 1.227791 -13.762345 2.735163 0.203329 1.737768
 29 10.456543 -0.000004 0.000004 -0.098092 0.047527 -1.753072
 30 24.248093 0.000001 0.000007 0.036063 0.032551 1.155607
 31 26.336971 0.000019 0.000002 0.204378 -0.023803 0.782990
 32 1.854847 1.227798 13.762341 2.778692 -0.602430 2.416739
 33 10.456542 -0.000008 0.000004 1.015633 0.287505 -0.076306
 34 24.248116 0.000002 -0.000004 -0.073363 -0.131592 0.448455
 35 26.336975 0.000000 0.000004 -0.814909 0.108456 0.884511
time 2
  0 0.000000 0.000000 0.000000 0.000000 -0.000000 -1.570796
  1 0.000000 0.000000 0.000000 0.000000 -0.000000 0.000000
  2 3.468856 -2.951586 29.762119 -1.495353 0.007616 1.501870
  3 4.222169 -0.467508 0.000000 -0.038022 0.002595 0.081971
  4 4.476987 -0.000002 -0.000000 -0.039491 -0.090500 0.274728
  5 4.477083 0.000000 0.000002 -0.050429 -0.060895 -0.119425
  6 4.477077 -0.000004 -0.000002 -0.040166 -0.022284 -0.226121
  7 5.413502 -7.700466 -0.000000 0.005104 -0.112940 0.120475
  8 6.890240 0.000002 -0.000000 0.000503 0.023748 -0.177677
  9 8.011925 0.000004 0.000005 0.000013 0.061330 -0.165759
 10 7.210720 -0.000002 -0.000000 -0.022373 0.150985 -0.451576
 11 7.811473 -0.304903 -0.000000 -0.096282 0.003906 0.661898
 12 22.523008 2.194031 6.355708 0.000000 -0.000000 0.000000
 13 22.523005 2.194038 -6.355709 0.000000 -0.000000 0.000000
 14 -3.006533 7.804720 -11.355459 0.300946 0.207261 1.017923
 15 10.384675 0.000008 0.000005 -0.324150 0.178822 -1.836989
 16 22.550743 -0.000006 -0.000004 -0.080816 -0.538409 1.948597
 17 30.814247 -0.000015 -0.000004 2.867469 0.260223 0.513397
 18 -3.013796 7.815494 11.355459 0.680766 -0.195990 0.198151
 19 10.374533 -0.000002 0.000007 0.221682 -1.088577 -1.686718
 20 22.550726 -0.000027 -0.000013 0.050133 0.073086 2.292968
 21 30.814270 -0.000023 0.000002 -2.697897 -0.366956 0.639066
 22 -4.250660 -0.770624 0.000001 0.078859 -0.111595 2.934933
 23 10.363422 0.000000 0.000000 -0.018516 0.064002 -0.322690
 24 10.363076 0.000000 -0.000000 -0.009204 0.098330 0.170577
 25 10.363081 -0.000004 -0.000002 0.030819 0.053182 0.107100
 26 8.210358 -0.000006 -7.786025 0.000000 0.000000 -0.000815
 27 8.210346 -0.000002 7.704017 0.000000 0.000000 -0.000814
 28 1.854841 1.227791 -13.762345 2.847032 0.165802 1.765016
 29 10.456543 -0.000004 0.000004 -0.135146 0.043969 -1.795146
 30 24.248093 0.000001 0.000007 0.037583 0.031603 1.217353
 31 26.336971 0.000019 0.000002 0.074911 -0.073233 0.753168
 32 1.854847 1.227798 13.762341 2.857934 -0.491286 2.384643
 33 10.456542 -0.000008 0.000004 0.915689 0.577675 -0.230009
 34 24.248116 0.000002 -0.000004 -0.173707 -0.241466 0.967658
 35 26.336975 0.000000 0.000004 -0.696080 0.222678 0.630695
time 3
  0 0.000000 0.000000 0.000000 0.000000 -0.000000 -1.570796
  1 0.000000 0.000000 0.000000 0.000000 -0.000000 0.000000
  2 3.140721 -2.951586 29.176165 -1.501872 0.007018 1.507526
  3 4.222169 -0.467508 0.000000 -0.032006 0.002873 0.047501
  4 4.476987 -0.000002 -0.000000 -0.035560 -0.084053 0.252109
  5 4.477083 0.000000 0.000002 -0.046678 -0.052609 -0.086017
  6 4.477077 -0.000004 -0.000002 -0.036007 -0.024201 -0.193449
  7 5.413502 -7.700466 -0.000000 0.001103 -0.111649 0.154640
  8 6.890240 0.000002 -0.000000 0.000276 0.037772 -0.230852
  9 8.011925 0.000004 0.000005 0.000144 0.080772 -0.166174
 10 7.210720 -0.000002 -0.000000 -0.022345 0.145830 -0.456269
 11 7.811473 -0.304903 -0.000000 -0.106340 -0.041472 0.664000
 12 22.523008 2.194031 6.355708 0.000000 -0.000000 0.000000
 13 22.523005 2.194038 -6.355709 0.000000 -0.000000 0.000000
 14 -3.006533 7.804720 -11.355459 0.391560 0.283892 1.005837
 15 10.384675 0.000008 0.000005 -0.399076 0.110547 -1.794112
 16 22.550743 -0.000006 -0.000004 -0.026793 -0.529828 1.860219
 17 30.814247 -0.000015 -0.000004 2.706992 0.148186 0.580472
 18 -3.013796 7.815494 11.355459 0.580417 -0.323860 0.195472
 19 10.374533 -0.000002 0.000007 0.135061 -0.927182 -1.540305
 20 22.550726 -0.000027 -0.000013 0.054034 0.073891 2.208908
 21 30.814270 -0.000023 0.000002 -2.575993 -0.258836 0.660096
 22 -4.250660 -0.770624 0.000001 0.074688 -0.107632 2.965967
 23 10.363422 0.000000 0.000000 -0.016611 0.063031 -0.294875
 24 10.363076 0.000000 -0.000000 -0.008030 0.092410 0.144070
 25 10.363081 -0.000004 -0.000002 0.031484 0.052781 0.084736
 26 8.210358 -0.000006 -7.786025 0.000000 0.000000 -0.000815
 27 8.210346 -0.000002 7.704017 0.000000 0.000000 -0.000814
 28 1.854841 1.227791 -13.762345 2.955427 0.125020 1.790013
 29 10.456543 -0.000004 0.000004 -0.176620 0.045873 -1.788198
 30 24.248093 0.000001 0.000007 0.039548 0.030917 1.276614
 31 26.336971 0.000019 0.000002 -0.050814 -0.129915 0.736435
 32 1.854847 1.227798 13.762341 2.943726 -0.432840 2.377535
 33 10.456542 -0.000008 0.000004 0.761483 0.657376 -0.427655
 34 24.248116 0.000002 -0.000004 -0.259024 -0.269762 1.304434
 35 26.336975 0.000000 0.000004 -0.573306 0.314315 0.458376
time 4
  0 0.000000 0.000000 0.000000 0.000000 -0.000000 -1.570796
  1 0.000000 0.000000 0.000000 0.000000 -0.000000 0.000000
  2 2.664144 -2.951586 28.344109 -1.511458 0.006101 1.515962
  3 4.222169 -0.467508 0.000000 -0.025762 0.003411 0.012280
  4 4.476987 -0.000002 -0.000000 -0.030155 -0.073987 0.220655
  5 4.477083 0.000000 0.000002 -0.041321 -0.040106 -0.039788
  6 4.477077 -0.000004 -0.000002 -0.030566 -0.026137 -0.148646
  7 5.413502 -7.700466 -0.000000 -0.002672 -0.109049 0.186875
  8 6.890240 0.000002 -0.000000 -0.000240 0.053155 -0.279373
  9 8.011925 0.000004 0.000005 0.000236 0.105199 -0.166511
 10 7.210720 -0.000002 -0.000000 -0.022400 0.138927 -0.460238
 11 7.811473 -0.304903 -0.000000 -0.114607 -0.087139 0.665998
 12 22.523008 2.194031 6.355708 0.000000 -0.000000 0.000000
 13 22.523005 2.194038 -6.355709 0.000000 -0.000000 0.000000
 14 -3.006533 7.804720 -11.355459 0.411256 0.408750 0.912785
 15 10.384675 0.000008 0.000005 -0.451368 0.051056 -1.614331
 16 22.550743 -0.000006 -0.000004 0.050115 -0.510658 1.718694
 17 30.814247 -0.000015 -0.000004 2.572504 0.022450 0.644182
 18 -3.013796 7.815494 11.355459 0.501553 -0.477999 0.169879
 19 10.374533 -0.000002 0.000007 0.011229 -0.787414 -1.352664
 20 22.550726 -0.000027 -0.000013 0.049030 0.080841 2.072674
 21 30.814270 -0.000023 0.000002 -2.456088 -0.155927 0.693147
 22 -4.250660 -0.770624 0.000001 0.068396 -0.101999 3.010445
 23 10.363422 0.000000 0.000000 -0.013866 0.061761 -0.254053
 24 10.363076 0.000000 -0.000000 -0.006484 0.083793 0.106724
 25 10.363081 -0.000004 -0.000002 0.032568 0.051980 0.053808
 26 8.210358 -0.000006 -7.786025 0.000000 0.000000 -0.003363
 27 8.210346 -0.000002 7.704017 0.000000 0.000000 -0.003357
 28 1.854841 1.227791 -13.762345 3.033172 0.061662 1.868289
 29 10.456543 -0.000004 0.000004 -0.221710 0.053951 -1.733447
 30 24.248093 0.000001 0.000007 0.045035 0.028596 1.276318
 31 26.336971 0.000019 0.000002 -0.169101 -0.196006 0.737373
 32 1.854847 1.227798 13.762341 3.062235 -0.416232 2.375036
 33 10.456542 -0.000008 0.000004 0.605648 0.560866 -0.646741
 34 24.248116 0.000002 -0.000004 -0.311903 -0.255021 1.549819
 35 26.336975 0.000000 0.000004 -0.417855 0.389046 0.323414
time 5
  0 0.000000 0.000000 0.000000 0.000000 -0.000000 -1.570796
  1 0.000000 0.000000 0.000000 0.000000 -0.000000 0.000000
  2 2.097720 -2.951586 27.387047 -1.523728 0.004864 1.526603
  3 4.222169 -0.467508 0.000000 -0.019290 0.004208 -0.023938
  4 4.476987 -0.000002 -0.000000 -0.024030 -0.061093 0.186582
  5 4.477083 0.000000 0.000002 -0.035161 -0.025309 0.011243
  6 4.477077 -0.000004 -0.000002 -0.025508 -0.027283 -0.099217
  7 5.413502 -7.700466 -0.000000 -0.005875 -0.105668 0.214598
  8 6.890240 0.000002 -0.000000 -0.001031 0.069284 -0.321354
  9 8.011925 0.000004 0.000005 0.000301 0.129466 -0.166823
 10 7.210720 -0.000002 -0.000000 -0.022455 0.129570 -0.463403
 11 7.811473 -0.304903 -0.000000 -0.120118 -0.129119 0.667821
 12 22.523008 2.194031 6.355708 0.000000 -0.000000 0.000000
 13 22.523005 2.194038 -6.355709 0.000000 -0.000000 0.000000
 14 -3.006533 7.804720 -11.355459 0.412395 0.540850 0.802015
 15 10.384675 0.000008 0.000005 -0.481585 -0.001689 -1.350907
 16 22.550743 -0.000006 -0.000004 0.118436 -0.491861 1.503620
 17 30.814247 -0.000015 -0.000004 2.487242 -0.103443 0.718706
 18 -3.013796 7.815494 11.355459 0.458277 -0.640509 0.122626
 19 10.374533 -0.000002 0.000007 -0.117592 -0.659707 -1.155340
 20 22.550726 -0.000027 -0.000013 0.033403 0.090264 1.893635
 21 30.814270 -0.000023 0.000002 -2.360845 -0.092141 0.736100
 22 -4.250660 -0.770624 0.000001 0.060918 -0.094842 3.061528
 23 10.363422 0.000000 0.000000 -0.010630 0.060155 -0.205310
 24 10.363076 0.000000 -0.000000 -0.004350 0.073235 0.063931
 25 10.363081 -0.000004 -0.000002 0.033787 0.051040 0.017672
 26 8.210358 -0.000006 -7.786025 0.000000 0.000000 -0.007881
 27 8.210346 -0.000002 7.704017 0.000000 0.000000 -0.007935
 28 1.854841 1.227791 -13.762345 3.100539 -0.010110 1.945105
 29 10.456543 -0.000004 0.000004 -0.264145 0.070393 -1.636144
 30 24.248093 0.000001 0.000007 0.051337 0.026417 1.259742
 31 26.336971 0.000019 0.000002 -0.270290 -0.273974 0.752119
 32 1.854847 1.227798 13.762341 -3.074891 -0.340138 2.402694
 33 10.456542 -0.000008 0.000004 0.462498 0.407279 -0.809745
 34 24.248116 0.000002 -0.000004 -0.327733 -0.208041 1.723361
 35 26.336975 0.000000 0.000004 -0.255800 0.457666 0.225979
time 6
  0 0.000000 0.000000 0.000000 0.000000 -0.000000 -1.570796
  1 0.000000 0.000000 0.000000 0.000000 -0.000000 0.000000
  2 1.492233 -2.951586 26.422174 -1.538012 0.003508 1.539065
  3 4.222169 -0.467508 0.000000 -0.012603 0.005301 -0.061613
  4 4.476987 -0.000002 -0.000000 -0.017822 -0.046251 0.156061
  5 4.477083 0.000000 0.000002 -0.029265 -0.009834 0.058583
  6 4.477077 -0.000004 -0.000002 -0.022416 -0.026644 -0.052623
  7 5.413502 -7.700466 -0.000000 -0.008201 -0.102032 0.235228
  8 6.890240 0.000002 -0.000000 -0.001918 0.084981 -0.354120
  9 8.011925 0.000004 0.000005 0.000354 0.148445 -0.167031
 10 7.210720 -0.000002 -0.000000 -0.022510 0.117000 -0.465736
 11 7.811473 -0.304903 -0.000000 -0.121840 -0.163434 0.669258
 12 22.523008 2.194031 6.355708 0.000000 -0.000000 0.000000
 13 22.523005 2.194038 -6.355709 0.000000 -0.000000 0.000000
 14 -3.006533 7.804720 -11.355459 0.350594 0.704782 0.562963
 15 10.384675 0.000008 0.000005 -0.494957 -0.040536 -0.936028
 16 22.550743 -0.000006 -0.000004 0.204429 -0.458830 1.223172
 17 30.814247 -0.000015 -0.000004 2.409318 -0.155826 0.794627
 18 -3.013796 7.815494 11.355459 0.423249 -0.802383 0.076227
 19 10.374533 -0.000002 0.000007 -0.233941 -0.542797 -0.969323
 20 22.550726 -0.000027 -0.000013 0.015100 0.097076 1.706903
 21 30.814270 -0.000023 0.000002 -2.287421 -0.069704 0.800947
 22 -4.250660 -0.770624 0.000001 0.053116 -0.086465 3.112382
 23 10.363422 0.000000 0.000000 -0.007215 0.058225 -0.153706
 24 10.363076 0.000000 -0.000000 -0.001510 0.061454 0.021112
 25 10.363081 -0.000004 -0.000002 0.034870 0.050224 -0.020398
 26 8.210358 -0.000006 -7.786025 0.000000 0.000000 -0.015117
 27 8.210346 -0.000002 7.704017 0.000000 0.000000 -0.015191
 28 1.854841 1.227791 -13.762345 3.114391 -0.108428 2.032504
 29 10.456543 -0.000004 0.000004 -0.294945 0.092548 -1.498766
 30 24.248093 0.000001 0.000007 0.058900 0.023592 1.219189
 31 26.336971 0.000019 0.000002 -0.344420 -0.367920 0.773657
 32 1.854847 1.227798 13.762341 -2.915731 -0.157195 2.352462
 33 10.456542 -0.000008 0.000004 0.333083 0.316363 -1.015825
 34 24.248116 0.000002 -0.000004 -0.408244 -0.187212 1.823891
 35 26.336975 0.000000 0.000004 -0.020929 0.553337 0.253333
time 7
  0 0.000000 0.000000 0.000000 0.000000 -0.000000 -1.570796
  1 0.000000 0.000000 0.000000 0.000000 -0.000000 0.000000
  2 0.898465 -2.951586 25.554960 -1.553829 0.001992 1.552966
  3 4.222169 -0.467508 0.000000 -0.006335 0.006414 -0.094933
  4 4.476987 -0.000002 -0.000000 -0.011878 -0.030466 0.135262
  5 4.477083 0.000000 0.000002 -0.024099 0.006303 0.091250
  6 4.477077 -0.000004 -0.000002 -0.022380 -0.023224 -0.016634
  7 5.413502 -7.700466 -0.000000 -0.009450 -0.098294 0.246616
  8 6.890240 0.000002 -0.000000 -0.002349 0.094692 -0.372714
  9 8.011925 0.000004 0.000005 0.000393 0.158030 -0.167134
 10 7.210720 -0.000002 -0.000000 -0.022537 0.100422 -0.467157
 11 7.811473 -0.304903 -0.000000 -0.118740 -0.186054 0.670099
 12 22.523008 2.194031 6.355708 0.000000 -0.000000 0.000000
 13 22.523005 2.194038 -6.355709 0.000000 -0.000000 0.000000
 14 -3.006533 7.804720 -11.355459 0.277343 0.805968 0.338058
 15 10.384675 0.000008 0.000005 -0.505901 -0.051675 -0.562081
 16 22.550743 -0.000006 -0.000004 0.312283 -0.370842 0.901258
 17 30.814247 -0.000015 -0.000004 2.333230 -0.146265 0.915098
 18 -3.013796 7.815494 11.355459 0.396164 -0.936158 0.044535
 19 10.374533 -0.000002 0.000007 -0.317125 -0.420472 -0.811661
 20 22.550726 -0.000027 -0.000013 -0.009126 0.101296 1.483197
 21 30.814270 -0.000023 0.000002 -2.217471 -0.058303 0.872851
 22 -4.250660 -0.770624 0.000001 0.045709 -0.077366 -3.126941
 23 10.363422 0.000000 0.000000 -0.003907 0.056068 -0.104302
 24 10.363076 0.000000 -0.000000 0.001930 0.049170 -0.016338
 25 10.363081 -0.000004 -0.000002 0.035596 0.049669 -0.056534
 26 8.210358 -0.000006 -7.786025 0.000000 0.000000 -0.025681
 27 8.210346 -0.000002 7.704017 0.000000 0.000000 -0.025805
 28 1.854841 1.227791 -13.762345 3.081410 -0.220020 2.112483
 29 10.456543 -0.000004 0.000004 -0.318564 0.118492 -1.355960
 30 24.248093 0.000001 0.000007 0.067352 0.020384 1.160165
 31 26.336971 0.000019 0.000002 -0.398104 -0.475189 0.798067
 32 1.854847 1.227798 13.762341 -2.835307 0.062494 2.310070
 33 10.456542 -0.000008 0.000004 0.269596 0.290816 -1.146512
 34 24.248116 0.000002 -0.000004 -0.448364 -0.179206 1.848770
 35 26.336975 0.000000 0.000004 0.163039 0.686016 0.326974
time 8
  0 0.000000 0.000000 0.000000 0.000000 -0.000000 -1.570796
  1 0.000000 0.000000 0.000000 0.000000 -0.000000 0.000000
  2 0.355480 -2.951586 24.871346 -1.570797 0.000436 1.567825
  3 4.222169 -0.467508 0.000000 -0.003662 0.006061 -0.094074
  4 4.476987 -0.000002 -0.000000 -0.006221 -0.014616 0.128758
  5 4.477083 0.000000 0.000002 -0.019078 0.024298 0.103537
  6 4.477077 -0.000004 -0.000002 -0.022572 -0.017699 -0.000640
  7 5.413502 -7.700466 -0.000000 -0.009902 -0.091005 0.251159
  8 6.890240 0.000002 -0.000000 -0.002253 0.094456 -0.377880
  9 8.011925 0.000004 0.000005 0.000432 0.157694 -0.167160
 10 7.210720 -0.000002 -0.000000 -0.022483 0.079041 -0.467640
 11 7.811473 -0.304903 -0.000000 -0.109670 -0.193685 0.670274
 12 22.523008 2.194031 6.355708 0.000000 -0.000000 0.000000
 13 22.523005 2.194038 -6.355709 0.000000 -0.000000 0.000000
 14 -3.006533 7.804720 -11.355459 0.245113 0.845962 0.202703
 15 10.384675 0.000008 0.000005 -0.508179 -0.044504 -0.326427
 16 22.550743 -0.000006 -0.000004 0.357830 -0.265780 0.641875
 17 30.814247 -0.000015 -0.000004 2.292957 -0.130653 1.040654
 18 -3.013796 7.815494 11.355459 0.345862 -1.030136 0.056277
 19 10.374533 -0.000002 0.000007 -0.359863 -0.337316 -0.690124
 20 22.550726 -0.000027 -0.000013 -0.034435 0.099510 1.249193
 21 30.814270 -0.000023 0.000002 -2.164219 -0.070854 0.970136
 22 -4.250660 -0.770624 0.000001 0.039202 -0.068186 -3.097007
 23 10.363422 0.000000 0.000000 -0.000971 0.053791 -0.062138
 24 10.363076 0.000000 -0.000000 0.005753 0.037005 -0.043077
 25 10.363081 -0.000004 -0.000002 0.036557 0.048637 -0.081422
 26 8.210358 -0.000006 -7.786025 0.000000 0.000000 -0.040085
 27 8.210346 -0.000002 7.704017 0.000000 0.000000 -0.040318
 28 1.854841 1.227791 -13.762345 3.010745 -0.326924 2.177865
 29 10.456543 -0.000004 0.000004 -0.319577 0.144152 -1.199650
 30 24.248093 0.000001 0.000007 0.076064 0.017155 1.091432
 31 26.336971 0.000019 0.000002 -0.443304 -0.581854 0.825238
 32 1.854847 1.227798 13.762341 -2.825583 0.242673 2.294345
 33 10.456542 -0.000008 0.000004 0.259761 0.274926 -1.163459
 34 24.248116 0.000002 -0.000004 -0.451887 -0.180704 1.800333
 35 26.336975 0.000000 0.000004 0.319691 0.806131 0.409150
time 9
  0 0.000000 0.000000 0.000000 0.000000 -0.000000 -1.570796
  1 0.000000 0.000000 0.000000 0.000000 -0.000000 0.000000
  2 -0.195318 -2.951586 24.328362 -1.587956 -0.001159 1.582780
  3 4.222169 -0.467508 0.000000 -0.001661 0.005450 -0.088033
  4 4.476987 -0.000002 -0.000000 -0.000625 0.000762 0.135439
  5 4.477083 0.000000 0.000002 -0.014356 0.043359 0.099195
  6 4.477077 -0.000004 -0.000002 -0.018485 -0.012362 -0.007414
  7 5.413502 -7.700466 -0.000000 -0.010195 -0.075950 0.254706
  8 6.890240 0.000002 -0.000000 -0.002289 0.090535 -0.379183
  9 8.011925 0.000004 0.000005 0.000419 0.148157 -0.167134
 10 7.210720 -0.000002 -0.000000 -0.022373 0.052259 -0.467130
 11 7.811473 -0.304903 -0.000000 -0.093297 -0.190083 0.669679
 12 22.523008 2.194031 6.355708 0.000000 -0.000000 0.000000
 13 22.523005 2.194038 -6.355709 0.000000 -0.000000 0.000000
 14 -3.006533 7.804720 -11.355459 0.228184 0.848965 0.108552
 15 10.384675 0.000008 0.000005 -0.496190 -0.034383 -0.210794
 16 22.550743 -0.000006 -0.000004 0.338463 -0.195040 0.504163
 17 30.814247 -0.000015 -0.000004 2.265134 -0.114446 1.152136
 18 -3.013796 7.815494 11.355459 0.278352 -1.092090 0.089964
 19 10.374533 -0.000002 0.000007 -0.388378 -0.260306 -0.574095
 20 22.550726 -0.000027 -0.000013 -0.057824 0.089439 0.997508
 21 30.814270 -0.000023 0.000002 -2.117737 -0.092361 1.071660
 22 -4.250660 -0.770624 0.000001 0.033940 -0.059569 -3.086739
 23 10.363422 0.000000 0.000000 0.001378 0.051586 -0.031154
 24 10.363076 0.000000 -0.000000 0.009444 0.025668 -0.053401
 25 10.363081 -0.000004 -0.000002 0.038687 0.046110 -0.087113
 26 8.210358 -0.000006 -7.786025 0.000000 0.000000 -0.059482
 27 8.210346 -0.000002 7.704017 0.000000 0.000000 -0.059816
 28 1.854841 1.227791 -13.762345 2.926844 -0.421393 2.242395
 29 10.456543 -0.000004 0.000004 -0.311768 0.168851 -1.049419
 30 24.248093 0.000001 0.000007 0.084813 0.014129 1.017253
 31 26.336971 0.000019 0.000002 -0.446176 -0.672725 0.837277
 32 1.854847 1.227798 13.762341 -2.826056 0.401591 2.285643
 33 10.456542 -0.000008 0.000004 0.267324 0.256503 -1.108677
 34 24.248116 0.000002 -0.000004 -0.440785 -0.184276 1.697518
 35 26.336975 0.000000 0.000004 0.487278 0.907355 0.516192
time 10
  0 0.000000 0.000000 0.000000 0.000000 -0.000000 -1.570796
  1 0.000000 0.000000 0.000000 0.000000 -0.000000 0.000000
  2 -0.804712 -2.951586 23.828346 -1.605307 -0.002795 1.597926
  3 4.222169 -0.467508 0.000000 0.000964 0.004819 -0.077713
  4 4.476987 -0.000002 -0.000000 0.005212 0.015626 0.152265
  5 4.477083 0.000000 0.000002 -0.009981 0.063067 0.081675
  6 4.477077 -0.000004 -0.000002 -0.011630 -0.007081 -0.030447
  7 5.413502 -7.700466 -0.000000 -0.010301 -0.055068 0.257195
  8 6.890240 0.000002 -0.000000 -0.002361 0.086484 -0.380487
  9 8.011925 0.000004 0.000005 0.000354 0.130232 -0.167083
 10 7.210720 -0.000002 -0.000000 -0.022208 0.019932 -0.465629
 11 7.811473 -0.304903 -0.000000 -0.069874 -0.183886 0.668136
 12 22.523008 2.194031 6.355708 0.000000 -0.000000 0.000000
 13 22.523005 2.194038 -6.355709 0.000000 -0.000000 0.000000
 14 -3.006533 7.804720 -11.355459 0.201488 0.838861 0.010350
 15 10.384675 0.000008 0.000005 -0.470156 -0.029801 -0.180692
 16 22.550743 -0.000006 -0.000004 0.278123 -0.177075 0.513001
 17 30.814247 -0.000015 -0.000004 2.265789 -0.100748 1.192568
 18 -3.013796 7.815494 11.355459 0.206361 -1.143769 0.125932
 19 10.374533 -0.000002 0.000007 -0.406376 -0.188479 -0.437830
 20 22.550726 -0.000027 -0.000013 -0.077516 0.072596 0.739186
 21 30.814270 -0.000023 0.000002 -2.081956 -0.121648 1.177173
 22 -4.250660 -0.770624 0.000001 0.029482 -0.050967 -3.090683
 23 10.363422 0.000000 0.000000 0.003236 0.049512 -0.009984
 24 10.363076 0.000000 -0.000000 0.012656 0.015433 -0.042689
 25 10.363081 -0.000004 -0.000002 0.041543 0.042552 -0.078012
 26 8.210358 -0.000006 -7.786025 0.000000 0.000000 -0.088832
 27 8.210346 -0.000002 7.704017 0.000000 0.000000 -0.089554
 28 1.854841 1.227791 -13.762345 2.836258 -0.486133 2.283814
 29 10.456543 -0.000004 0.000004 -0.293599 0.192446 -0.932448
 30 24.248093 0.000001 0.000007 0.093710 0.011506 0.937924
 31 26.336971 0.000019 0.000002 -0.433995 -0.752034 0.840481
 32 1.854847 1.227798 13.762341 -2.819810 0.483732 2.296801
 33 10.456542 -0.000008 0.000004 0.275666 0.242422 -1.057128
 34 24.248116 0.000002 -0.000004 -0.429554 -0.186397 1.611458
 35 26.336975 0.000000 0.000004 0.587753 0.967475 0.597294
time 11
  0 0.000000 0.000000 0.000000 0.000000 -0.000000 -1.570796
  1 0.000000 0.000000 0.000000 0.000000 -0.000000 0.000000
  2 -1.453169 -2.951586 23.363487 -1.622082 -0.004510 1.612498
  3 4.222169 -0.467508 0.000000 0.005602 0.003948 -0.050266
  4 4.476987 -0.000002 -0.000000 0.011456 0.029826 0.176416
  5 4.477083 0.000000 0.000002 -0.005871 0.082774 0.054344
  6 4.477077 -0.000004 -0.000002 -0.003241 -0.001800 -0.063804
  7 5.413502 -7.700466 -0.000000 -0.010261 -0.030142 0.258751
  8 6.890240 0.000002 -0.000000 -0.002445 0.082118 -0.381580
  9 8.011925 0.000004 0.000005 0.000262 0.106301 -0.166953
 10 7.210720 -0.000002 -0.000000 -0.022071 -0.015872 -0.463322
 11 7.811473 -0.304903 -0.000000 -0.041744 -0.173933 0.665893
 12 22.523008 2.194031 6.355708 0.000000 -0.000000 0.000000
 13 22.523005 2.194038 -6.355709 0.000000 -0.000000 0.000000
 14 -3.006533 7.804720 -11.355459 0.140500 0.800598 -0.113400
 15 10.384675 0.000008 0.000005 -0.428136 -0.027658 -0.201908
 16 22.550743 -0.000006 -0.000004 0.199087 -0.193978 0.642117
 17 30.814247 -0.000015 -0.000004 2.292783 -0.082095 1.169720
 18 -3.013796 7.815494 11.355459 0.158910 -1.179978 0.128440
 19 10.374533 -0.000002 0.000007 -0.416285 -0.117814 -0.279994
 20 22.550726 -0.000027 -0.000013 -0.091202 0.048292 0.467463
 21 30.814270 -0.000023 0.000002 -2.050944 -0.155413 1.286535
 22 -4.250660 -0.770624 0.000001 0.025180 -0.041323 -3.095727
 23 10.363422 0.000000 0.000000 0.004734 0.047595 0.004122
 24 10.363076 0.000000 -0.000000 0.016335 0.004922 -0.013137
 25 10.363081 -0.000004 -0.000002 0.044781 0.038377 -0.057930
 26 8.210358 -0.000006 -7.786025 0.000000 0.000000 -0.131362
 27 8.210346 -0.000002 7.704017 0.000000 0.000000 -0.132856
 28 1.854841 1.227791 -13.762345 2.746333 -0.532418 2.313799
 29 10.456543 -0.000004 0.000004 -0.272880 0.214601 -0.834841
 30 24.248093 0.000001 0.000007 0.101569 0.009226 0.868658
 31 26.336971 0.000019 0.000002 -0.408501 -0.818598 0.833025
 32 1.854847 1.227798 13.762341 -2.802726 0.474785 2.321141
 33 10.456542 -0.000008 0.000004 0.286722 0.255251 -1.068715
 34 24.248116 0.000002 -0.000004 -0.426082 -0.185582 1.646491
 35 26.336975 0.000000 0.000004 0.601862 0.998496 0.614983
time 12
  0 0.000000 0.000000 0.000000 0.000000 -0.000000 -1.570796
  1 0.000000 0.000000 0.000000 0.000000 -0.000000 0.000000
  2 -2.086001 -2.951586 22.949411 -1.637708 -0.006385 1.625919
  3 4.222169 -0.467508 0.000000 0.010551 0.002892 -0.019568
  4 4.476987 -0.000002 -0.000000 0.018179 0.043255 0.205028
  5 4.477083 0.000000 0.000002 -0.001760 0.101900 0.020417
  6 4.477077 -0.000004 -0.000002 0.005508 0.003386 -0.101506
  7 5.413502 -7.700466 -0.000000 -0.010115 -0.002939 0.259529
  8 6.890240 0.000002 -0.000000 -0.002541 0.077413 -0.382488
  9 8.011925 0.000004 0.000005 0.000223 0.079494 -0.166771
 10 7.210720 -0.000002 -0.000000 -0.021961 -0.052294 -0.460372
 11 7.811473 -0.304903 -0.000000 -0.011317 -0.159388 0.663229
 12 22.523008 2.194031 6.355708 0.000000 -0.000000 0.000000
 13 22.523005 2.194038 -6.355709 0.000000 -0.000000 0.000000
 14 -3.006533 7.804720 -11.355459 0.080380 0.749334 -0.235844
 15 10.384675 0.000008 0.000005 -0.369046 -0.022439 -0.247506
 16 22.550743 -0.000006 -0.000004 0.115381 -0.219117 0.834369
 17 30.814247 -0.000015 -0.000004 2.334714 -0.054917 1.128679
 18 -3.013796 7.815494 11.355459 0.104383 -1.210768 0.138871
 19 10.374533 -0.000002 0.000007 -0.414600 -0.060672 -0.151730
 20 22.550726 -0.000027 -0.000013 -0.096207 0.025913 0.247169
 21 30.814270 -0.000023 0.000002 -2.026283 -0.191624 1.372301
 22 -4.250660 -0.770624 0.000001 0.021249 -0.031485 -3.102794
 23 10.363422 0.000000 0.000000 0.005932 0.045821 0.013805
 24 10.363076 0.000000 -0.000000 0.021500 -0.007338 0.024623
 25 10.363081 -0.000004 -0.000002 0.047994 0.033986 -0.030627
 26 8.210358 -0.000006 -7.786025 0.000000 0.000000 -0.180721
 27 8.210346 -0.000002 7.704017 0.000000 0.000000 -0.183110
 28 1.854841 1.227791 -13.762345 2.671094 -0.549738 2.315319
 29 10.456543 -0.000004 0.000004 -0.260266 0.239442 -0.789729
 30 24.248093 0.000001 0.000007 0.104906 0.006925 0.848530
 31 26.336971 0.000019 0.000002 -0.366303 -0.868448 0.810272
 32 1.854847 1.227798 13.762341 -2.779834 0.393219 2.355649
 33 10.456542 -0.000008 0.000004 0.299847 0.292096 -1.133309
 34 24.248116 0.000002 -0.000004 -0.426950 -0.180752 1.778856
 35 26.336975 0.000000 0.000004 0.579048 1.016985 0.606958
time 13
  0 0.000000 0.000000 0.000000 0.000000 -0.000000 -1.570796
  1 0.000000 0.000000 0.000000 0.000000 -0.000000 0.000000
  2 -2.660237 -2.951586 22.601746 -1.650553 -0.007941 1.637039
  3 4.222169 -0.467508 0.000000 0.015249 0.001798 0.009336
  4 4.476987 -0.000002 -0.000000 0.025406 0.055891 0.235483
  5 4.477083 0.000000 0.000002 0.002626 0.119717 -0.016207
  6 4.477077 -0.000004 -0.000002 0.013549 0.008272 -0.137651
  7 5.413502 -7.700466 -0.000000 -0.009942 0.024841 0.259684
  8 6.890240 0.000002 -0.000000 -0.002649 0.072355 -0.383163
  9 8.011925 0.000004 0.000005 0.000223 0.050579 -0.166511
 10 7.210720 -0.000002 -0.000000 -0.021906 -0.086598 -0.457020
 11 7.811473 -0.304903 -0.000000 0.019179 -0.139414 0.660390
 12 22.523008 2.194031 6.355708 0.000000 -0.000000 0.000000
 13 22.523005 2.194038 -6.355709 0.000000 -0.000000 0.000000
 14 -3.006533 7.804720 -11.355459 0.032198 0.694466 -0.340639
 15 10.384675 0.000008 0.000005 -0.298190 -0.012955 -0.301712
 16 22.550743 -0.000006 -0.000004 0.034203 -0.235303 1.040423
 17 30.814247 -0.000015 -0.000004 2.402723 -0.009682 1.072956
 18 -3.013796 7.815494 11.355459 -0.000803 -1.237635 0.208810
 19 10.374533 -0.000002 0.000007 -0.403882 -0.063329 -0.168082
 20 22.550726 -0.000027 -0.000013 -0.093184 0.027424 0.270433
 21 30.814270 -0.000023 0.000002 -2.020214 -0.221646 1.353112
 22 -4.250660 -0.770624 0.000001 0.017893 -0.022194 -3.112473
 23 10.363422 0.000000 0.000000 0.006915 0.044227 0.021001
 24 10.363076 0.000000 -0.000000 0.026822 -0.019646 0.065325
 25 10.363081 -0.000004 -0.000002 0.050888 0.029826 0.000248
 26 8.210358 -0.000006 -7.786025 0.000000 0.000000 -0.230894
 27 8.210346 -0.000002 7.704017 0.000000 0.000000 -0.234041
 28 1.854841 1.227791 -13.762345 2.608388 -0.546210 2.295856
 29 10.456543 -0.000004 0.000004 -0.264005 0.270689 -0.804969
 30 24.248093 0.000001 0.000007 0.104276 0.004968 0.870553
 31 26.336971 0.000019 0.000002 -0.304702 -0.893281 0.766588
 32 1.854847 1.227798 13.762341 -2.759847 0.253016 2.404159
 33 10.456542 -0.000008 0.000004 0.313073 0.337123 -1.197786
 34 24.248116 0.000002 -0.000004 -0.426937 -0.173705 1.927925
 35 26.336975 0.000000 0.000004 0.492982 1.007151 0.571522
time 14
  0 0.000000 0.000000 0.000000 0.000000 -0.000000 -1.570796
  1 0.000000 0.000000 0.000000 0.000000 -0.000000 0.000000
  2 -3.125095 -2.951586 22.336113 -1.659181 -0.008738 1.644516
  3 4.222169 -0.467508 0.000000 0.019683 0.000667 0.036522
  4 4.476987 -0.000002 -0.000000 0.032860 0.067457 0.264295
  5 4.477083 0.000000 0.000002 0.006246 0.134304 -0.046488
  6 4.477077 -0.000004 -0.000002 0.019805 0.012426 -0.166056
  7 5.413502 -7.700466 -0.000000 -0.009769 0.051398 0.259342
  8 6.890240 0.000002 -0.000000 -0.002756 0.066931 -0.383628
  9 8.011925 0.000004 0.000005 0.000249 0.020417 -0.166200
 10 7.210720 -0.000002 -0.000000 -0.021879 -0.115905 -0.453427
 11 7.811473 -0.304903 -0.000000 0.047355 -0.113191 0.657656
 12 22.523008 2.194031 6.355708 0.000000 -0.000000 0.000000
 13 22.523005 2.194038 -6.355709 0.000000 -0.000000 0.000000
 14 -3.006533 7.804720 -11.355459 -0.006272 0.643060 -0.406978
 15 10.384675 0.000008 0.000005 -0.197193 0.002109 -0.372858
 16 22.550743 -0.000006 -0.000004 -0.034725 -0.245950 1.249261
 17 30.814247 -0.000015 -0.000004 2.486543 0.050537 1.012792
 18 -3.013796 7.815494 11.355459 -0.130223 -1.255273 0.310955
 19 10.374533 -0.000002 0.000007 -0.382985 -0.121369 -0.329107
 20 22.550726 -0.000027 -0.000013 -0.081499 0.050825 0.535952
 21 30.814270 -0.000023 0.000002 -2.032597 -0.240877 1.230808
 22 -4.250660 -0.770624 0.000001 0.015328 -0.014218 -3.125302
 23 10.363422 0.000000 0.000000 0.007658 0.042897 0.025776
 24 10.363076 0.000000 -0.000000 0.031268 -0.030132 0.103420
 25 10.363081 -0.000004 -0.000002 0.053202 0.026406 0.030773
 26 8.210358 -0.000006 -7.786025 0.000000 0.000000 -0.275633
 27 8.210346 -0.000002 7.704017 0.000000 0.000000 -0.279073
 28 1.854841 1.227791 -13.762345 2.563974 -0.513494 2.248356
 29 10.456543 -0.000004 0.000004 -0.291905 0.306545 -0.877262
 30 24.248093 0.000001 0.000007 0.099419 0.003112 0.934490
 31 26.336971 0.000019 0.000002 -0.236662 -0.909863 0.714841
 32 1.854847 1.227798 13.762341 -2.753634 0.073384 2.462405
 33 10.456542 -0.000008 0.000004 0.329929 0.388551 -1.232467
 34 24.248116 0.000002 -0.000004 -0.421432 -0.165388 2.050948
 35 26.336975 0.000000 0.000004 0.365533 0.968840 0.534786
time 15
  0 0.000000 0.000000 0.000000 0.000000 -0.000000 -1.570796
  1 0.000000 0.000000 0.000000 0.000000 -0.000000 0.000000
  2 -3.433699 -2.951586 22.164232 -1.663878 -0.009018 1.648638
  3 4.222169 -0.467508 0.000000 0.022620 -0.000482 0.054294
  4 4.476987 -0.000002 -0.000000 0.038265 0.075061 0.282231
  5 4.477083 0.000000 0.000002 0.007888 0.143786 -0.062777
  6 4.477077 -0.000004 -0.000002 0.023581 0.015432 -0.182252
  7 5.413502 -7.700466 -0.000000 -0.009636 0.074795 0.258658
  8 6.890240 0.000002 -0.000000 -0.002864 0.062082 -0.383884
  9 8.011925 0.000004 0.000005 0.000288 -0.009889 -0.165863
 10 7.210720 -0.000002 -0.000000 -0.021824 -0.137250 -0.449887
 11 7.811473 -0.304903 -0.000000 0.070755 -0.080140 0.655203
 12 22.523008 2.194031 6.355708 0.000000 -0.000000 0.000000
 13 22.523005 2.194038 -6.355709 0.000000 -0.000000 0.000000
 14 -3.006533 7.804720 -11.355459 -0.036224 0.618117 -0.422429
 15 10.384675 0.000008 0.000005 -0.043305 0.022795 -0.465942
 16 22.550743 -0.000006 -0.000004 -0.094330 -0.249106 1.454770
 17 30.814247 -0.000015 -0.000004 2.597750 0.136524 0.956102
 18 -3.013796 7.815494 11.355459 -0.213465 -1.244810 0.383345
 19 10.374533 -0.000002 0.000007 -0.346651 -0.192864 -0.538608
 20 22.550726 -0.000027 -0.000013 -0.059315 0.074657 0.890867
 21 30.814270 -0.000023 0.000002 -2.059013 -0.249392 1.080362
 22 -4.250660 -0.770624 0.000001 0.013794 -0.008345 3.141470
 23 10.363422 0.000000 0.000000 0.008090 0.041926 0.027360
 24 10.363076 0.000000 -0.000000 0.034012 -0.036772 0.133204
 25 10.363081 -0.000004 -0.000002 0.054717 0.024265 0.057325
 26 8.210358 -0.000006 -7.786025 0.000000 0.000000 -0.308550
 27 8.210346 -0.000002 7.704017 0.000000 0.000000 -0.311592
 28 1.854841 1.227791 -13.762345 2.526113 -0.458056 2.186623
 29 10.456543 -0.000004 0.000004 -0.345538 0.336636 -1.000529
 30 24.248093 0.000001 0.000007 0.089558 0.001659 1.038684
 31 26.336971 0.000019 0.000002 -0.158790 -0.915697 0.662818
 32 1.854847 1.227798 13.762341 -2.767882 -0.106056 2.517376
 33 10.456542 -0.000008 0.000004 0.353668 0.441703 -1.241098
 34 24.248116 0.000002 -0.000004 -0.408918 -0.160414 2.119694
 35 26.336975 0.000000 0.000004 0.239843 0.917437 0.519583
time 16
  0 0.000000 0.000000 0.000000 0.000000 -0.000000 -1.570796
  1 0.000000 0.000000 0.000000 0.000000 -0.000000 0.000000
  2 -3.488388 -2.951586 22.136887 -1.664837 -0.008858 1.649406
  3 4.222169 -0.467508 0.000000 0.023063 -0.001613 0.056211
  4 4.476987 -0.000002 -0.000000 0.039464 0.076281 0.282985
  5 4.477083 0.000000 0.000002 0.008139 0.148292 -0.066942
  6 4.477077 -0.000004 -0.000002 0.024851 0.017218 -0.185990
  7 5.413502 -7.700466 -0.000000 -0.009570 0.093349 0.257755
  8 6.890240 0.000002 -0.000000 -0.002864 0.049012 -0.383838
  9 8.011925 0.000004 0.000005 0.000327 -0.039603 -0.165499
 10 7.210720 -0.000002 -0.000000 -0.021686 -0.148108 -0.446562
 11 7.811473 -0.304903 -0.000000 0.087220 -0.039321 0.652890
 12 22.523008 2.194031 6.355708 0.000000 -0.000000 0.000000
 13 22.523005 2.194038 -6.355709 0.000000 -0.000000 0.000000
 14 -3.006533 7.804720 -11.355459 -0.052882 0.642848 -0.368109
 15 10.384675 0.000008 0.000005 0.190738 0.047937 -0.578354
 16 22.550743 -0.000006 -0.000004 -0.134440 -0.246839 1.635158
 17 30.814247 -0.000015 -0.000004 2.746259 0.260317 0.913164
 18 -3.013796 7.815494 11.355459 -0.213465 -1.202884 0.385967
 19 10.374533 -0.000002 0.000007 -0.296296 -0.254625 -0.749791
 20 22.550726 -0.000027 -0.000013 -0.031555 0.087260 1.256576
 21 30.814270 -0.000023 0.000002 -2.109529 -0.242198 0.924115
 22 -4.250660 -0.770624 0.000001 0.013555 -0.005296 3.120909
 23 10.363422 0.000000 0.000000 0.008162 0.041423 0.025138
 24 10.363076 0.000000 -0.000000 0.034743 -0.038306 0.151400
 25 10.363081 -0.000004 -0.000002 0.055492 0.023340 0.081461
 26 8.210358 -0.000006 -7.786025 0.000000 0.000000 -0.323768
 27 8.210346 -0.000002 7.704017 0.000000 0.000000 -0.325426
 28 1.854841 1.227791 -13.762345 2.485570 -0.375701 2.117409
 29 10.456543 -0.000004 0.000004 -0.415803 0.349982 -1.156318
 30 24.248093 0.000001 0.000007 0.077992 0.001074 1.142523
 31 26.336971 0.000019 0.000002 -0.061081 -0.886160 0.625375
 32 1.854847 1.227798 13.762341 -2.814239 -0.247654 2.559036
 33 10.456542 -0.000008 0.000004 0.391957 0.492157 -1.214496
 34 24.248116 0.000002 -0.000004 -0.393347 -0.160091 2.141831
 35 26.336975 0.000000 0.000004 0.137395 0.866313 0.519301
time 17
  0 0.000000 0.000000 0.000000 0.000000 -0.000000 -1.570796
  1 0.000000 0.000000 0.000000 0.000000 -0.000000 0.000000
  2 -3.382916 -2.951586 22.191576 -1.662249 -0.008379 1.647201
  3 4.222169 -0.467508 0.000000 0.021613 -0.002744 0.046045
  4 4.476987 -0.000002 -0.000000 0.037223 0.072276 0.270222
  5 4.477083 0.000000 0.000002 0.007420 0.147905 -0.060746
  6 4.477077 -0.000004 -0.000002 0.023820 0.017875 -0.178655
  7 5.413502 -7.700466 -0.000000 -0.009583 0.105855 0.256759
  8 6.890240 0.000002 -0.000000 -0.002661 0.017422 -0.383558
  9 8.011925 0.000004 0.000005 0.000393 -0.067800 -0.165162
 10 7.210720 -0.000002 -0.000000 -0.021549 -0.150350 -0.442861
 11 7.811473 -0.304903 -0.000000 0.097806 0.008310 0.650366
 12 22.523008 2.194031 6.355708 0.000000 -0.000000 0.000000
 13 22.523005 2.194038 -6.355709 0.000000 -0.000000 0.000000
 14 -3.006533 7.804720 -11.355459 -0.032697 0.691357 -0.223140
 15 10.384675 0.000008 0.000005 0.481144 0.089097 -0.700152
 16 22.550743 -0.000006 -0.000004 -0.151504 -0.244945 1.771357
 17 30.814247 -0.000015 -0.000004 2.927659 0.413827 0.895724
 18 -3.013796 7.815494 11.355459 -0.202214 -1.139360 0.377075
 19 10.374533 -0.000002 0.000007 -0.237514 -0.296219 -0.949898
 20 22.550726 -0.000027 -0.000013 -0.006654 0.087319 1.586365
 21 30.814270 -0.000023 0.000002 -2.176672 -0.236179 0.772693
 22 -4.250660 -0.770624 0.000001 0.014969 -0.005777 3.095635
 23 10.363422 0.000000 0.000000 0.007826 0.041483 0.018470
 24 10.363076 0.000000 -0.000000 0.033749 -0.035154 0.159685
 25 10.363081 -0.000004 -0.000002 0.055714 0.023263 0.106321
 26 8.210358 -0.000006 -7.786025 0.000000 0.000000 -0.315038
 27 8.210346 -0.000002 7.704017 0.000000 0.000000 -0.314033
 28 1.854841 1.227791 -13.762345 2.444542 -0.280565 2.047952
 29 10.456543 -0.000004 0.000004 -0.482206 0.348167 -1.309197
 30 24.248093 0.000001 0.000007 0.067241 0.001195 1.215281
 31 26.336971 0.000019 0.000002 0.041457 -0.820043 0.620791
 32 1.854847 1.227798 13.762341 -2.886999 -0.348921 2.594492
 33 10.456542 -0.000008 0.000004 0.439538 0.539911 -1.170474
 34 24.248116 0.000002 -0.000004 -0.379136 -0.162320 2.146400
 35 26.336975 0.000000 0.000004 0.070541 0.821549 0.525800
time 18
  0 0.000000 0.000000 0.000000 0.000000 -0.000000 -1.570796
  1 0.000000 0.000000 0.000000 0.000000 -0.000000 0.000000
  2 -3.121189 -2.951586 22.336113 -1.656497 -0.007701 1.642216
  3 4.222169 -0.467508 0.000000 0.018952 -0.003875 0.027798
  4 4.476987 -0.000002 -0.000000 0.032525 0.064095 0.247714
  5 4.477083 0.000000 0.000002 0.005946 0.142768 -0.045762
  6 4.477077 -0.000004 -0.000002 0.020656 0.017593 -0.161416
  7 5.413502 -7.700466 -0.000000 -0.009636 0.112498 0.255764
  8 6.890240 0.000002 -0.000000 -0.002457 -0.019330 -0.383302
  9 8.011925 0.000004 0.000005 0.000458 -0.093569 -0.164798
 10 7.210720 -0.000002 -0.000000 -0.021522 -0.147631 -0.438463
 11 7.811473 -0.304903 -0.000000 0.105085 0.058809 0.647562
 12 22.523008 2.194031 6.355708 0.000000 -0.000000 0.000000
 13 22.523005 2.194038 -6.355709 0.000000 -0.000000 0.000000
 14 -3.006533 7.804720 -11.355459 0.030516 0.693865 -0.007299
 15 10.384675 0.000008 0.000005 0.750821 0.151962 -0.810231
 16 22.550743 -0.000006 -0.000004 -0.153775 -0.246696 1.854832
 17 30.814247 -0.000015 -0.000004 3.126312 0.573168 0.907148
 18 -3.013796 7.815494 11.355459 -0.222528 -1.036937 0.390698
 19 10.374533 -0.000002 0.000007 -0.177182 -0.316718 -1.137945
 20 22.550726 -0.000027 -0.000013 0.009973 0.080291 1.849527
 21 30.814270 -0.000023 0.000002 -2.260409 -0.245770 0.648465
 22 -4.250660 -0.770624 0.000001 0.018229 -0.010078 3.065805
 23 10.363422 0.000000 0.000000 0.007023 0.042202 0.006719
 24 10.363076 0.000000 -0.000000 0.031519 -0.028491 0.161776
 25 10.363081 -0.000004 -0.000002 0.055468 0.023926 0.131101
 26 8.210358 -0.000006 -7.786025 0.000000 0.000000 -0.276210
 27 8.210346 -0.000002 7.704017 0.000000 0.000000 -0.270968
 28 1.854841 1.227791 -13.762345 2.408572 -0.181235 1.987253
 29 10.456543 -0.000004 0.000004 -0.521549 0.338558 -1.426125
 30 24.248093 0.000001 0.000007 0.059752 0.001659 1.226411
 31 26.336971 0.000019 0.000002 0.137339 -0.730748 0.646747
 32 1.854847 1.227798 13.762341 -2.973095 -0.431390 2.631240
 33 10.456542 -0.000008 0.000004 0.488612 0.588027 -1.121368
 34 24.248116 0.000002 -0.000004 -0.368371 -0.166934 2.139445
 35 26.336975 0.000000 0.000004 0.018266 0.779918 0.535917
time 19
  0 0.000000 0.000000 0.000000 0.000000 -0.000000 -1.570796
  1 0.000000 0.000000 0.000000 0.000000 -0.000000 0.000000
  2 -2.656331 -2.951586 22.601746 -1.647678 -0.006824 1.634547
  3 4.222169 -0.467508 0.000000 0.015549 -0.005117 0.004506
  4 4.476987 -0.000002 -0.000000 0.026353 0.052700 0.219101
  5 4.477083 0.000000 0.000002 0.003825 0.132963 -0.023529
  6 4.477077 -0.000004 -0.000002 0.015419 0.016579 -0.135331
  7 5.413502 -7.700466 -0.000000 -0.009703 0.114062 0.254861
  8 6.890240 0.000002 -0.000000 -0.002325 -0.050032 -0.382977
  9 8.011925 0.000004 0.000005 0.000511 -0.116094 -0.164487
 10 7.210720 -0.000002 -0.000000 -0.021604 -0.140746 -0.433770
 11 7.811473 -0.304903 -0.000000 0.109724 0.107362 0.644583
 12 22.523008 2.194031 6.355708 0.000000 -0.000000 0.000000
 13 22.523005 2.194038 -6.355709 0.000000 -0.000000 0.000000
 14 -3.006533 7.804720 -11.355459 0.093131 0.636029 0.220284
 15 10.384675 0.000008 0.000005 0.962416 0.204961 -0.893707
 16 22.550743 -0.000006 -0.000004 -0.147154 -0.255678 1.883645
 17 30.814247 -0.000015 -0.000004 -2.959095 0.724923 0.934866
 18 -3.013796 7.815494 11.355459 -0.252057 -0.885376 0.412130
 19 10.374533 -0.000002 0.000007 -0.116918 -0.324126 -1.316481
 20 22.550726 -0.000027 -0.000013 0.021208 0.072242 2.054187
 21 30.814270 -0.000023 0.000002 -2.360599 -0.273932 0.545323
 22 -4.250660 -0.770624 0.000001 0.023178 -0.017380 3.033234
 23 10.363422 0.000000 0.000000 0.005645 0.043676 -0.010908
 24 10.363076 0.000000 -0.000000 0.028463 -0.019466 0.161363
 25 10.363081 -0.000004 -0.000002 0.054791 0.025235 0.154808
 26 8.210358 -0.000006 -7.786025 0.000000 0.000000 -0.215200
 27 8.210346 -0.000002 7.704017 0.000000 0.000000 -0.204303
 28 1.854841 1.227791 -13.762345 2.371019 -0.079932 1.926737
 29 10.456543 -0.000004 0.000004 -0.525707 0.329376 -1.497984
 30 24.248093 0.000001 0.000007 0.055860 0.002224 1.181655
 31 26.336971 0.000019 0.000002 0.227130 -0.625871 0.694960
 32 1.854847 1.227798 13.762341 -3.072358 -0.500561 2.667514
 33 10.456542 -0.000008 0.000004 0.539550 0.639427 -1.059729
 34 24.248116 0.000002 -0.000004 -0.360857 -0.173645 2.122283
 35 26.336975 0.000000 0.000004 -0.035852 0.734720 0.546768
time 20
  0 0.000000 0.000000 0.000000 0.000000 -0.000000 -1.570796
  1 0.000000 0.000000 0.000000 0.000000 -0.000000 0.000000
  2 -2.082095 -2.951586 22.953320 -1.636078 -0.005826 1.624385
  3 4.222169 -0.467508 0.000000 0.011618 -0.006452 -0.022328
  4 4.476987 -0.000002 -0.000000 0.019689 0.039207 0.188247
  5 4.477083 0.000000 0.000002 0.001128 0.118651 0.004306
  6 4.477077 -0.000004 -0.000002 0.008228 0.015132 -0.101553
  7 5.413502 -7.700466 -0.000000 -0.009743 0.111275 0.254084
  8 6.890240 0.000002 -0.000000 -0.002241 -0.072590 -0.382232
  9 8.011925 0.000004 0.000005 0.000576 -0.134322 -0.164201
 10 7.210720 -0.000002 -0.000000 -0.021714 -0.130241 -0.429318
 11 7.811473 -0.304903 -0.000000 0.112273 0.148864 0.641674
 12 22.523008 2.194031 6.355708 0.000000 -0.000000 0.000000
 13 22.523005 2.194038 -6.355709 0.000000 -0.000000 0.000000
 14 -3.006533 7.804720 -11.355459 0.126772 0.559363 0.425067
 15 10.384675 0.000008 0.000005 1.108571 0.220618 -0.959688
 16 22.550743 -0.000006 -0.000004 -0.133640 -0.278321 1.858343
 17 30.814247 -0.000015 -0.000004 -2.788440 0.860691 0.960149
 18 -3.013796 7.815494 11.355459 -0.273186 -0.698615 0.434132
 19 10.374533 -0.000002 0.000007 -0.063259 -0.325953 -1.466489
 20 22.550726 -0.000027 -0.000013 0.029379 0.066235 2.207295
 21 30.814270 -0.000023 0.000002 -2.467700 -0.316725 0.452361
 22 -4.250660 -0.770624 0.000001 0.029326 -0.026414 3.000817
 23 10.363422 0.000000 0.000000 0.003607 0.045977 -0.035049
 24 10.363076 0.000000 -0.000000 0.024940 -0.009052 0.161208
 25 10.363081 -0.000004 -0.000002 0.053769 0.027099 0.176205
 26 8.210358 -0.000006 -7.786025 0.000000 0.000000 -0.146988
 27 8.210346 -0.000002 7.704017 0.000000 0.000000 -0.129635
 28 1.854841 1.227791 -13.762345 2.329640 0.017647 1.870904
 29 10.456543 -0.000004 0.000004 -0.492671 0.324838 -1.516828
 30 24.248093 0.000001 0.000007 0.054785 0.002749 1.090840
 31 26.336971 0.000019 0.000002 0.314703 -0.508458 0.760624
 32 1.854847 1.227798 13.762341 3.104372 -0.557365 2.701807
 33 10.456542 -0.000008 0.000004 0.590896 0.689657 -0.988553
 34 24.248116 0.000002 -0.000004 -0.357982 -0.183029 2.094206
 35 26.336975 0.000000 0.000004 -0.092158 0.680711 0.555867
time 21
  0 0.000000 0.000000 0.000000 0.000000 -0.000000 -1.570796
  1 0.000000 0.000000 0.000000 0.000000 -0.000000 0.000000
  2 -1.449263 -2.951586 23.367393 -1.621987 -0.004710 1.612210
  3 4.222169 -0.467508 0.000000 0.007196 -0.008046 -0.052857
  4 4.476987 -0.000002 -0.000000 0.013350 0.024835 0.158813
  5 4.477083 0.000000 0.000002 -0.002120 0.099977 0.036188
  6 4.477077 -0.000004 -0.000002 -0.000820 0.013553 -0.061141
  7 5.413502 -7.700466 -0.000000 -0.009729 0.104903 0.253523
  8 6.890240 0.000002 -0.000000 -0.002181 -0.084144 -0.380812
  9 8.011925 0.000004 0.000005 0.000642 -0.147342 -0.163942
 10 7.210720 -0.000002 -0.000000 -0.021796 -0.116735 -0.425564
 11 7.811473 -0.304903 -0.000000 0.113375 0.178382 0.639080
 12 22.523008 2.194031 6.355708 0.000000 -0.000000 0.000000
 13 22.523005 2.194038 -6.355709 0.000000 -0.000000 0.000000
 14 -3.006533 7.804720 -11.355459 0.125579 0.495203 0.596544
 15 10.384675 0.000008 0.000005 1.189960 0.195137 -1.024280
 16 22.550743 -0.000006 -0.000004 -0.110930 -0.317436 1.789093
 17 30.814247 -0.000015 -0.000004 -2.679504 0.965424 0.956890
 18 -3.013796 7.815494 11.355459 -0.275630 -0.500345 0.449180
 19 10.374533 -0.000002 0.000007 -0.024971 -0.330040 -1.571849
 20 22.550726 -0.000027 -0.000013 0.034710 0.063428 2.308353
 21 30.814270 -0.000023 0.000002 -2.591253 -0.375006 0.372453
 22 -4.250660 -0.770624 0.000001 0.036098 -0.036027 2.971268
 23 10.363422 0.000000 0.000000 0.001294 0.048470 -0.062292
 24 10.363076 0.000000 -0.000000 0.021141 0.002250 0.161957
 25 10.363081 -0.000004 -0.000002 0.052427 0.029410 0.194219
 26 8.210358 -0.000006 -7.786025 0.000000 0.000000 -0.080305
 27 8.210346 -0.000002 7.704017 0.000000 0.000000 -0.056594
 28 1.854841 1.227791 -13.762345 2.294681 0.116088 1.849799
 29 10.456543 -0.000004 0.000004 -0.417375 0.322276 -1.462858
 30 24.248093 0.000001 0.000007 0.055637 0.003213 0.958111
 31 26.336971 0.000019 0.000002 0.399753 -0.385737 0.837554
 32 1.854847 1.227798 13.762341 2.996836 -0.600487 2.725976
 33 10.456542 -0.000008 0.000004 0.636205 0.735909 -0.909652
 34 24.248116 0.000002 -0.000004 -0.357075 -0.194403 2.054959
 35 26.336975 0.000000 0.000004 -0.152409 0.621243 0.564910
time 22
  0 0.000000 0.000000 0.000000 0.000000 -0.000000 -1.570796
  1 0.000000 0.000000 0.000000 0.000000 -0.000000 0.000000
  2 -0.800806 -2.951586 23.832253 -1.606074 -0.003393 1.598310
  3 4.222169 -0.467508 0.000000 0.002761 -0.008843 -0.077821
  4 4.476987 -0.000002 -0.000000 0.007980 0.010807 0.134351
  5 4.477083 0.000000 0.000002 -0.006973 0.078509 0.057249
  6 4.477077 -0.000004 -0.000002 -0.008322 0.009043 -0.033312
  7 5.413502 -7.700466 -0.000000 -0.009623 0.095711 0.253275
  8 6.890240 0.000002 -0.000000 -0.002133 -0.089464 -0.378788
  9 8.011925 0.000004 0.000005 0.000694 -0.154339 -0.163786
 10 7.210720 -0.000002 -0.000000 -0.021879 -0.100863 -0.422962
 11 7.811473 -0.304903 -0.000000 0.113812 0.190878 0.637152
 12 22.523008 2.194031 6.355708 0.000000 -0.000000 0.000000
 13 22.523005 2.194038 -6.355709 0.000000 -0.000000 0.000000
 14 -3.006533 7.804720 -11.355459 0.106479 0.470648 0.735676
 15 10.384675 0.000008 0.000005 1.215695 0.137640 -1.094038
 16 22.550743 -0.000006 -0.000004 -0.081968 -0.359363 1.706648
 17 30.814247 -0.000015 -0.000004 -2.653297 1.024358 0.904283
 18 -3.013796 7.815494 11.355459 -0.245744 -0.289258 0.459668
 19 10.374533 -0.000002 0.000007 -0.006837 -0.342897 -1.618353
 20 22.550726 -0.000027 -0.000013 0.037938 0.064547 2.357549
 21 30.814270 -0.000023 0.000002 -2.730136 -0.447649 0.299433
 22 -4.250660 -0.770624 0.000001 0.042809 -0.045158 2.947173
 23 10.363422 0.000000 0.000000 -0.000947 0.050675 -0.089998
 24 10.363076 0.000000 -0.000000 0.017174 0.014187 0.163350
 25 10.363081 -0.000004 -0.000002 0.050802 0.032045 0.207911
 26 8.210358 -0.000006 -7.786025 0.000000 0.000000 -0.022794
 27 8.210346 -0.000002 7.704017 0.000000 0.000000 0.006409
 28 1.854841 1.227791 -13.762345 2.282500 0.222030 1.876743
 29 10.456543 -0.000004 0.000004 -0.303173 0.309641 -1.323525
 30 24.248093 0.000001 0.000007 0.057120 0.003737 0.800636
 31 26.336971 0.000019 0.000002 0.476667 -0.267510 0.917190
 32 1.854847 1.227798 13.762341 2.893318 -0.634498 2.740968
 33 10.456542 -0.000008 0.000004 0.684125 0.779850 -0.824563
 34 24.248116 0.000002 -0.000004 -0.356958 -0.208652 1.995605
 35 26.336975 0.000000 0.000004 -0.223466 0.554484 0.573161
time 23
  0 0.000000 0.000000 0.000000 0.000000 -0.000000 -1.570796
  1 0.000000 0.000000 0.000000 0.000000 -0.000000 0.000000
  2 -0.191412 -2.951586 24.328362 -1.588915 -0.001877 1.583355
  3 4.222169 -0.467508 0.000000 -0.000702 -0.006155 -0.075827
  4 4.476987 -0.000002 -0.000000 0.002887 -0.003479 0.123608
  5 4.477083 0.000000 0.000002 -0.013433 0.055927 0.059724
  6 4.477077 -0.000004 -0.000002 -0.012853 0.000887 -0.028360
  7 5.413502 -7.700466 -0.000000 -0.009410 0.084514 0.253523
  8 6.890240 0.000002 -0.000000 -0.002085 -0.093032 -0.376414
  9 8.011925 0.000004 0.000005 0.000760 -0.154387 -0.163682
 10 7.210720 -0.000002 -0.000000 -0.021988 -0.083455 -0.422050
 11 7.811473 -0.304903 -0.000000 0.110160 0.191646 0.636591
 12 22.523008 2.194031 6.355708 0.000000 -0.000000 0.000000
 13 22.523005 2.194038 -6.355709 0.000000 -0.000000 0.000000
 14 -3.006533 7.804720 -11.355459 0.086078 0.480541 0.828317
 15 10.384675 0.000008 0.000005 1.188167 0.074012 -1.160352
 16 22.550743 -0.000006 -0.000004 -0.051390 -0.398134 1.632071
 17 30.814247 -0.000015 -0.000004 -2.684790 1.024452 0.818334
 18 -3.013796 7.815494 11.355459 -0.202061 -0.081759 0.469415
 19 10.374533 -0.000002 0.000007 -0.008927 -0.371967 -1.596319
 20 22.550726 -0.000027 -0.000013 0.040389 0.068885 2.360154
 21 30.814270 -0.000023 0.000002 -2.868178 -0.527657 0.236901
 22 -4.250660 -0.770624 0.000001 0.048633 -0.052749 2.931374
 23 10.363422 0.000000 0.000000 -0.003152 0.052640 -0.118122
 24 10.363076 0.000000 -0.000000 0.013135 0.026447 0.165260
 25 10.363081 -0.000004 -0.000002 0.048906 0.034910 0.216154
 26 8.210358 -0.000006 -7.786025 0.000000 0.000000 0.017664
 27 8.210346 -0.000002 7.704017 0.000000 0.000000 0.050762
 28 1.854841 1.227791 -13.762345 2.310247 0.324715 1.939145
 29 10.456543 -0.000004 0.000004 -0.182559 0.272949 -1.144421
 30 24.248093 0.000001 0.000007 0.057936 0.004625 0.653284
 31 26.336971 0.000019 0.000002 0.536267 -0.161108 0.988652
 32 1.854847 1.227798 13.762341 2.809383 -0.656908 2.730241
 33 10.456542 -0.000008 0.000004 0.740151 0.814052 -0.727218
 34 24.248116 0.000002 -0.000004 -0.355196 -0.224592 1.920969
 35 26.336975 0.000000 0.000004 -0.302070 0.483631 0.584521
time 24
  0 0.000000 0.000000 0.000000 0.000000 -0.000000 -1.570796
  1 0.000000 0.000000 0.000000 0.000000 -0.000000 0.000000
  2 0.355480 -2.951586 24.875252 -1.571372 -0.000202 1.568112
  3 4.222169 -0.467508 0.000000 -0.004022 -0.002540 -0.066918
  4 4.476987 -0.000002 -0.000000 -0.002662 -0.018493 0.128958
  5 4.477083 0.000000 0.000002 -0.020648 0.033005 0.046755
  6 4.477077 -0.000004 -0.000002 -0.015669 -0.008603 -0.042111
  7 5.413502 -7.700466 -0.000000 -0.008945 0.067744 0.249821
  8 6.890240 0.000002 -0.000000 -0.001953 -0.095436 -0.373994
  9 8.011925 0.000004 0.000005 0.000812 -0.146543 -0.163656
 10 7.210720 -0.000002 -0.000000 -0.022098 -0.054042 -0.422345
 11 7.811473 -0.304903 -0.000000 0.100217 0.186559 0.637538
 12 22.523008 2.194031 6.355708 0.000000 -0.000000 0.000000
 13 22.523005 2.194038 -6.355709 0.000000 -0.000000 0.000000
 14 -3.006533 7.804720 -11.355459 0.067629 0.489621 0.867529
 15 10.384675 0.000008 0.000005 1.108123 0.032152 -1.216724
 16 22.550743 -0.000006 -0.000004 -0.026201 -0.434695 1.591817
 17 30.814247 -0.000015 -0.000004 -2.719558 0.970440 0.741482
 18 -3.013796 7.815494 11.355459 -0.138267 0.085795 0.455507
 19 10.374533 -0.000002 0.000007 -0.028004 -0.421169 -1.526736
 20 22.550726 -0.000027 -0.000013 0.042452 0.074048 2.340054
 21 30.814270 -0.000023 0.000002 -2.989942 -0.598318 0.202622
 22 -4.250660 -0.770624 0.000001 0.053991 -0.060516 2.922873
 23 10.363422 0.000000 0.000000 -0.005321 0.054450 -0.146906
 24 10.363076 0.000000 -0.000000 0.009132 0.038755 0.167532
 25 10.363081 -0.000004 -0.000002 0.046739 0.037868 0.217926
 26 8.210358 -0.000006 -7.786025 0.000000 0.000000 0.032577
 27 8.210346 -0.000002 7.704017 0.000000 0.000000 0.067140
 28 1.854841 1.227791 -13.762345 2.354353 0.415188 2.007628
 29 10.456543 -0.000004 0.000004 -0.093829 0.220437 -1.008128
 30 24.248093 0.000001 0.000007 0.056564 0.005937 0.558562
 31 26.336971 0.000019 0.000002 0.572854 -0.077936 1.038301
 32 1.854847 1.227798 13.762341 2.736893 -0.675268 2.706805
 33 10.456542 -0.000008 0.000004 0.800891 0.817864 -0.603074
 34 24.248116 0.000002 -0.000004 -0.343978 -0.243252 1.797236
 35 26.336975 0.000000 0.000004 -0.402417 0.404526 0.600063
time 25
  0 0.000000 0.000000 0.000000 0.000000 -0.000000 -1.570796
  1 0.000000 0.000000 0.000000 0.000000 -0.000000 0.000000
  2 0.902371 -2.951586 25.558867 -1.554021 0.001633 1.552870
  3 4.222169 -0.467508 0.000000 -0.008145 0.000204 -0.054605
  4 4.476987 -0.000002 -0.000000 -0.008798 -0.033764 0.146915
  5 4.477083 0.000000 0.000002 -0.027803 0.010438 0.022448
  6 4.477077 -0.000004 -0.000002 -0.018378 -0.016665 -0.068974
  7 5.413502 -7.700466 -0.000000 -0.008041 0.043990 0.239491
  8 6.890240 0.000002 -0.000000 -0.001702 -0.094509 -0.368409
  9 8.011925 0.000004 0.000005 0.000851 -0.130376 -0.163734
 10 7.210720 -0.000002 -0.000000 -0.022235 -0.010752 -0.423338
 11 7.811473 -0.304903 -0.000000 0.084395 0.176743 0.639606
 12 22.523008 2.194031 6.355708 0.000000 -0.000000 0.000000
 13 22.523005 2.194038 -6.355709 0.000000 -0.000000 0.000000
 14 -3.006533 7.804720 -11.355459 0.046902 0.470790 0.871581
 15 10.384675 0.000008 0.000005 0.987516 0.022986 -1.260378
 16 22.550743 -0.000006 -0.000004 -0.005091 -0.468300 1.568269
 17 30.814247 -0.000015 -0.000004 -2.744018 0.885393 0.683825
 18 -3.013796 7.815494 11.355459 -0.051817 0.195468 0.422561
 19 10.374533 -0.000002 0.000007 -0.053687 -0.477249 -1.452457
 20 22.550726 -0.000027 -0.000013 0.044352 0.079329 2.316852
 21 30.814270 -0.000023 0.000002 -3.086939 -0.635851 0.214672
 22 -4.250660 -0.770624 0.000001 0.059336 -0.069631 2.919108
 23 10.363422 0.000000 0.000000 -0.007526 0.056164 -0.176724
 24 10.363076 0.000000 -0.000000 0.005237 0.050847 0.170009
 25 10.363081 -0.000004 -0.000002 0.044301 0.040795 0.212073
 26 8.210358 -0.000006 -7.786025 0.000000 0.000000 0.032136
 27 8.210346 -0.000002 7.704017 0.000000 0.000000 0.064733
 28 1.854841 1.227791 -13.762345 2.399646 0.459104 2.044303
 29 10.456543 -0.000004 0.000004 -0.043637 0.173584 -0.958282
 30 24.248093 0.000001 0.000007 0.052931 0.007934 0.525291
 31 26.336971 0.000019 0.000002 0.584556 -0.024486 1.056691
 32 1.854847 1.227798 13.762341 2.699956 -0.683394 2.652910
 33 10.456542 -0.000008 0.000004 0.863767 0.802503 -0.471086
 34 24.248116 0.000002 -0.000004 -0.313380 -0.259875 1.604959
 35 26.336975 0.000000 0.000004 -0.505851 0.324335 0.627869
time 26
  0 0.000000 0.000000 0.000000 0.000000 -0.000000 -1.570796
  1 0.000000 0.000000 0.000000 0.000000 -0.000000 0.000000
  2 1.496139 -2.951586 26.426081 -1.537533 0.003468 1.538586
  3 4.222169 -0.467508 0.000000 -0.015491 0.000834 -0.020258
  4 4.476987 -0.000002 -0.000000 -0.015378 -0.048393 0.173108
  5 4.477083 0.000000 0.000002 -0.034250 -0.010787 -0.008930
  6 4.477077 -0.000004 -0.000002 -0.022225 -0.021307 -0.103453
  7 5.413502 -7.700466 -0.000000 -0.006553 0.015547 0.223248
  8 6.890240 0.000002 -0.000000 -0.001726 -0.081190 -0.343113
  9 8.011925 0.000004 0.000005 0.000864 -0.107244 -0.163890
 10 7.210720 -0.000002 -0.000000 -0.022373 0.037799 -0.425027
 11 7.811473 -0.304903 -0.000000 0.063659 0.162675 0.642480
 12 22.523008 2.194031 6.355708 0.000000 -0.000000 0.000000
 13 22.523005 2.194038 -6.355709 0.000000 -0.000000 0.000000
 14 -3.006533 7.804720 -11.355459 0.023353 0.421893 0.857709
 15 10.384675 0.000008 0.000005 0.840165 0.044288 -1.295146
 16 22.550743 -0.000006 -0.000004 -0.007090 -0.488303 1.601986
 17 30.814247 -0.000015 -0.000004 -2.758739 0.796302 0.636124
 18 -3.013796 7.815494 11.355459 0.068133 0.251593 0.384200
 19 10.374533 -0.000002 0.000007 -0.076067 -0.562564 -1.414709
 20 22.550726 -0.000027 -0.000013 0.046068 0.083785 2.299358
 21 30.814270 -0.000023 0.000002 3.124963 -0.629269 0.258851
 22 -4.250660 -0.770624 0.000001 0.064477 -0.079468 2.918699
 23 10.363422 0.000000 0.000000 -0.009767 0.057854 -0.207511
 24 10.363076 0.000000 -0.000000 0.001594 0.062353 0.172539
 25 10.363081 -0.000004 -0.000002 0.041629 0.043538 0.198434
 26 8.210358 -0.000006 -7.786025 0.000000 0.000000 0.027380
 27 8.210346 -0.000002 7.704017 0.000000 0.000000 0.055035
 28 1.854841 1.227791 -13.762345 2.430031 0.459030 2.030558
 29 10.456543 -0.000004 0.000004 -0.023879 0.140913 -1.006521
 30 24.248093 0.000001 0.000007 0.048149 0.011183 0.546071
 31 26.336971 0.000019 0.000002 0.577987 0.007863 1.051058
 32 1.854847 1.227798 13.762341 2.693001 -0.682135 2.591045
 33 10.456542 -0.000008 0.000004 0.933969 0.727950 -0.331965
 34 24.248116 0.000002 -0.000004 -0.258130 -0.263937 1.346982
 35 26.336975 0.000000 0.000004 -0.604267 0.245633 0.688625
time 27
  0 0.000000 0.000000 0.000000 0.000000 -0.000000 -1.570796
  1 0.000000 0.000000 0.000000 0.000000 -0.000000 0.000000
  2 2.101627 -2.951586 27.394859 -1.522674 0.005223 1.525549
  3 4.222169 -0.467508 0.000000 -0.022586 0.001279 0.013522
  4 4.476987 -0.000002 -0.000000 -0.022149 -0.061757 0.203430
  5 4.477083 0.000000 0.000002 -0.039691 -0.029751 -0.043375
  6 4.477077 -0.000004 -0.000002 -0.026994 -0.023055 -0.141093
  7 5.413502 -7.700466 -0.000000 -0.004360 -0.015139 0.202059
  8 6.890240 0.000002 -0.000000 -0.001750 -0.064631 -0.311534
  9 8.011925 0.000004 0.000005 0.000825 -0.078903 -0.164123
 10 7.210720 -0.000002 -0.000000 -0.022428 0.082343 -0.427548
 11 7.811473 -0.304903 -0.000000 0.038836 0.144869 0.645950
 12 22.523008 2.194031 6.355708 0.000000 -0.000000 0.000000
 13 22.523005 2.194038 -6.355709 0.000000 -0.000000 0.000000
 14 -3.006533 7.804720 -11.355459 0.001866 0.366212 0.844386
 15 10.384675 0.000008 0.000005 0.669208 0.096311 -1.330858
 16 22.550743 -0.000006 -0.000004 -0.015055 -0.505780 1.649686
 17 30.814247 -0.000015 -0.000004 -2.772628 0.710002 0.591789
 18 -3.013796 7.815494 11.355459 0.215322 0.262056 0.342875
 19 10.374533 -0.000002 0.000007 -0.083145 -0.679774 -1.423000
 20 22.550726 -0.000027 -0.000013 0.047150 0.081960 2.321319
 21 30.814270 -0.000023 0.000002 3.087427 -0.594624 0.317841
 22 -4.250660 -0.770624 0.000001 0.069187 -0.089289 2.920389
 23 10.363422 0.000000 0.000000 -0.012128 0.059580 -0.239573
 24 10.363076 0.000000 -0.000000 -0.001726 0.072983 0.174965
 25 10.363081 -0.000004 -0.000002 0.038859 0.046018 0.179534
 26 8.210358 -0.000006 -7.786025 0.000000 0.000000 0.020756
 27 8.210346 -0.000002 7.704017 0.000000 0.000000 0.041640
 28 1.854841 1.227791 -13.762345 2.449907 0.422516 1.977826
 29 10.456543 -0.000004 0.000004 -0.023494 0.116962 -1.132611
 30 24.248093 0.000001 0.000007 0.043441 0.015844 0.640319
 31 26.336971 0.000019 0.000002 0.559890 0.029333 1.031784
 32 1.854847 1.227798 13.762341 2.689794 -0.680056 2.531593
 33 10.456542 -0.000008 0.000004 0.992165 0.598852 -0.211683
 34 24.248116 0.000002 -0.000004 -0.186350 -0.241922 1.037521
 35 26.336975 0.000000 0.000004 -0.702470 0.173726 0.761814
time 28
  0 0.000000 0.000000 0.000000 0.000000 -0.000000 -1.570796
  1 0.000000 0.000000 0.000000 0.000000 -0.000000 0.000000
  2 2.668050 -2.951586 28.351921 -1.510116 0.006699 1.514620
  3 4.222169 -0.467508 0.000000 -0.028830 0.001724 0.042733
  4 4.476987 -0.000002 -0.000000 -0.028692 -0.073344 0.233685
  5 4.477083 0.000000 0.000002 -0.044030 -0.045485 -0.076887
  6 4.477077 -0.000004 -0.000002 -0.032064 -0.022923 -0.177736
  7 5.413502 -7.700466 -0.000000 -0.001449 -0.045723 0.176825
  8 6.890240 0.000002 -0.000000 -0.001618 -0.046581 -0.276370
  9 8.011925 0.000004 0.000005 0.000720 -0.047096 -0.164383
 10 7.210720 -0.000002 -0.000000 -0.022400 0.115834 -0.430873
 11 7.811473 -0.304903 -0.000000 0.010705 0.123768 0.649700
 12 22.523008 2.194031 6.355708 0.000000 -0.000000 0.000000
 13 22.523005 2.194038 -6.355709 0.000000 -0.000000 0.000000
 14 -3.006533 7.804720 -11.355459 -0.003994 0.280819 0.838068
 15 10.384675 0.000008 0.000005 0.468445 0.180074 -1.370902
 16 22.550743 -0.000006 -0.000004 -0.039251 -0.519268 1.745086
 17 30.814247 -0.000015 -0.000004 -2.846140 0.647933 0.529727
 18 -3.013796 7.815494 11.355459 0.375697 0.228725 0.296990
 19 10.374533 -0.000002 0.000007 -0.084831 -0.802132 -1.438425
 20 22.550726 -0.000027 -0.000013 0.048090 0.079368 2.347871
 21 30.814270 -0.000023 0.000002 3.093671 -0.543438 0.383721
 22 -4.250660 -0.770624 0.000001 0.073250 -0.098404 2.922975
 23 10.363422 0.000000 0.000000 -0.014633 0.061401 -0.273177
 24 10.363076 0.000000 -0.000000 -0.004662 0.082451 0.177159
 25 10.363081 -0.000004 -0.000002 0.036175 0.048206 0.158700
 26 8.210358 -0.000006 -7.786025 0.000000 0.000000 0.013384
 27 8.210346 -0.000002 7.704017 0.000000 0.000000 0.026958
 28 1.854841 1.227791 -13.762345 2.483591 0.360465 1.910498
 29 10.456543 -0.000004 0.000004 -0.036178 0.096605 -1.302988
 30 24.248093 0.000001 0.000007 0.039363 0.020929 0.744395
 31 26.336971 0.000019 0.000002 0.504771 0.024366 0.979264
 32 1.854847 1.227798 13.762341 2.695567 -0.679427 2.495103
 33 10.456542 -0.000008 0.000004 1.029606 0.423420 -0.120092
 34 24.248116 0.000002 -0.000004 -0.113353 -0.186097 0.694449
 35 26.336975 0.000000 0.000004 -0.779959 0.113668 0.870721
time 29
  0 0.000000 0.000000 0.000000 0.000000 -0.000000 -1.570796
  1 0.000000 0.000000 0.000000 0.000000 -0.000000 0.000000
  2 3.144627 -2.951586 29.180071 -1.500434 0.007736 1.506184
  3 4.222169 -0.467508 0.000000 -0.034271 0.002094 0.067696
  4 4.476987 -0.000002 -0.000000 -0.034469 -0.082618 0.259700
  5 4.477083 0.000000 0.000002 -0.047385 -0.056970 -0.105478
  6 4.477077 -0.000004 -0.000002 -0.036690 -0.021946 -0.209116
  7 5.413502 -7.700466 -0.000000 0.002007 -0.073725 0.148541
  8 6.890240 0.000002 -0.000000 -0.001151 -0.026963 -0.237391
  9 8.011925 0.000004 0.000005 0.000537 -0.013515 -0.164695
 10 7.210720 -0.000002 -0.000000 -0.022345 0.138062 -0.435084
 11 7.811473 -0.304903 -0.000000 -0.019905 0.099850 0.653450
 12 22.523008 2.194031 6.355708 0.000000 -0.000000 0.000000
 13 22.523005 2.194038 -6.355709 0.000000 -0.000000 0.000000
 14 -3.006533 7.804720 -11.355459 0.027206 0.194613 0.814307
 15 10.384675 0.000008 0.000005 0.227566 0.250809 -1.412056
 16 22.550743 -0.000006 -0.000004 -0.066391 -0.530201 1.845813
 17 30.814247 -0.000015 -0.000004 -2.972242 0.590880 0.456528
 18 -3.013796 7.815494 11.355459 0.535410 0.149432 0.249223
 19 10.374533 -0.000002 0.000007 -0.048362 -0.955820 -1.489104
 20 22.550726 -0.000027 -0.000013 0.048968 0.076797 2.374112
 21 30.814270 -0.000023 0.000002 -3.128334 -0.495067 0.451748
 22 -4.250660 -0.770624 0.000001 0.076510 -0.106011 2.925228
 23 10.363422 0.000000 0.000000 -0.017402 0.063403 -0.308959
 24 10.363076 0.000000 -0.000000 -0.007119 0.090456 0.178965
 25 10.363081 -0.000004 -0.000002 0.033787 0.050070 0.139263
 26 8.210358 -0.000006 -7.786025 0.000000 0.000000 0.006590
 27 8.210346 -0.000002 7.704017 0.000000 0.000000 0.013428
 28 1.854841 1.227791 -13.762345 2.523695 0.299106 1.842136
 29 10.456543 -0.000004 0.000004 -0.046834 0.074896 -1.475059
 30 24.248093 0.000001 0.000007 0.037546 0.024621 0.879788
 31 26.336971 0.000019 0.000002 0.435991 0.013513 0.920117
 32 1.854847 1.227798 13.762341 2.710625 -0.687143 2.478733
 33 10.456542 -0.000008 0.000004 1.048055 0.154873 -0.037723
 34 24.248116 0.000002 -0.000004 -0.053361 -0.072016 0.243941
 35 26.336975 0.000000 0.000004 -0.862938 0.060311 1.026425
time 30
  0 0.000000 0.000000 0.000000 0.000000 -0.000000 -1.570796
  1 0.000000 0.000000 0.000000 0.000000 -0.000000 0.000000
  2 3.472762 -2.951586 29.766026 -1.494299 0.008175 1.500911
  3 4.222169 -0.467508 0.000000 -0.038921 0.002298 0.088442
  4 4.476987 -0.000002 -0.000000 -0.038819 -0.089151 0.277303
  5 4.477083 0.000000 0.000002 -0.049962 -0.063141 -0.125147
  6 4.477077 -0.000004 -0.000002 -0.040058 -0.021006 -0.231027
  7 5.413502 -7.700466 -0.000000 0.005675 -0.096765 0.118141
  8 6.890240 0.000002 -0.000000 -0.000168 -0.005829 -0.194595
  9 8.011925 0.000004 0.000005 0.000249 0.020065 -0.165032
 10 7.210720 -0.000002 -0.000000 -0.022345 0.150632 -0.440152
 11 7.811473 -0.304903 -0.000000 -0.052215 0.073559 0.656885
 12 22.523008 2.194031 6.355708 0.000000 -0.000000 0.000000
 13 22.523005 2.194038 -6.355709 0.000000 -0.000000 0.000000
 14 -3.006533 7.804720 -11.355459 0.080272 0.162922 0.841845
 15 10.384675 0.000008 0.000005 -0.001322 0.275293 -1.532632
 16 22.550743 -0.000006 -0.000004 -0.094378 -0.538610 1.945873
 17 30.814247 -0.000015 -0.000004 -3.105289 0.496837 0.429490
 18 -3.013796 7.815494 11.355459 0.678373 0.028175 0.201400
 19 10.374533 -0.000002 0.000007 0.018374 -1.109740 -1.568718
 20 22.550726 -0.000027 -0.000013 0.049683 0.074225 2.399424
 21 30.814270 -0.000023 0.000002 -3.010043 -0.471725 0.527696
 22 -4.250660 -0.770624 0.000001 0.078799 -0.111387 2.925997
 23 10.363422 0.000000 0.000000 -0.018576 0.064373 -0.325111
 24 10.363076 0.000000 -0.000000 -0.009012 0.096700 0.180282
 25 10.363081 -0.000004 -0.000002 0.031928 0.051626 0.124470
 26 8.210358 -0.000006 -7.786025 0.000000 0.000000 0.001698
 27 8.210346 -0.000002 7.704017 0.000000 0.000000 0.003594
 28 1.854841 1.227791 -13.762345 2.606321 0.244457 1.782349
 29 10.456543 -0.000004 0.000004 -0.067624 0.058613 -1.634755
 30 24.248093 0.000001 0.000007 0.036508 0.028576 1.017609
 31 26.336971 0.000019 0.000002 0.336934 -0.001597 0.853735
 32 1.854847 1.227798 13.762341 2.727203 -0.693299 2.462448
 33 10.456542 -0.000008 0.000004 1.041916 0.007241 -0.001819
 34 24.248116 0.000002 -0.000004 -0.042868 -0.003392 0.011199
 35 26.336975 0.000000 0.000004 -0.913883 0.037106 0.830877
time 31
  0 0.000000 0.000000 0.000000 0.000000 -0.000000 -1.570796
  1 0.000000 0.000000 0.000000 0.000000 -0.000000 0.000000
  2 3.597766 -2.951586 29.996502 -1.492478 0.007776 1.499377
  3 4.222169 -0.467508 0.000000 -0.042768 0.002243 0.105033
  4 4.476987 -0.000002 -0.000000 -0.041108 -0.092599 0.282275
  5 4.477083 0.000000 0.000002 -0.051951 -0.062995 -0.131905
  6 4.477077 -0.000004 -0.000002 -0.041316 -0.020969 -0.239234
  7 5.413502 -7.700466 -0.000000 0.008958 -0.112464 0.086684
  8 6.890240 0.000002 -0.000000 0.001522 0.016729 -0.147959
  9 8.011925 0.000004 0.000005 -0.000144 0.051984 -0.165343
 10 7.210720 -0.000002 -0.000000 -0.022455 0.155170 -0.446132
 11 7.811473 -0.304903 -0.000000 -0.085328 0.045288 0.659549
 12 22.523008 2.194031 6.355708 0.000000 -0.000000 0.000000
 13 22.523005 2.194038 -6.355709 0.000000 -0.000000 0.000000
 14 -3.006533 7.804720 -11.355459 0.171537 0.159918 0.934279
 15 10.384675 0.000008 0.000005 -0.208846 0.253292 -1.723077
 16 22.550743 -0.000006 -0.000004 -0.105893 -0.538897 1.986128
 17 30.814247 -0.000015 -0.000004 3.027684 0.381288 0.462652
 18 -3.013796 7.815494 11.355459 0.788803 -0.125105 0.159676
 19 10.374533 -0.000002 0.000007 0.093940 -1.277314 -1.622760
 20 22.550726 -0.000027 -0.000013 0.045904 0.072870 2.375602
 21 30.814270 -0.000023 0.000002 -2.835974 -0.494675 0.603142
 22 -4.250660 -0.770624 0.000001 0.079961 -0.113746 2.924025
 23 10.363422 0.000000 0.000000 -0.019271 0.064721 -0.332571
 24 10.363076 0.000000 -0.000000 -0.010283 0.100859 0.180953
 25 10.363081 -0.000004 -0.000002 0.030807 0.052858 0.117678
 26 8.210358 -0.000006 -7.786025 0.000000 0.000000 -0.000815
 27 8.210346 -0.000002 7.704017 0.000000 0.000000 -0.000814
 28 1.854841 1.227791 -13.762345 2.735163 0.203329 1.737768
 29 10.456543 -0.000004 0.000004 -0.098092 0.047527 -1.753072
 30 24.248093 0.000001 0.000007 0.036063 0.032551 1.155607
 31 26.336971 0.000019 0.000002 0.204378 -0.023803 0.782990
 32 1.854847 1.227798 13.762341 2.778692 -0.602430 2.416739
 33 10.456542 -0.000008 0.000004 1.015633 0.287505 -0.076306
 34 24.248116 0.000002 -0.000004 -0.073363 -0.131592 0.448455
 35 26.336975 0.000000 0.000004 -0.814909 0.108456 0.884511
end
