version 1
nodes
  0 "Chaurus" -1
  1 "NPC Root [Root]" 0
  2 "Pelvis [Pelv]" 1
  3 "Spine[Spn0]" 2
  4 "Spine[Spn1]" 3
  5 "Spine[Spn2]" 4
  6 "Ribcage[Spn3]" 5
  7 "[Neck0]" 6
  8 "[Neck1]" 7
  9 "[Neck2]" 8
 10 "[Neck3]" 9
 11 "NPC Head [Head]" 10
 12 "Head[LeftPincher]" 11
 13 "Head[RightPincher]" 11
 14 "R UpperArm[RClv]" 6
 15 "R UpperArm[RUar]" 14
 16 "R UpperArm[RLar]" 15
 17 "R UpperArm[RHnd]" 16
 18 "L UpperArm[RClv]" 6
 19 "L UpperArm[LUar]" 18
 20 "L UpperArm[LLar]" 19
 21 "L UpperArm[LHnd]" 20
 22 "Tail[Tal0]" 2
 23 "Tail[Tal1]" 22
 24 "Tail[Tal2]" 23
 25 "Tail[Tal3]" 24
 26 "[TalRightPincher]" 25
 27 "[TalLeftPincher]" 25
 28 "R Leg[RThg0]" 2
 29 "R Leg[RThg1]" 28
 30 "R Leg[RClf]" 29
 31 "R Leg[RAnkle]" 30
 32 "LLeg[RThg0]" 2
 33 "LLeg[LThg1]" 32
 34 "LLeg[LClf]" 33
 35 "LLeg[LAnkle]" 34
end
skeleton
time 0
  0 0.000000 0.000000 0.000000 0.000000 -0.000000 -1.570796
  1 0.000000 0.000000 0.000000 0.000000 -0.000000 0.000000
  2 11.996460 -2.951586 22.730656 -1.492478 0.007776 1.499377
  3 4.222169 -0.467508 0.000000 0.008406 -0.000297 -0.172506
  4 4.476987 -0.000002 -0.000000 -0.031653 -0.102516 0.130400
  5 4.477083 0.000000 0.000002 -0.054312 -0.045517 0.189548
  6 4.477077 -0.000004 -0.000002 -0.008694 -0.014598 -0.007866
  7 5.413502 -7.700466 -0.000000 -0.010115 -0.112295 0.253088
  8 6.890240 0.000002 -0.000000 -0.002613 0.017082 -0.383745
  9 8.011925 0.000004 0.000005 -0.000144 0.051984 -0.165343
 10 7.210720 -0.000002 -0.000000 -0.022455 0.155170 -0.446132
 11 7.811473 -0.304903 -0.000000 -0.086293 0.009915 0.645599
 12 22.523008 2.194031 6.355708 0.000000 -0.000000 0.000000
 13 22.523005 2.194038 -6.355709 0.000000 -0.000000 0.000000
 14 -3.006533 7.804720 -11.355459 0.077233 0.135152 0.859082
 15 10.384675 0.000008 0.000005 0.008464 0.219706 -1.797889
 16 22.550743 -0.000006 -0.000004 0.073065 -0.217797 1.509916
 17 30.814247 -0.000015 -0.000004 3.097483 0.193295 0.806445
 18 -3.013796 7.815494 11.355459 1.281282 -1.069782 -0.338621
 19 10.374533 -0.000002 0.000007 -0.647299 -0.923261 -0.682702
 20 22.550726 -0.000027 -0.000013 0.173369 0.135768 2.219702
 21 30.814270 -0.000023 0.000002 -2.046840 0.063201 0.489931
 22 -4.250660 -0.770624 0.000001 0.079961 -0.113746 2.924025
 23 10.363422 0.000000 0.000000 -0.019271 0.064721 -0.332571
 24 10.363076 0.000000 -0.000000 -0.010283 0.100859 0.180953
 25 10.363081 -0.000004 -0.000002 0.046800 0.039470 0.457591
 26 8.210358 -0.000006 -7.703991 0.000000 0.000000 -0.000000
 27 8.210346 -0.000002 7.704017 0.000000 0.000000 -0.000000
 28 1.854841 1.227791 -13.762345 2.372074 0.121565 1.767266
 29 10.456543 -0.000004 0.000004 -0.033574 0.063934 -2.334804
 30 24.248093 0.000001 0.000007 0.061161 0.036768 1.904383
 31 26.336971 0.000019 0.000002 0.541140 -0.054627 0.605880
 32 1.854847 1.227798 13.762341 -2.023269 -1.092812 1.758027
 33 10.456542 -0.000008 0.000004 0.100942 0.244426 -0.794020
 34 24.248116 0.000002 -0.000004 -0.025730 0.017377 1.916450
 35 26.336975 0.000000 0.000004 -1.582430 -0.065048 0.078640
time 1
  0 0.000000 0.000000 0.000000 0.000000 -0.000000 -1.570796
  1 0.000000 0.000000 0.000000 0.000000 -0.000000 0.000000
  2 11.996460 -2.951586 22.730656 -1.492478 0.007776 1.499377
  3 4.222169 -0.467508 0.000000 0.008406 -0.000297 -0.172506
  4 4.476987 -0.000002 -0.000000 -0.031653 -0.102516 0.130400
  5 4.477083 0.000000 0.000002 -0.054312 -0.045517 0.189548
  6 4.477077 -0.000004 -0.000002 -0.008694 -0.014598 -0.007866
  7 5.413502 -7.700466 -0.000000 -0.010115 -0.112295 0.253088
  8 6.890240 0.000002 -0.000000 -0.002613 0.017082 -0.383745
  9 8.011925 0.000004 0.000005 -0.000144 0.051984 -0.165343
 10 7.210720 -0.000002 -0.000000 -0.022455 0.155170 -0.446132
 11 7.811473 -0.304903 -0.000000 -0.086293 0.009915 0.645599
 12 22.523008 2.194031 6.355708 0.000000 -0.000000 0.000000
 13 22.523005 2.194038 -6.355709 0.000000 -0.000000 0.000000
 14 -3.006533 7.804720 -11.355459 0.077233 0.135152 0.859082
 15 10.384675 0.000008 0.000005 0.008464 0.219706 -1.797889
 16 22.550743 -0.000006 -0.000004 0.073065 -0.217797 1.509916
 17 30.814247 -0.000015 -0.000004 3.097483 0.193295 0.806445
 18 -3.013796 7.815494 11.355459 1.281282 -1.069782 -0.338621
 19 10.374533 -0.000002 0.000007 -0.647299 -0.923261 -0.682702
 20 22.550726 -0.000027 -0.000013 0.173369 0.135768 2.219702
 21 30.814270 -0.000023 0.000002 -2.046840 0.063201 0.489931
 22 -4.250660 -0.770624 0.000001 0.079961 -0.113746 2.924025
 23 10.363422 0.000000 0.000000 -0.019271 0.064721 -0.332571
 24 10.363076 0.000000 -0.000000 -0.010283 0.100859 0.180953
 25 10.363081 -0.000004 -0.000002 0.046800 0.039470 0.457591
 26 8.210358 -0.000006 -7.703991 0.000000 0.000000 -0.000000
 27 8.210346 -0.000002 7.704017 0.000000 0.000000 -0.000000
 28 1.854841 1.227791 -13.762345 2.372074 0.121565 1.767266
 29 10.456543 -0.000004 0.000004 -0.033574 0.063934 -2.334804
 30 24.248093 0.000001 0.000007 0.061161 0.036768 1.904383
 31 26.336971 0.000019 0.000002 0.541140 -0.054627 0.605880
 32 1.854847 1.227798 13.762341 -2.023269 -1.092812 1.758027
 33 10.456542 -0.000008 0.000004 0.100942 0.244426 -0.794020
 34 24.248116 0.000002 -0.000004 -0.025730 0.017377 1.916450
 35 26.336975 0.000000 0.000004 -1.582430 -0.065048 0.078640
time 2
  0 0.000000 0.000000 0.000000 0.000000 -0.000000 -1.570796
  1 0.000000 0.000000 0.000000 0.000000 -0.000000 0.000000
  2 11.906613 -2.951586 22.851753 -1.495353 0.007337 1.500144
  3 4.222169 -0.467508 0.000000 0.008406 -0.000297 -0.172506
  4 4.476987 -0.000002 -0.000000 -0.031125 -0.095491 0.131355
  5 4.477083 0.000000 0.000002 -0.053689 -0.046826 0.188910
  6 4.477077 -0.000004 -0.000002 -0.008694 -0.014598 -0.007866
  7 5.413502 -7.700466 -0.000000 -0.010088 -0.118870 0.253181
  8 6.890240 0.000002 -0.000000 -0.000467 0.031904 -0.366663
  9 8.011925 0.000004 0.000005 -0.004165 0.081331 -0.192702
 10 7.210720 -0.000002 -0.000000 -0.022373 0.150985 -0.451576
 11 7.811473 -0.304903 -0.000000 -0.085030 -0.037818 0.649490
 12 22.523008 2.194031 6.355708 0.000000 -0.000000 0.000000
 13 22.523005 2.194038 -6.355709 0.000000 -0.000000 0.000000
 14 -3.006533 7.804720 -11.355459 0.095356 0.109785 0.895960
 15 10.384675 0.000008 0.000005 -0.040803 0.253058 -2.046483
 16 22.550743 -0.000006 -0.000004 0.020545 -0.198311 1.860825
 17 30.814247 -0.000015 -0.000004 3.065161 0.211508 0.664558
 18 -3.013796 7.815494 11.355459 1.116172 -0.798946 -0.262013
 19 10.374533 -0.000002 0.000007 -0.686330 -0.855587 -0.615903
 20 22.550726 -0.000027 -0.000013 0.225050 0.131881 1.969506
 21 30.814270 -0.000023 0.000002 -2.374175 0.071447 0.633878
 22 -4.250660 -0.770624 0.000001 0.078379 -0.109942 2.938287
 23 10.363422 0.000000 0.000000 -0.018109 0.063498 -0.312920
 24 10.363076 0.000000 -0.000000 -0.006975 0.097096 0.148897
 25 10.363081 -0.000004 -0.000002 0.046763 0.040148 0.420542
 26 8.210358 -0.000006 -7.703991 0.000000 0.000000 -0.000000
 27 8.210346 -0.000002 7.704017 0.000000 0.000000 -0.000000
 28 1.854841 1.227791 -13.762345 2.229820 0.206536 1.763982
 29 10.456543 -0.000004 0.000004 -0.044301 0.049752 -2.523547
 30 24.248093 0.000001 0.000007 0.070244 0.031038 2.202047
 31 26.336971 0.000019 0.000002 0.693359 -0.018442 0.542978
 32 1.854847 1.227798 13.762341 -2.259848 -0.982133 2.060673
 33 10.456542 -0.000008 0.000004 0.071200 0.252552 -0.850535
 34 24.248116 0.000002 -0.000004 -0.038529 0.012547 1.910154
 35 26.336975 0.000000 0.000004 -1.424835 0.023116 0.108142
time 3
  0 0.000000 0.000000 0.000000 0.000000 -0.000000 -1.570796
  1 0.000000 0.000000 0.000000 0.000000 -0.000000 0.000000
  2 11.586291 -2.951586 23.203327 -1.501680 0.006779 1.502733
  3 4.222169 -0.467508 0.000000 0.008406 -0.000297 -0.172506
  4 4.476987 -0.000002 -0.000000 -0.029124 -0.084696 0.132198
  5 4.477083 0.000000 0.000002 -0.051208 -0.042642 0.188199
  6 4.477077 -0.000004 -0.000002 -0.008694 -0.014598 -0.007866
  7 5.413502 -7.700466 -0.000000 -0.010075 -0.121011 0.253212
  8 6.890240 0.000002 -0.000000 0.001151 0.049666 -0.344951
  9 8.011925 0.000004 0.000005 -0.007701 0.106333 -0.215725
 10 7.210720 -0.000002 -0.000000 -0.022345 0.145830 -0.456269
 11 7.811473 -0.304903 -0.000000 -0.075201 -0.100148 0.656149
 12 22.523008 2.194031 6.355708 0.000000 -0.000000 0.000000
 13 22.523005 2.194038 -6.355709 0.000000 -0.000000 0.000000
 14 -3.006533 7.804720 -11.355459 0.148259 0.065445 0.799405
 15 10.384675 0.000008 0.000005 -0.087081 0.256496 -2.147954
 16 22.550743 -0.000006 -0.000004 -0.012928 -0.147487 2.205741
 17 30.814247 -0.000015 -0.000004 2.984704 0.261571 0.495240
 18 -3.013796 7.815494 11.355459 1.035424 -0.660202 -0.258649
 19 10.374533 -0.000002 0.000007 -0.806522 -0.756252 -0.463923
 20 22.550726 -0.000027 -0.000013 0.266435 0.138674 1.687796
 21 30.814270 -0.000023 0.000002 -2.566556 0.062883 0.777463
 22 -4.250660 -0.770624 0.000001 0.070505 -0.098773 2.981766
 23 10.363422 0.000000 0.000000 -0.014813 0.061161 -0.262988
 24 10.363076 0.000000 -0.000000 0.001822 0.086070 0.067209
 25 10.363081 -0.000004 -0.000002 0.045852 0.040533 0.308777
 26 8.210358 -0.000006 -7.703991 0.000000 0.000000 -0.000000
 27 8.210346 -0.000002 7.704017 0.000000 0.000000 -0.000000
 28 1.854841 1.227791 -13.762345 2.034797 0.330563 1.719279
 29 10.456543 -0.000004 0.000004 -0.047952 0.041050 -2.640042
 30 24.248093 0.000001 0.000007 0.074841 0.024601 2.418901
 31 26.336971 0.000019 0.000002 0.902829 0.045231 0.516414
 32 1.854847 1.227798 13.762341 -2.402531 -0.846171 2.270133
 33 10.456542 -0.000008 0.000004 0.041830 0.257895 -0.905080
 34 24.248116 0.000002 -0.000004 -0.048620 0.007969 1.849227
 35 26.336975 0.000000 0.000004 -1.265910 0.104485 0.152338
time 4
  0 0.000000 0.000000 0.000000 0.000000 -0.000000 -1.570796
  1 0.000000 0.000000 0.000000 0.000000 -0.000000 0.000000
  2 11.000336 -2.951586 23.785376 -1.511075 0.006021 1.507238
  3 4.222169 -0.467508 0.000000 0.008406 -0.000297 -0.172506
  4 4.476987 -0.000002 -0.000000 -0.025888 -0.070817 0.132953
  5 4.477083 0.000000 0.000002 -0.047158 -0.033806 0.187339
  6 4.477077 -0.000004 -0.000002 -0.008694 -0.014598 -0.007866
  7 5.413502 -7.700466 -0.000000 -0.010088 -0.119380 0.253212
  8 6.890240 0.000002 -0.000000 0.002709 0.068107 -0.328335
  9 8.011925 0.000004 0.000005 -0.010635 0.126782 -0.234466
 10 7.210720 -0.000002 -0.000000 -0.022400 0.138927 -0.460238
 11 7.811473 -0.304903 -0.000000 -0.061079 -0.165431 0.663545
 12 22.523008 2.194031 6.355708 0.000000 -0.000000 0.000000
 13 22.523005 2.194038 -6.355709 0.000000 -0.000000 0.000000
 14 -3.006533 7.804720 -11.355459 0.279839 0.032517 0.738973
 15 10.384675 0.000008 0.000005 -0.133471 0.255159 -2.247147
 16 22.550743 -0.000006 -0.000004 -0.025338 -0.095286 2.497993
 17 30.814247 -0.000015 -0.000004 2.838073 0.338373 0.324633
 18 -3.013796 7.815494 11.355459 0.952080 -0.585766 -0.248617
 19 10.374533 -0.000002 0.000007 -0.899143 -0.647049 -0.338385
 20 22.550726 -0.000027 -0.000013 0.299078 0.149490 1.409559
 21 30.814270 -0.000023 0.000002 -2.683409 0.024225 0.915218
 22 -4.250660 -0.770624 0.000001 0.059000 -0.082244 3.044039
 23 10.363422 0.000000 0.000000 -0.010187 0.057806 -0.194703
 24 10.363076 0.000000 -0.000000 0.012584 0.068728 -0.043877
 25 10.363081 -0.000004 -0.000002 0.044990 0.041350 0.193978
 26 8.210358 -0.000006 -7.703991 0.000000 0.000000 -0.000000
 27 8.210346 -0.000002 7.704017 0.000000 0.000000 -0.000000
 28 1.854841 1.227791 -13.762345 1.784324 0.455576 1.581277
 29 10.456543 -0.000004 0.000004 -0.046922 0.040819 -2.666831
 30 24.248093 0.000001 0.000007 0.075619 0.019617 2.545355
 31 26.336971 0.000019 0.000002 1.153758 0.144249 0.499183
 32 1.854847 1.227798 13.762341 -2.474210 -0.710346 2.372667
 33 10.456542 -0.000008 0.000004 0.029011 0.234407 -0.910676
 34 24.248116 0.000002 -0.000004 -0.042078 0.005069 1.735445
 35 26.336975 0.000000 0.000004 -1.130357 0.161472 0.239317
time 5
  0 0.000000 0.000000 0.000000 0.000000 -0.000000 -1.570796
  1 0.000000 0.000000 0.000000 0.000000 -0.000000 0.000000
  2 10.117496 -2.951586 24.547117 -1.523057 0.005023 1.513853
  3 4.222169 -0.467508 0.000000 0.008406 -0.000297 -0.172506
  4 4.476987 -0.000002 -0.000000 -0.021610 -0.054497 0.133686
  5 4.477083 0.000000 0.000002 -0.041801 -0.021142 0.186287
  6 4.477077 -0.000004 -0.000002 -0.008694 -0.014598 -0.007866
  7 5.413502 -7.700466 -0.000000 -0.010088 -0.114622 0.253212
  8 6.890240 0.000002 -0.000000 0.004051 0.084144 -0.318934
  9 8.011925 0.000004 0.000005 -0.012848 0.142278 -0.248794
 10 7.210720 -0.000002 -0.000000 -0.022455 0.129570 -0.463403
 11 7.811473 -0.304903 -0.000000 -0.046543 -0.221632 0.670239
 12 22.523008 2.194031 6.355708 0.000000 -0.000000 0.000000
 13 22.523005 2.194038 -6.355709 0.000000 -0.000000 0.000000
 14 -3.006533 7.804720 -11.355459 0.493568 0.066858 0.736500
 15 10.384675 0.000008 0.000005 -0.179936 0.248858 -2.349562
 16 22.550743 -0.000006 -0.000004 -0.040243 -0.052928 2.749084
 17 30.814247 -0.000015 -0.000004 2.586350 0.395144 0.143640
 18 -3.013796 7.815494 11.355459 0.870162 -0.546904 -0.233797
 19 10.374533 -0.000002 0.000007 -0.988326 -0.549508 -0.220269
 20 22.550726 -0.000027 -0.000013 0.321956 0.160209 1.146025
 21 30.814270 -0.000023 0.000002 -2.753289 -0.035230 1.046223
 22 -4.250660 -0.770624 0.000001 0.046296 -0.062618 3.114584
 23 10.363422 0.000000 0.000000 -0.005034 0.053635 -0.120322
 24 10.363076 0.000000 -0.000000 0.024568 0.047695 -0.164951
 25 10.363081 -0.000004 -0.000002 0.043981 0.042028 0.049781
 26 8.210358 -0.000006 -7.703991 0.000000 0.000000 -0.000000
 27 8.210346 -0.000002 7.704017 0.000000 0.000000 -0.000000
 28 1.854841 1.227791 -13.762345 1.525760 0.515529 1.362810
 29 10.456543 -0.000004 0.000004 -0.040563 0.048773 -2.579124
 30 24.248093 0.000001 0.000007 0.074804 0.017297 2.578626
 31 26.336971 0.000019 0.000002 1.393246 0.265945 0.453290
 32 1.854847 1.227798 13.762341 -2.522593 -0.573180 2.449093
 33 10.456542 -0.000008 0.000004 0.018837 0.209528 -0.909849
 34 24.248116 0.000002 -0.000004 -0.031520 0.004218 1.567945
 35 26.336975 0.000000 0.000004 -0.991673 0.205678 0.337939
time 6
  0 0.000000 0.000000 0.000000 0.000000 -0.000000 -1.570796
  1 0.000000 0.000000 0.000000 0.000000 -0.000000 0.000000
  2 8.890896 -2.951586 25.386986 -1.537149 0.003707 1.522864
  3 4.222169 -0.467508 0.000000 0.008406 -0.000297 -0.172506
  4 4.476987 -0.000002 -0.000000 -0.016540 -0.036441 0.134418
  5 4.477083 0.000000 0.000002 -0.035389 -0.005457 0.184953
  6 4.477077 -0.000004 -0.000002 -0.008694 -0.014598 -0.007866
  7 5.413502 -7.700466 -0.000000 -0.010075 -0.107384 0.253181
  8 6.890240 0.000002 -0.000000 0.004926 0.096051 -0.311115
  9 8.011925 0.000004 0.000005 -0.014262 0.152438 -0.258579
 10 7.210720 -0.000002 -0.000000 -0.022510 0.117000 -0.465736
 11 7.811473 -0.304903 -0.000000 -0.034303 -0.259635 0.675602
 12 22.523008 2.194031 6.355708 0.000000 -0.000000 0.000000
 13 22.523005 2.194038 -6.355709 0.000000 -0.000000 0.000000
 14 -3.006533 7.804720 -11.355459 0.738062 0.204046 0.860250
 15 10.384675 0.000008 0.000005 -0.222554 0.234621 -2.448644
 16 22.550743 -0.000006 -0.000004 -0.067175 -0.023226 2.944423
 17 30.814247 -0.000015 -0.000004 2.254956 0.328969 -0.007522
 18 -3.013796 7.815494 11.355459 0.790127 -0.508977 -0.222283
 19 10.374533 -0.000002 0.000007 -1.058163 -0.447614 -0.121926
 20 22.550726 -0.000027 -0.000013 0.332006 0.163821 0.903150
 21 30.814270 -0.000023 0.000002 -2.784932 -0.102124 1.152266
 22 -4.250660 -0.770624 0.000001 0.034216 -0.042639 -3.100208
 23 10.363422 0.000000 0.000000 -0.000012 0.049045 -0.052192
 24 10.363076 0.000000 -0.000000 0.036625 0.025680 -0.276113
 25 10.363081 -0.000004 -0.000002 0.043045 0.042767 -0.093906
 26 8.210358 -0.000006 -7.703991 0.000000 0.000000 -0.000000
 27 8.210346 -0.000002 7.704017 0.000000 0.000000 -0.000000
 28 1.854841 1.227791 -13.762345 1.345469 0.507388 1.157723
 29 10.456543 -0.000004 0.000004 -0.028630 0.061532 -2.399933
 30 24.248093 0.000001 0.000007 0.072839 0.016954 2.535587
 31 26.336971 0.000019 0.000002 1.569957 0.385197 0.377631
 32 1.854847 1.227798 13.762341 -2.564898 -0.471393 2.489158
 33 10.456542 -0.000008 0.000004 0.031181 0.178889 -0.848171
 34 24.248116 0.000002 -0.000004 -0.018955 0.003139 1.345560
 35 26.336975 0.000000 0.000004 -0.870571 0.241384 0.469397
time 7
  0 0.000000 0.000000 0.000000 0.000000 -0.000000 -1.570796
  1 0.000000 0.000000 0.000000 0.000000 -0.000000 0.000000
  2 7.273660 -2.951586 26.156540 -1.552966 0.002072 1.534368
  3 4.222169 -0.467508 0.000000 0.008406 -0.000297 -0.172506
  4 4.476987 -0.000002 -0.000000 -0.010871 -0.017272 0.135195
  5 4.477083 0.000000 0.000002 -0.028198 0.012474 0.183293
  6 4.477077 -0.000004 -0.000002 -0.008694 -0.014598 -0.007866
  7 5.413502 -7.700466 -0.000000 -0.010022 -0.098328 0.253150
  8 6.890240 0.000002 -0.000000 0.005297 0.104180 -0.305623
  9 8.011925 0.000004 0.000005 -0.014878 0.156864 -0.263693
 10 7.210720 -0.000002 -0.000000 -0.022537 0.100422 -0.467157
 11 7.811473 -0.304903 -0.000000 -0.022982 -0.281384 0.679247
 12 22.523008 2.194031 6.355708 0.000000 -0.000000 0.000000
 13 22.523005 2.194038 -6.355709 0.000000 -0.000000 0.000000
 14 -3.006533 7.804720 -11.355459 0.942458 0.412601 1.126770
 15 10.384675 0.000008 0.000005 -0.207875 0.247733 -2.285802
 16 22.550743 -0.000006 -0.000004 -0.110163 -0.012292 3.006227
 17 30.814247 -0.000015 -0.000004 1.970824 0.101979 -0.196465
 18 -3.013796 7.815494 11.355459 0.715489 -0.472581 -0.213220
 19 10.374533 -0.000002 0.000007 -1.094834 -0.358478 -0.069043
 20 22.550726 -0.000027 -0.000013 0.328595 0.153201 0.690052
 21 30.814270 -0.000023 0.000002 -2.816715 -0.165494 1.253149
 22 -4.250660 -0.770624 0.000001 0.023634 -0.025066 -3.043440
 23 10.363422 0.000000 0.000000 0.004362 0.044659 -0.002612
 24 10.363076 0.000000 -0.000000 0.046165 0.004539 -0.357414
 25 10.363081 -0.000004 -0.000002 0.042220 0.043399 -0.230532
 26 8.210358 -0.000006 -7.703991 0.000000 0.000000 -0.000000
 27 8.210346 -0.000002 7.704017 0.000000 0.000000 -0.000000
 28 1.854841 1.227791 -13.762345 1.265481 0.481655 1.014613
 29 10.456543 -0.000004 0.000004 -0.012471 0.071746 -2.181143
 30 24.248093 0.000001 0.000007 0.070132 0.017579 2.438379
 31 26.336971 0.000019 0.000002 1.673931 0.484004 0.301419
 32 1.854847 1.227798 13.762341 -2.596399 -0.431746 2.534867
 33 10.456542 -0.000008 0.000004 0.059296 0.128129 -0.704005
 34 24.248116 0.000002 -0.000004 -0.011584 0.002192 1.070320
 35 26.336975 0.000000 0.000004 -0.767738 0.280037 0.610236
time 8
  0 0.000000 0.000000 0.000000 0.000000 -0.000000 -1.570796
  1 0.000000 0.000000 0.000000 0.000000 -0.000000 0.000000
  2 5.226722 -2.951586 26.695620 -1.570126 0.000077 1.548460
  3 4.222169 -0.467508 0.000000 0.008406 -0.000297 -0.172506
  4 4.476987 -0.000002 -0.000000 -0.004819 0.002347 0.136016
  5 4.477083 0.000000 0.000002 -0.020480 0.031826 0.181218
  6 4.477077 -0.000004 -0.000002 -0.008694 -0.014598 -0.007866
  7 5.413502 -7.700466 -0.000000 -0.009942 -0.087623 0.253150
  8 6.890240 0.000002 -0.000000 0.005165 0.108859 -0.303039
  9 8.011925 0.000004 0.000005 -0.014773 0.155106 -0.264030
 10 7.210720 -0.000002 -0.000000 -0.022483 0.079041 -0.467640
 11 7.811473 -0.304903 -0.000000 -0.009962 -0.292208 0.680544
 12 22.523008 2.194031 6.355708 0.000000 -0.000000 0.000000
 13 22.523005 2.194038 -6.355709 0.000000 -0.000000 0.000000
 14 -3.006533 7.804720 -11.355459 1.084456 0.597166 1.457707
 15 10.384675 0.000008 0.000005 -0.106840 0.281064 -1.825547
 16 22.550743 -0.000006 -0.000004 -0.151184 -0.019466 2.900476
 17 30.814247 -0.000015 -0.000004 1.798466 -0.171405 -0.439627
 18 -3.013796 7.815494 11.355459 0.662285 -0.450348 -0.198400
 19 10.374533 -0.000002 0.000007 -1.119776 -0.274027 -0.030947
 20 22.550726 -0.000027 -0.000013 0.315542 0.126679 0.524351
 21 30.814270 -0.000023 0.000002 -2.835342 -0.213718 1.312920
 22 -4.250660 -0.770624 0.000001 0.013722 -0.009115 -3.000832
 23 10.363422 0.000000 0.000000 0.007838 0.041087 0.017964
 24 10.363076 0.000000 -0.000000 0.050024 -0.015020 -0.391509
 25 10.363081 -0.000004 -0.000002 0.041740 0.043260 -0.337196
 26 8.210358 -0.000006 -7.703991 0.000000 0.000000 -0.000000
 27 8.210346 -0.000002 7.704017 0.000000 0.000000 -0.000000
 28 1.854841 1.227791 -13.762345 1.252157 0.462558 0.927822
 29 10.456543 -0.000004 0.000004 0.005384 0.076711 -1.951021
 30 24.248093 0.000001 0.000007 0.067130 0.018891 2.295171
 31 26.336971 0.000019 0.000002 1.723438 0.562078 0.241001
 32 1.854847 1.227798 13.762341 -2.620742 -0.399568 2.574287
 33 10.456542 -0.000008 0.000004 0.076592 0.073669 -0.571584
 34 24.248116 0.000002 -0.000004 -0.012853 0.000910 0.830926
 35 26.336975 0.000000 0.000004 -0.665719 0.305195 0.745367
time 9
  0 0.000000 0.000000 0.000000 0.000000 -0.000000 -1.570796
  1 0.000000 0.000000 0.000000 0.000000 -0.000000 0.000000
  2 2.761803 -2.951586 26.914377 -1.587573 -0.001957 1.564374
  3 4.222169 -0.467508 0.000000 0.008406 -0.000297 -0.172506
  4 4.476987 -0.000002 -0.000000 0.001353 0.021601 0.136904
  5 4.477083 0.000000 0.000002 -0.012570 0.051694 0.178654
  6 4.477077 -0.000004 -0.000002 -0.008694 -0.014598 -0.007866
  7 5.413502 -7.700466 -0.000000 -0.009836 -0.072246 0.253181
  8 6.890240 0.000002 -0.000000 0.004530 0.110310 -0.303994
  9 8.011925 0.000004 0.000005 -0.014092 0.146751 -0.259514
 10 7.210720 -0.000002 -0.000000 -0.022373 0.052259 -0.467130
 11 7.811473 -0.304903 -0.000000 0.007054 -0.297142 0.678791
 12 22.523008 2.194031 6.355708 0.000000 -0.000000 0.000000
 13 22.523005 2.194038 -6.355709 0.000000 -0.000000 0.000000
 14 -3.006533 7.804720 -11.355459 1.151467 0.727888 1.672654
 15 10.384675 0.000008 0.000005 -0.041512 0.270307 -1.550405
 16 22.550743 -0.000006 -0.000004 -0.189166 -0.034246 2.781347
 17 30.814247 -0.000015 -0.000004 1.735830 -0.348270 -0.488259
 18 -3.013796 7.815494 11.355459 0.618347 -0.430880 -0.183352
 19 10.374533 -0.000002 0.000007 -1.124966 -0.209808 -0.023873
 20 22.550726 -0.000027 -0.000013 0.299711 0.093954 0.406481
 21 30.814270 -0.000023 0.000002 -2.856566 -0.244890 1.338496
 22 -4.250660 -0.770624 0.000001 0.003332 0.008762 -2.966597
 23 10.363422 0.000000 0.000000 0.010582 0.038091 0.016929
 24 10.363076 0.000000 -0.000000 0.049341 -0.035657 -0.385341
 25 10.363081 -0.000004 -0.000002 0.043267 0.040965 -0.394085
 26 8.210358 -0.000006 -7.703991 0.000000 0.000000 -0.000000
 27 8.210346 -0.000002 7.704017 0.000000 0.000000 -0.000000
 28 1.854841 1.227791 -13.762345 1.272825 0.463940 0.889749
 29 10.456543 -0.000004 0.000004 0.023326 0.077209 -1.721246
 30 24.248093 0.000001 0.000007 0.063126 0.020485 2.112653
 31 26.336971 0.000019 0.000002 1.740753 0.612034 0.218414
 32 1.854847 1.227798 13.762341 -2.618210 -0.368020 2.566747
 33 10.456542 -0.000008 0.000004 0.062687 0.034347 -0.579506
 34 24.248116 0.000002 -0.000004 -0.019266 -0.000816 0.767460
 35 26.336975 0.000000 0.000004 -0.586728 0.309817 0.803127
time 10
  0 0.000000 0.000000 0.000000 0.000000 -0.000000 -1.570796
  1 0.000000 0.000000 0.000000 0.000000 -0.000000 0.000000
  2 -0.066408 -2.951586 26.859688 -1.604732 -0.003912 1.581054
  3 4.222169 -0.467508 0.000000 0.008406 -0.000297 -0.172506
  4 4.476987 -0.000002 -0.000000 0.007441 0.039871 0.137859
  5 4.477083 0.000000 0.000002 -0.004732 0.071305 0.175452
  6 4.477077 -0.000004 -0.000002 -0.008694 -0.014598 -0.007866
  7 5.413502 -7.700466 -0.000000 -0.009743 -0.048612 0.253212
  8 6.890240 0.000002 -0.000000 0.003428 0.108885 -0.308974
  9 8.011925 0.000004 0.000005 -0.013123 0.131351 -0.250195
 10 7.210720 -0.000002 -0.000000 -0.022208 0.019932 -0.465629
 11 7.811473 -0.304903 -0.000000 0.029742 -0.299907 0.673394
 12 22.523008 2.194031 6.355708 0.000000 -0.000000 0.000000
 13 22.523005 2.194038 -6.355709 0.000000 -0.000000 0.000000
 14 -3.006533 7.804720 -11.355459 1.128461 0.861543 1.692707
 15 10.384675 0.000008 0.000005 -0.026385 0.238143 -1.451434
 16 22.550743 -0.000006 -0.000004 -0.222495 -0.053904 2.715972
 17 30.814247 -0.000015 -0.000004 1.759373 -0.404602 -0.415597
 18 -3.013796 7.815494 11.355459 0.594774 -0.413990 -0.168076
 19 10.374533 -0.000002 0.000007 -1.125573 -0.159376 -0.024800
 20 22.550726 -0.000027 -0.000013 0.288251 0.068748 0.348476
 21 30.814270 -0.000023 0.000002 -2.884034 -0.271020 1.350155
 22 -4.250660 -0.770624 0.000001 -0.007095 0.027538 -2.939685
 23 10.363422 0.000000 0.000000 0.013075 0.034688 0.016049
 24 10.363076 0.000000 -0.000000 0.049353 -0.061053 -0.368255
 25 10.363081 -0.000004 -0.000002 0.045126 0.038207 -0.445793
 26 8.210358 -0.000006 -7.703991 0.000000 0.000000 -0.000000
 27 8.210346 -0.000002 7.704017 0.000000 0.000000 -0.000000
 28 1.854841 1.227791 -13.762345 1.296482 0.479952 0.867914
 29 10.456543 -0.000004 0.000004 0.039136 0.073561 -1.493816
 30 24.248093 0.000001 0.000007 0.059122 0.021756 1.902075
 31 26.336971 0.000019 0.000002 1.742667 0.632242 0.240670
 32 1.854847 1.227798 13.762341 -2.594002 -0.320109 2.504366
 33 10.456542 -0.000008 0.000004 0.034403 0.001036 -0.743810
 34 24.248116 0.000002 -0.000004 -0.028619 -0.003141 0.886726
 35 26.336975 0.000000 0.000004 -0.520088 0.299239 0.778599
time 11
  0 0.000000 0.000000 0.000000 0.000000 -0.000000 -1.570796
  1 0.000000 0.000000 0.000000 0.000000 -0.000000 0.000000
  2 -3.093844 -2.951586 26.570616 -1.620741 -0.005547 1.597926
  3 4.222169 -0.467508 0.000000 0.008406 -0.000297 -0.172506
  4 4.476987 -0.000002 -0.000000 0.013206 0.056513 0.138813
  5 4.477083 0.000000 0.000002 0.002794 0.089865 0.171465
  6 4.477077 -0.000004 -0.000002 -0.008694 -0.014598 -0.007866
  7 5.413502 -7.700466 -0.000000 -0.009663 -0.019693 0.253243
  8 6.890240 0.000002 -0.000000 0.001930 0.104860 -0.318561
  9 8.011925 0.000004 0.000005 -0.012115 0.108602 -0.235582
 10 7.210720 -0.000002 -0.000000 -0.022071 -0.015872 -0.463322
 11 7.811473 -0.304903 -0.000000 0.057092 -0.300027 0.664771
 12 22.523008 2.194031 6.355708 0.000000 -0.000000 0.000000
 13 22.523005 2.194038 -6.355709 0.000000 -0.000000 0.000000
 14 -3.006533 7.804720 -11.355459 0.988579 1.004101 1.518071
 15 10.384675 0.000008 0.000005 -0.027916 0.196198 -1.422553
 16 22.550743 -0.000006 -0.000004 -0.251794 -0.075772 2.685585
 17 30.814247 -0.000015 -0.000004 1.849352 -0.392063 -0.292655
 18 -3.013796 7.815494 11.355459 0.578839 -0.403190 -0.152458
 19 10.374533 -0.000002 0.000007 -1.120180 -0.154658 -0.041094
 20 22.550726 -0.000027 -0.000013 0.281919 0.060483 0.385884
 21 30.814270 -0.000023 0.000002 -2.929814 -0.287267 1.312028
 22 -4.250660 -0.770624 0.000001 -0.017162 0.046217 -2.919149
 23 10.363422 0.000000 0.000000 0.015292 0.031164 0.014817
 24 10.363076 0.000000 -0.000000 0.049377 -0.088617 -0.341877
 25 10.363081 -0.000004 -0.000002 0.046985 0.035603 -0.499139
 26 8.210358 -0.000006 -7.703991 0.000000 0.000000 -0.000000
 27 8.210346 -0.000002 7.704017 0.000000 0.000000 -0.000000
 28 1.854841 1.227791 -13.762345 1.315479 0.532578 0.876064
 29 10.456543 -0.000004 0.000004 0.052902 0.066763 -1.271683
 30 24.248093 0.000001 0.000007 0.055230 0.022220 1.686464
 31 26.336971 0.000019 0.000002 1.742449 0.639311 0.280488
 32 1.854847 1.227798 13.762341 -2.562332 -0.251977 2.402910
 33 10.456542 -0.000008 0.000004 0.006696 -0.038175 -1.008376
 34 24.248116 0.000002 -0.000004 -0.038956 -0.006161 1.099616
 35 26.336975 0.000000 0.000004 -0.458336 0.275166 0.721122
time 12
  0 0.000000 0.000000 0.000000 0.000000 -0.000000 -1.570796
  1 0.000000 0.000000 0.000000 0.000000 -0.000000 0.000000
  2 -6.031434 -2.951586 25.996380 -1.634736 -0.006824 1.613840
  3 4.222169 -0.467508 0.000000 0.008406 -0.000297 -0.172506
  4 4.476987 -0.000002 -0.000000 0.018455 0.070820 0.139723
  5 4.477083 0.000000 0.000002 0.009673 0.106503 0.166633
  6 4.477077 -0.000004 -0.000002 -0.008694 -0.014598 -0.007866
  7 5.413502 -7.700466 -0.000000 -0.009610 0.011724 0.253275
  8 6.890240 0.000002 -0.000000 0.000156 0.098508 -0.333292
  9 8.011925 0.000004 0.000005 -0.010491 0.080181 -0.212481
 10 7.210720 -0.000002 -0.000000 -0.021961 -0.052294 -0.460372
 11 7.811473 -0.304903 -0.000000 0.087036 -0.295434 0.653801
 12 22.523008 2.194031 6.355708 0.000000 -0.000000 0.000000
 13 22.523005 2.194038 -6.355709 0.000000 -0.000000 0.000000
 14 -3.006533 7.804720 -11.355459 0.674090 1.110480 1.121002
 15 10.384675 0.000008 0.000005 -0.028701 0.151240 -1.394839
 16 22.550743 -0.000006 -0.000004 -0.278965 -0.099361 2.654108
 17 30.814247 -0.000015 -0.000004 1.981132 -0.350339 -0.143571
 18 -3.013796 7.815494 11.355459 0.569980 -0.408571 -0.135757
 19 10.374533 -0.000002 0.000007 -1.105013 -0.186718 -0.080466
 20 22.550726 -0.000027 -0.000013 0.279570 0.062800 0.516721
 21 30.814270 -0.000023 0.000002 -2.986609 -0.296271 1.224923
 22 -4.250660 -0.770624 0.000001 -0.026510 0.063854 -2.904041
 23 10.363422 0.000000 0.000000 0.017174 0.027748 0.013364
 24 10.363076 0.000000 -0.000000 0.049053 -0.115906 -0.308582
 25 10.363081 -0.000004 -0.000002 0.048782 0.033077 -0.544860
 26 8.210358 -0.000006 -7.703991 0.000000 0.000000 -0.000000
 27 8.210346 -0.000002 7.704017 0.000000 0.000000 -0.000000
 28 1.854841 1.227791 -13.762345 1.334871 0.594900 0.892972
 29 10.456543 -0.000004 0.000004 0.062738 0.058916 -1.083243
 30 24.248093 0.000001 0.000007 0.051782 0.022038 1.488376
 31 26.336971 0.000019 0.000002 1.742145 0.624884 0.346428
 32 1.854847 1.227798 13.762341 -2.536537 -0.176650 2.296327
 33 10.456542 -0.000008 0.000004 -0.016027 -0.082061 -1.309398
 34 24.248116 0.000002 -0.000004 -0.049669 -0.008066 1.326013
 35 26.336975 0.000000 0.000004 -0.399200 0.247371 0.662231
time 13
  0 0.000000 0.000000 0.000000 0.000000 -0.000000 -1.570796
  1 0.000000 0.000000 0.000000 0.000000 -0.000000 0.000000
  2 -8.554949 -2.951586 25.097916 -1.645856 -0.007622 1.628028
  3 4.222169 -0.467508 0.000000 0.008406 -0.000297 -0.172506
  4 4.476987 -0.000002 -0.000000 0.022949 0.082150 0.140545
  5 4.477083 0.000000 0.000002 0.015282 0.120137 0.162187
  6 4.477077 -0.000004 -0.000002 -0.008694 -0.014598 -0.007866
  7 5.413502 -7.700466 -0.000000 -0.009557 0.042988 0.253306
  8 6.890240 0.000002 -0.000000 -0.001750 0.090065 -0.353771
  9 8.011925 0.000004 0.000005 -0.007858 0.049332 -0.179697
 10 7.210720 -0.000002 -0.000000 -0.021906 -0.086598 -0.457020
 11 7.811473 -0.304903 -0.000000 0.117555 -0.284013 0.641428
 12 22.523008 2.194031 6.355708 0.000000 -0.000000 0.000000
 13 22.523005 2.194038 -6.355709 0.000000 -0.000000 0.000000
 14 -3.006533 7.804720 -11.355459 0.239198 1.116804 0.579925
 15 10.384675 0.000008 0.000005 -0.021716 0.101890 -1.331858
 16 22.550743 -0.000006 -0.000004 -0.299260 -0.126997 2.588066
 17 30.814247 -0.000015 -0.000004 2.136673 -0.309085 0.009811
 18 -3.013796 7.815494 11.355459 0.562648 -0.428974 -0.115237
 19 10.374533 -0.000002 0.000007 -1.082902 -0.229409 -0.137350
 20 22.550726 -0.000027 -0.000013 0.280162 0.065568 0.714495
 21 30.814270 -0.000023 0.000002 -3.041580 -0.302387 1.117123
 22 -4.250660 -0.770624 0.000001 -0.034719 0.079532 -2.893338
 23 10.363422 0.000000 0.000000 0.018720 0.024680 0.011890
 24 10.363076 0.000000 -0.000000 0.048334 -0.140535 -0.270771
 25 10.363081 -0.000004 -0.000002 0.050543 0.030396 -0.568109
 26 8.210358 -0.000006 -7.703991 0.000000 0.000000 -0.000000
 27 8.210346 -0.000002 7.704017 0.000000 0.000000 -0.000000
 28 1.854841 1.227791 -13.762345 1.358705 0.658480 0.923261
 29 10.456543 -0.000004 0.000004 0.067315 0.052830 -0.966402
 30 24.248093 0.000001 0.000007 0.049928 0.021776 1.366126
 31 26.336971 0.000019 0.000002 1.733792 0.596293 0.411153
 32 1.854847 1.227798 13.762341 -2.522255 -0.100255 2.196508
 33 10.456542 -0.000008 0.000004 -0.034713 -0.124862 -1.607739
 34 24.248116 0.000002 -0.000004 -0.060771 -0.009864 1.538751
 35 26.336975 0.000000 0.000004 -0.354216 0.210331 0.619561
time 14
  0 0.000000 0.000000 0.000000 0.000000 -0.000000 -1.570796
  1 0.000000 0.000000 0.000000 0.000000 -0.000000 0.000000
  2 -10.414380 -2.951586 24.027569 -1.653238 -0.007941 1.639436
  3 4.222169 -0.467508 0.000000 0.008406 -0.000297 -0.172506
  4 4.476987 -0.000002 -0.000000 0.026449 0.089796 0.141233
  5 4.477083 0.000000 0.000002 0.019069 0.129942 0.159697
  6 4.477077 -0.000004 -0.000002 -0.008694 -0.014598 -0.007866
  7 5.413502 -7.700466 -0.000000 -0.009517 0.071261 0.253337
  8 6.890240 0.000002 -0.000000 -0.003631 0.079818 -0.380580
  9 8.011925 0.000004 0.000005 -0.005317 0.017749 -0.143410
 10 7.210720 -0.000002 -0.000000 -0.021879 -0.115905 -0.453427
 11 7.811473 -0.304903 -0.000000 0.146466 -0.265661 0.628915
 12 22.523008 2.194031 6.355708 0.000000 -0.000000 0.000000
 13 22.523005 2.194038 -6.355709 0.000000 -0.000000 0.000000
 14 -3.006533 7.804720 -11.355459 -0.089724 1.029008 0.145361
 15 10.384675 0.000008 0.000005 -0.012528 0.049104 -1.239717
 16 22.550743 -0.000006 -0.000004 -0.309255 -0.157245 2.485403
 17 30.814247 -0.000015 -0.000004 2.294355 -0.289681 0.157857
 18 -3.013796 7.815494 11.355459 0.552721 -0.474076 -0.086281
 19 10.374533 -0.000002 0.000007 -1.048995 -0.285488 -0.235055
 20 22.550726 -0.000027 -0.000013 0.281633 0.064017 0.962830
 21 30.814270 -0.000023 0.000002 -3.089254 -0.299500 0.985225
 22 -4.250660 -0.770624 0.000001 -0.041359 0.092306 -2.886091
 23 10.363422 0.000000 0.000000 0.019858 0.022188 0.010636
 24 10.363076 0.000000 -0.000000 0.047543 -0.159997 -0.231049
 25 10.363081 -0.000004 -0.000002 0.052378 0.027716 -0.583735
 26 8.210358 -0.000006 -7.703991 0.000000 0.000000 -0.000000
 27 8.210346 -0.000002 7.704017 0.000000 0.000000 -0.000000
 28 1.854841 1.227791 -13.762345 1.413144 0.727784 1.018505
 29 10.456543 -0.000004 0.000004 0.067001 0.051033 -0.950554
 30 24.248093 0.000001 0.000007 0.051337 0.021877 1.376960
 31 26.336971 0.000019 0.000002 1.687853 0.537324 0.433575
 32 1.854847 1.227798 13.762341 -2.523876 -0.043151 2.125811
 33 10.456542 -0.000008 0.000004 -0.052382 -0.162569 -1.864187
 34 24.248116 0.000002 -0.000004 -0.072676 -0.011925 1.721787
 35 26.336975 0.000000 0.000004 -0.326385 0.165505 0.596842
time 15
  0 0.000000 0.000000 0.000000 0.000000 -0.000000 -1.570796
  1 0.000000 0.000000 0.000000 0.000000 -0.000000 0.000000
  2 -11.496445 -2.951586 23.183794 -1.656305 -0.007821 1.647392
  3 4.222169 -0.467508 0.000000 0.008406 -0.000297 -0.172506
  4 4.476987 -0.000002 -0.000000 0.028690 0.093052 0.141721
  5 4.477083 0.000000 0.000002 0.021178 0.135983 0.158807
  6 4.477077 -0.000004 -0.000002 -0.008694 -0.014598 -0.007866
  7 5.413502 -7.700466 -0.000000 -0.009490 0.093604 0.253368
  8 6.890240 0.000002 -0.000000 -0.005249 0.068277 -0.416999
  9 8.011925 0.000004 0.000005 -0.003497 -0.012685 -0.108291
 10 7.210720 -0.000002 -0.000000 -0.021824 -0.137250 -0.449887
 11 7.811473 -0.304903 -0.000000 0.171519 -0.248401 0.618400
 12 22.523008 2.194031 6.355708 0.000000 -0.000000 0.000000
 13 22.523005 2.194038 -6.355709 0.000000 -0.000000 0.000000
 14 -3.006533 7.804720 -11.355459 -0.233404 0.919802 -0.078102
 15 10.384675 0.000008 0.000005 -0.007971 -0.001073 -1.149966
 16 22.550743 -0.000006 -0.000004 -0.314229 -0.188439 2.372509
 17 30.814247 -0.000015 -0.000004 2.428930 -0.295951 0.277182
 18 -3.013796 7.815494 11.355459 0.536225 -0.535395 -0.046494
 19 10.374533 -0.000002 0.000007 -1.002280 -0.358346 -0.388600
 20 22.550726 -0.000027 -0.000013 0.281817 0.056891 1.256389
 21 30.814270 -0.000023 0.000002 -3.130719 -0.294191 0.839242
 22 -4.250660 -0.770624 0.000001 -0.045901 0.101229 -2.881047
 23 10.363422 0.000000 0.000000 0.020566 0.020534 0.009667
 24 10.363076 0.000000 -0.000000 0.046884 -0.172438 -0.190502
 25 10.363081 -0.000004 -0.000002 0.054421 0.025204 -0.601642
 26 8.210358 -0.000006 -7.703991 0.000000 0.000000 -0.000000
 27 8.210346 -0.000002 7.704017 0.000000 0.000000 -0.000000
 28 1.854841 1.227791 -13.762345 1.525012 0.790204 1.195675
 29 10.456543 -0.000004 0.000004 0.063979 0.052243 -0.999227
 30 24.248093 0.000001 0.000007 0.054006 0.022381 1.470439
 31 26.336971 0.000019 0.000002 1.592362 0.447320 0.418001
 32 1.854847 1.227798 13.762341 -2.532722 -0.022355 2.099360
 33 10.456542 -0.000008 0.000004 -0.075715 -0.192541 -2.041654
 34 24.248116 0.000002 -0.000004 -0.084063 -0.013927 1.875730
 35 26.336975 0.000000 0.000004 -0.312791 0.118259 0.576948
time 16
  0 0.000000 0.000000 0.000000 0.000000 -0.000000 -1.570796
  1 0.000000 0.000000 0.000000 0.000000 -0.000000 0.000000
  2 -11.894895 -2.951586 22.816595 -1.655251 -0.007342 1.651898
  3 4.222169 -0.467508 0.000000 0.008406 -0.000297 -0.172506
  4 4.476987 -0.000002 -0.000000 0.029469 0.091317 0.141921
  5 4.477083 0.000000 0.000002 0.021730 0.138407 0.159222
  6 4.477077 -0.000004 -0.000002 -0.008694 -0.014598 -0.007866
  7 5.413502 -7.700466 -0.000000 -0.009490 0.107503 0.253399
  8 6.890240 0.000002 -0.000000 -0.006711 0.055534 -0.435896
  9 8.011925 0.000004 0.000005 -0.002200 -0.039923 -0.093703
 10 7.210720 -0.000002 -0.000000 -0.021686 -0.148108 -0.446562
 11 7.811473 -0.304903 -0.000000 0.189752 -0.222008 0.612056
 12 22.523008 2.194031 6.355708 0.000000 -0.000000 0.000000
 13 22.523005 2.194038 -6.355709 0.000000 -0.000000 0.000000
 14 -3.006533 7.804720 -11.355459 -0.271657 0.835716 -0.164836
 15 10.384675 0.000008 0.000005 -0.007709 -0.041067 -1.090816
 16 22.550743 -0.000006 -0.000004 -0.310998 -0.216534 2.265487
 17 30.814247 -0.000015 -0.000004 2.528912 -0.312502 0.364133
 18 -3.013796 7.815494 11.355459 0.495800 -0.605010 0.030228
 19 10.374533 -0.000002 0.000007 -0.929949 -0.454292 -0.618338
 20 22.550726 -0.000027 -0.000013 0.264372 0.040793 1.582891
 21 30.814270 -0.000023 0.000002 3.134399 -0.283181 0.686732
 22 -4.250660 -0.770624 0.000001 -0.047807 0.105305 -2.877846
 23 10.363422 0.000000 0.000000 0.020817 0.019934 0.009667
 24 10.363076 0.000000 -0.000000 0.045613 -0.177687 -0.145335
 25 10.363081 -0.000004 -0.000002 0.055948 0.023263 -0.608917
 26 8.210358 -0.000006 -7.703991 0.000000 0.000000 -0.000000
 27 8.210346 -0.000002 7.704017 0.000000 0.000000 -0.000000
 28 1.854841 1.227791 -13.762345 1.676105 0.826052 1.412500
 29 10.456543 -0.000004 0.000004 0.061218 0.053702 -1.048117
 30 24.248093 0.000001 0.000007 0.055897 0.022503 1.547282
 31 26.336971 0.000019 0.000002 1.475076 0.350930 0.400936
 32 1.854847 1.227798 13.762341 -2.535862 -0.024791 2.090183
 33 10.456542 -0.000008 0.000004 -0.108340 -0.215694 -2.169267
 34 24.248116 0.000002 -0.000004 -0.097276 -0.015844 2.026627
 35 26.336975 0.000000 0.000004 -0.333289 0.063754 0.545694
time 17
  0 0.000000 0.000000 0.000000 0.000000 -0.000000 -1.570796
  1 0.000000 0.000000 0.000000 0.000000 -0.000000 0.000000
  2 -11.844111 -2.951586 22.824408 -1.650649 -0.006624 1.653240
  3 4.222169 -0.467508 0.000000 0.008406 -0.000297 -0.172506
  4 4.476987 -0.000002 -0.000000 0.028666 0.085470 0.141677
  5 4.477083 0.000000 0.000002 0.020831 0.137308 0.160690
  6 4.477077 -0.000004 -0.000002 -0.008694 -0.014598 -0.007866
  7 5.413502 -7.700466 -0.000000 -0.009503 0.114282 0.253399
  8 6.890240 0.000002 -0.000000 -0.007622 0.025473 -0.400919
  9 8.011925 0.000004 0.000005 0.000144 -0.064972 -0.118596
 10 7.210720 -0.000002 -0.000000 -0.021549 -0.150350 -0.442861
 11 7.811473 -0.304903 -0.000000 0.196963 -0.149845 0.611636
 12 22.523008 2.194031 6.355708 0.000000 -0.000000 0.000000
 13 22.523005 2.194038 -6.355709 0.000000 -0.000000 0.000000
 14 -3.006533 7.804720 -11.355459 -0.261510 0.781237 -0.185232
 15 10.384675 0.000008 0.000005 -0.008643 -0.073443 -1.060603
 16 22.550743 -0.000006 -0.000004 -0.283075 -0.241128 2.158101
 17 30.814247 -0.000015 -0.000004 2.593601 -0.317330 0.446250
 18 -3.013796 7.815494 11.355459 0.415307 -0.651794 0.175009
 19 10.374533 -0.000002 0.000007 -0.791759 -0.567249 -0.954189
 20 22.550726 -0.000027 -0.000013 0.192224 0.015371 1.903685
 21 30.814270 -0.000023 0.000002 -3.112828 -0.260377 0.543036
 22 -4.250660 -0.770624 0.000001 -0.046428 0.101293 -2.887013
 23 10.363422 0.000000 0.000000 0.020781 0.020270 0.018998
 24 10.363076 0.000000 -0.000000 0.042521 -0.176045 -0.089663
 25 10.363081 -0.000004 -0.000002 0.056182 0.022616 -0.580916
 26 8.210358 -0.000006 -7.703991 0.000000 0.000000 -0.000000
 27 8.210346 -0.000002 7.704017 0.000000 0.000000 -0.000000
 28 1.854841 1.227791 -13.762345 1.841534 0.823339 1.636380
 29 10.456543 -0.000004 0.000004 0.060275 0.054627 -1.069696
 30 24.248093 0.000001 0.000007 0.056453 0.022260 1.572324
 31 26.336971 0.000019 0.000002 1.357399 0.258718 0.402869
 32 1.854847 1.227798 13.762341 -2.519959 -0.061264 2.082084
 33 10.456542 -0.000008 0.000004 -0.141949 -0.240156 -2.289747
 34 24.248116 0.000002 -0.000004 -0.115451 -0.017414 2.189253
 35 26.336975 0.000000 0.000004 -0.398986 -0.007006 0.504154
time 18
  0 0.000000 0.000000 0.000000 0.000000 -0.000000 -1.570796
  1 0.000000 0.000000 0.000000 0.000000 -0.000000 0.000000
  2 -11.543321 -2.951586 23.043165 -1.642980 -0.005707 1.651706
  3 4.222169 -0.467508 0.000000 0.008406 -0.000297 -0.172506
  4 4.476987 -0.000002 -0.000000 0.026437 0.077010 0.140944
  5 4.477083 0.000000 0.000002 0.018554 0.132785 0.162928
  6 4.477077 -0.000004 -0.000002 -0.008694 -0.014598 -0.007866
  7 5.413502 -7.700466 -0.000000 -0.009570 0.117001 0.253399
  8 6.890240 0.000002 -0.000000 -0.008665 -0.023722 -0.350164
  9 8.011925 0.000004 0.000005 0.004099 -0.089926 -0.161528
 10 7.210720 -0.000002 -0.000000 -0.021522 -0.147631 -0.438463
 11 7.811473 -0.304903 -0.000000 0.196274 -0.050298 0.615176
 12 22.523008 2.194031 6.355708 0.000000 -0.000000 0.000000
 13 22.523005 2.194038 -6.355709 0.000000 -0.000000 0.000000
 14 -3.006533 7.804720 -11.355459 -0.231179 0.746083 -0.180425
 15 10.384675 0.000008 0.000005 -0.010175 -0.104547 -1.038387
 16 22.550743 -0.000006 -0.000004 -0.226669 -0.267789 2.030256
 17 30.814247 -0.000015 -0.000004 2.636319 -0.303286 0.542870
 18 -3.013796 7.815494 11.355459 0.308238 -0.655269 0.373085
 19 10.374533 -0.000002 0.000007 -0.577193 -0.660538 -1.389427
 20 22.550726 -0.000027 -0.000013 0.049826 -0.012800 2.188560
 21 30.814270 -0.000023 0.000002 -3.002360 -0.236253 0.426116
 22 -4.250660 -0.770624 0.000001 -0.041778 0.088230 -2.915846
 23 10.363422 0.000000 0.000000 0.020602 0.021241 0.042566
 24 10.363076 0.000000 -0.000000 0.037176 -0.167799 -0.021293
 25 10.363081 -0.000004 -0.000002 0.055985 0.022847 -0.510898
 26 8.210358 -0.000006 -7.703991 0.000000 0.000000 -0.000000
 27 8.210346 -0.000002 7.704017 0.000000 0.000000 -0.000000
 28 1.854841 1.227791 -13.762345 1.998343 0.789612 1.844630
 29 10.456543 -0.000004 0.000004 0.061131 0.055179 -1.065571
 30 24.248093 0.000001 0.000007 0.055304 0.022119 1.545565
 31 26.336971 0.000019 0.000002 1.237938 0.173024 0.429764
 32 1.854847 1.227798 13.762341 -2.480726 -0.144089 2.061707
 33 10.456542 -0.000008 0.000004 -0.174981 -0.265369 -2.406561
 34 24.248116 0.000002 -0.000004 -0.137357 -0.017558 2.352132
 35 26.336975 0.000000 0.000004 -0.509539 -0.102677 0.463745
time 19
  0 0.000000 0.000000 0.000000 0.000000 -0.000000 -1.570796
  1 0.000000 0.000000 0.000000 0.000000 -0.000000 0.000000
  2 -11.023774 -2.951586 23.453335 -1.632723 -0.004630 1.647392
  3 4.222169 -0.467508 0.000000 0.008406 -0.000297 -0.172506
  4 4.476987 -0.000002 -0.000000 0.022985 0.066258 0.139790
  5 4.477083 0.000000 0.000002 0.014970 0.124902 0.165729
  6 4.477077 -0.000004 -0.000002 -0.008694 -0.014598 -0.007866
  7 5.413502 -7.700466 -0.000000 -0.009650 0.116185 0.253399
  8 6.890240 0.000002 -0.000000 -0.009923 -0.061376 -0.318561
  9 8.011925 0.000004 0.000005 0.008971 -0.113458 -0.204304
 10 7.210720 -0.000002 -0.000000 -0.021604 -0.140746 -0.433770
 11 7.811473 -0.304903 -0.000000 0.193472 0.038545 0.619802
 12 22.523008 2.194031 6.355708 0.000000 -0.000000 0.000000
 13 22.523005 2.194038 -6.355709 0.000000 -0.000000 0.000000
 14 -3.006533 7.804720 -11.355459 -0.199491 0.722942 -0.169094
 15 10.384675 0.000008 0.000005 -0.012154 -0.135883 -1.009396
 16 22.550743 -0.000006 -0.000004 -0.157757 -0.297261 1.883888
 17 30.814247 -0.000015 -0.000004 2.674844 -0.277612 0.641639
 18 -3.013796 7.815494 11.355459 0.204783 -0.638566 0.579312
 19 10.374533 -0.000002 0.000007 -0.336068 -0.718544 -1.865196
 20 22.550726 -0.000027 -0.000013 -0.139471 -0.039734 2.437887
 21 30.814270 -0.000023 0.000002 -2.821064 -0.226882 0.339541
 22 -4.250660 -0.770624 0.000001 -0.034432 0.069085 -2.958428
 23 10.363422 0.000000 0.000000 0.020182 0.022739 0.075025
 24 10.363076 0.000000 -0.000000 0.030585 -0.153837 0.054459
 25 10.363081 -0.000004 -0.000002 0.055640 0.023294 -0.405710
 26 8.210358 -0.000006 -7.703991 0.000000 0.000000 -0.000000
 27 8.210346 -0.000002 7.704017 0.000000 0.000000 -0.000000
 28 1.854841 1.227791 -13.762345 2.134222 0.735234 2.021495
 29 10.456543 -0.000004 0.000004 0.064485 0.055090 -1.027319
 30 24.248093 0.000001 0.000007 0.052449 0.022160 1.466235
 31 26.336971 0.000019 0.000002 1.118999 0.095634 0.478584
 32 1.854847 1.227798 13.762341 -2.407022 -0.267163 2.000531
 33 10.456542 -0.000008 0.000004 -0.215712 -0.283819 -2.497955
 34 24.248116 0.000002 -0.000004 -0.161089 -0.017342 2.491250
 35 26.336975 0.000000 0.000004 -0.668249 -0.228066 0.430230
time 20
  0 0.000000 0.000000 0.000000 0.000000 -0.000000 -1.570796
  1 0.000000 0.000000 0.000000 0.000000 -0.000000 0.000000
  2 -10.246407 -2.951586 24.105698 -1.620453 -0.003393 1.640586
  3 4.222169 -0.467508 0.000000 0.008406 -0.000297 -0.172506
  4 4.476987 -0.000002 -0.000000 0.018587 0.053600 0.138347
  5 4.477083 0.000000 0.000002 0.010177 0.113789 0.168842
  6 4.477077 -0.000004 -0.000002 -0.008694 -0.014598 -0.007866
  7 5.413502 -7.700466 -0.000000 -0.009716 0.112142 0.253399
  8 6.890240 0.000002 -0.000000 -0.011134 -0.082327 -0.297873
  9 8.011925 0.000004 0.000005 0.014118 -0.133220 -0.243239
 10 7.210720 -0.000002 -0.000000 -0.021714 -0.130241 -0.429318
 11 7.811473 -0.304903 -0.000000 0.190579 0.108045 0.624639
 12 22.523008 2.194031 6.355708 0.000000 -0.000000 0.000000
 13 22.523005 2.194038 -6.355709 0.000000 -0.000000 0.000000
 14 -3.006533 7.804720 -11.355459 -0.172524 0.717607 -0.149728
 15 10.384675 0.000008 0.000005 -0.014433 -0.167114 -0.965408
 16 22.550743 -0.000006 -0.000004 -0.080672 -0.333966 1.718572
 17 30.814247 -0.000015 -0.000004 2.714243 -0.235637 0.731312
 18 -3.013796 7.815494 11.355459 0.119046 -0.640472 0.777787
 19 10.374533 -0.000002 0.000007 -0.110581 -0.756019 -2.315105
 20 22.550726 -0.000027 -0.000013 -0.339023 -0.063428 2.656878
 21 30.814270 -0.000023 0.000002 -2.594199 -0.226148 0.270817
 22 -4.250660 -0.770624 0.000001 -0.025168 0.047116 -3.007771
 23 10.363422 0.000000 0.000000 0.019415 0.024668 0.110279
 24 10.363076 0.000000 -0.000000 0.024113 -0.135693 0.128094
 25 10.363081 -0.000004 -0.000002 0.055308 0.023756 -0.290267
 26 8.210358 -0.000006 -7.703991 0.000000 0.000000 -0.000000
 27 8.210346 -0.000002 7.704017 0.000000 0.000000 -0.000000
 28 1.854841 1.227791 -13.762345 2.247409 0.671038 2.167951
 29 10.456543 -0.000004 0.000004 0.069394 0.054147 -0.962016
 30 24.248093 0.000001 0.000007 0.048038 0.021716 1.332796
 31 26.336971 0.000019 0.000002 1.006107 0.030147 0.550709
 32 1.854847 1.227798 13.762341 -2.280106 -0.397160 1.874131
 33 10.456542 -0.000008 0.000004 -0.264649 -0.296008 -2.530942
 34 24.248116 0.000002 -0.000004 -0.174393 -0.017990 2.578579
 35 26.336975 0.000000 0.000004 -0.869027 -0.372782 0.395303
time 21
  0 0.000000 0.000000 0.000000 0.000000 -0.000000 -1.570796
  1 0.000000 0.000000 0.000000 0.000000 -0.000000 0.000000
  2 -9.172155 -2.951586 24.992443 -1.606649 -0.002037 1.631671
  3 4.222169 -0.467508 0.000000 0.008406 -0.000297 -0.172506
  4 4.476987 -0.000002 -0.000000 0.013445 0.039421 0.136749
  5 4.477083 0.000000 0.000002 0.004256 0.099557 0.172028
  6 4.477077 -0.000004 -0.000002 -0.008694 -0.014598 -0.007866
  7 5.413502 -7.700466 -0.000000 -0.009769 0.105260 0.253368
  8 6.890240 0.000002 -0.000000 -0.012524 -0.096730 -0.280559
  9 8.011925 0.000004 0.000005 0.018453 -0.147230 -0.273193
 10 7.210720 -0.000002 -0.000000 -0.021796 -0.116735 -0.425564
 11 7.811473 -0.304903 -0.000000 0.188191 0.155505 0.629266
 12 22.523008 2.194031 6.355708 0.000000 -0.000000 0.000000
 13 22.523005 2.194038 -6.355709 0.000000 -0.000000 0.000000
 14 -3.006533 7.804720 -11.355459 -0.146751 0.718561 -0.126928
 15 10.384675 0.000008 0.000005 -0.017832 -0.198642 -0.915534
 16 22.550743 -0.000006 -0.000004 0.000602 -0.365591 1.547870
 17 30.814247 -0.000015 -0.000004 2.757310 -0.192565 0.807734
 18 -3.013796 7.815494 11.355459 0.036567 -0.689086 0.985724
 19 10.374533 -0.000002 0.000007 0.057067 -0.789541 -2.659885
 20 22.550726 -0.000027 -0.000013 -0.510366 -0.082431 2.834924
 21 30.814270 -0.000023 0.000002 -2.361336 -0.192407 0.191884
 22 -4.250660 -0.770624 0.000001 -0.015232 0.025339 -3.057139
 23 10.363422 0.000000 0.000000 0.018205 0.026921 0.142452
 24 10.363076 0.000000 -0.000000 0.018540 -0.115103 0.190786
 25 10.363081 -0.000004 -0.000002 0.055209 0.024141 -0.175629
 26 8.210358 -0.000006 -7.703991 0.000000 0.000000 -0.000000
 27 8.210346 -0.000002 7.704017 0.000000 0.000000 -0.000000
 28 1.854841 1.227791 -13.762345 2.341908 0.609900 2.285213
 29 10.456543 -0.000004 0.000004 0.076574 0.051247 -0.850255
 30 24.248093 0.000001 0.000007 0.042217 0.020263 1.138616
 31 26.336971 0.000019 0.000002 0.895999 -0.023330 0.641888
 32 1.854847 1.227798 13.762341 -2.109838 -0.481107 1.698748
 33 10.456542 -0.000008 0.000004 -0.316775 -0.302687 -2.475333
 34 24.248116 0.000002 -0.000004 -0.159846 -0.021201 2.597771
 35 26.336975 0.000000 0.000004 -1.087302 -0.511510 0.350485
time 22
  0 0.000000 0.000000 0.000000 0.000000 -0.000000 -1.570796
  1 0.000000 0.000000 0.000000 0.000000 -0.000000 0.000000
  2 -7.746330 -2.951586 25.945597 -1.591790 -0.000561 1.620646
  3 4.222169 -0.467508 0.000000 0.008406 -0.000297 -0.172506
  4 4.476987 -0.000002 -0.000000 0.007801 0.024022 0.135106
  5 4.477083 0.000000 0.000002 -0.002659 0.082467 0.175126
  6 4.477077 -0.000004 -0.000002 -0.008694 -0.014598 -0.007866
  7 5.413502 -7.700466 -0.000000 -0.009783 0.095932 0.253368
  8 6.890240 0.000002 -0.000000 -0.013842 -0.106376 -0.266573
  9 8.011925 0.000004 0.000005 0.021086 -0.154116 -0.291025
 10 7.210720 -0.000002 -0.000000 -0.021879 -0.100863 -0.422962
 11 7.811473 -0.304903 -0.000000 0.184907 0.182564 0.633437
 12 22.523008 2.194031 6.355708 0.000000 -0.000000 0.000000
 13 22.523005 2.194038 -6.355709 0.000000 -0.000000 0.000000
 14 -3.006533 7.804720 -11.355459 -0.120598 0.719268 -0.104953
 15 10.384675 0.000008 0.000005 -0.023995 -0.226202 -0.868214
 16 22.550743 -0.000006 -0.000004 0.063197 -0.384904 1.410763
 17 30.814247 -0.000015 -0.000004 2.805052 -0.161029 0.853394
 18 -3.013796 7.815494 11.355459 -0.078699 -0.773760 1.254538
 19 10.374533 -0.000002 0.000007 0.103108 -0.883627 -2.779219
 20 22.550726 -0.000027 -0.000013 -0.603697 -0.113586 2.930586
 21 30.814270 -0.000023 0.000002 -2.148643 -0.059233 0.057169
 22 -4.250660 -0.770624 0.000001 -0.006472 0.006483 -3.099670
 23 10.363422 0.000000 0.000000 0.016383 0.029414 0.165888
 24 10.363076 0.000000 -0.000000 0.013950 -0.093902 0.234172
 25 10.363081 -0.000004 -0.000002 0.055049 0.024711 -0.067139
 26 8.210358 -0.000006 -7.703991 0.000000 0.000000 -0.000000
 27 8.210346 -0.000002 7.704017 0.000000 0.000000 -0.000000
 28 1.854841 1.227791 -13.762345 2.429679 0.555326 2.396514
 29 10.456543 -0.000004 0.000004 0.087773 0.043435 -0.659775
 30 24.248093 0.000001 0.000007 0.034469 0.017014 0.847938
 31 26.336971 0.000019 0.000002 0.794374 -0.064377 0.778185
 32 1.854847 1.227798 13.762341 -1.952704 -0.506143 1.542535
 33 10.456542 -0.000008 0.000004 -0.364288 -0.303299 -2.346025
 34 24.248116 0.000002 -0.000004 -0.117952 -0.027170 2.556544
 35 26.336975 0.000000 0.000004 -1.286151 -0.618535 0.310754
time 23
  0 0.000000 0.000000 0.000000 0.000000 -0.000000 -1.570796
  1 0.000000 0.000000 0.000000 0.000000 -0.000000 0.000000
  2 -5.910336 -2.951586 26.644836 -1.576452 0.000995 1.607992
  3 4.222169 -0.467508 0.000000 0.008406 -0.000297 -0.172506
  4 4.476987 -0.000002 -0.000000 0.001844 0.007744 0.133508
  5 4.477083 0.000000 0.000002 -0.010257 0.063325 0.178105
  6 4.477077 -0.000004 -0.000002 -0.008694 -0.014598 -0.007866
  7 5.413502 -7.700466 -0.000000 -0.009716 0.084599 0.253368
  8 6.890240 0.000002 -0.000000 -0.014813 -0.111016 -0.256939
  9 8.011925 0.000004 0.000005 0.021937 -0.153525 -0.298059
 10 7.210720 -0.000002 -0.000000 -0.021988 -0.083455 -0.422050
 11 7.811473 -0.304903 -0.000000 0.178592 0.192432 0.636907
 12 22.523008 2.194031 6.355708 0.000000 -0.000000 0.000000
 13 22.523005 2.194038 -6.355709 0.000000 -0.000000 0.000000
 14 -3.006533 7.804720 -11.355459 -0.097592 0.711778 -0.080436
 15 10.384675 0.000008 0.000005 -0.035798 -0.234095 -0.837668
 16 22.550743 -0.000006 -0.000004 0.094063 -0.386770 1.335581
 17 30.814247 -0.000015 -0.000004 2.855064 -0.138051 0.887308
 18 -3.013796 7.815494 11.355459 -0.254297 -0.847000 1.609650
 19 10.374533 -0.000002 0.000007 -0.051463 -1.076584 -2.579402
 20 22.550726 -0.000027 -0.000013 -0.587641 -0.176248 2.906205
 21 30.814270 -0.000023 0.000002 -1.979556 0.147662 -0.120498
 22 -4.250660 -0.770624 0.000001 0.002565 -0.011715 -3.139129
 23 10.363422 0.000000 0.000000 0.013734 0.031991 0.175021
 24 10.363076 0.000000 -0.000000 0.009887 -0.074068 0.249271
 25 10.363081 -0.000004 -0.000002 0.054150 0.026098 0.018155
 26 8.210358 -0.000006 -7.703991 0.000000 0.000000 -0.000000
 27 8.210346 -0.000002 7.704017 0.000000 0.000000 -0.000000
 28 1.854841 1.227791 -13.762345 2.521628 0.527964 2.519858
 29 10.456543 -0.000004 0.000004 0.100159 0.027793 -0.389272
 30 24.248093 0.000001 0.000007 0.027240 0.010719 0.475444
 31 26.336971 0.000019 0.000002 0.704452 -0.089762 0.953142
 32 1.854847 1.227798 13.762341 -1.847397 -0.511834 1.445473
 33 10.456542 -0.000008 0.000004 -0.402984 -0.294338 -2.199377
 34 24.248116 0.000002 -0.000004 -0.068673 -0.033606 2.481552
 35 26.336975 0.000000 0.000004 -1.437485 -0.680578 0.294251
time 24
  0 0.000000 0.000000 0.000000 0.000000 -0.000000 -1.570796
  1 0.000000 0.000000 0.000000 0.000000 -0.000000 0.000000
  2 -3.609485 -2.951586 26.918283 -1.561210 0.002550 1.593708
  3 4.222169 -0.467508 0.000000 0.008406 -0.000297 -0.172506
  4 4.476987 -0.000002 -0.000000 -0.004220 -0.009048 0.132043
  5 4.477083 0.000000 0.000002 -0.018251 0.043133 0.180951
  6 4.477077 -0.000004 -0.000002 -0.008694 -0.014598 -0.007866
  7 5.413502 -7.700466 -0.000000 -0.009690 0.067642 0.253368
  8 6.890240 0.000002 -0.000000 -0.015208 -0.110689 -0.252494
  9 8.011925 0.000004 0.000005 0.021453 -0.145489 -0.297385
 10 7.210720 -0.000002 -0.000000 -0.022098 -0.054042 -0.422345
 11 7.811473 -0.304903 -0.000000 0.167409 0.188283 0.639360
 12 22.523008 2.194031 6.355708 0.000000 -0.000000 0.000000
 13 22.523005 2.194038 -6.355709 0.000000 -0.000000 0.000000
 14 -3.006533 7.804720 -11.355459 -0.085980 0.664506 -0.033258
 15 10.384675 0.000008 0.000005 -0.050215 -0.212666 -0.842888
 16 22.550743 -0.000006 -0.000004 0.117764 -0.378734 1.272264
 17 30.814247 -0.000015 -0.000004 2.908353 -0.133945 0.909547
 18 -3.013796 7.815494 11.355459 -0.435547 -0.900061 1.944355
 19 10.374533 -0.000002 0.000007 -0.478707 -1.205022 -2.046227
 20 22.550726 -0.000027 -0.000013 -0.496925 -0.233139 2.792367
 21 30.814270 -0.000023 0.000002 -1.859440 0.345014 -0.219094
 22 -4.250660 -0.770624 0.000001 0.013435 -0.031004 3.103522
 23 10.363422 0.000000 0.000000 0.010211 0.035682 0.152531
 24 10.363076 0.000000 -0.000000 0.006124 -0.051825 0.246948
 25 10.363081 -0.000004 -0.000002 0.053067 0.027777 0.094750
 26 8.210358 -0.000006 -7.703991 0.000000 0.000000 -0.000000
 27 8.210346 -0.000002 7.704017 0.000000 0.000000 -0.000000
 28 1.854841 1.227791 -13.762345 2.574704 0.504353 2.568393
 29 10.456543 -0.000004 0.000004 0.106256 0.021654 -0.291015
 30 24.248093 0.000001 0.000007 0.023681 0.007833 0.328566
 31 26.336971 0.000019 0.000002 0.640284 -0.096016 1.028139
 32 1.854847 1.227798 13.762341 -1.776393 -0.538786 1.384126
 33 10.456542 -0.000008 0.000004 -0.406748 -0.258245 -2.032314
 34 24.248116 0.000002 -0.000004 -0.023955 -0.037021 2.398995
 35 26.336975 0.000000 0.000004 -1.535987 -0.696864 0.271475
time 25
  0 0.000000 0.000000 0.000000 0.000000 -0.000000 -1.570796
  1 0.000000 0.000000 0.000000 0.000000 -0.000000 0.000000
  2 -0.824244 -2.951586 26.879219 -1.546352 0.004106 1.578082
  3 4.222169 -0.467508 0.000000 0.008406 -0.000297 -0.172506
  4 4.476987 -0.000002 -0.000000 -0.010176 -0.026075 0.130822
  5 4.477083 0.000000 0.000002 -0.026280 0.022780 0.183604
  6 4.477077 -0.000004 -0.000002 -0.008694 -0.014598 -0.007866
  7 5.413502 -7.700466 -0.000000 -0.009729 0.043820 0.253368
  8 6.890240 0.000002 -0.000000 -0.014861 -0.105357 -0.254100
  9 8.011925 0.000004 0.000005 0.020195 -0.129817 -0.292089
 10 7.210720 -0.000002 -0.000000 -0.022235 -0.010752 -0.423338
 11 7.811473 -0.304903 -0.000000 0.140059 0.169743 0.639956
 12 22.523008 2.194031 6.355708 0.000000 -0.000000 0.000000
 13 22.523005 2.194038 -6.355709 0.000000 -0.000000 0.000000
 14 -3.006533 7.804720 -11.355459 -0.069973 0.580667 0.063091
 15 10.384675 0.000008 0.000005 -0.063998 -0.160325 -0.882099
 16 22.550743 -0.000006 -0.000004 0.141274 -0.346421 1.194661
 17 30.814247 -0.000015 -0.000004 2.962646 -0.135450 0.928850
 18 -3.013796 7.815494 11.355459 -0.580496 -0.975243 2.175948
 19 10.374533 -0.000002 0.000007 -0.899750 -1.173228 -1.490148
 20 22.550726 -0.000027 -0.000013 -0.389989 -0.266060 2.657560
 21 30.814270 -0.000023 0.000002 -1.776896 0.489371 -0.206543
 22 -4.250660 -0.770624 0.000001 0.025875 -0.050566 3.062681
 23 10.363422 0.000000 0.000000 0.005836 0.040740 0.095359
 24 10.363076 0.000000 -0.000000 0.002673 -0.025195 0.238844
 25 10.363081 -0.000004 -0.000002 0.051996 0.029564 0.169090
 26 8.210358 -0.000006 -7.703991 0.000000 0.000000 -0.000000
 27 8.210346 -0.000002 7.704017 0.000000 0.000000 -0.000000
 28 1.854841 1.227791 -13.762345 2.557730 0.442895 2.468161
 29 10.456543 -0.000004 0.000004 0.102518 0.041388 -0.539634
 30 24.248093 0.000001 0.000007 0.024386 0.014331 0.566673
 31 26.336971 0.000019 0.000002 0.592648 -0.092521 0.940385
 32 1.854847 1.227798 13.762341 -1.720785 -0.605221 1.334841
 33 10.456542 -0.000008 0.000004 -0.367544 -0.180102 -1.823396
 34 24.248116 0.000002 -0.000004 -0.005975 -0.036134 2.300953
 35 26.336975 0.000000 0.000004 -1.592422 -0.663950 0.217389
time 26
  0 0.000000 0.000000 0.000000 0.000000 -0.000000 -1.570796
  1 0.000000 0.000000 0.000000 0.000000 -0.000000 0.000000
  2 2.324290 -2.951586 26.640930 -1.532452 0.005502 1.561594
  3 4.222169 -0.467508 0.000000 0.008406 -0.000297 -0.172506
  4 4.476987 -0.000002 -0.000000 -0.015797 -0.042867 0.129890
  5 4.477083 0.000000 0.000002 -0.033951 0.003412 0.185976
  6 4.477077 -0.000004 -0.000002 -0.008694 -0.014598 -0.007866
  7 5.413502 -7.700466 -0.000000 -0.009836 0.015394 0.253368
  8 6.890240 0.000002 -0.000000 -0.013734 -0.095031 -0.262617
  9 8.011925 0.000004 0.000005 0.018611 -0.106988 -0.284380
 10 7.210720 -0.000002 -0.000000 -0.022373 0.037799 -0.425027
 11 7.811473 -0.304903 -0.000000 0.095854 0.139526 0.639430
 12 22.523008 2.194031 6.355708 0.000000 -0.000000 0.000000
 13 22.523005 2.194038 -6.355709 0.000000 -0.000000 0.000000
 14 -3.006533 7.804720 -11.355459 -0.048541 0.478739 0.183681
 15 10.384675 0.000008 0.000005 -0.074867 -0.103061 -0.928197
 16 22.550743 -0.000006 -0.000004 0.161584 -0.308224 1.116271
 17 30.814247 -0.000015 -0.000004 3.015847 -0.132158 0.948761
 18 -3.013796 7.815494 11.355459 -0.744078 -1.067391 2.355669
 19 10.374533 -0.000002 0.000007 -0.997292 -1.055919 -1.237216
 20 22.550726 -0.000027 -0.000013 -0.292613 -0.228094 2.515185
 21 30.814270 -0.000023 0.000002 -1.694808 0.581490 -0.105967
 22 -4.250660 -0.770624 0.000001 0.038962 -0.069069 3.023837
 23 10.363422 0.000000 0.000000 0.000707 0.046396 0.014267
 24 10.363076 0.000000 -0.000000 -0.000539 0.003664 0.227772
 25 10.363081 -0.000004 -0.000002 0.050949 0.031490 0.239913
 26 8.210358 -0.000006 -7.703991 0.000000 0.000000 -0.000000
 27 8.210346 -0.000002 7.704017 0.000000 0.000000 -0.000000
 28 1.854841 1.227791 -13.762345 2.536447 0.371370 2.344270
 29 10.456543 -0.000004 0.000004 0.087982 0.064753 -0.872095
 30 24.248093 0.000001 0.000007 0.027982 0.021494 0.853503
 31 26.336971 0.000019 0.000002 0.547839 -0.091601 0.833356
 32 1.854847 1.227798 13.762341 -1.666224 -0.680193 1.285814
 33 10.456542 -0.000008 0.000004 -0.291543 -0.074937 -1.584290
 34 24.248116 0.000002 -0.000004 -0.012581 -0.026678 2.184835
 35 26.336975 0.000000 0.000004 -1.627114 -0.589840 0.166128
time 27
  0 0.000000 0.000000 0.000000 0.000000 -0.000000 -1.570796
  1 0.000000 0.000000 0.000000 0.000000 -0.000000 0.000000
  2 5.547044 -2.951586 26.164354 -1.520086 0.006659 1.544146
  3 4.222169 -0.467508 0.000000 0.008406 -0.000297 -0.172506
  4 4.476987 -0.000002 -0.000000 -0.020890 -0.059101 0.129313
  5 4.477083 0.000000 0.000002 -0.040902 -0.014034 0.187991
  6 4.477077 -0.000004 -0.000002 -0.008694 -0.014598 -0.007866
  7 5.413502 -7.700466 -0.000000 -0.009969 -0.015224 0.253368
  8 6.890240 0.000002 -0.000000 -0.011901 -0.079713 -0.278768
  9 8.011925 0.000004 0.000005 0.016515 -0.078616 -0.273453
 10 7.210720 -0.000002 -0.000000 -0.022428 0.082343 -0.427548
 11 7.811473 -0.304903 -0.000000 0.043291 0.103248 0.639500
 12 22.523008 2.194031 6.355708 0.000000 -0.000000 0.000000
 13 22.523005 2.194038 -6.355709 0.000000 -0.000000 0.000000
 14 -3.006533 7.804720 -11.355459 -0.036387 0.376352 0.299327
 15 10.384675 0.000008 0.000005 -0.053614 -0.037884 -0.987180
 16 22.550743 -0.000006 -0.000004 0.177129 -0.269539 1.043631
 17 30.814247 -0.000015 -0.000004 3.060269 -0.083632 0.968529
 18 -3.013796 7.815494 11.355459 -0.964785 -1.155764 2.520058
 19 10.374533 -0.000002 0.000007 -0.905749 -0.937780 -1.176969
 20 22.550726 -0.000027 -0.000013 -0.234049 -0.138419 2.401285
 21 30.814270 -0.000023 0.000002 -1.593706 0.601186 0.062190
 22 -4.250660 -0.770624 0.000001 0.051821 -0.085502 2.988705
 23 10.363422 0.000000 0.000000 -0.004866 0.051933 -0.078885
 24 10.363076 0.000000 -0.000000 -0.003595 0.032415 0.215176
 25 10.363081 -0.000004 -0.000002 0.049915 0.033570 0.307542
 26 8.210358 -0.000006 -7.703991 0.000000 0.000000 -0.000000
 27 8.210346 -0.000002 7.704017 0.000000 0.000000 -0.000000
 28 1.854841 1.227791 -13.762345 2.509183 0.292888 2.189725
 29 10.456543 -0.000004 0.000004 0.064922 0.082102 -1.210939
 30 24.248093 0.000001 0.000007 0.033061 0.027607 1.097589
 31 26.336971 0.000019 0.000002 0.511035 -0.086477 0.769349
 32 1.854847 1.227798 13.762341 -1.645763 -0.786713 1.271081
 33 10.456542 -0.000008 0.000004 -0.189835 0.033233 -1.334818
 34 24.248116 0.000002 -0.000004 -0.022984 -0.017127 2.066027
 35 26.336975 0.000000 0.000004 -1.655417 -0.481574 0.154599
time 28
  0 0.000000 0.000000 0.000000 0.000000 -0.000000 -1.570796
  1 0.000000 0.000000 0.000000 0.000000 -0.000000 0.000000
  2 8.390881 -2.951586 25.340111 -1.509733 0.007457 1.525932
  3 4.222169 -0.467508 0.000000 0.008406 -0.000297 -0.172506
  4 4.476987 -0.000002 -0.000000 -0.025253 -0.074437 0.129135
  5 4.477083 0.000000 0.000002 -0.046774 -0.028621 0.189488
  6 4.477077 -0.000004 -0.000002 -0.008694 -0.014598 -0.007866
  7 5.413502 -7.700466 -0.000000 -0.010088 -0.045689 0.253337
  8 6.890240 0.000002 -0.000000 -0.009540 -0.059324 -0.303482
  9 8.011925 0.000004 0.000005 0.013712 -0.046617 -0.257697
 10 7.210720 -0.000002 -0.000000 -0.022400 0.115834 -0.430873
 11 7.811473 -0.304903 -0.000000 -0.008469 0.066918 0.640867
 12 22.523008 2.194031 6.355708 0.000000 -0.000000 0.000000
 13 22.523005 2.194038 -6.355709 0.000000 -0.000000 0.000000
 14 -3.006533 7.804720 -11.355459 -0.004862 0.295657 0.415247
 15 10.384675 0.000008 0.000005 -0.030568 0.029436 -1.051605
 16 22.550743 -0.000006 -0.000004 0.174698 -0.236336 1.017965
 17 30.814247 -0.000015 -0.000004 3.083331 0.001008 0.961832
 18 -3.013796 7.815494 11.355459 -1.209777 -1.249032 2.641469
 19 10.374533 -0.000002 0.000007 -0.765739 -0.864159 -1.183231
 20 22.550726 -0.000027 -0.000013 -0.204041 -0.041559 2.340364
 21 30.814270 -0.000023 0.000002 -1.517687 0.527246 0.239802
 22 -4.250660 -0.770624 0.000001 0.063446 -0.098998 2.959182
 23 10.363422 0.000000 0.000000 -0.010415 0.056763 -0.172081
 24 10.363076 0.000000 -0.000000 -0.006388 0.058793 0.202607
 25 10.363081 -0.000004 -0.000002 0.048943 0.035788 0.369747
 26 8.210358 -0.000006 -7.703991 0.000000 0.000000 -0.000000
 27 8.210346 -0.000002 7.704017 0.000000 0.000000 -0.000000
 28 1.854841 1.227791 -13.762345 2.492254 0.211125 2.036214
 29 10.456543 -0.000004 0.000004 0.035048 0.090501 -1.550956
 30 24.248093 0.000001 0.000007 0.038955 0.032793 1.303314
 31 26.336971 0.000019 0.000002 0.477363 -0.082325 0.712190
 32 1.854847 1.227798 13.762341 -1.628713 -0.896763 1.260224
 33 10.456542 -0.000008 0.000004 -0.079480 0.123259 -1.104658
 34 24.248116 0.000002 -0.000004 -0.033528 -0.008582 1.951534
 35 26.336975 0.000000 0.000004 -1.682905 -0.369959 0.144765
time 29
  0 0.000000 0.000000 0.000000 0.000000 -0.000000 -1.570796
  1 0.000000 0.000000 0.000000 0.000000 -0.000000 0.000000
  2 10.457351 -2.951586 24.144760 -1.501680 0.007776 1.508485
  3 4.222169 -0.467508 0.000000 0.008406 -0.000297 -0.172506
  4 4.476987 -0.000002 -0.000000 -0.028704 -0.088573 0.129424
  5 4.477083 0.000000 0.000002 -0.051220 -0.039379 0.190333
  6 4.477077 -0.000004 -0.000002 -0.008694 -0.014598 -0.007866
  7 5.413502 -7.700466 -0.000000 -0.010168 -0.073623 0.253306
  8 6.890240 0.000002 -0.000000 -0.007059 -0.034426 -0.335387
  9 8.011925 0.000004 0.000005 0.010045 -0.012940 -0.235504
 10 7.210720 -0.000002 -0.000000 -0.022345 0.138062 -0.435084
 11 7.811473 -0.304903 -0.000000 -0.050516 0.036599 0.643111
 12 22.523008 2.194031 6.355708 0.000000 -0.000000 0.000000
 13 22.523005 2.194038 -6.355709 0.000000 -0.000000 0.000000
 14 -3.006533 7.804720 -11.355459 0.019772 0.215246 0.528077
 15 10.384675 0.000008 0.000005 0.009248 0.097647 -1.200951
 16 22.550743 -0.000006 -0.000004 0.153188 -0.218629 1.082736
 17 30.814247 -0.000015 -0.000004 3.103205 0.087747 0.952521
 18 -3.013796 7.815494 11.355459 -1.377433 -1.397454 2.644148
 19 10.374533 -0.000002 0.000007 -0.638940 -0.852996 -1.171750
 20 22.550726 -0.000027 -0.000013 -0.152892 0.034825 2.327275
 21 30.814270 -0.000023 0.000002 -1.540665 0.380614 0.366819
 22 -4.250660 -0.770624 0.000001 0.072734 -0.108739 2.937238
 23 10.363422 0.000000 0.000000 -0.015208 0.060562 -0.253195
 24 10.363076 0.000000 -0.000000 -0.008665 0.080521 0.191638
 25 10.363081 -0.000004 -0.000002 0.048265 0.037237 0.400407
 26 8.210358 -0.000006 -7.703991 0.000000 0.000000 -0.000000
 27 8.210346 -0.000002 7.704017 0.000000 0.000000 -0.000000
 28 1.854841 1.227791 -13.762345 2.469036 0.136739 1.884954
 29 10.456543 -0.000004 0.000004 0.003602 0.087138 -1.884242
 30 24.248093 0.000001 0.000007 0.045368 0.036042 1.487252
 31 26.336971 0.000019 0.000002 0.477885 -0.075466 0.687836
 32 1.854847 1.227798 13.762341 -1.656939 -1.002846 1.305072
 33 10.456542 -0.000008 0.000004 0.015920 0.187488 -0.926480
 34 24.248116 0.000002 -0.000004 -0.035225 0.004086 1.896547
 35 26.336975 0.000000 0.000004 -1.708506 -0.259646 0.131483
time 30
  0 0.000000 0.000000 0.000000 0.000000 -0.000000 -1.570796
  1 0.000000 0.000000 0.000000 0.000000 -0.000000 0.000000
  2 11.629261 -2.951586 23.074415 -1.495929 0.007776 1.497364
  3 4.222169 -0.467508 0.000000 0.008406 -0.000297 -0.172506
  4 4.476987 -0.000002 -0.000000 -0.030969 -0.099946 0.130067
  5 4.477083 0.000000 0.000002 -0.053845 -0.045323 0.190407
  6 4.477077 -0.000004 -0.000002 -0.008694 -0.014598 -0.007866
  7 5.413502 -7.700466 -0.000000 -0.010195 -0.096612 0.253212
  8 6.890240 0.000002 -0.000000 -0.004842 -0.007829 -0.365686
  9 8.011925 0.000004 0.000005 0.005448 0.020529 -0.205265
 10 7.210720 -0.000002 -0.000000 -0.022345 0.150632 -0.440152
 11 7.811473 -0.304903 -0.000000 -0.076051 0.017154 0.644898
 12 22.523008 2.194031 6.355708 0.000000 -0.000000 0.000000
 13 22.523005 2.194038 -6.355709 0.000000 -0.000000 0.000000
 14 -3.006533 7.804720 -11.355459 0.052219 0.163239 0.677029
 15 10.384675 0.000008 0.000005 0.028895 0.166134 -1.451323
 16 22.550743 -0.000006 -0.000004 0.117572 -0.214583 1.249201
 17 30.814247 -0.000015 -0.000004 3.104385 0.161509 0.897264
 18 -3.013796 7.815494 11.355459 1.218150 -1.472749 -0.117175
 19 10.374533 -0.000002 0.000007 -0.571665 -0.889839 -1.047198
 20 22.550726 -0.000027 -0.000013 -0.031902 0.087024 2.318899
 21 30.814270 -0.000023 0.000002 -1.715225 0.215485 0.433507
 22 -4.250660 -0.770624 0.000001 0.078583 -0.113922 2.924870
 23 10.363422 0.000000 0.000000 -0.018432 0.063223 -0.310477
 24 10.363076 0.000000 -0.000000 -0.010091 0.095298 0.183869
 25 10.363081 -0.000004 -0.000002 0.047453 0.038438 0.429106
 26 8.210358 -0.000006 -7.703991 0.000000 0.000000 -0.000000
 27 8.210346 -0.000002 7.704017 0.000000 0.000000 -0.000000
 28 1.854841 1.227791 -13.762345 2.434649 0.096474 1.784661
 29 10.456543 -0.000004 0.000004 -0.020682 0.075465 -2.158131
 30 24.248093 0.000001 0.000007 0.052301 0.037979 1.671072
 31 26.336971 0.000019 0.000002 0.481453 -0.068240 0.664751
 32 1.854847 1.227798 13.762341 -1.774334 -1.080691 1.454650
 33 10.456542 -0.000008 0.000004 0.079475 0.227840 -0.821529
 34 24.248116 0.000002 -0.000004 -0.030614 0.010869 1.905432
 35 26.336975 0.000000 0.000004 -1.684706 -0.158609 0.108142
time 31
  0 0.000000 0.000000 0.000000 0.000000 -0.000000 -1.570796
  1 0.000000 0.000000 0.000000 0.000000 -0.000000 0.000000
  2 11.996460 -2.951586 22.730656 -1.492478 0.007776 1.499377
  3 4.222169 -0.467508 0.000000 0.008406 -0.000297 -0.172506
  4 4.476987 -0.000002 -0.000000 -0.031653 -0.102516 0.130400
  5 4.477083 0.000000 0.000002 -0.054312 -0.045517 0.189548
  6 4.477077 -0.000004 -0.000002 -0.008694 -0.014598 -0.007866
  7 5.413502 -7.700466 -0.000000 -0.010115 -0.112295 0.253088
  8 6.890240 0.000002 -0.000000 -0.002613 0.017082 -0.383745
  9 8.011925 0.000004 0.000005 -0.000144 0.051984 -0.165343
 10 7.210720 -0.000002 -0.000000 -0.022455 0.155170 -0.446132
 11 7.811473 -0.304903 -0.000000 -0.086293 0.009915 0.645599
 12 22.523008 2.194031 6.355708 0.000000 -0.000000 0.000000
 13 22.523005 2.194038 -6.355709 0.000000 -0.000000 0.000000
 14 -3.006533 7.804720 -11.355459 0.077233 0.135152 0.859082
 15 10.384675 0.000008 0.000005 0.008464 0.219706 -1.797889
 16 22.550743 -0.000006 -0.000004 0.073065 -0.217797 1.509916
 17 30.814247 -0.000015 -0.000004 3.097483 0.193295 0.806445
 18 -3.013796 7.815494 11.355459 1.281282 -1.069782 -0.338621
 19 10.374533 -0.000002 0.000007 -0.647299 -0.923261 -0.682702
 20 22.550726 -0.000027 -0.000013 0.173369 0.135768 2.219702
 21 30.814270 -0.000023 0.000002 -2.046840 0.063201 0.489931
 22 -4.250660 -0.770624 0.000001 0.079961 -0.113746 2.924025
 23 10.363422 0.000000 0.000000 -0.019271 0.064721 -0.332571
 24 10.363076 0.000000 -0.000000 -0.010283 0.100859 0.180953
 25 10.363081 -0.000004 -0.000002 0.046800 0.039470 0.457591
 26 8.210358 -0.000006 -7.703991 0.000000 0.000000 -0.000000
 27 8.210346 -0.000002 7.704017 0.000000 0.000000 -0.000000
 28 1.854841 1.227791 -13.762345 2.372074 0.121565 1.767266
 29 10.456543 -0.000004 0.000004 -0.033574 0.063934 -2.334804
 30 24.248093 0.000001 0.000007 0.061161 0.036768 1.904383
 31 26.336971 0.000019 0.000002 0.541140 -0.054627 0.605880
 32 1.854847 1.227798 13.762341 -2.023269 -1.092812 1.758027
 33 10.456542 -0.000008 0.000004 0.100942 0.244426 -0.794020
 34 24.248116 0.000002 -0.000004 -0.025730 0.017377 1.916450
 35 26.336975 0.000000 0.000004 -1.582430 -0.065048 0.078640
end
