version 1
nodes
  0 "Chaurus" -1
  1 "NPC Root [Root]" 0
  2 "Pelvis [Pelv]" 1
  3 "Spine[Spn0]" 2
  4 "Spine[Spn1]" 3
  5 "Spine[Spn2]" 4
  6 "Ribcage[Spn3]" 5
  7 "[Neck0]" 6
  8 "[Neck1]" 7
  9 "[Neck2]" 8
 10 "[Neck3]" 9
 11 "NPC Head [Head]" 10
 12 "Head[LeftPincher]" 11
 13 "Head[RightPincher]" 11
 14 "R UpperArm[RClv]" 6
 15 "R UpperArm[RUar]" 14
 16 "R UpperArm[RLar]" 15
 17 "R UpperArm[RHnd]" 16
 18 "L UpperArm[RClv]" 6
 19 "L UpperArm[LUar]" 18
 20 "L UpperArm[LLar]" 19
 21 "L UpperArm[LHnd]" 20
 22 "Tail[Tal0]" 2
 23 "Tail[Tal1]" 22
 24 "Tail[Tal2]" 23
 25 "Tail[Tal3]" 24
 26 "[TalRightPincher]" 25
 27 "[TalLeftPincher]" 25
 28 "R Leg[RThg0]" 2
 29 "R Leg[RThg1]" 28
 30 "R Leg[RClf]" 29
 31 "R Leg[RAnkle]" 30
 32 "LLeg[RThg0]" 2
 33 "LLeg[LThg1]" 32
 34 "LLeg[LClf]" 33
 35 "LLeg[LAnkle]" 34
end
skeleton
time 0
  0 0.000000 0.000000 0.000000 0.000000 -0.000000 -1.570796
  1 0.000000 0.000000 0.000000 0.000000 -0.000000 0.000000
  2 3.597766 -2.951586 29.996502 -1.492478 0.007776 1.499377
  3 4.222169 -0.467508 0.000000 -0.042768 0.002243 0.105033
  4 4.476987 -0.000002 -0.000000 -0.041108 -0.092599 0.282275
  5 4.477083 0.000000 0.000002 -0.051951 -0.062995 -0.131905
  6 4.477077 -0.000004 -0.000002 -0.041316 -0.020969 -0.239234
  7 5.413502 -7.700466 -0.000000 0.008958 -0.112464 0.086684
  8 6.890240 0.000002 -0.000000 0.001522 0.016729 -0.147959
  9 8.011925 0.000004 0.000005 -0.000144 0.051984 -0.165343
 10 7.210720 -0.000002 -0.000000 -0.022455 0.155170 -0.446132
 11 7.811473 -0.304903 -0.000000 -0.085328 0.045288 0.659549
 12 22.523008 2.194031 6.355708 0.000000 -0.000000 0.000000
 13 22.523005 2.194038 -6.355709 0.000000 -0.000000 0.000000
 14 -3.006533 7.804720 -11.355459 0.171537 0.159918 0.934279
 15 10.384675 0.000008 0.000005 -0.208846 0.253292 -1.723077
 16 22.550743 -0.000006 -0.000004 -0.105893 -0.538897 1.986128
 17 30.814247 -0.000015 -0.000004 3.027684 0.381288 0.462652
 18 -3.013796 7.815494 11.355459 0.788803 -0.125105 0.159676
 19 10.374533 -0.000002 0.000007 0.093940 -1.277314 -1.622760
 20 22.550726 -0.000027 -0.000013 0.045904 0.072870 2.375602
 21 30.814270 -0.000023 0.000002 -2.835237 -0.495458 0.602166
 22 -4.250660 -0.770624 0.000001 0.079961 -0.113746 2.924025
 23 10.363422 0.000000 0.000000 -0.019271 0.064721 -0.332571
 24 10.363076 0.000000 -0.000000 -0.010283 0.100859 0.180953
 25 10.363081 -0.000004 -0.000002 0.030807 0.052858 0.117678
 26 8.210358 -0.000006 -7.786025 0.000000 0.000000 0.001732
 27 8.210346 -0.000002 7.704017 0.000000 0.000000 0.003594
 28 1.854841 1.227791 -13.762345 2.735163 0.203329 1.737768
 29 10.456543 -0.000004 0.000004 -0.098092 0.047527 -1.753072
 30 24.248093 0.000001 0.000007 0.036063 0.032551 1.155607
 31 26.336971 0.000019 0.000002 0.204378 -0.023803 0.782990
 32 1.854847 1.227798 13.762341 2.778692 -0.602430 2.416739
 33 10.456542 -0.000008 0.000004 1.015633 0.287505 -0.076306
 34 24.248116 0.000002 -0.000004 -0.073363 -0.131592 0.448455
 35 26.336975 0.000000 0.000004 -0.815595 0.108797 0.884455
time 1
  0 0.000000 0.000000 0.000000 0.000000 -0.000000 -1.570796
  1 0.000000 0.000000 0.000000 0.000000 -0.000000 0.000000
  2 3.597766 -2.951586 29.996502 -1.492478 0.007776 1.499377
  3 4.222169 -0.467508 0.000000 -0.042768 0.002243 0.105033
  4 4.476987 -0.000002 -0.000000 -0.041108 -0.092599 0.282275
  5 4.477083 0.000000 0.000002 -0.051951 -0.062995 -0.131905
  6 4.477077 -0.000004 -0.000002 -0.041316 -0.020969 -0.239234
  7 5.413502 -7.700466 -0.000000 0.008958 -0.112464 0.086684
  8 6.890240 0.000002 -0.000000 0.001522 0.016729 -0.147959
  9 8.011925 0.000004 0.000005 -0.000144 0.051984 -0.165343
 10 7.210720 -0.000002 -0.000000 -0.022455 0.155170 -0.446132
 11 7.811473 -0.304903 -0.000000 -0.085328 0.045288 0.659549
 12 22.523008 2.194031 6.355708 0.000000 -0.000000 0.000000
 13 22.523005 2.194038 -6.355709 0.000000 -0.000000 0.000000
 14 -3.006533 7.804720 -11.355459 0.171537 0.159918 0.934279
 15 10.384675 0.000008 0.000005 -0.208846 0.253292 -1.723077
 16 22.550743 -0.000006 -0.000004 -0.105893 -0.538897 1.986128
 17 30.814247 -0.000015 -0.000004 3.027684 0.381288 0.462652
 18 -3.013796 7.815494 11.355459 0.788803 -0.125105 0.159676
 19 10.374533 -0.000002 0.000007 0.093940 -1.277314 -1.622760
 20 22.550726 -0.000027 -0.000013 0.045904 0.072870 2.375602
 21 30.814270 -0.000023 0.000002 -2.835237 -0.495458 0.602166
 22 -4.250660 -0.770624 0.000001 0.079961 -0.113746 2.924025
 23 10.363422 0.000000 0.000000 -0.019271 0.064721 -0.332571
 24 10.363076 0.000000 -0.000000 -0.010283 0.100859 0.180953
 25 10.363081 -0.000004 -0.000002 0.030807 0.052858 0.117678
 26 8.210358 -0.000006 -7.786025 0.000000 0.000000 0.001732
 27 8.210346 -0.000002 7.704017 0.000000 0.000000 0.003594
 28 1.854841 1.227791 -13.762345 2.735163 0.203329 1.737768
 29 10.456543 -0.000004 0.000004 -0.098092 0.047527 -1.753072
 30 24.248093 0.000001 0.000007 0.036063 0.032551 1.155607
 31 26.336971 0.000019 0.000002 0.204378 -0.023803 0.782990
 32 1.854847 1.227798 13.762341 2.778692 -0.602430 2.416739
 33 10.456542 -0.000008 0.000004 1.015633 0.287505 -0.076306
 34 24.248116 0.000002 -0.000004 -0.073363 -0.131592 0.448455
 35 26.336975 0.000000 0.000004 -0.815595 0.108797 0.884455
time 2
  0 0.000000 0.000000 0.000000 0.000000 -0.000000 -1.570796
  1 0.000000 0.000000 0.000000 0.000000 -0.000000 0.000000
  2 3.468856 -2.951586 29.762119 -1.495353 0.007616 1.501870
  3 4.222169 -0.467508 0.000000 -0.037807 0.001853 0.083075
  4 4.476987 -0.000002 -0.000000 -0.037729 -0.087395 0.275838
  5 4.477083 0.000000 0.000002 -0.050597 -0.061994 -0.129697
  6 4.477077 -0.000004 -0.000002 -0.039399 -0.021626 -0.233316
  7 5.413502 -7.700466 -0.000000 0.005370 -0.103000 0.118515
  8 6.890240 0.000002 -0.000000 -0.000168 0.003816 -0.178654
  9 8.011925 0.000004 0.000005 0.000013 0.033277 -0.164980
 10 7.210720 -0.000002 -0.000000 -0.022428 0.144224 -0.440233
 11 7.811473 -0.304903 -0.000000 -0.066866 0.059902 0.657025
 12 22.523008 2.194031 6.355708 0.000000 -0.000000 0.000000
 13 22.523005 2.194038 -6.355709 0.000000 -0.000000 0.000000
 14 -3.006533 7.804720 -11.355459 0.092372 0.165748 0.888955
 15 10.384675 0.000008 0.000005 -0.010735 0.221722 -1.628771
 16 22.550743 -0.000006 -0.000004 -0.083423 -0.526212 1.911793
 17 30.814247 -0.000015 -0.000004 -3.057154 0.436304 0.478910
 18 -3.013796 7.815494 11.355459 0.654495 -0.048764 0.205903
 19 10.374533 -0.000002 0.000007 0.029294 -1.109308 -1.581359
 20 22.550726 -0.000027 -0.000013 0.043943 0.073695 2.378889
 21 30.814270 -0.000023 0.000002 -2.921816 -0.493525 0.537095
 22 -4.250660 -0.770624 0.000001 0.078787 -0.111371 2.925997
 23 10.363422 0.000000 0.000000 -0.018576 0.064373 -0.325045
 24 10.363076 0.000000 -0.000000 -0.009000 0.096664 0.180282
 25 10.363081 -0.000004 -0.000002 0.031509 0.052288 0.122457
 26 8.210358 -0.000006 -7.786025 0.000000 0.000000 0.001766
 27 8.210346 -0.000002 7.704017 0.000000 0.000000 0.003594
 28 1.854841 1.227791 -13.762345 2.631122 0.283266 1.796703
 29 10.456543 -0.000004 0.000004 -0.098336 0.067956 -1.620513
 30 24.248093 0.000001 0.000007 0.035619 0.030291 1.065562
 31 26.336971 0.000019 0.000002 0.310570 -0.002070 0.830153
 32 1.854847 1.227798 13.762341 2.756071 -0.693545 2.463008
 33 10.456542 -0.000008 0.000004 1.023671 0.006908 -0.001819
 34 24.248116 0.000002 -0.000004 -0.044255 -0.003261 0.010742
 35 26.336975 0.000000 0.000004 -0.920744 0.043714 0.833759
time 3
  0 0.000000 0.000000 0.000000 0.000000 -0.000000 -1.570796
  1 0.000000 0.000000 0.000000 0.000000 -0.000000 0.000000
  2 3.140721 -2.951586 29.176165 -1.501872 0.007018 1.507526
  3 4.222169 -0.467508 0.000000 -0.032581 0.001446 0.059109
  4 4.476987 -0.000002 -0.000000 -0.033259 -0.080434 0.258169
  5 4.477083 0.000000 0.000002 -0.048128 -0.055646 -0.109361
  6 4.477077 -0.000004 -0.000002 -0.036235 -0.022604 -0.210953
  7 5.413502 -7.700466 -0.000000 0.001768 -0.085109 0.148821
  8 6.890240 0.000002 -0.000000 -0.001474 -0.019147 -0.226360
  9 8.011925 0.000004 0.000005 0.000105 0.014602 -0.164591
 10 7.210720 -0.000002 -0.000000 -0.022235 0.119701 -0.435003
 11 7.811473 -0.304903 -0.000000 -0.038000 0.082898 0.652329
 12 22.523008 2.194031 6.355708 0.000000 -0.000000 0.000000
 13 22.523005 2.194038 -6.355709 0.000000 -0.000000 0.000000
 14 -3.006533 7.804720 -11.355459 0.055963 0.275872 0.832986
 15 10.384675 0.000008 0.000005 0.327892 0.183977 -1.461598
 16 22.550743 -0.000006 -0.000004 -0.062889 -0.512810 1.839335
 17 30.814247 -0.000015 -0.000004 -2.902705 0.559375 0.517336
 18 -3.013796 7.815494 11.355459 0.499873 0.045402 0.279832
 19 10.374533 -0.000002 0.000007 0.028351 -0.960404 -1.589882
 20 22.550726 -0.000027 -0.000013 0.042799 0.074225 2.373120
 21 30.814270 -0.000023 0.000002 -3.006394 -0.498027 0.472359
 22 -4.250660 -0.770624 0.000001 0.076498 -0.105979 2.925228
 23 10.363422 0.000000 0.000000 -0.017390 0.063391 -0.308782
 24 10.363076 0.000000 -0.000000 -0.007095 0.090409 0.178965
 25 10.363081 -0.000004 -0.000002 0.033467 0.050655 0.137518
 26 8.210358 -0.000006 -7.786025 0.000000 0.000000 0.006692
 27 8.210346 -0.000002 7.704017 0.000000 0.000000 0.013699
 28 1.854841 1.227791 -13.762345 2.531082 0.367423 1.848644
 29 10.456543 -0.000004 0.000004 -0.107089 0.107887 -1.454304
 30 24.248093 0.000001 0.000007 0.038065 0.025065 0.935260
 31 26.336971 0.000019 0.000002 0.415545 0.013513 0.879415
 32 1.854847 1.227798 13.762341 2.749217 -0.682710 2.485755
 33 10.456542 -0.000008 0.000004 1.012615 0.155457 -0.041546
 34 24.248116 0.000002 -0.000004 -0.055110 -0.073251 0.246226
 35 26.336975 0.000000 0.000004 -0.867827 0.071385 1.026990
time 4
  0 0.000000 0.000000 0.000000 0.000000 -0.000000 -1.570796
  1 0.000000 0.000000 0.000000 0.000000 -0.000000 0.000000
  2 2.664144 -2.951586 28.344109 -1.511458 0.006101 1.515962
  3 4.222169 -0.467508 0.000000 -0.026996 0.001038 0.032980
  4 4.476987 -0.000002 -0.000000 -0.027997 -0.071717 0.232997
  5 4.477083 0.000000 0.000002 -0.044497 -0.044629 -0.077184
  6 4.477077 -0.000004 -0.000002 -0.032232 -0.023243 -0.177658
  7 5.413502 -7.700466 -0.000000 -0.001475 -0.060319 0.176949
  8 6.890240 0.000002 -0.000000 -0.001918 -0.042843 -0.274067
  9 8.011925 0.000004 0.000005 0.000367 -0.018132 -0.164305
 10 7.210720 -0.000002 -0.000000 -0.022043 0.085397 -0.430552
 11 7.811473 -0.304903 -0.000000 -0.008607 0.106389 0.648298
 12 22.523008 2.194031 6.355708 0.000000 -0.000000 0.000000
 13 22.523005 2.194038 -6.355709 0.000000 -0.000000 0.000000
 14 -3.006533 7.804720 -11.355459 0.008920 0.264461 0.792194
 15 10.384675 0.000008 0.000005 0.460863 0.203327 -1.392618
 16 22.550743 -0.000006 -0.000004 -0.055580 -0.512925 1.788306
 17 30.814247 -0.000015 -0.000004 -2.806130 0.654046 0.580365
 18 -3.013796 7.815494 11.355459 0.350139 0.147750 0.340652
 19 10.374533 -0.000002 0.000007 0.025587 -0.813494 -1.595913
 20 22.550726 -0.000027 -0.000013 0.042023 0.074618 2.361209
 21 30.814270 -0.000023 0.000002 -3.052841 -0.544050 0.404528
 22 -4.250660 -0.770624 0.000001 0.073226 -0.098340 2.922950
 23 10.363422 0.000000 0.000000 -0.014621 0.061389 -0.272957
 24 10.363076 0.000000 -0.000000 -0.004638 0.082403 0.177133
 25 10.363081 -0.000004 -0.000002 0.036286 0.048144 0.158888
 26 8.210358 -0.000006 -7.786025 0.000000 0.000000 0.013282
 27 8.210346 -0.000002 7.704017 0.000000 0.000000 0.027161
 28 1.854841 1.227791 -13.762345 2.462615 0.437615 1.916033
 29 10.456543 -0.000004 0.000004 -0.109639 0.151501 -1.271118
 30 24.248093 0.000001 0.000007 0.041253 0.020162 0.803596
 31 26.336971 0.000019 0.000002 0.484890 0.002029 0.938396
 32 1.854847 1.227798 13.762341 2.741553 -0.670014 2.510914
 33 10.456542 -0.000008 0.000004 0.975547 0.424505 -0.125057
 34 24.248116 0.000002 -0.000004 -0.118845 -0.188614 0.696125
 35 26.336975 0.000000 0.000004 -0.781374 0.117049 0.870213
time 5
  0 0.000000 0.000000 0.000000 0.000000 -0.000000 -1.570796
  1 0.000000 0.000000 0.000000 0.000000 -0.000000 0.000000
  2 2.097720 -2.951586 27.387047 -1.523728 0.004864 1.526603
  3 4.222169 -0.467508 0.000000 -0.021016 0.000704 0.004736
  4 4.476987 -0.000002 -0.000000 -0.022257 -0.061286 0.203963
  5 4.477083 0.000000 0.000002 -0.039679 -0.029703 -0.039448
  6 4.477077 -0.000004 -0.000002 -0.027809 -0.022923 -0.138913
  7 5.413502 -7.700466 -0.000000 -0.004160 -0.030261 0.201997
  8 6.890240 0.000002 -0.000000 -0.001726 -0.065676 -0.318212
  9 8.011925 0.000004 0.000005 0.000589 -0.051617 -0.164123
 10 7.210720 -0.000002 -0.000000 -0.021934 0.045126 -0.427012
 11 7.811473 -0.304903 -0.000000 0.021406 0.130546 0.644898
 12 22.523008 2.194031 6.355708 0.000000 -0.000000 0.000000
 13 22.523005 2.194038 -6.355709 0.000000 -0.000000 0.000000
 14 -3.006533 7.804720 -11.355459 0.005882 0.187158 0.745840
 15 10.384675 0.000008 0.000005 0.482377 0.237040 -1.355684
 16 22.550743 -0.000006 -0.000004 -0.052861 -0.508305 1.785340
 17 30.814247 -0.000015 -0.000004 -2.767998 0.740409 0.626312
 18 -3.013796 7.815494 11.355459 0.198470 0.216393 0.402269
 19 10.374533 -0.000002 0.000007 0.013858 -0.693162 -1.580779
 20 22.550726 -0.000027 -0.000013 0.041308 0.074971 2.347002
 21 30.814270 -0.000023 0.000002 -3.091850 -0.593571 0.337812
 22 -4.250660 -0.770624 0.000001 0.069151 -0.089241 2.920363
 23 10.363422 0.000000 0.000000 -0.012116 0.059568 -0.239375
 24 10.363076 0.000000 -0.000000 -0.001702 0.072923 0.174939
 25 10.363081 -0.000004 -0.000002 0.039586 0.044955 0.182594
 26 8.210358 -0.000006 -7.786025 0.000000 0.000000 0.020450
 27 8.210346 -0.000002 7.704017 0.000000 0.000000 0.041776
 28 1.854841 1.227791 -13.762345 2.400130 0.507190 1.981476
 29 10.456543 -0.000004 0.000004 -0.103822 0.193585 -1.088497
 30 24.248093 0.000001 0.000007 0.045109 0.015622 0.673650
 31 26.336971 0.000019 0.000002 0.549231 -0.015604 0.994782
 32 1.854847 1.227798 13.762341 2.710254 -0.655813 2.584152
 33 10.456542 -0.000008 0.000004 0.919657 0.600411 -0.203840
 34 24.248116 0.000002 -0.000004 -0.196804 -0.246728 1.038892
 35 26.336975 0.000000 0.000004 -0.692306 0.159704 0.763679
time 6
  0 0.000000 0.000000 0.000000 0.000000 -0.000000 -1.570796
  1 0.000000 0.000000 0.000000 0.000000 -0.000000 0.000000
  2 1.492233 -2.951586 26.422174 -1.538012 0.003508 1.539065
  3 4.222169 -0.467508 0.000000 -0.014533 0.000519 -0.025855
  4 4.476987 -0.000002 -0.000000 -0.016324 -0.049249 0.174773
  5 4.477083 0.000000 0.000002 -0.033771 -0.011514 -0.002423
  6 4.477077 -0.000004 -0.000002 -0.023279 -0.020912 -0.100229
  7 5.413502 -7.700466 -0.000000 -0.006247 0.003483 0.223155
  8 6.890240 0.000002 -0.000000 -0.001438 -0.081778 -0.348628
  9 8.011925 0.000004 0.000005 0.000747 -0.085181 -0.164020
 10 7.210720 -0.000002 -0.000000 -0.021906 0.002737 -0.424491
 11 7.811473 -0.304903 -0.000000 0.052315 0.155625 0.642199
 12 22.523008 2.194031 6.355708 0.000000 -0.000000 0.000000
 13 22.523005 2.194038 -6.355709 0.000000 -0.000000 0.000000
 14 -3.006533 7.804720 -11.355459 0.034314 0.245488 0.750166
 15 10.384675 0.000008 0.000005 0.701853 0.204473 -1.282427
 16 22.550743 -0.000006 -0.000004 -0.053037 -0.474011 1.738367
 17 30.814247 -0.000015 -0.000004 -2.706192 0.849970 0.705169
 18 -3.013796 7.815494 11.355459 0.056932 0.238589 0.446558
 19 10.374533 -0.000002 0.000007 0.003544 -0.578112 -1.566050
 20 22.550726 -0.000027 -0.000013 0.040614 0.075383 2.330066
 21 30.814270 -0.000023 0.000002 -3.086588 -0.633233 0.280188
 22 -4.250660 -0.770624 0.000001 0.064441 -0.079404 2.918673
 23 10.363422 0.000000 0.000000 -0.009755 0.057842 -0.207312
 24 10.363076 0.000000 -0.000000 0.001618 0.062293 0.172513
 25 10.363081 -0.000004 -0.000002 0.042996 0.041335 0.204690
 26 8.210358 -0.000006 -7.786025 0.000000 0.000000 0.027006
 27 8.210346 -0.000002 7.704017 0.000000 0.000000 0.055136
 28 1.854841 1.227791 -13.762345 2.361081 0.529445 2.040897
 29 10.456543 -0.000004 0.000004 -0.090859 0.216896 -0.948687
 30 24.248093 0.000001 0.000007 0.050373 0.010699 0.565903
 31 26.336971 0.000019 0.000002 0.583512 -0.049845 1.030072
 32 1.854847 1.227798 13.762341 2.679124 -0.639232 2.662517
 33 10.456542 -0.000008 0.000004 0.845928 0.729035 -0.293185
 34 24.248116 0.000002 -0.000004 -0.279751 -0.272087 1.350434
 35 26.336975 0.000000 0.000004 -0.604396 0.208439 0.669635
time 7
  0 0.000000 0.000000 0.000000 0.000000 -0.000000 -1.570796
  1 0.000000 0.000000 0.000000 0.000000 -0.000000 0.000000
  2 0.898465 -2.951586 25.554960 -1.553829 0.001992 1.552966
  3 4.222169 -0.467508 0.000000 -0.008001 0.000148 -0.055449
  4 4.476987 -0.000002 -0.000000 -0.010332 -0.035735 0.149135
  5 4.477083 0.000000 0.000002 -0.027095 0.009324 0.027621
  6 4.477077 -0.000004 -0.000002 -0.018917 -0.016402 -0.067090
  7 5.413502 -7.700466 -0.000000 -0.007882 0.039810 0.239677
  8 6.890240 0.000002 -0.000000 -0.001570 -0.087568 -0.361776
  9 8.011925 0.000004 0.000005 0.000799 -0.119369 -0.163916
 10 7.210720 -0.000002 -0.000000 -0.021961 -0.038152 -0.423096
 11 7.811473 -0.304903 -0.000000 0.081410 0.178689 0.640166
 12 22.523008 2.194031 6.355708 0.000000 -0.000000 0.000000
 13 22.523005 2.194038 -6.355709 0.000000 -0.000000 0.000000
 14 -3.006533 7.804720 -11.355459 0.061552 0.342011 0.778460
 15 10.384675 0.000008 0.000005 0.962453 0.146870 -1.205117
 16 22.550743 -0.000006 -0.000004 -0.055660 -0.436446 1.686793
 17 30.814247 -0.000015 -0.000004 -2.628181 0.955361 0.802183
 18 -3.013796 7.815494 11.355459 -0.061440 0.197859 0.464855
 19 10.374533 -0.000002 0.000007 -0.013309 -0.492299 -1.543842
 20 22.550726 -0.000027 -0.000013 0.040021 0.075403 2.315549
 21 30.814270 -0.000023 0.000002 -3.048666 -0.639374 0.232076
 22 -4.250660 -0.770624 0.000001 0.059312 -0.069567 2.919134
 23 10.363422 0.000000 0.000000 -0.007502 0.056152 -0.176526
 24 10.363076 0.000000 -0.000000 0.005261 0.050775 0.169983
 25 10.363081 -0.000004 -0.000002 0.046222 0.037560 0.221147
 26 8.210358 -0.000006 -7.786025 0.000000 0.000000 0.031864
 27 8.210346 -0.000002 7.704017 0.000000 0.000000 0.064936
 28 1.854841 1.227791 -13.762345 2.339490 0.501812 2.060360
 29 10.456543 -0.000004 0.000004 -0.083399 0.223978 -0.903834
 30 24.248093 0.000001 0.000007 0.054562 0.007410 0.514280
 31 26.336971 0.000019 0.000002 0.607526 -0.079881 1.057685
 32 1.854847 1.227798 13.762341 2.650460 -0.616877 2.765868
 33 10.456542 -0.000008 0.000004 0.766197 0.802837 -0.384185
 34 24.248116 0.000002 -0.000004 -0.350067 -0.270241 1.611458
 35 26.336975 0.000000 0.000004 -0.500962 0.252613 0.611592
time 8
  0 0.000000 0.000000 0.000000 0.000000 -0.000000 -1.570796
  1 0.000000 0.000000 0.000000 0.000000 -0.000000 0.000000
  2 0.355480 -2.951586 24.871346 -1.570797 0.000436 1.567825
  3 4.222169 -0.467508 0.000000 -0.004010 -0.002559 -0.066888
  4 4.476987 -0.000002 -0.000000 -0.004340 -0.020913 0.130733
  5 4.477083 0.000000 0.000002 -0.020240 0.032246 0.045777
  6 4.477077 -0.000004 -0.000002 -0.014794 -0.009092 -0.044229
  7 5.413502 -7.700466 -0.000000 -0.009118 0.071244 0.250039
  8 6.890240 0.000002 -0.000000 -0.001786 -0.088862 -0.369177
  9 8.011925 0.000004 0.000005 0.000720 -0.147949 -0.163786
 10 7.210720 -0.000002 -0.000000 -0.022016 -0.072032 -0.422721
 11 7.811473 -0.304903 -0.000000 0.093879 0.183162 0.638694
 12 22.523008 2.194031 6.355708 0.000000 -0.000000 0.000000
 13 22.523005 2.194038 -6.355709 0.000000 -0.000000 0.000000
 14 -3.006533 7.804720 -11.355459 0.074032 0.415215 0.807440
 15 10.384675 0.000008 0.000005 1.142599 0.099408 -1.155076
 16 22.550743 -0.000006 -0.000004 -0.057755 -0.403845 1.640606
 17 30.814247 -0.000015 -0.000004 -2.618048 1.026960 0.845336
 18 -3.013796 7.815494 11.355459 -0.140049 0.077238 0.455792
 19 10.374533 -0.000002 0.000007 -0.026588 -0.416219 -1.527722
 20 22.550726 -0.000027 -0.000013 0.040267 0.073027 2.328764
 21 30.814270 -0.000023 0.000002 -2.984785 -0.594477 0.210293
 22 -4.250660 -0.770624 0.000001 0.053955 -0.060467 2.922898
 23 10.363422 0.000000 0.000000 -0.005309 0.054438 -0.146708
 24 10.363076 0.000000 -0.000000 0.009156 0.038683 0.167506
 25 10.363081 -0.000004 -0.000002 0.049029 0.033909 0.228987
 26 8.210358 -0.000006 -7.786025 0.000000 0.000000 0.032679
 27 8.210346 -0.000002 7.704017 0.000000 0.000000 0.067581
 28 1.854841 1.227791 -13.762345 2.359366 0.425772 2.020522
 29 10.456543 -0.000004 0.000004 -0.086771 0.215953 -0.985723
 30 24.248093 0.000001 0.000007 0.057417 0.005876 0.537072
 31 26.336971 0.000019 0.000002 0.582120 -0.063956 1.048352
 32 1.854847 1.227798 13.762341 2.624394 -0.591540 2.871762
 33 10.456542 -0.000008 0.000004 0.698945 0.822345 -0.459499
 34 24.248116 0.000002 -0.000004 -0.398140 -0.254829 1.807035
 35 26.336975 0.000000 0.000004 -0.394912 0.301286 0.561519
time 9
  0 0.000000 0.000000 0.000000 0.000000 -0.000000 -1.570796
  1 0.000000 0.000000 0.000000 0.000000 -0.000000 0.000000
  2 -0.195318 -2.951586 24.328362 -1.587956 -0.001159 1.582780
  3 4.222169 -0.467508 0.000000 -0.000690 -0.006173 -0.075919
  4 4.476987 -0.000002 -0.000000 0.001701 -0.005193 0.123430
  5 4.477083 0.000000 0.000002 -0.013685 0.055975 0.051869
  6 4.477077 -0.000004 -0.000002 -0.010264 -0.000372 -0.034153
  7 5.413502 -7.700466 -0.000000 -0.009503 0.074574 0.252341
  8 6.890240 0.000002 -0.000000 -0.001870 -0.088810 -0.375227
  9 8.011925 0.000004 0.000005 0.000629 -0.144914 -0.163786
 10 7.210720 -0.000002 -0.000000 -0.022071 -0.083490 -0.422050
 11 7.811473 -0.304903 -0.000000 0.099207 0.177852 0.638309
 12 22.523008 2.194031 6.355708 0.000000 -0.000000 0.000000
 13 22.523005 2.194038 -6.355709 0.000000 -0.000000 0.000000
 14 -3.006533 7.804720 -11.355459 0.085589 0.475524 0.826256
 15 10.384675 0.000008 0.000005 1.176065 0.076006 -1.163462
 16 22.550743 -0.000006 -0.000004 -0.051950 -0.401779 1.632434
 17 30.814247 -0.000015 -0.000004 -2.687803 1.018026 0.814288
 18 -3.013796 7.815494 11.355459 -0.197377 -0.106982 0.437153
 19 10.374533 -0.000002 0.000007 -0.028139 -0.372266 -1.538101
 20 22.550726 -0.000027 -0.000013 0.040838 0.070279 2.348305
 21 30.814270 -0.000023 0.000002 -2.870598 -0.522250 0.221672
 22 -4.250660 -0.770624 0.000001 0.048598 -0.052700 2.931451
 23 10.363422 0.000000 0.000000 -0.003140 0.052628 -0.117924
 24 10.363076 0.000000 -0.000000 0.013159 0.026375 0.165260
 25 10.363081 -0.000004 -0.000002 0.051393 0.030550 0.228262
 26 8.210358 -0.000006 -7.786025 0.000000 0.000000 0.017766
 27 8.210346 -0.000002 7.704017 0.000000 0.000000 0.051135
 28 1.854841 1.227791 -13.762345 2.406989 0.325135 1.945044
 29 10.456543 -0.000004 0.000004 -0.115422 0.206415 -1.160746
 30 24.248093 0.000001 0.000007 0.059530 0.004686 0.640142
 31 26.336971 0.000019 0.000002 0.516299 -0.041435 1.002790
 32 1.854847 1.227798 13.762341 2.610349 -0.565081 2.963396
 33 10.456542 -0.000008 0.000004 0.654145 0.797271 -0.511482
 34 24.248116 0.000002 -0.000004 -0.423725 -0.236972 1.933002
 35 26.336975 0.000000 0.000004 -0.295809 0.351355 0.517549
time 10
  0 0.000000 0.000000 0.000000 0.000000 -0.000000 -1.570796
  1 0.000000 0.000000 0.000000 0.000000 -0.000000 0.000000
  2 -0.804712 -2.951586 23.828346 -1.605307 -0.002795 1.597926
  3 4.222169 -0.467508 0.000000 0.002785 -0.008843 -0.077713
  4 4.476987 -0.000002 -0.000000 0.008052 0.011256 0.130844
  5 4.477083 0.000000 0.000002 -0.007752 0.079333 0.047585
  6 4.477077 -0.000004 -0.000002 -0.004499 0.007709 -0.038155
  7 5.413502 -7.700466 -0.000000 -0.009596 0.074047 0.253212
  8 6.890240 0.000002 -0.000000 -0.001882 -0.088026 -0.379719
  9 8.011925 0.000004 0.000005 0.000707 -0.129402 -0.163968
 10 7.210720 -0.000002 -0.000000 -0.022016 -0.072085 -0.422024
 11 7.811473 -0.304903 -0.000000 0.100424 0.164041 0.638975
 12 22.523008 2.194031 6.355708 0.000000 -0.000000 0.000000
 13 22.523005 2.194038 -6.355709 0.000000 -0.000000 0.000000
 14 -3.006533 7.804720 -11.355459 0.091666 0.497464 0.768640
 15 10.384675 0.000008 0.000005 1.065692 0.092958 -1.193676
 16 22.550743 -0.000006 -0.000004 -0.064648 -0.411794 1.690182
 17 30.814247 -0.000015 -0.000004 -2.770794 0.907086 0.772173
 18 -3.013796 7.815494 11.355459 -0.260458 -0.312388 0.427577
 19 10.374533 -0.000002 0.000007 -0.028678 -0.339475 -1.549814
 20 22.550726 -0.000027 -0.000013 0.040287 0.067688 2.353640
 21 30.814270 -0.000023 0.000002 -2.720524 -0.461987 0.277873
 22 -4.250660 -0.770624 0.000001 0.042761 -0.045110 2.947301
 23 10.363422 0.000000 0.000000 -0.000935 0.050663 -0.089822
 24 10.363076 0.000000 -0.000000 0.017198 0.014103 0.163350
 25 10.363081 -0.000004 -0.000002 0.053338 0.027562 0.220261
 26 8.210358 -0.000006 -7.786025 0.000000 0.000000 -0.023439
 27 8.210346 -0.000002 7.704017 0.000000 0.000000 0.005968
 28 1.854841 1.227791 -13.762345 2.461956 0.227137 1.874432
 29 10.456543 -0.000004 0.000004 -0.184219 0.208675 -1.356611
 30 24.248093 0.000001 0.000007 0.061050 0.004060 0.809398
 31 26.336971 0.000019 0.000002 0.428813 -0.083376 0.926578
 32 1.854847 1.227798 13.762341 2.632430 -0.541467 3.009579
 33 10.456542 -0.000008 0.000004 0.616230 0.764127 -0.556608
 34 24.248116 0.000002 -0.000004 -0.435060 -0.221656 2.009872
 35 26.336975 0.000000 0.000004 -0.217634 0.391559 0.482565
time 11
  0 0.000000 0.000000 0.000000 0.000000 -0.000000 -1.570796
  1 0.000000 0.000000 0.000000 0.000000 -0.000000 0.000000
  2 -1.453169 -2.951586 23.363487 -1.622082 -0.004510 1.612498
  3 4.222169 -0.467508 0.000000 0.007196 -0.008027 -0.052474
  4 4.476987 -0.000002 -0.000000 0.014943 0.027834 0.154329
  5 4.477083 0.000000 0.000002 -0.002695 0.101027 0.034320
  6 4.477077 -0.000004 -0.000002 0.003351 0.013271 -0.057933
  7 5.413502 -7.700466 -0.000000 -0.009636 0.075814 0.253617
  8 6.890240 0.000002 -0.000000 -0.001882 -0.080145 -0.382325
  9 8.011925 0.000004 0.000005 0.000799 -0.112388 -0.164201
 10 7.210720 -0.000002 -0.000000 -0.021961 -0.069384 -0.427468
 11 7.811473 -0.304903 -0.000000 0.097622 0.139816 0.640552
 12 22.523008 2.194031 6.355708 0.000000 -0.000000 0.000000
 13 22.523005 2.194038 -6.355709 0.000000 -0.000000 0.000000
 14 -3.006533 7.804720 -11.355459 0.082876 0.491140 0.595102
 15 10.384675 0.000008 0.000005 0.887377 0.132994 -1.202062
 16 22.550743 -0.000006 -0.000004 -0.104437 -0.387631 1.805195
 17 30.814247 -0.000015 -0.000004 -2.840899 0.729782 0.762217
 18 -3.013796 7.815494 11.355459 -0.324353 -0.516525 0.431396
 19 10.374533 -0.000002 0.000007 -0.038992 -0.327316 -1.529462
 20 22.550726 -0.000027 -0.000013 0.035711 0.066863 2.297621
 21 30.814270 -0.000023 0.000002 -2.572906 -0.422081 0.360794
 22 -4.250660 -0.770624 0.000001 0.036050 -0.035979 2.971447
 23 10.363422 0.000000 0.000000 0.001306 0.048458 -0.062116
 24 10.363076 0.000000 -0.000000 0.021165 0.002178 0.161931
 25 10.363081 -0.000004 -0.000002 0.054901 0.025066 0.206193
 26 8.210358 -0.000006 -7.786025 0.000000 0.000000 -0.081868
 27 8.210346 -0.000002 7.704017 0.000000 0.000000 -0.057917
 28 1.854841 1.227791 -13.762345 2.505094 0.144017 1.862633
 29 10.456543 -0.000004 0.000004 -0.276741 0.217715 -1.485783
 30 24.248093 0.000001 0.000007 0.061754 0.003273 0.985995
 31 26.336971 0.000019 0.000002 0.332540 -0.189647 0.838161
 32 1.854847 1.227798 13.762341 2.668354 -0.518730 3.036289
 33 10.456542 -0.000008 0.000004 0.580993 0.730594 -0.599211
 34 24.248116 0.000002 -0.000004 -0.442016 -0.207658 2.070952
 35 26.336975 0.000000 0.000004 -0.147391 0.429033 0.451650
time 12
  0 0.000000 0.000000 0.000000 0.000000 -0.000000 -1.570796
  1 0.000000 0.000000 0.000000 0.000000 -0.000000 0.000000
  2 -2.086001 -2.951586 22.949411 -1.637708 -0.006385 1.625919
  3 4.222169 -0.467508 0.000000 0.011642 -0.006470 -0.020963
  4 4.476987 -0.000002 -0.000000 0.022134 0.043341 0.188380
  5 4.477083 0.000000 0.000002 0.001356 0.119717 0.013466
  6 4.477077 -0.000004 -0.000002 0.013370 0.015320 -0.092365
  7 5.413502 -7.700466 -0.000000 -0.009610 0.079043 0.253617
  8 6.890240 0.000002 -0.000000 -0.001953 -0.052371 -0.382883
  9 8.011925 0.000004 0.000005 0.000838 -0.095102 -0.164461
 10 7.210720 -0.000002 -0.000000 -0.021851 -0.085221 -0.436103
 11 7.811473 -0.304903 -0.000000 0.092869 0.106713 0.642865
 12 22.523008 2.194031 6.355708 0.000000 -0.000000 0.000000
 13 22.523005 2.194038 -6.355709 0.000000 -0.000000 0.000000
 14 -3.006533 7.804720 -11.355459 0.064699 0.473757 0.337646
 15 10.384675 0.000008 0.000005 0.676529 0.150137 -1.160074
 16 22.550743 -0.000006 -0.000004 -0.145011 -0.345789 1.916818
 17 30.814247 -0.000015 -0.000004 -2.941797 0.540410 0.765404
 18 -3.013796 7.815494 11.355459 -0.364473 -0.698465 0.446615
 19 10.374533 -0.000002 0.000007 -0.067776 -0.329375 -1.460865
 20 22.550726 -0.000027 -0.000013 0.028766 0.070024 2.188435
 21 30.814270 -0.000023 0.000002 -2.438793 -0.390249 0.454509
 22 -4.250660 -0.770624 0.000001 0.029290 -0.026350 3.001022
 23 10.363422 0.000000 0.000000 0.003619 0.045965 -0.034873
 24 10.363076 0.000000 -0.000000 0.024952 -0.009111 0.161208
 25 10.363081 -0.000004 -0.000002 0.056071 0.023109 0.187185
 26 8.210358 -0.000006 -7.786025 0.000000 0.000000 -0.148925
 27 8.210346 -0.000002 7.704017 0.000000 0.000000 -0.131296
 28 1.854841 1.227791 -13.762345 2.520749 0.065362 1.906606
 29 10.456543 -0.000004 0.000004 -0.367620 0.236292 -1.514918
 30 24.248093 0.000001 0.000007 0.060827 0.002345 1.132696
 31 26.336971 0.000019 0.000002 0.242487 -0.323352 0.757200
 32 1.854847 1.227798 13.762341 2.718661 -0.494131 3.037108
 33 10.456542 -0.000008 0.000004 0.548673 0.696030 -0.638977
 34 24.248116 0.000002 -0.000004 -0.444581 -0.196572 2.110758
 35 26.336975 0.000000 0.000004 -0.085940 0.462754 0.423788
time 13
  0 0.000000 0.000000 0.000000 0.000000 -0.000000 -1.570796
  1 0.000000 0.000000 0.000000 0.000000 -0.000000 0.000000
  2 -2.660237 -2.951586 22.601746 -1.650553 -0.007941 1.637039
  3 4.222169 -0.467508 0.000000 0.015872 -0.005210 0.008508
  4 4.476987 -0.000002 -0.000000 0.028858 0.056448 0.224739
  5 4.477083 0.000000 0.000002 0.004448 0.134061 -0.013880
  6 4.477077 -0.000004 -0.000002 0.023485 0.015188 -0.132933
  7 5.413502 -7.700466 -0.000000 -0.009570 0.083579 0.253399
  8 6.890240 0.000002 -0.000000 -0.002085 -0.018612 -0.382977
  9 8.011925 0.000004 0.000005 0.000864 -0.078168 -0.164721
 10 7.210720 -0.000002 -0.000000 -0.021824 -0.104694 -0.441010
 11 7.811473 -0.304903 -0.000000 0.088873 0.069701 0.645564
 12 22.523008 2.194031 6.355708 0.000000 -0.000000 0.000000
 13 22.523005 2.194038 -6.355709 0.000000 -0.000000 0.000000
 14 -3.006533 7.804720 -11.355459 0.041530 0.456764 0.045510
 15 10.384675 0.000008 0.000005 0.447080 0.122152 -1.035221
 16 22.550743 -0.000006 -0.000004 -0.174693 -0.299787 1.964033
 17 30.814247 -0.000015 -0.000004 -3.088647 0.377025 0.770740
 18 -3.013796 7.815494 11.355459 -0.380408 -0.855407 0.475286
 19 10.374533 -0.000002 0.000007 -0.106806 -0.332199 -1.366001
 20 22.550726 -0.000027 -0.000013 0.019737 0.077130 2.030675
 21 30.814270 -0.000023 0.000002 -2.333131 -0.354233 0.561528
 22 -4.250660 -0.770624 0.000001 0.023142 -0.017315 3.033439
 23 10.363422 0.000000 0.000000 0.005657 0.043664 -0.010776
 24 10.363076 0.000000 -0.000000 0.028475 -0.019526 0.161363
 25 10.363081 -0.000004 -0.000002 0.056834 0.021784 0.164338
 26 8.210358 -0.000006 -7.786025 0.000000 0.000000 -0.216117
 27 8.210346 -0.000002 7.704017 0.000000 0.000000 -0.204845
 28 1.854841 1.227791 -13.762345 2.505930 -0.026122 1.973995
 29 10.456543 -0.000004 0.000004 -0.439265 0.267273 -1.467417
 30 24.248093 0.000001 0.000007 0.060827 0.001820 1.230022
 31 26.336971 0.000019 0.000002 0.162049 -0.486384 0.688885
 32 1.854847 1.227798 13.762341 2.777983 -0.464170 3.020737
 33 10.456542 -0.000008 0.000004 0.519066 0.660521 -0.676102
 34 24.248116 0.000002 -0.000004 -0.445255 -0.187392 2.138937
 35 26.336975 0.000000 0.000004 -0.026976 0.496257 0.397733
time 14
  0 0.000000 0.000000 0.000000 0.000000 -0.000000 -1.570796
  1 0.000000 0.000000 0.000000 0.000000 -0.000000 0.000000
  2 -3.125095 -2.951586 22.336113 -1.659181 -0.008738 1.644516
  3 4.222169 -0.467508 0.000000 0.019947 -0.004153 0.036124
  4 4.476987 -0.000002 -0.000000 0.034023 0.066001 0.255127
  5 4.477083 0.000000 0.000002 0.006725 0.142606 -0.045317
  6 4.477077 -0.000004 -0.000002 0.030496 0.014775 -0.167536
  7 5.413502 -7.700466 -0.000000 -0.009530 0.089204 0.253088
  8 6.890240 0.000002 -0.000000 -0.002373 0.015305 -0.383070
  9 8.011925 0.000004 0.000005 0.000891 -0.062416 -0.164954
 10 7.210720 -0.000002 -0.000000 -0.021851 -0.123779 -0.443343
 11 7.811473 -0.304903 -0.000000 0.085475 0.031750 0.648333
 12 22.523008 2.194031 6.355708 0.000000 -0.000000 0.000000
 13 22.523005 2.194038 -6.355709 0.000000 -0.000000 0.000000
 14 -3.006533 7.804720 -11.355459 0.014889 0.457682 -0.216135
 15 10.384675 0.000008 0.000005 0.238174 0.076027 -0.839501
 16 22.550743 -0.000006 -0.000004 -0.184673 -0.266296 1.918997
 17 30.814247 -0.000015 -0.000004 3.025194 0.260066 0.788038
 18 -3.013796 7.815494 11.355459 -0.379492 -0.995795 0.498372
 19 10.374533 -0.000002 0.000007 -0.159588 -0.330239 -1.218834
 20 22.550726 -0.000027 -0.000013 0.007297 0.085964 1.820307
 21 30.814270 -0.000023 0.000002 -2.243325 -0.318340 0.676329
 22 -4.250660 -0.770624 0.000001 0.018205 -0.010030 3.065984
 23 10.363422 0.000000 0.000000 0.007023 0.042190 0.006807
 24 10.363076 0.000000 -0.000000 0.031543 -0.028539 0.161776
 25 10.363081 -0.000004 -0.000002 0.057130 0.021122 0.138833
 26 8.210358 -0.000006 -7.786025 0.000000 0.000000 -0.274682
 27 8.210346 -0.000002 7.704017 0.000000 0.000000 -0.268934
 28 1.854841 1.227791 -13.762345 2.479633 -0.128412 2.040228
 29 10.456543 -0.000004 0.000004 -0.476529 0.304712 -1.377018
 30 24.248093 0.000001 0.000007 0.063756 0.001578 1.266668
 31 26.336971 0.000019 0.000002 0.088963 -0.657431 0.634487
 32 1.854847 1.227798 13.762341 2.847366 -0.421348 2.981964
 33 10.456542 -0.000008 0.000004 0.491223 0.623982 -0.712124
 34 24.248116 0.000002 -0.000004 -0.445073 -0.180417 2.156047
 35 26.336975 0.000000 0.000004 0.032632 0.531404 0.373431
time 15
  0 0.000000 0.000000 0.000000 0.000000 -0.000000 -1.570796
  1 0.000000 0.000000 0.000000 0.000000 -0.000000 0.000000
  2 -3.433699 -2.951586 22.164232 -1.663878 -0.009018 1.648638
  3 4.222169 -0.467508 0.000000 0.022632 -0.003226 0.054233
  4 4.476987 -0.000002 -0.000000 0.036660 0.071291 0.273374
  5 4.477083 0.000000 0.000002 0.008019 0.144836 -0.067964
  6 4.477077 -0.000004 -0.000002 0.032269 0.014925 -0.187438
  7 5.413502 -7.700466 -0.000000 -0.009503 0.095694 0.252901
  8 6.890240 0.000002 -0.000000 -0.002732 0.041628 -0.383186
  9 8.011925 0.000004 0.000005 0.000930 -0.048709 -0.165162
 10 7.210720 -0.000002 -0.000000 -0.021934 -0.138909 -0.444121
 11 7.811473 -0.304903 -0.000000 0.082673 -0.003350 0.650716
 12 22.523008 2.194031 6.355708 0.000000 -0.000000 0.000000
 13 22.523005 2.194038 -6.355709 0.000000 -0.000000 0.000000
 14 -3.006533 7.804720 -11.355459 -0.018698 0.509582 -0.368383
 15 10.384675 0.000008 0.000005 0.130715 0.053411 -0.663441
 16 22.550743 -0.000006 -0.000004 -0.170151 -0.250914 1.799323
 17 30.814247 -0.000015 -0.000004 2.867338 0.214894 0.835238
 18 -3.013796 7.815494 11.355459 -0.328426 -1.114922 0.474944
 19 10.374533 -0.000002 0.000007 -0.227268 -0.307980 -1.000520
 20 22.550726 -0.000027 -0.000013 -0.010413 0.091167 1.554478
 21 30.814270 -0.000023 0.000002 -2.168499 -0.279706 0.797740
 22 -4.250660 -0.770624 0.000001 0.014945 -0.005761 3.095789
 23 10.363422 0.000000 0.000000 0.007838 0.041483 0.018536
 24 10.363076 0.000000 -0.000000 0.033761 -0.035190 0.159660
 25 10.363081 -0.000004 -0.000002 0.056945 0.021199 0.111959
 26 8.210358 -0.000006 -7.786025 0.000000 0.000000 -0.315751
 27 8.210346 -0.000002 7.704017 0.000000 0.000000 -0.313863
 28 1.854841 1.227791 -13.762345 2.466881 -0.249256 2.086817
 29 10.456543 -0.000004 0.000004 -0.468859 0.336938 -1.269859
 30 24.248093 0.000001 0.000007 0.070170 0.001417 1.236002
 31 26.336971 0.000019 0.000002 0.018313 -0.799703 0.606985
 32 1.854847 1.227798 13.762341 2.916750 -0.373136 2.939356
 33 10.456542 -0.000008 0.000004 0.464228 0.586079 -0.748737
 34 24.248116 0.000002 -0.000004 -0.444451 -0.175263 2.163054
 35 26.336975 0.000000 0.000004 0.090610 0.566831 0.350768
time 16
  0 0.000000 0.000000 0.000000 0.000000 -0.000000 -1.570796
  1 0.000000 0.000000 0.000000 0.000000 -0.000000 0.000000
  2 -3.488388 -2.951586 22.136887 -1.664837 -0.008858 1.649406
  3 4.222169 -0.467508 0.000000 0.022871 -0.002225 0.056579
  4 4.476987 -0.000002 -0.000000 0.036707 0.072619 0.278967
  5 4.477083 0.000000 0.000002 0.008067 0.141556 -0.070944
  6 4.477077 -0.000004 -0.000002 0.029429 0.015188 -0.191752
  7 5.413502 -7.700466 -0.000000 -0.009530 0.103578 0.252932
  8 6.890240 0.000002 -0.000000 -0.002888 0.050084 -0.383326
  9 8.011925 0.000004 0.000005 0.001035 -0.038629 -0.165266
 10 7.210720 -0.000002 -0.000000 -0.022043 -0.146519 -0.444443
 11 7.811473 -0.304903 -0.000000 0.081686 -0.028241 0.651943
 12 22.523008 2.194031 6.355708 0.000000 -0.000000 0.000000
 13 22.523005 2.194038 -6.355709 0.000000 -0.000000 0.000000
 14 -3.006533 7.804720 -11.355459 -0.051796 0.644756 -0.363645
 15 10.384675 0.000008 0.000005 0.196976 0.050525 -0.582964
 16 22.550743 -0.000006 -0.000004 -0.135655 -0.248791 1.634856
 17 30.814247 -0.000015 -0.000004 2.744556 0.265019 0.918357
 18 -3.013796 7.815494 11.355459 -0.230827 -1.203519 0.400217
 19 10.374533 -0.000002 0.000007 -0.290027 -0.263462 -0.780871
 20 22.550726 -0.000027 -0.000013 -0.028082 0.088261 1.298699
 21 30.814270 -0.000023 0.000002 -2.111949 -0.249954 0.903559
 22 -4.250660 -0.770624 0.000001 0.013555 -0.005296 3.121062
 23 10.363422 0.000000 0.000000 0.008162 0.041423 0.025160
 24 10.363076 0.000000 -0.000000 0.034743 -0.038318 0.151323
 25 10.363081 -0.000004 -0.000002 0.056206 0.022062 0.084870
 26 8.210358 -0.000006 -7.786025 0.000000 0.000000 -0.331106
 27 8.210346 -0.000002 7.704017 0.000000 0.000000 -0.330750
 28 1.854841 1.227791 -13.762345 2.490671 -0.381573 2.116801
 29 10.456543 -0.000004 0.000004 -0.415873 0.348825 -1.159921
 30 24.248093 0.000001 0.000007 0.077880 0.001296 1.142523
 31 26.336971 0.000019 0.000002 -0.065649 -0.887211 0.622724
 32 1.854847 1.227798 13.762341 2.986437 -0.309985 2.894854
 33 10.456542 -0.000008 0.000004 0.438894 0.547063 -0.784364
 34 24.248116 0.000002 -0.000004 -0.443817 -0.171932 2.158891
 35 26.336975 0.000000 0.000004 0.162439 0.609144 0.335226
time 17
  0 0.000000 0.000000 0.000000 0.000000 -0.000000 -1.570796
  1 0.000000 0.000000 0.000000 0.000000 -0.000000 0.000000
  2 -3.382916 -2.951586 22.191576 -1.662249 -0.008379 1.647201
  3 4.222169 -0.467508 0.000000 0.021218 -0.001131 0.046873
  4 4.476987 -0.000002 -0.000000 0.034586 0.070477 0.273551
  5 4.477083 0.000000 0.000002 0.007073 0.133690 -0.058449
  6 4.477077 -0.000004 -0.000002 0.023736 0.014737 -0.182704
  7 5.413502 -7.700466 -0.000000 -0.009583 0.107061 0.253399
  8 6.890240 0.000002 -0.000000 -0.002888 0.052188 -0.383395
  9 8.011925 0.000004 0.000005 0.000956 -0.025129 -0.165395
 10 7.210720 -0.000002 -0.000000 -0.022043 -0.142864 -0.445408
 11 7.811473 -0.304903 -0.000000 0.074383 -0.045910 0.652364
 12 22.523008 2.194031 6.355708 0.000000 -0.000000 0.000000
 13 22.523005 2.194038 -6.355709 0.000000 -0.000000 0.000000
 14 -3.006533 7.804720 -11.355459 -0.036495 0.812434 -0.239758
 15 10.384675 0.000008 0.000005 0.348099 0.043948 -0.566024
 16 22.550743 -0.000006 -0.000004 -0.089100 -0.250455 1.442119
 17 30.814247 -0.000015 -0.000004 2.651738 0.362574 1.016947
 18 -3.013796 7.815494 11.355459 -0.116579 -1.243689 0.293000
 19 10.374533 -0.000002 0.000007 -0.329461 -0.226120 -0.644605
 20 22.550726 -0.000027 -0.000013 -0.036907 0.082725 1.150430
 21 30.814270 -0.000023 0.000002 -2.087533 -0.237965 0.965534
 22 -4.250660 -0.770624 0.000001 0.013794 -0.008377 3.141573
 23 10.363422 0.000000 0.000000 0.008090 0.041926 0.027360
 24 10.363076 0.000000 -0.000000 0.034000 -0.036748 0.133050
 25 10.363081 -0.000004 -0.000002 0.054877 0.023772 0.058479
 26 8.210358 -0.000006 -7.786025 0.000000 0.000000 -0.319148
 27 8.210346 -0.000002 7.704017 0.000000 0.000000 -0.318984
 28 1.854841 1.227791 -13.762345 2.544142 -0.499357 2.149523
 29 10.456543 -0.000004 0.000004 -0.336820 0.333682 -1.051200
 30 24.248093 0.000001 0.000007 0.085072 0.001639 1.012399
 31 26.336971 0.000019 0.000002 -0.166882 -0.910389 0.684577
 32 1.854847 1.227798 13.762341 3.060986 -0.197582 2.831309
 33 10.456542 -0.000008 0.000004 0.415459 0.507741 -0.819282
 34 24.248116 0.000002 -0.000004 -0.442133 -0.170853 2.137058
 35 26.336975 0.000000 0.000004 0.270461 0.666193 0.336865
time 18
  0 0.000000 0.000000 0.000000 0.000000 -0.000000 -1.570796
  1 0.000000 0.000000 0.000000 0.000000 -0.000000 0.000000
  2 -3.121189 -2.951586 22.336113 -1.656497 -0.007701 1.642216
  3 4.222169 -0.467508 0.000000 0.018317 0.000074 0.029055
  4 4.476987 -0.000002 -0.000000 0.030787 0.065251 0.258590
  5 4.477083 0.000000 0.000002 0.005059 0.122124 -0.034897
  6 4.477077 -0.000004 -0.000002 0.016845 0.012839 -0.162132
  7 5.413502 -7.700466 -0.000000 -0.009703 0.091090 0.254830
  8 6.890240 0.000002 -0.000000 -0.002900 0.056188 -0.383349
  9 8.011925 0.000004 0.000005 0.000537 0.003227 -0.165655
 10 7.210720 -0.000002 -0.000000 -0.021988 -0.125951 -0.447634
 11 7.811473 -0.304903 -0.000000 0.049307 -0.067643 0.653205
 12 22.523008 2.194031 6.355708 0.000000 -0.000000 0.000000
 13 22.523005 2.194038 -6.355709 0.000000 -0.000000 0.000000
 14 -3.006533 7.804720 -11.355459 0.045220 0.916234 -0.081467
 15 10.384675 0.000008 0.000005 0.416564 0.028842 -0.554305
 16 22.550743 -0.000006 -0.000004 -0.033158 -0.248504 1.239637
 17 30.814247 -0.000015 -0.000004 2.559444 0.421915 1.101498
 18 -3.013796 7.815494 11.355459 0.000063 -1.252620 0.180595
 19 10.374533 -0.000002 0.000007 -0.354807 -0.202166 -0.563252
 20 22.550726 -0.000027 -0.000013 -0.041340 0.078446 1.064012
 21 30.814270 -0.000023 0.000002 -2.080552 -0.230062 1.003075
 22 -4.250660 -0.770624 0.000001 0.015340 -0.014266 -3.125225
 23 10.363422 0.000000 0.000000 0.007646 0.042897 0.025754
 24 10.363076 0.000000 -0.000000 0.031244 -0.030085 0.103213
 25 10.363081 -0.000004 -0.000002 0.052932 0.026499 0.030209
 26 8.210358 -0.000006 -7.786025 0.000000 0.000000 -0.286673
 27 8.210346 -0.000002 7.704017 0.000000 0.000000 -0.286567
 28 1.854841 1.227791 -13.762345 2.602715 -0.583193 2.198179
 29 10.456543 -0.000004 0.000004 -0.254466 0.303876 -0.943606
 30 24.248093 0.000001 0.000007 0.090522 0.002870 0.883281
 31 26.336971 0.000019 0.000002 -0.269812 -0.888236 0.768466
 32 1.854847 1.227798 13.762341 3.129187 -0.037514 2.755271
 33 10.456542 -0.000008 0.000004 0.396603 0.464885 -0.841353
 34 24.248116 0.000002 -0.000004 -0.435746 -0.174484 2.068210
 35 26.336975 0.000000 0.000004 0.400740 0.728577 0.360602
time 19
  0 0.000000 0.000000 0.000000 0.000000 -0.000000 -1.570796
  1 0.000000 0.000000 0.000000 0.000000 -0.000000 0.000000
  2 -2.656331 -2.951586 22.601746 -1.647678 -0.006824 1.634547
  3 4.222169 -0.467508 0.000000 0.014614 0.001390 0.006116
  4 4.476987 -0.000002 -0.000000 0.025814 0.057284 0.235905
  5 4.477083 0.000000 0.000002 0.002039 0.107715 -0.004468
  6 4.477077 -0.000004 -0.000002 0.009918 0.009043 -0.132419
  7 5.413502 -7.700466 -0.000000 -0.009929 0.057957 0.257288
  8 6.890240 0.000002 -0.000000 -0.002900 0.061076 -0.383233
  9 8.011925 0.000004 0.000005 0.000144 0.037862 -0.165940
 10 7.210720 -0.000002 -0.000000 -0.021879 -0.097703 -0.451040
 11 7.811473 -0.304903 -0.000000 0.016722 -0.091953 0.654958
 12 22.523008 2.194031 6.355708 0.000000 -0.000000 0.000000
 13 22.523005 2.194038 -6.355709 0.000000 -0.000000 0.000000
 14 -3.006533 7.804720 -11.355459 0.130733 0.945629 0.046884
 15 10.384675 0.000008 0.000005 0.375216 0.011720 -0.526980
 16 22.550743 -0.000006 -0.000004 0.037993 -0.241128 1.032009
 17 30.814247 -0.000015 -0.000004 2.459811 0.421414 1.163094
 18 -3.013796 7.815494 11.355459 0.105503 -1.240662 0.087456
 19 10.374533 -0.000002 0.000007 -0.371727 -0.190040 -0.515414
 20 22.550726 -0.000027 -0.000013 -0.044935 0.076482 1.006380
 21 30.814270 -0.000023 0.000002 -2.079921 -0.218000 1.027843
 22 -4.250660 -0.770624 0.000001 0.017905 -0.022242 -3.112396
 23 10.363422 0.000000 0.000000 0.006915 0.044239 0.020979
 24 10.363076 0.000000 -0.000000 0.026798 -0.019574 0.065067
 25 10.363081 -0.000004 -0.000002 0.050445 0.030181 -0.001041
 26 8.210358 -0.000006 -7.786025 0.000000 0.000000 -0.240644
 27 8.210346 -0.000002 7.704017 0.000000 0.000000 -0.240586
 28 1.854841 1.227791 -13.762345 2.668368 -0.628121 2.251884
 29 10.456543 -0.000004 0.000004 -0.186525 0.267664 -0.852252
 30 24.248093 0.000001 0.000007 0.092079 0.004645 0.787197
 31 26.336971 0.000019 0.000002 -0.361865 -0.840961 0.843794
 32 1.854847 1.227798 13.762341 -3.101665 0.131583 2.681860
 33 10.456542 -0.000008 0.000004 0.384632 0.414237 -0.834377
 34 24.248116 0.000002 -0.000004 -0.423517 -0.181423 1.945543
 35 26.336975 0.000000 0.000004 0.530976 0.782276 0.414293
time 20
  0 0.000000 0.000000 0.000000 0.000000 -0.000000 -1.570796
  1 0.000000 0.000000 0.000000 0.000000 -0.000000 0.000000
  2 -2.082095 -2.951586 22.953320 -1.636078 -0.005826 1.624385
  3 4.222169 -0.467508 0.000000 0.010348 0.002688 -0.020442
  4 4.476987 -0.000002 -0.000000 0.020193 0.046917 0.208824
  5 4.477083 0.000000 0.000002 -0.001868 0.091464 0.028377
  6 4.477077 -0.000004 -0.000002 0.003279 0.003800 -0.097769
  7 5.413502 -7.700466 -0.000000 -0.010301 0.018503 0.259964
  8 6.890240 0.000002 -0.000000 -0.002888 0.066683 -0.383046
  9 8.011925 0.000004 0.000005 0.000000 0.070468 -0.166200
 10 7.210720 -0.000002 -0.000000 -0.021879 -0.062022 -0.455009
 11 7.811473 -0.304903 -0.000000 -0.015083 -0.115888 0.657481
 12 22.523008 2.194031 6.355708 0.000000 -0.000000 0.000000
 13 22.523005 2.194038 -6.355709 0.000000 -0.000000 0.000000
 14 -3.006533 7.804720 -11.355459 0.177668 0.937291 0.134236
 15 10.384675 0.000008 0.000005 0.266524 -0.002007 -0.483660
 16 22.550743 -0.000006 -0.000004 0.117541 -0.223996 0.827045
 17 30.814247 -0.000015 -0.000004 2.366819 0.372260 1.207394
 18 -3.013796 7.815494 11.355459 0.187320 -1.214132 0.025269
 19 10.374533 -0.000002 0.000007 -0.383120 -0.189210 -0.495119
 20 22.550726 -0.000027 -0.000013 -0.046487 0.078033 0.996702
 21 30.814270 -0.000023 0.000002 -2.085498 -0.201876 1.039055
 22 -4.250660 -0.770624 0.000001 0.021273 -0.031550 -3.102743
 23 10.363422 0.000000 0.000000 0.005932 0.045833 0.013761
 24 10.363076 0.000000 -0.000000 0.021464 -0.007266 0.024364
 25 10.363081 -0.000004 -0.000002 0.047564 0.034356 -0.031889
 26 8.210358 -0.000006 -7.786025 0.000000 0.000000 -0.188024
 27 8.210346 -0.000002 7.704017 0.000000 0.000000 -0.187993
 28 1.854841 1.227791 -13.762345 2.757194 -0.634018 2.288558
 29 10.456543 -0.000004 0.000004 -0.155358 0.232431 -0.813826
 30 24.248093 0.000001 0.000007 0.090411 0.006663 0.741672
 31 26.336971 0.000019 0.000002 -0.435517 -0.764227 0.893884
 32 1.854847 1.227798 13.762341 -3.068543 0.274632 2.610690
 33 10.456542 -0.000008 0.000004 0.374627 0.360193 -0.815223
 34 24.248116 0.000002 -0.000004 -0.409203 -0.187092 1.796525
 35 26.336975 0.000000 0.000004 0.627892 0.813608 0.481548
time 21
  0 0.000000 0.000000 0.000000 0.000000 -0.000000 -1.570796
  1 0.000000 0.000000 0.000000 0.000000 -0.000000 0.000000
  2 -1.449263 -2.951586 23.367393 -1.621987 -0.004710 1.612210
  3 4.222169 -0.467508 0.000000 0.005554 0.003893 -0.050496
  4 4.476987 -0.000002 -0.000000 0.014320 0.034559 0.181055
  5 4.477083 0.000000 0.000002 -0.006362 0.074261 0.059280
  6 4.477077 -0.000004 -0.000002 -0.003133 -0.002233 -0.062979
  7 5.413502 -7.700466 -0.000000 -0.010713 -0.021545 0.262018
  8 6.890240 0.000002 -0.000000 -0.002864 0.072878 -0.382814
  9 8.011925 0.000004 0.000005 0.000000 0.101189 -0.166486
 10 7.210720 -0.000002 -0.000000 -0.021988 -0.022722 -0.459085
 11 7.811473 -0.304903 -0.000000 -0.046910 -0.139670 0.660846
 12 22.523008 2.194031 6.355708 0.000000 -0.000000 0.000000
 13 22.523005 2.194038 -6.355709 0.000000 -0.000000 0.000000
 14 -3.006533 7.804720 -11.355459 0.209410 0.920862 0.207854
 15 10.384675 0.000008 0.000005 0.119808 -0.008987 -0.431564
 16 22.550743 -0.000006 -0.000004 0.206843 -0.203132 0.645749
 17 30.814247 -0.000015 -0.000004 2.294049 0.283326 1.234969
 18 -3.013796 7.815494 11.355459 0.240422 -1.174597 0.003723
 19 10.374533 -0.000002 0.000007 -0.388580 -0.203329 -0.507876
 20 22.550726 -0.000027 -0.000013 -0.046344 0.082077 1.023440
 21 30.814270 -0.000023 0.000002 -2.099636 -0.178999 1.029684
 22 -4.250660 -0.770624 0.000001 0.025204 -0.041387 -3.095701
 23 10.363422 0.000000 0.000000 0.004722 0.047607 0.004056
 24 10.363076 0.000000 -0.000000 0.016311 0.004994 -0.013344
 25 10.363081 -0.000004 -0.000002 0.044486 0.038623 -0.058682
 26 8.210358 -0.000006 -7.786025 0.000000 0.000000 -0.135846
 27 8.210346 -0.000002 7.704017 0.000000 0.000000 -0.135840
 28 1.854841 1.227791 -13.762345 2.869986 -0.601771 2.297620
 29 10.456543 -0.000004 0.000004 -0.159062 0.206006 -0.838054
 30 24.248093 0.000001 0.000007 0.087297 0.008883 0.752565
 31 26.336971 0.000019 0.000002 -0.497292 -0.675090 0.929118
 32 1.854847 1.227798 13.762341 -3.046800 0.368347 2.544087
 33 10.456542 -0.000008 0.000004 0.361062 0.312550 -0.805489
 34 24.248116 0.000002 -0.000004 -0.397855 -0.189681 1.664261
 35 26.336975 0.000000 0.000004 0.666701 0.823503 0.526591
time 22
  0 0.000000 0.000000 0.000000 0.000000 -0.000000 -1.570796
  1 0.000000 0.000000 0.000000 0.000000 -0.000000 0.000000
  2 -0.800806 -2.951586 23.832253 -1.606074 -0.003393 1.598310
  3 4.222169 -0.467508 0.000000 0.000940 0.004819 -0.077836
  4 4.476987 -0.000002 -0.000000 0.008520 0.020616 0.156194
  5 4.477083 0.000000 0.000002 -0.010916 0.056928 0.084017
  6 4.477077 -0.000004 -0.000002 -0.009245 -0.008434 -0.032705
  7 5.413502 -7.700466 -0.000000 -0.010979 -0.056275 0.262734
  8 6.890240 0.000002 -0.000000 -0.002816 0.079517 -0.382534
  9 8.011925 0.000004 0.000005 0.000092 0.129721 -0.166849
 10 7.210720 -0.000002 -0.000000 -0.022208 0.016578 -0.462706
 11 7.811473 -0.304903 -0.000000 -0.079496 -0.163861 0.665087
 12 22.523008 2.194031 6.355708 0.000000 -0.000000 0.000000
 13 22.523005 2.194038 -6.355709 0.000000 -0.000000 0.000000
 14 -3.006533 7.804720 -11.355459 0.241803 0.901713 0.287446
 15 10.384675 0.000008 0.000005 -0.035088 -0.008563 -0.391242
 16 22.550743 -0.000006 -0.000004 0.297762 -0.190678 0.523291
 17 30.814247 -0.000015 -0.000004 2.252991 0.169847 1.236509
 18 -3.013796 7.815494 11.355459 0.281559 -1.130877 -0.002433
 19 10.374533 -0.000002 0.000007 -0.389254 -0.229209 -0.542203
 20 22.550726 -0.000027 -0.000013 -0.044281 0.087613 1.079894
 21 30.814270 -0.000023 0.000002 -2.116825 -0.154924 1.013395
 22 -4.250660 -0.770624 0.000001 0.029518 -0.051015 -3.090657
 23 10.363422 0.000000 0.000000 0.003236 0.049524 -0.010094
 24 10.363076 0.000000 -0.000000 0.012644 0.015493 -0.042819
 25 10.363081 -0.000004 -0.000002 0.041457 0.042629 -0.078093
 26 8.210358 -0.000006 -7.786025 0.000000 0.000000 -0.090802
 27 8.210346 -0.000002 7.704017 0.000000 0.000000 -0.090775
 28 1.854841 1.227791 -13.762345 2.983174 -0.535699 2.283571
 29 10.456543 -0.000004 0.000004 -0.189967 0.187304 -0.913387
 30 24.248093 0.000001 0.000007 0.083923 0.011405 0.817509
 31 26.336971 0.000019 0.000002 -0.542884 -0.591262 0.946515
 32 1.854847 1.227798 13.762341 -3.023233 0.390318 2.483428
 33 10.456542 -0.000008 0.000004 0.338543 0.290705 -0.843441
 34 24.248116 0.000002 -0.000004 -0.400796 -0.189022 1.629482
 35 26.336975 0.000000 0.000004 0.638355 0.819688 0.519866
time 23
  0 0.000000 0.000000 0.000000 0.000000 -0.000000 -1.570796
  1 0.000000 0.000000 0.000000 0.000000 -0.000000 0.000000
  2 -0.191412 -2.951586 24.328362 -1.588915 -0.001877 1.583355
  3 4.222169 -0.467508 0.000000 -0.001673 0.005450 -0.088064
  4 4.476987 -0.000002 -0.000000 0.002935 0.005602 0.137881
  5 4.477083 0.000000 0.000002 -0.015171 0.039999 0.098809
  6 4.477077 -0.000004 -0.000002 -0.014902 -0.014297 -0.011697
  7 5.413502 -7.700466 -0.000000 -0.010899 -0.079400 0.261209
  8 6.890240 0.000002 -0.000000 -0.002756 0.086497 -0.382209
  9 8.011925 0.000004 0.000005 0.000288 0.146160 -0.167083
 10 7.210720 -0.000002 -0.000000 -0.022483 0.052100 -0.465441
 11 7.811473 -0.304903 -0.000000 -0.106110 -0.183084 0.669188
 12 22.523008 2.194031 6.355708 0.000000 -0.000000 0.000000
 13 22.523005 2.194038 -6.355709 0.000000 -0.000000 0.000000
 14 -3.006533 7.804720 -11.355459 0.275552 0.873308 0.388327
 15 10.384675 0.000008 0.000005 -0.190357 -0.005953 -0.421178
 16 22.550743 -0.000006 -0.000004 0.370992 -0.210852 0.509732
 17 30.814247 -0.000015 -0.000004 2.248012 0.047841 1.192818
 18 -3.013796 7.815494 11.355459 0.317351 -1.086186 0.004635
 19 10.374533 -0.000002 0.000007 -0.380288 -0.275721 -0.610278
 20 22.550726 -0.000027 -0.000013 -0.039481 0.093797 1.166063
 21 30.814270 -0.000023 0.000002 -2.136190 -0.123679 0.993899
 22 -4.250660 -0.770624 0.000001 0.033964 -0.059633 -3.086739
 23 10.363422 0.000000 0.000000 0.001366 0.051598 -0.031308
 24 10.363076 0.000000 -0.000000 0.009420 0.025740 -0.053401
 25 10.363081 -0.000004 -0.000002 0.038736 0.046049 -0.086603
 26 8.210358 -0.000006 -7.786025 0.000000 0.000000 -0.060059
 27 8.210346 -0.000002 7.704017 0.000000 0.000000 -0.060053
 28 1.854841 1.227791 -13.762345 3.044693 -0.453245 2.254134
 29 10.456543 -0.000004 0.000004 -0.242517 0.170488 -1.015509
 30 24.248093 0.000001 0.000007 0.081180 0.014310 0.923360
 31 26.336971 0.000019 0.000002 -0.538447 -0.552501 0.918625
 32 1.854847 1.227798 13.762341 -2.981839 0.324759 2.426734
 33 10.456542 -0.000008 0.000004 0.310530 0.293432 -0.948787
 34 24.248116 0.000002 -0.000004 -0.419191 -0.186193 1.712953
 35 26.336975 0.000000 0.000004 0.529990 0.799555 0.454533
time 24
  0 0.000000 0.000000 0.000000 0.000000 -0.000000 -1.570796
  1 0.000000 0.000000 0.000000 0.000000 -0.000000 0.000000
  2 0.355480 -2.951586 24.875252 -1.571372 -0.000202 1.568112
  3 4.222169 -0.467508 0.000000 -0.003674 0.006061 -0.094105
  4 4.476987 -0.000002 -0.000000 -0.002386 -0.009990 0.129712
  5 4.477083 0.000000 0.000002 -0.019377 0.023507 0.101136
  6 4.477077 -0.000004 -0.000002 -0.019852 -0.019334 -0.004720
  7 5.413502 -7.700466 -0.000000 -0.010288 -0.087640 0.256635
  8 6.890240 0.000002 -0.000000 -0.002685 0.093933 -0.382069
  9 8.011925 0.000004 0.000005 0.000367 0.143093 -0.167083
 10 7.210720 -0.000002 -0.000000 -0.022675 0.081142 -0.466862
 11 7.811473 -0.304903 -0.000000 -0.107741 -0.182298 0.669293
 12 22.523008 2.194031 6.355708 0.000000 -0.000000 0.000000
 13 22.523005 2.194038 -6.355709 0.000000 -0.000000 0.000000
 14 -3.006533 7.804720 -11.355459 0.308542 0.835822 0.492436
 15 10.384675 0.000008 0.000005 -0.333674 -0.005953 -0.556694
 16 22.550743 -0.000006 -0.000004 0.399443 -0.282396 0.631705
 17 30.814247 -0.000015 -0.000004 2.276141 -0.066171 1.097165
 18 -3.013796 7.815494 11.355459 0.347542 -1.030995 0.058671
 19 10.374533 -0.000002 0.000007 -0.361009 -0.333395 -0.697604
 20 22.550726 -0.000027 -0.000013 -0.032576 0.099529 1.271775
 21 30.814270 -0.000023 0.000002 -2.165727 -0.060774 0.958505
 22 -4.250660 -0.770624 0.000001 0.039238 -0.068235 -3.097135
 23 10.363422 0.000000 0.000000 -0.000995 0.053803 -0.062380
 24 10.363076 0.000000 -0.000000 0.005729 0.037077 -0.042948
 25 10.363081 -0.000004 -0.000002 0.036643 0.048560 -0.080751
 26 8.210358 -0.000006 -7.786025 0.000000 0.000000 -0.040085
 27 8.210346 -0.000002 7.704017 0.000000 0.000000 -0.040081
 28 1.854841 1.227791 -13.762345 3.012064 -0.378834 2.211864
 29 10.456543 -0.000004 0.000004 -0.297967 0.148903 -1.119759
 30 24.248093 0.000001 0.000007 0.078993 0.017559 1.037263
 31 26.336971 0.000019 0.000002 -0.471538 -0.596386 0.854397
 32 1.854847 1.227798 13.762341 -2.909958 0.199359 2.370168
 33 10.456542 -0.000008 0.000004 0.282449 0.296215 -1.066113
 34 24.248116 0.000002 -0.000004 -0.439114 -0.181507 1.810487
 35 26.336975 0.000000 0.000004 0.356013 0.752588 0.374731
time 25
  0 0.000000 0.000000 0.000000 0.000000 -0.000000 -1.570796
  1 0.000000 0.000000 0.000000 0.000000 -0.000000 0.000000
  2 0.902371 -2.951586 25.558867 -1.554021 0.001633 1.552870
  3 4.222169 -0.467508 0.000000 -0.006335 0.006432 -0.094994
  4 4.476987 -0.000002 -0.000000 -0.007564 -0.025604 0.135572
  5 4.477083 0.000000 0.000002 -0.024003 0.007143 0.088834
  6 4.477077 -0.000004 -0.000002 -0.023843 -0.023092 -0.016774
  7 5.413502 -7.700466 -0.000000 -0.009145 -0.085364 0.247861
  8 6.890240 0.000002 -0.000000 -0.002565 0.098704 -0.379881
  9 8.011925 0.000004 0.000005 0.000327 0.127692 -0.167005
 10 7.210720 -0.000002 -0.000000 -0.022757 0.103829 -0.466996
 11 7.811473 -0.304903 -0.000000 -0.103584 -0.177365 0.668592
 12 22.523008 2.194031 6.355708 0.000000 -0.000000 0.000000
 13 22.523005 2.194038 -6.355709 0.000000 -0.000000 0.000000
 14 -3.006533 7.804720 -11.355459 0.343051 0.773217 0.573882
 15 10.384675 0.000008 0.000005 -0.445579 -0.016477 -0.762523
 16 22.550743 -0.000006 -0.000004 0.345756 -0.386224 0.881343
 17 30.814247 -0.000015 -0.000004 2.332574 -0.147675 0.959755
 18 -3.013796 7.815494 11.355459 0.384403 -0.948937 0.138130
 19 10.374533 -0.000002 0.000007 -0.308497 -0.428511 -0.835319
 20 22.550726 -0.000027 -0.000013 -0.018134 0.102651 1.424262
 21 30.814270 -0.000023 0.000002 -2.202456 0.003428 0.914716
 22 -4.250660 -0.770624 0.000001 0.045745 -0.077430 -3.127197
 23 10.363422 0.000000 0.000000 -0.003919 0.056080 -0.104610
 24 10.363076 0.000000 -0.000000 0.001906 0.049241 -0.016105
 25 10.363081 -0.000004 -0.000002 0.035473 0.049777 -0.056400
 26 8.210358 -0.000006 -7.786025 0.000000 0.000000 -0.025376
 27 8.210346 -0.000002 7.704017 0.000000 0.000000 -0.025398
 28 1.854841 1.227791 -13.762345 2.965848 -0.305903 2.162112
 29 10.456543 -0.000004 0.000004 -0.344787 0.121909 -1.226700
 30 24.248093 0.000001 0.000007 0.076101 0.020888 1.145542
 31 26.336971 0.000019 0.000002 -0.385270 -0.639903 0.779401
 32 1.854847 1.227798 13.762341 -2.832134 0.063944 2.312956
 33 10.456542 -0.000008 0.000004 0.268070 0.292931 -1.145211
 34 24.248116 0.000002 -0.000004 -0.448817 -0.178811 1.849379
 35 26.336975 0.000000 0.000004 0.155621 0.680277 0.323640
time 26
  0 0.000000 0.000000 0.000000 0.000000 -0.000000 -1.570796
  1 0.000000 0.000000 0.000000 0.000000 -0.000000 0.000000
  2 1.496139 -2.951586 26.426081 -1.537533 0.003468 1.538586
  3 4.222169 -0.467508 0.000000 -0.012879 0.005394 -0.059236
  4 4.476987 -0.000002 -0.000000 -0.012813 -0.040596 0.156904
  5 4.477083 0.000000 0.000002 -0.029444 -0.009140 0.059695
  6 4.477077 -0.000004 -0.000002 -0.026719 -0.025216 -0.049851
  7 5.413502 -7.700466 -0.000000 -0.007510 -0.079485 0.233952
  8 6.890240 0.000002 -0.000000 -0.002049 0.087307 -0.365826
  9 8.011925 0.000004 0.000005 0.000314 0.107851 -0.166901
 10 7.210720 -0.000002 -0.000000 -0.022730 0.120901 -0.465870
 11 7.811473 -0.304903 -0.000000 -0.100163 -0.168112 0.668136
 12 22.523008 2.194031 6.355708 0.000000 -0.000000 0.000000
 13 22.523005 2.194038 -6.355709 0.000000 -0.000000 0.000000
 14 -3.006533 7.804720 -11.355459 0.348369 0.706867 0.560834
 15 10.384675 0.000008 0.000005 -0.489242 -0.039794 -0.934751
 16 22.550743 -0.000006 -0.000004 0.200558 -0.460293 1.227227
 17 30.814247 -0.000015 -0.000004 2.412114 -0.155199 0.790616
 18 -3.013796 7.815494 11.355459 0.414289 -0.821814 0.208240
 19 10.374533 -0.000002 0.000007 -0.204888 -0.559076 -1.021742
 20 22.550726 -0.000027 -0.000013 0.003906 0.100315 1.620920
 21 30.814270 -0.000023 0.000002 -2.258270 0.026256 0.853550
 22 -4.250660 -0.770624 0.000001 0.053164 -0.086529 3.112100
 23 10.363422 0.000000 0.000000 -0.007227 0.058237 -0.154036
 24 10.363076 0.000000 -0.000000 -0.001534 0.061538 0.021371
 25 10.363081 -0.000004 -0.000002 0.034550 0.050532 -0.020774
 26 8.210358 -0.000006 -7.786025 0.000000 0.000000 -0.014811
 27 8.210346 -0.000002 7.704017 0.000000 0.000000 -0.014818
 28 1.854841 1.227791 -13.762345 2.961011 -0.215283 2.092595
 29 10.456543 -0.000004 0.000004 -0.347634 0.092993 -1.362559
 30 24.248093 0.000001 0.000007 0.067315 0.023814 1.223451
 31 26.336971 0.000019 0.000002 -0.300308 -0.592681 0.725555
 32 1.854847 1.227798 13.762341 -2.803097 -0.102280 2.295681
 33 10.456542 -0.000008 0.000004 0.296388 0.309183 -1.105012
 34 24.248116 0.000002 -0.000004 -0.431381 -0.181364 1.818611
 35 26.336975 0.000000 0.000004 -0.033108 0.597387 0.298547
time 27
  0 0.000000 0.000000 0.000000 0.000000 -0.000000 -1.570796
  1 0.000000 0.000000 0.000000 0.000000 -0.000000 0.000000
  2 2.101627 -2.951586 27.394859 -1.522674 0.005223 1.525549
  3 4.222169 -0.467508 0.000000 -0.020189 0.004319 -0.016992
  4 4.476987 -0.000002 -0.000000 -0.018350 -0.054497 0.188691
  5 4.477083 0.000000 0.000002 -0.035676 -0.025390 0.014237
  6 4.477077 -0.000004 -0.000002 -0.028876 -0.025949 -0.096990
  7 5.413502 -7.700466 -0.000000 -0.005343 -0.077004 0.213727
  8 6.890240 0.000002 -0.000000 -0.001690 0.073923 -0.347069
  9 8.011925 0.000004 0.000005 0.000301 0.087035 -0.166771
 10 7.210720 -0.000002 -0.000000 -0.022620 0.133348 -0.463671
 11 7.811473 -0.304903 -0.000000 -0.096259 -0.117800 0.665823
 12 22.523008 2.194031 6.355708 0.000000 -0.000000 0.000000
 13 22.523005 2.194038 -6.355709 0.000000 -0.000000 0.000000
 14 -3.006533 7.804720 -11.355459 0.359492 0.614549 0.575462
 15 10.384675 0.000008 0.000005 -0.452563 -0.027637 -1.119530
 16 22.550743 -0.000006 -0.000004 0.054226 -0.469965 1.548959
 17 30.814247 -0.000015 -0.000004 2.505151 -0.085199 0.646115
 18 -3.013796 7.815494 11.355459 0.455630 -0.659641 0.246601
 19 10.374533 -0.000002 0.000007 -0.063057 -0.675255 -1.238781
 20 22.550726 -0.000027 -0.000013 0.026458 0.092855 1.827503
 21 30.814270 -0.000023 0.000002 -2.335061 -0.006750 0.790376
 22 -4.250660 -0.770624 0.000001 0.060966 -0.094890 3.061221
 23 10.363422 0.000000 0.000000 -0.010654 0.060155 -0.205640
 24 10.363076 0.000000 -0.000000 -0.004362 0.073307 0.064215
 25 10.363081 -0.000004 -0.000002 0.033430 0.051395 0.017296
 26 8.210358 -0.000006 -7.786025 0.000000 0.000000 -0.007677
 27 8.210346 -0.000002 7.704017 0.000000 0.000000 -0.007697
 28 1.854841 1.227791 -13.762345 2.971565 -0.114028 1.995039
 29 10.456543 -0.000004 0.000004 -0.305182 0.066924 -1.516351
 30 24.248093 0.000001 0.000007 0.057899 0.027204 1.291651
 31 26.336971 0.000019 0.000002 -0.221218 -0.475426 0.706336
 32 1.854847 1.227798 13.762341 -2.893718 -0.290914 2.308002
 33 10.456542 -0.000008 0.000004 0.396671 0.364284 -0.953280
 34 24.248116 0.000002 -0.000004 -0.384201 -0.189189 1.716405
 35 26.336975 0.000000 0.000004 -0.215704 0.488812 0.306176
time 28
  0 0.000000 0.000000 0.000000 0.000000 -0.000000 -1.570796
  1 0.000000 0.000000 0.000000 0.000000 -0.000000 0.000000
  2 2.668050 -2.951586 28.351921 -1.510116 0.006699 1.514620
  3 4.222169 -0.467508 0.000000 -0.027284 0.003503 0.023351
  4 4.476987 -0.000002 -0.000000 -0.024210 -0.066919 0.224029
  5 4.477083 0.000000 0.000002 -0.041705 -0.040558 -0.038781
  6 4.477077 -0.000004 -0.000002 -0.030889 -0.025573 -0.148848
  7 5.413502 -7.700466 -0.000000 -0.002406 -0.082577 0.186719
  8 6.890240 0.000002 -0.000000 0.000048 0.059886 -0.299060
  9 8.011925 0.000004 0.000005 0.000275 0.068104 -0.166537
 10 7.210720 -0.000002 -0.000000 -0.022510 0.142105 -0.460506
 11 7.811473 -0.304903 -0.000000 -0.092309 -0.061497 0.663475
 12 22.523008 2.194031 6.355708 0.000000 -0.000000 0.000000
 13 22.523005 2.194038 -6.355709 0.000000 -0.000000 0.000000
 14 -3.006533 7.804720 -11.355459 0.349834 0.481177 0.693717
 15 10.384675 0.000008 0.000005 -0.393847 0.053389 -1.372235
 16 22.550743 -0.000006 -0.000004 -0.037444 -0.461441 1.772326
 17 30.814247 -0.000015 -0.000004 2.613344 0.010193 0.569407
 18 -3.013796 7.815494 11.355459 0.529606 -0.494366 0.233491
 19 10.374533 -0.000002 0.000007 0.070819 -0.793693 -1.431350
 20 22.550726 -0.000027 -0.000013 0.043943 0.083020 2.019694
 21 30.814270 -0.000023 0.000002 -2.437706 -0.091578 0.731554
 22 -4.250660 -0.770624 0.000001 0.068444 -0.102047 3.010137
 23 10.363422 0.000000 0.000000 -0.013890 0.061761 -0.254339
 24 10.363076 0.000000 -0.000000 -0.006496 0.083865 0.106982
 25 10.363081 -0.000004 -0.000002 0.032285 0.052273 0.053781
 26 8.210358 -0.000006 -7.786025 0.000000 0.000000 -0.003295
 27 8.210346 -0.000002 7.704017 0.000000 0.000000 -0.003323
 28 1.854841 1.227791 -13.762345 2.971213 -0.012355 1.896084
 29 10.456543 -0.000004 0.000004 -0.254396 0.048417 -1.669273
 30 24.248093 0.000001 0.000007 0.049817 0.029767 1.304912
 31 26.336971 0.000019 0.000002 -0.128338 -0.334205 0.708490
 32 1.854847 1.227798 13.762341 -3.074486 -0.440830 2.332989
 33 10.456542 -0.000008 0.000004 0.556711 0.447993 -0.741919
 34 24.248116 0.000002 -0.000004 -0.324547 -0.204626 1.543980
 35 26.336975 0.000000 0.000004 -0.389337 0.380888 0.340143
time 29
  0 0.000000 0.000000 0.000000 0.000000 -0.000000 -1.570796
  1 0.000000 0.000000 0.000000 0.000000 -0.000000 0.000000
  2 3.144627 -2.951586 29.180071 -1.500434 0.007736 1.506184
  3 4.222169 -0.467508 0.000000 -0.033732 0.002929 0.059140
  4 4.476987 -0.000002 -0.000000 -0.030214 -0.077542 0.256015
  5 4.477083 0.000000 0.000002 -0.046690 -0.053061 -0.088181
  6 4.477077 -0.000004 -0.000002 -0.033310 -0.024408 -0.196003
  7 5.413502 -7.700466 -0.000000 0.001223 -0.093434 0.154826
  8 6.890240 0.000002 -0.000000 0.001246 0.045666 -0.248608
  9 8.011925 0.000004 0.000005 0.000210 0.053981 -0.166252
 10 7.210720 -0.000002 -0.000000 -0.022400 0.148055 -0.456430
 11 7.811473 -0.304903 -0.000000 -0.088888 -0.011305 0.661582
 12 22.523008 2.194031 6.355708 0.000000 -0.000000 0.000000
 13 22.523005 2.194038 -6.355709 0.000000 -0.000000 0.000000
 14 -3.006533 7.804720 -11.355459 0.304256 0.374338 0.795697
 15 10.384675 0.000008 0.000005 -0.323477 0.157499 -1.565234
 16 22.550743 -0.000006 -0.000004 -0.088925 -0.473093 1.915728
 17 30.814247 -0.000015 -0.000004 2.744905 0.142951 0.514543
 18 -3.013796 7.815494 11.355459 0.599408 -0.330100 0.228931
 19 10.374533 -0.000002 0.000007 0.175574 -0.926418 -1.591216
 20 22.550726 -0.000027 -0.000013 0.052952 0.074775 2.178075
 21 30.814270 -0.000023 0.000002 -2.568907 -0.217804 0.681098
 22 -4.250660 -0.770624 0.000001 0.074724 -0.107664 2.965737
 23 10.363422 0.000000 0.000000 -0.016623 0.063043 -0.295073
 24 10.363076 0.000000 -0.000000 -0.008042 0.092458 0.144277
 25 10.363081 -0.000004 -0.000002 0.031337 0.052951 0.085058
 26 8.210358 -0.000006 -7.786025 0.000000 0.000000 -0.001019
 27 8.210346 -0.000002 7.704017 0.000000 0.000000 -0.001017
 28 1.854841 1.227791 -13.762345 2.926888 0.074022 1.794270
 29 10.456543 -0.000004 0.000004 -0.186123 0.041210 -1.777865
 30 24.248093 0.000001 0.000007 0.043329 0.031522 1.277620
 31 26.336971 0.000019 0.000002 -0.036067 -0.193956 0.724451
 32 1.854847 1.227798 13.762341 3.001225 -0.509700 2.362112
 33 10.456542 -0.000008 0.000004 0.743847 0.531646 -0.495757
 34 24.248116 0.000002 -0.000004 -0.259490 -0.225431 1.303165
 35 26.336975 0.000000 0.000004 -0.543545 0.285155 0.449898
time 30
  0 0.000000 0.000000 0.000000 0.000000 -0.000000 -1.570796
  1 0.000000 0.000000 0.000000 0.000000 -0.000000 0.000000
  2 3.472762 -2.951586 29.766026 -1.494299 0.008175 1.500911
  3 4.222169 -0.467508 0.000000 -0.039041 0.002539 0.087354
  4 4.476987 -0.000002 -0.000000 -0.035991 -0.086131 0.277724
  5 4.477083 0.000000 0.000002 -0.050190 -0.061138 -0.122894
  6 4.477077 -0.000004 -0.000002 -0.036642 -0.022792 -0.229189
  7 5.413502 -7.700466 -0.000000 0.005250 -0.104937 0.120631
  8 6.890240 0.000002 -0.000000 0.001738 0.031289 -0.198318
  9 8.011925 0.000004 0.000005 0.000065 0.047623 -0.165863
 10 7.210720 -0.000002 -0.000000 -0.022373 0.152115 -0.451603
 11 7.811473 -0.304903 -0.000000 -0.086591 0.025109 0.660285
 12 22.523008 2.194031 6.355708 0.000000 -0.000000 0.000000
 13 22.523005 2.194038 -6.355709 0.000000 -0.000000 0.000000
 14 -3.006533 7.804720 -11.355459 0.248205 0.273823 0.896166
 15 10.384675 0.000008 0.000005 -0.251763 0.232882 -1.679423
 16 22.550743 -0.000006 -0.000004 -0.110403 -0.509768 1.985401
 17 30.814247 -0.000015 -0.000004 2.874589 0.282449 0.477155
 18 -3.013796 7.815494 11.355459 0.692578 -0.196289 0.208411
 19 10.374533 -0.000002 0.000007 0.245680 -1.087746 -1.713623
 20 22.550726 -0.000027 -0.000013 0.052870 0.071359 2.294085
 21 30.814270 -0.000023 0.000002 -2.699897 -0.351199 0.646429
 22 -4.250660 -0.770624 0.000001 0.078883 -0.111611 2.934779
 23 10.363422 0.000000 0.000000 -0.018516 0.064014 -0.322822
 24 10.363076 0.000000 -0.000000 -0.009216 0.098366 0.170706
 25 10.363081 -0.000004 -0.000002 0.030783 0.053228 0.107556
 26 8.210358 -0.000006 -7.786025 0.000000 0.000000 -0.000136
 27 8.210346 -0.000002 7.704017 0.000000 0.000000 -0.000136
 28 1.854841 1.227791 -13.762345 2.842107 0.140514 1.730531
 29 10.456543 -0.000004 0.000004 -0.128192 0.042171 -1.812079
 30 24.248093 0.000001 0.000007 0.039659 0.032168 1.217117
 31 26.336971 0.000019 0.000002 0.078304 -0.085610 0.750738
 32 1.854847 1.227798 13.762341 2.844868 -0.525461 2.384945
 33 10.456542 -0.000008 0.000004 0.918368 0.534596 -0.246877
 34 24.248116 0.000002 -0.000004 -0.176842 -0.226102 0.968876
 35 26.336975 0.000000 0.000004 -0.680042 0.198791 0.624648
time 31
  0 0.000000 0.000000 0.000000 0.000000 -0.000000 -1.570796
  1 0.000000 0.000000 0.000000 0.000000 -0.000000 0.000000
  2 3.597766 -2.951586 29.996502 -1.492478 0.007776 1.499377
  3 4.222169 -0.467508 0.000000 -0.042768 0.002243 0.105033
  4 4.476987 -0.000002 -0.000000 -0.041108 -0.092599 0.282275
  5 4.477083 0.000000 0.000002 -0.051951 -0.062995 -0.131905
  6 4.477077 -0.000004 -0.000002 -0.041316 -0.020969 -0.239234
  7 5.413502 -7.700466 -0.000000 0.008958 -0.112464 0.086684
  8 6.890240 0.000002 -0.000000 0.001522 0.016729 -0.147959
  9 8.011925 0.000004 0.000005 -0.000144 0.051984 -0.165343
 10 7.210720 -0.000002 -0.000000 -0.022455 0.155170 -0.446132
 11 7.811473 -0.304903 -0.000000 -0.085328 0.045288 0.659549
 12 22.523008 2.194031 6.355708 0.000000 -0.000000 0.000000
 13 22.523005 2.194038 -6.355709 0.000000 -0.000000 0.000000
 14 -3.006533 7.804720 -11.355459 0.171537 0.159918 0.934279
 15 10.384675 0.000008 0.000005 -0.208846 0.253292 -1.723077
 16 22.550743 -0.000006 -0.000004 -0.105893 -0.538897 1.986128
 17 30.814247 -0.000015 -0.000004 3.027684 0.381288 0.462652
 18 -3.013796 7.815494 11.355459 0.788803 -0.125105 0.159676
 19 10.374533 -0.000002 0.000007 0.093940 -1.277314 -1.622760
 20 22.550726 -0.000027 -0.000013 0.045904 0.072870 2.375602
 21 30.814270 -0.000023 0.000002 -2.835237 -0.495458 0.602166
 22 -4.250660 -0.770624 0.000001 0.079961 -0.113746 2.924025
 23 10.363422 0.000000 0.000000 -0.019271 0.064721 -0.332571
 24 10.363076 0.000000 -0.000000 -0.010283 0.100859 0.180953
 25 10.363081 -0.000004 -0.000002 0.030807 0.052858 0.117678
 26 8.210358 -0.000006 -7.786025 0.000000 0.000000 0.001732
 27 8.210346 -0.000002 7.704017 0.000000 0.000000 0.003594
 28 1.854841 1.227791 -13.762345 2.735163 0.203329 1.737768
 29 10.456543 -0.000004 0.000004 -0.098092 0.047527 -1.753072
 30 24.248093 0.000001 0.000007 0.036063 0.032551 1.155607
 31 26.336971 0.000019 0.000002 0.204378 -0.023803 0.782990
 32 1.854847 1.227798 13.762341 2.778692 -0.602430 2.416739
 33 10.456542 -0.000008 0.000004 1.015633 0.287505 -0.076306
 34 24.248116 0.000002 -0.000004 -0.073363 -0.131592 0.448455
 35 26.336975 0.000000 0.000004 -0.815595 0.108797 0.884455
end
