version 1
nodes
  0 "Chaurus" -1
  1 "NPC Root [Root]" 0
  2 "Pelvis [Pelv]" 1
  3 "Spine[Spn0]" 2
  4 "Spine[Spn1]" 3
  5 "Spine[Spn2]" 4
  6 "Ribcage[Spn3]" 5
  7 "[Neck0]" 6
  8 "[Neck1]" 7
  9 "[Neck2]" 8
 10 "[Neck3]" 9
 11 "NPC Head [Head]" 10
 12 "Head[LeftPincher]" 11
 13 "Head[RightPincher]" 11
 14 "R UpperArm[RClv]" 6
 15 "R UpperArm[RUar]" 14
 16 "R UpperArm[RLar]" 15
 17 "R UpperArm[RHnd]" 16
 18 "L UpperArm[RClv]" 6
 19 "L UpperArm[LUar]" 18
 20 "L UpperArm[LLar]" 19
 21 "L UpperArm[LHnd]" 20
 22 "Tail[Tal0]" 2
 23 "Tail[Tal1]" 22
 24 "Tail[Tal2]" 23
 25 "Tail[Tal3]" 24
 26 "[TalRightPincher]" 25
 27 "[TalLeftPincher]" 25
 28 "R Leg[RThg0]" 2
 29 "R Leg[RThg1]" 28
 30 "R Leg[RClf]" 29
 31 "R Leg[RAnkle]" 30
 32 "LLeg[RThg0]" 2
 33 "LLeg[LThg1]" 32
 34 "LLeg[LClf]" 33
 35 "LLeg[LAnkle]" 34
end
skeleton
time 0
  0 0.000000 0.000000 0.000000 0.000000 -0.000000 -1.570796
  1 0.000000 0.000000 0.000000 0.000000 -0.000000 0.000000
  2 -2.363353 -12.959703 31.785618 -1.570988 -0.244686 1.570988
  3 4.222169 -0.467508 0.000000 -0.002069 0.000018 0.022093
  4 4.476987 -0.000002 -0.000000 0.015327 -0.013331 0.198502
  5 4.477083 0.000000 0.000002 -0.004349 0.026123 -0.067772
  6 4.477077 -0.000004 -0.000002 -0.006321 -0.017097 -0.152773
  7 5.413502 -7.700466 -0.000000 0.007297 0.008547 -0.244474
  8 6.890240 0.000002 -0.000000 0.001953 0.017148 -0.340157
  9 8.011925 0.000004 0.000005 -0.006810 -0.024538 0.104449
 10 7.210720 -0.000002 -0.000000 0.000000 0.000000 0.130654
 11 8.581028 -0.304903 -0.000000 0.007192 -0.002445 0.657761
 12 22.523008 2.194031 6.355708 0.000000 -0.107298 0.000000
 13 22.523005 2.194038 -6.355709 0.000000 0.143986 0.000000
 14 -3.006533 7.804720 -11.355459 0.417062 0.139568 1.305664
 15 10.384675 0.000008 0.000005 0.030464 0.191255 -1.678201
 16 22.550743 -0.000006 -0.000004 0.121603 0.013421 1.761793
 17 30.814247 -0.000015 -0.000004 2.465533 0.223170 0.409113
 18 -3.013796 7.815494 11.355459 -0.021830 -0.276927 1.183800
 19 10.374533 -0.000002 0.000007 -0.057193 -0.178445 -1.528708
 20 22.550726 -0.000027 -0.000013 -0.123967 0.036847 1.875024
 21 30.814270 -0.000023 0.000002 -2.745536 0.021901 0.340015
 22 -4.250660 -0.770624 0.000001 0.016515 -0.162675 -2.777702
 23 10.363422 0.000000 0.000000 0.002661 0.066003 -0.470131
 24 10.363076 0.000000 -0.000000 -0.026810 0.095059 -0.325023
 25 10.363081 -0.000004 -0.000002 -0.034384 0.127470 0.014423
 26 8.081448 0.515635 -7.582893 0.000000 0.000000 0.177086
 27 8.210346 -0.000002 7.704017 0.000000 0.000000 0.169444
 28 1.854841 1.227791 -13.762345 2.614544 0.166567 2.068388
 29 10.456543 -0.000004 0.000004 0.051033 0.091640 -1.369420
 30 24.248093 0.000001 0.000007 0.029835 0.033116 1.029271
 31 26.336971 0.000019 0.000002 0.386223 0.069828 0.616594
 32 1.854847 1.227798 13.762341 -2.675642 -0.086465 2.016859
 33 10.456542 -0.000008 0.000004 -0.038783 -0.093415 -1.495575
 34 24.248116 0.000002 -0.000004 -0.032583 -0.035020 1.121144
 35 26.336975 0.000000 0.000004 -0.306530 -0.028256 0.579265
time 1
  0 0.000000 0.000000 0.000000 0.000000 -0.000000 -1.570796
  1 0.000000 0.000000 0.000000 0.000000 -0.000000 0.000000
  2 -2.363353 -12.959703 31.785618 -1.570988 -0.244686 1.570988
  3 4.222169 -0.467508 0.000000 -0.002069 0.000018 0.022093
  4 4.476987 -0.000002 -0.000000 0.015327 -0.013331 0.198502
  5 4.477083 0.000000 0.000002 -0.004349 0.026123 -0.067772
  6 4.477077 -0.000004 -0.000002 -0.006321 -0.017097 -0.152773
  7 5.413502 -7.700466 -0.000000 0.007297 0.008547 -0.244474
  8 6.890240 0.000002 -0.000000 0.001953 0.017148 -0.340157
  9 8.011925 0.000004 0.000005 -0.006810 -0.024538 0.104449
 10 7.210720 -0.000002 -0.000000 0.000000 0.000000 0.130654
 11 8.581028 -0.304903 -0.000000 0.007192 -0.002445 0.657761
 12 22.523008 2.194031 6.355708 0.000000 -0.107298 0.000000
 13 22.523005 2.194038 -6.355709 0.000000 0.143986 0.000000
 14 -3.006533 7.804720 -11.355459 0.417062 0.139568 1.305664
 15 10.384675 0.000008 0.000005 0.030464 0.191255 -1.678201
 16 22.550743 -0.000006 -0.000004 0.121603 0.013421 1.761793
 17 30.814247 -0.000015 -0.000004 2.465533 0.223170 0.409113
 18 -3.013796 7.815494 11.355459 -0.021830 -0.276927 1.183800
 19 10.374533 -0.000002 0.000007 -0.057193 -0.178445 -1.528708
 20 22.550726 -0.000027 -0.000013 -0.123967 0.036847 1.875024
 21 30.814270 -0.000023 0.000002 -2.745536 0.021901 0.340015
 22 -4.250660 -0.770624 0.000001 0.016515 -0.162675 -2.777702
 23 10.363422 0.000000 0.000000 0.002661 0.066003 -0.470131
 24 10.363076 0.000000 -0.000000 -0.026810 0.095059 -0.325023
 25 10.363081 -0.000004 -0.000002 -0.034384 0.127470 0.014423
 26 8.081448 0.515635 -7.582893 0.000000 0.000000 0.177086
 27 8.210346 -0.000002 7.704017 0.000000 0.000000 0.169444
 28 1.854841 1.227791 -13.762345 2.614544 0.166567 2.068388
 29 10.456543 -0.000004 0.000004 0.051033 0.091640 -1.369420
 30 24.248093 0.000001 0.000007 0.029835 0.033116 1.029271
 31 26.336971 0.000019 0.000002 0.386223 0.069828 0.616594
 32 1.854847 1.227798 13.762341 -2.675642 -0.086465 2.016859
 33 10.456542 -0.000008 0.000004 -0.038783 -0.093415 -1.495575
 34 24.248116 0.000002 -0.000004 -0.032583 -0.035020 1.121144
 35 26.336975 0.000000 0.000004 -0.306530 -0.028256 0.579265
time 2
  0 0.000000 0.000000 0.000000 0.000000 -0.000000 -1.570796
  1 0.000000 0.000000 0.000000 0.000000 -0.000000 0.000000
  2 -2.363353 -13.389404 31.488735 -1.570988 -0.226018 1.571084
  3 4.222169 -0.467508 0.000000 -0.001074 0.000204 -0.004464
  4 4.476987 -0.000002 -0.000000 0.014644 -0.013417 0.164629
  5 4.477083 0.000000 0.000002 -0.004457 0.026285 -0.062495
  6 4.477077 -0.000004 -0.000002 -0.007627 -0.016346 -0.117749
  7 5.413502 -7.700466 -0.000000 0.006074 0.014782 -0.261806
  8 6.890240 0.000002 -0.000000 0.002541 0.016873 -0.298315
  9 8.011925 0.000004 0.000005 -0.007295 -0.024123 0.121503
 10 7.210720 -0.000002 -0.000000 0.000000 0.000000 0.120329
 11 8.581028 -0.304903 -0.000000 0.007169 -0.002445 0.659374
 12 22.523008 2.194031 6.355708 0.000000 -0.108979 0.000000
 13 22.523005 2.194038 -6.355709 0.000000 0.145468 0.000000
 14 -3.006533 7.804720 -11.355459 0.418255 0.137166 1.311707
 15 10.384675 0.000008 0.000005 0.032891 0.191276 -1.664816
 16 22.550743 -0.000006 -0.000004 0.121139 0.013593 1.749565
 17 30.814247 -0.000015 -0.000004 2.465097 0.227464 0.407645
 18 -3.013796 7.815494 11.355459 -0.009764 -0.278945 1.194915
 19 10.374533 -0.000002 0.000007 -0.059215 -0.178213 -1.518212
 20 22.550726 -0.000027 -0.000013 -0.123620 0.036769 1.861438
 21 30.814270 -0.000023 0.000002 -2.755850 0.029901 0.350976
 22 -4.250660 -0.770624 0.000001 0.013075 -0.138603 -2.809479
 23 10.363422 0.000000 0.000000 0.007047 0.056212 -0.415248
 24 10.363076 0.000000 -0.000000 -0.026857 0.080737 -0.346419
 25 10.363081 -0.000004 -0.000002 -0.030814 0.108859 -0.016022
 26 8.081448 0.515635 -7.582893 0.000000 0.000000 0.162513
 27 8.210346 -0.000002 7.704017 0.000000 0.000000 0.154965
 28 1.854841 1.227791 -13.762345 2.603243 0.158080 2.035606
 29 10.456543 -0.000004 0.000004 0.046613 0.092654 -1.418787
 30 24.248093 0.000001 0.000007 0.031281 0.034185 1.072192
 31 26.336971 0.000019 0.000002 0.393619 0.065439 0.606046
 32 1.854847 1.227798 13.762341 -2.667133 -0.078749 1.983988
 33 10.456542 -0.000008 0.000004 -0.033832 -0.093499 -1.544287
 34 24.248116 0.000002 -0.000004 -0.033904 -0.035607 1.160138
 35 26.336975 0.000000 0.000004 -0.312019 -0.026426 0.572087
time 3
  0 0.000000 0.000000 0.000000 0.000000 -0.000000 -1.570796
  1 0.000000 0.000000 0.000000 0.000000 -0.000000 0.000000
  2 -2.363353 -14.213648 30.977001 -1.570892 -0.179785 1.571276
  3 4.222169 -0.467508 0.000000 0.002090 0.000111 -0.075429
  4 4.476987 -0.000002 -0.000000 0.012918 -0.013695 0.076372
  5 4.477083 0.000000 0.000002 -0.005212 0.026673 -0.037239
  6 4.477077 -0.000004 -0.000002 -0.009125 -0.016026 -0.053495
  7 5.413502 -7.700466 -0.000000 0.004705 0.020967 -0.290120
  8 6.890240 0.000002 -0.000000 0.003607 0.015788 -0.243186
  9 8.011925 0.000004 0.000005 -0.007675 -0.023804 0.138348
 10 7.210720 -0.000002 -0.000000 0.000000 0.000000 0.109629
 11 8.581028 -0.304903 -0.000000 0.007169 -0.002479 0.668627
 12 22.523008 2.194031 6.355708 0.000000 -0.720873 0.000000
 13 22.523005 2.194038 -6.355709 0.000000 0.684144 0.000000
 14 -3.006533 7.804720 -11.355459 0.421945 0.133138 1.328739
 15 10.384675 0.000008 0.000005 0.039204 0.191106 -1.629104
 16 22.550743 -0.000006 -0.000004 0.120227 0.013823 1.715606
 17 30.814247 -0.000015 -0.000004 2.466451 0.240756 0.415631
 18 -3.013796 7.815494 11.355459 0.014318 -0.282906 1.213441
 19 10.374533 -0.000002 0.000007 -0.063394 -0.177947 -1.496004
 20 22.550726 -0.000027 -0.000013 -0.122762 0.036572 1.826635
 21 30.814270 -0.000023 0.000002 -2.770268 0.041401 0.364504
 22 -4.250660 -0.770624 0.000001 0.007862 -0.098950 -2.868398
 23 10.363422 0.000000 0.000000 0.013555 0.042178 -0.325199
 24 10.363076 0.000000 -0.000000 -0.027013 0.054083 -0.368745
 25 10.363081 -0.000004 -0.000002 -0.023882 0.071915 -0.059246
 26 8.081448 0.515635 -7.582893 0.000000 0.000000 0.127931
 27 8.210346 -0.000002 7.704017 0.000000 0.000000 0.120581
 28 1.854841 1.227791 -13.762345 2.576507 0.139847 1.965115
 29 10.456543 -0.000004 0.000004 0.039398 0.093277 -1.493295
 30 24.248093 0.000001 0.000007 0.032875 0.035053 1.123638
 31 26.336971 0.000019 0.000002 0.411847 0.053299 0.595995
 32 1.854847 1.227798 13.762341 -2.645997 -0.061647 1.912344
 33 10.456542 -0.000008 0.000004 -0.026744 -0.093332 -1.618262
 34 24.248116 0.000002 -0.000004 -0.035718 -0.036614 1.211367
 35 26.336975 0.000000 0.000004 -0.327028 -0.015289 0.558862
time 4
  0 0.000000 0.000000 0.000000 0.000000 -0.000000 -1.570796
  1 0.000000 0.000000 0.000000 0.000000 -0.000000 0.000000
  2 -2.363353 -15.268368 30.348076 -1.570701 -0.116520 1.571372
  3 4.222169 -0.467508 0.000000 0.006560 0.000037 -0.171264
  4 4.476987 -0.000002 -0.000000 0.010629 -0.014402 -0.043716
  5 4.477083 0.000000 0.000002 -0.006314 0.027157 -0.003801
  6 4.477077 -0.000004 -0.000002 -0.010863 -0.015387 0.014497
  7 5.413502 -7.700466 -0.000000 0.002805 0.027016 -0.331441
  8 6.890240 0.000002 -0.000000 0.004470 0.014664 -0.187963
  9 8.011925 0.000004 0.000005 -0.007989 -0.023564 0.155246
 10 7.210720 -0.000002 -0.000000 0.000000 0.000000 0.098473
 11 8.581028 -0.304903 -0.000000 0.007146 -0.002530 0.682366
 12 22.523008 2.194031 6.355708 0.000000 -0.392317 0.000000
 13 22.523005 2.194038 -6.355709 0.000000 0.382681 0.000000
 14 -3.006533 7.804720 -11.355459 0.426828 0.128227 1.351813
 15 10.384675 0.000008 0.000005 0.047907 0.190512 -1.579508
 16 22.550743 -0.000006 -0.000004 0.119060 0.014024 1.668149
 17 30.814247 -0.000015 -0.000004 2.469246 0.259565 0.429848
 18 -3.013796 7.815494 11.355459 0.039418 -0.287614 1.232479
 19 10.374533 -0.000002 0.000007 -0.073708 -0.178113 -1.437207
 20 22.550726 -0.000027 -0.000013 -0.121577 0.036376 1.778680
 21 30.814270 -0.000023 0.000002 -2.785247 0.053635 0.378366
 22 -4.250660 -0.770624 0.000001 0.001234 -0.054129 -2.953128
 23 10.363422 0.000000 0.000000 0.019175 0.026850 -0.231453
 24 10.363076 0.000000 -0.000000 -0.026869 0.023822 -0.388902
 25 10.363081 -0.000004 -0.000002 -0.014008 0.029487 -0.104457
 26 8.081448 0.515635 -7.582893 0.000000 0.000000 0.086454
 27 8.210346 -0.000002 7.704017 0.000000 0.000000 0.079314
 28 1.854841 1.227791 -13.762345 2.542076 0.113202 1.872364
 29 10.456543 -0.000004 0.000004 0.031886 0.093366 -1.569669
 30 24.248093 0.000001 0.000007 0.034692 0.035860 1.176090
 31 26.336971 0.000019 0.000002 0.433033 0.038478 0.578930
 32 1.854847 1.227798 13.762341 -2.618852 -0.036748 1.817479
 33 10.456542 -0.000008 0.000004 -0.019418 -0.092497 -1.695311
 34 24.248116 0.000002 -0.000004 -0.037661 -0.037405 1.263156
 35 26.336975 0.000000 0.000004 -0.347827 0.001090 0.542133
time 5
  0 0.000000 0.000000 0.000000 0.000000 -0.000000 -1.570796
  1 0.000000 0.000000 -0.003906 0.000000 -0.000000 0.000000
  2 -2.363353 -16.377777 29.699619 -1.570413 -0.047990 1.571468
  3 4.222169 -0.467508 0.000000 0.011306 0.000074 -0.270319
  4 4.476987 -0.000002 -0.000000 0.008340 -0.015516 -0.170041
  5 4.477083 0.000000 0.000002 -0.007489 0.027577 0.025457
  6 4.477077 -0.000004 -0.000002 -0.012625 -0.014504 0.084949
  7 5.413502 -7.700466 -0.000000 0.000771 0.032963 -0.376745
  8 6.890240 0.000002 -0.000000 0.005153 0.013567 -0.135137
  9 8.011925 0.000004 0.000005 -0.008251 -0.023388 0.172014
 10 7.210720 -0.000002 -0.000000 0.000000 0.000000 0.086942
 11 8.581028 -0.304903 -0.000000 0.007123 -0.002582 0.697228
 12 22.523008 2.194031 6.355708 0.000000 0.061745 0.000000
 13 22.523005 2.194038 -6.355709 0.000000 -0.027829 0.000000
 14 -3.006533 7.804720 -11.355459 0.431766 0.123281 1.375368
 15 10.384675 0.000008 0.000005 0.057357 0.189388 -1.525523
 16 22.550743 -0.000006 -0.000004 0.117796 0.014139 1.616211
 17 30.814247 -0.000015 -0.000004 2.472915 0.280129 0.446680
 18 -3.013796 7.815494 11.355459 0.065129 -0.292958 1.251801
 19 10.374533 -0.000002 0.000007 -0.083415 -0.177648 -1.381541
 20 22.550726 -0.000027 -0.000013 -0.120270 0.036239 1.726569
 21 30.814270 -0.000023 0.000002 -2.800578 0.066455 0.392367
 22 -4.250660 -0.770624 0.000001 -0.004866 -0.019979 -3.050661
 23 10.363422 0.000000 0.000000 0.023466 0.011545 -0.144045
 24 10.363076 0.000000 -0.000000 -0.026570 -0.000770 -0.404491
 25 10.363081 -0.000004 -0.000002 -0.003617 -0.005053 -0.141184
 26 8.081448 0.515635 -7.582893 -0.000012 0.000000 0.051600
 27 8.210346 -0.000002 7.704017 -0.000012 0.000000 0.044624
 28 1.854841 1.227791 -13.762345 2.507908 0.081473 1.774565
 29 10.456543 -0.000004 0.000004 0.024549 0.092904 -1.644264
 30 24.248093 0.000001 0.000007 0.036545 0.036587 1.227714
 31 26.336971 0.000019 0.000002 0.462485 0.017902 0.563301
 32 1.854847 1.227798 13.762341 -2.592145 -0.007443 1.716756
 33 10.456542 -0.000008 0.000004 -0.011991 -0.091022 -1.773935
 34 24.248116 0.000002 -0.000004 -0.039526 -0.037992 1.313776
 35 26.336975 0.000000 0.000004 -0.370169 0.018587 0.524670
time 6
  0 0.000000 0.000000 0.000000 0.000000 -0.000000 -1.570796
  1 0.000000 0.000000 -0.007813 0.000000 -0.000000 0.000000
  2 -2.363353 -17.369995 29.121475 -1.570221 0.015116 1.571563
  3 4.222169 -0.467508 0.000000 0.015477 -0.000000 -0.352845
  4 4.476987 -0.000002 -0.000000 0.006470 -0.016908 -0.279386
  5 4.477083 0.000000 0.000002 -0.008495 0.027803 0.039671
  6 4.477077 -0.000004 -0.000002 -0.014123 -0.013508 0.153065
  7 5.413502 -7.700466 -0.000000 -0.001542 0.038774 -0.425627
  8 6.890240 0.000002 -0.000000 0.005717 0.012573 -0.086267
  9 8.011925 0.000004 0.000005 -0.008474 -0.023244 0.188990
 10 7.210720 -0.000002 -0.000000 0.000000 0.000000 0.074901
 11 8.581028 -0.304903 -0.000000 0.007123 -0.002633 0.710091
 12 22.523008 2.194031 6.355708 0.000000 0.294673 0.000000
 13 22.523005 2.194038 -6.355709 0.000000 -0.212893 0.000000
 14 -3.006533 7.804720 -11.355459 0.435727 0.119218 1.394459
 15 10.384675 0.000008 0.000005 0.066022 0.187860 -1.475482
 16 22.550743 -0.000006 -0.000004 0.116661 0.014139 1.567906
 17 30.814247 -0.000015 -0.000004 2.476715 0.299157 0.462831
 18 -3.013796 7.815494 11.355459 0.091655 -0.298899 1.271581
 19 10.374533 -0.000002 0.000007 -0.091706 -0.176751 -1.333471
 20 22.550726 -0.000027 -0.000013 -0.119065 0.036180 1.678366
 21 30.814270 -0.000023 0.000002 -2.816469 0.080157 0.406731
 22 -4.250660 -0.770624 0.000001 -0.009504 0.001717 3.112433
 23 10.363422 0.000000 0.000000 0.026690 0.000903 -0.101111
 24 10.363076 0.000000 -0.000000 -0.026486 -0.011257 -0.390812
 25 10.363081 -0.000004 -0.000002 0.003758 -0.020120 -0.133237
 26 8.081448 0.515635 -7.582893 0.000330 0.000000 0.042938
 27 8.210346 -0.000002 7.704017 0.000336 0.000000 0.036012
 28 1.854841 1.227791 -13.762345 2.479589 0.049844 1.686496
 29 10.456543 -0.000004 0.000004 0.017770 0.091978 -1.714125
 30 24.248093 0.000001 0.000007 0.038251 0.037273 1.276673
 31 26.336971 0.000019 0.000002 0.490284 -0.001439 0.550820
 32 1.854847 1.227798 13.762341 -2.570402 0.021478 1.625639
 33 10.456542 -0.000008 0.000004 -0.004937 -0.089074 -1.849959
 34 24.248116 0.000002 -0.000004 -0.041184 -0.038375 1.361706
 35 26.336975 0.000000 0.000004 -0.389895 0.033632 0.509297
time 7
  0 0.000000 0.000000 0.000000 0.000000 -0.000000 -1.570796
  1 0.000000 0.000000 -0.011719 0.000000 -0.000000 0.000000
  2 -2.363353 -18.077047 28.715214 -1.570126 0.060869 1.571564
  3 4.222169 -0.467508 0.000000 0.018233 -0.000464 -0.402036
  4 4.476987 -0.000002 -0.000000 0.005344 -0.018172 -0.350062
  5 4.477083 0.000000 0.000002 -0.009178 0.027820 0.040812
  6 4.477077 -0.000004 -0.000002 -0.014375 -0.013283 0.179742
  7 5.413502 -7.700466 -0.000000 -0.003921 0.043684 -0.470495
  8 6.890240 0.000002 -0.000000 0.006208 0.011776 -0.043564
  9 8.011925 0.000004 0.000005 -0.008657 -0.023133 0.203473
 10 7.210720 -0.000002 -0.000000 0.000000 0.000000 0.062511
 11 8.581028 -0.304903 -0.000000 0.007100 -0.002667 0.717907
 12 22.523008 2.194031 6.355708 0.000024 0.439306 -0.000012
 13 22.523005 2.194038 -6.355709 0.000000 -0.332286 0.000000
 14 -3.006533 7.804720 -11.355459 0.437735 0.116992 1.404279
 15 10.384675 0.000008 0.000005 0.072297 0.186481 -1.438937
 16 22.550743 -0.000006 -0.000004 0.115845 0.014110 1.532434
 17 30.814247 -0.000015 -0.000004 2.479642 0.312856 0.474434
 18 -3.013796 7.815494 11.355459 0.115227 -0.304579 1.289080
 19 10.374533 -0.000002 0.000007 -0.097571 -0.175887 -1.299434
 20 22.550726 -0.000027 -0.000013 -0.118186 0.036199 1.643129
 21 30.814270 -0.000023 0.000002 -2.830711 0.092831 0.419310
 22 -4.250660 -0.770624 0.000001 -0.009420 0.002664 2.887280
 23 10.363422 0.000000 0.000000 0.027744 -0.002752 -0.120499
 24 10.363076 0.000000 -0.000000 -0.025455 -0.007434 -0.177959
 25 10.363081 -0.000004 -0.000002 0.007895 -0.017717 0.117758
 26 8.081448 0.515635 -7.582893 0.004275 0.000000 0.115328
 27 8.210346 -0.000002 7.704017 0.004279 0.000000 0.108408
 28 1.854841 1.227791 -13.762345 2.461296 0.025640 1.623851
 29 10.456543 -0.000004 0.000004 0.012442 0.090857 -1.769876
 30 24.248093 0.000001 0.000007 0.039511 0.037737 1.311365
 31 26.336971 0.000019 0.000002 0.506902 -0.013212 0.543806
 32 1.854847 1.227798 13.762341 -2.556660 0.043395 1.560500
 33 10.456542 -0.000008 0.000004 -0.001613 -0.087710 -1.888385
 34 24.248116 0.000002 -0.000004 -0.042273 -0.038531 1.395775
 35 26.336975 0.000000 0.000004 -0.403403 0.043342 0.498729
time 8
  0 0.000000 0.000000 0.000000 0.000000 -0.000000 -1.570796
  1 0.000000 0.000000 -0.015625 0.000000 -0.000000 0.000000
  2 -2.363353 -18.373932 28.543333 -1.570221 0.080056 1.571372
  3 4.222169 -0.467508 0.000000 0.019288 -0.000853 -0.418719
  4 4.476987 -0.000002 -0.000000 0.004948 -0.018771 -0.375323
  5 4.477083 0.000000 0.000002 -0.009610 0.027836 0.042502
  6 4.477077 -0.000004 -0.000002 -0.014447 -0.013207 0.190689
  7 5.413502 -7.700466 -0.000000 -0.004293 0.044262 -0.474633
  8 6.890240 0.000002 -0.000000 0.006604 0.011292 -0.012823
  9 8.011925 0.000004 0.000005 -0.008605 -0.023165 0.199424
 10 7.210720 -0.000002 -0.000000 0.000000 0.000000 0.049585
 11 8.581028 -0.304903 -0.000000 0.007100 -0.002667 0.721587
 12 22.523008 2.194031 6.355708 -0.000240 0.485134 0.000180
 13 22.523005 2.194038 -6.355709 0.000012 -0.380080 -0.000012
 14 -3.006533 7.804720 -11.355459 0.438169 0.116356 1.406271
 15 10.384675 0.000008 0.000005 0.074949 0.185781 -1.423220
 16 22.550743 -0.000006 -0.000004 0.115509 0.014081 1.516938
 17 30.814247 -0.000015 -0.000004 2.480603 0.318373 0.478337
 18 -3.013796 7.815494 11.355459 0.115584 -0.304766 1.289764
 19 10.374533 -0.000002 0.000007 -0.100200 -0.175389 -1.283952
 20 22.550726 -0.000027 -0.000013 -0.117819 0.036239 1.627992
 21 30.814270 -0.000023 0.000002 -2.831378 0.093565 0.418139
 22 -4.250660 -0.770624 0.000001 -0.009096 0.002247 2.706349
 23 10.363422 0.000000 0.000000 0.028116 -0.005257 -0.144551
 24 10.363076 0.000000 -0.000000 -0.025204 -0.006403 -0.001161
 25 10.363081 -0.000004 -0.000002 0.009779 -0.019057 0.324482
 26 8.081448 0.515635 -7.582893 0.007634 0.000475 0.171888
 27 8.210346 -0.000002 7.704017 0.007634 0.000495 0.164934
 28 1.854841 1.227791 -13.762345 2.454920 0.015253 1.598003
 29 10.456543 -0.000004 0.000004 0.009332 0.089879 -1.804263
 30 24.248093 0.000001 0.000007 0.040104 0.037918 1.325692
 31 26.336971 0.000019 0.000002 0.511862 -0.017101 0.541707
 32 1.854847 1.227798 13.762341 -2.552068 0.052671 1.533704
 33 10.456542 -0.000008 0.000004 0.000625 -0.086959 -1.910849
 34 24.248116 0.000002 -0.000004 -0.042765 -0.038531 1.410092
 35 26.336975 0.000000 0.000004 -0.410908 0.048243 0.492851
time 9
  0 0.000000 0.000000 0.000000 0.000000 -0.000000 -1.570796
  1 0.000000 0.000000 -0.019532 0.000000 -0.000000 0.000000
  2 -2.363353 -18.381744 28.539427 -1.570413 0.078062 1.571180
  3 4.222169 -0.467508 0.000000 0.019144 -0.000816 -0.416848
  4 4.476987 -0.000002 -0.000000 0.004984 -0.018686 -0.370573
  5 4.477083 0.000000 0.000002 -0.009814 0.027836 0.044043
  6 4.477077 -0.000004 -0.000002 -0.014435 -0.013207 0.189210
  7 5.413502 -7.700466 -0.000000 -0.004240 0.043922 -0.469344
  8 6.890240 0.000002 -0.000000 0.006496 0.011345 -0.012892
  9 8.011925 0.000004 0.000005 -0.008526 -0.023212 0.192909
 10 7.210720 -0.000002 -0.000000 0.000000 0.000000 0.036311
 11 8.581028 -0.304903 -0.000000 0.007100 -0.002684 0.725163
 12 22.523008 2.194031 6.355708 -0.003332 0.375544 0.002601
 13 22.523005 2.194038 -6.355709 0.000623 -0.287124 -0.000659
 14 -3.006533 7.804720 -11.355459 0.438386 0.115968 1.407301
 15 10.384675 0.000008 0.000005 0.074725 0.185781 -1.424331
 16 22.550743 -0.000006 -0.000004 0.115557 0.014024 1.517725
 17 30.814247 -0.000015 -0.000004 2.479948 0.317370 0.476117
 18 -3.013796 7.815494 11.355459 0.112682 -0.304242 1.288054
 19 10.374533 -0.000002 0.000007 -0.100402 -0.175356 -1.283082
 20 22.550726 -0.000027 -0.000013 -0.117880 0.036278 1.629109
 21 30.814270 -0.000023 0.000002 -2.829800 0.092244 0.414959
 22 -4.250660 -0.770624 0.000001 -0.009048 0.002295 2.720074
 23 10.363422 0.000000 0.000000 0.028296 -0.005497 -0.135265
 24 10.363076 0.000000 -0.000000 -0.024580 -0.004378 0.029242
 25 10.363081 -0.000004 -0.000002 0.009471 -0.016977 0.346980
 26 8.081448 0.515635 -7.582893 0.008098 0.000645 0.172194
 27 8.210346 -0.000002 7.704017 0.008090 0.000681 0.165206
 28 1.854841 1.227791 -13.762345 2.456987 0.016314 1.600800
 29 10.456543 -0.000004 0.000004 0.009891 0.090110 -1.798359
 30 24.248093 0.000001 0.000007 0.040327 0.037979 1.330842
 31 26.336971 0.000019 0.000002 0.513863 -0.018704 0.540658
 32 1.854847 1.227798 13.762341 -2.553858 0.051522 1.536892
 33 10.456542 -0.000008 0.000004 0.001201 -0.086736 -1.916721
 34 24.248116 0.000002 -0.000004 -0.042972 -0.038543 1.415373
 35 26.336975 0.000000 0.000004 -0.413566 0.049484 0.490703
time 10
  0 0.000000 0.000000 0.000000 0.000000 -0.000000 -1.570796
  1 0.000000 0.000000 -0.027345 0.000000 -0.000000 0.000000
  2 -2.363353 -18.295805 28.590210 -1.570701 0.073275 1.570892
  3 4.222169 -0.467508 0.000000 0.018833 -0.000705 -0.412340
  4 4.476987 -0.000002 -0.000000 0.005092 -0.018536 -0.363403
  5 4.477083 0.000000 0.000002 -0.009838 0.027836 0.045244
  6 4.477077 -0.000004 -0.000002 -0.014399 -0.013245 0.186251
  7 5.413502 -7.700466 -0.000000 -0.004054 0.043259 -0.460071
  8 6.890240 0.000002 -0.000000 0.006280 0.011475 -0.017361
  9 8.011925 0.000004 0.000005 -0.008447 -0.023260 0.186628
 10 7.210720 -0.000002 -0.000000 0.000000 0.000000 0.022526
 11 8.581028 -0.304903 -0.000000 0.007100 -0.002701 0.728457
 12 22.523008 2.194031 6.355708 -0.010582 0.125660 0.008881
 13 22.523005 2.194038 -6.355709 0.002433 -0.075502 -0.002852
 14 -3.006533 7.804720 -11.355459 0.438440 0.115897 1.407232
 15 10.384675 0.000008 0.000005 0.074090 0.185887 -1.427941
 16 22.550743 -0.000006 -0.000004 0.115637 0.014024 1.520993
 17 30.814247 -0.000015 -0.000004 2.479162 0.315583 0.473467
 18 -3.013796 7.815494 11.355459 0.109780 -0.303757 1.286401
 19 10.374533 -0.000002 0.000007 -0.099998 -0.175422 -1.285401
 20 22.550726 -0.000027 -0.000013 -0.117982 0.036317 1.632583
 21 30.814270 -0.000023 0.000002 -2.827975 0.090751 0.411835
 22 -4.250660 -0.770624 0.000001 -0.009312 0.002455 2.781221
 23 10.363422 0.000000 0.000000 0.028403 -0.005401 -0.119970
 24 10.363076 0.000000 -0.000000 -0.024508 -0.005061 -0.007975
 25 10.363081 -0.000004 -0.000002 0.009471 -0.016869 0.262922
 26 8.081448 0.515635 -7.582893 0.007072 0.000713 0.128746
 27 8.210346 -0.000002 7.704017 0.007071 0.000712 0.121700
 28 1.854841 1.227791 -13.762345 2.460021 0.018831 1.607186
 29 10.456543 -0.000004 0.000004 0.011044 0.090537 -1.785984
 30 24.248093 0.000001 0.000007 0.040327 0.037959 1.330842
 31 26.336971 0.000019 0.000002 0.513123 -0.018284 0.540824
 32 1.854847 1.227798 13.762341 -2.556288 0.049059 1.543828
 33 10.456542 -0.000008 0.000004 0.000557 -0.086847 -1.912268
 34 24.248116 0.000002 -0.000004 -0.043037 -0.038603 1.415424
 35 26.336975 0.000000 0.000004 -0.412795 0.048212 0.491268
time 11
  0 0.000000 0.000000 0.000000 0.000000 -0.000000 -1.570796
  1 0.000000 0.000000 -0.031251 0.000000 -0.000000 0.000000
  2 -2.363353 -18.155174 28.672243 -1.570797 0.065297 1.570797
  3 4.222169 -0.467508 0.000000 0.018353 -0.000538 -0.404581
  4 4.476987 -0.000002 -0.000000 0.005284 -0.018279 -0.352548
  5 4.477083 0.000000 0.000002 -0.009694 0.027820 0.045925
  6 4.477077 -0.000004 -0.000002 -0.014339 -0.013283 0.181283
  7 5.413502 -7.700466 -0.000000 -0.003722 0.042172 -0.445758
  8 6.890240 0.000002 -0.000000 0.006064 0.011606 -0.021782
  9 8.011925 0.000004 0.000005 -0.008369 -0.023292 0.180346
 10 7.210720 -0.000002 -0.000000 0.000000 0.000000 0.008394
 11 8.581028 -0.304903 -0.000000 0.007077 -0.002701 0.731577
 12 22.523008 2.194031 6.355708 -0.019487 -0.174788 0.017318
 13 22.523005 2.194038 -6.355709 0.004219 0.160381 -0.004997
 14 -3.006533 7.804720 -11.355459 0.438223 0.116074 1.406065
 15 10.384675 0.000008 0.000005 0.073007 0.186120 -1.434217
 16 22.550743 -0.000006 -0.000004 0.115797 0.013995 1.527107
 17 30.814247 -0.000015 -0.000004 2.478200 0.312887 0.470315
 18 -3.013796 7.815494 11.355459 0.106521 -0.303196 1.284406
 19 10.374533 -0.000002 0.000007 -0.099054 -0.175588 -1.291026
 20 22.550726 -0.000027 -0.000013 -0.118145 0.036337 1.638600
 21 30.814270 -0.000023 0.000002 -2.825800 0.088916 0.408600
 22 -4.250660 -0.770624 0.000001 -0.009432 0.002439 2.858090
 23 10.363422 0.000000 0.000000 0.028475 -0.005341 -0.105270
 24 10.363076 0.000000 -0.000000 -0.024568 -0.006415 -0.055852
 25 10.363081 -0.000004 -0.000002 0.009064 -0.016731 0.150324
 26 8.081448 0.515635 -7.582893 0.005704 0.000747 0.069163
 27 8.210346 -0.000002 7.704017 0.005705 0.000743 0.062020
 28 1.854841 1.227791 -13.762345 2.464198 0.022976 1.617830
 29 10.456543 -0.000004 0.000004 0.012284 0.090911 -1.773089
 30 24.248093 0.000001 0.000007 0.040215 0.037938 1.327645
 31 26.336971 0.000019 0.000002 0.510078 -0.016155 0.541983
 32 1.854847 1.227798 13.762341 -2.559597 0.045174 1.555115
 33 10.456542 -0.000008 0.000004 -0.000766 -0.087293 -1.898908
 34 24.248116 0.000002 -0.000004 -0.042998 -0.038723 1.412022
 35 26.336975 0.000000 0.000004 -0.409836 0.045420 0.493642
time 12
  0 0.000000 0.000000 0.000000 0.000000 -0.000000 -1.570796
  1 0.000000 0.000000 -0.035157 0.000000 -0.000000 0.000000
  2 -2.363353 -17.975483 28.781620 -1.570892 0.054487 1.570797
  3 4.222169 -0.467508 0.000000 0.017694 -0.000353 -0.393709
  4 4.476987 -0.000002 -0.000000 0.005548 -0.017979 -0.337809
  5 4.477083 0.000000 0.000002 -0.009442 0.027787 0.045881
  6 4.477077 -0.000004 -0.000002 -0.014243 -0.013358 0.174166
  7 5.413502 -7.700466 -0.000000 -0.003217 0.040677 -0.425907
  8 6.890240 0.000002 -0.000000 0.005825 0.011763 -0.026553
  9 8.011925 0.000004 0.000005 -0.008303 -0.023324 0.174376
 10 7.210720 -0.000002 -0.000000 0.000000 0.000000 -0.005819
 11 8.581028 -0.304903 -0.000000 0.007077 -0.002718 0.734416
 12 22.523008 2.194031 6.355708 -0.026810 -0.419998 0.025096
 13 22.523005 2.194038 -6.355709 0.006064 0.360357 -0.006484
 14 -3.006533 7.804720 -11.355459 0.437843 0.116498 1.403936
 15 10.384675 0.000008 0.000005 0.071550 0.186438 -1.442881
 16 22.550743 -0.000006 -0.000004 0.116005 0.013995 1.535582
 17 30.814247 -0.000015 -0.000004 2.477152 0.309408 0.466698
 18 -3.013796 7.815494 11.355459 0.102805 -0.302524 1.282069
 19 10.374533 -0.000002 0.000007 -0.097639 -0.175821 -1.299492
 20 22.550726 -0.000027 -0.000013 -0.118370 0.036357 1.646975
 21 30.814270 -0.000023 0.000002 -2.823310 0.086812 0.405253
 22 -4.250660 -0.770624 0.000001 -0.009336 0.002311 2.949426
 23 10.363422 0.000000 0.000000 0.028511 -0.005281 -0.090680
 24 10.363076 0.000000 -0.000000 -0.024652 -0.008129 -0.111576
 25 10.363081 -0.000004 -0.000002 0.008400 -0.016746 0.021081
 26 8.081448 0.515635 -7.582893 0.004153 0.000679 0.001019
 27 8.210346 -0.000002 7.704017 0.004159 0.000681 -0.006171
 28 1.854841 1.227791 -13.762345 2.469431 0.028576 1.632184
 29 10.456543 -0.000004 0.000004 0.013700 0.091249 -1.758630
 30 24.248093 0.000001 0.000007 0.039956 0.037938 1.320127
 31 26.336971 0.000019 0.000002 0.505162 -0.012687 0.544027
 32 1.854847 1.227798 13.762341 -2.563649 0.039975 1.570279
 33 10.456542 -0.000008 0.000004 -0.002360 -0.087905 -1.880621
 34 24.248116 0.000002 -0.000004 -0.042791 -0.038795 1.404152
 35 26.336975 0.000000 0.000004 -0.405719 0.042039 0.496864
time 13
  0 0.000000 0.000000 0.000000 0.000000 -0.000000 -1.570796
  1 0.000000 0.000000 -0.039064 0.000000 -0.000000 0.000000
  2 -2.363353 -17.748913 28.918344 -1.570988 0.041124 1.570701
  3 4.222169 -0.467508 0.000000 0.016879 -0.000186 -0.379756
  4 4.476987 -0.000002 -0.000000 0.005883 -0.017594 -0.318941
  5 4.477083 0.000000 0.000002 -0.009095 0.027739 0.044932
  6 4.477077 -0.000004 -0.000002 -0.014087 -0.013470 0.164714
  7 5.413502 -7.700466 -0.000000 -0.002552 0.038689 -0.399832
  8 6.890240 0.000002 -0.000000 0.005585 0.011920 -0.031696
  9 8.011925 0.000004 0.000005 -0.008146 -0.023420 0.165525
 10 7.210720 -0.000002 -0.000000 0.000000 0.000000 -0.020220
 11 8.581028 -0.304903 -0.000000 0.007077 -0.002735 0.737044
 12 22.523008 2.194031 6.355708 -0.030441 -0.530198 0.031148
 13 22.523005 2.194038 -6.355709 0.006903 0.450893 -0.006891
 14 -3.006533 7.804720 -11.355459 0.437246 0.117133 1.400914
 15 10.384675 0.000008 0.000005 0.069682 0.186820 -1.453711
 16 22.550743 -0.000006 -0.000004 0.116261 0.013995 1.546236
 17 30.814247 -0.000015 -0.000004 2.476017 0.305207 0.462723
 18 -3.013796 7.815494 11.355459 0.098477 -0.301701 1.279276
 19 10.374533 -0.000002 0.000007 -0.095751 -0.176087 -1.310567
 20 22.550726 -0.000027 -0.000013 -0.118656 0.036357 1.657460
 21 30.814270 -0.000023 0.000002 -2.820468 0.084414 0.401822
 22 -4.250660 -0.770624 0.000001 -0.009360 0.002215 3.039891
 23 10.363422 0.000000 0.000000 0.028511 -0.005233 -0.076090
 24 10.363076 0.000000 -0.000000 -0.024700 -0.009795 -0.168770
 25 10.363081 -0.000004 -0.000002 0.007784 -0.016839 -0.108672
 26 8.081448 0.515635 -7.582893 0.002614 0.000509 -0.067057
 27 8.210346 -0.000002 7.704017 0.002601 0.000526 -0.074397
 28 1.854841 1.227791 -13.762345 2.475632 0.035386 1.650065
 29 10.456543 -0.000004 0.000004 0.015289 0.091605 -1.742000
 30 24.248093 0.000001 0.000007 0.039363 0.037777 1.303017
 31 26.336971 0.000019 0.000002 0.498854 -0.008246 0.546843
 32 1.854847 1.227798 13.762341 -2.568409 0.033682 1.589020
 33 10.456542 -0.000008 0.000004 -0.004021 -0.088489 -1.861585
 34 24.248116 0.000002 -0.000004 -0.042182 -0.038663 1.387194
 35 26.336975 0.000000 0.000004 -0.400873 0.038285 0.500763
time 14
  0 0.000000 0.000000 0.000000 0.000000 -0.000000 -1.570796
  1 0.000000 0.000000 -0.042970 0.000000 -0.000000 0.000000
  2 -2.363353 -17.491093 29.070692 -1.571084 0.025647 1.570605
  3 4.222169 -0.467508 0.000000 0.015932 -0.000000 -0.362873
  4 4.476987 -0.000002 -0.000000 0.006303 -0.017187 -0.295790
  5 4.477083 0.000000 0.000002 -0.008675 0.027658 0.042887
  6 4.477077 -0.000004 -0.000002 -0.013883 -0.013621 0.152769
  7 5.413502 -7.700466 -0.000000 -0.001754 0.036225 -0.367410
  8 6.890240 0.000002 -0.000000 0.005321 0.012103 -0.037141
  9 8.011925 0.000004 0.000005 -0.007727 -0.023676 0.147797
 10 7.210720 -0.000002 -0.000000 0.000000 0.000000 -0.034702
 11 8.581028 -0.304903 -0.000000 0.007077 -0.002735 0.739428
 12 22.523008 2.194031 6.355708 -0.030776 -0.529221 0.035319
 13 22.523005 2.194038 -6.355709 0.006915 0.449290 -0.005441
 14 -3.006533 7.804720 -11.355459 0.436541 0.117981 1.397206
 15 10.384675 0.000008 0.000005 0.067516 0.187266 -1.466374
 16 22.550743 -0.000006 -0.000004 0.116549 0.013995 1.558705
 17 30.814247 -0.000015 -0.000004 2.474837 0.300411 0.458426
 18 -3.013796 7.815494 11.355459 0.093488 -0.300730 1.275856
 19 10.374533 -0.000002 0.000007 -0.093526 -0.176419 -1.323672
 20 22.550726 -0.000027 -0.000013 -0.118963 0.036376 1.669619
 21 30.814270 -0.000023 0.000002 -2.817381 0.081796 0.398308
 22 -4.250660 -0.770624 0.000001 -0.009456 0.002150 3.127362
 23 10.363422 0.000000 0.000000 0.028487 -0.005173 -0.061544
 24 10.363076 0.000000 -0.000000 -0.024688 -0.011005 -0.220493
 25 10.363081 -0.000004 -0.000002 0.007501 -0.016854 -0.221242
 26 8.081448 0.515635 -7.582893 0.001270 0.000272 -0.126029
 27 8.210346 -0.000002 7.704017 0.001270 0.000279 -0.133467
 28 1.854841 1.227791 -13.762345 2.482755 0.043231 1.670926
 29 10.456543 -0.000004 0.000004 0.017106 0.091960 -1.722809
 30 24.248093 0.000001 0.000007 0.038658 0.037535 1.283600
 31 26.336971 0.000019 0.000002 0.491676 -0.003200 0.550212
 32 1.854847 1.227798 13.762341 -2.573879 0.026458 1.610819
 33 10.456542 -0.000008 0.000004 -0.005785 -0.089074 -1.841761
 34 24.248116 0.000002 -0.000004 -0.041469 -0.038459 1.368154
 35 26.336975 0.000000 0.000004 -0.395384 0.034190 0.505172
time 15
  0 0.000000 0.000000 0.000000 0.000000 -0.000000 -1.570796
  1 0.000000 0.000000 -0.046876 0.000000 -0.000000 0.000000
  2 -2.363353 -17.205927 29.242573 -1.571180 0.008294 1.570509
  3 4.222169 -0.467508 0.000000 0.014866 0.000166 -0.343108
  4 4.476987 -0.000002 -0.000000 0.006794 -0.016758 -0.268287
  5 4.477083 0.000000 0.000002 -0.008232 0.027561 0.039537
  6 4.477077 -0.000004 -0.000002 -0.013596 -0.013790 0.138177
  7 5.413502 -7.700466 -0.000000 -0.000904 0.033473 -0.331255
  8 6.890240 0.000002 -0.000000 0.005046 0.012286 -0.042912
  9 8.011925 0.000004 0.000005 -0.007229 -0.023979 0.127135
 10 7.210720 -0.000002 -0.000000 0.000000 0.000000 -0.049237
 11 8.581028 -0.304903 -0.000000 0.007077 -0.002752 0.741601
 12 22.523008 2.194031 6.355708 -0.030333 -0.505635 0.038974
 13 22.523005 2.194038 -6.355709 0.006627 0.424818 -0.003176
 14 -3.006533 7.804720 -11.355459 0.435673 0.119006 1.392742
 15 10.384675 0.000008 0.000005 0.065088 0.187733 -1.480537
 16 22.550743 -0.000006 -0.000004 0.116885 0.013995 1.572688
 17 30.814247 -0.000015 -0.000004 2.473571 0.295113 0.453913
 18 -3.013796 7.815494 11.355459 0.087633 -0.299497 1.271752
 19 10.374533 -0.000002 0.000007 -0.090965 -0.176751 -1.338574
 20 22.550726 -0.000027 -0.000013 -0.119330 0.036376 1.683329
 21 30.814270 -0.000023 0.000002 -2.814013 0.078958 0.394738
 22 -4.250660 -0.770624 0.000001 -0.009540 0.002118 -3.071965
 23 10.363422 0.000000 0.000000 0.028451 -0.005125 -0.046162
 24 10.363076 0.000000 -0.000000 -0.024676 -0.011317 -0.260215
 25 10.363081 -0.000004 -0.000002 0.007784 -0.016577 -0.300066
 26 8.081448 0.515635 -7.582893 0.000354 0.000068 -0.167167
 27 8.210346 -0.000002 7.704017 0.000348 0.000062 -0.174598
 28 1.854841 1.227791 -13.762345 2.490670 0.051891 1.694403
 29 10.456543 -0.000004 0.000004 0.019115 0.092299 -1.701273
 30 24.248093 0.000001 0.000007 0.037991 0.037293 1.264833
 31 26.336971 0.000019 0.000002 0.483932 0.002161 0.554133
 32 1.854847 1.227798 13.762341 -2.579990 0.018496 1.635332
 33 10.456542 -0.000008 0.000004 -0.007650 -0.089630 -1.821189
 34 24.248116 0.000002 -0.000004 -0.040796 -0.038256 1.349825
 35 26.336975 0.000000 0.000004 -0.389380 0.029816 0.510089
time 16
  0 0.000000 0.000000 0.000000 0.000000 -0.000000 -1.570796
  1 0.000000 0.000000 -0.050783 0.000000 -0.000000 0.000000
  2 -2.363353 -16.893417 29.430079 -1.571276 -0.010533 1.570509
  3 4.222169 -0.467508 0.000000 0.013691 0.000278 -0.320614
  4 4.476987 -0.000002 -0.000000 0.007357 -0.016308 -0.236989
  5 4.477083 0.000000 0.000002 -0.007788 0.027464 0.034735
  6 4.477077 -0.000004 -0.000002 -0.013224 -0.014015 0.120767
  7 5.413502 -7.700466 -0.000000 -0.000080 0.030754 -0.295317
  8 6.890240 0.000002 -0.000000 0.004758 0.012482 -0.048963
  9 8.011925 0.000004 0.000005 -0.006758 -0.024267 0.106915
 10 7.210720 -0.000002 -0.000000 0.000000 0.000000 -0.063798
 11 8.581028 -0.304903 -0.000000 0.007077 -0.002752 0.743564
 12 22.523008 2.194031 6.355708 -0.029722 -0.476793 0.042725
 13 22.523005 2.194038 -6.355709 0.006472 0.395416 -0.000048
 14 -3.006533 7.804720 -11.355459 0.434642 0.120172 1.387729
 15 10.384675 0.000008 0.000005 0.062436 0.188221 -1.495977
 16 22.550743 -0.000006 -0.000004 0.117237 0.014024 1.587882
 17 30.814247 -0.000015 -0.000004 2.472347 0.289408 0.449258
 18 -3.013796 7.815494 11.355459 0.081218 -0.298152 1.267078
 19 10.374533 -0.000002 0.000007 -0.088134 -0.177083 -1.354810
 20 22.550726 -0.000027 -0.000013 -0.119698 0.036376 1.698218
 21 30.814270 -0.000023 0.000002 -2.810435 0.075949 0.391112
 22 -4.250660 -0.770624 0.000001 -0.009552 0.002118 -3.003366
 23 10.363422 0.000000 0.000000 0.028427 -0.005053 -0.037844
 24 10.363076 0.000000 -0.000000 -0.024724 -0.010430 -0.281921
 25 10.363081 -0.000004 -0.000002 0.008757 -0.015729 -0.330779
 26 8.081448 0.515635 -7.582893 0.000000 0.000000 -0.182487
 27 8.210346 -0.000002 7.704017 0.000000 0.000000 -0.189858
 28 1.854841 1.227791 -13.762345 2.499333 0.061143 1.720130
 29 10.456543 -0.000004 0.000004 0.021282 0.092619 -1.678478
 30 24.248093 0.000001 0.000007 0.037324 0.037051 1.246540
 31 26.336971 0.000019 0.000002 0.475841 0.007732 0.558386
 32 1.854847 1.227798 13.762341 -2.586642 0.010014 1.662086
 33 10.456542 -0.000008 0.000004 -0.009617 -0.090187 -1.799947
 34 24.248116 0.000002 -0.000004 -0.040148 -0.038052 1.331852
 35 26.336975 0.000000 0.000004 -0.382905 0.025225 0.515345
time 17
  0 0.000000 0.000000 0.000000 0.000000 -0.000000 -1.570796
  1 0.000000 0.000000 -0.050783 0.000000 -0.000000 0.000000
  2 -2.363353 -16.561377 29.629303 -1.571276 -0.030518 1.570509
  3 4.222169 -0.467508 0.000000 0.012409 0.000352 -0.295405
  4 4.476987 -0.000002 -0.000000 0.007980 -0.015880 -0.202538
  5 4.477083 0.000000 0.000002 -0.007393 0.027335 0.028228
  6 4.477077 -0.000004 -0.000002 -0.012757 -0.014260 0.100444
  7 5.413502 -7.700466 -0.000000 0.000691 0.028018 -0.259628
  8 6.890240 0.000002 -0.000000 0.004470 0.012678 -0.055270
  9 8.011925 0.000004 0.000005 -0.006286 -0.024554 0.086747
 10 7.210720 -0.000002 -0.000000 0.000000 0.000000 -0.078387
 11 8.581028 -0.304903 -0.000000 0.007077 -0.002752 0.745316
 12 22.523008 2.194031 6.355708 -0.028487 -0.426444 0.046668
 13 22.523005 2.194038 -6.355709 0.006388 0.357544 0.004195
 14 -3.006533 7.804720 -11.355459 0.433557 0.121444 1.382166
 15 10.384675 0.000008 0.000005 0.059635 0.188687 -1.512361
 16 22.550743 -0.000006 -0.000004 0.117604 0.014024 1.603984
 17 30.814247 -0.000015 -0.000004 2.471124 0.283389 0.444531
 18 -3.013796 7.815494 11.355459 0.074497 -0.296694 1.262119
 19 10.374533 -0.000002 0.000007 -0.085168 -0.177382 -1.372031
 20 22.550726 -0.000027 -0.000013 -0.120106 0.036376 1.714037
 21 30.814270 -0.000023 0.000002 -2.806647 0.072768 0.387458
 22 -4.250660 -0.770624 0.000001 -0.009480 0.002118 -2.962756
 23 10.363422 0.000000 0.000000 0.028403 -0.004694 -0.049947
 24 10.363076 0.000000 -0.000000 -0.024808 -0.009255 -0.291083
 25 10.363081 -0.000004 -0.000002 0.009188 -0.013280 -0.327182
 26 8.081448 0.515635 -7.582893 0.000000 0.000000 -0.177324
 27 8.210346 -0.000002 7.704017 0.000000 0.000000 -0.184602
 28 1.854841 1.227791 -13.762345 2.508656 0.070815 1.747682
 29 10.456543 -0.000004 0.000004 0.023553 0.092921 -1.654641
 30 24.248093 0.000001 0.000007 0.036657 0.036788 1.228602
 31 26.336971 0.000019 0.000002 0.467532 0.013408 0.562969
 32 1.854847 1.227798 13.762341 -2.593833 0.001149 1.690648
 33 10.456542 -0.000008 0.000004 -0.011652 -0.090688 -1.778073
 34 24.248116 0.000002 -0.000004 -0.039513 -0.037836 1.314335
 35 26.336975 0.000000 0.000004 -0.376129 0.020448 0.520827
time 18
  0 0.000000 0.000000 0.000000 0.000000 -0.000000 -1.570796
  1 0.000000 0.000000 -0.054689 0.000000 -0.000000 0.000000
  2 -2.363353 -16.217615 29.836342 -1.571276 -0.051221 1.570605
  3 4.222169 -0.467508 0.000000 0.011043 0.000370 -0.267835
  4 4.476987 -0.000002 -0.000000 0.008652 -0.015473 -0.165846
  5 4.477083 0.000000 0.000002 -0.007057 0.027173 0.019928
  6 4.477077 -0.000004 -0.000002 -0.012253 -0.014523 0.078782
  7 5.413502 -7.700466 -0.000000 0.001449 0.025300 -0.224343
  8 6.890240 0.000002 -0.000000 0.004159 0.012887 -0.061809
  9 8.011925 0.000004 0.000005 -0.005828 -0.024810 0.066760
 10 7.210720 -0.000002 -0.000000 0.000000 0.000000 -0.092868
 11 8.581028 -0.304903 -0.000000 0.007054 -0.002769 0.746858
 12 22.523008 2.194031 6.355708 -0.026833 -0.367845 0.050563
 13 22.523005 2.194038 -6.355709 0.006436 0.313441 0.009264
 14 -3.006533 7.804720 -11.355459 0.432363 0.122857 1.376260
 15 10.384675 0.000008 0.000005 0.056684 0.189133 -1.529300
 16 22.550743 -0.000006 -0.000004 0.117988 0.014024 1.620630
 17 30.814247 -0.000015 -0.000004 2.469945 0.277182 0.439804
 18 -3.013796 7.815494 11.355459 0.067522 -0.295237 1.256932
 19 10.374533 -0.000002 0.000007 -0.082067 -0.177648 -1.389775
 20 22.550726 -0.000027 -0.000013 -0.120535 0.036396 1.730353
 21 30.814270 -0.000023 0.000002 -2.802717 0.069440 0.383777
 22 -4.250660 -0.770624 0.000001 -0.009264 0.001621 -2.939121
 23 10.363422 0.000000 0.000000 0.028140 -0.003543 -0.079457
 24 10.363076 0.000000 -0.000000 -0.024868 -0.008836 -0.298129
 25 10.363081 -0.000004 -0.000002 0.007686 -0.008334 -0.315745
 26 8.081448 0.515635 -7.582893 0.000000 0.000000 -0.164007
 27 8.210346 -0.000002 7.704017 0.000000 0.000000 -0.171241
 28 1.854841 1.227791 -13.762345 2.518418 0.080659 1.776571
 29 10.456543 -0.000004 0.000004 0.025894 0.093153 -1.630239
 30 24.248093 0.000001 0.000007 0.035989 0.036526 1.211078
 31 26.336971 0.000019 0.000002 0.459092 0.019163 0.567719
 32 1.854847 1.227798 13.762341 -2.601396 -0.007908 1.720461
 33 10.456542 -0.000008 0.000004 -0.013721 -0.091189 -1.755767
 34 24.248116 0.000002 -0.000004 -0.038891 -0.037620 1.297224
 35 26.336975 0.000000 0.000004 -0.369182 0.015577 0.526535
time 19
  0 0.000000 0.000000 0.000000 0.000000 -0.000000 -1.570796
  1 0.000000 0.000000 -0.054689 0.000000 -0.000000 0.000000
  2 -2.363353 -15.866043 30.047285 -1.571276 -0.072482 1.570605
  3 4.222169 -0.467508 0.000000 0.009616 0.000333 -0.238272
  4 4.476987 -0.000002 -0.000000 0.009347 -0.015088 -0.127378
  5 4.477083 0.000000 0.000002 -0.006782 0.027012 0.010650
  6 4.477077 -0.000004 -0.000002 -0.011774 -0.014730 0.057291
  7 5.413502 -7.700466 -0.000000 0.002167 0.022564 -0.189307
  8 6.890240 0.000002 -0.000000 0.003835 0.013109 -0.068581
  9 8.011925 0.000004 0.000005 -0.005383 -0.025082 0.046852
 10 7.210720 -0.000002 -0.000000 0.000000 0.000000 -0.107323
 11 8.581028 -0.304903 -0.000000 0.007054 -0.002769 0.748225
 12 22.523008 2.194031 6.355708 -0.024964 -0.310622 0.054362
 13 22.523005 2.194038 -6.355709 0.006508 0.263893 0.014957
 14 -3.006533 7.804720 -11.355459 0.431061 0.124306 1.369942
 15 10.384675 0.000008 0.000005 0.053696 0.189536 -1.546684
 16 22.550743 -0.000006 -0.000004 0.118388 0.014024 1.637519
 17 30.814247 -0.000015 -0.000004 2.468809 0.270850 0.435112
 18 -3.013796 7.815494 11.355459 0.060394 -0.293705 1.251517
 19 10.374533 -0.000002 0.000007 -0.078966 -0.177847 -1.407750
 20 22.550726 -0.000027 -0.000013 -0.120964 0.036415 1.747103
 21 30.814270 -0.000023 0.000002 -2.798648 0.066015 0.380095
 22 -4.250660 -0.770624 0.000001 -0.008952 0.000578 -2.921837
 23 10.363422 0.000000 0.000000 0.027636 -0.001674 -0.117836
 24 10.363076 0.000000 -0.000000 -0.024916 -0.008692 -0.303704
 25 10.363081 -0.000004 -0.000002 0.004595 -0.001186 -0.298187
 26 8.081448 0.515635 -7.582893 0.000000 0.000000 -0.144067
 27 8.210346 -0.000002 7.704017 0.000000 0.000000 -0.151235
 28 1.854841 1.227791 -13.762345 2.528620 0.090577 1.806495
 29 10.456543 -0.000004 0.000004 0.028305 0.093348 -1.605317
 30 24.248093 0.000001 0.000007 0.035359 0.036264 1.193910
 31 26.336971 0.000019 0.000002 0.450652 0.024944 0.572689
 32 1.854847 1.227798 13.762341 -2.609297 -0.016993 1.751307
 33 10.456542 -0.000008 0.000004 -0.015891 -0.091634 -1.732908
 34 24.248116 0.000002 -0.000004 -0.038296 -0.037393 1.280469
 35 26.336975 0.000000 0.000004 -0.362064 0.010645 0.532300
time 20
  0 0.000000 0.000000 0.000000 0.000000 -0.000000 -1.570796
  1 0.000000 0.000000 -0.050783 0.000000 -0.000000 0.000000
  2 -2.363353 -15.510563 30.258228 -1.571276 -0.093863 1.570701
  3 4.222169 -0.467508 0.000000 0.008166 0.000278 -0.207482
  4 4.476987 -0.000002 -0.000000 0.010078 -0.014724 -0.088000
  5 4.477083 0.000000 0.000002 -0.006506 0.026850 0.001490
  6 4.477077 -0.000004 -0.000002 -0.011295 -0.014936 0.036065
  7 5.413502 -7.700466 -0.000000 0.002858 0.019846 -0.154707
  8 6.890240 0.000002 -0.000000 0.003511 0.013318 -0.075562
  9 8.011925 0.000004 0.000005 -0.004937 -0.025321 0.027125
 10 7.210720 -0.000002 -0.000000 0.000000 0.000000 -0.121697
 11 8.581028 -0.304903 -0.000000 0.007054 -0.002769 0.749382
 12 22.523008 2.194031 6.355708 -0.022962 -0.248998 0.057994
 13 22.523005 2.194038 -6.355709 0.006484 0.210080 0.021069
 14 -3.006533 7.804720 -11.355459 0.429758 0.125825 1.363487
 15 10.384675 0.000008 0.000005 0.050708 0.189897 -1.564012
 16 22.550743 -0.000006 -0.000004 0.118772 0.014024 1.654408
 17 30.814247 -0.000015 -0.000004 2.467761 0.264518 0.430600
 18 -3.013796 7.815494 11.355459 0.053165 -0.292173 1.245931
 19 10.374533 -0.000002 0.000007 -0.075798 -0.177980 -1.425552
 20 22.550726 -0.000027 -0.000013 -0.121373 0.036435 1.763915
 21 30.814270 -0.000023 0.000002 -2.794439 0.062516 0.376413
 22 -4.250660 -0.770624 0.000001 -0.008641 -0.000594 -2.905910
 23 10.363422 0.000000 0.000000 0.027073 0.000388 -0.158107
 24 10.363076 0.000000 -0.000000 -0.024940 -0.008321 -0.307911
 25 10.363081 -0.000004 -0.000002 0.000335 0.007857 -0.275367
 26 8.081448 0.515635 -7.582893 0.000000 0.000000 -0.118555
 27 8.210346 -0.000002 7.704017 0.000000 0.000000 -0.125667
 28 1.854841 1.227791 -13.762345 2.539042 0.100347 1.836967
 29 10.456543 -0.000004 0.000004 0.030733 0.093455 -1.580307
 30 24.248093 0.000001 0.000007 0.034729 0.035981 1.177156
 31 26.336971 0.000019 0.000002 0.442299 0.030647 0.577659
 32 1.854847 1.227798 13.762341 -2.617400 -0.025995 1.782584
 33 10.456542 -0.000008 0.000004 -0.018129 -0.092024 -1.709656
 34 24.248116 0.000002 -0.000004 -0.037713 -0.037165 1.264171
 35 26.336975 0.000000 0.000004 -0.354988 0.005713 0.538121
time 21
  0 0.000000 0.000000 0.000000 0.000000 -0.000000 -1.570796
  1 0.000000 0.000000 -0.050783 0.000000 -0.000000 0.000000
  2 -2.363353 -15.158991 30.469173 -1.571276 -0.115005 1.570701
  3 4.222169 -0.467508 0.000000 0.006692 0.000204 -0.176140
  4 4.476987 -0.000002 -0.000000 0.010821 -0.014445 -0.048466
  5 4.477083 0.000000 0.000002 -0.006230 0.026721 -0.007447
  6 4.477077 -0.000004 -0.000002 -0.010839 -0.015124 0.015057
  7 5.413502 -7.700466 -0.000000 0.003509 0.017127 -0.120636
  8 6.890240 0.000002 -0.000000 0.003176 0.013540 -0.082730
  9 8.011925 0.000004 0.000005 -0.004492 -0.025561 0.007579
 10 7.210720 -0.000002 -0.000000 0.000000 0.000000 -0.135937
 11 8.581028 -0.304903 -0.000000 0.007054 -0.002769 0.750363
 12 22.523008 2.194031 6.355708 -0.020949 -0.176254 0.061325
 13 22.523005 2.194038 -6.355709 0.006316 0.152939 0.027469
 14 -3.006533 7.804720 -11.355459 0.428348 0.127379 1.356894
 15 10.384675 0.000008 0.000005 0.047757 0.190194 -1.581118
 16 22.550743 -0.000006 -0.000004 0.119172 0.014024 1.670873
 17 30.814247 -0.000015 -0.000004 2.466800 0.258279 0.426267
 18 -3.013796 7.815494 11.355459 0.045833 -0.290678 1.240288
 19 10.374533 -0.000002 0.000007 -0.072832 -0.178080 -1.442773
 20 22.550726 -0.000027 -0.000013 -0.121802 0.036455 1.780479
 21 30.814270 -0.000023 0.000002 -2.790159 0.058944 0.372760
 22 -4.250660 -0.770624 0.000001 -0.008353 -0.001894 -2.890701
 23 10.363422 0.000000 0.000000 0.026414 0.002617 -0.199258
 24 10.363076 0.000000 -0.000000 -0.024964 -0.007182 -0.310983
 25 10.363081 -0.000004 -0.000002 -0.004700 0.018472 -0.248331
 26 8.081448 0.515635 -7.582893 0.000000 0.000000 -0.088662
 27 8.210346 -0.000002 7.704017 0.000000 0.000000 -0.095726
 28 1.854841 1.227791 -13.762345 2.549551 0.109871 1.867559
 29 10.456543 -0.000004 0.000004 0.033144 0.093509 -1.555514
 30 24.248093 0.000001 0.000007 0.034136 0.035679 1.160757
 31 26.336971 0.000019 0.000002 0.434164 0.036244 0.582630
 32 1.854847 1.227798 13.762341 -2.625537 -0.034723 1.813903
 33 10.456542 -0.000008 0.000004 -0.020368 -0.092385 -1.686088
 34 24.248116 0.000002 -0.000004 -0.037156 -0.036937 1.248229
 35 26.336975 0.000000 0.000004 -0.348041 0.000842 0.543829
time 22
  0 0.000000 0.000000 0.000000 0.000000 -0.000000 -1.570796
  1 0.000000 0.000000 -0.042970 0.000000 -0.000000 0.000000
  2 -2.363353 -14.815229 30.676210 -1.571276 -0.135548 1.570797
  3 4.222169 -0.467508 0.000000 0.005242 0.000129 -0.144997
  4 4.476987 -0.000002 -0.000000 0.011552 -0.014188 -0.009576
  5 4.477083 0.000000 0.000002 -0.005979 0.026608 -0.016103
  6 4.477077 -0.000004 -0.000002 -0.010384 -0.015312 -0.005733
  7 5.413502 -7.700466 -0.000000 0.004120 0.014392 -0.087187
  8 6.890240 0.000002 -0.000000 0.002828 0.013763 -0.090037
  9 8.011925 0.000004 0.000005 -0.004047 -0.025784 -0.011707
 10 7.210720 -0.000002 -0.000000 0.000000 0.000000 -0.150016
 11 8.581028 -0.304903 -0.000000 0.007054 -0.002786 0.751170
 12 22.523008 2.194031 6.355708 -0.018816 -0.098927 0.064549
 13 22.523005 2.194038 -6.355709 0.005980 0.093712 0.034012
 14 -3.006533 7.804720 -11.355459 0.426991 0.128934 1.350233
 15 10.384675 0.000008 0.000005 0.044881 0.190427 -1.597669
 16 22.550743 -0.000006 -0.000004 0.119540 0.013995 1.686611
 17 30.814247 -0.000015 -0.000004 2.465970 0.252261 0.422184
 18 -3.013796 7.815494 11.355459 0.038553 -0.289183 1.234587
 19 10.374533 -0.000002 0.000007 -0.069933 -0.178146 -1.458952
 20 22.550726 -0.000027 -0.000013 -0.122190 0.036494 1.796485
 21 30.814270 -0.000023 0.000002 -2.785844 0.055347 0.369134
 22 -4.250660 -0.770624 0.000001 -0.008066 -0.003274 -2.876157
 23 10.363422 0.000000 0.000000 0.025599 0.005038 -0.240982
 24 10.363076 0.000000 -0.000000 -0.025000 -0.004809 -0.313228
 25 10.363081 -0.000004 -0.000002 -0.010154 0.030335 -0.218209
 26 8.081448 0.515635 -7.582893 0.000000 0.000000 -0.055643
 27 8.210346 -0.000002 7.704017 0.000000 0.000000 -0.062664
 28 1.854841 1.227791 -13.762345 2.559885 0.118999 1.897786
 29 10.456543 -0.000004 0.000004 0.035520 0.093509 -1.531243
 30 24.248093 0.000001 0.000007 0.033580 0.035396 1.144832
 31 26.336971 0.000019 0.000002 0.426377 0.041631 0.587490
 32 1.854847 1.227798 13.762341 -2.633572 -0.043096 1.844750
 33 10.456542 -0.000008 0.000004 -0.022674 -0.092664 -1.662245
 34 24.248116 0.000002 -0.000004 -0.036599 -0.036710 1.232743
 35 26.336975 0.000000 0.000004 -0.341308 -0.003842 0.549368
time 23
  0 0.000000 0.000000 0.000000 0.000000 -0.000000 -1.570796
  1 0.000000 0.000000 -0.039064 0.000000 -0.000000 0.000000
  2 -2.363353 -14.487095 30.871529 -1.571276 -0.155213 1.570797
  3 4.222169 -0.467508 0.000000 0.003840 0.000074 -0.114652
  4 4.476987 -0.000002 -0.000000 0.012271 -0.013974 0.028004
  5 4.477083 0.000000 0.000002 -0.005727 0.026511 -0.024433
  6 4.477077 -0.000004 -0.000002 -0.009916 -0.015500 -0.026367
  7 5.413502 -7.700466 -0.000000 0.004705 0.011673 -0.054392
  8 6.890240 0.000002 -0.000000 0.002469 0.013985 -0.097507
  9 8.011925 0.000004 0.000005 -0.003615 -0.025992 -0.030759
 10 7.210720 -0.000002 -0.000000 0.000000 0.000000 -0.163907
 11 8.581028 -0.304903 -0.000000 0.007054 -0.002786 0.751800
 12 22.523008 2.194031 6.355708 -0.016467 -0.021906 0.067869
 13 22.523005 2.194038 -6.355709 0.005465 0.033304 0.040604
 14 -3.006533 7.804720 -11.355459 0.425580 0.130453 1.343641
 15 10.384675 0.000008 0.000005 0.042155 0.190618 -1.613331
 16 22.550743 -0.000006 -0.000004 0.119891 0.013995 1.701442
 17 30.814247 -0.000015 -0.000004 2.465228 0.246493 0.418460
 18 -3.013796 7.815494 11.355459 0.031374 -0.287726 1.228887
 19 10.374533 -0.000002 0.000007 -0.067304 -0.178146 -1.473853
 20 22.550726 -0.000027 -0.000013 -0.122578 0.036533 1.811684
 21 30.814270 -0.000023 0.000002 -2.781529 0.051726 0.365564
 22 -4.250660 -0.770624 0.000001 -0.007802 -0.004734 -2.862124
 23 10.363422 0.000000 0.000000 0.024580 0.007638 -0.282969
 24 10.363076 0.000000 -0.000000 -0.025060 -0.000662 -0.314880
 25 10.363081 -0.000004 -0.000002 -0.015682 0.043091 -0.186099
 26 8.081448 0.515635 -7.582893 0.000000 0.000000 -0.020654
 27 8.210346 -0.000002 7.704017 0.000000 0.000000 -0.027636
 28 1.854841 1.227791 -13.762345 2.569867 0.127635 1.927224
 29 10.456543 -0.000004 0.000004 0.037808 0.093420 -1.507710
 30 24.248093 0.000001 0.000007 0.033023 0.035114 1.129203
 31 26.336971 0.000019 0.000002 0.418982 0.046755 0.592239
 32 1.854847 1.227798 13.762341 -2.641372 -0.051031 1.874734
 33 10.456542 -0.000008 0.000004 -0.025014 -0.092914 -1.638204
 34 24.248116 0.000002 -0.000004 -0.036067 -0.036482 1.217613
 35 26.336975 0.000000 0.000004 -0.334876 -0.008340 0.554680
time 24
  0 0.000000 0.000000 0.000000 0.000000 -0.000000 -1.570796
  1 0.000000 0.000000 -0.031251 0.000000 -0.000000 0.000000
  2 -2.363353 -14.174585 31.059034 -1.571180 -0.173523 1.570797
  3 4.222169 -0.467508 0.000000 0.002510 0.000037 -0.085901
  4 4.476987 -0.000002 -0.000000 0.012942 -0.013803 0.063409
  5 4.477083 0.000000 0.000002 -0.005499 0.026430 -0.032303
  6 4.477077 -0.000004 -0.000002 -0.009461 -0.015707 -0.046814
  7 5.413502 -7.700466 -0.000000 0.005250 0.008920 -0.022094
  8 6.890240 0.000002 -0.000000 0.002109 0.014194 -0.105070
  9 8.011925 0.000004 0.000005 -0.003169 -0.026200 -0.049525
 10 7.210720 -0.000002 -0.000000 0.000000 0.000000 -0.177584
 11 8.581028 -0.304903 -0.000000 0.007054 -0.002786 0.752256
 12 22.523008 2.194031 6.355708 -0.014082 0.053435 0.071021
 13 22.523005 2.194038 -6.355709 0.004830 -0.026982 0.047147
 14 -3.006533 7.804720 -11.355459 0.424224 0.131972 1.337185
 15 10.384675 0.000008 0.000005 0.039652 0.190745 -1.627772
 16 22.550743 -0.000006 -0.000004 0.120227 0.013995 1.714880
 17 30.814247 -0.000015 -0.000004 2.464616 0.241163 0.415165
 18 -3.013796 7.815494 11.355459 0.024297 -0.286306 1.223244
 19 10.374533 -0.000002 0.000007 -0.065012 -0.178113 -1.486900
 20 22.550726 -0.000027 -0.000013 -0.122925 0.036572 1.825766
 21 30.814270 -0.000023 0.000002 -2.777179 0.048129 0.362049
 22 -4.250660 -0.770624 0.000001 -0.007550 -0.006243 -2.848476
 23 10.363422 0.000000 0.000000 0.023322 0.010431 -0.324671
 24 10.363076 0.000000 -0.000000 -0.025180 0.005725 -0.316196
 25 10.363081 -0.000004 -0.000002 -0.020964 0.056309 -0.153158
 26 8.081448 0.515635 -7.582893 0.000000 0.000000 0.014913
 27 8.210346 -0.000002 7.704017 0.000000 0.000000 0.007935
 28 1.854841 1.227791 -13.762345 2.579321 0.135703 1.955444
 29 10.456543 -0.000004 0.000004 0.039992 0.093295 -1.485349
 30 24.248093 0.000001 0.000007 0.032467 0.034811 1.113988
 31 26.336971 0.000019 0.000002 0.412108 0.051512 0.596712
 32 1.854847 1.227798 13.762341 -2.648698 -0.058391 1.903297
 33 10.456542 -0.000008 0.000004 -0.027354 -0.093081 -1.614045
 34 24.248116 0.000002 -0.000004 -0.035536 -0.036254 1.202939
 35 26.336975 0.000000 0.000004 -0.328915 -0.012559 0.559654
time 25
  0 0.000000 0.000000 0.000000 0.000000 -0.000000 -1.570796
  1 0.000000 0.000000 -0.027345 0.000000 -0.000000 0.000000
  2 -2.363353 -13.885513 31.230915 -1.571180 -0.190316 1.570892
  3 4.222169 -0.467508 0.000000 0.001299 -0.000000 -0.059344
  4 4.476987 -0.000002 -0.000000 0.013565 -0.013695 0.095994
  5 4.477083 0.000000 0.000002 -0.005283 0.026366 -0.039699
  6 4.477077 -0.000004 -0.000002 -0.008982 -0.015932 -0.067230
  7 5.413502 -7.700466 -0.000000 0.005755 0.006559 0.006874
  8 6.890240 0.000002 -0.000000 0.001738 0.014403 -0.112750
  9 8.011925 0.000004 0.000005 -0.002737 -0.026392 -0.067980
 10 7.210720 -0.000002 -0.000000 0.000000 0.000000 -0.190591
 11 8.581028 -0.304903 -0.000000 0.007054 -0.002786 0.752572
 12 22.523008 2.194031 6.355708 -0.011985 0.125019 0.073645
 13 22.523005 2.194038 -6.355709 0.004099 -0.086331 0.053547
 14 -3.006533 7.804720 -11.355459 0.422867 0.133385 1.331005
 15 10.384675 0.000008 0.000005 0.037374 0.190830 -1.640823
 16 22.550743 -0.000006 -0.000004 0.120515 0.013995 1.726684
 17 30.814247 -0.000015 -0.000004 2.464180 0.236336 0.412336
 18 -3.013796 7.815494 11.355459 0.017424 -0.284961 1.217716
 19 10.374533 -0.000002 0.000007 -0.062990 -0.178080 -1.497976
 20 22.550726 -0.000027 -0.000013 -0.123232 0.036631 1.838484
 21 30.814270 -0.000023 0.000002 -2.772899 0.044557 0.358619
 22 -4.250660 -0.770624 0.000001 -0.007430 -0.007093 -2.834957
 23 10.363422 0.000000 0.000000 0.021369 0.015572 -0.359000
 24 10.363076 0.000000 -0.000000 -0.025347 0.014894 -0.317461
 25 10.363081 -0.000004 -0.000002 -0.025778 0.069635 -0.120404
 26 8.081448 0.515635 -7.582893 0.000000 0.000000 0.050004
 27 8.210346 -0.000002 7.704017 0.000000 0.000000 0.043031
 28 1.854841 1.227791 -13.762345 2.588028 0.143153 1.981962
 29 10.456543 -0.000004 0.000004 0.042036 0.093117 -1.464378
 30 24.248093 0.000001 0.000007 0.031948 0.034528 1.099188
 31 26.336971 0.000019 0.000002 0.405887 0.055848 0.600910
 32 1.854847 1.227798 13.762341 -2.655451 -0.065177 1.930094
 33 10.456542 -0.000008 0.000004 -0.029592 -0.093220 -1.591147
 34 24.248116 0.000002 -0.000004 -0.035031 -0.036038 1.188672
 35 26.336975 0.000000 0.000004 -0.323426 -0.016437 0.564231
time 26
  0 0.000000 0.000000 0.000000 0.000000 -0.000000 -1.570796
  1 0.000000 0.000000 -0.019532 0.000000 -0.000000 0.000000
  2 -2.363353 -13.627693 31.387169 -1.571180 -0.205075 1.570892
  3 4.222169 -0.467508 0.000000 0.000233 -0.000019 -0.035760
  4 4.476987 -0.000002 -0.000000 0.014105 -0.013631 0.124895
  5 4.477083 0.000000 0.000002 -0.005080 0.026301 -0.046517
  6 4.477077 -0.000004 -0.000002 -0.008502 -0.016139 -0.085980
  7 5.413502 -7.700466 -0.000000 0.006154 0.005658 0.025605
  8 6.890240 0.000002 -0.000000 0.001354 0.014612 -0.120476
  9 8.011925 0.000004 0.000005 -0.002292 -0.026567 -0.086072
 10 7.210720 -0.000002 -0.000000 0.000000 0.000000 -0.202658
 11 8.581028 -0.304903 -0.000000 0.007054 -0.002786 0.752712
 12 22.523008 2.194031 6.355708 -0.009911 0.195380 0.076162
 13 22.523005 2.194038 -6.355709 0.003380 -0.143441 0.059707
 14 -3.006533 7.804720 -11.355459 0.421565 0.134763 1.325099
 15 10.384675 0.000008 0.000005 0.035431 0.190873 -1.651987
 16 22.550743 -0.000006 -0.000004 0.120771 0.013966 1.736551
 17 30.814247 -0.000015 -0.000004 2.463874 0.232135 0.410044
 18 -3.013796 7.815494 11.355459 0.010805 -0.283728 1.212358
 19 10.374533 -0.000002 0.000007 -0.061372 -0.178047 -1.507079
 20 22.550726 -0.000027 -0.000013 -0.123477 0.036671 1.849464
 21 30.814270 -0.000023 0.000002 -2.768655 0.041058 0.355272
 22 -4.250660 -0.770624 0.000001 -0.006304 -0.014074 -2.822051
 23 10.363422 0.000000 0.000000 0.018720 0.023134 -0.384439
 24 10.363076 0.000000 -0.000000 -0.025611 0.027370 -0.318932
 25 10.363081 -0.000004 -0.000002 -0.029915 0.082530 -0.089046
 26 8.081448 0.515635 -7.582893 0.000000 0.000000 0.083159
 27 8.210346 -0.000002 7.704017 0.000000 0.000000 0.076194
 28 1.854841 1.227791 -13.762345 2.595723 0.149938 2.006290
 29 10.456543 -0.000004 0.000004 0.043905 0.092904 -1.445099
 30 24.248093 0.000001 0.000007 0.031466 0.034226 1.084743
 31 26.336971 0.000019 0.000002 0.400449 0.059684 0.604665
 32 1.854847 1.227798 13.762341 -2.661326 -0.071306 1.954564
 33 10.456542 -0.000008 0.000004 -0.031559 -0.093304 -1.570693
 34 24.248116 0.000002 -0.000004 -0.034526 -0.035811 1.174811
 35 26.336975 0.000000 0.000004 -0.318623 -0.019849 0.568301
time 27
  0 0.000000 0.000000 0.000000 0.000000 -0.000000 -1.570796
  1 0.000000 0.000000 -0.011719 0.000000 -0.000000 0.000000
  2 -2.363353 -13.405029 31.519985 -1.571180 -0.217601 1.570988
  3 4.222169 -0.467508 0.000000 -0.000678 -0.000019 -0.015719
  4 4.476987 -0.000002 -0.000000 0.014560 -0.013610 0.149534
  5 4.477083 0.000000 0.000002 -0.004900 0.026253 -0.052713
  6 4.477077 -0.000004 -0.000002 -0.008035 -0.016271 -0.102083
  7 5.413502 -7.700466 -0.000000 0.006513 0.005352 0.040074
  8 6.890240 0.000002 -0.000000 0.000971 0.014808 -0.128272
  9 8.011925 0.000004 0.000005 -0.001847 -0.026743 -0.103826
 10 7.210720 -0.000002 -0.000000 0.000000 0.000000 -0.213948
 11 8.581028 -0.304903 -0.000000 0.007054 -0.002786 0.752712
 12 22.523008 2.194031 6.355708 -0.007646 0.266352 0.078823
 13 22.523005 2.194038 -6.355709 0.002732 -0.197406 0.065544
 14 -3.006533 7.804720 -11.355459 0.420372 0.136000 1.319674
 15 10.384675 0.000008 0.000005 0.033863 0.190894 -1.661151
 16 22.550743 -0.000006 -0.000004 0.120995 0.013966 1.744723
 17 30.814247 -0.000015 -0.000004 2.463743 0.228593 0.408361
 18 -3.013796 7.815494 11.355459 0.004492 -0.282532 1.207228
 19 10.374533 -0.000002 0.000007 -0.060024 -0.178014 -1.514385
 20 22.550726 -0.000027 -0.000013 -0.123702 0.036710 1.858460
 21 30.814270 -0.000023 0.000002 -2.764760 0.037853 0.352259
 22 -4.250660 -0.770624 0.000001 -0.001402 -0.044067 -2.810989
 23 10.363422 0.000000 0.000000 0.015772 0.031368 -0.405323
 24 10.363076 0.000000 -0.000000 -0.025971 0.043069 -0.320764
 25 10.363081 -0.000004 -0.000002 -0.033239 0.094593 -0.060078
 26 8.081448 0.515635 -7.582893 0.000000 0.000000 0.113290
 27 8.210346 -0.000002 7.704017 0.000000 0.000000 0.106339
 28 1.854841 1.227791 -13.762345 2.602187 0.156057 2.028186
 29 10.456543 -0.000004 0.000004 0.045582 0.092672 -1.427645
 30 24.248093 0.000001 0.000007 0.031022 0.033943 1.070653
 31 26.336971 0.000019 0.000002 0.395794 0.062943 0.608089
 32 1.854847 1.227798 13.762341 -2.666221 -0.076751 1.976406
 33 10.456542 -0.000008 0.000004 -0.033323 -0.093359 -1.552761
 34 24.248116 0.000002 -0.000004 -0.034034 -0.035595 1.161356
 35 26.336975 0.000000 0.000004 -0.314464 -0.022765 0.571861
time 28
  0 0.000000 0.000000 0.000000 0.000000 -0.000000 -1.570796
  1 0.000000 0.000000 -0.007813 0.000000 -0.000000 0.000000
  2 -2.363353 -13.221432 31.629364 -1.571084 -0.227533 1.570988
  3 4.222169 -0.467508 0.000000 -0.001373 -0.000000 -0.000064
  4 4.476987 -0.000002 -0.000000 0.014920 -0.013610 0.169024
  5 4.477083 0.000000 0.000002 -0.004732 0.026204 -0.058182
  6 4.477077 -0.000004 -0.000002 -0.007639 -0.016402 -0.115320
  7 5.413502 -7.700466 -0.000000 0.006845 0.005216 0.052769
  8 6.890240 0.000002 -0.000000 0.000587 0.014991 -0.136091
  9 8.011925 0.000004 0.000005 -0.001401 -0.026903 -0.121191
 10 7.210720 -0.000002 -0.000000 0.000000 0.000000 -0.224461
 11 8.581028 -0.304903 -0.000000 0.007054 -0.002786 0.752537
 12 22.523008 2.194031 6.355708 -0.005369 0.333872 0.081435
 13 22.523005 2.194038 -6.355709 0.002145 -0.246500 0.070877
 14 -3.006533 7.804720 -11.355459 0.419286 0.137130 1.314798
 15 10.384675 0.000008 0.000005 0.032667 0.190894 -1.668038
 16 22.550743 -0.000006 -0.000004 0.121171 0.013966 1.751200
 17 30.814247 -0.000015 -0.000004 2.463786 0.225897 0.407322
 18 -3.013796 7.815494 11.355459 -0.001414 -0.281449 1.202325
 19 10.374533 -0.000002 0.000007 -0.058945 -0.177980 -1.520068
 20 22.550726 -0.000027 -0.000013 -0.123845 0.036749 1.865346
 21 30.814270 -0.000023 0.000002 -2.761358 0.035064 0.349693
 22 -4.250660 -0.770624 0.000001 0.004195 -0.079757 -2.800517
 23 10.363422 0.000000 0.000000 0.012824 0.039326 -0.422884
 24 10.363076 0.000000 -0.000000 -0.026402 0.060028 -0.322700
 25 10.363081 -0.000004 -0.000002 -0.035664 0.105300 -0.034681
 26 8.081448 0.515635 -7.582893 0.000000 0.000000 0.139005
 27 8.210346 -0.000002 7.704017 0.000000 0.000000 0.132076
 28 1.854841 1.227791 -13.762345 2.607200 0.160769 2.045337
 29 10.456543 -0.000004 0.000004 0.047050 0.092441 -1.412361
 30 24.248093 0.000001 0.000007 0.030614 0.033661 1.057037
 31 26.336971 0.000019 0.000002 0.392140 0.065518 0.610906
 32 1.854847 1.227798 13.762341 -2.670003 -0.080992 1.993466
 33 10.456542 -0.000008 0.000004 -0.034815 -0.093415 -1.537469
 34 24.248116 0.000002 -0.000004 -0.033554 -0.035379 1.148358
 35 26.336975 0.000000 0.000004 -0.311204 -0.025123 0.574800
time 29
  0 0.000000 0.000000 0.000000 0.000000 -0.000000 -1.570796
  1 0.000000 0.000000 0.000000 0.000000 -0.000000 0.000000
  2 -2.363353 -13.084707 31.711399 -1.571084 -0.235152 1.570988
  3 4.222169 -0.467508 0.000000 -0.001853 -0.000000 0.010946
  4 4.476987 -0.000002 -0.000000 0.015159 -0.013653 0.183097
  5 4.477083 0.000000 0.000002 -0.004600 0.026188 -0.062866
  6 4.477077 -0.000004 -0.000002 -0.007352 -0.016534 -0.125738
  7 5.413502 -7.700466 -0.000000 0.007138 0.005301 0.063534
  8 6.890240 0.000002 -0.000000 0.000192 0.015174 -0.143910
  9 8.011925 0.000004 0.000005 -0.001022 -0.027031 -0.136350
 10 7.210720 -0.000002 -0.000000 0.000000 0.000000 -0.234383
 11 8.581028 -0.304903 -0.000000 0.007054 -0.002786 0.752256
 12 22.523008 2.194031 6.355708 -0.003655 0.386421 0.083317
 13 22.523005 2.194038 -6.355709 0.001594 -0.289393 0.075563
 14 -3.006533 7.804720 -11.355459 0.418364 0.138155 1.310540
 15 10.384675 0.000008 0.000005 0.031808 0.190894 -1.672870
 16 22.550743 -0.000006 -0.000004 0.121315 0.013966 1.756163
 17 30.814247 -0.000015 -0.000004 2.463961 0.224110 0.407072
 18 -3.013796 7.815494 11.355459 -0.006505 -0.280477 1.198107
 19 10.374533 -0.000002 0.000007 -0.058136 -0.177980 -1.524359
 20 22.550726 -0.000027 -0.000013 -0.123947 0.036788 1.870247
 21 30.814270 -0.000023 0.000002 -2.758411 0.032666 0.347574
 22 -4.250660 -0.770624 0.000001 0.009396 -0.115270 -2.789993
 23 10.363422 0.000000 0.000000 0.010055 0.046588 -0.437210
 24 10.363076 0.000000 -0.000000 -0.026833 0.075787 -0.324429
 25 10.363081 -0.000004 -0.000002 -0.037142 0.114190 -0.013928
 26 8.081448 0.515635 -7.582893 0.000000 0.000000 0.159184
 27 8.210346 -0.000002 7.704017 0.000000 0.000000 0.152218
 28 1.854841 1.227791 -13.762345 2.610806 0.163927 2.057136
 29 10.456543 -0.000004 0.000004 0.048273 0.092227 -1.399466
 30 24.248093 0.000001 0.000007 0.030206 0.033378 1.043657
 31 26.336971 0.000019 0.000002 0.389443 0.067384 0.613225
 32 1.854847 1.227798 13.762341 -2.672704 -0.083838 2.005270
 33 10.456542 -0.000008 0.000004 -0.036036 -0.093443 -1.524818
 34 24.248116 0.000002 -0.000004 -0.033088 -0.035176 1.135615
 35 26.336975 0.000000 0.000004 -0.308846 -0.026798 0.577004
time 30
  0 0.000000 0.000000 0.000000 0.000000 -0.000000 -1.570796
  1 0.000000 0.000000 0.000000 0.000000 -0.000000 0.000000
  2 -2.363353 -12.998768 31.766087 -1.571084 -0.240657 1.570988
  3 4.222169 -0.467508 0.000000 -0.002140 0.000018 0.017938
  4 4.476987 -0.000002 -0.000000 0.015303 -0.013695 0.192420
  5 4.477083 0.000000 0.000002 -0.004481 0.026156 -0.066690
  6 4.477077 -0.000004 -0.000002 -0.007208 -0.016722 -0.133353
  7 5.413502 -7.700466 -0.000000 0.007377 0.005658 0.072402
  8 6.890240 0.000002 -0.000000 -0.000192 0.015344 -0.151776
  9 8.011925 0.000004 0.000005 -0.000733 -0.027110 -0.148576
 10 7.210720 -0.000002 -0.000000 0.000000 0.000000 -0.243876
 11 8.581028 -0.304903 -0.000000 0.007054 -0.002786 0.751800
 12 22.523008 2.194031 6.355708 -0.002097 0.433196 0.085007
 13 22.523005 2.194038 -6.355709 0.001103 -0.324754 0.079530
 14 -3.006533 7.804720 -11.355459 0.417550 0.138968 1.306969
 15 10.384675 0.000008 0.000005 0.031248 0.190894 -1.676035
 16 22.550743 -0.000006 -0.000004 0.121443 0.013938 1.759856
 17 30.814247 -0.000015 -0.000004 2.464354 0.223264 0.407537
 18 -3.013796 7.815494 11.355459 -0.010629 -0.279692 1.194630
 19 10.374533 -0.000002 0.000007 -0.057597 -0.178014 -1.527374
 20 22.550726 -0.000027 -0.000013 -0.124008 0.036808 1.873535
 21 30.814270 -0.000023 0.000002 -2.755815 0.030562 0.345816
 22 -4.250660 -0.770624 0.000001 0.013650 -0.147333 -2.780570
 23 10.363422 0.000000 0.000000 0.007670 0.052712 -0.448455
 24 10.363076 0.000000 -0.000000 -0.027181 0.087916 -0.325539
 25 10.363081 -0.000004 -0.000002 -0.037647 0.120830 0.001268
 26 8.081448 0.515635 -7.582893 0.000000 0.000000 0.172636
 27 8.210346 -0.000002 7.704017 0.000000 0.000000 0.165680
 28 1.854841 1.227791 -13.762345 2.613225 0.165778 2.064496
 29 10.456543 -0.000004 0.000004 0.049269 0.092049 -1.389088
 30 24.248093 0.000001 0.000007 0.029872 0.033116 1.031994
 31 26.336971 0.000019 0.000002 0.387659 0.068645 0.614992
 32 1.854847 1.227798 13.762341 -2.674527 -0.085589 2.012594
 33 10.456542 -0.000008 0.000004 -0.037019 -0.093443 -1.514768
 34 24.248116 0.000002 -0.000004 -0.032660 -0.034996 1.124597
 35 26.336975 0.000000 0.000004 -0.307431 -0.027791 0.578474
time 31
  0 0.000000 0.000000 0.000000 0.000000 -0.000000 -1.570796
  1 0.000000 0.000000 0.000000 0.000000 -0.000000 0.000000
  2 -2.363353 -12.963610 31.785618 -1.571084 -0.244367 1.570988
  3 4.222169 -0.467508 0.000000 -0.002284 0.000018 0.021664
  4 4.476987 -0.000002 -0.000000 0.015375 -0.013738 0.197814
  5 4.477083 0.000000 0.000002 -0.004385 0.026140 -0.069595
  6 4.477077 -0.000004 -0.000002 -0.007088 -0.016891 -0.139115
  7 5.413502 -7.700466 -0.000000 0.007576 0.006270 0.079310
  8 6.890240 0.000002 -0.000000 -0.000587 0.015501 -0.159548
  9 8.011925 0.000004 0.000005 -0.000550 -0.027158 -0.158335
 10 7.210720 -0.000002 -0.000000 0.000000 0.000000 -0.252994
 11 8.581028 -0.304903 -0.000000 0.007054 -0.002786 0.751275
 12 22.523008 2.194031 6.355708 -0.001342 0.457026 0.085762
 13 22.523005 2.194038 -6.355709 0.000671 -0.351222 0.081999
 14 -3.006533 7.804720 -11.355459 0.416899 0.139639 1.304153
 15 10.384675 0.000008 0.000005 0.030912 0.190894 -1.677812
 16 22.550743 -0.000006 -0.000004 0.121523 0.013909 1.762277
 17 30.814247 -0.000015 -0.000004 2.464835 0.223170 0.408468
 18 -3.013796 7.815494 11.355459 -0.013837 -0.279057 1.191894
 19 10.374533 -0.000002 0.000007 -0.057193 -0.178047 -1.529287
 20 22.550726 -0.000027 -0.000013 -0.124028 0.036828 1.875458
 21 30.814270 -0.000023 0.000002 -2.753570 0.028751 0.344366
 22 -4.250660 -0.770624 0.000001 0.014393 -0.152549 -2.779289
 23 10.363422 0.000000 0.000000 0.005860 0.057338 -0.456663
 24 10.363076 0.000000 -0.000000 -0.027373 0.094639 -0.325875
 25 10.363081 -0.000004 -0.000002 -0.037216 0.124928 0.010181
 26 8.081448 0.515635 -7.582893 0.000000 0.000000 0.178750
 27 8.210346 -0.000002 7.704017 0.000000 0.000000 0.171818
 28 1.854841 1.227791 -13.762345 2.614588 0.166641 2.068266
 29 10.456543 -0.000004 0.000004 0.049985 0.091907 -1.381490
 30 24.248093 0.000001 0.000007 0.029835 0.033096 1.030751
 31 26.336971 0.000019 0.000002 0.386571 0.069381 0.616318
 32 1.854847 1.227798 13.762341 -2.675574 -0.086492 2.016385
 33 10.456542 -0.000008 0.000004 -0.037732 -0.093471 -1.507399
 34 24.248116 0.000002 -0.000004 -0.032622 -0.034984 1.123073
 35 26.336975 0.000000 0.000004 -0.306788 -0.028225 0.579265
time 32
  0 0.000000 0.000000 0.000000 0.000000 -0.000000 -1.570796
  1 0.000000 0.000000 0.000000 0.000000 -0.000000 0.000000
  2 -2.363353 -12.959703 31.785618 -1.571084 -0.246521 1.570988
  3 4.222169 -0.467508 0.000000 -0.002308 0.000018 0.023060
  4 4.476987 -0.000002 -0.000000 0.015399 -0.013760 0.200278
  5 4.477083 0.000000 0.000002 -0.004325 0.026140 -0.071522
  6 4.477077 -0.000004 -0.000002 -0.006908 -0.017003 -0.143818
  7 5.413502 -7.700466 -0.000000 0.007709 0.007153 0.084630
  8 6.890240 0.000002 -0.000000 -0.000995 0.015645 -0.167112
  9 8.011925 0.000004 0.000005 -0.000406 -0.027190 -0.166797
 10 7.210720 -0.000002 -0.000000 0.000000 0.000000 -0.262327
 11 8.581028 -0.304903 -0.000000 0.007054 -0.002769 0.750644
 12 22.523008 2.194031 6.355708 -0.000671 0.478138 0.086517
 13 22.523005 2.194038 -6.355709 0.000324 -0.369795 0.080369
 14 -3.006533 7.804720 -11.355459 0.416465 0.140098 1.302299
 15 10.384675 0.000008 0.000005 0.030762 0.190915 -1.678590
 16 22.550743 -0.000006 -0.000004 0.121587 0.013880 1.763669
 17 30.814247 -0.000015 -0.000004 2.465315 0.223577 0.409507
 18 -3.013796 7.815494 11.355459 -0.016331 -0.278497 1.189671
 19 10.374533 -0.000002 0.000007 -0.056923 -0.178080 -1.530273
 20 22.550726 -0.000027 -0.000013 -0.124028 0.036847 1.876327
 21 30.814270 -0.000023 0.000002 -2.751605 0.027161 0.343195
 22 -4.250660 -0.770624 0.000001 0.014801 -0.154394 -2.779033
 23 10.363422 0.000000 0.000000 0.004554 0.060646 -0.462363
 24 10.363076 0.000000 -0.000000 -0.027421 0.096952 -0.325565
 25 10.363081 -0.000004 -0.000002 -0.036218 0.126961 0.014128
 26 8.081448 0.515635 -7.582893 0.000000 0.000000 0.179464
 27 8.210346 -0.000002 7.704017 0.000000 0.000000 0.172496
 28 1.854841 1.227791 -13.762345 2.615204 0.166839 2.069544
 29 10.456543 -0.000004 0.000004 0.050474 0.091800 -1.376236
 30 24.248093 0.000001 0.000007 0.029835 0.033096 1.030633
 31 26.336971 0.000019 0.000002 0.386049 0.069749 0.617146
 32 1.854847 1.227798 13.762341 -2.676013 -0.086766 2.017678
 33 10.456542 -0.000008 0.000004 -0.038206 -0.093443 -1.502315
 34 24.248116 0.000002 -0.000004 -0.032609 -0.034984 1.122769
 35 26.336975 0.000000 0.000004 -0.306659 -0.028287 0.579661
time 33
  0 0.000000 0.000000 0.000000 0.000000 -0.000000 -1.570796
  1 0.000000 0.000000 0.000000 0.000000 -0.000000 0.000000
  2 -2.363353 -12.959703 31.785618 -1.570988 -0.247319 1.570988
  3 4.222169 -0.467508 0.000000 -0.002260 0.000018 0.022937
  4 4.476987 -0.000002 -0.000000 0.015375 -0.013738 0.200655
  5 4.477083 0.000000 0.000002 -0.004277 0.026123 -0.072366
  6 4.477077 -0.000004 -0.000002 -0.006717 -0.017060 -0.147493
  7 5.413502 -7.700466 -0.000000 0.007815 0.008394 0.084475
  8 6.890240 0.000002 -0.000000 -0.001294 0.015788 -0.177840
  9 8.011925 0.000004 0.000005 -0.000327 -0.027222 -0.170872
 10 7.210720 -0.000002 -0.000000 0.000000 0.000000 -0.266215
 11 8.581028 -0.304903 -0.000000 0.007054 -0.002769 0.749172
 12 22.523008 2.194031 6.355708 -0.000024 0.498241 0.085738
 13 22.523005 2.194038 -6.355709 0.000096 -0.381411 0.071476
 14 -3.006533 7.804720 -11.355459 0.416248 0.140345 1.301407
 15 10.384675 0.000008 0.000005 0.030688 0.190958 -1.678701
 16 22.550743 -0.000006 -0.000004 0.121619 0.013794 1.764154
 17 30.814247 -0.000015 -0.000004 2.465665 0.224204 0.410295
 18 -3.013796 7.815494 11.355459 -0.018215 -0.278048 1.187904
 19 10.374533 -0.000002 0.000007 -0.056855 -0.178146 -1.530563
 20 22.550726 -0.000027 -0.000013 -0.124008 0.036867 1.876389
 21 30.814270 -0.000023 0.000002 -2.749886 0.025718 0.342218
 22 -4.250660 -0.770624 0.000001 0.015268 -0.156432 -2.778700
 23 10.363422 0.000000 0.000000 0.003691 0.062875 -0.465994
 24 10.363076 0.000000 -0.000000 -0.027337 0.096485 -0.324997
 25 10.363081 -0.000004 -0.000002 -0.035073 0.127593 0.014826
 26 8.081448 0.515635 -7.582893 0.000000 0.000000 0.177154
 27 8.210346 -0.000002 7.704017 0.000000 0.000000 0.170122
 28 1.854841 1.227791 -13.762345 2.615247 0.166641 2.069179
 29 10.456543 -0.000004 0.000004 0.050771 0.091729 -1.372893
 30 24.248093 0.000001 0.000007 0.029835 0.033096 1.030396
 31 26.336971 0.000019 0.000002 0.385919 0.069854 0.617533
 32 1.854847 1.227798 13.762341 -2.676080 -0.086656 2.017376
 33 10.456542 -0.000008 0.000004 -0.038512 -0.093443 -1.499044
 34 24.248116 0.000002 -0.000004 -0.032609 -0.034996 1.122363
 35 26.336975 0.000000 0.000004 -0.306830 -0.028132 0.579661
time 34
  0 0.000000 0.000000 0.000000 0.000000 -0.000000 -1.570796
  1 0.000000 0.000000 0.000000 0.000000 -0.000000 0.000000
  2 -2.363353 -12.959703 31.785618 -1.570988 -0.247119 1.570988
  3 4.222169 -0.467508 0.000000 -0.002176 0.000018 0.022170
  4 4.476987 -0.000002 -0.000000 0.015351 -0.013674 0.199878
  5 4.477083 0.000000 0.000002 -0.004277 0.026123 -0.072070
  6 4.477077 -0.000004 -0.000002 -0.006525 -0.017097 -0.150219
  7 5.413502 -7.700466 -0.000000 0.007643 0.009753 -0.009928
  8 6.890240 0.000002 -0.000000 -0.000072 0.016364 -0.238764
  9 8.011925 0.000004 0.000005 -0.002017 -0.026040 -0.086929
 10 7.210720 -0.000002 -0.000000 0.000000 0.000000 -0.150928
 11 8.581028 -0.304903 -0.000000 0.007100 -0.002650 0.716330
 12 22.523008 2.194031 6.355708 0.000000 0.499158 0.057922
 13 22.523005 2.194038 -6.355709 0.000000 -0.387461 0.053296
 14 -3.006533 7.804720 -11.355459 0.416248 0.140345 1.301681
 15 10.384675 0.000008 0.000005 0.030650 0.191021 -1.678423
 16 22.550743 -0.000006 -0.000004 0.121635 0.013708 1.763912
 17 30.814247 -0.000015 -0.000004 2.465796 0.224831 0.410510
 18 -3.013796 7.815494 11.355459 -0.019691 -0.277637 1.186422
 19 10.374533 -0.000002 0.000007 -0.056923 -0.178246 -1.530273
 20 22.550726 -0.000027 -0.000013 -0.123988 0.036867 1.876016
 21 30.814270 -0.000023 0.000002 -2.748343 0.024396 0.341382
 22 -4.250660 -0.770624 0.000001 0.015748 -0.158470 -2.778368
 23 10.363422 0.000000 0.000000 0.003164 0.064349 -0.468172
 24 10.363076 0.000000 -0.000000 -0.027193 0.094903 -0.324507
 25 10.363081 -0.000004 -0.000002 -0.034125 0.127454 0.013940
 26 8.081448 0.515635 -7.582893 0.000000 0.000000 0.174368
 27 8.210346 -0.000002 7.704017 0.000000 0.000000 0.167206
 28 1.854841 1.227791 -13.762345 2.615028 0.166345 2.068266
 29 10.456543 -0.000004 0.000004 0.050928 0.091676 -1.370939
 30 24.248093 0.000001 0.000007 0.029835 0.033116 1.030041
 31 26.336971 0.000019 0.000002 0.386006 0.069828 0.617533
 32 1.854847 1.227798 13.762341 -2.675911 -0.086410 2.016514
 33 10.456542 -0.000008 0.000004 -0.038681 -0.093443 -1.497112
 34 24.248116 0.000002 -0.000004 -0.032596 -0.034996 1.121956
 35 26.336975 0.000000 0.000004 -0.307045 -0.027977 0.579548
time 35
  0 0.000000 0.000000 0.000000 0.000000 -0.000000 -1.570796
  1 0.000000 0.000000 0.000000 0.000000 -0.000000 0.000000
  2 -2.363353 -12.959703 31.785618 -1.570988 -0.246162 1.570988
  3 4.222169 -0.467508 0.000000 -0.002104 0.000018 0.021618
  4 4.476987 -0.000002 -0.000000 0.015327 -0.013546 0.198857
  5 4.477083 0.000000 0.000002 -0.004301 0.026123 -0.070558
  6 4.477077 -0.000004 -0.000002 -0.006381 -0.017097 -0.151963
  7 5.413502 -7.700466 -0.000000 0.007536 0.008665 -0.176986
  8 6.890240 0.000002 -0.000000 0.000971 0.016886 -0.293684
  9 8.011925 0.000004 0.000005 -0.004636 -0.025161 0.018792
 10 7.210720 -0.000002 -0.000000 0.000000 0.000000 0.011826
 11 8.581028 -0.304903 -0.000000 0.007169 -0.002513 0.677319
 12 22.523008 2.194031 6.355708 0.000000 0.499158 0.028931
 13 22.523005 2.194038 -6.355709 0.000000 -0.389699 0.028344
 14 -3.006533 7.804720 -11.355459 0.416519 0.140098 1.303055
 15 10.384675 0.000008 0.000005 0.030613 0.191127 -1.678146
 16 22.550743 -0.000006 -0.000004 0.121635 0.013593 1.763064
 17 30.814247 -0.000015 -0.000004 2.465621 0.225207 0.409757
 18 -3.013796 7.815494 11.355459 -0.020812 -0.277263 1.185111
 19 10.374533 -0.000002 0.000007 -0.057058 -0.178346 -1.529636
 20 22.550726 -0.000027 -0.000013 -0.123967 0.036847 1.875458
 21 30.814270 -0.000023 0.000002 -2.746905 0.023149 0.340684
 22 -4.250660 -0.770624 0.000001 0.016179 -0.160541 -2.778035
 23 10.363422 0.000000 0.000000 0.002864 0.065296 -0.469361
 24 10.363076 0.000000 -0.000000 -0.027001 0.093884 -0.324378
 25 10.363081 -0.000004 -0.000002 -0.033781 0.127192 0.013269
 26 8.081448 0.515635 -7.582893 0.000000 0.000000 0.173519
 27 8.210346 -0.000002 7.704017 0.000000 0.000000 0.166189
 28 1.854841 1.227791 -13.762345 2.614720 0.166222 2.067658
 29 10.456543 -0.000004 0.000004 0.051016 0.091658 -1.369940
 30 24.248093 0.000001 0.000007 0.029835 0.033116 1.029685
 31 26.336971 0.000019 0.000002 0.386180 0.069775 0.617201
 32 1.854847 1.227798 13.762341 -2.675709 -0.086273 2.016041
 33 10.456542 -0.000008 0.000004 -0.038749 -0.093443 -1.496127
 34 24.248116 0.000002 -0.000004 -0.032596 -0.035008 1.121550
 35 26.336975 0.000000 0.000004 -0.307002 -0.027946 0.579378
time 36
  0 0.000000 0.000000 0.000000 0.000000 -0.000000 -1.570796
  1 0.000000 0.000000 0.000000 0.000000 -0.000000 0.000000
  2 -2.363353 -12.959703 31.785618 -1.570988 -0.244686 1.570988
  3 4.222169 -0.467508 0.000000 -0.002069 0.000018 0.022093
  4 4.476987 -0.000002 -0.000000 0.015327 -0.013331 0.198502
  5 4.477083 0.000000 0.000002 -0.004349 0.026123 -0.067772
  6 4.477077 -0.000004 -0.000002 -0.006321 -0.017097 -0.152773
  7 5.413502 -7.700466 -0.000000 0.007297 0.008547 -0.244474
  8 6.890240 0.000002 -0.000000 0.001953 0.017148 -0.340157
  9 8.011925 0.000004 0.000005 -0.006810 -0.024538 0.104449
 10 7.210720 -0.000002 -0.000000 0.000000 0.000000 0.130654
 11 8.581028 -0.304903 -0.000000 0.007192 -0.002445 0.657761
 12 22.523008 2.194031 6.355708 0.000000 0.499158 0.000000
 13 22.523005 2.194038 -6.355709 0.000000 -0.390002 0.000000
 14 -3.006533 7.804720 -11.355459 0.417062 0.139568 1.305664
 15 10.384675 0.000008 0.000005 0.030464 0.191255 -1.678201
 16 22.550743 -0.000006 -0.000004 0.121603 0.013421 1.761793
 17 30.814247 -0.000015 -0.000004 2.465010 0.225019 0.407752
 18 -3.013796 7.815494 11.355459 -0.021830 -0.276927 1.183800
 19 10.374533 -0.000002 0.000007 -0.057193 -0.178445 -1.528708
 20 22.550726 -0.000027 -0.000013 -0.123967 0.036847 1.875024
 21 30.814270 -0.000023 0.000002 -2.745536 0.021901 0.340015
 22 -4.250660 -0.770624 0.000001 0.016515 -0.162675 -2.777702
 23 10.363422 0.000000 0.000000 0.002661 0.066003 -0.470131
 24 10.363076 0.000000 -0.000000 -0.026810 0.095059 -0.325023
 25 10.363081 -0.000004 -0.000002 -0.034384 0.127470 0.014423
 26 8.081448 0.515635 -7.582893 0.000000 0.000000 0.177086
 27 8.210346 -0.000002 7.704017 0.000000 0.000000 0.169444
 28 1.854841 1.227791 -13.762345 2.614544 0.166567 2.068388
 29 10.456543 -0.000004 0.000004 0.051033 0.091640 -1.369420
 30 24.248093 0.000001 0.000007 0.029835 0.033116 1.029271
 31 26.336971 0.000019 0.000002 0.386223 0.069828 0.616594
 32 1.854847 1.227798 13.762341 -2.675642 -0.086465 2.016859
 33 10.456542 -0.000008 0.000004 -0.038783 -0.093415 -1.495575
 34 24.248116 0.000002 -0.000004 -0.032583 -0.035020 1.121144
 35 26.336975 0.000000 0.000004 -0.306530 -0.028256 0.579265
end
