version 1
nodes
  0 "Chaurus" -1
  1 "NPC Root [Root]" 0
  2 "Pelvis [Pelv]" 1
  3 "Spine[Spn0]" 2
  4 "Spine[Spn1]" 3
  5 "Spine[Spn2]" 4
  6 "Ribcage[Spn3]" 5
  7 "[Neck0]" 6
  8 "[Neck1]" 7
  9 "[Neck2]" 8
 10 "[Neck3]" 9
 11 "NPC Head [Head]" 10
 12 "Head[LeftPincher]" 11
 13 "Head[RightPincher]" 11
 14 "R UpperArm[RClv]" 6
 15 "R UpperArm[RUar]" 14
 16 "R UpperArm[RLar]" 15
 17 "R UpperArm[RHnd]" 16
 18 "L UpperArm[RClv]" 6
 19 "L UpperArm[LUar]" 18
 20 "L UpperArm[LLar]" 19
 21 "L UpperArm[LHnd]" 20
 22 "Tail[Tal0]" 2
 23 "Tail[Tal1]" 22
 24 "Tail[Tal2]" 23
 25 "Tail[Tal3]" 24
 26 "[TalRightPincher]" 25
 27 "[TalLeftPincher]" 25
 28 "R Leg[RThg0]" 2
 29 "R Leg[RThg1]" 28
 30 "R Leg[RClf]" 29
 31 "R Leg[RAnkle]" 30
 32 "LLeg[RThg0]" 2
 33 "LLeg[LThg1]" 32
 34 "LLeg[LClf]" 33
 35 "LLeg[LAnkle]" 34
end
skeleton
time 0
  0 0.000000 0.000000 0.000000 0.000000 -0.000000 -1.570796
  1 0.000000 0.000000 0.000000 0.000000 -0.000000 0.000000
  2 -2.363353 -12.959703 31.785618 -1.570988 -0.244686 1.570988
  3 4.222169 -0.467508 0.000000 -0.002069 0.000018 0.022093
  4 4.476987 -0.000002 -0.000000 0.015327 -0.013331 0.198502
  5 4.477083 0.000000 0.000002 -0.004349 0.026123 -0.067772
  6 4.477077 -0.000004 -0.000002 -0.006321 -0.017097 -0.152773
  7 5.413502 -7.700466 -0.000000 0.007297 0.008547 -0.244474
  8 6.890240 0.000002 -0.000000 0.001953 0.017148 -0.340157
  9 8.011925 0.000004 0.000005 -0.006810 -0.024538 0.104449
 10 7.210720 -0.000002 -0.000000 0.000000 0.000000 0.130654
 11 8.581028 -0.304903 -0.000000 0.007192 -0.002445 0.657761
 12 22.523008 2.194031 6.355708 0.000000 -0.000031 0.000000
 13 22.523005 2.194038 -6.355709 0.000000 0.000060 0.000000
 14 -3.006533 7.804720 -11.355459 0.417062 0.139568 1.305664
 15 10.384675 0.000008 0.000005 0.030987 0.190809 -1.678201
 16 22.550743 -0.000006 -0.000004 0.121603 0.013421 1.761793
 17 30.814247 -0.000015 -0.000004 2.465533 0.223170 0.409113
 18 -3.013796 7.815494 11.355459 0.129381 -0.291650 1.369678
 19 10.374533 -0.000002 0.000007 -0.019780 -0.191668 -1.738151
 20 22.550726 -0.000027 -0.000013 -0.123048 -0.013506 1.830791
 21 30.814270 -0.000023 0.000002 -2.870282 0.196425 0.399675
 22 -4.250660 -0.770624 0.000001 0.016515 -0.162675 -2.777702
 23 10.363422 0.000000 0.000000 0.002661 0.066003 -0.470131
 24 10.363076 0.000000 -0.000000 -0.026810 0.095059 -0.325023
 25 10.363081 -0.000004 -0.000002 -0.034384 0.127470 0.014423
 26 8.210358 -0.000006 -7.703991 0.000000 0.000000 0.177086
 27 8.210346 -0.000002 7.704017 0.000000 0.000000 0.169444
 28 1.854841 1.227791 -13.762345 2.614544 0.166567 2.068388
 29 10.456543 -0.000004 0.000004 0.051033 0.091640 -1.369420
 30 24.248093 0.000001 0.000007 0.029835 0.033116 1.029271
 31 26.336971 0.000019 0.000002 0.386223 0.069828 0.616594
 32 1.854847 1.227798 13.762341 -2.675642 -0.086465 2.016859
 33 10.456542 -0.000008 0.000004 -0.038783 -0.093415 -1.495575
 34 24.248116 0.000002 -0.000004 -0.032583 -0.035020 1.121144
 35 26.336975 0.000000 0.000004 -0.307002 -0.027418 0.579152
time 1
  0 0.000000 0.000000 0.000000 0.000000 -0.000000 -1.570796
  1 0.000000 0.000000 0.000000 0.000000 -0.000000 0.000000
  2 -2.363353 -12.959703 31.785618 -1.570988 -0.244686 1.570988
  3 4.222169 -0.467508 0.000000 -0.002069 0.000018 0.022093
  4 4.476987 -0.000002 -0.000000 0.015327 -0.013331 0.198502
  5 4.477083 0.000000 0.000002 -0.004349 0.026123 -0.067772
  6 4.477077 -0.000004 -0.000002 -0.006321 -0.017097 -0.152773
  7 5.413502 -7.700466 -0.000000 0.007297 0.008547 -0.244474
  8 6.890240 0.000002 -0.000000 0.001953 0.017148 -0.340157
  9 8.011925 0.000004 0.000005 -0.006810 -0.024538 0.104449
 10 7.210720 -0.000002 -0.000000 0.000000 0.000000 0.130654
 11 8.581028 -0.304903 -0.000000 0.007192 -0.002445 0.657761
 12 22.523008 2.194031 6.355708 0.000000 -0.000031 0.000000
 13 22.523005 2.194038 -6.355709 0.000000 0.000060 0.000000
 14 -3.006533 7.804720 -11.355459 0.417062 0.139568 1.305664
 15 10.384675 0.000008 0.000005 0.030987 0.190809 -1.678201
 16 22.550743 -0.000006 -0.000004 0.121603 0.013421 1.761793
 17 30.814247 -0.000015 -0.000004 2.465533 0.223170 0.409113
 18 -3.013796 7.815494 11.355459 0.129381 -0.291650 1.369678
 19 10.374533 -0.000002 0.000007 -0.019780 -0.191668 -1.738151
 20 22.550726 -0.000027 -0.000013 -0.123048 -0.013506 1.830791
 21 30.814270 -0.000023 0.000002 -2.870282 0.196425 0.399675
 22 -4.250660 -0.770624 0.000001 0.016515 -0.162675 -2.777702
 23 10.363422 0.000000 0.000000 0.002661 0.066003 -0.470131
 24 10.363076 0.000000 -0.000000 -0.026810 0.095059 -0.325023
 25 10.363081 -0.000004 -0.000002 -0.034384 0.127470 0.014423
 26 8.210358 -0.000006 -7.703991 0.000000 0.000000 0.177086
 27 8.210346 -0.000002 7.704017 0.000000 0.000000 0.169444
 28 1.854841 1.227791 -13.762345 2.614544 0.166567 2.068388
 29 10.456543 -0.000004 0.000004 0.051033 0.091640 -1.369420
 30 24.248093 0.000001 0.000007 0.029835 0.033116 1.029271
 31 26.336971 0.000019 0.000002 0.386223 0.069828 0.616594
 32 1.854847 1.227798 13.762341 -2.675642 -0.086465 2.016859
 33 10.456542 -0.000008 0.000004 -0.038783 -0.093415 -1.495575
 34 24.248116 0.000002 -0.000004 -0.032583 -0.035020 1.121144
 35 26.336975 0.000000 0.000004 -0.307002 -0.027418 0.579152
time 2
  0 0.000000 0.000000 0.000000 0.000000 -0.000000 -1.570796
  1 0.000000 0.000000 0.000000 0.000000 -0.000000 0.000000
  2 -2.461013 -13.037832 32.145004 -1.584792 -0.264073 1.572426
  3 4.222169 -0.467508 0.000000 -0.003447 0.000092 0.023167
  4 4.476987 -0.000002 -0.000000 0.010653 -0.015559 0.198546
  5 4.477083 0.000000 0.000002 -0.010329 0.037948 -0.067342
  6 4.477077 -0.000004 -0.000002 -0.006705 -0.012042 -0.152788
  7 5.413502 -7.700466 -0.000000 0.006207 -0.006338 -0.207603
  8 6.890240 0.000002 -0.000000 0.006544 0.011515 -0.313139
  9 8.011925 0.000004 0.000005 -0.004414 -0.007588 0.070524
 10 7.210720 -0.000002 -0.000000 0.000000 0.002348 0.104936
 11 8.581028 -0.304903 -0.000000 0.006824 0.008140 0.695370
 12 22.523008 2.194031 6.355708 0.000000 -0.000031 0.000000
 13 22.523005 2.194038 -6.355709 0.000000 0.000060 0.000000
 14 -3.006533 7.804720 -11.355459 0.423953 0.118829 1.323794
 15 10.384675 0.000008 0.000005 0.030165 0.189748 -1.650987
 16 22.550743 -0.000006 -0.000004 0.121347 0.013708 1.740304
 17 30.814247 -0.000015 -0.000004 2.462782 0.225740 0.394752
 18 -3.013796 7.815494 11.355459 0.174184 -0.334136 1.382104
 19 10.374533 -0.000002 0.000007 -0.013376 -0.199376 -1.713391
 20 22.550726 -0.000027 -0.000013 -0.120229 0.006930 1.822168
 21 30.814270 -0.000023 0.000002 -2.899189 0.230361 0.387849
 22 -4.250660 -0.770624 0.000001 0.014621 -0.145263 -2.836775
 23 10.363422 0.000000 0.000000 0.002697 0.059064 -0.433667
 24 10.363076 0.000000 -0.000000 -0.023430 0.087125 -0.255543
 25 10.363081 -0.000004 -0.000002 -0.030063 0.120290 0.062507
 26 8.210358 -0.000006 -7.703991 0.000000 0.000000 0.185510
 27 8.210346 -0.000002 7.704017 0.000000 0.000000 0.179413
 28 1.854841 1.227791 -13.762345 2.623251 0.161929 2.078180
 29 10.456543 -0.000004 0.000004 0.053619 0.091142 -1.342586
 30 24.248093 0.000001 0.000007 0.029168 0.032813 1.009498
 31 26.336971 0.000019 0.000002 0.372302 0.087040 0.601296
 32 1.854847 1.227798 13.762341 -2.674595 -0.098203 2.037581
 33 10.456542 -0.000008 0.000004 -0.040038 -0.093248 -1.481506
 34 24.248116 0.000002 -0.000004 -0.032337 -0.035080 1.110736
 35 26.336975 0.000000 0.000004 -0.314078 -0.023975 0.571409
time 3
  0 0.000000 0.000000 0.000000 0.000000 -0.000000 -1.570796
  1 0.000000 0.000000 0.000000 0.000000 -0.000000 0.000000
  2 -2.375072 -13.264400 32.996593 -1.604732 -0.292913 1.573960
  3 4.222169 -0.467508 0.000000 -0.003387 -0.003597 0.022676
  4 4.476987 -0.000002 -0.000000 0.006303 -0.017765 0.198635
  5 4.477083 0.000000 0.000002 -0.016417 0.053035 -0.066749
  6 4.477077 -0.000004 -0.000002 -0.007100 -0.007175 -0.152804
  7 5.413502 -7.700466 -0.000000 0.004625 -0.021477 -0.169518
  8 6.890240 0.000002 -0.000000 0.014142 0.003882 -0.273322
  9 8.011925 0.000004 0.000005 -0.001820 0.016007 0.027540
 10 7.210720 -0.000002 -0.000000 -0.000165 0.007804 0.068733
 11 8.581028 -0.304903 -0.000000 0.005056 0.025331 0.760563
 12 22.523008 2.194031 6.355708 0.000000 -0.000489 0.000000
 13 22.523005 2.194038 -6.355709 0.000000 0.000665 0.000000
 14 -3.006533 7.804720 -11.355459 0.423139 0.059969 1.365891
 15 10.384675 0.000008 0.000005 0.029530 0.188687 -1.622551
 16 22.550743 -0.000006 -0.000004 0.119747 0.013766 1.676926
 17 30.814247 -0.000015 -0.000004 2.459943 0.228248 0.380392
 18 -3.013796 7.815494 11.355459 0.261296 -0.439661 1.425824
 19 10.374533 -0.000002 0.000007 -0.007174 -0.207183 -1.688805
 20 22.550726 -0.000027 -0.000013 -0.107585 0.057264 1.782526
 21 30.814270 -0.000023 0.000002 -2.977839 0.314675 0.359929
 22 -4.250660 -0.770624 0.000001 0.011433 -0.106203 -2.974560
 23 10.363422 0.000000 0.000000 0.002936 0.046828 -0.370730
 24 10.363076 0.000000 -0.000000 -0.016215 0.071173 -0.142857
 25 10.363081 -0.000004 -0.000002 -0.018059 0.096103 0.179453
 26 8.210358 -0.000006 -7.703991 0.000000 0.000000 0.194037
 27 8.210346 -0.000002 7.704017 0.000000 0.000000 0.189179
 28 1.854841 1.227791 -13.762345 2.631826 0.157241 2.087911
 29 10.456543 -0.000004 0.000004 0.056152 0.090590 -1.315840
 30 24.248093 0.000001 0.000007 0.028501 0.032491 0.989843
 31 26.336971 0.000019 0.000002 0.358250 0.103911 0.585943
 32 1.854847 1.227798 13.762341 -2.671522 -0.110926 2.056623
 33 10.456542 -0.000008 0.000004 -0.041327 -0.093053 -1.467515
 34 24.248116 0.000002 -0.000004 -0.032000 -0.034984 1.100479
 35 26.336975 0.000000 0.000004 -0.323769 -0.021773 0.562027
time 4
  0 0.000000 0.000000 0.000000 0.000000 -0.000000 -1.570796
  1 0.000000 0.000000 0.000000 0.000000 -0.000000 0.000000
  2 -2.086001 -13.807386 34.109909 -1.625054 -0.322072 1.576261
  3 4.222169 -0.467508 0.000000 -0.002752 -0.008713 0.021342
  4 4.476987 -0.000002 -0.000000 0.002180 -0.019971 0.198768
  5 4.477083 0.000000 0.000002 -0.022433 0.066443 -0.066245
  6 4.477077 -0.000004 -0.000002 -0.007531 -0.002383 -0.152819
  7 5.413502 -7.700466 -0.000000 0.003482 -0.048408 -0.087250
  8 6.890240 0.000002 -0.000000 0.021584 -0.004391 -0.231876
  9 8.011925 0.000004 0.000005 -0.000183 0.042319 -0.019156
 10 7.210720 -0.000002 -0.000000 -0.000741 0.015678 0.028131
 11 8.581028 -0.304903 -0.000000 0.003610 0.042420 0.828910
 12 22.523008 2.194031 6.355708 0.000000 -0.001711 0.000000
 13 22.523005 2.194038 -6.355709 0.000000 0.002299 0.000000
 14 -3.006533 7.804720 -11.355459 0.418255 0.000755 1.408125
 15 10.384675 0.000008 0.000005 0.037187 0.186672 -1.548905
 16 22.550743 -0.000006 -0.000004 0.118036 0.013479 1.611006
 17 30.814247 -0.000015 -0.000004 2.459244 0.229878 0.367034
 18 -3.013796 7.815494 11.355459 0.365565 -0.558376 1.467092
 19 10.374533 -0.000002 0.000007 -0.001377 -0.215356 -1.661378
 20 22.550726 -0.000027 -0.000013 -0.096329 0.107932 1.740651
 21 30.814270 -0.000023 0.000002 -3.063154 0.398059 0.323252
 22 -4.250660 -0.770624 0.000001 0.010415 -0.062201 -3.133368
 23 10.363422 0.000000 0.000000 0.002505 0.033873 -0.304139
 24 10.363076 0.000000 -0.000000 -0.010499 0.052885 -0.025784
 25 10.363081 -0.000004 -0.000002 -0.008837 0.070190 0.298172
 26 8.210358 -0.000006 -7.703991 0.000000 0.000000 0.202699
 27 8.210346 -0.000002 7.704017 0.000000 0.000000 0.199013
 28 1.854841 1.227791 -13.762345 2.640796 0.151665 2.096426
 29 10.456543 -0.000004 0.000004 0.058510 0.090003 -1.290961
 30 24.248093 0.000001 0.000007 0.027908 0.032168 0.971491
 31 26.336971 0.000019 0.000002 0.342981 0.120861 0.568437
 32 1.854847 1.227798 13.762341 -2.663790 -0.126085 2.072779
 33 10.456542 -0.000008 0.000004 -0.042615 -0.092858 -1.453366
 34 24.248116 0.000002 -0.000004 -0.031585 -0.034756 1.090325
 35 26.336975 0.000000 0.000004 -0.338564 -0.021866 0.549368
time 5
  0 0.000000 0.000000 0.000000 0.000000 -0.000000 -1.570796
  1 0.000000 0.000000 0.000000 0.000000 -0.000000 0.000000
  2 -1.574267 -14.819136 35.227131 -1.645664 -0.351152 1.579328
  3 4.222169 -0.467508 0.000000 -0.002392 -0.012773 0.019885
  4 4.476987 -0.000002 -0.000000 -0.001667 -0.022156 0.198946
  5 4.477083 0.000000 0.000002 -0.028078 0.072969 -0.066052
  6 4.477077 -0.000004 -0.000002 -0.008011 0.002315 -0.152835
  7 5.413502 -7.700466 -0.000000 0.000385 -0.074965 -0.006879
  8 6.890240 0.000002 -0.000000 0.028943 -0.013462 -0.189080
  9 8.011925 0.000004 0.000005 0.000406 0.071219 -0.065514
 10 7.210720 -0.000002 -0.000000 -0.001729 0.025176 -0.009440
 11 8.581028 -0.304903 -0.000000 0.002599 0.058212 0.896837
 12 22.523008 2.194031 6.355708 0.000000 -0.004033 0.000000
 13 22.523005 2.194038 -6.355709 0.000000 0.005445 0.000000
 14 -3.006533 7.804720 -11.355459 0.381576 -0.045598 1.440333
 15 10.384675 0.000008 0.000005 0.063669 0.184932 -1.436383
 16 22.550743 -0.000006 -0.000004 0.115110 0.008657 1.517361
 17 30.814247 -0.000015 -0.000004 2.498511 0.215490 0.372907
 18 -3.013796 7.815494 11.355459 0.470293 -0.675970 1.495250
 19 10.374533 -0.000002 0.000007 -0.000096 -0.227183 -1.584200
 20 22.550726 -0.000027 -0.000013 -0.079804 0.144229 1.662050
 21 30.814270 -0.000023 0.000002 3.131207 0.475351 0.279881
 22 -4.250660 -0.770624 0.000001 0.003332 -0.020461 2.996464
 23 10.363422 0.000000 0.000000 0.001282 0.020534 -0.235458
 24 10.363076 0.000000 -0.000000 -0.006304 0.033110 0.083366
 25 10.363081 -0.000004 -0.000002 -0.002706 0.043445 0.410958
 26 8.210358 -0.000006 -7.703991 0.000000 0.000000 0.211192
 27 8.210346 -0.000002 7.704017 0.000000 0.000000 0.208609
 28 1.854841 1.227791 -13.762345 2.656715 0.132174 2.081708
 29 10.456543 -0.000004 0.000004 0.057113 0.090501 -1.303031
 30 24.248093 0.000001 0.000007 0.028204 0.032309 0.980371
 31 26.336971 0.000019 0.000002 0.312354 0.140333 0.518678
 32 1.854847 1.227798 13.762341 -2.649812 -0.144308 2.084669
 33 10.456542 -0.000008 0.000004 -0.043701 -0.092664 -1.441149
 34 24.248116 0.000002 -0.000004 -0.031197 -0.034516 1.081389
 35 26.336975 0.000000 0.000004 -0.360134 -0.025588 0.532469
time 6
  0 0.000000 0.000000 0.000000 0.000000 -0.000000 -1.570796
  1 0.000000 0.000000 0.000000 0.000000 -0.000000 0.000000
  2 -0.750023 -16.135582 36.149033 -1.666754 -0.380391 1.583259
  3 4.222169 -0.467508 0.000000 -0.003207 -0.013385 0.018981
  4 4.476987 -0.000002 -0.000000 -0.005275 -0.024340 0.199146
  5 4.477083 0.000000 0.000002 -0.033160 0.067493 -0.066304
  6 4.477077 -0.000004 -0.000002 -0.008538 0.007220 -0.152866
  7 5.413502 -7.700466 -0.000000 -0.000478 -0.094063 0.023054
  8 6.890240 0.000002 -0.000000 0.036181 -0.020690 -0.145795
  9 8.011925 0.000004 0.000005 0.001257 0.111477 -0.069719
 10 7.210720 -0.000002 -0.000000 -0.003239 0.037958 -0.027032
 11 8.581028 -0.304903 -0.000000 -0.001994 0.061302 0.954915
 12 22.523008 2.194031 6.355708 0.000000 -0.007607 0.000000
 13 22.523005 2.194038 -6.355709 0.000000 0.010406 0.000000
 14 -3.006533 7.804720 -11.355459 0.306209 -0.054007 1.453724
 15 10.384675 0.000008 0.000005 0.100086 0.185887 -1.317862
 16 22.550743 -0.000006 -0.000004 0.112567 0.003549 1.421114
 17 30.814247 -0.000015 -0.000004 2.548568 0.196399 0.377348
 18 -3.013796 7.815494 11.355459 0.537345 -0.736953 1.503287
 19 10.374533 -0.000002 0.000007 -0.000636 -0.237781 -1.500353
 20 22.550726 -0.000027 -0.000013 -0.066547 0.176915 1.577742
 21 30.814270 -0.000023 0.000002 3.079183 0.519172 0.265517
 22 -4.250660 -0.770624 0.000001 0.000360 -0.004301 2.920287
 23 10.363422 0.000000 0.000000 0.000168 0.006332 -0.168010
 24 10.363076 0.000000 -0.000000 -0.002589 0.008973 0.139941
 25 10.363081 -0.000004 -0.000002 -0.000477 0.012356 0.457672
 26 8.210358 -0.000006 -7.703991 0.000000 0.000000 0.223353
 27 8.210346 -0.000002 7.704017 0.000000 0.000000 0.221868
 28 1.854841 1.227791 -13.762345 2.673600 0.110290 2.062671
 29 10.456543 -0.000004 0.000004 0.054877 0.091142 -1.324350
 30 24.248093 0.000001 0.000007 0.028649 0.032571 0.995467
 31 26.336971 0.000019 0.000002 0.279683 0.158597 0.466324
 32 1.854847 1.227798 13.762341 -2.631209 -0.164884 2.093371
 33 10.456542 -0.000008 0.000004 -0.042717 -0.092803 -1.453327
 34 24.248116 0.000002 -0.000004 -0.031378 -0.034660 1.084943
 35 26.336975 0.000000 0.000004 -0.388994 -0.034833 0.512349
time 7
  0 0.000000 0.000000 0.000000 0.000000 -0.000000 -1.570796
  1 0.000000 0.000000 0.000000 0.000000 -0.000000 0.000000
  2 0.765648 -17.959856 36.922493 -1.688035 -0.409431 1.588148
  3 4.222169 -0.467508 0.000000 -0.006047 -0.008120 0.019364
  4 4.476987 -0.000002 -0.000000 -0.008642 -0.026503 0.199390
  5 4.477083 0.000000 0.000002 -0.037342 0.045750 -0.067045
  6 4.477077 -0.000004 -0.000002 -0.009629 0.009344 -0.152757
  7 5.413502 -7.700466 -0.000000 0.000080 -0.103204 -0.007097
  8 6.890240 0.000002 -0.000000 0.042270 -0.003058 -0.112796
  9 8.011925 0.000004 0.000005 0.001323 0.155202 -0.061050
 10 7.210720 -0.000002 -0.000000 -0.005573 0.057944 -0.002440
 11 8.581028 -0.304903 -0.000000 -0.019308 0.032228 0.989544
 12 22.523008 2.194031 6.355708 0.000000 -0.016193 0.000000
 13 22.523005 2.194038 -6.355709 0.000000 0.020116 0.000000
 14 -3.006533 7.804720 -11.355459 0.134260 0.028207 1.376535
 15 10.384675 0.000008 0.000005 0.248334 0.243914 -1.168905
 16 22.550743 -0.000006 -0.000004 0.110536 -0.005032 1.330012
 17 30.814247 -0.000015 -0.000004 2.688690 0.142073 0.352530
 18 -3.013796 7.815494 11.355459 0.554248 -0.754142 1.492742
 19 10.374533 -0.000002 0.000007 -0.009736 -0.229907 -1.374235
 20 22.550726 -0.000027 -0.000013 -0.065832 0.164705 1.450566
 21 30.814270 -0.000023 0.000002 3.098161 0.534757 0.305458
 22 -4.250660 -0.770624 0.000001 -0.000084 -0.016898 2.906664
 23 10.363422 0.000000 0.000000 0.006604 -0.013431 -0.126110
 24 10.363076 0.000000 -0.000000 0.000276 -0.021899 0.134701
 25 10.363081 -0.000004 -0.000002 -0.014771 -0.027253 0.459578
 26 8.210358 -0.000006 -7.703991 0.000000 0.000000 0.270130
 27 8.210346 -0.000002 7.704017 0.000000 0.000000 0.268629
 28 1.854841 1.227791 -13.762345 2.695807 0.070075 2.015170
 29 10.456543 -0.000004 0.000004 0.046473 0.092512 -1.414098
 30 24.248093 0.000001 0.000007 0.030503 0.033842 1.054905
 31 26.336971 0.000019 0.000002 0.244706 0.173103 0.410766
 32 1.854847 1.227798 13.762341 -2.607136 -0.189811 2.099790
 33 10.456542 -0.000008 0.000004 -0.041530 -0.092970 -1.467594
 34 24.248116 0.000002 -0.000004 -0.031546 -0.034768 1.088650
 35 26.336975 0.000000 0.000004 -0.424673 -0.051336 0.491212
time 8
  0 0.000000 0.000000 0.000000 0.000000 -0.000000 -1.570796
  1 0.000000 0.000000 0.000000 0.000000 -0.000000 0.000000
  2 2.961028 -20.334929 37.668610 -1.709604 -0.438351 1.593900
  3 4.222169 -0.467508 0.000000 -0.011285 0.004356 0.021204
  4 4.476987 -0.000002 -0.000000 -0.011794 -0.028667 0.199678
  5 4.477083 0.000000 0.000002 -0.040231 0.012280 -0.067579
  6 4.477077 -0.000004 -0.000002 -0.014638 -0.010238 -0.151527
  7 5.413502 -7.700466 -0.000000 0.000106 -0.106857 -0.084480
  8 6.890240 0.000002 -0.000000 0.048873 0.017148 -0.080635
  9 8.011925 0.000004 0.000005 0.001257 0.202122 -0.042283
 10 7.210720 -0.000002 -0.000000 -0.008071 0.084285 0.053634
 11 8.581028 -0.304903 -0.000000 -0.047875 -0.022044 1.007385
 12 22.523008 2.194031 6.355708 0.000000 -0.065931 0.000000
 13 22.523005 2.194038 -6.355709 0.000000 0.073536 0.000000
 14 -3.006533 7.804720 -11.355459 -0.103235 0.245064 1.146686
 15 10.384675 0.000008 0.000005 0.508523 0.352352 -1.056660
 16 22.550743 -0.000006 -0.000004 0.114166 -0.040559 1.302712
 17 30.814247 -0.000015 -0.000004 2.870483 0.077998 0.280549
 18 -3.013796 7.815494 11.355459 0.524871 -0.741400 1.448567
 19 10.374533 -0.000002 0.000007 -0.035824 -0.204459 -1.188334
 20 22.550726 -0.000027 -0.000013 -0.076658 0.122989 1.264392
 21 30.814270 -0.000023 0.000002 -3.083922 0.506571 0.413648
 22 -4.250660 -0.770624 0.000001 -0.000240 -0.032256 2.898521
 23 10.363422 0.000000 0.000000 0.013267 -0.034116 -0.086785
 24 10.363076 0.000000 -0.000000 0.003236 -0.053622 0.126726
 25 10.363081 -0.000004 -0.000002 -0.030801 -0.067971 0.458262
 26 8.210358 -0.000006 -7.703991 0.000000 0.000000 0.320915
 27 8.210346 -0.000002 7.704017 0.000000 0.000000 0.319085
 28 1.854841 1.227791 -13.762345 2.732877 0.020286 1.955140
 29 10.456543 -0.000004 0.000004 0.037197 0.093153 -1.512139
 30 24.248093 0.000001 0.000007 0.032616 0.035114 1.119494
 31 26.336971 0.000019 0.000002 0.197504 0.170133 0.332235
 32 1.854847 1.227798 13.762341 -2.558821 -0.237092 2.100609
 33 10.456542 -0.000008 0.000004 -0.040547 -0.093081 -1.479929
 34 24.248116 0.000002 -0.000004 -0.031663 -0.034828 1.091493
 35 26.336975 0.000000 0.000004 -0.467213 -0.076370 0.470640
time 9
  0 0.000000 0.000000 0.000000 0.000000 -0.000000 -1.570796
  1 0.000000 0.000000 0.000000 0.000000 -0.000000 0.000000
  2 5.254066 -22.729532 38.313164 -1.731652 -0.467071 1.600610
  3 4.222169 -0.467508 0.000000 -0.017361 0.021522 0.022952
  4 4.476987 -0.000002 -0.000000 -0.014718 -0.030808 0.199989
  5 4.477083 0.000000 0.000002 -0.041573 -0.021449 -0.066882
  6 4.477077 -0.000004 -0.000002 -0.020271 -0.032902 -0.150047
  7 5.413502 -7.700466 -0.000000 -0.000359 -0.111870 -0.187472
  8 6.890240 0.000002 -0.000000 0.056100 0.036805 -0.048381
  9 8.011925 0.000004 0.000005 0.002122 0.251646 -0.015756
 10 7.210720 -0.000002 -0.000000 -0.009773 0.111809 0.112927
 11 8.581028 -0.304903 -0.000000 -0.078256 -0.079184 1.022386
 12 22.523008 2.194031 6.355708 0.000000 -0.177873 0.000000
 13 22.523005 2.194038 -6.355709 0.000000 0.224267 0.000000
 14 -3.006533 7.804720 -11.355459 -0.317398 0.615114 0.830445
 15 10.384675 0.000008 0.000005 0.763520 0.505429 -1.098814
 16 22.550743 -0.000006 -0.000004 0.132430 -0.084410 1.429286
 17 30.814247 -0.000015 -0.000004 3.020564 0.021791 0.180884
 18 -3.013796 7.815494 11.355459 0.445447 -0.699698 1.368082
 19 10.374533 -0.000002 0.000007 -0.084359 -0.171004 -0.968338
 20 22.550726 -0.000027 -0.000013 -0.093143 0.069160 1.041245
 21 30.814270 -0.000023 0.000002 -2.916694 0.397864 0.568027
 22 -4.250660 -0.770624 0.000001 -0.000288 -0.047292 2.889867
 23 10.363422 0.000000 0.000000 0.019067 -0.055185 -0.046998
 24 10.363076 0.000000 -0.000000 0.006675 -0.086017 0.115705
 25 10.363081 -0.000004 -0.000002 -0.046807 -0.108966 0.458182
 26 8.210358 -0.000006 -7.703991 0.000000 0.000000 0.371904
 27 8.210346 -0.000002 7.704017 0.000000 0.000000 0.369610
 28 1.854841 1.227791 -13.762345 2.774695 -0.028367 1.891644
 29 10.456543 -0.000004 0.000004 0.028409 0.092975 -1.605099
 30 24.248093 0.000001 0.000007 0.034803 0.036264 1.184260
 31 26.336971 0.000019 0.000002 0.148911 0.161330 0.250555
 32 1.854847 1.227798 13.762341 -2.513342 -0.278765 2.095267
 33 10.456542 -0.000008 0.000004 -0.040411 -0.093081 -1.480954
 34 24.248116 0.000002 -0.000004 -0.031728 -0.034852 1.093473
 35 26.336975 0.000000 0.000004 -0.511168 -0.106741 0.452781
time 10
  0 0.000000 0.000000 0.000000 0.000000 -0.000000 -1.570796
  1 0.000000 0.000000 0.000000 0.000000 -0.000000 0.000000
  2 7.039277 -24.553808 38.766300 -1.752263 -0.493438 1.609526
  3 4.222169 -0.467508 0.000000 -0.022322 0.039708 0.022645
  4 4.476987 -0.000002 -0.000000 -0.017631 -0.032972 0.200300
  5 4.477083 0.000000 0.000002 -0.041765 -0.056162 -0.065311
  6 4.477077 -0.000004 -0.000002 -0.026000 -0.055528 -0.148443
  7 5.413502 -7.700466 -0.000000 -0.001475 -0.116627 -0.294134
  8 6.890240 0.000002 -0.000000 0.065256 0.056763 -0.015918
  9 8.011925 0.000004 0.000005 0.001559 0.295547 0.013108
 10 7.210720 -0.000002 -0.000000 -0.011200 0.139774 0.169861
 11 8.581028 -0.304903 -0.000000 -0.108866 -0.137365 1.036826
 12 22.523008 2.194031 6.355708 0.000000 -0.292932 0.000000
 13 22.523005 2.194038 -6.355709 0.000000 0.394388 0.000000
 14 -3.006533 7.804720 -11.355459 -0.498408 1.054340 0.507819
 15 10.384675 0.000008 0.000005 0.971343 0.738790 -1.236107
 16 22.550743 -0.000006 -0.000004 0.138091 -0.123467 1.691877
 17 30.814247 -0.000015 -0.000004 3.109102 -0.016390 0.072554
 18 -3.013796 7.815494 11.355459 0.349681 -0.648954 1.266622
 19 10.374533 -0.000002 0.000007 -0.131815 -0.131369 -0.756227
 20 22.550726 -0.000027 -0.000013 -0.099618 0.017059 0.823432
 21 30.814270 -0.000023 0.000002 -2.749290 0.223290 0.704331
 22 -4.250660 -0.770624 0.000001 -0.000204 -0.062473 2.880776
 23 10.363422 0.000000 0.000000 0.023394 -0.073378 -0.013219
 24 10.363076 0.000000 -0.000000 0.009851 -0.113965 0.100942
 25 10.363081 -0.000004 -0.000002 -0.060916 -0.143938 0.456652
 26 8.210358 -0.000006 -7.703991 0.000000 0.000000 0.416880
 27 8.210346 -0.000002 7.704017 0.000000 0.000000 0.414133
 28 1.854841 1.227791 -13.762345 2.817174 -0.070285 1.834412
 29 10.456543 -0.000004 0.000004 0.022749 0.092654 -1.666494
 30 24.248093 0.000001 0.000007 0.036694 0.037091 1.239199
 31 26.336971 0.000019 0.000002 0.105973 0.149032 0.176828
 32 1.854847 1.227798 13.762341 -2.473197 -0.311818 2.085100
 33 10.456542 -0.000008 0.000004 -0.040411 -0.093081 -1.480836
 34 24.248116 0.000002 -0.000004 -0.031767 -0.034852 1.095047
 35 26.336975 0.000000 0.000004 -0.547576 -0.137452 0.439273
time 11
  0 0.000000 0.000000 0.000000 0.000000 -0.000000 -1.570796
  1 0.000000 0.000000 0.000000 0.000000 -0.000000 0.000000
  2 7.504135 -24.686625 38.953804 -1.757056 -0.500579 1.630616
  3 4.222169 -0.467508 0.000000 -0.024168 0.055205 0.018383
  4 4.476987 -0.000002 -0.000000 -0.019153 -0.034942 0.200766
  5 4.477083 0.000000 0.000002 -0.039188 -0.091167 -0.060672
  6 4.477077 -0.000004 -0.000002 -0.031992 -0.078380 -0.147633
  7 5.413502 -7.700466 -0.000000 0.008095 -0.127060 -0.399739
  8 6.890240 0.000002 -0.000000 0.062811 0.071741 0.016383
  9 8.011925 0.000004 0.000005 -0.012835 0.308998 0.034574
 10 7.210720 -0.000002 -0.000000 -0.020616 0.168022 0.196517
 11 8.581028 -0.304903 -0.000000 -0.129166 -0.162597 1.036686
 12 22.523008 2.194031 6.355708 0.000000 -0.400902 0.000000
 13 22.523005 2.194038 -6.355709 0.000000 0.547841 0.000000
 14 -3.006533 7.804720 -11.355459 -0.645560 1.254133 0.165276
 15 10.384675 0.000008 0.000005 1.051648 0.876401 -1.290092
 16 22.550743 -0.000006 -0.000004 0.133165 -0.130814 1.805740
 17 30.814247 -0.000015 -0.000004 3.139590 -0.032629 0.002291
 18 -3.013796 7.815494 11.355459 0.278352 -0.588046 1.205347
 19 10.374533 -0.000002 0.000007 -0.185946 -0.113761 -0.676207
 20 22.550726 -0.000027 -0.000013 -0.101048 -0.006773 0.741853
 21 30.814270 -0.000023 0.000002 -2.642856 0.055396 0.749209
 22 -4.250660 -0.770624 0.000001 0.000012 -0.076387 2.875399
 23 10.363422 0.000000 0.000000 0.024916 -0.078111 -0.005121
 24 10.363076 0.000000 -0.000000 0.009576 -0.119154 0.076268
 25 10.363081 -0.000004 -0.000002 -0.066296 -0.152334 0.446718
 26 8.210358 -0.000006 -7.703991 0.000000 0.000000 0.425101
 27 8.210346 -0.000002 7.704017 0.000000 0.000000 0.422237
 28 1.854841 1.227791 -13.762345 2.839029 -0.084249 1.824498
 29 10.456543 -0.000004 0.000004 0.020723 0.092477 -1.688074
 30 24.248093 0.000001 0.000007 0.037064 0.037192 1.250210
 31 26.336971 0.000019 0.000002 0.106930 0.136313 0.162967
 32 1.854847 1.227798 13.762341 -2.447638 -0.328974 2.071874
 33 10.456542 -0.000008 0.000004 -0.040750 -0.093109 -1.476855
 34 24.248116 0.000002 -0.000004 -0.031728 -0.034828 1.094285
 35 26.336975 0.000000 0.000004 -0.553837 -0.158547 0.432830
time 12
  0 0.000000 0.000000 0.000000 0.000000 -0.000000 -1.570796
  1 0.000000 0.000000 0.000000 0.000000 -0.000000 0.000000
  2 5.707205 -21.092764 38.949898 -1.724079 -0.462963 1.675673
  3 4.222169 -0.467508 0.000000 -0.021364 0.064678 0.008462
  4 4.476987 -0.000002 -0.000000 -0.008534 -0.035049 0.202586
  5 4.477083 0.000000 0.000002 -0.021559 -0.119985 -0.036661
  6 4.477077 -0.000004 -0.000002 -0.036630 -0.101269 -0.137807
  7 5.413502 -7.700466 -0.000000 0.079337 -0.167108 -0.499276
  8 6.890240 0.000002 -0.000000 0.003428 0.066539 0.046403
  9 8.011925 0.000004 0.000005 -0.041504 0.311155 0.050615
 10 7.210720 -0.000002 -0.000000 -0.055753 0.197824 0.158410
 11 8.581028 -0.304903 -0.000000 -0.119108 -0.064143 0.970617
 12 22.523008 2.194031 6.355708 0.000000 -0.464451 0.000000
 13 22.523005 2.194038 -6.355709 0.000000 0.609580 0.000000
 14 -3.006533 7.804720 -11.355459 -0.452884 0.987425 -0.024468
 15 10.384675 0.000008 0.000005 0.810695 0.691668 -1.306365
 16 22.550743 -0.000006 -0.000004 0.159441 -0.075140 1.415545
 17 30.814247 -0.000015 -0.000004 3.141468 -0.033350 -0.006841
 18 -3.013796 7.815494 11.355459 0.249433 -0.445752 1.225068
 19 10.374533 -0.000002 0.000007 -0.245940 -0.136818 -0.868603
 20 22.550726 -0.000027 -0.000013 -0.107135 -0.013251 0.957371
 21 30.814270 -0.000023 0.000002 -2.617458 -0.050547 0.639986
 22 -4.250660 -0.770624 0.000001 0.000384 -0.084972 2.895526
 23 10.363422 0.000000 0.000000 0.025204 -0.075331 -0.008114
 24 10.363076 0.000000 -0.000000 0.008593 -0.110369 0.047697
 25 10.363081 -0.000004 -0.000002 -0.068217 -0.149608 0.426878
 26 8.210358 -0.000006 -7.703991 0.000000 0.000000 0.395853
 27 8.210346 -0.000002 7.704017 0.000000 0.000000 0.392804
 28 1.854841 1.227791 -13.762345 2.822275 -0.061082 1.874857
 29 10.456543 -0.000004 0.000004 0.019762 0.092405 -1.696584
 30 24.248093 0.000001 0.000007 0.037101 0.037172 1.252282
 31 26.336971 0.000019 0.000002 0.189500 0.120546 0.258011
 32 1.854847 1.227798 13.762341 -2.468302 -0.311462 2.066273
 33 10.456542 -0.000008 0.000004 -0.046108 -0.092747 -1.421089
 34 24.248116 0.000002 -0.000004 -0.030614 -0.034085 1.060775
 35 26.336975 0.000000 0.000004 -0.483466 -0.154731 0.451481
time 13
  0 0.000000 0.000000 0.000000 0.000000 -0.000000 -1.570796
  1 0.000000 0.000000 0.000000 0.000000 -0.000000 0.000000
  2 2.101627 -14.147240 38.875679 -1.653334 -0.381468 1.741052
  3 4.222169 -0.467508 0.000000 -0.015995 0.069016 -0.007148
  4 4.476987 -0.000002 -0.000000 0.023920 -0.031772 0.206870
  5 4.477083 0.000000 0.000002 0.015690 -0.139030 0.014904
  6 4.477077 -0.000004 -0.000002 -0.037289 -0.122485 -0.098579
  7 5.413502 -7.700466 -0.000000 0.220825 -0.230876 -0.598783
  8 6.890240 0.000002 -0.000000 -0.093887 0.051809 0.074305
  9 8.011925 0.000004 0.000005 -0.084016 0.305356 0.060583
 10 7.210720 -0.000002 -0.000000 -0.118068 0.226584 0.067150
 11 8.581028 -0.304903 -0.000000 -0.095593 0.135992 0.842194
 12 22.523008 2.194031 6.355708 0.000000 -0.465000 0.000000
 13 22.523005 2.194038 -6.355709 0.000000 0.590371 0.000000
 14 -3.006533 7.804720 -11.355459 -0.242356 0.599039 -0.124387
 15 10.384675 0.000008 0.000005 0.488241 0.387868 -1.173848
 16 22.550743 -0.000006 -0.000004 0.183862 -0.016511 0.928800
 17 30.814247 -0.000015 -0.000004 3.139590 -0.031814 -0.005122
 18 -3.013796 7.815494 11.355459 0.298157 -0.236160 1.240858
 19 10.374533 -0.000002 0.000007 -0.332293 -0.179143 -1.155862
 20 22.550726 -0.000027 -0.000013 -0.121843 -0.015666 1.285795
 21 30.814270 -0.000023 0.000002 -2.654047 -0.111666 0.449126
 22 -4.250660 -0.770624 0.000001 0.000851 -0.091696 2.946456
 23 10.363422 0.000000 0.000000 0.023034 -0.057798 -0.028821
 24 10.363076 0.000000 -0.000000 0.007371 -0.092464 0.017422
 25 10.363081 -0.000004 -0.000002 -0.064437 -0.126606 0.370606
 26 8.210358 -0.000006 -7.703991 0.000000 0.000000 0.325501
 27 8.210346 -0.000002 7.704017 0.000000 0.000000 0.322273
 28 1.854841 1.227791 -13.762345 2.791317 -0.008876 1.985794
 29 10.456543 -0.000004 0.000004 0.022085 0.092797 -1.670228
 30 24.248093 0.000001 0.000007 0.036768 0.036889 1.242040
 31 26.336971 0.000019 0.000002 0.326232 0.077817 0.441527
 32 1.854847 1.227798 13.762341 -2.520196 -0.293622 2.098239
 33 10.456542 -0.000008 0.000004 -0.064184 -0.088545 -1.227541
 34 24.248116 0.000002 -0.000004 -0.026520 -0.031113 0.927598
 35 26.336975 0.000000 0.000004 -0.343152 -0.137204 0.525857
time 14
  0 0.000000 0.000000 0.000000 0.000000 -0.000000 -1.570796
  1 0.000000 0.000000 0.000000 0.000000 -0.000000 0.000000
  2 -1.453169 -7.303281 38.801460 -1.580766 -0.303444 1.805186
  3 4.222169 -0.467508 0.000000 -0.012471 0.072260 -0.025748
  4 4.476987 -0.000002 -0.000000 0.068335 -0.026825 0.212664
  5 4.477083 0.000000 0.000002 0.051164 -0.154166 0.069788
  6 4.477077 -0.000004 -0.000002 -0.038104 -0.135790 -0.056812
  7 5.413502 -7.700466 -0.000000 0.366513 -0.283225 -0.694213
  8 6.890240 0.000002 -0.000000 -0.191813 0.036256 0.099369
  9 8.011925 0.000004 0.000005 -0.130667 0.291681 0.065878
 10 7.210720 -0.000002 -0.000000 -0.178680 0.248512 -0.027407
 11 8.581028 -0.304903 -0.000000 -0.076418 0.334812 0.715769
 12 22.523008 2.194031 6.355708 0.000000 -0.456690 0.000000
 13 22.523005 2.194038 -6.355709 0.000000 0.514870 0.000000
 14 -3.006533 7.804720 -11.355459 -0.203235 0.405676 -0.088334
 15 10.384675 0.000008 0.000005 0.284677 0.208652 -0.741918
 16 22.550743 -0.000006 -0.000004 0.195761 -0.011173 0.737396
 17 30.814247 -0.000015 -0.000004 3.136576 -0.028804 -0.000717
 18 -3.013796 7.815494 11.355459 0.383792 -0.072977 1.206030
 19 10.374533 -0.000002 0.000007 -0.449721 -0.215754 -1.330050
 20 22.550726 -0.000027 -0.000013 -0.138491 -0.015587 1.503670
 21 30.814270 -0.000023 0.000002 -2.708211 -0.152722 0.281081
 22 -4.250660 -0.770624 0.000001 0.001450 -0.097907 3.010931
 23 10.363422 0.000000 0.000000 0.019655 -0.036297 -0.054810
 24 10.363076 0.000000 -0.000000 0.005225 -0.065475 -0.014428
 25 10.363081 -0.000004 -0.000002 -0.058109 -0.088661 0.284050
 26 8.210358 -0.000006 -7.703991 0.000000 0.000000 0.203990
 27 8.210346 -0.000002 7.704017 0.000000 0.000000 0.201183
 28 1.854841 1.227791 -13.762345 2.767264 0.043404 2.088580
 29 10.456543 -0.000004 0.000004 0.026889 0.093277 -1.623205
 30 24.248093 0.000001 0.000007 0.035989 0.036324 1.215814
 31 26.336971 0.000019 0.000002 0.448433 0.015353 0.609801
 32 1.854847 1.227798 13.762341 -2.582522 -0.302296 2.190519
 33 10.456542 -0.000008 0.000004 -0.090061 -0.075438 -0.924628
 34 24.248116 0.000002 -0.000004 -0.020419 -0.025276 0.706228
 35 26.336975 0.000000 0.000004 -0.215275 -0.131372 0.629113
time 15
  0 0.000000 0.000000 0.000000 0.000000 -0.000000 -1.570796
  1 0.000000 0.000000 0.000000 0.000000 -0.000000 0.000000
  2 -3.367290 -3.615669 38.762394 -1.538012 -0.258448 1.842669
  3 4.222169 -0.467508 0.000000 -0.010434 0.074002 -0.045221
  4 4.476987 -0.000002 -0.000000 0.102491 -0.022541 0.217836
  5 4.477083 0.000000 0.000002 0.073024 -0.160740 0.120212
  6 4.477077 -0.000004 -0.000002 -0.039974 -0.138835 -0.024794
  7 5.413502 -7.700466 -0.000000 0.435523 -0.305314 -0.725328
  8 6.890240 0.000002 -0.000000 -0.247038 0.018402 0.102929
  9 8.011925 0.000004 0.000005 -0.162492 0.269587 0.064061
 10 7.210720 -0.000002 -0.000000 -0.212445 0.253543 -0.106036
 11 8.581028 -0.304903 -0.000000 -0.054764 0.432686 0.650366
 12 22.523008 2.194031 6.355708 0.000000 -0.449663 0.000000
 13 22.523005 2.194038 -6.355709 0.000000 0.420432 0.000000
 14 -3.006533 7.804720 -11.355459 -0.202747 0.363986 0.035278
 15 10.384675 0.000008 0.000005 0.198544 0.142372 -0.380911
 16 22.550743 -0.000006 -0.000004 0.196560 -0.021332 0.752650
 17 30.814247 -0.000015 -0.000004 3.132995 -0.022441 0.006875
 18 -3.013796 7.815494 11.355459 0.428239 -0.028212 1.136034
 19 10.374533 -0.000002 0.000007 -0.564048 -0.224691 -1.363971
 20 22.550726 -0.000027 -0.000013 -0.145640 -0.014959 1.571352
 21 30.814270 -0.000023 0.000002 -2.738836 -0.178926 0.198522
 22 -4.250660 -0.770624 0.000001 0.002780 -0.102785 3.092819
 23 10.363422 0.000000 0.000000 0.015940 -0.015875 -0.079655
 24 10.363076 0.000000 -0.000000 0.001930 -0.033320 -0.047180
 25 10.363081 -0.000004 -0.000002 -0.051830 -0.046433 0.187508
 26 8.210358 -0.000006 -7.703991 0.000000 0.000000 0.067363
 27 8.210346 -0.000002 7.704017 0.000000 0.000000 0.062291
 28 1.854841 1.227791 -13.762345 2.745629 0.065584 2.101718
 29 10.456543 -0.000004 0.000004 0.025090 0.093028 -1.642093
 30 24.248093 0.000001 0.000007 0.036619 0.036687 1.234877
 31 26.336971 0.000019 0.000002 0.515386 -0.018389 0.661879
 32 1.854847 1.227798 13.762341 -2.632762 -0.314253 2.278879
 33 10.456542 -0.000008 0.000004 -0.105831 -0.060995 -0.699434
 34 24.248116 0.000002 -0.000004 -0.016649 -0.019608 0.532433
 35 26.336975 0.000000 0.000004 -0.156311 -0.135032 0.703771
time 16
  0 0.000000 0.000000 0.000000 0.000000 -0.000000 -1.570796
  1 0.000000 0.000000 0.000000 0.000000 -0.000000 0.000000
  2 -3.824336 -2.920335 38.707703 -1.531973 -0.248077 1.847558
  3 4.222169 -0.467508 0.000000 -0.009571 0.073873 -0.063422
  4 4.476987 -0.000002 -0.000000 0.104301 -0.020742 0.220100
  5 4.477083 0.000000 0.000002 0.073407 -0.155006 0.156303
  6 4.477077 -0.000004 -0.000002 -0.042131 -0.136974 0.003518
  7 5.413502 -7.700466 -0.000000 0.413034 -0.293607 -0.641037
  8 6.890240 0.000002 -0.000000 -0.235341 -0.006012 0.048032
  9 8.011925 0.000004 0.000005 -0.162387 0.228993 0.034029
 10 7.210720 -0.000002 -0.000000 -0.198664 0.230415 -0.151625
 11 8.581028 -0.304903 -0.000000 -0.029251 0.432174 0.640657
 12 22.523008 2.194031 6.355708 0.000000 -0.442636 0.000000
 13 22.523005 2.194038 -6.355709 0.000000 0.314712 0.000000
 14 -3.006533 7.804720 -11.355459 -0.139100 0.385114 0.201467
 15 10.384675 0.000008 0.000005 0.196938 0.117633 -0.423732
 16 22.550743 -0.000006 -0.000004 0.174842 -0.021045 0.949624
 17 30.814247 -0.000015 -0.000004 3.124390 0.009816 0.037673
 18 -3.013796 7.815494 11.355459 0.424624 -0.070324 1.061820
 19 10.374533 -0.000002 0.000007 -0.647906 -0.207382 -1.334921
 20 22.550726 -0.000027 -0.000013 -0.141902 -0.014547 1.559999
 21 30.814270 -0.000023 0.000002 -2.744204 -0.192359 0.182959
 22 -4.250660 -0.770624 0.000001 0.004135 -0.107311 -3.101898
 23 10.363422 0.000000 0.000000 0.011937 0.003731 -0.103708
 24 10.363076 0.000000 -0.000000 -0.002205 -0.001298 -0.079417
 25 10.363081 -0.000004 -0.000002 -0.043446 -0.000092 0.081327
 26 8.210358 -0.000006 -7.703991 0.000000 0.000000 -0.072084
 27 8.210346 -0.000002 7.704017 0.000000 0.000000 -0.081009
 28 1.854841 1.227791 -13.762345 2.714056 0.062204 2.030740
 29 10.456543 -0.000004 0.000004 0.021142 0.092334 -1.681995
 30 24.248093 0.000001 0.000007 0.037472 0.037111 1.257196
 31 26.336971 0.000019 0.000002 0.548057 -0.016523 0.607261
 32 1.854847 1.227798 13.762341 -2.641912 -0.312666 2.289908
 33 10.456542 -0.000008 0.000004 -0.107526 -0.058935 -0.671058
 34 24.248116 0.000002 -0.000004 -0.016312 -0.018757 0.509534
 35 26.336975 0.000000 0.000004 -0.148206 -0.135994 0.712757
time 17
  0 0.000000 0.000000 0.000000 0.000000 -0.000000 -1.570796
  1 0.000000 0.000000 0.000000 0.000000 -0.000000 0.000000
  2 -3.894650 -3.221126 38.594421 -1.533027 -0.244606 1.846503
  3 4.222169 -0.467508 0.000000 -0.009571 0.071518 -0.078235
  4 4.476987 -0.000002 -0.000000 0.094965 -0.019735 0.221387
  5 4.477083 0.000000 0.000002 0.066205 -0.142891 0.181099
  6 4.477077 -0.000004 -0.000002 -0.043054 -0.130021 0.024168
  7 5.413502 -7.700466 -0.000000 0.337246 -0.256430 -0.444545
  8 6.890240 0.000002 -0.000000 -0.191777 -0.035459 -0.062530
  9 8.011925 0.000004 0.000005 -0.136312 0.168446 -0.035457
 10 7.210720 -0.000002 -0.000000 -0.166162 0.191874 -0.183672
 11 8.581028 -0.304903 -0.000000 -0.003417 0.399634 0.643847
 12 22.523008 2.194031 6.355708 0.000000 -0.435579 0.000000
 13 22.523005 2.194038 -6.355709 0.000000 0.204454 0.000000
 14 -3.006533 7.804720 -11.355459 -0.022171 0.405782 0.378919
 15 10.384675 0.000008 0.000005 0.232422 0.105667 -0.644168
 16 22.550743 -0.000006 -0.000004 0.135100 -0.010685 1.218692
 17 30.814247 -0.000015 -0.000004 3.120546 0.118531 0.130067
 18 -3.013796 7.815494 11.355459 0.411132 -0.124955 1.004591
 19 10.374533 -0.000002 0.000007 -0.704665 -0.188213 -1.308132
 20 22.550726 -0.000027 -0.000013 -0.136673 -0.014115 1.542567
 21 30.814270 -0.000023 0.000002 -2.743607 -0.202586 0.181899
 22 -4.250660 -0.770624 0.000001 0.004962 -0.112013 -3.013225
 23 10.363422 0.000000 0.000000 0.007778 0.022379 -0.126726
 24 10.363076 0.000000 -0.000000 -0.007107 0.030246 -0.110724
 25 10.363081 -0.000004 -0.000002 -0.035627 0.046496 -0.024398
 26 8.210358 -0.000006 -7.703991 0.000000 0.000000 -0.214691
 27 8.210346 -0.000002 7.704017 0.000000 0.000000 -0.221427
 28 1.854841 1.227791 -13.762345 2.684066 0.054729 1.956965
 29 10.456543 -0.000004 0.000004 0.025876 0.092904 -1.634234
 30 24.248093 0.000001 0.000007 0.036508 0.036627 1.223984
 31 26.336971 0.000019 0.000002 0.573985 -0.004803 0.524974
 32 1.854847 1.227798 13.762341 -2.638637 -0.307604 2.277931
 33 10.456542 -0.000008 0.000004 -0.106204 -0.060549 -0.692655
 34 24.248116 0.000002 -0.000004 -0.016623 -0.019368 0.525934
 35 26.336975 0.000000 0.000004 -0.147391 -0.135715 0.705297
time 18
  0 0.000000 0.000000 0.000000 0.000000 -0.000000 -1.570796
  1 0.000000 0.000000 0.000000 0.000000 -0.000000 0.000000
  2 -3.961058 -3.521916 38.485043 -1.533123 -0.240179 1.846407
  3 4.222169 -0.467508 0.000000 -0.010098 0.066624 -0.087588
  4 4.476987 -0.000002 -0.000000 0.087019 -0.018622 0.222786
  5 4.477083 0.000000 0.000002 0.059062 -0.127496 0.198530
  6 4.477077 -0.000004 -0.000002 -0.040657 -0.115720 0.030288
  7 5.413502 -7.700466 -0.000000 0.240483 -0.206171 -0.187223
  8 6.890240 0.000002 -0.000000 -0.139824 -0.063520 -0.194758
  9 8.011925 0.000004 0.000005 -0.103203 0.105598 -0.116363
 10 7.210720 -0.000002 -0.000000 -0.129460 0.147101 -0.211910
 11 8.581028 -0.304903 -0.000000 0.021911 0.364944 0.645389
 12 22.523008 2.194031 6.355708 0.000000 -0.428583 0.000000
 13 22.523005 2.194038 -6.355709 0.000000 0.096918 0.000000
 14 -3.006533 7.804720 -11.355459 0.081086 0.386174 0.504660
 15 10.384675 0.000008 0.000005 0.267084 0.091028 -0.793625
 16 22.550743 -0.000006 -0.000004 0.097774 0.000737 1.366695
 17 30.814247 -0.000015 -0.000004 -3.137524 0.246587 0.237467
 18 -3.013796 7.815494 11.355459 0.398048 -0.163182 0.980537
 19 10.374533 -0.000002 0.000007 -0.727989 -0.182366 -1.305580
 20 22.550726 -0.000027 -0.000013 -0.135182 -0.014017 1.544614
 21 30.814270 -0.000023 0.000002 -2.742660 -0.213033 0.176962
 22 -4.250660 -0.770624 0.000001 0.005968 -0.116586 -2.932182
 23 10.363422 0.000000 0.000000 0.003631 0.039781 -0.148358
 24 10.363076 0.000000 -0.000000 -0.012596 0.060843 -0.140560
 25 10.363081 -0.000004 -0.000002 -0.027379 0.088939 -0.119921
 26 8.210358 -0.000006 -7.703991 0.000000 0.000000 -0.349687
 27 8.210346 -0.000002 7.704017 0.000000 0.000000 -0.358657
 28 1.854841 1.227791 -13.762345 2.667136 0.055814 1.927954
 29 10.456543 -0.000004 0.000004 0.036795 0.093420 -1.520996
 30 24.248093 0.000001 0.000007 0.033765 0.035578 1.149746
 31 26.336971 0.000019 0.000002 0.598739 0.006943 0.459752
 32 1.854847 1.227798 13.762341 -2.632391 -0.300080 2.258070
 33 10.456542 -0.000008 0.000004 -0.103830 -0.063249 -0.730135
 34 24.248116 0.000002 -0.000004 -0.017180 -0.020399 0.554417
 35 26.336975 0.000000 0.000004 -0.147820 -0.135125 0.692750
time 19
  0 0.000000 0.000000 0.000000 0.000000 -0.000000 -1.570796
  1 0.000000 0.000000 0.000000 0.000000 -0.000000 0.000000
  2 -4.031373 -3.826613 38.375664 -1.533219 -0.235711 1.846311
  3 4.222169 -0.467508 0.000000 -0.010446 0.059358 -0.092664
  4 4.476987 -0.000002 -0.000000 0.079049 -0.017486 0.224184
  5 4.477083 0.000000 0.000002 0.052123 -0.107886 0.211202
  6 4.477077 -0.000004 -0.000002 -0.036858 -0.098393 0.030926
  7 5.413502 -7.700466 -0.000000 0.144372 -0.153651 0.069913
  8 6.890240 0.000002 -0.000000 -0.084695 -0.086523 -0.330663
  9 8.011925 0.000004 0.000005 -0.067710 0.046664 -0.195505
 10 7.210720 -0.000002 -0.000000 -0.091303 0.100333 -0.235912
 11 8.581028 -0.304903 -0.000000 0.046276 0.329588 0.646756
 12 22.523008 2.194031 6.355708 0.000000 -0.422228 0.000000
 13 22.523005 2.194038 -6.355709 0.000000 -0.000968 0.000000
 14 -3.006533 7.804720 -11.355459 0.124656 0.350207 0.549297
 15 10.384675 0.000008 0.000005 0.281614 0.076112 -0.839445
 16 22.550743 -0.000006 -0.000004 0.075432 0.006017 1.372991
 17 30.814247 -0.000015 -0.000004 -3.108608 0.312950 0.321231
 18 -3.013796 7.815494 11.355459 0.383588 -0.187134 0.960302
 19 10.374533 -0.000002 0.000007 -0.733921 -0.180638 -1.306334
 20 22.550726 -0.000027 -0.000013 -0.134446 -0.014017 1.546785
 21 30.814270 -0.000023 0.000002 -2.749816 -0.224533 0.185190
 22 -4.250660 -0.770624 0.000001 0.008102 -0.120871 -2.866682
 23 10.363422 0.000000 0.000000 -0.000348 0.055876 -0.168428
 24 10.363076 0.000000 -0.000000 -0.018444 0.090073 -0.168977
 25 10.363081 -0.000004 -0.000002 -0.019979 0.126822 -0.204543
 26 8.210358 -0.000006 -7.703991 0.000000 0.000000 -0.464336
 27 8.210346 -0.000002 7.704017 0.000000 0.000000 -0.479205
 28 1.854841 1.227791 -13.762345 2.650383 0.057393 1.902105
 29 10.456543 -0.000004 0.000004 0.040778 0.093348 -1.478359
 30 24.248093 0.000001 0.000007 0.032356 0.034952 1.113219
 31 26.336971 0.000019 0.000002 0.618402 0.017008 0.425732
 32 1.854847 1.227798 13.762341 -2.623713 -0.289162 2.229809
 33 10.456542 -0.000008 0.000004 -0.100303 -0.066894 -0.782867
 34 24.248116 0.000002 -0.000004 -0.017983 -0.021765 0.594173
 35 26.336975 0.000000 0.000004 -0.148420 -0.134350 0.675739
time 20
  0 0.000000 0.000000 0.000000 0.000000 -0.000000 -1.570796
  1 0.000000 0.000000 0.000000 0.000000 -0.000000 0.000000
  2 -4.535295 -6.014180 37.578766 -1.533219 -0.231243 1.846216
  3 4.222169 -0.467508 0.000000 -0.010050 0.050348 -0.096037
  4 4.476987 -0.000002 -0.000000 0.071103 -0.016330 0.225561
  5 4.477083 0.000000 0.000002 0.045124 -0.084173 0.219132
  6 4.477077 -0.000004 -0.000002 -0.033202 -0.081368 0.032484
  7 5.413502 -7.700466 -0.000000 0.072904 -0.112057 0.263325
  8 6.890240 0.000002 -0.000000 -0.039166 -0.102808 -0.440713
  9 8.011925 0.000004 0.000005 -0.036461 -0.001582 -0.259773
 10 7.210720 -0.000002 -0.000000 -0.058499 0.059497 -0.255435
 11 8.581028 -0.304903 -0.000000 0.068757 0.298841 0.648088
 12 22.523008 2.194031 6.355708 0.000000 -0.411198 0.000000
 13 22.523005 2.194038 -6.355709 0.000000 -0.072477 0.000000
 14 -3.006533 7.804720 -11.355459 0.119284 0.344307 0.516746
 15 10.384675 0.000008 0.000005 0.277916 0.065249 -0.824838
 16 22.550743 -0.000006 -0.000004 0.067276 0.007280 1.314213
 17 30.814247 -0.000015 -0.000004 -3.107734 0.303546 0.405675
 18 -3.013796 7.815494 11.355459 0.369689 -0.177792 0.894296
 19 10.374533 -0.000002 0.000007 -0.729135 -0.166917 -1.267948
 20 22.550726 -0.000027 -0.000013 -0.128686 -0.014429 1.501994
 21 30.814270 -0.000023 0.000002 -2.784616 -0.244718 0.247528
 22 -4.250660 -0.770624 0.000001 0.010630 -0.125123 -2.816187
 23 10.363422 0.000000 0.000000 -0.004075 0.070845 -0.188211
 24 10.363076 0.000000 -0.000000 -0.023010 0.112244 -0.191509
 25 10.363081 -0.000004 -0.000002 -0.013552 0.150301 -0.256976
 26 8.210358 -0.000006 -7.703991 0.000000 0.000000 -0.541958
 27 8.210346 -0.000002 7.704017 0.000000 0.000000 -0.553025
 28 1.854841 1.227791 -13.762345 2.605442 0.048487 1.823525
 29 10.456543 -0.000004 0.000004 0.026523 0.093153 -1.626201
 30 24.248093 0.000001 0.000007 0.035767 0.036264 1.209894
 31 26.336971 0.000019 0.000002 0.652205 0.033406 0.402372
 32 1.854847 1.227798 13.762341 -2.592483 -0.239008 2.112025
 33 10.456542 -0.000008 0.000004 -0.083888 -0.079640 -1.000731
 34 24.248116 0.000002 -0.000004 -0.021585 -0.026738 0.756240
 35 26.336975 0.000000 0.000004 -0.148120 -0.131496 0.609388
time 21
  0 0.000000 0.000000 0.000000 0.000000 -0.000000 -1.570796
  1 0.000000 0.000000 0.000000 0.000000 -0.000000 0.000000
  2 -5.648610 -10.787764 35.840431 -1.533315 -0.226776 1.846120
  3 4.222169 -0.467508 0.000000 -0.009068 0.039930 -0.098260
  4 4.476987 -0.000002 -0.000000 0.063145 -0.015152 0.226937
  5 4.477083 0.000000 0.000002 0.038041 -0.057713 0.224631
  6 4.477077 -0.000004 -0.000002 -0.029571 -0.064436 0.034165
  7 5.413502 -7.700466 -0.000000 0.040393 -0.091616 0.349078
  8 6.890240 0.000002 -0.000000 -0.015137 -0.111735 -0.491305
  9 8.011925 0.000004 0.000005 -0.019698 -0.031823 -0.289234
 10 7.210720 -0.000002 -0.000000 -0.040298 0.034463 -0.267315
 11 8.581028 -0.304903 -0.000000 0.086898 0.280182 0.650296
 12 22.523008 2.194031 6.355708 0.000000 -0.384435 0.000000
 13 22.523005 2.194038 -6.355709 0.000000 -0.095254 0.000000
 14 -3.006533 7.804720 -11.355459 0.093023 0.372783 0.432278
 15 10.384675 0.000008 0.000005 0.269848 0.055829 -0.795791
 16 22.550743 -0.000006 -0.000004 0.062878 0.007596 1.240545
 17 30.814247 -0.000015 -0.000004 -3.133942 0.261289 0.524499
 18 -3.013796 7.815494 11.355459 0.353193 -0.131420 0.773740
 19 10.374533 -0.000002 0.000007 -0.710328 -0.135887 -1.171924
 20 22.550726 -0.000027 -0.000013 -0.115020 -0.014743 1.387722
 21 30.814270 -0.000023 0.000002 -2.847375 -0.274642 0.371449
 22 -4.250660 -0.770624 0.000001 0.014597 -0.129424 -2.800414
 23 10.363422 0.000000 0.000000 -0.006388 0.080888 -0.193779
 24 10.363076 0.000000 -0.000000 -0.024736 0.122719 -0.193445
 25 10.363081 -0.000004 -0.000002 -0.006609 0.157388 -0.272521
 26 8.210358 -0.000006 -7.703991 0.000000 0.000000 -0.568115
 27 8.210346 -0.000002 7.704017 0.000000 0.000000 -0.575778
 28 1.854841 1.227791 -13.762345 2.516087 0.035164 1.714413
 29 10.456543 -0.000004 0.000004 0.000370 0.087156 -1.903260
 30 24.248093 0.000001 0.000007 0.043033 0.038221 1.409994
 31 26.336971 0.000019 0.000002 0.730555 0.069092 0.384479
 32 1.854847 1.227798 13.762341 -2.548253 -0.126386 1.875165
 33 10.456542 -0.000008 0.000004 -0.044616 -0.092831 -1.436498
 34 24.248116 0.000002 -0.000004 -0.031015 -0.034420 1.074636
 35 26.336975 0.000000 0.000004 -0.148292 -0.126098 0.479513
time 22
  0 0.000000 0.000000 0.000000 0.000000 -0.000000 -1.570796
  1 0.000000 0.000000 0.000000 0.000000 -0.000000 0.000000
  2 -6.828333 -15.576971 34.098190 -1.533219 -0.222188 1.846216
  3 4.222169 -0.467508 0.000000 -0.007617 0.028511 -0.099686
  4 4.476987 -0.000002 -0.000000 0.055212 -0.013974 0.228313
  5 4.477083 0.000000 0.000002 0.030958 -0.029978 0.229877
  6 4.477077 -0.000004 -0.000002 -0.025988 -0.047823 0.035847
  7 5.413502 -7.700466 -0.000000 0.035236 -0.087334 0.338468
  8 6.890240 0.000002 -0.000000 -0.009144 -0.114702 -0.484626
  9 8.011925 0.000004 0.000005 -0.013071 -0.050578 -0.295256
 10 7.210720 -0.000002 -0.000000 -0.032804 0.020868 -0.273939
 11 8.581028 -0.304903 -0.000000 0.098885 0.275214 0.660110
 12 22.523008 2.194031 6.355708 0.000000 -0.344992 0.000000
 13 22.523005 2.194038 -6.355709 0.000000 -0.088297 0.000000
 14 -3.006533 7.804720 -11.355459 0.065730 0.410057 0.349183
 15 10.384675 0.000008 0.000005 0.262527 0.049104 -0.786183
 16 22.550743 -0.000006 -0.000004 0.059103 0.007682 1.196598
 17 30.814247 -0.000015 -0.000004 3.108447 0.216179 0.633116
 18 -3.013796 7.815494 11.355459 0.332166 -0.087663 0.653242
 19 10.374533 -0.000002 0.000007 -0.687745 -0.104791 -1.067203
 20 22.550726 -0.000027 -0.000013 -0.100619 -0.013781 1.263214
 21 30.814270 -0.000023 0.000002 -2.910800 -0.298938 0.498131
 22 -4.250660 -0.770624 0.000001 0.023634 -0.133934 -2.846070
 23 10.363422 0.000000 0.000000 -0.005621 0.081152 -0.148314
 24 10.363076 0.000000 -0.000000 -0.023789 0.122204 -0.155530
 25 10.363081 -0.000004 -0.000002 0.000446 0.157342 -0.266695
 26 8.210358 -0.000006 -7.703991 0.000000 0.000000 -0.529049
 27 8.210346 -0.000002 7.704017 0.000000 0.000000 -0.537121
 28 1.854841 1.227791 -13.762345 2.417411 0.046488 1.671048
 29 10.456543 -0.000004 0.000004 -0.019232 0.076977 -2.130169
 30 24.248093 0.000001 0.000007 0.050336 0.038826 1.608555
 31 26.336971 0.000019 0.000002 0.824696 0.105435 0.400494
 32 1.854847 1.227798 13.762341 -2.532182 -0.021288 1.670874
 33 10.456542 -0.000008 0.000004 -0.010160 -0.090354 -1.795336
 34 24.248116 0.000002 -0.000004 -0.040174 -0.038052 1.333679
 35 26.336975 0.000000 0.000004 -0.148592 -0.121352 0.361958
time 23
  0 0.000000 0.000000 0.000000 0.000000 -0.000000 -1.570796
  1 0.000000 0.000000 0.000000 0.000000 -0.000000 0.000000
  2 -7.593982 -18.174707 33.145035 -1.533507 -0.218758 1.844298
  3 4.222169 -0.467508 0.000000 -0.005868 0.016387 -0.100729
  4 4.476987 -0.000002 -0.000000 0.047278 -0.012774 0.229667
  5 4.477083 0.000000 0.000002 0.023959 -0.001547 0.235169
  6 4.477077 -0.000004 -0.000002 -0.022452 -0.031643 0.037467
  7 5.413502 -7.700466 -0.000000 0.035635 -0.086672 0.281247
  8 6.890240 0.000002 -0.000000 -0.008054 -0.115878 -0.459772
  9 8.011925 0.000004 0.000005 -0.009011 -0.065771 -0.295074
 10 7.210720 -0.000002 -0.000000 -0.026847 0.009234 -0.280107
 11 8.581028 -0.304903 -0.000000 0.105338 0.280096 0.685100
 12 22.523008 2.194031 6.355708 0.000000 -0.301548 0.000000
 13 22.523005 2.194038 -6.355709 0.000000 -0.078315 0.000000
 14 -3.006533 7.804720 -11.355459 0.056072 0.446659 0.320959
 15 10.384675 0.000008 0.000005 0.256812 0.051862 -0.838945
 16 22.550743 -0.000006 -0.000004 0.059919 0.008112 1.255073
 17 30.814247 -0.000015 -0.000004 3.051183 0.169628 0.664773
 18 -3.013796 7.815494 11.355459 0.315467 -0.090540 0.594018
 19 10.374533 -0.000002 0.000007 -0.675814 -0.092565 -1.019423
 20 22.550726 -0.000027 -0.000013 -0.094613 -0.012819 1.205271
 21 30.814270 -0.000023 0.000002 -2.944583 -0.310315 0.559855
 22 -4.250660 -0.770624 0.000001 0.038099 -0.138395 -2.950004
 23 10.363422 0.000000 0.000000 -0.003859 0.077353 -0.074110
 24 10.363076 0.000000 -0.000000 -0.021908 0.116631 -0.093070
 25 10.363081 -0.000004 -0.000002 0.007833 0.151102 -0.235633
 26 8.210358 -0.000006 -7.703991 0.000000 0.000000 -0.437228
 27 8.210346 -0.000002 7.704017 0.000000 0.000000 -0.445533
 28 1.854841 1.227791 -13.762345 2.373877 0.088209 1.717089
 29 10.456543 -0.000004 0.000004 -0.026115 0.071621 -2.219048
 30 24.248093 0.000001 0.000007 0.054785 0.038564 1.726188
 31 26.336971 0.000019 0.000002 0.870332 0.113687 0.450695
 32 1.854847 1.227798 13.762341 -2.535187 0.030481 1.573726
 33 10.456542 -0.000008 0.000004 0.004491 -0.085373 -1.955541
 34 24.248116 0.000002 -0.000004 -0.044630 -0.038999 1.447461
 35 26.336975 0.000000 0.000004 -0.146748 -0.116978 0.312676
time 24
  0 0.000000 0.000000 0.000000 0.000000 -0.000000 -1.570796
  1 0.000000 0.000000 0.000000 0.000000 -0.000000 0.000000
  2 -7.929930 -18.616127 32.949718 -1.534849 -0.218718 1.836150
  3 4.222169 -0.467508 0.000000 -0.003938 0.003967 -0.101772
  4 4.476987 -0.000002 -0.000000 0.039368 -0.011554 0.231043
  5 4.477083 0.000000 0.000002 0.017212 0.026980 0.240638
  6 4.477077 -0.000004 -0.000002 -0.019025 -0.016139 0.038915
  7 5.413502 -7.700466 -0.000000 0.035316 -0.085907 0.210460
  8 6.890240 0.000002 -0.000000 -0.006556 -0.117054 -0.434453
  9 8.011925 0.000004 0.000005 -0.006142 -0.077577 -0.289753
 10 7.210720 -0.000002 -0.000000 -0.021275 -0.001501 -0.286006
 11 8.581028 -0.304903 -0.000000 0.110344 0.287369 0.715138
 12 22.523008 2.194031 6.355708 0.000000 -0.257278 0.000000
 13 22.523005 2.194038 -6.355709 0.000000 -0.068181 0.000000
 14 -3.006533 7.804720 -11.355459 0.067412 0.476372 0.346848
 15 10.384675 0.000008 0.000005 0.252330 0.062491 -0.944970
 16 22.550743 -0.000006 -0.000004 0.065165 0.009002 1.392966
 17 30.814247 -0.000015 -0.000004 2.980947 0.122700 0.635372
 18 -3.013796 7.815494 11.355459 0.304215 -0.142032 0.593619
 19 10.374533 -0.000002 0.000007 -0.676757 -0.100738 -1.044994
 20 22.550726 -0.000027 -0.000013 -0.097330 -0.011681 1.231202
 21 30.814270 -0.000023 0.000002 -2.953704 -0.311514 0.554248
 22 -4.250660 -0.770624 0.000001 0.054482 -0.141283 -3.070070
 23 10.363422 0.000000 0.000000 -0.002637 0.073589 0.000315
 24 10.363076 0.000000 -0.000000 -0.020206 0.110495 -0.026610
 25 10.363081 -0.000004 -0.000002 0.013977 0.143153 -0.187764
 26 8.210358 -0.000006 -7.703991 0.000000 0.000000 -0.322613
 27 8.210346 -0.000002 7.704017 0.000000 0.000000 -0.331089
 28 1.854841 1.227791 -13.762345 2.392962 0.116853 1.781863
 29 10.456543 -0.000004 0.000004 -0.026377 0.071426 -2.222478
 30 24.248093 0.000001 0.000007 0.055786 0.038483 1.746849
 31 26.336971 0.000019 0.000002 0.855019 0.100285 0.513597
 32 1.854847 1.227798 13.762341 -2.543053 0.037294 1.566531
 33 10.456542 -0.000008 0.000004 0.005339 -0.084927 -1.965236
 34 24.248116 0.000002 -0.000004 -0.044902 -0.039094 1.452082
 35 26.336975 0.000000 0.000004 -0.145333 -0.110929 0.306742
time 25
  0 0.000000 0.000000 0.000000 0.000000 -0.000000 -1.570796
  1 0.000000 0.000000 0.000000 0.000000 -0.000000 0.000000
  2 -8.109623 -18.350494 32.965343 -1.536766 -0.219955 1.824838
  3 4.222169 -0.467508 0.000000 -0.001949 -0.008417 -0.103213
  4 4.476987 -0.000002 -0.000000 0.031446 -0.010333 0.232375
  5 4.477083 0.000000 0.000002 0.010824 0.055103 0.246552
  6 4.477077 -0.000004 -0.000002 -0.015729 -0.001406 0.040083
  7 5.413502 -7.700466 -0.000000 0.035289 -0.085414 0.121657
  8 6.890240 0.000002 -0.000000 -0.005225 -0.118074 -0.407016
  9 8.011925 0.000004 0.000005 -0.004741 -0.082913 -0.275347
 10 7.210720 -0.000002 -0.000000 -0.016279 -0.011140 -0.291236
 11 8.581028 -0.304903 -0.000000 0.115626 0.294061 0.744019
 12 22.523008 2.194031 6.355708 0.000000 -0.212794 0.000000
 13 22.523005 2.194038 -6.355709 0.000000 -0.057746 0.000000
 14 -3.006533 7.804720 -11.355459 0.084667 0.503117 0.384825
 15 10.384675 0.000008 0.000005 0.246242 0.073651 -1.051494
 16 22.550743 -0.000006 -0.000004 0.070474 0.009490 1.507131
 17 30.814247 -0.000015 -0.000004 2.910100 0.077935 0.601709
 18 -3.013796 7.815494 11.355459 0.292404 -0.204846 0.606387
 19 10.374533 -0.000002 0.000007 -0.680061 -0.114226 -1.090223
 20 22.550726 -0.000027 -0.000013 -0.102049 -0.010287 1.279219
 21 30.814270 -0.000023 0.000002 -2.958405 -0.310731 0.533386
 22 -4.250660 -0.770624 0.000001 0.069079 -0.142808 3.100910
 23 10.363422 0.000000 0.000000 -0.001690 0.069347 0.075488
 24 10.363076 0.000000 -0.000000 -0.018840 0.103915 0.042689
 25 10.363081 -0.000004 -0.000002 0.016833 0.138207 -0.119706
 26 8.210358 -0.000006 -7.703991 0.000000 0.000000 -0.204330
 27 8.210346 -0.000002 7.704017 0.000000 0.000000 -0.213187
 28 1.854841 1.227791 -13.762345 2.428141 0.126204 1.830094
 29 10.456543 -0.000004 0.000004 -0.025014 0.072814 -2.202723
 30 24.248093 0.000001 0.000007 0.054154 0.038483 1.701679
 31 26.336971 0.000019 0.000002 0.818084 0.084702 0.568492
 32 1.854847 1.227798 13.762341 -2.552879 0.033682 1.582558
 33 10.456542 -0.000008 0.000004 0.003508 -0.085651 -1.944900
 34 24.248116 0.000002 -0.000004 -0.044177 -0.038975 1.434057
 35 26.336975 0.000000 0.000004 -0.146233 -0.102677 0.314880
time 26
  0 0.000000 0.000000 0.000000 0.000000 -0.000000 -1.570796
  1 0.000000 0.000000 0.000000 0.000000 -0.000000 0.000000
  2 -8.246346 -17.948137 32.992687 -1.538683 -0.221151 1.812471
  3 4.222169 -0.467508 0.000000 -0.000007 -0.020411 -0.105421
  4 4.476987 -0.000002 -0.000000 0.023560 -0.009112 0.233729
  5 4.477083 0.000000 0.000002 0.004951 0.082176 0.253059
  6 4.477077 -0.000004 -0.000002 -0.012601 0.012313 0.040877
  7 5.413502 -7.700466 -0.000000 0.035342 -0.084990 0.026570
  8 6.890240 0.000002 -0.000000 -0.004063 -0.118962 -0.377903
  9 8.011925 0.000004 0.000005 -0.003811 -0.086316 -0.258294
 10 7.210720 -0.000002 -0.000000 -0.011886 -0.019562 -0.295339
 11 8.581028 -0.304903 -0.000000 0.120724 0.300378 0.771954
 12 22.523008 2.194031 6.355708 0.000000 -0.168830 0.000000
 13 22.523005 2.194038 -6.355709 0.000000 -0.047400 0.000000
 14 -3.006533 7.804720 -11.355459 0.104092 0.523715 0.426509
 15 10.384675 0.000008 0.000005 0.236755 0.081204 -1.115198
 16 22.550743 -0.000006 -0.000004 0.074040 0.009777 1.562337
 17 30.814247 -0.000015 -0.000004 2.841829 0.043578 0.584519
 18 -3.013796 7.815494 11.355459 0.283443 -0.267623 0.619440
 19 10.374533 -0.000002 0.000007 -0.682420 -0.127216 -1.133074
 20 22.550726 -0.000027 -0.000013 -0.106155 -0.006616 1.325313
 21 30.814270 -0.000023 0.000002 -2.965947 -0.305421 0.514085
 22 -4.250660 -0.770624 0.000001 0.075563 -0.144734 3.021199
 23 10.363422 0.000000 0.000000 -0.002685 0.066567 0.106142
 24 10.363076 0.000000 -0.000000 -0.018253 0.098115 0.108143
 25 10.363081 -0.000004 -0.000002 0.018582 0.134017 -0.045930
 26 8.210358 -0.000006 -7.703991 0.000000 0.000000 -0.104764
 27 8.210346 -0.000002 7.704017 0.000000 0.000000 -0.113460
 28 1.854841 1.227791 -13.762345 2.470531 0.115521 1.848948
 29 10.456543 -0.000004 0.000004 -0.019197 0.077191 -2.127477
 30 24.248093 0.000001 0.000007 0.049743 0.038846 1.592985
 31 26.336971 0.000019 0.000002 0.763182 0.070853 0.592736
 32 1.854847 1.227798 13.762341 -2.566451 0.026540 1.611724
 33 10.456542 -0.000008 0.000004 0.002049 -0.086180 -1.928899
 34 24.248116 0.000002 -0.000004 -0.043542 -0.038831 1.417302
 35 26.336975 0.000000 0.000004 -0.148077 -0.093494 0.329631
time 27
  0 0.000000 0.000000 0.000000 0.000000 -0.000000 -1.570796
  1 0.000000 0.000000 0.000000 0.000000 -0.000000 0.000000
  2 -8.351817 -17.444216 33.020031 -1.540696 -0.222507 1.798763
  3 4.222169 -0.467508 0.000000 0.001779 -0.031700 -0.108871
  4 4.476987 -0.000002 -0.000000 0.015663 -0.007891 0.235061
  5 4.477083 0.000000 0.000002 -0.000274 0.107812 0.260544
  6 4.477077 -0.000004 -0.000002 -0.009665 0.024922 0.041204
  7 5.413502 -7.700466 -0.000000 0.035316 -0.084531 -0.063695
  8 6.890240 0.000002 -0.000000 -0.003032 -0.119773 -0.347325
  9 8.011925 0.000004 0.000005 -0.002907 -0.089926 -0.241422
 10 7.210720 -0.000002 -0.000000 -0.008126 -0.026712 -0.297994
 11 8.581028 -0.304903 -0.000000 0.125523 0.306319 0.798732
 12 22.523008 2.194031 6.355708 0.000000 -0.125691 0.000000
 13 22.523005 2.194038 -6.355709 0.000000 -0.037448 0.000000
 14 -3.006533 7.804720 -11.355459 0.129594 0.521312 0.484744
 15 10.384675 0.000008 0.000005 0.225923 0.083835 -1.128305
 16 22.550743 -0.000006 -0.000004 0.075448 0.009748 1.552107
 17 30.814247 -0.000015 -0.000004 2.773734 0.011352 0.572558
 18 -3.013796 7.815494 11.355459 0.287465 -0.337350 0.636597
 19 10.374533 -0.000002 0.000007 -0.684847 -0.140240 -1.175925
 20 22.550726 -0.000027 -0.000013 -0.108872 0.005182 1.374570
 21 30.814270 -0.000023 0.000002 -2.982119 -0.282226 0.492915
 22 -4.250660 -0.770624 0.000001 0.074664 -0.146354 2.980844
 23 10.363422 0.000000 0.000000 -0.005213 0.064613 0.102335
 24 10.363076 0.000000 -0.000000 -0.018900 0.096736 0.150213
 25 10.363081 -0.000004 -0.000002 0.018865 0.130027 0.034075
 26 8.210358 -0.000006 -7.703991 0.000000 0.000000 -0.011312
 27 8.210346 -0.000002 7.704017 0.000000 0.000000 -0.019735
 28 1.854841 1.227791 -13.762345 2.520836 0.119863 1.895901
 29 10.456543 -0.000004 0.000004 -0.004172 0.085110 -1.954711
 30 24.248093 0.000001 0.000007 0.043848 0.038544 1.437819
 31 26.336971 0.000019 0.000002 0.702190 0.057714 0.609028
 32 1.854847 1.227798 13.762341 -2.581408 0.018441 1.645327
 33 10.456542 -0.000008 0.000004 0.000286 -0.086820 -1.909351
 34 24.248116 0.000002 -0.000004 -0.042855 -0.038675 1.398973
 35 26.336975 0.000000 0.000004 -0.150136 -0.084033 0.345512
time 28
  0 0.000000 0.000000 0.000000 0.000000 -0.000000 -1.570796
  1 0.000000 0.000000 0.000000 0.000000 -0.000000 0.000000
  2 -8.422132 -16.889511 33.051285 -1.542901 -0.223943 1.783808
  3 4.222169 -0.467508 0.000000 0.003289 -0.041710 -0.113226
  4 4.476987 -0.000002 -0.000000 0.007825 -0.006649 0.236393
  5 4.477083 0.000000 0.000002 -0.004660 0.130814 0.268162
  6 4.477077 -0.000004 -0.000002 -0.006992 0.036179 0.040940
  7 5.413502 -7.700466 -0.000000 0.035129 -0.083936 -0.135883
  8 6.890240 0.000002 -0.000000 -0.002121 -0.120531 -0.315815
  9 8.011925 0.000004 0.000005 -0.002069 -0.093521 -0.224550
 10 7.210720 -0.000002 -0.000000 -0.005051 -0.032503 -0.298798
 11 8.581028 -0.304903 -0.000000 0.129794 0.311816 0.823793
 12 22.523008 2.194031 6.355708 0.000000 -0.084262 0.000000
 13 22.523005 2.194038 -6.355709 0.000000 -0.028253 0.000000
 14 -3.006533 7.804720 -11.355459 0.155910 0.512232 0.546481
 15 10.384675 0.000008 0.000005 0.215539 0.082965 -1.094871
 16 22.550743 -0.000006 -0.000004 0.074872 0.009891 1.478136
 17 30.814247 -0.000015 -0.000004 2.708739 -0.019212 0.564715
 18 -3.013796 7.815494 11.355459 0.293778 -0.409244 0.654495
 19 10.374533 -0.000002 0.000007 -0.681004 -0.153595 -1.219936
 20 22.550726 -0.000027 -0.000013 -0.110628 0.019062 1.424572
 21 30.814270 -0.000023 0.000002 -3.000887 -0.251863 0.472053
 22 -4.250660 -0.770624 0.000001 0.072639 -0.147815 2.947787
 23 10.363422 0.000000 0.000000 -0.008233 0.062803 0.091310
 24 10.363076 0.000000 -0.000000 -0.019858 0.096617 0.184308
 25 10.363081 -0.000004 -0.000002 0.013534 0.128224 0.144069
 26 8.210358 -0.000006 -7.703991 0.000000 0.000000 0.081290
 27 8.210346 -0.000002 7.704017 0.000000 0.000000 0.073040
 28 1.854841 1.227791 -13.762345 2.561732 0.146854 1.983483
 29 10.456543 -0.000004 0.000004 0.018661 0.092014 -1.710131
 30 24.248093 0.000001 0.000007 0.037806 0.037192 1.272707
 31 26.336971 0.000019 0.000002 0.644548 0.046677 0.628468
 32 1.854847 1.227798 13.762341 -2.596467 0.010944 1.678327
 33 10.456542 -0.000008 0.000004 -0.002834 -0.088016 -1.874985
 34 24.248116 0.000002 -0.000004 -0.042117 -0.038495 1.379172
 35 26.336975 0.000000 0.000004 -0.152237 -0.074385 0.361732
time 29
  0 0.000000 0.000000 0.000000 0.000000 -0.000000 -1.570796
  1 0.000000 0.000000 0.000000 0.000000 -0.000000 0.000000
  2 -8.469008 -16.315275 33.074722 -1.545297 -0.225539 1.767511
  3 4.222169 -0.467508 0.000000 0.004403 -0.049404 -0.116277
  4 4.476987 -0.000002 -0.000000 -0.000013 -0.005428 0.237703
  5 4.477083 0.000000 0.000002 -0.008040 0.148922 0.272208
  6 4.477077 -0.000004 -0.000002 -0.004607 0.045951 0.039990
  7 5.413502 -7.700466 -0.000000 0.034957 -0.083308 -0.199980
  8 6.890240 0.000002 -0.000000 -0.001330 -0.121354 -0.283329
  9 8.011925 0.000004 0.000005 -0.001297 -0.097083 -0.207705
 10 7.210720 -0.000002 -0.000000 -0.002635 -0.036846 -0.297377
 11 8.581028 -0.304903 -0.000000 0.133377 0.316852 0.846821
 12 22.523008 2.194031 6.355708 0.000000 -0.044606 0.000000
 13 22.523005 2.194038 -6.355709 0.000000 -0.020176 0.000000
 14 -3.006533 7.804720 -11.355459 0.180001 0.500185 0.604511
 15 10.384675 0.000008 0.000005 0.205193 0.081926 -1.053272
 16 22.550743 -0.000006 -0.000004 0.073945 0.010035 1.393087
 17 30.814247 -0.000015 -0.000004 2.655494 -0.037268 0.569263
 18 -3.013796 7.815494 11.355459 0.297902 -0.475384 0.673192
 19 10.374533 -0.000002 0.000007 -0.648243 -0.167349 -1.270673
 20 22.550726 -0.000027 -0.000013 -0.111731 0.032803 1.474388
 21 30.814270 -0.000023 0.000002 -3.020462 -0.207186 0.455374
 22 -4.250660 -0.770624 0.000001 0.070421 -0.149307 2.917367
 23 10.363422 0.000000 0.000000 -0.011649 0.061413 0.072429
 24 10.363076 0.000000 -0.000000 -0.020865 0.096461 0.216570
 25 10.363081 -0.000004 -0.000002 0.006898 0.127562 0.260989
 26 8.210358 -0.000006 -7.703991 0.000000 0.000000 0.171990
 27 8.210346 -0.000002 7.704017 0.000000 0.000000 0.163883
 28 1.854841 1.227791 -13.762345 2.602935 0.174216 2.079031
 29 10.456543 -0.000004 0.000004 0.044202 0.093010 -1.441322
 30 24.248093 0.000001 0.000007 0.031392 0.034468 1.088354
 31 26.336971 0.000019 0.000002 0.600348 0.041447 0.656633
 32 1.854847 1.227798 13.762341 -2.611795 0.003967 1.711284
 33 10.456542 -0.000008 0.000004 -0.006327 -0.089213 -1.837387
 34 24.248116 0.000002 -0.000004 -0.041327 -0.038292 1.357898
 35 26.336975 0.000000 0.000004 -0.154467 -0.064489 0.378405
time 30
  0 0.000000 0.000000 0.000000 0.000000 -0.000000 -1.570796
  1 0.000000 0.000000 0.000000 0.000000 -0.000000 0.000000
  2 -8.492447 -15.764477 33.094254 -1.547694 -0.227174 1.750063
  3 4.222169 -0.467508 0.000000 0.004918 -0.053686 -0.115189
  4 4.476987 -0.000002 -0.000000 -0.007983 -0.004164 0.239101
  5 4.477083 0.000000 0.000002 -0.010365 0.159422 0.267969
  6 4.477077 -0.000004 -0.000002 -0.002522 0.054126 0.038261
  7 5.413502 -7.700466 -0.000000 0.034372 -0.080283 -0.234580
  8 6.890240 0.000002 -0.000000 -0.000551 -0.121276 -0.254077
  9 8.011925 0.000004 0.000005 -0.000576 -0.100710 -0.190963
 10 7.210720 -0.000002 -0.000000 -0.000906 -0.039706 -0.293381
 11 8.581028 -0.304903 -0.000000 0.136178 0.321735 0.867991
 12 22.523008 2.194031 6.355708 0.000000 -0.011274 0.000000
 13 22.523005 2.194038 -6.355709 0.000000 -0.013491 0.000000
 14 -3.006533 7.804720 -11.355459 0.195628 0.474146 0.645783
 15 10.384675 0.000008 0.000005 0.195108 0.081798 -1.016505
 16 22.550743 -0.000006 -0.000004 0.073305 0.010121 1.313668
 17 30.814247 -0.000015 -0.000004 2.607360 -0.050842 0.576032
 18 -3.013796 7.815494 11.355459 0.297139 -0.509649 0.696676
 19 10.374533 -0.000002 0.000007 -0.609685 -0.179409 -1.323266
 20 22.550726 -0.000027 -0.000013 -0.112160 0.046879 1.524328
 21 30.814270 -0.000023 0.000002 -3.041124 -0.160135 0.438639
 22 -4.250660 -0.770624 0.000001 0.065903 -0.150575 2.906920
 23 10.363422 0.000000 0.000000 -0.015963 0.061030 0.027976
 24 10.363076 0.000000 -0.000000 -0.021920 0.096245 0.246587
 25 10.363081 -0.000004 -0.000002 0.000311 0.127654 0.378258
 26 8.210358 -0.000006 -7.703991 0.000000 0.000000 0.261162
 27 8.210346 -0.000002 7.704017 0.000000 0.000000 0.253234
 28 1.854841 1.227791 -13.762345 2.643039 0.197358 2.170445
 29 10.456543 -0.000004 0.000004 0.065953 0.087761 -1.206293
 30 24.248093 0.000001 0.000007 0.025869 0.030755 0.910454
 31 26.336971 0.000019 0.000002 0.560890 0.039319 0.683804
 32 1.854847 1.227798 13.762341 -2.627461 -0.002518 1.744457
 33 10.456542 -0.000008 0.000004 -0.009821 -0.090243 -1.799907
 34 24.248116 0.000002 -0.000004 -0.040472 -0.038088 1.334999
 35 26.336975 0.000000 0.000004 -0.156397 -0.054190 0.395416
time 31
  0 0.000000 0.000000 0.000000 0.000000 -0.000000 -1.570796
  1 0.000000 0.000000 0.000000 0.000000 -0.000000 0.000000
  2 -8.422132 -15.260555 33.086441 -1.550761 -0.229249 1.728302
  3 4.222169 -0.467508 0.000000 0.004679 -0.053297 -0.107123
  4 4.476987 -0.000002 -0.000000 -0.014611 -0.003265 0.239611
  5 4.477083 0.000000 0.000002 -0.011432 0.159616 0.251413
  6 4.477077 -0.000004 -0.000002 -0.000724 0.060872 0.036439
  7 5.413502 -7.700466 -0.000000 0.030251 -0.066520 -0.238407
  8 6.890240 0.000002 -0.000000 0.000240 -0.114858 -0.252168
  9 8.011925 0.000004 0.000005 0.000013 -0.103362 -0.171885
 10 7.210720 -0.000002 -0.000000 0.000082 -0.041171 -0.288340
 11 8.581028 -0.304903 -0.000000 0.137051 0.323510 0.883378
 12 22.523008 2.194031 6.355708 0.000000 -0.006660 0.000000
 13 22.523005 2.194038 -6.355709 0.000000 -0.008470 0.000000
 14 -3.006533 7.804720 -11.355459 0.210169 0.444504 0.686918
 15 10.384675 0.000008 0.000005 0.186219 0.087124 -1.024114
 16 22.550743 -0.000006 -0.000004 0.075448 0.010580 1.285097
 17 30.814247 -0.000015 -0.000004 2.583511 -0.045544 0.575566
 18 -3.013796 7.815494 11.355459 0.293218 -0.534200 0.726544
 19 10.374533 -0.000002 0.000007 -0.565868 -0.189210 -1.378584
 20 22.550726 -0.000027 -0.000013 -0.111997 0.058147 1.575695
 21 30.814270 -0.000023 0.000002 -3.059401 -0.109684 0.421346
 22 -4.250660 -0.770624 0.000001 0.061061 -0.151843 2.899648
 23 10.363422 0.000000 0.000000 -0.020230 0.060622 -0.020041
 24 10.363076 0.000000 -0.000000 -0.023046 0.095826 0.272990
 25 10.363081 -0.000004 -0.000002 -0.006325 0.128317 0.490613
 26 8.210358 -0.000006 -7.703991 0.000000 0.000000 0.334163
 27 8.210346 -0.000002 7.704017 0.000000 0.000000 0.326342
 28 1.854841 1.227791 -13.762345 2.652713 0.216701 2.214722
 29 10.456543 -0.000004 0.000004 0.075876 0.083633 -1.092665
 30 24.248093 0.000001 0.000007 0.023718 0.028394 0.825264
 31 26.336971 0.000019 0.000002 0.539400 0.044916 0.690707
 32 1.854847 1.227798 13.762341 -2.643364 -0.008319 1.777328
 33 10.456542 -0.000008 0.000004 -0.013348 -0.091189 -1.762742
 34 24.248116 0.000002 -0.000004 -0.039539 -0.037860 1.310882
 35 26.336975 0.000000 0.000004 -0.162400 -0.044418 0.415988
time 32
  0 0.000000 0.000000 0.000000 0.000000 -0.000000 -1.570796
  1 0.000000 0.000000 0.000000 0.000000 -0.000000 0.000000
  2 -7.773675 -14.729290 32.945808 -1.556609 -0.233357 1.684013
  3 4.222169 -0.467508 0.000000 0.003588 -0.047012 -0.089060
  4 4.476987 -0.000002 -0.000000 -0.009421 -0.005364 0.231998
  5 4.477083 0.000000 0.000002 -0.012175 0.142413 0.205288
  6 4.477077 -0.000004 -0.000002 -0.001851 0.051326 0.007847
  7 5.413502 -7.700466 -0.000000 0.025653 -0.051364 -0.239309
  8 6.890240 0.000002 -0.000000 0.001198 -0.104481 -0.256031
  9 8.011925 0.000004 0.000005 -0.001375 -0.092562 -0.121295
 10 7.210720 -0.000002 -0.000000 -0.000357 -0.036793 -0.239237
 11 8.581028 -0.304903 -0.000000 0.115832 0.278065 0.850361
 12 22.523008 2.194031 6.355708 0.000000 -0.005499 0.000000
 13 22.523005 2.194038 -6.355709 0.000000 -0.004931 0.000000
 14 -3.006533 7.804720 -11.355459 0.240935 0.400694 0.768228
 15 10.384675 0.000008 0.000005 0.168925 0.105900 -1.122141
 16 22.550743 -0.000006 -0.000004 0.083604 0.011412 1.353075
 17 30.814247 -0.000015 -0.000004 2.563331 -0.003632 0.555977
 18 -3.013796 7.815494 11.355459 0.270002 -0.512714 0.817174
 19 10.374533 -0.000002 0.000007 -0.466101 -0.193827 -1.460227
 20 22.550726 -0.000027 -0.000013 -0.113202 0.044209 1.643563
 21 30.814270 -0.000023 0.000002 -3.051999 -0.019694 0.406536
 22 -4.250660 -0.770624 0.000001 0.056244 -0.153143 2.891505
 23 10.363422 0.000000 0.000000 -0.024389 0.060023 -0.067750
 24 10.363076 0.000000 -0.000000 -0.024269 0.095322 0.296039
 25 10.363081 -0.000004 -0.000002 -0.014562 0.128040 0.564417
 26 8.210358 -0.000006 -7.703991 0.000000 0.000000 0.384167
 27 8.210346 -0.000002 7.704017 0.000000 0.000000 0.376222
 28 1.854841 1.227791 -13.762345 2.642071 0.218181 2.198970
 29 10.456543 -0.000004 0.000004 0.074199 0.084683 -1.115677
 30 24.248093 0.000001 0.000007 0.024200 0.028637 0.842669
 31 26.336971 0.000019 0.000002 0.518692 0.051538 0.693082
 32 1.854847 1.227798 13.762341 -2.658524 -0.014694 1.812396
 33 10.456542 -0.000008 0.000004 -0.017112 -0.091996 -1.723292
 34 24.248116 0.000002 -0.000004 -0.038425 -0.037560 1.282348
 35 26.336975 0.000000 0.000004 -0.201338 -0.041130 0.460976
time 33
  0 0.000000 0.000000 0.000000 0.000000 -0.000000 -1.570796
  1 0.000000 0.000000 0.000000 0.000000 -0.000000 0.000000
  2 -6.312693 -14.135521 32.633301 -1.561785 -0.237267 1.644612
  3 4.222169 -0.467508 0.000000 0.001910 -0.034703 -0.060356
  4 4.476987 -0.000002 -0.000000 -0.003261 -0.007570 0.223607
  5 4.477083 0.000000 0.000002 -0.012606 0.111382 0.130883
  6 4.477077 -0.000004 -0.000002 -0.003924 0.033210 -0.036442
  7 5.413502 -7.700466 -0.000000 0.021094 -0.036395 -0.240492
  8 6.890240 0.000002 -0.000000 0.002253 -0.063258 -0.284260
  9 8.011925 0.000004 0.000005 -0.003654 -0.075916 -0.060713
 10 7.210720 -0.000002 -0.000000 -0.001098 -0.026783 -0.139638
 11 8.581028 -0.304903 -0.000000 0.081892 0.203529 0.795122
 12 22.523008 2.194031 6.355708 0.000000 -0.004125 0.000000
 13 22.523005 2.194038 -6.355709 0.000000 -0.002601 0.000000
 14 -3.006533 7.804720 -11.355459 0.297636 0.337877 0.919240
 15 10.384675 0.000008 0.000005 0.133889 0.138404 -1.295146
 16 22.550743 -0.000006 -0.000004 0.096318 0.013163 1.486671
 17 30.814247 -0.000015 -0.000004 2.536905 0.065145 0.516083
 18 -3.013796 7.815494 11.355459 0.223162 -0.451170 0.995300
 19 10.374533 -0.000002 0.000007 -0.321170 -0.198844 -1.561702
 20 22.550726 -0.000027 -0.000013 -0.115633 0.027974 1.712859
 21 30.814270 -0.000023 0.000002 -3.040703 0.073159 0.393288
 22 -4.250660 -0.770624 0.000001 0.051114 -0.154587 2.891915
 23 10.363422 0.000000 0.000000 -0.027888 0.059352 -0.118694
 24 10.363076 0.000000 -0.000000 -0.025443 0.095059 0.305485
 25 10.363081 -0.000004 -0.000002 -0.021789 0.127454 0.586163
 26 8.210358 -0.000006 -7.703991 0.000000 0.000000 0.408320
 27 8.210346 -0.000002 7.704017 0.000000 0.000000 0.399925
 28 1.854841 1.227791 -13.762345 2.632266 0.203822 2.160227
 29 10.456543 -0.000004 0.000004 0.067700 0.087369 -1.190098
 30 24.248093 0.000001 0.000007 0.025757 0.030089 0.897430
 31 26.336971 0.000019 0.000002 0.480931 0.057819 0.671544
 32 1.854847 1.227798 13.762341 -2.662980 -0.036009 1.872882
 33 10.456542 -0.000008 0.000004 -0.023420 -0.092747 -1.657870
 34 24.248116 0.000002 -0.000004 -0.036482 -0.036662 1.228122
 35 26.336975 0.000000 0.000004 -0.237403 -0.037500 0.501385
time 34
  0 0.000000 0.000000 0.000000 0.000000 -0.000000 -1.570796
  1 0.000000 0.000000 0.000000 0.000000 -0.000000 0.000000
  2 -4.527482 -13.561285 32.250477 -1.565908 -0.240538 1.612594
  3 4.222169 -0.467508 0.000000 0.000244 -0.019725 -0.026867
  4 4.476987 -0.000002 -0.000000 0.002827 -0.009583 0.215217
  5 4.477083 0.000000 0.000002 -0.010892 0.078186 0.052447
  6 4.477077 -0.000004 -0.000002 -0.005422 0.013685 -0.083083
  7 5.413502 -7.700466 -0.000000 0.016495 -0.021341 -0.241767
  8 6.890240 0.000002 -0.000000 0.002301 -0.027617 -0.308811
  9 8.011925 0.000004 0.000005 -0.005658 -0.056729 0.002829
 10 7.210720 -0.000002 -0.000000 -0.001235 -0.016172 -0.033200
 11 8.581028 -0.304903 -0.000000 0.050317 0.123188 0.739778
 12 22.523008 2.194031 6.355708 0.000000 -0.002750 0.000000
 13 22.523005 2.194038 -6.355709 0.000000 -0.001180 0.000000
 14 -3.006533 7.804720 -11.355459 0.356725 0.260963 1.086322
 15 10.384675 0.000008 0.000005 0.092280 0.165264 -1.473927
 16 22.550743 -0.000006 -0.000004 0.109336 0.013335 1.623233
 17 30.814247 -0.000015 -0.000004 2.506854 0.134832 0.472500
 18 -3.013796 7.815494 11.355459 0.188185 -0.381032 1.170291
 19 10.374533 -0.000002 0.000007 -0.174418 -0.190505 -1.662654
 20 22.550726 -0.000027 -0.000013 -0.119106 0.012132 1.780789
 21 30.814270 -0.000023 0.000002 -2.981978 0.152335 0.389215
 22 -4.250660 -0.770624 0.000001 0.039345 -0.157508 3.050620
 23 10.363422 0.000000 0.000000 -0.018744 0.060946 -0.242500
 24 10.363076 0.000000 -0.000000 -0.026186 0.095466 0.142367
 25 10.363081 -0.000004 -0.000002 -0.028597 0.127670 0.438879
 26 8.210358 -0.000006 -7.703991 0.000000 0.000000 0.341840
 27 8.210346 -0.000002 7.704017 0.000000 0.000000 0.334107
 28 1.854841 1.227791 -13.762345 2.623295 0.188131 2.120511
 29 10.456543 -0.000004 0.000004 0.060747 0.089612 -1.267254
 30 24.248093 0.000001 0.000007 0.027426 0.031482 0.954145
 31 26.336971 0.000019 0.000002 0.441603 0.063232 0.647907
 32 1.854847 1.227798 13.762341 -2.667876 -0.057406 1.932851
 33 10.456542 -0.000008 0.000004 -0.029965 -0.093081 -1.590122
 34 24.248116 0.000002 -0.000004 -0.034863 -0.036002 1.181615
 35 26.336975 0.000000 0.000004 -0.267035 -0.033561 0.534560
time 35
  0 0.000000 0.000000 0.000000 0.000000 -0.000000 -1.570796
  1 0.000000 0.000000 0.000000 0.000000 -0.000000 0.000000
  2 -3.019623 -13.135490 31.930155 -1.568975 -0.243051 1.588148
  3 4.222169 -0.467508 0.000000 -0.001038 -0.006693 0.003156
  4 4.476987 -0.000002 -0.000000 0.008975 -0.011489 0.206870
  5 4.477083 0.000000 0.000002 -0.007225 0.046380 -0.022388
  6 4.477077 -0.000004 -0.000002 -0.006117 -0.003999 -0.124118
  7 5.413502 -7.700466 -0.000000 0.011909 -0.006389 -0.243074
  8 6.890240 0.000002 -0.000000 0.002025 -0.000889 -0.327358
  9 8.011925 0.000004 0.000005 -0.006732 -0.038006 0.063464
 10 7.210720 -0.000002 -0.000000 -0.000522 -0.005950 0.068491
 11 8.581028 -0.304903 -0.000000 0.023978 0.044657 0.688886
 12 22.523008 2.194031 6.355708 0.000000 -0.001375 0.000000
 13 22.523005 2.194038 -6.355709 0.000000 -0.000423 0.000000
 14 -3.006533 7.804720 -11.355459 0.400838 0.177054 1.243721
 15 10.384675 0.000008 0.000005 0.050148 0.184677 -1.619163
 16 22.550743 -0.000006 -0.000004 0.118196 0.013995 1.723294
 17 30.814247 -0.000015 -0.000004 2.474095 0.201822 0.427162
 18 -3.013796 7.815494 11.355459 0.149848 -0.317284 1.308745
 19 10.374533 -0.000002 0.000007 -0.063664 -0.190107 -1.714899
 20 22.550726 -0.000027 -0.000013 -0.120944 -0.000766 1.806349
 21 30.814270 -0.000023 0.000002 -2.907783 0.189525 0.392785
 22 -4.250660 -0.770624 0.000001 0.024077 -0.160958 -2.940043
 23 10.363422 0.000000 0.000000 -0.007011 0.063391 -0.374955
 24 10.363076 0.000000 -0.000000 -0.026989 0.094939 -0.157801
 25 10.363081 -0.000004 -0.000002 -0.032488 0.127562 0.166218
 26 8.210358 -0.000006 -7.703991 0.000000 0.000000 0.254402
 27 8.210346 -0.000002 7.704017 0.000000 0.000000 0.247198
 28 1.854841 1.227791 -13.762345 2.615160 0.172439 2.081829
 29 10.456543 -0.000004 0.000004 0.053776 0.091284 -1.342977
 30 24.248093 0.000001 0.000007 0.029168 0.032793 1.009853
 31 26.336971 0.000019 0.000002 0.402798 0.067673 0.624547
 32 1.854847 1.227798 13.762341 -2.672670 -0.074973 1.983040
 33 10.456542 -0.000008 0.000004 -0.036443 -0.092998 -1.523596
 34 24.248116 0.000002 -0.000004 -0.033593 -0.035511 1.146074
 35 26.336975 0.000000 0.000004 -0.290149 -0.030024 0.560388
time 36
  0 0.000000 0.000000 0.000000 0.000000 -0.000000 -1.570796
  1 0.000000 0.000000 0.000000 0.000000 -0.000000 0.000000
  2 -2.363353 -12.959703 31.785618 -1.570988 -0.244686 1.570988
  3 4.222169 -0.467508 0.000000 -0.002069 0.000018 0.022093
  4 4.476987 -0.000002 -0.000000 0.015327 -0.013331 0.198502
  5 4.477083 0.000000 0.000002 -0.004349 0.026123 -0.067772
  6 4.477077 -0.000004 -0.000002 -0.006321 -0.017097 -0.152773
  7 5.413502 -7.700466 -0.000000 0.007297 0.008547 -0.244474
  8 6.890240 0.000002 -0.000000 0.001953 0.017148 -0.340157
  9 8.011925 0.000004 0.000005 -0.006810 -0.024538 0.104449
 10 7.210720 -0.000002 -0.000000 0.000000 0.000000 0.130654
 11 8.581028 -0.304903 -0.000000 0.007192 -0.002445 0.657761
 12 22.523008 2.194031 6.355708 0.000000 -0.000000 0.000000
 13 22.523005 2.194038 -6.355709 0.000000 -0.000000 0.000000
 14 -3.006533 7.804720 -11.355459 0.417062 0.139568 1.305664
 15 10.384675 0.000008 0.000005 0.030987 0.190809 -1.678201
 16 22.550743 -0.000006 -0.000004 0.121603 0.013421 1.761793
 17 30.814247 -0.000015 -0.000004 2.464267 0.225740 0.405174
 18 -3.013796 7.815494 11.355459 0.129381 -0.291650 1.369678
 19 10.374533 -0.000002 0.000007 -0.019780 -0.191668 -1.738151
 20 22.550726 -0.000027 -0.000013 -0.123048 -0.013506 1.830791
 21 30.814270 -0.000023 0.000002 -2.870423 0.196621 0.398252
 22 -4.250660 -0.770624 0.000001 0.016515 -0.162675 -2.777702
 23 10.363422 0.000000 0.000000 0.002661 0.066003 -0.470131
 24 10.363076 0.000000 -0.000000 -0.026810 0.095059 -0.325023
 25 10.363081 -0.000004 -0.000002 -0.034384 0.127470 0.014423
 26 8.210358 -0.000006 -7.703991 0.000000 0.000000 0.177086
 27 8.210346 -0.000002 7.704017 0.000000 0.000000 0.169444
 28 1.854841 1.227791 -13.762345 2.614544 0.166567 2.068388
 29 10.456543 -0.000004 0.000004 0.051033 0.091640 -1.369420
 30 24.248093 0.000001 0.000007 0.029835 0.033116 1.029271
 31 26.336971 0.000019 0.000002 0.386223 0.069828 0.616539
 32 1.854847 1.227798 13.762341 -2.675642 -0.086465 2.016859
 33 10.456542 -0.000008 0.000004 -0.038783 -0.093415 -1.495575
 34 24.248116 0.000002 -0.000004 -0.032583 -0.035020 1.121144
 35 26.336975 0.000000 0.000004 -0.307002 -0.027418 0.579152
end
