version 1
nodes
  0 "Chaurus" -1
  1 "NPC Root [Root]" 0
  2 "Pelvis [Pelv]" 1
  3 "Spine[Spn0]" 2
  4 "Spine[Spn1]" 3
  5 "Spine[Spn2]" 4
  6 "Ribcage[Spn3]" 5
  7 "[Neck0]" 6
  8 "[Neck1]" 7
  9 "[Neck2]" 8
 10 "[Neck3]" 9
 11 "NPC Head [Head]" 10
 12 "Head[LeftPincher]" 11
 13 "Head[RightPincher]" 11
 14 "R UpperArm[RClv]" 6
 15 "R UpperArm[RUar]" 14
 16 "R UpperArm[RLar]" 15
 17 "R UpperArm[RHnd]" 16
 18 "L UpperArm[RClv]" 6
 19 "L UpperArm[LUar]" 18
 20 "L UpperArm[LLar]" 19
 21 "L UpperArm[LHnd]" 20
 22 "Tail[Tal0]" 2
 23 "Tail[Tal1]" 22
 24 "Tail[Tal2]" 23
 25 "Tail[Tal3]" 24
 26 "[TalRightPincher]" 25
 27 "[TalLeftPincher]" 25
 28 "R Leg[RThg0]" 2
 29 "R Leg[RThg1]" 28
 30 "R Leg[RClf]" 29
 31 "R Leg[RAnkle]" 30
 32 "LLeg[RThg0]" 2
 33 "LLeg[LThg1]" 32
 34 "LLeg[LClf]" 33
 35 "LLeg[LAnkle]" 34
end
skeleton
time 0
  0 0.000000 0.000000 0.000000 0.000000 -0.000000 -1.570796
  1 0.000000 0.000000 0.000000 0.000000 -0.000000 0.000000
  2 -2.363353 -12.959703 31.785618 -1.570988 -0.244686 1.570988
  3 4.222169 -0.467508 0.000000 -0.002069 0.000018 0.022093
  4 4.476987 -0.000002 -0.000000 0.015327 -0.013331 0.198502
  5 4.477083 0.000000 0.000002 -0.004349 0.026123 -0.067772
  6 4.477077 -0.000004 -0.000002 -0.006321 -0.017097 -0.152773
  7 5.413502 -7.700466 -0.000000 0.007297 0.008547 -0.244474
  8 6.890240 0.000002 -0.000000 0.001953 0.017148 -0.340157
  9 8.011925 0.000004 0.000005 -0.006810 -0.024538 0.104449
 10 7.210720 -0.000002 -0.000000 0.000000 0.000000 0.130654
 11 8.581028 -0.304903 -0.000000 0.007192 -0.002445 0.657761
 12 22.523008 2.194031 6.355708 0.000000 -0.165866 0.000000
 13 22.523005 2.194038 -6.355709 0.000000 0.188996 0.000000
 14 -3.006533 7.804720 -11.355459 0.417062 0.139568 1.305664
 15 10.384675 0.000008 0.000005 0.030987 0.190809 -1.678201
 16 22.550743 -0.000006 -0.000004 0.121603 0.013421 1.761793
 17 30.814247 -0.000015 -0.000004 2.465533 0.223170 0.409113
 18 -3.013796 7.815494 11.355459 0.129381 -0.291650 1.369678
 19 10.374533 -0.000002 0.000007 -0.019780 -0.191668 -1.738151
 20 22.550726 -0.000027 -0.000013 -0.123048 -0.013506 1.830791
 21 30.814270 -0.000023 0.000002 -2.870282 0.196425 0.399675
 22 -4.250660 -0.770624 0.000001 0.016515 -0.162675 -2.777702
 23 10.363422 0.000000 0.000000 0.002661 0.066003 -0.470131
 24 10.363076 0.000000 -0.000000 -0.026810 0.095059 -0.325023
 25 10.363081 -0.000004 -0.000002 -0.034384 0.127470 0.014423
 26 8.210358 -0.000006 -7.703991 0.000000 0.000000 0.177086
 27 8.210346 -0.000002 7.704017 0.000000 0.000000 0.169444
 28 1.854841 1.227791 -13.762345 2.614544 0.166567 2.068388
 29 10.456543 -0.000004 0.000004 0.051033 0.091640 -1.369420
 30 24.248093 0.000001 0.000007 0.029835 0.033116 1.029271
 31 26.336971 0.000019 0.000002 0.386223 0.069828 0.616594
 32 1.854847 1.227798 13.762341 -2.675642 -0.086465 2.016859
 33 10.456542 -0.000008 0.000004 -0.038783 -0.093415 -1.495575
 34 24.248116 0.000002 -0.000004 -0.032583 -0.035020 1.121144
 35 26.336975 0.000000 0.000004 -0.307002 -0.027418 0.579152
time 1
  0 0.000000 0.000000 0.000000 0.000000 -0.000000 -1.570796
  1 0.000000 0.000000 0.000000 0.000000 -0.000000 0.000000
  2 -2.363353 -12.959703 31.785618 -1.570988 -0.244686 1.570988
  3 4.222169 -0.467508 0.000000 -0.002069 0.000018 0.022093
  4 4.476987 -0.000002 -0.000000 0.015327 -0.013331 0.198502
  5 4.477083 0.000000 0.000002 -0.004349 0.026123 -0.067772
  6 4.477077 -0.000004 -0.000002 -0.006321 -0.017097 -0.152773
  7 5.413502 -7.700466 -0.000000 0.007297 0.008547 -0.244474
  8 6.890240 0.000002 -0.000000 0.001953 0.017148 -0.340157
  9 8.011925 0.000004 0.000005 -0.006810 -0.024538 0.104449
 10 7.210720 -0.000002 -0.000000 0.000000 0.000000 0.130654
 11 8.581028 -0.304903 -0.000000 0.007192 -0.002445 0.657761
 12 22.523008 2.194031 6.355708 0.000000 -0.165866 0.000000
 13 22.523005 2.194038 -6.355709 0.000000 0.188996 0.000000
 14 -3.006533 7.804720 -11.355459 0.417062 0.139568 1.305664
 15 10.384675 0.000008 0.000005 0.030987 0.190809 -1.678201
 16 22.550743 -0.000006 -0.000004 0.121603 0.013421 1.761793
 17 30.814247 -0.000015 -0.000004 2.465533 0.223170 0.409113
 18 -3.013796 7.815494 11.355459 0.129381 -0.291650 1.369678
 19 10.374533 -0.000002 0.000007 -0.019780 -0.191668 -1.738151
 20 22.550726 -0.000027 -0.000013 -0.123048 -0.013506 1.830791
 21 30.814270 -0.000023 0.000002 -2.870282 0.196425 0.399675
 22 -4.250660 -0.770624 0.000001 0.016515 -0.162675 -2.777702
 23 10.363422 0.000000 0.000000 0.002661 0.066003 -0.470131
 24 10.363076 0.000000 -0.000000 -0.026810 0.095059 -0.325023
 25 10.363081 -0.000004 -0.000002 -0.034384 0.127470 0.014423
 26 8.210358 -0.000006 -7.703991 0.000000 0.000000 0.177086
 27 8.210346 -0.000002 7.704017 0.000000 0.000000 0.169444
 28 1.854841 1.227791 -13.762345 2.614544 0.166567 2.068388
 29 10.456543 -0.000004 0.000004 0.051033 0.091640 -1.369420
 30 24.248093 0.000001 0.000007 0.029835 0.033116 1.029271
 31 26.336971 0.000019 0.000002 0.386223 0.069828 0.616594
 32 1.854847 1.227798 13.762341 -2.675642 -0.086465 2.016859
 33 10.456542 -0.000008 0.000004 -0.038783 -0.093415 -1.495575
 34 24.248116 0.000002 -0.000004 -0.032583 -0.035020 1.121144
 35 26.336975 0.000000 0.000004 -0.307002 -0.027418 0.579152
time 2
  0 0.000000 0.000000 0.000000 0.000000 -0.000000 -1.570796
  1 0.000000 0.000000 0.000000 0.000000 -0.000000 0.000000
  2 -2.128971 -13.139397 32.043442 -1.560827 -0.255736 1.546255
  3 4.222169 -0.467508 0.000000 -0.001014 0.021615 0.005809
  4 4.476987 -0.000002 -0.000000 0.012858 0.004531 0.186116
  5 4.477083 0.000000 0.000002 -0.010137 0.001360 -0.044991
  6 4.477077 -0.000004 -0.000002 -0.008514 -0.032451 -0.139847
  7 5.413502 -7.700466 -0.000000 0.022609 0.025827 -0.246777
  8 6.890240 0.000002 -0.000000 0.001139 0.030139 -0.345998
  9 8.011925 0.000004 0.000005 -0.004335 -0.023244 0.083580
 10 7.210720 -0.000002 -0.000000 0.000220 -0.007415 0.126497
 11 8.581028 -0.304903 -0.000000 0.007766 -0.016342 0.660811
 12 22.523008 2.194031 6.355708 0.000000 -0.165866 0.000000
 13 22.523005 2.194038 -6.355709 0.000000 0.188996 0.000000
 14 -3.006533 7.804720 -11.355459 0.401001 0.099398 1.309373
 15 10.384675 0.000008 0.000005 0.035954 0.190682 -1.649265
 16 22.550743 -0.000006 -0.000004 0.120803 0.013651 1.734493
 17 30.814247 -0.000015 -0.000004 2.476235 0.251978 0.390025
 18 -3.013796 7.815494 11.355459 0.106827 -0.316237 1.392364
 19 10.374533 -0.000002 0.000007 -0.035891 -0.192532 -1.717276
 20 22.550726 -0.000027 -0.000013 -0.122190 -0.013683 1.804550
 21 30.814270 -0.000023 0.000002 -2.847129 0.209026 0.400511
 22 -4.250660 -0.770624 0.000001 0.018828 -0.155405 -2.806995
 23 10.363422 0.000000 0.000000 0.002709 0.073158 -0.470131
 24 10.363076 0.000000 -0.000000 -0.026941 0.099996 -0.325875
 25 10.363081 -0.000004 -0.000002 -0.029755 0.152997 -0.008343
 26 8.210358 -0.000006 -7.703991 0.000000 0.000000 0.234869
 27 8.210346 -0.000002 7.704017 0.000000 0.000000 0.231498
 28 1.854841 1.227791 -13.762345 2.599901 0.167332 2.041445
 29 10.456543 -0.000004 0.000004 0.049199 0.092174 -1.387352
 30 24.248093 0.000001 0.000007 0.030614 0.033822 1.052656
 31 26.336971 0.000019 0.000002 0.374042 0.074190 0.589312
 32 1.854847 1.227798 13.762341 -2.686817 -0.083154 2.038270
 33 10.456542 -0.000008 0.000004 -0.040614 -0.093081 -1.477683
 34 24.248116 0.000002 -0.000004 -0.032350 -0.035199 1.108248
 35 26.336975 0.000000 0.000004 -0.322483 -0.035484 0.578700
time 3
  0 0.000000 0.000000 0.000000 0.000000 -0.000000 -1.570796
  1 0.000000 0.000000 0.000000 0.000000 -0.000000 0.000000
  2 -1.261757 -13.647224 32.695801 -1.547023 -0.272569 1.510114
  3 4.222169 -0.467508 0.000000 -0.000247 0.051831 -0.017881
  4 4.476987 -0.000002 -0.000000 0.007813 0.029676 0.169113
  5 4.477083 0.000000 0.000002 -0.016321 -0.023516 -0.022432
  6 4.477077 -0.000004 -0.000002 -0.013188 -0.066334 -0.114852
  7 5.413502 -7.700466 -0.000000 0.038426 0.043650 -0.250169
  8 6.890240 0.000002 -0.000000 0.000503 0.069663 -0.364313
  9 8.011925 0.000004 0.000005 0.003274 -0.017653 0.019675
 10 7.210720 -0.000002 -0.000000 0.000467 -0.014777 0.122367
 11 8.581028 -0.304903 -0.000000 0.010269 -0.060678 0.671501
 12 22.523008 2.194031 6.355708 0.000000 -0.165866 0.000000
 13 22.523005 2.194038 -6.355709 0.000000 0.188996 0.000000
 14 -3.006533 7.804720 -11.355459 0.370941 0.026264 1.310334
 15 10.384675 0.000008 0.000005 0.041183 0.190448 -1.618774
 16 22.550743 -0.000006 -0.000004 0.119987 0.013880 1.705800
 17 30.814247 -0.000015 -0.000004 2.490824 0.295928 0.367141
 18 -3.013796 7.815494 11.355459 0.046444 -0.382564 1.439447
 19 10.374533 -0.000002 0.000007 -0.080179 -0.194558 -1.644910
 20 22.550726 -0.000027 -0.000013 -0.119228 -0.014331 1.731656
 21 30.814270 -0.000023 0.000002 -2.824012 0.221553 0.401571
 22 -4.250660 -0.770624 0.000001 0.020913 -0.148136 -2.836109
 23 10.363422 0.000000 0.000000 0.002697 0.080097 -0.469867
 24 10.363076 0.000000 -0.000000 -0.026989 0.107091 -0.327604
 25 10.363081 -0.000004 -0.000002 -0.022380 0.189032 -0.041258
 26 8.210358 -0.000006 -7.703991 0.000000 0.000000 0.375165
 27 8.210346 -0.000002 7.704017 0.000000 0.000000 0.381580
 28 1.854841 1.227791 -13.762345 2.581124 0.165827 2.005317
 29 10.456543 -0.000004 0.000004 0.042979 0.092743 -1.452915
 30 24.248093 0.000001 0.000007 0.031874 0.034851 1.095636
 31 26.336971 0.000019 0.000002 0.357598 0.079604 0.553029
 32 1.854847 1.227798 13.762341 -2.699681 -0.079351 2.067092
 33 10.456542 -0.000008 0.000004 -0.047194 -0.092580 -1.408989
 34 24.248116 0.000002 -0.000004 -0.030666 -0.034181 1.057069
 35 26.336975 0.000000 0.000004 -0.340622 -0.044449 0.576496
time 4
  0 0.000000 0.000000 0.000000 0.000000 -0.000000 -1.570796
  1 0.000000 0.000000 0.000000 0.000000 -0.000000 0.000000
  2 0.042970 -14.569128 33.641144 -1.528426 -0.294987 1.461895
  3 4.222169 -0.467508 0.000000 -0.000283 0.087943 -0.046632
  4 4.476987 -0.000002 -0.000000 0.000466 0.060196 0.148513
  5 4.477083 0.000000 0.000002 -0.023117 -0.048716 0.000186
  6 4.477077 -0.000004 -0.000002 -0.020151 -0.107470 -0.083987
  7 5.413502 -7.700466 -0.000000 0.074552 0.081693 -0.278981
  8 6.890240 0.000002 -0.000000 -0.000731 0.110637 -0.383349
  9 8.011925 0.000004 0.000005 0.010897 -0.011359 -0.046540
 10 7.210720 -0.000002 -0.000000 0.000741 -0.022651 0.117701
 11 8.581028 -0.304903 -0.000000 0.012979 -0.106499 0.682927
 12 22.523008 2.194031 6.355708 0.000000 -0.165866 0.000000
 13 22.523005 2.194038 -6.355709 0.000000 0.188996 0.000000
 14 -3.006533 7.804720 -11.355459 0.334044 -0.063086 1.311708
 15 10.384675 0.000008 0.000005 0.056535 0.189281 -1.530022
 16 22.550743 -0.000006 -0.000004 0.118180 0.013995 1.621660
 17 30.814247 -0.000015 -0.000004 2.505369 0.353765 0.349092
 18 -3.013796 7.815494 11.355459 -0.031503 -0.472955 1.484762
 19 10.374533 -0.000002 0.000007 -0.146511 -0.189940 -1.517227
 20 22.550726 -0.000027 -0.000013 -0.111547 -0.014272 1.611490
 21 30.814270 -0.000023 0.000002 -2.800648 0.234105 0.405113
 22 -4.250660 -0.770624 0.000001 0.022795 -0.140754 -2.865325
 23 10.363422 0.000000 0.000000 0.002589 0.086593 -0.469075
 24 10.363076 0.000000 -0.000000 -0.027049 0.113910 -0.329204
 25 10.363081 -0.000004 -0.000002 -0.015608 0.225452 -0.074388
 26 8.210358 -0.000006 -7.703991 0.000000 0.000000 0.557312
 27 8.210346 -0.000002 7.704017 0.000000 0.000000 0.576151
 28 1.854841 1.227791 -13.762345 2.556763 0.158870 1.954471
 29 10.456543 -0.000004 0.000004 0.036463 0.092939 -1.521257
 30 24.248093 0.000001 0.000007 0.033691 0.035820 1.154127
 31 26.336971 0.000019 0.000002 0.336281 0.087461 0.503877
 32 1.854847 1.227798 13.762341 -2.712578 -0.075438 2.096732
 33 10.456542 -0.000008 0.000004 -0.053671 -0.091606 -1.340493
 34 24.248116 0.000002 -0.000004 -0.029059 -0.033138 1.008124
 35 26.336975 0.000000 0.000004 -0.364122 -0.055958 0.571353
time 5
  0 0.000000 0.000000 0.000000 0.000000 -0.000000 -1.570796
  1 0.000000 0.000000 0.000000 0.000000 -0.000000 0.000000
  2 1.593799 -15.979328 34.746647 -1.507144 -0.319160 1.408402
  3 4.222169 -0.467508 0.000000 -0.001349 0.126631 -0.077698
  4 4.476987 -0.000002 -0.000000 -0.008642 0.093608 0.125672
  5 4.477083 0.000000 0.000002 -0.030583 -0.072445 0.022137
  6 4.477077 -0.000004 -0.000002 -0.028097 -0.143965 -0.054164
  7 5.413502 -7.700466 -0.000000 0.110386 0.120467 -0.310159
  8 6.890240 0.000002 -0.000000 -0.000995 0.167177 -0.409390
  9 8.011925 0.000004 0.000005 0.022815 -0.002109 -0.137985
 10 7.210720 -0.000002 -0.000000 0.001126 -0.039212 0.103836
 11 8.581028 -0.304903 -0.000000 0.026252 -0.166268 0.706376
 12 22.523008 2.194031 6.355708 0.000000 -0.165866 0.000000
 13 22.523005 2.194038 -6.355709 0.000000 0.188996 0.000000
 14 -3.006533 7.804720 -11.355459 0.294272 -0.159291 1.312669
 15 10.384675 0.000008 0.000005 0.079917 0.184529 -1.391784
 16 22.550743 -0.000006 -0.000004 0.115318 0.014110 1.484553
 17 30.814247 -0.000015 -0.000004 2.517075 0.424642 0.346442
 18 -3.013796 7.815494 11.355459 -0.118615 -0.560431 1.540394
 19 10.374533 -0.000002 0.000007 -0.220527 -0.172930 -1.347678
 20 22.550726 -0.000027 -0.000013 -0.098576 -0.014135 1.443121
 21 30.814270 -0.000023 0.000002 -2.776547 0.245727 0.448596
 22 -4.250660 -0.770624 0.000001 0.024449 -0.133244 -2.894490
 23 10.363422 0.000000 0.000000 0.002361 0.092285 -0.467468
 24 10.363076 0.000000 -0.000000 -0.027157 0.117817 -0.329643
 25 10.363081 -0.000004 -0.000002 -0.009477 0.262056 -0.107625
 26 8.210358 -0.000006 -7.703991 0.000000 0.000000 0.737659
 27 8.210346 -0.000002 7.704017 0.000000 0.000000 0.768823
 28 1.854841 1.227791 -13.762345 2.528136 0.143968 1.888603
 29 10.456543 -0.000004 0.000004 0.026889 0.092690 -1.621208
 30 24.248093 0.000001 0.000007 0.035915 0.036627 1.219722
 31 26.336971 0.000019 0.000002 0.308917 0.098077 0.437993
 32 1.854847 1.227798 13.762341 -2.724429 -0.071689 2.125122
 33 10.456542 -0.000008 0.000004 -0.059674 -0.090243 -1.275780
 34 24.248116 0.000002 -0.000004 -0.027608 -0.032095 0.962631
 35 26.336975 0.000000 0.000004 -0.392639 -0.070228 0.563666
time 6
  0 0.000000 0.000000 0.000000 0.000000 -0.000000 -1.570796
  1 0.000000 0.000000 0.000000 0.000000 -0.000000 0.000000
  2 3.226661 -17.932512 35.914650 -1.486534 -0.341538 1.357498
  3 4.222169 -0.467508 0.000000 -0.003423 0.162910 -0.107200
  4 4.476987 -0.000002 -0.000000 -0.019069 0.128220 0.101499
  5 4.477083 0.000000 0.000002 -0.038756 -0.078939 0.037581
  6 4.477077 -0.000004 -0.000002 -0.035180 -0.167568 -0.030727
  7 5.413502 -7.700466 -0.000000 0.145024 0.159190 -0.342674
  8 6.890240 0.000002 -0.000000 -0.002744 0.225025 -0.436338
  9 8.011925 0.000004 0.000005 0.034170 0.008403 -0.231585
 10 7.210720 -0.000002 -0.000000 0.001757 -0.056337 0.089382
 11 8.581028 -0.304903 -0.000000 0.038927 -0.227556 0.730070
 12 22.523008 2.194031 6.355708 0.000000 -0.165866 0.000000
 13 22.523005 2.194038 -6.355709 0.000000 0.188996 0.000000
 14 -3.006533 7.804720 -11.355459 0.268499 -0.242176 1.285131
 15 10.384675 0.000008 0.000005 0.111665 0.172436 -1.198674
 16 22.550743 -0.000006 -0.000004 0.111495 0.013536 1.290605
 17 30.814247 -0.000015 -0.000004 2.525811 0.500818 0.362307
 18 -3.013796 7.815494 11.355459 -0.213465 -0.642190 1.603778
 19 10.374533 -0.000002 0.000007 -0.291442 -0.139841 -1.136669
 20 22.550726 -0.000027 -0.000013 -0.078108 -0.013330 1.226239
 21 30.814270 -0.000023 0.000002 -2.752553 0.255538 0.499944
 22 -4.250660 -0.770624 0.000001 0.025803 -0.127643 -2.921556
 23 10.363422 0.000000 0.000000 0.002001 0.097115 -0.464938
 24 10.363076 0.000000 -0.000000 -0.027361 0.116331 -0.327888
 25 10.363081 -0.000004 -0.000002 -0.003629 0.297136 -0.140217
 26 8.210358 -0.000006 -7.703991 0.000000 0.000000 0.875679
 27 8.210346 -0.000002 7.704017 0.000000 0.000000 0.916701
 28 1.854841 1.227791 -13.762345 2.498410 0.122873 1.814888
 29 10.456543 -0.000004 0.000004 0.017124 0.091480 -1.723894
 30 24.248093 0.000001 0.000007 0.038399 0.037434 1.287270
 31 26.336971 0.000019 0.000002 0.276942 0.108878 0.360510
 32 1.854847 1.227798 13.762341 -2.734490 -0.068406 2.150669
 33 10.456542 -0.000008 0.000004 -0.065032 -0.088601 -1.216348
 34 24.248116 0.000002 -0.000004 -0.026300 -0.031089 0.920033
 35 26.336975 0.000000 0.000004 -0.423344 -0.085894 0.555302
time 7
  0 0.000000 0.000000 0.000000 0.000000 -0.000000 -1.570796
  1 0.000000 0.000000 0.000000 0.000000 -0.000000 0.000000
  2 4.765770 -20.233362 37.012341 -1.466691 -0.362241 1.309470
  3 4.222169 -0.467508 0.000000 -0.005844 0.176461 -0.119666
  4 4.476987 -0.000002 -0.000000 -0.029136 0.158826 0.079702
  5 4.477083 0.000000 0.000002 -0.046954 -0.084463 0.052373
  6 4.477077 -0.000004 -0.000002 -0.040765 -0.180216 -0.014126
  7 5.413502 -7.700466 -0.000000 0.177840 0.197097 -0.375843
  8 6.890240 0.000002 -0.000000 -0.005693 0.280637 -0.462658
  9 8.011925 0.000004 0.000005 0.044306 0.019953 -0.321498
 10 7.210720 -0.000002 -0.000000 0.002635 -0.073321 0.074981
 11 8.581028 -0.304903 -0.000000 0.050019 -0.289152 0.753097
 12 22.523008 2.194031 6.355708 0.000000 -0.165866 0.000000
 13 22.523005 2.194038 -6.355709 0.000000 0.188996 0.000000
 14 -3.006533 7.804720 -11.355459 0.250430 -0.316793 1.251687
 15 10.384675 0.000008 0.000005 0.147672 0.149691 -0.956133
 16 22.550743 -0.000006 -0.000004 0.106634 0.012101 1.039273
 17 30.814247 -0.000015 -0.000004 2.528563 0.570723 0.407322
 18 -3.013796 7.815494 11.355459 -0.273644 -0.707732 1.617458
 19 10.374533 -0.000002 0.000007 -0.347999 -0.096186 -0.883331
 20 22.550726 -0.000027 -0.000013 -0.051349 -0.012270 0.955633
 21 30.814270 -0.000023 0.000002 -2.736661 0.256786 0.600548
 22 -4.250660 -0.770624 0.000001 0.026258 -0.140385 -2.927983
 23 10.363422 0.000000 0.000000 0.001270 0.098565 -0.459062
 24 10.363076 0.000000 -0.000000 -0.027768 0.107415 -0.323139
 25 10.363081 -0.000004 -0.000002 0.005519 0.306688 -0.159333
 26 8.210358 -0.000006 -7.703991 0.000000 0.000000 0.922320
 27 8.210346 -0.000002 7.704017 0.000000 0.000000 0.967124
 28 1.854841 1.227791 -13.762345 2.471102 0.097559 1.740687
 29 10.456543 -0.000004 0.000004 0.007550 0.089238 -1.826494
 30 24.248093 0.000001 0.000007 0.041068 0.038201 1.357068
 31 26.336971 0.000019 0.000002 0.243705 0.118023 0.278997
 32 1.854847 1.227798 13.762341 -2.742020 -0.065998 2.171951
 33 10.456542 -0.000008 0.000004 -0.069645 -0.086875 -1.164799
 34 24.248116 0.000002 -0.000004 -0.025160 -0.030106 0.880735
 35 26.336975 0.000000 0.000004 -0.454177 -0.101901 0.546768
time 8
  0 0.000000 0.000000 0.000000 0.000000 -0.000000 -1.570796
  1 0.000000 0.000000 0.000000 0.000000 -0.000000 0.000000
  2 6.066591 -22.385773 37.934242 -1.447518 -0.381867 1.263455
  3 4.222169 -0.467508 0.000000 -0.008420 0.188103 -0.130093
  4 4.476987 -0.000002 -0.000000 -0.033055 0.167051 0.074219
  5 4.477083 0.000000 0.000002 -0.055020 -0.091022 0.067120
  6 4.477077 -0.000004 -0.000002 -0.045211 -0.187282 -0.002727
  7 5.413502 -7.700466 -0.000000 0.208238 0.233288 -0.409011
  8 6.890240 0.000002 -0.000000 -0.006711 0.322997 -0.482275
  9 8.011925 0.000004 0.000005 0.052819 0.032989 -0.390049
 10 7.210720 -0.000002 -0.000000 0.003843 -0.090376 0.060607
 11 8.581028 -0.304903 -0.000000 0.062144 -0.346446 0.777071
 12 22.523008 2.194031 6.355708 0.000000 -0.193241 0.000000
 13 22.523005 2.194038 -6.355709 0.000000 0.220062 0.000000
 14 -3.006533 7.804720 -11.355459 0.247283 -0.367704 1.206775
 15 10.384675 0.000008 0.000005 0.181811 0.114514 -0.680602
 16 22.550743 -0.000006 -0.000004 0.102427 0.009518 0.744115
 17 30.814247 -0.000015 -0.000004 2.527034 0.627494 0.486180
 18 -3.013796 7.815494 11.355459 -0.306687 -0.756833 1.595399
 19 10.374533 -0.000002 0.000007 -0.387164 -0.054990 -0.642286
 20 22.550726 -0.000027 -0.000013 -0.022404 -0.009129 0.694643
 21 30.814270 -0.000023 0.000002 -2.723646 0.250962 0.695546
 22 -4.250660 -0.770624 0.000001 0.026774 -0.163927 -2.930364
 23 10.363422 0.000000 0.000000 -0.001462 0.074608 -0.426009
 24 10.363076 0.000000 -0.000000 -0.028308 0.081360 -0.311008
 25 10.363081 -0.000004 -0.000002 0.021598 0.261748 -0.159628
 26 8.210358 -0.000006 -7.703991 0.000000 0.000000 0.796461
 27 8.210346 -0.000002 7.704017 0.000000 0.000000 0.840032
 28 1.854841 1.227791 -13.762345 2.448808 0.070445 1.672082
 29 10.456543 -0.000004 0.000004 -0.001272 0.086302 -1.923146
 30 24.248093 0.000001 0.000007 0.043552 0.038786 1.423551
 31 26.336971 0.000019 0.000002 0.211078 0.125092 0.199471
 32 1.854847 1.227798 13.762341 -2.747658 -0.064356 2.189744
 33 10.456542 -0.000008 0.000004 -0.073341 -0.085261 -1.122865
 34 24.248116 0.000002 -0.000004 -0.024188 -0.029159 0.844178
 35 26.336975 0.000000 0.000004 -0.483637 -0.117443 0.538234
time 9
  0 0.000000 0.000000 0.000000 0.000000 -0.000000 -1.570796
  1 0.000000 0.000000 0.000000 0.000000 -0.000000 0.000000
  2 6.949431 -23.795973 38.555359 -1.431510 -0.397184 1.225972
  3 4.222169 -0.467508 0.000000 -0.011105 0.200597 -0.139891
  4 4.476987 -0.000002 -0.000000 -0.036135 0.172277 0.070645
  5 4.477083 0.000000 0.000002 -0.062810 -0.098420 0.081586
  6 4.477077 -0.000004 -0.000002 -0.049082 -0.193746 0.004966
  7 5.413502 -7.700466 -0.000000 0.230594 0.260967 -0.435677
  8 6.890240 0.000002 -0.000000 -0.007730 0.357658 -0.497425
  9 8.011925 0.000004 0.000005 0.059905 0.046297 -0.449464
 10 7.210720 -0.000002 -0.000000 0.004475 -0.107254 0.044972
 11 8.581028 -0.304903 -0.000000 0.086761 -0.376083 0.807600
 12 22.523008 2.194031 6.355708 0.000000 -0.579631 0.000000
 13 22.523005 2.194038 -6.355709 0.000000 0.654621 0.000000
 14 -3.006533 7.804720 -11.355459 0.262367 -0.387171 1.148265
 15 10.384675 0.000008 0.000005 0.204857 0.072909 -0.415346
 16 22.550743 -0.000006 -0.000004 0.099197 0.005960 0.457371
 17 30.814247 -0.000015 -0.000004 2.528257 0.673795 0.566219
 18 -3.013796 7.815494 11.355459 -0.405661 -0.799842 1.643679
 19 10.374533 -0.000002 0.000007 -0.432329 -0.052133 -0.749849
 20 22.550726 -0.000027 -0.000013 -0.016133 -0.010287 0.804697
 21 30.814270 -0.000023 0.000002 -2.734486 0.202958 0.708599
 22 -4.250660 -0.770624 0.000001 0.027433 -0.240554 -2.921504
 23 10.363422 0.000000 0.000000 -0.007814 0.015620 -0.351034
 24 10.363076 0.000000 -0.000000 -0.029051 0.007164 -0.277998
 25 10.363081 -0.000004 -0.000002 0.044350 0.135173 -0.149104
 26 8.210358 -0.000006 -7.703991 0.000000 0.000000 0.512370
 27 8.210346 -0.000002 7.704017 0.000000 0.000000 0.551702
 28 1.854841 1.227791 -13.762345 2.435748 0.049844 1.625494
 29 10.456543 -0.000004 0.000004 -0.005884 0.084700 -1.971515
 30 24.248093 0.000001 0.000007 0.044553 0.038746 1.452027
 31 26.336971 0.000019 0.000002 0.190544 0.128561 0.155787
 32 1.854847 1.227798 13.762341 -2.752216 -0.063262 2.205555
 33 10.456542 -0.000008 0.000004 -0.075987 -0.083981 -1.092558
 34 24.248116 0.000002 -0.000004 -0.023476 -0.028344 0.814019
 35 26.336975 0.000000 0.000004 -0.508338 -0.130596 0.530943
time 10
  0 0.000000 0.000000 0.000000 0.000000 -0.000000 -1.570796
  1 0.000000 0.000000 0.000000 0.000000 -0.000000 0.000000
  2 7.281472 -24.217859 38.793648 -1.428154 -0.394751 1.221945
  3 4.222169 -0.467508 0.000000 -0.013957 0.214185 -0.148693
  4 4.476987 -0.000002 -0.000000 -0.039562 0.178231 0.066494
  5 4.477083 0.000000 0.000002 -0.069042 -0.111601 0.095415
  6 4.477077 -0.000004 -0.000002 -0.053085 -0.204514 0.010650
  7 5.413502 -7.700466 -0.000000 0.234555 0.271298 -0.446567
  8 6.890240 0.000002 -0.000000 -0.007215 0.363474 -0.493888
  9 8.011925 0.000004 0.000005 0.060795 0.060100 -0.468957
 10 7.210720 -0.000002 -0.000000 0.001263 -0.123814 0.022714
 11 8.581028 -0.304903 -0.000000 0.118565 -0.394418 0.840827
 12 22.523008 2.194031 6.355708 0.000000 -0.803210 0.000000
 13 22.523005 2.194038 -6.355709 0.000000 0.896674 0.000000
 14 -3.006533 7.804720 -11.355459 0.274033 -0.394944 1.104314
 15 10.384675 0.000008 0.000005 0.212140 0.052286 -0.294048
 16 22.550743 -0.000006 -0.000004 0.097934 0.004467 0.324501
 17 30.814247 -0.000015 -0.000004 2.536032 0.692478 0.617287
 18 -3.013796 7.815494 11.355459 -0.499290 -0.832763 1.674744
 19 10.374533 -0.000002 0.000007 -0.504053 -0.092133 -1.122984
 20 22.550726 -0.000027 -0.000013 -0.038378 -0.014351 1.192553
 21 30.814270 -0.000023 0.000002 -2.788475 0.096966 0.692227
 22 -4.250660 -0.770624 0.000001 0.027217 -0.327211 -2.910571
 23 10.363422 0.000000 0.000000 -0.018660 -0.044351 -0.273639
 24 10.363076 0.000000 -0.000000 -0.030920 -0.067177 -0.248600
 25 10.363081 -0.000004 -0.000002 0.066893 -0.005531 -0.139492
 26 8.210358 -0.000006 -7.703991 0.000000 0.000000 0.172228
 27 8.210346 -0.000002 7.704017 0.000000 0.000000 0.206337
 28 1.854841 1.227791 -13.762345 2.433153 0.045822 1.616553
 29 10.456543 -0.000004 0.000004 -0.006251 0.084736 -1.975379
 30 24.248093 0.000001 0.000007 0.044812 0.038705 1.459605
 31 26.336971 0.000019 0.000002 0.177188 0.129769 0.128285
 32 1.854847 1.227798 13.762341 -2.755018 -0.062359 2.215937
 33 10.456542 -0.000008 0.000004 -0.077852 -0.083007 -1.071197
 34 24.248116 0.000002 -0.000004 -0.023113 -0.027937 0.801834
 35 26.336975 0.000000 0.000004 -0.520474 -0.137359 0.529135
time 11
  0 0.000000 0.000000 0.000000 0.000000 -0.000000 -1.570796
  1 0.000000 0.000000 0.000000 0.000000 -0.000000 0.000000
  2 7.008026 -23.526432 38.641296 -1.429401 -0.380550 1.233545
  3 4.222169 -0.467508 0.000000 -0.017001 0.230183 -0.155992
  4 4.476987 -0.000002 -0.000000 -0.039167 0.179751 0.064563
  5 4.477083 0.000000 0.000002 -0.067783 -0.157558 0.107673
  6 4.477077 -0.000004 -0.000002 -0.058502 -0.226314 0.016428
  7 5.413502 -7.700466 -0.000000 0.202377 0.253746 -0.431757
  8 6.890240 0.000002 -0.000000 -0.006412 0.364193 -0.487162
  9 8.011925 0.000004 0.000005 0.046061 0.080868 -0.441807
 10 7.210720 -0.000002 -0.000000 -0.002361 -0.140463 -0.000912
 11 8.581028 -0.304903 -0.000000 0.173930 -0.382126 0.882397
 12 22.523008 2.194031 6.355708 0.000000 -0.847663 0.000000
 13 22.523005 2.194038 -6.355709 0.000000 0.937601 0.000000
 14 -3.006533 7.804720 -11.355459 0.264918 -0.362369 1.129998
 15 10.384675 0.000008 0.000005 0.200673 0.082965 -0.474606
 16 22.550743 -0.000006 -0.000004 0.099773 0.007108 0.522323
 17 30.814247 -0.000015 -0.000004 2.573246 0.638780 0.561886
 18 -3.013796 7.815494 11.355459 -0.440384 -0.822076 1.501235
 19 10.374533 -0.000002 0.000007 -0.573351 -0.148911 -1.426712
 20 22.550726 -0.000027 -0.000013 -0.067670 -0.014508 1.501994
 21 30.814270 -0.000023 0.000002 -2.875229 -0.046534 0.742598
 22 -4.250660 -0.770624 0.000001 0.026234 -0.405251 -2.898972
 23 10.363422 0.000000 0.000000 -0.032203 -0.099348 -0.201151
 24 10.363076 0.000000 -0.000000 -0.033053 -0.134279 -0.225836
 25 10.363081 -0.000004 -0.000002 0.086691 -0.131675 -0.132485
 26 8.210358 -0.000006 -7.703991 0.000000 0.000000 -0.107481
 27 8.210346 -0.000002 7.704017 0.000000 0.000000 -0.077381
 28 1.854841 1.227791 -13.762345 2.433329 0.051225 1.624825
 29 10.456543 -0.000004 0.000004 -0.005081 0.085359 -1.963091
 30 24.248093 0.000001 0.000007 0.044479 0.038705 1.450369
 31 26.336971 0.000019 0.000002 0.191457 0.122990 0.155235
 32 1.854847 1.227798 13.762341 -2.752047 -0.061483 2.206201
 33 10.456542 -0.000008 0.000004 -0.079480 -0.082144 -1.052714
 34 24.248116 0.000002 -0.000004 -0.022789 -0.027637 0.791984
 35 26.336975 0.000000 0.000004 -0.511297 -0.133078 0.537895
time 12
  0 0.000000 0.000000 0.000000 0.000000 -0.000000 -1.570796
  1 0.000000 0.000000 0.000000 0.000000 -0.000000 0.000000
  2 6.234565 -21.784191 38.199875 -1.433139 -0.352229 1.259332
  3 4.222169 -0.467508 0.000000 -0.020153 0.251446 -0.158997
  4 4.476987 -0.000002 -0.000000 -0.025696 0.163195 0.072598
  5 4.477083 0.000000 0.000002 -0.059849 -0.239408 0.119159
  6 4.477077 -0.000004 -0.000002 -0.068293 -0.268709 0.025336
  7 5.413502 -7.700466 -0.000000 0.132556 0.206408 -0.388258
  8 6.890240 0.000002 -0.000000 -0.004722 0.358808 -0.475364
  9 8.011925 0.000004 0.000005 0.018571 0.105982 -0.374527
 10 7.210720 -0.000002 -0.000000 -0.005408 -0.157165 -0.024082
 11 8.581028 -0.304903 -0.000000 0.239308 -0.358772 0.928102
 12 22.523008 2.194031 6.355708 0.000000 -0.859059 0.000000
 13 22.523005 2.194038 -6.355709 0.000000 0.941896 0.000000
 14 -3.006533 7.804720 -11.355459 0.265677 -0.282452 1.172232
 15 10.384675 0.000008 0.000005 0.168253 0.130278 -0.797124
 16 22.550743 -0.000006 -0.000004 0.104235 0.010781 0.870023
 17 30.814247 -0.000015 -0.000004 2.631340 0.539376 0.470745
 18 -3.013796 7.815494 11.355459 -0.275884 -0.725594 1.241370
 19 10.374533 -0.000002 0.000007 -0.618178 -0.185754 -1.568370
 20 22.550726 -0.000027 -0.000013 -0.085360 -0.014174 1.640399
 21 30.814270 -0.000023 0.000002 -2.962684 -0.177972 0.810542
 22 -4.250660 -0.770624 0.000001 0.025168 -0.437154 -2.885221
 23 10.363422 0.000000 0.000000 -0.039525 -0.127680 -0.166557
 24 10.363076 0.000000 -0.000000 -0.034552 -0.189228 -0.214815
 25 10.363081 -0.000004 -0.000002 0.097993 -0.185288 -0.137398
 26 8.210358 -0.000006 -7.703991 0.000000 0.000000 -0.228109
 27 8.210346 -0.000002 7.704017 0.000000 0.000000 -0.200573
 28 1.854841 1.227791 -13.762345 2.439310 0.078241 1.670866
 29 10.456543 -0.000004 0.000004 0.000300 0.087423 -1.905995
 30 24.248093 0.000001 0.000007 0.042588 0.038362 1.402416
 31 26.336971 0.000019 0.000002 0.224564 0.106460 0.221451
 32 1.854847 1.227798 13.762341 -2.747152 -0.061456 2.191252
 33 10.456542 -0.000008 0.000004 -0.080972 -0.081337 -1.035728
 34 24.248116 0.000002 -0.000004 -0.022465 -0.027350 0.780560
 35 26.336975 0.000000 0.000004 -0.482651 -0.118901 0.558410
time 13
  0 0.000000 0.000000 0.000000 0.000000 -0.000000 -1.570796
  1 0.000000 0.000000 0.000000 0.000000 -0.000000 0.000000
  2 5.074374 -19.237240 37.559235 -1.440233 -0.308550 1.301226
  3 4.222169 -0.467508 0.000000 -0.022442 0.269762 -0.153017
  4 4.476987 -0.000002 -0.000000 -0.013736 0.139529 0.087404
  5 4.477083 0.000000 0.000002 -0.052707 -0.306832 0.125696
  6 4.477077 -0.000004 -0.000002 -0.080649 -0.317363 0.034352
  7 5.413502 -7.700466 -0.000000 0.065221 0.156081 -0.338100
  8 6.890240 0.000002 -0.000000 -0.000659 0.331819 -0.445344
  9 8.011925 0.000004 0.000005 -0.007190 0.128140 -0.284017
 10 7.210720 -0.000002 -0.000000 -0.009114 -0.173707 -0.049961
 11 8.581028 -0.304903 -0.000000 0.319887 -0.319455 0.980606
 12 22.523008 2.194031 6.355708 0.000000 -0.886251 0.000000
 13 22.523005 2.194038 -6.355709 0.000000 0.964129 0.000000
 14 -3.006533 7.804720 -11.355459 0.286459 -0.172999 1.206775
 15 10.384675 0.000008 0.000005 0.124178 0.165646 -1.118419
 16 22.550743 -0.000006 -0.000004 0.109848 0.012991 1.207373
 17 30.814247 -0.000015 -0.000004 2.676984 0.429062 0.385799
 18 -3.013796 7.815494 11.355459 -0.147228 -0.595594 1.065411
 19 10.374533 -0.000002 0.000007 -0.629840 -0.204126 -1.626007
 20 22.550726 -0.000027 -0.000013 -0.093939 -0.014449 1.692386
 21 30.814270 -0.000023 0.000002 -2.990082 -0.244816 0.837206
 22 -4.250660 -0.770624 0.000001 0.023873 -0.411189 -2.871215
 23 10.363422 0.000000 0.000000 -0.035918 -0.118488 -0.190654
 24 10.363076 0.000000 -0.000000 -0.034468 -0.222377 -0.225655
 25 10.363081 -0.000004 -0.000002 0.104235 -0.197412 -0.173723
 26 8.210358 -0.000006 -7.703991 0.000000 0.000000 -0.211599
 27 8.210346 -0.000002 7.704017 0.000000 0.000000 -0.187179
 28 1.854841 1.227791 -13.762345 2.452370 0.111746 1.733875
 29 10.456543 -0.000004 0.000004 0.009821 0.090288 -1.802874
 30 24.248093 0.000001 0.000007 0.040067 0.037676 1.331316
 31 26.336971 0.000019 0.000002 0.262934 0.083230 0.302744
 32 1.854847 1.227798 13.762341 -2.741783 -0.062304 2.176173
 33 10.456542 -0.000008 0.000004 -0.082464 -0.080503 -1.018623
 34 24.248116 0.000002 -0.000004 -0.022103 -0.027038 0.767460
 35 26.336975 0.000000 0.000004 -0.447530 -0.101963 0.585425
time 14
  0 0.000000 0.000000 0.000000 0.000000 -0.000000 -1.570796
  1 0.000000 0.000000 0.000000 0.000000 -0.000000 0.000000
  2 3.632923 -16.221523 36.797493 -1.451545 -0.246681 1.362387
  3 4.222169 -0.467508 0.000000 -0.022622 0.263255 -0.136365
  4 4.476987 -0.000002 -0.000000 -0.007803 0.113977 0.106605
  5 4.477083 0.000000 0.000002 -0.045887 -0.326814 0.118404
  6 4.477077 -0.000004 -0.000002 -0.084377 -0.328789 0.030926
  7 5.413502 -7.700466 -0.000000 0.025427 0.105277 -0.285951
  8 6.890240 0.000002 -0.000000 0.004003 0.283330 -0.406900
  9 8.011925 0.000004 0.000005 -0.022094 0.126271 -0.187173
 10 7.210720 -0.000002 -0.000000 -0.015565 -0.189720 -0.083536
 11 8.581028 -0.304903 -0.000000 0.400650 -0.275631 1.036441
 12 22.523008 2.194031 6.355708 0.000000 -0.807365 0.000000
 13 22.523005 2.194038 -6.355709 0.000000 0.864731 0.000000
 14 -3.006533 7.804720 -11.355459 0.314511 -0.069834 1.231223
 15 10.384675 0.000008 0.000005 0.079805 0.184571 -1.394061
 16 22.550743 -0.000006 -0.000004 0.115397 0.013938 1.485703
 17 30.814247 -0.000015 -0.000004 2.687904 0.321947 0.323809
 18 -3.013796 7.815494 11.355459 -0.064851 -0.511555 0.968339
 19 10.374533 -0.000002 0.000007 -0.582316 -0.203396 -1.617193
 20 22.550726 -0.000027 -0.000013 -0.095635 -0.014527 1.692262
 21 30.814270 -0.000023 0.000002 -2.932831 -0.222527 0.812578
 22 -4.250660 -0.770624 0.000001 0.021932 -0.336487 -2.856952
 23 10.363422 0.000000 0.000000 -0.029710 -0.098102 -0.232729
 24 10.363076 0.000000 -0.000000 -0.033833 -0.248612 -0.241838
 25 10.363081 -0.000004 -0.000002 0.108039 -0.199246 -0.249352
 26 8.210358 -0.000006 -7.703991 0.000000 0.000000 -0.157247
 27 8.210346 -0.000002 7.704017 0.000000 0.000000 -0.137061
 28 1.854841 1.227791 -13.762345 2.479457 0.147422 1.820606
 29 10.456543 -0.000004 0.000004 0.023291 0.092637 -1.657507
 30 24.248093 0.000001 0.000007 0.036360 0.036506 1.225878
 31 26.336971 0.000019 0.000002 0.307438 0.049804 0.407674
 32 1.854847 1.227798 13.762341 -2.735909 -0.063864 2.160621
 33 10.456542 -0.000008 0.000004 -0.084092 -0.079640 -0.999588
 34 24.248116 0.000002 -0.000004 -0.021688 -0.026690 0.752381
 35 26.336975 0.000000 0.000004 -0.409578 -0.084746 0.615322
time 15
  0 0.000000 0.000000 0.000000 0.000000 -0.000000 -1.570796
  1 0.000000 0.000000 0.000000 0.000000 -0.000000 0.000000
  2 2.023499 -13.045645 35.992779 -1.461514 -0.181581 1.426520
  3 4.222169 -0.467508 0.000000 -0.021879 0.234484 -0.112889
  4 4.476987 -0.000002 -0.000000 -0.003201 0.087911 0.126471
  5 4.477083 0.000000 0.000002 -0.039691 -0.306913 0.100173
  6 4.477077 -0.000004 -0.000002 -0.078780 -0.301803 0.011709
  7 5.413502 -7.700466 -0.000000 0.023087 0.056937 -0.238967
  8 6.890240 0.000002 -0.000000 0.011098 0.181894 -0.355004
  9 8.011925 0.000004 0.000005 -0.012075 0.032031 -0.078493
 10 7.210720 -0.000002 -0.000000 -0.021851 -0.203633 -0.124325
 11 8.581028 -0.304903 -0.000000 0.468920 -0.227522 1.091855
 12 22.523008 2.194031 6.355708 0.000000 -0.410587 0.000000
 13 22.523005 2.194038 -6.355709 0.000000 0.401708 0.000000
 14 -3.006533 7.804720 -11.355459 0.352547 0.038100 1.243378
 15 10.384675 0.000008 0.000005 0.041146 0.191149 -1.617719
 16 22.550743 -0.000006 -0.000004 0.120339 0.014024 1.709674
 17 30.814247 -0.000015 -0.000004 2.667375 0.220725 0.286314
 18 -3.013796 7.815494 11.355459 0.012129 -0.471498 0.913220
 19 10.374533 -0.000002 0.000007 -0.475808 -0.168146 -1.455646
 20 22.550726 -0.000027 -0.000013 -0.083665 -0.014704 1.540582
 21 30.814270 -0.000023 0.000002 -2.803103 -0.116168 0.753114
 22 -4.250660 -0.770624 0.000001 0.018444 -0.227090 -2.840616
 23 10.363422 0.000000 0.000000 -0.022028 -0.070561 -0.283189
 24 10.363076 0.000000 -0.000000 -0.032982 -0.273036 -0.256937
 25 10.363081 -0.000004 -0.000002 0.110206 -0.198537 -0.349922
 26 8.210358 -0.000006 -7.703991 0.000000 0.000000 -0.079932
 27 8.210346 -0.000002 7.704017 0.000000 0.000000 -0.065987
 28 1.854841 1.227791 -13.762345 2.514241 0.180729 1.918283
 29 10.456543 -0.000004 0.000004 0.041163 0.092939 -1.470934
 30 24.248093 0.000001 0.000007 0.031689 0.034387 1.090130
 31 26.336971 0.000019 0.000002 0.350115 0.010859 0.518015
 32 1.854847 1.227798 13.762341 -2.729291 -0.066271 2.144035
 33 10.456542 -0.000008 0.000004 -0.085957 -0.078471 -0.975941
 34 24.248116 0.000002 -0.000004 -0.021222 -0.026271 0.734813
 35 26.336975 0.000000 0.000004 -0.369740 -0.068026 0.647368
time 16
  0 0.000000 0.000000 0.000000 0.000000 -0.000000 -1.570796
  1 0.000000 0.000000 0.000000 0.000000 -0.000000 0.000000
  2 0.355480 -10.037741 35.234943 -1.468320 -0.119791 1.487394
  3 4.222169 -0.467508 0.000000 -0.021963 0.204601 -0.089106
  4 4.476987 -0.000002 -0.000000 0.000202 0.061524 0.146826
  5 4.477083 0.000000 0.000002 -0.034058 -0.284638 0.081409
  6 4.477077 -0.000004 -0.000002 -0.072536 -0.269818 -0.015107
  7 5.413502 -7.700466 -0.000000 0.030291 0.017178 -0.201722
  8 6.890240 0.000002 -0.000000 0.019763 0.055482 -0.287122
  9 8.011925 0.000004 0.000005 0.008840 -0.120919 0.043607
 10 7.210720 -0.000002 -0.000000 -0.028165 -0.211983 -0.173374
 11 8.581028 -0.304903 -0.000000 0.533172 -0.179925 1.146393
 12 22.523008 2.194031 6.355708 0.000000 -0.026977 0.000000
 13 22.523005 2.194038 -6.355709 0.000000 -0.046947 0.000000
 14 -3.006533 7.804720 -11.355459 0.404311 0.168009 1.244957
 15 10.384675 0.000008 0.000005 0.011788 0.191212 -1.780949
 16 22.550743 -0.000006 -0.000004 0.124050 0.013364 1.889759
 17 30.814247 -0.000015 -0.000004 2.640381 0.113452 0.267943
 18 -3.013796 7.815494 11.355459 0.109474 -0.413242 0.844933
 19 10.374533 -0.000002 0.000007 -0.351504 -0.139077 -1.215645
 20 22.550726 -0.000027 -0.000013 -0.075616 -0.013448 1.303600
 21 30.814270 -0.000023 0.000002 -2.701370 0.018426 0.726421
 22 -4.250660 -0.770624 0.000001 0.015987 -0.108931 -2.824049
 23 10.363422 0.000000 0.000000 -0.014274 -0.038562 -0.336378
 24 10.363076 0.000000 -0.000000 -0.032059 -0.294405 -0.270926
 25 10.363081 -0.000004 -0.000002 0.112028 -0.197536 -0.453821
 26 8.210358 -0.000006 -7.703991 0.000000 0.000000 0.007949
 27 8.210346 -0.000002 7.704017 0.000000 0.000000 0.014750
 28 1.854841 1.227791 -13.762345 2.551882 0.209176 2.017360
 29 10.456543 -0.000004 0.000004 0.062092 0.089096 -1.250190
 30 24.248093 0.000001 0.000007 0.026758 0.031159 0.936207
 31 26.336971 0.000019 0.000002 0.387876 -0.028795 0.622503
 32 1.854847 1.227798 13.762341 -2.719331 -0.070759 2.120900
 33 10.456542 -0.000008 0.000004 -0.088026 -0.077052 -0.948866
 34 24.248116 0.000002 -0.000004 -0.020652 -0.025732 0.713235
 35 26.336975 0.000000 0.000004 -0.327586 -0.051832 0.682408
time 17
  0 0.000000 0.000000 0.000000 0.000000 -0.000000 -1.570796
  1 0.000000 0.000000 0.000000 0.000000 -0.000000 0.000000
  2 -1.257851 -7.514225 34.594299 -1.472922 -0.060555 1.546351
  3 4.222169 -0.467508 0.000000 -0.022682 0.174440 -0.065324
  4 4.476987 -0.000002 -0.000000 0.002539 0.034838 0.167670
  5 4.477083 0.000000 0.000002 -0.028977 -0.260876 0.062378
  6 4.477077 -0.000004 -0.000002 -0.066484 -0.235259 -0.045272
  7 5.413502 -7.700466 -0.000000 0.072080 0.015836 -0.185916
  8 6.890240 0.000002 -0.000000 0.030201 -0.024728 -0.197667
  9 8.011925 0.000004 0.000005 0.002501 -0.215686 0.175492
 10 7.210720 -0.000002 -0.000000 -0.013479 -0.219381 -0.256561
 11 8.581028 -0.304903 -0.000000 0.487635 -0.137126 1.194726
 12 22.523008 2.194031 6.355708 0.000000 0.041826 0.000000
 13 22.523005 2.194038 -6.355709 0.000000 -0.138692 0.000000
 14 -3.006533 7.804720 -11.355459 0.461012 0.305974 1.250108
 15 10.384675 0.000008 0.000005 -0.007859 0.189091 -1.886641
 16 22.550743 -0.000006 -0.000004 0.126608 0.012474 2.017605
 17 30.814247 -0.000015 -0.000004 2.607796 -0.003569 0.281551
 18 -3.013796 7.815494 11.355459 0.207023 -0.325093 0.766786
 19 10.374533 -0.000002 0.000007 -0.244997 -0.142897 -1.092194
 20 22.550726 -0.000027 -0.000013 -0.084298 -0.012878 1.185605
 21 30.814270 -0.000023 0.000002 -2.671447 0.121360 0.726143
 22 -4.250660 -0.770624 0.000001 0.015712 0.009548 -2.808301
 23 10.363422 0.000000 0.000000 -0.007610 -0.004226 -0.388422
 24 10.363076 0.000000 -0.000000 -0.031268 -0.312190 -0.283185
 25 10.363081 -0.000004 -0.000002 0.113629 -0.196211 -0.555518
 26 8.210358 -0.000006 -7.703991 0.000000 0.000000 0.084449
 27 8.210346 -0.000002 7.704017 0.000000 0.000000 0.084976
 28 1.854841 1.227791 -13.762345 2.592469 0.232565 2.119051
 29 10.456543 -0.000004 0.000004 0.083528 0.079664 -1.005305
 30 24.248093 0.000001 0.000007 0.021754 0.026639 0.757597
 31 26.336971 0.000019 0.000002 0.421418 -0.067083 0.720088
 32 1.854847 1.227798 13.762341 -2.703799 -0.077764 2.085229
 33 10.456542 -0.000008 0.000004 -0.089891 -0.075716 -0.926323
 34 24.248116 0.000002 -0.000004 -0.020224 -0.025204 0.699222
 35 26.336975 0.000000 0.000004 -0.287919 -0.038307 0.710214
time 18
  0 0.000000 0.000000 0.000000 0.000000 -0.000000 -1.570796
  1 0.000000 0.000000 0.000000 0.000000 -0.000000 0.000000
  2 -2.707114 -5.803236 34.164597 -1.475989 -0.003313 1.603966
  3 4.222169 -0.467508 0.000000 -0.023821 0.144502 -0.041971
  4 4.476987 -0.000002 -0.000000 0.003918 0.008065 0.188802
  5 4.477083 0.000000 0.000002 -0.024495 -0.235822 0.043243
  6 4.477077 -0.000004 -0.000002 -0.060911 -0.199704 -0.074845
  7 5.413502 -7.700466 -0.000000 0.178425 0.090308 -0.197522
  8 6.890240 0.000002 -0.000000 0.044295 -0.047169 -0.080472
  9 8.011925 0.000004 0.000005 -0.055583 -0.221996 0.317008
 10 7.210720 -0.000002 -0.000000 0.052734 -0.222700 -0.414729
 11 8.581028 -0.304903 -0.000000 0.217860 -0.094770 1.225886
 12 22.523008 2.194031 6.355708 0.000000 -0.007882 0.000000
 13 22.523005 2.194038 -6.355709 0.000000 -0.097735 0.000000
 14 -3.006533 7.804720 -11.355459 0.517551 0.437579 1.261027
 15 10.384675 0.000008 0.000005 -0.017944 0.187308 -1.940958
 16 22.550743 -0.000006 -0.000004 0.128112 0.012044 2.082980
 17 30.814247 -0.000015 -0.000004 2.575823 -0.111876 0.315035
 18 -3.013796 7.815494 11.355459 0.281152 -0.225996 0.698386
 19 10.374533 -0.000002 0.000007 -0.164779 -0.159276 -1.111677
 20 22.550726 -0.000027 -0.000013 -0.098454 -0.013232 1.212033
 21 30.814270 -0.000023 0.000002 -2.684286 0.172496 0.718975
 22 -4.250660 -0.770624 0.000001 0.016107 0.115896 -2.789814
 23 10.363422 0.000000 0.000000 -0.002157 0.030637 -0.434987
 24 10.363076 0.000000 -0.000000 -0.030776 -0.325852 -0.293380
 25 10.363081 -0.000004 -0.000002 0.114417 -0.194193 -0.627308
 26 8.210358 -0.000006 -7.703991 0.000000 0.000000 0.138156
 27 8.210346 -0.000002 7.704017 0.000000 0.000000 0.134111
 28 1.854841 1.227791 -13.762345 2.633936 0.249959 2.219527
 29 10.456543 -0.000004 0.000004 0.101627 0.065589 -0.763416
 30 24.248093 0.000001 0.000007 0.017713 0.021292 0.580763
 31 26.336971 0.000019 0.000002 0.451566 -0.101429 0.807455
 32 1.854847 1.227798 13.762341 -2.684453 -0.085726 2.040468
 33 10.456542 -0.000008 0.000004 -0.089993 -0.075577 -0.925889
 34 24.248116 0.000002 -0.000004 -0.020367 -0.025204 0.706888
 35 26.336975 0.000000 0.000004 -0.258158 -0.030272 0.713888
time 19
  0 0.000000 0.000000 0.000000 0.000000 -0.000000 -1.570796
  1 0.000000 0.000000 0.000000 0.000000 -0.000000 0.000000
  2 -3.929807 -5.232906 34.000530 -1.473880 0.044754 1.657075
  3 4.222169 -0.467508 0.000000 -0.025115 0.115175 -0.019261
  4 4.476987 -0.000002 -0.000000 0.003594 -0.019157 0.210400
  5 4.477083 0.000000 0.000002 -0.021391 -0.209185 0.023663
  6 4.477077 -0.000004 -0.000002 -0.055710 -0.165182 -0.100136
  7 5.413502 -7.700466 -0.000000 0.269299 0.170880 -0.204523
  8 6.890240 0.000002 -0.000000 0.057718 -0.057481 0.027576
  9 8.011925 0.000004 0.000005 -0.118068 -0.200077 0.438536
 10 7.210720 -0.000002 -0.000000 0.122652 -0.215038 -0.575874
 11 8.581028 -0.304903 -0.000000 -0.053593 -0.057519 1.233106
 12 22.523008 2.194031 6.355708 0.000000 -0.031560 0.000000
 13 22.523005 2.194038 -6.355709 0.000000 -0.073929 0.000000
 14 -3.006533 7.804720 -11.355459 0.575337 0.561306 1.277920
 15 10.384675 0.000008 0.000005 -0.018205 0.187414 -1.942347
 16 22.550743 -0.000006 -0.000004 0.128368 0.012302 2.084675
 17 30.814247 -0.000015 -0.000004 2.547082 -0.201123 0.360373
 18 -3.013796 7.815494 11.355459 0.320813 -0.121704 0.639675
 19 10.374533 -0.000002 0.000007 -0.122917 -0.168578 -1.156094
 20 22.550726 -0.000027 -0.000013 -0.108218 -0.013133 1.251302
 21 30.814270 -0.000023 0.000002 -2.714525 0.173597 0.716046
 22 -4.250660 -0.770624 0.000001 0.015628 0.195813 -2.764233
 23 10.363422 0.000000 0.000000 0.001882 0.066339 -0.464167
 24 10.363076 0.000000 -0.000000 -0.031196 -0.334649 -0.299523
 25 10.363081 -0.000004 -0.000002 0.112779 -0.191127 -0.652088
 26 8.210358 -0.000006 -7.703991 0.000000 0.000000 0.163837
 27 8.210346 -0.000002 7.704017 0.000000 0.000000 0.157033
 28 1.854841 1.227791 -13.762345 2.661156 0.256744 2.284909
 29 10.456543 -0.000004 0.000004 0.112248 0.052688 -0.588089
 30 24.248093 0.000001 0.000007 0.015155 0.016712 0.448389
 31 26.336971 0.000019 0.000002 0.481627 -0.130809 0.871683
 32 1.854847 1.227798 13.762341 -2.661089 -0.085781 1.972184
 33 10.456542 -0.000008 0.000004 -0.085415 -0.078415 -0.981143
 34 24.248116 0.000002 -0.000004 -0.021507 -0.026523 0.750807
 35 26.336975 0.000000 0.000004 -0.233886 -0.026984 0.698402
time 20
  0 0.000000 0.000000 0.000000 0.000000 -0.000000 -1.570796
  1 0.000000 0.000000 0.000000 0.000000 -0.000000 0.000000
  2 -4.941557 -6.006367 34.109909 -1.462377 0.073714 1.700022
  3 4.222169 -0.467508 0.000000 -0.026265 0.087109 0.002344
  4 4.476987 -0.000002 -0.000000 0.010114 -0.043830 0.231176
  5 4.477083 0.000000 0.000002 -0.011599 -0.186844 0.007478
  6 4.477077 -0.000004 -0.000002 -0.050628 -0.139887 -0.117983
  7 5.413502 -7.700466 -0.000000 0.245561 0.188942 -0.196339
  8 6.890240 0.000002 -0.000000 0.065448 -0.076211 0.091200
  9 8.011925 0.000004 0.000005 -0.149225 -0.188335 0.511007
 10 7.210720 -0.000002 -0.000000 0.151668 -0.210183 -0.670110
 11 8.581028 -0.304903 -0.000000 -0.121795 -0.030204 1.227884
 12 22.523008 2.194031 6.355708 0.000000 -0.026183 0.000000
 13 22.523005 2.194038 -6.355709 0.000000 -0.051272 0.000000
 14 -3.006533 7.804720 -11.355459 0.631713 0.692876 1.285406
 15 10.384675 0.000008 0.000005 -0.008568 0.189303 -1.890195
 16 22.550743 -0.000006 -0.000004 0.127024 0.012876 2.021600
 17 30.814247 -0.000015 -0.000004 2.519259 -0.253600 0.426231
 18 -3.013796 7.815494 11.355459 0.338632 -0.005605 0.574410
 19 10.374533 -0.000002 0.000007 -0.123928 -0.165688 -1.112953
 20 22.550726 -0.000027 -0.000013 -0.109668 -0.012957 1.201611
 21 30.814270 -0.000023 0.000002 -2.762410 0.158158 0.737215
 22 -4.250660 -0.770624 0.000001 0.015963 0.265059 -2.735452
 23 10.363422 0.000000 0.000000 0.003679 0.102376 -0.469141
 24 10.363076 0.000000 -0.000000 -0.039070 -0.332480 -0.274900
 25 10.363081 -0.000004 -0.000002 0.107165 -0.187137 -0.640731
 26 8.210358 -0.000006 -7.703991 0.000000 0.000000 0.128780
 27 8.210346 -0.000002 7.704017 0.000000 0.000000 0.121598
 28 1.854841 1.227791 -13.762345 2.660145 0.250132 2.276941
 29 10.456543 -0.000004 0.000004 0.113751 0.050375 -0.561994
 30 24.248093 0.000001 0.000007 0.014784 0.015925 0.426603
 31 26.336971 0.000019 0.000002 0.517039 -0.154827 0.886539
 32 1.854847 1.227798 13.762341 -2.635058 -0.063481 1.860302
 33 10.456542 -0.000008 0.000004 -0.074935 -0.084120 -1.104185
 34 24.248116 0.000002 -0.000004 -0.024188 -0.029291 0.848088
 35 26.336975 0.000000 0.000004 -0.213131 -0.034646 0.653867
time 21
  0 0.000000 0.000000 0.000000 0.000000 -0.000000 -1.570796
  1 0.000000 0.000000 0.000000 0.000000 -0.000000 0.000000
  2 -5.789239 -7.857986 34.410698 -1.446847 0.093100 1.737218
  3 4.222169 -0.467508 0.000000 -0.026901 0.060822 0.022477
  4 4.476987 -0.000002 -0.000000 0.034610 -0.062593 0.249312
  5 4.477083 0.000000 0.000002 0.014958 -0.175795 -0.000407
  6 4.477077 -0.000004 -0.000002 -0.045463 -0.128086 -0.128666
  7 5.413502 -7.700466 -0.000000 0.155777 0.181143 -0.179942
  8 6.890240 0.000002 -0.000000 0.070062 -0.096012 0.130273
  9 8.011925 0.000004 0.000005 -0.165255 -0.181210 0.555990
 10 7.210720 -0.000002 -0.000000 0.162731 -0.208170 -0.728599
 11 8.581028 -0.304903 -0.000000 -0.109486 -0.008249 1.213268
 12 22.523008 2.194031 6.355708 0.000000 -0.008860 0.000000
 13 22.523005 2.194038 -6.355709 0.000000 -0.029644 0.000000
 14 -3.006533 7.804720 -11.355459 0.677888 0.855395 1.260134
 15 10.384675 0.000008 0.000005 0.009808 0.191318 -1.790002
 16 22.550743 -0.000006 -0.000004 0.124545 0.013306 1.903500
 17 30.814247 -0.000015 -0.000004 2.493008 -0.258584 0.512430
 18 -3.013796 7.815494 11.355459 0.337360 0.134746 0.485147
 19 10.374533 -0.000002 0.000007 -0.147387 -0.150206 -0.958944
 20 22.550726 -0.000027 -0.000013 -0.106584 -0.012093 1.041803
 21 30.814270 -0.000023 0.000002 -2.827835 0.160312 0.787085
 22 -4.250660 -0.770624 0.000001 0.018696 0.336262 -2.706338
 23 10.363422 0.000000 0.000000 0.004518 0.137132 -0.465620
 24 10.363076 0.000000 -0.000000 -0.055297 -0.320411 -0.216157
 25 10.363081 -0.000004 -0.000002 0.097624 -0.181929 -0.602904
 26 8.210358 -0.000006 -7.703991 0.000000 0.000000 0.027346
 27 8.210346 -0.000002 7.704017 0.000000 0.000000 0.020447
 28 1.854841 1.227791 -13.762345 2.638729 0.233379 2.209126
 29 10.456543 -0.000004 0.000004 0.107724 0.058738 -0.670586
 30 24.248093 0.000001 0.000007 0.016193 0.018548 0.502913
 31 26.336971 0.000019 0.000002 0.558280 -0.175088 0.854618
 32 1.854847 1.227798 13.762341 -2.613348 -0.024818 1.728517
 33 10.456542 -0.000008 0.000004 -0.061437 -0.089463 -1.256784
 34 24.248116 0.000002 -0.000004 -0.027544 -0.032012 0.958163
 35 26.336975 0.000000 0.000004 -0.194734 -0.050095 0.587403
time 22
  0 0.000000 0.000000 0.000000 0.000000 -0.000000 -1.570796
  1 0.000000 0.000000 0.000000 0.000000 -0.000000 0.000000
  2 -6.457228 -10.108055 34.777901 -1.431606 0.110452 1.771921
  3 4.222169 -0.467508 0.000000 -0.026625 0.036463 0.041092
  4 4.476987 -0.000002 -0.000000 0.066957 -0.080048 0.266404
  5 4.477083 0.000000 0.000002 0.045387 -0.169399 -0.004720
  6 4.477077 -0.000004 -0.000002 -0.040417 -0.125567 -0.134381
  7 5.413502 -7.700466 -0.000000 0.059254 0.176895 -0.161397
  8 6.890240 0.000002 -0.000000 0.073058 -0.112440 0.154964
  9 8.011925 0.000004 0.000005 -0.173768 -0.174772 0.584412
 10 7.210720 -0.000002 -0.000000 0.169099 -0.204745 -0.765419
 11 8.581028 -0.304903 -0.000000 -0.103355 0.007320 1.180812
 12 22.523008 2.194031 6.355708 0.000000 0.006966 0.000000
 13 22.523005 2.194038 -6.355709 0.000000 -0.009135 0.000000
 14 -3.006533 7.804720 -11.355459 0.691399 1.024097 1.198671
 15 10.384675 0.000008 0.000005 0.034087 0.191637 -1.655486
 16 22.550743 -0.000006 -0.000004 0.121395 0.013708 1.756224
 17 30.814247 -0.000015 -0.000004 2.471386 -0.238741 0.603320
 18 -3.013796 7.815494 11.355459 0.313074 0.274761 0.374339
 19 10.374533 -0.000002 0.000007 -0.177317 -0.120539 -0.722016
 20 22.550726 -0.000027 -0.000013 -0.102621 -0.009914 0.790056
 21 30.814270 -0.000023 0.000002 -2.896593 0.179714 0.867496
 22 -4.250660 -0.770624 0.000001 0.022759 0.401544 -2.676123
 23 10.363422 0.000000 0.000000 0.005477 0.169826 -0.462517
 24 10.363076 0.000000 -0.000000 -0.077660 -0.303441 -0.135037
 25 10.363081 -0.000004 -0.000002 0.084167 -0.176568 -0.542148
 26 8.210358 -0.000006 -7.703991 0.000000 0.000000 -0.111422
 27 8.210346 -0.000002 7.704017 0.000000 0.000000 -0.118377
 28 1.854841 1.227791 -13.762345 2.613137 0.211964 2.124343
 29 10.456543 -0.000004 0.000004 0.098552 0.068543 -0.808877
 30 24.248093 0.000001 0.000007 0.018158 0.021776 0.599352
 31 26.336971 0.000019 0.000002 0.600000 -0.192695 0.811597
 32 1.854847 1.227798 13.762341 -2.599607 0.017757 1.602030
 33 10.456542 -0.000008 0.000004 -0.047974 -0.092525 -1.401856
 34 24.248116 0.000002 -0.000004 -0.030653 -0.034001 1.054429
 35 26.336975 0.000000 0.000004 -0.176251 -0.065544 0.519583
time 23
  0 0.000000 0.000000 0.000000 0.000000 -0.000000 -1.570796
  1 0.000000 0.000000 0.000000 0.000000 -0.000000 0.000000
  2 -6.890835 -11.971394 35.078690 -1.419527 0.120464 1.798954
  3 4.222169 -0.467508 0.000000 -0.025187 0.018945 0.053558
  4 4.476987 -0.000002 -0.000000 0.091861 -0.094505 0.279633
  5 4.477083 0.000000 0.000002 0.067906 -0.162856 -0.008856
  6 4.477077 -0.000004 -0.000002 -0.035923 -0.127728 -0.137277
  7 5.413502 -7.700466 -0.000000 -0.027301 0.171594 -0.144533
  8 6.890240 0.000002 -0.000000 0.075431 -0.128608 0.175652
  9 8.011925 0.000004 0.000005 -0.179610 -0.168861 0.607410
 10 7.210720 -0.000002 -0.000000 0.173272 -0.201479 -0.795481
 11 8.581028 -0.304903 -0.000000 -0.096397 0.021080 1.142958
 12 22.523008 2.194031 6.355708 0.000000 0.022822 0.000000
 13 22.523005 2.194038 -6.355709 0.000000 0.010285 0.000000
 14 -3.006533 7.804720 -11.355459 0.642673 1.158423 1.091678
 15 10.384675 0.000008 0.000005 0.056684 0.189239 -1.527745
 16 22.550743 -0.000006 -0.000004 0.118372 0.013852 1.621659
 17 30.814247 -0.000015 -0.000004 2.456798 -0.216233 0.675373
 18 -3.013796 7.815494 11.355459 0.268933 0.373485 0.248938
 19 10.374533 -0.000002 0.000007 -0.202461 -0.079741 -0.454588
 20 22.550726 -0.000027 -0.000013 -0.099271 -0.006596 0.500281
 21 30.814270 -0.000023 0.000002 -2.954791 0.203839 0.957780
 22 -4.250660 -0.770624 0.000001 0.026330 0.452688 -2.643988
 23 10.363422 0.000000 0.000000 0.006484 0.200303 -0.458754
 24 10.363076 0.000000 -0.000000 -0.103032 -0.283355 -0.040289
 25 10.363081 -0.000004 -0.000002 0.065551 -0.172516 -0.454331
 26 8.210358 -0.000006 -7.703991 0.000000 0.000000 -0.259667
 27 8.210346 -0.000002 7.704017 0.000000 0.000000 -0.266696
 28 1.854841 1.227791 -13.762345 2.594668 0.192818 2.058292
 29 10.456543 -0.000004 0.000004 0.090655 0.075002 -0.914559
 30 24.248093 0.000001 0.000007 0.019937 0.024581 0.684010
 31 26.336971 0.000019 0.000002 0.639806 -0.207437 0.772111
 32 1.854847 1.227798 13.762341 -2.593631 0.054313 1.500617
 33 10.456542 -0.000008 0.000004 -0.038613 -0.093443 -1.499871
 34 24.248116 0.000002 -0.000004 -0.032907 -0.035223 1.124444
 35 26.336975 0.000000 0.000004 -0.158455 -0.080124 0.454702
time 24
  0 0.000000 0.000000 0.000000 0.000000 -0.000000 -1.570796
  1 0.000000 0.000000 0.000000 0.000000 -0.000000 0.000000
  2 -7.058809 -12.905014 35.215412 -1.414159 0.119188 1.815347
  3 4.222169 -0.467508 0.000000 -0.023413 0.014107 0.054187
  4 4.476987 -0.000002 -0.000000 0.097433 -0.096540 0.281476
  5 4.477083 0.000000 0.000002 0.081137 -0.156960 -0.012442
  6 4.477077 -0.000004 -0.000002 -0.032531 -0.130021 -0.139380
  7 5.413502 -7.700466 -0.000000 -0.059161 0.155333 -0.138341
  8 6.890240 0.000002 -0.000000 0.076965 -0.137391 0.178538
  9 8.011925 0.000004 0.000005 -0.179623 -0.163366 0.616832
 10 7.210720 -0.000002 -0.000000 0.175578 -0.195176 -0.805189
 11 8.581028 -0.304903 -0.000000 -0.090197 0.031289 1.093222
 12 22.523008 2.194031 6.355708 0.000000 0.038679 0.000000
 13 22.523005 2.194038 -6.355709 0.000000 0.028646 0.000000
 14 -3.006533 7.804720 -11.355459 0.587437 1.217990 1.010782
 15 10.384675 0.000008 0.000005 0.068002 0.187096 -1.462153
 16 22.550743 -0.000006 -0.000004 0.116853 0.013823 1.554952
 17 30.814247 -0.000015 -0.000004 2.451294 -0.202628 0.701266
 18 -3.013796 7.815494 11.355459 0.234567 0.414663 0.167599
 19 10.374533 -0.000002 0.000007 -0.212977 -0.049874 -0.278834
 20 22.550726 -0.000027 -0.000013 -0.097596 -0.003985 0.307718
 21 30.814270 -0.000023 0.000002 -2.980154 0.215118 1.018639
 22 -4.250660 -0.770624 0.000001 0.029890 0.492438 -2.614848
 23 10.363422 0.000000 0.000000 0.007538 0.228155 -0.454287
 24 10.363076 0.000000 -0.000000 -0.127636 -0.262538 0.057427
 25 10.363081 -0.000004 -0.000002 0.045495 -0.167879 -0.356392
 26 8.210358 -0.000006 -7.703991 0.000000 0.000000 -0.398672
 27 8.210346 -0.000002 7.704017 0.000000 0.000000 -0.405622
 28 1.854841 1.227791 -13.762345 2.589523 0.184553 2.036153
 29 10.456543 -0.000004 0.000004 0.086899 0.077422 -0.963362
 30 24.248093 0.000001 0.000007 0.020753 0.025670 0.720833
 31 26.336971 0.000019 0.000002 0.659992 -0.212036 0.748805
 32 1.854847 1.227798 13.762341 -2.590558 0.071989 1.450944
 33 10.456542 -0.000008 0.000004 -0.034408 -0.093610 -1.542711
 34 24.248116 0.000002 -0.000004 -0.033775 -0.035643 1.149425
 35 26.336975 0.000000 0.000004 -0.153523 -0.088314 0.429439
time 25
  0 0.000000 0.000000 0.000000 0.000000 -0.000000 -1.570796
  1 0.000000 0.000000 0.000000 0.000000 -0.000000 0.000000
  2 -6.988494 -13.088614 35.168533 -1.416651 0.105625 1.822345
  3 4.222169 -0.467508 0.000000 -0.021711 0.013236 0.051074
  4 4.476987 -0.000002 -0.000000 0.094353 -0.092492 0.277791
  5 4.477083 0.000000 0.000002 0.087393 -0.152050 -0.015481
  6 4.477077 -0.000004 -0.000002 -0.030842 -0.127747 -0.142775
  7 5.413502 -7.700466 -0.000000 -0.036738 0.126227 -0.142261
  8 6.890240 0.000002 -0.000000 0.075155 -0.117342 0.106722
  9 8.011925 0.000004 0.000005 -0.158118 -0.160250 0.566424
 10 7.210720 -0.000002 -0.000000 0.161193 -0.173036 -0.724442
 11 8.581028 -0.304903 -0.000000 -0.079427 0.027653 0.994872
 12 22.523008 2.194031 6.355708 0.000000 0.055055 0.000000
 13 22.523005 2.194038 -6.355709 0.000000 0.046432 0.000000
 14 -3.006533 7.804720 -11.355459 0.608816 1.196580 1.043333
 15 10.384675 0.000008 0.000005 0.067890 0.187436 -1.463764
 16 22.550743 -0.000006 -0.000004 0.116773 0.014081 1.555921
 17 30.814247 -0.000015 -0.000004 2.450464 -0.194195 0.694927
 18 -3.013796 7.815494 11.355459 0.237265 0.411412 0.184585
 19 10.374533 -0.000002 0.000007 -0.213044 -0.050206 -0.281038
 20 22.550726 -0.000027 -0.000013 -0.097289 -0.003985 0.310571
 21 30.814270 -0.000023 0.000002 -2.971244 0.202982 1.012559
 22 -4.250660 -0.770624 0.000001 0.032682 0.515835 -2.594953
 23 10.363422 0.000000 0.000000 0.008317 0.253622 -0.450414
 24 10.363076 0.000000 -0.000000 -0.151270 -0.241517 0.158601
 25 10.363081 -0.000004 -0.000002 0.026178 -0.161609 -0.257433
 26 8.210358 -0.000006 -7.703991 0.000000 0.000000 -0.502043
 27 8.210346 -0.000002 7.704017 0.000000 0.000000 -0.508570
 28 1.854841 1.227791 -13.762345 2.593657 0.178163 2.036092
 29 10.456543 -0.000004 0.000004 0.086131 0.077849 -0.972741
 30 24.248093 0.000001 0.000007 0.021049 0.025973 0.730127
 31 26.336971 0.000019 0.000002 0.654815 -0.204862 0.743890
 32 1.854847 1.227798 13.762341 -2.583637 0.066024 1.457105
 33 10.456542 -0.000008 0.000004 -0.032441 -0.093554 -1.561904
 34 24.248116 0.000002 -0.000004 -0.034215 -0.035823 1.160798
 35 26.336975 0.000000 0.000004 -0.157512 -0.093215 0.428931
time 26
  0 0.000000 0.000000 0.000000 0.000000 -0.000000 -1.570796
  1 0.000000 0.000000 0.000000 0.000000 -0.000000 0.000000
  2 -6.738487 -13.080801 34.984936 -1.427771 0.078780 1.821962
  3 4.222169 -0.467508 0.000000 -0.019997 0.011956 0.048406
  4 4.476987 -0.000002 -0.000000 0.089092 -0.086474 0.272197
  5 4.477083 0.000000 0.000002 0.087274 -0.143682 -0.019023
  6 4.477077 -0.000004 -0.000002 -0.029487 -0.120606 -0.146777
  7 5.413502 -7.700466 -0.000000 0.009145 0.091157 -0.151160
  8 6.890240 0.000002 -0.000000 0.063926 -0.078236 -0.015638
  9 8.011925 0.000004 0.000005 -0.121892 -0.158908 0.460521
 10 7.210720 -0.000002 -0.000000 0.123613 -0.126992 -0.559704
 11 8.581028 -0.304903 -0.000000 -0.056762 0.016898 0.859824
 12 22.523008 2.194031 6.355708 0.000000 0.067275 0.000000
 13 22.523005 2.194038 -6.355709 0.000000 0.059107 0.000000
 14 -3.006533 7.804720 -11.355459 0.650975 1.142631 1.111731
 15 10.384675 0.000008 0.000005 0.063034 0.188433 -1.492478
 16 22.550743 -0.000006 -0.000004 0.117349 0.014196 1.581708
 17 30.814247 -0.000015 -0.000004 2.450683 -0.183694 0.677630
 18 -3.013796 7.815494 11.355459 0.258750 0.385143 0.259255
 19 10.374533 -0.000002 0.000007 -0.208460 -0.064326 -0.362971
 20 22.550726 -0.000027 -0.000013 -0.098188 -0.005281 0.400525
 21 30.814270 -0.000023 0.000002 -2.954686 0.185415 0.987428
 22 -4.250660 -0.770624 0.000001 0.030896 0.525833 -2.596899
 23 10.363422 0.000000 0.000000 0.011865 0.271982 -0.435757
 24 10.363076 0.000000 -0.000000 -0.173992 -0.220628 0.264344
 25 10.363081 -0.000004 -0.000002 0.007649 -0.153752 -0.156916
 26 8.210358 -0.000006 -7.703991 0.000000 0.000000 -0.527826
 27 8.210346 -0.000002 7.704017 0.000000 0.000000 -0.534375
 28 1.854841 1.227791 -13.762345 2.611598 0.164939 2.057623
 29 10.456543 -0.000004 0.000004 0.085816 0.078045 -0.975824
 30 24.248093 0.000001 0.000007 0.021309 0.026316 0.738771
 31 26.336971 0.000019 0.000002 0.637065 -0.190671 0.743448
 32 1.854847 1.227798 13.762341 -2.573406 0.049388 1.485366
 33 10.456542 -0.000008 0.000004 -0.030881 -0.093415 -1.577235
 34 24.248116 0.000002 -0.000004 -0.034668 -0.036002 1.173745
 35 26.336975 0.000000 0.000004 -0.163044 -0.098117 0.430626
time 27
  0 0.000000 0.000000 0.000000 0.000000 -0.000000 -1.570796
  1 0.000000 0.000000 0.000000 0.000000 -0.000000 0.000000
  2 -6.351756 -13.069082 34.703674 -1.443205 0.045272 1.819086
  3 4.222169 -0.467508 0.000000 -0.018272 0.010677 0.045723
  4 4.476987 -0.000002 -0.000000 0.081985 -0.078913 0.265050
  5 4.477083 0.000000 0.000002 0.076619 -0.122295 -0.025382
  6 4.477077 -0.000004 -0.000002 -0.027390 -0.110496 -0.150156
  7 5.413502 -7.700466 -0.000000 0.060875 0.055085 -0.162517
  8 6.890240 0.000002 -0.000000 0.028344 -0.066121 -0.091666
  9 8.011925 0.000004 0.000005 -0.097453 -0.139770 0.349920
 10 7.210720 -0.000002 -0.000000 0.075820 -0.063646 -0.386115
 11 8.581028 -0.304903 -0.000000 -0.015175 0.016010 0.723305
 12 22.523008 2.194031 6.355708 0.000000 0.063762 0.000000
 13 22.523005 2.194038 -6.355709 0.000000 0.056294 0.000000
 14 -3.006533 7.804720 -11.355459 0.681469 1.073807 1.175254
 15 10.384675 0.000008 0.000005 0.057655 0.189218 -1.523635
 16 22.550743 -0.000006 -0.000004 0.118004 0.014167 1.609432
 17 30.814247 -0.000015 -0.000004 2.451513 -0.168616 0.654281
 18 -3.013796 7.815494 11.355459 0.282425 0.352858 0.353078
 19 10.374533 -0.000002 0.000007 -0.200708 -0.082532 -0.472505
 20 22.550726 -0.000027 -0.000013 -0.099536 -0.006930 0.520195
 21 30.814270 -0.000023 0.000002 -2.937742 0.166575 0.954238
 22 -4.250660 -0.770624 0.000001 0.002505 0.497846 -2.696378
 23 10.363422 0.000000 0.000000 0.033785 0.275074 -0.353213
 24 10.363076 0.000000 -0.000000 -0.196068 -0.199990 0.376927
 25 10.363081 -0.000004 -0.000002 -0.013466 -0.150362 -0.022707
 26 8.210358 -0.000006 -7.703991 0.000000 0.000000 -0.405772
 27 8.210346 -0.000002 7.704017 0.000000 0.000000 -0.412743
 28 1.854841 1.227791 -13.762345 2.633145 0.149223 2.085235
 29 10.456543 -0.000004 0.000004 0.085449 0.078276 -0.979341
 30 24.248093 0.000001 0.000007 0.021605 0.026639 0.748776
 31 26.336971 0.000019 0.000002 0.616749 -0.174274 0.741074
 32 1.854847 1.227798 13.762341 -2.561961 0.028948 1.520047
 33 10.456542 -0.000008 0.000004 -0.029558 -0.093248 -1.591305
 34 24.248116 0.000002 -0.000004 -0.035096 -0.036194 1.186793
 35 26.336975 0.000000 0.000004 -0.169605 -0.103142 0.433565
time 28
  0 0.000000 0.000000 0.000000 0.000000 -0.000000 -1.570796
  1 0.000000 0.000000 0.000000 0.000000 -0.000000 0.000000
  2 -5.871273 -13.057364 34.352104 -1.459309 0.010249 1.816210
  3 4.222169 -0.467508 0.000000 -0.016546 0.009435 0.043055
  4 4.476987 -0.000002 -0.000000 0.074063 -0.070731 0.257147
  5 4.477083 0.000000 0.000002 0.064203 -0.099098 -0.032126
  6 4.477077 -0.000004 -0.000002 -0.024645 -0.098431 -0.152773
  7 5.413502 -7.700466 -0.000000 0.113935 0.020016 -0.175554
  8 6.890240 0.000002 -0.000000 -0.061073 -0.142933 -0.099113
  9 8.011925 0.000004 0.000005 -0.141026 -0.043022 0.264212
 10 7.210720 -0.000002 -0.000000 -0.021879 0.035716 -0.234222
 11 8.581028 -0.304903 -0.000000 0.095900 0.059236 0.608061
 12 22.523008 2.194031 6.355708 0.000000 0.056338 0.000000
 13 22.523005 2.194038 -6.355709 0.000000 0.049699 0.000000
 14 -3.006533 7.804720 -11.355459 0.696336 0.981312 1.233145
 15 10.384675 0.000008 0.000005 0.052389 0.189854 -1.554348
 16 22.550743 -0.000006 -0.000004 0.118628 0.014110 1.636793
 17 30.814247 -0.000015 -0.000004 2.452910 -0.147675 0.626884
 18 -3.013796 7.815494 11.355459 0.313023 0.313099 0.498828
 19 10.374533 -0.000002 0.000007 -0.180688 -0.115721 -0.689196
 20 22.550726 -0.000027 -0.000013 -0.102049 -0.009914 0.754695
 21 30.814270 -0.000023 0.000002 -2.920868 0.138046 0.874218
 22 -4.250660 -0.770624 0.000001 -0.055800 0.427349 -2.901225
 23 10.363422 0.000000 0.000000 0.067006 0.271455 -0.226700
 24 10.363076 0.000000 -0.000000 -0.216861 -0.179317 0.493122
 25 10.363081 -0.000004 -0.000002 -0.036748 -0.147697 0.134350
 26 8.210358 -0.000006 -7.703991 0.000000 0.000000 -0.148857
 27 8.210346 -0.000002 7.704017 0.000000 0.000000 -0.155881
 28 1.854841 1.227791 -13.762345 2.653768 0.133063 2.111631
 29 10.456543 -0.000004 0.000004 0.084803 0.078704 -0.986765
 30 24.248093 0.000001 0.000007 0.021976 0.026982 0.760498
 31 26.336971 0.000019 0.000002 0.595911 -0.157350 0.737705
 32 1.854847 1.227798 13.762341 -2.550852 0.006703 1.557269
 33 10.456542 -0.000008 0.000004 -0.028439 -0.093109 -1.603640
 34 24.248116 0.000002 -0.000004 -0.035484 -0.036410 1.199842
 35 26.336975 0.000000 0.000004 -0.177281 -0.108199 0.437973
time 29
  0 0.000000 0.000000 0.000000 0.000000 -0.000000 -1.570796
  1 0.000000 0.000000 0.000000 0.000000 -0.000000 0.000000
  2 -5.320475 -13.041739 33.949749 -1.475989 -0.025851 1.813622
  3 4.222169 -0.467508 0.000000 -0.014796 0.008212 0.040387
  4 4.476987 -0.000002 -0.000000 0.065638 -0.062271 0.248757
  5 4.477083 0.000000 0.000002 0.052794 -0.077905 -0.038366
  6 4.477077 -0.000004 -0.000002 -0.021506 -0.085126 -0.154672
  7 5.413502 -7.700466 -0.000000 0.166955 -0.013270 -0.190147
  8 6.890240 0.000002 -0.000000 -0.181171 -0.278847 -0.092387
  9 8.011925 0.000004 0.000005 -0.226326 0.111413 0.183876
 10 7.210720 -0.000002 -0.000000 -0.137750 0.149785 -0.103944
 11 8.581028 -0.304903 -0.000000 0.244314 0.135958 0.514933
 12 22.523008 2.194031 6.355708 0.000000 0.049311 0.000000
 13 22.523005 2.194038 -6.355709 0.000000 0.043498 0.000000
 14 -3.006533 7.804720 -11.355459 0.696608 0.883236 1.279088
 15 10.384675 0.000008 0.000005 0.047048 0.190342 -1.585062
 16 22.550743 -0.000006 -0.000004 0.119268 0.014081 1.664093
 17 30.814247 -0.000015 -0.000004 2.454788 -0.119431 0.597376
 18 -3.013796 7.815494 11.355459 0.339040 0.268035 0.653583
 19 10.374533 -0.000002 0.000007 -0.144960 -0.152000 -0.975876
 20 22.550726 -0.000027 -0.000013 -0.106747 -0.012505 1.058801
 21 30.814270 -0.000023 0.000002 -2.917536 0.103817 0.769876
 22 -4.250660 -0.770624 0.000001 -0.100107 0.342441 -3.098672
 23 10.363422 0.000000 0.000000 0.100227 0.262479 -0.099263
 24 10.363076 0.000000 -0.000000 -0.234610 -0.156965 0.601188
 25 10.363081 -0.000004 -0.000002 -0.058626 -0.142998 0.287675
 26 8.210358 -0.000006 -7.703991 0.000000 0.000000 0.108908
 27 8.210346 -0.000002 7.704017 0.000000 0.000000 0.101965
 28 1.854841 1.227791 -13.762345 2.674216 0.116113 2.137845
 29 10.456543 -0.000004 0.000004 0.082619 0.080180 -1.013859
 30 24.248093 0.000001 0.000007 0.022384 0.027345 0.774469
 31 26.336971 0.000019 0.000002 0.574290 -0.139927 0.733618
 32 1.854847 1.227798 13.762341 -2.540487 -0.016746 1.595827
 33 10.456542 -0.000008 0.000004 -0.027490 -0.093053 -1.614360
 34 24.248116 0.000002 -0.000004 -0.035847 -0.036698 1.213145
 35 26.336975 0.000000 0.000004 -0.186029 -0.113255 0.443795
time 30
  0 0.000000 0.000000 0.000000 0.000000 -0.000000 -1.570796
  1 0.000000 0.000000 0.000000 0.000000 -0.000000 0.000000
  2 -4.738426 -13.026112 33.523952 -1.493244 -0.063587 1.811800
  3 4.222169 -0.467508 0.000000 -0.013034 0.007007 0.037734
  4 4.476987 -0.000002 -0.000000 0.056926 -0.053683 0.240100
  5 4.477083 0.000000 0.000002 0.042116 -0.058214 -0.044190
  6 4.477077 -0.000004 -0.000002 -0.018162 -0.071201 -0.155918
  7 5.413502 -7.700466 -0.000000 0.183317 -0.026778 -0.189992
  8 6.890240 0.000002 -0.000000 -0.248357 -0.349568 -0.087803
  9 8.011925 0.000004 0.000005 -0.281123 0.199375 0.094404
 10 7.210720 -0.000002 -0.000000 -0.199708 0.206351 -0.045858
 11 8.581028 -0.304903 -0.000000 0.344825 0.174267 0.481425
 12 22.523008 2.194031 6.355708 0.000000 0.042253 0.000000
 13 22.523005 2.194038 -6.355709 0.000000 0.037267 0.000000
 14 -3.006533 7.804720 -11.355459 0.676152 0.778411 1.304634
 15 10.384675 0.000008 0.000005 0.041706 0.190639 -1.615886
 16 22.550743 -0.000006 -0.000004 0.119891 0.013995 1.691514
 17 30.814247 -0.000015 -0.000004 2.457060 -0.082252 0.566148
 18 -3.013796 7.815494 11.355459 0.355841 0.217963 0.801499
 19 10.374533 -0.000002 0.000007 -0.106334 -0.175223 -1.233505
 20 22.550726 -0.000027 -0.000013 -0.111609 -0.013546 1.325189
 21 30.814270 -0.000023 0.000002 -2.914659 0.071642 0.667487
 22 -4.250660 -0.770624 0.000001 -0.122614 0.260004 3.088876
 23 10.363422 0.000000 0.000000 0.118815 0.246503 -0.027457
 24 10.363076 0.000000 -0.000000 -0.241945 -0.129185 0.653711
 25 10.363081 -0.000004 -0.000002 -0.066986 -0.131844 0.344296
 26 8.210358 -0.000006 -7.703991 0.000000 0.000000 0.236126
 27 8.210346 -0.000002 7.704017 0.000000 0.000000 0.229158
 28 1.854841 1.227791 -13.762345 2.692201 0.100643 2.160653
 29 10.456543 -0.000004 0.000004 0.080121 0.081764 -1.044426
 30 24.248093 0.000001 0.000007 0.022866 0.027789 0.791342
 31 26.336971 0.000019 0.000002 0.551711 -0.122058 0.728979
 32 1.854847 1.227798 13.762341 -2.530527 -0.041317 1.634987
 33 10.456542 -0.000008 0.000004 -0.026642 -0.093109 -1.623897
 34 24.248116 0.000002 -0.000004 -0.036158 -0.036997 1.223655
 35 26.336975 0.000000 0.000004 -0.195763 -0.118653 0.450859
time 31
  0 0.000000 0.000000 0.000000 0.000000 -0.000000 -1.570796
  1 0.000000 0.000000 0.000000 0.000000 -0.000000 0.000000
  2 -4.152471 -13.010487 33.094254 -1.511171 -0.101921 1.805569
  3 4.222169 -0.467508 0.000000 -0.011261 0.005802 0.035081
  4 4.476987 -0.000002 -0.000000 0.048261 -0.045287 0.231509
  5 4.477083 0.000000 0.000002 0.032264 -0.040219 -0.049497
  6 4.477077 -0.000004 -0.000002 -0.014854 -0.057501 -0.156541
  7 5.413502 -7.700466 -0.000000 0.182572 -0.031587 -0.182244
  8 6.890240 0.000002 -0.000000 -0.246919 -0.248211 -0.087663
  9 8.011925 0.000004 0.000005 -0.290330 0.177280 -0.022323
 10 7.210720 -0.000002 -0.000000 -0.203633 0.165410 -0.086674
 11 8.581028 -0.304903 -0.000000 0.379018 0.093209 0.572520
 12 22.523008 2.194031 6.355708 0.000000 0.035196 0.000000
 13 22.523005 2.194038 -6.355709 0.000000 0.031066 0.000000
 14 -3.006533 7.804720 -11.355459 0.629597 0.659877 1.303604
 15 10.384675 0.000008 0.000005 0.036365 0.190788 -1.646766
 16 22.550743 -0.000006 -0.000004 0.120531 0.013909 1.718814
 17 30.814247 -0.000015 -0.000004 2.459549 -0.035011 0.533738
 18 -3.013796 7.815494 11.355459 0.351921 0.145807 0.925418
 19 10.374533 -0.000002 0.000007 -0.075461 -0.185821 -1.419753
 20 22.550726 -0.000027 -0.000013 -0.115878 -0.013899 1.512044
 21 30.814270 -0.000023 0.000002 -2.914238 0.064523 0.597564
 22 -4.250660 -0.770624 0.000001 -0.113290 0.179461 3.113765
 23 10.363422 0.000000 0.000000 0.107825 0.217968 -0.065637
 24 10.363076 0.000000 -0.000000 -0.222830 -0.090763 0.571584
 25 10.363081 -0.000004 -0.000002 -0.062800 -0.098860 0.321422
 26 8.210358 -0.000006 -7.703991 0.000000 0.000000 0.235888
 27 8.210346 -0.000002 7.704017 0.000000 0.000000 0.228819
 28 1.854841 1.227791 -13.762345 2.690223 0.103629 2.156639
 29 10.456543 -0.000004 0.000004 0.077291 0.083419 -1.078554
 30 24.248093 0.000001 0.000007 0.023496 0.028354 0.814904
 31 26.336971 0.000019 0.000002 0.527697 -0.101692 0.722186
 32 1.854847 1.227798 13.762341 -2.525395 -0.065369 1.678241
 33 10.456542 -0.000008 0.000004 -0.026947 -0.093165 -1.620311
 34 24.248116 0.000002 -0.000004 -0.035951 -0.036805 1.212535
 35 26.336975 0.000000 0.000004 -0.208757 -0.120948 0.462332
time 32
  0 0.000000 0.000000 0.000000 0.000000 -0.000000 -1.570796
  1 0.000000 0.000000 0.000000 0.000000 -0.000000 0.000000
  2 -3.597766 -12.994862 32.691895 -1.528330 -0.134750 1.754665
  3 4.222169 -0.467508 0.000000 -0.009463 0.004616 0.032444
  4 4.476987 -0.000002 -0.000000 0.039871 -0.037255 0.223163
  5 4.477083 0.000000 0.000002 0.023204 -0.023759 -0.054314
  6 4.477077 -0.000004 -0.000002 -0.011774 -0.044666 -0.156603
  7 5.413502 -7.700466 -0.000000 0.178319 -0.034679 -0.172194
  8 6.890240 0.000002 -0.000000 -0.225790 -0.054541 -0.087617
  9 8.011925 0.000004 0.000005 -0.291325 0.142390 -0.138089
 10 7.210720 -0.000002 -0.000000 -0.197841 0.080012 -0.168842
 11 8.581028 -0.304903 -0.000000 0.390316 -0.059329 0.739813
 12 22.523008 2.194031 6.355708 0.000000 0.028138 0.000000
 13 22.523005 2.194038 -6.355709 0.000000 0.024834 0.000000
 14 -3.006533 7.804720 -11.355459 0.573818 0.531699 1.295295
 15 10.384675 0.000008 0.000005 0.031360 0.190788 -1.675535
 16 22.550743 -0.000006 -0.000004 0.121155 0.013823 1.746357
 17 30.814247 -0.000015 -0.000004 2.461952 0.022450 0.500540
 18 -3.013796 7.815494 11.355459 0.318217 0.031239 1.039703
 19 10.374533 -0.000002 0.000007 -0.055103 -0.189774 -1.537985
 20 22.550726 -0.000027 -0.000013 -0.118431 -0.013919 1.626503
 21 30.814270 -0.000023 0.000002 -2.902942 0.092317 0.548670
 22 -4.250660 -0.770624 0.000001 -0.087224 0.088920 -3.091707
 23 10.363422 0.000000 0.000000 0.085198 0.184795 -0.144925
 24 10.363076 0.000000 -0.000000 -0.185893 -0.044754 0.402530
 25 10.363081 -0.000004 -0.000002 -0.052409 -0.046449 0.252585
 26 8.210358 -0.000006 -7.703991 0.000000 0.000000 0.223353
 27 8.210346 -0.000002 7.704017 0.000000 0.000000 0.216171
 28 1.854841 1.227791 -13.762345 2.680109 0.113251 2.143684
 29 10.456543 -0.000004 0.000004 0.071159 0.086284 -1.150109
 30 24.248093 0.000001 0.000007 0.024794 0.029666 0.866172
 31 26.336971 0.000019 0.000002 0.495374 -0.060724 0.699709
 32 1.854847 1.227798 13.762341 -2.556998 -0.077791 1.757597
 33 10.456542 -0.000008 0.000004 -0.028541 -0.093220 -1.602813
 34 24.248116 0.000002 -0.000004 -0.035549 -0.036530 1.197303
 35 26.336975 0.000000 0.000004 -0.238003 -0.097310 0.496638
time 33
  0 0.000000 0.000000 0.000000 0.000000 -0.000000 -1.570796
  1 0.000000 0.000000 0.000000 0.000000 -0.000000 0.000000
  2 -3.109470 -12.979237 32.336418 -1.543093 -0.167061 1.700693
  3 4.222169 -0.467508 0.000000 -0.007653 0.003466 0.029837
  4 4.476987 -0.000002 -0.000000 0.032117 -0.029866 0.215439
  5 4.477083 0.000000 0.000002 0.015018 -0.008946 -0.058553
  6 4.477077 -0.000004 -0.000002 -0.009161 -0.033522 -0.156183
  7 5.413502 -7.700466 -0.000000 0.167779 -0.035291 -0.162797
  8 6.890240 0.000002 -0.000000 -0.189560 0.054671 -0.091224
  9 8.011925 0.000004 0.000005 -0.288117 0.097147 -0.191975
 10 7.210720 -0.000002 -0.000000 -0.183347 0.022033 -0.211562
 11 8.581028 -0.304903 -0.000000 0.386802 -0.145030 0.833923
 12 22.523008 2.194031 6.355708 0.000000 0.021111 0.000000
 13 22.523005 2.194038 -6.355709 0.000000 0.018633 0.000000
 14 -3.006533 7.804720 -11.355459 0.522000 0.404899 1.293097
 15 10.384675 0.000008 0.000005 0.031024 0.190788 -1.677590
 16 22.550743 -0.000006 -0.000004 0.121747 0.013708 1.772084
 17 30.814247 -0.000015 -0.000004 2.463524 0.083923 0.468811
 18 -3.013796 7.815494 11.355459 0.269849 -0.081796 1.156212
 19 10.374533 -0.000002 0.000007 -0.036026 -0.191402 -1.647462
 20 22.550726 -0.000027 -0.000013 -0.120760 -0.013683 1.731904
 21 30.814270 -0.000023 0.000002 -2.891892 0.123513 0.501673
 22 -4.250660 -0.770624 0.000001 -0.049664 0.003835 -2.989258
 23 10.363422 0.000000 0.000000 0.058808 0.150039 -0.240388
 24 10.363076 0.000000 -0.000000 -0.129757 -0.002832 0.167093
 25 10.363081 -0.000004 -0.000002 -0.043901 0.009382 0.177064
 26 8.210358 -0.000006 -7.703991 0.000000 0.000000 0.211803
 27 8.210346 -0.000002 7.704017 0.000000 0.000000 0.204506
 28 1.854841 1.227791 -13.762345 2.666477 0.125365 2.127445
 29 10.456543 -0.000004 0.000004 0.064538 0.088811 -1.225094
 30 24.248093 0.000001 0.000007 0.026202 0.030896 0.916256
 31 26.336971 0.000019 0.000002 0.461267 -0.018599 0.674471
 32 1.854847 1.227798 13.762341 -2.592550 -0.085261 1.837857
 33 10.456542 -0.000008 0.000004 -0.030678 -0.093276 -1.580151
 34 24.248116 0.000002 -0.000004 -0.034992 -0.036230 1.180650
 35 26.336975 0.000000 0.000004 -0.263261 -0.074168 0.526704
time 34
  0 0.000000 0.000000 0.000000 0.000000 -0.000000 -1.570796
  1 0.000000 0.000000 0.000000 0.000000 -0.000000 0.000000
  2 -2.718833 -12.971424 32.047348 -1.555650 -0.198972 1.648830
  3 4.222169 -0.467508 0.000000 -0.005808 0.002298 0.027230
  4 4.476987 -0.000002 -0.000000 0.025202 -0.023248 0.208535
  5 4.477083 0.000000 0.000002 0.007648 0.004365 -0.062243
  6 4.477077 -0.000004 -0.000002 -0.007244 -0.024690 -0.155342
  7 5.413502 -7.700466 -0.000000 0.104578 -0.018113 -0.192481
  8 6.890240 0.000002 -0.000000 -0.120925 0.048450 -0.156058
  9 8.011925 0.000004 0.000005 -0.214748 0.048326 -0.116779
 10 7.210720 -0.000002 -0.000000 -0.128005 0.006744 -0.124379
 11 8.581028 -0.304903 -0.000000 0.289001 -0.110801 0.791056
 12 22.523008 2.194031 6.355708 0.000000 0.014054 0.000000
 13 22.523005 2.194038 -6.355709 0.000000 0.012402 0.000000
 14 -3.006533 7.804720 -11.355459 0.473709 0.282585 1.295844
 15 10.384675 0.000008 0.000005 0.031024 0.190788 -1.677701
 16 22.550743 -0.000006 -0.000004 0.121715 0.013593 1.769541
 17 30.814247 -0.000015 -0.000004 2.464223 0.142794 0.440627
 18 -3.013796 7.815494 11.355459 0.207379 -0.187657 1.262461
 19 10.374533 -0.000002 0.000007 -0.025645 -0.191568 -1.708230
 20 22.550726 -0.000027 -0.000013 -0.122006 -0.013506 1.791274
 21 30.814270 -0.000023 0.000002 -2.882280 0.155198 0.454397
 22 -4.250660 -0.770624 0.000001 -0.019523 -0.083335 -2.888473
 23 10.363422 0.000000 0.000000 0.033617 0.113738 -0.338865
 24 10.363076 0.000000 -0.000000 -0.082885 0.049913 -0.068577
 25 10.363081 -0.000004 -0.000002 -0.038669 0.061193 0.106697
 26 8.210358 -0.000006 -7.703991 0.000000 0.000000 0.200185
 27 8.210346 -0.000002 7.704017 0.000000 0.000000 0.192774
 28 1.854841 1.227791 -13.762345 2.651042 0.138416 2.109381
 29 10.456543 -0.000004 0.000004 0.057864 0.090786 -1.298733
 30 24.248093 0.000001 0.000007 0.027574 0.031885 0.961190
 31 26.336971 0.000019 0.000002 0.428987 0.019557 0.650061
 32 1.854847 1.227798 13.762341 -2.628238 -0.089146 1.916092
 33 10.456542 -0.000008 0.000004 -0.033153 -0.093332 -1.554298
 34 24.248116 0.000002 -0.000004 -0.034293 -0.035895 1.162321
 35 26.336975 0.000000 0.000004 -0.282987 -0.054593 0.550385
time 35
  0 0.000000 0.000000 0.000000 0.000000 -0.000000 -1.570796
  1 0.000000 0.000000 0.000000 0.000000 -0.000000 0.000000
  2 -2.461013 -12.963610 31.859840 -1.566099 -0.229448 1.599939
  3 4.222169 -0.467508 0.000000 -0.003950 0.001149 0.024654
  4 4.476987 -0.000002 -0.000000 0.019522 -0.017679 0.202808
  5 4.477083 0.000000 0.000002 0.001200 0.016028 -0.065311
  6 4.477077 -0.000004 -0.000002 -0.006213 -0.018995 -0.154190
  7 5.413502 -7.700466 -0.000000 0.050043 -0.003415 -0.220360
  8 6.890240 0.000002 -0.000000 -0.038542 0.028218 -0.274486
  9 8.011925 0.000004 0.000005 -0.081410 -0.001278 0.025048
 10 7.210720 -0.000002 -0.000000 -0.043922 0.001042 0.039314
 11 8.581028 -0.304903 -0.000000 0.108323 -0.040498 0.705710
 12 22.523008 2.194031 6.355708 0.000000 0.007027 0.000000
 13 22.523005 2.194038 -6.355709 0.000000 0.006171 0.000000
 14 -3.006533 7.804720 -11.355459 0.437572 0.190762 1.301200
 15 10.384675 0.000008 0.000005 0.030987 0.190788 -1.677979
 16 22.550743 -0.000006 -0.000004 0.121667 0.013507 1.765667
 17 30.814247 -0.000015 -0.000004 2.464747 0.188374 0.421325
 18 -3.013796 7.815494 11.355459 0.153361 -0.262728 1.337986
 19 10.374533 -0.000002 0.000007 -0.022611 -0.191635 -1.723770
 20 22.550726 -0.000027 -0.000013 -0.122537 -0.013506 1.811498
 21 30.814270 -0.000023 0.000002 -2.874246 0.186663 0.408182
 22 -4.250660 -0.770624 0.000001 0.005657 -0.140786 -2.809914
 23 10.363422 0.000000 0.000000 0.011529 0.076478 -0.435824
 24 10.363076 0.000000 -0.000000 -0.046632 0.079023 -0.233630
 25 10.363081 -0.000004 -0.000002 -0.036009 0.101788 0.051123
 26 8.210358 -0.000006 -7.703991 0.000000 0.000000 0.188636
 27 8.210346 -0.000002 7.704017 0.000000 0.000000 0.181109
 28 1.854841 1.227791 -13.762345 2.633848 0.152159 2.089797
 29 10.456543 -0.000004 0.000004 0.054422 0.091284 -1.334641
 30 24.248093 0.000001 0.000007 0.028834 0.032632 0.999256
 31 26.336971 0.000019 0.000002 0.402668 0.049988 0.629683
 32 1.854847 1.227798 13.762341 -2.657679 -0.089201 1.979249
 33 10.456542 -0.000008 0.000004 -0.035866 -0.093359 -1.526040
 34 24.248116 0.000002 -0.000004 -0.033490 -0.035487 1.142520
 35 26.336975 0.000000 0.000004 -0.297439 -0.038989 0.567735
time 36
  0 0.000000 0.000000 0.000000 0.000000 -0.000000 -1.570796
  1 0.000000 0.000000 0.000000 0.000000 -0.000000 0.000000
  2 -2.363353 -12.959703 31.785618 -1.570988 -0.244686 1.570988
  3 4.222169 -0.467508 0.000000 -0.002069 0.000018 0.022093
  4 4.476987 -0.000002 -0.000000 0.015327 -0.013331 0.198502
  5 4.477083 0.000000 0.000002 -0.004349 0.026123 -0.067772
  6 4.477077 -0.000004 -0.000002 -0.006321 -0.017097 -0.152773
  7 5.413502 -7.700466 -0.000000 0.007297 0.008547 -0.244474
  8 6.890240 0.000002 -0.000000 0.001953 0.017148 -0.340157
  9 8.011925 0.000004 0.000005 -0.006810 -0.024538 0.104449
 10 7.210720 -0.000002 -0.000000 0.000000 0.000000 0.130654
 11 8.581028 -0.304903 -0.000000 0.007192 -0.002445 0.657761
 12 22.523008 2.194031 6.355708 0.000000 -0.000000 0.000000
 13 22.523005 2.194038 -6.355709 0.000000 -0.000000 0.000000
 14 -3.006533 7.804720 -11.355459 0.417062 0.139568 1.305664
 15 10.384675 0.000008 0.000005 0.030987 0.190809 -1.678201
 16 22.550743 -0.000006 -0.000004 0.121603 0.013421 1.761793
 17 30.814247 -0.000015 -0.000004 2.465533 0.223170 0.409113
 18 -3.013796 7.815494 11.355459 0.129381 -0.291650 1.369678
 19 10.374533 -0.000002 0.000007 -0.019780 -0.191668 -1.738151
 20 22.550726 -0.000027 -0.000013 -0.123048 -0.013506 1.830791
 21 30.814270 -0.000023 0.000002 -2.870282 0.196425 0.399675
 22 -4.250660 -0.770624 0.000001 0.016515 -0.162675 -2.777702
 23 10.363422 0.000000 0.000000 0.002661 0.066003 -0.470131
 24 10.363076 0.000000 -0.000000 -0.026810 0.095059 -0.325023
 25 10.363081 -0.000004 -0.000002 -0.034384 0.127470 0.014423
 26 8.210358 -0.000006 -7.703991 0.000000 0.000000 0.177086
 27 8.210346 -0.000002 7.704017 0.000000 0.000000 0.169444
 28 1.854841 1.227791 -13.762345 2.614544 0.166567 2.068388
 29 10.456543 -0.000004 0.000004 0.051033 0.091640 -1.369420
 30 24.248093 0.000001 0.000007 0.029835 0.033116 1.029271
 31 26.336971 0.000019 0.000002 0.386223 0.069828 0.616539
 32 1.854847 1.227798 13.762341 -2.675642 -0.086465 2.016859
 33 10.456542 -0.000008 0.000004 -0.038783 -0.093415 -1.495575
 34 24.248116 0.000002 -0.000004 -0.032583 -0.035020 1.121144
 35 26.336975 0.000000 0.000004 -0.307002 -0.027418 0.579152
end
