version 1
nodes
  0 "Chaurus" -1
  1 "NPC Root [Root]" 0
  2 "Pelvis [Pelv]" 1
  3 "Spine[Spn0]" 2
  4 "Spine[Spn1]" 3
  5 "Spine[Spn2]" 4
  6 "Ribcage[Spn3]" 5
  7 "[Neck0]" 6
  8 "[Neck1]" 7
  9 "[Neck2]" 8
 10 "[Neck3]" 9
 11 "NPC Head [Head]" 10
 12 "Head[LeftPincher]" 11
 13 "Head[RightPincher]" 11
 14 "R UpperArm[RClv]" 6
 15 "R UpperArm[RUar]" 14
 16 "R UpperArm[RLar]" 15
 17 "R UpperArm[RHnd]" 16
 18 "L UpperArm[RClv]" 6
 19 "L UpperArm[LUar]" 18
 20 "L UpperArm[LLar]" 19
 21 "L UpperArm[LHnd]" 20
 22 "Tail[Tal0]" 2
 23 "Tail[Tal1]" 22
 24 "Tail[Tal2]" 23
 25 "Tail[Tal3]" 24
 26 "[TalRightPincher]" 25
 27 "[TalLeftPincher]" 25
 28 "R Leg[RThg0]" 2
 29 "R Leg[RThg1]" 28
 30 "R Leg[RClf]" 29
 31 "R Leg[RAnkle]" 30
 32 "LLeg[RThg0]" 2
 33 "LLeg[LThg1]" 32
 34 "LLeg[LClf]" 33
 35 "LLeg[LAnkle]" 34
end
skeleton
time 0
  0 0.000000 0.000000 0.000000 0.000000 -0.000000 -1.570796
  1 0.000000 0.000000 0.000000 0.000000 -0.000000 0.000000
  2 -2.363353 -12.959703 31.785618 -1.570988 -0.244686 1.570988
  3 4.222169 -0.467508 0.000000 -0.002069 0.000018 0.022093
  4 4.476987 -0.000002 -0.000000 0.015327 -0.013331 0.198502
  5 4.477083 0.000000 0.000002 -0.004349 0.026123 -0.067772
  6 4.477077 -0.000004 -0.000002 -0.006321 -0.017097 -0.152773
  7 5.413502 -7.700466 -0.000000 0.007297 0.008547 -0.244474
  8 6.890240 0.000002 -0.000000 0.001953 0.017148 -0.340157
  9 8.011925 0.000004 0.000005 -0.006810 -0.024538 0.104449
 10 7.210720 -0.000002 -0.000000 0.000000 0.000000 0.130654
 11 8.581028 -0.304903 -0.000000 0.007192 -0.002445 0.657761
 12 22.523008 2.194031 6.355708 0.000000 -0.165866 0.000000
 13 22.523005 2.194038 -6.355709 0.000000 0.188996 0.000000
 14 -3.006533 7.804720 -11.355459 0.417062 0.139568 1.305664
 15 10.384675 0.000008 0.000005 0.030987 0.190809 -1.678201
 16 22.550743 -0.000006 -0.000004 0.121603 0.013421 1.761793
 17 30.814247 -0.000015 -0.000004 2.465533 0.223170 0.409113
 18 -3.013796 7.815494 11.355459 0.129381 -0.291650 1.369678
 19 10.374533 -0.000002 0.000007 -0.019780 -0.191668 -1.738151
 20 22.550726 -0.000027 -0.000013 -0.123048 -0.013506 1.830791
 21 30.814270 -0.000023 0.000002 -2.870282 0.196425 0.399675
 22 -4.250660 -0.770624 0.000001 0.016515 -0.162675 -2.777702
 23 10.363422 0.000000 0.000000 0.002661 0.066003 -0.470131
 24 10.363076 0.000000 -0.000000 -0.026810 0.095059 -0.325023
 25 10.363081 -0.000004 -0.000002 0.073418 -0.206517 0.022289
 26 8.210358 -0.000006 -7.703991 0.000000 0.000000 0.177086
 27 8.210346 -0.000002 7.704017 0.000000 0.000000 0.169444
 28 1.854841 1.227791 -13.762345 2.614544 0.166567 2.068388
 29 10.456543 -0.000004 0.000004 0.051033 0.091640 -1.369420
 30 24.248093 0.000001 0.000007 0.029835 0.033116 1.029271
 31 26.336971 0.000019 0.000002 0.386223 0.069828 0.616594
 32 1.854847 1.227798 13.762341 -2.675642 -0.086465 2.016859
 33 10.456542 -0.000008 0.000004 -0.038783 -0.093415 -1.495575
 34 24.248116 0.000002 -0.000004 -0.032583 -0.035020 1.121144
 35 26.336975 0.000000 0.000004 -0.307002 -0.027418 0.579152
time 1
  0 0.000000 0.000000 0.000000 0.000000 -0.000000 -1.570796
  1 0.000000 0.000000 0.000000 0.000000 -0.000000 0.000000
  2 -2.363353 -12.959703 31.785618 -1.570988 -0.244686 1.570988
  3 4.222169 -0.467508 0.000000 -0.002069 0.000018 0.022093
  4 4.476987 -0.000002 -0.000000 0.015327 -0.013331 0.198502
  5 4.477083 0.000000 0.000002 -0.004349 0.026123 -0.067772
  6 4.477077 -0.000004 -0.000002 -0.006321 -0.017097 -0.152773
  7 5.413502 -7.700466 -0.000000 0.007297 0.008547 -0.244474
  8 6.890240 0.000002 -0.000000 0.001953 0.017148 -0.340157
  9 8.011925 0.000004 0.000005 -0.006810 -0.024538 0.104449
 10 7.210720 -0.000002 -0.000000 0.000000 0.000000 0.130654
 11 8.581028 -0.304903 -0.000000 0.007192 -0.002445 0.657761
 12 22.523008 2.194031 6.355708 0.000000 -0.165866 0.000000
 13 22.523005 2.194038 -6.355709 0.000000 0.188996 0.000000
 14 -3.006533 7.804720 -11.355459 0.417062 0.139568 1.305664
 15 10.384675 0.000008 0.000005 0.030987 0.190809 -1.678201
 16 22.550743 -0.000006 -0.000004 0.121603 0.013421 1.761793
 17 30.814247 -0.000015 -0.000004 2.465533 0.223170 0.409113
 18 -3.013796 7.815494 11.355459 0.129381 -0.291650 1.369678
 19 10.374533 -0.000002 0.000007 -0.019780 -0.191668 -1.738151
 20 22.550726 -0.000027 -0.000013 -0.123048 -0.013506 1.830791
 21 30.814270 -0.000023 0.000002 -2.870282 0.196425 0.399675
 22 -4.250660 -0.770624 0.000001 0.016515 -0.162675 -2.777702
 23 10.363422 0.000000 0.000000 0.002661 0.066003 -0.470131
 24 10.363076 0.000000 -0.000000 -0.026810 0.095059 -0.325023
 25 10.363081 -0.000004 -0.000002 0.073418 -0.206517 0.022289
 26 8.210358 -0.000006 -7.703991 0.000000 0.000000 0.177086
 27 8.210346 -0.000002 7.704017 0.000000 0.000000 0.169444
 28 1.854841 1.227791 -13.762345 2.614544 0.166567 2.068388
 29 10.456543 -0.000004 0.000004 0.051033 0.091640 -1.369420
 30 24.248093 0.000001 0.000007 0.029835 0.033116 1.029271
 31 26.336971 0.000019 0.000002 0.386223 0.069828 0.616594
 32 1.854847 1.227798 13.762341 -2.675642 -0.086465 2.016859
 33 10.456542 -0.000008 0.000004 -0.038783 -0.093415 -1.495575
 34 24.248116 0.000002 -0.000004 -0.032583 -0.035020 1.121144
 35 26.336975 0.000000 0.000004 -0.307002 -0.027418 0.579152
time 2
  0 0.000000 0.000000 0.000000 0.000000 -0.000000 -1.570796
  1 0.000000 0.000000 0.000000 0.000000 -0.000000 0.000000
  2 -2.769616 -12.858139 32.117661 -1.555746 -0.261879 1.562936
  3 4.222169 -0.467508 0.000000 -0.001014 0.021615 0.005809
  4 4.476987 -0.000002 -0.000000 0.012858 0.004531 0.186116
  5 4.477083 0.000000 0.000002 -0.010137 0.001360 -0.044991
  6 4.477077 -0.000004 -0.000002 -0.008514 -0.032451 -0.139847
  7 5.413502 -7.700466 -0.000000 0.022609 0.025827 -0.246777
  8 6.890240 0.000002 -0.000000 0.024389 0.030531 -0.349536
  9 8.011925 0.000004 0.000005 0.020824 -0.037686 0.083995
 10 7.210720 -0.000002 -0.000000 0.028741 -0.030596 0.133067
 11 8.581028 -0.304903 -0.000000 0.024713 -0.150357 0.676653
 12 22.523008 2.194031 6.355708 0.000000 -0.165866 0.000000
 13 22.523005 2.194038 -6.355709 0.000000 0.188996 0.000000
 14 -3.006533 7.804720 -11.355459 0.460632 0.192104 1.352911
 15 10.384675 0.000008 0.000005 0.030501 0.191149 -1.679423
 16 22.550743 -0.000006 -0.000004 0.121651 0.013651 1.763306
 17 30.814247 -0.000015 -0.000004 2.469290 0.182668 0.399372
 18 -3.013796 7.815494 11.355459 0.092469 -0.333389 1.409465
 19 10.374533 -0.000002 0.000007 0.006510 -0.191469 -1.941505
 20 22.550726 -0.000027 -0.000013 -0.128236 -0.012623 2.083096
 21 30.814270 -0.000023 0.000002 -2.924622 0.221504 0.331146
 22 -4.250660 -0.770624 0.000001 0.016551 -0.193438 -2.798673
 23 10.363422 0.000000 0.000000 0.002864 0.025363 -0.470043
 24 10.363076 0.000000 -0.000000 -0.027385 0.053304 -0.323810
 25 10.363081 -0.000004 -0.000002 0.077592 -0.229395 0.002127
 26 8.210358 -0.000006 -7.703991 0.000000 0.000000 0.139311
 27 8.210346 -0.000002 7.704017 0.000000 0.000000 0.139028
 28 1.854841 1.227791 -13.762345 2.419302 0.097880 1.709243
 29 10.456543 -0.000004 0.000004 -0.020140 0.076711 -2.139982
 30 24.248093 0.000001 0.000007 0.050484 0.039190 1.604825
 31 26.336971 0.000019 0.000002 0.358772 0.162539 0.467428
 32 1.854847 1.227798 13.762341 -2.626111 -0.120448 1.970073
 33 10.456542 -0.000008 0.000004 -0.035731 -0.093610 -1.528877
 34 24.248116 0.000002 -0.000004 -0.033567 -0.035499 1.145109
 35 26.336975 0.000000 0.000004 -0.289291 -0.074602 0.553380
time 3
  0 0.000000 0.000000 0.000000 0.000000 -0.000000 -1.570796
  1 0.000000 0.000000 0.000000 0.000000 -0.000000 0.000000
  2 -3.363384 -12.377655 32.883308 -1.540313 -0.279071 1.552870
  3 4.222169 -0.467508 0.000000 -0.000247 0.051831 -0.017881
  4 4.476987 -0.000002 -0.000000 0.007813 0.029676 0.169113
  5 4.477083 0.000000 0.000002 -0.016321 -0.023516 -0.022432
  6 4.477077 -0.000004 -0.000002 -0.013188 -0.066334 -0.114852
  7 5.413502 -7.700466 -0.000000 0.038426 0.043650 -0.250169
  8 6.890240 0.000002 -0.000000 0.046644 0.043967 -0.358542
  9 8.011925 0.000004 0.000005 0.060795 -0.057320 0.029746
 10 7.210720 -0.000002 -0.000000 0.069506 -0.074539 0.137331
 11 8.581028 -0.304903 -0.000000 0.058814 -0.415092 0.713421
 12 22.523008 2.194031 6.355708 0.000000 -0.165866 0.000000
 13 22.523005 2.194038 -6.355709 0.000000 0.188996 0.000000
 14 -3.006533 7.804720 -11.355459 0.580112 0.300533 1.490807
 15 10.384675 0.000008 0.000005 0.030202 0.191297 -1.681089
 16 22.550743 -0.000006 -0.000004 0.121683 0.013909 1.764820
 17 30.814247 -0.000015 -0.000004 2.485626 0.082010 0.376202
 18 -3.013796 7.815494 11.355459 -0.073557 -0.504156 1.567982
 19 10.374533 -0.000002 0.000007 0.039204 -0.188578 -2.290519
 20 22.550726 -0.000027 -0.000013 -0.142209 -0.009502 2.431373
 21 30.814270 -0.000023 0.000002 -2.957317 0.326811 0.298569
 22 -4.250660 -0.770624 0.000001 0.016910 -0.238660 -2.828888
 23 10.363422 0.000000 0.000000 0.003044 -0.038562 -0.470087
 24 10.363076 0.000000 -0.000000 -0.027529 -0.019994 -0.321513
 25 10.363081 -0.000004 -0.000002 0.083071 -0.260885 -0.026546
 26 8.210358 -0.000006 -7.703991 0.000000 0.000000 0.086114
 27 8.210346 -0.000002 7.704017 0.000000 0.000000 0.095353
 28 1.854841 1.227791 -13.762345 1.958283 0.254573 1.502880
 29 10.456543 -0.000004 0.000004 -0.037400 0.059343 -2.393941
 30 24.248093 0.000001 0.000007 0.064238 0.035598 1.993541
 31 26.336971 0.000019 0.000002 0.423332 0.427900 0.401212
 32 1.854847 1.227798 13.762341 -2.487310 -0.198786 1.847421
 33 10.456542 -0.000008 0.000004 -0.032848 -0.093666 -1.560446
 34 24.248116 0.000002 -0.000004 -0.034513 -0.035931 1.167804
 35 26.336975 0.000000 0.000004 -0.243707 -0.200364 0.495281
time 4
  0 0.000000 0.000000 0.000000 0.000000 -0.000000 -1.570796
  1 0.000000 0.000000 0.000000 0.000000 -0.000000 0.000000
  2 -3.886837 -11.330748 33.836464 -1.524400 -0.296383 1.540695
  3 4.222169 -0.467508 0.000000 -0.000283 0.087943 -0.046632
  4 4.476987 -0.000002 -0.000000 0.000466 0.060196 0.148513
  5 4.477083 0.000000 0.000002 -0.023117 -0.048716 0.000186
  6 4.477077 -0.000004 -0.000002 -0.020151 -0.107470 -0.083987
  7 5.413502 -7.700466 -0.000000 0.074552 0.081693 -0.278981
  8 6.890240 0.000002 -0.000000 0.067281 0.060135 -0.368153
  9 8.011925 0.000004 0.000005 0.100125 -0.073839 -0.027151
 10 7.210720 -0.000002 -0.000000 0.108103 -0.116911 0.139343
 11 8.581028 -0.304903 -0.000000 0.082995 -0.557114 0.743984
 12 22.523008 2.194031 6.355708 0.000000 -0.165866 0.000000
 13 22.523005 2.194038 -6.355709 0.000000 0.188996 0.000000
 14 -3.006533 7.804720 -11.355459 0.774199 0.404687 1.722030
 15 10.384675 0.000008 0.000005 0.030240 0.191340 -1.681589
 16 22.550743 -0.000006 -0.000004 0.121699 0.014110 1.765062
 17 30.814247 -0.000015 -0.000004 2.515328 -0.070560 0.334230
 18 -3.013796 7.815494 11.355459 -0.364269 -0.685312 1.845574
 19 10.374533 -0.000002 0.000007 -0.005354 -0.215821 -2.282865
 20 22.550726 -0.000027 -0.000013 -0.148296 -0.009796 2.422936
 21 30.814270 -0.000023 0.000002 -2.935777 0.453649 0.300967
 22 -4.250660 -0.770624 0.000001 0.018480 -0.284236 -2.859871
 23 10.363422 0.000000 0.000000 0.003164 -0.107953 -0.470043
 24 10.363076 0.000000 -0.000000 -0.027900 -0.110849 -0.318958
 25 10.363081 -0.000004 -0.000002 0.090606 -0.299816 -0.066011
 26 8.210358 -0.000006 -7.703991 0.000000 0.000000 0.032883
 27 8.210346 -0.000002 7.704017 0.000000 0.000000 0.051711
 28 1.854841 1.227791 -13.762345 1.762645 0.243150 1.313910
 29 10.456543 -0.000004 0.000004 0.005559 0.089078 -1.847336
 30 24.248093 0.000001 0.000007 0.041810 0.038584 1.381341
 31 26.336971 0.000019 0.000002 0.298433 0.601627 0.433630
 32 1.854847 1.227798 13.762341 -2.290336 -0.267410 1.660018
 33 10.456542 -0.000008 0.000004 -0.035052 -0.093332 -1.536208
 34 24.248116 0.000002 -0.000004 -0.033787 -0.035643 1.149932
 35 26.336975 0.000000 0.000004 -0.154295 -0.386214 0.421640
time 5
  0 0.000000 0.000000 0.000000 0.000000 -0.000000 -1.570796
  1 0.000000 0.000000 0.000000 0.000000 -0.000000 0.000000
  2 -4.004028 -10.182276 34.746647 -1.508103 -0.313655 1.524686
  3 4.222169 -0.467508 0.000000 -0.001349 0.126631 -0.077698
  4 4.476987 -0.000002 -0.000000 -0.008642 0.093608 0.125672
  5 4.477083 0.000000 0.000002 -0.030583 -0.072445 0.022137
  6 4.477077 -0.000004 -0.000002 -0.028097 -0.143965 -0.054164
  7 5.413502 -7.700466 -0.000000 0.110386 0.120467 -0.310159
  8 6.890240 0.000002 -0.000000 0.057418 0.121184 -0.393262
  9 8.011925 0.000004 0.000005 0.100636 -0.067145 -0.104865
 10 7.210720 -0.000002 -0.000000 0.099181 -0.119736 0.131485
 11 8.581028 -0.304903 -0.000000 0.089677 -0.550456 0.758495
 12 22.523008 2.194031 6.355708 0.000000 -0.165866 0.000000
 13 22.523005 2.194038 -6.355709 0.000000 0.188996 0.000000
 14 -3.006533 7.804720 -11.355459 0.995036 0.439028 2.003728
 15 10.384675 0.000008 0.000005 0.034572 0.191318 -1.656596
 16 22.550743 -0.000006 -0.000004 0.121171 0.014225 1.741151
 17 30.814247 -0.000015 -0.000004 2.578051 -0.244791 0.291400
 18 -3.013796 7.815494 11.355459 -0.551221 -0.694803 2.075228
 19 10.374533 -0.000002 0.000007 -0.156150 -0.223063 -1.822461
 20 22.550726 -0.000027 -0.000013 -0.125744 -0.013683 1.948662
 21 30.814270 -0.000023 0.000002 -2.970893 0.480783 0.253887
 22 -4.250660 -0.770624 0.000001 0.021333 -0.328479 -2.890547
 23 10.363422 0.000000 0.000000 0.003224 -0.171711 -0.470043
 24 10.363076 0.000000 -0.000000 -0.028523 -0.199343 -0.316583
 25 10.363081 -0.000004 -0.000002 0.099520 -0.336529 -0.110363
 26 8.210358 -0.000006 -7.703991 0.000000 0.000000 -0.020246
 27 8.210346 -0.000002 7.704017 0.000000 0.000000 0.008308
 28 1.854841 1.227791 -13.762345 1.931284 0.630773 1.598307
 29 10.456543 -0.000004 0.000004 0.084541 0.079202 -0.991976
 30 24.248093 0.000001 0.000007 0.021383 0.026356 0.750019
 31 26.336971 0.000019 0.000002 0.251492 0.533618 0.610850
 32 1.854847 1.227798 13.762341 -2.093699 -0.290038 1.444224
 33 10.456542 -0.000008 0.000004 -0.045634 -0.092803 -1.422547
 34 24.248116 0.000002 -0.000004 -0.030821 -0.034408 1.067883
 35 26.336975 0.000000 0.000004 -0.038726 -0.564867 0.325675
time 6
  0 0.000000 0.000000 0.000000 0.000000 -0.000000 -1.570796
  1 0.000000 0.000000 0.000000 0.000000 -0.000000 0.000000
  2 -2.738365 -8.975208 35.695892 -1.491519 -0.334199 1.482026
  3 4.222169 -0.467508 0.000000 -0.003423 0.162910 -0.107200
  4 4.476987 -0.000002 -0.000000 -0.019069 0.128220 0.101499
  5 4.477083 0.000000 0.000002 -0.038756 -0.078939 0.037581
  6 4.477077 -0.000004 -0.000002 -0.035180 -0.167568 -0.030712
  7 5.413502 -7.700466 -0.000000 0.145024 0.159207 -0.342674
  8 6.890240 0.000002 -0.000000 0.044019 0.184848 -0.420420
  9 8.011925 0.000004 0.000005 0.097335 -0.043038 -0.198282
 10 7.210720 -0.000002 -0.000000 0.086993 -0.120442 0.121643
 11 8.581028 -0.304903 -0.000000 0.095487 -0.534340 0.772515
 12 22.523008 2.194031 6.355708 0.000000 -0.165866 0.000000
 13 22.523005 2.194038 -6.355709 0.000000 0.188996 0.000000
 14 -3.006533 7.804720 -11.355459 1.152552 0.373525 2.257063
 15 10.384675 0.000008 0.000005 0.039092 0.191212 -1.630604
 16 22.550743 -0.000006 -0.000004 0.120595 0.014311 1.715788
 17 30.814247 -0.000015 -0.000004 2.654752 -0.416640 0.229911
 18 -3.013796 7.815494 11.355459 -0.497711 -0.703659 1.980550
 19 10.374533 -0.000002 0.000007 -0.279780 -0.167947 -1.345300
 20 22.550726 -0.000027 -0.000013 -0.091223 -0.014684 1.444114
 21 30.814270 -0.000023 0.000002 -2.936830 0.398304 0.356806
 22 -4.250660 -0.770624 0.000001 0.025240 -0.369015 -2.919430
 23 10.363422 0.000000 0.000000 0.003284 -0.219530 -0.470109
 24 10.363076 0.000000 -0.000000 -0.029147 -0.280047 -0.314286
 25 10.363081 -0.000004 -0.000002 0.109898 -0.370622 -0.160407
 26 8.210358 -0.000006 -7.703991 0.000000 0.000000 -0.072016
 27 8.210346 -0.000002 7.704017 0.000000 0.000000 -0.033231
 28 1.854841 1.227791 -13.762345 2.181361 0.562776 1.904051
 29 10.456543 -0.000004 0.000004 0.077623 0.082850 -1.072605
 30 24.248093 0.000001 0.000007 0.023274 0.028011 0.810582
 31 26.336971 0.000019 0.000002 0.288253 0.343309 0.622337
 32 1.854847 1.227798 13.762341 -1.976068 -0.336882 1.309121
 33 10.456542 -0.000008 0.000004 -0.073070 -0.085345 -1.123851
 34 24.248116 0.000002 -0.000004 -0.023981 -0.029375 0.848494
 35 26.336975 0.000000 0.000004 0.114024 -0.719076 0.269384
time 7
  0 0.000000 0.000000 0.000000 0.000000 -0.000000 -1.570796
  1 0.000000 0.000000 0.000000 0.000000 -0.000000 0.000000
  2 0.000000 -7.561102 36.754520 -1.472922 -0.356617 1.404663
  3 4.222169 -0.467508 0.000000 -0.005844 0.176461 -0.119666
  4 4.476987 -0.000002 -0.000000 -0.029136 0.158826 0.079702
  5 4.477083 0.000000 0.000002 -0.046954 -0.084463 0.052373
  6 4.477077 -0.000004 -0.000002 -0.040765 -0.180216 -0.014126
  7 5.413502 -7.700466 -0.000000 0.177840 0.197097 -0.375843
  8 6.890240 0.000002 -0.000000 0.028799 0.247949 -0.448788
  9 8.011925 0.000004 0.000005 0.091835 -0.018196 -0.293076
 10 7.210720 -0.000002 -0.000000 0.069204 -0.121325 0.098044
 11 8.581028 -0.304903 -0.000000 0.099482 -0.502057 0.789199
 12 22.523008 2.194031 6.355708 0.000000 -0.165866 0.000000
 13 22.523005 2.194038 -6.355709 0.000000 0.188996 0.000000
 14 -3.006533 7.804720 -11.355459 1.216850 0.254851 2.445297
 15 10.384675 0.000008 0.000005 0.043312 0.190979 -1.606167
 16 22.550743 -0.000006 -0.000004 0.120019 0.014397 1.690667
 17 30.814247 -0.000015 -0.000004 2.747046 -0.562721 0.112376
 18 -3.013796 7.815494 11.355459 -0.434630 -0.708741 1.872022
 19 10.374533 -0.000002 0.000007 -0.346381 -0.134160 -1.171808
 20 22.550726 -0.000027 -0.000013 -0.069631 -0.015764 1.274380
 21 30.814270 -0.000023 0.000002 -2.837096 0.304032 0.425725
 22 -4.250660 -0.770624 0.000001 0.027996 -0.386732 -2.935946
 23 10.363422 0.000000 0.000000 0.003260 -0.236596 -0.470285
 24 10.363076 0.000000 -0.000000 -0.029170 -0.318566 -0.313021
 25 10.363081 -0.000004 -0.000002 0.121521 -0.400787 -0.215927
 26 8.210358 -0.000006 -7.703991 0.000000 0.000000 -0.097188
 27 8.210346 -0.000002 7.704017 0.000000 0.000000 -0.050186
 28 1.854841 1.227791 -13.762345 2.366446 0.424021 2.112848
 29 10.456543 -0.000004 0.000004 0.071700 0.085999 -1.142684
 30 24.248093 0.000001 0.000007 0.024386 0.029565 0.862383
 31 26.336971 0.000019 0.000002 0.299825 0.168583 0.617477
 32 1.854847 1.227798 13.762341 -1.954055 -0.449996 1.305675
 33 10.456542 -0.000008 0.000004 -0.103355 -0.063555 -0.732066
 34 24.248116 0.000002 -0.000004 -0.017232 -0.020650 0.556245
 35 26.336975 0.000000 0.000004 0.244303 -0.805409 0.288769
time 8
  0 0.000000 0.000000 0.000000 0.000000 -0.000000 -1.570796
  1 0.000000 0.000000 0.000000 0.000000 -0.000000 0.000000
  2 3.261818 -6.182154 37.758457 -1.452503 -0.378277 1.323370
  3 4.222169 -0.467508 0.000000 -0.008420 0.188103 -0.130093
  4 4.476987 -0.000002 -0.000000 -0.033055 0.167051 0.074219
  5 4.477083 0.000000 0.000002 -0.055020 -0.091022 0.067120
  6 4.477077 -0.000004 -0.000002 -0.045211 -0.187282 -0.002727
  7 5.413502 -7.700466 -0.000000 0.208238 0.233288 -0.409011
  8 6.890240 0.000002 -0.000000 0.012488 0.307025 -0.476620
  9 8.011925 0.000004 0.000005 0.083924 0.006374 -0.381692
 10 7.210720 -0.000002 -0.000000 0.050730 -0.122632 0.072836
 11 8.581028 -0.304903 -0.000000 0.103822 -0.467879 0.806058
 12 22.523008 2.194031 6.355708 0.000000 -0.193241 0.000000
 13 22.523005 2.194038 -6.355709 0.000000 0.220062 0.000000
 14 -3.006533 7.804720 -11.355459 1.219292 0.151722 2.563483
 15 10.384675 0.000008 0.000005 0.047234 0.190639 -1.583840
 16 22.550743 -0.000006 -0.000004 0.119444 0.014454 1.665122
 17 30.814247 -0.000015 -0.000004 2.821606 -0.660965 -0.009169
 18 -3.013796 7.815494 11.355459 -0.457949 -0.719017 1.872250
 19 10.374533 -0.000002 0.000007 -0.396737 -0.106386 -1.051083
 20 22.550726 -0.000027 -0.000013 -0.049163 -0.015097 1.137836
 21 30.814270 -0.000023 0.000002 -2.748027 0.264224 0.466642
 22 -4.250660 -0.770624 0.000001 0.027505 -0.364410 -2.933104
 23 10.363422 0.000000 0.000000 0.003068 -0.219206 -0.470351
 24 10.363076 0.000000 -0.000000 -0.028451 -0.321670 -0.315525
 25 10.363081 -0.000004 -0.000002 0.134190 -0.426515 -0.277407
 26 8.210358 -0.000006 -7.703991 0.000000 0.000000 -0.079762
 27 8.210346 -0.000002 7.704017 0.000000 0.000000 -0.035367
 28 1.854841 1.227791 -13.762345 2.479765 0.323778 2.261128
 29 10.456543 -0.000004 0.000004 0.075474 0.084024 -1.099959
 30 24.248093 0.000001 0.000007 0.023681 0.028859 0.830829
 31 26.336971 0.000019 0.000002 0.280248 0.043944 0.625872
 32 1.854847 1.227798 13.762341 -1.958039 -0.326594 1.291803
 33 10.456542 -0.000008 0.000004 -0.076156 -0.083898 -1.093071
 34 24.248116 0.000002 -0.000004 -0.023644 -0.028440 0.824275
 35 26.336975 0.000000 0.000004 0.222218 -0.788099 0.260680
time 9
  0 0.000000 0.000000 0.000000 0.000000 -0.000000 -1.570796
  1 0.000000 0.000000 0.000000 0.000000 -0.000000 0.000000
  2 5.914243 -5.162591 38.485043 -1.432948 -0.396107 1.247254
  3 4.222169 -0.467508 0.000000 -0.011105 0.200597 -0.139891
  4 4.476987 -0.000002 -0.000000 -0.036135 0.172277 0.070645
  5 4.477083 0.000000 0.000002 -0.062810 -0.098420 0.081586
  6 4.477077 -0.000004 -0.000002 -0.049082 -0.193746 0.004966
  7 5.413502 -7.700466 -0.000000 0.230594 0.260967 -0.435677
  8 6.890240 0.000002 -0.000000 0.001450 0.343294 -0.492654
  9 8.011925 0.000004 0.000005 0.074010 0.032782 -0.431710
 10 7.210720 -0.000002 -0.000000 0.032447 -0.124397 0.047949
 11 8.581028 -0.304903 -0.000000 0.108071 -0.434179 0.822321
 12 22.523008 2.194031 6.355708 0.000000 -0.579631 0.000000
 13 22.523005 2.194038 -6.355709 0.000000 0.654621 0.000000
 14 -3.006533 7.804720 -11.355459 1.197696 0.099433 2.606404
 15 10.384675 0.000008 0.000005 0.050596 0.190236 -1.564845
 16 22.550743 -0.000006 -0.000004 0.118948 0.014454 1.643028
 17 30.814247 -0.000015 -0.000004 2.848469 -0.693504 -0.098484
 18 -3.013796 7.815494 11.355459 -0.538442 -0.745137 1.937230
 19 10.374533 -0.000002 0.000007 -0.440823 -0.075655 -0.938127
 20 22.550726 -0.000027 -0.000013 -0.029247 -0.012211 1.006566
 21 30.814270 -0.000023 0.000002 -2.699511 0.264689 0.497573
 22 -4.250660 -0.770624 0.000001 0.025539 -0.312431 -2.920403
 23 10.363422 0.000000 0.000000 0.003080 -0.197658 -0.470263
 24 10.363076 0.000000 -0.000000 -0.026654 -0.326919 -0.321745
 25 10.363081 -0.000004 -0.000002 0.147794 -0.448392 -0.342941
 26 8.210358 -0.000006 -7.703991 0.000000 0.000000 -0.048237
 27 8.210346 -0.000002 7.704017 0.000000 0.000000 -0.008545
 28 1.854841 1.227791 -13.762345 2.514020 0.285339 2.332045
 29 10.456543 -0.000004 0.000004 0.079579 0.081640 -1.052198
 30 24.248093 0.000001 0.000007 0.022977 0.027971 0.795604
 31 26.336971 0.000019 0.000002 0.250535 -0.015866 0.629738
 32 1.854847 1.227798 13.762341 -2.083097 -0.210770 1.406011
 33 10.456542 -0.000008 0.000004 -0.017010 -0.092135 -1.720967
 34 24.248116 0.000002 -0.000004 -0.038477 -0.037501 1.280216
 35 26.336975 0.000000 0.000004 0.055188 -0.659266 0.323810
time 10
  0 0.000000 0.000000 0.000000 0.000000 -0.000000 -1.570796
  1 0.000000 0.000000 0.000000 0.000000 -0.000000 0.000000
  2 7.121311 -4.701640 38.797554 -1.427196 -0.396626 1.222520
  3 4.222169 -0.467508 0.000000 -0.013957 0.214185 -0.148693
  4 4.476987 -0.000002 -0.000000 -0.039562 0.178231 0.066494
  5 4.477083 0.000000 0.000002 -0.069042 -0.111601 0.095415
  6 4.477077 -0.000004 -0.000002 -0.053085 -0.204514 0.010650
  7 5.413502 -7.700466 -0.000000 0.234555 0.271298 -0.446567
  8 6.890240 0.000002 -0.000000 -0.007119 0.369813 -0.502661
  9 8.011925 0.000004 0.000005 0.061398 0.059141 -0.465168
 10 7.210720 -0.000002 -0.000000 0.013973 -0.126357 0.023090
 11 8.581028 -0.304903 -0.000000 0.119805 -0.399966 0.842685
 12 22.523008 2.194031 6.355708 0.000000 -0.803210 0.000000
 13 22.523005 2.194038 -6.355709 0.000000 0.896674 0.000000
 14 -3.006533 7.804720 -11.355459 1.177403 0.079224 2.611417
 15 10.384675 0.000008 0.000005 0.052874 0.189897 -1.551905
 16 22.550743 -0.000006 -0.000004 0.118852 0.014253 1.638366
 17 30.814247 -0.000015 -0.000004 2.857336 -0.698457 -0.138342
 18 -3.013796 7.815494 11.355459 -0.613538 -0.767370 1.991210
 19 10.374533 -0.000002 0.000007 -0.473516 -0.055655 -0.878692
 20 22.550726 -0.000027 -0.000013 -0.013028 -0.011190 0.934169
 21 30.814270 -0.000023 0.000002 -2.658151 0.257764 0.526022
 22 -4.250660 -0.770624 0.000001 0.022603 -0.234520 -2.900303
 23 10.363422 0.000000 0.000000 0.003008 -0.170021 -0.469933
 24 10.363076 0.000000 -0.000000 -0.024425 -0.332024 -0.329359
 25 10.363081 -0.000004 -0.000002 0.162581 -0.468389 -0.410140
 26 8.210358 -0.000006 -7.703991 0.000000 0.000000 -0.007609
 27 8.210346 -0.000002 7.704017 0.000000 0.000000 0.023092
 28 1.854841 1.227791 -13.762345 2.507733 0.277888 2.342019
 29 10.456543 -0.000004 0.000004 0.080470 0.081391 -1.043949
 30 24.248093 0.000001 0.000007 0.022755 0.027587 0.789506
 31 26.336971 0.000019 0.000002 0.235222 -0.041514 0.629185
 32 1.854847 1.227798 13.762341 -2.355229 -0.221086 1.678930
 33 10.456542 -0.000008 0.000004 0.001168 -0.086959 -1.917628
 34 24.248116 0.000002 -0.000004 -0.043555 -0.038615 1.421669
 35 26.336975 0.000000 0.000004 -0.095031 -0.482009 0.451876
time 11
  0 0.000000 0.000000 0.000000 0.000000 -0.000000 -1.570796
  1 0.000000 0.000000 0.000000 0.000000 -0.000000 0.000000
  2 7.008026 -4.623512 38.754581 -1.429113 -0.378915 1.233353
  3 4.222169 -0.467508 0.000000 -0.017001 0.230183 -0.155992
  4 4.476987 -0.000002 -0.000000 -0.039167 0.179751 0.064563
  5 4.477083 0.000000 0.000002 -0.067783 -0.157558 0.107673
  6 4.477077 -0.000004 -0.000002 -0.058502 -0.226314 0.016428
  7 5.413502 -7.700466 -0.000000 0.202377 0.253746 -0.431757
  8 6.890240 0.000002 -0.000000 -0.007347 0.370637 -0.493888
  9 8.011925 0.000004 0.000005 0.039500 0.085501 -0.442326
 10 7.210720 -0.000002 -0.000000 -0.002526 -0.131335 -0.002306
 11 8.581028 -0.304903 -0.000000 0.162885 -0.364542 0.882432
 12 22.523008 2.194031 6.355708 0.000000 -0.847663 0.000000
 13 22.523005 2.194038 -6.355709 0.000000 0.937601 0.000000
 14 -3.006533 7.804720 -11.355459 1.145227 0.034743 2.638062
 15 10.384675 0.000008 0.000005 0.054144 0.189685 -1.544296
 16 22.550743 -0.000006 -0.000004 0.118788 0.014024 1.635461
 17 30.814247 -0.000015 -0.000004 2.956968 -0.740682 -0.202159
 18 -3.013796 7.815494 11.355459 -0.589100 -0.775031 1.910839
 19 10.374533 -0.000002 0.000007 -0.498323 -0.050206 -0.900147
 20 22.550726 -0.000027 -0.000013 -0.006328 -0.011111 0.941055
 21 30.814270 -0.000023 0.000002 -2.623456 0.189501 0.546216
 22 -4.250660 -0.770624 0.000001 0.019499 -0.141685 -2.875567
 23 10.363422 0.000000 0.000000 0.002972 -0.126493 -0.469581
 24 10.363076 0.000000 -0.000000 -0.022375 -0.336495 -0.336147
 25 10.363081 -0.000004 -0.000002 0.177995 -0.486121 -0.477205
 26 8.210358 -0.000006 -7.703991 0.000000 0.000000 0.032985
 27 8.210346 -0.000002 7.704017 0.000000 0.000000 0.056357
 28 1.854841 1.227791 -13.762345 2.498850 0.274286 2.340499
 29 10.456543 -0.000004 0.000004 0.081064 0.081266 -1.038217
 30 24.248093 0.000001 0.000007 0.022532 0.027285 0.785244
 31 26.336971 0.000019 0.000002 0.253885 -0.052893 0.640231
 32 1.854847 1.227798 13.762341 -2.668146 -0.204285 2.092510
 33 10.456542 -0.000008 0.000004 -0.041191 -0.093053 -1.469840
 34 24.248116 0.000002 -0.000004 -0.031961 -0.034552 1.098347
 35 26.336975 0.000000 0.000004 -0.213002 -0.300936 0.613684
time 12
  0 0.000000 0.000000 0.000000 0.000000 -0.000000 -1.570796
  1 0.000000 0.000000 0.000000 0.000000 -0.000000 0.000000
  2 6.234565 -4.631325 38.539734 -1.433523 -0.349915 1.261058
  3 4.222169 -0.467508 0.000000 -0.020153 0.251446 -0.158997
  4 4.476987 -0.000002 -0.000000 -0.025696 0.163195 0.072598
  5 4.477083 0.000000 0.000002 -0.059849 -0.239408 0.119159
  6 4.477077 -0.000004 -0.000002 -0.068293 -0.268709 0.025336
  7 5.413502 -7.700466 -0.000000 0.132556 0.206408 -0.388258
  8 6.890240 0.000002 -0.000000 -0.004818 0.359684 -0.476318
  9 8.011925 0.000004 0.000005 0.012298 0.110375 -0.374346
 10 7.210720 -0.000002 -0.000000 -0.011200 -0.146554 -0.029660
 11 8.581028 -0.304903 -0.000000 0.220041 -0.328469 0.928733
 12 22.523008 2.194031 6.355708 0.000000 -0.859059 0.000000
 13 22.523005 2.194038 -6.355709 0.000000 0.941896 0.000000
 14 -3.006533 7.804720 -11.355459 1.073224 -0.052699 2.684761
 15 10.384675 0.000008 0.000005 0.051604 0.190003 -1.558681
 16 22.550743 -0.000006 -0.000004 0.119044 0.013766 1.646902
 17 30.814247 -0.000015 -0.000004 -3.108652 -0.808268 -0.356758
 18 -3.013796 7.815494 11.355459 -0.463447 -0.752087 1.704498
 19 10.374533 -0.000002 0.000007 -0.522861 -0.047848 -0.936910
 20 22.550726 -0.000027 -0.000013 -0.005429 -0.011170 0.980945
 21 30.814270 -0.000023 0.000002 -2.592937 0.079374 0.564317
 22 -4.250660 -0.770624 0.000001 0.017198 -0.050341 -2.850371
 23 10.363422 0.000000 0.000000 0.003032 -0.080508 -0.469163
 24 10.363076 0.000000 -0.000000 -0.021201 -0.339850 -0.339786
 25 10.363081 -0.000004 -0.000002 0.193213 -0.501280 -0.541665
 26 8.210358 -0.000006 -7.703991 0.000000 0.000000 0.073647
 27 8.210346 -0.000002 7.704017 0.000000 0.000000 0.089385
 28 1.854841 1.227791 -13.762345 2.499641 0.271350 2.331375
 29 10.456543 -0.000004 0.000004 0.082899 0.080056 -1.013077
 30 24.248093 0.000001 0.000007 0.022050 0.026921 0.766477
 31 26.336971 0.000019 0.000002 0.279726 -0.064219 0.657075
 32 1.854847 1.227798 13.762341 -2.861980 -0.145676 2.613103
 33 10.456542 -0.000008 0.000004 -0.115700 -0.046496 -0.512901
 34 24.248116 0.000002 -0.000004 -0.014162 -0.014742 0.390066
 35 26.336975 0.000000 0.000004 -0.285389 -0.152280 0.713322
time 13
  0 0.000000 0.000000 0.000000 0.000000 -0.000000 -1.570796
  1 0.000000 0.000000 0.000000 0.000000 -0.000000 0.000000
  2 5.074374 -4.643044 38.219410 -1.440233 -0.308470 1.301225
  3 4.222169 -0.467508 0.000000 -0.022442 0.269762 -0.153017
  4 4.476987 -0.000002 -0.000000 -0.013736 0.139529 0.087404
  5 4.477083 0.000000 0.000002 -0.052707 -0.306832 0.125696
  6 4.477077 -0.000004 -0.000002 -0.080649 -0.317363 0.034352
  7 5.413502 -7.700466 -0.000000 0.065221 0.156081 -0.338100
  8 6.890240 0.000002 -0.000000 -0.000647 0.331688 -0.445204
  9 8.011925 0.000004 0.000005 -0.010281 0.130456 -0.283887
 10 7.210720 -0.000002 -0.000000 -0.017541 -0.164739 -0.057067
 11 8.581028 -0.304903 -0.000000 0.298439 -0.287564 0.980431
 12 22.523008 2.194031 6.355708 0.000000 -0.886251 0.000000
 13 22.523005 2.194038 -6.355709 0.000000 0.964129 0.000000
 14 -3.006533 7.804720 -11.355459 0.994656 -0.131345 2.724797
 15 10.384675 0.000008 0.000005 0.035693 0.191509 -1.648765
 16 22.550743 -0.000006 -0.000004 0.120899 0.013565 1.731950
 17 30.814247 -0.000015 -0.000004 -2.870994 -0.848989 -0.542657
 18 -3.013796 7.815494 11.355459 -0.304701 -0.681650 1.480772
 19 10.374533 -0.000002 0.000007 -0.540185 -0.050206 -0.979993
 20 22.550726 -0.000027 -0.000013 -0.010066 -0.012113 1.036902
 21 30.814270 -0.000023 0.000002 -2.575011 -0.023266 0.573772
 22 -4.250660 -0.770624 0.000001 0.015928 0.039670 -2.824561
 23 10.363422 0.000000 0.000000 0.003116 -0.035830 -0.468547
 24 10.363076 0.000000 -0.000000 -0.021560 -0.341672 -0.338057
 25 10.363081 -0.000004 -0.000002 0.207753 -0.514006 -0.602903
 26 8.210358 -0.000006 -7.703991 0.000000 0.000000 0.114003
 27 8.210346 -0.000002 7.704017 0.000000 0.000000 0.120479
 28 1.854841 1.227791 -13.762345 2.508524 0.270091 2.321401
 29 10.456543 -0.000004 0.000004 0.085659 0.078152 -0.975476
 30 24.248093 0.000001 0.000007 0.021309 0.026356 0.738416
 31 26.336971 0.000019 0.000002 0.306046 -0.074257 0.678447
 32 1.854847 1.227798 13.762341 -2.888957 -0.111720 2.815197
 33 10.456542 -0.000008 0.000004 -0.128519 -0.003139 -0.033072
 34 24.248116 0.000002 -0.000004 -0.011675 -0.001007 0.025618
 35 26.336975 0.000000 0.000004 -0.302671 -0.051491 0.415593
time 14
  0 0.000000 0.000000 0.000000 0.000000 -0.000000 -1.570796
  1 0.000000 0.000000 0.000000 0.000000 -0.000000 0.000000
  2 3.632923 -4.662576 37.836586 -1.451545 -0.246681 1.362387
  3 4.222169 -0.467508 0.000000 -0.022622 0.263255 -0.136365
  4 4.476987 -0.000002 -0.000000 -0.007803 0.113977 0.106605
  5 4.477083 0.000000 0.000002 -0.045887 -0.326814 0.118404
  6 4.477077 -0.000004 -0.000002 -0.084377 -0.328789 0.030926
  7 5.413502 -7.700466 -0.000000 0.025427 0.105277 -0.285951
  8 6.890240 0.000002 -0.000000 0.004003 0.283330 -0.406900
  9 8.011925 0.000004 0.000005 -0.022592 0.126670 -0.187173
 10 7.210720 -0.000002 -0.000000 -0.022922 -0.181458 -0.088980
 11 8.581028 -0.304903 -0.000000 0.385585 -0.248913 1.036511
 12 22.523008 2.194031 6.355708 0.000000 -0.807365 0.000000
 13 22.523005 2.194038 -6.355709 0.000000 0.864731 0.000000
 14 -3.006533 7.804720 -11.355459 0.959225 -0.139435 2.698495
 15 10.384675 0.000008 0.000005 0.009696 0.191446 -1.790502
 16 22.550743 -0.000006 -0.000004 0.124465 0.013249 1.893089
 17 30.814247 -0.000015 -0.000004 -2.765421 -0.862563 -0.641498
 18 -3.013796 7.815494 11.355459 -0.166117 -0.589391 1.312222
 19 10.374533 -0.000002 0.000007 -0.520771 -0.072000 -1.056243
 20 22.550726 -0.000027 -0.000013 -0.029063 -0.014567 1.130702
 21 30.814270 -0.000023 0.000002 -2.597848 -0.059942 0.564959
 22 -4.250660 -0.770624 0.000001 0.015951 0.127900 -2.798366
 23 10.363422 0.000000 0.000000 0.003260 0.007734 -0.467754
 24 10.363076 0.000000 -0.000000 -0.024101 -0.341504 -0.328766
 25 10.363081 -0.000004 -0.000002 0.218083 -0.522479 -0.646477
 26 8.210358 -0.000006 -7.703991 0.000000 0.000000 0.151812
 27 8.210346 -0.000002 7.704017 0.000000 0.000000 0.149438
 28 1.854841 1.227791 -13.762345 2.534512 0.272953 2.316110
 29 10.456543 -0.000004 0.000004 0.090184 0.075091 -0.917077
 30 24.248093 0.000001 0.000007 0.020122 0.025146 0.694843
 31 26.336971 0.000019 0.000002 0.333888 -0.082693 0.707220
 32 1.854847 1.227798 13.762341 -2.861237 -0.129122 2.773192
 33 10.456542 -0.000008 0.000004 -0.128587 -0.001246 -0.012972
 34 24.248116 0.000002 -0.000004 -0.011739 -0.000372 0.009828
 35 26.336975 0.000000 0.000004 -0.306873 -0.031110 0.368175
time 15
  0 0.000000 0.000000 0.000000 0.000000 -0.000000 -1.570796
  1 0.000000 0.000000 0.000000 0.000000 -0.000000 0.000000
  2 2.023499 -4.689920 37.434227 -1.461514 -0.181581 1.426520
  3 4.222169 -0.467508 0.000000 -0.021879 0.234484 -0.112889
  4 4.476987 -0.000002 -0.000000 -0.003201 0.087911 0.126471
  5 4.477083 0.000000 0.000002 -0.039691 -0.306913 0.100173
  6 4.477077 -0.000004 -0.000002 -0.078780 -0.301803 0.011709
  7 5.413502 -7.700466 -0.000000 0.023087 0.056937 -0.238967
  8 6.890240 0.000002 -0.000000 0.011098 0.181894 -0.355004
  9 8.011925 0.000004 0.000005 -0.012010 0.031967 -0.078519
 10 7.210720 -0.000002 -0.000000 -0.025914 -0.194646 -0.134274
 11 8.581028 -0.304903 -0.000000 0.462376 -0.213182 1.092836
 12 22.523008 2.194031 6.355708 0.000000 -0.410587 0.000000
 13 22.523005 2.194038 -6.355709 0.000000 0.401708 0.000000
 14 -3.006533 7.804720 -11.355459 0.976913 -0.072131 2.609082
 15 10.384675 0.000008 0.000005 -0.020185 0.187033 -1.953566
 16 22.550743 -0.000006 -0.000004 0.128607 0.012388 2.090789
 17 30.814247 -0.000015 -0.000004 -2.807571 -0.871309 -0.608623
 18 -3.013796 7.815494 11.355459 -0.040769 -0.480952 1.172400
 19 10.374533 -0.000002 0.000007 -0.450327 -0.108811 -1.152383
 20 22.550726 -0.000027 -0.000013 -0.053044 -0.015273 1.238212
 21 30.814270 -0.000023 0.000002 -2.651486 -0.036772 0.552045
 22 -4.250660 -0.770624 0.000001 0.016419 0.207335 -2.770839
 23 10.363422 0.000000 0.000000 0.003452 0.050339 -0.466808
 24 10.363076 0.000000 -0.000000 -0.029410 -0.338844 -0.309769
 25 10.363081 -0.000004 -0.000002 0.220299 -0.524867 -0.655873
 26 8.210358 -0.000006 -7.703991 0.000000 0.000000 0.165978
 27 8.210346 -0.000002 7.704017 0.000000 0.000000 0.159204
 28 1.854841 1.227791 -13.762345 2.566173 0.277246 2.312400
 29 10.456543 -0.000004 0.000004 0.095914 0.070660 -0.841441
 30 24.248093 0.000001 0.000007 0.018714 0.023350 0.638247
 31 26.336971 0.000019 0.000002 0.363775 -0.089499 0.746541
 32 1.854847 1.227798 13.762341 -2.829534 -0.155937 2.699481
 33 10.456542 -0.000008 0.000004 -0.128214 -0.008510 -0.089863
 34 24.248116 0.000002 -0.000004 -0.011726 -0.002601 0.068318
 35 26.336975 0.000000 0.000004 -0.304515 -0.035701 0.556545
time 16
  0 0.000000 0.000000 0.000000 0.000000 -0.000000 -1.570796
  1 0.000000 0.000000 0.000000 0.000000 -0.000000 0.000000
  2 0.355480 -4.721171 37.051407 -1.468320 -0.119791 1.487394
  3 4.222169 -0.467508 0.000000 -0.021963 0.204601 -0.089106
  4 4.476987 -0.000002 -0.000000 0.000202 0.061524 0.146826
  5 4.477083 0.000000 0.000002 -0.034058 -0.284638 0.081409
  6 4.477077 -0.000004 -0.000002 -0.072536 -0.269818 -0.015107
  7 5.413502 -7.700466 -0.000000 0.030291 0.017178 -0.201722
  8 6.890240 0.000002 -0.000000 0.019763 0.055482 -0.287122
  9 8.011925 0.000004 0.000005 0.008840 -0.120919 0.043607
 10 7.210720 -0.000002 -0.000000 -0.029894 -0.206581 -0.180668
 11 8.581028 -0.304903 -0.000000 0.522012 -0.174906 1.145131
 12 22.523008 2.194031 6.355708 0.000000 -0.026977 0.000000
 13 22.523005 2.194038 -6.355709 0.000000 -0.046947 0.000000
 14 -3.006533 7.804720 -11.355459 1.024987 0.048063 2.491926
 15 10.384675 0.000008 0.000005 -0.050066 0.177803 -2.122072
 16 22.550743 -0.000006 -0.000004 0.132494 0.011068 2.281467
 17 30.814247 -0.000015 -0.000004 -2.937124 -0.874224 -0.453020
 18 -3.013796 7.815494 11.355459 0.087734 -0.346953 1.043751
 19 10.374533 -0.000002 0.000007 -0.341191 -0.144359 -1.240868
 20 22.550726 -0.000027 -0.000013 -0.076270 -0.014351 1.338961
 21 30.814270 -0.000023 0.000002 -2.711473 -0.000267 0.537514
 22 -4.250660 -0.770624 0.000001 0.015975 0.269071 -2.740855
 23 10.363422 0.000000 0.000000 0.003703 0.091854 -0.465664
 24 10.363076 0.000000 -0.000000 -0.040412 -0.331305 -0.270229
 25 10.363081 -0.000004 -0.000002 0.216199 -0.523989 -0.638154
 26 8.210358 -0.000006 -7.703991 0.000000 0.000000 0.119778
 27 8.210346 -0.000002 7.704017 0.000000 0.000000 0.112612
 28 1.854841 1.227791 -13.762345 2.597174 0.281293 2.307230
 29 10.456543 -0.000004 0.000004 0.102919 0.063898 -0.741707
 30 24.248093 0.000001 0.000007 0.017157 0.020687 0.563713
 31 26.336971 0.000019 0.000002 0.394054 -0.095044 0.796962
 32 1.854847 1.227798 13.762341 -2.788782 -0.166334 2.574028
 33 10.456542 -0.000008 0.000004 -0.126756 -0.018556 -0.196904
 34 24.248116 0.000002 -0.000004 -0.011947 -0.005693 0.149809
 35 26.336975 0.000000 0.000004 -0.297310 -0.036011 0.769274
time 17
  0 0.000000 0.000000 0.000000 0.000000 -0.000000 -1.570796
  1 0.000000 0.000000 0.000000 0.000000 -0.000000 0.000000
  2 -1.257851 -4.760235 36.723270 -1.472922 -0.060555 1.546351
  3 4.222169 -0.467508 0.000000 -0.022682 0.174440 -0.065324
  4 4.476987 -0.000002 -0.000000 0.002539 0.034838 0.167670
  5 4.477083 0.000000 0.000002 -0.028977 -0.260876 0.062378
  6 4.477077 -0.000004 -0.000002 -0.066484 -0.235259 -0.045272
  7 5.413502 -7.700466 -0.000000 0.072080 0.015836 -0.185916
  8 6.890240 0.000002 -0.000000 0.030201 -0.024728 -0.197667
  9 8.011925 0.000004 0.000005 0.002501 -0.215686 0.175492
 10 7.210720 -0.000002 -0.000000 -0.013835 -0.218427 -0.257795
 11 8.581028 -0.304903 -0.000000 0.482584 -0.136153 1.193675
 12 22.523008 2.194031 6.355708 0.000000 0.041826 0.000000
 13 22.523005 2.194038 -6.355709 0.000000 -0.138692 0.000000
 14 -3.006533 7.804720 -11.355459 1.083479 0.209699 2.362408
 15 10.384675 0.000008 0.000005 -0.075016 0.165477 -2.272362
 16 22.550743 -0.000006 -0.000004 0.135484 0.009863 2.420209
 17 30.814247 -0.000015 -0.000004 -3.117912 -0.856199 -0.202015
 18 -3.013796 7.815494 11.355459 0.202644 -0.197148 0.936476
 19 10.374533 -0.000002 0.000007 -0.224032 -0.169010 -1.316540
 20 22.550726 -0.000027 -0.000013 -0.095308 -0.013821 1.410614
 21 30.814270 -0.000023 0.000002 -2.769251 0.032152 0.529397
 22 -4.250660 -0.770624 0.000001 0.016479 0.324965 -2.709641
 23 10.363422 0.000000 0.000000 0.004039 0.132362 -0.464365
 24 10.363076 0.000000 -0.000000 -0.058892 -0.317679 -0.202607
 25 10.363081 -0.000004 -0.000002 0.202890 -0.520060 -0.579734
 26 8.210358 -0.000006 -7.703991 0.000000 0.000000 0.016170
 27 8.210346 -0.000002 7.704017 0.000000 0.000000 0.009257
 28 1.854841 1.227791 -13.762345 2.628264 0.287016 2.314407
 29 10.456543 -0.000004 0.000004 0.110204 0.055144 -0.624041
 30 24.248093 0.000001 0.000007 0.015526 0.017277 0.470471
 31 26.336971 0.000019 0.000002 0.423506 -0.101193 0.852189
 32 1.854847 1.227798 13.762341 -2.736482 -0.143597 2.343285
 33 10.456542 -0.000008 0.000004 -0.120617 -0.037591 -0.407043
 34 24.248116 0.000002 -0.000004 -0.013190 -0.011542 0.309642
 35 26.336975 0.000000 0.000004 -0.278828 -0.032692 0.825791
time 18
  0 0.000000 0.000000 0.000000 0.000000 -0.000000 -1.570796
  1 0.000000 0.000000 0.000000 0.000000 -0.000000 0.000000
  2 -2.707114 -4.807112 36.496700 -1.475989 -0.003313 1.603966
  3 4.222169 -0.467508 0.000000 -0.023821 0.144502 -0.041971
  4 4.476987 -0.000002 -0.000000 0.003918 0.008065 0.188802
  5 4.477083 0.000000 0.000002 -0.024495 -0.235822 0.043243
  6 4.477077 -0.000004 -0.000002 -0.060911 -0.199704 -0.074845
  7 5.413502 -7.700466 -0.000000 0.178425 0.090308 -0.197522
  8 6.890240 0.000002 -0.000000 0.044295 -0.047169 -0.080472
  9 8.011925 0.000004 0.000005 -0.055583 -0.221996 0.317008
 10 7.210720 -0.000002 -0.000000 0.052789 -0.222859 -0.414542
 11 8.581028 -0.304903 -0.000000 0.218457 -0.094924 1.226026
 12 22.523008 2.194031 6.355708 0.000000 -0.007882 0.000000
 13 22.523005 2.194038 -6.355709 0.000000 -0.097735 0.000000
 14 -3.006533 7.804720 -11.355459 1.128135 0.385785 2.232272
 15 10.384675 0.000008 0.000005 -0.087118 0.157732 -2.349839
 16 22.550743 -0.000006 -0.000004 0.136828 0.008944 2.484979
 17 30.814247 -0.000015 -0.000004 2.990338 -0.805635 0.045838
 18 -3.013796 7.815494 11.355459 0.284614 -0.056162 0.853256
 19 10.374533 -0.000002 0.000007 -0.131681 -0.180339 -1.362928
 20 22.550726 -0.000027 -0.000013 -0.106808 -0.013821 1.447712
 21 30.814270 -0.000023 0.000002 -2.818609 0.045805 0.541167
 22 -4.250660 -0.770624 0.000001 0.019067 0.381340 -2.677941
 23 10.363422 0.000000 0.000000 0.004434 0.171695 -0.462869
 24 10.363076 0.000000 -0.000000 -0.081256 -0.300936 -0.119241
 25 10.363081 -0.000004 -0.000002 0.185444 -0.514252 -0.501501
 26 8.210358 -0.000006 -7.703991 0.000000 0.000000 -0.115974
 27 8.210346 -0.000002 7.704017 0.000000 0.000000 -0.122887
 28 1.854841 1.227791 -13.762345 2.660716 0.296343 2.353393
 29 10.456543 -0.000004 0.000004 0.118031 0.042670 -0.469511
 30 24.248093 0.000001 0.000007 0.013894 0.012938 0.347451
 31 26.336971 0.000019 0.000002 0.453697 -0.110785 0.901008
 32 1.854847 1.227798 13.762341 -2.695798 -0.117493 2.146620
 33 10.456542 -0.000008 0.000004 -0.107052 -0.059269 -0.674368
 34 24.248116 0.000002 -0.000004 -0.016196 -0.018493 0.512479
 35 26.336975 0.000000 0.000004 -0.256186 -0.030893 0.774982
time 19
  0 0.000000 0.000000 0.000000 0.000000 -0.000000 -1.570796
  1 0.000000 0.000000 0.000000 0.000000 -0.000000 0.000000
  2 -3.929807 -5.064932 36.379509 -1.473880 0.044754 1.657075
  3 4.222169 -0.467508 0.000000 -0.025115 0.115175 -0.019261
  4 4.476987 -0.000002 -0.000000 0.003594 -0.019157 0.210400
  5 4.477083 0.000000 0.000002 -0.021391 -0.209185 0.023663
  6 4.477077 -0.000004 -0.000002 -0.055710 -0.165182 -0.100136
  7 5.413502 -7.700466 -0.000000 0.269299 0.170880 -0.204523
  8 6.890240 0.000002 -0.000000 0.057718 -0.057481 0.027576
  9 8.011925 0.000004 0.000005 -0.118068 -0.200077 0.438536
 10 7.210720 -0.000002 -0.000000 0.122652 -0.215038 -0.575874
 11 8.581028 -0.304903 -0.000000 -0.053593 -0.057519 1.233106
 12 22.523008 2.194031 6.355708 0.000000 -0.031560 0.000000
 13 22.523005 2.194038 -6.355709 0.000000 -0.073929 0.000000
 14 -3.006533 7.804720 -11.355459 1.149025 0.559787 2.098566
 15 10.384675 0.000008 0.000005 -0.084803 0.159493 -2.334900
 16 22.550743 -0.000006 -0.000004 0.136524 0.008973 2.472812
 17 30.814247 -0.000015 -0.000004 2.847420 -0.731842 0.237145
 18 -3.013796 7.815494 11.355459 0.329723 0.065542 0.784798
 19 10.374533 -0.000002 0.000007 -0.090021 -0.182864 -1.364841
 20 22.550726 -0.000027 -0.000013 -0.112977 -0.013840 1.454474
 21 30.814270 -0.000023 0.000002 -2.858706 0.028140 0.562225
 22 -4.250660 -0.770624 0.000001 0.023849 0.438823 -2.644705
 23 10.363422 0.000000 0.000000 0.004866 0.210777 -0.461417
 24 10.363076 0.000000 -0.000000 -0.105764 -0.281437 -0.025448
 25 10.363081 -0.000004 -0.000002 0.167850 -0.507612 -0.420476
 26 8.210358 -0.000006 -7.703991 0.000000 0.000000 -0.253620
 27 8.210346 -0.000002 7.704017 0.000000 0.000000 -0.260592
 28 1.854841 1.227791 -13.762345 2.686133 0.301820 2.392014
 29 10.456543 -0.000004 0.000004 0.123796 0.029252 -0.317023
 30 24.248093 0.000001 0.000007 0.012856 0.008883 0.237337
 31 26.336971 0.000019 0.000002 0.486412 -0.126184 0.933260
 32 1.854847 1.227798 13.762341 -2.664871 -0.100720 2.015179
 33 10.456542 -0.000008 0.000004 -0.096877 -0.069844 -0.826416
 34 24.248116 0.000002 -0.000004 -0.018540 -0.022400 0.627023
 35 26.336975 0.000000 0.000004 -0.233758 -0.029621 0.718692
time 20
  0 0.000000 0.000000 0.000000 0.000000 -0.000000 -1.570796
  1 0.000000 0.000000 0.000000 0.000000 -0.000000 0.000000
  2 -4.941557 -6.037618 36.348259 -1.462377 0.073714 1.700022
  3 4.222169 -0.467508 0.000000 -0.026265 0.087109 0.002344
  4 4.476987 -0.000002 -0.000000 0.010114 -0.043830 0.231176
  5 4.477083 0.000000 0.000002 -0.011599 -0.186844 0.007478
  6 4.477077 -0.000004 -0.000002 -0.050628 -0.139887 -0.117983
  7 5.413502 -7.700466 -0.000000 0.245561 0.188942 -0.196339
  8 6.890240 0.000002 -0.000000 0.065448 -0.076211 0.091200
  9 8.011925 0.000004 0.000005 -0.149225 -0.188335 0.511007
 10 7.210720 -0.000002 -0.000000 0.151668 -0.210183 -0.670110
 11 8.581028 -0.304903 -0.000000 -0.121795 -0.030204 1.227884
 12 22.523008 2.194031 6.355708 0.000000 -0.026183 0.000000
 13 22.523005 2.194038 -6.355709 0.000000 -0.051272 0.000000
 14 -3.006533 7.804720 -11.355459 1.144196 0.743787 1.943913
 15 10.384675 0.000008 0.000005 -0.067509 0.169783 -2.226375
 16 22.550743 -0.000006 -0.000004 0.134461 0.010150 2.376322
 17 30.814247 -0.000015 -0.000004 2.737655 -0.630839 0.392102
 18 -3.013796 7.815494 11.355459 0.351310 0.187135 0.710641
 19 10.374533 -0.000002 0.000007 -0.094942 -0.179176 -1.294969
 20 22.550726 -0.000027 -0.000013 -0.113243 -0.013801 1.388777
 21 30.814270 -0.000023 0.000002 -2.902556 0.004749 0.592348
 22 -4.250660 -0.770624 0.000001 0.029494 0.487415 -2.614567
 23 10.363422 0.000000 0.000000 0.005741 0.243267 -0.458314
 24 10.363076 0.000000 -0.000000 -0.130860 -0.258631 0.075261
 25 10.363081 -0.000004 -0.000002 0.149875 -0.499524 -0.334994
 26 8.210358 -0.000006 -7.703991 0.000000 0.000000 -0.386409
 27 8.210346 -0.000002 7.704017 0.000000 0.000000 -0.393482
 28 1.854841 1.227791 -13.762345 2.681691 0.290767 2.365071
 29 10.456543 -0.000004 0.000004 0.123796 0.029110 -0.314287
 30 24.248093 0.000001 0.000007 0.012856 0.008822 0.240237
 31 26.336971 0.000019 0.000002 0.523695 -0.147391 0.925694
 32 1.854847 1.227798 13.762341 -2.637117 -0.075793 1.887228
 33 10.456542 -0.000008 0.000004 -0.085618 -0.078499 -0.975665
 34 24.248116 0.000002 -0.000004 -0.021222 -0.026067 0.738571
 35 26.336975 0.000000 0.000004 -0.212573 -0.032382 0.659575
time 21
  0 0.000000 0.000000 0.000000 0.000000 -0.000000 -1.570796
  1 0.000000 0.000000 0.000000 0.000000 -0.000000 0.000000
  2 -5.789239 -7.897049 36.340446 -1.446847 0.093100 1.737218
  3 4.222169 -0.467508 0.000000 -0.026901 0.060822 0.022477
  4 4.476987 -0.000002 -0.000000 0.034610 -0.062593 0.249312
  5 4.477083 0.000000 0.000002 0.014958 -0.175795 -0.000407
  6 4.477077 -0.000004 -0.000002 -0.045463 -0.128086 -0.128666
  7 5.413502 -7.700466 -0.000000 0.155777 0.181143 -0.179942
  8 6.890240 0.000002 -0.000000 0.070062 -0.096012 0.130273
  9 8.011925 0.000004 0.000005 -0.165255 -0.181210 0.555990
 10 7.210720 -0.000002 -0.000000 0.162731 -0.208170 -0.728599
 11 8.581028 -0.304903 -0.000000 -0.109486 -0.008249 1.213268
 12 22.523008 2.194031 6.355708 0.000000 -0.008860 0.000000
 13 22.523005 2.194038 -6.355709 0.000000 -0.029644 0.000000
 14 -3.006533 7.804720 -11.355459 1.091293 0.940471 1.738580
 15 10.384675 0.000008 0.000005 -0.033818 0.183574 -2.030377
 16 22.550743 -0.000006 -0.000004 0.130031 0.011872 2.178198
 17 30.814247 -0.000015 -0.000004 2.668598 -0.491404 0.524319
 18 -3.013796 7.815494 11.355459 0.349324 0.327037 0.610092
 19 10.374533 -0.000002 0.000007 -0.121299 -0.167515 -1.137481
 20 22.550726 -0.000027 -0.000013 -0.110036 -0.013192 1.227356
 21 30.814270 -0.000023 0.000002 -2.960018 0.003770 0.651171
 22 -4.250660 -0.770624 0.000001 0.033113 0.513845 -2.594441
 23 10.363422 0.000000 0.000000 0.008629 0.260034 -0.447553
 24 10.363076 0.000000 -0.000000 -0.153379 -0.236507 0.172126
 25 10.363081 -0.000004 -0.000002 0.132885 -0.492391 -0.247231
 26 8.210358 -0.000006 -7.703991 0.000000 0.000000 -0.490493
 27 8.210346 -0.000002 7.704017 0.000000 0.000000 -0.497482
 28 1.854841 1.227791 -13.762345 2.649459 0.260075 2.260033
 29 10.456543 -0.000004 0.000004 0.116860 0.044680 -0.491568
 30 24.248093 0.000001 0.000007 0.014265 0.013745 0.374387
 31 26.336971 0.000019 0.000002 0.564893 -0.169517 0.882949
 32 1.854847 1.227798 13.762341 -2.613619 -0.033765 1.742647
 33 10.456542 -0.000008 0.000004 -0.070628 -0.086180 -1.153685
 34 24.248116 0.000002 -0.000004 -0.024901 -0.029723 0.870225
 35 26.336975 0.000000 0.000004 -0.193490 -0.047365 0.588590
time 22
  0 0.000000 0.000000 0.000000 0.000000 -0.000000 -1.570796
  1 0.000000 0.000000 0.000000 0.000000 -0.000000 0.000000
  2 -6.457228 -10.135399 36.336540 -1.431606 0.110452 1.771921
  3 4.222169 -0.467508 0.000000 -0.026625 0.036463 0.041092
  4 4.476987 -0.000002 -0.000000 0.066957 -0.080048 0.266404
  5 4.477083 0.000000 0.000002 0.045387 -0.169399 -0.004720
  6 4.477077 -0.000004 -0.000002 -0.040417 -0.125567 -0.134381
  7 5.413502 -7.700466 -0.000000 0.059254 0.176895 -0.161397
  8 6.890240 0.000002 -0.000000 0.073058 -0.112440 0.154964
  9 8.011925 0.000004 0.000005 -0.173768 -0.174772 0.584412
 10 7.210720 -0.000002 -0.000000 0.169099 -0.204745 -0.765419
 11 8.581028 -0.304903 -0.000000 -0.103355 0.007320 1.180812
 12 22.523008 2.194031 6.355708 0.000000 0.006966 0.000000
 13 22.523005 2.194038 -6.355709 0.000000 -0.009135 0.000000
 14 -3.006533 7.804720 -11.355459 0.933288 1.112176 1.449191
 15 10.384675 0.000008 0.000005 0.011975 0.191615 -1.777672
 16 22.550743 -0.000006 -0.000004 0.123986 0.013536 1.892544
 17 30.814247 -0.000015 -0.000004 2.626797 -0.341750 0.638738
 18 -3.013796 7.815494 11.355459 0.320151 0.462381 0.487542
 19 10.374533 -0.000002 0.000007 -0.152780 -0.145821 -0.921311
 20 22.550726 -0.000027 -0.000013 -0.106012 -0.011700 1.000921
 21 30.814270 -0.000023 0.000002 -3.020813 0.025766 0.734538
 22 -4.250660 -0.770624 0.000001 0.032191 0.524934 -2.592776
 23 10.363422 0.000000 0.000000 0.013962 0.267992 -0.427681
 24 10.363076 0.000000 -0.000000 -0.170828 -0.222233 0.251671
 25 10.363081 -0.000004 -0.000002 0.118332 -0.489942 -0.161990
 26 8.210358 -0.000006 -7.703991 0.000000 0.000000 -0.534247
 27 8.210346 -0.000002 7.704017 0.000000 0.000000 -0.541055
 28 1.854841 1.227791 -13.762345 2.615951 0.224917 2.142893
 29 10.456543 -0.000004 0.000004 0.105313 0.061158 -0.702456
 30 24.248093 0.000001 0.000007 0.016749 0.019496 0.533757
 31 26.336971 0.000019 0.000002 0.608614 -0.189778 0.829159
 32 1.854847 1.227798 13.762341 -2.598729 0.014775 1.601427
 33 10.456542 -0.000008 0.000004 -0.054824 -0.091161 -1.328827
 34 24.248116 0.000002 -0.000004 -0.028826 -0.032779 0.999086
 35 26.336975 0.000000 0.000004 -0.173507 -0.066661 0.510823
time 23
  0 0.000000 0.000000 0.000000 0.000000 -0.000000 -1.570796
  1 0.000000 0.000000 0.000000 0.000000 -0.000000 0.000000
  2 -6.890835 -11.983112 36.328728 -1.419527 0.120464 1.798954
  3 4.222169 -0.467508 0.000000 -0.025187 0.018945 0.053558
  4 4.476987 -0.000002 -0.000000 0.091861 -0.094505 0.279633
  5 4.477083 0.000000 0.000002 0.067906 -0.162856 -0.008856
  6 4.477077 -0.000004 -0.000002 -0.035923 -0.127728 -0.137277
  7 5.413502 -7.700466 -0.000000 -0.027301 0.171594 -0.144533
  8 6.890240 0.000002 -0.000000 0.075431 -0.128608 0.175652
  9 8.011925 0.000004 0.000005 -0.179610 -0.168861 0.607410
 10 7.210720 -0.000002 -0.000000 0.173272 -0.201479 -0.795481
 11 8.581028 -0.304903 -0.000000 -0.096397 0.021080 1.142958
 12 22.523008 2.194031 6.355708 0.000000 0.022822 0.000000
 13 22.523005 2.194038 -6.355709 0.000000 0.010285 0.000000
 14 -3.006533 7.804720 -11.355459 0.607459 1.222618 1.031246
 15 10.384675 0.000008 0.000005 0.062548 0.188645 -1.493366
 16 22.550743 -0.000006 -0.000004 0.117540 0.014311 1.584129
 17 30.814247 -0.000015 -0.000004 2.593077 -0.218365 0.737830
 18 -3.013796 7.815494 11.355459 0.271173 0.554491 0.362141
 19 10.374533 -0.000002 0.000007 -0.177924 -0.119409 -0.715290
 20 22.550726 -0.000027 -0.000013 -0.102457 -0.009718 0.782364
 21 30.814270 -0.000023 0.000002 -3.071118 0.053390 0.813777
 22 -4.250660 -0.770624 0.000001 0.020841 0.520056 -2.631953
 23 10.363422 0.000000 0.000000 0.021177 0.272953 -0.400768
 24 10.363076 0.000000 -0.000000 -0.185569 -0.211735 0.322390
 25 10.363081 -0.000004 -0.000002 0.104777 -0.488863 -0.078442
 26 8.210358 -0.000006 -7.703991 0.000000 0.000000 -0.501534
 27 8.210346 -0.000002 7.704017 0.000000 0.000000 -0.508536
 28 1.854841 1.227791 -13.762345 2.595284 0.203649 2.070882
 29 10.456543 -0.000004 0.000004 0.095931 0.070767 -0.843916
 30 24.248093 0.000001 0.000007 0.018751 0.023148 0.640142
 31 26.336971 0.000019 0.000002 0.647637 -0.205098 0.780505
 32 1.854847 1.227798 13.762341 -2.593901 0.053273 1.499239
 33 10.456542 -0.000008 0.000004 -0.043395 -0.093192 -1.449110
 34 24.248116 0.000002 -0.000004 -0.031598 -0.034684 1.087126
 35 26.336975 0.000000 0.000004 -0.156611 -0.081210 0.448090
time 24
  0 0.000000 0.000000 0.000000 0.000000 -0.000000 -1.570796
  1 0.000000 0.000000 0.000000 0.000000 -0.000000 0.000000
  2 -7.058809 -12.908922 36.297478 -1.414159 0.119188 1.815347
  3 4.222169 -0.467508 0.000000 -0.023413 0.014107 0.054187
  4 4.476987 -0.000002 -0.000000 0.097433 -0.096540 0.281476
  5 4.477083 0.000000 0.000002 0.081137 -0.156960 -0.012442
  6 4.477077 -0.000004 -0.000002 -0.032531 -0.130021 -0.139380
  7 5.413502 -7.700466 -0.000000 -0.059161 0.155333 -0.138341
  8 6.890240 0.000002 -0.000000 0.076965 -0.137391 0.178538
  9 8.011925 0.000004 0.000005 -0.179623 -0.163366 0.616832
 10 7.210720 -0.000002 -0.000000 0.175578 -0.195176 -0.805189
 11 8.581028 -0.304903 -0.000000 -0.090197 0.031289 1.093222
 12 22.523008 2.194031 6.355708 0.000000 0.038679 0.000000
 13 22.523005 2.194038 -6.355709 0.000000 0.028646 0.000000
 14 -3.006533 7.804720 -11.355459 0.258406 1.237669 0.633834
 15 10.384675 0.000008 0.000005 0.104457 0.175533 -1.242661
 16 22.550743 -0.000006 -0.000004 0.112327 0.013766 1.333099
 17 30.814247 -0.000015 -0.000004 2.565428 -0.138239 0.808056
 18 -3.013796 7.815494 11.355459 0.237927 0.590999 0.292316
 19 10.374533 -0.000002 0.000007 -0.188979 -0.103894 -0.608713
 20 22.550726 -0.000027 -0.000013 -0.100864 -0.008756 0.668401
 21 30.814270 -0.000023 0.000002 -3.093955 0.067287 0.856730
 22 -4.250660 -0.770624 0.000001 0.002912 0.503109 -2.700372
 23 10.363422 0.000000 0.000000 0.032107 0.274164 -0.359352
 24 10.363076 0.000000 -0.000000 -0.198968 -0.201344 0.390915
 25 10.363081 -0.000004 -0.000002 0.091603 -0.486768 0.004141
 26 8.210358 -0.000006 -7.703991 0.000000 0.000000 -0.413857
 27 8.210346 -0.000002 7.704017 0.000000 0.000000 -0.420949
 28 1.854841 1.227791 -13.762345 2.589875 0.195286 2.049351
 29 10.456543 -0.000004 0.000004 0.091616 0.074397 -0.904573
 30 24.248093 0.000001 0.000007 0.019715 0.024440 0.685726
 31 26.336971 0.000019 0.000002 0.659165 -0.206728 0.760900
 32 1.854847 1.227798 13.762341 -2.592145 0.069170 1.457105
 33 10.456542 -0.000008 0.000004 -0.038037 -0.093276 -1.503458
 34 24.248116 0.000002 -0.000004 -0.032984 -0.035439 1.126628
 35 26.336975 0.000000 0.000004 -0.152280 -0.088004 0.427405
time 25
  0 0.000000 0.000000 0.000000 0.000000 -0.000000 -1.570796
  1 0.000000 0.000000 0.000000 0.000000 -0.000000 0.000000
  2 -6.988494 -13.088614 36.180283 -1.416651 0.105625 1.822345
  3 4.222169 -0.467508 0.000000 -0.021711 0.013236 0.051074
  4 4.476987 -0.000002 -0.000000 0.094353 -0.092492 0.277791
  5 4.477083 0.000000 0.000002 0.087393 -0.152050 -0.015481
  6 4.477077 -0.000004 -0.000002 -0.030842 -0.127747 -0.142775
  7 5.413502 -7.700466 -0.000000 -0.036738 0.126227 -0.142261
  8 6.890240 0.000002 -0.000000 0.075155 -0.117342 0.106722
  9 8.011925 0.000004 0.000005 -0.158118 -0.160250 0.566424
 10 7.210720 -0.000002 -0.000000 0.161193 -0.173036 -0.724442
 11 8.581028 -0.304903 -0.000000 -0.079427 0.027653 0.994872
 12 22.523008 2.194031 6.355708 0.000000 0.055055 0.000000
 13 22.523005 2.194038 -6.355709 0.000000 0.046432 0.000000
 14 -3.006533 7.804720 -11.355459 0.141748 1.197463 0.508505
 15 10.384675 0.000008 0.000005 0.126232 0.164225 -1.103868
 16 22.550743 -0.000006 -0.000004 0.109400 0.013019 1.188486
 17 30.814247 -0.000015 -0.000004 2.547607 -0.097174 0.839642
 18 -3.013796 7.815494 11.355459 0.242917 0.587150 0.310898
 19 10.374533 -0.000002 0.000007 -0.188103 -0.105090 -0.617990
 20 22.550726 -0.000027 -0.000013 -0.101028 -0.008834 0.678141
 21 30.814270 -0.000023 0.000002 -3.090237 0.062198 0.856395
 22 -4.250660 -0.770624 0.000001 -0.019379 0.478894 -2.785589
 23 10.363422 0.000000 0.000000 0.049269 0.273229 -0.294457
 24 10.363076 0.000000 -0.000000 -0.211085 -0.191517 0.456885
 25 10.363081 -0.000004 -0.000002 0.079057 -0.484149 0.085219
 26 8.210358 -0.000006 -7.703991 0.000000 0.000000 -0.283718
 27 8.210346 -0.000002 7.704017 0.000000 0.000000 -0.290737
 28 1.854841 1.227791 -13.762345 2.593481 0.187465 2.047831
 29 10.456543 -0.000004 0.000004 0.090498 0.075145 -0.919205
 30 24.248093 0.000001 0.000007 0.020011 0.024742 0.696620
 31 26.336971 0.000019 0.000002 0.650595 -0.198134 0.756758
 32 1.854847 1.227798 13.762341 -2.585798 0.063671 1.462921
 33 10.456542 -0.000008 0.000004 -0.035832 -0.093220 -1.526198
 34 24.248116 0.000002 -0.000004 -0.033606 -0.035643 1.142977
 35 26.336975 0.000000 0.000004 -0.152151 -0.092378 0.420736
time 26
  0 0.000000 0.000000 0.000000 0.000000 -0.000000 -1.570796
  1 0.000000 0.000000 0.000000 0.000000 -0.000000 0.000000
  2 -6.738487 -13.080801 35.926369 -1.427771 0.078780 1.821962
  3 4.222169 -0.467508 0.000000 -0.019997 0.011956 0.048406
  4 4.476987 -0.000002 -0.000000 0.089092 -0.086474 0.272197
  5 4.477083 0.000000 0.000002 0.087274 -0.143682 -0.019023
  6 4.477077 -0.000004 -0.000002 -0.029487 -0.120606 -0.146777
  7 5.413502 -7.700466 -0.000000 0.009145 0.091157 -0.151160
  8 6.890240 0.000002 -0.000000 0.063926 -0.078236 -0.015638
  9 8.011925 0.000004 0.000005 -0.121892 -0.158908 0.460521
 10 7.210720 -0.000002 -0.000000 0.123613 -0.126992 -0.559704
 11 8.581028 -0.304903 -0.000000 -0.056762 0.016898 0.859824
 12 22.523008 2.194031 6.355708 0.000000 0.067275 0.000000
 13 22.523005 2.194038 -6.355709 0.000000 0.059107 0.000000
 14 -3.006533 7.804720 -11.355459 0.193892 1.147612 0.579170
 15 10.384675 0.000008 0.000005 0.131462 0.161170 -1.068212
 16 22.550743 -0.000006 -0.000004 0.108840 0.012962 1.154891
 17 30.814247 -0.000015 -0.000004 2.541098 -0.077017 0.835273
 18 -3.013796 7.815494 11.355459 0.267966 0.561441 0.382376
 19 10.374533 -0.000002 0.000007 -0.183654 -0.111402 -0.661943
 20 22.550726 -0.000027 -0.000013 -0.101702 -0.009227 0.725290
 21 30.814270 -0.000023 0.000002 -3.074170 0.048325 0.835951
 22 -4.250660 -0.770624 0.000001 -0.049748 0.442963 -2.892109
 23 10.363422 0.000000 0.000000 0.067701 0.270796 -0.224785
 24 10.363076 0.000000 -0.000000 -0.222074 -0.182553 0.520636
 25 10.363081 -0.000004 -0.000002 0.067361 -0.481299 0.163775
 26 8.210358 -0.000006 -7.703991 0.000000 0.000000 -0.142368
 27 8.210346 -0.000002 7.704017 0.000000 0.000000 -0.149336
 28 1.854841 1.227791 -13.762345 2.611378 0.172859 2.067962
 29 10.456543 -0.000004 0.000004 0.089869 0.075465 -0.926760
 30 24.248093 0.000001 0.000007 0.020197 0.024984 0.702125
 31 26.336971 0.000019 0.000002 0.634586 -0.185022 0.754935
 32 1.854847 1.227798 13.762341 -2.577019 0.051084 1.483040
 33 10.456542 -0.000008 0.000004 -0.034001 -0.093276 -1.545154
 34 24.248116 0.000002 -0.000004 -0.034085 -0.035787 1.156482
 35 26.336975 0.000000 0.000004 -0.153481 -0.097155 0.415536
time 27
  0 0.000000 0.000000 0.000000 0.000000 -0.000000 -1.570796
  1 0.000000 0.000000 0.000000 0.000000 -0.000000 0.000000
  2 -6.351756 -13.069082 35.555267 -1.443205 0.045272 1.819086
  3 4.222169 -0.467508 0.000000 -0.018272 0.010677 0.045723
  4 4.476987 -0.000002 -0.000000 0.081985 -0.078913 0.265050
  5 4.477083 0.000000 0.000002 0.076619 -0.122295 -0.025382
  6 4.477077 -0.000004 -0.000002 -0.027390 -0.110496 -0.150156
  7 5.413502 -7.700466 -0.000000 0.060875 0.055085 -0.162517
  8 6.890240 0.000002 -0.000000 0.028344 -0.066121 -0.091666
  9 8.011925 0.000004 0.000005 -0.097453 -0.139770 0.349920
 10 7.210720 -0.000002 -0.000000 0.075820 -0.063646 -0.386115
 11 8.581028 -0.304903 -0.000000 -0.015175 0.016010 0.723305
 12 22.523008 2.194031 6.355708 0.000000 0.063762 0.000000
 13 22.523005 2.194038 -6.355709 0.000000 0.056294 0.000000
 14 -3.006533 7.804720 -11.355459 0.300783 1.083276 0.720637
 15 10.384675 0.000008 0.000005 0.126643 0.164246 -1.101036
 16 22.550743 -0.000006 -0.000004 0.109512 0.013192 1.191755
 17 30.814247 -0.000015 -0.000004 2.542147 -0.058428 0.807054
 18 -3.013796 7.815494 11.355459 0.293931 0.525868 0.463943
 19 10.374533 -0.000002 0.000007 -0.176104 -0.121402 -0.731931
 20 22.550726 -0.000027 -0.000013 -0.102805 -0.010091 0.801223
 21 30.814270 -0.000023 0.000002 -3.056103 0.033792 0.813163
 22 -4.250660 -0.770624 0.000001 -0.077828 0.401079 -2.998553
 23 10.363422 0.000000 0.000000 0.085055 0.266877 -0.158965
 24 10.363076 0.000000 -0.000000 -0.231231 -0.173193 0.576643
 25 10.363081 -0.000004 -0.000002 0.056502 -0.478541 0.240262
 26 8.210358 -0.000006 -7.703991 0.000000 0.000000 -0.007473
 27 8.210346 -0.000002 7.704017 0.000000 0.000000 -0.014378
 28 1.854841 1.227791 -13.762345 2.633057 0.155835 2.094298
 29 10.456543 -0.000004 0.000004 0.089188 0.075821 -0.934836
 30 24.248093 0.000001 0.000007 0.020382 0.025247 0.708045
 31 26.336971 0.000019 0.000002 0.615748 -0.169911 0.753168
 32 1.854847 1.227798 13.762341 -2.564965 0.029961 1.519056
 33 10.456542 -0.000008 0.000004 -0.032102 -0.093276 -1.564702
 34 24.248116 0.000002 -0.000004 -0.034591 -0.035943 1.170495
 35 26.336975 0.000000 0.000004 -0.162486 -0.102460 0.421753
time 28
  0 0.000000 0.000000 0.000000 0.000000 -0.000000 -1.570796
  1 0.000000 0.000000 0.000000 0.000000 -0.000000 0.000000
  2 -5.871273 -13.057364 35.094315 -1.459309 0.010249 1.816210
  3 4.222169 -0.467508 0.000000 -0.016546 0.009435 0.043055
  4 4.476987 -0.000002 -0.000000 0.074063 -0.070731 0.257147
  5 4.477083 0.000000 0.000002 0.064203 -0.099098 -0.032126
  6 4.477077 -0.000004 -0.000002 -0.024645 -0.098431 -0.152773
  7 5.413502 -7.700466 -0.000000 0.113935 0.020016 -0.175554
  8 6.890240 0.000002 -0.000000 -0.061073 -0.142933 -0.099113
  9 8.011925 0.000004 0.000005 -0.141026 -0.043022 0.264212
 10 7.210720 -0.000002 -0.000000 -0.021879 0.035716 -0.234222
 11 8.581028 -0.304903 -0.000000 0.095900 0.059236 0.608061
 12 22.523008 2.194031 6.355708 0.000000 0.056338 0.000000
 13 22.523005 2.194038 -6.355709 0.000000 0.049699 0.000000
 14 -3.006533 7.804720 -11.355459 0.382118 0.997423 0.842875
 15 10.384675 0.000008 0.000005 0.120219 0.167938 -1.143523
 16 22.550743 -0.000006 -0.000004 0.110328 0.013392 1.239274
 17 30.814247 -0.000015 -0.000004 2.543894 -0.039024 0.775181
 18 -3.013796 7.815494 11.355459 0.318675 0.468435 0.557652
 19 10.374533 -0.000002 0.000007 -0.167071 -0.131834 -0.809226
 20 22.550726 -0.000027 -0.000013 -0.104092 -0.010994 0.885097
 21 30.814270 -0.000023 0.000002 -3.038002 0.019870 0.790516
 22 -4.250660 -0.770624 0.000001 -0.100599 0.356739 -3.095650
 23 10.363422 0.000000 0.000000 0.100958 0.261544 -0.098162
 24 10.363076 0.000000 -0.000000 -0.236372 -0.159482 0.608725
 25 10.363081 -0.000004 -0.000002 0.047416 -0.476107 0.307005
 26 8.210358 -0.000006 -7.703991 0.000000 0.000000 0.105953
 27 8.210346 -0.000002 7.704017 0.000000 0.000000 0.099015
 28 1.854841 1.227791 -13.762345 2.653768 0.138540 2.119477
 29 10.456543 -0.000004 0.000004 0.088175 0.076444 -0.947254
 30 24.248093 0.000001 0.000007 0.020679 0.025570 0.717222
 31 26.336971 0.000019 0.000002 0.595519 -0.153697 0.750683
 32 1.854847 1.227798 13.762341 -2.552980 0.006210 1.558906
 33 10.456542 -0.000008 0.000004 -0.030203 -0.093248 -1.584250
 34 24.248116 0.000002 -0.000004 -0.035096 -0.036074 1.184458
 35 26.336975 0.000000 0.000004 -0.173378 -0.107795 0.430852
time 29
  0 0.000000 0.000000 0.000000 0.000000 -0.000000 -1.570796
  1 0.000000 0.000000 0.000000 0.000000 -0.000000 0.000000
  2 -5.320475 -13.041739 34.570862 -1.475989 -0.025851 1.813622
  3 4.222169 -0.467508 0.000000 -0.014796 0.008212 0.040387
  4 4.476987 -0.000002 -0.000000 0.065638 -0.062271 0.248757
  5 4.477083 0.000000 0.000002 0.052794 -0.077905 -0.038366
  6 4.477077 -0.000004 -0.000002 -0.021506 -0.085126 -0.154672
  7 5.413502 -7.700466 -0.000000 0.166955 -0.013270 -0.190147
  8 6.890240 0.000002 -0.000000 -0.181171 -0.278847 -0.092387
  9 8.011925 0.000004 0.000005 -0.226326 0.111413 0.183876
 10 7.210720 -0.000002 -0.000000 -0.137750 0.149785 -0.103944
 11 8.581028 -0.304903 -0.000000 0.244314 0.135958 0.514933
 12 22.523008 2.194031 6.355708 0.000000 0.049311 0.000000
 13 22.523005 2.194038 -6.355709 0.000000 0.043498 0.000000
 14 -3.006533 7.804720 -11.355459 0.435130 0.905246 0.938468
 15 10.384675 0.000008 0.000005 0.114168 0.171099 -1.182290
 16 22.550743 -0.000006 -0.000004 0.111127 0.013536 1.283523
 17 30.814247 -0.000015 -0.000004 2.544767 -0.020058 0.743810
 18 -3.013796 7.815494 11.355459 0.337105 0.405060 0.650562
 19 10.374533 -0.000002 0.000007 -0.157296 -0.141436 -0.885883
 20 22.550726 -0.000027 -0.000013 -0.105419 -0.011799 0.968289
 21 30.814270 -0.000023 0.000002 -3.019620 0.005948 0.767756
 22 -4.250660 -0.770624 0.000001 -0.115699 0.308724 3.120089
 23 10.363422 0.000000 0.000000 0.112727 0.255156 -0.051752
 24 10.363076 0.000000 -0.000000 -0.240519 -0.145041 0.636857
 25 10.363081 -0.000004 -0.000002 0.043341 -0.471162 0.336483
 26 8.210358 -0.000006 -7.703991 0.000000 0.000000 0.206028
 27 8.210346 -0.000002 7.704017 0.000000 0.000000 0.199081
 28 1.854841 1.227791 -13.762345 2.674216 0.120529 2.144475
 29 10.456543 -0.000004 0.000004 0.085484 0.078365 -0.981381
 30 24.248093 0.000001 0.000007 0.021383 0.026296 0.742441
 31 26.336971 0.000019 0.000002 0.574028 -0.136564 0.747480
 32 1.854847 1.227798 13.762341 -2.541973 -0.017759 1.598024
 33 10.456542 -0.000008 0.000004 -0.028304 -0.093192 -1.603995
 34 24.248116 0.000002 -0.000004 -0.035614 -0.036206 1.198573
 35 26.336975 0.000000 0.000004 -0.184185 -0.113007 0.439669
time 30
  0 0.000000 0.000000 0.000000 0.000000 -0.000000 -1.570796
  1 0.000000 0.000000 0.000000 0.000000 -0.000000 0.000000
  2 -4.738426 -13.026112 34.020061 -1.493244 -0.063587 1.811800
  3 4.222169 -0.467508 0.000000 -0.013034 0.007007 0.037734
  4 4.476987 -0.000002 -0.000000 0.056926 -0.053683 0.240100
  5 4.477083 0.000000 0.000002 0.042116 -0.058214 -0.044190
  6 4.477077 -0.000004 -0.000002 -0.018162 -0.071201 -0.155918
  7 5.413502 -7.700466 -0.000000 0.183317 -0.026778 -0.189992
  8 6.890240 0.000002 -0.000000 -0.248357 -0.349568 -0.087803
  9 8.011925 0.000004 0.000005 -0.281123 0.199375 0.094404
 10 7.210720 -0.000002 -0.000000 -0.199708 0.206351 -0.045858
 11 8.581028 -0.304903 -0.000000 0.344825 0.174267 0.481425
 12 22.523008 2.194031 6.355708 0.000000 0.042253 0.000000
 13 22.523005 2.194038 -6.355709 0.000000 0.037267 0.000000
 14 -3.006533 7.804720 -11.355459 0.466926 0.809077 1.013460
 15 10.384675 0.000008 0.000005 0.108266 0.173878 -1.218835
 16 22.550743 -0.000006 -0.000004 0.111815 0.013536 1.316393
 17 30.814247 -0.000015 -0.000004 2.545816 0.003265 0.712654
 18 -3.013796 7.815494 11.355459 0.348306 0.337724 0.739198
 19 10.374533 -0.000002 0.000007 -0.146780 -0.150339 -0.963351
 20 22.550726 -0.000027 -0.000013 -0.106829 -0.012466 1.051729
 21 30.814270 -0.000023 0.000002 -3.000817 -0.003007 0.743630
 22 -4.250660 -0.770624 0.000001 -0.122063 0.254387 3.095329
 23 10.363422 0.000000 0.000000 0.119642 0.246515 -0.024112
 24 10.363076 0.000000 -0.000000 -0.242280 -0.128754 0.655698
 25 10.363081 -0.000004 -0.000002 0.041075 -0.463474 0.352645
 26 8.210358 -0.000006 -7.703991 0.000000 0.000000 0.232593
 27 8.210346 -0.000002 7.704017 0.000000 0.000000 0.225632
 28 1.854841 1.227791 -13.762345 2.691937 0.104196 2.165944
 29 10.456543 -0.000004 0.000004 0.082409 0.080412 -1.019373
 30 24.248093 0.000001 0.000007 0.022161 0.027063 0.770562
 31 26.336971 0.000019 0.000002 0.551450 -0.118773 0.743669
 32 1.854847 1.227798 13.762341 -2.531540 -0.042357 1.636754
 33 10.456542 -0.000008 0.000004 -0.026642 -0.093109 -1.621060
 34 24.248116 0.000002 -0.000004 -0.036067 -0.036326 1.210809
 35 26.336975 0.000000 0.000004 -0.194949 -0.118343 0.448485
time 31
  0 0.000000 0.000000 0.000000 0.000000 -0.000000 -1.570796
  1 0.000000 0.000000 0.000000 0.000000 -0.000000 0.000000
  2 -4.152471 -13.010487 33.469265 -1.511171 -0.101921 1.805569
  3 4.222169 -0.467508 0.000000 -0.011261 0.005802 0.035081
  4 4.476987 -0.000002 -0.000000 0.048261 -0.045287 0.231509
  5 4.477083 0.000000 0.000002 0.032264 -0.040219 -0.049497
  6 4.477077 -0.000004 -0.000002 -0.014854 -0.057501 -0.156541
  7 5.413502 -7.700466 -0.000000 0.182572 -0.031587 -0.182244
  8 6.890240 0.000002 -0.000000 -0.246919 -0.248211 -0.087663
  9 8.011925 0.000004 0.000005 -0.290330 0.177280 -0.022323
 10 7.210720 -0.000002 -0.000000 -0.203633 0.165410 -0.086674
 11 8.581028 -0.304903 -0.000000 0.379018 0.093209 0.572520
 12 22.523008 2.194031 6.355708 0.000000 0.035196 0.000000
 13 22.523005 2.194038 -6.355709 0.000000 0.031066 0.000000
 14 -3.006533 7.804720 -11.355459 0.463725 0.696020 1.048346
 15 10.384675 0.000008 0.000005 0.102738 0.176339 -1.252992
 16 22.550743 -0.000006 -0.000004 0.112487 0.013479 1.347506
 17 30.814247 -0.000015 -0.000004 2.551145 0.057810 0.684147
 18 -3.013796 7.815494 11.355459 0.347339 0.243260 0.819910
 19 10.374533 -0.000002 0.000007 -0.135321 -0.158844 -1.044124
 20 22.550726 -0.000027 -0.000013 -0.108279 -0.013016 1.134424
 21 30.814270 -0.000023 0.000002 -2.982189 0.022121 0.712420
 22 -4.250660 -0.770624 0.000001 -0.110822 0.187966 3.122855
 23 10.363422 0.000000 0.000000 0.108676 0.223936 -0.064955
 24 10.363076 0.000000 -0.000000 -0.223177 -0.096275 0.571429
 25 10.363081 -0.000004 -0.000002 0.042380 -0.443400 0.338899
 26 8.210358 -0.000006 -7.703991 0.000000 0.000000 0.227735
 27 8.210346 -0.000002 7.704017 0.000000 0.000000 0.220783
 28 1.854841 1.227791 -13.762345 2.693081 0.103678 2.163876
 29 10.456543 -0.000004 0.000004 0.078968 0.082494 -1.060665
 30 24.248093 0.000001 0.000007 0.023051 0.027870 0.801110
 31 26.336971 0.000019 0.000002 0.527088 -0.098145 0.737318
 32 1.854847 1.227798 13.762341 -2.526003 -0.066107 1.679060
 33 10.456542 -0.000008 0.000004 -0.026879 -0.093248 -1.618222
 34 24.248116 0.000002 -0.000004 -0.036054 -0.036410 1.208778
 35 26.336975 0.000000 0.000004 -0.206956 -0.121383 0.459167
time 32
  0 0.000000 0.000000 0.000000 0.000000 -0.000000 -1.570796
  1 0.000000 0.000000 0.000000 0.000000 -0.000000 0.000000
  2 -3.597766 -12.994862 32.945808 -1.528330 -0.134750 1.754665
  3 4.222169 -0.467508 0.000000 -0.009463 0.004616 0.032444
  4 4.476987 -0.000002 -0.000000 0.039871 -0.037255 0.223163
  5 4.477083 0.000000 0.000002 0.023204 -0.023759 -0.054314
  6 4.477077 -0.000004 -0.000002 -0.011774 -0.044666 -0.156603
  7 5.413502 -7.700466 -0.000000 0.178319 -0.034679 -0.172194
  8 6.890240 0.000002 -0.000000 -0.225790 -0.054541 -0.087617
  9 8.011925 0.000004 0.000005 -0.291325 0.142390 -0.138089
 10 7.210720 -0.000002 -0.000000 -0.197841 0.080012 -0.168842
 11 8.581028 -0.304903 -0.000000 0.390316 -0.059329 0.739813
 12 22.523008 2.194031 6.355708 0.000000 0.028138 0.000000
 13 22.523005 2.194038 -6.355709 0.000000 0.024834 0.000000
 14 -3.006533 7.804720 -11.355459 0.436161 0.557561 1.060295
 15 10.384675 0.000008 0.000005 0.097957 0.178291 -1.282483
 16 22.550743 -0.000006 -0.000004 0.113095 0.013421 1.376380
 17 30.814247 -0.000015 -0.000004 2.555556 0.116744 0.655928
 18 -3.013796 7.815494 11.355459 0.327839 0.114493 0.901763
 19 10.374533 -0.000002 0.000007 -0.123119 -0.166519 -1.126174
 20 22.550726 -0.000027 -0.000013 -0.109852 -0.013506 1.217492
 21 30.814270 -0.000023 0.000002 -2.964368 0.052167 0.680624
 22 -4.250660 -0.770624 0.000001 -0.081004 0.106139 -3.082975
 23 10.363422 0.000000 0.000000 0.085522 0.192824 -0.144749
 24 10.363076 0.000000 -0.000000 -0.186109 -0.052400 0.402065
 25 10.363081 -0.000004 -0.000002 0.055098 -0.387276 0.261606
 26 8.210358 -0.000006 -7.703991 0.000000 0.000000 0.219582
 27 8.210346 -0.000002 7.704017 0.000000 0.000000 0.212611
 28 1.854841 1.227791 -13.762345 2.690970 0.106219 2.157672
 29 10.456543 -0.000004 0.000004 0.072364 0.085715 -1.137430
 30 24.248093 0.000001 0.000007 0.024571 0.029343 0.858121
 31 26.336971 0.000019 0.000002 0.494634 -0.057728 0.713902
 32 1.854847 1.227798 13.762341 -2.557875 -0.078858 1.759621
 33 10.456542 -0.000008 0.000004 -0.027558 -0.093443 -1.611207
 34 24.248116 0.000002 -0.000004 -0.035925 -0.036446 1.203751
 35 26.336975 0.000000 0.000004 -0.230327 -0.103483 0.487030
time 33
  0 0.000000 0.000000 0.000000 0.000000 -0.000000 -1.570796
  1 0.000000 0.000000 0.000000 0.000000 -0.000000 0.000000
  2 -3.109470 -12.979237 32.488766 -1.543093 -0.167061 1.700693
  3 4.222169 -0.467508 0.000000 -0.007653 0.003466 0.029837
  4 4.476987 -0.000002 -0.000000 0.032117 -0.029866 0.215439
  5 4.477083 0.000000 0.000002 0.015018 -0.008946 -0.058553
  6 4.477077 -0.000004 -0.000002 -0.009161 -0.033522 -0.156183
  7 5.413502 -7.700466 -0.000000 0.167779 -0.035291 -0.162797
  8 6.890240 0.000002 -0.000000 -0.189560 0.054671 -0.091224
  9 8.011925 0.000004 0.000005 -0.288156 0.097147 -0.191975
 10 7.210720 -0.000002 -0.000000 -0.183347 0.022033 -0.211562
 11 8.581028 -0.304903 -0.000000 0.386802 -0.145030 0.833923
 12 22.523008 2.194031 6.355708 0.000000 0.021111 0.000000
 13 22.523005 2.194038 -6.355709 0.000000 0.018633 0.000000
 14 -3.006533 7.804720 -11.355459 0.407403 0.417229 1.074167
 15 10.384675 0.000008 0.000005 0.098219 0.178058 -1.281705
 16 22.550743 -0.000006 -0.000004 0.113111 0.013593 1.375291
 17 30.814247 -0.000015 -0.000004 2.558221 0.175270 0.627816
 18 -3.013796 7.815494 11.355459 0.296986 -0.015133 0.986066
 19 10.374533 -0.000002 0.000007 -0.110379 -0.173130 -1.208049
 20 22.550726 -0.000027 -0.000013 -0.111445 -0.013860 1.300374
 21 30.814270 -0.000023 0.000002 -2.947529 0.082335 0.649469
 22 -4.250660 -0.770624 0.000001 -0.047723 0.021167 -2.989437
 23 10.363422 0.000000 0.000000 0.058077 0.156954 -0.241224
 24 10.363076 0.000000 -0.000000 -0.129817 -0.008716 0.167273
 25 10.363081 -0.000004 -0.000002 0.064431 -0.328394 0.182245
 26 8.210358 -0.000006 -7.703991 0.000000 0.000000 0.210173
 27 8.210346 -0.000002 7.704017 0.000000 0.000000 0.203150
 28 1.854841 1.227791 -13.762345 2.673293 0.121294 2.136811
 29 10.456543 -0.000004 0.000004 0.065219 0.088526 -1.217452
 30 24.248093 0.000001 0.000007 0.026276 0.030775 0.917440
 31 26.336971 0.000019 0.000002 0.462964 -0.018573 0.689548
 32 1.854847 1.227798 13.762341 -2.594036 -0.087614 1.844060
 33 10.456542 -0.000008 0.000004 -0.030203 -0.093582 -1.584092
 34 24.248116 0.000002 -0.000004 -0.035122 -0.036122 1.184255
 35 26.336975 0.000000 0.000004 -0.254041 -0.082978 0.515910
time 34
  0 0.000000 0.000000 0.000000 0.000000 -0.000000 -1.570796
  1 0.000000 0.000000 0.000000 0.000000 -0.000000 0.000000
  2 -2.718833 -12.971424 32.121567 -1.555650 -0.198972 1.648830
  3 4.222169 -0.467508 0.000000 -0.005808 0.002298 0.027230
  4 4.476987 -0.000002 -0.000000 0.025202 -0.023248 0.208535
  5 4.477083 0.000000 0.000002 0.007648 0.004365 -0.062243
  6 4.477077 -0.000004 -0.000002 -0.007244 -0.024690 -0.155342
  7 5.413502 -7.700466 -0.000000 0.104578 -0.018113 -0.192481
  8 6.890240 0.000002 -0.000000 -0.120925 0.048450 -0.156058
  9 8.011925 0.000004 0.000005 -0.215403 0.048294 -0.116779
 10 7.210720 -0.000002 -0.000000 -0.128005 0.006744 -0.124379
 11 8.581028 -0.304903 -0.000000 0.289001 -0.110801 0.791056
 12 22.523008 2.194031 6.355708 0.000000 0.014054 0.000000
 13 22.523005 2.194038 -6.355709 0.000000 0.012402 0.000000
 14 -3.006533 7.804720 -11.355459 0.378375 0.278982 1.091404
 15 10.384675 0.000008 0.000005 0.098779 0.177888 -1.278651
 16 22.550743 -0.000006 -0.000004 0.113095 0.013766 1.372083
 17 30.814247 -0.000015 -0.000004 2.559356 0.233044 0.600169
 18 -3.013796 7.815494 11.355459 0.255390 -0.140164 1.073961
 19 10.374533 -0.000002 0.000007 -0.097369 -0.178612 -1.288301
 20 22.550726 -0.000027 -0.000013 -0.113059 -0.014095 1.381518
 21 30.814270 -0.000023 0.000002 -2.931673 0.112772 0.619375
 22 -4.250660 -0.770624 0.000001 -0.018109 -0.059697 -2.897537
 23 10.363422 0.000000 0.000000 0.032994 0.118460 -0.339327
 24 10.363076 0.000000 -0.000000 -0.082826 0.045778 -0.068422
 25 10.363081 -0.000004 -0.000002 0.069491 -0.275228 0.112335
 26 8.210358 -0.000006 -7.703991 0.000000 0.000000 0.199642
 27 8.210346 -0.000002 7.704017 0.000000 0.000000 0.192469
 28 1.854841 1.227791 -13.762345 2.653988 0.136985 2.114490
 29 10.456543 -0.000004 0.000004 0.058004 0.090697 -1.296041
 30 24.248093 0.000001 0.000007 0.027945 0.032047 0.975694
 31 26.336971 0.000019 0.000002 0.433729 0.016929 0.666739
 32 1.854847 1.227798 13.762341 -2.630635 -0.093114 1.928198
 33 10.456542 -0.000008 0.000004 -0.033052 -0.093610 -1.555362
 34 24.248116 0.000002 -0.000004 -0.034280 -0.035763 1.163641
 35 26.336975 0.000000 0.000004 -0.277198 -0.061790 0.544338
time 35
  0 0.000000 0.000000 0.000000 0.000000 -0.000000 -1.570796
  1 0.000000 0.000000 0.000000 0.000000 -0.000000 0.000000
  2 -2.461013 -12.963610 31.879372 -1.566099 -0.229448 1.599939
  3 4.222169 -0.467508 0.000000 -0.003950 0.001149 0.024654
  4 4.476987 -0.000002 -0.000000 0.019522 -0.017679 0.202808
  5 4.477083 0.000000 0.000002 0.001200 0.016028 -0.065311
  6 4.477077 -0.000004 -0.000002 -0.006213 -0.018995 -0.154190
  7 5.413502 -7.700466 -0.000000 0.050043 -0.003415 -0.220360
  8 6.890240 0.000002 -0.000000 -0.038542 0.028218 -0.274486
  9 8.011925 0.000004 0.000005 -0.081423 -0.001278 0.025048
 10 7.210720 -0.000002 -0.000000 -0.043922 0.001042 0.039314
 11 8.581028 -0.304903 -0.000000 0.108323 -0.040498 0.705710
 12 22.523008 2.194031 6.355708 0.000000 0.007027 0.000000
 13 22.523005 2.194038 -6.355709 0.000000 0.006171 0.000000
 14 -3.006533 7.804720 -11.355459 0.356562 0.184897 1.102735
 15 10.384675 0.000008 0.000005 0.099302 0.177825 -1.275707
 16 22.550743 -0.000006 -0.000004 0.113079 0.013938 1.368995
 17 30.814247 -0.000015 -0.000004 2.561759 0.263640 0.592684
 18 -3.013796 7.815494 11.355459 0.215933 -0.228686 1.135464
 19 10.374533 -0.000002 0.000007 -0.092987 -0.180140 -1.314162
 20 22.550726 -0.000027 -0.000013 -0.113611 -0.014213 1.407512
 21 30.814270 -0.000023 0.000002 -2.920693 0.133471 0.609780
 22 -4.250660 -0.770624 0.000001 0.003128 -0.124353 -2.823127
 23 10.363422 0.000000 0.000000 0.011134 0.078515 -0.435845
 24 10.363076 0.000000 -0.000000 -0.046620 0.077477 -0.233605
 25 10.363081 -0.000004 -0.000002 0.071843 -0.233509 0.058050
 26 8.210358 -0.000006 -7.703991 0.000000 0.000000 0.188500
 27 8.210346 -0.000002 7.704017 0.000000 0.000000 0.181143
 28 1.854841 1.227791 -13.762345 2.634508 0.152109 2.091986
 29 10.456543 -0.000004 0.000004 0.054457 0.091267 -1.333772
 30 24.248093 0.000001 0.000007 0.028909 0.032612 1.002927
 31 26.336971 0.000019 0.000002 0.408280 0.047964 0.646637
 32 1.854847 1.227798 13.762341 -2.662845 -0.089310 1.991441
 33 10.456542 -0.000008 0.000004 -0.035832 -0.093582 -1.526868
 34 24.248116 0.000002 -0.000004 -0.033438 -0.035379 1.143179
 35 26.336975 0.000000 0.000004 -0.299326 -0.040292 0.571748
time 36
  0 0.000000 0.000000 0.000000 0.000000 -0.000000 -1.570796
  1 0.000000 0.000000 0.000000 0.000000 -0.000000 0.000000
  2 -2.363353 -12.959703 31.785618 -1.570988 -0.244686 1.570988
  3 4.222169 -0.467508 0.000000 -0.002069 0.000018 0.022093
  4 4.476987 -0.000002 -0.000000 0.015327 -0.013331 0.198502
  5 4.477083 0.000000 0.000002 -0.004349 0.026123 -0.067772
  6 4.477077 -0.000004 -0.000002 -0.006321 -0.017097 -0.152773
  7 5.413502 -7.700466 -0.000000 0.007297 0.008547 -0.244474
  8 6.890240 0.000002 -0.000000 0.001953 0.017148 -0.340157
  9 8.011925 0.000004 0.000005 -0.006810 -0.024538 0.104449
 10 7.210720 -0.000002 -0.000000 0.000000 0.000000 0.130654
 11 8.581028 -0.304903 -0.000000 0.007192 -0.002445 0.657761
 12 22.523008 2.194031 6.355708 0.000000 -0.000000 0.000000
 13 22.523005 2.194038 -6.355709 0.000000 -0.000000 0.000000
 14 -3.006533 7.804720 -11.355459 0.347772 0.148012 1.107679
 15 10.384675 0.000008 0.000005 0.099638 0.177740 -1.272986
 16 22.550743 -0.000006 -0.000004 0.113047 0.014110 1.365848
 17 30.814247 -0.000015 -0.000004 2.564030 0.293483 0.585772
 18 -3.013796 7.815494 11.355459 0.198062 -0.262541 1.159632
 19 10.374533 -0.000002 0.000007 -0.088875 -0.181435 -1.338574
 20 22.550726 -0.000027 -0.000013 -0.114162 -0.014311 1.431955
 21 30.814270 -0.000023 0.000002 -2.910028 0.153999 0.600938
 22 -4.250660 -0.770624 0.000001 0.016515 -0.162675 -2.777702
 23 10.363422 0.000000 0.000000 0.002661 0.066003 -0.470131
 24 10.363076 0.000000 -0.000000 -0.026810 0.095059 -0.325023
 25 10.363081 -0.000004 -0.000002 0.073418 -0.206517 0.022289
 26 8.210358 -0.000006 -7.703991 0.000000 0.000000 0.177086
 27 8.210346 -0.000002 7.704017 0.000000 0.000000 0.169444
 28 1.854841 1.227791 -13.762345 2.614588 0.166789 2.069179
 29 10.456543 -0.000004 0.000004 0.050998 0.091676 -1.370331
 30 24.248093 0.000001 0.000007 0.029835 0.033116 1.029271
 31 26.336971 0.000019 0.000002 0.387572 0.074322 0.630179
 32 1.854847 1.227798 13.762341 -2.675642 -0.086273 2.016084
 33 10.456542 -0.000008 0.000004 -0.038647 -0.093471 -1.498413
 34 24.248116 0.000002 -0.000004 -0.032609 -0.034984 1.122769
 35 26.336975 0.000000 0.000004 -0.306530 -0.028380 0.578587
end
