version 1
nodes
  0 "Chaurus" -1
  1 "NPC Root [Root]" 0
  2 "Pelvis [Pelv]" 1
  3 "Spine[Spn0]" 2
  4 "Spine[Spn1]" 3
  5 "Spine[Spn2]" 4
  6 "Ribcage[Spn3]" 5
  7 "[Neck0]" 6
  8 "[Neck1]" 7
  9 "[Neck2]" 8
 10 "[Neck3]" 9
 11 "NPC Head [Head]" 10
 12 "Head[LeftPincher]" 11
 13 "Head[RightPincher]" 11
 14 "R UpperArm[RClv]" 6
 15 "R UpperArm[RUar]" 14
 16 "R UpperArm[RLar]" 15
 17 "R UpperArm[RHnd]" 16
 18 "L UpperArm[RClv]" 6
 19 "L UpperArm[LUar]" 18
 20 "L UpperArm[LLar]" 19
 21 "L UpperArm[LHnd]" 20
 22 "Tail[Tal0]" 2
 23 "Tail[Tal1]" 22
 24 "Tail[Tal2]" 23
 25 "Tail[Tal3]" 24
 26 "[TalRightPincher]" 25
 27 "[TalLeftPincher]" 25
 28 "R Leg[RThg0]" 2
 29 "R Leg[RThg1]" 28
 30 "R Leg[RClf]" 29
 31 "R Leg[RAnkle]" 30
 32 "LLeg[RThg0]" 2
 33 "LLeg[LThg1]" 32
 34 "LLeg[LClf]" 33
 35 "LLeg[LAnkle]" 34
end
skeleton
time 0
  0 0.000000 0.000000 0.000000 0.000000 -0.000000 -1.570796
  1 0.000000 0.000000 0.000000 0.000000 -0.000000 0.000000
  2 -2.363353 -12.959703 31.785618 -1.570988 -0.244686 1.570988
  3 4.222169 -0.467508 0.000000 -0.002069 0.000018 0.022093
  4 4.476987 -0.000002 -0.000000 0.015327 -0.013331 0.198502
  5 4.477083 0.000000 0.000002 -0.004349 0.026123 -0.067772
  6 4.477077 -0.000004 -0.000002 -0.006321 -0.017097 -0.152773
  7 5.413502 -7.700466 -0.000000 0.007297 0.008547 -0.244474
  8 6.890240 0.000002 -0.000000 0.001953 0.017148 -0.340157
  9 8.011925 0.000004 0.000005 -0.006810 -0.024538 0.104449
 10 7.210720 -0.000002 -0.000000 0.000000 0.000000 0.130654
 11 8.581028 -0.304903 -0.000000 0.007192 -0.002445 0.657761
 12 22.523008 2.194031 6.355708 0.000000 0.008066 0.000000
 13 22.523005 2.194038 -6.355709 0.000000 0.006050 0.000000
 14 -3.006533 7.804720 -11.355459 0.417062 0.139568 1.305664
 15 10.384675 0.000008 0.000005 0.030987 0.190809 -1.678201
 16 22.550743 -0.000006 -0.000004 0.121603 0.013421 1.761793
 17 30.814247 -0.000015 -0.000004 2.465533 0.223170 0.409113
 18 -3.013796 7.815494 11.355459 0.129381 -0.291650 1.369678
 19 10.374533 -0.000002 0.000007 -0.019780 -0.191668 -1.738151
 20 22.550726 -0.000027 -0.000013 -0.123048 -0.013506 1.830791
 21 30.814270 -0.000023 0.000002 -2.870282 0.196425 0.399675
 22 -4.250660 -0.770624 0.000001 0.000000 -0.000000 -2.983957
 23 10.363422 0.000000 0.000000 -0.000000 -0.020142 0.008171
 24 10.363076 0.000000 -0.000000 0.000000 0.040277 -0.000000
 25 10.363081 -0.000004 -0.000002 -0.001930 -0.020043 0.096012
 26 8.210358 -0.000006 -7.703991 0.000000 0.000000 -0.000000
 27 8.210346 -0.000002 7.704017 0.000000 0.000000 -0.000000
 28 1.854841 1.227791 -13.762345 2.614544 0.166567 2.068388
 29 10.456543 -0.000004 0.000004 0.051033 0.091640 -1.369420
 30 24.248093 0.000001 0.000007 0.029835 0.033116 1.029271
 31 26.336971 0.000019 0.000002 0.386223 0.069828 0.616594
 32 1.854847 1.227798 13.762341 -2.675642 -0.086465 2.016859
 33 10.456542 -0.000008 0.000004 -0.038783 -0.093415 -1.495575
 34 24.248116 0.000002 -0.000004 -0.032583 -0.035020 1.121144
 35 26.336975 0.000000 0.000004 -0.307002 -0.027418 0.579152
time 1
  0 0.000000 0.000000 0.000000 0.000000 -0.000000 -1.570796
  1 0.000000 0.000000 0.000000 0.000000 -0.000000 0.000000
  2 -2.363353 -12.959703 31.785618 -1.570988 -0.244686 1.570988
  3 4.222169 -0.467508 0.000000 -0.002069 0.000018 0.022093
  4 4.476987 -0.000002 -0.000000 0.015327 -0.013331 0.198502
  5 4.477083 0.000000 0.000002 -0.004349 0.026123 -0.067772
  6 4.477077 -0.000004 -0.000002 -0.006321 -0.017097 -0.152773
  7 5.413502 -7.700466 -0.000000 0.007297 0.008547 -0.244474
  8 6.890240 0.000002 -0.000000 0.001953 0.017148 -0.340157
  9 8.011925 0.000004 0.000005 -0.006810 -0.024538 0.104449
 10 7.210720 -0.000002 -0.000000 0.000000 0.000000 0.130654
 11 8.581028 -0.304903 -0.000000 0.007192 -0.002445 0.657761
 12 22.523008 2.194031 6.355708 0.000000 0.008066 0.000000
 13 22.523005 2.194038 -6.355709 0.000000 0.006050 0.000000
 14 -3.006533 7.804720 -11.355459 0.417062 0.139568 1.305664
 15 10.384675 0.000008 0.000005 0.030987 0.190809 -1.678201
 16 22.550743 -0.000006 -0.000004 0.121603 0.013421 1.761793
 17 30.814247 -0.000015 -0.000004 2.465533 0.223170 0.409113
 18 -3.013796 7.815494 11.355459 0.129381 -0.291650 1.369678
 19 10.374533 -0.000002 0.000007 -0.019780 -0.191668 -1.738151
 20 22.550726 -0.000027 -0.000013 -0.123048 -0.013506 1.830791
 21 30.814270 -0.000023 0.000002 -2.870282 0.196425 0.399675
 22 -4.250660 -0.770624 0.000001 0.000000 -0.000000 -2.983957
 23 10.363422 0.000000 0.000000 -0.000000 -0.020142 0.008171
 24 10.363076 0.000000 -0.000000 0.000000 0.040277 -0.000000
 25 10.363081 -0.000004 -0.000002 -0.001930 -0.020043 0.096012
 26 8.210358 -0.000006 -7.703991 0.000000 0.000000 -0.000000
 27 8.210346 -0.000002 7.704017 0.000000 0.000000 -0.000000
 28 1.854841 1.227791 -13.762345 2.614544 0.166567 2.068388
 29 10.456543 -0.000004 0.000004 0.051033 0.091640 -1.369420
 30 24.248093 0.000001 0.000007 0.029835 0.033116 1.029271
 31 26.336971 0.000019 0.000002 0.386223 0.069828 0.616594
 32 1.854847 1.227798 13.762341 -2.675642 -0.086465 2.016859
 33 10.456542 -0.000008 0.000004 -0.038783 -0.093415 -1.495575
 34 24.248116 0.000002 -0.000004 -0.032583 -0.035020 1.121144
 35 26.336975 0.000000 0.000004 -0.307002 -0.027418 0.579152
time 2
  0 0.000000 0.000000 0.000000 0.000000 -0.000000 -1.570796
  1 0.000000 0.000000 0.000000 0.000000 -0.000000 0.000000
  2 -2.628986 -12.987049 31.879372 -1.567537 -0.236987 1.574823
  3 4.222169 -0.467508 0.000000 -0.001805 -0.002800 0.023581
  4 4.476987 -0.000002 -0.000000 0.015926 -0.015709 0.200611
  5 4.477083 0.000000 0.000002 -0.002539 0.022440 -0.065519
  6 4.477077 -0.000004 -0.000002 -0.007508 -0.021739 -0.153645
  7 5.413502 -7.700466 -0.000000 0.052222 -0.003721 -0.221636
  8 6.890240 0.000002 -0.000000 -0.038950 0.028309 -0.273881
  9 8.011925 0.000004 0.000005 -0.082104 -0.001006 0.024347
 10 7.210720 -0.000002 -0.000000 -0.044334 0.001077 0.038483
 11 8.581028 -0.304903 -0.000000 0.011279 -0.040772 0.705465
 12 22.523008 2.194031 6.355708 0.000000 0.008096 0.000000
 13 22.523005 2.194038 -6.355709 0.000000 0.006050 0.000000
 14 -3.006533 7.804720 -11.355459 0.422108 0.160554 1.296119
 15 10.384675 0.000008 0.000005 0.031920 0.190958 -1.671981
 16 22.550743 -0.000006 -0.000004 0.121507 0.013737 1.755921
 17 30.814247 -0.000015 -0.000004 2.463131 0.208938 0.421182
 18 -3.013796 7.815494 11.355459 0.151477 -0.264970 1.340323
 19 10.374533 -0.000002 0.000007 -0.021465 -0.191469 -1.729163
 20 22.550726 -0.000027 -0.000013 -0.122639 -0.013644 1.821548
 21 30.814270 -0.000023 0.000002 -2.886981 0.187470 0.405448
 22 -4.250660 -0.770624 0.000001 0.000000 -0.000000 -2.983957
 23 10.363422 0.000000 0.000000 -0.000000 -0.020142 0.008171
 24 10.363076 0.000000 -0.000000 0.000000 0.040277 -0.000000
 25 10.363081 -0.000004 -0.000002 -0.001930 -0.020043 0.096012
 26 8.210358 -0.000006 -7.703991 0.000000 0.000000 -0.000000
 27 8.210346 -0.000002 7.704017 0.000000 0.000000 -0.000000
 28 1.854841 1.227791 -13.762345 2.608959 0.170465 2.061759
 29 10.456543 -0.000004 0.000004 0.052763 0.091783 -1.351184
 30 24.248093 0.000001 0.000007 0.029353 0.032975 1.013109
 31 26.336971 0.000019 0.000002 0.400449 0.059974 0.622945
 32 1.854847 1.227798 13.762341 -2.672299 -0.077791 1.990407
 33 10.456542 -0.000008 0.000004 -0.038613 -0.093499 -1.499240
 34 24.248116 0.000002 -0.000004 -0.032751 -0.035140 1.124749
 35 26.336975 0.000000 0.000004 -0.301642 -0.027232 0.572935
time 3
  0 0.000000 0.000000 0.000000 0.000000 -0.000000 -1.570796
  1 0.000000 0.000000 0.000000 0.000000 -0.000000 0.000000
  2 -3.007904 -13.014393 32.125473 -1.557759 -0.212615 1.586998
  3 4.222169 -0.467508 0.000000 -0.002584 -0.004524 0.026310
  4 4.476987 -0.000002 -0.000000 0.019725 -0.020806 0.205694
  5 4.477083 0.000000 0.000002 0.001476 0.018176 -0.064185
  6 4.477077 -0.000004 -0.000002 -0.009401 -0.029106 -0.154174
  7 5.413502 -7.700466 -0.000000 0.108658 -0.018758 -0.192388
  8 6.890240 0.000002 -0.000000 -0.121404 0.048594 -0.155476
  9 8.011925 0.000004 0.000005 -0.216058 0.048582 -0.117505
 10 7.210720 -0.000002 -0.000000 -0.128444 0.006780 -0.125183
 11 8.581028 -0.304903 -0.000000 0.028456 -0.110408 0.791232
 12 22.523008 2.194031 6.355708 0.000000 0.016651 0.000000
 13 22.523005 2.194038 -6.355709 0.000000 0.012493 0.000000
 14 -3.006533 7.804720 -11.355459 0.430789 0.208886 1.268993
 15 10.384675 0.000008 0.000005 0.032929 0.191042 -1.665983
 16 22.550743 -0.000006 -0.000004 0.121331 0.013909 1.750292
 17 30.814247 -0.000015 -0.000004 2.461908 0.187088 0.438980
 18 -3.013796 7.815494 11.355459 0.182279 -0.224800 1.296376
 19 10.374533 -0.000002 0.000007 -0.023151 -0.191269 -1.720233
 20 22.550726 -0.000027 -0.000013 -0.122251 -0.013801 1.807279
 21 30.814270 -0.000023 0.000002 -2.907854 0.177072 0.414429
 22 -4.250660 -0.770624 0.000001 0.000000 -0.000000 -2.983957
 23 10.363422 0.000000 0.000000 -0.000000 -0.020142 0.008171
 24 10.363076 0.000000 -0.000000 0.000000 0.040277 -0.000000
 25 10.363081 -0.000004 -0.000002 -0.001930 -0.020043 0.096012
 26 8.210358 -0.000006 -7.703991 0.000000 0.000000 -0.000000
 27 8.210346 -0.000002 7.704017 0.000000 0.000000 -0.000000
 28 1.854841 1.227791 -13.762345 2.603155 0.174487 2.054825
 29 10.456543 -0.000004 0.000004 0.055418 0.091391 -1.323655
 30 24.248093 0.000001 0.000007 0.028538 0.032490 0.990613
 31 26.336971 0.000019 0.000002 0.421505 0.042551 0.632444
 32 1.854847 1.227798 13.762341 -2.667538 -0.066791 1.955038
 33 10.456542 -0.000008 0.000004 -0.038512 -0.093526 -1.501211
 34 24.248116 0.000002 -0.000004 -0.032997 -0.035295 1.130892
 35 26.336975 0.000000 0.000004 -0.292465 -0.028970 0.562423
time 4
  0 0.000000 0.000000 0.000000 0.000000 -0.000000 -1.570796
  1 0.000000 0.000000 0.000000 0.000000 -0.000000 0.000000
  2 -3.468856 -13.037832 32.496578 -1.546160 -0.183415 1.600515
  3 4.222169 -0.467508 0.000000 -0.004226 -0.005284 0.030052
  4 4.476987 -0.000002 -0.000000 0.026185 -0.028174 0.213219
  5 4.477083 0.000000 0.000002 0.007756 0.010988 -0.062525
  6 4.477077 -0.000004 -0.000002 -0.011990 -0.039141 -0.154252
  7 5.413502 -7.700466 -0.000000 0.169002 -0.035681 -0.162953
  8 6.890240 0.000002 -0.000000 -0.189872 0.054332 -0.091061
  9 8.011925 0.000004 0.000005 -0.288352 0.097435 -0.191975
 10 7.210720 -0.000002 -0.000000 -0.183539 0.022263 -0.211642
 11 8.581028 -0.304903 -0.000000 0.071719 -0.144433 0.833572
 12 22.523008 2.194031 6.355708 0.000000 0.025083 0.000000
 13 22.523005 2.194038 -6.355709 0.000000 0.018845 0.000000
 14 -3.006533 7.804720 -11.355459 0.441424 0.281243 1.228682
 15 10.384675 0.000008 0.000005 0.034012 0.191042 -1.660095
 16 22.550743 -0.000006 -0.000004 0.121123 0.013966 1.744723
 17 30.814247 -0.000015 -0.000004 2.461384 0.156117 0.463225
 18 -3.013796 7.815494 11.355459 0.215576 -0.176484 1.246444
 19 10.374533 -0.000002 0.000007 -0.025173 -0.191103 -1.709448
 20 22.550726 -0.000027 -0.000013 -0.121802 -0.013879 1.787924
 21 30.814270 -0.000023 0.000002 -2.929217 0.166502 0.425335
 22 -4.250660 -0.770624 0.000001 0.000000 -0.000000 -2.983957
 23 10.363422 0.000000 0.000000 -0.000000 -0.020142 0.008171
 24 10.363076 0.000000 -0.000000 0.000000 0.040277 -0.000000
 25 10.363081 -0.000004 -0.000002 -0.001930 -0.020043 0.096012
 26 8.210358 -0.000006 -7.703991 0.000000 0.000000 -0.000000
 27 8.210346 -0.000002 7.704017 0.000000 0.000000 -0.000000
 28 1.854841 1.227791 -13.762345 2.597086 0.178755 2.047466
 29 10.456543 -0.000004 0.000004 0.058860 0.090430 -1.287357
 30 24.248093 0.000001 0.000007 0.027648 0.031926 0.964209
 31 26.336971 0.000019 0.000002 0.449347 0.017455 0.644925
 32 1.854847 1.227798 13.762341 -2.661494 -0.053165 1.910405
 33 10.456542 -0.000008 0.000004 -0.038546 -0.093554 -1.501684
 34 24.248116 0.000002 -0.000004 -0.033269 -0.035475 1.138559
 35 26.336975 0.000000 0.000004 -0.280200 -0.032103 0.548576
time 5
  0 0.000000 0.000000 0.000000 0.000000 -0.000000 -1.570796
  1 0.000000 0.000000 0.000000 0.000000 -0.000000 0.000000
  2 -3.980590 -13.061270 32.957531 -1.532356 -0.146478 1.616716
  3 4.222169 -0.467508 0.000000 -0.006515 -0.005210 0.034483
  4 4.476987 -0.000002 -0.000000 0.034610 -0.037212 0.222497
  5 4.477083 0.000000 0.000002 0.016229 -0.001337 -0.059309
  6 4.477077 -0.000004 -0.000002 -0.015118 -0.051506 -0.153800
  7 5.413502 -7.700466 -0.000000 0.188248 -0.039487 -0.178293
  8 6.890240 0.000002 -0.000000 -0.225969 -0.055626 -0.087617
  9 8.011925 0.000004 0.000005 -0.291338 0.142629 -0.137518
 10 7.210720 -0.000002 -0.000000 -0.197896 0.080524 -0.168386
 11 8.581028 -0.304903 -0.000000 0.169980 -0.059448 0.738026
 12 22.523008 2.194031 6.355708 0.000000 0.033454 0.000000
 13 22.523005 2.194038 -6.355709 0.000000 0.025167 0.000000
 14 -3.006533 7.804720 -11.355459 0.452059 0.373384 1.180130
 15 10.384675 0.000008 0.000005 0.035095 0.190979 -1.654430
 16 22.550743 -0.000006 -0.000004 0.120931 0.013909 1.739396
 17 30.814247 -0.000015 -0.000004 2.461297 0.122136 0.489367
 18 -3.013796 7.815494 11.355459 0.263689 -0.095771 1.158378
 19 10.374533 -0.000002 0.000007 -0.032992 -0.191203 -1.665205
 20 22.550726 -0.000027 -0.000013 -0.121148 -0.013860 1.761930
 21 30.814270 -0.000023 0.000002 -2.949950 0.156348 0.437663
 22 -4.250660 -0.770624 0.000001 0.000000 -0.000000 -2.983957
 23 10.363422 0.000000 0.000000 -0.000000 -0.020142 0.008171
 24 10.363076 0.000000 -0.000000 0.000000 0.040277 -0.000000
 25 10.363081 -0.000004 -0.000002 -0.001930 -0.020043 0.096012
 26 8.210358 -0.000006 -7.703991 0.000000 0.000000 -0.000000
 27 8.210346 -0.000002 7.704017 0.000000 0.000000 -0.000000
 28 1.854841 1.227791 -13.762345 2.590886 0.183122 2.039924
 29 10.456543 -0.000004 0.000004 0.062284 0.089327 -1.250364
 30 24.248093 0.000001 0.000007 0.026870 0.031320 0.937569
 31 26.336971 0.000019 0.000002 0.477059 -0.008141 0.656688
 32 1.854847 1.227798 13.762341 -2.654472 -0.036967 1.857157
 33 10.456542 -0.000008 0.000004 -0.038647 -0.093554 -1.500817
 34 24.248116 0.000002 -0.000004 -0.033567 -0.035655 1.146784
 35 26.336975 0.000000 0.000004 -0.265877 -0.036104 0.532469
time 6
  0 0.000000 0.000000 0.000000 0.000000 -0.000000 -1.570796
  1 0.000000 0.000000 0.000000 0.000000 -0.000000 0.000000
  2 -4.519669 -13.080801 33.480984 -1.516635 -0.103756 1.635313
  3 4.222169 -0.467508 0.000000 -0.009259 -0.004412 0.039390
  4 4.476987 -0.000002 -0.000000 0.044509 -0.047493 0.232952
  5 4.477083 0.000000 0.000002 0.026775 -0.020447 -0.053736
  6 4.477077 -0.000004 -0.000002 -0.018414 -0.064717 -0.152882
  7 5.413502 -7.700466 -0.000000 0.194747 -0.037431 -0.189805
  8 6.890240 0.000002 -0.000000 -0.247038 -0.249204 -0.087663
  9 8.011925 0.000004 0.000005 -0.290343 0.177568 -0.021570
 10 7.210720 -0.000002 -0.000000 -0.203688 0.165869 -0.086244
 11 8.581028 -0.304903 -0.000000 0.288082 0.092970 0.570067
 12 22.523008 2.194031 6.355708 0.000000 0.041887 0.000000
 13 22.523005 2.194038 -6.355709 0.000000 0.031550 0.000000
 14 -3.006533 7.804720 -11.355459 0.462857 0.483933 1.129174
 15 10.384675 0.000008 0.000005 0.036552 0.190915 -1.646710
 16 22.550743 -0.000006 -0.000004 0.120755 0.013737 1.732071
 17 30.814247 -0.000015 -0.000004 2.461297 0.085302 0.517336
 18 -3.013796 7.815494 11.355459 0.306201 -0.005455 1.068204
 19 10.374533 -0.000002 0.000007 -0.041216 -0.191004 -1.619107
 20 22.550726 -0.000027 -0.000013 -0.119943 -0.014056 1.707151
 21 30.814270 -0.000023 0.000002 -2.970121 0.146683 0.451385
 22 -4.250660 -0.770624 0.000001 0.000000 -0.000000 -2.983957
 23 10.363422 0.000000 0.000000 -0.000000 -0.020142 0.008171
 24 10.363076 0.000000 -0.000000 0.000000 0.040277 -0.000000
 25 10.363081 -0.000004 -0.000002 -0.001930 -0.020043 0.096012
 26 8.210358 -0.000006 -7.703991 0.000000 0.000000 -0.000000
 27 8.210346 -0.000002 7.704017 0.000000 0.000000 -0.000000
 28 1.854841 1.227791 -13.762345 2.584466 0.187613 2.032139
 29 10.456543 -0.000004 0.000004 0.065725 0.088099 -1.212329
 30 24.248093 0.000001 0.000007 0.026054 0.030695 0.910454
 31 26.336971 0.000019 0.000002 0.504727 -0.034288 0.667844
 32 1.854847 1.227798 13.762341 -2.647449 -0.018908 1.798653
 33 10.456542 -0.000008 0.000004 -0.038851 -0.093554 -1.498689
 34 24.248116 0.000002 -0.000004 -0.033839 -0.035811 1.154654
 35 26.336975 0.000000 0.000004 -0.250053 -0.040541 0.515119
time 7
  0 0.000000 0.000000 0.000000 0.000000 -0.000000 -1.570796
  1 0.000000 0.000000 0.000000 0.000000 -0.000000 0.000000
  2 -5.058748 -13.092520 34.035686 -1.499284 -0.057922 1.655637
  3 4.222169 -0.467508 0.000000 -0.012255 -0.003022 0.044419
  4 4.476987 -0.000002 -0.000000 0.055212 -0.058416 0.243918
  5 4.477083 0.000000 0.000002 0.038592 -0.044629 -0.046473
  6 4.477077 -0.000004 -0.000002 -0.021338 -0.076763 -0.151651
  7 5.413502 -7.700466 -0.000000 0.191105 -0.030805 -0.194784
  8 6.890240 0.000002 -0.000000 -0.248153 -0.349568 -0.087803
  9 8.011925 0.000004 0.000005 -0.280913 0.199135 0.095027
 10 7.210720 -0.000002 -0.000000 -0.199515 0.206281 -0.045938
 11 8.581028 -0.304903 -0.000000 0.338740 0.174216 0.481215
 12 22.523008 2.194031 6.355708 0.000000 0.050258 0.000000
 13 22.523005 2.194038 -6.355709 0.000000 0.037902 0.000000
 14 -3.006533 7.804720 -11.355459 0.473655 0.607659 1.081172
 15 10.384675 0.000008 0.000005 0.041221 0.190703 -1.619552
 16 22.550743 -0.000006 -0.000004 0.120227 0.013737 1.706163
 17 30.814247 -0.000015 -0.000004 2.461253 0.046525 0.546451
 18 -3.013796 7.815494 11.355459 0.339243 0.087215 0.981734
 19 10.374533 -0.000002 0.000007 -0.049710 -0.190372 -1.570805
 20 22.550726 -0.000027 -0.000013 -0.118636 -0.014233 1.647720
 21 30.814270 -0.000023 0.000002 -2.989450 0.137851 0.466140
 22 -4.250660 -0.770624 0.000001 0.000000 -0.000000 -2.983957
 23 10.363422 0.000000 0.000000 -0.000000 -0.020142 0.008171
 24 10.363076 0.000000 -0.000000 0.000000 0.040277 -0.000000
 25 10.363081 -0.000004 -0.000002 -0.001930 -0.020043 0.096012
 26 8.210358 -0.000006 -7.703991 0.000000 0.000000 -0.000000
 27 8.210346 -0.000002 7.704017 0.000000 0.000000 -0.000000
 28 1.854841 1.227791 -13.762345 2.578002 0.192202 2.024233
 29 10.456543 -0.000004 0.000004 0.069167 0.086729 -1.173685
 30 24.248093 0.000001 0.000007 0.025275 0.030029 0.882867
 31 26.336971 0.000019 0.000002 0.531830 -0.060303 0.678116
 32 1.854847 1.227798 13.762341 -2.641541 -0.000438 1.740321
 33 10.456542 -0.000008 0.000004 -0.039156 -0.093526 -1.495457
 34 24.248116 0.000002 -0.000004 -0.034047 -0.035943 1.161255
 35 26.336975 0.000000 0.000004 -0.233843 -0.044884 0.497711
time 8
  0 0.000000 0.000000 0.000000 0.000000 -0.000000 -1.570796
  1 0.000000 0.000000 0.000000 0.000000 -0.000000 0.000000
  2 -5.582201 -13.100334 34.590393 -1.480591 -0.010693 1.677302
  3 4.222169 -0.467508 0.000000 -0.015323 -0.001168 0.049341
  4 4.476987 -0.000002 -0.000000 0.066238 -0.069489 0.254883
  5 4.477083 0.000000 0.000002 0.050960 -0.071621 -0.038425
  6 4.477077 -0.000004 -0.000002 -0.023938 -0.087813 -0.150110
  7 5.413502 -7.700466 -0.000000 0.172378 -0.016855 -0.192170
  8 6.890240 0.000002 -0.000000 -0.180464 -0.278049 -0.092457
  9 8.011925 0.000004 0.000005 -0.225789 0.110503 0.184421
 10 7.210720 -0.000002 -0.000000 -0.137119 0.149167 -0.104587
 11 8.581028 -0.304903 -0.000000 0.258321 0.135565 0.515704
 12 22.523008 2.194031 6.355708 0.000000 0.058660 0.000000
 13 22.523005 2.194038 -6.355709 0.000000 0.044315 0.000000
 14 -3.006533 7.804720 -11.355459 0.481414 0.736791 1.034680
 15 10.384675 0.000008 0.000005 0.046189 0.190364 -1.590616
 16 22.550743 -0.000006 -0.000004 0.119620 0.013794 1.678500
 17 30.814247 -0.000015 -0.000004 2.460947 0.006149 0.576640
 18 -3.013796 7.815494 11.355459 0.363071 0.180932 0.897488
 19 10.374533 -0.000002 0.000007 -0.061305 -0.188678 -1.503194
 20 22.550726 -0.000027 -0.000013 -0.117308 -0.014331 1.586861
 21 30.814270 -0.000023 0.000002 -3.007973 0.129923 0.481954
 22 -4.250660 -0.770624 0.000001 0.000000 -0.000000 -2.983957
 23 10.363422 0.000000 0.000000 -0.000000 -0.020142 0.008171
 24 10.363076 0.000000 -0.000000 0.000000 0.040277 -0.000000
 25 10.363081 -0.000004 -0.000002 -0.001930 -0.020043 0.096012
 26 8.210358 -0.000006 -7.703991 0.000000 0.000000 -0.000000
 27 8.210346 -0.000002 7.704017 0.000000 0.000000 -0.000000
 28 1.854841 1.227791 -13.762345 2.571450 0.196865 2.016326
 29 10.456543 -0.000004 0.000004 0.072609 0.085234 -1.134347
 30 24.248093 0.000001 0.000007 0.024497 0.029302 0.854746
 31 26.336971 0.000019 0.000002 0.558324 -0.086135 0.687615
 32 1.854847 1.227798 13.762341 -2.636679 0.018523 1.681257
 33 10.456542 -0.000008 0.000004 -0.039563 -0.093499 -1.491161
 34 24.248116 0.000002 -0.000004 -0.034189 -0.036026 1.165621
 35 26.336975 0.000000 0.000004 -0.217848 -0.048854 0.481152
time 9
  0 0.000000 0.000000 0.000000 0.000000 -0.000000 -1.570796
  1 0.000000 0.000000 0.000000 0.000000 -0.000000 0.000000
  2 -6.058779 -13.104240 35.113846 -1.461131 0.035220 1.699447
  3 4.222169 -0.467508 0.000000 -0.018248 0.001001 0.053849
  4 4.476987 -0.000002 -0.000000 0.076964 -0.080027 0.265205
  5 4.477083 0.000000 0.000002 0.063005 -0.098727 -0.030540
  6 4.477077 -0.000004 -0.000002 -0.026203 -0.097773 -0.148288
  7 5.413502 -7.700466 -0.000000 0.119039 0.016634 -0.177141
  8 6.890240 0.000002 -0.000000 -0.060378 -0.142214 -0.099206
  9 8.011925 0.000004 0.000005 -0.140568 -0.043837 0.264705
 10 7.210720 -0.000002 -0.000000 -0.021165 0.034992 -0.235080
 11 8.581028 -0.304903 -0.000000 0.103708 0.058348 0.608972
 12 22.523008 2.194031 6.355708 0.000000 0.067336 0.000000
 13 22.523005 2.194038 -6.355709 0.000000 0.050728 0.000000
 14 -3.006533 7.804720 -11.355459 0.483259 0.861013 0.989012
 15 10.384675 0.000008 0.000005 0.051044 0.189918 -1.562402
 16 22.550743 -0.000006 -0.000004 0.119012 0.013880 1.651563
 17 30.814247 -0.000015 -0.000004 2.460379 -0.034541 0.607081
 18 -3.013796 7.815494 11.355459 0.377886 0.274462 0.814210
 19 10.374533 -0.000002 0.000007 -0.073101 -0.186087 -1.432974
 20 22.550726 -0.000027 -0.000013 -0.116001 -0.014351 1.526623
 21 30.814270 -0.000023 0.000002 -3.025408 0.123146 0.498466
 22 -4.250660 -0.770624 0.000001 0.000000 -0.000000 -2.983957
 23 10.363422 0.000000 0.000000 -0.000000 -0.020142 0.008171
 24 10.363076 0.000000 -0.000000 0.000000 0.040277 -0.000000
 25 10.363081 -0.000004 -0.000002 -0.001930 -0.020043 0.096012
 26 8.210358 -0.000006 -7.703991 0.000000 0.000000 -0.000000
 27 8.210346 -0.000002 7.704017 0.000000 0.000000 -0.000000
 28 1.854841 1.227791 -13.762345 2.564942 0.201577 2.008480
 29 10.456543 -0.000004 0.000004 0.076015 0.083633 -1.094836
 30 24.248093 0.000001 0.000007 0.023718 0.028536 0.826329
 31 26.336971 0.000019 0.000002 0.583730 -0.111152 0.696120
 32 1.854847 1.227798 13.762341 -2.632931 0.037923 1.621503
 33 10.456542 -0.000008 0.000004 -0.040072 -0.093471 -1.485880
 34 24.248116 0.000002 -0.000004 -0.034202 -0.036038 1.166789
 35 26.336975 0.000000 0.000004 -0.203182 -0.052081 0.466740
time 10
  0 0.000000 0.000000 0.000000 0.000000 -0.000000 -1.570796
  1 0.000000 0.000000 0.000000 0.000000 -0.000000 0.000000
  2 -6.472854 -13.100334 35.570892 -1.441479 0.078141 1.721496
  3 4.222169 -0.467508 0.000000 -0.020848 0.003355 0.057683
  4 4.476987 -0.000002 -0.000000 0.086935 -0.089536 0.274439
  5 4.477083 0.000000 0.000002 0.074138 -0.123636 -0.023529
  6 4.477077 -0.000004 -0.000002 -0.028133 -0.106700 -0.146170
  7 5.413502 -7.700466 -0.000000 0.063507 0.053352 -0.163015
  8 6.890240 0.000002 -0.000000 0.028679 -0.066003 -0.091410
  9 8.011925 0.000004 0.000005 -0.097440 -0.140089 0.350569
 10 7.210720 -0.000002 -0.000000 0.076205 -0.064070 -0.387134
 11 8.581028 -0.304903 -0.000000 -0.014417 0.015822 0.723620
 12 22.523008 2.194031 6.355708 0.000000 0.072378 0.000000
 13 22.523005 2.194038 -6.355709 0.000000 0.057473 0.000000
 14 -3.006533 7.804720 -11.355459 0.476259 0.972021 0.942039
 15 10.384675 0.000008 0.000005 0.055788 0.189324 -1.534743
 16 22.550743 -0.000006 -0.000004 0.118436 0.013966 1.625049
 17 30.814247 -0.000015 -0.000004 2.459549 -0.072503 0.636196
 18 -3.013796 7.815494 11.355459 0.383283 0.361303 0.734923
 19 10.374533 -0.000002 0.000007 -0.084157 -0.182930 -1.366697
 20 22.550726 -0.000027 -0.000013 -0.114755 -0.014233 1.468184
 21 30.814270 -0.000023 0.000002 -3.041545 0.117739 0.515312
 22 -4.250660 -0.770624 0.000001 0.000000 -0.000000 -2.983957
 23 10.363422 0.000000 0.000000 -0.000000 -0.020142 0.008171
 24 10.363076 0.000000 -0.000000 0.000000 0.040277 -0.000000
 25 10.363081 -0.000004 -0.000002 -0.001930 -0.020043 0.096012
 26 8.210358 -0.000006 -7.703991 0.000000 0.000000 -0.000000
 27 8.210346 -0.000002 7.704017 0.000000 0.000000 -0.000000
 28 1.854841 1.227791 -13.762345 2.558434 0.206314 2.000756
 29 10.456543 -0.000004 0.000004 0.079474 0.081907 -1.054586
 30 24.248093 0.000001 0.000007 0.022903 0.027708 0.796906
 31 26.336971 0.000019 0.000002 0.607961 -0.135092 0.703796
 32 1.854847 1.227798 13.762341 -2.630702 0.056228 1.565713
 33 10.456542 -0.000008 0.000004 -0.040682 -0.093443 -1.479496
 34 24.248116 0.000002 -0.000004 -0.034060 -0.035978 1.163844
 35 26.336975 0.000000 0.000004 -0.190660 -0.054345 0.455550
time 11
  0 0.000000 0.000000 0.000000 0.000000 -0.000000 -1.570796
  1 0.000000 0.000000 0.000000 0.000000 -0.000000 0.000000
  2 -6.797082 -13.096428 35.941994 -1.424128 0.114042 1.740860
  3 4.222169 -0.467508 0.000000 -0.022934 0.005765 0.060581
  4 4.476987 -0.000002 -0.000000 0.095696 -0.097375 0.282009
  5 4.477083 0.000000 0.000002 0.083762 -0.143844 -0.018089
  6 4.477077 -0.000004 -0.000002 -0.029727 -0.114630 -0.143771
  7 5.413502 -7.700466 -0.000000 0.010367 0.090257 -0.151254
  8 6.890240 0.000002 -0.000000 0.064058 -0.078459 -0.014870
  9 8.011925 0.000004 0.000005 -0.121853 -0.159372 0.461274
 10 7.210720 -0.000002 -0.000000 0.123805 -0.127010 -0.560830
 11 8.581028 -0.304903 -0.000000 -0.056670 0.017034 0.856179
 12 22.523008 2.194031 6.355708 0.000000 0.061196 0.000000
 13 22.523005 2.194038 -6.355709 0.000000 0.060831 0.000000
 14 -3.006533 7.804720 -11.355459 0.458516 1.058262 0.894037
 15 10.384675 0.000008 0.000005 0.060457 0.188581 -1.507529
 16 22.550743 -0.000006 -0.000004 0.117940 0.014024 1.598778
 17 30.814247 -0.000015 -0.000004 2.458719 -0.105575 0.663019
 18 -3.013796 7.815494 11.355459 0.380279 0.421651 0.674674
 19 10.374533 -0.000002 0.000007 -0.092515 -0.180273 -1.315728
 20 22.550726 -0.000027 -0.000013 -0.113590 -0.014017 1.412227
 21 30.814270 -0.000023 0.000002 -3.055191 0.114387 0.529258
 22 -4.250660 -0.770624 0.000001 0.000000 -0.000000 -2.983957
 23 10.363422 0.000000 0.000000 -0.000000 -0.020142 0.008171
 24 10.363076 0.000000 -0.000000 0.000000 0.040277 -0.000000
 25 10.363081 -0.000004 -0.000002 -0.001930 -0.020043 0.096012
 26 8.210358 -0.000006 -7.703991 0.000000 0.000000 -0.000000
 27 8.210346 -0.000002 7.704017 0.000000 0.000000 -0.000000
 28 1.854841 1.227791 -13.762345 2.551926 0.211125 1.993153
 29 10.456543 -0.000004 0.000004 0.082497 0.080341 -1.019156
 30 24.248093 0.000001 0.000007 0.022199 0.027043 0.772634
 31 26.336971 0.000019 0.000002 0.631192 -0.157981 0.710533
 32 1.854847 1.227798 13.762341 -2.630466 0.067693 1.532368
 33 10.456542 -0.000008 0.000004 -0.041360 -0.093387 -1.472126
 34 24.248116 0.000002 -0.000004 -0.033736 -0.035835 1.155822
 35 26.336975 0.000000 0.000004 -0.181097 -0.055524 0.448146
time 12
  0 0.000000 0.000000 0.000000 0.000000 -0.000000 -1.570796
  1 0.000000 0.000000 0.000000 0.000000 -0.000000 0.000000
  2 -7.008026 -13.092520 36.188095 -1.415309 0.134745 1.751118
  3 4.222169 -0.467508 0.000000 -0.024324 0.008082 0.062237
  4 4.476987 -0.000002 -0.000000 0.102671 -0.102880 0.287425
  5 4.477083 0.000000 0.000002 0.091228 -0.156670 -0.014918
  6 4.477077 -0.000004 -0.000002 -0.030985 -0.121489 -0.141108
  7 5.413502 -7.700466 -0.000000 -0.038240 0.126125 -0.142075
  8 6.890240 0.000002 -0.000000 0.075167 -0.117420 0.107211
  9 8.011925 0.000004 0.000005 -0.157987 -0.160937 0.566762
 10 7.210720 -0.000002 -0.000000 0.161084 -0.172772 -0.724683
 11 8.581028 -0.304903 -0.000000 -0.078922 0.027431 0.989369
 12 22.523008 2.194031 6.355708 0.000000 0.046347 0.000000
 13 22.523005 2.194038 -6.355709 0.000000 0.050153 0.000000
 14 -3.006533 7.804720 -11.355459 0.433340 1.120761 0.847339
 15 10.384675 0.000008 0.000005 0.064827 0.187754 -1.481814
 16 22.550743 -0.000006 -0.000004 0.117509 0.014053 1.573778
 17 30.814247 -0.000015 -0.000004 2.457497 -0.130528 0.682894
 18 -3.013796 7.815494 11.355459 0.374424 0.467725 0.625995
 19 10.374533 -0.000002 0.000007 -0.098852 -0.177980 -1.276472
 20 22.550726 -0.000027 -0.000013 -0.112712 -0.013801 1.369111
 21 30.814270 -0.000023 0.000002 -3.064803 0.113677 0.536035
 22 -4.250660 -0.770624 0.000001 0.000000 -0.000000 -2.983957
 23 10.363422 0.000000 0.000000 -0.000000 -0.020142 0.008171
 24 10.363076 0.000000 -0.000000 0.000000 0.040277 -0.000000
 25 10.363081 -0.000004 -0.000002 -0.001930 -0.020043 0.096012
 26 8.210358 -0.000006 -7.703991 0.000000 0.000000 -0.000000
 27 8.210346 -0.000002 7.704017 0.000000 0.000000 -0.000000
 28 1.854841 1.227791 -13.762345 2.545813 0.215837 1.986280
 29 10.456543 -0.000004 0.000004 0.083790 0.079718 -1.003395
 30 24.248093 0.000001 0.000007 0.022087 0.027002 0.767010
 31 26.336971 0.000019 0.000002 0.648202 -0.175535 0.716664
 32 1.854847 1.227798 13.762341 -2.630635 0.074999 1.511431
 33 10.456542 -0.000008 0.000004 -0.042174 -0.093332 -1.463731
 34 24.248116 0.000002 -0.000004 -0.033205 -0.035571 1.141809
 35 26.336975 0.000000 0.000004 -0.175351 -0.056144 0.442438
time 13
  0 0.000000 0.000000 0.000000 0.000000 -0.000000 -1.570796
  1 0.000000 0.000000 0.000000 0.000000 -0.000000 0.000000
  2 -7.093966 -13.065176 36.297478 -1.413488 0.141486 1.753706
  3 4.222169 -0.467508 0.000000 -0.024815 0.010158 0.062406
  4 4.476987 -0.000002 -0.000000 0.107740 -0.105043 0.289889
  5 4.477083 0.000000 0.000002 0.096250 -0.161467 -0.013702
  6 4.477077 -0.000004 -0.000002 -0.031896 -0.127334 -0.138181
  7 5.413502 -7.700466 -0.000000 -0.062257 0.152411 -0.138030
  8 6.890240 0.000002 -0.000000 0.077073 -0.138384 0.180074
  9 8.011925 0.000004 0.000005 -0.179479 -0.163334 0.618519
 10 7.210720 -0.000002 -0.000000 0.176017 -0.194964 -0.808997
 11 8.581028 -0.304903 -0.000000 -0.089852 0.032996 1.090208
 12 22.523008 2.194031 6.355708 0.000000 0.031896 0.000000
 13 22.523005 2.194038 -6.355709 0.000000 0.033546 0.000000
 14 -3.006533 7.804720 -11.355459 0.408434 1.162416 0.806753
 15 10.384675 0.000008 0.000005 0.067479 0.187287 -1.466263
 16 22.550743 -0.000006 -0.000004 0.117205 0.014081 1.558645
 17 30.814247 -0.000015 -0.000004 2.454876 -0.136359 0.683969
 18 -3.013796 7.815494 11.355459 0.372286 0.483942 0.609807
 19 10.374533 -0.000002 0.000007 -0.101144 -0.177150 -1.262671
 20 22.550726 -0.000027 -0.000013 -0.112467 -0.013840 1.358441
 21 30.814270 -0.000023 0.000002 -3.070837 0.114949 0.536286
 22 -4.250660 -0.770624 0.000001 0.000000 -0.000000 -2.983957
 23 10.363422 0.000000 0.000000 -0.000000 -0.020142 0.008171
 24 10.363076 0.000000 -0.000000 0.000000 0.040277 -0.000000
 25 10.363081 -0.000004 -0.000002 -0.001930 -0.020043 0.096012
 26 8.210358 -0.000006 -7.703991 0.000000 0.000000 -0.000000
 27 8.210346 -0.000002 7.704017 0.000000 0.000000 -0.000000
 28 1.854841 1.227791 -13.762345 2.542559 0.219785 1.984030
 29 10.456543 -0.000004 0.000004 0.084855 0.079059 -0.990369
 30 24.248093 0.000001 0.000007 0.021791 0.026679 0.756709
 31 26.336971 0.000019 0.000002 0.648898 -0.179792 0.723125
 32 1.854847 1.227798 13.762341 -2.630432 0.078309 1.501091
 33 10.456542 -0.000008 0.000004 -0.042988 -0.093248 -1.454746
 34 24.248116 0.000002 -0.000004 -0.032440 -0.035152 1.120839
 35 26.336975 0.000000 0.000004 -0.173293 -0.056486 0.437917
time 14
  0 0.000000 0.000000 0.000000 0.000000 -0.000000 -1.570796
  1 0.000000 0.000000 0.000000 0.000000 -0.000000 0.000000
  2 -7.066622 -12.834700 36.324821 -1.412145 0.143920 1.755815
  3 4.222169 -0.467508 0.000000 -0.024324 0.011159 0.061164
  4 4.476987 -0.000002 -0.000000 0.111623 -0.101659 0.287713
  5 4.477083 0.000000 0.000002 0.099138 -0.162549 -0.011523
  6 4.477077 -0.000004 -0.000002 -0.032471 -0.131788 -0.135596
  7 5.413502 -7.700466 -0.000000 -0.054788 0.164542 -0.139056
  8 6.890240 0.000002 -0.000000 0.076150 -0.134607 0.184123
  9 8.011925 0.000004 0.000005 -0.179046 -0.167439 0.617195
 10 7.210720 -0.000002 -0.000000 0.176319 -0.200667 -0.818893
 11 8.581028 -0.304903 -0.000000 -0.094812 0.032314 1.132828
 12 22.523008 2.194031 6.355708 0.000000 0.017476 0.000000
 13 22.523005 2.194038 -6.355709 0.000000 0.015367 0.000000
 14 -3.006533 7.804720 -11.355459 0.409303 1.149591 0.807577
 15 10.384675 0.000008 0.000005 0.066844 0.187648 -1.469818
 16 22.550743 -0.000006 -0.000004 0.117205 0.014053 1.562761
 17 30.814247 -0.000015 -0.000004 2.451950 -0.136609 0.681390
 18 -3.013796 7.815494 11.355459 0.373864 0.483867 0.614367
 19 10.374533 -0.000002 0.000007 -0.101009 -0.177183 -1.263889
 20 22.550726 -0.000027 -0.000013 -0.112487 -0.013762 1.363093
 21 30.814270 -0.000023 0.000002 -3.074415 0.117274 0.532131
 22 -4.250660 -0.770624 0.000001 0.000000 -0.000000 -2.983957
 23 10.363422 0.000000 0.000000 -0.000000 -0.020142 0.008171
 24 10.363076 0.000000 -0.000000 0.000000 0.040277 -0.000000
 25 10.363081 -0.000004 -0.000002 -0.001930 -0.020043 0.096012
 26 8.210358 -0.000006 -7.703991 0.000000 0.000000 -0.000000
 27 8.210346 -0.000002 7.704017 0.000000 0.000000 -0.000000
 28 1.854841 1.227791 -13.762345 2.543175 0.221981 1.987193
 29 10.456543 -0.000004 0.000004 0.086428 0.078010 -0.970179
 30 24.248093 0.000001 0.000007 0.021160 0.026054 0.737409
 31 26.336971 0.000019 0.000002 0.646375 -0.180791 0.728427
 32 1.854847 1.227798 13.762341 -2.629521 0.076859 1.503073
 33 10.456542 -0.000008 0.000004 -0.044006 -0.093109 -1.444026
 34 24.248116 0.000002 -0.000004 -0.031430 -0.034588 1.092508
 35 26.336975 0.000000 0.000004 -0.174064 -0.055400 0.441534
time 15
  0 0.000000 0.000000 0.000000 0.000000 -0.000000 -1.570796
  1 0.000000 0.000000 0.000000 0.000000 -0.000000 0.000000
  2 -6.843959 -11.826857 36.332634 -1.419047 0.138694 1.751022
  3 4.222169 -0.467508 0.000000 -0.021951 0.017981 0.054938
  4 4.476987 -0.000002 -0.000000 0.115350 -0.089922 0.278746
  5 4.477083 0.000000 0.000002 0.100528 -0.166523 -0.004379
  6 4.477077 -0.000004 -0.000002 -0.032663 -0.138233 -0.127233
  7 5.413502 -7.700466 -0.000000 -0.016827 0.172885 -0.146493
  8 6.890240 0.000002 -0.000000 0.074820 -0.125236 0.173046
  9 8.011925 0.000004 0.000005 -0.172668 -0.171817 0.605333
 10 7.210720 -0.000002 -0.000000 0.174947 -0.203138 -0.806825
 11 8.581028 -0.304903 -0.000000 -0.099221 0.024187 1.157959
 12 22.523008 2.194031 6.355708 0.000000 0.002994 0.000000
 13 22.523005 2.194038 -6.355709 0.000000 -0.004477 0.000000
 14 -3.006533 7.804720 -11.355459 0.453199 1.136625 0.858876
 15 10.384675 0.000008 0.000005 0.058552 0.189345 -1.517914
 16 22.550743 -0.000006 -0.000004 0.118228 0.013909 1.608584
 17 30.814247 -0.000015 -0.000004 2.446926 -0.139086 0.664917
 18 -3.013796 7.815494 11.355459 0.380737 0.468509 0.644292
 19 10.374533 -0.000002 0.000007 -0.092583 -0.180372 -1.316133
 20 22.550726 -0.000027 -0.000013 -0.113529 -0.013762 1.410179
 21 30.814270 -0.000023 0.000002 -3.067820 0.124271 0.506973
 22 -4.250660 -0.770624 0.000001 0.000000 -0.000000 -2.983957
 23 10.363422 0.000000 0.000000 -0.000000 -0.020142 0.008171
 24 10.363076 0.000000 -0.000000 0.000000 0.040277 -0.000000
 25 10.363081 -0.000004 -0.000002 -0.001930 -0.020043 0.096012
 26 8.210358 -0.000006 -7.703991 0.000000 0.000000 -0.000000
 27 8.210346 -0.000002 7.704017 0.000000 0.000000 -0.000000
 28 1.854841 1.227791 -13.762345 2.554432 0.227384 2.015231
 29 10.456543 -0.000004 0.000004 0.091284 0.074557 -0.907395
 30 24.248093 0.000001 0.000007 0.019863 0.024480 0.686319
 31 26.336971 0.000019 0.000002 0.635021 -0.180055 0.745381
 32 1.854847 1.227798 13.762341 -2.626719 0.060059 1.543009
 33 10.456542 -0.000008 0.000004 -0.048177 -0.092469 -1.398821
 34 24.248116 0.000002 -0.000004 -0.030057 -0.033606 1.045036
 35 26.336975 0.000000 0.000004 -0.177752 -0.051212 0.464366
time 16
  0 0.000000 0.000000 0.000000 0.000000 -0.000000 -1.570796
  1 0.000000 0.000000 0.000000 0.000000 -0.000000 0.000000
  2 -6.226752 -9.565069 36.336540 -1.440041 0.122220 1.733671
  3 4.222169 -0.467508 0.000000 -0.016822 0.041598 0.037810
  4 4.476987 -0.000002 -0.000000 0.119413 -0.068333 0.261964
  5 4.477083 0.000000 0.000002 0.100816 -0.176813 0.009953
  6 4.477077 -0.000004 -0.000002 -0.032723 -0.151445 -0.104138
  7 5.413502 -7.700466 -0.000000 0.092336 0.178407 -0.167776
  8 6.890240 0.000002 -0.000000 0.072567 -0.111748 0.152474
  9 8.011925 0.000004 0.000005 -0.163972 -0.177680 0.581739
 10 7.210720 -0.000002 -0.000000 0.168825 -0.206510 -0.765821
 11 8.581028 -0.304903 -0.000000 -0.103584 0.001055 1.183826
 12 22.523008 2.194031 6.355708 0.000000 -0.011488 0.000000
 13 22.523005 2.194038 -6.355709 0.000000 -0.025621 0.000000
 14 -3.006533 7.804720 -11.355459 0.547502 1.072394 0.992102
 15 10.384675 0.000008 0.000005 0.036552 0.191615 -1.642545
 16 22.550743 -0.000006 -0.000004 0.120739 0.013651 1.728258
 17 30.814247 -0.000015 -0.000004 2.435963 -0.139556 0.602353
 18 -3.013796 7.815494 11.355459 0.393720 0.406256 0.738058
 19 10.374533 -0.000002 0.000007 -0.071214 -0.186585 -1.444687
 20 22.550726 -0.000027 -0.000013 -0.116266 -0.013997 1.532020
 21 30.814270 -0.000023 0.000002 -3.040843 0.143233 0.438583
 22 -4.250660 -0.770624 0.000001 0.000000 -0.000000 -2.983957
 23 10.363422 0.000000 0.000000 -0.000000 -0.020142 0.008171
 24 10.363076 0.000000 -0.000000 0.000000 0.040277 -0.000000
 25 10.363081 -0.000004 -0.000002 -0.001930 -0.020043 0.096012
 26 8.210358 -0.000006 -7.703991 0.000000 0.000000 -0.000000
 27 8.210346 -0.000002 7.704017 0.000000 0.000000 -0.000000
 28 1.854841 1.227791 -13.762345 2.594492 0.248257 2.121849
 29 10.456543 -0.000004 0.000004 0.104596 0.062297 -0.717913
 30 24.248093 0.000001 0.000007 0.016786 0.020001 0.542282
 31 26.336971 0.000019 0.000002 0.595215 -0.170936 0.797515
 32 1.854847 1.227798 13.762341 -2.625807 0.010287 1.668074
 33 10.456542 -0.000008 0.000004 -0.061437 -0.089463 -1.255681
 34 24.248116 0.000002 -0.000004 -0.027168 -0.031424 0.942271
 35 26.336975 0.000000 0.000004 -0.189245 -0.040696 0.532921
time 17
  0 0.000000 0.000000 0.000000 0.000000 -0.000000 -1.570796
  1 0.000000 0.000000 0.000000 0.000000 -0.000000 0.000000
  2 -5.195471 -6.881393 36.348259 -1.462664 0.091983 1.701939
  3 4.222169 -0.467508 0.000000 -0.010530 0.071759 0.013798
  4 4.476987 -0.000002 -0.000000 0.123512 -0.038262 0.238590
  5 4.477083 0.000000 0.000002 0.100097 -0.189607 0.029607
  6 4.477077 -0.000004 -0.000002 -0.033011 -0.165971 -0.075811
  7 5.413502 -7.700466 -0.000000 0.215602 0.187446 -0.191579
  8 6.890240 0.000002 -0.000000 0.067270 -0.085438 0.104279
  9 8.011925 0.000004 0.000005 -0.146684 -0.186658 0.526243
 10 7.210720 -0.000002 -0.000000 0.158641 -0.209070 -0.689124
 11 8.581028 -0.304903 -0.000000 -0.121519 -0.027524 1.209903
 12 22.523008 2.194031 6.355708 0.000000 -0.027527 0.000000
 13 22.523005 2.194038 -6.355709 0.000000 -0.048005 0.000000
 14 -3.006533 7.804720 -11.355459 0.592755 0.962976 1.090030
 15 10.384675 0.000008 0.000005 0.012722 0.191446 -1.774951
 16 22.550743 -0.000006 -0.000004 0.123794 0.013479 1.878440
 17 30.814247 -0.000015 -0.000004 2.423077 -0.120622 0.510747
 18 -3.013796 7.815494 11.355459 0.395044 0.303832 0.871097
 19 10.374533 -0.000002 0.000007 -0.047553 -0.190273 -1.582402
 20 22.550726 -0.000027 -0.000013 -0.119208 -0.014036 1.665152
 21 30.814270 -0.000023 0.000002 -3.009902 0.174723 0.360487
 22 -4.250660 -0.770624 0.000001 0.000000 -0.000000 -2.983957
 23 10.363422 0.000000 0.000000 -0.000000 -0.020142 0.008171
 24 10.363076 0.000000 -0.000000 0.000000 0.040277 -0.000000
 25 10.363081 -0.000004 -0.000002 -0.001930 -0.020043 0.096012
 26 8.210358 -0.000006 -7.703991 0.000000 0.000000 -0.000000
 27 8.210346 -0.000002 7.704017 0.000000 0.000000 -0.000000
 28 1.854841 1.227791 -13.762345 2.651482 0.280330 2.282598
 29 10.456543 -0.000004 0.000004 0.118835 0.041104 -0.449365
 30 24.248093 0.000001 0.000007 0.013672 0.012938 0.341235
 31 26.336971 0.000019 0.000002 0.539356 -0.153014 0.873119
 32 1.854847 1.227798 13.762341 -2.638873 -0.054862 1.848239
 33 10.456542 -0.000008 0.000004 -0.081379 -0.080976 -1.028988
 34 24.248116 0.000002 -0.000004 -0.022569 -0.027410 0.780915
 35 26.336975 0.000000 0.000004 -0.209400 -0.025464 0.637703
time 18
  0 0.000000 0.000000 0.000000 0.000000 -0.000000 -1.570796
  1 0.000000 0.000000 0.000000 0.000000 -0.000000 0.000000
  2 -3.957152 -5.393067 36.379509 -1.471005 0.049421 1.658417
  3 4.222169 -0.467508 0.000000 -0.004310 0.100159 -0.012361
  4 4.476987 -0.000002 -0.000000 0.127047 -0.002687 0.210999
  5 4.477083 0.000000 0.000002 0.098671 -0.197732 0.050698
  6 4.477077 -0.000004 -0.000002 -0.033418 -0.178393 -0.048574
  7 5.413502 -7.700466 -0.000000 0.284890 0.170455 -0.201162
  8 6.890240 0.000002 -0.000000 0.058101 -0.059089 0.029694
  9 8.011925 0.000004 0.000005 -0.129580 -0.198288 0.440768
 10 7.210720 -0.000002 -0.000000 0.099318 -0.215055 -0.575982
 11 8.581028 -0.304903 -0.000000 -0.030721 -0.057536 1.230232
 12 22.523008 2.194031 6.355708 0.000000 -0.031774 0.000000
 13 22.523005 2.194038 -6.355709 0.000000 -0.071448 0.000000
 14 -3.006533 7.804720 -11.355459 0.561555 0.840062 1.100194
 15 10.384675 0.000008 0.000005 -0.001285 0.190236 -1.852039
 16 22.550743 -0.000006 -0.000004 0.125985 0.013249 1.980135
 17 30.814247 -0.000015 -0.000004 2.414254 -0.059901 0.427449
 18 -3.013796 7.815494 11.355459 0.376868 0.196178 0.997352
 19 10.374533 -0.000002 0.000007 -0.035284 -0.191103 -1.651811
 20 22.550726 -0.000027 -0.000013 -0.120678 -0.013860 1.734572
 21 30.814270 -0.000023 0.000002 -2.991485 0.225590 0.306211
 22 -4.250660 -0.770624 0.000001 0.000000 -0.000000 -2.983957
 23 10.363422 0.000000 0.000000 -0.000000 -0.020142 0.008171
 24 10.363076 0.000000 -0.000000 0.000000 0.040277 -0.000000
 25 10.363081 -0.000004 -0.000002 -0.001930 -0.020043 0.096012
 26 8.210358 -0.000006 -7.703991 0.000000 0.000000 -0.000000
 27 8.210346 -0.000002 7.704017 0.000000 0.000000 -0.000000
 28 1.854841 1.227791 -13.762345 2.678042 0.297650 2.363915
 29 10.456543 -0.000004 0.000004 0.122241 0.033185 -0.359400
 30 24.248093 0.000001 0.000007 0.012968 0.010315 0.273390
 31 26.336971 0.000019 0.000002 0.490284 -0.127209 0.901229
 32 1.854847 1.227798 13.762341 -2.664567 -0.098230 2.005529
 33 10.456542 -0.000008 0.000004 -0.096708 -0.070234 -0.834495
 34 24.248116 0.000002 -0.000004 -0.019123 -0.023107 0.639513
 35 26.336975 0.000000 0.000004 -0.230627 -0.017740 0.710101
time 19
  0 0.000000 0.000000 0.000000 0.000000 -0.000000 -1.570796
  1 0.000000 0.000000 0.000000 0.000000 -0.000000 0.000000
  2 -2.589923 -5.643075 36.496700 -1.469950 -0.003194 1.605308
  3 4.222169 -0.467508 0.000000 0.001443 0.126613 -0.039686
  4 4.476987 -0.000002 -0.000000 0.129708 0.035930 0.181077
  5 4.477083 0.000000 0.000002 0.097089 -0.196569 0.070455
  6 4.477077 -0.000004 -0.000002 -0.033862 -0.189142 -0.021570
  7 5.413502 -7.700466 -0.000000 0.296826 0.090818 -0.191610
  8 6.890240 0.000002 -0.000000 0.044163 -0.046895 -0.081287
  9 8.011925 0.000004 0.000005 -0.121342 -0.217810 0.315502
 10 7.210720 -0.000002 -0.000000 -0.071016 -0.223159 -0.407006
 11 8.581028 -0.304903 -0.000000 0.337408 -0.097143 1.227008
 12 22.523008 2.194031 6.355708 0.000000 -0.007730 0.000000
 13 22.523005 2.194038 -6.355709 0.000000 -0.096132 0.000000
 14 -3.006533 7.804720 -11.355459 0.502304 0.697292 1.077806
 15 10.384675 0.000008 0.000005 -0.003675 0.190003 -1.864369
 16 22.550743 -0.000006 -0.000004 0.126272 0.013019 1.991394
 17 30.814247 -0.000015 -0.000004 2.410760 0.051948 0.365960
 18 -3.013796 7.815494 11.355459 0.341585 0.096445 1.101549
 19 10.374533 -0.000002 0.000007 -0.038587 -0.191103 -1.632675
 20 22.550726 -0.000027 -0.000013 -0.120066 -0.013879 1.708826
 21 30.814270 -0.000023 0.000002 -2.985837 0.290917 0.275530
 22 -4.250660 -0.770624 0.000001 0.000000 -0.000000 -2.983957
 23 10.363422 0.000000 0.000000 -0.000000 -0.020142 0.008171
 24 10.363076 0.000000 -0.000000 0.000000 0.040277 -0.000000
 25 10.363081 -0.000004 -0.000002 -0.001930 -0.020043 0.096012
 26 8.210358 -0.000006 -7.703991 0.000000 0.000000 -0.000000
 27 8.210346 -0.000002 7.704017 0.000000 0.000000 -0.000000
 28 1.854841 1.227791 -13.762345 2.650910 0.288201 2.299323
 29 10.456543 -0.000004 0.000004 0.113611 0.050197 -0.558564
 30 24.248093 0.000001 0.000007 0.014710 0.015904 0.422400
 31 26.336971 0.000019 0.000002 0.453610 -0.094203 0.833191
 32 1.854847 1.227798 13.762341 -2.690295 -0.107424 2.101470
 33 10.456542 -0.000008 0.000004 -0.103084 -0.064223 -0.742431
 34 24.248116 0.000002 -0.000004 -0.017685 -0.020854 0.571782
 35 26.336975 0.000000 0.000004 -0.254899 -0.024595 0.739716
time 20
  0 0.000000 0.000000 0.000000 0.000000 -0.000000 -1.570796
  1 0.000000 0.000000 0.000000 0.000000 -0.000000 0.000000
  2 -1.066439 -7.061087 36.727177 -1.465061 -0.063587 1.545201
  3 4.222169 -0.467508 0.000000 0.006417 0.149766 -0.066658
  4 4.476987 -0.000002 -0.000000 0.131410 0.074696 0.151000
  5 4.477083 0.000000 0.000002 0.095842 -0.186473 0.087708
  6 4.477077 -0.000004 -0.000002 -0.034257 -0.198144 0.005044
  7 5.413502 -7.700466 -0.000000 0.290818 0.017348 -0.185013
  8 6.890240 0.000002 -0.000000 0.030117 -0.024467 -0.198318
  9 8.011925 0.000004 0.000005 -0.109306 -0.214344 0.174662
 10 7.210720 -0.000002 -0.000000 -0.228531 -0.219504 -0.251734
 11 8.581028 -0.304903 -0.000000 0.701472 -0.138236 1.194446
 12 22.523008 2.194031 6.355708 0.000000 0.042162 0.000000
 13 22.523005 2.194038 -6.355709 0.000000 -0.138208 0.000000
 14 -3.006533 7.804720 -11.355459 0.450431 0.527177 1.075403
 15 10.384675 0.000008 0.000005 0.003421 0.190724 -1.825659
 16 22.550743 -0.000006 -0.000004 0.125521 0.013163 1.949021
 17 30.814247 -0.000015 -0.000004 2.405824 0.189502 0.315071
 18 -3.013796 7.815494 11.355459 0.297037 0.006054 1.196454
 19 10.374533 -0.000002 0.000007 -0.053148 -0.189874 -1.548481
 20 22.550726 -0.000027 -0.000013 -0.118431 -0.014115 1.628426
 21 30.814270 -0.000023 0.000002 -2.988118 0.356636 0.263732
 22 -4.250660 -0.770624 0.000001 0.000000 -0.000000 -2.983957
 23 10.363422 0.000000 0.000000 -0.000000 -0.020142 0.008171
 24 10.363076 0.000000 -0.000000 0.000000 0.040277 -0.000000
 25 10.363081 -0.000004 -0.000002 -0.001930 -0.020043 0.096012
 26 8.210358 -0.000006 -7.703991 0.000000 0.000000 -0.000000
 27 8.210346 -0.000002 7.704017 0.000000 0.000000 -0.000000
 28 1.854841 1.227791 -13.762345 2.608124 0.264812 2.186684
 29 10.456543 -0.000004 0.000004 0.095687 0.070785 -0.844654
 30 24.248093 0.000001 0.000007 0.018640 0.023148 0.635169
 31 26.336971 0.000019 0.000002 0.417546 -0.058963 0.732237
 32 1.854847 1.227798 13.762341 -2.711700 -0.102608 2.163766
 33 10.456542 -0.000008 0.000004 -0.104644 -0.062664 -0.719454
 34 24.248116 0.000002 -0.000004 -0.017141 -0.020087 0.549086
 35 26.336975 0.000000 0.000004 -0.285389 -0.038152 0.741750
time 21
  0 0.000000 0.000000 0.000000 0.000000 -0.000000 -1.570796
  1 0.000000 0.000000 0.000000 0.000000 -0.000000 0.000000
  2 0.570330 -9.143181 37.055313 -1.460172 -0.129524 1.480684
  3 4.222169 -0.467508 0.000000 0.010407 0.168434 -0.091851
  4 4.476987 -0.000002 -0.000000 0.132452 0.110743 0.122875
  5 4.477083 0.000000 0.000002 0.095183 -0.169980 0.102248
  6 4.477077 -0.000004 -0.000002 -0.034545 -0.205680 0.031829
  7 5.413502 -7.700466 -0.000000 0.287907 0.021256 -0.205332
  8 6.890240 0.000002 -0.000000 0.019703 0.056214 -0.287587
  9 8.011925 0.000004 0.000005 -0.083518 -0.121334 0.041608
 10 7.210720 -0.000002 -0.000000 -0.249559 -0.212990 -0.171443
 11 8.581028 -0.304903 -0.000000 0.753852 -0.179294 1.145551
 12 22.523008 2.194031 6.355708 0.000000 -0.028169 0.000000
 13 22.523005 2.194038 -6.355709 0.000000 -0.045343 0.000000
 14 -3.006533 7.804720 -11.355459 0.410550 0.349889 1.105482
 15 10.384675 0.000008 0.000005 0.016158 0.191403 -1.757734
 16 22.550743 -0.000006 -0.000004 0.123842 0.013479 1.861248
 17 30.814247 -0.000015 -0.000004 2.392633 0.328499 0.269948
 18 -3.013796 7.815494 11.355459 0.245208 -0.077611 1.294723
 19 10.374533 -0.000002 0.000007 -0.076472 -0.185522 -1.412505
 20 22.550726 -0.000027 -0.000013 -0.115858 -0.014036 1.506399
 21 30.814270 -0.000023 0.000002 -2.997379 0.418954 0.275921
 22 -4.250660 -0.770624 0.000001 0.000000 -0.000000 -2.983957
 23 10.363422 0.000000 0.000000 -0.000000 -0.020142 0.008171
 24 10.363076 0.000000 -0.000000 0.000000 0.040277 -0.000000
 25 10.363081 -0.000004 -0.000002 -0.001930 -0.020043 0.096012
 26 8.210358 -0.000006 -7.703991 0.000000 0.000000 -0.000000
 27 8.210346 -0.000002 7.704017 0.000000 0.000000 -0.000000
 28 1.854841 1.227791 -13.762345 2.570263 0.238659 2.080978
 29 10.456543 -0.000004 0.000004 0.075596 0.083971 -1.098179
 30 24.248093 0.000001 0.000007 0.023459 0.028616 0.821889
 31 26.336971 0.000019 0.000002 0.378480 -0.024722 0.635536
 32 1.854847 1.227798 13.762341 -2.729561 -0.096397 2.213482
 33 10.456542 -0.000008 0.000004 -0.103728 -0.063610 -0.733445
 34 24.248116 0.000002 -0.000004 -0.017232 -0.020267 0.553859
 35 26.336975 0.000000 0.000004 -0.322783 -0.052577 0.721009
time 22
  0 0.000000 0.000000 0.000000 0.000000 -0.000000 -1.570796
  1 0.000000 0.000000 0.000000 0.000000 -0.000000 0.000000
  2 2.222724 -11.623726 37.438133 -1.454900 -0.197058 1.415400
  3 4.222169 -0.467508 0.000000 0.013332 0.181281 -0.113747
  4 4.476987 -0.000002 -0.000000 0.133183 0.141863 0.098436
  5 4.477083 0.000000 0.000002 0.095243 -0.149594 0.113809
  6 4.477077 -0.000004 -0.000002 -0.034305 -0.209175 0.054099
  7 5.413502 -7.700466 -0.000000 0.285781 0.063037 -0.243603
  8 6.890240 0.000002 -0.000000 0.011038 0.182717 -0.355400
  9 8.011925 0.000004 0.000005 -0.053972 0.032446 -0.080491
 10 7.210720 -0.000002 -0.000000 -0.205006 -0.202767 -0.125344
 11 8.581028 -0.304903 -0.000000 0.651480 -0.226737 1.090909
 12 22.523008 2.194031 6.355708 0.000000 -0.413948 0.000000
 13 22.523005 2.194038 -6.355709 0.000000 0.405550 0.000000
 14 -3.006533 7.804720 -11.355459 0.378266 0.193800 1.156575
 15 10.384675 0.000008 0.000005 0.037784 0.191212 -1.636824
 16 22.550743 -0.000006 -0.000004 0.120803 0.013995 1.721841
 17 30.814247 -0.000015 -0.000004 2.369876 0.458843 0.234495
 18 -3.013796 7.815494 11.355459 0.192411 -0.147002 1.386322
 19 10.374533 -0.000002 0.000007 -0.106065 -0.175123 -1.234258
 20 22.550726 -0.000027 -0.000013 -0.112222 -0.013624 1.330648
 21 30.814270 -0.000023 0.000002 -3.010183 0.473492 0.308888
 22 -4.250660 -0.770624 0.000001 0.000000 -0.000000 -2.983957
 23 10.363422 0.000000 0.000000 -0.000000 -0.020142 0.008171
 24 10.363076 0.000000 -0.000000 0.000000 0.040277 -0.000000
 25 10.363081 -0.000004 -0.000002 -0.001930 -0.020043 0.096012
 26 8.210358 -0.000006 -7.703991 0.000000 0.000000 -0.000000
 27 8.210346 -0.000002 7.704017 0.000000 0.000000 -0.000000
 28 1.854841 1.227791 -13.762345 2.535875 0.209941 1.981841
 29 10.456543 -0.000004 0.000004 0.055575 0.091035 -1.321789
 30 24.248093 0.000001 0.000007 0.028390 0.032551 0.984752
 31 26.336971 0.000019 0.000002 0.337586 0.008783 0.541100
 32 1.854847 1.227798 13.762341 -2.743944 -0.089529 2.251522
 33 10.456542 -0.000008 0.000004 -0.101965 -0.065336 -0.758668
 34 24.248116 0.000002 -0.000004 -0.017569 -0.020950 0.571223
 35 26.336975 0.000000 0.000004 -0.366095 -0.068553 0.692920
time 23
  0 0.000000 0.000000 0.000000 0.000000 -0.000000 -1.570796
  1 0.000000 0.000000 0.000000 0.000000 -0.000000 0.000000
  2 3.796991 -14.240993 37.840492 -1.448285 -0.261599 1.352705
  3 4.222169 -0.467508 0.000000 0.015141 0.187046 -0.130890
  4 4.476987 -0.000002 -0.000000 0.133555 0.167458 0.078192
  5 4.477083 0.000000 0.000002 0.096046 -0.127642 0.122198
  6 4.477077 -0.000004 -0.000002 -0.033119 -0.205924 0.065062
  7 5.413502 -7.700466 -0.000000 0.283162 0.109865 -0.288502
  8 6.890240 0.000002 -0.000000 0.003979 0.283800 -0.407155
  9 8.011925 0.000004 0.000005 -0.027320 0.126302 -0.187900
 10 7.210720 -0.000002 -0.000000 -0.156774 -0.189562 -0.083536
 11 8.581028 -0.304903 -0.000000 0.540658 -0.275033 1.035950
 12 22.523008 2.194031 6.355708 0.000000 -0.809107 0.000000
 13 22.523005 2.194038 -6.355709 0.000000 0.866757 0.000000
 14 -3.006533 7.804720 -11.355459 0.352927 0.077210 1.195650
 15 10.384675 0.000008 0.000005 0.065387 0.187775 -1.478482
 16 22.550743 -0.000006 -0.000004 0.117285 0.014311 1.565061
 17 30.814247 -0.000015 -0.000004 2.339126 0.572542 0.207994
 18 -3.013796 7.815494 11.355459 0.150052 -0.195766 1.457117
 19 10.374533 -0.000002 0.000007 -0.136467 -0.157814 -1.035137
 20 22.550726 -0.000027 -0.000013 -0.108095 -0.012584 1.115937
 21 30.814270 -0.000023 0.000002 -3.024110 0.517924 0.361017
 22 -4.250660 -0.770624 0.000001 0.000000 -0.000000 -2.983957
 23 10.363422 0.000000 0.000000 -0.000000 -0.020142 0.008171
 24 10.363076 0.000000 -0.000000 0.000000 0.040277 -0.000000
 25 10.363081 -0.000004 -0.000002 -0.001930 -0.020043 0.096012
 26 8.210358 -0.000006 -7.703991 0.000000 0.000000 -0.000000
 27 8.210346 -0.000002 7.704017 0.000000 0.000000 -0.000000
 28 1.854841 1.227791 -13.762345 2.506765 0.181297 1.900402
 29 10.456543 -0.000004 0.000004 0.037703 0.093348 -1.510098
 30 24.248093 0.000001 0.000007 0.032986 0.035315 1.125237
 31 26.336971 0.000019 0.000002 0.295040 0.040895 0.449314
 32 1.854847 1.227798 13.762341 -2.755930 -0.083291 2.282842
 33 10.456542 -0.000008 0.000004 -0.100405 -0.066839 -0.781290
 34 24.248116 0.000002 -0.000004 -0.017841 -0.021561 0.587065
 35 26.336975 0.000000 0.000004 -0.410393 -0.085429 0.663757
time 24
  0 0.000000 0.000000 0.000000 0.000000 -0.000000 -1.570796
  1 0.000000 0.000000 0.000000 0.000000 -0.000000 0.000000
  2 5.187658 -16.725445 38.219410 -1.440233 -0.318083 1.296624
  3 4.222169 -0.467508 0.000000 0.016472 0.189586 -0.143387
  4 4.476987 -0.000002 -0.000000 0.133315 0.187312 0.062277
  5 4.477083 0.000000 0.000002 0.097544 -0.106610 0.127178
  6 4.477077 -0.000004 -0.000002 -0.031573 -0.200643 0.070809
  7 5.413502 -7.700466 -0.000000 0.278789 0.160243 -0.337011
  8 6.890240 0.000002 -0.000000 -0.000683 0.331989 -0.445553
  9 8.011925 0.000004 0.000005 0.000485 0.127533 -0.284510
 10 7.210720 -0.000002 -0.000000 -0.102887 -0.172683 -0.050819
 11 8.581028 -0.304903 -0.000000 0.413211 -0.318430 0.979800
 12 22.523008 2.194031 6.355708 0.000000 -0.885853 0.000000
 13 22.523005 2.194038 -6.355709 0.000000 0.963706 0.000000
 14 -3.006533 7.804720 -11.355459 0.338439 -0.007618 1.239257
 15 10.384675 0.000008 0.000005 0.093251 0.179989 -1.313363
 16 22.550743 -0.000006 -0.000004 0.113894 0.014253 1.408705
 17 30.814247 -0.000015 -0.000004 2.303047 0.657494 0.192595
 18 -3.013796 7.815494 11.355459 0.117518 -0.231974 1.505624
 19 10.374533 -0.000002 0.000007 -0.167340 -0.131369 -0.804761
 20 22.550726 -0.000027 -0.000013 -0.104132 -0.010621 0.871759
 21 30.814270 -0.000023 0.000002 -3.037827 0.550539 0.433563
 22 -4.250660 -0.770624 0.000001 0.000000 -0.000000 -2.983957
 23 10.363422 0.000000 0.000000 -0.000000 -0.020142 0.008171
 24 10.363076 0.000000 -0.000000 0.000000 0.040277 -0.000000
 25 10.363081 -0.000004 -0.000002 -0.001930 -0.020043 0.096012
 26 8.210358 -0.000006 -7.703991 0.000000 0.000000 -0.000000
 27 8.210346 -0.000002 7.704017 0.000000 0.000000 -0.000000
 28 1.854841 1.227791 -13.762345 2.483943 0.153565 1.832952
 29 10.456543 -0.000004 0.000004 0.023273 0.092797 -1.657897
 30 24.248093 0.000001 0.000007 0.036805 0.037030 1.239968
 31 26.336971 0.000019 0.000002 0.250666 0.070932 0.359516
 32 1.854847 1.227798 13.762341 -2.765553 -0.077982 2.307916
 33 10.456542 -0.000008 0.000004 -0.098878 -0.068230 -0.802848
 34 24.248116 0.000002 -0.000004 -0.018113 -0.022148 0.602906
 35 26.336975 0.000000 0.000004 -0.450317 -0.101467 0.638155
time 25
  0 0.000000 0.000000 0.000000 0.000000 -0.000000 -1.570796
  1 0.000000 0.000000 0.000000 0.000000 -0.000000 0.000000
  2 6.300973 -18.823164 38.539734 -1.431797 -0.362241 1.251184
  3 4.222169 -0.467508 0.000000 0.017730 0.191884 -0.151836
  4 4.476987 -0.000002 -0.000000 0.132129 0.201426 0.050756
  5 4.477083 0.000000 0.000002 0.099666 -0.088809 0.128556
  6 4.477077 -0.000004 -0.000002 -0.029991 -0.196001 0.074531
  7 5.413502 -7.700466 -0.000000 0.272157 0.213545 -0.389160
  8 6.890240 0.000002 -0.000000 -0.004746 0.358939 -0.475527
  9 8.011925 0.000004 0.000005 0.029180 0.105582 -0.375073
 10 7.210720 -0.000002 -0.000000 -0.052432 -0.155258 -0.022285
 11 8.581028 -0.304903 -0.000000 0.283995 -0.360428 0.926665
 12 22.523008 2.194031 6.355708 0.000000 -0.858968 0.000000
 13 22.523005 2.194038 -6.355709 0.000000 0.941866 0.000000
 14 -3.006533 7.804720 -11.355459 0.332742 -0.058069 1.273525
 15 10.384675 0.000008 0.000005 0.118314 0.168595 -1.155131
 16 22.550743 -0.000006 -0.000004 0.110808 0.013593 1.252954
 17 30.814247 -0.000015 -0.000004 2.262950 0.723826 0.184036
 18 -3.013796 7.815494 11.355459 0.103263 -0.255292 1.511837
 19 10.374533 -0.000002 0.000007 -0.195316 -0.093130 -0.538492
 20 22.550726 -0.000027 -0.000013 -0.100537 -0.007735 0.590855
 21 30.814270 -0.000023 0.000002 -3.052034 0.570137 0.522341
 22 -4.250660 -0.770624 0.000001 0.000000 -0.000000 -2.983957
 23 10.363422 0.000000 0.000000 -0.000000 -0.020142 0.008171
 24 10.363076 0.000000 -0.000000 0.000000 0.040277 -0.000000
 25 10.363081 -0.000004 -0.000002 -0.001930 -0.020043 0.096012
 26 8.210358 -0.000006 -7.703991 0.000000 0.000000 -0.000000
 27 8.210346 -0.000002 7.704017 0.000000 0.000000 -0.000000
 28 1.854841 1.227791 -13.762345 2.467321 0.127610 1.776085
 29 10.456543 -0.000004 0.000004 0.012616 0.091000 -1.768356
 30 24.248093 0.000001 0.000007 0.039548 0.037757 1.313496
 31 26.336971 0.000019 0.000002 0.209990 0.094819 0.282310
 32 1.854847 1.227798 13.762341 -2.772778 -0.073769 2.326828
 33 10.456542 -0.000008 0.000004 -0.097420 -0.069538 -0.823421
 34 24.248116 0.000002 -0.000004 -0.018372 -0.022712 0.618696
 35 26.336975 0.000000 0.000004 -0.481021 -0.114341 0.620692
time 26
  0 0.000000 0.000000 0.000000 0.000000 -0.000000 -1.570796
  1 0.000000 0.000000 0.000000 0.000000 -0.000000 0.000000
  2 7.031465 -20.252895 38.758488 -1.424512 -0.389246 1.221083
  3 4.222169 -0.467508 0.000000 0.018869 0.193312 -0.156068
  4 4.476987 -0.000002 -0.000000 0.129576 0.209565 0.043786
  5 4.477083 0.000000 0.000002 0.102446 -0.076823 0.126066
  6 4.477077 -0.000004 -0.000002 -0.028337 -0.191961 0.074359
  7 5.413502 -7.700466 -0.000000 0.261165 0.258163 -0.434121
  8 6.890240 0.000002 -0.000000 -0.006412 0.364167 -0.487186
  9 8.011925 0.000004 0.000005 0.051209 0.080884 -0.442066
 10 7.210720 -0.000002 -0.000000 -0.020753 -0.138609 0.001877
 11 8.581028 -0.304903 -0.000000 0.180682 -0.388818 0.879452
 12 22.523008 2.194031 6.355708 0.000000 -0.847541 0.000000
 13 22.523005 2.194038 -6.355709 0.000000 0.937510 0.000000
 14 -3.006533 7.804720 -11.355459 0.331277 -0.089902 1.296256
 15 10.384675 0.000008 0.000005 0.134711 0.159027 -1.046440
 16 22.550743 -0.000006 -0.000004 0.108537 0.012905 1.135339
 17 30.814247 -0.000015 -0.000004 2.230452 0.771788 0.178628
 18 -3.013796 7.815494 11.355459 0.104179 -0.269939 1.484363
 19 10.374533 -0.000002 0.000007 -0.214595 -0.043828 -0.244159
 20 22.550726 -0.000027 -0.000013 -0.097432 -0.003769 0.275706
 21 30.814270 -0.000023 0.000002 -3.073433 0.573856 0.607911
 22 -4.250660 -0.770624 0.000001 0.000000 -0.000000 -2.983957
 23 10.363422 0.000000 0.000000 -0.000000 -0.020142 0.008171
 24 10.363076 0.000000 -0.000000 0.000000 0.040277 -0.000000
 25 10.363081 -0.000004 -0.000002 -0.001930 -0.020043 0.096012
 26 8.210358 -0.000006 -7.703991 0.000000 0.000000 -0.000000
 27 8.210346 -0.000002 7.704017 0.000000 0.000000 -0.000000
 28 1.854841 1.227791 -13.762345 2.456855 0.105726 1.732416
 29 10.456543 -0.000004 0.000004 0.006083 0.089291 -1.838739
 30 24.248093 0.000001 0.000007 0.041550 0.038120 1.362219
 31 26.336971 0.000019 0.000002 0.184801 0.107380 0.237522
 32 1.854847 1.227798 13.762341 -2.777167 -0.071416 2.338029
 33 10.456542 -0.000008 0.000004 -0.096030 -0.070762 -0.842929
 34 24.248116 0.000002 -0.000004 -0.018657 -0.023215 0.634537
 35 26.336975 0.000000 0.000004 -0.498818 -0.121879 0.613118
time 27
  0 0.000000 0.000000 0.000000 0.000000 -0.000000 -1.570796
  1 0.000000 0.000000 0.000000 0.000000 -0.000000 0.000000
  2 7.285378 -20.834944 38.809273 -1.420677 -0.397464 1.210346
  3 4.222169 -0.467508 0.000000 0.019755 0.192885 -0.155884
  4 4.476987 -0.000002 -0.000000 0.125202 0.211664 0.041500
  5 4.477083 0.000000 0.000002 0.102039 -0.071993 0.120182
  6 4.477077 -0.000004 -0.000002 -0.026635 -0.188616 0.069563
  7 5.413502 -7.700466 -0.000000 0.244019 0.269548 -0.446101
  8 6.890240 0.000002 -0.000000 -0.007215 0.363461 -0.493934
  9 8.011925 0.000004 0.000005 0.061280 0.060036 -0.468983
 10 7.210720 -0.000002 -0.000000 0.001180 -0.122243 0.023760
 11 8.581028 -0.304903 -0.000000 0.117784 -0.396023 0.839986
 12 22.523008 2.194031 6.355708 0.000000 -0.802599 0.000000
 13 22.523005 2.194038 -6.355709 0.000000 0.896039 0.000000
 14 -3.006533 7.804720 -11.355459 0.332579 -0.100890 1.310746
 15 10.384675 0.000008 0.000005 0.142256 0.153829 -0.995844
 16 22.550743 -0.000006 -0.000004 0.107705 0.012560 1.088244
 17 30.814247 -0.000015 -0.000004 2.227482 0.782603 0.182281
 18 -3.013796 7.815494 11.355459 0.105961 -0.280925 1.462133
 19 10.374533 -0.000002 0.000007 -0.219651 -0.011369 -0.062839
 20 22.550726 -0.000027 -0.000013 -0.096268 -0.000962 0.071232
 21 30.814270 -0.000023 0.000002 -3.096656 0.559641 0.643333
 22 -4.250660 -0.770624 0.000001 0.000000 -0.000000 -2.983957
 23 10.363422 0.000000 0.000000 -0.000000 -0.020142 0.008171
 24 10.363076 0.000000 -0.000000 0.000000 0.040277 -0.000000
 25 10.363081 -0.000004 -0.000002 -0.001930 -0.020043 0.096012
 26 8.210358 -0.000006 -7.703991 0.000000 0.000000 -0.000000
 27 8.210346 -0.000002 7.704017 0.000000 0.000000 -0.000000
 28 1.854841 1.227791 -13.762345 2.455052 0.098571 1.720434
 29 10.456543 -0.000004 0.000004 0.004143 0.088757 -1.859884
 30 24.248093 0.000001 0.000007 0.042217 0.038140 1.380275
 31 26.336971 0.000019 0.000002 0.170576 0.115001 0.211566
 32 1.854847 1.227798 13.762341 -2.779362 -0.070841 2.343328
 33 10.456542 -0.000008 0.000004 -0.094741 -0.071820 -0.860191
 34 24.248116 0.000002 -0.000004 -0.018929 -0.023634 0.649464
 35 26.336975 0.000000 0.000004 -0.503664 -0.123771 0.610745
time 28
  0 0.000000 0.000000 0.000000 0.000000 -0.000000 -1.570796
  1 0.000000 0.000000 0.000000 0.000000 -0.000000 0.000000
  2 6.965056 -20.631813 38.555359 -1.424320 -0.391959 1.221370
  3 4.222169 -0.467508 0.000000 0.020271 0.189660 -0.151085
  4 4.476987 -0.000002 -0.000000 0.118466 0.207595 0.043986
  5 4.477083 0.000000 0.000002 0.096526 -0.072268 0.111007
  6 4.477077 -0.000004 -0.000002 -0.024897 -0.185816 0.061013
  7 5.413502 -7.700466 -0.000000 0.223696 0.267220 -0.445447
  8 6.890240 0.000002 -0.000000 -0.007730 0.357567 -0.497402
  9 8.011925 0.000004 0.000005 0.059813 0.046217 -0.449230
 10 7.210720 -0.000002 -0.000000 0.003788 -0.105700 0.040467
 11 8.581028 -0.304903 -0.000000 0.086921 -0.375895 0.807425
 12 22.523008 2.194031 6.355708 0.000000 -0.577707 0.000000
 13 22.523005 2.194038 -6.355709 0.000000 0.652503 0.000000
 14 -3.006533 7.804720 -11.355459 0.330463 -0.100642 1.310266
 15 10.384675 0.000008 0.000005 0.136840 0.157690 -1.032500
 16 22.550743 -0.000006 -0.000004 0.108233 0.012445 1.118087
 17 30.814247 -0.000015 -0.000004 2.250588 0.763951 0.195316
 18 -3.013796 7.815494 11.355459 0.087174 -0.290828 1.512407
 19 10.374533 -0.000002 0.000007 -0.214123 -0.046087 -0.258075
 20 22.550726 -0.000027 -0.000013 -0.097473 -0.003828 0.291464
 21 30.814270 -0.000023 0.000002 -3.062032 0.567176 0.607074
 22 -4.250660 -0.770624 0.000001 0.000000 -0.000000 -2.983957
 23 10.363422 0.000000 0.000000 -0.000000 -0.020142 0.008171
 24 10.363076 0.000000 -0.000000 0.000000 0.040277 -0.000000
 25 10.363081 -0.000004 -0.000002 -0.001930 -0.020043 0.096012
 26 8.210358 -0.000006 -7.703991 0.000000 0.000000 -0.000000
 27 8.210346 -0.000002 7.704017 0.000000 0.000000 -0.000000
 28 1.854841 1.227791 -13.762345 2.457647 0.100249 1.726516
 29 10.456543 -0.000004 0.000004 0.005279 0.089131 -1.847900
 30 24.248093 0.000001 0.000007 0.041735 0.037979 1.370270
 31 26.336971 0.000019 0.000002 0.182800 0.115237 0.227692
 32 1.854847 1.227798 13.762341 -2.778112 -0.071662 2.336909
 33 10.456542 -0.000008 0.000004 -0.092604 -0.073518 -0.889000
 34 24.248116 0.000002 -0.000004 -0.019486 -0.024258 0.673277
 35 26.336975 0.000000 0.000004 -0.496502 -0.120452 0.606845
time 29
  0 0.000000 0.000000 0.000000 0.000000 -0.000000 -1.570796
  1 0.000000 0.000000 0.000000 0.000000 -0.000000 0.000000
  2 6.101748 -19.920855 37.930336 -1.438028 -0.378676 1.253677
  3 4.222169 -0.467508 0.000000 0.020247 0.182708 -0.141471
  4 4.476987 -0.000002 -0.000000 0.108747 0.197314 0.051444
  5 4.477083 0.000000 0.000002 0.086794 -0.074303 0.098142
  6 4.477077 -0.000004 -0.000002 -0.023207 -0.183523 0.050299
  7 5.413502 -7.700466 -0.000000 0.194176 0.236755 -0.424009
  8 6.890240 0.000002 -0.000000 -0.006711 0.322722 -0.482136
  9 8.011925 0.000004 0.000005 0.052767 0.032910 -0.389634
 10 7.210720 -0.000002 -0.000000 0.002333 -0.089034 0.055941
 11 8.581028 -0.304903 -0.000000 0.062649 -0.346446 0.776791
 12 22.523008 2.194031 6.355708 0.000000 -0.224190 0.000000
 13 22.523005 2.194038 -6.355709 0.000000 0.255091 0.000000
 14 -3.006533 7.804720 -11.355459 0.324115 -0.099371 1.300102
 15 10.384675 0.000008 0.000005 0.124402 0.165667 -1.116476
 16 22.550743 -0.000006 -0.000004 0.109704 0.012876 1.204467
 17 30.814247 -0.000015 -0.000004 2.289201 0.725833 0.216804
 18 -3.013796 7.815494 11.355459 0.066555 -0.300805 1.564790
 19 10.374533 -0.000002 0.000007 -0.193900 -0.096020 -0.558671
 20 22.550726 -0.000027 -0.000013 -0.100415 -0.007853 0.615112
 21 30.814270 -0.000023 0.000002 -3.022321 0.551787 0.544207
 22 -4.250660 -0.770624 0.000001 0.000000 -0.000000 -2.983957
 23 10.363422 0.000000 0.000000 -0.000000 -0.020142 0.008171
 24 10.363076 0.000000 -0.000000 0.000000 0.040277 -0.000000
 25 10.363081 -0.000004 -0.000002 -0.001930 -0.020043 0.096012
 26 8.210358 -0.000006 -7.703991 0.000000 0.000000 -0.000000
 27 8.210346 -0.000002 7.704017 0.000000 0.000000 -0.000000
 28 1.854841 1.227791 -13.762345 2.464814 0.106318 1.744823
 29 10.456543 -0.000004 0.000004 0.008162 0.089914 -1.817724
 30 24.248093 0.000001 0.000007 0.040660 0.037757 1.343748
 31 26.336971 0.000019 0.000002 0.202812 0.113556 0.258066
 32 1.854847 1.227798 13.762341 -2.765586 -0.073714 2.290037
 33 10.456542 -0.000008 0.000004 -0.085652 -0.078360 -0.978739
 34 24.248116 0.000002 -0.000004 -0.021183 -0.026235 0.740500
 35 26.336975 0.000000 0.000004 -0.478320 -0.112200 0.594298
time 30
  0 0.000000 0.000000 0.000000 0.000000 -0.000000 -1.570796
  1 0.000000 0.000000 0.000000 0.000000 -0.000000 0.000000
  2 4.828272 -18.873947 37.004528 -1.459309 -0.359728 1.302376
  3 4.222169 -0.467508 0.000000 0.019432 0.171048 -0.126750
  4 4.476987 -0.000002 -0.000000 0.095132 0.180801 0.064097
  5 4.477083 0.000000 0.000002 0.073887 -0.074804 0.080934
  6 4.477077 -0.000004 -0.000002 -0.021230 -0.179276 0.036003
  7 5.413502 -7.700466 -0.000000 0.162741 0.199663 -0.396845
  8 6.890240 0.000002 -0.000000 -0.005693 0.280350 -0.462518
  9 8.011925 0.000004 0.000005 0.044241 0.019874 -0.321031
 10 7.210720 -0.000002 -0.000000 0.001537 -0.072279 0.071602
 11 8.581028 -0.304903 -0.000000 0.050685 -0.288845 0.752852
 12 22.523008 2.194031 6.355708 0.000000 -0.006446 0.000000
 13 22.523005 2.194038 -6.355709 0.000000 0.007381 0.000000
 14 -3.006533 7.804720 -11.355459 0.319177 -0.091421 1.286779
 15 10.384675 0.000008 0.000005 0.108416 0.173942 -1.219668
 16 22.550743 -0.000006 -0.000004 0.111799 0.013565 1.315242
 17 30.814247 -0.000015 -0.000004 2.338209 0.666366 0.246563
 18 -3.013796 7.815494 11.355459 0.055761 -0.312874 1.578129
 19 10.374533 -0.000002 0.000007 -0.164442 -0.134525 -0.829057
 20 22.550726 -0.000027 -0.000013 -0.104296 -0.011013 0.897505
 21 30.814270 -0.000023 0.000002 -2.985416 0.514670 0.482428
 22 -4.250660 -0.770624 0.000001 0.000000 -0.000000 -2.983957
 23 10.363422 0.000000 0.000000 -0.000000 -0.020142 0.008171
 24 10.363076 0.000000 -0.000000 0.000000 0.040277 -0.000000
 25 10.363081 -0.000004 -0.000002 -0.001930 -0.020043 0.096012
 26 8.210358 -0.000006 -7.703991 0.000000 0.000000 -0.000000
 27 8.210346 -0.000002 7.704017 0.000000 0.000000 -0.000000
 28 1.854841 1.227791 -13.762345 2.487065 0.119986 1.795547
 29 10.456543 -0.000004 0.000004 0.012686 0.090928 -1.770440
 30 24.248093 0.000001 0.000007 0.039103 0.037434 1.304320
 31 26.336971 0.000019 0.000002 0.235005 0.110271 0.316827
 32 1.854847 1.227798 13.762341 -2.750798 -0.075246 2.235539
 33 10.456542 -0.000008 0.000004 -0.077377 -0.083063 -1.078883
 34 24.248116 0.000002 -0.000004 -0.023113 -0.028368 0.814628
 35 26.336975 0.000000 0.000004 -0.451647 -0.099761 0.580282
time 31
  0 0.000000 0.000000 0.000000 0.000000 -0.000000 -1.570796
  1 0.000000 0.000000 0.000000 0.000000 -0.000000 0.000000
  2 3.312601 -17.627815 35.906837 -1.484233 -0.336632 1.360086
  3 4.222169 -0.467508 0.000000 0.017466 0.153993 -0.106893
  4 4.476987 -0.000002 -0.000000 0.079205 0.153729 0.083741
  5 4.477083 0.000000 0.000002 0.058894 -0.070442 0.058983
  6 4.477077 -0.000004 -0.000002 -0.016808 -0.155917 0.001182
  7 5.413502 -7.700466 -0.000000 0.131440 0.161875 -0.368375
  8 6.890240 0.000002 -0.000000 -0.002721 0.224659 -0.436175
  9 8.011925 0.000004 0.000005 0.034091 0.008339 -0.230988
 10 7.210720 -0.000002 -0.000000 0.001016 -0.055596 0.087129
 11 8.581028 -0.304903 -0.000000 0.039639 -0.227095 0.729824
 12 22.523008 2.194031 6.355708 0.000000 -0.000000 0.000000
 13 22.523005 2.194038 -6.355709 0.000000 -0.000000 0.000000
 14 -3.006533 7.804720 -11.355459 0.322270 -0.068315 1.276753
 15 10.384675 0.000008 0.000005 0.091159 0.180901 -1.325693
 16 22.550743 -0.000006 -0.000004 0.114134 0.013995 1.427349
 17 30.814247 -0.000015 -0.000004 2.385469 0.586648 0.280835
 18 -3.013796 7.815494 11.355459 0.053470 -0.324309 1.563251
 19 10.374533 -0.000002 0.000007 -0.131681 -0.161568 -1.069522
 20 22.550726 -0.000027 -0.000013 -0.108667 -0.012898 1.150244
 21 30.814270 -0.000023 0.000002 -2.949704 0.467326 0.436296
 22 -4.250660 -0.770624 0.000001 0.000000 -0.000000 -2.983957
 23 10.363422 0.000000 0.000000 -0.000000 -0.020142 0.008171
 24 10.363076 0.000000 -0.000000 0.000000 0.040277 -0.000000
 25 10.363081 -0.000004 -0.000002 -0.001930 -0.020043 0.096012
 26 8.210358 -0.000006 -7.703991 0.000000 0.000000 -0.000000
 27 8.210346 -0.000002 7.704017 0.000000 0.000000 -0.000000
 28 1.854841 1.227791 -13.762345 2.512701 0.133729 1.852293
 29 10.456543 -0.000004 0.000004 0.018836 0.092014 -1.705745
 30 24.248093 0.000001 0.000007 0.037213 0.036930 1.254709
 31 26.336971 0.000019 0.000002 0.268676 0.104884 0.379674
 32 1.854847 1.227798 13.762341 -2.736111 -0.076040 2.181946
 33 10.456542 -0.000008 0.000004 -0.068932 -0.086847 -1.175716
 34 24.248116 0.000002 -0.000004 -0.025056 -0.030298 0.886015
 35 26.336975 0.000000 0.000004 -0.420556 -0.084808 0.571861
time 32
  0 0.000000 0.000000 0.000000 0.000000 -0.000000 -1.570796
  1 0.000000 0.000000 0.000000 0.000000 -0.000000 0.000000
  2 1.707083 -16.307463 34.738834 -1.509733 -0.311182 1.420673
  3 4.222169 -0.467508 0.000000 0.014410 0.125519 -0.079523
  4 4.476987 -0.000002 -0.000000 0.062558 0.116761 0.109446
  5 4.477083 0.000000 0.000002 0.042487 -0.057810 0.031296
  6 4.477077 -0.000004 -0.000002 -0.012625 -0.126056 -0.037657
  7 5.413502 -7.700466 -0.000000 0.099607 0.122693 -0.338007
  8 6.890240 0.000002 -0.000000 -0.000995 0.166824 -0.409227
  9 8.011925 0.000004 0.000005 0.022736 -0.002173 -0.137388
 10 7.210720 -0.000002 -0.000000 0.000769 -0.038788 0.102764
 11 8.581028 -0.304903 -0.000000 0.027009 -0.165636 0.706165
 12 22.523008 2.194031 6.355708 0.000000 -0.000000 0.000000
 13 22.523005 2.194038 -6.355709 0.000000 -0.000000 0.000000
 14 -3.006533 7.804720 -11.355459 0.337408 -0.025389 1.274967
 15 10.384675 0.000008 0.000005 0.073455 0.186248 -1.431495
 16 22.550743 -0.000006 -0.000004 0.116469 0.014225 1.532555
 17 30.814247 -0.000015 -0.000004 2.421549 0.498467 0.313818
 18 -3.013796 7.815494 11.355459 0.061056 -0.327522 1.533326
 19 10.374533 -0.000002 0.000007 -0.099863 -0.178213 -1.273804
 20 22.550726 -0.000027 -0.000013 -0.112957 -0.013703 1.372213
 21 30.814270 -0.000023 0.000002 -2.920377 0.408458 0.410636
 22 -4.250660 -0.770624 0.000001 0.000000 -0.000000 -2.983957
 23 10.363422 0.000000 0.000000 -0.000000 -0.020142 0.008171
 24 10.363076 0.000000 -0.000000 0.000000 0.040277 -0.000000
 25 10.363081 -0.000004 -0.000002 -0.001930 -0.020043 0.096012
 26 8.210358 -0.000006 -7.703991 0.000000 0.000000 -0.000000
 27 8.210346 -0.000002 7.704017 0.000000 0.000000 -0.000000
 28 1.854841 1.227791 -13.762345 2.538382 0.145645 1.907944
 29 10.456543 -0.000004 0.000004 0.025876 0.092815 -1.631498
 30 24.248093 0.000001 0.000007 0.035137 0.036223 1.197935
 31 26.336971 0.000019 0.000002 0.301957 0.097394 0.442135
 32 1.854847 1.227798 13.762341 -2.721390 -0.076094 2.128009
 33 10.456542 -0.000008 0.000004 -0.060420 -0.089853 -1.271129
 34 24.248116 0.000002 -0.000004 -0.027077 -0.031952 0.956234
 35 26.336975 0.000000 0.000004 -0.387879 -0.068863 0.568696
time 33
  0 0.000000 0.000000 0.000000 0.000000 -0.000000 -1.570796
  1 0.000000 0.000000 0.000000 0.000000 -0.000000 0.000000
  2 0.179693 -15.053518 33.633331 -1.532835 -0.286211 1.477329
  3 4.222169 -0.467508 0.000000 0.010276 0.087739 -0.047337
  4 4.476987 -0.000002 -0.000000 0.046283 0.075917 0.137570
  5 4.477083 0.000000 0.000002 0.025601 -0.035728 -0.001267
  6 4.477077 -0.000004 -0.000002 -0.009509 -0.094560 -0.075048
  7 5.413502 -7.700466 -0.000000 0.067135 0.082288 -0.305834
  8 6.890240 0.000002 -0.000000 -0.000731 0.110323 -0.383209
  9 8.011925 0.000004 0.000005 0.010831 -0.011407 -0.046021
 10 7.210720 -0.000002 -0.000000 0.000741 -0.022563 0.117728
 11 8.581028 -0.304903 -0.000000 0.013782 -0.105765 0.682787
 12 22.523008 2.194031 6.355708 0.000000 -0.000000 0.000000
 13 22.523005 2.194038 -6.355709 0.000000 -0.000000 0.000000
 14 -3.006533 7.804720 -11.355459 0.360686 0.028525 1.280530
 15 10.384675 0.000008 0.000005 0.056385 0.189345 -1.530577
 16 22.550743 -0.000006 -0.000004 0.118516 0.014282 1.622265
 17 30.814247 -0.000015 -0.000004 2.445922 0.411727 0.343506
 18 -3.013796 7.815494 11.355459 0.075974 -0.322889 1.495079
 19 10.374533 -0.000002 0.000007 -0.066495 -0.187881 -1.471592
 20 22.550726 -0.000027 -0.000013 -0.117267 -0.014036 1.564218
 21 30.814270 -0.000023 0.000002 -2.898031 0.343962 0.399284
 22 -4.250660 -0.770624 0.000001 0.000000 -0.000000 -2.983957
 23 10.363422 0.000000 0.000000 -0.000000 -0.020142 0.008171
 24 10.363076 0.000000 -0.000000 0.000000 0.040277 -0.000000
 25 10.363081 -0.000004 -0.000002 -0.001930 -0.020043 0.096012
 26 8.210358 -0.000006 -7.703991 0.000000 0.000000 -0.000000
 27 8.210346 -0.000002 7.704017 0.000000 0.000000 -0.000000
 28 1.854841 1.227791 -13.762345 2.562523 0.154922 1.959215
 29 10.456543 -0.000004 0.000004 0.033196 0.093188 -1.554863
 30 24.248093 0.000001 0.000007 0.033135 0.035376 1.140747
 31 26.336971 0.000019 0.000002 0.334541 0.087803 0.504043
 32 1.854847 1.227798 13.762341 -2.707007 -0.075684 2.076225
 33 10.456542 -0.000008 0.000004 -0.052450 -0.091857 -1.356455
 34 24.248116 0.000002 -0.000004 -0.028968 -0.033234 1.016654
 35 26.336975 0.000000 0.000004 -0.357132 -0.053756 0.569375
time 34
  0 0.000000 0.000000 0.000000 0.000000 -0.000000 -1.570796
  1 0.000000 0.000000 0.000000 0.000000 -0.000000 0.000000
  2 -1.117222 -13.983173 32.691895 -1.551720 -0.264471 1.525069
  3 4.222169 -0.467508 0.000000 0.005254 0.048476 -0.015643
  4 4.476987 -0.000002 -0.000000 0.031554 0.036701 0.164607
  5 4.477083 0.000000 0.000002 0.010045 -0.009624 -0.033489
  6 4.477077 -0.000004 -0.000002 -0.007603 -0.063891 -0.108654
  7 5.413502 -7.700466 -0.000000 0.038492 0.047150 -0.276803
  8 6.890240 0.000002 -0.000000 0.000515 0.069414 -0.364197
  9 8.011925 0.000004 0.000005 0.003222 -0.017685 0.020064
 10 7.210720 -0.000002 -0.000000 0.000467 -0.014742 0.122394
 11 8.581028 -0.304903 -0.000000 0.010705 -0.060200 0.671396
 12 22.523008 2.194031 6.355708 0.000000 -0.000000 0.000000
 13 22.523005 2.194038 -6.355709 0.000000 -0.000000 0.000000
 14 -3.006533 7.804720 -11.355459 0.386351 0.081909 1.290556
 15 10.384675 0.000008 0.000005 0.040586 0.190936 -1.620052
 16 22.550743 -0.000006 -0.000004 0.120003 0.014225 1.690304
 17 30.814247 -0.000015 -0.000004 2.460598 0.327433 0.371546
 18 -3.013796 7.815494 11.355459 0.093284 -0.314668 1.454096
 19 10.374533 -0.000002 0.000007 -0.041486 -0.190937 -1.619571
 20 22.550726 -0.000027 -0.000013 -0.120147 -0.014115 1.690712
 21 30.814270 -0.000023 0.000002 -2.882140 0.281375 0.395519
 22 -4.250660 -0.770624 0.000001 0.000000 -0.000000 -2.983957
 23 10.363422 0.000000 0.000000 -0.000000 -0.020142 0.008171
 24 10.363076 0.000000 -0.000000 0.000000 0.040277 -0.000000
 25 10.363081 -0.000004 -0.000002 -0.001930 -0.020043 0.096012
 26 8.210358 -0.000006 -7.703991 0.000000 0.000000 -0.000000
 27 8.210346 -0.000002 7.704017 0.000000 0.000000 -0.000000
 28 1.854841 1.227791 -13.762345 2.583631 0.161263 2.003493
 29 10.456543 -0.000004 0.000004 0.040901 0.093064 -1.475710
 30 24.248093 0.000001 0.000007 0.031504 0.034528 1.089479
 31 26.336971 0.000019 0.000002 0.365951 0.076319 0.564516
 32 1.854847 1.227798 13.762341 -2.696440 -0.079241 2.054986
 33 10.456542 -0.000008 0.000004 -0.046041 -0.092803 -1.422389
 34 24.248116 0.000002 -0.000004 -0.030562 -0.034157 1.063009
 35 26.336975 0.000000 0.000004 -0.331145 -0.040820 0.572426
time 35
  0 0.000000 0.000000 0.000000 0.000000 -0.000000 -1.570796
  1 0.000000 0.000000 0.000000 0.000000 -0.000000 0.000000
  2 -2.015687 -13.244869 32.039536 -1.564853 -0.249593 1.557855
  3 4.222169 -0.467508 0.000000 0.000544 0.016554 0.009413
  4 4.476987 -0.000002 -0.000000 0.020492 0.005217 0.186271
  5 4.477083 0.000000 0.000002 -0.001077 0.013201 -0.058019
  6 4.477077 -0.000004 -0.000002 -0.006681 -0.037187 -0.135409
  7 5.413502 -7.700466 -0.000000 0.018395 0.022717 -0.256080
  8 6.890240 0.000002 -0.000000 0.001139 0.029956 -0.345929
  9 8.011925 0.000004 0.000005 -0.004374 -0.023260 0.083840
 10 7.210720 -0.000002 -0.000000 0.000220 -0.007362 0.126524
 11 8.581028 -0.304903 -0.000000 0.007743 -0.016154 0.660741
 12 22.523008 2.194031 6.355708 0.000000 -0.000000 0.000000
 13 22.523005 2.194038 -6.355709 0.000000 -0.000000 0.000000
 14 -3.006533 7.804720 -11.355459 0.407458 0.122574 1.300651
 15 10.384675 0.000008 0.000005 0.035805 0.191106 -1.649987
 16 22.550743 -0.000006 -0.000004 0.120835 0.014053 1.732919
 17 30.814247 -0.000015 -0.000004 2.466757 0.248718 0.398513
 18 -3.013796 7.815494 11.355459 0.111358 -0.303944 1.412144
 19 10.374533 -0.000002 0.000007 -0.024903 -0.191103 -1.711362
 20 22.550726 -0.000027 -0.000013 -0.122088 -0.013801 1.778742
 21 30.814270 -0.000023 0.000002 -2.873124 0.229578 0.396607
 22 -4.250660 -0.770624 0.000001 0.000000 -0.000000 -2.983957
 23 10.363422 0.000000 0.000000 -0.000000 -0.020142 0.008171
 24 10.363076 0.000000 -0.000000 0.000000 0.040277 -0.000000
 25 10.363081 -0.000004 -0.000002 -0.001930 -0.020043 0.096012
 26 8.210358 -0.000006 -7.703991 0.000000 0.000000 -0.000000
 27 8.210346 -0.000002 7.704017 0.000000 0.000000 -0.000000
 28 1.854841 1.227791 -13.762345 2.600429 0.164717 2.038647
 29 10.456543 -0.000004 0.000004 0.048762 0.092388 -1.396209
 30 24.248093 0.000001 0.000007 0.030540 0.033883 1.051709
 31 26.336971 0.000019 0.000002 0.376391 0.073087 0.591024
 32 1.854847 1.227798 13.762341 -2.686209 -0.082880 2.035772
 33 10.456542 -0.000008 0.000004 -0.041767 -0.093081 -1.465308
 34 24.248116 0.000002 -0.000004 -0.031767 -0.034744 1.096976
 35 26.336975 0.000000 0.000004 -0.313392 -0.031637 0.576213
time 36
  0 0.000000 0.000000 0.000000 0.000000 -0.000000 -1.570796
  1 0.000000 0.000000 0.000000 0.000000 -0.000000 0.000000
  2 -2.363353 -12.959703 31.785618 -1.570988 -0.244686 1.570988
  3 4.222169 -0.467508 0.000000 -0.002069 0.000018 0.022093
  4 4.476987 -0.000002 -0.000000 0.015327 -0.013331 0.198502
  5 4.477083 0.000000 0.000002 -0.004349 0.026123 -0.067772
  6 4.477077 -0.000004 -0.000002 -0.006321 -0.017097 -0.152773
  7 5.413502 -7.700466 -0.000000 0.007297 0.008547 -0.244474
  8 6.890240 0.000002 -0.000000 0.001953 0.017148 -0.340157
  9 8.011925 0.000004 0.000005 -0.006810 -0.024538 0.104449
 10 7.210720 -0.000002 -0.000000 0.000000 0.000000 0.130654
 11 8.581028 -0.304903 -0.000000 0.007192 -0.002445 0.657761
 12 22.523008 2.194031 6.355708 0.000000 -0.000000 0.000000
 13 22.523005 2.194038 -6.355709 0.000000 -0.000000 0.000000
 14 -3.006533 7.804720 -11.355459 0.417062 0.139568 1.305664
 15 10.384675 0.000008 0.000005 0.030987 0.190809 -1.678201
 16 22.550743 -0.000006 -0.000004 0.121603 0.013421 1.761793
 17 30.814247 -0.000015 -0.000004 2.465533 0.223170 0.409113
 18 -3.013796 7.815494 11.355459 0.129381 -0.291650 1.369678
 19 10.374533 -0.000002 0.000007 -0.019780 -0.191668 -1.738151
 20 22.550726 -0.000027 -0.000013 -0.123048 -0.013506 1.830791
 21 30.814270 -0.000023 0.000002 -2.870282 0.196425 0.399675
 22 -4.250660 -0.770624 0.000001 0.000000 -0.000000 -2.983957
 23 10.363422 0.000000 0.000000 -0.000000 -0.020142 0.008171
 24 10.363076 0.000000 -0.000000 0.000000 0.040277 -0.000000
 25 10.363081 -0.000004 -0.000002 -0.001930 -0.020043 0.096012
 26 8.210358 -0.000006 -7.703991 0.000000 0.000000 -0.000000
 27 8.210346 -0.000002 7.704017 0.000000 0.000000 -0.000000
 28 1.854841 1.227791 -13.762345 2.614544 0.166567 2.068388
 29 10.456543 -0.000004 0.000004 0.051033 0.091640 -1.369420
 30 24.248093 0.000001 0.000007 0.029835 0.033116 1.029271
 31 26.336971 0.000019 0.000002 0.386223 0.069828 0.616594
 32 1.854847 1.227798 13.762341 -2.675642 -0.086465 2.016859
 33 10.456542 -0.000008 0.000004 -0.038783 -0.093415 -1.495575
 34 24.248116 0.000002 -0.000004 -0.032583 -0.035020 1.121144
 35 26.336975 0.000000 0.000004 -0.307002 -0.027418 0.579152
end
