version 1
nodes
  0 "Chaurus" -1
  1 "NPC Root [Root]" 0
  2 "Pelvis [Pelv]" 1
  3 "Spine[Spn0]" 2
  4 "Spine[Spn1]" 3
  5 "Spine[Spn2]" 4
  6 "Ribcage[Spn3]" 5
  7 "[Neck0]" 6
  8 "[Neck1]" 7
  9 "[Neck2]" 8
 10 "[Neck3]" 9
 11 "NPC Head [Head]" 10
 12 "Head[LeftPincher]" 11
 13 "Head[RightPincher]" 11
 14 "R UpperArm[RClv]" 6
 15 "R UpperArm[RUar]" 14
 16 "R UpperArm[RLar]" 15
 17 "R UpperArm[RHnd]" 16
 18 "L UpperArm[RClv]" 6
 19 "L UpperArm[LUar]" 18
 20 "L UpperArm[LLar]" 19
 21 "L UpperArm[LHnd]" 20
 22 "Tail[Tal0]" 2
 23 "Tail[Tal1]" 22
 24 "Tail[Tal2]" 23
 25 "Tail[Tal3]" 24
 26 "[TalRightPincher]" 25
 27 "[TalLeftPincher]" 25
 28 "R Leg[RThg0]" 2
 29 "R Leg[RThg1]" 28
 30 "R Leg[RClf]" 29
 31 "R Leg[RAnkle]" 30
 32 "LLeg[RThg0]" 2
 33 "LLeg[LThg1]" 32
 34 "LLeg[LClf]" 33
 35 "LLeg[LAnkle]" 34
end
skeleton
time 0
  0 0.000000 0.000000 0.000000 0.000000 -0.000000 -1.570796
  1 0.000000 0.000000 0.000000 0.000000 -0.000000 0.000000
  2 -2.363353 -12.959703 31.785618 -1.570988 -0.244686 1.570988
  3 4.222169 -0.467508 0.000000 -0.002069 0.000018 0.022093
  4 4.476987 -0.000002 -0.000000 0.015327 -0.013331 0.198502
  5 4.477083 0.000000 0.000002 -0.004349 0.026123 -0.067772
  6 4.477077 -0.000004 -0.000002 -0.006321 -0.017097 -0.152773
  7 5.413502 -7.700466 -0.000000 0.007297 0.008547 -0.244474
  8 6.890240 0.000002 -0.000000 0.001953 0.017148 -0.340157
  9 8.011925 0.000004 0.000005 -0.006810 -0.024538 0.104449
 10 7.210720 -0.000002 -0.000000 0.000000 0.000000 0.130654
 11 8.581028 -0.304903 -0.000000 0.007192 -0.002445 0.657761
 12 22.523008 2.194031 6.355708 0.000000 -0.190247 0.000000
 13 22.523005 2.194038 -6.355709 0.000000 0.168185 0.000000
 14 -3.006533 7.804720 -11.355459 0.417062 0.139568 1.305664
 15 10.384675 0.000008 0.000005 0.030987 0.190809 -1.678201
 16 22.550743 -0.000006 -0.000004 0.121603 0.013421 1.761793
 17 30.814247 -0.000015 -0.000004 2.465533 0.223170 0.409113
 18 -3.013796 7.815494 11.355459 0.129381 -0.291650 1.369678
 19 10.374533 -0.000002 0.000007 -0.019780 -0.191668 -1.738151
 20 22.550726 -0.000027 -0.000013 -0.123048 -0.013506 1.830791
 21 30.814270 -0.000023 0.000002 -2.870282 0.196425 0.399675
 22 -4.250660 -0.770624 0.000001 0.016515 -0.162675 -2.777702
 23 10.363422 0.000000 0.000000 0.002661 0.066003 -0.470131
 24 10.363076 0.000000 -0.000000 -0.026810 0.095059 -0.325023
 25 10.363081 -0.000004 -0.000002 -0.034384 0.127470 0.014423
 26 8.210358 -0.000006 -7.703991 0.000000 0.000000 -0.000000
 27 8.210346 -0.000002 7.704017 0.000000 0.000000 -0.000000
 28 1.854841 1.227791 -13.762345 2.614544 0.166567 2.068388
 29 10.456543 -0.000004 0.000004 0.051033 0.091640 -1.369420
 30 24.248093 0.000001 0.000007 0.029835 0.033116 1.029271
 31 26.336971 0.000019 0.000002 0.386223 0.069828 0.616594
 32 1.854847 1.227798 13.762341 -2.675642 -0.086465 2.016859
 33 10.456542 -0.000008 0.000004 -0.038783 -0.093415 -1.495575
 34 24.248116 0.000002 -0.000004 -0.032583 -0.035020 1.121144
 35 26.336975 0.000000 0.000004 -0.307002 -0.027418 0.579152
time 1
  0 0.000000 0.000000 0.000000 0.000000 -0.000000 -1.570796
  1 0.000000 0.000000 0.000000 0.000000 -0.000000 0.000000
  2 -2.363353 -12.959703 31.785618 -1.570988 -0.244686 1.570988
  3 4.222169 -0.467508 0.000000 -0.002069 0.000018 0.022093
  4 4.476987 -0.000002 -0.000000 0.015327 -0.013331 0.198502
  5 4.477083 0.000000 0.000002 -0.004349 0.026123 -0.067772
  6 4.477077 -0.000004 -0.000002 -0.006321 -0.017097 -0.152773
  7 5.413502 -7.700466 -0.000000 0.007297 0.008547 -0.244474
  8 6.890240 0.000002 -0.000000 0.001953 0.017148 -0.340157
  9 8.011925 0.000004 0.000005 -0.006810 -0.024538 0.104449
 10 7.210720 -0.000002 -0.000000 0.000000 0.000000 0.130654
 11 8.581028 -0.304903 -0.000000 0.007192 -0.002445 0.657761
 12 22.523008 2.194031 6.355708 0.000000 -0.190247 0.000000
 13 22.523005 2.194038 -6.355709 0.000000 0.168185 0.000000
 14 -3.006533 7.804720 -11.355459 0.417062 0.139568 1.305664
 15 10.384675 0.000008 0.000005 0.030987 0.190809 -1.678201
 16 22.550743 -0.000006 -0.000004 0.121603 0.013421 1.761793
 17 30.814247 -0.000015 -0.000004 2.465533 0.223170 0.409113
 18 -3.013796 7.815494 11.355459 0.129381 -0.291650 1.369678
 19 10.374533 -0.000002 0.000007 -0.019780 -0.191668 -1.738151
 20 22.550726 -0.000027 -0.000013 -0.123048 -0.013506 1.830791
 21 30.814270 -0.000023 0.000002 -2.870282 0.196425 0.399675
 22 -4.250660 -0.770624 0.000001 0.016515 -0.162675 -2.777702
 23 10.363422 0.000000 0.000000 0.002661 0.066003 -0.470131
 24 10.363076 0.000000 -0.000000 -0.026810 0.095059 -0.325023
 25 10.363081 -0.000004 -0.000002 -0.034384 0.127470 0.014423
 26 8.210358 -0.000006 -7.703991 0.000000 0.000000 -0.000000
 27 8.210346 -0.000002 7.704017 0.000000 0.000000 -0.000000
 28 1.854841 1.227791 -13.762345 2.614544 0.166567 2.068388
 29 10.456543 -0.000004 0.000004 0.051033 0.091640 -1.369420
 30 24.248093 0.000001 0.000007 0.029835 0.033116 1.029271
 31 26.336971 0.000019 0.000002 0.386223 0.069828 0.616594
 32 1.854847 1.227798 13.762341 -2.675642 -0.086465 2.016859
 33 10.456542 -0.000008 0.000004 -0.038783 -0.093415 -1.495575
 34 24.248116 0.000002 -0.000004 -0.032583 -0.035020 1.121144
 35 26.336975 0.000000 0.000004 -0.307002 -0.027418 0.579152
time 2
  0 0.000000 0.000000 0.000000 0.000000 -0.000000 -1.570796
  1 0.000000 0.000000 0.000000 0.000000 -0.000000 0.000000
  2 -2.457106 -13.026112 32.129379 -1.585751 -0.265030 1.572139
  3 4.222169 -0.467508 0.000000 0.001898 -0.004579 0.022645
  4 4.476987 -0.000002 -0.000000 0.032237 -0.010140 0.197370
  5 4.477083 0.000000 0.000002 0.009242 0.027513 -0.068053
  6 4.477077 -0.000004 -0.000002 -0.001755 -0.018563 -0.152399
  7 5.413502 -7.700466 -0.000000 0.007217 -0.009362 -0.207634
  8 6.890240 0.000002 -0.000000 0.007251 0.010495 -0.305855
  9 8.011925 0.000004 0.000005 -0.005540 -0.016631 0.088668
 10 7.210720 -0.000002 -0.000000 0.000000 0.002225 0.104936
 11 8.581028 -0.304903 -0.000000 0.007077 0.010717 0.683208
 12 22.523008 2.194031 6.355708 0.000000 -0.190247 0.000000
 13 22.523005 2.194038 -6.355709 0.000000 0.168185 0.000000
 14 -3.006533 7.804720 -11.355459 0.434371 0.139851 1.326678
 15 10.384675 0.000008 0.000005 0.028484 0.190639 -1.647599
 16 22.550743 -0.000006 -0.000004 0.120627 0.013651 1.732132
 17 30.814247 -0.000015 -0.000004 2.446271 0.237433 0.394681
 18 -3.013796 7.815494 11.355459 0.130654 -0.278870 1.389457
 19 10.374533 -0.000002 0.000007 -0.024431 -0.191336 -1.713333
 20 22.550726 -0.000027 -0.000013 -0.122803 -0.013448 1.815158
 21 30.814270 -0.000023 0.000002 -2.879158 0.198113 0.384781
 22 -4.250660 -0.770624 0.000001 0.001858 -0.195139 -2.777830
 23 10.363422 0.000000 0.000000 -0.004302 0.040620 -0.437452
 24 10.363076 0.000000 -0.000000 -0.038542 0.121437 -0.330753
 25 10.363081 -0.000004 -0.000002 -0.054046 0.140441 -0.013552
 26 8.210358 -0.000006 -7.703991 0.000000 0.000000 -0.000000
 27 8.210346 -0.000002 7.704017 0.000000 0.000000 -0.000000
 28 1.854841 1.227791 -13.762345 2.623690 0.160967 2.076720
 29 10.456543 -0.000004 0.000004 0.053619 0.091142 -1.342586
 30 24.248093 0.000001 0.000007 0.029168 0.032753 1.010800
 31 26.336971 0.000019 0.000002 0.373346 0.085779 0.604113
 32 1.854847 1.227798 13.762341 -2.676755 -0.097300 2.039046
 33 10.456542 -0.000008 0.000004 -0.040173 -0.093165 -1.480914
 34 24.248116 0.000002 -0.000004 -0.032337 -0.035080 1.110583
 35 26.336975 0.000000 0.000004 -0.312963 -0.024968 0.573670
time 3
  0 0.000000 0.000000 0.000000 0.000000 -0.000000 -1.570796
  1 0.000000 0.000000 0.000000 0.000000 -0.000000 0.000000
  2 -2.355541 -13.221432 32.957531 -1.605019 -0.292634 1.574056
  3 4.222169 -0.467508 0.000000 0.005841 -0.009177 0.023182
  4 4.476987 -0.000002 -0.000000 0.049052 -0.006927 0.196304
  5 4.477083 0.000000 0.000002 0.022748 0.028870 -0.068320
  6 4.477077 -0.000004 -0.000002 0.002775 -0.020010 -0.152025
  7 5.413502 -7.700466 -0.000000 0.006526 -0.027492 -0.169580
  8 6.890240 0.000002 -0.000000 0.014046 0.002078 -0.263874
  9 8.011925 0.000004 0.000005 -0.001598 0.013531 0.044567
 10 7.210720 -0.000002 -0.000000 -0.000192 0.007468 0.068733
 11 8.581028 -0.304903 -0.000000 0.007238 0.024051 0.709986
 12 22.523008 2.194031 6.355708 0.000000 -0.190247 0.000000
 13 22.523005 2.194038 -6.355709 0.000000 0.168185 0.000000
 14 -3.006533 7.804720 -11.355459 0.451679 0.139780 1.347486
 15 10.384675 0.000008 0.000005 0.025944 0.190533 -1.617275
 16 22.550743 -0.000006 -0.000004 0.119668 0.013852 1.702774
 17 30.814247 -0.000015 -0.000004 2.426790 0.251289 0.379962
 18 -3.013796 7.815494 11.355459 0.132181 -0.252937 1.429643
 19 10.374533 -0.000002 0.000007 -0.029217 -0.190904 -1.687181
 20 22.550726 -0.000027 -0.000013 -0.121414 -0.013879 1.758456
 21 30.814270 -0.000023 0.000002 -2.887998 0.199655 0.369942
 22 -4.250660 -0.770624 0.000001 -0.019391 -0.245096 -2.778086
 23 10.363422 0.000000 0.000000 -0.012955 -0.005677 -0.379818
 24 10.363076 0.000000 -0.000000 -0.053188 0.154586 -0.338470
 25 10.363081 -0.000004 -0.000002 -0.101865 0.172209 -0.086711
 26 8.210358 -0.000006 -7.703991 0.000000 0.000000 -0.000000
 27 8.210346 -0.000002 7.704017 0.000000 0.000000 -0.000000
 28 1.854841 1.227791 -13.762345 2.633848 0.153343 2.081404
 29 10.456543 -0.000004 0.000004 0.056152 0.090590 -1.315840
 30 24.248093 0.000001 0.000007 0.028686 0.032491 0.996355
 31 26.336971 0.000019 0.000002 0.358990 0.102308 0.589257
 32 1.854847 1.227798 13.762341 -2.673919 -0.109832 2.058605
 33 10.456542 -0.000008 0.000004 -0.041360 -0.092970 -1.468106
 34 24.248116 0.000002 -0.000004 -0.032026 -0.034984 1.101647
 35 26.336975 0.000000 0.000004 -0.323426 -0.023168 0.563553
time 4
  0 0.000000 0.000000 0.000000 0.000000 -0.000000 -1.570796
  1 0.000000 0.000000 0.000000 0.000000 -0.000000 0.000000
  2 -2.058657 -13.725353 34.055222 -1.627355 -0.324705 1.577795
  3 4.222169 -0.467508 0.000000 0.009796 -0.013811 0.023688
  4 4.476987 -0.000002 -0.000000 0.065950 -0.003672 0.195283
  5 4.477083 0.000000 0.000002 0.036699 0.030937 -0.068661
  6 4.477077 -0.000004 -0.000002 0.007329 -0.021476 -0.151667
  7 5.413502 -7.700466 -0.000000 0.005888 -0.055595 -0.087343
  8 6.890240 0.000002 -0.000000 0.021285 -0.006770 -0.220636
  9 8.011925 0.000004 0.000005 0.001035 0.044396 -0.000130
 10 7.210720 -0.000002 -0.000000 -0.000741 0.015077 0.028131
 11 8.581028 -0.304903 -0.000000 0.005424 0.044981 0.782469
 12 22.523008 2.194031 6.355708 0.000000 -0.190247 0.000000
 13 22.523005 2.194038 -6.355709 0.000000 0.168185 0.000000
 14 -3.006533 7.804720 -11.355459 0.468229 0.140204 1.368569
 15 10.384675 0.000008 0.000005 0.024749 0.190491 -1.584395
 16 22.550743 -0.000006 -0.000004 0.118660 0.014024 1.670994
 17 30.814247 -0.000015 -0.000004 2.407440 0.265897 0.365494
 18 -3.013796 7.815494 11.355459 0.134778 -0.226780 1.470170
 19 10.374533 -0.000002 0.000007 -0.042228 -0.190804 -1.612729
 20 22.550726 -0.000027 -0.000013 -0.119923 -0.014233 1.698466
 21 30.814270 -0.000023 0.000002 -2.897329 0.201588 0.355913
 22 -4.250660 -0.770624 0.000001 -0.042102 -0.297668 -2.777267
 23 10.363422 0.000000 0.000000 -0.025323 -0.063215 -0.307770
 24 10.363076 0.000000 -0.000000 -0.068336 0.188263 -0.346807
 25 10.363081 -0.000004 -0.000002 -0.154831 0.215191 -0.189992
 26 8.210358 -0.000006 -7.703991 0.000000 0.000000 -0.000000
 27 8.210346 -0.000002 7.704017 0.000000 0.000000 -0.000000
 28 1.854841 1.227791 -13.762345 2.645017 0.143228 2.082316
 29 10.456543 -0.000004 0.000004 0.058510 0.090003 -1.290961
 30 24.248093 0.000001 0.000007 0.028390 0.032329 0.987297
 31 26.336971 0.000019 0.000002 0.340153 0.121387 0.565013
 32 1.854847 1.227798 13.762341 -2.667133 -0.124252 2.075837
 33 10.456542 -0.000008 0.000004 -0.042208 -0.092858 -1.458884
 34 24.248116 0.000002 -0.000004 -0.031754 -0.034828 1.095148
 35 26.336975 0.000000 0.000004 -0.337792 -0.021928 0.549594
time 5
  0 0.000000 0.000000 0.000000 0.000000 -0.000000 -1.570796
  1 0.000000 0.000000 0.000000 0.000000 -0.000000 0.000000
  2 -1.550829 -14.733196 35.180252 -1.650458 -0.357335 1.582300
  3 4.222169 -0.467508 0.000000 0.013667 -0.018835 0.024179
  4 4.476987 -0.000002 -0.000000 0.082728 -0.000909 0.194373
  5 4.477083 0.000000 0.000002 0.057516 0.046186 -0.070588
  6 4.477077 -0.000004 -0.000002 0.011836 -0.022547 -0.151387
  7 5.413502 -7.700466 -0.000000 0.003004 -0.083053 -0.006661
  8 6.890240 0.000002 -0.000000 0.028775 -0.015083 -0.178235
  9 8.011925 0.000004 0.000005 0.002357 0.075021 -0.044697
 10 7.210720 -0.000002 -0.000000 -0.001729 0.024558 -0.009306
 11 8.581028 -0.304903 -0.000000 0.004987 0.065741 0.858142
 12 22.523008 2.194031 6.355708 0.000000 -0.190247 0.000000
 13 22.523005 2.194038 -6.355709 0.000000 0.168185 0.000000
 14 -3.006533 7.804720 -11.355459 0.470236 0.155749 1.390957
 15 10.384675 0.000008 0.000005 0.048355 0.189112 -1.508195
 16 22.550743 -0.000006 -0.000004 0.117109 0.014196 1.597688
 17 30.814247 -0.000015 -0.000004 2.396520 0.297370 0.362665
 18 -3.013796 7.815494 11.355459 0.138596 -0.200586 1.510355
 19 10.374533 -0.000002 0.000007 -0.060698 -0.188778 -1.505514
 20 22.550726 -0.000027 -0.000013 -0.117676 -0.014252 1.595298
 21 30.814270 -0.000023 0.000002 -2.914238 0.212353 0.358172
 22 -4.250660 -0.770624 0.000001 -0.063734 -0.347046 -2.775064
 23 10.363422 0.000000 0.000000 -0.041311 -0.118607 -0.236911
 24 10.363076 0.000000 -0.000000 -0.083904 0.222179 -0.355737
 25 10.363081 -0.000004 -0.000002 -0.212807 0.252982 -0.297328
 26 8.210358 -0.000006 -7.703991 0.000000 0.000000 -0.000000
 27 8.210346 -0.000002 7.704017 0.000000 0.000000 -0.000000
 28 1.854841 1.227791 -13.762345 2.658430 0.127067 2.074227
 29 10.456543 -0.000004 0.000004 0.057113 0.090501 -1.303031
 30 24.248093 0.000001 0.000007 0.028315 0.032329 0.984870
 31 26.336971 0.000019 0.000002 0.315008 0.143513 0.527404
 32 1.854847 1.227798 13.762341 -2.656700 -0.140313 2.090528
 33 10.456542 -0.000008 0.000004 -0.042547 -0.092831 -1.455258
 34 24.248116 0.000002 -0.000004 -0.031611 -0.034732 1.092051
 35 26.336975 0.000000 0.000004 -0.354945 -0.021059 0.532752
time 6
  0 0.000000 0.000000 0.000000 0.000000 -0.000000 -1.570796
  1 0.000000 0.000000 0.000000 0.000000 -0.000000 0.000000
  2 -0.699240 -16.186365 36.160751 -1.674711 -0.390922 1.587765
  3 4.222169 -0.467508 0.000000 0.018641 -0.017370 0.024946
  4 4.476987 -0.000002 -0.000000 0.100154 0.009372 0.193197
  5 4.477083 0.000000 0.000002 0.078717 0.058221 -0.072559
  6 4.477077 -0.000004 -0.000002 0.016665 -0.029519 -0.150234
  7 5.413502 -7.700466 -0.000000 -0.000984 -0.089170 0.018635
  8 6.890240 0.000002 -0.000000 0.036038 -0.005555 -0.154499
  9 8.011925 0.000004 0.000005 0.001192 0.108362 -0.088097
 10 7.210720 -0.000002 -0.000000 -0.002882 0.038717 -0.026093
 11 8.581028 -0.304903 -0.000000 0.000877 0.068096 0.970687
 12 22.523008 2.194031 6.355708 0.000000 -0.190247 0.000000
 13 22.523005 2.194038 -6.355709 0.000000 0.168185 0.000000
 14 -3.006533 7.804720 -11.355459 0.466329 0.171259 1.413344
 15 10.384675 0.000008 0.000005 0.076891 0.185441 -1.433272
 16 22.550743 -0.000006 -0.000004 0.115637 0.012503 1.527712
 17 30.814247 -0.000015 -0.000004 2.390362 0.334925 0.359908
 18 -3.013796 7.815494 11.355459 0.140378 -0.178689 1.550711
 19 10.374533 -0.000002 0.000007 -0.080584 -0.184492 -1.388905
 20 22.550726 -0.000027 -0.000013 -0.115204 -0.014056 1.481522
 21 30.814270 -0.000023 0.000002 -2.929568 0.227156 0.364615
 22 -4.250660 -0.770624 0.000001 -0.082035 -0.388465 -2.771889
 23 10.363422 0.000000 0.000000 -0.059240 -0.168595 -0.171024
 24 10.363076 0.000000 -0.000000 -0.099628 0.254909 -0.364486
 25 10.363081 -0.000004 -0.000002 -0.271953 0.283579 -0.405737
 26 8.210358 -0.000006 -7.703991 0.000000 0.000000 -0.000000
 27 8.210346 -0.000002 7.704017 0.000000 0.000000 -0.000000
 28 1.854841 1.227791 -13.762345 2.677074 0.099953 2.049534
 29 10.456543 -0.000004 0.000004 0.054894 0.091142 -1.324220
 30 24.248093 0.000001 0.000007 0.028686 0.032612 0.996592
 31 26.336971 0.000019 0.000002 0.282815 0.165088 0.476375
 32 1.854847 1.227798 13.762341 -2.638907 -0.161163 2.101600
 33 10.456542 -0.000008 0.000004 -0.042378 -0.092886 -1.458174
 34 24.248116 0.000002 -0.000004 -0.031650 -0.034744 1.092864
 35 26.336975 0.000000 0.000004 -0.377759 -0.023882 0.513027
time 7
  0 0.000000 0.000000 0.000000 0.000000 -0.000000 -1.570796
  1 0.000000 0.000000 0.000000 0.000000 -0.000000 0.000000
  2 1.187536 -18.471592 37.063126 -1.700018 -0.425107 1.594475
  3 4.222169 -0.467508 0.000000 0.037756 0.069331 0.025406
  4 4.476987 -0.000002 -0.000000 0.124363 0.113913 0.184762
  5 4.477083 0.000000 0.000002 0.099929 0.016609 -0.071210
  6 4.477077 -0.000004 -0.000002 0.023533 -0.113709 -0.133228
  7 5.413502 -7.700466 -0.000000 -0.009503 -0.017467 -0.077479
  8 6.890240 0.000002 -0.000000 0.042809 0.053443 -0.161387
  9 8.011925 0.000004 0.000005 -0.012311 0.166129 -0.118128
 10 7.210720 -0.000002 -0.000000 -0.004118 0.062269 -0.000966
 11 8.581028 -0.304903 -0.000000 -0.034166 -0.014173 1.157398
 12 22.523008 2.194031 6.355708 0.000000 -0.190247 0.000000
 13 22.523005 2.194038 -6.355709 0.000000 0.168185 0.000000
 14 -3.006533 7.804720 -11.355459 0.399482 0.174369 1.425980
 15 10.384675 0.000008 0.000005 0.148045 0.175130 -1.393395
 16 22.550743 -0.000006 -0.000004 0.115397 -0.006093 1.516030
 17 30.814247 -0.000015 -0.000004 2.441422 0.437746 0.361161
 18 -3.013796 7.815494 11.355459 0.115380 -0.205220 1.598477
 19 10.374533 -0.000002 0.000007 -0.111188 -0.169974 -1.190016
 20 22.550726 -0.000027 -0.000013 -0.111323 -0.013133 1.280150
 21 30.814270 -0.000023 0.000002 -2.926060 0.289376 0.409967
 22 -4.250660 -0.770624 0.000001 -0.093612 -0.413146 -2.766051
 23 10.363422 0.000000 0.000000 -0.070014 -0.193871 -0.137883
 24 10.363076 0.000000 -0.000000 -0.109623 0.265959 -0.362551
 25 10.363081 -0.000004 -0.000002 -0.288956 0.293084 -0.491165
 26 8.210358 -0.000006 -7.703991 0.000000 0.000000 -0.000000
 27 8.210346 -0.000002 7.704017 0.000000 0.000000 -0.000000
 28 1.854841 1.227791 -13.762345 2.709131 0.053199 1.997228
 29 10.456543 -0.000004 0.000004 0.046316 0.092512 -1.416356
 30 24.248093 0.000001 0.000007 0.031059 0.034347 1.072192
 31 26.336971 0.000019 0.000002 0.228479 0.166533 0.382546
 32 1.854847 1.227798 13.762341 -2.584481 -0.210579 2.097679
 33 10.456542 -0.000008 0.000004 -0.041801 -0.092970 -1.465229
 34 24.248116 0.000002 -0.000004 -0.031805 -0.034864 1.096113
 35 26.336975 0.000000 0.000004 -0.432178 -0.058254 0.486691
time 8
  0 0.000000 0.000000 0.000000 0.000000 -0.000000 -1.570796
  1 0.000000 0.000000 0.000000 0.000000 -0.000000 0.000000
  2 4.000122 -21.471682 37.953773 -1.727147 -0.460609 1.602432
  3 4.222169 -0.467508 0.000000 0.073530 0.268353 0.013752
  4 4.476987 -0.000002 -0.000000 0.151867 0.330191 0.154729
  5 4.477083 0.000000 0.000002 0.123707 -0.097548 -0.045095
  6 4.477077 -0.000004 -0.000002 0.021303 -0.296973 -0.073117
  7 5.413502 -7.700466 -0.000000 -0.024470 0.128827 -0.284022
  8 6.890240 0.000002 -0.000000 0.049101 0.173934 -0.187567
  9 8.011925 0.000004 0.000005 -0.029009 0.226804 -0.148394
 10 7.210720 -0.000002 -0.000000 -0.007741 0.098815 0.080532
 11 8.581028 -0.304903 -0.000000 -0.106110 -0.183118 1.404570
 12 22.523008 2.194031 6.355708 0.000000 -0.221379 0.000000
 13 22.523005 2.194038 -6.355709 0.000000 0.195772 0.000000
 14 -3.006533 7.804720 -11.355459 0.283908 0.161614 1.404073
 15 10.384675 0.000008 0.000005 0.259278 0.148015 -1.329636
 16 22.550743 -0.000006 -0.000004 0.114806 -0.028650 1.501562
 17 30.814247 -0.000015 -0.000004 2.570888 0.627243 0.409435
 18 -3.013796 7.815494 11.355459 0.099648 -0.272705 1.672521
 19 10.374533 -0.000002 0.000007 -0.129995 -0.136352 -0.944100
 20 22.550726 -0.000027 -0.000013 -0.108667 -0.010365 1.019718
 21 30.814270 -0.000023 0.000002 -2.924903 0.423750 0.489038
 22 -4.250660 -0.770624 0.000001 -0.094834 -0.401913 -2.743697
 23 10.363422 0.000000 0.000000 -0.073082 -0.199431 -0.133922
 24 10.363076 0.000000 -0.000000 -0.109851 0.227812 -0.330417
 25 10.363081 -0.000004 -0.000002 -0.234525 0.254292 -0.561720
 26 8.210358 -0.000006 -7.703991 0.000000 0.000000 -0.000000
 27 8.210346 -0.000002 7.704017 0.000000 0.000000 -0.000000
 28 1.854841 1.227791 -13.762345 2.756051 -0.005619 1.925460
 29 10.456543 -0.000004 0.000004 0.034891 0.093384 -1.536063
 30 24.248093 0.000001 0.000007 0.033765 0.035759 1.154896
 31 26.336971 0.000019 0.000002 0.173577 0.160515 0.287336
 32 1.854847 1.227798 13.762341 -2.525699 -0.262375 2.089322
 33 10.456542 -0.000008 0.000004 -0.041123 -0.093109 -1.473190
 34 24.248116 0.000002 -0.000004 -0.031987 -0.034996 1.099921
 35 26.336975 0.000000 0.000004 -0.486768 -0.096193 0.462954
time 9
  0 0.000000 0.000000 0.000000 0.000000 -0.000000 -1.570796
  1 0.000000 0.000000 0.000000 0.000000 -0.000000 0.000000
  2 6.539262 -24.065512 38.633484 -1.751592 -0.491763 1.612018
  3 4.222169 -0.467508 0.000000 0.107890 0.473900 0.002543
  4 4.476987 -0.000002 -0.000000 0.172337 0.550346 0.120989
  5 4.477083 0.000000 0.000002 0.143673 -0.217907 -0.012561
  6 4.477077 -0.000004 -0.000002 -0.005782 -0.474825 0.029338
  7 5.413502 -7.700466 -0.000000 -0.041895 0.272538 -0.499152
  8 6.890240 0.000002 -0.000000 0.052588 0.291577 -0.212630
  9 8.011925 0.000004 0.000005 -0.047594 0.281904 -0.177180
 10 7.210720 -0.000002 -0.000000 -0.010569 0.134337 0.155487
 11 8.581028 -0.304903 -0.000000 -0.180673 -0.347538 1.623562
 12 22.523008 2.194031 6.355708 0.000000 -0.652864 0.000000
 13 22.523005 2.194038 -6.355709 0.000000 0.578211 0.000000
 14 -3.006533 7.804720 -11.355459 0.191884 0.166737 1.339658
 15 10.384675 0.000008 0.000005 0.367186 0.090731 -1.214225
 16 22.550743 -0.000006 -0.000004 0.112071 -0.064149 1.430255
 17 30.814247 -0.000015 -0.000004 2.755476 0.809782 0.556192
 18 -3.013796 7.815494 11.355459 0.076788 -0.337238 1.751239
 19 10.374533 -0.000002 0.000007 -0.140511 -0.122499 -0.833638
 20 22.550726 -0.000027 -0.000013 -0.105276 -0.009619 0.901165
 21 30.814270 -0.000023 0.000002 -2.899925 0.551224 0.569393
 22 -4.250660 -0.770624 0.000001 -0.095062 -0.386652 -2.719167
 23 10.363422 0.000000 0.000000 -0.077432 -0.207353 -0.129587
 24 10.363076 0.000000 -0.000000 -0.103199 0.113874 -0.236082
 25 10.363081 -0.000004 -0.000002 -0.107319 0.162734 -0.629724
 26 8.210358 -0.000006 -7.703991 0.000000 0.000000 -0.000000
 27 8.210346 -0.000002 7.704017 0.000000 0.000000 -0.000000
 28 1.854841 1.227791 -13.762345 2.804466 -0.056049 1.859896
 29 10.456543 -0.000004 0.000004 0.024409 0.093046 -1.645523
 30 24.248093 0.000001 0.000007 0.036138 0.036768 1.226766
 31 26.336971 0.000019 0.000002 0.125810 0.149794 0.204276
 32 1.854847 1.227798 13.762341 -2.476540 -0.304567 2.079758
 33 10.456542 -0.000008 0.000004 -0.040580 -0.093276 -1.479259
 34 24.248116 0.000002 -0.000004 -0.032129 -0.035104 1.102866
 35 26.336975 0.000000 0.000004 -0.534840 -0.131744 0.443568
time 10
  0 0.000000 0.000000 0.000000 0.000000 -0.000000 -1.570796
  1 0.000000 0.000000 0.000000 0.000000 -0.000000 0.000000
  2 7.789300 -25.315550 38.942085 -1.756001 -0.498385 1.623139
  3 4.222169 -0.467508 0.000000 0.131859 0.607131 0.000044
  4 4.476987 -0.000002 -0.000000 0.186479 0.686907 0.097903
  5 4.477083 0.000000 0.000002 0.158630 -0.305249 0.017275
  6 4.477077 -0.000004 -0.000002 -0.041256 -0.588914 0.118664
  7 5.413502 -7.700466 -0.000000 -0.047703 0.342423 -0.626289
  8 6.890240 0.000002 -0.000000 0.052552 0.361723 -0.227617
  9 8.011925 0.000004 0.000005 -0.065013 0.307497 -0.186368
 10 7.210720 -0.000002 -0.000000 -0.017898 0.162002 0.197402
 11 8.581028 -0.304903 -0.000000 -0.207977 -0.426223 1.691980
 12 22.523008 2.194031 6.355708 0.000000 -0.891322 0.000000
 13 22.523005 2.194038 -6.355709 0.000000 0.790348 0.000000
 14 -3.006533 7.804720 -11.355459 0.156290 0.229802 1.259241
 15 10.384675 0.000008 0.000005 0.470574 0.022456 -1.124862
 16 22.550743 -0.000006 -0.000004 0.112727 -0.099792 1.373596
 17 30.814247 -0.000015 -0.000004 2.950154 0.915048 0.746388
 18 -3.013796 7.815494 11.355459 0.022057 -0.375427 1.833889
 19 10.374533 -0.000002 0.000007 -0.145163 -0.151535 -0.986313
 20 22.550726 -0.000027 -0.000013 -0.106012 -0.012289 1.068727
 21 30.814270 -0.000023 0.000002 -2.797666 0.594824 0.603030
 22 -4.250660 -0.770624 0.000001 -0.095266 -0.370187 -2.694483
 23 10.363422 0.000000 0.000000 -0.081567 -0.214424 -0.125802
 24 10.363076 0.000000 -0.000000 -0.094750 -0.029054 -0.112195
 25 10.363081 -0.000004 -0.000002 0.058361 0.043738 -0.692493
 26 8.210358 -0.000006 -7.703991 0.000000 0.000000 -0.000000
 27 8.210346 -0.000002 7.704017 0.000000 0.000000 -0.000000
 28 1.854841 1.227791 -13.762345 2.833708 -0.081141 1.828208
 29 10.456543 -0.000004 0.000004 0.020950 0.092779 -1.683211
 30 24.248093 0.000001 0.000007 0.036805 0.037010 1.246184
 31 26.336971 0.000019 0.000002 0.103276 0.138073 0.163298
 32 1.854847 1.227798 13.762341 -2.447166 -0.326074 2.068384
 33 10.456542 -0.000008 0.000004 -0.040207 -0.093415 -1.482924
 34 24.248116 0.000002 -0.000004 -0.032220 -0.035152 1.104592
 35 26.336975 0.000000 0.000004 -0.561170 -0.154669 0.432435
time 11
  0 0.000000 0.000000 0.000000 0.000000 -0.000000 -1.570796
  1 0.000000 0.000000 0.000000 0.000000 -0.000000 0.000000
  2 7.894772 -25.393677 38.996777 -1.754755 -0.498504 1.635409
  3 4.222169 -0.467508 0.000000 0.177281 0.596286 0.094254
  4 4.476987 -0.000002 -0.000000 0.235628 0.687207 0.182431
  5 4.477083 0.000000 0.000002 0.187093 -0.314828 -0.047407
  6 4.477077 -0.000004 -0.000002 -0.000976 -0.616896 0.045970
  7 5.413502 -7.700466 -0.000000 -0.025387 0.350069 -0.657964
  8 6.890240 0.000002 -0.000000 0.045434 0.349646 -0.222684
  9 8.011925 0.000004 0.000005 -0.075817 0.309765 -0.175856
 10 7.210720 -0.000002 -0.000000 -0.029592 0.179516 0.202551
 11 8.581028 -0.304903 -0.000000 -0.130773 -0.432079 1.443195
 12 22.523008 2.194031 6.355708 0.000000 -0.899999 0.000000
 13 22.523005 2.194038 -6.355709 0.000000 0.797245 0.000000
 14 -3.006533 7.804720 -11.355459 0.158731 0.377482 1.221334
 15 10.384675 0.000008 0.000005 0.593198 -0.029928 -1.165461
 16 22.550743 -0.000006 -0.000004 0.118068 -0.125935 1.425775
 17 30.814247 -0.000015 -0.000004 3.071844 0.939343 0.854146
 18 -3.013796 7.815494 11.355459 -0.067855 -0.427180 1.928851
 19 10.374533 -0.000002 0.000007 -0.118064 -0.189542 -1.343387
 20 22.550726 -0.000027 -0.000013 -0.114264 -0.014743 1.435491
 21 30.814270 -0.000023 0.000002 -2.661905 0.607939 0.601134
 22 -4.250660 -0.770624 0.000001 -0.095457 -0.350721 -2.669798
 23 10.363422 0.000000 0.000000 -0.084419 -0.218571 -0.122105
 24 10.363076 0.000000 -0.000000 -0.095577 -0.170208 0.016054
 25 10.363081 -0.000004 -0.000002 0.224214 -0.074134 -0.745006
 26 8.210358 -0.000006 -7.703991 0.000000 0.000000 -0.000000
 27 8.210346 -0.000002 7.704017 0.000000 0.000000 -0.000000
 28 1.854841 1.227791 -13.762345 2.840524 -0.083460 1.834290
 29 10.456543 -0.000004 0.000004 0.021823 0.092850 -1.673441
 30 24.248093 0.000001 0.000007 0.036768 0.036970 1.242632
 31 26.336971 0.000019 0.000002 0.113716 0.131898 0.174122
 32 1.854847 1.227798 13.762341 -2.438556 -0.322051 2.050592
 33 10.456542 -0.000008 0.000004 -0.040038 -0.093471 -1.484304
 34 24.248116 0.000002 -0.000004 -0.032233 -0.035152 1.105151
 35 26.336975 0.000000 0.000004 -0.559111 -0.163975 0.427066
time 12
  0 0.000000 0.000000 0.000000 0.000000 -0.000000 -1.570796
  1 0.000000 0.000000 0.000000 0.000000 -0.000000 0.000000
  2 7.433821 -24.792095 38.992870 -1.748524 -0.493757 1.650460
  3 4.222169 -0.467508 0.000000 0.204702 0.509604 0.197388
  4 4.476987 -0.000002 -0.000000 0.280378 0.615328 0.284561
  5 4.477083 0.000000 0.000002 0.213351 -0.275543 -0.136426
  6 4.477077 -0.000004 -0.000002 0.063285 -0.585851 -0.082865
  7 5.413502 -7.700466 -0.000000 0.002153 0.347826 -0.673490
  8 6.890240 0.000002 -0.000000 0.031280 0.321533 -0.211630
  9 8.011925 0.000004 0.000005 -0.086452 0.311938 -0.162904
 10 7.210720 -0.000002 -0.000000 -0.040106 0.193128 0.192307
 11 8.581028 -0.304903 -0.000000 0.000188 -0.403039 1.015761
 12 22.523008 2.194031 6.355708 0.000000 -0.841859 0.000000
 13 22.523005 2.194038 -6.355709 0.000000 0.742797 0.000000
 14 -3.006533 7.804720 -11.355459 0.142236 0.579112 1.233764
 15 10.384675 0.000008 0.000005 0.721164 -0.045543 -1.232497
 16 22.550743 -0.000006 -0.000004 0.122162 -0.145565 1.496054
 17 30.814247 -0.000015 -0.000004 3.046335 0.903669 0.809668
 18 -3.013796 7.815494 11.355459 -0.138624 -0.480690 1.969151
 19 10.374533 -0.000002 0.000007 -0.090898 -0.212831 -1.654826
 20 22.550726 -0.000027 -0.000013 -0.125438 -0.015175 1.751694
 21 30.814270 -0.000023 0.000002 -2.544315 0.616404 0.615581
 22 -4.250660 -0.770624 0.000001 -0.095122 -0.322028 -2.651695
 23 10.363422 0.000000 0.000000 -0.084911 -0.217672 -0.118034
 24 10.363076 0.000000 -0.000000 -0.088578 -0.274558 0.135502
 25 10.363081 -0.000004 -0.000002 0.349721 -0.162287 -0.783720
 26 8.210358 -0.000006 -7.703991 0.000000 0.000000 -0.000000
 27 8.210346 -0.000002 7.704017 0.000000 0.000000 -0.000000
 28 1.854841 1.227791 -13.762345 2.840656 -0.078895 1.856794
 29 10.456543 -0.000004 0.000004 0.024077 0.092939 -1.649691
 30 24.248093 0.000001 0.000007 0.036360 0.036809 1.225464
 31 26.336971 0.000019 0.000002 0.132902 0.125039 0.195881
 32 1.854847 1.227798 13.762341 -2.432377 -0.315320 2.032368
 33 10.456542 -0.000008 0.000004 -0.040038 -0.093387 -1.483989
 34 24.248116 0.000002 -0.000004 -0.032181 -0.035092 1.104643
 35 26.336975 0.000000 0.000004 -0.542601 -0.170459 0.421188
time 13
  0 0.000000 0.000000 0.000000 0.000000 -0.000000 -1.570796
  1 0.000000 0.000000 0.000000 0.000000 -0.000000 0.000000
  2 6.136906 -23.096731 38.988964 -1.721875 -0.465595 1.679219
  3 4.222169 -0.467508 0.000000 0.191782 0.456641 0.226767
  4 4.476987 -0.000002 -0.000000 0.303724 0.560820 0.325560
  5 4.477083 0.000000 0.000002 0.228752 -0.258582 -0.141776
  6 4.477077 -0.000004 -0.000002 0.064352 -0.559710 -0.104278
  7 5.413502 -7.700466 -0.000000 0.033508 0.346280 -0.682669
  8 6.890240 0.000002 -0.000000 -0.006052 0.281147 -0.178584
  9 8.011925 0.000004 0.000005 -0.086531 0.285163 -0.142372
 10 7.210720 -0.000002 -0.000000 -0.043620 0.181988 0.155808
 11 8.581028 -0.304903 -0.000000 0.069239 -0.340334 0.740690
 12 22.523008 2.194031 6.355708 0.000000 -0.758971 0.000000
 13 22.523005 2.194038 -6.355709 0.000000 0.665389 0.000000
 14 -3.006533 7.804720 -11.355459 0.057700 0.823881 1.237266
 15 10.384675 0.000008 0.000005 0.836654 0.066204 -1.262156
 16 22.550743 -0.000006 -0.000004 0.124241 -0.149841 1.542664
 17 30.814247 -0.000015 -0.000004 2.891056 0.841161 0.657790
 18 -3.013796 7.815494 11.355459 -0.090307 -0.501279 1.857259
 19 10.374533 -0.000002 0.000007 -0.121502 -0.241834 -1.788946
 20 22.550726 -0.000027 -0.000013 -0.138797 -0.014625 1.919939
 21 30.814270 -0.000023 0.000002 -2.518917 0.620099 0.598372
 22 -4.250660 -0.770624 0.000001 -0.094223 -0.277432 -2.647803
 23 10.363422 0.000000 0.000000 -0.082382 -0.210829 -0.113038
 24 10.363076 0.000000 -0.000000 -0.076546 -0.324055 0.231462
 25 10.363081 -0.000004 -0.000002 0.401492 -0.201033 -0.782431
 26 8.210358 -0.000006 -7.703991 0.000000 0.000000 -0.000000
 27 8.210346 -0.000002 7.704017 0.000000 0.000000 -0.000000
 28 1.854841 1.227791 -13.762345 2.830278 -0.059972 1.917675
 29 10.456543 -0.000004 0.000004 0.032480 0.093259 -1.564502
 30 24.248093 0.000001 0.000007 0.034543 0.036042 1.169460
 31 26.336971 0.000019 0.000002 0.183018 0.109693 0.259999
 32 1.854847 1.227798 13.762341 -2.433019 -0.295784 2.003590
 33 10.456542 -0.000008 0.000004 -0.040614 -0.093192 -1.478037
 34 24.248116 0.000002 -0.000004 -0.032078 -0.034972 1.103831
 35 26.336975 0.000000 0.000004 -0.492643 -0.173437 0.416045
time 14
  0 0.000000 0.000000 0.000000 0.000000 -0.000000 -1.570796
  1 0.000000 0.000000 0.000000 0.000000 -0.000000 0.000000
  2 3.367290 -19.737255 38.961617 -1.654484 -0.392717 1.739422
  3 4.222169 -0.467508 0.000000 0.144072 0.423662 0.195824
  4 4.476987 -0.000002 -0.000000 0.325296 0.509031 0.349466
  5 4.477083 0.000000 0.000002 0.243241 -0.254124 -0.049837
  6 4.477077 -0.000004 -0.000002 0.006179 -0.525715 -0.022473
  7 5.413502 -7.700466 -0.000000 0.081278 0.338651 -0.652923
  8 6.890240 0.000002 -0.000000 -0.093791 0.218098 -0.089641
  9 8.011925 0.000004 0.000005 -0.040391 0.124481 -0.090796
 10 7.210720 -0.000002 -0.000000 -0.023773 0.090941 0.073131
 11 8.581028 -0.304903 -0.000000 0.048044 -0.248435 0.675812
 12 22.523008 2.194031 6.355708 0.000000 -0.660961 0.000000
 13 22.523005 2.194038 -6.355709 0.000000 0.573795 0.000000
 14 -3.006533 7.804720 -11.355459 -0.032697 1.086349 1.116675
 15 10.384675 0.000008 0.000005 0.928351 0.300562 -1.222834
 16 22.550743 -0.000006 -0.000004 0.125553 -0.149094 1.566090
 17 30.814247 -0.000015 -0.000004 2.621730 0.813669 0.490621
 18 -3.013796 7.815494 11.355459 0.096033 -0.439212 1.573284
 19 10.374533 -0.000002 0.000007 -0.231852 -0.280671 -1.773232
 20 22.550726 -0.000027 -0.000013 -0.153852 -0.013821 1.939170
 21 30.814270 -0.000023 0.000002 -2.658993 0.640725 0.469375
 22 -4.250660 -0.770624 0.000001 -0.090508 -0.213225 -2.669286
 23 10.363422 0.000000 0.000000 -0.071308 -0.183875 -0.106987
 24 10.363076 0.000000 -0.000000 -0.054770 -0.305538 0.295780
 25 10.363081 -0.000004 -0.000002 0.377693 -0.206887 -0.661914
 26 8.210358 -0.000006 -7.703991 0.000000 0.000000 -0.000000
 27 8.210346 -0.000002 7.704017 0.000000 0.000000 -0.000000
 28 1.854841 1.227791 -13.762345 2.810138 -0.010233 2.067172
 29 10.456543 -0.000004 0.000004 0.054527 0.091178 -1.332817
 30 24.248093 0.000001 0.000007 0.028909 0.032934 1.002927
 31 26.336971 0.000019 0.000002 0.293169 0.065860 0.415019
 32 1.854847 1.227798 13.762341 -2.451994 -0.243906 1.946206
 33 10.456542 -0.000008 0.000004 -0.043022 -0.092970 -1.451435
 34 24.248116 0.000002 -0.000004 -0.031715 -0.034732 1.096164
 35 26.336975 0.000000 0.000004 -0.379774 -0.172817 0.414067
time 15
  0 0.000000 0.000000 0.000000 0.000000 -0.000000 -1.570796
  1 0.000000 0.000000 0.000000 0.000000 -0.000000 0.000000
  2 -0.320322 -15.862137 38.887398 -1.581533 -0.315450 1.803939
  3 4.222169 -0.467508 0.000000 0.090273 0.350994 0.152537
  4 4.476987 -0.000002 -0.000000 0.353209 0.422567 0.377457
  5 4.477083 0.000000 0.000002 0.268528 -0.219862 0.063015
  6 4.477077 -0.000004 -0.000002 -0.040429 -0.447012 0.050252
  7 5.413502 -7.700466 -0.000000 0.131812 0.318771 -0.580829
  8 6.890240 0.000002 -0.000000 -0.194917 0.151846 0.019874
  9 8.011925 0.000004 0.000005 0.030450 -0.127612 -0.033199
 10 7.210720 -0.000002 -0.000000 0.012188 -0.047351 -0.029633
 11 8.581028 -0.304903 -0.000000 0.006824 -0.149349 0.661792
 12 22.523008 2.194031 6.355708 0.000000 -0.396411 0.000000
 13 22.523005 2.194038 -6.355709 0.000000 0.326327 0.000000
 14 -3.006533 7.804720 -11.355459 -0.265471 1.269184 0.679502
 15 10.384675 0.000008 0.000005 1.002942 0.522763 -1.073877
 16 22.550743 -0.000006 -0.000004 0.126928 -0.147487 1.521114
 17 30.814247 -0.000015 -0.000004 2.302610 0.828497 0.386874
 18 -3.013796 7.815494 11.355459 0.279268 -0.296732 1.213099
 19 10.374533 -0.000002 0.000007 -0.398287 -0.281203 -1.597826
 20 22.550726 -0.000027 -0.000013 -0.156896 -0.014331 1.785566
 21 30.814270 -0.000023 0.000002 -2.891050 0.627439 0.292572
 22 -4.250660 -0.770624 0.000001 -0.082118 -0.124706 -2.728923
 23 10.363422 0.000000 0.000000 -0.044595 -0.118068 -0.099791
 24 10.363076 0.000000 -0.000000 -0.028619 -0.264263 0.346084
 25 10.363081 -0.000004 -0.000002 0.306789 -0.205239 -0.392689
 26 8.210358 -0.000006 -7.703991 0.000000 0.000000 -0.000000
 27 8.210346 -0.000002 7.704017 0.000000 0.000000 -0.000000
 28 1.854841 1.227791 -13.762345 2.800112 0.059490 2.271224
 29 10.456543 -0.000004 0.000004 0.086934 0.077405 -0.960974
 30 24.248093 0.000001 0.000007 0.021123 0.025953 0.730068
 31 26.336971 0.000019 0.000002 0.410672 0.002765 0.603726
 32 1.854847 1.227798 13.762341 -2.478431 -0.185159 1.882963
 33 10.456542 -0.000008 0.000004 -0.047024 -0.092580 -1.407570
 34 24.248116 0.000002 -0.000004 -0.030821 -0.034217 1.067528
 35 26.336975 0.000000 0.000004 -0.259445 -0.167109 0.416214
time 16
  0 0.000000 0.000000 0.000000 0.000000 -0.000000 -1.570796
  1 0.000000 0.000000 0.000000 0.000000 -0.000000 0.000000
  2 -3.437605 -13.780041 38.543640 -1.542326 -0.264033 1.838163
  3 4.222169 -0.467508 0.000000 0.056464 0.231648 0.130380
  4 4.476987 -0.000002 -0.000000 0.357787 0.288426 0.400076
  5 4.477083 0.000000 0.000002 0.290292 -0.161968 0.105212
  6 4.477077 -0.000004 -0.000002 -0.031369 -0.348897 0.026613
  7 5.413502 -7.700466 -0.000000 0.157717 0.280575 -0.476687
  8 6.890240 0.000002 -0.000000 -0.249567 0.097005 0.077354
  9 8.011925 0.000004 0.000005 0.072556 -0.283613 -0.006333
 10 7.210720 -0.000002 -0.000000 0.036455 -0.133260 -0.109629
 11 8.581028 -0.304903 -0.000000 -0.015910 -0.065014 0.653520
 12 22.523008 2.194031 6.355708 0.000000 0.017262 0.000000
 13 22.523005 2.194038 -6.355709 0.000000 -0.064189 0.000000
 14 -3.006533 7.804720 -11.355459 -0.782023 1.254274 -0.124319
 15 10.384675 0.000008 0.000005 0.953900 0.572134 -0.840056
 16 22.550743 -0.000006 -0.000004 0.136396 -0.144532 1.447506
 17 30.814247 -0.000015 -0.000004 2.086879 0.806240 0.359120
 18 -3.013796 7.815494 11.355459 0.351972 -0.146516 0.904100
 19 10.374533 -0.000002 0.000007 -0.537893 -0.205023 -1.273224
 20 22.550726 -0.000027 -0.000013 -0.134610 -0.015941 1.462043
 21 30.814270 -0.000023 0.000002 -3.001203 0.527956 0.281415
 22 -4.250660 -0.770624 0.000001 -0.077756 -0.029287 -2.797751
 23 10.363422 0.000000 0.000000 -0.012859 -0.040504 -0.090548
 24 10.363076 0.000000 -0.000000 -0.002744 -0.212921 0.383611
 25 10.363081 -0.000004 -0.000002 0.213342 -0.199523 -0.037526
 26 8.210358 -0.000006 -7.703991 0.000000 0.000000 -0.000000
 27 8.210346 -0.000002 7.704017 0.000000 0.000000 -0.000000
 28 1.854841 1.227791 -13.762345 2.795891 0.117026 2.407158
 29 10.456543 -0.000004 0.000004 0.106745 0.059984 -0.685001
 30 24.248093 0.000001 0.000007 0.016452 0.019234 0.521798
 31 26.336971 0.000019 0.000002 0.485673 -0.034183 0.725831
 32 1.854847 1.227798 13.762341 -2.506049 -0.131776 1.826009
 33 10.456542 -0.000008 0.000004 -0.046922 -0.092691 -1.410802
 34 24.248116 0.000002 -0.000004 -0.030912 -0.034073 1.063263
 35 26.336975 0.000000 0.000004 -0.183456 -0.154700 0.411976
time 17
  0 0.000000 0.000000 0.000000 0.000000 -0.000000 -1.570796
  1 0.000000 0.000000 0.000000 0.000000 -0.000000 0.000000
  2 -5.390790 -14.182398 37.485012 -1.534273 -0.242333 1.844969
  3 4.222169 -0.467508 0.000000 0.028756 0.090909 0.127896
  4 4.476987 -0.000002 -0.000000 0.294220 0.112499 0.411397
  5 4.477083 0.000000 0.000002 0.257551 -0.100649 0.072590
  6 4.477077 -0.000004 -0.000002 -0.002019 -0.237044 -0.077960
  7 5.413502 -7.700466 -0.000000 0.154421 0.225167 -0.346626
  8 6.890240 0.000002 -0.000000 -0.244366 0.052946 0.049056
  9 8.011925 0.000004 0.000005 0.075215 -0.292943 -0.022167
 10 7.210720 -0.000002 -0.000000 0.033847 -0.131741 -0.150311
 11 8.581028 -0.304903 -0.000000 -0.014417 0.000406 0.651453
 12 22.523008 2.194031 6.355708 0.000000 0.090525 0.000000
 13 22.523005 2.194038 -6.355709 0.000000 -0.155904 0.000000
 14 -3.006533 7.804720 -11.355459 -0.986094 1.083665 -0.629273
 15 10.384675 0.000008 0.000005 0.610716 0.388165 -0.576966
 16 22.550743 -0.000006 -0.000004 0.150869 -0.139337 1.412276
 17 30.814247 -0.000015 -0.000004 2.127282 0.574579 0.427305
 18 -3.013796 7.815494 11.355459 0.343673 -0.062029 0.690349
 19 10.374533 -0.000002 0.000007 -0.596742 -0.107582 -0.951696
 20 22.550726 -0.000027 -0.000013 -0.099904 -0.013879 1.113580
 21 30.814270 -0.000023 0.000002 -2.927884 0.335986 0.468678
 22 -4.250660 -0.770624 0.000001 -0.076857 0.058221 -2.867143
 23 10.363422 0.000000 0.000000 0.015508 0.031548 -0.079765
 24 10.363076 0.000000 -0.000000 0.021213 -0.154497 0.413396
 25 10.363081 -0.000004 -0.000002 0.117335 -0.187599 0.317153
 26 8.210358 -0.000006 -7.703991 0.000000 0.000000 -0.000000
 27 8.210346 -0.000002 7.704017 0.000000 0.000000 -0.000000
 28 1.854841 1.227791 -13.762345 2.773860 0.140020 2.383924
 29 10.456543 -0.000004 0.000004 0.104666 0.062279 -0.719954
 30 24.248093 0.000001 0.000007 0.016897 0.019980 0.543111
 31 26.336971 0.000019 0.000002 0.523564 -0.032685 0.736379
 32 1.854847 1.227798 13.762341 -2.526543 -0.081129 1.763283
 33 10.456542 -0.000008 0.000004 -0.035866 -0.093749 -1.527735
 34 24.248116 0.000002 -0.000004 -0.033619 -0.035475 1.145261
 35 26.336975 0.000000 0.000004 -0.160942 -0.142229 0.384565
time 18
  0 0.000000 0.000000 0.000000 0.000000 -0.000000 -1.570796
  1 0.000000 0.000000 0.000000 0.000000 -0.000000 0.000000
  2 -6.570513 -15.893387 35.750584 -1.533794 -0.234355 1.843627
  3 4.222169 -0.467508 0.000000 -0.000055 -0.042433 0.128938
  4 4.476987 -0.000002 -0.000000 0.179036 -0.064327 0.414704
  5 4.477083 0.000000 0.000002 0.171597 -0.039347 0.031163
  6 4.477077 -0.000004 -0.000002 0.005232 -0.098243 -0.172815
  7 5.413502 -7.700466 -0.000000 0.138484 0.162622 -0.204678
  8 6.890240 0.000002 -0.000000 -0.210413 0.012691 -0.037467
  9 8.011925 0.000004 0.000005 0.061738 -0.244106 -0.071043
 10 7.210720 -0.000002 -0.000000 0.021165 -0.099539 -0.175868
 11 8.581028 -0.304903 -0.000000 -0.002338 0.056027 0.649700
 12 22.523008 2.194031 6.355708 0.000000 0.006905 0.000000
 13 22.523005 2.194038 -6.355709 0.000000 -0.135728 0.000000
 14 -3.006533 7.804720 -11.355459 -0.945508 1.033955 -0.739425
 15 10.384675 0.000008 0.000005 0.267794 0.179034 -0.341701
 16 22.550743 -0.000006 -0.000004 0.152916 -0.132105 1.363850
 17 30.814247 -0.000015 -0.000004 2.287541 0.235019 0.505089
 18 -3.013796 7.815494 11.355459 0.316078 -0.048988 0.558336
 19 10.374533 -0.000002 0.000007 -0.613527 -0.057316 -0.788177
 20 22.550726 -0.000027 -0.000013 -0.077067 -0.010895 0.928895
 21 30.814270 -0.000023 0.000002 -2.810154 0.076291 0.663666
 22 -4.250660 -0.770624 0.000001 -0.073178 0.121818 -2.938302
 23 10.363422 0.000000 0.000000 0.036853 0.094503 -0.069070
 24 10.363076 0.000000 -0.000000 0.041131 -0.097198 0.438612
 25 10.363081 -0.000004 -0.000002 0.041038 -0.169450 0.582673
 26 8.210358 -0.000006 -7.703991 0.000000 0.000000 -0.000000
 27 8.210346 -0.000002 7.704017 0.000000 0.000000 -0.000000
 28 1.854841 1.227791 -13.762345 2.740704 0.141945 2.288984
 29 10.456543 -0.000004 0.000004 0.089013 0.075874 -0.937615
 30 24.248093 0.000001 0.000007 0.020234 0.025085 0.701060
 31 26.336971 0.000019 0.000002 0.552799 -0.020465 0.704072
 32 1.854847 1.227798 13.762341 -2.530324 -0.030728 1.680309
 33 10.456542 -0.000008 0.000004 -0.017756 -0.092246 -1.713558
 34 24.248116 0.000002 -0.000004 -0.038075 -0.037417 1.276661
 35 26.336975 0.000000 0.000004 -0.156011 -0.131868 0.350825
time 19
  0 0.000000 0.000000 0.000000 0.000000 -0.000000 -1.570796
  1 0.000000 0.000000 0.000000 0.000000 -0.000000 0.000000
  2 -7.293191 -17.604378 34.063034 -1.534465 -0.230725 1.839697
  3 4.222169 -0.467508 0.000000 -0.020429 -0.147376 0.127528
  4 4.476987 -0.000002 -0.000000 0.076101 -0.193670 0.417901
  5 4.477083 0.000000 0.000002 0.087477 0.029742 0.014785
  6 4.477077 -0.000004 -0.000002 -0.000413 0.041216 -0.210517
  7 5.413502 -7.700466 -0.000000 0.116553 0.093519 -0.051094
  8 6.890240 0.000002 -0.000000 -0.167161 -0.024937 -0.147866
  9 8.011925 0.000004 0.000005 0.045132 -0.191818 -0.128485
 10 7.210720 -0.000002 -0.000000 0.008235 -0.068078 -0.199092
 11 8.581028 -0.304903 -0.000000 0.015160 0.105109 0.647983
 12 22.523008 2.194031 6.355708 0.000000 -0.089426 0.000000
 13 22.523005 2.194038 -6.355709 0.000000 -0.128286 0.000000
 14 -3.006533 7.804720 -11.355459 -0.677357 1.138356 -0.445091
 15 10.384675 0.000008 0.000005 0.188236 0.100936 -0.307655
 16 22.550743 -0.000006 -0.000004 0.144088 -0.116264 1.296295
 17 30.814247 -0.000015 -0.000004 2.395123 0.052387 0.557624
 18 -3.013796 7.815494 11.355459 0.296273 -0.073986 0.492273
 19 10.374533 -0.000002 0.000007 -0.622695 -0.047017 -0.764809
 20 22.550726 -0.000027 -0.000013 -0.070652 -0.010719 0.902964
 21 30.814270 -0.000023 0.000002 -2.742309 -0.144085 0.767617
 22 -4.250660 -0.770624 0.000001 -0.068576 0.143819 -3.002778
 23 10.363422 0.000000 0.000000 0.043732 0.140691 -0.061412
 24 10.363076 0.000000 -0.000000 0.053439 -0.043663 0.446071
 25 10.363081 -0.000004 -0.000002 -0.001807 -0.146264 0.701553
 26 8.210358 -0.000006 -7.703991 0.000000 0.000000 -0.000000
 27 8.210346 -0.000002 7.704017 0.000000 0.000000 -0.000000
 28 1.854841 1.227791 -13.762345 2.710934 0.139897 2.206207
 29 10.456543 -0.000004 0.000004 0.073011 0.085074 -1.130874
 30 24.248093 0.000001 0.000007 0.024015 0.029202 0.850128
 31 26.336971 0.000019 0.000002 0.575595 -0.010768 0.678834
 32 1.854847 1.227798 13.762341 -2.531034 0.012285 1.603021
 33 10.456542 -0.000008 0.000004 -0.001986 -0.087961 -1.882118
 34 24.248116 0.000002 -0.000004 -0.042506 -0.038663 1.395521
 35 26.336975 0.000000 0.000004 -0.150522 -0.123120 0.326296
time 20
  0 0.000000 0.000000 0.000000 0.000000 -0.000000 -1.570796
  1 0.000000 0.000000 0.000000 0.000000 -0.000000 0.000000
  2 -7.676015 -18.526279 33.148941 -1.535136 -0.227853 1.834903
  3 4.222169 -0.467508 0.000000 -0.028099 -0.231871 0.131361
  4 4.476987 -0.000002 -0.000000 0.009071 -0.271460 0.429444
  5 4.477083 0.000000 0.000002 0.033870 0.117278 0.016104
  6 4.477077 -0.000004 -0.000002 0.005424 0.162765 -0.208975
  7 5.413502 -7.700466 -0.000000 0.088349 0.025657 0.102646
  8 6.890240 0.000002 -0.000000 -0.120313 -0.057207 -0.260546
  9 8.011925 0.000004 0.000005 0.025644 -0.140968 -0.185927
 10 7.210720 -0.000002 -0.000000 -0.003788 -0.039865 -0.220224
 11 8.581028 -0.304903 -0.000000 0.035391 0.151135 0.646896
 12 22.523008 2.194031 6.355708 0.000000 -0.192447 0.000000
 13 22.523005 2.194038 -6.355709 0.000000 -0.120059 0.000000
 14 -3.006533 7.804720 -11.355459 -0.187880 1.145987 0.116999
 15 10.384675 0.000008 0.000005 0.220993 0.087230 -0.394741
 16 22.550743 -0.000006 -0.000004 0.126880 -0.082315 1.234855
 17 30.814247 -0.000015 -0.000004 2.462956 -0.040466 0.604323
 18 -3.013796 7.815494 11.355459 0.280388 -0.129738 0.462119
 19 10.374533 -0.000002 0.000007 -0.630177 -0.047615 -0.782553
 20 22.550726 -0.000027 -0.000013 -0.070530 -0.011229 0.924553
 21 30.814270 -0.000023 0.000002 -2.717577 -0.275865 0.803011
 22 -4.250660 -0.770624 0.000001 -0.063518 0.119828 -3.059495
 23 10.363422 0.000000 0.000000 0.038890 0.173253 -0.056923
 24 10.363076 0.000000 -0.000000 0.052409 0.005162 0.415770
 25 10.363081 -0.000004 -0.000002 -0.018600 -0.114559 0.698170
 26 8.210358 -0.000006 -7.703991 0.000000 0.000000 -0.000000
 27 8.210346 -0.000002 7.704017 0.000000 0.000000 -0.000000
 28 1.854841 1.227791 -13.762345 2.695851 0.141599 2.172756
 29 10.456543 -0.000004 0.000004 0.065586 0.088170 -1.215672
 30 24.248093 0.000001 0.000007 0.025980 0.030775 0.917085
 31 26.336971 0.000019 0.000002 0.580641 -0.005145 0.672593
 32 1.854847 1.227798 13.762341 -2.536301 0.031000 1.572735
 33 10.456542 -0.000008 0.000004 0.005407 -0.084927 -1.965709
 34 24.248116 0.000002 -0.000004 -0.044540 -0.038987 1.446953
 35 26.336975 0.000000 0.000004 -0.147134 -0.116047 0.314032
time 21
  0 0.000000 0.000000 0.000000 0.000000 -0.000000 -1.570796
  1 0.000000 0.000000 0.000000 0.000000 -0.000000 0.000000
  2 -7.879147 -18.666910 32.945808 -1.535999 -0.225738 1.828960
  3 4.222169 -0.467508 0.000000 -0.029525 -0.310546 0.144824
  4 4.476987 -0.000002 -0.000000 -0.049630 -0.335115 0.447956
  5 4.477083 0.000000 0.000002 -0.001257 0.224279 0.024671
  6 4.477077 -0.000004 -0.000002 0.026265 0.279090 -0.189135
  7 5.413502 -7.700466 -0.000000 0.062669 -0.031468 0.232645
  8 6.890240 0.000002 -0.000000 -0.072878 -0.083464 -0.370224
  9 8.011925 0.000004 0.000005 0.006850 -0.096412 -0.237399
 10 7.210720 -0.000002 -0.000000 -0.014741 -0.015024 -0.239210
 11 8.581028 -0.304903 -0.000000 0.055645 0.198185 0.646651
 12 22.523008 2.194031 6.355708 0.000000 -0.288930 0.000000
 13 22.523005 2.194038 -6.355709 0.000000 -0.110984 0.000000
 14 -3.006533 7.804720 -11.355459 0.114672 1.013145 0.490032
 15 10.384675 0.000008 0.000005 0.245308 0.070299 -0.486825
 16 22.550743 -0.000006 -0.000004 0.105002 -0.044807 1.164637
 17 30.814247 -0.000015 -0.000004 2.531708 -0.140434 0.645865
 18 -3.013796 7.815494 11.355459 0.260227 -0.221026 0.435842
 19 10.374533 -0.000002 0.000007 -0.637929 -0.052233 -0.814561
 20 22.550726 -0.000027 -0.000013 -0.073165 -0.011799 0.962644
 21 30.814270 -0.000023 0.000002 -2.703159 -0.363555 0.805940
 22 -4.250660 -0.770624 0.000001 -0.058581 0.068523 -3.113754
 23 10.363422 0.000000 0.000000 0.031747 0.203107 -0.052962
 24 10.363076 0.000000 -0.000000 0.041347 0.051459 0.354988
 25 10.363081 -0.000004 -0.000002 -0.027970 -0.073348 0.645952
 26 8.210358 -0.000006 -7.703991 0.000000 0.000000 -0.000000
 27 8.210346 -0.000002 7.704017 0.000000 0.000000 -0.000000
 28 1.854841 1.227791 -13.762345 2.691190 0.148803 2.176101
 29 10.456543 -0.000004 0.000004 0.065446 0.088259 -1.217061
 30 24.248093 0.000001 0.000007 0.025943 0.030695 0.915842
 31 26.336971 0.000019 0.000002 0.578074 -0.001124 0.675410
 32 1.854847 1.227798 13.762341 -2.543391 0.032314 1.576871
 33 10.456542 -0.000008 0.000004 0.005780 -0.084732 -1.970281
 34 24.248116 0.000002 -0.000004 -0.044565 -0.038903 1.448375
 35 26.336975 0.000000 0.000004 -0.145504 -0.109750 0.313354
time 22
  0 0.000000 0.000000 0.000000 0.000000 -0.000000 -1.570796
  1 0.000000 0.000000 0.000000 0.000000 -0.000000 0.000000
  2 -8.027589 -18.487217 32.957531 -1.537053 -0.224302 1.822058
  3 4.222169 -0.467508 0.000000 -0.027176 -0.383677 0.171949
  4 4.476987 -0.000002 -0.000000 -0.104914 -0.393993 0.473283
  5 4.477083 0.000000 0.000002 -0.033999 0.337902 0.032497
  6 4.477077 -0.000004 -0.000002 0.054441 0.397032 -0.161229
  7 5.413502 -7.700466 -0.000000 0.044885 -0.070853 0.321479
  8 6.890240 0.000002 -0.000000 -0.034588 -0.101736 -0.456258
  9 8.011925 0.000004 0.000005 -0.005304 -0.064301 -0.273868
 10 7.210720 -0.000002 -0.000000 -0.024706 0.007203 -0.256052
 11 8.581028 -0.304903 -0.000000 0.074199 0.239960 0.648403
 12 22.523008 2.194031 6.355708 0.000000 -0.359627 0.000000
 13 22.523005 2.194038 -6.355709 0.000000 -0.100971 0.000000
 14 -3.006533 7.804720 -11.355459 0.215541 0.846881 0.645440
 15 10.384675 0.000008 0.000005 0.264357 0.056381 -0.557916
 16 22.550743 -0.000006 -0.000004 0.082693 -0.016597 1.069479
 17 30.814247 -0.000015 -0.000004 2.595654 -0.216358 0.692026
 18 -3.013796 7.815494 11.355459 0.239454 -0.325430 0.408425
 19 10.374533 -0.000002 0.000007 -0.645547 -0.059210 -0.854106
 20 22.550726 -0.000027 -0.000013 -0.077169 -0.012289 1.009420
 21 30.814270 -0.000023 0.000002 -2.690215 -0.438082 0.802397
 22 -4.250660 -0.770624 0.000001 -0.056136 -0.008714 3.118220
 23 10.363422 0.000000 0.000000 0.022279 0.226789 -0.049881
 24 10.363076 0.000000 -0.000000 0.026857 0.097012 0.273739
 25 10.363081 -0.000004 -0.000002 -0.035492 -0.030950 0.582646
 26 8.210358 -0.000006 -7.703991 0.000000 0.000000 -0.000000
 27 8.210346 -0.000002 7.704017 0.000000 0.000000 -0.000000
 28 1.854841 1.227791 -13.762345 2.686617 0.156156 2.179811
 29 10.456543 -0.000004 0.000004 0.066931 0.087690 -1.199911
 30 24.248093 0.000001 0.000007 0.025424 0.030311 0.898496
 31 26.336971 0.000019 0.000002 0.575725 0.003264 0.677287
 32 1.854847 1.227798 13.762341 -2.551595 0.030344 1.588848
 33 10.456542 -0.000008 0.000004 0.004423 -0.085261 -1.954871
 34 24.248116 0.000002 -0.000004 -0.044268 -0.038855 1.441521
 35 26.336975 0.000000 0.000004 -0.145076 -0.103669 0.319006
time 23
  0 0.000000 0.000000 0.000000 0.000000 -0.000000 -1.570796
  1 0.000000 0.000000 0.000000 0.000000 -0.000000 0.000000
  2 -8.148686 -18.213770 32.977062 -1.538300 -0.223465 1.814101
  3 4.222169 -0.467508 0.000000 -0.025079 -0.456086 0.205637
  4 4.476987 -0.000002 -0.000000 -0.143649 -0.438606 0.508888
  5 4.477083 0.000000 0.000002 -0.061683 0.445113 0.035298
  6 4.477077 -0.000004 -0.000002 0.086967 0.506159 -0.131889
  7 5.413502 -7.700466 -0.000000 0.036964 -0.087759 0.353341
  8 6.890240 0.000002 -0.000000 -0.014058 -0.111682 -0.492003
  9 8.011925 0.000004 0.000005 -0.012311 -0.044987 -0.295671
 10 7.210720 -0.000002 -0.000000 -0.030636 0.020356 -0.268656
 11 8.581028 -0.304903 -0.000000 0.088184 0.268385 0.652609
 12 22.523008 2.194031 6.355708 0.000000 -0.382205 0.000000
 13 22.523005 2.194038 -6.355709 0.000000 -0.089931 0.000000
 14 -3.006533 7.804720 -11.355459 0.227587 0.712202 0.677579
 15 10.384675 0.000008 0.000005 0.267495 0.045497 -0.576799
 16 22.550743 -0.000006 -0.000004 0.062830 0.001999 0.968510
 17 30.814247 -0.000015 -0.000004 2.636494 -0.253756 0.737579
 18 -3.013796 7.815494 11.355459 0.222144 -0.419931 0.385568
 19 10.374533 -0.000002 0.000007 -0.652827 -0.066253 -0.892841
 20 22.550726 -0.000027 -0.000013 -0.081050 -0.012564 1.055327
 21 30.814270 -0.000023 0.000002 -2.686496 -0.481487 0.799664
 22 -4.250660 -0.770624 0.000001 -0.052277 -0.094906 3.070107
 23 10.363422 0.000000 0.000000 0.010546 0.238509 -0.048627
 24 10.363076 0.000000 -0.000000 0.010271 0.139258 0.179198
 25 10.363081 -0.000004 -0.000002 -0.037019 0.008628 0.506561
 26 8.210358 -0.000006 -7.703991 0.000000 0.000000 -0.000000
 27 8.210346 -0.000002 7.704017 0.000000 0.000000 -0.000000
 28 1.854841 1.227791 -13.762345 2.682043 0.163557 2.183521
 29 10.456543 -0.000004 0.000004 0.068171 0.087192 -1.185278
 30 24.248093 0.000001 0.000007 0.024979 0.029928 0.881387
 31 26.336971 0.000019 0.000002 0.572680 0.007863 0.679276
 32 1.854847 1.227798 13.762341 -2.560813 0.027060 1.604831
 33 10.456542 -0.000008 0.000004 0.002965 -0.085818 -1.938713
 34 24.248116 0.000002 -0.000004 -0.043840 -0.038831 1.430249
 35 26.336975 0.000000 0.000004 -0.145504 -0.097465 0.326974
time 24
  0 0.000000 0.000000 0.000000 0.000000 -0.000000 -1.570796
  1 0.000000 0.000000 0.000000 0.000000 -0.000000 0.000000
  2 -8.254158 -17.862198 32.996593 -1.539546 -0.223186 1.805090
  3 4.222169 -0.467508 0.000000 -0.024588 -0.518039 0.235538
  4 4.476987 -0.000002 -0.000000 -0.170602 -0.470433 0.543649
  5 4.477083 0.000000 0.000002 -0.070444 0.523571 0.033712
  6 4.477077 -0.000004 -0.000002 0.117743 0.579149 -0.111348
  7 5.413502 -7.700466 -0.000000 0.035621 -0.090172 0.318243
  8 6.890240 0.000002 -0.000000 -0.008377 -0.115120 -0.468987
  9 8.011925 0.000004 0.000005 -0.012547 -0.046888 -0.293958
 10 7.210720 -0.000002 -0.000000 -0.028357 0.015607 -0.275065
 11 8.581028 -0.304903 -0.000000 0.099436 0.288684 0.665998
 12 22.523008 2.194031 6.355708 0.000000 -0.355533 0.000000
 13 22.523005 2.194038 -6.355709 0.000000 -0.077801 0.000000
 14 -3.006533 7.804720 -11.355459 0.219394 0.630412 0.664668
 15 10.384675 0.000008 0.000005 0.262490 0.037986 -0.584019
 16 22.550743 -0.000006 -0.000004 0.054274 0.006763 0.896355
 17 30.814247 -0.000015 -0.000004 2.651476 -0.258396 0.769021
 18 -3.013796 7.815494 11.355459 0.208499 -0.489359 0.371375
 19 10.374533 -0.000002 0.000007 -0.659703 -0.073396 -0.930647
 20 22.550726 -0.000027 -0.000013 -0.084808 -0.012643 1.100180
 21 30.814270 -0.000023 0.000002 -2.691372 -0.488142 0.793054
 22 -4.250660 -0.770624 0.000001 -0.045182 -0.176765 3.024246
 23 10.363422 0.000000 0.000000 -0.001246 0.245784 -0.048341
 24 10.363076 0.000000 -0.000000 -0.007275 0.176326 0.081791
 25 10.363081 -0.000004 -0.000002 -0.038398 0.047451 0.425375
 26 8.210358 -0.000006 -7.703991 0.000000 0.000000 -0.000000
 27 8.210346 -0.000002 7.704017 0.000000 0.000000 -0.000000
 28 1.854841 1.227791 -13.762345 2.677602 0.171058 2.187536
 29 10.456543 -0.000004 0.000004 0.069412 0.086675 -1.170733
 30 24.248093 0.000001 0.000007 0.024534 0.029524 0.864100
 31 26.336971 0.000019 0.000002 0.568982 0.012646 0.681264
 32 1.854847 1.227798 13.762341 -2.570840 0.022792 1.624045
 33 10.456542 -0.000008 0.000004 0.001269 -0.086430 -1.919796
 34 24.248116 0.000002 -0.000004 -0.043335 -0.038783 1.416084
 35 26.336975 0.000000 0.000004 -0.146619 -0.091075 0.336187
time 25
  0 0.000000 0.000000 0.000000 0.000000 -0.000000 -1.570796
  1 0.000000 0.000000 0.000000 0.000000 -0.000000 0.000000
  2 -8.336192 -17.455935 33.020031 -1.541079 -0.223385 1.795120
  3 4.222169 -0.467508 0.000000 -0.019183 -0.537337 0.244585
  4 4.476987 -0.000002 -0.000000 -0.174809 -0.473582 0.555480
  5 4.477083 0.000000 0.000002 -0.067148 0.556847 0.034883
  6 4.477077 -0.000004 -0.000002 0.133695 0.601174 -0.103219
  7 5.413502 -7.700466 -0.000000 0.035621 -0.089526 0.225520
  8 6.890240 0.000002 -0.000000 -0.006328 -0.116884 -0.425726
  9 8.011925 0.000004 0.000005 -0.010360 -0.056170 -0.284328
 10 7.210720 -0.000002 -0.000000 -0.023471 0.005261 -0.279570
 11 8.581028 -0.304903 -0.000000 0.107841 0.300122 0.703642
 12 22.523008 2.194031 6.355708 0.000000 -0.308025 0.000000
 13 22.523005 2.194038 -6.355709 0.000000 -0.064461 0.000000
 14 -3.006533 7.804720 -11.355459 0.213154 0.588122 0.655397
 15 10.384675 0.000008 0.000005 0.252106 0.037286 -0.613844
 16 22.550743 -0.000006 -0.000004 0.052291 0.006964 0.881585
 17 30.814247 -0.000015 -0.000004 2.658508 -0.253380 0.781448
 18 -3.013796 7.815494 11.355459 0.194244 -0.551463 0.370406
 19 10.374533 -0.000002 0.000007 -0.667994 -0.082133 -0.974368
 20 22.550726 -0.000027 -0.000013 -0.089445 -0.012937 1.152167
 21 30.814270 -0.000023 0.000002 -2.697511 -0.479408 0.777156
 22 -4.250660 -0.770624 0.000001 -0.036589 -0.255270 2.981817
 23 10.363422 0.000000 0.000000 -0.012464 0.253047 -0.048539
 24 10.363076 0.000000 -0.000000 -0.025467 0.209020 -0.017318
 25 10.363081 -0.000004 -0.000002 -0.043470 0.086751 0.343732
 26 8.210358 -0.000006 -7.703991 0.000000 0.000000 -0.000000
 27 8.210346 -0.000002 7.704017 0.000000 0.000000 -0.000000
 28 1.854841 1.227791 -13.762345 2.673293 0.178657 2.191914
 29 10.456543 -0.000004 0.000004 0.070635 0.086159 -1.156101
 30 24.248093 0.000001 0.000007 0.024126 0.029141 0.847642
 31 26.336971 0.000019 0.000002 0.564632 0.017612 0.683362
 32 1.854847 1.227798 13.762341 -2.581645 0.018058 1.645542
 33 10.456542 -0.000008 0.000004 -0.000698 -0.087154 -1.898356
 34 24.248116 0.000002 -0.000004 -0.042804 -0.038711 1.400598
 35 26.336975 0.000000 0.000004 -0.148463 -0.084436 0.346755
time 26
  0 0.000000 0.000000 0.000000 0.000000 -0.000000 -1.570796
  1 0.000000 0.000000 0.000000 0.000000 -0.000000 0.000000
  2 -8.398694 -17.014515 33.043472 -1.542709 -0.223983 1.784095
  3 4.222169 -0.467508 0.000000 -0.005904 -0.508474 0.219760
  4 4.476987 -0.000002 -0.000000 -0.158414 -0.438456 0.535081
  5 4.477083 0.000000 0.000002 -0.060341 0.542906 0.049586
  6 4.477077 -0.000004 -0.000002 0.132413 0.569565 -0.096943
  7 5.413502 -7.700466 -0.000000 0.035568 -0.088456 0.102242
  8 6.890240 0.000002 -0.000000 -0.004290 -0.118623 -0.381697
  9 8.011925 0.000004 0.000005 -0.008369 -0.064845 -0.272674
 10 7.210720 -0.000002 -0.000000 -0.018886 -0.004220 -0.283915
 11 8.581028 -0.304903 -0.000000 0.115603 0.308333 0.748961
 12 22.523008 2.194031 6.355708 0.000000 -0.235800 0.000000
 13 22.523005 2.194038 -6.355709 0.000000 -0.049851 0.000000
 14 -3.006533 7.804720 -11.355459 0.208216 0.553816 0.649972
 15 10.384675 0.000008 0.000005 0.239930 0.040893 -0.662608
 16 22.550743 -0.000006 -0.000004 0.053106 0.007969 0.932312
 17 30.814247 -0.000015 -0.000004 2.659294 -0.242283 0.750865
 18 -3.013796 7.815494 11.355459 0.171231 -0.616968 0.403352
 19 10.374533 -0.000002 0.000007 -0.680532 -0.098977 -1.044472
 20 22.550726 -0.000027 -0.000013 -0.097698 -0.012073 1.235049
 21 30.814270 -0.000023 0.000002 -2.702703 -0.451906 0.737885
 22 -4.250660 -0.770624 0.000001 -0.028655 -0.319541 2.949170
 23 10.363422 0.000000 0.000000 -0.023238 0.259878 -0.049155
 24 10.363076 0.000000 -0.000000 -0.040352 0.231443 -0.106027
 25 10.363081 -0.000004 -0.000002 -0.049995 0.120321 0.266680
 26 8.210358 -0.000006 -7.703991 0.000000 0.000000 -0.000000
 27 8.210346 -0.000002 7.704017 0.000000 0.000000 -0.000000
 28 1.854841 1.227791 -13.762345 2.669115 0.186354 2.196598
 29 10.456543 -0.000004 0.000004 0.071858 0.085608 -1.141555
 30 24.248093 0.000001 0.000007 0.023793 0.028798 0.833493
 31 26.336971 0.000019 0.000002 0.559629 0.022763 0.685516
 32 1.854847 1.227798 13.762341 -2.593124 0.013133 1.668720
 33 10.456542 -0.000008 0.000004 -0.002834 -0.087877 -1.874788
 34 24.248116 0.000002 -0.000004 -0.042247 -0.038603 1.384351
 35 26.336975 0.000000 0.000004 -0.150950 -0.077611 0.358454
time 27
  0 0.000000 0.000000 0.000000 0.000000 -0.000000 -1.570796
  1 0.000000 0.000000 0.000000 0.000000 -0.000000 0.000000
  2 -8.445570 -16.549658 33.066910 -1.544435 -0.224941 1.772208
  3 4.222169 -0.467508 0.000000 0.010048 -0.424479 0.155236
  4 4.476987 -0.000002 -0.000000 -0.128896 -0.357389 0.478611
  5 4.477083 0.000000 0.000002 -0.053030 0.474335 0.087411
  6 4.477077 -0.000004 -0.000002 0.111967 0.474795 -0.079813
  7 5.413502 -7.700466 -0.000000 0.035342 -0.087250 -0.026948
  8 6.890240 0.000002 -0.000000 -0.002661 -0.120034 -0.338714
  9 8.011925 0.000004 0.000005 -0.005985 -0.074446 -0.249858
 10 7.210720 -0.000002 -0.000000 -0.014357 -0.013471 -0.287750
 11 8.581028 -0.304903 -0.000000 0.124007 0.316665 0.794106
 12 22.523008 2.194031 6.355708 0.000000 -0.155234 0.000000
 13 22.523005 2.194038 -6.355709 0.000000 -0.033607 0.000000
 14 -3.006533 7.804720 -11.355459 0.205232 0.516012 0.651071
 15 10.384675 0.000008 0.000005 0.227678 0.052647 -0.757358
 16 22.550743 -0.000006 -0.000004 0.057504 0.009260 1.041452
 17 30.814247 -0.000015 -0.000004 2.659993 -0.226390 0.701015
 18 -3.013796 7.815494 11.355459 0.146742 -0.685910 0.453683
 19 10.374533 -0.000002 0.000007 -0.691385 -0.126651 -1.140960
 20 22.550726 -0.000027 -0.000013 -0.108300 -0.004987 1.346591
 21 30.814270 -0.000023 0.000002 -2.709193 -0.409334 0.689661
 22 -4.250660 -0.770624 0.000001 -0.022759 -0.340563 2.945687
 23 10.363422 0.000000 0.000000 -0.033689 0.266458 -0.049881
 24 10.363076 0.000000 -0.000000 -0.043864 0.232078 -0.159582
 25 10.363081 -0.000004 -0.000002 -0.051300 0.132554 0.211563
 26 8.210358 -0.000006 -7.703991 0.000000 0.000000 -0.000000
 27 8.210346 -0.000002 7.704017 0.000000 0.000000 -0.000000
 28 1.854841 1.227791 -13.762345 2.665070 0.194175 2.201646
 29 10.456543 -0.000004 0.000004 0.073063 0.085038 -1.126923
 30 24.248093 0.000001 0.000007 0.023570 0.028536 0.822718
 31 26.336971 0.000019 0.000002 0.553973 0.028124 0.687725
 32 1.854847 1.227798 13.762341 -2.605177 0.008098 1.693406
 33 10.456542 -0.000008 0.000004 -0.005208 -0.088656 -1.849289
 34 24.248116 0.000002 -0.000004 -0.041651 -0.038459 1.367240
 35 26.336975 0.000000 0.000004 -0.154167 -0.070507 0.371510
time 28
  0 0.000000 0.000000 0.000000 0.000000 -0.000000 -1.570796
  1 0.000000 0.000000 0.000000 0.000000 -0.000000 0.000000
  2 -8.476821 -16.096519 33.086441 -1.546352 -0.226137 1.759266
  3 4.222169 -0.467508 0.000000 0.016376 -0.279736 0.050200
  4 4.476987 -0.000002 -0.000000 -0.096202 -0.225412 0.385892
  5 4.477083 0.000000 0.000002 -0.052239 0.347950 0.154405
  6 4.477077 -0.000004 -0.000002 0.069134 0.313969 -0.037143
  7 5.413502 -7.700466 -0.000000 0.035090 -0.085822 -0.147115
  8 6.890240 0.000002 -0.000000 -0.001390 -0.120923 -0.300945
  9 8.011925 0.000004 0.000005 -0.003706 -0.084287 -0.224317
 10 7.210720 -0.000002 -0.000000 -0.009910 -0.022404 -0.290807
 11 8.581028 -0.304903 -0.000000 0.131838 0.323528 0.836096
 12 22.523008 2.194031 6.355708 0.000000 -0.081788 0.000000
 13 22.523005 2.194038 -6.355709 0.000000 -0.018331 0.000000
 14 -3.006533 7.804720 -11.355459 0.208596 0.467822 0.679639
 15 10.384675 0.000008 0.000005 0.214120 0.065249 -0.864160
 16 22.550743 -0.000006 -0.000004 0.063054 0.010121 1.159007
 17 30.814247 -0.000015 -0.000004 2.669734 -0.198709 0.622802
 18 -3.013796 7.815494 11.355459 0.147761 -0.766436 0.521685
 19 10.374533 -0.000002 0.000007 -0.688487 -0.155356 -1.236172
 20 22.550726 -0.000027 -0.000013 -0.116593 0.007283 1.452923
 21 30.814270 -0.000023 0.000002 -2.721541 -0.316432 0.635189
 22 -4.250660 -0.770624 0.000001 -0.017797 -0.335492 2.972189
 23 10.363422 0.000000 0.000000 -0.035930 0.258344 -0.072173
 24 10.363076 0.000000 -0.000000 -0.044235 0.228111 -0.204698
 25 10.363081 -0.000004 -0.000002 -0.049626 0.132846 0.176124
 26 8.210358 -0.000006 -7.703991 0.000000 0.000000 -0.000000
 27 8.210346 -0.000002 7.704017 0.000000 0.000000 -0.000000
 28 1.854841 1.227791 -13.762345 2.661200 0.202070 2.207059
 29 10.456543 -0.000004 0.000004 0.074268 0.084451 -1.112377
 30 24.248093 0.000001 0.000007 0.023496 0.028374 0.816739
 31 26.336971 0.000019 0.000002 0.547665 0.033669 0.689934
 32 1.854847 1.227798 13.762341 -2.617670 0.003091 1.719254
 33 10.456542 -0.000008 0.000004 -0.007718 -0.089408 -1.822214
 34 24.248116 0.000002 -0.000004 -0.041003 -0.038268 1.349419
 35 26.336975 0.000000 0.000004 -0.157983 -0.063217 0.385752
time 29
  0 0.000000 0.000000 0.000000 0.000000 -0.000000 -1.570796
  1 0.000000 0.000000 0.000000 0.000000 -0.000000 0.000000
  2 -8.492447 -15.662912 33.098160 -1.548269 -0.227494 1.745845
  3 4.222169 -0.467508 0.000000 0.006644 -0.134381 -0.052244
  4 4.476987 -0.000002 -0.000000 -0.076343 -0.091400 0.297702
  5 4.477083 0.000000 0.000002 -0.060053 0.220499 0.221073
  6 4.477077 -0.000004 -0.000002 0.020237 0.154478 0.013594
  7 5.413502 -7.700466 -0.000000 0.035023 -0.083138 -0.219738
  8 6.890240 0.000002 -0.000000 -0.000419 -0.121629 -0.269878
  9 8.011925 0.000004 0.000005 -0.001650 -0.094399 -0.199398
 10 7.210720 -0.000002 -0.000000 -0.005573 -0.031020 -0.292979
 11 8.581028 -0.304903 -0.000000 0.135306 0.325286 0.862733
 12 22.523008 2.194031 6.355708 0.000000 -0.037732 0.000000
 13 22.523005 2.194038 -6.355709 0.000000 -0.014308 0.000000
 14 -3.006533 7.804720 -11.355459 0.211255 0.417017 0.712808
 15 10.384675 0.000008 0.000005 0.199628 0.076749 -0.965853
 16 22.550743 -0.000006 -0.000004 0.069994 0.010551 1.255254
 17 30.814247 -0.000015 -0.000004 2.676242 -0.166233 0.548063
 18 -3.013796 7.815494 11.355459 0.181974 -0.833211 0.581364
 19 10.374533 -0.000002 0.000007 -0.634357 -0.174126 -1.305058
 20 22.550726 -0.000027 -0.000013 -0.115510 0.033117 1.513595
 21 30.814270 -0.000023 0.000002 -2.747852 -0.183183 0.592822
 22 -4.250660 -0.770624 0.000001 -0.013782 -0.317438 3.028318
 23 10.363422 0.000000 0.000000 -0.033473 0.238737 -0.113435
 24 10.363076 0.000000 -0.000000 -0.044091 0.221927 -0.247026
 25 10.363081 -0.000004 -0.000002 -0.047792 0.132107 0.143478
 26 8.210358 -0.000006 -7.703991 0.000000 0.000000 -0.000000
 27 8.210346 -0.000002 7.704017 0.000000 0.000000 -0.000000
 28 1.854841 1.227791 -13.762345 2.657550 0.210188 2.213202
 29 10.456543 -0.000004 0.000004 0.075491 0.083846 -1.097441
 30 24.248093 0.000001 0.000007 0.023533 0.028354 0.816680
 31 26.336971 0.000019 0.000002 0.540705 0.039397 0.692199
 32 1.854847 1.227798 13.762341 -2.630568 -0.001724 1.745921
 33 10.456542 -0.000008 0.000004 -0.010397 -0.090131 -1.793917
 34 24.248116 0.000002 -0.000004 -0.040291 -0.038052 1.330938
 35 26.336975 0.000000 0.000004 -0.162443 -0.055679 0.401124
time 30
  0 0.000000 0.000000 0.000000 0.000000 -0.000000 -1.570796
  1 0.000000 0.000000 0.000000 0.000000 -0.000000 0.000000
  2 -8.437757 -15.260555 33.090347 -1.550761 -0.229249 1.728110
  3 4.222169 -0.467508 0.000000 -0.003878 -0.054650 -0.105958
  4 4.476987 -0.000002 -0.000000 -0.065197 -0.018493 0.247558
  5 4.477083 0.000000 0.000002 -0.062462 0.152153 0.257134
  6 4.477077 -0.000004 -0.000002 -0.008322 0.069498 0.046577
  7 5.413502 -7.700466 -0.000000 0.033933 -0.078958 -0.243977
  8 6.890240 0.000002 -0.000000 0.000407 -0.119524 -0.248003
  9 8.011925 0.000004 0.000005 -0.000367 -0.101908 -0.171313
 10 7.210720 -0.000002 -0.000000 -0.001318 -0.039565 -0.295124
 11 8.581028 -0.304903 -0.000000 0.136637 0.323562 0.882326
 12 22.523008 2.194031 6.355708 0.000000 -0.001528 0.000000
 13 22.523005 2.194038 -6.355709 0.000000 -0.012402 0.000000
 14 -3.006533 7.804720 -11.355459 0.214456 0.369074 0.746870
 15 10.384675 0.000008 0.000005 0.185285 0.090794 -1.045163
 16 22.550743 -0.000006 -0.000004 0.076695 0.011011 1.304346
 17 30.814247 -0.000015 -0.000004 2.664623 -0.125324 0.526218
 18 -3.013796 7.815494 11.355459 0.207023 -0.836836 0.626280
 19 10.374533 -0.000002 0.000007 -0.566340 -0.187548 -1.373713
 20 22.550726 -0.000027 -0.000013 -0.112140 0.057166 1.568684
 21 30.814270 -0.000023 0.000002 -2.785213 -0.079345 0.568668
 22 -4.250660 -0.770624 0.000001 -0.009887 -0.293014 3.103420
 23 10.363422 0.000000 0.000000 -0.029614 0.212958 -0.166403
 24 10.363076 0.000000 -0.000000 -0.041826 0.200883 -0.267545
 25 10.363081 -0.000004 -0.000002 -0.045945 0.131583 0.110187
 26 8.210358 -0.000006 -7.703991 0.000000 0.000000 -0.000000
 27 8.210346 -0.000002 7.704017 0.000000 0.000000 -0.000000
 28 1.854841 1.227791 -13.762345 2.653373 0.216578 2.215756
 29 10.456543 -0.000004 0.000004 0.076400 0.083384 -1.086109
 30 24.248093 0.000001 0.000007 0.023756 0.028475 0.823310
 31 26.336971 0.000019 0.000002 0.533353 0.045363 0.694739
 32 1.854847 1.227798 13.762341 -2.643870 -0.006212 1.773192
 33 10.456542 -0.000008 0.000004 -0.013178 -0.090855 -1.764634
 34 24.248116 0.000002 -0.000004 -0.039513 -0.037800 1.311898
 35 26.336975 0.000000 0.000004 -0.167246 -0.047769 0.417514
time 31
  0 0.000000 0.000000 0.000000 0.000000 -0.000000 -1.570796
  1 0.000000 0.000000 0.000000 0.000000 -0.000000 0.000000
  2 -7.965087 -14.834761 32.988781 -1.555938 -0.232919 1.690244
  3 4.222169 -0.467508 0.000000 -0.004813 -0.039690 -0.088248
  4 4.476987 -0.000002 -0.000000 -0.052146 -0.012689 0.236415
  5 4.477083 0.000000 0.000002 -0.052587 0.139876 0.233049
  6 4.477077 -0.000004 -0.000002 -0.009101 0.058636 0.032624
  7 5.413502 -7.700466 -0.000000 0.029760 -0.065331 -0.245221
  8 6.890240 0.000002 -0.000000 0.001702 -0.094312 -0.263013
  9 8.011925 0.000004 0.000005 -0.002711 -0.089750 -0.121503
 10 7.210720 -0.000002 -0.000000 0.000329 -0.039141 -0.267851
 11 8.581028 -0.304903 -0.000000 0.126488 0.298705 0.867115
 12 22.523008 2.194031 6.355708 0.000000 -0.000000 0.000000
 13 22.523005 2.194038 -6.355709 0.000000 -0.010345 0.000000
 14 -3.006533 7.804720 -11.355459 0.236974 0.340315 0.802976
 15 10.384675 0.000008 0.000005 0.169224 0.105752 -1.126140
 16 22.550743 -0.000006 -0.000004 0.083556 0.011498 1.352046
 17 30.814247 -0.000015 -0.000004 2.647370 -0.080058 0.511785
 18 -3.013796 7.815494 11.355459 0.198571 -0.782018 0.709558
 19 10.374533 -0.000002 0.000007 -0.471157 -0.196419 -1.465272
 20 22.550726 -0.000027 -0.000013 -0.113243 0.050825 1.641454
 21 30.814270 -0.000023 0.000002 -2.825485 0.017521 0.543761
 22 -4.250660 -0.770624 0.000001 -0.005153 -0.266680 -3.099081
 23 10.363422 0.000000 0.000000 -0.024964 0.183572 -0.226546
 24 10.363076 0.000000 -0.000000 -0.039142 0.179107 -0.282540
 25 10.363081 -0.000004 -0.000002 -0.044098 0.131090 0.078937
 26 8.210358 -0.000006 -7.703991 0.000000 0.000000 -0.000000
 27 8.210346 -0.000002 7.704017 0.000000 0.000000 -0.000000
 28 1.854841 1.227791 -13.762345 2.644402 0.209324 2.189846
 29 10.456543 -0.000004 0.000004 0.074565 0.084380 -1.107211
 30 24.248093 0.000001 0.000007 0.024312 0.029020 0.846872
 31 26.336971 0.000019 0.000002 0.521955 0.051643 0.694684
 32 1.854847 1.227798 13.762341 -2.656329 -0.011547 1.802616
 33 10.456542 -0.000008 0.000004 -0.016230 -0.091551 -1.732672
 34 24.248116 0.000002 -0.000004 -0.038555 -0.037453 1.288999
 35 26.336975 0.000000 0.000004 -0.176209 -0.040230 0.437804
time 32
  0 0.000000 0.000000 0.000000 0.000000 -0.000000 -1.570796
  1 0.000000 0.000000 0.000000 0.000000 -0.000000 0.000000
  2 -6.871304 -14.342558 32.754398 -1.560635 -0.236469 1.654870
  3 4.222169 -0.467508 0.000000 -0.004418 -0.030940 -0.062748
  4 4.476987 -0.000002 -0.000000 -0.038580 -0.013417 0.229023
  5 4.477083 0.000000 0.000002 -0.043802 0.114693 0.165937
  6 4.477077 -0.000004 -0.000002 -0.009341 0.042982 -0.009081
  7 5.413502 -7.700466 -0.000000 0.025227 -0.050447 -0.244817
  8 6.890240 0.000002 -0.000000 0.002433 -0.064918 -0.283329
  9 8.011925 0.000004 0.000005 -0.004754 -0.074925 -0.068733
 10 7.210720 -0.000002 -0.000000 -0.000796 -0.030049 -0.172945
 11 8.581028 -0.304903 -0.000000 0.102674 0.239619 0.825475
 12 22.523008 2.194031 6.355708 0.000000 -0.000000 0.000000
 13 22.523005 2.194038 -6.355709 0.000000 -0.008258 0.000000
 14 -3.006533 7.804720 -11.355459 0.278211 0.304313 0.905437
 15 10.384675 0.000008 0.000005 0.141696 0.132251 -1.258490
 16 22.550743 -0.000006 -0.000004 0.093184 0.013134 1.451562
 17 30.814247 -0.000015 -0.000004 2.604521 -0.003256 0.492984
 18 -3.013796 7.815494 11.355459 0.176883 -0.689759 0.860836
 19 10.374533 -0.000002 0.000007 -0.349280 -0.200406 -1.557236
 20 22.550726 -0.000027 -0.000013 -0.115592 0.040243 1.714720
 21 30.814270 -0.000023 0.000002 -2.866564 0.111818 0.514001
 22 -4.250660 -0.770624 0.000001 0.000276 -0.239976 -3.017194
 23 10.363422 0.000000 0.000000 -0.019283 0.152748 -0.289747
 24 10.363076 0.000000 -0.000000 -0.036433 0.159056 -0.295548
 25 10.363081 -0.000004 -0.000002 -0.042165 0.130335 0.064708
 26 8.210358 -0.000006 -7.703991 0.000000 0.000000 -0.000000
 27 8.210346 -0.000002 7.704017 0.000000 0.000000 -0.000000
 28 1.854841 1.227791 -13.762345 2.635432 0.200245 2.161078
 29 10.456543 -0.000004 0.000004 0.069377 0.086622 -1.166217
 30 24.248093 0.000001 0.000007 0.025350 0.030009 0.888313
 31 26.336971 0.000019 0.000002 0.484106 0.057871 0.672980
 32 1.854847 1.227798 13.762341 -2.660481 -0.028977 1.852677
 33 10.456542 -0.000008 0.000004 -0.021487 -0.092413 -1.677930
 34 24.248116 0.000002 -0.000004 -0.036871 -0.036722 1.241577
 35 26.336975 0.000000 0.000004 -0.213646 -0.037873 0.478665
time 33
  0 0.000000 0.000000 0.000000 0.000000 -0.000000 -1.570796
  1 0.000000 0.000000 0.000000 0.000000 -0.000000 0.000000
  2 -5.429853 -13.846451 32.445793 -1.564470 -0.239461 1.625440
  3 4.222169 -0.467508 0.000000 -0.003866 -0.021745 -0.037938
  4 4.476987 -0.000002 -0.000000 -0.025109 -0.013567 0.221410
  5 4.477083 0.000000 0.000002 -0.033579 0.087943 0.095845
  6 4.477077 -0.000004 -0.000002 -0.009317 0.025655 -0.052436
  7 5.413502 -7.700466 -0.000000 0.020748 -0.035698 -0.244630
  8 6.890240 0.000002 -0.000000 0.002541 -0.036909 -0.302528
  9 8.011925 0.000004 0.000005 -0.006011 -0.060260 -0.016457
 10 7.210720 -0.000002 -0.000000 -0.001235 -0.020127 -0.073935
 11 8.581028 -0.304903 -0.000000 0.070617 0.168821 0.773111
 12 22.523008 2.194031 6.355708 0.000000 -0.000000 0.000000
 13 22.523005 2.194038 -6.355709 0.000000 -0.006201 0.000000
 14 -3.006533 7.804720 -11.355459 0.326448 0.261175 1.028018
 15 10.384675 0.000008 0.000005 0.109648 0.155971 -1.396839
 16 22.550743 -0.000006 -0.000004 0.103179 0.013880 1.555800
 17 30.814247 -0.000015 -0.000004 2.557697 0.075521 0.470387
 18 -3.013796 7.815494 11.355459 0.149797 -0.562823 1.037138
 19 10.374533 -0.000002 0.000007 -0.228077 -0.194558 -1.645374
 20 22.550726 -0.000027 -0.000013 -0.117430 0.022909 1.764412
 21 30.814270 -0.000023 0.000002 -2.885998 0.177023 0.474814
 22 -4.250660 -0.770624 0.000001 0.005633 -0.214268 -2.937790
 23 10.363422 0.000000 0.000000 -0.012788 0.123314 -0.350418
 24 10.363076 0.000000 -0.000000 -0.033785 0.140720 -0.306259
 25 10.363081 -0.000004 -0.000002 -0.040244 0.129580 0.052224
 26 8.210358 -0.000006 -7.703991 0.000000 0.000000 -0.000000
 27 8.210346 -0.000002 7.704017 0.000000 0.000000 -0.000000
 28 1.854841 1.227791 -13.762345 2.627648 0.191338 2.134074
 29 10.456543 -0.000004 0.000004 0.063821 0.088651 -1.228133
 30 24.248093 0.000001 0.000007 0.026647 0.031098 0.932477
 31 26.336971 0.000019 0.000002 0.449826 0.062417 0.652877
 32 1.854847 1.227798 13.762341 -2.664702 -0.047474 1.904719
 33 10.456542 -0.000008 0.000004 -0.026879 -0.092970 -1.620824
 34 24.248116 0.000002 -0.000004 -0.035368 -0.036062 1.199436
 35 26.336975 0.000000 0.000004 -0.247309 -0.035112 0.514610
time 34
  0 0.000000 0.000000 0.000000 0.000000 -0.000000 -1.570796
  1 0.000000 0.000000 0.000000 0.000000 -0.000000 0.000000
  2 -3.964965 -13.401123 32.129379 -1.567537 -0.241894 1.601569
  3 4.222169 -0.467508 0.000000 -0.003087 -0.012532 -0.012975
  4 4.476987 -0.000002 -0.000000 -0.011566 -0.013588 0.213752
  5 4.477083 0.000000 0.000002 -0.021463 0.061936 0.025412
  6 4.477077 -0.000004 -0.000002 -0.008538 0.008310 -0.095916
  7 5.413502 -7.700466 -0.000000 0.016242 -0.020882 -0.244506
  8 6.890240 0.000002 -0.000000 0.002253 -0.012443 -0.319446
  9 8.011925 0.000004 0.000005 -0.006483 -0.045466 0.036002
 10 7.210720 -0.000002 -0.000000 -0.000961 -0.011193 0.015018
 11 8.581028 -0.304903 -0.000000 0.041821 0.095531 0.722534
 12 22.523008 2.194031 6.355708 0.000000 -0.000000 0.000000
 13 22.523005 2.194038 -6.355709 0.000000 -0.004114 0.000000
 14 -3.006533 7.804720 -11.355459 0.369367 0.212066 1.149158
 15 10.384675 0.000008 0.000005 0.074725 0.174939 -1.534909
 16 22.550743 -0.000006 -0.000004 0.113095 0.013651 1.659069
 17 30.814247 -0.000015 -0.000004 2.509650 0.151822 0.444173
 18 -3.013796 7.815494 11.355459 0.147251 -0.432412 1.198962
 19 10.374533 -0.000002 0.000007 -0.136399 -0.193794 -1.687182
 20 22.550726 -0.000027 -0.000013 -0.119984 0.005359 1.811312
 21 30.814270 -0.000023 0.000002 -2.888910 0.203667 0.433284
 22 -4.250660 -0.770624 0.000001 0.010475 -0.191159 -2.866017
 23 10.363422 0.000000 0.000000 -0.006112 0.097439 -0.404223
 24 10.363076 0.000000 -0.000000 -0.031256 0.123882 -0.314777
 25 10.363081 -0.000004 -0.000002 -0.038287 0.128856 0.039579
 26 8.210358 -0.000006 -7.703991 0.000000 0.000000 -0.000000
 27 8.210346 -0.000002 7.704017 0.000000 0.000000 -0.000000
 28 1.854841 1.227791 -13.762345 2.621316 0.182604 2.109138
 29 10.456543 -0.000004 0.000004 0.058126 0.090323 -1.290179
 30 24.248093 0.000001 0.000007 0.027945 0.032047 0.974096
 31 26.336971 0.000019 0.000002 0.422114 0.065676 0.636751
 32 1.854847 1.227798 13.762341 -2.669327 -0.064356 1.952797
 33 10.456542 -0.000008 0.000004 -0.031831 -0.093248 -1.567776
 34 24.248116 0.000002 -0.000004 -0.034137 -0.035559 1.165266
 35 26.336975 0.000000 0.000004 -0.274111 -0.032072 0.543377
time 35
  0 0.000000 0.000000 0.000000 0.000000 -0.000000 -1.570796
  1 0.000000 0.000000 0.000000 0.000000 -0.000000 0.000000
  2 -2.832118 -13.084707 31.887184 -1.569742 -0.243649 1.583451
  3 4.222169 -0.467508 0.000000 -0.002104 -0.003486 0.011590
  4 4.476987 -0.000002 -0.000000 0.001892 -0.013524 0.206116
  5 4.477083 0.000000 0.000002 -0.007872 0.037286 -0.043850
  6 4.477077 -0.000004 -0.000002 -0.007028 -0.008716 -0.138601
  7 5.413502 -7.700466 -0.000000 0.011763 -0.006168 -0.244474
  8 6.890240 0.000002 -0.000000 0.001930 0.005633 -0.332222
  9 8.011925 0.000004 0.000005 -0.006208 -0.030929 0.087448
 10 7.210720 -0.000002 -0.000000 -0.000384 -0.004378 0.084903
 11 8.581028 -0.304903 -0.000000 0.017296 0.022361 0.675181
 12 22.523008 2.194031 6.355708 0.000000 -0.000000 0.000000
 13 22.523005 2.194038 -6.355709 0.000000 -0.002057 0.000000
 14 -3.006533 7.804720 -11.355459 0.404908 0.159530 1.264460
 15 10.384675 0.000008 0.000005 0.043985 0.187414 -1.636991
 16 22.550743 -0.000006 -0.000004 0.119763 0.013823 1.732495
 17 30.814247 -0.000015 -0.000004 2.487024 0.189534 0.425013
 18 -3.013796 7.815494 11.355459 0.135898 -0.332679 1.320088
 19 10.374533 -0.000002 0.000007 -0.047890 -0.190273 -1.725916
 20 22.550726 -0.000027 -0.000013 -0.121495 -0.004201 1.821548
 21 30.814270 -0.000023 0.000002 -2.879859 0.200438 0.415461
 22 -4.250660 -0.770624 0.000001 0.014370 -0.173314 -2.810605
 23 10.363422 0.000000 0.000000 -0.000515 0.077676 -0.445638
 24 10.363076 0.000000 -0.000000 -0.028919 0.108697 -0.320997
 25 10.363081 -0.000004 -0.000002 -0.036342 0.128147 0.027014
 26 8.210358 -0.000006 -7.703991 0.000000 0.000000 -0.000000
 27 8.210346 -0.000002 7.704017 0.000000 0.000000 -0.000000
 28 1.854841 1.227791 -13.762345 2.616875 0.174314 2.087060
 29 10.456543 -0.000004 0.000004 0.052448 0.091605 -1.351053
 30 24.248093 0.000001 0.000007 0.029094 0.032753 1.007841
 31 26.336971 0.000019 0.000002 0.400971 0.068015 0.624657
 32 1.854847 1.227798 13.762341 -2.673345 -0.077818 1.991700
 33 10.456542 -0.000008 0.000004 -0.035900 -0.093332 -1.524424
 34 24.248116 0.000002 -0.000004 -0.033205 -0.035211 1.139270
 35 26.336975 0.000000 0.000004 -0.293923 -0.029373 0.564853
time 36
  0 0.000000 0.000000 0.000000 0.000000 -0.000000 -1.570796
  1 0.000000 0.000000 0.000000 0.000000 -0.000000 0.000000
  2 -2.363353 -12.959703 31.785618 -1.570988 -0.244686 1.570988
  3 4.222169 -0.467508 0.000000 -0.002069 0.000018 0.022093
  4 4.476987 -0.000002 -0.000000 0.015327 -0.013331 0.198502
  5 4.477083 0.000000 0.000002 -0.004349 0.026123 -0.067772
  6 4.477077 -0.000004 -0.000002 -0.006321 -0.017097 -0.152773
  7 5.413502 -7.700466 -0.000000 0.007297 0.008547 -0.244474
  8 6.890240 0.000002 -0.000000 0.001953 0.017148 -0.340157
  9 8.011925 0.000004 0.000005 -0.006810 -0.024538 0.104449
 10 7.210720 -0.000002 -0.000000 0.000000 0.000000 0.130654
 11 8.581028 -0.304903 -0.000000 0.007192 -0.002445 0.657761
 12 22.523008 2.194031 6.355708 0.000000 -0.000000 0.000000
 13 22.523005 2.194038 -6.355709 0.000000 -0.000000 0.000000
 14 -3.006533 7.804720 -11.355459 0.417062 0.139533 1.305664
 15 10.384675 0.000008 0.000005 0.030987 0.190809 -1.678201
 16 22.550743 -0.000006 -0.000004 0.121603 0.013421 1.761793
 17 30.814247 -0.000015 -0.000004 2.464267 0.225740 0.405174
 18 -3.013796 7.815494 11.355459 0.129381 -0.291650 1.369678
 19 10.374533 -0.000002 0.000007 -0.019780 -0.191668 -1.738151
 20 22.550726 -0.000027 -0.000013 -0.123048 -0.013506 1.830791
 21 30.814270 -0.000023 0.000002 -2.870423 0.196621 0.398252
 22 -4.250660 -0.770624 0.000001 0.016515 -0.162675 -2.777702
 23 10.363422 0.000000 0.000000 0.002661 0.066003 -0.470131
 24 10.363076 0.000000 -0.000000 -0.026810 0.095059 -0.325023
 25 10.363081 -0.000004 -0.000002 -0.034384 0.127470 0.014423
 26 8.210358 -0.000006 -7.703991 0.000000 0.000000 -0.000000
 27 8.210346 -0.000002 7.704017 0.000000 0.000000 -0.000000
 28 1.854841 1.227791 -13.762345 2.614544 0.166567 2.068388
 29 10.456543 -0.000004 0.000004 0.051033 0.091640 -1.369420
 30 24.248093 0.000001 0.000007 0.029835 0.033116 1.029271
 31 26.336971 0.000019 0.000002 0.386223 0.069828 0.616539
 32 1.854847 1.227798 13.762341 -2.675642 -0.086465 2.016859
 33 10.456542 -0.000008 0.000004 -0.038783 -0.093415 -1.495575
 34 24.248116 0.000002 -0.000004 -0.032583 -0.035020 1.121144
 35 26.336975 0.000000 0.000004 -0.307002 -0.027418 0.579152
end
