version 1
nodes
  0 "Chaurus" -1
  1 "NPC Root [Root]" 0
  2 "Pelvis [Pelv]" 1
  3 "Spine[Spn0]" 2
  4 "Spine[Spn1]" 3
  5 "Spine[Spn2]" 4
  6 "Ribcage[Spn3]" 5
  7 "[Neck0]" 6
  8 "[Neck1]" 7
  9 "[Neck2]" 8
 10 "[Neck3]" 9
 11 "NPC Head [Head]" 10
 12 "Head[LeftPincher]" 11
 13 "Head[RightPincher]" 11
 14 "R UpperArm[RClv]" 6
 15 "R UpperArm[RUar]" 14
 16 "R UpperArm[RLar]" 15
 17 "R UpperArm[RHnd]" 16
 18 "L UpperArm[RClv]" 6
 19 "L UpperArm[LUar]" 18
 20 "L UpperArm[LLar]" 19
 21 "L UpperArm[LHnd]" 20
 22 "Tail[Tal0]" 2
 23 "Tail[Tal1]" 22
 24 "Tail[Tal2]" 23
 25 "Tail[Tal3]" 24
 26 "[TalRightPincher]" 25
 27 "[TalLeftPincher]" 25
 28 "R Leg[RThg0]" 2
 29 "R Leg[RThg1]" 28
 30 "R Leg[RClf]" 29
 31 "R Leg[RAnkle]" 30
 32 "LLeg[RThg0]" 2
 33 "LLeg[LThg1]" 32
 34 "LLeg[LClf]" 33
 35 "LLeg[LAnkle]" 34
end
skeleton
time 0
  0 0.000000 0.000000 0.000000 0.000000 0.000000 3.141593
  1 0.000000 0.000000 0.000000 0.000000 -0.000000 0.000000
  2 0.000000 -12.959703 31.785618 -1.570988 -0.244686 1.570988
  3 4.222169 -0.467508 0.000000 0.006189 -0.175757 -0.156758
  4 4.476987 -0.000002 -0.000000 0.017724 -0.164371 0.045673
  5 4.477083 0.000000 0.000002 0.007468 0.179016 0.083232
  6 4.477077 -0.000004 -0.000002 0.008911 0.158969 0.024962
  7 5.413502 -7.700466 -0.000000 0.007297 0.008547 -0.244474
  8 6.890240 0.000002 -0.000000 0.001953 0.017148 -0.340157
  9 8.011925 0.000004 0.000005 -0.006810 -0.024538 0.104449
 10 7.210720 -0.000002 -0.000000 0.000000 0.000000 0.130654
 11 8.581028 -0.304903 -0.000000 0.007192 -0.002445 0.657761
 12 22.523008 2.194031 6.355708 0.000000 -0.004736 0.000000
 13 22.523005 2.194038 -6.355709 0.000000 0.005142 0.000000
 14 -3.006533 7.804720 -11.355459 0.422108 0.143843 1.316858
 15 10.384675 0.000008 0.000005 0.054070 0.189685 -1.544129
 16 22.550743 -0.000006 -0.000004 0.118804 0.013794 1.635582
 17 30.814247 -0.000015 -0.000004 2.455182 0.213860 0.397438
 18 -3.013796 7.815494 11.355459 -0.184089 -0.101414 1.365574
 19 10.374533 -0.000002 0.000007 -0.038722 -0.190671 -1.633139
 20 22.550726 -0.000027 -0.000013 -0.120168 -0.014115 1.719311
 21 30.814270 -0.000023 0.000002 -2.673867 -0.110956 0.365089
 22 -4.250660 -0.770624 0.000001 0.016515 -0.162675 -2.777702
 23 10.363422 0.000000 0.000000 0.002661 0.066003 -0.470131
 24 10.363076 0.000000 -0.000000 -0.026810 0.095059 -0.325023
 25 10.363081 -0.000004 -0.000002 -0.034384 0.127470 0.014423
 26 9.253358 -0.000006 -3.973408 0.000000 0.000000 0.177086
 27 8.210346 -0.000002 7.704017 0.000000 0.000000 0.169444
 28 1.854841 1.227791 -13.762345 2.561556 0.058158 2.072463
 29 10.456543 -0.000004 0.000004 0.044063 0.092530 -1.434852
 30 24.248093 0.000001 0.000007 0.031689 0.034165 1.077343
 31 26.336971 0.000019 0.000002 0.412673 -0.040910 0.593565
 32 1.854847 1.227798 13.762341 -2.644883 -0.126085 2.041243
 33 10.456542 -0.000008 0.000004 -0.044379 -0.093081 -1.439454
 34 24.248116 0.000002 -0.000004 -0.031158 -0.034480 1.080526
 35 26.336975 0.000000 0.000004 -0.346497 -0.048699 0.600911
time 1
  0 0.000000 0.000000 0.000000 0.000000 0.000000 3.141593
  1 0.000000 0.000000 0.000000 0.000000 -0.000000 0.000000
  2 0.000000 -12.959703 31.785618 -1.570988 -0.244686 1.570988
  3 4.222169 -0.467508 0.000000 0.006189 -0.175757 -0.156758
  4 4.476987 -0.000002 -0.000000 0.017724 -0.164371 0.045673
  5 4.477083 0.000000 0.000002 0.007468 0.179016 0.083232
  6 4.477077 -0.000004 -0.000002 0.008911 0.158969 0.024962
  7 5.413502 -7.700466 -0.000000 0.007297 0.008547 -0.244474
  8 6.890240 0.000002 -0.000000 0.001953 0.017148 -0.340157
  9 8.011925 0.000004 0.000005 -0.006810 -0.024538 0.104449
 10 7.210720 -0.000002 -0.000000 0.000000 0.000000 0.130654
 11 8.581028 -0.304903 -0.000000 0.007192 -0.002445 0.657761
 12 22.523008 2.194031 6.355708 0.000000 -0.004736 0.000000
 13 22.523005 2.194038 -6.355709 0.000000 0.005142 0.000000
 14 -3.006533 7.804720 -11.355459 0.422108 0.143843 1.316858
 15 10.384675 0.000008 0.000005 0.054070 0.189685 -1.544129
 16 22.550743 -0.000006 -0.000004 0.118804 0.013794 1.635582
 17 30.814247 -0.000015 -0.000004 2.455182 0.213860 0.397438
 18 -3.013796 7.815494 11.355459 -0.184089 -0.101414 1.365574
 19 10.374533 -0.000002 0.000007 -0.038722 -0.190671 -1.633139
 20 22.550726 -0.000027 -0.000013 -0.120168 -0.014115 1.719311
 21 30.814270 -0.000023 0.000002 -2.673867 -0.110956 0.365089
 22 -4.250660 -0.770624 0.000001 0.016515 -0.162675 -2.777702
 23 10.363422 0.000000 0.000000 0.002661 0.066003 -0.470131
 24 10.363076 0.000000 -0.000000 -0.026810 0.095059 -0.325023
 25 10.363081 -0.000004 -0.000002 -0.034384 0.127470 0.014423
 26 9.253358 -0.000006 -3.973408 0.000000 0.000000 0.177086
 27 8.210346 -0.000002 7.704017 0.000000 0.000000 0.169444
 28 1.854841 1.227791 -13.762345 2.561556 0.058158 2.072463
 29 10.456543 -0.000004 0.000004 0.044063 0.092530 -1.434852
 30 24.248093 0.000001 0.000007 0.031689 0.034165 1.077343
 31 26.336971 0.000019 0.000002 0.412673 -0.040910 0.593565
 32 1.854847 1.227798 13.762341 -2.644883 -0.126085 2.041243
 33 10.456542 -0.000008 0.000004 -0.044379 -0.093081 -1.439454
 34 24.248116 0.000002 -0.000004 -0.031158 -0.034480 1.080526
 35 26.336975 0.000000 0.000004 -0.346497 -0.048699 0.600911
time 2
  0 -0.000000 14.687948 0.000000 0.000000 0.000000 3.141593
  1 0.000000 0.000000 0.000000 0.000000 -0.000000 0.000000
  2 0.000000 -20.663063 30.199635 -1.571659 -0.068373 1.571468
  3 4.222169 -0.467508 0.000000 0.008897 -0.175887 -0.164103
  4 4.476987 -0.000002 -0.000000 0.019809 -0.164842 0.048381
  5 4.477083 0.000000 0.000002 0.010764 0.179566 0.100217
  6 4.477077 -0.000004 -0.000002 0.011069 0.159194 0.035193
  7 5.413502 -7.700466 -0.000000 0.012162 0.018486 -0.205114
  8 6.890240 0.000002 -0.000000 -0.003140 0.011083 -0.319865
  9 8.011925 0.000004 0.000005 0.000157 -0.027638 0.021622
 10 7.210720 -0.000002 -0.000000 -0.000082 -0.003496 0.029499
 11 8.581028 -0.304903 -0.000000 0.005837 -0.002752 0.686292
 12 22.523008 2.194031 6.355708 0.000000 -0.004736 0.000000
 13 22.523005 2.194038 -6.355709 0.000000 0.005173 0.000000
 14 -3.006533 7.804720 -11.355459 0.292861 0.187688 0.940597
 15 10.384675 0.000008 0.000005 0.094895 0.179946 -1.302311
 16 22.550743 -0.000006 -0.000004 0.113047 0.014110 1.396538
 17 30.814247 -0.000015 -0.000004 2.589626 0.230348 0.606221
 18 -3.013796 7.815494 11.355459 -0.039802 -0.150477 0.977231
 19 10.374533 -0.000002 0.000007 -0.082539 -0.184093 -1.384324
 20 22.550726 -0.000027 -0.000013 -0.115265 -0.014527 1.476869
 21 30.814270 -0.000023 0.000002 -2.794018 -0.078757 0.589280
 22 -4.250660 -0.770624 0.000001 0.012476 -0.136790 -2.793731
 23 10.363422 0.000000 0.000000 0.003416 0.061018 -0.365250
 24 10.363076 0.000000 -0.000000 -0.019511 0.079371 -0.269119
 25 10.363081 -0.000004 -0.000002 -0.034002 0.114005 -0.098067
 26 9.253358 -0.000006 -3.973408 0.000000 0.000000 -0.578034
 27 8.210346 -0.000002 7.704017 0.000000 0.000000 -0.585951
 28 1.854841 1.227791 -13.762345 2.415476 0.001955 1.864396
 29 10.456543 -0.000004 0.000004 0.011376 0.080750 -1.717903
 30 24.248093 0.000001 0.000007 0.049187 0.033580 1.499151
 31 26.336971 0.000019 0.000002 0.553016 -0.107132 0.375477
 32 1.854847 1.227798 13.762341 -2.521648 -0.091609 1.842466
 33 10.456542 -0.000008 0.000004 -0.021589 -0.085122 -1.695626
 34 24.248116 0.000002 -0.000004 -0.045265 -0.028704 1.516919
 35 26.336975 0.000000 0.000004 -0.466741 -0.004897 0.373092
time 3
  0 -0.000000 28.875881 0.000000 0.000000 0.000000 3.141593
  1 0.000000 0.000000 0.000000 0.000000 -0.000000 0.000000
  2 0.000000 -30.698526 24.375237 -1.571468 0.133987 1.570221
  3 4.222169 -0.467508 0.000000 0.011450 -0.175943 -0.171249
  4 4.476987 -0.000002 -0.000000 0.021583 -0.165013 0.050778
  5 4.477083 0.000000 0.000002 0.014072 0.180066 0.117233
  6 4.477077 -0.000004 -0.000002 0.013154 0.159288 0.045425
  7 5.413502 -7.700466 -0.000000 0.018754 0.029310 -0.136847
  8 6.890240 0.000002 -0.000000 -0.008162 0.005450 -0.301085
  9 8.011925 0.000004 0.000005 0.011198 -0.031648 -0.106630
 10 7.210720 -0.000002 -0.000000 -0.002965 -0.011758 -0.187989
 11 8.581028 -0.304903 -0.000000 0.004275 -0.003077 0.714683
 12 22.523008 2.194031 6.355708 0.000000 -0.011090 0.000000
 13 22.523005 2.194038 -6.355709 0.000000 0.010799 0.000000
 14 -3.006533 7.804720 -11.355459 0.112122 0.242485 0.347260
 15 10.384675 0.000008 0.000005 0.163733 0.135179 -0.835502
 16 22.550743 -0.000006 -0.000004 0.104443 0.010609 0.911912
 17 30.814247 -0.000015 -0.000004 2.756175 0.225333 0.992881
 18 -3.013796 7.815494 11.355459 0.175355 -0.192403 0.372116
 19 10.374533 -0.000002 0.000007 -0.156150 -0.144027 -0.918006
 20 22.550726 -0.000027 -0.000013 -0.106563 -0.012211 0.998067
 21 30.814270 -0.000023 0.000002 -2.919149 0.011306 0.968183
 22 -4.250660 -0.770624 0.000001 0.008066 -0.110857 -2.809735
 23 10.363422 0.000000 0.000000 0.004626 0.052628 -0.139820
 24 10.363076 0.000000 -0.000000 -0.005848 0.055941 -0.178836
 25 10.363081 -0.000004 -0.000002 -0.033818 0.093700 -0.253164
 26 9.253358 -0.000006 -3.973408 0.000000 0.000000 -0.576404
 27 8.210346 -0.000002 7.704017 0.000000 0.000000 -0.584357
 28 1.854841 1.227791 -13.762345 2.247849 0.254055 1.848279
 29 10.456543 -0.000004 0.000004 0.003777 0.067991 -1.770093
 30 24.248093 0.000001 0.000007 0.068946 0.020626 2.134913
 31 26.336971 0.000019 0.000002 0.755961 -0.126052 0.086589
 32 1.854847 1.227798 13.762341 -2.341014 -0.225874 1.725846
 33 10.456542 -0.000008 0.000004 0.000320 -0.074436 -1.899380
 34 24.248116 0.000002 -0.000004 -0.064243 -0.018373 2.105985
 35 26.336975 0.000000 0.000004 -0.667348 0.011886 0.145330
time 4
  0 -0.000001 42.567707 0.000000 0.000000 0.000000 3.141593
  1 0.000000 0.000000 0.000000 0.000000 -0.000000 0.000000
  2 0.000000 -34.507236 22.175951 -1.571276 0.198768 1.570317
  3 4.222169 -0.467508 0.000000 0.013595 -0.175943 -0.177428
  4 4.476987 -0.000002 -0.000000 0.023021 -0.164928 0.052709
  5 4.477083 0.000000 0.000002 0.017391 0.180519 0.134292
  6 4.477077 -0.000004 -0.000002 0.015191 0.159307 0.055641
  7 5.413502 -7.700466 -0.000000 0.026543 0.039878 -0.049102
  8 6.890240 0.000002 -0.000000 -0.012871 0.000562 -0.285563
  9 8.011925 0.000004 0.000005 0.023718 -0.034507 -0.235348
 10 7.210720 -0.000002 -0.000000 -0.003651 -0.020286 -0.403091
 11 8.581028 -0.304903 -0.000000 0.002576 -0.003299 0.742968
 12 22.523008 2.194031 6.355708 0.000000 -0.019920 0.000000
 13 22.523005 2.194038 -6.355709 0.000000 0.016365 0.000000
 14 -3.006533 7.804720 -11.355459 0.031384 0.261493 0.074078
 15 10.384675 0.000008 0.000005 0.198320 0.087697 -0.505820
 16 22.550743 -0.000006 -0.000004 0.099741 0.007136 0.556705
 17 30.814247 -0.000015 -0.000004 2.813788 0.210443 1.185334
 18 -3.013796 7.815494 11.355459 0.254015 -0.181230 0.103644
 19 10.374533 -0.000002 0.000007 -0.194844 -0.101203 -0.603494
 20 22.550726 -0.000027 -0.000013 -0.101538 -0.008677 0.661577
 21 30.814270 -0.000023 0.000002 -2.955563 0.047004 1.148278
 22 -4.250660 -0.770624 0.000001 0.003200 -0.084619 -2.827096
 23 10.363422 0.000000 0.000000 0.004051 0.044024 0.082023
 24 10.363076 0.000000 -0.000000 0.006663 0.029826 -0.082385
 25 10.363081 -0.000004 -0.000002 -0.030346 0.071854 -0.416476
 26 9.253358 -0.000006 -3.973408 0.000000 0.000000 -0.546612
 27 8.210346 -0.000002 7.704017 0.000000 0.000000 -0.554754
 28 1.854841 1.227791 -13.762345 2.208580 0.442130 1.865126
 29 10.456543 -0.000004 0.000004 0.010345 0.067938 -1.663108
 30 24.248093 0.000001 0.000007 0.073803 0.013523 2.336079
 31 26.336971 0.000019 0.000002 0.845535 -0.114910 -0.031871
 32 1.854847 1.227798 13.762341 -2.267647 -0.304896 1.647610
 33 10.456542 -0.000008 0.000004 0.011172 -0.068592 -1.975010
 34 24.248116 0.000002 -0.000004 -0.072262 -0.015641 2.280441
 35 26.336975 0.000000 0.000004 -0.751185 -0.009488 0.099269
time 5
  0 -0.000001 55.763420 0.000000 0.000000 0.000000 3.141593
  1 0.000000 0.000000 0.000000 0.000000 -0.000000 0.000000
  2 0.000000 -34.440830 21.664217 -1.570126 0.211772 1.571468
  3 4.222169 -0.467508 0.000000 0.015117 -0.175887 -0.181921
  4 4.476987 -0.000002 -0.000000 0.024076 -0.164713 0.054086
  5 4.477083 0.000000 0.000002 0.020723 0.180922 0.151426
  6 4.477077 -0.000004 -0.000002 0.017229 0.159251 0.065856
  7 5.413502 -7.700466 -0.000000 0.033827 0.047949 0.052706
  8 6.890240 0.000002 -0.000000 -0.016934 -0.003254 -0.275463
  9 8.011925 0.000004 0.000005 0.032284 -0.035769 -0.311972
 10 7.210720 -0.000002 -0.000000 -0.005929 -0.023622 -0.497005
 11 8.581028 -0.304903 -0.000000 0.001038 -0.003350 0.773181
 12 22.523008 2.194031 6.355708 0.000000 -0.032691 0.000000
 13 22.523005 2.194038 -6.355709 0.000000 0.023534 0.000000
 14 -3.006533 7.804720 -11.355459 0.018687 0.268771 0.035141
 15 10.384675 0.000008 0.000005 0.200599 0.085066 -0.487547
 16 22.550743 -0.000006 -0.000004 0.099517 0.007136 0.534005
 17 30.814247 -0.000015 -0.000004 2.816190 0.203139 1.202344
 18 -3.013796 7.815494 11.355459 0.250910 -0.180744 0.067107
 19 10.374533 -0.000002 0.000007 -0.201382 -0.097914 -0.590389
 20 22.550726 -0.000027 -0.000013 -0.101620 -0.009168 0.644269
 21 30.814270 -0.000023 0.000002 -2.956335 0.039639 1.160606
 22 -4.250660 -0.770624 0.000001 -0.002505 -0.048159 -2.886091
 23 10.363422 0.000000 0.000000 0.003967 0.034496 0.176781
 24 10.363076 0.000000 -0.000000 0.017222 0.002681 0.012260
 25 10.363081 -0.000004 -0.000002 -0.028154 0.048129 -0.469660
 26 9.253358 -0.000006 -3.973408 0.000000 0.000000 -0.481287
 27 8.210346 -0.000002 7.704017 0.000000 0.000000 -0.489581
 28 1.854841 1.227791 -13.762345 2.219178 0.454293 1.884163
 29 10.456543 -0.000004 0.000004 0.010555 0.068205 -1.657984
 30 24.248093 0.000001 0.000007 0.073617 0.012938 2.329389
 31 26.336971 0.000019 0.000002 0.840793 -0.118248 -0.013094
 32 1.854847 1.227798 13.762341 -2.266398 -0.334282 1.711112
 33 10.456542 -0.000008 0.000004 0.004728 -0.058267 -1.919283
 34 24.248116 0.000002 -0.000004 -0.070759 -0.012021 2.285163
 35 26.336975 0.000000 0.000004 -0.772369 0.027955 0.100851
time 6
  0 -0.000001 56.509537 0.000000 0.000000 0.000000 3.141593
  1 0.000000 0.000000 0.000000 0.000000 -0.000000 0.000000
  2 0.000000 -25.901505 21.843910 -1.571180 -0.063188 1.570797
  3 4.222169 -0.467508 0.000000 0.015800 -0.175794 -0.183976
  4 4.476987 -0.000002 -0.000000 0.024687 -0.164392 0.054796
  5 4.477083 0.000000 0.000002 0.024127 0.181294 0.169005
  6 4.477077 -0.000004 -0.000002 0.019338 0.159138 0.076259
  7 5.413502 -7.700466 -0.000000 0.032338 0.047558 0.240580
  8 6.890240 0.000002 -0.000000 -0.019187 -0.005189 -0.279745
  9 8.011925 0.000004 0.000005 0.035794 -0.034875 -0.329311
 10 7.210720 -0.000002 -0.000000 -0.009471 -0.016596 -0.420146
 11 8.581028 -0.304903 -0.000000 0.001749 -0.003435 0.833362
 12 22.523008 2.194031 6.355708 0.000000 -0.050227 0.000000
 13 22.523005 2.194038 -6.355709 0.000000 0.054721 0.000000
 14 -3.006533 7.804720 -11.355459 0.268716 0.278558 0.768296
 15 10.384675 0.000008 0.000005 0.039689 0.191764 -1.625272
 16 22.550743 -0.000006 -0.000004 0.120707 0.014540 1.711006
 17 30.814247 -0.000015 -0.000004 2.576129 0.194173 0.682285
 18 -3.013796 7.815494 11.355459 -0.019335 -0.235786 0.805717
 19 10.374533 -0.000002 0.000007 -0.053755 -0.194459 -1.716638
 20 22.550726 -0.000027 -0.000013 -0.131525 -0.016667 1.792328
 21 30.814270 -0.000023 0.000002 -2.778512 -0.044063 0.659650
 22 -4.250660 -0.770624 0.000001 -0.005513 -0.022419 -3.041596
 23 10.363422 0.000000 0.000000 0.003440 0.027161 0.049806
 24 10.363076 0.000000 -0.000000 0.025407 -0.011964 0.042638
 25 10.363081 -0.000004 -0.000002 -0.025704 0.029749 -0.131760
 26 9.253358 -0.000006 -3.973408 0.000000 0.000000 -0.140942
 27 8.210346 -0.000002 7.704017 0.000000 0.000000 -0.145369
 28 1.854841 1.227791 -13.762345 2.582311 0.327380 2.448577
 29 10.456543 -0.000004 0.000004 0.038734 0.065589 -1.247108
 30 24.248093 0.000001 0.000007 0.063126 0.018427 1.696528
 31 26.336971 0.000019 0.000002 0.472926 -0.128234 0.397733
 32 1.854847 1.227798 13.762341 -2.634011 -0.269079 2.255960
 33 10.456542 -0.000008 0.000004 -0.030033 -0.063026 -1.470234
 34 24.248116 0.000002 -0.000004 -0.059644 -0.016420 1.648370
 35 26.336975 0.000000 0.000004 -0.429090 0.030499 0.483469
time 7
  0 -0.000001 56.759544 0.000000 0.000000 0.000000 3.141593
  1 0.000000 0.000000 0.000000 0.000000 -0.000000 0.000000
  2 0.000000 -7.971271 23.625214 -1.570988 -0.354103 1.570988
  3 4.222169 -0.467508 0.000000 0.015417 -0.175665 -0.182872
  4 4.476987 -0.000002 -0.000000 0.024819 -0.164071 0.054729
  5 4.477083 0.000000 0.000002 0.026572 0.181504 0.181040
  6 4.477077 -0.000004 -0.000002 0.020980 0.158988 0.083999
  7 5.413502 -7.700466 -0.000000 0.027527 0.039046 0.268677
  8 6.890240 0.000002 -0.000000 -0.019499 -0.004718 -0.284190
  9 8.011925 0.000004 0.000005 0.037169 -0.034028 -0.315762
 10 7.210720 -0.000002 -0.000000 -0.011530 -0.009145 -0.334090
 11 8.581028 -0.304903 -0.000000 0.002324 -0.003316 0.887268
 12 22.523008 2.194031 6.355708 0.000000 -0.071736 0.000000
 13 22.523005 2.194038 -6.355709 0.000000 0.087541 0.000000
 14 -3.006533 7.804720 -11.355459 0.886082 0.321590 1.790497
 15 10.384675 0.000008 0.000005 -0.085027 0.158369 -2.337954
 16 22.550743 -0.000006 -0.000004 0.136716 0.009346 2.451928
 17 30.814247 -0.000015 -0.000004 1.946756 -0.103443 0.191162
 18 -3.013796 7.815494 11.355459 -0.588285 -0.210302 1.880857
 19 10.374533 -0.000002 0.000007 0.077964 -0.160472 -2.544900
 20 22.550726 -0.000027 -0.000013 -0.163044 -0.009737 2.583798
 21 30.814270 -0.000023 0.000002 -2.246447 0.156201 0.072621
 22 -4.250660 -0.770624 0.000001 -0.008461 -0.007061 3.109873
 23 10.363422 0.000000 0.000000 0.003859 0.020606 -0.077763
 24 10.363076 0.000000 -0.000000 0.032227 -0.025327 0.064860
 25 10.363081 -0.000004 -0.000002 -0.026110 0.016654 0.196152
 26 9.253358 -0.000006 -3.973408 0.000000 0.000000 0.165570
 27 8.210346 -0.000002 7.704017 0.000000 0.000000 0.165104
 28 1.854841 1.227791 -13.762345 2.867875 0.298810 2.982033
 29 10.456543 -0.000004 0.000004 0.072085 0.044129 -0.680616
 30 24.248093 0.000001 0.000007 0.048408 0.015925 0.908974
 31 26.336971 0.000019 0.000002 0.282598 0.010990 0.829214
 32 1.854847 1.227798 13.762341 -2.915866 -0.296359 2.865645
 33 10.456542 -0.000008 0.000004 -0.071781 -0.052618 -0.803479
 34 24.248116 0.000002 -0.000004 -0.045654 -0.015065 0.882410
 35 26.336975 0.000000 0.000004 -0.256100 -0.094115 0.874734
time 8
  0 -0.000001 56.509537 0.000000 0.000000 0.000000 3.141593
  1 0.000000 0.000000 0.000000 0.000000 -0.000000 0.000000
  2 0.000000 2.193102 29.199604 -1.571755 -0.421198 1.571755
  3 4.222169 -0.467508 0.000000 0.013835 -0.175516 -0.178103
  4 4.476987 -0.000002 -0.000000 0.024411 -0.163792 0.053753
  5 4.477083 0.000000 0.000002 0.020328 0.180680 0.143541
  6 4.477077 -0.000004 -0.000002 0.017828 0.158837 0.067865
  7 5.413502 -7.700466 -0.000000 0.017478 0.035427 0.011261
  8 6.890240 0.000002 -0.000000 -0.019079 0.000000 -0.167577
  9 8.011925 0.000004 0.000005 0.030476 -0.037527 -0.124436
 10 7.210720 -0.000002 -0.000000 -0.009580 -0.003761 -0.262568
 11 8.581028 -0.304903 -0.000000 0.003150 -0.003094 0.870374
 12 22.523008 2.194031 6.355708 0.000000 -0.094986 0.000000
 13 22.523005 2.194038 -6.355709 0.000000 0.119665 0.000000
 14 -3.006533 7.804720 -11.355459 1.322330 0.065445 2.417553
 15 10.384675 0.000008 0.000005 -0.036470 0.182386 -2.043040
 16 22.550743 -0.000006 -0.000004 0.130111 0.011728 2.188368
 17 30.814247 -0.000015 -0.000004 1.497210 -0.508113 -0.020772
 18 -3.013796 7.815494 11.355459 -0.966109 0.053510 2.594786
 19 10.374533 -0.000002 0.000007 0.003274 -0.194259 -2.161386
 20 22.550726 -0.000027 -0.000013 -0.154935 -0.013290 2.294147
 21 30.814270 -0.000023 0.000002 -1.894766 0.611805 -0.380920
 22 -4.250660 -0.770624 0.000001 -0.005968 -0.005729 3.112024
 23 10.363422 0.000000 0.000000 0.003811 0.018317 -0.088414
 24 10.363076 0.000000 -0.000000 0.030932 -0.024440 0.053865
 25 10.363081 -0.000004 -0.000002 -0.027046 0.012310 0.204072
 26 9.253358 -0.000006 -3.973408 0.000000 0.000000 0.171209
 27 8.210346 -0.000002 7.704017 0.000000 0.000000 0.170970
 28 1.854841 1.227791 -13.762345 2.899184 0.307149 2.996569
 29 10.456543 -0.000004 0.000004 0.065883 0.052083 -0.830630
 30 24.248093 0.000001 0.000007 0.049706 0.019113 1.072488
 31 26.336971 0.000019 0.000002 0.273853 0.062523 0.758636
 32 1.854847 1.227798 13.762341 -2.921066 -0.304157 2.883179
 33 10.456542 -0.000008 0.000004 -0.063201 -0.059687 -0.949220
 34 24.248116 0.000002 -0.000004 -0.048322 -0.016384 1.044833
 35 26.336975 0.000000 0.000004 -0.256400 -0.120142 0.804314
time 9
  0 -0.000001 55.763420 0.000000 0.000000 0.000000 3.141593
  1 0.000000 0.000000 0.000000 0.000000 -0.000000 0.000000
  2 0.000000 6.244007 34.688049 -1.571659 -0.423711 1.571660
  3 4.222169 -0.467508 0.000000 0.011198 -0.175349 -0.170191
  4 4.476987 -0.000002 -0.000000 0.023429 -0.163664 0.051777
  5 4.477083 0.000000 0.000002 0.014012 0.179356 0.106294
  6 4.477077 -0.000004 -0.000002 0.014041 0.158593 0.049038
  7 5.413502 -7.700466 -0.000000 0.009371 0.036854 -0.184609
  8 6.890240 0.000002 -0.000000 -0.018121 0.005254 -0.056387
  9 8.011925 0.000004 0.000005 0.024059 -0.040482 0.009837
 10 7.210720 -0.000002 -0.000000 -0.007384 0.000706 -0.196222
 11 8.581028 -0.304903 -0.000000 0.003747 -0.003145 0.858983
 12 22.523008 2.194031 6.355708 0.000000 -0.128776 0.000000
 13 22.523005 2.194038 -6.355709 0.000000 0.158535 0.000000
 14 -3.006533 7.804720 -11.355459 1.567693 0.108371 2.479977
 15 10.384675 0.000008 0.000005 -0.018168 0.187202 -1.941180
 16 22.550743 -0.000006 -0.000004 0.128016 0.012503 2.081043
 17 30.814247 -0.000015 -0.000004 1.231161 -0.448928 0.158681
 18 -3.013796 7.815494 11.355459 -1.196794 0.031725 2.703485
 19 10.374533 -0.000002 0.000007 -0.027128 -0.201369 -2.071509
 20 22.550726 -0.000027 -0.000013 -0.157120 -0.015430 2.206302
 21 30.814270 -0.000023 0.000002 -1.612860 0.684472 -0.183421
 22 -4.250660 -0.770624 0.000001 -0.003020 -0.005312 3.127874
 23 10.363422 0.000000 0.000000 0.003631 0.016543 -0.085993
 24 10.363076 0.000000 -0.000000 0.028643 -0.021863 0.039205
 25 10.363081 -0.000004 -0.000002 -0.027822 0.008751 0.173708
 26 9.253358 -0.000006 -3.973408 0.000000 0.000000 0.141927
 27 8.210346 -0.000002 7.704017 0.000000 0.000000 0.141435
 28 1.854841 1.227791 -13.762345 2.845889 0.328342 2.853094
 29 10.456543 -0.000004 0.000004 0.045967 0.065536 -1.168258
 30 24.248093 0.000001 0.000007 0.055526 0.023673 1.444982
 31 26.336971 0.000019 0.000002 0.311353 0.082048 0.575451
 32 1.854847 1.227798 13.762341 -2.850163 -0.318823 2.737823
 33 10.456542 -0.000008 0.000004 -0.042174 -0.067033 -1.279406
 34 24.248116 0.000002 -0.000004 -0.054735 -0.017654 1.418927
 35 26.336975 0.000000 0.000004 -0.299455 -0.121042 0.620522
time 10
  0 -0.000001 54.517288 0.000000 0.000000 0.000000 3.141593
  1 0.000000 0.000000 0.000000 0.000000 -0.000000 0.000000
  2 -0.015625 7.556547 38.320976 -1.571564 -0.417488 1.571564
  3 4.222169 -0.467508 0.000000 0.007759 -0.175164 -0.159886
  4 4.476987 -0.000002 -0.000000 0.021811 -0.163750 0.048670
  5 4.477083 0.000000 0.000002 0.008798 0.177853 0.075598
  6 4.477077 -0.000004 -0.000002 0.010278 0.158236 0.030521
  7 5.413502 -7.700466 -0.000000 0.007656 0.036225 -0.227268
  8 6.890240 0.000002 -0.000000 -0.017402 0.006757 -0.073165
  9 8.011925 0.000004 0.000005 0.023836 -0.039316 0.008695
 10 7.210720 -0.000002 -0.000000 -0.007878 0.004008 -0.150070
 11 8.581028 -0.304903 -0.000000 0.004161 -0.002906 0.936654
 12 22.523008 2.194031 6.355708 0.000000 -0.229414 0.000000
 13 22.523005 2.194038 -6.355709 0.000000 0.246258 0.000000
 14 -3.006533 7.804720 -11.355459 1.641160 0.480364 2.238934
 15 10.384675 0.000008 0.000005 -0.056378 0.174557 -2.159117
 16 22.550743 -0.000006 -0.000004 0.132989 0.010724 2.310160
 17 30.814247 -0.000015 -0.000004 1.258198 -0.035481 0.401055
 18 -3.013796 7.815494 11.355459 -1.365316 -0.338247 2.469613
 19 10.374533 -0.000002 0.000007 0.019722 -0.194857 -2.414782
 20 22.550726 -0.000027 -0.000013 -0.180244 -0.012662 2.506128
 21 30.814270 -0.000023 0.000002 -1.478958 0.343840 0.295138
 22 -4.250660 -0.770624 0.000001 -0.000156 -0.004830 -3.140819
 23 10.363422 0.000000 0.000000 0.003416 0.014745 -0.084827
 24 10.363076 0.000000 -0.000000 0.026378 -0.019442 0.024958
 25 10.363081 -0.000004 -0.000002 -0.028585 0.005654 0.142055
 26 9.253358 -0.000006 -3.973408 0.000000 0.000000 0.113188
 27 8.210346 -0.000002 7.704017 0.000000 0.000000 0.112578
 28 1.854841 1.227791 -13.762345 2.780016 0.345440 2.697089
 29 10.456543 -0.000004 0.000004 0.031257 0.070856 -1.388480
 30 24.248093 0.000001 0.000007 0.058863 0.025549 1.633183
 31 26.336971 0.000019 0.000002 0.361122 0.097210 0.478087
 32 1.854847 1.227798 13.762341 -2.782333 -0.336006 2.631671
 33 10.456542 -0.000008 0.000004 -0.030678 -0.066004 -1.449110
 34 24.248116 0.000002 -0.000004 -0.058116 -0.016791 1.624354
 35 26.336975 0.000000 0.000004 -0.353659 -0.117691 0.506528
time 11
  0 -0.000001 52.775047 0.000000 0.000000 0.000000 3.141593
  1 0.000000 0.000000 0.000000 0.000000 -0.000000 0.000000
  2 -0.054689 7.251850 40.860115 -1.571563 -0.401453 1.571563
  3 4.222169 -0.467508 0.000000 0.003564 -0.174979 -0.147512
  4 4.476987 -0.000002 -0.000000 0.019474 -0.164135 0.044252
  5 4.477083 0.000000 0.000002 0.004436 0.176351 0.049779
  6 4.477077 -0.000004 -0.000002 0.006431 0.157710 0.011460
  7 5.413502 -7.700466 -0.000000 0.007297 0.033727 -0.267064
  8 6.890240 0.000002 -0.000000 -0.017186 0.007607 -0.135928
  9 8.011925 0.000004 0.000005 0.024989 -0.035977 -0.043477
 10 7.210720 -0.000002 -0.000000 -0.008702 0.007274 -0.107591
 11 8.581028 -0.304903 -0.000000 0.004482 -0.002872 1.057541
 12 22.523008 2.194031 6.355708 0.000000 -0.381013 0.000000
 13 22.523005 2.194038 -6.355709 0.000000 0.366407 0.000000
 14 -3.006533 7.804720 -11.355459 1.318370 0.693300 1.813434
 15 10.384675 0.000008 0.000005 -0.065865 0.170102 -2.216878
 16 22.550743 -0.000006 -0.000004 0.134557 0.009863 2.369906
 17 30.814247 -0.000015 -0.000004 1.562991 0.252355 0.557839
 18 -3.013796 7.815494 11.355459 -1.141045 -0.632251 2.007569
 19 10.374533 -0.000002 0.000007 0.025789 -0.195190 -2.536377
 20 22.550726 -0.000027 -0.000013 -0.194461 -0.010935 2.600982
 21 30.814270 -0.000023 0.000002 -1.731116 -0.032857 0.560580
 22 -4.250660 -0.770624 0.000001 0.002685 -0.004381 -3.126326
 23 10.363422 0.000000 0.000000 0.003176 0.012995 -0.083682
 24 10.363076 0.000000 -0.000000 0.024077 -0.017045 0.010763
 25 10.363081 -0.000004 -0.000002 -0.029521 0.003374 0.104791
 26 9.253358 -0.000006 -3.973408 0.000000 0.000000 0.082445
 27 8.210346 -0.000002 7.704017 0.000000 0.000000 0.081789
 28 1.854841 1.227791 -13.762345 2.689563 0.372382 2.530745
 29 10.456543 -0.000004 0.000004 0.017962 0.072867 -1.578179
 30 24.248093 0.000001 0.000007 0.061754 0.026780 1.789060
 31 26.336971 0.000019 0.000002 0.419895 0.116026 0.399114
 32 1.854847 1.227798 13.762341 -2.712409 -0.355652 2.535126
 33 10.456542 -0.000008 0.000004 -0.021724 -0.063694 -1.579442
 34 24.248116 0.000002 -0.000004 -0.060758 -0.015329 1.800130
 35 26.336975 0.000000 0.000004 -0.417297 -0.118808 0.406154
time 12
  0 -0.000001 50.536697 0.000000 0.000000 0.000000 3.141593
  1 0.000000 0.000000 0.000000 0.000000 -0.000000 0.000000
  2 -0.121097 5.544767 42.754704 -1.571659 -0.371256 1.571659
  3 4.222169 -0.467508 0.000000 0.000700 -0.174664 -0.139140
  4 4.476987 -0.000002 -0.000000 0.016753 -0.164842 0.039169
  5 4.477083 0.000000 0.000002 0.002710 0.175010 0.040916
  6 4.477077 -0.000004 -0.000002 0.003986 0.157015 -0.000500
  7 5.413502 -7.700466 -0.000000 0.006991 0.031043 -0.308758
  8 6.890240 0.000002 -0.000000 -0.016970 0.008495 -0.194246
  9 8.011925 0.000004 0.000005 0.026207 -0.031632 -0.123735
 10 7.210720 -0.000002 -0.000000 -0.009361 0.010505 -0.065193
 11 8.581028 -0.304903 -0.000000 0.004712 -0.003111 1.175204
 12 22.523008 2.194031 6.355708 0.000000 -0.559956 0.000000
 13 22.523005 2.194038 -6.355709 0.000000 0.486224 0.000000
 14 -3.006533 7.804720 -11.355459 0.937412 0.604798 1.484421
 15 10.384675 0.000008 0.000005 -0.055444 0.175215 -2.154674
 16 22.550743 -0.000006 -0.000004 0.133197 0.010666 2.309797
 17 30.814247 -0.000015 -0.000004 1.891721 0.312887 0.589318
 18 -3.013796 7.815494 11.355459 -0.765003 -0.566933 1.594260
 19 10.374533 -0.000002 0.000007 -0.008792 -0.209841 -2.423015
 20 22.550726 -0.000027 -0.000013 -0.195932 -0.013389 2.514627
 21 30.814270 -0.000023 0.000002 -2.066906 -0.201509 0.582223
 22 -4.250660 -0.770624 0.000001 0.005525 -0.003996 -3.111859
 23 10.363422 0.000000 0.000000 0.002900 0.011258 -0.082560
 24 10.363076 0.000000 -0.000000 0.021740 -0.014684 -0.003355
 25 10.363081 -0.000004 -0.000002 -0.030555 0.001726 0.065272
 26 9.253358 -0.000006 -3.973408 0.000000 0.000000 0.050072
 27 8.210346 -0.000002 7.704017 0.000000 0.000000 0.049372
 28 1.854841 1.227791 -13.762345 2.583059 0.394982 2.356859
 29 10.456543 -0.000004 0.000004 0.006694 0.072369 -1.734576
 30 24.248093 0.000001 0.000007 0.064831 0.027426 1.939964
 31 26.336971 0.000019 0.000002 0.515429 0.144669 0.327209
 32 1.854847 1.227798 13.762341 -2.623848 -0.406737 2.434186
 33 10.456542 -0.000008 0.000004 -0.014195 -0.063277 -1.669141
 34 24.248116 0.000002 -0.000004 -0.063103 -0.013687 1.971437
 35 26.336975 0.000000 0.000004 -0.515842 -0.130999 0.305385
time 13
  0 -0.000001 47.798332 0.000000 0.000000 0.000000 3.141593
  1 0.000000 0.000000 0.000000 0.000000 -0.000000 0.000000
  2 -0.214850 2.634522 44.196152 -1.571468 -0.314334 1.571468
  3 4.222169 -0.467508 0.000000 0.004199 -0.173978 -0.149398
  4 4.476987 -0.000002 -0.000000 0.016202 -0.165399 0.038880
  5 4.477083 0.000000 0.000002 0.007995 0.173847 0.078904
  6 4.477077 -0.000004 -0.000002 0.006754 0.156300 0.015338
  7 5.413502 -7.700466 -0.000000 0.006739 0.028137 -0.349208
  8 6.890240 0.000002 -0.000000 -0.016719 0.009397 -0.250982
  9 8.011925 0.000004 0.000005 0.027123 -0.027318 -0.204123
 10 7.210720 -0.000002 -0.000000 -0.009882 0.013718 -0.023036
 11 8.581028 -0.304903 -0.000000 0.005125 -0.003418 1.221400
 12 22.523008 2.194031 6.355708 0.000000 -0.733094 0.000000
 13 22.523005 2.194038 -6.355709 0.000000 0.603439 0.000000
 14 -3.006533 7.804720 -11.355459 0.613807 0.429913 1.225317
 15 10.384675 0.000008 0.000005 -0.029037 0.184593 -2.003329
 16 22.550743 -0.000006 -0.000004 0.129615 0.012072 2.147690
 17 30.814247 -0.000015 -0.000004 2.229928 0.315019 0.618540
 18 -3.013796 7.815494 11.355459 -0.466196 -0.381032 1.289422
 19 10.374533 -0.000002 0.000007 -0.071686 -0.219376 -2.177795
 20 22.550726 -0.000027 -0.000013 -0.187475 -0.018120 2.297993
 21 30.814270 -0.000023 0.000002 -2.404520 -0.294093 0.577816
 22 -4.250660 -0.770624 0.000001 0.008389 -0.003627 -3.097340
 23 10.363422 0.000000 0.000000 0.002601 0.009544 -0.081416
 24 10.363076 0.000000 -0.000000 0.019379 -0.012371 -0.017628
 25 10.363081 -0.000004 -0.000002 -0.031552 0.000432 0.028035
 26 9.253358 -0.000006 -3.973408 0.000000 0.000000 0.016543
 27 8.210346 -0.000002 7.704017 0.000000 0.000000 0.015869
 28 1.854841 1.227791 -13.762345 2.441464 0.424095 2.167039
 29 10.456543 -0.000004 0.000004 -0.004068 0.070162 -1.886109
 30 24.248093 0.000001 0.000007 0.067649 0.027244 2.063694
 31 26.336971 0.000019 0.000002 0.625189 0.181906 0.264583
 32 1.854847 1.227798 13.762341 -2.508142 -0.477960 2.302358
 33 10.456542 -0.000008 0.000004 -0.006904 -0.062887 -1.749895
 34 24.248116 0.000002 -0.000004 -0.065150 -0.012728 2.120049
 35 26.336975 0.000000 0.000004 -0.627210 -0.155445 0.210268
time 14
  0 -0.000001 44.559952 0.000000 0.000000 0.000000 3.141593
  1 0.000000 0.000000 0.000000 0.000000 -0.000000 0.000000
  2 -0.335948 -1.025746 45.274315 -1.571372 -0.250869 1.571372
  3 4.222169 -0.467508 0.000000 0.008598 -0.173236 -0.162723
  4 4.476987 -0.000002 -0.000000 0.019761 -0.165313 0.047382
  5 4.477083 0.000000 0.000002 0.014179 0.172603 0.121531
  6 4.477077 -0.000004 -0.000002 0.010733 0.155380 0.037264
  7 5.413502 -7.700466 -0.000000 0.006539 0.025096 -0.386702
  8 6.890240 0.000002 -0.000000 -0.016455 0.010299 -0.305902
  9 8.011925 0.000004 0.000005 0.027647 -0.023212 -0.275581
 10 7.210720 -0.000002 -0.000000 -0.010294 0.016896 0.018531
 11 8.581028 -0.304903 -0.000000 0.005493 -0.003179 1.224834
 12 22.523008 2.194031 6.355708 0.000000 -0.872074 0.000000
 13 22.523005 2.194038 -6.355709 0.000000 0.701265 0.000000
 14 -3.006533 7.804720 -11.355459 0.388901 0.290817 0.998489
 15 10.384675 0.000008 0.000005 0.013469 0.191403 -1.770008
 16 22.550743 -0.000006 -0.000004 0.123826 0.013479 1.880256
 17 30.814247 -0.000015 -0.000004 2.498249 0.300254 0.703772
 18 -3.013796 7.815494 11.355459 -0.284845 -0.238626 1.053555
 19 10.374533 -0.000002 0.000007 -0.145163 -0.207914 -1.883752
 20 22.550726 -0.000027 -0.000013 -0.173278 -0.023106 1.982410
 21 30.814270 -0.000023 0.000002 -2.657344 -0.341535 0.649190
 22 -4.250660 -0.770624 0.000001 0.011277 -0.003322 -3.082822
 23 10.363422 0.000000 0.000000 0.002289 0.007842 -0.080271
 24 10.363076 0.000000 -0.000000 0.017006 -0.010142 -0.032443
 25 10.363081 -0.000004 -0.000002 -0.032402 -0.000755 -0.003484
 26 9.253358 -0.000006 -3.973408 0.000000 0.000000 -0.014369
 27 8.210346 -0.000002 7.704017 0.000000 0.000000 -0.015090
 28 1.854841 1.227791 -13.762345 2.289712 0.436209 1.977522
 29 10.456543 -0.000004 0.000004 -0.013711 0.066639 -2.027786
 30 24.248093 0.000001 0.000007 0.069984 0.026800 2.167118
 31 26.336971 0.000019 0.000002 0.751393 0.220378 0.238129
 32 1.854847 1.227798 13.762341 -2.377648 -0.537007 2.151703
 33 10.456542 -0.000008 0.000004 0.000455 -0.061774 -1.833170
 34 24.248116 0.000002 -0.000004 -0.066925 -0.011901 2.248403
 35 26.336975 0.000000 0.000004 -0.749126 -0.188607 0.153242
time 15
  0 -0.000000 40.825466 0.000000 0.000000 0.000000 3.141593
  1 0.000000 0.000000 0.000000 0.000000 -0.000000 0.000000
  2 -0.488296 -4.869614 46.067307 -1.571276 -0.186527 1.571276
  3 4.222169 -0.467508 0.000000 0.012325 -0.172643 -0.174208
  4 4.476987 -0.000002 -0.000000 0.023848 -0.165013 0.056794
  5 4.477083 0.000000 0.000002 0.019549 0.171505 0.157518
  6 4.477077 -0.000004 -0.000002 0.014280 0.154290 0.056575
  7 5.413502 -7.700466 -0.000000 0.006420 0.021987 -0.421177
  8 6.890240 0.000002 -0.000000 -0.016143 0.011214 -0.358961
  9 8.011925 0.000004 0.000005 0.027778 -0.019410 -0.333438
 10 7.210720 -0.000002 -0.000000 -0.010624 0.020003 0.059400
 11 8.581028 -0.304903 -0.000000 0.005906 -0.002974 1.227533
 12 22.523008 2.194031 6.355708 0.000000 -0.930612 0.000000
 13 22.523005 2.194038 -6.355709 0.000000 0.759464 0.000000
 14 -3.006533 7.804720 -11.355459 0.260794 0.242026 0.786975
 15 10.384675 0.000008 0.000005 0.062362 0.188518 -1.496476
 16 22.550743 -0.000006 -0.000004 0.117540 0.013938 1.589335
 17 30.814247 -0.000015 -0.000004 2.640032 0.272762 0.799175
 18 -3.013796 7.815494 11.355459 -0.196613 -0.183098 0.851033
 19 10.374533 -0.000002 0.000007 -0.203270 -0.181635 -1.604726
 20 22.550726 -0.000027 -0.000013 -0.157835 -0.026581 1.669122
 21 30.814270 -0.000023 0.000002 -2.784265 -0.352814 0.745443
 22 -4.250660 -0.770624 0.000001 0.014274 -0.003065 -3.066664
 23 10.363422 0.000000 0.000000 0.001953 0.006152 -0.079105
 24 10.363076 0.000000 -0.000000 0.014813 -0.007745 -0.042844
 25 10.363081 -0.000004 -0.000002 -0.033177 -0.001833 -0.031003
 26 9.253358 -0.000006 -3.973408 0.000000 0.000000 -0.040832
 27 8.210346 -0.000002 7.704017 0.000000 0.000000 -0.041098
 28 1.854841 1.227791 -13.762345 2.172610 0.432853 1.841163
 29 10.456543 -0.000004 0.000004 -0.019546 0.063721 -2.117534
 30 24.248093 0.000001 0.000007 0.070651 0.026800 2.209151
 31 26.336971 0.000019 0.000002 0.854844 0.229207 0.266516
 32 1.854847 1.227798 13.762341 -2.275143 -0.570225 2.023106
 33 10.456542 -0.000008 0.000004 0.006560 -0.060828 -1.902770
 34 24.248116 0.000002 -0.000004 -0.068013 -0.011698 2.314662
 35 26.336975 0.000000 0.000004 -0.840553 -0.201263 0.159516
time 16
  0 -0.000000 36.594868 0.000000 0.000000 0.000000 3.141593
  1 0.000000 0.000000 0.000000 0.000000 -0.000000 0.000000
  2 -0.691427 -8.377533 46.645447 -1.571180 -0.114965 1.571180
  3 4.222169 -0.467508 0.000000 0.014123 -0.172291 -0.179759
  4 4.476987 -0.000002 -0.000000 0.024987 -0.164906 0.059524
  5 4.477083 0.000000 0.000002 0.021562 0.170988 0.171806
  6 4.477077 -0.000004 -0.000002 0.016042 0.153519 0.066510
  7 5.413502 -7.700466 -0.000000 0.006433 0.018877 -0.454097
  8 6.890240 0.000002 -0.000000 -0.015808 0.012129 -0.410111
  9 8.011925 0.000004 0.000005 0.027700 -0.015832 -0.374917
 10 7.210720 -0.000002 -0.000000 -0.010871 0.023040 0.099412
 11 8.581028 -0.304903 -0.000000 0.006273 -0.002889 1.229987
 12 22.523008 2.194031 6.355708 0.000000 -0.934584 0.000000
 13 22.523005 2.194038 -6.355709 0.000000 0.753505 0.000000
 14 -3.006533 7.804720 -11.355459 0.198287 0.240789 0.636444
 15 10.384675 0.000008 0.000005 0.108939 0.174133 -1.218002
 16 22.550743 -0.000006 -0.000004 0.111639 0.013708 1.306465
 17 30.814247 -0.000015 -0.000004 2.686157 0.249815 0.858085
 18 -3.013796 7.815494 11.355459 -0.163164 -0.169721 0.702319
 19 10.374533 -0.000002 0.000007 -0.241761 -0.152100 -1.336370
 20 22.550726 -0.000027 -0.000013 -0.141943 -0.028092 1.393181
 21 30.814270 -0.000023 0.000002 -2.817065 -0.357243 0.794923
 22 -4.250660 -0.770624 0.000001 0.016683 -0.002648 -3.063336
 23 10.363422 0.000000 0.000000 0.001558 0.004498 -0.077081
 24 10.363076 0.000000 -0.000000 0.013135 -0.004641 -0.039979
 25 10.363081 -0.000004 -0.000002 -0.033424 -0.003374 -0.048910
 26 9.253358 -0.000006 -3.973408 0.000000 0.000000 -0.053401
 27 8.210346 -0.000002 7.704017 0.000000 0.000000 -0.058019
 28 1.854841 1.227791 -13.762345 2.112982 0.419358 1.771888
 29 10.456543 -0.000004 0.000004 -0.021904 0.062457 -2.154874
 30 24.248093 0.000001 0.000007 0.069984 0.027123 2.194706
 31 26.336971 0.000019 0.000002 0.911051 0.192365 0.332787
 32 1.854847 1.227798 13.762341 -2.236619 -0.585657 1.958656
 33 10.456542 -0.000008 0.000004 0.009239 -0.061996 -1.931737
 34 24.248116 0.000002 -0.000004 -0.068622 -0.012417 2.331315
 35 26.336975 0.000000 0.000004 -0.878933 -0.176539 0.205351
time 17
  0 -0.000000 31.864254 0.000000 0.000000 0.000000 3.141593
  1 0.000000 0.000000 0.000000 0.000000 -0.000000 0.000000
  2 -1.000031 -11.221371 47.075150 -1.571084 -0.013924 1.570892
  3 4.222169 -0.467508 0.000000 0.007112 -0.172272 -0.158813
  4 4.476987 -0.000002 -0.000000 0.021080 -0.165163 0.051045
  5 4.477083 0.000000 0.000002 0.012897 0.171973 0.116358
  6 4.477077 -0.000004 -0.000002 0.010242 0.154665 0.035162
  7 5.413502 -7.700466 -0.000000 0.006553 0.015819 -0.486115
  8 6.890240 0.000002 -0.000000 -0.015448 0.013057 -0.459446
  9 8.011925 0.000004 0.000005 0.027569 -0.012541 -0.395345
 10 7.210720 -0.000002 -0.000000 -0.011035 0.026023 0.138565
 11 8.581028 -0.304903 -0.000000 0.006434 -0.002855 1.241097
 12 22.523008 2.194031 6.355708 0.000000 -0.938097 0.000000
 13 22.523005 2.194038 -6.355709 0.000000 0.742161 0.000000
 14 -3.006533 7.804720 -11.355459 0.182117 0.243439 0.590020
 15 10.384675 0.000008 0.000005 0.148606 0.149331 -0.951024
 16 22.550743 -0.000006 -0.000004 0.106314 0.012187 1.032735
 17 30.814247 -0.000015 -0.000004 2.687205 0.244580 0.880181
 18 -3.013796 7.815494 11.355459 -0.165098 -0.155073 0.657573
 19 10.374533 -0.000002 0.000007 -0.268186 -0.120306 -1.084366
 20 22.550726 -0.000027 -0.000013 -0.126909 -0.026757 1.139884
 21 30.814270 -0.000023 0.000002 -2.805068 -0.373514 0.795369
 22 -4.250660 -0.770624 0.000001 0.016958 -0.001685 -3.117108
 23 10.363422 0.000000 0.000000 0.001630 0.002677 -0.082252
 24 10.363076 0.000000 -0.000000 0.011565 -0.001345 -0.033346
 25 10.363081 -0.000004 -0.000002 -0.032377 -0.006162 -0.045661
 26 9.253358 -0.000006 -3.973408 0.000000 0.000000 -0.046063
 27 8.210346 -0.000002 7.704017 0.000000 0.000000 -0.056662
 28 1.854841 1.227791 -13.762345 2.066590 0.397473 1.714900
 29 10.456543 -0.000004 0.000004 -0.024333 0.061674 -2.180362
 30 24.248093 0.000001 0.000007 0.068983 0.027567 2.165402
 31 26.336971 0.000019 0.000002 0.953554 0.133317 0.401764
 32 1.854847 1.227798 13.762341 -2.212917 -0.592744 1.907088
 33 10.456542 -0.000008 0.000004 0.011342 -0.064668 -1.946358
 34 24.248116 0.000002 -0.000004 -0.069127 -0.013423 2.336748
 35 26.336975 0.000000 0.000004 -0.902262 -0.131992 0.253051
time 18
  0 -0.000000 26.637531 0.000000 0.000000 0.000000 3.141593
  1 0.000000 0.000000 0.000000 0.000000 -0.000000 0.000000
  2 -1.410199 -13.217524 47.352501 -1.571180 0.115239 1.570509
  3 4.222169 -0.467508 0.000000 -0.008265 -0.171957 -0.112567
  4 4.476987 -0.000002 -0.000000 0.013457 -0.165806 0.034286
  5 4.477083 0.000000 0.000002 -0.005691 0.172894 -0.005491
  6 4.477077 -0.000004 -0.000002 -0.002786 0.156845 -0.036271
  7 5.413502 -7.700466 -0.000000 0.006752 0.012811 -0.517728
  8 6.890240 0.000002 -0.000000 -0.015029 0.013959 -0.506478
  9 8.011925 0.000004 0.000005 0.027359 -0.009473 -0.409231
 10 7.210720 -0.000002 -0.000000 -0.011145 0.028901 0.176324
 11 8.581028 -0.304903 -0.000000 0.006618 -0.002701 1.293392
 12 22.523008 2.194031 6.355708 0.000000 -0.941091 0.000000
 13 22.523005 2.194038 -6.355709 0.000000 0.728610 0.000000
 14 -3.006533 7.804720 -11.355459 0.200945 0.244323 0.640152
 15 10.384675 0.000008 0.000005 0.173668 0.124592 -0.752915
 16 22.550743 -0.000006 -0.000004 0.102843 0.010178 0.824200
 17 30.814247 -0.000015 -0.000004 2.670694 0.247057 0.876922
 18 -3.013796 7.815494 11.355459 -0.190300 -0.137660 0.715714
 19 10.374533 -0.000002 0.000007 -0.284297 -0.097017 -0.914005
 20 22.550726 -0.000027 -0.000013 -0.116859 -0.024951 0.963388
 21 30.814270 -0.000023 0.000002 -2.777670 -0.392818 0.766641
 22 -4.250660 -0.770624 0.000001 0.015856 -0.000722 3.062655
 23 10.363422 0.000000 0.000000 0.002972 0.000364 -0.107757
 24 10.363076 0.000000 -0.000000 0.009959 0.001914 -0.028055
 25 10.363081 -0.000004 -0.000002 -0.030900 -0.009351 -0.035056
 26 9.253358 -0.000006 -3.973408 0.000000 0.000000 -0.036790
 27 8.210346 -0.000002 7.704017 0.000000 0.000000 -0.049779
 28 1.854841 1.227791 -13.762345 1.995485 0.361526 1.625554
 29 10.456543 -0.000004 0.000004 -0.020821 0.059859 -2.206717
 30 24.248093 0.000001 0.000007 0.069206 0.027244 2.161080
 31 26.336971 0.000019 0.000002 1.018592 0.058765 0.423192
 32 1.854847 1.227798 13.762341 -2.151401 -0.575260 1.801970
 33 10.456542 -0.000008 0.000004 0.010460 -0.061690 -1.971818
 34 24.248116 0.000002 -0.000004 -0.069891 -0.013867 2.358783
 35 26.336975 0.000000 0.000004 -0.948533 -0.065420 0.251807
time 19
  0 -0.000000 20.910795 0.000000 0.000000 0.000000 3.141593
  1 0.000000 0.000000 0.000000 0.000000 -0.000000 0.000000
  2 -1.835994 -14.182398 47.430626 -1.571084 0.248072 1.570605
  3 4.222169 -0.467508 0.000000 -0.023725 -0.170900 -0.065508
  4 4.476987 -0.000002 -0.000000 0.004924 -0.166684 0.015484
  5 4.477083 0.000000 0.000002 -0.027527 0.171133 -0.146964
  6 4.477077 -0.000004 -0.000002 -0.015621 0.158048 -0.106443
  7 5.413502 -7.700466 -0.000000 0.007018 0.009872 -0.549527
  8 6.890240 0.000002 -0.000000 -0.014549 0.014821 -0.545131
  9 8.011925 0.000004 0.000005 0.027137 -0.006278 -0.424520
 10 7.210720 -0.000002 -0.000000 -0.011255 0.031391 0.208907
 11 8.581028 -0.304903 -0.000000 0.006870 -0.002513 1.389814
 12 22.523008 2.194031 6.355708 0.000000 -0.943230 0.000000
 13 22.523005 2.194038 -6.355709 0.000000 0.712608 0.000000
 14 -3.006533 7.804720 -11.355459 0.251027 0.241743 0.768708
 15 10.384675 0.000008 0.000005 0.177254 0.120158 -0.722423
 16 22.550743 -0.000006 -0.000004 0.102491 0.009949 0.791452
 17 30.814247 -0.000015 -0.000004 2.625355 0.247935 0.806660
 18 -3.013796 7.815494 11.355459 -0.230267 -0.126338 0.857360
 19 10.374533 -0.000002 0.000007 -0.293262 -0.092299 -0.905192
 20 22.550726 -0.000027 -0.000013 -0.116287 -0.025933 0.952221
 21 30.814270 -0.000023 0.000002 -2.729154 -0.402801 0.673567
 22 -4.250660 -0.770624 0.000001 0.014669 0.000080 2.953548
 23 10.363422 0.000000 0.000000 0.004914 -0.002141 -0.143759
 24 10.363076 0.000000 -0.000000 0.008341 0.005198 -0.023513
 25 10.363081 -0.000004 -0.000002 -0.029459 -0.012402 -0.025418
 26 9.253358 -0.000006 -3.973408 0.000000 0.000000 -0.027516
 27 8.210346 -0.000002 7.704017 0.000000 0.000000 -0.044489
 28 1.854841 1.227791 -13.762345 1.895665 0.312083 1.499169
 29 10.456543 -0.000004 0.000004 0.013036 0.060660 -2.204546
 30 24.248093 0.000001 0.000007 0.072431 0.024984 2.219216
 31 26.336971 0.000019 0.000002 1.129048 0.002397 0.324393
 32 1.854847 1.227798 13.762341 -2.034074 -0.501793 1.613619
 33 10.456542 -0.000008 0.000004 -0.011855 -0.038259 -2.004569
 34 24.248116 0.000002 -0.000004 -0.071212 -0.012824 2.424128
 35 26.336975 0.000000 0.000004 -1.051623 0.003851 0.132275
time 20
  0 -0.000000 14.687948 0.000000 0.000000 0.000000 3.141593
  1 0.000000 0.000000 0.000000 0.000000 -0.000000 0.000000
  2 -2.168035 -14.006611 47.274376 -1.570317 0.371251 1.571276
  3 4.222169 -0.467508 0.000000 -0.038801 -0.169102 -0.019645
  4 4.476987 -0.000002 -0.000000 -0.001871 -0.167476 0.000568
  5 4.477083 0.000000 0.000002 -0.046223 0.167499 -0.267953
  6 4.477077 -0.000004 -0.000002 -0.028409 0.158649 -0.174668
  7 5.413502 -7.700466 -0.000000 0.007310 0.007034 -0.581918
  8 6.890240 0.000002 -0.000000 -0.013926 0.015540 -0.568216
  9 8.011925 0.000004 0.000005 0.026704 -0.003994 -0.433579
 10 7.210720 -0.000002 -0.000000 -0.011557 0.033403 0.235697
 11 8.581028 -0.304903 -0.000000 0.006962 -0.002582 1.474215
 12 22.523008 2.194031 6.355708 0.000000 -0.944635 0.000000
 13 22.523005 2.194038 -6.355709 0.000000 0.693914 0.000000
 14 -3.006533 7.804720 -11.355459 0.329215 0.226905 0.956873
 15 10.384675 0.000008 0.000005 0.150025 0.148334 -0.943748
 16 22.550743 -0.000006 -0.000004 0.106522 0.012158 1.024079
 17 30.814247 -0.000015 -0.000004 2.544243 0.227151 0.641961
 18 -3.013796 7.815494 11.355459 -0.282452 -0.119014 1.065867
 19 10.374533 -0.000002 0.000007 -0.298116 -0.114824 -1.128087
 20 22.550726 -0.000027 -0.000013 -0.132485 -0.032117 1.176051
 21 30.814270 -0.000023 0.000002 -2.655380 -0.388316 0.493138
 22 -4.250660 -0.770624 0.000001 0.013483 0.000915 2.851970
 23 10.363422 0.000000 0.000000 0.006963 -0.004586 -0.182996
 24 10.363076 0.000000 -0.000000 0.006759 0.008542 -0.019332
 25 10.363081 -0.000004 -0.000002 -0.027982 -0.015421 -0.015807
 26 9.253358 -0.000006 -3.973408 0.000000 0.000000 -0.021979
 27 8.210346 -0.000002 7.704017 0.000000 0.000000 -0.039979
 28 1.854841 1.227791 -13.762345 1.817041 0.259137 1.397356
 29 10.456543 -0.000004 0.000004 0.090813 0.075999 -2.102945
 30 24.248093 0.000001 0.000007 0.077139 0.021958 2.274983
 31 26.336971 0.000019 0.000002 1.233935 -0.009901 0.120498
 32 1.854847 1.227798 13.762341 -1.937612 -0.367363 1.437977
 33 10.456542 -0.000008 0.000004 -0.072968 0.004932 -1.972843
 34 24.248116 0.000002 -0.000004 -0.073389 -0.011662 2.468859
 35 26.336975 0.000000 0.000004 -1.178686 0.056371 -0.080341
time 21
  0 -0.000000 7.965087 0.000000 0.000000 0.000000 3.141593
  1 0.000000 0.000000 0.000000 0.000000 -0.000000 0.000000
  2 -2.328196 -12.572973 46.879829 -1.570221 0.466667 1.571372
  3 4.222169 -0.467508 0.000000 -0.044722 -0.168472 -0.001628
  4 4.476987 -0.000002 -0.000000 -0.004160 -0.167690 -0.004271
  5 4.477083 0.000000 0.000002 -0.053162 0.166158 -0.313664
  6 4.477077 -0.000004 -0.000002 -0.034784 0.158856 -0.208134
  7 5.413502 -7.700466 -0.000000 0.007629 0.004384 -0.616052
  8 6.890240 0.000002 -0.000000 -0.013171 0.016128 -0.575291
  9 8.011925 0.000004 0.000005 0.025866 -0.003978 -0.428024
 10 7.210720 -0.000002 -0.000000 -0.012380 0.034498 0.245003
 11 8.581028 -0.304903 -0.000000 0.006985 -0.002633 1.485396
 12 22.523008 2.194031 6.355708 0.000000 -0.945521 0.000000
 13 22.523005 2.194038 -6.355709 0.000000 0.672346 0.000000
 14 -3.006533 7.804720 -11.355459 0.382173 0.208992 1.081583
 15 10.384675 0.000008 0.000005 0.101207 0.177506 -1.265321
 16 22.550743 -0.000006 -0.000004 0.112887 0.013766 1.357978
 17 30.814247 -0.000015 -0.000004 2.476628 0.174706 0.479877
 18 -3.013796 7.815494 11.355459 -0.318855 -0.113670 1.209223
 19 10.374533 -0.000002 0.000007 -0.295487 -0.151303 -1.446079
 20 22.550726 -0.000027 -0.000013 -0.159408 -0.035906 1.489525
 21 30.814270 -0.000023 0.000002 -2.598129 -0.349413 0.321272
 22 -4.250660 -0.770624 0.000001 0.012272 0.001621 2.810027
 23 10.363422 0.000000 0.000000 0.009216 -0.006911 -0.226788
 24 10.363076 0.000000 -0.000000 0.005189 0.012017 -0.016957
 25 10.363081 -0.000004 -0.000002 -0.026541 -0.018425 -0.005632
 26 9.253358 -0.000006 -3.973408 0.000000 0.000000 -0.019499
 27 8.210346 -0.000002 7.704017 0.000000 0.000000 -0.036317
 28 1.854841 1.227791 -13.762345 1.749497 0.236463 1.310930
 29 10.456543 -0.000004 0.000004 0.204019 0.100662 -1.869349
 30 24.248093 0.000001 0.000007 0.080142 0.020182 2.225906
 31 26.336971 0.000019 0.000002 1.308065 0.047307 -0.093393
 32 1.854847 1.227798 13.762341 -1.874306 -0.253537 1.301711
 33 10.456542 -0.000008 0.000004 -0.157956 0.061090 -1.817760
 34 24.248116 0.000002 -0.000004 -0.074321 -0.012381 2.389653
 35 26.336975 0.000000 0.000004 -1.307421 0.035866 -0.283914
time 22
  0 -0.000000 0.746117 0.000000 0.000000 0.000000 3.141593
  1 0.000000 0.000000 0.000000 0.000000 -0.000000 0.000000
  2 -2.363353 -9.686167 46.321220 -1.571468 0.538469 1.570126
  3 4.222169 -0.467508 0.000000 -0.036668 -0.170437 -0.026070
  4 4.476987 -0.000002 -0.000000 -0.000780 -0.167112 0.003653
  5 4.477083 0.000000 0.000002 -0.044257 0.169534 -0.254184
  6 4.477077 -0.000004 -0.000002 -0.028325 0.159495 -0.173998
  7 5.413502 -7.700466 -0.000000 0.007789 0.002939 -0.663502
  8 6.890240 0.000002 -0.000000 -0.012368 0.016520 -0.567030
  9 8.011925 0.000004 0.000005 0.025067 -0.004697 -0.418835
 10 7.210720 -0.000002 -0.000000 -0.013781 0.033845 0.208531
 11 8.581028 -0.304903 -0.000000 0.007261 -0.002650 1.407620
 12 22.523008 2.194031 6.355708 0.000000 -0.945949 0.000000
 13 22.523005 2.194038 -6.355709 0.000000 0.647633 0.000000
 14 -3.006533 7.804720 -11.355459 0.363616 0.222347 1.019091
 15 10.384675 0.000008 0.000005 0.072110 0.186438 -1.437494
 16 22.550743 -0.000006 -0.000004 0.116597 0.014110 1.540182
 17 30.814247 -0.000015 -0.000004 2.473047 0.109001 0.416633
 18 -3.013796 7.815494 11.355459 -0.315291 -0.129775 1.154559
 19 10.374533 -0.000002 0.000007 -0.292655 -0.174293 -1.622818
 20 22.550726 -0.000027 -0.000013 -0.176853 -0.036377 1.656467
 21 30.814270 -0.000023 0.000002 -2.594094 -0.310290 0.254640
 22 -4.250660 -0.770624 0.000001 0.011002 0.002166 2.855837
 23 10.363422 0.000000 0.000000 0.011721 -0.009020 -0.276302
 24 10.363076 0.000000 -0.000000 0.003092 0.016116 -0.045735
 25 10.363081 -0.000004 -0.000002 -0.024485 -0.021322 -0.001309
 26 9.253358 -0.000006 -3.973408 0.000000 0.000000 -0.018446
 27 8.210346 -0.000002 7.704017 0.000000 0.000000 -0.033434
 28 1.854841 1.227791 -13.762345 1.642598 0.241669 1.175726
 29 10.456543 -0.000004 0.000004 0.331428 0.104150 -1.539449
 30 24.248093 0.000001 0.000007 0.072394 0.021030 2.027344
 31 26.336971 0.000019 0.000002 1.370145 0.194099 -0.244602
 32 1.854847 1.227798 13.762341 -1.795436 -0.187075 1.144250
 33 10.456542 -0.000008 0.000004 -0.234771 0.133111 -1.569747
 34 24.248116 0.000002 -0.000004 -0.067106 -0.015389 2.159144
 35 26.336975 0.000000 0.000004 -1.432039 -0.106554 -0.399660
time 23
  0 0.000000 -6.968963 0.000000 0.000000 0.000000 3.141593
  1 0.000000 0.000000 0.000000 0.000000 -0.000000 0.000000
  2 -2.363353 -5.432131 45.625885 -1.571851 0.583385 1.569742
  3 4.222169 -0.467508 0.000000 -0.021484 -0.173106 -0.071841
  4 4.476987 -0.000002 -0.000000 0.006195 -0.166127 0.019547
  5 4.477083 0.000000 0.000002 -0.025981 0.174445 -0.134025
  6 4.477077 -0.000004 -0.000002 -0.014530 0.159909 -0.100556
  7 5.413502 -7.700466 -0.000000 0.007789 0.002787 -0.696578
  8 6.890240 0.000002 -0.000000 -0.011098 0.017370 -0.510573
  9 8.011925 0.000004 0.000005 0.024177 -0.006039 -0.391269
 10 7.210720 -0.000002 -0.000000 -0.016635 0.031779 0.098178
 11 8.581028 -0.304903 -0.000000 0.007330 -0.002786 1.256730
 12 22.523008 2.194031 6.355708 0.000000 -0.960828 0.000000
 13 22.523005 2.194038 -6.355709 0.000000 0.619532 0.000000
 14 -3.006533 7.804720 -11.355459 0.314023 0.254109 0.869521
 15 10.384675 0.000008 0.000005 0.055414 0.189557 -1.533077
 16 22.550743 -0.000006 -0.000004 0.118628 0.014340 1.633645
 17 30.814247 -0.000015 -0.000004 2.497070 0.023045 0.381824
 18 -3.013796 7.815494 11.355459 -0.292737 -0.159445 0.997922
 19 10.374533 -0.000002 0.000007 -0.292925 -0.188512 -1.714898
 20 22.550726 -0.000027 -0.000013 -0.187761 -0.037162 1.747848
 21 30.814270 -0.000023 0.000002 -2.608267 -0.261136 0.215397
 22 -4.250660 -0.770624 0.000001 0.009743 0.002728 2.952217
 23 10.363422 0.000000 0.000000 0.014417 -0.010842 -0.333891
 24 10.363076 0.000000 -0.000000 0.000180 0.020658 -0.110492
 25 10.363081 -0.000004 -0.000002 -0.021063 -0.023956 -0.010813
 26 9.249452 -0.000006 -3.973408 0.000000 0.000000 -0.018548
 27 8.210346 -0.000002 7.704017 0.000000 0.000000 -0.031366
 28 1.854841 1.227791 -13.762345 1.572724 0.256719 1.087902
 29 10.456543 -0.000004 0.000004 0.423635 0.076034 -1.214717
 30 24.248093 0.000001 0.000007 0.053265 0.021675 1.761531
 31 26.336971 0.000019 0.000002 1.371276 0.291172 -0.304964
 32 1.854847 1.227798 13.762341 -1.759950 -0.144390 1.067565
 33 10.456542 -0.000008 0.000004 -0.273670 0.205298 -1.323704
 34 24.248116 0.000002 -0.000004 -0.051962 -0.017690 1.871415
 35 26.336975 0.000000 0.000004 -1.484228 -0.210104 -0.410624
time 24
  0 0.000000 -9.211219 0.000000 0.000000 0.000000 3.141593
  1 0.000000 0.000000 0.000000 0.000000 -0.000000 0.000000
  2 -2.363353 -0.357757 44.719608 -1.571372 0.610549 1.570221
  3 4.222169 -0.467508 0.000000 -0.006755 -0.174923 -0.116063
  4 4.476987 -0.000002 -0.000000 0.013038 -0.165249 0.035129
  5 4.477083 0.000000 0.000002 -0.007165 0.177304 -0.013006
  6 4.477077 -0.000004 -0.000002 -0.002090 0.159495 -0.033359
  7 5.413502 -7.700466 -0.000000 0.007829 0.002702 -0.665400
  8 6.890240 0.000002 -0.000000 -0.008976 0.018559 -0.399569
  9 8.011925 0.000004 0.000005 0.022631 -0.009058 -0.305561
 10 7.210720 -0.000002 -0.000000 -0.021467 0.027948 -0.097749
 11 8.581028 -0.304903 -0.000000 0.007123 -0.002889 1.035179
 12 22.523008 2.194031 6.355708 0.000000 -0.853315 0.000000
 13 22.523005 2.194038 -6.355709 0.000000 0.587861 0.000000
 14 -3.006533 7.804720 -11.355459 0.287761 0.286578 0.768502
 15 10.384675 0.000008 0.000005 0.032144 0.191891 -1.662983
 16 22.550743 -0.000006 -0.000004 0.121187 0.014282 1.752229
 17 30.814247 -0.000015 -0.000004 2.510086 -0.068616 0.325242
 18 -3.013796 7.815494 11.355459 -0.276241 -0.185826 0.868931
 19 10.374533 -0.000002 0.000007 -0.286791 -0.206485 -1.824897
 20 22.550726 -0.000027 -0.000013 -0.201631 -0.037476 1.883523
 21 30.814270 -0.000023 0.000002 -2.608302 -0.205400 0.154203
 22 -4.250660 -0.770624 0.000001 0.008605 0.003338 3.067111
 23 10.363422 0.000000 0.000000 0.017042 -0.012304 -0.395398
 24 10.363076 0.000000 -0.000000 -0.002996 0.025081 -0.182088
 25 10.363081 -0.000004 -0.000002 -0.017061 -0.026375 -0.026090
 26 9.253358 -0.000006 -3.973408 0.000000 0.000000 -0.019601
 27 8.210346 -0.000002 7.704017 0.000000 0.000000 -0.030111
 28 1.854841 1.227791 -13.762345 1.579628 0.275741 1.114906
 29 10.456543 -0.000004 0.000004 0.457510 0.058738 -1.055759
 30 24.248093 0.000001 0.000007 0.041624 0.021009 1.627263
 31 26.336971 0.000019 0.000002 1.330426 0.262476 -0.306455
 32 1.854847 1.227798 13.762341 -1.779871 -0.135060 1.110000
 33 10.456542 -0.000008 0.000004 -0.280758 0.238415 -1.202515
 34 24.248116 0.000002 -0.000004 -0.042558 -0.018026 1.728743
 35 26.336975 0.000000 0.000004 -1.467932 -0.179083 -0.395874
time 25
  0 0.000000 -8.961211 0.000000 0.000000 0.000000 3.141593
  1 0.000000 0.000000 0.000000 0.000000 -0.000000 0.000000
  2 -2.363353 4.825995 43.418785 -1.570797 0.627383 1.570797
  3 4.222169 -0.467508 0.000000 -0.000091 -0.175535 -0.136135
  4 4.476987 -0.000002 -0.000000 0.016142 -0.164863 0.042254
  5 4.477083 0.000000 0.000002 0.001835 0.177853 0.044340
  6 4.477077 -0.000004 -0.000002 0.003339 0.159082 -0.003911
  7 5.413502 -7.700466 -0.000000 0.007922 0.002447 -0.600899
  8 6.890240 0.000002 -0.000000 -0.006843 0.019265 -0.288891
  9 8.011925 0.000004 0.000005 0.020627 -0.012748 -0.181255
 10 7.210720 -0.000002 -0.000000 -0.025585 0.022951 -0.300702
 11 8.581028 -0.304903 -0.000000 0.007054 -0.002821 0.810159
 12 22.523008 2.194031 6.355708 0.000000 -0.424825 0.000000
 13 22.523005 2.194038 -6.355709 0.000000 0.312261 0.000000
 14 -3.006533 7.804720 -11.355459 0.303713 0.320777 0.755042
 15 10.384675 0.000008 0.000005 0.006708 0.191276 -1.804109
 16 22.550743 -0.000006 -0.000004 0.124561 0.013679 1.911672
 17 30.814247 -0.000015 -0.000004 2.489557 -0.142440 0.258130
 18 -3.013796 7.815494 11.355459 -0.283114 -0.205182 0.835072
 19 10.374533 -0.000002 0.000007 -0.264950 -0.231336 -1.963134
 20 22.550726 -0.000027 -0.000013 -0.220199 -0.036278 2.059460
 21 30.814270 -0.000023 0.000002 -2.583640 -0.153480 0.081044
 22 -4.250660 -0.770624 0.000001 0.007694 0.003980 -3.097315
 23 10.363422 0.000000 0.000000 0.019307 -0.013395 -0.450061
 24 10.363076 0.000000 -0.000000 -0.006028 0.029419 -0.247723
 25 10.363081 -0.000004 -0.000002 -0.013085 -0.028701 -0.040748
 26 9.253358 -0.000006 -3.973408 0.000000 0.000000 -0.021367
 27 8.210346 -0.000002 7.704017 0.000000 0.000000 -0.029637
 28 1.854841 1.227791 -13.762345 1.625756 0.279269 1.214834
 29 10.456543 -0.000004 0.000004 0.465039 0.063543 -1.068871
 30 24.248093 0.000001 0.000007 0.045331 0.021231 1.658166
 31 26.336971 0.000019 0.000002 1.289402 0.173760 -0.293146
 32 1.854847 1.227798 13.762341 -1.819813 -0.134458 1.214816
 33 10.456542 -0.000008 0.000004 -0.293544 0.237914 -1.221472
 34 24.248116 0.000002 -0.000004 -0.046185 -0.018397 1.760375
 35 26.336975 0.000000 0.000004 -1.431782 -0.076588 -0.395139
time 26
  0 0.000000 -6.222846 0.000000 0.000000 0.000000 3.141593
  1 0.000000 0.000000 0.000000 0.000000 -0.000000 0.000000
  2 -2.363353 9.224567 41.594513 -1.570125 0.629736 1.571468
  3 4.222169 -0.467508 0.000000 0.000916 -0.175646 -0.139324
  4 4.476987 -0.000002 -0.000000 0.016585 -0.164756 0.043342
  5 4.477083 0.000000 0.000002 0.003094 0.177934 0.052180
  6 4.477077 -0.000004 -0.000002 0.004201 0.159044 0.000637
  7 5.413502 -7.700466 -0.000000 0.007975 0.002260 -0.542682
  8 6.890240 0.000002 -0.000000 -0.005585 0.019474 -0.227361
  9 8.011925 0.000004 0.000005 0.018532 -0.015704 -0.070706
 10 7.210720 -0.000002 -0.000000 -0.027698 0.019473 -0.408937
 11 8.581028 -0.304903 -0.000000 0.007169 -0.002496 0.666910
 12 22.523008 2.194031 6.355708 0.000000 0.005988 0.000000
 13 22.523005 2.194038 -6.355709 0.000000 -0.055568 0.000000
 14 -3.006533 7.804720 -11.355459 0.353578 0.356002 0.807234
 15 10.384675 0.000008 0.000005 -0.016823 0.187605 -1.935460
 16 22.550743 -0.000006 -0.000004 0.128096 0.012560 2.078743
 17 30.814247 -0.000015 -0.000004 2.437142 -0.196546 0.208889
 18 -3.013796 7.815494 11.355459 -0.311065 -0.219307 0.882041
 19 10.374533 -0.000002 0.000007 -0.229964 -0.256319 -2.127232
 20 22.550726 -0.000027 -0.000013 -0.240116 -0.032784 2.238748
 21 30.814270 -0.000023 0.000002 -2.550033 -0.105769 0.017703
 22 -4.250660 -0.770624 0.000001 0.006867 0.004606 -2.989181
 23 10.363422 0.000000 0.000000 0.021177 -0.014198 -0.501446
 24 10.363076 0.000000 -0.000000 -0.008701 0.033817 -0.302827
 25 10.363081 -0.000004 -0.000002 -0.009095 -0.031644 -0.059380
 26 9.253358 -0.000006 -3.973408 0.000000 0.000000 -0.018106
 27 8.210346 -0.000002 7.704017 0.000000 0.000000 -0.024381
 28 1.854841 1.227791 -13.762345 1.688066 0.270980 1.345902
 29 10.456543 -0.000004 0.000004 0.469914 0.072262 -1.122711
 30 24.248093 0.000001 0.000007 0.053561 0.020949 1.730628
 31 26.336971 0.000019 0.000002 1.242462 0.073901 -0.272270
 32 1.854847 1.227798 13.762341 -1.866136 -0.128794 1.330317
 33 10.456542 -0.000008 0.000004 -0.313044 0.231402 -1.276095
 34 24.248116 0.000002 -0.000004 -0.053996 -0.018169 1.832472
 35 26.336975 0.000000 0.000004 -1.391386 0.028265 -0.392652
time 27
  0 0.000000 -3.980590 0.000000 0.000000 0.000000 3.141593
  1 0.000000 0.000000 0.000000 0.000000 -0.000000 0.000000
  2 -2.363353 11.947306 39.379601 -1.569934 0.594753 1.571659
  3 4.222169 -0.467508 0.000000 0.001371 -0.175683 -0.140827
  4 4.476987 -0.000002 -0.000000 0.016729 -0.164692 0.043764
  5 4.477083 0.000000 0.000002 0.003633 0.178031 0.055411
  6 4.477077 -0.000004 -0.000002 0.004621 0.159063 0.002770
  7 5.413502 -7.700466 -0.000000 0.007948 0.002345 -0.508455
  8 6.890240 0.000002 -0.000000 -0.004842 0.019343 -0.224429
  9 8.011925 0.000004 0.000005 0.016515 -0.017174 -0.015263
 10 7.210720 -0.000002 -0.000000 -0.027424 0.017425 -0.413281
 11 8.581028 -0.304903 -0.000000 0.007238 -0.002274 0.608586
 12 22.523008 2.194031 6.355708 0.000000 0.099599 0.000000
 13 22.523005 2.194038 -6.355709 0.000000 -0.134639 0.000000
 14 -3.006533 7.804720 -11.355459 0.412775 0.385290 0.879753
 15 10.384675 0.000008 0.000005 -0.036619 0.182365 -2.045872
 16 22.550743 -0.000006 -0.000004 0.130862 0.011556 2.205317
 17 30.814247 -0.000015 -0.000004 2.375336 -0.222753 0.201225
 18 -3.013796 7.815494 11.355459 -0.342529 -0.228275 0.951296
 19 10.374533 -0.000002 0.000007 -0.190664 -0.274027 -2.289185
 20 22.550726 -0.000027 -0.000013 -0.258255 -0.029290 2.385341
 21 30.814270 -0.000023 0.000002 -2.515479 -0.078488 0.001414
 22 -4.250660 -0.770624 0.000001 0.006220 0.004927 -3.003008
 23 10.363422 0.000000 0.000000 0.021740 -0.014653 -0.460778
 24 10.363076 0.000000 -0.000000 -0.007275 0.039055 -0.284295
 25 10.363081 -0.000004 -0.000002 -0.004725 -0.029703 -0.046869
 26 9.253358 -0.000006 -3.973408 0.000000 0.000000 -0.062301
 27 8.210346 -0.000002 7.704017 0.000000 0.000000 -0.067344
 28 1.854841 1.227791 -13.762345 1.787315 0.250058 1.537243
 29 10.456543 -0.000004 0.000004 0.470315 0.078899 -1.171167
 30 24.248093 0.000001 0.000007 0.059641 0.020465 1.785863
 31 26.336971 0.000019 0.000002 1.161937 -0.041225 -0.211301
 32 1.854847 1.227798 13.762341 -1.918198 -0.124826 1.433281
 33 10.456542 -0.000008 0.000004 -0.329425 0.219686 -1.332966
 34 24.248116 0.000002 -0.000004 -0.061756 -0.017822 1.902944
 35 26.336975 0.000000 0.000004 -1.341170 0.089967 -0.381631
time 28
  0 0.000000 -2.238349 0.000000 0.000000 0.000000 3.141593
  1 0.000000 0.000000 0.000000 0.000000 -0.000000 0.000000
  2 -2.363353 12.857491 37.055313 -1.570797 0.505600 1.570797
  3 4.222169 -0.467508 0.000000 0.001910 -0.175720 -0.142544
  4 4.476987 -0.000002 -0.000000 0.016897 -0.164628 0.044163
  5 4.477083 0.000000 0.000002 0.004220 0.178144 0.059087
  6 4.477077 -0.000004 -0.000002 0.005088 0.159044 0.005215
  7 5.413502 -7.700466 -0.000000 0.007908 0.002549 -0.483470
  8 6.890240 0.000002 -0.000000 -0.004147 0.019121 -0.236902
  9 8.011925 0.000004 0.000005 0.014498 -0.018116 0.020713
 10 7.210720 -0.000002 -0.000000 -0.025996 0.015660 -0.387000
 11 8.581028 -0.304903 -0.000000 0.007261 -0.002172 0.581598
 12 22.523008 2.194031 6.355708 0.000000 0.080810 0.000000
 13 22.523005 2.194038 -6.355709 0.000000 -0.117336 0.000000
 14 -3.006533 7.804720 -11.355459 0.472949 0.402143 0.966212
 15 10.384675 0.000008 0.000005 -0.053091 0.176382 -2.139123
 16 22.550743 -0.000006 -0.000004 0.132446 0.010838 2.285099
 17 30.814247 -0.000015 -0.000004 2.314229 -0.216296 0.218737
 18 -3.013796 7.815494 11.355459 -0.371550 -0.229135 1.036797
 19 10.374533 -0.000002 0.000007 -0.152982 -0.281070 -2.418029
 20 22.550726 -0.000027 -0.000013 -0.271287 -0.026365 2.488199
 21 30.814270 -0.000023 0.000002 -2.481662 -0.074427 0.021691
 22 -4.250660 -0.770624 0.000001 0.006568 0.004541 2.989934
 23 10.363422 0.000000 0.000000 0.018876 -0.014306 -0.162112
 24 10.363076 0.000000 -0.000000 0.005213 0.045718 -0.065015
 25 10.363081 -0.000004 -0.000002 0.000458 -0.008643 0.078910
 26 9.249452 -0.000006 -3.973408 0.000000 0.000000 -0.264423
 27 8.210346 -0.000002 7.704017 0.000000 0.000000 -0.269273
 28 1.854841 1.227791 -13.762345 1.934538 0.203131 1.793845
 29 10.456543 -0.000004 0.000004 0.449805 0.075607 -1.201691
 30 24.248093 0.000001 0.000007 0.057417 0.021352 1.771536
 31 26.336971 0.000019 0.000002 1.025901 -0.171672 -0.067602
 32 1.854847 1.227798 13.762341 -1.972456 -0.118287 1.524010
 33 10.456542 -0.000008 0.000004 -0.338107 0.191746 -1.410644
 34 24.248116 0.000002 -0.000004 -0.071005 -0.017786 1.985755
 35 26.336975 0.000000 0.000004 -1.277146 0.097164 -0.369198
time 29
  0 0.000000 -0.992218 0.000000 0.000000 0.000000 3.141593
  1 0.000000 0.000000 0.000000 0.000000 -0.000000 0.000000
  2 -2.363353 12.298880 34.941963 -1.571084 0.406833 1.570413
  3 4.222169 -0.467508 0.000000 0.002426 -0.175757 -0.144169
  4 4.476987 -0.000002 -0.000000 0.017017 -0.164563 0.044474
  5 4.477083 0.000000 0.000002 0.004748 0.178257 0.062378
  6 4.477077 -0.000004 -0.000002 0.005520 0.159044 0.007536
  7 5.413502 -7.700466 -0.000000 0.007855 0.002804 -0.457769
  8 6.890240 0.000002 -0.000000 -0.003488 0.018925 -0.247118
  9 8.011925 0.000004 0.000005 0.012507 -0.018995 0.055002
 10 7.210720 -0.000002 -0.000000 -0.024212 0.014000 -0.355624
 11 8.581028 -0.304903 -0.000000 0.007284 -0.002104 0.561585
 12 22.523008 2.194031 6.355708 0.000000 0.074577 0.000000
 13 22.523005 2.194038 -6.355709 0.000000 -0.110167 0.000000
 14 -3.006533 7.804720 -11.355459 0.528131 0.408184 1.053565
 15 10.384675 0.000008 0.000005 -0.061944 0.172457 -2.190886
 16 22.550743 -0.000006 -0.000004 0.133501 0.010322 2.341213
 17 30.814247 -0.000015 -0.000004 2.260329 -0.194133 0.239616
 18 -3.013796 7.815494 11.355459 -0.395224 -0.223679 1.124121
 19 10.374533 -0.000002 0.000007 -0.121974 -0.279409 -2.496657
 20 22.550726 -0.000027 -0.000013 -0.276047 -0.025030 2.545149
 21 30.814270 -0.000023 0.000002 -2.453808 -0.080739 0.048607
 22 -4.250660 -0.770624 0.000001 0.008138 0.002840 2.694186
 23 10.363422 0.000000 0.000000 0.015951 -0.010279 0.139459
 24 10.363076 0.000000 -0.000000 0.022747 0.053268 0.222919
 25 10.363081 -0.000004 -0.000002 0.007501 0.027746 0.249820
 26 9.253358 -0.000006 -3.973408 0.000000 0.000000 -0.355191
 27 8.210346 -0.000002 7.704017 0.000000 0.000000 -0.360082
 28 1.854841 1.227791 -13.762345 2.092403 0.146657 2.028247
 29 10.456543 -0.000004 0.000004 0.407336 0.059646 -1.185973
 30 24.248093 0.000001 0.000007 0.044442 0.023269 1.660001
 31 26.336971 0.000019 0.000002 0.863197 -0.258339 0.138722
 32 1.854847 1.227798 13.762341 -2.039948 -0.108245 1.612715
 33 10.456542 -0.000008 0.000004 -0.342516 0.158129 -1.496048
 34 24.248116 0.000002 -0.000004 -0.080501 -0.017414 2.068820
 35 26.336975 0.000000 0.000004 -1.195925 0.081436 -0.342126
time 30
  0 0.000000 -0.246101 0.000000 0.000000 0.000000 3.141593
  1 0.000000 0.000000 0.000000 0.000000 -0.000000 0.000000
  2 -2.363353 10.228504 33.586456 -1.570797 0.315645 1.570797
  3 4.222169 -0.467508 0.000000 0.002929 -0.175776 -0.145703
  4 4.476987 -0.000002 -0.000000 0.017125 -0.164521 0.044718
  5 4.477083 0.000000 0.000002 0.005203 0.178354 0.065327
  6 4.477077 -0.000004 -0.000002 0.005927 0.159025 0.009716
  7 5.413502 -7.700466 -0.000000 0.007802 0.003092 -0.432721
  8 6.890240 0.000002 -0.000000 -0.002852 0.018729 -0.256939
  9 8.011925 0.000004 0.000005 0.010360 -0.019746 0.073976
 10 7.210720 -0.000002 -0.000000 -0.022071 0.012588 -0.314674
 11 8.581028 -0.304903 -0.000000 0.007307 -0.002052 0.547740
 12 22.523008 2.194031 6.355708 0.000000 0.068375 0.000000
 13 22.523005 2.194038 -6.355709 0.000000 -0.102484 0.000000
 14 -3.006533 7.804720 -11.355459 0.548099 0.393204 1.111594
 15 10.384675 0.000008 0.000005 -0.059814 0.173433 -2.179667
 16 22.550743 -0.000006 -0.000004 0.133341 0.010494 2.334494
 17 30.814247 -0.000015 -0.000004 2.242901 -0.145732 0.257307
 18 -3.013796 7.815494 11.355459 -0.394002 -0.207125 1.183800
 19 10.374533 -0.000002 0.000007 -0.107413 -0.272366 -2.484190
 20 22.550726 -0.000027 -0.000013 -0.269469 -0.025933 2.534168
 21 30.814270 -0.000023 0.000002 -2.453001 -0.105157 0.068493
 22 -4.250660 -0.770624 0.000001 0.010175 0.000112 2.676518
 23 10.363422 0.000000 0.000000 0.014741 -0.002812 0.159815
 24 10.363076 0.000000 -0.000000 0.032838 0.064474 0.367816
 25 10.363081 -0.000004 -0.000002 0.011810 0.068233 0.353853
 26 9.253358 -0.000006 -3.973408 0.000000 0.000000 0.121409
 27 8.210346 -0.000002 7.704017 0.000000 0.000000 0.115969
 28 1.854841 1.227791 -13.762345 2.218387 0.108859 2.164545
 29 10.456543 -0.000004 0.000004 0.359572 0.043737 -1.164394
 30 24.248093 0.000001 0.000007 0.029984 0.023794 1.531475
 31 26.336971 0.000019 0.000002 0.741213 -0.271793 0.309371
 32 1.854847 1.227798 13.762341 -2.151502 -0.084467 1.769702
 33 10.456542 -0.000008 0.000004 -0.339294 0.126877 -1.566988
 34 24.248116 0.000002 -0.000004 -0.085941 -0.017654 2.104107
 35 26.336975 0.000000 0.000004 -1.064917 0.124867 -0.251304
time 31
  0 0.000000 0.000000 0.000000 0.000000 0.000000 3.141593
  1 0.000000 0.000000 0.000000 0.000000 -0.000000 0.000000
  2 -2.363353 6.111190 33.520046 -1.570030 0.240652 1.571563
  3 4.222169 -0.467508 0.000000 0.003408 -0.175794 -0.147144
  4 4.476987 -0.000002 -0.000000 0.017197 -0.164478 0.044874
  5 4.477083 0.000000 0.000002 0.005599 0.178451 0.067950
  6 4.477077 -0.000004 -0.000002 0.006299 0.159025 0.011756
  7 5.413502 -7.700466 -0.000000 0.007762 0.003415 -0.408638
  8 6.890240 0.000002 -0.000000 -0.002241 0.018546 -0.266364
  9 8.011925 0.000004 0.000005 0.008212 -0.020401 0.087136
 10 7.210720 -0.000002 -0.000000 -0.019765 0.011282 -0.268575
 11 8.581028 -0.304903 -0.000000 0.007307 -0.002018 0.540134
 12 22.523008 2.194031 6.355708 0.000000 0.062173 0.000000
 13 22.523005 2.194038 -6.355709 0.000000 -0.094377 0.000000
 14 -3.006533 7.804720 -11.355459 0.512125 0.355436 1.110220
 15 10.384675 0.000008 0.000005 -0.042446 0.180710 -2.078085
 16 22.550743 -0.000006 -0.000004 0.131166 0.011269 2.233889
 17 30.814247 -0.000015 -0.000004 2.286056 -0.077143 0.273637
 18 -3.013796 7.815494 11.355459 -0.354392 -0.181193 1.183515
 19 10.374533 -0.000002 0.000007 -0.118738 -0.262166 -2.338067
 20 22.550726 -0.000027 -0.000013 -0.248879 -0.031194 2.416422
 21 30.814270 -0.000023 0.000002 -2.495413 -0.145014 0.079203
 22 -4.250660 -0.770624 0.000001 0.010235 -0.001220 2.729625
 23 10.363422 0.000000 0.000000 0.012320 0.000543 0.103215
 24 10.363076 0.000000 -0.000000 0.035079 0.068728 0.392309
 25 10.363081 -0.000004 -0.000002 0.013608 0.094701 0.400702
 26 9.253358 -0.000006 -3.973408 0.000000 0.000000 0.632726
 27 8.210346 -0.000002 7.704017 0.000000 0.000000 0.627218
 28 1.854841 1.227791 -13.762345 2.283995 0.088678 2.185893
 29 10.456543 -0.000004 0.000004 0.310813 0.034377 -1.173642
 30 24.248093 0.000001 0.000007 0.021717 0.024117 1.434267
 31 26.336971 0.000019 0.000002 0.692010 -0.252111 0.382822
 32 1.854847 1.227798 13.762341 -2.278789 -0.031494 1.944698
 33 10.456542 -0.000008 0.000004 -0.315351 0.103974 -1.587167
 34 24.248116 0.000002 -0.000004 -0.081718 -0.019500 2.035462
 35 26.336975 0.000000 0.000004 -0.901104 0.200869 -0.088423
time 32
  0 0.000000 0.000000 0.000000 0.000000 0.000000 3.141593
  1 0.000000 0.000000 0.000000 0.000000 -0.000000 0.000000
  2 -2.363353 0.193041 34.219288 -1.570030 0.209139 1.571563
  3 4.222169 -0.467508 0.000000 0.003852 -0.175813 -0.148494
  4 4.476987 -0.000002 -0.000000 0.017257 -0.164435 0.044985
  5 4.477083 0.000000 0.000002 0.005946 0.178548 0.070292
  6 4.477077 -0.000004 -0.000002 0.006658 0.159025 0.013671
  7 5.413502 -7.700466 -0.000000 0.007709 0.003789 -0.385613
  8 6.890240 0.000002 -0.000000 -0.001678 0.018363 -0.275440
  9 8.011925 0.000004 0.000005 0.006169 -0.021024 0.098687
 10 7.210720 -0.000002 -0.000000 -0.017322 0.009940 -0.220733
 11 8.581028 -0.304903 -0.000000 0.007307 -0.002018 0.538311
 12 22.523008 2.194031 6.355708 0.000000 0.055941 0.000000
 13 22.523005 2.194038 -6.355709 0.000000 -0.085877 0.000000
 14 -3.006533 7.804720 -11.355459 0.438657 0.315972 1.042646
 15 10.384675 0.000008 0.000005 -0.011893 0.188518 -1.908968
 16 22.550743 -0.000006 -0.000004 0.127520 0.012618 2.053501
 17 30.814247 -0.000015 -0.000004 2.373720 -0.005325 0.323344
 18 -3.013796 7.815494 11.355459 -0.287493 -0.159856 1.113747
 19 10.374533 -0.000002 0.000007 -0.144623 -0.247648 -2.116679
 20 22.550726 -0.000027 -0.000013 -0.220832 -0.038772 2.208474
 21 30.814270 -0.000023 0.000002 -2.572625 -0.188175 0.139142
 22 -4.250660 -0.770624 0.000001 0.008377 -0.000706 2.775024
 23 10.363422 0.000000 0.000000 0.008773 -0.001362 0.048794
 24 10.363076 0.000000 -0.000000 0.032850 0.059021 0.360434
 25 10.363081 -0.000004 -0.000002 0.008880 0.087630 0.375412
 26 9.253358 -0.000006 -3.973408 0.000000 0.000000 0.622059
 27 8.210346 -0.000002 7.704017 0.000000 0.000000 0.616333
 28 1.854841 1.227791 -13.762345 2.297099 0.072147 2.129087
 29 10.456543 -0.000004 0.000004 0.262771 0.027028 -1.188708
 30 24.248093 0.000001 0.000007 0.019900 0.025206 1.362574
 31 26.336971 0.000019 0.000002 0.689357 -0.246198 0.397954
 32 1.854847 1.227798 13.762341 -2.348848 0.025555 1.990106
 33 10.456542 -0.000008 0.000004 -0.286863 0.083019 -1.597650
 34 24.248116 0.000002 -0.000004 -0.074788 -0.021441 1.936302
 35 26.336975 0.000000 0.000004 -0.797927 0.222150 0.035292
time 33
  0 0.000000 0.000000 0.000000 0.000000 0.000000 3.141593
  1 0.000000 0.000000 0.000000 0.000000 -0.000000 0.000000
  2 -2.363353 -5.174310 34.301323 -1.570509 0.187399 1.571084
  3 4.222169 -0.467508 0.000000 0.004271 -0.175813 -0.149766
  4 4.476987 -0.000002 -0.000000 0.017304 -0.164414 0.045051
  5 4.477083 0.000000 0.000002 0.006234 0.178629 0.072382
  6 4.477077 -0.000004 -0.000002 0.006982 0.159007 0.015447
  7 5.413502 -7.700466 -0.000000 0.007656 0.004197 -0.364019
  8 6.890240 0.000002 -0.000000 -0.001139 0.018193 -0.284166
  9 8.011925 0.000004 0.000005 0.004204 -0.021599 0.108135
 10 7.210720 -0.000002 -0.000000 -0.014824 0.008527 -0.172113
 11 8.581028 -0.304903 -0.000000 0.007307 -0.002018 0.542062
 12 22.523008 2.194031 6.355708 0.000000 0.049739 0.000000
 13 22.523005 2.194038 -6.355709 0.000000 -0.077014 0.000000
 14 -3.006533 7.804720 -11.355459 0.368499 0.277427 0.969715
 15 10.384675 0.000008 0.000005 0.013842 0.191191 -1.769453
 16 22.550743 -0.000006 -0.000004 0.123698 0.013450 1.872084
 17 30.814247 -0.000015 -0.000004 2.446490 0.047841 0.402524
 18 -3.013796 7.815494 11.355459 -0.220695 -0.138108 1.036911
 19 10.374533 -0.000002 0.000007 -0.156622 -0.234459 -1.950957
 20 22.550726 -0.000027 -0.000013 -0.199486 -0.044151 2.025340
 21 30.814270 -0.000023 0.000002 -2.638997 -0.210391 0.229705
 22 -4.250660 -0.770624 0.000001 0.005285 0.001171 2.820039
 23 10.363422 0.000000 0.000000 0.004782 -0.007211 -0.009324
 24 10.363076 0.000000 -0.000000 0.024628 0.036981 0.268990
 25 10.363081 -0.000004 -0.000002 0.002010 0.068079 0.323033
 26 9.253358 -0.000006 -3.973408 0.000000 0.000000 0.421908
 27 8.210346 -0.000002 7.704017 0.000000 0.000000 0.416506
 28 1.854841 1.227791 -13.762345 2.306289 0.056234 2.066381
 29 10.456543 -0.000004 0.000004 0.220248 0.026032 -1.197957
 30 24.248093 0.000001 0.000007 0.019084 0.026397 1.294374
 31 26.336971 0.000019 0.000002 0.687486 -0.243386 0.411981
 32 1.854847 1.227798 13.762341 -2.389465 0.074561 1.957967
 33 10.456542 -0.000008 0.000004 -0.255221 0.063094 -1.592369
 34 24.248116 0.000002 -0.000004 -0.065344 -0.024329 1.787690
 35 26.336975 0.000000 0.000004 -0.710489 0.224322 0.148043
time 34
  0 0.000000 0.000000 0.000000 0.000000 0.000000 3.141593
  1 0.000000 0.000000 0.000000 0.000000 -0.000000 0.000000
  2 -2.343822 -8.955675 33.371605 -1.571468 0.159716 1.570126
  3 4.222169 -0.467508 0.000000 0.004655 -0.175813 -0.150947
  4 4.476987 -0.000002 -0.000000 0.017340 -0.164392 0.045096
  5 4.477083 0.000000 0.000002 0.006485 0.178709 0.074235
  6 4.477077 -0.000004 -0.000002 0.007293 0.159007 0.017097
  7 5.413502 -7.700466 -0.000000 0.007603 0.004656 -0.344136
  8 6.890240 0.000002 -0.000000 -0.000623 0.018023 -0.292498
  9 8.011925 0.000004 0.000005 0.002344 -0.022126 0.115481
 10 7.210720 -0.000002 -0.000000 -0.012326 0.007097 -0.123279
 11 8.581028 -0.304903 -0.000000 0.007307 -0.002052 0.551175
 12 22.523008 2.194031 6.355708 0.000000 0.043506 0.000000
 13 22.523005 2.194038 -6.355709 0.000000 -0.067849 0.000000
 14 -3.006533 7.804720 -11.355459 0.334750 0.262977 0.927549
 15 10.384675 0.000008 0.000005 0.028559 0.191488 -1.689142
 16 22.550743 -0.000006 -0.000004 0.121267 0.013880 1.766393
 17 30.814247 -0.000015 -0.000004 2.486325 0.085960 0.469778
 18 -3.013796 7.815494 11.355459 -0.171972 -0.128430 0.993932
 19 10.374533 -0.000002 0.000007 -0.151162 -0.228711 -1.863631
 20 22.550726 -0.000027 -0.000013 -0.186740 -0.046958 1.916030
 21 30.814270 -0.000023 0.000002 -2.698354 -0.222013 0.318567
 22 -4.250660 -0.770624 0.000001 0.001498 0.004188 2.864184
 23 10.363422 0.000000 0.000000 0.000839 -0.016019 -0.069775
 24 10.363076 0.000000 -0.000000 0.017006 0.018309 0.171351
 25 10.363081 -0.000004 -0.000002 -0.004380 0.046449 0.265794
 26 9.249452 -0.000006 -3.973408 0.000000 0.000000 0.228313
 27 8.210346 -0.000002 7.704017 0.000000 0.000000 0.222817
 28 1.854841 1.227791 -13.762345 2.337687 0.045403 2.037613
 29 10.456543 -0.000004 0.000004 0.178582 0.025854 -1.205555
 30 24.248093 0.000001 0.000007 0.018046 0.027486 1.225168
 31 26.336971 0.000019 0.000002 0.654467 -0.232586 0.460470
 32 1.854847 1.227798 13.762341 -2.445579 0.077406 1.963826
 33 10.456542 -0.000008 0.000004 -0.204147 0.045534 -1.482294
 34 24.248116 0.000002 -0.000004 -0.052273 -0.027278 1.569875
 35 26.336975 0.000000 0.000004 -0.616360 0.218179 0.283231
time 35
  0 0.000000 0.000000 0.000000 0.000000 0.000000 3.141593
  1 0.000000 0.000000 0.000000 0.000000 -0.000000 0.000000
  2 -2.203192 -11.350281 32.430168 -1.571563 0.094815 1.570221
  3 4.222169 -0.467508 0.000000 0.005014 -0.175794 -0.152051
  4 4.476987 -0.000002 -0.000000 0.017376 -0.164371 0.045096
  5 4.477083 0.000000 0.000002 0.006701 0.178790 0.075895
  6 4.477077 -0.000004 -0.000002 0.007569 0.159007 0.018624
  7 5.413502 -7.700466 -0.000000 0.007550 0.005165 -0.326183
  8 6.890240 0.000002 -0.000000 -0.000156 0.017867 -0.300456
  9 8.011925 0.000004 0.000005 0.000616 -0.022621 0.120646
 10 7.210720 -0.000002 -0.000000 -0.009828 0.005632 -0.074713
 11 8.581028 -0.304903 -0.000000 0.007284 -0.002104 0.563372
 12 22.523008 2.194031 6.355708 0.000000 0.037273 0.000000
 13 22.523005 2.194038 -6.355709 0.000000 -0.058441 0.000000
 14 -3.006533 7.804720 -11.355459 0.334099 0.248598 0.950692
 15 10.384675 0.000008 0.000005 0.041109 0.190936 -1.620274
 16 22.550743 -0.000006 -0.000004 0.120115 0.014024 1.712580
 17 30.814247 -0.000015 -0.000004 2.497332 0.117402 0.490764
 18 -3.013796 7.815494 11.355459 -0.147075 -0.118080 1.016618
 19 10.374533 -0.000002 0.000007 -0.138489 -0.227482 -1.821186
 20 22.550726 -0.000027 -0.000013 -0.179325 -0.048862 1.857778
 21 30.814270 -0.000023 0.000002 -2.722664 -0.218808 0.365536
 22 -4.250660 -0.770624 0.000001 -0.002025 0.006563 2.912810
 23 10.363422 0.000000 0.000000 -0.001989 -0.023665 -0.132096
 24 10.363076 0.000000 -0.000000 0.010271 0.005893 0.078642
 25 10.363081 -0.000004 -0.000002 -0.009920 0.028548 0.209764
 26 9.253358 -0.000006 -3.973408 0.000000 0.000000 0.134691
 27 8.210346 -0.000002 7.704017 0.000000 0.000000 0.128516
 28 1.854841 1.227791 -13.762345 2.380033 0.038346 2.027091
 29 10.456543 -0.000004 0.000004 0.138296 0.026779 -1.221012
 30 24.248093 0.000001 0.000007 0.017453 0.028596 1.163244
 31 26.336971 0.000019 0.000002 0.616923 -0.216608 0.510118
 32 1.854847 1.227798 13.762341 -2.500816 0.046104 1.988684
 33 10.456542 -0.000008 0.000004 -0.154565 0.021963 -1.366465
 34 24.248116 0.000002 -0.000004 -0.039449 -0.027709 1.355106
 35 26.336975 0.000000 0.000004 -0.526477 0.197209 0.414349
time 36
  0 0.000000 0.000000 0.000000 0.000000 0.000000 3.141593
  1 0.000000 0.000000 0.000000 0.000000 -0.000000 0.000000
  2 -1.878964 -12.893295 31.809057 -1.571563 0.025766 1.570701
  3 4.222169 -0.467508 0.000000 0.005326 -0.175794 -0.153048
  4 4.476987 -0.000002 -0.000000 0.017412 -0.164371 0.045118
  5 4.477083 0.000000 0.000002 0.006881 0.178855 0.077392
  6 4.477077 -0.000004 -0.000002 0.007833 0.158988 0.020010
  7 5.413502 -7.700466 -0.000000 0.007496 0.005709 -0.309941
  8 6.890240 0.000002 -0.000000 0.000276 0.017723 -0.308043
  9 8.011925 0.000004 0.000005 -0.000982 -0.023053 0.123605
 10 7.210720 -0.000002 -0.000000 -0.007412 0.004167 -0.026925
 11 8.581028 -0.304903 -0.000000 0.007284 -0.002155 0.577042
 12 22.523008 2.194031 6.355708 0.000000 0.031071 0.000000
 13 22.523005 2.194038 -6.355709 0.000000 -0.048852 0.000000
 14 -3.006533 7.804720 -11.355459 0.337788 0.232981 0.985441
 15 10.384675 0.000008 0.000005 0.047832 0.190406 -1.581785
 16 22.550743 -0.000006 -0.000004 0.119124 0.014053 1.665606
 17 30.814247 -0.000015 -0.000004 2.504539 0.147716 0.503835
 18 -3.013796 7.815494 11.355459 -0.142340 -0.107168 1.083594
 19 10.374533 -0.000002 0.000007 -0.125277 -0.227083 -1.782683
 20 22.550726 -0.000027 -0.000013 -0.172318 -0.050393 1.804053
 21 30.814270 -0.000023 0.000002 -2.717016 -0.212397 0.372062
 22 -4.250660 -0.770624 0.000001 0.002589 -0.014122 3.018434
 23 10.363422 0.000000 0.000000 -0.000240 -0.009188 -0.200535
 24 10.363076 0.000000 -0.000000 0.003547 0.001926 -0.009550
 25 10.363081 -0.000004 -0.000002 -0.014217 0.049608 0.188232
 26 9.253358 -0.000006 -3.973408 0.000000 0.000000 0.135405
 27 8.210346 -0.000002 7.704017 0.000000 0.000000 0.129092
 28 1.854841 1.227791 -13.762345 2.423259 0.031956 2.017664
 29 10.456543 -0.000004 0.000004 0.109750 0.039555 -1.304334
 30 24.248093 0.000001 0.000007 0.021531 0.030231 1.163599
 31 26.336971 0.000019 0.000002 0.576030 -0.181132 0.527901
 32 1.854847 1.227798 13.762341 -2.553385 0.013188 2.012939
 33 10.456542 -0.000008 0.000004 -0.125365 -0.007090 -1.349912
 34 24.248116 0.000002 -0.000004 -0.035523 -0.029087 1.250970
 35 26.336975 0.000000 0.000004 -0.469314 0.146458 0.486860
time 37
  0 0.000000 0.000000 0.000000 0.000000 0.000000 3.141593
  1 0.000000 0.000000 0.000000 0.000000 -0.000000 0.000000
  2 -1.425825 -13.811293 31.422327 -1.571564 -0.041249 1.571084
  3 4.222169 -0.467508 0.000000 0.005590 -0.175776 -0.153968
  4 4.476987 -0.000002 -0.000000 0.017448 -0.164371 0.045162
  5 4.477083 0.000000 0.000002 0.007025 0.178919 0.078726
  6 4.477077 -0.000004 -0.000002 0.008084 0.158988 0.021255
  7 5.413502 -7.700466 -0.000000 0.007443 0.006270 -0.295130
  8 6.890240 0.000002 -0.000000 0.000683 0.017592 -0.315234
  9 8.011925 0.000004 0.000005 -0.002462 -0.023452 0.124358
 10 7.210720 -0.000002 -0.000000 -0.005024 0.002737 0.019657
 11 8.581028 -0.304903 -0.000000 0.007261 -0.002206 0.591833
 12 22.523008 2.194031 6.355708 0.000000 0.024839 0.000000
 13 22.523005 2.194038 -6.355709 0.000000 -0.039112 0.000000
 14 -3.006533 7.804720 -11.355459 0.356888 0.212596 1.059951
 15 10.384675 0.000008 0.000005 0.053472 0.189791 -1.548795
 16 22.550743 -0.000006 -0.000004 0.118644 0.014053 1.643270
 17 30.814247 -0.000015 -0.000004 2.499647 0.172167 0.490549
 18 -3.013796 7.815494 11.355459 -0.139693 -0.096593 1.154274
 19 10.374533 -0.000002 0.000007 -0.112064 -0.227150 -1.743775
 20 22.550726 -0.000027 -0.000013 -0.165414 -0.051532 1.751818
 21 30.814270 -0.000023 0.000002 -2.709018 -0.205938 0.375353
 22 -4.250660 -0.770624 0.000001 0.008964 -0.046057 3.137629
 23 10.363422 0.000000 0.000000 0.000839 0.007554 -0.268093
 24 10.363076 0.000000 -0.000000 -0.002397 0.023283 -0.090954
 25 10.363081 -0.000004 -0.000002 -0.018354 0.071885 0.165144
 26 9.253358 -0.000006 -3.973408 0.000000 0.000000 0.144033
 27 8.210346 -0.000002 7.704017 0.000000 0.000000 0.137603
 28 1.854841 1.227791 -13.762345 2.465694 0.026553 2.008602
 29 10.456543 -0.000004 0.000004 0.082112 0.051496 -1.392692
 30 24.248093 0.000001 0.000007 0.026165 0.031885 1.170644
 31 26.336971 0.000019 0.000002 0.535441 -0.143160 0.540934
 32 1.854847 1.227798 13.762341 -2.577694 -0.017430 2.004236
 33 10.456542 -0.000008 0.000004 -0.100981 -0.036644 -1.434961
 34 24.248116 0.000002 -0.000004 -0.035627 -0.031053 1.235992
 35 26.336975 0.000000 0.000004 -0.435094 0.088230 0.512010
time 38
  0 0.000000 0.000000 0.000000 0.000000 0.000000 3.141593
  1 0.000000 0.000000 0.000000 0.000000 -0.000000 0.000000
  2 -0.929716 -14.217554 31.215290 -1.571755 -0.105551 1.571563
  3 4.222169 -0.467508 0.000000 0.005817 -0.175776 -0.154796
  4 4.476987 -0.000002 -0.000000 0.017496 -0.164349 0.045207
  5 4.477083 0.000000 0.000002 0.007157 0.178952 0.079956
  6 4.477077 -0.000004 -0.000002 0.008312 0.158969 0.022377
  7 5.413502 -7.700466 -0.000000 0.007403 0.006847 -0.281470
  8 6.890240 0.000002 -0.000000 0.001055 0.017461 -0.322052
  9 8.011925 0.000004 0.000005 -0.003785 -0.023804 0.122852
 10 7.210720 -0.000002 -0.000000 -0.003047 0.001518 0.060017
 11 8.581028 -0.304903 -0.000000 0.007238 -0.002257 0.607535
 12 22.523008 2.194031 6.355708 0.000000 0.018606 0.000000
 13 22.523005 2.194038 -6.355709 0.000000 -0.029311 0.000000
 14 -3.006533 7.804720 -11.355459 0.375607 0.190338 1.137209
 15 10.384675 0.000008 0.000005 0.053846 0.189727 -1.546240
 16 22.550743 -0.000006 -0.000004 0.118244 0.014053 1.624141
 17 30.814247 -0.000015 -0.000004 2.493051 0.195302 0.474434
 18 -3.013796 7.815494 11.355459 -0.152981 -0.087513 1.230712
 19 10.374533 -0.000002 0.000007 -0.099122 -0.227714 -1.706433
 20 22.550726 -0.000027 -0.000013 -0.161573 -0.052239 1.726631
 21 30.814270 -0.000023 0.000002 -2.700493 -0.199748 0.377696
 22 -4.250660 -0.770624 0.000001 0.012871 -0.080463 -3.027308
 23 10.363422 0.000000 0.000000 0.001079 0.023794 -0.332373
 24 10.363076 0.000000 -0.000000 -0.009504 0.045406 -0.167893
 25 10.363081 -0.000004 -0.000002 -0.022442 0.090665 0.136041
 26 9.249452 -0.000006 -3.973408 0.000000 0.000000 0.152254
 27 8.210346 -0.000002 7.704017 0.000000 0.000000 0.145572
 28 1.854841 1.227791 -13.762345 2.497179 0.030205 2.011217
 29 10.456543 -0.000004 0.000004 0.064520 0.065838 -1.445968
 30 24.248093 0.000001 0.000007 0.030503 0.033459 1.175439
 31 26.336971 0.000019 0.000002 0.495548 -0.104740 0.552532
 32 1.854847 1.227798 13.762341 -2.599370 -0.048158 1.993380
 33 10.456542 -0.000008 0.000004 -0.077987 -0.058156 -1.477052
 34 24.248116 0.000002 -0.000004 -0.035834 -0.032970 1.224924
 35 26.336975 0.000000 0.000004 -0.404003 0.030778 0.532469
time 39
  0 0.000000 0.000000 0.000000 0.000000 0.000000 3.141593
  1 0.000000 0.000000 0.000000 0.000000 -0.000000 0.000000
  2 -0.468764 -14.186304 31.187944 -1.571947 -0.166263 1.571947
  3 4.222169 -0.467508 0.000000 0.005997 -0.175757 -0.155547
  4 4.476987 -0.000002 -0.000000 0.017556 -0.164349 0.045318
  5 4.477083 0.000000 0.000002 0.007276 0.178984 0.081097
  6 4.477077 -0.000004 -0.000002 0.008528 0.158969 0.023373
  7 5.413502 -7.700466 -0.000000 0.007350 0.007425 -0.268651
  8 6.890240 0.000002 -0.000000 0.001390 0.017344 -0.328475
  9 8.011925 0.000004 0.000005 -0.004964 -0.024107 0.119037
 10 7.210720 -0.000002 -0.000000 -0.001620 0.000653 0.091179
 11 8.581028 -0.304903 -0.000000 0.007215 -0.002326 0.623903
 12 22.523008 2.194031 6.355708 0.000000 0.012404 0.000000
 13 22.523005 2.194038 -6.355709 0.000000 -0.019480 0.000000
 14 -3.006533 7.804720 -11.355459 0.392319 0.167267 1.212612
 15 10.384675 0.000008 0.000005 0.053920 0.189706 -1.545573
 16 22.550743 -0.000006 -0.000004 0.118260 0.014139 1.627349
 17 30.814247 -0.000015 -0.000004 2.480734 0.202229 0.449079
 18 -3.013796 7.815494 11.355459 -0.166778 -0.077574 1.306522
 19 10.374533 -0.000002 0.000007 -0.091504 -0.228578 -1.700634
 20 22.550726 -0.000027 -0.000013 -0.157999 -0.052847 1.703863
 21 30.814270 -0.000023 0.000002 -2.679164 -0.197594 0.356081
 22 -4.250660 -0.770624 0.000001 0.014370 -0.115880 -2.913080
 23 10.363422 0.000000 0.000000 0.000863 0.039481 -0.391833
 24 10.363076 0.000000 -0.000000 -0.016994 0.065493 -0.236624
 25 10.363081 -0.000004 -0.000002 -0.026504 0.106209 0.101140
 26 9.253358 -0.000006 -3.973408 0.000000 0.000000 0.160508
 27 8.210346 -0.000002 7.704017 0.000000 0.000000 0.153541
 28 1.854841 1.227791 -13.762345 2.527565 0.034547 2.015474
 29 10.456543 -0.000004 0.000004 0.047190 0.079451 -1.495683
 30 24.248093 0.000001 0.000007 0.031022 0.033721 1.143352
 31 26.336971 0.000019 0.000002 0.456830 -0.066768 0.562748
 32 1.854847 1.227798 13.762341 -2.620574 -0.078913 1.984462
 33 10.456542 -0.000008 0.000004 -0.054723 -0.078081 -1.514493
 34 24.248116 0.000002 -0.000004 -0.034345 -0.033594 1.177705
 35 26.336975 0.000000 0.000004 -0.383934 0.003820 0.555697
time 40
  0 0.000000 0.000000 0.000000 0.000000 0.000000 3.141593
  1 0.000000 0.000000 0.000000 0.000000 -0.000000 0.000000
  2 -0.132817 -13.756603 31.359825 -1.571563 -0.213253 1.571563
  3 4.222169 -0.467508 0.000000 0.006117 -0.175757 -0.156206
  4 4.476987 -0.000002 -0.000000 0.017628 -0.164349 0.045473
  5 4.477083 0.000000 0.000002 0.007372 0.179016 0.082209
  6 4.477077 -0.000004 -0.000002 0.008732 0.158969 0.024245
  7 5.413502 -7.700466 -0.000000 0.007324 0.008003 -0.256174
  8 6.890240 0.000002 -0.000000 0.001690 0.017239 -0.334642
  9 8.011925 0.000004 0.000005 -0.005998 -0.024363 0.112755
 10 7.210720 -0.000002 -0.000000 -0.000631 0.000159 0.114671
 11 8.581028 -0.304903 -0.000000 0.007192 -0.002394 0.641078
 12 22.523008 2.194031 6.355708 0.000000 0.006049 0.000000
 13 22.523005 2.194038 -6.355709 0.000000 -0.009468 0.000000
 14 -3.006533 7.804720 -11.355459 0.407838 0.155538 1.266246
 15 10.384675 0.000008 0.000005 0.053995 0.189685 -1.544851
 16 22.550743 -0.000006 -0.000004 0.118292 0.014225 1.631587
 17 30.814247 -0.000015 -0.000004 2.467761 0.208311 0.422757
 18 -3.013796 7.815494 11.355459 -0.186329 -0.068904 1.358563
 19 10.374533 -0.000002 0.000007 -0.083887 -0.229475 -1.696053
 20 22.550726 -0.000027 -0.000013 -0.157263 -0.052965 1.705662
 21 30.814270 -0.000023 0.000002 -2.656958 -0.195099 0.333098
 22 -4.250660 -0.770624 0.000001 0.015184 -0.145360 -2.825073
 23 10.363422 0.000000 0.000000 0.001366 0.053755 -0.438002
 24 10.363076 0.000000 -0.000000 -0.022879 0.082043 -0.288605
 25 10.363081 -0.000004 -0.000002 -0.030604 0.118688 0.059741
 26 9.253358 -0.000006 -3.973408 0.000000 0.000000 0.168967
 27 8.210346 -0.000002 7.704017 0.000000 0.000000 0.161679
 28 1.854841 1.227791 -13.762345 2.544934 0.046735 2.044182
 29 10.456543 -0.000004 0.000004 0.040901 0.089416 -1.488432
 30 24.248093 0.000001 0.000007 0.031355 0.033963 1.109193
 31 26.336971 0.000019 0.000002 0.433773 -0.053103 0.580476
 32 1.854847 1.227798 13.762341 -2.632728 -0.103238 2.012852
 33 10.456542 -0.000008 0.000004 -0.043429 -0.089491 -1.496797
 34 24.248116 0.000002 -0.000004 -0.032725 -0.034085 1.128049
 35 26.336975 0.000000 0.000004 -0.364508 -0.022765 0.579039
end
