version 1
nodes
  0 "Chaurus" -1
  1 "NPC Root [Root]" 0
  2 "Pelvis [Pelv]" 1
  3 "Spine[Spn0]" 2
  4 "Spine[Spn1]" 3
  5 "Spine[Spn2]" 4
  6 "Ribcage[Spn3]" 5
  7 "[Neck0]" 6
  8 "[Neck1]" 7
  9 "[Neck2]" 8
 10 "[Neck3]" 9
 11 "NPC Head [Head]" 10
 12 "Head[LeftPincher]" 11
 13 "Head[RightPincher]" 11
 14 "R UpperArm[RClv]" 6
 15 "R UpperArm[RUar]" 14
 16 "R UpperArm[RLar]" 15
 17 "R UpperArm[RHnd]" 16
 18 "L UpperArm[RClv]" 6
 19 "L UpperArm[LUar]" 18
 20 "L UpperArm[LLar]" 19
 21 "L UpperArm[LHnd]" 20
 22 "Tail[Tal0]" 2
 23 "Tail[Tal1]" 22
 24 "Tail[Tal2]" 23
 25 "Tail[Tal3]" 24
 26 "[TalRightPincher]" 25
 27 "[TalLeftPincher]" 25
 28 "R Leg[RThg0]" 2
 29 "R Leg[RThg1]" 28
 30 "R Leg[RClf]" 29
 31 "R Leg[RAnkle]" 30
 32 "LLeg[RThg0]" 2
 33 "LLeg[LThg1]" 32
 34 "LLeg[LClf]" 33
 35 "LLeg[LAnkle]" 34
end
skeleton
time 0
  0 0.000000 0.000000 0.000000 0.000000 -0.000000 -1.570796
  1 -0.542985 0.000000 0.000000 0.000000 -0.000000 0.000000
  2 -2.363353 -12.959703 31.785618 -1.570988 -0.244686 1.570988
  3 4.222169 -0.467508 0.000000 -0.002069 0.000018 0.022093
  4 4.476987 -0.000002 -0.000000 0.015327 -0.013331 0.198502
  5 4.477083 0.000000 0.000002 -0.004349 0.026123 -0.067772
  6 4.477077 -0.000004 -0.000002 -0.006321 -0.017097 -0.152773
  7 5.413502 -7.700466 -0.000000 0.007297 0.008547 -0.244474
  8 6.890240 0.000002 -0.000000 0.001953 0.017148 -0.340157
  9 8.011925 0.000004 0.000005 -0.006810 -0.024538 0.104449
 10 7.210720 -0.000002 -0.000000 0.000000 0.000000 0.130654
 11 8.581028 -0.304903 -0.000000 0.007192 -0.002445 0.657761
 12 22.523008 2.194031 6.355708 0.000000 -0.145122 0.000000
 13 22.523005 2.194038 -6.355709 0.000000 0.222966 0.000000
 14 -3.006533 7.804720 -11.355459 0.417007 0.139745 1.304840
 15 10.384675 0.000008 0.000005 0.031024 0.191764 -1.677146
 16 22.550743 -0.000006 -0.000004 0.121603 0.013421 1.761793
 17 30.814247 -0.000015 -0.000004 2.465533 0.228091 0.408253
 18 -3.013796 7.815494 11.355459 0.129381 -0.291650 1.369678
 19 10.374533 -0.000002 0.000007 -0.020319 -0.191203 -1.738151
 20 22.550726 -0.000027 -0.000013 -0.123048 -0.013506 1.830791
 21 30.814270 -0.000023 0.000002 -2.869405 0.195985 0.401850
 22 -4.250660 -0.770624 0.000001 0.016515 -0.162675 -2.777702
 23 10.363422 0.000000 0.000000 0.002661 0.066003 -0.470131
 24 10.363076 0.000000 -0.000000 -0.026810 0.095059 -0.325023
 25 10.363081 -0.000004 -0.000002 -0.034384 0.127470 0.014423
 26 9.253358 -0.000006 -3.973408 0.000000 0.000000 0.177086
 27 8.210346 -0.000002 7.704017 0.000000 0.000000 0.169444
 28 1.854841 1.227791 -13.762345 2.614544 0.166567 2.068388
 29 10.456543 -0.000004 0.000004 0.051033 0.091640 -1.369420
 30 24.248093 0.000001 0.000007 0.029835 0.033116 1.029271
 31 26.336971 0.000019 0.000002 0.386745 0.070853 0.618306
 32 1.854847 1.227798 13.762341 -2.675642 -0.086465 2.016859
 33 10.456542 -0.000008 0.000004 -0.038783 -0.093415 -1.495575
 34 24.248116 0.000002 -0.000004 -0.032583 -0.035020 1.121144
 35 26.336975 0.000000 0.000004 -0.307216 -0.028070 0.579265
time 1
  0 0.000000 0.000000 0.000000 0.000000 -0.000000 -1.570796
  1 -0.542985 0.000000 0.000000 0.000000 -0.000000 0.000000
  2 -2.363353 -12.959703 31.785618 -1.570988 -0.244686 1.570988
  3 4.222169 -0.467508 0.000000 -0.002069 0.000018 0.022093
  4 4.476987 -0.000002 -0.000000 0.015327 -0.013331 0.198502
  5 4.477083 0.000000 0.000002 -0.004349 0.026123 -0.067772
  6 4.477077 -0.000004 -0.000002 -0.006321 -0.017097 -0.152773
  7 5.413502 -7.700466 -0.000000 0.007297 0.008547 -0.244474
  8 6.890240 0.000002 -0.000000 0.001953 0.017148 -0.340157
  9 8.011925 0.000004 0.000005 -0.006810 -0.024538 0.104449
 10 7.210720 -0.000002 -0.000000 0.000000 0.000000 0.130654
 11 8.581028 -0.304903 -0.000000 0.007192 -0.002445 0.657761
 12 22.523008 2.194031 6.355708 0.000000 -0.145122 0.000000
 13 22.523005 2.194038 -6.355709 0.000000 0.222966 0.000000
 14 -3.006533 7.804720 -11.355459 0.417007 0.139745 1.304840
 15 10.384675 0.000008 0.000005 0.031024 0.191764 -1.677146
 16 22.550743 -0.000006 -0.000004 0.121603 0.013421 1.761793
 17 30.814247 -0.000015 -0.000004 2.465533 0.228091 0.408253
 18 -3.013796 7.815494 11.355459 0.129381 -0.291650 1.369678
 19 10.374533 -0.000002 0.000007 -0.020319 -0.191203 -1.738151
 20 22.550726 -0.000027 -0.000013 -0.123048 -0.013506 1.830791
 21 30.814270 -0.000023 0.000002 -2.869405 0.195985 0.401850
 22 -4.250660 -0.770624 0.000001 0.016515 -0.162675 -2.777702
 23 10.363422 0.000000 0.000000 0.002661 0.066003 -0.470131
 24 10.363076 0.000000 -0.000000 -0.026810 0.095059 -0.325023
 25 10.363081 -0.000004 -0.000002 -0.034384 0.127470 0.014423
 26 9.253358 -0.000006 -3.973408 0.000000 0.000000 0.177086
 27 8.210346 -0.000002 7.704017 0.000000 0.000000 0.169444
 28 1.854841 1.227791 -13.762345 2.614544 0.166567 2.068388
 29 10.456543 -0.000004 0.000004 0.051033 0.091640 -1.369420
 30 24.248093 0.000001 0.000007 0.029835 0.033116 1.029271
 31 26.336971 0.000019 0.000002 0.386745 0.070853 0.618306
 32 1.854847 1.227798 13.762341 -2.675642 -0.086465 2.016859
 33 10.456542 -0.000008 0.000004 -0.038783 -0.093415 -1.495575
 34 24.248116 0.000002 -0.000004 -0.032583 -0.035020 1.121144
 35 26.336975 0.000000 0.000004 -0.307216 -0.028070 0.579265
time 2
  0 0.000000 0.000000 0.000000 0.000000 -0.000000 -1.570796
  1 -0.542985 0.000000 0.000000 0.000000 -0.000000 0.000000
  2 -2.363353 -13.022205 30.785587 -1.567537 -0.220593 1.570701
  3 4.222169 -0.467508 0.000000 -0.004765 0.009231 0.047087
  4 4.476987 -0.000002 -0.000000 0.012798 -0.009112 0.223851
  5 4.477083 0.000000 0.000002 -0.007680 0.019484 -0.070440
  6 4.477077 -0.000004 -0.000002 -0.008694 -0.023750 -0.171600
  7 5.413502 -7.700466 -0.000000 0.003097 0.006864 -0.223845
  8 6.890240 0.000002 -0.000000 -0.001678 0.011175 -0.330988
  9 8.011925 0.000004 0.000005 -0.010045 -0.021966 0.074443
 10 7.210720 -0.000002 -0.000000 -0.001125 0.000706 0.091018
 11 8.581028 -0.304903 -0.000000 0.005378 -0.001011 0.662949
 12 22.523008 2.194031 6.355708 0.000000 -0.146313 0.000000
 13 22.523005 2.194038 -6.355709 0.000000 0.224781 0.000000
 14 -3.006533 7.804720 -11.355459 0.400675 0.148365 1.256014
 15 10.384675 0.000008 0.000005 0.025010 0.191743 -1.709526
 16 22.550743 -0.000006 -0.000004 0.122338 0.013479 1.800716
 17 30.814247 -0.000015 -0.000004 2.482437 0.222919 0.435256
 18 -3.013796 7.815494 11.355459 0.139360 -0.304168 1.309543
 19 10.374533 -0.000002 0.000007 -0.012769 -0.189342 -1.764476
 20 22.550726 -0.000027 -0.000013 -0.123885 -0.011622 1.868324
 21 30.814270 -0.000023 0.000002 -2.866844 0.202053 0.429295
 22 -4.250660 -0.770624 0.000001 0.015772 -0.161086 -2.788021
 23 10.363422 0.000000 0.000000 -0.001174 0.068089 -0.474774
 24 10.363076 0.000000 -0.000000 -0.027025 0.096005 -0.334728
 25 10.363081 -0.000004 -0.000002 -0.028757 0.114790 0.014933
 26 9.253358 -0.000006 -3.973408 0.000000 0.000000 0.168933
 27 8.210346 -0.000002 7.704017 0.000000 0.000000 0.161103
 28 1.854841 1.227791 -13.762345 2.608783 0.162052 2.051176
 29 10.456543 -0.000004 0.000004 0.046386 0.092459 -1.415835
 30 24.248093 0.000001 0.000007 0.031096 0.033822 1.062720
 31 26.336971 0.000019 0.000002 0.400797 0.053562 0.630235
 32 1.854847 1.227798 13.762341 -2.669530 -0.079323 1.987607
 33 10.456542 -0.000008 0.000004 -0.034205 -0.093777 -1.539755
 34 24.248116 0.000002 -0.000004 -0.033865 -0.035523 1.159478
 35 26.336975 0.000000 0.000004 -0.313263 -0.022021 0.589777
time 3
  0 0.000000 0.000000 0.000000 0.000000 -0.000000 -1.570796
  1 -0.542985 0.000000 0.000000 0.000000 -0.000000 0.000000
  2 -2.363353 -13.182367 28.734745 -1.563319 -0.183136 1.571180
  3 4.222169 -0.467508 0.000000 -0.007294 0.018463 0.070533
  4 4.476987 -0.000002 -0.000000 0.008963 -0.002451 0.261187
  5 4.477083 0.000000 0.000002 -0.012127 0.012345 -0.069654
  6 4.477077 -0.000004 -0.000002 -0.010899 -0.030515 -0.190662
  7 5.413502 -7.700466 -0.000000 -0.001808 0.004554 -0.199606
  8 6.890240 0.000002 -0.000000 -0.005477 0.005293 -0.321354
  9 8.011925 0.000004 0.000005 -0.013333 -0.019522 0.044541
 10 7.210720 -0.000002 -0.000000 -0.002937 0.002895 0.025101
 11 8.581028 -0.304903 -0.000000 0.001451 0.001823 0.675707
 12 22.523008 2.194031 6.355708 0.000000 -0.428460 0.000000
 13 22.523005 2.194038 -6.355709 0.000000 0.658069 0.000000
 14 -3.006533 7.804720 -11.355459 0.357430 0.174687 1.120727
 15 10.384675 0.000008 0.000005 0.018922 0.191552 -1.742072
 16 22.550743 -0.000006 -0.000004 0.123058 0.013507 1.839820
 17 30.814247 -0.000015 -0.000004 2.531620 0.209251 0.509243
 18 -3.013796 7.815494 11.355459 0.165886 -0.332866 1.157010
 19 10.374533 -0.000002 0.000007 -0.005219 -0.187349 -1.790918
 20 22.550726 -0.000027 -0.000013 -0.124641 -0.009698 1.906104
 21 30.814270 -0.000023 0.000002 -2.862600 0.219057 0.505020
 22 -4.250660 -0.770624 0.000001 0.015556 -0.156625 -2.816213
 23 10.363422 0.000000 0.000000 -0.004986 0.070138 -0.479484
 24 10.363076 0.000000 -0.000000 -0.027253 0.096916 -0.344432
 25 10.363081 -0.000004 -0.000002 -0.020435 0.095163 0.015363
 26 9.253358 -0.000006 -3.973408 0.000000 0.000000 0.151574
 27 8.210346 -0.000002 7.704017 0.000000 0.000000 0.143232
 28 1.854841 1.227791 -13.762345 2.590579 0.149840 2.005074
 29 10.456543 -0.000004 0.000004 0.037948 0.092530 -1.507319
 30 24.248093 0.000001 0.000007 0.032986 0.034811 1.121033
 31 26.336971 0.000019 0.000002 0.414631 0.036113 0.641943
 32 1.854847 1.227798 13.762341 -2.663250 -0.071662 1.956976
 33 10.456542 -0.000008 0.000004 -0.026031 -0.092970 -1.627326
 34 24.248116 0.000002 -0.000004 -0.035485 -0.036194 1.208372
 35 26.336975 0.000000 0.000004 -0.319438 -0.016002 0.600402
time 4
  0 0.000000 0.000000 0.000000 0.000000 -0.000000 -1.570796
  1 -0.542985 0.000000 0.000000 0.000000 -0.000000 0.000000
  2 -2.363353 -13.412844 26.773746 -1.557759 -0.132596 1.572426
  3 4.222169 -0.467508 0.000000 -0.009715 0.027621 0.092322
  4 4.476987 -0.000002 -0.000000 0.005320 0.004510 0.298701
  5 4.477083 0.000000 0.000002 -0.017244 0.004946 -0.066838
  6 4.477077 -0.000004 -0.000002 -0.013020 -0.037205 -0.208851
  7 5.413502 -7.700466 -0.000000 -0.007762 0.001852 -0.172163
  8 6.890240 0.000002 -0.000000 -0.009492 -0.000418 -0.310905
  9 8.011925 0.000004 0.000005 -0.016856 -0.016838 0.012926
 10 7.210720 -0.000002 -0.000000 -0.005518 0.005349 -0.055753
 11 8.581028 -0.304903 -0.000000 -0.004152 0.005818 0.694319
 12 22.523008 2.194031 6.355708 0.000000 -0.574713 0.000000
 13 22.523005 2.194038 -6.355709 0.000000 0.883667 0.000000
 14 -3.006533 7.804720 -11.355459 0.298613 0.205353 0.945130
 15 10.384675 0.000008 0.000005 0.013805 0.191191 -1.769786
 16 22.550743 -0.000006 -0.000004 0.123730 0.013507 1.875050
 17 30.814247 -0.000015 -0.000004 2.580104 0.192010 0.583337
 18 -3.013796 7.815494 11.355459 0.203917 -0.363170 0.955400
 19 10.374533 -0.000002 0.000007 0.001724 -0.184990 -1.813648
 20 22.550726 -0.000027 -0.000013 -0.125254 -0.007617 1.939667
 21 30.814270 -0.000023 0.000002 -2.856917 0.235940 0.582223
 22 -4.250660 -0.770624 0.000001 0.015556 -0.149740 -2.857669
 23 10.363422 0.000000 0.000000 -0.008761 0.072127 -0.484193
 24 10.363076 0.000000 -0.000000 -0.027469 0.097791 -0.354033
 25 10.363081 -0.000004 -0.000002 -0.010733 0.071438 0.015577
 26 9.253358 -0.000006 -3.973408 0.000000 0.000000 0.127456
 27 8.210346 -0.000002 7.704017 0.000000 0.000000 0.118275
 28 1.854841 1.227791 -13.762345 2.572813 0.136665 1.958850
 29 10.456543 -0.000004 0.000004 0.029720 0.091854 -1.596850
 30 24.248093 0.000001 0.000007 0.034988 0.035679 1.180116
 31 26.336971 0.000019 0.000002 0.428161 0.018664 0.653595
 32 1.854847 1.227798 13.762341 -2.651028 -0.056859 1.900066
 33 10.456542 -0.000008 0.000004 -0.018096 -0.091467 -1.712927
 34 24.248116 0.000002 -0.000004 -0.037428 -0.036901 1.263562
 35 26.336975 0.000000 0.000004 -0.325442 -0.009922 0.611197
time 5
  0 0.000000 0.000000 0.000000 0.000000 -0.000000 -1.570796
  1 -0.542985 0.000000 0.000000 0.000000 -0.000000 0.000000
  2 -2.363353 -13.690195 25.992474 -1.551241 -0.072482 1.574248
  3 4.222169 -0.467508 0.000000 -0.012112 0.036723 0.112654
  4 4.476987 -0.000002 -0.000000 0.001808 0.011792 0.337014
  5 4.477083 0.000000 0.000002 -0.022697 -0.002662 -0.063133
  6 4.477077 -0.000004 -0.000002 -0.015166 -0.043689 -0.225374
  7 5.413502 -7.700466 -0.000000 -0.014528 -0.001172 -0.143568
  8 6.890240 0.000002 -0.000000 -0.013806 -0.006025 -0.299083
  9 8.011925 0.000004 0.000005 -0.022605 -0.010384 -0.040622
 10 7.210720 -0.000002 -0.000000 -0.008537 0.008421 -0.148836
 11 8.581028 -0.304903 -0.000000 -0.011248 0.010854 0.717346
 12 22.523008 2.194031 6.355708 0.000000 -0.582534 0.000000
 13 22.523005 2.194038 -6.355709 0.000000 0.900515 0.000000
 14 -3.006533 7.804720 -11.355459 0.236268 0.225597 0.769876
 15 10.384675 0.000008 0.000005 0.018773 0.191191 -1.743294
 16 22.550743 -0.000006 -0.000004 0.123394 0.013565 1.856224
 17 30.814247 -0.000015 -0.000004 2.626753 0.169157 0.653063
 18 -3.013796 7.815494 11.355459 0.247346 -0.384955 0.751282
 19 10.374533 -0.000002 0.000007 0.001522 -0.181369 -1.788308
 20 22.550726 -0.000027 -0.000013 -0.124764 -0.003671 1.914045
 21 30.814270 -0.000023 0.000002 -2.851374 0.251868 0.656219
 22 -4.250660 -0.770624 0.000001 0.015484 -0.140850 -2.908369
 23 10.363422 0.000000 0.000000 -0.012548 0.074117 -0.488968
 24 10.363076 0.000000 -0.000000 -0.027672 0.098642 -0.363712
 25 10.363081 -0.000004 -0.000002 -0.000847 0.047297 0.015658
 26 9.253358 -0.000006 -3.973408 0.000000 0.000000 0.098547
 27 8.210346 -0.000002 7.704017 0.000000 0.000000 0.088401
 28 1.854841 1.227791 -13.762345 2.554213 0.122750 1.910802
 29 10.456543 -0.000004 0.000004 0.025230 0.090964 -1.646131
 30 24.248093 0.000001 0.000007 0.036768 0.036324 1.233338
 31 26.336971 0.000019 0.000002 0.442822 -0.000073 0.660720
 32 1.854847 1.227798 13.762341 -2.638738 -0.040825 1.839968
 33 10.456542 -0.000008 0.000004 -0.013958 -0.090187 -1.757658
 34 24.248116 0.000002 -0.000004 -0.039293 -0.037405 1.313421
 35 26.336975 0.000000 0.000004 -0.331917 -0.003408 0.617301
time 6
  0 0.000000 0.000000 0.000000 0.000000 -0.000000 -1.570796
  1 -0.542985 0.000000 0.000000 0.000000 -0.000000 0.000000
  2 -2.363353 -14.002705 27.133133 -1.544435 -0.010613 1.576165
  3 4.222169 -0.467508 0.000000 -0.014544 0.045695 0.131376
  4 4.476987 -0.000002 -0.000000 -0.001499 0.019352 0.375904
  5 4.477083 0.000000 0.000002 -0.028366 -0.010464 -0.058731
  6 4.477077 -0.000004 -0.000002 -0.017455 -0.049759 -0.239125
  7 5.413502 -7.700466 -0.000000 -0.021439 -0.004741 -0.116840
  8 6.890240 0.000002 -0.000000 -0.018480 -0.011436 -0.285493
  9 8.011925 0.000004 0.000005 -0.028957 -0.003930 -0.096688
 10 7.210720 -0.000002 -0.000000 -0.012079 0.011864 -0.250152
 11 8.581028 -0.304903 -0.000000 -0.019377 0.016710 0.743178
 12 22.523008 2.194031 6.355708 0.000000 -0.575873 0.000000
 13 22.523005 2.194038 -6.355709 0.000000 0.899245 0.000000
 14 -3.006533 7.804720 -11.355459 0.190799 0.234995 0.640839
 15 10.384675 0.000008 0.000005 0.026355 0.191085 -1.702194
 16 22.550743 -0.000006 -0.000004 0.121715 0.013737 1.778197
 17 30.814247 -0.000015 -0.000004 2.665671 0.128656 0.684004
 18 -3.013796 7.815494 11.355459 0.279879 -0.387646 0.590940
 19 10.374533 -0.000002 0.000007 -0.004613 -0.176818 -1.719538
 20 22.550726 -0.000027 -0.000013 -0.124335 0.001708 1.824464
 21 30.814270 -0.000023 0.000002 -2.858916 0.260480 0.689326
 22 -4.250660 -0.770624 0.000001 0.015089 -0.130435 -2.963601
 23 10.363422 0.000000 0.000000 -0.016335 0.076070 -0.493766
 24 10.363076 0.000000 -0.000000 -0.027864 0.099469 -0.373365
 25 10.363081 -0.000004 -0.000002 0.009249 0.022770 0.015551
 26 9.253358 -0.000006 -3.973408 0.000000 0.000000 0.067329
 27 8.210346 -0.000002 7.704017 0.000000 0.000000 0.056086
 28 1.854841 1.227791 -13.762345 2.524618 0.108316 1.848036
 29 10.456543 -0.000004 0.000004 0.026750 0.089985 -1.633409
 30 24.248093 0.000001 0.000007 0.036434 0.035880 1.229963
 31 26.336971 0.000019 0.000002 0.468010 -0.026614 0.633493
 32 1.854847 1.227798 13.762341 -2.623511 -0.023806 1.767591
 33 10.456542 -0.000008 0.000004 -0.016196 -0.089769 -1.739214
 34 24.248116 0.000002 -0.000004 -0.038529 -0.036937 1.297986
 35 26.336975 0.000000 0.000004 -0.343067 0.005526 0.586725
time 7
  0 0.000000 0.000000 0.000000 0.000000 -0.000000 -1.570796
  1 -0.542985 0.000000 0.000000 0.000000 -0.000000 0.000000
  2 -2.363353 -14.354279 29.867592 -1.537820 0.049740 1.578466
  3 4.222169 -0.467508 0.000000 -0.017049 0.054408 0.148152
  4 4.476987 -0.000002 -0.000000 -0.004543 0.027213 0.415814
  5 4.477083 0.000000 0.000002 -0.034238 -0.018509 -0.053587
  6 4.477077 -0.000004 -0.000002 -0.019995 -0.055171 -0.249060
  7 5.413502 -7.700466 -0.000000 -0.028510 -0.008784 -0.091948
  8 6.890240 0.000002 -0.000000 -0.023574 -0.016599 -0.269715
  9 8.011925 0.000004 0.000005 -0.035021 0.002604 -0.148446
 10 7.210720 -0.000002 -0.000000 -0.015730 0.015483 -0.350100
 11 8.581028 -0.304903 -0.000000 -0.028241 0.023112 0.770097
 12 22.523008 2.194031 6.355708 0.000000 -0.556381 0.000000
 13 22.523005 2.194038 -6.355709 0.000000 0.899699 0.000000
 14 -3.006533 7.804720 -11.355459 0.150647 0.238846 0.525742
 15 10.384675 0.000008 0.000005 0.043537 0.190173 -1.604278
 16 22.550743 -0.000006 -0.000004 0.119763 0.013823 1.687761
 17 30.814247 -0.000015 -0.000004 2.693364 0.090474 0.673368
 18 -3.013796 7.815494 11.355459 0.301924 -0.372026 0.469073
 19 10.374533 -0.000002 0.000007 -0.015061 -0.170339 -1.611279
 20 22.550726 -0.000027 -0.000013 -0.124723 0.007518 1.721854
 21 30.814270 -0.000023 0.000002 -2.874773 0.257128 0.682074
 22 -4.250660 -0.770624 0.000001 0.014238 -0.119041 -3.018653
 23 10.363422 0.000000 0.000000 -0.020134 0.078000 -0.498541
 24 10.363076 0.000000 -0.000000 -0.028044 0.100284 -0.383018
 25 10.363081 -0.000004 -0.000002 0.019505 -0.002157 0.015255
 26 9.253358 -0.000006 -3.973408 0.000000 0.000000 0.036178
 27 8.210346 -0.000002 7.704017 0.000000 0.000000 0.023804
 28 1.854841 1.227791 -13.762345 2.494409 0.091663 1.783079
 29 10.456543 -0.000004 0.000004 0.033493 0.089362 -1.561029
 30 24.248093 0.000001 0.000007 0.034840 0.034670 1.181122
 31 26.336971 0.000019 0.000002 0.495548 -0.053392 0.600910
 32 1.854847 1.227798 13.762341 -2.608926 -0.005282 1.692932
 33 10.456542 -0.000008 0.000004 -0.023691 -0.090187 -1.660156
 34 24.248116 0.000002 -0.000004 -0.036637 -0.036014 1.242187
 35 26.336975 0.000000 0.000004 -0.355074 0.014430 0.551176
time 8
  0 0.000000 0.000000 0.000000 0.000000 -0.000000 -1.570796
  1 -0.542985 0.000000 0.000000 0.000000 -0.000000 0.000000
  2 -2.363353 -14.729290 33.406761 -1.531781 0.105067 1.581150
  3 4.222169 -0.467508 0.000000 -0.019614 0.062843 0.162596
  4 4.476987 -0.000002 -0.000000 -0.007983 0.034431 0.450731
  5 4.477083 0.000000 0.000002 -0.040302 -0.026860 -0.047629
  6 4.477077 -0.000004 -0.000002 -0.022896 -0.059831 -0.254635
  7 5.413502 -7.700466 -0.000000 -0.035741 -0.013287 -0.068861
  8 6.890240 0.000002 -0.000000 -0.029147 -0.021448 -0.251354
  9 8.011925 0.000004 0.000005 -0.038583 0.011263 -0.182085
 10 7.210720 -0.000002 -0.000000 -0.017871 0.019615 -0.426154
 11 8.581028 -0.304903 -0.000000 -0.037541 0.029787 0.796454
 12 22.523008 2.194031 6.355708 0.000000 -0.536034 0.000000
 13 22.523005 2.194038 -6.355709 0.000000 0.903026 0.000000
 14 -3.006533 7.804720 -11.355459 0.125633 0.239482 0.444983
 15 10.384675 0.000008 0.000005 0.064042 0.187181 -1.485202
 16 22.550743 -0.000006 -0.000004 0.117445 0.013909 1.574081
 17 30.814247 -0.000015 -0.000004 2.720052 0.053453 0.655677
 18 -3.013796 7.815494 11.355459 0.317656 -0.351101 0.363452
 19 10.374533 -0.000002 0.000007 -0.026588 -0.160937 -1.479478
 20 22.550726 -0.000027 -0.000013 -0.127154 0.014311 1.595422
 21 30.814270 -0.000023 0.000002 -2.891997 0.252015 0.668854
 22 -4.250660 -0.770624 0.000001 0.012955 -0.107182 -3.069046
 23 10.363422 0.000000 0.000000 -0.023933 0.079917 -0.503338
 24 10.363076 0.000000 -0.000000 -0.028200 0.101087 -0.392645
 25 10.363081 -0.000004 -0.000002 0.029921 -0.027422 0.014692
 26 9.253358 -0.000006 -3.973408 0.000000 0.000000 0.007507
 27 8.210346 -0.000002 7.704017 0.000000 0.000000 -0.005900
 28 1.854841 1.227791 -13.762345 2.466661 0.077550 1.726942
 29 10.456543 -0.000004 0.000004 0.044150 0.087814 -1.442668
 30 24.248093 0.000001 0.000007 0.032134 0.033096 1.097234
 31 26.336971 0.000019 0.000002 0.523869 -0.079382 0.567664
 32 1.854847 1.227798 13.762341 -2.596332 0.010233 1.627922
 33 10.456542 -0.000008 0.000004 -0.035392 -0.089992 -1.534080
 34 24.248116 0.000002 -0.000004 -0.034098 -0.034504 1.160087
 35 26.336975 0.000000 0.000004 -0.367467 0.023240 0.515684
time 9
  0 0.000000 0.000000 0.000000 0.000000 -0.000000 -1.570796
  1 -0.542985 0.000000 0.000000 0.000000 -0.000000 0.000000
  2 -2.363353 -15.112114 36.926399 -1.526412 0.152416 1.584122
  3 4.222169 -0.467508 0.000000 -0.022442 0.071092 0.175921
  4 4.476987 -0.000002 -0.000000 -0.013460 0.038886 0.463716
  5 4.477083 0.000000 0.000002 -0.046594 -0.035631 -0.040752
  6 4.477077 -0.000004 -0.000002 -0.026156 -0.063891 -0.256675
  7 5.413502 -7.700466 -0.000000 -0.043277 -0.018045 -0.044995
  8 6.890240 0.000002 -0.000000 -0.035163 -0.026088 -0.233016
  9 8.011925 0.000004 0.000005 -0.042093 0.020177 -0.217127
 10 7.210720 -0.000002 -0.000000 -0.019957 0.023834 -0.490676
 11 8.581028 -0.304903 -0.000000 -0.047071 0.036428 0.820849
 12 22.523008 2.194031 6.355708 0.000000 -0.501327 0.000000
 13 22.523005 2.194038 -6.355709 0.000000 0.882063 0.000000
 14 -3.006533 7.804720 -11.355459 0.106588 0.238528 0.378644
 15 10.384675 0.000008 0.000005 0.084772 0.181644 -1.361904
 16 22.550743 -0.000006 -0.000004 0.114966 0.013737 1.452046
 17 30.814247 -0.000015 -0.000004 2.744032 0.021666 0.638810
 18 -3.013796 7.815494 11.355459 0.322850 -0.325691 0.290092
 19 10.374533 -0.000002 0.000007 -0.037239 -0.149641 -1.341241
 20 22.550726 -0.000027 -0.000013 -0.130810 0.020946 1.460119
 21 30.814270 -0.000023 0.000002 -2.904521 0.242790 0.657530
 22 -4.250660 -0.770624 0.000001 0.011421 -0.095259 -3.110553
 23 10.363422 0.000000 0.000000 -0.027768 0.081835 -0.508114
 24 10.363076 0.000000 -0.000000 -0.028332 0.101878 -0.402323
 25 10.363081 -0.000004 -0.000002 0.040546 -0.053212 0.013859
 26 9.253358 -0.000006 -3.973408 0.000000 0.000000 -0.016442
 27 8.210346 -0.000002 7.704017 0.000000 0.000000 -0.030857
 28 1.854841 1.227791 -13.762345 2.443179 0.078587 1.700120
 29 10.456543 -0.000004 0.000004 0.055436 0.084754 -1.313713
 30 24.248093 0.000001 0.000007 0.029279 0.031219 1.005354
 31 26.336971 0.000019 0.000002 0.551494 -0.101456 0.537621
 32 1.854847 1.227798 13.762341 -2.585831 0.011765 1.595956
 33 10.456542 -0.000008 0.000004 -0.047906 -0.088183 -1.396890
 34 24.248116 0.000002 -0.000004 -0.031365 -0.032874 1.073621
 35 26.336975 0.000000 0.000004 -0.377759 0.028669 0.483582
time 10
  0 0.000000 0.000000 0.000000 0.000000 -0.000000 -1.570796
  1 -0.542985 0.000000 0.000000 0.000000 -0.000000 0.000000
  2 -2.363353 -15.487125 39.567108 -1.519702 0.194380 1.586231
  3 4.222169 -0.467508 0.000000 -0.024671 0.079768 0.176105
  4 4.476987 -0.000002 -0.000000 -0.019380 0.042869 0.462251
  5 4.477083 0.000000 0.000002 -0.053078 -0.044823 -0.032926
  6 4.477077 -0.000004 -0.000002 -0.029763 -0.067254 -0.257906
  7 5.413502 -7.700466 -0.000000 -0.050082 -0.024586 -0.043813
  8 6.890240 0.000002 -0.000000 -0.042941 -0.028989 -0.184100
  9 8.011925 0.000004 0.000005 -0.042879 0.030401 -0.206874
 10 7.210720 -0.000002 -0.000000 -0.019628 0.028283 -0.492097
 11 8.581028 -0.304903 -0.000000 -0.056555 0.042676 0.841634
 12 22.523008 2.194031 6.355708 0.000000 -0.401116 0.000000
 13 22.523005 2.194038 -6.355709 0.000000 0.734750 0.000000
 14 -3.006533 7.804720 -11.355459 0.098177 0.236656 0.343689
 15 10.384675 0.000008 0.000005 0.101805 0.174918 -1.256435
 16 22.550743 -0.000006 -0.000004 0.112759 0.013479 1.347506
 17 30.814247 -0.000015 -0.000004 2.757572 0.006337 0.627959
 18 -3.013796 7.815494 11.355459 0.320151 -0.300207 0.240730
 19 10.374533 -0.000002 0.000007 -0.044250 -0.137615 -1.216921
 20 22.550726 -0.000027 -0.000013 -0.135386 0.027326 1.338092
 21 30.814270 -0.000023 0.000002 -2.906205 0.224098 0.648884
 22 -4.250660 -0.770624 0.000001 0.010031 -0.083817 -3.138950
 23 10.363422 0.000000 0.000000 -0.031867 0.083645 -0.515397
 24 10.363076 0.000000 -0.000000 -0.028667 0.102633 -0.414686
 25 10.363081 -0.000004 -0.000002 0.051516 -0.079787 0.010557
 26 9.253358 -0.000006 -3.973408 0.000000 0.000000 -0.033325
 27 8.210346 -0.000002 7.704017 0.000000 0.000000 -0.048456
 28 1.854841 1.227791 -13.762345 2.415872 0.084138 1.674211
 29 10.456543 -0.000004 0.000004 0.064345 0.080981 -1.206814
 30 24.248093 0.000001 0.000007 0.027129 0.029403 0.929458
 31 26.336971 0.000019 0.000002 0.577596 -0.116277 0.518789
 32 1.854847 1.227798 13.762341 -2.576682 0.012312 1.567824
 33 10.456542 -0.000008 0.000004 -0.058623 -0.085178 -1.276765
 34 24.248116 0.000002 -0.000004 -0.028852 -0.031245 0.991724
 35 26.336975 0.000000 0.000004 -0.380589 0.024170 0.462897
time 11
  0 0.000000 0.000000 0.000000 0.000000 -0.000000 -1.570796
  1 -0.542985 0.000000 0.000000 0.000000 -0.000000 0.000000
  2 -2.363353 -15.846512 40.813240 -1.537820 0.171244 1.599652
  3 4.222169 -0.467508 0.000000 -0.024923 0.089815 0.145345
  4 4.476987 -0.000002 -0.000000 -0.026260 0.047324 0.431952
  5 4.477083 0.000000 0.000002 -0.059813 -0.054579 -0.024048
  6 4.477077 -0.000004 -0.000002 -0.032771 -0.073512 -0.245603
  7 5.413502 -7.700466 -0.000000 -0.054349 -0.037058 -0.123530
  8 6.890240 0.000002 -0.000000 -0.055620 -0.026846 -0.027204
  9 8.011925 0.000004 0.000005 -0.031878 0.047607 -0.009630
 10 7.210720 -0.000002 -0.000000 -0.010898 0.035045 -0.304752
 11 8.581028 -0.304903 -0.000000 -0.065970 0.048088 0.857161
 12 22.523008 2.194031 6.355708 0.000000 -0.240138 0.000000
 13 22.523005 2.194038 -6.355709 0.000000 0.448987 0.000000
 14 -3.006533 7.804720 -11.355459 0.137353 0.213550 0.461052
 15 10.384675 0.000008 0.000005 0.102440 0.174366 -1.250881
 16 22.550743 -0.000006 -0.000004 0.112327 0.013622 1.342119
 17 30.814247 -0.000015 -0.000004 2.762290 -0.008240 0.590536
 18 -3.013796 7.815494 11.355459 0.290164 -0.293219 0.296933
 19 10.374533 -0.000002 0.000007 -0.032723 -0.132532 -1.228924
 20 22.550726 -0.000027 -0.000013 -0.137469 0.034766 1.355214
 21 30.814270 -0.000023 0.000002 -2.872036 0.170098 0.649386
 22 -4.250660 -0.770624 0.000001 0.008917 -0.072920 3.135427
 23 10.363422 0.000000 0.000000 -0.034060 0.086437 -0.501490
 24 10.363076 0.000000 -0.000000 -0.027121 0.103616 -0.405059
 25 10.363081 -0.000004 -0.000002 0.061131 -0.103990 0.024813
 26 9.253358 -0.000006 -3.973408 0.000000 0.000000 -0.041477
 27 8.210346 -0.000002 7.704017 0.000000 0.000000 -0.057069
 28 1.854841 1.227791 -13.762345 2.431307 0.082361 1.705168
 29 10.456543 -0.000004 0.000004 0.070792 0.077333 -1.120801
 30 24.248093 0.000001 0.000007 0.025832 0.027769 0.867593
 31 26.336971 0.000019 0.000002 0.574898 -0.104294 0.515033
 32 1.854847 1.227798 13.762341 -2.558652 -0.009796 1.579456
 33 10.456542 -0.000008 0.000004 -0.061098 -0.083842 -1.247522
 34 24.248116 0.000002 -0.000004 -0.028217 -0.030525 0.961311
 35 26.336975 0.000000 0.000004 -0.381618 0.017067 0.444868
time 12
  0 0.000000 0.000000 0.000000 0.000000 -0.000000 -1.570796
  1 -0.542985 0.000000 0.000000 0.000000 -0.000000 0.000000
  2 -2.363353 -16.178553 41.000744 -1.644418 -0.062111 1.647297
  3 4.222169 -0.467508 0.000000 -0.022970 0.099752 0.092582
  4 4.476987 -0.000002 -0.000000 -0.035416 0.051779 0.349222
  5 4.477083 0.000000 0.000002 -0.066740 -0.064998 -0.013954
  6 4.477077 -0.000004 -0.000002 -0.033874 -0.087719 -0.199227
  7 5.413502 -7.700466 -0.000000 -0.056808 -0.053981 -0.254182
  8 6.890240 0.000002 -0.000000 -0.071260 -0.021239 0.187893
  9 8.011925 0.000004 0.000005 -0.012115 0.069014 0.306677
 10 7.210720 -0.000002 -0.000000 0.003596 0.042672 -0.007160
 11 8.581028 -0.304903 -0.000000 -0.076143 0.052083 0.864416
 12 22.523008 2.194031 6.355708 0.000000 -0.081574 0.000000
 13 22.523005 2.194038 -6.355709 0.000000 0.160895 0.000000
 14 -3.006533 7.804720 -11.355459 0.249236 0.088940 0.902415
 15 10.384675 0.000008 0.000005 0.093587 0.177973 -1.304699
 16 22.550743 -0.000006 -0.000004 0.113334 0.013794 1.396114
 17 30.814247 -0.000015 -0.000004 2.745342 -0.025795 0.491516
 18 -3.013796 7.815494 11.355459 0.189458 -0.350989 0.585240
 19 10.374533 -0.000002 0.000007 0.003611 -0.135090 -1.447181
 20 22.550726 -0.000027 -0.000013 -0.131117 0.042638 1.585000
 21 30.814270 -0.000023 0.000002 -2.751114 -0.001465 0.645063
 22 -4.250660 -0.770624 0.000001 0.005753 -0.060804 -3.120385
 23 10.363422 0.000000 0.000000 -0.030153 0.092297 -0.414632
 24 10.363076 0.000000 -0.000000 -0.018169 0.105893 -0.313512
 25 10.363081 -0.000004 -0.000002 0.065699 -0.118903 0.106563
 26 9.253358 -0.000006 -3.973408 0.000000 0.000000 -0.041070
 27 8.210346 -0.000002 7.704017 0.000000 0.000000 -0.056866
 28 1.854841 1.227791 -13.762345 2.569031 0.070864 1.960675
 29 10.456543 -0.000004 0.000004 0.083161 0.069450 -0.948817
 30 24.248093 0.000001 0.000007 0.022718 0.024520 0.738416
 31 26.336971 0.000019 0.000002 0.470490 -0.000073 0.538725
 32 1.854847 1.227798 13.762341 -2.536908 -0.125757 1.776337
 33 10.456542 -0.000008 0.000004 -0.054383 -0.084983 -1.321497
 34 24.248116 0.000002 -0.000004 -0.029836 -0.031616 1.014623
 35 26.336975 0.000000 0.000004 -0.378488 0.007326 0.433621
time 13
  0 0.000000 0.000000 0.000000 0.000000 -0.000000 -1.570796
  1 -0.542985 0.000000 0.000000 0.000000 -0.000000 0.000000
  2 -2.363353 -16.491062 40.809334 -1.816682 -0.426264 1.733191
  3 4.222169 -0.467508 0.000000 -0.018176 0.108557 0.013369
  4 4.476987 -0.000002 -0.000000 -0.046190 0.055634 0.238036
  5 4.477083 0.000000 0.000002 -0.073907 -0.077291 -0.001623
  6 4.477077 -0.000004 -0.000002 -0.034641 -0.105272 -0.137480
  7 5.413502 -7.700466 -0.000000 -0.060011 -0.068933 -0.340465
  8 6.890240 0.000002 -0.000000 -0.084551 -0.018285 0.317817
  9 8.011925 0.000004 0.000005 0.001008 0.087913 0.504362
 10 7.210720 -0.000002 -0.000000 0.013396 0.049769 0.181687
 11 8.581028 -0.304903 -0.000000 -0.087923 0.054712 0.863014
 12 22.523008 2.194031 6.355708 0.000000 -0.043903 0.000000
 13 22.523005 2.194038 -6.355709 0.000000 0.051484 0.000000
 14 -3.006533 7.804720 -11.355459 0.294815 -0.122865 1.456059
 15 10.384675 0.000008 0.000005 0.101879 0.174642 -1.252714
 16 22.550743 -0.000006 -0.000004 0.112487 0.013622 1.343572
 17 30.814247 -0.000015 -0.000004 2.708127 -0.017300 0.425765
 18 -3.013796 7.815494 11.355459 -0.035424 -0.454981 1.083594
 19 10.374533 -0.000002 0.000007 0.032732 -0.131070 -1.620440
 20 22.550726 -0.000027 -0.000013 -0.123804 0.048803 1.768196
 21 30.814270 -0.000023 0.000002 -2.587464 -0.236253 0.564791
 22 -4.250660 -0.770624 0.000001 -0.000120 -0.046313 -3.067894
 23 10.363422 0.000000 0.000000 -0.022699 0.099668 -0.286270
 24 10.363076 0.000000 -0.000000 -0.002265 0.108865 -0.165983
 25 10.363081 -0.000004 -0.000002 0.067053 -0.125497 0.234544
 26 9.253358 -0.000006 -3.973408 0.000000 0.000000 -0.033189
 27 8.210346 -0.000002 7.704017 0.000000 0.000000 -0.048931
 28 1.854841 1.227791 -13.762345 2.729799 0.049227 2.343418
 29 10.456543 -0.000004 0.000004 0.095250 0.058613 -0.759118
 30 24.248093 0.000001 0.000007 0.019455 0.020384 0.594379
 31 26.336971 0.000019 0.000002 0.301261 0.168346 0.536516
 32 1.854847 1.227798 13.762341 -2.591267 -0.289272 2.142828
 33 10.456542 -0.000008 0.000004 -0.048754 -0.085512 -1.381323
 34 24.248116 0.000002 -0.000004 -0.031611 -0.032827 1.072910
 35 26.336975 0.000000 0.000004 -0.367724 -0.008340 0.438482
time 14
  0 0.000000 0.000000 0.000000 0.000000 -0.000000 -1.570796
  1 -0.542985 0.000000 0.000000 0.000000 -0.000000 0.000000
  2 -2.363353 -16.791853 40.481197 -1.938234 -0.655111 1.802981
  3 4.222169 -0.467508 0.000000 -0.012699 0.117362 -0.078909
  4 4.476987 -0.000002 -0.000000 -0.057479 0.058119 0.121566
  5 4.477083 0.000000 0.000002 -0.081410 -0.090489 0.011954
  6 4.477077 -0.000004 -0.000002 -0.036055 -0.123256 -0.072338
  7 5.413502 -7.700466 -0.000000 -0.066750 -0.078992 -0.351604
  8 6.890240 0.000002 -0.000000 -0.093264 -0.021565 0.330732
  9 8.011925 0.000004 0.000005 0.001100 0.102882 0.529903
 10 7.210720 -0.000002 -0.000000 0.015043 0.057290 0.215396
 11 8.581028 -0.304903 -0.000000 -0.100829 0.056966 0.856039
 12 22.523008 2.194031 6.355708 0.000000 -0.245027 0.000000
 13 22.523005 2.194038 -6.355709 0.000000 0.225053 0.000000
 14 -3.006533 7.804720 -11.355459 0.272839 -0.235145 1.785484
 15 10.384675 0.000008 0.000005 0.111217 0.170229 -1.193342
 16 22.550743 -0.000006 -0.000004 0.111463 0.013392 1.283402
 17 30.814247 -0.000015 -0.000004 2.680435 0.014832 0.455668
 18 -3.013796 7.815494 11.355459 -0.288307 -0.496982 1.514744
 19 10.374533 -0.000002 0.000007 0.036103 -0.124326 -1.590288
 20 22.550726 -0.000027 -0.000013 -0.124233 0.056105 1.743319
 21 30.814270 -0.000023 0.000002 -2.454790 -0.380780 0.445361
 22 -4.250660 -0.770624 0.000001 -0.005657 -0.032272 -3.040162
 23 10.363422 0.000000 0.000000 -0.019079 0.106044 -0.206256
 24 10.363076 0.000000 -0.000000 0.011074 0.111046 -0.063673
 25 10.363081 -0.000004 -0.000002 0.071116 -0.127623 0.322684
 26 9.253358 -0.000006 -3.973408 0.000000 0.000000 -0.018751
 27 8.210346 -0.000002 7.704017 0.000000 0.000000 -0.034248
 28 1.854841 1.227791 -13.762345 2.800992 0.048289 2.551242
 29 10.456543 -0.000004 0.000004 0.096980 0.056122 -0.723775
 30 24.248093 0.000001 0.000007 0.019270 0.019577 0.568863
 31 26.336971 0.000019 0.000002 0.187934 0.273802 0.492722
 32 1.854847 1.227798 13.762341 -2.678680 -0.361097 2.410794
 33 10.456542 -0.000008 0.000004 -0.047770 -0.085373 -1.391451
 34 24.248116 0.000002 -0.000004 -0.032311 -0.033198 1.092711
 35 26.336975 0.000000 0.000004 -0.360048 -0.023479 0.445829
time 15
  0 0.000000 0.000000 0.000000 0.000000 -0.000000 -1.570796
  1 -0.542985 0.000000 0.000000 0.000000 -0.000000 0.000000
  2 -2.363353 -17.100456 40.012432 -1.953860 -0.691052 1.811417
  3 4.222169 -0.467508 0.000000 -0.008936 0.125278 -0.156927
  4 4.476987 -0.000002 -0.000000 -0.068649 0.059275 0.017571
  5 4.477083 0.000000 0.000002 -0.089224 -0.100601 0.022744
  6 4.477077 -0.000004 -0.000002 -0.038080 -0.138027 -0.017693
  7 5.413502 -7.700466 -0.000000 -0.075031 -0.087827 -0.341834
  8 6.890240 0.000002 -0.000000 -0.100395 -0.026833 0.313814
  9 8.011925 0.000004 0.000005 -0.002632 0.116046 0.511033
 10 7.210720 -0.000002 -0.000000 0.013918 0.064776 0.204321
 11 8.581028 -0.304903 -0.000000 -0.114240 0.059782 0.846611
 12 22.523008 2.194031 6.355708 0.000000 -0.584275 0.000000
 13 22.523005 2.194038 -6.355709 0.000000 0.541519 0.000000
 14 -3.006533 7.804720 -11.355459 0.272677 -0.243801 1.858415
 15 10.384675 0.000008 0.000005 0.099265 0.175745 -1.269876
 16 22.550743 -0.000006 -0.000004 0.112999 0.013479 1.360279
 17 30.814247 -0.000015 -0.000004 2.677552 0.028218 0.520022
 18 -3.013796 7.815494 11.355459 -0.404846 -0.496758 1.670070
 19 10.374533 -0.000002 0.000007 0.033204 -0.117183 -1.505919
 20 22.550726 -0.000027 -0.000013 -0.127542 0.063526 1.663415
 21 30.814270 -0.000023 0.000002 -2.394732 -0.440358 0.391837
 22 -4.250660 -0.770624 0.000001 -0.010654 -0.018695 -3.040137
 23 10.363422 0.000000 0.000000 -0.023034 0.110298 -0.198708
 24 10.363076 0.000000 -0.000000 0.015580 0.113203 -0.041786
 25 10.363081 -0.000004 -0.000002 0.081446 -0.126976 0.342014
 26 9.253358 -0.000006 -3.973408 0.000000 0.000000 0.001189
 27 8.210346 -0.000002 7.704017 0.000000 0.000000 -0.013903
 28 1.854841 1.227791 -13.762345 2.806796 0.050559 2.555256
 29 10.456543 -0.000004 0.000004 0.092699 0.059966 -0.788860
 30 24.248093 0.000001 0.000007 0.020567 0.021009 0.621079
 31 26.336971 0.000019 0.000002 0.169184 0.291409 0.466489
 32 1.854847 1.227798 13.762341 -2.694684 -0.366898 2.450299
 33 10.456542 -0.000008 0.000004 -0.045227 -0.085540 -1.416556
 34 24.248116 0.000002 -0.000004 -0.032881 -0.033450 1.110126
 35 26.336975 0.000000 0.000004 -0.354130 -0.030893 0.445320
time 16
  0 0.000000 0.000000 0.000000 0.000000 -0.000000 -1.570796
  1 -0.542985 0.000000 0.000000 0.000000 -0.000000 0.000000
  2 -2.363353 -17.428591 39.395226 -1.943411 -0.676971 1.806336
  3 4.222169 -0.467508 0.000000 -0.008552 0.127540 -0.184451
  4 4.476987 -0.000002 -0.000000 -0.078129 0.058890 -0.023250
  5 4.477083 0.000000 0.000002 -0.097277 -0.105188 0.028317
  6 4.477077 -0.000004 -0.000002 -0.039914 -0.142800 -0.000734
  7 5.413502 -7.700466 -0.000000 -0.083298 -0.097546 -0.336109
  8 6.890240 0.000002 -0.000000 -0.107190 -0.034622 0.289984
  9 8.011925 0.000004 0.000005 -0.008133 0.129114 0.487646
 10 7.210720 -0.000002 -0.000000 0.012271 0.072350 0.191583
 11 8.581028 -0.304903 -0.000000 -0.127650 0.064255 0.837778
 12 22.523008 2.194031 6.355708 0.000000 -0.794411 0.000000
 13 22.523005 2.194038 -6.355709 0.000000 0.736233 0.000000
 14 -3.006533 7.804720 -11.355459 0.278103 -0.227372 1.832594
 15 10.384675 0.000008 0.000005 0.081336 0.182047 -1.380288
 16 22.550743 -0.000006 -0.000004 0.115126 0.013536 1.471054
 17 30.814247 -0.000015 -0.000004 2.682226 0.029503 0.581976
 18 -3.013796 7.815494 11.355459 -0.436972 -0.497991 1.677651
 19 10.374533 -0.000002 0.000007 0.036170 -0.110705 -1.475767
 20 22.550726 -0.000027 -0.000013 -0.128175 0.070122 1.638910
 21 30.814270 -0.000023 0.000002 -2.370702 -0.480631 0.376915
 22 -4.250660 -0.770624 0.000001 -0.015892 -0.003996 -3.046640
 23 10.363422 0.000000 0.000000 -0.029506 0.113678 -0.210745
 24 10.363076 0.000000 -0.000000 0.017114 0.115480 -0.042741
 25 10.363081 -0.000004 -0.000002 0.093930 -0.125497 0.341987
 26 9.253358 -0.000006 -3.973408 0.000000 0.000000 0.025783
 27 8.210346 -0.000002 7.704017 0.000000 0.000000 0.011190
 28 1.854841 1.227791 -13.762345 2.799892 0.050066 2.519737
 29 10.456543 -0.000004 0.000004 0.088297 0.063543 -0.852079
 30 24.248093 0.000001 0.000007 0.021717 0.022301 0.671992
 31 26.336971 0.000019 0.000002 0.179711 0.293459 0.455499
 32 1.854847 1.227798 13.762341 -2.685669 -0.357814 2.421779
 33 10.456542 -0.000008 0.000004 -0.040648 -0.085873 -1.465386
 34 24.248116 0.000002 -0.000004 -0.034254 -0.034049 1.150897
 35 26.336975 0.000000 0.000004 -0.344696 -0.028597 0.436560
time 17
  0 0.000000 0.000000 0.000000 0.000000 -0.000000 -1.570796
  1 -2.101627 0.000000 0.000000 0.000000 -0.000000 0.000000
  2 -2.363353 -17.791883 38.617859 -1.934112 -0.666241 1.802310
  3 4.222169 -0.467508 0.000000 -0.010865 0.125056 -0.171877
  4 4.476987 -0.000002 -0.000000 -0.085895 0.056491 -0.004338
  5 4.477083 0.000000 0.000002 -0.105463 -0.105641 0.029948
  6 4.477077 -0.000004 -0.000002 -0.040813 -0.137952 -0.008442
  7 5.413502 -7.708279 -0.003906 -0.091698 -0.107843 -0.331535
  8 6.890240 0.000002 -0.000000 -0.111948 -0.050620 0.230060
  9 8.011925 0.000004 0.000005 -0.020627 0.140920 0.432748
 10 7.210720 -0.000002 -0.000000 0.009635 0.080118 0.171309
 11 8.581028 -0.304903 -0.000000 -0.140648 0.071135 0.831644
 12 22.523008 2.194031 6.355708 0.000000 -0.790165 0.000000
 13 22.523005 2.194038 -6.355709 0.000000 0.732270 0.000000
 14 -3.006533 7.804720 -11.355459 0.291505 -0.194197 1.762616
 15 10.384675 0.000008 0.000005 0.071027 0.184571 -1.441825
 16 22.550743 -0.000006 -0.000004 0.116165 0.013651 1.532373
 17 30.814247 -0.000015 -0.000004 2.678251 0.029409 0.648658
 18 -3.013796 7.815494 11.355459 -0.428826 -0.497244 1.623102
 19 10.374533 -0.000002 0.000007 0.044327 -0.105522 -1.499773
 20 22.550726 -0.000027 -0.000013 -0.124988 0.076620 1.671232
 21 30.814270 -0.000023 0.000002 -2.383857 -0.504707 0.385032
 22 -4.250660 -0.770624 0.000001 -0.021428 0.011699 -3.056243
 23 10.363422 0.000000 0.000000 -0.035774 0.117106 -0.220472
 24 10.363076 0.000000 -0.000000 0.018960 0.117697 -0.040934
 25 10.363081 -0.000004 -0.000002 0.106082 -0.124326 0.344027
 26 9.253358 -0.000006 -3.973408 0.000000 0.000000 0.054114
 27 8.210346 -0.000002 7.704017 0.000000 0.000000 0.040148
 28 1.854841 1.227791 -13.762345 2.785117 0.081547 2.507998
 29 10.456543 -0.000004 0.000004 0.087319 0.064165 -0.862499
 30 24.248093 0.000001 0.000007 0.021939 0.022543 0.682352
 31 26.336971 0.000019 0.000002 0.206118 0.317057 0.461464
 32 1.854847 1.227798 13.762341 -2.686547 -0.316825 2.382144
 33 10.456542 -0.000008 0.000004 -0.033425 -0.086124 -1.548465
 34 24.248116 0.000002 -0.000004 -0.036650 -0.034948 1.221776
 35 26.336975 0.000000 0.000004 -0.323212 -0.006076 0.415480
time 18
  0 0.000000 0.000000 0.000000 0.000000 -0.000000 -1.570796
  1 -5.672048 0.000000 0.000000 0.000000 -0.000000 0.000000
  2 -2.363353 -18.205957 37.652985 -1.921938 -0.652000 1.797133
  3 4.222169 -0.467508 0.000000 -0.013969 0.118326 -0.138266
  4 4.476987 -0.000002 -0.000000 -0.092738 0.051586 0.043431
  5 4.477083 0.000000 0.000002 -0.113516 -0.099938 0.025946
  6 4.477077 -0.000004 -0.000002 -0.040273 -0.121301 -0.035259
  7 5.421314 -7.727811 -0.015625 -0.100165 -0.118581 -0.327894
  8 6.890240 0.000002 -0.000000 -0.115412 -0.069715 0.156523
  9 8.011925 0.000004 0.000005 -0.036370 0.151943 0.364041
 10 7.210720 -0.000002 -0.000000 0.005820 0.088063 0.142587
 11 8.581028 -0.304903 -0.000000 -0.153140 0.079944 0.827859
 12 22.523008 2.194031 6.355708 0.000000 -0.693223 0.000000
 13 22.523005 2.194038 -6.355709 0.000000 0.642370 0.000000
 14 -3.006533 7.804720 -11.355459 0.323138 -0.132510 1.658164
 15 10.384675 0.000008 0.000005 0.064229 0.185823 -1.481925
 16 22.550743 -0.000006 -0.000004 0.116805 0.013766 1.572204
 17 30.814247 -0.000015 -0.000004 2.645055 0.022638 0.731885
 18 -3.013796 7.815494 11.355459 -0.400315 -0.491863 1.541876
 19 10.374533 -0.000002 0.000007 0.054910 -0.101037 -1.556541
 20 22.550726 -0.000027 -0.000013 -0.117512 0.082961 1.742450
 21 30.814270 -0.000023 0.000002 -2.420236 -0.521026 0.411501
 22 -4.250660 -0.770624 0.000001 -0.027169 0.027939 -3.068585
 23 10.363422 0.000000 0.000000 -0.042066 0.120449 -0.230177
 24 10.363076 0.000000 -0.000000 0.020805 0.119879 -0.039154
 25 10.363081 -0.000004 -0.000002 0.118972 -0.123309 0.348779
 26 9.253358 -0.000006 -3.973408 0.000000 0.000000 0.084959
 27 8.210346 -0.000002 7.704017 0.000000 0.000000 0.071684
 28 1.854841 1.227791 -13.762345 2.761152 0.158894 2.526792
 29 10.456543 -0.000004 0.000004 0.092018 0.059930 -0.787992
 30 24.248093 0.000001 0.000007 0.020604 0.020828 0.625874
 31 26.336971 0.000019 0.000002 0.263108 0.355739 0.507191
 32 1.854847 1.227798 13.762341 -2.704003 -0.231976 2.319634
 33 10.456542 -0.000008 0.000004 -0.023115 -0.085679 -1.662993
 34 24.248116 0.000002 -0.000004 -0.039656 -0.035847 1.307430
 35 26.336975 0.000000 0.000004 -0.274625 0.053424 0.380496
time 19
  0 0.000000 0.000000 0.000000 0.000000 -0.000000 -1.570796
  1 -10.066713 0.000000 0.000000 0.000000 -0.000000 0.000000
  2 -2.363353 -18.690348 36.395134 -1.897877 -0.624556 1.786588
  3 4.222169 -0.467508 0.000000 -0.017613 0.106388 -0.086776
  4 4.476987 -0.000002 -0.000000 -0.099210 0.043790 0.107271
  5 4.477083 0.000000 0.000002 -0.121378 -0.076290 0.003535
  6 4.477077 -0.000004 -0.000002 -0.038799 -0.093338 -0.077726
  7 5.429127 -7.759062 -0.027345 -0.108725 -0.129761 -0.325000
  8 6.890240 0.000002 -0.000000 -0.118276 -0.089411 0.080472
  9 8.011925 0.000004 0.000005 -0.055399 0.163813 0.277502
 10 7.210720 -0.000002 -0.000000 0.001098 0.096061 0.108529
 11 8.581028 -0.304903 -0.000000 -0.165287 0.089863 0.825160
 12 22.523008 2.194031 6.355708 0.000000 -0.553784 0.000000
 13 22.523005 2.194038 -6.355709 0.000000 0.513055 0.000000
 14 -3.006533 7.804720 -11.355459 0.359492 -0.043867 1.518757
 15 10.384675 0.000008 0.000005 0.062772 0.186205 -1.490922
 16 22.550743 -0.000006 -0.000004 0.117029 0.013737 1.581466
 17 30.814247 -0.000015 -0.000004 2.606574 0.014926 0.822596
 18 -3.013796 7.815494 11.355459 -0.325321 -0.474450 1.398577
 19 10.374533 -0.000002 0.000007 0.065696 -0.096020 -1.619049
 20 22.550726 -0.000027 -0.000013 -0.108667 0.088713 1.821113
 21 30.814270 -0.000023 0.000002 -2.498641 -0.527412 0.476153
 22 -4.250660 -0.770624 0.000001 -0.033101 0.044484 -3.082975
 23 10.363422 0.000000 0.000000 -0.048418 0.123745 -0.239947
 24 10.363076 0.000000 -0.000000 0.022639 0.122036 -0.037373
 25 10.363081 -0.000004 -0.000002 0.135606 -0.122293 0.364914
 26 9.253358 -0.000006 -3.973408 0.000000 0.000000 0.117604
 27 8.210346 -0.000002 7.704017 0.000000 0.000000 0.105051
 28 1.854841 1.227791 -13.762345 2.737362 0.247442 2.552032
 29 10.456543 -0.000004 0.000004 0.099286 0.052207 -0.664942
 30 24.248093 0.000001 0.000007 0.018825 0.017761 0.529731
 31 26.336971 0.000019 0.000002 0.344547 0.391556 0.585723
 32 1.854847 1.227798 13.762341 -2.736651 -0.126796 2.237521
 33 10.456542 -0.000008 0.000004 -0.012228 -0.084009 -1.783473
 34 24.248116 0.000002 -0.000004 -0.042765 -0.036542 1.393287
 35 26.336975 0.000000 0.000004 -0.221536 0.121268 0.346699
time 20
  0 0.000000 0.000000 0.000000 0.000000 -0.000000 -1.570796
  1 -13.777764 0.000000 0.000000 0.000000 -0.000000 0.000000
  2 -2.363353 -19.248959 34.805244 -1.857040 -0.580119 1.767415
  3 4.222169 -0.467508 0.000000 -0.022071 0.091836 -0.026622
  4 4.476987 -0.000002 -0.000000 -0.105777 0.033317 0.183097
  5 4.477083 0.000000 0.000002 -0.129875 -0.048554 -0.024063
  6 4.477077 -0.000004 -0.000002 -0.037781 -0.060470 -0.125489
  7 5.436940 -7.790313 -0.046876 -0.117364 -0.141264 -0.322636
  8 6.890240 0.000002 -0.000000 -0.120397 -0.109787 0.001373
  9 8.011925 0.000004 0.000005 -0.076158 0.174325 0.186186
 10 7.210720 -0.000002 -0.000000 -0.003953 0.103864 0.073023
 11 8.581028 -0.304903 -0.000000 -0.177160 0.100038 0.822356
 12 22.523008 2.194031 6.355708 0.000000 -0.406432 0.000000
 13 22.523005 2.194038 -6.355709 0.000000 0.376480 0.000000
 14 -3.006533 7.804720 -11.355459 0.380436 0.063679 1.338833
 15 10.384675 0.000008 0.000005 0.062511 0.186396 -1.493033
 16 22.550743 -0.000006 -0.000004 0.117173 0.013679 1.583766
 17 30.814247 -0.000015 -0.000004 2.583336 -0.002378 0.928098
 18 -3.013796 7.815494 11.355459 -0.210563 -0.444294 1.183914
 19 10.374533 -0.000002 0.000007 0.075538 -0.090406 -1.676164
 20 22.550726 -0.000027 -0.000013 -0.099741 0.093935 1.894565
 21 30.814270 -0.000023 0.000002 -2.587675 -0.525699 0.555141
 22 -4.250660 -0.770624 0.000001 -0.039118 0.061013 -3.098697
 23 10.363422 0.000000 0.000000 -0.054806 0.126981 -0.249762
 24 10.363076 0.000000 -0.000000 0.024485 0.124169 -0.035566
 25 10.363081 -0.000004 -0.000002 0.153138 -0.121599 0.383627
 26 9.253358 -0.000006 -3.973408 0.000000 0.000000 0.151065
 27 8.210346 -0.000002 7.704017 0.000000 0.000000 0.139197
 28 1.854841 1.227791 -13.762345 2.713089 0.330069 2.564501
 29 10.456543 -0.000004 0.000004 0.104666 0.045196 -0.561517
 30 24.248093 0.000001 0.000007 0.017565 0.015158 0.448981
 31 26.336971 0.000019 0.000002 0.431554 0.414944 0.665966
 32 1.854847 1.227798 13.762341 -2.775952 -0.026925 2.149161
 33 10.456542 -0.000008 0.000004 -0.002020 -0.081170 -1.899853
 34 24.248116 0.000002 -0.000004 -0.045770 -0.037021 1.475336
 35 26.336975 0.000000 0.000004 -0.171835 0.185452 0.317932
time 21
  0 0.000000 0.000000 0.000000 0.000000 -0.000000 -1.570796
  1 -15.477035 0.000000 0.000000 0.000000 -0.000000 0.000000
  2 -2.363353 -19.846632 33.008312 -1.809109 -0.526946 1.745078
  3 4.222169 -0.467508 0.000000 -0.027236 0.076653 0.035771
  4 4.476987 -0.000002 -0.000000 -0.112980 0.021323 0.266626
  5 4.477083 0.000000 0.000002 -0.138900 -0.022143 -0.049897
  6 4.477077 -0.000004 -0.000002 -0.037996 -0.026118 -0.174590
  7 5.448659 -7.825470 -0.062502 -0.126004 -0.152937 -0.320644
  8 6.890240 0.000002 -0.000000 -0.121739 -0.130673 -0.080309
  9 8.011925 0.000004 0.000005 -0.096982 0.183127 0.097830
 10 7.210720 -0.000002 -0.000000 -0.009086 0.111421 0.038295
 11 8.581028 -0.304903 -0.000000 -0.188848 0.109462 0.818255
 12 22.523008 2.194031 6.355708 0.000000 -0.263969 0.000000
 13 22.523005 2.194038 -6.355709 0.000000 0.244322 0.000000
 14 -3.006533 7.804720 -11.355459 0.379080 0.168080 1.158978
 15 10.384675 0.000008 0.000005 0.062100 0.186608 -1.495810
 16 22.550743 -0.000006 -0.000004 0.117317 0.013651 1.586853
 17 30.814247 -0.000015 -0.000004 2.564336 -0.021500 1.027332
 18 -3.013796 7.815494 11.355459 -0.096722 -0.401210 0.947477
 19 10.374533 -0.000002 0.000007 0.080796 -0.084625 -1.690603
 20 22.550726 -0.000027 -0.000013 -0.093081 0.099981 1.926701
 21 30.814270 -0.000023 0.000002 -2.682743 -0.510065 0.673261
 22 -4.250660 -0.770624 0.000001 -0.045026 0.077109 -3.114880
 23 10.363422 0.000000 0.000000 -0.061193 0.130145 -0.259489
 24 10.363076 0.000000 -0.000000 0.026330 0.126278 -0.033759
 25 10.363081 -0.000004 -0.000002 0.170559 -0.121291 0.402071
 26 9.253358 -0.000006 -3.973408 0.000000 0.000000 0.184152
 27 8.210346 -0.000002 7.704017 0.000000 0.000000 0.172937
 28 1.854841 1.227791 -13.762345 2.669203 0.365622 2.493706
 29 10.456543 -0.000004 0.000004 0.100386 0.052332 -0.650961
 30 24.248093 0.000001 0.000007 0.018491 0.018185 0.521858
 31 26.336971 0.000019 0.000002 0.504205 0.393238 0.696340
 32 1.854847 1.227798 13.762341 -2.797493 0.034475 2.056451
 33 10.456542 -0.000008 0.000004 0.005746 -0.078304 -1.991839
 34 24.248116 0.000002 -0.000004 -0.048529 -0.037333 1.551546
 35 26.336975 0.000000 0.000004 -0.133154 0.215791 0.304142
time 22
  0 0.000000 0.000000 0.000000 0.000000 -0.000000 -1.570796
  1 -15.121555 0.000000 0.000000 0.000000 -0.000000 0.000000
  2 -2.363353 -20.452120 31.129349 -1.760411 -0.469624 1.724371
  3 4.222169 -0.467508 0.000000 -0.033181 0.060933 0.100786
  4 4.476987 -0.000002 -0.000000 -0.121213 0.008879 0.351864
  5 4.477083 0.000000 0.000002 -0.148116 0.002216 -0.071107
  6 4.477077 -0.000004 -0.000002 -0.039650 0.010001 -0.225483
  7 5.456472 -7.852815 -0.078127 -0.134723 -0.164814 -0.318809
  8 6.890240 0.000002 -0.000000 -0.123250 -0.150592 -0.151264
  9 8.011925 0.000004 0.000005 -0.111834 0.193607 0.033017
 10 7.210720 -0.000002 -0.000000 -0.013973 0.118783 0.005739
 11 8.581028 -0.304903 -0.000000 -0.200537 0.117298 0.811666
 12 22.523008 2.194031 6.355708 0.000000 -0.148116 0.000000
 13 22.523005 2.194038 -6.355709 0.000000 0.137028 0.000000
 14 -3.006533 7.804720 -11.355459 0.348260 0.205141 1.033031
 15 10.384675 0.000008 0.000005 0.062100 0.186757 -1.496365
 16 22.550743 -0.000006 -0.000004 0.117413 0.013593 1.587640
 17 30.814247 -0.000015 -0.000004 2.581239 -0.062566 1.028944
 18 -3.013796 7.815494 11.355459 0.000521 -0.337051 0.724150
 19 10.374533 -0.000002 0.000007 0.080324 -0.078578 -1.646360
 20 22.550726 -0.000027 -0.000013 -0.091223 0.107676 1.903561
 21 30.814270 -0.000023 0.000002 -2.773180 -0.483616 0.789149
 22 -4.250660 -0.770624 0.000001 -0.050731 0.092611 -3.130909
 23 10.363422 0.000000 0.000000 -0.067629 0.133273 -0.269260
 24 10.363076 0.000000 -0.000000 0.028200 0.128376 -0.031953
 25 10.363081 -0.000004 -0.000002 0.188091 -0.121368 0.420569
 26 9.253358 -0.000006 -3.973408 0.000000 0.000000 0.216185
 27 8.210346 -0.000002 7.704017 0.000000 0.000000 0.205591
 28 1.854841 1.227791 -13.762345 2.610806 0.349486 2.373889
 29 10.456543 -0.000004 0.000004 0.086515 0.067155 -0.883645
 30 24.248093 0.000001 0.000007 0.022161 0.024036 0.705204
 31 26.336971 0.000019 0.000002 0.544707 0.341470 0.683694
 32 1.854847 1.227798 13.762341 -2.793070 0.059484 1.972098
 33 10.456542 -0.000008 0.000004 0.012834 -0.074965 -2.079252
 34 24.248116 0.000002 -0.000004 -0.051120 -0.037489 1.623440
 35 26.336975 0.000000 0.000004 -0.132554 0.187933 0.305046
time 23
  0 0.000000 0.000000 0.000000 0.000000 -0.000000 -1.570796
  1 -13.879330 0.000000 0.000000 0.000000 -0.000000 0.000000
  2 -2.363353 -21.026356 29.324608 -1.710755 -0.407476 1.705582
  3 4.222169 -0.467508 0.000000 -0.040000 0.044509 0.168377
  4 4.476987 -0.000002 -0.000000 -0.129135 -0.006306 0.400343
  5 4.477083 0.000000 0.000002 -0.157164 0.023797 -0.084461
  6 4.477077 -0.000004 -0.000002 -0.042982 0.048469 -0.277839
  7 5.460378 -7.876253 -0.089847 -0.143774 -0.177150 -0.316879
  8 6.890240 0.000002 -0.000000 -0.125898 -0.169138 -0.202926
  9 8.011925 0.000004 0.000005 -0.126895 0.203816 -0.030265
 10 7.210720 -0.000002 -0.000000 -0.018447 0.126198 -0.023546
 11 8.581028 -0.304903 -0.000000 -0.212730 0.122659 0.801046
 12 22.523008 2.194031 6.355708 0.000000 -0.034065 0.000000
 13 22.523005 2.194038 -6.355709 0.000000 0.031399 0.000000
 14 -3.006533 7.804720 -11.355459 0.308868 0.176524 0.986196
 15 10.384675 0.000008 0.000005 0.069010 0.185611 -1.456543
 16 22.550743 -0.000006 -0.000004 0.116437 0.013737 1.547991
 17 30.814247 -0.000015 -0.000004 2.624744 -0.112440 0.921902
 18 -3.013796 7.815494 11.355459 0.061667 -0.270649 0.580338
 19 10.374533 -0.000002 0.000007 0.079717 -0.072266 -1.596203
 20 22.550726 -0.000027 -0.000013 -0.094205 0.116255 1.841400
 21 30.814270 -0.000023 0.000002 -2.827519 -0.451050 0.834556
 22 -4.250660 -0.770624 0.000001 -0.056184 0.107680 3.136784
 23 10.363422 0.000000 0.000000 -0.074292 0.136449 -0.279338
 24 10.363076 0.000000 -0.000000 0.030177 0.130533 -0.030068
 25 10.363081 -0.000004 -0.000002 0.206189 -0.121877 0.439657
 26 9.253358 -0.000006 -3.973408 0.000000 0.000000 0.247200
 27 8.210346 -0.000002 7.704017 0.000000 0.000000 0.237093
 28 1.854841 1.227791 -13.762345 2.552893 0.322446 2.249147
 29 10.456543 -0.000004 0.000004 0.068381 0.078935 -1.131916
 30 24.248093 0.000001 0.000007 0.027166 0.029323 0.899976
 31 26.336971 0.000019 0.000002 0.584426 0.286574 0.665911
 32 1.854847 1.227798 13.762341 -2.773959 0.063260 1.911741
 33 10.456542 -0.000008 0.000004 0.017277 -0.072571 -2.133915
 34 24.248116 0.000002 -0.000004 -0.053685 -0.037513 1.694471
 35 26.336975 0.000000 0.000004 -0.135170 0.154244 0.306911
end
