version 1
nodes
  0 "Chaurus" -1
  1 "NPC Root [Root]" 0
  2 "Pelvis [Pelv]" 1
  3 "Spine[Spn0]" 2
  4 "Spine[Spn1]" 3
  5 "Spine[Spn2]" 4
  6 "Ribcage[Spn3]" 5
  7 "[Neck0]" 6
  8 "[Neck1]" 7
  9 "[Neck2]" 8
 10 "[Neck3]" 9
 11 "NPC Head [Head]" 10
 12 "Head[LeftPincher]" 11
 13 "Head[RightPincher]" 11
 14 "R UpperArm[RClv]" 6
 15 "R UpperArm[RUar]" 14
 16 "R UpperArm[RLar]" 15
 17 "R UpperArm[RHnd]" 16
 18 "L UpperArm[RClv]" 6
 19 "L UpperArm[LUar]" 18
 20 "L UpperArm[LLar]" 19
 21 "L UpperArm[LHnd]" 20
 22 "Tail[Tal0]" 2
 23 "Tail[Tal1]" 22
 24 "Tail[Tal2]" 23
 25 "Tail[Tal3]" 24
 26 "[TalRightPincher]" 25
 27 "[TalLeftPincher]" 25
 28 "R Leg[RThg0]" 2
 29 "R Leg[RThg1]" 28
 30 "R Leg[RClf]" 29
 31 "R Leg[RAnkle]" 30
 32 "LLeg[RThg0]" 2
 33 "LLeg[LThg1]" 32
 34 "LLeg[LClf]" 33
 35 "LLeg[LAnkle]" 34
end
skeleton
time 0
  0 0.000000 0.000000 0.000000 0.000000 -0.000000 -1.570796
  1 0.000000 0.000000 0.000000 0.000000 -0.000000 0.000000
  2 -2.363353 -24.116295 19.453211 -1.378211 -0.009217 1.569646
  3 4.222169 -0.467508 0.000000 -0.049528 0.013254 0.032842
  4 4.476987 -0.000002 -0.000000 -0.170087 -0.051263 0.336037
  5 4.477083 0.000000 0.000002 -0.189163 0.015979 0.065801
  6 4.477077 -0.000004 -0.000002 -0.052641 0.043001 -0.129102
  7 5.413502 -7.700466 -0.000000 -0.243328 -0.178917 0.030303
  8 6.890240 0.000002 -0.000000 -0.186612 -0.227521 -0.238438
  9 8.011925 0.000004 0.000005 -0.133168 0.286713 -0.046514
 10 7.210720 -0.000002 -0.000000 0.000412 0.165621 0.130439
 11 8.581028 -0.304903 -0.000000 -0.299418 0.091178 0.480864
 12 22.523008 2.194031 6.355708 0.000000 -0.092908 0.000000
 13 22.523005 2.194038 -6.355709 0.000000 0.072840 0.000000
 14 -3.006533 7.804720 -11.355459 0.102572 0.273929 0.316289
 15 10.384675 0.000008 0.000005 0.139417 0.155971 -1.014283
 16 22.550743 -0.000006 -0.000004 0.107545 0.012704 1.100774
 17 30.814247 -0.000015 -0.000004 2.847115 -0.059368 1.005379
 18 -3.013796 7.815494 11.355459 -0.002127 -0.573846 0.119605
 19 10.374533 -0.000002 0.000007 0.109647 -0.060871 -2.007435
 20 22.550726 -0.000027 -0.000013 -0.015091 0.110287 2.368157
 21 30.814270 -0.000023 0.000002 -2.449002 -0.107702 0.756237
 22 -4.250660 -0.770624 0.000001 -0.083461 0.183328 3.049878
 23 10.363422 0.000000 0.000000 -0.119846 0.152652 -0.348834
 24 10.363076 0.000000 -0.000000 0.037248 0.141487 -0.021603
 25 10.363081 -0.000004 -0.000002 0.340191 -0.002865 0.049298
 26 8.210358 -0.000006 -7.703991 0.000000 0.000000 0.403428
 27 8.210346 -0.000002 7.704017 0.000000 0.000000 0.396364
 28 1.854841 1.227791 -13.762345 2.499861 0.177423 1.972109
 29 10.456543 -0.000004 0.000004 0.000964 0.087814 -1.895922
 30 24.248093 0.000001 0.000007 0.042848 0.038826 1.406087
 31 26.336971 0.000019 0.000002 0.520954 -0.183786 0.793152
 32 1.854847 1.227798 13.762341 -2.603321 0.077872 1.525561
 33 10.456542 -0.000008 0.000004 0.029418 -0.068870 -2.261213
 34 24.248116 0.000002 -0.000004 -0.057844 -0.038327 1.791701
 35 26.336975 0.000000 0.000004 -0.369740 -0.140492 0.449390
time 1
  0 0.000000 0.000000 0.000000 0.000000 -0.000000 -1.570796
  1 0.000000 0.000000 0.000000 0.000000 -0.000000 0.000000
  2 -2.363353 -24.116295 19.453211 -1.378211 -0.009217 1.569646
  3 4.222169 -0.467508 0.000000 -0.049528 0.013254 0.032842
  4 4.476987 -0.000002 -0.000000 -0.170087 -0.051263 0.336037
  5 4.477083 0.000000 0.000002 -0.189163 0.015979 0.065801
  6 4.477077 -0.000004 -0.000002 -0.052641 0.043001 -0.129102
  7 5.413502 -7.700466 -0.000000 -0.243328 -0.178917 0.030303
  8 6.890240 0.000002 -0.000000 -0.186612 -0.227521 -0.238438
  9 8.011925 0.000004 0.000005 -0.133168 0.286713 -0.046514
 10 7.210720 -0.000002 -0.000000 0.000412 0.165621 0.130439
 11 8.581028 -0.304903 -0.000000 -0.299418 0.091178 0.480864
 12 22.523008 2.194031 6.355708 0.000000 -0.092908 0.000000
 13 22.523005 2.194038 -6.355709 0.000000 0.072840 0.000000
 14 -3.006533 7.804720 -11.355459 0.102572 0.273929 0.316289
 15 10.384675 0.000008 0.000005 0.139417 0.155971 -1.014283
 16 22.550743 -0.000006 -0.000004 0.107545 0.012704 1.100774
 17 30.814247 -0.000015 -0.000004 2.847115 -0.059368 1.005379
 18 -3.013796 7.815494 11.355459 -0.002127 -0.573846 0.119605
 19 10.374533 -0.000002 0.000007 0.109647 -0.060871 -2.007435
 20 22.550726 -0.000027 -0.000013 -0.015091 0.110287 2.368157
 21 30.814270 -0.000023 0.000002 -2.449002 -0.107702 0.756237
 22 -4.250660 -0.770624 0.000001 -0.083461 0.183328 3.049878
 23 10.363422 0.000000 0.000000 -0.119846 0.152652 -0.348834
 24 10.363076 0.000000 -0.000000 0.037248 0.141487 -0.021603
 25 10.363081 -0.000004 -0.000002 0.340191 -0.002865 0.049298
 26 8.210358 -0.000006 -7.703991 0.000000 0.000000 0.403428
 27 8.210346 -0.000002 7.704017 0.000000 0.000000 0.396364
 28 1.854841 1.227791 -13.762345 2.499861 0.177423 1.972109
 29 10.456543 -0.000004 0.000004 0.000964 0.087814 -1.895922
 30 24.248093 0.000001 0.000007 0.042848 0.038826 1.406087
 31 26.336971 0.000019 0.000002 0.520954 -0.183786 0.793152
 32 1.854847 1.227798 13.762341 -2.603321 0.077872 1.525561
 33 10.456542 -0.000008 0.000004 0.029418 -0.068870 -2.261213
 34 24.248116 0.000002 -0.000004 -0.057844 -0.038327 1.791701
 35 26.336975 0.000000 0.000004 -0.369740 -0.140492 0.449390
time 2
  0 0.000000 0.000000 0.000000 0.000000 -0.000000 -1.570796
  1 0.000000 0.000000 0.000000 0.000000 -0.000000 0.000000
  2 -2.363353 -24.077230 19.496181 -1.378115 -0.007382 1.570413
  3 4.222169 -0.467508 0.000000 -0.049084 0.013310 0.033103
  4 4.476987 -0.000002 -0.000000 -0.169200 -0.051091 0.333906
  5 4.477083 0.000000 0.000002 -0.188612 0.015575 0.062896
  6 4.477077 -0.000004 -0.000002 -0.052354 0.042362 -0.131017
  7 5.413502 -7.700466 -0.000000 -0.239885 -0.166768 0.016177
  8 6.890240 0.000002 -0.000000 -0.177456 -0.205119 -0.277744
  9 8.011925 0.000004 0.000005 -0.141013 0.328425 -0.081530
 10 7.210720 -0.000002 -0.000000 -0.001702 0.198318 0.105419
 11 8.581028 -0.304903 -0.000000 -0.237393 0.039313 0.458853
 12 22.523008 2.194031 6.355708 0.000000 -0.093581 0.000000
 13 22.523005 2.194038 -6.355709 0.000000 0.073384 0.000000
 14 -3.006533 7.804720 -11.355459 0.104309 0.274459 0.321920
 15 10.384675 0.000008 0.000005 0.138782 0.156629 -1.021503
 16 22.550743 -0.000006 -0.000004 0.107817 0.012732 1.113002
 17 30.814247 -0.000015 -0.000004 2.845761 -0.057550 1.002980
 18 -3.013796 7.815494 11.355459 -0.008593 -0.583562 0.139042
 19 10.374533 -0.000002 0.000007 0.109175 -0.062864 -2.018046
 20 22.550726 -0.000027 -0.000013 -0.015193 0.112034 2.377587
 21 30.814270 -0.000023 0.000002 -2.443143 -0.108265 0.753420
 22 -4.250660 -0.770624 0.000001 -0.079110 0.183312 3.074075
 23 10.363422 0.000000 0.000000 -0.122195 0.148997 -0.372908
 24 10.363076 0.000000 -0.000000 0.035474 0.141043 -0.036289
 25 10.363081 -0.000004 -0.000002 0.339896 -0.006840 0.062963
 26 8.210358 -0.000006 -7.703991 0.000000 0.000000 0.402749
 27 8.210346 -0.000002 7.704017 0.000000 0.000000 0.395720
 28 1.854841 1.227791 -13.762345 2.500125 0.176041 1.966514
 29 10.456543 -0.000004 0.000004 0.002239 0.088170 -1.882505
 30 24.248093 0.000001 0.000007 0.042810 0.038524 1.401943
 31 26.336971 0.000019 0.000002 0.519867 -0.186598 0.792931
 32 1.854847 1.227798 13.762341 -2.603557 0.078692 1.523450
 33 10.456542 -0.000008 0.000004 0.029316 -0.068954 -2.259912
 34 24.248116 0.000002 -0.000004 -0.057546 -0.038232 1.788452
 35 26.336975 0.000000 0.000004 -0.369054 -0.140275 0.448485
time 3
  0 0.000000 0.000000 0.000000 0.000000 -0.000000 -1.570796
  1 0.000000 0.000000 0.000000 0.000000 -0.000000 0.000000
  2 -2.363353 -23.971758 19.613373 -1.378307 -0.002196 1.571564
  3 4.222169 -0.467508 0.000000 -0.048653 0.013718 0.031662
  4 4.476987 -0.000002 -0.000000 -0.168433 -0.051477 0.326758
  5 4.477083 0.000000 0.000002 -0.188048 0.013863 0.056345
  6 4.477077 -0.000004 -0.000002 -0.052210 0.041140 -0.132606
  7 5.413502 -7.700466 -0.000000 -0.232017 -0.136830 -0.020103
  8 6.890240 0.000002 -0.000000 -0.161061 -0.166615 -0.340530
  9 8.011925 0.000004 0.000005 -0.152473 0.385569 -0.129757
 10 7.210720 -0.000002 -0.000000 -0.005133 0.238996 0.073908
 11 8.581028 -0.304903 -0.000000 -0.091046 -0.089546 0.411781
 12 22.523008 2.194031 6.355708 0.000000 -0.340349 0.000000
 13 22.523005 2.194038 -6.355709 0.000000 0.272907 0.000000
 14 -3.006533 7.804720 -11.355459 0.108433 0.276014 0.334762
 15 10.384675 0.000008 0.000005 0.135010 0.159281 -1.048329
 16 22.550743 -0.000006 -0.000004 0.108313 0.012847 1.138728
 17 30.814247 -0.000015 -0.000004 2.842397 -0.053788 1.000760
 18 -3.013796 7.815494 11.355459 -0.015568 -0.592754 0.161386
 19 10.374533 -0.000002 0.000007 0.108771 -0.064725 -2.028251
 20 22.550726 -0.000027 -0.000013 -0.015520 0.112054 2.388816
 21 30.814270 -0.000023 0.000002 -2.436653 -0.107066 0.749376
 22 -4.250660 -0.770624 0.000001 -0.071776 0.183441 3.116632
 23 10.363422 0.000000 0.000000 -0.124448 0.145317 -0.396785
 24 10.363076 0.000000 -0.000000 0.028847 0.141019 -0.082256
 25 10.363081 -0.000004 -0.000002 0.339551 -0.010784 0.076494
 26 8.210358 -0.000006 -7.703991 0.000000 0.000000 0.402001
 27 8.210346 -0.000002 7.704017 0.000000 0.000000 0.394974
 28 1.854841 1.227791 -13.762345 2.500521 0.174660 1.961101
 29 10.456543 -0.000004 0.000004 0.003515 0.088508 -1.869132
 30 24.248093 0.000001 0.000007 0.042662 0.038362 1.397029
 31 26.336971 0.000019 0.000002 0.518735 -0.189410 0.792710
 32 1.854847 1.227798 13.762341 -2.604266 0.080936 1.517548
 33 10.456542 -0.000008 0.000004 0.028977 -0.069204 -2.255814
 34 24.248116 0.000002 -0.000004 -0.057183 -0.038196 1.782359
 35 26.336975 0.000000 0.000004 -0.368196 -0.138693 0.448768
time 4
  0 0.000000 0.000000 0.000000 0.000000 -0.000000 -1.570796
  1 0.000000 0.000000 0.000000 0.000000 -0.000000 0.000000
  2 -2.363353 -23.799879 19.804785 -1.378786 0.005861 1.573385
  3 4.222169 -0.467508 0.000000 -0.048197 0.014403 0.028779
  4 4.476987 -0.000002 -0.000000 -0.167678 -0.052376 0.315349
  5 4.477083 0.000000 0.000002 -0.187401 0.011036 0.046726
  6 4.477077 -0.000004 -0.000002 -0.052150 0.039374 -0.133945
  7 5.413502 -7.700466 -0.000000 -0.223191 -0.092568 -0.072439
  8 6.890240 0.000002 -0.000000 -0.146056 -0.124975 -0.403525
  9 8.011925 0.000004 0.000005 -0.165806 0.441579 -0.178322
 10 7.210720 -0.000002 -0.000000 -0.010157 0.280644 0.040923
 11 8.581028 -0.304903 -0.000000 0.066507 -0.222537 0.355105
 12 22.523008 2.194031 6.355708 0.000000 -0.593166 0.000000
 13 22.523005 2.194038 -6.355709 0.000000 0.468528 0.000000
 14 -3.006533 7.804720 -11.355459 0.114889 0.278381 0.354197
 15 10.384675 0.000008 0.000005 0.128996 0.163100 -1.088539
 16 22.550743 -0.000006 -0.000004 0.109016 0.013077 1.175835
 17 30.814247 -0.000015 -0.000004 2.837287 -0.048334 0.998110
 18 -3.013796 7.815494 11.355459 -0.023103 -0.601535 0.189658
 19 10.374533 -0.000002 0.000007 0.108299 -0.066884 -2.039790
 20 22.550726 -0.000027 -0.000013 -0.016133 0.110641 2.401161
 21 30.814270 -0.000023 0.000002 -2.429567 -0.104130 0.744132
 22 -4.250660 -0.770624 0.000001 -0.061900 0.183665 -3.109759
 23 10.363422 0.000000 0.000000 -0.126785 0.141434 -0.421960
 24 10.363076 0.000000 -0.000000 0.021944 0.140768 -0.130159
 25 10.363081 -0.000004 -0.000002 0.339046 -0.014928 0.090804
 26 8.210358 -0.000006 -7.703991 0.000000 0.000000 0.401050
 27 8.210346 -0.000002 7.704017 0.000000 0.000000 0.393991
 28 1.854841 1.227791 -13.762345 2.501004 0.173303 1.955992
 29 10.456543 -0.000004 0.000004 0.004807 0.088829 -1.855715
 30 24.248093 0.000001 0.000007 0.042403 0.038302 1.390458
 31 26.336971 0.000019 0.000002 0.517648 -0.192222 0.792489
 32 1.854847 1.227798 13.762341 -2.605380 0.084411 1.508415
 33 10.456542 -0.000008 0.000004 0.028468 -0.069621 -2.249153
 34 24.248116 0.000002 -0.000004 -0.056742 -0.038220 1.772915
 35 26.336975 0.000000 0.000004 -0.367167 -0.135870 0.450124
time 5
  0 0.000000 0.000000 0.000000 0.000000 -0.000000 -1.570796
  1 0.000000 0.000000 0.000000 0.000000 -0.000000 0.000000
  2 -2.363353 -23.569403 20.058699 -1.379457 0.016233 1.575590
  3 4.222169 -0.467508 0.000000 -0.047730 0.015312 0.024700
  4 4.476987 -0.000002 -0.000000 -0.166851 -0.053683 0.300410
  5 4.477083 0.000000 0.000002 -0.186574 0.007272 0.034602
  6 4.477077 -0.000004 -0.000002 -0.052162 0.037119 -0.135035
  7 5.413502 -7.700466 -0.000000 -0.216758 -0.049648 -0.123499
  8 6.890240 0.000002 -0.000000 -0.133305 -0.082628 -0.463076
  9 8.011925 0.000004 0.000005 -0.181273 0.495273 -0.226679
 10 7.210720 -0.000002 -0.000000 -0.016773 0.321409 0.008018
 11 8.581028 -0.304903 -0.000000 0.217997 -0.342263 0.294644
 12 22.523008 2.194031 6.355708 0.000000 -0.820503 0.000000
 13 22.523005 2.194038 -6.355709 0.000000 0.631177 0.000000
 14 -3.006533 7.804720 -11.355459 0.123571 0.281243 0.379880
 15 10.384675 0.000008 0.000005 0.121675 0.167386 -1.136525
 16 22.550743 -0.000006 -0.000004 0.109896 0.013335 1.222143
 17 30.814247 -0.000015 -0.000004 2.830647 -0.041375 0.994421
 18 -3.013796 7.815494 11.355459 -0.031452 -0.609980 0.227107
 19 10.374533 -0.000002 0.000007 0.106883 -0.071635 -2.069015
 20 22.550726 -0.000027 -0.000013 -0.017154 0.108010 2.414126
 21 30.814270 -0.000023 0.000002 -2.421920 -0.099383 0.737717
 22 -4.250660 -0.770624 0.000001 -0.050671 0.183729 -3.045719
 23 10.363422 0.000000 0.000000 -0.131627 0.135094 -0.467644
 24 10.363076 0.000000 -0.000000 0.011985 0.141295 -0.199329
 25 10.363081 -0.000004 -0.000002 0.336769 -0.022169 0.116845
 26 8.210358 -0.000006 -7.703991 0.000000 0.000000 0.399759
 27 8.210346 -0.000002 7.704017 0.000000 0.000000 0.392736
 28 1.854841 1.227791 -13.762345 2.501708 0.171970 1.951187
 29 10.456543 -0.000004 0.000004 0.006100 0.089131 -1.842212
 30 24.248093 0.000001 0.000007 0.042032 0.038282 1.381163
 31 26.336971 0.000019 0.000002 0.516560 -0.195007 0.792268
 32 1.854847 1.227798 13.762341 -2.606832 0.088926 1.496568
 33 10.456542 -0.000008 0.000004 0.027756 -0.070150 -2.240089
 34 24.248116 0.000002 -0.000004 -0.056198 -0.038280 1.759816
 35 26.336975 0.000000 0.000004 -0.365966 -0.131992 0.452441
time 6
  0 0.000000 0.000000 0.000000 0.000000 -0.000000 -1.570796
  1 0.000000 0.000000 0.000000 0.000000 -0.000000 0.000000
  2 -2.363353 -23.284237 20.375114 -1.380511 0.028439 1.578082
  3 4.222169 -0.467508 0.000000 -0.047214 0.016368 0.019701
  4 4.476987 -0.000002 -0.000000 -0.165856 -0.055289 0.282697
  5 4.477083 0.000000 0.000002 -0.185496 0.002766 0.020566
  6 4.477077 -0.000004 -0.000002 -0.052186 0.034450 -0.135923
  7 5.413502 -7.700466 -0.000000 -0.210484 -0.003534 -0.175803
  8 6.890240 0.000002 -0.000000 -0.124867 -0.051509 -0.497146
  9 8.011925 0.000004 0.000005 -0.193597 0.523470 -0.257697
 10 7.210720 -0.000002 -0.000000 -0.024706 0.339364 -0.004479
 11 8.581028 -0.304903 -0.000000 0.285372 -0.392625 0.269163
 12 22.523008 2.194031 6.355708 0.000000 -0.915672 0.000000
 13 22.523005 2.194038 -6.355709 0.000000 0.718023 0.000000
 14 -3.006533 7.804720 -11.355459 0.134206 0.284175 0.411127
 15 10.384675 0.000008 0.000005 0.113309 0.171757 -1.189954
 16 22.550743 -0.000006 -0.000004 0.110920 0.013593 1.275472
 17 30.814247 -0.000015 -0.000004 2.822742 -0.033256 0.989049
 18 -3.013796 7.815494 11.355459 -0.040820 -0.618089 0.276412
 19 10.374533 -0.000002 0.000007 0.105670 -0.076485 -2.098645
 20 22.550726 -0.000027 -0.000013 -0.018645 0.104398 2.427030
 21 30.814270 -0.000023 0.000002 -2.413816 -0.092826 0.730159
 22 -4.250660 -0.770624 0.000001 -0.039369 0.183280 -2.980961
 23 10.363422 0.000000 0.000000 -0.136337 0.128371 -0.514693
 24 10.363076 0.000000 -0.000000 0.001786 0.141187 -0.270151
 25 10.363081 -0.000004 -0.000002 0.334171 -0.029564 0.143773
 26 8.210358 -0.000006 -7.703991 0.000000 0.000000 0.398095
 27 8.210346 -0.000002 7.704017 0.000000 0.000000 0.391041
 28 1.854841 1.227791 -13.762345 2.502631 0.170688 1.946869
 29 10.456543 -0.000004 0.000004 0.007375 0.089416 -1.828882
 30 24.248093 0.000001 0.000007 0.041513 0.038241 1.368257
 31 26.336971 0.000019 0.000002 0.515473 -0.197845 0.792047
 32 1.854847 1.227798 13.762341 -2.608655 0.094179 1.482609
 33 10.456542 -0.000008 0.000004 0.026874 -0.070818 -2.228817
 34 24.248116 0.000002 -0.000004 -0.055525 -0.038375 1.742705
 35 26.336975 0.000000 0.000004 -0.364594 -0.127215 0.455550
time 7
  0 0.000000 0.000000 0.000000 0.000000 -0.000000 -1.570796
  1 0.000000 0.000000 0.000000 0.000000 -0.000000 0.000000
  2 -2.363353 -22.948290 20.742313 -1.381757 0.041922 1.580862
  3 4.222169 -0.467508 0.000000 -0.046639 0.017555 0.013997
  4 4.476987 -0.000002 -0.000000 -0.164598 -0.057131 0.262941
  5 4.477083 0.000000 0.000002 -0.184082 -0.002291 0.005151
  6 4.477077 -0.000004 -0.000002 -0.052210 0.031443 -0.136623
  7 5.413502 -7.700466 -0.000000 -0.202882 0.050158 -0.231375
  8 6.890240 0.000002 -0.000000 -0.120086 -0.035746 -0.499240
  9 8.011925 0.000004 0.000005 -0.193479 0.496855 -0.246873
 10 7.210720 -0.000002 -0.000000 -0.030416 0.308468 0.030598
 11 8.581028 -0.304903 -0.000000 0.295247 -0.391721 0.265868
 12 22.523008 2.194031 6.355708 0.000000 -0.908706 0.000000
 13 22.523005 2.194038 -6.355709 0.000000 0.715633 0.000000
 14 -3.006533 7.804720 -11.355459 0.146794 0.286860 0.447386
 15 10.384675 0.000008 0.000005 0.104158 0.175979 -1.247271
 16 22.550743 -0.000006 -0.000004 0.112055 0.013852 1.333584
 17 30.814247 -0.000015 -0.000004 2.813788 -0.024165 0.981350
 18 -3.013796 7.815494 11.355459 -0.051105 -0.625861 0.335009
 19 10.374533 -0.000002 0.000007 0.104591 -0.081236 -2.127522
 20 22.550726 -0.000027 -0.000013 -0.020627 0.099942 2.439996
 21 30.814270 -0.000023 0.000002 -2.405292 -0.084434 0.721485
 22 -4.250660 -0.770624 0.000001 -0.028248 0.182365 -2.916921
 23 10.363422 0.000000 0.000000 -0.140735 0.121396 -0.561918
 24 10.363076 0.000000 -0.000000 -0.008401 0.140348 -0.341180
 25 10.363081 -0.000004 -0.000002 0.331413 -0.036913 0.170835
 26 8.210358 -0.000006 -7.703991 0.000000 0.000000 0.395887
 27 8.210346 -0.000002 7.704017 0.000000 0.000000 0.388837
 28 1.854841 1.227791 -13.762345 2.503819 0.169479 1.943037
 29 10.456543 -0.000004 0.000004 0.008843 0.089772 -1.813295
 30 24.248093 0.000001 0.000007 0.040883 0.038160 1.350675
 31 26.336971 0.000019 0.000002 0.514385 -0.200657 0.791826
 32 1.854847 1.227798 13.762341 -2.610715 0.100035 1.467014
 33 10.456542 -0.000008 0.000004 0.025823 -0.071625 -2.215575
 34 24.248116 0.000002 -0.000004 -0.054709 -0.038483 1.721025
 35 26.336975 0.000000 0.000004 -0.363050 -0.121631 0.459337
time 8
  0 0.000000 0.000000 0.000000 0.000000 -0.000000 -1.570796
  1 0.000000 0.000000 0.000000 0.000000 -0.000000 0.000000
  2 -2.363353 -22.569372 21.164202 -1.383387 0.056282 1.583738
  3 4.222169 -0.467508 0.000000 -0.045992 0.018778 0.007818
  4 4.476987 -0.000002 -0.000000 -0.162992 -0.059080 0.241853
  5 4.477083 0.000000 0.000002 -0.182260 -0.007734 -0.011079
  6 4.477077 -0.000004 -0.000002 -0.052186 0.028136 -0.137168
  7 5.413502 -7.700466 -0.000000 -0.193804 0.113620 -0.291023
  8 6.890240 0.000002 -0.000000 -0.115400 -0.019853 -0.501567
  9 8.011925 0.000004 0.000005 -0.182399 0.425476 -0.199113
 10 7.210720 -0.000002 -0.000000 -0.033079 0.235164 0.110433
 11 8.581028 -0.304903 -0.000000 0.299931 -0.385796 0.265062
 12 22.523008 2.194031 6.355708 0.000000 -0.885976 0.000000
 13 22.523005 2.194038 -6.355709 0.000000 0.704320 0.000000
 14 -3.006533 7.804720 -11.355459 0.161173 0.288980 0.488384
 15 10.384675 0.000008 0.000005 0.094372 0.179819 -1.306920
 16 22.550743 -0.000006 -0.000004 0.113286 0.014053 1.394359
 17 30.814247 -0.000015 -0.000004 2.803916 -0.014415 0.970606
 18 -3.013796 7.815494 11.355459 -0.061796 -0.633372 0.396113
 19 10.374533 -0.000002 0.000007 0.103715 -0.085921 -2.155761
 20 22.550726 -0.000027 -0.000013 -0.023057 0.094779 2.452962
 21 30.814270 -0.000023 0.000002 -2.396451 -0.074158 0.711695
 22 -4.250660 -0.770624 0.000001 -0.017593 0.181098 -2.855313
 23 10.363422 0.000000 0.000000 -0.144606 0.114745 -0.605843
 24 10.363076 0.000000 -0.000000 -0.018073 0.139054 -0.408879
 25 10.363081 -0.000004 -0.000002 0.328015 -0.043737 0.196072
 26 8.210358 -0.000006 -7.703991 0.000000 0.000000 0.393033
 27 8.210346 -0.000002 7.704017 0.000000 0.000000 0.385988
 28 1.854841 1.227791 -13.762345 2.505358 0.168344 1.939874
 29 10.456543 -0.000004 0.000004 0.011516 0.090537 -1.783900
 30 24.248093 0.000001 0.000007 0.040030 0.037938 1.328178
 31 26.336971 0.000019 0.000002 0.513341 -0.203495 0.791605
 32 1.854847 1.227798 13.762341 -2.613044 0.106246 1.450298
 33 10.456542 -0.000008 0.000004 0.024636 -0.072516 -2.200520
 34 24.248116 0.000002 -0.000004 -0.053750 -0.038579 1.694573
 35 26.336975 0.000000 0.000004 -0.361292 -0.115427 0.463688
time 9
  0 0.000000 0.000000 0.000000 0.000000 -0.000000 -1.570796
  1 0.000000 0.000000 0.000000 0.000000 -0.000000 0.000000
  2 -2.363353 -22.151390 21.625153 -1.385400 0.070762 1.586614
  3 4.222169 -0.467508 0.000000 -0.045261 0.020002 0.001500
  4 4.476987 -0.000002 -0.000000 -0.160966 -0.061051 0.220389
  5 4.477083 0.000000 0.000002 -0.180007 -0.013323 -0.027412
  6 4.477077 -0.000004 -0.000002 -0.052078 0.024659 -0.137573
  7 5.413502 -7.700466 -0.000000 -0.185456 0.179579 -0.351573
  8 6.890240 0.000002 -0.000000 -0.110881 -0.004653 -0.502568
  9 8.011925 0.000004 0.000005 -0.167783 0.334016 -0.134066
 10 7.210720 -0.000002 -0.000000 -0.037141 0.140604 0.214243
 11 8.581028 -0.304903 -0.000000 0.304777 -0.380299 0.263835
 12 22.523008 2.194031 6.355708 0.000000 -0.841309 0.000000
 13 22.523005 2.194038 -6.355709 0.000000 0.691040 0.000000
 14 -3.006533 7.804720 -11.355459 0.176908 0.290075 0.533022
 15 10.384675 0.000008 0.000005 0.084399 0.183086 -1.366681
 16 22.550743 -0.000006 -0.000004 0.114550 0.014196 1.455012
 17 30.814247 -0.000015 -0.000004 2.793433 -0.004353 0.956389
 18 -3.013796 7.815494 11.355459 -0.072539 -0.640397 0.458813
 19 10.374533 -0.000002 0.000007 0.102974 -0.090505 -2.183130
 20 22.550726 -0.000027 -0.000013 -0.025958 0.089105 2.465865
 21 30.814270 -0.000023 0.000002 -2.387435 -0.062046 0.700901
 22 -4.250660 -0.770624 0.000001 -0.007598 0.179669 -2.797521
 23 10.363422 0.000000 0.000000 -0.147243 0.110730 -0.632580
 24 10.363076 0.000000 -0.000000 -0.025455 0.138611 -0.459518
 25 10.363081 -0.000004 -0.000002 0.322327 -0.048113 0.211348
 26 8.210358 -0.000006 -7.703991 0.000000 0.000000 0.389500
 27 8.210346 -0.000002 7.704017 0.000000 0.000000 0.382462
 28 1.854841 1.227791 -13.762345 2.507249 0.167332 1.937442
 29 10.456543 -0.000004 0.000004 0.014433 0.091178 -1.752595
 30 24.248093 0.000001 0.000007 0.039140 0.037636 1.303136
 31 26.336971 0.000019 0.000002 0.512297 -0.206333 0.791385
 32 1.854847 1.227798 13.762341 -2.615509 0.112567 1.433195
 33 10.456542 -0.000008 0.000004 0.023347 -0.073518 -2.183967
 34 24.248116 0.000002 -0.000004 -0.052675 -0.038663 1.665277
 35 26.336975 0.000000 0.000004 -0.359362 -0.108819 0.468436
time 10
  0 0.000000 0.000000 0.000000 0.000000 -0.000000 -1.570796
  1 0.000000 0.000000 0.000000 0.000000 -0.000000 0.000000
  2 -2.363353 -21.698252 22.125168 -1.387797 0.085002 1.589586
  3 4.222169 -0.467508 0.000000 -0.044422 0.021151 -0.004771
  4 4.476987 -0.000002 -0.000000 -0.158438 -0.062935 0.199190
  5 4.477083 0.000000 0.000002 -0.177250 -0.018880 -0.043346
  6 4.477077 -0.000004 -0.000002 -0.051851 0.021014 -0.137900
  7 5.413502 -7.700466 -0.000000 -0.179356 0.238335 -0.409571
  8 6.890240 0.000002 -0.000000 -0.106447 0.009789 -0.501800
  9 8.011925 0.000004 0.000005 -0.158995 0.239984 -0.070446
 10 7.210720 -0.000002 -0.000000 -0.044553 0.050546 0.316122
 11 8.581028 -0.304903 -0.000000 0.307739 -0.374051 0.262188
 12 22.523008 2.194031 6.355708 0.000000 -0.791845 0.000000
 13 22.523005 2.194038 -6.355709 0.000000 0.673314 0.000000
 14 -3.006533 7.804720 -11.355459 0.193892 0.289934 0.580750
 15 10.384675 0.000008 0.000005 0.074463 0.185760 -1.425053
 16 22.550743 -0.000006 -0.000004 0.115829 0.014253 1.513427
 17 30.814247 -0.000015 -0.000004 2.782513 0.005710 0.938053
 18 -3.013796 7.815494 11.355459 -0.083078 -0.646861 0.522939
 19 10.374533 -0.000002 0.000007 0.102367 -0.094990 -2.209803
 20 22.550726 -0.000027 -0.000013 -0.029267 0.083000 2.478831
 21 30.814270 -0.000023 0.000002 -2.378315 -0.048027 0.689159
 22 -4.250660 -0.770624 0.000001 -0.000372 0.178145 -2.754990
 23 10.363422 0.000000 0.000000 -0.149891 0.106991 -0.658085
 24 10.363076 0.000000 -0.000000 -0.031100 0.138191 -0.498026
 25 10.363081 -0.000004 -0.000002 0.316331 -0.052488 0.226731
 26 8.210358 -0.000006 -7.703991 0.000000 0.000000 0.385424
 27 8.210346 -0.000002 7.704017 0.000000 0.000000 0.378393
 28 1.854841 1.227791 -13.762345 2.509579 0.166419 1.935799
 29 10.456543 -0.000004 0.000004 0.017229 0.091640 -1.723113
 30 24.248093 0.000001 0.000007 0.038288 0.037293 1.278449
 31 26.336971 0.000019 0.000002 0.511296 -0.209198 0.791219
 32 1.854847 1.227798 13.762341 -2.618041 0.118805 1.416178
 33 10.456542 -0.000008 0.000004 0.021957 -0.074575 -2.166075
 34 24.248116 0.000002 -0.000004 -0.051600 -0.038723 1.635879
 35 26.336975 0.000000 0.000004 -0.357218 -0.101901 0.473466
time 11
  0 0.000000 0.000000 0.000000 0.000000 -0.000000 -1.570796
  1 0.000000 0.000000 0.000000 0.000000 -0.000000 0.000000
  2 -2.363353 -21.217768 22.656433 -1.390673 0.098485 1.592366
  3 4.222169 -0.467508 0.000000 -0.043451 0.022171 -0.010721
  4 4.476987 -0.000002 -0.000000 -0.155358 -0.064649 0.179035
  5 4.477083 0.000000 0.000002 -0.173979 -0.024211 -0.058316
  6 4.477077 -0.000004 -0.000002 -0.051479 0.017312 -0.138150
  7 5.413502 -7.700466 -0.000000 -0.175475 0.279810 -0.461316
  8 6.890240 0.000002 -0.000000 -0.102013 0.023421 -0.499194
  9 8.011925 0.000004 0.000005 -0.153442 0.156784 -0.007943
 10 7.210720 -0.000002 -0.000000 -0.053942 -0.025582 0.408266
 11 8.581028 -0.304903 -0.000000 0.307509 -0.366539 0.259840
 12 22.523008 2.194031 6.355708 0.000000 -0.742840 0.000000
 13 22.523005 2.194038 -6.355709 0.000000 0.650295 0.000000
 14 -3.006533 7.804720 -11.355459 0.211960 0.287920 0.631774
 15 10.384675 0.000008 0.000005 0.064939 0.187754 -1.480370
 16 22.550743 -0.000006 -0.000004 0.117045 0.014253 1.567785
 17 30.814247 -0.000015 -0.000004 2.771113 0.015365 0.914346
 18 -3.013796 7.815494 11.355459 -0.093006 -0.652728 0.587748
 19 10.374533 -0.000002 0.000007 0.101895 -0.099343 -2.235723
 20 22.550726 -0.000027 -0.000013 -0.032985 0.076659 2.491921
 21 30.814270 -0.000023 0.000002 -2.369159 -0.032098 0.676440
 22 -4.250660 -0.770624 0.000001 -0.000024 0.176444 -2.749151
 23 10.363422 0.000000 0.000000 -0.150023 0.104965 -0.665941
 24 10.363076 0.000000 -0.000000 -0.032155 0.137903 -0.505305
 25 10.363081 -0.000004 -0.000002 0.308550 -0.052226 0.224986
 26 8.210358 -0.000006 -7.703991 0.000000 0.000000 0.378766
 27 8.210346 -0.000002 7.704017 0.000000 0.000000 0.371746
 28 1.854841 1.227791 -13.762345 2.512438 0.165654 1.935191
 29 10.456543 -0.000004 0.000004 0.019779 0.091960 -1.696584
 30 24.248093 0.000001 0.000007 0.037583 0.036950 1.257018
 31 26.336971 0.000019 0.000002 0.510513 -0.212115 0.790556
 32 1.854847 1.227798 13.762341 -2.620607 0.124907 1.399462
 33 10.456542 -0.000008 0.000004 0.020498 -0.075716 -2.147394
 34 24.248116 0.000002 -0.000004 -0.050499 -0.038759 1.606330
 35 26.336975 0.000000 0.000004 -0.354902 -0.094828 0.478609
time 12
  0 0.000000 0.000000 0.000000 0.000000 -0.000000 -1.570796
  1 0.000000 0.000000 0.000000 0.000000 -0.000000 0.000000
  2 -2.363353 -20.713846 23.218952 -1.394028 0.110612 1.594954
  3 4.222169 -0.467508 0.000000 -0.042337 0.023005 -0.016103
  4 4.476987 -0.000002 -0.000000 -0.151666 -0.066084 0.160678
  5 4.477083 0.000000 0.000002 -0.170155 -0.029154 -0.071699
  6 4.477077 -0.000004 -0.000002 -0.050916 0.013609 -0.138352
  7 5.413502 -7.700466 -0.000000 -0.172710 0.295663 -0.503228
  8 6.890240 0.000002 -0.000000 -0.097411 0.035995 -0.492887
  9 8.011925 0.000004 0.000005 -0.144471 0.121654 0.050641
 10 7.210720 -0.000002 -0.000000 -0.060063 -0.065835 0.466406
 11 8.581028 -0.304903 -0.000000 0.302664 -0.357184 0.256475
 12 22.523008 2.194031 6.355708 0.000000 -0.693834 0.000000
 13 22.523005 2.194038 -6.355709 0.000000 0.622798 0.000000
 14 -3.006533 7.804720 -11.355459 0.232633 0.281949 0.691520
 15 10.384675 0.000008 0.000005 0.056199 0.189154 -1.530855
 16 22.550743 -0.000006 -0.000004 0.118196 0.014196 1.616938
 17 30.814247 -0.000015 -0.000004 2.758009 0.023014 0.879859
 18 -3.013796 7.815494 11.355459 -0.101967 -0.657885 0.652671
 19 10.374533 -0.000002 0.000007 0.101558 -0.103628 -2.260888
 20 22.550726 -0.000027 -0.000013 -0.037091 0.070142 2.505135
 21 30.814270 -0.000023 0.000002 -2.359897 -0.014580 0.662941
 22 -4.250660 -0.770624 0.000001 -0.003452 0.173940 -2.767024
 23 10.363422 0.000000 0.000000 -0.137655 0.112168 -0.581900
 24 10.363076 0.000000 -0.000000 -0.032047 0.137700 -0.504840
 25 10.363081 -0.000004 -0.000002 0.293012 -0.028008 0.132873
 26 8.210358 -0.000006 -7.703991 0.000000 0.000000 0.349314
 27 8.210346 -0.000002 7.704017 0.000000 0.000000 0.342313
 28 1.854841 1.227791 -13.762345 2.516351 0.165161 1.936834
 29 10.456543 -0.000004 0.000004 0.021893 0.092210 -1.674310
 30 24.248093 0.000001 0.000007 0.037064 0.036667 1.241922
 31 26.336971 0.000019 0.000002 0.508164 -0.214559 0.793815
 32 1.854847 1.227798 13.762341 -2.622667 0.129285 1.386581
 33 10.456542 -0.000008 0.000004 0.018667 -0.077024 -2.124693
 34 24.248116 0.000002 -0.000004 -0.049397 -0.038771 1.576678
 35 26.336975 0.000000 0.000004 -0.352458 -0.087755 0.483752
time 13
  0 0.000000 0.000000 0.000000 0.000000 -0.000000 -1.570796
  1 0.000000 0.000000 0.000000 0.000000 -0.000000 0.000000
  2 -2.363353 -20.186487 23.801001 -1.397958 0.120983 1.597255
  3 4.222169 -0.467508 0.000000 -0.041042 0.023598 -0.020672
  4 4.476987 -0.000002 -0.000000 -0.147280 -0.067155 0.144873
  5 4.477083 0.000000 0.000002 -0.165781 -0.033499 -0.082994
  6 4.477077 -0.000004 -0.000002 -0.050137 0.009945 -0.138554
  7 5.413502 -7.700466 -0.000000 -0.170344 0.293165 -0.535619
  8 6.890240 0.000002 -0.000000 -0.091730 0.046411 -0.465567
  9 8.011925 0.000004 0.000005 -0.134190 0.114576 0.106448
 10 7.210720 -0.000002 -0.000000 -0.060448 -0.069737 0.483113
 11 8.581028 -0.304903 -0.000000 0.276784 -0.341734 0.248413
 12 22.523008 2.194031 6.355708 0.000000 -0.645287 0.000000
 13 22.523005 2.194038 -6.355709 0.000000 0.593185 0.000000
 14 -3.006533 7.804720 -11.355459 0.256344 0.270361 0.762940
 15 10.384675 0.000008 0.000005 0.048467 0.190045 -1.574954
 16 22.550743 -0.000006 -0.000004 0.119236 0.014139 1.660158
 17 30.814247 -0.000015 -0.000004 2.742023 0.027152 0.831334
 18 -3.013796 7.815494 11.355459 -0.109603 -0.662444 0.717139
 19 10.374533 -0.000002 0.000007 0.101356 -0.107781 -2.285416
 20 22.550726 -0.000027 -0.000013 -0.041605 0.063565 2.518473
 21 30.814270 -0.000023 0.000002 -2.352776 0.008052 0.647182
 22 -4.250660 -0.770624 0.000001 -0.012344 0.168917 -2.827710
 23 10.363422 0.000000 0.000000 -0.110186 0.129893 -0.386794
 24 10.363076 0.000000 -0.000000 -0.030908 0.137436 -0.496039
 25 10.363081 -0.000004 -0.000002 0.268647 0.024095 -0.066763
 26 8.210358 -0.000006 -7.703991 0.000000 0.000000 0.272575
 27 8.210346 -0.000002 7.704017 0.000000 0.000000 0.265611
 28 1.854841 1.227791 -13.762345 2.521848 0.165062 1.941821
 29 10.456543 -0.000004 0.000004 0.023518 0.092388 -1.657072
 30 24.248093 0.000001 0.000007 0.036842 0.036506 1.234640
 31 26.336971 0.000019 0.000002 0.501116 -0.215557 0.808615
 32 1.854847 1.227798 13.762341 -2.623342 0.128902 1.384513
 33 10.456542 -0.000008 0.000004 0.015852 -0.078721 -2.091194
 34 24.248116 0.000002 -0.000004 -0.048283 -0.038747 1.546875
 35 26.336975 0.000000 0.000004 -0.349799 -0.080838 0.488838
time 14
  0 0.000000 0.000000 0.000000 0.000000 -0.000000 -1.570796
  1 0.000000 0.000000 0.000000 0.000000 -0.000000 0.000000
  2 -2.363353 -19.643501 24.398674 -1.402464 0.128961 1.599269
  3 4.222169 -0.467508 0.000000 -0.039556 0.023876 -0.024184
  4 4.476987 -0.000002 -0.000000 -0.142151 -0.067776 0.132376
  5 4.477083 0.000000 0.000002 -0.160831 -0.037101 -0.091561
  6 4.477077 -0.000004 -0.000002 -0.049082 0.006412 -0.138772
  7 5.413502 -7.700466 -0.000000 -0.168749 0.288833 -0.562036
  8 6.890240 0.000002 -0.000000 -0.084180 0.053861 -0.396358
  9 8.011925 0.000004 0.000005 -0.124459 0.107643 0.160879
 10 7.210720 -0.000002 -0.000000 -0.060146 -0.066701 0.490488
 11 8.581028 -0.304903 -0.000000 0.221626 -0.318857 0.232571
 12 22.523008 2.194031 6.355708 0.000000 -0.592249 0.000000
 13 22.523005 2.194038 -6.355709 0.000000 0.555041 0.000000
 14 -3.006533 7.804720 -11.355459 0.279785 0.255876 0.836077
 15 10.384675 0.000008 0.000005 0.042192 0.190533 -1.610888
 16 22.550743 -0.000006 -0.000004 0.120115 0.014053 1.696720
 17 30.814247 -0.000015 -0.000004 2.724857 0.028719 0.776363
 18 -3.013796 7.815494 11.355459 -0.115357 -0.666442 0.780352
 19 10.374533 -0.000002 0.000007 0.101221 -0.111801 -2.309306
 20 22.550726 -0.000027 -0.000013 -0.046508 0.056989 2.531749
 21 30.814270 -0.000023 0.000002 -2.351408 0.040373 0.627184
 22 -4.250660 -0.770624 0.000001 -0.021812 0.161375 -2.906858
 23 10.363422 0.000000 0.000000 -0.072483 0.151010 -0.127937
 24 10.363076 0.000000 -0.000000 -0.026762 0.136909 -0.463080
 25 10.363081 -0.000004 -0.000002 0.240379 0.086859 -0.309892
 26 8.210358 -0.000006 -7.703991 0.000000 0.000000 0.166147
 27 8.210346 -0.000002 7.704017 0.000000 0.000000 0.159204
 28 1.854841 1.227791 -13.762345 2.528620 0.165235 1.949363
 29 10.456543 -0.000004 0.000004 0.024741 0.092565 -1.644090
 30 24.248093 0.000001 0.000007 0.036768 0.036425 1.232509
 31 26.336971 0.000019 0.000002 0.492546 -0.215951 0.827392
 32 1.854847 1.227798 13.762341 -2.623443 0.125345 1.390501
 33 10.456542 -0.000008 0.000004 0.012495 -0.080530 -2.051941
 34 24.248116 0.000002 -0.000004 -0.047156 -0.038711 1.517020
 35 26.336975 0.000000 0.000004 -0.346969 -0.074230 0.493586
time 15
  0 0.000000 0.000000 0.000000 0.000000 -0.000000 -1.570796
  1 0.000000 0.000000 0.000000 0.000000 -0.000000 0.000000
  2 -2.363353 -19.092703 25.008068 -1.407640 0.134107 1.600802
  3 4.222169 -0.467508 0.000000 -0.037855 0.023784 -0.026361
  4 4.476987 -0.000002 -0.000000 -0.136266 -0.067883 0.124074
  5 4.477083 0.000000 0.000002 -0.155343 -0.039750 -0.096763
  6 4.477077 -0.000004 -0.000002 -0.047752 0.003086 -0.139037
  7 5.413502 -7.700466 -0.000000 -0.167633 0.282410 -0.582510
  8 6.890240 0.000002 -0.000000 -0.075635 0.059350 -0.301387
  9 8.011925 0.000004 0.000005 -0.115003 0.101908 0.212325
 10 7.210720 -0.000002 -0.000000 -0.059981 -0.064600 0.499123
 11 8.581028 -0.304903 -0.000000 0.164377 -0.296237 0.213959
 12 22.523008 2.194031 6.355708 0.000000 -0.528304 0.000000
 13 22.523005 2.194038 -6.355709 0.000000 0.498777 0.000000
 14 -3.006533 7.804720 -11.355459 0.300512 0.241920 0.901797
 15 10.384675 0.000008 0.000005 0.037560 0.190788 -1.636991
 16 22.550743 -0.000006 -0.000004 0.120803 0.013966 1.725473
 17 30.814247 -0.000015 -0.000004 2.708302 0.028907 0.722466
 18 -3.013796 7.815494 11.355459 -0.119124 -0.669954 0.841571
 19 10.374533 -0.000002 0.000007 0.101153 -0.115688 -2.332326
 20 22.550726 -0.000027 -0.000013 -0.051778 0.050491 2.544901
 21 30.814270 -0.000023 0.000002 -2.352846 0.075802 0.605847
 22 -4.250660 -0.770624 0.000001 -0.029458 0.151779 -2.988233
 23 10.363422 0.000000 0.000000 -0.032095 0.165164 0.129380
 24 10.363076 0.000000 -0.000000 -0.020602 0.136393 -0.414325
 25 10.363081 -0.000004 -0.000002 0.216802 0.138423 -0.514173
 26 8.210358 -0.000006 -7.703991 0.000000 0.000000 0.050174
 27 8.210346 -0.000002 7.704017 0.000000 0.000000 0.043234
 28 1.854841 1.227791 -13.762345 2.537458 0.166271 1.961405
 29 10.456543 -0.000004 0.000004 0.026016 0.092654 -1.631716
 30 24.248093 0.000001 0.000007 0.036694 0.036365 1.230496
 31 26.336971 0.000019 0.000002 0.483323 -0.216897 0.848378
 32 1.854847 1.227798 13.762341 -2.623410 0.119954 1.401832
 33 10.456542 -0.000008 0.000004 0.008934 -0.082311 -2.011111
 34 24.248116 0.000002 -0.000004 -0.046042 -0.038639 1.487318
 35 26.336975 0.000000 0.000004 -0.344053 -0.068088 0.497937
time 16
  0 0.000000 0.000000 0.000000 0.000000 -0.000000 -1.570796
  1 0.000000 0.000000 0.000000 0.000000 -0.000000 0.000000
  2 -2.363353 -18.538000 25.621368 -1.413584 0.135742 1.601857
  3 4.222169 -0.467508 0.000000 -0.035925 0.023283 -0.027051
  4 4.476987 -0.000002 -0.000000 -0.129519 -0.067412 0.120256
  5 4.477083 0.000000 0.000002 -0.149266 -0.041317 -0.098112
  6 4.477077 -0.000004 -0.000002 -0.046086 0.000023 -0.139395
  7 5.413502 -7.700466 -0.000000 -0.166676 0.273388 -0.597258
  8 6.890240 0.000002 -0.000000 -0.066502 0.063481 -0.201018
  9 8.011925 0.000004 0.000005 -0.105757 0.097211 0.259799
 10 7.210720 -0.000002 -0.000000 -0.059789 -0.062499 0.507758
 11 8.581028 -0.304903 -0.000000 0.107198 -0.274402 0.193420
 12 22.523008 2.194031 6.355708 0.000000 -0.460601 0.000000
 13 22.523005 2.194038 -6.355709 0.000000 0.435708 0.000000
 14 -3.006533 7.804720 -11.355459 0.314891 0.233264 0.946709
 15 10.384675 0.000008 0.000005 0.034273 0.190936 -1.655763
 16 22.550743 -0.000006 -0.000004 0.121283 0.013938 1.745994
 17 30.814247 -0.000015 -0.000004 2.693844 0.029346 0.676806
 18 -3.013796 7.815494 11.355459 -0.121262 -0.673168 0.901250
 19 10.374533 -0.000002 0.000007 0.101221 -0.119442 -2.354651
 20 22.550726 -0.000027 -0.000013 -0.057457 0.044130 2.557867
 21 30.814270 -0.000023 0.000002 -2.354881 0.110814 0.584622
 22 -4.250660 -0.770624 0.000001 -0.035450 0.139614 -3.074116
 23 10.363422 0.000000 0.000000 0.002205 0.170197 0.330538
 24 10.363076 0.000000 -0.000000 -0.007383 0.134787 -0.309098
 25 10.363081 -0.000004 -0.000002 0.206128 0.154553 -0.564807
 26 8.210358 -0.000006 -7.703991 0.000000 0.000000 -0.076976
 27 8.210346 -0.000002 7.704017 0.000000 0.000000 -0.083891
 28 1.854841 1.227791 -13.762345 2.536579 0.162250 1.951430
 29 10.456543 -0.000004 0.000004 0.025474 0.092637 -1.638141
 30 24.248093 0.000001 0.000007 0.036582 0.036344 1.228424
 31 26.336971 0.000019 0.000002 0.482410 -0.213429 0.847881
 32 1.854847 1.227798 13.762341 -2.623241 0.112485 1.419194
 33 10.456542 -0.000008 0.000004 0.005203 -0.084009 -1.968665
 34 24.248116 0.000002 -0.000004 -0.044928 -0.038543 1.457718
 35 26.336975 0.000000 0.000004 -0.341008 -0.062566 0.501724
time 17
  0 0.000000 0.000000 0.000000 0.000000 -0.000000 -1.570796
  1 0.000000 0.000000 0.000000 0.000000 -0.000000 0.000000
  2 -2.363353 -17.983295 26.234669 -1.421061 0.130836 1.601857
  3 4.222169 -0.467508 0.000000 -0.033792 0.022412 -0.026361
  4 4.476987 -0.000002 -0.000000 -0.121801 -0.066277 0.120345
  5 4.477083 0.000000 0.000002 -0.141884 -0.041317 -0.097104
  6 4.477077 -0.000004 -0.000002 -0.044049 -0.002702 -0.139847
  7 5.413502 -7.700466 -0.000000 -0.165665 0.261409 -0.606437
  8 6.890240 0.000002 -0.000000 -0.056615 0.066447 -0.099950
  9 8.011925 0.000004 0.000005 -0.096615 0.093441 0.302887
 10 7.210720 -0.000002 -0.000000 -0.059651 -0.060433 0.518056
 11 8.581028 -0.304903 -0.000000 0.051833 -0.253386 0.170918
 12 22.523008 2.194031 6.355708 0.000000 -0.394181 0.000000
 13 22.523005 2.194038 -6.355709 0.000000 0.374030 0.000000
 14 -3.006533 7.804720 -11.355459 0.322650 0.229236 0.971432
 15 10.384675 0.000008 0.000005 0.031621 0.191000 -1.670703
 16 22.550743 -0.000006 -0.000004 0.121587 0.013909 1.760340
 17 30.814247 -0.000015 -0.000004 2.682706 0.031948 0.646187
 18 -3.013796 7.815494 11.355459 -0.122993 -0.676008 0.961100
 19 10.374533 -0.000002 0.000007 0.101221 -0.123163 -2.375699
 20 22.550726 -0.000027 -0.000013 -0.063503 0.037966 2.570522
 21 30.814270 -0.000023 0.000002 -2.357407 0.146047 0.561919
 22 -4.250660 -0.770624 0.000001 -0.039513 0.124562 3.118322
 23 10.363422 0.000000 0.000000 0.029302 0.167141 0.457953
 24 10.363076 0.000000 -0.000000 0.020086 0.128028 -0.086669
 25 10.363081 -0.000004 -0.000002 0.213059 0.117055 -0.346995
 26 8.210358 -0.000006 -7.703991 0.000000 0.000000 -0.217952
 27 8.210346 -0.000002 7.704017 0.000000 0.000000 -0.224886
 28 1.854841 1.227791 -13.762345 2.507073 0.142191 1.876743
 29 10.456543 -0.000004 0.000004 0.019570 0.091889 -1.700535
 30 24.248093 0.000001 0.000007 0.037917 0.036869 1.264773
 31 26.336971 0.000019 0.000002 0.504379 -0.195848 0.787574
 32 1.854847 1.227798 13.762341 -2.623004 0.102853 1.442845
 33 10.456542 -0.000008 0.000004 0.001303 -0.085623 -1.925116
 34 24.248116 0.000002 -0.000004 -0.043827 -0.038411 1.428320
 35 26.336975 0.000000 0.000004 -0.337835 -0.057789 0.504889
time 18
  0 0.000000 0.000000 0.000000 0.000000 -0.000000 -1.570796
  1 0.000000 0.000000 0.000000 0.000000 -0.000000 0.000000
  2 -2.363353 -17.432497 26.844063 -1.430839 0.117353 1.600610
  3 4.222169 -0.467508 0.000000 -0.031491 0.021207 -0.024475
  4 4.476987 -0.000002 -0.000000 -0.112980 -0.064370 0.123319
  5 4.477083 0.000000 0.000002 -0.132692 -0.039508 -0.095577
  6 4.477077 -0.000004 -0.000002 -0.041640 -0.005051 -0.140439
  7 5.413502 -7.700466 -0.000000 -0.164323 0.246185 -0.610108
  8 6.890240 0.000002 -0.000000 -0.046093 0.068343 -0.000070
  9 8.011925 0.000004 0.000005 -0.088181 0.089463 0.333438
 10 7.210720 -0.000002 -0.000000 -0.058883 -0.058562 0.515830
 11 8.581028 -0.304903 -0.000000 0.027170 -0.234095 0.135868
 12 22.523008 2.194031 6.355708 0.000000 -0.328617 0.000000
 13 22.523005 2.194038 -6.355709 0.000000 0.313260 0.000000
 14 -3.006533 7.804720 -11.355459 0.329270 0.224361 0.994300
 15 10.384675 0.000008 0.000005 0.029605 0.191042 -1.682311
 16 22.550743 -0.000006 -0.000004 0.121827 0.013909 1.771357
 17 30.814247 -0.000015 -0.000004 2.672005 0.038625 0.624628
 18 -3.013796 7.815494 11.355459 -0.119888 -0.679707 1.010804
 19 10.374533 -0.000002 0.000007 0.102097 -0.126087 -2.400807
 20 22.550726 -0.000027 -0.000013 -0.069958 0.032077 2.582868
 21 30.814270 -0.000023 0.000002 -2.362844 0.178637 0.550678
 22 -4.250660 -0.770624 0.000001 -0.041527 0.106556 3.023068
 23 10.363422 0.000000 0.000000 0.048945 0.159771 0.525380
 24 10.363076 0.000000 -0.000000 0.052672 0.115301 0.185986
 25 10.363081 -0.000004 -0.000002 0.220040 0.049762 0.019229
 26 8.210358 -0.000006 -7.703991 0.000000 0.000000 -0.362630
 27 8.210346 -0.000002 7.704017 0.000000 0.000000 -0.369644
 28 1.854841 1.227791 -13.762345 2.463891 0.109846 1.768422
 29 10.456543 -0.000004 0.000004 0.011673 0.090341 -1.782554
 30 24.248093 0.000001 0.000007 0.040475 0.037717 1.332322
 31 26.336971 0.000019 0.000002 0.539748 -0.164945 0.689327
 32 1.854847 1.227798 13.762341 -2.622836 0.090951 1.473088
 33 10.456542 -0.000008 0.000004 -0.002665 -0.087098 -1.880976
 34 24.248116 0.000002 -0.000004 -0.042726 -0.038256 1.399075
 35 26.336975 0.000000 0.000004 -0.334619 -0.053632 0.508336
time 19
  0 0.000000 0.000000 0.000000 0.000000 -0.000000 -1.570796
  1 0.000000 0.000000 0.000000 0.000000 -0.000000 0.000000
  2 -2.363353 -16.889511 27.445642 -1.442438 0.096331 1.598406
  3 4.222169 -0.467508 0.000000 -0.029058 0.019724 -0.021592
  4 4.476987 -0.000002 -0.000000 -0.102841 -0.061543 0.128247
  5 4.477083 0.000000 0.000002 -0.121941 -0.036116 -0.093665
  6 4.477077 -0.000004 -0.000002 -0.038871 -0.007043 -0.141155
  7 5.413502 -7.700466 -0.000000 -0.159458 0.228157 -0.604352
  8 6.890240 0.000002 -0.000000 -0.035187 0.069153 0.099159
  9 8.011925 0.000004 0.000005 -0.081200 0.083728 0.344781
 10 7.210720 -0.000002 -0.000000 -0.055671 -0.057555 0.462732
 11 8.581028 -0.304903 -0.000000 0.030155 -0.215589 0.088445
 12 22.523008 2.194031 6.355708 0.000000 -0.263602 0.000000
 13 22.523005 2.194038 -6.355709 0.000000 0.253487 0.000000
 14 -3.006533 7.804720 -11.355459 0.336812 0.217648 1.020670
 15 10.384675 0.000008 0.000005 0.028148 0.191064 -1.690864
 16 22.550743 -0.000006 -0.000004 0.122002 0.013880 1.779408
 17 30.814247 -0.000015 -0.000004 2.658595 0.049534 0.603070
 18 -3.013796 7.815494 11.355459 -0.105225 -0.684378 1.036569
 19 10.374533 -0.000002 0.000007 0.105131 -0.126984 -2.437628
 20 22.550726 -0.000027 -0.000013 -0.076821 0.026462 2.594779
 21 30.814270 -0.000023 0.000002 -2.373930 0.204793 0.567999
 22 -4.250660 -0.770624 0.000001 -0.041898 0.086144 2.924614
 23 10.363422 0.000000 0.000000 0.057262 0.152903 0.543579
 24 10.363076 0.000000 -0.000000 0.070218 0.106588 0.338547
 25 10.363081 -0.000004 -0.000002 0.217824 0.010199 0.247968
 26 8.210358 -0.000006 -7.703991 0.000000 0.000000 -0.419802
 27 8.210346 -0.000002 7.704017 0.000000 0.000000 -0.426849
 28 1.854841 1.227791 -13.762345 2.444411 0.090997 1.712710
 29 10.456543 -0.000004 0.000004 0.010433 0.090039 -1.793496
 30 24.248093 0.000001 0.000007 0.040994 0.037878 1.345938
 31 26.336971 0.000019 0.000002 0.556932 -0.133069 0.621012
 32 1.854847 1.227798 13.762341 -2.622971 0.076668 1.510397
 33 10.456542 -0.000008 0.000004 -0.006734 -0.088406 -1.836638
 34 24.248116 0.000002 -0.000004 -0.041638 -0.038064 1.370033
 35 26.336975 0.000000 0.000004 -0.331274 -0.049847 0.512914
time 20
  0 0.000000 0.000000 0.000000 0.000000 -0.000000 -1.570796
  1 0.000000 0.000000 0.000000 0.000000 -0.000000 0.000000
  2 -2.363353 -16.362152 28.027691 -1.455283 0.069286 1.595626
  3 4.222169 -0.467508 0.000000 -0.026529 0.018000 -0.017897
  4 4.476987 -0.000002 -0.000000 -0.091420 -0.057774 0.134307
  5 4.477083 0.000000 0.000002 -0.110065 -0.031480 -0.091412
  6 4.477077 -0.000004 -0.000002 -0.035863 -0.008716 -0.141980
  7 5.413502 -7.700466 -0.000000 -0.149237 0.208244 -0.587114
  8 6.890240 0.000002 -0.000000 -0.024077 0.068878 0.197597
  9 8.011925 0.000004 0.000005 -0.074770 0.077258 0.349713
 10 7.210720 -0.000002 -0.000000 -0.049522 -0.057555 0.351709
 11 8.581028 -0.304903 -0.000000 0.035850 -0.196895 0.039270
 12 22.523008 2.194031 6.355708 0.000000 -0.199504 0.000000
 13 22.523005 2.194038 -6.355709 0.000000 0.195318 0.000000
 14 -3.006533 7.804720 -11.355459 0.344734 0.209593 1.049101
 15 10.384675 0.000008 0.000005 0.027177 0.191064 -1.696696
 16 22.550743 -0.000006 -0.000004 0.122114 0.013852 1.784795
 17 30.814247 -0.000015 -0.000004 2.642653 0.063766 0.581081
 18 -3.013796 7.815494 11.355459 -0.086031 -0.687143 1.054068
 19 10.374533 -0.000002 0.000007 0.109108 -0.126685 -2.480479
 20 22.550726 -0.000027 -0.000013 -0.084032 0.021221 2.606441
 21 30.814270 -0.000023 0.000002 -2.387962 0.228159 0.593882
 22 -4.250660 -0.770624 0.000001 -0.041551 0.064110 2.825365
 23 10.363422 0.000000 0.000000 0.055824 0.148361 0.523751
 24 10.363076 0.000000 -0.000000 0.067246 0.107726 0.317667
 25 10.363081 -0.000004 -0.000002 0.209267 0.015776 0.270922
 26 8.210358 -0.000006 -7.703991 0.000000 0.000000 -0.269484
 27 8.210346 -0.000002 7.704017 0.000000 0.000000 -0.276665
 28 1.854841 1.227791 -13.762345 2.455756 0.096178 1.732720
 29 10.456543 -0.000004 0.000004 0.014206 0.090857 -1.753333
 30 24.248093 0.000001 0.000007 0.039696 0.037535 1.311839
 31 26.336971 0.000019 0.000002 0.544838 -0.109602 0.609194
 32 1.854847 1.227798 13.762341 -2.623646 0.059949 1.555029
 33 10.456542 -0.000008 0.000004 -0.010770 -0.089519 -1.792813
 34 24.248116 0.000002 -0.000004 -0.040563 -0.037848 1.341346
 35 26.336975 0.000000 0.000004 -0.327886 -0.046466 0.518510
time 21
  0 0.000000 0.000000 0.000000 0.000000 -0.000000 -1.570796
  1 0.000000 0.000000 0.000000 0.000000 -0.000000 0.000000
  2 -2.363353 -15.854324 28.586304 -1.469087 0.037494 1.592462
  3 4.222169 -0.467508 0.000000 -0.023952 0.016109 -0.013603
  4 4.476987 -0.000002 -0.000000 -0.078992 -0.053254 0.141099
  5 4.477083 0.000000 0.000002 -0.097421 -0.025858 -0.088878
  6 4.477077 -0.000004 -0.000002 -0.032675 -0.010088 -0.142884
  7 5.413502 -7.700466 -0.000000 -0.134909 0.186801 -0.560542
  8 6.890240 0.000002 -0.000000 -0.012788 0.067532 0.296454
  9 8.011925 0.000004 0.000005 -0.068287 0.070883 0.355293
 10 7.210720 -0.000002 -0.000000 -0.042000 -0.057343 0.216737
 11 8.581028 -0.304903 -0.000000 0.041591 -0.178218 -0.007066
 12 22.523008 2.194031 6.355708 0.000000 -0.140264 0.000000
 13 22.523005 2.194038 -6.355709 0.000000 0.139085 0.000000
 14 -3.006533 7.804720 -11.355459 0.352872 0.200654 1.078837
 15 10.384675 0.000008 0.000005 0.026616 0.191085 -1.700084
 16 22.550743 -0.000006 -0.000004 0.122178 0.013852 1.787822
 17 30.814247 -0.000015 -0.000004 2.624744 0.080443 0.559021
 18 -3.013796 7.815494 11.355459 -0.068059 -0.688974 1.074759
 19 10.374533 -0.000002 0.000007 0.112006 -0.127083 -2.512313
 20 22.550726 -0.000027 -0.000013 -0.091611 0.016411 2.619345
 21 30.814270 -0.000023 0.000002 -2.403713 0.251134 0.612904
 22 -4.250660 -0.770624 0.000001 -0.040712 0.041419 2.731136
 23 10.363422 0.000000 0.000000 0.052277 0.144514 0.494857
 24 10.363076 0.000000 -0.000000 0.054278 0.112376 0.221061
 25 10.363081 -0.000004 -0.000002 0.197165 0.032877 0.243377
 26 8.210358 -0.000006 -7.703991 0.000000 0.000000 0.054250
 27 8.210346 -0.000002 7.704017 0.000000 0.000000 0.047100
 28 1.854841 1.227791 -13.762345 2.474884 0.106737 1.772071
 29 10.456543 -0.000004 0.000004 0.018574 0.091694 -1.708090
 30 24.248093 0.000001 0.000007 0.038251 0.037091 1.272647
 31 26.336971 0.000019 0.000002 0.525130 -0.088868 0.612839
 32 1.854847 1.227798 13.762341 -2.625368 0.041617 1.605304
 33 10.456542 -0.000008 0.000004 -0.014772 -0.090465 -1.750131
 34 24.248116 0.000002 -0.000004 -0.039513 -0.037608 1.313167
 35 26.336975 0.000000 0.000004 -0.324541 -0.043457 0.524839
time 22
  0 0.000000 0.000000 0.000000 0.000000 -0.000000 -1.570796
  1 0.000000 0.000000 0.000000 0.000000 -0.000000 0.000000
  2 -2.363353 -15.373840 29.117569 -1.483275 0.002271 1.589203
  3 4.222169 -0.467508 0.000000 -0.021340 0.014107 -0.008865
  4 4.476987 -0.000002 -0.000000 -0.065929 -0.048200 0.148447
  5 4.477083 0.000000 0.000002 -0.084334 -0.019526 -0.086136
  6 4.477077 -0.000004 -0.000002 -0.029367 -0.011234 -0.143865
  7 5.413502 -7.700466 -0.000000 -0.117803 0.164084 -0.526907
  8 6.890240 0.000002 -0.000000 -0.002649 0.065323 0.384768
  9 8.011925 0.000004 0.000005 -0.061791 0.064477 0.360796
 10 7.210720 -0.000002 -0.000000 -0.034067 -0.056443 0.079379
 11 8.581028 -0.304903 -0.000000 0.047470 -0.159815 -0.046847
 12 22.523008 2.194031 6.355708 0.000000 -0.088662 0.000000
 13 22.523005 2.194038 -6.355709 0.000000 0.089507 0.000000
 14 -3.006533 7.804720 -11.355459 0.361066 0.191115 1.109396
 15 10.384675 0.000008 0.000005 0.026430 0.191085 -1.701472
 16 22.550743 -0.000006 -0.000004 0.122194 0.013823 1.788851
 17 30.814247 -0.000015 -0.000004 2.605263 0.098782 0.537104
 18 -3.013796 7.815494 11.355459 -0.039446 -0.655269 1.100010
 19 10.374533 -0.000002 0.000007 0.107153 -0.133030 -2.475956
 20 22.550726 -0.000027 -0.000013 -0.098474 0.013113 2.591491
 21 30.814270 -0.000023 0.000002 -2.452545 0.260798 0.588136
 22 -4.250660 -0.770624 0.000001 -0.038219 0.019883 2.656546
 23 10.363422 0.000000 0.000000 0.049101 0.140523 0.467042
 24 10.363076 0.000000 -0.000000 0.041311 0.115948 0.127371
 25 10.363081 -0.000004 -0.000002 0.184988 0.048668 0.220879
 26 8.210358 -0.000006 -7.703991 0.000000 0.000000 0.379241
 27 8.210346 -0.000002 7.704017 0.000000 0.000000 0.372153
 28 1.854841 1.227791 -13.762345 2.493221 0.115915 1.809171
 29 10.456543 -0.000004 0.000004 0.023116 0.092388 -1.661241
 30 24.248093 0.000001 0.000007 0.036879 0.036607 1.234818
 31 26.336971 0.000019 0.000002 0.506641 -0.067977 0.614219
 32 1.854847 1.227798 13.762341 -2.628474 0.022737 1.659070
 33 10.456542 -0.000008 0.000004 -0.018604 -0.091244 -1.709025
 34 24.248116 0.000002 -0.000004 -0.038490 -0.037333 1.285394
 35 26.336975 0.000000 0.000004 -0.321325 -0.040789 0.531621
time 23
  0 0.000000 0.000000 0.000000 0.000000 -0.000000 -1.570796
  1 0.000000 0.000000 0.000000 0.000000 -0.000000 0.000000
  2 -2.363353 -14.920702 29.617584 -1.497558 -0.035066 1.586135
  3 4.222169 -0.467508 0.000000 -0.018751 0.012031 -0.003897
  4 4.476987 -0.000002 -0.000000 -0.052614 -0.042867 0.156105
  5 4.477083 0.000000 0.000002 -0.071127 -0.012758 -0.083231
  6 4.477077 -0.000004 -0.000002 -0.026012 -0.012155 -0.144877
  7 5.413502 -7.700466 -0.000000 -0.099128 0.140466 -0.488386
  8 6.890240 0.000002 -0.000000 0.003619 0.062945 0.438572
  9 8.011925 0.000004 0.000005 -0.055269 0.058071 0.366792
 10 7.210720 -0.000002 -0.000000 -0.026408 -0.055189 -0.027729
 11 8.581028 -0.304903 -0.000000 0.053509 -0.141974 -0.079444
 12 22.523008 2.194031 6.355708 0.000000 -0.044423 0.000000
 13 22.523005 2.194038 -6.355709 0.000000 0.046795 0.000000
 14 -3.006533 7.804720 -11.355459 0.369205 0.181435 1.140024
 15 10.384675 0.000008 0.000005 0.026542 0.191106 -1.701139
 16 22.550743 -0.000006 -0.000004 0.122178 0.013823 1.788246
 17 30.814247 -0.000015 -0.000004 2.584821 0.117998 0.515653
 18 -3.013796 7.815494 11.355459 0.019766 -0.550566 1.117110
 19 10.374533 -0.000002 0.000007 0.085177 -0.149409 -2.314409
 20 22.550726 -0.000027 -0.000013 -0.104071 0.010581 2.467541
 21 30.814270 -0.000023 0.000002 -2.568240 0.236772 0.511798
 22 -4.250660 -0.770624 0.000001 -0.033042 0.001990 2.620928
 23 10.363422 0.000000 0.000000 0.046392 0.136161 0.440084
 24 10.363076 0.000000 -0.000000 0.034947 0.117110 0.082230
 25 10.363081 -0.000004 -0.000002 0.172947 0.061332 0.205710
 26 8.210358 -0.000006 -7.703991 0.000000 0.000000 0.539614
 27 8.210346 -0.000002 7.704017 0.000000 0.000000 0.532442
 28 1.854841 1.227791 -13.762345 2.511690 0.124403 1.846211
 29 10.456543 -0.000004 0.000004 0.027833 0.092921 -1.612654
 30 24.248093 0.000001 0.000007 0.035544 0.036102 1.198113
 31 26.336971 0.000019 0.000002 0.488674 -0.047611 0.615269
 32 1.854847 1.227798 13.762341 -2.632931 0.003857 1.714558
 33 10.456542 -0.000008 0.000004 -0.022301 -0.091857 -1.670008
 34 24.248116 0.000002 -0.000004 -0.037479 -0.037033 1.258129
 35 26.336975 0.000000 0.000004 -0.318194 -0.038462 0.538742
time 24
  0 0.000000 0.000000 0.000000 0.000000 -0.000000 -1.570796
  1 0.000000 0.000000 0.000000 0.000000 -0.000000 0.000000
  2 -2.363353 -14.506626 30.078537 -1.511650 -0.073081 1.583355
  3 4.222169 -0.467508 0.000000 -0.016198 0.009954 0.001132
  4 4.476987 -0.000002 -0.000000 -0.039431 -0.037448 0.163830
  5 4.477083 0.000000 0.000002 -0.058171 -0.005812 -0.080296
  6 4.477077 -0.000004 -0.000002 -0.022692 -0.012925 -0.145936
  7 5.413502 -7.700466 -0.000000 -0.079988 0.116457 -0.447127
  8 6.890240 0.000002 -0.000000 0.008353 0.060069 0.470709
  9 8.011925 0.000004 0.000005 -0.048694 0.050626 0.367208
 10 7.210720 -0.000002 -0.000000 -0.020039 -0.052841 -0.080908
 11 8.581028 -0.304903 -0.000000 0.058217 -0.123946 -0.097950
 12 22.523008 2.194031 6.355708 0.000000 -0.012740 0.000000
 13 22.523005 2.194038 -6.355709 0.000000 0.013219 0.000000
 14 -3.006533 7.804720 -11.355459 0.377181 0.171966 1.170241
 15 10.384675 0.000008 0.000005 0.026915 0.191106 -1.699473
 16 22.550743 -0.000006 -0.000004 0.122130 0.013794 1.786248
 17 30.814247 -0.000015 -0.000004 2.563986 0.137371 0.494882
 18 -3.013796 7.815494 11.355459 0.080199 -0.436447 1.137630
 19 10.374533 -0.000002 0.000007 0.046619 -0.167881 -2.069479
 20 22.550726 -0.000027 -0.000013 -0.108218 0.008127 2.227891
 21 30.814270 -0.000023 0.000002 -2.701440 0.192045 0.452863
 22 -4.250660 -0.770624 0.000001 -0.026402 -0.013705 2.607050
 23 10.363422 0.000000 0.000000 0.045302 0.130600 0.416560
 24 10.363076 0.000000 -0.000000 0.034695 0.114773 0.088786
 25 10.363081 -0.000004 -0.000002 0.163024 0.061593 0.229953
 26 8.210358 -0.000006 -7.703991 0.000000 0.000000 0.504013
 27 8.210346 -0.000002 7.704017 0.000000 0.000000 0.497109
 28 1.854841 1.227791 -13.762345 2.530247 0.132224 1.883312
 29 10.456543 -0.000004 0.000004 0.032672 0.093242 -1.562679
 30 24.248093 0.000001 0.000007 0.034321 0.035578 1.163303
 31 26.336971 0.000019 0.000002 0.471577 -0.028086 0.615931
 32 1.854847 1.227798 13.762341 -2.638535 -0.014393 1.770176
 33 10.456542 -0.000008 0.000004 -0.025726 -0.092302 -1.633632
 34 24.248116 0.000002 -0.000004 -0.036521 -0.036710 1.231575
 35 26.336975 0.000000 0.000004 -0.315321 -0.036446 0.545920
time 25
  0 0.000000 0.000000 0.000000 0.000000 -0.000000 -1.570796
  1 0.000000 0.000000 0.000000 0.000000 -0.000000 0.000000
  2 -2.363353 -14.123802 30.500423 -1.525071 -0.110657 1.580958
  3 4.222169 -0.467508 0.000000 -0.013718 0.007915 0.006039
  4 4.476987 -0.000002 -0.000000 -0.026715 -0.032115 0.171443
  5 4.477083 0.000000 0.000002 -0.045755 0.001086 -0.077376
  6 4.477077 -0.000004 -0.000002 -0.019456 -0.013583 -0.147011
  7 5.413502 -7.700466 -0.000000 -0.061207 0.092619 -0.404935
  8 6.890240 0.000002 -0.000000 0.008341 0.054959 0.417558
  9 8.011925 0.000004 0.000005 -0.042001 0.038549 0.337799
 10 7.210720 -0.000002 -0.000000 -0.016224 -0.046185 -0.063343
 11 8.581028 -0.304903 -0.000000 0.054106 -0.103801 -0.043938
 12 22.523008 2.194031 6.355708 0.000000 -0.007149 0.000000
 13 22.523005 2.194038 -6.355709 0.000000 0.007109 0.000000
 14 -3.006533 7.804720 -11.355459 0.384994 0.163134 1.199495
 15 10.384675 0.000008 0.000005 0.027438 0.191106 -1.696751
 16 22.550743 -0.000006 -0.000004 0.122050 0.013766 1.783222
 17 30.814247 -0.000015 -0.000004 2.543283 0.156305 0.475150
 18 -3.013796 7.815494 11.355459 0.122406 -0.352820 1.168182
 19 10.374533 -0.000002 0.000007 0.007251 -0.177648 -1.844496
 20 22.550726 -0.000027 -0.000013 -0.111976 0.004593 1.981914
 21 30.814270 -0.000023 0.000002 -2.789948 0.161951 0.457800
 22 -4.250660 -0.770624 0.000001 -0.019235 -0.029094 2.596014
 23 10.363422 0.000000 0.000000 0.044679 0.124716 0.393695
 24 10.363076 0.000000 -0.000000 0.035331 0.111693 0.103962
 25 10.363081 -0.000004 -0.000002 0.153938 0.057311 0.291192
 26 8.210358 -0.000006 -7.703991 0.000000 0.000000 0.410324
 27 8.210346 -0.000002 7.704017 0.000000 0.000000 0.403621
 28 1.854841 1.227791 -13.762345 2.548892 0.139428 1.920534
 29 10.456543 -0.000004 0.000004 0.037284 0.093277 -1.514397
 30 24.248093 0.000001 0.000007 0.033209 0.035053 1.130860
 31 26.336971 0.000019 0.000002 0.455525 -0.009717 0.616373
 32 1.854847 1.227798 13.762341 -2.645086 -0.031576 1.824501
 33 10.456542 -0.000008 0.000004 -0.028880 -0.092636 -1.600251
 34 24.248116 0.000002 -0.000004 -0.035601 -0.036362 1.206138
 35 26.336975 0.000000 0.000004 -0.312748 -0.034708 0.552985
time 26
  0 0.000000 0.000000 0.000000 0.000000 -0.000000 -1.570796
  1 0.000000 0.000000 0.000000 0.000000 -0.000000 0.000000
  2 -2.363353 -13.791761 30.867622 -1.537437 -0.146039 1.578849
  3 4.222169 -0.467508 0.000000 -0.011345 0.005969 0.010609
  4 4.476987 -0.000002 -0.000000 -0.014982 -0.027146 0.178591
  5 4.477083 0.000000 0.000002 -0.034358 0.007595 -0.074634
  6 4.477077 -0.000004 -0.000002 -0.016412 -0.014147 -0.148085
  7 5.413502 -7.700466 -0.000000 -0.043742 0.069987 -0.364206
  8 6.890240 0.000002 -0.000000 0.007406 0.048319 0.311673
  9 8.011925 0.000004 0.000005 -0.035152 0.025577 0.298994
 10 7.210720 -0.000002 -0.000000 -0.012984 -0.038453 -0.032637
 11 8.581028 -0.304903 -0.000000 0.044944 -0.083469 0.066013
 12 22.523008 2.194031 6.355708 0.000000 -0.006141 0.000000
 13 22.523005 2.194038 -6.355709 0.000000 0.006141 0.000000
 14 -3.006533 7.804720 -11.355459 0.392645 0.155467 1.227102
 15 10.384675 0.000008 0.000005 0.028110 0.191085 -1.693364
 16 22.550743 -0.000006 -0.000004 0.121970 0.013737 1.779529
 17 30.814247 -0.000015 -0.000004 2.523540 0.173954 0.457065
 18 -3.013796 7.815494 11.355459 0.137527 -0.316125 1.210021
 19 10.374533 -0.000002 0.000007 -0.013039 -0.181701 -1.742790
 20 22.550726 -0.000027 -0.000013 -0.114469 -0.000000 1.851140
 21 30.814270 -0.000023 0.000002 -2.840464 0.152164 0.467032
 22 -4.250660 -0.770624 0.000001 -0.011709 -0.044227 2.585720
 23 10.363422 0.000000 0.000000 0.044175 0.118891 0.371183
 24 10.363076 0.000000 -0.000000 0.035822 0.108685 0.118209
 25 10.363081 -0.000004 -0.000002 0.144766 0.053474 0.357344
 26 8.210358 -0.000006 -7.703991 0.000000 0.000000 0.313509
 27 8.210346 -0.000002 7.704017 0.000000 0.000000 0.306675
 28 1.854841 1.227791 -13.762345 2.567624 0.145941 1.957695
 29 10.456543 -0.000004 0.000004 0.040411 0.093135 -1.481398
 30 24.248093 0.000001 0.000007 0.032245 0.034549 1.101793
 31 26.336971 0.000019 0.000002 0.440994 0.006970 0.616539
 32 1.854847 1.227798 13.762341 -2.652075 -0.047036 1.875251
 33 10.456542 -0.000008 0.000004 -0.031695 -0.092858 -1.570693
 34 24.248116 0.000002 -0.000004 -0.034759 -0.036026 1.182833
 35 26.336975 0.000000 0.000004 -0.310475 -0.033219 0.559654
time 27
  0 0.000000 0.000000 0.000000 0.000000 -0.000000 -1.570796
  1 0.000000 0.000000 0.000000 0.000000 -0.000000 0.000000
  2 -2.363353 -13.506596 31.184038 -1.548365 -0.177911 1.577028
  3 4.222169 -0.467508 0.000000 -0.009115 0.004208 0.014672
  4 4.476987 -0.000002 -0.000000 -0.004603 -0.022691 0.185028
  5 4.477083 0.000000 0.000002 -0.024279 0.013508 -0.072174
  6 4.477077 -0.000004 -0.000002 -0.013608 -0.014636 -0.149128
  7 5.413502 -7.700466 -0.000000 -0.028151 0.049427 -0.326712
  8 6.890240 0.000002 -0.000000 0.004686 0.040582 0.152055
  9 8.011925 0.000004 0.000005 -0.028066 0.012669 0.256139
 10 7.210720 -0.000002 -0.000000 -0.009855 -0.030420 -0.000590
 11 8.581028 -0.304903 -0.000000 0.034220 -0.063085 0.204951
 12 22.523008 2.194031 6.355708 0.000000 -0.004858 0.000000
 13 22.523005 2.194038 -6.355709 0.000000 0.004840 0.000000
 14 -3.006533 7.804720 -11.355459 0.400133 0.149319 1.252374
 15 10.384675 0.000008 0.000005 0.028820 0.191064 -1.689642
 16 22.550743 -0.000006 -0.000004 0.121890 0.013679 1.775413
 17 30.814247 -0.000015 -0.000004 2.505544 0.189722 0.441093
 18 -3.013796 7.815494 11.355459 0.138342 -0.304541 1.252998
 19 10.374533 -0.000002 0.000007 -0.015533 -0.183728 -1.735657
 20 22.550726 -0.000027 -0.000013 -0.116246 -0.002827 1.838918
 21 30.814270 -0.000023 0.000002 -2.849269 0.159945 0.455095
 22 -4.250660 -0.770624 0.000001 -0.003823 -0.059007 2.575221
 23 10.363422 0.000000 0.000000 0.043780 0.112887 0.345832
 24 10.363076 0.000000 -0.000000 0.036349 0.105665 0.133075
 25 10.363081 -0.000004 -0.000002 0.134510 0.050224 0.420193
 26 8.210358 -0.000006 -7.703991 0.000000 0.000000 0.219344
 27 8.210346 -0.000002 7.704017 0.000000 0.000000 0.212407
 28 1.854841 1.227791 -13.762345 2.583411 0.151517 1.990295
 29 10.456543 -0.000004 0.000004 0.043224 0.092904 -1.451786
 30 24.248093 0.000001 0.000007 0.031392 0.034105 1.076751
 31 26.336971 0.000019 0.000002 0.428074 0.021843 0.616649
 32 1.854847 1.227798 13.762341 -2.659030 -0.060389 1.920831
 33 10.456542 -0.000008 0.000004 -0.034103 -0.092998 -1.545312
 34 24.248116 0.000002 -0.000004 -0.034034 -0.035715 1.162270
 35 26.336975 0.000000 0.000004 -0.308632 -0.032010 0.565701
time 28
  0 0.000000 0.000000 0.000000 0.000000 -0.000000 -1.570796
  1 0.000000 0.000000 0.000000 0.000000 -0.000000 0.000000
  2 -2.363353 -13.276119 31.437952 -1.557568 -0.205076 1.575494
  3 4.222169 -0.467508 0.000000 -0.007042 0.002669 0.018030
  4 4.476987 -0.000002 -0.000000 0.004026 -0.018900 0.190511
  5 4.477083 0.000000 0.000002 -0.015878 0.018564 -0.070128
  6 4.477077 -0.000004 -0.000002 -0.011127 -0.015162 -0.150141
  7 5.413502 -7.700466 -0.000000 -0.014886 0.031943 -0.294228
  8 6.890240 0.000002 -0.000000 0.003068 0.032531 -0.013265
  9 8.011925 0.000004 0.000005 -0.020627 -0.000192 0.208717
 10 7.210720 -0.000002 -0.000000 -0.006835 -0.022051 0.033817
 11 8.581028 -0.304903 -0.000000 0.024529 -0.042854 0.349427
 12 22.523008 2.194031 6.355708 0.000000 -0.003575 0.000000
 13 22.523005 2.194038 -6.355709 0.000000 0.003600 0.000000
 14 -3.006533 7.804720 -11.355459 0.407295 0.145044 1.274761
 15 10.384675 0.000008 0.000005 0.029530 0.191021 -1.685921
 16 22.550743 -0.000006 -0.000004 0.121795 0.013651 1.771297
 17 30.814247 -0.000015 -0.000004 2.489950 0.203107 0.427735
 18 -3.013796 7.815494 11.355459 0.136305 -0.299572 1.289251
 19 10.374533 -0.000002 0.000007 -0.016477 -0.185622 -1.736585
 20 22.550726 -0.000027 -0.000013 -0.117962 -0.005477 1.837615
 21 30.814270 -0.000023 0.000002 -2.854040 0.169267 0.440814
 22 -4.250660 -0.770624 0.000001 0.004410 -0.074605 2.580701
 23 10.363422 0.000000 0.000000 0.042270 0.104642 0.273498
 24 10.363076 0.000000 -0.000000 0.035798 0.102705 0.139734
 25 10.363081 -0.000004 -0.000002 0.112447 0.049762 0.441268
 26 8.210358 -0.000006 -7.703991 0.000000 0.000000 0.184899
 27 8.210346 -0.000002 7.704017 0.000000 0.000000 0.177955
 28 1.854841 1.227791 -13.762345 2.594932 0.156180 2.016204
 29 10.456543 -0.000004 0.000004 0.045810 0.092601 -1.424388
 30 24.248093 0.000001 0.000007 0.030725 0.033701 1.056267
 31 26.336971 0.000019 0.000002 0.416502 0.035167 0.616649
 32 1.854847 1.227798 13.762341 -2.665445 -0.071306 1.959518
 33 10.456542 -0.000008 0.000004 -0.036036 -0.093109 -1.524621
 34 24.248116 0.000002 -0.000004 -0.033425 -0.035439 1.145109
 35 26.336975 0.000000 0.000004 -0.307302 -0.030986 0.570900
time 29
  0 0.000000 0.000000 0.000000 0.000000 -0.000000 -1.570796
  1 0.000000 0.000000 0.000000 0.000000 -0.000000 0.000000
  2 -2.363353 -13.104240 31.625458 -1.564662 -0.226137 1.574056
  3 4.222169 -0.467508 0.000000 -0.005161 0.001427 0.020514
  4 4.476987 -0.000002 -0.000000 0.010485 -0.015966 0.194773
  5 4.477083 0.000000 0.000002 -0.009526 0.022505 -0.068631
  6 4.477077 -0.000004 -0.000002 -0.009042 -0.015707 -0.151091
  7 5.413502 -7.700466 -0.000000 -0.004320 0.018588 -0.268527
  8 6.890240 0.000002 -0.000000 0.002625 0.024585 -0.176886
  9 8.011925 0.000004 0.000005 -0.012953 -0.012685 0.157868
 10 7.210720 -0.000002 -0.000000 -0.003788 -0.013347 0.070824
 11 8.581028 -0.304903 -0.000000 0.016607 -0.023426 0.490083
 12 22.523008 2.194031 6.355708 0.000000 -0.002353 0.000000
 13 22.523005 2.194038 -6.355709 0.000000 0.002359 0.000000
 14 -3.006533 7.804720 -11.355459 0.413209 0.142253 1.292410
 15 10.384675 0.000008 0.000005 0.030165 0.190979 -1.682589
 16 22.550743 -0.000006 -0.000004 0.121715 0.013565 1.767422
 17 30.814247 -0.000015 -0.000004 2.477545 0.213515 0.417565
 18 -3.013796 7.815494 11.355459 0.133709 -0.296806 1.319974
 19 10.374533 -0.000002 0.000007 -0.017488 -0.187548 -1.736991
 20 22.550726 -0.000027 -0.000013 -0.119616 -0.008186 1.835506
 21 30.814270 -0.000023 0.000002 -2.859302 0.178393 0.426562
 22 -4.250660 -0.770624 0.000001 0.010978 -0.106348 2.818938
 23 10.363422 0.000000 0.000000 0.031519 0.090536 0.045053
 24 10.363076 0.000000 -0.000000 0.019391 0.100116 0.020777
 25 10.363081 -0.000004 -0.000002 0.063840 0.070005 0.332402
 26 8.210358 -0.000006 -7.703991 0.000000 0.000000 0.177086
 27 8.210346 -0.000002 7.704017 0.000000 0.000000 0.170122
 28 1.854841 1.227791 -13.762345 2.603111 0.160177 2.036762
 29 10.456543 -0.000004 0.000004 0.048028 0.092281 -1.400681
 30 24.248093 0.000001 0.000007 0.030243 0.033398 1.041052
 31 26.336971 0.000019 0.000002 0.405930 0.047334 0.616594
 32 1.854847 1.227798 13.762341 -2.670712 -0.079487 1.989632
 33 10.456542 -0.000008 0.000004 -0.037528 -0.093192 -1.509133
 34 24.248116 0.000002 -0.000004 -0.032971 -0.035211 1.132060
 35 26.336975 0.000000 0.000004 -0.306487 -0.030148 0.575083
time 30
  0 0.000000 0.000000 0.000000 0.000000 -0.000000 -1.570796
  1 0.000000 0.000000 0.000000 0.000000 -0.000000 0.000000
  2 -2.363353 -12.998768 31.746555 -1.569263 -0.239780 1.572522
  3 4.222169 -0.467508 0.000000 -0.003495 0.000519 0.021925
  4 4.476987 -0.000002 -0.000000 0.014392 -0.014060 0.197525
  5 4.477083 0.000000 0.000002 -0.005559 0.025122 -0.067801
  6 4.477077 -0.000004 -0.000002 -0.007424 -0.016346 -0.151978
  7 5.413502 -7.700466 -0.000000 0.003203 0.010450 -0.251351
  8 6.890240 0.000002 -0.000000 0.002085 0.020075 -0.276952
  9 8.011925 0.000004 0.000005 -0.009888 -0.018995 0.130977
 10 7.210720 -0.000002 -0.000000 -0.001208 -0.005508 0.104748
 11 8.581028 -0.304903 -0.000000 0.010981 -0.009359 0.596704
 12 22.523008 2.194031 6.355708 0.000000 -0.001161 0.000000
 13 22.523005 2.194038 -6.355709 0.000000 0.001180 0.000000
 14 -3.006533 7.804720 -11.355459 0.416845 0.140557 1.303329
 15 10.384675 0.000008 0.000005 0.030650 0.190894 -1.679868
 16 22.550743 -0.000006 -0.000004 0.121651 0.013507 1.764154
 17 30.814247 -0.000015 -0.000004 2.469159 0.220411 0.411190
 18 -3.013796 7.815494 11.355459 0.131418 -0.294116 1.346821
 19 10.374533 -0.000002 0.000007 -0.018634 -0.189542 -1.737513
 20 22.550726 -0.000027 -0.000013 -0.121312 -0.010895 1.833211
 21 30.814270 -0.000023 0.000002 -2.864775 0.187519 0.412142
 22 -4.250660 -0.770624 0.000001 0.014298 -0.143931 -3.023851
 23 10.363422 0.000000 0.000000 0.012907 0.074045 -0.291178
 24 10.363076 0.000000 -0.000000 -0.010319 0.096964 -0.200542
 25 10.363081 -0.000004 -0.000002 -0.000883 0.107303 0.128793
 26 8.210358 -0.000006 -7.703991 0.000000 0.000000 0.174912
 27 8.210346 -0.000002 7.704017 0.000000 0.000000 0.167783
 28 1.854841 1.227791 -13.762345 2.609267 0.163631 2.053609
 29 10.456543 -0.000004 0.000004 0.049810 0.091960 -1.381924
 30 24.248093 0.000001 0.000007 0.029909 0.033197 1.031876
 31 26.336971 0.000019 0.000002 0.395925 0.058765 0.616594
 32 1.854847 1.227798 13.762341 -2.674257 -0.084631 2.009320
 33 10.456542 -0.000008 0.000004 -0.038444 -0.093304 -1.499280
 34 24.248116 0.000002 -0.000004 -0.032686 -0.035068 1.123835
 35 26.336975 0.000000 0.000004 -0.306273 -0.029466 0.577965
time 31
  0 0.000000 0.000000 0.000000 0.000000 -0.000000 -1.570796
  1 0.000000 0.000000 0.000000 0.000000 -0.000000 0.000000
  2 -2.363353 -12.959703 31.785618 -1.570988 -0.244686 1.570988
  3 4.222169 -0.467508 0.000000 -0.002069 0.000018 0.022093
  4 4.476987 -0.000002 -0.000000 0.015327 -0.013331 0.198502
  5 4.477083 0.000000 0.000002 -0.004349 0.026123 -0.067772
  6 4.477077 -0.000004 -0.000002 -0.006321 -0.017097 -0.152773
  7 5.413502 -7.700466 -0.000000 0.007297 0.008547 -0.244474
  8 6.890240 0.000002 -0.000000 0.001953 0.017148 -0.340157
  9 8.011925 0.000004 0.000005 -0.006810 -0.024538 0.104449
 10 7.210720 -0.000002 -0.000000 0.000000 0.000000 0.130654
 11 8.581028 -0.304903 -0.000000 0.007192 -0.002445 0.657761
 12 22.523008 2.194031 6.355708 0.000000 -0.000000 0.000000
 13 22.523005 2.194038 -6.355709 0.000000 -0.000000 0.000000
 14 -3.006533 7.804720 -11.355459 0.417062 0.139568 1.305664
 15 10.384675 0.000008 0.000005 0.030987 0.190809 -1.678201
 16 22.550743 -0.000006 -0.000004 0.121603 0.013421 1.761793
 17 30.814247 -0.000015 -0.000004 2.465533 0.223170 0.409113
 18 -3.013796 7.815494 11.355459 0.129381 -0.291650 1.369678
 19 10.374533 -0.000002 0.000007 -0.019780 -0.191668 -1.738151
 20 22.550726 -0.000027 -0.000013 -0.123048 -0.013506 1.830791
 21 30.814270 -0.000023 0.000002 -2.870493 0.196719 0.397555
 22 -4.250660 -0.770624 0.000001 0.016515 -0.162659 -2.777702
 23 10.363422 0.000000 0.000000 0.002661 0.066003 -0.470109
 24 10.363076 0.000000 -0.000000 -0.026810 0.095059 -0.325023
 25 10.363081 -0.000004 -0.000002 -0.034384 0.127470 0.014450
 26 8.210358 -0.000006 -7.703991 0.000000 0.000000 0.177086
 27 8.210346 -0.000002 7.704017 0.000000 0.000000 0.169444
 28 1.854841 1.227791 -13.762345 2.614544 0.166567 2.068388
 29 10.456543 -0.000004 0.000004 0.051033 0.091640 -1.369420
 30 24.248093 0.000001 0.000007 0.029835 0.033116 1.029271
 31 26.336971 0.000019 0.000002 0.386223 0.069828 0.616539
 32 1.854847 1.227798 13.762341 -2.675642 -0.086465 2.016859
 33 10.456542 -0.000008 0.000004 -0.038783 -0.093415 -1.495575
 34 24.248116 0.000002 -0.000004 -0.032583 -0.035020 1.121144
 35 26.336975 0.000000 0.000004 -0.306745 -0.028938 0.579378
end
