version 1
nodes
  0 "Chaurus" -1
  1 "NPC Root [Root]" 0
  2 "Pelvis [Pelv]" 1
  3 "Spine[Spn0]" 2
  4 "Spine[Spn1]" 3
  5 "Spine[Spn2]" 4
  6 "Ribcage[Spn3]" 5
  7 "[Neck0]" 6
  8 "[Neck1]" 7
  9 "[Neck2]" 8
 10 "[Neck3]" 9
 11 "NPC Head [Head]" 10
 12 "Head[LeftPincher]" 11
 13 "Head[RightPincher]" 11
 14 "R UpperArm[RClv]" 6
 15 "R UpperArm[RUar]" 14
 16 "R UpperArm[RLar]" 15
 17 "R UpperArm[RHnd]" 16
 18 "L UpperArm[RClv]" 6
 19 "L UpperArm[LUar]" 18
 20 "L UpperArm[LLar]" 19
 21 "L UpperArm[LHnd]" 20
 22 "Tail[Tal0]" 2
 23 "Tail[Tal1]" 22
 24 "Tail[Tal2]" 23
 25 "Tail[Tal3]" 24
 26 "[TalRightPincher]" 25
 27 "[TalLeftPincher]" 25
 28 "R Leg[RThg0]" 2
 29 "R Leg[RThg1]" 28
 30 "R Leg[RClf]" 29
 31 "R Leg[RAnkle]" 30
 32 "LLeg[RThg0]" 2
 33 "LLeg[LThg1]" 32
 34 "LLeg[LClf]" 33
 35 "LLeg[LAnkle]" 34
end
skeleton
time 0
  0 0.000000 0.000000 0.000000 0.000000 -0.000000 -1.570796
  1 0.000000 0.000000 0.000000 0.000000 -0.000000 0.000000
  2 0.000000 -12.045614 30.848091 -1.572043 -0.454626 1.572043
  3 4.222169 -0.467508 0.000000 -0.018368 -0.004876 0.146633
  4 4.476987 -0.000002 -0.000000 0.028534 -0.015302 0.598033
  5 4.477083 0.000000 0.000002 0.012909 0.028450 0.222437
  6 4.477077 -0.000004 -0.000002 -0.018569 -0.019465 -0.156121
  7 5.565850 -7.700466 -0.000000 0.014235 0.004146 0.400636
  8 6.890240 0.000002 -0.000000 -0.057466 -0.000065 0.633260
  9 8.011925 0.000004 0.000005 0.043730 0.040770 0.464649
 10 7.210720 -0.000002 -0.000000 -0.021769 -0.037075 0.235885
 11 8.581028 -0.304903 -0.000000 0.049674 -0.046269 0.985443
 12 22.523008 2.194031 6.355708 0.000000 -0.366104 0.000000
 13 22.523005 2.194038 -6.355709 0.000000 0.514809 0.000000
 14 -3.006533 7.804720 -11.355459 -0.108769 0.244958 1.499392
 15 10.384675 0.000008 0.000005 -1.088394 0.352861 -2.716899
 16 22.550743 -0.000006 -0.000004 -0.102502 -0.348917 2.485281
 17 30.814247 -0.000015 -0.000004 2.336156 -0.297925 0.171681
 18 -3.013796 7.815494 11.355459 0.107336 -0.245202 1.503344
 19 10.374533 -0.000002 0.000007 1.088507 -0.352100 -2.718161
 20 22.550726 -0.000027 -0.000013 0.102998 0.348177 2.486834
 21 30.814270 -0.000023 0.000002 -2.352706 0.301512 0.169376
 22 -4.250660 -0.770624 0.000001 0.000000 0.000000 2.915908
 23 10.363422 0.000000 0.000000 -0.000000 -0.000008 -0.514825
 24 10.363076 0.000000 -0.000000 0.000000 0.000009 -0.845736
 25 10.363081 -0.000004 -0.000002 -0.000009 -0.000015 -0.698023
 26 8.210358 -0.000006 -7.786025 -0.000195 0.244188 -0.654059
 27 8.210346 -0.000002 7.704017 0.000096 -0.226597 -0.654074
 28 1.854841 1.227791 -13.762345 2.592513 0.175647 1.640334
 29 10.456543 -0.000004 0.000004 0.011149 -0.077906 -1.792541
 30 24.248093 0.000001 0.000007 0.072246 0.012898 2.294164
 31 26.336971 0.000019 0.000002 0.469881 0.301920 -0.762678
 32 1.854847 1.227798 13.762341 -2.950170 -0.296167 1.587856
 33 10.456542 -0.000008 0.000004 0.013851 0.097880 -1.788951
 34 24.248116 0.000002 -0.000004 0.079705 0.013182 2.294861
 35 26.336975 0.000000 0.000004 -0.227968 -0.426728 -0.872535
time 1
  0 0.000000 0.000000 0.000000 0.000000 -0.000000 -1.570796
  1 0.000000 0.000000 0.000000 0.000000 -0.000000 0.000000
  2 0.000000 -12.045614 30.848091 -1.572043 -0.454626 1.572043
  3 4.222169 -0.467508 0.000000 -0.018368 -0.004876 0.146633
  4 4.476987 -0.000002 -0.000000 0.028534 -0.015302 0.598033
  5 4.477083 0.000000 0.000002 0.012909 0.028450 0.222437
  6 4.477077 -0.000004 -0.000002 -0.018569 -0.019465 -0.156121
  7 5.565850 -7.700466 -0.000000 0.014235 0.004146 0.400636
  8 6.890240 0.000002 -0.000000 -0.057466 -0.000065 0.633260
  9 8.011925 0.000004 0.000005 0.043730 0.040770 0.464649
 10 7.210720 -0.000002 -0.000000 -0.021769 -0.037075 0.235885
 11 8.581028 -0.304903 -0.000000 0.049674 -0.046269 0.985443
 12 22.523008 2.194031 6.355708 0.000000 -0.366104 0.000000
 13 22.523005 2.194038 -6.355709 0.000000 0.514809 0.000000
 14 -3.006533 7.804720 -11.355459 -0.108769 0.244958 1.499392
 15 10.384675 0.000008 0.000005 -1.088394 0.352861 -2.716899
 16 22.550743 -0.000006 -0.000004 -0.102502 -0.348917 2.485281
 17 30.814247 -0.000015 -0.000004 2.336156 -0.297925 0.171681
 18 -3.013796 7.815494 11.355459 0.107336 -0.245202 1.503344
 19 10.374533 -0.000002 0.000007 1.088507 -0.352100 -2.718161
 20 22.550726 -0.000027 -0.000013 0.102998 0.348177 2.486834
 21 30.814270 -0.000023 0.000002 -2.352706 0.301512 0.169376
 22 -4.250660 -0.770624 0.000001 0.000000 0.000000 2.915908
 23 10.363422 0.000000 0.000000 -0.000000 -0.000008 -0.514825
 24 10.363076 0.000000 -0.000000 0.000000 0.000009 -0.845736
 25 10.363081 -0.000004 -0.000002 -0.000009 -0.000015 -0.698023
 26 8.210358 -0.000006 -7.786025 -0.000195 0.244188 -0.654059
 27 8.210346 -0.000002 7.704017 0.000096 -0.226597 -0.654074
 28 1.854841 1.227791 -13.762345 2.592513 0.175647 1.640334
 29 10.456543 -0.000004 0.000004 0.011149 -0.077906 -1.792541
 30 24.248093 0.000001 0.000007 0.072246 0.012898 2.294164
 31 26.336971 0.000019 0.000002 0.469881 0.301920 -0.762678
 32 1.854847 1.227798 13.762341 -2.950170 -0.296167 1.587856
 33 10.456542 -0.000008 0.000004 0.013851 0.097880 -1.788951
 34 24.248116 0.000002 -0.000004 0.079705 0.013182 2.294861
 35 26.336975 0.000000 0.000004 -0.227968 -0.426728 -0.872535
time 2
  0 0.000000 0.000000 0.000000 0.000000 -0.000000 -1.570796
  1 0.000000 0.000000 0.000000 0.000000 -0.000000 0.000000
  2 0.000000 -12.014362 30.984814 -1.571755 -0.451155 1.571755
  3 4.222169 -0.467508 0.000000 -0.018164 -0.004802 0.145253
  4 4.476987 -0.000002 -0.000000 0.028486 -0.015238 0.593083
  5 4.477083 0.000000 0.000002 0.012526 0.028514 0.220080
  6 4.477077 -0.000004 -0.000002 -0.018366 -0.019390 -0.153240
  7 5.565850 -7.700466 -0.000000 0.014262 0.003925 0.392795
  8 6.890240 0.000002 -0.000000 -0.056891 -0.001333 0.629071
  9 8.011925 0.000004 0.000005 0.042892 0.037526 0.462027
 10 7.210720 -0.000002 -0.000000 -0.021961 -0.036917 0.241409
 11 8.581028 -0.304903 -0.000000 0.048917 -0.042428 0.980291
 12 22.523008 2.194031 6.355708 0.000000 -0.365401 0.000000
 13 22.523005 2.194038 -6.355709 0.000000 0.513720 0.000000
 14 -3.006533 7.804720 -11.355459 -0.123528 0.246690 1.464231
 15 10.384675 0.000008 0.000005 -1.077936 0.362260 -2.697183
 16 22.550743 -0.000006 -0.000004 -0.098248 -0.352763 2.472509
 17 30.814247 -0.000015 -0.000004 2.345853 -0.273944 0.194529
 18 -3.013796 7.815494 11.355459 0.102346 -0.242437 1.512977
 19 10.374533 -0.000002 0.000007 1.080216 -0.356286 -2.706332
 20 22.550726 -0.000027 -0.000013 0.097544 0.350493 2.472131
 21 30.814270 -0.000023 0.000002 -2.349935 0.303518 0.165025
 22 -4.250660 -0.770624 0.000001 0.000000 0.000000 2.933243
 23 10.363422 0.000000 0.000000 0.000000 -0.000008 -0.520811
 24 10.363076 0.000000 -0.000000 0.000000 0.000009 -0.836057
 25 10.363081 -0.000004 -0.000002 -0.000009 -0.000015 -0.703339
 26 8.210358 -0.000006 -7.786025 -0.000195 0.242388 -0.644887
 27 8.210346 -0.000002 7.704017 0.000192 -0.224307 -0.644919
 28 1.854841 1.227791 -13.762345 2.601880 0.172859 1.650673
 29 10.456543 -0.000004 0.000004 0.011062 -0.077586 -1.790239
 30 24.248093 0.000001 0.000007 0.072171 0.013039 2.287534
 31 26.336971 0.000019 0.000002 0.465878 0.298714 -0.759364
 32 1.854847 1.227798 13.762341 -2.941898 -0.291816 1.581998
 33 10.456542 -0.000008 0.000004 0.013478 0.097546 -1.792183
 34 24.248116 0.000002 -0.000004 0.079640 0.013206 2.294149
 35 26.336975 0.000000 0.000004 -0.226510 -0.429892 -0.876039
time 3
  0 0.000000 0.000000 0.000000 0.000000 -0.000000 -1.570796
  1 0.000000 0.000000 0.000000 0.000000 -0.000000 0.000000
  2 0.000000 -11.928423 31.344200 -1.571564 -0.447406 1.571564
  3 4.222169 -0.467508 0.000000 -0.017625 -0.004653 0.137970
  4 4.476987 -0.000002 -0.000000 0.028318 -0.015109 0.582162
  5 4.477083 0.000000 0.000002 0.012214 0.028595 0.218568
  6 4.477077 -0.000004 -0.000002 -0.018270 -0.019221 -0.148303
  7 5.565850 -7.700466 -0.000000 0.014328 0.003313 0.369303
  8 6.890240 0.000002 -0.000000 -0.056256 -0.002823 0.623137
  9 8.011925 0.000004 0.000005 0.042067 0.034283 0.459353
 10 7.210720 -0.000002 -0.000000 -0.022483 -0.036528 0.255783
 11 8.581028 -0.304903 -0.000000 0.048090 -0.038638 0.975139
 12 22.523008 2.194031 6.355708 0.000000 -0.363385 0.000000
 13 22.523005 2.194038 -6.355709 0.000000 0.510847 0.000000
 14 -3.006533 7.804720 -11.355459 -0.145015 0.243510 1.412382
 15 10.384675 0.000008 0.000005 -1.064564 0.375011 -2.670191
 16 22.550743 -0.000006 -0.000004 -0.089996 -0.359909 2.448901
 17 30.814247 -0.000015 -0.000004 2.364810 -0.228270 0.230591
 18 -3.013796 7.815494 11.355459 0.086920 -0.229994 1.544099
 19 10.374533 -0.000002 0.000007 1.070441 -0.361003 -2.692299
 20 22.550726 -0.000027 -0.000013 0.092008 0.352555 2.457490
 21 30.814270 -0.000023 0.000002 -2.341094 0.310369 0.145640
 22 -4.250660 -0.770624 0.000001 0.000000 0.000000 2.960462
 23 10.363422 0.000000 0.000000 0.000000 -0.000008 -0.536677
 24 10.363076 0.000000 -0.000000 0.000000 0.000009 -0.825553
 25 10.363081 -0.000004 -0.000002 -0.000009 -0.000015 -0.708655
 26 8.210358 -0.000006 -7.786025 -0.000220 0.239909 -0.634730
 27 8.210346 -0.000002 7.704017 0.000240 -0.221274 -0.634746
 28 1.854841 1.227791 -13.762345 2.612521 0.169306 1.662412
 29 10.456543 -0.000004 0.000004 0.010800 -0.076625 -1.782858
 30 24.248093 0.000001 0.000007 0.071986 0.013201 2.274450
 31 26.336971 0.000019 0.000002 0.459048 0.289990 -0.747491
 32 1.854847 1.227798 13.762341 -2.933659 -0.287384 1.576182
 33 10.456542 -0.000008 0.000004 0.012664 0.096516 -1.796163
 34 24.248116 0.000002 -0.000004 0.079057 0.013074 2.293033
 35 26.336975 0.000000 0.000004 -0.227368 -0.431878 -0.882652
time 4
  0 0.000000 0.000000 0.000000 0.000000 -0.000000 -1.570796
  1 0.000000 0.000000 0.000000 0.000000 -0.000000 0.000000
  2 0.000000 -11.795607 31.883278 -1.571468 -0.442898 1.571468
  3 4.222169 -0.467508 0.000000 -0.016858 -0.004412 0.126408
  4 4.476987 -0.000002 -0.000000 0.028031 -0.014916 0.565891
  5 4.477083 0.000000 0.000002 0.011926 0.028708 0.217605
  6 4.477077 -0.000004 -0.000002 -0.018246 -0.018995 -0.141404
  7 5.565850 -7.700466 -0.000000 0.014461 0.002362 0.333054
  8 6.890240 0.000002 -0.000000 -0.055537 -0.004522 0.615597
  9 8.011925 0.000004 0.000005 0.041255 0.031024 0.456654
 10 7.210720 -0.000002 -0.000000 -0.023196 -0.035946 0.276781
 11 8.581028 -0.304903 -0.000000 0.047171 -0.034882 0.969951
 12 22.523008 2.194031 6.355708 0.000000 -0.360146 0.000000
 13 22.523005 2.194038 -6.355709 0.000000 0.506249 0.000000
 14 -3.006533 7.804720 -11.355459 -0.167098 0.235243 1.359367
 15 10.384675 0.000008 0.000005 -1.036663 0.401532 -2.613041
 16 22.550743 -0.000006 -0.000004 -0.070517 -0.376352 2.393937
 17 30.814247 -0.000015 -0.000004 2.386562 -0.178083 0.265866
 18 -3.013796 7.815494 11.355459 0.063347 -0.209218 1.592777
 19 10.374533 -0.000002 0.000007 1.057296 -0.366651 -2.674266
 20 22.550726 -0.000027 -0.000013 0.086370 0.354439 2.442788
 21 30.814270 -0.000023 0.000002 -2.327658 0.321966 0.113789
 22 -4.250660 -0.770624 0.000001 0.000000 0.000000 2.994825
 23 10.363422 0.000000 0.000000 0.000000 -0.000008 -0.559872
 24 10.363076 0.000000 -0.000000 0.000000 0.000009 -0.814196
 25 10.363081 -0.000004 -0.000002 -0.000009 -0.000015 -0.713971
 26 8.210358 -0.000006 -7.786025 -0.000269 0.236852 -0.623690
 27 8.210346 -0.000002 7.704017 0.000264 -0.217653 -0.623726
 28 1.854841 1.227791 -13.762345 2.624174 0.164964 1.675245
 29 10.456543 -0.000004 0.000004 0.010433 -0.075077 -1.771352
 30 24.248093 0.000001 0.000007 0.071690 0.013443 2.254144
 31 26.336971 0.000019 0.000002 0.449869 0.276903 -0.727775
 32 1.854847 1.227798 13.762341 -2.925421 -0.282924 1.570323
 33 10.456542 -0.000008 0.000004 0.011579 0.094846 -1.800262
 34 24.248116 0.000002 -0.000004 0.077956 0.012811 2.289732
 35 26.336975 0.000000 0.000004 -0.231099 -0.432188 -0.887399
time 5
  0 0.000000 0.000000 0.000000 0.000000 -0.000000 -1.570796
  1 0.000000 0.000000 0.000000 0.000000 -0.000000 0.000000
  2 0.000000 -11.623726 32.559082 -1.571372 -0.437234 1.571372
  3 4.222169 -0.467508 0.000000 -0.015959 -0.004116 0.112163
  4 4.476987 -0.000002 -0.000000 0.027647 -0.014681 0.545003
  5 4.477083 0.000000 0.000002 0.011639 0.028837 0.216923
  6 4.477077 -0.000004 -0.000002 -0.018282 -0.018695 -0.132683
  7 5.561944 -7.700466 -0.000000 0.014634 0.001155 0.286910
  8 6.890240 0.000002 -0.000000 -0.054734 -0.006417 0.606544
  9 8.011925 0.000004 0.000005 0.040456 0.027781 0.453954
 10 7.210720 -0.000002 -0.000000 -0.024075 -0.035222 0.302311
 11 8.581028 -0.304903 -0.000000 0.046230 -0.031143 0.964694
 12 22.523008 2.194031 6.355708 0.000000 -0.355747 0.000000
 13 22.523005 2.194038 -6.355709 0.000000 0.500048 0.000000
 14 -3.006533 7.804720 -11.355459 -0.188314 0.218319 1.308480
 15 10.384675 0.000008 0.000005 -0.994680 0.436603 -2.530676
 16 22.550743 -0.000006 -0.000004 -0.039347 -0.399282 2.309736
 17 30.814247 -0.000015 -0.000004 2.411197 -0.123663 0.300603
 18 -3.013796 7.815494 11.355459 0.034072 -0.181417 1.654509
 19 10.374533 -0.000002 0.000007 1.038893 -0.373595 -2.650086
 20 22.550726 -0.000027 -0.000013 0.080692 0.356147 2.428147
 21 30.814270 -0.000023 0.000002 -2.311136 0.338335 0.072063
 22 -4.250660 -0.770624 0.000001 0.000000 0.000000 3.033516
 23 10.363422 0.000000 0.000000 0.000000 -0.000008 -0.587885
 24 10.363076 0.000000 -0.000000 0.000000 0.000009 -0.801988
 25 10.363081 -0.000004 -0.000002 -0.000009 -0.000015 -0.719313
 26 8.210358 -0.000006 -7.786025 -0.000366 0.233286 -0.611936
 27 8.210346 -0.000002 7.704017 0.000288 -0.213475 -0.611959
 28 1.854841 1.227791 -13.762345 2.636663 0.159906 1.688990
 29 10.456543 -0.000004 0.000004 0.010048 -0.072977 -1.756763
 30 24.248093 0.000001 0.000007 0.071282 0.013806 2.225728
 31 26.336971 0.000019 0.000002 0.438645 0.260663 -0.700990
 32 1.854847 1.227798 13.762341 -2.917250 -0.278436 1.564550
 33 10.456542 -0.000008 0.000004 0.010290 0.092592 -1.803769
 34 24.248116 0.000002 -0.000004 0.076389 0.012463 2.282726
 35 26.336975 0.000000 0.000004 -0.238218 -0.430172 -0.885251
time 6
  0 0.000000 0.000000 0.000000 0.000000 -0.000000 -1.570796
  1 0.000000 0.000000 0.000000 0.000000 -0.000000 0.000000
  2 0.000000 -11.424501 33.328636 -1.571372 -0.429974 1.571372
  3 4.222169 -0.467508 0.000000 -0.015024 -0.003782 0.096508
  4 4.476987 -0.000002 -0.000000 0.027168 -0.014445 0.520142
  5 4.477083 0.000000 0.000002 0.011315 0.028983 0.216241
  6 4.477077 -0.000004 -0.000002 -0.018366 -0.018356 -0.122281
  7 5.561944 -7.700466 -0.000000 0.014847 -0.000238 0.233828
  8 6.890240 0.000002 -0.000000 -0.053835 -0.008495 0.596165
  9 8.011925 0.000004 0.000005 0.039657 0.024522 0.451229
 10 7.210720 -0.000002 -0.000000 -0.025008 -0.034392 0.330121
 11 8.581028 -0.304903 -0.000000 0.045219 -0.027404 0.959471
 12 22.523008 2.194031 6.355708 0.000000 -0.350247 0.000000
 13 22.523005 2.194038 -6.355709 0.000000 0.492334 0.000000
 14 -3.006533 7.804720 -11.355459 -0.207196 0.190726 1.262400
 15 10.384675 0.000008 0.000005 -0.941492 0.473605 -2.430761
 16 22.550743 -0.000006 -0.000004 -0.000741 -0.422728 2.210886
 17 30.814247 -0.000015 -0.000004 2.438715 -0.065575 0.334696
 18 -3.013796 7.815494 11.355459 0.001437 -0.148085 1.725189
 19 10.374533 -0.000002 0.000007 1.013413 -0.381834 -2.618020
 20 22.550726 -0.000027 -0.000013 0.074278 0.357816 2.411521
 21 30.814270 -0.000023 0.000002 -2.293210 0.359401 0.022974
 22 -4.250660 -0.770624 0.000001 0.000000 0.000000 3.074229
 23 10.363422 0.000000 0.000000 -0.000000 -0.000008 -0.618144
 24 10.363076 0.000000 -0.000000 0.000000 0.000009 -0.788954
 25 10.363081 -0.000004 -0.000002 -0.000009 -0.000015 -0.724629
 26 8.210358 -0.000006 -7.786025 -0.000501 0.229313 -0.599571
 27 8.210346 -0.000002 7.704017 0.000336 -0.208802 -0.599582
 28 1.854841 1.227791 -13.762345 2.649723 0.154157 1.703222
 29 10.456543 -0.000004 0.000004 0.009699 -0.070326 -1.740003
 30 24.248093 0.000001 0.000007 0.070800 0.014331 2.188668
 31 26.336971 0.000019 0.000002 0.425942 0.242504 -0.667855
 32 1.854847 1.227798 13.762341 -2.909114 -0.273922 1.558561
 33 10.456542 -0.000008 0.000004 0.008968 0.089781 -1.806134
 34 24.248116 0.000002 -0.000004 0.074368 0.012080 2.270185
 35 26.336975 0.000000 0.000004 -0.249238 -0.425208 -0.871348
time 7
  0 0.000000 0.000000 0.000000 0.000000 -0.000000 -1.570796
  1 0.000000 0.000000 0.000000 0.000000 -0.000000 0.000000
  2 0.000000 -11.201838 34.141159 -1.571372 -0.420680 1.571372
  3 4.222169 -0.467508 0.000000 -0.014041 -0.003411 0.079579
  4 4.476987 -0.000002 -0.000000 0.026616 -0.014188 0.491996
  5 4.477083 0.000000 0.000002 0.010944 0.029144 0.215278
  6 4.477077 -0.000004 -0.000002 -0.018461 -0.017943 -0.110305
  7 5.558037 -7.700466 -0.000000 0.015112 -0.001767 0.176700
  8 6.890240 0.000002 -0.000000 -0.052840 -0.010704 0.584576
  9 8.011925 0.000004 0.000005 0.038858 0.021263 0.448477
 10 7.210720 -0.000002 -0.000000 -0.025914 -0.033544 0.358091
 11 8.581028 -0.304903 -0.000000 0.044163 -0.023666 0.954179
 12 22.523008 2.194031 6.355708 0.000000 -0.343709 0.000000
 13 22.523005 2.194038 -6.355709 0.000000 0.483169 0.000000
 14 -3.006533 7.804720 -11.355459 -0.223691 0.154654 1.221196
 15 10.384675 0.000008 0.000005 -0.844229 0.528959 -2.251868
 16 22.550743 -0.000006 -0.000004 0.079302 -0.458084 2.018150
 17 30.814247 -0.000015 -0.000004 2.469508 -0.003412 0.372012
 18 -3.013796 7.815494 11.355459 -0.032674 -0.111167 1.800658
 19 10.374533 -0.000002 0.000007 0.982741 -0.390339 -2.580329
 20 22.550726 -0.000027 -0.000013 0.060081 0.359995 2.373554
 21 30.814270 -0.000023 0.000002 -2.275459 0.384871 -0.030856
 22 -4.250660 -0.770624 0.000001 -0.000000 -0.000000 3.116274
 23 10.363422 0.000000 0.000000 -0.000000 -0.000008 -0.648094
 24 10.363076 0.000000 -0.000000 0.000000 0.000009 -0.775095
 25 10.363081 -0.000004 -0.000002 -0.000009 -0.000015 -0.729972
 26 8.210358 -0.000006 -7.786025 -0.000672 0.225033 -0.586696
 27 8.210346 -0.000002 7.704017 0.000431 -0.203789 -0.586731
 28 1.854841 1.227791 -13.762345 2.663135 0.147767 1.717758
 29 10.456543 -0.000004 0.000004 0.009489 -0.067194 -1.722071
 30 24.248093 0.000001 0.000007 0.070207 0.014956 2.146457
 31 26.336971 0.000019 0.000002 0.412064 0.223636 -0.629141
 32 1.854847 1.227798 13.762341 -2.900538 -0.268860 1.555503
 33 10.456542 -0.000008 0.000004 0.007713 0.086442 -1.806568
 34 24.248116 0.000002 -0.000004 0.071907 0.011672 2.250587
 35 26.336975 0.000000 0.000004 -0.264462 -0.416305 -0.840942
time 8
  0 0.000000 0.000000 0.000000 0.000000 -0.000000 -1.570796
  1 0.000000 0.000000 0.000000 0.000000 -0.000000 0.000000
  2 0.000000 -10.963549 34.957588 -1.571372 -0.408952 1.571372
  3 4.222169 -0.467508 0.000000 -0.012986 -0.003022 0.061148
  4 4.476987 -0.000002 -0.000000 0.025981 -0.013910 0.461230
  5 4.477083 0.000000 0.000002 0.010476 0.029322 0.213766
  6 4.477077 -0.000004 -0.000002 -0.018557 -0.017492 -0.096881
  7 5.554131 -7.700466 -0.000000 0.015405 -0.003364 0.118546
  8 6.890240 0.000002 -0.000000 -0.051749 -0.013057 0.571916
  9 8.011925 0.000004 0.000005 0.038086 0.018004 0.445726
 10 7.210720 -0.000002 -0.000000 -0.026737 -0.032732 0.384050
 11 8.581028 -0.304903 -0.000000 0.043084 -0.019910 0.948921
 12 22.523008 2.194031 6.355708 0.000000 -0.336255 0.000000
 13 22.523005 2.194038 -6.355709 0.000000 0.472672 0.000000
 14 -3.006533 7.804720 -11.355459 -0.237473 0.118582 1.174636
 15 10.384675 0.000008 0.000005 -0.707860 0.578181 -2.014437
 16 22.550743 -0.000006 -0.000004 0.203309 -0.480698 1.732192
 17 30.814247 -0.000015 -0.000004 2.507509 0.066180 0.441308
 18 -3.013796 7.815494 11.355459 -0.066837 -0.073015 1.877209
 19 10.374533 -0.000002 0.000007 0.951395 -0.397781 -2.542001
 20 22.550726 -0.000027 -0.000013 0.044025 0.362684 2.330500
 21 30.814270 -0.000023 0.000002 -2.259532 0.414183 -0.086917
 22 -4.250660 -0.770624 0.000001 0.000000 0.000000 -3.123689
 23 10.363422 0.000000 0.000000 0.000000 -0.000008 -0.675184
 24 10.363076 0.000000 -0.000000 0.000000 0.000009 -0.760409
 25 10.363081 -0.000004 -0.000002 -0.000009 -0.000015 -0.735287
 26 8.210358 -0.000006 -7.786025 -0.000892 0.220449 -0.573482
 27 8.210346 -0.000002 7.704017 0.000587 -0.198497 -0.573506
 28 1.854841 1.227791 -13.762345 2.676679 0.140810 1.732294
 29 10.456543 -0.000004 0.000004 0.009472 -0.063617 -1.703965
 30 24.248093 0.000001 0.000007 0.069465 0.015602 2.104247
 31 26.336971 0.000019 0.000002 0.397665 0.205189 -0.585568
 32 1.854847 1.227798 13.762341 -2.886897 -0.259830 1.579671
 33 10.456542 -0.000008 0.000004 0.006763 0.082657 -1.801720
 34 24.248116 0.000002 -0.000004 0.069044 0.011253 2.222103
 35 26.336975 0.000000 0.000004 -0.284231 -0.403152 -0.790982
time 9
  0 0.000000 0.000000 0.000000 0.000000 -0.000000 -1.570796
  1 0.000000 0.000000 0.000000 0.000000 -0.000000 0.000000
  2 0.000000 -10.717448 35.727146 -1.571372 -0.394273 1.571372
  3 4.222169 -0.467508 0.000000 -0.011836 -0.002633 0.041015
  4 4.476987 -0.000002 -0.000000 0.025286 -0.013653 0.428533
  5 4.477083 0.000000 0.000002 0.009901 0.029516 0.211410
  6 4.477077 -0.000004 -0.000002 -0.018629 -0.017003 -0.082134
  7 5.550225 -7.700466 -0.000000 0.015671 -0.004961 0.062321
  8 6.890240 0.000002 -0.000000 -0.050551 -0.015514 0.558349
  9 8.011925 0.000004 0.000005 0.037313 0.014745 0.442949
 10 7.210720 -0.000002 -0.000000 -0.027396 -0.032044 0.405772
 11 8.581028 -0.304903 -0.000000 0.042005 -0.016137 0.943594
 12 22.523008 2.194031 6.355708 0.000000 -0.327883 0.000000
 13 22.523005 2.194038 -6.355709 0.000000 0.460936 0.000000
 14 -3.006533 7.804720 -11.355459 -0.245829 0.112717 1.068673
 15 10.384675 0.000008 0.000005 -0.500896 0.606632 -1.659540
 16 22.550743 -0.000006 -0.000004 0.329075 -0.469735 1.443632
 17 30.814247 -0.000015 -0.000004 2.546297 0.127904 0.512752
 18 -3.013796 7.815494 11.355459 -0.100388 -0.036358 1.951309
 19 10.374533 -0.000002 0.000007 0.919173 -0.404093 -2.502919
 20 22.550726 -0.000027 -0.000013 0.028439 0.363960 2.289432
 21 30.814270 -0.000023 0.000002 -2.246763 0.446627 -0.142756
 22 -4.250660 -0.770624 0.000001 0.000000 0.000000 -3.079544
 23 10.363422 0.000000 0.000000 -0.000000 -0.000008 -0.696860
 24 10.363076 0.000000 -0.000000 0.000000 0.000009 -0.744897
 25 10.363081 -0.000004 -0.000002 -0.000009 -0.000015 -0.740630
 26 8.210358 -0.000006 -7.786025 -0.001148 0.215728 -0.560030
 27 8.210346 -0.000002 7.704017 0.000827 -0.192957 -0.560044
 28 1.854841 1.227791 -13.762345 2.690178 0.133359 1.746587
 29 10.456543 -0.000004 0.000004 0.009699 -0.059631 -1.686597
 30 24.248093 0.000001 0.000007 0.068650 0.016268 2.061859
 31 26.336971 0.000019 0.000002 0.383831 0.187792 -0.537742
 32 1.854847 1.227798 13.762341 -2.867652 -0.253072 1.609656
 33 10.456542 -0.000008 0.000004 0.006831 0.078427 -1.780320
 34 24.248116 0.000002 -0.000004 0.065805 0.010809 2.183109
 35 26.336975 0.000000 0.000004 -0.310218 -0.388044 -0.723840
time 10
  0 0.000000 0.000000 0.000000 0.000000 -0.000000 -1.570796
  1 0.000000 0.000000 0.000000 0.000000 -0.000000 0.000000
  2 0.000000 -10.475254 36.410759 -1.571276 -0.376601 1.571276
  3 4.222169 -0.467508 0.000000 -0.010554 -0.002243 0.018981
  4 4.476987 -0.000002 -0.000000 0.024543 -0.013417 0.394616
  5 4.477083 0.000000 0.000002 0.009170 0.029710 0.207971
  6 4.477077 -0.000004 -0.000002 -0.018665 -0.016496 -0.066202
  7 5.546318 -7.700466 -0.000000 0.015870 -0.006508 0.010265
  8 6.890240 0.000002 -0.000000 -0.049269 -0.018036 0.544898
  9 8.011925 0.000004 0.000005 0.036553 0.011486 0.440171
 10 7.210720 -0.000002 -0.000000 -0.027836 -0.031567 0.421487
 11 8.581028 -0.304903 -0.000000 0.040902 -0.012244 0.937004
 12 22.523008 2.194031 6.355708 0.000000 -0.318687 0.000000
 13 22.523005 2.194038 -6.355709 0.000000 0.448049 0.000000
 14 -3.006533 7.804720 -11.355459 -0.248976 0.109679 0.972736
 15 10.384675 0.000008 0.000005 -0.323776 0.582594 -1.357128
 16 22.550743 -0.000006 -0.000004 0.419738 -0.433547 1.214637
 17 30.814247 -0.000015 -0.000004 2.573596 0.167810 0.563211
 18 -3.013796 7.815494 11.355459 -0.133431 -0.004035 2.020394
 19 10.374533 -0.000002 0.000007 0.886142 -0.409209 -2.463083
 20 22.550726 -0.000027 -0.000013 0.015039 0.362233 2.255188
 21 30.814270 -0.000023 0.000002 -2.238414 0.481492 -0.196391
 22 -4.250660 -0.770624 0.000001 0.000000 0.000000 -3.034170
 23 10.363422 0.000000 0.000000 -0.000000 -0.000008 -0.710789
 24 10.363076 0.000000 -0.000000 0.000000 0.000009 -0.728585
 25 10.363081 -0.000004 -0.000002 -0.000009 -0.000015 -0.745973
 26 8.210358 -0.000006 -7.786025 -0.001246 0.211007 -0.545287
 27 8.210346 -0.000002 7.704017 0.000983 -0.187386 -0.545294
 28 1.854841 1.227791 -13.762345 2.703502 0.125538 1.760637
 29 10.456543 -0.000004 0.000004 0.010240 -0.055272 -1.671010
 30 24.248093 0.000001 0.000007 0.067723 0.016913 2.019352
 31 26.336971 0.000019 0.000002 0.373172 0.170291 -0.485830
 32 1.854847 1.227798 13.762341 -2.842600 -0.248776 1.631153
 33 10.456542 -0.000008 0.000004 0.007509 0.073752 -1.745205
 34 24.248116 0.000002 -0.000004 0.062204 0.010306 2.131829
 35 26.336975 0.000000 0.000004 -0.345211 -0.373898 -0.643643
time 11
  0 0.000000 0.000000 0.000000 0.000000 -0.000000 -1.570796
  1 0.000000 0.000000 0.000000 0.000000 -0.000000 0.000000
  2 0.000000 -10.236965 36.965466 -1.571276 -0.352707 1.571276
  3 4.222169 -0.467508 0.000000 -0.009115 -0.001854 -0.005154
  4 4.476987 -0.000002 -0.000000 0.023776 -0.013203 0.360232
  5 4.477083 0.000000 0.000002 0.008271 0.029936 0.203169
  6 4.477077 -0.000004 -0.000002 -0.018629 -0.015970 -0.049243
  7 5.542412 -7.700466 -0.000000 0.016069 -0.007850 -0.040048
  8 6.890240 0.000002 -0.000000 -0.047591 -0.021029 0.521743
  9 8.011925 0.000004 0.000005 0.035807 0.008195 0.438147
 10 7.210720 -0.000002 -0.000000 -0.027945 -0.031461 0.424571
 11 8.581028 -0.304903 -0.000000 0.039846 -0.008949 0.943769
 12 22.523008 2.194031 6.355708 0.000000 -0.308758 0.000000
 13 22.523005 2.194038 -6.355709 0.000000 0.434105 0.000000
 14 -3.006533 7.804720 -11.355459 -0.228737 0.103814 0.975140
 15 10.384675 0.000008 0.000005 -0.277162 0.560401 -1.286037
 16 22.550743 -0.000006 -0.000004 0.427590 -0.410646 1.165968
 17 30.814247 -0.000015 -0.000004 2.575256 0.170537 0.562208
 18 -3.013796 7.815494 11.355459 -0.165251 0.019282 2.076824
 19 10.374533 -0.000002 0.000007 0.852235 -0.413561 -2.421682
 20 22.550726 -0.000027 -0.000013 0.005724 0.356029 2.233288
 21 30.814270 -0.000023 0.000002 -2.235432 0.515086 -0.241073
 22 -4.250660 -0.770624 0.000001 0.000000 0.000000 -2.993253
 23 10.363422 0.000000 0.000000 -0.000000 -0.000008 -0.712924
 24 10.363076 0.000000 -0.000000 0.000000 0.000009 -0.711499
 25 10.363081 -0.000004 -0.000002 -0.000009 -0.000015 -0.751315
 26 8.210358 -0.000006 -7.786025 -0.002968 0.205403 -0.541143
 27 8.210346 -0.000002 7.704017 0.002649 -0.181228 -0.541123
 28 1.854841 1.227791 -13.762345 2.715199 0.117124 1.771158
 29 10.456543 -0.000004 0.000004 0.011131 -0.050610 -1.658158
 30 24.248093 0.000001 0.000007 0.066722 0.017599 1.976728
 31 26.336971 0.000019 0.000002 0.368735 0.150635 -0.429775
 32 1.854847 1.227798 13.762341 -2.811234 -0.245930 1.633135
 33 10.456542 -0.000008 0.000004 0.007442 0.068659 -1.714976
 34 24.248116 0.000002 -0.000004 0.058318 0.009683 2.068312
 35 26.336975 0.000000 0.000004 -0.390624 -0.361676 -0.554064
time 12
  0 0.000000 0.000000 0.000000 0.000000 -0.000000 -1.570796
  1 0.000000 0.000000 0.000000 0.000000 -0.000000 0.000000
  2 0.000000 -9.979145 37.383446 -1.571372 -0.300651 1.571372
  3 4.222169 -0.467508 0.000000 -0.007510 -0.001465 -0.031513
  4 4.476987 -0.000002 -0.000000 0.022901 -0.013031 0.323118
  5 4.477083 0.000000 0.000002 0.007169 0.030146 0.196573
  6 4.477077 -0.000004 -0.000002 -0.018521 -0.015425 -0.031397
  7 5.538506 -7.700466 -0.000000 0.016402 -0.008971 -0.090423
  8 6.890240 0.000002 -0.000000 -0.044499 -0.026048 0.450975
  9 8.011925 0.000004 0.000005 0.035047 0.005240 0.428828
 10 7.210720 -0.000002 -0.000000 -0.027286 -0.032114 0.401160
 11 8.581028 -0.304903 -0.000000 0.038836 -0.008267 1.017409
 12 22.523008 2.194031 6.355708 0.000000 -0.298156 0.000000
 13 22.523005 2.194038 -6.355709 0.000000 0.419252 0.000000
 14 -3.006533 7.804720 -11.355459 -0.203181 0.096395 1.009820
 15 10.384675 0.000008 0.000005 -0.318958 0.554503 -1.385564
 16 22.550743 -0.000006 -0.000004 0.381643 -0.405682 1.254286
 17 30.814247 -0.000015 -0.000004 2.564030 0.151509 0.526719
 18 -3.013796 7.815494 11.355459 -0.189078 0.027839 2.097800
 19 10.374533 -0.000002 0.000007 0.821024 -0.411834 -2.390660
 20 22.550726 -0.000027 -0.000013 0.003702 0.342700 2.233474
 21 30.814270 -0.000023 0.000002 -2.239010 0.536274 -0.264892
 22 -4.250660 -0.770624 0.000001 0.000000 0.000000 -2.974355
 23 10.363422 0.000000 0.000000 0.000000 -0.000008 -0.683172
 24 10.363076 0.000000 -0.000000 0.000000 0.000009 -0.693690
 25 10.363081 -0.000004 -0.000002 -0.000009 -0.000015 -0.756631
 26 8.210358 -0.000006 -7.786025 -0.016221 0.195962 -0.606161
 27 8.210346 -0.000002 7.704017 0.014250 -0.172563 -0.605855
 28 1.854841 1.227791 -13.762345 2.715507 0.105282 1.755649
 29 10.456543 -0.000004 0.000004 0.012372 -0.045698 -1.648388
 30 24.248093 0.000001 0.000007 0.065647 0.018265 1.934103
 31 26.336971 0.000019 0.000002 0.373216 0.126511 -0.369799
 32 1.854847 1.227798 13.762341 -2.773352 -0.242674 1.606554
 33 10.456542 -0.000008 0.000004 0.006797 0.063261 -1.688138
 34 24.248116 0.000002 -0.000004 0.054250 0.008856 1.997585
 35 26.336975 0.000000 0.000004 -0.442470 -0.348244 -0.459455
time 13
  0 0.000000 0.000000 0.000000 0.000000 -0.000000 -1.570796
  1 0.000000 0.000000 0.000000 0.000000 -0.000000 0.000000
  2 0.000000 -9.678354 37.684235 -1.571468 -0.209583 1.571468
  3 4.222169 -0.467508 0.000000 -0.005676 -0.001094 -0.060524
  4 4.476987 -0.000002 -0.000000 0.021535 -0.012817 0.271487
  5 4.477083 0.000000 0.000002 0.005886 0.030323 0.186272
  6 4.477077 -0.000004 -0.000002 -0.018306 -0.014899 -0.012647
  7 5.534599 -7.700466 -0.000000 0.016907 -0.010229 -0.132864
  8 6.890240 0.000002 -0.000000 -0.040867 -0.031864 0.349070
  9 8.011925 0.000004 0.000005 0.034130 0.003259 0.391788
 10 7.210720 -0.000002 -0.000000 -0.026353 -0.032909 0.370454
 11 8.581028 -0.304903 -0.000000 0.037573 -0.007703 1.119720
 12 22.523008 2.194031 6.355708 0.000000 -0.286913 0.000000
 13 22.523005 2.194038 -6.355709 0.000000 0.403462 0.000000
 14 -3.006533 7.804720 -11.355459 -0.178059 0.088198 1.045668
 15 10.384675 0.000008 0.000005 -0.372333 0.545147 -1.510583
 16 22.550743 -0.000006 -0.000004 0.327540 -0.398392 1.364819
 17 30.814247 -0.000015 -0.000004 2.553503 0.131289 0.490728
 18 -3.013796 7.815494 11.355459 -0.199617 0.019319 2.067875
 19 10.374533 -0.000002 0.000007 0.802419 -0.390505 -2.403822
 20 22.550726 -0.000027 -0.000013 0.010116 0.321027 2.261329
 21 30.814270 -0.000023 0.000002 -2.253323 0.533314 -0.264669
 22 -4.250660 -0.770624 0.000001 0.000000 0.000000 -2.960323
 23 10.363422 0.000000 0.000000 -0.000000 -0.000008 -0.591406
 24 10.363076 0.000000 -0.000000 0.000000 0.000009 -0.675907
 25 10.363081 -0.000004 -0.000002 -0.000009 -0.000015 -0.761974
 26 8.210358 -0.000006 -7.786025 -0.043959 0.184041 -0.746831
 27 8.210346 -0.000002 7.704017 0.037727 -0.162071 -0.745765
 28 1.854841 1.227791 -13.762345 2.699545 0.087444 1.702979
 29 10.456543 -0.000004 0.000004 0.013822 -0.040502 -1.640356
 30 24.248093 0.000001 0.000007 0.064460 0.018931 1.891122
 31 26.336971 0.000019 0.000002 0.386745 0.096212 -0.306234
 32 1.854847 1.227798 13.762341 -2.731654 -0.236874 1.558346
 33 10.456542 -0.000008 0.000004 0.005678 0.057500 -1.663663
 34 24.248116 0.000002 -0.000004 0.050117 0.007813 1.925742
 35 26.336975 0.000000 0.000004 -0.494658 -0.330127 -0.363998
time 14
  0 0.000000 0.000000 0.000000 0.000000 -0.000000 -1.570796
  1 0.000000 0.000000 0.000000 0.000000 -0.000000 0.000000
  2 0.000000 -9.346313 37.879555 -1.571468 -0.118116 1.571468
  3 4.222169 -0.467508 0.000000 -0.003603 -0.000705 -0.092265
  4 4.476987 -0.000002 -0.000000 0.019486 -0.012646 0.199212
  5 4.477083 0.000000 0.000002 0.004496 0.030372 0.170531
  6 4.477077 -0.000004 -0.000002 -0.017982 -0.014391 0.006757
  7 5.530693 -7.700466 -0.000000 0.017399 -0.011452 -0.154396
  8 6.890240 0.000002 -0.000000 -0.035990 -0.037458 0.232341
  9 8.011925 0.000004 0.000005 0.033148 0.001869 0.330116
 10 7.210720 -0.000002 -0.000000 -0.025228 -0.033668 0.338005
 11 8.581028 -0.304903 -0.000000 0.036218 -0.006850 1.175344
 12 22.523008 2.194031 6.355708 0.000000 -0.275090 0.000000
 13 22.523005 2.194038 -6.355709 0.000000 0.386886 0.000000
 14 -3.006533 7.804720 -11.355459 -0.148487 0.078835 1.094082
 15 10.384675 0.000008 0.000005 -0.418499 0.528895 -1.626938
 16 22.550743 -0.000006 -0.000004 0.276987 -0.385507 1.470267
 17 30.814247 -0.000015 -0.000004 2.543763 0.109001 0.453627
 18 -3.013796 7.815494 11.355459 -0.198497 -0.019169 1.976960
 19 10.374533 -0.000002 0.000007 0.785769 -0.365256 -2.427074
 20 22.550726 -0.000027 -0.000013 0.016775 0.298373 2.291852
 21 30.814270 -0.000023 0.000002 -2.271109 0.489077 -0.209277
 22 -4.250660 -0.770624 0.000001 0.000000 0.000000 -2.945728
 23 10.363422 0.000000 0.000000 0.000000 -0.000008 -0.461086
 24 10.363076 0.000000 -0.000000 0.000000 0.000009 -0.648910
 25 10.363081 -0.000004 -0.000002 -0.000009 -0.000015 -0.767343
 26 8.210358 -0.000006 -7.786025 -0.075350 0.170218 -0.910465
 27 8.210346 -0.000002 7.704017 0.064058 -0.149878 -0.908597
 28 1.854841 1.227791 -13.762345 2.683055 0.067731 1.646720
 29 10.456543 -0.000004 0.000004 0.015394 -0.035110 -1.632063
 30 24.248093 0.000001 0.000007 0.063237 0.019597 1.848024
 31 26.336971 0.000019 0.000002 0.403016 0.062864 -0.241288
 32 1.854847 1.227798 13.762341 -2.691577 -0.228391 1.510354
 33 10.456542 -0.000008 0.000004 0.004118 0.051489 -1.640884
 34 24.248116 0.000002 -0.000004 0.046063 0.006591 1.859635
 35 26.336975 0.000000 0.000004 -0.540200 -0.305589 -0.273176
time 15
  0 0.000000 0.000000 0.000000 0.000000 -0.000000 -1.570796
  1 0.000000 0.000000 0.000000 0.000000 -0.000000 0.000000
  2 0.000000 -9.002552 37.988934 -1.571180 -0.035185 1.571372
  3 4.222169 -0.467508 0.000000 -0.001194 -0.000297 -0.127946
  4 4.476987 -0.000002 -0.000000 0.017304 -0.012667 0.125717
  5 4.477083 0.000000 0.000002 0.003046 0.030323 0.150507
  6 4.477077 -0.000004 -0.000002 -0.017527 -0.013865 0.027453
  7 5.522880 -7.700466 -0.000000 0.017266 -0.012098 -0.146151
  8 6.890240 0.000002 -0.000000 -0.029902 -0.042752 0.106047
  9 8.011925 0.000004 0.000005 0.032493 0.002812 0.207133
 10 7.210720 -0.000002 -0.000000 -0.023992 -0.034374 0.303867
 11 8.581028 -0.304903 -0.000000 0.035161 -0.004681 1.125328
 12 22.523008 2.194031 6.355708 0.000000 -0.262808 0.000000
 13 22.523005 2.194038 -6.355709 0.000000 0.369614 0.000000
 14 -3.006533 7.804720 -11.355459 -0.104808 0.066222 1.173537
 15 10.384675 0.000008 0.000005 -0.457270 0.506511 -1.736351
 16 22.550743 -0.000006 -0.000004 0.230449 -0.368059 1.572144
 17 30.814247 -0.000015 -0.000004 2.529480 0.086744 0.412264
 18 -3.013796 7.815494 11.355459 -0.195239 -0.049735 1.886329
 19 10.374533 -0.000002 0.000007 0.762243 -0.346950 -2.433859
 20 22.550726 -0.000027 -0.000013 0.018818 0.278349 2.309036
 21 30.814270 -0.000023 0.000002 -2.280054 0.429353 -0.153299
 22 -4.250660 -0.770624 0.000001 0.000000 0.000000 -2.929366
 23 10.363422 0.000000 0.000000 -0.000000 -0.000008 -0.338359
 24 10.363076 0.000000 -0.000000 0.000000 0.000009 -0.591613
 25 10.363081 -0.000004 -0.000002 -0.000009 -0.000015 -0.774055
 26 8.210358 -0.000006 -7.786025 -0.101611 0.155886 -1.054294
 27 8.210346 -0.000002 7.704017 0.086217 -0.136230 -1.052066
 28 1.854841 1.227791 -13.762345 2.671490 0.050682 1.604693
 29 10.456543 -0.000004 0.000004 0.016949 -0.029541 -1.621512
 30 24.248093 0.000001 0.000007 0.061940 0.020263 1.804807
 31 26.336971 0.000019 0.000002 0.413674 0.031987 -0.176784
 32 1.854847 1.227798 13.762341 -2.656531 -0.217720 1.471710
 33 10.456542 -0.000008 0.000004 0.002219 0.045228 -1.618932
 34 24.248116 0.000002 -0.000004 0.042138 0.005284 1.804750
 35 26.336975 0.000000 0.000004 -0.572448 -0.274257 -0.191622
time 16
  0 0.000000 0.000000 0.000000 0.000000 -0.000000 -1.570796
  1 0.000000 0.000000 0.000000 0.000000 -0.000000 0.000000
  2 0.000000 -8.647072 38.020184 -1.570413 0.006021 1.571372
  3 4.222169 -0.467508 0.000000 0.001035 0.000018 -0.157970
  4 4.476987 -0.000002 -0.000000 0.015806 -0.012860 0.078259
  5 4.477083 0.000000 0.000002 0.001560 0.030178 0.127282
  6 4.477077 -0.000004 -0.000002 -0.016832 -0.013546 0.042217
  7 5.518974 -7.700466 -0.000000 0.016734 -0.013338 -0.128602
  8 6.890240 0.000002 -0.000000 -0.023346 -0.047378 -0.020013
  9 8.011925 0.000004 0.000005 0.031786 0.004697 0.050953
 10 7.210720 -0.000002 -0.000000 -0.022647 -0.034975 0.268682
 11 8.581028 -0.304903 -0.000000 0.034013 -0.001199 1.025015
 12 22.523008 2.194031 6.355708 0.000000 -0.250098 0.000000
 13 22.523005 2.194038 -6.355709 0.000000 0.351736 0.000000
 14 -3.006533 7.804720 -11.355459 -0.057168 0.050854 1.260546
 15 10.384675 0.000008 0.000005 -0.489728 0.479482 -1.840543
 16 22.550743 -0.000006 -0.000004 0.189028 -0.346966 1.669178
 17 30.814247 -0.000015 -0.000004 2.500870 0.068092 0.361698
 18 -3.013796 7.815494 11.355459 -0.185718 -0.074323 1.791196
 19 10.374533 -0.000002 0.000007 0.727594 -0.339541 -2.412288
 20 22.550726 -0.000027 -0.000013 0.012833 0.264215 2.299544
 21 30.814270 -0.000023 0.000002 -2.297840 0.336598 -0.067393
 22 -4.250660 -0.770624 0.000001 0.000000 0.000000 -2.927087
 23 10.363422 0.000000 0.000000 0.000000 -0.000008 -0.222629
 24 10.363076 0.000000 -0.000000 0.000000 0.000009 -0.508660
 25 10.363081 -0.000004 -0.000002 -0.000009 -0.000015 -0.770001
 26 8.210358 -0.000006 -7.786025 -0.112616 0.148347 -1.113130
 27 8.210346 -0.000002 7.704017 0.095709 -0.126049 -1.111136
 28 1.854841 1.227791 -13.762345 2.673337 0.047450 1.612843
 29 10.456543 -0.000004 0.000004 0.018399 -0.023847 -1.606445
 30 24.248093 0.000001 0.000007 0.060568 0.020929 1.761353
 31 26.336971 0.000019 0.000002 0.410542 0.010412 -0.114103
 32 1.854847 1.227798 13.762341 -2.639515 -0.207760 1.474467
 33 10.456542 -0.000008 0.000004 0.000048 0.038799 -1.596980
 34 24.248116 0.000002 -0.000004 0.038238 0.003894 1.757734
 35 26.336975 0.000000 0.000004 -0.586042 -0.237155 -0.122729
time 17
  0 0.000000 0.000000 0.000000 0.000000 -0.000000 -1.570796
  1 0.000000 0.000000 0.000000 0.000000 -0.000000 0.000000
  2 0.000000 -8.287687 37.973309 -1.570221 0.005263 1.571372
  3 4.222169 -0.467508 0.000000 0.002150 0.000018 -0.165299
  4 4.476987 -0.000002 -0.000000 0.014979 -0.013096 0.055884
  5 4.477083 0.000000 0.000002 0.000074 0.029936 0.101922
  6 4.477077 -0.000004 -0.000002 -0.015813 -0.013640 0.039445
  7 5.511161 -7.700466 -0.000000 0.016043 -0.015564 -0.107723
  8 6.890240 0.000002 -0.000000 -0.016754 -0.051469 -0.138558
  9 8.011925 0.000004 0.000005 0.030856 0.006534 -0.092120
 10 7.210720 -0.000002 -0.000000 -0.021247 -0.035451 0.233123
 11 8.581028 -0.304903 -0.000000 0.032658 0.003052 0.927190
 12 22.523008 2.194031 6.355708 0.000000 -0.237022 0.000000
 13 22.523005 2.194038 -6.355709 0.000000 0.333375 0.000000
 14 -3.006533 7.804720 -11.355459 -0.008172 0.037994 1.343847
 15 10.384675 0.000008 0.000005 -0.510682 0.449884 -1.930184
 16 22.550743 -0.000006 -0.000004 0.152964 -0.323118 1.761309
 17 30.814247 -0.000015 -0.000004 2.467018 0.049001 0.308804
 18 -3.013796 7.815494 11.355459 -0.170342 -0.087850 1.699824
 19 10.374533 -0.000002 0.000007 0.682632 -0.341468 -2.363291
 20 22.550726 -0.000027 -0.000013 -0.000016 0.254909 2.264493
 21 30.814270 -0.000023 0.000002 -2.320888 0.241640 0.012153
 22 -4.250660 -0.770624 0.000001 0.000000 0.000000 -2.984725
 23 10.363422 0.000000 0.000000 0.000000 -0.000008 -0.113875
 24 10.363076 0.000000 -0.000000 0.000000 0.000009 -0.371223
 25 10.363081 -0.000004 -0.000002 -0.000009 -0.000015 -0.720387
 26 8.210358 -0.000006 -7.786025 -0.111090 0.145936 -1.091729
 27 8.210346 -0.000002 7.704017 0.094187 -0.120664 -1.089773
 28 1.854841 1.227791 -13.762345 2.674963 0.053618 1.641063
 29 10.456543 -0.000004 0.000004 0.019727 -0.018063 -1.586820
 30 24.248093 0.000001 0.000007 0.059159 0.021574 1.718729
 31 26.336971 0.000019 0.000002 0.396664 0.003002 -0.053078
 32 1.854847 1.227798 13.762341 -2.641541 -0.200373 1.520865
 33 10.456542 -0.000008 0.000004 -0.002326 0.032176 -1.574279
 34 24.248116 0.000002 -0.000004 0.034261 0.002324 1.709094
 35 26.336975 0.000000 0.000004 -0.584970 -0.198409 -0.062256
time 18
  0 0.000000 0.000000 0.000000 0.000000 -0.000000 -1.570796
  1 0.000000 0.000000 0.000000 0.000000 -0.000000 0.000000
  2 0.000000 -7.904862 37.856117 -1.570221 0.006220 1.571372
  3 4.222169 -0.467508 0.000000 0.002821 -0.000075 -0.163582
  4 4.476987 -0.000002 -0.000000 0.014152 -0.013267 0.036195
  5 4.477083 0.000000 0.000002 -0.001365 0.029613 0.075495
  6 4.477077 -0.000004 -0.000002 -0.014734 -0.013865 0.030443
  7 5.507255 -7.700466 -0.000000 0.015139 -0.018571 -0.083547
  8 6.890240 0.000002 -0.000000 -0.011613 -0.055639 -0.214120
  9 8.011925 0.000004 0.000005 0.029690 0.006326 -0.170431
 10 7.210720 -0.000002 -0.000000 -0.019820 -0.035769 0.197429
 11 8.581028 -0.304903 -0.000000 0.032107 0.009318 0.876193
 12 22.523008 2.194031 6.355708 0.000000 -0.223671 0.000000
 13 22.523005 2.194038 -6.355709 0.000000 0.314621 0.000000
 14 -3.006533 7.804720 -11.355459 0.044894 0.031175 1.424194
 15 10.384675 0.000008 0.000005 -0.511840 0.420903 -1.990610
 16 22.550743 -0.000006 -0.000004 0.122066 -0.297261 1.848839
 17 30.814247 -0.000015 -0.000004 2.433255 0.027277 0.257307
 18 -3.013796 7.815494 11.355459 -0.150028 -0.085421 1.620252
 19 10.374533 -0.000002 0.000007 0.632411 -0.346884 -2.299623
 20 22.550726 -0.000027 -0.000013 -0.016582 0.247037 2.211761
 21 30.814270 -0.000023 0.000002 -2.351689 0.148298 0.088854
 22 -4.250660 -0.770624 0.000001 0.000000 0.000000 -3.092731
 23 10.363422 0.000000 0.000000 0.000000 -0.000008 -0.011899
 24 10.363076 0.000000 -0.000000 0.000000 0.000009 -0.189057
 25 10.363081 -0.000004 -0.000002 -0.000009 -0.000015 -0.615710
 26 8.210358 -0.000006 -7.786025 -0.102967 0.145019 -1.022498
 27 8.210346 -0.000002 7.704017 0.087511 -0.117538 -1.020565
 28 1.854841 1.227791 -13.762345 2.670830 0.064375 1.670075
 29 10.456543 -0.000004 0.000004 0.021299 -0.012156 -1.576225
 30 24.248093 0.000001 0.000007 0.057899 0.022160 1.684806
 31 26.336971 0.000019 0.000002 0.392140 0.003895 0.008555
 32 1.854847 1.227798 13.762341 -2.643397 -0.193040 1.566790
 33 10.456542 -0.000008 0.000004 -0.004869 0.025441 -1.549923
 34 24.248116 0.000002 -0.000004 0.030259 0.000610 1.658372
 35 26.336975 0.000000 0.000004 -0.579052 -0.162393 -0.002348
time 19
  0 0.000000 0.000000 0.000000 0.000000 -0.000000 -1.570796
  1 0.000000 0.000000 0.000000 0.000000 -0.000000 0.000000
  2 0.000000 -7.514225 37.668610 -1.570221 0.007377 1.571372
  3 4.222169 -0.467508 0.000000 0.003528 -0.000112 -0.162539
  4 4.476987 -0.000002 -0.000000 0.013350 -0.013417 0.018659
  5 4.477083 0.000000 0.000002 -0.002743 0.029241 0.049112
  6 4.477077 -0.000004 -0.000002 -0.013692 -0.014034 0.022408
  7 5.499442 -7.700466 -0.000000 0.014023 -0.022258 -0.056695
  8 6.890240 0.000002 -0.000000 -0.008557 -0.060305 -0.242534
  9 8.011925 0.000004 0.000005 0.028289 0.001853 -0.192105
 10 7.210720 -0.000002 -0.000000 -0.018283 -0.036104 0.158356
 11 8.581028 -0.304903 -0.000000 0.032658 0.017871 0.874896
 12 22.523008 2.194031 6.355708 0.000000 -0.210136 0.000000
 13 22.523005 2.194038 -6.355709 0.000000 0.295594 0.000000
 14 -3.006533 7.804720 -11.355459 0.102518 0.031422 1.502619
 15 10.384675 0.000008 0.000005 -0.504033 0.393067 -2.038597
 16 22.550743 -0.000006 -0.000004 0.096014 -0.270027 1.932132
 17 30.814247 -0.000015 -0.000004 2.398967 0.003108 0.207385
 18 -3.013796 7.815494 11.355459 -0.130427 -0.069801 1.557893
 19 10.374533 -0.000002 0.000007 0.579292 -0.351003 -2.229808
 20 22.550726 -0.000027 -0.000013 -0.036212 0.239715 2.143521
 21 30.814270 -0.000023 0.000002 -2.384383 0.066529 0.158303
 22 -4.250660 -0.770624 0.000001 0.000000 0.000000 3.072206
 23 10.363422 0.000000 0.000000 0.000000 -0.000008 0.080857
 24 10.363076 0.000000 -0.000000 0.000000 0.000009 -0.016054
 25 10.363081 -0.000004 -0.000002 -0.000009 -0.000015 -0.475835
 26 8.210358 -0.000006 -7.786025 -0.089763 0.144271 -0.915356
 27 8.210346 -0.000002 7.704017 0.076833 -0.115031 -0.913412
 28 1.854841 1.227791 -13.762345 2.666477 0.075897 1.699634
 29 10.456543 -0.000004 0.000004 0.023238 -0.006034 -1.581175
 30 24.248093 0.000001 0.000007 0.056824 0.022684 1.661066
 31 26.336971 0.000019 0.000002 0.397360 0.005761 0.071070
 32 1.854847 1.227798 13.762341 -2.645051 -0.185625 1.612887
 33 10.456542 -0.000008 0.000004 -0.007548 0.018596 -1.523163
 34 24.248116 0.000002 -0.000004 0.026282 -0.001199 1.605162
 35 26.336975 0.000000 0.000004 -0.569360 -0.129169 0.057503
time 20
  0 0.000000 0.000000 0.000000 0.000000 -0.000000 -1.570796
  1 0.000000 0.000000 0.000000 0.000000 -0.000000 0.000000
  2 0.000000 -7.111869 37.422508 -1.570221 0.008454 1.571372
  3 4.222169 -0.467508 0.000000 0.004199 -0.000149 -0.161144
  4 4.476987 -0.000002 -0.000000 0.012571 -0.013503 0.003476
  5 4.477083 0.000000 0.000002 -0.004001 0.028837 0.023826
  6 4.477077 -0.000004 -0.000002 -0.012697 -0.014185 0.014621
  7 5.495535 -7.700466 -0.000000 0.012693 -0.026489 -0.027882
  8 6.890240 0.000002 -0.000000 -0.005717 -0.064918 -0.267341
  9 8.011925 0.000004 0.000005 0.026770 -0.004329 -0.200956
 10 7.210720 -0.000002 -0.000000 -0.016498 -0.036616 0.112633
 11 8.581028 -0.304903 -0.000000 0.033233 0.026543 0.874756
 12 22.523008 2.194031 6.355708 0.000000 -0.196449 0.000000
 13 22.523005 2.194038 -6.355709 0.000000 0.276356 0.000000
 14 -3.006533 7.804720 -11.355459 0.162909 0.034708 1.580289
 15 10.384675 0.000008 0.000005 -0.494135 0.365867 -2.085361
 16 22.550743 -0.000006 -0.000004 0.074232 -0.241760 2.012157
 17 30.814247 -0.000015 -0.000004 2.364067 -0.023412 0.159612
 18 -3.013796 7.815494 11.355459 -0.124725 -0.058815 1.511495
 19 10.374533 -0.000002 0.000007 0.525701 -0.351402 -2.160052
 20 22.550726 -0.000027 -0.000013 -0.056108 0.231274 2.070999
 21 30.814270 -0.000023 0.000002 -2.412483 0.003966 0.215508
 22 -4.250660 -0.770624 0.000001 0.000000 0.000000 2.968400
 23 10.363422 0.000000 0.000000 0.000000 -0.000008 0.143728
 24 10.363076 0.000000 -0.000000 0.000000 0.000009 0.132069
 25 10.363081 -0.000004 -0.000002 -0.000009 -0.000015 -0.300764
 26 8.210358 -0.000006 -7.786025 -0.068278 0.143728 -0.748088
 27 8.210346 -0.000002 7.704017 0.060606 -0.112803 -0.746578
 28 1.854841 1.227791 -13.762345 2.662343 0.087740 1.729740
 29 10.456543 -0.000004 0.000004 0.025073 0.000212 -1.579048
 30 24.248093 0.000001 0.000007 0.055526 0.023249 1.631643
 31 26.336971 0.000019 0.000002 0.403103 0.009019 0.132758
 32 1.854847 1.227798 13.762341 -2.646672 -0.178182 1.659328
 33 10.456542 -0.000008 0.000004 -0.010295 0.011694 -1.493092
 34 24.248116 0.000002 -0.000004 0.022408 -0.003045 1.549007
 35 26.336975 0.000000 0.000004 -0.556839 -0.098768 0.117580
time 21
  0 0.000000 0.000000 0.000000 0.000000 -0.000000 -1.570796
  1 0.000000 0.000000 0.000000 0.000000 -0.000000 0.000000
  2 0.000000 -6.717326 37.129532 -1.570221 0.009491 1.571372
  3 4.222169 -0.467508 0.000000 0.004811 -0.000149 -0.159396
  4 4.476987 -0.000002 -0.000000 0.011851 -0.013567 -0.009377
  5 4.477083 0.000000 0.000002 -0.005140 0.028433 0.000793
  6 4.477077 -0.000004 -0.000002 -0.011762 -0.014297 0.007177
  7 5.487723 -7.700466 -0.000000 0.011165 -0.031145 0.002144
  8 6.890240 0.000002 -0.000000 -0.002960 -0.069454 -0.289449
  9 8.011925 0.000004 0.000005 0.025316 -0.010464 -0.210871
 10 7.210720 -0.000002 -0.000000 -0.014522 -0.037270 0.062109
 11 8.581028 -0.304903 -0.000000 0.033830 0.035148 0.874580
 12 22.523008 2.194031 6.355708 0.000000 -0.182731 0.000000
 13 22.523005 2.194038 -6.355709 0.000000 0.257057 0.000000
 14 -3.006533 7.804720 -11.355459 0.224114 0.036545 1.657065
 15 10.384675 0.000008 0.000005 -0.481735 0.339580 -2.129626
 16 22.550743 -0.000006 -0.000004 0.058768 -0.214726 2.083586
 17 30.814247 -0.000015 -0.000004 2.328512 -0.052284 0.114704
 18 -3.013796 7.815494 11.355459 -0.130325 -0.051753 1.482482
 19 10.374533 -0.000002 0.000007 0.470156 -0.351003 -2.082642
 20 22.550726 -0.000027 -0.000013 -0.075453 0.221596 1.997981
 21 30.814270 -0.000023 0.000002 -2.437004 -0.044748 0.263900
 22 -4.250660 -0.770624 0.000001 0.000000 0.000000 2.918955
 23 10.363422 0.000000 0.000000 0.000000 -0.000008 0.172006
 24 10.363076 0.000000 -0.000000 0.000000 0.000009 0.240496
 25 10.363081 -0.000004 -0.000002 -0.000009 -0.000015 -0.064454
 26 8.210358 -0.000006 -7.786025 -0.033284 0.143864 -0.479589
 27 8.210346 -0.000002 7.704017 0.034576 -0.110915 -0.479137
 28 1.854841 1.227791 -13.762345 2.658781 0.099632 1.760393
 29 10.456543 -0.000004 0.000004 0.026715 0.006458 -1.553127
 30 24.248093 0.000001 0.000007 0.053635 0.023875 1.580257
 31 26.336971 0.000019 0.000002 0.408758 0.012383 0.192844
 32 1.854847 1.227798 13.762341 -2.648158 -0.170685 1.705899
 33 10.456542 -0.000008 0.000004 -0.013144 0.004793 -1.459239
 34 24.248116 0.000002 -0.000004 0.018664 -0.004902 1.489501
 35 26.336975 0.000000 0.000004 -0.542473 -0.071314 0.177771
time 22
  0 0.000000 0.000000 0.000000 0.000000 -0.000000 -1.570796
  1 0.000000 0.000000 0.000000 0.000000 -0.000000 0.000000
  2 0.000000 -6.334502 36.793587 -1.570221 0.010489 1.571372
  3 4.222169 -0.467508 0.000000 0.005350 -0.000149 -0.157310
  4 4.476987 -0.000002 -0.000000 0.011228 -0.013610 -0.019965
  5 4.477083 0.000000 0.000002 -0.006110 0.028046 -0.019008
  6 4.477077 -0.000004 -0.000002 -0.010899 -0.014391 0.000061
  7 5.483816 -7.700466 -0.000000 0.009450 -0.036106 0.032762
  8 6.890240 0.000002 -0.000000 -0.000336 -0.073910 -0.308625
  9 8.011925 0.000004 0.000005 0.023915 -0.016726 -0.220138
 10 7.210720 -0.000002 -0.000000 -0.012408 -0.037958 0.008394
 11 8.581028 -0.304903 -0.000000 0.034450 0.043752 0.874826
 12 22.523008 2.194031 6.355708 0.000000 -0.169044 0.000000
 13 22.523005 2.194038 -6.355709 0.000000 0.237788 0.000000
 14 -3.006533 7.804720 -11.355459 0.285808 0.036616 1.732331
 15 10.384675 0.000008 0.000005 -0.466944 0.314268 -2.171836
 16 22.550743 -0.000006 -0.000004 0.051203 -0.191567 2.140668
 17 30.814247 -0.000015 -0.000004 2.292913 -0.083130 0.073592
 18 -3.013796 7.815494 11.355459 -0.135162 -0.038189 1.464470
 19 10.374533 -0.000002 0.000007 0.410296 -0.351601 -1.988589
 20 22.550726 -0.000027 -0.000013 -0.095492 0.210720 1.912060
 21 30.814270 -0.000023 0.000002 -2.463490 -0.089131 0.311956
 22 -4.250660 -0.770624 0.000001 0.000000 0.000000 2.900903
 23 10.363422 0.000000 0.000000 0.000000 -0.000008 0.186508
 24 10.363076 0.000000 -0.000000 0.000000 0.000009 0.317048
 25 10.363081 -0.000004 -0.000002 -0.000009 -0.000015 0.205952
 26 8.210358 -0.000006 -7.786025 0.009320 0.141215 -0.153409
 27 8.210346 -0.000002 7.704017 0.003320 -0.106552 -0.154253
 28 1.854841 1.227791 -13.762345 2.656099 0.111302 1.791837
 29 10.456543 -0.000004 0.000004 0.028794 0.012686 -1.498679
 30 24.248093 0.000001 0.000007 0.050966 0.024480 1.498914
 31 26.336971 0.000019 0.000002 0.413065 0.014880 0.250942
 32 1.854847 1.227798 13.762341 -2.649441 -0.163106 1.752642
 33 10.456542 -0.000008 0.000004 -0.016264 -0.002026 -1.421325
 34 24.248116 0.000002 -0.000004 0.015128 -0.006700 1.425984
 35 26.336975 0.000000 0.000004 -0.527035 -0.046683 0.238243
time 23
  0 0.000000 0.000000 0.000000 0.000000 -0.000000 -1.570796
  1 0.000000 0.000000 0.000000 0.000000 -0.000000 0.000000
  2 0.000000 -5.971210 36.430290 -1.570221 0.011446 1.571372
  3 4.222169 -0.467508 0.000000 0.005805 -0.000130 -0.154857
  4 4.476987 -0.000002 -0.000000 0.010689 -0.013631 -0.028355
  5 4.477083 0.000000 0.000002 -0.006901 0.027739 -0.034556
  6 4.477077 -0.000004 -0.000002 -0.010132 -0.014466 -0.006682
  7 5.479910 -7.700466 -0.000000 0.007563 -0.041272 0.063379
  8 6.890240 0.000002 -0.000000 0.002145 -0.078328 -0.325171
  9 8.011925 0.000004 0.000005 0.022566 -0.023165 -0.228807
 10 7.210720 -0.000002 -0.000000 -0.010212 -0.038664 -0.046904
 11 8.581028 -0.304903 -0.000000 0.035093 0.052373 0.875457
 12 22.523008 2.194031 6.355708 0.000000 -0.155357 0.000000
 13 22.523005 2.194038 -6.355709 0.000000 0.218550 0.000000
 14 -3.006533 7.804720 -11.355459 0.347826 0.035167 1.805400
 15 10.384675 0.000008 0.000005 -0.449799 0.289933 -2.212157
 16 22.550743 -0.000006 -0.000004 0.047749 -0.170474 2.190547
 17 30.814247 -0.000015 -0.000004 2.257839 -0.115544 0.036778
 18 -3.013796 7.815494 11.355459 -0.138318 -0.028473 1.436483
 19 10.374533 -0.000002 0.000007 0.343357 -0.353362 -1.868908
 20 22.550726 -0.000027 -0.000013 -0.117267 0.197704 1.798408
 21 30.814270 -0.000023 0.000002 -2.492221 -0.129502 0.362105
 22 -4.250660 -0.770624 0.000001 0.000000 0.000000 2.882057
 23 10.363422 0.000000 0.000000 0.000000 -0.000008 0.181953
 24 10.363076 0.000000 -0.000000 0.000000 0.000009 0.338134
 25 10.363081 -0.000004 -0.000002 -0.000009 -0.000015 0.427898
 26 8.210358 -0.000006 -7.786025 0.043691 0.132045 0.127014
 27 8.210346 -0.000002 7.704017 -0.021428 -0.097577 0.125023
 28 1.854841 1.227791 -13.762345 2.654560 0.122429 1.824255
 29 10.456543 -0.000004 0.000004 0.031868 0.018789 -1.421523
 30 24.248093 0.000001 0.000007 0.047741 0.024884 1.397799
 31 26.336971 0.000019 0.000002 0.414370 0.015720 0.306499
 32 1.854847 1.227798 13.762341 -2.650420 -0.155116 1.799945
 33 10.456542 -0.000008 0.000004 -0.019825 -0.008788 -1.379116
 34 24.248116 0.000002 -0.000004 0.011786 -0.008414 1.358203
 35 26.336975 0.000000 0.000004 -0.510911 -0.024782 0.298773
time 24
  0 0.000000 0.000000 0.000000 0.000000 -0.000000 -1.570796
  1 0.000000 0.000000 0.000000 0.000000 -0.000000 0.000000
  2 0.000000 -5.635262 36.043564 -1.570317 0.012323 1.571276
  3 4.222169 -0.467508 0.000000 0.006141 -0.000112 -0.152051
  4 4.476987 -0.000002 -0.000000 0.010293 -0.013631 -0.034593
  5 4.477083 0.000000 0.000002 -0.007477 0.027545 -0.044665
  6 4.477077 -0.000004 -0.000002 -0.009485 -0.014523 -0.012958
  7 5.472097 -7.700466 -0.000000 0.005582 -0.046522 0.093218
  8 6.890240 0.000002 -0.000000 0.004470 -0.082680 -0.339226
  9 8.011925 0.000004 0.000005 0.021243 -0.029746 -0.236828
 10 7.210720 -0.000002 -0.000000 -0.008016 -0.039335 -0.101852
 11 8.581028 -0.304903 -0.000000 0.035758 0.061012 0.876438
 12 22.523008 2.194031 6.355708 0.000000 -0.141822 0.000000
 13 22.523005 2.194038 -6.355709 0.000000 0.199493 0.000000
 14 -3.006533 7.804720 -11.355459 0.408489 0.036828 1.868785
 15 10.384675 0.000008 0.000005 -0.430638 0.266552 -2.250924
 16 22.550743 -0.000006 -0.000004 0.046165 -0.149984 2.238126
 17 30.814247 -0.000015 -0.000004 2.223507 -0.149211 0.004046
 18 -3.013796 7.815494 11.355459 -0.140355 -0.030304 1.386664
 19 10.374533 -0.000002 0.000007 0.271701 -0.351036 -1.732120
 20 22.550726 -0.000027 -0.000013 -0.137612 0.181960 1.675575
 21 30.814270 -0.000023 0.000002 -2.522846 -0.165175 0.416075
 22 -4.250660 -0.770624 0.000001 0.000000 0.000000 2.863902
 23 10.363422 0.000000 0.000000 0.000000 -0.000008 0.139701
 24 10.363076 0.000000 -0.000000 0.000000 0.000009 0.325565
 25 10.363081 -0.000004 -0.000002 -0.000009 -0.000015 0.557651
 26 8.210358 -0.000006 -7.786025 0.063368 0.117509 0.328762
 27 8.210346 -0.000002 7.704017 -0.035223 -0.084672 0.326511
 28 1.854841 1.227791 -13.762345 2.654560 0.132643 1.857706
 29 10.456543 -0.000004 0.000004 0.035729 0.024572 -1.339417
 30 24.248093 0.000001 0.000007 0.044442 0.025065 1.295973
 31 26.336971 0.000019 0.000002 0.411151 0.014144 0.358743
 32 1.854847 1.227798 13.762341 -2.651636 -0.149671 1.845008
 33 10.456542 -0.000008 0.000004 -0.023997 -0.015300 -1.332690
 34 24.248116 0.000002 -0.000004 0.008677 -0.010044 1.287222
 35 26.336975 0.000000 0.000004 -0.494358 -0.005641 0.358737
time 25
  0 0.000000 0.000000 0.000000 0.000000 -0.000000 -1.570796
  1 0.000000 0.000000 0.000000 0.000000 -0.000000 0.000000
  2 0.000000 -5.334472 35.649017 -1.570317 0.013161 1.571276
  3 4.222169 -0.467508 0.000000 0.006345 -0.000075 -0.148892
  4 4.476987 -0.000002 -0.000000 0.010030 -0.013631 -0.038722
  5 4.477083 0.000000 0.000002 -0.007812 0.027464 -0.048281
  6 4.477077 -0.000004 -0.000002 -0.008946 -0.014579 -0.018752
  7 5.468191 -7.700466 -0.000000 0.003536 -0.051738 0.121564
  8 6.890240 0.000002 -0.000000 0.006627 -0.086980 -0.350978
  9 8.011925 0.000004 0.000005 0.019960 -0.036456 -0.244174
 10 7.210720 -0.000002 -0.000000 -0.005847 -0.039936 -0.154629
 11 8.581028 -0.304903 -0.000000 0.036447 0.069650 0.877770
 12 22.523008 2.194031 6.355708 0.000000 -0.128501 0.000000
 13 22.523005 2.194038 -6.355709 0.000000 0.180769 0.000000
 14 -3.006533 7.804720 -11.355459 0.466872 0.043576 1.919672
 15 10.384675 0.000008 0.000005 -0.408937 0.245930 -2.285025
 16 22.550743 -0.000006 -0.000004 0.046645 -0.130728 2.282133
 17 30.814247 -0.000015 -0.000004 2.189831 -0.183976 -0.024854
 18 -3.013796 7.815494 11.355459 -0.142340 -0.041066 1.324249
 19 10.374533 -0.000002 0.000007 0.198898 -0.340239 -1.589187
 20 22.550726 -0.000027 -0.000013 -0.154771 0.164057 1.557084
 21 30.814270 -0.000023 0.000002 -2.553787 -0.194340 0.471439
 22 -4.250660 -0.770624 0.000001 0.000000 0.000000 2.846593
 23 10.363422 0.000000 0.000000 0.000000 -0.000008 0.056694
 24 10.363076 0.000000 -0.000000 0.000000 0.000009 0.314002
 25 10.363081 -0.000004 -0.000002 -0.000009 -0.000015 0.630488
 26 8.210358 -0.000006 -7.786025 0.075546 0.099951 0.490527
 27 8.210346 -0.000002 7.704017 -0.043025 -0.069539 0.488394
 28 1.854841 1.227791 -13.762345 2.656099 0.141871 1.892617
 29 10.456543 -0.000004 0.000004 0.039765 0.030000 -1.275069
 30 24.248093 0.000001 0.000007 0.041513 0.025227 1.211374
 31 26.336971 0.000019 0.000002 0.404103 0.010123 0.410159
 32 1.854847 1.227798 13.762341 -2.654236 -0.150765 1.884428
 33 10.456542 -0.000008 0.000004 -0.028948 -0.021561 -1.282204
 34 24.248116 0.000002 -0.000004 0.005788 -0.011590 1.214465
 35 26.336975 0.000000 0.000004 -0.477591 0.010707 0.417627
time 26
  0 0.000000 0.000000 0.000000 0.000000 -0.000000 -1.570796
  1 0.000000 0.000000 0.000000 0.000000 -0.000000 0.000000
  2 0.000000 -5.076651 35.238850 -1.570317 0.013919 1.571276
  3 4.222169 -0.467508 0.000000 0.006393 -0.000037 -0.145381
  4 4.476987 -0.000002 -0.000000 0.009946 -0.013631 -0.040764
  5 4.477083 0.000000 0.000002 -0.007968 0.027464 -0.048770
  6 4.477077 -0.000004 -0.000002 -0.008562 -0.014598 -0.024015
  7 5.460378 -7.700466 -0.000000 0.001515 -0.056835 0.147701
  8 6.890240 0.000002 -0.000000 0.008593 -0.091189 -0.360683
  9 8.011925 0.000004 0.000005 0.018702 -0.043310 -0.250870
 10 7.210720 -0.000002 -0.000000 -0.003843 -0.040483 -0.203356
 11 8.581028 -0.304903 -0.000000 0.037182 0.078305 0.879382
 12 22.523008 2.194031 6.355708 0.000000 -0.115456 0.000000
 13 22.523005 2.194038 -6.355709 0.000000 0.162407 0.000000
 14 -3.006533 7.804720 -11.355459 0.523628 0.051136 1.964378
 15 10.384675 0.000008 0.000005 -0.384733 0.230251 -2.310684
 16 22.550743 -0.000006 -0.000004 0.049012 -0.112935 2.322327
 17 30.814247 -0.000015 -0.000004 2.156810 -0.219681 -0.050209
 18 -3.013796 7.815494 11.355459 -0.146770 -0.054032 1.267876
 19 10.374533 -0.000002 0.000007 0.134117 -0.321635 -1.461213
 20 22.550726 -0.000027 -0.000013 -0.164944 0.144877 1.460926
 21 30.814270 -0.000023 0.000002 -2.579115 -0.213131 0.515229
 22 -4.250660 -0.770624 0.000001 0.000000 0.000000 2.829616
 23 10.363422 0.000000 0.000000 0.000000 -0.000008 -0.036325
 24 10.363076 0.000000 -0.000000 0.000000 0.000009 0.303085
 25 10.363081 -0.000004 -0.000002 -0.000009 -0.000015 0.672880
 26 8.210358 -0.000006 -7.786025 0.082032 0.083173 0.598178
 27 8.210346 -0.000002 7.704017 -0.046848 -0.055334 0.596022
 28 1.854841 1.227791 -13.762345 2.659001 0.150136 1.928988
 29 10.456543 -0.000004 0.000004 0.044045 0.035071 -1.223444
 30 24.248093 0.000001 0.000007 0.038881 0.025327 1.139977
 31 26.336971 0.000019 0.000002 0.395055 0.004394 0.462679
 32 1.854847 1.227798 13.762341 -2.657544 -0.154295 1.921564
 33 10.456542 -0.000008 0.000004 -0.034578 -0.027405 -1.228881
 34 24.248116 0.000002 -0.000004 0.003106 -0.013052 1.141402
 35 26.336975 0.000000 0.000004 -0.460909 0.024450 0.474879
time 27
  0 0.000000 0.000000 0.000000 0.000000 -0.000000 -1.570796
  1 0.000000 0.000000 0.000000 0.000000 -0.000000 0.000000
  2 0.000000 -4.846175 34.793526 -1.570317 0.014637 1.571276
  3 4.222169 -0.467508 0.000000 0.006273 -0.000000 -0.141532
  4 4.476987 -0.000002 -0.000000 0.010018 -0.013610 -0.038477
  5 4.477083 0.000000 0.000002 -0.008004 0.027480 -0.049304
  6 4.477077 -0.000004 -0.000002 -0.008334 -0.014617 -0.028672
  7 5.456472 -7.700466 -0.000000 -0.000372 -0.061695 0.170913
  8 6.890240 0.000002 -0.000000 0.010367 -0.095332 -0.368525
  9 8.011925 0.000004 0.000005 0.017471 -0.050291 -0.256944
 10 7.210720 -0.000002 -0.000000 -0.002031 -0.040960 -0.246317
 11 8.581028 -0.304903 -0.000000 0.037917 0.086944 0.881205
 12 22.523008 2.194031 6.355708 0.000000 -0.102746 0.000000
 13 22.523005 2.194038 -6.355709 0.000000 0.144591 0.000000
 14 -3.006533 7.804720 -11.355459 0.580004 0.057461 2.006956
 15 10.384675 0.000008 0.000005 -0.359708 0.216693 -2.333511
 16 22.550743 -0.000006 -0.000004 0.052994 -0.096577 2.359010
 17 30.814247 -0.000015 -0.000004 2.124094 -0.256703 -0.073021
 18 -3.013796 7.815494 11.355459 -0.157207 -0.062776 1.236013
 19 10.374533 -0.000002 0.000007 0.096435 -0.303429 -1.404387
 20 22.550726 -0.000027 -0.000013 -0.164801 0.126208 1.412785
 21 30.814270 -0.000023 0.000002 -2.590411 -0.217437 0.529425
 22 -4.250660 -0.770624 0.000001 0.000000 0.000000 2.818529
 23 10.363422 0.000000 0.000000 0.000000 -0.000008 -0.093959
 24 10.363076 0.000000 -0.000000 0.000000 0.000009 0.292503
 25 10.363081 -0.000004 -0.000002 -0.000009 -0.000015 0.689901
 26 8.210358 -0.000006 -7.786025 0.083656 0.070675 0.644174
 27 8.210346 -0.000002 7.704017 -0.047579 -0.045059 0.641799
 28 1.854841 1.227791 -13.762345 2.662871 0.157414 1.965906
 29 10.456543 -0.000004 0.000004 0.048884 0.039662 -1.171862
 30 24.248093 0.000001 0.000007 0.036323 0.025267 1.071600
 31 26.336971 0.000019 0.000002 0.384875 -0.002280 0.515530
 32 1.854847 1.227798 13.762341 -2.660954 -0.157414 1.958656
 33 10.456542 -0.000008 0.000004 -0.040750 -0.032776 -1.174218
 34 24.248116 0.000002 -0.000004 0.000632 -0.014430 1.069508
 35 26.336975 0.000000 0.000004 -0.444571 0.035679 0.530039
time 28
  0 0.000000 0.000000 0.000000 0.000000 -0.000000 -1.570796
  1 0.000000 0.000000 0.000000 0.000000 -0.000000 0.000000
  2 0.000000 -4.627419 34.285698 -1.570317 0.015315 1.571276
  3 4.222169 -0.467508 0.000000 0.005949 0.000037 -0.137361
  4 4.476987 -0.000002 -0.000000 0.010222 -0.013567 -0.030620
  5 4.477083 0.000000 0.000002 -0.007932 0.027513 -0.050134
  6 4.477077 -0.000004 -0.000002 -0.008263 -0.014636 -0.032705
  7 5.448659 -7.700466 -0.000000 -0.002073 -0.066231 0.190546
  8 6.890240 0.000002 -0.000000 0.011949 -0.099384 -0.374715
  9 8.011925 0.000004 0.000005 0.016253 -0.057400 -0.262317
 10 7.210720 -0.000002 -0.000000 -0.000522 -0.041401 -0.281716
 11 8.581028 -0.304903 -0.000000 0.038652 0.095616 0.883238
 12 22.523008 2.194031 6.355708 0.000000 -0.090464 0.000000
 13 22.523005 2.194038 -6.355709 0.000000 0.127318 0.000000
 14 -3.006533 7.804720 -11.355459 0.632527 0.065410 2.039438
 15 10.384675 0.000008 0.000005 -0.334459 0.203688 -2.356504
 16 22.550743 -0.000006 -0.000004 0.058272 -0.081511 2.392787
 17 30.814247 -0.000015 -0.000004 2.094567 -0.290653 -0.088456
 18 -3.013796 7.815494 11.355459 -0.172022 -0.067858 1.223871
 19 10.374533 -0.000002 0.000007 0.085447 -0.289110 -1.432974
 20 22.550726 -0.000027 -0.000013 -0.155731 0.110405 1.441942
 21 30.814270 -0.000023 0.000002 -2.591569 -0.213009 0.522871
 22 -4.250660 -0.770624 0.000001 0.000000 0.000000 2.822651
 23 10.363422 0.000000 0.000000 0.000000 -0.000008 -0.124768
 24 10.363076 0.000000 -0.000000 0.000000 0.000009 0.282308
 25 10.363081 -0.000004 -0.000002 -0.000009 -0.000015 0.688666
 26 8.210358 -0.000006 -7.786025 0.081213 0.062660 0.633643
 27 8.210346 -0.000002 7.704017 -0.046273 -0.038994 0.631321
 28 1.854841 1.227791 -13.762345 2.667488 0.163656 2.002580
 29 10.456543 -0.000004 0.000004 0.054195 0.043755 -1.120062
 30 24.248093 0.000001 0.000007 0.033839 0.025065 1.005828
 31 26.336971 0.000019 0.000002 0.374303 -0.009244 0.567664
 32 1.854847 1.227798 13.762341 -2.664432 -0.160424 1.995275
 33 10.456542 -0.000008 0.000004 -0.047261 -0.037674 -1.119870
 34 24.248116 0.000002 -0.000004 -0.001648 -0.015701 1.000152
 35 26.336975 0.000000 0.000004 -0.428790 0.044552 0.582486
time 29
  0 0.000000 0.000000 0.000000 0.000000 -0.000000 -1.570796
  1 0.000000 0.000000 0.000000 0.000000 -0.000000 0.000000
  2 0.000000 -4.412568 33.723179 -1.570317 0.015913 1.571276
  3 4.222169 -0.467508 0.000000 0.005470 0.000074 -0.130722
  4 4.476987 -0.000002 -0.000000 0.010509 -0.013524 -0.017834
  5 4.477083 0.000000 0.000002 -0.007764 0.027545 -0.051186
  6 4.477077 -0.000004 -0.000002 -0.008394 -0.014654 -0.035835
  7 5.444753 -7.700466 -0.000000 -0.003469 -0.070377 0.205855
  8 6.890240 0.000002 -0.000000 0.013303 -0.103344 -0.379486
  9 8.011925 0.000004 0.000005 0.015048 -0.064637 -0.267067
 10 7.210720 -0.000002 -0.000000 0.000604 -0.041807 -0.307809
 11 8.581028 -0.304903 -0.000000 0.039433 0.104289 0.885446
 12 22.523008 2.194031 6.355708 0.000000 -0.078671 0.000000
 13 22.523005 2.194038 -6.355709 0.000000 0.110772 0.000000
 14 -3.006533 7.804720 -11.355459 0.667904 0.082580 2.036210
 15 10.384675 0.000008 0.000005 -0.309022 0.191446 -2.379220
 16 22.550743 -0.000006 -0.000004 0.064573 -0.067478 2.424143
 17 30.814247 -0.000015 -0.000004 2.080153 -0.300653 -0.078536
 18 -3.013796 7.815494 11.355459 -0.187856 -0.072679 1.218172
 19 10.374533 -0.000002 0.000007 0.083829 -0.275754 -1.499425
 20 22.550726 -0.000027 -0.000013 -0.144864 0.095780 1.508819
 21 30.814270 -0.000023 0.000002 -2.589569 -0.205962 0.510626
 22 -4.250660 -0.770624 0.000001 0.000000 0.000000 2.831613
 23 10.363422 0.000000 0.000000 0.000000 -0.000008 -0.151483
 24 10.363076 0.000000 -0.000000 0.000000 0.000009 0.272474
 25 10.363081 -0.000004 -0.000002 -0.000009 -0.000015 0.676262
 26 8.210358 -0.000006 -7.786025 0.076914 0.056038 0.601541
 27 8.210346 -0.000002 7.704017 -0.043912 -0.034197 0.599311
 28 1.854841 1.227791 -13.762345 2.672413 0.168837 2.038221
 29 10.456543 -0.000004 0.000004 0.059751 0.047350 -1.069870
 30 24.248093 0.000001 0.000007 0.031541 0.024742 0.943962
 31 26.336971 0.000019 0.000002 0.364210 -0.015919 0.618196
 32 1.854847 1.227798 13.762341 -2.668011 -0.163324 2.031205
 33 10.456542 -0.000008 0.000004 -0.053943 -0.042043 -1.067414
 34 24.248116 0.000002 -0.000004 -0.003759 -0.016851 0.934808
 35 26.336975 0.000000 0.000004 -0.413824 0.051283 0.631825
time 30
  0 0.000000 0.000000 0.000000 0.000000 -0.000000 -1.570796
  1 0.000000 0.000000 0.000000 0.000000 -0.000000 0.000000
  2 0.000000 -4.209437 33.121597 -1.570317 0.016472 1.571276
  3 4.222169 -0.467508 0.000000 0.004847 0.000055 -0.120525
  4 4.476987 -0.000002 -0.000000 0.010905 -0.013481 -0.001053
  5 4.477083 0.000000 0.000002 -0.007525 0.027593 -0.052431
  6 4.477077 -0.000004 -0.000002 -0.008622 -0.014673 -0.039946
  7 5.440846 -7.700466 -0.000000 -0.004439 -0.074030 0.216123
  8 6.890240 0.000002 -0.000000 0.014465 -0.107186 -0.383046
  9 8.011925 0.000004 0.000005 0.013856 -0.072002 -0.271142
 10 7.210720 -0.000002 -0.000000 0.001290 -0.042213 -0.322746
 11 8.581028 -0.304903 -0.000000 0.040190 0.112962 0.887759
 12 22.523008 2.194031 6.355708 0.000000 -0.067459 0.000000
 13 22.523005 2.194038 -6.355709 0.000000 0.095012 0.000000
 14 -3.006533 7.804720 -11.355459 0.681795 0.108301 1.994320
 15 10.384675 0.000008 0.000005 -0.283287 0.180010 -2.401380
 16 22.550743 -0.000006 -0.000004 0.071706 -0.054306 2.453623
 17 30.814247 -0.000015 -0.000004 2.079541 -0.287737 -0.048383
 18 -3.013796 7.815494 11.355459 -0.203385 -0.078470 1.212756
 19 10.374533 -0.000002 0.000007 0.080998 -0.262399 -1.566978
 20 22.550726 -0.000027 -0.000013 -0.135468 0.080958 1.578672
 21 30.814270 -0.000023 0.000002 -2.586727 -0.197937 0.497517
 22 -4.250660 -0.770624 0.000001 0.000000 0.000000 2.840038
 23 10.363422 0.000000 0.000000 0.000000 -0.000008 -0.177318
 24 10.363076 0.000000 -0.000000 0.000000 0.000009 0.263002
 25 10.363081 -0.000004 -0.000002 -0.000009 -0.000015 0.658114
 26 8.210358 -0.000006 -7.786025 0.071381 0.049789 0.560913
 27 8.210346 -0.000002 7.704017 -0.040736 -0.029740 0.558891
 28 1.854841 1.227791 -13.762345 2.677382 0.172957 2.071855
 29 10.456543 -0.000004 0.000004 0.065341 0.050517 -1.022847
 30 24.248093 0.000001 0.000007 0.029390 0.024359 0.886952
 31 26.336971 0.000019 0.000002 0.355597 -0.021858 0.666077
 32 1.854847 1.227798 13.762341 -2.671623 -0.166088 2.066273
 33 10.456542 -0.000008 0.000004 -0.060556 -0.045967 -1.018584
 34 24.248116 0.000002 -0.000004 -0.005716 -0.017858 0.874896
 35 26.336975 0.000000 0.000004 -0.399887 0.056030 0.677434
time 31
  0 0.000000 0.000000 0.000000 0.000000 -0.000000 -1.570796
  1 0.000000 0.000000 0.000000 0.000000 -0.000000 0.000000
  2 0.000000 -4.018025 32.496578 -1.570317 0.016951 1.571276
  3 4.222169 -0.467508 0.000000 0.004128 0.000037 -0.107399
  4 4.476987 -0.000002 -0.000000 0.011348 -0.013417 0.018792
  5 4.477083 0.000000 0.000002 -0.007237 0.027658 -0.053795
  6 4.477077 -0.000004 -0.000002 -0.008430 -0.014730 -0.051097
  7 5.436940 -7.700466 -0.000000 -0.004931 -0.077123 0.221039
  8 6.890240 0.000002 -0.000000 0.015436 -0.110937 -0.385862
  9 8.011925 0.000004 0.000005 0.012652 -0.079526 -0.274750
 10 7.210720 -0.000002 -0.000000 0.001647 -0.042584 -0.329879
 11 8.581028 -0.304903 -0.000000 0.041017 0.121685 0.890773
 12 22.523008 2.194031 6.355708 0.000000 -0.056888 0.000000
 13 22.523005 2.194038 -6.355709 0.000000 0.080190 0.000000
 14 -3.006533 7.804720 -11.355459 0.666168 0.141370 1.903671
 15 10.384675 0.000008 0.000005 -0.257478 0.169423 -2.422818
 16 22.550743 -0.000006 -0.000004 0.079382 -0.041793 2.482073
 17 30.814247 -0.000015 -0.000004 2.096532 -0.249775 -0.001040
 18 -3.013796 7.815494 11.355459 -0.217488 -0.086131 1.203237
 19 10.374533 -0.000002 0.000007 0.075875 -0.249575 -1.628268
 20 22.550726 -0.000027 -0.000013 -0.127950 0.066176 1.646231
 21 30.814270 -0.000023 0.000002 -2.584412 -0.189887 0.486305
 22 -4.250660 -0.770624 0.000001 0.000000 0.000000 2.848462
 23 10.363422 0.000000 0.000000 0.000000 -0.000008 -0.201591
 24 10.363076 0.000000 -0.000000 0.000000 0.000009 0.253917
 25 10.363081 -0.000004 -0.000002 -0.000009 -0.000015 0.638300
 26 8.210358 -0.000006 -7.786025 0.064199 0.044185 0.508701
 27 8.210346 -0.000002 7.704017 -0.036553 -0.025965 0.507044
 28 1.854841 1.227791 -13.762345 2.681999 0.176041 2.102508
 29 10.456543 -0.000004 0.000004 0.070757 0.053311 -0.980730
 30 24.248093 0.000001 0.000007 0.027426 0.023955 0.835979
 31 26.336971 0.000019 0.000002 0.349419 -0.026693 0.710202
 32 1.854847 1.227798 13.762341 -2.675202 -0.168742 2.100135
 33 10.456542 -0.000008 0.000004 -0.066864 -0.049501 -0.975192
 34 24.248116 0.000002 -0.000004 -0.007555 -0.018709 0.821889
 35 26.336975 0.000000 0.000004 -0.387150 0.059070 0.718692
time 32
  0 0.000000 0.000000 0.000000 0.000000 -0.000000 -1.570796
  1 0.000000 0.000000 0.000000 0.000000 -0.000000 0.000000
  2 0.000000 -3.834426 31.859840 -1.570317 0.017389 1.571276
  3 4.222169 -0.467508 0.000000 0.003349 -0.000000 -0.092050
  4 4.476987 -0.000002 -0.000000 0.011851 -0.013374 0.040945
  5 4.477083 0.000000 0.000002 -0.006889 0.027723 -0.055277
  6 4.477077 -0.000004 -0.000002 -0.008143 -0.014824 -0.064630
  7 5.433033 -7.700466 -0.000000 -0.004984 -0.079722 0.221226
  8 6.890240 0.000002 -0.000000 0.015856 -0.114179 -0.385397
  9 8.011925 0.000004 0.000005 0.011447 -0.086380 -0.275685
 10 7.210720 -0.000002 -0.000000 0.001784 -0.042849 -0.332803
 11 8.581028 -0.304903 -0.000000 0.041086 0.129829 0.887794
 12 22.523008 2.194031 6.355708 0.000000 -0.046989 0.000000
 13 22.523005 2.194038 -6.355709 0.000000 0.066276 0.000000
 14 -3.006533 7.804720 -11.355459 0.636813 0.173450 1.793725
 15 10.384675 0.000008 0.000005 -0.231556 0.159281 -2.445034
 16 22.550743 -0.000006 -0.000004 0.087634 -0.030946 2.501928
 17 30.814247 -0.000015 -0.000004 2.143225 -0.180120 0.059160
 18 -3.013796 7.815494 11.355459 -0.229197 -0.096743 1.184940
 19 10.374533 -0.000002 0.000007 0.068864 -0.237847 -1.682021
 20 22.550726 -0.000027 -0.000013 -0.122476 0.051708 1.710067
 21 30.814270 -0.000023 0.000002 -2.583921 -0.182792 0.479974
 22 -4.250660 -0.770624 0.000001 0.000000 0.000000 2.856886
 23 10.363422 0.000000 0.000000 -0.000000 -0.000008 -0.224323
 24 10.363076 0.000000 -0.000000 0.000000 0.000009 0.245167
 25 10.363081 -0.000004 -0.000002 -0.000009 -0.000015 0.617843
 26 8.210358 -0.000006 -7.786025 0.056125 0.038785 0.449593
 27 8.210346 -0.000002 7.704017 -0.031915 -0.022530 0.448381
 28 1.854841 1.227791 -13.762345 2.685957 0.178262 2.129634
 29 10.456543 -0.000004 0.000004 0.075788 0.055873 -0.944692
 30 24.248093 0.000001 0.000007 0.025757 0.023572 0.791697
 31 26.336971 0.000019 0.000002 0.345025 -0.030688 0.748142
 32 1.854847 1.227798 13.762341 -2.678781 -0.171314 2.133135
 33 10.456542 -0.000008 0.000004 -0.072697 -0.052785 -0.938501
 34 24.248116 0.000002 -0.000004 -0.009291 -0.019380 0.776599
 35 26.336975 0.000000 0.000004 -0.375658 0.060590 0.755427
time 33
  0 0.000000 0.000000 0.000000 0.000000 -0.000000 -1.570796
  1 0.000000 0.000000 0.000000 0.000000 -0.000000 0.000000
  2 0.000000 -3.666452 31.227009 -1.570317 0.017748 1.571276
  3 4.222169 -0.467508 0.000000 0.002522 -0.000037 -0.075199
  4 4.476987 -0.000002 -0.000000 0.012379 -0.013331 0.064518
  5 4.477083 0.000000 0.000002 -0.006530 0.027803 -0.056848
  6 4.477077 -0.000004 -0.000002 -0.007855 -0.014955 -0.078412
  7 5.429127 -7.700466 -0.000000 -0.004652 -0.081846 0.217648
  8 6.890240 0.000002 -0.000000 0.014465 -0.115473 -0.371760
  9 8.011925 0.000004 0.000005 0.010281 -0.089095 -0.266029
 10 7.210720 -0.000002 -0.000000 0.001784 -0.043061 -0.332588
 11 8.581028 -0.304903 -0.000000 0.037021 0.134916 0.853691
 12 22.523008 2.194031 6.355708 0.000000 -0.037823 0.000000
 13 22.523005 2.194038 -6.355709 0.000000 0.053420 0.000000
 14 -3.006533 7.804720 -11.355459 0.581089 0.199029 1.646627
 15 10.384675 0.000008 0.000005 -0.203057 0.158751 -2.425484
 16 22.550743 -0.000006 -0.000004 0.096558 -0.022882 2.497388
 17 30.814247 -0.000015 -0.000004 2.202279 -0.105544 0.122905
 18 -3.013796 7.815494 11.355459 -0.237038 -0.111615 1.152678
 19 10.374533 -0.000002 0.000007 0.060573 -0.227748 -1.725742
 20 22.550726 -0.000027 -0.000013 -0.119310 0.038496 1.765280
 21 30.814270 -0.000023 0.000002 -2.586236 -0.177433 0.480504
 22 -4.250660 -0.770624 0.000001 0.000000 0.000000 2.865362
 23 10.363422 0.000000 0.000000 -0.000000 -0.000008 -0.245317
 24 10.363076 0.000000 -0.000000 0.000000 0.000009 0.236779
 25 10.363081 -0.000004 -0.000002 -0.000009 -0.000015 0.597117
 26 8.210358 -0.000006 -7.786025 0.047978 0.033283 0.388379
 27 8.210346 -0.000002 7.704017 -0.027277 -0.019218 0.387446
 28 1.854841 1.227791 -13.762345 2.688903 0.179619 2.152259
 29 10.456543 -0.000004 0.000004 0.080278 0.058364 -0.916426
 30 24.248093 0.000001 0.000007 0.024275 0.023289 0.755110
 31 26.336971 0.000019 0.000002 0.341502 -0.034104 0.778959
 32 1.854847 1.227798 13.762341 -2.681415 -0.173476 2.158338
 33 10.456542 -0.000008 0.000004 -0.077886 -0.055902 -0.910204
 34 24.248116 0.000002 -0.000004 -0.010975 -0.019895 0.740348
 35 26.336975 0.000000 0.000004 -0.365537 0.060869 0.787133
time 34
  0 0.000000 0.000000 0.000000 0.000000 -0.000000 -1.570796
  1 0.000000 0.000000 0.000000 0.000000 -0.000000 0.000000
  2 0.000000 -3.510197 30.609802 -1.570317 0.018067 1.571276
  3 4.222169 -0.467508 0.000000 0.001683 -0.000093 -0.057642
  4 4.476987 -0.000002 -0.000000 0.012918 -0.013289 0.088625
  5 4.477083 0.000000 0.000002 -0.006146 0.027868 -0.058449
  6 4.477077 -0.000004 -0.000002 -0.007579 -0.015068 -0.092163
  7 5.425221 -7.700466 -0.000000 -0.004054 -0.083545 0.211207
  8 6.890240 0.000002 -0.000000 0.012728 -0.116335 -0.355703
  9 8.011925 0.000004 0.000005 0.009089 -0.091029 -0.254426
 10 7.210720 -0.000002 -0.000000 0.001675 -0.043202 -0.329933
 11 8.581028 -0.304903 -0.000000 0.032015 0.139355 0.813664
 12 22.523008 2.194031 6.355708 0.000000 -0.029513 0.000000
 13 22.523005 2.194038 -6.355709 0.000000 0.041713 0.000000
 14 -3.006533 7.804720 -11.355459 0.518419 0.214645 1.493623
 15 10.384675 0.000008 0.000005 -0.171495 0.164840 -2.367612
 16 22.550743 -0.000006 -0.000004 0.105258 -0.016281 2.464942
 17 30.814247 -0.000015 -0.000004 2.268366 -0.033350 0.189228
 18 -3.013796 7.815494 11.355459 -0.241060 -0.128019 1.110840
 19 10.374533 -0.000002 0.000007 0.051607 -0.219608 -1.756880
 20 22.550726 -0.000027 -0.000013 -0.118105 0.027169 1.809327
 21 30.814270 -0.000023 0.000002 -2.590902 -0.173739 0.487086
 22 -4.250660 -0.770624 0.000001 0.000000 0.000000 2.873837
 23 10.363422 0.000000 0.000000 -0.000000 -0.000008 -0.264374
 24 10.363076 0.000000 -0.000000 0.000000 0.000009 0.228727
 25 10.363081 -0.000004 -0.000002 -0.000009 -0.000015 0.576444
 26 8.210358 -0.000006 -7.786025 0.039953 0.027679 0.326452
 27 8.210346 -0.000002 7.704017 -0.022735 -0.015938 0.325664
 28 1.854841 1.227791 -13.762345 2.690530 0.180236 2.169472
 29 10.456543 -0.000004 0.000004 0.083982 0.060891 -0.897495
 30 24.248093 0.000001 0.000007 0.023051 0.023148 0.727404
 31 26.336971 0.000019 0.000002 0.338674 -0.037047 0.803203
 32 1.854847 1.227798 13.762341 -2.682664 -0.174899 2.173201
 33 10.456542 -0.000008 0.000004 -0.082125 -0.059074 -0.891956
 34 24.248116 0.000002 -0.000004 -0.012620 -0.020387 0.714149
 35 26.336975 0.000000 0.000004 -0.356875 0.060093 0.813244
time 35
  0 0.000000 0.000000 0.000000 0.000000 -0.000000 -1.570796
  1 0.000000 0.000000 0.000000 0.000000 -0.000000 0.000000
  2 0.000000 -3.369568 30.027752 -1.570317 0.018307 1.571276
  3 4.222169 -0.467508 0.000000 0.000868 -0.000130 -0.040131
  4 4.476987 -0.000002 -0.000000 0.013445 -0.013289 0.112376
  5 4.477083 0.000000 0.000002 -0.005775 0.027933 -0.060050
  6 4.477077 -0.000004 -0.000002 -0.007316 -0.015199 -0.105462
  7 5.421314 -7.700466 -0.000000 -0.003256 -0.084837 0.202868
  8 6.890240 0.000002 -0.000000 0.010990 -0.117185 -0.339808
  9 8.011925 0.000004 0.000005 0.007871 -0.093009 -0.242980
 10 7.210720 -0.000002 -0.000000 0.001482 -0.043290 -0.325535
 11 8.581028 -0.304903 -0.000000 0.026849 0.143742 0.774057
 12 22.523008 2.194031 6.355708 0.000000 -0.022059 0.000000
 13 22.523005 2.194038 -6.355709 0.000000 0.031278 0.000000
 14 -3.006533 7.804720 -11.355459 0.456617 0.219768 1.346937
 15 10.384675 0.000008 0.000005 -0.138514 0.171375 -2.294411
 16 22.550743 -0.000006 -0.000004 0.113031 -0.010398 2.412460
 17 30.814247 -0.000015 -0.000004 2.341790 0.035772 0.259563
 18 -3.013796 7.815494 11.355459 -0.242231 -0.143414 1.066095
 19 10.374533 -0.000002 0.000007 0.042372 -0.213827 -1.772710
 20 22.550726 -0.000027 -0.000013 -0.118227 0.017825 1.842206
 21 30.814270 -0.000023 0.000002 -2.597216 -0.171341 0.498019
 22 -4.250660 -0.770624 0.000001 0.000000 0.000000 2.882339
 23 10.363422 0.000000 0.000000 0.000000 -0.000008 -0.281385
 24 10.363076 0.000000 -0.000000 0.000000 0.000009 0.221061
 25 10.363081 -0.000004 -0.000002 -0.000009 -0.000015 0.556228
 26 8.210358 -0.000006 -7.786025 0.032136 0.022109 0.264593
 27 8.210346 -0.000002 7.704017 -0.018336 -0.012719 0.263915
 28 1.854841 1.227791 -13.762345 2.690530 0.180211 2.180358
 29 10.456543 -0.000004 0.000004 0.086690 0.063649 -0.889550
 30 24.248093 0.000001 0.000007 0.022087 0.023209 0.709525
 31 26.336971 0.000019 0.000002 0.336586 -0.039570 0.821759
 32 1.854847 1.227798 13.762341 -2.683035 -0.175473 2.180481
 33 10.456542 -0.000008 0.000004 -0.085245 -0.062414 -0.885414
 34 24.248116 0.000002 -0.000004 -0.014278 -0.021034 0.699120
 35 26.336975 0.000000 0.000004 -0.349713 0.058449 0.833364
time 36
  0 0.000000 0.000000 0.000000 0.000000 -0.000000 -1.570796
  1 0.000000 0.000000 0.000000 0.000000 -0.000000 0.000000
  2 0.000000 -3.248470 29.492580 -1.570317 0.018506 1.571276
  3 4.222169 -0.467508 0.000000 0.000089 -0.000186 -0.023401
  4 4.476987 -0.000002 -0.000000 0.013949 -0.013289 0.134906
  5 4.477083 0.000000 0.000002 -0.005415 0.028013 -0.061621
  6 4.477077 -0.000004 -0.000002 -0.007076 -0.015331 -0.117905
  7 5.417408 -7.700466 -0.000000 -0.002379 -0.085771 0.193565
  8 6.890240 0.000002 -0.000000 0.009240 -0.117995 -0.323891
  9 8.011925 0.000004 0.000005 0.006627 -0.094958 -0.231533
 10 7.210720 -0.000002 -0.000000 0.001235 -0.043325 -0.320198
 11 8.581028 -0.304903 -0.000000 0.021544 0.147959 0.734451
 12 22.523008 2.194031 6.355708 0.000000 -0.015581 0.000000
 13 22.523005 2.194038 -6.355709 0.000000 0.022173 0.000000
 14 -3.006533 7.804720 -11.355459 0.397854 0.215246 1.208904
 15 10.384675 0.000008 0.000005 -0.105495 0.181007 -2.186720
 16 22.550743 -0.000006 -0.000004 0.117109 -0.005749 2.314882
 17 30.814247 -0.000015 -0.000004 2.420195 0.098656 0.333049
 18 -3.013796 7.815494 11.355459 -0.241213 -0.157128 1.021406
 19 10.374533 -0.000002 0.000007 0.033339 -0.209309 -1.780480
 20 22.550726 -0.000027 -0.000013 -0.119044 0.010444 1.863857
 21 30.814270 -0.000023 0.000002 -2.604408 -0.169898 0.511575
 22 -4.250660 -0.770624 0.000001 0.000000 0.000000 2.890840
 23 10.363422 0.000000 0.000000 -0.000000 -0.000008 -0.296173
 24 10.363076 0.000000 -0.000000 0.000000 0.000009 0.213757
 25 10.363081 -0.000004 -0.000002 -0.000009 -0.000015 0.536737
 26 8.210358 -0.000006 -7.786025 0.024600 0.016574 0.203582
 27 8.210346 -0.000002 7.704017 -0.014082 -0.009501 0.203014
 28 1.854841 1.227791 -13.762345 2.689475 0.179619 2.186562
 29 10.456543 -0.000004 0.000004 0.088297 0.066674 -0.892936
 30 24.248093 0.000001 0.000007 0.021457 0.023491 0.701770
 31 26.336971 0.000019 0.000002 0.335063 -0.041698 0.835510
 32 1.854847 1.227798 13.762341 -2.683069 -0.175555 2.184747
 33 10.456542 -0.000008 0.000004 -0.087076 -0.065948 -0.890971
 34 24.248116 0.000002 -0.000004 -0.015911 -0.021957 0.695261
 35 26.336975 0.000000 0.000004 -0.344053 0.056185 0.847436
time 37
  0 0.000000 0.000000 0.000000 0.000000 -0.000000 -1.570796
  1 0.000000 0.000000 0.000000 0.000000 -0.000000 0.000000
  2 0.000000 -3.142998 29.023815 -1.570317 0.018626 1.571276
  3 4.222169 -0.467508 0.000000 -0.000618 -0.000260 -0.008221
  4 4.476987 -0.000002 -0.000000 0.014392 -0.013289 0.155306
  5 4.477083 0.000000 0.000002 -0.005092 0.028062 -0.063133
  6 4.477077 -0.000004 -0.000002 -0.006860 -0.015462 -0.129070
  7 5.417408 -7.700466 -0.000000 -0.001515 -0.086400 0.184230
  8 6.890240 0.000002 -0.000000 0.007478 -0.118779 -0.307950
  9 8.011925 0.000004 0.000005 0.005370 -0.096876 -0.220060
 10 7.210720 -0.000002 -0.000000 0.000961 -0.043343 -0.314647
 11 8.581028 -0.304903 -0.000000 0.016079 0.151954 0.694809
 12 22.523008 2.194031 6.355708 0.000000 -0.010143 0.000000
 13 22.523005 2.194038 -6.355709 0.000000 0.014520 0.000000
 14 -3.006533 7.804720 -11.355459 0.347664 0.204364 1.089550
 15 10.384675 0.000008 0.000005 -0.071393 0.187775 -2.075030
 16 22.550743 -0.000006 -0.000004 0.120227 -0.000928 2.213852
 17 30.814247 -0.000015 -0.000004 2.476672 0.135866 0.392138
 18 -3.013796 7.815494 11.355459 -0.238718 -0.168861 0.979340
 19 10.374533 -0.000002 0.000007 0.024711 -0.205190 -1.786626
 20 22.550726 -0.000027 -0.000013 -0.120086 0.004456 1.878808
 21 30.814270 -0.000023 0.000002 -2.611775 -0.169041 0.526050
 22 -4.250660 -0.770624 0.000001 0.000000 0.000000 2.899315
 23 10.363422 0.000000 0.000000 0.000000 -0.000008 -0.308606
 24 10.363076 0.000000 -0.000000 0.000000 0.000009 0.206788
 25 10.363081 -0.000004 -0.000002 -0.000009 -0.000015 0.518320
 26 8.210358 -0.000006 -7.786025 0.017405 0.011174 0.144101
 27 8.210346 -0.000002 7.704017 -0.009995 -0.006313 0.143741
 28 1.854841 1.227791 -13.762345 2.687980 0.178632 2.190090
 29 10.456543 -0.000004 0.000004 0.088961 0.069735 -0.904312
 30 24.248093 0.000001 0.000007 0.021012 0.023935 0.701592
 31 26.336971 0.000019 0.000002 0.334019 -0.043433 0.845175
 32 1.854847 1.227798 13.762341 -2.682934 -0.175446 2.187719
 33 10.456542 -0.000008 0.000004 -0.087890 -0.069482 -0.904804
 34 24.248116 0.000002 -0.000004 -0.017465 -0.023023 0.699476
 35 26.336975 0.000000 0.000004 -0.339722 0.053672 0.856423
time 38
  0 0.000000 0.000000 0.000000 0.000000 -0.000000 -1.570796
  1 0.000000 0.000000 0.000000 0.000000 -0.000000 0.000000
  2 0.000000 -3.060965 28.629272 -1.570317 0.018666 1.571276
  3 4.222169 -0.467508 0.000000 -0.001206 -0.000316 0.004659
  4 4.476987 -0.000002 -0.000000 0.014776 -0.013310 0.172731
  5 4.477083 0.000000 0.000002 -0.004804 0.028110 -0.064526
  6 4.477077 -0.000004 -0.000002 -0.006681 -0.015556 -0.138554
  7 5.413502 -7.700466 -0.000000 -0.000771 -0.086740 0.175829
  8 6.890240 0.000002 -0.000000 0.005693 -0.119537 -0.292009
  9 8.011925 0.000004 0.000005 0.004073 -0.098745 -0.208535
 10 7.210720 -0.000002 -0.000000 0.000686 -0.043325 -0.309632
 11 8.581028 -0.304903 -0.000000 0.010659 0.155556 0.656044
 12 22.523008 2.194031 6.355708 0.000000 -0.005805 0.000000
 13 22.523005 2.194038 -6.355709 0.000000 0.008349 0.000000
 14 -3.006533 7.804720 -11.355459 0.312286 0.192882 1.002609
 15 10.384675 0.000008 0.000005 -0.037105 0.190809 -1.965340
 16 22.550743 -0.000006 -0.000004 0.122674 0.003922 2.116031
 17 30.814247 -0.000015 -0.000004 2.525374 0.164236 0.446894
 18 -3.013796 7.815494 11.355459 -0.235562 -0.178315 0.942632
 19 10.374533 -0.000002 0.000007 0.016419 -0.201336 -1.791903
 20 22.550726 -0.000027 -0.000013 -0.121169 -0.000687 1.890595
 21 30.814270 -0.000023 0.000002 -2.618615 -0.168552 0.539745
 22 -4.250660 -0.770624 0.000001 0.000000 0.000000 2.907816
 23 10.363422 0.000000 0.000000 0.000000 -0.000008 -0.318509
 24 10.363076 0.000000 -0.000000 0.000000 0.000009 0.200207
 25 10.363081 -0.000004 -0.000002 -0.000009 -0.000015 0.501326
 26 8.210358 -0.000006 -7.786025 0.011176 0.006657 0.092331
 27 8.210346 -0.000002 7.704017 -0.006412 -0.003621 0.092165
 28 1.854841 1.227791 -13.762345 2.686265 0.177324 2.191489
 29 10.456543 -0.000004 0.000004 0.088978 0.072547 -0.919248
 30 24.248093 0.000001 0.000007 0.020790 0.024460 0.705796
 31 26.336971 0.000019 0.000002 0.333453 -0.044799 0.851747
 32 1.854847 1.227798 13.762341 -2.682596 -0.175145 2.189615
 33 10.456542 -0.000008 0.000004 -0.087992 -0.072683 -0.922106
 34 24.248116 0.000002 -0.000004 -0.018838 -0.024054 0.707701
 35 26.336975 0.000000 0.000004 -0.336548 0.051345 0.861792
time 39
  0 0.000000 0.000000 0.000000 0.000000 -0.000000 -1.570796
  1 0.000000 0.000000 0.000000 0.000000 -0.000000 0.000000
  2 0.000000 -3.002369 28.328484 -1.570317 0.018626 1.571276
  3 4.222169 -0.467508 0.000000 -0.001673 -0.000390 0.014519
  4 4.476987 -0.000002 -0.000000 0.015075 -0.013331 0.186316
  5 4.477083 0.000000 0.000002 -0.004588 0.028159 -0.065800
  6 4.477077 -0.000004 -0.000002 -0.006549 -0.015650 -0.145952
  7 5.413502 -7.700466 -0.000000 -0.000239 -0.086876 0.169295
  8 6.890240 0.000002 -0.000000 0.003907 -0.120295 -0.276068
  9 8.011925 0.000004 0.000005 0.002750 -0.100582 -0.196984
 10 7.210720 -0.000002 -0.000000 0.000494 -0.043308 -0.305905
 11 8.581028 -0.304903 -0.000000 0.007674 0.156854 0.632631
 12 22.523008 2.194031 6.355708 0.000000 -0.002597 0.000000
 13 22.523005 2.194038 -6.355709 0.000000 0.003842 0.000000
 14 -3.006533 7.804720 -11.355459 0.289334 0.183837 0.944374
 15 10.384675 0.000008 0.000005 -0.017794 0.191573 -1.895471
 16 22.550743 -0.000006 -0.000004 0.124497 0.008543 2.022750
 17 30.814247 -0.000015 -0.000004 2.565690 0.185239 0.494667
 18 -3.013796 7.815494 11.355459 -0.232609 -0.185191 0.913904
 19 10.374533 -0.000002 0.000007 0.008397 -0.197714 -1.796426
 20 22.550726 -0.000027 -0.000013 -0.122333 -0.005242 1.900211
 21 30.814270 -0.000023 0.000002 -2.624158 -0.168112 0.550985
 22 -4.250660 -0.770624 0.000001 0.000000 0.000000 2.916317
 23 10.363422 0.000000 0.000000 0.000000 -0.000008 -0.325771
 24 10.363076 0.000000 -0.000000 0.000000 0.000009 0.193961
 25 10.363081 -0.000004 -0.000002 -0.000009 -0.000015 0.486076
 26 8.210358 -0.000006 -7.786025 0.006290 0.003430 0.051804
 27 8.210346 -0.000002 7.704017 -0.003559 -0.001795 0.051745
 28 1.854841 1.227791 -13.762345 2.684286 0.175770 2.191367
 29 10.456543 -0.000004 0.000004 0.088681 0.074735 -0.933360
 30 24.248093 0.000001 0.000007 0.020679 0.024964 0.711242
 31 26.336971 0.000019 0.000002 0.333236 -0.045771 0.855999
 32 1.854847 1.227798 13.762341 -2.682090 -0.174680 2.190347
 33 10.456542 -0.000008 0.000004 -0.087755 -0.075187 -0.937949
 34 24.248116 0.000002 -0.000004 -0.019900 -0.024917 0.715875
 35 26.336975 0.000000 0.000004 -0.334276 0.049546 0.864900
time 40
  0 0.000000 0.000000 0.000000 0.000000 -0.000000 -1.570796
  1 0.000000 0.000000 0.000000 0.000000 -0.000000 0.000000
  2 0.000000 -2.963305 28.137070 -1.570317 0.018586 1.571276
  3 4.222169 -0.467508 0.000000 -0.001973 -0.000519 0.020637
  4 4.476987 -0.000002 -0.000000 0.015267 -0.013331 0.195306
  5 4.477083 0.000000 0.000002 -0.004457 0.028175 -0.066912
  6 4.477077 -0.000004 -0.000002 -0.006453 -0.015707 -0.150888
  7 5.413502 -7.700466 -0.000000 -0.000040 -0.086825 0.165468
  8 6.890240 0.000002 -0.000000 0.002085 -0.121080 -0.259825
  9 8.011925 0.000004 0.000005 0.001388 -0.102387 -0.185200
 10 7.210720 -0.000002 -0.000000 0.000357 -0.043290 -0.304188
 11 8.581028 -0.304903 -0.000000 0.004735 0.158032 0.609673
 12 22.523008 2.194031 6.355708 0.000000 -0.000611 0.000000
 13 22.523005 2.194038 -6.355709 0.000000 0.000968 0.000000
 14 -3.006533 7.804720 -11.355459 0.273979 0.176948 0.904338
 15 10.384675 0.000008 0.000005 -0.001995 0.191361 -1.837711
 16 22.550743 -0.000006 -0.000004 0.125105 0.011757 1.952653
 17 30.814247 -0.000015 -0.000004 2.595392 0.199251 0.531983
 18 -3.013796 7.815494 11.355459 -0.230623 -0.189488 0.895607
 19 10.374533 -0.000002 0.000007 0.000376 -0.194193 -1.800485
 20 22.550726 -0.000027 -0.000013 -0.123599 -0.009521 1.908524
 21 30.814270 -0.000023 0.000002 -2.627701 -0.167549 0.558153
 22 -4.250660 -0.770624 0.000001 -0.000000 -0.000000 2.924973
 23 10.363422 0.000000 0.000000 -0.000000 -0.000008 -0.330282
 24 10.363076 0.000000 -0.000000 0.000000 0.000009 0.187999
 25 10.363081 -0.000004 -0.000002 -0.000009 -0.000015 0.472653
 26 8.210358 -0.000006 -7.786025 0.002528 0.001291 0.020959
 27 8.210346 -0.000002 7.704017 -0.001366 -0.000650 0.020956
 28 1.854841 1.227791 -13.762345 2.682175 0.174043 2.190272
 29 10.456543 -0.000004 0.000004 0.088419 0.076052 -0.942261
 30 24.248093 0.000001 0.000007 0.020641 0.025348 0.714735
 31 26.336971 0.000019 0.000002 0.333192 -0.046350 0.858816
 32 1.854847 1.227798 13.762341 -2.681314 -0.174023 2.189960
 33 10.456542 -0.000008 0.000004 -0.087653 -0.076746 -0.947644
 34 24.248116 0.000002 -0.000004 -0.020535 -0.025444 0.719988
 35 26.336975 0.000000 0.000004 -0.332775 0.048615 0.867104
end
