version 1
nodes
  0 "Chaurus" -1
  1 "NPC Root [Root]" 0
  2 "Pelvis [Pelv]" 1
  3 "Spine[Spn0]" 2
  4 "Spine[Spn1]" 3
  5 "Spine[Spn2]" 4
  6 "Ribcage[Spn3]" 5
  7 "[Neck0]" 6
  8 "[Neck1]" 7
  9 "[Neck2]" 8
 10 "[Neck3]" 9
 11 "NPC Head [Head]" 10
 12 "Head[LeftPincher]" 11
 13 "Head[RightPincher]" 11
 14 "R UpperArm[RClv]" 6
 15 "R UpperArm[RUar]" 14
 16 "R UpperArm[RLar]" 15
 17 "R UpperArm[RHnd]" 16
 18 "L UpperArm[RClv]" 6
 19 "L UpperArm[LUar]" 18
 20 "L UpperArm[LLar]" 19
 21 "L UpperArm[LHnd]" 20
 22 "Tail[Tal0]" 2
 23 "Tail[Tal1]" 22
 24 "Tail[Tal2]" 23
 25 "Tail[Tal3]" 24
 26 "[TalRightPincher]" 25
 27 "[TalLeftPincher]" 25
 28 "R Leg[RThg0]" 2
 29 "R Leg[RThg1]" 28
 30 "R Leg[RClf]" 29
 31 "R Leg[RAnkle]" 30
 32 "LLeg[RThg0]" 2
 33 "LLeg[LThg1]" 32
 34 "LLeg[LClf]" 33
 35 "LLeg[LAnkle]" 34
end
skeleton
time 0
  0 0.000000 0.000000 0.000000 0.000000 -0.000000 -1.570796
  1 0.000000 0.000000 0.000000 0.000000 -0.000000 0.000000
  2 0.000000 -2.951586 28.070662 -1.570317 0.018466 1.571276
  3 4.222169 -0.467508 0.000000 -0.002069 -0.000668 0.022109
  4 4.476987 -0.000002 -0.000000 0.015327 -0.013331 0.198502
  5 4.477083 0.000000 0.000002 -0.004421 0.028191 -0.067787
  6 4.477077 -0.000004 -0.000002 -0.006429 -0.015726 -0.152773
  7 5.413502 -7.700466 -0.000000 -0.000239 -0.086655 0.165468
  8 6.890240 0.000002 -0.000000 0.000324 -0.121838 -0.244256
  9 8.011925 0.000004 0.000005 0.000039 -0.104065 -0.173857
 10 7.210720 -0.000002 -0.000000 0.000357 -0.043272 -0.305234
 11 8.581028 -0.304903 -0.000000 0.001910 0.159107 0.588012
 12 22.523008 2.194031 6.355708 0.000000 -0.000825 0.000000
 13 22.523005 2.194038 -6.355709 0.000000 0.001240 0.000000
 14 -3.006533 7.804720 -11.355459 0.266220 0.173203 0.883530
 15 10.384675 0.000008 0.000005 0.007194 0.190979 -1.803998
 16 22.550743 -0.000006 -0.000004 0.124929 0.013450 1.916636
 17 30.814247 -0.000015 -0.000004 2.610942 0.206430 0.552360
 18 -3.013796 7.815494 11.355459 -0.230470 -0.190833 0.891104
 19 10.374533 -0.000002 0.000007 -0.007174 -0.190970 -1.804022
 20 22.550726 -0.000027 -0.000013 -0.124927 -0.013467 1.915782
 21 30.814270 -0.000023 0.000002 -2.628157 -0.168454 0.557372
 22 -4.250660 -0.770624 0.000001 0.000000 0.000000 2.933269
 23 10.363422 0.000000 0.000000 0.000000 -0.000008 -0.331735
 24 10.363076 0.000000 -0.000000 0.000000 0.000009 0.182630
 25 10.363081 -0.000004 -0.000002 -0.000009 -0.000015 0.462128
 26 8.210358 -0.000006 -7.786025 -0.002455 0.001087 -0.042395
 27 8.210346 -0.000002 7.704017 0.001139 0.000000 -0.043336
 28 1.854841 1.227791 -13.762345 2.679713 0.172883 2.188569
 29 10.456543 -0.000004 0.000004 0.088524 0.076123 -0.941436
 30 24.248093 0.000001 0.000007 0.020567 0.025529 0.713137
 31 26.336971 0.000019 0.000002 0.333323 -0.046402 0.860141
 32 1.854847 1.227798 13.762341 -2.680368 -0.173230 2.188581
 33 10.456542 -0.000008 0.000004 -0.088026 -0.076940 -0.946107
 34 24.248116 0.000002 -0.000004 -0.020613 -0.025492 0.716840
 35 26.336975 0.000000 0.000004 -0.331960 0.050104 0.867217
time 1
  0 0.000000 0.000000 0.000000 0.000000 -0.000000 -1.570796
  1 0.000000 0.000000 0.000000 0.000000 -0.000000 0.000000
  2 0.000000 -2.951586 28.070662 -1.570317 0.018466 1.571276
  3 4.222169 -0.467508 0.000000 -0.002069 -0.000668 0.022109
  4 4.476987 -0.000002 -0.000000 0.015327 -0.013331 0.198502
  5 4.477083 0.000000 0.000002 -0.004421 0.028191 -0.067787
  6 4.477077 -0.000004 -0.000002 -0.006429 -0.015726 -0.152773
  7 5.413502 -7.700466 -0.000000 -0.000239 -0.086655 0.165468
  8 6.890240 0.000002 -0.000000 0.000324 -0.121838 -0.244256
  9 8.011925 0.000004 0.000005 0.000039 -0.104065 -0.173857
 10 7.210720 -0.000002 -0.000000 0.000357 -0.043272 -0.305234
 11 8.581028 -0.304903 -0.000000 0.001910 0.159107 0.588012
 12 22.523008 2.194031 6.355708 0.000000 -0.000825 0.000000
 13 22.523005 2.194038 -6.355709 0.000000 0.001240 0.000000
 14 -3.006533 7.804720 -11.355459 0.266220 0.173203 0.883530
 15 10.384675 0.000008 0.000005 0.007194 0.190979 -1.803998
 16 22.550743 -0.000006 -0.000004 0.124929 0.013450 1.916636
 17 30.814247 -0.000015 -0.000004 2.610942 0.206430 0.552360
 18 -3.013796 7.815494 11.355459 -0.230470 -0.190833 0.891104
 19 10.374533 -0.000002 0.000007 -0.007174 -0.190970 -1.804022
 20 22.550726 -0.000027 -0.000013 -0.124927 -0.013467 1.915782
 21 30.814270 -0.000023 0.000002 -2.628157 -0.168454 0.557372
 22 -4.250660 -0.770624 0.000001 0.000000 0.000000 2.933269
 23 10.363422 0.000000 0.000000 0.000000 -0.000008 -0.331735
 24 10.363076 0.000000 -0.000000 0.000000 0.000009 0.182630
 25 10.363081 -0.000004 -0.000002 -0.000009 -0.000015 0.462128
 26 8.210358 -0.000006 -7.786025 -0.002455 0.001087 -0.042395
 27 8.210346 -0.000002 7.704017 0.001139 0.000000 -0.043336
 28 1.854841 1.227791 -13.762345 2.679713 0.172883 2.188569
 29 10.456543 -0.000004 0.000004 0.088524 0.076123 -0.941436
 30 24.248093 0.000001 0.000007 0.020567 0.025529 0.713137
 31 26.336971 0.000019 0.000002 0.333323 -0.046402 0.860141
 32 1.854847 1.227798 13.762341 -2.680368 -0.173230 2.188581
 33 10.456542 -0.000008 0.000004 -0.088026 -0.076940 -0.946107
 34 24.248116 0.000002 -0.000004 -0.020613 -0.025492 0.716840
 35 26.336975 0.000000 0.000004 -0.331960 0.050104 0.867217
time 2
  0 0.000000 0.000000 0.000000 0.000000 -0.000000 -1.570796
  1 0.000000 0.000000 0.000000 0.000000 -0.000000 0.000000
  2 0.000000 -2.982837 28.297232 -1.570221 0.016512 1.571372
  3 4.222169 -0.467508 0.000000 -0.002081 -0.000668 0.021480
  4 4.476987 -0.000002 -0.000000 0.015351 -0.013331 0.198546
  5 4.477083 0.000000 0.000002 -0.004397 0.028110 -0.066571
  6 4.477077 -0.000004 -0.000002 -0.006477 -0.015726 -0.152041
  7 5.413502 -7.700466 -0.000000 0.000000 -0.086451 0.166028
  8 6.890240 0.000002 -0.000000 -0.000180 -0.121890 -0.242604
  9 8.011925 0.000004 0.000005 -0.000092 -0.103729 -0.172611
 10 7.210720 -0.000002 -0.000000 0.000329 -0.043149 -0.303786
 11 8.581028 -0.304903 -0.000000 0.002461 0.158817 0.588959
 12 22.523008 2.194031 6.355708 0.000000 -0.000825 0.000000
 13 22.523005 2.194038 -6.355709 0.000000 0.001240 0.000000
 14 -3.006533 7.804720 -11.355459 0.265677 0.167020 0.899943
 15 10.384675 0.000008 0.000005 0.003533 0.192973 -1.795167
 16 22.550743 -0.000006 -0.000004 0.123810 0.010982 1.905074
 17 30.814247 -0.000015 -0.000004 2.608102 0.202700 0.542727
 18 -3.013796 7.815494 11.355459 -0.229401 -0.183584 0.909116
 19 10.374533 -0.000002 0.000007 -0.003736 -0.193030 -1.794628
 20 22.550726 -0.000027 -0.000013 -0.123845 -0.010562 1.901265
 21 30.814270 -0.000023 0.000002 -2.625526 -0.165200 0.546467
 22 -4.250660 -0.770624 0.000001 0.000000 0.000000 2.968938
 23 10.363422 0.000000 0.000000 0.000000 -0.000008 -0.314086
 24 10.363076 0.000000 -0.000000 0.000000 0.000009 0.149516
 25 10.363081 -0.000004 -0.000002 -0.000009 -0.000015 0.420435
 26 8.210358 -0.000006 -7.786025 -0.002467 0.001087 -0.042598
 27 8.210346 -0.000002 7.704017 0.001151 0.000000 -0.043539
 28 1.854841 1.227791 -13.762345 2.646337 0.116458 2.011034
 29 10.456543 -0.000004 0.000004 0.059506 0.089985 -1.278022
 30 24.248093 0.000001 0.000007 0.027500 0.031784 0.963972
 31 26.336971 0.000019 0.000002 0.343416 -0.042224 0.758580
 32 1.854847 1.227798 13.762341 -2.681887 -0.175172 2.194655
 33 10.456542 -0.000008 0.000004 -0.088942 -0.074325 -0.922027
 34 24.248116 0.000002 -0.000004 -0.019343 -0.024401 0.697445
 35 26.336975 0.000000 0.000004 -0.335305 0.048771 0.859870
time 3
  0 0.000000 0.000000 0.000000 0.000000 -0.000000 -1.570796
  1 0.000000 0.000000 0.000000 0.000000 -0.000000 0.000000
  2 0.000000 -3.064871 28.902718 -1.570126 0.011725 1.571468
  3 4.222169 -0.467508 0.000000 -0.002093 -0.000668 0.019901
  4 4.476987 -0.000002 -0.000000 0.015423 -0.013331 0.198724
  5 4.477083 0.000000 0.000002 -0.004325 0.028110 -0.062732
  6 4.477077 -0.000004 -0.000002 -0.006645 -0.015744 -0.149907
  7 5.413502 -7.700466 -0.000000 0.000226 -0.085822 0.167646
  8 6.890240 0.000002 -0.000000 -0.000791 -0.121210 -0.236809
  9 8.011925 0.000004 0.000005 0.000092 -0.102739 -0.168354
 10 7.210720 -0.000002 -0.000000 0.000192 -0.043043 -0.299898
 11 8.581028 -0.304903 -0.000000 0.003357 0.157639 0.591762
 12 22.523008 2.194031 6.355708 0.000000 -0.003422 0.000000
 13 22.523005 2.194038 -6.355709 0.000000 0.004991 0.000000
 14 -3.006533 7.804720 -11.355459 0.264863 0.160660 0.915875
 15 10.384675 0.000008 0.000005 -0.001845 0.195965 -1.782560
 16 22.550743 -0.000006 -0.000004 0.122850 0.009030 1.892604
 17 30.814247 -0.000015 -0.000004 2.604652 0.198374 0.531554
 18 -3.013796 7.815494 11.355459 -0.227365 -0.174653 0.931061
 19 10.374533 -0.000002 0.000007 0.000982 -0.196020 -1.780538
 20 22.550726 -0.000027 -0.000013 -0.122701 -0.006400 1.879987
 21 30.814270 -0.000023 0.000002 -2.621948 -0.161163 0.533330
 22 -4.250660 -0.770624 0.000001 -0.000000 -0.000000 3.059633
 23 10.363422 0.000000 0.000000 0.000000 -0.000008 -0.268731
 24 10.363076 0.000000 -0.000000 0.000000 0.000009 0.046406
 25 10.363081 -0.000004 -0.000002 -0.000009 -0.000015 0.312374
 26 8.210358 -0.000006 -7.786025 -0.009112 0.005060 -0.161188
 27 8.210346 -0.000002 7.704017 0.004398 -0.000248 -0.162459
 28 1.854841 1.227791 -13.762345 2.595152 0.025147 1.730895
 29 10.456543 -0.000004 0.000004 0.010275 0.088366 -1.801745
 30 24.248093 0.000001 0.000007 0.040957 0.037817 1.350556
 31 26.336971 0.000019 0.000002 0.383352 -0.022462 0.570038
 32 1.854847 1.227798 13.762341 -2.684622 -0.178538 2.205081
 33 10.456542 -0.000008 0.000004 -0.089789 -0.071709 -0.898104
 34 24.248116 0.000002 -0.000004 -0.018022 -0.023323 0.678202
 35 26.336975 0.000000 0.000004 -0.338607 0.047468 0.852749
time 4
  0 0.000000 0.000000 0.000000 0.000000 -0.000000 -1.570796
  1 0.000000 0.000000 0.000000 0.000000 -0.000000 0.000000
  2 0.000000 -3.201594 29.840248 -1.570126 0.004146 1.571563
  3 4.222169 -0.467508 0.000000 -0.002128 -0.000668 0.017432
  4 4.476987 -0.000002 -0.000000 0.015531 -0.013310 0.199012
  5 4.477083 0.000000 0.000002 -0.004193 0.028159 -0.056448
  6 4.477077 -0.000004 -0.000002 -0.006896 -0.015782 -0.146481
  7 5.413502 -7.700466 -0.000000 0.000492 -0.084803 0.170322
  8 6.890240 0.000002 -0.000000 -0.001510 -0.119864 -0.227059
  9 8.011925 0.000004 0.000005 0.000576 -0.101109 -0.161268
 10 7.210720 -0.000002 -0.000000 0.000000 -0.042937 -0.293676
 11 8.581028 -0.304903 -0.000000 0.004597 0.155573 0.596319
 12 22.523008 2.194031 6.355708 0.000000 -0.007546 0.000000
 13 22.523005 2.194038 -6.355709 0.000000 0.010859 0.000000
 14 -3.006533 7.804720 -11.355459 0.263561 0.153877 0.932357
 15 10.384675 0.000008 0.000005 -0.008419 0.200166 -1.764287
 16 22.550743 -0.000006 -0.000004 0.121667 0.000852 1.851079
 17 30.814247 -0.000015 -0.000004 2.600720 0.193483 0.518804
 18 -3.013796 7.815494 11.355459 -0.224463 -0.164078 0.956939
 19 10.374533 -0.000002 0.000007 0.006982 -0.200107 -1.760823
 20 22.550726 -0.000027 -0.000013 -0.121679 -0.000530 1.849961
 21 30.814270 -0.000023 0.000002 -2.617598 -0.156392 0.518073
 22 -4.250660 -0.770624 0.000001 0.000000 0.000000 -3.099849
 23 10.363422 0.000000 0.000000 0.000000 -0.000008 -0.206212
 24 10.363076 0.000000 -0.000000 0.000000 0.000009 -0.066564
 25 10.363081 -0.000004 -0.000002 -0.000009 -0.000015 0.158512
 26 8.210358 -0.000006 -7.786025 -0.018395 0.011649 -0.324414
 27 8.210346 -0.000002 7.704017 0.009108 -0.001114 -0.324714
 28 1.854841 1.227791 -13.762345 2.552585 -0.044626 1.509144
 29 10.456543 -0.000004 0.000004 -0.017537 0.073080 -2.144758
 30 24.248093 0.000001 0.000007 0.051819 0.038100 1.647036
 31 26.336971 0.000019 0.000002 0.420417 0.005262 0.376029
 32 1.854847 1.227798 13.762341 -2.688573 -0.183353 2.219987
 33 10.456542 -0.000008 0.000004 -0.090637 -0.068870 -0.871581
 34 24.248116 0.000002 -0.000004 -0.016610 -0.022256 0.659010
 35 26.336975 0.000000 0.000004 -0.341909 0.046134 0.845571
time 5
  0 0.000000 0.000000 0.000000 0.000000 -0.000000 -1.570796
  1 0.000000 0.000000 0.000000 0.000000 -0.000000 0.000000
  2 0.000000 -3.377380 31.035595 -1.570126 -0.006066 1.571563
  3 4.222169 -0.467508 0.000000 -0.002164 -0.000668 0.014197
  4 4.476987 -0.000002 -0.000000 0.015663 -0.013289 0.199456
  5 4.477083 0.000000 0.000002 -0.004025 0.028240 -0.048000
  6 4.477077 -0.000004 -0.000002 -0.007244 -0.015820 -0.141934
  7 5.417408 -7.700466 -0.000000 0.000758 -0.083393 0.173931
  8 6.890240 0.000002 -0.000000 -0.002361 -0.117917 -0.213701
  9 8.011925 0.000004 0.000005 0.001323 -0.098888 -0.151561
 10 7.210720 -0.000002 -0.000000 -0.000329 -0.042813 -0.285336
 11 8.581028 -0.304903 -0.000000 0.006090 0.152688 0.602523
 12 22.523008 2.194031 6.355708 0.000000 -0.013168 0.000000
 13 22.523005 2.194038 -6.355709 0.000000 0.018754 0.000000
 14 -3.006533 7.804720 -11.355459 0.255910 0.142147 0.959208
 15 10.384675 0.000008 0.000005 -0.015703 0.205597 -1.738850
 16 22.550743 -0.000006 -0.000004 0.120611 -0.007557 1.808888
 17 30.814247 -0.000015 -0.000004 2.596353 0.188092 0.504945
 18 -3.013796 7.815494 11.355459 -0.220899 -0.152719 0.985097
 19 10.374533 -0.000002 0.000007 0.014060 -0.205555 -1.734787
 20 22.550726 -0.000027 -0.000013 -0.121026 0.007401 1.810071
 21 30.814270 -0.000023 0.000002 -2.612617 -0.150984 0.501171
 22 -4.250660 -0.770624 0.000001 0.000000 0.000000 -2.965982
 23 10.363422 0.000000 0.000000 -0.000000 -0.000008 -0.138367
 24 10.363076 0.000000 -0.000000 0.000000 0.000009 -0.187663
 25 10.363081 -0.000004 -0.000002 -0.000009 -0.000015 -0.014142
 26 8.210358 -0.000006 -7.786025 -0.029766 0.019189 -0.506901
 27 8.210346 -0.000002 7.704017 0.014837 -0.002043 -0.505450
 28 1.854841 1.227791 -13.762345 2.504303 -0.092021 1.331487
 29 10.456543 -0.000004 0.000004 -0.024106 0.063881 -2.273062
 30 24.248093 0.000001 0.000007 0.060716 0.035880 1.896273
 31 26.336971 0.000019 0.000002 0.474710 0.058502 0.112545
 32 1.854847 1.227798 13.762341 -2.693806 -0.189565 2.239244
 33 10.456542 -0.000008 0.000004 -0.091790 -0.062136 -0.803400
 34 24.248116 0.000002 -0.000004 -0.014965 -0.021142 0.637736
 35 26.336975 0.000000 0.000004 -0.345168 0.044769 0.838507
time 6
  0 0.000000 0.000000 0.000000 0.000000 -0.000000 -1.570796
  1 0.000000 0.000000 0.000000 0.000000 -0.000000 0.000000
  2 0.000000 -3.592231 32.441887 -1.570221 -0.018950 1.571563
  3 4.222169 -0.467508 0.000000 -0.002212 -0.000668 0.010271
  4 4.476987 -0.000002 -0.000000 0.015842 -0.013267 0.200100
  5 4.477083 0.000000 0.000002 -0.003809 0.028385 -0.037565
  6 4.477077 -0.000004 -0.000002 -0.007675 -0.015857 -0.136327
  7 5.421314 -7.700466 -0.000000 0.001037 -0.081642 0.178443
  8 6.890240 0.000002 -0.000000 -0.003344 -0.115433 -0.196899
  9 8.011925 0.000004 0.000005 0.002292 -0.096109 -0.139361
 10 7.210720 -0.000002 -0.000000 -0.000769 -0.042725 -0.274958
 11 8.581028 -0.304903 -0.000000 0.007835 0.149035 0.610269
 12 22.523008 2.194031 6.355708 0.000000 -0.020164 0.000000
 13 22.523005 2.194038 -6.355709 0.000000 0.028616 0.000000
 14 -3.006533 7.804720 -11.355459 0.247609 0.130206 0.986883
 15 10.384675 0.000008 0.000005 -0.023098 0.212535 -1.704249
 16 22.550743 -0.000006 -0.000004 0.119731 -0.015937 1.766999
 17 30.814247 -0.000015 -0.000004 2.591679 0.182261 0.490012
 18 -3.013796 7.815494 11.355459 -0.216724 -0.141098 1.014338
 19 10.374533 -0.000002 0.000007 0.022082 -0.212565 -1.701098
 20 22.550726 -0.000027 -0.000013 -0.121026 0.017295 1.761434
 21 30.814270 -0.000023 0.000002 -2.607179 -0.144966 0.482735
 22 -4.250660 -0.770624 0.000001 0.000000 0.000000 -2.842741
 23 10.363422 0.000000 0.000000 0.000000 -0.000008 -0.075870
 24 10.363076 0.000000 -0.000000 0.000000 0.000009 -0.313667
 25 10.363081 -0.000004 -0.000002 -0.000009 -0.000015 -0.183415
 26 8.210358 -0.000006 -7.786025 -0.042091 0.026253 -0.681914
 27 8.210346 -0.000002 7.704017 0.021009 -0.002723 -0.678997
 28 1.854841 1.227791 -13.762345 2.464242 -0.150494 1.143309
 29 10.456543 -0.000004 0.000004 -0.024787 0.058631 -2.324080
 30 24.248093 0.000001 0.000007 0.063608 0.033580 1.993659
 31 26.336971 0.000019 0.000002 0.516125 0.127615 -0.150221
 32 1.854847 1.227798 13.762341 -2.700694 -0.197554 2.264533
 33 10.456542 -0.000008 0.000004 -0.092910 -0.054900 -0.729425
 34 24.248116 0.000002 -0.000004 -0.012141 -0.018661 0.584780
 35 26.336975 0.000000 0.000004 -0.348384 0.043404 0.832290
time 7
  0 0.000000 0.000000 0.000000 0.000000 -0.000000 -1.570796
  1 0.000000 0.000000 0.000000 0.000000 -0.000000 0.000000
  2 0.000000 -3.838332 33.992718 -1.570317 -0.034348 1.571563
  3 4.222169 -0.467508 0.000000 -0.002284 -0.000668 0.005778
  4 4.476987 -0.000002 -0.000000 0.016058 -0.013246 0.200921
  5 4.477083 0.000000 0.000002 -0.003546 0.028563 -0.025485
  6 4.477077 -0.000004 -0.000002 -0.008179 -0.015895 -0.129849
  7 5.425221 -7.700466 -0.000000 0.001329 -0.079587 0.183763
  8 6.890240 0.000002 -0.000000 -0.004470 -0.112493 -0.177025
  9 8.011925 0.000004 0.000005 0.003458 -0.092834 -0.124955
 10 7.210720 -0.000002 -0.000000 -0.001263 -0.042619 -0.262756
 11 8.581028 -0.304903 -0.000000 0.009810 0.144681 0.619382
 12 22.523008 2.194031 6.355708 0.000000 -0.028413 0.000000
 13 22.523005 2.194038 -6.355709 0.000000 0.040201 0.000000
 14 -3.006533 7.804720 -11.355459 0.239090 0.118547 1.014352
 15 10.384675 0.000008 0.000005 -0.029971 0.221043 -1.658818
 16 22.550743 -0.000006 -0.000004 0.119668 -0.025120 1.722447
 17 30.814247 -0.000015 -0.000004 2.586787 0.176023 0.474326
 18 -3.013796 7.815494 11.355459 -0.212040 -0.129252 1.044492
 19 10.374533 -0.000002 0.000007 0.030306 -0.221203 -1.658827
 20 22.550726 -0.000027 -0.000013 -0.121741 0.028308 1.709819
 21 30.814270 -0.000023 0.000002 -2.601461 -0.138482 0.463267
 22 -4.250660 -0.770624 0.000001 0.000000 0.000000 -2.753351
 23 10.363422 0.000000 0.000000 0.000000 -0.000008 -0.030384
 24 10.363076 0.000000 -0.000000 0.000000 0.000009 -0.434457
 25 10.363081 -0.000004 -0.000002 -0.000009 -0.000015 -0.322913
 26 8.210358 -0.000006 -7.786025 -0.053255 0.032434 -0.819425
 27 8.210346 -0.000002 7.704017 0.026869 -0.003342 -0.816397
 28 1.854841 1.227791 -13.762345 2.461428 -0.186022 1.045327
 29 10.456543 -0.000004 0.000004 -0.018079 0.058400 -2.263596
 30 24.248093 0.000001 0.000007 0.062829 0.033035 1.958612
 31 26.336971 0.000019 0.000002 0.522129 0.165193 -0.284144
 32 1.854847 1.227798 13.762341 -2.704644 -0.200674 2.273968
 33 10.456542 -0.000008 0.000004 -0.091383 -0.049919 -0.694271
 34 24.248116 0.000002 -0.000004 -0.009744 -0.016731 0.561069
 35 26.336975 0.000000 0.000004 -0.352544 0.041667 0.813074
time 8
  0 0.000000 0.000000 0.000000 0.000000 -0.000000 -1.570796
  1 0.000000 0.000000 0.000000 0.000000 -0.000000 0.000000
  2 0.000000 -4.111778 35.633392 -1.570413 -0.052258 1.571468
  3 4.222169 -0.467508 0.000000 -0.002356 -0.000668 0.000749
  4 4.476987 -0.000002 -0.000000 0.016286 -0.013224 0.201965
  5 4.477083 0.000000 0.000002 -0.003234 0.028757 -0.011864
  6 4.477077 -0.000004 -0.000002 -0.008742 -0.015913 -0.122545
  7 5.429127 -7.700466 -0.000000 0.001635 -0.077225 0.189862
  8 6.890240 0.000002 -0.000000 -0.005753 -0.109121 -0.154219
  9 8.011925 0.000004 0.000005 0.004780 -0.089064 -0.108369
 10 7.210720 -0.000002 -0.000000 -0.001867 -0.042513 -0.248757
 11 8.581028 -0.304903 -0.000000 0.011968 0.139628 0.629862
 12 22.523008 2.194031 6.355708 0.000000 -0.037884 0.000000
 13 22.523005 2.194038 -6.355709 0.000000 0.053511 0.000000
 14 -3.006533 7.804720 -11.355459 0.230300 0.107029 1.042096
 15 10.384675 0.000008 0.000005 -0.035573 0.231248 -1.600946
 16 22.550743 -0.000006 -0.000004 0.124337 -0.040158 1.653560
 17 30.814247 -0.000015 -0.000004 2.581764 0.169440 0.457996
 18 -3.013796 7.815494 11.355459 -0.206643 -0.117145 1.075728
 19 10.374533 -0.000002 0.000007 0.038462 -0.231170 -1.610699
 20 22.550726 -0.000027 -0.000013 -0.123293 0.040263 1.657211
 21 30.814270 -0.000023 0.000002 -2.595568 -0.131558 0.442878
 22 -4.250660 -0.770624 0.000001 0.000000 0.000000 -2.715761
 23 10.363422 0.000000 0.000000 0.000000 -0.000008 -0.013307
 24 10.363076 0.000000 -0.000000 0.000000 0.000009 -0.521849
 25 10.363081 -0.000004 -0.000002 -0.000009 -0.000015 -0.412368
 26 8.210358 -0.000006 -7.786025 -0.061377 0.038513 -0.897760
 27 8.210346 -0.000002 7.704017 0.031915 -0.004673 -0.896660
 28 1.854841 1.227791 -13.762345 2.477039 -0.183036 1.053295
 29 10.456543 -0.000004 0.000004 -0.010741 0.057813 -2.192345
 30 24.248093 0.000001 0.000007 0.060716 0.032712 1.902015
 31 26.336971 0.000019 0.000002 0.509774 0.168846 -0.306234
 32 1.854847 1.227798 13.762341 -2.673683 -0.151422 2.111681
 33 10.456542 -0.000008 0.000004 -0.070628 -0.060438 -0.992100
 34 24.248116 0.000002 -0.000004 -0.012193 -0.021345 0.812648
 35 26.336975 0.000000 0.000004 -0.368453 0.033043 0.673026
time 9
  0 0.000000 0.000000 0.000000 0.000000 -0.000000 -1.570796
  1 0.000000 0.000000 0.000000 0.000000 -0.000000 0.000000
  2 0.000000 -4.404756 37.293602 -1.570509 -0.072522 1.571468
  3 4.222169 -0.467508 0.000000 -0.002440 -0.000668 -0.004648
  4 4.476987 -0.000002 -0.000000 0.016549 -0.013181 0.203252
  5 4.477083 0.000000 0.000002 -0.002875 0.028983 0.002898
  6 4.477077 -0.000004 -0.000002 -0.009353 -0.015932 -0.114634
  7 5.433033 -7.700466 -0.000000 0.001967 -0.074591 0.196614
  8 6.890240 0.000002 -0.000000 -0.007191 -0.105422 -0.128923
  9 8.011925 0.000004 0.000005 0.006221 -0.084910 -0.089992
 10 7.210720 -0.000002 -0.000000 -0.002498 -0.042390 -0.233257
 11 8.581028 -0.304903 -0.000000 0.014242 0.133977 0.641428
 12 22.523008 2.194031 6.355708 0.000000 -0.048394 0.000000
 13 22.523005 2.194038 -6.355709 0.000000 0.068242 0.000000
 14 -3.006533 7.804720 -11.355459 0.221238 0.095794 1.069703
 15 10.384675 0.000008 0.000005 -0.039757 0.242493 -1.534965
 16 22.550743 -0.000006 -0.000004 0.131294 -0.055913 1.578742
 17 30.814247 -0.000015 -0.000004 2.576741 0.162606 0.441344
 18 -3.013796 7.815494 11.355459 -0.200228 -0.104814 1.106565
 19 10.374533 -0.000002 0.000007 0.048034 -0.242166 -1.566688
 20 22.550726 -0.000027 -0.000013 -0.125806 0.053004 1.608450
 21 30.814270 -0.000023 0.000002 -2.590200 -0.124756 0.423020
 22 -4.250660 -0.770624 0.000001 0.000000 0.000000 -2.722291
 23 10.363422 0.000000 0.000000 0.000000 -0.000008 -0.038900
 24 10.363076 0.000000 -0.000000 0.000000 0.000009 -0.580437
 25 10.363081 -0.000004 -0.000002 -0.000009 -0.000015 -0.459056
 26 8.210358 -0.000006 -7.786025 -0.066629 0.045034 -0.928775
 27 8.210346 -0.000002 7.704017 0.036265 -0.007861 -0.929383
 28 1.854841 1.227791 -13.762345 2.494057 -0.174796 1.075737
 29 10.456543 -0.000004 0.000004 -0.003736 0.056389 -2.121007
 30 24.248093 0.000001 0.000007 0.058751 0.032309 1.845833
 31 26.336971 0.000019 0.000002 0.495722 0.168924 -0.316506
 32 1.854847 1.227798 13.762341 -2.630230 -0.071032 1.853840
 33 10.456542 -0.000008 0.000004 -0.039393 -0.066366 -1.443632
 34 24.248116 0.000002 -0.000004 -0.018359 -0.025408 1.198116
 35 26.336975 0.000000 0.000004 -0.401087 0.004999 0.441986
time 10
  0 0.000000 0.000000 0.000000 0.000000 -0.000000 -1.570796
  1 0.000000 0.000000 0.000000 0.000000 -0.000000 0.000000
  2 0.000000 -4.709453 38.926460 -1.570605 -0.095140 1.571372
  3 4.222169 -0.467508 0.000000 -0.002536 -0.000649 -0.010353
  4 4.476987 -0.000002 -0.000000 0.016837 -0.013139 0.204784
  5 4.477083 0.000000 0.000002 -0.002479 0.029209 0.018683
  6 4.477077 -0.000004 -0.000002 -0.010024 -0.015951 -0.106178
  7 5.436940 -7.700466 -0.000000 0.002326 -0.071720 0.203988
  8 6.890240 0.000002 -0.000000 -0.008809 -0.101423 -0.101207
  9 8.011925 0.000004 0.000005 0.007766 -0.080357 -0.069875
 10 7.210720 -0.000002 -0.000000 -0.003212 -0.042266 -0.216281
 11 8.581028 -0.304903 -0.000000 0.016630 0.127746 0.654081
 12 22.523008 2.194031 6.355708 0.000000 -0.059882 0.000000
 13 22.523005 2.194038 -6.355709 0.000000 0.084365 0.000000
 14 -3.006533 7.804720 -11.355459 0.211960 0.084700 1.097722
 15 10.384675 0.000008 0.000005 -0.043006 0.253992 -1.467874
 16 22.550743 -0.000006 -0.000004 0.140298 -0.071697 1.502652
 17 30.814247 -0.000015 -0.000004 2.571761 0.155458 0.424154
 18 -3.013796 7.815494 11.355459 -0.197479 -0.092371 1.150512
 19 10.374533 -0.000002 0.000007 0.070482 -0.255289 -1.569588
 20 22.550726 -0.000027 -0.000013 -0.127644 0.067825 1.599889
 21 30.814270 -0.000023 0.000002 -2.579325 -0.113550 0.392981
 22 -4.250660 -0.770624 0.000001 0.000000 0.000000 -2.739959
 23 10.363422 0.000000 0.000000 0.000000 -0.000008 -0.108703
 24 10.363076 0.000000 -0.000000 0.000000 0.000009 -0.633218
 25 10.363081 -0.000004 -0.000002 -0.000009 -0.000015 -0.497447
 26 8.210358 -0.000006 -7.786025 -0.071491 0.051690 -0.954048
 27 8.210346 -0.000002 7.704017 0.040700 -0.013462 -0.953255
 28 1.854841 1.227791 -13.762345 2.510942 -0.166136 1.099397
 29 10.456543 -0.000004 0.000004 0.003043 0.054183 -2.048237
 30 24.248093 0.000001 0.000007 0.056787 0.031764 1.788172
 31 26.336971 0.000019 0.000002 0.481757 0.169634 -0.328711
 32 1.854847 1.227798 13.762341 -2.602341 0.002489 1.618573
 33 10.456542 -0.000008 0.000004 -0.019520 -0.060104 -1.752574
 34 24.248116 0.000002 -0.000004 -0.021701 -0.024461 1.472645
 35 26.336975 0.000000 0.000004 -0.433507 -0.039734 0.208629
time 11
  0 0.000000 0.000000 0.000000 0.000000 -0.000000 -1.570796
  1 0.000000 0.000000 0.000000 0.000000 -0.000000 0.000000
  2 0.000000 -5.025868 40.473385 -1.570701 -0.120111 1.571276
  3 4.222169 -0.467508 0.000000 -0.002656 -0.000649 -0.016317
  4 4.476987 -0.000002 -0.000000 0.017137 -0.013117 0.206626
  5 4.477083 0.000000 0.000002 -0.002036 0.029451 0.035269
  6 4.477077 -0.000004 -0.000002 -0.010743 -0.015951 -0.097270
  7 5.440846 -7.700466 -0.000000 0.002725 -0.068627 0.211985
  8 6.890240 0.000002 -0.000000 -0.010618 -0.097175 -0.071327
  9 8.011925 0.000004 0.000005 0.009390 -0.075452 -0.048150
 10 7.210720 -0.000002 -0.000000 -0.004008 -0.042142 -0.197965
 11 8.581028 -0.304903 -0.000000 0.019087 0.120985 0.667716
 12 22.523008 2.194031 6.355708 0.000000 -0.072286 0.000000
 13 22.523005 2.194038 -6.355709 0.000000 0.101788 0.000000
 14 -3.006533 7.804720 -11.355459 0.201054 0.075232 1.122925
 15 10.384675 0.000008 0.000005 -0.045360 0.265682 -1.400282
 16 22.550743 -0.000006 -0.000004 0.151733 -0.087538 1.426320
 17 30.814247 -0.000015 -0.000004 2.566869 0.149628 0.410689
 18 -3.013796 7.815494 11.355459 -0.213211 -0.079405 1.250377
 19 10.374533 -0.000002 0.000007 0.123534 -0.269309 -1.673961
 20 22.550726 -0.000027 -0.000013 -0.122353 0.084983 1.681964
 21 30.814270 -0.000023 0.000002 -2.543754 -0.080837 0.317758
 22 -4.250660 -0.770624 0.000001 0.000000 0.000000 -2.765360
 23 10.363422 0.000000 0.000000 0.000000 -0.000008 -0.207841
 24 10.363076 0.000000 -0.000000 0.000000 0.000009 -0.675882
 25 10.363081 -0.000004 -0.000002 -0.000009 -0.000015 -0.513260
 26 8.210358 -0.000006 -7.786025 -0.075790 0.058517 -0.973004
 27 8.210346 -0.000002 7.704017 0.045146 -0.020828 -0.970108
 28 1.854841 1.227791 -13.762345 2.527916 -0.156958 1.125002
 29 10.456543 -0.000004 0.000004 0.009507 0.051158 -1.973946
 30 24.248093 0.000001 0.000007 0.054748 0.031098 1.728437
 31 26.336971 0.000019 0.000002 0.467706 0.170606 -0.341579
 32 1.854847 1.227798 13.762341 -2.587182 0.053848 1.421046
 33 10.456542 -0.000008 0.000004 -0.013178 -0.052284 -1.888582
 34 24.248116 0.000002 -0.000004 -0.020445 -0.022184 1.611356
 35 26.336975 0.000000 0.000004 -0.456750 -0.098892 -0.024390
time 12
  0 0.000000 0.000000 0.000000 0.000000 -0.000000 -1.570796
  1 0.000000 0.000000 0.000000 0.000000 -0.000000 0.000000
  2 0.000000 -5.342284 41.864052 -1.570797 -0.147236 1.571276
  3 4.222169 -0.467508 0.000000 -0.002776 -0.000631 -0.022374
  4 4.476987 -0.000002 -0.000000 0.017448 -0.013074 0.208735
  5 4.477083 0.000000 0.000002 -0.001544 0.029693 0.052314
  6 4.477077 -0.000004 -0.000002 -0.011474 -0.015932 -0.088098
  7 5.448659 -7.700466 -0.000000 0.003137 -0.065348 0.220417
  8 6.890240 0.000002 -0.000000 -0.012632 -0.092757 -0.039654
  9 8.011925 0.000004 0.000005 0.011041 -0.070244 -0.025100
 10 7.210720 -0.000002 -0.000000 -0.004831 -0.041984 -0.178550
 11 8.581028 -0.304903 -0.000000 0.021567 0.113747 0.682121
 12 22.523008 2.194031 6.355708 0.000000 -0.085423 0.000000
 13 22.523005 2.194038 -6.355709 0.000000 0.120240 0.000000
 14 -3.006533 7.804720 -11.355459 0.184884 0.071275 1.136453
 15 10.384675 0.000008 0.000005 -0.046928 0.277415 -1.333468
 16 22.550743 -0.000006 -0.000004 0.165726 -0.103321 1.351743
 17 30.814247 -0.000015 -0.000004 2.562239 0.149502 0.412264
 18 -3.013796 7.815494 11.355459 -0.232863 -0.064570 1.364491
 19 10.374533 -0.000002 0.000007 0.181776 -0.278777 -1.786916
 20 22.550726 -0.000027 -0.000013 -0.114366 0.101650 1.776137
 21 30.814270 -0.000023 0.000002 -2.502990 -0.037555 0.230374
 22 -4.250660 -0.770624 0.000001 0.000000 0.000000 -2.793654
 23 10.363422 0.000000 0.000000 0.000000 -0.000008 -0.321590
 24 10.363076 0.000000 -0.000000 0.000000 0.000009 -0.709202
 25 10.363081 -0.000004 -0.000002 -0.000009 -0.000015 -0.522577
 26 8.210358 -0.000006 -7.786025 -0.079418 0.065445 -0.986354
 27 8.210346 -0.000002 7.704017 0.049544 -0.029400 -0.982858
 28 1.854841 1.227791 -13.762345 2.543922 -0.144523 1.157784
 29 10.456543 -0.000004 0.000004 0.015551 0.047367 -1.898570
 30 24.248093 0.000001 0.000007 0.053079 0.030190 1.673262
 31 26.336971 0.000019 0.000002 0.453480 0.171894 -0.355165
 32 1.854847 1.227798 13.762341 -2.585291 0.092839 1.256864
 33 10.456542 -0.000008 0.000004 -0.013924 -0.045327 -1.895006
 34 24.248116 0.000002 -0.000004 -0.016312 -0.019536 1.652685
 35 26.336975 0.000000 0.000004 -0.461810 -0.158919 -0.239040
time 13
  0 0.000000 0.000000 0.000000 0.000000 -0.000000 -1.570796
  1 0.000000 0.000000 0.000000 0.000000 -0.000000 0.000000
  2 0.000000 -5.658700 43.047684 -1.570892 -0.176515 1.571180
  3 4.222169 -0.467508 0.000000 -0.002919 -0.000631 -0.028477
  4 4.476987 -0.000002 -0.000000 0.017784 -0.013031 0.211199
  5 4.477083 0.000000 0.000002 -0.001017 0.029920 0.069670
  6 4.477077 -0.000004 -0.000002 -0.012241 -0.015895 -0.078739
  7 5.452565 -7.700466 -0.000000 0.003589 -0.061882 0.229347
  8 6.890240 0.000002 -0.000000 -0.014873 -0.088196 -0.006283
  9 8.011925 0.000004 0.000005 0.012691 -0.064749 -0.000857
 10 7.210720 -0.000002 -0.000000 -0.005682 -0.041825 -0.158061
 11 8.581028 -0.304903 -0.000000 0.024047 0.106082 0.697298
 12 22.523008 2.194031 6.355708 0.000000 -0.099294 0.000000
 13 22.523005 2.194038 -6.355709 0.000000 0.139721 0.000000
 14 -3.006533 7.804720 -11.355459 0.167250 0.068766 1.147166
 15 10.384675 0.000008 0.000005 -0.047750 0.289169 -1.268098
 16 22.550743 -0.000006 -0.000004 0.182567 -0.119134 1.280254
 17 30.814247 -0.000015 -0.000004 2.557565 0.150819 0.417851
 18 -3.013796 7.815494 11.355459 -0.254247 -0.047232 1.485560
 19 10.374533 -0.000002 0.000007 0.235636 -0.285787 -1.878243
 20 22.550726 -0.000027 -0.000013 -0.105338 0.117806 1.861065
 21 30.814270 -0.000023 0.000002 -2.457351 0.019674 0.131834
 22 -4.250660 -0.770624 0.000001 0.000000 0.000000 -2.822077
 23 10.363422 0.000000 0.000000 0.000000 -0.000008 -0.435736
 24 10.363076 0.000000 -0.000000 0.000000 0.000009 -0.738316
 25 10.363081 -0.000004 -0.000002 -0.000009 -0.000015 -0.532698
 26 8.210358 -0.000006 -7.786025 -0.082337 0.072509 -0.995152
 27 8.210346 -0.000002 7.704017 0.053715 -0.038622 -0.993369
 28 1.854841 1.227791 -13.762345 2.557334 -0.122762 1.208630
 29 10.456543 -0.000004 0.000004 0.021229 0.042847 -1.820850
 30 24.248093 0.000001 0.000007 0.052597 0.029222 1.639044
 31 26.336971 0.000019 0.000002 0.438993 0.173523 -0.369523
 32 1.854847 1.227798 13.762341 -2.599978 0.092757 1.210034
 33 10.456542 -0.000008 0.000004 -0.016569 -0.038620 -1.832461
 34 24.248116 0.000002 -0.000004 -0.011001 -0.017151 1.635676
 35 26.336975 0.000000 0.000004 -0.449331 -0.191957 -0.353882
time 14
  0 0.000000 0.000000 0.000000 0.000000 -0.000000 -1.570796
  1 0.000000 0.000000 0.000000 0.000000 -0.000000 0.000000
  2 0.000000 -5.963397 43.957863 -1.570988 -0.207828 1.571180
  3 4.222169 -0.467508 0.000000 -0.003063 -0.000612 -0.034518
  4 4.476987 -0.000002 -0.000000 0.018131 -0.013010 0.213996
  5 4.477083 0.000000 0.000002 -0.000442 0.030130 0.087011
  6 4.477077 -0.000004 -0.000002 -0.013008 -0.015820 -0.069364
  7 5.460378 -7.700466 -0.000000 0.004067 -0.058297 0.238588
  8 6.890240 0.000002 -0.000000 -0.017294 -0.083504 0.028344
  9 8.011925 0.000004 0.000005 0.014315 -0.059030 0.024321
 10 7.210720 -0.000002 -0.000000 -0.006588 -0.041648 -0.136795
 11 8.581028 -0.304903 -0.000000 0.026458 0.098058 0.713070
 12 22.523008 2.194031 6.355708 0.000000 -0.113684 0.000000
 13 22.523005 2.194038 -6.355709 0.000000 0.159957 0.000000
 14 -3.006533 7.804720 -11.355459 0.149833 0.066258 1.158292
 15 10.384675 0.000008 0.000005 -0.048049 0.300838 -1.205339
 16 22.550743 -0.000006 -0.000004 0.202318 -0.134946 1.213608
 17 30.814247 -0.000015 -0.000004 2.552804 0.151916 0.423044
 18 -3.013796 7.815494 11.355459 -0.286525 -0.023653 1.634844
 19 10.374533 -0.000002 0.000007 0.281812 -0.294259 -1.938026
 20 22.550726 -0.000027 -0.000013 -0.096717 0.134218 1.924964
 21 30.814270 -0.000023 0.000002 -2.399363 0.107438 0.005542
 22 -4.250660 -0.770624 0.000001 0.000000 0.000000 -2.850627
 23 10.363422 0.000000 0.000000 -0.000000 -0.000008 -0.534807
 24 10.363076 0.000000 -0.000000 0.000000 0.000009 -0.765080
 25 10.363081 -0.000004 -0.000002 -0.000009 -0.000015 -0.542873
 26 8.210358 -0.000006 -7.786025 -0.084487 0.079607 -1.000214
 27 8.210346 -0.000002 7.704017 0.057059 -0.048030 -0.999778
 28 1.854841 1.227791 -13.762345 2.571274 -0.098880 1.265254
 29 10.456543 -0.000004 0.000004 0.025597 0.037438 -1.750337
 30 24.248093 0.000001 0.000007 0.052449 0.028273 1.618205
 31 26.336971 0.000019 0.000002 0.424202 0.175494 -0.384655
 32 1.854847 1.227798 13.762341 -2.620877 0.069554 1.249799
 33 10.456542 -0.000008 0.000004 -0.018672 -0.031635 -1.761994
 34 24.248116 0.000002 -0.000004 -0.005288 -0.014682 1.612219
 35 26.336975 0.000000 0.000004 -0.434450 -0.203621 -0.386209
time 15
  0 0.000000 0.000000 0.000000 0.000000 -0.000000 -1.570796
  1 0.000000 0.000000 0.000000 0.000000 -0.000000 0.000000
  2 0.000000 -6.252468 44.543823 -1.571084 -0.241176 1.571180
  3 4.222169 -0.467508 0.000000 -0.003231 -0.000594 -0.040407
  4 4.476987 -0.000002 -0.000000 0.018479 -0.012967 0.217148
  5 4.477083 0.000000 0.000002 0.000170 0.030340 0.104160
  6 4.477077 -0.000004 -0.000002 -0.013787 -0.015744 -0.060035
  7 5.468191 -7.700466 -0.000000 0.004586 -0.054593 0.248141
  8 6.890240 0.000002 -0.000000 -0.019858 -0.078681 0.064206
  9 8.011925 0.000004 0.000005 0.015926 -0.053103 0.050356
 10 7.210720 -0.000002 -0.000000 -0.007522 -0.041454 -0.114778
 11 8.581028 -0.304903 -0.000000 0.028823 0.089710 0.729333
 12 22.523008 2.194031 6.355708 0.000000 -0.128563 0.000000
 13 22.523005 2.194038 -6.355709 0.000000 0.180890 0.000000
 14 -3.006533 7.804720 -11.355459 0.131981 0.064491 1.167013
 15 10.384675 0.000008 0.000005 -0.046069 0.311531 -1.140357
 16 22.550743 -0.000006 -0.000004 0.225843 -0.150443 1.146719
 17 30.814247 -0.000015 -0.000004 2.548873 0.153703 0.430564
 18 -3.013796 7.815494 11.355459 -0.329699 0.011846 1.816732
 19 10.374533 -0.000002 0.000007 0.317472 -0.308744 -1.957799
 20 22.550726 -0.000027 -0.000013 -0.093122 0.153535 1.945064
 21 30.814270 -0.000023 0.000002 -2.347234 0.209246 -0.120889
 22 -4.250660 -0.770624 0.000001 0.000000 0.000000 -2.879408
 23 10.363422 0.000000 0.000000 -0.000000 -0.000008 -0.604104
 24 10.363076 0.000000 -0.000000 0.000000 0.000009 -0.785548
 25 10.363081 -0.000004 -0.000002 -0.000009 -0.000015 -0.553075
 26 8.210358 -0.000006 -7.786025 -0.085916 0.086807 -1.002897
 27 8.210346 -0.000002 7.704017 0.058760 -0.057253 -0.998795
 28 1.854841 1.227791 -13.762345 2.586797 -0.075663 1.322912
 29 10.456543 -0.000004 0.000004 0.027274 0.031050 -1.702576
 30 24.248093 0.000001 0.000007 0.052486 0.027345 1.606542
 31 26.336971 0.000019 0.000002 0.409019 0.177885 -0.400781
 32 1.854847 1.227798 13.762341 -2.643060 0.044025 1.306536
 33 10.456542 -0.000008 0.000004 -0.019554 -0.024344 -1.701616
 34 24.248116 0.000002 -0.000004 0.000308 -0.012261 1.594296
 35 26.336975 0.000000 0.000004 -0.420256 -0.211500 -0.402543
time 16
  0 0.000000 0.000000 0.000000 0.000000 -0.000000 -1.570796
  1 0.000000 0.000000 0.000000 0.000000 -0.000000 0.000000
  2 0.000000 -6.529820 44.770390 -1.571084 -0.275640 1.571084
  3 4.222169 -0.467508 0.000000 -0.003411 -0.000575 -0.046034
  4 4.476987 -0.000002 -0.000000 0.018826 -0.012924 0.220699
  5 4.477083 0.000000 0.000002 0.000805 0.030501 0.120819
  6 4.477077 -0.000004 -0.000002 -0.014554 -0.015632 -0.050925
  7 5.472097 -7.700466 -0.000000 0.005131 -0.050804 0.257942
  8 6.890240 0.000002 -0.000000 -0.022507 -0.073767 0.100928
  9 8.011925 0.000004 0.000005 0.017550 -0.047032 0.077013
 10 7.210720 -0.000002 -0.000000 -0.008455 -0.041242 -0.092252
 11 8.581028 -0.304903 -0.000000 0.031097 0.081139 0.745947
 12 22.523008 2.194031 6.355708 0.000000 -0.143808 0.000000
 13 22.523005 2.194038 -6.355709 0.000000 0.202306 0.000000
 14 -3.006533 7.804720 -11.355459 0.117440 0.058097 1.194826
 15 10.384675 0.000008 0.000005 -0.058545 0.328759 -1.125306
 16 22.550743 -0.000006 -0.000004 0.244602 -0.168982 1.125532
 17 30.814247 -0.000015 -0.000004 2.538259 0.150286 0.419713
 18 -3.013796 7.815494 11.355459 -0.359585 0.051866 1.978156
 19 10.374533 -0.000002 0.000007 0.345919 -0.328246 -1.952001
 20 22.550726 -0.000027 -0.000013 -0.097718 0.177327 1.920745
 21 30.814270 -0.000023 0.000002 -2.310329 0.296569 -0.212735
 22 -4.250660 -0.770624 0.000001 0.000000 0.000000 -2.908267
 23 10.363422 0.000000 0.000000 0.000000 -0.000008 -0.631039
 24 10.363076 0.000000 -0.000000 0.000000 0.000009 -0.792542
 25 10.363081 -0.000004 -0.000002 -0.000009 -0.000015 -0.563250
 26 8.210358 -0.000006 -7.786025 -0.086148 0.093770 -1.002082
 27 8.210346 -0.000002 7.704017 0.057993 -0.065856 -0.987537
 28 1.854841 1.227791 -13.762345 2.603683 -0.052768 1.382577
 29 10.456543 -0.000004 0.000004 0.027763 0.024252 -1.662413
 30 24.248093 0.000001 0.000007 0.052746 0.026437 1.606483
 31 26.336971 0.000019 0.000002 0.393401 0.180671 -0.417791
 32 1.854847 1.227798 13.762341 -2.665715 0.019755 1.364308
 33 10.456542 -0.000008 0.000004 -0.018909 -0.016608 -1.659604
 34 24.248116 0.000002 -0.000004 0.005438 -0.010044 1.599729
 35 26.336975 0.000000 0.000004 -0.405762 -0.219628 -0.421306
time 17
  0 0.000000 0.000000 0.000000 0.000000 -0.000000 -1.570796
  1 0.000000 0.000000 0.000000 0.000000 -0.000000 0.000000
  2 0.000000 -6.811079 44.700073 -1.571180 -0.317525 1.571180
  3 4.222169 -0.467508 0.000000 -0.003591 -0.000557 -0.051339
  4 4.476987 -0.000002 -0.000000 0.019174 -0.012903 0.224673
  5 4.477083 0.000000 0.000002 0.001488 0.030646 0.136782
  6 4.477077 -0.000004 -0.000002 -0.015321 -0.015500 -0.042142
  7 5.479910 -7.700466 -0.000000 0.005715 -0.046964 0.267899
  8 6.890240 0.000002 -0.000000 -0.025204 -0.068735 0.138302
  9 8.011925 0.000004 0.000005 0.019174 -0.040833 0.104164
 10 7.210720 -0.000002 -0.000000 -0.009416 -0.041013 -0.069323
 11 8.581028 -0.304903 -0.000000 0.033255 0.072364 0.762806
 12 22.523008 2.194031 6.355708 0.000000 -0.159328 0.000000
 13 22.523005 2.194038 -6.355709 0.000000 0.224146 0.000000
 14 -3.006533 7.804720 -11.355459 0.124602 0.036015 1.307518
 15 10.384675 0.000008 0.000005 -0.130969 0.366885 -1.281428
 16 22.550743 -0.000006 -0.000004 0.234447 -0.199574 1.256828
 17 30.814247 -0.000015 -0.000004 2.495410 0.121854 0.343327
 18 -3.013796 7.815494 11.355459 -0.361672 0.080676 2.069585
 19 10.374533 -0.000002 0.000007 0.374029 -0.348146 -1.945390
 20 22.550726 -0.000027 -0.000013 -0.105787 0.202436 1.885012
 21 30.814270 -0.000023 0.000002 -2.286404 0.331239 -0.242774
 22 -4.250660 -0.770624 0.000001 0.000000 0.000000 -2.937252
 23 10.363422 0.000000 0.000000 -0.000000 -0.000008 -0.630269
 24 10.363076 0.000000 -0.000000 0.000000 0.000009 -0.794633
 25 10.363081 -0.000004 -0.000002 -0.000009 -0.000015 -0.573398
 26 8.210358 -0.000006 -7.786025 -0.080688 0.099815 -0.975755
 27 8.210346 -0.000002 7.704017 0.053643 -0.073376 -0.961122
 28 1.854841 1.227791 -13.762345 2.622020 -0.030069 1.444857
 29 10.456543 -0.000004 0.000004 0.027676 0.017241 -1.629631
 30 24.248093 0.000001 0.000007 0.053413 0.025509 1.616192
 31 26.336971 0.000019 0.000002 0.377131 0.183930 -0.435960
 32 1.854847 1.227798 13.762341 -2.688809 -0.003913 1.426647
 33 10.456542 -0.000008 0.000004 -0.017010 -0.008398 -1.638755
 34 24.248116 0.000002 -0.000004 0.010374 -0.007863 1.615265
 35 26.336975 0.000000 0.000004 -0.391010 -0.227477 -0.440239
time 18
  0 0.000000 0.000000 0.000000 0.000000 -0.000000 -1.570796
  1 0.000000 0.000000 0.000000 0.000000 -0.000000 0.000000
  2 0.000000 -7.111869 44.414909 -1.571372 -0.376681 1.571372
  3 4.222169 -0.467508 0.000000 -0.003794 -0.000519 -0.056185
  4 4.476987 -0.000002 -0.000000 0.019534 -0.012860 0.229046
  5 4.477083 0.000000 0.000002 0.002183 0.030743 0.151737
  6 4.477077 -0.000004 -0.000002 -0.016053 -0.015331 -0.033826
  7 5.487723 -7.700466 -0.000000 0.006313 -0.043090 0.277918
  8 6.890240 0.000002 -0.000000 -0.027900 -0.063664 0.175931
  9 8.011925 0.000004 0.000005 0.020837 -0.034603 0.131470
 10 7.210720 -0.000002 -0.000000 -0.010404 -0.040748 -0.046206
 11 8.581028 -0.304903 -0.000000 0.035276 0.063487 0.779770
 12 22.523008 2.194031 6.355708 0.000000 -0.174940 0.000000
 13 22.523005 2.194038 -6.355709 0.000000 0.246107 0.000000
 14 -3.006533 7.804720 -11.355459 0.156941 -0.003802 1.510105
 15 10.384675 0.000008 0.000005 -0.263043 0.398519 -1.570732
 16 22.550743 -0.000006 -0.000004 0.193330 -0.231888 1.495388
 17 30.814247 -0.000015 -0.000004 2.423470 0.061948 0.219418
 18 -3.013796 7.815494 11.355459 -0.349504 0.099173 2.117921
 19 10.374533 -0.000002 0.000007 0.401734 -0.368345 -1.938374
 20 22.550726 -0.000027 -0.000013 -0.114428 0.226994 1.850333
 21 30.814270 -0.000023 0.000002 -2.266022 0.324902 -0.232064
 22 -4.250660 -0.770624 0.000001 0.000000 0.000000 -2.966161
 23 10.363422 0.000000 0.000000 0.000000 -0.000008 -0.627540
 24 10.363076 0.000000 -0.000000 0.000000 0.000009 -0.797291
 25 10.363081 -0.000004 -0.000002 -0.000009 -0.000015 -0.583386
 26 8.210358 -0.000006 -7.786025 -0.066519 0.105758 -0.905777
 27 8.210346 -0.000002 7.704017 0.043312 -0.080154 -0.901272
 28 1.854841 1.227791 -13.762345 2.641720 -0.007667 1.509752
 29 10.456543 -0.000004 0.000004 0.026593 0.010017 -1.617300
 30 24.248093 0.000001 0.000007 0.054377 0.024581 1.631288
 31 26.336971 0.000019 0.000002 0.359991 0.188134 -0.455897
 32 1.854847 1.227798 13.762341 -2.712004 -0.026624 1.492905
 33 10.456542 -0.000008 0.000004 -0.014602 -0.000244 -1.626302
 34 24.248116 0.000002 -0.000004 0.015193 -0.005681 1.632731
 35 26.336975 0.000000 0.000004 -0.376129 -0.235015 -0.459285
time 19
  0 0.000000 0.000000 0.000000 0.000000 -0.000000 -1.570796
  1 0.000000 0.000000 0.000000 0.000000 -0.000000 0.000000
  2 0.000000 -7.432192 43.961769 -1.571372 -0.447326 1.571372
  3 4.222169 -0.467508 0.000000 -0.004010 -0.000482 -0.060555
  4 4.476987 -0.000002 -0.000000 0.019869 -0.012839 0.233818
  5 4.477083 0.000000 0.000002 0.002914 0.030808 0.165536
  6 4.477077 -0.000004 -0.000002 -0.016760 -0.015143 -0.026024
  7 5.491629 -7.700466 -0.000000 0.006951 -0.039199 0.287999
  8 6.890240 0.000002 -0.000000 -0.030573 -0.058514 0.213840
  9 8.011925 0.000004 0.000005 0.022540 -0.028325 0.158984
 10 7.210720 -0.000002 -0.000000 -0.011365 -0.040483 -0.022983
 11 8.581028 -0.304903 -0.000000 0.037136 0.054524 0.796840
 12 22.523008 2.194031 6.355708 0.000000 -0.190675 0.000000
 13 22.523005 2.194038 -6.355709 0.000000 0.268219 0.000000
 14 -3.006533 7.804720 -11.355459 0.197201 -0.048672 1.734666
 15 10.384675 0.000008 0.000005 -0.384659 0.404524 -1.811829
 16 22.550743 -0.000006 -0.000004 0.153268 -0.254530 1.689335
 17 30.814247 -0.000015 -0.000004 2.345459 -0.018679 0.091534
 18 -3.013796 7.815494 11.355459 -0.336420 0.115166 2.162838
 19 10.374533 -0.000002 0.000007 0.428901 -0.389143 -1.929618
 20 22.550726 -0.000027 -0.000013 -0.124110 0.251337 1.814103
 21 30.814270 -0.000023 0.000002 -2.245500 0.315385 -0.218927
 22 -4.250660 -0.770624 0.000001 0.000000 0.000000 -2.995147
 23 10.363422 0.000000 0.000000 0.000000 -0.000008 -0.623755
 24 10.363076 0.000000 -0.000000 0.000000 0.000009 -0.799975
 25 10.363081 -0.000004 -0.000002 -0.000009 -0.000015 -0.593265
 26 8.210358 -0.000006 -7.786025 -0.046586 0.113604 -0.803901
 27 8.210346 -0.000002 7.704017 0.026786 -0.087334 -0.800935
 28 1.854841 1.227791 -13.762345 2.662871 0.014242 1.577202
 29 10.456543 -0.000004 0.000004 0.025055 0.002792 -1.613089
 30 24.248093 0.000001 0.000007 0.055563 0.023592 1.649404
 31 26.336971 0.000019 0.000002 0.341675 0.193626 -0.478374
 32 1.854847 1.227798 13.762341 -2.735470 -0.048240 1.562008
 33 10.456542 -0.000008 0.000004 -0.012127 0.007798 -1.615543
 34 24.248116 0.000002 -0.000004 0.019908 -0.003536 1.655529
 35 26.336975 0.000000 0.000004 -0.360734 -0.242119 -0.478162
time 20
  0 0.000000 0.000000 0.000000 0.000000 -0.000000 -1.570796
  1 0.000000 0.000000 0.000000 0.000000 -0.000000 0.000000
  2 0.000000 -7.772046 43.360191 -1.571372 -0.521680 1.571372
  3 4.222169 -0.467508 0.000000 -0.004250 -0.000445 -0.064250
  4 4.476987 -0.000002 -0.000000 0.020205 -0.012817 0.239145
  5 4.477083 0.000000 0.000002 0.003657 0.030824 0.177913
  6 4.477077 -0.000004 -0.000002 -0.017431 -0.014917 -0.018954
  7 5.499442 -7.700466 -0.000000 0.007616 -0.035325 0.298080
  8 6.890240 0.000002 -0.000000 -0.033185 -0.053351 0.251586
  9 8.011925 0.000004 0.000005 0.024281 -0.022078 0.186394
 10 7.210720 -0.000002 -0.000000 -0.012326 -0.040200 0.000161
 11 8.581028 -0.304903 -0.000000 0.038859 0.045544 0.813804
 12 22.523008 2.194031 6.355708 0.000000 -0.206348 0.000000
 13 22.523005 2.194038 -6.355709 0.000000 0.290240 0.000000
 14 -3.006533 7.804720 -11.355459 0.247012 -0.088489 1.953871
 15 10.384675 0.000008 0.000005 -0.453348 0.411546 -1.915966
 16 22.550743 -0.000006 -0.000004 0.136204 -0.275020 1.773415
 17 30.814247 -0.000015 -0.000004 2.266400 -0.118083 -0.031193
 18 -3.013796 7.815494 11.355459 -0.322368 0.128618 2.203080
 19 10.374533 -0.000002 0.000007 0.456943 -0.409774 -1.926255
 20 22.550726 -0.000027 -0.000013 -0.133445 0.275071 1.785070
 21 30.814270 -0.000023 0.000002 -2.225294 0.304497 -0.205093
 22 -4.250660 -0.770624 0.000001 0.000000 0.000000 -3.024133
 23 10.363422 0.000000 0.000000 -0.000000 -0.000008 -0.618738
 24 10.363076 0.000000 -0.000000 0.000000 0.000009 -0.802660
 25 10.363081 -0.000004 -0.000002 -0.000009 -0.000015 -0.602957
 26 8.210358 -0.000006 -7.786025 -0.022719 0.122570 -0.680997
 27 8.210346 -0.000002 7.704017 0.007059 -0.095535 -0.678387
 28 1.854841 1.227791 -13.762345 2.685341 0.035262 1.646294
 29 10.456543 -0.000004 0.000004 0.023395 -0.004379 -1.607314
 30 24.248093 0.000001 0.000007 0.056935 0.022704 1.674624
 31 26.336971 0.000019 0.000002 0.322838 0.199986 -0.503060
 32 1.854847 1.227798 13.762341 -2.759374 -0.068515 1.632790
 33 10.456542 -0.000008 0.000004 -0.009481 0.015841 -1.606123
 34 24.248116 0.000002 -0.000004 0.024494 -0.001475 1.684875
 35 26.336975 0.000000 0.000004 -0.346755 -0.250526 -0.499582
time 21
  0 0.000000 0.000000 0.000000 0.000000 -0.000000 -1.570796
  1 0.000000 0.000000 0.000000 0.000000 -0.000000 0.000000
  2 0.000000 -8.123619 42.633606 -1.571372 -0.598907 1.571372
  3 4.222169 -0.467508 0.000000 -0.004609 -0.000464 -0.064710
  4 4.476987 -0.000002 -0.000000 0.020612 -0.012817 0.248202
  5 4.477083 0.000000 0.000002 0.004424 0.030792 0.188599
  6 4.477077 -0.000004 -0.000002 -0.017994 -0.014767 -0.014749
  7 5.507255 -7.700466 -0.000000 0.008281 -0.031485 0.308037
  8 6.890240 0.000002 -0.000000 -0.035702 -0.048202 0.288983
  9 8.011925 0.000004 0.000005 0.026063 -0.015912 0.213571
 10 7.210720 -0.000002 -0.000000 -0.013259 -0.039918 0.023090
 11 8.581028 -0.304903 -0.000000 0.040397 0.036650 0.830593
 12 22.523008 2.194031 6.355708 0.000000 -0.221868 0.000000
 13 22.523005 2.194038 -6.355709 0.000000 0.312080 0.000000
 14 -3.006533 7.804720 -11.355459 0.289877 -0.128765 2.149109
 15 10.384675 0.000008 0.000005 -0.488794 0.428710 -1.938514
 16 22.550743 -0.000006 -0.000004 0.139003 -0.298093 1.780195
 17 30.814247 -0.000015 -0.000004 2.198348 -0.215198 -0.127992
 18 -3.013796 7.815494 11.355459 -0.307501 0.139305 2.238192
 19 10.374533 -0.000002 0.000007 0.488558 -0.428678 -1.938432
 20 22.550726 -0.000027 -0.000013 -0.140350 0.298314 1.774648
 21 30.814270 -0.000023 0.000002 -2.205404 0.292092 -0.190506
 22 -4.250660 -0.770624 0.000001 0.000000 0.000000 -3.053042
 23 10.363422 0.000000 0.000000 0.000000 -0.000008 -0.612664
 24 10.363076 0.000000 -0.000000 0.000000 0.000009 -0.805344
 25 10.363081 -0.000004 -0.000002 -0.000009 -0.000015 -0.612434
 26 8.210358 -0.000006 -7.786025 0.003469 0.131026 -0.547019
 27 8.210346 -0.000002 7.704017 -0.014226 -0.104045 -0.545836
 28 1.854841 1.227791 -13.762345 2.708999 0.055074 1.716481
 29 10.456543 -0.000004 0.000004 0.021771 -0.011034 -1.606142
 30 24.248093 0.000001 0.000007 0.058418 0.022059 1.713400
 31 26.336971 0.000019 0.000002 0.304175 0.206792 -0.529513
 32 1.854847 1.227798 13.762341 -2.783886 -0.087340 1.704607
 33 10.456542 -0.000008 0.000004 -0.006802 0.023438 -1.603364
 34 24.248116 0.000002 -0.000004 0.028989 0.000503 1.720315
 35 26.336975 0.000000 0.000004 -0.336463 -0.262500 -0.526823
time 22
  0 0.000000 0.000000 0.000000 0.000000 -0.000000 -1.570796
  1 0.000000 0.000000 0.000000 0.000000 -0.000000 0.000000
  2 0.000000 -8.486912 41.801552 -1.571468 -0.677250 1.571468
  3 4.222169 -0.467508 0.000000 -0.005197 -0.000594 -0.060049
  4 4.476987 -0.000002 -0.000000 0.021116 -0.012839 0.263296
  5 4.477083 0.000000 0.000002 0.005215 0.030711 0.197462
  6 4.477077 -0.000004 -0.000002 -0.018437 -0.014767 -0.014936
  7 5.511161 -7.700466 -0.000000 0.008972 -0.027730 0.317807
  8 6.890240 0.000002 -0.000000 -0.038111 -0.043091 0.325682
  9 8.011925 0.000004 0.000005 0.027857 -0.009857 0.240254
 10 7.210720 -0.000002 -0.000000 -0.014192 -0.039618 0.045616
 11 8.581028 -0.304903 -0.000000 0.041775 0.027875 0.847066
 12 22.523008 2.194031 6.355708 0.000000 -0.237114 0.000000
 13 22.523005 2.194038 -6.355709 0.000000 0.333496 0.000000
 14 -3.006533 7.804720 -11.355459 0.301651 -0.155298 2.262076
 15 10.384675 0.000008 0.000005 -0.520543 0.447063 -1.952899
 16 22.550743 -0.000006 -0.000004 0.145480 -0.321396 1.774323
 17 30.814247 -0.000015 -0.000004 2.158163 -0.263662 -0.165559
 18 -3.013796 7.815494 11.355459 -0.292075 0.147339 2.268060
 19 10.374533 -0.000002 0.000007 0.522263 -0.446219 -1.957799
 20 22.550726 -0.000027 -0.000013 -0.146702 0.321773 1.770429
 21 30.814270 -0.000023 0.000002 -2.185407 0.278317 -0.175556
 22 -4.250660 -0.770624 0.000001 0.000000 0.000000 -3.081823
 23 10.363422 0.000000 0.000000 0.000000 -0.000008 -0.605732
 24 10.363076 0.000000 -0.000000 0.000000 0.000009 -0.808028
 25 10.363081 -0.000004 -0.000002 -0.000009 -0.000015 -0.621616
 26 8.210358 -0.000006 -7.786025 0.029889 0.138464 -0.412702
 27 8.210346 -0.000002 7.704017 -0.035762 -0.112091 -0.413183
 28 1.854841 1.227791 -13.762345 2.733624 0.073479 1.786972
 29 10.456543 -0.000004 0.000004 0.020373 -0.016604 -1.616475
 30 24.248093 0.000001 0.000007 0.059938 0.021473 1.757979
 31 26.336971 0.000019 0.000002 0.286208 0.213703 -0.557237
 32 1.854847 1.227798 13.762341 -2.809006 -0.104633 1.776423
 33 10.456542 -0.000008 0.000004 -0.004327 0.029866 -1.613769
 34 24.248116 0.000002 -0.000004 0.033432 0.002384 1.760577
 35 26.336975 0.000000 0.000004 -0.327414 -0.275808 -0.556494
time 23
  0 0.000000 0.000000 0.000000 0.000000 -0.000000 -1.570796
  1 0.000000 0.000000 0.000000 0.000000 -0.000000 0.000000
  2 0.000000 -8.854111 40.883553 -1.571563 -0.745741 1.571563
  3 4.222169 -0.467508 0.000000 -0.005976 -0.000835 -0.050849
  4 4.476987 -0.000002 -0.000000 0.021727 -0.012924 0.283740
  5 4.477083 0.000000 0.000002 0.006006 0.030582 0.204592
  6 4.477077 -0.000004 -0.000002 -0.018773 -0.014880 -0.019047
  7 5.518974 -7.700466 -0.000000 0.009663 -0.024042 0.327391
  8 6.890240 0.000002 -0.000000 -0.040388 -0.038073 0.361520
  9 8.011925 0.000004 0.000005 0.029677 -0.003946 0.266314
 10 7.210720 -0.000002 -0.000000 -0.015098 -0.039300 0.067633
 11 8.581028 -0.304903 -0.000000 0.042992 0.019271 0.863154
 12 22.523008 2.194031 6.355708 0.000000 -0.252023 0.000000
 13 22.523005 2.194038 -6.355709 0.000000 0.354459 0.000000
 14 -3.006533 7.804720 -11.355459 0.287707 -0.160315 2.292705
 15 10.384675 0.000008 0.000005 -0.557147 0.463102 -1.978892
 16 22.550743 -0.000006 -0.000004 0.148694 -0.344153 1.779105
 17 30.814247 -0.000015 -0.000004 2.144055 -0.264007 -0.160295
 18 -3.013796 7.815494 11.355459 -0.276139 0.152570 2.292342
 19 10.374533 -0.000002 0.000007 0.556306 -0.463295 -1.976644
 20 22.550726 -0.000027 -0.000013 -0.149767 0.344133 1.775826
 21 30.814270 -0.000023 0.000002 -2.169095 0.266059 -0.161387
 22 -4.250660 -0.770624 0.000001 0.000000 0.000000 -3.110502
 23 10.363422 0.000000 0.000000 0.000000 -0.000008 -0.598096
 24 10.363076 0.000000 -0.000000 0.000000 0.000009 -0.810712
 25 10.363081 -0.000004 -0.000002 -0.000009 -0.000015 -0.630503
 26 8.210358 -0.000006 -7.786025 0.054403 0.145358 -0.288066
 27 8.210346 -0.000002 7.704017 -0.056004 -0.119735 -0.289788
 28 1.854841 1.227791 -13.762345 2.755347 0.090775 1.850468
 29 10.456543 -0.000004 0.000004 0.019098 -0.021943 -1.631455
 30 24.248093 0.000001 0.000007 0.061346 0.020848 1.802853
 31 26.336971 0.000019 0.000002 0.269459 0.220536 -0.586065
 32 1.854847 1.227798 13.762341 -2.832269 -0.121324 1.840743
 33 10.456542 -0.000008 0.000004 -0.001986 0.036128 -1.629257
 34 24.248116 0.000002 -0.000004 0.037863 0.004218 1.804496
 35 26.336975 0.000000 0.000004 -0.317980 -0.288744 -0.585826
time 24
  0 0.000000 0.000000 0.000000 0.000000 -0.000000 -1.570796
  1 0.000000 0.000000 0.000000 0.000000 -0.000000 0.000000
  2 0.000000 -9.221309 39.906960 -1.571659 -0.795643 1.571659
  3 4.222169 -0.467508 0.000000 -0.006922 -0.001131 -0.037907
  4 4.476987 -0.000002 -0.000000 0.022398 -0.013031 0.308468
  5 4.477083 0.000000 0.000002 0.006785 0.030436 0.210150
  6 4.477077 -0.000004 -0.000002 -0.019001 -0.015124 -0.026429
  7 5.526786 -7.700466 -0.000000 0.010341 -0.020491 0.336663
  8 6.890240 0.000002 -0.000000 -0.042521 -0.033198 0.396125
  9 8.011925 0.000004 0.000005 0.031485 0.001725 0.291544
 10 7.210720 -0.000002 -0.000000 -0.015949 -0.039000 0.088899
 11 8.581028 -0.304903 -0.000000 0.044048 0.010956 0.878681
 12 22.523008 2.194031 6.355708 0.000000 -0.266413 0.000000
 13 22.523005 2.194038 -6.355709 0.000000 0.374695 0.000000
 14 -3.006533 7.804720 -11.355459 0.266220 -0.156464 2.295452
 15 10.384675 0.000008 0.000005 -0.597561 0.476639 -2.013937
 16 22.550743 -0.000006 -0.000004 0.145464 -0.364845 1.801563
 17 30.814247 -0.000015 -0.000004 2.137372 -0.254885 -0.147760
 18 -3.013796 7.815494 11.355459 -0.257861 0.151487 2.301975
 19 10.374533 -0.000002 0.000007 0.593718 -0.478378 -2.003376
 20 22.550726 -0.000027 -0.000013 -0.141759 0.362979 1.811187
 21 30.814270 -0.000023 0.000002 -2.162149 0.260260 -0.150426
 22 -4.250660 -0.770624 0.000001 0.000000 0.000000 -3.138950
 23 10.363422 0.000000 0.000000 0.000000 -0.000008 -0.589954
 24 10.363076 0.000000 -0.000000 0.000000 0.000009 -0.813396
 25 10.363081 -0.000004 -0.000002 -0.000009 -0.000015 -0.639013
 26 8.210358 -0.000006 -7.786025 0.074886 0.153271 -0.183234
 27 8.210346 -0.000002 7.704017 -0.073238 -0.127813 -0.185449
 28 1.854841 1.227791 -13.762345 2.771661 0.107675 1.902044
 29 10.456543 -0.000004 0.000004 0.017857 -0.027441 -1.646087
 30 24.248093 0.000001 0.000007 0.062718 0.020202 1.848498
 31 26.336971 0.000019 0.000002 0.254190 0.227158 -0.615777
 32 1.854847 1.227798 13.762341 -2.852054 -0.138452 1.892828
 33 10.456542 -0.000008 0.000004 0.000388 0.042695 -1.644510
 34 24.248116 0.000002 -0.000004 0.042267 0.005932 1.850039
 35 26.336975 0.000000 0.000004 -0.308417 -0.301494 -0.615045
time 25
  0 0.000000 0.000000 0.000000 0.000000 -0.000000 -1.570796
  1 0.000000 0.000000 0.000000 0.000000 -0.000000 0.000000
  2 0.000000 -9.580694 38.883492 -1.571659 -0.826597 1.571660
  3 4.222169 -0.467508 0.000000 -0.007989 -0.001483 -0.021868
  4 4.476987 -0.000002 -0.000000 0.023129 -0.013181 0.336659
  5 4.477083 0.000000 0.000002 0.007564 0.030243 0.214359
  6 4.477077 -0.000004 -0.000002 -0.019133 -0.015444 -0.036536
  7 5.530693 -7.700466 -0.000000 0.011005 -0.017076 0.345562
  8 6.890240 0.000002 -0.000000 -0.044511 -0.028466 0.429379
  9 8.011925 0.000004 0.000005 0.033292 0.007173 0.315788
 10 7.210720 -0.000002 -0.000000 -0.016773 -0.038682 0.109361
 11 8.581028 -0.304903 -0.000000 0.044944 0.002950 0.893613
 12 22.523008 2.194031 6.355708 0.000000 -0.280314 0.000000
 13 22.523005 2.194038 -6.355709 0.000000 0.394176 0.000000
 14 -3.006533 7.804720 -11.355459 0.242183 -0.146855 2.283571
 15 10.384675 0.000008 0.000005 -0.641897 0.487120 -2.057647
 16 22.550743 -0.000006 -0.000004 0.129679 -0.380485 1.854832
 17 30.814247 -0.000015 -0.000004 2.132699 -0.248678 -0.135298
 18 -3.013796 7.815494 11.355459 -0.236631 0.144723 2.295819
 19 10.374533 -0.000002 0.000007 0.640838 -0.487481 -2.055446
 20 22.550726 -0.000027 -0.000013 -0.129523 0.380568 1.856599
 21 30.814270 -0.000023 0.000002 -2.159027 0.257348 -0.140775
 22 -4.250660 -0.770624 0.000001 0.000000 0.000000 3.115992
 23 10.363422 0.000000 0.000000 0.000000 -0.000008 -0.581438
 24 10.363076 0.000000 -0.000000 0.000000 0.000009 -0.816106
 25 10.363081 -0.000004 -0.000002 -0.000009 -0.000015 -0.647121
 26 8.210358 -0.000006 -7.786025 0.087980 0.161151 -0.116517
 27 8.210346 -0.000002 7.704017 -0.084264 -0.135766 -0.118886
 28 1.854841 1.227791 -13.762345 2.783974 0.124526 1.944740
 29 10.456543 -0.000004 0.000004 0.016669 -0.033011 -1.660806
 30 24.248093 0.000001 0.000007 0.064016 0.019496 1.895030
 31 26.336971 0.000019 0.000002 0.239703 0.233675 -0.646869
 32 1.854847 1.227798 13.762341 -2.869543 -0.156320 1.935651
 33 10.456542 -0.000008 0.000004 0.002660 0.049402 -1.659919
 34 24.248116 0.000002 -0.000004 0.046633 0.007454 1.896243
 35 26.336975 0.000000 0.000004 -0.298897 -0.314089 -0.643982
time 26
  0 0.000000 0.000000 0.000000 0.000000 -0.000000 -1.570796
  1 0.000000 0.000000 0.000000 0.000000 -0.000000 0.000000
  2 0.000000 -9.936174 37.844398 -1.571659 -0.838564 1.571659
  3 4.222169 -0.467508 0.000000 -0.009163 -0.001873 -0.003575
  4 4.476987 -0.000002 -0.000000 0.023884 -0.013353 0.367224
  5 4.477083 0.000000 0.000002 0.008331 0.030049 0.217383
  6 4.477077 -0.000004 -0.000002 -0.019181 -0.015838 -0.048730
  7 5.538506 -7.700466 -0.000000 0.011643 -0.013848 0.354025
  8 6.890240 0.000002 -0.000000 -0.046344 -0.023983 0.460889
  9 8.011925 0.000004 0.000005 0.035034 0.012333 0.338785
 10 7.210720 -0.000002 -0.000000 -0.017541 -0.038382 0.128776
 11 8.581028 -0.304903 -0.000000 0.045702 -0.004647 0.907773
 12 22.523008 2.194031 6.355708 0.000000 -0.293451 0.000000
 13 22.523005 2.194038 -6.355709 0.000000 0.412658 0.000000
 14 -3.006533 7.804720 -11.355459 0.214999 -0.129401 2.252394
 15 10.384675 0.000008 0.000005 -0.691313 0.492402 -2.114852
 16 22.550743 -0.000006 -0.000004 0.109576 -0.393916 1.917060
 17 30.814247 -0.000015 -0.000004 2.133135 -0.245480 -0.121224
 18 -3.013796 7.815494 11.355459 -0.210665 0.126227 2.260878
 19 10.374533 -0.000002 0.000007 0.694159 -0.489541 -2.124971
 20 22.550726 -0.000027 -0.000013 -0.113631 0.395468 1.907904
 21 30.814270 -0.000023 0.000002 -2.158150 0.255171 -0.129507
 22 -4.250660 -0.770624 0.000001 0.000000 0.000000 3.088056
 23 10.363422 0.000000 0.000000 -0.000000 -0.000008 -0.572789
 24 10.363076 0.000000 -0.000000 0.000000 0.000009 -0.818791
 25 10.363081 -0.000004 -0.000002 -0.000009 -0.000015 -0.654799
 26 8.210358 -0.000006 -7.786025 0.092658 0.168724 -0.093791
 27 8.210346 -0.000002 7.704017 -0.087955 -0.143813 -0.096133
 28 1.854841 1.227791 -13.762345 2.789515 0.139576 1.970102
 29 10.456543 -0.000004 0.000004 0.015569 -0.038563 -1.675395
 30 24.248093 0.000001 0.000007 0.065313 0.018790 1.942332
 31 26.336971 0.000019 0.000002 0.232568 0.240297 -0.676525
 32 1.854847 1.227798 13.762341 -2.885175 -0.174215 1.960250
 33 10.456542 -0.000008 0.000004 0.004830 0.056109 -1.675211
 34 24.248116 0.000002 -0.000004 0.050895 0.008784 1.942548
 35 26.336975 0.000000 0.000004 -0.289463 -0.326591 -0.672523
time 27
  0 0.000000 0.000000 0.000000 0.000000 -0.000000 -1.570796
  1 0.000000 0.000000 0.000000 0.000000 -0.000000 0.000000
  2 0.000000 -10.276029 36.801399 -1.571659 -0.831743 1.571660
  3 4.222169 -0.467508 0.000000 -0.010398 -0.002281 0.016389
  4 4.476987 -0.000002 -0.000000 0.024639 -0.013588 0.399411
  5 4.477083 0.000000 0.000002 0.009062 0.029823 0.219398
  6 4.477077 -0.000004 -0.000002 -0.019169 -0.016289 -0.062465
  7 5.542412 -7.700466 -0.000000 0.012255 -0.010789 0.362022
  8 6.890240 0.000002 -0.000000 -0.048034 -0.019722 0.490583
  9 8.011925 0.000004 0.000005 0.036710 0.017190 0.360485
 10 7.210720 -0.000002 -0.000000 -0.018283 -0.038099 0.147066
 11 8.581028 -0.304903 -0.000000 0.046368 -0.011835 0.921127
 12 22.523008 2.194031 6.355708 0.000000 -0.305886 0.000000
 13 22.523005 2.194038 -6.355709 0.000000 0.430112 0.000000
 14 -3.006533 7.804720 -11.355459 0.184939 -0.103151 2.201095
 15 10.384675 0.000008 0.000005 -0.747415 0.488774 -2.193274
 16 22.550743 -0.000006 -0.000004 0.087090 -0.404275 1.982254
 17 30.814247 -0.000015 -0.000004 2.140342 -0.246045 -0.104392
 18 -3.013796 7.815494 11.355459 -0.181085 0.099808 2.206158
 19 10.374533 -0.000002 0.000007 0.749772 -0.485887 -2.201570
 20 22.550726 -0.000027 -0.000013 -0.084931 0.399983 1.984581
 21 30.814270 -0.000023 0.000002 -2.162114 0.254339 -0.114167
 22 -4.250660 -0.770624 0.000001 0.000000 0.000000 3.060351
 23 10.363422 0.000000 0.000000 0.000000 -0.000008 -0.564097
 24 10.363076 0.000000 -0.000000 0.000000 0.000009 -0.821475
 25 10.363081 -0.000004 -0.000002 -0.000009 -0.000015 -0.661994
 26 8.210358 -0.000006 -7.786025 0.090447 0.176807 -0.107719
 27 8.210346 -0.000002 7.704017 -0.085582 -0.152633 -0.110001
 28 1.854841 1.227791 -13.762345 2.780412 0.149494 1.957026
 29 10.456543 -0.000004 0.000004 0.014556 -0.044043 -1.689897
 30 24.248093 0.000001 0.000007 0.066574 0.018043 1.990581
 31 26.336971 0.000019 0.000002 0.249665 0.247708 -0.696462
 32 1.854847 1.227798 13.762341 -2.897668 -0.191316 1.944224
 33 10.456542 -0.000008 0.000004 0.006865 0.062732 -1.690345
 34 24.248116 0.000002 -0.000004 0.055079 0.009923 1.988954
 35 26.336975 0.000000 0.000004 -0.280286 -0.339030 -0.700611
time 28
  0 0.000000 0.000000 0.000000 0.000000 -0.000000 -1.570796
  1 0.000000 0.000000 0.000000 0.000000 -0.000000 0.000000
  2 0.000000 -10.600258 35.777931 -1.571564 -0.806094 1.571564
  3 4.222169 -0.467508 0.000000 -0.011656 -0.002670 0.037136
  4 4.476987 -0.000002 -0.000000 0.025382 -0.013824 0.432019
  5 4.477083 0.000000 0.000002 0.009745 0.029613 0.220599
  6 4.477077 -0.000004 -0.000002 -0.019109 -0.016759 -0.077088
  7 5.546318 -7.700466 -0.000000 0.012800 -0.007952 0.369427
  8 6.890240 0.000002 -0.000000 -0.049568 -0.015788 0.518020
  9 8.011925 0.000004 0.000005 0.038282 0.021679 0.380575
 10 7.210720 -0.000002 -0.000000 -0.018941 -0.037835 0.164014
 11 8.581028 -0.304903 -0.000000 0.046896 -0.018493 0.933464
 12 22.523008 2.194031 6.355708 0.000000 -0.317404 0.000000
 13 22.523005 2.194038 -6.355709 0.000000 0.446265 0.000000
 14 -3.006533 7.804720 -11.355459 0.151732 -0.067326 2.128919
 15 10.384675 0.000008 0.000005 -0.804002 0.479609 -2.275417
 16 22.550743 -0.000006 -0.000004 0.057264 -0.404161 2.059494
 17 30.814247 -0.000015 -0.000004 2.154276 -0.249493 -0.083013
 18 -3.013796 7.815494 11.355459 -0.148806 0.064907 2.133767
 19 10.374533 -0.000002 0.000007 0.805183 -0.477681 -2.279850
 20 22.550726 -0.000027 -0.000013 -0.053596 0.399807 2.066284
 21 30.814270 -0.000023 0.000002 -2.172954 0.255269 -0.092412
 22 -4.250660 -0.770624 0.000001 0.000000 0.000000 3.033081
 23 10.363422 0.000000 0.000000 0.000000 -0.000008 -0.555603
 24 10.363076 0.000000 -0.000000 0.000000 0.000009 -0.824159
 25 10.363081 -0.000004 -0.000002 -0.000009 -0.000015 -0.668652
 26 8.210358 -0.000006 -7.786025 0.083119 0.185671 -0.150249
 27 8.210346 -0.000002 7.704017 -0.078643 -0.162381 -0.152354
 28 1.854841 1.227791 -13.762345 2.768012 0.157809 1.935191
 29 10.456543 -0.000004 0.000004 0.013665 -0.049364 -1.704009
 30 24.248093 0.000001 0.000007 0.067797 0.017256 2.039481
 31 26.336971 0.000019 0.000002 0.274941 0.255302 -0.711870
 32 1.854847 1.227798 13.762341 -2.908945 -0.208554 1.919151
 33 10.456542 -0.000008 0.000004 0.008663 0.069077 -1.705005
 34 24.248116 0.000002 -0.000004 0.059121 0.010857 2.034954
 35 26.336975 0.000000 0.000004 -0.271452 -0.351470 -0.728022
time 29
  0 0.000000 0.000000 0.000000 0.000000 -0.000000 -1.570796
  1 0.000000 0.000000 0.000000 0.000000 -0.000000 0.000000
  2 0.000000 -10.901048 34.801338 -1.571468 -0.761338 1.571468
  3 4.222169 -0.467508 0.000000 -0.012915 -0.003059 0.057974
  4 4.476987 -0.000002 -0.000000 0.026089 -0.014102 0.464160
  5 4.477083 0.000000 0.000002 0.010392 0.029386 0.221162
  6 4.477077 -0.000004 -0.000002 -0.019001 -0.017248 -0.092007
  7 5.550225 -7.700466 -0.000000 0.013305 -0.005369 0.376179
  8 6.890240 0.000002 -0.000000 -0.050958 -0.012207 0.543037
  9 8.011925 0.000004 0.000005 0.039723 0.025769 0.398901
 10 7.210720 -0.000002 -0.000000 -0.019545 -0.037605 0.179515
 11 8.581028 -0.304903 -0.000000 0.047355 -0.024570 0.944750
 12 22.523008 2.194031 6.355708 0.000000 -0.327944 0.000000
 13 22.523005 2.194038 -6.355709 0.000000 0.461026 0.000000
 14 -3.006533 7.804720 -11.355459 0.116951 -0.025283 2.044451
 15 10.384675 0.000008 0.000005 -0.859095 0.466476 -2.355893
 16 22.550743 -0.000006 -0.000004 0.026286 -0.399942 2.138912
 17 30.814247 -0.000015 -0.000004 2.174630 -0.254571 -0.054793
 18 -3.013796 7.815494 11.355459 -0.115000 0.023318 2.049065
 19 10.374533 -0.000002 0.000007 0.859718 -0.465222 -2.358362
 20 22.550726 -0.000027 -0.000013 -0.023425 0.397451 2.145319
 21 30.814270 -0.000023 0.000002 -2.193020 0.258719 -0.061676
 22 -4.250660 -0.770624 0.000001 0.000000 0.000000 3.006117
 23 10.363422 0.000000 0.000000 0.000000 -0.000008 -0.547482
 24 10.363076 0.000000 -0.000000 0.000000 0.000009 -0.826843
 25 10.363081 -0.000004 -0.000002 -0.000009 -0.000015 -0.674747
 26 8.210358 -0.000006 -7.786025 0.072468 0.195350 -0.213468
 27 8.210346 -0.000002 7.704017 -0.068660 -0.173027 -0.215289
 28 1.854841 1.227791 -13.762345 2.753808 0.165383 1.910498
 29 10.456543 -0.000004 0.000004 0.012896 -0.054453 -1.717729
 30 24.248093 0.000001 0.000007 0.069020 0.016449 2.089328
 31 26.336971 0.000019 0.000002 0.302435 0.262949 -0.725235
 32 1.854847 1.227798 13.762341 -2.919546 -0.225409 1.891320
 33 10.456542 -0.000008 0.000004 0.010256 0.075060 -1.719036
 34 24.248116 0.000002 -0.000004 0.062994 0.011600 2.080294
 35 26.336975 0.000000 0.000004 -0.263261 -0.363444 -0.753737
time 30
  0 0.000000 0.000000 0.000000 0.000000 -0.000000 -1.570796
  1 0.000000 0.000000 0.000000 0.000000 -0.000000 0.000000
  2 0.000000 -11.178400 33.879433 -1.571468 -0.705253 1.571468
  3 4.222169 -0.467508 0.000000 -0.014125 -0.003411 0.078322
  4 4.476987 -0.000002 -0.000000 0.026748 -0.014381 0.495081
  5 4.477083 0.000000 0.000002 0.010992 0.029176 0.221281
  6 4.477077 -0.000004 -0.000002 -0.018881 -0.017736 -0.106739
  7 5.554131 -7.700466 -0.000000 0.013743 -0.003024 0.382309
  8 6.890240 0.000002 -0.000000 -0.052229 -0.008979 0.565587
  9 8.011925 0.000004 0.000005 0.041019 0.029443 0.415435
 10 7.210720 -0.000002 -0.000000 -0.020094 -0.037393 0.193487
 11 8.581028 -0.304903 -0.000000 0.047723 -0.030050 0.954950
 12 22.523008 2.194031 6.355708 0.000000 -0.337446 0.000000
 13 22.523005 2.194038 -6.355709 0.000000 0.474366 0.000000
 14 -3.006533 7.804720 -11.355459 0.081140 0.020152 1.954146
 15 10.384675 0.000008 0.000005 -0.912694 0.449312 -2.435370
 16 22.550743 -0.000006 -0.000004 -0.004196 -0.393686 2.218332
 17 30.814247 -0.000015 -0.000004 2.200663 -0.260465 -0.018587
 18 -3.013796 7.815494 11.355459 -0.079972 -0.021672 1.958434
 19 10.374533 -0.000002 0.000007 0.912972 -0.448478 -2.436816
 20 22.550726 -0.000027 -0.000013 0.005520 0.392680 2.221563
 21 30.814270 -0.000023 0.000002 -2.218243 0.263832 -0.025250
 22 -4.250660 -0.770624 0.000001 0.000000 0.000000 2.980614
 23 10.363422 0.000000 0.000000 -0.000000 -0.000008 -0.539846
 24 10.363076 0.000000 -0.000000 0.000000 0.000009 -0.829553
 25 10.363081 -0.000004 -0.000002 -0.000009 -0.000015 -0.680251
 26 8.210358 -0.000006 -7.786025 0.059948 0.205777 -0.290444
 27 8.210346 -0.000002 7.704017 -0.056867 -0.184385 -0.291890
 28 1.854841 1.227791 -13.762345 2.727424 0.170268 1.864457
 29 10.456543 -0.000004 0.000004 0.012250 -0.059276 -1.730972
 30 24.248093 0.000001 0.000007 0.070170 0.015622 2.138406
 31 26.336971 0.000019 0.000002 0.332931 0.270938 -0.736501
 32 1.854847 1.227798 13.762341 -2.927177 -0.239063 1.839623
 33 10.456542 -0.000008 0.000004 0.011613 0.080570 -1.732357
 34 24.248116 0.000002 -0.000004 0.066725 0.012152 2.124974
 35 26.336975 0.000000 0.000004 -0.255928 -0.374767 -0.777305
time 31
  0 0.000000 0.000000 0.000000 0.000000 -0.000000 -1.570796
  1 0.000000 0.000000 0.000000 0.000000 -0.000000 0.000000
  2 0.000000 -11.424501 33.047379 -1.571468 -0.646615 1.571468
  3 4.222169 -0.467508 0.000000 -0.015252 -0.003745 0.097259
  4 4.476987 -0.000002 -0.000000 0.027324 -0.014616 0.523538
  5 4.477083 0.000000 0.000002 0.011519 0.028983 0.221103
  6 4.477077 -0.000004 -0.000002 -0.018737 -0.018187 -0.120552
  7 5.558037 -7.700466 -0.000000 0.014089 -0.000985 0.387630
  8 6.890240 0.000002 -0.000000 -0.053367 -0.006208 0.585228
  9 8.011925 0.000004 0.000005 0.042106 0.032670 0.429815
 10 7.210720 -0.000002 -0.000000 -0.020588 -0.037217 0.205688
 11 8.581028 -0.304903 -0.000000 0.048067 -0.034814 0.963817
 12 22.523008 2.194031 6.355708 0.000000 -0.345726 0.000000
 13 22.523005 2.194038 -6.355709 0.000000 0.485982 0.000000
 14 -3.006533 7.804720 -11.355459 0.043972 0.067388 1.859995
 15 10.384675 0.000008 0.000005 -0.964052 0.428477 -2.512848
 16 22.550743 -0.000006 -0.000004 -0.033846 -0.385306 2.297145
 17 30.814247 -0.000015 -0.000004 2.229753 -0.267142 0.022310
 18 -3.013796 7.815494 11.355459 -0.043519 -0.068381 1.864099
 19 10.374533 -0.000002 0.000007 0.964203 -0.427913 -2.513820
 20 22.550726 -0.000027 -0.000013 0.032525 0.385731 2.293278
 21 30.814270 -0.000023 0.000002 -2.244237 0.269631 0.012543
 22 -4.250660 -0.770624 0.000001 0.000000 0.000000 2.963637
 23 10.363422 0.000000 0.000000 0.000000 -0.000008 -0.532936
 24 10.363076 0.000000 -0.000000 0.000000 0.000009 -0.832238
 25 10.363081 -0.000004 -0.000002 -0.000009 -0.000015 -0.685083
 26 8.210358 -0.000006 -7.786025 0.046451 0.215966 -0.373738
 27 8.210346 -0.000002 7.704017 -0.044091 -0.195464 -0.374730
 28 1.854841 1.227791 -13.762345 2.699852 0.173475 1.816530
 29 10.456543 -0.000004 0.000004 0.011743 -0.063706 -1.743520
 30 24.248093 0.000001 0.000007 0.070651 0.014976 2.173335
 31 26.336971 0.000019 0.000002 0.362949 0.278559 -0.745668
 32 1.854847 1.227798 13.762341 -2.933828 -0.252388 1.784479
 33 10.456542 -0.000008 0.000004 0.012698 0.085440 -1.744692
 34 24.248116 0.000002 -0.000004 0.070235 0.012535 2.168334
 35 26.336975 0.000000 0.000004 -0.249410 -0.385314 -0.798498
time 32
  0 0.000000 0.000000 0.000000 0.000000 -0.000000 -1.570796
  1 0.000000 0.000000 0.000000 0.000000 -0.000000 0.000000
  2 0.000000 -11.635445 32.312981 -1.571563 -0.589293 1.571563
  3 4.222169 -0.467508 0.000000 -0.016270 -0.004042 0.114203
  4 4.476987 -0.000002 -0.000000 0.027815 -0.014873 0.548821
  5 4.477083 0.000000 0.000002 0.011974 0.028821 0.220836
  6 4.477077 -0.000004 -0.000002 -0.018617 -0.018601 -0.132964
  7 5.561944 -7.700466 -0.000000 0.014342 0.000748 0.392141
  8 6.890240 0.000002 -0.000000 -0.054410 -0.003882 0.601867
  9 8.011925 0.000004 0.000005 0.042984 0.035418 0.442014
 10 7.210720 -0.000002 -0.000000 -0.020973 -0.037075 0.216067
 11 8.581028 -0.304903 -0.000000 0.048365 -0.038842 0.971318
 12 22.523008 2.194031 6.355708 0.000000 -0.352783 0.000000
 13 22.523005 2.194038 -6.355709 0.000000 0.495873 0.000000
 14 -3.006533 7.804720 -11.355459 0.004362 0.115932 1.761792
 15 10.384675 0.000008 0.000005 -1.011899 0.404630 -2.586826
 16 22.550743 -0.000006 -0.000004 -0.061785 -0.375032 2.373114
 17 30.814247 -0.000015 -0.000004 2.259368 -0.274540 0.064138
 18 -3.013796 7.815494 11.355459 -0.004672 -0.116585 1.765660
 19 10.374533 -0.000002 0.000007 1.011997 -0.404226 -2.587520
 20 22.550726 -0.000027 -0.000013 0.055628 0.377191 2.355377
 21 30.814270 -0.000023 0.000002 -2.270267 0.276090 0.050643
 22 -4.250660 -0.770624 0.000001 0.000000 0.000000 2.948325
 23 10.363422 0.000000 0.000000 0.000000 -0.000008 -0.526863
 24 10.363076 0.000000 -0.000000 0.000000 0.000009 -0.834948
 25 10.363081 -0.000004 -0.000002 -0.000009 -0.000015 -0.689244
 26 8.210358 -0.000006 -7.786025 0.032722 0.225135 -0.457305
 27 8.210346 -0.000002 7.704017 -0.031028 -0.205491 -0.457876
 28 1.854841 1.227791 -13.762345 2.673512 0.175375 1.771158
 29 10.456543 -0.000004 0.000004 0.011359 -0.067728 -1.755330
 30 24.248093 0.000001 0.000007 0.071096 0.014452 2.205363
 31 26.336971 0.000019 0.000002 0.390356 0.285365 -0.752848
 32 1.854847 1.227798 13.762341 -2.939939 -0.266206 1.729120
 33 10.456542 -0.000008 0.000004 0.013512 0.089587 -1.755924
 34 24.248116 0.000002 -0.000004 0.073539 0.012751 2.210577
 35 26.336975 0.000000 0.000004 -0.243707 -0.395148 -0.817544
time 33
  0 0.000000 0.000000 0.000000 0.000000 -0.000000 -1.570796
  1 0.000000 0.000000 0.000000 0.000000 -0.000000 0.000000
  2 0.000000 -11.807325 31.707493 -1.571659 -0.537716 1.571659
  3 4.222169 -0.467508 0.000000 -0.017121 -0.004301 0.128279
  4 4.476987 -0.000002 -0.000000 0.028186 -0.015066 0.569776
  5 4.477083 0.000000 0.000002 0.012358 0.028676 0.220658
  6 4.477077 -0.000004 -0.000002 -0.018509 -0.018958 -0.143273
  7 5.565850 -7.700466 -0.000000 0.014501 0.002158 0.395751
  8 6.890240 0.000002 -0.000000 -0.055321 -0.002065 0.615155
  9 8.011925 0.000004 0.000005 0.043612 0.037622 0.451722
 10 7.210720 -0.000002 -0.000000 -0.021302 -0.037005 0.224380
 11 8.581028 -0.304903 -0.000000 0.048687 -0.042052 0.977347
 12 22.523008 2.194031 6.355708 0.000000 -0.358405 0.000000
 13 22.523005 2.194038 -6.355709 0.000000 0.503829 0.000000
 14 -3.006533 7.804720 -11.355459 -0.036604 0.162427 1.665512
 15 10.384675 0.000008 0.000005 -1.039389 0.387656 -2.632480
 16 22.550743 -0.000006 -0.000004 -0.076642 -0.366595 2.413429
 17 30.814247 -0.000015 -0.000004 2.286449 -0.282063 0.102421
 18 -3.013796 7.815494 11.355459 0.035345 -0.162957 1.669272
 19 10.374533 -0.000002 0.000007 1.039500 -0.387116 -2.633444
 20 22.550726 -0.000027 -0.000013 0.073603 0.368338 2.404449
 21 30.814270 -0.000023 0.000002 -2.295525 0.283063 0.087766
 22 -4.250660 -0.770624 0.000001 0.000000 0.000000 2.934779
 23 10.363422 0.000000 0.000000 0.000000 -0.000008 -0.521867
 24 10.363076 0.000000 -0.000000 0.000000 0.000009 -0.837632
 25 10.363081 -0.000004 -0.000002 -0.000009 -0.000015 -0.692627
 26 8.210358 -0.000006 -7.786025 0.019983 0.232675 -0.533567
 27 8.210346 -0.000002 7.704017 -0.018876 -0.213785 -0.533764
 28 1.854841 1.227791 -13.762345 2.649107 0.176189 1.729922
 29 10.456543 -0.000004 0.000004 0.011114 -0.071216 -1.766228
 30 24.248093 0.000001 0.000007 0.071504 0.014008 2.234786
 31 26.336971 0.000019 0.000002 0.414675 0.291146 -0.758094
 32 1.854847 1.227798 13.762341 -2.945173 -0.279969 1.675096
 33 10.456542 -0.000008 0.000004 0.014021 0.092815 -1.765777
 34 24.248116 0.000002 -0.000004 0.076505 0.012823 2.249622
 35 26.336975 0.000000 0.000004 -0.238732 -0.404176 -0.834330
time 34
  0 0.000000 0.000000 0.000000 0.000000 -0.000000 -1.570796
  1 0.000000 0.000000 0.000000 0.000000 -0.000000 0.000000
  2 0.000000 -11.936235 31.246540 -1.571755 -0.495313 1.571755
  3 4.222169 -0.467508 0.000000 -0.017780 -0.004524 0.138890
  4 4.476987 -0.000002 -0.000000 0.028450 -0.015216 0.585624
  5 4.477083 0.000000 0.000002 0.012645 0.028547 0.220747
  6 4.477077 -0.000004 -0.000002 -0.018461 -0.019221 -0.150997
  7 5.565850 -7.700466 -0.000000 0.014541 0.003211 0.398427
  8 6.890240 0.000002 -0.000000 -0.056148 -0.000797 0.625022
  9 8.011925 0.000004 0.000005 0.043953 0.039284 0.458886
 10 7.210720 -0.000002 -0.000000 -0.021549 -0.036970 0.230575
 11 8.581028 -0.304903 -0.000000 0.048985 -0.044408 0.981763
 12 22.523008 2.194031 6.355708 0.000000 -0.362590 0.000000
 13 22.523005 2.194038 -6.355709 0.000000 0.509727 0.000000
 14 -3.006533 7.804720 -11.355459 -0.076593 0.205389 1.575413
 15 10.384675 0.000008 0.000005 -1.060642 0.373314 -2.668747
 16 22.550743 -0.000006 -0.000004 -0.088013 -0.359363 2.444482
 17 30.814247 -0.000015 -0.000004 2.309031 -0.288991 0.134042
 18 -3.013796 7.815494 11.355459 0.074803 -0.206004 1.578584
 19 10.374533 -0.000002 0.000007 1.060734 -0.372731 -2.669743
 20 22.550726 -0.000027 -0.000013 0.087147 0.360054 2.441981
 21 30.814270 -0.000023 0.000002 -2.319800 0.290501 0.123383
 22 -4.250660 -0.770624 0.000001 0.000000 0.000000 2.924076
 23 10.363422 0.000000 0.000000 -0.000000 -0.000008 -0.518060
 24 10.363076 0.000000 -0.000000 0.000000 0.000009 -0.840342
 25 10.363081 -0.000004 -0.000002 -0.000009 -0.000015 -0.695285
 26 8.210358 -0.000006 -7.786025 0.009356 0.238381 -0.596412
 27 8.210346 -0.000002 7.704017 -0.008749 -0.220098 -0.596327
 28 1.854841 1.227791 -13.762345 2.627780 0.176313 1.695011
 29 10.456543 -0.000004 0.000004 0.010992 -0.074134 -1.776215
 30 24.248093 0.000001 0.000007 0.071838 0.013604 2.260420
 31 26.336971 0.000019 0.000002 0.436165 0.295902 -0.761463
 32 1.854847 1.227798 13.762341 -2.946962 -0.285715 1.645025
 33 10.456542 -0.000008 0.000004 0.014224 0.095152 -1.774329
 34 24.248116 0.000002 -0.000004 0.077891 0.012859 2.265463
 35 26.336975 0.000000 0.000004 -0.234487 -0.412520 -0.849081
time 35
  0 0.000000 0.000000 0.000000 0.000000 -0.000000 -1.570796
  1 0.000000 0.000000 0.000000 0.000000 -0.000000 0.000000
  2 0.000000 -12.018269 30.953564 -1.571851 -0.466433 1.571851
  3 4.222169 -0.467508 0.000000 -0.018212 -0.004709 0.145238
  4 4.476987 -0.000002 -0.000000 0.028570 -0.015302 0.595325
  5 4.477083 0.000000 0.000002 0.012825 0.028482 0.221281
  6 4.477077 -0.000004 -0.000002 -0.018473 -0.019409 -0.155451
  7 5.565850 -7.700466 -0.000000 0.014448 0.003891 0.400076
  8 6.890240 0.000002 -0.000000 -0.056855 -0.000118 0.631095
  9 8.011925 0.000004 0.000005 0.044005 0.040338 0.463247
 10 7.210720 -0.000002 -0.000000 -0.021714 -0.036987 0.234437
 11 8.581028 -0.304903 -0.000000 0.049307 -0.045825 0.984497
 12 22.523008 2.194031 6.355708 0.000000 -0.365187 0.000000
 13 22.523005 2.194038 -6.355709 0.000000 0.513448 0.000000
 14 -3.006533 7.804720 -11.355459 -0.092708 0.225703 1.536475
 15 10.384675 0.000008 0.000005 -1.076853 0.361645 -2.696794
 16 22.550743 -0.000006 -0.000004 -0.096617 -0.353452 2.468332
 17 30.814247 -0.000015 -0.000004 2.325760 -0.294446 0.157356
 18 -3.013796 7.815494 11.355459 0.090840 -0.226332 1.540451
 19 10.374533 -0.000002 0.000007 1.076980 -0.361036 -2.697808
 20 22.550726 -0.000027 -0.000013 0.096727 0.353163 2.468967
 21 30.814270 -0.000023 0.000002 -2.338744 0.296765 0.150410
 22 -4.250660 -0.770624 0.000001 0.000000 0.000000 2.917444
 23 10.363422 0.000000 0.000000 0.000000 -0.000008 -0.515662
 24 10.363076 0.000000 -0.000000 0.000000 0.000009 -0.843026
 25 10.363081 -0.000004 -0.000002 -0.000009 -0.000015 -0.697084
 26 8.210358 -0.000006 -7.786025 0.002235 0.242184 -0.638569
 27 8.210346 -0.000002 7.704017 -0.002037 -0.224369 -0.638442
 28 1.854841 1.227791 -13.762345 2.609443 0.176115 1.666243
 29 10.456543 -0.000004 0.000004 0.011009 -0.076376 -1.784986
 30 24.248093 0.000001 0.000007 0.072097 0.013261 2.280607
 31 26.336971 0.000019 0.000002 0.454524 0.299503 -0.762954
 32 1.854847 1.227798 13.762341 -2.948549 -0.290996 1.616463
 33 10.456542 -0.000008 0.000004 0.014190 0.096711 -1.781857
 34 24.248116 0.000002 -0.000004 0.079006 0.012943 2.280238
 35 26.336975 0.000000 0.000004 -0.230927 -0.420028 -0.861797
time 36
  0 0.000000 0.000000 0.000000 0.000000 -0.000000 -1.570796
  1 0.000000 0.000000 0.000000 0.000000 -0.000000 0.000000
  2 0.000000 -12.045614 30.848091 -1.572043 -0.454626 1.572043
  3 4.222169 -0.467508 0.000000 -0.018368 -0.004876 0.146633
  4 4.476987 -0.000002 -0.000000 0.028534 -0.015302 0.598033
  5 4.477083 0.000000 0.000002 0.012909 0.028450 0.222437
  6 4.477077 -0.000004 -0.000002 -0.018569 -0.019465 -0.156121
  7 5.565850 -7.700466 -0.000000 0.014235 0.004146 0.400636
  8 6.890240 0.000002 -0.000000 -0.057466 -0.000065 0.633260
  9 8.011925 0.000004 0.000005 0.043730 0.040770 0.464649
 10 7.210720 -0.000002 -0.000000 -0.021769 -0.037075 0.235885
 11 8.581028 -0.304903 -0.000000 0.049674 -0.046269 0.985443
 12 22.523008 2.194031 6.355708 0.000000 -0.366104 0.000000
 13 22.523005 2.194038 -6.355709 0.000000 0.514809 0.000000
 14 -3.006533 7.804720 -11.355459 -0.108769 0.244958 1.499392
 15 10.384675 0.000008 0.000005 -1.088394 0.352861 -2.716899
 16 22.550743 -0.000006 -0.000004 -0.102502 -0.348917 2.485281
 17 30.814247 -0.000015 -0.000004 2.336156 -0.297925 0.171681
 18 -3.013796 7.815494 11.355459 0.107336 -0.245202 1.503344
 19 10.374533 -0.000002 0.000007 1.088507 -0.352100 -2.718161
 20 22.550726 -0.000027 -0.000013 0.102998 0.348177 2.486834
 21 30.814270 -0.000023 0.000002 -2.352706 0.301512 0.169376
 22 -4.250660 -0.770624 0.000001 -0.000000 -0.000000 2.915908
 23 10.363422 0.000000 0.000000 -0.000000 -0.000008 -0.514825
 24 10.363076 0.000000 -0.000000 0.000000 0.000009 -0.845736
 25 10.363081 -0.000004 -0.000002 -0.000009 -0.000015 -0.698023
 26 8.210358 -0.000006 -7.786025 -0.000195 0.244188 -0.654059
 27 8.210346 -0.000002 7.704017 0.000096 -0.226597 -0.654074
 28 1.854841 1.227791 -13.762345 2.592513 0.175647 1.640334
 29 10.456543 -0.000004 0.000004 0.011149 -0.077906 -1.792541
 30 24.248093 0.000001 0.000007 0.072246 0.012898 2.294164
 31 26.336971 0.000019 0.000002 0.469881 0.301920 -0.762678
 32 1.854847 1.227798 13.762341 -2.950170 -0.296167 1.587856
 33 10.456542 -0.000008 0.000004 0.013851 0.097880 -1.788951
 34 24.248116 0.000002 -0.000004 0.079705 0.013182 2.294861
 35 26.336975 0.000000 0.000004 -0.227968 -0.426728 -0.872535
end
