version 1
nodes
  0 "Chaurus" -1
  1 "NPC Root [Root]" 0
  2 "Pelvis [Pelv]" 1
  3 "Spine[Spn0]" 2
  4 "Spine[Spn1]" 3
  5 "Spine[Spn2]" 4
  6 "Ribcage[Spn3]" 5
  7 "[Neck0]" 6
  8 "[Neck1]" 7
  9 "[Neck2]" 8
 10 "[Neck3]" 9
 11 "NPC Head [Head]" 10
 12 "Head[LeftPincher]" 11
 13 "Head[RightPincher]" 11
 14 "R UpperArm[RClv]" 6
 15 "R UpperArm[RUar]" 14
 16 "R UpperArm[RLar]" 15
 17 "R UpperArm[RHnd]" 16
 18 "L UpperArm[RClv]" 6
 19 "L UpperArm[LUar]" 18
 20 "L UpperArm[LLar]" 19
 21 "L UpperArm[LHnd]" 20
 22 "Tail[Tal0]" 2
 23 "Tail[Tal1]" 22
 24 "Tail[Tal2]" 23
 25 "Tail[Tal3]" 24
 26 "[TalRightPincher]" 25
 27 "[TalLeftPincher]" 25
 28 "R Leg[RThg0]" 2
 29 "R Leg[RThg1]" 28
 30 "R Leg[RClf]" 29
 31 "R Leg[RAnkle]" 30
 32 "LLeg[RThg0]" 2
 33 "LLeg[LThg1]" 32
 34 "LLeg[LClf]" 33
 35 "LLeg[LAnkle]" 34
end
skeleton
time 0
  0 0.000000 0.000000 0.000000 0.000000 -0.000000 -1.570796
  1 0.000000 0.000000 0.000000 0.000000 -0.000000 0.000000
  2 0.000000 -0.015778 0.000073 -1.570797 -0.261799 1.570797
  3 4.222169 -0.467508 0.000000 0.008406 -0.000297 -0.172506
  4 4.476987 -0.000002 -0.000000 0.009095 -0.014595 -0.087911
  5 4.477083 0.000000 0.000002 -0.009550 0.027545 -0.063592
  6 4.477077 -0.000004 -0.000002 -0.008694 -0.014598 -0.007866
  7 0.003361 -4.812500 -12296.000000 0.000000 0.000000 -0.453786
  8 6.890240 0.000002 -0.000000 0.000000 0.000000 -0.000000
  9 8.011925 0.000004 0.000005 0.000000 0.000000 -0.000000
 10 7.210720 -0.000002 -0.000000 0.000000 0.000000 -0.000000
 11 8.581028 -0.304903 -0.000000 0.001405 0.002301 1.050566
 12 22.523008 2.194031 6.355708 0.000000 -0.000000 0.000000
 13 22.523005 2.194038 -6.355709 0.000000 -0.000000 0.000000
 14 -3.006533 7.804720 -11.355459 0.108324 0.270361 1.510860
 15 10.384675 0.000008 0.000005 -0.008195 0.181198 -1.892750
 16 22.550743 -0.000006 -0.000004 0.131742 0.036609 2.064336
 17 30.814247 -0.000015 -0.000004 2.662439 -0.000215 0.531983
 18 -3.013796 7.815494 11.355459 -0.182765 -0.248304 1.529165
 19 10.374533 -0.000002 0.000007 0.013925 -0.188678 -1.918021
 20 22.550726 -0.000027 -0.000013 -0.127930 -0.012466 2.057289
 21 30.814270 -0.000023 0.000002 -2.628438 -0.083137 0.533023
 22 -4.250660 -0.770624 0.000001 0.000000 -0.000000 -2.983957
 23 10.363422 0.000000 0.000000 -0.000000 -0.020142 0.008171
 24 10.363076 0.000000 -0.000000 0.000000 0.040277 -0.000000
 25 10.363081 -0.000004 -0.000002 -0.001930 -0.020043 0.096012
 26 -0.007698 0.000801 0.097351 0.000000 0.000000 -0.000000
 27 8.210346 -0.000002 7.704017 0.000000 0.000000 -0.000000
 28 1.854841 1.227791 -13.762345 2.693081 0.174438 2.475399
 29 10.456543 -0.000004 0.000004 0.046753 0.092263 -1.244068
 30 24.248093 0.000001 0.000007 0.027092 0.031179 0.925669
 31 26.336971 0.000019 0.000002 0.317183 -0.054601 0.968053
 32 1.854847 1.227798 13.762341 -2.735031 -0.196214 2.479249
 33 10.456542 -0.000008 0.000004 -0.063201 -0.089519 -1.239522
 34 24.248116 0.000002 -0.000004 -0.027401 -0.031664 0.934097
 35 26.336975 0.000000 0.000004 -0.303314 0.000501 0.964539
time 1
  0 0.000000 0.000000 0.000000 0.000000 -0.000000 -1.570796
  1 0.000000 0.000000 0.000000 0.000000 -0.000000 0.000000
  2 0.000000 -0.015778 0.000073 -1.570797 -0.261799 1.570797
  3 4.222169 -0.467508 0.000000 0.008406 -0.000297 -0.172506
  4 4.476987 -0.000002 -0.000000 0.009095 -0.014595 -0.087911
  5 4.477083 0.000000 0.000002 -0.009550 0.027545 -0.063592
  6 4.477077 -0.000004 -0.000002 -0.008694 -0.014598 -0.007866
  7 0.003361 -4.812500 -12296.000000 0.000000 0.000000 -0.453786
  8 6.890240 0.000002 -0.000000 0.000000 0.000000 -0.000000
  9 8.011925 0.000004 0.000005 0.000000 0.000000 -0.000000
 10 7.210720 -0.000002 -0.000000 0.000000 0.000000 -0.000000
 11 8.581028 -0.304903 -0.000000 0.001405 0.002301 1.050566
 12 22.523008 2.194031 6.355708 0.000000 -0.000000 0.000000
 13 22.523005 2.194038 -6.355709 0.000000 -0.000000 0.000000
 14 -3.006533 7.804720 -11.355459 0.108324 0.270361 1.510860
 15 10.384675 0.000008 0.000005 -0.008195 0.181198 -1.892750
 16 22.550743 -0.000006 -0.000004 0.131742 0.036609 2.064336
 17 30.814247 -0.000015 -0.000004 2.662439 -0.000215 0.531983
 18 -3.013796 7.815494 11.355459 -0.182765 -0.248304 1.529165
 19 10.374533 -0.000002 0.000007 0.013925 -0.188678 -1.918021
 20 22.550726 -0.000027 -0.000013 -0.127930 -0.012466 2.057289
 21 30.814270 -0.000023 0.000002 -2.628438 -0.083137 0.533023
 22 -4.250660 -0.770624 0.000001 0.000000 -0.000000 -2.983957
 23 10.363422 0.000000 0.000000 -0.000000 -0.020142 0.008171
 24 10.363076 0.000000 -0.000000 0.000000 0.040277 -0.000000
 25 10.363081 -0.000004 -0.000002 -0.001930 -0.020043 0.096012
 26 -0.007698 0.000801 0.097351 0.000000 0.000000 -0.000000
 27 8.210346 -0.000002 7.704017 0.000000 0.000000 -0.000000
 28 1.854841 1.227791 -13.762345 2.693081 0.174438 2.475399
 29 10.456543 -0.000004 0.000004 0.046753 0.092263 -1.244068
 30 24.248093 0.000001 0.000007 0.027092 0.031179 0.925669
 31 26.336971 0.000019 0.000002 0.317183 -0.054601 0.968053
 32 1.854847 1.227798 13.762341 -2.735031 -0.196214 2.479249
 33 10.456542 -0.000008 0.000004 -0.063201 -0.089519 -1.239522
 34 24.248116 0.000002 -0.000004 -0.027401 -0.031664 0.934097
 35 26.336975 0.000000 0.000004 -0.303314 0.000501 0.964539
time 2
  0 0.000000 0.000000 0.000000 0.000000 -0.000000 -1.570796
  1 0.000000 0.000000 0.000000 0.000000 -0.000000 0.000000
  2 0.000000 -0.015778 0.000073 -1.570797 -0.261799 1.570797
  3 4.222169 -0.467508 0.000000 0.008406 -0.000297 -0.172506
  4 4.476987 -0.000002 -0.000000 0.009095 -0.014595 -0.087911
  5 4.477083 0.000000 0.000002 -0.009550 0.027545 -0.063592
  6 4.477077 -0.000004 -0.000002 -0.008694 -0.014598 -0.007866
  7 0.003361 -4.812500 -12296.000000 0.000000 0.000000 -0.453786
  8 6.890240 0.000002 -0.000000 0.000000 0.000000 -0.000000
  9 8.011925 0.000004 0.000005 0.000000 0.000000 -0.000000
 10 7.210720 -0.000002 -0.000000 0.000000 0.000000 -0.000000
 11 8.581028 -0.304903 -0.000000 0.001405 0.002301 1.050566
 12 22.523008 2.194031 6.355708 0.000000 -0.000000 0.000000
 13 22.523005 2.194038 -6.355709 0.000000 -0.000000 0.000000
 14 -3.006533 7.804720 -11.355459 0.108324 0.270361 1.510860
 15 10.384675 0.000008 0.000005 -0.008195 0.181198 -1.892750
 16 22.550743 -0.000006 -0.000004 0.131742 0.036609 2.064336
 17 30.814247 -0.000015 -0.000004 2.662439 -0.000215 0.531983
 18 -3.013796 7.815494 11.355459 -0.182765 -0.248304 1.529165
 19 10.374533 -0.000002 0.000007 0.013925 -0.188678 -1.918021
 20 22.550726 -0.000027 -0.000013 -0.127930 -0.012466 2.057289
 21 30.814270 -0.000023 0.000002 -2.628438 -0.083137 0.533023
 22 -4.250660 -0.770624 0.000001 0.000000 -0.000000 -2.983957
 23 10.363422 0.000000 0.000000 -0.000000 -0.020142 0.008171
 24 10.363076 0.000000 -0.000000 0.000000 0.040277 -0.000000
 25 10.363081 -0.000004 -0.000002 -0.001930 -0.020043 0.096012
 26 -0.007698 0.000801 0.097351 0.000000 0.000000 -0.000000
 27 8.210346 -0.000002 7.704017 0.000000 0.000000 -0.000000
 28 1.854841 1.227791 -13.762345 2.693081 0.174438 2.475399
 29 10.456543 -0.000004 0.000004 0.046753 0.092263 -1.244068
 30 24.248093 0.000001 0.000007 0.027092 0.031179 0.925669
 31 26.336971 0.000019 0.000002 0.317183 -0.054601 0.968053
 32 1.854847 1.227798 13.762341 -2.735031 -0.196214 2.479249
 33 10.456542 -0.000008 0.000004 -0.063201 -0.089519 -1.239522
 34 24.248116 0.000002 -0.000004 -0.027401 -0.031664 0.934097
 35 26.336975 0.000000 0.000004 -0.303314 0.000501 0.964539
time 3
  0 0.000000 0.000000 0.000000 0.000000 -0.000000 -1.570796
  1 0.000000 0.000000 0.000000 0.000000 -0.000000 0.000000
  2 0.000000 -0.015778 0.000073 -1.570797 -0.261799 1.570797
  3 4.222169 -0.467508 0.000000 0.008406 -0.000297 -0.172506
  4 4.476987 -0.000002 -0.000000 0.009095 -0.014595 -0.087911
  5 4.477083 0.000000 0.000002 -0.009550 0.027545 -0.063592
  6 4.477077 -0.000004 -0.000002 -0.008694 -0.014598 -0.007866
  7 0.003361 -4.812500 -12296.000000 0.000000 0.000000 -0.453786
  8 6.890240 0.000002 -0.000000 0.000000 0.000000 -0.000000
  9 8.011925 0.000004 0.000005 0.000000 0.000000 -0.000000
 10 7.210720 -0.000002 -0.000000 0.000000 0.000000 -0.000000
 11 8.581028 -0.304903 -0.000000 0.001405 0.002301 1.050566
 12 22.523008 2.194031 6.355708 0.000000 -0.000000 0.000000
 13 22.523005 2.194038 -6.355709 0.000000 -0.000000 0.000000
 14 -3.006533 7.804720 -11.355459 0.108324 0.270361 1.510860
 15 10.384675 0.000008 0.000005 -0.008195 0.181198 -1.892750
 16 22.550743 -0.000006 -0.000004 0.131742 0.036609 2.064336
 17 30.814247 -0.000015 -0.000004 2.662439 -0.000215 0.531983
 18 -3.013796 7.815494 11.355459 -0.182765 -0.248304 1.529165
 19 10.374533 -0.000002 0.000007 0.013925 -0.188678 -1.918021
 20 22.550726 -0.000027 -0.000013 -0.127930 -0.012466 2.057289
 21 30.814270 -0.000023 0.000002 -2.628438 -0.083137 0.533023
 22 -4.250660 -0.770624 0.000001 0.000000 -0.000000 -2.983957
 23 10.363422 0.000000 0.000000 -0.000000 -0.020142 0.008171
 24 10.363076 0.000000 -0.000000 0.000000 0.040277 -0.000000
 25 10.363081 -0.000004 -0.000002 -0.001930 -0.020043 0.096012
 26 -0.007698 0.000801 0.097351 0.000000 0.000000 -0.000000
 27 8.210346 -0.000002 7.704017 0.000000 0.000000 -0.000000
 28 1.854841 1.227791 -13.762345 2.693081 0.174438 2.475399
 29 10.456543 -0.000004 0.000004 0.046753 0.092263 -1.244068
 30 24.248093 0.000001 0.000007 0.027092 0.031179 0.925669
 31 26.336971 0.000019 0.000002 0.317183 -0.054601 0.968053
 32 1.854847 1.227798 13.762341 -2.735031 -0.196214 2.479249
 33 10.456542 -0.000008 0.000004 -0.063201 -0.089519 -1.239522
 34 24.248116 0.000002 -0.000004 -0.027401 -0.031664 0.934097
 35 26.336975 0.000000 0.000004 -0.303314 0.000501 0.964539
time 4
  0 0.000000 0.000000 0.000000 0.000000 -0.000000 -1.570796
  1 0.000000 0.000000 0.000000 0.000000 -0.000000 0.000000
  2 0.000000 -0.015778 0.000073 -1.570797 -0.261799 1.570797
  3 4.222169 -0.467508 0.000000 0.008406 -0.000297 -0.172506
  4 4.476987 -0.000002 -0.000000 0.009095 -0.014595 -0.087911
  5 4.477083 0.000000 0.000002 -0.009550 0.027545 -0.063592
  6 4.477077 -0.000004 -0.000002 -0.008694 -0.014598 -0.007866
  7 0.003361 -4.812500 -12296.000000 0.000000 0.000000 -0.453786
  8 6.890240 0.000002 -0.000000 0.000000 0.000000 -0.000000
  9 8.011925 0.000004 0.000005 0.000000 0.000000 -0.000000
 10 7.210720 -0.000002 -0.000000 0.000000 0.000000 -0.000000
 11 8.581028 -0.304903 -0.000000 0.001405 0.002301 1.050566
 12 22.523008 2.194031 6.355708 0.000000 -0.000000 0.000000
 13 22.523005 2.194038 -6.355709 0.000000 -0.000000 0.000000
 14 -3.006533 7.804720 -11.355459 0.108324 0.270361 1.510860
 15 10.384675 0.000008 0.000005 -0.008195 0.181198 -1.892750
 16 22.550743 -0.000006 -0.000004 0.131742 0.036609 2.064336
 17 30.814247 -0.000015 -0.000004 2.662439 -0.000215 0.531983
 18 -3.013796 7.815494 11.355459 -0.182765 -0.248304 1.529165
 19 10.374533 -0.000002 0.000007 0.013925 -0.188678 -1.918021
 20 22.550726 -0.000027 -0.000013 -0.127930 -0.012466 2.057289
 21 30.814270 -0.000023 0.000002 -2.628438 -0.083137 0.533023
 22 -4.250660 -0.770624 0.000001 0.000000 -0.000000 -2.983957
 23 10.363422 0.000000 0.000000 -0.000000 -0.020142 0.008171
 24 10.363076 0.000000 -0.000000 0.000000 0.040277 -0.000000
 25 10.363081 -0.000004 -0.000002 -0.001930 -0.020043 0.096012
 26 -0.007698 0.000801 0.097351 0.000000 0.000000 -0.000000
 27 8.210346 -0.000002 7.704017 0.000000 0.000000 -0.000000
 28 1.854841 1.227791 -13.762345 2.693081 0.174438 2.475399
 29 10.456543 -0.000004 0.000004 0.046753 0.092263 -1.244068
 30 24.248093 0.000001 0.000007 0.027092 0.031179 0.925669
 31 26.336971 0.000019 0.000002 0.317183 -0.054601 0.968053
 32 1.854847 1.227798 13.762341 -2.735031 -0.196214 2.479249
 33 10.456542 -0.000008 0.000004 -0.063201 -0.089519 -1.239522
 34 24.248116 0.000002 -0.000004 -0.027401 -0.031664 0.934097
 35 26.336975 0.000000 0.000004 -0.303314 0.000501 0.964539
time 5
  0 0.000000 0.000000 0.000000 0.000000 -0.000000 -1.570796
  1 0.000000 0.000000 0.000000 0.000000 -0.000000 0.000000
  2 0.000000 -0.015778 0.000073 -1.570797 -0.261799 1.570797
  3 4.222169 -0.467508 0.000000 0.008406 -0.000297 -0.172506
  4 4.476987 -0.000002 -0.000000 0.009095 -0.014595 -0.087911
  5 4.477083 0.000000 0.000002 -0.009550 0.027545 -0.063592
  6 4.477077 -0.000004 -0.000002 -0.008694 -0.014598 -0.007866
  7 0.003361 -4.812500 -12296.000000 0.000000 0.000000 -0.453786
  8 6.890240 0.000002 -0.000000 0.000000 0.000000 -0.000000
  9 8.011925 0.000004 0.000005 0.000000 0.000000 -0.000000
 10 7.210720 -0.000002 -0.000000 0.000000 0.000000 -0.000000
 11 8.581028 -0.304903 -0.000000 0.001405 0.002301 1.050566
 12 22.523008 2.194031 6.355708 0.000000 -0.000000 0.000000
 13 22.523005 2.194038 -6.355709 0.000000 -0.000000 0.000000
 14 -3.006533 7.804720 -11.355459 0.108324 0.270361 1.510860
 15 10.384675 0.000008 0.000005 -0.008195 0.181198 -1.892750
 16 22.550743 -0.000006 -0.000004 0.131742 0.036609 2.064336
 17 30.814247 -0.000015 -0.000004 2.662439 -0.000215 0.531983
 18 -3.013796 7.815494 11.355459 -0.182765 -0.248304 1.529165
 19 10.374533 -0.000002 0.000007 0.013925 -0.188678 -1.918021
 20 22.550726 -0.000027 -0.000013 -0.127930 -0.012466 2.057289
 21 30.814270 -0.000023 0.000002 -2.628438 -0.083137 0.533023
 22 -4.250660 -0.770624 0.000001 0.000000 -0.000000 -2.983957
 23 10.363422 0.000000 0.000000 -0.000000 -0.020142 0.008171
 24 10.363076 0.000000 -0.000000 0.000000 0.040277 -0.000000
 25 10.363081 -0.000004 -0.000002 -0.001930 -0.020043 0.096012
 26 -0.007698 0.000801 0.097351 0.000000 0.000000 -0.000000
 27 8.210346 -0.000002 7.704017 0.000000 0.000000 -0.000000
 28 1.854841 1.227791 -13.762345 2.693081 0.174438 2.475399
 29 10.456543 -0.000004 0.000004 0.046753 0.092263 -1.244068
 30 24.248093 0.000001 0.000007 0.027092 0.031179 0.925669
 31 26.336971 0.000019 0.000002 0.317183 -0.054601 0.968053
 32 1.854847 1.227798 13.762341 -2.735031 -0.196214 2.479249
 33 10.456542 -0.000008 0.000004 -0.063201 -0.089519 -1.239522
 34 24.248116 0.000002 -0.000004 -0.027401 -0.031664 0.934097
 35 26.336975 0.000000 0.000004 -0.303314 0.000501 0.964539
time 6
  0 0.000000 0.000000 0.000000 0.000000 -0.000000 -1.570796
  1 0.000000 0.000000 0.000000 0.000000 -0.000000 0.000000
  2 0.000000 -0.015778 0.000073 -1.570797 -0.261799 1.570797
  3 4.222169 -0.467508 0.000000 0.008406 -0.000297 -0.172506
  4 4.476987 -0.000002 -0.000000 0.009095 -0.014595 -0.087911
  5 4.477083 0.000000 0.000002 -0.009550 0.027545 -0.063592
  6 4.477077 -0.000004 -0.000002 -0.008694 -0.014598 -0.007866
  7 0.003361 -4.812500 -12296.000000 0.000000 0.000000 -0.453786
  8 6.890240 0.000002 -0.000000 0.000000 0.000000 -0.000000
  9 8.011925 0.000004 0.000005 0.000000 0.000000 -0.000000
 10 7.210720 -0.000002 -0.000000 0.000000 0.000000 -0.000000
 11 8.581028 -0.304903 -0.000000 0.001405 0.002301 1.050566
 12 22.523008 2.194031 6.355708 0.000000 -0.000000 0.000000
 13 22.523005 2.194038 -6.355709 0.000000 -0.000000 0.000000
 14 -3.006533 7.804720 -11.355459 0.108324 0.270361 1.510860
 15 10.384675 0.000008 0.000005 -0.008195 0.181198 -1.892750
 16 22.550743 -0.000006 -0.000004 0.131742 0.036609 2.064336
 17 30.814247 -0.000015 -0.000004 2.662439 -0.000215 0.531983
 18 -3.013796 7.815494 11.355459 -0.182765 -0.248304 1.529165
 19 10.374533 -0.000002 0.000007 0.013925 -0.188678 -1.918021
 20 22.550726 -0.000027 -0.000013 -0.127930 -0.012466 2.057289
 21 30.814270 -0.000023 0.000002 -2.628438 -0.083137 0.533023
 22 -4.250660 -0.770624 0.000001 0.000000 -0.000000 -2.983957
 23 10.363422 0.000000 0.000000 -0.000000 -0.020142 0.008171
 24 10.363076 0.000000 -0.000000 0.000000 0.040277 -0.000000
 25 10.363081 -0.000004 -0.000002 -0.001930 -0.020043 0.096012
 26 -0.007698 0.000801 0.097351 0.000000 0.000000 -0.000000
 27 8.210346 -0.000002 7.704017 0.000000 0.000000 -0.000000
 28 1.854841 1.227791 -13.762345 2.693081 0.174438 2.475399
 29 10.456543 -0.000004 0.000004 0.046753 0.092263 -1.244068
 30 24.248093 0.000001 0.000007 0.027092 0.031179 0.925669
 31 26.336971 0.000019 0.000002 0.317183 -0.054601 0.968053
 32 1.854847 1.227798 13.762341 -2.735031 -0.196214 2.479249
 33 10.456542 -0.000008 0.000004 -0.063201 -0.089519 -1.239522
 34 24.248116 0.000002 -0.000004 -0.027401 -0.031664 0.934097
 35 26.336975 0.000000 0.000004 -0.303314 0.000501 0.964539
time 7
  0 0.000000 0.000000 0.000000 0.000000 -0.000000 -1.570796
  1 0.000000 0.000000 0.000000 0.000000 -0.000000 0.000000
  2 0.000000 -0.015778 0.000073 -1.570797 -0.261799 1.570797
  3 4.222169 -0.467508 0.000000 0.008406 -0.000297 -0.172506
  4 4.476987 -0.000002 -0.000000 0.009095 -0.014595 -0.087911
  5 4.477083 0.000000 0.000002 -0.009550 0.027545 -0.063592
  6 4.477077 -0.000004 -0.000002 -0.008694 -0.014598 -0.007866
  7 0.003361 -4.812500 -12296.000000 0.000000 0.000000 -0.453786
  8 6.890240 0.000002 -0.000000 0.000000 0.000000 -0.000000
  9 8.011925 0.000004 0.000005 0.000000 0.000000 -0.000000
 10 7.210720 -0.000002 -0.000000 0.000000 0.000000 -0.000000
 11 8.581028 -0.304903 -0.000000 0.001405 0.002301 1.050566
 12 22.523008 2.194031 6.355708 0.000000 -0.000000 0.000000
 13 22.523005 2.194038 -6.355709 0.000000 -0.000000 0.000000
 14 -3.006533 7.804720 -11.355459 0.108324 0.270361 1.510860
 15 10.384675 0.000008 0.000005 -0.008195 0.181198 -1.892750
 16 22.550743 -0.000006 -0.000004 0.131742 0.036609 2.064336
 17 30.814247 -0.000015 -0.000004 2.662439 -0.000215 0.531983
 18 -3.013796 7.815494 11.355459 -0.182765 -0.248304 1.529165
 19 10.374533 -0.000002 0.000007 0.013925 -0.188678 -1.918021
 20 22.550726 -0.000027 -0.000013 -0.127930 -0.012466 2.057289
 21 30.814270 -0.000023 0.000002 -2.628438 -0.083137 0.533023
 22 -4.250660 -0.770624 0.000001 0.000000 -0.000000 -2.983957
 23 10.363422 0.000000 0.000000 -0.000000 -0.020142 0.008171
 24 10.363076 0.000000 -0.000000 0.000000 0.040277 -0.000000
 25 10.363081 -0.000004 -0.000002 -0.001930 -0.020043 0.096012
 26 -0.007698 0.000801 0.097351 0.000000 0.000000 -0.000000
 27 8.210346 -0.000002 7.704017 0.000000 0.000000 -0.000000
 28 1.854841 1.227791 -13.762345 2.693081 0.174438 2.475399
 29 10.456543 -0.000004 0.000004 0.046753 0.092263 -1.244068
 30 24.248093 0.000001 0.000007 0.027092 0.031179 0.925669
 31 26.336971 0.000019 0.000002 0.317183 -0.054601 0.968053
 32 1.854847 1.227798 13.762341 -2.735031 -0.196214 2.479249
 33 10.456542 -0.000008 0.000004 -0.063201 -0.089519 -1.239522
 34 24.248116 0.000002 -0.000004 -0.027401 -0.031664 0.934097
 35 26.336975 0.000000 0.000004 -0.303314 0.000501 0.964539
time 8
  0 0.000000 0.000000 0.000000 0.000000 -0.000000 -1.570796
  1 0.000000 0.000000 0.000000 0.000000 -0.000000 0.000000
  2 0.000000 -0.015778 0.000073 -1.570797 -0.261799 1.570797
  3 4.222169 -0.467508 0.000000 0.008406 -0.000297 -0.172506
  4 4.476987 -0.000002 -0.000000 0.009095 -0.014595 -0.087911
  5 4.477083 0.000000 0.000002 -0.009550 0.027545 -0.063592
  6 4.477077 -0.000004 -0.000002 -0.008694 -0.014598 -0.007866
  7 0.003361 -4.812500 -12296.000000 0.000000 0.000000 -0.453786
  8 6.890240 0.000002 -0.000000 0.000000 0.000000 -0.000000
  9 8.011925 0.000004 0.000005 0.000000 0.000000 -0.000000
 10 7.210720 -0.000002 -0.000000 0.000000 0.000000 -0.000000
 11 8.581028 -0.304903 -0.000000 0.001405 0.002301 1.050566
 12 22.523008 2.194031 6.355708 0.000000 -0.000000 0.000000
 13 22.523005 2.194038 -6.355709 0.000000 -0.000000 0.000000
 14 -3.006533 7.804720 -11.355459 0.108324 0.270361 1.510860
 15 10.384675 0.000008 0.000005 -0.008195 0.181198 -1.892750
 16 22.550743 -0.000006 -0.000004 0.131742 0.036609 2.064336
 17 30.814247 -0.000015 -0.000004 2.662439 -0.000215 0.531983
 18 -3.013796 7.815494 11.355459 -0.182765 -0.248304 1.529165
 19 10.374533 -0.000002 0.000007 0.013925 -0.188678 -1.918021
 20 22.550726 -0.000027 -0.000013 -0.127930 -0.012466 2.057289
 21 30.814270 -0.000023 0.000002 -2.628438 -0.083137 0.533023
 22 -4.250660 -0.770624 0.000001 0.000000 -0.000000 -2.983957
 23 10.363422 0.000000 0.000000 -0.000000 -0.020142 0.008171
 24 10.363076 0.000000 -0.000000 0.000000 0.040277 -0.000000
 25 10.363081 -0.000004 -0.000002 -0.001930 -0.020043 0.096012
 26 -0.007698 0.000801 0.097351 0.000000 0.000000 -0.000000
 27 8.210346 -0.000002 7.704017 0.000000 0.000000 -0.000000
 28 1.854841 1.227791 -13.762345 2.693081 0.174438 2.475399
 29 10.456543 -0.000004 0.000004 0.046753 0.092263 -1.244068
 30 24.248093 0.000001 0.000007 0.027092 0.031179 0.925669
 31 26.336971 0.000019 0.000002 0.317183 -0.054601 0.968053
 32 1.854847 1.227798 13.762341 -2.735031 -0.196214 2.479249
 33 10.456542 -0.000008 0.000004 -0.063201 -0.089519 -1.239522
 34 24.248116 0.000002 -0.000004 -0.027401 -0.031664 0.934097
 35 26.336975 0.000000 0.000004 -0.303314 0.000501 0.964539
time 9
  0 0.000000 0.000000 0.000000 0.000000 -0.000000 -1.570796
  1 0.000000 0.000000 0.000000 0.000000 -0.000000 0.000000
  2 0.000000 -0.015778 0.000073 -1.570797 -0.261799 1.570797
  3 4.222169 -0.467508 0.000000 0.008406 -0.000297 -0.172506
  4 4.476987 -0.000002 -0.000000 0.009095 -0.014595 -0.087911
  5 4.477083 0.000000 0.000002 -0.009550 0.027545 -0.063592
  6 4.477077 -0.000004 -0.000002 -0.008694 -0.014598 -0.007866
  7 0.003361 -4.812500 -12296.000000 0.000000 0.000000 -0.453786
  8 6.890240 0.000002 -0.000000 0.000000 0.000000 -0.000000
  9 8.011925 0.000004 0.000005 0.000000 0.000000 -0.000000
 10 7.210720 -0.000002 -0.000000 0.000000 0.000000 -0.000000
 11 8.581028 -0.304903 -0.000000 0.001405 0.002301 1.050566
 12 22.523008 2.194031 6.355708 0.000000 -0.000000 0.000000
 13 22.523005 2.194038 -6.355709 0.000000 -0.000000 0.000000
 14 -3.006533 7.804720 -11.355459 0.108324 0.270361 1.510860
 15 10.384675 0.000008 0.000005 -0.008195 0.181198 -1.892750
 16 22.550743 -0.000006 -0.000004 0.131742 0.036609 2.064336
 17 30.814247 -0.000015 -0.000004 2.662439 -0.000215 0.531983
 18 -3.013796 7.815494 11.355459 -0.182765 -0.248304 1.529165
 19 10.374533 -0.000002 0.000007 0.013925 -0.188678 -1.918021
 20 22.550726 -0.000027 -0.000013 -0.127930 -0.012466 2.057289
 21 30.814270 -0.000023 0.000002 -2.628438 -0.083137 0.533023
 22 -4.250660 -0.770624 0.000001 0.000000 -0.000000 -2.983957
 23 10.363422 0.000000 0.000000 -0.000000 -0.020142 0.008171
 24 10.363076 0.000000 -0.000000 0.000000 0.040277 -0.000000
 25 10.363081 -0.000004 -0.000002 -0.001930 -0.020043 0.096012
 26 -0.007698 0.000801 0.097351 0.000000 0.000000 -0.000000
 27 8.210346 -0.000002 7.704017 0.000000 0.000000 -0.000000
 28 1.854841 1.227791 -13.762345 2.693081 0.174438 2.475399
 29 10.456543 -0.000004 0.000004 0.046753 0.092263 -1.244068
 30 24.248093 0.000001 0.000007 0.027092 0.031179 0.925669
 31 26.336971 0.000019 0.000002 0.317183 -0.054601 0.968053
 32 1.854847 1.227798 13.762341 -2.735031 -0.196214 2.479249
 33 10.456542 -0.000008 0.000004 -0.063201 -0.089519 -1.239522
 34 24.248116 0.000002 -0.000004 -0.027401 -0.031664 0.934097
 35 26.336975 0.000000 0.000004 -0.303314 0.000501 0.964539
time 10
  0 0.000000 0.000000 0.000000 0.000000 -0.000000 -1.570796
  1 0.000000 0.000000 0.000000 0.000000 -0.000000 0.000000
  2 0.000000 -0.015778 0.000073 -1.570797 -0.261799 1.570797
  3 4.222169 -0.467508 0.000000 0.008406 -0.000297 -0.172506
  4 4.476987 -0.000002 -0.000000 0.009095 -0.014595 -0.087911
  5 4.477083 0.000000 0.000002 -0.009550 0.027545 -0.063592
  6 4.477077 -0.000004 -0.000002 -0.008694 -0.014598 -0.007866
  7 0.003361 -4.812500 -12296.000000 0.000000 0.000000 -0.453786
  8 6.890240 0.000002 -0.000000 0.000000 0.000000 -0.000000
  9 8.011925 0.000004 0.000005 0.000000 0.000000 -0.000000
 10 7.210720 -0.000002 -0.000000 0.000000 0.000000 -0.000000
 11 8.581028 -0.304903 -0.000000 0.001405 0.002301 1.050566
 12 22.523008 2.194031 6.355708 0.000000 -0.000000 0.000000
 13 22.523005 2.194038 -6.355709 0.000000 -0.000000 0.000000
 14 -3.006533 7.804720 -11.355459 0.108324 0.270361 1.510860
 15 10.384675 0.000008 0.000005 -0.008195 0.181198 -1.892750
 16 22.550743 -0.000006 -0.000004 0.131742 0.036609 2.064336
 17 30.814247 -0.000015 -0.000004 2.662439 -0.000215 0.531983
 18 -3.013796 7.815494 11.355459 -0.182765 -0.248304 1.529165
 19 10.374533 -0.000002 0.000007 0.013925 -0.188678 -1.918021
 20 22.550726 -0.000027 -0.000013 -0.127930 -0.012466 2.057289
 21 30.814270 -0.000023 0.000002 -2.628438 -0.083137 0.533023
 22 -4.250660 -0.770624 0.000001 0.000000 -0.000000 -2.983957
 23 10.363422 0.000000 0.000000 -0.000000 -0.020142 0.008171
 24 10.363076 0.000000 -0.000000 0.000000 0.040277 -0.000000
 25 10.363081 -0.000004 -0.000002 -0.001930 -0.020043 0.096012
 26 -0.007698 0.000801 0.097351 0.000000 0.000000 -0.000000
 27 8.210346 -0.000002 7.704017 0.000000 0.000000 -0.000000
 28 1.854841 1.227791 -13.762345 2.693081 0.174438 2.475399
 29 10.456543 -0.000004 0.000004 0.046753 0.092263 -1.244068
 30 24.248093 0.000001 0.000007 0.027092 0.031179 0.925669
 31 26.336971 0.000019 0.000002 0.317183 -0.054601 0.968053
 32 1.854847 1.227798 13.762341 -2.735031 -0.196214 2.479249
 33 10.456542 -0.000008 0.000004 -0.063201 -0.089519 -1.239522
 34 24.248116 0.000002 -0.000004 -0.027401 -0.031664 0.934097
 35 26.336975 0.000000 0.000004 -0.303314 0.000501 0.964539
time 11
  0 0.000000 0.000000 0.000000 0.000000 -0.000000 -1.570796
  1 0.000000 0.000000 0.000000 0.000000 -0.000000 0.000000
  2 0.000000 -0.015778 0.000073 -1.570797 -0.261799 1.570797
  3 4.222169 -0.467508 0.000000 0.008406 -0.000297 -0.172506
  4 4.476987 -0.000002 -0.000000 0.009095 -0.014595 -0.087911
  5 4.477083 0.000000 0.000002 -0.009550 0.027545 -0.063592
  6 4.477077 -0.000004 -0.000002 -0.008694 -0.014598 -0.007866
  7 0.003361 -4.812500 -12296.000000 0.000000 0.000000 -0.453786
  8 6.890240 0.000002 -0.000000 0.000000 0.000000 -0.000000
  9 8.011925 0.000004 0.000005 0.000000 0.000000 -0.000000
 10 7.210720 -0.000002 -0.000000 0.000000 0.000000 -0.000000
 11 8.581028 -0.304903 -0.000000 0.001405 0.002301 1.050566
 12 22.523008 2.194031 6.355708 0.000000 -0.000000 0.000000
 13 22.523005 2.194038 -6.355709 0.000000 -0.000000 0.000000
 14 -3.006533 7.804720 -11.355459 0.108324 0.270361 1.510860
 15 10.384675 0.000008 0.000005 -0.008195 0.181198 -1.892750
 16 22.550743 -0.000006 -0.000004 0.131742 0.036609 2.064336
 17 30.814247 -0.000015 -0.000004 2.662439 -0.000215 0.531983
 18 -3.013796 7.815494 11.355459 -0.182765 -0.248304 1.529165
 19 10.374533 -0.000002 0.000007 0.013925 -0.188678 -1.918021
 20 22.550726 -0.000027 -0.000013 -0.127930 -0.012466 2.057289
 21 30.814270 -0.000023 0.000002 -2.628438 -0.083137 0.533023
 22 -4.250660 -0.770624 0.000001 0.000000 -0.000000 -2.983957
 23 10.363422 0.000000 0.000000 -0.000000 -0.020142 0.008171
 24 10.363076 0.000000 -0.000000 0.000000 0.040277 -0.000000
 25 10.363081 -0.000004 -0.000002 -0.001930 -0.020043 0.096012
 26 -0.007698 0.000801 0.097351 0.000000 0.000000 -0.000000
 27 8.210346 -0.000002 7.704017 0.000000 0.000000 -0.000000
 28 1.854841 1.227791 -13.762345 2.693081 0.174438 2.475399
 29 10.456543 -0.000004 0.000004 0.046753 0.092263 -1.244068
 30 24.248093 0.000001 0.000007 0.027092 0.031179 0.925669
 31 26.336971 0.000019 0.000002 0.317183 -0.054601 0.968053
 32 1.854847 1.227798 13.762341 -2.735031 -0.196214 2.479249
 33 10.456542 -0.000008 0.000004 -0.063201 -0.089519 -1.239522
 34 24.248116 0.000002 -0.000004 -0.027401 -0.031664 0.934097
 35 26.336975 0.000000 0.000004 -0.303314 0.000501 0.964539
end
