version 1
nodes
  0 "Chaurus" -1
  1 "NPC Root [Root]" 0
  2 "Pelvis [Pelv]" 1
  3 "Spine[Spn0]" 2
  4 "Spine[Spn1]" 3
  5 "Spine[Spn2]" 4
  6 "Ribcage[Spn3]" 5
  7 "[Neck0]" 6
  8 "[Neck1]" 7
  9 "[Neck2]" 8
 10 "[Neck3]" 9
 11 "NPC Head [Head]" 10
 12 "Head[LeftPincher]" 11
 13 "Head[RightPincher]" 11
 14 "R UpperArm[RClv]" 6
 15 "R UpperArm[RUar]" 14
 16 "R UpperArm[RLar]" 15
 17 "R UpperArm[RHnd]" 16
 18 "L UpperArm[RClv]" 6
 19 "L UpperArm[LUar]" 18
 20 "L UpperArm[LLar]" 19
 21 "L UpperArm[LHnd]" 20
 22 "Tail[Tal0]" 2
 23 "Tail[Tal1]" 22
 24 "Tail[Tal2]" 23
 25 "Tail[Tal3]" 24
 26 "[TalRightPincher]" 25
 27 "[TalLeftPincher]" 25
 28 "R Leg[RThg0]" 2
 29 "R Leg[RThg1]" 28
 30 "R Leg[RClf]" 29
 31 "R Leg[RAnkle]" 30
 32 "LLeg[RThg0]" 2
 33 "LLeg[LThg1]" 32
 34 "LLeg[LClf]" 33
 35 "LLeg[LAnkle]" 34
end
skeleton
time 0
  0 0.000000 0.000000 0.000000 0.000000 -0.000000 -1.570796
  1 0.000000 0.000000 0.000000 0.000000 -0.000000 0.000000
  2 -7.711173 -25.944475 28.933969 -1.522386 -0.697155 1.822633
  3 4.222169 -0.467508 0.000000 0.003456 -0.267019 -0.249251
  4 4.476987 -0.000002 -0.000000 -0.102350 -0.323442 -0.033772
  5 4.477083 0.000000 0.000002 -0.119832 0.159131 0.182344
  6 4.477077 -0.000004 -0.000002 0.007222 0.202210 0.173855
  7 5.413502 -7.700466 -0.000000 0.273499 -0.167703 -0.738801
  8 6.890240 0.000002 -0.000000 -0.171416 0.006313 0.251121
  9 8.011925 0.000004 0.000005 -0.107774 0.183814 0.216348
 10 7.210720 -0.000002 -0.000000 -0.119715 0.174784 0.092359
 11 8.581028 -0.304903 -0.000000 -0.017930 0.317638 0.680684
 12 22.523008 2.194031 6.355708 0.000000 -0.457882 0.000000
 13 22.523005 2.194038 -6.355709 0.000000 0.266767 0.000000
 14 -3.006533 7.804720 -11.355459 0.822219 0.603985 1.841797
 15 10.384675 0.000008 0.000005 0.293491 0.118376 -1.120252
 16 22.550743 -0.000006 -0.000004 0.090657 0.006419 1.786732
 17 30.814247 -0.000015 -0.000004 2.296015 0.120412 0.390204
 18 -3.013796 7.815494 11.355459 0.325191 -0.284662 1.432721
 19 10.374533 -0.000002 0.000007 -0.614336 -0.033462 -0.683978
 20 22.550726 -0.000027 -0.000013 -0.061338 -0.009875 0.807985
 21 30.814270 -0.000023 0.000002 -2.858004 -0.503483 0.692645
 22 -4.250660 -0.770624 0.000001 -0.011817 -0.123872 -2.973869
 23 10.363422 0.000000 0.000000 0.023646 -0.060434 -0.095434
 24 10.363076 0.000000 -0.000000 0.003452 -0.094622 -0.043722
 25 10.363081 -0.000004 -0.000002 -0.022466 -0.130951 0.422770
 26 8.210358 -0.000006 -7.703991 0.000000 0.000000 0.424591
 27 8.210346 -0.000002 7.704017 0.000000 0.000000 0.421762
 28 1.854841 1.227791 -13.762345 2.701436 0.219563 2.349074
 29 10.456543 -0.000004 0.000004 0.020688 0.092708 -1.684644
 30 24.248093 0.000001 0.000007 0.037138 0.037071 1.255597
 31 26.336971 0.000019 0.000002 0.570592 0.171973 0.538725
 32 1.854847 1.227798 13.762341 -2.591335 -0.053521 1.838632
 33 10.456542 -0.000008 0.000004 0.029011 -0.069566 -2.257351
 34 24.248116 0.000002 -0.000004 -0.057196 -0.038052 1.786421
 35 26.336975 0.000000 0.000004 0.008617 -0.254869 0.090170
time 1
  0 0.000000 0.000000 0.000000 0.000000 -0.000000 -1.570796
  1 0.000000 0.000000 0.000000 0.000000 -0.000000 0.000000
  2 -7.711173 -25.944475 28.933969 -1.522386 -0.697155 1.822633
  3 4.222169 -0.467508 0.000000 0.003456 -0.267019 -0.249251
  4 4.476987 -0.000002 -0.000000 -0.102350 -0.323442 -0.033772
  5 4.477083 0.000000 0.000002 -0.119832 0.159131 0.182344
  6 4.477077 -0.000004 -0.000002 0.007222 0.202210 0.173855
  7 5.413502 -7.700466 -0.000000 0.273499 -0.167703 -0.738801
  8 6.890240 0.000002 -0.000000 -0.171416 0.006313 0.251121
  9 8.011925 0.000004 0.000005 -0.107774 0.183814 0.216348
 10 7.210720 -0.000002 -0.000000 -0.119715 0.174784 0.092359
 11 8.581028 -0.304903 -0.000000 -0.017930 0.317638 0.680684
 12 22.523008 2.194031 6.355708 0.000000 -0.457882 0.000000
 13 22.523005 2.194038 -6.355709 0.000000 0.266767 0.000000
 14 -3.006533 7.804720 -11.355459 0.822219 0.603985 1.841797
 15 10.384675 0.000008 0.000005 0.293491 0.118376 -1.120252
 16 22.550743 -0.000006 -0.000004 0.090657 0.006419 1.786732
 17 30.814247 -0.000015 -0.000004 2.296015 0.120412 0.390204
 18 -3.013796 7.815494 11.355459 0.325191 -0.284662 1.432721
 19 10.374533 -0.000002 0.000007 -0.614336 -0.033462 -0.683978
 20 22.550726 -0.000027 -0.000013 -0.061338 -0.009875 0.807985
 21 30.814270 -0.000023 0.000002 -2.858004 -0.503483 0.692645
 22 -4.250660 -0.770624 0.000001 -0.011817 -0.123872 -2.973869
 23 10.363422 0.000000 0.000000 0.023646 -0.060434 -0.095434
 24 10.363076 0.000000 -0.000000 0.003452 -0.094622 -0.043722
 25 10.363081 -0.000004 -0.000002 -0.022466 -0.130951 0.422770
 26 8.210358 -0.000006 -7.703991 0.000000 0.000000 0.424591
 27 8.210346 -0.000002 7.704017 0.000000 0.000000 0.421762
 28 1.854841 1.227791 -13.762345 2.701436 0.219563 2.349074
 29 10.456543 -0.000004 0.000004 0.020688 0.092708 -1.684644
 30 24.248093 0.000001 0.000007 0.037138 0.037071 1.255597
 31 26.336971 0.000019 0.000002 0.570592 0.171973 0.538725
 32 1.854847 1.227798 13.762341 -2.591335 -0.053521 1.838632
 33 10.456542 -0.000008 0.000004 0.029011 -0.069566 -2.257351
 34 24.248116 0.000002 -0.000004 -0.057196 -0.038052 1.786421
 35 26.336975 0.000000 0.000004 0.008617 -0.254869 0.090170
time 2
  0 0.000000 0.000000 0.000000 0.000000 -0.000000 -1.570796
  1 0.000000 0.000000 0.000000 0.000000 -0.000000 0.000000
  2 -7.816645 -28.194544 27.363609 -1.522674 -0.694881 1.818798
  3 4.222169 -0.467508 0.000000 -0.023821 -0.262292 -0.217142
  4 4.476987 -0.000002 -0.000000 -0.144104 -0.317852 -0.043250
  5 4.477083 0.000000 0.000002 -0.178605 0.155384 0.104886
  6 4.477077 -0.000004 -0.000002 -0.017682 0.205819 0.138613
  7 5.413502 -7.700466 -0.000000 0.251648 -0.145852 -0.746424
  8 6.890240 0.000002 -0.000000 -0.162990 -0.000314 0.281234
  9 8.011925 0.000004 0.000005 -0.099536 0.159196 0.245393
 10 7.210720 -0.000002 -0.000000 -0.106428 0.158277 0.117916
 11 8.581028 -0.304903 -0.000000 -0.005415 0.311441 0.675882
 12 22.523008 2.194031 6.355708 0.000000 -0.453146 0.000000
 13 22.523005 2.194038 -6.355709 0.000000 0.216765 0.000000
 14 -3.006533 7.804720 -11.355459 0.804313 0.540214 1.897834
 15 10.384675 0.000008 0.000005 0.285274 0.135773 -1.211781
 16 22.550743 -0.000006 -0.000004 0.095551 0.006620 1.914033
 17 30.814247 -0.000015 -0.000004 2.270987 0.177026 0.392998
 18 -3.013796 7.815494 11.355459 0.235076 -0.409020 1.550597
 19 10.374533 -0.000002 0.000007 -0.622088 -0.039243 -0.727872
 20 22.550726 -0.000027 -0.000013 -0.065158 -0.010464 0.859786
 21 30.814270 -0.000023 0.000002 -2.830817 -0.545200 0.675576
 22 -4.250660 -0.770624 0.000001 -0.010427 -0.126696 -2.955714
 23 10.363422 0.000000 0.000000 0.023142 -0.053699 -0.121203
 24 10.363076 0.000000 -0.000000 0.003008 -0.084363 -0.060472
 25 10.363081 -0.000004 -0.000002 -0.010364 -0.128779 0.422878
 26 8.210358 -0.000006 -7.703991 0.000000 0.000000 0.416439
 27 8.210346 -0.000002 7.704017 0.000000 0.000000 0.413455
 28 1.854841 1.227791 -13.762345 2.658122 0.219415 2.274813
 29 10.456543 -0.000004 0.000004 0.009070 0.089861 -1.809604
 30 24.248093 0.000001 0.000007 0.040401 0.037797 1.341735
 31 26.336971 0.000019 0.000002 0.600174 0.194520 0.519948
 32 1.854847 1.227798 13.762341 -2.577796 -0.054205 1.822261
 33 10.456542 -0.000008 0.000004 0.034539 -0.063666 -2.341887
 34 24.248116 0.000002 -0.000004 -0.061315 -0.037333 1.895278
 35 26.336975 0.000000 0.000004 -0.004076 -0.265075 0.033766
time 3
  0 0.000000 0.000000 0.000000 0.000000 -0.000000 -1.570796
  1 0.000000 0.000000 0.000000 0.000000 -0.000000 0.000000
  2 -7.890866 -29.936785 26.164354 -1.522961 -0.688140 1.815156
  3 4.222169 -0.467508 0.000000 -0.055783 -0.248574 -0.172690
  4 4.476987 -0.000002 -0.000000 -0.185511 -0.312583 -0.052928
  5 4.477083 0.000000 0.000002 -0.234956 0.156644 0.011361
  6 4.477077 -0.000004 -0.000002 -0.042730 0.214632 0.095725
  7 5.413502 -7.700466 -0.000000 0.228840 -0.121623 -0.753300
  8 6.890240 0.000002 -0.000000 -0.154685 -0.007528 0.311557
  9 8.011925 0.000004 0.000005 -0.090604 0.133188 0.275451
 10 7.210720 -0.000002 -0.000000 -0.091824 0.141240 0.143955
 11 8.581028 -0.304903 -0.000000 0.007077 0.304031 0.669924
 12 22.523008 2.194031 6.355708 0.000000 -0.448686 0.000000
 13 22.523005 2.194038 -6.355709 0.000000 0.161742 0.000000
 14 -3.006533 7.804720 -11.355459 0.782447 0.478456 1.949819
 15 10.384675 0.000008 0.000005 0.276011 0.151686 -1.299811
 16 22.550743 -0.000006 -0.000004 0.100140 0.006591 2.027714
 17 30.814247 -0.000015 -0.000004 2.246133 0.233421 0.394430
 18 -3.013796 7.815494 11.355459 0.127497 -0.515329 1.708203
 19 10.374533 -0.000002 0.000007 -0.629638 -0.045290 -0.771593
 20 22.550726 -0.000027 -0.000013 -0.068998 -0.010876 0.911339
 21 30.814270 -0.000023 0.000002 -2.801244 -0.580139 0.652788
 22 -4.250660 -0.770624 0.000001 -0.008964 -0.129617 -2.938379
 23 10.363422 0.000000 0.000000 0.022531 -0.046975 -0.146620
 24 10.363076 0.000000 -0.000000 0.002361 -0.074176 -0.077120
 25 10.363081 -0.000004 -0.000002 0.000729 -0.125774 0.422609
 26 8.210358 -0.000006 -7.703991 0.000000 0.000000 0.408320
 27 8.210346 -0.000002 7.704017 0.000000 0.000000 0.405215
 28 1.854841 1.227791 -13.762345 2.616611 0.219070 2.213688
 29 10.456543 -0.000004 0.000004 -0.000259 0.086978 -1.911857
 30 24.248093 0.000001 0.000007 0.042848 0.038423 1.407034
 31 26.336971 0.000019 0.000002 0.626842 0.212363 0.507302
 32 1.854847 1.227798 13.762341 -2.565371 -0.053603 1.804598
 33 10.456542 -0.000008 0.000004 0.038168 -0.059214 -2.401240
 34 24.248116 0.000002 -0.000004 -0.064502 -0.035859 1.985095
 35 26.336975 0.000000 0.000004 -0.017541 -0.271931 -0.006078
time 4
  0 0.000000 0.000000 0.000000 0.000000 -0.000000 -1.570796
  1 0.000000 0.000000 0.000000 0.000000 -0.000000 0.000000
  2 -7.933836 -31.311827 25.320578 -1.523441 -0.677290 1.811704
  3 4.222169 -0.467508 0.000000 -0.083720 -0.229943 -0.130200
  4 4.476987 -0.000002 -0.000000 -0.227325 -0.307678 -0.062961
  5 4.477083 0.000000 0.000002 -0.283458 0.156983 -0.081497
  6 4.477077 -0.000004 -0.000002 -0.065477 0.224197 0.051467
  7 5.413502 -7.700466 -0.000000 0.205567 -0.096323 -0.759866
  8 6.890240 0.000002 -0.000000 -0.146428 -0.015135 0.341693
  9 8.011925 0.000004 0.000005 -0.081397 0.106397 0.305690
 10 7.210720 -0.000002 -0.000000 -0.076616 0.123867 0.169914
 11 8.581028 -0.304903 -0.000000 0.019477 0.295956 0.663334
 12 22.523008 2.194031 6.355708 0.000000 -0.443920 0.000000
 13 22.523005 2.194038 -6.355709 0.000000 0.104359 0.000000
 14 -3.006533 7.804720 -11.355459 0.756239 0.418430 1.997822
 15 10.384675 0.000008 0.000005 0.265963 0.165307 -1.380899
 16 22.550743 -0.000006 -0.000004 0.104059 0.006419 2.118150
 17 30.814247 -0.000015 -0.000004 2.223376 0.288969 0.395290
 18 -3.013796 7.815494 11.355459 -0.004265 -0.603105 1.886956
 19 10.374533 -0.000002 0.000007 -0.636581 -0.051402 -0.813401
 20 22.550726 -0.000027 -0.000013 -0.072695 -0.011092 0.960720
 21 30.814270 -0.000023 0.000002 -2.772197 -0.610405 0.631173
 22 -4.250660 -0.770624 0.000001 -0.007418 -0.132618 -2.921684
 23 10.363422 0.000000 0.000000 0.021788 -0.040216 -0.171905
 24 10.363076 0.000000 -0.000000 0.001522 -0.063953 -0.093819
 25 10.363081 -0.000004 -0.000002 0.010985 -0.121908 0.421965
 26 8.210358 -0.000006 -7.703991 0.000000 0.000000 0.400133
 27 8.210346 -0.000002 7.704017 0.000000 0.000000 0.396907
 28 1.854841 1.227791 -13.762345 2.578266 0.217046 2.161017
 29 10.456543 -0.000004 0.000004 -0.008260 0.083330 -2.003558
 30 24.248093 0.000001 0.000007 0.044961 0.038746 1.463157
 31 26.336971 0.000019 0.000002 0.650334 0.225791 0.496864
 32 1.854847 1.227798 13.762341 -2.554060 -0.050648 1.783574
 33 10.456542 -0.000008 0.000004 0.040779 -0.055679 -2.446445
 34 24.248116 0.000002 -0.000004 -0.066691 -0.034624 2.055923
 35 26.336975 0.000000 0.000004 -0.032164 -0.275901 -0.023937
time 5
  0 0.000000 0.000000 0.000000 0.000000 -0.000000 -1.570796
  1 0.000000 0.000000 0.000000 0.000000 -0.000000 0.000000
  2 -7.961181 -32.429050 24.824469 -1.524016 -0.662850 1.808541
  3 4.222169 -0.467508 0.000000 -0.099719 -0.212073 -0.103229
  4 4.476987 -0.000002 -0.000000 -0.266575 -0.302731 -0.072151
  5 4.477083 0.000000 0.000002 -0.316511 0.153397 -0.154212
  6 4.477077 -0.000004 -0.000002 -0.082447 0.230455 0.013375
  7 5.413502 -7.700466 -0.000000 0.182811 -0.071788 -0.766244
  8 6.890240 0.000002 -0.000000 -0.138350 -0.022755 0.370549
  9 8.011925 0.000004 0.000005 -0.072425 0.080069 0.334788
 10 7.210720 -0.000002 -0.000000 -0.061875 0.106760 0.194801
 11 8.581028 -0.304903 -0.000000 0.031418 0.287967 0.656710
 12 22.523008 2.194031 6.355708 0.000000 -0.438420 0.000000
 13 22.523005 2.194038 -6.355709 0.000000 0.048580 0.000000
 14 -3.006533 7.804720 -11.355459 0.718908 0.365293 2.019317
 15 10.384675 0.000008 0.000005 0.256215 0.175172 -1.447046
 16 22.550743 -0.000006 -0.000004 0.106825 0.006304 2.180741
 17 30.814247 -0.000015 -0.000004 2.246963 0.318405 0.410259
 18 -3.013796 7.815494 11.355459 -0.105072 -0.647272 2.012300
 19 10.374533 -0.000002 0.000007 -0.637053 -0.051668 -0.816474
 20 22.550726 -0.000027 -0.000013 -0.073042 -0.011367 0.964070
 21 30.814270 -0.000023 0.000002 -2.748939 -0.633282 0.619486
 22 -4.250660 -0.770624 0.000001 -0.005836 -0.135651 -2.905885
 23 10.363422 0.000000 0.000000 0.020937 -0.033481 -0.196706
 24 10.363076 0.000000 -0.000000 0.000491 -0.053778 -0.110466
 25 10.363081 -0.000004 -0.000002 0.020256 -0.117193 0.420972
 26 8.210358 -0.000006 -7.703991 0.000000 0.000000 0.391980
 27 8.210346 -0.000002 7.704017 0.000000 0.000000 0.388633
 28 1.854841 1.227791 -13.762345 2.545638 0.211791 2.113517
 29 10.456543 -0.000004 0.000004 -0.012506 0.081159 -2.049713
 30 24.248093 0.000001 0.000007 0.046666 0.038947 1.509630
 31 26.336971 0.000019 0.000002 0.669650 0.234910 0.484935
 32 1.854847 1.227798 13.762341 -2.544370 -0.044409 1.757812
 33 10.456542 -0.000008 0.000004 0.042848 -0.052702 -2.483688
 34 24.248116 0.000002 -0.000004 -0.067948 -0.033905 2.101009
 35 26.336975 0.000000 0.000004 -0.045501 -0.278321 -0.048240
time 6
  0 0.000000 0.000000 0.000000 0.000000 -0.000000 -1.570796
  1 0.000000 0.000000 0.000000 0.000000 -0.000000 0.000000
  2 -7.953368 -33.413452 24.722904 -1.524783 -0.645019 1.805473
  3 4.222169 -0.467508 0.000000 -0.103890 -0.197409 -0.091529
  4 4.476987 -0.000002 -0.000000 -0.271392 -0.290908 -0.067933
  5 4.477083 0.000000 0.000002 -0.327981 0.144787 -0.190540
  6 4.477077 -0.000004 -0.000002 -0.091124 0.230794 -0.013332
  7 5.413502 -7.700466 -0.000000 0.161120 -0.049342 -0.772685
  8 6.890240 0.000002 -0.000000 -0.130368 -0.030126 0.397661
  9 8.011925 0.000004 0.000005 -0.063860 0.054940 0.361938
 10 7.210720 -0.000002 -0.000000 -0.048259 0.090305 0.218105
 11 8.581028 -0.304903 -0.000000 0.042739 0.280591 0.650576
 12 22.523008 2.194031 6.355708 0.000000 -0.431577 0.000000
 13 22.523005 2.194038 -6.355709 0.000000 -0.002783 0.000000
 14 -3.006533 7.804720 -11.355459 0.673059 0.316467 2.019248
 15 10.384675 0.000008 0.000005 0.248110 0.180731 -1.495366
 16 22.550743 -0.000006 -0.000004 0.108329 0.006362 2.217424
 17 30.814247 -0.000015 -0.000004 2.286056 0.311759 0.409937
 18 -3.013796 7.815494 11.355459 -0.138064 -0.659828 2.036012
 19 10.374533 -0.000002 0.000007 -0.636177 -0.050738 -0.811487
 20 22.550726 -0.000027 -0.000013 -0.072654 -0.011563 0.958115
 21 30.814270 -0.000023 0.000002 -2.736977 -0.648696 0.623279
 22 -4.250660 -0.770624 0.000001 -0.004207 -0.138700 -2.890803
 23 10.363422 0.000000 0.000000 0.019990 -0.026710 -0.221220
 24 10.363076 0.000000 -0.000000 -0.000731 -0.043579 -0.127165
 25 10.363081 -0.000004 -0.000002 0.028653 -0.111585 0.419602
 26 8.210358 -0.000006 -7.703991 0.000000 0.000000 0.383793
 27 8.210346 -0.000002 7.704017 0.000000 0.000000 0.380359
 28 1.854841 1.227791 -13.762345 2.520617 0.201503 2.066807
 29 10.456543 -0.000004 0.000004 -0.015406 0.079700 -2.082277
 30 24.248093 0.000001 0.000007 0.047815 0.039149 1.544203
 31 26.336971 0.000019 0.000002 0.684180 0.240166 0.467704
 32 1.854847 1.227798 13.762341 -2.536604 -0.033519 1.724682
 33 10.456542 -0.000008 0.000004 0.044001 -0.050893 -2.505798
 34 24.248116 0.000002 -0.000004 -0.068725 -0.033498 2.126040
 35 26.336975 0.000000 0.000004 -0.057380 -0.278724 -0.076894
time 7
  0 0.000000 0.000000 0.000000 0.000000 -0.000000 -1.570796
  1 0.000000 0.000000 0.000000 0.000000 -0.000000 0.000000
  2 -7.824458 -34.288479 25.379173 -1.525550 -0.624396 1.802501
  3 4.222169 -0.467508 0.000000 -0.103003 -0.184025 -0.083295
  4 4.476987 -0.000002 -0.000000 -0.264645 -0.276965 -0.056258
  5 4.477083 0.000000 0.000002 -0.321880 0.133900 -0.194660
  6 4.477077 -0.000004 -0.000002 -0.092263 0.225738 -0.029419
  7 5.413502 -7.700466 -0.000000 0.141448 -0.030771 -0.779126
  8 6.890240 0.000002 -0.000000 -0.122542 -0.036883 0.422002
  9 8.011925 0.000004 0.000005 -0.055989 0.032271 0.385896
 10 7.210720 -0.000002 -0.000000 -0.036620 0.075193 0.238969
 11 8.581028 -0.304903 -0.000000 0.053119 0.274497 0.645599
 12 22.523008 2.194031 6.355708 0.000000 -0.422930 0.000000
 13 22.523005 2.194038 -6.355709 0.000000 -0.045948 0.000000
 14 -3.006533 7.804720 -11.355459 0.622977 0.264319 2.017737
 15 10.384675 0.000008 0.000005 0.246541 0.175830 -1.494255
 16 22.550743 -0.000006 -0.000004 0.108825 0.006304 2.231770
 17 30.814247 -0.000015 -0.000004 2.334322 0.263703 0.360588
 18 -3.013796 7.815494 11.355459 -0.118004 -0.657810 1.981804
 19 10.374533 -0.000002 0.000007 -0.634829 -0.049476 -0.800180
 20 22.550726 -0.000027 -0.000013 -0.071837 -0.011563 0.945025
 21 30.814270 -0.000023 0.000002 -2.744800 -0.663474 0.633543
 22 -4.250660 -0.770624 0.000001 -0.002577 -0.141685 -2.876669
 23 10.363422 0.000000 0.000000 0.018948 -0.019986 -0.245163
 24 10.363076 0.000000 -0.000000 -0.002133 -0.033452 -0.143812
 25 10.363081 -0.000004 -0.000002 0.036077 -0.105130 0.417911
 26 8.210358 -0.000006 -7.703991 0.000000 0.000000 0.375607
 27 8.210346 -0.000002 7.704017 0.000000 0.000000 0.372119
 28 1.854841 1.227791 -13.762345 2.504962 0.185343 2.018698
 29 10.456543 -0.000004 0.000004 -0.016419 0.079184 -2.093566
 30 24.248093 0.000001 0.000007 0.047815 0.039190 1.543789
 31 26.336971 0.000019 0.000002 0.692967 0.241900 0.441638
 32 1.854847 1.227798 13.762341 -2.532215 -0.013928 1.677078
 33 10.456542 -0.000008 0.000004 0.043763 -0.051255 -2.501226
 34 24.248116 0.000002 -0.000004 -0.068673 -0.033570 2.119186
 35 26.336975 0.000000 0.000004 -0.067329 -0.276677 -0.107808
time 8
  0 0.000000 0.000000 0.000000 0.000000 -0.000000 -1.570796
  1 0.000000 0.000000 0.000000 0.000000 -0.000000 0.000000
  2 -7.543199 -35.026787 26.879219 -1.526413 -0.601220 1.799626
  3 4.222169 -0.467508 0.000000 -0.098005 -0.171790 -0.078219
  4 4.476987 -0.000002 -0.000000 -0.256124 -0.262251 -0.043494
  5 4.477083 0.000000 0.000002 -0.310459 0.125597 -0.189843
  6 4.477077 -0.000004 -0.000002 -0.088020 0.216436 -0.038078
  7 5.413502 -7.700466 -0.000000 0.124236 -0.017127 -0.785131
  8 6.890240 0.000002 -0.000000 -0.114740 -0.042882 0.442504
  9 8.011925 0.000004 0.000005 -0.048825 0.012637 0.405597
 10 7.210720 -0.000002 -0.000000 -0.027451 0.061739 0.256507
 11 8.581028 -0.304903 -0.000000 0.062350 0.270263 0.642340
 12 22.523008 2.194031 6.355708 0.000000 -0.411901 0.000000
 13 22.523005 2.194038 -6.355709 0.000000 -0.077891 0.000000
 14 -3.006533 7.804720 -11.355459 0.554881 0.182177 2.042940
 15 10.384675 0.000008 0.000005 0.246578 0.168107 -1.478315
 16 22.550743 -0.000006 -0.000004 0.105578 0.006878 2.181770
 17 30.814247 -0.000015 -0.000004 2.393507 0.189283 0.262320
 18 -3.013796 7.815494 11.355459 -0.104003 -0.696336 1.908730
 19 10.374533 -0.000002 0.000007 -0.682285 -0.097150 -1.031774
 20 22.550726 -0.000027 -0.000013 -0.097330 -0.014429 1.219725
 21 30.814270 -0.000023 0.000002 -2.805068 -0.690559 0.654824
 22 -4.250660 -0.770624 0.000001 -0.000935 -0.144605 -2.863353
 23 10.363422 0.000000 0.000000 0.017809 -0.013227 -0.268643
 24 10.363076 0.000000 -0.000000 -0.003739 -0.023301 -0.160537
 25 10.363081 -0.000004 -0.000002 0.042590 -0.097751 0.415871
 26 8.210358 -0.000006 -7.703991 0.000000 0.000000 0.367420
 27 8.210346 -0.000002 7.704017 0.000000 0.000000 0.363812
 28 1.854841 1.227791 -13.762345 2.496607 0.165309 1.969372
 29 10.456543 -0.000004 0.000004 -0.015441 0.079718 -2.081105
 30 24.248093 0.000001 0.000007 0.047370 0.039068 1.531475
 31 26.336971 0.000019 0.000002 0.695969 0.240455 0.405023
 32 1.854847 1.227798 13.762341 -2.532047 0.015377 1.612585
 33 10.456542 -0.000008 0.000004 0.041830 -0.054232 -2.464101
 34 24.248116 0.000002 -0.000004 -0.067287 -0.034397 2.072272
 35 26.336975 0.000000 0.000004 -0.075176 -0.271496 -0.139571
time 9
  0 0.000000 0.000000 0.000000 0.000000 -0.000000 -1.570796
  1 0.000000 0.000000 0.000000 0.000000 -0.000000 0.000000
  2 -7.176000 -35.616646 28.820684 -1.527467 -0.576090 1.796845
  3 4.222169 -0.467508 0.000000 -0.089976 -0.160649 -0.075797
  4 4.476987 -0.000002 -0.000000 -0.244295 -0.246252 -0.028489
  5 4.477083 0.000000 0.000002 -0.294412 0.119539 -0.176593
  6 4.477077 -0.000004 -0.000002 -0.080590 0.203996 -0.042298
  7 5.413502 -7.700466 -0.000000 0.109589 -0.008462 -0.788492
  8 6.890240 0.000002 -0.000000 -0.106986 -0.048398 0.455955
  9 8.011925 0.000004 0.000005 -0.042460 -0.004058 0.418368
 10 7.210720 -0.000002 -0.000000 -0.020616 0.049893 0.268092
 11 8.581028 -0.304903 -0.000000 0.070089 0.268505 0.641428
 12 22.523008 2.194031 6.355708 0.000000 -0.398061 0.000000
 13 22.523005 2.194038 -6.355709 0.000000 -0.095617 0.000000
 14 -3.006533 7.804720 -11.355459 0.483964 0.102542 2.069448
 15 10.384675 0.000008 0.000005 0.252368 0.149607 -1.406613
 16 22.550743 -0.000006 -0.000004 0.100428 0.007710 2.086673
 17 30.814247 -0.000015 -0.000004 2.464223 0.120380 0.160042
 18 -3.013796 7.815494 11.355459 -0.053243 -0.730863 1.728723
 19 10.374533 -0.000002 0.000007 -0.743561 -0.205322 -1.356317
 20 22.550726 -0.000027 -0.000013 -0.143945 -0.015607 1.613289
 21 30.814270 -0.000023 0.000002 -2.958334 -0.722342 0.770043
 22 -4.250660 -0.770624 0.000001 0.000683 -0.147381 -2.851012
 23 10.363422 0.000000 0.000000 0.016623 -0.006516 -0.291398
 24 10.363076 0.000000 -0.000000 -0.005501 -0.013222 -0.177184
 25 10.363081 -0.000004 -0.000002 0.048130 -0.089524 0.413481
 26 8.210358 -0.000006 -7.703991 0.000000 0.000000 0.359301
 27 8.210346 -0.000002 7.704017 0.000000 0.000000 0.355606
 28 1.854841 1.227791 -13.762345 2.492254 0.144338 1.921081
 29 10.456543 -0.000004 0.000004 -0.013030 0.081035 -2.051363
 30 24.248093 0.000001 0.000007 0.046629 0.038887 1.509985
 31 26.336971 0.000019 0.000002 0.694925 0.236092 0.363879
 32 1.854847 1.227798 13.762341 -2.534781 0.047089 1.543698
 33 10.456542 -0.000008 0.000004 0.038676 -0.058546 -2.408374
 34 24.248116 0.000002 -0.000004 -0.065344 -0.035379 2.011751
 35 26.336975 0.000000 0.000004 -0.080837 -0.262872 -0.169637
time 10
  0 0.000000 0.000000 0.000000 0.000000 -0.000000 -1.570796
  1 0.000000 0.000000 0.000000 0.000000 -0.000000 0.000000
  2 -6.812708 -36.046349 30.750431 -1.528522 -0.549284 1.794065
  3 4.222169 -0.467508 0.000000 -0.079908 -0.150342 -0.075505
  4 4.476987 -0.000002 -0.000000 -0.228188 -0.228453 -0.010331
  5 4.477083 0.000000 0.000002 -0.274493 0.115388 -0.156020
  6 4.477077 -0.000004 -0.000002 -0.071757 0.189300 -0.044478
  7 5.413502 -7.700466 -0.000000 0.097161 -0.004129 -0.786625
  8 6.890240 0.000002 -0.000000 -0.099149 -0.053913 0.458771
  9 8.011925 0.000004 0.000005 -0.036815 -0.018564 0.421457
 10 7.210720 -0.000002 -0.000000 -0.015592 0.039194 0.270747
 11 8.581028 -0.304903 -0.000000 0.076174 0.269768 0.643426
 12 22.523008 2.194031 6.355708 0.000000 -0.380799 0.000000
 13 22.523005 2.194038 -6.355709 0.000000 -0.101879 0.000000
 14 -3.006533 7.804720 -11.355459 0.416031 0.034319 2.084213
 15 10.384675 0.000008 0.000005 0.256812 0.129748 -1.328581
 16 22.550743 -0.000006 -0.000004 0.094159 0.008600 1.961007
 17 30.814247 -0.000015 -0.000004 2.541317 0.065898 0.072446
 18 -3.013796 7.815494 11.355459 0.010805 -0.718046 1.549799
 19 10.374533 -0.000002 0.000007 -0.743628 -0.308877 -1.546277
 20 22.550726 -0.000027 -0.000013 -0.176567 -0.014076 1.875272
 21 30.814270 -0.000023 0.000002 -3.040773 -0.721486 0.824487
 22 -4.250660 -0.770624 0.000001 0.002289 -0.149981 -2.839591
 23 10.363422 0.000000 0.000000 0.015376 0.000184 -0.313514
 24 10.363076 0.000000 -0.000000 -0.007454 -0.003143 -0.193883
 25 10.363081 -0.000004 -0.000002 0.052735 -0.080388 0.410716
 26 8.210358 -0.000006 -7.703991 0.000000 0.000000 0.351148
 27 8.210346 -0.000002 7.704017 0.000000 0.000000 0.347366
 28 1.854841 1.227791 -13.762345 2.488120 0.124723 1.875040
 29 10.456543 -0.000004 0.000004 -0.010165 0.082565 -2.017626
 30 24.248093 0.000001 0.000007 0.045925 0.038806 1.489442
 31 26.336971 0.000019 0.000002 0.692358 0.229234 0.326326
 32 1.854847 1.227798 13.762341 -2.537617 0.074944 1.481619
 33 10.456542 -0.000008 0.000004 0.035353 -0.062581 -2.354065
 34 24.248116 0.000002 -0.000004 -0.063051 -0.036494 1.943868
 35 26.336975 0.000000 0.000004 -0.086583 -0.252449 -0.192188
time 11
  0 0.000000 0.000000 0.000000 0.000000 -0.000000 -1.570796
  1 0.000000 0.000000 0.000000 0.000000 -0.000000 0.000000
  2 -6.539262 -36.308075 32.211414 -1.529768 -0.521122 1.791189
  3 4.222169 -0.467508 0.000000 -0.068775 -0.140647 -0.076885
  4 4.476987 -0.000002 -0.000000 -0.209060 -0.209391 0.010201
  5 4.477083 0.000000 0.000002 -0.251495 0.112835 -0.129208
  6 4.477077 -0.000004 -0.000002 -0.062337 0.173345 -0.045008
  7 5.413502 -7.700466 -0.000000 0.086674 -0.003602 -0.776979
  8 6.890240 0.000002 -0.000000 -0.091071 -0.059834 0.447229
  9 8.011925 0.000004 0.000005 -0.031878 -0.031424 0.411957
 10 7.210720 -0.000002 -0.000000 -0.011996 0.029272 0.261442
 11 8.581028 -0.304903 -0.000000 0.080331 0.274702 0.649034
 12 22.523008 2.194031 6.355708 0.000000 -0.359535 0.000000
 13 22.523005 2.194038 -6.355709 0.000000 -0.103724 0.000000
 14 -3.006533 7.804720 -11.355459 0.362911 -0.009490 2.065602
 15 10.384675 0.000008 0.000005 0.258680 0.111523 -1.257212
 16 22.550743 -0.000006 -0.000004 0.088162 0.008801 1.842544
 17 30.814247 -0.000015 -0.000004 2.611990 0.029503 0.010563
 18 -3.013796 7.815494 11.355459 -0.027736 -0.734263 1.654224
 19 10.374533 -0.000002 0.000007 -0.730281 -0.352166 -1.610583
 20 22.550726 -0.000027 -0.000013 -0.188619 -0.013389 1.971616
 21 30.814270 -0.000023 0.000002 -2.871159 -0.672967 0.563006
 22 -4.250660 -0.770624 0.000001 0.003859 -0.152388 -2.829144
 23 10.363422 0.000000 0.000000 0.014082 0.006883 -0.334926
 24 10.363076 0.000000 -0.000000 -0.009588 0.006924 -0.210660
 25 10.363081 -0.000004 -0.000002 0.056650 -0.070528 0.408165
 26 8.210358 -0.000006 -7.703991 0.000000 0.000000 0.342995
 27 8.210346 -0.000002 7.704017 0.000000 0.000000 0.339092
 28 1.854841 1.227791 -13.762345 2.481040 0.108563 1.833439
 29 10.456543 -0.000004 0.000004 -0.007474 0.083953 -1.986625
 30 24.248093 0.000001 0.000007 0.045257 0.038786 1.469432
 31 26.336971 0.000019 0.000002 0.690488 0.220430 0.300148
 32 1.854847 1.227798 13.762341 -2.537550 0.094453 1.435565
 33 10.456542 -0.000008 0.000004 0.032979 -0.065085 -2.319226
 34 24.248116 0.000002 -0.000004 -0.060914 -0.037536 1.882280
 35 26.336975 0.000000 0.000004 -0.095203 -0.242832 -0.200609
time 12
  0 0.000000 0.000000 0.000000 0.000000 -0.000000 -1.570796
  1 0.000000 0.000000 0.000000 0.000000 -0.000000 0.000000
  2 -6.418165 -36.347137 32.895027 -1.531014 -0.492242 1.788314
  3 4.222169 -0.467508 0.000000 -0.057629 -0.131470 -0.079477
  4 4.476987 -0.000002 -0.000000 -0.190029 -0.190436 0.030801
  5 4.477083 0.000000 0.000002 -0.226363 0.111624 -0.097460
  6 4.477077 -0.000004 -0.000002 -0.052821 0.157278 -0.043466
  7 5.413502 -7.700466 -0.000000 0.077862 -0.006355 -0.757003
  8 6.890240 0.000002 -0.000000 -0.082682 -0.066304 0.418954
  9 8.011925 0.000004 0.000005 -0.027569 -0.043006 0.387999
 10 7.210720 -0.000002 -0.000000 -0.009333 0.019880 0.238191
 11 8.581028 -0.304903 -0.000000 0.082352 0.283869 0.658778
 12 22.523008 2.194031 6.355708 0.000000 -0.333841 0.000000
 13 22.523005 2.194038 -6.355709 0.000000 -0.101607 0.000000
 14 -3.006533 7.804720 -11.355459 0.343323 -0.012069 1.996174
 15 10.384675 0.000008 0.000005 0.256290 0.101127 -1.217835
 16 22.550743 -0.000006 -0.000004 0.084804 0.008743 1.773052
 17 30.814247 -0.000015 -0.000004 2.663444 0.007465 -0.025714
 18 -3.013796 7.815494 11.355459 -0.105225 -0.753956 1.882282
 19 10.374533 -0.000002 0.000007 -0.744774 -0.313561 -1.555613
 20 22.550726 -0.000027 -0.000013 -0.178793 -0.014390 1.884205
 21 30.814270 -0.000023 0.000002 -2.681585 -0.557042 0.260804
 22 -4.250660 -0.770624 0.000001 0.005369 -0.154539 -2.819721
 23 10.363422 0.000000 0.000000 0.012764 0.013559 -0.355479
 24 10.363076 0.000000 -0.000000 -0.011877 0.016943 -0.227410
 25 10.363081 -0.000004 -0.000002 0.057191 -0.057757 0.400111
 26 8.210358 -0.000006 -7.703991 0.000000 0.000000 0.335182
 27 8.210346 -0.000002 7.704017 0.000000 0.000000 0.331157
 28 1.854841 1.227791 -13.762345 2.473961 0.097411 1.802481
 29 10.456543 -0.000004 0.000004 -0.005325 0.085003 -1.962527
 30 24.248093 0.000001 0.000007 0.044627 0.038746 1.449955
 31 26.336971 0.000019 0.000002 0.690575 0.210234 0.291202
 32 1.854847 1.227798 13.762341 -2.534950 0.105836 1.406700
 33 10.456542 -0.000008 0.000004 0.031894 -0.066087 -2.304526
 34 24.248116 0.000002 -0.000004 -0.060098 -0.037860 1.860245
 35 26.336975 0.000000 0.000004 -0.105409 -0.233309 -0.195748
time 13
  0 0.000000 0.000000 0.000000 0.000000 -0.000000 -1.570796
  1 0.000000 0.000000 0.000000 0.000000 -0.000000 0.000000
  2 -6.437696 -35.995564 33.035656 -1.532356 -0.462843 1.785437
  3 4.222169 -0.467508 0.000000 -0.047214 -0.122609 -0.082896
  4 4.476987 -0.000002 -0.000000 -0.171033 -0.171567 0.051533
  5 4.477083 0.000000 0.000002 -0.199793 0.111527 -0.061769
  6 4.477077 -0.000004 -0.000002 -0.043689 0.142056 -0.039479
  7 5.413502 -7.700466 -0.000000 0.070272 -0.011758 -0.724239
  8 6.890240 0.000002 -0.000000 -0.073873 -0.073152 0.375250
  9 8.011925 0.000004 0.000005 -0.023653 -0.053486 0.350881
 10 7.210720 -0.000002 -0.000000 -0.007302 0.010946 0.202229
 11 8.581028 -0.304903 -0.000000 0.082168 0.298005 0.673394
 12 22.523008 2.194031 6.355708 0.000000 -0.303442 0.000000
 13 22.523005 2.194038 -6.355709 0.000000 -0.096162 0.000000
 14 -3.006533 7.804720 -11.355459 0.349725 0.015524 1.908615
 15 10.384675 0.000008 0.000005 0.248894 0.104946 -1.245827
 16 22.550743 -0.000006 -0.000004 0.085971 0.009145 1.795873
 17 30.814247 -0.000015 -0.000004 2.677683 -0.005826 -0.042331
 18 -3.013796 7.815494 11.355459 -0.095297 -0.746333 1.922239
 19 10.374533 -0.000002 0.000007 -0.758189 -0.269807 -1.496236
 20 22.550726 -0.000027 -0.000013 -0.167579 -0.013840 1.789040
 21 30.814270 -0.000023 0.000002 -2.631630 -0.464899 0.144720
 22 -4.250660 -0.770624 0.000001 0.006831 -0.156384 -2.811323
 23 10.363422 0.000000 0.000000 0.011445 0.020222 -0.375175
 24 10.363076 0.000000 -0.000000 -0.014358 0.026962 -0.244238
 25 10.363081 -0.000004 -0.000002 0.048179 -0.036913 0.372083
 26 8.210358 -0.000006 -7.703991 0.000000 0.000000 0.324652
 27 8.210346 -0.000002 7.704017 0.000000 0.000000 0.320408
 28 1.854841 1.227791 -13.762345 2.473785 0.091638 1.787823
 29 10.456543 -0.000004 0.000004 -0.003351 0.085928 -1.940817
 30 24.248093 0.000001 0.000007 0.043997 0.038685 1.431011
 31 26.336971 0.000019 0.000002 0.691097 0.198383 0.297939
 32 1.854847 1.227798 13.762341 -2.532047 0.110980 1.392483
 33 10.456542 -0.000008 0.000004 0.030978 -0.066950 -2.291993
 34 24.248116 0.000002 -0.000004 -0.059554 -0.037956 1.845876
 35 26.336975 0.000000 0.000004 -0.116301 -0.223041 -0.178058
time 14
  0 0.000000 0.000000 0.000000 0.000000 -0.000000 -1.570796
  1 0.000000 0.000000 0.000000 0.000000 -0.000000 0.000000
  2 -6.535356 -35.132256 33.047379 -1.533698 -0.433524 1.782370
  3 4.222169 -0.467508 0.000000 -0.037771 -0.114101 -0.086883
  4 4.476987 -0.000002 -0.000000 -0.152277 -0.152955 0.072199
  5 4.477083 0.000000 0.000002 -0.172684 0.112448 -0.023440
  6 4.477077 -0.000004 -0.000002 -0.035360 0.128525 -0.032892
  7 5.413502 -7.700466 -0.000000 0.063693 -0.018724 -0.678935
  8 6.890240 0.000002 -0.000000 -0.064729 -0.080014 0.319306
  9 8.011925 0.000004 0.000005 -0.020012 -0.062784 0.303380
 10 7.210720 -0.000002 -0.000000 -0.005710 0.002560 0.156237
 11 8.581028 -0.304903 -0.000000 0.079734 0.317586 0.693267
 12 22.523008 2.194031 6.355708 0.000000 -0.269315 0.000000
 13 22.523005 2.194038 -6.355709 0.000000 -0.088025 0.000000
 14 -3.006533 7.804720 -11.355459 0.364972 0.058697 1.816525
 15 10.384675 0.000008 0.000005 0.238361 0.116827 -1.318695
 16 22.550743 -0.000006 -0.000004 0.089761 0.009576 1.871055
 17 30.814247 -0.000015 -0.000004 2.683973 -0.018397 -0.057622
 18 -3.013796 7.815494 11.355459 -0.018521 -0.722044 1.788289
 19 10.374533 -0.000002 0.000007 -0.757178 -0.272100 -1.498671
 20 22.550726 -0.000027 -0.000013 -0.167497 -0.011995 1.799463
 21 30.814270 -0.000023 0.000002 -2.663939 -0.423133 0.136353
 22 -4.250660 -0.770624 0.000001 0.008221 -0.157893 -2.804025
 23 10.363422 0.000000 0.000000 0.010127 0.026862 -0.393880
 24 10.363076 0.000000 -0.000000 -0.016982 0.036921 -0.261066
 25 10.363081 -0.000004 -0.000002 0.034747 -0.012248 0.330818
 26 8.210358 -0.000006 -7.703991 0.000000 0.000000 0.305594
 27 8.210346 -0.000002 7.704017 0.000000 0.000000 0.301080
 28 1.854841 1.227791 -13.762345 2.479018 0.090824 1.787398
 29 10.456543 -0.000004 0.000004 -0.000836 0.086996 -1.913463
 30 24.248093 0.000001 0.000007 0.043404 0.038544 1.412185
 31 26.336971 0.000019 0.000002 0.689748 0.184324 0.316219
 32 1.854847 1.227798 13.762341 -2.531304 0.111499 1.390932
 33 10.456542 -0.000008 0.000004 0.030164 -0.067785 -2.279618
 34 24.248116 0.000002 -0.000004 -0.058802 -0.038076 1.825618
 35 26.336975 0.000000 0.000004 -0.126636 -0.211407 -0.148218
time 15
  0 0.000000 0.000000 0.000000 0.000000 -0.000000 -1.570796
  1 0.000000 0.000000 0.000000 0.000000 -0.000000 0.000000
  2 -6.683798 -33.800186 33.055191 -1.535136 -0.404644 1.779110
  3 4.222169 -0.467508 0.000000 -0.029250 -0.105944 -0.091222
  4 4.476987 -0.000002 -0.000000 -0.133809 -0.134600 0.092754
  5 4.477083 0.000000 0.000002 -0.145731 0.114386 0.016490
  6 4.477077 -0.000004 -0.000002 -0.027941 0.116761 -0.024078
  7 5.413502 -7.700466 -0.000000 0.058084 -0.026217 -0.624857
  8 6.890240 0.000002 -0.000000 -0.055333 -0.086640 0.253890
  9 8.011925 0.000004 0.000005 -0.016541 -0.070963 0.247859
 10 7.210720 -0.000002 -0.000000 -0.004392 -0.005244 0.102576
 11 8.581028 -0.304903 -0.000000 0.075508 0.341470 0.717381
 12 22.523008 2.194031 6.355708 0.000000 -0.232714 0.000000
 13 22.523005 2.194038 -6.355709 0.000000 -0.077861 0.000000
 14 -3.006533 7.804720 -11.355459 0.376638 0.103531 1.724571
 15 10.384675 0.000008 0.000005 0.226595 0.128326 -1.393673
 16 22.550743 -0.000006 -0.000004 0.093791 0.009690 1.948113
 17 30.814247 -0.000015 -0.000004 2.685458 -0.031375 -0.074024
 18 -3.013796 7.815494 11.355459 0.058969 -0.691739 1.633704
 19 10.374533 -0.000002 0.000007 -0.748954 -0.291801 -1.524707
 20 22.550726 -0.000027 -0.000013 -0.170786 -0.009934 1.842020
 21 30.814270 -0.000023 0.000002 -2.709439 -0.386310 0.136046
 22 -4.250660 -0.770624 0.000001 0.009516 -0.159032 -2.797828
 23 10.363422 0.000000 0.000000 0.008833 0.033477 -0.411595
 24 10.363076 0.000000 -0.000000 -0.019787 0.046857 -0.277972
 25 10.363081 -0.000004 -0.000002 0.020317 0.013527 0.281742
 26 8.210358 -0.000006 -7.703991 0.000000 0.000000 0.283820
 27 8.210346 -0.000002 7.704017 0.000000 0.000000 0.278869
 28 1.854841 1.227791 -13.762345 2.488780 0.094377 1.799562
 29 10.456543 -0.000004 0.000004 0.002763 0.088330 -1.874820
 30 24.248093 0.000001 0.000007 0.042514 0.038302 1.388268
 31 26.336971 0.000019 0.000002 0.684180 0.167584 0.342341
 32 1.854847 1.227798 13.762341 -2.534646 0.108818 1.399764
 33 10.456542 -0.000008 0.000004 0.029214 -0.068759 -2.265351
 34 24.248116 0.000002 -0.000004 -0.057844 -0.038232 1.799520
 35 26.336975 0.000000 0.000004 -0.135427 -0.197665 -0.106565
time 16
  0 0.000000 0.000000 0.000000 0.000000 -0.000000 -1.570796
  1 0.000000 0.000000 0.000000 0.000000 -0.000000 0.000000
  2 -6.871304 -32.093102 33.066910 -1.536670 -0.376601 1.775755
  3 4.222169 -0.467508 0.000000 -0.021663 -0.098195 -0.095730
  4 4.476987 -0.000002 -0.000000 -0.115808 -0.116652 0.113042
  5 4.477083 0.000000 0.000002 -0.119808 0.117488 0.056745
  6 4.477077 -0.000004 -0.000002 -0.021446 0.106594 -0.013706
  7 5.413502 -7.700466 -0.000000 0.053193 -0.033999 -0.565489
  8 6.890240 0.000002 -0.000000 -0.045889 -0.092809 0.182284
  9 8.011925 0.000004 0.000005 -0.013267 -0.078024 0.187095
 10 7.210720 -0.000002 -0.000000 -0.003294 -0.012429 0.043900
 11 8.581028 -0.304903 -0.000000 0.070158 0.367129 0.743389
 12 22.523008 2.194031 6.355708 0.000000 -0.195044 0.000000
 13 22.523005 2.194038 -6.355709 0.000000 -0.066336 0.000000
 14 -3.006533 7.804720 -11.355459 0.384723 0.150273 1.631931
 15 10.384675 0.000008 0.000005 0.213858 0.139019 -1.469317
 16 22.550743 -0.000006 -0.000004 0.097950 0.009518 2.026866
 17 30.814247 -0.000015 -0.000004 2.670913 -0.045293 -0.091464
 18 -3.013796 7.815494 11.355459 0.123628 -0.669244 1.502945
 19 10.374533 -0.000002 0.000007 -0.732843 -0.317316 -1.560774
 20 22.550726 -0.000027 -0.000013 -0.173094 -0.006537 1.884764
 21 30.814270 -0.000023 0.000002 -2.753114 -0.345107 0.127400
 22 -4.250660 -0.770624 0.000001 0.010726 -0.159722 -2.792784
 23 10.363422 0.000000 0.000000 0.007586 0.040081 -0.428187
 24 10.363076 0.000000 -0.000000 -0.022843 0.056768 -0.295342
 25 10.363081 -0.000004 -0.000002 0.006935 0.038315 0.230732
 26 8.210358 -0.000006 -7.703991 0.000000 0.000000 0.262452
 27 8.210346 -0.000002 7.704017 0.000000 0.000000 0.257032
 28 1.854841 1.227791 -13.762345 2.502148 0.101606 1.822552
 29 10.456543 -0.000004 0.000004 0.007480 0.089807 -1.824453
 30 24.248093 0.000001 0.000007 0.041142 0.037999 1.352983
 31 26.336971 0.000019 0.000002 0.672390 0.148059 0.372771
 32 1.854847 1.227798 13.762341 -2.542006 0.103893 1.416824
 33 10.456542 -0.000008 0.000004 0.027993 -0.069955 -2.247065
 34 24.248116 0.000002 -0.000004 -0.056626 -0.038435 1.766518
 35 26.336975 0.000000 0.000004 -0.141302 -0.181285 -0.053552
time 17
  0 0.000000 0.000000 0.000000 0.000000 -0.000000 -1.570796
  1 0.000000 0.000000 0.000000 0.000000 -0.000000 0.000000
  2 -7.090060 -30.108664 33.074722 -1.538203 -0.349875 1.772208
  3 4.222169 -0.467508 0.000000 -0.015000 -0.090873 -0.100192
  4 4.476987 -0.000002 -0.000000 -0.098395 -0.099132 0.132953
  5 4.477083 0.000000 0.000002 -0.095635 0.122011 0.096260
  6 4.477077 -0.000004 -0.000002 -0.015837 0.097875 -0.002384
  7 5.413502 -7.700466 -0.000000 0.048899 -0.041866 -0.504006
  8 6.890240 0.000002 -0.000000 -0.036613 -0.098416 0.107420
  9 8.011925 0.000004 0.000005 -0.010216 -0.084063 0.123527
 10 7.210720 -0.000002 -0.000000 -0.002306 -0.018961 -0.017324
 11 8.581028 -0.304903 -0.000000 0.064187 0.393830 0.770517
 12 22.523008 2.194031 6.355708 0.000000 -0.157495 0.000000
 13 22.523005 2.194038 -6.355709 0.000000 -0.054085 0.000000
 14 -3.006533 7.804720 -11.355459 0.388738 0.193977 1.545265
 15 10.384675 0.000008 0.000005 0.200151 0.148822 -1.545573
 16 22.550743 -0.000006 -0.000004 0.102156 0.009002 2.107920
 17 30.814247 -0.000015 -0.000004 2.650165 -0.060121 -0.108797
 18 -3.013796 7.815494 11.355459 0.176577 -0.651869 1.388260
 19 10.374533 -0.000002 0.000007 -0.712417 -0.345090 -1.602349
 20 22.550726 -0.000027 -0.000013 -0.173911 0.000176 1.937929
 21 30.814270 -0.000023 0.000002 -2.796894 -0.303439 0.115908
 22 -4.250660 -0.770624 0.000001 0.011817 -0.159947 -2.788917
 23 10.363422 0.000000 0.000000 0.006412 0.046684 -0.443724
 24 10.363076 0.000000 -0.000000 -0.025287 0.066547 -0.308995
 25 10.363081 -0.000004 -0.000002 -0.005316 0.062102 0.178138
 26 8.210358 -0.000006 -7.703991 0.000000 0.000000 0.241085
 27 8.210346 -0.000002 7.704017 0.000000 0.000000 0.235160
 28 1.854841 1.227791 -13.762345 2.518506 0.111746 1.854908
 29 10.456543 -0.000004 0.000004 0.013141 0.091195 -1.764796
 30 24.248093 0.000001 0.000007 0.039363 0.037595 1.306629
 31 26.336971 0.000019 0.000002 0.656337 0.127536 0.407839
 32 1.854847 1.227798 13.762341 -2.552338 0.097490 1.439873
 33 10.456542 -0.000008 0.000004 0.026298 -0.071514 -2.222551
 34 24.248116 0.000002 -0.000004 -0.055071 -0.038675 1.725341
 35 26.336975 0.000000 0.000004 -0.143403 -0.162300 0.009351
time 18
  0 0.000000 0.000000 0.000000 0.000000 -0.000000 -1.570796
  1 0.000000 0.000000 0.000000 0.000000 -0.000000 0.000000
  2 -7.324442 -27.940630 33.078629 -1.539737 -0.324864 1.768373
  3 4.222169 -0.467508 0.000000 -0.009271 -0.084069 -0.104394
  4 4.476987 -0.000002 -0.000000 -0.081784 -0.082169 0.152287
  5 4.477083 0.000000 0.000002 -0.074027 0.128327 0.133729
  6 4.477077 -0.000004 -0.000002 -0.011091 0.090489 0.009218
  7 5.413502 -7.700466 -0.000000 0.045151 -0.049563 -0.444140
  8 6.890240 0.000002 -0.000000 -0.027840 -0.103409 0.032789
  9 8.011925 0.000004 0.000005 -0.007478 -0.089127 0.060037
 10 7.210720 -0.000002 -0.000000 -0.001510 -0.024805 -0.078441
 11 8.581028 -0.304903 -0.000000 0.057964 0.420667 0.797716
 12 22.523008 2.194031 6.355708 0.000000 -0.121566 0.000000
 13 22.523005 2.194038 -6.355709 0.000000 -0.041804 0.000000
 14 -3.006533 7.804720 -11.355459 0.389661 0.226198 1.477691
 15 10.384675 0.000008 0.000005 0.185770 0.157542 -1.621440
 16 22.550743 -0.000006 -0.000004 0.106138 0.008456 2.181588
 17 30.814247 -0.000015 -0.000004 2.630073 -0.075387 -0.125521
 18 -3.013796 7.815494 11.355459 0.213387 -0.643013 1.293469
 19 10.374533 -0.000002 0.000007 -0.691048 -0.371668 -1.644272
 20 22.550726 -0.000027 -0.000013 -0.173789 0.008147 1.995066
 21 30.814270 -0.000023 0.000002 -2.840780 -0.261699 0.101684
 22 -4.250660 -0.770624 0.000001 0.012788 -0.159658 -2.786254
 23 10.363422 0.000000 0.000000 0.005261 0.053192 -0.456795
 24 10.363076 0.000000 -0.000000 -0.026043 0.076039 -0.313615
 25 10.363081 -0.000004 -0.000002 -0.016335 0.084810 0.124443
 26 8.210358 -0.000006 -7.703991 0.000000 0.000000 0.219786
 27 8.210346 -0.000002 7.704017 0.000000 0.000000 0.213323
 28 1.854841 1.227791 -13.762345 2.537019 0.123983 1.894867
 29 10.456543 -0.000004 0.000004 0.020129 0.092370 -1.691070
 30 24.248093 0.000001 0.000007 0.037324 0.037030 1.249973
 31 26.336971 0.000019 0.000002 0.639849 0.108510 0.448596
 32 1.854847 1.227798 13.762341 -2.564729 0.090403 1.466497
 33 10.456542 -0.000008 0.000004 0.023924 -0.073545 -2.189800
 34 24.248116 0.000002 -0.000004 -0.053154 -0.038951 1.675228
 35 26.336975 0.000000 0.000004 -0.141774 -0.141919 0.077962
time 19
  0 0.000000 0.000000 0.000000 0.000000 -0.000000 -1.570796
  1 0.000000 0.000000 0.000000 0.000000 -0.000000 0.000000
  2 -7.562731 -25.674936 33.086441 -1.541271 -0.301928 1.764347
  3 4.222169 -0.467508 0.000000 -0.004406 -0.077748 -0.108135
  4 4.476987 -0.000002 -0.000000 -0.066000 -0.065655 0.171022
  5 4.477083 0.000000 0.000002 -0.055415 0.136533 0.168323
  6 4.477077 -0.000004 -0.000002 -0.007172 0.084288 0.020508
  7 5.413502 -7.700466 -0.000000 0.041921 -0.056988 -0.388849
  8 6.890240 0.000002 -0.000000 -0.019834 -0.107905 -0.039026
  9 8.011925 0.000004 0.000005 -0.005147 -0.093393 -0.001272
 10 7.210720 -0.000002 -0.000000 -0.000878 -0.029978 -0.137358
 11 8.581028 -0.304903 -0.000000 0.051741 0.446958 0.824389
 12 22.523008 2.194031 6.355708 0.000000 -0.088295 0.000000
 13 22.523005 2.194038 -6.355709 0.000000 -0.030098 0.000000
 14 -3.006533 7.804720 -11.355459 0.389335 0.250682 1.423576
 15 10.384675 0.000008 0.000005 0.170792 0.165073 -1.696529
 16 22.550743 -0.000006 -0.000004 0.109640 0.008342 2.237036
 17 30.814247 -0.000015 -0.000004 2.609718 -0.091280 -0.141780
 18 -3.013796 7.815494 11.355459 0.244138 -0.637221 1.205916
 19 10.374533 -0.000002 0.000007 -0.668196 -0.397482 -1.687414
 20 22.550726 -0.000027 -0.000013 -0.173299 0.015999 2.051954
 21 30.814270 -0.000023 0.000002 -2.885648 -0.219248 0.083805
 22 -4.250660 -0.770624 0.000001 0.013603 -0.158807 -2.784820
 23 10.363422 0.000000 0.000000 0.003967 0.059472 -0.462847
 24 10.363076 0.000000 -0.000000 -0.026246 0.085423 -0.314725
 25 10.363081 -0.000004 -0.000002 -0.026480 0.107010 0.069836
 26 8.210358 -0.000006 -7.703991 0.000000 0.000000 0.200661
 27 8.210346 -0.000002 7.704017 0.000000 0.000000 0.193554
 28 1.854841 1.227791 -13.762345 2.557115 0.137701 1.941091
 29 10.456543 -0.000004 0.000004 0.028899 0.093153 -1.598717
 30 24.248093 0.000001 0.000007 0.035100 0.036203 1.186983
 31 26.336971 0.000019 0.000002 0.623014 0.091376 0.493164
 32 1.854847 1.227798 13.762341 -2.578268 0.083727 1.493767
 33 10.456542 -0.000008 0.000004 0.020634 -0.076106 -2.146330
 34 24.248116 0.000002 -0.000004 -0.051056 -0.039154 1.619733
 35 26.336975 0.000000 0.000004 -0.137271 -0.121600 0.147647
time 20
  0 0.000000 0.000000 0.000000 0.000000 -0.000000 -1.570796
  1 0.000000 0.000000 0.000000 0.000000 -0.000000 0.000000
  2 -7.801019 -23.409241 33.090347 -1.542805 -0.281464 1.760033
  3 4.222169 -0.467508 0.000000 -0.000415 -0.072001 -0.111202
  4 4.476987 -0.000002 -0.000000 -0.051319 -0.049742 0.188935
  5 4.477083 0.000000 0.000002 -0.039991 0.145692 0.198870
  6 4.477077 -0.000004 -0.000002 -0.004020 0.079176 0.030848
  7 5.413502 -7.700466 -0.000000 0.039343 -0.063904 -0.341896
  8 6.890240 0.000002 -0.000000 -0.012943 -0.112061 -0.104907
  9 8.011925 0.000004 0.000005 -0.003300 -0.096971 -0.057728
 10 7.210720 -0.000002 -0.000000 -0.000522 -0.034445 -0.191449
 11 8.581028 -0.304903 -0.000000 0.045702 0.471747 0.849555
 12 22.523008 2.194031 6.355708 0.000000 -0.059087 0.000000
 13 22.523005 2.194038 -6.355709 0.000000 -0.019632 0.000000
 14 -3.006533 7.804720 -11.355459 0.388196 0.271951 1.375162
 15 10.384675 0.000008 0.000005 0.155889 0.170887 -1.765731
 16 22.550743 -0.000006 -0.000004 0.112951 0.008256 2.284918
 17 30.814247 -0.000015 -0.000004 2.589233 -0.107738 -0.157501
 18 -3.013796 7.815494 11.355459 0.275246 -0.628402 1.117224
 19 10.374533 -0.000002 0.000007 -0.644131 -0.422631 -1.731830
 20 22.550726 -0.000027 -0.000013 -0.172420 0.023832 2.109462
 21 30.814270 -0.000023 0.000002 -2.928481 -0.180834 0.069581
 22 -4.250660 -0.770624 0.000001 0.014274 -0.157363 -2.784641
 23 10.363422 0.000000 0.000000 0.002325 0.065260 -0.455563
 24 10.363076 0.000000 -0.000000 -0.026714 0.094891 -0.317306
 25 10.363081 -0.000004 -0.000002 -0.031675 0.125236 0.013483
 26 8.210358 -0.000006 -7.703991 0.000000 0.000000 0.165944
 27 8.210346 -0.000002 7.704017 0.000000 0.000000 0.158729
 28 1.854841 1.227791 -13.762345 2.577870 0.152307 1.991693
 29 10.456543 -0.000004 0.000004 0.038367 0.093153 -1.500372
 30 24.248093 0.000001 0.000007 0.032875 0.035093 1.122631
 31 26.336971 0.000019 0.000002 0.606221 0.076555 0.538946
 32 1.854847 1.227798 13.762341 -2.591571 0.074205 1.526897
 33 10.456542 -0.000008 0.000004 0.016124 -0.079195 -2.089815
 34 24.248116 0.000002 -0.000004 -0.048996 -0.039214 1.563782
 35 26.336975 0.000000 0.000004 -0.131139 -0.102739 0.213263
time 21
  0 0.000000 0.000000 0.000000 0.000000 -0.000000 -1.570796
  1 0.000000 0.000000 0.000000 0.000000 -0.000000 0.000000
  2 -8.015869 -21.237301 33.094254 -1.544339 -0.263913 1.755432
  3 4.222169 -0.467508 0.000000 0.002713 -0.066866 -0.113410
  4 4.476987 -0.000002 -0.000000 -0.039059 -0.035820 0.204406
  5 4.477083 0.000000 0.000002 -0.027803 0.154415 0.224260
  6 4.477077 -0.000004 -0.000002 -0.001599 0.075004 0.039554
  7 5.413502 -7.700466 -0.000000 0.037455 -0.070156 -0.305522
  8 6.890240 0.000002 -0.000000 -0.007394 -0.116035 -0.161992
  9 8.011925 0.000004 0.000005 -0.001847 -0.100198 -0.104865
 10 7.210720 -0.000002 -0.000000 -0.000220 -0.038152 -0.237226
 11 8.581028 -0.304903 -0.000000 0.039984 0.494145 0.872232
 12 22.523008 2.194031 6.355708 0.000000 -0.035165 0.000000
 13 22.523005 2.194038 -6.355709 0.000000 -0.011041 0.000000
 14 -3.006533 7.804720 -11.355459 0.388467 0.285730 1.343091
 15 10.384675 0.000008 0.000005 0.141434 0.174897 -1.826603
 16 22.550743 -0.000006 -0.000004 0.116341 0.007997 2.334434
 17 30.814247 -0.000015 -0.000004 2.568529 -0.124729 -0.172686
 18 -3.013796 7.815494 11.355459 0.299022 -0.619060 1.038906
 19 10.374533 -0.000002 0.000007 -0.616965 -0.443594 -1.775493
 20 22.550726 -0.000027 -0.000013 -0.170541 0.031154 2.161015
 21 30.814270 -0.000023 0.000002 -2.962544 -0.153627 0.071756
 22 -4.250660 -0.770624 0.000001 0.014753 -0.155261 -2.785793
 23 10.363422 0.000000 0.000000 0.000336 0.070366 -0.430960
 24 10.363076 0.000000 -0.000000 -0.027121 0.103568 -0.312712
 25 10.363081 -0.000004 -0.000002 -0.028154 0.135250 -0.045795
 26 8.210358 -0.000006 -7.703991 0.000000 0.000000 0.061316
 27 8.210346 -0.000002 7.704017 0.000000 0.000000 0.053949
 28 1.854841 1.227791 -13.762345 2.598538 0.167332 2.045033
 29 10.456543 -0.000004 0.000004 0.047731 0.092316 -1.402939
 30 24.248093 0.000001 0.000007 0.030651 0.033782 1.057629
 31 26.336971 0.000019 0.000002 0.589864 0.064336 0.583569
 32 1.854847 1.227798 13.762341 -2.603827 0.056146 1.579240
 33 10.456542 -0.000008 0.000004 0.010290 -0.082618 -2.020569
 34 24.248116 0.000002 -0.000004 -0.046962 -0.039118 1.508236
 35 26.336975 0.000000 0.000004 -0.124706 -0.086204 0.271080
time 22
  0 0.000000 0.000000 0.000000 0.000000 -0.000000 -1.570796
  1 0.000000 0.000000 0.000000 0.000000 -0.000000 0.000000
  2 -8.207282 -19.256771 33.098160 -1.545777 -0.249672 1.750447
  3 4.222169 -0.467508 0.000000 0.005002 -0.062399 -0.114514
  4 4.476987 -0.000002 -0.000000 -0.030047 -0.025175 0.215838
  5 4.477083 0.000000 0.000002 -0.019078 0.161361 0.243291
  6 4.477077 -0.000004 -0.000002 0.000139 0.071697 0.045985
  7 5.413502 -7.700466 -0.000000 0.036153 -0.075373 -0.279168
  8 6.890240 0.000002 -0.000000 -0.003320 -0.119720 -0.207278
  9 8.011925 0.000004 0.000005 -0.000707 -0.103042 -0.140010
 10 7.210720 -0.000002 -0.000000 0.000055 -0.040977 -0.272222
 11 8.581028 -0.304903 -0.000000 0.034633 0.513231 0.891545
 12 22.523008 2.194031 6.355708 0.000000 -0.017873 0.000000
 13 22.523005 2.194038 -6.355709 0.000000 -0.005052 0.000000
 14 -3.006533 7.804720 -11.355459 0.393242 0.286896 1.341718
 15 10.384675 0.000008 0.000005 0.127241 0.177634 -1.882475
 16 22.550743 -0.000006 -0.000004 0.119460 0.007682 2.376625
 17 30.814247 -0.000015 -0.000004 2.547694 -0.142221 -0.187297
 18 -3.013796 7.815494 11.355459 0.306914 -0.612970 0.984413
 19 10.374533 -0.000002 0.000007 -0.584675 -0.456053 -1.816199
 20 22.550726 -0.000027 -0.000013 -0.167048 0.037279 2.198672
 21 30.814270 -0.000023 0.000002 -2.989345 -0.132610 0.085116
 22 -4.250660 -0.770624 0.000001 0.015041 -0.152533 -2.788277
 23 10.363422 0.000000 0.000000 -0.001762 0.074632 -0.389831
 24 10.363076 0.000000 -0.000000 -0.027049 0.110027 -0.289483
 25 10.363081 -0.000004 -0.000002 -0.022380 0.141443 -0.106068
 26 8.210358 -0.000006 -7.703991 0.000000 0.000000 -0.125859
 27 8.210346 -0.000002 7.704017 0.000000 0.000000 -0.133534
 28 1.854841 1.227791 -13.762345 2.618062 0.182555 2.099406
 29 10.456543 -0.000004 0.000004 0.057025 0.090733 -1.305072
 30 24.248093 0.000001 0.000007 0.028464 0.032410 0.992566
 31 26.336971 0.000019 0.000002 0.574463 0.054902 0.624546
 32 1.854847 1.227798 13.762341 -2.615745 0.035242 1.640717
 33 10.456542 -0.000008 0.000004 0.003643 -0.085818 -1.945097
 34 24.248116 0.000002 -0.000004 -0.044980 -0.038867 1.453656
 35 26.336975 0.000000 0.000004 -0.118917 -0.072245 0.319797
time 23
  0 0.000000 0.000000 0.000000 0.000000 -0.000000 -1.570796
  1 0.000000 0.000000 0.000000 0.000000 -0.000000 0.000000
  2 -8.355723 -17.557501 33.102066 -1.547215 -0.239102 1.745174
  3 4.222169 -0.467508 0.000000 0.006476 -0.058617 -0.114315
  4 4.476987 -0.000002 -0.000000 -0.023707 -0.018022 0.222875
  5 4.477083 0.000000 0.000002 -0.013840 0.165318 0.254837
  6 4.477077 -0.000004 -0.000002 0.001217 0.069104 0.049489
  7 5.413502 -7.700466 -0.000000 0.035223 -0.079179 -0.261059
  8 6.890240 0.000002 -0.000000 -0.000839 -0.122975 -0.237531
  9 8.011925 0.000004 0.000005 0.000092 -0.105103 -0.163501
 10 7.210720 -0.000002 -0.000000 0.000302 -0.042866 -0.295902
 11 8.581028 -0.304903 -0.000000 0.029627 0.528101 0.906581
 12 22.523008 2.194031 6.355708 0.000000 -0.008432 0.000000
 13 22.523005 2.194038 -6.355709 0.000000 -0.002299 0.000000
 14 -3.006533 7.804720 -11.355459 0.401055 0.280536 1.358474
 15 10.384675 0.000008 0.000005 0.113047 0.179458 -1.936071
 16 22.550743 -0.000006 -0.000004 0.121571 0.007538 2.401020
 17 30.814247 -0.000015 -0.000004 2.526597 -0.160246 -0.201299
 18 -3.013796 7.815494 11.355459 0.309001 -0.608598 0.937901
 19 10.374533 -0.000002 0.000007 -0.551105 -0.459209 -1.849715
 20 22.550726 -0.000027 -0.000013 -0.162309 0.042285 2.222494
 21 30.814270 -0.000023 0.000002 -3.012183 -0.112008 0.104082
 22 -4.250660 -0.770624 0.000001 0.015149 -0.149339 -2.792246
 23 10.363422 0.000000 0.000000 -0.003643 0.077952 -0.334397
 24 10.363076 0.000000 -0.000000 -0.026690 0.115037 -0.257556
 25 10.363081 -0.000004 -0.000002 -0.018255 0.146912 -0.166179
 26 8.210358 -0.000006 -7.703991 0.000000 0.000000 -0.330868
 27 8.210346 -0.000002 7.704017 0.000000 0.000000 -0.338583
 28 1.854841 1.227791 -13.762345 2.635431 0.197975 2.153111
 29 10.456543 -0.000004 0.000004 0.065411 0.088384 -1.214499
 30 24.248093 0.000001 0.000007 0.026388 0.031098 0.928037
 31 26.336971 0.000019 0.000002 0.560629 0.048306 0.659615
 32 1.854847 1.227798 13.762341 -2.627292 0.018168 1.694999
 33 10.456542 -0.000008 0.000004 -0.003004 -0.088406 -1.872266
 34 24.248116 0.000002 -0.000004 -0.043037 -0.038483 1.400750
 35 26.336975 0.000000 0.000004 -0.114500 -0.060953 0.359133
time 24
  0 0.000000 0.000000 0.000000 0.000000 -0.000000 -1.570796
  1 0.000000 0.000000 0.000000 0.000000 -0.000000 0.000000
  2 -8.453382 -16.237148 33.102066 -1.548461 -0.232679 1.739614
  3 4.222169 -0.467508 0.000000 0.007148 -0.055577 -0.112597
  4 4.476987 -0.000002 -0.000000 -0.019368 -0.014574 0.225250
  5 4.477083 0.000000 0.000002 -0.011623 0.165593 0.257831
  6 4.477077 -0.000004 -0.000002 0.001673 0.067112 0.049427
  7 5.413502 -7.700466 -0.000000 0.034398 -0.081133 -0.249577
  8 6.890240 0.000002 -0.000000 0.000084 -0.125236 -0.251912
  9 8.011925 0.000004 0.000005 0.000524 -0.105918 -0.175726
 10 7.210720 -0.000002 -0.000000 0.000412 -0.043714 -0.307675
 11 8.581028 -0.304903 -0.000000 0.024966 0.537918 0.916325
 12 22.523008 2.194031 6.355708 0.000000 -0.003758 0.000000
 13 22.523005 2.194038 -6.355709 0.000000 -0.001331 0.000000
 14 -3.006533 7.804720 -11.355459 0.410713 0.270008 1.384226
 15 10.384675 0.000008 0.000005 0.098854 0.180477 -1.988111
 16 22.550743 -0.000006 -0.000004 0.123394 0.007481 2.419906
 17 30.814247 -0.000015 -0.000004 2.505369 -0.179368 -0.214836
 18 -3.013796 7.815494 11.355459 0.309103 -0.602096 0.898913
 19 10.374533 -0.000002 0.000007 -0.520232 -0.448578 -1.867574
 20 22.550726 -0.000027 -0.000013 -0.156140 0.045760 2.225286
 21 30.814270 -0.000023 0.000002 -3.030670 -0.090722 0.129826
 22 -4.250660 -0.770624 0.000001 0.015113 -0.145889 -2.797879
 23 10.363422 0.000000 0.000000 -0.004950 0.080241 -0.266157
 24 10.363076 0.000000 -0.000000 -0.026258 0.119028 -0.223307
 25 10.363081 -0.000004 -0.000002 -0.015288 0.151241 -0.225914
 26 8.210358 -0.000006 -7.703991 0.000000 0.000000 -0.494026
 27 8.210346 -0.000002 7.704017 0.000000 0.000000 -0.501856
 28 1.854841 1.227791 -13.762345 2.648843 0.210015 2.196050
 29 10.456543 -0.000004 0.000004 0.071665 0.085768 -1.144638
 30 24.248093 0.000001 0.000007 0.024794 0.029625 0.867830
 31 26.336971 0.000019 0.000002 0.548883 0.044548 0.686068
 32 1.854847 1.227798 13.762341 -2.637590 0.007551 1.732609
 33 10.456542 -0.000008 0.000004 -0.008735 -0.090103 -1.811139
 34 24.248116 0.000002 -0.000004 -0.041456 -0.038088 1.358304
 35 26.336975 0.000000 0.000004 -0.112184 -0.052267 0.389256
time 25
  0 0.000000 0.000000 0.000000 0.000000 -0.000000 -1.570796
  1 0.000000 0.000000 0.000000 0.000000 -0.000000 0.000000
  2 -8.465102 -15.330870 33.098160 -1.550091 -0.228531 1.730315
  3 4.222169 -0.467508 0.000000 0.007040 -0.053315 -0.109163
  4 4.476987 -0.000002 -0.000000 -0.015857 -0.012989 0.225161
  5 4.477083 0.000000 0.000002 -0.011671 0.161587 0.251324
  6 4.477077 -0.000004 -0.000002 0.001553 0.065608 0.045113
  7 5.413502 -7.700466 -0.000000 0.033428 -0.080793 -0.242981
  8 6.890240 0.000002 -0.000000 0.000000 -0.125184 -0.255682
  9 8.011925 0.000004 0.000005 0.000537 -0.105055 -0.177076
 10 7.210720 -0.000002 -0.000000 0.000384 -0.043467 -0.307004
 11 8.581028 -0.304903 -0.000000 0.020671 0.541912 0.919935
 12 22.523008 2.194031 6.355708 0.000000 -0.000733 0.000000
 13 22.523005 2.194038 -6.355709 0.000000 -0.000696 0.000000
 14 -3.006533 7.804720 -11.355459 0.422650 0.254180 1.420349
 15 10.384675 0.000008 0.000005 0.084660 0.180710 -2.038763
 16 22.550743 -0.000006 -0.000004 0.125361 0.007452 2.440911
 17 30.814247 -0.000015 -0.000004 2.483573 -0.193349 -0.226439
 18 -3.013796 7.815494 11.355459 0.302077 -0.590176 0.884435
 19 10.374533 -0.000002 0.000007 -0.491785 -0.426751 -1.869951
 20 22.550726 -0.000027 -0.000013 -0.148663 0.048253 2.208473
 21 30.814270 -0.000023 0.000002 -3.044562 -0.067184 0.162822
 22 -4.250660 -0.770624 0.000001 0.014957 -0.142391 -2.805331
 23 10.363422 0.000000 0.000000 -0.005285 0.081391 -0.185570
 24 10.363076 0.000000 -0.000000 -0.025851 0.121461 -0.184153
 25 10.363081 -0.000004 -0.000002 -0.013343 0.154353 -0.285354
 26 8.210358 -0.000006 -7.703991 0.000000 0.000000 -0.576132
 27 8.210346 -0.000002 7.704017 0.000000 0.000000 -0.584052
 28 1.854841 1.227791 -13.762345 2.657286 0.216849 2.222507
 29 10.456543 -0.000004 0.000004 0.076085 0.083668 -1.094402
 30 24.248093 0.000001 0.000007 0.023756 0.028415 0.825797
 31 26.336971 0.000019 0.000002 0.539226 0.043418 0.702636
 32 1.854847 1.227798 13.762341 -2.646031 -0.000329 1.761603
 33 10.456542 -0.000008 0.000004 -0.012669 -0.090966 -1.770388
 34 24.248116 0.000002 -0.000004 -0.040278 -0.037752 1.326622
 35 26.336975 0.000000 0.000004 -0.112870 -0.045814 0.412484
time 26
  0 0.000000 0.000000 0.000000 0.000000 -0.000000 -1.570796
  1 0.000000 0.000000 0.000000 0.000000 -0.000000 0.000000
  2 -8.308847 -14.733196 33.063004 -1.552295 -0.225180 1.715936
  3 4.222169 -0.467508 0.000000 0.006141 -0.051925 -0.103796
  4 4.476987 -0.000002 -0.000000 -0.012573 -0.011918 0.224384
  5 4.477083 0.000000 0.000002 -0.013097 0.152557 0.234294
  6 4.477077 -0.000004 -0.000002 0.000870 0.064499 0.035894
  7 5.413502 -7.700466 -0.000000 0.032006 -0.077667 -0.239683
  8 6.890240 0.000002 -0.000000 -0.000324 -0.121040 -0.256543
  9 8.011925 0.000004 0.000005 0.000170 -0.102020 -0.167939
 10 7.210720 -0.000002 -0.000000 0.000247 -0.042037 -0.293328
 11 8.581028 -0.304903 -0.000000 0.017617 0.528835 0.913836
 12 22.523008 2.194031 6.355708 0.000000 0.001130 0.000000
 13 22.523005 2.194038 -6.355709 0.000000 -0.000242 0.000000
 14 -3.006533 7.804720 -11.355459 0.436866 0.232416 1.466978
 15 10.384675 0.000008 0.000005 0.070840 0.180180 -2.087360
 16 22.550743 -0.000006 -0.000004 0.127376 0.007452 2.462884
 17 30.814247 -0.000015 -0.000004 2.460729 -0.188678 -0.233458
 18 -3.013796 7.815494 11.355459 0.290673 -0.573547 0.884207
 19 10.374533 -0.000002 0.000007 -0.465899 -0.380837 -1.832899
 20 22.550726 -0.000027 -0.000013 -0.139716 0.048155 2.140977
 21 30.814270 -0.000023 0.000002 -3.053262 -0.040075 0.203320
 22 -4.250660 -0.770624 0.000001 0.014705 -0.139069 -2.814651
 23 10.363422 0.000000 0.000000 -0.005046 0.081511 -0.097128
 24 10.363076 0.000000 -0.000000 -0.025551 0.122072 -0.139012
 25 10.363081 -0.000004 -0.000002 -0.012334 0.156140 -0.344069
 26 8.210358 -0.000006 -7.703991 0.000000 0.000000 -0.578000
 27 8.210346 -0.000002 7.704017 0.000000 0.000000 -0.585951
 28 1.854841 1.227791 -13.762345 2.661112 0.219267 2.234002
 29 10.456543 -0.000004 0.000004 0.077588 0.083134 -1.076904
 30 24.248093 0.000001 0.000007 0.023570 0.028172 0.820291
 31 26.336971 0.000019 0.000002 0.529959 0.044312 0.709981
 32 1.854847 1.227798 13.762341 -2.652817 -0.008921 1.790941
 33 10.456542 -0.000008 0.000004 -0.015654 -0.091411 -1.739451
 34 24.248116 0.000002 -0.000004 -0.039254 -0.037441 1.298798
 35 26.336975 0.000000 0.000004 -0.117244 -0.041192 0.431587
time 27
  0 0.000000 0.000000 0.000000 0.000000 -0.000000 -1.570796
  1 0.000000 0.000000 0.000000 0.000000 -0.000000 0.000000
  2 -7.926023 -14.272243 32.980968 -1.554979 -0.222627 1.697530
  3 4.222169 -0.467508 0.000000 0.004883 -0.049478 -0.094918
  4 4.476987 -0.000002 -0.000000 -0.009421 -0.011168 0.223141
  5 4.477083 0.000000 0.000002 -0.014967 0.138293 0.206607
  6 4.477077 -0.000004 -0.000002 -0.000221 0.061173 0.020975
  7 5.413502 -7.700466 -0.000000 0.029893 -0.071533 -0.238283
  8 6.890240 0.000002 -0.000000 -0.000348 -0.111748 -0.260197
  9 8.011925 0.000004 0.000005 -0.000485 -0.096524 -0.148965
 10 7.210720 -0.000002 -0.000000 0.000000 -0.039300 -0.265867
 11 8.581028 -0.304903 -0.000000 0.015642 0.494060 0.897152
 12 22.523008 2.194031 6.355708 0.000000 0.002016 0.000000
 13 22.523005 2.194038 -6.355709 0.000000 0.000030 0.000000
 14 -3.006533 7.804720 -11.355459 0.452873 0.204117 1.524045
 15 10.384675 0.000008 0.000005 0.054966 0.179034 -2.139400
 16 22.550743 -0.000006 -0.000004 0.129455 0.007423 2.485887
 17 30.814247 -0.000015 -0.000004 2.437535 -0.178804 -0.239546
 18 -3.013796 7.815494 11.355459 0.272293 -0.545709 0.906437
 19 10.374533 -0.000002 0.000007 -0.434823 -0.317282 -1.761287
 20 22.550726 -0.000027 -0.000013 -0.132914 0.044248 2.026767
 21 30.814270 -0.000023 0.000002 -3.056489 -0.008634 0.251293
 22 -4.250660 -0.770624 0.000001 0.014405 -0.136084 -2.825969
 23 10.363422 0.000000 0.000000 -0.004650 0.080864 -0.003910
 24 10.363076 0.000000 -0.000000 -0.025419 0.121101 -0.087263
 25 10.363081 -0.000004 -0.000002 -0.012112 0.156541 -0.402381
 26 8.210358 -0.000006 -7.703991 0.000000 0.000000 -0.557550
 27 8.210346 -0.000002 7.704017 0.000000 0.000000 -0.565571
 28 1.854841 1.227791 -13.762345 2.660980 0.218255 2.233151
 29 10.456543 -0.000004 0.000004 0.076662 0.083526 -1.087411
 30 24.248093 0.000001 0.000007 0.023718 0.028334 0.823665
 31 26.336971 0.000019 0.000002 0.518822 0.046493 0.709816
 32 1.854847 1.227798 13.762341 -2.658287 -0.018443 1.821357
 33 10.456542 -0.000008 0.000004 -0.018706 -0.091801 -1.707843
 34 24.248116 0.000002 -0.000004 -0.038283 -0.037141 1.272752
 35 26.336975 0.000000 0.000004 -0.126121 -0.037935 0.449559
time 28
  0 0.000000 0.000000 0.000000 0.000000 -0.000000 -1.570796
  1 0.000000 0.000000 0.000000 0.000000 -0.000000 0.000000
  2 -7.355693 -13.901138 32.855965 -1.558047 -0.221031 1.676535
  3 4.222169 -0.467508 0.000000 0.003612 -0.044973 -0.082283
  4 4.476987 -0.000002 -0.000000 -0.006425 -0.010697 0.221476
  5 4.477083 0.000000 0.000002 -0.016549 0.120088 0.170680
  6 4.477077 -0.000004 -0.000002 -0.001503 0.054445 0.001151
  7 5.413502 -7.700466 -0.000000 0.027208 -0.062935 -0.238189
  8 6.890240 0.000002 -0.000000 -0.000060 -0.098064 -0.267318
  9 8.011925 0.000004 0.000005 -0.001336 -0.088920 -0.122074
 10 7.210720 -0.000002 -0.000000 -0.000165 -0.035275 -0.225104
 11 8.581028 -0.304903 -0.000000 0.014196 0.442024 0.872162
 12 22.523008 2.194031 6.355708 0.000000 0.002108 0.000000
 13 22.523005 2.194038 -6.355709 0.000000 0.000181 0.000000
 14 -3.006533 7.804720 -11.355459 0.469476 0.169705 1.589834
 15 10.384675 0.000008 0.000005 0.030165 0.176827 -2.209769
 16 22.550743 -0.000006 -0.000004 0.131550 0.007395 2.509495
 17 30.814247 -0.000015 -0.000004 2.414560 -0.169681 -0.245956
 18 -3.013796 7.815494 11.355459 0.253201 -0.513349 0.938870
 19 10.374533 -0.000002 0.000007 -0.396467 -0.256086 -1.686891
 20 22.550726 -0.000027 -0.000013 -0.126337 0.040224 1.904057
 21 30.814270 -0.000023 0.000002 -3.055121 0.025742 0.305179
 22 -4.250660 -0.770624 0.000001 0.014453 -0.136244 -2.847299
 23 10.363422 0.000000 0.000000 -0.004219 0.079666 0.092344
 24 10.363076 0.000000 -0.000000 -0.025455 0.118944 -0.029113
 25 10.363081 -0.000004 -0.000002 -0.012555 0.155462 -0.462519
 26 8.210358 -0.000006 -7.703991 0.000000 0.000000 -0.533431
 27 8.210346 -0.000002 7.704017 0.000000 0.000000 -0.541631
 28 1.854841 1.227791 -13.762345 2.657682 0.214481 2.222325
 29 10.456543 -0.000004 0.000004 0.074303 0.084451 -1.114722
 30 24.248093 0.000001 0.000007 0.023978 0.028778 0.829881
 31 26.336971 0.000019 0.000002 0.504336 0.049410 0.703686
 32 1.854847 1.227798 13.762341 -2.662642 -0.028430 1.851729
 33 10.456542 -0.000008 0.000004 -0.021792 -0.092107 -1.675368
 34 24.248116 0.000002 -0.000004 -0.037389 -0.036853 1.248635
 35 26.336975 0.000000 0.000004 -0.139715 -0.035639 0.468379
time 29
  0 0.000000 0.000000 0.000000 0.000000 -0.000000 -1.570796
  1 0.000000 0.000000 0.000000 0.000000 -0.000000 0.000000
  2 -6.640828 -13.608162 32.703617 -1.561210 -0.220513 1.654391
  3 4.222169 -0.467508 0.000000 0.002438 -0.038874 -0.066918
  4 4.476987 -0.000002 -0.000000 -0.003537 -0.010504 0.219434
  5 4.477083 0.000000 0.000002 -0.017316 0.099670 0.129564
  6 4.477077 -0.000004 -0.000002 -0.002762 0.045030 -0.022069
  7 5.413502 -7.700466 -0.000000 0.024124 -0.052605 -0.239092
  8 6.890240 0.000002 -0.000000 0.000360 -0.081256 -0.276952
  9 8.011925 0.000004 0.000005 -0.002279 -0.079702 -0.089446
 10 7.210720 -0.000002 -0.000000 -0.000275 -0.030190 -0.174044
 11 8.581028 -0.304903 -0.000000 0.012565 0.377902 0.841178
 12 22.523008 2.194031 6.355708 0.000000 0.001650 0.000000
 13 22.523005 2.194038 -6.355709 0.000000 0.000212 0.000000
 14 -3.006533 7.804720 -11.355459 0.485700 0.129075 1.664345
 15 10.384675 0.000008 0.000005 0.004019 0.172733 -2.280360
 16 22.550743 -0.000006 -0.000004 0.133613 0.007337 2.533647
 17 30.814247 -0.000015 -0.000004 2.391454 -0.161594 -0.254229
 18 -3.013796 7.815494 11.355459 0.235941 -0.473927 0.995699
 19 10.374533 -0.000002 0.000007 -0.342539 -0.213794 -1.634763
 20 22.550726 -0.000027 -0.000013 -0.120045 0.036357 1.794623
 21 30.814270 -0.000023 0.000002 -3.047544 0.061244 0.355188
 22 -4.250660 -0.770624 0.000001 0.014477 -0.139406 -2.888012
 23 10.363422 0.000000 0.000000 -0.003559 0.078012 0.185804
 24 10.363076 0.000000 -0.000000 -0.025647 0.116008 0.035540
 25 10.363081 -0.000004 -0.000002 -0.015054 0.152242 -0.474493
 26 8.210358 -0.000006 -7.703991 0.000000 0.000000 -0.479997
 27 8.210346 -0.000002 7.704017 0.000000 0.000000 -0.488699
 28 1.854841 1.227791 -13.762345 2.652097 0.208609 2.204018
 29 10.456543 -0.000004 0.000004 0.071333 0.085679 -1.149023
 30 24.248093 0.000001 0.000007 0.024608 0.029444 0.857055
 31 26.336971 0.000019 0.000002 0.486934 0.052642 0.693193
 32 1.854847 1.227798 13.762341 -2.666053 -0.038581 1.881455
 33 10.456542 -0.000008 0.000004 -0.024878 -0.092358 -1.643012
 34 24.248116 0.000002 -0.000004 -0.036573 -0.036578 1.226346
 35 26.336975 0.000000 0.000004 -0.156954 -0.033933 0.487877
time 30
  0 0.000000 0.000000 0.000000 0.000000 -0.000000 -1.570796
  1 0.000000 0.000000 0.000000 0.000000 -0.000000 0.000000
  2 -5.843928 -13.381592 32.531734 -1.564278 -0.221191 1.632438
  3 4.222169 -0.467508 0.000000 0.001407 -0.031700 -0.049883
  4 4.476987 -0.000002 -0.000000 -0.000744 -0.010526 0.217037
  5 4.477083 0.000000 0.000002 -0.016968 0.078735 0.086003
  6 4.477077 -0.000004 -0.000002 -0.003840 0.033830 -0.047312
  7 5.413502 -7.700466 -0.000000 0.020801 -0.041187 -0.240678
  8 6.890240 0.000002 -0.000000 0.000791 -0.062487 -0.288239
  9 8.011925 0.000004 0.000005 -0.003248 -0.069334 -0.052977
 10 7.210720 -0.000002 -0.000000 -0.000247 -0.024364 -0.116253
 11 8.581028 -0.304903 -0.000000 0.010338 0.306080 0.806303
 12 22.523008 2.194031 6.355708 0.000000 0.000825 0.000000
 13 22.523005 2.194038 -6.355709 0.000000 0.000212 0.000000
 14 -3.006533 7.804720 -11.355459 0.497258 0.089682 1.725464
 15 10.384675 0.000008 0.000005 -0.021156 0.167004 -2.345341
 16 22.550743 -0.000006 -0.000004 0.135724 0.007222 2.560524
 17 30.814247 -0.000015 -0.000004 2.370313 -0.144760 -0.246995
 18 -3.013796 7.815494 11.355459 0.220464 -0.433234 1.058001
 19 10.374533 -0.000002 0.000007 -0.276140 -0.197249 -1.626819
 20 22.550726 -0.000027 -0.000013 -0.118268 0.027935 1.764411
 21 30.814270 -0.000023 0.000002 -3.021409 0.093957 0.367349
 22 -4.250660 -0.770624 0.000001 0.014561 -0.143867 -2.989283
 23 10.363422 0.000000 0.000000 -0.002181 0.075807 0.248983
 24 10.363076 0.000000 -0.000000 -0.025911 0.112520 0.109382
 25 10.363081 -0.000004 -0.000002 -0.018379 0.147605 -0.305704
 26 8.210358 -0.000006 -7.703991 0.000000 0.000000 -0.262351
 27 8.210346 -0.000002 7.704017 0.000000 0.000000 -0.271274
 28 1.854841 1.227791 -13.762345 2.645106 0.201207 2.180602
 29 10.456543 -0.000004 0.000004 0.068171 0.086942 -1.184844
 30 24.248093 0.000001 0.000007 0.025387 0.030130 0.888491
 31 26.336971 0.000019 0.000002 0.467793 0.055953 0.679552
 32 1.854847 1.227798 13.762341 -2.668787 -0.048623 1.910104
 33 10.456542 -0.000008 0.000004 -0.027863 -0.092525 -1.611483
 34 24.248116 0.000002 -0.000004 -0.035808 -0.036314 1.205833
 35 26.336975 0.000000 0.000004 -0.176509 -0.032568 0.507489
time 31
  0 0.000000 0.000000 0.000000 0.000000 -0.000000 -1.570796
  1 0.000000 0.000000 0.000000 0.000000 -0.000000 0.000000
  2 -5.015778 -13.217524 32.355949 -1.567058 -0.223106 1.612210
  3 4.222169 -0.467508 0.000000 0.000568 -0.024100 -0.032448
  4 4.476987 -0.000002 -0.000000 0.001976 -0.010740 0.214351
  5 4.477083 0.000000 0.000002 -0.015446 0.059303 0.043406
  6 4.477077 -0.000004 -0.000002 -0.004643 0.021859 -0.072836
  7 5.413502 -7.700466 -0.000000 0.017452 -0.029497 -0.242576
  8 6.890240 0.000002 -0.000000 0.001115 -0.043209 -0.300247
  9 8.011925 0.000004 0.000005 -0.004243 -0.058391 -0.015159
 10 7.210720 -0.000002 -0.000000 -0.000110 -0.018132 -0.056155
 11 8.581028 -0.304903 -0.000000 0.008432 0.232073 0.770517
 12 22.523008 2.194031 6.355708 0.000000 -0.000122 0.000000
 13 22.523005 2.194038 -6.355709 0.000000 0.000121 0.000000
 14 -3.006533 7.804720 -11.355459 0.482065 0.101941 1.625476
 15 10.384675 0.000008 0.000005 -0.037068 0.163482 -2.346951
 16 22.550743 -0.000006 -0.000004 0.135980 0.007538 2.541093
 17 30.814247 -0.000015 -0.000004 2.378918 -0.046641 -0.098233
 18 -3.013796 7.815494 11.355459 0.199997 -0.398707 1.134153
 19 10.374533 -0.000002 0.000007 -0.214932 -0.195621 -1.651637
 20 22.550726 -0.000027 -0.000013 -0.119003 0.018119 1.783767
 21 30.814270 -0.000023 0.000002 -2.990293 0.122754 0.374991
 22 -4.250660 -0.770624 0.000001 0.014837 -0.148232 -3.095727
 23 10.363422 0.000000 0.000000 -0.000959 0.073625 0.299047
 24 10.363076 0.000000 -0.000000 -0.026258 0.108661 0.188283
 25 10.363081 -0.000004 -0.000002 -0.021567 0.142537 0.051016
 26 8.210358 -0.000006 -7.703991 0.000000 0.000000 0.119982
 27 8.210346 -0.000002 7.704017 0.000000 0.000000 0.111629
 28 1.854841 1.227791 -13.762345 2.637498 0.192991 2.154692
 29 10.456543 -0.000004 0.000004 0.064922 0.088135 -1.220882
 30 24.248093 0.000001 0.000007 0.026239 0.030796 0.918802
 31 26.336971 0.000019 0.000002 0.448259 0.059054 0.664420
 32 1.854847 1.227798 13.762341 -2.670881 -0.058172 1.936685
 33 10.456542 -0.000008 0.000004 -0.030644 -0.092636 -1.582043
 34 24.248116 0.000002 -0.000004 -0.035122 -0.036062 1.187199
 35 26.336975 0.000000 0.000004 -0.196792 -0.031389 0.526083
time 32
  0 0.000000 0.000000 0.000000 0.000000 -0.000000 -1.570796
  1 0.000000 0.000000 0.000000 0.000000 -0.000000 0.000000
  2 -4.211066 -13.100334 32.184067 -1.569359 -0.226456 1.594954
  3 4.222169 -0.467508 0.000000 -0.000091 -0.016629 -0.015612
  4 4.476987 -0.000002 -0.000000 0.004673 -0.011104 0.211443
  5 4.477083 0.000000 0.000002 -0.012978 0.043004 0.004425
  6 4.477077 -0.000004 -0.000002 -0.005147 0.009983 -0.097302
  7 5.413502 -7.700466 -0.000000 0.014249 -0.018164 -0.244443
  8 6.890240 0.000002 -0.000000 0.001306 -0.024545 -0.312115
  9 8.011925 0.000004 0.000005 -0.005357 -0.047319 0.022141
 10 7.210720 -0.000002 -0.000000 0.000000 -0.011794 0.002843
 11 8.581028 -0.304903 -0.000000 0.007536 0.160217 0.735993
 12 22.523008 2.194031 6.355708 0.000000 -0.001039 0.000000
 13 22.523005 2.194038 -6.355709 0.000000 0.000030 0.000000
 14 -3.006533 7.804720 -11.355459 0.432092 0.147482 1.395626
 15 10.384675 0.000008 0.000005 -0.019624 0.174472 -2.146565
 16 22.550743 -0.000006 -0.000004 0.130622 0.009977 2.344603
 17 30.814247 -0.000015 -0.000004 2.425261 0.080945 0.113415
 18 -3.013796 7.815494 11.355459 0.181363 -0.364254 1.209507
 19 10.374533 -0.000002 0.000007 -0.154195 -0.193628 -1.679470
 20 22.550726 -0.000027 -0.000013 -0.120086 0.008559 1.805915
 21 30.814270 -0.000023 0.000002 -2.955949 0.147589 0.385060
 22 -4.250660 -0.770624 0.000001 0.015280 -0.152372 3.087339
 23 10.363422 0.000000 0.000000 0.000084 0.071516 0.341387
 24 10.363076 0.000000 -0.000000 -0.026714 0.104490 0.267209
 25 10.363081 -0.000004 -0.000002 -0.025483 0.138315 0.414394
 26 8.210358 -0.000006 -7.703991 0.000000 0.000000 0.498918
 27 8.210346 -0.000002 7.704017 0.000000 0.000000 0.490835
 28 1.854841 1.227791 -13.762345 2.630023 0.184627 2.128479
 29 10.456543 -0.000004 0.000004 0.061568 0.089256 -1.256964
 30 24.248093 0.000001 0.000007 0.027092 0.031381 0.947633
 31 26.336971 0.000019 0.000002 0.429335 0.061839 0.649067
 32 1.854847 1.227798 13.762341 -2.672501 -0.066928 1.960724
 33 10.456542 -0.000008 0.000004 -0.033153 -0.092747 -1.555322
 34 24.248116 0.000002 -0.000004 -0.034487 -0.035823 1.170343
 35 26.336975 0.000000 0.000004 -0.216476 -0.030241 0.543151
time 33
  0 0.000000 0.000000 0.000000 0.000000 -0.000000 -1.570796
  1 0.000000 0.000000 0.000000 0.000000 -0.000000 0.000000
  2 -3.492294 -13.026112 32.027813 -1.570797 -0.231163 1.582204
  3 4.222169 -0.467508 0.000000 -0.000606 -0.009918 -0.000662
  4 4.476987 -0.000002 -0.000000 0.007321 -0.011596 0.208335
  5 4.477083 0.000000 0.000002 -0.010017 0.031745 -0.027620
  6 4.477077 -0.000004 -0.000002 -0.005422 -0.000748 -0.118979
  7 5.413502 -7.700466 -0.000000 0.011417 -0.008020 -0.245937
  8 6.890240 0.000002 -0.000000 0.001390 -0.007960 -0.322890
  9 8.011925 0.000004 0.000005 -0.006732 -0.036712 0.056559
 10 7.210720 -0.000002 -0.000000 -0.000055 -0.005685 0.056397
 11 8.581028 -0.304903 -0.000000 0.007628 0.096197 0.705289
 12 22.523008 2.194031 6.355708 0.000000 -0.001711 0.000000
 13 22.523005 2.194038 -6.355709 0.000000 -0.000030 0.000000
 14 -3.006533 7.804720 -11.355459 0.399536 0.157092 1.274555
 15 10.384675 0.000008 0.000005 0.002226 0.182471 -1.933905
 16 22.550743 -0.000006 -0.000004 0.125537 0.011814 2.108223
 17 30.814247 -0.000015 -0.000004 2.467674 0.166430 0.275714
 18 -3.013796 7.815494 11.355459 0.163289 -0.338172 1.267363
 19 10.374533 -0.000002 0.000007 -0.095751 -0.190206 -1.705911
 20 22.550726 -0.000027 -0.000013 -0.120801 0.002846 1.813049
 21 30.814270 -0.000023 0.000002 -2.924201 0.167456 0.393734
 22 -4.250660 -0.770624 0.000001 0.015340 -0.156432 3.033362
 23 10.363422 0.000000 0.000000 0.001222 0.069287 0.361897
 24 10.363076 0.000000 -0.000000 -0.026762 0.100787 0.304324
 25 10.363081 -0.000004 -0.000002 -0.029078 0.134079 0.580176
 26 8.210358 -0.000006 -7.703991 0.000000 0.000000 0.669923
 27 8.210346 -0.000002 7.704017 0.000000 0.000000 0.662585
 28 1.854841 1.227791 -13.762345 2.623471 0.176979 2.104515
 29 10.456543 -0.000004 0.000004 0.058178 0.090234 -1.292481
 30 24.248093 0.000001 0.000007 0.027871 0.031905 0.973977
 31 26.336971 0.000019 0.000002 0.412543 0.064257 0.635205
 32 1.854847 1.227798 13.762341 -2.673717 -0.074453 1.981360
 33 10.456542 -0.000008 0.000004 -0.035290 -0.092831 -1.532503
 34 24.248116 0.000002 -0.000004 -0.033917 -0.035595 1.155365
 35 26.336975 0.000000 0.000004 -0.233972 -0.029187 0.557563
time 34
  0 0.000000 0.000000 0.000000 0.000000 -0.000000 -1.570796
  1 0.000000 0.000000 0.000000 0.000000 -0.000000 0.000000
  2 -2.902432 -12.983143 31.902809 -1.571468 -0.237466 1.575302
  3 4.222169 -0.467508 0.000000 -0.001062 -0.004487 0.011406
  4 4.476987 -0.000002 -0.000000 0.009970 -0.012153 0.205117
  5 4.477083 0.000000 0.000002 -0.007069 0.027206 -0.050030
  6 4.477077 -0.000004 -0.000002 -0.005590 -0.009505 -0.136530
  7 5.413502 -7.700466 -0.000000 0.009171 0.000306 -0.246684
  8 6.890240 0.000002 -0.000000 0.001462 0.005411 -0.331780
  9 8.011925 0.000004 0.000005 -0.008722 -0.026807 0.086461
 10 7.210720 -0.000002 -0.000000 -0.000659 0.000088 0.101557
 11 8.581028 -0.304903 -0.000000 0.008156 0.044349 0.680369
 12 22.523008 2.194031 6.355708 0.000000 -0.001894 0.000000
 13 22.523005 2.194038 -6.355709 0.000000 -0.000091 0.000000
 14 -3.006533 7.804720 -11.355459 0.404148 0.151439 1.281285
 15 10.384675 0.000008 0.000005 0.014104 0.186926 -1.822881
 16 22.550743 -0.000006 -0.000004 0.123730 0.013163 1.948113
 17 30.814247 -0.000015 -0.000004 2.477720 0.202919 0.353640
 18 -3.013796 7.815494 11.355459 0.146946 -0.312276 1.322311
 19 10.374533 -0.000002 0.000007 -0.069326 -0.190804 -1.717160
 20 22.550726 -0.000027 -0.000013 -0.121516 -0.002611 1.819252
 21 30.814270 -0.000023 0.000002 -2.899294 0.182405 0.398252
 22 -4.250660 -0.770624 0.000001 0.015963 -0.159738 -3.114342
 23 10.363422 0.000000 0.000000 0.002325 0.067094 0.147447
 24 10.363076 0.000000 -0.000000 -0.027349 0.097743 0.142315
 25 10.363081 -0.000004 -0.000002 -0.031626 0.130504 0.438852
 26 8.210358 -0.000006 -7.703991 0.000000 0.000000 0.531223
 27 8.210346 -0.000002 7.704017 0.000000 0.000000 0.523524
 28 1.854841 1.227791 -13.762345 2.618326 0.170836 2.084931
 29 10.456543 -0.000004 0.000004 0.054719 0.091089 -1.327433
 30 24.248093 0.000001 0.000007 0.028649 0.032390 0.997066
 31 26.336971 0.000019 0.000002 0.398839 0.066359 0.624105
 32 1.854847 1.227798 13.762341 -2.674628 -0.080500 1.998119
 33 10.456542 -0.000008 0.000004 -0.036986 -0.092942 -1.514256
 34 24.248116 0.000002 -0.000004 -0.033412 -0.035391 1.142113
 35 26.336975 0.000000 0.000004 -0.248038 -0.028256 0.568753
time 35
  0 0.000000 0.000000 0.000000 0.000000 -0.000000 -1.570796
  1 0.000000 0.000000 0.000000 0.000000 -0.000000 0.000000
  2 -2.511796 -12.963610 31.820776 -1.571372 -0.244008 1.573960
  3 4.222169 -0.467508 0.000000 -0.001517 -0.000983 0.019349
  4 4.476987 -0.000002 -0.000000 0.012630 -0.012732 0.201809
  5 4.477083 0.000000 0.000002 -0.004804 0.028579 -0.061473
  6 4.477077 -0.000004 -0.000002 -0.005842 -0.015218 -0.148256
  7 5.413502 -7.700466 -0.000000 0.007722 0.006049 -0.246310
  8 6.890240 0.000002 -0.000000 0.001606 0.014181 -0.337807
  9 8.011925 0.000004 0.000005 -0.007007 -0.026264 0.098427
 10 7.210720 -0.000002 -0.000000 0.000165 -0.000618 0.121107
 11 8.581028 -0.304903 -0.000000 0.008271 0.010018 0.663825
 12 22.523008 2.194031 6.355708 0.000000 -0.001375 0.000000
 13 22.523005 2.194038 -6.355709 0.000000 -0.000030 0.000000
 14 -3.006533 7.804720 -11.355459 0.410659 0.145433 1.293509
 15 10.384675 0.000008 0.000005 0.025757 0.189769 -1.718356
 16 22.550743 -0.000006 -0.000004 0.122370 0.013507 1.826745
 17 30.814247 -0.000015 -0.000004 2.472522 0.216618 0.384439
 18 -3.013796 7.815494 11.355459 0.137934 -0.301851 1.346479
 19 10.374533 -0.000002 0.000007 -0.044587 -0.191369 -1.727655
 20 22.550726 -0.000027 -0.000013 -0.122272 -0.008049 1.825456
 21 30.814270 -0.000023 0.000002 -2.881754 0.192510 0.398169
 22 -4.250660 -0.770624 0.000001 0.016155 -0.161824 -2.919123
 23 10.363422 0.000000 0.000000 0.002073 0.066423 -0.249674
 24 10.363076 0.000000 -0.000000 -0.027061 0.095658 -0.157827
 25 10.363081 -0.000004 -0.000002 -0.033781 0.128363 0.166137
 26 8.210358 -0.000006 -7.703991 0.000000 0.000000 0.325807
 27 8.210346 -0.000002 7.704017 0.000000 0.000000 0.318272
 28 1.854841 1.227791 -13.762345 2.615160 0.167085 2.072159
 29 10.456543 -0.000004 0.000004 0.052413 0.091622 -1.353094
 30 24.248093 0.000001 0.000007 0.029316 0.032793 1.015773
 31 26.336971 0.000019 0.000002 0.389704 0.068172 0.617422
 32 1.854847 1.227798 13.762341 -2.675236 -0.084604 2.010139
 33 10.456542 -0.000008 0.000004 -0.038173 -0.093137 -1.501684
 34 24.248116 0.000002 -0.000004 -0.032971 -0.035199 1.130740
 35 26.336975 0.000000 0.000004 -0.257000 -0.027543 0.575817
time 36
  0 0.000000 0.000000 0.000000 0.000000 -0.000000 -1.570796
  1 0.000000 0.000000 0.000000 0.000000 -0.000000 0.000000
  2 -2.363353 -12.959703 31.785618 -1.570988 -0.244686 1.570988
  3 4.222169 -0.467508 0.000000 -0.002069 0.000018 0.022093
  4 4.476987 -0.000002 -0.000000 0.015327 -0.013331 0.198502
  5 4.477083 0.000000 0.000002 -0.004349 0.026123 -0.067772
  6 4.477077 -0.000004 -0.000002 -0.006321 -0.017097 -0.152773
  7 5.413502 -7.700466 -0.000000 0.007297 0.008547 -0.244474
  8 6.890240 0.000002 -0.000000 0.001953 0.017148 -0.340157
  9 8.011925 0.000004 0.000005 -0.006810 -0.024538 0.104449
 10 7.210720 -0.000002 -0.000000 0.000000 0.000000 0.130654
 11 8.581028 -0.304903 -0.000000 0.007192 -0.002445 0.657761
 12 22.523008 2.194031 6.355708 0.000000 -0.000000 0.000000
 13 22.523005 2.194038 -6.355709 0.000000 -0.000000 0.000000
 14 -3.006533 7.804720 -11.355459 0.417062 0.139568 1.305664
 15 10.384675 0.000008 0.000005 0.030987 0.190809 -1.678201
 16 22.550743 -0.000006 -0.000004 0.121603 0.013421 1.761793
 17 30.814247 -0.000015 -0.000004 2.464267 0.225740 0.405174
 18 -3.013796 7.815494 11.355459 0.129381 -0.291650 1.369678
 19 10.374533 -0.000002 0.000007 -0.019780 -0.191668 -1.738151
 20 22.550726 -0.000027 -0.000013 -0.123048 -0.013448 1.831660
 21 30.814270 -0.000023 0.000002 -2.871440 0.198089 0.393371
 22 -4.250660 -0.770624 0.000001 0.016515 -0.162675 -2.777702
 23 10.363422 0.000000 0.000000 0.002661 0.066003 -0.470131
 24 10.363076 0.000000 -0.000000 -0.026810 0.095059 -0.325023
 25 10.363081 -0.000004 -0.000002 -0.034384 0.127470 0.014423
 26 8.210358 -0.000006 -7.703991 0.000000 0.000000 0.177086
 27 8.210346 -0.000002 7.704017 0.000000 0.000000 0.169444
 28 1.854841 1.227791 -13.762345 2.614544 0.166567 2.068388
 29 10.456543 -0.000004 0.000004 0.051033 0.091640 -1.369420
 30 24.248093 0.000001 0.000007 0.029835 0.033116 1.029271
 31 26.336971 0.000019 0.000002 0.386223 0.069828 0.616594
 32 1.854847 1.227798 13.762341 -2.675642 -0.086465 2.016859
 33 10.456542 -0.000008 0.000004 -0.038783 -0.093415 -1.495575
 34 24.248116 0.000002 -0.000004 -0.032583 -0.035020 1.121144
 35 26.336975 0.000000 0.000004 -0.259573 -0.027077 0.577908
end
