version 1
nodes
  0 "Chaurus" -1
  1 "NPC Root [Root]" 0
  2 "Pelvis [Pelv]" 1
  3 "Spine[Spn0]" 2
  4 "Spine[Spn1]" 3
  5 "Spine[Spn2]" 4
  6 "Ribcage[Spn3]" 5
  7 "[Neck0]" 6
  8 "[Neck1]" 7
  9 "[Neck2]" 8
 10 "[Neck3]" 9
 11 "NPC Head [Head]" 10
 12 "Head[LeftPincher]" 11
 13 "Head[RightPincher]" 11
 14 "R UpperArm[RClv]" 6
 15 "R UpperArm[RUar]" 14
 16 "R UpperArm[RLar]" 15
 17 "R UpperArm[RHnd]" 16
 18 "L UpperArm[RClv]" 6
 19 "L UpperArm[LUar]" 18
 20 "L UpperArm[LLar]" 19
 21 "L UpperArm[LHnd]" 20
 22 "Tail[Tal0]" 2
 23 "Tail[Tal1]" 22
 24 "Tail[Tal2]" 23
 25 "Tail[Tal3]" 24
 26 "[TalRightPincher]" 25
 27 "[TalLeftPincher]" 25
 28 "R Leg[RThg0]" 2
 29 "R Leg[RThg1]" 28
 30 "R Leg[RClf]" 29
 31 "R Leg[RAnkle]" 30
 32 "LLeg[RThg0]" 2
 33 "LLeg[LThg1]" 32
 34 "LLeg[LClf]" 33
 35 "LLeg[LAnkle]" 34
end
skeleton
time 0
  0 0.000000 0.000000 0.000000 0.000000 -0.000000 -1.570796
  1 0.000000 0.000000 0.000000 0.000000 -0.000000 0.000000
  2 10.449537 -13.373779 28.230824 -1.324432 -0.109699 1.145062
  3 4.222169 -0.467508 0.000000 0.000676 -0.088722 -0.171065
  4 4.476987 -0.000002 -0.000000 0.050286 -0.338841 0.050290
  5 4.477083 0.000000 0.000002 0.005599 -0.236290 0.128823
  6 4.477077 -0.000004 -0.000002 -0.023543 -0.029820 0.049411
  7 5.413502 -7.700466 -0.000000 0.280398 -0.015411 0.158467
  8 6.890240 0.000002 -0.000000 0.048514 0.089006 -0.076004
  9 8.011925 0.000004 0.000005 -0.226090 0.023724 -0.215154
 10 7.210720 -0.000002 -0.000000 -0.221092 -0.023216 0.735571
 11 8.581028 -0.304903 -0.000000 -0.072423 0.175548 0.986039
 12 22.523008 2.194031 6.355708 0.000000 -0.040756 0.000000
 13 22.523005 2.194038 -6.355709 0.000000 -0.074624 0.000000
 14 -3.006533 7.804720 -11.355459 0.367577 0.128263 1.190087
 15 10.384675 0.000008 0.000005 -0.008681 0.188900 -1.890917
 16 22.550743 -0.000006 -0.000004 0.126784 0.012417 2.024566
 17 30.814247 -0.000015 -0.000004 2.794918 0.305395 0.318581
 18 -3.013796 7.815494 11.355459 0.221788 -0.272854 1.052187
 19 10.374533 -0.000002 0.000007 -0.107750 -0.174625 -1.224459
 20 22.550726 -0.000027 -0.000013 -0.111650 -0.013251 1.317186
 21 30.814270 -0.000023 0.000002 -2.612722 0.272322 0.667599
 22 -4.250660 -0.770624 0.000001 0.003619 -0.163172 -2.698093
 23 10.363422 0.000000 0.000000 0.047327 0.045306 0.298013
 24 10.363076 0.000000 -0.000000 0.042210 0.089462 0.401575
 25 10.363081 -0.000004 -0.000002 0.009902 0.131645 0.349289
 26 8.210358 -0.000006 -7.703991 0.000000 0.000000 -0.000000
 27 8.210346 -0.000002 7.704017 0.000000 0.000000 -0.000000
 28 1.854841 1.227791 -13.762345 2.349076 0.148754 1.704195
 29 10.456543 -0.000004 0.000004 -0.019197 0.076871 -2.134250
 30 24.248093 0.000001 0.000007 0.049669 0.039149 1.588249
 31 26.336971 0.000019 0.000002 0.231133 -0.067241 0.477866
 32 1.854847 1.227798 13.762341 -2.812382 -0.002354 2.436168
 33 10.456542 -0.000008 0.000004 -0.111969 -0.052590 -0.585575
 34 24.248116 0.000002 -0.000004 -0.015069 -0.016432 0.446017
 35 26.336975 0.000000 0.000004 -0.507823 -0.121631 0.906553
time 1
  0 0.000000 0.000000 0.000000 0.000000 -0.000000 -1.570796
  1 0.000000 0.000000 0.000000 0.000000 -0.000000 0.000000
  2 10.449537 -13.373779 28.230824 -1.324432 -0.109699 1.145062
  3 4.222169 -0.467508 0.000000 0.000676 -0.088722 -0.171065
  4 4.476987 -0.000002 -0.000000 0.050286 -0.338841 0.050290
  5 4.477083 0.000000 0.000002 0.005599 -0.236290 0.128823
  6 4.477077 -0.000004 -0.000002 -0.023543 -0.029820 0.049411
  7 5.413502 -7.700466 -0.000000 0.280398 -0.015411 0.158467
  8 6.890240 0.000002 -0.000000 0.048514 0.089006 -0.076004
  9 8.011925 0.000004 0.000005 -0.226090 0.023724 -0.215154
 10 7.210720 -0.000002 -0.000000 -0.221092 -0.023216 0.735571
 11 8.581028 -0.304903 -0.000000 -0.072423 0.175548 0.986039
 12 22.523008 2.194031 6.355708 0.000000 -0.040756 0.000000
 13 22.523005 2.194038 -6.355709 0.000000 -0.074624 0.000000
 14 -3.006533 7.804720 -11.355459 0.367577 0.128263 1.190087
 15 10.384675 0.000008 0.000005 -0.008681 0.188900 -1.890917
 16 22.550743 -0.000006 -0.000004 0.126784 0.012417 2.024566
 17 30.814247 -0.000015 -0.000004 2.794918 0.305395 0.318581
 18 -3.013796 7.815494 11.355459 0.221788 -0.272854 1.052187
 19 10.374533 -0.000002 0.000007 -0.107750 -0.174625 -1.224459
 20 22.550726 -0.000027 -0.000013 -0.111650 -0.013251 1.317186
 21 30.814270 -0.000023 0.000002 -2.612722 0.272322 0.667599
 22 -4.250660 -0.770624 0.000001 0.003619 -0.163172 -2.698093
 23 10.363422 0.000000 0.000000 0.047327 0.045306 0.298013
 24 10.363076 0.000000 -0.000000 0.042210 0.089462 0.401575
 25 10.363081 -0.000004 -0.000002 0.009902 0.131645 0.349289
 26 8.210358 -0.000006 -7.703991 0.000000 0.000000 -0.000000
 27 8.210346 -0.000002 7.704017 0.000000 0.000000 -0.000000
 28 1.854841 1.227791 -13.762345 2.349076 0.148754 1.704195
 29 10.456543 -0.000004 0.000004 -0.019197 0.076871 -2.134250
 30 24.248093 0.000001 0.000007 0.049669 0.039149 1.588249
 31 26.336971 0.000019 0.000002 0.231133 -0.067241 0.477866
 32 1.854847 1.227798 13.762341 -2.812382 -0.002354 2.436168
 33 10.456542 -0.000008 0.000004 -0.111969 -0.052590 -0.585575
 34 24.248116 0.000002 -0.000004 -0.015069 -0.016432 0.446017
 35 26.336975 0.000000 0.000004 -0.507823 -0.121631 0.906553
time 2
  0 0.000000 0.000000 0.000000 0.000000 -0.000000 -1.570796
  1 0.000000 0.000000 0.000000 0.000000 -0.000000 0.000000
  2 10.265938 -16.073080 28.316763 -1.340441 -0.183854 1.087256
  3 4.222169 -0.467508 0.000000 -0.000235 -0.088852 -0.170451
  4 4.476987 -0.000002 -0.000000 0.050598 -0.339034 0.051688
  5 4.477083 0.000000 0.000002 0.006773 -0.236856 0.128467
  6 4.477077 -0.000004 -0.000002 -0.023687 -0.032094 0.048664
  7 5.413502 -7.700466 -0.000000 0.281209 -0.001325 0.124676
  8 6.890240 0.000002 -0.000000 0.050911 0.093672 -0.047334
  9 8.011925 0.000004 0.000005 -0.225213 0.037654 -0.181982
 10 7.210720 -0.000002 -0.000000 -0.213817 -0.029855 0.717362
 11 8.581028 -0.304903 -0.000000 -0.074168 0.158373 1.001917
 12 22.523008 2.194031 6.355708 0.000000 -0.042162 0.000000
 13 22.523005 2.194038 -6.355709 0.000000 -0.072840 0.000000
 14 -3.006533 7.804720 -11.355459 0.335075 0.009941 1.232184
 15 10.384675 0.000008 0.000005 0.019557 0.191891 -1.734740
 16 22.550743 -0.000006 -0.000004 0.123090 0.013593 1.846115
 17 30.814247 -0.000015 -0.000004 2.810686 0.331288 0.355574
 18 -3.013796 7.815494 11.355459 0.206056 -0.331147 1.061592
 19 10.374533 -0.000002 0.000007 -0.126086 -0.164924 -1.106864
 20 22.550726 -0.000027 -0.000013 -0.109423 -0.012760 1.195283
 21 30.814270 -0.000023 0.000002 -2.619317 0.244307 0.708571
 22 -4.250660 -0.770624 0.000001 0.003667 -0.163172 -2.698375
 23 10.363422 0.000000 0.000000 0.047423 0.045510 0.296120
 24 10.363076 0.000000 -0.000000 0.042306 0.089809 0.399871
 25 10.363081 -0.000004 -0.000002 0.009717 0.131444 0.348108
 26 8.210358 -0.000006 -7.703991 0.000000 0.000000 -0.000000
 27 8.210346 -0.000002 7.704017 0.000000 0.000000 -0.000000
 28 1.854841 1.227791 -13.762345 2.307213 0.161559 1.678043
 29 10.456543 -0.000004 0.000004 -0.024333 0.072796 -2.202723
 30 24.248093 0.000001 0.000007 0.053932 0.038746 1.697653
 31 26.336971 0.000019 0.000002 0.207858 0.021896 0.388565
 32 1.854847 1.227798 13.762341 -2.830074 0.019043 2.426259
 33 10.456542 -0.000008 0.000004 -0.100744 -0.066366 -0.772462
 34 24.248116 0.000002 -0.000004 -0.017621 -0.020926 0.577824
 35 26.336975 0.000000 0.000004 -0.536726 -0.111208 0.847606
time 3
  0 0.000000 0.000000 0.000000 0.000000 -0.000000 -1.570796
  1 0.000000 0.000000 0.000000 0.000000 -0.000000 0.000000
  2 9.781549 -18.506748 28.539427 -1.351848 -0.258528 1.029833
  3 4.222169 -0.467508 0.000000 -0.001925 -0.087758 -0.165821
  4 4.476987 -0.000002 -0.000000 0.051544 -0.335950 0.057238
  5 4.477083 0.000000 0.000002 0.009266 -0.235353 0.125636
  6 4.477077 -0.000004 -0.000002 -0.024610 -0.032864 0.044288
  7 5.413502 -7.700466 -0.000000 0.281793 0.021290 0.068855
  8 6.890240 0.000002 -0.000000 0.054003 0.099619 -0.011403
  9 8.011925 0.000004 0.000005 -0.223733 0.072641 -0.096584
 10 7.210720 -0.000002 -0.000000 -0.204374 -0.037570 0.689070
 11 8.581028 -0.304903 -0.000000 -0.076373 0.139201 1.020073
 12 22.523008 2.194031 6.355708 0.000000 -0.043598 0.000000
 13 22.523005 2.194038 -6.355709 0.000000 -0.073233 0.000000
 14 -3.006533 7.804720 -11.355459 0.315759 -0.055031 1.241317
 15 10.384675 0.000008 0.000005 0.047944 0.190597 -1.578452
 16 22.550743 -0.000006 -0.000004 0.119236 0.014139 1.667362
 17 30.814247 -0.000015 -0.000004 2.826673 0.355897 0.393571
 18 -3.013796 7.815494 11.355459 0.189458 -0.389066 1.072194
 19 10.374533 -0.000002 0.000007 -0.143140 -0.153396 -0.990662
 20 22.550726 -0.000027 -0.000013 -0.107278 -0.012034 1.073690
 21 30.814270 -0.000023 0.000002 -2.627210 0.217051 0.748623
 22 -4.250660 -0.770624 0.000001 0.003787 -0.163172 -2.699117
 23 10.363422 0.000000 0.000000 0.047123 0.045725 0.289211
 24 10.363076 0.000000 -0.000000 0.041826 0.089989 0.393367
 25 10.363081 -0.000004 -0.000002 0.009261 0.131290 0.344886
 26 8.210358 -0.000006 -7.703991 0.000000 0.000000 -0.000000
 27 8.210346 -0.000002 7.704017 0.000000 0.000000 -0.000000
 28 1.854841 1.227791 -13.762345 2.265087 0.173253 1.651464
 29 10.456543 -0.000004 0.000004 -0.029050 0.068525 -2.269154
 30 24.248093 0.000001 0.000007 0.058047 0.037938 1.804274
 31 26.336971 0.000019 0.000002 0.176623 0.108405 0.296835
 32 1.854847 1.227798 13.762341 -2.847496 0.039428 2.416997
 33 10.456542 -0.000008 0.000004 -0.091214 -0.074658 -0.908115
 34 24.248116 0.000002 -0.000004 -0.019926 -0.024437 0.688407
 35 26.336975 0.000000 0.000004 -0.561470 -0.099016 0.792898
time 4
  0 0.000000 0.000000 0.000000 0.000000 -0.000000 -1.570796
  1 0.000000 0.000000 0.000000 0.000000 -0.000000 0.000000
  2 9.058870 -20.791973 28.871468 -1.358846 -0.332723 0.973464
  3 4.222169 -0.467508 0.000000 -0.004262 -0.085534 -0.157648
  4 4.476987 -0.000002 -0.000000 0.053078 -0.329953 0.066450
  5 4.477083 0.000000 0.000002 0.012969 -0.232316 0.120686
  6 4.477077 -0.000004 -0.000002 -0.026156 -0.033146 0.036860
  7 5.413502 -7.700466 -0.000000 0.282219 0.048782 -0.002616
  8 6.890240 0.000002 -0.000000 0.057538 0.105997 0.027460
  9 8.011925 0.000004 0.000005 -0.226470 0.126782 0.031823
 10 7.210720 -0.000002 -0.000000 -0.192598 -0.046256 0.650668
 11 8.581028 -0.304903 -0.000000 -0.078944 0.119039 1.039000
 12 22.523008 2.194031 6.355708 0.000000 -0.045064 0.000000
 13 22.523005 2.194038 -6.355709 0.000000 -0.074080 0.000000
 14 -3.006533 7.804720 -11.355459 0.296876 -0.117000 1.250108
 15 10.384675 0.000008 0.000005 0.079170 0.185187 -1.397838
 16 22.550743 -0.000006 -0.000004 0.115381 0.013995 1.489456
 17 30.814247 -0.000015 -0.000004 2.821824 0.366586 0.444029
 18 -3.013796 7.815494 11.355459 0.172504 -0.445303 1.083594
 19 10.374533 -0.000002 0.000007 -0.158712 -0.140240 -0.875735
 20 22.550726 -0.000027 -0.000013 -0.105236 -0.011053 0.952159
 21 30.814270 -0.000023 0.000002 -2.636612 0.190822 0.787252
 22 -4.250660 -0.770624 0.000001 0.003991 -0.163172 -2.700321
 23 10.363422 0.000000 0.000000 0.046476 0.045989 0.277679
 24 10.363076 0.000000 -0.000000 0.040843 0.090049 0.382501
 25 10.363081 -0.000004 -0.000002 0.008560 0.131167 0.339758
 26 8.210358 -0.000006 -7.703991 0.000000 0.000000 -0.000000
 27 8.210346 -0.000002 7.704017 0.000000 0.000000 -0.000000
 28 1.854841 1.227791 -13.762345 2.223883 0.182259 1.623608
 29 10.456543 -0.000004 0.000004 -0.031024 0.066461 -2.297073
 30 24.248093 0.000001 0.000007 0.060012 0.037495 1.858503
 31 26.336971 0.000019 0.000002 0.137730 0.191288 0.202122
 32 1.854847 1.227798 13.762341 -2.864647 0.058910 2.408424
 33 10.456542 -0.000008 0.000004 -0.080565 -0.081727 -1.043334
 34 24.248116 0.000002 -0.000004 -0.022556 -0.027637 0.794116
 35 26.336975 0.000000 0.000004 -0.582869 -0.085553 0.741242
time 5
  0 0.000000 0.000000 0.000000 0.000000 -0.000000 -1.570796
  1 0.000000 0.000000 0.000000 0.000000 -0.000000 0.000000
  2 8.152593 -22.917038 29.289450 -1.370733 -0.394392 0.941637
  3 4.222169 -0.467508 0.000000 -0.007090 -0.082290 -0.146439
  4 4.476987 -0.000002 -0.000000 0.055176 -0.321321 0.078747
  5 4.477083 0.000000 0.000002 0.017739 -0.228278 0.113957
  6 4.477077 -0.000004 -0.000002 -0.028133 -0.033860 0.026986
  7 5.413502 -7.700466 -0.000000 0.282524 0.080963 -0.092104
  8 6.890240 0.000002 -0.000000 0.061481 0.112584 0.068255
  9 8.011925 0.000004 0.000005 -0.222227 0.181929 0.163682
 10 7.210720 -0.000002 -0.000000 -0.178350 -0.055613 0.602370
 11 8.581028 -0.304903 -0.000000 -0.081723 0.098963 1.057015
 12 22.523008 2.194031 6.355708 0.000000 -0.046561 0.000000
 13 22.523005 2.194038 -6.355709 0.000000 -0.075562 0.000000
 14 -3.006533 7.804720 -11.355459 0.291613 -0.148444 1.243858
 15 10.384675 0.000008 0.000005 0.109536 0.174112 -1.213392
 16 22.550743 -0.000006 -0.000004 0.111799 0.013651 1.304104
 17 30.814247 -0.000015 -0.000004 2.816627 0.377025 0.495491
 18 -3.013796 7.815494 11.355459 0.166496 -0.479457 1.088268
 19 10.374533 -0.000002 0.000007 -0.172666 -0.125721 -0.762664
 20 22.550726 -0.000027 -0.000013 -0.103070 -0.010012 0.826100
 21 30.814270 -0.000023 0.000002 -2.647872 0.166086 0.823846
 22 -4.250660 -0.770624 0.000001 0.004255 -0.163172 -2.701960
 23 10.363422 0.000000 0.000000 0.045517 0.046313 0.261879
 24 10.363076 0.000000 -0.000000 0.039405 0.090049 0.367583
 25 10.363081 -0.000004 -0.000002 0.007636 0.131059 0.332859
 26 8.210358 -0.000006 -7.703991 0.000000 0.000000 -0.000000
 27 8.210346 -0.000002 7.704017 0.000000 0.000000 -0.000000
 28 1.854841 1.227791 -13.762345 2.202380 0.166222 1.583467
 29 10.456543 -0.000004 0.000004 -0.032841 0.064432 -2.323689
 30 24.248093 0.000001 0.000007 0.061754 0.036990 1.908113
 31 26.336971 0.000019 0.000002 0.098795 0.270123 0.109950
 32 1.854847 1.227798 13.762341 -2.881597 0.077516 2.400540
 33 10.456542 -0.000008 0.000004 -0.068966 -0.087376 -1.175873
 34 24.248116 0.000002 -0.000004 -0.025147 -0.030190 0.884593
 35 26.336975 0.000000 0.000004 -0.601523 -0.071531 0.691790
time 6
  0 0.000000 0.000000 0.000000 0.000000 -0.000000 -1.570796
  1 0.000000 0.000000 0.000000 0.000000 -0.000000 0.000000
  2 7.117405 -24.741314 29.766026 -1.381086 -0.455583 0.911152
  3 4.222169 -0.467508 0.000000 -0.010266 -0.078082 -0.132654
  4 4.476987 -0.000002 -0.000000 0.057836 -0.310420 0.093619
  5 4.477083 0.000000 0.000002 0.023468 -0.223739 0.105775
  6 4.477077 -0.000004 -0.000002 -0.030338 -0.035984 0.015213
  7 5.413502 -7.700466 -0.000000 0.278510 0.117953 -0.202033
  8 6.890240 0.000002 -0.000000 0.065855 0.119289 0.110888
  9 8.011925 0.000004 0.000005 -0.211959 0.234776 0.293387
 10 7.210720 -0.000002 -0.000000 -0.162374 -0.064758 0.548145
 11 8.581028 -0.304903 -0.000000 -0.084433 0.080047 1.072613
 12 22.523008 2.194031 6.355708 0.000000 -0.048058 0.000000
 13 22.523005 2.194038 -6.355709 0.000000 -0.076560 0.000000
 14 -3.006533 7.804720 -11.355459 0.286187 -0.178934 1.242210
 15 10.384675 0.000008 0.000005 0.133254 0.160448 -1.057271
 16 22.550743 -0.000006 -0.000004 0.108809 0.012905 1.144903
 17 30.814247 -0.000015 -0.000004 2.812171 0.387150 0.541903
 18 -3.013796 7.815494 11.355459 0.160692 -0.510060 1.094652
 19 10.374533 -0.000002 0.000007 -0.184665 -0.110240 -0.652433
 20 22.550726 -0.000027 -0.000013 -0.101109 -0.008775 0.702646
 21 30.814270 -0.000023 0.000002 -2.661098 0.143331 0.857622
 22 -4.250660 -0.770624 0.000001 0.004578 -0.163172 -2.704008
 23 10.363422 0.000000 0.000000 0.044307 0.046720 0.242250
 24 10.363076 0.000000 -0.000000 0.037584 0.090025 0.349026
 25 10.363081 -0.000004 -0.000002 0.006491 0.130967 0.324348
 26 8.210358 -0.000006 -7.703991 0.000000 0.000000 -0.000000
 27 8.210346 -0.000002 7.704017 0.000000 0.000000 -0.000000
 28 1.854841 1.227791 -13.762345 2.182944 0.147742 1.542960
 29 10.456543 -0.000004 0.000004 -0.034378 0.062688 -2.346397
 30 24.248093 0.000001 0.000007 0.062088 0.036566 1.923446
 31 26.336971 0.000019 0.000002 0.053072 0.343782 0.016010
 32 1.854847 1.227798 13.762341 -2.898309 0.095274 2.393389
 33 10.456542 -0.000008 0.000004 -0.060013 -0.089992 -1.274795
 34 24.248116 0.000002 -0.000004 -0.027284 -0.031856 0.951208
 35 26.336975 0.000000 0.000004 -0.617518 -0.057137 0.644485
time 7
  0 0.000000 0.000000 0.000000 0.000000 -0.000000 -1.570796
  1 0.000000 0.000000 0.000000 0.000000 -0.000000 0.000000
  2 5.945494 -26.155418 30.305105 -1.389331 -0.517492 0.879709
  3 4.222169 -0.467508 0.000000 -0.013646 -0.073021 -0.116783
  4 4.476987 -0.000002 -0.000000 0.061036 -0.297547 0.110556
  5 4.477083 0.000000 0.000002 0.030023 -0.219216 0.096482
  6 4.477077 -0.000004 -0.000002 -0.032579 -0.040212 0.002085
  7 5.413502 -7.700466 -0.000000 0.247408 0.174890 -0.400299
  8 6.890240 0.000002 -0.000000 0.070769 0.126151 0.155918
  9 8.011925 0.000004 0.000005 -0.207034 0.278821 0.398926
 10 7.210720 -0.000002 -0.000000 -0.145986 -0.072827 0.493116
 11 8.581028 -0.304903 -0.000000 -0.086706 0.063282 1.084109
 12 22.523008 2.194031 6.355708 0.000000 -0.049555 0.000000
 13 22.523005 2.194038 -6.355709 0.000000 -0.076288 0.000000
 14 -3.006533 7.804720 -11.355459 0.269095 -0.218292 1.286299
 15 10.384675 0.000008 0.000005 0.117119 0.169741 -1.163573
 16 22.550743 -0.000006 -0.000004 0.110760 0.013622 1.253983
 17 30.814247 -0.000015 -0.000004 2.805925 0.391539 0.539862
 18 -3.013796 7.815494 11.355459 0.151732 -0.524148 1.117623
 19 10.374533 -0.000002 0.000007 -0.194035 -0.095289 -0.553859
 20 22.550726 -0.000027 -0.000013 -0.099863 -0.007656 0.602952
 21 30.814270 -0.000023 0.000002 -2.677094 0.123684 0.886406
 22 -4.250660 -0.770624 0.000001 0.004962 -0.163172 -2.706389
 23 10.363422 0.000000 0.000000 0.042881 0.047199 0.219099
 24 10.363076 0.000000 -0.000000 0.035426 0.090001 0.327139
 25 10.363081 -0.000004 -0.000002 0.005162 0.130890 0.314334
 26 8.210358 -0.000006 -7.703991 0.000000 0.000000 -0.000000
 27 8.210346 -0.000002 7.704017 0.000000 0.000000 -0.000000
 28 1.854841 1.227791 -13.762345 2.164387 0.127339 1.501359
 29 10.456543 -0.000004 0.000004 -0.033802 0.063543 -2.336714
 30 24.248093 0.000001 0.000007 0.061532 0.036930 1.906515
 31 26.336971 0.000019 0.000002 0.008916 0.403093 -0.058932
 32 1.854847 1.227798 13.762341 -2.914718 0.112184 2.386970
 33 10.456542 -0.000008 0.000004 -0.053976 -0.091439 -1.339114
 34 24.248116 0.000002 -0.000004 -0.028891 -0.032922 1.000051
 35 26.336975 0.000000 0.000004 -0.627038 -0.037128 0.605941
time 8
  0 0.000000 0.000000 0.000000 0.000000 -0.000000 -1.570796
  1 0.000000 0.000000 0.000000 0.000000 -0.000000 0.000000
  2 4.636860 -27.159355 30.906685 -1.395849 -0.577286 0.851141
  3 4.222169 -0.467508 0.000000 -0.017085 -0.067181 -0.099257
  4 4.476987 -0.000002 -0.000000 0.064775 -0.282983 0.129091
  5 4.477083 0.000000 0.000002 0.037322 -0.215097 0.086329
  6 4.477077 -0.000004 -0.000002 -0.034725 -0.046451 -0.012055
  7 5.413502 -7.700466 -0.000000 0.193897 0.231182 -0.618945
  8 6.890240 0.000002 -0.000000 0.075443 0.132019 0.196224
  9 8.011925 0.000004 0.000005 -0.199569 0.317817 0.493149
 10 7.210720 -0.000002 -0.000000 -0.129130 -0.079818 0.436988
 11 8.581028 -0.304903 -0.000000 -0.088153 0.049761 1.089822
 12 22.523008 2.194031 6.355708 0.000000 -0.051022 0.000000
 13 22.523005 2.194038 -6.355709 0.000000 -0.073959 0.000000
 14 -3.006533 7.804720 -11.355459 0.250213 -0.254753 1.340070
 15 10.384675 0.000008 0.000005 0.066508 0.187542 -1.472705
 16 22.550743 -0.000006 -0.000004 0.117205 0.014397 1.564759
 17 30.814247 -0.000015 -0.000004 2.789808 0.390849 0.506199
 18 -3.013796 7.815494 11.355459 0.141753 -0.536255 1.143444
 19 10.374533 -0.000002 0.000007 -0.200439 -0.083263 -0.478130
 20 22.550726 -0.000027 -0.000013 -0.098944 -0.006616 0.515666
 21 30.814270 -0.000023 0.000002 -2.696249 0.107854 0.908663
 22 -4.250660 -0.770624 0.000001 0.005405 -0.163156 -2.709104
 23 10.363422 0.000000 0.000000 0.041275 0.047787 0.192758
 24 10.363076 0.000000 -0.000000 0.032970 0.090025 0.302233
 25 10.363081 -0.000004 -0.000002 0.003647 0.130828 0.302924
 26 8.210358 -0.000006 -7.703991 0.000000 0.000000 -0.000000
 27 8.210346 -0.000002 7.704017 0.000000 0.000000 -0.000000
 28 1.854841 1.227791 -13.762345 2.144379 0.121467 1.478612
 29 10.456543 -0.000004 0.000004 -0.032649 0.064948 -2.318696
 30 24.248093 0.000001 0.000007 0.060642 0.037353 1.879815
 31 26.336971 0.000019 0.000002 -0.031499 0.458514 -0.108028
 32 1.854847 1.227798 13.762341 -2.930925 0.128354 2.381369
 33 10.456542 -0.000008 0.000004 -0.048143 -0.092525 -1.399846
 34 24.248116 0.000002 -0.000004 -0.030355 -0.033857 1.048184
 35 26.336975 0.000000 0.000004 -0.627724 -0.008743 0.578248
time 9
  0 0.000000 0.000000 0.000000 0.000000 -0.000000 -1.570796
  1 0.000000 0.000000 0.000000 0.000000 -0.000000 0.000000
  2 3.238380 -27.690622 31.551237 -1.401697 -0.623120 0.841075
  3 4.222169 -0.467508 0.000000 -0.020405 -0.060730 -0.080719
  4 4.476987 -0.000002 -0.000000 0.068970 -0.267177 0.148536
  5 4.477083 0.000000 0.000002 0.045076 -0.211381 0.075658
  6 4.477077 -0.000004 -0.000002 -0.036654 -0.054212 -0.026818
  7 5.413502 -7.700466 -0.000000 0.142578 0.259404 -0.735876
  8 6.890240 0.000002 -0.000000 0.076258 0.132607 0.202461
  9 8.011925 0.000004 0.000005 -0.192379 0.329351 0.529540
 10 7.210720 -0.000002 -0.000000 -0.111973 -0.085697 0.380483
 11 8.581028 -0.304903 -0.000000 -0.088337 0.040406 1.088385
 12 22.523008 2.194031 6.355708 0.000000 -0.051480 0.000000
 13 22.523005 2.194038 -6.355709 0.000000 -0.069512 0.000000
 14 -3.006533 7.804720 -11.355459 0.247826 -0.267013 1.415404
 15 10.384675 0.000008 0.000005 0.026953 0.191339 -1.698196
 16 22.550743 -0.000006 -0.000004 0.122242 0.013966 1.789335
 17 30.814247 -0.000015 -0.000004 2.759276 0.387652 0.460145
 18 -3.013796 7.815494 11.355459 0.135694 -0.543878 1.162767
 19 10.374533 -0.000002 0.000007 -0.206169 -0.070539 -0.399675
 20 22.550726 -0.000027 -0.000013 -0.098556 -0.005870 0.446743
 21 30.814270 -0.000023 0.000002 -2.718489 0.094739 0.929108
 22 -4.250660 -0.770624 0.000001 0.005884 -0.163156 -2.712074
 23 10.363422 0.000000 0.000000 0.039537 0.048494 0.163842
 24 10.363076 0.000000 -0.000000 0.030309 0.090145 0.274875
 25 10.363081 -0.000004 -0.000002 0.001997 0.130751 0.290413
 26 8.210358 -0.000006 -7.703991 0.000000 0.000000 -0.000000
 27 8.210346 -0.000002 7.704017 0.000000 0.000000 -0.000000
 28 1.854841 1.227791 -13.762345 2.115269 0.194990 1.549407
 29 10.456543 -0.000004 0.000004 -0.029277 0.068205 -2.269718
 30 24.248093 0.000001 0.000007 0.057825 0.037858 1.801847
 31 26.336971 0.000019 0.000002 -0.024799 0.511755 -0.001386
 32 1.854847 1.227798 13.762341 -2.946996 0.143869 2.377750
 33 10.456542 -0.000008 0.000004 -0.042242 -0.093192 -1.459830
 34 24.248116 0.000002 -0.000004 -0.031754 -0.034636 1.093879
 35 26.336975 0.000000 0.000004 -0.625752 0.017439 0.547559
time 10
  0 0.000000 0.000000 0.000000 0.000000 -0.000000 -1.570796
  1 0.000000 0.000000 0.000000 0.000000 -0.000000 0.000000
  2 1.796930 -27.764843 32.215321 -1.406873 -0.662810 0.840117
  3 4.222169 -0.467508 0.000000 -0.023497 -0.053760 -0.061552
  4 4.476987 -0.000002 -0.000000 0.073584 -0.250428 0.168469
  5 4.477083 0.000000 0.000002 0.053081 -0.207860 0.064645
  6 4.477077 -0.000004 -0.000002 -0.038284 -0.063139 -0.041924
  7 5.413502 -7.700466 -0.000000 0.105349 0.255836 -0.740699
  8 6.890240 0.000002 -0.000000 0.075719 0.130503 0.195549
  9 8.011925 0.000004 0.000005 -0.184285 0.312321 0.530215
 10 7.210720 -0.000002 -0.000000 -0.094707 -0.090270 0.320198
 11 8.581028 -0.304903 -0.000000 -0.087533 0.034191 1.081445
 12 22.523008 2.194031 6.355708 0.000000 -0.061959 0.000000
 13 22.523005 2.194038 -6.355709 0.000000 -0.054993 0.000000
 14 -3.006533 7.804720 -11.355459 0.272297 -0.258993 1.523496
 15 10.384675 0.000008 0.000005 0.016718 0.191530 -1.755401
 16 22.550743 -0.000006 -0.000004 0.123442 0.013565 1.852411
 17 30.814247 -0.000015 -0.000004 2.675324 0.374956 0.378172
 18 -3.013796 7.815494 11.355459 0.121337 -0.536965 1.203180
 19 10.374533 -0.000002 0.000007 -0.205090 -0.073828 -0.418869
 20 22.550726 -0.000027 -0.000013 -0.098740 -0.006145 0.462190
 21 30.814270 -0.000023 0.000002 -2.734135 0.088770 0.909556
 22 -4.250660 -0.770624 0.000001 0.006412 -0.163140 -2.715300
 23 10.363422 0.000000 0.000000 0.037716 0.049345 0.132549
 24 10.363076 0.000000 -0.000000 0.027445 0.090385 0.245271
 25 10.363081 -0.000004 -0.000002 0.000200 0.130674 0.276828
 26 8.210358 -0.000006 -7.703991 0.000000 0.000000 -0.000000
 27 8.210346 -0.000002 7.704017 0.000000 0.000000 -0.000000
 28 1.854841 1.227791 -13.762345 2.099131 0.278924 1.632731
 29 10.456543 -0.000004 0.000004 -0.022132 0.074718 -2.169811
 30 24.248093 0.000001 0.000007 0.052338 0.038645 1.655502
 31 26.336971 0.000019 0.000002 -0.001786 0.546705 0.154572
 32 1.854847 1.227798 13.762341 -2.960535 0.155990 2.363921
 33 10.456542 -0.000008 0.000004 -0.035459 -0.093471 -1.528996
 34 24.248116 0.000002 -0.000004 -0.033438 -0.035451 1.144550
 35 26.336975 0.000000 0.000004 -0.626952 0.031430 0.499916
time 11
  0 0.000000 0.000000 0.000000 0.000000 -0.000000 -1.570796
  1 0.000000 0.000000 0.000000 0.000000 -0.000000 0.000000
  2 0.351573 -27.421083 32.879402 -1.411570 -0.699469 0.843376
  3 4.222169 -0.467508 0.000000 -0.026217 -0.046382 -0.042247
  4 4.476987 -0.000002 -0.000000 0.078486 -0.233015 0.188336
  5 4.477083 0.000000 0.000002 0.061099 -0.204339 0.053484
  6 4.477077 -0.000004 -0.000002 -0.039554 -0.072798 -0.057061
  7 5.413502 -7.700466 -0.000000 0.070445 0.242956 -0.719634
  8 6.890240 0.000002 -0.000000 0.074424 0.126125 0.181586
  9 8.011925 0.000004 0.000005 -0.175707 0.290659 0.526036
 10 7.210720 -0.000002 -0.000000 -0.077687 -0.092759 0.247899
 11 8.581028 -0.304903 -0.000000 -0.086385 0.028746 1.072858
 12 22.523008 2.194031 6.355708 0.000000 -0.109345 0.000000
 13 22.523005 2.194038 -6.355709 0.000000 -0.006443 0.000000
 14 -3.006533 7.804720 -11.355459 0.306969 -0.244931 1.635845
 15 10.384675 0.000008 0.000005 0.023554 0.191764 -1.717801
 16 22.550743 -0.000006 -0.000004 0.122578 0.013421 1.810582
 17 30.814247 -0.000015 -0.000004 2.580060 0.352825 0.288320
 18 -3.013796 7.815494 11.355459 0.040946 -0.531173 1.366999
 19 10.374533 -0.000002 0.000007 -0.164981 -0.134691 -0.829289
 20 22.550726 -0.000027 -0.000013 -0.104296 -0.011092 0.902530
 21 30.814270 -0.000023 0.000002 -2.719296 0.103230 0.762875
 22 -4.250660 -0.770624 0.000001 0.006975 -0.163140 -2.718731
 23 10.363422 0.000000 0.000000 0.035810 0.050291 0.099254
 24 10.363076 0.000000 -0.000000 0.024437 0.090720 0.213783
 25 10.363081 -0.000004 -0.000002 -0.001708 0.130582 0.262385
 26 8.210358 -0.000006 -7.703991 0.000000 0.000000 -0.000000
 27 8.210346 -0.000002 7.704017 0.000000 0.000000 -0.000000
 28 1.854841 1.227791 -13.762345 2.123536 0.341344 1.703830
 29 10.456543 -0.000004 0.000004 -0.008784 0.083312 -2.004817
 30 24.248093 0.000001 0.000007 0.046147 0.038645 1.492521
 31 26.336971 0.000019 0.000002 -0.009051 0.556849 0.217420
 32 1.854847 1.227798 13.762341 -2.961480 0.154567 2.301109
 33 10.456542 -0.000008 0.000004 -0.025692 -0.093081 -1.632095
 34 24.248116 0.000002 -0.000004 -0.036080 -0.036686 1.218730
 35 26.336975 0.000000 0.000004 -0.633299 0.026156 0.427348
time 12
  0 0.000000 0.000000 0.000000 0.000000 -0.000000 -1.570796
  1 0.000000 0.000000 0.000000 0.000000 -0.000000 0.000000
  2 -1.046907 -26.710123 33.523952 -1.415309 -0.728468 0.861303
  3 4.222169 -0.467508 0.000000 -0.028471 -0.038744 -0.023294
  4 4.476987 -0.000002 -0.000000 0.083591 -0.215238 0.207669
  5 4.477083 0.000000 0.000002 0.068889 -0.200672 0.042428
  6 4.477077 -0.000004 -0.000002 -0.040381 -0.082777 -0.071933
  7 5.413502 -7.700466 -0.000000 0.034731 0.226951 -0.695177
  8 6.890240 0.000002 -0.000000 0.072123 0.118792 0.158990
  9 8.011925 0.000004 0.000005 -0.167181 0.263340 0.520637
 10 7.210720 -0.000002 -0.000000 -0.060420 -0.093483 0.171094
 11 8.581028 -0.304903 -0.000000 -0.085030 0.024102 1.062939
 12 22.523008 2.194031 6.355708 0.000000 -0.165836 0.000000
 13 22.523005 2.194038 -6.355709 0.000000 0.070662 0.000000
 14 -3.006533 7.804720 -11.355459 0.355694 -0.210520 1.725807
 15 10.384675 0.000008 0.000005 0.041109 0.191149 -1.618219
 16 22.550743 -0.000006 -0.000004 0.120227 0.013794 1.709311
 17 30.814247 -0.000015 -0.000004 2.493270 0.324423 0.213115
 18 -3.013796 7.815494 11.355459 -0.038580 -0.503970 1.544099
 19 10.374533 -0.000002 0.000007 -0.108963 -0.173628 -1.214717
 20 22.550726 -0.000027 -0.000013 -0.111507 -0.013565 1.308811
 21 30.814270 -0.000023 0.000002 -2.707159 0.121433 0.613406
 22 -4.250660 -0.770624 0.000001 0.007562 -0.163124 -2.722367
 23 10.363422 0.000000 0.000000 0.033821 0.051334 0.064242
 24 10.363076 0.000000 -0.000000 0.021285 0.091116 0.180643
 25 10.363081 -0.000004 -0.000002 -0.003703 0.130474 0.247162
 26 8.210358 -0.000006 -7.703991 0.000000 0.000000 -0.000000
 27 8.210346 -0.000002 7.704017 0.000000 0.000000 -0.000000
 28 1.854841 1.227791 -13.762345 2.172742 0.397079 1.780829
 29 10.456543 -0.000004 0.000004 0.008196 0.089825 -1.817116
 30 24.248093 0.000001 0.000007 0.040772 0.037878 1.349372
 31 26.336971 0.000019 0.000002 -0.016185 0.557401 0.241830
 32 1.854847 1.227798 13.762341 -2.948819 0.144060 2.207450
 33 10.456542 -0.000008 0.000004 -0.015179 -0.091606 -1.743431
 34 24.248116 0.000002 -0.000004 -0.039073 -0.037656 1.299458
 35 26.336975 0.000000 0.000004 -0.637759 0.005402 0.339747
time 13
  0 0.000000 0.000000 0.000000 0.000000 -0.000000 -1.570796
  1 0.000000 0.000000 0.000000 0.000000 -0.000000 0.000000
  2 -2.355541 -25.674936 34.125534 -1.417514 -0.744105 0.907989
  3 4.222169 -0.467508 0.000000 -0.030148 -0.030977 -0.005093
  4 4.476987 -0.000002 -0.000000 0.088733 -0.197397 0.225938
  5 4.477083 0.000000 0.000002 0.076224 -0.196698 0.031652
  6 4.477077 -0.000004 -0.000002 -0.040741 -0.092718 -0.086245
  7 5.413502 -7.700466 -0.000000 -0.001715 0.207496 -0.664685
  8 6.890240 0.000002 -0.000000 0.069151 0.108977 0.130389
  9 8.011925 0.000004 0.000005 -0.158445 0.217235 0.509761
 10 7.210720 -0.000002 -0.000000 -0.043071 -0.092848 0.094102
 11 8.581028 -0.304903 -0.000000 -0.082733 0.020534 1.046781
 12 22.523008 2.194031 6.355708 0.000000 -0.229506 0.000000
 13 22.523005 2.194038 -6.355709 0.000000 0.165493 0.000000
 14 -3.006533 7.804720 -11.355459 0.420046 -0.144487 1.772574
 15 10.384675 0.000008 0.000005 0.059822 0.188836 -1.510805
 16 22.550743 -0.000006 -0.000004 0.117684 0.014081 1.603076
 17 30.814247 -0.000015 -0.000004 2.429673 0.292574 0.183606
 18 -3.013796 7.815494 11.355459 -0.050901 -0.435961 1.652913
 19 10.374533 -0.000002 0.000007 -0.088606 -0.181502 -1.338922
 20 22.550726 -0.000027 -0.000013 -0.114244 -0.013781 1.443370
 21 30.814270 -0.000023 0.000002 -2.725541 0.122363 0.509260
 22 -4.250660 -0.770624 0.000001 0.008173 -0.163108 -2.726131
 23 10.363422 0.000000 0.000000 0.031747 0.052437 0.027756
 24 10.363076 0.000000 -0.000000 0.018001 0.091559 0.146135
 25 10.363081 -0.000004 -0.000002 -0.005784 0.130335 0.231322
 26 8.210358 -0.000006 -7.703991 0.000000 0.000000 -0.000000
 27 8.210346 -0.000002 7.704017 0.000000 0.000000 -0.000000
 28 1.854841 1.227791 -13.762345 2.213373 0.416397 1.829850
 29 10.456543 -0.000004 0.000004 0.017927 0.092049 -1.715949
 30 24.248093 0.000001 0.000007 0.038139 0.037454 1.278212
 31 26.336971 0.000019 0.000002 0.004566 0.546442 0.242327
 32 1.854847 1.227798 13.762341 -2.930114 0.133745 2.110690
 33 10.456542 -0.000008 0.000004 -0.005039 -0.089018 -1.851693
 34 24.248116 0.000002 -0.000004 -0.041936 -0.038232 1.376024
 35 26.336975 0.000000 0.000004 -0.629611 -0.021866 0.252033
time 14
  0 0.000000 0.000000 0.000000 0.000000 -0.000000 -1.570796
  1 0.000000 0.000000 0.000000 0.000000 -0.000000 0.000000
  2 -3.546983 -24.276455 34.676331 -1.419047 -0.748533 0.979120
  3 4.222169 -0.467508 0.000000 -0.031167 -0.023191 0.011820
  4 4.476987 -0.000002 -0.000000 0.093718 -0.179792 0.242653
  5 4.477083 0.000000 0.000002 0.082827 -0.192272 0.021410
  6 4.477077 -0.000004 -0.000002 -0.040597 -0.102152 -0.099700
  7 5.413502 -7.700466 -0.000000 -0.038107 0.185951 -0.629618
  8 6.890240 0.000002 -0.000000 0.066059 0.097776 0.100509
  9 8.011925 0.000004 0.000005 -0.149094 0.164564 0.496679
 10 7.210720 -0.000002 -0.000000 -0.026051 -0.091064 0.017967
 11 8.581028 -0.304903 -0.000000 -0.078279 0.018332 1.017164
 12 22.523008 2.194031 6.355708 0.000000 -0.314715 0.000000
 13 22.523005 2.194038 -6.355709 0.000000 0.274299 0.000000
 14 -3.006533 7.804720 -11.355459 0.498017 -0.046976 1.788643
 15 10.384675 0.000008 0.000005 0.070467 0.186757 -1.448213
 16 22.550743 -0.000006 -0.000004 0.116357 0.014081 1.540909
 17 30.814247 -0.000015 -0.000004 2.391672 0.259439 0.193526
 18 -3.013796 7.815494 11.355459 -0.013175 -0.331931 1.729350
 19 10.374533 -0.000002 0.000007 -0.082539 -0.183396 -1.376612
 20 22.550726 -0.000027 -0.000013 -0.114898 -0.013899 1.478048
 21 30.814270 -0.000023 0.000002 -2.753675 0.115390 0.414122
 22 -4.250660 -0.770624 0.000001 0.008797 -0.163092 -2.729998
 23 10.363422 0.000000 0.000000 0.029602 0.053575 -0.009808
 24 10.363076 0.000000 -0.000000 0.014621 0.092014 0.110569
 25 10.363081 -0.000004 -0.000002 -0.007938 0.130181 0.214999
 26 8.210358 -0.000006 -7.703991 0.000000 0.000000 -0.000000
 27 8.210346 -0.000002 7.704017 0.000000 0.000000 -0.000000
 28 1.854841 1.227791 -13.762345 2.256116 0.425254 1.880331
 29 10.456543 -0.000004 0.000004 0.021037 0.092583 -1.682082
 30 24.248093 0.000001 0.000007 0.037435 0.037273 1.254650
 31 26.336971 0.000019 0.000002 0.047808 0.523291 0.249119
 32 1.854847 1.227798 13.762341 -2.906142 0.124770 2.012594
 33 10.456542 -0.000008 0.000004 0.004423 -0.085345 -1.955186
 34 24.248116 0.000002 -0.000004 -0.044436 -0.038531 1.445735
 35 26.336975 0.000000 0.000004 -0.592474 -0.051057 0.170028
time 15
  0 0.000000 0.000000 0.000000 0.000000 -0.000000 -1.570796
  1 0.000000 0.000000 0.000000 0.000000 -0.000000 0.000000
  2 -4.617329 -22.370148 35.168533 -1.418952 -0.733614 1.087927
  3 4.222169 -0.467508 0.000000 -0.031431 -0.015609 0.026924
  4 4.476987 -0.000002 -0.000000 0.098332 -0.162743 0.257192
  5 4.477083 0.000000 0.000002 0.088448 -0.187264 0.011969
  6 4.477077 -0.000004 -0.000002 -0.039962 -0.110646 -0.111878
  7 5.413502 -7.700466 -0.000000 -0.073250 0.163727 -0.592124
  8 6.890240 0.000002 -0.000000 0.062883 0.085190 0.070210
  9 8.011925 0.000004 0.000005 -0.139180 0.112899 0.483467
 10 7.210720 -0.000002 -0.000000 -0.009855 -0.088434 -0.055646
 11 8.581028 -0.304903 -0.000000 -0.072813 0.016659 0.982394
 12 22.523008 2.194031 6.355708 0.000000 -0.405027 0.000000
 13 22.523005 2.194038 -6.355709 0.000000 0.391695 0.000000
 14 -3.006533 7.804720 -11.355459 0.593243 0.068943 1.812267
 15 10.384675 0.000008 0.000005 0.067964 0.187096 -1.461653
 16 22.550743 -0.000006 -0.000004 0.116853 0.013966 1.553621
 17 30.814247 -0.000015 -0.000004 2.355593 0.211634 0.206812
 18 -3.013796 7.815494 11.355459 0.057543 -0.206640 1.787490
 19 10.374533 -0.000002 0.000007 -0.074854 -0.185489 -1.422826
 20 22.550726 -0.000027 -0.000013 -0.115490 -0.014036 1.510183
 21 30.814270 -0.000023 0.000002 -2.778687 0.100245 0.322471
 22 -4.250660 -0.770624 0.000001 0.009432 -0.163076 -2.733941
 23 10.363422 0.000000 0.000000 0.027421 0.054714 -0.047967
 24 10.363076 0.000000 -0.000000 0.011182 0.092458 0.074487
 25 10.363081 -0.000004 -0.000002 -0.010105 0.130012 0.198461
 26 8.210358 -0.000006 -7.703991 0.000000 0.000000 -0.000000
 27 8.210346 -0.000002 7.704017 0.000000 0.000000 -0.000000
 28 1.854841 1.227791 -13.762345 2.335268 0.454022 1.996438
 29 10.456543 -0.000004 0.000004 0.028759 0.093526 -1.600801
 30 24.248093 0.000001 0.000007 0.035507 0.036324 1.196041
 31 26.336971 0.000019 0.000002 0.130857 0.469998 0.317268
 32 1.854847 1.227798 13.762341 -2.878153 0.118313 1.916997
 33 10.456542 -0.000008 0.000004 0.010223 -0.082367 -2.020569
 34 24.248116 0.000002 -0.000004 -0.045835 -0.038639 1.485947
 35 26.336975 0.000000 0.000004 -0.516186 -0.077953 0.100512
time 16
  0 0.000000 0.000000 0.000000 0.000000 -0.000000 -1.570796
  1 0.000000 0.000000 0.000000 0.000000 -0.000000 0.000000
  2 -5.566576 -19.963823 35.602142 -1.415501 -0.705732 1.214372
  3 4.222169 -0.467508 0.000000 -0.030879 -0.008342 0.039819
  4 4.476987 -0.000002 -0.000000 0.102359 -0.146508 0.269067
  5 4.477083 0.000000 0.000002 0.092846 -0.181530 0.003491
  6 4.477077 -0.000004 -0.000002 -0.038823 -0.117806 -0.122561
  7 5.413502 -7.700466 -0.000000 -0.107581 0.140755 -0.552079
  8 6.890240 0.000002 -0.000000 0.059635 0.071074 0.040027
  9 8.011925 0.000004 0.000005 -0.128624 0.061362 0.469788
 10 7.210720 -0.000002 -0.000000 0.005298 -0.085362 -0.125827
 11 8.581028 -0.304903 -0.000000 -0.067072 0.015139 0.947379
 12 22.523008 2.194031 6.355708 0.000000 -0.490939 0.000000
 13 22.523005 2.194038 -6.355709 0.000000 0.512843 0.000000
 14 -3.006533 7.804720 -11.355459 0.725257 0.201467 1.873043
 15 10.384675 0.000008 0.000005 0.055265 0.189281 -1.535409
 16 22.550743 -0.000006 -0.000004 0.118596 0.013995 1.625170
 17 30.814247 -0.000015 -0.000004 2.306017 0.129346 0.205344
 18 -3.013796 7.815494 11.355459 0.154125 -0.073687 1.817701
 19 10.374533 -0.000002 0.000007 -0.066091 -0.187515 -1.473564
 20 22.550726 -0.000027 -0.000013 -0.116409 -0.014154 1.554106
 21 30.814270 -0.000023 0.000002 -2.801981 0.070101 0.248894
 22 -4.250660 -0.770624 0.000001 0.010079 -0.163044 -2.737910
 23 10.363422 0.000000 0.000000 0.025204 0.055852 -0.086477
 24 10.363076 0.000000 -0.000000 0.007718 0.092865 0.038069
 25 10.363081 -0.000004 -0.000002 -0.012309 0.129811 0.181762
 26 8.210358 -0.000006 -7.703991 0.000000 0.000000 -0.000000
 27 8.210346 -0.000002 7.704017 0.000000 0.000000 -0.000000
 28 1.854841 1.227791 -13.762345 2.458878 0.484763 2.183156
 29 10.456543 -0.000004 0.000004 0.044464 0.093259 -1.438196
 30 24.248093 0.000001 0.000007 0.031466 0.034347 1.078349
 31 26.336971 0.000019 0.000002 0.235396 0.381439 0.437937
 32 1.854847 1.227798 13.762341 -2.849994 0.116397 1.830662
 33 10.456542 -0.000008 0.000004 0.011206 -0.081755 -2.032432
 34 24.248116 0.000002 -0.000004 -0.046172 -0.038687 1.493969
 35 26.336975 0.000000 0.000004 -0.409750 -0.096659 0.062590
time 17
  0 0.000000 0.000000 0.000000 0.000000 -0.000000 -1.570796
  1 0.000000 0.000000 0.000000 0.000000 -0.000000 0.000000
  2 -6.332224 -17.389526 35.957619 -1.414255 -0.638557 1.355485
  3 4.222169 -0.467508 0.000000 -0.029465 -0.001502 0.050047
  4 4.476987 -0.000002 -0.000000 0.105511 -0.131216 0.277924
  5 4.477083 0.000000 0.000002 0.095783 -0.174939 -0.003787
  6 4.477077 -0.000004 -0.000002 -0.037217 -0.123237 -0.131406
  7 5.413502 -7.700466 -0.000000 -0.141222 0.117035 -0.509544
  8 6.890240 0.000002 -0.000000 0.056316 0.055390 0.010681
  9 8.011925 0.000004 0.000005 -0.117216 0.009745 0.455797
 10 7.210720 -0.000002 -0.000000 0.019243 -0.082360 -0.191502
 11 8.581028 -0.304903 -0.000000 -0.061033 0.013825 0.911593
 12 22.523008 2.194031 6.355708 0.000000 -0.573002 0.000000
 13 22.523005 2.194038 -6.355709 0.000000 0.632145 0.000000
 14 -3.006533 7.804720 -11.355459 0.878703 0.351974 1.933269
 15 10.384675 0.000008 0.000005 0.039428 0.190873 -1.627049
 16 22.550743 -0.000006 -0.000004 0.120691 0.013995 1.714154
 17 30.814247 -0.000015 -0.000004 2.261115 0.035522 0.223930
 18 -3.013796 7.815494 11.355459 0.272446 0.064608 1.800658
 19 10.374533 -0.000002 0.000007 -0.055777 -0.189309 -1.533579
 20 22.550726 -0.000027 -0.000013 -0.118084 -0.014194 1.624704
 21 30.814270 -0.000023 0.000002 -2.829133 0.038759 0.195929
 22 -4.250660 -0.770624 0.000001 0.010714 -0.163012 -2.741879
 23 10.363422 0.000000 0.000000 0.022962 0.056955 -0.125010
 24 10.363076 0.000000 -0.000000 0.004243 0.093237 0.001626
 25 10.363081 -0.000004 -0.000002 -0.014488 0.129596 0.165036
 26 8.210358 -0.000006 -7.703991 0.000000 0.000000 -0.000000
 27 8.210346 -0.000002 7.704017 0.000000 0.000000 -0.000000
 28 1.854841 1.227791 -13.762345 2.573121 0.465717 2.334417
 29 10.456543 -0.000004 0.000004 0.058440 0.090590 -1.290744
 30 24.248093 0.000001 0.000007 0.027833 0.032127 0.971136
 31 26.336971 0.000019 0.000002 0.339805 0.271752 0.543861
 32 1.854847 1.227798 13.762341 -2.821262 0.120146 1.742130
 33 10.456542 -0.000008 0.000004 0.011274 -0.081838 -2.033457
 34 24.248116 0.000002 -0.000004 -0.046431 -0.038723 1.499504
 35 26.336975 0.000000 0.000004 -0.298168 -0.114155 0.050495
time 18
  0 0.000000 0.000000 0.000000 0.000000 -0.000000 -1.570796
  1 0.000000 0.000000 0.000000 0.000000 -0.000000 0.000000
  2 -6.843959 -15.057425 36.192001 -1.412433 -0.512546 1.513182
  3 4.222169 -0.467508 0.000000 -0.027128 0.004745 0.057116
  4 4.476987 -0.000002 -0.000000 0.107405 -0.116909 0.283629
  5 4.477083 0.000000 0.000002 0.097017 -0.167379 -0.009656
  6 4.477077 -0.000004 -0.000002 -0.035144 -0.126526 -0.138087
  7 5.413502 -7.700466 -0.000000 -0.170317 0.093010 -0.465890
  8 6.890240 0.000002 -0.000000 0.052900 0.038033 -0.017105
  9 8.011925 0.000004 0.000005 -0.106687 -0.038900 0.439756
 10 7.210720 -0.000002 -0.000000 0.031514 -0.079695 -0.250152
 11 8.581028 -0.304903 -0.000000 -0.054649 0.012732 0.875036
 12 22.523008 2.194031 6.355708 0.000000 -0.650970 0.000000
 13 22.523005 2.194038 -6.355709 0.000000 0.744067 0.000000
 14 -3.006533 7.804720 -11.355459 1.011314 0.565934 1.906281
 15 10.384675 0.000008 0.000005 0.027924 0.191170 -1.693863
 16 22.550743 -0.000006 -0.000004 0.122146 0.013880 1.778379
 17 30.814247 -0.000015 -0.000004 2.251200 -0.032378 0.326209
 18 -3.013796 7.815494 11.355459 0.398353 0.211984 1.714359
 19 10.374533 -0.000002 0.000007 -0.043845 -0.190638 -1.603509
 20 22.550726 -0.000027 -0.000013 -0.119820 -0.014095 1.697536
 21 30.814270 -0.000023 0.000002 -2.857092 0.010181 0.169209
 22 -4.250660 -0.770624 0.000001 0.011361 -0.162996 -2.745822
 23 10.363422 0.000000 0.000000 0.020733 0.058022 -0.163168
 24 10.363076 0.000000 -0.000000 0.000791 0.093549 -0.034430
 25 10.363081 -0.000004 -0.000002 -0.016667 0.129349 0.148498
 26 8.210358 -0.000006 -7.703991 0.000000 0.000000 -0.000000
 27 8.210346 -0.000002 7.704017 0.000000 0.000000 -0.000000
 28 1.854841 1.227791 -13.762345 2.613885 0.388666 2.331011
 29 10.456543 -0.000004 0.000004 0.060222 0.089736 -1.271466
 30 24.248093 0.000001 0.000007 0.027352 0.031704 0.960953
 31 26.336971 0.000019 0.000002 0.458048 0.146404 0.596216
 32 1.854847 1.227798 13.762341 -2.775952 0.131912 1.599704
 33 10.456542 -0.000008 0.000004 0.011783 -0.081643 -2.039447
 34 24.248116 0.000002 -0.000004 -0.046703 -0.038771 1.505799
 35 26.336975 0.000000 0.000004 -0.205626 -0.138165 0.041622
time 19
  0 0.000000 0.000000 0.000000 0.000000 -0.000000 -1.570796
  1 0.000000 0.000000 0.000000 0.000000 -0.000000 0.000000
  2 -7.050996 -13.209711 36.277946 -1.408119 -0.365951 1.669825
  3 4.222169 -0.467508 0.000000 -0.024312 0.009695 0.061133
  4 4.476987 -0.000002 -0.000000 0.107596 -0.103458 0.286270
  5 4.477083 0.000000 0.000002 0.096322 -0.158673 -0.013939
  6 4.477077 -0.000004 -0.000002 -0.032639 -0.127315 -0.142526
  7 5.413502 -7.700466 -0.000000 -0.192448 0.068882 -0.422422
  8 6.890240 0.000002 -0.000000 0.049005 0.018154 -0.042051
  9 8.011925 0.000004 0.000005 -0.099169 -0.081411 0.419510
 10 7.210720 -0.000002 -0.000000 0.041122 -0.077135 -0.296412
 11 8.581028 -0.304903 -0.000000 -0.047944 0.011844 0.837532
 12 22.523008 2.194031 6.355708 0.000000 -0.724448 0.000000
 13 22.523005 2.194038 -6.355709 0.000000 0.843708 0.000000
 14 -3.006533 7.804720 -11.355459 1.077294 0.830947 1.790154
 15 10.384675 0.000008 0.000005 0.032705 0.191276 -1.667871
 16 22.550743 -0.000006 -0.000004 0.121379 0.013966 1.753016
 17 30.814247 -0.000015 -0.000004 2.286668 -0.063663 0.501615
 18 -3.013796 7.815494 11.355459 0.498651 0.355847 1.581206
 19 10.374533 -0.000002 0.000007 -0.032790 -0.191303 -1.668452
 20 22.550726 -0.000027 -0.000013 -0.120985 -0.013997 1.748220
 21 30.814270 -0.000023 0.000002 -2.873054 -0.020599 0.172890
 22 -4.250660 -0.770624 0.000001 0.011985 -0.162964 -2.749689
 23 10.363422 0.000000 0.000000 0.018516 0.059040 -0.200755
 24 10.363076 0.000000 -0.000000 -0.002601 0.093812 -0.069996
 25 10.363081 -0.000004 -0.000002 -0.018797 0.129087 0.132175
 26 8.210358 -0.000006 -7.703991 0.000000 0.000000 -0.000000
 27 8.210346 -0.000002 7.704017 0.000000 0.000000 -0.000000
 28 1.854841 1.227791 -13.762345 2.608124 0.282008 2.207059
 29 10.456543 -0.000004 0.000004 0.050876 0.091694 -1.370592
 30 24.248093 0.000001 0.000007 0.029761 0.033358 1.040578
 31 26.336971 0.000019 0.000002 0.576856 0.024261 0.609470
 32 1.854847 1.227798 13.762341 -2.714266 0.151339 1.424321
 33 10.456542 -0.000008 0.000004 0.012461 -0.081365 -2.047724
 34 24.248116 0.000002 -0.000004 -0.046962 -0.038831 1.512603
 35 26.336975 0.000000 0.000004 -0.138257 -0.167295 0.029188
time 20
  0 0.000000 0.000000 0.000000 0.000000 -0.000000 -1.570796
  1 0.000000 0.000000 0.000000 0.000000 -0.000000 0.000000
  2 -6.984588 -11.869827 36.192001 -1.408215 -0.245843 1.800968
  3 4.222169 -0.467508 0.000000 -0.021496 0.012902 0.062559
  4 4.476987 -0.000002 -0.000000 0.105667 -0.090864 0.285782
  5 4.477083 0.000000 0.000002 0.093458 -0.148722 -0.016370
  6 4.477077 -0.000004 -0.000002 -0.029811 -0.125379 -0.145188
  7 5.413502 -7.700466 -0.000000 -0.209328 0.044874 -0.379545
  8 6.890240 0.000002 -0.000000 0.044607 -0.004378 -0.063624
  9 8.011925 0.000004 0.000005 -0.093459 -0.115950 0.396772
 10 7.210720 -0.000002 -0.000000 0.048369 -0.074451 -0.330872
 11 8.581028 -0.304903 -0.000000 -0.040963 0.011196 0.799293
 12 22.523008 2.194031 6.355708 0.000000 -0.781121 0.000000
 13 22.523005 2.194038 -6.355709 0.000000 0.924321 0.000000
 14 -3.006533 7.804720 -11.355459 1.046746 1.040420 1.637082
 15 10.384675 0.000008 0.000005 0.057842 0.189175 -1.522969
 16 22.550743 -0.000006 -0.000004 0.118132 0.014139 1.613730
 17 30.814247 -0.000015 -0.000004 2.350876 -0.078146 0.656179
 18 -3.013796 7.815494 11.355459 0.550277 0.459952 1.458314
 19 10.374533 -0.000002 0.000007 -0.025308 -0.191402 -1.709332
 20 22.550726 -0.000027 -0.000013 -0.121904 -0.013879 1.790840
 21 30.814270 -0.000023 0.000002 -2.880315 -0.047268 0.184409
 22 -4.250660 -0.770624 0.000001 0.012596 -0.162932 -2.753453
 23 10.363422 0.000000 0.000000 0.016347 0.059987 -0.237241
 24 10.363076 0.000000 -0.000000 -0.005896 0.094004 -0.104504
 25 10.363081 -0.000004 -0.000002 -0.020866 0.128825 0.116362
 26 8.210358 -0.000006 -7.703991 0.000000 0.000000 -0.000000
 27 8.210346 -0.000002 7.704017 0.000000 0.000000 -0.000000
 28 1.854841 1.227791 -13.762345 2.603331 0.178533 2.063644
 29 10.456543 -0.000004 0.000004 0.037109 0.093295 -1.515004
 30 24.248093 0.000001 0.000007 0.033098 0.035315 1.141694
 31 26.336971 0.000019 0.000002 0.674348 -0.060487 0.593123
 32 1.854847 1.227798 13.762341 -2.649542 0.171860 1.275432
 33 10.456542 -0.000008 0.000004 0.013275 -0.081003 -2.057419
 34 24.248116 0.000002 -0.000004 -0.047221 -0.038903 1.520016
 35 26.336975 0.000000 0.000004 -0.096103 -0.196920 0.015794
time 21
  0 0.000000 0.000000 0.000000 0.000000 -0.000000 -1.570796
  1 0.000000 0.000000 0.000000 0.000000 -0.000000 0.000000
  2 -6.734581 -10.897141 35.953712 -1.410995 -0.157726 1.891368
  3 4.222169 -0.467508 0.000000 -0.018751 0.014552 0.061823
  4 4.476987 -0.000002 -0.000000 0.101185 -0.079127 0.282186
  5 4.477083 0.000000 0.000002 0.087873 -0.135670 -0.019023
  6 4.477077 -0.000004 -0.000002 -0.026791 -0.120569 -0.146824
  7 5.413502 -7.700466 -0.000000 -0.225796 0.020984 -0.337322
  8 6.890240 0.000002 -0.000000 0.041790 -0.027238 -0.083102
  9 8.011925 0.000004 0.000005 -0.089111 -0.138124 0.372684
 10 7.210720 -0.000002 -0.000000 0.056055 -0.073074 -0.361658
 11 8.581028 -0.304903 -0.000000 -0.035796 0.009932 0.761369
 12 22.523008 2.194031 6.355708 0.000000 -0.818914 0.000000
 13 22.523005 2.194038 -6.355709 0.000000 0.976804 0.000000
 14 -3.006533 7.804720 -11.355459 0.880006 1.151993 1.409704
 15 10.384675 0.000008 0.000005 0.097509 0.178546 -1.286426
 16 22.550743 -0.000006 -0.000004 0.113270 0.013966 1.378741
 17 30.814247 -0.000015 -0.000004 2.429061 -0.082221 0.758242
 18 -3.013796 7.815494 11.355459 0.558474 0.509875 1.356397
 19 10.374533 -0.000002 0.000007 -0.019376 -0.191303 -1.740006
 20 22.550726 -0.000027 -0.000013 -0.122823 -0.013722 1.833149
 21 30.814270 -0.000023 0.000002 -2.883753 -0.065276 0.192303
 22 -4.250660 -0.770624 0.000001 0.013183 -0.162900 -2.757089
 23 10.363422 0.000000 0.000000 0.014250 0.060862 -0.272186
 24 10.363076 0.000000 -0.000000 -0.009060 0.094148 -0.137566
 25 10.363081 -0.000004 -0.000002 -0.022848 0.128548 0.101167
 26 8.210358 -0.000006 -7.703991 0.000000 0.000000 -0.000000
 27 8.210346 -0.000002 7.704017 0.000000 0.000000 -0.000000
 28 1.854841 1.227791 -13.762345 2.600517 0.104517 1.941456
 29 10.456543 -0.000004 0.000004 0.024286 0.093010 -1.647737
 30 24.248093 0.000001 0.000007 0.036249 0.036809 1.230378
 31 26.336971 0.000019 0.000002 0.736819 -0.107868 0.571861
 32 1.854847 1.227798 13.762341 -2.590018 0.189126 1.168332
 33 10.456542 -0.000008 0.000004 0.014157 -0.080586 -2.067705
 34 24.248116 0.000002 -0.000004 -0.047467 -0.038975 1.528139
 35 26.336975 0.000000 0.000004 -0.076891 -0.221924 0.006921
time 22
  0 0.000000 0.000000 0.000000 0.000000 -0.000000 -1.570796
  1 0.000000 0.000000 0.000000 0.000000 -0.000000 0.000000
  2 -6.351756 -10.193995 35.590424 -1.417801 -0.097294 1.939588
  3 4.222169 -0.467508 0.000000 -0.016102 0.014941 0.059339
  4 4.476987 -0.000002 -0.000000 0.093994 -0.068226 0.275638
  5 4.477083 0.000000 0.000002 0.079639 -0.118790 -0.023292
  6 4.477077 -0.000004 -0.000002 -0.023687 -0.112638 -0.148179
  7 5.413502 -7.700466 -0.000000 -0.219536 -0.000374 -0.296437
  8 6.890240 0.000002 -0.000000 0.025971 -0.063833 -0.097786
  9 8.011925 0.000004 0.000005 -0.094402 -0.136159 0.342782
 10 7.210720 -0.000002 -0.000000 0.050016 -0.059462 -0.369328
 11 8.581028 -0.304903 -0.000000 -0.014256 0.016437 0.715173
 12 22.523008 2.194031 6.355708 0.000000 -0.835015 0.000000
 13 22.523005 2.194038 -6.355709 0.000000 0.991172 0.000000
 14 -3.006533 7.804720 -11.355459 0.617606 1.180222 1.114890
 15 10.384675 0.000008 0.000005 0.136915 0.157435 -1.032000
 16 22.550743 -0.000006 -0.000004 0.108233 0.012474 1.118208
 17 30.814247 -0.000015 -0.000004 2.502573 -0.085889 0.837028
 18 -3.013796 7.815494 11.355459 0.541672 0.513948 1.274773
 19 10.374533 -0.000002 0.000007 -0.011758 -0.191070 -1.780132
 20 22.550726 -0.000027 -0.000013 -0.123947 -0.013506 1.885322
 21 30.814270 -0.000023 0.000002 -2.882034 -0.074011 0.195845
 22 -4.250660 -0.770624 0.000001 0.013734 -0.162867 -2.760520
 23 10.363422 0.000000 0.000000 0.012248 0.061677 -0.305371
 24 10.363076 0.000000 -0.000000 -0.012068 0.094244 -0.168977
 25 10.363081 -0.000004 -0.000002 -0.024744 0.128286 0.086750
 26 8.210358 -0.000006 -7.703991 0.000000 0.000000 -0.000000
 27 8.210346 -0.000002 7.704017 0.000000 0.000000 -0.000000
 28 1.854841 1.227791 -13.762345 2.606409 0.056530 1.865369
 29 10.456543 -0.000004 0.000004 0.018329 0.092192 -1.708090
 30 24.248093 0.000001 0.000007 0.037991 0.037515 1.272647
 31 26.336971 0.000019 0.000002 0.757657 -0.138403 0.566504
 32 1.854847 1.227798 13.762341 -2.537550 0.200180 1.099704
 33 10.456542 -0.000008 0.000004 0.015038 -0.080169 -2.078031
 34 24.248116 0.000002 -0.000004 -0.047726 -0.039071 1.538192
 35 26.336975 0.000000 0.000004 -0.078221 -0.238427 0.009577
time 23
  0 0.000000 0.000000 0.000000 0.000000 -0.000000 -1.570796
  1 0.000000 0.000000 0.000000 0.000000 -0.000000 0.000000
  2 -5.871273 -9.725231 35.129471 -1.425854 -0.050463 1.969210
  3 4.222169 -0.467508 0.000000 -0.013586 0.014274 0.055460
  4 4.476987 -0.000002 -0.000000 0.084550 -0.058223 0.266692
  5 4.477083 0.000000 0.000002 0.069333 -0.099098 -0.028983
  6 4.477077 -0.000004 -0.000002 -0.020607 -0.101682 -0.149767
  7 5.413502 -7.700466 -0.000000 -0.105349 -0.014765 -0.259659
  8 6.890240 0.000002 -0.000000 -0.056364 -0.161426 -0.099904
  9 8.011925 0.000004 0.000005 -0.141956 -0.046153 0.287183
 10 7.210720 -0.000002 -0.000000 -0.018063 0.012182 -0.283271
 11 8.581028 -0.304903 -0.000000 0.091009 0.060875 0.630493
 12 22.523008 2.194031 6.355708 0.000000 -0.810634 0.000000
 13 22.523005 2.194038 -6.355709 0.000000 0.956174 0.000000
 14 -3.006533 7.804720 -11.355459 0.478646 1.141535 0.964633
 15 10.384675 0.000008 0.000005 0.150062 0.147591 -0.940249
 16 22.550743 -0.000006 -0.000004 0.106650 0.011929 1.022324
 17 30.814247 -0.000015 -0.000004 2.539221 -0.084321 0.859733
 18 -3.013796 7.815494 11.355459 0.513162 0.480093 1.226094
 19 10.374533 -0.000002 0.000007 0.001319 -0.190107 -1.849483
 20 22.550726 -0.000027 -0.000013 -0.125806 -0.013016 1.973849
 21 30.814270 -0.000023 0.000002 -2.876983 -0.069558 0.190155
 22 -4.250660 -0.770624 0.000001 0.014262 -0.162835 -2.763747
 23 10.363422 0.000000 0.000000 0.010379 0.062408 -0.336444
 24 10.363076 0.000000 -0.000000 -0.014885 0.094292 -0.198374
 25 10.363081 -0.000004 -0.000002 -0.026504 0.128024 0.073192
 26 8.210358 -0.000006 -7.703991 0.000000 0.000000 -0.000000
 27 8.210346 -0.000002 7.704017 0.000000 0.000000 -0.000000
 28 1.854841 1.227791 -13.762345 2.622283 0.028404 1.840859
 29 10.456543 -0.000004 0.000004 0.021386 0.092761 -1.676611
 30 24.248093 0.000001 0.000007 0.037027 0.037051 1.250388
 31 26.336971 0.000019 0.000002 0.760877 -0.162921 0.567443
 32 1.854847 1.227798 13.762341 -2.491699 0.198401 1.075664
 33 10.456542 -0.000008 0.000004 0.015886 -0.079751 -2.087687
 34 24.248116 0.000002 -0.000004 -0.047804 -0.039142 1.540832
 35 26.336975 0.000000 0.000004 -0.096489 -0.244601 0.034614
time 24
  0 0.000000 0.000000 0.000000 0.000000 -0.000000 -1.570796
  1 0.000000 0.000000 0.000000 0.000000 -0.000000 0.000000
  2 -5.320475 -9.459597 34.606018 -1.436878 -0.031835 1.963074
  3 4.222169 -0.467508 0.000000 -0.011225 0.012828 0.050614
  4 4.476987 -0.000002 -0.000000 0.073572 -0.049185 0.256104
  5 4.477083 0.000000 0.000002 0.057612 -0.077760 -0.035668
  6 4.477077 -0.000004 -0.000002 -0.017658 -0.088471 -0.151558
  7 5.413502 -7.700466 -0.000000 0.067973 -0.025487 -0.226210
  8 6.890240 0.000002 -0.000000 -0.174256 -0.286858 -0.092364
  9 8.011925 0.000004 0.000005 -0.224964 0.107979 0.198100
 10 7.210720 -0.000002 -0.000000 -0.127291 0.128052 -0.138940
 11 8.581028 -0.304903 -0.000000 0.241856 0.132031 0.533054
 12 22.523008 2.194031 6.355708 0.000000 -0.723470 0.000000
 13 22.523005 2.194038 -6.355709 0.000000 0.866969 0.000000
 14 -3.006533 7.804720 -11.355459 0.491940 1.057697 0.990523
 15 10.384675 0.000008 0.000005 0.133516 0.160130 -1.057993
 16 22.550743 -0.000006 -0.000004 0.108809 0.013019 1.143753
 17 30.814247 -0.000015 -0.000004 2.537298 -0.073412 0.809883
 18 -3.013796 7.815494 11.355459 0.478083 0.417167 1.204605
 19 10.374533 -0.000002 0.000007 0.014195 -0.188313 -1.919297
 20 22.550726 -0.000027 -0.000013 -0.127685 -0.012446 2.065230
 21 30.814270 -0.000023 0.000002 -2.873756 -0.053703 0.183991
 22 -4.250660 -0.770624 0.000001 0.014741 -0.162803 -2.766717
 23 10.363422 0.000000 0.000000 0.008641 0.063067 -0.365096
 24 10.363076 0.000000 -0.000000 -0.017474 0.094328 -0.225475
 25 10.363081 -0.000004 -0.000002 -0.028142 0.127793 0.060681
 26 8.210358 -0.000006 -7.703991 0.000000 0.000000 -0.000000
 27 8.210346 -0.000002 7.704017 0.000000 0.000000 -0.000000
 28 1.854841 1.227791 -13.762345 2.638730 0.017918 1.855030
 29 10.456543 -0.000004 0.000004 0.030436 0.093598 -1.583173
 30 24.248093 0.000001 0.000007 0.034803 0.036082 1.183194
 31 26.336971 0.000019 0.000002 0.735384 -0.173406 0.575616
 32 1.854847 1.227798 13.762341 -2.457801 0.169999 1.120684
 33 10.456542 -0.000008 0.000004 0.013241 -0.081310 -2.055488
 34 24.248116 0.000002 -0.000004 -0.046897 -0.039118 1.509049
 35 26.336975 0.000000 0.000004 -0.127150 -0.238241 0.094691
time 25
  0 0.000000 0.000000 0.000000 0.000000 -0.000000 -1.570796
  1 0.000000 0.000000 0.000000 0.000000 -0.000000 0.000000
  2 -4.734519 -9.385376 34.051315 -1.450011 -0.026449 1.940834
  3 4.222169 -0.467508 0.000000 -0.009044 0.010789 0.045125
  4 4.476987 -0.000002 -0.000000 0.061695 -0.041132 0.244495
  5 4.477083 0.000000 0.000002 0.045088 -0.055775 -0.042960
  6 4.477077 -0.000004 -0.000002 -0.014890 -0.073926 -0.153333
  7 5.413502 -7.700466 -0.000000 0.183822 -0.032266 -0.199326
  8 6.890240 0.000002 -0.000000 -0.246931 -0.348405 -0.087593
  9 8.011925 0.000004 0.000005 -0.280520 0.197729 0.095183
 10 7.210720 -0.000002 -0.000000 -0.197786 0.202926 -0.050497
 11 8.581028 -0.304903 -0.000000 0.335203 0.171860 0.484930
 12 22.523008 2.194031 6.355708 0.000000 -0.611405 0.000000
 13 22.523005 2.194038 -6.355709 0.000000 0.735113 0.000000
 14 -3.006533 7.804720 -11.355459 0.516031 0.960503 1.035092
 15 10.384675 0.000008 0.000005 0.109424 0.173539 -1.214225
 16 22.550743 -0.000006 -0.000004 0.111783 0.013909 1.304588
 17 30.814247 -0.000015 -0.000004 2.528388 -0.061782 0.746854
 18 -3.013796 7.815494 11.355459 0.439491 0.345422 1.150170
 19 10.374533 -0.000002 0.000007 0.021407 -0.186917 -1.958785
 20 22.550726 -0.000027 -0.000013 -0.128522 -0.012348 2.104747
 21 30.814270 -0.000023 0.000002 -2.891541 -0.024954 0.237542
 22 -4.250660 -0.770624 0.000001 0.015184 -0.162771 -2.769431
 23 10.363422 0.000000 0.000000 0.007071 0.063666 -0.391063
 24 10.363076 0.000000 -0.000000 -0.019811 0.094339 -0.250097
 25 10.363081 -0.000004 -0.000002 -0.029644 0.127577 0.049298
 26 8.210358 -0.000006 -7.703991 0.000000 0.000000 -0.000000
 27 8.210346 -0.000002 7.704017 0.000000 0.000000 -0.000000
 28 1.854841 1.227791 -13.762345 2.654164 0.013008 1.880514
 29 10.456543 -0.000004 0.000004 0.040481 0.093491 -1.479748
 30 24.248093 0.000001 0.000007 0.032467 0.034912 1.108778
 31 26.336971 0.000019 0.000002 0.699667 -0.177821 0.588650
 32 1.854847 1.227798 13.762341 -2.439907 0.123402 1.208742
 33 10.456542 -0.000008 0.000004 0.008086 -0.083870 -1.996016
 34 24.248116 0.000002 -0.000004 -0.045446 -0.038999 1.469649
 35 26.336975 0.000000 0.000004 -0.159484 -0.221800 0.179296
time 26
  0 0.000000 0.000000 0.000000 0.000000 -0.000000 -1.570796
  1 0.000000 0.000000 0.000000 0.000000 -0.000000 0.000000
  2 -4.152471 -9.486942 33.492702 -1.465541 -0.032154 1.906706
  3 4.222169 -0.467508 0.000000 -0.007102 0.008453 0.039467
  4 4.476987 -0.000002 -0.000000 0.049795 -0.034128 0.232775
  5 4.477083 0.000000 0.000002 0.032552 -0.034452 -0.050312
  6 4.477077 -0.000004 -0.000002 -0.012409 -0.059192 -0.154890
  7 5.413502 -7.700466 -0.000000 0.188859 -0.034118 -0.185325
  8 6.890240 0.000002 -0.000000 -0.245648 -0.237350 -0.087849
  9 8.011925 0.000004 0.000005 -0.290435 0.177392 -0.022894
 10 7.210720 -0.000002 -0.000000 -0.203962 0.153616 -0.097535
 11 8.581028 -0.304903 -0.000000 0.287003 0.090768 0.571994
 12 22.523008 2.194031 6.355708 0.000000 -0.486876 0.000000
 13 22.523005 2.194038 -6.355709 0.000000 0.578574 0.000000
 14 -3.006533 7.804720 -11.355459 0.528782 0.835964 1.086871
 15 10.384675 0.000008 0.000005 0.084772 0.182747 -1.363570
 16 22.550743 -0.000006 -0.000004 0.114758 0.014311 1.457010
 17 30.814247 -0.000015 -0.000004 2.518997 -0.047393 0.684720
 18 -3.013796 7.815494 11.355459 0.403394 0.266876 1.061820
 19 10.374533 -0.000002 0.000007 0.015138 -0.188180 -1.924864
 20 22.550726 -0.000027 -0.000013 -0.127317 -0.012525 2.057165
 21 30.814270 -0.000023 0.000002 -2.916799 0.011771 0.328803
 22 -4.250660 -0.770624 0.000001 0.015568 -0.162739 -2.771812
 23 10.363422 0.000000 0.000000 0.005705 0.064194 -0.413839
 24 10.363076 0.000000 -0.000000 -0.021860 0.094363 -0.271648
 25 10.363081 -0.000004 -0.000002 -0.030949 0.127408 0.039311
 26 8.210358 -0.000006 -7.703991 0.000000 0.000000 -0.000000
 27 8.210346 -0.000002 7.704017 0.000000 0.000000 -0.000000
 28 1.854841 1.227791 -13.762345 2.666785 0.023667 1.934887
 29 10.456543 -0.000004 0.000004 0.049845 0.092441 -1.382445
 30 24.248093 0.000001 0.000007 0.030317 0.033661 1.038684
 31 26.336971 0.000019 0.000002 0.646419 -0.166837 0.617864
 32 1.854847 1.227798 13.762341 -2.440920 0.067173 1.323209
 33 10.456542 -0.000008 0.000004 0.000964 -0.086847 -1.915342
 34 24.248116 0.000002 -0.000004 -0.043710 -0.038783 1.427508
 35 26.336975 0.000000 0.000004 -0.187830 -0.198875 0.270967
time 27
  0 0.000000 0.000000 0.000000 0.000000 -0.000000 -1.570796
  1 0.000000 0.000000 0.000000 0.000000 -0.000000 0.000000
  2 -3.597766 -9.764294 32.965343 -1.484233 -0.054133 1.855610
  3 4.222169 -0.467508 0.000000 -0.005412 0.006024 0.034023
  4 4.476987 -0.000002 -0.000000 0.038553 -0.028174 0.221654
  5 4.477083 0.000000 0.000002 0.020711 -0.014826 -0.057174
  6 4.477077 -0.000004 -0.000002 -0.010288 -0.045230 -0.156043
  7 5.413502 -7.700466 -0.000000 0.179688 -0.035308 -0.172910
  8 6.890240 0.000002 -0.000000 -0.223884 -0.064814 -0.088105
  9 8.011925 0.000004 0.000005 -0.291443 0.142278 -0.137622
 10 7.210720 -0.000002 -0.000000 -0.197155 0.082360 -0.164846
 11 8.581028 -0.304903 -0.000000 0.169728 -0.059653 0.737991
 12 22.523008 2.194031 6.355708 0.000000 -0.354586 0.000000
 13 22.523005 2.194038 -6.355709 0.000000 0.413233 0.000000
 14 -3.006533 7.804720 -11.355459 0.530193 0.705878 1.133295
 15 10.384675 0.000008 0.000005 0.062362 0.188348 -1.495865
 16 22.550743 -0.000006 -0.000004 0.117684 0.014368 1.586308
 17 30.814247 -0.000015 -0.000004 2.504277 -0.007707 0.617645
 18 -3.013796 7.815494 11.355459 0.368518 0.164154 1.030584
 19 10.374533 -0.000002 0.000007 0.007723 -0.189442 -1.884796
 20 22.550726 -0.000027 -0.000013 -0.125949 -0.012682 2.002262
 21 30.814270 -0.000023 0.000002 -2.930200 0.048815 0.403384
 22 -4.250660 -0.770624 0.000001 0.015892 -0.162707 -2.773835
 23 10.363422 0.000000 0.000000 0.004566 0.064661 -0.433183
 24 10.363076 0.000000 -0.000000 -0.023598 0.094411 -0.289973
 25 10.363081 -0.000004 -0.000002 -0.032082 0.127285 0.030800
 26 8.210358 -0.000006 -7.703991 0.000000 0.000000 -0.000000
 27 8.210346 -0.000002 7.704017 0.000000 0.000000 -0.000000
 28 1.854841 1.227791 -13.762345 2.678174 0.037705 1.993153
 29 10.456543 -0.000004 0.000004 0.055925 0.091053 -1.319270
 30 24.248093 0.000001 0.000007 0.028723 0.032733 0.992567
 31 26.336971 0.000019 0.000002 0.590908 -0.149887 0.647631
 32 1.854847 1.227798 13.762341 -2.462123 0.009986 1.456933
 33 10.456542 -0.000008 0.000004 -0.007752 -0.089714 -1.819652
 34 24.248116 0.000002 -0.000004 -0.041068 -0.038148 1.357746
 35 26.336975 0.000000 0.000004 -0.212488 -0.170645 0.361676
time 28
  0 0.000000 0.000000 0.000000 0.000000 -0.000000 -1.570796
  1 0.000000 0.000000 0.000000 0.000000 -0.000000 0.000000
  2 -3.113376 -10.221339 32.500484 -1.505515 -0.089475 1.792340
  3 4.222169 -0.467508 0.000000 -0.004010 0.003744 0.029162
  4 4.476987 -0.000002 -0.000000 0.028738 -0.023184 0.211887
  5 4.477083 0.000000 0.000002 0.010308 0.002087 -0.062999
  6 4.477077 -0.000004 -0.000002 -0.008562 -0.033052 -0.156588
  7 5.413502 -7.700466 -0.000000 0.167327 -0.035155 -0.163171
  8 6.890240 0.000002 -0.000000 -0.189201 0.053312 -0.091456
  9 8.011925 0.000004 0.000005 -0.287580 0.097115 -0.191066
 10 7.210720 -0.000002 -0.000000 -0.183072 0.022351 -0.210677
 11 8.581028 -0.304903 -0.000000 0.071260 -0.144108 0.833186
 12 22.523008 2.194031 6.355708 0.000000 -0.221715 0.000000
 13 22.523005 2.194038 -6.355709 0.000000 0.255907 0.000000
 14 -3.006533 7.804720 -11.355459 0.515055 0.562013 1.179992
 15 10.384675 0.000008 0.000005 0.040324 0.190979 -1.623106
 16 22.550743 -0.000006 -0.000004 0.120499 0.014081 1.709614
 17 30.814247 -0.000015 -0.000004 2.486980 0.035145 0.550176
 18 -3.013796 7.815494 11.355459 0.324886 0.042823 1.086102
 19 10.374533 -0.000002 0.000007 0.000847 -0.190339 -1.848323
 20 22.550726 -0.000027 -0.000013 -0.126051 -0.012917 1.983775
 21 30.814270 -0.000023 0.000002 -2.916589 0.085809 0.405839
 22 -4.250660 -0.770624 0.000001 0.016155 -0.162691 -2.775474
 23 10.363422 0.000000 0.000000 0.003667 0.065068 -0.448785
 24 10.363076 0.000000 -0.000000 -0.024988 0.094483 -0.304788
 25 10.363081 -0.000004 -0.000002 -0.033005 0.127223 0.023927
 26 8.210358 -0.000006 -7.703991 0.000000 0.000000 -0.000000
 27 8.210346 -0.000002 7.704017 0.000000 0.000000 -0.000000
 28 1.854841 1.227791 -13.762345 2.675755 0.067854 2.045154
 29 10.456543 -0.000004 0.000004 0.061288 0.089451 -1.262478
 30 24.248093 0.000001 0.000007 0.027314 0.031865 0.952310
 31 26.336971 0.000019 0.000002 0.535136 -0.111757 0.666242
 32 1.854847 1.227798 13.762341 -2.503753 -0.039621 1.606382
 33 10.456542 -0.000008 0.000004 -0.017146 -0.091912 -1.719588
 34 24.248116 0.000002 -0.000004 -0.038334 -0.037381 1.284531
 35 26.336975 0.000000 0.000004 -0.234615 -0.138196 0.444699
time 29
  0 0.000000 0.000000 0.000000 0.000000 -0.000000 -1.570796
  1 0.000000 0.000000 0.000000 0.000000 -0.000000 0.000000
  2 -2.722739 -10.873703 32.129379 -1.527946 -0.133553 1.722934
  3 4.222169 -0.467508 0.000000 -0.002967 0.001816 0.025283
  4 4.476987 -0.000002 -0.000000 0.021092 -0.019114 0.204251
  5 4.477083 0.000000 0.000002 0.002135 0.015236 -0.067120
  6 4.477077 -0.000004 -0.000002 -0.007292 -0.023618 -0.156354
  7 5.413502 -7.700466 -0.000000 0.104817 -0.018164 -0.192357
  8 6.890240 0.000002 -0.000000 -0.119654 0.045052 -0.166344
  9 8.011925 0.000004 0.000005 -0.214788 0.048534 -0.116857
 10 7.210720 -0.000002 -0.000000 -0.123695 0.009110 -0.113705
 11 8.581028 -0.304903 -0.000000 0.036654 -0.099636 0.778929
 12 22.523008 2.194031 6.355708 0.000000 -0.125966 0.000000
 13 22.523005 2.194038 -6.355709 0.000000 0.123900 0.000000
 14 -3.006533 7.804720 -11.355459 0.492537 0.417900 1.225660
 15 10.384675 0.000008 0.000005 0.026990 0.191064 -1.700917
 16 22.550743 -0.000006 -0.000004 0.121938 0.014024 1.782737
 17 30.814247 -0.000015 -0.000004 2.476803 0.095553 0.493951
 18 -3.013796 7.815494 11.355459 0.273006 -0.076527 1.154331
 19 10.374533 -0.000002 0.000007 -0.005826 -0.191004 -1.812952
 20 22.550726 -0.000027 -0.000013 -0.125111 -0.013173 1.934207
 21 30.814270 -0.000023 0.000002 -2.900978 0.122706 0.402938
 22 -4.250660 -0.770624 0.000001 0.016347 -0.162675 -2.776678
 23 10.363422 0.000000 0.000000 0.003032 0.065440 -0.460360
 24 10.363076 0.000000 -0.000000 -0.026007 0.094615 -0.315757
 25 10.363081 -0.000004 -0.000002 -0.033707 0.127223 0.018799
 26 8.210358 -0.000006 -7.703991 0.000000 0.000000 -0.000000
 27 8.210346 -0.000002 7.704017 0.000000 0.000000 -0.000000
 28 1.854841 1.227791 -13.762345 2.672941 0.099780 2.095027
 29 10.456543 -0.000004 0.000004 0.062756 0.089220 -1.243504
 30 24.248093 0.000001 0.000007 0.027314 0.031744 0.954796
 31 26.336971 0.000019 0.000002 0.480583 -0.069790 0.679993
 32 1.854847 1.227798 13.762341 -2.558922 -0.074070 1.758113
 33 10.456542 -0.000008 0.000004 -0.026777 -0.093220 -1.618774
 34 24.248116 0.000002 -0.000004 -0.035679 -0.036458 1.211368
 35 26.336975 0.000000 0.000004 -0.255971 -0.102708 0.513084
time 30
  0 0.000000 0.000000 0.000000 0.000000 -0.000000 -1.570796
  1 0.000000 0.000000 0.000000 0.000000 -0.000000 0.000000
  2 -2.461013 -11.760448 31.879372 -1.550186 -0.185530 1.648926
  3 4.222169 -0.467508 0.000000 -0.002296 0.000500 0.022799
  4 4.476987 -0.000002 -0.000000 0.016370 -0.015837 0.199545
  5 4.477083 0.000000 0.000002 -0.003006 0.023587 -0.068928
  6 4.477077 -0.000004 -0.000002 -0.006513 -0.017981 -0.155140
  7 5.413502 -7.700466 -0.000000 0.050136 -0.003449 -0.220329
  8 6.890240 0.000002 -0.000000 -0.047675 0.028911 -0.263339
  9 8.011925 0.000004 0.000005 -0.081750 -0.001102 0.024711
 10 7.210720 -0.000002 -0.000000 -0.050318 0.003125 0.027541
 11 8.581028 -0.304903 -0.000000 0.017135 -0.045552 0.711738
 12 22.523008 2.194031 6.355708 0.000000 -0.043414 0.000000
 13 22.523005 2.194038 -6.355709 0.000000 0.033486 0.000000
 14 -3.006533 7.804720 -11.355459 0.457051 0.277922 1.263911
 15 10.384675 0.000008 0.000005 0.023740 0.191594 -1.718578
 16 22.550743 -0.000006 -0.000004 0.122738 0.013995 1.805982
 17 30.814247 -0.000015 -0.000004 2.464005 0.156556 0.437906
 18 -3.013796 7.815494 11.355459 0.207888 -0.187993 1.256533
 19 10.374533 -0.000002 0.000007 -0.012567 -0.191435 -1.776827
 20 22.550726 -0.000027 -0.000013 -0.124090 -0.013369 1.882468
 21 30.814270 -0.000023 0.000002 -2.885577 0.159553 0.400986
 22 -4.250660 -0.770624 0.000001 0.016479 -0.162675 -2.777446
 23 10.363422 0.000000 0.000000 0.002685 0.065752 -0.467578
 24 10.363076 0.000000 -0.000000 -0.026618 0.094807 -0.322597
 25 10.363081 -0.000004 -0.000002 -0.034175 0.127300 0.015577
 26 8.210358 -0.000006 -7.703991 0.000000 0.000000 -0.000000
 27 8.210346 -0.000002 7.704017 0.000000 0.000000 -0.000000
 28 1.854841 1.227791 -13.762345 2.652493 0.136862 2.104820
 29 10.456543 -0.000004 0.000004 0.059768 0.089985 -1.276329
 30 24.248093 0.000001 0.000007 0.027426 0.031704 0.961131
 31 26.336971 0.000019 0.000002 0.434382 0.000269 0.650668
 32 1.854847 1.227798 13.762341 -2.618075 -0.089721 1.897007
 33 10.456542 -0.000008 0.000004 -0.034679 -0.093443 -1.538652
 34 24.248116 0.000002 -0.000004 -0.033295 -0.035343 1.139219
 35 26.336975 0.000000 0.000004 -0.279042 -0.065358 0.560162
time 31
  0 0.000000 0.000000 0.000000 0.000000 -0.000000 -1.570796
  1 0.000000 0.000000 0.000000 0.000000 -0.000000 0.000000
  2 -2.363353 -12.959703 31.785618 -1.570988 -0.244686 1.570988
  3 4.222169 -0.467508 0.000000 -0.002069 0.000018 0.022093
  4 4.476987 -0.000002 -0.000000 0.015327 -0.013331 0.198502
  5 4.477083 0.000000 0.000002 -0.004349 0.026123 -0.067772
  6 4.477077 -0.000004 -0.000002 -0.006321 -0.017097 -0.152773
  7 5.413502 -7.700466 -0.000000 0.007297 0.008547 -0.244474
  8 6.890240 0.000002 -0.000000 0.001953 0.017161 -0.340157
  9 8.011925 0.000004 0.000005 -0.006810 -0.024538 0.104449
 10 7.210720 -0.000002 -0.000000 0.000000 0.000000 0.130654
 11 8.581028 -0.304903 -0.000000 0.007192 -0.002445 0.657761
 12 22.523008 2.194031 6.355708 0.000000 -0.000000 0.000000
 13 22.523005 2.194038 -6.355709 0.000000 -0.000000 0.000000
 14 -3.006533 7.804720 -11.355459 0.417062 0.139568 1.305664
 15 10.384675 0.000008 0.000005 0.030987 0.190809 -1.678201
 16 22.550743 -0.000006 -0.000004 0.121603 0.013421 1.761793
 17 30.814247 -0.000015 -0.000004 2.465533 0.223170 0.409113
 18 -3.013796 7.815494 11.355459 0.129381 -0.291650 1.369678
 19 10.374533 -0.000002 0.000007 -0.019780 -0.191668 -1.738151
 20 22.550726 -0.000027 -0.000013 -0.123048 -0.013506 1.830791
 21 30.814270 -0.000023 0.000002 -2.870282 0.196425 0.399675
 22 -4.250660 -0.770624 0.000001 0.016515 -0.162675 -2.777702
 23 10.363422 0.000000 0.000000 0.002661 0.066003 -0.470131
 24 10.363076 0.000000 -0.000000 -0.026810 0.095059 -0.325023
 25 10.363081 -0.000004 -0.000002 -0.034384 0.127470 0.014423
 26 8.210358 -0.000006 -7.703991 0.000000 0.000000 -0.000000
 27 8.210346 -0.000002 7.704017 0.000000 0.000000 -0.000000
 28 1.854841 1.227791 -13.762345 2.614544 0.166567 2.068388
 29 10.456543 -0.000004 0.000004 0.051033 0.091640 -1.369420
 30 24.248093 0.000001 0.000007 0.029835 0.033116 1.029271
 31 26.336971 0.000019 0.000002 0.386223 0.069828 0.616594
 32 1.854847 1.227798 13.762341 -2.675642 -0.086465 2.016859
 33 10.456542 -0.000008 0.000004 -0.038783 -0.093415 -1.495575
 34 24.248116 0.000002 -0.000004 -0.032583 -0.035020 1.121144
 35 26.336975 0.000000 0.000004 -0.307002 -0.027418 0.579152
end
