version 1
nodes
  0 "Chaurus" -1
  1 "NPC Root [Root]" 0
  2 "Pelvis [Pelv]" 1
  3 "Spine[Spn0]" 2
  4 "Spine[Spn1]" 3
  5 "Spine[Spn2]" 4
  6 "Ribcage[Spn3]" 5
  7 "[Neck0]" 6
  8 "[Neck1]" 7
  9 "[Neck2]" 8
 10 "[Neck3]" 9
 11 "NPC Head [Head]" 10
 12 "Head[LeftPincher]" 11
 13 "Head[RightPincher]" 11
 14 "R UpperArm[RClv]" 6
 15 "R UpperArm[RUar]" 14
 16 "R UpperArm[RLar]" 15
 17 "R UpperArm[RHnd]" 16
 18 "L UpperArm[RClv]" 6
 19 "L UpperArm[LUar]" 18
 20 "L UpperArm[LLar]" 19
 21 "L UpperArm[LHnd]" 20
 22 "Tail[Tal0]" 2
 23 "Tail[Tal1]" 22
 24 "Tail[Tal2]" 23
 25 "Tail[Tal3]" 24
 26 "[TalRightPincher]" 25
 27 "[TalLeftPincher]" 25
 28 "R Leg[RThg0]" 2
 29 "R Leg[RThg1]" 28
 30 "R Leg[RClf]" 29
 31 "R Leg[RAnkle]" 30
 32 "LLeg[RThg0]" 2
 33 "LLeg[LThg1]" 32
 34 "LLeg[LClf]" 33
 35 "LLeg[LAnkle]" 34
end
skeleton
time 0
  0 0.000000 0.000000 0.000000 0.000000 -0.000000 -1.570796
  1 0.000000 0.000000 0.000000 0.000000 -0.000000 0.000000
  2 -4.472793 -12.487034 32.145004 -1.570988 -0.244686 1.570988
  3 4.222169 -0.467508 0.000000 -0.000115 -0.011049 0.022109
  4 4.476987 -0.000002 -0.000000 0.014224 -0.010461 0.198524
  5 4.477083 0.000000 0.000002 -0.006003 0.054408 -0.067905
  6 4.477077 -0.000004 -0.000002 -0.002079 -0.000165 -0.152819
  7 5.413502 -7.700466 -0.000000 0.004798 -0.017518 -0.229944
  8 6.890240 0.000002 -0.000000 0.002301 -0.018520 -0.321982
  9 8.011925 0.000004 0.000005 -0.006077 -0.032957 0.075430
 10 7.210720 -0.000002 -0.000000 -0.000165 -0.004131 0.084984
 11 8.581028 -0.304903 -0.000000 0.020694 0.031494 0.681630
 12 22.523008 2.194031 6.355708 0.000000 -0.011640 0.000000
 13 22.523005 2.194038 -6.355709 0.000000 0.027345 0.000000
 14 -3.006533 7.804720 -11.355459 0.427534 0.164582 1.291174
 15 10.384675 0.000008 0.000005 0.039465 0.191106 -1.630104
 16 22.550743 -0.000006 -0.000004 0.120595 0.013766 1.716514
 17 30.814247 -0.000015 -0.000004 2.412725 0.227653 0.427090
 18 -3.013796 7.815494 11.355459 0.159623 -0.277039 1.393048
 19 10.374533 -0.000002 0.000007 -0.013039 -0.191136 -1.773174
 20 22.550726 -0.000027 -0.000013 -0.123783 -0.013526 1.877505
 21 30.814270 -0.000023 0.000002 -2.943355 0.213895 0.355272
 22 -4.250660 -0.770624 0.000001 0.014729 -0.140112 -2.834598
 23 10.363422 0.000000 0.000000 -0.004662 0.081212 -0.456333
 24 10.363076 0.000000 -0.000000 -0.025635 0.120694 -0.272319
 25 10.363081 -0.000004 -0.000002 -0.013872 0.158451 0.148713
 26 9.253358 -0.000006 -3.973408 0.000000 0.000000 0.158368
 27 8.210346 -0.000002 7.704017 0.000000 0.000000 0.152117
 28 1.854841 1.227791 -13.762345 2.600165 0.212186 2.116375
 29 10.456543 -0.000004 0.000004 0.061568 0.089309 -1.258918
 30 24.248093 0.000001 0.000007 0.027203 0.031845 0.948343
 31 26.336971 0.000019 0.000002 0.416415 0.084071 0.647244
 32 1.854847 1.227798 13.762341 -2.709573 -0.057762 2.015954
 33 10.456542 -0.000008 0.000004 -0.038647 -0.093471 -1.498413
 34 24.248116 0.000002 -0.000004 -0.032609 -0.034984 1.122769
 35 26.336975 0.000000 0.000004 -0.268107 -0.008154 0.569940
time 1
  0 0.000000 0.000000 0.000000 0.000000 -0.000000 -1.570796
  1 0.000000 0.000000 0.000000 0.000000 -0.000000 0.000000
  2 -4.472793 -12.487034 32.145004 -1.570988 -0.244686 1.570988
  3 4.222169 -0.467508 0.000000 -0.000115 -0.011049 0.022109
  4 4.476987 -0.000002 -0.000000 0.014224 -0.010461 0.198524
  5 4.477083 0.000000 0.000002 -0.006003 0.054408 -0.067905
  6 4.477077 -0.000004 -0.000002 -0.002079 -0.000165 -0.152819
  7 5.413502 -7.700466 -0.000000 0.004798 -0.017518 -0.229944
  8 6.890240 0.000002 -0.000000 0.002301 -0.018520 -0.321982
  9 8.011925 0.000004 0.000005 -0.006077 -0.032957 0.075430
 10 7.210720 -0.000002 -0.000000 -0.000165 -0.004131 0.084984
 11 8.581028 -0.304903 -0.000000 0.020694 0.031494 0.681630
 12 22.523008 2.194031 6.355708 0.000000 -0.011640 0.000000
 13 22.523005 2.194038 -6.355709 0.000000 0.027345 0.000000
 14 -3.006533 7.804720 -11.355459 0.427534 0.164582 1.291174
 15 10.384675 0.000008 0.000005 0.039465 0.191106 -1.630104
 16 22.550743 -0.000006 -0.000004 0.120595 0.013766 1.716514
 17 30.814247 -0.000015 -0.000004 2.412725 0.227653 0.427090
 18 -3.013796 7.815494 11.355459 0.159623 -0.277039 1.393048
 19 10.374533 -0.000002 0.000007 -0.013039 -0.191136 -1.773174
 20 22.550726 -0.000027 -0.000013 -0.123783 -0.013526 1.877505
 21 30.814270 -0.000023 0.000002 -2.943355 0.213895 0.355272
 22 -4.250660 -0.770624 0.000001 0.014729 -0.140112 -2.834598
 23 10.363422 0.000000 0.000000 -0.004662 0.081212 -0.456333
 24 10.363076 0.000000 -0.000000 -0.025635 0.120694 -0.272319
 25 10.363081 -0.000004 -0.000002 -0.013872 0.158451 0.148713
 26 9.253358 -0.000006 -3.973408 0.000000 0.000000 0.158368
 27 8.210346 -0.000002 7.704017 0.000000 0.000000 0.152117
 28 1.854841 1.227791 -13.762345 2.600165 0.212186 2.116375
 29 10.456543 -0.000004 0.000004 0.061568 0.089309 -1.258918
 30 24.248093 0.000001 0.000007 0.027203 0.031845 0.948343
 31 26.336971 0.000019 0.000002 0.416415 0.084071 0.647244
 32 1.854847 1.227798 13.762341 -2.709573 -0.057762 2.015954
 33 10.456542 -0.000008 0.000004 -0.038647 -0.093471 -1.498413
 34 24.248116 0.000002 -0.000004 -0.032609 -0.034984 1.122769
 35 26.336975 0.000000 0.000004 -0.268107 -0.008154 0.569940
time 2
  0 0.000000 0.000000 0.000000 0.000000 -0.000000 -1.570796
  1 0.000000 0.000000 0.000000 0.000000 -0.000000 0.000000
  2 -4.082156 -12.510471 31.707493 -1.571468 -0.238663 1.568496
  3 4.222169 -0.467508 0.000000 0.001527 -0.005636 0.021495
  4 4.476987 -0.000002 -0.000000 0.019234 -0.005792 0.199057
  5 4.477083 0.000000 0.000002 -0.000825 0.049821 -0.065371
  6 4.477077 -0.000004 -0.000002 -0.000137 -0.019221 -0.148288
  7 5.413502 -7.700466 -0.000000 0.006008 -0.012692 -0.222912
  8 6.890240 0.000002 -0.000000 -0.005345 -0.021435 -0.310556
  9 8.011925 0.000004 0.000005 -0.000589 -0.040993 0.058065
 10 7.210720 -0.000002 -0.000000 -0.005984 -0.016366 0.062001
 11 8.581028 -0.304903 -0.000000 0.019753 0.024802 0.683698
 12 22.523008 2.194031 6.355708 0.000000 -0.011701 0.000000
 13 22.523005 2.194038 -6.355709 0.000000 0.027406 0.000000
 14 -3.006533 7.804720 -11.355459 0.372514 0.184049 1.135423
 15 10.384675 0.000008 0.000005 0.082307 0.183383 -1.376789
 16 22.550743 -0.000006 -0.000004 0.114870 0.013766 1.470993
 17 30.814247 -0.000015 -0.000004 2.477065 0.291822 0.557839
 18 -3.013796 7.815494 11.355459 0.198062 -0.268333 1.210590
 19 10.374533 -0.000002 0.000007 -0.060698 -0.198014 -1.518444
 20 22.550726 -0.000027 -0.000013 -0.117676 -0.013094 1.615150
 21 30.814270 -0.000023 0.000002 -2.949424 0.189990 0.537709
 22 -4.250660 -0.770624 0.000001 0.013770 -0.133035 -2.846377
 23 10.363422 0.000000 0.000000 -0.005669 0.075147 -0.433183
 24 10.363076 0.000000 -0.000000 -0.024796 0.115648 -0.273094
 25 10.363081 -0.000004 -0.000002 -0.014660 0.151611 0.146941
 26 9.253358 -0.000006 -3.973408 0.000195 0.004755 0.152525
 27 8.210346 -0.000002 7.704017 -0.000084 -0.006654 0.146013
 28 1.854841 1.227791 -13.762345 2.497267 0.130324 1.833195
 29 10.456543 -0.000004 0.000004 0.018504 0.082049 -1.691330
 30 24.248093 0.000001 0.000007 0.075026 0.057672 1.279515
 31 26.336971 0.000019 0.000002 0.452871 0.123305 0.457764
 32 1.854847 1.227798 13.762341 -2.660887 -0.010754 1.788399
 33 10.456542 -0.000008 0.000004 0.011443 -0.089352 -1.858275
 34 24.248116 0.000002 -0.000004 -0.041107 -0.034588 1.405878
 35 26.336975 0.000000 0.000004 -0.305844 -0.014855 0.432774
time 3
  0 0.000000 0.000000 0.000000 0.000000 -0.000000 -1.570796
  1 0.000000 0.000000 0.000000 0.000000 -0.000000 0.000000
  2 -3.050874 -12.576880 29.801184 -1.572714 -0.229448 1.566387
  3 4.222169 -0.467508 0.000000 0.006249 0.011382 0.018705
  4 4.476987 -0.000002 -0.000000 0.034179 0.015476 0.191821
  5 4.477083 0.000000 0.000002 0.013185 0.035040 -0.066794
  6 4.477077 -0.000004 -0.000002 0.002092 -0.045681 -0.139177
  7 5.413502 -7.700466 -0.000000 0.007523 -0.007544 -0.214946
  8 6.890240 0.000002 -0.000000 -0.013567 -0.024676 -0.297641
  9 8.011925 0.000004 0.000005 0.008343 -0.053933 0.031381
 10 7.210720 -0.000002 -0.000000 -0.015482 -0.035875 0.024967
 11 8.581028 -0.304903 -0.000000 0.017893 0.015378 0.686678
 12 22.523008 2.194031 6.355708 0.000000 -0.050136 0.000000
 13 22.523005 2.194038 -6.355709 0.000000 0.069361 0.000000
 14 -3.006533 7.804720 -11.355459 0.331331 0.213762 1.005837
 15 10.384675 0.000008 0.000005 0.089367 0.180816 -1.334246
 16 22.550743 -0.000006 -0.000004 0.114230 0.013708 1.430315
 17 30.814247 -0.000015 -0.000004 2.527077 0.347464 0.677200
 18 -3.013796 7.815494 11.355459 0.228763 -0.259701 1.031495
 19 10.374533 -0.000002 0.000007 -0.088403 -0.219442 -1.416970
 20 22.550726 -0.000027 -0.000013 -0.115000 -0.010601 1.530159
 21 30.814270 -0.000023 0.000002 -2.944828 0.172447 0.707567
 22 -4.250660 -0.770624 0.000001 0.012704 -0.122620 -2.864224
 23 10.363422 0.000000 0.000000 -0.007251 0.068688 -0.409020
 24 10.363076 0.000000 -0.000000 -0.022471 0.101926 -0.274720
 25 10.363081 -0.000004 -0.000002 -0.017110 0.133016 0.141894
 26 9.253358 -0.000006 -3.973408 0.000904 0.015113 0.135540
 27 8.210346 -0.000002 7.704017 -0.000240 -0.024913 0.129092
 28 1.854841 1.227791 -13.762345 2.426821 0.093439 1.686375
 29 10.456543 -0.000004 0.000004 -0.007265 0.042545 -1.960616
 30 24.248093 0.000001 0.000007 0.169633 0.096313 1.578007
 31 26.336971 0.000019 0.000002 0.440037 0.137127 0.309702
 32 1.854847 1.227798 13.762341 -2.626482 -0.021480 1.762723
 33 10.456542 -0.000008 0.000004 0.072624 -0.080308 -2.022027
 34 24.248116 0.000002 -0.000004 -0.037492 -0.022316 1.604349
 35 26.336975 0.000000 0.000004 -0.334747 0.000408 0.369701
time 4
  0 0.000000 0.000000 0.000000 0.000000 -0.000000 -1.570796
  1 0.000000 0.000000 0.000000 0.000000 -0.000000 0.000000
  2 -1.531297 -12.682352 26.621399 -1.574343 -0.217162 1.564374
  3 4.222169 -0.467508 0.000000 0.013703 0.039930 0.012311
  4 4.476987 -0.000002 -0.000000 0.056722 0.050173 0.178324
  5 4.477083 0.000000 0.000002 0.034290 0.011488 -0.067090
  6 4.477077 -0.000004 -0.000002 0.004333 -0.080484 -0.124134
  7 5.413502 -7.700466 -0.000000 0.009437 -0.001920 -0.205674
  8 6.890240 0.000002 -0.000000 -0.023022 -0.028349 -0.281537
  9 8.011925 0.000004 0.000005 0.021466 -0.071746 -0.004568
 10 7.210720 -0.000002 -0.000000 -0.027094 -0.060168 -0.019952
 11 8.581028 -0.304903 -0.000000 0.015459 0.003769 0.690463
 12 22.523008 2.194031 6.355708 0.000000 -0.096911 0.000000
 13 22.523005 2.194038 -6.355709 0.000000 0.133308 0.000000
 14 -3.006533 7.804720 -11.355459 0.289117 0.241567 0.879135
 15 10.384675 0.000008 0.000005 0.074053 0.185399 -1.425719
 16 22.550743 -0.000006 -0.000004 0.116357 0.014053 1.523657
 17 30.814247 -0.000015 -0.000004 2.574513 0.398655 0.791655
 18 -3.013796 7.815494 11.355459 0.247193 -0.255292 0.869843
 19 10.374533 -0.000002 0.000007 -0.114289 -0.250671 -1.362986
 20 22.550726 -0.000027 -0.000013 -0.113263 -0.006459 1.501808
 21 30.814270 -0.000023 0.000002 -2.933813 0.156788 0.864539
 22 -4.250660 -0.770624 0.000001 0.011445 -0.111066 -2.884734
 23 10.363422 0.000000 0.000000 -0.008245 0.051550 -0.346831
 24 10.363076 0.000000 -0.000000 -0.018924 0.081432 -0.277404
 25 10.363081 -0.000004 -0.000002 -0.020730 0.105208 0.133894
 26 9.253358 -0.000006 -3.973408 0.001918 0.029989 0.109316
 27 8.210346 -0.000002 7.704017 -0.000096 -0.052425 0.103186
 28 1.854841 1.227791 -13.762345 2.381221 0.162842 1.697931
 29 10.456543 -0.000004 0.000004 -0.009081 -0.019398 -2.066516
 30 24.248093 0.000001 0.000007 0.313139 0.132955 1.896155
 31 26.336971 0.000019 0.000002 0.395925 0.113923 0.171195
 32 1.854847 1.227798 13.762341 -2.589815 -0.105262 1.915403
 33 10.456542 -0.000008 0.000004 0.139367 -0.072710 -2.034757
 34 24.248116 0.000002 -0.000004 -0.030950 -0.010343 1.797337
 35 26.336975 0.000000 0.000004 -0.355503 0.052710 0.378800
time 5
  0 0.000000 0.000000 0.000000 0.000000 -0.000000 -1.570796
  1 0.000000 0.000000 0.000000 0.000000 -0.000000 0.000000
  2 0.343760 -12.819075 24.297110 -1.576069 -0.203081 1.562265
  3 4.222169 -0.467508 0.000000 0.023411 0.080009 0.000948
  4 4.476987 -0.000002 -0.000000 0.084466 0.095258 0.160123
  5 4.477083 0.000000 0.000002 0.060548 -0.019656 -0.061324
  6 4.477077 -0.000004 -0.000002 0.005963 -0.124233 -0.101802
  7 5.413502 -7.700466 -0.000000 0.011829 0.004367 -0.194597
  8 6.890240 0.000002 -0.000000 -0.034312 -0.032505 -0.260755
  9 8.011925 0.000004 0.000005 0.035754 -0.089591 -0.041894
 10 7.210720 -0.000002 -0.000000 -0.052349 -0.096520 -0.093619
 11 8.581028 -0.304903 -0.000000 0.012703 -0.009445 0.694985
 12 22.523008 2.194031 6.355708 0.000000 -0.157434 0.000000
 13 22.523005 2.194038 -6.355709 0.000000 0.210776 0.000000
 14 -3.006533 7.804720 -11.355459 0.246469 0.265026 0.757240
 15 10.384675 0.000008 0.000005 0.057693 0.188645 -1.521747
 16 22.550743 -0.000006 -0.000004 0.118356 0.014081 1.624565
 17 30.814247 -0.000015 -0.000004 2.592421 0.466210 0.846948
 18 -3.013796 7.815494 11.355459 0.246939 -0.261943 0.753334
 19 10.374533 -0.000002 0.000007 -0.140376 -0.286784 -1.331268
 20 22.550726 -0.000027 -0.000013 -0.111731 -0.001512 1.496287
 21 30.814270 -0.000023 0.000002 -2.915817 0.141301 0.984946
 22 -4.250660 -0.770624 0.000001 0.009959 -0.099094 -2.906397
 23 10.363422 0.000000 0.000000 -0.010115 0.034352 -0.284136
 24 10.363076 0.000000 -0.000000 -0.014417 0.056073 -0.281301
 25 10.363081 -0.000004 -0.000002 -0.025039 0.070760 0.123343
 26 9.253358 -0.000006 -3.973408 0.002968 0.048430 0.075651
 27 8.210346 -0.000002 7.704017 0.000779 -0.086838 0.070090
 28 1.854841 1.227791 -13.762345 2.338302 0.235057 1.710946
 29 10.456543 -0.000004 0.000004 -0.003945 -0.082373 -2.113235
 30 24.248093 0.000001 0.000007 0.483114 0.171596 2.134795
 31 26.336971 0.000019 0.000002 0.332279 0.056505 0.069579
 32 1.854847 1.227798 13.762341 -2.565134 -0.194763 2.070107
 33 10.456542 -0.000008 0.000004 0.212146 -0.070985 -1.957630
 34 24.248116 0.000002 -0.000004 -0.017232 0.006243 1.889693
 35 26.336975 0.000000 0.000004 -0.373985 0.107960 0.391121
time 6
  0 0.000000 0.000000 0.000000 0.000000 -0.000000 -1.570796
  1 0.000000 0.000000 0.000000 0.000000 -0.000000 0.000000
  2 2.437574 -12.979237 22.828316 -1.577794 -0.188521 1.560060
  3 4.222169 -0.467508 0.000000 0.034520 0.131006 -0.016271
  4 4.476987 -0.000002 -0.000000 0.115159 0.147689 0.138414
  5 4.477083 0.000000 0.000002 0.089766 -0.057261 -0.045732
  6 4.477077 -0.000004 -0.000002 0.005448 -0.172943 -0.070111
  7 5.413502 -7.700466 -0.000000 0.014807 0.011537 -0.181248
  8 6.890240 0.000002 -0.000000 -0.047291 -0.036949 -0.235832
  9 8.011925 0.000004 0.000005 0.051287 -0.107371 -0.080440
 10 7.210720 -0.000002 -0.000000 -0.076205 -0.134725 -0.167876
 11 8.581028 -0.304903 -0.000000 0.009993 -0.023751 0.700102
 12 22.523008 2.194031 6.355708 0.000000 -0.226420 0.000000
 13 22.523005 2.194038 -6.355709 0.000000 0.289363 0.000000
 14 -3.006533 7.804720 -11.355459 0.228672 0.275272 0.700241
 15 10.384675 0.000008 0.000005 0.040175 0.190554 -1.623051
 16 22.550743 -0.000006 -0.000004 0.120563 0.013766 1.735280
 17 30.814247 -0.000015 -0.000004 2.608539 0.533482 0.895616
 18 -3.013796 7.815494 11.355459 0.222348 -0.280552 0.714061
 19 10.374533 -0.000002 0.000007 -0.164509 -0.328811 -1.325527
 20 22.550726 -0.000027 -0.000013 -0.110608 0.003789 1.528609
 21 30.814270 -0.000023 0.000002 -2.888384 0.125177 1.030409
 22 -4.250660 -0.770624 0.000001 0.008209 -0.086978 -2.928264
 23 10.363422 0.000000 0.000000 -0.012859 0.017466 -0.221969
 24 10.363076 0.000000 -0.000000 -0.009168 0.027657 -0.286618
 25 10.363081 -0.000004 -0.000002 -0.029558 0.032091 0.110510
 26 9.253358 -0.000006 -3.973408 0.003848 0.069487 0.036348
 27 8.210346 -0.000002 7.704017 0.002732 -0.125832 0.031400
 28 1.854841 1.227791 -13.762345 2.320845 0.283932 1.718366
 29 10.456543 -0.000004 0.000004 0.001802 -0.142821 -2.115146
 30 24.248093 0.000001 0.000007 0.650790 0.197020 2.316128
 31 26.336971 0.000019 0.000002 0.253450 -0.033499 0.010929
 32 1.854847 1.227798 13.762341 -2.533701 -0.269352 2.189615
 33 10.456542 -0.000008 0.000004 0.283602 -0.084705 -1.810075
 34 24.248116 0.000002 -0.000004 -0.006661 0.022926 1.906448
 35 26.336975 0.000000 0.000004 -0.389380 0.166187 0.406889
time 7
  0 0.000000 0.000000 0.000000 0.000000 -0.000000 -1.570796
  1 0.000000 0.000000 0.000000 0.000000 -0.000000 0.000000
  2 4.589984 -13.151115 21.879066 -1.579520 -0.173483 1.557855
  3 4.222169 -0.467508 0.000000 0.045402 0.188325 -0.037861
  4 4.476987 -0.000002 -0.000000 0.146211 0.203525 0.114463
  5 4.477083 0.000000 0.000002 0.119069 -0.098178 -0.022284
  6 4.477077 -0.000004 -0.000002 0.001649 -0.219417 -0.029045
  7 5.413502 -7.700466 -0.000000 0.018435 0.019574 -0.165473
  8 6.890240 0.000002 -0.000000 -0.060906 -0.041275 -0.209349
  9 8.011925 0.000004 0.000005 0.067776 -0.124609 -0.119374
 10 7.210720 -0.000002 -0.000000 -0.098193 -0.173001 -0.239934
 11 8.581028 -0.304903 -0.000000 0.007628 -0.038433 0.705605
 12 22.523008 2.194031 6.355708 0.000000 -0.297545 0.000000
 13 22.523005 2.194038 -6.355709 0.000000 0.364623 0.000000
 14 -3.006533 7.804720 -11.355459 0.225959 0.300321 0.669544
 15 10.384675 0.000008 0.000005 0.013207 0.191446 -1.768508
 16 22.550743 -0.000006 -0.000004 0.123954 0.013306 1.888730
 17 30.814247 -0.000015 -0.000004 2.570582 0.591476 0.867898
 18 -3.013796 7.815494 11.355459 0.179377 -0.302486 0.741706
 19 10.374533 -0.000002 0.000007 -0.166734 -0.380571 -1.398357
 20 22.550726 -0.000027 -0.000013 -0.110485 0.009678 1.622595
 21 30.814270 -0.000023 0.000002 -2.850848 0.111157 0.992588
 22 -4.250660 -0.770624 0.000001 0.006208 -0.075215 -2.949133
 23 10.363422 0.000000 0.000000 -0.016347 0.001083 -0.160792
 24 10.363076 0.000000 -0.000000 -0.003476 -0.001585 -0.293458
 25 10.363081 -0.000004 -0.000002 -0.033805 -0.007703 0.095851
 26 9.253358 -0.000006 -3.973408 0.004470 0.091936 -0.006284
 27 8.210346 -0.000002 7.704017 0.005836 -0.166497 -0.010648
 28 1.854841 1.227791 -13.762345 2.328804 0.296515 1.725604
 29 10.456543 -0.000004 0.000004 0.007463 -0.202112 -2.113669
 30 24.248093 0.000001 0.000007 0.801709 0.224280 2.433879
 31 26.336971 0.000019 0.000002 0.157612 -0.141031 0.003529
 32 1.854847 1.227798 13.762341 -2.506994 -0.339837 2.296456
 33 10.456542 -0.000008 0.000004 0.341968 -0.117431 -1.609158
 34 24.248116 0.000002 -0.000004 -0.016014 0.041897 1.814651
 35 26.336975 0.000000 0.000004 -0.400101 0.227641 0.427744
time 8
  0 0.000000 0.000000 0.000000 0.000000 -0.000000 -1.570796
  1 0.000000 0.000000 0.000000 0.000000 -0.000000 0.000000
  2 6.660359 -13.322996 21.250141 -1.581246 -0.157726 1.555746
  3 4.222169 -0.467508 0.000000 0.054714 0.246979 -0.062165
  4 4.476987 -0.000002 -0.000000 0.175657 0.259448 0.088736
  5 4.477083 0.000000 0.000002 0.146190 -0.139095 0.006025
  6 4.477077 -0.000004 -0.000002 -0.005051 -0.262940 0.020041
  7 5.413502 -7.700466 -0.000000 0.022702 0.028409 -0.147489
  8 6.890240 0.000002 -0.000000 -0.075167 -0.045405 -0.181400
  9 8.011925 0.000004 0.000005 0.085116 -0.141144 -0.158413
 10 7.210720 -0.000002 -0.000000 -0.119138 -0.210853 -0.309767
 11 8.581028 -0.304903 -0.000000 0.005998 -0.052961 0.711353
 12 22.523008 2.194031 6.355708 0.000000 -0.365462 0.000000
 13 22.523005 2.194038 -6.355709 0.000000 0.435920 0.000000
 14 -3.006533 7.804720 -11.355459 0.241260 0.352504 0.662127
 15 10.384675 0.000008 0.000005 -0.013723 0.188390 -1.915910
 16 22.550743 -0.000006 -0.000004 0.127728 0.012359 2.065547
 17 30.814247 -0.000015 -0.000004 2.490605 0.633231 0.810778
 18 -3.013796 7.815494 11.355459 0.136509 -0.323524 0.773797
 19 10.374533 -0.000002 0.000007 -0.162554 -0.433196 -1.479942
 20 22.550726 -0.000027 -0.000013 -0.110669 0.015764 1.749771
 21 30.814270 -0.000023 0.000002 -2.812645 0.099413 0.949887
 22 -4.250660 -0.770624 0.000001 0.004003 -0.064062 -2.968107
 23 10.363422 0.000000 0.000000 -0.020494 -0.014809 -0.100605
 24 10.363076 0.000000 -0.000000 0.002409 -0.029833 -0.301923
 25 10.363081 -0.000004 -0.000002 -0.037499 -0.046172 0.079447
 26 9.253358 -0.000006 -3.973408 0.004874 0.114826 -0.050547
 27 8.210346 -0.000002 7.704017 0.009887 -0.206636 -0.054424
 28 1.854841 1.227791 -13.762345 2.337291 0.301992 1.724083
 29 10.456543 -0.000004 0.000004 0.010206 -0.258486 -2.113366
 30 24.248093 0.000001 0.000007 0.927865 0.252650 2.515991
 31 26.336971 0.000019 0.000002 0.061643 -0.240312 0.034179
 32 1.854847 1.227798 13.762341 -2.482145 -0.408707 2.389081
 33 10.456542 -0.000008 0.000004 0.372728 -0.151995 -1.393619
 34 24.248116 0.000002 -0.000004 -0.030523 0.060030 1.724732
 35 26.336975 0.000000 0.000004 -0.408206 0.289312 0.452102
time 9
  0 0.000000 0.000000 0.000000 0.000000 -0.000000 -1.570796
  1 0.000000 0.000000 0.000000 0.000000 -0.000000 0.000000
  2 8.515884 -13.494877 20.832161 -1.582971 -0.141132 1.553637
  3 4.222169 -0.467508 0.000000 0.061402 0.301647 -0.087634
  4 4.476987 -0.000002 -0.000000 0.201591 0.311772 0.061433
  5 4.477083 0.000000 0.000002 0.169140 -0.176215 0.036573
  6 4.477077 -0.000004 -0.000002 -0.014015 -0.302329 0.075621
  7 5.413502 -7.700466 -0.000000 0.027553 0.037839 -0.127730
  8 6.890240 0.000002 -0.000000 -0.089980 -0.049247 -0.152195
  9 8.011925 0.000004 0.000005 0.103164 -0.156800 -0.197140
 10 7.210720 -0.000002 -0.000000 -0.139919 -0.247841 -0.377292
 11 8.581028 -0.304903 -0.000000 0.005378 -0.066772 0.717206
 12 22.523008 2.194031 6.355708 0.000000 -0.424489 0.000000
 13 22.523005 2.194038 -6.355709 0.000000 0.502195 0.000000
 14 -3.006533 7.804720 -11.355459 0.271591 0.423376 0.673596
 15 10.384675 0.000008 0.000005 -0.038113 0.182004 -2.052759
 16 22.550743 -0.000006 -0.000004 0.130814 0.011240 2.220874
 17 30.814247 -0.000015 -0.000004 2.384465 0.659563 0.737758
 18 -3.013796 7.815494 11.355459 0.096644 -0.343665 0.806002
 19 10.374533 -0.000002 0.000007 -0.152780 -0.482398 -1.559962
 20 22.550726 -0.000027 -0.000013 -0.110261 0.021790 1.878932
 21 30.814270 -0.000023 0.000002 -2.775671 0.090140 0.909416
 22 -4.250660 -0.770624 0.000001 0.001654 -0.053856 -2.984111
 23 10.363422 0.000000 0.000000 -0.024940 -0.029274 -0.045018
 24 10.363076 0.000000 -0.000000 0.008245 -0.055156 -0.312092
 25 10.363081 -0.000004 -0.000002 -0.040368 -0.080666 0.061513
 26 9.253358 -0.000006 -3.973408 0.005277 0.137139 -0.094471
 27 8.210346 -0.000002 7.704017 0.014262 -0.243742 -0.097930
 28 1.854841 1.227791 -13.762345 2.335048 0.282921 1.665148
 29 10.456543 -0.000004 0.000004 -0.004906 -0.298114 -2.135336
 30 24.248093 0.000001 0.000007 1.027181 0.283481 2.574956
 31 26.336971 0.000019 0.000002 -0.033369 -0.331840 0.074660
 32 1.854847 1.227798 13.762341 -2.453007 -0.476838 2.452754
 33 10.456542 -0.000008 0.000004 0.400334 -0.174703 -1.246577
 34 24.248116 0.000002 -0.000004 -0.047843 0.076605 1.664820
 35 26.336975 0.000000 0.000004 -0.432606 0.330105 0.458828
time 10
  0 0.000000 0.000000 0.000000 0.000000 -0.000000 -1.570796
  1 0.000000 0.000000 0.000000 0.000000 -0.000000 0.000000
  2 10.004211 -13.655037 20.574339 -1.584697 -0.123541 1.551624
  3 4.222169 -0.467508 0.000000 0.064841 0.347064 -0.112797
  4 4.476987 -0.000002 -0.000000 0.222229 0.356856 0.032332
  5 4.477083 0.000000 0.000002 0.186338 -0.205550 0.066957
  6 4.477077 -0.000004 -0.000002 -0.024490 -0.334877 0.133801
  7 5.413502 -7.700466 -0.000000 0.032923 0.047677 -0.106603
  8 6.890240 0.000002 -0.000000 -0.105249 -0.052698 -0.121988
  9 8.011925 0.000004 0.000005 0.121538 -0.171050 -0.234102
 10 7.210720 -0.000002 -0.000000 -0.161001 -0.279867 -0.436076
 11 8.581028 -0.304903 -0.000000 0.006181 -0.079337 0.722954
 12 22.523008 2.194031 6.355708 0.000000 -0.469003 0.000000
 13 22.523005 2.194038 -6.355709 0.000000 0.561211 0.000000
 14 -3.006533 7.804720 -11.355459 0.304636 0.486653 0.692756
 15 10.384675 0.000008 0.000005 -0.054399 0.175639 -2.146787
 16 22.550743 -0.000006 -0.000004 0.132766 0.010695 2.303380
 17 30.814247 -0.000015 -0.000004 2.275704 0.674641 0.660547
 18 -3.013796 7.815494 11.355459 0.062533 -0.363432 0.833191
 19 10.374533 -0.000002 0.000007 -0.133568 -0.514358 -1.623746
 20 22.550726 -0.000027 -0.000013 -0.109362 0.026973 2.002820
 21 30.814270 -0.000023 0.000002 -2.740731 0.083436 0.871791
 22 -4.250660 -0.770624 0.000001 -0.000695 -0.044917 -2.996248
 23 10.363422 0.000000 0.000000 -0.029027 -0.041211 0.000975
 24 10.363076 0.000000 -0.000000 0.013674 -0.075650 -0.324042
 25 10.363081 -0.000004 -0.000002 -0.042325 -0.108535 0.042210
 26 9.253358 -0.000006 -3.973408 0.006095 0.157924 -0.136186
 27 8.210346 -0.000002 7.704017 0.018013 -0.275617 -0.139129
 28 1.854841 1.227791 -13.762345 2.329332 0.259630 1.590583
 29 10.456543 -0.000004 0.000004 -0.018777 -0.332173 -2.166207
 30 24.248093 0.000001 0.000007 1.104290 0.307089 2.631019
 31 26.336971 0.000019 0.000002 -0.082485 -0.401399 0.089185
 32 1.854847 1.227798 13.762341 -2.409891 -0.543492 2.452754
 33 10.456542 -0.000008 0.000004 0.434756 -0.188033 -1.176543
 34 24.248116 0.000002 -0.000004 -0.057779 0.089284 1.681118
 35 26.336975 0.000000 0.000004 -0.463182 0.361034 0.451255
time 11
  0 0.000000 0.000000 0.000000 0.000000 -0.000000 -1.570796
  1 0.000000 0.000000 0.000000 0.000000 -0.000000 0.000000
  2 10.992523 -13.799574 20.433710 -1.586422 -0.104713 1.549706
  3 4.222169 -0.467508 0.000000 0.064901 0.377967 -0.135874
  4 4.476987 -0.000002 -0.000000 0.233435 0.389540 0.002521
  5 4.477083 0.000000 0.000002 0.196657 -0.222850 0.094585
  6 4.477077 -0.000004 -0.000002 -0.035444 -0.352373 0.182732
  7 5.413502 -7.700466 -0.000000 0.038412 0.057515 -0.085756
  8 6.890240 0.000002 -0.000000 -0.120972 -0.055835 -0.091968
  9 8.011925 0.000004 0.000005 0.138669 -0.181322 -0.260838
 10 7.210720 -0.000002 -0.000000 -0.181041 -0.293549 -0.464020
 11 8.581028 -0.304903 -0.000000 0.008799 -0.090076 0.728492
 12 22.523008 2.194031 6.355708 0.000000 -0.494269 0.000000
 13 22.523005 2.194038 -6.355709 0.000000 0.602985 0.000000
 14 -3.006533 7.804720 -11.355459 0.327805 0.518486 0.711023
 15 10.384675 0.000008 0.000005 -0.056117 0.174939 -2.156229
 16 22.550743 -0.000006 -0.000004 0.132973 0.010638 2.310281
 17 30.814247 -0.000015 -0.000004 2.199571 0.679751 0.595263
 18 -3.013796 7.815494 11.355459 0.034225 -0.382041 0.850690
 19 10.374533 -0.000002 0.000007 -0.110716 -0.542764 -1.686950
 20 22.550726 -0.000027 -0.000013 -0.109484 0.029702 2.093022
 21 30.814270 -0.000023 0.000002 -2.712561 0.078322 0.842003
 22 -4.250660 -0.770624 0.000001 -0.002924 -0.037648 -3.003085
 23 10.363422 0.000000 0.000000 -0.032370 -0.050823 0.038935
 24 10.363076 0.000000 -0.000000 0.018300 -0.089372 -0.337515
 25 10.363081 -0.000004 -0.000002 -0.043409 -0.127084 0.021887
 26 9.253358 -0.000006 -3.973408 0.007414 0.173751 -0.174708
 27 8.210346 -0.000002 7.704017 0.020602 -0.298209 -0.177006
 28 1.854841 1.227791 -13.762345 2.302244 0.233478 1.475328
 29 10.456543 -0.000004 0.000004 -0.027442 -0.362317 -2.202158
 30 24.248093 0.000001 0.000007 1.146997 0.314050 2.681755
 31 26.336971 0.000019 0.000002 -0.056078 -0.452406 0.041580
 32 1.854847 1.227798 13.762341 -2.362522 -0.606233 2.430697
 33 10.456542 -0.000008 0.000004 0.471587 -0.192346 -1.171853
 34 24.248116 0.000002 -0.000004 -0.054825 0.097242 1.740827
 35 26.336975 0.000000 0.000004 -0.501777 0.374869 0.416553
time 12
  0 0.000000 0.000000 0.000000 0.000000 -0.000000 -1.570796
  1 0.000000 0.000000 0.000000 0.000000 -0.000000 0.000000
  2 11.402692 -13.924578 20.390739 -1.588148 -0.084808 1.547981
  3 4.222169 -0.467508 0.000000 0.060851 0.388329 -0.156498
  4 4.476987 -0.000002 -0.000000 0.223751 0.399692 -0.021963
  5 4.477083 0.000000 0.000002 0.197939 -0.224062 0.118893
  6 4.477077 -0.000004 -0.000002 -0.045235 -0.346303 0.209003
  7 5.413502 -7.700466 -0.000000 0.047730 0.069341 -0.052463
  8 6.890240 0.000002 -0.000000 -0.136289 -0.056933 -0.051825
  9 8.011925 0.000004 0.000005 0.152460 -0.185204 -0.268002
 10 7.210720 -0.000002 -0.000000 -0.198335 -0.300135 -0.478528
 11 8.581028 -0.304903 -0.000000 0.013553 -0.098355 0.733504
 12 22.523008 2.194031 6.355708 0.000000 -0.498302 0.000000
 13 22.523005 2.194038 -6.355709 0.000000 0.618533 0.000000
 14 -3.006533 7.804720 -11.355459 0.317875 0.491635 0.706078
 15 10.384675 0.000008 0.000005 -0.041064 0.181007 -2.069421
 16 22.550743 -0.000006 -0.000004 0.131390 0.011326 2.233344
 17 30.814247 -0.000015 -0.000004 2.222590 0.678999 0.579720
 18 -3.013796 7.815494 11.355459 -0.006301 -0.411224 0.921029
 19 10.374533 -0.000002 0.000007 -0.089549 -0.564990 -1.741282
 20 22.550726 -0.000027 -0.000013 -0.109893 0.031645 2.161201
 21 30.814270 -0.000023 0.000002 -2.649311 0.087693 0.778439
 22 -4.250660 -0.770624 0.000001 -0.004770 -0.033347 -2.998194
 23 10.363422 0.000000 0.000000 -0.033785 -0.056587 0.054538
 24 10.363076 0.000000 -0.000000 0.021668 -0.094370 -0.354498
 25 10.363081 -0.000004 -0.000002 -0.043507 -0.133816 -0.001148
 26 9.253358 -0.000006 -3.973408 0.008171 0.173241 -0.211837
 27 8.210346 -0.000002 7.704017 0.023562 -0.301335 -0.213831
 28 1.854841 1.227791 -13.762345 2.247937 0.199505 1.330697
 29 10.456543 -0.000004 0.000004 -0.030482 -0.386464 -2.241626
 30 24.248093 0.000001 0.000007 1.151335 0.304526 2.717453
 31 26.336971 0.000019 0.000002 0.050288 -0.468068 -0.063681
 32 1.854847 1.227798 13.762341 -2.315422 -0.645771 2.362327
 33 10.456542 -0.000008 0.000004 0.501601 -0.183914 -1.223561
 34 24.248116 0.000002 -0.000004 -0.040601 0.099136 1.830847
 35 26.336975 0.000000 0.000004 -0.546847 0.371798 0.359698
time 13
  0 0.000000 0.000000 0.000000 0.000000 -0.000000 -1.570796
  1 0.000000 0.000000 0.000000 0.000000 -0.000000 0.000000
  2 11.433943 -14.041769 20.421991 -1.589777 -0.063148 1.546543
  3 4.222169 -0.467508 0.000000 0.048003 0.370459 -0.183132
  4 4.476987 -0.000002 -0.000000 0.189499 0.378210 -0.033816
  5 4.477083 0.000000 0.000002 0.182156 -0.208765 0.150270
  6 4.477077 -0.000004 -0.000002 -0.053900 -0.319900 0.215092
  7 5.413502 -7.700466 -0.000000 0.071920 0.089034 0.029712
  8 6.890240 0.000002 -0.000000 -0.148669 -0.051587 0.023783
  9 8.011925 0.000004 0.000005 0.161523 -0.182824 -0.250040
 10 7.210720 -0.000002 -0.000000 -0.214174 -0.304001 -0.487780
 11 8.581028 -0.304903 -0.000000 0.020626 -0.104006 0.737921
 12 22.523008 2.194031 6.355708 0.000000 -0.480399 0.000000
 13 22.523005 2.194038 -6.355709 0.000000 0.598660 0.000000
 14 -3.006533 7.804720 -11.355459 0.286838 0.436025 0.681081
 15 10.384675 0.000008 0.000005 -0.022388 0.186396 -1.965673
 16 22.550743 -0.000006 -0.000004 0.129103 0.012101 2.127653
 17 30.814247 -0.000015 -0.000004 2.295228 0.642322 0.601709
 18 -3.013796 7.815494 11.355459 -0.104054 -0.469853 1.165104
 19 10.374533 -0.000002 0.000007 -0.110716 -0.563727 -1.701968
 20 22.550726 -0.000027 -0.000013 -0.108892 0.033608 2.121497
 21 30.814270 -0.000023 0.000002 -2.469734 0.159284 0.600381
 22 -4.250660 -0.770624 0.000001 -0.006220 -0.034133 -2.958428
 23 10.363422 0.000000 0.000000 -0.031484 -0.055089 0.011472
 24 10.363076 0.000000 -0.000000 0.023801 -0.090139 -0.388283
 25 10.363081 -0.000004 -0.000002 -0.040811 -0.129949 -0.040480
 26 9.253358 -0.000006 -3.973408 0.007671 0.142064 -0.250937
 27 8.210346 -0.000002 7.704017 0.028571 -0.272554 -0.253471
 28 1.854841 1.227791 -13.762345 2.178195 0.159018 1.183876
 29 10.456543 -0.000004 0.000004 -0.027862 -0.400344 -2.276057
 30 24.248093 0.000001 0.000007 1.141325 0.290745 2.741311
 31 26.336971 0.000019 0.000002 0.192980 -0.447177 -0.187498
 32 1.854847 1.227798 13.762341 -2.276561 -0.661942 2.279008
 33 10.456542 -0.000008 0.000004 0.523509 -0.170640 -1.284214
 34 24.248116 0.000002 -0.000004 -0.022375 0.096943 1.924015
 35 26.336975 0.000000 0.000004 -0.591402 0.365253 0.303464
time 14
  0 0.000000 0.000000 0.000000 0.000000 -0.000000 -1.570796
  1 0.000000 0.000000 0.000000 0.000000 -0.000000 0.000000
  2 11.332377 -14.151146 20.515743 -1.591023 -0.037220 1.545488
  3 4.222169 -0.467508 0.000000 0.027641 0.321964 -0.216912
  4 4.476987 -0.000002 -0.000000 0.151676 0.324023 -0.030331
  5 4.477083 0.000000 0.000002 0.146477 -0.180124 0.188777
  6 4.477077 -0.000004 -0.000002 -0.058250 -0.283518 0.208645
  7 5.413502 -7.700466 -0.000000 0.103142 0.113008 0.135628
  8 6.890240 0.000002 -0.000000 -0.157430 -0.043471 0.108398
  9 8.011925 0.000004 0.000005 0.166775 -0.175347 -0.209002
 10 7.210720 -0.000002 -0.000000 -0.230480 -0.306367 -0.496468
 11 8.581028 -0.304903 -0.000000 0.029972 -0.107728 0.739638
 12 22.523008 2.194031 6.355708 0.000000 -0.439398 0.000000
 13 22.523005 2.194038 -6.355709 0.000000 0.534169 0.000000
 14 -3.006533 7.804720 -11.355459 0.259437 0.385290 0.657595
 15 10.384675 0.000008 0.000005 -0.006141 0.189515 -1.877421
 16 22.550743 -0.000006 -0.000004 0.126736 0.012761 2.019118
 17 30.814247 -0.000015 -0.000004 2.370706 0.545457 0.641567
 18 -3.013796 7.815494 11.355459 -0.185820 -0.531659 1.304185
 19 10.374533 -0.000002 0.000007 -0.172733 -0.543561 -1.574864
 20 22.550726 -0.000027 -0.000013 -0.107094 0.036926 1.983589
 21 30.814270 -0.000023 0.000002 -2.343550 0.220305 0.483600
 22 -4.250660 -0.770624 0.000001 -0.007191 -0.039236 -2.878743
 23 10.363422 0.000000 0.000000 -0.028152 -0.050499 -0.057517
 24 10.363076 0.000000 -0.000000 0.024832 -0.078802 -0.443542
 25 10.363081 -0.000004 -0.000002 -0.034298 -0.120259 -0.101477
 26 9.253358 -0.000006 -3.973408 0.007035 0.077604 -0.291531
 27 8.210346 -0.000002 7.704017 0.034707 -0.209545 -0.295247
 28 1.854841 1.227791 -13.762345 2.110256 0.113596 1.048733
 29 10.456543 -0.000004 0.000004 -0.021939 -0.402319 -2.295336
 30 24.248093 0.000001 0.000007 1.126089 0.278921 2.748711
 31 26.336971 0.000019 0.000002 0.329843 -0.407128 -0.299386
 32 1.854847 1.227798 13.762341 -2.238374 -0.672832 2.196077
 33 10.456542 -0.000008 0.000004 0.527172 -0.154917 -1.338759
 34 24.248116 0.000002 -0.000004 -0.004640 0.092353 2.005201
 35 26.336975 0.000000 0.000004 -0.634500 0.355109 0.249547
time 15
  0 0.000000 0.000000 0.000000 0.000000 -0.000000 -1.570796
  1 0.000000 0.000000 0.000000 0.000000 -0.000000 0.000000
  2 11.168309 -14.260525 20.660280 -1.591599 -0.005986 1.545201
  3 4.222169 -0.467508 0.000000 0.013835 0.251428 -0.234546
  4 4.476987 -0.000002 -0.000000 0.119893 0.243748 -0.022495
  5 4.477083 0.000000 0.000002 0.105166 -0.140419 0.201020
  6 4.477077 -0.000004 -0.000002 -0.050904 -0.232985 0.174930
  7 5.413502 -7.700466 -0.000000 0.124023 0.135708 0.182799
  8 6.890240 0.000002 -0.000000 -0.154877 -0.034034 0.185891
  9 8.011925 0.000004 0.000005 0.165203 -0.170906 -0.149718
 10 7.210720 -0.000002 -0.000000 -0.235833 -0.303772 -0.479708
 11 8.581028 -0.304903 -0.000000 0.036103 -0.109862 0.758355
 12 22.523008 2.194031 6.355708 0.000000 -0.374628 0.000000
 13 22.523005 2.194038 -6.355709 0.000000 0.454462 0.000000
 14 -3.006533 7.804720 -11.355459 0.249019 0.355507 0.655741
 15 10.384675 0.000008 0.000005 0.005812 0.190809 -1.813829
 16 22.550743 -0.000006 -0.000004 0.124561 0.013335 1.921176
 17 30.814247 -0.000015 -0.000004 2.423951 0.436931 0.671936
 18 -3.013796 7.815494 11.355459 -0.180016 -0.595220 1.202155
 19 10.374533 -0.000002 0.000007 -0.176980 -0.530405 -1.553641
 20 22.550726 -0.000027 -0.000013 -0.108279 0.037986 1.954866
 21 30.814270 -0.000023 0.000002 -2.328956 0.167064 0.494700
 22 -4.250660 -0.770624 0.000001 -0.008461 -0.044917 -2.801567
 23 10.363422 0.000000 0.000000 -0.024353 -0.044986 -0.123843
 24 10.363076 0.000000 -0.000000 0.024233 -0.062527 -0.492116
 25 10.363081 -0.000004 -0.000002 -0.027145 -0.106948 -0.156970
 26 9.253358 -0.000006 -3.973408 0.007695 0.010189 -0.324482
 27 8.210346 -0.000002 7.704017 0.038842 -0.138582 -0.328987
 28 1.854841 1.227791 -13.762345 2.045747 0.069384 0.935060
 29 10.456543 -0.000004 0.000004 -0.015755 -0.397746 -2.302153
 30 24.248093 0.000001 0.000007 1.109221 0.270386 2.741430
 31 26.336971 0.000019 0.000002 0.448520 -0.359012 -0.387251
 32 1.854847 1.227798 13.762341 -2.201505 -0.677375 2.113189
 33 10.456542 -0.000008 0.000004 0.524526 -0.138609 -1.392043
 34 24.248116 0.000002 -0.000004 0.011138 0.086672 2.074405
 35 26.336975 0.000000 0.000004 -0.675410 0.341614 0.199869
time 16
  0 0.000000 0.000000 0.000000 0.000000 -0.000000 -1.570796
  1 0.000000 0.000000 0.000000 0.000000 -0.000000 0.000000
  2 10.949553 -14.358185 20.851692 -1.591503 0.025607 1.545584
  3 4.222169 -0.467508 0.000000 0.011594 0.171956 -0.222586
  4 4.476987 -0.000002 -0.000000 0.083340 0.152593 -0.022606
  5 4.477083 0.000000 0.000002 0.067151 -0.094608 0.157859
  6 4.477077 -0.000004 -0.000002 -0.035827 -0.169899 0.118322
  7 5.413502 -7.700466 -0.000000 0.123385 0.155248 0.049159
  8 6.890240 0.000002 -0.000000 -0.113063 -0.023068 0.242673
  9 8.011925 0.000004 0.000005 0.145885 -0.174692 -0.055495
 10 7.210720 -0.000002 -0.000000 -0.200092 -0.283168 -0.356858
 11 8.581028 -0.304903 -0.000000 0.027905 -0.110886 0.850782
 12 22.523008 2.194031 6.355708 0.000000 -0.293726 0.000000
 13 22.523005 2.194038 -6.355709 0.000000 0.363927 0.000000
 14 -3.006533 7.804720 -11.355459 0.272297 0.349713 0.714250
 15 10.384675 0.000008 0.000005 0.014365 0.191318 -1.768342
 16 22.550743 -0.000006 -0.000004 0.123202 0.013622 1.859796
 17 30.814247 -0.000015 -0.000004 2.457628 0.341226 0.690809
 18 -3.013796 7.815494 11.355459 -0.143155 -0.641929 1.060737
 19 10.374533 -0.000002 0.000007 -0.155341 -0.523030 -1.582576
 20 22.550726 -0.000027 -0.000013 -0.110363 0.037907 1.980363
 21 30.814270 -0.000023 0.000002 -2.332850 0.057623 0.534250
 22 -4.250660 -0.770624 0.000001 -0.008737 -0.050919 -2.757140
 23 10.363422 0.000000 0.000000 -0.020937 -0.038383 -0.160792
 24 10.363076 0.000000 -0.000000 0.023346 -0.046743 -0.510441
 25 10.363081 -0.000004 -0.000002 -0.021469 -0.092744 -0.181186
 26 9.253358 -0.000006 -3.973408 0.007890 -0.019324 -0.336609
 27 8.210346 -0.000002 7.704017 0.040460 -0.095720 -0.341330
 28 1.854841 1.227791 -13.762345 1.976709 0.040863 0.853013
 29 10.456543 -0.000004 0.000004 -0.010025 -0.388119 -2.297029
 30 24.248093 0.000001 0.000007 1.092835 0.263021 2.730063
 31 26.336971 0.000019 0.000002 0.543054 -0.299123 -0.433807
 32 1.854847 1.227798 13.762341 -2.167337 -0.674584 2.031722
 33 10.456542 -0.000008 0.000004 0.521644 -0.122440 -1.445524
 34 24.248116 0.000002 -0.000004 0.024818 0.080368 2.131372
 35 26.336975 0.000000 0.000004 -0.713190 0.325173 0.155786
time 17
  0 0.000000 0.000000 0.000000 0.000000 -0.000000 -1.570796
  1 0.000000 0.000000 0.000000 0.000000 -0.000000 0.000000
  2 10.676107 -14.451937 21.074354 -1.591023 0.052532 1.546447
  3 4.222169 -0.467508 0.000000 0.012277 0.100400 -0.189894
  4 4.476987 -0.000002 -0.000000 0.044917 0.068185 -0.026602
  5 4.477083 0.000000 0.000002 0.027375 -0.048748 0.073701
  6 4.477077 -0.000004 -0.000002 -0.024034 -0.107076 0.061294
  7 5.413502 -7.700466 -0.000000 0.114453 0.172545 -0.230006
  8 6.890240 0.000002 -0.000000 -0.035750 -0.012730 0.280559
  9 8.011925 0.000004 0.000005 0.120491 -0.179181 0.046800
 10 7.210720 -0.000002 -0.000000 -0.123942 -0.246163 -0.121026
 11 8.581028 -0.304903 -0.000000 0.009718 -0.111023 1.009943
 12 22.523008 2.194031 6.355708 0.000000 -0.210717 0.000000
 13 22.523005 2.194038 -6.355709 0.000000 0.269035 0.000000
 14 -3.006533 7.804720 -11.355459 0.314836 0.336605 0.823235
 15 10.384675 0.000008 0.000005 0.022695 0.191615 -1.722188
 16 22.550743 -0.000006 -0.000004 0.122194 0.013794 1.811733
 17 30.814247 -0.000015 -0.000004 2.476803 0.258593 0.702125
 18 -3.013796 7.815494 11.355459 -0.111436 -0.675709 0.955457
 19 10.374533 -0.000002 0.000007 -0.136264 -0.515089 -1.606930
 20 22.550726 -0.000027 -0.000013 -0.112140 0.037966 2.001518
 21 30.814270 -0.000023 0.000002 -2.327027 -0.057153 0.563257
 22 -4.250660 -0.770624 0.000001 -0.006448 -0.056825 -2.764412
 23 10.363422 0.000000 0.000000 -0.018408 -0.031431 -0.160704
 24 10.363076 0.000000 -0.000000 0.026234 -0.046324 -0.501898
 25 10.363081 -0.000004 -0.000002 -0.017480 -0.078478 -0.165293
 26 9.253358 -0.000006 -3.973408 0.007011 -0.015860 -0.318333
 27 8.210346 -0.000002 7.704017 0.040256 -0.080773 -0.323019
 28 1.854841 1.227791 -13.762345 1.889641 0.090182 0.870468
 29 10.456543 -0.000004 0.000004 -0.004015 -0.374008 -2.282136
 30 24.248093 0.000001 0.000007 1.076672 0.255515 2.718696
 31 26.336971 0.000019 0.000002 0.569722 -0.230799 -0.356932
 32 1.854847 1.227798 13.762341 -2.137929 -0.664268 1.954521
 33 10.456542 -0.000008 0.000004 0.518252 -0.106495 -1.498689
 34 24.248116 0.000002 -0.000004 0.036205 0.073968 2.175849
 35 26.336975 0.000000 0.000004 -0.746982 0.305784 0.117298
time 18
  0 0.000000 0.000000 0.000000 0.000000 -0.000000 -1.570796
  1 0.000000 0.000000 0.000000 0.000000 -0.000000 0.000000
  2 10.351878 -14.533972 21.336082 -1.590161 0.070203 1.547789
  3 4.222169 -0.467508 0.000000 0.007100 0.038484 -0.166986
  4 4.476987 -0.000002 -0.000000 0.008628 0.007872 -0.032040
  5 4.477083 0.000000 0.000002 -0.010904 -0.014309 0.003980
  6 4.477077 -0.000004 -0.000002 -0.017347 -0.058535 0.016054
  7 5.413502 -7.700466 -0.000000 0.104963 0.185187 -0.507584
  8 6.890240 0.000002 -0.000000 0.036074 -0.004731 0.312976
  9 8.011925 0.000004 0.000005 0.097191 -0.181498 0.140191
 10 7.210720 -0.000002 -0.000000 -0.043894 -0.211171 0.114483
 11 8.581028 -0.304903 -0.000000 -0.007551 -0.108923 1.163006
 12 22.523008 2.194031 6.355708 0.000000 -0.131587 0.000000
 13 22.523005 2.194038 -6.355709 0.000000 0.176171 0.000000
 14 -3.006533 7.804720 -11.355459 0.352438 0.316573 0.927824
 15 10.384675 0.000008 0.000005 0.031397 0.191658 -1.673258
 16 22.550743 -0.000006 -0.000004 0.121123 0.013966 1.760885
 17 30.814247 -0.000015 -0.000004 2.486980 0.202762 0.709896
 18 -3.013796 7.815494 11.355459 -0.088627 -0.687965 0.896177
 19 10.374533 -0.000002 0.000007 -0.121434 -0.503827 -1.621426
 20 22.550726 -0.000027 -0.000013 -0.113754 0.038123 2.011754
 21 30.814270 -0.000023 0.000002 -2.322958 -0.163047 0.587300
 22 -4.250660 -0.770624 0.000001 -0.001762 -0.062923 -2.796164
 23 10.363422 0.000000 0.000000 -0.015892 -0.024528 -0.159515
 24 10.363076 0.000000 -0.000000 0.029087 -0.047882 -0.463286
 25 10.363081 -0.000004 -0.000002 -0.014094 -0.063010 -0.120162
 26 9.253358 -0.000006 -3.973408 0.006669 -0.013958 -0.270571
 27 8.210346 -0.000002 7.704017 0.038423 -0.067682 -0.275139
 28 1.854841 1.227791 -13.762345 1.830628 0.233133 1.010051
 29 10.456543 -0.000004 0.000004 -0.001761 -0.349861 -2.235808
 30 24.248093 0.000001 0.000007 1.061621 0.255575 2.687379
 31 26.336971 0.000019 0.000002 0.510557 -0.180213 -0.155136
 32 1.854847 1.227798 13.762341 -2.115780 -0.647440 1.885978
 33 10.456542 -0.000008 0.000004 0.511063 -0.091244 -1.551775
 34 24.248116 0.000002 -0.000004 0.045622 0.067640 2.211339
 35 26.336975 0.000000 0.000004 -0.776357 0.282984 0.083162
time 19
  0 0.000000 0.000000 0.000000 0.000000 -0.000000 -1.570796
  1 0.000000 0.000000 0.000000 0.000000 -0.000000 0.000000
  2 9.980773 -14.612099 21.621246 -1.589202 0.075150 1.549227
  3 4.222169 -0.467508 0.000000 0.002282 0.009880 -0.158338
  4 4.476987 -0.000002 -0.000000 -0.010464 -0.017208 -0.030264
  5 4.477083 0.000000 0.000002 -0.027958 0.000326 -0.025530
  6 4.477077 -0.000004 -0.000002 -0.015214 -0.037299 -0.006745
  7 5.413502 -7.700466 -0.000000 0.100085 0.189689 -0.644366
  8 6.890240 0.000002 -0.000000 0.081699 0.001320 0.323844
  9 8.011925 0.000004 0.000005 0.082444 -0.181354 0.184499
 10 7.210720 -0.000002 -0.000000 0.003102 -0.183682 0.230629
 11 8.581028 -0.304903 -0.000000 -0.016920 -0.105440 1.243972
 12 22.523008 2.194031 6.355708 0.000000 -0.061562 0.000000
 13 22.523005 2.194038 -6.355709 0.000000 0.093712 0.000000
 14 -3.006533 7.804720 -11.355459 0.367143 0.302547 0.976582
 15 10.384675 0.000008 0.000005 0.040661 0.191297 -1.620551
 16 22.550743 -0.000006 -0.000004 0.120019 0.014081 1.708585
 17 30.814247 -0.000015 -0.000004 2.492964 0.186273 0.718813
 18 -3.013796 7.815494 11.355459 -0.074270 -0.674177 0.877709
 19 10.374533 -0.000002 0.000007 -0.116716 -0.485189 -1.612149
 20 22.550726 -0.000027 -0.000013 -0.115429 0.038496 1.995004
 21 30.814270 -0.000023 0.000002 -2.332359 -0.214966 0.600102
 22 -4.250660 -0.770624 0.000001 0.006196 -0.069550 -2.849296
 23 10.363422 0.000000 0.000000 -0.013315 -0.017577 -0.158107
 24 10.363076 0.000000 -0.000000 0.027672 -0.033057 -0.383302
 25 10.363081 -0.000004 -0.000002 -0.010733 -0.046695 -0.052722
 26 9.253358 -0.000006 -3.973408 0.006571 -0.013823 -0.199914
 27 8.210346 -0.000002 7.704017 0.035726 -0.055984 -0.204506
 28 1.854841 1.227791 -13.762345 1.878384 0.385631 1.233445
 29 10.456543 -0.000004 0.000004 -0.004469 -0.311940 -2.141805
 30 24.248093 0.000001 0.000007 1.046013 0.273392 2.604793
 31 26.336971 0.000019 0.000002 0.386441 -0.157193 0.065382
 32 1.854847 1.227798 13.762341 -2.102714 -0.626016 1.830619
 33 10.456542 -0.000008 0.000004 0.495801 -0.077859 -1.605020
 34 24.248116 0.000002 -0.000004 0.053201 0.061336 2.241295
 35 26.336975 0.000000 0.000004 -0.800071 0.255933 0.052473
time 20
  0 0.000000 0.000000 0.000000 0.000000 -0.000000 -1.570796
  1 0.000000 0.000000 0.000000 0.000000 -0.000000 0.000000
  2 9.566698 -14.674601 21.941568 -1.587860 0.049421 1.550761
  3 4.222169 -0.467508 0.000000 0.001191 0.012012 -0.144093
  4 4.476987 -0.000002 -0.000000 -0.009781 -0.019157 -0.007867
  5 4.477083 0.000000 0.000002 -0.028498 0.003896 -0.020743
  6 4.477077 -0.000004 -0.000002 -0.015106 -0.034180 -0.014656
  7 5.413502 -7.700466 -0.000000 0.099540 0.186359 -0.635467
  8 6.890240 0.000002 -0.000000 0.092725 0.006208 0.301410
  9 8.011925 0.000004 0.000005 0.079340 -0.177919 0.161995
 10 7.210720 -0.000002 -0.000000 0.018859 -0.162797 0.218749
 11 8.581028 -0.304903 -0.000000 -0.018803 -0.100387 1.255854
 12 22.523008 2.194031 6.355708 0.000000 -0.016865 0.000000
 13 22.523005 2.194038 -6.355709 0.000000 0.033879 0.000000
 14 -3.006533 7.804720 -11.355459 0.358787 0.301628 0.960856
 15 10.384675 0.000008 0.000005 0.050521 0.190427 -1.564179
 16 22.550743 -0.000006 -0.000004 0.118868 0.014196 1.654347
 17 30.814247 -0.000015 -0.000004 2.498511 0.183076 0.729163
 18 -3.013796 7.815494 11.355459 -0.062102 -0.651271 0.869900
 19 10.374533 -0.000002 0.000007 -0.115570 -0.463528 -1.593246
 20 22.550726 -0.000027 -0.000013 -0.117104 0.038909 1.967335
 21 30.814270 -0.000023 0.000002 -2.357056 -0.202684 0.598958
 22 -4.250660 -0.770624 0.000001 0.015388 -0.076050 -2.910673
 23 10.363422 0.000000 0.000000 -0.010714 -0.010590 -0.156324
 24 10.363076 0.000000 -0.000000 0.026390 -0.018747 -0.285173
 25 10.363081 -0.000004 -0.000002 -0.007076 -0.029949 0.031149
 26 9.253358 -0.000006 -3.973408 0.006400 -0.013992 -0.112475
 27 8.210346 -0.000002 7.704017 0.032538 -0.046359 -0.117088
 28 1.854841 1.227791 -13.762345 2.107485 0.436431 1.556523
 29 10.456543 -0.000004 0.000004 -0.016646 -0.255514 -1.988709
 30 24.248093 0.000001 0.000007 1.004826 0.320628 2.410791
 31 26.336971 0.000019 0.000002 0.166008 -0.168834 0.268172
 32 1.854847 1.227798 13.762341 -2.113046 -0.599393 1.813214
 33 10.456542 -0.000008 0.000004 0.476776 -0.065865 -1.658737
 34 24.248116 0.000002 -0.000004 0.058525 0.055116 2.265057
 35 26.336975 0.000000 0.000004 -0.810449 0.220599 0.026080
time 21
  0 0.000000 0.000000 0.000000 0.000000 -0.000000 -1.570796
  1 0.000000 0.000000 0.000000 0.000000 -0.000000 0.000000
  2 9.113560 -14.729290 22.281422 -1.585943 -0.015440 1.552582
  3 4.222169 -0.467508 0.000000 -0.001098 0.009509 -0.120740
  4 4.476987 -0.000002 -0.000000 -0.006449 -0.017958 0.038769
  5 4.477083 0.000000 0.000002 -0.025693 0.007062 0.001312
  6 4.477077 -0.000004 -0.000002 -0.015058 -0.032019 -0.021944
  7 5.413502 -7.700466 -0.000000 0.100537 0.177082 -0.559578
  8 6.890240 0.000002 -0.000000 0.089141 0.010155 0.255217
  9 8.011925 0.000004 0.000005 0.079904 -0.171050 0.109822
 10 7.210720 -0.000002 -0.000000 0.025667 -0.146201 0.145296
 11 8.581028 -0.304903 -0.000000 -0.018826 -0.094207 1.251087
 12 22.523008 2.194031 6.355708 0.000000 -0.004980 0.000000
 13 22.523005 2.194038 -6.355709 0.000000 0.010345 0.000000
 14 -3.006533 7.804720 -11.355459 0.345764 0.303889 0.930571
 15 10.384675 0.000008 0.000005 0.060681 0.188963 -1.505362
 16 22.550743 -0.000006 -0.000004 0.117620 0.014225 1.598052
 17 30.814247 -0.000015 -0.000004 2.504102 0.178060 0.739369
 18 -3.013796 7.815494 11.355459 -0.050188 -0.629374 0.861407
 19 10.374533 -0.000002 0.000007 -0.113547 -0.442266 -1.575676
 20 22.550726 -0.000027 -0.000013 -0.118677 0.039242 1.941652
 21 30.814270 -0.000023 0.000002 -2.385120 -0.176186 0.593659
 22 -4.250660 -0.770624 0.000001 0.024245 -0.082148 -2.968722
 23 10.363422 0.000000 0.000000 -0.008138 -0.003639 -0.154520
 24 10.363076 0.000000 -0.000000 0.025779 -0.006535 -0.178165
 25 10.363081 -0.000004 -0.000002 -0.003038 -0.013280 0.124685
 26 9.253358 -0.000006 -3.973408 0.006009 -0.013687 -0.014845
 27 8.210346 -0.000002 7.704017 0.029003 -0.039117 -0.019566
 28 1.854841 1.227791 -13.762345 2.440585 0.326442 1.940726
 29 10.456543 -0.000004 0.000004 -0.032561 -0.164014 -1.710652
 30 24.248093 0.000001 0.000007 0.884157 0.389152 2.005144
 31 26.336971 0.000019 0.000002 -0.123074 -0.161134 0.494931
 32 1.854847 1.227798 13.762341 -2.144851 -0.568392 1.831653
 33 10.456542 -0.000008 0.000004 0.457784 -0.054789 -1.712651
 34 24.248116 0.000002 -0.000004 0.061090 0.049112 2.281507
 35 26.336975 0.000000 0.000004 -0.801958 0.177076 0.006129
time 22
  0 0.000000 0.000000 0.000000 0.000000 -0.000000 -1.570796
  1 0.000000 0.000000 0.000000 0.000000 -0.000000 0.000000
  2 8.625263 -14.772259 22.644714 -1.584217 -0.090951 1.554404
  3 4.222169 -0.467508 0.000000 -0.003854 0.006655 -0.090655
  4 4.476987 -0.000002 -0.000000 -0.004951 -0.018343 0.100256
  5 4.477083 0.000000 0.000002 -0.023224 0.011811 0.030733
  6 4.477077 -0.000004 -0.000002 -0.014950 -0.029801 -0.029435
  7 5.413502 -7.700466 -0.000000 0.102836 0.162571 -0.454657
  8 6.890240 0.000002 -0.000000 0.084419 0.013501 0.197620
  9 8.011925 0.000004 0.000005 0.081122 -0.159643 0.032238
 10 7.210720 -0.000002 -0.000000 0.031816 -0.130718 0.055297
 11 8.581028 -0.304903 -0.000000 -0.019101 -0.088198 1.248248
 12 22.523008 2.194031 6.355708 0.000000 -0.003513 0.000000
 13 22.523005 2.194038 -6.355709 0.000000 0.008258 0.000000
 14 -3.006533 7.804720 -11.355459 0.333610 0.304914 0.903170
 15 10.384675 0.000008 0.000005 0.071289 0.186842 -1.443658
 16 22.550743 -0.000006 -0.000004 0.116245 0.014225 1.537821
 17 30.814247 -0.000015 -0.000004 2.509693 0.173013 0.749540
 18 -3.013796 7.815494 11.355459 -0.038936 -0.607589 0.854225
 19 10.374533 -0.000002 0.000007 -0.111121 -0.421036 -1.558280
 20 22.550726 -0.000027 -0.000013 -0.120188 0.039478 1.916837
 21 30.814270 -0.000023 0.000002 -2.411957 -0.152624 0.587997
 22 -4.250660 -0.770624 0.000001 0.032802 -0.087957 -3.024133
 23 10.363422 0.000000 0.000000 -0.005609 0.003228 -0.152957
 24 10.363076 0.000000 -0.000000 0.025779 0.004287 -0.069609
 25 10.363081 -0.000004 -0.000002 0.001148 0.002927 0.220959
 26 9.253358 -0.000006 -3.973408 0.005509 -0.012838 0.086080
 27 8.210346 -0.000002 7.704017 0.025228 -0.033795 0.081179
 28 1.854841 1.227791 -13.762345 2.633364 0.204858 2.200551
 29 10.456543 -0.000004 0.000004 -0.021258 -0.083796 -1.445838
 30 24.248093 0.000001 0.000007 0.731977 0.394398 1.605654
 31 26.336971 0.000019 0.000002 -0.262982 -0.102481 0.640673
 32 1.854847 1.227798 13.762341 -2.179221 -0.535968 1.855089
 33 10.456542 -0.000008 0.000004 0.436249 -0.045077 -1.766447
 34 24.248116 0.000002 -0.000004 0.060766 0.043383 2.290392
 35 26.336975 0.000000 0.000004 -0.783047 0.131257 -0.010034
time 23
  0 0.000000 0.000000 0.000000 0.000000 -0.000000 -1.570796
  1 0.000000 0.000000 0.000000 0.000000 -0.000000 0.000000
  2 8.097903 -14.803511 23.031445 -1.582971 -0.162553 1.556129
  3 4.222169 -0.467508 0.000000 -0.006215 0.004152 -0.064373
  4 4.476987 -0.000002 -0.000000 -0.003561 -0.018664 0.162875
  5 4.477083 0.000000 0.000002 -0.020899 0.016819 0.060599
  6 4.477077 -0.000004 -0.000002 -0.014806 -0.027790 -0.036925
  7 5.413502 -7.700466 -0.000000 0.104325 0.146209 -0.340309
  8 6.890240 0.000002 -0.000000 0.079170 0.016442 0.135416
  9 8.011925 0.000004 0.000005 0.081763 -0.146192 -0.056456
 10 7.210720 -0.000002 -0.000000 0.036455 -0.115640 -0.038322
 11 8.581028 -0.304903 -0.000000 -0.019354 -0.082171 1.244848
 12 22.523008 2.194031 6.355708 0.000000 -0.001466 0.000000
 13 22.523005 2.194038 -6.355709 0.000000 0.007472 0.000000
 14 -3.006533 7.804720 -11.355459 0.321890 0.304985 0.876937
 15 10.384675 0.000008 0.000005 0.079805 0.184508 -1.393451
 16 22.550743 -0.000006 -0.000004 0.115078 0.014253 1.487277
 17 30.814247 -0.000015 -0.000004 2.515022 0.167433 0.759496
 18 -3.013796 7.815494 11.355459 -0.028601 -0.585878 0.848924
 19 10.374533 -0.000002 0.000007 -0.108222 -0.399840 -1.541117
 20 22.550726 -0.000027 -0.000013 -0.121598 0.039635 1.893201
 21 30.814270 -0.000023 0.000002 -2.438267 -0.129845 0.581526
 22 -4.250660 -0.770624 0.000001 0.041035 -0.093558 -3.076907
 23 10.363422 0.000000 0.000000 -0.003188 0.009975 -0.151923
 24 10.363076 0.000000 -0.000000 0.026294 0.014163 0.033243
 25 10.363081 -0.000004 -0.000002 0.005014 0.018472 0.313663
 26 9.253358 -0.000006 -3.973408 0.004983 -0.011649 0.184016
 27 8.210346 -0.000002 7.704017 0.021321 -0.029771 0.178905
 28 1.854841 1.227791 -13.762345 2.682791 0.184874 2.296648
 29 10.456543 -0.000004 0.000004 -0.011300 -0.060735 -1.394473
 30 24.248093 0.000001 0.000007 0.660503 0.360742 1.501223
 31 26.336971 0.000019 0.000002 -0.250975 -0.068607 0.641335
 32 1.854847 1.227798 13.762341 -2.213221 -0.502723 1.878956
 33 10.456542 -0.000008 0.000004 0.409050 -0.037368 -1.820322
 34 24.248116 0.000002 -0.000004 0.057981 0.037859 2.292575
 35 26.336975 0.000000 0.000004 -0.760447 0.085407 -0.025633
time 24
  0 0.000000 0.000000 0.000000 0.000000 -0.000000 -1.570796
  1 0.000000 0.000000 0.000000 0.000000 -0.000000 0.000000
  2 7.539292 -14.823042 23.441614 -1.582012 -0.229249 1.557759
  3 4.222169 -0.467508 0.000000 -0.007294 0.002706 -0.051738
  4 4.476987 -0.000002 -0.000000 -0.001631 -0.018150 0.204917
  5 4.477083 0.000000 0.000002 -0.018922 0.020938 0.083736
  6 4.477077 -0.000004 -0.000002 -0.014614 -0.025949 -0.044463
  7 5.413502 -7.700466 -0.000000 0.103793 0.129914 -0.225930
  8 6.890240 0.000002 -0.000000 0.073454 0.018991 0.070535
  9 8.011925 0.000004 0.000005 0.081095 -0.132789 -0.145279
 10 7.210720 -0.000002 -0.000000 0.039722 -0.100828 -0.132075
 11 8.581028 -0.304903 -0.000000 -0.019584 -0.076145 1.240712
 12 22.523008 2.194031 6.355708 0.000000 0.000031 0.000000
 13 22.523005 2.194038 -6.355709 0.000000 0.006443 0.000000
 14 -3.006533 7.804720 -11.355459 0.310658 0.303960 0.852421
 15 10.384675 0.000008 0.000005 0.080178 0.184338 -1.390674
 16 22.550743 -0.000006 -0.000004 0.115142 0.014253 1.483705
 17 30.814247 -0.000015 -0.000004 2.522535 0.166085 0.770096
 18 -3.013796 7.815494 11.355459 -0.019233 -0.564280 0.845846
 19 10.374533 -0.000002 0.000007 -0.105054 -0.378611 -1.523605
 20 22.550726 -0.000027 -0.000013 -0.122966 0.039694 1.870805
 21 30.814270 -0.000023 0.000002 -2.464191 -0.107775 0.574274
 22 -4.250660 -0.770624 0.000001 0.048933 -0.099126 -3.126992
 23 10.363422 0.000000 0.000000 -0.000899 0.016603 -0.151703
 24 10.363076 0.000000 -0.000000 0.027133 0.023403 0.123887
 25 10.363081 -0.000004 -0.000002 0.008104 0.033308 0.396836
 26 9.253358 -0.000006 -3.973408 0.004470 -0.010257 0.272915
 27 8.210346 -0.000002 7.704017 0.017498 -0.026553 0.267476
 28 1.854841 1.227791 -13.762345 2.697082 0.189784 2.330220
 29 10.456543 -0.000004 0.000004 -0.009204 -0.056268 -1.432334
 30 24.248093 0.000001 0.000007 0.620242 0.329405 1.512294
 31 26.336971 0.000019 0.000002 -0.211517 -0.053208 0.602069
 32 1.854847 1.227798 13.762341 -2.245870 -0.466687 1.897309
 33 10.456542 -0.000008 0.000004 0.379273 -0.031496 -1.874670
 34 24.248116 0.000002 -0.000004 0.053486 0.032418 2.289580
 35 26.336975 0.000000 0.000004 -0.735404 0.038409 -0.043323
time 25
  0 0.000000 0.000000 0.000000 0.000000 -0.000000 -1.570796
  1 0.000000 0.000000 0.000000 0.000000 -0.000000 0.000000
  2 6.953337 -14.826948 23.871315 -1.581246 -0.254898 1.559101
  3 4.222169 -0.467508 0.000000 -0.007438 0.001983 -0.047245
  4 4.476987 -0.000002 -0.000000 -0.000421 -0.017765 0.217303
  5 4.477083 0.000000 0.000002 -0.017652 0.023054 0.092495
  6 4.477077 -0.000004 -0.000002 -0.014387 -0.024314 -0.051984
  7 5.413502 -7.700466 -0.000000 0.102238 0.114130 -0.120076
  8 6.890240 0.000002 -0.000000 0.067497 0.021108 0.002862
  9 8.011925 0.000004 0.000005 0.079799 -0.119976 -0.223616
 10 7.210720 -0.000002 -0.000000 0.041698 -0.086456 -0.223120
 11 8.581028 -0.304903 -0.000000 -0.019767 -0.070135 1.235735
 12 22.523008 2.194031 6.355708 0.000000 0.001008 0.000000
 13 22.523005 2.194038 -6.355709 0.000000 0.005505 0.000000
 14 -3.006533 7.804720 -11.355459 0.300186 0.301699 0.830171
 15 10.384675 0.000008 0.000005 0.073754 0.186014 -1.428885
 16 22.550743 -0.000006 -0.000004 0.116069 0.014053 1.521236
 17 30.814247 -0.000015 -0.000004 2.537735 0.176994 0.786390
 18 -3.013796 7.815494 11.355459 -0.010833 -0.543018 0.845390
 19 10.374533 -0.000002 0.000007 -0.100807 -0.356983 -1.510500
 20 22.550726 -0.000027 -0.000013 -0.124274 0.039674 1.850085
 21 30.814270 -0.000023 0.000002 -2.489590 -0.086513 0.566325
 22 -4.250660 -0.770624 0.000001 0.056388 -0.104711 3.109309
 23 10.363422 0.000000 0.000000 0.001174 0.023050 -0.152583
 24 10.363076 0.000000 -0.000000 0.027912 0.031960 0.196077
 25 10.363081 -0.000004 -0.000002 0.010259 0.047189 0.464330
 26 9.253358 -0.000006 -3.973408 0.003982 -0.008864 0.345781
 27 8.210346 -0.000002 7.704017 0.014010 -0.023675 0.339940
 28 1.854841 1.227791 -13.762345 2.702403 0.185244 2.331741
 29 10.456543 -0.000004 0.000004 -0.005902 -0.048403 -1.458907
 30 24.248093 0.000001 0.000007 0.573087 0.299361 1.505012
 31 26.336971 0.000019 0.000002 -0.163880 -0.042381 0.581360
 32 1.854847 1.227798 13.762341 -2.274332 -0.424987 1.898386
 33 10.456542 -0.000008 0.000004 0.349700 -0.026877 -1.930279
 34 24.248116 0.000002 -0.000004 0.047993 0.026977 2.282980
 35 26.336975 0.000000 0.000004 -0.708087 0.001308 -0.049596
time 26
  0 0.000000 0.000000 0.000000 0.000000 -0.000000 -1.570796
  1 0.000000 0.000000 0.000000 0.000000 -0.000000 0.000000
  2 6.340037 -14.815229 24.324453 -1.580479 -0.255616 1.560060
  3 4.222169 -0.467508 0.000000 -0.007330 0.001427 -0.042691
  4 4.476987 -0.000002 -0.000000 0.000526 -0.017551 0.220078
  5 4.477083 0.000000 0.000002 -0.016669 0.023943 0.090168
  6 4.477077 -0.000004 -0.000002 -0.014123 -0.022848 -0.059522
  7 5.413502 -7.700466 -0.000000 0.102159 0.099789 -0.050254
  8 6.890240 0.000002 -0.000000 0.061445 0.022585 -0.059249
  9 8.011925 0.000004 0.000005 0.079406 -0.108298 -0.273089
 10 7.210720 -0.000002 -0.000000 0.042687 -0.073939 -0.287696
 11 8.581028 -0.304903 -0.000000 -0.019928 -0.064143 1.229811
 12 22.523008 2.194031 6.355708 0.000000 0.001558 0.000000
 13 22.523005 2.194038 -6.355709 0.000000 0.004658 0.000000
 14 -3.006533 7.804720 -11.355459 0.290908 0.297424 0.811835
 15 10.384675 0.000008 0.000005 0.065051 0.187902 -1.480703
 16 22.550743 -0.000006 -0.000004 0.117141 0.013966 1.571599
 17 30.814247 -0.000015 -0.000004 2.556648 0.192073 0.807089
 18 -3.013796 7.815494 11.355459 -0.004723 -0.522205 0.850235
 19 10.374533 -0.000002 0.000007 -0.094672 -0.334990 -1.509805
 20 22.550726 -0.000027 -0.000013 -0.125131 0.039537 1.837181
 21 30.814270 -0.000023 0.000002 -2.514462 -0.066157 0.557763
 22 -4.250660 -0.770624 0.000001 0.061529 -0.110103 3.078198
 23 10.363422 0.000000 0.000000 0.003020 0.029258 -0.154850
 24 10.363076 0.000000 -0.000000 0.028116 0.039762 0.244625
 25 10.363081 -0.000004 -0.000002 0.011416 0.059883 0.510642
 26 9.253358 -0.000006 -3.973408 0.003518 -0.007675 0.392116
 27 8.210346 -0.000002 7.704017 0.011134 -0.020425 0.385954
 28 1.854841 1.227791 -13.762345 2.696730 0.177966 2.302973
 29 10.456543 -0.000004 0.000004 -0.002425 -0.039488 -1.484437
 30 24.248093 0.000001 0.000007 0.522855 0.270668 1.492994
 31 26.336971 0.000019 0.000002 -0.112198 -0.033315 0.565455
 32 1.854847 1.227798 13.762341 -2.307555 -0.387611 1.911095
 33 10.456542 -0.000008 0.000004 0.318771 -0.026348 -1.975917
 34 24.248116 0.000002 -0.000004 0.038951 0.022063 2.252618
 35 26.336975 0.000000 0.000004 -0.673481 -0.000306 0.005621
time 27
  0 0.000000 0.000000 0.000000 0.000000 -0.000000 -1.570796
  1 0.000000 0.000000 0.000000 0.000000 -0.000000 0.000000
  2 5.699393 -14.791792 24.793219 -1.579712 -0.255297 1.560923
  3 4.222169 -0.467508 0.000000 -0.007078 0.000982 -0.037232
  4 4.476987 -0.000002 -0.000000 0.001772 -0.017251 0.221698
  5 4.477083 0.000000 0.000002 -0.015566 0.024589 0.082431
  6 4.477077 -0.000004 -0.000002 -0.013799 -0.021551 -0.067074
  7 5.413502 -7.700466 -0.000000 0.101109 0.087470 -0.019387
  8 6.890240 0.000002 -0.000000 0.055321 0.023003 -0.098810
  9 8.011925 0.000004 0.000005 0.078345 -0.097355 -0.302135
 10 7.210720 -0.000002 -0.000000 0.042412 -0.063028 -0.307273
 11 8.581028 -0.304903 -0.000000 -0.020043 -0.058185 1.222836
 12 22.523008 2.194031 6.355708 0.000000 0.001772 0.000000
 13 22.523005 2.194038 -6.355709 0.000000 0.003872 0.000000
 14 -3.006533 7.804720 -11.355459 0.282823 0.291029 0.797620
 15 10.384675 0.000008 0.000005 0.055676 0.189515 -1.535854
 16 22.550743 -0.000006 -0.000004 0.118276 0.014053 1.623294
 17 30.814247 -0.000015 -0.000004 2.574819 0.206148 0.826249
 18 -3.013796 7.815494 11.355459 -0.004876 -0.501914 0.869273
 19 10.374533 -0.000002 0.000007 -0.088471 -0.313960 -1.512820
 20 22.550726 -0.000027 -0.000013 -0.125479 0.039282 1.833583
 21 30.814270 -0.000023 0.000002 -2.538948 -0.046558 0.548586
 22 -4.250660 -0.770624 0.000001 0.063518 -0.115399 3.068365
 23 10.363422 0.000000 0.000000 0.004554 0.035239 -0.158525
 24 10.363076 0.000000 -0.000000 0.027193 0.046737 0.264163
 25 10.363081 -0.000004 -0.000002 0.011404 0.071099 0.530133
 26 9.253358 -0.000006 -3.973408 0.003090 -0.006657 0.410868
 27 8.210346 -0.000002 7.704017 0.008869 -0.016712 0.404537
 28 1.854841 1.227791 -13.762345 2.689299 0.170268 2.269156
 29 10.456543 -0.000004 0.000004 0.001208 -0.029487 -1.509056
 30 24.248093 0.000001 0.000007 0.470917 0.242359 1.478431
 31 26.336971 0.000019 0.000002 -0.061255 -0.023119 0.549273
 32 1.854847 1.227798 13.762341 -2.358841 -0.365256 1.977095
 33 10.456542 -0.000008 0.000004 0.283060 -0.036450 -1.978597
 34 24.248116 0.000002 -0.000004 0.024183 0.017712 2.168436
 35 26.336975 0.000000 0.000004 -0.624894 0.017656 0.135100
time 28
  0 0.000000 0.000000 0.000000 0.000000 -0.000000 -1.570796
  1 0.000000 0.000000 0.000000 0.000000 -0.000000 0.000000
  2 5.035310 -14.748821 25.285421 -1.578849 -0.255097 1.561785
  3 4.222169 -0.467508 0.000000 -0.006695 0.000630 -0.031206
  4 4.476987 -0.000002 -0.000000 0.003211 -0.016865 0.221609
  5 4.477083 0.000000 0.000002 -0.014320 0.025154 0.070885
  6 4.477077 -0.000004 -0.000002 -0.013440 -0.020424 -0.074643
  7 5.413502 -7.700466 -0.000000 0.095300 0.077768 -0.031087
  8 6.890240 0.000002 -0.000000 0.049185 0.022925 -0.130436
  9 8.011925 0.000004 0.000005 0.074848 -0.088393 -0.293984
 10 7.210720 -0.000002 -0.000000 0.040683 -0.053212 -0.297109
 11 8.581028 -0.304903 -0.000000 -0.019561 -0.052227 1.205872
 12 22.523008 2.194031 6.355708 0.000000 0.001680 0.000000
 13 22.523005 2.194038 -6.355709 0.000000 0.003176 0.000000
 14 -3.006533 7.804720 -11.355459 0.275281 0.283256 0.785671
 15 10.384675 0.000008 0.000005 0.045666 0.190767 -1.593559
 16 22.550743 -0.000006 -0.000004 0.119460 0.014110 1.673718
 17 30.814247 -0.000015 -0.000004 2.589888 0.219314 0.838031
 18 -3.013796 7.815494 11.355459 -0.008542 -0.481811 0.896975
 19 10.374533 -0.000002 0.000007 -0.083011 -0.294425 -1.515081
 20 22.550726 -0.000027 -0.000013 -0.125520 0.039026 1.835134
 21 30.814270 -0.000023 0.000002 -2.563083 -0.027621 0.538964
 22 -4.250660 -0.770624 0.000001 0.063171 -0.120791 3.074229
 23 10.363422 0.000000 0.000000 0.005693 0.040740 -0.166491
 24 10.363076 0.000000 -0.000000 0.024748 0.052981 0.252291
 25 10.363081 -0.000004 -0.000002 0.009988 0.080712 0.520199
 26 9.253358 -0.000006 -3.973408 0.002663 -0.005808 0.408625
 27 8.210346 -0.000002 7.704017 0.007023 -0.012936 0.402231
 28 1.854841 1.227791 -13.762345 2.682395 0.162373 2.236070
 29 10.456543 -0.000004 0.000004 0.004965 -0.018419 -1.532720
 30 24.248093 0.000001 0.000007 0.418386 0.213646 1.463335
 31 26.336971 0.000019 0.000002 -0.010051 -0.012240 0.536185
 32 1.854847 1.227798 13.762341 -2.411309 -0.339700 2.043828
 33 10.456542 -0.000008 0.000004 0.244059 -0.053175 -1.942142
 34 24.248116 0.000002 -0.000004 0.007666 0.012907 2.020941
 35 26.336975 0.000000 0.000004 -0.572791 0.029661 0.276222
time 29
  0 0.000000 0.000000 0.000000 0.000000 -0.000000 -1.570796
  1 0.000000 0.000000 0.000000 0.000000 -0.000000 0.000000
  2 4.347789 -14.686319 25.797155 -1.577890 -0.254818 1.562648
  3 4.222169 -0.467508 0.000000 -0.006203 0.000370 -0.024736
  4 4.476987 -0.000002 -0.000000 0.004781 -0.016458 0.220122
  5 4.477083 0.000000 0.000002 -0.012990 0.025607 0.056212
  6 4.477077 -0.000004 -0.000002 -0.013008 -0.019465 -0.082289
  7 5.413502 -7.700466 -0.000000 0.087339 0.068814 -0.054703
  8 6.890240 0.000002 -0.000000 0.043049 0.022611 -0.161480
  9 8.011925 0.000004 0.000005 0.070016 -0.079989 -0.270234
 10 7.210720 -0.000002 -0.000000 0.037718 -0.044667 -0.271337
 11 8.581028 -0.304903 -0.000000 -0.017861 -0.045996 1.172645
 12 22.523008 2.194031 6.355708 0.000000 0.001375 0.000000
 13 22.523005 2.194038 -6.355709 0.000000 0.002541 0.000000
 14 -3.006533 7.804720 -11.355459 0.270832 0.274283 0.782099
 15 10.384675 0.000008 0.000005 0.035880 0.191424 -1.649487
 16 22.550743 -0.000006 -0.000004 0.120659 0.014024 1.721841
 17 30.814247 -0.000015 -0.000004 2.599279 0.231414 0.836527
 18 -3.013796 7.815494 11.355459 -0.012207 -0.461558 0.925817
 19 10.374533 -0.000002 0.000007 -0.078022 -0.276219 -1.517111
 20 22.550726 -0.000027 -0.000013 -0.125479 0.038771 1.837864
 21 30.814270 -0.000023 0.000002 -2.586236 -0.010788 0.527556
 22 -4.250660 -0.770624 0.000001 0.060990 -0.126455 3.095661
 23 10.363422 0.000000 0.000000 0.006052 0.044862 -0.189135
 24 10.363076 0.000000 -0.000000 0.020877 0.059069 0.214196
 25 10.363081 -0.000004 -0.000002 0.007156 0.089263 0.486237
 26 9.253358 -0.000006 -3.973408 0.002260 -0.004958 0.392592
 27 8.210346 -0.000002 7.704017 0.005477 -0.009501 0.386158
 28 1.854841 1.227791 -13.762345 2.675711 0.154207 2.202984
 29 10.456543 -0.000004 0.000004 0.008808 -0.006248 -1.555992
 30 24.248093 0.000001 0.000007 0.365299 0.185861 1.444509
 31 26.336971 0.000019 0.000002 0.043371 -0.001229 0.533755
 32 1.854847 1.227798 13.762341 -2.455505 -0.303117 2.074157
 33 10.456542 -0.000008 0.000004 0.203939 -0.069315 -1.899814
 34 24.248116 0.000002 -0.000004 -0.007063 0.006723 1.848922
 35 26.336975 0.000000 0.000004 -0.525491 0.030623 0.394116
time 30
  0 0.000000 0.000000 0.000000 0.000000 -0.000000 -1.570796
  1 0.000000 0.000000 0.000000 0.000000 -0.000000 0.000000
  2 3.644642 -14.604286 26.332329 -1.577028 -0.254379 1.563415
  3 4.222169 -0.467508 0.000000 -0.005652 0.000185 -0.018081
  4 4.476987 -0.000002 -0.000000 0.006422 -0.016009 0.217592
  5 4.477083 0.000000 0.000002 -0.011623 0.025962 0.039389
  6 4.477077 -0.000004 -0.000002 -0.012529 -0.018657 -0.089936
  7 5.413502 -7.700466 -0.000000 0.078420 0.060030 -0.079595
  8 6.890240 0.000002 -0.000000 0.036948 0.022127 -0.191035
  9 8.011925 0.000004 0.000005 0.059879 -0.073871 -0.225070
 10 7.210720 -0.000002 -0.000000 0.033655 -0.037464 -0.233176
 11 8.581028 -0.304903 -0.000000 -0.013981 -0.040038 1.108048
 12 22.523008 2.194031 6.355708 0.000000 0.000886 0.000000
 13 22.523005 2.194038 -6.355709 0.000000 0.001966 0.000000
 14 -3.006533 7.804720 -11.355459 0.277669 0.263719 0.809225
 15 10.384675 0.000008 0.000005 0.029866 0.191552 -1.683533
 16 22.550743 -0.000006 -0.000004 0.121619 0.013852 1.763246
 17 30.814247 -0.000015 -0.000004 2.599934 0.242135 0.815290
 18 -3.013796 7.815494 11.355459 -0.015364 -0.441230 0.954602
 19 10.374533 -0.000002 0.000007 -0.073708 -0.259542 -1.518966
 20 22.550726 -0.000027 -0.000013 -0.125417 0.038536 1.840903
 21 30.814270 -0.000023 0.000002 -2.605811 -0.001392 0.509650
 22 -4.250660 -0.770624 0.000001 0.056280 -0.132008 -3.138796
 23 10.363422 0.000000 0.000000 0.005932 0.048194 -0.223465
 24 10.363076 0.000000 -0.000000 0.015880 0.065397 0.157466
 25 10.363081 -0.000004 -0.000002 0.003069 0.097150 0.435979
 26 9.253358 -0.000006 -3.973408 0.001881 -0.004143 0.368813
 27 8.210346 -0.000002 7.704017 0.004171 -0.006654 0.362354
 28 1.854841 1.227791 -13.762345 2.669335 0.145843 2.170080
 29 10.456543 -0.000004 0.000004 0.012721 0.007116 -1.574923
 30 24.248093 0.000001 0.000007 0.311915 0.164998 1.406679
 31 26.336971 0.000019 0.000002 0.097185 0.009650 0.534141
 32 1.854847 1.227798 13.762341 -2.494704 -0.264974 2.079844
 33 10.456542 -0.000008 0.000004 0.161953 -0.083981 -1.843614
 34 24.248116 0.000002 -0.000004 -0.018268 -0.000336 1.671471
 35 26.336975 0.000000 0.000004 -0.488526 0.022588 0.470018
time 31
  0 0.000000 0.000000 0.000000 0.000000 -0.000000 -1.570796
  1 0.000000 0.000000 0.000000 0.000000 -0.000000 0.000000
  2 2.925870 -14.502720 26.890938 -1.576165 -0.253781 1.564278
  3 4.222169 -0.467508 0.000000 -0.005053 0.000055 -0.011395
  4 4.476987 -0.000002 -0.000000 0.008064 -0.015537 0.214351
  5 4.477083 0.000000 0.000002 -0.010269 0.026253 0.021307
  6 4.477077 -0.000004 -0.000002 -0.011990 -0.017999 -0.097613
  7 5.413502 -7.700466 -0.000000 0.068651 0.051330 -0.106417
  8 6.890240 0.000002 -0.000000 0.030848 0.021591 -0.219239
  9 8.011925 0.000004 0.000005 0.048864 -0.067736 -0.175518
 10 7.210720 -0.000002 -0.000000 0.028549 -0.031461 -0.183886
 11 8.581028 -0.304903 -0.000000 -0.010031 -0.034114 1.038123
 12 22.523008 2.194031 6.355708 0.000000 0.000336 0.000000
 13 22.523005 2.194038 -6.355709 0.000000 0.001482 0.000000
 14 -3.006533 7.804720 -11.355459 0.288249 0.251601 0.847820
 15 10.384675 0.000008 0.000005 0.025459 0.191509 -1.707693
 16 22.550743 -0.000006 -0.000004 0.122274 0.013737 1.796478
 17 30.814247 -0.000015 -0.000004 2.592771 0.249878 0.776685
 18 -3.013796 7.815494 11.355459 -0.017960 -0.420828 0.983387
 19 10.374533 -0.000002 0.000007 -0.069933 -0.244292 -1.520590
 20 22.550726 -0.000027 -0.000013 -0.125336 0.038339 1.844191
 21 30.814270 -0.000023 0.000002 -2.624474 0.005532 0.489903
 22 -4.250660 -0.770624 0.000001 0.050935 -0.137320 -3.084998
 23 10.363422 0.000000 0.000000 0.005657 0.051466 -0.261887
 24 10.363076 0.000000 -0.000000 0.009911 0.071749 0.087676
 25 10.363081 -0.000004 -0.000002 -0.002041 0.104330 0.374633
 26 9.253358 -0.000006 -3.973408 0.001527 -0.003362 0.340278
 27 8.210346 -0.000002 7.704017 0.003080 -0.004456 0.333734
 28 1.854841 1.227791 -13.762345 2.663266 0.137208 2.137176
 29 10.456543 -0.000004 0.000004 0.016617 0.022010 -1.575010
 30 24.248093 0.000001 0.000007 0.260385 0.144416 1.364942
 31 26.336971 0.000019 0.000002 0.149563 0.020345 0.536074
 32 1.854847 1.227798 13.762341 -2.534646 -0.236135 2.092639
 33 10.456542 -0.000008 0.000004 0.110947 -0.096393 -1.709695
 34 24.248116 0.000002 -0.000004 -0.025652 -0.007671 1.494579
 35 26.336975 0.000000 0.000004 -0.458208 0.010893 0.518679
time 32
  0 0.000000 0.000000 0.000000 0.000000 -0.000000 -1.570796
  1 0.000000 0.000000 0.000000 0.000000 -0.000000 0.000000
  2 2.191473 -14.373810 27.472988 -1.575302 -0.253023 1.565045
  3 4.222169 -0.467508 0.000000 -0.004429 -0.000019 -0.004832
  4 4.476987 -0.000002 -0.000000 0.009658 -0.015066 0.210688
  5 4.477083 0.000000 0.000002 -0.008963 0.026463 0.002809
  6 4.477077 -0.000004 -0.000002 -0.011391 -0.017492 -0.105322
  7 5.413502 -7.700466 -0.000000 0.058217 0.042597 -0.134918
  8 6.890240 0.000002 -0.000000 0.025048 0.020964 -0.245257
  9 8.011925 0.000004 0.000005 0.038243 -0.060963 -0.126461
 10 7.210720 -0.000002 -0.000000 0.023141 -0.025829 -0.129903
 11 8.581028 -0.304903 -0.000000 -0.006472 -0.028121 0.969285
 12 22.523008 2.194031 6.355708 0.000000 -0.000183 0.000000
 13 22.523005 2.194038 -6.355709 0.000000 0.001089 0.000000
 14 -3.006533 7.804720 -11.355459 0.309356 0.231321 0.923017
 15 10.384675 0.000008 0.000005 0.022246 0.191403 -1.725077
 16 22.550743 -0.000006 -0.000004 0.122786 0.013651 1.822144
 17 30.814247 -0.000015 -0.000004 2.579449 0.253452 0.723863
 18 -3.013796 7.815494 11.355459 -0.020099 -0.400351 1.012172
 19 10.374533 -0.000002 0.000007 -0.066630 -0.230505 -1.522097
 20 22.550726 -0.000027 -0.000013 -0.125234 0.038163 1.847852
 21 30.814270 -0.000023 0.000002 -2.642891 0.011429 0.469598
 22 -4.250660 -0.770624 0.000001 0.045410 -0.142423 -3.031584
 23 10.363422 0.000000 0.000000 0.005249 0.054678 -0.301630
 24 10.363076 0.000000 -0.000000 0.003212 0.077705 0.009859
 25 10.363081 -0.000004 -0.000002 -0.007914 0.110631 0.306602
 26 9.253358 -0.000006 -3.973408 0.001197 -0.002581 0.308957
 27 8.210346 -0.000002 7.704017 0.002157 -0.002785 0.302334
 28 1.854841 1.227791 -13.762345 2.657242 0.129584 2.106158
 29 10.456543 -0.000004 0.000004 0.020461 0.037118 -1.571667
 30 24.248093 0.000001 0.000007 0.210932 0.122624 1.323561
 31 26.336971 0.000019 0.000002 0.193633 0.029569 0.545794
 32 1.854847 1.227798 13.762341 -2.573035 -0.213561 2.110690
 33 10.456542 -0.000008 0.000004 0.059499 -0.101235 -1.571717
 34 24.248116 0.000002 -0.000004 -0.029785 -0.014526 1.330633
 35 26.336975 0.000000 0.000004 -0.429905 -0.002105 0.558297
time 33
  0 0.000000 0.000000 0.000000 0.000000 -0.000000 -1.570796
  1 0.000000 0.000000 0.000000 0.000000 -0.000000 0.000000
  2 1.445357 -14.221462 28.082382 -1.574440 -0.252106 1.565908
  3 4.222169 -0.467508 0.000000 -0.003830 -0.000037 0.001424
  4 4.476987 -0.000002 -0.000000 0.011168 -0.014616 0.206959
  5 4.477083 0.000000 0.000002 -0.007740 0.026608 -0.015229
  6 4.477077 -0.000004 -0.000002 -0.010719 -0.017116 -0.113093
  7 5.413502 -7.700466 -0.000000 0.047291 0.033744 -0.164726
  8 6.890240 0.000002 -0.000000 0.019775 0.020258 -0.268412
  9 8.011925 0.000004 0.000005 0.027962 -0.053614 -0.077532
 10 7.210720 -0.000002 -0.000000 0.017953 -0.020038 -0.075249
 11 8.581028 -0.304903 -0.000000 -0.003257 -0.022112 0.901043
 12 22.523008 2.194031 6.355708 0.000000 -0.000703 0.000000
 13 22.523005 2.194038 -6.355709 0.000000 0.000726 0.000000
 14 -3.006533 7.804720 -11.355459 0.331114 0.207932 1.005013
 15 10.384675 0.000008 0.000005 0.020491 0.191361 -1.734518
 16 22.550743 -0.000006 -0.000004 0.123282 0.013565 1.841333
 17 30.814247 -0.000015 -0.000004 2.563025 0.254110 0.664129
 18 -3.013796 7.815494 11.355459 -0.021728 -0.379799 1.041015
 19 10.374533 -0.000002 0.000007 -0.063866 -0.218180 -1.523431
 20 22.550726 -0.000027 -0.000013 -0.125091 0.037966 1.851760
 21 30.814270 -0.000023 0.000002 -2.660993 0.016151 0.448652
 22 -4.250660 -0.770624 0.000001 0.039645 -0.147285 -2.978145
 23 10.363422 0.000000 0.000000 0.004734 0.057662 -0.340911
 24 10.363076 0.000000 -0.000000 -0.003859 0.082930 -0.070642
 25 10.363081 -0.000004 -0.000002 -0.014131 0.115915 0.236531
 26 9.253358 -0.000006 -3.973408 0.000879 -0.001868 0.276958
 27 8.210346 -0.000002 7.704017 0.001414 -0.001609 0.270222
 28 1.854841 1.227791 -13.762345 2.649195 0.131089 2.088641
 29 10.456543 -0.000004 0.000004 0.024252 0.052136 -1.568888
 30 24.248093 0.000001 0.000007 0.163294 0.099803 1.282356
 31 26.336971 0.000019 0.000002 0.236614 0.038162 0.556950
 32 1.854847 1.227798 13.762341 -2.592348 -0.188032 2.092682
 33 10.456542 -0.000008 0.000004 0.026840 -0.099983 -1.517961
 34 24.248116 0.000002 -0.000004 -0.030938 -0.019548 1.259348
 35 26.336975 0.000000 0.000004 -0.403189 -0.015165 0.590907
time 34
  0 0.000000 0.000000 0.000000 0.000000 -0.000000 -1.570796
  1 0.000000 0.000000 0.000000 0.000000 -0.000000 0.000000
  2 0.687521 -14.041769 28.723026 -1.573577 -0.250989 1.566866
  3 4.222169 -0.467508 0.000000 -0.003279 -0.000056 0.007251
  4 4.476987 -0.000002 -0.000000 0.012535 -0.014209 0.203452
  5 4.477083 0.000000 0.000002 -0.006638 0.026673 -0.032022
  6 4.477077 -0.000004 -0.000002 -0.009976 -0.016872 -0.120941
  7 5.413502 -7.700466 -0.000000 0.035980 0.024603 -0.195748
  8 6.890240 0.000002 -0.000000 0.015041 0.019513 -0.288751
  9 8.011925 0.000004 0.000005 0.018034 -0.045674 -0.028474
 10 7.210720 -0.000002 -0.000000 0.012957 -0.014106 -0.019979
 11 8.581028 -0.304903 -0.000000 -0.000363 -0.015983 0.832906
 12 22.523008 2.194031 6.355708 0.000000 -0.001100 0.000000
 13 22.523005 2.194038 -6.355709 0.000000 0.000454 0.000000
 14 -3.006533 7.804720 -11.355459 0.351190 0.184508 1.084605
 15 10.384675 0.000008 0.000005 0.020453 0.191446 -1.735129
 16 22.550743 -0.000006 -0.000004 0.123810 0.013507 1.852229
 17 30.814247 -0.000015 -0.000004 2.545379 0.252731 0.603320
 18 -3.013796 7.815494 11.355459 -0.022797 -0.359060 1.069971
 19 10.374533 -0.000002 0.000007 -0.061574 -0.207249 -1.524707
 20 22.550726 -0.000027 -0.000013 -0.124927 0.037790 1.855917
 21 30.814270 -0.000023 0.000002 -2.678849 0.019699 0.426952
 22 -4.250660 -0.770624 0.000001 0.033593 -0.151939 -2.924347
 23 10.363422 0.000000 0.000000 0.004147 0.060299 -0.377948
 24 10.363076 0.000000 -0.000000 -0.010870 0.087221 -0.148794
 25 10.363081 -0.000004 -0.000002 -0.020275 0.120182 0.168634
 26 9.253358 -0.000006 -3.973408 0.000599 -0.001257 0.246079
 27 8.210346 -0.000002 7.704017 0.000851 -0.000805 0.239195
 28 1.854841 1.227791 -13.762345 2.640796 0.133556 2.072645
 29 10.456543 -0.000004 0.000004 0.028077 0.066728 -1.564546
 30 24.248093 0.000001 0.000007 0.121996 0.079626 1.238252
 31 26.336971 0.000019 0.000002 0.280118 0.046361 0.568492
 32 1.854847 1.227798 13.762341 -2.609533 -0.163790 2.072304
 33 10.456542 -0.000008 0.000004 0.008086 -0.097923 -1.529587
 34 24.248116 0.000002 -0.000004 -0.031378 -0.022951 1.225533
 35 26.336975 0.000000 0.000004 -0.383334 -0.018546 0.590794
time 35
  0 0.000000 0.000000 0.000000 0.000000 -0.000000 -1.570796
  1 0.000000 0.000000 0.000000 0.000000 -0.000000 0.000000
  2 -0.070315 -13.826918 29.402733 -1.572810 -0.249712 1.567825
  3 4.222169 -0.467508 0.000000 -0.002788 -0.000037 0.012372
  4 4.476987 -0.000002 -0.000000 0.013685 -0.013845 0.200544
  5 4.477083 0.000000 0.000002 -0.005715 0.026657 -0.046488
  6 4.477077 -0.000004 -0.000002 -0.009173 -0.016759 -0.128821
  7 5.413502 -7.700466 -0.000000 0.024842 0.015615 -0.225961
  8 6.890240 0.000002 -0.000000 0.010894 0.018795 -0.306042
  9 8.011925 0.000004 0.000005 0.008605 -0.037223 0.020194
 10 7.210720 -0.000002 -0.000000 0.008098 -0.008139 0.035318
 11 8.581028 -0.304903 -0.000000 0.002117 -0.010742 0.772480
 12 22.523008 2.194031 6.355708 0.000000 -0.001283 0.000000
 13 22.523005 2.194038 -6.355709 0.000000 0.000242 0.000000
 14 -3.006533 7.804720 -11.355459 0.369205 0.163946 1.156987
 15 10.384675 0.000008 0.000005 0.021873 0.191552 -1.727520
 16 22.550743 -0.000006 -0.000004 0.123282 0.013794 1.830800
 17 30.814247 -0.000015 -0.000004 2.526903 0.249126 0.543980
 18 -3.013796 7.815494 11.355459 -0.023306 -0.338396 1.098756
 19 10.374533 -0.000002 0.000007 -0.059822 -0.197847 -1.525809
 20 22.550726 -0.000027 -0.000013 -0.124723 0.037593 1.860383
 21 30.814270 -0.000023 0.000002 -2.696249 0.022072 0.404751
 22 -4.250660 -0.770624 0.000001 0.027301 -0.156304 -2.870728
 23 10.363422 0.000000 0.000000 0.003547 0.062456 -0.410428
 24 10.363076 0.000000 -0.000000 -0.017198 0.090468 -0.218325
 25 10.363081 -0.000004 -0.000002 -0.025753 0.123526 0.108415
 26 9.253358 -0.000006 -3.973408 0.000354 -0.000713 0.218699
 27 8.210346 -0.000002 7.704017 0.000443 -0.000340 0.211695
 28 1.854841 1.227791 -13.762345 2.632397 0.135801 2.056528
 29 10.456543 -0.000004 0.000004 0.032917 0.076141 -1.528030
 30 24.248093 0.000001 0.000007 0.091449 0.065118 1.188819
 31 26.336971 0.000019 0.000002 0.322316 0.053903 0.580310
 32 1.854847 1.227798 13.762341 -2.626651 -0.141709 2.054770
 33 10.456542 -0.000008 0.000004 -0.009278 -0.096198 -1.544090
 34 24.248116 0.000002 -0.000004 -0.031754 -0.026091 1.196643
 35 26.336975 0.000000 0.000004 -0.364294 -0.021028 0.587799
time 36
  0 0.000000 0.000000 0.000000 0.000000 -0.000000 -1.570796
  1 0.000000 0.000000 0.000000 0.000000 -0.000000 0.000000
  2 -0.835963 -13.580816 30.125412 -1.572139 -0.248236 1.568784
  3 4.222169 -0.467508 0.000000 -0.002404 -0.000019 0.016681
  4 4.476987 -0.000002 -0.000000 0.014572 -0.013567 0.198546
  5 4.477083 0.000000 0.000002 -0.004996 0.026576 -0.057841
  6 4.477077 -0.000004 -0.000002 -0.008310 -0.016759 -0.136748
  7 5.413502 -7.700466 -0.000000 0.018768 0.013287 -0.232806
  8 6.890240 0.000002 -0.000000 0.007335 0.018128 -0.320377
  9 8.011925 0.000004 0.000005 -0.000092 -0.028548 0.067643
 10 7.210720 -0.000002 -0.000000 0.003404 -0.002348 0.089650
 11 8.581028 -0.304903 -0.000000 0.004207 -0.006884 0.723936
 12 22.523008 2.194031 6.355708 0.000000 -0.001192 0.000000
 13 22.523005 2.194038 -6.355709 0.000000 0.000091 0.000000
 14 -3.006533 7.804720 -11.355459 0.385645 0.148683 1.218930
 15 10.384675 0.000008 0.000005 0.024226 0.191552 -1.714191
 16 22.550743 -0.000006 -0.000004 0.122706 0.013938 1.807495
 17 30.814247 -0.000015 -0.000004 2.507378 0.243076 0.487290
 18 -3.013796 7.815494 11.355459 -0.023255 -0.317695 1.127484
 19 10.374533 -0.000002 0.000007 -0.058473 -0.189907 -1.526852
 20 22.550726 -0.000027 -0.000013 -0.124498 0.037358 1.865036
 21 30.814270 -0.000023 0.000002 -2.713192 0.023271 0.382047
 22 -4.250660 -0.770624 0.000001 0.020853 -0.160300 -2.818262
 23 10.363422 0.000000 0.000000 0.003008 0.064002 -0.436550
 24 10.363076 0.000000 -0.000000 -0.022303 0.092758 -0.274229
 25 10.363081 -0.000004 -0.000002 -0.030543 0.125421 0.055473
 26 9.253358 -0.000006 -3.973408 0.000159 -0.000340 0.196754
 27 8.210346 -0.000002 7.704017 0.000180 -0.000093 0.189552
 28 1.854841 1.227791 -13.762345 2.624086 0.138293 2.041384
 29 10.456543 -0.000004 0.000004 0.038472 0.083366 -1.482570
 30 24.248093 0.000001 0.000007 0.067649 0.053758 1.136366
 31 26.336971 0.000019 0.000002 0.344155 0.059501 0.592294
 32 1.854847 1.227798 13.762341 -2.643431 -0.121543 2.039692
 33 10.456542 -0.000008 0.000004 -0.019350 -0.095391 -1.528799
 34 24.248116 0.000002 -0.000004 -0.032078 -0.029123 1.170140
 35 26.336975 0.000000 0.000004 -0.345211 -0.023510 0.584917
time 37
  0 0.000000 0.000000 0.000000 0.000000 -0.000000 -1.570796
  1 0.000000 0.000000 0.000000 0.000000 -0.000000 0.000000
  2 -1.601611 -13.291746 30.910591 -1.571468 -0.246521 1.569934
  3 4.222169 -0.467508 0.000000 -0.002152 -0.000000 0.020039
  4 4.476987 -0.000002 -0.000000 0.015147 -0.013396 0.197747
  5 4.477083 0.000000 0.000002 -0.004516 0.026398 -0.065341
  6 4.477077 -0.000004 -0.000002 -0.007328 -0.016891 -0.144908
  7 5.413502 -7.700466 -0.000000 0.012946 0.011044 -0.238843
  8 6.890240 0.000002 -0.000000 0.004290 0.017566 -0.331989
  9 8.011925 0.000004 0.000005 -0.003405 -0.026679 0.086903
 10 7.210720 -0.000002 -0.000000 0.001345 -0.001077 0.111104
 11 8.581028 -0.304903 -0.000000 0.005952 -0.004152 0.685381
 12 22.523008 2.194031 6.355708 0.000000 -0.000794 0.000000
 13 22.523005 2.194038 -6.355709 0.000000 -0.000000 0.000000
 14 -3.006533 7.804720 -11.355459 0.401706 0.140027 1.269886
 15 10.384675 0.000008 0.000005 0.027289 0.191446 -1.696640
 16 22.550743 -0.000006 -0.000004 0.122034 0.013995 1.783645
 17 30.814247 -0.000015 -0.000004 2.486194 0.233327 0.441702
 18 -3.013796 7.815494 11.355459 -0.022644 -0.296507 1.156725
 19 10.374533 -0.000002 0.000007 -0.057597 -0.183329 -1.527838
 20 22.550726 -0.000027 -0.000013 -0.124233 0.037122 1.869999
 21 30.814270 -0.000023 0.000002 -2.730066 0.023295 0.358228
 22 -4.250660 -0.770624 0.000001 0.018324 -0.161519 -2.796778
 23 10.363422 0.000000 0.000000 0.002625 0.065009 -0.455849
 24 10.363076 0.000000 -0.000000 -0.025731 0.094280 -0.312067
 25 10.363081 -0.000004 -0.000002 -0.033128 0.127377 0.027444
 26 9.253358 -0.000006 -3.973408 0.000037 -0.000068 0.181977
 27 8.210346 -0.000002 7.704017 0.000036 0.000000 0.174564
 28 1.854841 1.227791 -13.762345 2.619073 0.152578 2.054825
 29 10.456543 -0.000004 0.000004 0.044726 0.088668 -1.428426
 30 24.248093 0.000001 0.000007 0.046703 0.042943 1.081901
 31 26.336971 0.000019 0.000002 0.365646 0.064914 0.604665
 32 1.854847 1.227798 13.762341 -2.660178 -0.102745 2.026768
 33 10.456542 -0.000008 0.000004 -0.029287 -0.094473 -1.511773
 34 24.248116 0.000002 -0.000004 -0.032363 -0.032155 1.144652
 35 26.336975 0.000000 0.000004 -0.325527 -0.026022 0.581808
end
