version 1
nodes
  0 "Chaurus" -1
  1 "NPC Root [Root]" 0
  2 "Pelvis [Pelv]" 1
  3 "Spine[Spn0]" 2
  4 "Spine[Spn1]" 3
  5 "Spine[Spn2]" 4
  6 "Ribcage[Spn3]" 5
  7 "[Neck0]" 6
  8 "[Neck1]" 7
  9 "[Neck2]" 8
 10 "[Neck3]" 9
 11 "NPC Head [Head]" 10
 12 "Head[LeftPincher]" 11
 13 "Head[RightPincher]" 11
 14 "R UpperArm[RClv]" 6
 15 "R UpperArm[RUar]" 14
 16 "R UpperArm[RLar]" 15
 17 "R UpperArm[RHnd]" 16
 18 "L UpperArm[RClv]" 6
 19 "L UpperArm[LUar]" 18
 20 "L UpperArm[LLar]" 19
 21 "L UpperArm[LHnd]" 20
 22 "Tail[Tal0]" 2
 23 "Tail[Tal1]" 22
 24 "Tail[Tal2]" 23
 25 "Tail[Tal3]" 24
 26 "[TalRightPincher]" 25
 27 "[TalLeftPincher]" 25
 28 "R Leg[RThg0]" 2
 29 "R Leg[RThg1]" 28
 30 "R Leg[RClf]" 29
 31 "R Leg[RAnkle]" 30
 32 "LLeg[RThg0]" 2
 33 "LLeg[LThg1]" 32
 34 "LLeg[LClf]" 33
 35 "LLeg[LAnkle]" 34
end
skeleton
time 0
  0 0.000000 0.000000 0.000000 0.000000 -0.000000 -1.570796
  1 0.000000 0.000000 0.000000 0.000000 -0.000000 0.000000
  2 0.136723 -12.487034 32.199696 -1.570988 -0.244686 1.570988
  3 4.222169 -0.467508 0.000000 -0.000115 -0.011049 0.022109
  4 4.476987 -0.000002 -0.000000 0.014224 -0.010461 0.198524
  5 4.477083 0.000000 0.000002 -0.006003 0.054408 -0.067905
  6 4.477077 -0.000004 -0.000002 -0.002079 -0.000165 -0.152819
  7 5.413502 -7.700466 -0.000000 0.004798 -0.017518 -0.229944
  8 6.890240 0.000002 -0.000000 0.002301 -0.018520 -0.321982
  9 8.011925 0.000004 0.000005 -0.006077 -0.032957 0.075430
 10 7.210720 -0.000002 -0.000000 -0.000165 -0.004131 0.084984
 11 8.581028 -0.304903 -0.000000 0.020694 0.031494 0.681630
 12 22.523008 2.194031 6.355708 0.000000 0.002291 0.000000
 13 22.523005 2.194038 -6.355709 0.000000 0.000696 0.000000
 14 -3.006533 7.804720 -11.355459 0.388792 0.065587 1.303192
 15 10.384675 0.000008 0.000005 0.025533 0.191573 -1.709248
 16 22.550743 -0.000006 -0.000004 0.122018 0.013421 1.793875
 17 30.814247 -0.000015 -0.000004 2.480253 0.269439 0.368359
 18 -3.013796 7.815494 11.355459 0.104637 -0.369971 1.416875
 19 10.374533 -0.000002 0.000007 -0.022476 -0.191170 -1.726090
 20 22.550726 -0.000027 -0.000013 -0.122394 -0.013997 1.815964
 21 30.814270 -0.000023 0.000002 -2.855268 0.274965 0.386845
 22 -4.250660 -0.770624 0.000001 0.014729 -0.140112 -2.834598
 23 10.363422 0.000000 0.000000 -0.004662 0.081212 -0.456333
 24 10.363076 0.000000 -0.000000 -0.025635 0.120694 -0.272319
 25 10.363081 -0.000004 -0.000002 -0.013872 0.158451 0.148713
 26 9.253358 -0.000006 -3.973408 0.000000 0.000000 0.158368
 27 8.210346 -0.000002 7.704017 0.000000 0.000000 0.152117
 28 1.854841 1.227791 -13.762345 2.639565 0.119049 2.062002
 29 10.456543 -0.000004 0.000004 0.048902 0.092352 -1.394646
 30 24.248093 0.000001 0.000007 0.030466 0.033439 1.047624
 31 26.336971 0.000019 0.000002 0.350202 0.036060 0.595166
 32 1.854847 1.227798 13.762341 -2.657949 -0.141763 2.058605
 33 10.456542 -0.000008 0.000004 -0.049059 -0.092274 -1.391924
 34 24.248116 0.000002 -0.000004 -0.030458 -0.033474 1.046000
 35 26.336975 0.000000 0.000004 -0.337792 -0.059402 0.605771
time 1
  0 0.000000 0.000000 0.000000 0.000000 -0.000000 -1.570796
  1 0.000000 0.000000 0.000000 0.000000 -0.000000 0.000000
  2 0.136723 -12.487034 32.199696 -1.570988 -0.244686 1.570988
  3 4.222169 -0.467508 0.000000 -0.000115 -0.011049 0.022109
  4 4.476987 -0.000002 -0.000000 0.014224 -0.010461 0.198524
  5 4.477083 0.000000 0.000002 -0.006003 0.054408 -0.067905
  6 4.477077 -0.000004 -0.000002 -0.002079 -0.000165 -0.152819
  7 5.413502 -7.700466 -0.000000 0.004798 -0.017518 -0.229944
  8 6.890240 0.000002 -0.000000 0.002301 -0.018520 -0.321982
  9 8.011925 0.000004 0.000005 -0.006077 -0.032957 0.075430
 10 7.210720 -0.000002 -0.000000 -0.000165 -0.004131 0.084984
 11 8.581028 -0.304903 -0.000000 0.020694 0.031494 0.681630
 12 22.523008 2.194031 6.355708 0.000000 0.002291 0.000000
 13 22.523005 2.194038 -6.355709 0.000000 0.000696 0.000000
 14 -3.006533 7.804720 -11.355459 0.388792 0.065587 1.303192
 15 10.384675 0.000008 0.000005 0.025533 0.191573 -1.709248
 16 22.550743 -0.000006 -0.000004 0.122018 0.013421 1.793875
 17 30.814247 -0.000015 -0.000004 2.480253 0.269439 0.368359
 18 -3.013796 7.815494 11.355459 0.104637 -0.369971 1.416875
 19 10.374533 -0.000002 0.000007 -0.022476 -0.191170 -1.726090
 20 22.550726 -0.000027 -0.000013 -0.122394 -0.013997 1.815964
 21 30.814270 -0.000023 0.000002 -2.855268 0.274965 0.386845
 22 -4.250660 -0.770624 0.000001 0.014729 -0.140112 -2.834598
 23 10.363422 0.000000 0.000000 -0.004662 0.081212 -0.456333
 24 10.363076 0.000000 -0.000000 -0.025635 0.120694 -0.272319
 25 10.363081 -0.000004 -0.000002 -0.013872 0.158451 0.148713
 26 9.253358 -0.000006 -3.973408 0.000000 0.000000 0.158368
 27 8.210346 -0.000002 7.704017 0.000000 0.000000 0.152117
 28 1.854841 1.227791 -13.762345 2.639565 0.119049 2.062002
 29 10.456543 -0.000004 0.000004 0.048902 0.092352 -1.394646
 30 24.248093 0.000001 0.000007 0.030466 0.033439 1.047624
 31 26.336971 0.000019 0.000002 0.350202 0.036060 0.595166
 32 1.854847 1.227798 13.762341 -2.657949 -0.141763 2.058605
 33 10.456542 -0.000008 0.000004 -0.049059 -0.092274 -1.391924
 34 24.248116 0.000002 -0.000004 -0.030458 -0.033474 1.046000
 35 26.336975 0.000000 0.000004 -0.337792 -0.059402 0.605771
time 2
  0 0.000000 0.000000 0.000000 0.000000 -0.000000 -1.570796
  1 0.000000 0.000000 0.000000 0.000000 -0.000000 0.000000
  2 -0.507828 -12.459688 28.805059 -1.564853 -0.239620 1.568400
  3 4.222169 -0.467508 0.000000 0.005266 -0.003448 -0.056814
  4 4.476987 -0.000002 -0.000000 0.022889 0.001490 0.100012
  5 4.477083 0.000000 0.000002 0.002219 0.054150 -0.044220
  6 4.477077 -0.000004 -0.000002 -0.002881 -0.006818 -0.085778
  7 5.413502 -7.700466 -0.000000 0.005104 -0.014341 -0.265290
  8 6.890240 0.000002 -0.000000 -0.002433 -0.020010 -0.336062
  9 8.011925 0.000004 0.000005 -0.006640 -0.034891 0.144552
 10 7.210720 -0.000002 -0.000000 -0.004227 -0.006656 0.197241
 11 8.581028 -0.304903 -0.000000 0.022187 0.027585 0.760423
 12 22.523008 2.194031 6.355708 0.000000 0.002291 0.000000
 13 22.523005 2.194038 -6.355709 0.000000 0.000696 0.000000
 14 -3.006533 7.804720 -11.355459 0.438223 0.154478 1.325717
 15 10.384675 0.000008 0.000005 0.002936 0.190703 -1.828435
 16 22.550743 -0.000006 -0.000004 0.125185 0.013019 1.940365
 17 30.814247 -0.000015 -0.000004 2.418884 0.292354 0.392210
 18 -3.013796 7.815494 11.355459 0.110289 -0.326700 1.443209
 19 10.374533 -0.000002 0.000007 0.005094 -0.207216 -1.859282
 20 22.550726 -0.000027 -0.000013 -0.125479 -0.011563 1.988304
 21 30.814270 -0.000023 0.000002 -2.859688 0.251305 0.397918
 22 -4.250660 -0.770624 0.000001 0.011337 -0.132152 -2.828709
 23 10.363422 0.000000 0.000000 -0.003655 0.077293 -0.379466
 24 10.363076 0.000000 -0.000000 -0.019295 0.114581 -0.191199
 25 10.363081 -0.000004 -0.000002 -0.017935 0.145587 0.068896
 26 9.253358 -0.000006 -3.973408 -0.003359 0.004415 0.061248
 27 8.210346 -0.000002 7.704017 0.007502 -0.007427 0.055035
 28 1.854841 1.227791 -13.762345 2.629671 0.153195 2.086817
 29 10.456543 -0.000004 0.000004 0.035852 0.084469 -1.507015
 30 24.248093 0.000001 0.000007 0.076583 0.057269 1.148029
 31 26.336971 0.000019 0.000002 0.335498 0.041657 0.614109
 32 1.854847 1.227798 13.762341 -2.652514 -0.139875 2.062999
 33 10.456542 -0.000008 0.000004 -0.021453 -0.095947 -1.530809
 34 24.248116 0.000002 -0.000004 -0.032881 -0.025923 1.165875
 35 26.336975 0.000000 0.000004 -0.334576 -0.044046 0.605093
time 3
  0 0.000000 0.000000 0.000000 0.000000 -0.000000 -1.570796
  1 0.000000 0.000000 0.000000 0.000000 -0.000000 0.000000
  2 -1.105502 -12.447969 26.816717 -1.561019 -0.233836 1.566003
  3 4.222169 -0.467508 0.000000 0.011270 0.009695 -0.151468
  4 4.476987 -0.000002 -0.000000 0.031842 0.019417 -0.018100
  5 4.477083 0.000000 0.000002 0.017535 0.051291 -0.002467
  6 4.477077 -0.000004 -0.000002 -0.004404 -0.016139 -0.009626
  7 5.413502 -7.700466 -0.000000 0.005396 -0.011231 -0.300357
  8 6.890240 0.000002 -0.000000 -0.008341 -0.021905 -0.345766
  9 8.011925 0.000004 0.000005 -0.006784 -0.039587 0.268650
 10 7.210720 -0.000002 -0.000000 -0.014879 -0.014865 0.398210
 11 8.581028 -0.304903 -0.000000 0.023565 0.021729 0.848959
 12 22.523008 2.194031 6.355708 0.000000 0.006874 0.000000
 13 22.523005 2.194038 -6.355709 0.000000 0.003025 0.000000
 14 -3.006533 7.804720 -11.355459 0.525310 0.276650 1.387248
 15 10.384675 0.000008 0.000005 -0.018691 0.187202 -1.944291
 16 22.550743 -0.000006 -0.000004 0.128128 0.012216 2.086431
 17 30.814247 -0.000015 -0.000004 2.284396 0.316869 0.412551
 18 -3.013796 7.815494 11.355459 0.115584 -0.264932 1.493939
 19 10.374533 -0.000002 0.000007 0.038664 -0.223827 -2.004187
 20 22.550726 -0.000027 -0.000013 -0.128359 -0.008658 2.164613
 21 30.814270 -0.000023 0.000002 -2.864003 0.226642 0.412142
 22 -4.250660 -0.770624 0.000001 0.008150 -0.123968 -2.824074
 23 10.363422 0.000000 0.000000 -0.001294 0.066531 -0.215521
 24 10.363076 0.000000 -0.000000 -0.003991 0.097396 -0.018428
 25 10.363081 -0.000004 -0.000002 -0.032192 0.114652 -0.100483
 26 9.253358 -0.000006 -3.973408 -0.010419 0.018408 -0.145120
 27 8.210346 -0.000002 7.704017 0.022243 -0.030762 -0.151337
 28 1.854841 1.227791 -13.762345 2.619557 0.192448 2.116132
 29 10.456543 -0.000004 0.000004 0.021229 0.050268 -1.540014
 30 24.248093 0.000001 0.000007 0.151357 0.094557 1.248375
 31 26.336971 0.000019 0.000002 0.292125 0.050277 0.607261
 32 1.854847 1.227798 13.762341 -2.645795 -0.139082 2.068729
 33 10.456542 -0.000008 0.000004 0.030537 -0.101625 -1.587403
 34 24.248116 0.000002 -0.000004 -0.033852 -0.017067 1.288390
 35 26.336975 0.000000 0.000004 -0.336934 -0.018639 0.586838
time 4
  0 0.000000 0.000000 0.000000 0.000000 -0.000000 -1.570796
  1 0.000000 0.000000 0.000000 0.000000 -0.000000 0.000000
  2 -1.585986 -12.463594 25.215107 -1.559581 -0.227254 1.563703
  3 4.222169 -0.467508 0.000000 0.016184 0.030383 -0.222003
  4 4.476987 -0.000002 -0.000000 0.037702 0.042248 -0.108488
  5 4.477083 0.000000 0.000002 0.026500 0.037786 0.019143
  6 4.477077 -0.000004 -0.000002 -0.006105 -0.035570 0.044023
  7 5.413502 -7.700466 -0.000000 0.005662 -0.008139 -0.335455
  8 6.890240 0.000002 -0.000000 -0.015460 -0.024179 -0.351141
  9 8.011925 0.000004 0.000005 -0.007583 -0.046393 0.332400
 10 7.210720 -0.000002 -0.000000 -0.024075 -0.030402 0.501993
 11 8.581028 -0.304903 -0.000000 0.024231 0.014985 0.914012
 12 22.523008 2.194031 6.355708 0.000000 0.009257 0.000000
 13 22.523005 2.194038 -6.355709 0.000000 0.006897 0.000000
 14 -3.006533 7.804720 -11.355459 0.600460 0.417865 1.391575
 15 10.384675 0.000008 0.000005 -0.038898 0.181537 -2.056147
 16 22.550743 -0.000006 -0.000004 0.130862 0.010982 2.229167
 17 30.814247 -0.000015 -0.000004 2.169913 0.337245 0.472070
 18 -3.013796 7.815494 11.355459 0.130297 -0.228611 1.416247
 19 10.374533 -0.000002 0.000007 0.080863 -0.244326 -2.158718
 20 22.550726 -0.000027 -0.000013 -0.131280 -0.005301 2.336952
 21 30.814270 -0.000023 0.000002 -2.862354 0.162514 0.527640
 22 -4.250660 -0.770624 0.000001 0.005177 -0.115511 -2.821949
 23 10.363422 0.000000 0.000000 -0.000659 0.055181 -0.054964
 24 10.363076 0.000000 -0.000000 0.007934 0.077585 0.150445
 25 10.363081 -0.000004 -0.000002 -0.041389 0.081729 -0.266534
 26 9.253358 -0.000006 -3.973408 -0.019970 0.030906 -0.348838
 27 8.210346 -0.000002 7.704017 0.041035 -0.051094 -0.355300
 28 1.854841 1.227791 -13.762345 2.609135 0.237524 2.148428
 29 10.456543 -0.000004 0.000004 0.007795 0.015568 -1.571449
 30 24.248093 0.000001 0.000007 0.257642 0.147725 1.360147
 31 26.336971 0.000019 0.000002 0.233743 0.057792 0.586385
 32 1.854847 1.227798 13.762341 -2.611660 -0.175008 2.099532
 33 10.456542 -0.000008 0.000004 0.096669 -0.106244 -1.629731
 34 24.248116 0.000002 -0.000004 -0.032738 -0.006281 1.416947
 35 26.336975 0.000000 0.000004 -0.343109 0.011607 0.559993
time 5
  0 0.000000 0.000000 0.000000 0.000000 -0.000000 -1.570796
  1 0.000000 0.000000 0.000000 0.000000 -0.000000 0.000000
  2 -1.890683 -12.526096 23.859596 -1.560635 -0.219835 1.561114
  3 4.222169 -0.467508 0.000000 0.019779 0.070480 -0.217449
  4 4.476987 -0.000002 -0.000000 0.037427 0.079515 -0.104936
  5 4.477083 0.000000 0.000002 0.027147 0.011149 0.014533
  6 4.477077 -0.000004 -0.000002 -0.006992 -0.073794 0.057431
  7 5.413502 -7.700466 -0.000000 0.005888 -0.005029 -0.370553
  8 6.890240 0.000002 -0.000000 -0.023837 -0.026754 -0.352212
  9 8.011925 0.000004 0.000005 -0.000275 -0.055275 0.250870
 10 7.210720 -0.000002 -0.000000 -0.028659 -0.052841 0.402420
 11 8.581028 -0.304903 -0.000000 0.022646 0.008140 0.860420
 12 22.523008 2.194031 6.355708 0.000000 0.005438 0.000000
 13 22.523005 2.194038 -6.355709 0.000000 0.012251 0.000000
 14 -3.006533 7.804720 -11.355459 0.612614 0.526612 1.311570
 15 10.384675 0.000008 0.000005 -0.053465 0.176148 -2.139234
 16 22.550743 -0.000006 -0.000004 0.132462 0.010551 2.304651
 17 30.814247 -0.000015 -0.000004 2.113611 0.358467 0.569693
 18 -3.013796 7.815494 11.355459 0.142211 -0.241877 1.220167
 19 10.374533 -0.000002 0.000007 0.126163 -0.269076 -2.292780
 20 22.550726 -0.000027 -0.000013 -0.134201 -0.001963 2.478521
 21 30.814270 -0.000023 0.000002 -2.860776 0.081013 0.688461
 22 -4.250660 -0.770624 0.000001 0.002673 -0.106637 -2.826148
 23 10.363422 0.000000 0.000000 -0.000455 0.041399 0.007599
 24 10.363076 0.000000 -0.000000 0.012859 0.054718 0.215151
 25 10.363081 -0.000004 -0.000002 -0.052642 0.052951 -0.334941
 26 9.253358 -0.000006 -3.973408 -0.023048 0.043947 -0.434205
 27 8.210346 -0.000002 7.704017 0.047255 -0.075109 -0.440718
 28 1.854841 1.227791 -13.762345 2.580860 0.290249 2.142954
 29 10.456543 -0.000004 0.000004 -0.004539 -0.019594 -1.602711
 30 24.248093 0.000001 0.000007 0.391027 0.210095 1.486423
 31 26.336971 0.000019 0.000002 0.160483 0.061130 0.553968
 32 1.854847 1.227798 13.762341 -2.571988 -0.221332 2.133911
 33 10.456542 -0.000008 0.000004 0.174671 -0.109333 -1.658067
 34 24.248116 0.000002 -0.000004 -0.027919 0.007873 1.556166
 35 26.336975 0.000000 0.000004 -0.371112 0.064157 0.494490
time 6
  0 0.000000 0.000000 0.000000 0.000000 -0.000000 -1.570796
  1 0.000000 0.000000 0.000000 0.000000 -0.000000 0.000000
  2 -1.957091 -12.721416 22.734562 -1.569455 -0.210540 1.558430
  3 4.222169 -0.467508 0.000000 0.025136 0.116973 -0.208279
  4 4.476987 -0.000002 -0.000000 0.038697 0.119224 -0.097367
  5 4.477083 0.000000 0.000002 0.028261 -0.025616 0.008293
  6 4.477077 -0.000004 -0.000002 -0.006932 -0.124214 0.050688
  7 5.413502 -7.700466 -0.000000 0.006008 -0.001920 -0.406118
  8 6.890240 0.000002 -0.000000 -0.033545 -0.029603 -0.348907
  9 8.011925 0.000004 0.000005 0.017484 -0.067592 0.068551
 10 7.210720 -0.000002 -0.000000 -0.031212 -0.079536 0.171604
 11 8.581028 -0.304903 -0.000000 0.020603 0.000543 0.786079
 12 22.523008 2.194031 6.355708 0.000000 -0.008341 0.000000
 13 22.523005 2.194038 -6.355709 0.000000 0.021356 0.000000
 14 -3.006533 7.804720 -11.355459 0.567524 0.540355 1.208423
 15 10.384675 0.000008 0.000005 -0.056191 0.174769 -2.154785
 16 22.550743 -0.000006 -0.000004 0.132781 0.010322 2.320329
 17 30.814247 -0.000015 -0.000004 2.149384 0.388718 0.650305
 18 -3.013796 7.815494 11.355459 0.142007 -0.261868 1.059825
 19 10.374533 -0.000002 0.000007 0.124275 -0.326385 -2.232939
 20 22.550726 -0.000027 -0.000013 -0.132158 0.001943 2.447440
 21 30.814270 -0.000023 0.000002 -2.857057 -0.012084 0.807502
 22 -4.250660 -0.770624 0.000001 0.003212 -0.094890 -2.872674
 23 10.363422 0.000000 0.000000 -0.003488 0.024225 -0.006463
 24 10.363076 0.000000 -0.000000 0.013315 0.028173 0.219822
 25 10.363081 -0.000004 -0.000002 -0.063563 0.032553 -0.182556
 26 9.253358 -0.000006 -3.973408 -0.004397 0.054849 -0.275973
 27 8.210346 -0.000002 7.704017 0.014837 -0.098506 -0.280192
 28 1.854841 1.227791 -13.762345 2.550563 0.340777 2.131276
 29 10.456543 -0.000004 0.000004 -0.016192 -0.054382 -1.629197
 30 24.248093 0.000001 0.000007 0.534458 0.269135 1.611515
 31 26.336971 0.000019 0.000002 0.072562 0.059264 0.523538
 32 1.854847 1.227798 13.762341 -2.525260 -0.287657 2.185737
 33 10.456542 -0.000008 0.000004 0.261117 -0.111726 -1.663939
 34 24.248116 0.000002 -0.000004 -0.019395 0.024520 1.693964
 35 26.336975 0.000000 0.000004 -0.403617 0.129054 0.438708
time 7
  0 0.000000 0.000000 0.000000 0.000000 -0.000000 -1.570796
  1 0.000000 0.000000 0.000000 0.000000 -0.000000 0.000000
  2 -1.687551 -13.143303 21.863441 -1.598788 -0.197935 1.555842
  3 4.222169 -0.467508 0.000000 0.032064 0.167433 -0.197515
  4 4.476987 -0.000002 -0.000000 0.043515 0.161096 -0.089642
  5 4.477083 0.000000 0.000002 0.031246 -0.071234 0.000215
  6 4.477077 -0.000004 -0.000002 -0.006573 -0.176514 0.045440
  7 5.413502 -7.700466 -0.000000 0.006220 0.002226 -0.437980
  8 6.890240 0.000002 -0.000000 -0.044499 -0.032570 -0.341460
  9 8.011925 0.000004 0.000005 0.037876 -0.077481 -0.112652
 10 7.210720 -0.000002 -0.000000 -0.036867 -0.109655 -0.085869
 11 8.581028 -0.304903 -0.000000 0.018628 -0.008130 0.716085
 12 22.523008 2.194031 6.355708 0.000000 -0.043537 0.000000
 13 22.523005 2.194038 -6.355709 0.000000 0.065066 0.000000
 14 -3.006533 7.804720 -11.355459 0.456563 0.376776 1.124710
 15 10.384675 0.000008 0.000005 -0.025899 0.185335 -1.981613
 16 22.550743 -0.000006 -0.000004 0.129055 0.011843 2.137399
 17 30.814247 -0.000015 -0.000004 2.344979 0.425301 0.684255
 18 -3.013796 7.815494 11.355459 0.123221 -0.292098 0.965318
 19 10.374533 -0.000002 0.000007 0.016352 -0.406020 -1.907700
 20 22.550726 -0.000027 -0.000013 -0.121312 0.007872 2.176214
 21 30.814270 -0.000023 0.000002 -2.848778 -0.118517 0.829145
 22 -4.250660 -0.770624 0.000001 0.004674 -0.080623 -2.956329
 23 10.363422 0.000000 0.000000 -0.007562 0.006080 -0.044291
 24 10.363076 0.000000 -0.000000 0.012128 0.001459 0.199949
 25 10.363081 -0.000004 -0.000002 -0.075936 0.015915 0.138941
 26 9.253358 -0.000006 -3.973408 0.034347 0.065343 0.058428
 27 8.210346 -0.000002 7.704017 -0.052373 -0.123202 0.059714
 28 1.854841 1.227791 -13.762345 2.519561 0.383879 2.111814
 29 10.456543 -0.000004 0.000004 -0.030552 -0.077462 -1.608486
 30 24.248093 0.000001 0.000007 0.665211 0.334591 1.694693
 31 26.336971 0.000019 0.000002 -0.024973 0.054061 0.504816
 32 1.854847 1.227798 13.762341 -2.479342 -0.376994 2.267419
 33 10.456542 -0.000008 0.000004 0.335762 -0.121912 -1.584290
 34 24.248116 0.000002 -0.000004 -0.012257 0.041490 1.788350
 35 26.336975 0.000000 0.000004 -0.440197 0.207136 0.399881
time 8
  0 0.000000 0.000000 0.000000 0.000000 -0.000000 -1.570796
  1 0.000000 0.000000 0.000000 0.000000 -0.000000 0.000000
  2 -0.832057 -13.526127 21.160295 -1.647965 -0.182618 1.553253
  3 4.222169 -0.467508 0.000000 0.040513 0.221081 -0.185064
  4 4.476987 -0.000002 -0.000000 0.065938 0.212135 -0.080852
  5 4.477083 0.000000 0.000002 0.050613 -0.120243 0.001505
  6 4.477077 -0.000004 -0.000002 -0.007184 -0.229283 0.053990
  7 5.413502 -7.700466 -0.000000 0.007908 0.014748 -0.440344
  8 6.890240 0.000002 -0.000000 -0.057214 -0.035798 -0.327218
  9 8.011925 0.000004 0.000005 0.060101 -0.094032 -0.218580
 10 7.210720 -0.000002 -0.000000 -0.049906 -0.143606 -0.278417
 11 8.581028 -0.304903 -0.000000 0.016859 -0.019858 0.668592
 12 22.523008 2.194031 6.355708 0.000000 -0.148849 0.000000
 13 22.523005 2.194038 -6.355709 0.000000 0.175354 0.000000
 14 -3.006533 7.804720 -11.355459 0.381576 0.254674 1.080553
 15 10.384675 0.000008 0.000005 -0.015068 0.187860 -1.923574
 16 22.550743 -0.000006 -0.000004 0.127760 0.012359 2.068452
 17 30.814247 -0.000015 -0.000004 2.468897 0.444580 0.679599
 18 -3.013796 7.815494 11.355459 0.092062 -0.334435 0.919490
 19 10.374533 -0.000002 0.000007 -0.048631 -0.453993 -1.768941
 20 22.550726 -0.000027 -0.000013 -0.116062 0.014645 2.073294
 21 30.814270 -0.000023 0.000002 -2.813417 -0.197668 0.834417
 22 -4.250660 -0.770624 0.000001 0.005417 -0.066774 -3.037781
 23 10.363422 0.000000 0.000000 -0.011529 -0.012316 -0.084189
 24 10.363076 0.000000 -0.000000 0.010918 -0.025111 0.158317
 25 10.363081 -0.000004 -0.000002 -0.085983 -0.001124 0.456034
 26 9.253358 -0.000006 -3.973408 0.073482 0.076585 0.389534
 27 8.210346 -0.000002 7.704017 -0.119259 -0.148021 0.395788
 28 1.854841 1.227791 -13.762345 2.490011 0.398090 2.065286
 29 10.456543 -0.000004 0.000004 -0.046328 -0.096626 -1.588643
 30 24.248093 0.000001 0.000007 0.766788 0.416311 1.732522
 31 26.336971 0.000019 0.000002 -0.126076 0.048174 0.492280
 32 1.854847 1.227798 13.762341 -2.440717 -0.482065 2.365558
 33 10.456542 -0.000008 0.000004 0.395315 -0.138720 -1.480599
 34 24.248116 0.000002 -0.000004 -0.015470 0.058089 1.808456
 35 26.336975 0.000000 0.000004 -0.485310 0.309197 0.412993
time 9
  0 0.000000 0.000000 0.000000 0.000000 -0.000000 -1.570796
  1 0.000000 0.000000 0.000000 0.000000 -0.000000 0.000000
  2 1.128941 -13.733166 20.562620 -1.700114 -0.166343 1.550665
  3 4.222169 -0.467508 0.000000 0.050544 0.277195 -0.170927
  4 4.476987 -0.000002 -0.000000 0.105571 0.270992 -0.069554
  5 4.477083 0.000000 0.000002 0.095267 -0.163874 0.022374
  6 4.477077 -0.000004 -0.000002 -0.011319 -0.280041 0.087394
  7 5.413502 -7.700466 -0.000000 0.010141 0.029072 -0.435584
  8 6.890240 0.000002 -0.000000 -0.075167 -0.040634 -0.282770
  9 8.011925 0.000004 0.000005 0.083990 -0.121382 -0.244537
 10 7.210720 -0.000002 -0.000000 -0.078703 -0.188644 -0.383782
 11 8.581028 -0.304903 -0.000000 0.015229 -0.040311 0.680649
 12 22.523008 2.194031 6.355708 0.000000 -0.260791 0.000000
 13 22.523005 2.194038 -6.355709 0.000000 0.318644 0.000000
 14 -3.006533 7.804720 -11.355459 0.314077 0.152605 1.041478
 15 10.384675 0.000008 0.000005 -0.007448 0.189197 -1.883697
 16 22.550743 -0.000006 -0.000004 0.126720 0.012790 2.017786
 17 30.814247 -0.000015 -0.000004 2.581633 0.471758 0.667817
 18 -3.013796 7.815494 11.355459 0.053317 -0.386674 0.912365
 19 10.374533 -0.000002 0.000007 -0.114154 -0.491900 -1.647462
 20 22.550726 -0.000027 -0.000013 -0.111547 0.021515 1.985760
 21 30.814270 -0.000023 0.000002 -2.747676 -0.218587 0.827834
 22 -4.250660 -0.770624 0.000001 0.005165 -0.053920 -3.094370
 23 10.363422 0.000000 0.000000 -0.015724 -0.030149 -0.112708
 24 10.363076 0.000000 -0.000000 0.010798 -0.050554 0.087160
 25 10.363081 -0.000004 -0.000002 -0.089590 -0.025019 0.593304
 26 9.253358 -0.000006 -3.973408 0.089837 0.092309 0.527996
 27 8.210346 -0.000002 7.704017 -0.147590 -0.178288 0.536274
 28 1.854841 1.227791 -13.762345 2.478358 0.362020 1.982145
 29 10.456543 -0.000004 0.000004 -0.066313 -0.100577 -1.605837
 30 24.248093 0.000001 0.000007 0.858911 0.495206 1.775917
 31 26.336971 0.000019 0.000002 -0.232964 0.034378 0.486205
 32 1.854847 1.227798 13.762341 -2.409182 -0.597094 2.464386
 33 10.456542 -0.000008 0.000004 0.438419 -0.160176 -1.363785
 34 24.248116 0.000002 -0.000004 -0.022763 0.074831 1.811503
 35 26.336975 0.000000 0.000004 -0.534454 0.405984 0.434300
time 10
  0 0.000000 0.000000 0.000000 0.000000 -0.000000 -1.570796
  1 0.000000 0.000000 0.000000 0.000000 -0.000000 0.000000
  2 4.718894 -13.838636 20.140732 -1.747757 -0.148632 1.548173
  3 4.222169 -0.467508 0.000000 0.060143 0.330306 -0.157862
  4 4.476987 -0.000002 -0.000000 0.146534 0.326700 -0.056435
  5 4.477083 0.000000 0.000002 0.146190 -0.199153 0.053188
  6 4.477077 -0.000004 -0.000002 -0.020367 -0.321704 0.137897
  7 5.413502 -7.700466 -0.000000 0.012906 0.044364 -0.426125
  8 6.890240 0.000002 -0.000000 -0.098933 -0.046607 -0.200041
  9 8.011925 0.000004 0.000005 0.108612 -0.150298 -0.261071
 10 7.210720 -0.000002 -0.000000 -0.122130 -0.238554 -0.438248
 11 8.581028 -0.304903 -0.000000 0.013713 -0.061343 0.699015
 12 22.523008 2.194031 6.355708 0.000000 -0.368579 0.000000
 13 22.523005 2.194038 -6.355709 0.000000 0.458334 0.000000
 14 -3.006533 7.804720 -11.355459 0.244245 0.039619 1.013391
 15 10.384675 0.000008 0.000005 0.000732 0.190130 -1.840043
 16 22.550743 -0.000006 -0.000004 0.125521 0.013106 1.962823
 17 30.814247 -0.000015 -0.000004 2.703672 0.553670 0.639204
 18 -3.013796 7.815494 11.355459 0.005459 -0.445752 0.947933
 19 10.374533 -0.000002 0.000007 -0.207719 -0.502498 -1.468751
 20 22.550726 -0.000027 -0.000013 -0.105419 0.028347 1.829799
 21 30.814270 -0.000023 0.000002 -2.657625 -0.177067 0.816594
 22 -4.250660 -0.770624 0.000001 0.001965 -0.046073 -3.074295
 23 10.363422 0.000000 0.000000 -0.022267 -0.043140 -0.065373
 24 10.363076 0.000000 -0.000000 0.012835 -0.071575 -0.042741
 25 10.363081 -0.000004 -0.000002 -0.081231 -0.065306 0.471257
 26 9.253358 -0.000006 -3.973408 0.069597 0.120804 0.359301
 27 8.210346 -0.000002 7.704017 -0.107430 -0.226349 0.365880
 28 1.854841 1.227791 -13.762345 2.502895 0.308827 1.925886
 29 10.456543 -0.000004 0.000004 -0.087557 -0.103459 -1.630804
 30 24.248093 0.000001 0.000007 0.934649 0.565687 1.824699
 31 26.336971 0.000019 0.000002 -0.363127 -0.020465 0.501282
 32 1.854847 1.227798 13.762341 -2.388958 -0.716612 2.560759
 33 10.456542 -0.000008 0.000004 0.455308 -0.182912 -1.229511
 34 24.248116 0.000002 -0.000004 -0.048309 0.090039 1.734937
 35 26.336975 0.000000 0.000004 -0.598135 0.457945 0.498672
time 11
  0 0.000000 0.000000 0.000000 0.000000 -0.000000 -1.570796
  1 0.000000 0.000000 0.000000 0.000000 -0.000000 0.000000
  2 8.875271 -13.897232 20.070417 -1.778816 -0.127450 1.545968
  3 4.222169 -0.467508 0.000000 0.061018 0.362543 -0.156544
  4 4.476987 -0.000002 -0.000000 0.183639 0.373798 -0.043183
  5 4.477083 0.000000 0.000002 0.186062 -0.221364 0.086685
  6 4.477077 -0.000004 -0.000002 -0.031668 -0.347036 0.182015
  7 5.413502 -7.700466 -0.000000 0.016069 0.060845 -0.412870
  8 6.890240 0.000002 -0.000000 -0.120673 -0.051691 -0.119545
  9 8.011925 0.000004 0.000005 0.133339 -0.176322 -0.276853
 10 7.210720 -0.000002 -0.000000 -0.165613 -0.285463 -0.479064
 11 8.581028 -0.304903 -0.000000 0.013461 -0.079866 0.714963
 12 22.523008 2.194031 6.355708 0.000000 -0.454674 0.000000
 13 22.523005 2.194038 -6.355709 0.000000 0.570982 0.000000
 14 -3.006533 7.804720 -11.355459 0.177885 -0.070046 0.998901
 15 10.384675 0.000008 0.000005 0.004953 0.190448 -1.817550
 16 22.550743 -0.000006 -0.000004 0.124913 0.013220 1.935885
 17 30.814247 -0.000015 -0.000004 2.811822 0.638842 0.604323
 18 -3.013796 7.815494 11.355459 -0.050392 -0.503521 1.017758
 19 10.374533 -0.000002 0.000007 -0.288341 -0.497780 -1.316018
 20 22.550726 -0.000027 -0.000013 -0.100782 0.034923 1.696853
 21 30.814270 -0.000023 0.000002 -2.558698 -0.105524 0.797628
 22 -4.250660 -0.770624 0.000001 -0.001714 -0.038354 -3.045539
 23 10.363422 0.000000 0.000000 -0.029123 -0.052213 0.006807
 24 10.363076 0.000000 -0.000000 0.016826 -0.086017 -0.206711
 25 10.363081 -0.000004 -0.000002 -0.062086 -0.109013 0.218489
 26 9.253358 -0.000006 -3.973408 0.031366 0.151743 0.036178
 27 8.210346 -0.000002 7.704017 -0.029973 -0.275772 0.037232
 28 1.854841 1.227791 -13.762345 2.552717 0.253191 1.908491
 29 10.456543 -0.000004 0.000004 -0.103018 -0.096181 -1.631281
 30 24.248093 0.000001 0.000007 0.967717 0.626926 1.820850
 31 26.336971 0.000019 0.000002 -0.484067 -0.063799 0.538615
 32 1.854847 1.227798 13.762341 -2.393314 -0.804991 2.649635
 33 10.456542 -0.000008 0.000004 0.420648 -0.197856 -1.053738
 34 24.248116 0.000002 -0.000004 -0.091875 0.101377 1.563325
 35 26.336975 0.000000 0.000004 -0.646979 0.487757 0.595937
time 12
  0 0.000000 0.000000 0.000000 0.000000 -0.000000 -1.570796
  1 0.000000 0.000000 0.000000 0.000000 -0.000000 0.000000
  2 11.160497 -13.920671 20.449335 -1.786006 -0.101003 1.544722
  3 4.222169 -0.467508 0.000000 0.055685 0.377707 -0.162340
  4 4.476987 -0.000002 -0.000000 0.201496 0.394552 -0.032395
  5 4.477083 0.000000 0.000002 0.197951 -0.225209 0.117633
  6 4.477077 -0.000004 -0.000002 -0.043246 -0.351359 0.212273
  7 5.413502 -7.700466 -0.000000 0.024682 0.079162 -0.365139
  8 6.890240 0.000002 -0.000000 -0.135522 -0.059547 -0.073817
  9 8.011925 0.000004 0.000005 0.153102 -0.185939 -0.279890
 10 7.210720 -0.000002 -0.000000 -0.199021 -0.306490 -0.493089
 11 8.581028 -0.304903 -0.000000 0.015734 -0.094002 0.727686
 12 22.523008 2.194031 6.355708 0.000000 -0.490909 0.000000
 13 22.523005 2.194038 -6.355709 0.000000 0.617868 0.000000
 14 -3.006533 7.804720 -11.355459 0.137299 -0.135090 0.991690
 15 10.384675 0.000008 0.000005 -0.004273 0.189833 -1.867924
 16 22.550743 -0.000006 -0.000004 0.126528 0.012962 2.004772
 17 30.814247 -0.000015 -0.000004 2.839252 0.672541 0.531267
 18 -3.013796 7.815494 11.355459 -0.105785 -0.553182 1.094880
 19 10.374533 -0.000002 0.000007 -0.298520 -0.500106 -1.303203
 20 22.550726 -0.000027 -0.000013 -0.100782 0.038221 1.696357
 21 30.814270 -0.000023 0.000002 -2.477557 -0.028697 0.739335
 22 -4.250660 -0.770624 0.000001 -0.004446 -0.032673 -3.008923
 23 10.363422 0.000000 0.000000 -0.033377 -0.056875 0.050863
 24 10.363076 0.000000 -0.000000 0.020985 -0.092740 -0.342341
 25 10.363081 -0.000004 -0.000002 -0.044960 -0.129965 0.018182
 26 9.253358 -0.000006 -3.973408 0.007768 0.162135 -0.194954
 27 8.210346 -0.000002 7.704017 0.021572 -0.294341 -0.197623
 28 1.854841 1.227791 -13.762345 2.593964 0.221981 1.948754
 29 10.456543 -0.000004 0.000004 -0.091558 -0.051535 -1.541012
 30 24.248093 0.000001 0.000007 0.895056 0.664921 1.647865
 31 26.336971 0.000019 0.000002 -0.531138 -0.043932 0.614219
 32 1.854847 1.227798 13.762341 -2.427178 -0.794648 2.709691
 33 10.456542 -0.000008 0.000004 0.367098 -0.198969 -0.879542
 34 24.248116 0.000002 -0.000004 -0.138886 0.102312 1.337437
 35 26.336975 0.000000 0.000004 -0.655598 0.504291 0.702132
time 13
  0 0.000000 0.000000 0.000000 0.000000 -0.000000 -1.570796
  1 0.000000 0.000000 0.000000 0.000000 -0.000000 0.000000
  2 11.867550 -13.912859 21.164202 -1.760795 -0.069810 1.543859
  3 4.222169 -0.467508 0.000000 0.042742 0.359855 -0.176937
  4 4.476987 -0.000002 -0.000000 0.181493 0.366345 -0.023183
  5 4.477083 0.000000 0.000002 0.174917 -0.213078 0.148981
  6 4.477077 -0.000004 -0.000002 -0.052737 -0.326158 0.212367
  7 5.413502 -7.700466 -0.000000 0.055306 0.100163 -0.189992
  8 6.890240 0.000002 -0.000000 -0.138266 -0.076145 -0.121476
  9 8.011925 0.000004 0.000005 0.165255 -0.176450 -0.275062
 10 7.210720 -0.000002 -0.000000 -0.216316 -0.308221 -0.494672
 11 8.581028 -0.304903 -0.000000 0.021314 -0.102811 0.736273
 12 22.523008 2.194031 6.355708 0.000000 -0.475633 0.000000
 13 22.523005 2.194038 -6.355709 0.000000 0.599083 0.000000
 14 -3.006533 7.804720 -11.355459 0.110603 -0.168406 0.950898
 15 10.384675 0.000008 0.000005 -0.011370 0.188751 -1.905968
 16 22.550743 -0.000006 -0.000004 0.127360 0.012560 2.051382
 17 30.814247 -0.000015 -0.000004 2.840213 0.658811 0.485464
 18 -3.013796 7.815494 11.355459 -0.124012 -0.583973 1.098129
 19 10.374533 -0.000002 0.000007 -0.292858 -0.498844 -1.310625
 20 22.550726 -0.000027 -0.000013 -0.102151 0.039144 1.702312
 21 30.814270 -0.000023 0.000002 -2.441670 0.026745 0.685533
 22 -4.250660 -0.770624 0.000001 -0.005729 -0.035481 -2.940171
 23 10.363422 0.000000 0.000000 -0.031543 -0.055053 0.012088
 24 10.363076 0.000000 -0.000000 0.023406 -0.087479 -0.417164
 25 10.363081 -0.000004 -0.000002 -0.036194 -0.127700 -0.078683
 26 9.253358 -0.000006 -3.973408 0.004654 0.133641 -0.279505
 27 8.210346 -0.000002 7.704017 0.035103 -0.266766 -0.283684
 28 1.854841 1.227791 -13.762345 2.615775 0.206314 1.988288
 29 10.456543 -0.000004 0.000004 -0.069947 -0.020732 -1.454955
 30 24.248093 0.000001 0.000007 0.836298 0.663609 1.524904
 31 26.336971 0.000019 0.000002 -0.520741 -0.044536 0.679607
 32 1.854847 1.227798 13.762341 -2.429575 -0.758585 2.681214
 33 10.456542 -0.000008 0.000004 0.330573 -0.191372 -0.787714
 34 24.248116 0.000002 -0.000004 -0.160325 0.096835 1.200959
 35 26.336975 0.000000 0.000004 -0.643119 0.487788 0.754749
time 14
  0 0.000000 0.000000 0.000000 0.000000 -0.000000 -1.570796
  1 0.000000 0.000000 0.000000 0.000000 -0.000000 0.000000
  2 11.949583 -13.873795 22.066572 -1.686118 -0.034746 1.541750
  3 4.222169 -0.467508 0.000000 0.026143 0.309748 -0.196013
  4 4.476987 -0.000002 -0.000000 0.151867 0.315798 -0.015570
  5 4.477083 0.000000 0.000002 0.134145 -0.189655 0.179380
  6 4.477077 -0.000004 -0.000002 -0.056980 -0.288930 0.197713
  7 5.413502 -7.700466 -0.000000 0.097706 0.119363 0.049844
  8 6.890240 0.000002 -0.000000 -0.139297 -0.094443 -0.200553
  9 8.011925 0.000004 0.000005 0.176335 -0.162359 -0.270883
 10 7.210720 -0.000002 -0.000000 -0.230782 -0.307197 -0.498104
 11 8.581028 -0.304903 -0.000000 0.030064 -0.107608 0.739463
 12 22.523008 2.194031 6.355708 0.000000 -0.422014 0.000000
 13 22.523005 2.194038 -6.355709 0.000000 0.534199 0.000000
 14 -3.006533 7.804720 -11.355459 0.101270 -0.159326 0.867117
 15 10.384675 0.000008 0.000005 -0.017309 0.187627 -1.938181
 16 22.550743 -0.000006 -0.000004 0.127888 0.012417 2.081527
 17 30.814247 -0.000015 -0.000004 2.829730 0.627526 0.468417
 18 -3.013796 7.815494 11.355459 -0.109756 -0.586588 1.048881
 19 10.374533 -0.000002 0.000007 -0.287735 -0.495787 -1.314162
 20 22.550726 -0.000027 -0.000013 -0.103315 0.040028 1.700948
 21 30.814270 -0.000023 0.000002 -2.440197 0.061317 0.644031
 22 -4.250660 -0.770624 0.000001 -0.006975 -0.040825 -2.865376
 23 10.363422 0.000000 0.000000 -0.028152 -0.050499 -0.057517
 24 10.363076 0.000000 -0.000000 0.024640 -0.078586 -0.466745
 25 10.363081 -0.000004 -0.000002 -0.030198 -0.119027 -0.139305
 26 9.253358 -0.000006 -3.973408 0.005814 0.073528 -0.309263
 27 8.210346 -0.000002 7.704017 0.038087 -0.205305 -0.313830
 28 1.854841 1.227791 -13.762345 2.601572 0.218724 1.995890
 29 10.456543 -0.000004 0.000004 -0.055884 -0.014060 -1.411189
 30 24.248093 0.000001 0.000007 0.814351 0.645510 1.483996
 31 26.336971 0.000019 0.000002 -0.478760 -0.085636 0.729089
 32 1.854847 1.227798 13.762341 -2.406751 -0.712015 2.587254
 33 10.456542 -0.000008 0.000004 0.309750 -0.184721 -0.750510
 34 24.248116 0.000002 -0.000004 -0.164470 0.091825 1.133431
 35 26.336975 0.000000 0.000004 -0.630340 0.422891 0.748589
time 15
  0 0.000000 0.000000 0.000000 0.000000 -0.000000 -1.570796
  1 0.000000 0.000000 0.000000 0.000000 -0.000000 0.000000
  2 11.711295 -13.823011 23.035353 -1.601089 0.000516 1.541462
  3 4.222169 -0.467508 0.000000 0.015489 0.247405 -0.206087
  4 4.476987 -0.000002 -0.000000 0.117412 0.233318 -0.015658
  5 4.477083 0.000000 0.000002 0.098851 -0.148447 0.185086
  6 4.477077 -0.000004 -0.000002 -0.049633 -0.238021 0.162923
  7 5.413502 -7.700466 -0.000000 0.122867 0.136405 0.170788
  8 6.890240 0.000002 -0.000000 -0.132957 -0.103867 -0.239625
  9 8.011925 0.000004 0.000005 0.182294 -0.152614 -0.252168
 10 7.210720 -0.000002 -0.000000 -0.235724 -0.303630 -0.479708
 11 8.581028 -0.304903 -0.000000 0.036103 -0.109896 0.758390
 12 22.523008 2.194031 6.355708 0.000000 -0.356083 0.000000
 13 22.523005 2.194038 -6.355709 0.000000 0.454462 0.000000
 14 -3.006533 7.804720 -11.355459 0.109138 -0.116259 0.797688
 15 10.384675 0.000008 0.000005 -0.022799 0.186375 -1.968339
 16 22.550743 -0.000006 -0.000004 0.128447 0.012245 2.113428
 17 30.814247 -0.000015 -0.000004 2.805576 0.587306 0.460073
 18 -3.013796 7.815494 11.355459 -0.085776 -0.558339 1.000601
 19 10.374533 -0.000002 0.000007 -0.280185 -0.491800 -1.320308
 20 22.550726 -0.000027 -0.000013 -0.104786 0.040852 1.703367
 21 30.814270 -0.000023 0.000002 -2.445809 0.081992 0.603895
 22 -4.250660 -0.770624 0.000001 -0.008257 -0.045832 -2.797854
 23 10.363422 0.000000 0.000000 -0.024353 -0.044986 -0.123843
 24 10.363076 0.000000 -0.000000 0.025347 -0.068291 -0.497304
 25 10.363081 -0.000004 -0.000002 -0.025458 -0.106671 -0.167951
 26 9.253358 -0.000006 -3.973408 0.007255 0.014162 -0.331004
 27 8.210346 -0.000002 7.704017 0.039837 -0.141584 -0.335464
 28 1.854841 1.227791 -13.762345 2.578486 0.238264 1.996194
 29 10.456543 -0.000004 0.000004 -0.049315 -0.019291 -1.394212
 30 24.248093 0.000001 0.000007 0.805824 0.619904 1.477957
 31 26.336971 0.000019 0.000002 -0.434603 -0.130310 0.770675
 32 1.854847 1.227798 13.762341 -2.382543 -0.648672 2.468910
 33 10.456542 -0.000008 0.000004 0.290894 -0.178181 -0.722292
 34 24.248116 0.000002 -0.000004 -0.167113 0.086480 1.071793
 35 26.336975 0.000000 0.000004 -0.614688 0.347757 0.732764
time 16
  0 0.000000 0.000000 0.000000 0.000000 -0.000000 -1.570796
  1 0.000000 0.000000 0.000000 0.000000 -0.000000 0.000000
  2 11.230811 -13.760509 24.000225 -1.521620 0.033944 1.544146
  3 4.222169 -0.467508 0.000000 0.012121 0.171864 -0.202744
  4 4.476987 -0.000002 -0.000000 0.080727 0.147303 -0.019121
  5 4.477083 0.000000 0.000002 0.068170 -0.096595 0.146491
  6 4.477077 -0.000004 -0.000002 -0.034844 -0.173244 0.109632
  7 5.413502 -7.700466 -0.000000 0.123584 0.154772 0.051213
  8 6.890240 0.000002 -0.000000 -0.096452 -0.085386 -0.153428
  9 8.011925 0.000004 0.000005 0.167639 -0.156880 -0.170483
 10 7.210720 -0.000002 -0.000000 -0.199680 -0.283945 -0.356750
 11 8.581028 -0.304903 -0.000000 0.027905 -0.110886 0.850782
 12 22.523008 2.194031 6.355708 0.000000 -0.285386 0.000000
 13 22.523005 2.194038 -6.355709 0.000000 0.363927 0.000000
 14 -3.006533 7.804720 -11.355459 0.133718 -0.061885 0.797963
 15 10.384675 0.000008 0.000005 -0.028103 0.185017 -1.997942
 16 22.550743 -0.000006 -0.000004 0.129039 0.012015 2.146419
 17 30.814247 -0.000015 -0.000004 2.777839 0.542385 0.447575
 18 -3.013796 7.815494 11.355459 -0.074983 -0.521532 0.994445
 19 10.374533 -0.000002 0.000007 -0.262051 -0.489043 -1.347561
 20 22.550726 -0.000027 -0.000013 -0.107421 0.041225 1.730291
 21 30.814270 -0.000023 0.000002 -2.448791 0.067214 0.567329
 22 -4.250660 -0.770624 0.000001 -0.008126 -0.051048 -2.763798
 23 10.363422 0.000000 0.000000 -0.020937 -0.038383 -0.160792
 24 10.363076 0.000000 -0.000000 0.025719 -0.057302 -0.502569
 25 10.363081 -0.000004 -0.000002 -0.021457 -0.092559 -0.173535
 26 9.253358 -0.000006 -3.973408 0.008123 -0.015521 -0.331683
 27 8.210346 -0.000002 7.704017 0.039981 -0.099465 -0.336074
 28 1.854841 1.227791 -13.762345 2.559445 0.254573 2.000208
 29 10.456543 -0.000004 0.000004 -0.042991 -0.024309 -1.377105
 30 24.248093 0.000001 0.000007 0.794962 0.592321 1.470439
 31 26.336971 0.000019 0.000002 -0.388229 -0.177585 0.804749
 32 1.854847 1.227798 13.762341 -2.372515 -0.581252 2.367411
 33 10.456542 -0.000008 0.000004 0.273801 -0.171920 -0.702941
 34 24.248116 0.000002 -0.000004 -0.166258 0.080931 1.021985
 35 26.336975 0.000000 0.000004 -0.599164 0.285341 0.717674
time 17
  0 0.000000 0.000000 0.000000 0.000000 -0.000000 -1.570796
  1 0.000000 0.000000 0.000000 0.000000 -0.000000 0.000000
  2 10.578447 -13.694101 24.918222 -1.460364 0.059832 1.547214
  3 4.222169 -0.467508 0.000000 0.011210 0.099752 -0.190032
  4 4.476987 -0.000002 -0.000000 0.043083 0.070905 -0.023894
  5 4.477083 0.000000 0.000002 0.027938 -0.050589 0.073434
  6 4.477077 -0.000004 -0.000002 -0.023519 -0.108767 0.056357
  7 5.413502 -7.700466 -0.000000 0.114520 0.172018 -0.230006
  8 6.890240 0.000002 -0.000000 -0.024808 -0.047418 0.033185
  9 8.011925 0.000004 0.000005 0.134321 -0.169133 -0.025801
 10 7.210720 -0.000002 -0.000000 -0.123476 -0.247894 -0.120651
 11 8.581028 -0.304903 -0.000000 0.009718 -0.111023 1.009908
 12 22.523008 2.194031 6.355708 0.000000 -0.214108 0.000000
 13 22.523005 2.194038 -6.355709 0.000000 0.269035 0.000000
 14 -3.006533 7.804720 -11.355459 0.171374 -0.024824 0.882019
 15 10.384675 0.000008 0.000005 -0.031876 0.184062 -2.018436
 16 22.550743 -0.000006 -0.000004 0.129583 0.011785 2.169724
 17 30.814247 -0.000015 -0.000004 2.748662 0.494172 0.432426
 18 -3.013796 7.815494 11.355459 -0.081550 -0.501466 1.026479
 19 10.374533 -0.000002 0.000007 -0.227740 -0.488312 -1.408794
 20 22.550726 -0.000027 -0.000013 -0.110914 0.041107 1.785815
 21 30.814270 -0.000023 0.000002 -2.442477 0.018157 0.535868
 22 -4.250660 -0.770624 0.000001 -0.006076 -0.056809 -2.770660
 23 10.363422 0.000000 0.000000 -0.018408 -0.031431 -0.160704
 24 10.363076 0.000000 -0.000000 0.025995 -0.046743 -0.485689
 25 10.363081 -0.000004 -0.000002 -0.017603 -0.077954 -0.153346
 26 9.253358 -0.000006 -3.973408 0.007842 -0.019868 -0.307123
 27 8.210346 -0.000002 7.704017 0.039226 -0.078978 -0.311727
 28 1.854841 1.227791 -13.762345 2.543351 0.268710 2.006899
 29 10.456543 -0.000004 0.000004 -0.036789 -0.029025 -1.359563
 30 24.248093 0.000001 0.000007 0.782098 0.562902 1.461795
 31 26.336971 0.000019 0.000002 -0.340636 -0.218500 0.823029
 32 1.854847 1.227798 13.762341 -2.376871 -0.518483 2.295853
 33 10.456542 -0.000008 0.000004 0.258065 -0.166104 -0.691157
 34 24.248116 0.000002 -0.000004 -0.158900 0.075274 0.993958
 35 26.336975 0.000000 0.000004 -0.584241 0.243617 0.702415
time 18
  0 0.000000 0.000000 0.000000 0.000000 -0.000000 -1.570796
  1 0.000000 0.000000 0.000000 0.000000 -0.000000 0.000000
  2 9.820612 -13.623787 25.773716 -1.425183 0.074033 1.549035
  3 4.222169 -0.467508 0.000000 0.007591 0.050330 -0.172859
  4 4.476987 -0.000002 -0.000000 0.012127 0.015219 -0.026069
  5 4.477083 0.000000 0.000002 -0.010245 -0.015763 0.004217
  6 4.477077 -0.000004 -0.000002 -0.017191 -0.059023 0.014154
  7 5.413502 -7.700466 -0.000000 0.105056 0.184813 -0.507584
  8 6.890240 0.000002 -0.000000 0.050299 -0.017736 0.219100
  9 8.011925 0.000004 0.000005 0.100335 -0.177967 0.116571
 10 7.210720 -0.000002 -0.000000 -0.043620 -0.211648 0.114402
 11 8.581028 -0.304903 -0.000000 -0.007551 -0.108923 1.163006
 12 22.523008 2.194031 6.355708 0.000000 -0.144113 0.000000
 13 22.523005 2.194038 -6.355709 0.000000 0.176171 0.000000
 14 -3.006533 7.804720 -11.355459 0.208704 -0.002142 0.977612
 15 10.384675 0.000008 0.000005 -0.031988 0.184105 -2.018102
 16 22.550743 -0.000006 -0.000004 0.129711 0.011728 2.169542
 17 30.814247 -0.000015 -0.000004 2.719440 0.444893 0.415810
 18 -3.013796 7.815494 11.355459 -0.091529 -0.488649 1.064157
 19 10.374533 -0.000002 0.000007 -0.192889 -0.483461 -1.468519
 20 22.550726 -0.000027 -0.000013 -0.113978 0.040970 1.835692
 21 30.814270 -0.000023 0.000002 -2.434829 -0.029064 0.506443
 22 -4.250660 -0.770624 0.000001 -0.001786 -0.062923 -2.796113
 23 10.363422 0.000000 0.000000 -0.015892 -0.024528 -0.159515
 24 10.363076 0.000000 -0.000000 0.025959 -0.036544 -0.442535
 25 10.363081 -0.000004 -0.000002 -0.013786 -0.062733 -0.111732
 26 9.253358 -0.000006 -3.973408 0.007377 -0.018408 -0.263811
 27 8.210346 -0.000002 7.704017 0.037716 -0.065516 -0.268629
 28 1.854841 1.227791 -13.762345 2.529411 0.281564 2.015961
 29 10.456543 -0.000004 0.000004 -0.030674 -0.033349 -1.341457
 30 24.248093 0.000001 0.000007 0.767418 0.531445 1.452382
 31 26.336971 0.000019 0.000002 -0.293130 -0.241915 0.818003
 32 1.854847 1.227798 13.762341 -2.389600 -0.466933 2.251479
 33 10.456542 -0.000008 0.000004 0.242973 -0.160677 -0.683984
 34 24.248116 0.000002 -0.000004 -0.149301 0.069869 0.972227
 35 26.336975 0.000000 0.000004 -0.569704 0.216814 0.687042
time 19
  0 0.000000 0.000000 0.000000 0.000000 -0.000000 -1.570796
  1 0.000000 0.000000 0.000000 0.000000 -0.000000 0.000000
  2 8.996368 -13.549566 26.562803 -1.409461 0.076745 1.550953
  3 4.222169 -0.467508 0.000000 0.003073 0.020039 -0.153814
  4 4.476987 -0.000002 -0.000000 -0.002135 -0.007506 -0.021030
  5 4.477083 0.000000 0.000002 -0.029768 0.001732 -0.028865
  6 4.477077 -0.000004 -0.000002 -0.015202 -0.037299 -0.007337
  7 5.413502 -7.700466 -0.000000 0.100138 0.189536 -0.644366
  8 6.890240 0.000002 -0.000000 0.089285 -0.000810 0.311487
  9 8.011925 0.000004 0.000005 0.082575 -0.180811 0.180554
 10 7.210720 -0.000002 -0.000000 0.003184 -0.183418 0.231567
 11 8.581028 -0.304903 -0.000000 -0.016920 -0.105440 1.243972
 12 22.523008 2.194031 6.355708 0.000000 -0.076197 0.000000
 13 22.523005 2.194038 -6.355709 0.000000 0.093712 0.000000
 14 -3.006533 7.804720 -11.355459 0.233176 0.014464 1.030147
 15 10.384675 0.000008 0.000005 -0.030680 0.184253 -2.010660
 16 22.550743 -0.000006 -0.000004 0.129567 0.011785 2.161431
 17 30.814247 -0.000015 -0.000004 2.690438 0.406210 0.400769
 18 -3.013796 7.815494 11.355459 -0.096010 -0.472133 1.091061
 19 10.374533 -0.000002 0.000007 -0.170374 -0.470903 -1.495830
 20 22.550726 -0.000027 -0.000013 -0.116205 0.040695 1.858336
 21 30.814270 -0.000023 0.000002 -2.438302 -0.054559 0.486528
 22 -4.250660 -0.770624 0.000001 0.006196 -0.069550 -2.849245
 23 10.363422 0.000000 0.000000 -0.013315 -0.017577 -0.158107
 24 10.363076 0.000000 -0.000000 0.025479 -0.026405 -0.363996
 25 10.363081 -0.000004 -0.000002 -0.009871 -0.046603 -0.046118
 26 9.253358 -0.000006 -3.973408 0.006901 -0.017389 -0.194750
 27 8.210346 -0.000002 7.704017 0.035139 -0.054560 -0.199929
 28 1.854841 1.227791 -13.762345 2.524662 0.286276 2.032382
 29 10.456543 -0.000004 0.000004 -0.024560 -0.037086 -1.322353
 30 24.248093 0.000001 0.000007 0.751959 0.497788 1.443384
 31 26.336971 0.000019 0.000002 -0.247668 -0.250981 0.799503
 32 1.854847 1.227798 13.762341 -2.404320 -0.429885 2.224381
 33 10.456542 -0.000008 0.000004 0.229374 -0.156002 -0.691670
 34 24.248116 0.000002 -0.000004 -0.138367 0.065028 0.960803
 35 26.336975 0.000000 0.000004 -0.555938 0.195130 0.671161
time 20
  0 0.000000 0.000000 0.000000 0.000000 -0.000000 -1.570796
  1 0.000000 0.000000 0.000000 0.000000 -0.000000 0.000000
  2 8.144780 -13.475346 27.285480 -1.415884 0.065815 1.552199
  3 4.222169 -0.467508 0.000000 0.000544 0.010066 -0.133605
  4 4.476987 -0.000002 -0.000000 -0.007012 -0.015687 -0.001541
  5 4.477083 0.000000 0.000002 -0.030631 0.005641 -0.024581
  6 4.477077 -0.000004 -0.000002 -0.015106 -0.034180 -0.015123
  7 5.413502 -7.700466 -0.000000 0.099540 0.186376 -0.635467
  8 6.890240 0.000002 -0.000000 0.093815 0.007515 0.303458
  9 8.011925 0.000004 0.000005 0.079288 -0.178031 0.162696
 10 7.210720 -0.000002 -0.000000 0.018749 -0.162108 0.224729
 11 8.581028 -0.304903 -0.000000 -0.018803 -0.100387 1.255854
 12 22.523008 2.194031 6.355708 0.000000 -0.027405 0.000000
 13 22.523005 2.194038 -6.355709 0.000000 0.033879 0.000000
 14 -3.006533 7.804720 -11.355459 0.239578 0.029302 1.024104
 15 10.384675 0.000008 0.000005 -0.027804 0.184826 -1.995443
 16 22.550743 -0.000006 -0.000004 0.129327 0.011929 2.143816
 17 30.814247 -0.000015 -0.000004 2.671437 0.373514 0.393320
 18 -3.013796 7.815494 11.355459 -0.083282 -0.458905 1.068375
 19 10.374533 -0.000002 0.000007 -0.154802 -0.454757 -1.506267
 20 22.550726 -0.000027 -0.000013 -0.118084 0.040244 1.869254
 21 30.814270 -0.000023 0.000002 -2.457351 -0.055465 0.479472
 22 -4.250660 -0.770624 0.000001 0.015388 -0.076050 -2.910673
 23 10.363422 0.000000 0.000000 -0.010714 -0.010590 -0.156324
 24 10.363076 0.000000 -0.000000 0.025072 -0.016206 -0.269790
 25 10.363081 -0.000004 -0.000002 -0.006067 -0.030196 0.034773
 26 9.253358 -0.000006 -3.973408 0.006400 -0.016200 -0.109757
 27 8.210346 -0.000002 7.704017 0.032047 -0.046081 -0.115223
 28 1.854841 1.227791 -13.762345 2.536535 0.274902 2.060968
 29 10.456543 -0.000004 0.000004 -0.018306 -0.040004 -1.301729
 30 24.248093 0.000001 0.000007 0.727825 0.462619 1.424735
 31 26.336971 0.000019 0.000002 -0.208124 -0.239497 0.766809
 32 1.854847 1.227798 13.762341 -2.419109 -0.408816 2.215291
 33 10.456542 -0.000008 0.000004 0.218454 -0.152579 -0.726588
 34 24.248116 0.000002 -0.000004 -0.124416 0.060366 0.975071
 35 26.336975 0.000000 0.000004 -0.545603 0.183745 0.654489
time 21
  0 0.000000 0.000000 0.000000 0.000000 -0.000000 -1.570796
  1 0.000000 0.000000 0.000000 0.000000 -0.000000 0.000000
  2 7.297098 -13.401123 27.945658 -1.443492 0.043557 1.553253
  3 4.222169 -0.467508 0.000000 -0.001026 0.009065 -0.113824
  4 4.476987 -0.000002 -0.000000 -0.007084 -0.018172 0.042876
  5 4.477083 0.000000 0.000002 -0.027323 0.008452 -0.001919
  6 4.477077 -0.000004 -0.000002 -0.015046 -0.032019 -0.022364
  7 5.413502 -7.700466 -0.000000 0.100537 0.177082 -0.559578
  8 6.890240 0.000002 -0.000000 0.089081 0.011502 0.254053
  9 8.011925 0.000004 0.000005 0.079877 -0.171034 0.109874
 10 7.210720 -0.000002 -0.000000 0.025722 -0.144965 0.156372
 11 8.581028 -0.304903 -0.000000 -0.018826 -0.094207 1.251087
 12 22.523008 2.194031 6.355708 0.000000 -0.014604 0.000000
 13 22.523005 2.194038 -6.355709 0.000000 0.010345 0.000000
 14 -3.006533 7.804720 -11.355459 0.236214 0.042127 0.990729
 15 10.384675 0.000008 0.000005 -0.021006 0.186481 -1.958620
 16 22.550743 -0.000006 -0.000004 0.128527 0.012302 2.101261
 17 30.814247 -0.000015 -0.000004 2.672049 0.328969 0.392639
 18 -3.013796 7.815494 11.355459 -0.054567 -0.455878 0.990455
 19 10.374533 -0.000002 0.000007 -0.142534 -0.436684 -1.510906
 20 22.550726 -0.000027 -0.000013 -0.119861 0.039969 1.875520
 21 30.814270 -0.000023 0.000002 -2.478048 -0.053997 0.474702
 22 -4.250660 -0.770624 0.000001 0.024245 -0.082148 -2.968722
 23 10.363422 0.000000 0.000000 -0.008138 -0.003639 -0.154520
 24 10.363076 0.000000 -0.000000 0.025036 -0.006079 -0.174732
 25 10.363081 -0.000004 -0.000002 -0.003284 -0.013850 0.125302
 26 9.253358 -0.000006 -3.973408 0.005887 -0.014943 -0.015151
 27 8.210346 -0.000002 7.704017 0.028403 -0.040170 -0.020549
 28 1.854841 1.227791 -13.762345 2.553289 0.256546 2.091804
 29 10.456543 -0.000004 0.000004 -0.011789 -0.040965 -1.278673
 30 24.248093 0.000001 0.000007 0.687306 0.427166 1.385307
 31 26.336971 0.000019 0.000002 -0.176975 -0.204993 0.722518
 32 1.854847 1.227798 13.762341 -2.432513 -0.402687 2.221236
 33 10.456542 -0.000008 0.000004 0.208042 -0.149462 -0.772068
 34 24.248116 0.000002 -0.000004 -0.110011 0.055212 0.998172
 35 26.336975 0.000000 0.000004 -0.540715 0.186072 0.636573
time 22
  0 0.000000 0.000000 0.000000 0.000000 -0.000000 -1.570796
  1 0.000000 0.000000 0.000000 0.000000 -0.000000 0.000000
  2 6.472854 -13.322996 28.535519 -1.482029 -0.006026 1.553253
  3 4.222169 -0.467508 0.000000 -0.002488 0.007248 -0.095976
  4 4.476987 -0.000002 -0.000000 -0.004843 -0.017829 0.097681
  5 4.477083 0.000000 0.000002 -0.024303 0.012958 0.028273
  6 4.477077 -0.000004 -0.000002 -0.014938 -0.029820 -0.029777
  7 5.413502 -7.700466 -0.000000 0.102836 0.162571 -0.454657
  8 6.890240 0.000002 -0.000000 0.084395 0.015083 0.196782
  9 8.011925 0.000004 0.000005 0.081056 -0.159563 0.032316
 10 7.210720 -0.000002 -0.000000 0.031953 -0.129976 0.062699
 11 8.581028 -0.304903 -0.000000 -0.019101 -0.088198 1.248248
 12 22.523008 2.194031 6.355708 0.000000 -0.015215 0.000000
 13 22.523005 2.194038 -6.355709 0.000000 0.008258 0.000000
 14 -3.006533 7.804720 -11.355459 0.231711 0.044459 0.972393
 15 10.384675 0.000008 0.000005 -0.012602 0.188242 -1.912855
 16 22.550743 -0.000006 -0.000004 0.127456 0.012761 2.049445
 17 30.814247 -0.000015 -0.000004 2.676723 0.281947 0.387841
 18 -3.013796 7.815494 11.355459 -0.029365 -0.457971 0.918578
 19 10.374533 -0.000002 0.000007 -0.132894 -0.417216 -1.510906
 20 22.550726 -0.000027 -0.000013 -0.121230 0.039890 1.867455
 21 30.814270 -0.000023 0.000002 -2.493694 -0.055391 0.465610
 22 -4.250660 -0.770624 0.000001 0.032802 -0.087957 -3.024133
 23 10.363422 0.000000 0.000000 -0.005609 0.003228 -0.152957
 24 10.363076 0.000000 -0.000000 0.025419 0.003832 -0.078023
 25 10.363081 -0.000004 -0.000002 0.000138 0.002373 0.220718
 26 9.253358 -0.000006 -3.973408 0.005448 -0.013619 0.084348
 27 8.210346 -0.000002 7.704017 0.024748 -0.035063 0.079110
 28 1.854841 1.227791 -13.762345 2.576243 0.241373 2.137115
 29 10.456543 -0.000004 0.000004 -0.005011 -0.039346 -1.254141
 30 24.248093 0.000001 0.000007 0.642412 0.390463 1.339486
 31 26.336971 0.000019 0.000002 -0.153135 -0.155773 0.675631
 32 1.854847 1.227798 13.762341 -2.452602 -0.406299 2.256132
 33 10.456542 -0.000008 0.000004 0.196138 -0.145622 -0.816327
 34 24.248116 0.000002 -0.000004 -0.096758 0.049639 1.017466
 35 26.336975 0.000000 0.000004 -0.536298 0.189795 0.621652
time 23
  0 0.000000 0.000000 0.000000 0.000000 -0.000000 -1.570796
  1 0.000000 0.000000 0.000000 0.000000 -0.000000 0.000000
  2 5.683767 -13.248775 29.066786 -1.521044 -0.102320 1.553541
  3 4.222169 -0.467508 0.000000 -0.003579 0.005802 -0.080887
  4 4.476987 -0.000002 -0.000000 -0.003165 -0.018086 0.152753
  5 4.477083 0.000000 0.000002 -0.021439 0.017756 0.058909
  6 4.477077 -0.000004 -0.000002 -0.014794 -0.027790 -0.037206
  7 5.413502 -7.700466 -0.000000 0.104325 0.146209 -0.340309
  8 6.890240 0.000002 -0.000000 0.079098 0.018036 0.134904
  9 8.011925 0.000004 0.000005 0.081711 -0.146064 -0.056585
 10 7.210720 -0.000002 -0.000000 0.036620 -0.115340 -0.038081
 11 8.581028 -0.304903 -0.000000 -0.019354 -0.082171 1.244848
 12 22.523008 2.194031 6.355708 0.000000 -0.014207 0.000000
 13 22.523005 2.194038 -6.355709 0.000000 0.007472 0.000000
 14 -3.006533 7.804720 -11.355459 0.235020 0.028066 1.012498
 15 10.384675 0.000008 0.000005 -0.004684 0.189579 -1.869757
 16 22.550743 -0.000006 -0.000004 0.126448 0.013077 2.000353
 17 30.814247 -0.000015 -0.000004 2.675849 0.239910 0.374304
 18 -3.013796 7.815494 11.355459 -0.025750 -0.461446 0.913277
 19 10.374533 -0.000002 0.000007 -0.123996 -0.397681 -1.510268
 20 22.550726 -0.000027 -0.000013 -0.122333 0.039910 1.854800
 21 30.814270 -0.000023 0.000002 -2.501447 -0.061728 0.449210
 22 -4.250660 -0.770624 0.000001 0.041035 -0.093558 -3.076907
 23 10.363422 0.000000 0.000000 -0.003188 0.009975 -0.151923
 24 10.363076 0.000000 -0.000000 0.026222 0.013408 0.020106
 25 10.363081 -0.000004 -0.000002 0.004214 0.018041 0.311220
 26 9.253358 -0.000006 -3.973408 0.005045 -0.012226 0.178784
 27 8.210346 -0.000002 7.704017 0.021440 -0.030143 0.173581
 28 1.854841 1.227791 -13.762345 2.617754 0.230197 2.221534
 29 10.456543 -0.000004 0.000004 0.001855 -0.035804 -1.230782
 30 24.248093 0.000001 0.000007 0.601039 0.351520 1.296802
 31 26.336971 0.000019 0.000002 -0.134472 -0.098854 0.630124
 32 1.854847 1.227798 13.762341 -2.489539 -0.412647 2.337728
 33 10.456542 -0.000008 0.000004 0.182064 -0.140585 -0.860822
 34 24.248116 0.000002 -0.000004 -0.084646 0.043767 1.034221
 35 26.336975 0.000000 0.000004 -0.524891 0.179123 0.615718
time 24
  0 0.000000 0.000000 0.000000 0.000000 -0.000000 -1.570796
  1 0.000000 0.000000 0.000000 0.000000 -0.000000 0.000000
  2 4.941557 -13.174555 29.547270 -1.556609 -0.204756 1.556321
  3 4.222169 -0.467508 0.000000 -0.004154 0.004801 -0.069418
  4 4.476987 -0.000002 -0.000000 -0.001871 -0.018365 0.195905
  5 4.477083 0.000000 0.000002 -0.019066 0.021778 0.082579
  6 4.477077 -0.000004 -0.000002 -0.014614 -0.025949 -0.044681
  7 5.413502 -7.700466 -0.000000 0.103793 0.129914 -0.225930
  8 6.890240 0.000002 -0.000000 0.073394 0.020363 0.070303
  9 8.011925 0.000004 0.000005 0.081082 -0.132677 -0.145513
 10 7.210720 -0.000002 -0.000000 0.039804 -0.100033 -0.138914
 11 8.581028 -0.304903 -0.000000 -0.019584 -0.076145 1.240712
 12 22.523008 2.194031 6.355708 0.000000 -0.013198 0.000000
 13 22.523005 2.194038 -6.355709 0.000000 0.006443 0.000000
 14 -3.006533 7.804720 -11.355459 0.244407 0.006408 1.084399
 15 10.384675 0.000008 0.000005 0.002674 0.190533 -1.830102
 16 22.550743 -0.000006 -0.000004 0.125457 0.013249 1.953500
 17 30.814247 -0.000015 -0.000004 2.669384 0.209063 0.358332
 18 -3.013796 7.815494 11.355459 -0.036951 -0.460512 0.955343
 19 10.374533 -0.000002 0.000007 -0.115637 -0.378213 -1.509515
 20 22.550726 -0.000027 -0.000013 -0.123211 0.039988 1.845742
 21 30.814270 -0.000023 0.000002 -2.507200 -0.066548 0.431359
 22 -4.250660 -0.770624 0.000001 0.048933 -0.099126 -3.126992
 23 10.363422 0.000000 0.000000 -0.000899 0.016603 -0.151703
 24 10.363076 0.000000 -0.000000 0.026869 0.022696 0.110389
 25 10.363081 -0.000004 -0.000002 0.007082 0.033308 0.392057
 26 9.253358 -0.000006 -3.973408 0.004532 -0.010664 0.263370
 27 8.210346 -0.000002 7.704017 0.017821 -0.026615 0.257947
 28 1.854841 1.227791 -13.762345 2.657022 0.219489 2.300844
 29 10.456543 -0.000004 0.000004 0.008528 -0.030964 -1.211417
 30 24.248093 0.000001 0.000007 0.559185 0.313869 1.258854
 31 26.336971 0.000019 0.000002 -0.115026 -0.045798 0.591853
 32 1.854847 1.227798 13.762341 -2.531135 -0.412921 2.424450
 33 10.456542 -0.000008 0.000004 0.166294 -0.134880 -0.905474
 34 24.248116 0.000002 -0.000004 -0.073790 0.037691 1.048336
 35 26.336975 0.000000 0.000004 -0.510353 0.161999 0.613175
time 25
  0 0.000000 0.000000 0.000000 0.000000 -0.000000 -1.570796
  1 0.000000 0.000000 0.000000 0.000000 -0.000000 0.000000
  2 4.246223 -13.100334 29.976971 -1.577124 -0.254100 1.559197
  3 4.222169 -0.467508 0.000000 -0.004406 0.004078 -0.060218
  4 4.476987 -0.000002 -0.000000 -0.000660 -0.018108 0.205694
  5 4.477083 0.000000 0.000002 -0.017640 0.023927 0.091398
  6 4.477077 -0.000004 -0.000002 -0.014387 -0.024314 -0.052171
  7 5.413502 -7.700466 -0.000000 0.102238 0.114130 -0.120076
  8 6.890240 0.000002 -0.000000 0.067449 0.021931 0.002816
  9 8.011925 0.000004 0.000005 0.079799 -0.119832 -0.223746
 10 7.210720 -0.000002 -0.000000 0.041534 -0.085362 -0.232747
 11 8.581028 -0.304903 -0.000000 -0.019767 -0.070135 1.235735
 12 22.523008 2.194031 6.355708 0.000000 -0.012221 0.000000
 13 22.523005 2.194038 -6.355709 0.000000 0.005505 0.000000
 14 -3.006533 7.804720 -11.355459 0.253740 -0.000693 1.128693
 15 10.384675 0.000008 0.000005 0.008912 0.191127 -1.796500
 16 22.550743 -0.000006 -0.000004 0.124497 0.013220 1.909977
 17 30.814247 -0.000015 -0.000004 2.657372 0.198907 0.352996
 18 -3.013796 7.815494 11.355459 -0.042653 -0.452851 0.985895
 19 10.374533 -0.000002 0.000007 -0.107885 -0.359010 -1.508587
 20 22.550726 -0.000027 -0.000013 -0.123722 0.039929 1.841151
 21 30.814270 -0.000023 0.000002 -2.519619 -0.060064 0.420649
 22 -4.250660 -0.770624 0.000001 0.056388 -0.104711 3.109309
 23 10.363422 0.000000 0.000000 0.001174 0.023050 -0.152583
 24 10.363076 0.000000 -0.000000 0.027157 0.031588 0.180849
 25 10.363081 -0.000004 -0.000002 0.009520 0.047605 0.459068
 26 9.253358 -0.000006 -3.973408 0.003994 -0.009170 0.333552
 27 8.210346 -0.000002 7.704017 0.014322 -0.023365 0.327868
 28 1.854841 1.227791 -13.762345 2.676195 0.210903 2.332288
 29 10.456543 -0.000004 0.000004 0.014119 -0.025021 -1.200779
 30 24.248093 0.000001 0.000007 0.511770 0.284308 1.230200
 31 26.336971 0.000019 0.000002 -0.085922 -0.010979 0.568713
 32 1.854847 1.227798 13.762341 -2.557065 -0.397790 2.449782
 33 10.456542 -0.000008 0.000004 0.149744 -0.129286 -0.949733
 34 24.248116 0.000002 -0.000004 -0.064386 0.031603 1.059455
 35 26.336975 0.000000 0.000004 -0.496245 0.145620 0.610010
time 26
  0 0.000000 0.000000 0.000000 0.000000 -0.000000 -1.570796
  1 0.000000 0.000000 0.000000 0.000000 -0.000000 0.000000
  2 3.609485 -13.030018 30.355888 -1.588531 -0.273207 1.561498
  3 4.222169 -0.467508 0.000000 -0.004573 0.003466 -0.051723
  4 4.476987 -0.000002 -0.000000 0.000586 -0.017658 0.203963
  5 4.477083 0.000000 0.000002 -0.016645 0.024896 0.088923
  6 4.477077 -0.000004 -0.000002 -0.014123 -0.022848 -0.059662
  7 5.413502 -7.700466 -0.000000 0.102159 0.099789 -0.050254
  8 6.890240 0.000002 -0.000000 0.061433 0.022729 -0.059249
  9 8.011925 0.000004 0.000005 0.079380 -0.108106 -0.273115
 10 7.210720 -0.000002 -0.000000 0.042659 -0.073268 -0.297779
 11 8.581028 -0.304903 -0.000000 -0.019928 -0.064143 1.229811
 12 22.523008 2.194031 6.355708 0.000000 -0.011243 0.000000
 13 22.523005 2.194038 -6.355709 0.000000 0.004658 0.000000
 14 -3.006533 7.804720 -11.355459 0.263832 0.001109 1.156643
 15 10.384675 0.000008 0.000005 0.013842 0.191467 -1.769952
 16 22.550743 -0.000006 -0.000004 0.123778 0.013306 1.874444
 17 30.814247 -0.000015 -0.000004 2.644181 0.196524 0.352745
 18 -3.013796 7.815494 11.355459 -0.044842 -0.443547 1.007954
 19 10.374533 -0.000002 0.000007 -0.100672 -0.340140 -1.507601
 20 22.550726 -0.000027 -0.000013 -0.124008 0.039753 1.839290
 21 30.814270 -0.000023 0.000002 -2.534738 -0.049495 0.412616
 22 -4.250660 -0.770624 0.000001 0.061529 -0.110103 3.078198
 23 10.363422 0.000000 0.000000 0.003020 0.029258 -0.154850
 24 10.363076 0.000000 -0.000000 0.027373 0.039965 0.230920
 25 10.363081 -0.000004 -0.000002 0.010985 0.059791 0.499151
 26 9.253358 -0.000006 -3.973408 0.003408 -0.007981 0.375233
 27 8.210346 -0.000002 7.704017 0.011397 -0.019683 0.369542
 28 1.854841 1.227791 -13.762345 2.680021 0.202490 2.323591
 29 10.456543 -0.000004 0.000004 0.018609 -0.018170 -1.198217
 30 24.248093 0.000001 0.000007 0.462909 0.258077 1.206164
 31 26.336971 0.000019 0.000002 -0.049553 0.010281 0.556618
 32 1.854847 1.227798 13.762341 -2.572259 -0.375325 2.437116
 33 10.456542 -0.000008 0.000004 0.132618 -0.123943 -0.993558
 34 24.248116 0.000002 -0.000004 -0.056600 0.025634 1.067528
 35 26.336975 0.000000 0.000004 -0.482179 0.129272 0.606676
time 27
  0 0.000000 0.000000 0.000000 0.000000 -0.000000 -1.570796
  1 0.000000 0.000000 0.000000 0.000000 -0.000000 0.000000
  2 3.027436 -12.959703 30.691835 -1.597350 -0.286092 1.563607
  3 4.222169 -0.467508 0.000000 -0.004657 0.002910 -0.043719
  4 4.476987 -0.000002 -0.000000 0.001820 -0.017229 0.203496
  5 4.477083 0.000000 0.000002 -0.015542 0.025574 0.081171
  6 4.477077 -0.000004 -0.000002 -0.013799 -0.021551 -0.067183
  7 5.413502 -7.700466 -0.000000 0.101109 0.087470 -0.019387
  8 6.890240 0.000002 -0.000000 0.055321 0.022990 -0.098810
  9 8.011925 0.000004 0.000005 0.078384 -0.097243 -0.302005
 10 7.210720 -0.000002 -0.000000 0.042879 -0.063011 -0.321405
 11 8.581028 -0.304903 -0.000000 -0.020043 -0.058185 1.222836
 12 22.523008 2.194031 6.355708 0.000000 -0.010265 0.000000
 13 22.523005 2.194038 -6.355709 0.000000 0.003872 0.000000
 14 -3.006533 7.804720 -11.355459 0.275118 0.004677 1.184181
 15 10.384675 0.000008 0.000005 0.017951 0.191637 -1.748292
 16 22.550743 -0.000006 -0.000004 0.123346 0.013507 1.849323
 17 30.814247 -0.000015 -0.000004 2.631558 0.194957 0.352674
 18 -3.013796 7.815494 11.355459 -0.047133 -0.434355 1.030640
 19 10.374533 -0.000002 0.000007 -0.094133 -0.321767 -1.506731
 20 22.550726 -0.000027 -0.000013 -0.124253 0.039537 1.838174
 21 30.814270 -0.000023 0.000002 -2.549647 -0.039512 0.404193
 22 -4.250660 -0.770624 0.000001 0.063518 -0.115399 3.068365
 23 10.363422 0.000000 0.000000 0.004554 0.035239 -0.158525
 24 10.363076 0.000000 -0.000000 0.027049 0.047612 0.257505
 25 10.363081 -0.000004 -0.000002 0.011601 0.070883 0.520146
 26 9.253358 -0.000006 -3.973408 0.002809 -0.006962 0.399487
 27 8.210346 -0.000002 7.704017 0.008893 -0.015907 0.393753
 28 1.854841 1.227791 -13.762345 2.680064 0.193657 2.304007
 29 10.456543 -0.000004 0.000004 0.023203 -0.009184 -1.203775
 30 24.248093 0.000001 0.000007 0.415346 0.231947 1.183786
 31 26.336971 0.000019 0.000002 -0.011139 0.026757 0.549549
 32 1.854847 1.227798 13.762341 -2.584008 -0.352095 2.415446
 33 10.456542 -0.000008 0.000004 0.114949 -0.118934 -1.036989
 34 24.248116 0.000002 -0.000004 -0.050524 0.019870 1.072352
 35 26.336975 0.000000 0.000004 -0.468071 0.112954 0.603002
time 28
  0 0.000000 0.000000 0.000000 0.000000 -0.000000 -1.570796
  1 0.000000 0.000000 0.000000 0.000000 -0.000000 0.000000
  2 2.503983 -12.893295 30.984814 -1.602048 -0.291357 1.565141
  3 4.222169 -0.467508 0.000000 -0.004693 0.002428 -0.036190
  4 4.476987 -0.000002 -0.000000 0.003055 -0.016822 0.203030
  5 4.477083 0.000000 0.000002 -0.014296 0.026107 0.069714
  6 4.477077 -0.000004 -0.000002 -0.013440 -0.020424 -0.074736
  7 5.413502 -7.700466 -0.000000 0.095300 0.077768 -0.031087
  8 6.890240 0.000002 -0.000000 0.049185 0.022925 -0.130436
  9 8.011925 0.000004 0.000005 0.075045 -0.088137 -0.293751
 10 7.210720 -0.000002 -0.000000 0.041287 -0.053706 -0.308452
 11 8.581028 -0.304903 -0.000000 -0.019561 -0.052227 1.205872
 12 22.523008 2.194031 6.355708 0.000000 -0.009318 0.000000
 13 22.523005 2.194038 -6.355709 0.000000 0.003176 0.000000
 14 -3.006533 7.804720 -11.355459 0.287272 0.008952 1.211856
 15 10.384675 0.000008 0.000005 0.021126 0.191658 -1.732130
 16 22.550743 -0.000006 -0.000004 0.123122 0.013622 1.834190
 17 30.814247 -0.000015 -0.000004 2.619241 0.194831 0.353032
 18 -3.013796 7.815494 11.355459 -0.049221 -0.425088 1.053270
 19 10.374533 -0.000002 0.000007 -0.088066 -0.303894 -1.505978
 20 22.550726 -0.000027 -0.000013 -0.124457 0.039321 1.837491
 21 30.814270 -0.000023 0.000002 -2.564522 -0.029701 0.395826
 22 -4.250660 -0.770624 0.000001 0.063171 -0.120791 3.074229
 23 10.363422 0.000000 0.000000 0.005693 0.040740 -0.166491
 24 10.363076 0.000000 -0.000000 0.025060 0.054203 0.242277
 25 10.363081 -0.000004 -0.000002 0.010197 0.080635 0.507313
 26 9.253358 -0.000006 -3.973408 0.002284 -0.006079 0.396702
 27 8.210346 -0.000002 7.704017 0.007035 -0.012255 0.390702
 28 1.854841 1.227791 -13.762345 2.679713 0.184923 2.282050
 29 10.456543 -0.000004 0.000004 0.028514 0.004180 -1.223965
 30 24.248093 0.000001 0.000007 0.368710 0.206382 1.163185
 31 26.336971 0.000019 0.000002 0.028884 0.039844 0.546733
 32 1.854847 1.227798 13.762341 -2.592854 -0.328345 2.386237
 33 10.456542 -0.000008 0.000004 0.096839 -0.114342 -1.080065
 34 24.248116 0.000002 -0.000004 -0.046366 0.014453 1.073722
 35 26.336975 0.000000 0.000004 -0.453962 0.096668 0.599159
time 29
  0 0.000000 0.000000 0.000000 0.000000 -0.000000 -1.570796
  1 0.000000 0.000000 0.000000 0.000000 -0.000000 0.000000
  2 2.031312 -12.830793 31.238728 -1.604061 -0.291955 1.566195
  3 4.222169 -0.467508 0.000000 -0.004645 0.002020 -0.029060
  4 4.476987 -0.000002 -0.000000 0.004289 -0.016437 0.202586
  5 4.477083 0.000000 0.000002 -0.012978 0.026495 0.055204
  6 4.477077 -0.000004 -0.000002 -0.013008 -0.019465 -0.082352
  7 5.413502 -7.700466 -0.000000 0.087339 0.068814 -0.054703
  8 6.890240 0.000002 -0.000000 0.043049 0.022611 -0.161480
  9 8.011925 0.000004 0.000005 0.070055 -0.079910 -0.270234
 10 7.210720 -0.000002 -0.000000 0.038871 -0.044702 -0.283593
 11 8.581028 -0.304903 -0.000000 -0.017861 -0.045996 1.172645
 12 22.523008 2.194031 6.355708 0.000000 -0.008371 0.000000
 13 22.523005 2.194038 -6.355709 0.000000 0.002541 0.000000
 14 -3.006533 7.804720 -11.355459 0.299969 0.013792 1.239051
 15 10.384675 0.000008 0.000005 0.021761 0.191637 -1.728686
 16 22.550743 -0.000006 -0.000004 0.122978 0.013622 1.824142
 17 30.814247 -0.000015 -0.000004 2.607141 0.196148 0.353855
 18 -3.013796 7.815494 11.355459 -0.051105 -0.415746 1.075899
 19 10.374533 -0.000002 0.000007 -0.082606 -0.286618 -1.505514
 20 22.550726 -0.000027 -0.000013 -0.124641 0.039085 1.837305
 21 30.814270 -0.000023 0.000002 -2.579396 -0.020036 0.387626
 22 -4.250660 -0.770624 0.000001 0.060990 -0.126455 3.095661
 23 10.363422 0.000000 0.000000 0.006052 0.044862 -0.189135
 24 10.363076 0.000000 -0.000000 0.022124 0.060831 0.208827
 25 10.363081 -0.000004 -0.000002 0.007624 0.089602 0.478505
 26 9.253358 -0.000006 -3.973408 0.001820 -0.005264 0.383624
 27 8.210346 -0.000002 7.704017 0.005477 -0.009006 0.377307
 28 1.854841 1.227791 -13.762345 2.678613 0.176115 2.256688
 29 10.456543 -0.000004 0.000004 0.033336 0.017935 -1.246890
 30 24.248093 0.000001 0.000007 0.322852 0.181442 1.144003
 31 26.336971 0.000019 0.000002 0.069865 0.050592 0.547340
 32 1.854847 1.227798 13.762341 -2.600721 -0.303993 2.352418
 33 10.456542 -0.000008 0.000004 0.078389 -0.110224 -1.122905
 34 24.248116 0.000002 -0.000004 -0.043322 0.009251 1.073164
 35 26.336975 0.000000 0.000004 -0.439682 0.080320 0.594977
time 30
  0 0.000000 0.000000 0.000000 0.000000 -0.000000 -1.570796
  1 0.000000 0.000000 0.000000 0.000000 -0.000000 0.000000
  2 1.617237 -12.768291 31.461391 -1.604636 -0.290958 1.567250
  3 4.222169 -0.467508 0.000000 -0.004549 0.001649 -0.022343
  4 4.476987 -0.000002 -0.000000 0.005524 -0.016051 0.202120
  5 4.477083 0.000000 0.000002 -0.011623 0.026770 0.038618
  6 4.477077 -0.000004 -0.000002 -0.012529 -0.018657 -0.089982
  7 5.413502 -7.700466 -0.000000 0.078420 0.060030 -0.079595
  8 6.890240 0.000002 -0.000000 0.036948 0.022127 -0.191035
  9 8.011925 0.000004 0.000005 0.059879 -0.073727 -0.225277
 10 7.210720 -0.000002 -0.000000 0.034698 -0.036458 -0.238540
 11 8.581028 -0.304903 -0.000000 -0.013981 -0.040038 1.108048
 12 22.523008 2.194031 6.355708 0.000000 -0.007424 0.000000
 13 22.523005 2.194038 -6.355709 0.000000 0.001966 0.000000
 14 -3.006533 7.804720 -11.355459 0.312775 0.019198 1.264460
 15 10.384675 0.000008 0.000005 0.021798 0.191594 -1.728131
 16 22.550743 -0.000006 -0.000004 0.122866 0.013622 1.816272
 17 30.814247 -0.000015 -0.000004 2.595261 0.198280 0.354858
 18 -3.013796 7.815494 11.355459 -0.052734 -0.406404 1.098357
 19 10.374533 -0.000002 0.000007 -0.077685 -0.270173 -1.505340
 20 22.550726 -0.000027 -0.000013 -0.124784 0.038850 1.837491
 21 30.814270 -0.000023 0.000002 -2.594094 -0.010616 0.379760
 22 -4.250660 -0.770624 0.000001 0.056280 -0.132008 -3.138796
 23 10.363422 0.000000 0.000000 0.005932 0.048194 -0.223465
 24 10.363076 0.000000 -0.000000 0.016611 0.067266 0.142832
 25 10.363081 -0.000004 -0.000002 0.003093 0.096688 0.421240
 26 9.253358 -0.000006 -3.973408 0.001576 -0.004483 0.358893
 27 8.210346 -0.000002 7.704017 0.004662 -0.007396 0.352452
 28 1.854841 1.227791 -13.762345 2.677030 0.167801 2.230474
 29 10.456543 -0.000004 0.000004 0.037372 0.030498 -1.268166
 30 24.248093 0.000001 0.000007 0.278106 0.157451 1.126361
 31 26.336971 0.000019 0.000002 0.110280 0.059527 0.550543
 32 1.854847 1.227798 13.762341 -2.608655 -0.279695 2.317178
 33 10.456542 -0.000008 0.000004 0.059805 -0.106689 -1.165193
 34 24.248116 0.000002 -0.000004 -0.040796 0.004206 1.071844
 35 26.336975 0.000000 0.000004 -0.425960 0.064343 0.591586
time 31
  0 0.000000 0.000000 0.000000 0.000000 -0.000000 -1.570796
  1 0.000000 0.000000 0.000000 0.000000 -0.000000 0.000000
  2 1.257851 -12.713602 31.644989 -1.604061 -0.288844 1.568112
  3 4.222169 -0.467508 0.000000 -0.004394 0.001353 -0.015995
  4 4.476987 -0.000002 -0.000000 0.006758 -0.015687 0.201676
  5 4.477083 0.000000 0.000002 -0.010269 0.026931 0.020788
  6 4.477077 -0.000004 -0.000002 -0.011990 -0.017999 -0.097644
  7 5.413502 -7.700466 -0.000000 0.068651 0.051330 -0.106417
  8 6.890240 0.000002 -0.000000 0.030848 0.021591 -0.219239
  9 8.011925 0.000004 0.000005 0.048877 -0.067449 -0.175804
 10 7.210720 -0.000002 -0.000000 0.030224 -0.028689 -0.188499
 11 8.581028 -0.304903 -0.000000 -0.010031 -0.034114 1.038123
 12 22.523008 2.194031 6.355708 0.000000 -0.006477 0.000000
 13 22.523005 2.194038 -6.355709 0.000000 0.001482 0.000000
 14 -3.006533 7.804720 -11.355459 0.325471 0.025310 1.287054
 15 10.384675 0.000008 0.000005 0.021948 0.191530 -1.727298
 16 22.550743 -0.000006 -0.000004 0.122770 0.013651 1.810159
 17 30.814247 -0.000015 -0.000004 2.583467 0.200882 0.356040
 18 -3.013796 7.815494 11.355459 -0.054109 -0.397062 1.120644
 19 10.374533 -0.000002 0.000007 -0.073371 -0.254625 -1.505688
 20 22.550726 -0.000027 -0.000013 -0.124886 0.038594 1.837988
 21 30.814270 -0.000023 0.000002 -2.608512 -0.001490 0.372341
 22 -4.250660 -0.770624 0.000001 0.050935 -0.137320 -3.084998
 23 10.363422 0.000000 0.000000 0.005657 0.051466 -0.261887
 24 10.363076 0.000000 -0.000000 0.010211 0.073127 0.070048
 25 10.363081 -0.000004 -0.000002 -0.002201 0.103128 0.357934
 26 9.253358 -0.000006 -3.973408 0.001368 -0.003702 0.331649
 27 8.210346 -0.000002 7.704017 0.003991 -0.006128 0.325155
 28 1.854841 1.227791 -13.762345 2.675139 0.160202 2.205295
 29 10.456543 -0.000004 0.000004 0.040726 0.042011 -1.288225
 30 24.248093 0.000001 0.000007 0.234435 0.134469 1.109903
 31 26.336971 0.000019 0.000002 0.149520 0.066438 0.555624
 32 1.854847 1.227798 13.762341 -2.616590 -0.255945 2.281378
 33 10.456542 -0.000008 0.000004 0.041220 -0.103767 -1.207047
 34 24.248116 0.000002 -0.000004 -0.038671 -0.000744 1.070016
 35 26.336975 0.000000 0.000004 -0.415367 0.050042 0.593790
time 32
  0 0.000000 0.000000 0.000000 0.000000 -0.000000 -1.570796
  1 0.000000 0.000000 0.000000 0.000000 -0.000000 0.000000
  2 0.953154 -12.658915 31.797338 -1.602431 -0.285573 1.568879
  3 4.222169 -0.467508 0.000000 -0.004178 0.001075 -0.009969
  4 4.476987 -0.000002 -0.000000 0.007980 -0.015323 0.201210
  5 4.477083 0.000000 0.000002 -0.008975 0.027012 0.002542
  6 4.477077 -0.000004 -0.000002 -0.011391 -0.017492 -0.105353
  7 5.413502 -7.700466 -0.000000 0.058217 0.042597 -0.134918
  8 6.890240 0.000002 -0.000000 0.025048 0.020964 -0.245257
  9 8.011925 0.000004 0.000005 0.038282 -0.060595 -0.126746
 10 7.210720 -0.000002 -0.000000 0.024459 -0.023693 -0.133336
 11 8.581028 -0.304903 -0.000000 -0.006472 -0.028121 0.969285
 12 22.523008 2.194031 6.355708 0.000000 -0.005530 0.000000
 13 22.523005 2.194038 -6.355709 0.000000 0.001089 0.000000
 14 -3.006533 7.804720 -11.355459 0.337680 0.032199 1.305939
 15 10.384675 0.000008 0.000005 0.022097 0.191467 -1.726465
 16 22.550743 -0.000006 -0.000004 0.122706 0.013679 1.805679
 17 30.814247 -0.000015 -0.000004 2.571805 0.203954 0.357329
 18 -3.013796 7.815494 11.355459 -0.055279 -0.387683 1.142874
 19 10.374533 -0.000002 0.000007 -0.069798 -0.240339 -1.506209
 20 22.550726 -0.000027 -0.000013 -0.124968 0.038359 1.838856
 21 30.814270 -0.000023 0.000002 -2.622650 0.007392 0.365536
 22 -4.250660 -0.770624 0.000001 0.045410 -0.142423 -3.031584
 23 10.363422 0.000000 0.000000 0.005249 0.054678 -0.301630
 24 10.363076 0.000000 -0.000000 0.003511 0.078424 -0.002245
 25 10.363081 -0.000004 -0.000002 -0.007889 0.109244 0.295031
 26 9.253358 -0.000006 -3.973408 0.001136 -0.002955 0.304643
 27 8.210346 -0.000002 7.704017 0.003260 -0.004859 0.298028
 28 1.854841 1.227791 -13.762345 2.672897 0.153392 2.181210
 29 10.456543 -0.000004 0.000004 0.043434 0.052474 -1.307156
 30 24.248093 0.000001 0.000007 0.191765 0.112596 1.094511
 31 26.336971 0.000019 0.000002 0.186890 0.071063 0.561865
 32 1.854847 1.227798 13.762341 -2.624186 -0.233289 2.245663
 33 10.456542 -0.000008 0.000004 0.022737 -0.101207 -1.247680
 34 24.248116 0.000002 -0.000004 -0.036884 -0.005586 1.067731
 35 26.336975 0.000000 0.000004 -0.405333 0.036052 0.596729
time 33
  0 0.000000 0.000000 0.000000 0.000000 -0.000000 -1.570796
  1 0.000000 0.000000 0.000000 0.000000 -0.000000 0.000000
  2 0.699240 -12.612038 31.922342 -1.599747 -0.281225 1.569455
  3 4.222169 -0.467508 0.000000 -0.003926 0.000852 -0.004188
  4 4.476987 -0.000002 -0.000000 0.009203 -0.014981 0.200766
  5 4.477083 0.000000 0.000002 -0.007740 0.027028 -0.015259
  6 4.477077 -0.000004 -0.000002 -0.010719 -0.017116 -0.113108
  7 5.413502 -7.700466 -0.000000 0.047291 0.033744 -0.164726
  8 6.890240 0.000002 -0.000000 0.019775 0.020258 -0.268412
  9 8.011925 0.000004 0.000005 0.028040 -0.053230 -0.077740
 10 7.210720 -0.000002 -0.000000 0.018722 -0.018803 -0.077314
 11 8.581028 -0.304903 -0.000000 -0.003257 -0.022112 0.901043
 12 22.523008 2.194031 6.355708 0.000000 -0.004613 0.000000
 13 22.523005 2.194038 -6.355709 0.000000 0.000726 0.000000
 14 -3.006533 7.804720 -11.355459 0.349129 0.040043 1.320154
 15 10.384675 0.000008 0.000005 0.022246 0.191403 -1.725632
 16 22.550743 -0.000006 -0.000004 0.122674 0.013708 1.802834
 17 30.814247 -0.000015 -0.000004 2.560274 0.207465 0.358726
 18 -3.013796 7.815494 11.355459 -0.056196 -0.378267 1.165047
 19 10.374533 -0.000002 0.000007 -0.067034 -0.227482 -1.506616
 20 22.550726 -0.000027 -0.000013 -0.125050 0.038123 1.840035
 21 30.814270 -0.000023 0.000002 -2.636366 0.015980 0.359427
 22 -4.250660 -0.770624 0.000001 0.039645 -0.147285 -2.978145
 23 10.363422 0.000000 0.000000 0.004734 0.057662 -0.340911
 24 10.363076 0.000000 -0.000000 -0.003452 0.083122 -0.074719
 25 10.363081 -0.000004 -0.000002 -0.013946 0.115021 0.232047
 26 9.253358 -0.000006 -3.973408 0.000879 -0.002208 0.277603
 27 8.210346 -0.000002 7.704017 0.002493 -0.003621 0.270934
 28 1.854841 1.227791 -13.762345 2.670303 0.147348 2.158159
 29 10.456543 -0.000004 0.000004 0.045565 0.061852 -1.324915
 30 24.248093 0.000001 0.000007 0.150616 0.092055 1.080125
 31 26.336971 0.000019 0.000002 0.221692 0.073244 0.568768
 32 1.854847 1.227798 13.762341 -2.631074 -0.212166 2.210854
 33 10.456542 -0.000008 0.000004 0.005068 -0.098925 -1.285593
 34 24.248116 0.000002 -0.000004 -0.035394 -0.010355 1.064989
 35 26.336975 0.000000 0.000004 -0.395255 0.021999 0.599441
time 34
  0 0.000000 0.000000 0.000000 0.000000 -0.000000 -1.570796
  1 0.000000 0.000000 0.000000 0.000000 -0.000000 0.000000
  2 0.492203 -12.572973 32.016094 -1.595912 -0.275800 1.570030
  3 4.222169 -0.467508 0.000000 -0.003615 0.000648 0.001378
  4 4.476987 -0.000002 -0.000000 0.010425 -0.014638 0.200300
  5 4.477083 0.000000 0.000002 -0.006638 0.026963 -0.031844
  6 4.477077 -0.000004 -0.000002 -0.009976 -0.016872 -0.120957
  7 5.413502 -7.700466 -0.000000 0.035980 0.024603 -0.195748
  8 6.890240 0.000002 -0.000000 0.015041 0.019513 -0.288751
  9 8.011925 0.000004 0.000005 0.018126 -0.045339 -0.028578
 10 7.210720 -0.000002 -0.000000 0.013259 -0.013541 -0.020998
 11 8.581028 -0.304903 -0.000000 -0.000363 -0.015983 0.832906
 12 22.523008 2.194031 6.355708 0.000000 -0.003666 0.000000
 13 22.523005 2.194038 -6.355709 0.000000 0.000454 0.000000
 14 -3.006533 7.804720 -11.355459 0.359709 0.048840 1.329769
 15 10.384675 0.000008 0.000005 0.022396 0.191318 -1.724799
 16 22.550743 -0.000006 -0.000004 0.122658 0.013737 1.801502
 17 30.814247 -0.000015 -0.000004 2.548786 0.211477 0.360266
 18 -3.013796 7.815494 11.355459 -0.056858 -0.368850 1.187277
 19 10.374533 -0.000002 0.000007 -0.064945 -0.215754 -1.507021
 20 22.550726 -0.000027 -0.000013 -0.125091 0.037907 1.841399
 21 30.814270 -0.000023 0.000002 -2.649732 0.024298 0.354184
 22 -4.250660 -0.770624 0.000001 0.033593 -0.151939 -2.924347
 23 10.363422 0.000000 0.000000 0.004147 0.060299 -0.377948
 24 10.363076 0.000000 -0.000000 -0.010546 0.087209 -0.147142
 25 10.363081 -0.000004 -0.000002 -0.020262 0.120260 0.169412
 26 9.253358 -0.000006 -3.973408 0.000599 -0.001460 0.250427
 27 8.210346 -0.000002 7.704017 0.001690 -0.002383 0.243671
 28 1.854841 1.227791 -13.762345 2.667268 0.142019 2.136081
 29 10.456543 -0.000004 0.000004 0.047120 0.070198 -1.341674
 30 24.248093 0.000001 0.000007 0.112617 0.073431 1.067575
 31 26.336971 0.000019 0.000002 0.253276 0.072797 0.575671
 32 1.854847 1.227798 13.762341 -2.636847 -0.192985 2.177466
 33 10.456542 -0.000008 0.000004 -0.011008 -0.097005 -1.319211
 34 24.248116 0.000002 -0.000004 -0.034137 -0.015077 1.061892
 35 26.336975 0.000000 0.000004 -0.385178 0.007853 0.601985
time 35
  0 0.000000 0.000000 0.000000 0.000000 -0.000000 -1.570796
  1 0.000000 0.000000 0.000000 0.000000 -0.000000 0.000000
  2 0.335948 -12.537817 32.086411 -1.591119 -0.269418 1.570413
  3 4.222169 -0.467508 0.000000 -0.003279 0.000482 0.006744
  4 4.476987 -0.000002 -0.000000 0.011660 -0.014338 0.199856
  5 4.477083 0.000000 0.000002 -0.005715 0.026850 -0.046191
  6 4.477077 -0.000004 -0.000002 -0.009173 -0.016759 -0.128821
  7 5.413502 -7.700466 -0.000000 0.024842 0.015615 -0.225961
  8 6.890240 0.000002 -0.000000 0.010894 0.018795 -0.306042
  9 8.011925 0.000004 0.000005 0.008670 -0.037015 0.020142
 10 7.210720 -0.000002 -0.000000 0.008126 -0.007998 0.034970
 11 8.581028 -0.304903 -0.000000 0.002117 -0.010742 0.772480
 12 22.523008 2.194031 6.355708 0.000000 -0.002750 0.000000
 13 22.523005 2.194038 -6.355709 0.000000 0.000242 0.000000
 14 -3.006533 7.804720 -11.355459 0.369150 0.058450 1.334644
 15 10.384675 0.000008 0.000005 0.022582 0.191255 -1.723966
 16 22.550743 -0.000006 -0.000004 0.122658 0.013766 1.801624
 17 30.814247 -0.000015 -0.000004 2.537473 0.215960 0.361877
 18 -3.013796 7.815494 11.355459 -0.057061 -0.359434 1.208139
 19 10.374533 -0.000002 0.000007 -0.063327 -0.205057 -1.507311
 20 22.550726 -0.000027 -0.000013 -0.125111 0.037711 1.842951
 21 30.814270 -0.000023 0.000002 -2.662466 0.032275 0.349944
 22 -4.250660 -0.770624 0.000001 0.027301 -0.156304 -2.870728
 23 10.363422 0.000000 0.000000 0.003547 0.062456 -0.410428
 24 10.363076 0.000000 -0.000000 -0.015940 0.090025 -0.205678
 25 10.363081 -0.000004 -0.000002 -0.025199 0.123372 0.114188
 26 9.253358 -0.000006 -3.973408 0.000305 -0.000713 0.223387
 27 8.210346 -0.000002 7.704017 0.000851 -0.001176 0.216544
 28 1.854841 1.227791 -13.762345 2.663794 0.137479 2.115159
 29 10.456543 -0.000004 0.000004 0.048203 0.077422 -1.357219
 30 24.248093 0.000001 0.000007 0.080438 0.057854 1.057865
 31 26.336971 0.000019 0.000002 0.280596 0.069670 0.581801
 32 1.854847 1.227798 13.762341 -2.641102 -0.176130 2.146404
 33 10.456542 -0.000008 0.000004 -0.024302 -0.095474 -1.346523
 34 24.248116 0.000002 -0.000004 -0.033075 -0.019727 1.058592
 35 26.336975 0.000000 0.000004 -0.375186 -0.006231 0.604358
time 36
  0 0.000000 0.000000 0.000000 0.000000 -0.000000 -1.570796
  1 0.000000 0.000000 0.000000 0.000000 -0.000000 0.000000
  2 0.222663 -12.510471 32.129379 -1.585272 -0.262038 1.570701
  3 4.222169 -0.467508 0.000000 -0.002907 0.000315 0.011943
  4 4.476987 -0.000002 -0.000000 0.012882 -0.013995 0.199412
  5 4.477083 0.000000 0.000002 -0.004984 0.026657 -0.057515
  6 4.477077 -0.000004 -0.000002 -0.008310 -0.016759 -0.136748
  7 5.413502 -7.700466 -0.000000 0.018768 0.013287 -0.232806
  8 6.890240 0.000002 -0.000000 0.007335 0.018128 -0.320377
  9 8.011925 0.000004 0.000005 -0.000144 -0.028500 0.067669
 10 7.210720 -0.000002 -0.000000 0.003404 -0.002348 0.089650
 11 8.581028 -0.304903 -0.000000 0.004207 -0.006884 0.723936
 12 22.523008 2.194031 6.355708 0.000000 -0.001833 0.000000
 13 22.523005 2.194038 -6.355709 0.000000 0.000091 0.000000
 14 -3.006533 7.804720 -11.355459 0.377344 0.068837 1.334988
 15 10.384675 0.000008 0.000005 0.022695 0.191191 -1.723133
 16 22.550743 -0.000006 -0.000004 0.122690 0.013794 1.803076
 17 30.814247 -0.000015 -0.000004 2.526291 0.220944 0.363596
 18 -3.013796 7.815494 11.355459 -0.052785 -0.349793 1.207569
 19 10.374533 -0.000002 0.000007 -0.062181 -0.195090 -1.507659
 20 22.550726 -0.000027 -0.000013 -0.125131 0.037534 1.844626
 21 30.814270 -0.000023 0.000002 -2.674569 0.039933 0.346876
 22 -4.250660 -0.770624 0.000001 0.020853 -0.160300 -2.818262
 23 10.363422 0.000000 0.000000 0.003008 0.064002 -0.436550
 24 10.363076 0.000000 -0.000000 -0.020530 0.092170 -0.254691
 25 10.363081 -0.000004 -0.000002 -0.030087 0.126052 0.060520
 26 9.253358 -0.000006 -3.973408 0.000000 0.000000 0.196924
 27 8.210346 -0.000002 7.704017 0.000012 0.000000 0.189993
 28 1.854841 1.227791 -13.762345 2.659881 0.133655 2.095210
 29 10.456543 -0.000004 0.000004 0.048814 0.083526 -1.371677
 30 24.248093 0.000001 0.000007 0.056193 0.046232 1.051886
 31 26.336971 0.000019 0.000002 0.303479 0.063968 0.586827
 32 1.854847 1.227798 13.762341 -2.644174 -0.161026 2.117152
 33 10.456542 -0.000008 0.000004 -0.034408 -0.094278 -1.366780
 34 24.248116 0.000002 -0.000004 -0.032142 -0.024329 1.055038
 35 26.336975 0.000000 0.000004 -0.365323 -0.020377 0.606506
time 37
  0 0.000000 0.000000 0.000000 0.000000 -0.000000 -1.570796
  1 0.000000 0.000000 0.000000 0.000000 -0.000000 0.000000
  2 0.160161 -12.494846 32.148911 -1.578370 -0.253621 1.570797
  3 4.222169 -0.467508 0.000000 -0.002488 0.000166 0.017171
  4 4.476987 -0.000002 -0.000000 0.014141 -0.013653 0.198946
  5 4.477083 0.000000 0.000002 -0.004516 0.026414 -0.065104
  6 4.477077 -0.000004 -0.000002 -0.007328 -0.016891 -0.144908
  7 5.413502 -7.700466 -0.000000 0.012946 0.011044 -0.238843
  8 6.890240 0.000002 -0.000000 0.004290 0.017566 -0.331989
  9 8.011925 0.000004 0.000005 -0.003641 -0.026408 0.086903
 10 7.210720 -0.000002 -0.000000 0.001620 -0.001095 0.111104
 11 8.581028 -0.304903 -0.000000 0.005952 -0.004152 0.685381
 12 22.523008 2.194031 6.355708 0.000000 -0.000886 0.000000
 13 22.523005 2.194038 -6.355709 0.000000 -0.000000 0.000000
 14 -3.006533 7.804720 -11.355459 0.384343 0.080107 1.330730
 15 10.384675 0.000008 0.000005 0.022844 0.191149 -1.722300
 16 22.550743 -0.000006 -0.000004 0.122722 0.013823 1.805921
 17 30.814247 -0.000015 -0.000004 2.514935 0.226587 0.365423
 18 -3.013796 7.815494 11.355459 -0.048304 -0.340003 1.205916
 19 10.374533 -0.000002 0.000007 -0.061237 -0.185389 -1.507949
 20 22.550726 -0.000027 -0.000013 -0.125152 0.037377 1.846425
 21 30.814270 -0.000023 0.000002 -2.686216 0.047420 0.345063
 22 -4.250660 -0.770624 0.000001 0.018324 -0.161519 -2.796778
 23 10.363422 0.000000 0.000000 0.002625 0.065009 -0.455849
 24 10.363076 0.000000 -0.000000 -0.024293 0.093848 -0.295342
 25 10.363081 -0.000004 -0.000002 -0.032316 0.126822 0.036518
 26 9.253358 -0.000006 -3.973408 0.000000 0.000000 0.186529
 27 8.210346 -0.000002 7.704017 0.000000 0.000000 0.179244
 28 1.854841 1.227791 -13.762345 2.655395 0.130472 2.075930
 29 10.456543 -0.000004 0.000004 0.048989 0.088633 -1.385354
 30 24.248093 0.000001 0.000007 0.040438 0.038705 1.049636
 31 26.336971 0.000019 0.000002 0.323622 0.056373 0.591024
 32 1.854847 1.227798 13.762341 -2.646605 -0.146716 2.088374
 33 10.456542 -0.000008 0.000004 -0.042344 -0.093220 -1.382269
 34 24.248116 0.000002 -0.000004 -0.031287 -0.029015 1.051281
 35 26.336975 0.000000 0.000004 -0.355288 -0.034895 0.608597
end
