version 1
nodes
  0 "Chaurus" -1
  1 "NPC Root [Root]" 0
  2 "Pelvis [Pelv]" 1
  3 "Spine[Spn0]" 2
  4 "Spine[Spn1]" 3
  5 "Spine[Spn2]" 4
  6 "Ribcage[Spn3]" 5
  7 "[Neck0]" 6
  8 "[Neck1]" 7
  9 "[Neck2]" 8
 10 "[Neck3]" 9
 11 "NPC Head [Head]" 10
 12 "Head[LeftPincher]" 11
 13 "Head[RightPincher]" 11
 14 "R UpperArm[RClv]" 6
 15 "R UpperArm[RUar]" 14
 16 "R UpperArm[RLar]" 15
 17 "R UpperArm[RHnd]" 16
 18 "L UpperArm[RClv]" 6
 19 "L UpperArm[LUar]" 18
 20 "L UpperArm[LLar]" 19
 21 "L UpperArm[LHnd]" 20
 22 "Tail[Tal0]" 2
 23 "Tail[Tal1]" 22
 24 "Tail[Tal2]" 23
 25 "Tail[Tal3]" 24
 26 "[TalRightPincher]" 25
 27 "[TalLeftPincher]" 25
 28 "R Leg[RThg0]" 2
 29 "R Leg[RThg1]" 28
 30 "R Leg[RClf]" 29
 31 "R Leg[RAnkle]" 30
 32 "LLeg[RThg0]" 2
 33 "LLeg[LThg1]" 32
 34 "LLeg[LClf]" 33
 35 "LLeg[LAnkle]" 34
end
skeleton
time 0
  0 0.000000 0.000000 0.000000 0.000000 -0.000000 -1.570796
  1 0.000000 0.000000 0.000000 0.000000 -0.000000 0.000000
  2 0.000000 -2.951586 28.070662 -1.570317 0.018466 1.571276
  3 4.222169 -0.467508 0.000000 -0.002069 -0.000668 0.022109
  4 4.476987 -0.000002 -0.000000 0.015327 -0.013331 0.198502
  5 4.477083 0.000000 0.000002 -0.004421 0.028191 -0.067787
  6 4.477077 -0.000004 -0.000002 -0.008694 -0.014598 -0.007866
  7 5.413502 -7.700466 -0.000000 0.000239 0.086655 0.165468
  8 6.890240 0.000002 -0.000000 -0.000324 0.121838 -0.244256
  9 8.011925 0.000004 0.000005 -0.000039 0.104065 -0.173857
 10 7.210720 -0.000002 -0.000000 0.000082 -0.191804 -0.305181
 11 8.581028 -0.304903 -0.000000 -0.010077 -0.176374 0.596424
 12 22.523008 2.194031 6.355708 0.000000 -0.000000 0.000000
 13 22.523005 2.194038 -6.355709 0.000000 -0.000000 0.000000
 14 -3.006533 7.804720 -11.355459 0.266383 0.172991 0.885041
 15 10.384675 0.000008 0.000005 0.007829 0.190554 -1.803109
 16 22.550743 -0.000006 -0.000004 0.124353 0.013163 1.914941
 17 30.814247 -0.000015 -0.000004 2.610155 0.206430 0.551608
 18 -3.013796 7.815494 11.355459 -0.228739 -0.191543 0.892472
 19 10.374533 -0.000002 0.000007 -0.007916 -0.190538 -1.802225
 20 22.550726 -0.000027 -0.000013 -0.124335 -0.013192 1.914107
 21 30.814270 -0.000023 0.000002 -2.629455 -0.167696 0.561305
 22 -4.250660 -0.770624 0.000001 0.000000 0.000000 2.933269
 23 10.363422 0.000000 0.000000 0.000000 -0.000008 -0.331735
 24 10.363076 0.000000 -0.000000 0.000000 0.000009 0.182630
 25 10.363081 -0.000004 -0.000002 -0.000009 -0.000015 0.462128
 26 8.210358 -0.000006 -7.703991 0.000000 0.000000 -0.000000
 27 8.210346 -0.000002 7.704017 0.000000 0.000000 -0.000000
 28 1.854841 1.227791 -13.762345 2.615599 0.105134 1.943828
 29 10.456543 -0.000004 0.000004 0.051155 0.091587 -1.366727
 30 24.248093 0.000001 0.000007 0.029798 0.033156 1.026903
 31 26.336971 0.000019 0.000002 0.369518 -0.038729 0.720861
 32 1.854847 1.227798 13.762341 -2.492814 -0.228966 1.953013
 33 10.456542 -0.000008 0.000004 -0.060013 -0.089853 -1.272706
 34 24.248116 0.000002 -0.000004 -0.027388 -0.031712 0.958468
 35 26.336975 0.000000 0.000004 -0.525834 -0.005703 0.758592
time 1
  0 0.000000 0.000000 0.000000 0.000000 -0.000000 -1.570796
  1 0.000000 0.000000 0.000000 0.000000 -0.000000 0.000000
  2 0.000000 -2.951586 28.070662 -1.570317 0.018466 1.571276
  3 4.222169 -0.467508 0.000000 -0.002069 -0.000668 0.022109
  4 4.476987 -0.000002 -0.000000 0.015327 -0.013331 0.198502
  5 4.477083 0.000000 0.000002 -0.004421 0.028191 -0.067787
  6 4.477077 -0.000004 -0.000002 -0.008694 -0.014598 -0.007866
  7 5.413502 -7.700466 -0.000000 0.000239 0.086655 0.165468
  8 6.890240 0.000002 -0.000000 -0.000324 0.121838 -0.244256
  9 8.011925 0.000004 0.000005 -0.000039 0.104065 -0.173857
 10 7.210720 -0.000002 -0.000000 0.000082 -0.191804 -0.305181
 11 8.581028 -0.304903 -0.000000 -0.010077 -0.176374 0.596424
 12 22.523008 2.194031 6.355708 0.000000 -0.000000 0.000000
 13 22.523005 2.194038 -6.355709 0.000000 -0.000000 0.000000
 14 -3.006533 7.804720 -11.355459 0.266383 0.172991 0.885041
 15 10.384675 0.000008 0.000005 0.007829 0.190554 -1.803109
 16 22.550743 -0.000006 -0.000004 0.124353 0.013163 1.914941
 17 30.814247 -0.000015 -0.000004 2.610155 0.206430 0.551608
 18 -3.013796 7.815494 11.355459 -0.228739 -0.191543 0.892472
 19 10.374533 -0.000002 0.000007 -0.007916 -0.190538 -1.802225
 20 22.550726 -0.000027 -0.000013 -0.124335 -0.013192 1.914107
 21 30.814270 -0.000023 0.000002 -2.629455 -0.167696 0.561305
 22 -4.250660 -0.770624 0.000001 0.000000 0.000000 2.933269
 23 10.363422 0.000000 0.000000 0.000000 -0.000008 -0.331735
 24 10.363076 0.000000 -0.000000 0.000000 0.000009 0.182630
 25 10.363081 -0.000004 -0.000002 -0.000009 -0.000015 0.462128
 26 8.210358 -0.000006 -7.703991 0.000000 0.000000 -0.000000
 27 8.210346 -0.000002 7.704017 0.000000 0.000000 -0.000000
 28 1.854841 1.227791 -13.762345 2.615599 0.105134 1.943828
 29 10.456543 -0.000004 0.000004 0.051155 0.091587 -1.366727
 30 24.248093 0.000001 0.000007 0.029798 0.033156 1.026903
 31 26.336971 0.000019 0.000002 0.369518 -0.038729 0.720861
 32 1.854847 1.227798 13.762341 -2.492814 -0.228966 1.953013
 33 10.456542 -0.000008 0.000004 -0.060013 -0.089853 -1.272706
 34 24.248116 0.000002 -0.000004 -0.027388 -0.031712 0.958468
 35 26.336975 0.000000 0.000004 -0.525834 -0.005703 0.758592
time 2
  0 0.000000 0.000000 0.000000 0.000000 -0.000000 -1.570796
  1 0.000000 0.000000 0.000000 0.000000 -0.000000 0.000000
  2 -0.050783 -2.951586 28.183947 -1.570126 0.018466 1.573001
  3 4.222169 -0.467508 0.000000 -0.003782 -0.005617 0.022431
  4 4.476987 -0.000002 -0.000000 0.015051 -0.025540 0.198280
  5 4.477083 0.000000 0.000002 -0.003917 0.024864 -0.067520
  6 4.477077 -0.000004 -0.000002 -0.008694 -0.014598 -0.007866
  7 5.413502 -7.700466 -0.000000 0.000266 0.085652 0.165468
  8 6.890240 0.000002 -0.000000 -0.000312 0.118296 -0.244256
  9 8.011925 0.000004 0.000005 -0.000118 0.102802 -0.173883
 10 7.210720 -0.000002 -0.000000 -0.002443 -0.187002 -0.305315
 11 8.581028 -0.304903 -0.000000 -0.009572 -0.172875 0.597020
 12 22.523008 2.194031 6.355708 0.000000 -0.000000 0.000000
 13 22.523005 2.194038 -6.355709 0.000000 -0.000000 0.000000
 14 -3.006533 7.804720 -11.355459 0.204418 0.147553 0.740621
 15 10.384675 0.000008 0.000005 0.002077 0.197620 -1.826880
 16 22.550743 -0.000006 -0.000004 0.125761 0.013134 1.965486
 17 30.814247 -0.000015 -0.000004 2.707079 0.261257 0.664702
 18 -3.013796 7.815494 11.355459 -0.201857 -0.166918 0.888995
 19 10.374533 -0.000002 0.000007 -0.012163 -0.190505 -1.779842
 20 22.550726 -0.000027 -0.000013 -0.123763 -0.013290 1.893573
 21 30.814270 -0.000023 0.000002 -2.647276 -0.177115 0.564122
 22 -4.250660 -0.770624 0.000001 -0.000180 0.006002 2.934933
 23 10.363422 0.000000 0.000000 0.000647 -0.004550 -0.332043
 24 10.363076 0.000000 -0.000000 0.000695 -0.006127 0.181262
 25 10.363081 -0.000004 -0.000002 -0.002459 -0.006963 0.459820
 26 8.210358 -0.000006 -7.703991 0.000000 0.000000 -0.000000
 27 8.210346 -0.000002 7.704017 0.000000 0.000000 -0.000000
 28 1.854841 1.227791 -13.762345 2.633892 0.097535 1.960067
 29 10.456543 -0.000004 0.000004 0.051959 0.089060 -1.344453
 30 24.248093 0.000001 0.000007 0.029465 0.032632 1.009853
 31 26.336971 0.000019 0.000002 0.374434 -0.046218 0.727930
 32 1.854847 1.227798 13.762341 -2.561353 -0.172190 1.991183
 33 10.456542 -0.000008 0.000004 -0.038647 -0.093526 -1.500305
 34 24.248116 0.000002 -0.000004 -0.032971 -0.035511 1.124394
 35 26.336975 0.000000 0.000004 -0.483680 0.029754 0.823643
time 3
  0 0.000000 0.000000 0.000000 0.000000 -0.000000 -1.570796
  1 0.000000 0.000000 0.000000 0.000000 -0.000000 0.000000
  2 -0.187506 -2.951586 28.461300 -1.569934 0.018466 1.577411
  3 4.222169 -0.467508 0.000000 -0.009115 -0.016480 0.020928
  4 4.476987 -0.000002 -0.000000 0.014943 -0.051584 0.197303
  5 4.477083 0.000000 0.000002 -0.002407 0.010535 -0.066423
  6 4.477077 -0.000004 -0.000002 -0.008694 -0.014598 -0.007866
  7 5.413502 -7.700466 -0.000000 0.000266 0.078074 0.165499
  8 6.890240 0.000002 -0.000000 -0.000276 0.105670 -0.244256
  9 8.011925 0.000004 0.000005 -0.000144 0.093537 -0.173909
 10 7.210720 -0.000002 -0.000000 -0.009443 -0.174961 -0.304725
 11 8.581028 -0.304903 -0.000000 -0.008515 -0.160856 0.598632
 12 22.523008 2.194031 6.355708 0.000000 -0.000000 0.000000
 13 22.523005 2.194038 -6.355709 0.000000 -0.000000 0.000000
 14 -3.006533 7.804720 -11.355459 0.130353 0.044671 0.628203
 15 10.384675 0.000008 0.000005 0.013058 0.214402 -1.766342
 16 22.550743 -0.000006 -0.000004 0.124305 0.013392 1.883222
 17 30.814247 -0.000015 -0.000004 2.816801 0.316273 0.769774
 18 -3.013796 7.815494 11.355459 -0.124775 -0.089643 0.880274
 19 10.374533 -0.000002 0.000007 -0.016410 -0.190406 -1.757750
 20 22.550726 -0.000027 -0.000013 -0.123191 -0.013389 1.871736
 21 30.814270 -0.000023 0.000002 -2.664676 -0.190010 0.568110
 22 -4.250660 -0.770624 0.000001 -0.000923 0.024585 2.938185
 23 10.363422 0.000000 0.000000 0.003032 -0.015264 -0.331977
 24 10.363076 0.000000 -0.000000 0.002601 -0.022486 0.176152
 25 10.363081 -0.000004 -0.000002 -0.007926 -0.028362 0.454289
 26 8.210358 -0.000006 -7.703991 0.000000 0.000000 -0.000000
 27 8.210346 -0.000002 7.704017 0.000000 0.000000 -0.000000
 28 1.854841 1.227791 -13.762345 2.651877 0.089738 1.976002
 29 10.456543 -0.000004 0.000004 0.052798 0.086462 -1.321050
 30 24.248093 0.000001 0.000007 0.029168 0.032067 0.991856
 31 26.336971 0.000019 0.000002 0.380524 -0.055179 0.737429
 32 1.854847 1.227798 13.762341 -2.712983 -0.075766 2.064852
 33 10.456542 -0.000008 0.000004 -0.031966 -0.093359 -1.569116
 34 24.248116 0.000002 -0.000004 -0.034332 -0.035883 1.162778
 35 26.336975 0.000000 0.000004 -0.447144 0.061645 0.879199
time 4
  0 0.000000 0.000000 0.000000 0.000000 -0.000000 -1.570796
  1 0.000000 0.000000 0.000000 0.000000 -0.000000 0.000000
  2 -0.386731 -2.951586 28.832405 -1.569742 0.018466 1.584218
  3 4.222169 -0.467508 0.000000 -0.016702 -0.030996 0.018306
  4 4.476987 -0.000002 -0.000000 0.014991 -0.086752 0.195816
  5 4.477083 0.000000 0.000002 -0.000250 -0.011223 -0.064778
  6 4.477077 -0.000004 -0.000002 -0.008694 -0.014598 -0.007866
  7 5.413502 -7.700466 -0.000000 0.000253 0.065008 0.165499
  8 6.890240 0.000002 -0.000000 -0.000228 0.085399 -0.244233
  9 8.011925 0.000004 0.000005 -0.000144 0.077561 -0.173935
 10 7.210720 -0.000002 -0.000000 -0.020204 -0.156741 -0.303545
 11 8.581028 -0.304903 -0.000000 -0.006954 -0.141667 0.601156
 12 22.523008 2.194031 6.355708 0.000000 -0.000000 0.000000
 13 22.523005 2.194038 -6.355709 0.000000 -0.000000 0.000000
 14 -3.006533 7.804720 -11.355459 0.085481 -0.041853 0.561040
 15 10.384675 0.000008 0.000005 0.039316 0.239246 -1.642156
 16 22.550743 -0.000006 -0.000004 0.120611 0.013880 1.717120
 17 30.814247 -0.000015 -0.000004 2.910406 0.365207 0.858300
 18 -3.013796 7.815494 11.355459 -0.047032 -0.008743 0.876797
 19 10.374533 -0.000002 0.000007 -0.021128 -0.190239 -1.732584
 20 22.550726 -0.000027 -0.000013 -0.122394 -0.013605 1.814351
 21 30.814270 -0.000023 0.000002 -2.681725 -0.207699 0.573828
 22 -4.250660 -0.770624 0.000001 -0.002001 0.052091 2.942845
 23 10.363422 0.000000 0.000000 0.006615 -0.030413 -0.331691
 24 10.363076 0.000000 -0.000000 0.005417 -0.046168 0.167970
 25 10.363081 -0.000004 -0.000002 -0.015461 -0.060099 0.446047
 26 8.210358 -0.000006 -7.703991 0.000000 0.000000 -0.000000
 27 8.210346 -0.000002 7.704017 0.000000 0.000000 -0.000000
 28 1.854841 1.227791 -13.762345 2.670918 0.080881 1.993214
 29 10.456543 -0.000004 0.000004 0.056431 0.082102 -1.265213
 30 24.248093 0.000001 0.000007 0.028464 0.030453 0.949409
 31 26.336971 0.000019 0.000002 0.387920 -0.065822 0.749634
 32 1.854847 1.227798 13.762341 -2.835139 0.020658 2.083936
 33 10.456542 -0.000008 0.000004 -0.030779 -0.093499 -1.581728
 34 24.248116 0.000002 -0.000004 -0.035031 -0.036146 1.180904
 35 26.336975 0.000000 0.000004 -0.432692 0.089440 0.894458
time 5
  0 0.000000 0.000000 0.000000 0.000000 -0.000000 -1.570796
  1 0.000000 0.000000 0.000000 0.000000 -0.000000 0.000000
  2 -0.625019 -2.951586 29.234760 -1.569550 0.018466 1.592941
  3 4.222169 -0.467508 0.000000 -0.025163 -0.046882 0.015224
  4 4.476987 -0.000002 -0.000000 0.015195 -0.126311 0.194040
  5 4.477083 0.000000 0.000002 0.002195 -0.036891 -0.062910
  6 4.477077 -0.000004 -0.000002 -0.008694 -0.014598 -0.007866
  7 5.413502 -7.700466 -0.000000 0.000226 0.047524 0.165530
  8 6.890240 0.000002 -0.000000 -0.000168 0.058867 -0.244233
  9 8.011925 0.000004 0.000005 -0.000118 0.056154 -0.173987
 10 7.210720 -0.000002 -0.000000 -0.034067 -0.133401 -0.302016
 11 8.581028 -0.304903 -0.000000 -0.004956 -0.116640 0.604345
 12 22.523008 2.194031 6.355708 0.000000 -0.000000 0.000000
 13 22.523005 2.194038 -6.355709 0.000000 -0.000000 0.000000
 14 -3.006533 7.804720 -11.355459 0.071916 -0.069199 0.526154
 15 10.384675 0.000008 0.000005 0.071064 0.263009 -1.511861
 16 22.550743 -0.000006 -0.000004 0.117668 0.014024 1.604771
 17 30.814247 -0.000015 -0.000004 2.911629 0.402479 0.871980
 18 -3.013796 7.815494 11.355459 0.041302 0.107842 0.870356
 19 10.374533 -0.000002 0.000007 -0.033734 -0.190306 -1.660451
 20 22.550726 -0.000027 -0.000013 -0.121475 -0.013801 1.754051
 21 30.814270 -0.000023 0.000002 -2.698669 -0.231359 0.581833
 22 -4.250660 -0.770624 0.000001 -0.003212 0.084860 2.948760
 23 10.363422 0.000000 0.000000 0.010894 -0.048318 -0.331339
 24 10.363076 0.000000 -0.000000 0.008893 -0.074260 0.157466
 25 10.363081 -0.000004 -0.000002 -0.024128 -0.097967 0.435523
 26 8.210358 -0.000006 -7.703991 0.000000 0.000000 -0.000000
 27 8.210346 -0.000002 7.704017 0.000000 0.000000 -0.000000
 28 1.854841 1.227791 -13.762345 2.707768 0.059318 2.031713
 29 10.456543 -0.000004 0.000004 0.060310 0.077529 -1.206207
 30 24.248093 0.000001 0.000007 0.027685 0.028758 0.904061
 31 26.336971 0.000019 0.000002 0.396664 -0.078331 0.764655
 32 1.854847 1.227798 13.762341 -2.941695 0.114345 2.048394
 33 10.456542 -0.000008 0.000004 -0.030610 -0.093666 -1.583580
 34 24.248116 0.000002 -0.000004 -0.035096 -0.036122 1.183595
 35 26.336975 0.000000 0.000004 -0.425659 0.118724 0.869195
time 6
  0 0.000000 0.000000 0.000000 0.000000 -0.000000 -1.570796
  1 0.000000 0.000000 0.000000 0.000000 -0.000000 0.000000
  2 -0.875027 -2.951586 29.601959 -1.569263 0.018427 1.603103
  3 4.222169 -0.467508 0.000000 -0.033181 -0.061805 0.012311
  4 4.476987 -0.000002 -0.000000 0.015519 -0.165463 0.192220
  5 4.477083 0.000000 0.000002 0.004604 -0.062915 -0.061072
  6 4.477077 -0.000004 -0.000002 -0.008694 -0.014598 -0.007866
  7 5.413502 -7.700466 -0.000000 0.000173 0.026659 0.165561
  8 6.890240 0.000002 -0.000000 -0.000096 0.027525 -0.244210
  9 8.011925 0.000004 0.000005 -0.000065 0.030641 -0.174039
 10 7.210720 -0.000002 -0.000000 -0.050318 -0.106018 -0.300327
 11 8.581028 -0.304903 -0.000000 -0.002568 -0.087105 0.608166
 12 22.523008 2.194031 6.355708 0.000000 -0.000000 0.000000
 13 22.523005 2.194038 -6.355709 0.000000 -0.000000 0.000000
 14 -3.006533 7.804720 -11.355459 0.072730 -0.090609 0.549915
 15 10.384675 0.000008 0.000005 0.095604 0.295598 -1.446657
 16 22.550743 -0.000006 -0.000004 0.116149 0.014081 1.559129
 17 30.814247 -0.000015 -0.000004 2.894681 0.440066 0.848667
 18 -3.013796 7.815494 11.355459 0.127752 0.227566 0.873548
 19 10.374533 -0.000002 0.000007 -0.046946 -0.189409 -1.584896
 20 22.550726 -0.000027 -0.000013 -0.119637 -0.014095 1.677560
 21 30.814270 -0.000023 0.000002 -2.712912 -0.264879 0.593240
 22 -4.250660 -0.770624 0.000001 -0.004362 0.119234 2.955725
 23 10.363422 0.000000 0.000000 0.015340 -0.067253 -0.331009
 24 10.363076 0.000000 -0.000000 0.012704 -0.103862 0.145387
 25 10.363081 -0.000004 -0.000002 -0.033042 -0.137745 0.423066
 26 8.210358 -0.000006 -7.703991 0.000000 0.000000 -0.000000
 27 8.210346 -0.000002 7.704017 0.000000 0.000000 -0.000000
 28 1.854841 1.227791 -13.762345 2.745057 0.033881 2.072585
 29 10.456543 -0.000004 0.000004 0.068398 0.073027 -1.126358
 30 24.248093 0.000001 0.000007 0.025535 0.027305 0.838170
 31 26.336971 0.000019 0.000002 0.406844 -0.092889 0.782659
 32 1.854847 1.227798 13.762341 -3.016346 0.189700 2.032842
 33 10.456542 -0.000008 0.000004 -0.043226 -0.093248 -1.452814
 34 24.248116 0.000002 -0.000004 -0.031520 -0.034492 1.090071
 35 26.336975 0.000000 0.000004 -0.422700 0.149436 0.826864
time 7
  0 0.000000 0.000000 0.000000 0.000000 -0.000000 -1.570796
  1 0.000000 0.000000 0.000000 0.000000 -0.000000 0.000000
  2 -1.121128 -2.951586 29.863686 -1.569071 0.018426 1.614415
  3 4.222169 -0.467508 0.000000 -0.039436 -0.073447 0.010087
  4 4.476987 -0.000002 -0.000000 0.015866 -0.199453 0.190600
  5 4.477083 0.000000 0.000002 0.006677 -0.085804 -0.059516
  6 4.477077 -0.000004 -0.000002 -0.008694 -0.014598 -0.007866
  7 5.413502 -7.700466 -0.000000 0.000133 0.003483 0.165592
  8 6.890240 0.000002 -0.000000 -0.000024 -0.007228 -0.244163
  9 8.011925 0.000004 0.000005 0.000000 0.002269 -0.174091
 10 7.210720 -0.000002 -0.000000 -0.068326 -0.075652 -0.298611
 11 8.581028 -0.304903 -0.000000 0.000119 -0.054378 0.612407
 12 22.523008 2.194031 6.355708 0.000000 -0.000000 0.000000
 13 22.523005 2.194038 -6.355709 0.000000 -0.000000 0.000000
 14 -3.006533 7.804720 -11.355459 0.076365 -0.109263 0.582329
 15 10.384675 0.000008 0.000005 0.136429 0.326001 -1.345798
 16 22.550743 -0.000006 -0.000004 0.113095 0.013995 1.464032
 17 30.814247 -0.000015 -0.000004 2.867513 0.479564 0.796561
 18 -3.013796 7.815494 11.355459 0.187014 0.350952 0.883352
 19 10.374533 -0.000002 0.000007 -0.059956 -0.187582 -1.509399
 20 22.550726 -0.000027 -0.000013 -0.117655 -0.014272 1.599145
 21 30.814270 -0.000023 0.000002 -2.706246 -0.325533 0.611286
 22 -4.250660 -0.770624 0.000001 -0.005297 0.151538 2.963612
 23 10.363422 0.000000 0.000000 0.019463 -0.085530 -0.330811
 24 10.363076 0.000000 -0.000000 0.016431 -0.132121 0.132482
 25 10.363081 -0.000004 -0.000002 -0.041426 -0.175181 0.408917
 26 8.210358 -0.000006 -7.703991 0.000000 0.000000 -0.000000
 27 8.210346 -0.000002 7.704017 0.000000 0.000000 -0.000000
 28 1.854841 1.227791 -13.762345 2.781907 -0.006211 2.127384
 29 10.456543 -0.000004 0.000004 0.076697 0.068418 -1.042299
 30 24.248093 0.000001 0.000007 0.023311 0.025731 0.769911
 31 26.336971 0.000019 0.000002 0.418416 -0.109707 0.803810
 32 1.854847 1.227798 13.762341 -2.989233 0.201110 2.027155
 33 10.456542 -0.000008 0.000004 -0.066830 -0.088016 -1.198574
 34 24.248116 0.000002 -0.000004 -0.025652 -0.030621 0.904395
 35 26.336975 0.000000 0.000004 -0.430505 0.172671 0.761757
time 8
  0 0.000000 0.000000 0.000000 0.000000 -0.000000 -1.570796
  1 0.000000 0.000000 0.000000 0.000000 -0.000000 0.000000
  2 -1.351604 -2.951586 29.965252 -1.568784 0.018387 1.626398
  3 4.222169 -0.467508 0.000000 -0.042756 -0.079713 0.008999
  4 4.476987 -0.000002 -0.000000 0.016154 -0.223441 0.189423
  5 4.477083 0.000000 0.000002 0.008127 -0.101941 -0.058464
  6 4.477077 -0.000004 -0.000002 -0.008694 -0.014598 -0.007866
  7 5.413502 -7.700466 -0.000000 0.000080 -0.021001 0.165623
  8 6.890240 0.000002 -0.000000 0.000024 -0.044046 -0.244140
  9 8.011925 0.000004 0.000005 0.000065 -0.027702 -0.174143
 10 7.210720 -0.000002 -0.000000 -0.087514 -0.043308 -0.297001
 11 8.581028 -0.304903 -0.000000 0.003035 -0.019756 0.616963
 12 22.523008 2.194031 6.355708 0.000000 -0.000000 0.000000
 13 22.523005 2.194038 -6.355709 0.000000 -0.000000 0.000000
 14 -3.006533 7.804720 -11.355459 0.095681 -0.098523 0.628477
 15 10.384675 0.000008 0.000005 0.192120 0.350294 -1.217224
 16 22.550743 -0.000006 -0.000004 0.108489 0.013335 1.330497
 17 30.814247 -0.000015 -0.000004 2.833530 0.513357 0.734857
 18 -3.013796 7.815494 11.355459 0.241796 0.472732 0.901307
 19 10.374533 -0.000002 0.000007 -0.073101 -0.184691 -1.432568
 20 22.550726 -0.000027 -0.000013 -0.115633 -0.014292 1.519303
 21 30.814270 -0.000023 0.000002 -2.697932 -0.389442 0.629890
 22 -4.250660 -0.770624 0.000001 -0.005968 0.178129 2.972292
 23 10.363422 0.000000 0.000000 0.022735 -0.101457 -0.330789
 24 10.363076 0.000000 -0.000000 0.019523 -0.156210 0.119603
 25 10.363081 -0.000004 -0.000002 -0.048616 -0.206009 0.393104
 26 8.210358 -0.000006 -7.703991 0.000000 0.000000 -0.000000
 27 8.210346 -0.000002 7.704017 0.000000 0.000000 -0.000000
 28 1.854841 1.227791 -13.762345 2.816778 -0.050300 2.183095
 29 10.456543 -0.000004 0.000004 0.085711 0.066336 -0.944996
 30 24.248093 0.000001 0.000007 0.021198 0.023996 0.701474
 31 26.336971 0.000019 0.000002 0.431467 -0.129127 0.828220
 32 1.854847 1.227798 13.762341 -2.943012 0.166196 1.988641
 33 10.456542 -0.000008 0.000004 -0.063235 -0.089129 -1.237946
 34 24.248116 0.000002 -0.000004 -0.026468 -0.031400 0.935925
 35 26.336975 0.000000 0.000004 -0.421414 0.157129 0.725360
time 9
  0 0.000000 0.000000 0.000000 0.000000 -0.000000 -1.570796
  1 0.000000 0.000000 0.000000 0.000000 -0.000000 0.000000
  2 -1.578173 -2.951586 29.887123 -1.568592 0.018347 1.638477
  3 4.222169 -0.467508 0.000000 -0.043607 -0.081455 0.008815
  4 4.476987 -0.000002 -0.000000 0.016262 -0.233208 0.188957
  5 4.477083 0.000000 0.000002 0.008691 -0.108128 -0.058078
  6 4.477077 -0.000004 -0.000002 -0.008694 -0.014598 -0.007866
  7 5.413502 -7.700466 -0.000000 0.000013 -0.045519 0.165654
  8 6.890240 0.000002 -0.000000 0.000084 -0.081138 -0.244116
  9 8.011925 0.000004 0.000005 0.000157 -0.057704 -0.174195
 10 7.210720 -0.000002 -0.000000 -0.107032 -0.010346 -0.295527
 11 8.581028 -0.304903 -0.000000 0.006090 0.015071 0.621590
 12 22.523008 2.194031 6.355708 0.000000 -0.000000 0.000000
 13 22.523005 2.194038 -6.355709 0.000000 -0.000000 0.000000
 14 -3.006533 7.804720 -11.355459 0.120261 -0.040581 0.654848
 15 10.384675 0.000008 0.000005 0.231750 0.379912 -1.159296
 16 22.550743 -0.000006 -0.000004 0.106042 0.013077 1.281828
 17 30.814247 -0.000015 -0.000004 2.802780 0.517213 0.708249
 18 -3.013796 7.815494 11.355459 0.266031 0.575603 0.920459
 19 10.374533 -0.000002 0.000007 -0.083954 -0.181668 -1.367799
 20 22.550726 -0.000027 -0.000013 -0.113937 -0.014135 1.452055
 21 30.814270 -0.000023 0.000002 -2.690320 -0.453350 0.647071
 22 -4.250660 -0.770624 0.000001 -0.006364 0.195043 2.981561
 23 10.363422 0.000000 0.000000 0.024664 -0.113035 -0.330921
 24 10.363076 0.000000 -0.000000 0.021297 -0.172893 0.107575
 25 10.363081 -0.000004 -0.000002 -0.054021 -0.225667 0.375868
 26 8.210358 -0.000006 -7.703991 0.000000 0.000000 -0.000000
 27 8.210346 -0.000002 7.704017 0.000000 0.000000 -0.000000
 28 1.854841 1.227791 -13.762345 2.849011 -0.096166 2.238260
 29 10.456543 -0.000004 0.000004 0.095215 0.063454 -0.838488
 30 24.248093 0.000001 0.000007 0.019084 0.021938 0.628183
 31 26.336971 0.000019 0.000002 0.446302 -0.151937 0.855502
 32 1.854847 1.227798 13.762341 -2.896115 0.127616 1.943018
 33 10.456542 -0.000008 0.000004 -0.054621 -0.091244 -1.330877
 34 24.248116 0.000002 -0.000004 -0.028774 -0.033042 1.007971
 35 26.336975 0.000000 0.000004 -0.408163 0.135104 0.697498
time 10
  0 0.000000 0.000000 0.000000 0.000000 -0.000000 -1.570796
  1 0.000000 0.000000 0.000000 0.000000 -0.000000 0.000000
  2 -1.835994 -2.951586 29.676180 -1.568304 0.018347 1.650364
  3 4.222169 -0.467508 0.000000 -0.043895 -0.082141 0.008815
  4 4.476987 -0.000002 -0.000000 0.016202 -0.232009 0.189046
  5 4.477083 0.000000 0.000002 0.008583 -0.106691 -0.058212
  6 4.477077 -0.000004 -0.000002 -0.008694 -0.014598 -0.007866
  7 5.413502 -7.700466 -0.000000 -0.000027 -0.069086 0.165685
  8 6.890240 0.000002 -0.000000 0.000144 -0.117185 -0.244093
  9 8.011925 0.000004 0.000005 0.000249 -0.086555 -0.174247
 10 7.210720 -0.000002 -0.000000 -0.126385 0.022228 -0.294132
 11 8.581028 -0.304903 -0.000000 0.009167 0.048925 0.626146
 12 22.523008 2.194031 6.355708 0.000000 -0.000000 0.000000
 13 22.523005 2.194038 -6.355709 0.000000 -0.000000 0.000000
 14 -3.006533 7.804720 -11.355459 0.147337 0.048027 0.670918
 15 10.384675 0.000008 0.000005 0.242171 0.420606 -1.185678
 16 22.550743 -0.000006 -0.000004 0.105578 0.013335 1.315484
 17 30.814247 -0.000015 -0.000004 2.774694 0.512918 0.693494
 18 -3.013796 7.815494 11.355459 0.247855 0.650263 0.899426
 19 10.374533 -0.000002 0.000007 -0.082943 -0.182631 -1.375858
 20 22.550726 -0.000027 -0.000013 -0.114019 -0.013938 1.460430
 21 30.814270 -0.000023 0.000002 -2.691267 -0.512879 0.677612
 22 -4.250660 -0.770624 0.000001 -0.006544 0.199761 2.991317
 23 10.363422 0.000000 0.000000 0.025216 -0.117721 -0.330943
 24 10.363076 0.000000 -0.000000 0.021596 -0.178909 0.095212
 25 10.363081 -0.000004 -0.000002 -0.057456 -0.231182 0.357102
 26 8.210358 -0.000006 -7.703991 0.000000 0.000000 -0.000000
 27 8.210346 -0.000002 7.704017 0.000000 0.000000 -0.000000
 28 1.854841 1.227791 -13.762345 2.880892 -0.141859 2.278158
 29 10.456543 -0.000004 0.000004 0.098657 0.065020 -0.809571
 30 24.248093 0.000001 0.000007 0.018417 0.021756 0.611962
 31 26.336971 0.000019 0.000002 0.458048 -0.170069 0.890294
 32 1.854847 1.227798 13.762341 -2.845166 0.092045 1.895327
 33 10.456542 -0.000008 0.000004 -0.046176 -0.092580 -1.419867
 34 24.248116 0.000002 -0.000004 -0.031028 -0.034420 1.075956
 35 26.336975 0.000000 0.000004 -0.396070 0.113078 0.668731
time 11
  0 0.000000 0.000000 0.000000 0.000000 -0.000000 -1.570796
  1 0.000000 0.000000 0.000000 0.000000 -0.000000 0.000000
  2 -2.105533 -2.951586 29.379295 -1.568112 0.018307 1.661676
  3 4.222169 -0.467508 0.000000 -0.043631 -0.081771 0.008983
  4 4.476987 -0.000002 -0.000000 0.016130 -0.228582 0.189223
  5 4.477083 0.000000 0.000002 0.008355 -0.103912 -0.058404
  6 4.477077 -0.000004 -0.000002 -0.008694 -0.014598 -0.007866
  7 5.413502 -7.700466 -0.000000 -0.000080 -0.090648 0.165717
  8 6.890240 0.000002 -0.000000 0.000180 -0.150748 -0.244070
  9 8.011925 0.000004 0.000005 0.000327 -0.112931 -0.174298
 10 7.210720 -0.000002 -0.000000 -0.144970 0.053424 -0.292630
 11 8.581028 -0.304903 -0.000000 0.012083 0.080422 0.630458
 12 22.523008 2.194031 6.355708 0.000000 -0.000000 0.000000
 13 22.523005 2.194038 -6.355709 0.000000 -0.000000 0.000000
 14 -3.006533 7.804720 -11.355459 0.176420 0.141405 0.688361
 15 10.384675 0.000008 0.000005 0.246989 0.460599 -1.221056
 16 22.550743 -0.000006 -0.000004 0.105466 0.013622 1.364213
 17 30.814247 -0.000015 -0.000004 2.748618 0.506272 0.683503
 18 -3.013796 7.815494 11.355459 0.177799 0.688564 0.805603
 19 10.374533 -0.000002 0.000007 -0.071416 -0.186087 -1.445963
 20 22.550726 -0.000027 -0.000013 -0.115388 -0.013938 1.531710
 21 30.814270 -0.000023 0.000002 -2.718454 -0.553665 0.751719
 22 -4.250660 -0.770624 0.000001 -0.006352 0.192395 3.001585
 23 10.363422 0.000000 0.000000 0.024856 -0.114089 -0.330458
 24 10.363076 0.000000 -0.000000 0.020841 -0.172989 0.080423
 25 10.363081 -0.000004 -0.000002 -0.058958 -0.222971 0.336617
 26 8.210358 -0.000006 -7.703991 0.000000 0.000000 -0.000000
 27 8.210346 -0.000002 7.704017 0.000000 0.000000 -0.000000
 28 1.854841 1.227791 -13.762345 2.903494 -0.158636 2.277732
 29 10.456543 -0.000004 0.000004 0.083091 0.079415 -1.011688
 30 24.248093 0.000001 0.000007 0.022124 0.026921 0.764701
 31 26.336971 0.000019 0.000002 0.453480 -0.161528 0.940771
 32 1.854847 1.227798 13.762341 -2.783042 0.059758 1.841562
 33 10.456542 -0.000008 0.000004 -0.037121 -0.093276 -1.514690
 34 24.248116 0.000002 -0.000004 -0.033321 -0.035583 1.143078
 35 26.336975 0.000000 0.000004 -0.384620 0.090371 0.639907
time 12
  0 0.000000 0.000000 0.000000 0.000000 -0.000000 -1.570796
  1 0.000000 0.000000 0.000000 0.000000 -0.000000 0.000000
  2 -2.367260 -2.951586 29.031628 -1.567921 0.018267 1.671838
  3 4.222169 -0.467508 0.000000 -0.042864 -0.080436 0.009305
  4 4.476987 -0.000002 -0.000000 0.016034 -0.222970 0.189512
  5 4.477083 0.000000 0.000002 0.008007 -0.099793 -0.058686
  6 4.477077 -0.000004 -0.000002 -0.008694 -0.014598 -0.007866
  7 5.413502 -7.700466 -0.000000 -0.000133 -0.109117 0.165748
  8 6.890240 0.000002 -0.000000 0.000204 -0.180352 -0.244047
  9 8.011925 0.000004 0.000005 0.000406 -0.135504 -0.174350
 10 7.210720 -0.000002 -0.000000 -0.162044 0.081990 -0.290887
 11 8.581028 -0.304903 -0.000000 0.014678 0.108216 0.634243
 12 22.523008 2.194031 6.355708 0.000000 -0.000000 0.000000
 13 22.523005 2.194038 -6.355709 0.000000 -0.000000 0.000000
 14 -3.006533 7.804720 -11.355459 0.207728 0.233865 0.709031
 15 10.384675 0.000008 0.000005 0.253227 0.496391 -1.246049
 16 22.550743 -0.000006 -0.000004 0.105194 0.013880 1.404044
 17 30.814247 -0.000015 -0.000004 2.725337 0.496115 0.680065
 18 -3.013796 7.815494 11.355459 0.071188 0.674738 0.695764
 19 10.374533 -0.000002 0.000007 -0.066428 -0.188013 -1.476869
 20 22.550726 -0.000027 -0.000013 -0.115694 -0.014095 1.564156
 21 30.814270 -0.000023 0.000002 -2.744309 -0.585546 0.820136
 22 -4.250660 -0.770624 0.000001 -0.005609 0.174165 3.012391
 23 10.363422 0.000000 0.000000 0.023741 -0.103543 -0.329600
 24 10.363076 0.000000 -0.000000 0.019020 -0.157085 0.063828
 25 10.363081 -0.000004 -0.000002 -0.058749 -0.202697 0.314119
 26 8.210358 -0.000006 -7.703991 0.000000 0.000000 -0.000000
 27 8.210346 -0.000002 7.704017 0.000000 0.000000 -0.000000
 28 1.854841 1.227791 -13.762345 2.889246 -0.117853 2.293667
 29 10.456543 -0.000004 0.000004 0.073360 0.083971 -1.137864
 30 24.248093 0.000001 0.000007 0.024868 0.029141 0.857765
 31 26.336971 0.000019 0.000002 0.438515 -0.143002 0.985283
 32 1.854847 1.227798 13.762341 -2.713388 0.032177 1.784867
 33 10.456542 -0.000008 0.000004 -0.027829 -0.093137 -1.611522
 34 24.248116 0.000002 -0.000004 -0.035627 -0.036542 1.208677
 35 26.336975 0.000000 0.000004 -0.373985 0.066856 0.610971
time 13
  0 0.000000 0.000000 0.000000 0.000000 -0.000000 -1.570796
  1 0.000000 0.000000 0.000000 0.000000 -0.000000 0.000000
  2 -2.605548 -2.951586 28.687868 -1.567825 0.018227 1.680466
  3 4.222169 -0.467508 0.000000 -0.041630 -0.078211 0.009781
  4 4.476987 -0.000002 -0.000000 0.015926 -0.215367 0.189889
  5 4.477083 0.000000 0.000002 0.007540 -0.094462 -0.059057
  6 4.477077 -0.000004 -0.000002 -0.008694 -0.014598 -0.007866
  7 5.413502 -7.700466 -0.000000 -0.000173 -0.123662 0.165748
  8 6.890240 0.000002 -0.000000 0.000204 -0.204806 -0.244023
  9 8.011925 0.000004 0.000005 0.000471 -0.153301 -0.174376
 10 7.210720 -0.000002 -0.000000 -0.176292 0.105789 -0.289251
 11 8.581028 -0.304903 -0.000000 0.016814 0.131160 0.637362
 12 22.523008 2.194031 6.355708 0.000000 -0.000000 0.000000
 13 22.523005 2.194038 -6.355709 0.000000 -0.000000 0.000000
 14 -3.006533 7.804720 -11.355459 0.241423 0.322897 0.733822
 15 10.384675 0.000008 0.000005 0.261071 0.527049 -1.260878
 16 22.550743 -0.000006 -0.000004 0.104602 0.013938 1.424020
 17 30.814247 -0.000015 -0.000004 2.705900 0.481884 0.682572
 18 -3.013796 7.815494 11.355459 -0.046523 0.626049 0.596469
 19 10.374533 -0.000002 0.000007 -0.073101 -0.187482 -1.438889
 20 22.550726 -0.000027 -0.000013 -0.114489 -0.014174 1.528174
 21 30.814270 -0.000023 0.000002 -2.768935 -0.616179 0.874329
 22 -4.250660 -0.770624 0.000001 -0.004075 0.146082 3.023862
 23 10.363422 0.000000 0.000000 0.021980 -0.087268 -0.328434
 24 10.363076 0.000000 -0.000000 0.016131 -0.132936 0.045941
 25 10.363081 -0.000004 -0.000002 -0.057013 -0.171808 0.289339
 26 8.210358 -0.000006 -7.703991 0.000000 0.000000 -0.000000
 27 8.210346 -0.000002 7.704017 0.000000 0.000000 -0.000000
 28 1.854841 1.227791 -13.762345 2.859564 -0.059232 2.296525
 29 10.456543 -0.000004 0.000004 0.071753 0.082316 -1.183281
 30 24.248093 0.000001 0.000007 0.025980 0.029101 0.889793
 31 26.336971 0.000019 0.000002 0.414675 -0.122347 1.001299
 32 1.854847 1.227798 13.762341 -2.633066 0.011464 1.726923
 33 10.456542 -0.000008 0.000004 -0.018570 -0.092079 -1.709144
 34 24.248116 0.000002 -0.000004 -0.037881 -0.037309 1.272092
 35 26.336975 0.000000 0.000004 -0.364165 0.042380 0.581978
time 14
  0 0.000000 0.000000 0.000000 0.000000 -0.000000 -1.570796
  1 0.000000 0.000000 0.000000 0.000000 -0.000000 0.000000
  2 -2.800867 -2.951586 28.390984 -1.567729 0.018227 1.687176
  3 4.222169 -0.467508 0.000000 -0.039988 -0.075190 0.010394
  4 4.476987 -0.000002 -0.000000 0.015806 -0.205964 0.190355
  5 4.477083 0.000000 0.000002 0.006965 -0.088066 -0.059472
  6 4.477077 -0.000004 -0.000002 -0.008694 -0.014598 -0.007866
  7 5.413502 -7.700466 -0.000000 -0.000199 -0.134043 0.165779
  8 6.890240 0.000002 -0.000000 0.000192 -0.223365 -0.244000
  9 8.011925 0.000004 0.000005 0.000511 -0.165986 -0.174402
 10 7.210720 -0.000002 -0.000000 -0.186421 0.122773 -0.288313
 11 8.581028 -0.304903 -0.000000 0.018352 0.148574 0.639676
 12 22.523008 2.194031 6.355708 0.000000 -0.000000 0.000000
 13 22.523005 2.194038 -6.355709 0.000000 -0.000000 0.000000
 14 -3.006533 7.804720 -11.355459 0.277397 0.404227 0.763970
 15 10.384675 0.000008 0.000005 0.271267 0.547396 -1.261267
 16 22.550743 -0.000006 -0.000004 0.103947 0.013938 1.429407
 17 30.814247 -0.000015 -0.000004 2.691879 0.463044 0.689663
 18 -3.013796 7.815494 11.355459 -0.147890 0.568877 0.512337
 19 10.374533 -0.000002 0.000007 -0.088740 -0.183794 -1.349417
 20 22.550726 -0.000027 -0.000013 -0.112283 -0.013958 1.440888
 21 30.814270 -0.000023 0.000002 -2.809383 -0.643558 0.922219
 22 -4.250660 -0.770624 0.000001 -0.001726 0.109477 3.035923
 23 10.363422 0.000000 0.000000 0.019727 -0.066534 -0.327092
 24 10.363076 0.000000 -0.000000 0.012224 -0.102352 0.027255
 25 10.363081 -0.000004 -0.000002 -0.054095 -0.131983 0.262358
 26 8.210358 -0.000006 -7.703991 0.000000 0.000000 -0.000000
 27 8.210346 -0.000002 7.704017 0.000000 0.000000 -0.000000
 28 1.854841 1.227791 -13.762345 2.815767 -0.001129 2.234428
 29 10.456543 -0.000004 0.000004 0.067857 0.081070 -1.250755
 30 24.248093 0.000001 0.000007 0.027463 0.029484 0.937924
 31 26.336971 0.000019 0.000002 0.404234 -0.099091 0.967611
 32 1.854847 1.227798 13.762341 -2.547949 -0.003476 1.667298
 33 10.456542 -0.000008 0.000004 -0.009956 -0.090270 -1.800498
 34 24.248116 0.000002 -0.000004 -0.040057 -0.037896 1.332511
 35 26.336975 0.000000 0.000004 -0.355202 0.016818 0.552872
time 15
  0 0.000000 0.000000 0.000000 0.000000 -0.000000 -1.570796
  1 0.000000 0.000000 0.000000 0.000000 -0.000000 0.000000
  2 -2.929777 -2.951586 28.183947 -1.567633 0.018227 1.691682
  3 4.222169 -0.467508 0.000000 -0.038010 -0.071519 0.011099
  4 4.476987 -0.000002 -0.000000 0.015687 -0.195105 0.190888
  5 4.477083 0.000000 0.000002 0.006306 -0.080797 -0.059946
  6 4.477077 -0.000004 -0.000002 -0.008694 -0.014598 -0.007866
  7 5.413502 -7.700466 -0.000000 -0.000213 -0.140466 0.165779
  8 6.890240 0.000002 -0.000000 0.000168 -0.235481 -0.243977
  9 8.011925 0.000004 0.000005 0.000537 -0.173830 -0.174428
 10 7.210720 -0.000002 -0.000000 -0.192707 0.133260 -0.287803
 11 8.581028 -0.304903 -0.000000 0.019317 0.159944 0.641113
 12 22.523008 2.194031 6.355708 0.000000 -0.000000 0.000000
 13 22.523005 2.194038 -6.355709 0.000000 -0.000000 0.000000
 14 -3.006533 7.804720 -11.355459 0.317061 0.481919 0.799062
 15 10.384675 0.000008 0.000005 0.282622 0.555097 -1.248993
 16 22.550743 -0.000006 -0.000004 0.103451 0.013938 1.416937
 17 30.814247 -0.000015 -0.000004 2.684628 0.438937 0.699941
 18 -3.013796 7.815494 11.355459 -0.199974 0.520300 0.465539
 19 10.374533 -0.000002 0.000007 -0.099324 -0.180306 -1.286851
 20 22.550726 -0.000027 -0.000013 -0.110812 -0.013683 1.380216
 21 30.814270 -0.000023 0.000002 -2.874843 -0.653345 0.946010
 22 -4.250660 -0.770624 0.000001 0.001163 0.066678 3.048239
 23 10.363422 0.000000 0.000000 0.017138 -0.042745 -0.325683
 24 10.363076 0.000000 -0.000000 0.007478 -0.067309 0.008362
 25 10.363081 -0.000004 -0.000002 -0.050685 -0.085688 0.234168
 26 8.210358 -0.000006 -7.703991 0.000000 0.000000 -0.000000
 27 8.210346 -0.000002 7.704017 0.000000 0.000000 -0.000000
 28 1.854841 1.227791 -13.762345 2.772717 0.045896 2.169897
 29 10.456543 -0.000004 0.000004 0.071438 0.077440 -1.209506
 30 24.248093 0.000001 0.000007 0.026758 0.028132 0.906310
 31 26.336971 0.000019 0.000002 0.432816 -0.076806 0.899628
 32 1.854847 1.227798 13.762341 -2.461617 -0.013107 1.604227
 33 10.456542 -0.000008 0.000004 -0.003309 -0.088406 -1.872502
 34 24.248116 0.000002 -0.000004 -0.041988 -0.038280 1.385722
 35 26.336975 0.000000 0.000004 -0.347098 -0.010822 0.521222
time 16
  0 0.000000 0.000000 0.000000 0.000000 -0.000000 -1.570796
  1 0.000000 0.000000 0.000000 0.000000 -0.000000 0.000000
  2 -2.980560 -2.951586 28.109726 -1.567633 0.018227 1.692449
  3 4.222169 -0.467508 0.000000 -0.035721 -0.067274 0.011897
  4 4.476987 -0.000002 -0.000000 0.015567 -0.182961 0.191465
  5 4.477083 0.000000 0.000002 0.005575 -0.072801 -0.060479
  6 4.477077 -0.000004 -0.000002 -0.008694 -0.014598 -0.007866
  7 5.413502 -7.700466 -0.000000 -0.000213 -0.141468 0.165779
  8 6.890240 0.000002 -0.000000 0.000156 -0.240748 -0.243954
  9 8.011925 0.000004 0.000005 0.000550 -0.175060 -0.174428
 10 7.210720 -0.000002 -0.000000 -0.193696 0.134902 -0.287750
 11 8.581028 -0.304903 -0.000000 0.019615 0.164860 0.641639
 12 22.523008 2.194031 6.355708 0.000000 -0.000000 0.000000
 13 22.523005 2.194038 -6.355709 0.000000 -0.000000 0.000000
 14 -3.006533 7.804720 -11.355459 0.361934 0.559222 0.839304
 15 10.384675 0.000008 0.000005 0.292072 0.555076 -1.233164
 16 22.550743 -0.000006 -0.000004 0.103035 0.013909 1.397143
 17 30.814247 -0.000015 -0.000004 2.683230 0.409439 0.712009
 18 -3.013796 7.815494 11.355459 -0.197632 0.468808 0.480360
 19 10.374533 -0.000002 0.000007 -0.085505 -0.184758 -1.368436
 20 22.550726 -0.000027 -0.000013 -0.112773 -0.014056 1.458693
 21 30.814270 -0.000023 0.000002 -2.940022 -0.629514 0.918314
 22 -4.250660 -0.770624 0.000001 0.004195 0.020027 3.060581
 23 10.363422 0.000000 0.000000 0.014346 -0.017110 -0.324275
 24 10.363076 0.000000 -0.000000 0.002121 -0.029509 -0.010272
 25 10.363081 -0.000004 -0.000002 -0.047398 -0.035280 0.205737
 26 8.210358 -0.000006 -7.703991 0.000000 0.000000 -0.000000
 27 8.210346 -0.000002 7.704017 0.000000 0.000000 -0.000000
 28 1.854841 1.227791 -13.762345 2.766385 0.054383 2.172391
 29 10.456543 -0.000004 0.000004 0.082287 0.069895 -1.045859
 30 24.248093 0.000001 0.000007 0.023756 0.024884 0.784652
 31 26.336971 0.000019 0.000002 0.467967 -0.073075 0.859202
 32 1.854847 1.227798 13.762341 -2.382341 -0.019948 1.560888
 33 10.456542 -0.000008 0.000004 0.005983 -0.084677 -1.974380
 34 24.248116 0.000002 -0.000004 -0.044928 -0.038855 1.462998
 35 26.336975 0.000000 0.000004 -0.342080 -0.031327 0.512575
time 17
  0 0.000000 0.000000 0.000000 0.000000 -0.000000 -1.570796
  1 0.000000 0.000000 0.000000 0.000000 -0.000000 0.000000
  2 -2.957121 -2.951586 28.183947 -1.567633 0.018227 1.690819
  3 4.222169 -0.467508 0.000000 -0.033193 -0.062547 0.012771
  4 4.476987 -0.000002 -0.000000 0.015459 -0.169811 0.192087
  5 4.477083 0.000000 0.000002 0.004784 -0.064223 -0.061043
  6 4.477077 -0.000004 -0.000002 -0.008694 -0.014598 -0.007866
  7 5.413502 -7.700466 -0.000000 -0.000213 -0.139242 0.165779
  8 6.890240 0.000002 -0.000000 0.000144 -0.238644 -0.243930
  9 8.011925 0.000004 0.000005 0.000537 -0.172344 -0.174428
 10 7.210720 -0.000002 -0.000000 -0.191527 0.131282 -0.287910
 11 8.581028 -0.304903 -0.000000 0.019271 0.162846 0.641253
 12 22.523008 2.194031 6.355708 0.000000 -0.000000 0.000000
 13 22.523005 2.194038 -6.355709 0.000000 -0.000000 0.000000
 14 -3.006533 7.804720 -11.355459 0.410659 0.628327 0.884903
 15 10.384675 0.000008 0.000005 0.297712 0.548860 -1.217835
 16 22.550743 -0.000006 -0.000004 0.102603 0.013852 1.378257
 17 30.814247 -0.000015 -0.000004 2.681833 0.376492 0.724794
 18 -3.013796 7.815494 11.355459 -0.174924 0.374606 0.534795
 19 10.374533 -0.000002 0.000007 -0.048362 -0.191502 -1.581068
 20 22.550726 -0.000027 -0.000013 -0.118002 -0.014272 1.669991
 21 30.814270 -0.000023 0.000002 -2.959036 -0.568933 0.854721
 22 -4.250660 -0.770624 0.000001 0.007119 -0.027971 3.072693
 23 10.363422 0.000000 0.000000 0.011457 0.009088 -0.322998
 24 10.363076 0.000000 -0.000000 -0.003523 0.009261 -0.028210
 25 10.363081 -0.000004 -0.000002 -0.044640 0.016639 0.178057
 26 8.210358 -0.000006 -7.703991 0.000000 0.000000 -0.000000
 27 8.210346 -0.000002 7.704017 0.000000 0.000000 -0.000000
 28 1.854841 1.227791 -13.762345 2.794836 0.016882 2.218919
 29 10.456543 -0.000004 0.000004 0.088297 0.063560 -0.923330
 30 24.248093 0.000001 0.000007 0.021791 0.022422 0.690759
 31 26.336971 0.000019 0.000002 0.484759 -0.095017 0.868811
 32 1.854847 1.227798 13.762341 -2.350367 -0.039484 1.589925
 33 10.456542 -0.000008 0.000004 0.018735 -0.077414 -2.122250
 34 24.248116 0.000002 -0.000004 -0.050058 -0.039262 1.594195
 35 26.336975 0.000000 0.000004 -0.336377 -0.025898 0.556545
time 18
  0 0.000000 0.000000 0.000000 0.000000 -0.000000 -1.570796
  1 0.000000 0.000000 0.000000 0.000000 -0.000000 0.000000
  2 -2.875088 -2.951586 28.390984 -1.567729 0.018227 1.687176
  3 4.222169 -0.467508 0.000000 -0.030472 -0.057430 0.013721
  4 4.476987 -0.000002 -0.000000 0.015351 -0.155846 0.192731
  5 4.477083 0.000000 0.000002 0.003945 -0.055242 -0.061650
  6 4.477077 -0.000004 -0.000002 -0.008694 -0.014598 -0.007866
  7 5.413502 -7.700466 -0.000000 -0.000199 -0.133992 0.165779
  8 6.890240 0.000002 -0.000000 0.000144 -0.228671 -0.243930
  9 8.011925 0.000004 0.000005 0.000511 -0.165922 -0.174402
 10 7.210720 -0.000002 -0.000000 -0.186394 0.122684 -0.288313
 11 8.581028 -0.304903 -0.000000 0.018283 0.153439 0.639851
 12 22.523008 2.194031 6.355708 0.000000 -0.000000 0.000000
 13 22.523005 2.194038 -6.355709 0.000000 -0.000000 0.000000
 14 -3.006533 7.804720 -11.355459 0.460578 0.680899 0.935378
 15 10.384675 0.000008 0.000005 0.298721 0.536427 -1.204395
 16 22.550743 -0.000006 -0.000004 0.102076 0.013823 1.357676
 17 30.814247 -0.000015 -0.000004 2.672398 0.342887 0.738080
 18 -3.013796 7.815494 11.355459 -0.163724 0.214338 0.586893
 19 10.374533 -0.000002 0.000007 -0.010814 -0.191269 -1.787264
 20 22.550726 -0.000027 -0.000013 -0.123375 -0.013506 1.893449
 21 30.814270 -0.000023 0.000002 -2.908134 -0.467296 0.780782
 22 -4.250660 -0.770624 0.000001 0.009696 -0.074862 3.084369
 23 10.363422 0.000000 0.000000 0.008617 0.034568 -0.321876
 24 10.363076 0.000000 -0.000000 -0.009036 0.047216 -0.044857
 25 10.363081 -0.000004 -0.000002 -0.042522 0.067494 0.152042
 26 8.210358 -0.000006 -7.703991 0.000000 0.000000 -0.000000
 27 8.210346 -0.000002 7.704017 0.000000 0.000000 -0.000000
 28 1.854841 1.227791 -13.762345 2.829399 -0.036361 2.269765
 29 10.456543 -0.000004 0.000004 0.091354 0.058827 -0.837837
 30 24.248093 0.000001 0.000007 0.020790 0.020707 0.626999
 31 26.336971 0.000019 0.000002 0.494504 -0.125080 0.893829
 32 1.854847 1.227798 13.762341 -2.399087 -0.061620 1.672123
 33 10.456542 -0.000008 0.000004 0.024602 -0.073128 -2.196815
 34 24.248116 0.000002 -0.000004 -0.053297 -0.038927 1.683758
 35 26.336975 0.000000 0.000004 -0.319481 -0.002043 0.619505
time 19
  0 0.000000 0.000000 0.000000 0.000000 -0.000000 -1.570796
  1 0.000000 0.000000 0.000000 0.000000 -0.000000 0.000000
  2 -2.753990 -2.951586 28.691774 -1.567825 0.018227 1.680466
  3 4.222169 -0.467508 0.000000 -0.027596 -0.051999 0.014703
  4 4.476987 -0.000002 -0.000000 0.015255 -0.141304 0.193397
  5 4.477083 0.000000 0.000002 0.003070 -0.045953 -0.062273
  6 4.477077 -0.000004 -0.000002 -0.008694 -0.014598 -0.007866
  7 5.413502 -7.700466 -0.000000 -0.000173 -0.123594 0.165748
  8 6.890240 0.000002 -0.000000 0.000156 -0.210203 -0.243907
  9 8.011925 0.000004 0.000005 0.000471 -0.153205 -0.174376
 10 7.210720 -0.000002 -0.000000 -0.176209 0.105665 -0.289251
 11 8.581028 -0.304903 -0.000000 0.016676 0.136043 0.637468
 12 22.523008 2.194031 6.355708 0.000000 -0.000000 0.000000
 13 22.523005 2.194038 -6.355709 0.000000 -0.000000 0.000000
 14 -3.006533 7.804720 -11.355459 0.507404 0.720222 0.982213
 15 10.384675 0.000008 0.000005 0.293417 0.517820 -1.195175
 16 22.550743 -0.000006 -0.000004 0.102268 0.013766 1.348717
 17 30.814247 -0.000015 -0.000004 2.648505 0.310881 0.751509
 18 -3.013796 7.815494 11.355459 -0.154559 0.018684 0.668062
 19 10.374533 -0.000002 0.000007 0.009274 -0.188113 -1.895697
 20 22.550726 -0.000027 -0.000013 -0.126378 -0.012741 2.020811
 21 30.814270 -0.000023 0.000002 -2.816329 -0.328788 0.702797
 22 -4.250660 -0.770624 0.000001 0.011841 -0.118287 3.095457
 23 10.363422 0.000000 0.000000 0.005896 0.058081 -0.320974
 24 10.363076 0.000000 -0.000000 -0.013854 0.082810 -0.059621
 25 10.363081 -0.000004 -0.000002 -0.040971 0.114821 0.128578
 26 8.210358 -0.000006 -7.703991 0.000000 0.000000 -0.000000
 27 8.210346 -0.000002 7.704017 0.000000 0.000000 -0.000000
 28 1.854841 1.227791 -13.762345 2.860752 -0.090047 2.317813
 29 10.456543 -0.000004 0.000004 0.095180 0.053151 -0.737018
 30 24.248093 0.000001 0.000007 0.019641 0.018608 0.553649
 31 26.336971 0.000019 0.000002 0.503770 -0.150859 0.919509
 32 1.854847 1.227798 13.762341 -2.487952 -0.050347 1.725285
 33 10.456542 -0.000008 0.000004 0.023279 -0.074213 -2.179080
 34 24.248116 0.000002 -0.000004 -0.052545 -0.038879 1.665531
 35 26.336975 0.000000 0.000004 -0.305158 0.022247 0.669183
time 20
  0 0.000000 0.000000 0.000000 0.000000 -0.000000 -1.570796
  1 0.000000 0.000000 0.000000 0.000000 -0.000000 0.000000
  2 -2.597735 -2.951586 29.035534 -1.567921 0.018267 1.671742
  3 4.222169 -0.467508 0.000000 -0.024636 -0.046401 0.015715
  4 4.476987 -0.000002 -0.000000 0.015171 -0.126482 0.194062
  5 4.477083 0.000000 0.000002 0.002183 -0.036568 -0.062910
  6 4.477077 -0.000004 -0.000002 -0.008694 -0.014598 -0.007866
  7 5.413502 -7.700466 -0.000000 -0.000133 -0.109015 0.165748
  8 6.890240 0.000002 -0.000000 0.000216 -0.182730 -0.243907
  9 8.011925 0.000004 0.000005 0.000406 -0.135377 -0.174350
 10 7.210720 -0.000002 -0.000000 -0.161935 0.081831 -0.290887
 11 8.581028 -0.304903 -0.000000 0.014517 0.110128 0.634103
 12 22.523008 2.194031 6.355708 0.000000 -0.000000 0.000000
 13 22.523005 2.194038 -6.355709 0.000000 -0.000000 0.000000
 14 -3.006533 7.804720 -11.355459 0.526558 0.739406 0.989973
 15 10.384675 0.000008 0.000005 0.255729 0.501122 -1.247937
 16 22.550743 -0.000006 -0.000004 0.105050 0.013995 1.395448
 17 30.814247 -0.000015 -0.000004 2.593426 0.289909 0.770812
 18 -3.013796 7.815494 11.355459 -0.127321 -0.136576 0.815977
 19 10.374533 -0.000002 0.000007 0.008330 -0.187548 -1.891580
 20 22.550726 -0.000027 -0.000013 -0.126459 -0.012584 2.013739
 21 30.814270 -0.000023 0.000002 -2.743397 -0.165640 0.609445
 22 -4.250660 -0.770624 0.000001 0.013471 -0.155534 3.105776
 23 10.363422 0.000000 0.000000 0.003452 0.078228 -0.320358
 24 10.363076 0.000000 -0.000000 -0.017318 0.114126 -0.071855
 25 10.363081 -0.000004 -0.000002 -0.039727 0.155740 0.108684
 26 8.210358 -0.000006 -7.703991 0.000000 0.000000 -0.000000
 27 8.210346 -0.000002 7.704017 0.000000 0.000000 -0.000000
 28 1.854841 1.227791 -13.762345 2.886608 -0.141020 2.367686
 29 10.456543 -0.000004 0.000004 0.099373 0.046460 -0.625213
 30 24.248093 0.000001 0.000007 0.018232 0.015884 0.463130
 31 26.336971 0.000019 0.000002 0.510426 -0.166994 0.952866
 32 1.854847 1.227798 13.762341 -2.566350 -0.019017 1.733471
 33 10.456542 -0.000008 0.000004 0.020668 -0.076245 -2.143808
 34 24.248116 0.000002 -0.000004 -0.050796 -0.039011 1.615418
 35 26.336975 0.000000 0.000004 -0.313949 0.039774 0.691959
time 21
  0 0.000000 0.000000 0.000000 0.000000 -0.000000 -1.570796
  1 0.000000 0.000000 0.000000 0.000000 -0.000000 0.000000
  2 -2.414136 -2.951586 29.379295 -1.568112 0.018307 1.661580
  3 4.222169 -0.467508 0.000000 -0.021651 -0.040746 0.016742
  4 4.476987 -0.000002 -0.000000 0.015111 -0.111640 0.194728
  5 4.477083 0.000000 0.000002 0.001284 -0.027264 -0.063562
  6 4.477077 -0.000004 -0.000002 -0.008694 -0.014598 -0.007866
  7 5.413502 -7.700466 -0.000000 -0.000080 -0.090529 0.165717
  8 6.890240 0.000002 -0.000000 0.000252 -0.149572 -0.243930
  9 8.011925 0.000004 0.000005 0.000327 -0.112771 -0.174298
 10 7.210720 -0.000002 -0.000000 -0.144860 0.053230 -0.292630
 11 8.581028 -0.304903 -0.000000 0.011922 0.078886 0.630072
 12 22.523008 2.194031 6.355708 0.000000 -0.000000 0.000000
 13 22.523005 2.194038 -6.355709 0.000000 -0.000000 0.000000
 14 -3.006533 7.804720 -11.355459 0.497529 0.731209 0.935722
 15 10.384675 0.000008 0.000005 0.181027 0.485168 -1.383953
 16 22.550743 -0.000006 -0.000004 0.110072 0.014368 1.510037
 17 30.814247 -0.000015 -0.000004 2.493401 0.291634 0.803186
 18 -3.013796 7.815494 11.355459 -0.067397 -0.207275 0.937559
 19 10.374533 -0.000002 0.000007 -0.001984 -0.188346 -1.836494
 20 22.550726 -0.000027 -0.000013 -0.124968 -0.012996 1.944319
 21 30.814270 -0.000023 0.000002 -2.734802 -0.031169 0.538824
 22 -4.250660 -0.770624 0.000001 0.014573 -0.184259 3.114584
 23 10.363422 0.000000 0.000000 0.001366 0.093688 -0.320050
 24 10.363076 0.000000 -0.000000 -0.020362 0.138167 -0.083288
 25 10.363081 -0.000004 -0.000002 -0.038373 0.187707 0.093435
 26 8.210358 -0.000006 -7.703991 0.000000 0.000000 -0.000000
 27 8.210346 -0.000002 7.704017 0.000000 0.000000 -0.000000
 28 1.854841 1.227791 -13.762345 2.901867 -0.182025 2.425465
 29 10.456543 -0.000004 0.000004 0.104299 0.037972 -0.496344
 30 24.248093 0.000001 0.000007 0.016971 0.012878 0.367994
 31 26.336971 0.000019 0.000002 0.515951 -0.179766 0.988873
 32 1.854847 1.227798 13.762341 -2.639954 0.013407 1.732523
 33 10.456542 -0.000008 0.000004 0.018667 -0.077747 -2.116890
 34 24.248116 0.000002 -0.000004 -0.049501 -0.039106 1.576475
 35 26.336975 0.000000 0.000004 -0.322740 0.055161 0.699702
time 22
  0 0.000000 0.000000 0.000000 0.000000 -0.000000 -1.570796
  1 0.000000 0.000000 0.000000 0.000000 -0.000000 0.000000
  2 -2.214911 -2.951586 29.680086 -1.568304 0.018347 1.650268
  3 4.222169 -0.467508 0.000000 -0.018691 -0.035074 0.017739
  4 4.476987 -0.000002 -0.000000 0.015063 -0.096968 0.195372
  5 4.477083 0.000000 0.000002 0.000397 -0.018169 -0.064185
  6 4.477077 -0.000004 -0.000002 -0.008694 -0.014598 -0.007866
  7 5.413502 -7.700466 -0.000000 -0.000027 -0.068950 0.165685
  8 6.890240 0.000002 -0.000000 0.000252 -0.114074 -0.243954
  9 8.011925 0.000004 0.000005 0.000249 -0.086380 -0.174247
 10 7.210720 -0.000002 -0.000000 -0.126276 0.022033 -0.294132
 11 8.581028 -0.304903 -0.000000 0.009006 0.045510 0.625656
 12 22.523008 2.194031 6.355708 0.000000 -0.000000 0.000000
 13 22.523005 2.194038 -6.355709 0.000000 -0.000000 0.000000
 14 -3.006533 7.804720 -11.355459 0.438331 0.692063 0.852284
 15 10.384675 0.000008 0.000005 0.109499 0.458689 -1.523468
 16 22.550743 -0.000006 -0.000004 0.115270 0.014253 1.633524
 17 30.814247 -0.000015 -0.000004 2.386168 0.301445 0.835954
 18 -3.013796 7.815494 11.355459 0.006427 -0.224015 0.960872
 19 10.374533 -0.000002 0.000007 -0.006702 -0.188578 -1.811444
 20 22.550726 -0.000027 -0.000013 -0.124314 -0.013192 1.912680
 21 30.814270 -0.000023 0.000002 -2.764725 0.034526 0.528700
 22 -4.250660 -0.770624 0.000001 0.015256 -0.202634 3.119756
 23 10.363422 0.000000 0.000000 -0.000228 0.103227 -0.320072
 24 10.363076 0.000000 -0.000000 -0.023226 0.152860 -0.092064
 25 10.363081 -0.000004 -0.000002 -0.036477 0.208382 0.083609
 26 8.210358 -0.000006 -7.703991 0.000000 0.000000 -0.000000
 27 8.210346 -0.000002 7.704017 0.000000 0.000000 -0.000000
 28 1.854841 1.227791 -13.762345 2.907847 -0.217405 2.499727
 29 10.456543 -0.000004 0.000004 0.109593 0.026281 -0.333566
 30 24.248093 0.000001 0.000007 0.015785 0.009024 0.251426
 31 26.336971 0.000019 0.000002 0.521781 -0.193825 1.026316
 32 1.854847 1.227798 13.762341 -2.699073 0.043642 1.717488
 33 10.456542 -0.000008 0.000004 0.011715 -0.081977 -2.032669
 34 24.248116 0.000002 -0.000004 -0.047092 -0.038891 1.503311
 35 26.336975 0.000000 0.000004 -0.317594 0.069152 0.661553
time 23
  0 0.000000 0.000000 0.000000 0.000000 -0.000000 -1.570796
  1 0.000000 0.000000 0.000000 0.000000 -0.000000 0.000000
  2 -2.011780 -2.951586 29.891029 -1.568592 0.018347 1.638381
  3 4.222169 -0.467508 0.000000 -0.015815 -0.029531 0.018705
  4 4.476987 -0.000002 -0.000000 0.015027 -0.082747 0.195994
  5 4.477083 0.000000 0.000002 -0.000454 -0.009447 -0.064807
  6 4.477077 -0.000004 -0.000002 -0.008694 -0.014598 -0.007866
  7 5.413502 -7.700466 -0.000000 0.000013 -0.045366 0.165654
  8 6.890240 0.000002 -0.000000 0.000216 -0.077557 -0.243977
  9 8.011925 0.000004 0.000005 0.000157 -0.057512 -0.174195
 10 7.210720 -0.000002 -0.000000 -0.106922 -0.010558 -0.295553
 11 8.581028 -0.304903 -0.000000 0.005952 0.011178 0.621064
 12 22.523008 2.194031 6.355708 0.000000 -0.000000 0.000000
 13 22.523005 2.194038 -6.355709 0.000000 -0.000000 0.000000
 14 -3.006533 7.804720 -11.355459 0.383855 0.639951 0.780383
 15 10.384675 0.000008 0.000005 0.065723 0.423279 -1.617164
 16 22.550743 -0.000006 -0.000004 0.118996 0.013880 1.723355
 17 30.814247 -0.000015 -0.000004 2.311128 0.305458 0.857011
 18 -3.013796 7.815494 11.355459 0.072257 -0.230480 0.957737
 19 10.374533 -0.000002 0.000007 -0.009062 -0.188678 -1.799557
 20 22.550726 -0.000027 -0.000013 -0.124069 -0.013251 1.897233
 21 30.814270 -0.000023 0.000002 -2.791387 0.071667 0.534222
 22 -4.250660 -0.770624 0.000001 0.015628 -0.208796 3.118502
 23 10.363422 0.000000 0.000000 -0.001234 0.105528 -0.320468
 24 10.363076 0.000000 -0.000000 -0.024808 0.157450 -0.092631
 25 10.363081 -0.000004 -0.000002 -0.033682 0.215160 0.079957
 26 8.210358 -0.000006 -7.703991 0.000000 0.000000 -0.000000
 27 8.210346 -0.000002 7.704017 0.000000 0.000000 -0.000000
 28 1.854841 1.227791 -13.762345 2.914399 -0.247011 2.554222
 29 10.456543 -0.000004 0.000004 0.112842 0.018807 -0.230054
 30 24.248093 0.000001 0.000007 0.015081 0.006360 0.174642
 31 26.336971 0.000019 0.000002 0.522346 -0.203837 1.046640
 32 1.854847 1.227798 13.762341 -2.699410 0.060032 1.668117
 33 10.456542 -0.000008 0.000004 -0.007447 -0.089881 -1.820401
 34 24.248116 0.000002 -0.000004 -0.041275 -0.038244 1.352313
 35 26.336975 0.000000 0.000004 -0.321711 0.072812 0.546824
time 24
  0 0.000000 0.000000 0.000000 0.000000 -0.000000 -1.570796
  1 0.000000 0.000000 0.000000 0.000000 -0.000000 0.000000
  2 -1.800836 -2.951586 29.965252 -1.568784 0.018387 1.626302
  3 4.222169 -0.467508 0.000000 -0.013058 -0.024192 0.019594
  4 4.476987 -0.000002 -0.000000 0.015015 -0.069168 0.196571
  5 4.477083 0.000000 0.000002 -0.001269 -0.001257 -0.065400
  6 4.477077 -0.000004 -0.000002 -0.008694 -0.014598 -0.007866
  7 5.413502 -7.700466 -0.000000 0.000080 -0.020848 0.165623
  8 6.890240 0.000002 -0.000000 0.000156 -0.041066 -0.244000
  9 8.011925 0.000004 0.000005 0.000065 -0.027510 -0.174143
 10 7.210720 -0.000002 -0.000000 -0.087377 -0.043502 -0.297028
 11 8.581028 -0.304903 -0.000000 0.002921 -0.023068 0.616508
 12 22.523008 2.194031 6.355708 0.000000 -0.000000 0.000000
 13 22.523005 2.194038 -6.355709 0.000000 -0.000000 0.000000
 14 -3.006533 7.804720 -11.355459 0.347664 0.577028 0.746733
 15 10.384675 0.000008 0.000005 0.038718 0.384644 -1.683977
 16 22.550743 -0.000006 -0.000004 0.120947 0.013679 1.788670
 17 30.814247 -0.000015 -0.000004 2.317767 0.295050 0.853931
 18 -3.013796 7.815494 11.355459 0.097255 -0.230667 0.953975
 19 10.374533 -0.000002 0.000007 -0.011152 -0.188744 -1.788656
 20 22.550726 -0.000027 -0.000013 -0.123845 -0.013310 1.883461
 21 30.814270 -0.000023 0.000002 -2.796999 0.080035 0.538267
 22 -4.250660 -0.770624 0.000001 0.015640 -0.200756 3.108003
 23 10.363422 0.000000 0.000000 -0.001594 0.100027 -0.321260
 24 10.363076 0.000000 -0.000000 -0.023969 0.151158 -0.079055
 25 10.363081 -0.000004 -0.000002 -0.028647 0.205593 0.097542
 26 8.210358 -0.000006 -7.703991 0.000000 0.000000 -0.000000
 27 8.210346 -0.000002 7.704017 0.000000 0.000000 -0.000000
 28 1.854841 1.227791 -13.762345 2.968487 -0.267760 2.428202
 29 10.456543 -0.000004 0.000004 0.102640 0.045873 -0.571373
 30 24.248093 0.000001 0.000007 0.017453 0.015057 0.432760
 31 26.336971 0.000019 0.000002 0.499202 -0.186624 1.021291
 32 1.854847 1.227798 13.762341 -2.667808 0.054614 1.643130
 33 10.456542 -0.000008 0.000004 -0.010567 -0.090716 -1.787375
 34 24.248116 0.000002 -0.000004 -0.040278 -0.037980 1.328856
 35 26.336975 0.000000 0.000004 -0.327714 0.066112 0.517492
time 25
  0 0.000000 0.000000 0.000000 0.000000 -0.000000 -1.570796
  1 0.000000 0.000000 0.000000 0.000000 -0.000000 0.000000
  2 -1.546922 -2.951586 29.863686 -1.569071 0.018426 1.614319
  3 4.222169 -0.467508 0.000000 -0.010470 -0.019131 0.020422
  4 4.476987 -0.000002 -0.000000 0.015015 -0.056467 0.197081
  5 4.477083 0.000000 0.000002 -0.002036 0.006303 -0.065964
  6 4.477077 -0.000004 -0.000002 -0.008694 -0.014598 -0.007866
  7 5.413502 -7.700466 -0.000000 0.000133 0.003636 0.165592
  8 6.890240 0.000002 -0.000000 0.000072 -0.005529 -0.244047
  9 8.011925 0.000004 0.000005 0.000000 0.002460 -0.174091
 10 7.210720 -0.000002 -0.000000 -0.068216 -0.075846 -0.298637
 11 8.581028 -0.304903 -0.000000 -0.000019 -0.056461 0.612056
 12 22.523008 2.194031 6.355708 0.000000 -0.000000 0.000000
 13 22.523005 2.194038 -6.355709 0.000000 -0.000000 0.000000
 14 -3.006533 7.804720 -11.355459 0.317278 0.511137 0.723453
 15 10.384675 0.000008 0.000005 0.016830 0.344481 -1.744904
 16 22.550743 -0.000006 -0.000004 0.122594 0.013421 1.851200
 17 30.814247 -0.000015 -0.000004 2.386824 0.277370 0.820376
 18 -3.013796 7.815494 11.355459 0.078519 -0.223492 0.947135
 19 10.374533 -0.000002 0.000007 -0.011017 -0.188977 -1.788946
 20 22.550726 -0.000027 -0.000013 -0.123885 -0.013290 1.885570
 21 30.814270 -0.000023 0.000002 -2.785738 0.063275 0.542813
 22 -4.250660 -0.770624 0.000001 0.014921 -0.177904 3.086776
 23 10.363422 0.000000 0.000000 -0.001414 0.088079 -0.322404
 24 10.363076 0.000000 -0.000000 -0.020446 0.133961 -0.048006
 25 10.363081 -0.000004 -0.000002 -0.021703 0.181514 0.141062
 26 8.210358 -0.000006 -7.703991 0.000000 0.000000 -0.000000
 27 8.210346 -0.000002 7.704017 0.000000 0.000000 -0.000000
 28 1.854841 1.227791 -13.762345 3.000895 -0.233047 2.319577
 29 10.456543 -0.000004 0.000004 0.080156 0.070696 -0.958803
 30 24.248093 0.000001 0.000007 0.022718 0.024682 0.723083
 31 26.336971 0.000019 0.000002 0.465182 -0.158664 1.001244
 32 1.854847 1.227798 13.762341 -2.635227 0.045502 1.628784
 33 10.456542 -0.000008 0.000004 -0.008328 -0.090103 -1.811021
 34 24.248116 0.000002 -0.000004 -0.040770 -0.037980 1.343377
 35 26.336975 0.000000 0.000004 -0.332818 0.058791 0.517266
time 26
  0 0.000000 0.000000 0.000000 0.000000 -0.000000 -1.570796
  1 0.000000 0.000000 0.000000 0.000000 -0.000000 0.000000
  2 -1.238319 -2.951586 29.601959 -1.569263 0.018427 1.603103
  3 4.222169 -0.467508 0.000000 -0.008145 -0.014478 0.021127
  4 4.476987 -0.000002 -0.000000 0.015039 -0.044966 0.197547
  5 4.477083 0.000000 0.000002 -0.002719 0.012975 -0.066467
  6 4.477077 -0.000004 -0.000002 -0.008694 -0.014598 -0.007866
  7 5.413502 -7.700466 -0.000000 0.000173 0.026795 0.165561
  8 6.890240 0.000002 -0.000000 -0.000012 0.027643 -0.244070
  9 8.011925 0.000004 0.000005 -0.000065 0.030817 -0.174039
 10 7.210720 -0.000002 -0.000000 -0.050208 -0.106212 -0.300327
 11 8.581028 -0.304903 -0.000000 -0.002728 -0.087617 0.607921
 12 22.523008 2.194031 6.355708 0.000000 -0.000000 0.000000
 13 22.523005 2.194038 -6.355709 0.000000 -0.000000 0.000000
 14 -3.006533 7.804720 -11.355459 0.289985 0.442843 0.705735
 15 10.384675 0.000008 0.000005 -0.001397 0.303533 -1.802776
 16 22.550743 -0.000006 -0.000004 0.124257 0.013048 1.914578
 17 30.814247 -0.000015 -0.000004 2.463874 0.261759 0.781770
 18 -3.013796 7.815494 11.355459 0.049346 -0.215608 0.939497
 19 10.374533 -0.000002 0.000007 -0.010477 -0.189243 -1.791265
 20 22.550726 -0.000027 -0.000013 -0.123967 -0.013271 1.890657
 21 30.814270 -0.000023 0.000002 -2.764059 0.031516 0.548140
 22 -4.250660 -0.770624 0.000001 0.013027 -0.144365 3.057764
 23 10.363422 0.000000 0.000000 -0.000899 0.071888 -0.323791
 24 10.363076 0.000000 -0.000000 -0.015616 0.108817 -0.004078
 25 10.363081 -0.000004 -0.000002 -0.014944 0.147451 0.202247
 26 8.210358 -0.000006 -7.703991 0.000000 0.000000 -0.000000
 27 8.210346 -0.000002 7.704017 0.000000 0.000000 -0.000000
 28 1.854841 1.227791 -13.762345 2.970289 -0.163817 2.276516
 29 10.456543 -0.000004 0.000004 0.066442 0.080394 -1.154451
 30 24.248093 0.000001 0.000007 0.026351 0.028838 0.869132
 31 26.336971 0.000019 0.000002 0.427117 -0.132885 0.983240
 32 1.854847 1.227798 13.762341 -2.614327 0.038416 1.624002
 33 10.456542 -0.000008 0.000004 -0.006565 -0.089547 -1.829899
 34 24.248116 0.000002 -0.000004 -0.041107 -0.038004 1.353125
 35 26.336975 0.000000 0.000004 -0.337878 0.052679 0.516362
time 27
  0 0.000000 0.000000 0.000000 0.000000 -0.000000 -1.570796
  1 0.000000 0.000000 0.000000 0.000000 -0.000000 0.000000
  2 -0.898465 -2.951586 29.234760 -1.569550 0.018466 1.592845
  3 4.222169 -0.467508 0.000000 -0.006107 -0.010344 0.021695
  4 4.476987 -0.000002 -0.000000 0.015075 -0.034899 0.197925
  5 4.477083 0.000000 0.000002 -0.003306 0.018644 -0.066912
  6 4.477077 -0.000004 -0.000002 -0.008694 -0.014598 -0.007866
  7 5.413502 -7.700466 -0.000000 0.000226 0.047643 0.165530
  8 6.890240 0.000002 -0.000000 -0.000096 0.057455 -0.244116
  9 8.011925 0.000004 0.000005 -0.000118 0.056314 -0.173987
 10 7.210720 -0.000002 -0.000000 -0.033957 -0.133560 -0.302016
 11 8.581028 -0.304903 -0.000000 -0.005117 -0.115632 0.604240
 12 22.523008 2.194031 6.355708 0.000000 -0.000000 0.000000
 13 22.523005 2.194038 -6.355709 0.000000 -0.000000 0.000000
 14 -3.006533 7.804720 -11.355459 0.272243 0.353776 0.727024
 15 10.384675 0.000008 0.000005 -0.013760 0.263455 -1.850040
 16 22.550743 -0.000006 -0.000004 0.125697 0.012675 1.969542
 17 30.814247 -0.000015 -0.000004 2.536993 0.247652 0.733747
 18 -3.013796 7.815494 11.355459 -0.012462 -0.209031 0.929750
 19 10.374533 -0.000002 0.000007 -0.009938 -0.189509 -1.793469
 20 22.550726 -0.000027 -0.000013 -0.124049 -0.013232 1.895496
 21 30.814270 -0.000023 0.000002 -2.733328 -0.013332 0.554388
 22 -4.250660 -0.770624 0.000001 0.009815 -0.105417 3.024912
 23 10.363422 0.000000 0.000000 -0.000228 0.053551 -0.325353
 24 10.363076 0.000000 -0.000000 -0.010918 0.079503 0.046122
 25 10.363081 -0.000004 -0.000002 -0.009994 0.108197 0.271942
 26 8.210358 -0.000006 -7.703991 0.000000 0.000000 -0.000000
 27 8.210346 -0.000002 7.704017 0.000000 0.000000 -0.000000
 28 1.854841 1.227791 -13.762345 2.926492 -0.093032 2.234915
 29 10.456543 -0.000004 0.000004 0.056169 0.085626 -1.283623
 30 24.248093 0.000001 0.000007 0.028760 0.031098 0.964209
 31 26.336971 0.000019 0.000002 0.384614 -0.110811 0.961757
 32 1.854847 1.227798 13.762341 -2.596669 0.031931 1.621417
 33 10.456542 -0.000008 0.000004 -0.004937 -0.089046 -1.847437
 34 24.248116 0.000002 -0.000004 -0.041379 -0.038064 1.361452
 35 26.336975 0.000000 0.000004 -0.342938 0.047623 0.516984
time 28
  0 0.000000 0.000000 0.000000 0.000000 -0.000000 -1.570796
  1 0.000000 0.000000 0.000000 0.000000 -0.000000 0.000000
  2 -0.566424 -2.951586 28.828499 -1.569742 0.018466 1.584122
  3 4.222169 -0.467508 0.000000 -0.004429 -0.006785 0.022109
  4 4.476987 -0.000002 -0.000000 0.015123 -0.026439 0.198236
  5 4.477083 0.000000 0.000002 -0.003785 0.023151 -0.067283
  6 4.477077 -0.000004 -0.000002 -0.008694 -0.014598 -0.007866
  7 5.413502 -7.700466 -0.000000 0.000253 0.065110 0.165499
  8 6.890240 0.000002 -0.000000 -0.000192 0.082863 -0.244163
  9 8.011925 0.000004 0.000005 -0.000144 0.077673 -0.173935
 10 7.210720 -0.000002 -0.000000 -0.020122 -0.156864 -0.303545
 11 8.581028 -0.304903 -0.000000 -0.007114 -0.139533 0.601121
 12 22.523008 2.194031 6.355708 0.000000 -0.000000 0.000000
 13 22.523005 2.194038 -6.355709 0.000000 -0.000000 0.000000
 14 -3.006533 7.804720 -11.355459 0.277940 0.247679 0.831338
 15 10.384675 0.000008 0.000005 -0.005805 0.238737 -1.831157
 16 22.550743 -0.000006 -0.000004 0.125089 0.013077 1.942665
 17 30.814247 -0.000015 -0.000004 2.569272 0.228060 0.621763
 18 -3.013796 7.815494 11.355459 -0.078190 -0.203202 0.919319
 19 10.374533 -0.000002 0.000007 -0.009466 -0.189774 -1.795672
 20 22.550726 -0.000027 -0.000013 -0.124110 -0.013212 1.900397
 21 30.814270 -0.000023 0.000002 -2.698634 -0.064297 0.559464
 22 -4.250660 -0.770624 0.000001 0.005681 -0.066357 2.992111
 23 10.363422 0.000000 0.000000 0.000395 0.035119 -0.327026
 24 10.363076 0.000000 -0.000000 -0.007203 0.049937 0.096167
 25 10.363081 -0.000004 -0.000002 -0.007347 0.068803 0.341342
 26 8.210358 -0.000006 -7.703991 0.000000 0.000000 -0.000000
 27 8.210346 -0.000002 7.704017 0.000000 0.000000 -0.000000
 28 1.854841 1.227791 -13.762345 2.844921 -0.026517 2.159801
 29 10.456543 -0.000004 0.000004 0.045408 0.089416 -1.410624
 30 24.248093 0.000001 0.000007 0.031318 0.033035 1.057332
 31 26.336971 0.000019 0.000002 0.341154 -0.092810 0.933316
 32 1.854847 1.227798 13.762341 -2.594103 0.029140 1.625983
 33 10.456542 -0.000008 0.000004 -0.004598 -0.088879 -1.851575
 34 24.248116 0.000002 -0.000004 -0.041612 -0.038172 1.368408
 35 26.336975 0.000000 0.000004 -0.347912 0.043683 0.519188
time 29
  0 0.000000 0.000000 0.000000 0.000000 -0.000000 -1.570796
  1 0.000000 0.000000 0.000000 0.000000 -0.000000 0.000000
  2 -0.281259 -2.951586 28.457394 -1.569934 0.018466 1.577411
  3 4.222169 -0.467508 0.000000 -0.003159 -0.003930 0.022323
  4 4.476987 -0.000002 -0.000000 0.015183 -0.019864 0.198435
  5 4.477083 0.000000 0.000002 -0.004145 0.026350 -0.067549
  6 4.477077 -0.000004 -0.000002 -0.008694 -0.014598 -0.007866
  7 5.413502 -7.700466 -0.000000 0.000266 0.078142 0.165499
  8 6.890240 0.000002 -0.000000 -0.000264 0.102782 -0.244210
  9 8.011925 0.000004 0.000005 -0.000144 0.093617 -0.173909
 10 7.210720 -0.000002 -0.000000 -0.009388 -0.175067 -0.304725
 11 8.581028 -0.304903 -0.000000 -0.008676 -0.158295 0.598702
 12 22.523008 2.194031 6.355708 0.000000 -0.000000 0.000000
 13 22.523005 2.194038 -6.355709 0.000000 -0.000000 0.000000
 14 -3.006533 7.804720 -11.355459 0.277289 0.187052 0.895204
 15 10.384675 0.000008 0.000005 0.001180 0.218879 -1.813995
 16 22.550743 -0.000006 -0.000004 0.124337 0.013507 1.910280
 17 30.814247 -0.000015 -0.000004 2.590631 0.213295 0.539432
 18 -3.013796 7.815494 11.355459 -0.143715 -0.198045 0.908603
 19 10.374533 -0.000002 0.000007 -0.008927 -0.190040 -1.797818
 20 22.550726 -0.000027 -0.000013 -0.124192 -0.013192 1.905236
 21 30.814270 -0.000023 0.000002 -2.666149 -0.112008 0.561779
 22 -4.250660 -0.770624 0.000001 0.001630 -0.032400 2.963253
 23 10.363422 0.000000 0.000000 0.000791 0.018676 -0.328720
 24 10.363076 0.000000 -0.000000 -0.004542 0.024194 0.139734
 25 10.363081 -0.000004 -0.000002 -0.006178 0.034402 0.401829
 26 8.210358 -0.000006 -7.703991 0.000000 0.000000 -0.000000
 27 8.210346 -0.000002 7.704017 0.000000 0.000000 -0.000000
 28 1.854841 1.227791 -13.762345 2.755083 0.033215 2.076416
 29 10.456543 -0.000004 0.000004 0.034699 0.091800 -1.532850
 30 24.248093 0.000001 0.000007 0.033950 0.034730 1.147022
 31 26.336971 0.000019 0.000002 0.344982 -0.072865 0.868756
 32 1.854847 1.227798 13.762341 -2.592888 0.026650 1.631196
 33 10.456542 -0.000008 0.000004 -0.004360 -0.088740 -1.854570
 34 24.248116 0.000002 -0.000004 -0.041793 -0.038327 1.373942
 35 26.336975 0.000000 0.000004 -0.352887 0.040829 0.522861
time 30
  0 0.000000 0.000000 0.000000 0.000000 -0.000000 -1.570796
  1 0.000000 0.000000 0.000000 0.000000 -0.000000 0.000000
  2 -0.078127 -2.951586 28.180040 -1.570126 0.018466 1.572906
  3 4.222169 -0.467508 0.000000 -0.002356 -0.001854 0.022339
  4 4.476987 -0.000002 -0.000000 0.015255 -0.015409 0.198524
  5 4.477083 0.000000 0.000002 -0.004361 0.028078 -0.067727
  6 4.477077 -0.000004 -0.000002 -0.008694 -0.014598 -0.007866
  7 5.413502 -7.700466 -0.000000 0.000266 0.085669 0.165468
  8 6.890240 0.000002 -0.000000 -0.000312 0.116139 -0.244233
  9 8.011925 0.000004 0.000005 -0.000118 0.102834 -0.173883
 10 7.210720 -0.000002 -0.000000 -0.002416 -0.187055 -0.305315
 11 8.581028 -0.304903 -0.000000 -0.009686 -0.170911 0.597090
 12 22.523008 2.194031 6.355708 0.000000 -0.000000 0.000000
 13 22.523005 2.194038 -6.355709 0.000000 -0.000000 0.000000
 14 -3.006533 7.804720 -11.355459 0.271917 0.179138 0.891633
 15 10.384675 0.000008 0.000005 0.005476 0.202903 -1.804775
 16 22.550743 -0.000006 -0.000004 0.124609 0.013507 1.912399
 17 30.814247 -0.000015 -0.000004 2.600197 0.210254 0.540900
 18 -3.013796 7.815494 11.355459 -0.208170 -0.193598 0.897659
 19 10.374533 -0.000002 0.000007 -0.008388 -0.190273 -1.800021
 20 22.550726 -0.000027 -0.000013 -0.124274 -0.013153 1.910075
 21 30.814270 -0.000023 0.000002 -2.642225 -0.147094 0.560747
 22 -4.250660 -0.770624 0.000001 -0.000839 -0.008634 2.942307
 23 10.363422 0.000000 0.000000 0.000731 0.006284 -0.330326
 24 10.363076 0.000000 -0.000000 -0.002409 0.006229 0.170603
 25 10.363081 -0.000004 -0.000002 -0.004515 0.009891 0.444892
 26 8.210358 -0.000006 -7.703991 0.000000 0.000000 -0.000000
 27 8.210346 -0.000002 7.704017 0.000000 0.000000 -0.000000
 28 1.854841 1.227791 -13.762345 2.661903 0.084360 1.989200
 29 10.456543 -0.000004 0.000004 0.034437 0.092850 -1.538494
 30 24.248093 0.000001 0.000007 0.033802 0.035598 1.150989
 31 26.336971 0.000019 0.000002 0.355162 -0.054916 0.796189
 32 1.854847 1.227798 13.762341 -2.591605 0.024160 1.636366
 33 10.456542 -0.000008 0.000004 -0.004123 -0.088629 -1.857605
 34 24.248116 0.000002 -0.000004 -0.041897 -0.038555 1.378106
 35 26.336975 0.000000 0.000004 -0.357818 0.039092 0.528117
time 31
  0 0.000000 0.000000 0.000000 0.000000 -0.000000 -1.570796
  1 0.000000 0.000000 0.000000 0.000000 -0.000000 0.000000
  2 0.000000 -2.951586 28.070662 -1.570317 0.018466 1.571276
  3 4.222169 -0.467508 0.000000 -0.002069 -0.000668 0.022109
  4 4.476987 -0.000002 -0.000000 0.015327 -0.013331 0.198502
  5 4.477083 0.000000 0.000002 -0.004421 0.028191 -0.067787
  6 4.477077 -0.000004 -0.000002 -0.008694 -0.014598 -0.007866
  7 5.413502 -7.700466 -0.000000 0.000239 0.086655 0.165468
  8 6.890240 0.000002 -0.000000 -0.000324 0.121838 -0.244256
  9 8.011925 0.000004 0.000005 -0.000039 0.104065 -0.173857
 10 7.210720 -0.000002 -0.000000 0.000082 -0.191804 -0.305181
 11 8.581028 -0.304903 -0.000000 -0.010077 -0.176374 0.596424
 12 22.523008 2.194031 6.355708 0.000000 -0.000000 0.000000
 13 22.523005 2.194038 -6.355709 0.000000 -0.000000 0.000000
 14 -3.006533 7.804720 -11.355459 0.266437 0.172920 0.885796
 15 10.384675 0.000008 0.000005 0.007268 0.190979 -1.803110
 16 22.550743 -0.000006 -0.000004 0.124913 0.013507 1.915788
 17 30.814247 -0.000015 -0.000004 2.608670 0.207214 0.545341
 18 -3.013796 7.815494 11.355459 -0.228739 -0.191543 0.892472
 19 10.374533 -0.000002 0.000007 -0.007916 -0.190538 -1.802225
 20 22.550726 -0.000027 -0.000013 -0.124355 -0.013133 1.914976
 21 30.814270 -0.000023 0.000002 -2.628964 -0.165934 0.557233
 22 -4.250660 -0.770624 0.000001 0.000000 0.000000 2.933269
 23 10.363422 0.000000 0.000000 0.000000 -0.000008 -0.331735
 24 10.363076 0.000000 -0.000000 0.000000 0.000009 0.182630
 25 10.363081 -0.000004 -0.000002 -0.000009 -0.000015 0.462128
 26 8.210358 -0.000006 -7.703991 0.000000 0.000000 -0.000000
 27 8.210346 -0.000002 7.704017 0.000000 0.000000 -0.000000
 28 1.854841 1.227791 -13.762345 2.615599 0.105134 1.943828
 29 10.456543 -0.000004 0.000004 0.051155 0.091587 -1.366727
 30 24.248093 0.000001 0.000007 0.029798 0.033156 1.026903
 31 26.336971 0.000019 0.000002 0.369344 -0.038808 0.717823
 32 1.854847 1.227798 13.762341 -2.590322 0.021643 1.641536
 33 10.456542 -0.000008 0.000004 -0.003886 -0.088489 -1.860640
 34 24.248116 0.000002 -0.000004 -0.041949 -0.038843 1.380847
 35 26.336975 0.000000 0.000004 -0.362707 0.038564 0.534899
end
