# Wavefront OBJ file
# Exported by Misfit Model 3D 1.3.8
# Thu Sep 12 10:41:40 2024

# 324 Vertices
v 0.3522 -0.156057 -0.187605
v 0.372359 -0.140762 -0.189929
v 0.370126 -0.15583 -0.19546
v 0.354433 -0.140989 -0.182074
v 0.378259 -0.134324 -0.176278
v 0.360333 -0.134551 -0.168423
v 0.38437 -0.140286 -0.162503
v 0.366444 -0.140513 -0.154648
v 0.387113 -0.155156 -0.156674
v 0.369186 -0.155383 -0.148819
v 0.354942 -0.170929 -0.181777
v 0.3522 -0.156057 -0.187605
v 0.370126 -0.15583 -0.19546
v 0.372869 -0.170702 -0.189631
v 0.361053 -0.17689 -0.168002
v 0.37898 -0.176663 -0.175857
v 0.366954 -0.170452 -0.154351
v 0.38488 -0.170225 -0.162206
v 0.369186 -0.155383 -0.148819
v 0.387113 -0.155156 -0.156674
v 0.369186 -0.155383 -0.148819
v 0.361053 -0.17689 -0.168002
v 0.366954 -0.170452 -0.154351
v 0.354942 -0.170929 -0.181777
v 0.3522 -0.156057 -0.187605
v 0.354433 -0.140989 -0.182074
v 0.360333 -0.134551 -0.168423
v 0.366444 -0.140513 -0.154648
v 0.38488 -0.170225 -0.162206
v 0.38437 -0.140286 -0.162503
v 0.387113 -0.155156 -0.156674
v 0.378259 -0.134324 -0.176278
v 0.372359 -0.140762 -0.189929
v 0.370126 -0.15583 -0.19546
v 0.372869 -0.170702 -0.189631
v 0.37898 -0.176663 -0.175857
v 0.495995 -0.141692 -0.199168
v 0.523135 -0.14123 -0.199127
v 0.523082 -0.142484 -0.203132
v 0.497369 -0.142916 -0.202611
v 0.478875 -0.143407 -0.220305
v 0.475458 -0.142237 -0.218817
v 0.510166 -0.176195 -0.233583
v 0.479248 -0.16536 -0.220087
v 0.478678 -0.165626 -0.245923
v 0.496495 -0.165507 -0.264475
v 0.522208 -0.165074 -0.264997
v 0.540808 -0.16458 -0.247061
v 0.449636 -0.154819 -0.229872
v 0.471368 -0.139782 -0.233005
v 0.469176 -0.154571 -0.238434
v 0.451828 -0.14003 -0.224443
v 0.477159 -0.133462 -0.219606
v 0.457618 -0.13371 -0.211044
v 0.483157 -0.139314 -0.206087
v 0.463616 -0.139562 -0.197525
v 0.485848 -0.153909 -0.200366
v 0.466308 -0.154157 -0.191804
v 0.474824 -0.142533 -0.247507
v 0.496121 -0.143554 -0.264693
v 0.493195 -0.142418 -0.26749
v 0.478305 -0.143673 -0.246141
v 0.475458 -0.142237 -0.218817
v 0.478875 -0.143407 -0.220305
v 0.509411 -0.131796 -0.234024
v 0.540434 -0.142627 -0.247279
v 0.521834 -0.143122 -0.265215
v 0.496121 -0.143554 -0.264693
v 0.478305 -0.143673 -0.246141
v 0.478875 -0.143407 -0.220305
v 0.496121 -0.143554 -0.264693
v 0.522208 -0.165074 -0.264997
v 0.496495 -0.165507 -0.264475
v 0.521834 -0.143122 -0.265215
v 0.540434 -0.142627 -0.247279
v 0.540808 -0.16458 -0.247061
v 0.541272 -0.164318 -0.221466
v 0.540898 -0.142365 -0.221684
v 0.523082 -0.142484 -0.203132
v 0.523456 -0.164437 -0.202914
v 0.478875 -0.143407 -0.220305
v 0.497369 -0.142916 -0.202611
v 0.509411 -0.131796 -0.234024
v 0.523082 -0.142484 -0.203132
v 0.540898 -0.142365 -0.221684
v 0.540434 -0.142627 -0.247279
v 0.518135 -0.175524 -0.230431
v 0.540192 -0.168689 -0.253318
v 0.545556 -0.168476 -0.241068
v 0.513868 -0.175693 -0.240173
v 0.513868 -0.175693 -0.240173
v 0.539675 -0.138344 -0.253619
v 0.540192 -0.168689 -0.253318
v 0.513124 -0.13198 -0.240607
v 0.474824 -0.142533 -0.247507
v 0.493195 -0.142418 -0.26749
v 0.49361 -0.166797 -0.267248
v 0.475239 -0.166911 -0.247265
v 0.475458 -0.142237 -0.218817
v 0.475873 -0.166615 -0.218575
v 0.495995 -0.141692 -0.199168
v 0.49641 -0.166071 -0.198926
v 0.523135 -0.14123 -0.199127
v 0.52355 -0.165608 -0.198885
v 0.496121 -0.143554 -0.264693
v 0.49361 -0.166797 -0.267248
v 0.493195 -0.142418 -0.26749
v 0.496495 -0.165507 -0.264475
v 0.523456 -0.164437 -0.202914
v 0.523135 -0.14123 -0.199127
v 0.52355 -0.165608 -0.198885
v 0.523082 -0.142484 -0.203132
v 0.513124 -0.13198 -0.240607
v 0.54504 -0.138131 -0.24137
v 0.539675 -0.138344 -0.253619
v 0.517391 -0.131811 -0.230865
v 0.540192 -0.168689 -0.253318
v 0.54504 -0.138131 -0.24137
v 0.545556 -0.168476 -0.241068
v 0.539675 -0.138344 -0.253619
v 0.49361 -0.166797 -0.267248
v 0.496495 -0.165507 -0.264475
v 0.478678 -0.165626 -0.245923
v 0.475239 -0.166911 -0.247265
v 0.479248 -0.16536 -0.220087
v 0.475873 -0.166615 -0.218575
v 0.475873 -0.166615 -0.218575
v 0.479248 -0.16536 -0.220087
v 0.497743 -0.164869 -0.202393
v 0.49641 -0.166071 -0.198926
v 0.523456 -0.164437 -0.202914
v 0.52355 -0.165608 -0.198885
v 0.466308 -0.154157 -0.191804
v 0.458326 -0.175267 -0.210632
v 0.464117 -0.168947 -0.197233
v 0.452328 -0.169415 -0.224151
v 0.449636 -0.154819 -0.229872
v 0.451828 -0.14003 -0.224443
v 0.457618 -0.13371 -0.211044
v 0.463616 -0.139562 -0.197525
v 0.483657 -0.168699 -0.205795
v 0.483157 -0.139314 -0.206087
v 0.485848 -0.153909 -0.200366
v 0.477159 -0.133462 -0.219606
v 0.471368 -0.139782 -0.233005
v 0.469176 -0.154571 -0.238434
v 0.471868 -0.169167 -0.232713
v 0.477866 -0.175019 -0.219194
v 0.239226 -0.163992 -0.036247
v 0.22877 -0.168853 0.010546
v 0.216332 -0.163327 -0.005547
v 0.256608 -0.170413 -0.026758
v 0.517391 -0.131811 -0.230865
v 0.513868 -0.175693 -0.240173
v 0.518135 -0.175524 -0.230431
v 0.513124 -0.13198 -0.240607
v 0.517391 -0.131811 -0.230865
v 0.545556 -0.168476 -0.241068
v 0.54504 -0.138131 -0.24137
v 0.518135 -0.175524 -0.230431
v 0.239226 -0.163992 -0.036247
v 0.216332 -0.163327 -0.005547
v 0.216107 -0.150125 -0.005678
v 0.238976 -0.149292 -0.036393
v 0.245148 -0.165057 -0.090721
v 0.244876 -0.149106 -0.09088
v 0.224832 -0.149899 -0.136422
v 0.225104 -0.16585 -0.136264
v 0.18096 -0.166298 -0.168695
v 0.18071 -0.151598 -0.168841
v 0.142638 -0.153034 -0.172685
v 0.142862 -0.166235 -0.172554
v 0.452328 -0.169415 -0.224151
v 0.449636 -0.154819 -0.229872
v 0.469176 -0.154571 -0.238434
v 0.471868 -0.169167 -0.232713
v 0.458326 -0.175267 -0.210632
v 0.477866 -0.175019 -0.219194
v 0.464117 -0.168947 -0.197233
v 0.483657 -0.168699 -0.205795
v 0.466308 -0.154157 -0.191804
v 0.485848 -0.153909 -0.200366
v 0.256608 -0.170413 -0.026758
v 0.228344 -0.143861 0.010298
v 0.22877 -0.168853 0.010546
v 0.256126 -0.142096 -0.027039
v 0.263291 -0.14149 -0.093261
v 0.263812 -0.172089 -0.092957
v 0.238931 -0.142454 -0.148612
v 0.239452 -0.173053 -0.148308
v 0.185792 -0.173216 -0.187733
v 0.18531 -0.144899 -0.188014
v 0.139051 -0.147396 -0.192679
v 0.139476 -0.172388 -0.192431
v 0.541272 -0.164318 -0.221466
v 0.510166 -0.176195 -0.233583
v 0.540808 -0.16458 -0.247061
v 0.523456 -0.164437 -0.202914
v 0.497743 -0.164869 -0.202393
v 0.479248 -0.16536 -0.220087
v 0.255393 -0.143635 -0.144874
v 0.270416 -0.140224 -0.104846
v 0.271503 -0.142291 -0.108069
v 0.252462 -0.14119 -0.145847
v 0.261769 -0.140262 -0.101126
v 0.243878 -0.141186 -0.141983
v 0.259236 -0.142068 -0.102052
v 0.2428 -0.143131 -0.139592
v 0.27482 -0.168339 -0.147667
v 0.470012 -0.166248 -0.228228
v 0.478698 -0.166165 -0.208401
v 0.28734 -0.167837 -0.119081
v 0.256002 -0.171549 -0.14429
v 0.272163 -0.170845 -0.107388
v 0.271503 -0.142291 -0.108069
v 0.27107 -0.173036 -0.104303
v 0.272163 -0.170845 -0.107388
v 0.270416 -0.140224 -0.104846
v 0.262425 -0.173218 -0.10058
v 0.261769 -0.140262 -0.101126
v 0.259882 -0.171364 -0.101425
v 0.259236 -0.142068 -0.102052
v 0.272163 -0.170845 -0.107388
v 0.286934 -0.145349 -0.119355
v 0.271503 -0.142291 -0.108069
v 0.28734 -0.167837 -0.119081
v 0.478283 -0.142063 -0.208653
v 0.478698 -0.166165 -0.208401
v 0.244409 -0.173925 -0.141718
v 0.243322 -0.172129 -0.13924
v 0.243878 -0.141186 -0.141983
v 0.253084 -0.173965 -0.145376
v 0.252462 -0.14119 -0.145847
v 0.185792 -0.173216 -0.187733
v 0.142862 -0.166235 -0.172554
v 0.139476 -0.172388 -0.192431
v 0.18096 -0.166298 -0.168695
v 0.259236 -0.142068 -0.102052
v 0.243322 -0.172129 -0.13924
v 0.259882 -0.171364 -0.101425
v 0.2428 -0.143131 -0.139592
v 0.245148 -0.165057 -0.090721
v 0.239452 -0.173053 -0.148308
v 0.263812 -0.172089 -0.092957
v 0.225104 -0.16585 -0.136264
v 0.139476 -0.172388 -0.192431
v 0.142638 -0.153034 -0.172685
v 0.139051 -0.147396 -0.192679
v 0.142862 -0.166235 -0.172554
v 0.256002 -0.171549 -0.14429
v 0.252462 -0.14119 -0.145847
v 0.255393 -0.143635 -0.144874
v 0.253084 -0.173965 -0.145376
v 0.262425 -0.173218 -0.10058
v 0.259882 -0.171364 -0.101425
v 0.243322 -0.172129 -0.13924
v 0.244409 -0.173925 -0.141718
v 0.27107 -0.173036 -0.104303
v 0.253084 -0.173965 -0.145376
v 0.272163 -0.170845 -0.107388
v 0.256002 -0.171549 -0.14429
v 0.142638 -0.153034 -0.172685
v 0.18531 -0.144899 -0.188014
v 0.139051 -0.147396 -0.192679
v 0.18071 -0.151598 -0.168841
v 0.228344 -0.143861 0.010298
v 0.216332 -0.163327 -0.005547
v 0.22877 -0.168853 0.010546
v 0.216107 -0.150125 -0.005678
v 0.244876 -0.149106 -0.09088
v 0.256126 -0.142096 -0.027039
v 0.263291 -0.14149 -0.093261
v 0.238976 -0.149292 -0.036393
v 0.255393 -0.143635 -0.144874
v 0.27482 -0.168339 -0.147667
v 0.256002 -0.171549 -0.14429
v 0.274383 -0.146036 -0.14802
v 0.470012 -0.166248 -0.228228
v 0.274383 -0.146036 -0.14802
v 0.46977 -0.142414 -0.22809
v 0.27482 -0.168339 -0.147667
v -0.595496 -0.175321 0.250618
v -0.58834 -0.167575 0.267176
v -0.727128 -0.16953 0.308166
v 0.249451 -0.15682 -0.085742
v 0.198435 -0.165594 -0.097003
v 0.239189 -0.164675 -0.115303
v 0.224461 -0.157812 -0.142804
v -0.602908 -0.168153 0.233911
v -0.727128 -0.16953 0.308166
v 0.271503 -0.142291 -0.108069
v 0.274383 -0.146036 -0.14802
v 0.255393 -0.143635 -0.144874
v 0.286934 -0.145349 -0.119355
v 0.46977 -0.142414 -0.22809
v 0.478283 -0.142063 -0.208653
v 0.263291 -0.14149 -0.093261
v 0.224832 -0.149899 -0.136422
v 0.244876 -0.149106 -0.09088
v 0.238931 -0.142454 -0.148612
v 0.185792 -0.173216 -0.187733
v 0.225104 -0.16585 -0.136264
v 0.18096 -0.166298 -0.168695
v 0.239452 -0.173053 -0.148308
v 0.216107 -0.150125 -0.005678
v 0.256126 -0.142096 -0.027039
v 0.238976 -0.149292 -0.036393
v 0.228344 -0.143861 0.010298
v 0.18531 -0.144899 -0.188014
v 0.224832 -0.149899 -0.136422
v 0.238931 -0.142454 -0.148612
v 0.18071 -0.151598 -0.168841
v 0.245148 -0.165057 -0.090721
v 0.256608 -0.170413 -0.026758
v 0.239226 -0.163992 -0.036247
v 0.263812 -0.172089 -0.092957
v -0.59575 -0.160406 0.25047
v -0.602908 -0.168153 0.233911
v -0.727128 -0.16953 0.308166
v 0.19817 -0.150011 -0.097158
v 0.224461 -0.157812 -0.142804
v 0.239167 -0.149897 -0.114927
v 0.249451 -0.15682 -0.085742
v -0.58834 -0.167575 0.267176

# 663 Texture Coordinates
vt 0.241818 0.861917
vt 0.291423 0.82447
vt 0.241818 0.82447
vt 0.241818 0.861917
vt 0.291423 0.861917
vt 0.291423 0.82447
vt 0.291423 0.861917
vt 0.341026 0.82447
vt 0.291423 0.82447
vt 0.291423 0.861917
vt 0.341026 0.861917
vt 0.341026 0.82447
vt 0.341026 0.861917
vt 0.39063 0.82447
vt 0.341026 0.82447
vt 0.341026 0.861917
vt 0.39063 0.861917
vt 0.39063 0.82447
vt 0.39063 0.861917
vt 0.440235 0.82447
vt 0.39063 0.82447
vt 0.39063 0.861917
vt 0.440235 0.861917
vt 0.440235 0.82447
vt 0.291423 0.861917
vt 0.241818 0.861917
vt 0.241818 0.82447
vt 0.291423 0.861917
vt 0.241818 0.82447
vt 0.291423 0.82447
vt 0.341026 0.861917
vt 0.291423 0.861917
vt 0.291423 0.82447
vt 0.341026 0.861917
vt 0.291423 0.82447
vt 0.341026 0.82447
vt 0.39063 0.861917
vt 0.341026 0.861917
vt 0.341026 0.82447
vt 0.39063 0.861917
vt 0.341026 0.82447
vt 0.39063 0.82447
vt 0.440235 0.861917
vt 0.39063 0.861917
vt 0.39063 0.82447
vt 0.440235 0.861917
vt 0.39063 0.82447
vt 0.440235 0.82447
vt 0.351972 0.504957
vt 0.403803 0.491248
vt 0.388622 0.500942
vt 0.351972 0.504957
vt 0.388622 0.481555
vt 0.403803 0.491248
vt 0.351972 0.504957
vt 0.351972 0.477539
vt 0.388622 0.481555
vt 0.351972 0.504957
vt 0.315322 0.481555
vt 0.351972 0.477539
vt 0.351972 0.504957
vt 0.300141 0.491248
vt 0.315322 0.481555
vt 0.351972 0.504957
vt 0.315322 0.500942
vt 0.300141 0.491248
vt 0.388622 0.500942
vt 0.315322 0.500942
vt 0.351972 0.504957
vt 0.388622 0.500942
vt 0.300141 0.491248
vt 0.315322 0.500942
vt 0.388622 0.500942
vt 0.315322 0.481555
vt 0.300141 0.491248
vt 0.388622 0.500942
vt 0.351972 0.477539
vt 0.315322 0.481555
vt 0.388622 0.500942
vt 0.388622 0.481555
vt 0.351972 0.477539
vt 0.388622 0.500942
vt 0.403803 0.491248
vt 0.388622 0.481555
vt 0.365325 0.888623
vt 0.428814 0.927066
vt 0.406994 0.929382
vt 0.365325 0.888623
vt 0.406994 0.929382
vt 0.349895 0.892561
vt 0.365325 0.888623
vt 0.349895 0.892561
vt 0.212047 0.877309
vt 0.365325 0.888623
vt 0.212047 0.877309
vt 0.212047 0.87174
vt 0.223879 0.934657
vt 0.223879 0.888755
vt 0.34539 0.9022
vt 0.223879 0.934657
vt 0.34539 0.9022
vt 0.395722 0.934657
vt 0.34539 0.967115
vt 0.223879 0.934657
vt 0.395722 0.934657
vt 0.223879 0.984091
vt 0.223879 0.934657
vt 0.34539 0.967115
vt 0.241818 0.861917
vt 0.291423 0.82447
vt 0.241818 0.82447
vt 0.241818 0.861917
vt 0.291423 0.861917
vt 0.291423 0.82447
vt 0.291423 0.861917
vt 0.341026 0.82447
vt 0.291423 0.82447
vt 0.291423 0.861917
vt 0.341026 0.861917
vt 0.341026 0.82447
vt 0.341026 0.861917
vt 0.39063 0.82447
vt 0.341026 0.82447
vt 0.341026 0.861917
vt 0.39063 0.861917
vt 0.39063 0.82447
vt 0.39063 0.861917
vt 0.440235 0.82447
vt 0.39063 0.82447
vt 0.39063 0.861917
vt 0.440235 0.861917
vt 0.440235 0.82447
vt 0.365325 0.888623
vt 0.406994 0.929382
vt 0.428814 0.927066
vt 0.365325 0.888623
vt 0.349895 0.892561
vt 0.406994 0.929382
vt 0.349895 0.892561
vt 0.365325 0.888623
vt 0.212047 0.87174
vt 0.349895 0.892561
vt 0.212047 0.87174
vt 0.212047 0.877309
vt 0.223879 0.934657
vt 0.223879 0.984091
vt 0.34539 0.967115
vt 0.395722 0.934657
vt 0.223879 0.934657
vt 0.34539 0.967115
vt 0.395722 0.934657
vt 0.34539 0.9022
vt 0.223879 0.934657
vt 0.223879 0.934657
vt 0.34539 0.9022
vt 0.223879 0.888755
vt 0.706021 0.442353
vt 0.513671 0.498622
vt 0.513852 0.442353
vt 0.706021 0.442353
vt 0.705797 0.498628
vt 0.513671 0.498622
vt 0.7054 0.55519
vt 0.513671 0.498622
vt 0.705797 0.498628
vt 0.7054 0.55519
vt 0.513882 0.55519
vt 0.513671 0.498622
vt 0.7054 0.55519
vt 0.513668 0.611225
vt 0.513882 0.55519
vt 0.7054 0.55519
vt 0.705801 0.611219
vt 0.513668 0.611225
vt 0.706022 0.667494
vt 0.513668 0.611225
vt 0.705801 0.611219
vt 0.706022 0.667494
vt 0.513851 0.667493
vt 0.513668 0.611225
vt 0.223879 0.888755
vt 0.34539 0.9022
vt 0.223879 0.934657
vt 0.395722 0.934657
vt 0.223879 0.934657
vt 0.34539 0.9022
vt 0.223879 0.934657
vt 0.395722 0.934657
vt 0.34539 0.967115
vt 0.223879 0.934657
vt 0.34539 0.967115
vt 0.223879 0.984091
vt 0.517432 0.57594
vt 0.702336 0.672745
vt 0.517432 0.672744
vt 0.517432 0.57594
vt 0.702336 0.575939
vt 0.702336 0.672745
vt 0.696001 0.614575
vt 0.519946 0.67236
vt 0.696001 0.67236
vt 0.696001 0.614575
vt 0.519946 0.614575
vt 0.519946 0.67236
vt 0.696241 0.501501
vt 0.696063 0.446732
vt 0.527296 0.446733
vt 0.696241 0.501501
vt 0.527296 0.446733
vt 0.52751 0.501511
vt 0.52751 0.501511
vt 0.696075 0.55655
vt 0.696241 0.501501
vt 0.52751 0.501511
vt 0.527853 0.55655
vt 0.696075 0.55655
vt 0.696244 0.611081
vt 0.696075 0.55655
vt 0.527853 0.55655
vt 0.696244 0.611081
vt 0.527853 0.55655
vt 0.527509 0.611072
vt 0.527509 0.611072
vt 0.696064 0.66585
vt 0.696244 0.611081
vt 0.527509 0.611072
vt 0.527296 0.665849
vt 0.696064 0.66585
vt 0.51236 0.670026
vt 0.578716 0.6118
vt 0.578716 0.673075
vt 0.51236 0.670026
vt 0.51236 0.614849
vt 0.578716 0.6118
vt 0.512424 0.614849
vt 0.578652 0.673075
vt 0.578652 0.6118
vt 0.512424 0.614849
vt 0.512425 0.670026
vt 0.578652 0.673075
vt 0.517432 0.57594
vt 0.702336 0.672745
vt 0.517432 0.672744
vt 0.517432 0.57594
vt 0.702336 0.575939
vt 0.702336 0.672745
vt 0.701728 0.505354
vt 0.517681 0.578029
vt 0.517681 0.505354
vt 0.701728 0.505354
vt 0.701728 0.578029
vt 0.517681 0.578029
vt 0.428814 0.927066
vt 0.406994 0.929382
vt 0.349895 0.892561
vt 0.428814 0.927066
vt 0.349895 0.892561
vt 0.365325 0.888623
vt 0.212047 0.877309
vt 0.365325 0.888623
vt 0.349895 0.892561
vt 0.212047 0.877309
vt 0.212047 0.87174
vt 0.365325 0.888623
vt 0.212047 0.87174
vt 0.212047 0.877309
vt 0.349895 0.892561
vt 0.212047 0.87174
vt 0.349895 0.892561
vt 0.365325 0.888623
vt 0.406994 0.929382
vt 0.365325 0.888623
vt 0.349895 0.892561
vt 0.406994 0.929382
vt 0.428814 0.927066
vt 0.365325 0.888623
vt 0.351972 0.504957
vt 0.403803 0.491248
vt 0.388622 0.500942
vt 0.351972 0.504957
vt 0.388622 0.481555
vt 0.403803 0.491248
vt 0.351972 0.504957
vt 0.351972 0.477539
vt 0.388622 0.481555
vt 0.351972 0.504957
vt 0.315322 0.481555
vt 0.351972 0.477539
vt 0.351972 0.504957
vt 0.300141 0.491248
vt 0.315322 0.481555
vt 0.351972 0.504957
vt 0.315322 0.500942
vt 0.300141 0.491248
vt 0.388622 0.500942
vt 0.315322 0.500942
vt 0.351972 0.504957
vt 0.388622 0.500942
vt 0.300141 0.491248
vt 0.315322 0.500942
vt 0.388622 0.500942
vt 0.315322 0.481555
vt 0.300141 0.491248
vt 0.388622 0.500942
vt 0.351972 0.477539
vt 0.315322 0.481555
vt 0.388622 0.500942
vt 0.388622 0.481555
vt 0.351972 0.477539
vt 0.388622 0.500942
vt 0.403803 0.491248
vt 0.388622 0.481555
vt 0.52185 0.537478
vt 0.707712 0.440101
vt 0.52185 0.440101
vt 0.52185 0.537478
vt 0.707712 0.536473
vt 0.707712 0.440101
vt 0.300141 0.491248
vt 0.403803 0.491248
vt 0.388622 0.500942
vt 0.300141 0.491248
vt 0.315322 0.481555
vt 0.403803 0.491248
vt 0.696001 0.614575
vt 0.519946 0.67236
vt 0.696001 0.67236
vt 0.696001 0.614575
vt 0.519946 0.614575
vt 0.519946 0.67236
vt 0.66012 0.628619
vt 0.66012 0.665844
vt 0.563841 0.665844
vt 0.66012 0.628619
vt 0.563841 0.665844
vt 0.563841 0.628619
vt 0.563841 0.628619
vt 0.66012 0.57822
vt 0.66012 0.628619
vt 0.563841 0.628619
vt 0.563841 0.57822
vt 0.66012 0.57822
vt 0.66012 0.57822
vt 0.563841 0.57822
vt 0.563841 0.527432
vt 0.66012 0.57822
vt 0.563841 0.527432
vt 0.66012 0.527432
vt 0.66012 0.477035
vt 0.66012 0.527432
vt 0.563841 0.527432
vt 0.66012 0.477035
vt 0.563841 0.527432
vt 0.563841 0.477035
vt 0.563841 0.439811
vt 0.66012 0.477035
vt 0.563841 0.477035
vt 0.563841 0.439811
vt 0.66012 0.439811
vt 0.66012 0.477035
vt 0.291423 0.861917
vt 0.241818 0.861917
vt 0.241818 0.82447
vt 0.291423 0.861917
vt 0.241818 0.82447
vt 0.291423 0.82447
vt 0.341026 0.861917
vt 0.291423 0.861917
vt 0.291423 0.82447
vt 0.341026 0.861917
vt 0.291423 0.82447
vt 0.341026 0.82447
vt 0.39063 0.861917
vt 0.341026 0.861917
vt 0.341026 0.82447
vt 0.39063 0.861917
vt 0.341026 0.82447
vt 0.39063 0.82447
vt 0.440235 0.861917
vt 0.39063 0.861917
vt 0.39063 0.82447
vt 0.440235 0.861917
vt 0.39063 0.82447
vt 0.440235 0.82447
vt 0.490853 0.229564
vt 0.293933 0.275115
vt 0.490853 0.275115
vt 0.490853 0.229564
vt 0.293933 0.229564
vt 0.293933 0.275115
vt 0.293933 0.16916
vt 0.293933 0.229564
vt 0.490853 0.229564
vt 0.293933 0.16916
vt 0.490853 0.229564
vt 0.490853 0.16916
vt 0.490853 0.16916
vt 0.293933 0.109374
vt 0.293933 0.16916
vt 0.490853 0.16916
vt 0.490853 0.109374
vt 0.293933 0.109374
vt 0.293933 0.109374
vt 0.490853 0.109374
vt 0.490853 0.048998
vt 0.293933 0.109374
vt 0.490853 0.048998
vt 0.293933 0.048998
vt 0.490853 0.048998
vt 0.293933 0.003454
vt 0.293933 0.048998
vt 0.490853 0.048998
vt 0.490853 0.003454
vt 0.293933 0.003454
vt 0.34539 0.967115
vt 0.223879 0.934657
vt 0.223879 0.984091
vt 0.223879 0.934657
vt 0.34539 0.967115
vt 0.395722 0.934657
vt 0.395722 0.934657
vt 0.34539 0.9022
vt 0.223879 0.934657
vt 0.223879 0.888755
vt 0.223879 0.934657
vt 0.34539 0.9022
vt 0.312934 0.6216
vt 0.432229 0.623634
vt 0.425117 0.6216
vt 0.312934 0.6216
vt 0.307274 0.623634
vt 0.432229 0.623634
vt 0.432057 0.632087
vt 0.432229 0.623634
vt 0.307274 0.623634
vt 0.432057 0.632087
vt 0.307274 0.623634
vt 0.307541 0.632087
vt 0.307541 0.632087
vt 0.426772 0.633855
vt 0.432057 0.632087
vt 0.307541 0.632087
vt 0.312359 0.633855
vt 0.426772 0.633855
vt 0.31596 0.613472
vt 0.33185 0.559023
vt 0.406134 0.559023
vt 0.31596 0.613472
vt 0.406134 0.559023
vt 0.423922 0.613472
vt 0.313869 0.621181
vt 0.31596 0.613472
vt 0.423922 0.613472
vt 0.313869 0.621181
vt 0.423922 0.613472
vt 0.426325 0.621181
vt 0.425117 0.6216
vt 0.432893 0.623634
vt 0.426325 0.6216
vt 0.425117 0.6216
vt 0.432229 0.623634
vt 0.432893 0.623634
vt 0.432724 0.632087
vt 0.432893 0.623634
vt 0.432229 0.623634
vt 0.432724 0.632087
vt 0.432229 0.623634
vt 0.432057 0.632087
vt 0.427798 0.633855
vt 0.432724 0.632087
vt 0.432057 0.632087
vt 0.427798 0.633855
vt 0.432057 0.632087
vt 0.426772 0.633855
vt 0.426325 0.621181
vt 0.423736 0.613472
vt 0.425117 0.621181
vt 0.426325 0.621181
vt 0.423922 0.613472
vt 0.423736 0.613472
vt 0.406105 0.559023
vt 0.423736 0.613472
vt 0.423922 0.613472
vt 0.406105 0.559023
vt 0.423922 0.613472
vt 0.406134 0.559023
vt 0.307356 0.632087
vt 0.312557 0.633855
vt 0.312359 0.633855
vt 0.307356 0.632087
vt 0.312359 0.633855
vt 0.307541 0.632087
vt 0.307541 0.632087
vt 0.307717 0.623634
vt 0.307356 0.632087
vt 0.307541 0.632087
vt 0.307274 0.623634
vt 0.307717 0.623634
vt 0.707712 0.536473
vt 0.52185 0.440101
vt 0.707712 0.440101
vt 0.707712 0.536473
vt 0.52185 0.537478
vt 0.52185 0.440101
vt 0.309557 0.664322
vt 0.430021 0.632717
vt 0.429706 0.664606
vt 0.309557 0.664322
vt 0.310755 0.632663
vt 0.430021 0.632717
vt 0.513216 0.667078
vt 0.682595 0.600392
vt 0.705357 0.667564
vt 0.513216 0.667078
vt 0.550106 0.598138
vt 0.682595 0.600392
vt 0.424024 0.311391
vt 0.334112 0.287891
vt 0.281748 0.311391
vt 0.424024 0.311391
vt 0.371661 0.287891
vt 0.334112 0.287891
vt 0.313869 0.6216
vt 0.307274 0.623634
vt 0.312934 0.6216
vt 0.313869 0.6216
vt 0.307717 0.623634
vt 0.307274 0.623634
vt 0.432724 0.632087
vt 0.427798 0.633855
vt 0.312557 0.633855
vt 0.432724 0.632087
vt 0.312557 0.633855
vt 0.307356 0.632087
vt 0.307356 0.632087
vt 0.432893 0.623634
vt 0.432724 0.632087
vt 0.307356 0.632087
vt 0.307717 0.623634
vt 0.432893 0.623634
vt 0.426325 0.6216
vt 0.432893 0.623634
vt 0.307717 0.623634
vt 0.426325 0.6216
vt 0.307717 0.623634
vt 0.313869 0.6216
vt 0.52185 0.440101
vt 0.707712 0.536473
vt 0.707712 0.440101
vt 0.52185 0.440101
vt 0.52185 0.537478
vt 0.707712 0.536473
vt 0.281748 0.311391
vt 0.371661 0.287891
vt 0.424024 0.311391
vt 0.281748 0.311391
vt 0.334112 0.287891
vt 0.371661 0.287891
vt 0.52185 0.628974
vt 0.707712 0.536473
vt 0.707712 0.628282
vt 0.52185 0.628974
vt 0.52185 0.537478
vt 0.707712 0.536473
vt 0.312934 0.621181
vt 0.31596 0.613472
vt 0.313869 0.621181
vt 0.312934 0.621181
vt 0.315492 0.613472
vt 0.31596 0.613472
vt 0.33185 0.559023
vt 0.315492 0.613472
vt 0.332585 0.559023
vt 0.33185 0.559023
vt 0.31596 0.613472
vt 0.315492 0.613472
vt 0.131015 0.837812
vt 0.195966 0.837813
vt 0.130327 0.991333
vt 0.131015 0.837812
vt 0.26752 0.0047
vt 0.195966 0.837813
vt 0.131015 0.837812
vt 0.134155 0.049935
vt 0.26752 0.0047
vt 0.134155 0.049935
vt 0.139543 0.002164
vt 0.26752 0.0047
vt 0.139543 0.002164
vt 0.134155 0.049935
vt 0.012912 0.0047
vt 0.066002 0.837813
vt 0.012912 0.0047
vt 0.134155 0.049935
vt 0.066002 0.837813
vt 0.134155 0.049935
vt 0.131015 0.837812
vt 0.066002 0.837813
vt 0.131015 0.837812
vt 0.130327 0.991333
vt 0.425117 0.621181
vt 0.315492 0.613472
vt 0.312934 0.621181
vt 0.425117 0.621181
vt 0.423736 0.613472
vt 0.315492 0.613472
vt 0.332585 0.559023
vt 0.315492 0.613472
vt 0.423736 0.613472
vt 0.332585 0.559023
vt 0.423736 0.613472
vt 0.406105 0.559023
vt 0.700972 0.618597
vt 0.539746 0.656279
vt 0.53876 0.618057
vt 0.700972 0.618597
vt 0.706884 0.656326
vt 0.539746 0.656279
vt 0.707712 0.536473
vt 0.52185 0.628974
vt 0.52185 0.537478
vt 0.707712 0.536473
vt 0.707712 0.628282
vt 0.52185 0.628974
vt 0.52185 0.440101
vt 0.707712 0.536473
vt 0.52185 0.537478
vt 0.52185 0.440101
vt 0.707712 0.440101
vt 0.707712 0.536473
vt 0.707712 0.536473
vt 0.52185 0.628974
vt 0.707712 0.628282
vt 0.707712 0.536473
vt 0.52185 0.537478
vt 0.52185 0.628974
vt 0.52185 0.628974
vt 0.707712 0.536473
vt 0.52185 0.537478
vt 0.52185 0.628974
vt 0.707712 0.628282
vt 0.707712 0.536473
vt 0.131015 0.837812
vt 0.195966 0.837813
vt 0.130327 0.991333
vt 0.195966 0.837813
vt 0.131015 0.837812
vt 0.134155 0.049935
vt 0.195966 0.837813
vt 0.134155 0.049935
vt 0.26752 0.0047
vt 0.26752 0.0047
vt 0.134155 0.049935
vt 0.138557 0.002164
vt 0.138557 0.002164
vt 0.134155 0.049935
vt 0.012912 0.0047
vt 0.012912 0.0047
vt 0.134155 0.049935
vt 0.131015 0.837812
vt 0.012912 0.0047
vt 0.131015 0.837812
vt 0.066002 0.837813

# 663 Vertex Normals
vn -0.377108 0.367884 -0.849971
vn -0.377108 0.367884 -0.849971
vn -0.377108 0.367885 -0.849971
vn -0.377108 0.367884 -0.849971
vn -0.377108 0.367884 -0.849971
vn -0.377108 0.367884 -0.849971
vn -0.169208 0.917624 -0.359632
vn -0.071707 0.988236 -0.135084
vn -0.169208 0.917624 -0.359633
vn -0.169208 0.917624 -0.359632
vn 0.038012 0.992588 0.115433
vn -0.071707 0.988236 -0.135084
vn 0.038012 0.992588 0.115433
vn 0.228611 0.806648 0.545029
vn -0.071707 0.988236 -0.135084
vn 0.038012 0.992588 0.115433
vn 0.309486 0.616345 0.724111
vn 0.228611 0.806648 0.545029
vn 0.309486 0.616345 0.724111
vn 0.364071 0.397349 0.842358
vn 0.228611 0.806648 0.545029
vn 0.309486 0.616345 0.724111
vn 0.364065 0.397339 0.842365
vn 0.364071 0.397349 0.842358
vn -0.364064 -0.397279 -0.842393
vn -0.364099 -0.397245 -0.842394
vn -0.364064 -0.397279 -0.842393
vn -0.364064 -0.397279 -0.842393
vn -0.364064 -0.397279 -0.842393
vn -0.364029 -0.397314 -0.842392
vn -0.037993 -0.992591 -0.11541
vn -0.137738 -0.92982 -0.341266
vn -0.13775 -0.929816 -0.341272
vn -0.037993 -0.992591 -0.11541
vn -0.13775 -0.929816 -0.341272
vn 0.071709 -0.988235 0.135091
vn 0.169202 -0.917626 0.35963
vn -0.037993 -0.992591 -0.11541
vn 0.071709 -0.988235 0.135091
vn 0.169202 -0.917626 0.35963
vn 0.071709 -0.988235 0.135091
vn 0.169208 -0.917624 0.359632
vn 0.377096 -0.367901 0.849969
vn 0.377107 -0.36789 0.849969
vn 0.377096 -0.367901 0.849969
vn 0.377096 -0.367901 0.849969
vn 0.377096 -0.367901 0.849969
vn 0.377086 -0.367912 0.849969
vn -0.915865 -0.011605 0.401318
vn -0.915849 -0.011649 0.401353
vn -0.915823 -0.011712 0.401412
vn -0.915865 -0.011605 0.401318
vn -0.915874 -0.011594 0.401298
vn -0.915849 -0.011649 0.401353
vn -0.915865 -0.011605 0.401318
vn -0.915873 -0.01159 0.401301
vn -0.915874 -0.011594 0.401298
vn -0.915865 -0.011605 0.401318
vn -0.915873 -0.011576 0.401301
vn -0.915873 -0.01159 0.401301
vn -0.915865 -0.011605 0.401318
vn -0.915874 -0.011577 0.401299
vn -0.915873 -0.011576 0.401301
vn -0.915865 -0.011605 0.401318
vn -0.915875 -0.011579 0.401297
vn -0.915874 -0.011577 0.401299
vn 0.915867 0.011612 -0.401315
vn 0.915868 0.011621 -0.401311
vn 0.915856 0.01162 -0.401339
vn 0.915867 0.011612 -0.401315
vn 0.915874 0.011614 -0.401298
vn 0.915868 0.011621 -0.401311
vn 0.915867 0.011612 -0.401315
vn 0.915864 0.011598 -0.401321
vn 0.915874 0.011614 -0.401298
vn 0.915867 0.011612 -0.401315
vn 0.915864 0.01161 -0.401321
vn 0.915864 0.011598 -0.401321
vn 0.915867 0.011612 -0.401315
vn 0.915867 0.011617 -0.401313
vn 0.915864 0.01161 -0.401321
vn 0.915867 0.011612 -0.401315
vn 0.915868 0.011604 -0.401313
vn 0.915867 0.011617 -0.401313
vn 0.098268 0.95268 -0.287654
vn -0.015793 0.954256 -0.298575
vn -0.019265 0.946939 -0.320837
vn 0.098268 0.95268 -0.287654
vn -0.019265 0.946939 -0.320837
vn 0.096556 0.949365 -0.298969
vn 0.098268 0.95268 -0.287654
vn 0.096556 0.949365 -0.298969
vn 0.2143 0.944185 -0.250182
vn 0.098268 0.95268 -0.287654
vn 0.2143 0.944185 -0.250182
vn 0.214333 0.94417 -0.250208
vn -0.075539 -0.976747 -0.200645
vn -0.324102 -0.945871 0.016889
vn -0.279012 -0.954471 -0.105532
vn -0.075539 -0.976747 -0.200645
vn -0.279012 -0.954471 -0.105532
vn -0.110929 -0.953349 -0.280749
vn 0.131783 -0.949264 -0.285536
vn -0.075539 -0.976747 -0.200645
vn -0.110929 -0.953349 -0.280749
vn 0.252132 -0.93857 -0.235617
vn -0.075539 -0.976747 -0.200645
vn 0.131783 -0.949264 -0.285536
vn -0.377104 0.367912 -0.849961
vn -0.330046 0.590944 -0.736108
vn -0.377104 0.367913 -0.849961
vn -0.377104 0.367912 -0.849961
vn -0.255755 0.787404 -0.560878
vn -0.330046 0.590944 -0.736108
vn -0.255755 0.787404 -0.560878
vn -0.169242 0.917602 -0.359672
vn -0.330046 0.590944 -0.736108
vn -0.255755 0.787404 -0.560878
vn -0.169241 0.9176 -0.359678
vn -0.169242 0.917602 -0.359672
vn 0.137766 0.929784 0.341354
vn 0.22859 0.806623 0.545074
vn 0.137766 0.929784 0.341354
vn 0.137766 0.929784 0.341354
vn 0.309469 0.616325 0.724136
vn 0.22859 0.806623 0.545074
vn 0.309469 0.616325 0.724136
vn 0.364057 0.397332 0.842372
vn 0.22859 0.806623 0.545074
vn 0.309469 0.616325 0.724136
vn 0.364062 0.397342 0.842364
vn 0.364057 0.397332 0.842372
vn 0.247466 0.96 0.130998
vn 0.210139 0.956237 0.203597
vn 0.196138 0.962802 0.185858
vn 0.247466 0.96 0.130998
vn 0.288269 0.955474 0.063016
vn 0.210139 0.956237 0.203597
vn 0.288269 0.955474 0.063016
vn 0.247466 0.96 0.130998
vn 0.317241 0.948197 -0.016777
vn 0.288269 0.955474 0.063016
vn 0.317241 0.948197 -0.016777
vn 0.317356 0.948158 -0.016763
vn -0.108661 0.969438 -0.21996
vn 0.220143 0.941742 -0.254283
vn 0.099508 0.947344 -0.304364
vn -0.143212 0.943264 -0.299573
vn -0.108661 0.969438 -0.21996
vn 0.099508 0.947344 -0.304364
vn -0.143212 0.943264 -0.299573
vn -0.311293 0.942143 -0.12435
vn -0.108661 0.969438 -0.21996
vn -0.108661 0.969438 -0.21996
vn -0.311293 0.942143 -0.12435
vn -0.356106 0.934444 -0.001765
vn -0.020124 -0.010271 -0.999745
vn -0.020124 -0.010271 -0.999745
vn -0.020124 -0.010271 -0.999745
vn -0.020124 -0.010271 -0.999745
vn -0.020124 -0.010271 -0.999745
vn -0.020124 -0.010271 -0.999745
vn 0.694069 0.004675 -0.719893
vn 0.694069 0.004675 -0.719893
vn 0.69407 0.004674 -0.719893
vn 0.694069 0.004675 -0.719893
vn 0.694069 0.004676 -0.719894
vn 0.694069 0.004675 -0.719893
vn 0.999691 0.016849 -0.018295
vn 0.930891 0.01948 0.364777
vn 0.999691 0.01685 -0.018294
vn 0.999691 0.016849 -0.018295
vn 0.930891 0.019479 0.364777
vn 0.930891 0.01948 0.364777
vn 0.721075 0.019161 0.692592
vn 0.930891 0.01948 0.364777
vn 0.930891 0.019479 0.364777
vn 0.721075 0.019161 0.692592
vn 0.721075 0.019161 0.692592
vn 0.930891 0.01948 0.364777
vn -0.250862 0.938776 0.236154
vn -0.131119 0.949284 0.285777
vn 0.075742 0.976641 0.201084
vn 0.110945 0.95335 0.280741
vn 0.075742 0.976641 0.201084
vn -0.131119 0.949284 0.285777
vn 0.075742 0.976641 0.201084
vn 0.110945 0.95335 0.280741
vn 0.278761 0.954471 0.106194
vn 0.075742 0.976641 0.201084
vn 0.278761 0.954471 0.106194
vn 0.323647 0.94605 -0.015552
vn 0.219241 -0.972457 -0.079125
vn 0.219241 -0.972457 -0.079125
vn 0.219264 -0.972454 -0.079102
vn 0.219241 -0.972457 -0.079125
vn 0.219219 -0.97246 -0.079148
vn 0.219241 -0.972457 -0.079125
vn -0.443186 -0.016441 -0.896279
vn -0.443186 -0.016441 -0.896279
vn -0.443186 -0.01644 -0.896279
vn -0.443186 -0.016441 -0.896279
vn -0.443185 -0.016441 -0.896279
vn -0.443186 -0.016441 -0.896279
vn -0.880251 -0.019691 -0.4741
vn -0.735985 -0.019246 -0.676725
vn -0.735985 -0.019246 -0.676724
vn -0.880251 -0.019691 -0.4741
vn -0.735985 -0.019246 -0.676724
vn -0.974141 -0.018818 -0.225157
vn -0.974141 -0.018818 -0.225157
vn -0.961583 -0.013648 0.274177
vn -0.880251 -0.019691 -0.4741
vn -0.974141 -0.018818 -0.225157
vn -0.85137 -0.009287 0.524483
vn -0.961583 -0.013648 0.274177
vn -0.492627 0.000252 0.870241
vn -0.961583 -0.013648 0.274177
vn -0.85137 -0.009287 0.524483
vn -0.492627 0.000252 0.870241
vn -0.85137 -0.009287 0.524483
vn -0.24721 0.00541 0.968947
vn -0.24721 0.00541 0.968947
vn -0.001679 0.009898 0.99995
vn -0.492627 0.000252 0.870241
vn -0.24721 0.00541 0.968947
vn -0.00168 0.009898 0.99995
vn -0.001679 0.009898 0.99995
vn 0.691908 0.004615 -0.721971
vn 0.691908 0.004615 -0.721971
vn 0.691925 0.004612 -0.721955
vn 0.691908 0.004615 -0.721971
vn 0.691892 0.004618 -0.721986
vn 0.691908 0.004615 -0.721971
vn 0.999688 0.01684 -0.018469
vn 0.999688 0.01684 -0.018469
vn 0.999688 0.016834 -0.018431
vn 0.999688 0.01684 -0.018469
vn 0.999687 0.016845 -0.018506
vn 0.999688 0.01684 -0.018469
vn 0.186052 0.977593 -0.098471
vn 0.186052 0.977593 -0.098471
vn 0.186051 0.977591 -0.09849
vn 0.186052 0.977593 -0.098471
vn 0.186052 0.977595 -0.098452
vn 0.186052 0.977593 -0.098471
vn 0.915874 0.011602 -0.401298
vn 0.915874 0.011602 -0.401298
vn 0.915894 0.011581 -0.401253
vn 0.915874 0.011602 -0.401298
vn 0.915854 0.011623 -0.401343
vn 0.915874 0.011602 -0.401298
vn 0.241874 -0.944748 0.221241
vn 0.224343 -0.951758 0.20935
vn 0.279568 -0.948475 0.149121
vn 0.241874 -0.944748 0.221241
vn 0.279568 -0.948475 0.149121
vn 0.321518 -0.943559 0.079515
vn 0.349328 -0.936999 0.001944
vn 0.321518 -0.943559 0.079515
vn 0.279568 -0.948475 0.149121
vn 0.349328 -0.936999 0.001944
vn 0.3493 -0.937009 0.001949
vn 0.321518 -0.943559 0.079515
vn 0.246383 -0.941132 -0.231441
vn 0.246325 -0.941168 -0.231358
vn 0.168581 -0.949586 -0.264324
vn 0.246383 -0.941132 -0.231441
vn 0.168581 -0.949586 -0.264324
vn 0.091479 -0.95553 -0.280347
vn 0.013063 -0.953227 -0.301972
vn 0.091479 -0.95553 -0.280347
vn 0.168581 -0.949586 -0.264324
vn 0.013063 -0.953227 -0.301972
vn 0.0168 -0.960023 -0.279417
vn 0.091479 -0.95553 -0.280347
vn -0.91587 -0.011623 0.401307
vn -0.915866 -0.011632 0.401316
vn -0.915864 -0.011637 0.40132
vn -0.91587 -0.011623 0.401307
vn -0.915868 -0.011624 0.401311
vn -0.915866 -0.011632 0.401316
vn -0.91587 -0.011623 0.401307
vn -0.915869 -0.011596 0.401309
vn -0.915868 -0.011624 0.401311
vn -0.91587 -0.011623 0.401307
vn -0.915877 -0.011618 0.401291
vn -0.915869 -0.011596 0.401309
vn -0.91587 -0.011623 0.401307
vn -0.915875 -0.011642 0.401295
vn -0.915877 -0.011618 0.401291
vn -0.91587 -0.011623 0.401307
vn -0.915866 -0.011619 0.401316
vn -0.915875 -0.011642 0.401295
vn 0.915872 0.011602 -0.401303
vn 0.915884 0.011597 -0.401276
vn 0.915904 0.011597 -0.401231
vn 0.915872 0.011602 -0.401303
vn 0.915867 0.0116 -0.401315
vn 0.915884 0.011597 -0.401276
vn 0.915872 0.011602 -0.401303
vn 0.915865 0.011591 -0.401319
vn 0.915867 0.0116 -0.401315
vn 0.915872 0.011602 -0.401303
vn 0.915864 0.011599 -0.401322
vn 0.915865 0.011591 -0.401319
vn 0.915872 0.011602 -0.401303
vn 0.915866 0.011618 -0.401315
vn 0.915864 0.011599 -0.401322
vn 0.915872 0.011602 -0.401303
vn 0.915866 0.011617 -0.401316
vn 0.915866 0.011618 -0.401315
vn -0.248098 -0.95629 -0.15478
vn -0.248098 -0.95629 -0.15478
vn -0.231024 -0.961086 -0.151463
vn -0.248098 -0.95629 -0.15478
vn -0.265092 -0.951182 -0.158047
vn -0.248098 -0.95629 -0.15478
vn -0.915852 -0.011603 0.401349
vn -0.915852 -0.011603 0.401349
vn -0.915852 -0.011603 0.401348
vn -0.915852 -0.011603 0.401349
vn -0.915852 -0.011603 0.401349
vn -0.915852 -0.011603 0.401349
vn 0.358189 0.015373 0.933523
vn 0.358189 0.015373 0.933523
vn 0.358199 0.015381 0.933519
vn 0.358189 0.015373 0.933523
vn 0.358179 0.015364 0.933526
vn 0.358189 0.015373 0.933523
vn -0.893722 -0.019659 -0.448191
vn -0.801688 -0.019592 -0.597421
vn -0.801686 -0.01958 -0.597425
vn -0.893722 -0.019659 -0.448191
vn -0.801686 -0.01958 -0.597425
vn -0.959902 -0.01912 -0.279684
vn -0.959902 -0.01912 -0.279684
vn -0.988135 -0.015321 0.152823
vn -0.893722 -0.019659 -0.448191
vn -0.959902 -0.01912 -0.279684
vn -0.988134 -0.015327 0.152828
vn -0.988135 -0.015321 0.152823
vn -0.988135 -0.015321 0.152823
vn -0.988134 -0.015327 0.152828
vn -0.780062 -0.007086 0.625662
vn -0.988135 -0.015321 0.152823
vn -0.780062 -0.007086 0.625662
vn -0.780061 -0.007105 0.625663
vn -0.359069 0.003149 0.933306
vn -0.780061 -0.007105 0.625663
vn -0.780062 -0.007086 0.625662
vn -0.359069 0.003149 0.933306
vn -0.780062 -0.007086 0.625662
vn -0.359072 0.003163 0.933304
vn -0.100758 0.008165 0.994877
vn -0.359069 0.003149 0.933306
vn -0.359072 0.003163 0.933304
vn -0.100758 0.008165 0.994877
vn -0.100759 0.008163 0.994877
vn -0.359069 0.003149 0.933306
vn -0.309479 -0.616318 -0.724137
vn -0.364067 -0.39732 -0.842373
vn -0.364067 -0.397321 -0.842373
vn -0.309479 -0.616318 -0.724137
vn -0.364067 -0.397321 -0.842373
vn -0.2286 -0.806623 -0.54507
vn -0.137772 -0.929784 -0.341352
vn -0.309479 -0.616318 -0.724137
vn -0.2286 -0.806623 -0.54507
vn -0.137772 -0.929784 -0.341352
vn -0.2286 -0.806623 -0.54507
vn -0.137772 -0.929784 -0.341352
vn 0.169244 -0.917604 0.359666
vn 0.169244 -0.917604 0.359666
vn 0.169244 -0.917604 0.359666
vn 0.169244 -0.917604 0.359666
vn 0.169244 -0.917604 0.359666
vn 0.169244 -0.917604 0.359666
vn 0.37711 -0.367869 0.849977
vn 0.37711 -0.367869 0.849977
vn 0.37711 -0.367869 0.849977
vn 0.37711 -0.367869 0.849977
vn 0.37711 -0.367869 0.849977
vn 0.37711 -0.367869 0.849977
vn 0.930628 0.019474 0.365448
vn 0.801677 0.019584 0.597437
vn 0.80168 0.019594 0.597432
vn 0.930628 0.019474 0.365448
vn 0.930627 0.019468 0.36545
vn 0.801677 0.019584 0.597437
vn 0.997787 0.016347 -0.06445
vn 0.930627 0.019468 0.36545
vn 0.930628 0.019474 0.365448
vn 0.997787 0.016347 -0.06445
vn 0.930628 0.019474 0.365448
vn 0.970679 0.014144 -0.239962
vn 0.970679 0.014144 -0.239962
vn 0.780079 0.007068 -0.625641
vn 0.997787 0.016347 -0.06445
vn 0.970679 0.014144 -0.239962
vn 0.780079 0.007067 -0.625641
vn 0.780079 0.007068 -0.625641
vn 0.780079 0.007068 -0.625641
vn 0.780079 0.007067 -0.625641
vn 0.359092 -0.003151 -0.933297
vn 0.780079 0.007068 -0.625641
vn 0.359092 -0.003151 -0.933297
vn 0.359092 -0.003149 -0.933297
vn 0.359092 -0.003151 -0.933297
vn 0.100769 -0.008158 -0.994876
vn 0.359092 -0.003149 -0.933297
vn 0.359092 -0.003151 -0.933297
vn 0.100768 -0.008158 -0.994877
vn 0.100769 -0.008158 -0.994876
vn 0.311031 -0.942141 0.125022
vn 0.108855 -0.969313 0.220417
vn 0.355643 -0.934617 0.003121
vn 0.108855 -0.969313 0.220417
vn 0.311031 -0.942141 0.125022
vn 0.143205 -0.943264 0.299576
vn 0.143205 -0.943264 0.299576
vn -0.098841 -0.947327 0.304634
vn 0.108855 -0.969313 0.220417
vn -0.218826 -0.94189 0.254869
vn 0.108855 -0.969313 0.220417
vn -0.098841 -0.947327 0.304634
vn 0.629615 0.717706 -0.297462
vn 0.444538 0.868681 -0.218584
vn 0.589601 0.755491 -0.285664
vn 0.629615 0.717706 -0.297462
vn 0.667634 0.677647 -0.308317
vn 0.629615 0.717706 -0.297462
vn -0.227358 0.970741 0.07727
vn 0.30833 0.937337 -0.16227
vn -0.010168 0.999775 -0.01863
vn -0.227358 0.970741 0.07727
vn -0.010168 0.999775 -0.01863
vn -0.337415 0.932797 0.126655
vn -0.460265 0.869249 0.180452
vn -0.642079 0.720166 0.262859
vn -0.227358 0.970741 0.07727
vn -0.642079 0.720166 0.262859
vn -0.662129 0.69902 0.270103
vn -0.642079 0.720166 0.262859
vn 0.061304 -0.998024 -0.013794
vn 0.010535 -0.999944 -0.000429
vn 0.012297 -0.999909 0.005486
vn 0.061304 -0.998024 -0.013794
vn 0.012297 -0.999909 0.005486
vn 0.110262 -0.993439 -0.030344
vn 0.157907 -0.986131 -0.051092
vn 0.061304 -0.998024 -0.013794
vn 0.110262 -0.993439 -0.030344
vn 0.157907 -0.986131 -0.051092
vn 0.110262 -0.993439 -0.030344
vn 0.157008 -0.986334 -0.049944
vn 0.943855 0.027038 0.329252
vn 0.943855 0.027038 0.329252
vn 0.935261 0.030029 0.352683
vn 0.943855 0.027038 0.329252
vn 0.951853 0.02403 0.305613
vn 0.943855 0.027038 0.329252
vn 0.169998 0.019705 0.985247
vn 0.39502 0.023072 0.918383
vn 0.395009 0.023075 0.918388
vn 0.169998 0.019705 0.985247
vn 0.395009 0.023075 0.918388
vn -0.09404 0.015959 0.995441
vn -0.330108 0.010954 0.94388
vn 0.169998 0.019705 0.985247
vn -0.09404 0.015959 0.995441
vn -0.330108 0.010954 0.94388
vn -0.09404 0.015959 0.995441
vn -0.351048 0.012298 0.936277
vn 0.600969 0.026774 0.798824
vn 0.544127 0.024189 0.838654
vn 0.594261 0.032901 0.803599
vn 0.600969 0.026774 0.798824
vn 0.486855 0.018787 0.873281
vn 0.544127 0.024189 0.838654
vn 0.422669 0.017712 0.906111
vn 0.544127 0.024189 0.838654
vn 0.486855 0.018787 0.873281
vn 0.422669 0.017712 0.906111
vn 0.486855 0.018787 0.873281
vn 0.422782 0.016754 0.906076
vn -0.787505 -0.018901 -0.616019
vn -0.921147 -0.0213 -0.388632
vn -0.913674 -0.019712 -0.40597
vn -0.787505 -0.018901 -0.616019
vn -0.913674 -0.019712 -0.40597
vn -0.602766 -0.018656 -0.7977
vn -0.602766 -0.018656 -0.7977
vn -0.399504 -0.017326 -0.916568
vn -0.787505 -0.018901 -0.616019
vn -0.602766 -0.018656 -0.7977
vn -0.410389 -0.02089 -0.911671
vn -0.399504 -0.017326 -0.916568
vn -0.041534 -0.947137 0.318131
vn -0.041534 -0.947137 0.318131
vn -0.047729 -0.951863 0.302784
vn -0.041534 -0.947137 0.318131
vn -0.035327 -0.942129 0.333383
vn -0.041534 -0.947137 0.318131
vn -0.915866 -0.011611 0.401316
vn -0.915866 -0.011611 0.401316
vn -0.915868 -0.011606 0.401313
vn -0.915866 -0.011611 0.401316
vn -0.915865 -0.011615 0.401319
vn -0.915866 -0.011611 0.401316
vn -0.330892 -0.929691 0.161817
vn -0.330892 -0.929691 0.161817
vn -0.330892 -0.929691 0.161817
vn -0.330892 -0.929691 0.161817
vn -0.330892 -0.929691 0.161817
vn -0.330892 -0.929691 0.161817
vn -0.984906 -0.01502 0.172438
vn -0.984906 -0.01502 0.172438
vn -0.984903 -0.015037 0.172455
vn -0.984906 -0.01502 0.172438
vn -0.984909 -0.015002 0.172421
vn -0.984906 -0.01502 0.172438
vn 0.329472 -0.010002 -0.944112
vn 0.329472 -0.010002 -0.944112
vn 0.305043 -0.013267 -0.952246
vn 0.329472 -0.010002 -0.944112
vn 0.353679 -0.006729 -0.935343
vn 0.329472 -0.010002 -0.944112
vn -0.428678 -0.880207 0.203645
vn -0.624806 -0.725605 0.288296
vn -0.614234 -0.736725 0.282759
vn -0.428678 -0.880207 0.203645
vn -0.614234 -0.736725 0.282759
vn -0.203814 -0.973045 0.107905
vn -0.203814 -0.973045 0.107905
vn 0.24341 -0.966043 -0.086678
vn -0.428678 -0.880207 0.203645
vn -0.203814 -0.973045 0.107905
vn 0.004157 -0.999775 0.020793
vn 0.014045 -0.999807 0.013748
vn 0.662936 -0.696031 -0.275785
vn 0.365362 -0.919954 -0.142113
vn 0.662936 -0.696031 -0.275785
vn 0.662936 -0.696031 -0.275785
vn 0.662936 -0.696031 -0.275785
vn 0.671935 -0.685151 -0.281198
vn -0.07385 0.951306 0.299272
vn -0.07385 0.951306 0.299272
vn -0.0802 0.955515 0.283829
vn -0.07385 0.951306 0.299272
vn -0.067478 0.946814 0.314626
vn -0.07385 0.951306 0.299272
vn -0.792441 -0.007455 0.609903
vn -0.792441 -0.007455 0.609903
vn -0.79244 -0.007456 0.609904
vn -0.792441 -0.007455 0.609903
vn -0.792442 -0.007454 0.609902
vn -0.792441 -0.007455 0.609903
vn -0.377585 0.925311 -0.035065
vn -0.377585 0.925311 -0.035065
vn -0.385641 0.922048 -0.033287
vn -0.377585 0.925311 -0.035065
vn -0.369498 0.928501 -0.036841
vn -0.377585 0.925311 -0.035065
vn -0.169143 -0.02161 -0.985355
vn -0.169143 -0.02161 -0.985355
vn -0.172554 -0.024366 -0.984699
vn -0.169143 -0.02161 -0.985355
vn -0.165728 -0.018853 -0.985991
vn -0.169143 -0.02161 -0.985355
vn -0.380244 -0.010296 -0.924829
vn -0.380244 -0.010296 -0.924829
vn -0.37922 0.001507 -0.925305
vn -0.380244 -0.010296 -0.924829
vn -0.381215 -0.022097 -0.924222
vn -0.380244 -0.010296 -0.924829
vn 0.018006 -0.997612 0.066675
vn 0.143605 -0.918771 0.367747
vn 0.123984 -0.918287 0.376001
vn 0.018006 -0.997612 0.066675
vn 0.132488 -0.953536 0.270586
vn 0.143605 -0.918771 0.367747
vn 0.018006 -0.997612 0.066675
vn -0.012263 -0.997887 -0.063814
vn 0.132488 -0.953536 0.270586
vn -0.012263 -0.997887 -0.063814
vn 0.024932 -0.999675 0.005322
vn 0.132488 -0.953536 0.270586
vn 0.024932 -0.999675 0.005322
vn -0.012263 -0.997887 -0.063814
vn -0.077795 -0.974643 -0.209807
vn -0.134492 -0.947153 -0.291226
vn -0.077795 -0.974643 -0.209807
vn -0.012263 -0.997887 -0.063814
vn -0.134492 -0.947153 -0.291226
vn -0.012263 -0.997887 -0.063814
vn 0.018006 -0.997612 0.066675
vn -0.134492 -0.947153 -0.291226
vn 0.018006 -0.997612 0.066675
vn -0.180445 -0.930379 -0.319117
vn 0.12313 0.988845 -0.083818
vn 0.074293 0.995397 -0.060535
vn 0.111143 0.990179 -0.084807
vn 0.12313 0.988845 -0.083818
vn 0.030039 0.998932 -0.035117
vn 0.074293 0.995397 -0.060535
vn -0.022643 0.999682 -0.01109
vn 0.074293 0.995397 -0.060535
vn 0.030039 0.998932 -0.035117
vn -0.022643 0.999682 -0.01109
vn 0.030039 0.998932 -0.035117
vn -0.02125 0.999736 -0.008746
vn -0.362325 0.92095 0.143425
vn -0.362325 0.92095 0.143425
vn -0.362335 0.920945 0.143435
vn -0.362325 0.92095 0.143425
vn -0.362315 0.920956 0.143416
vn -0.362325 0.92095 0.143425
vn -0.209445 -0.932744 0.293464
vn -0.209445 -0.932744 0.293464
vn -0.202549 -0.93577 0.28863
vn -0.209445 -0.932744 0.293464
vn -0.216323 -0.929643 0.298274
vn -0.209445 -0.932744 0.293464
vn -0.282805 0.943008 -0.175374
vn -0.282805 0.943008 -0.175374
vn -0.289771 0.937984 -0.190312
vn -0.282805 0.943008 -0.175374
vn -0.275756 0.947753 -0.160384
vn -0.282805 0.943008 -0.175374
vn -0.241144 0.930733 0.27493
vn -0.241144 0.930733 0.27493
vn -0.24788 0.927513 0.279777
vn -0.241144 0.930733 0.27493
vn -0.23439 0.933878 0.27006
vn -0.241144 0.930733 0.27493
vn -0.345885 -0.93813 -0.016584
vn -0.345885 -0.93813 -0.016584
vn -0.33765 -0.941094 -0.018308
vn -0.345885 -0.93813 -0.016584
vn -0.354093 -0.935092 -0.014859
vn -0.345885 -0.93813 -0.016584
vn -0.044633 0.998318 -0.036995
vn -0.16656 0.936047 -0.309956
vn -0.211907 0.917168 -0.337488
vn -0.16656 0.936047 -0.309956
vn -0.044633 0.998318 -0.036995
vn -0.045565 0.995575 -0.082181
vn -0.16656 0.936047 -0.309956
vn -0.045565 0.995575 -0.082181
vn -0.108752 0.967569 -0.227998
vn -0.108752 0.967569 -0.227998
vn -0.045565 0.995575 -0.082181
vn -0.007528 0.999912 -0.010953
vn -0.007528 0.999912 -0.010953
vn -0.045565 0.995575 -0.082181
vn 0.099495 0.962297 0.25315
vn 0.099495 0.962297 0.25315
vn -0.045565 0.995575 -0.082181
vn -0.044633 0.998318 -0.036995
vn 0.099495 0.962297 0.25315
vn -0.044633 0.998318 -0.036995
vn 0.131701 0.930788 0.341011

# 221 Ungrouped triangles

o ungrouped
g ungrouped

f 1/1/1 2/2/2 3/3/3
f 1/4/4 4/5/5 2/6/6
f 4/7/7 5/8/8 2/9/9
f 4/10/10 6/11/11 5/12/12
f 6/13/13 7/14/14 5/15/15
f 6/16/16 8/17/17 7/18/18
f 8/19/19 9/20/20 7/21/21
f 8/22/22 10/23/23 9/24/24
f 11/25/25 12/26/26 13/27/27
f 11/28/28 13/29/29 14/30/30
f 15/31/31 11/32/32 14/33/33
f 15/34/34 14/35/35 16/36/36
f 17/37/37 15/38/38 16/39/39
f 17/40/40 16/41/41 18/42/42
f 19/43/43 17/44/44 18/45/45
f 19/46/46 18/47/47 20/48/48
f 21/49/49 22/50/50 23/51/51
f 21/52/52 24/53/53 22/54/54
f 21/55/55 25/56/56 24/57/57
f 21/58/58 26/59/59 25/60/60
f 21/61/61 27/62/62 26/63/63
f 21/64/64 28/65/65 27/66/66
f 29/67/67 30/68/68 31/69/69
f 29/70/70 32/71/71 30/72/72
f 29/73/73 33/74/74 32/75/75
f 29/76/76 34/77/77 33/78/78
f 29/79/79 35/80/80 34/81/81
f 29/82/82 36/83/83 35/84/84
f 37/85/85 38/86/86 39/87/87
f 37/88/88 39/89/89 40/90/90
f 37/91/91 40/92/92 41/93/93
f 37/94/94 41/95/95 42/96/96
f 43/97/97 44/98/98 45/99/99
f 43/100/100 45/101/101 46/102/102
f 47/103/103 43/104/104 46/105/105
f 48/106/106 43/107/107 47/108/108
f 49/109/109 50/110/110 51/111/111
f 49/112/112 52/113/113 50/114/114
f 52/115/115 53/116/116 50/117/117
f 52/118/118 54/119/119 53/120/120
f 54/121/121 55/122/122 53/123/123
f 54/124/124 56/125/125 55/126/126
f 56/127/127 57/128/128 55/129/129
f 56/130/130 58/131/131 57/132/132
f 59/133/133 60/134/134 61/135/135
f 59/136/136 62/137/137 60/138/138
f 62/139/139 59/140/140 63/141/141
f 62/142/142 63/143/143 64/144/144
f 65/145/145 66/146/146 67/147/147
f 68/148/148 65/149/149 67/150/150
f 68/151/151 69/152/152 65/153/153
f 65/154/154 69/155/155 70/156/156
f 71/157/157 72/158/158 73/159/159
f 71/160/160 74/161/161 72/162/162
f 75/163/163 72/164/164 74/165/165
f 75/166/166 76/167/167 72/168/168
f 75/169/169 77/170/170 76/171/171
f 75/172/172 78/173/173 77/174/174
f 79/175/175 77/176/176 78/177/177
f 79/178/178 80/179/179 77/180/180
f 81/181/181 82/182/182 83/183/183
f 84/184/184 83/185/185 82/186/186
f 83/187/187 84/188/188 85/189/189
f 83/190/190 85/191/191 86/192/192
f 87/193/193 88/194/194 89/195/195
f 87/196/196 90/197/197 88/198/198
f 91/199/199 92/200/200 93/201/201
f 91/202/202 94/203/203 92/204/204
f 95/205/205 96/206/206 97/207/207
f 95/208/208 97/209/209 98/210/210
f 98/211/211 99/212/212 95/213/213
f 98/214/214 100/215/215 99/216/216
f 101/217/217 99/218/218 100/219/219
f 101/220/220 100/221/221 102/222/222
f 102/223/223 103/224/224 101/225/225
f 102/226/226 104/227/227 103/228/228
f 105/229/229 106/230/230 107/231/231
f 105/232/232 108/233/233 106/234/234
f 109/235/235 110/236/236 111/237/237
f 109/238/238 112/239/239 110/240/240
f 113/241/241 114/242/242 115/243/243
f 113/244/244 116/245/245 114/246/246
f 117/247/247 118/248/248 119/249/249
f 117/250/250 120/251/251 118/252/252
f 121/253/253 122/254/254 123/255/255
f 121/256/256 123/257/257 124/258/258
f 125/259/259 124/260/260 123/261/261
f 125/262/262 126/263/263 124/264/264
f 127/265/265 128/266/266 129/267/267
f 127/268/268 129/269/269 130/270/270
f 131/271/271 130/272/272 129/273/273
f 131/274/274 132/275/275 130/276/276
f 133/277/277 134/278/278 135/279/279
f 133/280/280 136/281/281 134/282/282
f 133/283/283 137/284/284 136/285/285
f 133/286/286 138/287/287 137/288/288
f 133/289/289 139/290/290 138/291/291
f 133/292/292 140/293/293 139/294/294
f 141/295/295 142/296/296 143/297/297
f 141/298/298 144/299/299 142/300/300
f 141/301/301 145/302/302 144/303/303
f 141/304/304 146/305/305 145/306/306
f 141/307/307 147/308/308 146/309/309
f 141/310/310 148/311/311 147/312/312
f 149/313/313 150/314/314 151/315/315
f 149/316/316 152/317/317 150/318/318
f 153/319/319 154/320/320 155/321/321
f 153/322/322 156/323/323 154/324/324
f 157/325/325 158/326/326 159/327/327
f 157/328/328 160/329/329 158/330/330
f 161/331/331 162/332/332 163/333/333
f 161/334/334 163/335/335 164/336/336
f 164/337/337 165/338/338 161/339/339
f 164/340/340 166/341/341 165/342/342
f 165/343/343 166/344/344 167/345/345
f 165/346/346 167/347/347 168/348/348
f 169/349/349 168/350/350 167/351/351
f 169/352/352 167/353/353 170/354/354
f 171/355/355 169/356/356 170/357/357
f 171/358/358 172/359/359 169/360/360
f 173/361/361 174/362/362 175/363/363
f 173/364/364 175/365/365 176/366/366
f 177/367/367 173/368/368 176/369/369
f 177/370/370 176/371/371 178/372/372
f 179/373/373 177/374/374 178/375/375
f 179/376/376 178/377/377 180/378/378
f 181/379/379 179/380/380 180/381/381
f 181/382/382 180/383/383 182/384/384
f 183/385/385 184/386/386 185/387/387
f 183/388/388 186/389/389 184/390/390
f 187/391/391 186/392/392 183/393/393
f 187/394/394 183/395/395 188/396/396
f 188/397/397 189/398/398 187/399/399
f 188/400/400 190/401/401 189/402/402
f 189/403/403 190/404/404 191/405/405
f 189/406/406 191/407/407 192/408/408
f 191/409/409 193/410/410 192/411/411
f 191/412/412 194/413/413 193/414/414
f 195/415/415 196/416/416 197/417/417
f 196/418/418 195/419/419 198/420/420
f 198/421/421 199/422/422 196/423/423
f 200/424/424 196/425/425 199/426/426
f 201/427/427 202/428/428 203/429/429
f 201/430/430 204/431/431 202/432/432
f 205/433/433 202/434/434 204/435/435
f 205/436/436 204/437/437 206/438/438
f 206/439/439 207/440/440 205/441/441
f 206/442/442 208/443/443 207/444/444
f 209/445/445 210/446/446 211/447/447
f 209/448/448 211/449/449 212/450/450
f 213/451/451 209/452/452 212/453/453
f 213/454/454 212/455/455 214/456/456
f 215/457/457 216/458/458 217/459/459
f 215/460/460 218/461/461 216/462/462
f 219/463/463 216/464/464 218/465/465
f 219/466/466 218/467/467 220/468/468
f 221/469/469 219/470/470 220/471/471
f 221/472/472 220/473/473 222/474/474
f 223/475/475 224/476/476 225/477/477
f 223/478/478 226/479/479 224/480/480
f 227/481/481 224/482/482 226/483/483
f 227/484/484 226/485/485 228/486/486
f 229/487/487 230/488/488 208/489/489
f 229/490/490 208/491/491 231/492/492
f 231/493/493 232/494/494 229/495/495
f 231/496/496 233/497/497 232/498/498
f 234/499/499 235/500/500 236/501/501
f 234/502/502 237/503/503 235/504/504
f 238/505/505 239/506/506 240/507/507
f 238/508/508 241/509/509 239/510/510
f 242/511/511 243/512/512 244/513/513
f 242/514/514 245/515/515 243/516/516
f 246/517/517 247/518/518 248/519/519
f 246/520/520 249/521/521 247/522/522
f 250/523/523 251/524/524 252/525/525
f 250/526/526 253/527/527 251/528/528
f 254/529/529 255/530/530 256/531/531
f 254/532/532 256/533/533 257/534/534
f 257/535/535 258/536/536 254/537/537
f 257/538/538 259/539/539 258/540/540
f 260/541/541 258/542/542 259/543/543
f 260/544/544 259/545/545 261/546/546
f 262/547/547 263/548/548 264/549/549
f 262/550/550 265/551/551 263/552/552
f 266/553/553 267/554/554 268/555/555
f 266/556/556 269/557/557 267/558/558
f 270/559/559 271/560/560 272/561/561
f 270/562/562 273/563/563 271/564/564
f 274/565/565 275/566/566 276/567/567
f 274/568/568 277/569/569 275/570/570
f 278/571/571 279/572/572 280/573/573
f 278/574/574 281/575/575 279/576/576
f 282/577/577 283/578/578 284/579/579
f 282/580/580 285/581/581 283/582/582
f 282/583/583 286/584/584 285/585/585
f 286/586/586 287/587/587 285/588/588
f 287/589/589 286/590/590 288/591/591
f 289/592/592 288/593/593 286/594/594
f 289/595/595 286/596/596 282/597/597
f 289/598/598 282/599/599 290/600/600
f 291/601/601 292/602/602 293/603/603
f 291/604/604 294/605/605 292/606/606
f 295/607/607 292/608/608 294/609/609
f 295/610/610 294/611/611 296/612/612
f 297/613/613 298/614/614 299/615/615
f 297/616/616 300/617/617 298/618/618
f 301/619/619 302/620/620 303/621/621
f 301/622/622 304/623/623 302/624/624
f 305/625/625 306/626/626 307/627/627
f 305/628/628 308/629/629 306/630/630
f 309/631/631 310/632/632 311/633/633
f 309/634/634 312/635/635 310/636/636
f 313/637/637 314/638/638 315/639/639
f 313/640/640 316/641/641 314/642/642
f 317/643/643 318/644/644 319/645/645
f 318/646/646 317/647/647 320/648/648
f 318/649/649 320/650/650 321/651/651
f 321/652/652 320/653/653 322/654/654
f 322/655/655 320/656/656 323/657/657
f 323/658/658 320/659/659 317/660/660
f 323/661/661 317/662/662 324/663/663
