# Wavefront OBJ file
# Exported by Maverick Model 3D 1.3.12
# Tue Sep 01 12:23:40 2026

# 229 Vertices
v 2.803881 -2.201698 6.094749
v 2.141367 0.234963 9.928893
v 2.305164 -2.242706 11.075751
v 2.803881 -2.201698 6.094749
v 2.081247 -2.82641 4.018333
v 0.573654 0.85802 1.74609
v 1.93363 -3.310004 2.632128
v 1.93363 -3.310004 2.632128
v 1.939764 -3.379781 2.329989
v -0.108141 -0.26851 -1.93313
v 4.532402 -3.587107 -7.201485
v 4.357351 -3.371033 -8.705402
v 5.091007 -0.208746 -8.221693
v 5.419378 0.017675 -6.529176
v 4.488094 -3.581123 -6.736692
v 4.532402 -3.587107 -7.201485
v 4.644711 -3.801883 -5.476104
v 5.966591 0.173057 -5.168931
v 4.874228 -4.239572 -2.533259
v 3.086269 3.131521 -7.871097
v 4.052031 2.812374 -4.922099
v 6.311405 -0.160745 -2.234826
v 5.966591 0.173057 -5.168931
v 6.634895 -0.202898 0.811705
v 5.153946 -4.571097 0.68667
v 6.566349 -0.213883 1.090023
v 5.132545 -4.57126 0.989318
v 5.153744 -4.588113 1.23685
v 0.154499 4.509338 -7.661435
v 0.596243 4.742298 -4.504737
v 4.224867 2.965689 -2.57426
v 4.056269 3.048821 1.028862
v 6.391201 -0.176648 2.437002
v 5.168266 -4.645828 1.91712
v 5.168266 -4.645828 1.91712
v 5.153477 -4.67479 2.300069
v -3.367474 3.352439 -7.549055
v -3.742901 3.518799 -4.485686
v -3.931812 3.425211 -1.828787
v 0.802843 4.809627 -1.923039
v 1.025099 5.102076 1.391621
v 3.936304 3.136461 4.796785
v 6.593586 -0.035032 4.531985
v 5.160503 -4.786855 4.444804
v 5.707924 -1.633638 8.76753
v 4.687885 -4.599322 8.490374
v -3.95516 3.334599 1.429534
v -4.048958 3.213425 5.09915
v 0.586103 5.080537 5.043311
v 3.600857 2.732939 8.458003
v 4.832054 0.672778 8.314023
v 4.977985 -1.407088 8.896739
v 4.408134 -4.416448 9.433121
v -0.063282 4.253533 8.718389
v 3.823343 2.153797 9.931197
v 5.349073 -0.812635 9.65989
v 4.977985 -1.407088 8.896739
v 4.832054 0.672778 8.314023
v -3.659273 2.722657 8.939886
v 0.38801 3.72521 10.127136
v -3.036728 2.109805 10.094482
v -4.068121 -0.28396 -7.925807
v -3.367474 3.352439 -7.549055
v -3.649105 3.616753 -7.984283
v -4.555666 -0.099825 -8.287733
v -2.605009 -3.316819 -8.668706
v -2.310406 -2.973031 -8.207994
v 1.27725 -4.522169 -8.447983
v 1.380989 -4.887162 -8.988635
v 4.357351 -3.371033 -8.705402
v 4.545465 -3.529357 -8.999547
v -3.658707 3.712768 -9.514491
v -4.454445 0.317959 -9.754252
v -2.453417 -3.090893 -10.047051
v 1.733751 -4.847699 -10.292369
v 4.595129 -3.517553 -10.245669
v -3.256571 3.37738 -9.983993
v -3.832039 0.334415 -10.425794
v -2.303492 -2.837363 -10.530837
v 1.682854 -4.267621 -10.773215
v 4.207355 -3.14774 -10.883585
v 1.664265 -3.942917 -11.825525
v 3.9354 -2.808752 -11.812637
v 2.423063 -1.237814 -16.006481
v -3.049761 3.310423 -11.098022
v -3.622051 0.470784 -11.315213
v -2.249969 -2.587491 -11.549055
v -0.929132 -1.039047 -15.862739
v 1.07423 -1.864745 -16.004647
v 0.326679 0.795329 -19.253917
v -2.032703 0.731927 -15.65663
v -1.736286 2.406139 -15.53065
v -3.649105 3.616753 -7.984283
v -3.367474 3.352439 -7.549055
v 0.154499 4.509338 -7.661435
v -0.056667 5.003169 -8.014105
v -3.658707 3.712768 -9.514491
v -0.388739 4.953517 -9.497028
v -3.256571 3.37738 -9.983993
v -0.218168 4.343459 -10.058097
v -3.049761 3.310423 -11.098022
v 3.400579 3.496132 -8.301221
v 3.252237 3.406973 -9.700992
v 3.052252 3.248123 -10.20654
v 2.917738 3.273535 -11.262372
v -0.306753 4.257513 -11.133357
v -0.218168 4.343459 -10.058097
v -3.049761 3.310423 -11.098022
v -0.1164 2.903921 -15.558538
v -1.736286 2.406139 -15.53065
v 3.086269 3.131521 -7.871097
v 5.091007 -0.208746 -8.221693
v 5.477983 -0.237542 -8.738076
v 5.537029 -0.521438 -10.051464
v 4.993198 -0.511077 -10.56833
v 4.778858 -0.41948 -11.639464
v 1.794626 2.05293 -15.71103
v 4.357351 -3.371033 -8.705402
v 4.545465 -3.529357 -8.999547
v 4.595129 -3.517553 -10.245669
v 4.207355 -3.14774 -10.883585
v 3.9354 -2.808752 -11.812637
v 2.423063 -1.237814 -16.006481
v 2.874554 0.16857 -15.901119
v 4.609514 -4.617279 9.955493
v 4.408134 -4.416448 9.433121
v 5.349073 -0.812635 9.65989
v 6.08168 -0.724376 10.208718
v 4.120266 -4.253051 11.32402
v 5.565552 -0.700054 11.53964
v 3.609623 -3.834396 11.826233
v 4.547327 -0.725698 12.018596
v 3.445143 -1.103996 16.31132
v 2.500294 -3.129235 16.614414
v 3.903351 2.74786 10.535789
v 3.534557 2.495705 11.864881
v 3.242035 1.818914 12.251219
v 2.522448 0.564228 16.453526
v 2.779724 -0.837872 17.121153
v 2.141598 -2.828385 16.994995
v 3.823343 2.153797 9.931197
v 0.431026 4.400886 10.767068
v 0.410332 3.974921 12.081157
v 0.361168 3.11553 12.418434
v 0.745016 1.354267 16.554913
v 2.085096 0.3092 17.234007
v 0.38801 3.72521 10.127136
v -3.233845 2.25142 10.7147
v -2.975348 1.953005 12.033281
v -2.66074 1.667015 12.394208
v -1.403526 0.283527 16.958957
v 0.874659 0.915936 17.302015
v -3.036728 2.109805 10.094482
v -1.138155 0.042997 17.294638
v 0.953396 -5.815752 9.422657
v 4.408134 -4.416448 9.433121
v 4.609514 -4.617279 9.955493
v 0.93132 -6.571741 9.92247
v -2.802902 -4.871986 10.158641
v -2.187204 -4.689306 9.586754
v -4.894272 -1.652664 10.469946
v -4.199993 -1.49775 9.878604
v -3.233845 2.25142 10.7147
v -3.036728 2.109805 10.094482
v 4.120266 -4.253051 11.32402
v 0.77133 -6.143294 11.286894
v -2.664856 -4.554004 11.516648
v -4.547678 -1.652575 11.806227
v -2.975348 1.953005 12.033281
v 3.609623 -3.834396 11.826233
v 0.64114 -5.17237 11.809873
v -2.04854 -4.2073 11.95495
v -3.72274 -1.515829 12.194628
v -2.66074 1.667015 12.394208
v 0.637352 -4.285825 16.161668
v -1.14209 -3.600084 16.253204
v -2.153698 -1.943898 16.392307
v -1.403526 0.283527 16.958957
v -1.744251 -2.059295 17.156175
v -1.138155 0.042997 17.294638
v 2.500294 -3.129235 16.614414
v 2.141598 -2.828385 16.994995
v 0.248293 -3.710013 16.980752
v -0.991337 -3.173623 17.056333
v -4.199993 -1.49775 9.878604
v -3.036728 2.109805 10.094482
v -3.659273 2.722657 8.939886
v -4.364883 -1.189275 8.434338
v -2.187204 -4.689306 9.586754
v -2.720766 -4.447222 8.103459
v -0.691193 -6.10985 7.379661
v 0.953396 -5.815752 9.422657
v 1.83634 -6.184191 8.758849
v 4.408134 -4.416448 9.433121
v -4.048958 3.213425 5.09915
v -4.968782 -1.680538 4.702922
v -2.919996 -4.614587 4.427481
v 0.605947 -6.907523 4.196407
v 5.160503 -4.786855 4.444804
v 4.687885 -4.599322 8.490374
v -4.745697 -1.884261 1.027735
v -2.613913 -4.474136 0.659155
v 0.843733 -6.555176 2.132857
v 5.153477 -4.67479 2.300069
v -3.95516 3.334599 1.429534
v -4.370857 -1.525012 -2.24832
v -2.197479 -4.28318 -2.923863
v 0.979782 -6.67667 0.497451
v 0.977259 -6.646276 0.769984
v 5.153744 -4.588113 1.23685
v 5.168266 -4.645828 1.91712
v -3.931812 3.425211 -1.828787
v -4.036404 -1.082298 -4.840654
v -1.943245 -3.960805 -5.267023
v 0.986788 -6.179517 -2.528644
v 4.874228 -4.239572 -2.533259
v 5.153946 -4.571097 0.68667
v 5.132545 -4.57126 0.989318
v -3.742901 3.518799 -4.485686
v -3.367474 3.352439 -7.549055
v -4.068121 -0.28396 -7.925807
v -2.310406 -2.973031 -8.207994
v 0.851637 -5.6122 -5.451017
v 4.644711 -3.801883 -5.476104
v 1.017521 -4.977217 -6.778102
v 4.488094 -3.581123 -6.736692
v 4.532402 -3.587107 -7.201485
v 1.27725 -4.522169 -8.447983
v 4.357351 -3.371033 -8.705402

# 897 Texture Coordinates
vt 0.807129 0.228027
vt 0.758301 0.214356
vt 0.754883 0.239746
vt 0.807129 0.228027
vt 0.833984 0.228027
vt 0.856445 0.19043
vt 0.852539 0.228516
vt 0.856445 0.19043
vt 0.833984 0.228027
vt 0.856445 0.19043
vt 0.852539 0.228516
vt 0.856445 0.228516
vt 0.898926 0.193848
vt 0.856445 0.19043
vt 0.856445 0.228516
vt 0.97168 0.266113
vt 0.99707 0.261231
vt 0.99707 0.237793
vt 0.99707 0.237793
vt 0.961426 0.231445
vt 0.97168 0.266113
vt 0.958008 0.263184
vt 0.97168 0.266113
vt 0.961426 0.231445
vt 0.939941 0.260742
vt 0.958008 0.263184
vt 0.961426 0.231445
vt 0.961426 0.231445
vt 0.936035 0.226074
vt 0.939941 0.260742
vt 0.901367 0.260742
vt 0.939941 0.260742
vt 0.936035 0.226074
vt 0.961426 0.231445
vt 0.99707 0.237793
vt 0.99707 0.195312
vt 0.936035 0.226074
vt 0.961426 0.231445
vt 0.99707 0.195312
vt 0.99707 0.195312
vt 0.938965 0.196777
vt 0.936035 0.226074
vt 0.938965 0.196777
vt 0.896973 0.225586
vt 0.936035 0.226074
vt 0.936035 0.226074
vt 0.896973 0.225586
vt 0.901367 0.260742
vt 0.901367 0.260742
vt 0.896973 0.225586
vt 0.856445 0.228516
vt 0.856445 0.228516
vt 0.856445 0.260742
vt 0.901367 0.260742
vt 0.856445 0.260742
vt 0.856445 0.228516
vt 0.852539 0.228516
vt 0.852539 0.228516
vt 0.852539 0.260742
vt 0.856445 0.260742
vt 0.852539 0.228516
vt 0.848633 0.260742
vt 0.852539 0.260742
vt 0.938965 0.196777
vt 0.99707 0.195312
vt 0.99707 0.166504
vt 0.99707 0.166504
vt 0.937988 0.163574
vt 0.938965 0.196777
vt 0.898926 0.193848
vt 0.938965 0.196777
vt 0.937988 0.163574
vt 0.938965 0.196777
vt 0.898926 0.193848
vt 0.896973 0.225586
vt 0.856445 0.228516
vt 0.896973 0.225586
vt 0.898926 0.193848
vt 0.898926 0.193848
vt 0.856445 0.19043
vt 0.856445 0.228516
vt 0.856445 0.19043
vt 0.852539 0.228516
vt 0.856445 0.228516
vt 0.852539 0.228516
vt 0.856445 0.19043
vt 0.833984 0.228027
vt 0.848633 0.260742
vt 0.852539 0.228516
vt 0.833984 0.228027
vt 0.833984 0.228027
vt 0.839356 0.260742
vt 0.848633 0.260742
vt 0.839356 0.260742
vt 0.833984 0.228027
vt 0.834473 0.260742
vt 0.937988 0.163574
vt 0.99707 0.166504
vt 0.99707 0.117187
vt 0.99707 0.117187
vt 0.939941 0.117187
vt 0.937988 0.163574
vt 0.937988 0.163574
vt 0.939941 0.117187
vt 0.901367 0.117187
vt 0.901367 0.117187
vt 0.901367 0.157227
vt 0.937988 0.163574
vt 0.937988 0.163574
vt 0.901367 0.157227
vt 0.898926 0.193848
vt 0.856445 0.19043
vt 0.898926 0.193848
vt 0.901367 0.157227
vt 0.901367 0.157227
vt 0.856445 0.160644
vt 0.856445 0.19043
vt 0.807129 0.19043
vt 0.856445 0.19043
vt 0.856445 0.160644
vt 0.856445 0.19043
vt 0.807129 0.19043
vt 0.807129 0.228027
vt 0.807129 0.228027
vt 0.833984 0.228027
vt 0.856445 0.19043
vt 0.834473 0.260742
vt 0.833984 0.228027
vt 0.807129 0.228027
vt 0.807129 0.228027
vt 0.807129 0.260742
vt 0.834473 0.260742
vt 0.807129 0.260742
vt 0.807129 0.228027
vt 0.754883 0.239746
vt 0.754883 0.239746
vt 0.758301 0.260742
vt 0.807129 0.260742
vt 0.901367 0.157227
vt 0.901367 0.117187
vt 0.856445 0.117187
vt 0.856445 0.117187
vt 0.856445 0.160644
vt 0.901367 0.157227
vt 0.856445 0.160644
vt 0.856445 0.117187
vt 0.807129 0.117187
vt 0.807129 0.117187
vt 0.807129 0.157227
vt 0.856445 0.160644
vt 0.856445 0.160644
vt 0.807129 0.157227
vt 0.807129 0.19043
vt 0.758301 0.195312
vt 0.807129 0.19043
vt 0.807129 0.157227
vt 0.807129 0.228027
vt 0.807129 0.19043
vt 0.758301 0.195312
vt 0.758301 0.195312
vt 0.758301 0.214356
vt 0.807129 0.228027
vt 0.807129 0.228027
vt 0.758301 0.214356
vt 0.754883 0.239746
vt 0.758301 0.214356
vt 0.739746 0.236328
vt 0.754883 0.239746
vt 0.739746 0.236328
vt 0.737305 0.260742
vt 0.754883 0.239746
vt 0.754883 0.239746
vt 0.737305 0.260742
vt 0.758301 0.260742
vt 0.758301 0.157227
vt 0.807129 0.157227
vt 0.807129 0.117187
vt 0.807129 0.157227
vt 0.758301 0.157227
vt 0.758301 0.195312
vt 0.737305 0.195312
vt 0.758301 0.195312
vt 0.758301 0.157227
vt 0.737305 0.195312
vt 0.758301 0.214356
vt 0.758301 0.195312
vt 0.737305 0.223144
vt 0.758301 0.214356
vt 0.737305 0.195312
vt 0.739746 0.236328
vt 0.758301 0.214356
vt 0.737305 0.223144
vt 0.807129 0.117187
vt 0.758301 0.117187
vt 0.758301 0.157227
vt 0.737305 0.157227
vt 0.758301 0.157227
vt 0.758301 0.117187
vt 0.758301 0.157227
vt 0.737305 0.157227
vt 0.737305 0.195312
vt 0.758301 0.117187
vt 0.737305 0.117187
vt 0.737305 0.157227
vt 0.737305 0.260742
vt 0.739746 0.236328
vt 0.737305 0.223144
vt 0.694336 0.199707
vt 0.719238 0.199707
vt 0.718262 0.20166
vt 0.718262 0.20166
vt 0.694336 0.20166
vt 0.694336 0.199707
vt 0.694336 0.199707
vt 0.694336 0.20166
vt 0.669434 0.20166
vt 0.669434 0.20166
vt 0.669434 0.199707
vt 0.694336 0.199707
vt 0.63916 0.199707
vt 0.669434 0.199707
vt 0.669434 0.20166
vt 0.669434 0.20166
vt 0.639648 0.20166
vt 0.63916 0.199707
vt 0.616699 0.199707
vt 0.63916 0.199707
vt 0.639648 0.20166
vt 0.639648 0.20166
vt 0.617676 0.20166
vt 0.616699 0.199707
vt 0.694336 0.20166
vt 0.718262 0.20166
vt 0.713867 0.217773
vt 0.713867 0.217773
vt 0.692871 0.217773
vt 0.694336 0.20166
vt 0.669434 0.20166
vt 0.694336 0.20166
vt 0.692871 0.217773
vt 0.692871 0.217773
vt 0.669922 0.217773
vt 0.669434 0.20166
vt 0.639648 0.20166
vt 0.669434 0.20166
vt 0.669922 0.217773
vt 0.669922 0.217773
vt 0.640625 0.217773
vt 0.639648 0.20166
vt 0.639648 0.20166
vt 0.640625 0.217773
vt 0.62207 0.217773
vt 0.62207 0.217773
vt 0.617676 0.20166
vt 0.639648 0.20166
vt 0.692871 0.217773
vt 0.713867 0.217773
vt 0.712891 0.22168
vt 0.712891 0.22168
vt 0.692871 0.22168
vt 0.692871 0.217773
vt 0.692871 0.217773
vt 0.692871 0.22168
vt 0.669922 0.22168
vt 0.669922 0.22168
vt 0.669922 0.217773
vt 0.692871 0.217773
vt 0.640625 0.217773
vt 0.669922 0.217773
vt 0.669922 0.22168
vt 0.669922 0.22168
vt 0.641113 0.22168
vt 0.640625 0.217773
vt 0.62207 0.217773
vt 0.640625 0.217773
vt 0.641113 0.22168
vt 0.641113 0.22168
vt 0.624023 0.22168
vt 0.62207 0.217773
vt 0.624023 0.22168
vt 0.641113 0.22168
vt 0.641602 0.229492
vt 0.641602 0.229492
vt 0.626465 0.229492
vt 0.624023 0.22168
vt 0.643555 0.278809
vt 0.626465 0.229492
vt 0.641602 0.229492
vt 0.692871 0.22168
vt 0.712891 0.22168
vt 0.709961 0.229492
vt 0.709961 0.229492
vt 0.692383 0.229492
vt 0.692871 0.22168
vt 0.692871 0.22168
vt 0.692383 0.229492
vt 0.669434 0.229492
vt 0.669434 0.229492
vt 0.669922 0.22168
vt 0.692871 0.22168
vt 0.641113 0.22168
vt 0.669922 0.22168
vt 0.669434 0.229492
vt 0.669434 0.229492
vt 0.641602 0.229492
vt 0.641113 0.22168
vt 0.641602 0.229492
vt 0.669434 0.229492
vt 0.667481 0.278809
vt 0.667481 0.278809
vt 0.650879 0.278809
vt 0.641602 0.229492
vt 0.641602 0.229492
vt 0.650879 0.278809
vt 0.643555 0.278809
vt 0.650879 0.278809
vt 0.665527 0.318359
vt 0.643555 0.278809
vt 0.681641 0.278809
vt 0.692383 0.229492
vt 0.709961 0.229492
vt 0.692383 0.229492
vt 0.681641 0.278809
vt 0.667481 0.278809
vt 0.667481 0.278809
vt 0.669434 0.229492
vt 0.692383 0.229492
vt 0.709961 0.229492
vt 0.692383 0.278809
vt 0.681641 0.278809
vt 0.692383 0.278809
vt 0.665527 0.318359
vt 0.681641 0.278809
vt 0.681641 0.278809
vt 0.665527 0.318359
vt 0.667481 0.278809
vt 0.667481 0.278809
vt 0.665527 0.318359
vt 0.650879 0.278809
vt 0.718262 0.20166
vt 0.719238 0.199707
vt 0.694336 0.199707
vt 0.694336 0.199707
vt 0.694336 0.20166
vt 0.718262 0.20166
vt 0.713867 0.217773
vt 0.718262 0.20166
vt 0.694336 0.20166
vt 0.694336 0.20166
vt 0.692871 0.217773
vt 0.713867 0.217773
vt 0.712891 0.22168
vt 0.713867 0.217773
vt 0.692871 0.217773
vt 0.692871 0.217773
vt 0.692871 0.22168
vt 0.712891 0.22168
vt 0.709961 0.229492
vt 0.712891 0.22168
vt 0.692871 0.22168
vt 0.669434 0.20166
vt 0.694336 0.20166
vt 0.694336 0.199707
vt 0.692871 0.217773
vt 0.694336 0.20166
vt 0.669434 0.20166
vt 0.669434 0.20166
vt 0.669922 0.217773
vt 0.692871 0.217773
vt 0.692871 0.217773
vt 0.669922 0.217773
vt 0.669922 0.22168
vt 0.669922 0.22168
vt 0.692871 0.22168
vt 0.692871 0.217773
vt 0.692871 0.22168
vt 0.669922 0.22168
vt 0.669434 0.229492
vt 0.669434 0.229492
vt 0.692383 0.229492
vt 0.692871 0.22168
vt 0.692871 0.22168
vt 0.692383 0.229492
vt 0.709961 0.229492
vt 0.709961 0.229492
vt 0.692383 0.229492
vt 0.681641 0.278809
vt 0.681641 0.278809
vt 0.692383 0.278809
vt 0.709961 0.229492
vt 0.694336 0.199707
vt 0.669434 0.199707
vt 0.669434 0.20166
vt 0.669434 0.20166
vt 0.669434 0.199707
vt 0.63916 0.199707
vt 0.63916 0.199707
vt 0.639648 0.20166
vt 0.669434 0.20166
vt 0.669922 0.217773
vt 0.669434 0.20166
vt 0.639648 0.20166
vt 0.639648 0.20166
vt 0.640625 0.217773
vt 0.669922 0.217773
vt 0.669922 0.22168
vt 0.669922 0.217773
vt 0.640625 0.217773
vt 0.640625 0.217773
vt 0.641113 0.22168
vt 0.669922 0.22168
vt 0.669434 0.229492
vt 0.669922 0.22168
vt 0.641113 0.22168
vt 0.641113 0.22168
vt 0.641602 0.229492
vt 0.669434 0.229492
vt 0.667481 0.278809
vt 0.669434 0.229492
vt 0.641602 0.229492
vt 0.692383 0.229492
vt 0.669434 0.229492
vt 0.667481 0.278809
vt 0.667481 0.278809
vt 0.681641 0.278809
vt 0.692383 0.229492
vt 0.681641 0.278809
vt 0.667481 0.278809
vt 0.665527 0.318359
vt 0.692383 0.278809
vt 0.681641 0.278809
vt 0.665527 0.318359
vt 0.639648 0.20166
vt 0.63916 0.199707
vt 0.616699 0.199707
vt 0.616699 0.199707
vt 0.617676 0.20166
vt 0.639648 0.20166
vt 0.639648 0.20166
vt 0.617676 0.20166
vt 0.62207 0.217773
vt 0.62207 0.217773
vt 0.640625 0.217773
vt 0.639648 0.20166
vt 0.641113 0.22168
vt 0.640625 0.217773
vt 0.62207 0.217773
vt 0.62207 0.217773
vt 0.624023 0.22168
vt 0.641113 0.22168
vt 0.641602 0.229492
vt 0.641113 0.22168
vt 0.624023 0.22168
vt 0.624023 0.22168
vt 0.626465 0.229492
vt 0.641602 0.229492
vt 0.641602 0.229492
vt 0.626465 0.229492
vt 0.643555 0.278809
vt 0.643555 0.278809
vt 0.650879 0.278809
vt 0.641602 0.229492
vt 0.641602 0.229492
vt 0.650879 0.278809
vt 0.667481 0.278809
vt 0.667481 0.278809
vt 0.650879 0.278809
vt 0.665527 0.318359
vt 0.650879 0.278809
vt 0.643555 0.278809
vt 0.665527 0.318359
vt 0.602051 0.283203
vt 0.603516 0.283203
vt 0.603516 0.271484
vt 0.603516 0.271484
vt 0.602051 0.271484
vt 0.602051 0.283203
vt 0.585938 0.283203
vt 0.602051 0.283203
vt 0.602051 0.271484
vt 0.602051 0.271484
vt 0.585938 0.271484
vt 0.585938 0.283203
vt 0.583008 0.283203
vt 0.585938 0.283203
vt 0.585938 0.271484
vt 0.585938 0.271484
vt 0.583008 0.271484
vt 0.583008 0.283203
vt 0.583008 0.283203
vt 0.583008 0.271484
vt 0.530762 0.271484
vt 0.530762 0.271484
vt 0.525391 0.283203
vt 0.583008 0.283203
vt 0.601563 0.245117
vt 0.602051 0.271484
vt 0.603516 0.271484
vt 0.585938 0.271484
vt 0.602051 0.271484
vt 0.601563 0.245117
vt 0.601563 0.245117
vt 0.585938 0.245117
vt 0.585938 0.271484
vt 0.583008 0.271484
vt 0.585938 0.271484
vt 0.585938 0.245117
vt 0.585938 0.245117
vt 0.583008 0.245117
vt 0.583008 0.271484
vt 0.530762 0.271484
vt 0.583008 0.271484
vt 0.583008 0.245117
vt 0.583008 0.245117
vt 0.530762 0.245117
vt 0.530762 0.271484
vt 0.520996 0.263672
vt 0.530762 0.271484
vt 0.530762 0.245117
vt 0.530762 0.271484
vt 0.520996 0.263672
vt 0.520996 0.270996
vt 0.520996 0.270996
vt 0.525391 0.283203
vt 0.530762 0.271484
vt 0.603516 0.271484
vt 0.603516 0.245117
vt 0.601563 0.245117
vt 0.601563 0.220703
vt 0.601563 0.245117
vt 0.603516 0.245117
vt 0.601563 0.245117
vt 0.601563 0.220703
vt 0.585449 0.220703
vt 0.585449 0.220703
vt 0.585938 0.245117
vt 0.601563 0.245117
vt 0.585938 0.245117
vt 0.585449 0.220703
vt 0.583008 0.220703
vt 0.583008 0.220703
vt 0.583008 0.245117
vt 0.585938 0.245117
vt 0.530762 0.245117
vt 0.583008 0.245117
vt 0.583008 0.220703
vt 0.583008 0.220703
vt 0.530762 0.220703
vt 0.530762 0.245117
vt 0.520996 0.245117
vt 0.530762 0.245117
vt 0.530762 0.220703
vt 0.530762 0.245117
vt 0.520996 0.245117
vt 0.520996 0.263672
vt 0.603516 0.245117
vt 0.603516 0.220703
vt 0.601563 0.220703
vt 0.601563 0.205566
vt 0.601563 0.220703
vt 0.603516 0.220703
vt 0.601563 0.220703
vt 0.601563 0.205566
vt 0.585449 0.205566
vt 0.585449 0.205566
vt 0.585449 0.220703
vt 0.601563 0.220703
vt 0.585449 0.220703
vt 0.585449 0.205566
vt 0.583008 0.205566
vt 0.583008 0.205566
vt 0.583008 0.220703
vt 0.585449 0.220703
vt 0.530762 0.220703
vt 0.583008 0.220703
vt 0.583008 0.205566
vt 0.583008 0.205566
vt 0.525391 0.205566
vt 0.530762 0.220703
vt 0.520996 0.224609
vt 0.530762 0.220703
vt 0.525391 0.205566
vt 0.530762 0.220703
vt 0.520996 0.224609
vt 0.520996 0.245117
vt 0.603516 0.220703
vt 0.603516 0.205566
vt 0.601563 0.205566
vt 0.525391 0.205566
vt 0.520996 0.21582
vt 0.520996 0.224609
vt 0.603516 0.271484
vt 0.603516 0.283203
vt 0.602051 0.283203
vt 0.602051 0.283203
vt 0.602051 0.271484
vt 0.603516 0.271484
vt 0.603516 0.271484
vt 0.602051 0.271484
vt 0.601563 0.245117
vt 0.601563 0.245117
vt 0.603516 0.245117
vt 0.603516 0.271484
vt 0.603516 0.245117
vt 0.601563 0.245117
vt 0.601563 0.220703
vt 0.601563 0.220703
vt 0.603516 0.220703
vt 0.603516 0.245117
vt 0.603516 0.220703
vt 0.601563 0.220703
vt 0.601563 0.205566
vt 0.601563 0.205566
vt 0.603516 0.205566
vt 0.603516 0.220703
vt 0.602051 0.271484
vt 0.602051 0.283203
vt 0.585938 0.283203
vt 0.585938 0.283203
vt 0.585938 0.271484
vt 0.602051 0.271484
vt 0.601563 0.245117
vt 0.602051 0.271484
vt 0.585938 0.271484
vt 0.585938 0.271484
vt 0.585938 0.245117
vt 0.601563 0.245117
vt 0.601563 0.245117
vt 0.585938 0.245117
vt 0.585449 0.220703
vt 0.585449 0.220703
vt 0.601563 0.220703
vt 0.601563 0.245117
vt 0.601563 0.220703
vt 0.585449 0.220703
vt 0.585449 0.205566
vt 0.585449 0.205566
vt 0.601563 0.205566
vt 0.601563 0.220703
vt 0.585938 0.271484
vt 0.585938 0.283203
vt 0.583008 0.283203
vt 0.583008 0.283203
vt 0.583008 0.271484
vt 0.585938 0.271484
vt 0.585938 0.245117
vt 0.585938 0.271484
vt 0.583008 0.271484
vt 0.583008 0.271484
vt 0.583008 0.245117
vt 0.585938 0.245117
vt 0.585938 0.245117
vt 0.583008 0.245117
vt 0.583008 0.220703
vt 0.583008 0.220703
vt 0.585449 0.220703
vt 0.585938 0.245117
vt 0.585449 0.220703
vt 0.583008 0.220703
vt 0.583008 0.205566
vt 0.583008 0.205566
vt 0.585449 0.205566
vt 0.585449 0.220703
vt 0.530762 0.271484
vt 0.583008 0.271484
vt 0.583008 0.283203
vt 0.583008 0.245117
vt 0.583008 0.271484
vt 0.530762 0.271484
vt 0.530762 0.271484
vt 0.530762 0.245117
vt 0.583008 0.245117
vt 0.583008 0.220703
vt 0.583008 0.245117
vt 0.530762 0.245117
vt 0.530762 0.245117
vt 0.530762 0.220703
vt 0.583008 0.220703
vt 0.583008 0.205566
vt 0.583008 0.220703
vt 0.530762 0.220703
vt 0.530762 0.220703
vt 0.525391 0.205566
vt 0.583008 0.205566
vt 0.525391 0.205566
vt 0.530762 0.220703
vt 0.520996 0.224609
vt 0.520996 0.224609
vt 0.520996 0.21582
vt 0.525391 0.205566
vt 0.583008 0.283203
vt 0.525391 0.283203
vt 0.530762 0.271484
vt 0.530762 0.271484
vt 0.525391 0.283203
vt 0.520996 0.270996
vt 0.520996 0.270996
vt 0.520996 0.263672
vt 0.530762 0.271484
vt 0.530762 0.245117
vt 0.530762 0.271484
vt 0.520996 0.263672
vt 0.520996 0.263672
vt 0.520996 0.245117
vt 0.530762 0.245117
vt 0.530762 0.220703
vt 0.530762 0.245117
vt 0.520996 0.245117
vt 0.520996 0.245117
vt 0.520996 0.224609
vt 0.530762 0.220703
vt 0.737305 0.157227
vt 0.737305 0.117187
vt 0.758301 0.117187
vt 0.758301 0.117187
vt 0.758301 0.157227
vt 0.737305 0.157227
vt 0.737305 0.195312
vt 0.737305 0.157227
vt 0.758301 0.157227
vt 0.758301 0.157227
vt 0.758301 0.195312
vt 0.737305 0.195312
vt 0.737305 0.195312
vt 0.758301 0.195312
vt 0.758301 0.214356
vt 0.737305 0.223144
vt 0.737305 0.195312
vt 0.758301 0.214356
vt 0.739746 0.236328
vt 0.737305 0.223144
vt 0.758301 0.214356
vt 0.737305 0.260742
vt 0.737305 0.223144
vt 0.739746 0.236328
vt 0.758301 0.157227
vt 0.758301 0.117187
vt 0.807129 0.117187
vt 0.807129 0.117187
vt 0.807129 0.157227
vt 0.758301 0.157227
vt 0.758301 0.195312
vt 0.758301 0.157227
vt 0.807129 0.157227
vt 0.807129 0.157227
vt 0.807129 0.19043
vt 0.758301 0.195312
vt 0.758301 0.195312
vt 0.807129 0.19043
vt 0.807129 0.228027
vt 0.807129 0.228027
vt 0.758301 0.214356
vt 0.758301 0.195312
vt 0.739746 0.236328
vt 0.758301 0.214356
vt 0.807129 0.228027
vt 0.739746 0.236328
vt 0.807129 0.228027
vt 0.807129 0.260742
vt 0.739746 0.236328
vt 0.807129 0.260742
vt 0.758301 0.260742
vt 0.739746 0.236328
vt 0.758301 0.260742
vt 0.737305 0.260742
vt 0.856445 0.160644
vt 0.807129 0.157227
vt 0.807129 0.117187
vt 0.807129 0.19043
vt 0.807129 0.157227
vt 0.856445 0.160644
vt 0.856445 0.160644
vt 0.856445 0.19043
vt 0.807129 0.19043
vt 0.807129 0.228027
vt 0.807129 0.19043
vt 0.856445 0.19043
vt 0.856445 0.19043
vt 0.833984 0.228027
vt 0.807129 0.228027
vt 0.807129 0.228027
vt 0.833984 0.228027
vt 0.834473 0.260742
vt 0.834473 0.260742
vt 0.807129 0.260742
vt 0.807129 0.228027
vt 0.807129 0.117187
vt 0.856445 0.117187
vt 0.856445 0.160644
vt 0.901367 0.157227
vt 0.856445 0.160644
vt 0.856445 0.117187
vt 0.856445 0.19043
vt 0.856445 0.160644
vt 0.901367 0.157227
vt 0.901367 0.157227
vt 0.898926 0.193848
vt 0.856445 0.19043
vt 0.856445 0.228516
vt 0.856445 0.19043
vt 0.898926 0.193848
vt 0.856445 0.19043
vt 0.856445 0.228516
vt 0.852539 0.228516
vt 0.852539 0.228516
vt 0.833984 0.228027
vt 0.856445 0.19043
vt 0.833984 0.228027
vt 0.852539 0.228516
vt 0.848633 0.260742
vt 0.848633 0.260742
vt 0.839356 0.260742
vt 0.833984 0.228027
vt 0.839356 0.260742
vt 0.834473 0.260742
vt 0.833984 0.228027
vt 0.856445 0.117187
vt 0.901367 0.117187
vt 0.901367 0.157227
vt 0.937988 0.163574
vt 0.901367 0.157227
vt 0.901367 0.117187
vt 0.898926 0.193848
vt 0.901367 0.157227
vt 0.937988 0.163574
vt 0.937988 0.163574
vt 0.938965 0.196777
vt 0.898926 0.193848
vt 0.938965 0.196777
vt 0.896973 0.225586
vt 0.898926 0.193848
vt 0.898926 0.193848
vt 0.896973 0.225586
vt 0.856445 0.228516
vt 0.856445 0.228516
vt 0.896973 0.225586
vt 0.901367 0.260742
vt 0.901367 0.260742
vt 0.856445 0.260742
vt 0.856445 0.228516
vt 0.852539 0.228516
vt 0.856445 0.228516
vt 0.856445 0.260742
vt 0.856445 0.260742
vt 0.852539 0.260742
vt 0.852539 0.228516
vt 0.852539 0.228516
vt 0.852539 0.260742
vt 0.848633 0.260742
vt 0.901367 0.117187
vt 0.939941 0.117187
vt 0.937988 0.163574
vt 0.937988 0.163574
vt 0.939941 0.117187
vt 0.99707 0.117187
vt 0.99707 0.117187
vt 0.99707 0.166504
vt 0.937988 0.163574
vt 0.938965 0.196777
vt 0.937988 0.163574
vt 0.99707 0.166504
vt 0.99707 0.166504
vt 0.99707 0.195312
vt 0.938965 0.196777
vt 0.936035 0.226074
vt 0.938965 0.196777
vt 0.99707 0.195312
vt 0.938965 0.196777
vt 0.936035 0.226074
vt 0.896973 0.225586
vt 0.901367 0.260742
vt 0.896973 0.225586
vt 0.936035 0.226074
vt 0.936035 0.226074
vt 0.939941 0.260742
vt 0.901367 0.260742
vt 0.939941 0.260742
vt 0.936035 0.226074
vt 0.961426 0.231445
vt 0.961426 0.231445
vt 0.958008 0.263184
vt 0.939941 0.260742
vt 0.958008 0.263184
vt 0.961426 0.231445
vt 0.97168 0.266113
vt 0.97168 0.266113
vt 0.961426 0.231445
vt 0.99707 0.237793
vt 0.99707 0.237793
vt 0.99707 0.261231
vt 0.97168 0.266113
vt 0.99707 0.195312
vt 0.961426 0.231445
vt 0.936035 0.226074
vt 0.961426 0.231445
vt 0.99707 0.195312
vt 0.99707 0.237793

# 897 Vertex Normals
vn 0.988717 0.111611 0.099913
vn 0.988717 0.111611 0.099913
vn 0.988717 0.111611 0.099913
vn 0.918689 0.150759 -0.365079
vn 0.936491 0.209963 -0.280891
vn 0.944139 0.247724 -0.217336
vn 0.944077 0.266877 -0.193638
vn 0.944139 0.247724 -0.217336
vn 0.936491 0.209963 -0.280891
vn 0.944139 0.247724 -0.217336
vn 0.95257 0.300186 -0.049987
vn 0.946571 0.284116 -0.152584
vn 0.930329 0.264971 -0.25353
vn 0.944139 0.247724 -0.217336
vn 0.946571 0.284116 -0.152584
vn 0.967005 -0.205402 -0.150704
vn 0.968824 -0.203057 -0.141942
vn 0.981269 0.03832 -0.188795
vn 0.981269 0.03832 -0.188795
vn 0.977747 -0.002034 -0.209777
vn 0.967005 -0.205402 -0.150704
vn 0.96804 -0.248595 -0.033147
vn 0.962387 -0.254522 0.09502
vn 0.977747 -0.002034 -0.209777
vn 0.939647 -0.27404 -0.204854
vn 0.96804 -0.248595 -0.033147
vn 0.977747 -0.002034 -0.209777
vn 0.977747 -0.002034 -0.209777
vn 0.944468 0.231549 -0.233163
vn 0.939647 -0.27404 -0.204854
vn 0.940993 -0.31604 -0.121042
vn 0.939647 -0.27404 -0.204854
vn 0.944468 0.231549 -0.233163
vn 0.977747 -0.002034 -0.209777
vn 0.981269 0.03832 -0.188795
vn 0.738385 0.638073 -0.218292
vn 0.944468 0.231549 -0.233163
vn 0.977747 -0.002034 -0.209777
vn 0.738385 0.638073 -0.218292
vn 0.738385 0.638073 -0.218292
vn 0.652311 0.751341 -0.099885
vn 0.944468 0.231549 -0.233163
vn 0.652311 0.751341 -0.099885
vn 0.967661 0.230919 -0.101528
vn 0.944468 0.231549 -0.233163
vn 0.936317 -0.319204 -0.14635
vn 0.967661 0.230919 -0.101528
vn 0.940993 -0.31604 -0.121042
vn 0.940993 -0.31604 -0.121042
vn 0.967661 0.230919 -0.101528
vn 0.987744 0.153408 0.028781
vn 0.987744 0.153408 0.028781
vn 0.946067 -0.319051 0.05625
vn 0.940993 -0.31604 -0.121042
vn 0.946067 -0.319051 0.05625
vn 0.987744 0.153408 0.028781
vn 0.993468 -0.00656 0.113924
vn 0.993468 -0.00656 0.113924
vn 0.949869 -0.312148 -0.01766
vn 0.946067 -0.319051 0.05625
vn 0.993468 -0.00656 0.113924
vn 0.956704 -0.291029 -0.004504
vn 0.949869 -0.312148 -0.01766
vn 0.652311 0.751341 -0.099885
vn 0.738385 0.638073 -0.218292
vn 0.207941 0.975598 -0.070495
vn 0.207941 0.975598 -0.070495
vn 0.042841 0.997337 -0.059014
vn 0.652311 0.751341 -0.099885
vn 0.663357 0.74646 -0.052491
vn 0.652311 0.751341 -0.099885
vn 0.042841 0.997337 -0.059014
vn 0.652311 0.751341 -0.099885
vn 0.663357 0.74646 -0.052491
vn 0.967661 0.230919 -0.101528
vn 0.987744 0.153408 0.028781
vn 0.967661 0.230919 -0.101528
vn 0.663357 0.74646 -0.052491
vn 0.663357 0.74646 -0.052491
vn 0.705108 0.708973 0.0134
vn 0.987744 0.153408 0.028781
vn 0.705108 0.708973 0.0134
vn 0.993468 -0.00656 0.113924
vn 0.987744 0.153408 0.028781
vn 0.993468 -0.00656 0.113924
vn 0.705108 0.708973 0.0134
vn 0.99992 0.012638 -0.000147
vn 0.956704 -0.291029 -0.004504
vn 0.993468 -0.00656 0.113924
vn 0.99992 0.012638 -0.000147
vn 0.99992 0.012638 -0.000147
vn 0.964916 -0.259084 -0.042579
vn 0.956704 -0.291029 -0.004504
vn 0.96389 -0.265749 0.017125
vn 0.99992 0.012638 -0.000147
vn 0.961847 -0.272402 -0.025446
vn 0.042841 0.997337 -0.059014
vn 0.207941 0.975598 -0.070495
vn -0.291929 0.95481 -0.055818
vn -0.291929 0.95481 -0.055818
vn -0.27136 0.961828 -0.035366
vn 0.042841 0.997337 -0.059014
vn 0.042841 0.997337 -0.059014
vn -0.27136 0.961828 -0.035366
vn -0.277388 0.96068 0.012242
vn -0.277388 0.96068 0.012242
vn 0.107961 0.993442 -0.037657
vn 0.042841 0.997337 -0.059014
vn 0.042841 0.997337 -0.059014
vn 0.107961 0.993442 -0.037657
vn 0.663357 0.74646 -0.052491
vn 0.705108 0.708973 0.0134
vn 0.663357 0.74646 -0.052491
vn 0.107961 0.993442 -0.037657
vn 0.107961 0.993442 -0.037657
vn 0.106595 0.994037 -0.022963
vn 0.705108 0.708973 0.0134
vn 0.629506 0.773679 0.071718
vn 0.705108 0.708973 0.0134
vn 0.106595 0.994037 -0.022963
vn 0.705108 0.708973 0.0134
vn 0.629506 0.773679 0.071718
vn 0.96227 0.256491 0.090822
vn 0.96227 0.256491 0.090822
vn 0.99992 0.012638 -0.000147
vn 0.705108 0.708973 0.0134
vn 0.961847 -0.272402 -0.025446
vn 0.99992 0.012638 -0.000147
vn 0.96227 0.256491 0.090822
vn 0.96227 0.256491 0.090822
vn 0.950352 -0.30417 0.065673
vn 0.961847 -0.272402 -0.025446
vn 0.950352 -0.30417 0.065673
vn 0.96227 0.256491 0.090822
vn 0.8283 -0.031544 0.559396
vn 0.8283 -0.031544 0.559396
vn 0.914191 -0.33566 0.227127
vn 0.950352 -0.30417 0.065673
vn 0.107961 0.993442 -0.037657
vn -0.277388 0.96068 0.012242
vn -0.31656 0.948562 -0.004445
vn -0.31656 0.948562 -0.004445
vn 0.106595 0.994037 -0.022963
vn 0.107961 0.993442 -0.037657
vn 0.106595 0.994037 -0.022963
vn -0.31656 0.948562 -0.004445
vn -0.36511 0.928314 0.070196
vn -0.36511 0.928314 0.070196
vn 0.144151 0.981368 0.127029
vn 0.106595 0.994037 -0.022963
vn 0.106595 0.994037 -0.022963
vn 0.144151 0.981368 0.127029
vn 0.629506 0.773679 0.071718
vn 0.647011 0.733436 0.208444
vn 0.629506 0.773679 0.071718
vn 0.144151 0.981368 0.127029
vn 0.96227 0.256491 0.090822
vn 0.629506 0.773679 0.071718
vn 0.647011 0.733436 0.208444
vn 0.647011 0.733436 0.208444
vn 0.802205 0.455882 0.385536
vn 0.96227 0.256491 0.090822
vn 0.96227 0.256491 0.090822
vn 0.802205 0.455882 0.385536
vn 0.8283 -0.031544 0.559396
vn 0.802205 0.455882 0.385536
vn 0.232077 0.205507 0.95074
vn 0.8283 -0.031544 0.559396
vn 0.232077 0.205507 0.95074
vn 0.641469 -0.118326 0.757969
vn 0.8283 -0.031544 0.559396
vn 0.8283 -0.031544 0.559396
vn 0.878451 -0.18544 0.440381
vn 0.914191 -0.33566 0.227127
vn 0.019367 0.96362 0.266574
vn 0.144151 0.981368 0.127029
vn -0.36511 0.928314 0.070196
vn 0.144151 0.981368 0.127029
vn 0.019367 0.96362 0.266574
vn 0.647011 0.733436 0.208444
vn 0.672103 0.716771 0.185786
vn 0.647011 0.733436 0.208444
vn 0.019367 0.96362 0.266574
vn 0.672103 0.716771 0.185786
vn 0.802205 0.455882 0.385536
vn 0.647011 0.733436 0.208444
vn 0.97958 0.059488 -0.192054
vn 0.802205 0.455882 0.385536
vn 0.672103 0.716771 0.185786
vn 0.912838 -0.049508 -0.40531
vn 0.912838 -0.049508 -0.40531
vn 0.97958 0.059488 -0.192054
vn -0.36511 0.928314 0.070196
vn -0.361235 0.845567 0.393097
vn 0.019367 0.96362 0.266574
vn -0.09724 0.894598 0.436164
vn 0.019367 0.96362 0.266574
vn -0.361235 0.845567 0.393097
vn 0.019367 0.96362 0.266574
vn -0.09724 0.894598 0.436164
vn 0.672103 0.716771 0.185786
vn -0.361235 0.845567 0.393097
vn -0.352091 0.734729 0.579833
vn -0.09724 0.894598 0.436164
vn 0.955215 -0.294771 0.02598
vn 0.93363 -0.226291 -0.277716
vn 0.97958 0.059488 -0.192054
vn -0.677536 -0.191889 0.710017
vn -0.808256 0.095533 0.58103
vn -0.848002 0.145744 0.509561
vn -0.848002 0.145744 0.509561
vn -0.949606 -0.097625 0.297854
vn -0.677536 -0.191889 0.710017
vn -0.677536 -0.191889 0.710017
vn -0.949606 -0.097625 0.297854
vn -0.629246 -0.709054 0.318262
vn -0.629246 -0.709054 0.318262
vn -0.418619 -0.578945 0.699701
vn -0.677536 -0.191889 0.710017
vn -0.072183 -0.789409 0.609609
vn -0.418619 -0.578945 0.699701
vn -0.629246 -0.709054 0.318262
vn -0.629246 -0.709054 0.318262
vn 0.067441 -0.969772 0.234508
vn -0.072183 -0.789409 0.609609
vn 0.323247 -0.743856 0.584969
vn -0.072183 -0.789409 0.609609
vn 0.067441 -0.969772 0.234508
vn 0.067441 -0.969772 0.234508
vn 0.374659 -0.870611 0.318855
vn 0.323247 -0.743856 0.584969
vn -0.949606 -0.097625 0.297854
vn -0.848002 0.145744 0.509561
vn -0.93759 0.240734 -0.250942
vn -0.93759 0.240734 -0.250942
vn -0.876028 -0.165235 -0.45307
vn -0.949606 -0.097625 0.297854
vn -0.629246 -0.709054 0.318262
vn -0.949606 -0.097625 0.297854
vn -0.876028 -0.165235 -0.45307
vn -0.876028 -0.165235 -0.45307
vn -0.587056 -0.745971 -0.314472
vn -0.629246 -0.709054 0.318262
vn 0.067441 -0.969772 0.234508
vn -0.629246 -0.709054 0.318262
vn -0.587056 -0.745971 -0.314472
vn -0.587056 -0.745971 -0.314472
vn -0.071069 -0.87932 -0.470898
vn 0.067441 -0.969772 0.234508
vn 0.067441 -0.969772 0.234508
vn -0.071069 -0.87932 -0.470898
vn 0.381379 -0.858016 -0.344031
vn 0.381379 -0.858016 -0.344031
vn 0.374659 -0.870611 0.318855
vn 0.067441 -0.969772 0.234508
vn -0.876028 -0.165235 -0.45307
vn -0.93759 0.240734 -0.250942
vn -0.810017 0.223795 -0.542022
vn -0.810017 0.223795 -0.542022
vn -0.920819 -0.084155 -0.380803
vn -0.876028 -0.165235 -0.45307
vn -0.876028 -0.165235 -0.45307
vn -0.920819 -0.084155 -0.380803
vn -0.601377 -0.62614 -0.496281
vn -0.601377 -0.62614 -0.496281
vn -0.587056 -0.745971 -0.314472
vn -0.876028 -0.165235 -0.45307
vn -0.071069 -0.87932 -0.470898
vn -0.587056 -0.745971 -0.314472
vn -0.601377 -0.62614 -0.496281
vn -0.601377 -0.62614 -0.496281
vn 0.004635 -0.850332 -0.526227
vn -0.071069 -0.87932 -0.470898
vn 0.381379 -0.858016 -0.344031
vn -0.071069 -0.87932 -0.470898
vn 0.004635 -0.850332 -0.526227
vn 0.004635 -0.850332 -0.526227
vn 0.366707 -0.819883 -0.439679
vn 0.381379 -0.858016 -0.344031
vn 0.366707 -0.819883 -0.439679
vn 0.004635 -0.850332 -0.526227
vn 0.081837 -0.909837 -0.406817
vn 0.081837 -0.909837 -0.406817
vn 0.405218 -0.806547 -0.430442
vn 0.366707 -0.819883 -0.439679
vn 0.368618 -0.772361 -0.517281
vn 0.405218 -0.806547 -0.430442
vn 0.081837 -0.909837 -0.406817
vn -0.920819 -0.084155 -0.380803
vn -0.810017 0.223795 -0.542022
vn -0.944642 0.204494 -0.256581
vn -0.944642 0.204494 -0.256581
vn -0.934261 -0.164854 -0.316196
vn -0.920819 -0.084155 -0.380803
vn -0.920819 -0.084155 -0.380803
vn -0.934261 -0.164854 -0.316196
vn -0.654366 -0.689167 -0.311215
vn -0.654366 -0.689167 -0.311215
vn -0.601377 -0.62614 -0.496281
vn -0.920819 -0.084155 -0.380803
vn 0.004635 -0.850332 -0.526227
vn -0.601377 -0.62614 -0.496281
vn -0.654366 -0.689167 -0.311215
vn -0.654366 -0.689167 -0.311215
vn 0.081837 -0.909837 -0.406817
vn 0.004635 -0.850332 -0.526227
vn 0.081837 -0.909837 -0.406817
vn -0.654366 -0.689167 -0.311215
vn -0.612761 -0.651915 -0.446689
vn -0.612761 -0.651915 -0.446689
vn -0.008624 -0.840209 -0.542194
vn 0.081837 -0.909837 -0.406817
vn 0.081837 -0.909837 -0.406817
vn -0.008624 -0.840209 -0.542194
vn 0.368618 -0.772361 -0.517281
vn -0.008624 -0.840209 -0.542194
vn 0.217734 -0.485725 -0.84656
vn 0.368618 -0.772361 -0.517281
vn -0.9024 -0.063729 -0.42616
vn -0.934261 -0.164854 -0.316196
vn -0.944642 0.204494 -0.256581
vn -0.934261 -0.164854 -0.316196
vn -0.9024 -0.063729 -0.42616
vn -0.612761 -0.651915 -0.446689
vn -0.612761 -0.651915 -0.446689
vn -0.654366 -0.689167 -0.311215
vn -0.934261 -0.164854 -0.316196
vn -0.944642 0.204494 -0.256581
vn -0.883553 0.188686 -0.42864
vn -0.9024 -0.063729 -0.42616
vn -0.883553 0.188686 -0.42864
vn -0.580268 0.208931 -0.78717
vn -0.9024 -0.063729 -0.42616
vn -0.9024 -0.063729 -0.42616
vn -0.547833 -0.251537 -0.797877
vn -0.612761 -0.651915 -0.446689
vn -0.612761 -0.651915 -0.446689
vn -0.241702 -0.535827 -0.808993
vn -0.008624 -0.840209 -0.542194
vn -0.280563 0.792633 0.541311
vn -0.22979 0.758761 0.60949
vn 0.063735 0.654582 0.753299
vn 0.063735 0.654582 0.753299
vn -0.04287 0.931915 0.360135
vn -0.280563 0.792633 0.541311
vn -0.347399 0.91359 -0.211348
vn -0.280563 0.792633 0.541311
vn -0.04287 0.931915 0.360135
vn -0.04287 0.931915 0.360135
vn 0.078245 0.897876 -0.43324
vn -0.347399 0.91359 -0.211348
vn -0.272085 0.790787 -0.548294
vn -0.347399 0.91359 -0.211348
vn 0.078245 0.897876 -0.43324
vn 0.078245 0.897876 -0.43324
vn 0.06292 0.926323 -0.371439
vn -0.272085 0.790787 -0.548294
vn -0.303567 0.94606 -0.113216
vn -0.272085 0.790787 -0.548294
vn 0.06292 0.926323 -0.371439
vn 0.606954 0.693594 0.387986
vn -0.04287 0.931915 0.360135
vn 0.063735 0.654582 0.753299
vn 0.078245 0.897876 -0.43324
vn -0.04287 0.931915 0.360135
vn 0.606954 0.693594 0.387986
vn 0.606954 0.693594 0.387986
vn 0.680639 0.691059 -0.243244
vn 0.078245 0.897876 -0.43324
vn 0.078245 0.897876 -0.43324
vn 0.680639 0.691059 -0.243244
vn 0.572664 0.70075 -0.425447
vn 0.572664 0.70075 -0.425447
vn 0.06292 0.926323 -0.371439
vn 0.078245 0.897876 -0.43324
vn 0.06292 0.926323 -0.371439
vn 0.572664 0.70075 -0.425447
vn 0.62617 0.758134 -0.182056
vn 0.62617 0.758134 -0.182056
vn 0.060561 0.974896 -0.214264
vn 0.06292 0.926323 -0.371439
vn -0.326542 0.943935 -0.048547
vn 0.060561 0.974896 -0.214264
vn -0.311688 0.927824 -0.204921
vn -0.311688 0.927824 -0.204921
vn 0.060561 0.974896 -0.214264
vn -0.032164 0.927438 -0.372592
vn -0.032164 0.927438 -0.372592
vn -0.276593 0.878235 -0.390128
vn -0.311688 0.927824 -0.204921
vn 0.063735 0.654582 0.753299
vn 0.489778 0.45507 0.743659
vn 0.606954 0.693594 0.387986
vn 0.606954 0.693594 0.387986
vn 0.489778 0.45507 0.743659
vn 0.750722 0.137029 0.646251
vn 0.750722 0.137029 0.646251
vn 0.959974 0.040806 0.277099
vn 0.606954 0.693594 0.387986
vn 0.680639 0.691059 -0.243244
vn 0.606954 0.693594 0.387986
vn 0.959974 0.040806 0.277099
vn 0.959974 0.040806 0.277099
vn 0.887983 0.207792 -0.410255
vn 0.680639 0.691059 -0.243244
vn 0.572664 0.70075 -0.425447
vn 0.680639 0.691059 -0.243244
vn 0.887983 0.207792 -0.410255
vn 0.887983 0.207792 -0.410255
vn 0.886308 0.133215 -0.443522
vn 0.572664 0.70075 -0.425447
vn 0.62617 0.758134 -0.182056
vn 0.572664 0.70075 -0.425447
vn 0.886308 0.133215 -0.443522
vn 0.886308 0.133215 -0.443522
vn 0.940232 0.052365 -0.336484
vn 0.62617 0.758134 -0.182056
vn 0.59239 0.71457 -0.372108
vn 0.62617 0.758134 -0.182056
vn 0.940232 0.052365 -0.336484
vn 0.060561 0.974896 -0.214264
vn 0.62617 0.758134 -0.182056
vn 0.59239 0.71457 -0.372108
vn 0.59239 0.71457 -0.372108
vn -0.032164 0.927438 -0.372592
vn 0.060561 0.974896 -0.214264
vn -0.032164 0.927438 -0.372592
vn 0.59239 0.71457 -0.372108
vn 0.221451 0.621092 -0.751801
vn -0.276593 0.878235 -0.390128
vn -0.032164 0.927438 -0.372592
vn -0.238926 0.595372 -0.767103
vn 0.959974 0.040806 0.277099
vn 0.750722 0.137029 0.646251
vn 0.754116 -0.263422 0.601597
vn 0.754116 -0.263422 0.601597
vn 0.89647 -0.281159 0.342479
vn 0.959974 0.040806 0.277099
vn 0.959974 0.040806 0.277099
vn 0.89647 -0.281159 0.342479
vn 0.916898 -0.247855 -0.312834
vn 0.916898 -0.247855 -0.312834
vn 0.887983 0.207792 -0.410255
vn 0.959974 0.040806 0.277099
vn 0.886308 0.133215 -0.443522
vn 0.887983 0.207792 -0.410255
vn 0.916898 -0.247855 -0.312834
vn 0.916898 -0.247855 -0.312834
vn 0.888428 -0.240313 -0.391083
vn 0.886308 0.133215 -0.443522
vn 0.940232 0.052365 -0.336484
vn 0.886308 0.133215 -0.443522
vn 0.888428 -0.240313 -0.391083
vn 0.888428 -0.240313 -0.391083
vn 0.87679 -0.281253 -0.390045
vn 0.940232 0.052365 -0.336484
vn 0.940232 0.052365 -0.336484
vn 0.87679 -0.281253 -0.390045
vn 0.838451 -0.242232 -0.488184
vn 0.838451 -0.242232 -0.488184
vn 0.860962 0.141356 -0.488633
vn 0.940232 0.052365 -0.336484
vn 0.940232 0.052365 -0.336484
vn 0.860962 0.141356 -0.488633
vn 0.59239 0.71457 -0.372108
vn 0.59239 0.71457 -0.372108
vn 0.860962 0.141356 -0.488633
vn 0.54228 0.353359 -0.762279
vn 0.860962 0.141356 -0.488633
vn 0.838451 -0.242232 -0.488184
vn 0.551886 -0.106056 -0.827148
vn 0.90738 -0.283095 -0.310675
vn 0.884387 -0.204508 -0.419566
vn 0.738065 0.118977 -0.664157
vn 0.738065 0.118977 -0.664157
vn 0.991205 -0.004151 -0.132271
vn 0.90738 -0.283095 -0.310675
vn 0.779571 -0.341211 0.525208
vn 0.90738 -0.283095 -0.310675
vn 0.987891 -0.12991 0.084817
vn 0.991205 -0.004151 -0.132271
vn 0.738182 0.06012 0.671918
vn 0.779571 -0.341211 0.525208
vn 0.755058 -0.303805 0.581025
vn 0.779571 -0.341211 0.525208
vn 0.738182 0.06012 0.671918
vn 0.738182 0.06012 0.671918
vn 0.721202 0.075057 0.688647
vn 0.755058 -0.303805 0.581025
vn 0.755058 -0.303805 0.581025
vn 0.721202 0.075057 0.688647
vn 0.887378 0.020381 0.460592
vn 0.887378 0.020381 0.460592
vn 0.797604 -0.293225 0.527112
vn 0.755058 -0.303805 0.581025
vn 0.686858 0.714614 -0.132485
vn 0.947732 0.112156 -0.298705
vn 0.738065 0.118977 -0.664157
vn 0.738182 0.06012 0.671918
vn 0.991205 -0.004151 -0.132271
vn 0.686858 0.714614 -0.132485
vn 0.686858 0.714614 -0.132485
vn 0.488412 0.452776 0.745954
vn 0.738182 0.06012 0.671918
vn 0.721202 0.075057 0.688647
vn 0.738182 0.06012 0.671918
vn 0.488412 0.452776 0.745954
vn 0.488412 0.452776 0.745954
vn 0.644378 0.517497 0.563004
vn 0.721202 0.075057 0.688647
vn 0.887378 0.020381 0.460592
vn 0.721202 0.075057 0.688647
vn 0.644378 0.517497 0.563004
vn 0.644378 0.517497 0.563004
vn 0.621698 0.654279 0.430592
vn 0.887378 0.020381 0.460592
vn 0.77746 0.17992 0.602648
vn 0.887378 0.020381 0.460592
vn 0.621698 0.654279 0.430592
vn 0.887378 0.020381 0.460592
vn 0.77746 0.17992 0.602648
vn 0.670261 -0.226485 0.706721
vn 0.670261 -0.226485 0.706721
vn 0.797604 -0.293225 0.527112
vn 0.887378 0.020381 0.460592
vn 0.738065 0.118977 -0.664157
vn 0.439382 0.605342 -0.663705
vn 0.686858 0.714614 -0.132485
vn -0.085551 0.960523 -0.264719
vn 0.686858 0.714614 -0.132485
vn 0.439382 0.605342 -0.663705
vn 0.686858 0.714614 -0.132485
vn -0.085551 0.960523 -0.264719
vn 0.010035 0.747216 0.664505
vn 0.010035 0.747216 0.664505
vn 0.488412 0.452776 0.745954
vn 0.686858 0.714614 -0.132485
vn 0.488412 0.452776 0.745954
vn 0.010035 0.747216 0.664505
vn 0.128415 0.69253 0.709868
vn 0.128415 0.69253 0.709868
vn 0.644378 0.517497 0.563004
vn 0.488412 0.452776 0.745954
vn 0.621698 0.654279 0.430592
vn 0.644378 0.517497 0.563004
vn 0.128415 0.69253 0.709868
vn 0.128415 0.69253 0.709868
vn 0.026428 0.89428 0.446726
vn 0.621698 0.654279 0.430592
vn 0.534268 0.689605 0.488878
vn 0.621698 0.654279 0.430592
vn 0.026428 0.89428 0.446726
vn 0.621698 0.654279 0.430592
vn 0.534268 0.689605 0.488878
vn 0.77746 0.17992 0.602648
vn 0.439382 0.605342 -0.663705
vn -0.183873 0.773779 -0.606182
vn -0.085551 0.960523 -0.264719
vn -0.459763 0.850332 -0.256034
vn -0.085551 0.960523 -0.264719
vn -0.183873 0.773779 -0.606182
vn -0.085551 0.960523 -0.264719
vn -0.459763 0.850332 -0.256034
vn -0.461088 0.766594 0.446914
vn -0.461088 0.766594 0.446914
vn 0.010035 0.747216 0.664505
vn -0.085551 0.960523 -0.264719
vn 0.010035 0.747216 0.664505
vn -0.461088 0.766594 0.446914
vn -0.341154 0.691838 0.636376
vn -0.341154 0.691838 0.636376
vn 0.128415 0.69253 0.709868
vn 0.010035 0.747216 0.664505
vn 0.026428 0.89428 0.446726
vn 0.128415 0.69253 0.709868
vn -0.341154 0.691838 0.636376
vn -0.341154 0.691838 0.636376
vn -0.320573 0.782683 0.533517
vn 0.026428 0.89428 0.446726
vn -0.057037 0.812226 0.580548
vn 0.026428 0.89428 0.446726
vn -0.320573 0.782683 0.533517
vn 0.026428 0.89428 0.446726
vn -0.057037 0.812226 0.580548
vn 0.534268 0.689605 0.488878
vn -0.183873 0.773779 -0.606182
vn -0.401191 0.857079 -0.323203
vn -0.459763 0.850332 -0.256034
vn -0.320573 0.782683 0.533517
vn -0.287268 0.656486 0.697497
vn -0.057037 0.812226 0.580548
vn 0.009526 -0.711287 -0.702837
vn 0.336763 -0.828081 -0.448189
vn 0.41135 -0.846772 -0.337296
vn 0.41135 -0.846772 -0.337296
vn 0.137659 -0.973449 -0.182885
vn 0.009526 -0.711287 -0.702837
vn 0.009526 -0.711287 -0.702837
vn 0.0255 -0.935118 -0.353417
vn -0.612758 -0.762744 -0.206759
vn -0.612758 -0.762744 -0.206759
vn -0.511285 -0.475369 -0.715969
vn 0.009526 -0.711287 -0.702837
vn -0.511285 -0.475369 -0.715969
vn -0.612758 -0.762744 -0.206759
vn -0.948124 -0.020459 -0.317241
vn -0.948124 -0.020459 -0.317241
vn -0.75787 0.118417 -0.641569
vn -0.511285 -0.475369 -0.715969
vn -0.75787 0.118417 -0.641569
vn -0.948124 -0.020459 -0.317241
vn -0.88801 0.361895 -0.283672
vn -0.88801 0.361895 -0.283672
vn -0.884797 0.306318 -0.351147
vn -0.75787 0.118417 -0.641569
vn 0.250811 -0.967208 0.040025
vn 0.41135 -0.846772 -0.337296
vn 0.413695 -0.75889 0.502934
vn 0.413695 -0.75889 0.502934
vn 0.002698 -0.778052 0.628194
vn 0.137659 -0.973449 -0.182885
vn -0.612758 -0.762744 -0.206759
vn 0.137659 -0.973449 -0.182885
vn 0.002698 -0.778052 0.628194
vn 0.002698 -0.778052 0.628194
vn -0.424733 -0.583473 0.692215
vn -0.612758 -0.762744 -0.206759
vn -0.612758 -0.762744 -0.206759
vn -0.424733 -0.583473 0.692215
vn -0.77288 -0.14048 0.618807
vn -0.77288 -0.14048 0.618807
vn -0.948124 -0.020459 -0.317241
vn -0.612758 -0.762744 -0.206759
vn -0.948124 -0.020459 -0.317241
vn -0.77288 -0.14048 0.618807
vn -0.840391 0.336406 0.42494
vn -0.840391 0.336406 0.42494
vn -0.88801 0.361895 -0.283672
vn -0.948124 -0.020459 -0.317241
vn 0.002698 -0.778052 0.628194
vn 0.413695 -0.75889 0.502934
vn 0.371406 -0.742207 0.557841
vn 0.371406 -0.742207 0.557841
vn -0.016987 -0.763365 0.645744
vn 0.002698 -0.778052 0.628194
vn -0.424733 -0.583473 0.692215
vn 0.002698 -0.778052 0.628194
vn -0.016987 -0.763365 0.645744
vn -0.016987 -0.763365 0.645744
vn -0.459539 -0.737254 0.495259
vn -0.424733 -0.583473 0.692215
vn -0.424733 -0.583473 0.692215
vn -0.459539 -0.737254 0.495259
vn -0.707586 -0.253625 0.659543
vn -0.707586 -0.253625 0.659543
vn -0.77288 -0.14048 0.618807
vn -0.424733 -0.583473 0.692215
vn -0.77288 -0.14048 0.618807
vn -0.707586 -0.253625 0.659543
vn -0.760982 0.217169 0.611346
vn -0.760982 0.217169 0.611346
vn -0.840391 0.336406 0.42494
vn -0.77288 -0.14048 0.618807
vn 0.071233 -0.908188 0.412456
vn -0.016987 -0.763365 0.645744
vn 0.371406 -0.742207 0.557841
vn -0.459539 -0.737254 0.495259
vn -0.016987 -0.763365 0.645744
vn 0.071233 -0.908188 0.412456
vn 0.071233 -0.908188 0.412456
vn -0.589696 -0.723098 0.359706
vn -0.459539 -0.737254 0.495259
vn -0.707586 -0.253625 0.659543
vn -0.459539 -0.737254 0.495259
vn -0.589696 -0.723098 0.359706
vn -0.589696 -0.723098 0.359706
vn -0.906323 -0.162777 0.389977
vn -0.707586 -0.253625 0.659543
vn -0.760982 0.217169 0.611346
vn -0.707586 -0.253625 0.659543
vn -0.906323 -0.162777 0.389977
vn -0.906323 -0.162777 0.389977
vn -0.843377 0.187646 0.503493
vn -0.760982 0.217169 0.611346
vn -0.843377 0.187646 0.503493
vn -0.906323 -0.162777 0.389977
vn -0.840238 -0.079581 0.536346
vn -0.840238 -0.079581 0.536346
vn -0.714733 0.161236 0.680559
vn -0.843377 0.187646 0.503493
vn 0.371406 -0.742207 0.557841
vn 0.364657 -0.784007 0.502353
vn 0.071233 -0.908188 0.412456
vn 0.071233 -0.908188 0.412456
vn 0.364657 -0.784007 0.502353
vn 0.273675 -0.674511 0.685666
vn 0.273675 -0.674511 0.685666
vn -0.106135 -0.824919 0.555197
vn 0.071233 -0.908188 0.412456
vn -0.589696 -0.723098 0.359706
vn 0.071233 -0.908188 0.412456
vn -0.106135 -0.824919 0.555197
vn -0.106135 -0.824919 0.555197
vn -0.639188 -0.641663 0.423919
vn -0.589696 -0.723098 0.359706
vn -0.906323 -0.162777 0.389977
vn -0.589696 -0.723098 0.359706
vn -0.639188 -0.641663 0.423919
vn -0.639188 -0.641663 0.423919
vn -0.840238 -0.079581 0.536346
vn -0.906323 -0.162777 0.389977
vn -0.966553 -0.054898 0.250523
vn -0.802416 0.225683 0.552445
vn -0.942077 0.185868 0.279185
vn -0.942077 0.185868 0.279185
vn -0.97486 -0.169281 0.144886
vn -0.966553 -0.054898 0.250523
vn -0.689961 -0.701571 0.178188
vn -0.966553 -0.054898 0.250523
vn -0.97486 -0.169281 0.144886
vn -0.97486 -0.169281 0.144886
vn -0.742232 -0.662495 0.100955
vn -0.689961 -0.701571 0.178188
vn -0.689961 -0.701571 0.178188
vn -0.742232 -0.662495 0.100955
vn -0.389226 -0.903764 0.178085
vn -0.076381 -0.874163 0.479589
vn -0.689961 -0.701571 0.178188
vn -0.389226 -0.903764 0.178085
vn 0.241242 -0.926266 0.289538
vn -0.076381 -0.874163 0.479589
vn -0.389226 -0.903764 0.178085
vn 0.385328 -0.760145 0.523165
vn -0.076381 -0.874163 0.479589
vn 0.241242 -0.926266 0.289538
vn -0.97486 -0.169281 0.144886
vn -0.942077 0.185868 0.279185
vn -0.984688 0.169335 0.041407
vn -0.984688 0.169335 0.041407
vn -0.961017 -0.267858 0.068552
vn -0.97486 -0.169281 0.144886
vn -0.742232 -0.662495 0.100955
vn -0.97486 -0.169281 0.144886
vn -0.961017 -0.267858 0.068552
vn -0.961017 -0.267858 0.068552
vn -0.712528 -0.701591 -0.008573
vn -0.742232 -0.662495 0.100955
vn -0.742232 -0.662495 0.100955
vn -0.712528 -0.701591 -0.008573
vn -0.150159 -0.988176 -0.031002
vn -0.150159 -0.988176 -0.031002
vn -0.389226 -0.903764 0.178085
vn -0.742232 -0.662495 0.100955
vn 0.241242 -0.926266 0.289538
vn -0.389226 -0.903764 0.178085
vn -0.150159 -0.988176 -0.031002
vn 0.241242 -0.926266 0.289538
vn -0.150159 -0.988176 -0.031002
vn 0.446043 -0.89462 0.026446
vn 0.241242 -0.926266 0.289538
vn 0.446043 -0.89462 0.026446
vn 0.490268 -0.848 0.20133
vn 0.241242 -0.926266 0.289538
vn 0.490268 -0.848 0.20133
vn 0.385328 -0.760145 0.523165
vn -0.967616 -0.239045 -0.0811
vn -0.961017 -0.267858 0.068552
vn -0.984688 0.169335 0.041407
vn -0.712528 -0.701591 -0.008573
vn -0.961017 -0.267858 0.068552
vn -0.967616 -0.239045 -0.0811
vn -0.967616 -0.239045 -0.0811
vn -0.623482 -0.777415 -0.08304
vn -0.712528 -0.701591 -0.008573
vn -0.150159 -0.988176 -0.031002
vn -0.712528 -0.701591 -0.008573
vn -0.623482 -0.777415 -0.08304
vn -0.623482 -0.777415 -0.08304
vn 0.124171 -0.99027 -0.062831
vn -0.150159 -0.988176 -0.031002
vn -0.150159 -0.988176 -0.031002
vn 0.124171 -0.99027 -0.062831
vn 0.408822 -0.909887 -0.070499
vn 0.408822 -0.909887 -0.070499
vn 0.446043 -0.89462 0.026446
vn -0.150159 -0.988176 -0.031002
vn -0.984688 0.169335 0.041407
vn -0.990403 0.132254 -0.040146
vn -0.967616 -0.239045 -0.0811
vn -0.957741 -0.259391 -0.12429
vn -0.967616 -0.239045 -0.0811
vn -0.990403 0.132254 -0.040146
vn -0.623482 -0.777415 -0.08304
vn -0.967616 -0.239045 -0.0811
vn -0.957741 -0.259391 -0.12429
vn -0.957741 -0.259391 -0.12429
vn -0.664282 -0.73129 -0.154741
vn -0.623482 -0.777415 -0.08304
vn -0.037647 -0.997306 -0.062953
vn -0.623482 -0.777415 -0.08304
vn -0.664282 -0.73129 -0.154741
vn -0.623482 -0.777415 -0.08304
vn -0.037647 -0.997306 -0.062953
vn 0.137574 -0.989518 0.043915
vn 0.137574 -0.989518 0.043915
vn 0.124171 -0.99027 -0.062831
vn -0.623482 -0.777415 -0.08304
vn 0.124171 -0.99027 -0.062831
vn 0.137574 -0.989518 0.043915
vn 0.427949 -0.903378 -0.027708
vn 0.427949 -0.903378 -0.027708
vn 0.399997 -0.913853 -0.069831
vn 0.124171 -0.99027 -0.062831
vn 0.399997 -0.913853 -0.069831
vn 0.408822 -0.909887 -0.070499
vn 0.124171 -0.99027 -0.062831
vn -0.990403 0.132254 -0.040146
vn -0.99449 0.084964 -0.061407
vn -0.957741 -0.259391 -0.12429
vn -0.973694 -0.196722 -0.114976
vn -0.957741 -0.259391 -0.12429
vn -0.99449 0.084964 -0.061407
vn -0.664282 -0.73129 -0.154741
vn -0.957741 -0.259391 -0.12429
vn -0.973694 -0.196722 -0.114976
vn -0.973694 -0.196722 -0.114976
vn -0.67713 -0.719274 -0.155369
vn -0.664282 -0.73129 -0.154741
vn -0.67713 -0.719274 -0.155369
vn -0.13795 -0.97436 -0.177743
vn -0.664282 -0.73129 -0.154741
vn -0.664282 -0.73129 -0.154741
vn -0.13795 -0.97436 -0.177743
vn -0.037647 -0.997306 -0.062953
vn -0.037647 -0.997306 -0.062953
vn -0.13795 -0.97436 -0.177743
vn 0.438883 -0.884587 -0.15776
vn 0.438883 -0.884587 -0.15776
vn 0.449051 -0.893505 0.001427
vn -0.037647 -0.997306 -0.062953
vn 0.137574 -0.989518 0.043915
vn -0.037647 -0.997306 -0.062953
vn 0.449051 -0.893505 0.001427
vn 0.449051 -0.893505 0.001427
vn 0.447939 -0.893416 -0.034023
vn 0.137574 -0.989518 0.043915
vn 0.137574 -0.989518 0.043915
vn 0.447939 -0.893416 -0.034023
vn 0.427949 -0.903378 -0.027708
vn -0.99449 0.084964 -0.061407
vn -0.992781 0.070799 -0.096819
vn -0.973694 -0.196722 -0.114976
vn -0.973694 -0.196722 -0.114976
vn -0.992781 0.070799 -0.096819
vn -0.991099 0.128694 -0.034062
vn -0.991099 0.128694 -0.034062
vn -0.941783 -0.331423 -0.056598
vn -0.973694 -0.196722 -0.114976
vn -0.67713 -0.719274 -0.155369
vn -0.973694 -0.196722 -0.114976
vn -0.941783 -0.331423 -0.056598
vn -0.941783 -0.331423 -0.056598
vn -0.534597 -0.801307 -0.26854
vn -0.67713 -0.719274 -0.155369
vn -0.013227 -0.959326 -0.28199
vn -0.67713 -0.719274 -0.155369
vn -0.534597 -0.801307 -0.26854
vn -0.67713 -0.719274 -0.155369
vn -0.013227 -0.959326 -0.28199
vn -0.13795 -0.97436 -0.177743
vn 0.438883 -0.884587 -0.15776
vn -0.13795 -0.97436 -0.177743
vn -0.013227 -0.959326 -0.28199
vn -0.013227 -0.959326 -0.28199
vn 0.398971 -0.884358 -0.242349
vn 0.438883 -0.884587 -0.15776
vn 0.398971 -0.884358 -0.242349
vn -0.013227 -0.959326 -0.28199
vn 0.13847 -0.955419 -0.260769
vn 0.13847 -0.955419 -0.260769
vn 0.372843 -0.924509 -0.079191
vn 0.398971 -0.884358 -0.242349
vn 0.372843 -0.924509 -0.079191
vn 0.13847 -0.955419 -0.260769
vn 0.3503 -0.930382 -0.10807
vn 0.3503 -0.930382 -0.10807
vn 0.13847 -0.955419 -0.260769
vn 0.098543 -0.966342 -0.237639
vn 0.098543 -0.966342 -0.237639
vn 0.332232 -0.927398 -0.171914
vn 0.3503 -0.930382 -0.10807
vn -0.534597 -0.801307 -0.26854
vn 0.13847 -0.955419 -0.260769
vn -0.013227 -0.959326 -0.28199
vn 0.13847 -0.955419 -0.260769
vn -0.534597 -0.801307 -0.26854
vn 0.098543 -0.966342 -0.237639

# geoset_03, 299 grouped triangles

o geoset_03
g geoset_03

f 1/1/1 2/2/2 3/3/3
f 4/4/4 5/5/5 6/6/6
f 7/7/7 6/8/8 5/9/9
f 6/10/10 8/11/11 9/12/12
f 10/13/13 6/14/14 9/15/15
f 11/16/16 12/17/17 13/18/18
f 13/19/19 14/20/20 11/21/21
f 15/22/22 16/23/23 14/24/24
f 17/25/25 15/26/26 14/27/27
f 14/28/28 18/29/29 17/30/30
f 19/31/31 17/32/32 18/33/33
f 14/34/34 13/35/35 20/36/36
f 18/37/37 14/38/38 20/39/39
f 20/40/40 21/41/41 18/42/42
f 21/43/43 22/44/44 18/45/45
f 23/46/46 22/47/47 19/48/48
f 19/49/49 22/50/50 24/51/51
f 24/52/52 25/53/53 19/54/54
f 25/55/55 24/56/56 26/57/57
f 26/58/58 27/59/59 25/60/60
f 26/61/61 28/62/62 27/63/63
f 21/64/64 20/65/65 29/66/66
f 29/67/67 30/68/68 21/69/69
f 31/70/70 21/71/71 30/72/72
f 21/73/73 31/74/74 22/75/75
f 24/76/76 22/77/77 31/78/78
f 31/79/79 32/80/80 24/81/81
f 32/82/82 26/83/83 24/84/84
f 26/85/85 32/86/86 33/87/87
f 28/88/88 26/89/89 33/90/90
f 33/91/91 34/92/92 28/93/93
f 35/94/94 33/95/95 36/96/96
f 30/97/97 29/98/98 37/99/99
f 37/100/100 38/101/101 30/102/102
f 30/103/103 38/104/104 39/105/105
f 39/106/106 40/107/107 30/108/108
f 30/109/109 40/110/110 31/111/111
f 32/112/112 31/113/113 40/114/114
f 40/115/115 41/116/116 32/117/117
f 42/118/118 32/119/119 41/120/120
f 32/121/121 42/122/122 43/123/123
f 43/124/124 33/125/125 32/126/126
f 36/127/127 33/128/128 43/129/129
f 43/130/130 44/131/131 36/132/132
f 44/133/133 43/134/134 45/135/135
f 45/136/136 46/137/137 44/138/138
f 40/139/139 39/140/140 47/141/141
f 47/142/142 41/143/143 40/144/144
f 41/145/145 47/146/146 48/147/147
f 48/148/148 49/149/149 41/150/150
f 41/151/151 49/152/152 42/153/153
f 50/154/154 42/155/155 49/156/156
f 43/157/157 42/158/158 50/159/159
f 50/160/160 51/161/161 43/162/162
f 43/163/163 51/164/164 45/165/165
f 51/166/166 52/167/167 45/168/168
f 52/169/169 53/170/170 45/171/171
f 45/172/172 53/173/173 46/174/174
f 54/175/175 49/176/176 48/177/177
f 49/178/178 54/179/179 50/180/180
f 55/181/181 50/182/182 54/183/183
f 55/184/184 51/185/185 50/186/186
f 56/187/187 51/188/188 55/189/189
f 57/190/190 58/191/191 56/192/192
f 48/193/193 59/194/194 54/195/195
f 60/196/196 54/197/197 59/198/198
f 54/199/199 60/200/200 55/201/201
f 59/202/202 61/203/203 60/204/204
f 53/205/205 52/206/206 56/207/207
f 62/208/208 63/209/209 64/210/210
f 64/211/211 65/212/212 62/213/213
f 62/214/214 65/215/215 66/216/216
f 66/217/217 67/218/218 62/219/219
f 68/220/220 67/221/221 66/222/222
f 66/223/223 69/224/224 68/225/225
f 70/226/226 68/227/227 69/228/228
f 69/229/229 71/230/230 70/231/231
f 65/232/232 64/233/233 72/234/234
f 72/235/235 73/236/236 65/237/237
f 66/238/238 65/239/239 73/240/240
f 73/241/241 74/242/242 66/243/243
f 69/244/244 66/245/245 74/246/246
f 74/247/247 75/248/248 69/249/249
f 69/250/250 75/251/251 76/252/252
f 76/253/253 71/254/254 69/255/255
f 73/256/256 72/257/257 77/258/258
f 77/259/259 78/260/260 73/261/261
f 73/262/262 78/263/263 79/264/264
f 79/265/265 74/266/266 73/267/267
f 75/268/268 74/269/269 79/270/270
f 79/271/271 80/272/272 75/273/273
f 76/274/274 75/275/275 80/276/276
f 80/277/277 81/278/278 76/279/279
f 81/280/280 80/281/281 82/282/282
f 82/283/283 83/284/284 81/285/285
f 84/286/286 83/287/287 82/288/288
f 78/289/289 77/290/290 85/291/291
f 85/292/292 86/293/293 78/294/294
f 78/295/295 86/296/296 87/297/297
f 87/298/298 79/299/299 78/300/300
f 80/301/301 79/302/302 87/303/303
f 87/304/304 82/305/305 80/306/306
f 82/307/307 87/308/308 88/309/309
f 88/310/310 89/311/311 82/312/312
f 82/313/313 89/314/314 84/315/315
f 89/316/316 90/317/317 84/318/318
f 91/319/319 86/320/320 85/321/321
f 86/322/322 91/323/323 88/324/324
f 88/325/325 87/326/326 86/327/327
f 85/328/328 92/329/329 91/330/330
f 92/331/331 90/332/332 91/333/333
f 91/334/334 90/335/335 88/336/336
f 88/337/337 90/338/338 89/339/339
f 93/340/340 94/341/341 95/342/342
f 95/343/343 96/344/344 93/345/345
f 97/346/346 93/347/347 96/348/348
f 96/349/349 98/350/350 97/351/351
f 99/352/352 97/353/353 98/354/354
f 98/355/355 100/356/356 99/357/357
f 101/358/358 99/359/359 100/360/360
f 102/361/361 96/362/362 95/363/363
f 98/364/364 96/365/365 102/366/366
f 102/367/367 103/368/368 98/369/369
f 98/370/370 103/371/371 104/372/372
f 104/373/373 100/374/374 98/375/375
f 100/376/376 104/377/377 105/378/378
f 105/379/379 106/380/380 100/381/381
f 107/382/382 106/383/383 108/384/384
f 108/385/385 106/386/386 109/387/387
f 109/388/388 110/389/389 108/390/390
f 95/391/391 111/392/392 102/393/393
f 102/394/394 111/395/395 112/396/396
f 112/397/397 113/398/398 102/399/399
f 103/400/400 102/401/401 113/402/402
f 113/403/403 114/404/404 103/405/405
f 104/406/406 103/407/407 114/408/408
f 114/409/409 115/410/410 104/411/411
f 105/412/412 104/413/413 115/414/414
f 115/415/415 116/416/416 105/417/417
f 117/418/418 105/419/419 116/420/420
f 106/421/421 105/422/422 117/423/423
f 117/424/424 109/425/425 106/426/426
f 109/427/427 117/428/428 90/429/429
f 110/430/430 109/431/431 90/432/432
f 113/433/433 112/434/434 118/435/435
f 118/436/436 119/437/437 113/438/438
f 113/439/439 119/440/440 120/441/441
f 120/442/442 114/443/443 113/444/444
f 115/445/445 114/446/446 120/447/447
f 120/448/448 121/449/449 115/450/450
f 116/451/451 115/452/452 121/453/453
f 121/454/454 122/455/455 116/456/456
f 116/457/457 122/458/458 123/459/459
f 123/460/460 124/461/461 116/462/462
f 116/463/463 124/464/464 117/465/465
f 117/466/466 124/467/467 90/468/468
f 124/469/469 123/470/470 90/471/471
f 125/472/472 126/473/473 127/474/474
f 127/475/475 128/476/476 125/477/477
f 129/478/478 125/479/479 128/480/480
f 128/481/481 130/482/482 129/483/483
f 131/484/484 129/485/485 130/486/486
f 130/487/487 132/488/488 131/489/489
f 131/490/490 132/491/491 133/492/492
f 133/493/493 134/494/494 131/495/495
f 135/496/496 128/497/497 127/498/498
f 130/499/499 128/500/500 135/501/501
f 135/502/502 136/503/503 130/504/504
f 132/505/505 130/506/506 136/507/507
f 136/508/508 137/509/509 132/510/510
f 133/511/511 132/512/512 137/513/513
f 137/514/514 138/515/515 133/516/516
f 139/517/517 133/518/518 138/519/519
f 133/520/520 139/521/521 140/522/522
f 140/523/523 134/524/524 133/525/525
f 127/526/526 141/527/527 135/528/528
f 142/529/529 135/530/530 141/531/531
f 135/532/532 142/533/533 143/534/534
f 143/535/535 136/536/536 135/537/537
f 136/538/538 143/539/539 144/540/540
f 144/541/541 137/542/542 136/543/543
f 138/544/544 137/545/545 144/546/546
f 144/547/547 145/548/548 138/549/549
f 146/550/550 138/551/551 145/552/552
f 138/553/553 146/554/554 139/555/555
f 141/556/556 147/557/557 142/558/558
f 148/559/559 142/560/560 147/561/561
f 142/562/562 148/563/563 149/564/564
f 149/565/565 143/566/566 142/567/567
f 143/568/568 149/569/569 150/570/570
f 150/571/571 144/572/572 143/573/573
f 145/574/574 144/575/575 150/576/576
f 150/577/577 151/578/578 145/579/579
f 152/580/580 145/581/581 151/582/582
f 145/583/583 152/584/584 146/585/585
f 147/586/586 153/587/587 148/588/588
f 151/589/589 154/590/590 152/591/591
f 155/592/592 156/593/593 157/594/594
f 157/595/595 158/596/596 155/597/597
f 155/598/598 158/599/599 159/600/600
f 159/601/601 160/602/602 155/603/603
f 160/604/604 159/605/605 161/606/606
f 161/607/607 162/608/608 160/609/609
f 162/610/610 161/611/611 163/612/612
f 163/613/613 164/614/614 162/615/615
f 158/616/616 157/617/617 165/618/618
f 165/619/619 166/620/620 158/621/621
f 159/622/622 158/623/623 166/624/624
f 166/625/625 167/626/626 159/627/627
f 159/628/628 167/629/629 168/630/630
f 168/631/631 161/632/632 159/633/633
f 161/634/634 168/635/635 169/636/636
f 169/637/637 163/638/638 161/639/639
f 166/640/640 165/641/641 170/642/642
f 170/643/643 171/644/644 166/645/645
f 167/646/646 166/647/647 171/648/648
f 171/649/649 172/650/650 167/651/651
f 167/652/652 172/653/653 173/654/654
f 173/655/655 168/656/656 167/657/657
f 168/658/658 173/659/659 174/660/660
f 174/661/661 169/662/662 168/663/663
f 175/664/664 171/665/665 170/666/666
f 172/667/667 171/668/668 175/669/669
f 175/670/670 176/671/671 172/672/672
f 173/673/673 172/674/674 176/675/675
f 176/676/676 177/677/677 173/678/678
f 174/679/679 173/680/680 177/681/681
f 177/682/682 178/683/683 174/684/684
f 178/685/685 177/686/686 179/687/687
f 179/688/688 180/689/689 178/690/690
f 170/691/691 181/692/692 175/693/693
f 175/694/694 181/695/695 182/696/696
f 182/697/697 183/698/698 175/699/699
f 176/700/700 175/701/701 183/702/702
f 183/703/703 184/704/704 176/705/705
f 177/706/706 176/707/707 184/708/708
f 184/709/709 179/710/710 177/711/711
f 185/712/712 186/713/713 187/714/714
f 187/715/715 188/716/716 185/717/717
f 189/718/718 185/719/719 188/720/720
f 188/721/721 190/722/722 189/723/723
f 189/724/724 190/725/725 191/726/726
f 192/727/727 189/728/728 191/729/729
f 193/730/730 192/731/731 191/732/732
f 194/733/733 192/734/734 193/735/735
f 188/736/736 187/737/737 195/738/738
f 195/739/739 196/740/740 188/741/741
f 190/742/742 188/743/743 196/744/744
f 196/745/745 197/746/746 190/747/747
f 190/748/748 197/749/749 198/750/750
f 198/751/751 191/752/752 190/753/753
f 193/754/754 191/755/755 198/756/756
f 193/757/757 198/758/758 199/759/759
f 193/760/760 199/761/761 200/762/762
f 193/763/763 200/764/764 194/765/765
f 201/766/766 196/767/767 195/768/768
f 197/769/769 196/770/770 201/771/771
f 201/772/772 202/773/773 197/774/774
f 198/775/775 197/776/776 202/777/777
f 202/778/778 203/779/779 198/780/780
f 198/781/781 203/782/782 204/783/783
f 204/784/784 199/785/785 198/786/786
f 195/787/787 205/788/788 201/789/789
f 206/790/790 201/791/791 205/792/792
f 202/793/793 201/794/794 206/795/795
f 206/796/796 207/797/797 202/798/798
f 208/799/799 202/800/800 207/801/801
f 202/802/802 208/803/803 209/804/804
f 209/805/805 203/806/806 202/807/807
f 203/808/808 209/809/809 210/810/810
f 210/811/811 211/812/812 203/813/813
f 211/814/814 204/815/815 203/816/816
f 205/817/817 212/818/818 206/819/819
f 213/820/820 206/821/821 212/822/822
f 207/823/823 206/824/824 213/825/825
f 213/826/826 214/827/827 207/828/828
f 214/829/829 215/830/830 207/831/831
f 207/832/832 215/833/833 208/834/834
f 208/835/835 215/836/836 216/837/837
f 216/838/838 217/839/839 208/840/840
f 209/841/841 208/842/842 217/843/843
f 217/844/844 218/845/845 209/846/846
f 209/847/847 218/848/848 210/849/849
f 212/850/850 219/851/851 213/852/852
f 213/853/853 219/854/854 220/855/855
f 220/856/856 221/857/857 213/858/858
f 214/859/859 213/860/860 221/861/861
f 221/862/862 222/863/863 214/864/864
f 223/865/865 214/866/866 222/867/867
f 214/868/868 223/869/869 215/870/870
f 216/871/871 215/872/872 223/873/873
f 223/874/874 224/875/875 216/876/876
f 224/877/877 223/878/878 225/879/879
f 225/880/880 226/881/881 224/882/882
f 226/883/883 225/884/884 227/885/885
f 227/886/886 225/887/887 228/888/888
f 228/889/889 229/890/890 227/891/891
f 222/892/892 225/893/893 223/894/894
f 225/895/895 222/896/896 228/897/897
