# Wavefront OBJ exported by MilkShape 3D

v -5.390625 18.718750 1.125000
v -18.921875 0.562500 1.125000
v -16.375000 2.796875 2.750000
v -6.625000 6.859375 15.234375
v -16.375000 2.796875 2.750000
v -18.921875 0.562500 1.125000
v -6.578125 6.859375 -13.031250
v -6.562500 15.984375 -0.468750
v -5.390625 18.718750 1.125000
v -5.406250 6.187500 -16.125000
v -18.921875 0.562500 1.125000
v -16.437500 2.750000 -0.453125
v -5.390625 18.718750 1.125000
v -16.437500 2.750000 -0.453125
v -6.609375 3.812500 16.281250
v -6.625000 -10.953125 11.484375
v -5.468750 -14.109375 11.796875
v -5.437500 6.171875 18.390625
v -18.921875 0.562500 1.125000
v -16.437500 -0.281250 3.703125
v -6.640625 -10.875000 -9.203125
v -6.609375 3.781250 -13.968750
v -5.406250 6.187500 -16.125000
v -5.437500 -14.093750 -9.515625
v -16.375000 -0.296875 -1.500000
v -6.640625 -12.796875 -6.562500
v -16.390625 -2.203125 1.125000
v 18.109375 2.796875 2.781250
v 20.656250 0.562500 1.156250
v 7.125000 18.718750 1.140625
v 8.328125 6.859375 -13.031250
v 7.156250 6.187500 -16.109375
v 7.125000 18.718750 1.140625
v 18.156250 2.750000 -0.437500
v 20.656250 0.562500 1.156250
v 8.312500 3.812500 16.281250
v 7.140625 6.171875 18.390625
v 7.171875 -14.109375 11.812500
v 18.171875 -0.281250 3.718750
v 20.656250 0.562500 1.156250
v 8.375000 -10.875000 -9.187500
v 7.187500 -14.093750 -9.515625
v 7.156250 6.187500 -16.109375
v 18.109375 -0.296875 -1.484375
v 18.109375 -2.203125 1.156250
v 20.656250 0.562500 1.156250
v 7.171875 -14.109375 11.812500
v -16.375000 2.796875 2.750000
v -6.593750 15.921875 2.750000
v -5.437500 6.171875 18.390625
v -6.562500 14.406250 3.125000
v -6.578125 6.734375 13.687500
v -14.843750 3.296875 3.125000
v -6.578125 6.859375 -13.031250
v -16.437500 2.750000 -0.453125
v -6.578125 6.859375 -13.031250
v -5.406250 6.187500 -16.125000
v -5.468750 -14.109375 11.796875
v -5.437500 6.171875 18.390625
v -6.609375 3.812500 16.281250
v -16.437500 -0.281250 3.703125
v -16.390625 -2.203125 1.125000
v -5.406250 6.187500 -16.125000
v -6.640625 -10.875000 -9.203125
v -16.375000 -0.296875 -1.500000
v -6.656250 -12.796875 8.843750
v -5.468750 -14.109375 11.796875
v -5.437500 -14.093750 -9.515625
v -6.609375 -11.796875 7.656250
v -6.609375 -11.781250 -5.375000
v -14.843750 -2.828125 1.125000
v 8.296875 -9.531250 10.906250
v 16.625000 -0.468750 4.312500
v 8.281250 3.000000 14.968750
v 18.171875 -0.281250 3.718750
v 8.312500 3.812500 16.281250
v 8.281250 3.000000 14.968750
v 8.343750 -10.953125 11.484375
v 20.656250 0.562500 1.156250
v 18.109375 2.796875 2.781250
v 8.343750 6.859375 15.234375
v 8.296875 6.734375 13.687500
v 8.281250 14.406250 3.125000
v 8.328125 15.921875 2.765625
v 7.140625 6.171875 18.390625
v 16.562500 3.296875 3.140625
v 8.328125 6.859375 -13.031250
v 18.156250 2.750000 -0.437500
v 16.625000 3.250000 -0.812500
v 8.265625 14.484375 -0.828125
v 8.296875 15.984375 -0.453125
v 8.281250 6.734375 -11.484375
v 7.125000 18.718750 1.140625
v 8.375000 -10.875000 -9.187500
v 18.109375 -0.296875 -1.484375
v 16.578125 -0.484375 -2.078125
v 8.312500 2.953125 -12.640625
v 8.359375 3.781250 -13.953125
v 7.156250 6.187500 -16.109375
v 8.343750 -9.453125 -8.593750
v 18.109375 -2.203125 1.156250
v 8.390625 -12.796875 -6.562500
v 8.343750 -11.781250 -5.375000
v 8.343750 -11.796875 7.671875
v 8.375000 -12.796875 8.859375
v 7.187500 -14.093750 -9.515625
v 16.578125 -2.828125 1.156250
v 7.171875 -14.109375 11.812500
v -5.406250 6.187500 -16.125000
v -5.390625 18.718750 1.125000
v -4.296875 19.484375 1.125000
v -4.296875 6.375000 -16.921875
v -5.437500 -14.093750 -9.515625
v -4.328125 -14.859375 -10.015625
v -5.468750 -14.109375 11.796875
v -4.343750 -14.875000 12.296875
v 0.890625 -14.859375 -10.015625
v 0.875000 -14.859375 12.312500
v 0.875000 19.484375 1.125000
v 0.890625 6.375000 -16.921875
v 5.984375 6.375000 -16.921875
v 6.015625 -14.859375 -10.015625
v 6.000000 -14.875000 12.312500
v 5.953125 19.484375 1.140625
v 7.156250 6.187500 -16.109375
v 7.187500 -14.093750 -9.515625
v 6.015625 -14.859375 -10.015625
v 7.171875 -14.109375 11.812500
v 7.125000 18.718750 1.140625
v -5.437500 6.171875 18.390625
v -5.468750 -14.109375 11.796875
v -4.343750 -14.875000 12.296875
v -4.328125 6.359375 19.187500
v -5.390625 18.718750 1.125000
v -4.296875 19.484375 1.125000
v 0.875000 6.359375 19.187500
v 0.875000 19.484375 1.125000
v 5.953125 19.484375 1.140625
v 0.875000 -14.859375 12.312500
v 5.968750 6.359375 19.203125
v 7.140625 6.171875 18.390625
v 7.125000 18.718750 1.140625
v 6.000000 -14.875000 12.312500
v 7.171875 -14.109375 11.812500
v -6.531250 6.734375 -11.484375
v -14.890625 3.250000 -0.828125
v -6.531250 14.484375 -0.828125
v -6.562500 3.000000 14.953125
v -14.906250 -0.468750 4.296875
v -6.578125 -9.531250 10.890625
v -16.437500 -0.281250 3.703125
v -6.593750 -9.453125 -8.609375
v -14.843750 -0.484375 -2.093750
v -6.578125 2.953125 -12.640625
v 0.937500 31.859375 -19.703125
v 0.890625 5.703125 -15.593750
v -4.312500 10.156250 -5.734375
v 6.109375 10.171875 -5.734375
v 0.906250 18.281250 0.828125
v 0.906250 31.843750 22.109375
v 0.906250 18.281250 1.578125
v -4.328125 10.156250 8.156250
v 6.093750 10.171875 8.156250
v 0.875000 5.687500 18.015625
v 0.484375 -11.437500 34.796875
v 0.515625 6.203125 17.203125
v -4.703125 -4.375000 13.671875
v 5.718750 -4.359375 13.671875
v 0.500000 -13.531250 10.593750
v 0.468750 -35.140625 1.359375
v 0.500000 -12.859375 11.031250
v -4.703125 -12.859375 1.343750
v 5.718750 -12.843750 1.359375
v 0.515625 -12.843750 -9.796875
v 0.531250 -11.421875 -32.343750
v 0.500000 -13.531250 -8.140625
v -4.687500 -4.359375 -11.218750
v 5.734375 -4.343750 -11.218750
v 0.546875 6.218750 -14.765625
# 179 vertices

vt 0.794434 0.826660
vt 0.794922 0.995117
vt 0.810059 0.934082
vt 0.856934 0.846191
vt 0.808106 0.848145
vt 0.880859 0.826660
vt 0.812012 0.851562
vt 0.850098 0.851074
vt 0.812012 0.925781
vt 0.690430 0.771484
vt 0.690430 0.724609
vt 0.699219 0.724609
vt 0.699219 0.771484
vt 0.690430 0.890625
vt 0.699219 0.890625
vt 0.690430 0.999512
vt 0.699219 0.999512
vt 0.710938 0.890625
vt 0.710938 0.999512
vt 0.710938 0.724609
vt 0.710938 0.771484
vt 0.722656 0.771484
vt 0.722656 0.890625
vt 0.722656 0.999512
vt 0.722656 0.724609
vt 0.731934 0.771484
vt 0.731934 0.890625
vt 0.731934 0.999512
vt 0.731934 0.724609
vt 0.690430 0.878906
vt 0.699219 0.878906
vt 0.710938 0.878906
vt 0.722656 0.878906
vt 0.731934 0.878906
vt 0.343750 0.666504
vt 0.373047 0.441894
vt 0.344238 0.441894
vt 0.312988 0.441894
# 38 texture coordinates

vn -0.736071 0.547705 0.397766
vn -0.922750 0.212729 -0.321370
vn -0.483985 0.803234 0.347237
vn -0.852897 0.482273 0.199950
vn -0.735247 0.550830 0.394966
vn -0.737279 0.547043 -0.396438
vn -0.853251 0.341226 -0.394371
vn -0.735559 0.548543 -0.397559
vn -0.925172 0.176532 -0.335995
vn -0.484274 0.582951 -0.652416
vn -0.735328 0.548121 -0.398566
vn -0.739233 -0.207370 0.640728
vn -0.854990 -0.040938 0.517026
vn -0.737454 -0.206528 0.643046
vn -0.800595 -0.428583 0.418765
vn -0.737292 -0.207481 -0.642925
vn -0.853459 -0.267825 -0.447077
vn -0.734979 -0.210753 -0.644507
vn -0.485893 -0.440169 -0.755089
vn -0.853537 -0.507779 0.116767
vn -0.735759 -0.677217 -0.005997
vn 0.735254 0.548304 0.398452
vn 0.923054 0.212587 -0.320591
vn 0.732517 0.551392 -0.399232
vn 0.735361 0.548621 -0.397819
vn 0.734561 0.552085 -0.394489
vn 0.926499 0.177438 -0.331836
vn 0.738411 -0.207023 0.641787
vn 0.735988 -0.209161 0.643874
vn 0.735113 -0.206852 0.645617
vn 0.738971 -0.207280 -0.641059
vn 0.736869 -0.207225 -0.643492
vn 0.736977 -0.209284 -0.642702
vn 0.735598 -0.677415 -0.001865
vn 0.794852 -0.561625 0.229756
vn 0.794659 -0.392322 0.463251
vn -0.720795 0.390845 0.572447
vn -0.736540 0.548234 0.396168
vn -0.901027 0.210939 0.379019
vn -0.689780 0.721518 0.060125
vn -0.487102 0.583554 0.649767
vn -0.689271 0.722086 -0.059132
vn -0.795080 -0.391356 0.463345
vn -0.737044 -0.208638 0.642834
vn -0.710634 -0.475357 0.518686
vn -0.736833 -0.209832 0.642688
vn -0.484601 -0.854118 0.188798
vn -0.733232 -0.210137 -0.646694
vn -0.709800 0.078488 -0.700017
vn -0.736835 -0.212030 -0.641963
vn -0.720059 -0.651644 -0.238485
vn -0.736817 -0.676080 -0.004194
vn -0.736987 -0.675904 -0.001989
vn -0.900383 -0.393653 -0.185329
vn -0.689407 -0.621676 0.371802
vn -0.485023 -0.854388 -0.186477
vn 0.691983 0.162844 0.703307
vn 0.484565 -0.441527 0.755150
vn 0.736167 -0.207887 0.644082
vn 0.548353 -0.116996 0.828022
vn 0.709395 -0.473953 0.521658
vn 0.931819 -0.319761 0.171659
vn 0.853498 -0.042723 0.519342
vn 0.546162 0.753816 0.365334
vn 0.853787 0.480445 0.200549
vn 0.689209 0.722111 0.059556
vn 0.901298 0.205617 0.381293
vn 0.718141 0.387580 0.577975
vn 0.480109 0.581205 0.657036
vn 0.711154 0.689176 -0.138915
vn 0.551755 0.580099 -0.599210
vn 0.484744 0.803042 -0.346622
vn 0.693282 0.286999 -0.661054
vn 0.853863 0.341840 -0.392509
vn 0.899963 0.428851 -0.078438
vn 0.736984 0.547150 -0.396839
vn 0.708666 0.078740 -0.701137
vn 0.550481 -0.389749 -0.738286
vn 0.484509 -0.085106 -0.870636
vn 0.693572 -0.542068 -0.474469
vn 0.854214 -0.266424 -0.446472
vn 0.900214 0.057781 -0.431598
vn 0.548660 -0.823015 0.147035
vn 0.852826 -0.508302 0.119656
vn 0.691141 -0.619399 0.372383
vn 0.901027 -0.392961 -0.183662
vn 0.719630 -0.653409 -0.234923
vn 0.487243 -0.853263 -0.185840
vn 0.736580 -0.676350 -0.000512
vn -0.574150 0.435656 -0.693222
vn -0.492908 0.704154 -0.511086
vn -0.336684 0.761902 -0.553308
vn -0.327841 0.313711 -0.891126
vn -0.617025 -0.504886 -0.603631
vn -0.351780 -0.742779 -0.569676
vn -0.565389 -0.824824 -0.001205
vn -0.194098 -0.980982 -0.000580
vn -0.000010 -0.865325 -0.501211
vn -0.000027 -1.000000 -0.000000
vn 0.000452 0.809130 -0.587630
vn 0.000000 0.168891 -0.985635
vn 0.272276 0.213308 -0.938278
vn 0.000000 -0.808896 -0.587951
vn 0.188254 -0.982120 -0.000313
vn 0.322467 0.766271 -0.555737
vn 0.555836 0.443562 -0.703063
vn 0.598966 -0.514780 -0.613384
vn 0.608831 -0.731480 -0.307021
vn 0.546950 -0.837165 -0.000208
vn 0.467520 0.715591 -0.518994
vn -0.590071 0.070436 0.804273
vn -0.534617 -0.260546 0.803928
vn -0.369617 -0.286574 0.883888
vn -0.317908 0.281507 0.905366
vn -0.490262 0.705594 0.511646
vn -0.169287 0.797441 0.579163
vn -0.001307 0.524332 0.851513
vn -0.000904 0.808978 0.587839
vn 0.241404 0.785092 0.570399
vn -0.001446 -0.308444 0.951241
vn 0.308423 0.077609 0.948078
vn 0.555713 0.443243 0.703363
vn 0.467260 0.715193 0.519776
vn 0.268978 -0.296925 0.916235
vn 0.519995 -0.262880 0.812711
vn -0.899915 0.428774 -0.079415
vn -0.483073 0.803868 -0.347040
vn -0.690117 0.285058 -0.665192
vn -0.901743 -0.298067 0.313075
vn -0.483896 -0.444085 0.754078
vn -0.691001 0.164695 0.703842
vn -0.361982 -0.030127 0.931698
vn -0.899525 0.058259 -0.432968
vn -0.483408 -0.084159 -0.871340
vn -0.690666 -0.542780 -0.477882
vn 0.000354 0.843234 -0.537547
vn -0.000162 -0.155205 -0.987882
vn -0.979932 0.168280 -0.106841
vn 0.980489 0.165560 -0.105978
vn 0.000447 0.834095 0.551621
vn 0.001562 0.842897 0.538072
vn 0.001550 0.834386 -0.551178
vn -0.980015 0.168241 0.106144
vn 0.980342 0.165736 0.107053
vn -0.000291 -0.154629 0.987973
vn -0.000708 -0.431112 0.902298
vn -0.000105 0.706166 0.708047
vn -0.973559 -0.098302 0.206205
vn 0.973102 -0.099497 0.207779
vn -0.000479 -0.996279 0.086185
vn -0.001212 -0.992659 0.120939
vn -0.001268 -0.398183 0.917305
vn -0.973755 -0.226007 0.026863
vn 0.972984 -0.229098 0.028584
vn 0.000307 -0.447465 -0.894302
vn 0.000112 -0.430520 -0.902581
vn -0.001164 -0.996223 -0.086825
vn -0.973291 -0.097446 -0.207865
vn 0.973376 -0.100065 -0.206217
vn 0.001373 0.705850 -0.708360
# 160 normals

g geoset_03
s 1
f 1/1/1 2/2/2 3/3/3
f 4/4/4 5/3/5 6/2/5
f 7/4/6 8/5/7 9/1/6
f 10/6/8 11/2/9 12/3/10
f 11/2/9 13/1/11 8/5/7
f 8/5/7 14/3/8 2/2/2
f 15/4/12 16/5/13 17/1/12
f 18/6/14 19/2/15 20/3/14
f 21/4/16 22/5/17 23/1/16
f 24/6/18 2/2/2 25/3/19
f 26/4/20 27/3/21 11/2/9
f 28/3/22 29/2/23 30/1/22
f 31/4/24 32/6/25 33/1/24
f 34/3/26 35/2/27 32/6/25
f 36/4/28 37/6/29 38/1/28
f 39/3/29 40/2/30 37/6/29
f 41/4/31 42/6/32 43/1/31
f 44/3/33 29/2/23 42/6/32
f 45/3/34 46/2/35 47/1/36
f 48/3/1 49/5/37 1/1/1
f 50/6/38 1/1/1 49/5/37
f 49/5/37 4/4/4 50/6/38
f 2/2/2 50/6/38 4/4/4
f 4/4/4 49/5/37 51/7/39
f 51/7/39 52/8/40 4/4/4
f 3/3/3 4/4/4 52/8/40
f 52/8/40 53/9/41 3/3/3
f 49/5/37 3/3/3 53/9/41
f 53/9/41 51/7/39 49/5/37
f 52/8/40 51/7/39 53/9/41
f 13/1/11 10/6/8 54/4/42
f 55/3/8 56/4/8 57/6/8
f 58/1/43 59/6/44 60/4/45
f 61/3/46 60/4/45 59/6/44
f 16/5/13 61/3/46 19/2/15
f 19/2/15 58/1/43 16/5/13
f 58/1/43 19/2/15 62/3/47
f 63/1/48 24/6/18 64/4/49
f 65/3/50 64/4/49 24/6/18
f 2/2/2 63/1/48 22/5/17
f 22/5/17 65/3/50 2/2/2
f 27/3/21 66/5/51 67/1/52
f 68/6/53 67/1/52 66/5/51
f 66/5/51 26/4/20 68/6/53
f 19/2/15 68/6/53 26/4/20
f 26/4/20 66/5/51 69/7/54
f 69/7/54 70/8/55 26/4/20
f 62/3/47 26/4/20 70/8/55
f 70/8/55 71/9/56 62/3/47
f 66/5/51 62/3/47 71/9/56
f 71/9/56 69/7/54 66/5/51
f 70/8/55 69/7/54 71/9/56
f 72/7/57 73/9/58 74/8/59
f 75/3/60 73/9/58 72/7/57
f 73/9/58 75/3/60 76/4/61
f 76/4/61 77/8/62 73/9/58
f 77/8/62 76/4/61 78/5/63
f 78/5/63 72/7/57 77/8/62
f 72/7/57 78/5/63 75/3/60
f 46/2/35 75/3/60 78/5/63
f 37/6/29 76/4/61 75/3/60
f 47/1/36 78/5/63 76/4/61
f 78/5/63 47/1/36 40/2/30
f 79/2/22 80/3/64 81/4/65
f 82/8/66 81/4/65 80/3/64
f 81/4/65 82/8/66 83/7/67
f 83/7/67 84/5/68 81/4/65
f 85/6/22 81/4/65 84/5/68
f 81/4/65 85/6/22 29/2/23
f 80/3/64 86/9/69 82/8/66
f 82/8/66 86/9/69 83/7/67
f 84/5/68 83/7/67 86/9/69
f 86/9/69 80/3/64 84/5/68
f 30/1/22 84/5/68 80/3/64
f 84/5/68 30/1/22 85/6/22
f 32/6/25 87/4/70 88/3/71
f 89/9/72 88/3/71 87/4/70
f 88/3/71 89/9/72 90/7/73
f 90/7/73 91/5/74 88/3/71
f 29/2/23 88/3/71 91/5/74
f 87/4/70 92/8/75 89/9/72
f 90/7/73 89/9/72 92/8/75
f 91/5/74 90/7/73 92/8/75
f 92/8/75 87/4/70 91/5/74
f 93/1/76 91/5/74 87/4/70
f 91/5/74 93/1/76 35/2/27
f 42/6/32 94/4/77 95/3/78
f 96/9/79 95/3/78 94/4/77
f 95/3/78 96/9/79 97/7/80
f 97/7/80 98/5/81 95/3/78
f 29/2/23 95/3/78 98/5/81
f 98/5/81 99/1/33 29/2/23
f 99/1/33 98/5/81 94/4/77
f 100/8/82 94/4/77 98/5/81
f 94/4/77 100/8/82 96/9/79
f 97/7/80 96/9/79 100/8/82
f 98/5/81 97/7/80 100/8/82
f 35/2/27 101/3/83 102/4/84
f 103/8/85 102/4/84 101/3/83
f 102/4/84 103/8/85 104/7/86
f 104/7/86 105/5/87 102/4/84
f 106/6/34 102/4/84 105/5/87
f 102/4/84 106/6/34 46/2/35
f 101/3/83 107/9/88 103/8/85
f 103/8/85 107/9/88 104/7/86
f 105/5/87 104/7/86 107/9/88
f 107/9/88 101/3/83 105/5/87
f 108/1/89 105/5/87 101/3/83
f 105/5/87 108/1/89 106/6/34
f 109/10/90 110/11/91 111/12/92
f 111/12/92 112/13/93 109/10/90
f 113/14/94 109/10/90 112/13/93
f 112/13/93 114/15/95 113/14/94
f 115/16/96 113/14/94 114/15/95
f 114/15/95 116/17/97 115/16/96
f 116/17/97 114/15/95 117/18/98
f 117/18/98 118/19/99 116/17/97
f 112/13/93 111/12/92 119/20/100
f 119/20/100 120/21/101 112/13/93
f 114/15/95 112/13/93 120/21/101
f 120/21/101 117/18/98 114/15/95
f 117/18/98 120/21/101 121/22/102
f 121/22/102 122/23/103 117/18/98
f 117/18/98 122/23/103 123/24/104
f 123/24/104 118/19/99 117/18/98
f 121/22/102 120/21/101 119/20/100
f 119/20/100 124/25/105 121/22/102
f 125/26/106 121/22/102 124/25/105
f 121/22/102 125/26/106 126/27/107
f 126/27/107 127/23/108 121/22/102
f 127/23/108 126/27/107 128/28/109
f 128/28/109 123/24/104 127/23/108
f 124/25/105 129/29/110 125/26/106
f 130/30/111 131/16/112 132/17/113
f 132/17/113 133/31/114 130/30/111
f 134/11/115 130/30/111 133/31/114
f 133/31/114 135/12/116 134/11/115
f 135/12/116 133/31/114 136/32/117
f 136/32/117 137/20/118 135/12/116
f 138/25/119 137/20/118 136/32/117
f 133/31/114 132/17/113 139/19/120
f 139/19/120 136/32/117 133/31/114
f 140/33/121 136/32/117 139/19/120
f 136/32/117 140/33/121 138/25/119
f 138/25/119 140/33/121 141/34/122
f 141/34/122 142/29/123 138/25/119
f 139/19/120 143/24/124 140/33/121
f 140/33/121 143/24/124 144/28/125
f 144/28/125 141/34/122 140/33/121
f 8/5/7 54/4/42 145/8/126
f 146/9/127 145/8/126 54/4/42
f 147/7/128 145/8/126 146/9/127
f 145/8/126 147/7/128 8/5/7
f 12/3/10 8/5/7 147/7/128
f 147/7/128 146/9/127 12/3/10
f 54/4/42 12/3/10 146/9/127
f 16/5/13 60/4/45 148/8/129
f 149/9/130 148/8/129 60/4/45
f 150/7/131 148/8/129 149/9/130
f 148/8/129 150/7/131 16/5/13
f 151/3/132 16/5/13 150/7/131
f 150/7/131 149/9/130 151/3/132
f 60/4/45 151/3/132 149/9/130
f 22/5/17 64/4/49 152/8/133
f 153/9/134 152/8/133 64/4/49
f 154/7/135 152/8/133 153/9/134
f 152/8/133 154/7/135 22/5/17
f 25/3/19 22/5/17 154/7/135
f 154/7/135 153/9/134 25/3/19
f 64/4/49 25/3/19 153/9/134
f 155/35/136 156/36/137 157/37/138
f 156/36/137 155/35/136 158/37/139
f 155/35/136 159/38/140 158/37/139
f 159/38/140 155/35/136 157/37/138
f 160/35/141 161/38/142 162/37/143
f 161/38/142 160/35/141 163/37/144
f 160/35/141 164/36/145 163/37/144
f 164/36/145 160/35/141 162/37/143
f 165/35/146 166/36/147 167/37/148
f 166/36/147 165/35/146 168/37/149
f 165/35/146 169/38/150 168/37/149
f 169/38/150 165/35/146 167/37/148
f 170/35/151 171/38/152 172/37/153
f 171/38/152 170/35/151 173/37/154
f 170/35/151 174/36/155 173/37/154
f 174/36/155 170/35/151 172/37/153
f 175/35/156 176/38/157 177/37/158
f 176/38/157 175/35/156 178/37/159
f 175/35/156 179/36/160 178/37/159
f 179/36/160 175/35/156 177/37/158
# 190 triangles in group

# 190 triangles total

