version 1
nodes
  0 "Hips"  -1
  1 "LLegUpper"   0
  2 "LLegLower"   1
  3 "LFoot"   2
  4 "LToes"   3
  5 "RLegUpper"   0
  6 "RLegLower"   5
  7 "RFoot"   6
  8 "RToes"   7
  9 "BodyLower"   0
 10 "BodyUpper"   9
 11 "Head"  10
 12 "Jaw"  11
 13 "HeadRBrow"  11
 14 "HeadLBrow"  11
 15 "RArm"  10
 16 "RArm2"  15
 17 "RPalm"  16
 18 "RFingStart"  17
 19 "RFingEnd"  18
 20 "RThumbStart"  17
 21 "RThumbEnd"  20
 22 "LArm"  10
 23 "LArm2"  22
 24 "LPalm"  23
 25 "LThumStart"  24
 26 "LThumEnd"  25
 27 "LFingStart"  24
 28 "LFingEnd"  27
 29 "GeoSphere01"   9
end
skeleton
time 0
  0 1.278131 -1.278131 45.578148 0.000000 0.000000 -0.000048
  1 9.062670 0.286610 -3.406700 -0.197422 -0.033741 -0.040153
  2 4.544490 -1.638600 -20.622749 0.474614 0.018840 0.107274
  3 3.070910 1.647970 -15.136740 -0.273973 -0.022297 -0.057383
  4 -0.361640 -14.308061 -6.406600 0.000000 0.000000 0.000000
  5 -9.522449 0.590440 -3.372560 -0.217970 0.000646 0.045168
  6 -4.141180 -1.081730 -20.790251 0.531855 0.063696 -0.093660
  7 -3.014440 0.974200 -14.527950 -0.316609 -0.021906 0.070254
  8 0.361640 -14.494990 -6.882030 0.000000 0.000000 0.000000
  9 0.013460 -1.507020 5.475230 0.000000 0.000000 0.000000
 10 -0.004780 1.092750 22.735540 0.000000 0.000000 0.000000
 11 -0.976790 -3.346690 20.865768 0.000000 0.000000 0.000000
 12 0.975190 -4.916450 -4.520320 0.000000 0.000000 0.000000
 13 -2.406500 -8.600220 4.877150 0.000000 0.000000 0.000000
 14 4.381730 -8.600220 5.272540 0.000000 0.000000 0.000000
 15 -18.388140 0.440630 8.679390 0.321576 -0.839701 -0.243115
 16 -21.955891 -0.759690 -12.109390 -0.283269 0.048166 0.334658
 17 -13.311041 1.530050 -7.133010 0.000005 -0.000018 -0.000010
 18 -9.635210 -0.302230 -6.530870 0.000000 0.000000 0.000000
 19 -3.126290 0.042420 -2.638810 0.000000 0.000000 0.000000
 20 -2.839340 -5.564580 -4.296970 0.000000 0.000000 0.000000
 21 -3.811070 -2.785450 -1.806430 0.000000 0.000000 0.000000
 22 18.455151 0.440630 8.679390 0.297275 0.766357 0.209372
 23 21.943432 -0.878860 -11.911369 -0.308813 -0.048791 -0.311007
 24 13.133340 0.635550 -6.798010 0.000000 0.000000 0.000000
 25 3.689260 -4.550930 -4.829990 0.000000 0.000000 0.000000
 26 3.087020 -2.930260 -1.806420 0.000000 0.000000 0.000000
 27 10.169240 0.711430 -6.708540 0.000000 0.000000 0.000000
 28 2.770930 0.042420 -2.816470 0.000000 0.000000 0.000000
 29 -52.850708 -0.361260 -67.170868 1.570802 -0.000018 -0.000537
time 1
  0 1.278131 -1.278131 44.808594 0.000000 0.000000 0.008038
  1 9.062670 0.286610 -3.406700 -0.249819 -0.045933 -0.050011
  2 4.544490 -1.638600 -20.622749 0.594427 0.015424 0.134767
  3 3.070910 1.647970 -15.136740 -0.337115 -0.029640 -0.075861
  4 -0.361640 -14.308061 -6.406600 0.000000 0.000000 0.000000
  5 -9.522449 0.590440 -3.372560 -0.261427 0.004201 0.054901
  6 -4.141180 -1.081730 -20.790251 0.649851 0.084048 -0.109144
  7 -3.014440 0.974200 -14.527950 -0.392142 -0.028520 0.081061
  8 0.361640 -14.494990 -6.882030 0.000000 0.000000 0.000000
  9 0.013460 -1.507020 5.475230 0.000000 0.000000 0.000907
 10 -0.004780 1.092750 22.735540 0.000000 0.000000 0.000000
 11 -0.976790 -3.346690 20.865768 0.003012 0.000000 -0.006397
 12 0.975190 -4.916450 -4.520320 0.005083 0.000000 0.000000
 13 -2.406500 -8.600220 4.877150 0.000000 0.007454 0.000000
 14 4.381730 -8.600220 5.272540 0.000000 -0.010319 0.000000
 15 -18.388140 0.440630 8.679390 0.403906 -0.870014 -0.292409
 16 -21.955891 -0.759690 -12.109390 -0.370759 0.105256 0.398736
 17 -13.311041 1.530050 -7.133010 -0.003542 0.000053 0.003466
 18 -9.635210 -0.302230 -6.530870 0.000000 -0.075809 0.000000
 19 -3.126290 0.042420 -2.638810 0.000000 -0.038926 0.000000
 20 -2.839340 -5.564580 -4.296970 0.004717 -0.000887 -0.005212
 21 -3.811070 -2.785450 -1.806430 0.000000 0.000000 0.000000
 22 18.455151 0.440630 8.679390 0.316155 0.759788 0.228914
 23 21.943432 -0.878860 -11.911369 -0.343043 -0.044143 -0.353841
 24 13.133340 0.635550 -6.798010 0.000000 0.000000 0.000000
 25 3.689260 -4.550930 -4.829990 0.000000 0.000000 0.000000
 26 3.087020 -2.930260 -1.806420 0.000000 0.000000 0.000000
 27 10.169240 0.711430 -6.708540 0.000000 0.108721 0.000000
 28 2.770930 0.042420 -2.816470 0.000000 0.090303 0.000000
 29 -52.850708 -0.361260 -67.170868 1.570802 -0.000018 -0.000537
time 2
  0 1.278131 -1.278131 43.699184 0.000000 0.000000 0.031012
  1 9.062670 0.286610 -3.406700 -0.322124 -0.064061 -0.062817
  2 4.544490 -1.638600 -20.622749 0.746692 0.006388 0.168839
  3 3.070910 1.647970 -15.136740 -0.407302 -0.042423 -0.105306
  4 -0.361640 -14.308061 -6.406600 0.000000 0.000000 0.000000
  5 -9.522449 0.590440 -3.372560 -0.306932 0.009712 0.065020
  6 -4.141180 -1.081730 -20.790251 0.794691 0.111300 -0.124712
  7 -3.014440 0.974200 -14.527950 -0.492016 -0.042464 0.086503
  8 0.361640 -14.494990 -6.882030 0.000000 0.000000 0.000000
  9 0.013460 -1.507020 5.475230 0.000000 0.000000 0.003501
 10 -0.004780 1.092750 22.735540 0.000000 0.000000 0.000000
 11 -0.976790 -3.346690 20.865768 0.011779 0.000000 -0.025103
 12 0.975190 -4.916450 -4.520320 0.019732 0.000000 0.000000
 13 -2.406500 -8.600220 4.877150 0.000000 0.027445 0.000000
 14 4.381730 -8.600220 5.272540 0.000000 -0.037967 0.000000
 15 -18.388140 0.440630 8.679390 0.517343 -0.893084 -0.357949
 16 -21.955891 -0.759690 -12.109390 -0.479439 0.235622 0.476117
 17 -13.311041 1.530050 -7.133010 -0.013463 0.000267 0.013209
 18 -9.635210 -0.302230 -6.530870 0.000000 -0.275866 0.000000
 19 -3.126290 0.042420 -2.638810 0.000000 -0.141672 0.000000
 20 -2.839340 -5.564580 -4.296970 0.017956 -0.003404 -0.019820
 21 -3.811070 -2.785450 -1.806430 0.000000 0.000000 0.000000
 22 18.455151 0.440630 8.679390 0.335036 0.741087 0.249824
 23 21.943432 -0.878860 -11.911369 -0.376968 -0.030846 -0.401798
 24 13.133340 0.635550 -6.798010 0.000000 0.000000 0.000000
 25 3.689260 -4.550930 -4.829990 0.000000 0.000000 0.000000
 26 3.087020 -2.930260 -1.806420 0.000000 0.000000 0.000000
 27 10.169240 0.711430 -6.708540 0.000000 0.380524 0.000000
 28 2.770930 0.042420 -2.816470 0.000000 0.316081 0.000000
 29 -52.850708 -0.361260 -67.170868 1.570802 -0.000018 -0.000537
time 3
  0 1.278131 -1.278131 42.378830 0.000000 0.000000 0.067060
  1 9.062670 0.286610 -3.406700 -0.402954 -0.085902 -0.075777
  2 4.544490 -1.638600 -20.622749 0.903955 -0.008305 0.202264
  3 3.070910 1.647970 -15.136740 -0.469173 -0.060499 -0.140987
  4 -0.361640 -14.308061 -6.406600 0.000000 0.000000 0.000000
  5 -9.522449 0.590440 -3.372560 -0.344246 0.016157 0.073465
  6 -4.141180 -1.081730 -20.790251 0.941858 0.140976 -0.136361
  7 -3.014440 0.974200 -14.527950 -0.601367 -0.065024 0.087228
  8 0.361640 -14.494990 -6.882030 0.000000 0.000000 0.000000
  9 0.013460 -1.507020 5.475230 0.000000 0.000000 0.007582
 10 -0.004780 1.092750 22.735540 0.000000 0.000000 0.000000
 11 -0.976790 -3.346690 20.865768 0.024433 0.000000 -0.055148
 12 0.975190 -4.916450 -4.520320 0.042786 0.000000 0.000000
 13 -2.406500 -8.600220 4.877150 0.000000 0.056376 0.000000
 14 4.381730 -8.600220 5.272540 0.000000 -0.078008 0.000000
 15 -18.388140 0.440630 8.679390 0.648890 -0.909852 -0.432695
 16 -21.955891 -0.759690 -12.109390 -0.605409 0.414331 0.563065
 17 -13.311041 1.530050 -7.133010 -0.028720 0.000599 0.028154
 18 -9.635210 -0.302230 -6.530870 0.000000 -0.558628 0.000000
 19 -3.126290 0.042420 -2.638810 0.000000 -0.286879 0.000000
 20 -2.839340 -5.564580 -4.296970 0.038304 -0.007263 -0.042281
 21 -3.811070 -2.785450 -1.806430 0.000000 0.000000 0.000000
 22 18.455151 0.440630 8.679390 0.353678 0.711734 0.271818
 23 21.943432 -0.878860 -11.911369 -0.410589 -0.009719 -0.454048
 24 13.133340 0.635550 -6.798010 0.000000 0.000000 0.000000
 25 3.689260 -4.550930 -4.829990 0.000000 0.000000 0.000000
 26 3.087020 -2.930260 -1.806420 0.000000 0.000000 0.000000
 27 10.169240 0.711430 -6.708540 0.000000 0.733868 0.000000
 28 2.770930 0.042420 -2.816470 0.000000 0.609576 0.000000
 29 -52.850708 -0.361260 -67.170868 1.570802 -0.000018 -0.000537
time 4
  0 1.278131 -1.278131 40.995975 0.000000 0.000000 0.114216
  1 9.062670 0.286610 -3.406700 -0.486435 -0.109220 -0.087416
  2 4.544490 -1.638600 -20.622749 1.051366 -0.026738 0.231231
  3 3.070910 1.647970 -15.136740 -0.514296 -0.083455 -0.179521
  4 -0.361640 -14.308061 -6.406600 0.000000 0.000000 0.000000
  5 -9.522449 0.590440 -3.372560 -0.367739 0.021794 0.080126
  6 -4.141180 -1.081730 -20.790251 1.077896 0.169584 -0.143144
  7 -3.014440 0.974200 -14.527950 -0.711814 -0.097356 0.084067
  8 0.361640 -14.494990 -6.882030 0.000000 0.000000 0.000000
  9 0.013460 -1.507020 5.475230 0.000000 0.000000 0.012923
 10 -0.004780 1.092750 22.735540 0.000000 0.000000 0.000000
 11 -0.976790 -3.346690 20.865768 0.039054 0.000000 -0.095743
 12 0.975190 -4.916450 -4.520320 0.073282 0.000000 0.000000
 13 -2.406500 -8.600220 4.877150 0.000000 0.090687 0.000000
 14 4.381730 -8.600220 5.272540 0.000000 -0.125491 0.000000
 15 -18.388140 0.440630 8.679390 0.785553 -0.921344 -0.509647
 16 -21.955891 -0.759690 -12.109390 -0.744899 0.616449 0.655899
 17 -13.311041 1.530050 -7.133010 -0.048215 0.001002 0.047270
 18 -9.635210 -0.302230 -6.530870 0.000000 -0.882770 0.000000
 19 -3.126290 0.042420 -2.638810 0.000000 -0.453393 0.000000
 20 -2.839340 -5.564580 -4.296970 0.064326 -0.012200 -0.070982
 21 -3.811070 -2.785450 -1.806430 0.000000 0.000000 0.000000
 22 18.455151 0.440630 8.679390 0.372024 0.673266 0.294577
 23 21.943432 -0.878860 -11.911369 -0.444122 0.018311 -0.509575
 24 13.133340 0.635550 -6.798010 0.000000 0.000000 0.000000
 25 3.689260 -4.550930 -4.829990 0.000000 0.000000 0.000000
 26 3.087020 -2.930260 -1.806420 0.000000 0.000000 0.000000
 27 10.169240 0.711430 -6.708540 0.000000 1.087212 0.000000
 28 2.770930 0.042420 -2.816470 0.000000 0.903071 0.000000
 29 -52.850708 -0.361260 -67.170868 1.570802 -0.000018 -0.000537
time 5
  0 1.278131 -1.278131 39.679531 0.000000 0.000000 0.170743
  1 9.062670 0.286610 -3.406700 -0.569292 -0.131412 -0.097351
  2 4.544490 -1.638600 -20.622749 1.179799 -0.046177 0.254121
  3 3.070910 1.647970 -15.136740 -0.537743 -0.109850 -0.217938
  4 -0.361640 -14.308061 -6.406600 0.000000 0.000000 0.000000
  5 -9.522449 0.590440 -3.372560 -0.375019 0.024613 0.083253
  6 -4.141180 -1.081730 -20.790251 1.194146 0.194460 -0.145769
  7 -3.014440 0.974200 -14.527950 -0.816813 -0.138220 0.078832
  8 0.361640 -14.494990 -6.882030 0.000000 0.000000 0.000000
  9 0.013460 -1.507020 5.475230 0.000000 0.000000 0.019321
 10 -0.004780 1.092750 22.735540 0.000000 0.000000 0.000000
 11 -0.976790 -3.346690 20.865768 0.053674 0.000000 -0.145979
 12 0.975190 -4.916450 -4.520320 0.110122 0.000000 0.000000
 13 -2.406500 -8.600220 4.877150 0.000000 0.126785 0.000000
 14 4.381730 -8.600220 5.272540 0.000000 -0.175430 0.000000
 15 -18.388140 0.440630 8.679390 0.914405 -0.928559 -0.581763
 16 -21.955891 -0.759690 -12.109390 -0.894203 0.817045 0.750715
 17 -13.311041 1.530050 -7.133010 -0.070912 0.001477 0.069525
 18 -9.635210 -0.302230 -6.530870 0.000000 -1.206858 0.000000
 19 -3.126290 0.042420 -2.638810 0.000000 -0.619856 0.000000
 20 -2.839340 -5.564580 -4.296970 0.094586 -0.017953 -0.104404
 21 -3.811070 -2.785450 -1.806430 0.000000 0.000000 0.000000
 22 18.455151 0.440630 8.679390 0.390014 0.627254 0.317818
 23 21.943432 -0.878860 -11.911369 -0.477612 0.052425 -0.567503
 24 13.133340 0.635550 -6.798010 0.000000 0.000000 0.000000
 25 3.689260 -4.550930 -4.829990 0.000000 0.000000 0.000000
 26 3.087020 -2.930260 -1.806420 0.000000 0.000000 0.000000
 27 10.169240 0.711430 -6.708540 0.000000 1.359015 0.000000
 28 2.770930 0.042420 -2.816470 0.000000 1.128848 0.000000
 29 -52.850708 -0.361260 -67.170868 1.570802 -0.000018 -0.000537
time 6
  0 1.278131 -1.278131 38.570122 0.000000 0.000000 0.234677
  1 9.062670 0.286610 -3.406700 -0.648926 -0.149320 -0.104552
  2 4.544490 -1.638600 -20.622749 1.282444 -0.063758 0.270552
  3 3.070910 1.647970 -15.136740 -0.536011 -0.138294 -0.254709
  4 -0.361640 -14.308061 -6.406600 0.000000 0.000000 0.000000
  5 -9.522449 0.590440 -3.372560 -0.365634 0.022386 0.082444
  6 -4.141180 -1.081730 -20.790251 1.283043 0.213517 -0.145793
  7 -3.014440 0.974200 -14.527950 -0.910174 -0.186013 0.070384
  8 0.361640 -14.494990 -6.882030 0.000000 0.000000 0.000000
  9 0.013460 -1.507020 5.475230 0.000000 0.000000 0.026551
 10 -0.004780 1.092750 22.735540 0.000000 0.000000 0.000000
 11 -0.976790 -3.346690 20.865768 0.066425 0.000000 -0.204977
 12 0.975190 -4.916450 -4.520320 0.152211 0.000000 0.000000
 13 -2.406500 -8.600220 4.877150 0.000000 0.161085 0.000000
 14 4.381730 -8.600220 5.272540 0.000000 -0.222901 0.000000
 15 -18.388140 0.440630 8.679390 1.022519 -0.932465 -0.641959
 16 -21.955891 -0.759690 -12.109390 -1.049488 0.991220 0.843833
 17 -13.311041 1.530050 -7.133010 -0.095743 0.002022 0.093866
 18 -9.635210 -0.302230 -6.530870 0.000000 -1.489620 0.000000
 19 -3.126290 0.042420 -2.638810 0.000000 -0.765114 0.000000
 20 -2.839340 -5.564580 -4.296970 0.127695 -0.024233 -0.140958
 21 -3.811070 -2.785450 -1.806430 0.000000 0.000000 0.000000
 22 18.455151 0.440630 8.679390 0.407410 0.575145 0.341220
 23 21.943432 -0.878860 -11.911369 -0.511233 0.091750 -0.626861
 24 13.133340 0.635550 -6.798010 0.000000 0.000000 0.000000
 25 3.689260 -4.550930 -4.829990 0.000000 0.000000 0.000000
 26 3.087020 -2.930260 -1.806420 0.000000 0.000000 0.000000
 27 10.169240 0.711430 -6.708540 0.000000 1.467736 0.000000
 28 2.770930 0.042420 -2.816470 0.000000 1.219189 0.000000
 29 -52.850708 -0.361260 -67.170868 1.570802 -0.000018 -0.000537
time 7
  0 1.278131 -1.278131 37.800568 0.000000 0.000000 0.304278
  1 9.062670 0.286610 -3.406700 -0.721283 -0.159568 -0.110817
  2 4.544490 -1.638600 -20.622749 1.352998 -0.076797 0.280775
  3 3.070910 1.647970 -15.136740 -0.507866 -0.165616 -0.287145
  4 -0.361640 -14.308061 -6.406600 0.000000 0.000000 0.000000
  5 -9.522449 0.590440 -3.372560 -0.340890 0.013410 0.076869
  6 -4.141180 -1.081730 -20.790251 1.337312 0.225097 -0.144954
  7 -3.014440 0.974200 -14.527950 -0.984063 -0.237999 0.055120
  8 0.361640 -14.494990 -6.882030 0.000000 0.000000 0.000000
  9 0.013460 -1.507020 5.475230 0.000000 0.000000 0.034423
 10 -0.004780 1.092750 22.735540 0.000000 0.000000 0.000000
 11 -0.976790 -3.346690 20.865768 0.075411 0.000000 -0.271857
 12 0.975190 -4.916450 -4.520320 0.198552 0.000000 0.000000
 13 -2.406500 -8.600220 4.877150 0.000000 0.190028 0.000000
 14 4.381730 -8.600220 5.272540 0.000000 -0.262954 0.000000
 15 -18.388140 0.440630 8.679390 1.096899 -0.934091 -0.683235
 16 -21.955891 -0.759690 -12.109390 -1.206983 1.114007 0.931403
 17 -13.311041 1.530050 -7.133010 -0.121611 0.002568 0.119237
 18 -9.635210 -0.302230 -6.530870 0.000000 -1.689623 0.000000
 19 -3.126290 0.042420 -2.638810 0.000000 -0.867808 0.000000
 20 -2.839340 -5.564580 -4.296970 0.162238 -0.030788 -0.179055
 21 -3.811070 -2.785450 -1.806430 0.000000 0.000000 0.000000
 22 18.455151 0.440630 8.679390 0.424153 0.518480 0.364462
 23 21.943432 -0.878860 -11.911369 -0.545071 0.135386 -0.686819
 24 13.133340 0.635550 -6.798010 0.000000 0.000000 0.000000
 25 3.689260 -4.550930 -4.829990 0.000000 0.000000 0.000000
 26 3.087020 -2.930260 -1.806420 0.000000 0.000000 0.000000
 27 10.169240 0.711430 -6.708540 0.000000 1.467736 0.000000
 28 2.770930 0.042420 -2.816470 0.000000 1.219189 0.000000
 29 -52.850708 -0.361260 -67.170868 1.570802 -0.000018 -0.000537
time 8
  0 1.278131 -1.278131 37.515400 0.000000 0.000000 0.377506
  1 9.062670 0.286610 -3.406700 -0.780957 -0.158940 -0.117189
  2 4.544490 -1.638600 -20.622749 1.384871 -0.082909 0.285089
  3 3.070910 1.647970 -15.136740 -0.453118 -0.189231 -0.314225
  4 -0.361640 -14.308061 -6.406600 0.000000 0.000000 0.000000
  5 -9.522449 0.590440 -3.372560 -0.303007 -0.003070 0.065720
  6 -4.141180 -1.081730 -20.790251 1.349024 0.227593 -0.144690
  7 -3.014440 0.974200 -14.527950 -1.028552 -0.290679 0.026381
  8 0.361640 -14.494990 -6.882030 0.000000 0.000000 0.000000
  9 0.013460 -1.507020 5.475230 0.000000 0.000000 0.042723
 10 -0.004780 1.092750 22.735540 0.000000 0.000000 0.000000
 11 -0.976790 -3.346690 20.865768 0.078739 0.000000 -0.345741
 12 0.975190 -4.916450 -4.520320 0.248082 0.000000 0.000000
 13 -2.406500 -8.600220 4.877150 0.000000 0.210006 0.000000
 14 4.381730 -8.600220 5.272540 0.000000 -0.290602 0.000000
 15 -18.388140 0.440630 8.679390 1.124550 -0.934433 -0.698549
 16 -21.955891 -0.759690 -12.109390 -1.362917 1.160473 1.009747
 17 -13.311041 1.530050 -7.133010 -0.147510 0.003113 0.144620
 18 -9.635210 -0.302230 -6.530870 0.000000 -1.765540 0.000000
 19 -3.126290 0.042420 -2.638810 0.000000 -0.906786 0.000000
 20 -2.839340 -5.564580 -4.296970 0.196760 -0.037332 -0.217175
 21 -3.811070 -2.785450 -1.806430 0.000000 0.000000 0.000000
 22 18.455151 0.440630 8.679390 0.440065 0.458767 0.387301
 23 21.943432 -0.878860 -11.911369 -0.579258 0.182486 -0.746362
 24 13.133340 0.635550 -6.798010 0.000000 0.000000 0.000000
 25 3.689260 -4.550930 -4.829990 0.000000 0.000000 0.000000
 26 3.087020 -2.930260 -1.806420 0.000000 0.000000 0.000000
 27 10.169240 0.711430 -6.708540 0.000000 1.467736 0.000000
 28 2.770930 0.042420 -2.816470 0.000000 1.219189 0.000000
 29 -52.850708 -0.361260 -67.170868 1.570802 -0.000018 -0.000537
time 9
  0 1.278131 -1.278131 37.581810 0.000000 0.000000 0.452700
  1 9.062670 0.286610 -3.406700 -0.829195 -0.149379 -0.125128
  2 4.544490 -1.638600 -20.622749 1.389072 -0.083724 0.285641
  3 3.070910 1.647970 -15.136740 -0.381622 -0.208942 -0.337572
  4 -0.361640 -14.308061 -6.406600 0.000000 0.000000 0.000000
  5 -9.522449 0.590440 -3.372560 -0.258299 -0.024756 0.050062
  6 -4.141180 -1.081730 -20.790251 1.329819 0.223501 -0.145109
  7 -3.014440 0.974200 -14.527950 -1.048378 -0.341779 -0.014875
  8 0.361640 -14.494990 -6.882030 0.000000 0.000000 0.000000
  9 0.013460 -1.507020 5.475230 0.000000 0.000000 0.051224
 10 -0.004780 1.092750 22.735540 0.000000 0.000000 0.000000
 11 -0.976790 -3.346690 20.865768 0.073735 0.000000 -0.422808
 12 0.975190 -4.916450 -4.520320 0.299704 0.000000 0.000000
 13 -2.406500 -8.600220 4.877150 0.000000 0.217472 0.000000
 14 4.381730 -8.600220 5.272540 0.000000 -0.300921 0.000000
 15 -18.388140 0.440630 8.679390 0.998809 -0.828665 -0.617567
 16 -21.955891 -0.759690 -12.109390 -1.569292 0.981658 1.069523
 17 -13.311041 1.530050 -7.133010 -0.172342 0.003635 0.168949
 18 -9.635210 -0.302230 -6.530870 0.000000 -1.765540 0.000000
 19 -3.126290 0.042420 -2.638810 0.000000 -0.906786 0.000000
 20 -2.839340 -5.564580 -4.296970 0.229868 -0.043624 -0.253728
 21 -3.811070 -2.785450 -1.806430 0.000000 0.000000 0.000000
 22 18.455151 0.440630 8.679390 0.455086 0.397545 0.409376
 23 21.943432 -0.878860 -11.911369 -0.613880 0.232150 -0.804612
 24 13.133340 0.635550 -6.798010 0.000000 0.000000 0.000000
 25 3.689260 -4.550930 -4.829990 0.000000 0.000000 0.000000
 26 3.087020 -2.930260 -1.806420 0.000000 0.000000 0.000000
 27 10.169240 0.711430 -6.708540 0.000000 1.467736 0.000000
 28 2.770930 0.042420 -2.816470 0.000000 1.219189 0.000000
 29 -52.850708 -0.361260 -67.170868 1.570802 -0.000018 -0.000537
time 10
  0 1.278131 -1.278131 37.765408 0.000000 0.000000 0.527818
  1 9.062670 0.286610 -3.406700 -0.871299 -0.135257 -0.135201
  2 4.544490 -1.638600 -20.622749 1.382843 -0.082526 0.284826
  3 3.070910 1.647970 -15.136740 -0.305236 -0.225969 -0.359319
  4 -0.361640 -14.308061 -6.406600 0.000000 0.000000 0.000000
  5 -9.522449 0.590440 -3.372560 -0.212850 -0.048525 0.031737
  6 -4.141180 -1.081730 -20.790251 1.298756 0.216889 -0.145613
  7 -3.014440 0.974200 -14.527950 -1.056373 -0.390500 -0.061625
  8 0.361640 -14.494990 -6.882030 0.000000 0.000000 0.000000
  9 0.013460 -1.507020 5.475230 0.000000 0.000000 0.059726
 10 -0.004780 1.092750 22.735540 0.000000 0.000000 0.000000
 11 -0.976790 -3.346690 20.865768 0.060353 0.000000 -0.498844
 12 0.975190 -4.916450 -4.520320 0.352390 0.000000 0.000000
 13 -2.406500 -8.600220 4.877150 0.000000 0.216801 0.000000
 14 4.381730 -8.600220 5.272540 0.000000 -0.300010 0.000000
 15 -18.388140 0.440630 8.679390 0.684491 -0.564230 -0.415006
 16 -21.955891 -0.759690 -12.109390 -1.823312 0.588364 1.112827
 17 -13.311041 1.530050 -7.133010 -0.195039 0.004110 0.191204
 18 -9.635210 -0.302230 -6.530870 0.000000 -1.765540 0.000000
 19 -3.126290 0.042420 -2.638810 0.000000 -0.906786 0.000000
 20 -2.839340 -5.564580 -4.296970 0.260151 -0.049365 -0.287128
 21 -3.811070 -2.785450 -1.806430 0.000000 0.000000 0.000000
 22 18.455151 0.440630 8.679390 0.469038 0.336352 0.430446
 23 21.943432 -0.878860 -11.911369 -0.649069 0.283532 -0.860647
 24 13.133340 0.635550 -6.798010 0.000000 0.000000 0.000000
 25 3.689260 -4.550930 -4.829990 0.000000 0.000000 0.000000
 26 3.087020 -2.930260 -1.806420 0.000000 0.000000 0.000000
 27 10.169240 0.711430 -6.708540 0.000000 1.467736 0.000000
 28 2.770930 0.042420 -2.816470 0.000000 1.219189 0.000000
 29 -52.850708 -0.361260 -67.170868 1.570802 -0.000018 -0.000537
time 11
  0 1.278131 -1.278131 38.034950 0.000000 0.000000 0.601122
  1 9.062670 0.286610 -3.406700 -0.906542 -0.117947 -0.147561
  2 4.544490 -1.638600 -20.622749 1.368355 -0.079721 0.282872
  3 3.070910 1.647970 -15.136740 -0.227656 -0.239874 -0.379281
  4 -0.361640 -14.308061 -6.406600 0.000000 0.000000 0.000000
  5 -9.522449 0.590440 -3.372560 -0.168142 -0.072850 0.011352
  6 -4.141180 -1.081730 -20.790251 1.258600 0.208297 -0.145960
  7 -3.014440 0.974200 -14.527950 -1.053310 -0.434755 -0.112910
  8 0.361640 -14.494990 -6.882030 0.000000 0.000000 0.000000
  9 0.013460 -1.507020 5.475230 0.000000 0.000000 0.068014
 10 -0.004780 1.092750 22.735540 0.000000 0.000000 0.000000
 11 -0.976790 -3.346690 20.865768 0.040705 0.000000 -0.572121
 12 0.975190 -4.916450 -4.520320 0.405076 0.000000 0.000000
 13 -2.406500 -8.600220 4.877150 0.000000 0.214872 0.000000
 14 4.381730 -8.600220 5.272540 0.000000 -0.297326 0.000000
 15 -18.388140 0.440630 8.679390 0.275815 -0.220491 -0.151698
 16 -21.955891 -0.759690 -12.109390 -2.038916 0.195035 1.153131
 17 -13.311041 1.530050 -7.133010 -0.214534 0.004537 0.210320
 18 -9.635210 -0.302230 -6.530870 0.000000 -1.765540 0.000000
 19 -3.126290 0.042420 -2.638810 0.000000 -0.906786 0.000000
 20 -2.839340 -5.564580 -4.296970 0.286151 -0.054302 -0.315852
 21 -3.811070 -2.785450 -1.806430 0.000000 0.000000 0.000000
 22 18.455151 0.440630 8.679390 0.481862 0.276639 0.450149
 23 21.943432 -0.878860 -11.911369 -0.684954 0.335760 -0.913589
 24 13.133340 0.635550 -6.798010 0.000000 0.000000 0.000000
 25 3.689260 -4.550930 -4.829990 0.000000 0.000000 0.000000
 26 3.087020 -2.930260 -1.806420 0.000000 0.000000 0.000000
 27 10.169240 0.711430 -6.708540 0.000000 1.467736 0.000000
 28 2.770930 0.042420 -2.816470 0.000000 1.219189 0.000000
 29 -52.850708 -0.361260 -67.170868 1.570802 -0.000018 -0.000537
time 12
  0 1.278131 -1.278131 38.359177 0.000000 0.000000 0.670647
  1 9.062670 0.286610 -3.406700 -0.934923 -0.098548 -0.160659
  2 4.544490 -1.638600 -20.622749 1.347855 -0.075815 0.280056
  3 3.070910 1.647970 -15.136740 -0.151578 -0.251266 -0.398247
  4 -0.361640 -14.308061 -6.406600 0.000000 0.000000 0.000000
  5 -9.522449 0.590440 -3.372560 -0.125310 -0.096709 -0.009383
  6 -4.141180 -1.081730 -20.790251 1.212041 0.198313 -0.145912
  7 -3.014440 0.974200 -14.527950 -1.040834 -0.473554 -0.167823
  8 0.361640 -14.494990 -6.882030 0.000000 0.000000 0.000000
  9 0.013460 -1.507020 5.475230 0.000000 0.000000 0.075886
 10 -0.004780 1.092750 22.735540 0.000000 0.000000 0.000000
 11 -0.976790 -3.346690 20.865768 0.016952 0.000000 -0.640972
 12 0.975190 -4.916450 -4.520320 0.456699 0.000000 0.000000
 13 -2.406500 -8.600220 4.877150 0.000000 0.211756 0.000000
 14 4.381730 -8.600220 5.272540 0.000000 -0.293011 0.000000
 15 -18.388140 0.440630 8.679390 -0.132723 0.123220 0.111568
 16 -21.955891 -0.759690 -12.109390 -2.129916 0.016256 1.203681
 17 -13.311041 1.530050 -7.133010 -0.229791 0.004845 0.225277
 18 -9.635210 -0.302230 -6.530870 0.000000 -1.765540 0.000000
 19 -3.126290 0.042420 -2.638810 0.000000 -0.906786 0.000000
 20 -2.839340 -5.564580 -4.296970 0.306498 -0.058161 -0.338312
 21 -3.811070 -2.785450 -1.806430 0.000000 0.000000 0.000000
 22 18.455151 0.440630 8.679390 0.493321 0.219974 0.468203
 23 21.943432 -0.878860 -11.911369 -0.721666 0.387931 -0.962424
 24 13.133340 0.635550 -6.798010 0.000000 0.000000 0.000000
 25 3.689260 -4.550930 -4.829990 0.000000 0.000000 0.000000
 26 3.087020 -2.930260 -1.806420 0.000000 0.000000 0.000000
 27 10.169240 0.711430 -6.708540 0.000000 1.467736 0.000000
 28 2.770930 0.042420 -2.816470 0.000000 1.219189 0.000000
 29 -52.850708 -0.361260 -67.170868 1.570802 -0.000018 -0.000537
time 13
  0 1.278131 -1.278131 38.714657 0.000000 0.000000 0.734656
  1 9.062670 0.286610 -3.406700 -0.956443 -0.078841 -0.174602
  2 4.544490 -1.638600 -20.622749 1.323661 -0.071284 0.276628
  3 3.070910 1.647970 -15.136740 -0.080467 -0.259658 -0.415334
  4 -0.361640 -14.308061 -6.406600 0.000000 0.000000 0.000000
  5 -9.522449 0.590440 -3.372560 -0.085493 -0.119006 -0.029364
  6 -4.141180 -1.081730 -20.790251 1.162282 0.187632 -0.145337
  7 -3.014440 0.974200 -14.527950 -1.021201 -0.505802 -0.224291
  8 0.361640 -14.494990 -6.882030 0.000000 0.000000 0.000000
  9 0.013460 -1.507020 5.475230 0.000000 0.000000 0.083115
 10 -0.004780 1.092750 22.735540 0.000000 0.000000 0.000000
 11 -0.976790 -3.346690 20.865768 -0.008768 0.000000 -0.703760
 12 0.975190 -4.916450 -4.520320 0.506195 0.000000 0.000000
 13 -2.406500 -8.600220 4.877150 0.000000 0.207537 0.000000
 14 4.381730 -8.600220 5.272540 0.000000 -0.287187 0.000000
 15 -18.388140 0.440630 8.679390 -0.447110 0.387627 0.314086
 16 -21.955891 -0.759690 -12.109390 -1.976581 0.072957 1.302176
 17 -13.311041 1.530050 -7.133010 -0.239712 0.005059 0.235008
 18 -9.635210 -0.302230 -6.530870 0.000000 -1.765540 0.000000
 19 -3.126290 0.042420 -2.638810 0.000000 -0.906786 0.000000
 20 -2.839340 -5.564580 -4.296970 0.319737 -0.060678 -0.352920
 21 -3.811070 -2.785450 -1.806430 0.000000 0.000000 0.000000
 22 18.455151 0.440630 8.679390 0.503414 0.167865 0.484287
 23 21.943432 -0.878860 -11.911369 -0.759250 0.439229 -1.006273
 24 13.133340 0.635550 -6.798010 0.000000 0.000000 0.000000
 25 3.689260 -4.550930 -4.829990 0.000000 0.000000 0.000000
 26 3.087020 -2.930260 -1.806420 0.000000 0.000000 0.000000
 27 10.169240 0.711430 -6.708540 0.000000 1.467736 0.000000
 28 2.770930 0.042420 -2.816470 0.000000 1.219189 0.000000
 29 -52.850708 -0.361260 -67.170868 1.570802 -0.000018 -0.000537
time 14
  0 1.278131 -1.278131 39.070137 0.000000 0.000000 0.791108
  1 9.062670 0.286610 -3.406700 -0.971882 -0.060085 -0.188037
  2 4.544490 -1.638600 -20.622749 1.298235 -0.066610 0.272913
  3 3.070910 1.647970 -15.136740 -0.016825 -0.265537 -0.430566
  4 -0.361640 -14.308061 -6.406600 0.000000 0.000000 0.000000
  5 -9.522449 0.590440 -3.372560 -0.049828 -0.138574 -0.048057
  6 -4.141180 -1.081730 -20.790251 1.112523 0.176964 -0.144223
  7 -3.014440 0.974200 -14.527950 -0.997313 -0.530552 -0.278970
  8 0.361640 -14.494990 -6.882030 0.000000 0.000000 0.000000
  9 0.013460 -1.507020 5.475230 0.000000 0.000000 0.089514
 10 -0.004780 1.092750 22.735540 0.000000 0.000000 0.000000
 11 -0.976790 -3.346690 20.865768 -0.034342 0.000000 -0.758786
 12 0.975190 -4.916450 -4.520320 0.552536 0.000000 0.000000
 13 -2.406500 -8.600220 4.877150 0.000000 0.202324 0.000000
 14 4.381730 -8.600220 5.272540 0.000000 -0.279960 0.000000
 15 -18.388140 0.440630 8.679390 -0.572782 0.493395 0.395110
 16 -21.955891 -0.759690 -12.109390 -1.823312 0.129693 1.370613
 17 -13.311041 1.530050 -7.133010 -0.243259 0.005130 0.238484
 18 -9.635210 -0.302230 -6.530870 0.000000 -1.765540 0.000000
 19 -3.126290 0.042420 -2.638810 0.000000 -0.906786 0.000000
 20 -2.839340 -5.564580 -4.296970 0.324476 -0.061577 -0.358132
 21 -3.811070 -2.785450 -1.806430 0.000000 0.000000 0.000000
 22 18.455151 0.440630 8.679390 0.511905 0.121823 0.498159
 23 21.943432 -0.878860 -11.911369 -0.797879 0.488724 -1.044214
 24 13.133340 0.635550 -6.798010 0.000000 0.000000 0.000000
 25 3.689260 -4.550930 -4.829990 0.000000 0.000000 0.000000
 26 3.087020 -2.930260 -1.806420 0.000000 0.000000 0.000000
 27 10.169240 0.711430 -6.708540 0.000000 1.467736 0.000000
 28 2.770930 0.042420 -2.816470 0.000000 1.219189 0.000000
 29 -52.850708 -0.361260 -67.170868 1.570802 -0.000018 -0.000537
time 15
  0 1.278131 -1.278131 39.394363 0.000000 0.000000 0.838340
  1 9.062670 0.286610 -3.406700 -0.982122 -0.043565 -0.199937
  2 4.544490 -1.638600 -20.622749 1.274113 -0.062272 0.269282
  3 3.070910 1.647970 -15.136740 0.036845 -0.269343 -0.443480
  4 -0.361640 -14.308061 -6.406600 0.000000 0.000000 0.000000
  5 -9.522449 0.590440 -3.372560 -0.019453 -0.154784 -0.064137
  6 -4.141180 -1.081730 -20.790251 1.066474 0.167160 -0.142724
  7 -3.014440 0.974200 -14.527950 -0.972619 -0.548183 -0.328493
  8 0.361640 -14.494990 -6.882030 0.000000 0.000000 0.000000
  9 0.013460 -1.507020 5.475230 0.000000 0.000000 0.094854
 10 -0.004780 1.092750 22.735540 0.000000 0.000000 0.000000
 11 -0.976790 -3.346690 20.865768 -0.057682 0.000000 -0.804474
 12 0.975190 -4.916450 -4.520320 0.594658 0.000000 0.000000
 13 -2.406500 -8.600220 4.877150 0.000000 0.196176 0.000000
 14 4.381730 -8.600220 5.272540 0.000000 -0.271475 0.000000
 15 -18.388140 0.440630 8.679390 -0.534555 0.471808 0.384081
 16 -21.955891 -0.759690 -12.109390 -1.823312 0.129693 1.370613
 17 -13.311041 1.530050 -7.133010 -0.243259 0.005130 0.238484
 18 -9.635210 -0.302230 -6.530870 0.000000 -1.765540 0.000000
 19 -3.126290 0.042420 -2.638810 0.000000 -0.906786 0.000000
 20 -2.839340 -5.564580 -4.296970 0.324476 -0.061577 -0.358132
 21 -3.811070 -2.785450 -1.806430 0.000000 0.000000 0.000000
 22 18.455151 0.440630 8.679390 0.518792 0.083385 0.509458
 23 21.943432 -0.878860 -11.911369 -0.837683 0.535571 -1.075324
 24 13.133340 0.635550 -6.798010 0.000000 0.000000 0.000000
 25 3.689260 -4.550930 -4.829990 0.000000 0.000000 0.000000
 26 3.087020 -2.930260 -1.806420 0.000000 0.000000 0.000000
 27 10.169240 0.711430 -6.708540 0.000000 1.467736 0.000000
 28 2.770930 0.042420 -2.816470 0.000000 1.219189 0.000000
 29 -52.850708 -0.361260 -67.170868 1.570802 -0.000018 -0.000537
time 16
  0 1.278131 -1.278131 39.663906 0.000000 0.000000 0.874387
  1 9.062670 0.286610 -3.406700 -0.988204 -0.030437 -0.209365
  2 4.544490 -1.638600 -20.622749 1.253830 -0.058677 0.266142
  3 3.070910 1.647970 -15.136740 0.078118 -0.271539 -0.453519
  4 -0.361640 -14.308061 -6.406600 0.000000 0.000000 0.000000
  5 -9.522449 0.590440 -3.372560 0.004209 -0.167046 -0.076630
  6 -4.141180 -1.081730 -20.790251 1.028282 0.159060 -0.141119
  7 -3.014440 0.974200 -14.527950 -0.950729 -0.559452 -0.368842
  8 0.361640 -14.494990 -6.882030 0.000000 0.000000 0.000000
  9 0.013460 -1.507020 5.475230 0.000000 0.000000 0.098935
 10 -0.004780 1.092750 22.735540 0.000000 0.000000 0.000000
 11 -0.976790 -3.346690 20.865768 -0.076771 0.000000 -0.839127
 12 0.975190 -4.916450 -4.520320 0.631498 0.000000 0.000000
 13 -2.406500 -8.600220 4.877150 0.000000 0.189213 0.000000
 14 4.381730 -8.600220 5.272540 0.000000 -0.261827 0.000000
 15 -18.388140 0.440630 8.679390 -0.430796 0.412322 0.353792
 16 -21.955891 -0.759690 -12.109390 -1.823312 0.129693 1.370613
 17 -13.311041 1.530050 -7.133010 -0.243259 0.005130 0.238484
 18 -9.635210 -0.302230 -6.530870 0.000000 -1.765540 0.000000
 19 -3.126290 0.042420 -2.638810 0.000000 -0.906786 0.000000
 20 -2.839340 -5.564580 -4.296970 0.324476 -0.061577 -0.358132
 21 -3.811070 -2.785450 -1.806430 0.000000 0.000000 0.000000
 22 18.455151 0.440630 8.679390 0.523838 0.054032 0.517902
 23 21.943432 -0.878860 -11.911369 -0.878751 0.578896 -1.098680
 24 13.133340 0.635550 -6.798010 0.000000 0.000000 0.000000
 25 3.689260 -4.550930 -4.829990 0.000000 0.000000 0.000000
 26 3.087020 -2.930260 -1.806420 0.000000 0.000000 0.000000
 27 10.169240 0.711430 -6.708540 0.000000 1.467736 0.000000
 28 2.770930 0.042420 -2.816470 0.000000 1.219189 0.000000
 29 -52.850708 -0.361260 -67.170868 1.570802 -0.000018 -0.000537
time 17
  0 1.278131 -1.278131 39.843597 0.000000 0.000000 0.897361
  1 9.062670 0.286610 -3.406700 -0.991270 -0.021826 -0.215492
  2 4.544490 -1.638600 -20.622749 1.239777 -0.056244 0.263937
  3 3.070910 1.647970 -15.136740 0.104684 -0.272563 -0.460034
  4 -0.361640 -14.308061 -6.406600 0.000000 0.000000 0.000000
  5 -9.522449 0.590440 -3.372560 0.019681 -0.174801 -0.084688
  6 -4.141180 -1.081730 -20.790251 1.002238 0.153564 -0.139860
  7 -3.014440 0.974200 -14.527950 -0.935255 -0.565455 -0.395923
  8 0.361640 -14.494990 -6.882030 0.000000 0.000000 0.000000
  9 0.013460 -1.507020 5.475230 0.000000 0.000000 0.101529
 10 -0.004780 1.092750 22.735540 0.000000 0.000000 0.000000
 11 -0.976790 -3.346690 20.865768 -0.089643 0.000000 -0.861107
 12 0.975190 -4.916450 -4.520320 0.661960 0.000000 0.000000
 13 -2.406500 -8.600220 4.877150 0.000000 0.181495 0.000000
 14 4.381730 -8.600220 5.272540 0.000000 -0.251149 0.000000
 15 -18.388140 0.440630 8.679390 -0.277819 0.322922 0.308274
 16 -21.955891 -0.759690 -12.109390 -1.823312 0.129693 1.370613
 17 -13.311041 1.530050 -7.133010 -0.243259 0.005130 0.238484
 18 -9.635210 -0.302230 -6.530870 0.000000 -1.765540 0.000000
 19 -3.126290 0.042420 -2.638810 0.000000 -0.906786 0.000000
 20 -2.839340 -5.564580 -4.296970 0.324476 -0.061577 -0.358132
 21 -3.811070 -2.785450 -1.806430 0.000000 0.000000 0.000000
 22 18.455151 0.440630 8.679390 0.526926 0.035331 0.523210
 23 21.943432 -0.878860 -11.911369 -0.921169 0.617828 -1.113404
 24 13.133340 0.635550 -6.798010 0.000000 0.000000 0.000000
 25 3.689260 -4.550930 -4.829990 0.000000 0.000000 0.000000
 26 3.087020 -2.930260 -1.806420 0.000000 0.000000 0.000000
 27 10.169240 0.711430 -6.708540 0.000000 1.467736 0.000000
 28 2.770930 0.042420 -2.816470 0.000000 1.219189 0.000000
 29 -52.850708 -0.361260 -67.170868 1.570802 -0.000018 -0.000537
time 18
  0 1.278131 -1.278131 39.913914 0.000000 0.000000 0.905372
  1 9.062670 0.286610 -3.406700 -0.992102 -0.018742 -0.217657
  2 4.544490 -1.638600 -20.622749 1.234634 -0.055357 0.263110
  3 3.070910 1.647970 -15.136740 0.114078 -0.272856 -0.462353
  4 -0.361640 -14.308061 -6.406600 0.000000 0.000000 0.000000
  5 -9.522449 0.590440 -3.372560 0.025198 -0.177368 -0.087853
  6 -4.141180 -1.081730 -20.790251 0.992636 0.151548 -0.139357
  7 -3.014440 0.974200 -14.527950 -0.929484 -0.567098 -0.405434
  8 0.361640 -14.494990 -6.882030 0.000000 0.000000 0.000000
  9 0.013460 -1.507020 5.475230 0.000000 0.000000 0.102449
 10 -0.004780 1.092750 22.735540 0.000000 0.000000 0.000000
 11 -0.976790 -3.346690 20.865768 -0.094355 0.000000 -0.868808
 12 0.975190 -4.916450 -4.520320 0.685048 0.000000 0.000000
 13 -2.406500 -8.600220 4.877150 0.000000 0.173117 0.000000
 14 4.381730 -8.600220 5.272540 0.000000 -0.239560 0.000000
 15 -18.388140 0.440630 8.679390 -0.092007 0.211536 0.251642
 16 -21.955891 -0.759690 -12.109390 -1.823312 0.129693 1.370613
 17 -13.311041 1.530050 -7.133010 -0.243259 0.005130 0.238484
 18 -9.635210 -0.302230 -6.530870 0.000000 -1.765540 0.000000
 19 -3.126290 0.042420 -2.638810 0.000000 -0.906786 0.000000
 20 -2.839340 -5.564580 -4.296970 0.324476 -0.061577 -0.358132
 21 -3.811070 -2.785450 -1.806430 0.000000 0.000000 0.000000
 22 18.455151 0.440630 8.679390 0.527994 0.028732 0.525019
 23 21.943432 -0.878860 -11.911369 -0.965111 0.651491 -1.118481
 24 13.133340 0.635550 -6.798010 0.000000 0.000000 0.000000
 25 3.689260 -4.550930 -4.829990 0.000000 0.000000 0.000000
 26 3.087020 -2.930260 -1.806420 0.000000 0.000000 0.000000
 27 10.169240 0.711430 -6.708540 0.000000 1.467736 0.000000
 28 2.770930 0.042420 -2.816470 0.000000 1.219189 0.000000
 29 -52.850708 -0.361260 -67.170868 1.570802 -0.000018 -0.000537
time 19
  0 1.278131 -1.278131 39.913914 0.000000 0.000000 0.869778
  1 9.062670 0.286610 -3.406700 -0.977703 -0.035451 -0.204052
  2 4.544490 -1.638600 -20.622749 1.251947 -0.058353 0.265842
  3 3.070910 1.647970 -15.136740 0.074461 -0.266684 -0.441927
  4 -0.361640 -14.308061 -6.406600 0.000000 0.000000 0.000000
  5 -9.522449 0.590440 -3.372560 0.015187 -0.170313 -0.080604
  6 -4.141180 -1.081730 -20.790251 1.000856 0.153288 -0.139788
  7 -3.014440 0.974200 -14.527950 -0.936383 -0.545297 -0.380089
  8 0.361640 -14.494990 -6.882030 0.000000 0.000000 0.000000
  9 0.013460 -1.507020 5.475230 0.000000 0.000000 0.102449
 10 -0.004780 1.092750 22.735540 0.000000 0.000000 -0.008977
 11 -0.976790 -3.346690 20.865768 -0.094914 0.000000 -0.827000
 12 0.975190 -4.916450 -4.520320 0.699664 0.000000 0.000000
 13 -2.406500 -8.600220 4.877150 0.000000 0.164177 0.000000
 14 4.381730 -8.600220 5.272540 0.000000 -0.227180 0.000000
 15 -18.388140 0.440630 8.679390 0.110049 0.086149 0.188010
 16 -21.955891 -0.759690 -12.109390 -1.823312 0.129693 1.370613
 17 -13.311041 1.530050 -7.133010 -0.243259 0.005130 0.238484
 18 -9.635210 -0.302230 -6.530870 0.000000 -1.765540 0.000000
 19 -3.126290 0.042420 -2.638810 0.000000 -0.906786 0.000000
 20 -2.839340 -5.564580 -4.296970 0.324476 -0.061577 -0.358132
 21 -3.811070 -2.785450 -1.806430 0.000000 0.000000 0.000000
 22 18.455151 0.440630 8.679390 0.434424 0.040479 0.445444
 23 21.943432 -0.878860 -11.911369 -1.023555 0.678450 -1.083540
 24 13.133340 0.635550 -6.798010 0.056662 0.022869 -0.010697
 25 3.689260 -4.550930 -4.829990 0.000000 0.000000 0.000000
 26 3.087020 -2.930260 -1.806420 0.000000 0.000000 0.000000
 27 10.169240 0.711430 -6.708540 0.000000 1.467736 0.000000
 28 2.770930 0.042420 -2.816470 0.000000 1.219189 0.000000
 29 -52.850708 -0.361260 -67.170868 1.570802 -0.000018 -0.000537
time 20
  0 1.278131 -1.278131 39.913914 0.000000 0.000000 0.773046
  1 9.062670 0.286610 -3.406700 -0.932532 -0.078198 -0.169964
  2 4.544490 -1.638600 -20.622749 1.294468 -0.065927 0.272350
  3 3.070910 1.647970 -15.136740 -0.032379 -0.244119 -0.388648
  4 -0.361640 -14.308061 -6.406600 0.000000 0.000000 0.000000
  5 -9.522449 0.590440 -3.372560 -0.011774 -0.150440 -0.062261
  6 -4.141180 -1.081730 -20.790251 1.021807 0.157692 -0.140819
  7 -3.014440 0.974200 -14.527950 -0.951374 -0.484739 -0.312504
  8 0.361640 -14.494990 -6.882030 0.000000 0.000000 0.000000
  9 0.013460 -1.507020 5.475230 0.000000 0.000000 0.102449
 10 -0.004780 1.092750 22.735540 0.000000 0.000000 -0.033348
 11 -0.976790 -3.346690 20.865768 -0.096420 0.000000 -0.713340
 12 0.975190 -4.916450 -4.520320 0.704780 0.000000 0.000000
 13 -2.406500 -8.600220 4.877150 0.000000 0.154757 0.000000
 14 4.381730 -8.600220 5.272540 0.000000 -0.214141 0.000000
 15 -18.388140 0.440630 8.679390 0.312175 -0.045284 0.121494
 16 -21.955891 -0.759690 -12.109390 -1.823312 0.129693 1.370613
 17 -13.311041 1.530050 -7.133010 -0.243259 0.005130 0.238484
 18 -9.635210 -0.302230 -6.530870 0.000000 -1.765540 0.000000
 19 -3.126290 0.042420 -2.638810 0.000000 -0.906786 0.000000
 20 -2.839340 -5.564580 -4.296970 0.324476 -0.061577 -0.358132
 21 -3.811070 -2.785450 -1.806430 0.000000 0.000000 0.000000
 22 18.455151 0.440630 8.679390 0.193077 0.071904 0.240173
 23 21.943432 -0.878860 -11.911369 -1.102337 0.698507 -0.992657
 24 13.133340 0.635550 -6.798010 0.202795 0.081913 -0.038295
 25 3.689260 -4.550930 -4.829990 0.000000 0.000000 0.000000
 26 3.087020 -2.930260 -1.806420 0.000000 0.000000 0.000000
 27 10.169240 0.711430 -6.708540 0.000000 1.467736 0.000000
 28 2.770930 0.042420 -2.816470 0.000000 1.219189 0.000000
 29 -52.850708 -0.361260 -67.170868 1.570802 -0.000018 -0.000537
time 21
  0 1.278131 -1.278131 39.913914 0.000000 0.000000 0.630519
  1 9.062670 0.286610 -3.406700 -0.848532 -0.133809 -0.132329
  2 4.544490 -1.638600 -20.622749 1.344523 -0.075191 0.279589
  3 3.070910 1.647970 -15.136740 -0.188116 -0.193134 -0.313205
  4 -0.361640 -14.308061 -6.406600 0.000000 0.000000 0.000000
  5 -9.522449 0.590440 -3.372560 -0.051136 -0.120226 -0.036411
  6 -4.141180 -1.081730 -20.790251 1.048942 0.163440 -0.142029
  7 -3.014440 0.974200 -14.527950 -0.963786 -0.394102 -0.216957
  8 0.361640 -14.494990 -6.882030 0.000000 0.000000 0.000000
  9 0.013460 -1.507020 5.475230 0.000000 0.000000 0.102449
 10 -0.004780 1.092750 22.735540 0.000000 0.000000 -0.069274
 11 -0.976790 -3.346690 20.865768 -0.098533 0.000000 -0.545624
 12 0.975190 -4.916450 -4.520320 0.699664 0.000000 0.000000
 13 -2.406500 -8.600220 4.877150 0.000000 0.144930 0.000000
 14 4.381730 -8.600220 5.272540 0.000000 -0.200562 0.000000
 15 -18.388140 0.440630 8.679390 0.497918 -0.174835 0.056208
 16 -21.955891 -0.759690 -12.109390 -1.823312 0.129693 1.370613
 17 -13.311041 1.530050 -7.133010 -0.243259 0.005130 0.238484
 18 -9.635210 -0.302230 -6.530870 0.000000 -1.765540 0.000000
 19 -3.126290 0.042420 -2.638810 0.000000 -0.906786 0.000000
 20 -2.839340 -5.564580 -4.296970 0.324476 -0.061577 -0.358132
 21 -3.811070 -2.785450 -1.806430 0.000000 0.000000 0.000000
 22 18.455151 0.440630 8.679390 -0.136912 0.117355 -0.040411
 23 21.943432 -0.878860 -11.911369 -1.190743 0.712676 -0.866740
 24 13.133340 0.635550 -6.798010 0.402594 0.162622 -0.076027
 25 3.689260 -4.550930 -4.829990 0.000000 0.000000 0.000000
 26 3.087020 -2.930260 -1.806420 0.000000 0.000000 0.000000
 27 10.169240 0.711430 -6.708540 0.000000 1.467736 0.000000
 28 2.770930 0.042420 -2.816470 0.000000 1.219189 0.000000
 29 -52.850708 -0.361260 -67.170868 1.570802 -0.000018 -0.000537
time 22
  0 1.278131 -1.278131 39.913914 0.000000 0.000000 0.457461
  1 9.062670 0.286610 -3.406700 -0.718840 -0.182038 -0.107377
  2 4.544490 -1.638600 -20.622749 1.382987 -0.082538 0.284838
  3 3.070910 1.647970 -15.136740 -0.368762 -0.104995 -0.228023
  4 -0.361640 -14.308061 -6.406600 0.000000 0.000000 0.000000
  5 -9.522449 0.590440 -3.372560 -0.099144 -0.081988 -0.007010
  6 -4.141180 -1.081730 -20.790251 1.076368 0.169248 -0.143084
  7 -3.014440 0.974200 -14.527950 -0.964334 -0.283623 -0.104047
  8 0.361640 -14.494990 -6.882030 0.000000 0.000000 0.000000
  9 0.013460 -1.507020 5.475230 0.000000 0.000000 0.102449
 10 -0.004780 1.092750 22.735540 0.000000 0.000000 -0.112898
 11 -0.976790 -3.346690 20.865768 -0.101010 0.000000 -0.341921
 12 0.975190 -4.916450 -4.520320 0.685048 0.000000 0.000000
 13 -2.406500 -8.600220 4.877150 0.000000 0.134815 0.000000
 14 4.381730 -8.600220 5.272540 0.000000 -0.186552 0.000000
 15 -18.388140 0.440630 8.679390 0.650895 -0.294520 -0.003775
 16 -21.955891 -0.759690 -12.109390 -1.823312 0.129693 1.370613
 17 -13.311041 1.530050 -7.133010 -0.243259 0.005130 0.238484
 18 -9.635210 -0.302230 -6.530870 0.000000 -1.765540 0.000000
 19 -3.126290 0.042420 -2.638810 0.000000 -0.906786 0.000000
 20 -2.839340 -5.564580 -4.296970 0.324476 -0.061577 -0.358132
 21 -3.811070 -2.785450 -1.806430 0.000000 0.000000 0.000000
 22 18.455151 0.440630 8.679390 -0.496468 0.171179 -0.346206
 23 21.943432 -0.878860 -11.911369 -1.278104 0.721944 -0.726653
 24 13.133340 0.635550 -6.798010 0.620311 0.250587 -0.117125
 25 3.689260 -4.550930 -4.829990 0.000000 0.000000 0.000000
 26 3.087020 -2.930260 -1.806420 0.000000 0.000000 0.000000
 27 10.169240 0.711430 -6.708540 0.000000 1.467736 0.000000
 28 2.770930 0.042420 -2.816470 0.000000 1.219189 0.000000
 29 -52.850708 -0.361260 -67.170868 1.570802 -0.000018 -0.000537
time 23
  0 1.278131 -1.278131 39.913914 0.000000 0.000000 0.269137
  1 9.062670 0.286610 -3.406700 -0.549955 -0.198777 -0.100115
  2 4.544490 -1.638600 -20.622749 1.394433 -0.084779 0.286348
  3 3.070910 1.647970 -15.136740 -0.547137 0.017174 -0.142657
  4 -0.361640 -14.308061 -6.406600 0.000000 0.000000 0.000000
  5 -9.522449 0.590440 -3.372560 -0.152840 -0.038651 0.022170
  6 -4.141180 -1.081730 -20.790251 1.099138 0.174120 -0.143839
  7 -3.014440 0.974200 -14.527950 -0.947312 -0.165582 0.019358
  8 0.361640 -14.494990 -6.882030 0.000000 0.000000 0.000000
  9 0.013460 -1.507020 5.475230 0.000000 0.000000 0.102449
 10 -0.004780 1.092750 22.735540 0.000000 0.000000 -0.160379
 11 -0.976790 -3.346690 20.865768 -0.103463 0.000000 -0.120785
 12 0.975190 -4.916450 -4.520320 0.661960 0.000000 0.000000
 13 -2.406500 -8.600220 4.877150 0.000000 0.124472 0.000000
 14 4.381730 -8.600220 5.272540 0.000000 -0.172231 0.000000
 15 -18.388140 0.440630 8.679390 0.754723 -0.396438 -0.054426
 16 -21.955891 -0.759690 -12.109390 -1.823312 0.129693 1.370613
 17 -13.311041 1.530050 -7.133010 -0.243259 0.005130 0.238484
 18 -9.635210 -0.302230 -6.530870 0.000000 -1.765540 0.000000
 19 -3.126290 0.042420 -2.638810 0.000000 -0.906786 0.000000
 20 -2.839340 -5.564580 -4.296970 0.324476 -0.061577 -0.358132
 21 -3.811070 -2.785450 -1.806430 0.000000 0.000000 0.000000
 22 18.455151 0.440630 8.679390 -0.826457 0.227697 -0.626831
 23 21.943432 -0.878860 -11.911369 -1.353707 0.727325 -0.593305
 24 13.133340 0.635550 -6.798010 0.820110 0.331296 -0.154856
 25 3.689260 -4.550930 -4.829990 0.000000 0.000000 0.000000
 26 3.087020 -2.930260 -1.806420 0.000000 0.000000 0.000000
 27 10.169240 0.711430 -6.708540 0.000000 1.467736 0.000000
 28 2.770930 0.042420 -2.816470 0.000000 1.219189 0.000000
 29 -52.850708 -0.361260 -67.170868 1.570802 -0.000018 -0.000537
time 24
  0 1.278131 -1.278131 39.913914 0.000000 0.000000 0.080814
  1 9.062670 0.286610 -3.406700 -0.368699 -0.171176 -0.094249
  2 4.544490 -1.638600 -20.622749 1.372412 -0.080500 0.283424
  3 3.070910 1.647970 -15.136740 -0.697792 0.153224 -0.062622
  4 -0.361640 -14.308061 -6.406600 0.000000 0.000000 0.000000
  5 -9.522449 0.590440 -3.372560 -0.209551 0.005942 0.047431
  6 -4.141180 -1.081730 -20.790251 1.114342 0.177360 -0.144282
  7 -3.014440 0.974200 -14.527950 -0.911399 -0.052912 0.148387
  8 0.361640 -14.494990 -6.882030 0.000000 0.000000 0.000000
  9 0.013460 -1.507020 5.475230 0.000000 0.000000 0.102449
 10 -0.004780 1.092750 22.735540 0.000000 0.000000 -0.207842
 11 -0.976790 -3.346690 20.865768 -0.105624 0.000000 0.098956
 12 0.975190 -4.916450 -4.520320 0.631498 0.000000 0.000000
 13 -2.406500 -8.600220 4.877150 0.000000 0.113985 0.000000
 14 4.381730 -8.600220 5.272540 0.000000 -0.157741 0.000000
 15 -18.388140 0.440630 8.679390 0.792950 -0.472549 -0.091545
 16 -21.955891 -0.759690 -12.109390 -1.823312 0.129693 1.370613
 17 -13.311041 1.530050 -7.133010 -0.243259 0.005130 0.238484
 18 -9.635210 -0.302230 -6.530870 0.000000 -1.765540 0.000000
 19 -3.126290 0.042420 -2.638810 0.000000 -0.906786 0.000000
 20 -2.839340 -5.564580 -4.296970 0.324476 -0.061577 -0.358132
 21 -3.811070 -2.785450 -1.806430 0.000000 0.000000 0.000000
 22 18.455151 0.440630 8.679390 -1.067804 0.281314 -0.832102
 23 21.943432 -0.878860 -11.911369 -1.406925 0.729832 -0.487605
 24 13.133340 0.635550 -6.798010 0.966243 0.390340 -0.182454
 25 3.689260 -4.550930 -4.829990 0.000000 0.000000 0.000000
 26 3.087020 -2.930260 -1.806420 0.000000 0.000000 0.000000
 27 10.169240 0.711430 -6.708540 0.000000 1.467736 0.000000
 28 2.770930 0.042420 -2.816470 0.000000 1.219189 0.000000
 29 -52.850708 -0.361260 -67.170868 1.570802 -0.000018 -0.000537
time 25
  0 1.278131 -1.278131 39.913914 0.000000 0.000000 -0.092320
  1 9.062670 0.286610 -3.406700 -0.206051 -0.111369 -0.072353
  2 4.544490 -1.638600 -20.622749 1.322284 -0.071033 0.276437
  3 3.070910 1.647970 -15.136740 -0.805902 0.277930 0.011314
  4 -0.361640 -14.308061 -6.406600 0.000000 0.000000 0.000000
  5 -9.522449 0.590440 -3.372560 -0.265181 0.046712 0.067228
  6 -4.141180 -1.081730 -20.790251 1.120744 0.178728 -0.144450
  7 -3.014440 0.974200 -14.527950 -0.860689 0.041664 0.274980
  8 0.361640 -14.494990 -6.882030 0.000000 0.000000 0.000000
  9 0.013460 -1.507020 5.475230 0.000000 0.000000 0.102449
 10 -0.004780 1.092750 22.735540 0.000000 0.000000 -0.251465
 11 -0.976790 -3.346690 20.865768 -0.107373 0.000000 0.299082
 12 0.975190 -4.916450 -4.520320 0.594658 0.000000 0.000000
 13 -2.406500 -8.600220 4.877150 0.000000 0.103475 0.000000
 14 4.381730 -8.600220 5.272540 0.000000 -0.143180 0.000000
 15 -18.388140 0.440630 8.679390 0.783687 -0.530694 -0.118906
 16 -21.955891 -0.759690 -12.109390 -1.793022 0.128099 1.350235
 17 -13.311041 1.530050 -7.133010 -0.238487 0.005035 0.233786
 18 -9.635210 -0.302230 -6.530870 0.000000 -1.730787 0.000000
 19 -3.126290 0.042420 -2.638810 0.000000 -0.888960 0.000000
 20 -2.839340 -5.564580 -4.296970 0.318085 -0.060366 -0.351085
 21 -3.811070 -2.785450 -1.806430 0.000000 0.000000 0.000000
 22 18.455151 0.440630 8.679390 -1.161433 0.326321 -0.911677
 23 21.943432 -0.878860 -11.911369 -1.427045 0.730424 -0.430508
 24 13.133340 0.635550 -6.798010 1.022905 0.413209 -0.193151
 25 3.689260 -4.550930 -4.829990 0.000000 0.000000 0.000000
 26 3.087020 -2.930260 -1.806420 0.000000 0.000000 0.000000
 27 10.169240 0.711430 -6.708540 0.000000 1.467736 0.000000
 28 2.770930 0.042420 -2.816470 0.000000 1.219189 0.000000
 29 -52.850708 -0.361260 -67.170868 1.570802 -0.000018 -0.000537
time 26
  0 1.278131 -1.278131 39.913914 0.000000 0.000000 -0.234848
  1 9.062670 0.286610 -3.406700 -0.080414 -0.046007 -0.034733
  2 4.544490 -1.638600 -20.622749 1.259843 -0.059743 0.267077
  3 3.070910 1.647970 -15.136740 -0.870084 0.372826 0.076093
  4 -0.361640 -14.308061 -6.406600 0.000000 0.000000 0.000000
  5 -9.522449 0.590440 -3.372560 -0.314327 0.079241 0.079739
  6 -4.141180 -1.081730 -20.790251 1.119871 0.178536 -0.144426
  7 -3.014440 0.974200 -14.527950 -0.805175 0.110605 0.387760
  8 0.361640 -14.494990 -6.882030 0.000000 0.000000 0.000000
  9 0.013460 -1.507020 5.475230 0.000000 0.000000 0.102449
 10 -0.004780 1.092750 22.735540 0.000000 0.000000 -0.287391
 11 -0.976790 -3.346690 20.865768 -0.108612 0.000000 0.462099
 12 0.975190 -4.916450 -4.520320 0.552536 0.000000 0.000000
 13 -2.406500 -8.600220 4.877150 0.000000 0.093000 0.000000
 14 4.381730 -8.600220 5.272540 0.000000 -0.128691 0.000000
 15 -18.388140 0.440630 8.679390 0.758041 -0.583907 -0.143086
 16 -21.955891 -0.759690 -12.109390 -1.709237 0.123672 1.293911
 17 -13.311041 1.530050 -7.133010 -0.225239 0.004750 0.220818
 18 -9.635210 -0.302230 -6.530870 0.000000 -1.634719 0.000000
 19 -3.126290 0.042420 -2.638810 0.000000 -0.839640 0.000000
 20 -2.839340 -5.564580 -4.296970 0.300433 -0.057011 -0.331623
 21 -3.811070 -2.785450 -1.806430 0.000000 0.000000 0.000000
 22 18.455151 0.440630 8.679390 -1.132697 0.367599 -0.889602
 23 21.943432 -0.878860 -11.911369 -1.405009 0.715099 -0.406414
 24 13.133340 0.635550 -6.798010 1.002800 0.405085 -0.189358
 25 3.689260 -4.550930 -4.829990 0.000000 0.000000 0.000000
 26 3.087020 -2.930260 -1.806420 0.000000 0.000000 0.000000
 27 10.169240 0.711430 -6.708540 0.000000 1.438869 0.000000
 28 2.770930 0.042420 -2.816470 0.000000 1.195190 0.000000
 29 -52.850708 -0.361260 -67.170868 1.570802 -0.000018 -0.000537
time 27
  0 1.278131 -1.278131 39.913914 0.000000 0.000000 -0.331503
  1 9.062670 0.286610 -3.406700 0.000416 0.002617 0.001520
  2 4.544490 -1.638600 -20.622749 1.206818 -0.050635 0.258615
  3 3.070910 1.647970 -15.136740 -0.899999 0.431129 0.123715
  4 -0.361640 -14.308061 -6.406600 0.000000 0.000000 0.000000
  5 -9.522449 0.590440 -3.372560 -0.349536 0.100120 0.086197
  6 -4.141180 -1.081730 -20.790251 1.115651 0.177636 -0.144318
  7 -3.014440 0.974200 -14.527950 -0.760267 0.151111 0.469209
  8 0.361640 -14.494990 -6.882030 0.000000 0.000000 0.000000
  9 0.013460 -1.507020 5.475230 0.000000 0.000000 0.102449
 10 -0.004780 1.092750 22.735540 0.000000 0.000000 -0.311762
 11 -0.976790 -3.346690 20.865768 -0.109340 0.000000 0.571636
 12 0.975190 -4.916450 -4.520320 0.506195 0.000000 0.000000
 13 -2.406500 -8.600220 4.877150 0.000000 0.082658 0.000000
 14 4.381730 -8.600220 5.272540 0.000000 -0.114369 0.000000
 15 -18.388140 0.440630 8.679390 0.719330 -0.632185 -0.164170
 16 -21.955891 -0.759690 -12.109390 -1.582682 0.116979 1.208775
 17 -13.311041 1.530050 -7.133010 -0.205242 0.004323 0.201224
 18 -9.635210 -0.302230 -6.530870 0.000000 -1.489620 0.000000
 19 -3.126290 0.042420 -2.638810 0.000000 -0.765114 0.000000
 20 -2.839340 -5.564580 -4.296970 0.273781 -0.051953 -0.302183
 21 -3.811070 -2.785450 -1.806430 0.000000 0.000000 0.000000
 22 18.455151 0.440630 8.679390 -1.053377 0.412843 -0.828644
 23 21.943432 -0.878860 -11.911369 -1.344213 0.672703 -0.385690
 24 13.133340 0.635550 -6.798010 0.947138 0.382617 -0.178848
 25 3.689260 -4.550930 -4.829990 0.000000 0.000000 0.000000
 26 3.087020 -2.930260 -1.806420 0.000000 0.000000 0.000000
 27 10.169240 0.711430 -6.708540 0.000000 1.359015 0.000000
 28 2.770930 0.042420 -2.816470 0.000000 1.128848 0.000000
 29 -52.850708 -0.361260 -67.170868 1.570802 -0.000018 -0.000537
time 28
  0 1.278131 -1.278131 39.913914 0.000000 0.000000 -0.367173
  1 9.062670 0.286610 -3.406700 0.029525 0.021095 0.016660
  2 4.544490 -1.638600 -20.622749 1.185087 -0.047040 0.255008
  3 3.070910 1.647970 -15.136740 -0.908200 0.451401 0.142471
  4 -0.361640 -14.308061 -6.406600 0.000000 0.000000 0.000000
  5 -9.522449 0.590440 -3.372560 -0.362847 0.107462 0.088147
  6 -4.141180 -1.081730 -20.790251 1.113323 0.177132 -0.144247
  7 -3.014440 0.974200 -14.527950 -0.742246 0.164528 0.500255
  8 0.361640 -14.494990 -6.882030 0.000000 0.000000 0.000000
  9 0.013460 -1.507020 5.475230 0.000000 0.000000 0.102449
 10 -0.004780 1.092750 22.735540 0.000000 0.000000 -0.320758
 11 -0.976790 -3.346690 20.865768 -0.109583 0.000000 0.611777
 12 0.975190 -4.916450 -4.520320 0.456699 0.000000 0.000000
 13 -2.406500 -8.600220 4.877150 0.000000 0.072531 0.000000
 14 4.381730 -8.600220 5.272540 0.000000 -0.100359 0.000000
 15 -18.388140 0.440630 8.679390 0.670734 -0.675473 -0.182411
 16 -21.955891 -0.759690 -12.109390 -1.424017 0.108550 1.102072
 17 -13.311041 1.530050 -7.133010 -0.180191 0.003801 0.176655
 18 -9.635210 -0.302230 -6.530870 0.000000 -1.307775 0.000000
 19 -3.126290 0.042420 -2.638810 0.000000 -0.671671 0.000000
 20 -2.839340 -5.564580 -4.296970 0.240346 -0.045613 -0.265294
 21 -3.811070 -2.785450 -1.806430 0.000000 0.000000 0.000000
 22 18.455151 0.440630 8.679390 -0.933505 0.460601 -0.736523
 23 21.943432 -0.878860 -11.911369 -1.252323 0.608672 -0.368150
 24 13.133340 0.635550 -6.798010 0.863097 0.348648 -0.162973
 25 3.689260 -4.550930 -4.829990 0.000000 0.000000 0.000000
 26 3.087020 -2.930260 -1.806420 0.000000 0.000000 0.000000
 27 10.169240 0.711430 -6.708540 0.000000 1.238390 0.000000
 28 2.770930 0.042420 -2.816470 0.000000 1.028685 0.000000
 29 -52.850708 -0.361260 -67.170868 1.570802 -0.000018 -0.000537
time 29
  0 1.278131 -1.278131 40.023293 0.000000 0.000000 -0.359918
  1 9.062670 0.286610 -3.406700 0.020376 0.017148 0.013036
  2 4.544490 -1.638600 -20.622749 1.180233 -0.046249 0.254193
  3 3.070910 1.647970 -15.136740 -0.899306 0.439716 0.144187
  4 -0.361640 -14.308061 -6.406600 0.000000 0.000000 0.000000
  5 -9.522449 0.590440 -3.372560 -0.361595 0.103782 0.087338
  6 -4.141180 -1.081730 -20.790251 1.105830 0.175536 -0.144043
  7 -3.014440 0.974200 -14.527950 -0.736702 0.160042 0.492533
  8 0.361640 -14.494990 -6.882030 0.000000 0.000000 0.000000
  9 0.013460 -1.507020 5.475230 0.000000 0.000000 0.100434
 10 -0.004780 1.092750 22.735540 0.000000 0.000000 -0.314433
 11 -0.976790 -3.346690 20.865768 -0.107154 0.000000 0.599801
 12 0.975190 -4.916450 -4.520320 0.405076 0.000000 0.000000
 13 -2.406500 -8.600220 4.877150 0.000000 0.062703 0.000000
 14 4.381730 -8.600220 5.272540 0.000000 -0.086780 0.000000
 15 -18.388140 0.440630 8.679390 0.615641 -0.713771 -0.197937
 16 -21.955891 -0.759690 -12.109390 -1.244033 0.099023 0.980934
 17 -13.311041 1.530050 -7.133010 -0.151748 0.003208 0.148767
 18 -9.635210 -0.302230 -6.530870 0.000000 -1.101415 0.000000
 19 -3.126290 0.042420 -2.638810 0.000000 -0.565702 0.000000
 20 -2.839340 -5.564580 -4.296970 0.202412 -0.038411 -0.223416
 21 -3.811070 -2.785450 -1.806430 0.000000 0.000000 0.000000
 22 18.455151 0.440630 8.679390 -0.783234 0.509425 -0.621040
 23 21.943432 -0.878860 -11.911369 -1.137133 0.528416 -0.353518
 24 13.133340 0.635550 -6.798010 0.757704 0.306087 -0.143082
 25 3.689260 -4.550930 -4.829990 0.000000 0.000000 0.000000
 26 3.087020 -2.930260 -1.806420 0.000000 0.000000 0.000000
 27 10.169240 0.711430 -6.708540 0.000000 1.087212 0.000000
 28 2.770930 0.042420 -2.816470 0.000000 0.903071 0.000000
 29 -52.850708 -0.361260 -67.170868 1.570802 -0.000018 -0.000537
time 30
  0 1.278131 -1.278131 40.331894 0.000000 0.000000 -0.339967
  1 9.062670 0.286610 -3.406700 -0.004106 0.007017 0.003025
  2 4.544490 -1.638600 -20.622749 1.165311 -0.043828 0.251652
  3 3.070910 1.647970 -15.136740 -0.874511 0.407759 0.148314
  4 -0.361640 -14.308061 -6.406600 0.000000 0.000000 0.000000
  5 -9.522449 0.590440 -3.372560 -0.357955 0.093962 0.085130
  6 -4.141180 -1.081730 -20.790251 1.084588 0.171000 -0.143372
  7 -3.014440 0.974200 -14.527950 -0.720905 0.147635 0.471075
  8 0.361640 -14.494990 -6.882030 0.000000 0.000000 0.000000
  9 0.013460 -1.507020 5.475230 0.000000 0.000000 0.094854
 10 -0.004780 1.092750 22.735540 0.000000 0.000000 -0.296980
 11 -0.976790 -3.346690 20.865768 -0.100500 0.000000 0.566725
 12 0.975190 -4.916450 -4.520320 0.352390 0.000000 0.000000
 13 -2.406500 -8.600220 4.877150 0.000000 0.053283 0.000000
 14 4.381730 -8.600220 5.272540 0.000000 -0.073729 0.000000
 15 -18.388140 0.440630 8.679390 0.557298 -0.747022 -0.210833
 16 -21.955891 -0.759690 -12.109390 -1.053258 0.088929 0.852664
 17 -13.311041 1.530050 -7.133010 -0.121611 0.002568 0.119237
 18 -9.635210 -0.302230 -6.530870 0.000000 -0.882770 0.000000
 19 -3.126290 0.042420 -2.638810 0.000000 -0.453393 0.000000
 20 -2.839340 -5.564580 -4.296970 0.162238 -0.030788 -0.179055
 21 -3.811070 -2.785450 -1.806430 0.000000 0.000000 0.000000
 22 18.455151 0.440630 8.679390 -0.612659 0.557894 -0.489957
 23 21.943432 -0.878860 -11.911369 -1.006396 0.437313 -0.341517
 24 13.133340 0.635550 -6.798010 0.638137 0.257775 -0.120491
 25 3.689260 -4.550930 -4.829990 0.000000 0.000000 0.000000
 26 3.087020 -2.930260 -1.806420 0.000000 0.000000 0.000000
 27 10.169240 0.711430 -6.708540 0.000000 0.915649 0.000000
 28 2.770930 0.042420 -2.816470 0.000000 0.760565 0.000000
 29 -52.850708 -0.361260 -67.170868 1.570802 -0.000018 -0.000537
time 31
  0 1.278131 -1.278131 40.796753 0.000000 0.000000 -0.309814
  1 9.062670 0.286610 -3.406700 -0.039349 -0.007090 -0.010226
  2 4.544490 -1.638600 -20.622749 1.138582 -0.039609 0.247038
  3 3.070910 1.647970 -15.136740 -0.836203 0.359140 0.151351
  4 -0.361640 -14.308061 -6.406600 0.000000 0.000000 0.000000
  5 -9.522449 0.590440 -3.372560 -0.351869 0.080067 0.081892
  6 -4.141180 -1.081730 -20.790251 1.050761 0.163812 -0.142101
  7 -3.014440 0.974200 -14.527950 -0.695663 0.128973 0.438501
  8 0.361640 -14.494990 -6.882030 0.000000 0.000000 0.000000
  9 0.013460 -1.507020 5.475230 0.000000 0.000000 0.086440
 10 -0.004780 1.092750 22.735540 0.000000 0.000000 -0.270624
 11 -0.976790 -3.346690 20.865768 -0.090591 0.000000 0.516640
 12 0.975190 -4.916450 -4.520320 0.299704 0.000000 0.000000
 13 -2.406500 -8.600220 4.877150 0.000000 0.044343 0.000000
 14 4.381730 -8.600220 5.272540 0.000000 -0.061361 0.000000
 15 -18.388140 0.440630 8.679390 0.498886 -0.775225 -0.221353
 16 -21.955891 -0.759690 -12.109390 -0.862548 0.078836 0.724337
 17 -13.311041 1.530050 -7.133010 -0.091505 0.001927 0.089707
 18 -9.635210 -0.302230 -6.530870 0.000000 -0.664071 0.000000
 19 -3.126290 0.042420 -2.638810 0.000000 -0.341084 0.000000
 20 -2.839340 -5.564580 -4.296970 0.122043 -0.023154 -0.134716
 21 -3.811070 -2.785450 -1.806430 0.000000 0.000000 0.000000
 22 18.455151 0.440630 8.679390 -0.432049 0.604587 -0.351152
 23 21.943432 -0.878860 -11.911369 -0.867907 0.340802 -0.331916
 24 13.133340 0.635550 -6.798010 0.511452 0.206588 -0.096567
 25 3.689260 -4.550930 -4.829990 0.000000 0.000000 0.000000
 26 3.087020 -2.930260 -1.806420 0.000000 0.000000 0.000000
 27 10.169240 0.711430 -6.708540 0.000000 0.733868 0.000000
 28 2.770930 0.042420 -2.816470 0.000000 0.609576 0.000000
 29 -52.850708 -0.361260 -67.170868 1.570802 -0.000018 -0.000537
time 32
  0 1.278131 -1.278131 41.382706 0.000000 0.000000 -0.271953
  1 9.062670 0.286610 -3.406700 -0.080258 -0.022923 -0.022741
  2 4.544490 -1.638600 -20.622749 1.097871 -0.033425 0.239800
  3 3.070910 1.647970 -15.136740 -0.786036 0.297495 0.148638
  4 -0.361640 -14.308061 -6.406600 0.000000 0.000000 0.000000
  5 -9.522449 0.590440 -3.372560 -0.343223 0.064233 0.078010
  6 -4.141180 -1.081730 -20.790251 1.005366 0.154224 -0.140016
  7 -3.014440 0.974200 -14.527950 -0.661716 0.105887 0.397271
  8 0.361640 -14.494990 -6.882030 0.000000 0.000000 0.000000
  9 0.013460 -1.507020 5.475230 0.000000 0.000000 0.075886
 10 -0.004780 1.092750 22.735540 0.000000 0.000000 -0.237592
 11 -0.976790 -3.346690 20.865768 -0.078447 0.000000 0.453792
 12 0.975190 -4.916450 -4.520320 0.248082 0.000000 0.000000
 13 -2.406500 -8.600220 4.877150 0.000000 0.035966 0.000000
 14 4.381730 -8.600220 5.272540 0.000000 -0.049772 0.000000
 15 -18.388140 0.440630 8.679390 0.443792 -0.798380 -0.229626
 16 -21.955891 -0.759690 -12.109390 -0.682499 0.069309 0.603255
 17 -13.311041 1.530050 -7.133010 -0.063063 0.001310 0.061819
 18 -9.635210 -0.302230 -6.530870 0.000000 -0.457711 0.000000
 19 -3.126290 0.042420 -2.638810 0.000000 -0.235064 0.000000
 20 -2.839340 -5.564580 -4.296970 0.084108 -0.015963 -0.092838
 21 -3.811070 -2.785450 -1.806430 0.000000 0.000000 0.000000
 22 18.455151 0.440630 8.679390 -0.251381 0.648026 -0.212308
 23 21.943432 -0.878860 -11.911369 -0.729418 0.244320 -0.324485
 24 13.133340 0.635550 -6.798010 0.384768 0.155434 -0.072660
 25 3.689260 -4.550930 -4.829990 0.000000 0.000000 0.000000
 26 3.087020 -2.930260 -1.806420 0.000000 0.000000 0.000000
 27 10.169240 0.711430 -6.708540 0.000000 0.552087 0.000000
 28 2.770930 0.042420 -2.816470 0.000000 0.458587 0.000000
 29 -52.850708 -0.361260 -67.170868 1.570802 -0.000018 -0.000537
time 33
  0 1.278131 -1.278131 42.042885 0.000000 0.000000 -0.229104
  1 9.062670 0.286610 -3.406700 -0.121583 -0.037177 -0.033197
  2 4.544490 -1.638600 -20.622749 1.041370 -0.025347 0.229361
  3 3.070910 1.647970 -15.136740 -0.725743 0.228970 0.137649
  4 -0.361640 -14.308061 -6.406600 0.000000 0.000000 0.000000
  5 -9.522449 0.590440 -3.372560 -0.331789 0.048381 0.073686
  6 -4.141180 -1.081730 -20.790251 0.949424 0.142548 -0.136852
  7 -3.014440 0.974200 -14.527950 -0.619903 0.080379 0.349717
  8 0.361640 -14.494990 -6.882030 0.000000 0.000000 0.000000
  9 0.013460 -1.507020 5.475230 0.000000 0.000000 0.063908
 10 -0.004780 1.092750 22.735540 0.000000 0.000000 -0.200089
 11 -0.976790 -3.346690 20.865768 -0.065041 0.000000 0.382334
 12 0.975190 -4.916450 -4.520320 0.198552 0.000000 0.000000
 13 -2.406500 -8.600220 4.877150 0.000000 0.028248 0.000000
 14 4.381730 -8.600220 5.272540 0.000000 -0.039094 0.000000
 15 -18.388140 0.440630 8.679390 0.395265 -0.816403 -0.235734
 16 -21.955891 -0.759690 -12.109390 -0.523899 0.060880 0.496552
 17 -13.311041 1.530050 -7.133010 -0.038012 0.000789 0.037262
 18 -9.635210 -0.302230 -6.530870 0.000000 -0.275866 0.000000
 19 -3.126290 0.042420 -2.638810 0.000000 -0.141672 0.000000
 20 -2.839340 -5.564580 -4.296970 0.050695 -0.009612 -0.055949
 21 -3.811070 -2.785450 -1.806430 0.000000 0.000000 0.000000
 22 18.455151 0.440630 8.679390 -0.080865 0.686789 -0.081224
 23 21.943432 -0.878860 -11.911369 -0.598725 0.153217 -0.318946
 24 13.133340 0.635550 -6.798010 0.265201 0.107122 -0.050069
 25 3.689260 -4.550930 -4.829990 0.000000 0.000000 0.000000
 26 3.087020 -2.930260 -1.806420 0.000000 0.000000 0.000000
 27 10.169240 0.711430 -6.708540 0.000000 0.380524 0.000000
 28 2.770930 0.042420 -2.816470 0.000000 0.316081 0.000000
 29 -52.850708 -0.361260 -67.170868 1.570802 -0.000018 -0.000537
time 34
  0 1.278131 -1.278131 42.746029 0.000000 0.000000 -0.183610
  1 9.062670 0.286610 -3.406700 -0.158541 -0.047571 -0.040291
  2 4.544490 -1.638600 -20.622749 0.968642 -0.015856 0.215303
  3 3.070910 1.647970 -15.136740 -0.656557 0.159859 0.116481
  4 -0.361640 -14.308061 -6.406600 0.000000 0.000000 0.000000
  5 -9.522449 0.590440 -3.372560 -0.317228 0.034002 0.069105
  6 -4.141180 -1.081730 -20.790251 0.884533 0.129216 -0.132346
  7 -3.014440 0.974200 -14.527950 -0.571482 0.054639 0.298173
  8 0.361640 -14.494990 -6.882030 0.000000 0.000000 0.000000
  9 0.013460 -1.507020 5.475230 0.000000 0.000000 0.051224
 10 -0.004780 1.092750 22.735540 0.000000 0.000000 -0.160379
 11 -0.976790 -3.346690 20.865768 -0.051270 0.000000 0.306540
 12 0.975190 -4.916450 -4.520320 0.152211 0.000000 0.000000
 13 -2.406500 -8.600220 4.877150 0.000000 0.021285 0.000000
 14 4.381730 -8.600220 5.272540 0.000000 -0.029446 0.000000
 15 -18.388140 0.440630 8.679390 0.356485 -0.829321 -0.239934
 16 -21.955891 -0.759690 -12.109390 -0.397344 0.054186 0.411416
 17 -13.311041 1.530050 -7.133010 -0.018015 0.000362 0.017656
 18 -9.635210 -0.302230 -6.530870 0.000000 -0.130767 0.000000
 19 -3.126290 0.042420 -2.638810 0.000000 -0.067146 0.000000
 20 -2.839340 -5.564580 -4.296970 0.024022 -0.004554 -0.026509
 21 -3.811070 -2.785450 -1.806430 0.000000 0.000000 0.000000
 22 18.455151 0.440630 8.679390 0.069346 0.719457 0.034219
 23 21.943432 -0.878860 -11.911369 -0.483535 0.072932 -0.315115
 24 13.133340 0.635550 -6.798010 0.159807 0.064561 -0.030178
 25 3.689260 -4.550930 -4.829990 0.000000 0.000000 0.000000
 26 3.087020 -2.930260 -1.806420 0.000000 0.000000 0.000000
 27 10.169240 0.711430 -6.708540 0.000000 0.229297 0.000000
 28 2.770930 0.042420 -2.816470 0.000000 0.190467 0.000000
 29 -52.850708 -0.361260 -67.170868 1.570802 -0.000018 -0.000537
time 35
  0 1.278131 -1.278131 43.449177 0.000000 0.000000 -0.138116
  1 9.062670 0.286610 -3.406700 -0.187182 -0.052717 -0.044115
  2 4.544490 -1.638600 -20.622749 0.880992 -0.005836 0.197530
  3 3.070910 1.647970 -15.136740 -0.580171 0.096896 0.085668
  4 -0.361640 -14.308061 -6.406600 0.000000 0.000000 0.000000
  5 -9.522449 0.590440 -3.372560 -0.299765 0.022081 0.064321
  6 -4.141180 -1.081730 -20.790251 0.812732 0.114852 -0.126378
  7 -3.014440 0.974200 -14.527950 -0.518289 0.030774 0.245074
  8 0.361640 -14.494990 -6.882030 0.000000 0.000000 0.000000
  9 0.013460 -1.507020 5.475230 0.000000 0.000000 0.038529
 10 -0.004780 1.092750 22.735540 0.000000 0.000000 -0.120651
 11 -0.976790 -3.346690 20.865768 -0.037912 0.000000 0.230655
 12 0.975190 -4.916450 -4.520320 0.110122 0.000000 0.000000
 13 -2.406500 -8.600220 4.877150 0.000000 0.015137 0.000000
 14 4.381730 -8.600220 5.272540 0.000000 -0.020949 0.000000
 15 -18.388140 0.440630 8.679390 0.330839 -0.837106 -0.242352
 16 -21.955891 -0.759690 -12.109390 -0.313559 0.049759 0.355036
 17 -13.311041 1.530050 -7.133010 -0.004767 0.000101 0.004688
 18 -9.635210 -0.302230 -6.530870 0.000000 -0.034699 0.000000
 19 -3.126290 0.042420 -2.638810 0.000000 -0.017826 0.000000
 20 -2.839340 -5.564580 -4.296970 0.006370 -0.001210 -0.007047
 21 -3.811070 -2.785450 -1.806430 0.000000 0.000000 0.000000
 22 18.455151 0.440630 8.679390 0.189218 0.744549 0.126339
 23 21.943432 -0.878860 -11.911369 -0.391645 0.008902 -0.312669
 24 13.133340 0.635550 -6.798010 0.075767 0.030592 -0.014303
 25 3.689260 -4.550930 -4.829990 0.000000 0.000000 0.000000
 26 3.087020 -2.930260 -1.806420 0.000000 0.000000 0.000000
 27 10.169240 0.711430 -6.708540 0.000000 0.108721 0.000000
 28 2.770930 0.042420 -2.816470 0.000000 0.090303 0.000000
 29 -52.850708 -0.361260 -67.170868 1.570802 -0.000018 -0.000537
time 36
  0 1.278131 -1.278131 44.109352 0.000000 0.000000 -0.095192
  1 9.062670 0.286610 -3.406700 -0.204960 -0.052541 -0.045282
  2 4.544490 -1.638600 -20.622749 0.781896 0.003559 0.176509
  3 3.070910 1.647970 -15.136740 -0.499473 0.045789 0.048178
  4 -0.361640 -14.308061 -6.406600 0.000000 0.000000 0.000000
  5 -9.522449 0.590440 -3.372560 -0.279800 0.013051 0.059390
  6 -4.141180 -1.081730 -20.790251 0.737438 0.100260 -0.119031
  7 -3.014440 0.974200 -14.527950 -0.463066 0.010574 0.193193
  8 0.361640 -14.494990 -6.882030 0.000000 0.000000 0.000000
  9 0.013460 -1.507020 5.475230 0.000000 0.000000 0.026551
 10 -0.004780 1.092750 22.735540 0.000000 0.000000 -0.083148
 11 -0.976790 -3.346690 20.865768 -0.025720 0.000000 0.158985
 12 0.975190 -4.916450 -4.520320 0.073282 0.000000 0.000000
 13 -2.406500 -8.600220 4.877150 0.000000 0.009923 0.000000
 14 4.381730 -8.600220 5.272540 0.000000 -0.013734 0.000000
 15 -18.388140 0.440630 8.679390 0.321576 -0.839701 -0.243115
 16 -21.955891 -0.759690 -12.109390 -0.283269 0.048166 0.334658
 17 -13.311041 1.530050 -7.133010 0.000005 -0.000018 -0.000010
 18 -9.635210 -0.302230 -6.530870 0.000000 0.000000 0.000000
 19 -3.126290 0.042420 -2.638810 0.000000 0.000000 0.000000
 20 -2.839340 -5.564580 -4.296970 0.000000 0.000000 0.000000
 21 -3.811070 -2.785450 -1.806430 0.000000 0.000000 0.000000
 22 18.455151 0.440630 8.679390 0.268599 0.760676 0.187297
 23 21.943432 -0.878860 -11.911369 -0.330805 -0.033438 -0.311376
 24 13.133340 0.635550 -6.798010 0.020105 0.008124 -0.003794
 25 3.689260 -4.550930 -4.829990 0.000000 0.000000 0.000000
 26 3.087020 -2.930260 -1.806420 0.000000 0.000000 0.000000
 27 10.169240 0.711430 -6.708540 0.000000 0.028867 0.000000
 28 2.770930 0.042420 -2.816470 0.000000 0.023962 0.000000
 29 -52.850708 -0.361260 -67.170868 1.570802 -0.000018 -0.000537
time 37
  0 1.278131 -1.278131 44.695309 0.000000 0.000000 -0.057406
  1 9.062670 0.286610 -3.406700 -0.211353 -0.048199 -0.044622
  2 4.544490 -1.638600 -20.622749 0.677731 0.011122 0.153583
  3 3.070910 1.647970 -15.136740 -0.419391 0.009807 0.009181
  4 -0.361640 -14.308061 -6.406600 0.000000 0.000000 0.000000
  5 -9.522449 0.590440 -3.372560 -0.258640 0.006858 0.054496
  6 -4.141180 -1.081730 -20.790251 0.663382 0.086496 -0.110762
  7 -3.014440 0.974200 -14.527950 -0.409519 -0.004739 0.145770
  8 0.361640 -14.494990 -6.882030 0.000000 0.000000 0.000000
  9 0.013460 -1.507020 5.475230 0.000000 0.000000 0.015996
 10 -0.004780 1.092750 22.735540 0.000000 0.000000 -0.050115
 11 -0.976790 -3.346690 20.865768 -0.015277 0.000000 0.095803
 12 0.975190 -4.916450 -4.520320 0.042786 0.000000 0.000000
 13 -2.406500 -8.600220 4.877150 0.000000 0.005705 0.000000
 14 4.381730 -8.600220 5.272540 0.000000 -0.007898 0.000000
 15 -18.388140 0.440630 8.679390 0.321576 -0.839701 -0.243115
 16 -21.955891 -0.759690 -12.109390 -0.283269 0.048166 0.334658
 17 -13.311041 1.530050 -7.133010 0.000005 -0.000018 -0.000010
 18 -9.635210 -0.302230 -6.530870 0.000000 0.000000 0.000000
 19 -3.126290 0.042420 -2.638810 0.000000 0.000000 0.000000
 20 -2.839340 -5.564580 -4.296970 0.000000 0.000000 0.000000
 21 -3.811070 -2.785450 -1.806430 0.000000 0.000000 0.000000
 22 18.455151 0.440630 8.679390 0.297275 0.766357 0.209372
 23 21.943432 -0.878860 -11.911369 -0.308813 -0.048791 -0.311007
 24 13.133340 0.635550 -6.798010 0.000000 0.000000 0.000000
 25 3.689260 -4.550930 -4.829990 0.000000 0.000000 0.000000
 26 3.087020 -2.930260 -1.806420 0.000000 0.000000 0.000000
 27 10.169240 0.711430 -6.708540 0.000000 0.000000 0.000000
 28 2.770930 0.042420 -2.816470 0.000000 0.000000 0.000000
 29 -52.850708 -0.361260 -67.170868 1.570802 -0.000018 -0.000537
time 38
  0 1.278131 -1.278131 45.160168 0.000000 0.000000 -0.027253
  1 9.062670 0.286610 -3.406700 -0.208390 -0.041840 -0.042902
  2 4.544490 -1.638600 -20.622749 0.579577 0.016035 0.131375
  3 3.070910 1.647970 -15.136740 -0.347394 -0.011026 -0.025086
  4 -0.361640 -14.308061 -6.406600 0.000000 0.000000 0.000000
  5 -9.522449 0.590440 -3.372560 -0.238788 0.003106 0.050062
  6 -4.141180 -1.081730 -20.790251 0.597691 0.074832 -0.102588
  7 -3.014440 0.974200 -14.527950 -0.362741 -0.014871 0.106561
  8 0.361640 -14.494990 -6.882030 0.000000 0.000000 0.000000
  9 0.013460 -1.507020 5.475230 0.000000 0.000000 0.007582
 10 -0.004780 1.092750 22.735540 0.000000 0.000000 -0.023759
 11 -0.976790 -3.346690 20.865768 -0.007140 0.000000 0.045416
 12 0.975190 -4.916450 -4.520320 0.019732 0.000000 0.000000
 13 -2.406500 -8.600220 4.877150 0.000000 0.002589 0.000000
 14 4.381730 -8.600220 5.272540 0.000000 -0.003595 0.000000
 15 -18.388140 0.440630 8.679390 0.321576 -0.839701 -0.243115
 16 -21.955891 -0.759690 -12.109390 -0.283269 0.048166 0.334658
 17 -13.311041 1.530050 -7.133010 0.000005 -0.000018 -0.000010
 18 -9.635210 -0.302230 -6.530870 0.000000 0.000000 0.000000
 19 -3.126290 0.042420 -2.638810 0.000000 0.000000 0.000000
 20 -2.839340 -5.564580 -4.296970 0.000000 0.000000 0.000000
 21 -3.811070 -2.785450 -1.806430 0.000000 0.000000 0.000000
 22 18.455151 0.440630 8.679390 0.297275 0.766357 0.209372
 23 21.943432 -0.878860 -11.911369 -0.308813 -0.048791 -0.311007
 24 13.133340 0.635550 -6.798010 0.000000 0.000000 0.000000
 25 3.689260 -4.550930 -4.829990 0.000000 0.000000 0.000000
 26 3.087020 -2.930260 -1.806420 0.000000 0.000000 0.000000
 27 10.169240 0.711430 -6.708540 0.000000 0.000000 0.000000
 28 2.770930 0.042420 -2.816470 0.000000 0.000000 0.000000
 29 -52.850708 -0.361260 -67.170868 1.570802 -0.000018 -0.000537
time 39
  0 1.278131 -1.278131 45.468769 0.000000 0.000000 -0.007227
  1 9.062670 0.286610 -3.406700 -0.201269 -0.036124 -0.041013
  2 4.544490 -1.638600 -20.622749 0.504386 0.018300 0.114141
  3 3.070910 1.647970 -15.136740 -0.294455 -0.020101 -0.048758
  4 -0.361640 -14.308061 -6.406600 0.000000 0.000000 0.000000
  5 -9.522449 0.590440 -3.372560 -0.223772 0.001221 0.046787
  6 -4.141180 -1.081730 -20.790251 0.550042 0.066720 -0.096200
  7 -3.014440 0.974200 -14.527950 -0.329343 -0.020326 0.079791
  8 0.361640 -14.494990 -6.882030 0.000000 0.000000 0.000000
  9 0.013460 -1.507020 5.475230 0.000000 0.000000 0.002015
 10 -0.004780 1.092750 22.735540 0.000000 0.000000 -0.006306
 11 -0.976790 -3.346690 20.865768 -0.001870 0.000000 0.012036
 12 0.975190 -4.916450 -4.520320 0.005083 0.000000 0.000000
 13 -2.406500 -8.600220 4.877150 0.000000 0.000659 0.000000
 14 4.381730 -8.600220 5.272540 0.000000 -0.000911 0.000000
 15 -18.388140 0.440630 8.679390 0.321576 -0.839701 -0.243115
 16 -21.955891 -0.759690 -12.109390 -0.283269 0.048166 0.334658
 17 -13.311041 1.530050 -7.133010 0.000005 -0.000018 -0.000010
 18 -9.635210 -0.302230 -6.530870 0.000000 0.000000 0.000000
 19 -3.126290 0.042420 -2.638810 0.000000 0.000000 0.000000
 20 -2.839340 -5.564580 -4.296970 0.000000 0.000000 0.000000
 21 -3.811070 -2.785450 -1.806430 0.000000 0.000000 0.000000
 22 18.455151 0.440630 8.679390 0.297275 0.766357 0.209372
 23 21.943432 -0.878860 -11.911369 -0.308813 -0.048791 -0.311007
 24 13.133340 0.635550 -6.798010 0.000000 0.000000 0.000000
 25 3.689260 -4.550930 -4.829990 0.000000 0.000000 0.000000
 26 3.087020 -2.930260 -1.806420 0.000000 0.000000 0.000000
 27 10.169240 0.711430 -6.708540 0.000000 0.000000 0.000000
 28 2.770930 0.042420 -2.816470 0.000000 0.000000 0.000000
 29 -52.850708 -0.361260 -67.170868 1.570802 -0.000018 -0.000537
time 40
  0 1.278131 -1.278131 45.578148 0.000000 0.000000 -0.000048
  1 9.062670 0.286610 -3.406700 -0.197422 -0.033741 -0.040153
  2 4.544490 -1.638600 -20.622749 0.474614 0.018840 0.107274
  3 3.070910 1.647970 -15.136740 -0.273973 -0.022297 -0.057383
  4 -0.361640 -14.308061 -6.406600 0.000000 0.000000 0.000000
  5 -9.522449 0.590440 -3.372560 -0.217970 0.000646 0.045168
  6 -4.141180 -1.081730 -20.790251 0.531855 0.063696 -0.093660
  7 -3.014440 0.974200 -14.527950 -0.316609 -0.021906 0.070254
  8 0.361640 -14.494990 -6.882030 0.000000 0.000000 0.000000
  9 0.013460 -1.507020 5.475230 0.000000 0.000000 0.000000
 10 -0.004780 1.092750 22.735540 0.000000 0.000000 0.000000
 11 -0.976790 -3.346690 20.865768 0.000000 0.000000 0.000000
 12 0.975190 -4.916450 -4.520320 0.000000 0.000000 0.000000
 13 -2.406500 -8.600220 4.877150 0.000000 0.000000 0.000000
 14 4.381730 -8.600220 5.272540 0.000000 0.000000 0.000000
 15 -18.388140 0.440630 8.679390 0.321576 -0.839701 -0.243115
 16 -21.955891 -0.759690 -12.109390 -0.283269 0.048166 0.334658
 17 -13.311041 1.530050 -7.133010 0.000005 -0.000018 -0.000010
 18 -9.635210 -0.302230 -6.530870 0.000000 0.000000 0.000000
 19 -3.126290 0.042420 -2.638810 0.000000 0.000000 0.000000
 20 -2.839340 -5.564580 -4.296970 0.000000 0.000000 0.000000
 21 -3.811070 -2.785450 -1.806430 0.000000 0.000000 0.000000
 22 18.455151 0.440630 8.679390 0.297275 0.766357 0.209372
 23 21.943432 -0.878860 -11.911369 -0.308813 -0.048791 -0.311007
 24 13.133340 0.635550 -6.798010 0.000000 0.000000 0.000000
 25 3.689260 -4.550930 -4.829990 0.000000 0.000000 0.000000
 26 3.087020 -2.930260 -1.806420 0.000000 0.000000 0.000000
 27 10.169240 0.711430 -6.708540 0.000000 0.000000 0.000000
 28 2.770930 0.042420 -2.816470 0.000000 0.000000 0.000000
 29 -52.850708 -0.361260 -67.170868 1.570802 -0.000018 -0.000537
end
