version 1
nodes
  0 "Hips"  -1
  1 "LLegUpper"   0
  2 "LLegLower"   1
  3 "LFoot"   2
  4 "LToes"   3
  5 "RLegUpper"   0
  6 "RLegLower"   5
  7 "RFoot"   6
  8 "RToes"   7
  9 "BodyLower"   0
 10 "BodyUpper"   9
 11 "Head"  10
 12 "Jaw"  11
 13 "HeadRBrow"  11
 14 "HeadLBrow"  11
 15 "RArm"  10
 16 "RArm2"  15
 17 "RPalm"  16
 18 "RFingStart"  17
 19 "RFingEnd"  18
 20 "RThumbStart"  17
 21 "RThumbEnd"  20
 22 "LArm"  10
 23 "LArm2"  22
 24 "LPalm"  23
 25 "LThumStart"  24
 26 "LThumEnd"  25
 27 "LFingStart"  24
 28 "LFingEnd"  27
 29 "GeoSphere01"   9
end
skeleton
time 0
  0 1.278131 -1.278131 46.410206 0.000000 0.000000 -0.000048
  1 9.062670 0.286610 -3.406700 -0.134942 -0.020642 -0.028238
  2 4.544490 -1.638600 -20.622749 0.322712 0.018408 0.072171
  3 3.070910 1.647970 -15.136740 -0.186229 -0.014783 -0.038696
  4 -0.361640 -14.308061 -6.406600 0.000000 0.000000 0.000000
  5 -9.522449 0.590440 -3.372560 -0.153864 -0.002316 0.031885
  6 -4.141180 -1.081730 -20.790251 0.374357 0.039684 -0.069559
  7 -3.014440 0.974200 -14.527950 -0.221926 -0.016177 0.047605
  8 0.361640 -14.494990 -6.882030 0.000000 0.000000 0.000000
  9 0.013460 -1.507020 5.475230 0.000000 0.000000 0.000000
 10 -0.004780 1.092750 22.735540 0.000000 0.000000 0.000000
 11 -0.976790 -3.346690 20.865768 -0.017948 0.000000 0.000000
 12 0.975190 -4.916450 -4.520320 0.000000 0.000000 0.000000
 13 -2.406500 -8.600220 4.877150 0.000000 0.000000 0.000000
 14 4.381730 -8.600220 5.272540 0.000000 0.000000 0.000000
 15 -18.388140 0.440630 8.679390 0.112331 -0.815405 -0.153777
 16 -21.955891 -0.759690 -12.109390 0.000000 0.000000 0.197047
 17 -13.311041 1.530050 -7.133010 0.000005 -0.000018 -0.000010
 18 -9.635210 -0.302230 -6.530870 0.000000 0.000000 0.000000
 19 -3.126290 0.042420 -2.638810 0.000000 0.000000 0.000000
 20 -2.839340 -5.564580 -4.296970 0.000000 0.000000 0.000000
 21 -3.811070 -2.785450 -1.806430 0.000000 0.000000 0.000000
 22 18.455151 0.440630 8.679390 0.269311 0.733068 0.391282
 23 21.943432 -0.878860 -11.911369 0.000000 0.000000 -0.306161
 24 13.133340 0.635550 -6.798010 0.000000 0.000000 0.000000
 25 3.689260 -4.550930 -4.829990 0.000000 0.000000 0.000000
 26 3.087020 -2.930260 -1.806420 0.000000 0.000000 0.000000
 27 10.169240 0.711430 -6.708540 0.000000 0.000000 0.000000
 28 2.770930 0.042420 -2.816470 0.000000 0.000000 0.000000
 29 -52.850708 -0.361260 -67.170868 1.570802 -0.000018 -0.000537
time 1
  0 1.278131 -1.278131 45.960972 -0.002659 0.001414 0.013555
  1 9.062670 0.286610 -3.406700 -0.161400 -0.028931 -0.033228
  2 4.544490 -1.638600 -20.622749 0.404204 0.019307 0.090999
  3 3.070910 1.647970 -15.136740 -0.237359 -0.021980 -0.063619
  4 -0.361640 -14.308061 -6.406600 0.000000 0.000000 0.000000
  5 -9.522449 0.590440 -3.372560 -0.194023 -0.002370 0.040385
  6 -4.141180 -1.081730 -20.790251 0.462381 0.052632 -0.083485
  7 -3.014440 0.974200 -14.527950 -0.267543 -0.023170 0.045895
  8 0.361640 -14.494990 -6.882030 0.000000 0.000000 0.000000
  9 0.013460 -1.507020 5.475230 -0.004158 0.001834 0.011550
 10 -0.004780 1.092750 22.735540 -0.002498 0.002121 0.017008
 11 -0.976790 -3.346690 20.865768 -0.012168 -0.005117 -0.042596
 12 0.975190 -4.916450 -4.520320 0.022788 0.000000 0.000000
 13 -2.406500 -8.600220 4.877150 0.000000 0.000000 0.000000
 14 4.381730 -8.600220 5.272540 0.000000 0.000000 0.000000
 15 -18.388140 0.440630 8.679390 0.077422 -0.774711 -0.129215
 16 -21.955891 -0.759690 -12.109390 -0.010140 -0.006446 0.285467
 17 -13.311041 1.530050 -7.133010 -0.028782 -0.000018 -0.000010
 18 -9.635210 -0.302230 -6.530870 0.000000 0.000000 0.000000
 19 -3.126290 0.042420 -2.638810 0.000000 0.000000 0.000000
 20 -2.839340 -5.564580 -4.296970 0.000000 0.000000 0.000000
 21 -3.811070 -2.785450 -1.806430 0.000000 0.000000 0.000000
 22 18.455151 0.440630 8.679390 0.246987 0.713302 0.366151
 23 21.943432 -0.878860 -11.911369 0.000000 0.000000 -0.376781
 24 13.133340 0.635550 -6.798010 0.000000 0.000000 0.000000
 25 3.689260 -4.550930 -4.829990 0.000000 0.000000 0.000000
 26 3.087020 -2.930260 -1.806420 0.000000 0.000000 0.000000
 27 10.169240 0.711430 -6.708540 0.000000 0.000000 0.000000
 28 2.770930 0.042420 -2.816470 0.000000 0.000000 0.000000
 29 -52.850708 -0.361260 -67.170868 1.570802 -0.000018 -0.000537
time 2
  0 1.278131 -1.278131 45.273453 -0.009928 0.005249 0.050434
  1 9.062670 0.286610 -3.406700 -0.182400 -0.043287 -0.037973
  2 4.544490 -1.638600 -20.622749 0.504169 0.018300 0.114093
  3 3.070910 1.647970 -15.136740 -0.306275 -0.038251 -0.115182
  4 -0.361640 -14.308061 -6.406600 0.000000 0.000000 0.000000
  5 -9.522449 0.590440 -3.372560 -0.250221 -0.001813 0.051884
  6 -4.141180 -1.081730 -20.790251 0.571066 0.070260 -0.099065
  7 -3.014440 0.974200 -14.527950 -0.312547 -0.040674 0.025085
  8 0.361640 -14.494990 -6.882030 0.000000 0.000000 0.000000
  9 0.013460 -1.507020 5.475230 -0.015468 0.006819 0.042912
 10 -0.004780 1.092750 22.735540 -0.009305 0.007886 0.063191
 11 -0.976790 -3.346690 20.865768 0.013455 -0.016431 -0.157075
 12 0.975190 -4.916450 -4.520320 0.084709 0.000000 0.000000
 13 -2.406500 -8.600220 4.877150 0.000000 0.000000 0.000000
 14 4.381730 -8.600220 5.272540 0.000000 0.000000 0.000000
 15 -18.388140 0.440630 8.679390 -0.017282 -0.664323 -0.062571
 16 -21.955891 -0.759690 -12.109390 -0.037700 -0.023941 0.428115
 17 -13.311041 1.530050 -7.133010 -0.106982 -0.000018 -0.000010
 18 -9.635210 -0.302230 -6.530870 0.000000 0.000000 0.000000
 19 -3.126290 0.042420 -2.638810 0.000000 0.000000 0.000000
 20 -2.839340 -5.564580 -4.296970 0.000000 0.000000 0.000000
 21 -3.811070 -2.785450 -1.806430 0.000000 0.000000 0.000000
 22 18.455151 0.440630 8.679390 0.186309 0.659655 0.297955
 23 21.943432 -0.878860 -11.911369 0.000000 0.000000 -0.468542
 24 13.133340 0.635550 -6.798010 0.000000 0.000000 0.000000
 25 3.689260 -4.550930 -4.829990 0.000000 0.000000 0.000000
 26 3.087020 -2.930260 -1.806420 0.000000 0.000000 0.000000
 27 10.169240 0.711430 -6.708540 0.000000 0.000000 0.000000
 28 2.770930 0.042420 -2.816470 0.000000 0.000000 0.000000
 29 -52.850708 -0.361260 -67.170868 1.570802 -0.000018 -0.000537
time 3
  0 1.278131 -1.278131 44.410145 -0.020640 0.010918 0.104770
  1 9.062670 0.286610 -3.406700 -0.193160 -0.064105 -0.042042
  2 4.544490 -1.638600 -20.622749 0.604641 0.014981 0.137092
  3 3.070910 1.647970 -15.136740 -0.380159 -0.063792 -0.184459
  4 -0.361640 -14.308061 -6.406600 0.000000 0.000000 0.000000
  5 -9.522449 0.590440 -3.372560 -0.311312 0.003447 0.065002
  6 -4.141180 -1.081730 -20.790251 0.677931 0.089160 -0.112463
  7 -3.014440 0.974200 -14.527950 -0.344914 -0.071301 -0.010832
  8 0.361640 -14.494990 -6.882030 0.000000 0.000000 0.000000
  9 0.013460 -1.507020 5.475230 -0.032118 0.014178 0.089136
 10 -0.004780 1.092750 22.735540 -0.019339 0.016383 0.131260
 11 -0.976790 -3.346690 20.865768 0.055617 -0.026138 -0.321487
 12 0.975190 -4.916450 -4.520320 0.175963 0.000000 0.000000
 13 -2.406500 -8.600220 4.877150 0.000000 0.000000 0.000000
 14 4.381730 -8.600220 5.272540 0.000000 0.000000 0.000000
 15 -18.388140 0.440630 8.679390 -0.156917 -0.501608 0.035591
 16 -21.955891 -0.759690 -12.109390 -0.078390 -0.049724 0.610048
 17 -13.311041 1.530050 -7.133010 -0.222194 -0.000018 -0.000010
 18 -9.635210 -0.302230 -6.530870 0.000000 0.000000 0.000000
 19 -3.126290 0.042420 -2.638810 0.000000 0.000000 0.000000
 20 -2.839340 -5.564580 -4.296970 0.000000 0.000000 0.000000
 21 -3.811070 -2.785450 -1.806430 0.000000 0.000000 0.000000
 22 18.455151 0.440630 8.679390 0.096954 0.580560 0.197470
 23 21.943432 -0.878860 -11.911369 0.000000 0.000000 -0.574703
 24 13.133340 0.635550 -6.798010 0.000000 0.000000 0.000000
 25 3.689260 -4.550930 -4.829990 0.000000 0.000000 0.000000
 26 3.087020 -2.930260 -1.806420 0.000000 0.000000 0.000000
 27 10.169240 0.711430 -6.708540 0.000000 0.000000 0.000000
 28 2.770930 0.042420 -2.816470 0.000000 0.000000 0.000000
 29 -52.850708 -0.361260 -67.170868 1.570802 -0.000018 -0.000537
time 4
  0 1.278131 -1.278131 43.441364 -0.033648 0.017797 0.170743
  1 9.062670 0.286610 -3.406700 -0.192536 -0.092072 -0.046387
  2 4.544490 -1.638600 -20.622749 0.694971 0.010043 0.157418
  3 3.070910 1.647970 -15.136740 -0.450461 -0.096335 -0.263589
  4 -0.361640 -14.308061 -6.406600 0.000000 0.000000 0.000000
  5 -9.522449 0.590440 -3.372560 -0.370014 0.016911 0.076630
  6 -4.141180 -1.081730 -20.790251 0.770611 0.106620 -0.122399
  7 -3.014440 0.974200 -14.527950 -0.358099 -0.114165 -0.055457
  8 0.361640 -14.494990 -6.882030 0.000000 0.000000 0.000000
  9 0.013460 -1.507020 5.475230 -0.052360 0.023106 0.145260
 10 -0.004780 1.092750 22.735540 -0.031521 0.026690 0.213907
 11 -0.976790 -3.346690 20.865768 0.108466 -0.027493 -0.510334
 12 0.975190 -4.916450 -4.520320 0.286782 0.000000 0.000000
 13 -2.406500 -8.600220 4.877150 0.000000 0.000000 0.000000
 14 4.381730 -8.600220 5.272540 0.000000 0.000000 0.000000
 15 -18.388140 0.440630 8.679390 -0.326554 -0.304044 0.154880
 16 -21.955891 -0.759690 -12.109390 -0.127725 -0.081032 0.816322
 17 -13.311041 1.530050 -7.133010 -0.362081 -0.000018 -0.000010
 18 -9.635210 -0.302230 -6.530870 0.000000 0.000000 0.000000
 19 -3.126290 0.042420 -2.638810 0.000000 0.000000 0.000000
 20 -2.839340 -5.564580 -4.296970 0.000000 0.000000 0.000000
 21 -3.811070 -2.785450 -1.806430 0.000000 0.000000 0.000000
 22 18.455151 0.440630 8.679390 -0.011578 0.484540 0.075434
 23 21.943432 -0.878860 -11.911369 0.000000 0.000000 -0.688573
 24 13.133340 0.635550 -6.798010 0.000000 0.000000 0.000000
 25 3.689260 -4.550930 -4.829990 0.000000 0.000000 0.000000
 26 3.087020 -2.930260 -1.806420 0.000000 0.000000 0.000000
 27 10.169240 0.711430 -6.708540 0.000000 0.000000 0.000000
 28 2.770930 0.042420 -2.816470 0.000000 0.000000 0.000000
 29 -52.850708 -0.361260 -67.170868 1.570802 -0.000018 -0.000537
time 5
  0 1.278131 -1.278131 42.437428 -0.047784 0.025287 0.242612
  1 9.062670 0.286610 -3.406700 -0.181932 -0.126938 -0.052683
  2 4.544490 -1.638600 -20.622749 0.769510 0.004578 0.173825
  3 3.070910 1.647970 -15.136740 -0.511871 -0.131561 -0.345779
  4 -0.361640 -14.308061 -6.406600 0.000000 0.000000 0.000000
  5 -9.522449 0.590440 -3.372560 -0.420638 0.040069 0.084983
  6 -4.141180 -1.081730 -20.790251 0.842631 0.120792 -0.128990
  7 -3.014440 0.974200 -14.527950 -0.350330 -0.165497 -0.103995
  8 0.361640 -14.494990 -6.882030 0.000000 0.000000 0.000000
  9 0.013460 -1.507020 5.475230 -0.074382 0.032826 0.206346
 10 -0.004780 1.092750 22.735540 -0.044783 0.037919 0.303861
 11 -0.976790 -3.346690 20.865768 0.163573 -0.019103 -0.694968
 12 0.975190 -4.916450 -4.520320 0.407368 0.000000 0.000000
 13 -2.406500 -8.600220 4.877150 0.000000 0.000000 0.000000
 14 4.381730 -8.600220 5.272540 0.000000 0.000000 0.000000
 15 -18.388140 0.440630 8.679390 -0.511121 -0.089029 0.284688
 16 -21.955891 -0.759690 -12.109390 -0.181415 -0.115137 1.031880
 17 -13.311041 1.530050 -7.133010 -0.514337 -0.000018 -0.000010
 18 -9.635210 -0.302230 -6.530870 0.000000 0.000000 0.000000
 19 -3.126290 0.042420 -2.638810 0.000000 0.000000 0.000000
 20 -2.839340 -5.564580 -4.296970 0.000000 0.000000 0.000000
 21 -3.811070 -2.785450 -1.806430 0.000000 0.000000 0.000000
 22 18.455151 0.440630 8.679390 -0.129668 0.380027 -0.057299
 23 21.943432 -0.878860 -11.911369 0.000000 0.000000 -0.803366
 24 13.133340 0.635550 -6.798010 0.000000 0.000000 0.000000
 25 3.689260 -4.550930 -4.829990 0.000000 0.000000 0.000000
 26 3.087020 -2.930260 -1.806420 0.000000 0.000000 0.000000
 27 10.169240 0.711430 -6.708540 0.000000 0.000000 0.000000
 28 2.770930 0.042420 -2.816470 0.000000 0.000000 0.000000
 29 -52.850708 -0.361260 -67.170868 1.570802 -0.000018 -0.000537
time 6
  0 1.278131 -1.278131 41.460835 -0.061940 0.032766 0.314404
  1 9.062670 0.286610 -3.406700 -0.164727 -0.166732 -0.061051
  2 4.544490 -1.638600 -20.622749 0.825722 -0.000336 0.185929
  3 3.070910 1.647970 -15.136740 -0.561113 -0.164884 -0.426115
  4 -0.361640 -14.308061 -6.406600 0.000000 0.000000 0.000000
  5 -9.522449 0.590440 -3.372560 -0.459090 0.071648 0.089914
  6 -4.141180 -1.081730 -20.790251 0.891808 0.130704 -0.132897
  7 -3.014440 0.974200 -14.527950 -0.324088 -0.219800 -0.153699
  8 0.361640 -14.494990 -6.882030 0.000000 0.000000 0.000000
  9 0.013460 -1.507020 5.475230 -0.096387 0.042545 0.267433
 10 -0.004780 1.092750 22.735540 -0.058032 0.049149 0.393816
 11 -0.976790 -3.346690 20.865768 0.212633 -0.007155 -0.845949
 12 0.975190 -4.916450 -4.520320 0.527954 0.000000 0.000000
 13 -2.406500 -8.600220 4.877150 0.000000 0.000000 0.000000
 14 4.381730 -8.600220 5.272540 0.000000 0.000000 0.000000
 15 -18.388140 0.440630 8.679390 -0.695689 0.125929 0.414497
 16 -21.955891 -0.759690 -12.109390 -0.235170 -0.149207 1.241833
 17 -13.311041 1.530050 -7.133010 -0.666561 -0.000018 -0.000010
 18 -9.635210 -0.302230 -6.530870 0.000000 0.000000 0.000000
 19 -3.126290 0.042420 -2.638810 0.000000 0.000000 0.000000
 20 -2.839340 -5.564580 -4.296970 0.000000 0.000000 0.000000
 21 -3.811070 -2.785450 -1.806430 0.000000 0.000000 0.000000
 22 18.455151 0.440630 8.679390 -0.247818 0.275544 -0.190072
 23 21.943432 -0.878860 -11.911369 0.000000 0.000000 -0.912389
 24 13.133340 0.635550 -6.798010 0.000000 0.000000 0.000000
 25 3.689260 -4.550930 -4.829990 0.000000 0.000000 0.000000
 26 3.087020 -2.930260 -1.806420 0.000000 0.000000 0.000000
 27 10.169240 0.711430 -6.708540 0.000000 0.000000 0.000000
 28 2.770930 0.042420 -2.816470 0.000000 0.000000 0.000000
 29 -52.850708 -0.361260 -67.170868 1.570802 -0.000018 -0.000537
time 7
  0 1.278132 -1.278132 40.585808 -0.074947 0.039645 0.380378
  1 9.062670 0.286610 -3.406700 -0.144714 -0.207490 -0.071431
  2 4.544490 -1.638600 -20.622749 0.863969 -0.004075 0.193995
  3 3.070910 1.647970 -15.136740 -0.597381 -0.192329 -0.499008
  4 -0.361640 -14.308061 -6.406600 0.000000 0.000000 0.000000
  5 -9.522449 0.590440 -3.372560 -0.484175 0.107301 0.090190
  6 -4.141180 -1.081730 -20.790251 0.919525 0.136368 -0.134887
  7 -3.014440 0.974200 -14.527950 -0.285435 -0.269721 -0.200423
  8 0.361640 -14.494990 -6.882030 0.000000 0.000000 0.000000
  9 0.013460 -1.507020 5.475230 -0.116630 0.051486 0.323557
 10 -0.004780 1.092750 22.735540 -0.070213 0.059456 0.476463
 11 -0.976790 -3.346690 20.865768 0.250254 -0.003224 -0.938842
 12 0.975190 -4.916450 -4.520320 0.638773 0.000000 0.000000
 13 -2.406500 -8.600220 4.877150 0.000000 0.000000 0.000000
 14 4.381730 -8.600220 5.272540 0.000000 0.000000 0.000000
 15 -18.388140 0.440630 8.679390 -0.865256 0.323521 0.533785
 16 -21.955891 -0.759690 -12.109390 -0.284504 -0.180550 1.431239
 17 -13.311041 1.530050 -7.133010 -0.806480 -0.000018 -0.000010
 18 -9.635210 -0.302230 -6.530870 0.000000 0.000000 0.000000
 19 -3.126290 0.042420 -2.638810 0.000000 0.000000 0.000000
 20 -2.839340 -5.564580 -4.296970 0.000000 0.000000 0.000000
 21 -3.811070 -2.785450 -1.806430 0.000000 0.000000 0.000000
 22 18.455151 0.440630 8.679390 -0.356350 0.179494 -0.312109
 23 21.943432 -0.878860 -11.911369 0.000000 0.000000 -1.008904
 24 13.133340 0.635550 -6.798010 0.000000 0.000000 0.000000
 25 3.689260 -4.550930 -4.829990 0.000000 0.000000 0.000000
 26 3.087020 -2.930260 -1.806420 0.000000 0.000000 0.000000
 27 10.169240 0.711430 -6.708540 0.000000 0.000000 0.000000
 28 2.770930 0.042420 -2.816470 0.000000 0.000000 0.000000
 29 -52.850708 -0.361260 -67.170868 1.570802 -0.000018 -0.000537
time 8
  0 1.278132 -1.278132 39.874847 -0.085640 0.045314 0.434714
  1 9.062670 0.286610 -3.406700 -0.126157 -0.243935 -0.081689
  2 4.544490 -1.638600 -20.622749 0.886642 -0.006424 0.198693
  3 3.070910 1.647970 -15.136740 -0.621290 -0.211844 -0.559173
  4 -0.361640 -14.308061 -6.406600 0.000000 0.000000 0.000000
  5 -9.522449 0.590440 -3.372560 -0.496973 0.140979 0.088552
  6 -4.141180 -1.081730 -20.790251 0.930437 0.138624 -0.135618
  7 -3.014440 0.974200 -14.527950 -0.243848 -0.310226 -0.241550
  8 0.361640 -14.494990 -6.882030 0.000000 0.000000 0.000000
  9 0.013460 -1.507020 5.475230 -0.133296 0.058832 0.369781
 10 -0.004780 1.092750 22.735540 -0.080248 0.067953 0.544532
 11 -0.976790 -3.346690 20.865768 0.274201 -0.016023 -0.965794
 12 0.975190 -4.916450 -4.520320 0.730027 0.000000 0.000000
 13 -2.406500 -8.600220 4.877150 0.000000 0.000000 0.000000
 14 4.381730 -8.600220 5.272540 0.000000 0.000000 0.000000
 15 -18.388140 0.440630 8.679390 -1.004961 0.486209 0.631990
 16 -21.955891 -0.759690 -12.109390 -0.325194 -0.206333 1.584982
 17 -13.311041 1.530050 -7.133010 -0.921692 -0.000018 -0.000010
 18 -9.635210 -0.302230 -6.530870 0.000000 0.000000 0.000000
 19 -3.126290 0.042420 -2.638810 0.000000 0.000000 0.000000
 20 -2.839340 -5.564580 -4.296970 0.000000 0.000000 0.000000
 21 -3.811070 -2.785450 -1.806430 0.000000 0.000000 0.000000
 22 18.455151 0.440630 8.679390 -0.445764 0.100429 -0.412593
 23 21.943432 -0.878860 -11.911369 0.000000 0.000000 -1.086171
 24 13.133340 0.635550 -6.798010 0.000000 0.000000 0.000000
 25 3.689260 -4.550930 -4.829990 0.000000 0.000000 0.000000
 26 3.087020 -2.930260 -1.806420 0.000000 0.000000 0.000000
 27 10.169240 0.711430 -6.708540 0.000000 0.000000 0.000000
 28 2.770930 0.042420 -2.816470 0.000000 0.000000 0.000000
 29 -52.850708 -0.361260 -67.170868 1.570802 -0.000018 -0.000537
time 9
  0 1.278132 -1.278132 39.398270 -0.092909 0.049161 0.471593
  1 9.062670 0.286610 -3.406700 -0.112590 -0.269914 -0.089919
  2 4.544490 -1.638600 -20.622749 0.897580 -0.007598 0.200946
  3 3.070910 1.647970 -15.136740 -0.634804 -0.223017 -0.599862
  4 -0.361640 -14.308061 -6.406600 0.000000 0.000000 0.000000
  5 -9.522449 0.590440 -3.372560 -0.501694 0.165681 0.085700
  6 -4.141180 -1.081730 -20.790251 0.931819 0.138900 -0.135714
  7 -3.014440 0.974200 -14.527950 -0.210772 -0.336387 -0.270574
  8 0.361640 -14.494990 -6.882030 0.000000 0.000000 0.000000
  9 0.013460 -1.507020 5.475230 -0.144589 0.063830 0.401143
 10 -0.004780 1.092750 22.735540 -0.087055 0.073717 0.590715
 11 -0.976790 -3.346690 20.865768 0.285106 -0.039441 -0.949544
 12 0.975190 -4.916450 -4.520320 0.791948 0.000000 0.000000
 13 -2.406500 -8.600220 4.877150 0.000000 0.000000 0.000000
 14 4.381730 -8.600220 5.272540 0.000000 0.000000 0.000000
 15 -18.388140 0.440630 8.679390 -1.099733 0.596625 0.698633
 16 -21.955891 -0.759690 -12.109390 -0.352754 -0.223829 1.688289
 17 -13.311041 1.530050 -7.133010 -0.999860 -0.000018 -0.000010
 18 -9.635210 -0.302230 -6.530870 0.000000 0.000000 0.000000
 19 -3.126290 0.042420 -2.638810 0.000000 0.000000 0.000000
 20 -2.839340 -5.564580 -4.296970 0.000000 0.000000 0.000000
 21 -3.811070 -2.785450 -1.806430 0.000000 0.000000 0.000000
 22 18.455151 0.440630 8.679390 -0.506442 0.046753 -0.480789
 23 21.943432 -0.878860 -11.911369 0.000000 0.000000 -1.137498
 24 13.133340 0.635550 -6.798010 0.000000 0.000000 0.000000
 25 3.689260 -4.550930 -4.829990 0.000000 0.000000 0.000000
 26 3.087020 -2.930260 -1.806420 0.000000 0.000000 0.000000
 27 10.169240 0.711430 -6.708540 0.000000 0.000000 0.000000
 28 2.770930 0.042420 -2.816470 0.000000 0.000000 0.000000
 29 -52.850708 -0.361260 -67.170868 1.570802 -0.000018 -0.000537
time 10
  0 1.278132 -1.278132 39.226391 -0.095587 0.050575 0.485195
  1 9.062670 0.286610 -3.406700 -0.107444 -0.279738 -0.093143
  2 4.544490 -1.638600 -20.622749 0.900695 -0.007946 0.201593
  3 3.070910 1.647970 -15.136740 -0.639232 -0.226677 -0.614909
  4 -0.361640 -14.308061 -6.406600 0.000000 0.000000 0.000000
  5 -9.522449 0.590440 -3.372560 -0.502491 0.175142 0.084578
  6 -4.141180 -1.081730 -20.790251 0.931019 0.138744 -0.135654
  7 -3.014440 0.974200 -14.527950 -0.197586 -0.345824 -0.281795
  8 0.361640 -14.494990 -6.882030 0.000000 0.000000 0.000000
  9 0.013460 -1.507020 5.475230 -0.148764 0.065664 0.412692
 10 -0.004780 1.092750 22.735540 -0.089567 0.075838 0.607741
 11 -0.976790 -3.346690 20.865768 0.287632 -0.052001 -0.935416
 12 0.975190 -4.916450 -4.520320 0.814769 0.000000 0.000000
 13 -2.406500 -8.600220 4.877150 0.000000 0.000000 0.000000
 14 4.381730 -8.600220 5.272540 0.000000 0.000000 0.000000
 15 -18.388140 0.440630 8.679390 -1.134642 0.637290 0.723195
 16 -21.955891 -0.759690 -12.109390 -0.362894 -0.230274 1.725989
 17 -13.311041 1.530050 -7.133010 -1.028648 -0.000018 -0.000010
 18 -9.635210 -0.302230 -6.530870 0.000000 0.000000 0.000000
 19 -3.126290 0.042420 -2.638810 0.000000 0.000000 0.000000
 20 -2.839340 -5.564580 -4.296970 0.000000 0.000000 0.000000
 21 -3.811070 -2.785450 -1.806430 0.000000 0.000000 0.000000
 22 18.455151 0.440630 8.679390 -0.528766 0.026986 -0.505880
 23 21.943432 -0.878860 -11.911369 0.000000 0.000000 -1.156053
 24 13.133340 0.635550 -6.798010 0.000000 0.000000 0.000000
 25 3.689260 -4.550930 -4.829990 0.000000 0.000000 0.000000
 26 3.087020 -2.930260 -1.806420 0.000000 0.000000 0.000000
 27 10.169240 0.711430 -6.708540 0.000000 0.000000 0.000000
 28 2.770930 0.042420 -2.816470 0.000000 0.000000 0.000000
 29 -52.850708 -0.361260 -67.170868 1.570802 -0.000018 -0.000537
time 11
  0 1.278132 -1.278132 39.425617 -0.092909 0.049161 0.471593
  1 9.062670 0.286610 -3.406700 -0.162387 -0.301213 -0.105473
  2 4.544490 -1.638600 -20.622749 1.022536 -0.022795 0.225778
  3 3.070910 1.647970 -15.136740 -0.620636 -0.250096 -0.615072
  4 -0.361640 -14.308061 -6.406600 0.000000 0.000000 0.000000
  5 -9.522449 0.590440 -3.372560 -0.500500 0.165269 0.085516
  6 -4.141180 -1.081730 -20.790251 0.929127 0.138360 -0.135534
  7 -3.014440 0.974200 -14.527950 -0.209450 -0.335650 -0.271533
  8 0.361640 -14.494990 -6.882030 0.000000 0.000000 0.000000
  9 0.013460 -1.507020 5.475230 -0.144589 0.063830 0.401143
 10 -0.004780 1.092750 22.735540 -0.087055 0.073717 0.590715
 11 -0.976790 -3.346690 20.865768 0.286417 -0.039441 -0.949544
 12 0.975190 -4.916450 -4.520320 0.791948 0.000000 0.000000
 13 -2.406500 -8.600220 4.877150 0.000000 0.000000 0.000000
 14 4.381730 -8.600220 5.272540 0.000000 0.000000 0.000000
 15 -18.388140 0.440630 8.679390 -1.099733 0.596625 0.698633
 16 -21.955891 -0.759690 -12.109390 -0.352754 -0.223829 1.683194
 17 -13.311041 1.530050 -7.133010 -0.999860 -0.000018 -0.000010
 18 -9.635210 -0.302230 -6.530870 0.000000 0.000000 0.000000
 19 -3.126290 0.042420 -2.638810 0.000000 0.000000 0.000000
 20 -2.839340 -5.564580 -4.296970 0.000000 0.000000 0.000000
 21 -3.811070 -2.785450 -1.806430 0.000000 0.000000 0.000000
 22 18.455151 0.440630 8.679390 -0.506442 0.046753 -0.480789
 23 21.943432 -0.878860 -11.911369 0.000000 0.000000 -1.132282
 24 13.133340 0.635550 -6.798010 0.000000 0.000000 0.000000
 25 3.689260 -4.550930 -4.829990 0.000000 0.000000 0.000000
 26 3.087020 -2.930260 -1.806420 0.000000 0.000000 0.000000
 27 10.169240 0.711430 -6.708540 0.000000 0.000000 0.000000
 28 2.770930 0.042420 -2.816470 0.000000 0.000000 0.000000
 29 -52.850708 -0.361260 -67.170868 1.570802 -0.000018 -0.000537
time 12
  0 1.278132 -1.278132 39.972507 -0.085640 0.045314 0.434714
  1 9.062670 0.286610 -3.406700 -0.264581 -0.350568 -0.126740
  2 4.544490 -1.638600 -20.622749 1.246080 -0.057334 0.264919
  3 3.070910 1.647970 -15.136740 -0.562037 -0.278955 -0.613611
  4 -0.361640 -14.308061 -6.406600 0.000000 0.000000 0.000000
  5 -9.522449 0.590440 -3.372560 -0.492878 0.139597 0.087503
  6 -4.141180 -1.081730 -20.790251 0.920834 0.136644 -0.134970
  7 -3.014440 0.974200 -14.527950 -0.238883 -0.307467 -0.244556
  8 0.361640 -14.494990 -6.882030 0.000000 0.000000 0.000000
  9 0.013460 -1.507020 5.475230 -0.133296 0.058832 0.369781
 10 -0.004780 1.092750 22.735540 -0.080248 0.067953 0.544532
 11 -0.976790 -3.346690 20.865768 0.278378 -0.016023 -0.965794
 12 0.975190 -4.916450 -4.520320 0.730027 0.000000 0.000000
 13 -2.406500 -8.600220 4.877150 0.000000 0.000000 0.000000
 14 4.381730 -8.600220 5.272540 0.000000 0.000000 0.000000
 15 -18.388140 0.440630 8.679390 -1.004961 0.486209 0.631990
 16 -21.955891 -0.759690 -12.109390 -0.325194 -0.206333 1.566981
 17 -13.311041 1.530050 -7.133010 -0.921692 -0.000018 -0.000010
 18 -9.635210 -0.302230 -6.530870 0.000000 0.000000 0.000000
 19 -3.126290 0.042420 -2.638810 0.000000 0.000000 0.000000
 20 -2.839340 -5.564580 -4.296970 0.000000 0.000000 0.000000
 21 -3.811070 -2.785450 -1.806430 0.000000 0.000000 0.000000
 22 18.455151 0.440630 8.679390 -0.445764 0.100429 -0.412593
 23 21.943432 -0.878860 -11.911369 0.000000 0.000000 -1.067662
 24 13.133340 0.635550 -6.798010 0.000000 0.000000 0.000000
 25 3.689260 -4.550930 -4.829990 0.000000 0.000000 0.000000
 26 3.087020 -2.930260 -1.806420 0.000000 0.000000 0.000000
 27 10.169240 0.711430 -6.708540 0.000000 0.000000 0.000000
 28 2.770930 0.042420 -2.816470 0.000000 0.000000 0.000000
 29 -52.850708 -0.361260 -67.170868 1.570802 -0.000018 -0.000537
time 13
  0 1.278132 -1.278132 40.777222 -0.074947 0.039645 0.380378
  1 9.062670 0.286610 -3.406700 -0.344839 -0.398460 -0.140928
  2 4.544490 -1.638600 -20.622749 1.420293 -0.089872 0.289668
  3 3.070910 1.647970 -15.136740 -0.486575 -0.277247 -0.606006
  4 -0.361640 -14.308061 -6.406600 0.000000 0.000000 0.000000
  5 -9.522449 0.590440 -3.372560 -0.475586 0.104931 0.089012
  6 -4.141180 -1.081730 -20.790251 0.899883 0.132348 -0.133496
  7 -3.014440 0.974200 -14.527950 -0.274957 -0.265234 -0.206928
  8 0.361640 -14.494990 -6.882030 0.000000 0.000000 0.000000
  9 0.013460 -1.507020 5.475230 -0.116630 0.051486 0.323557
 10 -0.004780 1.092750 22.735540 -0.070213 0.059456 0.476463
 11 -0.976790 -3.346690 20.865768 0.257370 -0.003224 -0.938842
 12 0.975190 -4.916450 -4.520320 0.638773 0.000000 0.000000
 13 -2.406500 -8.600220 4.877150 0.000000 0.000000 0.000000
 14 4.381730 -8.600220 5.272540 0.000000 0.000000 0.000000
 15 -18.388140 0.440630 8.679390 -0.865256 0.323521 0.533785
 16 -21.955891 -0.759690 -12.109390 -0.284504 -0.180550 1.395746
 17 -13.311041 1.530050 -7.133010 -0.806480 -0.000018 -0.000010
 18 -9.635210 -0.302230 -6.530870 0.000000 0.000000 0.000000
 19 -3.126290 0.042420 -2.638810 0.000000 0.000000 0.000000
 20 -2.839340 -5.564580 -4.296970 0.000000 0.000000 0.000000
 21 -3.811070 -2.785450 -1.806430 0.000000 0.000000 0.000000
 22 18.455151 0.440630 8.679390 -0.356350 0.179494 -0.312109
 23 21.943432 -0.878860 -11.911369 0.000000 0.000000 -0.972486
 24 13.133340 0.635550 -6.798010 0.000000 0.000000 0.000000
 25 3.689260 -4.550930 -4.829990 0.000000 0.000000 0.000000
 26 3.087020 -2.930260 -1.806420 0.000000 0.000000 0.000000
 27 10.169240 0.711430 -6.708540 0.000000 0.000000 0.000000
 28 2.770930 0.042420 -2.816470 0.000000 0.000000 0.000000
 29 -52.850708 -0.361260 -67.170868 1.570802 -0.000018 -0.000537
time 14
  0 1.278131 -1.278131 41.753811 -0.061940 0.032766 0.314404
  1 9.062670 0.286610 -3.406700 -0.359082 -0.394542 -0.141481
  2 4.544490 -1.638600 -20.622749 1.456078 -0.097075 0.294030
  3 3.070910 1.647970 -15.136740 -0.450461 -0.241265 -0.562303
  4 -0.361640 -14.308061 -6.406600 0.000000 0.000000 0.000000
  5 -9.522449 0.590440 -3.372560 -0.445666 0.068434 0.087375
  6 -4.141180 -1.081730 -20.790251 0.860381 0.124344 -0.130452
  7 -3.014440 0.974200 -14.527950 -0.306744 -0.213375 -0.162640
  8 0.361640 -14.494990 -6.882030 0.000000 0.000000 0.000000
  9 0.013460 -1.507020 5.475230 -0.096387 0.042545 0.267433
 10 -0.004780 1.092750 22.735540 -0.058032 0.049149 0.393816
 11 -0.976790 -3.346690 20.865768 0.221765 -0.007155 -0.845949
 12 0.975190 -4.916450 -4.520320 0.527954 0.000000 0.000000
 13 -2.406500 -8.600220 4.877150 0.000000 0.000000 0.000000
 14 4.381730 -8.600220 5.272540 0.000000 0.000000 0.000000
 15 -18.388140 0.440630 8.679390 -0.695689 0.125929 0.414497
 16 -21.955891 -0.759690 -12.109390 -0.235170 -0.149207 1.187831
 17 -13.311041 1.530050 -7.133010 -0.666561 -0.000018 -0.000010
 18 -9.635210 -0.302230 -6.530870 0.000000 0.000000 0.000000
 19 -3.126290 0.042420 -2.638810 0.000000 0.000000 0.000000
 20 -2.839340 -5.564580 -4.296970 0.000000 0.000000 0.000000
 21 -3.811070 -2.785450 -1.806430 0.000000 0.000000 0.000000
 22 18.455151 0.440630 8.679390 -0.247818 0.275544 -0.190072
 23 21.943432 -0.878860 -11.911369 0.000000 0.000000 -0.856908
 24 13.133340 0.635550 -6.798010 0.000000 0.000000 0.000000
 25 3.689260 -4.550930 -4.829990 0.000000 0.000000 0.000000
 26 3.087020 -2.930260 -1.806420 0.000000 0.000000 0.000000
 27 10.169240 0.711430 -6.708540 0.000000 0.000000 0.000000
 28 2.770930 0.042420 -2.816470 0.000000 0.000000 0.000000
 29 -52.850708 -0.361260 -67.170868 1.570802 -0.000018 -0.000537
time 15
  0 1.278131 -1.278131 42.816345 -0.047784 0.025287 0.242612
  1 9.062670 0.286610 -3.406700 -0.341513 -0.326388 -0.122610
  2 4.544490 -1.638600 -20.622749 1.362343 -0.078571 0.282057
  3 3.070910 1.647970 -15.136740 -0.448074 -0.186303 -0.471743
  4 -0.361640 -14.308061 -6.406600 0.000000 0.000000 0.000000
  5 -9.522449 0.590440 -3.372560 -0.402152 0.036533 0.081634
  6 -4.141180 -1.081730 -20.790251 0.798764 0.112104 -0.125107
  7 -3.014440 0.974200 -14.527950 -0.325442 -0.158336 -0.115087
  8 0.361640 -14.494990 -6.882030 0.000000 0.000000 0.000000
  9 0.013460 -1.507020 5.475230 -0.074382 0.032826 0.206346
 10 -0.004780 1.092750 22.735540 -0.044783 0.037919 0.303861
 11 -0.976790 -3.346690 20.865768 0.173677 -0.019103 -0.694968
 12 0.975190 -4.916450 -4.520320 0.407368 0.000000 0.000000
 13 -2.406500 -8.600220 4.877150 0.000000 0.000000 0.000000
 14 4.381730 -8.600220 5.272540 0.000000 0.000000 0.000000
 15 -18.388140 0.440630 8.679390 -0.511121 -0.089029 0.284688
 16 -21.955891 -0.759690 -12.109390 -0.181415 -0.115137 0.961518
 17 -13.311041 1.530050 -7.133010 -0.514337 -0.000018 -0.000010
 18 -9.635210 -0.302230 -6.530870 0.000000 0.000000 0.000000
 19 -3.126290 0.042420 -2.638810 0.000000 0.000000 0.000000
 20 -2.839340 -5.564580 -4.296970 0.000000 0.000000 0.000000
 21 -3.811070 -2.785450 -1.806430 0.000000 0.000000 0.000000
 22 18.455151 0.440630 8.679390 -0.129668 0.380027 -0.057299
 23 21.943432 -0.878860 -11.911369 0.000000 0.000000 -0.731130
 24 13.133340 0.635550 -6.798010 0.000000 0.000000 0.000000
 25 3.689260 -4.550930 -4.829990 0.000000 0.000000 0.000000
 26 3.087020 -2.930260 -1.806420 0.000000 0.000000 0.000000
 27 10.169240 0.711430 -6.708540 0.000000 0.000000 0.000000
 28 2.770930 0.042420 -2.816470 0.000000 0.000000 0.000000
 29 -52.850708 -0.361260 -67.170868 1.570802 -0.000018 -0.000537
time 16
  0 1.278131 -1.278131 43.882782 -0.033648 0.017797 0.170743
  1 9.062670 0.286610 -3.406700 -0.332260 -0.239813 -0.095953
  2 4.544490 -1.638600 -20.622749 1.206311 -0.050539 0.258520
  3 3.070910 1.647970 -15.136740 -0.431134 -0.128731 -0.364745
  4 -0.361640 -14.308061 -6.406600 0.000000 0.000000 0.000000
  5 -9.522449 0.590440 -3.372560 -0.347147 0.013482 0.071533
  6 -4.141180 -1.081730 -20.790251 0.715251 0.096072 -0.116658
  7 -3.014440 0.974200 -14.527950 -0.325764 -0.106835 -0.066808
  8 0.361640 -14.494990 -6.882030 0.000000 0.000000 0.000000
  9 0.013460 -1.507020 5.475230 -0.052360 0.023106 0.145260
 10 -0.004780 1.092750 22.735540 -0.031521 0.026690 0.213907
 11 -0.976790 -3.346690 20.865768 0.118545 -0.027493 -0.510334
 12 0.975190 -4.916450 -4.520320 0.286782 0.000000 0.000000
 13 -2.406500 -8.600220 4.877150 0.000000 0.000000 0.000000
 14 4.381730 -8.600220 5.272540 0.000000 0.000000 0.000000
 15 -18.388140 0.440630 8.679390 -0.326554 -0.304044 0.154880
 16 -21.955891 -0.759690 -12.109390 -0.127725 -0.081032 0.735205
 17 -13.311041 1.530050 -7.133010 -0.362081 -0.000018 -0.000010
 18 -9.635210 -0.302230 -6.530870 0.000000 0.000000 0.000000
 19 -3.126290 0.042420 -2.638810 0.000000 0.000000 0.000000
 20 -2.839340 -5.564580 -4.296970 0.000000 0.000000 0.000000
 21 -3.811070 -2.785450 -1.806430 0.000000 0.000000 0.000000
 22 18.455151 0.440630 8.679390 -0.011578 0.484540 0.075434
 23 21.943432 -0.878860 -11.911369 0.000000 0.000000 -0.605305
 24 13.133340 0.635550 -6.798010 0.000000 0.000000 0.000000
 25 3.689260 -4.550930 -4.829990 0.000000 0.000000 0.000000
 26 3.087020 -2.930260 -1.806420 0.000000 0.000000 0.000000
 27 10.169240 0.711430 -6.708540 0.000000 0.000000 0.000000
 28 2.770930 0.042420 -2.816470 0.000000 0.000000 0.000000
 29 -52.850708 -0.361260 -67.170868 1.570802 -0.000018 -0.000537
time 17
  0 1.278131 -1.278131 44.859375 -0.020640 0.010918 0.104770
  1 9.062670 0.286610 -3.406700 -0.306946 -0.156045 -0.073074
  2 4.544490 -1.638600 -20.622749 0.991387 -0.018720 0.219761
  3 3.070910 1.647970 -15.136740 -0.392787 -0.077307 -0.254315
  4 -0.361640 -14.308061 -6.406600 0.000000 0.000000 0.000000
  5 -9.522449 0.590440 -3.372560 -0.285147 0.000628 0.059464
  6 -4.141180 -1.081730 -20.790251 0.614205 0.077712 -0.104709
  7 -3.014440 0.974200 -14.527950 -0.307099 -0.065255 -0.022287
  8 0.361640 -14.494990 -6.882030 0.000000 0.000000 0.000000
  9 0.013460 -1.507020 5.475230 -0.032118 0.014178 0.089136
 10 -0.004780 1.092750 22.735540 -0.019339 0.016383 0.131260
 11 -0.976790 -3.346690 20.865768 0.064725 -0.026138 -0.321487
 12 0.975190 -4.916450 -4.520320 0.175963 0.000000 0.000000
 13 -2.406500 -8.600220 4.877150 0.000000 0.000000 0.000000
 14 4.381730 -8.600220 5.272540 0.000000 0.000000 0.000000
 15 -18.388140 0.440630 8.679390 -0.156917 -0.501608 0.035591
 16 -21.955891 -0.759690 -12.109390 -0.078390 -0.049724 0.527290
 17 -13.311041 1.530050 -7.133010 -0.222194 -0.000018 -0.000010
 18 -9.635210 -0.302230 -6.530870 0.000000 0.000000 0.000000
 19 -3.126290 0.042420 -2.638810 0.000000 0.000000 0.000000
 20 -2.839340 -5.564580 -4.296970 0.000000 0.000000 0.000000
 21 -3.811070 -2.785450 -1.806430 0.000000 0.000000 0.000000
 22 18.455151 0.440630 8.679390 0.096954 0.580560 0.197470
 23 21.943432 -0.878860 -11.911369 0.000000 0.000000 -0.489728
 24 13.133340 0.635550 -6.798010 0.000000 0.000000 0.000000
 25 3.689260 -4.550930 -4.829990 0.000000 0.000000 0.000000
 26 3.087020 -2.930260 -1.806420 0.000000 0.000000 0.000000
 27 10.169240 0.711430 -6.708540 0.000000 0.000000 0.000000
 28 2.770930 0.042420 -2.816470 0.000000 0.000000 0.000000
 29 -52.850708 -0.361260 -67.170868 1.570802 -0.000018 -0.000537
time 18
  0 1.278131 -1.278131 45.664089 -0.009928 0.005249 0.050434
  1 9.062670 0.286610 -3.406700 -0.254341 -0.087262 -0.053973
  2 4.544490 -1.638600 -20.622749 0.731190 0.007538 0.165447
  3 3.070910 1.647970 -15.136740 -0.327682 -0.040544 -0.152904
  4 -0.361640 -14.308061 -6.406600 0.000000 0.000000 0.000000
  5 -9.522449 0.590440 -3.372560 -0.223828 -0.003698 0.046622
  6 -4.141180 -1.081730 -20.790251 0.506539 0.059592 -0.090052
  7 -3.014440 0.974200 -14.527950 -0.274023 -0.036567 0.014668
  8 0.361640 -14.494990 -6.882030 0.000000 0.000000 0.000000
  9 0.013460 -1.507020 5.475230 -0.015468 0.006819 0.042912
 10 -0.004780 1.092750 22.735540 -0.009305 0.007886 0.063191
 11 -0.976790 -3.346690 20.865768 0.020693 -0.016431 -0.157075
 12 0.975190 -4.916450 -4.520320 0.084709 0.000000 0.000000
 13 -2.406500 -8.600220 4.877150 0.000000 0.000000 0.000000
 14 4.381730 -8.600220 5.272540 0.000000 0.000000 0.000000
 15 -18.388140 0.440630 8.679390 -0.017282 -0.664323 -0.062571
 16 -21.955891 -0.759690 -12.109390 -0.037700 -0.023941 0.356055
 17 -13.311041 1.530050 -7.133010 -0.106982 -0.000018 -0.000010
 18 -9.635210 -0.302230 -6.530870 0.000000 0.000000 0.000000
 19 -3.126290 0.042420 -2.638810 0.000000 0.000000 0.000000
 20 -2.839340 -5.564580 -4.296970 0.000000 0.000000 0.000000
 21 -3.811070 -2.785450 -1.806430 0.000000 0.000000 0.000000
 22 18.455151 0.440630 8.679390 0.186309 0.659655 0.297955
 23 21.943432 -0.878860 -11.911369 0.000000 0.000000 -0.394552
 24 13.133340 0.635550 -6.798010 0.000000 0.000000 0.000000
 25 3.689260 -4.550930 -4.829990 0.000000 0.000000 0.000000
 26 3.087020 -2.930260 -1.806420 0.000000 0.000000 0.000000
 27 10.169240 0.711430 -6.708540 0.000000 0.000000 0.000000
 28 2.770930 0.042420 -2.816470 0.000000 0.000000 0.000000
 29 -52.850708 -0.361260 -67.170868 1.570802 -0.000018 -0.000537
time 19
  0 1.278131 -1.278131 46.207073 -0.002659 0.001414 0.013555
  1 9.062670 0.286610 -3.406700 -0.180893 -0.039559 -0.037620
  2 4.544490 -1.638600 -20.622749 0.465342 0.018972 0.105129
  3 3.070910 1.647970 -15.136740 -0.241286 -0.020638 -0.073056
  4 -0.361640 -14.308061 -6.406600 0.000000 0.000000 0.000000
  5 -9.522449 0.590440 -3.372560 -0.174398 -0.003231 0.036208
  6 -4.141180 -1.081730 -20.790251 0.414223 0.045396 -0.076006
  7 -3.014440 0.974200 -14.527950 -0.238690 -0.020958 0.039027
  8 0.361640 -14.494990 -6.882030 0.000000 0.000000 0.000000
  9 0.013460 -1.507020 5.475230 -0.004158 0.001834 0.011550
 10 -0.004780 1.092750 22.735540 -0.002498 0.002121 0.017008
 11 -0.976790 -3.346690 20.865768 -0.007845 -0.005117 -0.042596
 12 0.975190 -4.916450 -4.520320 0.022788 0.000000 0.000000
 13 -2.406500 -8.600220 4.877150 0.000000 0.000000 0.000000
 14 4.381730 -8.600220 5.272540 0.000000 0.000000 0.000000
 15 -18.388140 0.440630 8.679390 0.077422 -0.774711 -0.129215
 16 -21.955891 -0.759690 -12.109390 -0.010140 -0.006446 0.239842
 17 -13.311041 1.530050 -7.133010 -0.028782 -0.000018 -0.000010
 18 -9.635210 -0.302230 -6.530870 0.000000 0.000000 0.000000
 19 -3.126290 0.042420 -2.638810 0.000000 0.000000 0.000000
 20 -2.839340 -5.564580 -4.296970 0.000000 0.000000 0.000000
 21 -3.811070 -2.785450 -1.806430 0.000000 0.000000 0.000000
 22 18.455151 0.440630 8.679390 0.246987 0.713302 0.366151
 23 21.943432 -0.878860 -11.911369 0.000000 0.000000 -0.329932
 24 13.133340 0.635550 -6.798010 0.000000 0.000000 0.000000
 25 3.689260 -4.550930 -4.829990 0.000000 0.000000 0.000000
 26 3.087020 -2.930260 -1.806420 0.000000 0.000000 0.000000
 27 10.169240 0.711430 -6.708540 0.000000 0.000000 0.000000
 28 2.770930 0.042420 -2.816470 0.000000 0.000000 0.000000
 29 -52.850708 -0.361260 -67.170868 1.570802 -0.000018 -0.000537
time 20
  0 1.278131 -1.278131 46.410206 0.000000 0.000000 -0.000048
  1 9.062670 0.286610 -3.406700 -0.134942 -0.020642 -0.028238
  2 4.544490 -1.638600 -20.622749 0.322712 0.018408 0.072171
  3 3.070910 1.647970 -15.136740 -0.186229 -0.014783 -0.038696
  4 -0.361640 -14.308061 -6.406600 0.000000 0.000000 0.000000
  5 -9.522449 0.590440 -3.372560 -0.153864 -0.002316 0.031885
  6 -4.141180 -1.081730 -20.790251 0.374357 0.039684 -0.069559
  7 -3.014440 0.974200 -14.527950 -0.221926 -0.016177 0.047605
  8 0.361640 -14.494990 -6.882030 0.000000 0.000000 0.000000
  9 0.013460 -1.507020 5.475230 0.000000 0.000000 0.000000
 10 -0.004780 1.092750 22.735540 0.000000 0.000000 0.000000
 11 -0.976790 -3.346690 20.865768 -0.017948 0.000000 0.000000
 12 0.975190 -4.916450 -4.520320 0.000000 0.000000 0.000000
 13 -2.406500 -8.600220 4.877150 0.000000 0.000000 0.000000
 14 4.381730 -8.600220 5.272540 0.000000 0.000000 0.000000
 15 -18.388140 0.440630 8.679390 0.112331 -0.815405 -0.153777
 16 -21.955891 -0.759690 -12.109390 0.000000 0.000000 0.197047
 17 -13.311041 1.530050 -7.133010 0.000005 -0.000018 -0.000010
 18 -9.635210 -0.302230 -6.530870 0.000000 0.000000 0.000000
 19 -3.126290 0.042420 -2.638810 0.000000 0.000000 0.000000
 20 -2.839340 -5.564580 -4.296970 0.000000 0.000000 0.000000
 21 -3.811070 -2.785450 -1.806430 0.000000 0.000000 0.000000
 22 18.455151 0.440630 8.679390 0.269311 0.733068 0.391282
 23 21.943432 -0.878860 -11.911369 0.000000 0.000000 -0.306161
 24 13.133340 0.635550 -6.798010 0.000000 0.000000 0.000000
 25 3.689260 -4.550930 -4.829990 0.000000 0.000000 0.000000
 26 3.087020 -2.930260 -1.806420 0.000000 0.000000 0.000000
 27 10.169240 0.711430 -6.708540 0.000000 0.000000 0.000000
 28 2.770930 0.042420 -2.816470 0.000000 0.000000 0.000000
 29 -52.850708 -0.361260 -67.170868 1.570802 -0.000018 -0.000537
end
