version 1
nodes
  0 "Hips"  -1
  1 "LLegUpper"   0
  2 "LLegLower"   1
  3 "LFoot"   2
  4 "LToes"   3
  5 "RLegUpper"   0
  6 "RLegLower"   5
  7 "RFoot"   6
  8 "RToes"   7
  9 "BodyLower"   0
 10 "BodyUpper"   9
 11 "Head"  10
 12 "Jaw"  11
 13 "HeadRBrow"  11
 14 "HeadLBrow"  11
 15 "RArm"  10
 16 "RArm2"  15
 17 "RPalm"  16
 18 "RFingStart"  17
 19 "RFingEnd"  18
 20 "RThumbStart"  17
 21 "RThumbEnd"  20
 22 "LArm"  10
 23 "LArm2"  22
 24 "LPalm"  23
 25 "LThumStart"  24
 26 "LThumEnd"  25
 27 "LFingStart"  24
 28 "LFingEnd"  27
 29 "GeoSphere01"   9
end
skeleton
time 0
  0 1.278131 -1.278131 46.347702 0.000000 0.000000 -0.000048
  1 9.062670 0.286610 -3.406700 -0.140296 -0.021666 -0.028944
  2 4.544490 -1.638600 -20.622749 0.335533 0.018648 0.075119
  3 3.070910 1.647970 -15.136740 -0.193544 -0.015442 -0.040574
  4 -0.361640 -14.308061 -6.406600 0.000000 0.000000 0.000000
  5 -9.522449 0.590440 -3.372560 -0.159382 -0.002154 0.032713
  6 -4.141180 -1.081730 -20.790251 0.387743 0.041568 -0.071752
  7 -3.014440 0.974200 -14.527950 -0.229889 -0.016619 0.049782
  8 0.361640 -14.494990 -6.882030 0.000000 0.000000 0.000000
  9 0.013460 -1.507020 5.475230 0.000000 0.000000 0.000000
 10 -0.004780 1.092750 22.735540 0.000000 0.000000 0.000000
 11 -0.976790 -3.346690 20.865768 -0.018992 0.000000 0.000000
 12 0.975190 -4.916450 -4.520320 0.000000 0.000000 0.000000
 13 -2.406500 -8.600220 4.877150 0.000000 0.000000 0.000000
 14 4.381730 -8.600220 5.272540 0.000000 0.000000 0.000000
 15 -18.388140 0.440630 8.679390 0.000000 -0.753381 0.000000
 16 -21.955891 -0.759690 -12.109390 0.000000 0.000000 0.000000
 17 -13.311041 1.530050 -7.133010 0.000005 -0.000018 -0.000010
 18 -9.635210 -0.302230 -6.530870 0.000000 0.000000 0.000000
 19 -3.126290 0.042420 -2.638810 0.000000 0.000000 0.000000
 20 -2.839340 -5.564580 -4.296970 0.000000 0.000000 0.000000
 21 -3.811070 -2.785450 -1.806430 0.000000 0.000000 0.000000
 22 18.455151 0.440630 8.679390 0.000000 0.838587 0.000000
 23 21.943432 -0.878860 -11.911369 0.000000 0.000000 0.000000
 24 13.133340 0.635550 -6.798010 0.000000 0.000000 0.000000
 25 3.689260 -4.550930 -4.829990 0.000000 0.000000 0.000000
 26 3.087020 -2.930260 -1.806420 0.000000 0.000000 0.000000
 27 10.169240 0.711430 -6.708540 0.000000 0.000000 0.000000
 28 2.770930 0.042420 -2.816470 0.000000 0.000000 0.000000
 29 -52.850708 -0.361260 -67.170868 1.570802 -0.000018 -0.000537
time 1
  0 1.278131 -1.278131 46.347702 0.000000 0.000000 -0.003222
  1 9.062670 0.286610 -3.406700 -0.138788 -0.021593 -0.029006
  2 4.544490 -1.638600 -20.622749 0.335533 0.018648 0.075119
  3 3.070910 1.647970 -15.136740 -0.195161 -0.014856 -0.037420
  4 -0.361640 -14.308061 -6.406600 0.000000 0.000000 0.000000
  5 -9.522449 0.590440 -3.372560 -0.160747 -0.002065 0.033338
  6 -4.141180 -1.081730 -20.790251 0.387670 0.041556 -0.071740
  7 -3.014440 0.974200 -14.527950 -0.228470 -0.016093 0.052244
  8 0.361640 -14.494990 -6.882030 0.000000 0.000000 0.000000
  9 0.013460 -1.507020 5.475230 -0.004192 0.000000 0.000000
 10 -0.004780 1.092750 22.735540 0.000000 0.000000 0.000000
 11 -0.976790 -3.346690 20.865768 -0.021664 0.000036 -0.008731
 12 0.975190 -4.916450 -4.520320 0.016909 0.000000 0.000000
 13 -2.406500 -8.600220 4.877150 0.000000 0.000000 0.000000
 14 4.381730 -8.600220 5.272540 0.000000 0.000000 0.000000
 15 -18.388140 0.440630 8.679390 -0.012097 -0.750130 0.018538
 16 -21.955891 -0.759690 -12.109390 0.000000 0.000000 0.023265
 17 -13.311041 1.530050 -7.133010 0.000005 0.013955 -0.000010
 18 -9.635210 -0.302230 -6.530870 0.000000 -0.044936 0.000000
 19 -3.126290 0.042420 -2.638810 0.000000 -0.023647 0.000000
 20 -2.839340 -5.564580 -4.296970 0.013565 0.001522 -0.010671
 21 -3.811070 -2.785450 -1.806430 0.000000 0.000000 0.000000
 22 18.455151 0.440630 8.679390 -0.009974 0.836841 -0.013712
 23 21.943432 -0.878860 -11.911369 0.000000 0.000000 -0.025987
 24 13.133340 0.635550 -6.798010 0.000000 -0.013975 0.000000
 25 3.689260 -4.550930 -4.829990 0.017817 0.000000 0.000000
 26 3.087020 -2.930260 -1.806420 0.000000 0.000000 0.000000
 27 10.169240 0.711430 -6.708540 0.000000 0.045482 0.000000
 28 2.770930 0.042420 -2.816470 0.000000 0.027013 0.000000
 29 -52.850708 -0.361260 -67.170868 1.570802 -0.000018 -0.000537
time 2
  0 1.278131 -1.278131 46.347702 0.000000 0.000000 -0.011837
  1 9.062670 0.286610 -3.406700 -0.134890 -0.021388 -0.027915
  2 4.544490 -1.638600 -20.622749 0.335606 0.018648 0.075131
  3 3.070910 1.647970 -15.136740 -0.199166 -0.013466 -0.030117
  4 -0.361640 -14.308061 -6.406600 0.000000 0.000000 0.000000
  5 -9.522449 0.590440 -3.372560 -0.164672 -0.001831 0.034129
  6 -4.141180 -1.081730 -20.790251 0.387306 0.041508 -0.071680
  7 -3.014440 0.974200 -14.527950 -0.224344 -0.014450 0.059837
  8 0.361640 -14.494990 -6.882030 0.000000 0.000000 0.000000
  9 0.013460 -1.507020 5.475230 -0.015605 0.000000 0.000000
 10 -0.004780 1.092750 22.735540 0.000000 0.000000 0.000000
 11 -0.976790 -3.346690 20.865768 -0.028683 0.000491 -0.032197
 12 0.975190 -4.916450 -4.520320 0.062884 0.000000 0.000000
 13 -2.406500 -8.600220 4.877150 0.000000 0.000000 0.000000
 14 4.381730 -8.600220 5.272540 0.000000 0.000000 0.000000
 15 -18.388140 0.440630 8.679390 -0.045140 -0.741261 0.068892
 16 -21.955891 -0.759690 -12.109390 0.000000 0.000000 0.086438
 17 -13.311041 1.530050 -7.133010 0.000005 0.051816 -0.000010
 18 -9.635210 -0.302230 -6.530870 0.000000 -0.166974 0.000000
 19 -3.126290 0.042420 -2.638810 0.000000 -0.087831 0.000000
 20 -2.839340 -5.564580 -4.296970 0.050391 0.005693 -0.039641
 21 -3.811070 -2.785450 -1.806430 0.000000 0.000000 0.000000
 22 18.455151 0.440630 8.679390 -0.037226 0.832077 -0.050986
 23 21.943432 -0.878860 -11.911369 0.000000 0.000000 -0.096561
 24 13.133340 0.635550 -6.798010 0.000000 -0.051990 0.000000
 25 3.689260 -4.550930 -4.829990 0.066199 0.000000 0.000000
 26 3.087020 -2.930260 -1.806420 0.000000 0.000000 0.000000
 27 10.169240 0.711430 -6.708540 0.000000 0.168984 0.000000
 28 2.770930 0.042420 -2.816470 0.000000 0.100424 0.000000
 29 -52.850708 -0.361260 -67.170868 1.570802 -0.000018 -0.000537
time 3
  0 1.278131 -1.278131 46.347702 0.000000 0.000000 -0.024533
  1 9.062670 0.286610 -3.406700 -0.129068 -0.021008 -0.026794
  2 4.544490 -1.638600 -20.622749 0.335533 0.018648 0.075119
  3 3.070910 1.647970 -15.136740 -0.205133 -0.011270 -0.018872
  4 -0.361640 -14.308061 -6.406600 0.000000 0.000000 0.000000
  5 -9.522449 0.590440 -3.372560 -0.170303 -0.001544 0.035288
  6 -4.141180 -1.081730 -20.790251 0.386651 0.041412 -0.071572
  7 -3.014440 0.974200 -14.527950 -0.218154 -0.012091 0.071006
  8 0.361640 -14.494990 -6.882030 0.000000 0.000000 0.000000
  9 0.013460 -1.507020 5.475230 -0.032443 0.000000 0.000000
 10 -0.004780 1.092750 22.735540 0.000000 0.000000 0.000000
 11 -0.976790 -3.346690 20.865768 -0.038471 0.002133 -0.065819
 12 0.975190 -4.916450 -4.520320 0.130618 0.000000 0.000000
 13 -2.406500 -8.600220 4.877150 0.000000 0.000000 0.000000
 14 4.381730 -8.600220 5.272540 0.000000 0.000000 0.000000
 15 -18.388140 0.440630 8.679390 -0.093805 -0.728201 0.143086
 16 -21.955891 -0.759690 -12.109390 0.000000 0.000000 0.179499
 17 -13.311041 1.530050 -7.133010 0.000005 0.107635 -0.000010
 18 -9.635210 -0.302230 -6.530870 0.000000 -0.346879 0.000000
 19 -3.126290 0.042420 -2.638810 0.000000 -0.182417 0.000000
 20 -2.839340 -5.564580 -4.296970 0.104673 0.011817 -0.082324
 21 -3.811070 -2.785450 -1.806430 0.000000 0.000000 0.000000
 22 18.455151 0.440630 8.679390 -0.077302 0.825064 -0.105953
 23 21.943432 -0.878860 -11.911369 0.000000 0.000000 -0.200599
 24 13.133340 0.635550 -6.798010 0.000000 -0.108025 0.000000
 25 3.689260 -4.550930 -4.829990 0.137507 0.000000 0.000000
 26 3.087020 -2.930260 -1.806420 0.000000 0.000000 0.000000
 27 10.169240 0.711430 -6.708540 0.000000 0.351013 0.000000
 28 2.770930 0.042420 -2.816470 0.000000 0.208587 0.000000
 29 -52.850708 -0.361260 -67.170868 1.570802 -0.000018 -0.000537
time 4
  0 1.278131 -1.278131 46.347702 0.000000 0.000000 -0.039949
  1 9.062670 0.286610 -3.406700 -0.121791 -0.020452 -0.025750
  2 4.544490 -1.638600 -20.622749 0.335316 0.018648 0.075071
  3 3.070910 1.647970 -15.136740 -0.212294 -0.008416 -0.004846
  4 -0.361640 -14.308061 -6.406600 0.000000 0.000000 0.000000
  5 -9.522449 0.590440 -3.372560 -0.177129 -0.001311 0.036668
  6 -4.141180 -1.081730 -20.790251 0.385633 0.041268 -0.071404
  7 -3.014440 0.974200 -14.527950 -0.210482 -0.009331 0.084585
  8 0.361640 -14.494990 -6.882030 0.000000 0.000000 0.000000
  9 0.013460 -1.507020 5.475230 -0.052856 0.000000 0.000000
 10 -0.004780 1.092750 22.735540 0.000000 0.000000 0.000000
 11 -0.976790 -3.346690 20.865768 -0.049303 0.005537 -0.104929
 12 0.975190 -4.916450 -4.520320 0.212902 0.000000 0.000000
 13 -2.406500 -8.600220 4.877150 0.000000 0.000000 0.000000
 14 4.381730 -8.600220 5.272540 0.000000 0.000000 0.000000
 15 -18.388140 0.440630 8.679390 -0.152839 -0.712317 0.233231
 16 -21.955891 -0.759690 -12.109390 0.000000 0.000000 0.292542
 17 -13.311041 1.530050 -7.133010 0.000005 0.175435 -0.000010
 18 -9.635210 -0.302230 -6.530870 0.000000 -0.565255 0.000000
 19 -3.126290 0.042420 -2.638810 0.000000 -0.297273 0.000000
 20 -2.839340 -5.564580 -4.296970 0.170564 0.019271 -0.134179
 21 -3.811070 -2.785450 -1.806430 0.000000 0.000000 0.000000
 22 18.455151 0.440630 8.679390 -0.125987 0.816542 -0.172661
 23 21.943432 -0.878860 -11.911369 0.000000 0.000000 -0.326931
 24 13.133340 0.635550 -6.798010 0.000000 -0.176029 0.000000
 25 3.689260 -4.550930 -4.829990 0.224088 0.000000 0.000000
 26 3.087020 -2.930260 -1.806420 0.000000 0.000000 0.000000
 27 10.169240 0.711430 -6.708540 0.000000 0.572026 0.000000
 28 2.770930 0.042420 -2.816470 0.000000 0.339931 0.000000
 29 -52.850708 -0.361260 -67.170868 1.570802 -0.000018 -0.000537
time 5
  0 1.278131 -1.278131 46.347702 0.000000 0.000000 -0.056726
  1 9.062670 0.286610 -3.406700 -0.113890 -0.019721 -0.024230
  2 4.544490 -1.638600 -20.622749 0.334809 0.018636 0.074952
  3 3.070910 1.647970 -15.136740 -0.219802 -0.005294 0.010016
  4 -0.361640 -14.308061 -6.406600 0.000000 0.000000 0.000000
  5 -9.522449 0.590440 -3.372560 -0.184410 -0.001149 0.038140
  6 -4.141180 -1.081730 -20.790251 0.384324 0.041076 -0.071188
  7 -3.014440 0.974200 -14.527950 -0.201938 -0.006445 0.099357
  8 0.361640 -14.494990 -6.882030 0.000000 0.000000 0.000000
  9 0.013460 -1.507020 5.475230 -0.075101 0.000000 0.000000
 10 -0.004780 1.092750 22.735540 0.000000 0.000000 0.000000
 11 -0.976790 -3.346690 20.865768 -0.059600 0.010870 -0.145099
 12 0.975190 -4.916450 -4.520320 0.302395 0.000000 0.000000
 13 -2.406500 -8.600220 4.877150 0.000000 0.000000 0.000000
 14 4.381730 -8.600220 5.272540 0.000000 0.000000 0.000000
 15 -18.388140 0.440630 8.679390 -0.217126 -0.695064 0.331267
 16 -21.955891 -0.759690 -12.109390 0.000000 0.000000 0.415605
 17 -13.311041 1.530050 -7.133010 0.000005 0.249188 -0.000010
 18 -9.635210 -0.302230 -6.530870 0.000000 -0.802974 0.000000
 19 -3.126290 0.042420 -2.638810 0.000000 -0.422263 0.000000
 20 -2.839340 -5.564580 -4.296970 0.242281 0.027373 -0.190598
 21 -3.811070 -2.785450 -1.806430 0.000000 0.000000 0.000000
 22 18.455151 0.440630 8.679390 -0.179006 0.807251 -0.245280
 23 21.943432 -0.878860 -11.911369 0.000000 0.000000 -0.464388
 24 13.133340 0.635550 -6.798010 0.000000 -0.250052 0.000000
 25 3.689260 -4.550930 -4.829990 0.318324 0.000000 0.000000
 26 3.087020 -2.930260 -1.806420 0.000000 0.000000 0.000000
 27 10.169240 0.711430 -6.708540 0.000000 0.812582 0.000000
 28 2.770930 0.042420 -2.816470 0.000000 0.482846 0.000000
 29 -52.850708 -0.361260 -67.170868 1.570802 -0.000018 -0.000537
time 6
  0 1.278131 -1.278131 46.347702 0.000000 0.000000 -0.073579
  1 9.062670 0.286610 -3.406700 -0.105885 -0.018859 -0.022679
  2 4.544490 -1.638600 -20.622749 0.334012 0.018624 0.074772
  3 3.070910 1.647970 -15.136740 -0.227156 -0.002025 0.024901
  4 -0.361640 -14.308061 -6.406600 0.000000 0.000000 0.000000
  5 -9.522449 0.590440 -3.372560 -0.191577 -0.001095 0.039594
  6 -4.141180 -1.081730 -20.790251 0.382650 0.040848 -0.070913
  7 -3.014440 0.974200 -14.527950 -0.193170 -0.003728 0.114102
  8 0.361640 -14.494990 -6.882030 0.000000 0.000000 0.000000
  9 0.013460 -1.507020 5.475230 -0.097328 0.000000 0.000000
 10 -0.004780 1.092750 22.735540 0.000000 0.000000 0.000000
 11 -0.976790 -3.346690 20.865768 -0.068222 0.017713 -0.182542
 12 0.975190 -4.916450 -4.520320 0.391921 0.000000 0.000000
 13 -2.406500 -8.600220 4.877150 0.000000 0.000000 0.000000
 14 4.381730 -8.600220 5.272540 0.000000 0.000000 0.000000
 15 -18.388140 0.440630 8.679390 -0.281414 -0.677783 0.429344
 16 -21.955891 -0.759690 -12.109390 0.000000 0.000000 0.538611
 17 -13.311041 1.530050 -7.133010 0.000005 0.322942 -0.000010
 18 -9.635210 -0.302230 -6.530870 0.000000 -1.040638 0.000000
 19 -3.126290 0.042420 -2.638810 0.000000 -0.547252 0.000000
 20 -2.839340 -5.564580 -4.296970 0.314020 0.035474 -0.247017
 21 -3.811070 -2.785450 -1.806430 0.000000 0.000000 0.000000
 22 18.455151 0.440630 8.679390 -0.231966 0.797989 -0.317899
 23 21.943432 -0.878860 -11.911369 0.000000 0.000000 -0.601844
 24 13.133340 0.635550 -6.798010 0.000000 -0.324075 0.000000
 25 3.689260 -4.550930 -4.829990 0.412561 0.000000 0.000000
 26 3.087020 -2.930260 -1.806420 0.000000 0.000000 0.000000
 27 10.169240 0.711430 -6.708540 0.000000 1.053137 0.000000
 28 2.770930 0.042420 -2.816470 0.000000 0.625799 0.000000
 29 -52.850708 -0.361260 -67.170868 1.570802 -0.000018 -0.000537
time 7
  0 1.278131 -1.278131 46.347702 0.000000 0.000000 -0.088995
  1 9.062670 0.286610 -3.406700 -0.098451 -0.017967 -0.021221
  2 4.544490 -1.638600 -20.622749 0.333070 0.018600 0.074556
  3 3.070910 1.647970 -15.136740 -0.233701 0.001025 0.038603
  4 -0.361640 -14.308061 -6.406600 0.000000 0.000000 0.000000
  5 -9.522449 0.590440 -3.372560 -0.198175 -0.001185 0.040569
  6 -4.141180 -1.081730 -20.790251 0.380904 0.040596 -0.070625
  7 -3.014440 0.974200 -14.527950 -0.184885 -0.001285 0.127966
  8 0.361640 -14.494990 -6.882030 0.000000 0.000000 0.000000
  9 0.013460 -1.507020 5.475230 -0.117742 0.000000 0.000000
 10 -0.004780 1.092750 22.735540 0.000000 0.000000 0.000000
 11 -0.976790 -3.346690 20.865768 -0.074610 0.025168 -0.214436
 12 0.975190 -4.916450 -4.520320 0.474172 0.000000 0.000000
 13 -2.406500 -8.600220 4.877150 0.000000 0.000000 0.000000
 14 4.381730 -8.600220 5.272540 0.000000 0.000000 0.000000
 15 -18.388140 0.440630 8.679390 -0.340517 -0.661928 0.519447
 16 -21.955891 -0.759690 -12.109390 0.000000 0.000000 0.651654
 17 -13.311041 1.530050 -7.133010 0.000005 0.390741 -0.000010
 18 -9.635210 -0.302230 -6.530870 0.000000 -1.259068 0.000000
 19 -3.126290 0.042420 -2.638810 0.000000 -0.662160 0.000000
 20 -2.839340 -5.564580 -4.296970 0.379911 0.042917 -0.298872
 21 -3.811070 -2.785450 -1.806430 0.000000 0.000000 0.000000
 22 18.455151 0.440630 8.679390 -0.280651 0.789467 -0.384607
 23 21.943432 -0.878860 -11.911369 0.000000 0.000000 -0.728130
 24 13.133340 0.635550 -6.798010 0.000000 -0.392079 0.000000
 25 3.689260 -4.550930 -4.829990 0.499141 0.000000 0.000000
 26 3.087020 -2.930260 -1.806420 0.000000 0.000000 0.000000
 27 10.169240 0.711430 -6.708540 0.000000 1.274151 0.000000
 28 2.770930 0.042420 -2.816470 0.000000 0.757142 0.000000
 29 -52.850708 -0.361260 -67.170868 1.570802 -0.000018 -0.000537
time 8
  0 1.278131 -1.278131 46.347702 0.000000 0.000000 -0.101691
  1 9.062670 0.286610 -3.406700 -0.092266 -0.017134 -0.020008
  2 4.544490 -1.638600 -20.622749 0.332129 0.018588 0.074340
  3 3.070910 1.647970 -15.136740 -0.238976 0.003635 0.049894
  4 -0.361640 -14.308061 -6.406600 0.000000 0.000000 0.000000
  5 -9.522449 0.590440 -3.372560 -0.203408 -0.001311 0.041636
  6 -4.141180 -1.081730 -20.790251 0.379231 0.040368 -0.070362
  7 -3.014440 0.974200 -14.527950 -0.177953 0.000548 0.139109
  8 0.361640 -14.494990 -6.882030 0.000000 0.000000 0.000000
  9 0.013460 -1.507020 5.475230 -0.134579 0.000000 0.000000
 10 -0.004780 1.092750 22.735540 0.000000 0.000000 0.000000
 11 -0.976790 -3.346690 20.865768 -0.078763 0.032011 -0.238811
 12 0.975190 -4.916450 -4.520320 0.541939 0.000000 0.000000
 13 -2.406500 -8.600220 4.877150 0.000000 0.000000 0.000000
 14 4.381730 -8.600220 5.272540 0.000000 0.000000 0.000000
 15 -18.388140 0.440630 8.679390 -0.389182 -0.648867 0.593684
 16 -21.955891 -0.759690 -12.109390 0.000000 0.000000 0.744715
 17 -13.311041 1.530050 -7.133010 0.000005 0.446561 -0.000010
 18 -9.635210 -0.302230 -6.530870 0.000000 -1.438919 0.000000
 19 -3.126290 0.042420 -2.638810 0.000000 -0.756747 0.000000
 20 -2.839340 -5.564580 -4.296970 0.434193 0.049053 -0.341556
 21 -3.811070 -2.785450 -1.806430 0.000000 0.000000 0.000000
 22 18.455151 0.440630 8.679390 -0.320727 0.782454 -0.439574
 23 21.943432 -0.878860 -11.911369 0.000000 0.000000 -0.832168
 24 13.133340 0.635550 -6.798010 0.000000 -0.448114 0.000000
 25 3.689260 -4.550930 -4.829990 0.570450 0.000000 0.000000
 26 3.087020 -2.930260 -1.806420 0.000000 0.000000 0.000000
 27 10.169240 0.711430 -6.708540 0.000000 1.456179 0.000000
 28 2.770930 0.042420 -2.816470 0.000000 0.865305 0.000000
 29 -52.850708 -0.361260 -67.170868 1.570802 -0.000018 -0.000537
time 9
  0 1.278131 -1.278131 46.347702 0.000000 0.000000 -0.110306
  1 9.062670 0.286610 -3.406700 -0.088159 -0.016564 -0.018825
  2 4.544490 -1.638600 -20.622749 0.331477 0.018576 0.074173
  3 3.070910 1.647970 -15.136740 -0.242402 0.005367 0.057220
  4 -0.361640 -14.308061 -6.406600 0.000000 0.000000 0.000000
  5 -9.522449 0.590440 -3.372560 -0.206935 -0.001454 0.042353
  6 -4.141180 -1.081730 -20.790251 0.377995 0.040200 -0.070158
  7 -3.014440 0.974200 -14.527950 -0.173214 0.001748 0.146677
  8 0.361640 -14.494990 -6.882030 0.000000 0.000000 0.000000
  9 0.013460 -1.507020 5.475230 -0.145992 0.000000 0.000000
 10 -0.004780 1.092750 22.735540 0.000000 0.000000 0.000000
 11 -0.976790 -3.346690 20.865768 -0.081022 0.036984 -0.254394
 12 0.975190 -4.916450 -4.520320 0.587882 0.000000 0.000000
 13 -2.406500 -8.600220 4.877150 0.000000 0.000000 0.000000
 14 4.381730 -8.600220 5.272540 0.000000 0.000000 0.000000
 15 -18.388140 0.440630 8.679390 -0.422155 -0.639999 0.644038
 16 -21.955891 -0.759690 -12.109390 0.000000 0.000000 0.807888
 17 -13.311041 1.530050 -7.133010 0.000005 0.484422 -0.000010
 18 -9.635210 -0.302230 -6.530870 0.000000 -1.561012 0.000000
 19 -3.126290 0.042420 -2.638810 0.000000 -0.820931 0.000000
 20 -2.839340 -5.564580 -4.296970 0.471019 0.053212 -0.370548
 21 -3.811070 -2.785450 -1.806430 0.000000 0.000000 0.000000
 22 18.455151 0.440630 8.679390 -0.347979 0.777690 -0.476848
 23 21.943432 -0.878860 -11.911369 0.000000 0.000000 -0.902742
 24 13.133340 0.635550 -6.798010 0.000000 -0.486128 0.000000
 25 3.689260 -4.550930 -4.829990 0.618831 0.000000 0.000000
 26 3.087020 -2.930260 -1.806420 0.000000 0.000000 0.000000
 27 10.169240 0.711430 -6.708540 0.000000 1.579681 0.000000
 28 2.770930 0.042420 -2.816470 0.000000 0.938679 0.000000
 29 -52.850708 -0.361260 -67.170868 1.570802 -0.000018 -0.000537
time 10
  0 1.278131 -1.278131 46.347702 0.000000 0.000000 -0.113480
  1 9.062670 0.286610 -3.406700 -0.086600 -0.016330 -0.018518
  2 4.544490 -1.638600 -20.622749 0.331187 0.018564 0.074113
  3 3.070910 1.647970 -15.136740 -0.243673 0.006050 0.060049
  4 -0.361640 -14.308061 -6.406600 0.000000 0.000000 0.000000
  5 -9.522449 0.590440 -3.372560 -0.208186 -0.001490 0.042942
  6 -4.141180 -1.081730 -20.790251 0.377558 0.040128 -0.070086
  7 -3.014440 0.974200 -14.527950 -0.171506 0.002106 0.149138
  8 0.361640 -14.494990 -6.882030 0.000000 0.000000 0.000000
  9 0.013460 -1.507020 5.475230 -0.150185 0.000000 0.000000
 10 -0.004780 1.092750 22.735540 0.000000 0.000000 0.000000
 11 -0.976790 -3.346690 20.865768 -0.081726 0.038878 -0.259942
 12 0.975190 -4.916450 -4.520320 0.604823 0.000000 0.000000
 13 -2.406500 -8.600220 4.877150 0.000000 0.000000 0.000000
 14 4.381730 -8.600220 5.272540 0.000000 0.000000 0.000000
 15 -18.388140 0.440630 8.679390 -0.434322 -0.636719 0.662576
 16 -21.955891 -0.759690 -12.109390 0.000000 0.000000 0.831210
 17 -13.311041 1.530050 -7.133010 0.000005 0.498395 -0.000010
 18 -9.635210 -0.302230 -6.530870 0.000000 -1.605947 0.000000
 19 -3.126290 0.042420 -2.638810 0.000000 -0.844577 0.000000
 20 -2.839340 -5.564580 -4.296970 0.484584 0.054746 -0.381219
 21 -3.811070 -2.785450 -1.806430 0.000000 0.000000 0.000000
 22 18.455151 0.440630 8.679390 -0.358013 0.775945 -0.490600
 23 21.943432 -0.878860 -11.911369 0.000000 0.000000 -0.928775
 24 13.133340 0.635550 -6.798010 0.000000 -0.500104 0.000000
 25 3.689260 -4.550930 -4.829990 0.636649 0.000000 0.000000
 26 3.087020 -2.930260 -1.806420 0.000000 0.000000 0.000000
 27 10.169240 0.711430 -6.708540 0.000000 1.625213 0.000000
 28 2.770930 0.042420 -2.816470 0.000000 0.965729 0.000000
 29 -52.850708 -0.361260 -67.170868 1.570802 -0.000018 -0.000537
time 11
  0 1.278131 -1.278131 46.347702 0.000000 0.000000 -0.110306
  1 9.062670 0.286610 -3.406700 -0.088159 -0.016564 -0.018825
  2 4.544490 -1.638600 -20.622749 0.331477 0.018576 0.074173
  3 3.070910 1.647970 -15.136740 -0.242402 0.005367 0.057220
  4 -0.361640 -14.308061 -6.406600 0.000000 0.000000 0.000000
  5 -9.522449 0.590440 -3.372560 -0.206935 -0.001454 0.042353
  6 -4.141180 -1.081730 -20.790251 0.377995 0.040200 -0.070158
  7 -3.014440 0.974200 -14.527950 -0.173214 0.001748 0.146677
  8 0.361640 -14.494990 -6.882030 0.000000 0.000000 0.000000
  9 0.013460 -1.507020 5.475230 -0.145992 0.000000 0.000000
 10 -0.004780 1.092750 22.735540 0.000000 0.000000 0.000000
 11 -0.976790 -3.346690 20.865768 -0.081022 0.036984 -0.254394
 12 0.975190 -4.916450 -4.520320 0.587882 0.000000 0.000000
 13 -2.406500 -8.600220 4.877150 0.000000 0.000000 0.000000
 14 4.381730 -8.600220 5.272540 0.000000 0.000000 0.000000
 15 -18.388140 0.440630 8.679390 -0.422155 -0.639999 0.644038
 16 -21.955891 -0.759690 -12.109390 0.000000 0.000000 0.807888
 17 -13.311041 1.530050 -7.133010 0.000005 0.484422 -0.000010
 18 -9.635210 -0.302230 -6.530870 0.000000 -1.561012 0.000000
 19 -3.126290 0.042420 -2.638810 0.000000 -0.820931 0.000000
 20 -2.839340 -5.564580 -4.296970 0.471019 0.053212 -0.370548
 21 -3.811070 -2.785450 -1.806430 0.000000 0.000000 0.000000
 22 18.455151 0.440630 8.679390 -0.347979 0.777690 -0.476848
 23 21.943432 -0.878860 -11.911369 0.000000 0.000000 -0.902742
 24 13.133340 0.635550 -6.798010 0.000000 -0.486128 0.000000
 25 3.689260 -4.550930 -4.829990 0.618831 0.000000 0.000000
 26 3.087020 -2.930260 -1.806420 0.000000 0.000000 0.000000
 27 10.169240 0.711430 -6.708540 0.000000 1.579681 0.000000
 28 2.770930 0.042420 -2.816470 0.000000 0.938679 0.000000
 29 -52.850708 -0.361260 -67.170868 1.570802 -0.000018 -0.000537
time 12
  0 1.278131 -1.278131 46.347702 0.000000 0.000000 -0.101691
  1 9.062670 0.286610 -3.406700 -0.092266 -0.017134 -0.020008
  2 4.544490 -1.638600 -20.622749 0.332129 0.018588 0.074340
  3 3.070910 1.647970 -15.136740 -0.238976 0.003635 0.049894
  4 -0.361640 -14.308061 -6.406600 0.000000 0.000000 0.000000
  5 -9.522449 0.590440 -3.372560 -0.203408 -0.001311 0.041636
  6 -4.141180 -1.081730 -20.790251 0.379231 0.040368 -0.070362
  7 -3.014440 0.974200 -14.527950 -0.177953 0.000548 0.139109
  8 0.361640 -14.494990 -6.882030 0.000000 0.000000 0.000000
  9 0.013460 -1.507020 5.475230 -0.134579 0.000000 0.000000
 10 -0.004780 1.092750 22.735540 0.000000 0.000000 0.000000
 11 -0.976790 -3.346690 20.865768 -0.078763 0.032011 -0.238811
 12 0.975190 -4.916450 -4.520320 0.541939 0.000000 0.000000
 13 -2.406500 -8.600220 4.877150 0.000000 0.000000 0.000000
 14 4.381730 -8.600220 5.272540 0.000000 0.000000 0.000000
 15 -18.388140 0.440630 8.679390 -0.389182 -0.648867 0.593684
 16 -21.955891 -0.759690 -12.109390 0.000000 0.000000 0.744715
 17 -13.311041 1.530050 -7.133010 0.000005 0.446561 -0.000010
 18 -9.635210 -0.302230 -6.530870 0.000000 -1.438919 0.000000
 19 -3.126290 0.042420 -2.638810 0.000000 -0.756747 0.000000
 20 -2.839340 -5.564580 -4.296970 0.434193 0.049053 -0.341556
 21 -3.811070 -2.785450 -1.806430 0.000000 0.000000 0.000000
 22 18.455151 0.440630 8.679390 -0.320727 0.782454 -0.439574
 23 21.943432 -0.878860 -11.911369 0.000000 0.000000 -0.832168
 24 13.133340 0.635550 -6.798010 0.000000 -0.448114 0.000000
 25 3.689260 -4.550930 -4.829990 0.570450 0.000000 0.000000
 26 3.087020 -2.930260 -1.806420 0.000000 0.000000 0.000000
 27 10.169240 0.711430 -6.708540 0.000000 1.456179 0.000000
 28 2.770930 0.042420 -2.816470 0.000000 0.865305 0.000000
 29 -52.850708 -0.361260 -67.170868 1.570802 -0.000018 -0.000537
time 13
  0 1.278131 -1.278131 46.347702 0.000000 0.000000 -0.088995
  1 9.062670 0.286610 -3.406700 -0.098451 -0.017967 -0.021221
  2 4.544490 -1.638600 -20.622749 0.333070 0.018600 0.074556
  3 3.070910 1.647970 -15.136740 -0.233701 0.001025 0.038603
  4 -0.361640 -14.308061 -6.406600 0.000000 0.000000 0.000000
  5 -9.522449 0.590440 -3.372560 -0.198175 -0.001185 0.040569
  6 -4.141180 -1.081730 -20.790251 0.380904 0.040596 -0.070625
  7 -3.014440 0.974200 -14.527950 -0.184885 -0.001285 0.127966
  8 0.361640 -14.494990 -6.882030 0.000000 0.000000 0.000000
  9 0.013460 -1.507020 5.475230 -0.117742 0.000000 0.000000
 10 -0.004780 1.092750 22.735540 0.000000 0.000000 0.000000
 11 -0.976790 -3.346690 20.865768 -0.074610 0.025168 -0.214436
 12 0.975190 -4.916450 -4.520320 0.474172 0.000000 0.000000
 13 -2.406500 -8.600220 4.877150 0.000000 0.000000 0.000000
 14 4.381730 -8.600220 5.272540 0.000000 0.000000 0.000000
 15 -18.388140 0.440630 8.679390 -0.340517 -0.661928 0.519447
 16 -21.955891 -0.759690 -12.109390 0.000000 0.000000 0.651654
 17 -13.311041 1.530050 -7.133010 0.000005 0.390741 -0.000010
 18 -9.635210 -0.302230 -6.530870 0.000000 -1.259068 0.000000
 19 -3.126290 0.042420 -2.638810 0.000000 -0.662160 0.000000
 20 -2.839340 -5.564580 -4.296970 0.379911 0.042917 -0.298872
 21 -3.811070 -2.785450 -1.806430 0.000000 0.000000 0.000000
 22 18.455151 0.440630 8.679390 -0.280651 0.789467 -0.384607
 23 21.943432 -0.878860 -11.911369 0.000000 0.000000 -0.728130
 24 13.133340 0.635550 -6.798010 0.000000 -0.392079 0.000000
 25 3.689260 -4.550930 -4.829990 0.499141 0.000000 0.000000
 26 3.087020 -2.930260 -1.806420 0.000000 0.000000 0.000000
 27 10.169240 0.711430 -6.708540 0.000000 1.274151 0.000000
 28 2.770930 0.042420 -2.816470 0.000000 0.757142 0.000000
 29 -52.850708 -0.361260 -67.170868 1.570802 -0.000018 -0.000537
time 14
  0 1.278131 -1.278131 46.347702 0.000000 0.000000 -0.073579
  1 9.062670 0.286610 -3.406700 -0.105885 -0.018859 -0.022679
  2 4.544490 -1.638600 -20.622749 0.334012 0.018624 0.074772
  3 3.070910 1.647970 -15.136740 -0.227156 -0.002025 0.024901
  4 -0.361640 -14.308061 -6.406600 0.000000 0.000000 0.000000
  5 -9.522449 0.590440 -3.372560 -0.191577 -0.001095 0.039594
  6 -4.141180 -1.081730 -20.790251 0.382650 0.040848 -0.070913
  7 -3.014440 0.974200 -14.527950 -0.193170 -0.003728 0.114102
  8 0.361640 -14.494990 -6.882030 0.000000 0.000000 0.000000
  9 0.013460 -1.507020 5.475230 -0.097328 0.000000 0.000000
 10 -0.004780 1.092750 22.735540 0.000000 0.000000 0.000000
 11 -0.976790 -3.346690 20.865768 -0.068222 0.017713 -0.182542
 12 0.975190 -4.916450 -4.520320 0.391921 0.000000 0.000000
 13 -2.406500 -8.600220 4.877150 0.000000 0.000000 0.000000
 14 4.381730 -8.600220 5.272540 0.000000 0.000000 0.000000
 15 -18.388140 0.440630 8.679390 -0.281414 -0.677783 0.429344
 16 -21.955891 -0.759690 -12.109390 0.000000 0.000000 0.538611
 17 -13.311041 1.530050 -7.133010 0.000005 0.322942 -0.000010
 18 -9.635210 -0.302230 -6.530870 0.000000 -1.040638 0.000000
 19 -3.126290 0.042420 -2.638810 0.000000 -0.547252 0.000000
 20 -2.839340 -5.564580 -4.296970 0.314020 0.035474 -0.247017
 21 -3.811070 -2.785450 -1.806430 0.000000 0.000000 0.000000
 22 18.455151 0.440630 8.679390 -0.231966 0.797989 -0.317899
 23 21.943432 -0.878860 -11.911369 0.000000 0.000000 -0.601844
 24 13.133340 0.635550 -6.798010 0.000000 -0.324075 0.000000
 25 3.689260 -4.550930 -4.829990 0.412561 0.000000 0.000000
 26 3.087020 -2.930260 -1.806420 0.000000 0.000000 0.000000
 27 10.169240 0.711430 -6.708540 0.000000 1.053137 0.000000
 28 2.770930 0.042420 -2.816470 0.000000 0.625799 0.000000
 29 -52.850708 -0.361260 -67.170868 1.570802 -0.000018 -0.000537
time 15
  0 1.278131 -1.278131 46.347702 0.000000 0.000000 -0.056726
  1 9.062670 0.286610 -3.406700 -0.113890 -0.019721 -0.024230
  2 4.544490 -1.638600 -20.622749 0.334809 0.018636 0.074952
  3 3.070910 1.647970 -15.136740 -0.219802 -0.005294 0.010016
  4 -0.361640 -14.308061 -6.406600 0.000000 0.000000 0.000000
  5 -9.522449 0.590440 -3.372560 -0.184410 -0.001149 0.038140
  6 -4.141180 -1.081730 -20.790251 0.384324 0.041076 -0.071188
  7 -3.014440 0.974200 -14.527950 -0.201938 -0.006445 0.099357
  8 0.361640 -14.494990 -6.882030 0.000000 0.000000 0.000000
  9 0.013460 -1.507020 5.475230 -0.075101 0.000000 0.000000
 10 -0.004780 1.092750 22.735540 0.000000 0.000000 0.000000
 11 -0.976790 -3.346690 20.865768 -0.059600 0.010870 -0.145099
 12 0.975190 -4.916450 -4.520320 0.302395 0.000000 0.000000
 13 -2.406500 -8.600220 4.877150 0.000000 0.000000 0.000000
 14 4.381730 -8.600220 5.272540 0.000000 0.000000 0.000000
 15 -18.388140 0.440630 8.679390 -0.217126 -0.695064 0.331267
 16 -21.955891 -0.759690 -12.109390 0.000000 0.000000 0.415605
 17 -13.311041 1.530050 -7.133010 0.000005 0.249188 -0.000010
 18 -9.635210 -0.302230 -6.530870 0.000000 -0.802974 0.000000
 19 -3.126290 0.042420 -2.638810 0.000000 -0.422263 0.000000
 20 -2.839340 -5.564580 -4.296970 0.242281 0.027373 -0.190598
 21 -3.811070 -2.785450 -1.806430 0.000000 0.000000 0.000000
 22 18.455151 0.440630 8.679390 -0.179006 0.807251 -0.245280
 23 21.943432 -0.878860 -11.911369 0.000000 0.000000 -0.464388
 24 13.133340 0.635550 -6.798010 0.000000 -0.250052 0.000000
 25 3.689260 -4.550930 -4.829990 0.318324 0.000000 0.000000
 26 3.087020 -2.930260 -1.806420 0.000000 0.000000 0.000000
 27 10.169240 0.711430 -6.708540 0.000000 0.812582 0.000000
 28 2.770930 0.042420 -2.816470 0.000000 0.482846 0.000000
 29 -52.850708 -0.361260 -67.170868 1.570802 -0.000018 -0.000537
time 16
  0 1.278131 -1.278131 46.347702 0.000000 0.000000 -0.039949
  1 9.062670 0.286610 -3.406700 -0.121791 -0.020452 -0.025750
  2 4.544490 -1.638600 -20.622749 0.335316 0.018648 0.075071
  3 3.070910 1.647970 -15.136740 -0.212294 -0.008416 -0.004846
  4 -0.361640 -14.308061 -6.406600 0.000000 0.000000 0.000000
  5 -9.522449 0.590440 -3.372560 -0.177129 -0.001311 0.036668
  6 -4.141180 -1.081730 -20.790251 0.385633 0.041268 -0.071404
  7 -3.014440 0.974200 -14.527950 -0.210482 -0.009331 0.084585
  8 0.361640 -14.494990 -6.882030 0.000000 0.000000 0.000000
  9 0.013460 -1.507020 5.475230 -0.052856 0.000000 0.000000
 10 -0.004780 1.092750 22.735540 0.000000 0.000000 0.000000
 11 -0.976790 -3.346690 20.865768 -0.049303 0.005537 -0.104929
 12 0.975190 -4.916450 -4.520320 0.212902 0.000000 0.000000
 13 -2.406500 -8.600220 4.877150 0.000000 0.000000 0.000000
 14 4.381730 -8.600220 5.272540 0.000000 0.000000 0.000000
 15 -18.388140 0.440630 8.679390 -0.152839 -0.712317 0.233231
 16 -21.955891 -0.759690 -12.109390 0.000000 0.000000 0.292542
 17 -13.311041 1.530050 -7.133010 0.000005 0.175435 -0.000010
 18 -9.635210 -0.302230 -6.530870 0.000000 -0.565255 0.000000
 19 -3.126290 0.042420 -2.638810 0.000000 -0.297273 0.000000
 20 -2.839340 -5.564580 -4.296970 0.170564 0.019271 -0.134179
 21 -3.811070 -2.785450 -1.806430 0.000000 0.000000 0.000000
 22 18.455151 0.440630 8.679390 -0.125987 0.816542 -0.172661
 23 21.943432 -0.878860 -11.911369 0.000000 0.000000 -0.326931
 24 13.133340 0.635550 -6.798010 0.000000 -0.176029 0.000000
 25 3.689260 -4.550930 -4.829990 0.224088 0.000000 0.000000
 26 3.087020 -2.930260 -1.806420 0.000000 0.000000 0.000000
 27 10.169240 0.711430 -6.708540 0.000000 0.572026 0.000000
 28 2.770930 0.042420 -2.816470 0.000000 0.339931 0.000000
 29 -52.850708 -0.361260 -67.170868 1.570802 -0.000018 -0.000537
time 17
  0 1.278131 -1.278131 46.347702 0.000000 0.000000 -0.024533
  1 9.062670 0.286610 -3.406700 -0.129068 -0.021008 -0.026794
  2 4.544490 -1.638600 -20.622749 0.335533 0.018648 0.075119
  3 3.070910 1.647970 -15.136740 -0.205133 -0.011270 -0.018872
  4 -0.361640 -14.308061 -6.406600 0.000000 0.000000 0.000000
  5 -9.522449 0.590440 -3.372560 -0.170303 -0.001544 0.035288
  6 -4.141180 -1.081730 -20.790251 0.386651 0.041412 -0.071572
  7 -3.014440 0.974200 -14.527950 -0.218154 -0.012091 0.071006
  8 0.361640 -14.494990 -6.882030 0.000000 0.000000 0.000000
  9 0.013460 -1.507020 5.475230 -0.032443 0.000000 0.000000
 10 -0.004780 1.092750 22.735540 0.000000 0.000000 0.000000
 11 -0.976790 -3.346690 20.865768 -0.038471 0.002133 -0.065819
 12 0.975190 -4.916450 -4.520320 0.130618 0.000000 0.000000
 13 -2.406500 -8.600220 4.877150 0.000000 0.000000 0.000000
 14 4.381730 -8.600220 5.272540 0.000000 0.000000 0.000000
 15 -18.388140 0.440630 8.679390 -0.093805 -0.728201 0.143086
 16 -21.955891 -0.759690 -12.109390 0.000000 0.000000 0.179499
 17 -13.311041 1.530050 -7.133010 0.000005 0.107635 -0.000010
 18 -9.635210 -0.302230 -6.530870 0.000000 -0.346879 0.000000
 19 -3.126290 0.042420 -2.638810 0.000000 -0.182417 0.000000
 20 -2.839340 -5.564580 -4.296970 0.104673 0.011817 -0.082324
 21 -3.811070 -2.785450 -1.806430 0.000000 0.000000 0.000000
 22 18.455151 0.440630 8.679390 -0.077302 0.825064 -0.105953
 23 21.943432 -0.878860 -11.911369 0.000000 0.000000 -0.200599
 24 13.133340 0.635550 -6.798010 0.000000 -0.108025 0.000000
 25 3.689260 -4.550930 -4.829990 0.137507 0.000000 0.000000
 26 3.087020 -2.930260 -1.806420 0.000000 0.000000 0.000000
 27 10.169240 0.711430 -6.708540 0.000000 0.351013 0.000000
 28 2.770930 0.042420 -2.816470 0.000000 0.208587 0.000000
 29 -52.850708 -0.361260 -67.170868 1.570802 -0.000018 -0.000537
time 18
  0 1.278131 -1.278131 46.347702 0.000000 0.000000 -0.011837
  1 9.062670 0.286610 -3.406700 -0.134890 -0.021388 -0.027915
  2 4.544490 -1.638600 -20.622749 0.335606 0.018648 0.075131
  3 3.070910 1.647970 -15.136740 -0.199166 -0.013466 -0.030117
  4 -0.361640 -14.308061 -6.406600 0.000000 0.000000 0.000000
  5 -9.522449 0.590440 -3.372560 -0.164672 -0.001831 0.034129
  6 -4.141180 -1.081730 -20.790251 0.387306 0.041508 -0.071680
  7 -3.014440 0.974200 -14.527950 -0.224344 -0.014450 0.059837
  8 0.361640 -14.494990 -6.882030 0.000000 0.000000 0.000000
  9 0.013460 -1.507020 5.475230 -0.015605 0.000000 0.000000
 10 -0.004780 1.092750 22.735540 0.000000 0.000000 0.000000
 11 -0.976790 -3.346690 20.865768 -0.028683 0.000491 -0.032197
 12 0.975190 -4.916450 -4.520320 0.062884 0.000000 0.000000
 13 -2.406500 -8.600220 4.877150 0.000000 0.000000 0.000000
 14 4.381730 -8.600220 5.272540 0.000000 0.000000 0.000000
 15 -18.388140 0.440630 8.679390 -0.045140 -0.741261 0.068892
 16 -21.955891 -0.759690 -12.109390 0.000000 0.000000 0.086438
 17 -13.311041 1.530050 -7.133010 0.000005 0.051816 -0.000010
 18 -9.635210 -0.302230 -6.530870 0.000000 -0.166974 0.000000
 19 -3.126290 0.042420 -2.638810 0.000000 -0.087831 0.000000
 20 -2.839340 -5.564580 -4.296970 0.050391 0.005693 -0.039641
 21 -3.811070 -2.785450 -1.806430 0.000000 0.000000 0.000000
 22 18.455151 0.440630 8.679390 -0.037226 0.832077 -0.050986
 23 21.943432 -0.878860 -11.911369 0.000000 0.000000 -0.096561
 24 13.133340 0.635550 -6.798010 0.000000 -0.051990 0.000000
 25 3.689260 -4.550930 -4.829990 0.066199 0.000000 0.000000
 26 3.087020 -2.930260 -1.806420 0.000000 0.000000 0.000000
 27 10.169240 0.711430 -6.708540 0.000000 0.168984 0.000000
 28 2.770930 0.042420 -2.816470 0.000000 0.100424 0.000000
 29 -52.850708 -0.361260 -67.170868 1.570802 -0.000018 -0.000537
time 19
  0 1.278131 -1.278131 46.347702 0.000000 0.000000 -0.003222
  1 9.062670 0.286610 -3.406700 -0.138788 -0.021593 -0.029006
  2 4.544490 -1.638600 -20.622749 0.335533 0.018648 0.075119
  3 3.070910 1.647970 -15.136740 -0.195161 -0.014856 -0.037420
  4 -0.361640 -14.308061 -6.406600 0.000000 0.000000 0.000000
  5 -9.522449 0.590440 -3.372560 -0.160747 -0.002065 0.033338
  6 -4.141180 -1.081730 -20.790251 0.387670 0.041556 -0.071740
  7 -3.014440 0.974200 -14.527950 -0.228470 -0.016093 0.052244
  8 0.361640 -14.494990 -6.882030 0.000000 0.000000 0.000000
  9 0.013460 -1.507020 5.475230 -0.004192 0.000000 0.000000
 10 -0.004780 1.092750 22.735540 0.000000 0.000000 0.000000
 11 -0.976790 -3.346690 20.865768 -0.021664 0.000036 -0.008731
 12 0.975190 -4.916450 -4.520320 0.016909 0.000000 0.000000
 13 -2.406500 -8.600220 4.877150 0.000000 0.000000 0.000000
 14 4.381730 -8.600220 5.272540 0.000000 0.000000 0.000000
 15 -18.388140 0.440630 8.679390 -0.012097 -0.750130 0.018538
 16 -21.955891 -0.759690 -12.109390 0.000000 0.000000 0.023265
 17 -13.311041 1.530050 -7.133010 0.000005 0.013955 -0.000010
 18 -9.635210 -0.302230 -6.530870 0.000000 -0.044936 0.000000
 19 -3.126290 0.042420 -2.638810 0.000000 -0.023647 0.000000
 20 -2.839340 -5.564580 -4.296970 0.013565 0.001522 -0.010671
 21 -3.811070 -2.785450 -1.806430 0.000000 0.000000 0.000000
 22 18.455151 0.440630 8.679390 -0.009974 0.836841 -0.013712
 23 21.943432 -0.878860 -11.911369 0.000000 0.000000 -0.025987
 24 13.133340 0.635550 -6.798010 0.000000 -0.013975 0.000000
 25 3.689260 -4.550930 -4.829990 0.017817 0.000000 0.000000
 26 3.087020 -2.930260 -1.806420 0.000000 0.000000 0.000000
 27 10.169240 0.711430 -6.708540 0.000000 0.045482 0.000000
 28 2.770930 0.042420 -2.816470 0.000000 0.027013 0.000000
 29 -52.850708 -0.361260 -67.170868 1.570802 -0.000018 -0.000537
time 20
  0 1.278131 -1.278131 46.347702 0.000000 0.000000 -0.000048
  1 9.062670 0.286610 -3.406700 -0.140296 -0.021666 -0.028944
  2 4.544490 -1.638600 -20.622749 0.335533 0.018648 0.075119
  3 3.070910 1.647970 -15.136740 -0.193544 -0.015442 -0.040574
  4 -0.361640 -14.308061 -6.406600 0.000000 0.000000 0.000000
  5 -9.522449 0.590440 -3.372560 -0.159382 -0.002154 0.032713
  6 -4.141180 -1.081730 -20.790251 0.387743 0.041568 -0.071752
  7 -3.014440 0.974200 -14.527950 -0.229889 -0.016619 0.049782
  8 0.361640 -14.494990 -6.882030 0.000000 0.000000 0.000000
  9 0.013460 -1.507020 5.475230 0.000000 0.000000 0.000000
 10 -0.004780 1.092750 22.735540 0.000000 0.000000 0.000000
 11 -0.976790 -3.346690 20.865768 -0.018992 0.000000 0.000000
 12 0.975190 -4.916450 -4.520320 0.000000 0.000000 0.000000
 13 -2.406500 -8.600220 4.877150 0.000000 0.000000 0.000000
 14 4.381730 -8.600220 5.272540 0.000000 0.000000 0.000000
 15 -18.388140 0.440630 8.679390 0.000000 -0.753381 0.000000
 16 -21.955891 -0.759690 -12.109390 0.000000 0.000000 0.000000
 17 -13.311041 1.530050 -7.133010 0.000005 -0.000018 -0.000010
 18 -9.635210 -0.302230 -6.530870 0.000000 0.000000 0.000000
 19 -3.126290 0.042420 -2.638810 0.000000 0.000000 0.000000
 20 -2.839340 -5.564580 -4.296970 0.000000 0.000000 0.000000
 21 -3.811070 -2.785450 -1.806430 0.000000 0.000000 0.000000
 22 18.455151 0.440630 8.679390 0.000000 0.838587 0.000000
 23 21.943432 -0.878860 -11.911369 0.000000 0.000000 0.000000
 24 13.133340 0.635550 -6.798010 0.000000 0.000000 0.000000
 25 3.689260 -4.550930 -4.829990 0.000000 0.000000 0.000000
 26 3.087020 -2.930260 -1.806420 0.000000 0.000000 0.000000
 27 10.169240 0.711430 -6.708540 0.000000 0.000000 0.000000
 28 2.770930 0.042420 -2.816470 0.000000 0.000000 0.000000
 29 -52.850708 -0.361260 -67.170868 1.570802 -0.000018 -0.000537
end
