version 1
nodes
  0 "Hips"  -1
  1 "LLegUpper"   0
  2 "LLegLower"   1
  3 "LFoot"   2
  4 "LToes"   3
  5 "RLegUpper"   0
  6 "RLegLower"   5
  7 "RFoot"   6
  8 "RToes"   7
  9 "BodyLower"   0
 10 "BodyUpper"   9
 11 "Head"  10
 12 "Jaw"  11
 13 "HeadRBrow"  11
 14 "HeadLBrow"  11
 15 "RArm"  10
 16 "RArm2"  15
 17 "RPalm"  16
 18 "RFingStart"  17
 19 "RFingEnd"  18
 20 "RThumbStart"  17
 21 "RThumbEnd"  20
 22 "LArm"  10
 23 "LArm2"  22
 24 "LPalm"  23
 25 "LThumStart"  24
 26 "LThumEnd"  25
 27 "LFingStart"  24
 28 "LFingEnd"  27
 29 "GeoSphere01"   9
end
skeleton
time 0
  0 1.278131 -1.278131 45.957066 0.000000 0.000000 -0.000048
  1 9.062670 0.286610 -3.406700 -0.170912 -0.027908 -0.035363
  2 4.544490 -1.638600 -20.622749 0.410144 0.019307 0.092353
  3 3.070910 1.647970 -15.136740 -0.236704 -0.019004 -0.049245
  4 -0.361640 -14.308061 -6.406600 0.000000 0.000000 0.000000
  5 -9.522449 0.590440 -3.372560 -0.190951 -0.000898 0.039759
  6 -4.141180 -1.081730 -20.790251 0.465291 0.053088 -0.083940
  7 -3.014440 0.974200 -14.527950 -0.276537 -0.019631 0.060303
  8 0.361640 -14.494990 -6.882030 0.000000 0.000000 0.000000
  9 0.013460 -1.507020 5.475230 0.000000 0.000000 0.000000
 10 -0.004780 1.092750 22.735540 0.000000 0.000000 0.000000
 11 -0.976790 -3.346690 20.865768 -0.004396 0.000000 0.000000
 12 0.975190 -4.916450 -4.520320 0.000000 0.000000 0.000000
 13 -2.406500 -8.600220 4.877150 0.000000 0.000000 0.000000
 14 4.381730 -8.600220 5.272540 0.000000 0.000000 0.000000
 15 -18.388140 0.440630 8.679390 0.372384 -0.803428 -0.274083
 16 -21.955891 -0.759690 -12.109390 -0.302054 0.051849 0.337545
 17 -13.311041 1.530050 -7.133010 0.000005 -0.000018 -0.000010
 18 -9.635210 -0.302230 -6.530870 0.000000 0.000000 0.000000
 19 -3.126290 0.042420 -2.638810 0.000000 0.000000 0.000000
 20 -2.839340 -5.564580 -4.296970 0.000000 0.000000 0.000000
 21 -3.811070 -2.785450 -1.806430 0.000000 0.000000 0.000000
 22 18.455151 0.440630 8.679390 0.348810 0.739134 0.240254
 23 21.943432 -0.878860 -11.911369 -0.325275 -0.052115 -0.315161
 24 13.133340 0.635550 -6.798010 0.000000 0.000000 0.000000
 25 3.689260 -4.550930 -4.829990 0.000000 0.000000 0.000000
 26 3.087020 -2.930260 -1.806420 0.000000 0.000000 0.000000
 27 10.169240 0.711430 -6.708540 0.000000 0.000000 0.000000
 28 2.770930 0.042420 -2.816470 0.000000 0.000000 0.000000
 29 -52.850708 -0.361260 -67.170868 1.570802 -0.000018 -0.000537
time 1
  0 1.278131 -1.278131 45.742214 0.000000 0.000000 -0.027782
  1 9.062670 0.286610 -3.406700 -0.181308 -0.030861 -0.037435
  2 4.544490 -1.638600 -20.622749 0.447595 0.019151 0.101030
  3 3.070910 1.647970 -15.136740 -0.263847 -0.014076 -0.027938
  4 -0.361640 -14.308061 -6.406600 0.000000 0.000000 0.000000
  5 -9.522449 0.590440 -3.372560 -0.208982 0.000539 0.043568
  6 -4.141180 -1.081730 -20.790251 0.501810 0.058824 -0.089357
  7 -3.014440 0.974200 -14.527950 -0.295461 -0.018852 0.074116
  8 0.361640 -14.494990 -6.882030 0.000000 0.000000 0.000000
  9 0.013460 -1.507020 5.475230 0.000000 0.000000 0.000000
 10 -0.004780 1.092750 22.735540 -0.003649 0.000000 0.000000
 11 -0.976790 -3.346690 20.865768 -0.012945 -0.000108 0.029469
 12 0.975190 -4.916450 -4.520320 0.015713 0.000000 0.000000
 13 -2.406500 -8.600220 4.877150 0.000000 0.004722 0.000000
 14 4.381730 -8.600220 5.272540 0.000000 -0.005081 0.000000
 15 -18.388140 0.440630 8.679390 0.334157 -0.768922 -0.230856
 16 -21.955891 -0.759690 -12.109390 -0.372254 0.090594 0.383905
 17 -13.311041 1.530050 -7.133010 0.000005 -0.000018 -0.000010
 18 -9.635210 -0.302230 -6.530870 0.000000 -0.029472 0.000000
 19 -3.126290 0.042420 -2.638810 0.000000 -0.021100 0.000000
 20 -2.839340 -5.564580 -4.296970 0.002174 -0.001942 -0.013400
 21 -3.811070 -2.785450 -1.806430 0.000000 0.000000 0.000000
 22 18.455151 0.440630 8.679390 0.453067 0.738898 0.321397
 23 21.943432 -0.878860 -11.911369 -0.325275 -0.052115 -0.315161
 24 13.133340 0.635550 -6.798010 0.000000 0.000000 0.000000
 25 3.689260 -4.550930 -4.829990 0.000000 0.000000 0.000000
 26 3.087020 -2.930260 -1.806420 0.000000 0.000000 0.000000
 27 10.169240 0.711430 -6.708540 0.000000 0.000000 0.000000
 28 2.770930 0.042420 -2.816470 0.000000 0.000000 0.000000
 29 -52.850708 -0.361260 -67.170868 1.570802 -0.000018 -0.000537
time 2
  0 1.278131 -1.278131 45.515644 0.000000 0.000000 -0.103202
  1 9.062670 0.286610 -3.406700 -0.182608 -0.033653 -0.037558
  2 4.544490 -1.638600 -20.622749 0.484248 0.018684 0.109491
  3 3.070910 1.647970 -15.136740 -0.299076 0.006196 0.036238
  4 -0.361640 -14.308061 -6.406600 0.000000 0.000000 0.000000
  5 -9.522449 0.590440 -3.372560 -0.230768 0.004129 0.048094
  6 -4.141180 -1.081730 -20.790251 0.533746 0.064008 -0.093923
  7 -3.014440 0.974200 -14.527950 -0.306196 -0.014955 0.102285
  8 0.361640 -14.494990 -6.882030 0.000000 0.000000 0.000000
  9 0.013460 -1.507020 5.475230 0.000000 0.000000 0.000000
 10 -0.004780 1.092750 22.735540 -0.013585 0.000000 0.000000
 11 -0.976790 -3.346690 20.865768 -0.029533 -0.001474 0.108991
 12 0.975190 -4.916450 -4.520320 0.058599 0.000000 0.000000
 13 -2.406500 -8.600220 4.877150 0.000000 0.017545 0.000000
 14 4.381730 -8.600220 5.272540 0.000000 -0.018912 0.000000
 15 -18.388140 0.440630 8.679390 0.230468 -0.675302 -0.113392
 16 -21.955891 -0.759690 -12.109390 -0.463514 0.171838 0.438927
 17 -13.311041 1.530050 -7.133010 0.000005 -0.000018 -0.000010
 18 -9.635210 -0.302230 -6.530870 0.000000 -0.109592 0.000000
 19 -3.126290 0.042420 -2.638810 0.000000 -0.078476 0.000000
 20 -2.839340 -5.564580 -4.296970 0.008109 -0.007251 -0.049819
 21 -3.811070 -2.785450 -1.806430 0.000000 0.000000 0.000000
 22 18.455151 0.440630 8.679390 0.592116 0.738010 0.430808
 23 21.943432 -0.878860 -11.911369 -0.325275 -0.052115 -0.315161
 24 13.133340 0.635550 -6.798010 0.000000 0.000000 0.000000
 25 3.689260 -4.550930 -4.829990 0.000000 0.000000 0.000000
 26 3.087020 -2.930260 -1.806420 0.000000 0.000000 0.000000
 27 10.169240 0.711430 -6.708540 0.000000 0.000000 0.000000
 28 2.770930 0.042420 -2.816470 0.000000 0.000000 0.000000
 29 -52.850708 -0.361260 -67.170868 1.570802 -0.000018 -0.000537
time 3
  0 1.278131 -1.278131 45.273453 0.000000 0.000000 -0.214217
  1 9.062670 0.286610 -3.406700 -0.175123 -0.037089 -0.036622
  2 4.544490 -1.638600 -20.622749 0.517280 0.018001 0.117101
  3 3.070910 1.647970 -15.136740 -0.336191 0.044838 0.131296
  4 -0.361640 -14.308061 -6.406600 0.000000 0.000000 0.000000
  5 -9.522449 0.590440 -3.372560 -0.254999 0.011705 0.052565
  6 -4.141180 -1.081730 -20.790251 0.558990 0.068208 -0.097423
  7 -3.014440 0.974200 -14.527950 -0.307937 -0.010890 0.141727
  8 0.361640 -14.494990 -6.882030 0.000000 0.000000 0.000000
  9 0.013460 -1.507020 5.475230 0.000000 0.000000 0.000000
 10 -0.004780 1.092750 22.735540 -0.028223 0.000000 0.000000
 11 -0.976790 -3.346690 20.865768 -0.051197 -0.006280 0.224683
 12 0.975190 -4.916450 -4.520320 0.122147 0.000000 0.000000
 13 -2.406500 -8.600220 4.877150 0.000000 0.036457 0.000000
 14 4.381730 -8.600220 5.272540 0.000000 -0.039274 0.000000
 15 -18.388140 0.440630 8.679390 0.077560 -0.537310 0.060068
 16 -21.955891 -0.759690 -12.109390 -0.569139 0.284673 0.499609
 17 -13.311041 1.530050 -7.133010 0.000005 -0.000018 -0.000010
 18 -9.635210 -0.302230 -6.530870 0.000000 -0.227697 0.000000
 19 -3.126290 0.042420 -2.638810 0.000000 -0.163032 0.000000
 20 -2.839340 -5.564580 -4.296970 0.016826 -0.015053 -0.103464
 21 -3.811070 -2.785450 -1.806430 0.000000 0.000000 0.000000
 22 18.455151 0.440630 8.679390 0.755270 0.736294 0.559761
 23 21.943432 -0.878860 -11.911369 -0.325275 -0.052115 -0.315161
 24 13.133340 0.635550 -6.798010 0.000000 0.000000 0.000000
 25 3.689260 -4.550930 -4.829990 0.000000 0.000000 0.000000
 26 3.087020 -2.930260 -1.806420 0.000000 0.000000 0.000000
 27 10.169240 0.711430 -6.708540 0.000000 0.000000 0.000000
 28 2.770930 0.042420 -2.816470 0.000000 0.000000 0.000000
 29 -52.850708 -0.361260 -67.170868 1.570802 -0.000018 -0.000537
time 4
  0 1.278131 -1.278131 45.019535 0.000000 0.000000 -0.349111
  1 9.062670 0.286610 -3.406700 -0.159009 -0.041811 -0.034457
  2 4.544490 -1.638600 -20.622749 0.544082 0.017258 0.123262
  3 3.070910 1.647970 -15.136740 -0.367992 0.101946 0.244647
  4 -0.361640 -14.308061 -6.406600 0.000000 0.000000 0.000000
  5 -9.522449 0.590440 -3.372560 -0.280710 0.024648 0.057477
  6 -4.141180 -1.081730 -20.790251 0.575139 0.070956 -0.099616
  7 -3.014440 0.974200 -14.527950 -0.299587 -0.010532 0.188114
  8 0.361640 -14.494990 -6.882030 0.000000 0.000000 0.000000
  9 0.013460 -1.507020 5.475230 0.000000 0.000000 0.000000
 10 -0.004780 1.092750 22.735540 -0.045990 0.000000 0.000000
 11 -0.976790 -3.346690 20.865768 -0.075800 -0.016335 0.362809
 12 0.975190 -4.916450 -4.520320 0.199847 0.000000 0.000000
 13 -2.406500 -8.600220 4.877150 0.000000 0.059408 0.000000
 14 4.381730 -8.600220 5.272540 0.000000 -0.064010 0.000000
 15 -18.388140 0.440630 8.679390 -0.107976 -0.369747 0.271410
 16 -21.955891 -0.759690 -12.109390 -0.682434 0.418049 0.562725
 17 -13.311041 1.530050 -7.133010 0.000005 -0.000018 -0.000010
 18 -9.635210 -0.302230 -6.530870 0.000000 -0.371018 0.000000
 19 -3.126290 0.042420 -2.638810 0.000000 -0.265675 0.000000
 20 -2.839340 -5.564580 -4.296970 0.027435 -0.024532 -0.168608
 21 -3.811070 -2.785450 -1.806430 0.000000 0.000000 0.000000
 22 18.455151 0.440630 8.679390 0.931664 0.733542 0.699610
 23 21.943432 -0.878860 -11.911369 -0.325275 -0.052115 -0.315161
 24 13.133340 0.635550 -6.798010 0.000000 0.000000 0.000000
 25 3.689260 -4.550930 -4.829990 0.000000 0.000000 0.000000
 26 3.087020 -2.930260 -1.806420 0.000000 0.000000 0.000000
 27 10.169240 0.711430 -6.708540 0.000000 0.000000 0.000000
 28 2.770930 0.042420 -2.816470 0.000000 0.000000 0.000000
 29 -52.850708 -0.361260 -67.170868 1.570802 -0.000018 -0.000537
time 5
  0 1.278131 -1.278131 44.757809 0.000000 0.000000 -0.495871
  1 9.062670 0.286610 -3.406700 -0.134370 -0.047688 -0.031355
  2 4.544490 -1.638600 -20.622749 0.563134 0.016635 0.127636
  3 3.070910 1.647970 -15.136740 -0.388860 0.173715 0.365718
  4 -0.361640 -14.308061 -6.406600 0.000000 0.000000 0.000000
  5 -9.522449 0.590440 -3.372560 -0.308127 0.042780 0.061267
  6 -4.141180 -1.081730 -20.790251 0.580377 0.071856 -0.100311
  7 -3.014440 0.974200 -14.527950 -0.279696 -0.016388 0.238492
  8 0.361640 -14.494990 -6.882030 0.000000 0.000000 0.000000
  9 0.013460 -1.507020 5.475230 0.000000 0.000000 0.000000
 10 -0.004780 1.092750 22.735540 -0.065344 0.000000 0.000000
 11 -0.976790 -3.346690 20.865768 -0.102248 -0.031951 0.510425
 12 0.975190 -4.916450 -4.520320 0.285254 0.000000 0.000000
 13 -2.406500 -8.600220 4.877150 0.000000 0.084395 0.000000
 14 4.381730 -8.600220 5.272540 0.000000 -0.090927 0.000000
 15 -18.388140 0.440630 8.679390 -0.309963 -0.187411 0.502351
 16 -21.955891 -0.759690 -12.109390 -0.796703 0.561023 0.625219
 17 -13.311041 1.530050 -7.133010 0.000005 -0.000018 -0.000010
 18 -9.635210 -0.302230 -6.530870 0.000000 -0.527054 0.000000
 19 -3.126290 0.042420 -2.638810 0.000000 -0.377412 0.000000
 20 -2.839340 -5.564580 -4.296970 0.038978 -0.034851 -0.239523
 21 -3.811070 -2.785450 -1.806430 0.000000 0.000000 0.000000
 22 18.455151 0.440630 8.679390 1.110552 0.729577 0.841752
 23 21.943432 -0.878860 -11.911369 -0.325275 -0.052115 -0.315161
 24 13.133340 0.635550 -6.798010 0.000000 0.000000 0.000000
 25 3.689260 -4.550930 -4.829990 0.000000 0.000000 0.000000
 26 3.087020 -2.930260 -1.806420 0.000000 0.000000 0.000000
 27 10.169240 0.711430 -6.708540 0.000000 0.000000 0.000000
 28 2.770930 0.042420 -2.816470 0.000000 0.000000 0.000000
 29 -52.850708 -0.361260 -67.170868 1.570802 -0.000018 -0.000537
time 6
  0 1.278131 -1.278131 44.484364 0.000000 0.000000 -0.642630
  1 9.062670 0.286610 -3.406700 -0.102402 -0.053755 -0.027931
  2 4.544490 -1.638600 -20.622749 0.574217 0.016227 0.130165
  3 3.070910 1.647970 -15.136740 -0.396175 0.252950 0.486001
  4 -0.361640 -14.308061 -6.406600 0.000000 0.000000 0.000000
  5 -9.522449 0.590440 -3.372560 -0.337307 0.063928 0.063401
  6 -4.141180 -1.081730 -20.790251 0.574266 0.070800 -0.099496
  7 -3.014440 0.974200 -14.527950 -0.248684 -0.029405 0.288274
  8 0.361640 -14.494990 -6.882030 0.000000 0.000000 0.000000
  9 0.013460 -1.507020 5.475230 0.000000 0.000000 0.000000
 10 -0.004780 1.092750 22.735540 -0.084683 0.000000 0.000000
 11 -0.976790 -3.346690 20.865768 -0.129887 -0.051702 0.655525
 12 0.975190 -4.916450 -4.520320 0.371890 0.000000 0.000000
 13 -2.406500 -8.600220 4.877150 0.000000 0.109371 0.000000
 14 4.381730 -8.600220 5.272540 0.000000 -0.117844 0.000000
 15 -18.388140 0.440630 8.679390 -0.511951 -0.005047 0.734649
 16 -21.955891 -0.759690 -12.109390 -0.905253 0.702616 0.683976
 17 -13.311041 1.530050 -7.133010 0.000005 -0.000018 -0.000010
 18 -9.635210 -0.302230 -6.530870 0.000000 -0.683091 0.000000
 19 -3.126290 0.042420 -2.638810 0.000000 -0.489097 0.000000
 20 -2.839340 -5.564580 -4.296970 0.050521 -0.045170 -0.310416
 21 -3.811070 -2.785450 -1.806430 0.000000 0.000000 0.000000
 22 18.455151 0.440630 8.679390 1.281127 0.724221 0.977460
 23 21.943432 -0.878860 -11.911369 -0.325275 -0.052115 -0.315161
 24 13.133340 0.635550 -6.798010 0.000000 0.000000 0.000000
 25 3.689260 -4.550930 -4.829990 0.000000 0.000000 0.000000
 26 3.087020 -2.930260 -1.806420 0.000000 0.000000 0.000000
 27 10.169240 0.711430 -6.708540 0.000000 0.000000 0.000000
 28 2.770930 0.042420 -2.816470 0.000000 0.000000 0.000000
 29 -52.850708 -0.361260 -67.170868 1.570802 -0.000018 -0.000537
time 7
  0 1.278131 -1.278131 44.203106 0.000000 0.000000 -0.777525
  1 9.062670 0.286610 -3.406700 -0.066795 -0.058857 -0.023954
  2 4.544490 -1.638600 -20.622749 0.579505 0.016035 0.131363
  3 3.070910 1.647970 -15.136740 -0.391478 0.330306 0.596640
  4 -0.361640 -14.308061 -6.406600 0.000000 0.000000 0.000000
  5 -9.522449 0.590440 -3.372560 -0.366942 0.084735 0.064634
  6 -4.141180 -1.081730 -20.790251 0.559499 0.068304 -0.097507
  7 -3.014440 0.974200 -14.527950 -0.210578 -0.048320 0.331992
  8 0.361640 -14.494990 -6.882030 0.000000 0.000000 0.000000
  9 0.013460 -1.507020 5.475230 0.000000 0.000000 0.000000
 10 -0.004780 1.092750 22.735540 -0.102450 0.000000 0.000000
 11 -0.976790 -3.346690 20.865768 -0.157574 -0.072687 0.787012
 12 0.975190 -4.916450 -4.520320 0.453244 0.000000 0.000000
 13 -2.406500 -8.600220 4.877150 0.000000 0.132322 0.000000
 14 4.381730 -8.600220 5.272540 0.000000 -0.142569 0.000000
 15 -18.388140 0.440630 8.679390 -0.697555 0.162488 0.950106
 16 -21.955891 -0.759690 -12.109390 -1.001323 0.831849 0.735941
 17 -13.311041 1.530050 -7.133010 0.000005 -0.000018 -0.000010
 18 -9.635210 -0.302230 -6.530870 0.000000 -0.826412 0.000000
 19 -3.126290 0.042420 -2.638810 0.000000 -0.591739 0.000000
 20 -2.839340 -5.564580 -4.296970 0.061130 -0.054650 -0.375559
 21 -3.811070 -2.785450 -1.806430 0.000000 0.000000 0.000000
 22 18.455151 0.440630 8.679390 1.432526 0.717237 1.098090
 23 21.943432 -0.878860 -11.911369 -0.325275 -0.052115 -0.315161
 24 13.133340 0.635550 -6.798010 0.000000 0.000000 0.000000
 25 3.689260 -4.550930 -4.829990 0.000000 0.000000 0.000000
 26 3.087020 -2.930260 -1.806420 0.000000 0.000000 0.000000
 27 10.169240 0.711430 -6.708540 0.000000 0.000000 0.000000
 28 2.770930 0.042420 -2.816470 0.000000 0.000000 0.000000
 29 -52.850708 -0.361260 -67.170868 1.570802 -0.000018 -0.000537
time 8
  0 1.278131 -1.278131 43.914036 0.000000 0.000000 -0.888615
  1 9.062670 0.286610 -3.406700 -0.034099 -0.062453 -0.020176
  2 4.544490 -1.638600 -20.622749 0.583996 0.015856 0.132394
  3 3.070910 1.647970 -15.136740 -0.381006 0.397391 0.687687
  4 -0.361640 -14.308061 -6.406600 0.000000 0.000000 0.000000
  5 -9.522449 0.590440 -3.372560 -0.395781 0.101825 0.064119
  6 -4.141180 -1.081730 -20.790251 0.544076 0.065724 -0.095373
  7 -3.014440 0.974200 -14.527950 -0.173537 -0.068352 0.367417
  8 0.361640 -14.494990 -6.882030 0.000000 0.000000 0.000000
  9 0.013460 -1.507020 5.475230 0.000000 0.000000 0.000000
 10 -0.004780 1.092750 22.735540 -0.117088 0.000000 0.000000
 11 -0.976790 -3.346690 20.865768 -0.183003 -0.091466 0.894305
 12 0.975190 -4.916450 -4.520320 0.522871 0.000000 0.000000
 13 -2.406500 -8.600220 4.877150 0.000000 0.151234 0.000000
 14 4.381730 -8.600220 5.272540 0.000000 -0.162942 0.000000
 15 -18.388140 0.440630 8.679390 -0.850463 0.300480 1.130523
 16 -21.955891 -0.759690 -12.109390 -1.078283 0.937778 0.777886
 17 -13.311041 1.530050 -7.133010 0.000005 -0.000018 -0.000010
 18 -9.635210 -0.302230 -6.530870 0.000000 -0.944516 0.000000
 19 -3.126290 0.042420 -2.638810 0.000000 -0.676296 0.000000
 20 -2.839340 -5.564580 -4.296970 0.069869 -0.062464 -0.429226
 21 -3.811070 -2.785450 -1.806430 0.000000 0.000000 0.000000
 22 18.455151 0.440630 8.679390 1.554060 0.708449 1.194955
 23 21.943432 -0.878860 -11.911369 -0.325275 -0.052115 -0.315161
 24 13.133340 0.635550 -6.798010 0.000000 0.000000 0.000000
 25 3.689260 -4.550930 -4.829990 0.000000 0.000000 0.000000
 26 3.087020 -2.930260 -1.806420 0.000000 0.000000 0.000000
 27 10.169240 0.711430 -6.708540 0.000000 0.000000 0.000000
 28 2.770930 0.042420 -2.816470 0.000000 0.000000 0.000000
 29 -52.850708 -0.361260 -67.170868 1.570802 -0.000018 -0.000537
time 9
  0 1.278131 -1.278131 43.621056 0.000000 0.000000 -0.963959
  1 9.062670 0.286610 -3.406700 -0.012995 -0.064997 -0.018487
  2 4.544490 -1.638600 -20.622749 0.595876 0.015364 0.135102
  3 3.070910 1.647970 -15.136740 -0.374730 0.448303 0.747017
  4 -0.361640 -14.308061 -6.406600 0.000000 0.000000 0.000000
  5 -9.522449 0.590440 -3.372560 -0.421890 0.113710 0.064616
  6 -4.141180 -1.081730 -20.790251 0.541894 0.065352 -0.095062
  7 -3.014440 0.974200 -14.527950 -0.151099 -0.083138 0.391828
  8 0.361640 -14.494990 -6.882030 0.000000 0.000000 0.000000
  9 0.013460 -1.507020 5.475230 0.000000 0.000000 0.000000
 10 -0.004780 1.092750 22.735540 -0.127024 0.000000 0.000000
 11 -0.976790 -3.346690 20.865768 -0.202651 -0.104733 0.966764
 12 0.975190 -4.916450 -4.520320 0.574228 0.000000 0.000000
 13 -2.406500 -8.600220 4.877150 0.000000 0.164057 0.000000
 14 4.381730 -8.600220 5.272540 0.000000 -0.176761 0.000000
 15 -18.388140 0.440630 8.679390 -0.954153 0.394100 1.257574
 16 -21.955891 -0.759690 -12.109390 -1.129373 1.009353 0.806812
 17 -13.311041 1.530050 -7.133010 0.000005 -0.000018 -0.000010
 18 -9.635210 -0.302230 -6.530870 0.000000 -1.024636 0.000000
 19 -3.126290 0.042420 -2.638810 0.000000 -0.733672 0.000000
 20 -2.839340 -5.564580 -4.296970 0.075782 -0.067761 -0.465623
 21 -3.811070 -2.785450 -1.806430 0.000000 0.000000 0.000000
 22 18.455151 0.440630 8.679390 1.634924 0.697678 1.259452
 23 21.943432 -0.878860 -11.911369 -0.325275 -0.052115 -0.315161
 24 13.133340 0.635550 -6.798010 0.000000 0.000000 0.000000
 25 3.689260 -4.550930 -4.829990 0.000000 0.000000 0.000000
 26 3.087020 -2.930260 -1.806420 0.000000 0.000000 0.000000
 27 10.169240 0.711430 -6.708540 0.000000 0.000000 0.000000
 28 2.770930 0.042420 -2.816470 0.000000 0.000000 0.000000
 29 -52.850708 -0.361260 -67.170868 1.570802 -0.000018 -0.000537
time 10
  0 1.278131 -1.278131 43.320267 0.000000 0.000000 -0.991769
  1 9.062670 0.286610 -3.406700 -0.012943 -0.067950 -0.020038
  2 4.544490 -1.638600 -20.622749 0.624054 0.014082 0.141502
  3 3.070910 1.647970 -15.136740 -0.383816 0.477992 0.759676
  4 -0.361640 -14.308061 -6.406600 0.000000 0.000000 0.000000
  5 -9.522449 0.590440 -3.372560 -0.444187 0.119867 0.066731
  6 -4.141180 -1.081730 -20.790251 0.568592 0.069840 -0.098729
  7 -3.014440 0.974200 -14.527950 -0.157579 -0.085308 0.406004
  8 0.361640 -14.494990 -6.882030 0.000000 0.000000 0.000000
  9 0.013460 -1.507020 5.475230 0.000000 0.000000 0.000000
 10 -0.004780 1.092750 22.735540 -0.130687 0.000000 0.000000
 11 -0.976790 -3.346690 20.865768 -0.212585 -0.109683 0.993383
 12 0.975190 -4.916450 -4.520320 0.600870 0.000000 0.000000
 13 -2.406500 -8.600220 4.877150 0.000000 0.168791 0.000000
 14 4.381730 -8.600220 5.272540 0.000000 -0.181854 0.000000
 15 -18.388140 0.440630 8.679390 -0.992380 0.428605 1.313146
 16 -21.955891 -0.759690 -12.109390 -1.147898 1.035667 0.819549
 17 -13.311041 1.530050 -7.133010 0.000005 -0.000018 -0.000010
 18 -9.635210 -0.302230 -6.530870 0.000000 -1.054108 0.000000
 19 -3.126290 0.042420 -2.638810 0.000000 -0.754824 0.000000
 20 -2.839340 -5.564580 -4.296970 0.077978 -0.069714 -0.479046
 21 -3.811070 -2.785450 -1.806430 0.000000 0.000000 0.000000
 22 18.455151 0.440630 8.679390 1.664254 0.684718 1.282854
 23 21.943432 -0.878860 -11.911369 -0.325275 -0.052115 -0.315161
 24 13.133340 0.635550 -6.798010 0.000000 0.000000 0.000000
 25 3.689260 -4.550930 -4.829990 0.000000 0.000000 0.000000
 26 3.087020 -2.930260 -1.806420 0.000000 0.000000 0.000000
 27 10.169240 0.711430 -6.708540 0.000000 0.000000 0.000000
 28 2.770930 0.042420 -2.816470 0.000000 0.000000 0.000000
 29 -52.850708 -0.361260 -67.170868 1.570802 -0.000018 -0.000537
time 11
  0 1.278131 -1.278131 42.980412 0.008149 0.000000 -0.946351
  1 9.062670 0.286610 -3.406700 -0.063572 -0.083870 -0.031478
  2 4.544490 -1.638600 -20.622749 0.679034 0.011050 0.153858
  3 3.070910 1.647970 -15.136740 -0.406262 0.474406 0.705701
  4 -0.361640 -14.308061 -6.406600 0.000000 0.000000 0.000000
  5 -9.522449 0.590440 -3.372560 -0.452037 0.131482 0.068700
  6 -4.141180 -1.081730 -20.790251 0.630791 0.080640 -0.106807
  7 -3.014440 0.974200 -14.527950 -0.216736 -0.084802 0.378120
  8 0.361640 -14.494990 -6.882030 0.000000 0.000000 0.000000
  9 0.013460 -1.507020 5.475230 0.000000 0.000000 0.000000
 10 -0.004780 1.092750 22.735540 -0.127024 0.000000 0.000000
 11 -0.976790 -3.346690 20.865768 -0.214600 -0.097375 0.957790
 12 0.975190 -4.916450 -4.520320 0.611932 0.000000 0.000000
 13 -2.406500 -8.600220 4.877150 0.000000 0.168791 0.000000
 14 4.381730 -8.600220 5.272540 0.000000 -0.181854 0.000000
 15 -18.388140 0.440630 8.679390 -0.973785 0.420877 1.325745
 16 -21.955891 -0.759690 -12.109390 -1.122483 1.015728 0.822889
 17 -13.311041 1.530050 -7.133010 0.000005 -0.000018 -0.000010
 18 -9.635210 -0.302230 -6.530870 0.000000 -1.054108 0.000000
 19 -3.126290 0.042420 -2.638810 0.000000 -0.754824 0.000000
 20 -2.839340 -5.564580 -4.296970 0.077978 -0.069714 -0.479046
 21 -3.811070 -2.785450 -1.806430 0.000000 0.000000 0.000000
 22 18.455151 0.440630 8.679390 1.642762 0.666875 1.274651
 23 21.943432 -0.878860 -11.911369 -0.325275 -0.052115 -0.315161
 24 13.133340 0.635550 -6.798010 0.000000 0.000000 0.000000
 25 3.689260 -4.550930 -4.829990 0.000000 0.000000 0.000000
 26 3.087020 -2.930260 -1.806420 0.000000 0.000000 0.000000
 27 10.169240 0.711430 -6.708540 0.000000 0.000000 0.000000
 28 2.770930 0.042420 -2.816470 0.000000 0.000000 0.000000
 29 -52.850708 -0.361260 -67.170868 1.570802 -0.000018 -0.000537
time 12
  0 1.278131 -1.278131 42.581963 0.030281 0.000000 -0.823170
  1 9.062670 0.286610 -3.406700 -0.177930 -0.118342 -0.050088
  2 4.544490 -1.638600 -20.622749 0.751110 0.006040 0.169810
  3 3.070910 1.647970 -15.136740 -0.423472 0.426275 0.590681
  4 -0.361640 -14.308061 -6.406600 0.000000 0.000000 0.000000
  5 -9.522449 0.590440 -3.372560 -0.430991 0.150907 0.069436
  6 -4.141180 -1.081730 -20.790251 0.710086 0.095112 -0.116095
  7 -3.014440 0.974200 -14.527950 -0.329085 -0.107067 0.287315
  8 0.361640 -14.494990 -6.882030 0.000000 0.000000 0.000000
  9 0.013460 -1.507020 5.475230 0.000000 0.000000 0.000000
 10 -0.004780 1.092750 22.735540 -0.117088 0.000000 0.000000
 11 -0.976790 -3.346690 20.865768 -0.217855 -0.065831 0.859440
 12 0.975190 -4.916450 -4.520320 0.621034 0.000000 0.000000
 13 -2.406500 -8.600220 4.877150 0.000000 0.168791 0.000000
 14 4.381730 -8.600220 5.272540 0.000000 -0.181854 0.000000
 15 -18.388140 0.440630 8.679390 -0.922286 0.399033 1.336223
 16 -21.955891 -0.759690 -12.109390 -1.053518 0.961117 0.825662
 17 -13.311041 1.530050 -7.133010 0.000005 -0.000018 -0.000010
 18 -9.635210 -0.302230 -6.530870 0.000000 -1.054108 0.000000
 19 -3.126290 0.042420 -2.638810 0.000000 -0.754824 0.000000
 20 -2.839340 -5.564580 -4.296970 0.077978 -0.069714 -0.479046
 21 -3.811070 -2.785450 -1.806430 0.000000 0.000000 0.000000
 22 18.455151 0.440630 8.679390 1.583568 0.642877 1.251611
 23 21.943432 -0.878860 -11.911369 -0.325275 -0.052115 -0.315161
 24 13.133340 0.635550 -6.798010 0.000000 0.000000 0.000000
 25 3.689260 -4.550930 -4.829990 0.000000 0.000000 0.000000
 26 3.087020 -2.930260 -1.806420 0.000000 0.000000 0.000000
 27 10.169240 0.711430 -6.708540 0.000000 0.000000 0.000000
 28 2.770930 0.042420 -2.816470 0.000000 0.000000 0.000000
 29 -52.850708 -0.361260 -67.170868 1.570802 -0.000018 -0.000537
time 13
  0 1.278131 -1.278131 42.144447 0.062877 0.000000 -0.641648
  1 9.062670 0.286610 -3.406700 -0.339018 -0.156060 -0.066349
  2 4.544490 -1.638600 -20.622749 0.815290 0.000623 0.183688
  3 3.070910 1.647970 -15.136740 -0.414040 0.334233 0.443249
  4 -0.361640 -14.308061 -6.406600 0.000000 0.000000 0.000000
  5 -9.522449 0.590440 -3.372560 -0.374962 0.158770 0.071037
  6 -4.141180 -1.081730 -20.790251 0.780650 0.108576 -0.123381
  7 -3.014440 0.974200 -14.527950 -0.466805 -0.169078 0.150823
  8 0.361640 -14.494990 -6.882030 0.000000 0.000000 0.000000
  9 0.013460 -1.507020 5.475230 0.000000 0.000000 0.000000
 10 -0.004780 1.092750 22.735540 -0.102450 0.000000 0.000000
 11 -0.976790 -3.346690 20.865768 -0.231601 -0.025743 0.708489
 12 0.975190 -4.916450 -4.520320 0.628343 0.000000 0.000000
 13 -2.406500 -8.600220 4.877150 0.000000 0.168791 0.000000
 14 4.381730 -8.600220 5.272540 0.000000 -0.181854 0.000000
 15 -18.388140 0.440630 8.679390 -0.844518 0.365041 1.344707
 16 -21.955891 -0.759690 -12.109390 -0.951858 0.879377 0.827870
 17 -13.311041 1.530050 -7.133010 0.000005 -0.000018 -0.000010
 18 -9.635210 -0.302230 -6.530870 0.000000 -1.054108 0.000000
 19 -3.126290 0.042420 -2.638810 0.000000 -0.754824 0.000000
 20 -2.839340 -5.564580 -4.296970 0.077978 -0.069714 -0.479046
 21 -3.811070 -2.785450 -1.806430 0.000000 0.000000 0.000000
 22 18.455151 0.440630 8.679390 1.494391 0.614648 1.216186
 23 21.943432 -0.878860 -11.911369 -0.325275 -0.052115 -0.315161
 24 13.133340 0.635550 -6.798010 0.000000 0.000000 0.000000
 25 3.689260 -4.550930 -4.829990 0.000000 0.000000 0.000000
 26 3.087020 -2.930260 -1.806420 0.000000 0.000000 0.000000
 27 10.169240 0.711430 -6.708540 0.000000 0.000000 0.000000
 28 2.770930 0.042420 -2.816470 0.000000 0.000000 0.000000
 29 -52.850708 -0.361260 -67.170868 1.570802 -0.000018 -0.000537
time 14
  0 1.278131 -1.278131 41.695217 0.102493 0.000000 -0.421206
  1 9.062670 0.286610 -3.406700 -0.526408 -0.177871 -0.077420
  2 4.544490 -1.638600 -20.622749 0.850930 -0.002756 0.191250
  3 3.070910 1.647970 -15.136740 -0.359638 0.211918 0.283018
  4 -0.361640 -14.308061 -6.406600 0.000000 0.000000 0.000000
  5 -9.522449 0.590440 -3.372560 -0.289925 0.135360 0.069105
  6 -4.141180 -1.081730 -20.790251 0.822698 0.116820 -0.127276
  7 -3.014440 0.974200 -14.527950 -0.597853 -0.272311 -0.011636
  8 0.361640 -14.494990 -6.882030 0.000000 0.000000 0.000000
  9 0.013460 -1.507020 5.475230 0.000000 0.000000 0.000000
 10 -0.004780 1.092750 22.735540 -0.084683 0.000000 0.000000
 11 -0.976790 -3.346690 20.865768 -0.262106 0.008737 0.512881
 12 0.975190 -4.916450 -4.520320 0.634023 0.000000 0.000000
 13 -2.406500 -8.600220 4.877150 0.000000 0.168791 0.000000
 14 4.381730 -8.600220 5.272540 0.000000 -0.181854 0.000000
 15 -18.388140 0.440630 8.679390 -0.746843 0.320898 1.351452
 16 -21.955891 -0.759690 -12.109390 -0.828423 0.778229 0.829681
 17 -13.311041 1.530050 -7.133010 0.000005 -0.000018 -0.000010
 18 -9.635210 -0.302230 -6.530870 0.000000 -1.054108 0.000000
 19 -3.126290 0.042420 -2.638810 0.000000 -0.754824 0.000000
 20 -2.839340 -5.564580 -4.296970 0.077978 -0.069714 -0.479046
 21 -3.811070 -2.785450 -1.806430 0.000000 0.000000 0.000000
 22 18.455151 0.440630 8.679390 1.383069 0.584022 1.170709
 23 21.943432 -0.878860 -11.911369 -0.325275 -0.052115 -0.315161
 24 13.133340 0.635550 -6.798010 0.000000 0.000000 0.000000
 25 3.689260 -4.550930 -4.829990 0.000000 0.000000 0.000000
 26 3.087020 -2.930260 -1.806420 0.000000 0.000000 0.000000
 27 10.169240 0.711430 -6.708540 0.000000 0.000000 0.000000
 28 2.770930 0.042420 -2.816470 0.000000 0.000000 0.000000
 29 -52.850708 -0.361260 -67.170868 1.570802 -0.000018 -0.000537
time 15
  0 1.278131 -1.278131 41.249889 0.145571 0.000000 -0.181343
  1 9.062670 0.286610 -3.406700 -0.712031 -0.171424 -0.095308
  2 4.544490 -1.638600 -20.622749 0.846584 -0.002325 0.190327
  3 3.070910 1.647970 -15.136740 -0.255377 0.088041 0.120074
  4 -0.361640 -14.308061 -6.406600 0.000000 0.000000 0.000000
  5 -9.522449 0.590440 -3.372560 -0.193795 0.073120 0.053153
  6 -4.141180 -1.081730 -20.790251 0.824953 0.117276 -0.127468
  7 -3.014440 0.974200 -14.527950 -0.695211 -0.397219 -0.184978
  8 0.361640 -14.494990 -6.882030 0.000000 0.000000 0.000000
  9 0.013460 -1.507020 5.475230 0.000000 0.000000 0.000000
 10 -0.004780 1.092750 22.735540 -0.065344 0.000000 0.000000
 11 -0.976790 -3.346690 20.865768 -0.307571 0.022351 0.281771
 12 0.975190 -4.916450 -4.520320 0.638342 0.000000 0.000000
 13 -2.406500 -8.600220 4.877150 0.000000 0.168791 0.000000
 14 4.381730 -8.600220 5.272540 0.000000 -0.181854 0.000000
 15 -18.388140 0.440630 8.679390 -0.635826 0.268598 1.356585
 16 -21.955891 -0.759690 -12.109390 -0.694134 0.665323 0.831040
 17 -13.311041 1.530050 -7.133010 0.000005 -0.000018 -0.000010
 18 -9.635210 -0.302230 -6.530870 0.000000 -1.054108 0.000000
 19 -3.126290 0.042420 -2.638810 0.000000 -0.754824 0.000000
 20 -2.839340 -5.564580 -4.296970 0.077978 -0.069714 -0.479046
 21 -3.811070 -2.785450 -1.806430 0.000000 0.000000 0.000000
 22 18.455151 0.440630 8.679390 1.257319 0.552953 1.117632
 23 21.943432 -0.878860 -11.911369 -0.325275 -0.052115 -0.315161
 24 13.133340 0.635550 -6.798010 0.000000 0.000000 0.000000
 25 3.689260 -4.550930 -4.829990 0.000000 0.000000 0.000000
 26 3.087020 -2.930260 -1.806420 0.000000 0.000000 0.000000
 27 10.169240 0.711430 -6.708540 0.000000 0.000000 0.000000
 28 2.770930 0.042420 -2.816470 0.000000 0.000000 0.000000
 29 -52.850708 -0.361260 -67.170868 1.570802 -0.000018 -0.000537
time 16
  0 1.278131 -1.278131 40.835815 0.188669 0.000000 0.058520
  1 9.062670 0.286610 -3.406700 -0.868128 -0.141923 -0.134602
  2 4.544490 -1.638600 -20.622749 0.801962 0.001822 0.180835
  3 3.070910 1.647970 -15.136740 -0.113809 -0.006001 -0.038556
  4 -0.361640 -14.308061 -6.406600 0.000000 0.000000 0.000000
  5 -9.522449 0.590440 -3.372560 -0.103922 -0.018168 0.018619
  6 -4.141180 -1.081730 -20.790251 0.786397 0.109680 -0.123933
  7 -3.014440 0.974200 -14.527950 -0.745986 -0.515407 -0.361690
  8 0.361640 -14.494990 -6.882030 0.000000 0.000000 0.000000
  9 0.013460 -1.507020 5.475230 0.000000 0.000000 0.000000
 10 -0.004780 1.092750 22.735540 -0.045990 0.000000 0.000000
 11 -0.976790 -3.346690 20.865768 -0.356121 0.004422 0.030833
 12 0.975190 -4.916450 -4.520320 0.641398 0.000000 0.000000
 13 -2.406500 -8.600220 4.877150 0.000000 0.168791 0.000000
 14 4.381730 -8.600220 5.272540 0.000000 -0.181854 0.000000
 15 -18.388140 0.440630 8.679390 -0.517965 0.210168 1.360403
 16 -21.955891 -0.759690 -12.109390 -0.559844 0.548274 0.832059
 17 -13.311041 1.530050 -7.133010 0.000005 -0.000018 -0.000010
 18 -9.635210 -0.302230 -6.530870 0.000000 -1.054108 0.000000
 19 -3.126290 0.042420 -2.638810 0.000000 -0.754824 0.000000
 20 -2.839340 -5.564580 -4.296970 0.077978 -0.069714 -0.479046
 21 -3.811070 -2.785450 -1.806430 0.000000 0.000000 0.000000
 22 18.455151 0.440630 8.679390 1.125038 0.523274 1.059327
 23 21.943432 -0.878860 -11.911369 -0.325275 -0.052115 -0.315161
 24 13.133340 0.635550 -6.798010 0.000000 0.000000 0.000000
 25 3.689260 -4.550930 -4.829990 0.000000 0.000000 0.000000
 26 3.087020 -2.930260 -1.806420 0.000000 0.000000 0.000000
 27 10.169240 0.711430 -6.708540 0.000000 0.000000 0.000000
 28 2.770930 0.042420 -2.816470 0.000000 0.000000 0.000000
 29 -52.850708 -0.361260 -67.170868 1.570802 -0.000018 -0.000537
time 17
  0 1.278131 -1.278131 40.472523 0.228266 0.000000 0.278961
  1 9.062670 0.286610 -3.406700 -0.980718 -0.104220 -0.193273
  2 4.544490 -1.638600 -20.622749 0.728003 0.007766 0.164728
  3 3.070910 1.647970 -15.136740 0.039464 -0.054449 -0.183787
  4 -0.361640 -14.308061 -6.406600 0.000000 0.000000 0.000000
  5 -9.522449 0.590440 -3.372560 -0.028213 -0.119059 -0.026917
  6 -4.141180 -1.081730 -20.790251 0.715905 0.096204 -0.116730
  7 -3.014440 0.974200 -14.527950 -0.753594 -0.605434 -0.534955
  8 0.361640 -14.494990 -6.882030 0.000000 0.000000 0.000000
  9 0.013460 -1.507020 5.475230 0.000000 0.000000 0.000000
 10 -0.004780 1.092750 22.735540 -0.028223 0.000000 0.000000
 11 -0.976790 -3.346690 20.865768 -0.391264 -0.043288 -0.215284
 12 0.975190 -4.916450 -4.520320 0.643491 0.000000 0.000000
 13 -2.406500 -8.600220 4.877150 0.000000 0.168791 0.000000
 14 4.381730 -8.600220 5.272540 0.000000 -0.181854 0.000000
 15 -18.388140 0.440630 8.679390 -0.399828 0.147545 1.362991
 16 -21.955891 -0.759690 -12.109390 -0.436409 0.434730 0.832738
 17 -13.311041 1.530050 -7.133010 0.000005 -0.000018 -0.000010
 18 -9.635210 -0.302230 -6.530870 0.000000 -1.054108 0.000000
 19 -3.126290 0.042420 -2.638810 0.000000 -0.754824 0.000000
 20 -2.839340 -5.564580 -4.296970 0.077978 -0.069714 -0.479046
 21 -3.811070 -2.785450 -1.806430 0.000000 0.000000 0.000000
 22 18.455151 0.440630 8.679390 0.994005 0.496879 0.998249
 23 21.943432 -0.878860 -11.911369 -0.325275 -0.052115 -0.315161
 24 13.133340 0.635550 -6.798010 0.000000 0.000000 0.000000
 25 3.689260 -4.550930 -4.829990 0.000000 0.000000 0.000000
 26 3.087020 -2.930260 -1.806420 0.000000 0.000000 0.000000
 27 10.169240 0.711430 -6.708540 0.000000 0.000000 0.000000
 28 2.770930 0.042420 -2.816470 0.000000 0.000000 0.000000
 29 -52.850708 -0.361260 -67.170868 1.570802 -0.000018 -0.000537
time 18
  0 1.278131 -1.278131 40.187359 0.260880 0.000000 0.460483
  1 9.062670 0.286610 -3.406700 -1.049645 -0.071575 -0.257258
  2 4.544490 -1.638600 -20.622749 0.643974 0.013051 0.145996
  3 3.070910 1.647970 -15.136740 0.174794 -0.061890 -0.300314
  4 -0.361640 -14.308061 -6.406600 0.000000 0.000000 0.000000
  5 -9.522449 0.590440 -3.372560 0.031057 -0.210221 -0.069362
  6 -4.141180 -1.081730 -20.790251 0.631446 0.080760 -0.106879
  7 -3.014440 0.974200 -14.527950 -0.734123 -0.660115 -0.690986
  8 0.361640 -14.494990 -6.882030 0.000000 0.000000 0.000000
  9 0.013460 -1.507020 5.475230 0.000000 0.000000 0.000000
 10 -0.004780 1.092750 22.735540 -0.013585 0.000000 0.000000
 11 -0.976790 -3.346690 20.865768 -0.404015 -0.104086 -0.426628
 12 0.975190 -4.916450 -4.520320 0.644720 0.000000 0.000000
 13 -2.406500 -8.600220 4.877150 0.000000 0.168791 0.000000
 14 4.381730 -8.600220 5.272540 0.000000 -0.181854 0.000000
 15 -18.388140 0.440630 8.679390 -0.287912 0.082755 1.364645
 16 -21.955891 -0.759690 -12.109390 -0.334814 0.332378 0.833191
 17 -13.311041 1.530050 -7.133010 0.000005 -0.000018 -0.000010
 18 -9.635210 -0.302230 -6.530870 0.000000 -1.054108 0.000000
 19 -3.126290 0.042420 -2.638810 0.000000 -0.754824 0.000000
 20 -2.839340 -5.564580 -4.296970 0.077978 -0.069714 -0.479046
 21 -3.811070 -2.785450 -1.806430 0.000000 0.000000 0.000000
 22 18.455151 0.440630 8.679390 0.871936 0.475722 0.936728
 23 21.943432 -0.878860 -11.911369 -0.325275 -0.052115 -0.315161
 24 13.133340 0.635550 -6.798010 0.000000 0.000000 0.000000
 25 3.689260 -4.550930 -4.829990 0.000000 0.000000 0.000000
 26 3.087020 -2.930260 -1.806420 0.000000 0.000000 0.000000
 27 10.169240 0.711430 -6.708540 0.000000 0.000000 0.000000
 28 2.770930 0.042420 -2.816470 0.000000 0.000000 0.000000
 29 -52.850708 -0.361260 -67.170868 1.570802 -0.000018 -0.000537
time 19
  0 1.278131 -1.278131 39.999851 0.283013 0.000000 0.583665
  1 9.062670 0.286610 -3.406700 -1.083744 -0.050158 -0.307392
  2 4.544490 -1.638600 -20.622749 0.574651 0.016215 0.130261
  3 3.070910 1.647970 -15.136740 0.268275 -0.049204 -0.375943
  4 -0.361640 -14.308061 -6.406600 0.000000 0.000000 0.000000
  5 -9.522449 0.590440 -3.372560 0.071045 -0.274993 -0.098175
  6 -4.141180 -1.081730 -20.790251 0.558626 0.068148 -0.097375
  7 -3.014440 0.974200 -14.527950 -0.709589 -0.684465 -0.805373
  8 0.361640 -14.494990 -6.882030 0.000000 0.000000 0.000000
  9 0.013460 -1.507020 5.475230 0.000000 0.000000 0.000000
 10 -0.004780 1.092750 22.735540 -0.003649 0.000000 0.000000
 11 -0.976790 -3.346690 20.865768 -0.400688 -0.154326 -0.573182
 12 0.975190 -4.916450 -4.520320 0.645318 0.000000 0.000000
 13 -2.406500 -8.600220 4.877150 0.000000 0.168791 0.000000
 14 4.381730 -8.600220 5.272540 0.000000 -0.181854 0.000000
 15 -18.388140 0.440630 8.679390 -0.188646 0.017794 1.365451
 16 -21.955891 -0.759690 -12.109390 -0.265850 0.248832 0.833417
 17 -13.311041 1.530050 -7.133010 0.000005 -0.000018 -0.000010
 18 -9.635210 -0.302230 -6.530870 0.000000 -1.054108 0.000000
 19 -3.126290 0.042420 -2.638810 0.000000 -0.754824 0.000000
 20 -2.839340 -5.564580 -4.296970 0.077978 -0.069714 -0.479046
 21 -3.811070 -2.785450 -1.806430 0.000000 0.000000 0.000000
 22 18.455151 0.440630 8.679390 0.766670 0.461608 0.877177
 23 21.943432 -0.878860 -11.911369 -0.325275 -0.052115 -0.315161
 24 13.133340 0.635550 -6.798010 0.000000 0.000000 0.000000
 25 3.689260 -4.550930 -4.829990 0.000000 0.000000 0.000000
 26 3.087020 -2.930260 -1.806420 0.000000 0.000000 0.000000
 27 10.169240 0.711430 -6.708540 0.000000 0.000000 0.000000
 28 2.770930 0.042420 -2.816470 0.000000 0.000000 0.000000
 29 -52.850708 -0.361260 -67.170868 1.570802 -0.000018 -0.000537
time 20
  0 1.278131 -1.278131 39.929539 0.291162 0.000000 0.629007
  1 9.062670 0.286610 -3.406700 -1.093724 -0.042089 -0.326616
  2 4.544490 -1.638600 -20.622749 0.546328 0.017198 0.123777
  3 3.070910 1.647970 -15.136740 0.302887 -0.040934 -0.403324
  4 -0.361640 -14.308061 -6.406600 0.000000 0.000000 0.000000
  5 -9.522449 0.590440 -3.372560 0.086062 -0.299264 -0.108662
  6 -4.141180 -1.081730 -20.790251 0.527927 0.063060 -0.093108
  7 -3.014440 0.974200 -14.527950 -0.698629 -0.690215 -0.849169
  8 0.361640 -14.494990 -6.882030 0.000000 0.000000 0.000000
  9 0.013460 -1.507020 5.475230 0.000000 0.000000 0.000000
 10 -0.004780 1.092750 22.735540 0.000000 0.000000 0.000000
 11 -0.976790 -3.346690 20.865768 -0.396632 -0.174208 -0.627663
 12 0.975190 -4.916450 -4.520320 0.645484 0.000000 0.000000
 13 -2.406500 -8.600220 4.877150 0.000000 0.168791 0.000000
 14 4.381730 -8.600220 5.272540 0.000000 -0.181854 0.000000
 15 -18.388140 0.440630 8.679390 -0.108598 -0.045370 1.365706
 16 -21.955891 -0.759690 -12.109390 -0.240435 0.191742 0.833474
 17 -13.311041 1.530050 -7.133010 0.000005 -0.000018 -0.000010
 18 -9.635210 -0.302230 -6.530870 0.000000 -1.054108 0.000000
 19 -3.126290 0.042420 -2.638810 0.000000 -0.754824 0.000000
 20 -2.839340 -5.564580 -4.296970 0.077978 -0.069714 -0.479046
 21 -3.811070 -2.785450 -1.806430 0.000000 0.000000 0.000000
 22 18.455151 0.440630 8.679390 0.685983 0.456488 0.822049
 23 21.943432 -0.878860 -11.911369 -0.325275 -0.052115 -0.315161
 24 13.133340 0.635550 -6.798010 0.000000 0.000000 0.000000
 25 3.689260 -4.550930 -4.829990 0.000000 0.000000 0.000000
 26 3.087020 -2.930260 -1.806420 0.000000 0.000000 0.000000
 27 10.169240 0.711430 -6.708540 0.000000 0.000000 0.000000
 28 2.770930 0.042420 -2.816470 0.000000 0.000000 0.000000
 29 -52.850708 -0.361260 -67.170868 1.570802 -0.000018 -0.000537
time 21
  0 1.278131 -1.278131 40.101418 0.283013 0.000000 0.611399
  1 9.062670 0.286610 -3.406700 -1.078754 -0.042191 -0.314117
  2 4.544490 -1.638600 -20.622749 0.561612 0.016695 0.127276
  3 3.070910 1.647970 -15.136740 0.279402 -0.046862 -0.398919
  4 -0.361640 -14.308061 -6.406600 0.000000 0.000000 0.000000
  5 -9.522449 0.590440 -3.372560 0.071386 -0.285315 -0.100070
  6 -4.141180 -1.081730 -20.790251 0.550114 0.066732 -0.096212
  7 -3.014440 0.974200 -14.527950 -0.706301 -0.678188 -0.819367
  8 0.361640 -14.494990 -6.882030 0.000000 0.000000 0.000000
  9 0.013460 -1.507020 5.475230 0.000000 0.000000 0.000000
 10 -0.004780 1.092750 22.735540 0.000000 0.000000 0.000000
 11 -0.976790 -3.346690 20.865768 -0.388520 -0.164572 -0.607805
 12 0.975190 -4.916450 -4.520320 0.627379 0.000000 0.000000
 13 -2.406500 -8.600220 4.877150 0.000000 0.164057 0.000000
 14 4.381730 -8.600220 5.272540 0.000000 -0.176761 0.000000
 15 -18.388140 0.440630 8.679390 -0.039886 -0.116490 1.319764
 16 -21.955891 -0.759690 -12.109390 -0.242125 0.154413 0.819605
 17 -13.311041 1.530050 -7.133010 0.000005 -0.000018 -0.000010
 18 -9.635210 -0.302230 -6.530870 0.000000 -1.024636 0.000000
 19 -3.126290 0.042420 -2.638810 0.000000 -0.733672 0.000000
 20 -2.839340 -5.564580 -4.296970 0.075782 -0.067761 -0.465623
 21 -3.811070 -2.785450 -1.806430 0.000000 0.000000 0.000000
 22 18.455151 0.440630 8.679390 0.623286 0.464419 0.763544
 23 21.943432 -0.878860 -11.911369 -0.325275 -0.052115 -0.315161
 24 13.133340 0.635550 -6.798010 0.000000 0.000000 0.000000
 25 3.689260 -4.550930 -4.829990 0.000000 0.000000 0.000000
 26 3.087020 -2.930260 -1.806420 0.000000 0.000000 0.000000
 27 10.169240 0.711430 -6.708540 0.000000 0.000000 0.000000
 28 2.770930 0.042420 -2.816470 0.000000 0.000000 0.000000
 29 -52.850708 -0.361260 -67.170868 1.570802 -0.000018 -0.000537
time 22
  0 1.278131 -1.278131 40.558464 0.260880 0.000000 0.563638
  1 9.062670 0.286610 -3.406700 -1.034206 -0.043097 -0.281580
  2 4.544490 -1.638600 -20.622749 0.597179 0.015304 0.135402
  3 3.070910 1.647970 -15.136740 0.217415 -0.060548 -0.385054
  4 -0.361640 -14.308061 -6.406600 0.000000 0.000000 0.000000
  5 -9.522449 0.590440 -3.372560 0.034584 -0.248208 -0.077844
  6 -4.141180 -1.081730 -20.790251 0.601256 0.075444 -0.103055
  7 -3.014440 0.974200 -14.527950 -0.721453 -0.639704 -0.742297
  8 0.361640 -14.494990 -6.882030 0.000000 0.000000 0.000000
  9 0.013460 -1.507020 5.475230 0.000000 0.000000 0.000000
 10 -0.004780 1.092750 22.735540 0.000000 0.000000 0.000000
 11 -0.976790 -3.346690 20.865768 -0.364986 -0.139597 -0.554264
 12 0.975190 -4.916450 -4.520320 0.578348 0.000000 0.000000
 13 -2.406500 -8.600220 4.877150 0.000000 0.151234 0.000000
 14 4.381730 -8.600220 5.272540 0.000000 -0.162942 0.000000
 15 -18.388140 0.440630 8.679390 0.028687 -0.203038 1.195173
 16 -21.955891 -0.759690 -12.109390 -0.246805 0.124345 0.781906
 17 -13.311041 1.530050 -7.133010 0.000005 -0.000018 -0.000010
 18 -9.635210 -0.302230 -6.530870 0.000000 -0.944516 0.000000
 19 -3.126290 0.042420 -2.638810 0.000000 -0.676296 0.000000
 20 -2.839340 -5.564580 -4.296970 0.069869 -0.062464 -0.429226
 21 -3.811070 -2.785450 -1.806430 0.000000 0.000000 0.000000
 22 18.455151 0.440630 8.679390 0.566764 0.485901 0.694825
 23 21.943432 -0.878860 -11.911369 -0.325275 -0.052115 -0.315161
 24 13.133340 0.635550 -6.798010 0.000000 0.000000 0.000000
 25 3.689260 -4.550930 -4.829990 0.000000 0.000000 0.000000
 26 3.087020 -2.930260 -1.806420 0.000000 0.000000 0.000000
 27 10.169240 0.711430 -6.708540 0.000000 0.000000 0.000000
 28 2.770930 0.042420 -2.816470 0.000000 0.000000 0.000000
 29 -52.850708 -0.361260 -67.170868 1.570802 -0.000018 -0.000537
time 23
  0 1.278131 -1.278131 41.234264 0.228266 0.000000 0.493130
  1 9.062670 0.286610 -3.406700 -0.958938 -0.045743 -0.237588
  2 4.544490 -1.638600 -20.622749 0.635427 0.013507 0.144067
  3 3.070910 1.647970 -15.136740 0.130595 -0.074624 -0.359945
  4 -0.361640 -14.308061 -6.406600 0.000000 0.000000 0.000000
  5 -9.522449 0.590440 -3.372560 -0.013595 -0.196164 -0.048057
  6 -4.141180 -1.081730 -20.790251 0.655962 0.085152 -0.109863
  7 -3.014440 0.974200 -14.527950 -0.728932 -0.570636 -0.637266
  8 0.361640 -14.494990 -6.882030 0.000000 0.000000 0.000000
  9 0.013460 -1.507020 5.475230 0.000000 0.000000 0.000000
 10 -0.004780 1.092750 22.735540 0.000000 0.000000 0.000000
 11 -0.976790 -3.346690 20.865768 -0.326661 -0.106171 -0.476561
 12 0.975190 -4.916450 -4.520320 0.506029 0.000000 0.000000
 13 -2.406500 -8.600220 4.877150 0.000000 0.132322 0.000000
 14 4.381730 -8.600220 5.272540 0.000000 -0.142569 0.000000
 15 -18.388140 0.440630 8.679390 0.095533 -0.299653 1.011489
 16 -21.955891 -0.759690 -12.109390 -0.253760 0.100829 0.726375
 17 -13.311041 1.530050 -7.133010 0.000005 -0.000018 -0.000010
 18 -9.635210 -0.302230 -6.530870 0.000000 -0.826412 0.000000
 19 -3.126290 0.042420 -2.638810 0.000000 -0.591739 0.000000
 20 -2.839340 -5.564580 -4.296970 0.061130 -0.054650 -0.375559
 21 -3.811070 -2.785450 -1.806430 0.000000 0.000000 0.000000
 22 18.455151 0.440630 8.679390 0.516476 0.517563 0.619754
 23 21.943432 -0.878860 -11.911369 -0.325275 -0.052115 -0.315161
 24 13.133340 0.635550 -6.798010 0.000000 0.000000 0.000000
 25 3.689260 -4.550930 -4.829990 0.000000 0.000000 0.000000
 26 3.087020 -2.930260 -1.806420 0.000000 0.000000 0.000000
 27 10.169240 0.711430 -6.708540 0.000000 0.000000 0.000000
 28 2.770930 0.042420 -2.816470 0.000000 0.000000 0.000000
 29 -52.850708 -0.361260 -67.170868 1.570802 -0.000018 -0.000537
time 24
  0 1.278131 -1.278131 42.050697 0.188669 0.000000 0.407584
  1 9.062670 0.286610 -3.406700 -0.853626 -0.049968 -0.190847
  2 4.544490 -1.638600 -20.622749 0.660128 0.012164 0.149640
  3 3.070910 1.647970 -15.136740 0.032841 -0.082528 -0.322571
  4 -0.361640 -14.308061 -6.406600 0.000000 0.000000 0.000000
  5 -9.522449 0.590440 -3.372560 -0.064845 -0.138592 -0.017239
  6 -4.141180 -1.081730 -20.790251 0.694154 0.092136 -0.114309
  7 -3.014440 0.974200 -14.527950 -0.714683 -0.472838 -0.519121
  8 0.361640 -14.494990 -6.882030 0.000000 0.000000 0.000000
  9 0.013460 -1.507020 5.475230 0.000000 0.000000 0.000000
 10 -0.004780 1.092750 22.735540 0.000000 0.000000 0.000000
 11 -0.976790 -3.346690 20.865768 -0.275391 -0.071500 -0.384517
 12 0.975190 -4.916450 -4.520320 0.418264 0.000000 0.000000
 13 -2.406500 -8.600220 4.877150 0.000000 0.109371 0.000000
 14 4.381730 -8.600220 5.272540 0.000000 -0.117844 0.000000
 15 -18.388140 0.440630 8.679390 0.158922 -0.400915 0.788481
 16 -21.955891 -0.759690 -12.109390 -0.262145 0.083050 0.658900
 17 -13.311041 1.530050 -7.133010 0.000005 -0.000018 -0.000010
 18 -9.635210 -0.302230 -6.530870 0.000000 -0.683091 0.000000
 19 -3.126290 0.042420 -2.638810 0.000000 -0.489097 0.000000
 20 -2.839340 -5.564580 -4.296970 0.050521 -0.045170 -0.310416
 21 -3.811070 -2.785450 -1.806430 0.000000 0.000000 0.000000
 22 18.455151 0.440630 8.679390 0.472600 0.556000 0.542189
 23 21.943432 -0.878860 -11.911369 -0.325275 -0.052115 -0.315161
 24 13.133340 0.635550 -6.798010 0.000000 0.000000 0.000000
 25 3.689260 -4.550930 -4.829990 0.000000 0.000000 0.000000
 26 3.087020 -2.930260 -1.806420 0.000000 0.000000 0.000000
 27 10.169240 0.711430 -6.708540 0.000000 0.000000 0.000000
 28 2.770930 0.042420 -2.816470 0.000000 0.000000 0.000000
 29 -52.850708 -0.361260 -67.170868 1.570802 -0.000018 -0.000537
time 25
  0 1.278131 -1.278131 42.945255 0.145571 0.000000 0.314480
  1 9.062670 0.286610 -3.406700 -0.723362 -0.053579 -0.148068
  2 4.544490 -1.638600 -20.622749 0.660273 0.012152 0.149664
  3 3.070910 1.647970 -15.136740 -0.062141 -0.080527 -0.273929
  4 -0.361640 -14.308061 -6.406600 0.000000 0.000000 0.000000
  5 -9.522449 0.590440 -3.372560 -0.113137 -0.084968 0.008574
  6 -4.141180 -1.081730 -20.790251 0.703757 0.093924 -0.115388
  7 -3.014440 0.974200 -14.527950 -0.670614 -0.356440 -0.395431
  8 0.361640 -14.494990 -6.882030 0.000000 0.000000 0.000000
  9 0.013460 -1.507020 5.475230 0.000000 0.000000 0.000000
 10 -0.004780 1.092750 22.735540 0.000000 0.000000 0.000000
 11 -0.976790 -3.346690 20.865768 -0.215475 -0.041622 -0.287986
 12 0.975190 -4.916450 -4.520320 0.322725 0.000000 0.000000
 13 -2.406500 -8.600220 4.877150 0.000000 0.084395 0.000000
 14 4.381730 -8.600220 5.272540 0.000000 -0.090927 0.000000
 15 -18.388140 0.440630 8.679390 0.217126 -0.501408 0.545790
 16 -21.955891 -0.759690 -12.109390 -0.271244 0.070194 0.585481
 17 -13.311041 1.530050 -7.133010 0.000005 -0.000018 -0.000010
 18 -9.635210 -0.302230 -6.530870 0.000000 -0.527054 0.000000
 19 -3.126290 0.042420 -2.638810 0.000000 -0.377412 0.000000
 20 -2.839340 -5.564580 -4.296970 0.038978 -0.034851 -0.239523
 21 -3.811070 -2.785450 -1.806430 0.000000 0.000000 0.000000
 22 18.455151 0.440630 8.679390 0.435196 0.597811 0.465991
 23 21.943432 -0.878860 -11.911369 -0.325275 -0.052115 -0.315161
 24 13.133340 0.635550 -6.798010 0.000000 0.000000 0.000000
 25 3.689260 -4.550930 -4.829990 0.000000 0.000000 0.000000
 26 3.087020 -2.930260 -1.806420 0.000000 0.000000 0.000000
 27 10.169240 0.711430 -6.708540 0.000000 0.000000 0.000000
 28 2.770930 0.042420 -2.816470 0.000000 0.000000 0.000000
 29 -52.850708 -0.361260 -67.170868 1.570802 -0.000018 -0.000537
time 26
  0 1.278131 -1.278131 43.835907 0.102493 0.000000 0.221376
  1 9.062670 0.286610 -3.406700 -0.578076 -0.053535 -0.112230
  2 4.544490 -1.638600 -20.622749 0.631008 0.013734 0.143072
  3 3.070910 1.647970 -15.136740 -0.141876 -0.068989 -0.217428
  4 -0.361640 -14.308061 -6.406600 0.000000 0.000000 0.000000
  5 -9.522449 0.590440 -3.372560 -0.153068 -0.043211 0.026678
  6 -4.141180 -1.081730 -20.790251 0.680477 0.089628 -0.112763
  7 -3.014440 0.974200 -14.527950 -0.595918 -0.238588 -0.270626
  8 0.361640 -14.494990 -6.882030 0.000000 0.000000 0.000000
  9 0.013460 -1.507020 5.475230 0.000000 0.000000 0.000000
 10 -0.004780 1.092750 22.735540 0.000000 0.000000 0.000000
 11 -0.976790 -3.346690 20.865768 -0.153130 -0.020026 -0.196063
 12 0.975190 -4.916450 -4.520320 0.227187 0.000000 0.000000
 13 -2.406500 -8.600220 4.877150 0.000000 0.059408 0.000000
 14 4.381730 -8.600220 5.272540 0.000000 -0.064010 0.000000
 15 -18.388140 0.440630 8.679390 0.268556 -0.595741 0.303099
 16 -21.955891 -0.759690 -12.109390 -0.280344 0.061447 0.512119
 17 -13.311041 1.530050 -7.133010 0.000005 -0.000018 -0.000010
 18 -9.635210 -0.302230 -6.530870 0.000000 -0.371018 0.000000
 19 -3.126290 0.042420 -2.638810 0.000000 -0.265675 0.000000
 20 -2.839340 -5.564580 -4.296970 0.027435 -0.024532 -0.168608
 21 -3.811070 -2.785450 -1.806430 0.000000 0.000000 0.000000
 22 18.455151 0.440630 8.679390 0.404382 0.639652 0.395021
 23 21.943432 -0.878860 -11.911369 -0.325275 -0.052115 -0.315161
 24 13.133340 0.635550 -6.798010 0.000000 0.000000 0.000000
 25 3.689260 -4.550930 -4.829990 0.000000 0.000000 0.000000
 26 3.087020 -2.930260 -1.806420 0.000000 0.000000 0.000000
 27 10.169240 0.711430 -6.708540 0.000000 0.000000 0.000000
 28 2.770930 0.042420 -2.816470 0.000000 0.000000 0.000000
 29 -52.850708 -0.361260 -67.170868 1.570802 -0.000018 -0.000537
time 27
  0 1.278131 -1.278131 44.656246 0.062877 0.000000 0.135829
  1 9.062670 0.286610 -3.406700 -0.431855 -0.048346 -0.082948
  2 4.544490 -1.638600 -20.622749 0.575013 0.016203 0.130344
  3 3.070910 1.647970 -15.136740 -0.197703 -0.051961 -0.158561
  4 -0.361640 -14.308061 -6.406600 0.000000 0.000000 0.000000
  5 -9.522449 0.590440 -3.372560 -0.179973 -0.016947 0.036742
  6 -4.141180 -1.081730 -20.790251 0.627954 0.080136 -0.106447
  7 -3.014440 0.974200 -14.527950 -0.498302 -0.137988 -0.149968
  8 0.361640 -14.494990 -6.882030 0.000000 0.000000 0.000000
  9 0.013460 -1.507020 5.475230 0.000000 0.000000 0.000000
 10 -0.004780 1.092750 22.735540 0.000000 0.000000 0.000000
 11 -0.976790 -3.346690 20.865768 -0.095181 -0.007299 -0.116298
 12 0.975190 -4.916450 -4.520320 0.139421 0.000000 0.000000
 13 -2.406500 -8.600220 4.877150 0.000000 0.036457 0.000000
 14 4.381730 -8.600220 5.272540 0.000000 -0.039274 0.000000
 15 -18.388140 0.440630 8.679390 0.311484 -0.678496 0.080091
 16 -21.955891 -0.759690 -12.109390 -0.288794 0.056063 0.444644
 17 -13.311041 1.530050 -7.133010 0.000005 -0.000018 -0.000010
 18 -9.635210 -0.302230 -6.530870 0.000000 -0.227697 0.000000
 19 -3.126290 0.042420 -2.638810 0.000000 -0.163032 0.000000
 20 -2.839340 -5.564580 -4.296970 0.016826 -0.015053 -0.103464
 21 -3.811070 -2.785450 -1.806430 0.000000 0.000000 0.000000
 22 18.455151 0.440630 8.679390 0.380218 0.678090 0.333098
 23 21.943432 -0.878860 -11.911369 -0.325275 -0.052115 -0.315161
 24 13.133340 0.635550 -6.798010 0.000000 0.000000 0.000000
 25 3.689260 -4.550930 -4.829990 0.000000 0.000000 0.000000
 26 3.087020 -2.930260 -1.806420 0.000000 0.000000 0.000000
 27 10.169240 0.711430 -6.708540 0.000000 0.000000 0.000000
 28 2.770930 0.042420 -2.816470 0.000000 0.000000 0.000000
 29 -52.850708 -0.361260 -67.170868 1.570802 -0.000018 -0.000537
time 28
  0 1.278131 -1.278131 45.332047 0.030281 0.000000 0.065397
  1 9.062670 0.286610 -3.406700 -0.301748 -0.039633 -0.059101
  2 4.544490 -1.638600 -20.622749 0.503589 0.018312 0.113949
  3 3.070910 1.647970 -15.136740 -0.227194 -0.035177 -0.104703
  4 -0.361640 -14.308061 -6.406600 0.000000 0.000000 0.000000
  5 -9.522449 0.590440 -3.372560 -0.192032 -0.004650 0.040164
  6 -4.141180 -1.081730 -20.790251 0.558262 0.068088 -0.097327
  7 -3.014440 0.974200 -14.527950 -0.394625 -0.067804 -0.043666
  8 0.361640 -14.494990 -6.882030 0.000000 0.000000 0.000000
  9 0.013460 -1.507020 5.475230 0.000000 0.000000 0.000000
 10 -0.004780 1.092750 22.735540 0.000000 0.000000 0.000000
 11 -0.976790 -3.346690 20.865768 -0.047748 -0.001642 -0.054329
 12 0.975190 -4.916450 -4.520320 0.067103 0.000000 0.000000
 13 -2.406500 -8.600220 4.877150 0.000000 0.017545 0.000000
 14 4.381730 -8.600220 5.272540 0.000000 -0.018912 0.000000
 15 -18.388140 0.440630 8.679390 0.344181 -0.744313 -0.103508
 16 -21.955891 -0.759690 -12.109390 -0.295684 0.053195 0.389113
 17 -13.311041 1.530050 -7.133010 0.000005 -0.000018 -0.000010
 18 -9.635210 -0.302230 -6.530870 0.000000 -0.109592 0.000000
 19 -3.126290 0.042420 -2.638810 0.000000 -0.078476 0.000000
 20 -2.839340 -5.564580 -4.296970 0.008109 -0.007251 -0.049819
 21 -3.811070 -2.785450 -1.806430 0.000000 0.000000 0.000000
 22 18.455151 0.440630 8.679390 0.362822 0.709751 0.284082
 23 21.943432 -0.878860 -11.911369 -0.325275 -0.052115 -0.315161
 24 13.133340 0.635550 -6.798010 0.000000 0.000000 0.000000
 25 3.689260 -4.550930 -4.829990 0.000000 0.000000 0.000000
 26 3.087020 -2.930260 -1.806420 0.000000 0.000000 0.000000
 27 10.169240 0.711430 -6.708540 0.000000 0.000000 0.000000
 28 2.770930 0.042420 -2.816470 0.000000 0.000000 0.000000
 29 -52.850708 -0.361260 -67.170868 1.570802 -0.000018 -0.000537
time 29
  0 1.278131 -1.278131 45.789093 0.008149 0.000000 0.017560
  1 9.062670 0.286610 -3.406700 -0.207351 -0.031402 -0.041827
  2 4.544490 -1.638600 -20.622749 0.438468 0.019223 0.098909
  3 3.070910 1.647970 -15.136740 -0.236165 -0.023346 -0.064964
  4 -0.361640 -14.308061 -6.406600 0.000000 0.000000 0.000000
  5 -9.522449 0.590440 -3.372560 -0.192714 -0.001185 0.040219
  6 -4.141180 -1.081730 -20.790251 0.493590 0.057516 -0.088159
  7 -3.014440 0.974200 -14.527950 -0.310645 -0.030584 0.031901
  8 0.361640 -14.494990 -6.882030 0.000000 0.000000 0.000000
  9 0.013460 -1.507020 5.475230 0.000000 0.000000 0.000000
 10 -0.004780 1.092750 22.735540 0.000000 0.000000 0.000000
 11 -0.976790 -3.346690 20.865768 -0.015981 -0.000108 -0.014310
 12 0.975190 -4.916450 -4.520320 0.018071 0.000000 0.000000
 13 -2.406500 -8.600220 4.877150 0.000000 0.004722 0.000000
 14 4.381730 -8.600220 5.272540 0.000000 -0.005081 0.000000
 15 -18.388140 0.440630 8.679390 0.365057 -0.787743 -0.228141
 16 -21.955891 -0.759690 -12.109390 -0.300364 0.052061 0.351413
 17 -13.311041 1.530050 -7.133010 0.000005 -0.000018 -0.000010
 18 -9.635210 -0.302230 -6.530870 0.000000 -0.029472 0.000000
 19 -3.126290 0.042420 -2.638810 0.000000 -0.021100 0.000000
 20 -2.839340 -5.564580 -4.296970 0.002174 -0.001942 -0.013400
 21 -3.811070 -2.785450 -1.806430 0.000000 0.000000 0.000000
 22 18.455151 0.440630 8.679390 0.352313 0.731234 0.251874
 23 21.943432 -0.878860 -11.911369 -0.325275 -0.052115 -0.315161
 24 13.133340 0.635550 -6.798010 0.000000 0.000000 0.000000
 25 3.689260 -4.550930 -4.829990 0.000000 0.000000 0.000000
 26 3.087020 -2.930260 -1.806420 0.000000 0.000000 0.000000
 27 10.169240 0.711430 -6.708540 0.000000 0.000000 0.000000
 28 2.770930 0.042420 -2.816470 0.000000 0.000000 0.000000
 29 -52.850708 -0.361260 -67.170868 1.570802 -0.000018 -0.000537
time 30
  0 1.278131 -1.278131 45.957066 0.000000 0.000000 -0.000048
  1 9.062670 0.286610 -3.406700 -0.170912 -0.027908 -0.035363
  2 4.544490 -1.638600 -20.622749 0.410144 0.019307 0.092353
  3 3.070910 1.647970 -15.136740 -0.236704 -0.019004 -0.049245
  4 -0.361640 -14.308061 -6.406600 0.000000 0.000000 0.000000
  5 -9.522449 0.590440 -3.372560 -0.190951 -0.000898 0.039759
  6 -4.141180 -1.081730 -20.790251 0.465291 0.053088 -0.083940
  7 -3.014440 0.974200 -14.527950 -0.276537 -0.019631 0.060303
  8 0.361640 -14.494990 -6.882030 0.000000 0.000000 0.000000
  9 0.013460 -1.507020 5.475230 0.000000 0.000000 0.000000
 10 -0.004780 1.092750 22.735540 0.000000 0.000000 0.000000
 11 -0.976790 -3.346690 20.865768 -0.004396 0.000000 0.000000
 12 0.975190 -4.916450 -4.520320 0.000000 0.000000 0.000000
 13 -2.406500 -8.600220 4.877150 0.000000 0.000000 0.000000
 14 4.381730 -8.600220 5.272540 0.000000 0.000000 0.000000
 15 -18.388140 0.440630 8.679390 0.372384 -0.803428 -0.274083
 16 -21.955891 -0.759690 -12.109390 -0.302054 0.051849 0.337545
 17 -13.311041 1.530050 -7.133010 0.000005 -0.000018 -0.000010
 18 -9.635210 -0.302230 -6.530870 0.000000 0.000000 0.000000
 19 -3.126290 0.042420 -2.638810 0.000000 0.000000 0.000000
 20 -2.839340 -5.564580 -4.296970 0.000000 0.000000 0.000000
 21 -3.811070 -2.785450 -1.806430 0.000000 0.000000 0.000000
 22 18.455151 0.440630 8.679390 0.348810 0.739134 0.240254
 23 21.943432 -0.878860 -11.911369 -0.325275 -0.052115 -0.315161
 24 13.133340 0.635550 -6.798010 0.000000 0.000000 0.000000
 25 3.689260 -4.550930 -4.829990 0.000000 0.000000 0.000000
 26 3.087020 -2.930260 -1.806420 0.000000 0.000000 0.000000
 27 10.169240 0.711430 -6.708540 0.000000 0.000000 0.000000
 28 2.770930 0.042420 -2.816470 0.000000 0.000000 0.000000
 29 -52.850708 -0.361260 -67.170868 1.570802 -0.000018 -0.000537
end
