version 1
nodes
  0 "Hips"  -1
  1 "LLegUpper"   0
  2 "LLegLower"   1
  3 "LFoot"   2
  4 "LToes"   3
  5 "RLegUpper"   0
  6 "RLegLower"   5
  7 "RFoot"   6
  8 "RToes"   7
  9 "BodyLower"   0
 10 "BodyUpper"   9
 11 "Head"  10
 12 "Jaw"  11
 13 "HeadRBrow"  11
 14 "HeadLBrow"  11
 15 "RArm"  10
 16 "RArm2"  15
 17 "RPalm"  16
 18 "RFingStart"  17
 19 "RFingEnd"  18
 20 "RThumbStart"  17
 21 "RThumbEnd"  20
 22 "LArm"  10
 23 "LArm2"  22
 24 "LPalm"  23
 25 "LThumStart"  24
 26 "LThumEnd"  25
 27 "LFingStart"  24
 28 "LFingEnd"  27
 29 "GeoSphere01"   9
end
skeleton
time 0
  0 1.278131 -1.278131 47.050850 0.000000 0.000000 -0.000048
  1 9.062670 0.286610 -3.406700 -0.069082 -0.009312 -0.014495
  2 4.544490 -1.638600 -20.622749 0.164362 0.012296 0.036050
  3 3.070910 1.647970 -15.136740 -0.094828 -0.007367 -0.019985
  4 -0.361640 -14.308061 -6.406600 0.000000 0.000000 0.000000
  5 -9.522449 0.590440 -3.372560 -0.084298 -0.002836 0.016963
  6 -4.141180 -1.081730 -20.790251 0.204638 0.018432 -0.039825
  7 -3.014440 0.974200 -14.527950 -0.120763 -0.009163 0.025552
  8 0.361640 -14.494990 -6.882030 0.000000 0.000000 0.000000
  9 0.013460 -1.507020 5.475230 0.000000 0.000000 0.000000
 10 -0.004780 1.092750 22.735540 0.000000 0.000000 0.000000
 11 -0.976790 -3.346690 20.865768 -0.007043 0.000000 0.000000
 12 0.975190 -4.916450 -4.520320 0.000000 0.000000 0.000000
 13 -2.406500 -8.600220 4.877150 0.000000 0.000000 0.000000
 14 4.381730 -8.600220 5.272540 0.000000 0.000000 0.000000
 15 -18.388140 0.440630 8.679390 0.000000 -0.758286 0.000000
 16 -21.955891 -0.759690 -12.109390 0.000000 0.000000 0.312355
 17 -13.311041 1.530050 -7.133010 0.000005 -0.000018 -0.000010
 18 -9.635210 -0.302230 -6.530870 0.000000 0.000000 0.000000
 19 -3.126290 0.042420 -2.638810 0.000000 0.000000 0.000000
 20 -2.839340 -5.564580 -4.296970 0.000000 0.000000 0.000000
 21 -3.811070 -2.785450 -1.806430 0.000000 0.000000 0.000000
 22 18.455151 0.440630 8.679390 0.259158 0.793787 0.380867
 23 21.943432 -0.878860 -11.911369 0.000000 0.000000 -0.383520
 24 13.133340 0.635550 -6.798010 0.000000 0.000000 0.000000
 25 3.689260 -4.550930 -4.829990 0.000000 0.000000 0.000000
 26 3.087020 -2.930260 -1.806420 0.000000 0.000000 0.000000
 27 10.169240 0.711430 -6.708540 0.000000 0.000000 0.000000
 28 2.770930 0.042420 -2.816470 0.000000 0.000000 0.000000
 29 -52.850708 -0.361260 -67.170868 1.570802 -0.000018 -0.000537
time 1
  0 1.278131 -1.278131 47.050850 0.001722 0.000000 -0.000048
  1 9.062670 0.286610 -3.406700 -0.070746 -0.009298 -0.014833
  2 4.544490 -1.638600 -20.622749 0.163927 0.012272 0.035954
  3 3.070910 1.647970 -15.136740 -0.094481 -0.007318 -0.019545
  4 -0.361640 -14.308061 -6.406600 0.000000 0.000000 0.000000
  5 -9.522449 0.590440 -3.372560 -0.085777 -0.002801 0.017607
  6 -4.141180 -1.081730 -20.790251 0.203983 0.018360 -0.039705
  7 -3.014440 0.974200 -14.527950 -0.120344 -0.009226 0.024774
  8 0.361640 -14.494990 -6.882030 0.000000 0.000000 0.000000
  9 0.013460 -1.507020 5.475230 0.001626 0.000000 0.000000
 10 -0.004780 1.092750 22.735540 0.003270 0.000000 0.000000
 11 -0.976790 -3.346690 20.865768 -0.007869 0.000000 0.000000
 12 0.975190 -4.916450 -4.520320 0.004020 0.000000 0.000000
 13 -2.406500 -8.600220 4.877150 0.000000 0.000000 0.000000
 14 4.381730 -8.600220 5.272540 0.000000 0.000000 0.000000
 15 -18.388140 0.440630 8.679390 -0.014724 -0.757858 0.022780
 16 -21.955891 -0.759690 -12.109390 -0.009555 0.000000 0.387585
 17 -13.311041 1.530050 -7.133010 0.000005 -0.012425 0.001225
 18 -9.635210 -0.302230 -6.530870 0.000000 -0.041973 0.000000
 19 -3.126290 0.042420 -2.638810 0.010678 -0.047657 -0.009264
 20 -2.839340 -5.564580 -4.296970 0.019935 0.000000 0.000000
 21 -3.811070 -2.785450 -1.806430 0.000000 0.000000 0.000000
 22 18.455151 0.440630 8.679390 0.242950 0.783194 0.349504
 23 21.943432 -0.878860 -11.911369 -0.030790 0.013578 -0.445509
 24 13.133340 0.635550 -6.798010 0.000499 -0.016282 -0.008066
 25 3.689260 -4.550930 -4.829990 0.000000 0.000000 0.000000
 26 3.087020 -2.930260 -1.806420 0.000000 0.000000 0.000000
 27 10.169240 0.711430 -6.708540 0.000000 0.015822 0.000000
 28 2.770930 0.042420 -2.816470 0.000000 0.000000 0.000000
 29 -52.850708 -0.361260 -67.170868 1.570802 -0.000018 -0.000537
time 2
  0 1.278131 -1.278131 47.050850 0.006408 0.000000 -0.000048
  1 9.062670 0.286610 -3.406700 -0.075164 -0.009312 -0.015739
  2 4.544490 -1.638600 -20.622749 0.162768 0.012212 0.035690
  3 3.070910 1.647970 -15.136740 -0.093596 -0.007172 -0.018362
  4 -0.361640 -14.308061 -6.406600 0.000000 0.000000 0.000000
  5 -9.522449 0.590440 -3.372560 -0.090043 -0.002693 0.018141
  6 -4.141180 -1.081730 -20.790251 0.202165 0.018156 -0.039369
  7 -3.014440 0.974200 -14.527950 -0.118958 -0.009226 0.023867
  8 0.361640 -14.494990 -6.882030 0.000000 0.000000 0.000000
  9 0.013460 -1.507020 5.475230 0.006074 0.000000 0.000000
 10 -0.004780 1.092750 22.735540 0.012196 0.000000 0.000000
 11 -0.976790 -3.346690 20.865768 -0.009010 0.000000 0.000000
 12 0.975190 -4.916450 -4.520320 0.014982 0.000000 0.000000
 13 -2.406500 -8.600220 4.877150 0.000000 0.000000 0.000000
 14 4.381730 -8.600220 5.272540 0.000000 0.000000 0.000000
 15 -18.388140 0.440630 8.679390 -0.054679 -0.756489 0.084588
 16 -21.955891 -0.759690 -12.109390 -0.036205 0.000000 0.478098
 17 -13.311041 1.530050 -7.133010 -0.000089 -0.046206 0.004580
 18 -9.635210 -0.302230 -6.530870 0.000000 -0.156036 0.000000
 19 -3.126290 0.042420 -2.638810 0.039657 -0.177064 -0.034420
 20 -2.839340 -5.564580 -4.296970 0.074065 0.000000 0.000000
 21 -3.811070 -2.785450 -1.806430 0.000000 0.000000 0.000000
 22 18.455151 0.440630 8.679390 0.198658 0.754492 0.264380
 23 21.943432 -0.878860 -11.911369 -0.114972 0.050509 -0.522084
 24 13.133340 0.635550 -6.798010 0.001936 -0.060515 -0.029956
 25 3.689260 -4.550930 -4.829990 0.000000 0.000000 0.000000
 26 3.087020 -2.930260 -1.806420 0.000000 0.000000 0.000000
 27 10.169240 0.711430 -6.708540 0.000000 0.058775 0.000000
 28 2.770930 0.042420 -2.816470 0.000000 0.000000 0.000000
 29 -52.850708 -0.361260 -67.170868 1.570802 -0.000018 -0.000537
time 3
  0 1.278131 -1.278131 47.054756 0.013295 0.000000 -0.000048
  1 9.062670 0.286610 -3.406700 -0.081610 -0.009327 -0.017059
  2 4.544490 -1.638600 -20.622749 0.160957 0.012104 0.035283
  3 3.070910 1.647970 -15.136740 -0.092248 -0.006953 -0.016600
  4 -0.361640 -14.308061 -6.406600 0.000000 0.000000 0.000000
  5 -9.522449 0.590440 -3.372560 -0.096073 -0.002513 0.019723
  6 -4.141180 -1.081730 -20.790251 0.199400 0.017856 -0.038854
  7 -3.014440 0.974200 -14.527950 -0.117024 -0.009310 0.021742
  8 0.361640 -14.494990 -6.882030 0.000000 0.000000 0.000000
  9 0.013460 -1.507020 5.475230 0.012611 0.000000 0.000000
 10 -0.004780 1.092750 22.735540 0.025332 0.000000 0.000000
 11 -0.976790 -3.346690 20.865768 -0.007578 0.000000 0.000000
 12 0.975190 -4.916450 -4.520320 0.031160 0.000000 0.000000
 13 -2.406500 -8.600220 4.877150 0.000000 0.000000 0.000000
 14 4.381730 -8.600220 5.272540 0.000000 0.000000 0.000000
 15 -18.388140 0.440630 8.679390 -0.113644 -0.754008 0.175751
 16 -21.955891 -0.759690 -12.109390 -0.076440 0.000000 0.580386
 17 -13.311041 1.530050 -7.133010 -0.000183 -0.095976 0.009530
 18 -9.635210 -0.302230 -6.530870 0.000000 -0.324142 0.000000
 19 -3.126290 0.042420 -2.638810 0.082370 -0.367797 -0.071500
 20 -2.839340 -5.564580 -4.296970 0.153847 0.000000 0.000000
 21 -3.811070 -2.785450 -1.806430 0.000000 0.000000 0.000000
 22 18.455151 0.440630 8.679390 0.132637 0.712148 0.138925
 23 21.943432 -0.878860 -11.911369 -0.240352 0.104962 -0.608167
 24 13.133340 0.635550 -6.798010 0.003996 -0.125745 -0.062236
 25 3.689260 -4.550930 -4.829990 0.000000 0.000000 0.000000
 26 3.087020 -2.930260 -1.806420 0.000000 0.000000 0.000000
 27 10.169240 0.711430 -6.708540 0.000000 0.122113 0.000000
 28 2.770930 0.042420 -2.816470 0.000000 0.000000 0.000000
 29 -52.850708 -0.361260 -67.170868 1.570802 -0.000018 -0.000537
time 4
  0 1.278131 -1.278131 47.062569 0.021692 0.000000 -0.000048
  1 9.062670 0.286610 -3.406700 -0.089459 -0.009371 -0.018672
  2 4.544490 -1.638600 -20.622749 0.158639 0.011973 0.034767
  3 3.070910 1.647970 -15.136740 -0.090516 -0.006660 -0.014444
  4 -0.361640 -14.308061 -6.406600 0.000000 0.000000 0.000000
  5 -9.522449 0.590440 -3.372560 -0.103524 -0.002280 0.021232
  6 -4.141180 -1.081730 -20.790251 0.195981 0.017484 -0.038219
  7 -3.014440 0.974200 -14.527950 -0.114509 -0.009373 0.019540
  8 0.361640 -14.494990 -6.882030 0.000000 0.000000 0.000000
  9 0.013460 -1.507020 5.475230 0.020568 0.000000 0.000000
 10 -0.004780 1.092750 22.735540 0.041275 0.000000 0.000000
 11 -0.976790 -3.346690 20.865768 0.000170 0.000000 0.000000
 12 0.975190 -4.916450 -4.520320 0.050759 0.000000 0.000000
 13 -2.406500 -8.600220 4.877150 0.000000 0.000000 0.000000
 14 4.381730 -8.600220 5.272540 0.000000 0.000000 0.000000
 15 -18.388140 0.440630 8.679390 -0.185190 -0.750216 0.286385
 16 -21.955891 -0.759690 -12.109390 -0.126945 0.000000 0.690939
 17 -13.311041 1.530050 -7.133010 -0.000309 -0.156421 0.015534
 18 -9.635210 -0.302230 -6.530870 0.000000 -0.528240 0.000000
 19 -3.126290 0.042420 -2.638810 0.134239 -0.599431 -0.116526
 20 -2.839340 -5.564580 -4.296970 0.250716 0.000000 0.000000
 21 -3.811070 -2.785450 -1.806430 0.000000 0.000000 0.000000
 22 18.455151 0.440630 8.679390 0.051475 0.660750 -0.013350
 23 21.943432 -0.878860 -11.911369 -0.394650 0.171021 -0.698866
 24 13.133340 0.635550 -6.798010 0.006556 -0.204916 -0.101420
 25 3.689260 -4.550930 -4.829990 0.000000 0.000000 0.000000
 26 3.087020 -2.930260 -1.806420 0.000000 0.000000 0.000000
 27 10.169240 0.711430 -6.708540 0.000000 0.198992 0.000000
 28 2.770930 0.042420 -2.816470 0.000000 0.000000 0.000000
 29 -52.850708 -0.361260 -67.170868 1.570802 -0.000018 -0.000537
time 5
  0 1.278131 -1.278131 47.066475 0.030798 0.000000 -0.000048
  1 9.062670 0.286610 -3.406700 -0.097828 -0.009459 -0.020760
  2 4.544490 -1.638600 -20.622749 0.156032 0.011829 0.034192
  3 3.070910 1.647970 -15.136740 -0.088706 -0.006343 -0.011755
  4 -0.361640 -14.308061 -6.406600 0.000000 0.000000 0.000000
  5 -9.522449 0.590440 -3.372560 -0.111488 -0.001993 0.022833
  6 -4.141180 -1.081730 -20.790251 0.192053 0.017064 -0.037488
  7 -3.014440 0.974200 -14.527950 -0.111704 -0.009415 0.017130
  8 0.361640 -14.494990 -6.882030 0.000000 0.000000 0.000000
  9 0.013460 -1.507020 5.475230 0.029209 0.000000 0.000000
 10 -0.004780 1.092750 22.735540 0.058635 0.000000 0.000000
 11 -0.976790 -3.346690 20.865768 0.018361 0.000000 0.000000
 12 0.975190 -4.916450 -4.520320 0.072119 0.000000 0.000000
 13 -2.406500 -8.600220 4.877150 0.000000 0.000000 0.000000
 14 4.381730 -8.600220 5.272540 0.000000 0.000000 0.000000
 15 -18.388140 0.440630 8.679390 -0.263026 -0.744940 0.406819
 16 -21.955891 -0.759690 -12.109390 -0.184405 0.000000 0.806076
 17 -13.311041 1.530050 -7.133010 -0.000466 -0.222181 0.022066
 18 -9.635210 -0.302230 -6.530870 0.000000 -0.750387 0.000000
 19 -3.126290 0.042420 -2.638810 0.190687 -0.851489 -0.165519
 20 -2.839340 -5.564580 -4.296970 0.356150 0.000000 0.000000
 21 -3.811070 -2.785450 -1.806430 0.000000 0.000000 0.000000
 22 18.455151 0.440630 8.679390 -0.038414 0.604824 -0.179094
 23 21.943432 -0.878860 -11.911369 -0.565540 0.242939 -0.789196
 24 13.133340 0.635550 -6.798010 0.009303 -0.291075 -0.144073
 25 3.689260 -4.550930 -4.829990 0.000000 0.000000 0.000000
 26 3.087020 -2.930260 -1.806420 0.000000 0.000000 0.000000
 27 10.169240 0.711430 -6.708540 0.000000 0.282715 0.000000
 28 2.770930 0.042420 -2.816470 0.000000 0.000000 0.000000
 29 -52.850708 -0.361260 -67.170868 1.570802 -0.000018 -0.000537
time 6
  0 1.278131 -1.278131 47.070381 0.039922 0.000000 -0.000048
  1 9.062670 0.286610 -3.406700 -0.106352 -0.009546 -0.022157
  2 4.544490 -1.638600 -20.622749 0.153351 0.011661 0.033581
  3 3.070910 1.647970 -15.136740 -0.086627 -0.006074 -0.009714
  4 -0.361640 -14.308061 -6.406600 0.000000 0.000000 0.000000
  5 -9.522449 0.590440 -3.372560 -0.119451 -0.001688 0.024415
  6 -4.141180 -1.081730 -20.790251 0.188052 0.016632 -0.036733
  7 -3.014440 0.974200 -14.527950 -0.108803 -0.009458 0.014694
  8 0.361640 -14.494990 -6.882030 0.000000 0.000000 0.000000
  9 0.013460 -1.507020 5.475230 0.037850 0.000000 0.000000
 10 -0.004780 1.092750 22.735540 0.075996 0.000000 0.000000
 11 -0.976790 -3.346690 20.865768 0.050420 0.000000 0.000000
 12 0.975190 -4.916450 -4.520320 0.093479 0.000000 0.000000
 13 -2.406500 -8.600220 4.877150 0.000000 0.000000 0.000000
 14 4.381730 -8.600220 5.272540 0.000000 0.000000 0.000000
 15 -18.388140 0.440630 8.679390 -0.340932 -0.737953 0.527252
 16 -21.955891 -0.759690 -12.109390 -0.245440 0.000000 0.922290
 17 -13.311041 1.530050 -7.133010 -0.000591 -0.287964 0.028598
 18 -9.635210 -0.302230 -6.530870 0.000000 -0.972480 0.000000
 19 -3.126290 0.042420 -2.638810 0.247134 -1.103496 -0.214512
 20 -2.839340 -5.564580 -4.296970 0.461563 0.000000 0.000000
 21 -3.811070 -2.785450 -1.806430 0.000000 0.000000 0.000000
 22 18.455151 0.440630 8.679390 -0.130678 0.548899 -0.344880
 23 21.943432 -0.878860 -11.911369 -0.740872 0.314886 -0.874263
 24 13.133340 0.635550 -6.798010 0.012050 -0.377234 -0.186709
 25 3.689260 -4.550930 -4.829990 0.000000 0.000000 0.000000
 26 3.087020 -2.930260 -1.806420 0.000000 0.000000 0.000000
 27 10.169240 0.711430 -6.708540 0.000000 0.366388 0.000000
 28 2.770930 0.042420 -2.816470 0.000000 0.000000 0.000000
 29 -52.850708 -0.361260 -67.170868 1.570802 -0.000018 -0.000537
time 7
  0 1.278131 -1.278131 47.074287 0.048301 0.000000 -0.000048
  1 9.062670 0.286610 -3.406700 -0.113994 -0.009663 -0.023770
  2 4.544490 -1.638600 -20.622749 0.150744 0.011505 0.033006
  3 3.070910 1.647970 -15.136740 -0.084779 -0.005806 -0.007489
  4 -0.361640 -14.308061 -6.406600 0.000000 0.000000 0.000000
  5 -9.522449 0.590440 -3.372560 -0.126732 -0.001382 0.025519
  6 -4.141180 -1.081730 -20.790251 0.184123 0.016224 -0.036014
  7 -3.014440 0.974200 -14.527950 -0.105998 -0.009415 0.012802
  8 0.361640 -14.494990 -6.882030 0.000000 0.000000 0.000000
  9 0.013460 -1.507020 5.475230 0.045807 0.000000 0.000000
 10 -0.004780 1.092750 22.735540 0.091939 0.000000 0.000000
 11 -0.976790 -3.346690 20.865768 0.097391 0.000000 0.000000
 12 0.975190 -4.916450 -4.520320 0.113078 0.000000 0.000000
 13 -2.406500 -8.600220 4.877150 0.000000 0.000000 0.000000
 14 4.381730 -8.600220 5.272540 0.000000 0.000000 0.000000
 15 -18.388140 0.440630 8.679390 -0.412478 -0.729142 0.637886
 16 -21.955891 -0.759690 -12.109390 -0.306669 0.000000 1.036069
 17 -13.311041 1.530050 -7.133010 -0.000717 -0.348409 0.034602
 18 -9.635210 -0.302230 -6.530870 0.000000 -1.176578 0.000000
 19 -3.126290 0.042420 -2.638810 0.299004 -1.335130 -0.259538
 20 -2.839340 -5.564580 -4.296970 0.558453 0.000000 0.000000
 21 -3.811070 -2.785450 -1.806430 0.000000 0.000000 0.000000
 22 18.455151 0.440630 8.679390 -0.218786 0.497500 -0.497194
 23 21.943432 -0.878860 -11.911369 -0.908321 0.380973 -0.949038
 24 13.133340 0.635550 -6.798010 0.014610 -0.456406 -0.225910
 25 3.689260 -4.550930 -4.829990 0.000000 0.000000 0.000000
 26 3.087020 -2.930260 -1.806420 0.000000 0.000000 0.000000
 27 10.169240 0.711430 -6.708540 0.000000 0.443267 0.000000
 28 2.770930 0.042420 -2.816470 0.000000 0.000000 0.000000
 29 -52.850708 -0.361260 -67.170868 1.570802 -0.000018 -0.000537
time 8
  0 1.278131 -1.278131 47.078194 0.055206 0.000000 -0.000048
  1 9.062670 0.286610 -3.406700 -0.120231 -0.009795 -0.025413
  2 4.544490 -1.638600 -20.622749 0.148570 0.011373 0.032502
  3 3.070910 1.647970 -15.136740 -0.083239 -0.005538 -0.005309
  4 -0.361640 -14.308061 -6.406600 0.000000 0.000000 0.000000
  5 -9.522449 0.590440 -3.372560 -0.132534 -0.001077 0.027027
  6 -4.141180 -1.081730 -20.790251 0.180850 0.015876 -0.035390
  7 -3.014440 0.974200 -14.527950 -0.103709 -0.009458 0.010625
  8 0.361640 -14.494990 -6.882030 0.000000 0.000000 0.000000
  9 0.013460 -1.507020 5.475230 0.052343 0.000000 0.000000
 10 -0.004780 1.092750 22.735540 0.105075 0.000000 0.000000
 11 -0.976790 -3.346690 20.865768 0.155170 0.000000 0.000000
 12 0.975190 -4.916450 -4.520320 0.129256 0.000000 0.000000
 13 -2.406500 -8.600220 4.877150 0.000000 0.000000 0.000000
 14 4.381730 -8.600220 5.272540 0.000000 0.000000 0.000000
 15 -18.388140 0.440630 8.679390 -0.471374 -0.718277 0.729049
 16 -21.955891 -0.759690 -12.109390 -0.364779 0.000000 1.143734
 17 -13.311041 1.530050 -7.133010 -0.000843 -0.398179 0.039551
 18 -9.635210 -0.302230 -6.530870 0.000000 -1.344683 0.000000
 19 -3.126290 0.042420 -2.638810 0.341729 -1.525862 -0.296619
 20 -2.839340 -5.564580 -4.296970 0.638236 0.000000 0.000000
 21 -3.811070 -2.785450 -1.806430 0.000000 0.000000 0.000000
 22 18.455151 0.440630 8.679390 -0.296385 0.455186 -0.622649
 23 21.943432 -0.878860 -11.911369 -1.055651 0.435398 -1.008581
 24 13.133340 0.635550 -6.798010 0.016671 -0.521602 -0.258173
 25 3.689260 -4.550930 -4.829990 0.000000 0.000000 0.000000
 26 3.087020 -2.930260 -1.806420 0.000000 0.000000 0.000000
 27 10.169240 0.711430 -6.708540 0.000000 0.506605 0.000000
 28 2.770930 0.042420 -2.816470 0.000000 0.000000 0.000000
 29 -52.850708 -0.361260 -67.170868 1.570802 -0.000018 -0.000537
time 9
  0 1.278131 -1.278131 47.082100 0.059893 0.000000 -0.000048
  1 9.062670 0.286610 -3.406700 -0.124546 -0.009868 -0.025981
  2 4.544490 -1.638600 -20.622749 0.147049 0.011289 0.032167
  3 3.070910 1.647970 -15.136740 -0.082084 -0.005416 -0.004405
  4 -0.361640 -14.308061 -6.406600 0.000000 0.000000 0.000000
  5 -9.522449 0.590440 -3.372560 -0.136515 -0.000880 0.027800
  6 -4.141180 -1.081730 -20.790251 0.178522 0.015624 -0.034959
  7 -3.014440 0.974200 -14.527950 -0.102098 -0.009458 0.009355
  8 0.361640 -14.494990 -6.882030 0.000000 0.000000 0.000000
  9 0.013460 -1.507020 5.475230 0.056792 0.000000 0.000000
 10 -0.004780 1.092750 22.735540 0.113986 0.000000 0.000000
 11 -0.976790 -3.346690 20.865768 0.212706 0.000000 0.000000
 12 0.975190 -4.916450 -4.520320 0.140219 0.000000 0.000000
 13 -2.406500 -8.600220 4.877150 0.000000 0.000000 0.000000
 14 4.381730 -8.600220 5.272540 0.000000 0.000000 0.000000
 15 -18.388140 0.440630 8.679390 -0.511398 -0.705188 0.790857
 16 -21.955891 -0.759690 -12.109390 -0.416389 0.000000 1.241833
 17 -13.311041 1.530050 -7.133010 -0.000905 -0.431960 0.042907
 18 -9.635210 -0.302230 -6.530870 0.000000 -1.458747 0.000000
 19 -3.126290 0.042420 -2.638810 0.370707 -1.655270 -0.321774
 20 -2.839340 -5.564580 -4.296970 0.692366 0.000000 0.000000
 21 -3.811070 -2.785450 -1.806430 0.000000 0.000000 0.000000
 22 18.455151 0.440630 8.679390 -0.356885 0.426454 -0.707773
 23 21.943432 -0.878860 -11.911369 -1.170579 0.472329 -1.047907
 24 13.133340 0.635550 -6.798010 0.018107 -0.565868 -0.280081
 25 3.689260 -4.550930 -4.829990 0.000000 0.000000 0.000000
 26 3.087020 -2.930260 -1.806420 0.000000 0.000000 0.000000
 27 10.169240 0.711430 -6.708540 0.000000 0.549607 0.000000
 28 2.770930 0.042420 -2.816470 0.000000 0.000000 0.000000
 29 -52.850708 -0.361260 -67.170868 1.570802 -0.000018 -0.000537
time 10
  0 1.278131 -1.278131 47.082100 0.061614 0.000000 -0.000048
  1 9.062670 0.286610 -3.406700 -0.126105 -0.009912 -0.026303
  2 4.544490 -1.638600 -20.622749 0.146470 0.011254 0.032035
  3 3.070910 1.647970 -15.136740 -0.081661 -0.005367 -0.003941
  4 -0.361640 -14.308061 -6.406600 0.000000 0.000000 0.000000
  5 -9.522449 0.590440 -3.372560 -0.137994 -0.000790 0.028095
  6 -4.141180 -1.081730 -20.790251 0.177721 0.015540 -0.034803
  7 -3.014440 0.974200 -14.527950 -0.101517 -0.009458 0.008889
  8 0.361640 -14.494990 -6.882030 0.000000 0.000000 0.000000
  9 0.013460 -1.507020 5.475230 0.058435 0.000000 0.000000
 10 -0.004780 1.092750 22.735540 0.117270 0.000000 0.000000
 11 -0.976790 -3.346690 20.865768 0.254455 0.000000 0.000000
 12 0.975190 -4.916450 -4.520320 0.144271 0.000000 0.000000
 13 -2.406500 -8.600220 4.877150 0.000000 0.000000 0.000000
 14 4.381730 -8.600220 5.272540 0.000000 0.000000 0.000000
 15 -18.388140 0.440630 8.679390 -0.526122 -0.689675 0.813680
 16 -21.955891 -0.759690 -12.109390 -0.458119 0.000000 1.326743
 17 -13.311041 1.530050 -7.133010 -0.000937 -0.444391 0.044142
 18 -9.635210 -0.302230 -6.530870 0.000000 -1.500774 0.000000
 19 -3.126290 0.042420 -2.638810 0.381386 -1.702979 -0.331050
 20 -2.839340 -5.564580 -4.296970 0.712300 0.000000 0.000000
 21 -3.811070 -2.785450 -1.806430 0.000000 0.000000 0.000000
 22 18.455151 0.440630 8.679390 -0.393933 0.415861 -0.739096
 23 21.943432 -0.878860 -11.911369 -1.240912 0.485935 -1.062169
 24 13.133340 0.635550 -6.798010 0.018637 -0.582151 -0.288146
 25 3.689260 -4.550930 -4.829990 0.000000 0.000000 0.000000
 26 3.087020 -2.930260 -1.806420 0.000000 0.000000 0.000000
 27 10.169240 0.711430 -6.708540 0.000000 0.565430 0.000000
 28 2.770930 0.042420 -2.816470 0.000000 0.000000 0.000000
 29 -52.850708 -0.361260 -67.170868 1.570802 -0.000018 -0.000537
time 11
  0 1.278131 -1.278131 47.043037 0.059893 0.000000 -0.002315
  1 9.062670 0.286610 -3.406700 -0.128496 -0.010643 -0.027086
  2 4.544490 -1.638600 -20.622749 0.159002 0.011997 0.034851
  3 3.070910 1.647970 -15.136740 -0.090092 -0.005684 -0.003478
  4 -0.361640 -14.308061 -6.406600 0.000000 0.000000 0.000000
  5 -9.522449 0.590440 -3.372560 -0.143114 -0.000826 0.028812
  6 -4.141180 -1.081730 -20.790251 0.191907 0.017040 -0.037452
  7 -3.014440 0.974200 -14.527950 -0.108900 -0.009900 0.013450
  8 0.361640 -14.494990 -6.882030 0.000000 0.000000 0.000000
  9 0.013460 -1.507020 5.475230 0.058435 0.000000 0.000000
 10 -0.004780 1.092750 22.735540 0.117270 0.000000 0.000000
 11 -0.976790 -3.346690 20.865768 0.280588 -0.002697 -0.011217
 12 0.975190 -4.916450 -4.520320 0.144271 0.000000 0.000000
 13 -2.406500 -8.600220 4.877150 0.000000 0.000000 0.000000
 14 4.381730 -8.600220 5.272540 0.000000 0.000000 0.000000
 15 -18.388140 0.440630 8.679390 -0.514301 -0.668629 0.790857
 16 -21.955891 -0.759690 -12.109390 -0.494129 0.000142 1.404011
 17 -13.311041 1.530050 -7.133010 -0.000937 -0.444391 0.044142
 18 -9.635210 -0.302230 -6.530870 0.000000 -1.500774 0.000000
 19 -3.126290 0.042420 -2.638810 0.381386 -1.702979 -0.331050
 20 -2.839340 -5.564580 -4.296970 0.712300 0.000000 0.000000
 21 -3.811070 -2.785450 -1.806430 0.000000 0.000000 0.000000
 22 18.455151 0.440630 8.679390 -0.414950 0.417784 -0.732542
 23 21.943432 -0.878860 -11.911369 -1.280804 0.482216 -1.053907
 24 13.133340 0.635550 -6.798010 0.018637 -0.582151 -0.288146
 25 3.689260 -4.550930 -4.829990 0.000000 0.000000 0.000000
 26 3.087020 -2.930260 -1.806420 0.000000 0.000000 0.000000
 27 10.169240 0.711430 -6.708540 0.000000 0.565430 0.000000
 28 2.770930 0.042420 -2.816470 0.000000 0.000000 0.000000
 29 -52.850708 -0.361260 -67.170868 1.570802 -0.000018 -0.000537
time 12
  0 1.278131 -1.278131 46.937565 0.055206 0.000000 -0.008512
  1 9.062670 0.286610 -3.406700 -0.134214 -0.012485 -0.027793
  2 4.544490 -1.638600 -20.622749 0.190874 0.013722 0.042030
  3 3.070910 1.647970 -15.136740 -0.111460 -0.006465 -0.003176
  4 -0.361640 -14.308061 -6.406600 0.000000 0.000000 0.000000
  5 -9.522449 0.590440 -3.372560 -0.155571 -0.000790 0.031774
  6 -4.141180 -1.081730 -20.790251 0.227408 0.020976 -0.044007
  7 -3.014440 0.974200 -14.527950 -0.127469 -0.010911 0.024256
  8 0.361640 -14.494990 -6.882030 0.000000 0.000000 0.000000
  9 0.013460 -1.507020 5.475230 0.058435 0.000000 0.000000
 10 -0.004780 1.092750 22.735540 0.117270 0.000000 0.000000
 11 -0.976790 -3.346690 20.865768 0.301232 -0.009720 -0.041353
 12 0.975190 -4.916450 -4.520320 0.144271 0.000000 0.000000
 13 -2.406500 -8.600220 4.877150 0.000000 0.000000 0.000000
 14 4.381730 -8.600220 5.272540 0.000000 0.000000 0.000000
 15 -18.388140 0.440630 8.679390 -0.482157 -0.640484 0.728965
 16 -21.955891 -0.759690 -12.109390 -0.530334 0.000567 1.480373
 17 -13.311041 1.530050 -7.133010 -0.000937 -0.444391 0.044142
 18 -9.635210 -0.302230 -6.530870 0.000000 -1.500774 0.000000
 19 -3.126290 0.042420 -2.638810 0.381386 -1.702979 -0.331050
 20 -2.839340 -5.564580 -4.296970 0.712300 0.000000 0.000000
 21 -3.811070 -2.785450 -1.806430 0.000000 0.000000 0.000000
 22 18.455151 0.440630 8.679390 -0.432049 0.422963 -0.714770
 23 21.943432 -0.878860 -11.911369 -1.313162 0.472160 -1.031613
 24 13.133340 0.635550 -6.798010 0.018637 -0.582151 -0.288146
 25 3.689260 -4.550930 -4.829990 0.000000 0.000000 0.000000
 26 3.087020 -2.930260 -1.806420 0.000000 0.000000 0.000000
 27 10.169240 0.711430 -6.708540 0.000000 0.565430 0.000000
 28 2.770930 0.042420 -2.816470 0.000000 0.000000 0.000000
 29 -52.850708 -0.361260 -67.170868 1.570802 -0.000018 -0.000537
time 13
  0 1.278131 -1.278131 46.785217 0.048301 0.000000 -0.017656
  1 9.062670 0.286610 -3.406700 -0.140556 -0.014985 -0.028960
  2 4.544490 -1.638600 -20.622749 0.233323 0.015664 0.051666
  3 3.070910 1.647970 -15.136740 -0.140490 -0.007099 -0.001739
  4 -0.361640 -14.308061 -6.406600 0.000000 0.000000 0.000000
  5 -9.522449 0.590440 -3.372560 -0.171611 -0.000646 0.035141
  6 -4.141180 -1.081730 -20.790251 0.273748 0.026460 -0.052349
  7 -3.014440 0.974200 -14.527950 -0.151260 -0.011585 0.039934
  8 0.361640 -14.494990 -6.882030 0.000000 0.000000 0.000000
  9 0.013460 -1.507020 5.475230 0.058435 0.000000 0.000000
 10 -0.004780 1.092750 22.735540 0.117270 0.000000 0.000000
 11 -0.976790 -3.346690 20.865768 0.316485 -0.019271 -0.084707
 12 0.975190 -4.916450 -4.520320 0.144271 0.000000 0.000000
 13 -2.406500 -8.600220 4.877150 0.000000 0.000000 0.000000
 14 4.381730 -8.600220 5.272540 0.000000 0.000000 0.000000
 15 -18.388140 0.440630 8.679390 -0.434806 -0.607404 0.637717
 16 -21.955891 -0.759690 -12.109390 -0.565759 0.001204 1.554188
 17 -13.311041 1.530050 -7.133010 -0.000937 -0.444391 0.044142
 18 -9.635210 -0.302230 -6.530870 0.000000 -1.500774 0.000000
 19 -3.126290 0.042420 -2.638810 0.381386 -1.702979 -0.331050
 20 -2.839340 -5.564580 -4.296970 0.712300 0.000000 0.000000
 21 -3.811070 -2.785450 -1.806430 0.000000 0.000000 0.000000
 22 18.455151 0.440630 8.679390 -0.445527 0.430597 -0.688513
 23 21.943432 -0.878860 -11.911369 -1.338813 0.457314 -0.998703
 24 13.133340 0.635550 -6.798010 0.018637 -0.582151 -0.288146
 25 3.689260 -4.550930 -4.829990 0.000000 0.000000 0.000000
 26 3.087020 -2.930260 -1.806420 0.000000 0.000000 0.000000
 27 10.169240 0.711430 -6.708540 0.000000 0.565430 0.000000
 28 2.770930 0.042420 -2.816470 0.000000 0.000000 0.000000
 29 -52.850708 -0.361260 -67.170868 1.570802 -0.000018 -0.000537
time 14
  0 1.278131 -1.278131 46.593803 0.039922 0.000000 -0.028765
  1 9.062670 0.286610 -3.406700 -0.145806 -0.017762 -0.030311
  2 4.544490 -1.638600 -20.622749 0.279538 0.017306 0.062224
  3 3.070910 1.647970 -15.136740 -0.172831 -0.007221 0.000904
  4 -0.361640 -14.308061 -6.406600 0.000000 0.000000 0.000000
  5 -9.522449 0.590440 -3.372560 -0.188334 -0.000359 0.038674
  6 -4.141180 -1.081730 -20.790251 0.323361 0.032772 -0.061002
  7 -3.014440 0.974200 -14.527950 -0.176245 -0.011480 0.058126
  8 0.361640 -14.494990 -6.882030 0.000000 0.000000 0.000000
  9 0.013460 -1.507020 5.475230 0.058435 0.000000 0.000000
 10 -0.004780 1.092750 22.735540 0.117270 0.000000 0.000000
 11 -0.976790 -3.346690 20.865768 0.326539 -0.029542 -0.135307
 12 0.975190 -4.916450 -4.520320 0.144271 0.000000 0.000000
 13 -2.406500 -8.600220 4.877150 0.000000 0.000000 0.000000
 14 4.381730 -8.600220 5.272540 0.000000 0.000000 0.000000
 15 -18.388140 0.440630 8.679390 -0.377292 -0.571644 0.526955
 16 -21.955891 -0.759690 -12.109390 -0.599429 0.001983 1.623644
 17 -13.311041 1.530050 -7.133010 -0.000937 -0.444391 0.044142
 18 -9.635210 -0.302230 -6.530870 0.000000 -1.500774 0.000000
 19 -3.126290 0.042420 -2.638810 0.381386 -1.702979 -0.331050
 20 -2.839340 -5.564580 -4.296970 0.712300 0.000000 0.000000
 21 -3.811070 -2.785450 -1.806430 0.000000 0.000000 0.000000
 22 18.455151 0.440630 8.679390 -0.455917 0.439859 -0.656666
 23 21.943432 -0.878860 -11.911369 -1.358454 0.439313 -0.958777
 24 13.133340 0.635550 -6.798010 0.018637 -0.582151 -0.288146
 25 3.689260 -4.550930 -4.829990 0.000000 0.000000 0.000000
 26 3.087020 -2.930260 -1.806420 0.000000 0.000000 0.000000
 27 10.169240 0.711430 -6.708540 0.000000 0.565430 0.000000
 28 2.770930 0.042420 -2.816470 0.000000 0.000000 0.000000
 29 -52.850708 -0.361260 -67.170868 1.570802 -0.000018 -0.000537
time 15
  0 1.278131 -1.278131 46.390671 0.030798 0.000000 -0.040781
  1 9.062670 0.286610 -3.406700 -0.149444 -0.020481 -0.031048
  2 4.544490 -1.638600 -20.622749 0.324812 0.018444 0.072651
  3 3.070910 1.647970 -15.136740 -0.205133 -0.006757 0.003941
  4 -0.361640 -14.308061 -6.406600 0.000000 0.000000 0.000000
  5 -9.522449 0.590440 -3.372560 -0.204147 0.000018 0.042041
  6 -4.141180 -1.081730 -20.790251 0.371593 0.039288 -0.069103
  7 -3.014440 0.974200 -14.527950 -0.199972 -0.010448 0.077148
  8 0.361640 -14.494990 -6.882030 0.000000 0.000000 0.000000
  9 0.013460 -1.507020 5.475230 0.058435 0.000000 0.000000
 10 -0.004780 1.092750 22.735540 0.117270 0.000000 0.000000
 11 -0.976790 -3.346690 20.865768 0.331858 -0.039034 -0.187483
 12 0.975190 -4.916450 -4.520320 0.144271 0.000000 0.000000
 13 -2.406500 -8.600220 4.877150 0.000000 0.000000 0.000000
 14 4.381730 -8.600220 5.272540 0.000000 0.000000 0.000000
 15 -18.388140 0.440630 8.679390 -0.314733 -0.535343 0.406394
 16 -21.955891 -0.759690 -12.109390 -0.630499 0.002833 1.687157
 17 -13.311041 1.530050 -7.133010 -0.000937 -0.444391 0.044142
 18 -9.635210 -0.302230 -6.530870 0.000000 -1.500774 0.000000
 19 -3.126290 0.042420 -2.638810 0.381386 -1.702979 -0.331050
 20 -2.839340 -5.564580 -4.296970 0.712300 0.000000 0.000000
 21 -3.811070 -2.785450 -1.806430 0.000000 0.000000 0.000000
 22 18.455151 0.440630 8.679390 -0.463576 0.449919 -0.621965
 23 21.943432 -0.878860 -11.911369 -1.372956 0.419707 -0.915297
 24 13.133340 0.635550 -6.798010 0.018637 -0.582151 -0.288146
 25 3.689260 -4.550930 -4.829990 0.000000 0.000000 0.000000
 26 3.087020 -2.930260 -1.806420 0.000000 0.000000 0.000000
 27 10.169240 0.711430 -6.708540 0.000000 0.565430 0.000000
 28 2.770930 0.042420 -2.816470 0.000000 0.000000 0.000000
 29 -52.850708 -0.361260 -67.170868 1.570802 -0.000018 -0.000537
time 16
  0 1.278131 -1.278131 46.187542 0.021692 0.000000 -0.052872
  1 9.062670 0.286610 -3.406700 -0.151316 -0.022981 -0.031493
  2 4.544490 -1.638600 -20.622749 0.366247 0.019079 0.082202
  3 3.070910 1.647970 -15.136740 -0.235279 -0.005733 0.007326
  4 -0.361640 -14.308061 -6.406600 0.000000 0.000000 0.000000
  5 -9.522449 0.590440 -3.372560 -0.218197 0.000467 0.045040
  6 -4.141180 -1.081730 -20.790251 0.415241 0.045552 -0.076174
  7 -3.014440 0.974200 -14.527950 -0.221023 -0.008636 0.095547
  8 0.361640 -14.494990 -6.882030 0.000000 0.000000 0.000000
  9 0.013460 -1.507020 5.475230 0.058435 0.000000 0.000000
 10 -0.004780 1.092750 22.735540 0.117270 0.000000 0.000000
 11 -0.976790 -3.346690 20.865768 0.333315 -0.046800 -0.236385
 12 0.975190 -4.916450 -4.520320 0.144271 0.000000 0.000000
 13 -2.406500 -8.600220 4.877150 0.000000 0.000000 0.000000
 14 4.381730 -8.600220 5.272540 0.000000 0.000000 0.000000
 15 -18.388140 0.440630 8.679390 -0.252173 -0.500724 0.285834
 16 -21.955891 -0.759690 -12.109390 -0.657994 0.003683 1.742971
 17 -13.311041 1.530050 -7.133010 -0.000937 -0.444391 0.044142
 18 -9.635210 -0.302230 -6.530870 0.000000 -1.500774 0.000000
 19 -3.126290 0.042420 -2.638810 0.381386 -1.702979 -0.331050
 20 -2.839340 -5.564580 -4.296970 0.712300 0.000000 0.000000
 21 -3.811070 -2.785450 -1.806430 0.000000 0.000000 0.000000
 22 18.455151 0.440630 8.679390 -0.468860 0.460010 -0.587304
 23 21.943432 -0.878860 -11.911369 -1.383060 0.400101 -0.871817
 24 13.133340 0.635550 -6.798010 0.018637 -0.582151 -0.288146
 25 3.689260 -4.550930 -4.829990 0.000000 0.000000 0.000000
 26 3.087020 -2.930260 -1.806420 0.000000 0.000000 0.000000
 27 10.169240 0.711430 -6.708540 0.000000 0.565430 0.000000
 28 2.770930 0.042420 -2.816470 0.000000 0.000000 0.000000
 29 -52.850708 -0.361260 -67.170868 1.570802 -0.000018 -0.000537
time 17
  0 1.278131 -1.278131 45.996128 0.013295 0.000000 -0.063981
  1 9.062670 0.286610 -3.406700 -0.151783 -0.025130 -0.031739
  2 4.544490 -1.638600 -20.622749 0.401524 0.019295 0.090376
  3 3.070910 1.647970 -15.136740 -0.261460 -0.004342 0.010642
  4 -0.361640 -14.308061 -6.406600 0.000000 0.000000 0.000000
  5 -9.522449 0.590440 -3.372560 -0.229858 0.000880 0.047542
  6 -4.141180 -1.081730 -20.790251 0.452415 0.051096 -0.081963
  7 -3.014440 0.974200 -14.527950 -0.238529 -0.006382 0.112003
  8 0.361640 -14.494990 -6.882030 0.000000 0.000000 0.000000
  9 0.013460 -1.507020 5.475230 0.058435 0.000000 0.000000
 10 -0.004780 1.092750 22.735540 0.117270 0.000000 0.000000
 11 -0.976790 -3.346690 20.865768 0.332125 -0.052493 -0.278224
 12 0.975190 -4.916450 -4.520320 0.144271 0.000000 0.000000
 13 -2.406500 -8.600220 4.877150 0.000000 0.000000 0.000000
 14 4.381730 -8.600220 5.272540 0.000000 0.000000 0.000000
 15 -18.388140 0.440630 8.679390 -0.194660 -0.469983 0.175030
 16 -21.955891 -0.759690 -12.109390 -0.680939 0.004462 1.789331
 17 -13.311041 1.530050 -7.133010 -0.000937 -0.444391 0.044142
 18 -9.635210 -0.302230 -6.530870 0.000000 -1.500774 0.000000
 19 -3.126290 0.042420 -2.638810 0.381386 -1.702979 -0.331050
 20 -2.839340 -5.564580 -4.296970 0.712300 0.000000 0.000000
 21 -3.811070 -2.785450 -1.806430 0.000000 0.000000 0.000000
 22 18.455151 0.440630 8.679390 -0.472304 0.469271 -0.555458
 23 21.943432 -0.878860 -11.911369 -1.389548 0.382100 -0.831845
 24 13.133340 0.635550 -6.798010 0.018637 -0.582151 -0.288146
 25 3.689260 -4.550930 -4.829990 0.000000 0.000000 0.000000
 26 3.087020 -2.930260 -1.806420 0.000000 0.000000 0.000000
 27 10.169240 0.711430 -6.708540 0.000000 0.565430 0.000000
 28 2.770930 0.042420 -2.816470 0.000000 0.000000 0.000000
 29 -52.850708 -0.361260 -67.170868 1.570802 -0.000018 -0.000537
time 18
  0 1.278131 -1.278131 45.843781 0.006408 0.000000 -0.073050
  1 9.062670 0.286610 -3.406700 -0.151524 -0.026797 -0.031493
  2 4.544490 -1.638600 -20.622749 0.428978 0.019271 0.096716
  3 3.070910 1.647970 -15.136740 -0.282020 -0.003001 0.013169
  4 -0.361640 -14.308061 -6.406600 0.000000 0.000000 0.000000
  5 -9.522449 0.590440 -3.372560 -0.238845 0.001221 0.049106
  6 -4.141180 -1.081730 -20.790251 0.481150 0.055560 -0.086313
  7 -3.014440 0.974200 -14.527950 -0.251778 -0.004065 0.125582
  8 0.361640 -14.494990 -6.882030 0.000000 0.000000 0.000000
  9 0.013460 -1.507020 5.475230 0.058435 0.000000 0.000000
 10 -0.004780 1.092750 22.735540 0.117270 0.000000 0.000000
 11 -0.976790 -3.346690 20.865768 0.329697 -0.056196 -0.310451
 12 0.975190 -4.916450 -4.520320 0.144271 0.000000 0.000000
 13 -2.406500 -8.600220 4.877150 0.000000 0.000000 0.000000
 14 4.381730 -8.600220 5.272540 0.000000 0.000000 0.000000
 15 -18.388140 0.440630 8.679390 -0.147309 -0.445316 0.083824
 16 -21.955891 -0.759690 -12.109390 -0.698554 0.005100 1.824541
 17 -13.311041 1.530050 -7.133010 -0.000937 -0.444391 0.044142
 18 -9.635210 -0.302230 -6.530870 0.000000 -1.500774 0.000000
 19 -3.126290 0.042420 -2.638810 0.381386 -1.702979 -0.331050
 20 -2.839340 -5.564580 -4.296970 0.712300 0.000000 0.000000
 21 -3.811070 -2.785450 -1.806430 0.000000 0.000000 0.000000
 22 18.455151 0.440630 8.679390 -0.474203 0.476906 -0.529201
 23 21.943432 -0.878860 -11.911369 -1.393207 0.367254 -0.798981
 24 13.133340 0.635550 -6.798010 0.018637 -0.582151 -0.288146
 25 3.689260 -4.550930 -4.829990 0.000000 0.000000 0.000000
 26 3.087020 -2.930260 -1.806420 0.000000 0.000000 0.000000
 27 10.169240 0.711430 -6.708540 0.000000 0.565430 0.000000
 28 2.770930 0.042420 -2.816470 0.000000 0.000000 0.000000
 29 -52.850708 -0.361260 -67.170868 1.570802 -0.000018 -0.000537
time 19
  0 1.278131 -1.278131 45.738308 0.001722 0.000000 -0.079246
  1 9.062670 0.286610 -3.406700 -0.150848 -0.027864 -0.031846
  2 4.544490 -1.638600 -20.622749 0.446870 0.019163 0.100850
  3 3.070910 1.647970 -15.136740 -0.295726 -0.001781 0.015488
  4 -0.361640 -14.308061 -6.406600 0.000000 0.000000 0.000000
  5 -9.522449 0.590440 -3.372560 -0.244476 0.001454 0.050688
  6 -4.141180 -1.081730 -20.790251 0.499919 0.058524 -0.089081
  7 -3.014440 0.974200 -14.527950 -0.260386 -0.002464 0.134134
  8 0.361640 -14.494990 -6.882030 0.000000 0.000000 0.000000
  9 0.013460 -1.507020 5.475230 0.058435 0.000000 0.000000
 10 -0.004780 1.092750 22.735540 0.117270 0.000000 0.000000
 11 -0.976790 -3.346690 20.865768 0.327365 -0.058233 -0.331158
 12 0.975190 -4.916450 -4.520320 0.144271 0.000000 0.000000
 13 -2.406500 -8.600220 4.877150 0.000000 0.000000 0.000000
 14 4.381730 -8.600220 5.272540 0.000000 0.000000 0.000000
 15 -18.388140 0.440630 8.679390 -0.115234 -0.428890 0.021932
 16 -21.955891 -0.759690 -12.109390 -0.709734 0.005525 1.846957
 17 -13.311041 1.530050 -7.133010 -0.000937 -0.444391 0.044142
 18 -9.635210 -0.302230 -6.530870 0.000000 -1.500774 0.000000
 19 -3.126290 0.042420 -2.638810 0.381386 -1.702979 -0.331050
 20 -2.839340 -5.564580 -4.296970 0.712300 0.000000 0.000000
 21 -3.811070 -2.785450 -1.806430 0.000000 0.000000 0.000000
 22 18.455151 0.440630 8.679390 -0.475094 0.482084 -0.511388
 23 21.943432 -0.878860 -11.911369 -1.394862 0.357197 -0.776641
 24 13.133340 0.635550 -6.798010 0.018637 -0.582151 -0.288146
 25 3.689260 -4.550930 -4.829990 0.000000 0.000000 0.000000
 26 3.087020 -2.930260 -1.806420 0.000000 0.000000 0.000000
 27 10.169240 0.711430 -6.708540 0.000000 0.565430 0.000000
 28 2.770930 0.042420 -2.816470 0.000000 0.000000 0.000000
 29 -52.850708 -0.361260 -67.170868 1.570802 -0.000018 -0.000537
time 20
  0 1.278131 -1.278131 45.699245 0.000000 0.000000 -0.081589
  1 9.062670 0.286610 -3.406700 -0.150640 -0.028259 -0.031508
  2 4.544490 -1.638600 -20.622749 0.453317 0.019103 0.102336
  3 3.070910 1.647970 -15.136740 -0.300616 -0.001439 0.015882
  4 -0.361640 -14.308061 -6.406600 0.000000 0.000000 0.000000
  5 -9.522449 0.590440 -3.372560 -0.246524 0.001544 0.051130
  6 -4.141180 -1.081730 -20.790251 0.506612 0.059604 -0.090064
  7 -3.014440 0.974200 -14.527950 -0.263448 -0.001811 0.137373
  8 0.361640 -14.494990 -6.882030 0.000000 0.000000 0.000000
  9 0.013460 -1.507020 5.475230 0.058435 0.000000 0.000000
 10 -0.004780 1.092750 22.735540 0.117270 0.000000 0.000000
 11 -0.976790 -3.346690 20.865768 0.326345 -0.058892 -0.338555
 12 0.975190 -4.916450 -4.520320 0.144271 0.000000 0.000000
 13 -2.406500 -8.600220 4.877150 0.000000 0.000000 0.000000
 14 4.381730 -8.600220 5.272540 0.000000 0.000000 0.000000
 15 -18.388140 0.440630 8.679390 -0.103344 -0.422959 -0.000848
 16 -21.955891 -0.759690 -12.109390 -0.713699 0.005702 1.854768
 17 -13.311041 1.530050 -7.133010 -0.000937 -0.444391 0.044142
 18 -9.635210 -0.302230 -6.530870 0.000000 -1.500774 0.000000
 19 -3.126290 0.042420 -2.638810 0.381386 -1.702979 -0.331050
 20 -2.839340 -5.564580 -4.296970 0.712300 0.000000 0.000000
 21 -3.811070 -2.785450 -1.806430 0.000000 0.000000 0.000000
 22 18.455151 0.440630 8.679390 -0.475272 0.483978 -0.504834
 23 21.943432 -0.878860 -11.911369 -1.395210 0.353479 -0.768425
 24 13.133340 0.635550 -6.798010 0.018637 -0.582151 -0.288146
 25 3.689260 -4.550930 -4.829990 0.000000 0.000000 0.000000
 26 3.087020 -2.930260 -1.806420 0.000000 0.000000 0.000000
 27 10.169240 0.711430 -6.708540 0.000000 0.565430 0.000000
 28 2.770930 0.042420 -2.816470 0.000000 0.000000 0.000000
 29 -52.850708 -0.361260 -67.170868 1.570802 -0.000018 -0.000537
time 21
  0 1.278131 -1.278131 46.390671 0.000000 0.000000 -0.034357
  1 9.062670 0.286610 -3.406700 -0.120907 -0.019984 -0.025198
  2 4.544490 -1.638600 -20.622749 0.326768 0.018480 0.073094
  3 3.070910 1.647970 -15.136740 -0.204594 -0.009246 -0.009112
  4 -0.361640 -14.308061 -6.406600 0.000000 0.000000 0.000000
  5 -9.522449 0.590440 -3.372560 -0.170929 -0.001508 0.035380
  6 -4.141180 -1.081730 -20.790251 0.376903 0.040044 -0.069978
  7 -3.014440 0.974200 -14.527950 -0.207870 -0.010132 0.078418
  8 0.361640 -14.494990 -6.882030 0.000000 0.000000 0.000000
  9 0.013460 -1.507020 5.475230 0.058435 0.000000 0.000000
 10 -0.004780 1.092750 22.735540 0.117270 0.000000 0.000000
 11 -0.976790 -3.346690 20.865768 0.339411 -0.055800 -0.320062
 12 0.975190 -4.916450 -4.520320 0.144271 0.000000 0.000000
 13 -2.406500 -8.600220 4.877150 0.000000 0.000000 0.000000
 14 4.381730 -8.600220 5.272540 0.000000 0.000000 0.000000
 15 -18.388140 0.440630 8.679390 -0.332706 -0.568536 0.421242
 16 -21.955891 -0.759690 -12.109390 -0.585909 0.002833 1.590756
 17 -13.311041 1.530050 -7.133010 -0.000937 -0.444391 0.044142
 18 -9.635210 -0.302230 -6.530870 0.000000 -1.500774 0.000000
 19 -3.126290 0.042420 -2.638810 0.381386 -1.702979 -0.331050
 20 -2.839340 -5.564580 -4.296970 0.712300 0.000000 0.000000
 21 -3.811070 -2.785450 -1.806430 0.000000 0.000000 0.000000
 22 18.455151 0.440630 8.679390 -0.465179 0.415447 -0.703953
 23 21.943432 -0.878860 -11.911369 -1.326096 0.638251 -1.087556
 24 13.133340 0.635550 -6.798010 -0.111200 -0.838856 -0.266410
 25 3.689260 -4.550930 -4.829990 0.000000 0.000000 0.000000
 26 3.087020 -2.930260 -1.806420 0.000000 0.000000 0.000000
 27 10.169240 0.711430 -6.708540 0.000000 0.565430 0.000000
 28 2.770930 0.042420 -2.816470 0.000000 0.000000 0.000000
 29 -52.850708 -0.361260 -67.170868 1.570802 -0.000018 -0.000537
time 22
  0 1.278131 -1.278131 47.082100 0.000000 0.000000 0.012875
  1 9.062670 0.286610 -3.406700 -0.070538 -0.008801 -0.014787
  2 4.544490 -1.638600 -20.622749 0.153931 0.011697 0.033701
  3 3.070910 1.647970 -15.136740 -0.082893 -0.007782 -0.030395
  4 -0.361640 -14.308061 -6.406600 0.000000 0.000000 0.000000
  5 -9.522449 0.590440 -3.372560 -0.073946 -0.003088 0.015160
  6 -4.141180 -1.081730 -20.790251 0.193944 0.017268 -0.037847
  7 -3.014440 0.974200 -14.527950 -0.120344 -0.009942 0.012180
  8 0.361640 -14.494990 -6.882030 0.000000 0.000000 0.000000
  9 0.013460 -1.507020 5.475230 0.058435 0.000000 0.000000
 10 -0.004780 1.092750 22.735540 0.117270 0.000000 0.000000
 11 -0.976790 -3.346690 20.865768 0.338513 -0.034336 -0.194699
 12 0.975190 -4.916450 -4.520320 0.144271 0.000000 0.000000
 13 -2.406500 -8.600220 4.877150 0.000000 0.000000 0.000000
 14 4.381730 -8.600220 5.272540 0.000000 0.000000 0.000000
 15 -18.388140 0.440630 8.679390 -0.561998 -0.714142 0.843332
 16 -21.955891 -0.759690 -12.109390 -0.458119 0.000000 1.326743
 17 -13.311041 1.530050 -7.133010 -0.000937 -0.444391 0.044142
 18 -9.635210 -0.302230 -6.530870 0.000000 -1.500774 0.000000
 19 -3.126290 0.042420 -2.638810 0.381386 -1.702979 -0.331050
 20 -2.839340 -5.564580 -4.296970 0.712300 0.000000 0.000000
 21 -3.811070 -2.785450 -1.806430 0.000000 0.000000 0.000000
 22 18.455151 0.440630 8.679390 -0.455086 0.346945 -0.903032
 23 21.943432 -0.878860 -11.911369 -1.256982 0.923023 -1.406641
 24 13.133340 0.635550 -6.798010 -0.241038 -1.095561 -0.244673
 25 3.689260 -4.550930 -4.829990 0.000000 0.000000 0.000000
 26 3.087020 -2.930260 -1.806420 0.000000 0.000000 0.000000
 27 10.169240 0.711430 -6.708540 0.000000 0.565430 0.000000
 28 2.770930 0.042420 -2.816470 0.000000 0.000000 0.000000
 29 -52.850708 -0.361260 -67.170868 1.570802 -0.000018 -0.000537
time 23
  0 1.278131 -1.278131 46.875061 0.000000 0.000000 0.012875
  1 9.062670 0.286610 -3.406700 -0.095488 -0.012763 -0.019900
  2 4.544490 -1.638600 -20.622749 0.213475 0.014801 0.047147
  3 3.070910 1.647970 -15.136740 -0.117158 -0.010953 -0.037513
  4 -0.361640 -14.308061 -6.406600 0.000000 0.000000 0.000000
  5 -9.522449 0.590440 -3.372560 -0.100737 -0.003303 0.020404
  6 -4.141180 -1.081730 -20.790251 0.259053 0.024684 -0.049736
  7 -3.014440 0.974200 -14.527950 -0.158933 -0.013102 0.020939
  8 0.361640 -14.494990 -6.882030 0.000000 0.000000 0.000000
  9 0.013460 -1.507020 5.475230 0.058435 0.000000 0.000000
 10 -0.004780 1.092750 22.735540 0.117270 0.000000 0.000000
 11 -0.976790 -3.346690 20.865768 0.301378 0.000551 0.003123
 12 0.975190 -4.916450 -4.520320 0.144271 0.000000 0.000000
 13 -2.406500 -8.600220 4.877150 0.000000 0.000000 0.000000
 14 4.381730 -8.600220 5.272540 0.000000 0.000000 0.000000
 15 -18.388140 0.440630 8.679390 -0.545477 -0.701908 0.830012
 16 -21.955891 -0.759690 -12.109390 -0.458119 0.000000 1.326743
 17 -13.311041 1.530050 -7.133010 -0.000937 -0.444391 0.044142
 18 -9.635210 -0.302230 -6.530870 0.000000 -1.500774 0.000000
 19 -3.126290 0.042420 -2.638810 0.381386 -1.702979 -0.331050
 20 -2.839340 -5.564580 -4.296970 0.712300 0.000000 0.000000
 21 -3.811070 -2.785450 -1.806430 0.000000 0.000000 0.000000
 22 18.455151 0.440630 8.679390 -0.455086 0.346945 -0.903032
 23 21.943432 -0.878860 -11.911369 -1.256982 0.923023 -1.406641
 24 13.133340 0.635550 -6.798010 -0.241038 -1.095561 -0.244673
 25 3.689260 -4.550930 -4.829990 0.000000 0.000000 0.000000
 26 3.087020 -2.930260 -1.806420 0.000000 0.000000 0.000000
 27 10.169240 0.711430 -6.708540 0.000000 0.565430 0.000000
 28 2.770930 0.042420 -2.816470 0.000000 0.000000 0.000000
 29 -52.850708 -0.361260 -67.170868 1.570802 -0.000018 -0.000537
time 24
  0 1.278131 -1.278131 46.625053 0.000000 0.000000 0.012875
  1 9.062670 0.286610 -3.406700 -0.121115 -0.017192 -0.025075
  2 4.544490 -1.638600 -20.622749 0.274975 0.017174 0.061181
  3 3.070910 1.647970 -15.136740 -0.152541 -0.014247 -0.044840
  4 -0.361640 -14.308061 -6.406600 0.000000 0.000000 0.000000
  5 -9.522449 0.590440 -3.372560 -0.127585 -0.003124 0.026034
  6 -4.141180 -1.081730 -20.790251 0.324744 0.032940 -0.061229
  7 -3.014440 0.974200 -14.527950 -0.198038 -0.016240 0.029698
  8 0.361640 -14.494990 -6.882030 0.000000 0.000000 0.000000
  9 0.013460 -1.507020 5.475230 0.058435 0.000000 0.000000
 10 -0.004780 1.092750 22.735540 0.117270 0.000000 0.000000
 11 -0.976790 -3.346690 20.865768 0.276362 0.016575 0.093560
 12 0.975190 -4.916450 -4.520320 0.144271 0.000000 0.000000
 13 -2.406500 -8.600220 4.877150 0.000000 0.000000 0.000000
 14 4.381730 -8.600220 5.272540 0.000000 0.000000 0.000000
 15 -18.388140 0.440630 8.679390 -0.526122 -0.689675 0.813680
 16 -21.955891 -0.759690 -12.109390 -0.458119 0.000000 1.326743
 17 -13.311041 1.530050 -7.133010 -0.000937 -0.444391 0.044142
 18 -9.635210 -0.302230 -6.530870 0.000000 -1.500774 0.000000
 19 -3.126290 0.042420 -2.638810 0.381386 -1.702979 -0.331050
 20 -2.839340 -5.564580 -4.296970 0.712300 0.000000 0.000000
 21 -3.811070 -2.785450 -1.806430 0.000000 0.000000 0.000000
 22 18.455151 0.440630 8.679390 -0.455086 0.346945 -0.903032
 23 21.943432 -0.878860 -11.911369 -1.256982 0.923023 -1.406641
 24 13.133340 0.635550 -6.798010 -0.241038 -1.095561 -0.244673
 25 3.689260 -4.550930 -4.829990 0.000000 0.000000 0.000000
 26 3.087020 -2.930260 -1.806420 0.000000 0.000000 0.000000
 27 10.169240 0.711430 -6.708540 0.000000 0.565430 0.000000
 28 2.770930 0.042420 -2.816470 0.000000 0.000000 0.000000
 29 -52.850708 -0.361260 -67.170868 1.570802 -0.000018 -0.000537
time 25
  0 1.278131 -1.278131 46.543022 -0.000708 0.000000 0.012875
  1 9.062670 0.286610 -3.406700 -0.128236 -0.018610 -0.026503
  2 4.544490 -1.638600 -20.622749 0.293881 0.017725 0.065532
  3 3.070910 1.647970 -15.136740 -0.163475 -0.015296 -0.047251
  4 -0.361640 -14.308061 -6.406600 0.000000 0.000000 0.000000
  5 -9.522449 0.590440 -3.372560 -0.134980 -0.003016 0.027947
  6 -4.141180 -1.081730 -20.790251 0.344749 0.035616 -0.064633
  7 -3.014440 0.974200 -14.527950 -0.210095 -0.017209 0.032238
  8 0.361640 -14.494990 -6.882030 0.000000 0.000000 0.000000
  9 0.013460 -1.507020 5.475230 0.058435 0.000000 0.000000
 10 -0.004780 1.092750 22.735540 0.117270 0.000000 0.000000
 11 -0.976790 -3.346690 20.865768 0.304487 0.013147 0.074460
 12 0.975190 -4.916450 -4.520320 0.144271 0.000000 0.000000
 13 -2.406500 -8.600220 4.877150 0.000000 0.000000 0.000000
 14 4.381730 -8.600220 5.272540 0.000000 0.000000 0.000000
 15 -18.388140 0.440630 8.679390 -0.520937 -0.690274 0.807613
 16 -21.955891 -0.759690 -12.109390 -0.458119 0.000000 1.326743
 17 -13.311041 1.530050 -7.133010 -0.027841 -0.460688 -0.003186
 18 -9.635210 -0.302230 -6.530870 0.000000 -1.500774 0.000000
 19 -3.126290 0.042420 -2.638810 0.381386 -1.702979 -0.331050
 20 -2.839340 -5.564580 -4.296970 0.712300 0.000000 0.000000
 21 -3.811070 -2.785450 -1.806430 0.000000 0.000000 0.000000
 22 18.455151 0.440630 8.679390 -0.455442 0.348839 -0.904037
 23 21.943432 -0.878860 -11.911369 -1.256982 0.923023 -1.406641
 24 13.133340 0.635550 -6.798010 -0.241038 -1.095561 -0.244673
 25 3.689260 -4.550930 -4.829990 0.000000 0.000000 0.000000
 26 3.087020 -2.930260 -1.806420 0.000000 0.000000 0.000000
 27 10.169240 0.711430 -6.708540 0.000000 0.565430 0.000000
 28 2.770930 0.042420 -2.816470 0.000000 0.000000 0.000000
 29 -52.850708 -0.361260 -67.170868 1.570802 -0.000018 -0.000537
time 26
  0 1.278131 -1.278131 46.460987 -0.002716 0.000000 0.012875
  1 9.062670 0.286610 -3.406700 -0.133590 -0.019955 -0.027946
  2 4.544490 -1.638600 -20.622749 0.312063 0.018181 0.069702
  3 3.070910 1.647970 -15.136740 -0.174101 -0.016320 -0.049523
  4 -0.361640 -14.308061 -6.406600 0.000000 0.000000 0.000000
  5 -9.522449 0.590440 -3.372560 -0.140668 -0.002908 0.029162
  6 -4.141180 -1.081730 -20.790251 0.363954 0.038232 -0.067845
  7 -3.014440 0.974200 -14.527950 -0.221700 -0.018009 0.035296
  8 0.361640 -14.494990 -6.882030 0.000000 0.000000 0.000000
  9 0.013460 -1.507020 5.475230 0.058435 0.000000 0.000000
 10 -0.004780 1.092750 22.735540 0.117270 0.000000 0.000000
 11 -0.976790 -3.346690 20.865768 0.366079 0.005645 0.032349
 12 0.975190 -4.916450 -4.520320 0.144271 0.000000 0.000000
 13 -2.406500 -8.600220 4.877150 0.000000 0.000000 0.000000
 14 4.381730 -8.600220 5.272540 0.000000 0.000000 0.000000
 15 -18.388140 0.440630 8.679390 -0.516651 -0.691813 0.801886
 16 -21.955891 -0.759690 -12.109390 -0.458119 0.000000 1.326743
 17 -13.311041 1.530050 -7.133010 -0.087079 -0.496509 -0.107320
 18 -9.635210 -0.302230 -6.530870 0.000000 -1.500774 0.000000
 19 -3.126290 0.042420 -2.638810 0.381386 -1.702979 -0.331050
 20 -2.839340 -5.564580 -4.296970 0.712300 0.000000 0.000000
 21 -3.811070 -2.785450 -1.806430 0.000000 0.000000 0.000000
 22 18.455151 0.440630 8.679390 -0.456451 0.353810 -0.906691
 23 21.943432 -0.878860 -11.911369 -1.256982 0.923023 -1.406641
 24 13.133340 0.635550 -6.798010 -0.241038 -1.095561 -0.244673
 25 3.689260 -4.550930 -4.829990 0.000000 0.000000 0.000000
 26 3.087020 -2.930260 -1.806420 0.000000 0.000000 0.000000
 27 10.169240 0.711430 -6.708540 0.000000 0.565430 0.000000
 28 2.770930 0.042420 -2.816470 0.000000 0.000000 0.000000
 29 -52.850708 -0.361260 -67.170868 1.570802 -0.000018 -0.000537
time 27
  0 1.278131 -1.278131 46.378952 -0.005834 0.000000 0.012875
  1 9.062670 0.286610 -3.406700 -0.137489 -0.021212 -0.028391
  2 4.544490 -1.638600 -20.622749 0.329159 0.018528 0.073645
  3 3.070910 1.647970 -15.136740 -0.183996 -0.017442 -0.052583
  4 -0.361640 -14.308061 -6.406600 0.000000 0.000000 0.000000
  5 -9.522449 0.590440 -3.372560 -0.144877 -0.002819 0.029714
  6 -4.141180 -1.081730 -20.790251 0.382068 0.040764 -0.070817
  7 -3.014440 0.974200 -14.527950 -0.232661 -0.018599 0.038768
  8 0.361640 -14.494990 -6.882030 0.000000 0.000000 0.000000
  9 0.013460 -1.507020 5.475230 0.058435 0.000000 0.000000
 10 -0.004780 1.092750 22.735540 0.117270 0.000000 0.000000
 11 -0.976790 -3.346690 20.865768 0.423542 -0.001654 -0.009641
 12 0.975190 -4.916450 -4.520320 0.144271 0.000000 0.000000
 13 -2.406500 -8.600220 4.877150 0.000000 0.000000 0.000000
 14 4.381730 -8.600220 5.272540 0.000000 0.000000 0.000000
 15 -18.388140 0.440630 8.679390 -0.513195 -0.694009 0.796541
 16 -21.955891 -0.759690 -12.109390 -0.458119 0.000000 1.326743
 17 -13.311041 1.530050 -7.133010 -0.146286 -0.532354 -0.211466
 18 -9.635210 -0.302230 -6.530870 0.000000 -1.500774 0.000000
 19 -3.126290 0.042420 -2.638810 0.381386 -1.702979 -0.331050
 20 -2.839340 -5.564580 -4.296970 0.712300 0.000000 0.000000
 21 -3.811070 -2.785450 -1.806430 0.000000 0.000000 0.000000
 22 18.455151 0.440630 8.679390 -0.457757 0.360882 -0.910430
 23 21.943432 -0.878860 -11.911369 -1.256982 0.923023 -1.406641
 24 13.133340 0.635550 -6.798010 -0.241038 -1.095561 -0.244673
 25 3.689260 -4.550930 -4.829990 0.000000 0.000000 0.000000
 26 3.087020 -2.930260 -1.806420 0.000000 0.000000 0.000000
 27 10.169240 0.711430 -6.708540 0.000000 0.565430 0.000000
 28 2.770930 0.042420 -2.816470 0.000000 0.000000 0.000000
 29 -52.850708 -0.361260 -67.170868 1.570802 -0.000018 -0.000537
time 28
  0 1.278131 -1.278131 46.304733 -0.009890 0.000000 0.012875
  1 9.062670 0.286610 -3.406700 -0.139776 -0.022367 -0.028883
  2 4.544490 -1.638600 -20.622749 0.345022 0.018804 0.077301
  3 3.070910 1.647970 -15.136740 -0.193313 -0.018516 -0.055342
  4 -0.361640 -14.308061 -6.406600 0.000000 0.000000 0.000000
  5 -9.522449 0.590440 -3.372560 -0.147380 -0.002747 0.030615
  6 -4.141180 -1.081730 -20.790251 0.398800 0.043152 -0.073537
  7 -3.014440 0.974200 -14.527950 -0.243010 -0.019231 0.041619
  8 0.361640 -14.494990 -6.882030 0.000000 0.000000 0.000000
  9 0.013460 -1.507020 5.475230 0.058435 0.000000 0.000000
 10 -0.004780 1.092750 22.735540 0.117270 0.000000 0.000000
 11 -0.976790 -3.346690 20.865768 0.448290 -0.004770 -0.028498
 12 0.975190 -4.916450 -4.520320 0.144271 0.000000 0.000000
 13 -2.406500 -8.600220 4.877150 0.000000 0.000000 0.000000
 14 4.381730 -8.600220 5.272540 0.000000 0.000000 0.000000
 15 -18.388140 0.440630 8.679390 -0.510430 -0.696519 0.791833
 16 -21.955891 -0.759690 -12.109390 -0.458119 0.000000 1.326743
 17 -13.311041 1.530050 -7.133010 -0.173221 -0.548652 -0.258805
 18 -9.635210 -0.302230 -6.530870 0.000000 -1.500774 0.000000
 19 -3.126290 0.042420 -2.638810 0.381386 -1.702979 -0.331050
 20 -2.839340 -5.564580 -4.296970 0.712300 0.000000 0.000000
 21 -3.811070 -2.785450 -1.806430 0.000000 0.000000 0.000000
 22 18.455151 0.440630 8.679390 -0.459301 0.368990 -0.914733
 23 21.943432 -0.878860 -11.911369 -1.256982 0.923023 -1.406641
 24 13.133340 0.635550 -6.798010 -0.241038 -1.095561 -0.244673
 25 3.689260 -4.550930 -4.829990 0.000000 0.000000 0.000000
 26 3.087020 -2.930260 -1.806420 0.000000 0.000000 0.000000
 27 10.169240 0.711430 -6.708540 0.000000 0.565430 0.000000
 28 2.770930 0.042420 -2.816470 0.000000 0.000000 0.000000
 29 -52.850708 -0.361260 -67.170868 1.570802 -0.000018 -0.000537
time 29
  0 1.278131 -1.278131 46.230511 -0.014691 0.000000 0.012875
  1 9.062670 0.286610 -3.406700 -0.140712 -0.023405 -0.029128
  2 4.544490 -1.638600 -20.622749 0.359365 0.018996 0.080632
  3 3.070910 1.647970 -15.136740 -0.201822 -0.019540 -0.058101
  4 -0.361640 -14.308061 -6.406600 0.000000 0.000000 0.000000
  5 -9.522449 0.590440 -3.372560 -0.148574 -0.002675 0.030542
  6 -4.141180 -1.081730 -20.790251 0.414077 0.045372 -0.075982
  7 -3.014440 0.974200 -14.527950 -0.252391 -0.019568 0.045091
  8 0.361640 -14.494990 -6.882030 0.000000 0.000000 0.000000
  9 0.013460 -1.507020 5.475230 0.058435 0.000000 0.000000
 10 -0.004780 1.092750 22.735540 0.117270 0.000000 0.000000
 11 -0.976790 -3.346690 20.865768 0.419972 -0.004590 -0.028286
 12 0.975190 -4.916450 -4.520320 0.144271 0.000000 0.000000
 13 -2.406500 -8.600220 4.877150 0.000000 0.000000 0.000000
 14 4.381730 -8.600220 5.272540 0.000000 0.000000 0.000000
 15 -18.388140 0.440630 8.679390 -0.508425 -0.699028 0.787888
 16 -21.955891 -0.759690 -12.109390 -0.458119 0.000000 1.326743
 17 -13.311041 1.530050 -7.133010 -0.148264 -0.524217 -0.161838
 18 -9.635210 -0.302230 -6.530870 0.000000 -1.500774 0.000000
 19 -3.126290 0.042420 -2.638810 0.381386 -1.702979 -0.331050
 20 -2.839340 -5.564580 -4.296970 0.712300 0.000000 0.000000
 21 -3.811070 -2.785450 -1.806430 0.000000 0.000000 0.000000
 22 18.455151 0.440630 8.679390 -0.460845 0.377098 -0.919035
 23 21.943432 -0.878860 -11.911369 -1.256982 0.923023 -1.406641
 24 13.133340 0.635550 -6.798010 -0.241038 -1.095561 -0.244673
 25 3.689260 -4.550930 -4.829990 0.000000 0.000000 0.000000
 26 3.087020 -2.930260 -1.806420 0.000000 0.000000 0.000000
 27 10.169240 0.711430 -6.708540 0.000000 0.565430 0.000000
 28 2.770930 0.042420 -2.816470 0.000000 0.000000 0.000000
 29 -52.850708 -0.361260 -67.170868 1.570802 -0.000018 -0.000537
time 30
  0 1.278131 -1.278131 46.168011 -0.020028 0.000000 0.012875
  1 9.062670 0.286610 -3.406700 -0.140348 -0.024297 -0.029113
  2 4.544490 -1.638600 -20.622749 0.372114 0.019127 0.083569
  3 3.070910 1.647970 -15.136740 -0.209407 -0.020540 -0.060768
  4 -0.361640 -14.308061 -6.406600 0.000000 0.000000 0.000000
  5 -9.522449 0.590440 -3.372560 -0.148347 -0.002657 0.030891
  6 -4.141180 -1.081730 -20.790251 0.427535 0.047364 -0.078116
  7 -3.014440 0.974200 -14.527950 -0.260869 -0.019947 0.047786
  8 0.361640 -14.494990 -6.882030 0.000000 0.000000 0.000000
  9 0.013460 -1.507020 5.475230 0.058435 0.000000 0.000000
 10 -0.004780 1.092750 22.735540 0.117270 0.000000 0.000000
 11 -0.976790 -3.346690 20.865768 0.353789 -0.004398 -0.028074
 12 0.975190 -4.916450 -4.520320 0.144271 0.000000 0.000000
 13 -2.406500 -8.600220 4.877150 0.000000 0.000000 0.000000
 14 4.381730 -8.600220 5.272540 0.000000 0.000000 0.000000
 15 -18.388140 0.440630 8.679390 -0.507043 -0.701224 0.784876
 16 -21.955891 -0.759690 -12.109390 -0.458119 0.000000 1.326743
 17 -13.311041 1.530050 -7.133010 -0.093420 -0.470462 0.051488
 18 -9.635210 -0.302230 -6.530870 0.000000 -1.500774 0.000000
 19 -3.126290 0.042420 -2.638810 0.381386 -1.702979 -0.331050
 20 -2.839340 -5.564580 -4.296970 0.712300 0.000000 0.000000
 21 -3.811070 -2.785450 -1.806430 0.000000 0.000000 0.000000
 22 18.455151 0.440630 8.679390 -0.462210 0.384140 -0.922775
 23 21.943432 -0.878860 -11.911369 -1.256982 0.923023 -1.406641
 24 13.133340 0.635550 -6.798010 -0.241038 -1.095561 -0.244673
 25 3.689260 -4.550930 -4.829990 0.000000 0.000000 0.000000
 26 3.087020 -2.930260 -1.806420 0.000000 0.000000 0.000000
 27 10.169240 0.711430 -6.708540 0.000000 0.565430 0.000000
 28 2.770930 0.042420 -2.816470 0.000000 0.000000 0.000000
 29 -52.850708 -0.361260 -67.170868 1.570802 -0.000018 -0.000537
time 31
  0 1.278131 -1.278131 46.109413 -0.025767 0.000000 0.012875
  1 9.062670 0.286610 -3.406700 -0.138788 -0.025043 -0.028898
  2 4.544490 -1.638600 -20.622749 0.383052 0.019211 0.086085
  3 3.070910 1.647970 -15.136740 -0.215952 -0.021443 -0.063318
  4 -0.361640 -14.308061 -6.406600 0.000000 0.000000 0.000000
  5 -9.522449 0.590440 -3.372560 -0.147095 -0.002639 0.030302
  6 -4.141180 -1.081730 -20.790251 0.439175 0.049092 -0.079925
  7 -3.014440 0.974200 -14.527950 -0.268123 -0.020011 0.050948
  8 0.361640 -14.494990 -6.882030 0.000000 0.000000 0.000000
  9 0.013460 -1.507020 5.475230 0.058435 0.000000 0.000000
 10 -0.004780 1.092750 22.735540 0.117270 0.000000 0.000000
 11 -0.976790 -3.346690 20.865768 0.283041 -0.004207 -0.027862
 12 0.975190 -4.916450 -4.520320 0.144271 0.000000 0.000000
 13 -2.406500 -8.600220 4.877150 0.000000 0.000000 0.000000
 14 4.381730 -8.600220 5.272540 0.000000 0.000000 0.000000
 15 -18.388140 0.440630 8.679390 -0.506213 -0.702764 0.782924
 16 -21.955891 -0.759690 -12.109390 -0.458119 0.000000 1.326743
 17 -13.311041 1.530050 -7.133010 -0.038546 -0.416683 0.264814
 18 -9.635210 -0.302230 -6.530870 0.000000 -1.500774 0.000000
 19 -3.126290 0.042420 -2.638810 0.381386 -1.702979 -0.331050
 20 -2.839340 -5.564580 -4.296970 0.712300 0.000000 0.000000
 21 -3.811070 -2.785450 -1.806430 0.000000 0.000000 0.000000
 22 18.455151 0.440630 8.679390 -0.463160 0.389141 -0.925429
 23 21.943432 -0.878860 -11.911369 -1.256982 0.923023 -1.406641
 24 13.133340 0.635550 -6.798010 -0.241038 -1.095561 -0.244673
 25 3.689260 -4.550930 -4.829990 0.000000 0.000000 0.000000
 26 3.087020 -2.930260 -1.806420 0.000000 0.000000 0.000000
 27 10.169240 0.711430 -6.708540 0.000000 0.565430 0.000000
 28 2.770930 0.042420 -2.816470 0.000000 0.000000 0.000000
 29 -52.850708 -0.361260 -67.170868 1.570802 -0.000018 -0.000537
time 32
  0 1.278131 -1.278131 46.066444 -0.031678 0.000000 0.012875
  1 9.062670 0.286610 -3.406700 -0.136241 -0.025642 -0.028484
  2 4.544490 -1.638600 -20.622749 0.391890 0.019271 0.088135
  3 3.070910 1.647970 -15.136740 -0.221304 -0.022248 -0.065636
  4 -0.361640 -14.308061 -6.406600 0.000000 0.000000 0.000000
  5 -9.522449 0.590440 -3.372560 -0.144650 -0.002657 0.030174
  6 -4.141180 -1.081730 -20.790251 0.448632 0.050532 -0.081387
  7 -3.014440 0.974200 -14.527950 -0.274216 -0.020158 0.053203
  8 0.361640 -14.494990 -6.882030 0.000000 0.000000 0.000000
  9 0.013460 -1.507020 5.475230 0.058435 0.000000 0.000000
 10 -0.004780 1.092750 22.735540 0.117270 0.000000 0.000000
 11 -0.976790 -3.346690 20.865768 0.250910 -0.004003 -0.027619
 12 0.975190 -4.916450 -4.520320 0.144271 0.000000 0.000000
 13 -2.406500 -8.600220 4.877150 0.000000 0.000000 0.000000
 14 4.381730 -8.600220 5.272540 0.000000 0.000000 0.000000
 15 -18.388140 0.440630 8.679390 -0.505937 -0.703334 0.782246
 16 -21.955891 -0.759690 -12.109390 -0.458119 0.000000 1.326743
 17 -13.311041 1.530050 -7.133010 -0.013588 -0.392248 0.361781
 18 -9.635210 -0.302230 -6.530870 0.000000 -1.500774 0.000000
 19 -3.126290 0.042420 -2.638810 0.381386 -1.702979 -0.331050
 20 -2.839340 -5.564580 -4.296970 0.712300 0.000000 0.000000
 21 -3.811070 -2.785450 -1.806430 0.000000 0.000000 0.000000
 22 18.455151 0.440630 8.679390 -0.463517 0.391035 -0.926434
 23 21.943432 -0.878860 -11.911369 -1.256982 0.923023 -1.406641
 24 13.133340 0.635550 -6.798010 -0.241038 -1.095561 -0.244673
 25 3.689260 -4.550930 -4.829990 0.000000 0.000000 0.000000
 26 3.087020 -2.930260 -1.806420 0.000000 0.000000 0.000000
 27 10.169240 0.711430 -6.708540 0.000000 0.565430 0.000000
 28 2.770930 0.042420 -2.816470 0.000000 0.000000 0.000000
 29 -52.850708 -0.361260 -67.170868 1.570802 -0.000018 -0.000537
time 33
  0 1.278131 -1.278131 46.031288 -0.037569 0.000000 0.012875
  1 9.062670 0.286610 -3.406700 -0.132758 -0.026066 -0.027900
  2 4.544490 -1.638600 -20.622749 0.398482 0.019295 0.089669
  3 3.070910 1.647970 -15.136740 -0.225385 -0.022956 -0.067677
  4 -0.361640 -14.308061 -6.406600 0.000000 0.000000 0.000000
  5 -9.522449 0.590440 -3.372560 -0.141350 -0.002675 0.029493
  6 -4.141180 -1.081730 -20.790251 0.455761 0.051612 -0.082478
  7 -3.014440 0.974200 -14.527950 -0.278890 -0.020095 0.055457
  8 0.361640 -14.494990 -6.882030 0.000000 0.000000 0.000000
  9 0.013460 -1.507020 5.475230 0.058435 0.000000 0.000000
 10 -0.004780 1.092750 22.735540 0.117270 0.000000 0.000000
 11 -0.976790 -3.346690 20.865768 0.283187 -0.003799 -0.027407
 12 0.975190 -4.916450 -4.520320 0.144271 0.000000 0.000000
 13 -2.406500 -8.600220 4.877150 0.000000 0.000000 0.000000
 14 4.381730 -8.600220 5.272540 0.000000 0.000000 0.000000
 15 -18.388140 0.440630 8.679390 -0.506835 -0.702764 0.783603
 16 -21.955891 -0.759690 -12.109390 -0.458119 0.000000 1.326743
 17 -13.311041 1.530050 -7.133010 -0.013588 -0.392248 0.361781
 18 -9.635210 -0.302230 -6.530870 0.000000 -1.500774 0.000000
 19 -3.126290 0.042420 -2.638810 0.381386 -1.702979 -0.331050
 20 -2.839340 -5.564580 -4.296970 0.712300 0.000000 0.000000
 21 -3.811070 -2.785450 -1.806430 0.000000 0.000000 0.000000
 22 18.455151 0.440630 8.679390 -0.463457 0.389141 -0.926273
 23 21.943432 -0.878860 -11.911369 -1.256982 0.923023 -1.406641
 24 13.133340 0.635550 -6.798010 -0.241038 -1.095561 -0.244673
 25 3.689260 -4.550930 -4.829990 0.000000 0.000000 0.000000
 26 3.087020 -2.930260 -1.806420 0.000000 0.000000 0.000000
 27 10.169240 0.711430 -6.708540 0.000000 0.565430 0.000000
 28 2.770930 0.042420 -2.816470 0.000000 0.000000 0.000000
 29 -52.850708 -0.361260 -67.170868 1.570802 -0.000018 -0.000537
time 34
  0 1.278131 -1.278131 46.007847 -0.043308 0.000000 0.012875
  1 9.062670 0.286610 -3.406700 -0.128496 -0.026285 -0.027148
  2 4.544490 -1.638600 -20.622749 0.402683 0.019295 0.090639
  3 3.070910 1.647970 -15.136740 -0.228080 -0.023492 -0.069392
  4 -0.361640 -14.308061 -6.406600 0.000000 0.000000 0.000000
  5 -9.522449 0.590440 -3.372560 -0.137255 -0.002711 0.028297
  6 -4.141180 -1.081730 -20.790251 0.460417 0.052320 -0.083185
  7 -3.014440 0.974200 -14.527950 -0.281921 -0.019863 0.057634
  8 0.361640 -14.494990 -6.882030 0.000000 0.000000 0.000000
  9 0.013460 -1.507020 5.475230 0.058435 0.000000 0.000000
 10 -0.004780 1.092750 22.735540 0.117270 0.000000 0.000000
 11 -0.976790 -3.346690 20.865768 0.347839 -0.003619 -0.027164
 12 0.975190 -4.916450 -4.520320 0.144271 0.000000 0.000000
 13 -2.406500 -8.600220 4.877150 0.000000 0.000000 0.000000
 14 4.381730 -8.600220 5.272540 0.000000 0.000000 0.000000
 15 -18.388140 0.440630 8.679390 -0.509117 -0.701224 0.787166
 16 -21.955891 -0.759690 -12.109390 -0.458119 0.000000 1.326743
 17 -13.311041 1.530050 -7.133010 -0.013588 -0.392248 0.361781
 18 -9.635210 -0.302230 -6.530870 0.000000 -1.500774 0.000000
 19 -3.126290 0.042420 -2.638810 0.381386 -1.702979 -0.331050
 20 -2.839340 -5.564580 -4.296970 0.712300 0.000000 0.000000
 21 -3.811070 -2.785450 -1.806430 0.000000 0.000000 0.000000
 22 18.455151 0.440630 8.679390 -0.463279 0.384140 -0.925670
 23 21.943432 -0.878860 -11.911369 -1.256982 0.923023 -1.406641
 24 13.133340 0.635550 -6.798010 -0.241038 -1.095561 -0.244673
 25 3.689260 -4.550930 -4.829990 0.000000 0.000000 0.000000
 26 3.087020 -2.930260 -1.806420 0.000000 0.000000 0.000000
 27 10.169240 0.711430 -6.708540 0.000000 0.565430 0.000000
 28 2.770930 0.042420 -2.816470 0.000000 0.000000 0.000000
 29 -52.850708 -0.361260 -67.170868 1.570802 -0.000018 -0.000537
time 35
  0 1.278131 -1.278131 46.000034 -0.048645 0.000000 0.012875
  1 9.062670 0.286610 -3.406700 -0.123506 -0.026315 -0.026257
  2 4.544490 -1.638600 -20.622749 0.404204 0.019307 0.090999
  3 3.070910 1.647970 -15.136740 -0.229196 -0.023858 -0.070737
  4 -0.361640 -14.308061 -6.406600 0.000000 0.000000 0.000000
  5 -9.522449 0.590440 -3.372560 -0.132363 -0.002765 0.027285
  6 -4.141180 -1.081730 -20.790251 0.462236 0.052608 -0.083473
  7 -3.014440 0.974200 -14.527950 -0.283372 -0.019610 0.059008
  8 0.361640 -14.494990 -6.882030 0.000000 0.000000 0.000000
  9 0.013460 -1.507020 5.475230 0.058435 0.000000 0.000000
 10 -0.004780 1.092750 22.735540 0.117270 0.000000 0.000000
 11 -0.976790 -3.346690 20.865768 0.408192 -0.003440 -0.026983
 12 0.975190 -4.916450 -4.520320 0.144271 0.000000 0.000000
 13 -2.406500 -8.600220 4.877150 0.000000 0.000000 0.000000
 14 4.381730 -8.600220 5.272540 0.000000 0.000000 0.000000
 15 -18.388140 0.440630 8.679390 -0.512366 -0.699028 0.792172
 16 -21.955891 -0.759690 -12.109390 -0.458119 0.000000 1.326743
 17 -13.311041 1.530050 -7.133010 -0.013588 -0.392248 0.361781
 18 -9.635210 -0.302230 -6.530870 0.000000 -1.500774 0.000000
 19 -3.126290 0.042420 -2.638810 0.381386 -1.702979 -0.331050
 20 -2.839340 -5.564580 -4.296970 0.712300 0.000000 0.000000
 21 -3.811070 -2.785450 -1.806430 0.000000 0.000000 0.000000
 22 18.455151 0.440630 8.679390 -0.462804 0.377098 -0.924464
 23 21.943432 -0.878860 -11.911369 -1.256982 0.923023 -1.406641
 24 13.133340 0.635550 -6.798010 -0.241038 -1.095528 -0.244673
 25 3.689260 -4.550930 -4.829990 0.000000 0.000000 0.000000
 26 3.087020 -2.930260 -1.806420 0.000000 0.000000 0.000000
 27 10.169240 0.711430 -6.708540 0.000000 0.565430 0.000000
 28 2.770930 0.042420 -2.816470 0.000000 0.000000 0.000000
 29 -52.850708 -0.361260 -67.170868 1.570802 -0.000018 -0.000537
time 36
  0 1.278131 -1.278131 46.113319 -0.053446 0.000000 0.012875
  1 9.062670 0.286610 -3.406700 -0.109939 -0.024560 -0.023585
  2 4.544490 -1.638600 -20.622749 0.383632 0.019223 0.086229
  3 3.070910 1.647970 -15.136740 -0.217531 -0.022809 -0.069323
  4 -0.361640 -14.308061 -6.406600 0.000000 0.000000 0.000000
  5 -9.522449 0.590440 -3.372560 -0.118712 -0.003142 0.024728
  6 -4.141180 -1.081730 -20.790251 0.441212 0.049404 -0.080249
  7 -3.014440 0.974200 -14.527950 -0.271024 -0.018641 0.056701
  8 0.361640 -14.494990 -6.882030 0.000000 0.000000 0.000000
  9 0.013460 -1.507020 5.475230 0.058435 0.000000 0.000000
 10 -0.004780 1.092750 22.735540 0.117270 0.000000 0.000000
 11 -0.976790 -3.346690 20.865768 0.437871 -0.003284 -0.026801
 12 0.975190 -4.916450 -4.520320 0.144271 0.000000 0.000000
 13 -2.406500 -8.600220 4.877150 0.000000 0.000000 0.000000
 14 4.381730 -8.600220 5.272540 0.000000 0.000000 0.000000
 15 -18.388140 0.440630 8.679390 -0.516029 -0.696519 0.797941
 16 -21.955891 -0.759690 -12.109390 -0.458119 0.000000 1.326743
 17 -13.311041 1.530050 -7.133010 -0.013588 -0.392248 0.361781
 18 -9.635210 -0.302230 -6.530870 0.000000 -1.500774 0.000000
 19 -3.126290 0.042420 -2.638810 0.381386 -1.702979 -0.331050
 20 -2.839340 -5.564580 -4.296970 0.712300 0.000000 0.000000
 21 -3.811070 -2.785450 -1.806430 0.000000 0.000000 0.000000
 22 18.455151 0.440630 8.679390 -0.462092 0.368990 -0.922493
 23 21.943432 -0.878860 -11.911369 -1.256982 0.923023 -1.406641
 24 13.133340 0.635550 -6.798010 -0.241038 -1.095561 -0.244673
 25 3.689260 -4.550930 -4.829990 0.000000 0.000000 0.000000
 26 3.087020 -2.930260 -1.806420 0.000000 0.000000 0.000000
 27 10.169240 0.711430 -6.708540 0.000000 0.565430 0.000000
 28 2.770930 0.042420 -2.816470 0.000000 0.000000 0.000000
 29 -52.850708 -0.361260 -67.170868 1.570802 -0.000018 -0.000537
time 37
  0 1.278131 -1.278131 46.378952 -0.057502 0.000000 0.012875
  1 9.062670 0.286610 -3.406700 -0.083949 -0.020423 -0.018272
  2 4.544490 -1.638600 -20.622749 0.330970 0.018564 0.074065
  3 3.070910 1.647970 -15.136740 -0.187423 -0.019735 -0.063990
  4 -0.361640 -14.308061 -6.406600 0.000000 0.000000 0.000000
  5 -9.522449 0.590440 -3.372560 -0.092375 -0.003680 0.019116
  6 -4.141180 -1.081730 -20.790251 0.386942 0.041460 -0.071620
  7 -3.014440 0.974200 -14.527950 -0.238658 -0.016388 0.050015
  8 0.361640 -14.494990 -6.882030 0.000000 0.000000 0.000000
  9 0.013460 -1.507020 5.475230 0.058435 0.000000 0.000000
 10 -0.004780 1.092750 22.735540 0.117270 0.000000 0.000000
 11 -0.976790 -3.346690 20.865768 0.431605 -0.003164 -0.026649
 12 0.975190 -4.916450 -4.520320 0.144271 0.000000 0.000000
 13 -2.406500 -8.600220 4.877150 0.000000 0.000000 0.000000
 14 4.381730 -8.600220 5.272540 0.000000 0.000000 0.000000
 15 -18.388140 0.440630 8.679390 -0.519762 -0.694009 0.803711
 16 -21.955891 -0.759690 -12.109390 -0.458119 0.000000 1.326743
 17 -13.311041 1.530050 -7.133010 -0.013588 -0.392248 0.361781
 18 -9.635210 -0.302230 -6.530870 0.000000 -1.500774 0.000000
 19 -3.126290 0.042420 -2.638810 0.381386 -1.702979 -0.331050
 20 -2.839340 -5.564580 -4.296970 0.712300 0.000000 0.000000
 21 -3.811070 -2.785450 -1.806430 0.000000 0.000000 0.000000
 22 18.455151 0.440630 8.679390 -0.461023 0.360882 -0.919518
 23 21.943432 -0.878860 -11.911369 -1.256982 0.923023 -1.406641
 24 13.133340 0.635550 -6.798010 -0.241038 -1.095561 -0.244673
 25 3.689260 -4.550930 -4.829990 0.000000 0.000000 0.000000
 26 3.087020 -2.930260 -1.806420 0.000000 0.000000 0.000000
 27 10.169240 0.711430 -6.708540 0.000000 0.565430 0.000000
 28 2.770930 0.042420 -2.816470 0.000000 0.000000 0.000000
 29 -52.850708 -0.361260 -67.170868 1.570802 -0.000018 -0.000537
time 38
  0 1.278131 -1.278131 46.699276 -0.060620 0.000000 0.012875
  1 9.062670 0.286610 -3.406700 -0.051253 -0.015321 -0.011793
  2 4.544490 -1.638600 -20.622749 0.260198 0.016683 0.057790
  3 3.070910 1.647970 -15.136740 -0.146920 -0.015418 -0.055991
  4 -0.361640 -14.308061 -6.406600 0.000000 0.000000 0.000000
  5 -9.522449 0.590440 -3.372560 -0.058986 -0.003896 0.012051
  6 -4.141180 -1.081730 -20.790251 0.313249 0.031440 -0.059264
  7 -3.014440 0.974200 -14.527950 -0.194653 -0.013354 0.040712
  8 0.361640 -14.494990 -6.882030 0.000000 0.000000 0.000000
  9 0.013460 -1.507020 5.475230 0.058435 0.000000 0.000000
 10 -0.004780 1.092750 22.735540 0.117270 0.000000 0.000000
 11 -0.976790 -3.346690 20.865768 0.405278 -0.003056 -0.026528
 12 0.975190 -4.916450 -4.520320 0.144271 0.000000 0.000000
 13 -2.406500 -8.600220 4.877150 0.000000 0.000000 0.000000
 14 4.381730 -8.600220 5.272540 0.000000 0.000000 0.000000
 15 -18.388140 0.440630 8.679390 -0.522942 -0.691813 0.808759
 16 -21.955891 -0.759690 -12.109390 -0.458119 0.000000 1.326743
 17 -13.311041 1.530050 -7.133010 -0.013588 -0.392248 0.361781
 18 -9.635210 -0.302230 -6.530870 0.000000 -1.500774 0.000000
 19 -3.126290 0.042420 -2.638810 0.381386 -1.702979 -0.331050
 20 -2.839340 -5.564580 -4.296970 0.712300 0.000000 0.000000
 21 -3.811070 -2.785450 -1.806430 0.000000 0.000000 0.000000
 22 18.455151 0.440630 8.679390 -0.459539 0.353810 -0.915416
 23 21.943432 -0.878860 -11.911369 -1.256982 0.923023 -1.406641
 24 13.133340 0.635550 -6.798010 -0.241038 -1.095561 -0.244673
 25 3.689260 -4.550930 -4.829990 0.000000 0.000000 0.000000
 26 3.087020 -2.930260 -1.806420 0.000000 0.000000 0.000000
 27 10.169240 0.711430 -6.708540 0.000000 0.565430 0.000000
 28 2.770930 0.042420 -2.816470 0.000000 0.000000 0.000000
 29 -52.850708 -0.361260 -67.170868 1.570802 -0.000018 -0.000537
time 39
  0 1.278131 -1.278131 46.968815 -0.062628 0.000000 0.012875
  1 9.062670 0.286610 -3.406700 -0.020272 -0.010862 -0.004868
  2 4.544490 -1.638600 -20.622749 0.190802 0.013722 0.042018
  3 3.070910 1.647970 -15.136740 -0.107071 -0.011270 -0.048549
  4 -0.361640 -14.308061 -6.406600 0.000000 0.000000 0.000000
  5 -9.522449 0.590440 -3.372560 -0.026848 -0.003555 0.004986
  6 -4.141180 -1.081730 -20.790251 0.239775 0.022404 -0.046261
  7 -3.014440 0.974200 -14.527950 -0.150938 -0.010279 0.031823
  8 0.361640 -14.494990 -6.882030 0.000000 0.000000 0.000000
  9 0.013460 -1.507020 5.475230 0.058435 0.000000 0.000000
 10 -0.004780 1.092750 22.735540 0.117270 0.000000 0.000000
 11 -0.976790 -3.346690 20.865768 0.367074 -0.002996 -0.026437
 12 0.975190 -4.916450 -4.520320 0.144271 0.000000 0.000000
 13 -2.406500 -8.600220 4.877150 0.000000 0.000000 0.000000
 14 4.381730 -8.600220 5.272540 0.000000 0.000000 0.000000
 15 -18.388140 0.440630 8.679390 -0.525292 -0.690274 0.812322
 16 -21.955891 -0.759690 -12.109390 -0.458119 0.000000 1.326743
 17 -13.311041 1.530050 -7.133010 -0.013588 -0.392248 0.361781
 18 -9.635210 -0.302230 -6.530870 0.000000 -1.500774 0.000000
 19 -3.126290 0.042420 -2.638810 0.381386 -1.702979 -0.331050
 20 -2.839340 -5.564580 -4.296970 0.712300 0.000000 0.000000
 21 -3.811070 -2.785450 -1.806430 0.000000 0.000000 0.000000
 22 18.455151 0.440630 8.679390 -0.457579 0.348839 -0.909988
 23 21.943432 -0.878860 -11.911369 -1.256982 0.923023 -1.406641
 24 13.133340 0.635550 -6.798010 -0.241038 -1.095561 -0.244673
 25 3.689260 -4.550930 -4.829990 0.000000 0.000000 0.000000
 26 3.087020 -2.930260 -1.806420 0.000000 0.000000 0.000000
 27 10.169240 0.711430 -6.708540 0.000000 0.565430 0.000000
 28 2.770930 0.042420 -2.816470 0.000000 0.000000 0.000000
 29 -52.850708 -0.361260 -67.170868 1.570802 -0.000018 -0.000537
time 40
  0 1.278131 -1.278131 47.082100 -0.063355 0.000000 0.012875
  1 9.062670 0.286610 -3.406700 -0.005666 -0.008874 -0.001735
  2 4.544490 -1.638600 -20.622749 0.157625 0.011913 0.034540
  3 3.070910 1.647970 -15.136740 -0.088013 -0.009270 -0.044747
  4 -0.361640 -14.308061 -6.406600 0.000000 0.000000 0.000000
  5 -9.522449 0.590440 -3.372560 -0.011319 -0.003231 0.002116
  6 -4.141180 -1.081730 -20.790251 0.203983 0.018360 -0.039705
  7 -3.014440 0.974200 -14.527950 -0.129758 -0.008826 0.027055
  8 0.361640 -14.494990 -6.882030 0.000000 0.000000 0.000000
  9 0.013460 -1.507020 5.475230 0.058435 0.000000 0.000000
 10 -0.004780 1.092750 22.735540 0.117270 0.000000 0.000000
 11 -0.976790 -3.346690 20.865768 0.326029 -0.002972 -0.026437
 12 0.975190 -4.916450 -4.520320 0.144271 0.000000 0.000000
 13 -2.406500 -8.600220 4.877150 0.000000 0.000000 0.000000
 14 4.381730 -8.600220 5.272540 0.000000 0.000000 0.000000
 15 -18.388140 0.440630 8.679390 -0.526122 -0.689675 0.813680
 16 -21.955891 -0.759690 -12.109390 -0.458119 0.000000 1.326743
 17 -13.311041 1.530050 -7.133010 -0.013588 -0.392248 0.361781
 18 -9.635210 -0.302230 -6.530870 0.000000 -1.500774 0.000000
 19 -3.126290 0.042420 -2.638810 0.381386 -1.702979 -0.331050
 20 -2.839340 -5.564580 -4.296970 0.712300 0.000000 0.000000
 21 -3.811070 -2.785450 -1.806430 0.000000 0.000000 0.000000
 22 18.455151 0.440630 8.679390 -0.455086 0.346945 -0.903032
 23 21.943432 -0.878860 -11.911369 -1.256982 0.923023 -1.406641
 24 13.133340 0.635550 -6.798010 -0.241038 -1.095561 -0.244673
 25 3.689260 -4.550930 -4.829990 0.000000 0.000000 0.000000
 26 3.087020 -2.930260 -1.806420 0.000000 0.000000 0.000000
 27 10.169240 0.711430 -6.708540 0.000000 0.565430 0.000000
 28 2.770930 0.042420 -2.816470 0.000000 0.000000 0.000000
 29 -52.850708 -0.361260 -67.170868 1.570802 -0.000018 -0.000537
time 41
  0 1.278131 -1.278131 47.082100 -0.061576 0.000000 0.012573
  1 9.062670 0.286610 -3.406700 -0.007433 -0.008874 -0.002088
  2 4.544490 -1.638600 -20.622749 0.157843 0.011925 0.034588
  3 3.070910 1.647970 -15.136740 -0.088206 -0.009221 -0.044074
  4 -0.361640 -14.308061 -6.406600 0.000000 0.000000 0.000000
  5 -9.522449 0.590440 -3.372560 -0.013424 -0.003249 0.002557
  6 -4.141180 -1.081730 -20.790251 0.204129 0.018372 -0.039729
  7 -3.014440 0.974200 -14.527950 -0.129564 -0.008826 0.027003
  8 0.361640 -14.494990 -6.882030 0.000000 0.000000 0.000000
  9 0.013460 -1.507020 5.475230 0.056792 0.000000 0.000000
 10 -0.004780 1.092750 22.735540 0.113986 0.000000 0.000000
 11 -0.976790 -3.346690 20.865768 0.277990 -0.002780 -0.025376
 12 0.975190 -4.916450 -4.520320 0.140219 0.000000 0.000000
 13 -2.406500 -8.600220 4.877150 0.000000 0.000000 0.000000
 14 4.381730 -8.600220 5.272540 0.000000 0.000000 0.000000
 15 -18.388140 0.440630 8.679390 -0.511398 -0.691585 0.790857
 16 -21.955891 -0.759690 -12.109390 -0.445249 0.000000 1.298327
 17 -13.311041 1.530050 -7.133010 -0.013211 -0.381265 0.351654
 18 -9.635210 -0.302230 -6.530870 0.000000 -1.458747 0.000000
 19 -3.126290 0.042420 -2.638810 0.370707 -1.655270 -0.321774
 20 -2.839340 -5.564580 -4.296970 0.692366 0.000000 0.000000
 21 -3.811070 -2.785450 -1.806430 0.000000 0.000000 0.000000
 22 18.455151 0.440630 8.679390 -0.432881 0.359432 -0.860812
 23 21.943432 -0.878860 -11.911369 -1.221794 0.897191 -1.378023
 24 13.133340 0.635550 -6.798010 -0.234295 -1.064869 -0.237838
 25 3.689260 -4.550930 -4.829990 0.000000 0.000000 0.000000
 26 3.087020 -2.930260 -1.806420 0.000000 0.000000 0.000000
 27 10.169240 0.711430 -6.708540 0.000000 0.549607 0.000000
 28 2.770930 0.042420 -2.816470 0.000000 0.000000 0.000000
 29 -52.850708 -0.361260 -67.170868 1.570802 -0.000018 -0.000537
time 42
  0 1.278131 -1.278131 47.078194 -0.056756 0.000000 0.011590
  1 9.062670 0.286610 -3.406700 -0.012319 -0.008859 -0.003056
  2 4.544490 -1.638600 -20.622749 0.158494 0.011961 0.034731
  3 3.070910 1.647970 -15.136740 -0.088822 -0.009099 -0.042220
  4 -0.361640 -14.308061 -6.406600 0.000000 0.000000 0.000000
  5 -9.522449 0.590440 -3.372560 -0.019055 -0.003303 0.003735
  6 -4.141180 -1.081730 -20.790251 0.204347 0.018396 -0.039777
  7 -3.014440 0.974200 -14.527950 -0.128984 -0.008868 0.026873
  8 0.361640 -14.494990 -6.882030 0.000000 0.000000 0.000000
  9 0.013460 -1.507020 5.475230 0.052343 0.000000 0.000000
 10 -0.004780 1.092750 22.735540 0.105075 0.000000 0.000000
 11 -0.976790 -3.346690 20.865768 0.218826 -0.002289 -0.022708
 12 0.975190 -4.916450 -4.520320 0.129256 0.000000 0.000000
 13 -2.406500 -8.600220 4.877150 0.000000 0.000000 0.000000
 14 4.381730 -8.600220 5.272540 0.000000 0.000000 0.000000
 15 -18.388140 0.440630 8.679390 -0.471374 -0.696804 0.729049
 16 -21.955891 -0.759690 -12.109390 -0.410474 0.000000 1.221228
 17 -13.311041 1.530050 -7.133010 -0.012175 -0.351469 0.324150
 18 -9.635210 -0.302230 -6.530870 0.000000 -1.344683 0.000000
 19 -3.126290 0.042420 -2.638810 0.341729 -1.525862 -0.296619
 20 -2.839340 -5.564580 -4.296970 0.638236 0.000000 0.000000
 21 -3.811070 -2.785450 -1.806430 0.000000 0.000000 0.000000
 22 18.455151 0.440630 8.679390 -0.377249 0.393402 -0.759604
 23 21.943432 -0.878860 -11.911369 -1.126245 0.827047 -1.300248
 24 13.133340 0.635550 -6.798010 -0.215969 -0.981618 -0.219228
 25 3.689260 -4.550930 -4.829990 0.000000 0.000000 0.000000
 26 3.087020 -2.930260 -1.806420 0.000000 0.000000 0.000000
 27 10.169240 0.711430 -6.708540 0.000000 0.506605 0.000000
 28 2.770930 0.042420 -2.816470 0.000000 0.000000 0.000000
 29 -52.850708 -0.361260 -67.170868 1.570802 -0.000018 -0.000537
time 43
  0 1.278131 -1.278131 47.074287 -0.049659 0.000000 0.010079
  1 9.062670 0.286610 -3.406700 -0.019441 -0.008845 -0.004821
  2 4.544490 -1.638600 -20.622749 0.159436 0.012021 0.034935
  3 3.070910 1.647970 -15.136740 -0.089746 -0.008880 -0.039136
  4 -0.361640 -14.308061 -6.406600 0.000000 0.000000 0.000000
  5 -9.522449 0.590440 -3.372560 -0.027360 -0.003321 0.005133
  6 -4.141180 -1.081730 -20.790251 0.204638 0.018432 -0.039825
  7 -3.014440 0.974200 -14.527950 -0.128081 -0.008868 0.027029
  8 0.361640 -14.494990 -6.882030 0.000000 0.000000 0.000000
  9 0.013460 -1.507020 5.475230 0.045807 0.000000 0.000000
 10 -0.004780 1.092750 22.735540 0.091939 0.000000 0.000000
 11 -0.976790 -3.346690 20.865768 0.158959 -0.001678 -0.019100
 12 0.975190 -4.916450 -4.520320 0.113078 0.000000 0.000000
 13 -2.406500 -8.600220 4.877150 0.000000 0.000000 0.000000
 14 4.381730 -8.600220 5.272540 0.000000 0.000000 0.000000
 15 -18.388140 0.440630 8.679390 -0.412478 -0.704503 0.637886
 16 -21.955891 -0.759690 -12.109390 -0.359124 0.000000 1.107619
 17 -13.311041 1.530050 -7.133010 -0.010637 -0.307535 0.283630
 18 -9.635210 -0.302230 -6.530870 0.000000 -1.176578 0.000000
 19 -3.126290 0.042420 -2.638810 0.299004 -1.335130 -0.259538
 20 -2.839340 -5.564580 -4.296970 0.558453 0.000000 0.000000
 21 -3.811070 -2.785450 -1.806430 0.000000 0.000000 0.000000
 22 18.455151 0.440630 8.679390 -0.296741 0.443439 -0.614325
 23 21.943432 -0.878860 -11.911369 -0.985492 0.723663 -1.185640
 24 13.133340 0.635550 -6.798010 -0.188965 -0.858916 -0.191836
 25 3.689260 -4.550930 -4.829990 0.000000 0.000000 0.000000
 26 3.087020 -2.930260 -1.806420 0.000000 0.000000 0.000000
 27 10.169240 0.711430 -6.708540 0.000000 0.443267 0.000000
 28 2.770930 0.042420 -2.816470 0.000000 0.000000 0.000000
 29 -52.850708 -0.361260 -67.170868 1.570802 -0.000018 -0.000537
time 44
  0 1.278131 -1.278131 47.070381 -0.041051 0.000000 0.008341
  1 9.062670 0.286610 -3.406700 -0.028173 -0.008888 -0.006234
  2 4.544490 -1.638600 -20.622749 0.160450 0.012080 0.035175
  3 3.070910 1.647970 -15.136740 -0.090670 -0.008660 -0.036122
  4 -0.361640 -14.308061 -6.406600 0.000000 0.000000 0.000000
  5 -9.522449 0.590440 -3.372560 -0.037371 -0.003321 0.007231
  6 -4.141180 -1.081730 -20.790251 0.204929 0.018468 -0.039885
  7 -3.014440 0.974200 -14.527950 -0.126953 -0.008931 0.026796
  8 0.361640 -14.494990 -6.882030 0.000000 0.000000 0.000000
  9 0.013460 -1.507020 5.475230 0.037850 0.000000 0.000000
 10 -0.004780 1.092750 22.735540 0.075996 0.000000 0.000000
 11 -0.976790 -3.346690 20.865768 0.106280 -0.001103 -0.015098
 12 0.975190 -4.916450 -4.520320 0.093479 0.000000 0.000000
 13 -2.406500 -8.600220 4.877150 0.000000 0.000000 0.000000
 14 4.381730 -8.600220 5.272540 0.000000 0.000000 0.000000
 15 -18.388140 0.440630 8.679390 -0.340932 -0.713828 0.527252
 16 -21.955891 -0.759690 -12.109390 -0.296854 0.000000 0.969669
 17 -13.311041 1.530050 -7.133010 -0.008785 -0.254182 0.234433
 18 -9.635210 -0.302230 -6.530870 0.000000 -0.972480 0.000000
 19 -3.126290 0.042420 -2.638810 0.247134 -1.103496 -0.214512
 20 -2.839340 -5.564580 -4.296970 0.461563 0.000000 0.000000
 21 -3.811070 -2.785450 -1.806430 0.000000 0.000000 0.000000
 22 18.455151 0.440630 8.679390 -0.199668 0.504217 -0.439936
 23 21.943432 -0.878860 -11.911369 -0.814515 0.598137 -1.046522
 24 13.133340 0.635550 -6.798010 -0.156186 -0.709901 -0.158547
 25 3.689260 -4.550930 -4.829990 0.000000 0.000000 0.000000
 26 3.087020 -2.930260 -1.806420 0.000000 0.000000 0.000000
 27 10.169240 0.711430 -6.708540 0.000000 0.366388 0.000000
 28 2.770930 0.042420 -2.816470 0.000000 0.000000 0.000000
 29 -52.850708 -0.361260 -67.170868 1.570802 -0.000018 -0.000537
time 45
  0 1.278131 -1.278131 47.066475 -0.031678 0.000000 0.006451
  1 9.062670 0.286610 -3.406700 -0.037582 -0.008932 -0.008123
  2 4.544490 -1.638600 -20.622749 0.161537 0.012140 0.035402
  3 3.070910 1.647970 -15.136740 -0.091709 -0.008392 -0.032482
  4 -0.361640 -14.308061 -6.406600 0.000000 0.000000 0.000000
  5 -9.522449 0.590440 -3.372560 -0.048179 -0.003303 0.009475
  6 -4.141180 -1.081730 -20.790251 0.205074 0.018480 -0.039909
  7 -3.014440 0.974200 -14.527950 -0.125696 -0.008973 0.026511
  8 0.361640 -14.494990 -6.882030 0.000000 0.000000 0.000000
  9 0.013460 -1.507020 5.475230 0.029209 0.000000 0.000000
 10 -0.004780 1.092750 22.735540 0.058635 0.000000 0.000000
 11 -0.976790 -3.346690 20.865768 0.064555 -0.000623 -0.011187
 12 0.975190 -4.916450 -4.520320 0.072119 0.000000 0.000000
 13 -2.406500 -8.600220 4.877150 0.000000 0.000000 0.000000
 14 4.381730 -8.600220 5.272540 0.000000 0.000000 0.000000
 15 -18.388140 0.440630 8.679390 -0.263026 -0.723980 0.406819
 16 -21.955891 -0.759690 -12.109390 -0.229060 0.000000 0.819549
 17 -13.311041 1.530050 -7.133010 -0.006776 -0.196133 0.180886
 18 -9.635210 -0.302230 -6.530870 0.000000 -0.750387 0.000000
 19 -3.126290 0.042420 -2.638810 0.190687 -0.851438 -0.165519
 20 -2.839340 -5.564580 -4.296970 0.356150 0.000000 0.000000
 21 -3.811070 -2.785450 -1.806430 0.000000 0.000000 0.000000
 22 18.455151 0.440630 8.679390 -0.094461 0.570352 -0.251392
 23 21.943432 -0.878860 -11.911369 -0.628469 0.461511 -0.895080
 24 13.133340 0.635550 -6.798010 -0.120503 -0.547747 -0.122337
 25 3.689260 -4.550930 -4.829990 0.000000 0.000000 0.000000
 26 3.087020 -2.930260 -1.806420 0.000000 0.000000 0.000000
 27 10.169240 0.711430 -6.708540 0.000000 0.282715 0.000000
 28 2.770930 0.042420 -2.816470 0.000000 0.000000 0.000000
 29 -52.850708 -0.361260 -67.170868 1.570802 -0.000018 -0.000537
time 46
  0 1.278131 -1.278131 47.062569 -0.022285 0.000000 0.004487
  1 9.062670 0.286610 -3.406700 -0.046990 -0.009005 -0.010011
  2 4.544490 -1.638600 -20.622749 0.162479 0.012188 0.035618
  3 3.070910 1.647970 -15.136740 -0.092672 -0.008099 -0.028796
  4 -0.361640 -14.308061 -6.406600 0.000000 0.000000 0.000000
  5 -9.522449 0.590440 -3.372560 -0.058872 -0.003231 0.012051
  6 -4.141180 -1.081730 -20.790251 0.205147 0.018480 -0.039921
  7 -3.014440 0.974200 -14.527950 -0.124406 -0.009078 0.025915
  8 0.361640 -14.494990 -6.882030 0.000000 0.000000 0.000000
  9 0.013460 -1.507020 5.475230 0.020568 0.000000 0.000000
 10 -0.004780 1.092750 22.735540 0.041275 0.000000 0.000000
 11 -0.976790 -3.346690 20.865768 0.034220 -0.000300 -0.007579
 12 0.975190 -4.916450 -4.520320 0.050759 0.000000 0.000000
 13 -2.406500 -8.600220 4.877150 0.000000 0.000000 0.000000
 14 4.381730 -8.600220 5.272540 0.000000 0.000000 0.000000
 15 -18.388140 0.440630 8.679390 -0.185190 -0.734132 0.286385
 16 -21.955891 -0.759690 -12.109390 -0.161200 0.000000 0.669428
 17 -13.311041 1.530050 -7.133010 -0.004767 -0.138060 0.127339
 18 -9.635210 -0.302230 -6.530870 0.000000 -0.528240 0.000000
 19 -3.126290 0.042420 -2.638810 0.134239 -0.599431 -0.116526
 20 -2.839340 -5.564580 -4.296970 0.250716 0.000000 0.000000
 21 -3.811070 -2.785450 -1.806430 0.000000 0.000000 0.000000
 22 18.455151 0.440630 8.679390 0.010390 0.636486 -0.063612
 23 21.943432 -0.878860 -11.911369 -0.442468 0.324886 -0.743639
 24 13.133340 0.635550 -6.798010 -0.084852 -0.385626 -0.086126
 25 3.689260 -4.550930 -4.829990 0.000000 0.000000 0.000000
 26 3.087020 -2.930260 -1.806420 0.000000 0.000000 0.000000
 27 10.169240 0.711430 -6.708540 0.000000 0.198992 0.000000
 28 2.770930 0.042420 -2.816470 0.000000 0.000000 0.000000
 29 -52.850708 -0.361260 -67.170868 1.570802 -0.000018 -0.000537
time 47
  0 1.278131 -1.278131 47.054756 -0.013677 0.000000 0.002748
  1 9.062670 0.286610 -3.406700 -0.055567 -0.009108 -0.011747
  2 4.544490 -1.638600 -20.622749 0.163275 0.012236 0.035798
  3 3.070910 1.647970 -15.136740 -0.093557 -0.007831 -0.025411
  4 -0.361640 -14.308061 -6.406600 0.000000 0.000000 0.000000
  5 -9.522449 0.590440 -3.372560 -0.068770 -0.003106 0.013762
  6 -4.141180 -1.081730 -20.790251 0.205002 0.018468 -0.039897
  7 -3.014440 0.974200 -14.527950 -0.123020 -0.009078 0.025992
  8 0.361640 -14.494990 -6.882030 0.000000 0.000000 0.000000
  9 0.013460 -1.507020 5.475230 0.012611 0.000000 0.000000
 10 -0.004780 1.092750 22.735540 0.025332 0.000000 0.000000
 11 -0.976790 -3.346690 20.865768 0.013892 -0.000108 -0.004517
 12 0.975190 -4.916450 -4.520320 0.031160 0.000000 0.000000
 13 -2.406500 -8.600220 4.877150 0.000000 0.000000 0.000000
 14 4.381730 -8.600220 5.272540 0.000000 0.000000 0.000000
 15 -18.388140 0.440630 8.679390 -0.113644 -0.743457 0.175751
 16 -21.955891 -0.759690 -12.109390 -0.098930 0.000000 0.531478
 17 -13.311041 1.530050 -7.133010 -0.002915 -0.084708 0.078142
 18 -9.635210 -0.302230 -6.530870 0.000000 -0.324142 0.000000
 19 -3.126290 0.042420 -2.638810 0.082370 -0.367797 -0.071500
 20 -2.839340 -5.564580 -4.296970 0.153847 0.000000 0.000000
 21 -3.811070 -2.785450 -1.806430 0.000000 0.000000 0.000000
 22 18.455151 0.440630 8.679390 0.106632 0.697264 0.108406
 23 21.943432 -0.878860 -11.911369 -0.271490 0.199360 -0.604521
 24 13.133340 0.635550 -6.798010 -0.052041 -0.236611 -0.052838
 25 3.689260 -4.550930 -4.829990 0.000000 0.000000 0.000000
 26 3.087020 -2.930260 -1.806420 0.000000 0.000000 0.000000
 27 10.169240 0.711430 -6.708540 0.000000 0.122113 0.000000
 28 2.770930 0.042420 -2.816470 0.000000 0.000000 0.000000
 29 -52.850708 -0.361260 -67.170868 1.570802 -0.000018 -0.000537
time 48
  0 1.278131 -1.278131 47.050850 -0.006580 0.000000 0.001313
  1 9.062670 0.286610 -3.406700 -0.062533 -0.009195 -0.013512
  2 4.544490 -1.638600 -20.622749 0.163855 0.012272 0.035930
  3 3.070910 1.647970 -15.136740 -0.094289 -0.007562 -0.022257
  4 -0.361640 -14.308061 -6.406600 0.000000 0.000000 0.000000
  5 -9.522449 0.590440 -3.372560 -0.076790 -0.002980 0.015768
  6 -4.141180 -1.081730 -20.790251 0.204856 0.018456 -0.039873
  7 -3.014440 0.974200 -14.527950 -0.121924 -0.009163 0.025422
  8 0.361640 -14.494990 -6.882030 0.000000 0.000000 0.000000
  9 0.013460 -1.507020 5.475230 0.006074 0.000000 0.000000
 10 -0.004780 1.092750 22.735540 0.012196 0.000000 0.000000
 11 -0.976790 -3.346690 20.865768 0.001457 -0.000024 -0.002122
 12 0.975190 -4.916450 -4.520320 0.014982 0.000000 0.000000
 13 -2.406500 -8.600220 4.877150 0.000000 0.000000 0.000000
 14 4.381730 -8.600220 5.272540 0.000000 0.000000 0.000000
 15 -18.388140 0.440630 8.679390 -0.054679 -0.751128 0.084588
 16 -21.955891 -0.759690 -12.109390 -0.047645 0.000000 0.417869
 17 -13.311041 1.530050 -7.133010 -0.001408 -0.040774 0.037622
 18 -9.635210 -0.302230 -6.530870 0.000000 -0.156036 0.000000
 19 -3.126290 0.042420 -2.638810 0.039657 -0.177064 -0.034420
 20 -2.839340 -5.564580 -4.296970 0.074065 0.000000 0.000000
 21 -3.811070 -2.785450 -1.806430 0.000000 0.000000 0.000000
 22 18.455151 0.440630 8.679390 0.185775 0.747301 0.249824
 23 21.943432 -0.878860 -11.911369 -0.130693 0.095976 -0.489912
 24 13.133340 0.635550 -6.798010 -0.025068 -0.113909 -0.025445
 25 3.689260 -4.550930 -4.829990 0.000000 0.000000 0.000000
 26 3.087020 -2.930260 -1.806420 0.000000 0.000000 0.000000
 27 10.169240 0.711430 -6.708540 0.000000 0.058775 0.000000
 28 2.770930 0.042420 -2.816470 0.000000 0.000000 0.000000
 29 -52.850708 -0.361260 -67.170868 1.570802 -0.000018 -0.000537
time 49
  0 1.278131 -1.278131 47.050850 -0.001760 0.000000 0.000330
  1 9.062670 0.286610 -3.406700 -0.067367 -0.009283 -0.014142
  2 4.544490 -1.638600 -20.622749 0.164217 0.012296 0.036014
  3 3.070910 1.647970 -15.136740 -0.094674 -0.007440 -0.020681
  4 -0.361640 -14.308061 -6.406600 0.000000 0.000000 0.000000
  5 -9.522449 0.590440 -3.372560 -0.082251 -0.002872 0.016890
  6 -4.141180 -1.081730 -20.790251 0.204711 0.018444 -0.039837
  7 -3.014440 0.974200 -14.527950 -0.121150 -0.009184 0.025267
  8 0.361640 -14.494990 -6.882030 0.000000 0.000000 0.000000
  9 0.013460 -1.507020 5.475230 0.001626 0.000000 0.000000
 10 -0.004780 1.092750 22.735540 0.003270 0.000000 0.000000
 11 -0.976790 -3.346690 20.865768 -0.005027 0.000000 -0.000546
 12 0.975190 -4.916450 -4.520320 0.004020 0.000000 0.000000
 13 -2.406500 -8.600220 4.877150 0.000000 0.000000 0.000000
 14 4.381730 -8.600220 5.272540 0.000000 0.000000 0.000000
 15 -18.388140 0.440630 8.679390 -0.014724 -0.756347 0.022780
 16 -21.955891 -0.759690 -12.109390 -0.012805 0.000000 0.340771
 17 -13.311041 1.530050 -7.133010 -0.000372 -0.010978 0.010129
 18 -9.635210 -0.302230 -6.530870 0.000000 -0.041973 0.000000
 19 -3.126290 0.042420 -2.638810 0.010678 -0.047657 -0.009264
 20 -2.839340 -5.564580 -4.296970 0.019935 0.000000 0.000000
 21 -3.811070 -2.785450 -1.806430 0.000000 0.000000 0.000000
 22 18.455151 0.440630 8.679390 0.239388 0.781271 0.345603
 23 21.943432 -0.878860 -11.911369 -0.035188 0.025832 -0.412138
 24 13.133340 0.635550 -6.798010 -0.006743 -0.030659 -0.006835
 25 3.689260 -4.550930 -4.829990 0.000000 0.000000 0.000000
 26 3.087020 -2.930260 -1.806420 0.000000 0.000000 0.000000
 27 10.169240 0.711430 -6.708540 0.000000 0.015822 0.000000
 28 2.770930 0.042420 -2.816470 0.000000 0.000000 0.000000
 29 -52.850708 -0.361260 -67.170868 1.570802 -0.000018 -0.000537
time 50
  0 1.278131 -1.278131 47.050850 0.000000 0.000000 -0.000048
  1 9.062670 0.286610 -3.406700 -0.069082 -0.009312 -0.014495
  2 4.544490 -1.638600 -20.622749 0.164362 0.012296 0.036050
  3 3.070910 1.647970 -15.136740 -0.094828 -0.007367 -0.019985
  4 -0.361640 -14.308061 -6.406600 0.000000 0.000000 0.000000
  5 -9.522449 0.590440 -3.372560 -0.084298 -0.002836 0.016963
  6 -4.141180 -1.081730 -20.790251 0.204638 0.018432 -0.039825
  7 -3.014440 0.974200 -14.527950 -0.120763 -0.009163 0.025552
  8 0.361640 -14.494990 -6.882030 0.000000 0.000000 0.000000
  9 0.013460 -1.507020 5.475230 0.000000 0.000000 0.000000
 10 -0.004780 1.092750 22.735540 0.000000 0.000000 0.000000
 11 -0.976790 -3.346690 20.865768 -0.007043 0.000000 0.000000
 12 0.975190 -4.916450 -4.520320 0.000000 0.000000 0.000000
 13 -2.406500 -8.600220 4.877150 0.000000 0.000000 0.000000
 14 4.381730 -8.600220 5.272540 0.000000 0.000000 0.000000
 15 -18.388140 0.440630 8.679390 0.000000 -0.758286 0.000000
 16 -21.955891 -0.759690 -12.109390 0.000000 0.000000 0.312355
 17 -13.311041 1.530050 -7.133010 0.000005 -0.000018 -0.000010
 18 -9.635210 -0.302230 -6.530870 0.000000 0.000000 0.000000
 19 -3.126290 0.042420 -2.638810 0.000000 0.000000 0.000000
 20 -2.839340 -5.564580 -4.296970 0.000000 0.000000 0.000000
 21 -3.811070 -2.785450 -1.806430 0.000000 0.000000 0.000000
 22 18.455151 0.440630 8.679390 0.259158 0.793787 0.380867
 23 21.943432 -0.878860 -11.911369 0.000000 0.000000 -0.383520
 24 13.133340 0.635550 -6.798010 0.000000 0.000000 0.000000
 25 3.689260 -4.550930 -4.829990 0.000000 0.000000 0.000000
 26 3.087020 -2.930260 -1.806420 0.000000 0.000000 0.000000
 27 10.169240 0.711430 -6.708540 0.000000 0.000000 0.000000
 28 2.770930 0.042420 -2.816470 0.000000 0.000000 0.000000
 29 -52.850708 -0.361260 -67.170868 1.570802 -0.000018 -0.000537
end
