version 1
nodes
  0 "Hips"  -1
  1 "LLegUpper"   0
  2 "LLegLower"   1
  3 "LFoot"   2
  4 "LToes"   3
  5 "RLegUpper"   0
  6 "RLegLower"   5
  7 "RFoot"   6
  8 "RToes"   7
  9 "BodyLower"   0
 10 "BodyUpper"   9
 11 "Head"  10
 12 "Jaw"  11
 13 "HeadRBrow"  11
 14 "HeadLBrow"  11
 15 "RArm"  10
 16 "RArm2"  15
 17 "RPalm"  16
 18 "RFingStart"  17
 19 "RFingEnd"  18
 20 "RThumbStart"  17
 21 "RThumbEnd"  20
 22 "LArm"  10
 23 "LArm2"  22
 24 "LPalm"  23
 25 "LThumStart"  24
 26 "LThumEnd"  25
 27 "LFingStart"  24
 28 "LFingEnd"  27
 29 "GeoSphere01"   9
end
skeleton
time 0
  0 1.278131 -1.278131 47.461018 0.000000 -0.217269 0.622962
  1 9.062670 0.286610 -3.406700 0.423642 -0.116515 -0.061451
  2 4.544490 -1.638600 -20.622749 1.064912 -0.028643 0.233759
  3 3.070910 1.647970 -15.136740 0.743261 -0.706254 -0.570881
  4 -0.361640 -14.308061 -6.406600 0.581725 0.000000 0.000000
  5 -9.522449 0.590440 -3.372560 -1.438702 0.588242 -0.376839
  6 -4.141180 -1.081730 -20.790251 1.163883 0.187968 -0.145361
  7 -3.014440 0.974200 -14.527950 -0.596305 -0.251500 -0.132553
  8 0.361640 -14.494990 -6.882030 -0.347106 0.000000 0.000000
  9 0.013460 -1.507020 5.475230 0.000000 0.000000 0.000000
 10 -0.004780 1.092750 22.735540 0.000000 0.000000 0.000000
 11 -0.976790 -3.346690 20.865768 -0.131514 0.189704 -0.515913
 12 0.975190 -4.916450 -4.520320 0.000000 0.000000 0.000000
 13 -2.406500 -8.600220 4.877150 0.000000 0.207381 0.000000
 14 4.381730 -8.600220 5.272540 0.000000 -0.209383 0.000000
 15 -18.388140 0.440630 8.679390 -0.621724 -0.197478 0.586684
 16 -21.955891 -0.759690 -12.109390 -0.677039 0.793068 0.683467
 17 -13.311041 1.530050 -7.133010 0.000005 -0.000018 -0.000010
 18 -9.635210 -0.302230 -6.530870 0.000000 0.000000 0.000000
 19 -3.126290 0.042420 -2.638810 0.000000 0.000000 0.000000
 20 -2.839340 -5.564580 -4.296970 0.000000 0.000000 0.000000
 21 -3.811070 -2.785450 -1.806430 0.000000 0.000000 0.000000
 22 18.455151 0.440630 8.679390 0.498902 0.151650 0.455135
 23 21.943432 -0.878860 -11.911369 -0.233689 0.168204 -0.885710
 24 13.133340 0.635550 -6.798010 0.000000 0.000000 0.000000
 25 3.689260 -4.550930 -4.829990 0.000000 0.000000 0.000000
 26 3.087020 -2.930260 -1.806420 0.000000 0.000000 0.000000
 27 10.169240 0.711430 -6.708540 0.000000 0.000000 0.000000
 28 2.770930 0.042420 -2.816470 0.000000 0.000000 0.000000
 29 -52.850708 -0.361260 -67.170868 1.570802 -0.000018 -0.000537
time 1
  0 1.278131 3.334267 47.461018 0.000000 -0.217269 0.622962
  1 9.062670 0.286610 -3.406700 0.423642 -0.116515 -0.061451
  2 4.544490 -1.638600 -20.622749 1.064912 -0.028643 0.233759
  3 3.070910 1.647970 -15.136740 0.743261 -0.706254 -0.570881
  4 -0.361640 -14.308061 -6.406600 0.581725 0.000000 0.000000
  5 -9.522449 0.590440 -3.372560 -1.438702 0.588242 -0.376839
  6 -4.141180 -1.081730 -20.790251 1.163883 0.187968 -0.145361
  7 -3.014440 0.974200 -14.527950 -0.596305 -0.251500 -0.132553
  8 0.361640 -14.494990 -6.882030 -0.347106 0.000000 0.000000
  9 0.013460 -1.507020 5.475230 0.000000 0.000000 0.000000
 10 -0.004780 1.092750 22.735540 0.000000 0.000000 0.000000
 11 -0.976790 -3.346690 20.865768 -0.131514 0.189704 -0.515913
 12 0.975190 -4.916450 -4.520320 0.000000 0.000000 0.000000
 13 -2.406500 -8.600220 4.877150 0.000000 0.207381 0.000000
 14 4.381730 -8.600220 5.272540 0.000000 -0.209383 0.000000
 15 -18.388140 0.440630 8.679390 -0.621724 -0.197478 0.586684
 16 -21.955891 -0.759690 -12.109390 -0.677039 0.793068 0.683467
 17 -13.311041 1.530050 -7.133010 0.000005 -0.000018 -0.000010
 18 -9.635210 -0.302230 -6.530870 0.000000 0.000000 0.000000
 19 -3.126290 0.042420 -2.638810 0.000000 0.000000 0.000000
 20 -2.839340 -5.564580 -4.296970 0.000000 0.000000 0.000000
 21 -3.811070 -2.785450 -1.806430 0.000000 0.000000 0.000000
 22 18.455151 0.440630 8.679390 0.498902 0.151650 0.455135
 23 21.943432 -0.878860 -11.911369 -0.233689 0.168204 -0.885710
 24 13.133340 0.635550 -6.798010 0.000000 0.000000 0.000000
 25 3.689260 -4.550930 -4.829990 0.000000 0.000000 0.000000
 26 3.087020 -2.930260 -1.806420 0.000000 0.000000 0.000000
 27 10.169240 0.711430 -6.708540 0.000000 0.000000 0.000000
 28 2.770930 0.042420 -2.816470 0.000000 0.000000 0.000000
 29 -52.850708 -0.361260 -67.170868 1.570802 -0.000018 -0.000537
time 2
  0 1.278131 7.946665 47.253979 0.001492 -0.213697 0.615027
  1 9.062670 0.286610 -3.406700 0.407840 -0.110740 -0.057612
  2 4.544490 -1.638600 -20.622749 1.096640 -0.033245 0.239584
  3 3.070910 1.647970 -15.136740 0.725012 -0.717012 -0.553377
  4 -0.361640 -14.308061 -6.406600 0.573186 0.000000 0.000000
  5 -9.522449 0.590440 -3.372560 -1.414869 0.537599 -0.383573
  6 -4.141180 -1.081730 -20.790251 0.961354 0.145032 -0.137583
  7 -3.014440 0.974200 -14.527950 -0.412033 -0.179041 -0.178266
  8 0.361640 -14.494990 -6.882030 -0.338695 0.000000 0.000000
  9 0.013460 -1.507020 5.475230 0.000000 0.000000 0.000000
 10 -0.004780 1.092750 22.735540 0.000000 0.000000 0.000000
 11 -0.976790 -3.346690 20.865768 -0.127653 0.186396 -0.510637
 12 0.975190 -4.916450 -4.520320 0.010962 0.000000 0.000000
 13 -2.406500 -8.600220 4.877150 0.000000 0.207381 0.000000
 14 4.381730 -8.600220 5.272540 0.000000 -0.209383 0.000000
 15 -18.388140 0.440630 8.679390 -0.606308 -0.219378 0.582272
 16 -21.955891 -0.759690 -12.109390 -0.673854 0.788464 0.682957
 17 -13.311041 1.530050 -7.133010 0.000005 -0.000018 -0.000010
 18 -9.635210 -0.302230 -6.530870 0.000000 0.000000 0.000000
 19 -3.126290 0.042420 -2.638810 0.000000 0.000000 0.000000
 20 -2.839340 -5.564580 -4.296970 0.000000 0.000000 0.000000
 21 -3.811070 -2.785450 -1.806430 0.000000 0.000000 0.000000
 22 18.455151 0.440630 8.679390 0.490412 0.158130 0.448299
 23 21.943432 -0.878860 -11.911369 -0.270576 0.162457 -0.899188
 24 13.133340 0.635550 -6.798010 0.000000 0.000000 0.000000
 25 3.689260 -4.550930 -4.829990 0.000000 0.000000 0.000000
 26 3.087020 -2.930260 -1.806420 0.000000 0.000000 0.000000
 27 10.169240 0.711430 -6.708540 0.000000 0.000000 0.000000
 28 2.770930 0.042420 -2.816470 0.000000 0.000000 0.000000
 29 -52.850708 -0.361260 -67.170868 1.570802 -0.000018 -0.000537
time 3
  0 1.278131 12.559063 46.679745 0.005796 -0.203498 0.592129
  1 9.062670 0.286610 -3.406700 0.364904 -0.094454 -0.046372
  2 4.544490 -1.638600 -20.622749 1.181248 -0.046416 0.254361
  3 3.070910 1.647970 -15.136740 0.671573 -0.743358 -0.502231
  4 -0.361640 -14.308061 -6.406600 0.548742 0.000000 0.000000
  5 -9.522449 0.590440 -3.372560 -1.338420 0.486973 -0.350290
  6 -4.141180 -1.081730 -20.790251 0.757517 0.104100 -0.121092
  7 -3.014440 0.974200 -14.527950 -0.226955 -0.111890 -0.222995
  8 0.361640 -14.494990 -6.882030 -0.314628 0.000000 0.000000
  9 0.013460 -1.507020 5.475230 0.000000 0.000000 0.000000
 10 -0.004780 1.092750 22.735540 0.000000 0.000000 0.000000
 11 -0.976790 -3.346690 20.865768 -0.117476 0.176917 -0.495357
 12 0.975190 -4.916450 -4.520320 0.041325 0.000000 0.000000
 13 -2.406500 -8.600220 4.877150 0.000000 0.207381 0.000000
 14 4.381730 -8.600220 5.272540 0.000000 -0.209383 0.000000
 15 -18.388140 0.440630 8.679390 -0.562344 -0.243190 0.569588
 16 -21.955891 -0.759690 -12.109390 -0.664689 0.775360 0.681599
 17 -13.311041 1.530050 -7.133010 0.000005 -0.000018 -0.000010
 18 -9.635210 -0.302230 -6.530870 0.000000 0.000000 0.000000
 19 -3.126290 0.042420 -2.638810 0.000000 0.000000 0.000000
 20 -2.839340 -5.564580 -4.296970 0.000000 0.000000 0.000000
 21 -3.811070 -2.785450 -1.806430 0.000000 0.000000 0.000000
 22 18.455151 0.440630 8.679390 0.466070 0.164078 0.428677
 23 21.943432 -0.878860 -11.911369 -0.311861 0.145978 -0.911605
 24 13.133340 0.635550 -6.798010 0.000000 0.000000 0.000000
 25 3.689260 -4.550930 -4.829990 0.000000 0.000000 0.000000
 26 3.087020 -2.930260 -1.806420 0.000000 0.000000 0.000000
 27 10.169240 0.711430 -6.708540 0.000000 0.000000 0.000000
 28 2.770930 0.042420 -2.816470 0.000000 0.000000 0.000000
 29 -52.850708 -0.361260 -67.170868 1.570802 -0.000018 -0.000537
time 4
  0 1.278132 17.171461 45.808624 0.012606 -0.187403 0.555930
  1 9.062670 0.286610 -3.406700 0.301332 -0.069046 -0.027977
  2 4.544490 -1.638600 -20.622749 1.300770 -0.067066 0.273285
  3 3.070910 1.647970 -15.136740 0.585523 -0.773779 -0.419067
  4 -0.361640 -14.308061 -6.406600 0.510153 0.000000 0.000000
  5 -9.522449 0.590440 -3.372560 -1.232052 0.434194 -0.293273
  6 -4.141180 -1.081730 -20.790251 0.557316 0.067944 -0.097207
  7 -3.014440 0.974200 -14.527950 -0.042876 -0.046214 -0.262929
  8 0.361640 -14.494990 -6.882030 -0.276643 0.000000 0.000000
  9 0.013460 -1.507020 5.475230 0.000000 0.000000 0.000000
 10 -0.004780 1.092750 22.735540 0.000000 0.000000 0.000000
 11 -0.976790 -3.346690 20.865768 -0.103487 0.161876 -0.470649
 12 0.975190 -4.916450 -4.520320 0.087201 0.000000 0.000000
 13 -2.406500 -8.600220 4.877150 0.000000 0.207381 0.000000
 14 4.381730 -8.600220 5.272540 0.000000 -0.209383 0.000000
 15 -18.388140 0.440630 8.679390 -0.492941 -0.268570 0.549566
 16 -21.955891 -0.759690 -12.109390 -0.650259 0.754607 0.679448
 17 -13.311041 1.530050 -7.133010 0.000005 -0.000018 -0.000010
 18 -9.635210 -0.302230 -6.530870 0.000000 0.000000 0.000000
 19 -3.126290 0.042420 -2.638810 0.000000 0.000000 0.000000
 20 -2.839340 -5.564580 -4.296970 0.000000 0.000000 0.000000
 21 -3.811070 -2.785450 -1.806430 0.000000 0.000000 0.000000
 22 18.455151 0.440630 8.679390 0.427656 0.169493 0.397715
 23 21.943432 -0.878860 -11.911369 -0.356935 0.119977 -0.923098
 24 13.133340 0.635550 -6.798010 0.000000 0.000000 0.000000
 25 3.689260 -4.550930 -4.829990 0.000000 0.000000 0.000000
 26 3.087020 -2.930260 -1.806420 0.000000 0.000000 0.000000
 27 10.169240 0.711430 -6.708540 0.000000 0.000000 0.000000
 28 2.770930 0.042420 -2.816470 0.000000 0.000000 0.000000
 29 -52.850708 -0.361260 -67.170868 1.570802 -0.000018 -0.000537
time 5
  0 1.278132 21.783861 44.714840 0.021577 -0.166142 0.508245
  1 9.062670 0.286610 -3.406700 0.221801 -0.035101 -0.003731
  2 4.544490 -1.638600 -20.622749 1.439127 -0.093648 0.291993
  3 3.070910 1.647970 -15.136740 0.471059 -0.795856 -0.307246
  4 -0.361640 -14.308061 -6.406600 0.459224 0.000000 0.000000
  5 -9.522449 0.590440 -3.372560 -1.112487 0.375795 -0.223027
  6 -4.141180 -1.081730 -20.790251 0.367082 0.038664 -0.068360
  7 -3.014440 0.974200 -14.527950 0.134819 0.019042 -0.293379
  8 0.361640 -14.494990 -6.882030 -0.226450 0.000000 0.000000
  9 0.013460 -1.507020 5.475230 0.000000 0.000000 0.000000
 10 -0.004780 1.092750 22.735540 0.000000 0.000000 0.000000
 11 -0.976790 -3.346690 20.865768 -0.088405 0.141838 -0.437178
 12 0.975190 -4.916450 -4.520320 0.144670 0.000000 0.000000
 13 -2.406500 -8.600220 4.877150 0.000000 0.207381 0.000000
 14 4.381730 -8.600220 5.272540 0.000000 -0.209383 0.000000
 15 -18.388140 0.440630 8.679390 -0.401210 -0.295233 0.523095
 16 -21.955891 -0.759690 -12.109390 -0.631149 0.727230 0.676561
 17 -13.311041 1.530050 -7.133010 0.000005 -0.000018 -0.000010
 18 -9.635210 -0.302230 -6.530870 0.000000 0.000000 0.000000
 19 -3.126290 0.042420 -2.638810 0.000000 0.000000 0.000000
 20 -2.839340 -5.564580 -4.296970 0.000000 0.000000 0.000000
 21 -3.811070 -2.785450 -1.806430 0.000000 0.000000 0.000000
 22 18.455151 0.440630 8.679390 0.376952 0.174375 0.356862
 23 21.943432 -0.878860 -11.911369 -0.405015 0.085637 -0.933622
 24 13.133340 0.635550 -6.798010 0.000000 0.000000 0.000000
 25 3.689260 -4.550930 -4.829990 0.000000 0.000000 0.000000
 26 3.087020 -2.930260 -1.806420 0.000000 0.000000 0.000000
 27 10.169240 0.711430 -6.708540 0.000000 0.000000 0.000000
 28 2.770930 0.042420 -2.816470 0.000000 0.000000 0.000000
 29 -52.850708 -0.361260 -67.170868 1.570802 -0.000018 -0.000537
time 6
  0 1.278132 26.396257 43.476521 0.032424 -0.140447 0.450584
  1 9.062670 0.286610 -3.406700 0.128964 0.006403 0.024046
  2 4.544490 -1.638600 -20.622749 1.584293 -0.124041 0.307525
  3 3.070910 1.647970 -15.136740 0.337384 -0.799369 -0.176321
  4 -0.361640 -14.308061 -6.406600 0.397669 0.000000 0.000000
  5 -9.522449 0.590440 -3.372560 -0.997189 0.310646 -0.145514
  6 -4.141180 -1.081730 -20.790251 0.207693 0.018768 -0.040400
  7 -3.014440 0.974200 -14.527950 0.291076 0.078820 -0.309783
  8 0.361640 -14.494990 -6.882030 -0.165837 0.000000 0.000000
  9 0.013460 -1.507020 5.475230 0.000000 0.000000 0.000000
 10 -0.004780 1.092750 22.735540 0.000000 0.000000 0.000000
 11 -0.976790 -3.346690 20.865768 -0.074756 0.117473 -0.395704
 12 0.975190 -4.916450 -4.520320 0.209913 0.000000 0.000000
 13 -2.406500 -8.600220 4.877150 0.000000 0.207381 0.000000
 14 4.381730 -8.600220 5.272540 0.000000 -0.209383 0.000000
 15 -18.388140 0.440630 8.679390 -0.290470 -0.322837 0.491152
 16 -21.955891 -0.759690 -12.109390 -0.608139 0.694152 0.673108
 17 -13.311041 1.530050 -7.133010 0.000005 -0.000018 -0.000010
 18 -9.635210 -0.302230 -6.530870 0.000000 0.000000 0.000000
 19 -3.126290 0.042420 -2.638810 0.000000 0.000000 0.000000
 20 -2.839340 -5.564580 -4.296970 0.000000 0.000000 0.000000
 21 -3.811070 -2.785450 -1.806430 0.000000 0.000000 0.000000
 22 18.455151 0.440630 8.679390 0.315680 0.178784 0.307484
 23 21.943432 -0.878860 -11.911369 -0.455489 0.044143 -0.943268
 24 13.133340 0.635550 -6.798010 0.000000 0.000000 0.000000
 25 3.689260 -4.550930 -4.829990 0.000000 0.000000 0.000000
 26 3.087020 -2.930260 -1.806420 0.000000 0.000000 0.000000
 27 10.169240 0.711430 -6.708540 0.000000 0.000000 0.000000
 28 2.770930 0.042420 -2.816470 0.000000 0.000000 0.000000
 29 -52.850708 -0.361260 -67.170868 1.570802 -0.000018 -0.000537
time 7
  0 1.278132 31.008657 42.163982 0.044838 -0.111073 0.384686
  1 9.062670 0.286610 -3.406700 0.023963 0.054924 0.050226
  2 4.544490 -1.638600 -20.622749 1.727938 -0.155955 0.318419
  3 3.070910 1.647970 -15.136740 0.197510 -0.776682 -0.040736
  4 -0.361640 -14.308061 -6.406600 0.327293 0.000000 0.000000
  5 -9.522449 0.590440 -3.372560 -0.921309 0.241638 -0.059961
  6 -4.141180 -1.081730 -20.790251 0.154952 0.013200 -0.030501
  7 -3.014440 0.974200 -14.527950 0.378925 0.114355 -0.308306
  8 0.361640 -14.494990 -6.882030 -0.096515 0.000000 0.000000
  9 0.013460 -1.507020 5.475230 0.000000 0.000000 0.000000
 10 -0.004780 1.092750 22.735540 0.000000 0.000000 0.000000
 11 -0.976790 -3.346690 20.865768 -0.064846 0.089489 -0.347014
 12 0.975190 -4.916450 -4.520320 0.279042 0.000000 0.000000
 13 -2.406500 -8.600220 4.877150 0.000000 0.207381 0.000000
 14 4.381730 -8.600220 5.272540 0.000000 -0.209383 0.000000
 15 -18.388140 0.440630 8.679390 -0.163830 -0.351011 0.454627
 16 -21.955891 -0.759690 -12.109390 -0.581749 0.656328 0.669145
 17 -13.311041 1.530050 -7.133010 0.000005 -0.000018 -0.000010
 18 -9.635210 -0.302230 -6.530870 0.000000 0.000000 0.000000
 19 -3.126290 0.042420 -2.638810 0.000000 0.000000 0.000000
 20 -2.839340 -5.564580 -4.296970 0.000000 0.000000 0.000000
 21 -3.811070 -2.785450 -1.806430 0.000000 0.000000 0.000000
 22 18.455151 0.440630 8.679390 0.245622 0.182749 0.251030
 23 21.943432 -0.878860 -11.911369 -0.507662 -0.003268 -0.952038
 24 13.133340 0.635550 -6.798010 0.000000 0.000000 0.000000
 25 3.689260 -4.550930 -4.829990 0.000000 0.000000 0.000000
 26 3.087020 -2.930260 -1.806420 0.000000 0.000000 0.000000
 27 10.169240 0.711430 -6.708540 0.000000 0.000000 0.000000
 28 2.770930 0.042420 -2.816470 0.000000 0.000000 0.000000
 29 -52.850708 -0.361260 -67.170868 1.570802 -0.000018 -0.000537
time 8
  0 1.278132 35.621056 40.851440 0.058477 -0.078751 0.312137
  1 9.062670 0.286610 -3.406700 -0.092681 0.108971 0.066472
  2 4.544490 -1.638600 -20.622749 1.864339 -0.187319 0.324399
  3 3.070910 1.647970 -15.136740 0.064836 -0.723282 0.083164
  4 -0.361640 -14.308061 -6.406600 0.249833 0.000000 0.000000
  5 -9.522449 0.590440 -3.372560 -0.912776 0.171067 0.034681
  6 -4.141180 -1.081730 -20.790251 0.270401 0.026052 -0.051761
  7 -3.014440 0.974200 -14.527950 0.355488 0.112333 -0.289544
  8 0.361640 -14.494990 -6.882030 -0.020246 0.000000 0.000000
  9 0.013460 -1.507020 5.475230 0.000000 0.000000 0.000000
 10 -0.004780 1.092750 22.735540 0.000000 0.000000 0.000000
 11 -0.976790 -3.346690 20.865768 -0.060693 0.058772 -0.292048
 12 0.975190 -4.916450 -4.520320 0.348171 0.000000 0.000000
 13 -2.406500 -8.600220 4.877150 0.000000 0.207381 0.000000
 14 4.381730 -8.600220 5.272540 0.000000 -0.209383 0.000000
 15 -18.388140 0.440630 8.679390 -0.024402 -0.379471 0.414412
 16 -21.955891 -0.759690 -12.109390 -0.552759 0.614714 0.664787
 17 -13.311041 1.530050 -7.133010 0.000005 -0.000018 -0.000010
 18 -9.635210 -0.302230 -6.530870 0.000000 0.000000 0.000000
 19 -3.126290 0.042420 -2.638810 0.000000 0.000000 0.000000
 20 -2.839340 -5.564580 -4.296970 0.000000 0.000000 0.000000
 21 -3.811070 -2.785450 -1.806430 0.000000 0.000000 0.000000
 22 18.455151 0.440630 8.679390 0.168498 0.186270 0.188865
 23 21.943432 -0.878860 -11.911369 -0.560836 -0.055467 -0.959977
 24 13.133340 0.635550 -6.798010 0.000000 0.000000 0.000000
 25 3.689260 -4.550930 -4.829990 0.000000 0.000000 0.000000
 26 3.087020 -2.930260 -1.806420 0.000000 0.000000 0.000000
 27 10.169240 0.711430 -6.708540 0.000000 0.000000 0.000000
 28 2.770930 0.042420 -2.816470 0.000000 0.000000 0.000000
 29 -52.850708 -0.361260 -67.170868 1.570802 -0.000018 -0.000537
time 9
  0 1.278132 40.233456 39.613121 0.073053 -0.044223 0.234601
  1 9.062670 0.286610 -3.406700 -0.220346 0.162317 0.065013
  2 4.544490 -1.638600 -20.622749 1.990308 -0.216598 0.326029
  3 3.070910 1.647970 -15.136740 -0.053247 -0.640730 0.181167
  4 -0.361640 -14.308061 -6.406600 0.167095 0.000000 0.000000
  5 -9.522449 0.590440 -3.372560 -0.939909 0.096045 0.128293
  6 -4.141180 -1.081730 -20.790251 0.472348 0.054180 -0.084995
  7 -3.014440 0.974200 -14.527950 0.253584 0.094576 -0.256839
  8 0.361640 -14.494990 -6.882030 0.061234 0.000000 0.000000
  9 0.013460 -1.507020 5.475230 0.000000 0.000000 0.000000
 10 -0.004780 1.092750 22.735540 0.000000 0.000000 0.000000
 11 -0.976790 -3.346690 20.865768 -0.064021 0.026366 -0.231717
 12 0.975190 -4.916450 -4.520320 0.413414 0.000000 0.000000
 13 -2.406500 -8.600220 4.877150 0.000000 0.207381 0.000000
 14 4.381730 -8.600220 5.272540 0.000000 -0.209383 0.000000
 15 -18.388140 0.440630 8.679390 0.124428 -0.407873 0.371439
 16 -21.955891 -0.759690 -12.109390 -0.521754 0.570267 0.660145
 17 -13.311041 1.530050 -7.133010 0.000005 -0.000018 -0.000010
 18 -9.635210 -0.302230 -6.530870 0.000000 0.000000 0.000000
 19 -3.126290 0.042420 -2.638810 0.000000 0.000000 0.000000
 20 -2.839340 -5.564580 -4.296970 0.000000 0.000000 0.000000
 21 -3.811070 -2.785450 -1.806430 0.000000 0.000000 0.000000
 22 18.455151 0.440630 8.679390 0.086089 0.189377 0.122479
 23 21.943432 -0.878860 -11.911369 -0.614359 -0.111244 -0.967132
 24 13.133340 0.635550 -6.798010 0.000000 0.000000 0.000000
 25 3.689260 -4.550930 -4.829990 0.000000 0.000000 0.000000
 26 3.087020 -2.930260 -1.806420 0.000000 0.000000 0.000000
 27 10.169240 0.711430 -6.708540 0.000000 0.000000 0.000000
 28 2.770930 0.042420 -2.816470 0.000000 0.000000 0.000000
 29 -52.850708 -0.361260 -67.170868 1.570802 -0.000018 -0.000537
time 10
  0 1.278132 44.845856 38.523247 0.088261 -0.008209 0.153815
  1 9.062670 0.286610 -3.406700 -0.354768 0.205049 0.040798
  2 4.544490 -1.638600 -20.622749 2.104978 -0.243071 0.324231
  3 3.070910 1.647970 -15.136740 -0.162243 -0.534027 0.246896
  4 -0.361640 -14.308061 -6.406600 0.080815 0.000000 0.000000
  5 -9.522449 0.590440 -3.372560 -0.978019 0.015601 0.212061
  6 -4.141180 -1.081730 -20.790251 0.709504 0.094992 -0.116023
  7 -3.014440 0.974200 -14.527950 0.087042 0.077599 -0.209727
  8 0.361640 -14.494990 -6.882030 0.146211 0.000000 0.000000
  9 0.013460 -1.507020 5.475230 0.000000 0.000000 0.000000
 10 -0.004780 1.092750 22.735540 0.000000 0.000000 0.000000
 11 -0.976790 -3.346690 20.865768 -0.076261 -0.006580 -0.167110
 12 0.975190 -4.916450 -4.520320 0.470883 0.000000 0.000000
 13 -2.406500 -8.600220 4.877150 0.000000 0.207381 0.000000
 14 4.381730 -8.600220 5.272540 0.000000 -0.209383 0.000000
 15 -18.388140 0.440630 8.679390 0.279686 -0.435905 0.326643
 16 -21.955891 -0.759690 -12.109390 -0.489384 0.523872 0.655333
 17 -13.311041 1.530050 -7.133010 0.000005 -0.000018 -0.000010
 18 -9.635210 -0.302230 -6.530870 0.000000 0.000000 0.000000
 19 -3.126290 0.042420 -2.638810 0.000000 0.000000 0.000000
 20 -2.839340 -5.564580 -4.296970 0.000000 0.000000 0.000000
 21 -3.811070 -2.785450 -1.806430 0.000000 0.000000 0.000000
 22 18.455151 0.440630 8.679390 0.000237 0.192100 0.053278
 23 21.943432 -0.878860 -11.911369 -0.667490 -0.169387 -0.973501
 24 13.133340 0.635550 -6.798010 0.000000 0.000000 0.000000
 25 3.689260 -4.550930 -4.829990 0.000000 0.000000 0.000000
 26 3.087020 -2.930260 -1.806420 0.000000 0.000000 0.000000
 27 10.169240 0.711430 -6.708540 0.000000 0.000000 0.000000
 28 2.770930 0.042420 -2.816470 0.000000 0.000000 0.000000
 29 -52.850708 -0.361260 -67.170868 1.570802 -0.000018 -0.000537
time 11
  0 1.278132 49.458256 37.652126 0.103794 0.028523 0.071292
  1 9.062670 0.286610 -3.406700 -0.483316 0.226451 -0.002196
  2 4.544490 -1.638600 -20.622749 2.210230 -0.266885 0.319869
  3 3.070910 1.647970 -15.136740 -0.281789 -0.411492 0.280607
  4 -0.361640 -14.308061 -6.406600 -0.007225 0.000000 0.000000
  5 -9.522449 0.590440 -3.372560 -1.011181 -0.070175 0.277634
  6 -4.141180 -1.081730 -20.790251 0.968120 0.146424 -0.137979
  7 -3.014440 0.974200 -14.527950 -0.153872 0.072080 -0.146573
  8 0.361640 -14.494990 -6.882030 0.232926 0.000000 0.000000
  9 0.013460 -1.507020 5.475230 0.000000 0.000000 0.000000
 10 -0.004780 1.092750 22.735540 0.000000 0.000000 0.000000
 11 -0.976790 -3.346690 20.865768 -0.098800 -0.038854 -0.099350
 12 0.975190 -4.916450 -4.520320 0.516759 0.000000 0.000000
 13 -2.406500 -8.600220 4.877150 0.000000 0.207381 0.000000
 14 4.381730 -8.600220 5.272540 0.000000 -0.209383 0.000000
 15 -18.388140 0.440630 8.679390 0.438193 -0.463224 0.280913
 16 -21.955891 -0.759690 -12.109390 -0.456429 0.476556 0.650352
 17 -13.311041 1.530050 -7.133010 0.000005 -0.000018 -0.000010
 18 -9.635210 -0.302230 -6.530870 0.000000 0.000000 0.000000
 19 -3.126290 0.042420 -2.638810 0.000000 0.000000 0.000000
 20 -2.839340 -5.564580 -4.296970 0.000000 0.000000 0.000000
 21 -3.811070 -2.785450 -1.806430 0.000000 0.000000 0.000000
 22 18.455151 0.440630 8.679390 -0.087395 0.194437 -0.017330
 23 21.943432 -0.878860 -11.911369 -0.719620 -0.228742 -0.979133
 24 13.133340 0.635550 -6.798010 0.000000 0.000000 0.000000
 25 3.689260 -4.550930 -4.829990 0.000000 0.000000 0.000000
 26 3.087020 -2.930260 -1.806420 0.000000 0.000000 0.000000
 27 10.169240 0.711430 -6.708540 0.000000 0.000000 0.000000
 28 2.770930 0.042420 -2.816470 0.000000 0.000000 0.000000
 29 -52.850708 -0.361260 -67.170868 1.570802 -0.000018 -0.000537
time 12
  0 1.278132 54.070648 37.077888 0.119307 0.065268 -0.011157
  1 9.062670 0.286610 -3.406700 -0.667171 0.214814 -0.083439
  2 4.544490 -1.638600 -20.622749 2.313962 -0.289620 0.313061
  3 3.070910 1.647970 -15.136740 -0.384548 -0.273027 0.281349
  4 -0.361640 -14.308061 -6.406600 -0.095265 0.000000 0.000000
  5 -9.522449 0.590440 -3.372560 -0.999748 -0.162917 0.310622
  6 -4.141180 -1.081730 -20.790251 1.173704 0.190080 -0.145517
  7 -3.014440 0.974200 -14.527950 -0.410647 0.097967 -0.074193
  8 0.361640 -14.494990 -6.882030 0.319640 0.000000 0.000000
  9 0.013460 -1.507020 5.475230 0.000000 0.000000 0.000000
 10 -0.004780 1.092750 22.735540 0.000000 0.000000 0.000000
 11 -0.976790 -3.346690 20.865768 -0.132267 -0.069235 -0.029529
 12 0.975190 -4.916450 -4.520320 0.547121 0.000000 0.000000
 13 -2.406500 -8.600220 4.877150 0.000000 0.207381 0.000000
 14 4.381730 -8.600220 5.272540 0.000000 -0.209383 0.000000
 15 -18.388140 0.440630 8.679390 0.596631 -0.489488 0.235225
 16 -21.955891 -0.759690 -12.109390 -0.423474 0.429241 0.645427
 17 -13.311041 1.530050 -7.133010 0.000005 -0.000018 -0.000010
 18 -9.635210 -0.302230 -6.530870 0.000000 0.000000 0.000000
 19 -3.126290 0.042420 -2.638810 0.000000 0.000000 0.000000
 20 -2.839340 -5.564580 -4.296970 0.000000 0.000000 0.000000
 21 -3.811070 -2.785450 -1.806430 0.000000 0.000000 0.000000
 22 18.455151 0.440630 8.679390 -0.175028 0.196450 -0.087979
 23 21.943432 -0.878860 -11.911369 -0.770007 -0.288096 -0.984071
 24 13.133340 0.635550 -6.798010 0.000000 0.000000 0.000000
 25 3.689260 -4.550930 -4.829990 0.000000 0.000000 0.000000
 26 3.087020 -2.930260 -1.806420 0.000000 0.000000 0.000000
 27 10.169240 0.711430 -6.708540 0.000000 0.000000 0.000000
 28 2.770930 0.042420 -2.816470 0.000000 0.000000 0.000000
 29 -52.850708 -0.361260 -67.170868 1.570802 -0.000018 -0.000537
time 13
  0 1.278132 58.683048 36.866943 0.134515 0.101282 -0.092018
  1 9.062670 0.286610 -3.406700 -0.989763 0.085610 -0.205465
  2 4.544490 -1.638600 -20.622749 2.373506 -0.302239 0.308064
  3 3.070910 1.647970 -15.136740 -0.335267 -0.135245 0.234214
  4 -0.361640 -14.308061 -6.406600 -0.181546 0.000000 0.000000
  5 -9.522449 0.590440 -3.372560 -0.926200 -0.252373 0.301552
  6 -4.141180 -1.081730 -20.790251 1.273440 0.211477 -0.145864
  7 -3.014440 0.974200 -14.527950 -0.611103 0.158209 0.001348
  8 0.361640 -14.494990 -6.882030 0.404618 0.000000 0.000000
  9 0.013460 -1.507020 5.475230 0.000000 0.000000 0.000000
 10 -0.004780 1.092750 22.735540 0.000000 0.000000 0.000000
 11 -0.976790 -3.346690 20.865768 -0.174090 -0.096524 0.041717
 12 0.975190 -4.916450 -4.520320 0.558084 0.000000 0.000000
 13 -2.406500 -8.600220 4.877150 0.000000 0.207381 0.000000
 14 4.381730 -8.600220 5.272540 0.000000 -0.209383 0.000000
 15 -18.388140 0.440630 8.679390 0.751889 -0.514383 0.190428
 16 -21.955891 -0.759690 -12.109390 -0.391104 0.382881 0.640559
 17 -13.311041 1.530050 -7.133010 0.000005 -0.000018 -0.000010
 18 -9.635210 -0.302230 -6.530870 0.000000 0.000000 0.000000
 19 -3.126290 0.042420 -2.638810 0.000000 0.000000 0.000000
 20 -2.839340 -5.564580 -4.296970 0.000000 0.000000 0.000000
 21 -3.811070 -2.785450 -1.806430 0.000000 0.000000 0.000000
 22 18.455151 0.440630 8.679390 -0.260940 0.198166 -0.157180
 23 21.943432 -0.878860 -11.911369 -0.817999 -0.346239 -0.988364
 24 13.133340 0.635550 -6.798010 0.000000 0.000000 0.000000
 25 3.689260 -4.550930 -4.829990 0.000000 0.000000 0.000000
 26 3.087020 -2.930260 -1.806420 0.000000 0.000000 0.000000
 27 10.169240 0.711430 -6.708540 0.000000 0.000000 0.000000
 28 2.770930 0.042420 -2.816470 0.000000 0.000000 0.000000
 29 -52.850708 -0.361260 -67.170868 1.570802 -0.000018 -0.000537
time 14
  0 1.278132 63.295448 37.323990 0.149091 0.135809 -0.169479
  1 9.062670 0.286610 -3.406700 -1.331640 -0.155314 -0.207584
  2 4.544490 -1.638600 -20.622749 2.303675 -0.287402 0.313840
  3 3.070910 1.647970 -15.136740 -0.145880 -0.062597 0.178176
  4 -0.361640 -14.308061 -6.406600 -0.264307 0.000000 0.000000
  5 -9.522449 0.590440 -3.372560 -0.775920 -0.323051 0.242033
  6 -4.141180 -1.081730 -20.790251 1.263983 0.209449 -0.145924
  7 -3.014440 0.974200 -14.527950 -0.752401 0.239557 0.090183
  8 0.361640 -14.494990 -6.882030 0.486122 0.000000 0.000000
  9 0.013460 -1.507020 5.475230 0.000000 0.000000 0.000000
 10 -0.004780 1.092750 22.735540 0.000000 0.000000 0.000000
 11 -0.976790 -3.346690 20.865768 -0.216665 -0.119834 0.112751
 12 0.975190 -4.916450 -4.520320 0.534133 0.000000 0.000000
 13 -2.406500 -8.600220 4.877150 0.000000 0.207381 0.000000
 14 4.381730 -8.600220 5.272540 0.000000 -0.209383 0.000000
 15 -18.388140 0.440630 8.679390 0.900856 -0.537596 0.147456
 16 -21.955891 -0.759690 -12.109390 -0.360099 0.338434 0.635917
 17 -13.311041 1.530050 -7.133010 0.000005 -0.000018 -0.000010
 18 -9.635210 -0.302230 -6.530870 0.000000 0.000000 0.000000
 19 -3.126290 0.042420 -2.638810 0.000000 0.000000 0.000000
 20 -2.839340 -5.564580 -4.296970 0.000000 0.000000 0.000000
 21 -3.811070 -2.785450 -1.806430 0.000000 0.000000 0.000000
 22 18.455151 0.440630 8.679390 -0.343288 0.199556 -0.223567
 23 21.943432 -0.878860 -11.911369 -0.862899 -0.402016 -0.992010
 24 13.133340 0.635550 -6.798010 0.000000 0.000000 0.000000
 25 3.689260 -4.550930 -4.829990 0.000000 0.000000 0.000000
 26 3.087020 -2.930260 -1.806420 0.000000 0.000000 0.000000
 27 10.169240 0.711430 -6.708540 0.000000 0.000000 0.000000
 28 2.770930 0.042420 -2.816470 0.000000 0.000000 0.000000
 29 -52.850708 -0.361260 -67.170868 1.570802 -0.000018 -0.000537
time 15
  0 1.278131 67.907845 38.523247 0.162749 0.168132 -0.242027
  1 9.062670 0.286610 -3.406700 -1.559107 -0.326607 -0.095723
  2 4.544490 -1.638600 -20.622749 2.135691 -0.250082 0.323224
  3 3.070910 1.647970 -15.136740 -0.030685 -0.037763 0.154921
  4 -0.361640 -14.308061 -6.406600 -0.341744 0.000000 0.000000
  5 -9.522449 0.590440 -3.372560 -0.541568 -0.350339 0.137934
  6 -4.141180 -1.081730 -20.790251 1.117106 0.177960 -0.144354
  7 -3.014440 0.974200 -14.527950 -0.806497 0.313070 0.206228
  8 0.361640 -14.494990 -6.882030 0.562391 0.000000 0.000000
  9 0.013460 -1.507020 5.475230 0.000000 0.000000 0.000000
 10 -0.004780 1.092750 22.735540 0.000000 0.000000 0.000000
 11 -0.976790 -3.346690 20.865768 -0.255281 -0.138710 0.181147
 12 0.975190 -4.916450 -4.520320 0.470883 0.000000 0.000000
 13 -2.406500 -8.600220 4.877150 0.000000 0.207381 0.000000
 14 4.381730 -8.600220 5.272540 0.000000 -0.209383 0.000000
 15 -18.388140 0.440630 8.679390 1.040215 -0.558755 0.107241
 16 -21.955891 -0.759690 -12.109390 -0.331109 0.296785 0.631559
 17 -13.311041 1.530050 -7.133010 0.000005 -0.000018 -0.000010
 18 -9.635210 -0.302230 -6.530870 0.000000 0.000000 0.000000
 19 -3.126290 0.042420 -2.638810 0.000000 0.000000 0.000000
 20 -2.839340 -5.564580 -4.296970 0.000000 0.000000 0.000000
 21 -3.811070 -2.785450 -1.806430 0.000000 0.000000 0.000000
 22 18.455151 0.440630 8.679390 -0.420413 0.200711 -0.285691
 23 21.943432 -0.878860 -11.911369 -0.904010 -0.454215 -0.995057
 24 13.133340 0.635550 -6.798010 0.000000 0.000000 0.000000
 25 3.689260 -4.550930 -4.829990 0.000000 0.000000 0.000000
 26 3.087020 -2.930260 -1.806420 0.000000 0.000000 0.000000
 27 10.169240 0.711430 -6.708540 0.000000 0.000000 0.000000
 28 2.770930 0.042420 -2.816470 0.000000 0.000000 0.000000
 29 -52.850708 -0.361260 -67.170868 1.570802 -0.000018 -0.000537
time 16
  0 1.278131 72.520241 40.218609 0.175145 0.197506 -0.308001
  1 9.062670 0.286610 -3.406700 -1.671385 -0.413854 0.025781
  2 4.544490 -1.638600 -20.622749 1.928663 -0.202252 0.325693
  3 3.070910 1.647970 -15.136740 -0.024756 -0.025785 0.155130
  4 -0.361640 -14.308061 -6.406600 -0.412143 0.000000 0.000000
  5 -9.522449 0.590440 -3.372560 -0.321778 -0.326731 0.038527
  6 -4.141180 -1.081730 -20.790251 0.992563 0.151548 -0.139345
  7 -3.014440 0.974200 -14.527950 -0.707010 0.364971 0.328286
  8 0.361640 -14.494990 -6.882030 0.631713 0.000000 0.000000
  9 0.013460 -1.507020 5.475230 0.000000 0.000000 0.000000
 10 -0.004780 1.092750 22.735540 0.000000 0.000000 0.000000
 11 -0.976790 -3.346690 20.865768 -0.289502 -0.153031 0.244965
 12 0.975190 -4.916450 -4.520320 0.381523 0.000000 0.000000
 13 -2.406500 -8.600220 4.877150 0.000000 0.207381 0.000000
 14 4.381730 -8.600220 5.272540 0.000000 -0.209383 0.000000
 15 -18.388140 0.440630 8.679390 1.166855 -0.577576 0.070716
 16 -21.955891 -0.759690 -12.109390 -0.304719 0.258997 0.627596
 17 -13.311041 1.530050 -7.133010 0.000005 -0.000018 -0.000010
 18 -9.635210 -0.302230 -6.530870 0.000000 0.000000 0.000000
 19 -3.126290 0.042420 -2.638810 0.000000 0.000000 0.000000
 20 -2.839340 -5.564580 -4.296970 0.000000 0.000000 0.000000
 21 -3.811070 -2.785450 -1.806430 0.000000 0.000000 0.000000
 22 18.455151 0.440630 8.679390 -0.490471 0.201628 -0.342185
 23 21.943432 -0.878860 -11.911369 -0.940679 -0.501654 -0.997549
 24 13.133340 0.635550 -6.798010 0.000000 0.000000 0.000000
 25 3.689260 -4.550930 -4.829990 0.000000 0.000000 0.000000
 26 3.087020 -2.930260 -1.806420 0.000000 0.000000 0.000000
 27 10.169240 0.711430 -6.708540 0.000000 0.000000 0.000000
 28 2.770930 0.042420 -2.816470 0.000000 0.000000 0.000000
 29 -52.850708 -0.361260 -67.170868 1.570802 -0.000018 -0.000537
time 17
  0 1.278131 77.132645 42.163982 0.185991 0.223189 -0.365586
  1 9.062670 0.286610 -3.406700 -1.703301 -0.455563 0.123393
  2 4.544490 -1.638600 -20.622749 1.708959 -0.151665 0.317244
  3 3.070910 1.647970 -15.136740 -0.078773 -0.018418 0.169087
  4 -0.361640 -14.308061 -6.406600 -0.473675 0.000000 0.000000
  5 -9.522449 0.590440 -3.372560 -0.169393 -0.264257 -0.029511
  6 -4.141180 -1.081730 -20.790251 1.018534 0.156996 -0.140663
  7 -3.014440 0.974200 -14.527950 -0.476477 0.428815 0.423444
  8 0.361640 -14.494990 -6.882030 0.692326 0.000000 0.000000
  9 0.013460 -1.507020 5.475230 0.000000 0.000000 0.000000
 10 -0.004780 1.092750 22.735540 0.000000 0.000000 0.000000
 11 -0.976790 -3.346690 20.865768 -0.318428 -0.163050 0.302083
 12 0.975190 -4.916450 -4.520320 0.279042 0.000000 0.000000
 13 -2.406500 -8.600220 4.877150 0.000000 0.207381 0.000000
 14 4.381730 -8.600220 5.272540 0.000000 -0.209383 0.000000
 15 -18.388140 0.440630 8.679390 1.277665 -0.593716 0.038773
 16 -21.955891 -0.759690 -12.109390 -0.281709 0.225918 0.624143
 17 -13.311041 1.530050 -7.133010 0.000005 -0.000018 -0.000010
 18 -9.635210 -0.302230 -6.530870 0.000000 0.000000 0.000000
 19 -3.126290 0.042420 -2.638810 0.000000 0.000000 0.000000
 20 -2.839340 -5.564580 -4.296970 0.000000 0.000000 0.000000
 21 -3.811070 -2.785450 -1.806430 0.000000 0.000000 0.000000
 22 18.455151 0.440630 8.679390 -0.551743 0.202308 -0.391563
 23 21.943432 -0.878860 -11.911369 -0.972209 -0.543149 -0.999534
 24 13.133340 0.635550 -6.798010 0.000000 0.000000 0.000000
 25 3.689260 -4.550930 -4.829990 0.000000 0.000000 0.000000
 26 3.087020 -2.930260 -1.806420 0.000000 0.000000 0.000000
 27 10.169240 0.711430 -6.708540 0.000000 0.000000 0.000000
 28 2.770930 0.042420 -2.816470 0.000000 0.000000 0.000000
 29 -52.850708 -0.361260 -67.170868 1.570802 -0.000018 -0.000537
time 18
  0 1.278131 81.745041 44.109352 0.194962 0.244462 -0.413347
  1 9.062670 0.286610 -3.406700 -1.687759 -0.473997 0.195008
  2 4.544490 -1.638600 -20.622749 1.489689 -0.103978 0.297901
  3 3.070910 1.647970 -15.136740 -0.146496 -0.015979 0.190812
  4 -0.361640 -14.308061 -6.406600 -0.524626 0.000000 0.000000
  5 -9.522449 0.590440 -3.372560 -0.043002 -0.174676 -0.064579
  6 -4.141180 -1.081730 -20.790251 1.092518 0.172704 -0.143635
  7 -3.014440 0.974200 -14.527950 -0.172602 0.497566 0.486624
  8 0.361640 -14.494990 -6.882030 0.742494 0.000000 0.000000
  9 0.013460 -1.507020 5.475230 0.000000 0.000000 0.000000
 10 -0.004780 1.092750 22.735540 0.000000 0.000000 0.000000
 11 -0.976790 -3.346690 20.865768 -0.341112 -0.169390 0.350379
 12 0.975190 -4.916450 -4.520320 0.176560 0.000000 0.000000
 13 -2.406500 -8.600220 4.877150 0.000000 0.207381 0.000000
 14 4.381730 -8.600220 5.272540 0.000000 -0.209383 0.000000
 15 -18.388140 0.440630 8.679390 1.369327 -0.606834 0.012302
 16 -21.955891 -0.759690 -12.109390 -0.262599 0.198542 0.621313
 17 -13.311041 1.530050 -7.133010 0.000005 -0.000018 -0.000010
 18 -9.635210 -0.302230 -6.530870 0.000000 0.000000 0.000000
 19 -3.126290 0.042420 -2.638810 0.000000 0.000000 0.000000
 20 -2.839340 -5.564580 -4.296970 0.000000 0.000000 0.000000
 21 -3.811070 -2.785450 -1.806430 0.000000 0.000000 0.000000
 22 18.455151 0.440630 8.679390 -0.602447 0.202782 -0.432416
 23 21.943432 -0.878860 -11.911369 -0.997947 -0.577488 -1.000965
 24 13.133340 0.635550 -6.798010 0.000000 0.000000 0.000000
 25 3.689260 -4.550930 -4.829990 0.000000 0.000000 0.000000
 26 3.087020 -2.930260 -1.806420 0.000000 0.000000 0.000000
 27 10.169240 0.711430 -6.708540 0.000000 0.000000 0.000000
 28 2.770930 0.042420 -2.816470 0.000000 0.000000 0.000000
 29 -52.850708 -0.361260 -67.170868 1.570802 -0.000018 -0.000537
time 19
  0 1.278131 86.357437 45.808624 0.201772 0.260557 -0.449470
  1 9.062670 0.286610 -3.406700 -1.649085 -0.479041 0.244236
  2 4.544490 -1.638600 -20.622749 1.282733 -0.063818 0.270588
  3 3.070910 1.647970 -15.136740 -0.195585 -0.019760 0.214692
  4 -0.361640 -14.308061 -6.406600 -0.563216 0.000000 0.000000
  5 -9.522449 0.590440 -3.372560 0.074401 -0.080965 -0.067541
  6 -4.141180 -1.081730 -20.790251 1.146351 0.184224 -0.145038
  7 -3.014440 0.974200 -14.527950 0.143523 0.549362 0.519795
  8 0.361640 -14.494990 -6.882030 0.780480 0.000000 0.000000
  9 0.013460 -1.507020 5.475230 0.000000 0.000000 0.000000
 10 -0.004780 1.092750 22.735540 0.000000 0.000000 0.000000
 11 -0.976790 -3.346690 20.865768 -0.356874 -0.172866 0.387670
 12 0.975190 -4.916450 -4.520320 0.087201 0.000000 0.000000
 13 -2.406500 -8.600220 4.877150 0.000000 0.207381 0.000000
 14 4.381730 -8.600220 5.272540 0.000000 -0.209383 0.000000
 15 -18.388140 0.440630 8.679390 1.438730 -0.616615 -0.007678
 16 -21.955891 -0.759690 -12.109390 -0.248170 0.177788 0.619105
 17 -13.311041 1.530050 -7.133010 0.000005 -0.000018 -0.000010
 18 -9.635210 -0.302230 -6.530870 0.000000 0.000000 0.000000
 19 -3.126290 0.042420 -2.638810 0.000000 0.000000 0.000000
 20 -2.839340 -5.564580 -4.296970 0.000000 0.000000 0.000000
 21 -3.811070 -2.785450 -1.806430 0.000000 0.000000 0.000000
 22 18.455151 0.440630 8.679390 -0.640860 0.203107 -0.463378
 23 21.943432 -0.878860 -11.911369 -1.017153 -0.603489 -1.001980
 24 13.133340 0.635550 -6.798010 0.000000 0.000000 0.000000
 25 3.689260 -4.550930 -4.829990 0.000000 0.000000 0.000000
 26 3.087020 -2.930260 -1.806420 0.000000 0.000000 0.000000
 27 10.169240 0.711430 -6.708540 0.000000 0.000000 0.000000
 28 2.770930 0.042420 -2.816470 0.000000 0.000000 0.000000
 29 -52.850708 -0.361260 -67.170868 1.570802 -0.000018 -0.000537
time 20
  0 1.278131 90.969841 47.007877 0.206076 0.270756 -0.472368
  1 9.062670 0.286610 -3.406700 -1.607189 -0.475591 0.274455
  2 4.544490 -1.638600 -20.622749 1.105260 -0.034528 0.241130
  3 3.070910 1.647970 -15.136740 -0.205018 -0.029445 0.234631
  4 -0.361640 -14.308061 -6.406600 -0.587636 0.000000 0.000000
  5 -9.522449 0.590440 -3.372560 0.167743 -0.011364 -0.052693
  6 -4.141180 -1.081730 -20.790251 1.169848 0.189252 -0.145457
  7 -3.014440 0.974200 -14.527950 0.394496 0.576682 0.530886
  8 0.361640 -14.494990 -6.882030 0.804546 0.000000 0.000000
  9 0.013460 -1.507020 5.475230 0.000000 0.000000 0.000000
 10 -0.004780 1.092750 22.735540 0.000000 0.000000 0.000000
 11 -0.976790 -3.346690 20.865768 -0.365617 -0.174376 0.411863
 12 0.975190 -4.916450 -4.520320 0.023951 0.000000 0.000000
 13 -2.406500 -8.600220 4.877150 0.000000 0.207381 0.000000
 14 4.381730 -8.600220 5.272540 0.000000 -0.209383 0.000000
 15 -18.388140 0.440630 8.679390 1.482763 -0.622718 -0.020362
 16 -21.955891 -0.759690 -12.109390 -0.239005 0.164649 0.617747
 17 -13.311041 1.530050 -7.133010 0.000005 -0.000018 -0.000010
 18 -9.635210 -0.302230 -6.530870 0.000000 0.000000 0.000000
 19 -3.126290 0.042420 -2.638810 0.000000 0.000000 0.000000
 20 -2.839340 -5.564580 -4.296970 0.000000 0.000000 0.000000
 21 -3.811070 -2.785450 -1.806430 0.000000 0.000000 0.000000
 22 18.455151 0.440630 8.679390 -0.665203 0.203285 -0.482960
 23 21.943432 -0.878860 -11.911369 -1.029173 -0.619940 -1.002580
 24 13.133340 0.635550 -6.798010 0.000000 0.000000 0.000000
 25 3.689260 -4.550930 -4.829990 0.000000 0.000000 0.000000
 26 3.087020 -2.930260 -1.806420 0.000000 0.000000 0.000000
 27 10.169240 0.711430 -6.708540 0.000000 0.000000 0.000000
 28 2.770930 0.042420 -2.816470 0.000000 0.000000 0.000000
 29 -52.850708 -0.361260 -67.170868 1.570802 -0.000018 -0.000537
time 21
  0 1.278131 95.582237 47.461018 0.207587 0.274315 -0.480379
  1 9.062670 0.286610 -3.406700 -1.581614 -0.467477 0.287706
  2 4.544490 -1.638600 -20.622749 0.983347 -0.017689 0.218191
  3 3.070910 1.647970 -15.136740 -0.162551 -0.042301 0.244809
  4 -0.361640 -14.308061 -6.406600 -0.596175 0.000000 0.000000
  5 -9.522449 0.590440 -3.372560 0.200223 0.013177 -0.043421
  6 -4.141180 -1.081730 -20.790251 1.187089 0.192948 -0.145697
  7 -3.014440 0.974200 -14.527950 0.491048 0.588435 0.529435
  8 0.361640 -14.494990 -6.882030 0.812982 0.000000 0.000000
  9 0.013460 -1.507020 5.475230 0.000000 0.000000 0.000000
 10 -0.004780 1.092750 22.735540 0.000000 0.000000 0.000000
 11 -0.976790 -3.346690 20.865768 -0.368022 -0.174580 0.421080
 12 0.975190 -4.916450 -4.520320 0.000000 0.000000 0.000000
 13 -2.406500 -8.600220 4.877150 0.000000 0.207381 0.000000
 14 4.381730 -8.600220 5.272540 0.000000 -0.209383 0.000000
 15 -18.388140 0.440630 8.679390 1.498109 -0.624828 -0.024774
 16 -21.955891 -0.759690 -12.109390 -0.235820 0.160080 0.617237
 17 -13.311041 1.530050 -7.133010 0.000005 -0.000018 -0.000010
 18 -9.635210 -0.302230 -6.530870 0.000000 0.000000 0.000000
 19 -3.126290 0.042420 -2.638810 0.000000 0.000000 0.000000
 20 -2.839340 -5.564580 -4.296970 0.000000 0.000000 0.000000
 21 -3.811070 -2.785450 -1.806430 0.000000 0.000000 0.000000
 22 18.455151 0.440630 8.679390 -0.673693 0.203344 -0.489836
 23 21.943432 -0.878860 -11.911369 -1.033353 -0.625715 -1.002765
 24 13.133340 0.635550 -6.798010 0.000000 0.000000 0.000000
 25 3.689260 -4.550930 -4.829990 0.000000 0.000000 0.000000
 26 3.087020 -2.930260 -1.806420 0.000000 0.000000 0.000000
 27 10.169240 0.711430 -6.708540 0.000000 0.000000 0.000000
 28 2.770930 0.042420 -2.816470 0.000000 0.000000 0.000000
 29 -52.850708 -0.361260 -67.170868 1.570802 -0.000018 -0.000537
time 22
  0 1.278131 100.194641 47.253979 0.206076 0.270756 -0.472368
  1 9.062670 0.286610 -3.406700 -1.554013 -0.454086 0.275699
  2 4.544490 -1.638600 -20.622749 0.897508 -0.007598 0.200946
  3 3.070910 1.647970 -15.136740 -0.087166 -0.058035 0.250281
  4 -0.361640 -14.308061 -6.406600 -0.587636 0.000000 0.000000
  5 -9.522449 0.590440 -3.372560 0.178721 0.002154 -0.046052
  6 -4.141180 -1.081730 -20.790251 1.230665 0.202309 -0.145984
  7 -3.014440 0.974200 -14.527950 0.469513 0.597514 0.511191
  8 0.361640 -14.494990 -6.882030 0.804546 0.000000 0.000000
  9 0.013460 -1.507020 5.475230 0.000000 0.000000 0.000000
 10 -0.004780 1.092750 22.735540 0.000000 0.000000 0.000000
 11 -0.976790 -3.346690 20.865768 -0.359473 -0.173813 0.413773
 12 0.975190 -4.916450 -4.520320 0.008172 0.000000 0.000000
 13 -2.406500 -8.600220 4.877150 0.000000 0.207381 0.000000
 14 4.381730 -8.600220 5.272540 0.000000 -0.209383 0.000000
 15 -18.388140 0.440630 8.679390 1.482763 -0.621720 -0.020362
 16 -21.955891 -0.759690 -12.109390 -0.239005 0.164649 0.617747
 17 -13.311041 1.530050 -7.133010 0.000005 -0.000018 -0.000010
 18 -9.635210 -0.302230 -6.530870 0.000000 0.000000 0.000000
 19 -3.126290 0.042420 -2.638810 0.000000 0.000000 0.000000
 20 -2.839340 -5.564580 -4.296970 0.000000 0.000000 0.000000
 21 -3.811070 -2.785450 -1.806430 0.000000 0.000000 0.000000
 22 18.455151 0.440630 8.679390 -0.665203 0.202959 -0.482960
 23 21.943432 -0.878860 -11.911369 -1.027518 -0.619940 -1.001888
 24 13.133340 0.635550 -6.798010 0.000000 0.000000 0.000000
 25 3.689260 -4.550930 -4.829990 0.000000 0.000000 0.000000
 26 3.087020 -2.930260 -1.806420 0.000000 0.000000 0.000000
 27 10.169240 0.711430 -6.708540 0.000000 0.000000 0.000000
 28 2.770930 0.042420 -2.816470 0.000000 0.000000 0.000000
 29 -52.850708 -0.361260 -67.170868 1.570802 -0.000018 -0.000537
time 23
  0 1.278131 104.807037 46.679745 0.201772 0.260557 -0.449470
  1 9.062670 0.286610 -3.406700 -1.498497 -0.434847 0.233396
  2 4.544490 -1.638600 -20.622749 0.812610 0.000863 0.183125
  3 3.070910 1.647970 -15.136740 -0.007662 -0.076892 0.259114
  4 -0.361640 -14.308061 -6.406600 -0.563216 0.000000 0.000000
  5 -9.522449 0.590440 -3.372560 0.139132 -0.021866 -0.054386
  6 -4.141180 -1.081730 -20.790251 1.314106 0.220153 -0.145385
  7 -3.014440 0.974200 -14.527950 0.425315 0.609183 0.469365
  8 0.361640 -14.494990 -6.882030 0.780480 0.000000 0.000000
  9 0.013460 -1.507020 5.475230 0.000000 0.000000 0.000000
 10 -0.004780 1.092750 22.735540 0.000000 0.000000 0.000000
 11 -0.976790 -3.346690 20.865768 -0.337299 -0.171967 0.390823
 12 0.975190 -4.916450 -4.520320 0.030794 0.000000 0.000000
 13 -2.406500 -8.600220 4.877150 0.000000 0.207381 0.000000
 14 4.381730 -8.600220 5.272540 0.000000 -0.209383 0.000000
 15 -18.388140 0.440630 8.679390 1.438730 -0.612851 -0.007678
 16 -21.955891 -0.759690 -12.109390 -0.248170 0.177788 0.619105
 17 -13.311041 1.530050 -7.133010 0.000005 -0.000018 -0.000010
 18 -9.635210 -0.302230 -6.530870 0.000000 0.000000 0.000000
 19 -3.126290 0.042420 -2.638810 0.000000 0.000000 0.000000
 20 -2.839340 -5.564580 -4.296970 0.000000 0.000000 0.000000
 21 -3.811070 -2.785450 -1.806430 0.000000 0.000000 0.000000
 22 18.455151 0.440630 8.679390 -0.640860 0.201894 -0.463378
 23 21.943432 -0.878860 -11.911369 -1.010925 -0.603489 -0.999488
 24 13.133340 0.635550 -6.798010 0.000000 0.000000 0.000000
 25 3.689260 -4.550930 -4.829990 0.000000 0.000000 0.000000
 26 3.087020 -2.930260 -1.806420 0.000000 0.000000 0.000000
 27 10.169240 0.711430 -6.708540 0.000000 0.000000 0.000000
 28 2.770930 0.042420 -2.816470 0.000000 0.000000 0.000000
 29 -52.850708 -0.361260 -67.170868 1.570802 -0.000018 -0.000537
time 24
  0 1.278131 109.419426 45.808624 0.194962 0.244462 -0.413347
  1 9.062670 0.286610 -3.406700 -1.425932 -0.408299 0.168736
  2 4.544490 -1.638600 -20.622749 0.736768 0.007131 0.166670
  3 3.070910 1.647970 -15.136740 0.069302 -0.098213 0.267716
  4 -0.361640 -14.308061 -6.406600 -0.524626 0.000000 0.000000
  5 -9.522449 0.590440 -3.372560 0.084810 -0.056927 -0.066584
  6 -4.141180 -1.081730 -20.790251 1.425263 0.243625 -0.142233
  7 -3.014440 0.974200 -14.527950 0.362870 0.615881 0.407248
  8 0.361640 -14.494990 -6.882030 0.742494 0.000000 0.000000
  9 0.013460 -1.507020 5.475230 0.000000 0.000000 0.000000
 10 -0.004780 1.092750 22.735540 0.000000 0.000000 0.000000
 11 -0.976790 -3.346690 20.865768 -0.305701 -0.168336 0.354351
 12 0.975190 -4.916450 -4.520320 0.064944 0.000000 0.000000
 13 -2.406500 -8.600220 4.877150 0.000000 0.207381 0.000000
 14 4.381730 -8.600220 5.272540 0.000000 -0.209383 0.000000
 15 -18.388140 0.440630 8.679390 1.369327 -0.598849 0.012302
 16 -21.955891 -0.759690 -12.109390 -0.262599 0.198542 0.621313
 17 -13.311041 1.530050 -7.133010 0.000005 -0.000018 -0.000010
 18 -9.635210 -0.302230 -6.530870 0.000000 0.000000 0.000000
 19 -3.126290 0.042420 -2.638810 0.000000 0.000000 0.000000
 20 -2.839340 -5.564580 -4.296970 0.000000 0.000000 0.000000
 21 -3.811070 -2.785450 -1.806430 0.000000 0.000000 0.000000
 22 18.455151 0.440630 8.679390 -0.602447 0.200207 -0.432416
 23 21.943432 -0.878860 -11.911369 -0.984752 -0.577488 -0.995657
 24 13.133340 0.635550 -6.798010 0.000000 0.000000 0.000000
 25 3.689260 -4.550930 -4.829990 0.000000 0.000000 0.000000
 26 3.087020 -2.930260 -1.806420 0.000000 0.000000 0.000000
 27 10.169240 0.711430 -6.708540 0.000000 0.000000 0.000000
 28 2.770930 0.042420 -2.816470 0.000000 0.000000 0.000000
 29 -52.850708 -0.361260 -67.170868 1.570802 -0.000018 -0.000537
time 25
  0 1.278131 114.031830 44.714840 0.185991 0.223189 -0.365586
  1 9.062670 0.286610 -3.406700 -1.347130 -0.371707 0.089827
  2 4.544490 -1.638600 -20.622749 0.678527 0.011074 0.153750
  3 3.070910 1.647970 -15.136740 0.136486 -0.121340 0.272121
  4 -0.361640 -14.308061 -6.406600 -0.473675 0.000000 0.000000
  5 -9.522449 0.590440 -3.372560 0.017463 -0.101646 -0.078672
  6 -4.141180 -1.081730 -20.790251 1.553153 0.269833 -0.135330
  7 -3.014440 0.974200 -14.527950 0.288111 0.608361 0.329556
  8 0.361640 -14.494990 -6.882030 0.692326 0.000000 0.000000
  9 0.013460 -1.507020 5.475230 0.000000 0.000000 0.000000
 10 -0.004780 1.092750 22.735540 0.000000 0.000000 0.000000
 11 -0.976790 -3.346690 20.865768 -0.268760 -0.161960 0.306570
 12 0.975190 -4.916450 -4.520320 0.107763 0.000000 0.000000
 13 -2.406500 -8.600220 4.877150 0.000000 0.207381 0.000000
 14 4.381730 -8.600220 5.272540 0.000000 -0.209383 0.000000
 15 -18.388140 0.440630 8.679390 1.277665 -0.580370 0.038773
 16 -21.955891 -0.759690 -12.109390 -0.281709 0.225918 0.624143
 17 -13.311041 1.530050 -7.133010 0.000005 -0.000018 -0.000010
 18 -9.635210 -0.302230 -6.530870 0.000000 0.000000 0.000000
 19 -3.126290 0.042420 -2.638810 0.000000 0.000000 0.000000
 20 -2.839340 -5.564580 -4.296970 0.000000 0.000000 0.000000
 21 -3.811070 -2.785450 -1.806430 0.000000 0.000000 0.000000
 22 18.455151 0.440630 8.679390 -0.551743 0.197959 -0.391563
 23 21.943432 -0.878860 -11.911369 -0.950173 -0.543149 -0.990580
 24 13.133340 0.635550 -6.798010 0.000000 0.000000 0.000000
 25 3.689260 -4.550930 -4.829990 0.000000 0.000000 0.000000
 26 3.087020 -2.930260 -1.806420 0.000000 0.000000 0.000000
 27 10.169240 0.711430 -6.708540 0.000000 0.000000 0.000000
 28 2.770930 0.042420 -2.816470 0.000000 0.000000 0.000000
 29 -52.850708 -0.361260 -67.170868 1.570802 -0.000018 -0.000537
time 26
  0 1.278131 118.644226 43.476521 0.175145 0.197506 -0.308001
  1 9.062670 0.286610 -3.406700 -1.272382 -0.323873 0.003992
  2 4.544490 -1.638600 -20.622749 0.647741 0.012859 0.146847
  3 3.070910 1.647970 -15.136740 0.184920 -0.144832 0.269663
  4 -0.361640 -14.308061 -6.406600 -0.412143 0.000000 0.000000
  5 -9.522449 0.590440 -3.372560 -0.063423 -0.152756 -0.086473
  6 -4.141180 -1.081730 -20.790251 1.689045 0.296233 -0.124292
  7 -3.014440 0.974200 -14.527950 0.210224 0.579862 0.246059
  8 0.361640 -14.494990 -6.882030 0.631713 0.000000 0.000000
  9 0.013460 -1.507020 5.475230 0.000000 0.000000 0.000000
 10 -0.004780 1.092750 22.735540 0.000000 0.000000 0.000000
 11 -0.976790 -3.346690 20.865768 -0.230095 -0.151977 0.249877
 12 0.975190 -4.916450 -4.520320 0.156363 0.000000 0.000000
 13 -2.406500 -8.600220 4.877150 0.000000 0.207381 0.000000
 14 4.381730 -8.600220 5.272540 0.000000 -0.209383 0.000000
 15 -18.388140 0.440630 8.679390 1.166855 -0.558042 0.070716
 16 -21.955891 -0.759690 -12.109390 -0.304719 0.258997 0.627596
 17 -13.311041 1.530050 -7.133010 0.000005 -0.000018 -0.000010
 18 -9.635210 -0.302230 -6.530870 0.000000 0.000000 0.000000
 19 -3.126290 0.042420 -2.638810 0.000000 0.000000 0.000000
 20 -2.839340 -5.564580 -4.296970 0.000000 0.000000 0.000000
 21 -3.811070 -2.785450 -1.806430 0.000000 0.000000 0.000000
 22 18.455151 0.440630 8.679390 -0.490471 0.195266 -0.342185
 23 21.943432 -0.878860 -11.911369 -0.908409 -0.501654 -0.984487
 24 13.133340 0.635550 -6.798010 0.000000 0.000000 0.000000
 25 3.689260 -4.550930 -4.829990 0.000000 0.000000 0.000000
 26 3.087020 -2.930260 -1.806420 0.000000 0.000000 0.000000
 27 10.169240 0.711430 -6.708540 0.000000 0.000000 0.000000
 28 2.770930 0.042420 -2.816470 0.000000 0.000000 0.000000
 29 -52.850708 -0.361260 -67.170868 1.570802 -0.000018 -0.000537
time 27
  0 1.278131 123.256630 42.163982 0.162749 0.168132 -0.242027
  1 9.062670 0.286610 -3.406700 -1.209797 -0.265426 -0.082687
  2 4.544490 -1.638600 -20.622749 0.654261 0.012500 0.148321
  3 3.070910 1.647970 -15.136740 0.204594 -0.167300 0.259253
  4 -0.361640 -14.308061 -6.406600 -0.341744 0.000000 0.000000
  5 -9.522449 0.590440 -3.372560 -0.160235 -0.206810 -0.081340
  6 -4.141180 -1.081730 -20.790251 1.825955 0.320893 -0.109551
  7 -3.014440 0.974200 -14.527950 0.138236 0.523496 0.166942
  8 0.361640 -14.494990 -6.882030 0.562391 0.000000 0.000000
  9 0.013460 -1.507020 5.475230 0.000000 0.000000 0.000000
 10 -0.004780 1.092750 22.735540 0.000000 0.000000 0.000000
 11 -0.976790 -3.346690 20.865768 -0.192693 -0.137715 0.186422
 12 0.975190 -4.916450 -4.520320 0.207853 0.000000 0.000000
 13 -2.406500 -8.600220 4.877150 0.000000 0.207381 0.000000
 14 4.381730 -8.600220 5.272540 0.000000 -0.209383 0.000000
 15 -18.388140 0.440630 8.679390 1.040215 -0.532520 0.107241
 16 -21.955891 -0.759690 -12.109390 -0.331109 0.296785 0.631559
 17 -13.311041 1.530050 -7.133010 0.000005 -0.000018 -0.000010
 18 -9.635210 -0.302230 -6.530870 0.000000 0.000000 0.000000
 19 -3.126290 0.042420 -2.638810 0.000000 0.000000 0.000000
 20 -2.839340 -5.564580 -4.296970 0.000000 0.000000 0.000000
 21 -3.811070 -2.785450 -1.806430 0.000000 0.000000 0.000000
 22 18.455151 0.440630 8.679390 -0.420413 0.192189 -0.285691
 23 21.943432 -0.878860 -11.911369 -0.860591 -0.454215 -0.977471
 24 13.133340 0.635550 -6.798010 0.000000 0.000000 0.000000
 25 3.689260 -4.550930 -4.829990 0.000000 0.000000 0.000000
 26 3.087020 -2.930260 -1.806420 0.000000 0.000000 0.000000
 27 10.169240 0.711430 -6.708540 0.000000 0.000000 0.000000
 28 2.770930 0.042420 -2.816470 0.000000 0.000000 0.000000
 29 -52.850708 -0.361260 -67.170868 1.570802 -0.000018 -0.000537
time 28
  0 1.278131 127.869026 40.851440 0.149091 0.135809 -0.169479
  1 9.062670 0.286610 -3.406700 -1.164678 -0.196979 -0.164559
  2 4.544490 -1.638600 -20.622749 0.705040 0.009372 0.159671
  3 3.070910 1.647970 -15.136740 0.186152 -0.189060 0.239848
  4 -0.361640 -14.308061 -6.406600 -0.264307 0.000000 0.000000
  5 -9.522449 0.590440 -3.372560 -0.276330 -0.255138 -0.055490
  6 -4.141180 -1.081730 -20.790251 1.958791 0.342553 -0.092042
  7 -3.014440 0.974200 -14.527950 0.080337 0.437830 0.104488
  8 0.361640 -14.494990 -6.882030 0.486122 0.000000 0.000000
  9 0.013460 -1.507020 5.475230 0.000000 0.000000 0.000000
 10 -0.004780 1.092750 22.735540 0.000000 0.000000 0.000000
 11 -0.976790 -3.346690 20.865768 -0.159080 -0.118923 0.118329
 12 0.975190 -4.916450 -4.520320 0.259343 0.000000 0.000000
 13 -2.406500 -8.600220 4.877150 0.000000 0.207381 0.000000
 14 4.381730 -8.600220 5.272540 0.000000 -0.209383 0.000000
 15 -18.388140 0.440630 8.679390 0.900856 -0.504402 0.147456
 16 -21.955891 -0.759690 -12.109390 -0.360099 0.338434 0.635917
 17 -13.311041 1.530050 -7.133010 0.000005 -0.000018 -0.000010
 18 -9.635210 -0.302230 -6.530870 0.000000 0.000000 0.000000
 19 -3.126290 0.042420 -2.638810 0.000000 0.000000 0.000000
 20 -2.839340 -5.564580 -4.296970 0.000000 0.000000 0.000000
 21 -3.811070 -2.785450 -1.806430 0.000000 0.000000 0.000000
 22 18.455151 0.440630 8.679390 -0.343288 0.188786 -0.223567
 23 21.943432 -0.878860 -11.911369 -0.808026 -0.402016 -0.969763
 24 13.133340 0.635550 -6.798010 0.000000 0.000000 0.000000
 25 3.689260 -4.550930 -4.829990 0.000000 0.000000 0.000000
 26 3.087020 -2.930260 -1.806420 0.000000 0.000000 0.000000
 27 10.169240 0.711430 -6.708540 0.000000 0.000000 0.000000
 28 2.770930 0.042420 -2.816470 0.000000 0.000000 0.000000
 29 -52.850708 -0.361260 -67.170868 1.570802 -0.000018 -0.000537
time 29
  0 1.278131 132.481415 39.613121 0.134515 0.101282 -0.092018
  1 9.062670 0.286610 -3.406700 -1.137024 -0.119658 -0.236467
  2 4.544490 -1.638600 -20.622749 0.801382 0.001870 0.180716
  3 3.070910 1.647970 -15.136740 0.121856 -0.212503 0.211237
  4 -0.361640 -14.308061 -6.406600 -0.181546 0.000000 0.000000
  5 -9.522449 0.590440 -3.372560 -0.412902 -0.283897 -0.003257
  6 -4.141180 -1.081730 -20.790251 2.083917 0.360577 -0.072974
  7 -3.014440 0.974200 -14.527950 0.039105 0.325539 0.068207
  8 0.361640 -14.494990 -6.882030 0.404618 0.000000 0.000000
  9 0.013460 -1.507020 5.475230 0.000000 0.000000 0.000000
 10 -0.004780 1.092750 22.735540 0.000000 0.000000 0.000000
 11 -0.976790 -3.346690 20.865768 -0.131296 -0.095721 0.047477
 12 0.975190 -4.916450 -4.520320 0.307976 0.000000 0.000000
 13 -2.406500 -8.600220 4.877150 0.000000 0.207381 0.000000
 14 4.381730 -8.600220 5.272540 0.000000 -0.209383 0.000000
 15 -18.388140 0.440630 8.679390 0.751889 -0.474403 0.190428
 16 -21.955891 -0.759690 -12.109390 -0.391104 0.382881 0.640559
 17 -13.311041 1.530050 -7.133010 0.000005 -0.000018 -0.000010
 18 -9.635210 -0.302230 -6.530870 0.000000 0.000000 0.000000
 19 -3.126290 0.042420 -2.638810 0.000000 0.000000 0.000000
 20 -2.839340 -5.564580 -4.296970 0.000000 0.000000 0.000000
 21 -3.811070 -2.785450 -1.806430 0.000000 0.000000 0.000000
 22 18.455151 0.440630 8.679390 -0.260940 0.185146 -0.157180
 23 21.943432 -0.878860 -11.911369 -0.751846 -0.346239 -0.961547
 24 13.133340 0.635550 -6.798010 0.000000 0.000000 0.000000
 25 3.689260 -4.550930 -4.829990 0.000000 0.000000 0.000000
 26 3.087020 -2.930260 -1.806420 0.000000 0.000000 0.000000
 27 10.169240 0.711430 -6.708540 0.000000 0.000000 0.000000
 28 2.770930 0.042420 -2.816470 0.000000 0.000000 0.000000
 29 -52.850708 -0.361260 -67.170868 1.570802 -0.000018 -0.000537
time 30
  0 1.278131 137.093826 38.523247 0.119307 0.065268 -0.011157
  1 9.062670 0.286610 -3.406700 -1.121534 -0.034867 -0.292989
  2 4.544490 -1.638600 -20.622749 0.939522 -0.012344 0.209479
  3 3.070910 1.647970 -15.136740 0.005236 -0.242216 0.173910
  4 -0.361640 -14.308061 -6.406600 -0.095265 0.000000 0.000000
  5 -9.522449 0.590440 -3.372560 -0.563297 -0.274634 0.069620
  6 -4.141180 -1.081730 -20.790251 2.199221 0.374977 -0.053463
  7 -3.014440 0.974200 -14.527950 0.010316 0.196735 0.064424
  8 0.361640 -14.494990 -6.882030 0.319640 0.000000 0.000000
  9 0.013460 -1.507020 5.475230 0.000000 0.000000 0.000000
 10 -0.004780 1.092750 22.735540 0.000000 0.000000 0.000000
 11 -0.976790 -3.346690 20.865768 -0.111065 -0.068636 -0.024436
 12 0.975190 -4.916450 -4.520320 0.350796 0.000000 0.000000
 13 -2.406500 -8.600220 4.877150 0.000000 0.207381 0.000000
 14 4.381730 -8.600220 5.272540 0.000000 -0.209383 0.000000
 15 -18.388140 0.440630 8.679390 0.596631 -0.443091 0.235225
 16 -21.955891 -0.759690 -12.109390 -0.423474 0.429241 0.645427
 17 -13.311041 1.530050 -7.133010 0.000005 -0.000018 -0.000010
 18 -9.635210 -0.302230 -6.530870 0.000000 0.000000 0.000000
 19 -3.126290 0.042420 -2.638810 0.000000 0.000000 0.000000
 20 -2.839340 -5.564580 -4.296970 0.000000 0.000000 0.000000
 21 -3.811070 -2.785450 -1.806430 0.000000 0.000000 0.000000
 22 18.455151 0.440630 8.679390 -0.175028 0.181359 -0.087979
 23 21.943432 -0.878860 -11.911369 -0.693272 -0.288096 -0.952961
 24 13.133340 0.635550 -6.798010 0.000000 0.000000 0.000000
 25 3.689260 -4.550930 -4.829990 0.000000 0.000000 0.000000
 26 3.087020 -2.930260 -1.806420 0.000000 0.000000 0.000000
 27 10.169240 0.711430 -6.708540 0.000000 0.000000 0.000000
 28 2.770930 0.042420 -2.816470 0.000000 0.000000 0.000000
 29 -52.850708 -0.361260 -67.170868 1.570802 -0.000018 -0.000537
time 31
  0 1.278131 141.706223 37.652126 0.103794 0.028523 0.071292
  1 9.062670 0.286610 -3.406700 -1.107291 0.056284 -0.325879
  2 4.544490 -1.638600 -20.622749 1.113011 -0.035690 0.242520
  3 3.070910 1.647970 -15.136740 -0.170867 -0.285736 0.127911
  4 -0.361640 -14.308061 -6.406600 -0.007225 0.000000 0.000000
  5 -9.522449 0.590440 -3.372560 -0.711473 -0.212770 0.142276
  6 -4.141180 -1.081730 -20.790251 2.304559 0.386137 -0.034228
  7 -3.014440 0.974200 -14.527950 -0.016377 0.068331 0.095573
  8 0.361640 -14.494990 -6.882030 0.232926 0.000000 0.000000
  9 0.013460 -1.507020 5.475230 0.000000 0.000000 0.000000
 10 -0.004780 1.092750 22.735540 0.000000 0.000000 0.000000
 11 -0.976790 -3.346690 20.865768 -0.099844 -0.038518 -0.095955
 12 0.975190 -4.916450 -4.520320 0.384945 0.000000 0.000000
 13 -2.406500 -8.600220 4.877150 0.000000 0.207381 0.000000
 14 4.381730 -8.600220 5.272540 0.000000 -0.209383 0.000000
 15 -18.388140 0.440630 8.679390 0.438193 -0.411153 0.280913
 16 -21.955891 -0.759690 -12.109390 -0.456429 0.476556 0.650352
 17 -13.311041 1.530050 -7.133010 0.000005 -0.000018 -0.000010
 18 -9.635210 -0.302230 -6.530870 0.000000 0.000000 0.000000
 19 -3.126290 0.042420 -2.638810 0.000000 0.000000 0.000000
 20 -2.839340 -5.564580 -4.296970 0.000000 0.000000 0.000000
 21 -3.811070 -2.785450 -1.806430 0.000000 0.000000 0.000000
 22 18.455151 0.440630 8.679390 -0.087395 0.177482 -0.017330
 23 21.943432 -0.878860 -11.911369 -0.633521 -0.228742 -0.944238
 24 13.133340 0.635550 -6.798010 0.000000 0.000000 0.000000
 25 3.689260 -4.550930 -4.829990 0.000000 0.000000 0.000000
 26 3.087020 -2.930260 -1.806420 0.000000 0.000000 0.000000
 27 10.169240 0.711430 -6.708540 0.000000 0.000000 0.000000
 28 2.770930 0.042420 -2.816470 0.000000 0.000000 0.000000
 29 -52.850708 -0.361260 -67.170868 1.570802 -0.000018 -0.000537
time 32
  0 1.278131 146.318619 37.077888 0.088261 -0.008209 0.153815
  1 9.062670 0.286610 -3.406700 -1.059157 0.153107 -0.324958
  2 4.544490 -1.638600 -20.622749 1.272302 -0.061936 0.268994
  3 3.070910 1.647970 -15.136740 -0.373729 -0.351749 0.073195
  4 -0.361640 -14.308061 -6.406600 0.080815 0.000000 0.000000
  5 -9.522449 0.590440 -3.372560 -0.912094 -0.066244 0.204132
  6 -4.141180 -1.081730 -20.790251 2.383708 0.393193 -0.019055
  7 -3.014440 0.974200 -14.527950 -0.002482 -0.052617 0.160282
  8 0.361640 -14.494990 -6.882030 0.146211 0.000000 0.000000
  9 0.013460 -1.507020 5.475230 0.000000 0.000000 0.000000
 10 -0.004780 1.092750 22.735540 0.000000 0.000000 0.000000
 11 -0.976790 -3.346690 20.865768 -0.098290 -0.006448 -0.165624
 12 0.975190 -4.916450 -4.520320 0.407567 0.000000 0.000000
 13 -2.406500 -8.600220 4.877150 0.000000 0.207381 0.000000
 14 4.381730 -8.600220 5.272540 0.000000 -0.209383 0.000000
 15 -18.388140 0.440630 8.679390 0.279686 -0.379214 0.326643
 16 -21.955891 -0.759690 -12.109390 -0.489384 0.523872 0.655333
 17 -13.311041 1.530050 -7.133010 0.000005 -0.000018 -0.000010
 18 -9.635210 -0.302230 -6.530870 0.000000 0.000000 0.000000
 19 -3.126290 0.042420 -2.638810 0.000000 0.000000 0.000000
 20 -2.839340 -5.564580 -4.296970 0.000000 0.000000 0.000000
 21 -3.811070 -2.785450 -1.806430 0.000000 0.000000 0.000000
 22 18.455151 0.440630 8.679390 0.000237 0.173635 0.053278
 23 21.943432 -0.878860 -11.911369 -0.573727 -0.169387 -0.935468
 24 13.133340 0.635550 -6.798010 0.000000 0.000000 0.000000
 25 3.689260 -4.550930 -4.829990 0.000000 0.000000 0.000000
 26 3.087020 -2.930260 -1.806420 0.000000 0.000000 0.000000
 27 10.169240 0.711430 -6.708540 0.000000 0.000000 0.000000
 28 2.770930 0.042420 -2.816470 0.000000 0.000000 0.000000
 29 -52.850708 -0.361260 -67.170868 1.570802 -0.000018 -0.000537
time 33
  0 1.278131 150.931015 36.866943 0.073053 -0.044223 0.234601
  1 9.062670 0.286610 -3.406700 -0.945372 0.244389 -0.276282
  2 4.544490 -1.638600 -20.622749 1.370963 -0.080225 0.283232
  3 3.070910 1.647970 -15.136740 -0.558919 -0.442351 0.001368
  4 -0.361640 -14.308061 -6.406600 0.167095 0.000000 0.000000
  5 -9.522449 0.590440 -3.372560 -1.206854 0.169344 0.178650
  6 -4.141180 -1.081730 -20.790251 2.347480 0.390109 -0.026066
  7 -3.014440 0.974200 -14.527950 0.151647 -0.143696 0.200372
  8 0.361640 -14.494990 -6.882030 0.061234 0.000000 0.000000
  9 0.013460 -1.507020 5.475230 0.000000 0.000000 0.000000
 10 -0.004780 1.092750 22.735540 0.000000 0.000000 0.000000
 11 -0.976790 -3.346690 20.865768 -0.104410 0.026306 -0.232414
 12 0.975190 -4.916450 -4.520320 0.415739 0.000000 0.000000
 13 -2.406500 -8.600220 4.877150 0.000000 0.207381 0.000000
 14 4.381730 -8.600220 5.272540 0.000000 -0.209383 0.000000
 15 -18.388140 0.440630 8.679390 0.124428 -0.347903 0.371439
 16 -21.955891 -0.759690 -12.109390 -0.521754 0.570267 0.660145
 17 -13.311041 1.530050 -7.133010 0.000005 -0.000018 -0.000010
 18 -9.635210 -0.302230 -6.530870 0.000000 0.000000 0.000000
 19 -3.126290 0.042420 -2.638810 0.000000 0.000000 0.000000
 20 -2.839340 -5.564580 -4.296970 0.000000 0.000000 0.000000
 21 -3.811070 -2.785450 -1.806430 0.000000 0.000000 0.000000
 22 18.455151 0.440630 8.679390 0.086089 0.169848 0.122479
 23 21.943432 -0.878860 -11.911369 -0.515152 -0.111244 -0.926929
 24 13.133340 0.635550 -6.798010 0.000000 0.000000 0.000000
 25 3.689260 -4.550930 -4.829990 0.000000 0.000000 0.000000
 26 3.087020 -2.930260 -1.806420 0.000000 0.000000 0.000000
 27 10.169240 0.711430 -6.708540 0.000000 0.000000 0.000000
 28 2.770930 0.042420 -2.816470 0.000000 0.000000 0.000000
 29 -52.850708 -0.361260 -67.170868 1.570802 -0.000018 -0.000537
time 34
  0 1.278131 155.543411 37.323990 0.058477 -0.078751 0.312137
  1 9.062670 0.286610 -3.406700 -0.730951 0.297383 -0.167938
  2 4.544490 -1.638600 -20.622749 1.386682 -0.083269 0.285329
  3 3.070910 1.647970 -15.136740 -0.720084 -0.545443 -0.106650
  4 -0.361640 -14.308061 -6.406600 0.249833 0.000000 0.000000
  5 -9.522449 0.590440 -3.372560 -1.459237 0.342386 0.049989
  6 -4.141180 -1.081730 -20.790251 2.178124 0.372505 -0.057166
  7 -3.014440 0.974200 -14.527950 0.292398 -0.187235 0.166708
  8 0.361640 -14.494990 -6.882030 -0.020246 0.000000 0.000000
  9 0.013460 -1.507020 5.475230 0.000000 0.000000 0.000000
 10 -0.004780 1.092750 22.735540 0.000000 0.000000 0.000000
 11 -0.976790 -3.346690 20.865768 -0.112546 0.058533 -0.295201
 12 0.975190 -4.916450 -4.520320 0.397900 0.000000 0.000000
 13 -2.406500 -8.600220 4.877150 0.000000 0.207381 0.000000
 14 4.381730 -8.600220 5.272540 0.000000 -0.209383 0.000000
 15 -18.388140 0.440630 8.679390 -0.024402 -0.317875 0.414412
 16 -21.955891 -0.759690 -12.109390 -0.552759 0.614714 0.664787
 17 -13.311041 1.530050 -7.133010 0.000005 -0.000018 -0.000010
 18 -9.635210 -0.302230 -6.530870 0.000000 0.000000 0.000000
 19 -3.126290 0.042420 -2.638810 0.000000 0.000000 0.000000
 20 -2.839340 -5.564580 -4.296970 0.000000 0.000000 0.000000
 21 -3.811070 -2.785450 -1.806430 0.000000 0.000000 0.000000
 22 18.455151 0.440630 8.679390 0.168498 0.166208 0.188865
 23 21.943432 -0.878860 -11.911369 -0.458973 -0.055467 -0.918713
 24 13.133340 0.635550 -6.798010 0.000000 0.000000 0.000000
 25 3.689260 -4.550930 -4.829990 0.000000 0.000000 0.000000
 26 3.087020 -2.930260 -1.806420 0.000000 0.000000 0.000000
 27 10.169240 0.711430 -6.708540 0.000000 0.000000 0.000000
 28 2.770930 0.042420 -2.816470 0.000000 0.000000 0.000000
 29 -52.850708 -0.361260 -67.170868 1.570802 -0.000018 -0.000537
time 35
  0 1.278131 160.155823 38.523247 0.044838 -0.111073 0.384686
  1 9.062670 0.286610 -3.406700 -0.430036 0.271522 -0.039677
  2 4.544490 -1.638600 -20.622749 1.264696 -0.060606 0.267832
  3 3.070910 1.647970 -15.136740 -0.796393 -0.609846 -0.272538
  4 -0.361640 -14.308061 -6.406600 0.327293 0.000000 0.000000
  5 -9.522449 0.590440 -3.372560 -1.579654 0.427120 -0.081469
  6 -4.141180 -1.081730 -20.790251 1.967303 0.343837 -0.090831
  7 -3.014440 0.974200 -14.527950 0.271927 -0.204044 0.112677
  8 0.361640 -14.494990 -6.882030 -0.096515 0.000000 0.000000
  9 0.013460 -1.507020 5.475230 0.000000 0.000000 0.000000
 10 -0.004780 1.092750 22.735540 0.000000 0.000000 0.000000
 11 -0.976790 -3.346690 20.865768 -0.119565 0.089069 -0.352380
 12 0.975190 -4.916450 -4.520320 0.350796 0.000000 0.000000
 13 -2.406500 -8.600220 4.877150 0.000000 0.207381 0.000000
 14 4.381730 -8.600220 5.272540 0.000000 -0.209383 0.000000
 15 -18.388140 0.440630 8.679390 -0.163830 -0.289786 0.454627
 16 -21.955891 -0.759690 -12.109390 -0.581749 0.656328 0.669145
 17 -13.311041 1.530050 -7.133010 0.000005 -0.000018 -0.000010
 18 -9.635210 -0.302230 -6.530870 0.000000 0.000000 0.000000
 19 -3.126290 0.042420 -2.638810 0.000000 0.000000 0.000000
 20 -2.839340 -5.564580 -4.296970 0.000000 0.000000 0.000000
 21 -3.811070 -2.785450 -1.806430 0.000000 0.000000 0.000000
 22 18.455151 0.440630 8.679390 0.245622 0.162805 0.251030
 23 21.943432 -0.878860 -11.911369 -0.406408 -0.003268 -0.911005
 24 13.133340 0.635550 -6.798010 0.000000 0.000000 0.000000
 25 3.689260 -4.550930 -4.829990 0.000000 0.000000 0.000000
 26 3.087020 -2.930260 -1.806420 0.000000 0.000000 0.000000
 27 10.169240 0.711430 -6.708540 0.000000 0.000000 0.000000
 28 2.770930 0.042420 -2.816470 0.000000 0.000000 0.000000
 29 -52.850708 -0.361260 -67.170868 1.570802 -0.000018 -0.000537
time 36
  0 1.278131 164.768219 40.218609 0.032424 -0.140447 0.450584
  1 9.062670 0.286610 -3.406700 -0.189729 0.205005 0.031432
  2 4.544490 -1.638600 -20.622749 1.129527 -0.038207 0.245444
  3 3.070910 1.647970 -15.136740 -0.751655 -0.627068 -0.420922
  4 -0.361640 -14.308061 -6.406600 0.397669 0.000000 0.000000
  5 -9.522449 0.590440 -3.372560 -1.609233 0.474909 -0.185420
  6 -4.141180 -1.081730 -20.790251 1.759464 0.309193 -0.117149
  7 -3.014440 0.974200 -14.527950 0.138043 -0.214407 0.059629
  8 0.361640 -14.494990 -6.882030 -0.165837 0.000000 0.000000
  9 0.013460 -1.507020 5.475230 0.000000 0.000000 0.000000
 10 -0.004780 1.092750 22.735540 0.000000 0.000000 0.000000
 11 -0.976790 -3.346690 20.865768 -0.125613 0.116910 -0.402434
 12 0.975190 -4.916450 -4.520320 0.284191 0.000000 0.000000
 13 -2.406500 -8.600220 4.877150 0.000000 0.207381 0.000000
 14 4.381730 -8.600220 5.272540 0.000000 -0.209383 0.000000
 15 -18.388140 0.440630 8.679390 -0.290470 -0.264235 0.491152
 16 -21.955891 -0.759690 -12.109390 -0.608139 0.694152 0.673108
 17 -13.311041 1.530050 -7.133010 0.000005 -0.000018 -0.000010
 18 -9.635210 -0.302230 -6.530870 0.000000 0.000000 0.000000
 19 -3.126290 0.042420 -2.638810 0.000000 0.000000 0.000000
 20 -2.839340 -5.564580 -4.296970 0.000000 0.000000 0.000000
 21 -3.811070 -2.785450 -1.806430 0.000000 0.000000 0.000000
 22 18.455151 0.440630 8.679390 0.315680 0.159728 0.307484
 23 21.943432 -0.878860 -11.911369 -0.358634 0.044143 -0.903989
 24 13.133340 0.635550 -6.798010 0.000000 0.000000 0.000000
 25 3.689260 -4.550930 -4.829990 0.000000 0.000000 0.000000
 26 3.087020 -2.930260 -1.806420 0.000000 0.000000 0.000000
 27 10.169240 0.711430 -6.708540 0.000000 0.000000 0.000000
 28 2.770930 0.042420 -2.816470 0.000000 0.000000 0.000000
 29 -52.850708 -0.361260 -67.170868 1.570802 -0.000018 -0.000537
time 37
  0 1.278131 169.380600 42.163982 0.021577 -0.166142 0.508245
  1 9.062670 0.286610 -3.406700 0.023339 0.104074 0.057382
  2 4.544490 -1.638600 -20.622749 1.054553 -0.027181 0.231830
  3 3.070910 1.647970 -15.136740 -0.641734 -0.641461 -0.523584
  4 -0.361640 -14.308061 -6.406600 0.459224 0.000000 0.000000
  5 -9.522449 0.590440 -3.372560 -1.588300 0.510455 -0.262345
  6 -4.141180 -1.081730 -20.790251 1.570103 0.273217 -0.134156
  7 -3.014440 0.974200 -14.527950 -0.050871 -0.225381 0.007723
  8 0.361640 -14.494990 -6.882030 -0.226450 0.000000 0.000000
  9 0.013460 -1.507020 5.475230 0.000000 0.000000 0.000000
 10 -0.004780 1.092750 22.735540 0.000000 0.000000 0.000000
 11 -0.976790 -3.346690 20.865768 -0.130203 0.141226 -0.444030
 12 0.975190 -4.916450 -4.520320 0.207853 0.000000 0.000000
 13 -2.406500 -8.600220 4.877150 0.000000 0.207381 0.000000
 14 4.381730 -8.600220 5.272540 0.000000 -0.209383 0.000000
 15 -18.388140 0.440630 8.679390 -0.401210 -0.241907 0.523095
 16 -21.955891 -0.759690 -12.109390 -0.631149 0.727230 0.676561
 17 -13.311041 1.530050 -7.133010 0.000005 -0.000018 -0.000010
 18 -9.635210 -0.302230 -6.530870 0.000000 0.000000 0.000000
 19 -3.126290 0.042420 -2.638810 0.000000 0.000000 0.000000
 20 -2.839340 -5.564580 -4.296970 0.000000 0.000000 0.000000
 21 -3.811070 -2.785450 -1.806430 0.000000 0.000000 0.000000
 22 18.455151 0.440630 8.679390 0.376952 0.157035 0.356862
 23 21.943432 -0.878860 -11.911369 -0.316826 0.085637 -0.897896
 24 13.133340 0.635550 -6.798010 0.000000 0.000000 0.000000
 25 3.689260 -4.550930 -4.829990 0.000000 0.000000 0.000000
 26 3.087020 -2.930260 -1.806420 0.000000 0.000000 0.000000
 27 10.169240 0.711430 -6.708540 0.000000 0.000000 0.000000
 28 2.770930 0.042420 -2.816470 0.000000 0.000000 0.000000
 29 -52.850708 -0.361260 -67.170868 1.570802 -0.000018 -0.000537
time 38
  0 1.278131 173.993011 44.109352 0.012606 -0.187403 0.555930
  1 9.062670 0.286610 -3.406700 0.219410 0.000380 0.037681
  2 4.544490 -1.638600 -20.622749 0.981318 -0.017438 0.217796
  3 3.070910 1.647970 -15.136740 -0.432404 -0.639120 -0.585720
  4 -0.361640 -14.308061 -6.406600 0.510153 0.000000 0.000000
  5 -9.522449 0.590440 -3.372560 -1.543990 0.540112 -0.317043
  6 -4.141180 -1.081730 -20.790251 1.407149 0.239833 -0.142928
  7 -3.014440 0.974200 -14.527950 -0.250102 -0.235703 -0.042448
  8 0.361640 -14.494990 -6.882030 -0.276643 0.000000 0.000000
  9 0.013460 -1.507020 5.475230 0.000000 0.000000 0.000000
 10 -0.004780 1.092750 22.735540 0.000000 0.000000 0.000000
 11 -0.976790 -3.346690 20.865768 -0.132777 0.161337 -0.476257
 12 0.975190 -4.916450 -4.520320 0.131548 0.000000 0.000000
 13 -2.406500 -8.600220 4.877150 0.000000 0.207381 0.000000
 14 4.381730 -8.600220 5.272540 0.000000 -0.209383 0.000000
 15 -18.388140 0.440630 8.679390 -0.492941 -0.223428 0.549566
 16 -21.955891 -0.759690 -12.109390 -0.650259 0.754607 0.679448
 17 -13.311041 1.530050 -7.133010 0.000005 -0.000018 -0.000010
 18 -9.635210 -0.302230 -6.530870 0.000000 0.000000 0.000000
 19 -3.126290 0.042420 -2.638810 0.000000 0.000000 0.000000
 20 -2.839340 -5.564580 -4.296970 0.000000 0.000000 0.000000
 21 -3.811070 -2.785450 -1.806430 0.000000 0.000000 0.000000
 22 18.455151 0.440630 8.679390 0.427656 0.154786 0.397715
 23 21.943432 -0.878860 -11.911369 -0.282247 0.119977 -0.892819
 24 13.133340 0.635550 -6.798010 0.000000 0.000000 0.000000
 25 3.689260 -4.550930 -4.829990 0.000000 0.000000 0.000000
 26 3.087020 -2.930260 -1.806420 0.000000 0.000000 0.000000
 27 10.169240 0.711430 -6.708540 0.000000 0.000000 0.000000
 28 2.770930 0.042420 -2.816470 0.000000 0.000000 0.000000
 29 -52.850708 -0.361260 -67.170868 1.570802 -0.000018 -0.000537
time 39
  0 1.278131 178.605408 45.808624 0.005796 -0.203498 0.592129
  1 9.062670 0.286610 -3.406700 0.383825 -0.077511 -0.006357
  2 4.544490 -1.638600 -20.622749 0.912068 -0.009192 0.203918
  3 3.070910 1.647970 -15.136740 -0.114733 -0.626337 -0.612058
  4 -0.361640 -14.308061 -6.406600 0.548742 0.000000 0.000000
  5 -9.522449 0.590440 -3.372560 -1.494446 0.564653 -0.352424
  6 -4.141180 -1.081730 -20.790251 1.278460 0.212545 -0.145829
  7 -3.014440 0.974200 -14.527950 -0.425509 -0.244044 -0.087358
  8 0.361640 -14.494990 -6.882030 -0.314628 0.000000 0.000000
  9 0.013460 -1.507020 5.475230 0.000000 0.000000 0.000000
 10 -0.004780 1.092750 22.735540 0.000000 0.000000 0.000000
 11 -0.976790 -3.346690 20.865768 -0.133239 0.176581 -0.498723
 12 0.975190 -4.916450 -4.520320 0.064944 0.000000 0.000000
 13 -2.406500 -8.600220 4.877150 0.000000 0.207381 0.000000
 14 4.381730 -8.600220 5.272540 0.000000 -0.209383 0.000000
 15 -18.388140 0.440630 8.679390 -0.562344 -0.209455 0.569588
 16 -21.955891 -0.759690 -12.109390 -0.664689 0.775360 0.681599
 17 -13.311041 1.530050 -7.133010 0.000005 -0.000018 -0.000010
 18 -9.635210 -0.302230 -6.530870 0.000000 0.000000 0.000000
 19 -3.126290 0.042420 -2.638810 0.000000 0.000000 0.000000
 20 -2.839340 -5.564580 -4.296970 0.000000 0.000000 0.000000
 21 -3.811070 -2.785450 -1.806430 0.000000 0.000000 0.000000
 22 18.455151 0.440630 8.679390 0.466070 0.153100 0.428677
 23 21.943432 -0.878860 -11.911369 -0.256074 0.145978 -0.888988
 24 13.133340 0.635550 -6.798010 0.000000 0.000000 0.000000
 25 3.689260 -4.550930 -4.829990 0.000000 0.000000 0.000000
 26 3.087020 -2.930260 -1.806420 0.000000 0.000000 0.000000
 27 10.169240 0.711430 -6.708540 0.000000 0.000000 0.000000
 28 2.770930 0.042420 -2.816470 0.000000 0.000000 0.000000
 29 -52.850708 -0.361260 -67.170868 1.570802 -0.000018 -0.000537
time 40
  0 1.278131 183.217819 47.461018 0.000000 -0.217269 0.622962
  1 9.062670 0.286610 -3.406700 0.423642 -0.116515 -0.061451
  2 4.544490 -1.638600 -20.622749 1.064912 -0.028643 0.233759
  3 3.070910 1.647970 -15.136740 0.743261 -0.706254 -0.570881
  4 -0.361640 -14.308061 -6.406600 0.581725 0.000000 0.000000
  5 -9.522449 0.590440 -3.372560 -1.438702 0.588242 -0.376839
  6 -4.141180 -1.081730 -20.790251 1.163883 0.187968 -0.145361
  7 -3.014440 0.974200 -14.527950 -0.596305 -0.251500 -0.132553
  8 0.361640 -14.494990 -6.882030 -0.347106 0.000000 0.000000
  9 0.013460 -1.507020 5.475230 0.000000 0.000000 0.000000
 10 -0.004780 1.092750 22.735540 0.000000 0.000000 0.000000
 11 -0.976790 -3.346690 20.865768 -0.131514 0.189704 -0.515913
 12 0.975190 -4.916450 -4.520320 0.000000 0.000000 0.000000
 13 -2.406500 -8.600220 4.877150 0.000000 0.207381 0.000000
 14 4.381730 -8.600220 5.272540 0.000000 -0.209383 0.000000
 15 -18.388140 0.440630 8.679390 -0.621724 -0.197478 0.586684
 16 -21.955891 -0.759690 -12.109390 -0.677039 0.793068 0.683467
 17 -13.311041 1.530050 -7.133010 0.000005 -0.000018 -0.000010
 18 -9.635210 -0.302230 -6.530870 0.000000 0.000000 0.000000
 19 -3.126290 0.042420 -2.638810 0.000000 0.000000 0.000000
 20 -2.839340 -5.564580 -4.296970 0.000000 0.000000 0.000000
 21 -3.811070 -2.785450 -1.806430 0.000000 0.000000 0.000000
 22 18.455151 0.440630 8.679390 0.498902 0.151650 0.455135
 23 21.943432 -0.878860 -11.911369 -0.233689 0.168204 -0.885710
 24 13.133340 0.635550 -6.798010 0.000000 0.000000 0.000000
 25 3.689260 -4.550930 -4.829990 0.000000 0.000000 0.000000
 26 3.087020 -2.930260 -1.806420 0.000000 0.000000 0.000000
 27 10.169240 0.711430 -6.708540 0.000000 0.000000 0.000000
 28 2.770930 0.042420 -2.816470 0.000000 0.000000 0.000000
 29 -52.850708 -0.361260 -67.170868 1.570802 -0.000018 -0.000537
end
