version 1
nodes
  0 "Hips"  -1
  1 "LLegUpper"   0
  2 "LLegLower"   1
  3 "LFoot"   2
  4 "LToes"   3
  5 "RLegUpper"   0
  6 "RLegLower"   5
  7 "RFoot"   6
  8 "RToes"   7
  9 "BodyLower"   0
 10 "BodyUpper"   9
 11 "Head"  10
 12 "Jaw"  11
 13 "HeadRBrow"  11
 14 "HeadLBrow"  11
 15 "RArm"  10
 16 "RArm2"  15
 17 "RPalm"  16
 18 "RFingStart"  17
 19 "RFingEnd"  18
 20 "RThumbStart"  17
 21 "RThumbEnd"  20
 22 "LArm"  10
 23 "LArm2"  22
 24 "LPalm"  23
 25 "LThumStart"  24
 26 "LThumEnd"  25
 27 "LFingStart"  24
 28 "LFingEnd"  27
 29 "GeoSphere01"   9
end
skeleton
time 0
  0 1.278131 -1.278131 47.461018 0.000000 0.000000 -0.000048
  1 9.062670 0.286610 -3.406700 0.000000 0.000000 0.000000
  2 4.544490 -1.638600 -20.622749 0.000000 0.000000 0.000000
  3 3.070910 1.647970 -15.136740 0.000000 0.000000 0.000000
  4 -0.361640 -14.308061 -6.406600 0.000000 0.000000 0.000000
  5 -9.522449 0.590440 -3.372560 0.000000 0.000000 0.000000
  6 -4.141180 -1.081730 -20.790251 0.000000 0.000000 0.000000
  7 -3.014440 0.974200 -14.527950 0.000000 0.000000 0.000000
  8 0.361640 -14.494990 -6.882030 0.000000 0.000000 0.000000
  9 0.013460 -1.507020 5.475230 0.000000 0.000000 0.000000
 10 -0.004780 1.092750 22.735540 0.000000 0.000000 0.000000
 11 -0.976790 -3.346690 20.865768 0.000000 0.000000 0.000000
 12 0.975190 -4.916450 -4.520320 0.000000 0.000000 0.000000
 13 -2.406500 -8.600220 4.877150 0.000000 0.000000 0.000000
 14 4.381730 -8.600220 5.272540 0.000000 0.000000 0.000000
 15 -18.388140 0.440630 8.679390 0.188301 -0.719589 -0.124973
 16 -21.955891 -0.759690 -12.109390 -0.187590 0.015760 0.167159
 17 -13.311041 1.530050 -7.133010 0.000005 -0.000018 -0.000537
 18 -9.635210 -0.302230 -6.530870 0.000000 0.000000 0.000000
 19 -3.126290 0.042420 -2.638810 0.000000 0.000000 0.000000
 20 -2.839340 -5.564580 -4.296970 0.000000 0.000000 0.000000
 21 -3.811070 -2.785450 -1.806430 0.000000 0.000000 0.000000
 22 18.455151 0.440630 8.679390 0.259158 0.753781 0.179497
 23 21.943432 -0.878860 -11.911369 -0.211914 -0.021945 -0.205676
 24 13.133340 0.635550 -6.798010 0.000000 0.000000 0.000000
 25 3.689260 -4.550930 -4.829990 0.000000 0.000000 0.000000
 26 3.087020 -2.930260 -1.806420 0.000000 0.000000 0.000000
 27 10.169240 0.711430 -6.708540 0.000000 0.000000 0.000000
 28 2.770930 0.042420 -2.816470 0.000000 0.000000 0.000000
 29 -0.013158 5.486575 -88.199303 1.570802 -0.000018 -0.000537
time 1
  0 1.278131 -1.278131 46.937565 0.017541 0.000000 -0.000048
  1 9.062670 0.286610 -3.406700 -0.100271 -0.015292 -0.020929
  2 4.544490 -1.638600 -20.622749 0.253751 0.016455 0.056328
  3 3.070910 1.647970 -15.136740 -0.145380 -0.011734 -0.032042
  4 -0.361640 -14.308061 -6.406600 -0.021511 0.000000 0.000000
  5 -9.522449 0.590440 -3.372560 -0.124798 -0.002208 0.025629
  6 -4.141180 -1.081730 -20.790251 0.235555 0.021924 -0.045505
  7 -3.014440 0.974200 -14.527950 -0.128791 -0.011311 0.023608
  8 0.361640 -14.494990 -6.882030 0.000000 0.000000 0.000000
  9 0.013460 -1.507020 5.475230 0.015691 0.000000 0.000000
 10 -0.004780 1.092750 22.735540 0.005445 0.000000 0.000000
 11 -0.976790 -3.346690 20.865768 -0.006145 0.000000 0.000000
 12 0.975190 -4.916450 -4.520320 0.000000 0.000000 0.000000
 13 -2.406500 -8.600220 4.877150 0.000000 0.000000 0.000000
 14 4.381730 -8.600220 5.272540 0.000000 0.000000 0.000000
 15 -18.388140 0.440630 8.679390 0.147170 -0.712973 -0.089127
 16 -21.955891 -0.759690 -12.109390 -0.194025 0.015725 0.177688
 17 -13.311041 1.530050 -7.133010 0.009329 0.021736 0.009698
 18 -9.635210 -0.302230 -6.530870 0.000000 -0.026455 0.000000
 19 -3.126290 0.042420 -2.638810 0.000000 0.000000 0.000000
 20 -2.839340 -5.564580 -4.296970 -0.000696 0.004734 0.020514
 21 -3.811070 -2.785450 -1.806430 0.000000 0.000000 0.000000
 22 18.455151 0.440630 8.679390 0.212314 0.745703 0.140212
 23 21.943432 -0.878860 -11.911369 -0.218098 -0.022423 -0.217816
 24 13.133340 0.635550 -6.798010 0.013486 -0.013273 -0.015670
 25 3.689260 -4.550930 -4.829990 -0.004430 -0.001151 -0.018417
 26 3.087020 -2.930260 -1.806420 0.000000 0.000000 0.000000
 27 10.169240 0.711430 -6.708540 0.000000 0.018748 0.000000
 28 2.770930 0.042420 -2.816470 0.000000 0.000000 0.000000
 29 -0.013158 2.970873 -86.834503 1.570802 -0.000018 -0.000537
time 2
  0 1.278131 -1.278131 45.515644 0.065172 0.000000 -0.000048
  1 9.062670 0.286610 -3.406700 -0.216291 -0.043989 -0.044729
  2 4.544490 -1.638600 -20.622749 0.589863 0.015616 0.133736
  3 3.070910 1.647970 -15.136740 -0.342120 -0.030006 -0.076835
  4 -0.361640 -14.308061 -6.406600 -0.079923 0.000000 0.000000
  5 -9.522449 0.590440 -3.372560 -0.321494 0.007612 0.065646
  6 -4.141180 -1.081730 -20.790251 0.528654 0.063180 -0.093216
  7 -3.014440 0.974200 -14.527950 -0.274345 -0.028457 0.049678
  8 0.361640 -14.494990 -6.882030 0.000000 0.000000 0.000000
  9 0.013460 -1.507020 5.475230 0.058298 0.000000 0.000000
 10 -0.004780 1.092750 22.735540 0.020265 0.000000 0.000000
 11 -0.976790 -3.346690 20.865768 -0.016904 0.000000 0.000000
 12 0.975190 -4.916450 -4.520320 0.000000 0.000000 0.000000
 13 -2.406500 -8.600220 4.877150 0.000000 0.000000 0.000000
 14 4.381730 -8.600220 5.272540 0.000000 0.000000 0.000000
 15 -18.388140 0.440630 8.679390 0.034148 -0.694266 0.008654
 16 -21.955891 -0.759690 -12.109390 -0.198120 0.015583 0.184764
 17 -13.311041 1.530050 -7.133010 0.034726 0.080805 0.037490
 18 -9.635210 -0.302230 -6.530870 0.000000 -0.098385 0.000000
 19 -3.126290 0.042420 -2.638810 0.000000 0.000000 0.000000
 20 -2.839340 -5.564580 -4.296970 -0.002652 0.017593 0.076217
 21 -3.811070 -2.785450 -1.806430 0.000000 0.000000 0.000000
 22 18.455151 0.440630 8.679390 0.084546 0.722948 0.033414
 23 21.943432 -0.878860 -11.911369 -0.222061 -0.022733 -0.225755
 24 13.133340 0.635550 -6.798010 0.050106 -0.049382 -0.058221
 25 3.689260 -4.550930 -4.829990 -0.016477 -0.004278 -0.068425
 26 3.087020 -2.930260 -1.806420 0.000000 0.000000 0.000000
 27 10.169240 0.711430 -6.708540 0.000000 0.069786 0.000000
 28 2.770930 0.042420 -2.816470 0.000000 0.000000 0.000000
 29 -0.013158 -3.763708 -82.996300 1.570802 -0.000018 -0.000537
time 3
  0 1.278131 -1.278131 43.417927 0.135376 0.000000 -0.000048
  1 9.062670 0.286610 -3.406700 -0.284542 -0.076137 -0.059915
  2 4.544490 -1.638600 -20.622749 0.879181 -0.005633 0.197147
  3 3.070910 1.647970 -15.136740 -0.528926 -0.051327 -0.123019
  4 -0.361640 -14.308061 -6.406600 -0.166016 0.000000 0.000000
  5 -9.522449 0.590440 -3.372560 -0.544924 0.036156 0.105828
  6 -4.141180 -1.081730 -20.790251 0.795491 0.111456 -0.124796
  7 -3.014440 0.974200 -14.527950 -0.388209 -0.050005 0.073390
  8 0.361640 -14.494990 -6.882030 0.000000 0.000000 0.000000
  9 0.013460 -1.507020 5.475230 0.121096 0.000000 0.000000
 10 -0.004780 1.092750 22.735540 0.042103 0.000000 0.000000
 11 -0.976790 -3.346690 20.865768 -0.016054 0.000000 0.000000
 12 0.975190 -4.916450 -4.520320 0.000000 0.000000 0.000000
 13 -2.406500 -8.600220 4.877150 0.000000 0.000000 0.000000
 14 4.381730 -8.600220 5.272540 0.000000 0.000000 0.000000
 15 -18.388140 0.440630 8.679390 -0.134728 -0.665008 0.153734
 16 -21.955891 -0.759690 -12.109390 -0.200395 0.015441 0.189462
 17 -13.311041 1.530050 -7.133010 0.072146 0.167867 0.078441
 18 -9.635210 -0.302230 -6.530870 0.000000 -0.204313 0.000000
 19 -3.126290 0.042420 -2.638810 0.000000 0.000000 0.000000
 20 -2.839340 -5.564580 -4.296970 -0.005522 0.036565 0.158317
 21 -3.811070 -2.785450 -1.806430 0.000000 0.000000 0.000000
 22 18.455151 0.440630 8.679390 -0.104791 0.687706 -0.124289
 23 21.943432 -0.878860 -11.911369 -0.224239 -0.022930 -0.230832
 24 13.133340 0.635550 -6.798010 0.104082 -0.102575 -0.120935
 25 3.689260 -4.550930 -4.829990 -0.034217 -0.008893 -0.142131
 26 3.087020 -2.930260 -1.806420 0.000000 0.000000 0.000000
 27 10.169240 0.711430 -6.708540 0.000000 0.144929 0.000000
 28 2.770930 0.042420 -2.816470 0.000000 0.000000 0.000000
 29 -0.013158 -13.525724 -77.060104 1.570802 -0.000018 -0.000537
time 4
  0 1.278131 -1.278131 40.867065 0.220614 0.000000 -0.000048
  1 9.062670 0.286610 -3.406700 -0.285789 -0.103898 -0.068360
  2 4.544490 -1.638600 -20.622749 1.092583 -0.032646 0.238829
  3 3.070910 1.647970 -15.136740 -0.700063 -0.075136 -0.166491
  4 -0.361640 -14.308061 -6.406600 -0.270571 0.000000 0.000000
  5 -9.522449 0.590440 -3.372560 -0.782916 0.084017 0.135413
  6 -4.141180 -1.081730 -20.790251 1.028136 0.159024 -0.141119
  7 -3.014440 0.974200 -14.527950 -0.465322 -0.075218 0.098061
  8 0.361640 -14.494990 -6.882030 0.000000 0.000000 0.000000
  9 0.013460 -1.507020 5.475230 0.197360 0.000000 0.000000
 10 -0.004780 1.092750 22.735540 0.068628 0.000000 0.000000
 11 -0.976790 -3.346690 20.865768 0.010346 0.000000 0.000000
 12 0.975190 -4.916450 -4.520320 0.000000 0.000000 0.000000
 13 -2.406500 -8.600220 4.877150 0.000000 0.000000 0.000000
 14 4.381730 -8.600220 5.272540 0.000000 0.000000 0.000000
 15 -18.388140 0.440630 8.679390 -0.343973 -0.626881 0.331521
 16 -21.955891 -0.759690 -12.109390 -0.201435 0.015229 0.193028
 17 -13.311041 1.530050 -7.133010 0.117572 0.273575 0.128166
 18 -9.635210 -0.302230 -6.530870 0.000000 -0.332978 0.000000
 19 -3.126290 0.042420 -2.638810 0.000000 0.000000 0.000000
 20 -2.839340 -5.564580 -4.296970 -0.009000 0.059575 0.258001
 21 -3.811070 -2.785450 -1.806430 0.000000 0.000000 0.000000
 22 18.455151 0.440630 8.679390 -0.336579 0.642167 -0.316532
 23 21.943432 -0.878860 -11.911369 -0.225240 -0.023015 -0.234294
 24 13.133340 0.635550 -6.798010 0.169641 -0.167169 -0.197099
 25 3.689260 -4.550930 -4.829990 -0.055765 -0.014501 -0.231644
 26 3.087020 -2.930260 -1.806420 0.000000 0.000000 0.000000
 27 10.169240 0.711430 -6.708540 0.000000 0.236191 0.000000
 28 2.770930 0.042420 -2.816470 0.000000 0.000000 0.000000
 29 -0.013158 -25.096390 -69.392525 1.570802 -0.000018 -0.000537
time 5
  0 1.278131 -1.278131 38.097450 0.313389 0.000000 -0.000048
  1 9.062670 0.286610 -3.406700 -0.216603 -0.119526 -0.071155
  2 4.544490 -1.638600 -20.622749 1.208122 -0.050851 0.258819
  3 3.070910 1.647970 -15.136740 -0.841131 -0.097823 -0.200480
  4 -0.361640 -14.308061 -6.406600 -0.384344 0.000000 0.000000
  5 -9.522449 0.590440 -3.372560 -1.026312 0.145306 0.143821
  6 -4.141180 -1.081730 -20.790251 1.221862 0.200413 -0.145960
  7 -3.014440 0.974200 -14.527950 -0.503041 -0.100979 0.125116
  8 0.361640 -14.494990 -6.882030 0.000000 0.000000 0.000000
  9 0.013460 -1.507020 5.475230 0.280332 0.000000 0.000000
 10 -0.004780 1.092750 22.735540 0.097482 0.000000 0.000000
 11 -0.976790 -3.346690 20.865768 0.058192 0.000000 0.000000
 12 0.975190 -4.916450 -4.520320 0.000000 0.000000 0.000000
 13 -2.406500 -8.600220 4.877150 0.000000 0.000000 0.000000
 14 4.381730 -8.600220 5.272540 0.000000 0.000000 0.000000
 15 -18.388140 0.440630 8.679390 -0.577552 -0.581483 0.527379
 16 -21.955891 -0.759690 -12.109390 -0.201890 0.015016 0.196481
 17 -13.311041 1.530050 -7.133010 0.167015 0.388630 0.182288
 18 -9.635210 -0.302230 -6.530870 0.000000 -0.473013 0.000000
 19 -3.126290 0.042420 -2.638810 0.000000 0.000000 0.000000
 20 -2.839340 -5.564580 -4.296970 -0.012804 0.084635 0.366499
 21 -3.811070 -2.785450 -1.806430 0.000000 0.000000 0.000000
 22 18.455151 0.440630 8.679390 -0.591404 0.588490 -0.526628
 23 21.943432 -0.878860 -11.911369 -0.225676 -0.023043 -0.237386
 24 13.133340 0.635550 -6.798010 0.240975 -0.237447 -0.279978
 25 3.689260 -4.550930 -4.829990 -0.079217 -0.020590 -0.329049
 26 3.087020 -2.930260 -1.806420 0.000000 0.000000 0.000000
 27 10.169240 0.711430 -6.708540 0.000000 0.335538 0.000000
 28 2.770930 0.042420 -2.816470 0.000000 0.000000 0.000000
 29 -0.013158 -37.268635 -60.382233 1.570802 -0.000018 -0.000537
time 6
  0 1.278131 -1.278131 35.323929 0.406165 0.000000 -0.000048
  1 9.062670 0.286610 -3.406700 -0.096684 -0.119351 -0.066871
  2 4.544490 -1.638600 -20.622749 1.215656 -0.052121 0.260054
  3 3.070910 1.647970 -15.136740 -0.927912 -0.111875 -0.217868
  4 -0.361640 -14.308061 -6.406600 -0.498095 0.000000 0.000000
  5 -9.522449 0.590440 -3.372560 -1.266806 0.207528 0.125331
  6 -4.141180 -1.081730 -20.790251 1.372740 0.232597 -0.144055
  7 -3.014440 0.974200 -14.527950 -0.502106 -0.123180 0.153181
  8 0.361640 -14.494990 -6.882030 0.000000 0.000000 0.000000
  9 0.013460 -1.507020 5.475230 0.363321 0.000000 0.000000
 10 -0.004780 1.092750 22.735540 0.126337 0.000000 0.000000
 11 -0.976790 -3.346690 20.865768 0.098873 0.000000 0.000000
 12 0.975190 -4.916450 -4.520320 0.000000 0.000000 0.000000
 13 -2.406500 -8.600220 4.877150 0.000000 0.000000 0.000000
 14 4.381730 -8.600220 5.272540 0.000000 0.000000 0.000000
 15 -18.388140 0.440630 8.679390 -0.819771 -0.530409 0.726631
 16 -21.955891 -0.759690 -12.109390 -0.202280 0.014804 0.201066
 17 -13.311041 1.530050 -7.133010 0.216459 0.503685 0.236398
 18 -9.635210 -0.302230 -6.530870 0.000000 -0.612993 0.000000
 19 -3.126290 0.042420 -2.638810 0.000000 0.000000 0.000000
 20 -2.839340 -5.564580 -4.296970 -0.016587 0.109683 0.474997
 21 -3.811070 -2.785450 -1.806430 0.000000 0.000000 0.000000
 22 18.455151 0.440630 8.679390 -0.850028 0.528896 -0.738051
 23 21.943432 -0.878860 -11.911369 -0.226024 -0.023100 -0.241402
 24 13.133340 0.635550 -6.798010 0.312310 -0.307759 -0.362840
 25 3.689260 -4.550930 -4.829990 -0.102669 -0.026690 -0.426434
 26 3.087020 -2.930260 -1.806420 0.000000 0.000000 0.000000
 27 10.169240 0.711430 -6.708540 0.000000 0.434835 0.000000
 28 2.770930 0.042420 -2.816470 0.000000 0.000000 0.000000
 29 -0.013158 -48.839302 -50.391407 1.570802 -0.000018 -0.000537
time 7
  0 1.278131 -1.278131 32.776978 0.491403 0.000000 -0.000048
  1 9.062670 0.286610 -3.406700 0.040649 -0.107889 -0.053174
  2 4.544490 -1.638600 -20.622749 1.128368 -0.038027 0.245241
  3 3.070910 1.647970 -15.136740 -0.944429 -0.112582 -0.218541
  4 -0.361640 -14.308061 -6.406600 -0.602650 0.000000 0.000000
  5 -9.522449 0.590440 -3.372560 -1.492341 0.255874 0.083897
  6 -4.141180 -1.081730 -20.790251 1.479678 0.254905 -0.139716
  7 -3.014440 0.974200 -14.527950 -0.469288 -0.138262 0.178862
  8 0.361640 -14.494990 -6.882030 0.000000 0.000000 0.000000
  9 0.013460 -1.507020 5.475230 0.439568 0.000000 0.000000
 10 -0.004780 1.092750 22.735540 0.152847 0.000000 0.000000
 11 -0.976790 -3.346690 20.865768 0.104944 0.000000 0.000000
 12 0.975190 -4.916450 -4.520320 0.000000 0.000000 0.000000
 13 -2.406500 -8.600220 4.877150 0.000000 0.000000 0.000000
 14 4.381730 -8.600220 5.272540 0.000000 0.000000 0.000000
 15 -18.388140 0.440630 8.679390 -1.054732 -0.475315 0.914727
 16 -21.955891 -0.759690 -12.109390 -0.203125 0.014591 0.207916
 17 -13.311041 1.530050 -7.133010 0.261885 0.609393 0.286134
 18 -9.635210 -0.302230 -6.530870 0.000000 -0.741658 0.000000
 19 -3.126290 0.042420 -2.638810 0.000000 0.000000 0.000000
 20 -2.839340 -5.564580 -4.296970 -0.020065 0.132705 0.574680
 21 -3.811070 -2.785450 -1.806430 0.000000 0.000000 0.000000
 22 18.455151 0.440630 8.679390 -1.093215 0.465543 -0.934275
 23 21.943432 -0.878860 -11.911369 -0.226939 -0.023184 -0.247633
 24 13.133340 0.635550 -6.798010 0.377869 -0.372353 -0.439004
 25 3.689260 -4.550930 -4.829990 -0.124217 -0.032298 -0.515947
 26 3.087020 -2.930260 -1.806420 0.000000 0.000000 0.000000
 27 10.169240 0.711430 -6.708540 0.000000 0.526097 0.000000
 28 2.770930 0.042420 -2.816470 0.000000 0.000000 0.000000
 29 -0.013158 -58.597412 -39.799896 1.570802 -0.000018 -0.000537
time 8
  0 1.278131 -1.278131 30.679256 0.561607 0.000000 -0.000048
  1 9.062670 0.286610 -3.406700 0.167326 -0.094016 -0.032599
  2 4.544490 -1.638600 -20.622749 0.984071 -0.017785 0.218335
  3 3.070910 1.647970 -15.136740 -0.902078 -0.102409 -0.208989
  4 -0.361640 -14.308061 -6.406600 -0.688742 0.000000 0.000000
  5 -9.522449 0.590440 -3.372560 -1.683122 0.283053 0.035068
  6 -4.141180 -1.081730 -20.790251 1.546242 0.268441 -0.135785
  7 -3.014440 0.974200 -14.527950 -0.419770 -0.146329 0.198091
  8 0.361640 -14.494990 -6.882030 0.000000 0.000000 0.000000
  9 0.013460 -1.507020 5.475230 0.502366 0.000000 0.000000
 10 -0.004780 1.092750 22.735540 0.174699 0.000000 0.000000
 11 -0.976790 -3.346690 20.865768 0.077597 0.000000 0.000000
 12 0.975190 -4.916450 -4.520320 0.000000 0.000000 0.000000
 13 -2.406500 -8.600220 4.877150 0.000000 0.000000 0.000000
 14 4.381730 -8.600220 5.272540 0.000000 0.000000 0.000000
 15 -18.388140 0.440630 8.679390 -1.266743 -0.417797 1.076988
 16 -21.955891 -0.759690 -12.109390 -0.205075 0.014450 0.218218
 17 -13.311041 1.530050 -7.133010 0.299305 0.696455 0.327086
 18 -9.635210 -0.302230 -6.530870 0.000000 -0.847640 0.000000
 19 -3.126290 0.042420 -2.638810 0.000000 0.000000 0.000000
 20 -2.839340 -5.564580 -4.296970 -0.022935 0.151665 0.656781
 21 -3.811070 -2.785450 -1.806430 0.000000 0.000000 0.000000
 22 18.455151 0.440630 8.679390 -1.301610 0.400592 -1.098773
 23 21.943432 -0.878860 -11.911369 -0.228942 -0.023325 -0.257280
 24 13.133340 0.635550 -6.798010 0.431845 -0.425546 -0.501718
 25 3.689260 -4.550930 -4.829990 -0.141957 -0.036913 -0.589653
 26 3.087020 -2.930260 -1.806420 0.000000 0.000000 0.000000
 27 10.169240 0.711430 -6.708540 0.000000 0.601290 0.000000
 28 2.770930 0.042420 -2.816470 0.000000 0.000000 0.000000
 29 -0.013158 -65.339806 -28.983130 1.570802 -0.000018 -0.000537
time 9
  0 1.278131 -1.278131 29.253431 0.609238 0.000000 -0.000048
  1 9.062670 0.286610 -3.406700 0.262034 -0.083914 -0.013267
  2 4.544490 -1.638600 -20.622749 0.841658 -0.001846 0.189285
  3 3.070910 1.647970 -15.136740 -0.839052 -0.089017 -0.197048
  4 -0.361640 -14.308061 -6.406600 -0.747154 0.000000 0.000000
  5 -9.522449 0.590440 -3.372560 -1.815030 0.291832 -0.003533
  6 -4.141180 -1.081730 -20.790251 1.580506 0.275281 -0.133400
  7 -3.014440 0.974200 -14.527950 -0.374605 -0.148689 0.209779
  8 0.361640 -14.494990 -6.882030 0.000000 0.000000 0.000000
  9 0.013460 -1.507020 5.475230 0.544973 0.000000 0.000000
 10 -0.004780 1.092750 22.735540 0.189505 0.000000 0.000000
 11 -0.976790 -3.346690 20.865768 0.041142 0.000000 0.000000
 12 0.975190 -4.916450 -4.520320 0.000000 0.000000 0.000000
 13 -2.406500 -8.600220 4.877150 0.000000 0.000000 0.000000
 14 4.381730 -8.600220 5.272540 0.000000 0.000000 0.000000
 15 -18.388140 0.440630 8.679390 -1.439905 -0.359481 1.198779
 16 -21.955891 -0.759690 -12.109390 -0.208715 0.014343 0.233049
 17 -13.311041 1.530050 -7.133010 0.324702 0.755525 0.354878
 18 -9.635210 -0.302230 -6.530870 0.000000 -0.919516 0.000000
 19 -3.126290 0.042420 -2.638810 0.000000 0.000000 0.000000
 20 -2.839340 -5.564580 -4.296970 -0.024891 0.164536 0.712484
 21 -3.811070 -2.785450 -1.806430 0.000000 0.000000 0.000000
 22 18.455151 0.440630 8.679390 -1.456037 0.336293 -1.214980
 23 21.943432 -0.878860 -11.911369 -0.232557 -0.023607 -0.271681
 24 13.133340 0.635550 -6.798010 0.468465 -0.461621 -0.544269
 25 3.689260 -4.550930 -4.829990 -0.154003 -0.040041 -0.639661
 26 3.087020 -2.930260 -1.806420 0.000000 0.000000 0.000000
 27 10.169240 0.711430 -6.708540 0.000000 0.652277 0.000000
 28 2.770930 0.042420 -2.816470 0.000000 0.000000 0.000000
 29 -0.013158 -67.855507 -18.316534 1.570802 -0.000018 -0.000537
time 10
  0 1.278131 -1.278131 28.729977 0.626779 0.000000 -0.000048
  1 9.062670 0.286610 -3.406700 0.299668 -0.080610 -0.004407
  2 4.544490 -1.638600 -20.622749 0.777623 0.003907 0.175586
  3 3.070910 1.647970 -15.136740 -0.807288 -0.082723 -0.191809
  4 -0.361640 -14.308061 -6.406600 -0.768689 0.000000 0.000000
  5 -9.522449 0.590440 -3.372560 -1.863891 0.292855 -0.018362
  6 -4.141180 -1.081730 -20.790251 1.590982 0.277345 -0.132633
  7 -3.014440 0.974200 -14.527950 -0.355681 -0.148899 0.213692
  8 0.361640 -14.494990 -6.882030 0.000000 0.000000 0.000000
  9 0.013460 -1.507020 5.475230 0.560681 0.000000 0.000000
 10 -0.004780 1.092750 22.735540 0.194964 0.000000 0.000000
 11 -0.976790 -3.346690 20.865768 0.024117 0.000000 0.000000
 12 0.975190 -4.916450 -4.520320 0.000000 0.000000 0.000000
 13 -2.406500 -8.600220 4.877150 0.000000 0.000000 0.000000
 14 4.381730 -8.600220 5.272540 0.000000 0.000000 0.000000
 15 -18.388140 0.440630 8.679390 -1.558457 -0.301991 1.265549
 16 -21.955891 -0.759690 -12.109390 -0.214565 0.014273 0.253597
 17 -13.311041 1.530050 -7.133010 0.334057 0.777278 0.365113
 18 -9.635210 -0.302230 -6.530870 0.000000 -0.946025 0.000000
 19 -3.126290 0.042420 -2.638810 0.000000 0.000000 0.000000
 20 -2.839340 -5.564580 -4.296970 -0.025609 0.169270 0.733020
 21 -3.811070 -2.785450 -1.806430 0.000000 0.000000 0.000000
 22 18.455151 0.440630 8.679390 -1.537198 0.274775 -1.266328
 23 21.943432 -0.878860 -11.911369 -0.238436 -0.024057 -0.292037
 24 13.133340 0.635550 -6.798010 0.481951 -0.474928 -0.559956
 25 3.689260 -4.550930 -4.829990 -0.158434 -0.041191 -0.658098
 26 3.087020 -2.930260 -1.806420 0.000000 0.000000 0.000000
 27 10.169240 0.711430 -6.708540 0.000000 0.671076 0.000000
 28 2.770930 0.042420 -2.816470 0.000000 0.000000 0.000000
 29 -0.013158 -44.620422 16.474678 1.570802 -0.000018 -0.000537
time 11
  0 1.332821 -1.332821 28.835449 0.623125 0.000000 -0.000048
  1 9.062670 0.286610 -3.406700 0.237395 -0.085771 -0.018841
  2 4.544490 -1.638600 -20.622749 0.890916 -0.006891 0.199579
  3 3.070910 1.647970 -15.136740 -0.876205 -0.095774 -0.200967
  4 -0.361640 -14.308061 -6.406600 -0.763106 0.000000 0.000000
  5 -9.522449 0.590440 -3.372560 -1.854562 0.293178 -0.017626
  6 -4.141180 -1.081730 -20.790251 1.585598 0.276289 -0.133029
  7 -3.014440 0.974200 -14.527950 -0.358550 -0.150332 0.213718
  8 0.361640 -14.494990 -6.882030 0.000000 0.000000 0.000000
  9 0.013460 -1.507020 5.475230 0.555325 0.000000 0.000000
 10 -0.004780 1.092750 22.735540 0.190221 0.000000 0.000000
 11 -0.976790 -3.346690 20.865768 -0.021033 -0.007323 -0.001486
 12 0.975190 -4.916450 -4.520320 0.000000 0.000000 0.000000
 13 -2.406500 -8.600220 4.877150 0.000000 0.000000 0.000000
 14 4.381730 -8.600220 5.272540 0.000000 0.000000 0.000000
 15 -18.388140 0.440630 8.679390 -1.634358 -0.242734 1.296814
 16 -21.955891 -0.759690 -12.109390 -0.227110 0.017070 0.283995
 17 -13.311041 1.530050 -7.133010 0.332488 0.773886 0.363663
 18 -9.635210 -0.302230 -6.530870 -0.000695 -0.942954 -0.001558
 19 -3.126290 0.042420 -2.638810 0.000000 0.000000 0.000000
 20 -2.839340 -5.564580 -4.296970 -0.025413 0.168048 0.727696
 21 -3.811070 -2.785450 -1.806430 0.000000 0.000000 0.000000
 22 18.455151 0.440630 8.679390 -1.571931 0.213346 -1.278632
 23 21.943432 -0.878860 -11.911369 -0.248714 -0.029325 -0.322362
 24 13.133340 0.635550 -6.798010 0.479422 -0.474126 -0.556692
 25 3.689260 -4.550930 -4.829990 -0.157287 -0.040891 -0.653318
 26 3.087020 -2.930260 -1.806420 0.000000 0.000000 0.000000
 27 10.169240 0.711430 -6.708540 -0.000743 0.669092 0.000527
 28 2.770930 0.042420 -2.816470 0.000000 0.000000 0.000000
 29 -0.013158 -43.483669 26.562672 1.570802 -0.000018 -0.000537
time 12
  0 1.496888 -1.496888 29.132334 0.612623 0.000000 -0.000048
  1 9.062670 0.286610 -3.406700 0.084313 -0.104162 -0.050979
  2 4.544490 -1.638600 -20.622749 1.145825 -0.040736 0.248297
  3 3.070910 1.647970 -15.136740 -1.027245 -0.124853 -0.221578
  4 -0.361640 -14.308061 -6.406600 -0.747154 0.000000 0.000000
  5 -9.522449 0.590440 -3.372560 -1.827942 0.294040 -0.015510
  6 -4.141180 -1.081730 -20.790251 1.570394 0.273265 -0.134132
  7 -3.014440 0.974200 -14.527950 -0.367158 -0.154355 0.213769
  8 0.361640 -14.494990 -6.882030 0.000000 0.000000 0.000000
  9 0.013460 -1.507020 5.475230 0.540028 0.000000 0.000000
 10 -0.004780 1.092750 22.735540 0.176635 0.000000 0.000000
 11 -0.976790 -3.346690 20.865768 -0.153446 -0.016551 -0.004063
 12 0.975190 -4.916450 -4.520320 0.000000 0.000000 0.000000
 13 -2.406500 -8.600220 4.877150 0.000000 0.000000 0.000000
 14 4.381730 -8.600220 5.272540 0.000000 0.000000 0.000000
 15 -18.388140 0.440630 8.679390 -1.691871 -0.178600 1.322394
 16 -21.955891 -0.759690 -12.109390 -0.249535 0.025039 0.326563
 17 -13.311041 1.530050 -7.133010 0.328061 0.764160 0.359504
 18 -9.635210 -0.302230 -6.530870 -0.002709 -0.934279 -0.006028
 19 -3.126290 0.042420 -2.638810 0.000000 0.000000 0.000000
 20 -2.839340 -5.564580 -4.296970 -0.024891 0.164536 0.712484
 21 -3.811070 -2.785450 -1.806430 0.000000 0.000000 0.000000
 22 18.455151 0.440630 8.679390 -1.600429 0.148277 -1.288845
 23 21.943432 -0.878860 -11.911369 -0.264827 -0.043354 -0.364734
 24 13.133340 0.635550 -6.798010 0.472148 -0.471819 -0.547413
 25 3.689260 -4.550930 -4.829990 -0.154003 -0.040041 -0.639661
 26 3.087020 -2.930260 -1.806420 0.000000 0.000000 0.000000
 27 10.169240 0.711430 -6.708540 -0.002888 0.663437 0.002037
 28 2.770930 0.042420 -2.816470 0.000000 0.000000 0.000000
 29 -0.013158 -43.053970 34.256756 1.570802 -0.000018 -0.000537
time 13
  0 1.754709 -1.754709 29.605003 0.596039 0.000000 -0.000048
  1 9.062670 0.286610 -3.406700 -0.125169 -0.138838 -0.086894
  2 4.544490 -1.638600 -20.622749 1.434708 -0.092749 0.291453
  3 3.070910 1.647970 -15.136740 -1.179747 -0.154151 -0.244021
  4 -0.361640 -14.308061 -6.406600 -0.721983 0.000000 0.000000
  5 -9.522449 0.590440 -3.372560 -1.785736 0.295207 -0.012033
  6 -4.141180 -1.081730 -20.790251 1.546169 0.268429 -0.135797
  7 -3.014440 0.974200 -14.527950 -0.381181 -0.160505 0.213666
  8 0.361640 -14.494990 -6.882030 0.000000 0.000000 0.000000
  9 0.013460 -1.507020 5.475230 0.515901 0.000000 0.000000
 10 -0.004780 1.092750 22.735540 0.155191 0.000000 0.000000
 11 -0.976790 -3.346690 20.865768 -0.359060 -0.021872 -0.006852
 12 0.975190 -4.916450 -4.520320 0.000000 0.000000 0.000000
 13 -2.406500 -8.600220 4.877150 0.000000 0.000000 0.000000
 14 4.381730 -8.600220 5.272540 0.000000 0.000000 0.000000
 15 -18.388140 0.440630 8.679390 -1.733969 -0.110388 1.342883
 16 -21.955891 -0.759690 -12.109390 -0.280799 0.037647 0.379886
 17 -13.311041 1.530050 -7.133010 0.321029 0.748787 0.352937
 18 -9.635210 -0.302230 -6.530870 -0.005896 -0.920540 -0.013075
 19 -3.126290 0.042420 -2.638810 0.000000 0.000000 0.000000
 20 -2.839340 -5.564580 -4.296970 -0.024043 0.158988 0.688480
 21 -3.811070 -2.785450 -1.806430 0.000000 0.000000 0.000000
 22 18.455151 0.440630 8.679390 -1.623288 0.080130 -1.297128
 23 21.943432 -0.878860 -11.911369 -0.286123 -0.065158 -0.417723
 24 13.133340 0.635550 -6.798010 0.460660 -0.468208 -0.532734
 25 3.689260 -4.550930 -4.829990 -0.148816 -0.038698 -0.618112
 26 3.087020 -2.930260 -1.806420 0.000000 0.000000 0.000000
 27 10.169240 0.711430 -6.708540 -0.006280 0.654559 0.004410
 28 2.770930 0.042420 -2.816470 0.000000 0.000000 0.000000
 29 -0.013158 -42.729740 40.360786 1.570802 -0.000018 -0.000537
time 14
  0 2.094563 -2.094563 30.230022 0.574155 0.000000 -0.000048
  1 9.062670 0.286610 -3.406700 -0.386372 -0.189260 -0.112475
  2 4.544490 -1.638600 -20.622749 1.688531 -0.147063 0.315890
  3 3.070910 1.647970 -15.136740 -1.261600 -0.169349 -0.261966
  4 -0.361640 -14.308061 -6.406600 -0.688742 0.000000 0.000000
  5 -9.522449 0.590440 -3.372560 -1.729765 0.296356 -0.007286
  6 -4.141180 -1.081730 -20.790251 1.513579 0.261841 -0.137835
  7 -3.014440 0.974200 -14.527950 -0.400105 -0.168341 0.213173
  8 0.361640 -14.494990 -6.882030 0.000000 0.000000 0.000000
  9 0.013460 -1.507020 5.475230 0.484006 0.000000 0.000000
 10 -0.004780 1.092750 22.735540 0.126870 0.000000 0.000000
 11 -0.976790 -3.346690 20.865768 -0.577595 -0.024700 -0.010005
 12 0.975190 -4.916450 -4.520320 0.000000 0.000000 0.000000
 13 -2.406500 -8.600220 4.877150 0.000000 0.000000 0.000000
 14 4.381730 -8.600220 5.272540 0.000000 0.000000 0.000000
 15 -18.388140 0.440630 8.679390 -1.763762 -0.038954 1.358749
 16 -21.955891 -0.759690 -12.109390 -0.319734 0.054257 0.442493
 17 -13.311041 1.530050 -7.133010 0.311768 0.728481 0.344272
 18 -9.635210 -0.302230 -6.530870 -0.010091 -0.902382 -0.022399
 19 -3.126290 0.042420 -2.638810 0.000000 0.000000 0.000000
 20 -2.839340 -5.564580 -4.296970 -0.022935 0.151665 0.656781
 21 -3.811070 -2.785450 -1.806430 0.000000 0.000000 0.000000
 22 18.455151 0.440630 8.679390 -1.641158 0.009469 -1.303723
 23 21.943432 -0.878860 -11.911369 -0.311905 -0.093807 -0.479850
 24 13.133340 0.635550 -6.798010 0.445519 -0.463460 -0.513373
 25 3.689260 -4.550930 -4.829990 -0.141957 -0.036913 -0.589653
 26 3.087020 -2.930260 -1.806420 0.000000 0.000000 0.000000
 27 10.169240 0.711430 -6.708540 -0.010750 0.642804 0.007562
 28 2.770930 0.042420 -2.816470 0.000000 0.000000 0.000000
 29 -0.013158 -41.932842 45.687458 1.570802 -0.000018 -0.000537
time 15
  0 2.500825 -2.500825 30.983952 0.547700 0.000000 -0.000048
  1 9.062670 0.286610 -3.406700 -0.701790 -0.241377 -0.115915
  2 4.544490 -1.638600 -20.622749 1.846953 -0.183280 0.323872
  3 3.070910 1.647970 -15.136740 -1.207853 -0.153370 -0.259369
  4 -0.361640 -14.308061 -6.406600 -0.648558 0.000000 0.000000
  5 -9.522449 0.590440 -3.372560 -1.661848 0.297146 -0.001398
  6 -4.141180 -1.081730 -20.790251 1.473131 0.253549 -0.140052
  7 -3.014440 0.974200 -14.527950 -0.423220 -0.177335 0.211955
  8 0.361640 -14.494990 -6.882030 0.000000 0.000000 0.000000
  9 0.013460 -1.507020 5.475230 0.445506 0.000000 0.000000
 10 -0.004780 1.092750 22.735540 0.092654 0.000000 0.000000
 11 -0.976790 -3.346690 20.865768 -0.731769 -0.026043 -0.013704
 12 0.975190 -4.916450 -4.520320 0.000000 0.000000 0.000000
 13 -2.406500 -8.600220 4.877150 0.000000 0.000000 0.000000
 14 4.381730 -8.600220 5.272540 0.000000 0.000000 0.000000
 15 -18.388140 0.440630 8.679390 -1.784155 0.034876 1.370669
 16 -21.955891 -0.759690 -12.109390 -0.365104 0.074338 0.512798
 17 -13.311041 1.530050 -7.133010 0.300561 0.703952 0.333797
 18 -9.635210 -0.302230 -6.530870 -0.015161 -0.880453 -0.033653
 19 -3.126290 0.042420 -2.638810 0.000000 0.000000 0.000000
 20 -2.839340 -5.564580 -4.296970 -0.021609 0.142820 0.618482
 21 -3.811070 -2.785450 -1.806430 0.000000 0.000000 0.000000
 22 18.455151 0.440630 8.679390 -1.654577 -0.063057 -1.308749
 23 21.943432 -0.878860 -11.911369 -0.341519 -0.128287 -0.549594
 24 13.133340 0.635550 -6.798010 0.427194 -0.457676 -0.489979
 25 3.689260 -4.550930 -4.829990 -0.133679 -0.034755 -0.555250
 26 3.087020 -2.930260 -1.806420 0.000000 0.000000 0.000000
 27 10.169240 0.711430 -6.708540 -0.016155 0.628569 0.011361
 28 2.770930 0.042420 -2.816470 0.000000 0.000000 0.000000
 29 -0.013158 -40.057785 51.053883 1.570802 -0.000018 -0.000537
time 16
  0 2.965683 -2.965683 31.847260 0.517457 0.000000 -0.000048
  1 9.062670 0.286610 -3.406700 -1.024174 -0.269504 -0.109082
  2 4.544490 -1.638600 -20.622749 1.860862 -0.186504 0.324291
  3 3.070910 1.647970 -15.136740 -1.014539 -0.101434 -0.211307
  4 -0.361640 -14.308061 -6.406600 -0.602650 0.000000 0.000000
  5 -9.522449 0.590440 -3.372560 -1.583750 0.297200 0.005391
  6 -4.141180 -1.081730 -20.790251 1.425191 0.243625 -0.142233
  7 -3.014440 0.974200 -14.527950 -0.449848 -0.186982 0.209753
  8 0.361640 -14.494990 -6.882030 0.000000 0.000000 0.000000
  9 0.013460 -1.507020 5.475230 0.401462 0.000000 0.000000
 10 -0.004780 1.092750 22.735540 0.053527 0.000000 0.000000
 11 -0.976790 -3.346690 20.865768 -0.795838 -0.026330 -0.017948
 12 0.975190 -4.916450 -4.520320 0.000000 0.000000 0.000000
 13 -2.406500 -8.600220 4.877150 0.000000 0.000000 0.000000
 14 4.381730 -8.600220 5.272540 0.000000 0.000000 0.000000
 15 -18.388140 0.440630 8.679390 -1.798187 0.110302 1.379153
 16 -21.955891 -0.759690 -12.109390 -0.415869 0.097323 0.589330
 17 -13.311041 1.530050 -7.133010 0.287784 0.675911 0.321825
 18 -9.635210 -0.302230 -6.530870 -0.020961 -0.855399 -0.046524
 19 -3.126290 0.042420 -2.638810 0.000000 0.000000 0.000000
 20 -2.839340 -5.564580 -4.296970 -0.020065 0.132705 0.574680
 21 -3.811070 -2.785450 -1.806430 0.000000 0.000000 0.000000
 22 18.455151 0.440630 8.679390 -1.664195 -0.136944 -1.312448
 23 21.943432 -0.878860 -11.911369 -0.374268 -0.167612 -0.625568
 24 13.133340 0.635550 -6.798010 0.406246 -0.451090 -0.463218
 25 3.689260 -4.550930 -4.829990 -0.124217 -0.032298 -0.515947
 26 3.087020 -2.930260 -1.806420 0.000000 0.000000 0.000000
 27 10.169240 0.711430 -6.708540 -0.022339 0.612350 0.015712
 28 2.770930 0.042420 -2.816470 0.000000 0.000000 0.000000
 29 -0.013158 -35.651398 56.959156 1.570802 -0.000018 -0.000537
time 17
  0 3.485230 -3.485230 32.796509 0.484192 0.000000 -0.000048
  1 9.062670 0.286610 -3.406700 -1.251329 -0.269607 -0.116775
  2 4.544490 -1.638600 -20.622749 1.741846 -0.159119 0.319222
  3 3.070910 1.647970 -15.136740 -0.771945 -0.049156 -0.125059
  4 -0.361640 -14.308061 -6.406600 -0.552096 0.000000 0.000000
  5 -9.522449 0.590440 -3.372560 -1.497233 0.296248 0.012713
  6 -4.141180 -1.081730 -20.790251 1.370267 0.232081 -0.144127
  7 -3.014440 0.974200 -14.527950 -0.479249 -0.196861 0.206332
  8 0.361640 -14.494990 -6.882030 0.000000 0.000000 0.000000
  9 0.013460 -1.507020 5.475230 0.352986 0.000000 0.000000
 10 -0.004780 1.092750 22.735540 0.010470 0.000000 0.000000
 11 -0.976790 -3.346690 20.865768 -0.785103 -0.025707 -0.022677
 12 0.975190 -4.916450 -4.520320 0.000000 0.000000 0.000000
 13 -2.406500 -8.600220 4.877150 0.000000 0.000000 0.000000
 14 4.381730 -8.600220 5.272540 0.000000 0.000000 0.000000
 15 -18.388140 0.440630 8.679390 -1.808695 0.186470 1.384753
 16 -21.955891 -0.759690 -12.109390 -0.470859 0.122574 0.670674
 17 -13.311041 1.530050 -7.133010 0.273689 0.645048 0.308641
 18 -9.635210 -0.302230 -6.530870 -0.027349 -0.827812 -0.060690
 19 -3.126290 0.042420 -2.638810 0.000000 0.000000 0.000000
 20 -2.839340 -5.564580 -4.296970 -0.018391 0.121584 0.526471
 21 -3.811070 -2.785450 -1.806430 0.000000 0.000000 0.000000
 22 18.455151 0.440630 8.679390 -1.670607 -0.211541 -1.314981
 23 21.943432 -0.878860 -11.911369 -0.409500 -0.210825 -0.706205
 24 13.133340 0.635550 -6.798010 0.383207 -0.443835 -0.433775
 25 3.689260 -4.550930 -4.829990 -0.113802 -0.029590 -0.472667
 26 3.087020 -2.930260 -1.806420 0.000000 0.000000 0.000000
 27 10.169240 0.711430 -6.708540 -0.029147 0.594445 0.020494
 28 2.770930 0.042420 -2.816470 0.000000 0.000000 0.000000
 29 -0.013158 -28.541807 62.864433 1.570802 -0.000018 -0.000537
time 18
  0 4.036028 -4.036028 33.812164 0.448631 0.000000 -0.000048
  1 9.062670 0.286610 -3.406700 -1.342503 -0.253072 -0.140253
  2 4.544490 -1.638600 -20.622749 1.558215 -0.118420 0.305068
  3 3.070910 1.647970 -15.136740 -0.568236 -0.026932 -0.038580
  4 -0.361640 -14.308061 -6.406600 -0.498095 0.000000 0.000000
  5 -9.522449 0.590440 -3.372560 -1.403948 0.294112 0.020165
  6 -4.141180 -1.081730 -20.790251 1.308722 0.219013 -0.145469
  7 -3.014440 0.974200 -14.527950 -0.510843 -0.206614 0.201538
  8 0.361640 -14.494990 -6.882030 0.000000 0.000000 0.000000
  9 0.013460 -1.507020 5.475230 0.301208 0.000000 0.000000
 10 -0.004780 1.092750 22.735540 -0.035521 0.000000 0.000000
 11 -0.976790 -3.346690 20.865768 -0.721155 -0.024209 -0.027922
 12 0.975190 -4.916450 -4.520320 0.000000 0.000000 0.000000
 13 -2.406500 -8.600220 4.877150 0.000000 0.000000 0.000000
 14 4.381730 -8.600220 5.272540 0.000000 0.000000 0.000000
 15 -18.388140 0.440630 8.679390 -1.818856 0.262581 1.388019
 16 -21.955891 -0.759690 -12.109390 -0.528904 0.149597 0.755300
 17 -13.311041 1.530050 -7.133010 0.258620 0.612098 0.294572
 18 -9.635210 -0.302230 -6.530870 -0.034168 -0.798340 -0.075827
 19 -3.126290 0.042420 -2.638810 0.000000 0.000000 0.000000
 20 -2.839340 -5.564580 -4.296970 -0.016587 0.109683 0.474997
 21 -3.811070 -2.785450 -1.806430 0.000000 0.000000 0.000000
 22 18.455151 0.440630 8.679390 -1.674407 -0.286285 -1.316550
 23 21.943432 -0.878860 -11.911369 -0.446561 -0.256940 -0.790119
 24 13.133340 0.635550 -6.798010 0.358607 -0.436111 -0.402315
 25 3.689260 -4.550930 -4.829990 -0.102669 -0.026690 -0.426434
 26 3.087020 -2.930260 -1.806420 0.000000 0.000000 0.000000
 27 10.169240 0.711430 -6.708540 -0.036409 0.575349 0.025611
 28 2.770930 0.042420 -2.816470 0.000000 0.000000 0.000000
 29 -0.013158 -20.064987 68.010017 1.570802 -0.000018 -0.000537
time 19
  0 4.610264 -4.610264 34.870789 0.411559 0.000000 -0.000048
  1 9.062670 0.286610 -3.406700 -1.332731 -0.224404 -0.168168
  2 4.544490 -1.638600 -20.622749 1.384581 -0.082861 0.285053
  3 3.070910 1.647970 -15.136740 -0.437179 -0.032567 0.022675
  4 -0.361640 -14.308061 -6.406600 -0.441794 0.000000 0.000000
  5 -9.522449 0.590440 -3.372560 -1.305657 0.290522 0.026954
  6 -4.141180 -1.081730 -20.790251 1.240995 0.204529 -0.145996
  7 -3.014440 0.974200 -14.527950 -0.544048 -0.215692 0.195474
  8 0.361640 -14.494990 -6.882030 0.000000 0.000000 0.000000
  9 0.013460 -1.507020 5.475230 0.247222 0.000000 0.000000
 10 -0.004780 1.092750 22.735540 -0.083490 0.000000 0.000000
 11 -0.976790 -3.346690 20.865768 -0.619684 -0.021836 -0.033683
 12 0.975190 -4.916450 -4.520320 0.000000 0.000000 0.000000
 13 -2.406500 -8.600220 4.877150 0.000000 0.000000 0.000000
 14 4.381730 -8.600220 5.272540 0.000000 0.000000 0.000000
 15 -18.388140 0.440630 8.679390 -1.831506 0.337779 1.389589
 16 -21.955891 -0.759690 -12.109390 -0.588899 0.177752 0.841682
 17 -13.311041 1.530050 -7.133010 0.242955 0.577700 0.279890
 18 -9.635210 -0.302230 -6.530870 -0.041287 -0.767575 -0.091610
 19 -3.126290 0.042420 -2.638810 0.000000 0.000000 0.000000
 20 -2.839340 -5.564580 -4.296970 -0.014717 0.097291 0.421285
 21 -3.811070 -2.785450 -1.806430 0.000000 0.000000 0.000000
 22 18.455151 0.440630 8.679390 -1.676247 -0.360586 -1.317354
 23 21.943432 -0.878860 -11.911369 -0.484755 -0.304998 -0.875787
 24 13.133340 0.635550 -6.798010 0.332914 -0.428020 -0.369505
 25 3.689260 -4.550930 -4.829990 -0.091050 -0.023670 -0.378234
 26 3.087020 -2.930260 -1.806420 0.000000 0.000000 0.000000
 27 10.169240 0.711430 -6.708540 -0.043983 0.555460 0.030944
 28 2.770930 0.042420 -2.816470 0.000000 0.000000 0.000000
 29 -0.013158 -11.564727 71.649467 1.570802 -0.000018 -0.000537
time 20
  0 5.196220 -5.196220 35.948948 0.373722 0.000000 -0.000048
  1 9.062670 0.286610 -3.406700 -1.266508 -0.184377 -0.191953
  2 4.544490 -1.638600 -20.622749 1.284906 -0.064201 0.270912
  3 3.070910 1.647970 -15.136740 -0.394404 -0.054327 0.051099
  4 -0.361640 -14.308061 -6.406600 -0.384344 0.000000 0.000000
  5 -9.522449 0.590440 -3.372560 -1.203441 0.286339 0.033357
  6 -4.141180 -1.081730 -20.790251 1.167738 0.188796 -0.145433
  7 -3.014440 0.974200 -14.527950 -0.578865 -0.224581 0.187492
  8 0.361640 -14.494990 -6.882030 0.000000 0.000000 0.000000
  9 0.013460 -1.507020 5.475230 0.192124 0.000000 0.000000
 10 -0.004780 1.092750 22.735540 -0.132441 0.000000 0.000000
 11 -0.976790 -3.346690 20.865768 -0.490015 -0.018552 -0.040110
 12 0.975190 -4.916450 -4.520320 0.000000 0.000000 0.000000
 13 -2.406500 -8.600220 4.877150 0.000000 0.000000 0.000000
 14 4.381730 -8.600220 5.272540 0.000000 0.000000 0.000000
 15 -18.388140 0.440630 8.679390 -1.849756 0.411238 1.389971
 16 -21.955891 -0.759690 -12.109390 -0.649674 0.206475 0.928403
 17 -13.311041 1.530050 -7.133010 0.226913 0.542638 0.264910
 18 -9.635210 -0.302230 -6.530870 -0.048538 -0.736216 -0.107706
 19 -3.126290 0.042420 -2.638810 0.000000 0.000000 0.000000
 20 -2.839340 -5.564580 -4.296970 -0.012804 0.084635 0.366499
 21 -3.811070 -2.785450 -1.806430 0.000000 0.000000 0.000000
 22 18.455151 0.440630 8.679390 -1.676722 -0.433881 -1.317595
 23 21.943432 -0.878860 -11.911369 -0.523470 -0.353986 -0.961685
 24 13.133340 0.635550 -6.798010 0.306722 -0.419762 -0.336028
 25 3.689260 -4.550930 -4.829990 -0.079217 -0.020590 -0.329049
 26 3.087020 -2.930260 -1.806420 0.000000 0.000000 0.000000
 27 10.169240 0.711430 -6.708540 -0.051725 0.535124 0.036373
 28 2.770930 0.042420 -2.816470 0.000000 0.000000 0.000000
 29 -0.013158 -4.388727 73.027512 1.570802 -0.000018 -0.000537
time 21
  0 5.782175 -5.782176 37.027107 0.335885 0.000000 -0.000048
  1 9.062670 0.286610 -3.406700 -1.180688 -0.137259 -0.207861
  2 4.544490 -1.638600 -20.622749 1.237025 -0.055764 0.263493
  3 3.070910 1.647970 -15.136740 -0.400603 -0.081771 0.061486
  4 -0.361640 -14.308061 -6.406600 -0.326871 0.000000 0.000000
  5 -9.522449 0.590440 -3.372560 -1.135752 0.288529 0.031645
  6 -4.141180 -1.081730 -20.790251 1.116597 0.177840 -0.144342
  7 -3.014440 0.974200 -14.527950 -0.615036 -0.235513 0.186455
  8 0.361640 -14.494990 -6.882030 0.000000 0.000000 0.000000
  9 0.013460 -1.507020 5.475230 0.137026 0.000000 0.000000
 10 -0.004780 1.092750 22.735540 -0.181393 0.000000 0.000000
 11 -0.976790 -3.346690 20.865768 -0.347693 -0.014142 -0.047144
 12 0.975190 -4.916450 -4.520320 0.000000 0.000000 0.000000
 13 -2.406500 -8.600220 4.877150 0.000000 0.000000 0.000000
 14 4.381730 -8.600220 5.272540 0.000000 0.000000 0.000000
 15 -18.388140 0.440630 8.679390 -1.864341 0.492340 1.377159
 16 -21.955891 -0.759690 -12.109390 -0.710124 0.235197 1.013879
 17 -13.311041 1.530050 -7.133010 0.210903 0.507552 0.249929
 18 -9.635210 -0.302230 -6.530870 -0.055800 -0.704858 -0.123813
 19 -3.126290 0.042420 -2.638810 0.000000 0.000000 0.000000
 20 -2.839340 -5.564580 -4.296970 -0.010870 0.071979 0.311713
 21 -3.811070 -2.785450 -1.806430 0.000000 0.000000 0.000000
 22 18.455151 0.440630 8.679390 -1.671319 -0.514663 -1.310036
 23 21.943432 -0.878860 -11.911369 -0.561969 -0.402974 -1.046430
 24 13.133340 0.635550 -6.798010 0.280529 -0.411537 -0.302569
 25 3.689260 -4.550930 -4.829990 -0.067364 -0.017509 -0.279844
 26 3.087020 -2.930260 -1.806420 0.000000 0.000000 0.000000
 27 10.169240 0.711430 -6.708540 -0.059456 0.514789 0.041814
 28 2.770930 0.042420 -2.816470 0.000000 0.000000 0.000000
 29 -0.013158 1.619269 72.139732 1.570802 -0.000018 -0.000537
time 22
  0 6.356411 -6.356412 38.085732 0.298813 0.000000 -0.000048
  1 9.062670 0.286610 -3.406700 -1.094556 -0.089630 -0.216674
  2 4.544490 -1.638600 -20.622749 1.186318 -0.047243 0.255212
  3 3.070910 1.647970 -15.136740 -0.405800 -0.108850 0.068975
  4 -0.361640 -14.308061 -6.406600 -0.270571 0.000000 0.000000
  5 -9.522449 0.590440 -3.372560 -1.130234 0.303878 0.019318
  6 -4.141180 -1.081730 -20.790251 1.109759 0.176376 -0.144151
  7 -3.014440 0.974200 -14.527950 -0.653012 -0.252111 0.197391
  8 0.361640 -14.494990 -6.882030 0.000000 0.000000 0.000000
  9 0.013460 -1.507020 5.475230 0.083023 0.000000 0.000000
 10 -0.004780 1.092750 22.735540 -0.229362 0.000000 0.000000
 11 -0.976790 -3.346690 20.865768 -0.208043 -0.008341 -0.054329
 12 0.975190 -4.916450 -4.520320 0.000000 0.000000 0.000000
 13 -2.406500 -8.600220 4.877150 0.000000 0.000000 0.000000
 14 4.381730 -8.600220 5.272540 0.000000 0.000000 0.000000
 15 -18.388140 0.440630 8.679390 -1.868766 0.582595 1.341017
 16 -21.955891 -0.759690 -12.109390 -0.769014 0.263353 1.096751
 17 -13.311041 1.530050 -7.133010 0.195206 0.473178 0.235248
 18 -9.635210 -0.302230 -6.530870 -0.062907 -0.674147 -0.139597
 19 -3.126290 0.042420 -2.638810 0.000000 0.000000 0.000000
 20 -2.839340 -5.564580 -4.296970 -0.009000 0.059575 0.258001
 21 -3.811070 -2.785450 -1.806430 0.000000 0.000000 0.000000
 22 18.455151 0.440630 8.679390 -1.658376 -0.604351 -1.287518
 23 21.943432 -0.878860 -11.911369 -0.599596 -0.450948 -1.128543
 24 13.133340 0.635550 -6.798010 0.254836 -0.403446 -0.269759
 25 3.689260 -4.550930 -4.829990 -0.055765 -0.014501 -0.231644
 26 3.087020 -2.930260 -1.806420 0.000000 0.000000 0.000000
 27 10.169240 0.711430 -6.708540 -0.067030 0.494900 0.047147
 28 2.770930 0.042420 -2.816470 0.000000 0.000000 0.000000
 29 -0.013158 7.443666 69.829742 1.570802 -0.000018 -0.000537
time 23
  0 6.907209 -6.907210 39.101387 0.263252 0.000000 -0.000048
  1 9.062670 0.286610 -3.406700 -1.008736 -0.043273 -0.218901
  2 4.544490 -1.638600 -20.622749 1.134018 -0.038902 0.246235
  3 3.070910 1.647970 -15.136740 -0.410536 -0.134684 0.073682
  4 -0.361640 -14.308061 -6.406600 -0.216569 0.000000 0.000000
  5 -9.522449 0.590440 -3.372560 -1.174147 0.326175 -0.003772
  6 -4.141180 -1.081730 -20.790251 1.127000 0.180072 -0.144606
  7 -3.014440 0.974200 -14.527950 -0.681284 -0.271974 0.214702
  8 0.361640 -14.494990 -6.882030 0.000000 0.000000 0.000000
  9 0.013460 -1.507020 5.475230 0.031245 0.000000 0.000000
 10 -0.004780 1.092750 22.735540 -0.275366 0.000000 0.000000
 11 -0.976790 -3.346690 20.865768 -0.075023 -0.001174 -0.061393
 12 0.975190 -4.916450 -4.520320 0.000000 0.000000 0.000000
 13 -2.406500 -8.600220 4.877150 0.000000 0.000000 0.000000
 14 4.381730 -8.600220 5.272540 0.000000 0.000000 0.000000
 15 -18.388140 0.440630 8.679390 -1.869664 0.669485 1.285233
 16 -21.955891 -0.759690 -12.109390 -0.825303 0.290340 1.175377
 17 -13.311041 1.530050 -7.133010 0.180169 0.440203 0.221166
 18 -9.635210 -0.302230 -6.530870 -0.069738 -0.644674 -0.154733
 19 -3.126290 0.042420 -2.638810 0.000000 0.000000 0.000000
 20 -2.839340 -5.564580 -4.296970 -0.007196 0.047687 0.206526
 21 -3.811070 -2.785450 -1.806430 0.000000 0.000000 0.000000
 22 18.455151 0.440630 8.679390 -1.642940 -0.691612 -1.249962
 23 21.943432 -0.878860 -11.911369 -0.635699 -0.496921 -1.206457
 24 13.133340 0.635550 -6.798010 0.230236 -0.395690 -0.238299
 25 3.689260 -4.550930 -4.829990 -0.044631 -0.011601 -0.185411
 26 3.087020 -2.930260 -1.806420 0.000000 0.000000 0.000000
 27 10.169240 0.711430 -6.708540 -0.074304 0.475804 0.052265
 28 2.770930 0.042420 -2.816470 0.000000 0.000000 0.000000
 29 -0.013158 12.971178 66.623138 1.570802 -0.000018 -0.000537
time 24
  0 7.422850 -7.422851 40.050636 0.229968 0.000000 -0.000048
  1 9.062670 0.286610 -3.406700 -0.924163 0.000848 -0.214279
  2 4.544490 -1.638600 -20.622749 1.081428 -0.031016 0.236804
  3 3.070910 1.647970 -15.136740 -0.415310 -0.159347 0.074841
  4 -0.361640 -14.308061 -6.406600 -0.166016 0.000000 0.000000
  5 -9.522449 0.590440 -3.372560 -1.252814 0.347412 -0.037754
  6 -4.141180 -1.081730 -20.790251 1.141913 0.183264 -0.144954
  7 -3.014440 0.974200 -14.527950 -0.683283 -0.292975 0.228670
  8 0.361640 -14.494990 -6.882030 0.000000 0.000000 0.000000
  9 0.013460 -1.507020 5.475230 -0.017197 0.000000 0.000000
 10 -0.004780 1.092750 22.735540 -0.318424 0.000000 0.000000
 11 -0.976790 -3.346690 20.865768 0.047943 0.007227 -0.068214
 12 0.975190 -4.916450 -4.520320 0.000000 0.000000 0.000000
 13 -2.406500 -8.600220 4.877150 0.000000 0.000000 0.000000
 14 4.381730 -8.600220 5.272540 0.000000 0.000000 0.000000
 15 -18.388140 0.440630 8.679390 -1.873812 0.740406 1.213456
 16 -21.955891 -0.759690 -12.109390 -0.877823 0.315627 1.248400
 17 -13.311041 1.530050 -7.133010 0.166074 0.409340 0.207983
 18 -9.635210 -0.302230 -6.530870 -0.076114 -0.617088 -0.168899
 19 -3.126290 0.042420 -2.638810 0.000000 0.000000 0.000000
 20 -2.839340 -5.564580 -4.296970 -0.005522 0.036565 0.158317
 21 -3.811070 -2.785450 -1.806430 0.000000 0.000000 0.000000
 22 18.455151 0.440630 8.679390 -1.629997 -0.765174 -1.197408
 23 21.943432 -0.878860 -11.911369 -0.669624 -0.539937 -1.278831
 24 13.133340 0.635550 -6.798010 0.207166 -0.388435 -0.208856
 25 3.689260 -4.550930 -4.829990 -0.034217 -0.008893 -0.142131
 26 3.087020 -2.930260 -1.806420 0.000000 0.000000 0.000000
 27 10.169240 0.711430 -6.708540 -0.081100 0.457899 0.057047
 28 2.770930 0.042420 -2.816470 0.000000 0.000000 0.000000
 29 -0.013158 18.096334 63.058773 1.570802 -0.000018 -0.000537
time 25
  0 7.891614 -7.891615 40.913944 0.199744 0.000000 -0.000048
  1 9.062670 0.286610 -3.406700 -0.841618 0.040948 -0.204559
  2 4.544490 -1.638600 -20.622749 1.030504 -0.023861 0.227300
  3 3.070910 1.647970 -15.136740 -0.421355 -0.181595 0.073473
  4 -0.361640 -14.308061 -6.406600 -0.120108 0.000000 0.000000
  5 -9.522449 0.590440 -3.372560 -1.349171 0.358686 -0.079666
  6 -4.141180 -1.081730 -20.790251 1.131001 0.180924 -0.144702
  7 -3.014440 0.974200 -14.527950 -0.646596 -0.312311 0.229422
  8 0.361640 -14.494990 -6.882030 0.000000 0.000000 0.000000
  9 0.013460 -1.507020 5.475230 -0.061241 0.000000 0.000000
 10 -0.004780 1.092750 22.735540 -0.357551 0.000000 0.000000
 11 -0.976790 -3.346690 20.865768 0.157914 0.016587 -0.074611
 12 0.975190 -4.916450 -4.520320 0.000000 0.000000 0.000000
 13 -2.406500 -8.600220 4.877150 0.000000 0.000000 0.000000
 14 4.381730 -8.600220 5.272540 0.000000 0.000000 0.000000
 15 -18.388140 0.440630 8.679390 -1.887845 0.782839 1.129293
 16 -21.955891 -0.759690 -12.109390 -0.925338 0.338576 1.314233
 17 -13.311041 1.530050 -7.133010 0.153265 0.381300 0.196010
 18 -9.635210 -0.302230 -6.530870 -0.081915 -0.591980 -0.181770
 19 -3.126290 0.042420 -2.638810 0.000000 0.000000 0.000000
 20 -2.839340 -5.564580 -4.296970 -0.004000 0.026450 0.114515
 21 -3.811070 -2.785450 -1.806430 0.000000 0.000000 0.000000
 22 18.455151 0.440630 8.679390 -1.624594 -0.813672 -1.129855
 23 21.943432 -0.878860 -11.911369 -0.700675 -0.579037 -1.344051
 24 13.133340 0.635550 -6.798010 0.186249 -0.381848 -0.182095
 25 3.689260 -4.550930 -4.829990 -0.024754 -0.006436 -0.102828
 26 3.087020 -2.930260 -1.806420 0.000000 0.000000 0.000000
 27 10.169240 0.711430 -6.708540 -0.087284 0.441680 0.061397
 28 2.770930 0.042420 -2.816470 0.000000 0.000000 0.000000
 29 -0.013158 22.717569 59.662243 1.570802 -0.000018 -0.000537
time 26
  0 8.301783 -8.301783 41.667873 0.173289 0.000000 -0.000048
  1 9.062670 0.286610 -3.406700 -0.762504 0.076093 -0.190602
  2 4.544490 -1.638600 -20.622749 0.983347 -0.017689 0.218191
  3 3.070910 1.647970 -15.136740 -0.429979 -0.201208 0.069717
  4 -0.361640 -14.308061 -6.406600 -0.079923 0.000000 0.000000
  5 -9.522449 0.590440 -3.372560 -1.442741 0.354216 -0.121725
  6 -4.141180 -1.081730 -20.790251 1.078914 0.169800 -0.143168
  7 -3.014440 0.974200 -14.527950 -0.568355 -0.326845 0.209934
  8 0.361640 -14.494990 -6.882030 0.000000 0.000000 0.000000
  9 0.013460 -1.507020 5.475230 -0.099758 0.000000 0.000000
 10 -0.004780 1.092750 22.735540 -0.391767 0.000000 0.000000
 11 -0.976790 -3.346690 20.865768 0.252221 0.026486 -0.080493
 12 0.975190 -4.916450 -4.520320 0.000000 0.000000 0.000000
 13 -2.406500 -8.600220 4.877150 0.000000 0.000000 0.000000
 14 4.381730 -8.600220 5.272540 0.000000 0.000000 0.000000
 15 -18.388140 0.440630 8.679390 -1.940726 0.802658 1.006653
 16 -21.955891 -0.759690 -12.109390 -0.966808 0.358657 1.371462
 17 -13.311041 1.530050 -7.133010 0.142089 0.356771 0.185536
 18 -9.635210 -0.302230 -6.530870 -0.086996 -0.570050 -0.193024
 19 -3.126290 0.042420 -2.638810 0.000000 0.000000 0.000000
 20 -2.839340 -5.564580 -4.296970 -0.002652 0.017593 0.076217
 21 -3.811070 -2.785450 -1.806430 0.000000 0.000000 0.000000
 22 18.455151 0.440630 8.679390 -1.657961 -0.840067 -1.023380
 23 21.943432 -0.878860 -11.911369 -0.728199 -0.613208 -1.400732
 24 13.133340 0.635550 -6.798010 0.167924 -0.376098 -0.158701
 25 3.689260 -4.550930 -4.829990 -0.016477 -0.004278 -0.068425
 26 3.087020 -2.930260 -1.806420 0.000000 0.000000 0.000000
 27 10.169240 0.711430 -6.708540 -0.092689 0.427445 0.065196
 28 2.770930 0.042420 -2.816470 0.000000 0.000000 0.000000
 29 -0.013158 26.729410 56.967991 1.570802 -0.000018 -0.000537
time 27
  0 8.641637 -8.641637 42.292892 0.151406 0.000000 -0.000048
  1 9.062670 0.286610 -3.406700 -0.688379 0.105521 -0.173742
  2 4.544490 -1.638600 -20.622749 0.942492 -0.012704 0.210090
  3 3.070910 1.647970 -15.136740 -0.442800 -0.217846 0.064013
  4 -0.361640 -14.308061 -6.406600 -0.046682 0.000000 0.000000
  5 -9.522449 0.590440 -3.372560 -1.513217 0.334792 -0.154989
  6 -4.141180 -1.081730 -20.790251 0.979905 0.148884 -0.138650
  7 -3.014440 0.974200 -14.527950 -0.455393 -0.333480 0.169144
  8 0.361640 -14.494990 -6.882030 0.000000 0.000000 0.000000
  9 0.013460 -1.507020 5.475230 -0.131636 0.000000 0.000000
 10 -0.004780 1.092750 22.735540 -0.420088 0.000000 0.000000
 11 -0.976790 -3.346690 20.865768 0.328677 0.036265 -0.085859
 12 0.975190 -4.916450 -4.520320 0.000000 0.000000 0.000000
 13 -2.406500 -8.600220 4.877150 0.000000 0.000000 0.000000
 14 4.381730 -8.600220 5.272540 0.000000 0.000000 0.000000
 15 -18.388140 0.440630 8.679390 -2.035983 0.815119 0.843120
 16 -21.955891 -0.759690 -12.109390 -1.001063 0.375302 1.418559
 17 -13.311041 1.530050 -7.133010 0.132829 0.336488 0.176871
 18 -9.635210 -0.302230 -6.530870 -0.091191 -0.551947 -0.202336
 19 -3.126290 0.042420 -2.638810 0.000000 0.000000 0.000000
 20 -2.839340 -5.564580 -4.296970 -0.001543 0.010283 0.044518
 21 -3.811070 -2.785450 -1.806430 0.000000 0.000000 0.000000
 22 18.455151 0.440630 8.679390 -1.737519 -0.856400 -0.877941
 23 21.943432 -0.878860 -11.911369 -0.751498 -0.641490 -1.447397
 24 13.133340 0.635550 -6.798010 0.152783 -0.371317 -0.139323
 25 3.689260 -4.550930 -4.829990 -0.009618 -0.002493 -0.039966
 26 3.087020 -2.930260 -1.806420 0.000000 0.000000 0.000000
 27 10.169240 0.711430 -6.708540 -0.097159 0.415690 0.068348
 28 2.770930 0.042420 -2.816470 0.000000 0.000000 0.000000
 29 -0.013158 29.667000 54.865589 1.570802 -0.000018 -0.000537
time 28
  0 8.899457 -8.899457 42.765560 0.134821 0.000000 -0.000048
  1 9.062670 0.286610 -3.406700 -0.620908 0.128663 -0.155346
  2 4.544490 -1.638600 -20.622749 0.910691 -0.009048 0.203642
  3 3.070910 1.647970 -15.136740 -0.461819 -0.231312 0.056919
  4 -0.361640 -14.308061 -6.406600 -0.021511 0.000000 0.000000
  5 -9.522449 0.590440 -3.372560 -1.546549 0.306499 -0.174988
  6 -4.141180 -1.081730 -20.790251 0.836593 0.119580 -0.128475
  7 -3.014440 0.974200 -14.527950 -0.319414 -0.330215 0.111666
  8 0.361640 -14.494990 -6.882030 0.000000 0.000000 0.000000
  9 0.013460 -1.507020 5.475230 -0.155780 0.000000 0.000000
 10 -0.004780 1.092750 22.735540 -0.441532 0.000000 0.000000
 11 -0.976790 -3.346690 20.865768 0.385265 0.045074 -0.090589
 12 0.975190 -4.916450 -4.520320 0.000000 0.000000 0.000000
 13 -2.406500 -8.600220 4.877150 0.000000 0.000000 0.000000
 14 4.381730 -8.600220 5.272540 0.000000 0.000000 0.000000
 15 -18.388140 0.440630 8.679390 -2.142507 0.821963 0.677847
 16 -21.955891 -0.759690 -12.109390 -1.026933 0.387875 1.454051
 17 -13.311041 1.530050 -7.133010 0.125797 0.321115 0.170303
 18 -9.635210 -0.302230 -6.530870 -0.094367 -0.538153 -0.209395
 19 -3.126290 0.042420 -2.638810 0.000000 0.000000 0.000000
 20 -2.839340 -5.564580 -4.296970 -0.000696 0.004734 0.020514
 21 -3.811070 -2.785450 -1.806430 0.000000 0.000000 0.000000
 22 18.455151 0.440630 8.679390 -1.832514 -0.865100 -0.729486
 23 21.943432 -0.878860 -11.911369 -0.769920 -0.662900 -1.482569
 24 13.133340 0.635550 -6.798010 0.141295 -0.367706 -0.124661
 25 3.689260 -4.550930 -4.829990 -0.004430 -0.001151 -0.018417
 26 3.087020 -2.930260 -1.806420 0.000000 0.000000 0.000000
 27 10.169240 0.711430 -6.708540 -0.100551 0.406812 0.070721
 28 2.770930 0.042420 -2.816470 0.000000 0.000000 0.000000
 29 -0.013158 31.358458 53.063530 1.570802 -0.000018 -0.000537
time 29
  0 9.059618 -9.059618 43.062447 0.124319 0.000000 -0.000048
  1 9.062670 0.286610 -3.406700 -0.561911 0.145212 -0.136828
  2 4.544490 -1.638600 -20.622749 0.890626 -0.006855 0.199519
  3 3.070910 1.647970 -15.136740 -0.489078 -0.241460 0.048966
  4 -0.361640 -14.308061 -6.406600 -0.005560 0.000000 0.000000
  5 -9.522449 0.590440 -3.372560 -1.537392 0.276196 -0.182881
  6 -4.141180 -1.081730 -20.790251 0.657053 0.085344 -0.110007
  7 -3.014440 0.974200 -14.527950 -0.171635 -0.316714 0.044858
  8 0.361640 -14.494990 -6.882030 0.000000 0.000000 0.000000
  9 0.013460 -1.507020 5.475230 -0.171077 0.000000 0.000000
 10 -0.004780 1.092750 22.735540 -0.455117 0.000000 0.000000
 11 -0.976790 -3.346690 20.865768 0.420166 0.051737 -0.094500
 12 0.975190 -4.916450 -4.520320 0.000000 0.000000 0.000000
 13 -2.406500 -8.600220 4.877150 0.000000 0.000000 0.000000
 14 4.381730 -8.600220 5.272540 0.000000 0.000000 0.000000
 15 -18.388140 0.440630 8.679390 -2.229260 0.824815 0.549990
 16 -21.955891 -0.759690 -12.109390 -1.043313 0.395844 1.476467
 17 -13.311041 1.530050 -7.133010 0.121339 0.311365 0.166145
 18 -9.635210 -0.302230 -6.530870 -0.096392 -0.529479 -0.213865
 19 -3.126290 0.042420 -2.638810 0.000000 0.000000 0.000000
 20 -2.839340 -5.564580 -4.296970 -0.000174 0.001222 0.005302
 21 -3.811070 -2.785450 -1.806430 0.000000 0.000000 0.000000
 22 18.455151 0.440630 8.679390 -1.912073 -0.868562 -0.614004
 23 21.943432 -0.878860 -11.911369 -0.782810 -0.676450 -1.504725
 24 13.133340 0.635550 -6.798010 0.134021 -0.365432 -0.115364
 25 3.689260 -4.550930 -4.829990 -0.001146 -0.000288 -0.004760
 26 3.087020 -2.930260 -1.806420 0.000000 0.000000 0.000000
 27 10.169240 0.711430 -6.708540 -0.102696 0.401157 0.072231
 28 2.770930 0.042420 -2.816470 0.000000 0.000000 0.000000
 29 -0.013158 32.131920 51.804741 1.570802 -0.000018 -0.000537
time 30
  0 9.118214 -9.118214 43.167919 0.120646 0.000000 -0.000048
  1 9.062670 0.286610 -3.406700 -0.512997 0.155036 -0.119431
  2 4.544490 -1.638600 -20.622749 0.884759 -0.006232 0.198309
  3 3.070910 1.647970 -15.136740 -0.526539 -0.248242 0.040504
  4 -0.361640 -14.308061 -6.406600 0.000000 0.000000 0.000000
  5 -9.522449 0.590440 -3.372560 -1.486369 0.248783 -0.182513
  6 -4.141180 -1.081730 -20.790251 0.451615 0.050976 -0.081843
  7 -3.014440 0.974200 -14.527950 -0.020503 -0.293754 -0.024282
  8 0.361640 -14.494990 -6.882030 0.000000 0.000000 0.000000
  9 0.013460 -1.507020 5.475230 -0.176416 0.000000 0.000000
 10 -0.004780 1.092750 22.735540 -0.459875 0.000000 0.000000
 11 -0.976790 -3.346690 20.865768 0.431314 0.054973 -0.097228
 12 0.975190 -4.916450 -4.520320 0.000000 0.000000 0.000000
 13 -2.406500 -8.600220 4.877150 0.000000 0.000000 0.000000
 14 4.381730 -8.600220 5.272540 0.000000 0.000000 0.000000
 15 -18.388140 0.440630 8.679390 -2.265137 0.825414 0.498660
 16 -21.955891 -0.759690 -12.109390 -1.049033 0.398641 1.484222
 17 -13.311041 1.530050 -7.133010 0.119800 0.307973 0.164695
 18 -9.635210 -0.302230 -6.530870 -0.097087 -0.526408 -0.215423
 19 -3.126290 0.042420 -2.638810 0.000000 0.000000 0.000000
 20 -2.839340 -5.564580 -4.296970 0.000000 0.000000 0.000000
 21 -3.811070 -2.785450 -1.806430 0.000000 0.000000 0.000000
 22 18.455151 0.440630 8.679390 -1.945499 -0.869183 -0.567521
 23 21.943432 -0.878860 -11.911369 -0.789474 -0.681210 -1.512479
 24 13.133340 0.635550 -6.798010 0.131461 -0.364630 -0.112118
 25 3.689260 -4.550930 -4.829990 0.000000 0.000000 0.000000
 26 3.087020 -2.930260 -1.806420 0.000000 0.000000 0.000000
 27 10.169240 0.711430 -6.708540 -0.103451 0.399173 0.072758
 28 2.770930 0.042420 -2.816470 0.000000 0.000000 0.000000
 29 -0.013158 32.315517 51.332142 1.570802 -0.000018 -0.000537
time 31
  0 9.118214 -9.118214 42.593681 0.120646 0.000000 -0.000048
  1 9.062670 0.286610 -3.406700 -0.431023 0.163822 -0.084606
  2 4.544490 -1.638600 -20.622749 0.931771 -0.011445 0.207921
  3 3.070910 1.647970 -15.136740 -0.651745 -0.261415 0.022907
  4 -0.361640 -14.308061 -6.406600 0.000000 0.000000 0.000000
  5 -9.522449 0.590440 -3.372560 -1.343085 0.245246 -0.161208
  6 -4.141180 -1.081730 -20.790251 0.289461 0.028404 -0.055117
  7 -3.014440 0.974200 -14.527950 0.145200 -0.272459 -0.073027
  8 0.361640 -14.494990 -6.882030 0.000000 0.000000 0.000000
  9 0.013460 -1.507020 5.475230 -0.116185 0.000000 0.000000
 10 -0.004780 1.092750 22.735540 -0.358505 0.000000 0.000000
 11 -0.976790 -3.346690 20.865768 0.279277 0.036781 -0.099714
 12 0.975190 -4.916450 -4.520320 0.140750 0.000000 0.000000
 13 -2.406500 -8.600220 4.877150 0.000000 0.054074 0.000000
 14 4.381730 -8.600220 5.272540 0.000000 -0.057047 0.000000
 15 -18.388140 0.440630 8.679390 -2.214191 0.803171 0.539300
 16 -21.955891 -0.759690 -12.109390 -1.001843 0.274615 1.297760
 17 -13.311041 1.530050 -7.133010 0.119800 0.307973 0.164695
 18 -9.635210 -0.302230 -6.530870 -0.097087 -0.526408 -0.215423
 19 -3.126290 0.042420 -2.638810 0.000000 0.000000 0.000000
 20 -2.839340 -5.564580 -4.296970 0.000000 0.000000 0.000000
 21 -3.811070 -2.785450 -1.806430 0.000000 0.000000 0.000000
 22 18.455151 0.440630 8.679390 -1.895508 -0.844328 -0.608495
 23 21.943432 -0.878860 -11.911369 -0.791651 -0.537205 -1.334035
 24 13.133340 0.635550 -6.798010 0.131461 -0.364630 -0.112118
 25 3.689260 -4.550930 -4.829990 0.000000 0.000000 0.000000
 26 3.087020 -2.930260 -1.806420 0.000000 0.000000 0.000000
 27 10.169240 0.711430 -6.708540 -0.103451 0.399173 0.072758
 28 2.770930 0.042420 -2.816470 0.000000 0.000000 0.000000
 29 -0.013158 20.854231 60.360100 1.570802 -0.000018 -0.000537
time 32
  0 9.118214 -9.118214 41.335831 0.120646 0.000000 -0.000048
  1 9.062670 0.286610 -3.406700 -0.253458 0.169480 -0.016814
  2 4.544490 -1.638600 -20.622749 0.956182 -0.014334 0.212822
  3 3.070910 1.647970 -15.136740 -0.843210 -0.283248 -0.009459
  4 -0.361640 -14.308061 -6.406600 0.000000 0.000000 0.000000
  5 -9.522449 0.590440 -3.372560 -1.082795 0.251493 -0.119756
  6 -4.141180 -1.081730 -20.790251 0.124470 0.010236 -0.024664
  7 -3.014440 0.974200 -14.527950 0.365933 -0.249205 -0.112366
  8 0.361640 -14.494990 -6.882030 0.000000 0.000000 0.000000
  9 0.013460 -1.507020 5.475230 0.016307 0.000000 0.000000
 10 -0.004780 1.092750 22.735540 -0.135515 0.000000 0.000000
 11 -0.976790 -3.346690 20.865768 -0.084106 -0.000132 -0.094318
 12 0.975190 -4.916450 -4.520320 0.450487 0.000000 0.000000
 13 -2.406500 -8.600220 4.877150 0.000000 0.173057 0.000000
 14 4.381730 -8.600220 5.272540 0.000000 -0.182573 0.000000
 15 -18.388140 0.440630 8.679390 -2.085754 0.738467 0.634450
 16 -21.955891 -0.759690 -12.109390 -0.898168 0.001771 0.887533
 17 -13.311041 1.530050 -7.133010 0.119800 0.307973 0.164695
 18 -9.635210 -0.302230 -6.530870 -0.097087 -0.526408 -0.215423
 19 -3.126290 0.042420 -2.638810 0.000000 0.000000 0.000000
 20 -2.839340 -5.564580 -4.296970 0.000000 0.000000 0.000000
 21 -3.811070 -2.785450 -1.806430 0.000000 0.000000 0.000000
 22 18.455151 0.440630 8.679390 -1.770233 -0.772867 -0.704275
 23 21.943432 -0.878860 -11.911369 -0.792522 -0.220460 -0.941561
 24 13.133340 0.635550 -6.798010 0.131461 -0.364630 -0.112118
 25 3.689260 -4.550930 -4.829990 0.000000 0.000000 0.000000
 26 3.087020 -2.930260 -1.806420 0.000000 0.000000 0.000000
 27 10.169240 0.711430 -6.708540 -0.103451 0.399173 0.072758
 28 2.770930 0.042420 -2.816470 0.000000 0.000000 0.000000
 29 -0.013158 1.755992 72.532829 1.570802 -0.000018 -0.000537
time 33
  0 9.118213 -9.118213 40.074074 0.120646 0.000000 -0.000048
  1 9.062670 0.286610 -3.406700 0.010240 0.160811 0.064506
  2 4.544490 -1.638600 -20.622749 0.827170 -0.000467 0.186229
  3 3.070910 1.647970 -15.136740 -0.960869 -0.292128 -0.049592
  4 -0.361640 -14.308061 -6.406600 0.000000 0.000000 0.000000
  5 -9.522449 0.590440 -3.372560 -0.773758 0.244474 -0.088479
  6 -4.141180 -1.081730 -20.790251 -0.113558 -0.006588 0.023418
  7 -3.014440 0.974200 -14.527950 0.607073 -0.213481 -0.157094
  8 0.361640 -14.494990 -6.882030 0.000000 0.000000 0.000000
  9 0.013460 -1.507020 5.475230 0.148816 0.000000 0.000000
 10 -0.004780 1.092750 22.735540 0.087462 0.000000 0.000000
 11 -0.976790 -3.346690 20.865768 -0.482171 -0.029554 -0.079341
 12 0.975190 -4.916450 -4.520320 0.760223 0.000000 0.000000
 13 -2.406500 -8.600220 4.877150 0.000000 0.292029 0.000000
 14 4.381730 -8.600220 5.272540 0.000000 -0.308112 0.000000
 15 -18.388140 0.440630 8.679390 -1.916394 0.634267 0.744024
 16 -21.955891 -0.759690 -12.109390 -0.794493 -0.271003 0.477249
 17 -13.311041 1.530050 -7.133010 0.119800 0.307973 0.164695
 18 -9.635210 -0.302230 -6.530870 -0.097087 -0.526408 -0.215423
 19 -3.126290 0.042420 -2.638810 0.000000 0.000000 0.000000
 20 -2.839340 -5.564580 -4.296970 0.000000 0.000000 0.000000
 21 -3.811070 -2.785450 -1.806430 0.000000 0.000000 0.000000
 22 18.455151 0.440630 8.679390 -1.606426 -0.659625 -0.814249
 23 21.943432 -0.878860 -11.911369 -0.793654 0.096286 -0.549040
 24 13.133340 0.635550 -6.798010 0.131461 -0.364630 -0.112118
 25 3.689260 -4.550930 -4.829990 0.000000 0.000000 0.000000
 26 3.087020 -2.930260 -1.806420 0.000000 0.000000 0.000000
 27 10.169240 0.711430 -6.708540 -0.103451 0.399173 0.072758
 28 2.770930 0.042420 -2.816470 0.000000 0.000000 0.000000
 29 -0.013158 -33.186481 75.770348 1.570802 -0.000018 -0.000537
time 34
  0 9.118213 -9.118213 39.499836 0.120646 0.000000 -0.000048
  1 9.062670 0.286610 -3.406700 0.322748 0.141645 0.143707
  2 4.544490 -1.638600 -20.622749 0.466791 0.018948 0.105452
  3 3.070910 1.647970 -15.136740 -0.895841 -0.265659 -0.088265
  4 -0.361640 -14.308061 -6.406600 0.000000 0.000000 0.000000
  5 -9.522449 0.590440 -3.372560 -0.754020 0.265478 -0.034497
  6 -4.141180 -1.081730 -20.790251 0.270329 0.026052 -0.051749
  7 -3.014440 0.974200 -14.527950 0.349621 -0.262095 -0.037654
  8 0.361640 -14.494990 -6.882030 0.000000 0.000000 0.000000
  9 0.013460 -1.507020 5.475230 0.209047 0.000000 0.000000
 10 -0.004780 1.092750 22.735540 0.188831 0.000000 0.000000
 11 -0.976790 -3.346690 20.865768 -0.675909 -0.041179 -0.072277
 12 0.975190 -4.916450 -4.520320 0.901006 0.000000 0.000000
 13 -2.406500 -8.600220 4.877150 0.000000 0.346115 0.000000
 14 4.381730 -8.600220 5.272540 0.000000 -0.365158 0.000000
 15 -18.388140 0.440630 8.679390 -1.742541 0.493623 0.827891
 16 -21.955891 -0.759690 -12.109390 -0.747369 -0.395029 0.290788
 17 -13.311041 1.530050 -7.133010 0.119800 0.307973 0.164695
 18 -9.635210 -0.302230 -6.530870 -0.097087 -0.526408 -0.215423
 19 -3.126290 0.042420 -2.638810 0.000000 0.000000 0.000000
 20 -2.839340 -5.564580 -4.296970 0.000000 0.000000 0.000000
 21 -3.811070 -2.785450 -1.806430 0.000000 0.000000 0.000000
 22 18.455151 0.440630 8.679390 -1.440956 -0.509337 -0.897724
 23 21.943432 -0.878860 -11.911369 -0.796529 0.240291 -0.370642
 24 13.133340 0.635550 -6.798010 0.131461 -0.364630 -0.112118
 25 3.689260 -4.550930 -4.829990 0.000000 0.000000 0.000000
 26 3.087020 -2.930260 -1.806420 0.000000 0.000000 0.000000
 27 10.169240 0.711430 -6.708540 -0.103451 0.399173 0.072758
 28 2.770930 0.042420 -2.816470 0.000000 0.000000 0.000000
 29 -0.013158 -59.796669 76.697884 1.570802 -0.000018 -0.000537
time 35
  0 7.864268 -7.864269 39.499836 0.120646 0.000000 -0.000048
  1 9.062670 0.286610 -3.406700 0.486227 0.076751 0.157220
  2 4.544490 -1.638600 -20.622749 0.455201 0.019079 0.102780
  3 3.070910 1.647970 -15.136740 -0.640425 -0.234044 -0.116504
  4 -0.361640 -14.308061 -6.406600 0.000000 0.000000 0.000000
  5 -9.522449 0.590440 -3.372560 -0.778821 0.273503 0.035399
  6 -4.141180 -1.081730 -20.790251 0.800801 0.112500 -0.125287
  7 -3.014440 0.974200 -14.527950 -0.160932 -0.262074 0.138928
  8 0.361640 -14.494990 -6.882030 0.000000 0.000000 0.000000
  9 0.013460 -1.507020 5.475230 0.209047 0.000000 0.000000
 10 -0.004780 1.092750 22.735540 0.188831 0.000000 0.000000
 11 -0.976790 -3.346690 20.865768 -0.688271 -0.036625 -0.064243
 12 0.975190 -4.916450 -4.520320 0.901006 0.000000 0.000000
 13 -2.406500 -8.600220 4.877150 0.000000 0.346115 0.000000
 14 4.381730 -8.600220 5.272540 0.000000 -0.365158 0.000000
 15 -18.388140 0.440630 8.679390 -1.535991 0.246926 0.872857
 16 -21.955891 -0.759690 -12.109390 -0.756534 -0.388796 0.307430
 17 -13.311041 1.530050 -7.133010 0.119800 0.307973 0.164695
 18 -9.635210 -0.302230 -6.530870 -0.097087 -0.526408 -0.215423
 19 -3.126290 0.042420 -2.638810 0.000000 0.000000 0.000000
 20 -2.839340 -5.564580 -4.296970 0.000000 0.000000 0.000000
 21 -3.811070 -2.785450 -1.806430 0.000000 0.000000 0.000000
 22 18.455151 0.440630 8.679390 -1.251263 -0.250156 -0.940186
 23 21.943432 -0.878860 -11.911369 -0.804455 0.230432 -0.384397
 24 13.133340 0.635550 -6.798010 0.131461 -0.364630 -0.112118
 25 3.689260 -4.550930 -4.829990 0.000000 0.000000 0.000000
 26 3.087020 -2.930260 -1.806420 0.000000 0.000000 0.000000
 27 10.169240 0.711430 -6.708540 -0.103451 0.399173 0.072758
 28 2.770930 0.042420 -2.816470 0.000000 0.000000 0.000000
 29 -0.013158 -86.410759 77.550323 1.570802 -0.000018 -0.000537
time 36
  0 5.411068 -5.411068 39.499836 0.120646 0.000000 -0.000048
  1 9.062670 0.286610 -3.406700 0.538311 -0.011593 0.087017
  2 4.544490 -1.638600 -20.622749 0.798340 0.002145 0.180056
  3 3.070910 1.647970 -15.136740 -0.280326 -0.211698 -0.157657
  4 -0.361640 -14.308061 -6.406600 0.000000 0.000000 0.000000
  5 -9.522449 0.590440 -3.372560 -0.681952 0.209898 0.091993
  6 -4.141180 -1.081730 -20.790251 1.074695 0.168900 -0.143024
  7 -3.014440 0.974200 -14.527950 -0.531281 -0.182685 0.212137
  8 0.361640 -14.494990 -6.882030 0.000000 0.000000 0.000000
  9 0.013460 -1.507020 5.475230 0.209047 0.000000 0.000000
 10 -0.004780 1.092750 22.735540 0.188831 0.000000 0.000000
 11 -0.976790 -3.346690 20.865768 -0.702989 -0.023058 -0.040413
 12 0.975190 -4.916450 -4.520320 0.901006 0.000000 0.000000
 13 -2.406500 -8.600220 4.877150 0.000000 0.346115 0.000000
 14 4.381730 -8.600220 5.272540 0.000000 -0.365158 0.000000
 15 -18.388140 0.440630 8.679390 -1.299855 -0.066358 0.895892
 16 -21.955891 -0.759690 -12.109390 -0.773629 -0.377215 0.338337
 17 -13.311041 1.530050 -7.133010 0.119800 0.307973 0.164695
 18 -9.635210 -0.302230 -6.530870 -0.097087 -0.526408 -0.215423
 19 -3.126290 0.042420 -2.638810 0.000000 0.000000 0.000000
 20 -2.839340 -5.564580 -4.296970 0.000000 0.000000 0.000000
 21 -3.811070 -2.785450 -1.806430 0.000000 0.000000 0.000000
 22 18.455151 0.440630 8.679390 -1.036812 0.077674 -0.959687
 23 21.943432 -0.878860 -11.911369 -0.814602 0.212178 -0.409968
 24 13.133340 0.635550 -6.798010 0.131461 -0.364630 -0.112118
 25 3.689260 -4.550930 -4.829990 0.000000 0.000000 0.000000
 26 3.087020 -2.930260 -1.806420 0.000000 0.000000 0.000000
 27 10.169240 0.711430 -6.708540 -0.103451 0.399173 0.072758
 28 2.770930 0.042420 -2.816470 0.000000 0.000000 0.000000
 29 -0.013158 5.486575 -88.199303 1.570802 -0.000018 -0.000537
time 37
  0 3.727423 -3.727423 39.499836 0.120646 0.000000 -0.000048
  1 9.062670 0.286610 -3.406700 0.525940 -0.057526 0.011209
  2 4.544490 -1.638600 -20.622749 1.053105 -0.026977 0.231566
  3 3.070910 1.647970 -15.136740 -0.108034 -0.198330 -0.197953
  4 -0.361640 -14.308061 -6.406600 0.000000 0.000000 0.000000
  5 -9.522449 0.590440 -3.372560 -0.622055 0.150117 0.108570
  6 -4.141180 -1.081730 -20.790251 1.160609 0.187272 -0.145313
  7 -3.014440 0.974200 -14.527950 -0.678157 -0.124992 0.213432
  8 0.361640 -14.494990 -6.882030 0.000000 0.000000 0.000000
  9 0.013460 -1.507020 5.475230 0.209047 0.000000 0.000000
 10 -0.004780 1.092750 22.735540 0.188831 0.000000 0.000000
 11 -0.976790 -3.346690 20.865768 -0.710493 -0.012021 -0.021071
 12 0.975190 -4.916450 -4.520320 0.901006 0.000000 0.000000
 13 -2.406500 -8.600220 4.877150 0.000000 0.346115 0.000000
 14 4.381730 -8.600220 5.272540 0.000000 -0.365158 0.000000
 15 -18.388140 0.440630 8.679390 -1.117430 -0.279663 0.902382
 16 -21.955891 -0.759690 -12.109390 -0.782858 -0.370982 0.354979
 17 -13.311041 1.530050 -7.133010 0.119800 0.307973 0.164695
 18 -9.635210 -0.302230 -6.530870 -0.097087 -0.526408 -0.215423
 19 -3.126290 0.042420 -2.638810 0.000000 0.000000 0.000000
 20 -2.839340 -5.564580 -4.296970 0.000000 0.000000 0.000000
 21 -3.811070 -2.785450 -1.806430 0.000000 0.000000 0.000000
 22 18.455151 0.440630 8.679390 -0.867246 0.301228 -0.964392
 23 21.943432 -0.878860 -11.911369 -0.819654 0.202346 -0.423723
 24 13.133340 0.635550 -6.798010 0.131461 -0.364630 -0.112118
 25 3.689260 -4.550930 -4.829990 0.000000 0.000000 0.000000
 26 3.087020 -2.930260 -1.806420 0.000000 0.000000 0.000000
 27 10.169240 0.711430 -6.708540 -0.103451 0.399173 0.072758
 28 2.770930 0.042420 -2.816470 0.000000 0.000000 0.000000
 29 -0.013158 5.486575 -88.199303 1.570802 -0.000018 -0.000537
time 38
  0 3.118029 -3.118030 39.632652 0.115807 0.000000 -0.000048
  1 9.062670 0.286610 -3.406700 0.388763 -0.077145 -0.033366
  2 4.544490 -1.638600 -20.622749 1.250353 -0.058077 0.265602
  3 3.070910 1.647970 -15.136740 -0.200475 -0.204136 -0.220720
  4 -0.361640 -14.308061 -6.406600 0.000000 0.000000 0.000000
  5 -9.522449 0.590440 -3.372560 -0.621600 0.128556 0.112121
  6 -4.141180 -1.081730 -20.790251 1.167665 0.188784 -0.145421
  7 -3.014440 0.974200 -14.527950 -0.681542 -0.107488 0.201590
  8 0.361640 -14.494990 -6.882030 0.000000 0.000000 0.000000
  9 0.013460 -1.507020 5.475230 0.205436 0.000000 0.000000
 10 -0.004780 1.092750 22.735540 0.188831 0.000000 0.000000
 11 -0.976790 -3.346690 20.865768 -0.696990 -0.007538 -0.013491
 12 0.975190 -4.916450 -4.520320 0.874996 -0.001953 0.000851
 13 -2.406500 -8.600220 4.877150 0.000000 0.346115 0.000000
 14 4.381730 -8.600220 5.272540 0.000000 -0.365158 0.000000
 15 -18.388140 0.440630 8.679390 -0.984983 -0.384547 0.884268
 16 -21.955891 -0.759690 -12.109390 -0.782858 -0.370982 0.354979
 17 -13.311041 1.530050 -7.133010 0.119800 0.307973 0.164695
 18 -9.635210 -0.302230 -6.530870 -0.097087 -0.526408 -0.215423
 19 -3.126290 0.042420 -2.638810 0.000000 0.000000 0.000000
 20 -2.839340 -5.564580 -4.296970 0.000000 0.000000 0.000000
 21 -3.811070 -2.785450 -1.806430 0.000000 0.000000 0.000000
 22 18.455151 0.440630 8.679390 -0.737815 0.412103 -0.945091
 23 21.943432 -0.878860 -11.911369 -0.819654 0.202346 -0.423723
 24 13.133340 0.635550 -6.798010 0.131461 -0.364630 -0.112118
 25 3.689260 -4.550930 -4.829990 0.000000 0.000000 0.000000
 26 3.087020 -2.930260 -1.806420 0.000000 0.000000 0.000000
 27 10.169240 0.711430 -6.708540 -0.103451 0.399173 0.072758
 28 2.770930 0.042420 -2.816470 0.000000 0.000000 0.000000
 29 -0.013158 5.486575 -88.199303 1.570802 -0.000018 -0.000537
time 39
  0 2.590670 -2.590670 39.995945 0.102684 0.000000 -0.000048
  1 9.062670 0.286610 -3.406700 0.234277 -0.102407 -0.068069
  2 4.544490 -1.638600 -20.622749 1.393274 -0.084551 0.286204
  3 3.070910 1.647970 -15.136740 -0.287795 -0.202428 -0.242467
  4 -0.361640 -14.308061 -6.406600 0.000000 0.000000 0.000000
  5 -9.522449 0.590440 -3.372560 -0.603967 0.105326 0.113059
  6 -4.141180 -1.081730 -20.790251 1.152170 0.185460 -0.145157
  7 -3.014440 0.974200 -14.527950 -0.671903 -0.090806 0.186818
  8 0.361640 -14.494990 -6.882030 0.000000 0.000000 0.000000
  9 0.013460 -1.507020 5.475230 0.195632 0.000000 0.000000
 10 -0.004780 1.092750 22.735540 0.188831 0.000000 0.000000
 11 -0.976790 -3.346690 20.865768 -0.660511 -0.003619 -0.006821
 12 0.975190 -4.916450 -4.520320 0.804471 -0.007275 0.003164
 13 -2.406500 -8.600220 4.877150 0.000000 0.346115 0.000000
 14 4.381730 -8.600220 5.272540 0.000000 -0.365158 0.000000
 15 -18.388140 0.440630 8.679390 -0.846316 -0.482901 0.835187
 16 -21.955891 -0.759690 -12.109390 -0.782858 -0.370982 0.354979
 17 -13.311041 1.530050 -7.133010 0.119800 0.307973 0.164695
 18 -9.635210 -0.302230 -6.530870 -0.097087 -0.526408 -0.215423
 19 -3.126290 0.042420 -2.638810 0.000000 0.000000 0.000000
 20 -2.839340 -5.564580 -4.296970 0.000000 0.000000 0.000000
 21 -3.811070 -2.785450 -1.806430 0.000000 0.000000 0.000000
 22 18.455151 0.440630 8.679390 -0.600784 0.516349 -0.892778
 23 21.943432 -0.878860 -11.911369 -0.819654 0.202346 -0.423723
 24 13.133340 0.635550 -6.798010 0.131461 -0.364630 -0.112118
 25 3.689260 -4.550930 -4.829990 0.000000 0.000000 0.000000
 26 3.087020 -2.930260 -1.806420 0.000000 0.000000 0.000000
 27 10.169240 0.711430 -6.708540 -0.103451 0.399173 0.072758
 28 2.770930 0.042420 -2.816470 0.000000 0.000000 0.000000
 29 -0.013158 5.486575 -88.199303 1.570802 -0.000018 -0.000537
time 40
  0 2.129718 -2.129718 40.527214 0.083326 0.000000 -0.000048
  1 9.062670 0.286610 -3.406700 0.068770 -0.128049 -0.088383
  2 4.544490 -1.638600 -20.622749 1.470710 -0.100059 0.295744
  3 3.070910 1.647970 -15.136740 -0.350975 -0.189231 -0.256378
  4 -0.361640 -14.308061 -6.406600 0.000000 0.000000 0.000000
  5 -9.522449 0.590440 -3.372560 -0.572739 0.081844 0.111127
  6 -4.141180 -1.081730 -20.790251 1.118561 0.178260 -0.144390
  7 -3.014440 0.974200 -14.527950 -0.651787 -0.075029 0.170958
  8 0.361640 -14.494990 -6.882030 0.000000 0.000000 0.000000
  9 0.013460 -1.507020 5.475230 0.181190 0.000000 0.000000
 10 -0.004780 1.092750 22.735540 0.188831 0.000000 0.000000
 11 -0.976790 -3.346690 20.865768 -0.607735 -0.000539 -0.001091
 12 0.975190 -4.916450 -4.520320 0.700528 -0.015125 0.006568
 13 -2.406500 -8.600220 4.877150 0.000000 0.346115 0.000000
 14 4.381730 -8.600220 5.272540 0.000000 -0.365158 0.000000
 15 -18.388140 0.440630 8.679390 -0.706058 -0.573698 0.762774
 16 -21.955891 -0.759690 -12.109390 -0.782858 -0.370982 0.354979
 17 -13.311041 1.530050 -7.133010 0.119800 0.307973 0.164695
 18 -9.635210 -0.302230 -6.530870 -0.097087 -0.526408 -0.215423
 19 -3.126290 0.042420 -2.638810 0.000000 0.000000 0.000000
 20 -2.839340 -5.564580 -4.296970 0.000000 0.000000 0.000000
 21 -3.811070 -2.785450 -1.806430 0.000000 0.000000 0.000000
 22 18.455151 0.440630 8.679390 -0.461082 0.612814 -0.815656
 23 21.943432 -0.878860 -11.911369 -0.819654 0.202346 -0.423723
 24 13.133340 0.635550 -6.798010 0.131461 -0.364630 -0.112118
 25 3.689260 -4.550930 -4.829990 0.000000 0.000000 0.000000
 26 3.087020 -2.930260 -1.806420 0.000000 0.000000 0.000000
 27 10.169240 0.711430 -6.708540 -0.103451 0.399173 0.072758
 28 2.770930 0.042420 -2.816470 0.000000 0.000000 0.000000
 29 -0.013158 5.486575 -88.199303 1.570802 -0.000018 -0.000537
time 41
  0 1.739081 -1.739081 41.175671 0.059816 0.000000 -0.000048
  1 9.062670 0.286610 -3.406700 -0.089563 -0.145402 -0.092959
  2 4.544490 -1.638600 -20.622749 1.472521 -0.100431 0.295947
  3 3.070910 1.647970 -15.136740 -0.384355 -0.163567 -0.255590
  4 -0.361640 -14.308061 -6.406600 0.000000 0.000000 0.000000
  5 -9.522449 0.590440 -3.372560 -0.531330 0.059494 0.106343
  6 -4.141180 -1.081730 -20.790251 1.070839 0.168084 -0.142880
  7 -3.014440 0.974200 -14.527950 -0.623611 -0.060347 0.155384
  8 0.361640 -14.494990 -6.882030 0.000000 0.000000 0.000000
  9 0.013460 -1.507020 5.475230 0.163651 0.000000 0.000000
 10 -0.004780 1.092750 22.735540 0.188831 0.000000 0.000000
 11 -0.976790 -3.346690 20.865768 -0.545293 0.001618 0.003699
 12 0.975190 -4.916450 -4.520320 0.574328 -0.024652 0.010714
 13 -2.406500 -8.600220 4.877150 0.000000 0.346115 0.000000
 14 4.381730 -8.600220 5.272540 0.000000 -0.365158 0.000000
 15 -18.388140 0.440630 8.679390 -0.569118 -0.655854 0.674878
 16 -21.955891 -0.759690 -12.109390 -0.782858 -0.370982 0.354979
 17 -13.311041 1.530050 -7.133010 0.119800 0.307973 0.164695
 18 -9.635210 -0.302230 -6.530870 -0.097087 -0.526408 -0.215423
 19 -3.126290 0.042420 -2.638810 0.000000 0.000000 0.000000
 20 -2.839340 -5.564580 -4.296970 0.000000 0.000000 0.000000
 21 -3.811070 -2.785450 -1.806430 0.000000 0.000000 0.000000
 22 18.455151 0.440630 8.679390 -0.323755 0.700312 -0.722048
 23 21.943432 -0.878860 -11.911369 -0.819654 0.202346 -0.423723
 24 13.133340 0.635550 -6.798010 0.131461 -0.364630 -0.112118
 25 3.689260 -4.550930 -4.829990 0.000000 0.000000 0.000000
 26 3.087020 -2.930260 -1.806420 0.000000 0.000000 0.000000
 27 10.169240 0.711430 -6.708540 -0.103451 0.399173 0.072758
 28 2.770930 0.042420 -2.816470 0.000000 0.000000 0.000000
 29 -0.013158 5.486575 -88.199303 1.570802 -0.000018 -0.000537
time 42
  0 1.418759 -1.418759 41.878815 0.034241 0.000000 -0.000048
  1 9.062670 0.286610 -3.406700 -0.215252 -0.147332 -0.088307
  2 4.544490 -1.638600 -20.622749 1.399359 -0.085750 0.286995
  3 3.070910 1.647970 -15.136740 -0.397523 -0.128853 -0.236810
  4 -0.361640 -14.308061 -6.406600 0.000000 0.000000 0.000000
  5 -9.522449 0.590440 -3.372560 -0.483492 0.039369 0.098763
  6 -4.141180 -1.081730 -20.790251 1.013296 0.155892 -0.140411
  7 -3.014440 0.974200 -14.527950 -0.589632 -0.046846 0.141286
  8 0.361640 -14.494990 -6.882030 0.000000 0.000000 0.000000
  9 0.013460 -1.507020 5.475230 0.144572 0.000000 0.000000
 10 -0.004780 1.092750 22.735540 0.188831 0.000000 0.000000
 11 -0.976790 -3.346690 20.865768 -0.479305 0.002936 0.007640
 12 0.975190 -4.916450 -4.520320 0.437000 -0.035019 0.015220
 13 -2.406500 -8.600220 4.877150 0.000000 0.346115 0.000000
 14 4.381730 -8.600220 5.272540 0.000000 -0.365158 0.000000
 15 -18.388140 0.440630 8.679390 -0.440128 -0.728286 0.579260
 16 -21.955891 -0.759690 -12.109390 -0.782858 -0.370982 0.354979
 17 -13.311041 1.530050 -7.133010 0.119800 0.307973 0.164695
 18 -9.635210 -0.302230 -6.530870 -0.097087 -0.526408 -0.215423
 19 -3.126290 0.042420 -2.638810 0.000000 0.000000 0.000000
 20 -2.839340 -5.564580 -4.296970 0.000000 0.000000 0.000000
 21 -3.811070 -2.785450 -1.806430 0.000000 0.000000 0.000000
 22 18.455151 0.440630 8.679390 -0.193790 0.777602 -0.620156
 23 21.943432 -0.878860 -11.911369 -0.819654 0.202346 -0.423723
 24 13.133340 0.635550 -6.798010 0.131461 -0.364630 -0.112118
 25 3.689260 -4.550930 -4.829990 0.000000 0.000000 0.000000
 26 3.087020 -2.930260 -1.806420 0.000000 0.000000 0.000000
 27 10.169240 0.711430 -6.708540 -0.103451 0.399173 0.072758
 28 2.770930 0.042420 -2.816470 0.000000 0.000000 0.000000
 29 -0.013158 5.486575 -88.199303 1.570802 -0.000018 -0.000537
time 43
  0 1.160938 -1.160938 42.581963 0.008665 0.000000 -0.000048
  1 9.062670 0.286610 -3.406700 -0.290468 -0.135417 -0.080598
  2 4.544490 -1.638600 -20.622749 1.264696 -0.060594 0.267832
  3 3.070910 1.647970 -15.136740 -0.401527 -0.093188 -0.204978
  4 -0.361640 -14.308061 -6.406600 0.000000 0.000000 0.000000
  5 -9.522449 0.590440 -3.372560 -0.432754 0.022404 0.090171
  6 -4.141180 -1.081730 -20.790251 0.950442 0.142764 -0.136912
  7 -3.014440 0.974200 -14.527950 -0.552816 -0.035387 0.128485
  8 0.361640 -14.494990 -6.882030 0.000000 0.000000 0.000000
  9 0.013460 -1.507020 5.475230 0.125476 0.000000 0.000000
 10 -0.004780 1.092750 22.735540 0.188831 0.000000 0.000000
 11 -0.976790 -3.346690 20.865768 -0.415357 0.003583 0.010702
 12 0.975190 -4.916450 -4.520320 0.299638 -0.045386 0.019727
 13 -2.406500 -8.600220 4.877150 0.000000 0.346115 0.000000
 14 4.381730 -8.600220 5.272540 0.000000 -0.365170 0.000000
 15 -18.388140 0.440630 8.679390 -0.323927 -0.789939 0.483601
 16 -21.955891 -0.759690 -12.109390 -0.782858 -0.370982 0.354979
 17 -13.311041 1.530050 -7.133010 0.119800 0.307973 0.164695
 18 -9.635210 -0.302230 -6.530870 -0.097087 -0.526408 -0.215423
 19 -3.126290 0.042420 -2.638810 0.000000 0.000000 0.000000
 20 -2.839340 -5.564580 -4.296970 0.000000 0.000000 0.000000
 21 -3.811070 -2.785450 -1.806430 0.000000 0.000000 0.000000
 22 18.455151 0.440630 8.679390 -0.076234 0.843529 -0.518264
 23 21.943432 -0.878860 -11.911369 -0.819654 0.202346 -0.423723
 24 13.133340 0.635550 -6.798010 0.131461 -0.364630 -0.112118
 25 3.689260 -4.550930 -4.829990 0.000000 0.000000 0.000000
 26 3.087020 -2.930260 -1.806420 0.000000 0.000000 0.000000
 27 10.169240 0.711430 -6.708540 -0.103451 0.399173 0.072758
 28 2.770930 0.042420 -2.816470 0.000000 0.000000 0.000000
 29 -0.013158 5.486575 -88.199303 1.570802 -0.000018 -0.000537
time 44
  0 0.961713 -0.961714 43.226513 -0.014825 0.000000 -0.000048
  1 9.062670 0.286610 -3.406700 -0.314275 -0.115725 -0.072706
  2 4.544490 -1.638600 -20.622749 1.090555 -0.032346 0.238469
  3 3.070910 1.647970 -15.136740 -0.399871 -0.062402 -0.167719
  4 -0.361640 -14.308061 -6.406600 0.000000 0.000000 0.000000
  5 -9.522449 0.590440 -3.372560 -0.383836 0.009048 0.080659
  6 -4.141180 -1.081730 -20.790251 0.887953 0.129924 -0.132610
  7 -3.014440 0.974200 -14.527950 -0.516162 -0.025761 0.118170
  8 0.361640 -14.494990 -6.882030 0.000000 0.000000 0.000000
  9 0.013460 -1.507020 5.475230 0.107937 0.000000 0.000000
 10 -0.004780 1.092750 22.735540 0.188831 0.000000 0.000000
 11 -0.976790 -3.346690 20.865768 -0.358331 0.003751 0.012946
 12 0.975190 -4.916450 -4.520320 0.173438 -0.054913 0.023861
 13 -2.406500 -8.600220 4.877150 0.000000 0.346115 0.000000
 14 4.381730 -8.600220 5.272540 0.000000 -0.365158 0.000000
 15 -18.388140 0.440630 8.679390 -0.225283 -0.839758 0.395704
 16 -21.955891 -0.759690 -12.109390 -0.782858 -0.370982 0.354979
 17 -13.311041 1.530050 -7.133010 0.119800 0.307973 0.164695
 18 -9.635210 -0.302230 -6.530870 -0.097087 -0.526408 -0.215423
 19 -3.126290 0.042420 -2.638810 0.000000 0.000000 0.000000
 20 -2.839340 -5.564580 -4.296970 0.000000 0.000000 0.000000
 21 -3.811070 -2.785450 -1.806430 0.000000 0.000000 0.000000
 22 18.455151 0.440630 8.679390 0.023868 0.896880 -0.424616
 23 21.943432 -0.878860 -11.911369 -0.819654 0.202346 -0.423723
 24 13.133340 0.635550 -6.798010 0.131461 -0.364630 -0.112118
 25 3.689260 -4.550930 -4.829990 0.000000 0.000000 0.000000
 26 3.087020 -2.930260 -1.806420 0.000000 0.000000 0.000000
 27 10.169240 0.711430 -6.708540 -0.103451 0.399173 0.072758
 28 2.770930 0.042420 -2.816470 0.000000 0.000000 0.000000
 29 -0.013158 5.486575 -88.199303 1.570802 -0.000018 -0.000537
time 45
  0 0.824991 -0.824991 43.757778 -0.034183 0.000000 -0.000048
  1 9.062670 0.286610 -3.406700 -0.300344 -0.094835 -0.063815
  2 4.544490 -1.638600 -20.622749 0.905766 -0.008497 0.202635
  3 3.070910 1.647970 -15.136740 -0.390246 -0.039544 -0.132965
  4 -0.361640 -14.308061 -6.406600 0.000000 0.000000 0.000000
  5 -9.522449 0.590440 -3.372560 -0.341687 -0.000449 0.071957
  6 -4.141180 -1.081730 -20.790251 0.832592 0.118788 -0.128139
  7 -3.014440 0.974200 -14.527950 -0.483698 -0.018494 0.110344
  8 0.361640 -14.494990 -6.882030 0.000000 0.000000 0.000000
  9 0.013460 -1.507020 5.475230 0.093495 0.000000 0.000000
 10 -0.004780 1.092750 22.735540 0.188831 0.000000 0.000000
 11 -0.976790 -3.346690 20.865768 -0.312526 0.003655 0.014431
 12 0.975190 -4.916450 -4.520320 0.069495 -0.062751 0.027277
 13 -2.406500 -8.600220 4.877150 0.000000 0.346115 0.000000
 14 4.381730 -8.600220 5.272540 0.000000 -0.365158 0.000000
 15 -18.388140 0.440630 8.679390 -0.148968 -0.876658 0.323291
 16 -21.955891 -0.759690 -12.109390 -0.782858 -0.370982 0.354979
 17 -13.311041 1.530050 -7.133010 0.119800 0.307973 0.164695
 18 -9.635210 -0.302230 -6.530870 -0.097087 -0.526408 -0.215423
 19 -3.126290 0.042420 -2.638810 0.000000 0.000000 0.000000
 20 -2.839340 -5.564580 -4.296970 0.000000 0.000000 0.000000
 21 -3.811070 -2.785450 -1.806430 0.000000 0.000000 0.000000
 22 18.455151 0.440630 8.679390 0.101585 0.936471 -0.347533
 23 21.943432 -0.878860 -11.911369 -0.819654 0.202346 -0.423723
 24 13.133340 0.635550 -6.798010 0.131461 -0.364630 -0.112118
 25 3.689260 -4.550930 -4.829990 0.000000 0.000000 0.000000
 26 3.087020 -2.930260 -1.806420 0.000000 0.000000 0.000000
 27 10.169240 0.711430 -6.708540 -0.103451 0.399173 0.072758
 28 2.770930 0.042420 -2.816470 0.000000 0.000000 0.000000
 29 -0.013158 5.486575 -88.199303 1.570802 -0.000018 -0.000537
time 46
  0 0.746863 -0.746863 44.121071 -0.047325 0.000000 -0.000048
  1 9.062670 0.286610 -3.406700 -0.270871 -0.078330 -0.056015
  2 4.544490 -1.638600 -20.622749 0.751328 0.006016 0.169870
  3 3.070910 1.647970 -15.136740 -0.374615 -0.024810 -0.106349
  4 -0.361640 -14.308061 -6.406600 0.000000 0.000000 0.000000
  5 -9.522449 0.590440 -3.372560 -0.311995 -0.006104 0.065628
  6 -4.141180 -1.081730 -20.790251 0.792799 0.110940 -0.124544
  7 -3.014440 0.974200 -14.527950 -0.460358 -0.013902 0.105317
  8 0.361640 -14.494990 -6.882030 0.000000 0.000000 0.000000
  9 0.013460 -1.507020 5.475230 0.083691 0.000000 0.000000
 10 -0.004780 1.092750 22.735540 0.188831 0.000000 0.000000
 11 -0.976790 -3.346690 20.865768 -0.282045 0.003500 0.015280
 12 0.975190 -4.916450 -4.520320 -0.000997 -0.068072 0.029590
 13 -2.406500 -8.600220 4.877150 0.000000 0.346115 0.000000
 14 4.381730 -8.600220 5.272540 0.000000 -0.365158 0.000000
 15 -18.388140 0.440630 8.679390 -0.099611 -0.899586 0.274210
 16 -21.955891 -0.759690 -12.109390 -0.782858 -0.370982 0.354979
 17 -13.311041 1.530050 -7.133010 0.119800 0.307973 0.164695
 18 -9.635210 -0.302230 -6.530870 -0.097087 -0.526408 -0.215423
 19 -3.126290 0.042420 -2.638810 0.000000 0.000000 0.000000
 20 -2.839340 -5.564580 -4.296970 0.000000 0.000000 0.000000
 21 -3.811070 -2.785450 -1.806430 0.000000 0.000000 0.000000
 22 18.455151 0.440630 8.679390 0.151933 0.961091 -0.295180
 23 21.943432 -0.878860 -11.911369 -0.819654 0.202346 -0.423723
 24 13.133340 0.635550 -6.798010 0.131461 -0.364630 -0.112118
 25 3.689260 -4.550930 -4.829990 0.000000 0.000000 0.000000
 26 3.087020 -2.930260 -1.806420 0.000000 0.000000 0.000000
 27 10.169240 0.711430 -6.708540 -0.103451 0.399173 0.072758
 28 2.770930 0.042420 -2.816470 0.000000 0.000000 0.000000
 29 -0.013158 5.486575 -88.199303 1.570802 -0.000018 -0.000537
time 47
  0 0.719519 -0.719519 44.253887 -0.052145 0.000000 -0.000048
  1 9.062670 0.286610 -3.406700 -0.254965 -0.071722 -0.052437
  2 4.544490 -1.638600 -20.622749 0.686278 0.010594 0.155488
  3 3.070910 1.647970 -15.136740 -0.365682 -0.019491 -0.095730
  4 -0.361640 -14.308061 -6.406600 0.000000 0.000000 0.000000
  5 -9.522449 0.590440 -3.372560 -0.300789 -0.008007 0.063217
  6 -4.141180 -1.081730 -20.790251 0.777595 0.107976 -0.123082
  7 -3.014440 0.974200 -14.527950 -0.451428 -0.012322 0.103529
  8 0.361640 -14.494990 -6.882030 0.000000 0.000000 0.000000
  9 0.013460 -1.507020 5.475230 0.080080 0.000000 0.000000
 10 -0.004780 1.092750 22.735540 0.188831 0.000000 0.000000
 11 -0.976790 -3.346690 20.865768 -0.270946 0.003428 0.015553
 12 0.975190 -4.916450 -4.520320 -0.026974 -0.070038 0.030441
 13 -2.406500 -8.600220 4.877150 0.000000 0.346115 0.000000
 14 4.381730 -8.600220 5.272540 0.000000 -0.365158 0.000000
 15 -18.388140 0.440630 8.679390 -0.082122 -0.907456 0.256096
 16 -21.955891 -0.759690 -12.109390 -0.782858 -0.370982 0.354979
 17 -13.311041 1.530050 -7.133010 0.119800 0.307973 0.164695
 18 -9.635210 -0.302230 -6.530870 -0.097087 -0.526408 -0.215423
 19 -3.126290 0.042420 -2.638810 0.000000 0.000000 0.000000
 20 -2.839340 -5.564580 -4.296970 0.000000 0.000000 0.000000
 21 -3.811070 -2.785450 -1.806430 0.000000 0.000000 0.000000
 22 18.455151 0.440630 8.679390 0.169804 0.969583 -0.275920
 23 21.943432 -0.878860 -11.911369 -0.819654 0.202346 -0.423723
 24 13.133340 0.635550 -6.798010 0.131461 -0.364630 -0.112118
 25 3.689260 -4.550930 -4.829990 0.000000 0.000000 0.000000
 26 3.087020 -2.930260 -1.806420 0.000000 0.000000 0.000000
 27 10.169240 0.711430 -6.708540 -0.103451 0.399173 0.072758
 28 2.770930 0.042420 -2.816470 0.000000 0.000000 0.000000
 29 -0.013158 5.486575 -88.199303 1.570802 -0.000018 -0.000537
time 48
  0 0.719519 -0.719519 44.253887 -0.052145 0.000000 -0.000048
  1 9.062670 0.286610 -3.406700 -0.254965 -0.071722 -0.052437
  2 4.544490 -1.638600 -20.622749 0.686278 0.010594 0.155488
  3 3.070910 1.647970 -15.136740 -0.365682 -0.019491 -0.095730
  4 -0.361640 -14.308061 -6.406600 0.000000 0.000000 0.000000
  5 -9.522449 0.590440 -3.372560 -0.300789 -0.008007 0.063217
  6 -4.141180 -1.081730 -20.790251 0.777595 0.107976 -0.123082
  7 -3.014440 0.974200 -14.527950 -0.451428 -0.012322 0.103529
  8 0.361640 -14.494990 -6.882030 0.000000 0.000000 0.000000
  9 0.013460 -1.507020 5.475230 0.080080 0.000000 0.000000
 10 -0.004780 1.092750 22.735540 0.188831 0.000000 0.000000
 11 -0.976790 -3.346690 20.865768 -0.270946 0.003428 0.015553
 12 0.975190 -4.916450 -4.520320 -0.026974 -0.070038 0.030441
 13 -2.406500 -8.600220 4.877150 0.000000 0.346115 0.000000
 14 4.381730 -8.600220 5.272540 0.000000 -0.365158 0.000000
 15 -18.388140 0.440630 8.679390 -0.082122 -0.907456 0.256096
 16 -21.955891 -0.759690 -12.109390 -0.782858 -0.370982 0.354979
 17 -13.311041 1.530050 -7.133010 0.119800 0.307973 0.164695
 18 -9.635210 -0.302230 -6.530870 -0.097087 -0.526408 -0.215423
 19 -3.126290 0.042420 -2.638810 0.000000 0.000000 0.000000
 20 -2.839340 -5.564580 -4.296970 0.000000 0.000000 0.000000
 21 -3.811070 -2.785450 -1.806430 0.000000 0.000000 0.000000
 22 18.455151 0.440630 8.679390 0.169804 0.969583 -0.275920
 23 21.943432 -0.878860 -11.911369 -0.819654 0.202346 -0.423723
 24 13.133340 0.635550 -6.798010 0.131461 -0.364630 -0.112118
 25 3.689260 -4.550930 -4.829990 0.000000 0.000000 0.000000
 26 3.087020 -2.930260 -1.806420 0.000000 0.000000 0.000000
 27 10.169240 0.711430 -6.708540 -0.103451 0.399173 0.072758
 28 2.770930 0.042420 -2.816470 0.000000 0.000000 0.000000
 29 -0.013158 5.486575 -88.199303 1.570802 -0.000018 -0.000537
time 49
  0 0.719519 -0.719519 44.253887 -0.052145 0.000000 -0.000048
  1 9.062670 0.286610 -3.406700 -0.254965 -0.071722 -0.052437
  2 4.544490 -1.638600 -20.622749 0.686278 0.010594 0.155488
  3 3.070910 1.647970 -15.136740 -0.365682 -0.019491 -0.095730
  4 -0.361640 -14.308061 -6.406600 0.000000 0.000000 0.000000
  5 -9.522449 0.590440 -3.372560 -0.300789 -0.008007 0.063217
  6 -4.141180 -1.081730 -20.790251 0.777595 0.107976 -0.123082
  7 -3.014440 0.974200 -14.527950 -0.451428 -0.012322 0.103529
  8 0.361640 -14.494990 -6.882030 0.000000 0.000000 0.000000
  9 0.013460 -1.507020 5.475230 0.080080 0.000000 0.000000
 10 -0.004780 1.092750 22.735540 0.188831 0.000000 0.000000
 11 -0.976790 -3.346690 20.865768 -0.270946 0.003428 0.015553
 12 0.975190 -4.916450 -4.520320 -0.026974 -0.070038 0.030441
 13 -2.406500 -8.600220 4.877150 0.000000 0.346115 0.000000
 14 4.381730 -8.600220 5.272540 0.000000 -0.365158 0.000000
 15 -18.388140 0.440630 8.679390 -0.082122 -0.907456 0.256096
 16 -21.955891 -0.759690 -12.109390 -0.782858 -0.370982 0.354979
 17 -13.311041 1.530050 -7.133010 0.119800 0.307973 0.164695
 18 -9.635210 -0.302230 -6.530870 -0.097087 -0.526408 -0.215423
 19 -3.126290 0.042420 -2.638810 0.000000 0.000000 0.000000
 20 -2.839340 -5.564580 -4.296970 0.000000 0.000000 0.000000
 21 -3.811070 -2.785450 -1.806430 0.000000 0.000000 0.000000
 22 18.455151 0.440630 8.679390 0.169804 0.969583 -0.275920
 23 21.943432 -0.878860 -11.911369 -0.819654 0.202346 -0.423723
 24 13.133340 0.635550 -6.798010 0.131461 -0.364630 -0.112118
 25 3.689260 -4.550930 -4.829990 0.000000 0.000000 0.000000
 26 3.087020 -2.930260 -1.806420 0.000000 0.000000 0.000000
 27 10.169240 0.711430 -6.708540 -0.103451 0.399173 0.072758
 28 2.770930 0.042420 -2.816470 0.000000 0.000000 0.000000
 29 -0.013158 5.486575 -88.199303 1.570802 -0.000018 -0.000537
time 50
  0 0.719519 -0.719519 44.253887 -0.052145 0.000000 -0.000048
  1 9.062670 0.286610 -3.406700 -0.254965 -0.071722 -0.052437
  2 4.544490 -1.638600 -20.622749 0.686278 0.010594 0.155488
  3 3.070910 1.647970 -15.136740 -0.365682 -0.019491 -0.095730
  4 -0.361640 -14.308061 -6.406600 0.000000 0.000000 0.000000
  5 -9.522449 0.590440 -3.372560 -0.300789 -0.008007 0.063217
  6 -4.141180 -1.081730 -20.790251 0.777595 0.107976 -0.123082
  7 -3.014440 0.974200 -14.527950 -0.451428 -0.012322 0.103529
  8 0.361640 -14.494990 -6.882030 0.000000 0.000000 0.000000
  9 0.013460 -1.507020 5.475230 0.080080 0.000000 0.000000
 10 -0.004780 1.092750 22.735540 0.188831 0.000000 0.000000
 11 -0.976790 -3.346690 20.865768 -0.270946 0.003428 0.015553
 12 0.975190 -4.916450 -4.520320 -0.026974 -0.070038 0.030441
 13 -2.406500 -8.600220 4.877150 0.000000 0.346115 0.000000
 14 4.381730 -8.600220 5.272540 0.000000 -0.365158 0.000000
 15 -18.388140 0.440630 8.679390 -0.082122 -0.907456 0.256096
 16 -21.955891 -0.759690 -12.109390 -0.782858 -0.370982 0.354979
 17 -13.311041 1.530050 -7.133010 0.119800 0.307973 0.164695
 18 -9.635210 -0.302230 -6.530870 -0.097087 -0.526408 -0.215423
 19 -3.126290 0.042420 -2.638810 0.000000 0.000000 0.000000
 20 -2.839340 -5.564580 -4.296970 0.000000 0.000000 0.000000
 21 -3.811070 -2.785450 -1.806430 0.000000 0.000000 0.000000
 22 18.455151 0.440630 8.679390 0.169804 0.969583 -0.275920
 23 21.943432 -0.878860 -11.911369 -0.819654 0.202346 -0.423723
 24 13.133340 0.635550 -6.798010 0.131461 -0.364630 -0.112118
 25 3.689260 -4.550930 -4.829990 0.000000 0.000000 0.000000
 26 3.087020 -2.930260 -1.806420 0.000000 0.000000 0.000000
 27 10.169240 0.711430 -6.708540 -0.103451 0.399173 0.072758
 28 2.770930 0.042420 -2.816470 0.000000 0.000000 0.000000
 29 -0.013158 5.486575 -88.199303 1.570802 -0.000018 -0.000537
end
