version 1
nodes
  0 "Hips"  -1
  1 "LLegUpper"   0
  2 "LLegLower"   1
  3 "LFoot"   2
  4 "LToes"   3
  5 "RLegUpper"   0
  6 "RLegLower"   5
  7 "RFoot"   6
  8 "RToes"   7
  9 "BodyLower"   0
 10 "BodyUpper"   9
 11 "Head"  10
 12 "Jaw"  11
 13 "HeadRBrow"  11
 14 "HeadLBrow"  11
 15 "RArm"  10
 16 "RArm2"  15
 17 "RPalm"  16
 18 "RFingStart"  17
 19 "RFingEnd"  18
 20 "RThumbStart"  17
 21 "RThumbEnd"  20
 22 "LArm"  10
 23 "LArm2"  22
 24 "LPalm"  23
 25 "LThumStart"  24
 26 "LThumEnd"  25
 27 "LFingStart"  24
 28 "LFingEnd"  27
 29 "GeoSphere01"   9
end
skeleton
time 0
  0 1.278131 -1.278131 40.265484 0.000000 -0.217736 0.453758
  1 9.062670 0.286610 -3.406700 -0.004990 0.088183 0.025151
  2 4.544490 -1.638600 -20.622749 0.667807 0.011721 0.151365
  3 3.070910 1.647970 -15.136740 -0.590528 -0.280906 -0.583216
  4 -0.361640 -14.308061 -6.406600 0.000000 0.000000 0.000000
  5 -9.522449 0.590440 -3.372560 -1.086606 0.029424 -0.602883
  6 -4.141180 -1.081730 -20.790251 1.020862 0.157500 -0.140783
  7 -3.014440 0.974200 -14.527950 -0.036300 0.195934 0.356740
  8 0.361640 -14.494990 -6.882030 0.000000 0.000000 0.000000
  9 0.013460 -1.507020 5.475230 0.011755 0.055992 -0.073820
 10 -0.004780 1.092750 22.735540 0.000000 0.000000 -0.195359
 11 -0.976790 -3.346690 20.865768 -0.079929 0.141298 -0.165897
 12 0.975190 -4.916450 -4.520320 0.000000 0.000000 0.000000
 13 -2.406500 -8.600220 4.877150 0.000000 0.000000 0.000000
 14 4.381730 -8.600220 5.272540 0.000000 0.000000 0.000000
 15 -18.388140 0.440630 8.679390 0.953393 -0.542957 -0.724935
 16 -21.955891 -0.759690 -12.109390 -0.231530 0.193583 0.635804
 17 -13.311041 1.530050 -7.133010 0.000005 -0.000018 -0.000010
 18 -9.635210 -0.302230 -6.530870 0.000000 -1.132666 0.000000
 19 -3.126290 0.042420 -2.638810 0.000000 -0.848579 0.000000
 20 -2.839340 -5.564580 -4.296970 0.000000 0.000000 -0.502960
 21 -3.811070 -2.785450 -1.806430 0.000000 0.000000 0.000000
 22 18.455151 0.440630 8.679390 -0.449624 0.730583 -0.379822
 23 21.943432 -0.878860 -11.911369 -0.181647 -0.113272 -0.906250
 24 13.133340 0.635550 -6.798010 0.000000 0.000000 0.000000
 25 3.689260 -4.550930 -4.829990 0.000000 0.000000 0.628917
 26 3.087020 -2.930260 -1.806420 0.000000 0.000000 0.000000
 27 10.169240 0.711430 -6.708540 0.000000 1.439514 0.000000
 28 2.770930 0.042420 -2.816470 0.000000 0.817903 0.000000
 29 -52.850708 -0.361260 -67.170868 1.570802 -0.000018 -0.000537
time 1
  0 1.278131 0.885332 40.265484 0.000000 -0.217736 0.453758
  1 9.062670 0.286610 -3.406700 -0.004990 0.088183 0.025151
  2 4.544490 -1.638600 -20.622749 0.667807 0.011721 0.151365
  3 3.070910 1.647970 -15.136740 -0.590528 -0.280906 -0.583216
  4 -0.361640 -14.308061 -6.406600 0.000000 0.000000 0.000000
  5 -9.522449 0.590440 -3.372560 -1.086606 0.029424 -0.602883
  6 -4.141180 -1.081730 -20.790251 1.020862 0.157500 -0.140783
  7 -3.014440 0.974200 -14.527950 -0.036300 0.195934 0.356740
  8 0.361640 -14.494990 -6.882030 0.000000 0.000000 0.000000
  9 0.013460 -1.507020 5.475230 0.011755 0.055992 -0.073820
 10 -0.004780 1.092750 22.735540 0.000000 0.000000 -0.195359
 11 -0.976790 -3.346690 20.865768 -0.079929 0.141298 -0.165897
 12 0.975190 -4.916450 -4.520320 0.000000 0.000000 0.000000
 13 -2.406500 -8.600220 4.877150 0.000000 0.000000 0.000000
 14 4.381730 -8.600220 5.272540 0.000000 0.000000 0.000000
 15 -18.388140 0.440630 8.679390 0.953393 -0.542957 -0.724935
 16 -21.955891 -0.759690 -12.109390 -0.231530 0.193583 0.635804
 17 -13.311041 1.530050 -7.133010 0.000005 -0.000018 -0.000010
 18 -9.635210 -0.302230 -6.530870 0.000000 -1.132666 0.000000
 19 -3.126290 0.042420 -2.638810 0.000000 -0.848579 0.000000
 20 -2.839340 -5.564580 -4.296970 0.000000 0.000000 -0.502960
 21 -3.811070 -2.785450 -1.806430 0.000000 0.000000 0.000000
 22 18.455151 0.440630 8.679390 -0.449624 0.730583 -0.379822
 23 21.943432 -0.878860 -11.911369 -0.181647 -0.113272 -0.906250
 24 13.133340 0.635550 -6.798010 0.000000 0.000000 0.000000
 25 3.689260 -4.550930 -4.829990 0.000000 0.000000 0.628917
 26 3.087020 -2.930260 -1.806420 0.000000 0.000000 0.000000
 27 10.169240 0.711430 -6.708540 0.000000 1.439514 0.000000
 28 2.770930 0.042420 -2.816470 0.000000 0.817903 0.000000
 29 -52.850708 -0.361260 -67.170868 1.570802 -0.000018 -0.000537
time 2
  0 1.278131 3.048796 40.499866 0.000631 -0.214932 0.446200
  1 9.062670 0.286610 -3.406700 0.017569 0.077145 0.031892
  2 4.544490 -1.638600 -20.622749 0.659042 0.012224 0.149388
  3 3.070910 1.647970 -15.136740 -0.557918 -0.278906 -0.583703
  4 -0.361640 -14.308061 -6.406600 -0.077061 0.000000 0.000000
  5 -9.522449 0.590440 -3.372560 -1.061294 0.034271 -0.597235
  6 -4.141180 -1.081730 -20.790251 1.041522 0.161856 -0.141706
  7 -3.014440 0.974200 -14.527950 -0.080724 0.198546 0.354693
  8 0.361640 -14.494990 -6.882030 0.000000 0.000000 0.000000
  9 0.013460 -1.507020 5.475230 0.011550 0.055585 -0.071969
 10 -0.004780 1.092750 22.735540 0.000000 -0.000791 -0.192540
 11 -0.976790 -3.346690 20.865768 -0.073468 0.140435 -0.161956
 12 0.975190 -4.916450 -4.520320 0.000000 0.000000 0.000000
 13 -2.406500 -8.600220 4.877150 0.000000 0.000000 0.000000
 14 4.381730 -8.600220 5.272540 0.000000 0.000000 0.000000
 15 -18.388140 0.440630 8.679390 0.938669 -0.573156 -0.715050
 16 -21.955891 -0.759690 -12.109390 -0.231140 0.189581 0.677750
 17 -13.311041 1.530050 -7.133010 0.000005 -0.000018 -0.000010
 18 -9.635210 -0.302230 -6.530870 0.000000 -1.132666 0.000000
 19 -3.126290 0.042420 -2.638810 0.000000 -0.848579 0.000000
 20 -2.839340 -5.564580 -4.296970 0.000000 0.000000 -0.498463
 21 -3.811070 -2.785450 -1.806430 0.000000 0.000000 0.000000
 22 18.455151 0.440630 8.679390 -0.437749 0.728896 -0.370131
 23 21.943432 -0.878860 -11.911369 -0.188920 -0.112399 -0.936945
 24 13.133340 0.635550 -6.798010 0.000000 0.000000 0.000000
 25 3.689260 -4.550930 -4.829990 0.000000 0.000000 0.628917
 26 3.087020 -2.930260 -1.806420 0.000000 0.000000 0.000000
 27 10.169240 0.711430 -6.708540 0.000000 1.439514 0.000000
 28 2.770930 0.042420 -2.816470 0.000000 0.817903 0.000000
 29 -52.850708 -0.361260 -67.170868 1.570802 -0.000018 -0.000537
time 3
  0 1.278131 5.212259 41.136604 0.002487 -0.206938 0.424738
  1 9.062670 0.286610 -3.406700 0.017933 0.062716 0.041136
  2 4.544490 -1.638600 -20.622749 0.702504 0.009540 0.159095
  3 3.070910 1.647970 -15.136740 -0.467517 -0.294592 -0.576214
  4 -0.361640 -14.308061 -6.406600 -0.260859 0.000000 0.000000
  5 -9.522449 0.590440 -3.372560 -1.006858 0.029190 -0.584871
  6 -4.141180 -1.081730 -20.790251 1.029591 0.159336 -0.141178
  7 -3.014440 0.974200 -14.527950 -0.117088 0.202085 0.355807
  8 0.361640 -14.494990 -6.882030 0.000000 0.000000 0.000000
  9 0.013460 -1.507020 5.475230 0.010934 0.054434 -0.066691
 10 -0.004780 1.092750 22.735540 0.000000 -0.003068 -0.184490
 11 -0.976790 -3.346690 20.865768 -0.056249 0.137775 -0.151557
 12 0.975190 -4.916450 -4.520320 0.000000 0.000000 0.000000
 13 -2.406500 -8.600220 4.877150 0.000000 0.000000 0.000000
 14 4.381730 -8.600220 5.272540 0.000000 0.000000 0.000000
 15 -18.388140 0.440630 8.679390 0.896778 -0.602328 -0.687010
 16 -21.955891 -0.759690 -12.109390 -0.230035 0.178248 0.719978
 17 -13.311041 1.530050 -7.133010 0.000005 -0.000018 -0.000010
 18 -9.635210 -0.302230 -6.530870 0.000000 -1.132666 0.000000
 19 -3.126290 0.042420 -2.638810 0.000000 -0.848579 0.000000
 20 -2.839340 -5.564580 -4.296970 0.000000 0.000000 -0.485712
 21 -3.811070 -2.785450 -1.806430 0.000000 0.000000 0.000000
 22 18.455151 0.440630 8.679390 -0.404085 0.724132 -0.342507
 23 21.943432 -0.878860 -11.911369 -0.195496 -0.109864 -0.964593
 24 13.133340 0.635550 -6.798010 0.000000 0.000000 0.000000
 25 3.689260 -4.550930 -4.829990 0.000000 0.000000 0.628917
 26 3.087020 -2.930260 -1.806420 0.000000 0.000000 0.000000
 27 10.169240 0.711430 -6.708540 0.000000 1.439514 0.000000
 28 2.770930 0.042420 -2.816470 0.000000 0.817903 0.000000
 29 -52.850708 -0.361260 -67.170868 1.570802 -0.000018 -0.000537
time 4
  0 1.278131 7.375722 42.078041 0.005375 -0.194426 0.391109
  1 9.062670 0.286610 -3.406700 0.001611 0.046182 0.053497
  2 4.544490 -1.638600 -20.622749 0.783707 0.003404 0.176917
  3 3.070910 1.647970 -15.136740 -0.333418 -0.321987 -0.560819
  4 -0.361640 -14.308061 -6.406600 -0.480219 0.000000 0.000000
  5 -9.522449 0.590440 -3.372560 -0.929386 0.015277 -0.568864
  6 -4.141180 -1.081730 -20.790251 0.987034 0.150372 -0.139045
  7 -3.014440 0.974200 -14.527950 -0.141815 0.206445 0.361483
  8 0.361640 -14.494990 -6.882030 0.000000 0.000000 0.000000
  9 0.013460 -1.507020 5.475230 0.009976 0.052624 -0.058416
 10 -0.004780 1.092750 22.735540 0.000000 -0.006627 -0.171860
 11 -0.976790 -3.346690 20.865768 -0.031403 0.133281 -0.135883
 12 0.975190 -4.916450 -4.520320 0.000000 0.000000 0.000000
 13 -2.406500 -8.600220 4.877150 0.000000 0.000000 0.000000
 14 4.381730 -8.600220 5.272540 0.000000 0.000000 0.000000
 15 -18.388140 0.440630 8.679390 0.831108 -0.630360 -0.643019
 16 -21.955891 -0.759690 -12.109390 -0.228280 0.160434 0.762150
 17 -13.311041 1.530050 -7.133010 0.000005 -0.000018 -0.000010
 18 -9.635210 -0.302230 -6.530870 0.000000 -1.132666 0.000000
 19 -3.126290 0.042420 -2.638810 0.000000 -0.848579 0.000000
 20 -2.839340 -5.564580 -4.296970 0.000000 0.000000 -0.465690
 21 -3.811070 -2.785450 -1.806430 0.000000 0.000000 0.000000
 22 18.455151 0.440630 8.679390 -0.351304 0.716616 -0.299201
 23 21.943432 -0.878860 -11.911369 -0.201331 -0.105892 -0.989379
 24 13.133340 0.635550 -6.798010 0.000000 0.000000 0.000000
 25 3.689260 -4.550930 -4.829990 0.000000 0.000000 0.628917
 26 3.087020 -2.930260 -1.806420 0.000000 0.000000 0.000000
 27 10.169240 0.711430 -6.708540 0.000000 1.439514 0.000000
 28 2.770930 0.042420 -2.816470 0.000000 0.817903 0.000000
 29 -52.850708 -0.361260 -67.170868 1.570802 -0.000018 -0.000537
time 5
  0 1.278131 9.539186 43.218700 0.009163 -0.178019 0.347051
  1 9.062670 0.286610 -3.406700 -0.026250 0.028654 0.069635
  2 4.544490 -1.638600 -20.622749 0.887511 -0.006520 0.198872
  3 3.070910 1.647970 -15.136740 -0.169520 -0.354237 -0.537472
  4 -0.361640 -14.308061 -6.406600 -0.664017 0.000000 0.000000
  5 -9.522449 0.590440 -3.372560 -0.834166 -0.005332 -0.552269
  6 -4.141180 -1.081730 -20.790251 0.914505 0.135336 -0.134527
  7 -3.014440 0.974200 -14.527950 -0.151067 0.210174 0.373248
  8 0.361640 -14.494990 -6.882030 0.000000 0.000000 0.000000
  9 0.013460 -1.507020 5.475230 0.008710 0.050263 -0.047572
 10 -0.004780 1.092750 22.735540 0.000000 -0.011301 -0.155316
 11 -0.976790 -3.346690 20.865768 -0.002477 0.126845 -0.116086
 12 0.975190 -4.916450 -4.520320 0.000000 0.000000 0.000000
 13 -2.406500 -8.600220 4.877150 0.000000 0.000000 0.000000
 14 4.381730 -8.600220 5.272540 0.000000 0.000000 0.000000
 15 -18.388140 0.440630 8.679390 0.745045 -0.657166 -0.585369
 16 -21.955891 -0.759690 -12.109390 -0.226005 0.137095 0.803925
 17 -13.311041 1.530050 -7.133010 0.000005 -0.000018 -0.000010
 18 -9.635210 -0.302230 -6.530870 0.000000 -1.132666 0.000000
 19 -3.126290 0.042420 -2.638810 0.000000 -0.848579 0.000000
 20 -2.839340 -5.564580 -4.296970 0.000000 0.000000 -0.439472
 21 -3.811070 -2.785450 -1.806430 0.000000 0.000000 0.000000
 22 18.455151 0.440630 8.679390 -0.282135 0.706792 -0.242465
 23 21.943432 -0.878860 -11.911369 -0.206514 -0.100708 -1.011443
 24 13.133340 0.635550 -6.798010 0.000000 0.000000 0.000000
 25 3.689260 -4.550930 -4.829990 0.000000 0.000000 0.628917
 26 3.087020 -2.930260 -1.806420 0.000000 0.000000 0.000000
 27 10.169240 0.711430 -6.708540 0.000000 1.439514 0.000000
 28 2.770930 0.042420 -2.816470 0.000000 0.817903 0.000000
 29 -52.850708 -0.361260 -67.170868 1.570802 -0.000018 -0.000537
time 6
  0 1.278131 11.702649 44.457020 0.013696 -0.158376 0.294302
  1 9.062670 0.286610 -3.406700 -0.062429 0.011111 0.089903
  2 4.544490 -1.638600 -20.622749 1.001818 -0.020050 0.221787
  3 3.070910 1.647970 -15.136740 0.009664 -0.385633 -0.506822
  4 -0.361640 -14.308061 -6.406600 -0.741078 0.000000 0.000000
  5 -9.522449 0.590440 -3.372560 -0.725523 -0.029837 -0.537403
  6 -4.141180 -1.081730 -20.790251 0.812659 0.114840 -0.126378
  7 -3.014440 0.974200 -14.527950 -0.141847 0.210805 0.392139
  8 0.361640 -14.494990 -6.882030 0.000000 0.000000 0.000000
  9 0.013460 -1.507020 5.475230 0.007204 0.047423 -0.034599
 10 -0.004780 1.092750 22.735540 0.000000 -0.016898 -0.135507
 11 -0.976790 -3.346690 20.865768 0.026983 0.118504 -0.093257
 12 0.975190 -4.916450 -4.520320 0.000000 0.000000 0.000000
 13 -2.406500 -8.600220 4.877150 0.000000 0.000000 0.000000
 14 4.381730 -8.600220 5.272540 0.000000 0.000000 0.000000
 15 -18.388140 0.440630 8.679390 0.642047 -0.682688 -0.516392
 16 -21.955891 -0.759690 -12.109390 -0.223275 0.109152 0.844965
 17 -13.311041 1.530050 -7.133010 0.000005 -0.000018 -0.000010
 18 -9.635210 -0.302230 -6.530870 0.000000 -1.132666 0.000000
 19 -3.126290 0.042420 -2.638810 0.000000 -0.848579 0.000000
 20 -2.839340 -5.564580 -4.296970 0.000000 0.000000 -0.408086
 21 -3.811070 -2.785450 -1.806430 0.000000 0.000000 0.000000
 22 18.455151 0.440630 8.679390 -0.199312 0.695015 -0.174511
 23 21.943432 -0.878860 -11.911369 -0.211043 -0.094483 -1.030967
 24 13.133340 0.635550 -6.798010 0.000000 0.000000 0.000000
 25 3.689260 -4.550930 -4.829990 0.000000 0.000000 0.628917
 26 3.087020 -2.930260 -1.806420 0.000000 0.000000 0.000000
 27 10.169240 0.711430 -6.708540 0.000000 1.439514 0.000000
 28 2.770930 0.042420 -2.816470 0.000000 0.817903 0.000000
 29 -52.850708 -0.361260 -67.170868 1.570802 -0.000018 -0.000537
time 7
  0 1.278131 13.866113 45.699245 0.018823 -0.136145 0.234601
  1 9.062670 0.286610 -3.406700 -0.105729 -0.005687 0.114103
  2 4.544490 -1.638600 -20.622749 1.118082 -0.036457 0.243419
  3 3.070910 1.647970 -15.136740 0.189155 -0.411906 -0.470282
  4 -0.361640 -14.308061 -6.406600 -0.624583 0.000000 0.000000
  5 -9.522449 0.590440 -3.372560 -0.606584 -0.055149 -0.525609
  6 -4.141180 -1.081730 -20.790251 0.682005 0.089904 -0.112931
  7 -3.014440 0.974200 -14.527950 -0.112639 0.204908 0.418184
  8 0.361640 -14.494990 -6.882030 0.000000 0.000000 0.000000
  9 0.013460 -1.507020 5.475230 0.005493 0.044223 -0.019913
 10 -0.004780 1.092750 22.735540 0.000000 -0.023226 -0.113102
 11 -0.976790 -3.346690 20.865768 0.053917 0.108425 -0.068275
 12 0.975190 -4.916450 -4.520320 0.000000 0.000000 0.000000
 13 -2.406500 -8.600220 4.877150 0.000000 0.000000 0.000000
 14 4.381730 -8.600220 5.272540 0.000000 0.000000 0.000000
 15 -18.388140 0.440630 8.679390 0.525431 -0.706842 -0.438253
 16 -21.955891 -0.759690 -12.109390 -0.220220 0.077525 0.885043
 17 -13.311041 1.530050 -7.133010 0.000005 -0.000018 -0.000010
 18 -9.635210 -0.302230 -6.530870 0.000000 -1.132666 0.000000
 19 -3.126290 0.042420 -2.638810 0.000000 -0.848579 0.000000
 20 -2.839340 -5.564580 -4.296970 0.000000 0.000000 -0.372561
 21 -3.811070 -2.785450 -1.806430 0.000000 0.000000 0.000000
 22 18.455151 0.440630 8.679390 -0.105563 0.681700 -0.097589
 23 21.943432 -0.878860 -11.911369 -0.215006 -0.087412 -1.048045
 24 13.133340 0.635550 -6.798010 0.000000 0.000000 0.000000
 25 3.689260 -4.550930 -4.829990 0.000000 0.000000 0.628917
 26 3.087020 -2.930260 -1.806420 0.000000 0.000000 0.000000
 27 10.169240 0.711430 -6.708540 0.000000 1.439514 0.000000
 28 2.770930 0.042420 -2.816470 0.000000 0.817903 0.000000
 29 -52.850708 -0.361260 -67.170868 1.570802 -0.000018 -0.000537
time 8
  0 1.278131 16.029575 46.839905 0.024409 -0.111972 0.169685
  1 9.062670 0.286610 -3.406700 -0.156462 -0.021154 0.141665
  2 4.544490 -1.638600 -20.622749 1.230071 -0.054566 0.262379
  3 3.070910 1.647970 -15.136740 0.354247 -0.430056 -0.430010
  4 -0.361640 -14.308061 -6.406600 -0.346740 0.000000 0.000000
  5 -9.522449 0.590440 -3.372560 -0.479226 -0.078505 -0.517219
  6 -4.141180 -1.081730 -20.790251 0.522034 0.062100 -0.092281
  7 -3.014440 0.974200 -14.527950 -0.063090 0.188394 0.449851
  8 0.361640 -14.494990 -6.882030 0.000000 0.000000 0.000000
  9 0.013460 -1.507020 5.475230 0.003645 0.040736 -0.003930
 10 -0.004780 1.092750 22.735540 0.000000 -0.030105 -0.088731
 11 -0.976790 -3.346690 20.865768 0.075557 0.096979 -0.041838
 12 0.975190 -4.916450 -4.520320 0.000000 0.000000 0.000000
 13 -2.406500 -8.600220 4.877150 0.000000 0.000000 0.000000
 14 4.381730 -8.600220 5.272540 0.000000 0.000000 0.000000
 15 -18.388140 0.440630 8.679390 0.398652 -0.729541 -0.353326
 16 -21.955891 -0.759690 -12.109390 -0.216840 0.043137 0.923705
 17 -13.311041 1.530050 -7.133010 0.000005 -0.000018 -0.000010
 18 -9.635210 -0.302230 -6.530870 0.000000 -1.132666 0.000000
 19 -3.126290 0.042420 -2.638810 0.000000 -0.848579 0.000000
 20 -2.839340 -5.564580 -4.296970 0.000000 0.000000 -0.333927
 21 -3.811070 -2.785450 -1.806430 0.000000 0.000000 0.000000
 22 18.455151 0.440630 8.679390 -0.003622 0.667230 -0.013953
 23 21.943432 -0.878860 -11.911369 -0.218403 -0.079750 -1.062908
 24 13.133340 0.635550 -6.798010 0.000000 0.000000 0.000000
 25 3.689260 -4.550930 -4.829990 0.000000 0.000000 0.628917
 26 3.087020 -2.930260 -1.806420 0.000000 0.000000 0.000000
 27 10.169240 0.711430 -6.708540 0.000000 1.439514 0.000000
 28 2.770930 0.042420 -2.816470 0.000000 0.817903 0.000000
 29 -52.850708 -0.361260 -67.170868 1.570802 -0.000018 -0.000537
time 9
  0 1.278131 18.193039 47.777435 0.030281 -0.086505 0.101293
  1 9.062670 0.286610 -3.406700 -0.215824 -0.034852 0.171592
  2 4.544490 -1.638600 -20.622749 1.332571 -0.072950 0.277911
  3 3.070910 1.647970 -15.136740 0.491157 -0.438009 -0.388579
  4 -0.361640 -14.308061 -6.406600 -0.015107 0.000000 0.000000
  5 -9.522449 0.590440 -3.372560 -0.342995 -0.097606 -0.512252
  6 -4.141180 -1.081730 -20.790251 0.328163 0.033396 -0.061817
  7 -3.014440 0.974200 -14.527950 0.007898 0.156440 0.483644
  8 0.361640 -14.494990 -6.882030 0.000000 0.000000 0.000000
  9 0.013460 -1.507020 5.475230 0.001677 0.037068 0.012885
 10 -0.004780 1.092750 22.735540 0.000000 -0.037356 -0.063042
 11 -0.976790 -3.346690 20.865768 0.089814 0.084695 -0.014401
 12 0.975190 -4.916450 -4.520320 0.000000 0.000000 0.000000
 13 -2.406500 -8.600220 4.877150 0.000000 0.000000 0.000000
 14 4.381730 -8.600220 5.272540 0.000000 0.000000 0.000000
 15 -18.388140 0.440630 8.679390 0.265031 -0.750700 -0.263859
 16 -21.955891 -0.759690 -12.109390 -0.213330 0.006906 0.960725
 17 -13.311041 1.530050 -7.133010 0.000005 -0.000018 -0.000010
 18 -9.635210 -0.302230 -6.530870 0.000000 -1.132666 0.000000
 19 -3.126290 0.042420 -2.638810 0.000000 -0.848579 0.000000
 20 -2.839340 -5.564580 -4.296970 0.000000 0.000000 -0.293212
 21 -3.811070 -2.785450 -1.806430 0.000000 0.000000 0.000000
 22 18.455151 0.440630 8.679390 0.103723 0.651961 0.074107
 23 21.943432 -0.878860 -11.911369 -0.221321 -0.071693 -1.075647
 24 13.133340 0.635550 -6.798010 0.000000 0.000000 0.000000
 25 3.689260 -4.550930 -4.829990 0.000000 0.000000 0.628917
 26 3.087020 -2.930260 -1.806420 0.000000 0.000000 0.000000
 27 10.169240 0.711430 -6.708540 0.000000 1.439514 0.000000
 28 2.770930 0.042420 -2.816470 0.000000 0.817903 0.000000
 29 -52.850708 -0.361260 -67.170868 1.570802 -0.000018 -0.000537
time 10
  0 1.278131 20.356504 48.414173 0.036307 -0.060390 0.031088
  1 9.062670 0.286610 -3.406700 -0.285218 -0.046533 0.202624
  2 4.544490 -1.638600 -20.622749 1.420366 -0.089896 0.289668
  3 3.070910 1.647970 -15.136740 0.586947 -0.434569 -0.348585
  4 -0.361640 -14.308061 -6.406600 0.262712 0.000000 0.000000
  5 -9.522449 0.590440 -3.372560 -0.183329 -0.110173 -0.513043
  6 -4.141180 -1.081730 -20.790251 0.063654 0.004848 -0.012764
  7 -3.014440 0.974200 -14.527950 0.117507 0.096703 0.511709
  8 0.361640 -14.494990 -6.882030 0.000000 0.000000 0.000000
  9 0.013460 -1.507020 5.475230 -0.000308 0.033293 0.030140
 10 -0.004780 1.092750 22.735540 0.000000 -0.044798 -0.036705
 11 -0.976790 -3.346690 20.865768 0.095084 0.072195 0.013613
 12 0.975190 -4.916450 -4.520320 0.000000 0.000000 0.000000
 13 -2.406500 -8.600220 4.877150 0.000000 0.000000 0.000000
 14 4.381730 -8.600220 5.272540 0.000000 0.000000 0.000000
 15 -18.388140 0.440630 8.679390 0.128091 -0.770234 -0.172102
 16 -21.955891 -0.759690 -12.109390 -0.209690 -0.030210 0.995765
 17 -13.311041 1.530050 -7.133010 0.000005 -0.000018 -0.000010
 18 -9.635210 -0.302230 -6.530870 0.000000 -1.132666 0.000000
 19 -3.126290 0.042420 -2.638810 0.000000 -0.848579 0.000000
 20 -2.839340 -5.564580 -4.296970 0.000000 0.000000 -0.251469
 21 -3.811070 -2.785450 -1.806430 0.000000 0.000000 0.000000
 22 18.455151 0.440630 8.679390 0.213798 0.636338 0.164458
 23 21.943432 -0.878860 -11.911369 -0.223760 -0.063411 -1.086402
 24 13.133340 0.635550 -6.798010 0.000000 0.000000 0.000000
 25 3.689260 -4.550930 -4.829990 0.000000 0.000000 0.628917
 26 3.087020 -2.930260 -1.806420 0.000000 0.000000 0.000000
 27 10.169240 0.711430 -6.708540 0.000000 1.439514 0.000000
 28 2.770930 0.042420 -2.816470 0.000000 0.817903 0.000000
 29 -52.850708 -0.361260 -67.170868 1.570802 -0.000018 -0.000537
time 11
  0 1.278131 22.519966 48.648552 0.042351 -0.034276 -0.039042
  1 9.062670 0.286610 -3.406700 -0.365580 -0.056298 0.233626
  2 4.544490 -1.638600 -20.622749 1.487081 -0.103439 0.297613
  3 3.070910 1.647970 -15.136740 0.629375 -0.419298 -0.312300
  4 -0.361640 -14.308061 -6.406600 0.379231 0.000000 0.000000
  5 -9.522449 0.590440 -3.372560 -0.067803 -0.117336 -0.504598
  6 -4.141180 -1.081730 -20.790251 -0.113486 -0.006588 0.023406
  7 -3.014440 0.974200 -14.527950 0.179501 0.048489 0.538764
  8 0.361640 -14.494990 -6.882030 0.000000 0.000000 0.000000
  9 0.013460 -1.507020 5.475230 -0.002310 0.029530 0.047396
 10 -0.004780 1.092750 22.735540 0.000000 -0.052229 -0.010387
 11 -0.976790 -3.346690 20.865768 0.090251 0.060139 0.041929
 12 0.975190 -4.916450 -4.520320 0.000000 0.000000 0.000000
 13 -2.406500 -8.600220 4.877150 0.000000 0.000000 0.000000
 14 4.381730 -8.600220 5.272540 0.000000 0.000000 0.000000
 15 -18.388140 0.440630 8.679390 -0.008848 -0.788057 -0.080346
 16 -21.955891 -0.759690 -12.109390 -0.206050 -0.067361 1.028483
 17 -13.311041 1.530050 -7.133010 0.000005 -0.000018 -0.000010
 18 -9.635210 -0.302230 -6.530870 0.000000 -1.132666 0.000000
 19 -3.126290 0.042420 -2.638810 0.000000 -0.848579 0.000000
 20 -2.839340 -5.564580 -4.296970 0.000000 0.000000 -0.209725
 21 -3.811070 -2.785450 -1.806430 0.000000 0.000000 0.000000
 22 18.455151 0.440630 8.679390 0.323933 0.620685 0.254810
 23 21.943432 -0.878860 -11.911369 -0.225807 -0.055129 -1.095402
 24 13.133340 0.635550 -6.798010 0.000000 0.000000 0.000000
 25 3.689260 -4.550930 -4.829990 0.000000 0.000000 0.628917
 26 3.087020 -2.930260 -1.806420 0.000000 0.000000 0.000000
 27 10.169240 0.711430 -6.708540 0.000000 1.439514 0.000000
 28 2.770930 0.042420 -2.816470 0.000000 0.817903 0.000000
 29 -52.850708 -0.361260 -67.170868 1.570802 -0.000018 -0.000537
time 12
  0 1.278131 24.683430 48.457142 0.048224 -0.008809 -0.107435
  1 9.062670 0.286610 -3.406700 -0.496675 -0.060816 0.257703
  2 4.544490 -1.638600 -20.622749 1.544887 -0.115579 0.303749
  3 3.070910 1.647970 -15.136740 0.555184 -0.390805 -0.274694
  4 -0.361640 -14.308061 -6.406600 0.318379 0.000000 0.000000
  5 -9.522449 0.590440 -3.372560 -0.033219 -0.123494 -0.479668
  6 -4.141180 -1.081730 -20.790251 -0.113486 -0.006588 0.023406
  7 -3.014440 0.974200 -14.527950 0.148520 0.041896 0.577869
  8 0.361640 -14.494990 -6.882030 0.000000 0.000000 0.000000
  9 0.013460 -1.507020 5.475230 -0.004261 0.025863 0.064223
 10 -0.004780 1.092750 22.735540 0.000000 -0.059480 0.015283
 11 -0.976790 -3.346690 20.865768 0.075946 0.049125 0.070124
 12 0.975190 -4.916450 -4.520320 0.000000 0.000000 0.000000
 13 -2.406500 -8.600220 4.877150 0.000000 0.000000 0.000000
 14 4.381730 -8.600220 5.272540 0.000000 0.000000 0.000000
 15 -18.388140 0.440630 8.679390 -0.142401 -0.804112 0.009121
 16 -21.955891 -0.759690 -12.109390 -0.202540 -0.103592 1.058541
 17 -13.311041 1.530050 -7.133010 0.000005 -0.000018 -0.000010
 18 -9.635210 -0.302230 -6.530870 0.000000 -1.132666 0.000000
 19 -3.126290 0.042420 -2.638810 0.000000 -0.848579 0.000000
 20 -2.839340 -5.564580 -4.296970 0.000000 0.000000 -0.169033
 21 -3.811070 -2.785450 -1.806430 0.000000 0.000000 0.000000
 22 18.455151 0.440630 8.679390 0.431337 0.605446 0.342909
 23 21.943432 -0.878860 -11.911369 -0.227418 -0.047072 -1.102788
 24 13.133340 0.635550 -6.798010 0.000000 0.000000 0.000000
 25 3.689260 -4.550930 -4.829990 0.000000 0.000000 0.628917
 26 3.087020 -2.930260 -1.806420 0.000000 0.000000 0.000000
 27 10.169240 0.711430 -6.708540 0.000000 1.439514 0.000000
 28 2.770930 0.042420 -2.816470 0.000000 0.817903 0.000000
 29 -52.850708 -0.361260 -67.170868 1.570802 -0.000018 -0.000537
time 13
  0 1.278131 26.846891 47.925877 0.053810 0.015352 -0.172350
  1 9.062670 0.286610 -3.406700 -0.694045 -0.063857 0.273918
  2 4.544490 -1.638600 -20.622749 1.572413 -0.121464 0.306422
  3 3.070910 1.647970 -15.136740 0.387435 -0.345577 -0.236764
  4 -0.361640 -14.308061 -6.406600 0.166274 0.000000 0.000000
  5 -9.522449 0.590440 -3.372560 -0.001877 -0.124140 -0.454499
  6 -4.141180 -1.081730 -20.790251 -0.114286 -0.006624 0.023562
  7 -3.014440 0.974200 -14.527950 0.116572 0.033260 0.613787
  8 0.361640 -14.494990 -6.882030 0.000000 0.000000 0.000000
  9 0.013460 -1.507020 5.475230 -0.006126 0.022375 0.080193
 10 -0.004780 1.092750 22.735540 0.000000 -0.066371 0.039654
 11 -0.976790 -3.346690 20.865768 0.054889 0.039657 0.097653
 12 0.975190 -4.916450 -4.520320 0.000000 0.000000 0.000000
 13 -2.406500 -8.600220 4.877150 0.000000 0.000000 0.000000
 14 4.381730 -8.600220 5.272540 0.000000 0.000000 0.000000
 15 -18.388140 0.440630 8.679390 -0.269248 -0.818285 0.094048
 16 -21.955891 -0.759690 -12.109390 -0.199160 -0.137980 1.085656
 17 -13.311041 1.530050 -7.133010 0.000005 -0.000018 -0.000010
 18 -9.635210 -0.302230 -6.530870 0.000000 -1.132666 0.000000
 19 -3.126290 0.042420 -2.638810 0.000000 -0.848579 0.000000
 20 -2.839340 -5.564580 -4.296970 0.000000 0.000000 -0.130376
 21 -3.811070 -2.785450 -1.806430 0.000000 0.000000 0.000000
 22 18.455151 0.440630 8.679390 0.533279 0.590946 0.426546
 23 21.943432 -0.878860 -11.911369 -0.228724 -0.039410 -1.108650
 24 13.133340 0.635550 -6.798010 0.000000 0.000000 0.000000
 25 3.689260 -4.550930 -4.829990 0.000000 0.000000 0.628917
 26 3.087020 -2.930260 -1.806420 0.000000 0.000000 0.000000
 27 10.169240 0.711430 -6.708540 0.000000 1.439514 0.000000
 28 2.770930 0.042420 -2.816470 0.000000 0.817903 0.000000
 29 -52.850708 -0.361260 -67.170868 1.570802 -0.000018 -0.000537
time 14
  0 1.278131 29.010357 47.140694 0.058936 0.037584 -0.232051
  1 9.062670 0.286610 -3.406700 -0.906334 -0.067570 0.296873
  2 4.544490 -1.638600 -20.622749 1.518664 -0.110019 0.301053
  3 3.070910 1.647970 -15.136740 0.223152 -0.293640 -0.206485
  4 -0.361640 -14.308061 -6.406600 -0.031434 0.000000 0.000000
  5 -9.522449 0.590440 -3.372560 -0.091295 -0.125522 -0.405540
  6 -4.141180 -1.081730 -20.790251 0.166664 0.014400 -0.032730
  7 -3.014440 0.974200 -14.527950 -0.057384 0.115829 0.669425
  8 0.361640 -14.494990 -6.882030 0.000000 0.000000 0.000000
  9 0.013460 -1.507020 5.475230 -0.007820 0.019163 0.094892
 10 -0.004780 1.092750 22.735540 0.000000 -0.072699 0.062078
 11 -0.976790 -3.346690 20.865768 0.029339 0.032035 0.123847
 12 0.975190 -4.916450 -4.520320 0.000000 0.000000 0.000000
 13 -2.406500 -8.600220 4.877150 0.000000 0.000000 0.000000
 14 4.381730 -8.600220 5.272540 0.000000 0.000000 0.000000
 15 -18.388140 0.440630 8.679390 -0.385795 -0.830490 0.172145
 16 -21.955891 -0.759690 -12.109390 -0.196105 -0.169607 1.109487
 17 -13.311041 1.530050 -7.133010 0.000005 -0.000018 -0.000010
 18 -9.635210 -0.302230 -6.530870 0.000000 -1.132666 0.000000
 19 -3.126290 0.042420 -2.638810 0.000000 -0.848579 0.000000
 20 -2.839340 -5.564580 -4.296970 0.000000 0.000000 -0.094852
 21 -3.811070 -2.785450 -1.806430 0.000000 0.000000 0.000000
 22 18.455151 0.440630 8.679390 0.627027 0.577631 0.503467
 23 21.943432 -0.878860 -11.911369 -0.229682 -0.032339 -1.113219
 24 13.133340 0.635550 -6.798010 0.000000 0.000000 0.000000
 25 3.689260 -4.550930 -4.829990 0.000000 0.000000 0.628917
 26 3.087020 -2.930260 -1.806420 0.000000 0.000000 0.000000
 27 10.169240 0.711430 -6.708540 0.000000 1.439514 0.000000
 28 2.770930 0.042420 -2.816470 0.000000 0.817903 0.000000
 29 -52.850708 -0.361260 -67.170868 1.570802 -0.000018 -0.000537
time 15
  0 1.278131 31.173819 46.164104 0.063470 0.057226 -0.284800
  1 9.062670 0.286610 -3.406700 -1.072984 -0.059252 0.334263
  2 4.544490 -1.638600 -20.622749 1.363429 -0.078787 0.282213
  3 3.070910 1.647970 -15.136740 0.117813 -0.251120 -0.188493
  4 -0.361640 -14.308061 -6.406600 -0.229166 0.000000 0.000000
  5 -9.522449 0.590440 -3.372560 -0.135492 -0.116223 -0.366131
  6 -4.141180 -1.081730 -20.790251 0.341912 0.035232 -0.064154
  7 -3.014440 0.974200 -14.527950 -0.180597 0.171248 0.706069
  8 0.361640 -14.494990 -6.882030 0.000000 0.000000 0.000000
  9 0.013460 -1.507020 5.475230 -0.009326 0.016335 0.107865
 10 -0.004780 1.092750 22.735540 0.000000 -0.078283 0.081868
 11 -0.976790 -3.346690 20.865768 0.001554 0.026330 0.147767
 12 0.975190 -4.916450 -4.520320 0.000000 0.000000 0.000000
 13 -2.406500 -8.600220 4.877150 0.000000 0.000000 0.000000
 14 4.381730 -8.600220 5.272540 0.000000 0.000000 0.000000
 15 -18.388140 0.440630 8.679390 -0.488863 -0.840670 0.241164
 16 -21.955891 -0.759690 -12.109390 -0.193375 -0.197550 1.129696
 17 -13.311041 1.530050 -7.133010 0.000005 -0.000018 -0.000010
 18 -9.635210 -0.302230 -6.530870 0.000000 -1.132666 0.000000
 19 -3.126290 0.042420 -2.638810 0.000000 -0.848579 0.000000
 20 -2.839340 -5.564580 -4.296970 0.000000 0.000000 -0.063466
 21 -3.811070 -2.785450 -1.806430 0.000000 0.000000 0.000000
 22 18.455151 0.440630 8.679390 0.709851 0.565884 0.571381
 23 21.943432 -0.878860 -11.911369 -0.230423 -0.026114 -1.116589
 24 13.133340 0.635550 -6.798010 0.000000 0.000000 0.000000
 25 3.689260 -4.550930 -4.829990 0.000000 0.000000 0.628917
 26 3.087020 -2.930260 -1.806420 0.000000 0.000000 0.000000
 27 10.169240 0.711430 -6.708540 0.000000 1.439514 0.000000
 28 2.770930 0.042420 -2.816470 0.000000 0.817903 0.000000
 29 -52.850708 -0.361260 -67.170868 1.570802 -0.000018 -0.000537
time 16
  0 1.278131 33.337284 45.074226 0.067257 0.073621 -0.328858
  1 9.062670 0.286610 -3.406700 -1.156621 -0.029779 0.376627
  2 4.544490 -1.638600 -20.622749 1.122066 -0.037068 0.244126
  3 3.070910 1.647970 -15.136740 0.112115 -0.219456 -0.185618
  4 -0.361640 -14.308061 -6.406600 -0.381271 0.000000 0.000000
  5 -9.522449 0.590440 -3.372560 -0.158813 -0.097876 -0.331321
  6 -4.141180 -1.081730 -20.790251 0.475330 0.054636 -0.085438
  7 -3.014440 0.974200 -14.527950 -0.289078 0.215566 0.731335
  8 0.361640 -14.494990 -6.882030 0.000000 0.000000 0.000000
  9 0.013460 -1.507020 5.475230 -0.010592 0.013962 0.118709
 10 -0.004780 1.092750 22.735540 0.000000 -0.082957 0.098412
 11 -0.976790 -3.346690 20.865768 -0.026230 0.022423 0.168353
 12 0.975190 -4.916450 -4.520320 0.000000 0.000000 0.000000
 13 -2.406500 -8.600220 4.877150 0.000000 0.000000 0.000000
 14 4.381730 -8.600220 5.272540 0.000000 0.000000 0.000000
 15 -18.388140 0.440630 8.679390 -0.574856 -0.848741 0.298814
 16 -21.955891 -0.759690 -12.109390 -0.191100 -0.220889 1.145998
 17 -13.311041 1.530050 -7.133010 0.000005 -0.000018 -0.000010
 18 -9.635210 -0.302230 -6.530870 0.000000 -1.132666 0.000000
 19 -3.126290 0.042420 -2.638810 0.000000 -0.848579 0.000000
 20 -2.839340 -5.564580 -4.296970 0.000000 0.000000 -0.037247
 21 -3.811070 -2.785450 -1.806430 0.000000 0.000000 0.000000
 22 18.455151 0.440630 8.679390 0.779019 0.556060 0.628158
 23 21.943432 -0.878860 -11.911369 -0.230902 -0.020930 -1.118943
 24 13.133340 0.635550 -6.798010 0.000000 0.000000 0.000000
 25 3.689260 -4.550930 -4.829990 0.000000 0.000000 0.628917
 26 3.087020 -2.930260 -1.806420 0.000000 0.000000 0.000000
 27 10.169240 0.711430 -6.708540 0.000000 1.439514 0.000000
 28 2.770930 0.042420 -2.816470 0.000000 0.817903 0.000000
 29 -52.850708 -0.361260 -67.170868 1.570802 -0.000018 -0.000537
time 17
  0 1.278131 35.500744 43.949192 0.070146 0.086145 -0.362487
  1 9.062670 0.286610 -3.406700 -1.157349 0.015379 0.413679
  2 4.544490 -1.638600 -20.622749 0.830865 -0.000815 0.187008
  3 3.070910 1.647970 -15.136740 0.260113 -0.188767 -0.194892
  4 -0.361640 -14.308061 -6.406600 -0.442099 0.000000 0.000000
  5 -9.522449 0.590440 -3.372560 -0.162510 -0.070929 -0.300466
  6 -4.141180 -1.081730 -20.790251 0.575721 0.071052 -0.099688
  7 -3.014440 0.974200 -14.527950 -0.390273 0.249605 0.745770
  8 0.361640 -14.494990 -6.882030 0.000000 0.000000 0.000000
  9 0.013460 -1.507020 5.475230 -0.011550 0.012164 0.126972
 10 -0.004780 1.092750 22.735540 0.000000 -0.086529 0.111043
 11 -0.976790 -3.346690 20.865768 -0.052047 0.020026 0.184452
 12 0.975190 -4.916450 -4.520320 0.000000 0.000000 0.000000
 13 -2.406500 -8.600220 4.877150 0.000000 0.000000 0.000000
 14 4.381730 -8.600220 5.272540 0.000000 0.000000 0.000000
 15 -18.388140 0.440630 8.679390 -0.640526 -0.854615 0.342805
 16 -21.955891 -0.759690 -12.109390 -0.189345 -0.238668 1.157999
 17 -13.311041 1.530050 -7.133010 0.000005 -0.000018 -0.000010
 18 -9.635210 -0.302230 -6.530870 0.000000 -1.132666 0.000000
 19 -3.126290 0.042420 -2.638810 0.000000 -0.848579 0.000000
 20 -2.839340 -5.564580 -4.296970 0.000000 0.000000 -0.017248
 21 -3.811070 -2.785450 -1.806430 0.000000 0.000000 0.000000
 22 18.455151 0.440630 8.679390 0.831801 0.548544 0.671464
 23 21.943432 -0.878860 -11.911369 -0.231207 -0.016958 -1.120420
 24 13.133340 0.635550 -6.798010 0.000000 0.000000 0.000000
 25 3.689260 -4.550930 -4.829990 0.000000 0.000000 0.628917
 26 3.087020 -2.930260 -1.806420 0.000000 0.000000 0.000000
 27 10.169240 0.711430 -6.708540 0.000000 1.439514 0.000000
 28 2.770930 0.042420 -2.816470 0.000000 0.817903 0.000000
 29 -52.850708 -0.361260 -67.170868 1.570802 -0.000018 -0.000537
time 18
  0 1.278131 37.664211 42.859314 0.072001 0.094127 -0.383950
  1 9.062670 0.286610 -3.406700 -0.971414 0.071912 0.447444
  2 4.544490 -1.638600 -20.622749 0.403987 0.019307 0.090939
  3 3.070910 1.647970 -15.136740 0.481994 -0.132976 -0.196353
  4 -0.361640 -14.308061 -6.406600 -0.221050 0.000000 0.000000
  5 -9.522449 0.590440 -3.372560 -0.143114 -0.036443 -0.273568
  6 -4.141180 -1.081730 -20.790251 0.640757 0.082416 -0.108029
  7 -3.014440 0.974200 -14.527950 -0.485213 0.271048 0.748672
  8 0.361640 -14.494990 -6.882030 0.000000 0.000000 0.000000
  9 0.013460 -1.507020 5.475230 -0.012166 0.011014 0.132249
 10 -0.004780 1.092750 22.735540 0.000000 -0.088794 0.119093
 11 -0.976790 -3.346690 20.865768 -0.073978 0.018768 0.194941
 12 0.975190 -4.916450 -4.520320 0.000000 0.000000 0.000000
 13 -2.406500 -8.600220 4.877150 0.000000 0.000000 0.000000
 14 4.381730 -8.600220 5.272540 0.000000 0.000000 0.000000
 15 -18.388140 0.440630 8.679390 -0.682417 -0.858180 0.370845
 16 -21.955891 -0.759690 -12.109390 -0.188240 -0.250036 1.165471
 17 -13.311041 1.530050 -7.133010 0.000005 -0.000018 -0.000010
 18 -9.635210 -0.302230 -6.530870 0.000000 -1.132666 0.000000
 19 -3.126290 0.042420 -2.638810 0.000000 -0.848579 0.000000
 20 -2.839340 -5.564580 -4.296970 0.000000 0.000000 -0.004474
 21 -3.811070 -2.785450 -1.806430 0.000000 0.000000 0.000000
 22 18.455151 0.440630 8.679390 0.865464 0.543750 0.699088
 23 21.943432 -0.878860 -11.911369 -0.231337 -0.014423 -1.121204
 24 13.133340 0.635550 -6.798010 0.000000 0.000000 0.000000
 25 3.689260 -4.550930 -4.829990 0.000000 0.000000 0.628917
 26 3.087020 -2.930260 -1.806420 0.000000 0.000000 0.000000
 27 10.169240 0.711430 -6.708540 0.000000 1.439514 0.000000
 28 2.770930 0.042420 -2.816470 0.000000 0.817903 0.000000
 29 -52.850708 -0.361260 -67.170868 1.570802 -0.000018 -0.000537
time 19
  0 1.278131 39.827675 41.882721 0.072633 0.096931 -0.391507
  1 9.062670 0.286610 -3.406700 -0.824776 0.101311 0.482423
  2 4.544490 -1.638600 -20.622749 0.196380 0.013998 0.043276
  3 3.070910 1.647970 -15.136740 0.536781 -0.103361 -0.204444
  4 -0.361640 -14.308061 -6.406600 0.000000 0.000000 0.000000
  5 -9.522449 0.590440 -3.372560 -0.095504 0.003537 -0.250754
  6 -4.141180 -1.081730 -20.790251 0.663018 0.086436 -0.110714
  7 -3.014440 0.974200 -14.527950 -0.571192 0.276398 0.738747
  8 0.361640 -14.494990 -6.882030 0.000000 0.000000 0.000000
  9 0.013460 -1.507020 5.475230 -0.012388 0.010606 0.134113
 10 -0.004780 1.092750 22.735540 0.000000 -0.089597 0.121912
 11 -0.976790 -3.346690 20.865768 -0.090348 0.018396 0.198670
 12 0.975190 -4.916450 -4.520320 0.000000 0.000000 0.000000
 13 -2.406500 -8.600220 4.877150 0.000000 0.000000 0.000000
 14 4.381730 -8.600220 5.272540 0.000000 0.000000 0.000000
 15 -18.388140 0.440630 8.679390 -0.697141 -0.859406 0.380730
 16 -21.955891 -0.759690 -12.109390 -0.187850 -0.254038 1.168018
 17 -13.311041 1.530050 -7.133010 0.000005 -0.000018 -0.000010
 18 -9.635210 -0.302230 -6.530870 0.000000 -1.132666 0.000000
 19 -3.126290 0.042420 -2.638810 0.000000 -0.848579 0.000000
 20 -2.839340 -5.564580 -4.296970 0.000000 0.000000 0.000000
 21 -3.811070 -2.785450 -1.806430 0.000000 0.000000 0.000000
 22 18.455151 0.440630 8.679390 0.877279 0.542093 0.708778
 23 21.943432 -0.878860 -11.911369 -0.231381 -0.013550 -1.121435
 24 13.133340 0.635550 -6.798010 0.000000 0.000000 0.000000
 25 3.689260 -4.550930 -4.829990 0.000000 0.000000 0.628917
 26 3.087020 -2.930260 -1.806420 0.000000 0.000000 0.000000
 27 10.169240 0.711430 -6.708540 0.000000 1.439514 0.000000
 28 2.770930 0.042420 -2.816470 0.000000 0.817903 0.000000
 29 -52.850708 -0.361260 -67.170868 1.570802 -0.000018 -0.000537
time 20
  0 1.278131 41.991138 41.093636 0.071925 0.093791 -0.383043
  1 9.062670 0.286610 -3.406700 -0.932636 0.083285 0.494722
  2 4.544490 -1.638600 -20.622749 0.528363 0.017713 0.119654
  3 3.070910 1.647970 -15.136740 0.326796 -0.163396 -0.250095
  4 -0.361640 -14.308061 -6.406600 0.000000 0.000000 0.000000
  5 -9.522449 0.590440 -3.372560 -0.067746 0.038149 -0.222346
  6 -4.141180 -1.081730 -20.790251 0.740276 0.100800 -0.119319
  7 -3.014440 0.974200 -14.527950 -0.624546 0.298536 0.710785
  8 0.361640 -14.494990 -6.882030 0.000000 0.000000 0.000000
  9 0.013460 -1.507020 5.475230 -0.012149 0.011062 0.132035
 10 -0.004780 1.092750 22.735540 0.000000 -0.088698 0.118759
 11 -0.976790 -3.346690 20.865768 -0.099577 0.018816 0.194365
 12 0.975190 -4.916450 -4.520320 0.000000 0.000000 0.000000
 13 -2.406500 -8.600220 4.877150 0.000000 0.000000 0.000000
 14 4.381730 -8.600220 5.272540 0.000000 0.000000 0.000000
 15 -18.388140 0.440630 8.679390 -0.680689 -0.856240 0.369700
 16 -21.955891 -0.759690 -12.109390 -0.188305 -0.249576 1.162697
 17 -13.311041 1.530050 -7.133010 0.000005 -0.000018 -0.000010
 18 -9.635210 -0.302230 -6.530870 0.000000 -1.132666 0.000000
 19 -3.126290 0.042420 -2.638810 0.000000 -0.848579 0.000000
 20 -2.839340 -5.564580 -4.296970 0.000000 0.000000 -0.005011
 21 -3.811070 -2.785450 -1.806430 0.000000 0.000000 0.000000
 22 18.455151 0.440630 8.679390 0.864039 0.543957 0.697922
 23 21.943432 -0.878860 -11.911369 -0.230902 -0.014536 -1.119266
 24 13.133340 0.635550 -6.798010 0.000000 0.000000 0.000000
 25 3.689260 -4.550930 -4.829990 0.000000 0.000000 0.628917
 26 3.087020 -2.930260 -1.806420 0.000000 0.000000 0.000000
 27 10.169240 0.711430 -6.708540 0.000000 1.439514 0.000000
 28 2.770930 0.042420 -2.816470 0.000000 0.817903 0.000000
 29 -52.850708 -0.361260 -67.170868 1.570802 -0.000018 -0.000537
time 21
  0 1.278131 44.154598 40.566277 0.069859 0.084887 -0.359162
  1 9.062670 0.286610 -3.406700 -0.966164 0.084177 0.501571
  2 4.544490 -1.638600 -20.622749 0.718296 0.008461 0.162595
  3 3.070910 1.647970 -15.136740 0.189502 -0.210381 -0.288582
  4 -0.361640 -14.308061 -6.406600 0.000000 0.000000 0.000000
  5 -9.522449 0.590440 -3.372560 -0.085152 0.060768 -0.185384
  6 -4.141180 -1.081730 -20.790251 0.923235 0.137136 -0.135138
  7 -3.014440 0.974200 -14.527950 -0.626770 0.348562 0.660874
  8 0.361640 -14.494990 -6.882030 0.000000 0.000000 0.000000
  9 0.013460 -1.507020 5.475230 -0.011464 0.012344 0.126153
 10 -0.004780 1.092750 22.735540 0.000000 -0.086169 0.109782
 11 -0.976790 -3.346690 20.865768 -0.100864 0.020194 0.182269
 12 0.975190 -4.916450 -4.520320 0.000000 0.000000 0.000000
 13 -2.406500 -8.600220 4.877150 0.000000 0.000000 0.000000
 14 4.381730 -8.600220 5.272540 0.000000 0.000000 0.000000
 15 -18.388140 0.440630 8.679390 -0.633959 -0.847286 0.338393
 16 -21.955891 -0.759690 -12.109390 -0.189540 -0.236897 1.147640
 17 -13.311041 1.530050 -7.133010 0.000005 -0.000018 -0.000010
 18 -9.635210 -0.302230 -6.530870 0.000000 -1.132666 0.000000
 19 -3.126290 0.042420 -2.638810 0.000000 -0.848579 0.000000
 20 -2.839340 -5.564580 -4.296970 0.000000 0.000000 -0.019239
 21 -3.811070 -2.785450 -1.806430 0.000000 0.000000 0.000000
 22 18.455151 0.440630 8.679390 0.826516 0.549283 0.667121
 23 21.943432 -0.878860 -11.911369 -0.229465 -0.017353 -1.113173
 24 13.133340 0.635550 -6.798010 0.000000 0.000000 0.000000
 25 3.689260 -4.550930 -4.829990 0.000000 0.000000 0.628917
 26 3.087020 -2.930260 -1.806420 0.000000 0.000000 0.000000
 27 10.169240 0.711430 -6.708540 0.000000 1.439514 0.000000
 28 2.770930 0.042420 -2.816470 0.000000 0.817903 0.000000
 29 -52.850708 -0.361260 -67.170868 1.570802 -0.000018 -0.000537
time 22
  0 1.278131 46.318062 40.370956 0.066645 0.070997 -0.321830
  1 9.062670 0.286610 -3.406700 -0.955248 0.095273 0.502262
  2 4.544490 -1.638600 -20.622749 0.837964 -0.001486 0.188506
  3 3.070910 1.647970 -15.136740 0.083432 -0.252681 -0.326791
  4 -0.361640 -14.308061 -6.406600 0.000000 0.000000 0.000000
  5 -9.522449 0.590440 -3.372560 -0.115924 0.074412 -0.148403
  6 -4.141180 -1.081730 -20.790251 1.142058 0.183288 -0.144954
  7 -3.014440 0.974200 -14.527950 -0.579832 0.393996 0.591837
  8 0.361640 -14.494990 -6.882030 0.000000 0.000000 0.000000
  9 0.013460 -1.507020 5.475230 -0.010386 0.014346 0.116971
 10 -0.004780 1.092750 22.735540 0.000000 -0.082214 0.095760
 11 -0.976790 -3.346690 20.865768 -0.094161 0.022915 0.163836
 12 0.975190 -4.916450 -4.520320 0.000000 0.000000 0.000000
 13 -2.406500 -8.600220 4.877150 0.000000 0.000000 0.000000
 14 4.381730 -8.600220 5.272540 0.000000 0.000000 0.000000
 15 -18.388140 0.440630 8.679390 -0.561100 -0.833313 0.289567
 16 -21.955891 -0.759690 -12.109390 -0.191490 -0.217135 1.124148
 17 -13.311041 1.530050 -7.133010 0.000005 -0.000018 -0.000010
 18 -9.635210 -0.302230 -6.530870 0.000000 -1.132666 0.000000
 19 -3.126290 0.042420 -2.638810 0.000000 -0.848579 0.000000
 20 -2.839340 -5.564580 -4.296970 0.000000 0.000000 -0.041453
 21 -3.811070 -2.785450 -1.806430 0.000000 0.000000 0.000000
 22 18.455151 0.440630 8.679390 0.767916 0.557628 0.619030
 23 21.943432 -0.878860 -11.911369 -0.227287 -0.021776 -1.103711
 24 13.133340 0.635550 -6.798010 0.000000 0.000000 0.000000
 25 3.689260 -4.550930 -4.829990 0.000000 0.000000 0.628917
 26 3.087020 -2.930260 -1.806420 0.000000 0.000000 0.000000
 27 10.169240 0.711430 -6.708540 0.000000 1.439514 0.000000
 28 2.770930 0.042420 -2.816470 0.000000 0.817903 0.000000
 29 -52.850708 -0.361260 -67.170868 1.570802 -0.000018 -0.000537
time 23
  0 1.278131 48.481525 40.863159 0.062475 0.052864 -0.273162
  1 9.062670 0.286610 -3.406700 -0.887049 0.111720 0.502554
  2 4.544490 -1.638600 -20.622749 0.888598 -0.006639 0.199100
  3 3.070910 1.647970 -15.136740 -0.006083 -0.286980 -0.369011
  4 -0.361640 -14.308061 -6.406600 0.000000 0.000000 0.000000
  5 -9.522449 0.590440 -3.372560 -0.127073 0.081791 -0.119977
  6 -4.141180 -1.081730 -20.790251 1.322035 0.221845 -0.145253
  7 -3.014440 0.974200 -14.527950 -0.474317 0.409373 0.516426
  8 0.361640 -14.494990 -6.882030 0.000000 0.000000 0.000000
  9 0.013460 -1.507020 5.475230 -0.009000 0.016958 0.104993
 10 -0.004780 1.092750 22.735540 0.000000 -0.077049 0.077491
 11 -0.976790 -3.346690 20.865768 -0.075727 0.027409 0.140825
 12 0.975190 -4.916450 -4.520320 0.000000 0.000000 0.000000
 13 -2.406500 -8.600220 4.877150 0.000000 0.000000 0.000000
 14 4.381730 -8.600220 5.272540 0.000000 0.000000 0.000000
 15 -18.388140 0.440630 8.679390 -0.465982 -0.815091 0.225892
 16 -21.955891 -0.759690 -12.109390 -0.193960 -0.191352 1.093468
 17 -13.311041 1.530050 -7.133010 0.000005 -0.000018 -0.000010
 18 -9.635210 -0.302230 -6.530870 0.000000 -1.132666 0.000000
 19 -3.126290 0.042420 -2.638810 0.000000 -0.848579 0.000000
 20 -2.839340 -5.564580 -4.296970 0.000000 0.000000 -0.070423
 21 -3.811070 -2.785450 -1.806430 0.000000 0.000000 0.000000
 22 18.455151 0.440630 8.679390 0.691445 0.568487 0.556343
 23 21.943432 -0.878860 -11.911369 -0.224413 -0.027494 -1.091295
 24 13.133340 0.635550 -6.798010 0.000000 0.000000 0.000000
 25 3.689260 -4.550930 -4.829990 0.000000 0.000000 0.628917
 26 3.087020 -2.930260 -1.806420 0.000000 0.000000 0.000000
 27 10.169240 0.711430 -6.708540 0.000000 1.439514 0.000000
 28 2.770930 0.042420 -2.816470 0.000000 0.817903 0.000000
 29 -52.850708 -0.361260 -67.170868 1.570802 -0.000018 -0.000537
time 24
  0 1.278131 50.644993 42.081947 0.057482 0.031280 -0.215124
  1 9.062670 0.286610 -3.406700 -0.757514 0.126339 0.503122
  2 4.544490 -1.638600 -20.622749 0.860564 -0.003715 0.193264
  3 3.070910 1.647970 -15.136740 -0.077348 -0.303764 -0.414708
  4 -0.361640 -14.308061 -6.406600 0.000000 0.000000 0.000000
  5 -9.522449 0.590440 -3.372560 -0.113365 0.082562 -0.103381
  6 -4.141180 -1.081730 -20.790251 1.441632 0.247045 -0.141538
  7 -3.014440 0.974200 -14.527950 -0.319317 0.393765 0.446016
  8 0.361640 -14.494990 -6.882030 0.000000 0.000000 0.000000
  9 0.013460 -1.507020 5.475230 -0.007341 0.020074 0.090723
 10 -0.004780 1.092750 22.735540 0.000000 -0.070901 0.055716
 11 -0.976790 -3.346690 20.865768 -0.045514 0.033988 0.114721
 12 0.975190 -4.916450 -4.520320 0.000000 0.000000 0.000000
 13 -2.406500 -8.600220 4.877150 0.000000 0.000000 0.000000
 14 4.381730 -8.600220 5.272540 0.000000 0.000000 0.000000
 15 -18.388140 0.440630 8.679390 -0.352753 -0.793390 0.150044
 16 -21.955891 -0.759690 -12.109390 -0.196950 -0.160647 1.057013
 17 -13.311041 1.530050 -7.133010 0.000005 -0.000018 -0.000010
 18 -9.635210 -0.302230 -6.530870 0.000000 -1.132666 0.000000
 19 -3.126290 0.042420 -2.638810 0.000000 -0.848579 0.000000
 20 -2.839340 -5.564580 -4.296970 0.000000 0.000000 -0.104918
 21 -3.811070 -2.785450 -1.806430 0.000000 0.000000 0.000000
 22 18.455151 0.440630 8.679390 0.600428 0.581418 0.481673
 23 21.943432 -0.878860 -11.911369 -0.221016 -0.034339 -1.076524
 24 13.133340 0.635550 -6.798010 0.000000 0.000000 0.000000
 25 3.689260 -4.550930 -4.829990 0.000000 0.000000 0.628917
 26 3.087020 -2.930260 -1.806420 0.000000 0.000000 0.000000
 27 10.169240 0.711430 -6.708540 0.000000 1.439514 0.000000
 28 2.770930 0.042420 -2.816470 0.000000 0.817903 0.000000
 29 -52.850708 -0.361260 -67.170868 1.570802 -0.000018 -0.000537
time 25
  0 1.278131 52.808453 43.671841 0.051878 0.007011 -0.149981
  1 9.062670 0.286610 -3.406700 -0.587745 0.136675 0.500174
  2 4.544490 -1.638600 -20.622749 0.753718 0.005836 0.170373
  3 3.070910 1.647970 -15.136740 -0.115272 -0.294421 -0.460359
  4 -0.361640 -14.308061 -6.406600 0.000000 0.000000 0.000000
  5 -9.522449 0.590440 -3.372560 -0.093001 0.076333 -0.096813
  6 -4.141180 -1.081730 -20.790251 1.524636 0.264085 -0.137164
  7 -3.014440 0.974200 -14.527950 -0.146941 0.358357 0.383432
  8 0.361640 -14.494990 -6.882030 0.000000 0.000000 0.000000
  9 0.013460 -1.507020 5.475230 -0.005476 0.023574 0.074689
 10 -0.004780 1.092750 22.735540 0.000000 -0.063986 0.031252
 11 -0.976790 -3.346690 20.865768 -0.009375 0.042737 0.086556
 12 0.975190 -4.916450 -4.520320 0.000000 0.000000 0.000000
 13 -2.406500 -8.600220 4.877150 0.000000 0.000000 0.000000
 14 4.381730 -8.600220 5.272540 0.000000 0.000000 0.000000
 15 -18.388140 0.440630 8.679390 -0.225422 -0.768979 0.064735
 16 -21.955891 -0.759690 -12.109390 -0.200330 -0.126116 1.015917
 17 -13.311041 1.530050 -7.133010 0.000005 -0.000018 -0.000010
 18 -9.635210 -0.302230 -6.530870 0.000000 -1.132666 0.000000
 19 -3.126290 0.042420 -2.638810 0.000000 -0.848579 0.000000
 20 -2.839340 -5.564580 -4.296970 0.000000 0.000000 -0.143732
 21 -3.811070 -2.785450 -1.806430 0.000000 0.000000 0.000000
 22 18.455151 0.440630 8.679390 0.498071 0.595947 0.397675
 23 21.943432 -0.878860 -11.911369 -0.217184 -0.042030 -1.059954
 24 13.133340 0.635550 -6.798010 0.000000 0.000000 0.000000
 25 3.689260 -4.550930 -4.829990 0.000000 0.000000 0.628917
 26 3.087020 -2.930260 -1.806420 0.000000 0.000000 0.000000
 27 10.169240 0.711430 -6.708540 0.000000 1.439514 0.000000
 28 2.770930 0.042420 -2.816470 0.000000 0.817903 0.000000
 29 -52.850708 -0.361260 -67.170868 1.570802 -0.000018 -0.000537
time 26
  0 1.278131 54.971916 45.261730 0.045833 -0.019175 -0.079549
  1 9.062670 0.286610 -3.406700 -0.397704 0.144408 0.492911
  2 4.544490 -1.638600 -20.622749 0.574724 0.016215 0.130284
  3 3.070910 1.647970 -15.136740 -0.111884 -0.254950 -0.501976
  4 -0.361640 -14.308061 -6.406600 0.000000 0.000000 0.000000
  5 -9.522449 0.590440 -3.372560 -0.080146 0.065095 -0.097549
  6 -4.141180 -1.081730 -20.790251 1.588290 0.276817 -0.132837
  7 -3.014440 0.974200 -14.527950 0.010284 0.310521 0.329478
  8 0.361640 -14.494990 -6.882030 0.000000 0.000000 0.000000
  9 0.013460 -1.507020 5.475230 -0.003474 0.027349 0.057371
 10 -0.004780 1.092750 22.735540 0.000000 -0.056531 0.004822
 11 -0.976790 -3.346690 20.865768 0.026473 0.053439 0.057148
 12 0.975190 -4.916450 -4.520320 0.000000 0.000000 0.000000
 13 -2.406500 -8.600220 4.877150 0.000000 0.000000 0.000000
 14 4.381730 -8.600220 5.272540 0.000000 0.000000 0.000000
 15 -18.388140 0.440630 8.679390 -0.088067 -0.742630 -0.027277
 16 -21.955891 -0.759690 -12.109390 -0.203970 -0.088823 0.971650
 17 -13.311041 1.530050 -7.133010 0.000005 -0.000018 -0.000010
 18 -9.635210 -0.302230 -6.530870 0.000000 -1.132666 0.000000
 19 -3.126290 0.042420 -2.638810 0.000000 -0.848579 0.000000
 20 -2.839340 -5.564580 -4.296970 0.000000 0.000000 -0.185587
 21 -3.811070 -2.785450 -1.806430 0.000000 0.000000 0.000000
 22 18.455151 0.440630 8.679390 0.387639 0.611630 0.307042
 23 21.943432 -0.878860 -11.911369 -0.213046 -0.050340 -1.041999
 24 13.133340 0.635550 -6.798010 0.000000 0.000000 0.000000
 25 3.689260 -4.550930 -4.829990 0.000000 0.000000 0.628917
 26 3.087020 -2.930260 -1.806420 0.000000 0.000000 0.000000
 27 10.169240 0.711430 -6.708540 0.000000 1.439514 0.000000
 28 2.770930 0.042420 -2.816470 0.000000 0.817903 0.000000
 29 -52.850708 -0.361260 -67.170868 1.570802 -0.000018 -0.000537
time 27
  0 1.278131 57.135380 46.484425 0.039520 -0.046524 -0.006093
  1 9.062670 0.286610 -3.406700 -0.205531 0.151308 0.478247
  2 4.544490 -1.638600 -20.622749 0.343284 0.018780 0.076905
  3 3.070910 1.647970 -15.136740 -0.072266 -0.188084 -0.530447
  4 -0.361640 -14.308061 -6.406600 0.000000 0.000000 0.000000
  5 -9.522449 0.590440 -3.372560 -0.085436 0.052241 -0.101302
  6 -4.141180 -1.081730 -20.790251 1.646924 0.288241 -0.128115
  7 -3.014440 0.974200 -14.527950 0.119184 0.254765 0.284672
  8 0.361640 -14.494990 -6.882030 0.000000 0.000000 0.000000
  9 0.013460 -1.507020 5.475230 -0.001369 0.031304 0.039297
 10 -0.004780 1.092750 22.735540 0.000000 -0.048741 -0.022721
 11 -0.976790 -3.346690 20.865768 0.055083 0.065664 0.027134
 12 0.975190 -4.916450 -4.520320 0.000000 0.000000 0.000000
 13 -2.406500 -8.600220 4.877150 0.000000 0.000000 0.000000
 14 4.381730 -8.600220 5.272540 0.000000 0.000000 0.000000
 15 -18.388140 0.440630 8.679390 0.055370 -0.715112 -0.123361
 16 -21.955891 -0.759690 -12.109390 -0.207740 -0.049936 0.925346
 17 -13.311041 1.530050 -7.133010 0.000005 -0.000018 -0.000010
 18 -9.635210 -0.302230 -6.530870 0.000000 -1.132666 0.000000
 19 -3.126290 0.042420 -2.638810 0.000000 -0.848579 0.000000
 20 -2.839340 -5.564580 -4.296970 0.000000 0.000000 -0.229299
 21 -3.811070 -2.785450 -1.806430 0.000000 0.000000 0.000000
 22 18.455151 0.440630 8.679390 0.272280 0.628023 0.212428
 23 21.943432 -0.878860 -11.911369 -0.208691 -0.059016 -1.023305
 24 13.133340 0.635550 -6.798010 0.000000 0.000000 0.000000
 25 3.689260 -4.550930 -4.829990 0.000000 0.000000 0.628917
 26 3.087020 -2.930260 -1.806420 0.000000 0.000000 0.000000
 27 10.169240 0.711430 -6.708540 0.000000 1.439514 0.000000
 28 2.770930 0.042420 -2.816470 0.000000 0.817903 0.000000
 29 -52.850708 -0.361260 -67.170868 1.570802 -0.000018 -0.000537
time 28
  0 1.278131 59.298843 46.972721 0.033112 -0.074257 0.068344
  1 9.062670 0.286610 -3.406700 -0.046627 0.157843 0.448980
  2 4.544490 -1.638600 -20.622749 0.131113 0.010295 0.028619
  3 3.070910 1.647970 -15.136740 -0.026412 -0.119022 -0.541228
  4 -0.361640 -14.308061 -6.406600 0.000000 0.000000 0.000000
  5 -9.522449 0.590440 -3.372560 -0.121726 0.051146 -0.117346
  6 -4.141180 -1.081730 -20.790251 1.711742 0.300481 -0.122099
  7 -3.014440 0.974200 -14.527950 0.152066 0.208446 0.259249
  8 0.361640 -14.494990 -6.882030 0.000000 0.000000 0.000000
  9 0.013460 -1.507020 5.475230 0.000753 0.035295 0.020971
 10 -0.004780 1.092750 22.735540 0.000000 -0.040843 -0.050690
 11 -0.976790 -3.346690 20.865768 0.068684 0.078739 -0.003001
 12 0.975190 -4.916450 -4.520320 0.000000 0.000000 0.000000
 13 -2.406500 -8.600220 4.877150 0.000000 0.000000 0.000000
 14 4.381730 -8.600220 5.272540 0.000000 0.000000 0.000000
 15 -18.388140 0.440630 8.679390 0.200812 -0.687222 -0.220802
 16 -21.955891 -0.759690 -12.109390 -0.211640 -0.010483 0.878476
 17 -13.311041 1.530050 -7.133010 0.000005 -0.000018 -0.000010
 18 -9.635210 -0.302230 -6.530870 0.000000 -1.132666 0.000000
 19 -3.126290 0.042420 -2.638810 0.000000 -0.848579 0.000000
 20 -2.839340 -5.564580 -4.296970 0.000000 0.000000 -0.273638
 21 -3.811070 -2.785450 -1.806430 0.000000 0.000000 0.000000
 22 18.455151 0.440630 8.679390 0.155317 0.644653 0.116488
 23 21.943432 -0.878860 -11.911369 -0.204336 -0.067806 -1.004334
 24 13.133340 0.635550 -6.798010 0.000000 0.000000 0.000000
 25 3.689260 -4.550930 -4.829990 0.000000 0.000000 0.628917
 26 3.087020 -2.930260 -1.806420 0.000000 0.000000 0.000000
 27 10.169240 0.711430 -6.708540 0.000000 1.439514 0.000000
 28 2.770930 0.042420 -2.816470 0.000000 0.817903 0.000000
 29 -52.850708 -0.361260 -67.170868 1.570802 -0.000018 -0.000537
time 29
  0 1.278131 61.462311 46.683651 0.026800 -0.101605 0.141800
  1 9.062670 0.286610 -3.406700 0.026562 0.157609 0.396282
  2 4.544490 -1.638600 -20.622749 0.081420 0.006843 0.017617
  3 3.070910 1.647970 -15.136740 -0.048742 -0.100751 -0.550409
  4 -0.361640 -14.308061 -6.406600 0.000000 0.000000 0.000000
  5 -9.522449 0.590440 -3.372560 -0.207390 0.070301 -0.149138
  6 -4.141180 -1.081730 -20.790251 1.791473 0.314905 -0.113590
  7 -3.014440 0.974200 -14.527950 0.036074 0.182601 0.256788
  8 0.361640 -14.494990 -6.882030 0.000000 0.000000 0.000000
  9 0.013460 -1.507020 5.475230 0.002840 0.039238 0.002897
 10 -0.004780 1.092750 22.735540 0.000000 -0.033054 -0.078270
 11 -0.976790 -3.346690 20.865768 0.065939 0.091910 -0.032743
 12 0.975190 -4.916450 -4.520320 0.000000 0.000000 0.000000
 13 -2.406500 -8.600220 4.877150 0.000000 0.000000 0.000000
 14 4.381730 -8.600220 5.272540 0.000000 0.000000 0.000000
 15 -18.388140 0.440630 8.679390 0.344250 -0.659732 -0.316886
 16 -21.955891 -0.759690 -12.109390 -0.215410 0.028404 0.832229
 17 -13.311041 1.530050 -7.133010 0.000005 -0.000018 -0.000010
 18 -9.635210 -0.302230 -6.530870 0.000000 -1.132666 0.000000
 19 -3.126290 0.042420 -2.638810 0.000000 -0.848579 0.000000
 20 -2.839340 -5.564580 -4.296970 0.000000 0.000000 -0.317350
 21 -3.811070 -2.785450 -1.806430 0.000000 0.000000 0.000000
 22 18.455151 0.440630 8.679390 0.040017 0.661016 0.021874
 23 21.943432 -0.878860 -11.911369 -0.199981 -0.076482 -0.985641
 24 13.133340 0.635550 -6.798010 0.000000 0.000000 0.000000
 25 3.689260 -4.550930 -4.829990 0.000000 0.000000 0.628917
 26 3.087020 -2.930260 -1.806420 0.000000 0.000000 0.000000
 27 10.169240 0.711430 -6.708540 0.000000 1.439514 0.000000
 28 2.770930 0.042420 -2.816470 0.000000 0.817903 0.000000
 29 -52.850708 -0.361260 -67.170868 1.570802 -0.000018 -0.000537
time 30
  0 1.278131 63.625771 45.921909 0.020755 -0.127804 0.212232
  1 9.062670 0.286610 -3.406700 0.036646 0.149203 0.327875
  2 4.544490 -1.638600 -20.622749 0.168636 0.012548 0.037020
  3 3.070910 1.647970 -15.136740 -0.137448 -0.128048 -0.564900
  4 -0.361640 -14.308061 -6.406600 0.000000 0.000000 0.000000
  5 -9.522449 0.590440 -3.372560 -0.348456 0.106152 -0.190278
  6 -4.141180 -1.081730 -20.790251 1.872222 0.328717 -0.103799
  7 -3.014440 0.974200 -14.527950 -0.212545 0.170405 0.268942
  8 0.361640 -14.494990 -6.882030 0.000000 0.000000 0.000000
  9 0.013460 -1.507020 5.475230 0.004860 0.043025 -0.014396
 10 -0.004780 1.092750 22.735540 0.000000 -0.025599 -0.104681
 11 -0.976790 -3.346690 20.865768 0.052241 0.104422 -0.061302
 12 0.975190 -4.916450 -4.520320 0.000000 0.000000 0.000000
 13 -2.406500 -8.600220 4.877150 0.000000 0.000000 0.000000
 14 4.381730 -8.600220 5.272540 0.000000 0.000000 0.000000
 15 -18.388140 0.440630 8.679390 0.481673 -0.633383 -0.408940
 16 -21.955891 -0.759690 -12.109390 -0.219050 0.065661 0.787906
 17 -13.311041 1.530050 -7.133010 0.000005 -0.000018 -0.000010
 18 -9.635210 -0.302230 -6.530870 0.000000 -1.132666 0.000000
 19 -3.126290 0.042420 -2.638810 0.000000 -0.848579 0.000000
 20 -2.839340 -5.564580 -4.296970 0.000000 0.000000 -0.359228
 21 -3.811070 -2.785450 -1.806430 0.000000 0.000000 0.000000
 22 18.455151 0.440630 8.679390 -0.070415 0.676728 -0.068719
 23 21.943432 -0.878860 -11.911369 -0.195844 -0.084792 -0.967732
 24 13.133340 0.635550 -6.798010 0.000000 0.000000 0.000000
 25 3.689260 -4.550930 -4.829990 0.000000 0.000000 0.628917
 26 3.087020 -2.930260 -1.806420 0.000000 0.000000 0.000000
 27 10.169240 0.711430 -6.708540 0.000000 1.439514 0.000000
 28 2.770930 0.042420 -2.816470 0.000000 0.817903 0.000000
 29 -52.850708 -0.361260 -67.170868 1.570802 -0.000018 -0.000537
time 31
  0 1.278131 65.789230 44.847656 0.015150 -0.152084 0.277374
  1 9.062670 0.286610 -3.406700 0.025678 0.137172 0.255000
  2 4.544490 -1.638600 -20.622749 0.296272 0.017785 0.066071
  3 3.070910 1.647970 -15.136740 -0.245944 -0.168861 -0.576724
  4 -0.361640 -14.308061 -6.406600 0.000000 0.000000 0.000000
  5 -9.522449 0.590440 -3.372560 -0.538497 0.151338 -0.245731
  6 -4.141180 -1.081730 -20.790251 1.924891 0.337261 -0.096788
  7 -3.014440 0.974200 -14.527950 -0.484536 0.168699 0.287134
  8 0.361640 -14.494990 -6.882030 0.000000 0.000000 0.000000
  9 0.013460 -1.507020 5.475230 0.006725 0.046524 -0.030430
 10 -0.004780 1.092750 22.735540 0.000000 -0.018684 -0.129164
 11 -0.976790 -3.346690 20.865768 0.030140 0.115603 -0.088194
 12 0.975190 -4.916450 -4.520320 0.000000 0.000000 0.000000
 13 -2.406500 -8.600220 4.877150 0.000000 0.000000 0.000000
 14 4.381730 -8.600220 5.272540 0.000000 0.000000 0.000000
 15 -18.388140 0.440630 8.679390 0.609004 -0.608973 -0.494249
 16 -21.955891 -0.759690 -12.109390 -0.222430 0.100192 0.746866
 17 -13.311041 1.530050 -7.133010 0.000005 -0.000018 -0.000010
 18 -9.635210 -0.302230 -6.530870 0.000000 -1.132666 0.000000
 19 -3.126290 0.042420 -2.638810 0.000000 -0.848579 0.000000
 20 -2.839340 -5.564580 -4.296970 0.000000 0.000000 -0.398019
 21 -3.811070 -2.785450 -1.806430 0.000000 0.000000 0.000000
 22 18.455151 0.440630 8.679390 -0.172772 0.691257 -0.152717
 23 21.943432 -0.878860 -11.911369 -0.192012 -0.092483 -0.951115
 24 13.133340 0.635550 -6.798010 0.000000 0.000000 0.000000
 25 3.689260 -4.550930 -4.829990 0.000000 0.000000 0.628917
 26 3.087020 -2.930260 -1.806420 0.000000 0.000000 0.000000
 27 10.169240 0.711430 -6.708540 0.000000 1.439514 0.000000
 28 2.770930 0.042420 -2.816470 0.000000 0.817903 0.000000
 29 -52.850708 -0.361260 -67.170868 1.570802 -0.000018 -0.000537
time 32
  0 1.278131 67.952698 43.617149 0.010157 -0.173669 0.335413
  1 9.062670 0.286610 -3.406700 0.013255 0.123824 0.184874
  2 4.544490 -1.638600 -20.622749 0.417968 0.019307 0.094163
  3 3.070910 1.647970 -15.136740 -0.351360 -0.207136 -0.583285
  4 -0.361640 -14.308061 -6.406600 0.000000 0.000000 0.000000
  5 -9.522449 0.590440 -3.372560 -0.762553 0.188212 -0.324182
  6 -4.141180 -1.081730 -20.790251 1.921472 0.336721 -0.097267
  7 -3.014440 0.974200 -14.527950 -0.682187 0.178388 0.303589
  8 0.361640 -14.494990 -6.882030 0.000000 0.000000 0.000000
  9 0.013460 -1.507020 5.475230 0.008384 0.049628 -0.044700
 10 -0.004780 1.092750 22.735540 0.000000 -0.012536 -0.150938
 11 -0.976790 -3.346690 20.865768 0.002647 0.124939 -0.112751
 12 0.975190 -4.916450 -4.520320 0.000000 0.000000 0.000000
 13 -2.406500 -8.600220 4.877150 0.000000 0.000000 0.000000
 14 4.381730 -8.600220 5.272540 0.000000 0.000000 0.000000
 15 -18.388140 0.440630 8.679390 0.722234 -0.587272 -0.570098
 16 -21.955891 -0.759690 -12.109390 -0.225420 0.130897 0.710355
 17 -13.311041 1.530050 -7.133010 0.000005 -0.000018 -0.000010
 18 -9.635210 -0.302230 -6.530870 0.000000 -1.132666 0.000000
 19 -3.126290 0.042420 -2.638810 0.000000 -0.848579 0.000000
 20 -2.839340 -5.564580 -4.296970 0.000000 0.000000 -0.432515
 21 -3.811070 -2.785450 -1.806430 0.000000 0.000000 0.000000
 22 18.455151 0.440630 8.679390 -0.263789 0.704188 -0.227386
 23 21.943432 -0.878860 -11.911369 -0.188615 -0.099328 -0.936391
 24 13.133340 0.635550 -6.798010 0.000000 0.000000 0.000000
 25 3.689260 -4.550930 -4.829990 0.000000 0.000000 0.628917
 26 3.087020 -2.930260 -1.806420 0.000000 0.000000 0.000000
 27 10.169240 0.711430 -6.708540 0.000000 1.439514 0.000000
 28 2.770930 0.042420 -2.816470 0.000000 0.817903 0.000000
 29 -52.850708 -0.361260 -67.170868 1.570802 -0.000018 -0.000537
time 33
  0 1.278131 70.116165 42.386642 0.005987 -0.191789 0.384081
  1 9.062670 0.286610 -3.406700 0.004106 0.110696 0.122210
  2 4.544490 -1.638600 -20.622749 0.520323 0.017929 0.117809
  3 3.070910 1.647970 -15.136740 -0.444994 -0.238337 -0.585534
  4 -0.361640 -14.308061 -6.406600 0.000000 0.000000 0.000000
  5 -9.522449 0.590440 -3.372560 -0.985812 0.192269 -0.421271
  6 -4.141180 -1.081730 -20.790251 1.845670 0.324265 -0.107142
  7 -3.014440 0.974200 -14.527950 -0.734671 0.200821 0.317350
  8 0.361640 -14.494990 -6.882030 0.000000 0.000000 0.000000
  9 0.013460 -1.507020 5.475230 0.009770 0.052253 -0.056678
 10 -0.004780 1.092750 22.735540 0.000000 -0.007383 -0.169207
 11 -0.976790 -3.346690 20.865768 -0.026546 0.132190 -0.134034
 12 0.975190 -4.916450 -4.520320 0.000000 0.000000 0.000000
 13 -2.406500 -8.600220 4.877150 0.000000 0.000000 0.000000
 14 4.381730 -8.600220 5.272540 0.000000 0.000000 0.000000
 15 -18.388140 0.440630 8.679390 0.817283 -0.569049 -0.633772
 16 -21.955891 -0.759690 -12.109390 -0.227955 0.156680 0.679674
 17 -13.311041 1.530050 -7.133010 0.000005 -0.000018 -0.000010
 18 -9.635210 -0.302230 -6.530870 0.000000 -1.132666 0.000000
 19 -3.126290 0.042420 -2.638810 0.000000 -0.848579 0.000000
 20 -2.839340 -5.564580 -4.296970 0.000000 0.000000 -0.461485
 21 -3.811070 -2.785450 -1.806430 0.000000 0.000000 0.000000
 22 18.455151 0.440630 8.679390 -0.340201 0.715048 -0.290074
 23 21.943432 -0.878860 -11.911369 -0.185741 -0.105075 -0.923975
 24 13.133340 0.635550 -6.798010 0.000000 0.000000 0.000000
 25 3.689260 -4.550930 -4.829990 0.000000 0.000000 0.628917
 26 3.087020 -2.930260 -1.806420 0.000000 0.000000 0.000000
 27 10.169240 0.711430 -6.708540 0.000000 1.439514 0.000000
 28 2.770930 0.042420 -2.816470 0.000000 0.817903 0.000000
 29 -52.850708 -0.361260 -67.170868 1.570802 -0.000018 -0.000537
time 34
  0 1.278131 72.279625 41.308487 0.002774 -0.205692 0.421413
  1 9.062670 0.286610 -3.406700 -0.001248 0.099293 0.071524
  2 4.544490 -1.638600 -20.622749 0.598483 0.015256 0.135702
  3 3.070910 1.647970 -15.136740 -0.520610 -0.261293 -0.585186
  4 -0.361640 -14.308061 -6.406600 0.000000 0.000000 0.000000
  5 -9.522449 0.590440 -3.372560 -1.161291 0.154174 -0.512712
  6 -4.141180 -1.081730 -20.790251 1.699666 0.298225 -0.123285
  7 -3.014440 0.974200 -14.527950 -0.590857 0.229405 0.335361
  8 0.361640 -14.494990 -6.882030 0.000000 0.000000 0.000000
  9 0.013460 -1.507020 5.475230 0.010831 0.054254 -0.065860
 10 -0.004780 1.092750 22.735540 0.000000 -0.003428 -0.183229
 11 -0.976790 -3.346690 20.865768 -0.053189 0.137283 -0.150890
 12 0.975190 -4.916450 -4.520320 0.000000 0.000000 0.000000
 13 -2.406500 -8.600220 4.877150 0.000000 0.000000 0.000000
 14 4.381730 -8.600220 5.272540 0.000000 0.000000 0.000000
 15 -18.388140 0.440630 8.679390 0.890211 -0.555076 -0.682598
 16 -21.955891 -0.759690 -12.109390 -0.229840 0.176442 0.656182
 17 -13.311041 1.530050 -7.133010 0.000005 -0.000018 -0.000010
 18 -9.635210 -0.302230 -6.530870 0.000000 -1.132666 0.000000
 19 -3.126290 0.042420 -2.638810 0.000000 -0.848579 0.000000
 20 -2.839340 -5.564580 -4.296970 0.000000 0.000000 -0.483699
 21 -3.811070 -2.785450 -1.806430 0.000000 0.000000 0.000000
 22 18.455151 0.440630 8.679390 -0.398801 0.723363 -0.338164
 23 21.943432 -0.878860 -11.911369 -0.183563 -0.109469 -0.914466
 24 13.133340 0.635550 -6.798010 0.000000 0.000000 0.000000
 25 3.689260 -4.550930 -4.829990 0.000000 0.000000 0.628917
 26 3.087020 -2.930260 -1.806420 0.000000 0.000000 0.000000
 27 10.169240 0.711430 -6.708540 0.000000 1.439514 0.000000
 28 2.770930 0.042420 -2.816470 0.000000 0.817903 0.000000
 29 -52.850708 -0.361260 -67.170868 1.570802 -0.000018 -0.000537
time 35
  0 1.278131 74.443085 40.265484 0.000000 -0.217736 0.453758
  1 9.062670 0.286610 -3.406700 -0.004990 0.088183 0.025151
  2 4.544490 -1.638600 -20.622749 0.667807 0.011721 0.151365
  3 3.070910 1.647970 -15.136740 -0.590528 -0.280906 -0.583216
  4 -0.361640 -14.308061 -6.406600 0.000000 0.000000 0.000000
  5 -9.522449 0.590440 -3.372560 -1.086606 0.029424 -0.602883
  6 -4.141180 -1.081730 -20.790251 1.020862 0.157500 -0.140783
  7 -3.014440 0.974200 -14.527950 -0.036300 0.195934 0.356740
  8 0.361640 -14.494990 -6.882030 0.000000 0.000000 0.000000
  9 0.013460 -1.507020 5.475230 0.011755 0.055992 -0.073820
 10 -0.004780 1.092750 22.735540 0.000000 0.000000 -0.195359
 11 -0.976790 -3.346690 20.865768 -0.079929 0.141298 -0.165897
 12 0.975190 -4.916450 -4.520320 0.000000 0.000000 0.000000
 13 -2.406500 -8.600220 4.877150 0.000000 0.000000 0.000000
 14 4.381730 -8.600220 5.272540 0.000000 0.000000 0.000000
 15 -18.388140 0.440630 8.679390 0.953393 -0.542957 -0.724935
 16 -21.955891 -0.759690 -12.109390 -0.231530 0.193583 0.635804
 17 -13.311041 1.530050 -7.133010 0.000005 -0.000018 -0.000010
 18 -9.635210 -0.302230 -6.530870 0.000000 -1.132666 0.000000
 19 -3.126290 0.042420 -2.638810 0.000000 -0.848579 0.000000
 20 -2.839340 -5.564580 -4.296970 0.000000 0.000000 -0.502960
 21 -3.811070 -2.785450 -1.806430 0.000000 0.000000 0.000000
 22 18.455151 0.440630 8.679390 -0.449624 0.730583 -0.379822
 23 21.943432 -0.878860 -11.911369 -0.181647 -0.113272 -0.906250
 24 13.133340 0.635550 -6.798010 0.000000 0.000000 0.000000
 25 3.689260 -4.550930 -4.829990 0.000000 0.000000 0.628917
 26 3.087020 -2.930260 -1.806420 0.000000 0.000000 0.000000
 27 10.169240 0.711430 -6.708540 0.000000 1.439514 0.000000
 28 2.770930 0.042420 -2.816470 0.000000 0.817903 0.000000
 29 -52.850708 -0.361260 -67.170868 1.570802 -0.000018 -0.000537
end
