version 1
nodes
  0 "Bip01"  -1
  1 "Bip01 Pelvis"   0
  2 "Bip01 Spine"   1
  3 "Bip01 Spine1"   2
  4 "Bip01 Spine2"   3
  5 "Bip01 Spine3"   4
  6 "Bip01 Neck"   5
  7 "Bip01 L Clavicle"   6
  8 "Bip01 L UpperArm"   7
  9 "Bip01 L Forearm"   8
 10 "Bip01 L Hand"   9
 11 "Bip01 L Finger0"  10
 12 "Bip01 L Finger01"  11
 13 "Bip01 L Finger02"  12
 14 "Bip01 L Finger1"  10
 15 "Bip01 L Finger11"  14
 16 "Bip01 L Finger12"  15
 17 "Bip01 L Finger2"  10
 18 "Bip01 L Finger21"  17
 19 "Bip01 L Finger22"  18
 20 "Bip01 L Finger3"  10
 21 "Bip01 L Finger31"  20
 22 "Bip01 L Finger32"  21
 23 "Bip01 L Finger4"  10
 24 "Bip01 L Finger41"  23
 25 "Bip01 L Finger42"  24
 26 "Bip01 R Clavicle"   6
 27 "Bip01 R UpperArm"  26
 28 "Bip01 R Forearm"  27
 29 "Bip01 R Hand"  28
 30 "Bip01 R Finger0"  29
 31 "Bip01 R Finger01"  30
 32 "Bip01 R Finger02"  31
 33 "Bip01 R Finger1"  29
 34 "Bip01 R Finger11"  33
 35 "Bip01 R Finger12"  34
 36 "Bip01 R Finger2"  29
 37 "Bip01 R Finger21"  36
 38 "Bip01 R Finger22"  37
 39 "Bip01 R Finger3"  29
 40 "Bip01 R Finger31"  39
 41 "Bip01 R Finger32"  40
 42 "Bip01 R Finger4"  29
 43 "Bip01 R Finger41"  42
 44 "Bip01 R Finger42"  43
 45 "Bip01 L Thigh"   1
 46 "Bip01 L Calf"  45
 47 "Bip01 L Foot"  46
 48 "Bip01 L Toe0"  47
 49 "Bip01 R Thigh"   1
 50 "Bip01 R Calf"  49
 51 "Bip01 R Foot"  50
 52 "Bip01 R Toe0"  51
 53 "Bip01 Head"   6
 54 "Bone05"  53
 55 "Dummy05"  53
 56 "L_eyebrow"  55
 57 "C_eyebrow"  55
 58 "R_eyebrow"  55
 59 "R_Eye"  55
 60 "Eyelids"  55
 61 "L_Eye"  55
 62 "m4"  29
end
skeleton
time 0
  0 0.061864 -0.061864 28.042744 -0.000000 -0.000000 -2.033675
  1 -0.526041 0.000001 9.745319 -1.570795 -1.570451 0.000000
  2 1.384163 -0.004728 0.000002 -0.372510 -0.003432 0.086496
  3 5.939814 -0.004730 0.000000 0.000000 -0.000000 0.000000
  4 5.939809 -0.003975 0.000000 0.000000 -0.000000 0.000000
  5 4.991439 -0.003975 0.000000 0.000000 -0.000000 0.000000
  6 4.991436 -0.001575 0.000000 0.000000 -0.000000 0.000000
  7 0.000005 0.001564 3.638375 -0.000010 -1.284244 3.140806
  8 8.842831 0.000000 -0.000002 -0.414790 -0.110670 -0.914407
  9 9.341934 0.000000 -0.000001 0.000000 -0.000000 -0.852910
 10 11.168404 -0.000001 0.000002 -4.515326 0.471369 -0.520329
 11 1.364904 0.231178 -1.984411 2.565341 0.787598 1.289571
 12 1.748536 -0.000002 0.000000 0.000000 -0.000000 -0.043583
 13 1.272494 0.000001 -0.000001 0.000000 -0.000000 0.253072
 14 4.525584 -0.000304 -1.850224 0.062830 0.072738 0.735167
 15 1.719872 -0.000002 0.000000 0.000000 -0.000000 0.619401
 16 1.383647 0.000002 0.000000 0.000000 -0.000000 0.741543
 17 4.525584 -0.000102 -0.616741 0.033441 0.040263 0.733428
 18 1.807673 0.000001 -0.000001 0.000000 -0.000000 0.567151
 19 1.614255 0.000001 0.000001 0.000000 -0.000000 0.741755
 20 4.525584 0.000101 0.616741 0.021751 0.027400 0.733115
 21 1.719869 0.000000 -0.000001 0.000000 -0.000000 0.366391
 22 1.383649 -0.000001 0.000000 0.000000 -0.000000 0.741540
 23 4.525584 0.000303 1.850224 -0.024750 -0.024701 0.733156
 24 1.433227 -0.000002 0.000000 0.000000 -0.000000 0.366391
 25 1.153039 0.000000 0.000000 0.000000 -0.000000 0.741536
 26 0.000005 0.001585 -3.638375 -0.000010 1.284244 3.140787
 27 8.842831 0.000000 0.000001 0.953658 -0.539239 -2.197666
 28 9.341937 0.000000 -0.000001 0.000000 -0.000000 -0.994809
 29 11.168404 -0.000001 0.000001 1.806623 0.074988 0.649563
 30 1.364904 0.231177 1.984410 -3.139615 0.004049 1.002218
 31 1.748536 -0.000002 0.000001 0.000000 -0.000000 0.436216
 32 1.272493 0.000001 0.000002 0.000000 -0.000000 0.322825
 33 4.525584 -0.000303 1.850224 -0.016269 -0.094622 0.192575
 34 1.719873 0.000001 0.000000 0.000000 -0.000000 0.034907
 35 1.383647 0.000000 -0.000001 0.000000 -0.000000 0.689317
 36 4.525584 -0.000101 0.616741 -0.040896 -0.032761 0.934331
 37 1.807674 -0.000001 0.000000 0.000000 -0.000000 0.907547
 38 1.614256 -0.000001 0.000000 0.000000 -0.000000 1.151884
 39 4.525584 0.000101 -0.616741 -0.026857 -0.022390 0.933877
 40 1.719871 -0.000002 0.000000 0.000000 -0.000000 0.907547
 41 1.383648 0.000001 0.000000 0.000000 -0.000000 1.151884
 42 4.525584 0.000304 -1.850223 0.029257 0.019248 0.933773
 43 1.433227 0.000002 0.000000 0.000000 -0.000000 0.907297
 44 1.153038 0.000000 0.000000 0.000000 -0.000000 1.151879
 45 -0.000008 0.000010 5.615750 -0.232973 -2.810701 5.718671
 46 15.693467 0.000000 0.000000 0.000000 -0.000000 -0.487110
 47 22.146629 -0.000001 0.000000 0.114917 -0.143960 -0.143101
 48 3.310129 5.734394 0.000000 0.000000 -0.000000 1.570796
 49 0.000008 -0.000006 -5.615750 -6.070920 2.899230 0.055036
 50 15.693467 0.000000 0.000000 0.000000 -0.000000 -0.482042
 51 22.146629 0.000000 0.000000 0.274770 0.247965 0.484863
 52 3.310129 5.734394 0.000000 0.000000 -0.000000 1.570796
 53 1.977383 0.000000 0.000000 0.835489 0.294278 0.195847
 54 3.723980 2.768054 -0.049087 -3.141592 -0.000002 1.570799
 55 11.781867 -0.001184 -0.000003 0.000000 -0.000000 0.000000
 56 -3.887187 4.546144 1.934869 -3.141591 -1.570796 0.000000
 57 -4.205003 4.546216 -0.015855 -3.141591 -1.570796 0.000000
 58 -3.887188 4.546179 -1.987145 -3.141591 -1.570796 0.000000
 59 -4.881806 5.593821 -1.566820 1.047319 -1.487704 2.076220
 60 -4.886902 5.683144 -0.007570 -3.132865 -1.570796 0.000000
 61 -4.881796 5.609550 1.546659 1.047319 -1.487704 2.076220
 62 3.710047 1.760547 -0.059361 -0.091798 -0.075923 1.616828
time 1
  0 0.061864 -0.061864 27.572376 -0.000000 -0.000000 -2.033675
  1 -0.526041 0.000001 9.745319 -1.570795 -1.570451 0.000000
  2 1.384163 -0.004728 0.000002 -0.372510 -0.003432 0.086496
  3 5.939814 -0.004730 0.000000 0.000000 -0.000000 0.000000
  4 5.939809 -0.003975 0.000000 0.000000 -0.000000 0.000000
  5 4.991439 -0.003975 0.000000 0.000000 -0.000000 0.000000
  6 4.991436 -0.001575 0.000000 0.000000 -0.000000 0.000000
  7 0.000005 0.001564 3.638375 -0.000010 -1.284244 3.140806
  8 8.842831 0.000000 -0.000002 -0.420642 -0.130388 -0.925158
  9 9.341934 0.000000 -0.000001 0.000000 -0.000000 -0.840937
 10 11.168404 -0.000001 0.000002 -4.529076 0.480841 -0.520689
 11 1.364904 0.231178 -1.984411 2.565341 0.787598 1.289571
 12 1.748536 -0.000002 0.000000 0.000000 -0.000000 -0.043583
 13 1.272494 0.000001 -0.000001 0.000000 -0.000000 0.253072
 14 4.525584 -0.000304 -1.850224 0.062830 0.072738 0.735167
 15 1.719872 -0.000002 0.000000 0.000000 -0.000000 0.619401
 16 1.383647 0.000002 0.000000 0.000000 -0.000000 0.741543
 17 4.525584 -0.000102 -0.616741 0.033441 0.040263 0.733428
 18 1.807673 0.000001 -0.000001 0.000000 -0.000000 0.567151
 19 1.614255 0.000001 0.000001 0.000000 -0.000000 0.741755
 20 4.525584 0.000101 0.616741 0.021751 0.027400 0.733115
 21 1.719869 0.000000 -0.000001 0.000000 -0.000000 0.366391
 22 1.383649 -0.000001 0.000000 0.000000 -0.000000 0.741540
 23 4.525584 0.000303 1.850224 -0.024750 -0.024701 0.733156
 24 1.433227 -0.000002 0.000000 0.000000 -0.000000 0.366391
 25 1.153039 0.000000 0.000000 0.000000 -0.000000 0.741536
 26 0.000005 0.001585 -3.638375 -0.000010 1.284244 3.140787
 27 8.842831 0.000000 0.000001 0.961912 -0.517747 -2.207957
 28 9.341937 0.000000 -0.000001 0.000000 -0.000000 -0.987962
 29 11.168404 -0.000001 0.000001 1.805411 0.069088 0.664698
 30 1.364904 0.231177 1.984410 -3.139615 0.004049 1.002218
 31 1.748536 -0.000002 0.000001 0.000000 -0.000000 0.436216
 32 1.272493 0.000001 0.000002 0.000000 -0.000000 0.322825
 33 4.525584 -0.000303 1.850224 -0.016269 -0.094622 0.192575
 34 1.719873 0.000001 0.000000 0.000000 -0.000000 0.034907
 35 1.383647 0.000000 -0.000001 0.000000 -0.000000 0.689317
 36 4.525584 -0.000101 0.616741 -0.040896 -0.032761 0.934331
 37 1.807674 -0.000001 0.000000 0.000000 -0.000000 0.907547
 38 1.614256 -0.000001 0.000000 0.000000 -0.000000 1.151884
 39 4.525584 0.000101 -0.616741 -0.026857 -0.022390 0.933877
 40 1.719871 -0.000002 0.000000 0.000000 -0.000000 0.907547
 41 1.383648 0.000001 0.000000 0.000000 -0.000000 1.151884
 42 4.525584 0.000304 -1.850223 0.029257 0.019248 0.933773
 43 1.433227 0.000002 0.000000 0.000000 -0.000000 0.907297
 44 1.153038 0.000000 0.000000 0.000000 -0.000000 1.151879
 45 -0.000008 0.000010 5.615750 -0.212648 -2.795841 5.658942
 46 15.693467 0.000000 0.000000 0.000000 -0.000000 -0.578308
 47 22.146629 -0.000001 0.000000 0.115553 -0.145768 -0.110339
 48 3.310129 5.734394 0.000000 0.000000 -0.000000 1.570796
 49 0.000008 -0.000006 -5.615750 -6.084630 2.885808 0.004415
 50 15.693467 0.000000 0.000000 0.000000 -0.000000 -0.573605
 51 22.146629 0.000000 0.000000 0.275729 0.251096 0.525872
 52 3.310129 5.734394 0.000000 0.000000 -0.000000 1.570796
 53 1.977383 0.000000 0.000000 0.835489 0.294278 0.195847
 54 3.723980 2.768054 -0.049087 -3.141592 -0.000002 1.570799
 55 11.781867 -0.001184 -0.000003 0.000000 -0.000000 0.000000
 56 -3.887187 4.546144 1.934869 -3.141591 -1.570796 0.000000
 57 -4.205003 4.546216 -0.015855 -3.141591 -1.570796 0.000000
 58 -3.887188 4.546179 -1.987145 -3.141591 -1.570796 0.000000
 59 -4.881806 5.593821 -1.566820 1.047319 -1.487704 2.076220
 60 -4.886902 5.683144 -0.007570 -3.132865 -1.570796 0.000000
 61 -4.881796 5.609550 1.546659 1.047319 -1.487704 2.076220
 62 3.710047 1.760547 -0.059361 -0.091798 -0.075923 1.616828
time 2
  0 0.061864 -0.061864 27.356792 -0.000000 -0.000000 -2.033675
  1 -0.526041 0.000001 9.745319 -1.570795 -1.570451 0.000000
  2 1.384163 -0.004728 0.000002 -0.372510 -0.003432 0.086496
  3 5.939814 -0.004730 0.000000 0.000000 -0.000000 0.000000
  4 5.939809 -0.003975 0.000000 0.000000 -0.000000 0.000000
  5 4.991439 -0.003975 0.000000 0.000000 -0.000000 0.000000
  6 4.991436 -0.001575 0.000000 0.000000 -0.000000 0.000000
  7 0.000005 0.001564 3.638375 -0.000010 -1.284244 3.140806
  8 8.842831 0.000000 -0.000002 -0.422014 -0.135945 -0.928195
  9 9.341934 0.000000 -0.000001 0.000000 -0.000000 -0.837739
 10 11.168404 -0.000001 0.000002 -4.532609 0.483521 -0.520869
 11 1.364904 0.231178 -1.984411 2.565341 0.787598 1.289571
 12 1.748536 -0.000002 0.000000 0.000000 -0.000000 -0.043583
 13 1.272494 0.000001 -0.000001 0.000000 -0.000000 0.253072
 14 4.525584 -0.000304 -1.850224 0.062830 0.072738 0.735167
 15 1.719872 -0.000002 0.000000 0.000000 -0.000000 0.619401
 16 1.383647 0.000002 0.000000 0.000000 -0.000000 0.741543
 17 4.525584 -0.000102 -0.616741 0.033441 0.040263 0.733428
 18 1.807673 0.000001 -0.000001 0.000000 -0.000000 0.567151
 19 1.614255 0.000001 0.000001 0.000000 -0.000000 0.741755
 20 4.525584 0.000101 0.616741 0.021751 0.027400 0.733115
 21 1.719869 0.000000 -0.000001 0.000000 -0.000000 0.366391
 22 1.383649 -0.000001 0.000000 0.000000 -0.000000 0.741540
 23 4.525584 0.000303 1.850224 -0.024750 -0.024701 0.733156
 24 1.433227 -0.000002 0.000000 0.000000 -0.000000 0.366391
 25 1.153039 0.000000 0.000000 0.000000 -0.000000 0.741536
 26 0.000005 0.001585 -3.638375 -0.000010 1.284244 3.140787
 27 8.842831 0.000000 0.000001 0.964361 -0.511726 -2.210625
 28 9.341937 0.000000 -0.000001 0.000000 -0.000000 -0.985976
 29 11.168404 -0.000001 0.000001 1.804945 0.067528 0.669587
 30 1.364904 0.231177 1.984410 -3.139615 0.004049 1.002218
 31 1.748536 -0.000002 0.000001 0.000000 -0.000000 0.436216
 32 1.272493 0.000001 0.000002 0.000000 -0.000000 0.322825
 33 4.525584 -0.000303 1.850224 -0.016269 -0.094622 0.192575
 34 1.719873 0.000001 0.000000 0.000000 -0.000000 0.034907
 35 1.383647 0.000000 -0.000001 0.000000 -0.000000 0.689317
 36 4.525584 -0.000101 0.616741 -0.040896 -0.032761 0.934331
 37 1.807674 -0.000001 0.000000 0.000000 -0.000000 0.907547
 38 1.614256 -0.000001 0.000000 0.000000 -0.000000 1.151884
 39 4.525584 0.000101 -0.616741 -0.026857 -0.022390 0.933877
 40 1.719871 -0.000002 0.000000 0.000000 -0.000000 0.907547
 41 1.383648 0.000001 0.000000 0.000000 -0.000000 1.151884
 42 4.525584 0.000304 -1.850223 0.029257 0.019248 0.933773
 43 1.433227 0.000002 0.000000 0.000000 -0.000000 0.907297
 44 1.153038 0.000000 0.000000 0.000000 -0.000000 1.151879
 45 -0.000008 0.000010 5.615750 -0.204019 -2.789992 5.634686
 46 15.693467 0.000000 0.000000 0.000000 -0.000000 -0.615015
 47 22.146629 -0.000001 0.000000 0.115889 -0.146486 -0.097461
 48 3.310129 5.734394 0.000000 0.000000 -0.000000 1.570796
 49 0.000008 -0.000006 -5.615750 -6.090382 2.880535 -0.015910
 50 15.693467 0.000000 0.000000 0.000000 -0.000000 -0.610538
 51 22.146629 0.000000 0.000000 0.276124 0.252324 0.542997
 52 3.310129 5.734394 0.000000 0.000000 -0.000000 1.570796
 53 1.977383 0.000000 0.000000 0.835489 0.294278 0.195847
 54 3.723980 2.768054 -0.049087 -3.141592 -0.000002 1.570799
 55 11.781867 -0.001184 -0.000003 0.000000 -0.000000 0.000000
 56 -3.887187 4.546144 1.934869 -3.141591 -1.570796 0.000000
 57 -4.205003 4.546216 -0.015855 -3.141591 -1.570796 0.000000
 58 -3.887188 4.546179 -1.987145 -3.141591 -1.570796 0.000000
 59 -4.881806 5.593821 -1.566820 1.047319 -1.487704 2.076220
 60 -4.886902 5.683144 -0.007570 -3.132865 -1.570796 0.000000
 61 -4.881796 5.609550 1.546659 1.047319 -1.487704 2.076220
 62 3.710047 1.760547 -0.059361 -0.091798 -0.075923 1.616828
time 3
  0 0.061864 -0.061864 27.317595 -0.000000 -0.000000 -2.033675
  1 -0.526041 0.000001 9.745319 -1.570795 -1.570451 0.000000
  2 1.384163 -0.004728 0.000002 -0.372510 -0.003432 0.086496
  3 5.939814 -0.004730 0.000000 0.000000 -0.000000 0.000000
  4 5.939809 -0.003975 0.000000 0.000000 -0.000000 0.000000
  5 4.991439 -0.003975 0.000000 0.000000 -0.000000 0.000000
  6 4.991436 -0.001575 0.000000 0.000000 -0.000000 0.000000
  7 0.000005 0.001564 3.638375 -0.000010 -1.284244 3.140806
  8 8.842831 0.000000 -0.000002 -0.421191 -0.132180 -0.926225
  9 9.341934 0.000000 -0.000001 0.000000 -0.000000 -0.840035
 10 11.168404 -0.000001 0.000002 -4.530126 0.481703 -0.520689
 11 1.364904 0.231178 -1.984411 2.565341 0.787598 1.289571
 12 1.748536 -0.000002 0.000000 0.000000 -0.000000 -0.043583
 13 1.272494 0.000001 -0.000001 0.000000 -0.000000 0.253072
 14 4.525584 -0.000304 -1.850224 0.062830 0.072738 0.735167
 15 1.719872 -0.000002 0.000000 0.000000 -0.000000 0.619401
 16 1.383647 0.000002 0.000000 0.000000 -0.000000 0.741543
 17 4.525584 -0.000102 -0.616741 0.033441 0.040263 0.733428
 18 1.807673 0.000001 -0.000001 0.000000 -0.000000 0.567151
 19 1.614255 0.000001 0.000001 0.000000 -0.000000 0.741755
 20 4.525584 0.000101 0.616741 0.021751 0.027400 0.733115
 21 1.719869 0.000000 -0.000001 0.000000 -0.000000 0.366391
 22 1.383649 -0.000001 0.000000 0.000000 -0.000000 0.741540
 23 4.525584 0.000303 1.850224 -0.024750 -0.024701 0.733156
 24 1.433227 -0.000002 0.000000 0.000000 -0.000000 0.366391
 25 1.153039 0.000000 0.000000 0.000000 -0.000000 0.741536
 26 0.000005 0.001585 -3.638375 -0.000010 1.284244 3.140787
 27 8.842831 0.000000 0.000001 0.962729 -0.515908 -2.208719
 28 9.341937 0.000000 -0.000001 0.000000 -0.000000 -0.987414
 29 11.168404 -0.000001 0.000001 1.805411 0.068582 0.666014
 30 1.364904 0.231177 1.984410 -3.139615 0.004049 1.002218
 31 1.748536 -0.000002 0.000001 0.000000 -0.000000 0.436216
 32 1.272493 0.000001 0.000002 0.000000 -0.000000 0.322825
 33 4.525584 -0.000303 1.850224 -0.016269 -0.094622 0.192575
 34 1.719873 0.000001 0.000000 0.000000 -0.000000 0.034907
 35 1.383647 0.000000 -0.000001 0.000000 -0.000000 0.689317
 36 4.525584 -0.000101 0.616741 -0.040896 -0.032761 0.934331
 37 1.807674 -0.000001 0.000000 0.000000 -0.000000 0.907547
 38 1.614256 -0.000001 0.000000 0.000000 -0.000000 1.151884
 39 4.525584 0.000101 -0.616741 -0.026857 -0.022390 0.933877
 40 1.719871 -0.000002 0.000000 0.000000 -0.000000 0.907547
 41 1.383648 0.000001 0.000000 0.000000 -0.000000 1.151884
 42 4.525584 0.000304 -1.850223 0.029257 0.019248 0.933773
 43 1.433227 0.000002 0.000000 0.000000 -0.000000 0.907297
 44 1.153038 0.000000 0.000000 0.000000 -0.000000 1.151879
 45 -0.000008 0.000010 5.615750 -0.202485 -2.789129 5.629317
 46 15.693467 0.000000 0.000000 0.000000 -0.000000 -0.622413
 47 22.146629 -0.000001 0.000000 0.115926 -0.146709 -0.094846
 48 3.310129 5.734394 0.000000 0.000000 -0.000000 1.570796
 49 0.000008 -0.000006 -5.615750 -6.091341 2.879576 -0.020033
 50 15.693467 0.000000 0.000000 0.000000 -0.000000 -0.618147
 51 22.146629 0.000000 0.000000 0.276293 0.252723 0.546422
 52 3.310129 5.734394 0.000000 0.000000 -0.000000 1.570796
 53 1.977383 0.000000 0.000000 0.835489 0.294278 0.195847
 54 3.723980 2.768054 -0.049087 -3.141592 -0.000002 1.570799
 55 11.781867 -0.001184 -0.000003 0.000000 -0.000000 0.000000
 56 -3.887187 4.546144 1.934869 -3.141591 -1.570796 0.000000
 57 -4.205003 4.546216 -0.015855 -3.141591 -1.570796 0.000000
 58 -3.887188 4.546179 -1.987145 -3.141591 -1.570796 0.000000
 59 -4.881806 5.593821 -1.566820 1.047319 -1.487704 2.076220
 60 -4.886902 5.683144 -0.007570 -3.132865 -1.570796 0.000000
 61 -4.881796 5.609550 1.546659 1.047319 -1.487704 2.076220
 62 3.710047 1.760547 -0.059361 -0.091798 -0.075923 1.616828
time 4
  0 0.061864 -0.061864 27.337194 -0.000000 -0.000000 -2.033675
  1 -0.526041 0.000001 9.745319 -1.570795 -1.570451 0.000000
  2 1.384163 -0.004728 0.000002 -0.372510 -0.003432 0.086496
  3 5.939814 -0.004730 0.000000 0.000000 -0.000000 0.000000
  4 5.939809 -0.003975 0.000000 0.000000 -0.000000 0.000000
  5 4.991439 -0.003975 0.000000 0.000000 -0.000000 0.000000
  6 4.991436 -0.001575 0.000000 0.000000 -0.000000 0.000000
  7 0.000005 0.001564 3.638375 -0.000010 -1.284244 3.140806
  8 8.842831 0.000000 -0.000002 -0.418905 -0.124024 -0.921547
  9 9.341934 0.000000 -0.000001 0.000000 -0.000000 -0.844709
 10 11.168404 -0.000001 0.000002 -4.524588 0.477780 -0.520419
 11 1.364904 0.231178 -1.984411 2.565341 0.787598 1.289571
 12 1.748536 -0.000002 0.000000 0.000000 -0.000000 -0.043583
 13 1.272494 0.000001 -0.000001 0.000000 -0.000000 0.253072
 14 4.525584 -0.000304 -1.850224 0.062830 0.072738 0.735167
 15 1.719872 -0.000002 0.000000 0.000000 -0.000000 0.619401
 16 1.383647 0.000002 0.000000 0.000000 -0.000000 0.741543
 17 4.525584 -0.000102 -0.616741 0.033441 0.040263 0.733428
 18 1.807673 0.000001 -0.000001 0.000000 -0.000000 0.567151
 19 1.614255 0.000001 0.000001 0.000000 -0.000000 0.741755
 20 4.525584 0.000101 0.616741 0.021751 0.027400 0.733115
 21 1.719869 0.000000 -0.000001 0.000000 -0.000000 0.366391
 22 1.383649 -0.000001 0.000000 0.000000 -0.000000 0.741540
 23 4.525584 0.000303 1.850224 -0.024750 -0.024701 0.733156
 24 1.433227 -0.000002 0.000000 0.000000 -0.000000 0.366391
 25 1.153039 0.000000 0.000000 0.000000 -0.000000 0.741536
 26 0.000005 0.001585 -3.638375 -0.000010 1.284244 3.140787
 27 8.842831 0.000000 0.000001 0.959373 -0.524772 -2.204622
 28 9.341937 0.000000 -0.000001 0.000000 -0.000000 -0.990290
 29 11.168404 -0.000001 0.000001 1.805784 0.070984 0.660374
 30 1.364904 0.231177 1.984410 -3.139615 0.004049 1.002218
 31 1.748536 -0.000002 0.000001 0.000000 -0.000000 0.436216
 32 1.272493 0.000001 0.000002 0.000000 -0.000000 0.322825
 33 4.525584 -0.000303 1.850224 -0.016269 -0.094622 0.192575
 34 1.719873 0.000001 0.000000 0.000000 -0.000000 0.034907
 35 1.383647 0.000000 -0.000001 0.000000 -0.000000 0.689317
 36 4.525584 -0.000101 0.616741 -0.040896 -0.032761 0.934331
 37 1.807674 -0.000001 0.000000 0.000000 -0.000000 0.907547
 38 1.614256 -0.000001 0.000000 0.000000 -0.000000 1.151884
 39 4.525584 0.000101 -0.616741 -0.026857 -0.022390 0.933877
 40 1.719871 -0.000002 0.000000 0.000000 -0.000000 0.907547
 41 1.383648 0.000001 0.000000 0.000000 -0.000000 1.151884
 42 4.525584 0.000304 -1.850223 0.029257 0.019248 0.933773
 43 1.433227 0.000002 0.000000 0.000000 -0.000000 0.907297
 44 1.153038 0.000000 0.000000 0.000000 -0.000000 1.151879
 45 -0.000008 0.000010 5.615750 -0.203444 -2.789896 5.632864
 46 15.693467 0.000000 0.000000 0.000000 -0.000000 -0.617220
 47 22.146629 -0.000001 0.000000 0.115926 -0.146610 -0.096573
 48 3.310129 5.734394 0.000000 0.000000 -0.000000 1.570796
 49 0.000008 -0.000006 -5.615750 -6.090574 2.880343 -0.017060
 50 15.693467 0.000000 0.000000 0.000000 -0.000000 -0.612932
 51 22.146629 0.000000 0.000000 0.276237 0.252539 0.544079
 52 3.310129 5.734394 0.000000 0.000000 -0.000000 1.570796
 53 1.977383 0.000000 0.000000 0.835489 0.294278 0.195847
 54 3.723980 2.768054 -0.049087 -3.141592 -0.000002 1.570799
 55 11.781867 -0.001184 -0.000003 0.000000 -0.000000 0.000000
 56 -3.887187 4.546144 1.934869 -3.141591 -1.570796 0.000000
 57 -4.205003 4.546216 -0.015855 -3.141591 -1.570796 0.000000
 58 -3.887188 4.546179 -1.987145 -3.141591 -1.570796 0.000000
 59 -4.881806 5.593821 -1.566820 1.047319 -1.487704 2.076220
 60 -4.886902 5.683144 -0.007570 -3.132865 -1.570796 0.000000
 61 -4.881796 5.609550 1.546659 1.047319 -1.487704 2.076220
 62 3.710047 1.760547 -0.059361 -0.091798 -0.075923 1.616828
time 5
  0 0.061864 -0.061864 27.356792 -0.000000 -0.000000 -2.033675
  1 -0.526041 0.000001 9.745319 -1.570795 -1.570451 0.000000
  2 1.384163 -0.004728 0.000002 -0.372510 -0.003432 0.086496
  3 5.939814 -0.004730 0.000000 0.000000 -0.000000 0.000000
  4 5.939809 -0.003975 0.000000 0.000000 -0.000000 0.000000
  5 4.991439 -0.003975 0.000000 0.000000 -0.000000 0.000000
  6 4.991436 -0.001575 0.000000 0.000000 -0.000000 0.000000
  7 0.000005 0.001564 3.638375 -0.000010 -1.284244 3.140806
  8 8.842831 0.000000 -0.000002 -0.416710 -0.117033 -0.917854
  9 9.341934 0.000000 -0.000001 0.000000 -0.000000 -0.848891
 10 11.168404 -0.000001 0.000002 -4.519909 0.474335 -0.520329
 11 1.364904 0.231178 -1.984411 2.565341 0.787598 1.289571
 12 1.748536 -0.000002 0.000000 0.000000 -0.000000 -0.043583
 13 1.272494 0.000001 -0.000001 0.000000 -0.000000 0.253072
 14 4.525584 -0.000304 -1.850224 0.062830 0.072738 0.735167
 15 1.719872 -0.000002 0.000000 0.000000 -0.000000 0.619401
 16 1.383647 0.000002 0.000000 0.000000 -0.000000 0.741543
 17 4.525584 -0.000102 -0.616741 0.033441 0.040263 0.733428
 18 1.807673 0.000001 -0.000001 0.000000 -0.000000 0.567151
 19 1.614255 0.000001 0.000001 0.000000 -0.000000 0.741755
 20 4.525584 0.000101 0.616741 0.021751 0.027400 0.733115
 21 1.719869 0.000000 -0.000001 0.000000 -0.000000 0.366391
 22 1.383649 -0.000001 0.000000 0.000000 -0.000000 0.741540
 23 4.525584 0.000303 1.850224 -0.024750 -0.024701 0.733156
 24 1.433227 -0.000002 0.000000 0.000000 -0.000000 0.366391
 25 1.153039 0.000000 0.000000 0.000000 -0.000000 0.741536
 26 0.000005 0.001585 -3.638375 -0.000010 1.284244 3.140787
 27 8.842831 0.000000 0.000001 0.956380 -0.532549 -2.200906
 28 9.341937 0.000000 -0.000001 0.000000 -0.000000 -0.992618
 29 11.168404 -0.000001 0.000001 1.806250 0.073092 0.653981
 30 1.364904 0.231177 1.984410 -3.139615 0.004049 1.002218
 31 1.748536 -0.000002 0.000001 0.000000 -0.000000 0.436216
 32 1.272493 0.000001 0.000002 0.000000 -0.000000 0.322825
 33 4.525584 -0.000303 1.850224 -0.016269 -0.094622 0.192575
 34 1.719873 0.000001 0.000000 0.000000 -0.000000 0.034907
 35 1.383647 0.000000 -0.000001 0.000000 -0.000000 0.689317
 36 4.525584 -0.000101 0.616741 -0.040896 -0.032761 0.934331
 37 1.807674 -0.000001 0.000000 0.000000 -0.000000 0.907547
 38 1.614256 -0.000001 0.000000 0.000000 -0.000000 1.151884
 39 4.525584 0.000101 -0.616741 -0.026857 -0.022390 0.933877
 40 1.719871 -0.000002 0.000000 0.000000 -0.000000 0.907547
 41 1.383648 0.000001 0.000000 0.000000 -0.000000 1.151884
 42 4.525584 0.000304 -1.850223 0.029257 0.019248 0.933773
 43 1.433227 0.000002 0.000000 0.000000 -0.000000 0.907297
 44 1.153038 0.000000 0.000000 0.000000 -0.000000 1.151879
 45 -0.000008 0.000010 5.615750 -0.204115 -2.789992 5.634878
 46 15.693467 0.000000 0.000000 0.000000 -0.000000 -0.614659
 47 22.146629 -0.000001 0.000000 0.115889 -0.146486 -0.097609
 48 3.310129 5.734394 0.000000 0.000000 -0.000000 1.570796
 49 0.000008 -0.000006 -5.615750 -6.089807 2.880535 -0.015526
 50 15.693467 0.000000 0.000000 0.000000 -0.000000 -0.610196
 51 22.146629 0.000000 0.000000 0.276124 0.252324 0.542817
 52 3.310129 5.734394 0.000000 0.000000 -0.000000 1.570796
 53 1.977383 0.000000 0.000000 0.835489 0.294278 0.195847
 54 3.723980 2.768054 -0.049087 -3.141592 -0.000002 1.570799
 55 11.781867 -0.001184 -0.000003 0.000000 -0.000000 0.000000
 56 -3.887187 4.546144 1.934869 -3.141591 -1.570796 0.000000
 57 -4.205003 4.546216 -0.015855 -3.141591 -1.570796 0.000000
 58 -3.887188 4.546179 -1.987145 -3.141591 -1.570796 0.000000
 59 -4.881806 5.593821 -1.566820 1.047319 -1.487704 2.076220
 60 -4.886902 5.683144 -0.007570 -3.132865 -1.570796 0.000000
 61 -4.881796 5.609550 1.546659 1.047319 -1.487704 2.076220
 62 3.710047 1.760547 -0.059361 -0.091798 -0.075923 1.616828
time 6
  0 0.061864 -0.061864 27.376390 -0.000000 -0.000000 -2.033675
  1 -0.526041 0.000001 9.745319 -1.570795 -1.570451 0.000000
  2 1.384163 -0.004728 0.000002 -0.372510 -0.003432 0.086496
  3 5.939814 -0.004730 0.000000 0.000000 -0.000000 0.000000
  4 5.939809 -0.003975 0.000000 0.000000 -0.000000 0.000000
  5 4.991439 -0.003975 0.000000 0.000000 -0.000000 0.000000
  6 4.991436 -0.001575 0.000000 0.000000 -0.000000 0.000000
  7 0.000005 0.001564 3.638375 -0.000010 -1.284244 3.140806
  8 8.842831 0.000000 -0.000002 -0.418082 -0.122052 -0.920316
  9 9.341934 0.000000 -0.000001 0.000000 -0.000000 -0.845857
 10 11.168404 -0.000001 0.000002 -4.523251 0.476727 -0.520419
 11 1.364904 0.231178 -1.984411 2.565341 0.787598 1.289571
 12 1.748536 -0.000002 0.000000 0.000000 -0.000000 -0.043583
 13 1.272494 0.000001 -0.000001 0.000000 -0.000000 0.253072
 14 4.525584 -0.000304 -1.850224 0.062830 0.072738 0.735167
 15 1.719872 -0.000002 0.000000 0.000000 -0.000000 0.619401
 16 1.383647 0.000002 0.000000 0.000000 -0.000000 0.741543
 17 4.525584 -0.000102 -0.616741 0.033441 0.040263 0.733428
 18 1.807673 0.000001 -0.000001 0.000000 -0.000000 0.567151
 19 1.614255 0.000001 0.000001 0.000000 -0.000000 0.741755
 20 4.525584 0.000101 0.616741 0.021751 0.027400 0.733115
 21 1.719869 0.000000 -0.000001 0.000000 -0.000000 0.366391
 22 1.383649 -0.000001 0.000000 0.000000 -0.000000 0.741540
 23 4.525584 0.000303 1.850224 -0.024750 -0.024701 0.733156
 24 1.433227 -0.000002 0.000000 0.000000 -0.000000 0.366391
 25 1.153039 0.000000 0.000000 0.000000 -0.000000 0.741536
 26 0.000005 0.001585 -3.638375 -0.000010 1.284244 3.140787
 27 8.842831 0.000000 0.000001 0.958556 -0.527030 -2.203574
 28 9.341937 0.000000 -0.000001 0.000000 -0.000000 -0.991043
 29 11.168404 -0.000001 0.000001 1.805784 0.071574 0.658776
 30 1.364904 0.231177 1.984410 -3.139615 0.004049 1.002218
 31 1.748536 -0.000002 0.000001 0.000000 -0.000000 0.436216
 32 1.272493 0.000001 0.000002 0.000000 -0.000000 0.322825
 33 4.525584 -0.000303 1.850224 -0.016269 -0.094622 0.192575
 34 1.719873 0.000001 0.000000 0.000000 -0.000000 0.034907
 35 1.383647 0.000000 -0.000001 0.000000 -0.000000 0.689317
 36 4.525584 -0.000101 0.616741 -0.040896 -0.032761 0.934331
 37 1.807674 -0.000001 0.000000 0.000000 -0.000000 0.907547
 38 1.614256 -0.000001 0.000000 0.000000 -0.000000 1.151884
 39 4.525584 0.000101 -0.616741 -0.026857 -0.022390 0.933877
 40 1.719871 -0.000002 0.000000 0.000000 -0.000000 0.907547
 41 1.383648 0.000001 0.000000 0.000000 -0.000000 1.151884
 42 4.525584 0.000304 -1.850223 0.029257 0.019248 0.933773
 43 1.433227 0.000002 0.000000 0.000000 -0.000000 0.907297
 44 1.153038 0.000000 0.000000 0.000000 -0.000000 1.151879
 45 -0.000008 0.000010 5.615750 -0.204978 -2.790663 5.637275
 46 15.693467 0.000000 0.000000 0.000000 -0.000000 -0.611031
 47 22.146629 -0.000001 0.000000 0.115852 -0.146387 -0.098744
 48 3.310129 5.734394 0.000000 0.000000 -0.000000 1.570796
 49 0.000008 -0.000006 -5.615750 -6.089519 2.881302 -0.013705
 50 15.693467 0.000000 0.000000 0.000000 -0.000000 -0.606691
 51 22.146629 0.000000 0.000000 0.276124 0.252232 0.540654
 52 3.310129 5.734394 0.000000 0.000000 -0.000000 1.570796
 53 1.977383 0.000000 0.000000 0.835489 0.294278 0.195847
 54 3.723980 2.768054 -0.049087 -3.141592 -0.000002 1.570799
 55 11.781867 -0.001184 -0.000003 0.000000 -0.000000 0.000000
 56 -3.887187 4.546144 1.934869 -3.141591 -1.570796 0.000000
 57 -4.205003 4.546216 -0.015855 -3.141591 -1.570796 0.000000
 58 -3.887188 4.546179 -1.987145 -3.141591 -1.570796 0.000000
 59 -4.881806 5.593821 -1.566820 1.047319 -1.487704 2.076220
 60 -4.886902 5.683144 -0.007570 -3.132865 -1.570796 0.000000
 61 -4.881796 5.609550 1.546659 1.047319 -1.487704 2.076220
 62 3.710047 1.760547 -0.059361 -0.091798 -0.075923 1.616828
time 7
  0 0.061864 -0.061864 27.454786 -0.000000 -0.000000 -2.033675
  1 -0.526041 0.000001 9.745319 -1.570795 -1.570451 0.000000
  2 1.384163 -0.004728 0.000002 -0.372510 -0.003432 0.086496
  3 5.939814 -0.004730 0.000000 0.000000 -0.000000 0.000000
  4 5.939809 -0.003975 0.000000 0.000000 -0.000000 0.000000
  5 4.991439 -0.003975 0.000000 0.000000 -0.000000 0.000000
  6 4.991436 -0.001575 0.000000 0.000000 -0.000000 0.000000
  7 0.000005 0.001564 3.638375 -0.000010 -1.284244 3.140806
  8 8.842831 0.000000 -0.000002 -0.418722 -0.123755 -0.921547
  9 9.341934 0.000000 -0.000001 0.000000 -0.000000 -0.844955
 10 11.168404 -0.000001 0.000002 -4.524206 0.477492 -0.520419
 11 1.364904 0.231178 -1.984411 2.565341 0.787598 1.289571
 12 1.748536 -0.000002 0.000000 0.000000 -0.000000 -0.043583
 13 1.272494 0.000001 -0.000001 0.000000 -0.000000 0.253072
 14 4.525584 -0.000304 -1.850224 0.062830 0.072738 0.735167
 15 1.719872 -0.000002 0.000000 0.000000 -0.000000 0.619401
 16 1.383647 0.000002 0.000000 0.000000 -0.000000 0.741543
 17 4.525584 -0.000102 -0.616741 0.033441 0.040263 0.733428
 18 1.807673 0.000001 -0.000001 0.000000 -0.000000 0.567151
 19 1.614255 0.000001 0.000001 0.000000 -0.000000 0.741755
 20 4.525584 0.000101 0.616741 0.021751 0.027400 0.733115
 21 1.719869 0.000000 -0.000001 0.000000 -0.000000 0.366391
 22 1.383649 -0.000001 0.000000 0.000000 -0.000000 0.741540
 23 4.525584 0.000303 1.850224 -0.024750 -0.024701 0.733156
 24 1.433227 -0.000002 0.000000 0.000000 -0.000000 0.366391
 25 1.153039 0.000000 0.000000 0.000000 -0.000000 0.741536
 26 0.000005 0.001585 -3.638375 -0.000010 1.284244 3.140787
 27 8.842831 0.000000 0.000001 0.959191 -0.525190 -2.204336
 28 9.341937 0.000000 -0.000001 0.000000 -0.000000 -0.990495
 29 11.168404 -0.000001 0.000001 1.805784 0.071111 0.659998
 30 1.364904 0.231177 1.984410 -3.139615 0.004049 1.002218
 31 1.748536 -0.000002 0.000001 0.000000 -0.000000 0.436216
 32 1.272493 0.000001 0.000002 0.000000 -0.000000 0.322825
 33 4.525584 -0.000303 1.850224 -0.016269 -0.094622 0.192575
 34 1.719873 0.000001 0.000000 0.000000 -0.000000 0.034907
 35 1.383647 0.000000 -0.000001 0.000000 -0.000000 0.689317
 36 4.525584 -0.000101 0.616741 -0.040896 -0.032761 0.934331
 37 1.807674 -0.000001 0.000000 0.000000 -0.000000 0.907547
 38 1.614256 -0.000001 0.000000 0.000000 -0.000000 1.151884
 39 4.525584 0.000101 -0.616741 -0.026857 -0.022390 0.933877
 40 1.719871 -0.000002 0.000000 0.000000 -0.000000 0.907547
 41 1.383648 0.000001 0.000000 0.000000 -0.000000 1.151884
 42 4.525584 0.000304 -1.850223 0.029257 0.019248 0.933773
 43 1.433227 0.000002 0.000000 0.000000 -0.000000 0.907297
 44 1.153038 0.000000 0.000000 0.000000 -0.000000 1.151879
 45 -0.000008 0.000010 5.615750 -0.208525 -2.792964 5.647054
 46 15.693467 0.000000 0.000000 0.000000 -0.000000 -0.596519
 47 22.146629 -0.000001 0.000000 0.115739 -0.146065 -0.103826
 48 3.310129 5.734394 0.000000 0.000000 -0.000000 1.570796
 49 0.000008 -0.000006 -5.615750 -6.087506 2.883411 -0.005652
 50 15.693467 0.000000 0.000000 0.000000 -0.000000 -0.592072
 51 22.146629 0.000000 0.000000 0.275955 0.251618 0.534615
 52 3.310129 5.734394 0.000000 0.000000 -0.000000 1.570796
 53 1.977383 0.000000 0.000000 0.835489 0.294278 0.195847
 54 3.723980 2.768054 -0.049087 -3.141592 -0.000002 1.570799
 55 11.781867 -0.001184 -0.000003 0.000000 -0.000000 0.000000
 56 -3.887187 4.546144 1.934869 -3.141591 -1.570796 0.000000
 57 -4.205003 4.546216 -0.015855 -3.141591 -1.570796 0.000000
 58 -3.887188 4.546179 -1.987145 -3.141591 -1.570796 0.000000
 59 -4.881806 5.593821 -1.566820 1.047319 -1.487704 2.076220
 60 -4.886902 5.683144 -0.007570 -3.132865 -1.570796 0.000000
 61 -4.881796 5.609550 1.546659 1.047319 -1.487704 2.076220
 62 3.710047 1.760547 -0.059361 -0.091798 -0.075923 1.616828
time 8
  0 0.061864 -0.061864 27.591976 -0.000000 -0.000000 -2.033675
  1 -0.526041 0.000001 9.745319 -1.570795 -1.570451 0.000000
  2 1.384163 -0.004728 0.000002 -0.372510 -0.003432 0.086496
  3 5.939814 -0.004730 0.000000 0.000000 -0.000000 0.000000
  4 5.939809 -0.003975 0.000000 0.000000 -0.000000 0.000000
  5 4.991439 -0.003975 0.000000 0.000000 -0.000000 0.000000
  6 4.991436 -0.001575 0.000000 0.000000 -0.000000 0.000000
  7 0.000005 0.001564 3.638375 -0.000010 -1.284244 3.140806
  8 8.842831 0.000000 -0.000002 -0.418539 -0.123307 -0.921219
  9 9.341934 0.000000 -0.000001 0.000000 -0.000000 -0.845283
 10 11.168404 -0.000001 0.000002 -4.523824 0.477205 -0.520419
 11 1.364904 0.231178 -1.984411 2.565341 0.787598 1.289571
 12 1.748536 -0.000002 0.000000 0.000000 -0.000000 -0.043583
 13 1.272494 0.000001 -0.000001 0.000000 -0.000000 0.253072
 14 4.525584 -0.000304 -1.850224 0.062830 0.072738 0.735167
 15 1.719872 -0.000002 0.000000 0.000000 -0.000000 0.619401
 16 1.383647 0.000002 0.000000 0.000000 -0.000000 0.741543
 17 4.525584 -0.000102 -0.616741 0.033441 0.040263 0.733428
 18 1.807673 0.000001 -0.000001 0.000000 -0.000000 0.567151
 19 1.614255 0.000001 0.000001 0.000000 -0.000000 0.741755
 20 4.525584 0.000101 0.616741 0.021751 0.027400 0.733115
 21 1.719869 0.000000 -0.000001 0.000000 -0.000000 0.366391
 22 1.383649 -0.000001 0.000000 0.000000 -0.000000 0.741540
 23 4.525584 0.000303 1.850224 -0.024750 -0.024701 0.733156
 24 1.433227 -0.000002 0.000000 0.000000 -0.000000 0.366391
 25 1.153039 0.000000 0.000000 0.000000 -0.000000 0.741536
 26 0.000005 0.001585 -3.638375 -0.000010 1.284244 3.140787
 27 8.842831 0.000000 0.000001 0.958829 -0.525692 -2.203955
 28 9.341937 0.000000 -0.000001 0.000000 -0.000000 -0.990495
 29 11.168404 -0.000001 0.000001 1.805784 0.071237 0.659716
 30 1.364904 0.231177 1.984410 -3.139615 0.004049 1.002218
 31 1.748536 -0.000002 0.000001 0.000000 -0.000000 0.436216
 32 1.272493 0.000001 0.000002 0.000000 -0.000000 0.322825
 33 4.525584 -0.000303 1.850224 -0.016269 -0.094622 0.192575
 34 1.719873 0.000001 0.000000 0.000000 -0.000000 0.034907
 35 1.383647 0.000000 -0.000001 0.000000 -0.000000 0.689317
 36 4.525584 -0.000101 0.616741 -0.040896 -0.032761 0.934331
 37 1.807674 -0.000001 0.000000 0.000000 -0.000000 0.907547
 38 1.614256 -0.000001 0.000000 0.000000 -0.000000 1.151884
 39 4.525584 0.000101 -0.616741 -0.026857 -0.022390 0.933877
 40 1.719871 -0.000002 0.000000 0.000000 -0.000000 0.907547
 41 1.383648 0.000001 0.000000 0.000000 -0.000000 1.151884
 42 4.525584 0.000304 -1.850223 0.029257 0.019248 0.933773
 43 1.433227 0.000002 0.000000 0.000000 -0.000000 0.907297
 44 1.153038 0.000000 0.000000 0.000000 -0.000000 1.151879
 45 -0.000008 0.000010 5.615750 -0.213319 -2.796224 5.661339
 46 15.693467 0.000000 0.000000 0.000000 -0.000000 -0.575178
 47 22.146629 -0.000001 0.000000 0.115553 -0.145644 -0.111375
 48 3.310129 5.734394 0.000000 0.000000 -0.000000 1.570796
 49 0.000008 -0.000006 -5.615750 -6.083671 2.886479 0.006045
 50 15.693467 0.000000 0.000000 0.000000 -0.000000 -0.570613
 51 22.146629 0.000000 0.000000 0.275729 0.250912 0.524791
 52 3.310129 5.734394 0.000000 0.000000 -0.000000 1.570796
 53 1.977383 0.000000 0.000000 0.835489 0.294278 0.195847
 54 3.723980 2.768054 -0.049087 -3.141592 -0.000002 1.570799
 55 11.781867 -0.001184 -0.000003 0.000000 -0.000000 0.000000
 56 -3.887187 4.546144 1.934869 -3.141591 -1.570796 0.000000
 57 -4.205003 4.546216 -0.015855 -3.141591 -1.570796 0.000000
 58 -3.887188 4.546179 -1.987145 -3.141591 -1.570796 0.000000
 59 -4.881806 5.593821 -1.566820 1.047319 -1.487704 2.076220
 60 -4.886902 5.683144 -0.007570 -3.132865 -1.570796 0.000000
 61 -4.881796 5.609550 1.546659 1.047319 -1.487704 2.076220
 62 3.710047 1.760547 -0.059361 -0.091798 -0.075923 1.616828
time 9
  0 0.061864 -0.061864 27.709568 -0.000000 -0.000000 -2.033675
  1 -0.526041 0.000001 9.745319 -1.570795 -1.570451 0.000000
  2 1.384163 -0.004728 0.000002 -0.372510 -0.003432 0.086496
  3 5.939814 -0.004730 0.000000 0.000000 -0.000000 0.000000
  4 5.939809 -0.003975 0.000000 0.000000 -0.000000 0.000000
  5 4.991439 -0.003975 0.000000 0.000000 -0.000000 0.000000
  6 4.991436 -0.001575 0.000000 0.000000 -0.000000 0.000000
  7 0.000005 0.001564 3.638375 -0.000010 -1.284244 3.140806
  8 8.842831 0.000000 -0.000002 -0.418082 -0.122321 -0.920316
  9 9.341934 0.000000 -0.000001 0.000000 -0.000000 -0.845857
 10 11.168404 -0.000001 0.000002 -4.523251 0.476918 -0.520419
 11 1.364904 0.231178 -1.984411 2.565341 0.787598 1.289571
 12 1.748536 -0.000002 0.000000 0.000000 -0.000000 -0.043583
 13 1.272494 0.000001 -0.000001 0.000000 -0.000000 0.253072
 14 4.525584 -0.000304 -1.850224 0.062830 0.072738 0.735167
 15 1.719872 -0.000002 0.000000 0.000000 -0.000000 0.619401
 16 1.383647 0.000002 0.000000 0.000000 -0.000000 0.741543
 17 4.525584 -0.000102 -0.616741 0.033441 0.040263 0.733428
 18 1.807673 0.000001 -0.000001 0.000000 -0.000000 0.567151
 19 1.614255 0.000001 0.000001 0.000000 -0.000000 0.741755
 20 4.525584 0.000101 0.616741 0.021751 0.027400 0.733115
 21 1.719869 0.000000 -0.000001 0.000000 -0.000000 0.366391
 22 1.383649 -0.000001 0.000000 0.000000 -0.000000 0.741540
 23 4.525584 0.000303 1.850224 -0.024750 -0.024701 0.733156
 24 1.433227 -0.000002 0.000000 0.000000 -0.000000 0.366391
 25 1.153039 0.000000 0.000000 0.000000 -0.000000 0.741536
 26 0.000005 0.001585 -3.638375 -0.000010 1.284244 3.140787
 27 8.842831 0.000000 0.000001 0.958556 -0.526863 -2.203574
 28 9.341937 0.000000 -0.000001 0.000000 -0.000000 -0.990906
 29 11.168404 -0.000001 0.000001 1.805784 0.071574 0.658870
 30 1.364904 0.231177 1.984410 -3.139615 0.004049 1.002218
 31 1.748536 -0.000002 0.000001 0.000000 -0.000000 0.436216
 32 1.272493 0.000001 0.000002 0.000000 -0.000000 0.322825
 33 4.525584 -0.000303 1.850224 -0.016269 -0.094622 0.192575
 34 1.719873 0.000001 0.000000 0.000000 -0.000000 0.034907
 35 1.383647 0.000000 -0.000001 0.000000 -0.000000 0.689317
 36 4.525584 -0.000101 0.616741 -0.040896 -0.032761 0.934331
 37 1.807674 -0.000001 0.000000 0.000000 -0.000000 0.907547
 38 1.614256 -0.000001 0.000000 0.000000 -0.000000 1.151884
 39 4.525584 0.000101 -0.616741 -0.026857 -0.022390 0.933877
 40 1.719871 -0.000002 0.000000 0.000000 -0.000000 0.907547
 41 1.383648 0.000001 0.000000 0.000000 -0.000000 1.151884
 42 4.525584 0.000304 -1.850223 0.029257 0.019248 0.933773
 43 1.433227 0.000002 0.000000 0.000000 -0.000000 0.907297
 44 1.153038 0.000000 0.000000 0.000000 -0.000000 1.151879
 45 -0.000008 0.000010 5.615750 -0.219167 -2.800347 5.677254
 46 15.693467 0.000000 0.000000 0.000000 -0.000000 -0.551205
 47 22.146629 -0.000001 0.000000 0.115366 -0.145223 -0.119911
 48 3.310129 5.734394 0.000000 0.000000 -0.000000 1.570796
 49 0.000008 -0.000006 -5.615750 -6.080028 2.889930 0.019371
 50 15.693467 0.000000 0.000000 0.000000 -0.000000 -0.546418
 51 22.146629 0.000000 0.000000 0.275447 0.249991 0.513434
 52 3.310129 5.734394 0.000000 0.000000 -0.000000 1.570796
 53 1.977383 0.000000 0.000000 0.835489 0.294278 0.195847
 54 3.723980 2.768054 -0.049087 -3.141592 -0.000002 1.570799
 55 11.781867 -0.001184 -0.000003 0.000000 -0.000000 0.000000
 56 -3.887187 4.546144 1.934869 -3.141591 -1.570796 0.000000
 57 -4.205003 4.546216 -0.015855 -3.141591 -1.570796 0.000000
 58 -3.887188 4.546179 -1.987145 -3.141591 -1.570796 0.000000
 59 -4.881806 5.593821 -1.566820 1.047319 -1.487704 2.076220
 60 -4.886902 5.683144 -0.007570 -3.132865 -1.570796 0.000000
 61 -4.881796 5.609550 1.546659 1.047319 -1.487704 2.076220
 62 3.710047 1.760547 -0.059361 -0.091798 -0.075923 1.616828
time 10
  0 0.061864 -0.061864 28.042744 -0.000000 -0.000000 -2.033675
  1 -0.526041 0.000001 9.745319 -1.570795 -1.570451 0.000000
  2 1.384163 -0.004728 0.000002 -0.372510 -0.003432 0.086496
  3 5.939814 -0.004730 0.000000 0.000000 -0.000000 0.000000
  4 5.939809 -0.003975 0.000000 0.000000 -0.000000 0.000000
  5 4.991439 -0.003975 0.000000 0.000000 -0.000000 0.000000
  6 4.991436 -0.001575 0.000000 0.000000 -0.000000 0.000000
  7 0.000005 0.001564 3.638375 -0.000010 -1.284244 3.140806
  8 8.842831 0.000000 -0.000002 -0.414790 -0.110670 -0.914407
  9 9.341934 0.000000 -0.000001 0.000000 -0.000000 -0.852910
 10 11.168404 -0.000001 0.000002 -4.515326 0.471369 -0.520329
 11 1.364904 0.231178 -1.984411 2.565341 0.787598 1.289571
 12 1.748536 -0.000002 0.000000 0.000000 -0.000000 -0.043583
 13 1.272494 0.000001 -0.000001 0.000000 -0.000000 0.253072
 14 4.525584 -0.000304 -1.850224 0.062830 0.072738 0.735167
 15 1.719872 -0.000002 0.000000 0.000000 -0.000000 0.619401
 16 1.383647 0.000002 0.000000 0.000000 -0.000000 0.741543
 17 4.525584 -0.000102 -0.616741 0.033441 0.040263 0.733428
 18 1.807673 0.000001 -0.000001 0.000000 -0.000000 0.567151
 19 1.614255 0.000001 0.000001 0.000000 -0.000000 0.741755
 20 4.525584 0.000101 0.616741 0.021751 0.027400 0.733115
 21 1.719869 0.000000 -0.000001 0.000000 -0.000000 0.366391
 22 1.383649 -0.000001 0.000000 0.000000 -0.000000 0.741540
 23 4.525584 0.000303 1.850224 -0.024750 -0.024701 0.733156
 24 1.433227 -0.000002 0.000000 0.000000 -0.000000 0.366391
 25 1.153039 0.000000 0.000000 0.000000 -0.000000 0.741536
 26 0.000005 0.001585 -3.638375 -0.000010 1.284244 3.140787
 27 8.842831 0.000000 0.000001 0.953658 -0.539239 -2.197666
 28 9.341937 0.000000 -0.000001 0.000000 -0.000000 -0.994809
 29 11.168404 -0.000001 0.000001 1.806623 0.074988 0.649563
 30 1.364904 0.231177 1.984410 -3.139615 0.004049 1.002218
 31 1.748536 -0.000002 0.000001 0.000000 -0.000000 0.436216
 32 1.272493 0.000001 0.000002 0.000000 -0.000000 0.322825
 33 4.525584 -0.000303 1.850224 -0.016269 -0.094622 0.192575
 34 1.719873 0.000001 0.000000 0.000000 -0.000000 0.034907
 35 1.383647 0.000000 -0.000001 0.000000 -0.000000 0.689317
 36 4.525584 -0.000101 0.616741 -0.040896 -0.032761 0.934331
 37 1.807674 -0.000001 0.000000 0.000000 -0.000000 0.907547
 38 1.614256 -0.000001 0.000000 0.000000 -0.000000 1.151884
 39 4.525584 0.000101 -0.616741 -0.026857 -0.022390 0.933877
 40 1.719871 -0.000002 0.000000 0.000000 -0.000000 0.907547
 41 1.383648 0.000001 0.000000 0.000000 -0.000000 1.151884
 42 4.525584 0.000304 -1.850223 0.029257 0.019248 0.933773
 43 1.433227 0.000002 0.000000 0.000000 -0.000000 0.907297
 44 1.153038 0.000000 0.000000 0.000000 -0.000000 1.151879
 45 -0.000008 0.000010 5.615750 -0.232973 -2.810701 5.718671
 46 15.693467 0.000000 0.000000 0.000000 -0.000000 -0.487110
 47 22.146629 -0.000001 0.000000 0.114917 -0.143960 -0.143101
 48 3.310129 5.734394 0.000000 0.000000 -0.000000 1.570796
 49 0.000008 -0.000006 -5.615750 -6.070920 2.899230 0.055036
 50 15.693467 0.000000 0.000000 0.000000 -0.000000 -0.482042
 51 22.146629 0.000000 0.000000 0.274770 0.247965 0.484863
 52 3.310129 5.734394 0.000000 0.000000 -0.000000 1.570796
 53 1.977383 0.000000 0.000000 0.835489 0.294278 0.195847
 54 3.723980 2.768054 -0.049087 -3.141592 -0.000002 1.570799
 55 11.781867 -0.001184 -0.000003 0.000000 -0.000000 0.000000
 56 -3.887187 4.546144 1.934869 -3.141591 -1.570796 0.000000
 57 -4.205003 4.546216 -0.015855 -3.141591 -1.570796 0.000000
 58 -3.887188 4.546179 -1.987145 -3.141591 -1.570796 0.000000
 59 -4.881806 5.593821 -1.566820 1.047319 -1.487704 2.076220
 60 -4.886902 5.683144 -0.007570 -3.132865 -1.570796 0.000000
 61 -4.881796 5.609550 1.546659 1.047319 -1.487704 2.076220
 62 3.710047 1.760547 -0.059361 -0.091798 -0.075923 1.616828
end
