version 1
nodes
  0 "Bip01"  -1
  1 "Bip01 Pelvis"   0
  2 "Bip01 L Thigh"   1
  3 "Bip01 L Calf"   2
  4 "Bip01 L Foot"   3
  5 "Bip01 R Thigh"   1
  6 "Bip01 R Calf"   5
  7 "Bip01 R Foot"   6
  8 "Bip01 Spine"   1
  9 "Bip01 Spine1"   8
 10 "Bip01 Spine2"   9
 11 "Bip01 Spine3"  10
 12 "Bip01 Neck"  11
 13 "Bip01 Head"  12
 14 "Bip01 R Clavicle"  12
 15 "Bip01 R UpperArm"  14
 16 "Bip01 R Forearm"  15
 17 "Bip01 R Hand"  16
 18 "Bone05"  13
 19 "Bone06"  18
 20 "Bip01 L Clavicle"  12
 21 "Bip01 L UpperArm"  20
 22 "Bip01 L Forearm"  21
 23 "Bip01 L Hand"  22
 24 "Bip01 R Finger0"  17
 25 "MP5_model"  24
 26 "Shotgun"  17
end
skeleton
time 0
  0 -0.081722 0.081722 25.125740 0.002780 -0.095797 -1.571179
  1 -1.592480 -2.472731 9.745319 -1.570795 -1.570451 0.000000
  2 -0.000008 0.000010 5.615750 0.034996 3.221260 -0.790462
  3 15.693467 0.000000 0.000000 0.000000 0.000000 -1.097041
  4 22.146629 -0.000001 0.000000 0.039596 -0.077626 0.210464
  5 0.000008 -0.000006 -5.615750 -0.045732 3.063169 -0.110929
  6 15.693467 0.000000 0.000000 0.000000 0.000000 -0.964739
  7 22.146629 0.000000 0.000000 0.028882 0.086231 0.760631
  8 1.384163 -0.004728 0.000002 -0.444924 -0.194250 0.130944
  9 5.939814 -0.004730 0.000000 -0.095577 -0.058509 -0.103931
 10 5.939809 -0.003975 0.000000 -0.096133 -0.075599 0.055421
 11 4.991439 -0.003975 0.000000 -0.087221 0.060282 0.042820
 12 4.991436 -0.001575 0.000000 0.000000 -0.000000 0.000000
 13 1.977383 0.000000 0.000000 0.425841 0.066973 0.080214
 14 0.000005 0.001585 -3.638375 -0.000010 1.082999 3.140787
 15 8.842831 0.000000 0.000001 -0.139658 0.202809 -1.100216
 16 9.341934 0.000000 -0.000001 0.000000 -0.000000 -1.219252
 17 9.664095 0.000000 -0.000002 2.840602 0.149923 0.479130
 18 3.723787 2.768019 -0.397315 -0.000000 -3.141591 -1.570795
 19 2.863741 -0.721067 0.000003 0.000000 -0.000000 -0.000001
 20 -0.000093 0.001563 3.638375 -0.000004 -1.283501 3.140819
 21 8.842828 -0.000005 0.000001 0.118226 -0.461792 -0.541474
 22 9.341935 -0.000122 -0.000005 -0.000004 -0.000003 -1.292975
 23 9.664116 -0.000102 -0.000016 -3.820567 -0.067332 -0.376860
 24 6.829862 -0.000027 0.000010 0.001239 0.000002 0.000002
 25 7.919295 -0.636940 0.610559 -1.520271 -0.091529 1.564913
 26 2.515643 0.482260 0.379709 1.593356 0.004970 0.082571
time 1
  0 -0.074360 0.074360 23.218447 0.002780 -0.219299 -1.571659
  1 -1.369817 -2.609454 9.745319 -1.570795 -1.570451 0.000000
  2 -0.000008 0.000010 5.615750 0.047748 3.221355 -0.789311
  3 15.693467 0.000000 0.000000 0.000000 0.000000 -1.267272
  4 22.146629 -0.000001 0.000000 0.041989 -0.083102 0.258702
  5 0.000008 -0.000006 -5.615750 -0.051868 3.062402 -0.083415
  6 15.693467 0.000000 0.000000 0.000000 0.000000 -1.149664
  7 22.146629 0.000000 0.000000 0.026174 0.091174 0.850257
  8 1.384163 -0.004728 0.000002 -0.444924 -0.194250 0.130944
  9 5.939814 -0.004730 0.000000 -0.095155 -0.061936 -0.140066
 10 5.939809 -0.003975 0.000000 -0.096257 -0.077660 0.033730
 11 4.991439 -0.003975 0.000000 -0.087221 0.060282 0.042820
 12 4.991436 -0.001575 0.000000 0.000000 -0.000000 0.000000
 13 1.977383 0.000000 0.000000 0.424157 0.079910 0.089028
 14 0.000005 0.001585 -3.638375 -0.000010 1.082999 3.140787
 15 8.842831 0.000000 0.000001 -0.158215 0.174400 -0.999205
 16 9.341934 0.000000 -0.000001 0.000000 -0.000000 -1.219252
 17 9.664095 0.000000 -0.000002 2.840602 0.149923 0.479130
 18 3.723787 2.768019 -0.397315 -0.000000 -3.141591 -1.570795
 19 2.863741 -0.721067 0.000003 0.000000 -0.000000 -0.000001
 20 -0.000093 0.001563 3.638375 -0.000004 -1.283501 3.140819
 21 8.842828 -0.000005 0.000001 0.120718 -0.439757 -0.438382
 22 9.341935 -0.000122 -0.000005 -0.000004 -0.000003 -1.292975
 23 9.664116 -0.000102 -0.000016 -3.820567 -0.067332 -0.376860
 24 6.829862 -0.000027 0.000010 0.001239 0.000002 0.000002
 25 7.919295 -0.636940 0.610559 -1.520271 -0.091529 1.564913
 26 2.515643 0.482260 0.379709 1.593356 0.004970 0.082571
time 2
  0 -0.074360 0.074360 21.715052 0.003164 -0.398820 -1.572234
  1 -1.041682 -2.800866 9.745319 -1.570795 -1.570451 0.000000
  2 -0.000008 0.000010 5.615750 0.065005 3.224423 -0.756236
  3 15.693467 0.000000 0.000000 0.000000 0.000000 -1.507716
  4 22.146629 -0.000001 0.000000 0.049580 -0.093146 0.352956
  5 0.000008 -0.000006 -5.615750 -0.054745 3.056170 0.036514
  6 15.693467 0.000000 0.000000 0.000000 0.000000 -1.343210
  7 22.146629 0.000000 0.000000 0.021041 0.099401 0.984239
  8 1.384163 -0.004728 0.000002 -0.444924 -0.194250 0.130944
  9 5.939814 -0.004730 0.000000 -0.094311 -0.066946 -0.192692
 10 5.939809 -0.003975 0.000000 -0.096312 -0.080692 0.002216
 11 4.991439 -0.003975 0.000000 -0.087221 0.060282 0.042820
 12 4.991436 -0.001575 0.000000 0.000000 -0.000000 0.000000
 13 1.977383 0.000000 0.000000 0.420630 0.098559 0.101625
 14 0.000005 0.001585 -3.638375 -0.000010 1.082999 3.140787
 15 8.842831 0.000000 0.000001 -0.195808 0.142843 -0.853141
 16 9.341934 0.000000 -0.000001 0.000000 -0.000000 -1.219252
 17 9.664095 0.000000 -0.000002 2.840602 0.149923 0.479130
 18 3.723787 2.768019 -0.397315 -0.000000 -3.141591 -1.570795
 19 2.863741 -0.721067 0.000003 0.000000 -0.000000 -0.000001
 20 -0.000093 0.001563 3.638375 -0.000004 -1.283501 3.140819
 21 8.842828 -0.000005 0.000001 0.133639 -0.417541 -0.290782
 22 9.341935 -0.000122 -0.000005 -0.000004 -0.000003 -1.292975
 23 9.664116 -0.000102 -0.000016 -3.820567 -0.067332 -0.376860
 24 6.829862 -0.000027 0.000010 0.001239 0.000002 0.000002
 25 7.919295 -0.636940 0.610559 -1.520271 -0.091529 1.564913
 26 2.515643 0.482260 0.379709 1.593356 0.004970 0.082571
time 3
  0 -0.074360 0.074360 20.503359 0.003452 -0.615686 -1.573097
  1 -0.639326 -3.015716 9.745319 -1.570795 -1.570451 0.000000
  2 -0.000008 0.000010 5.615750 0.084660 3.233148 -0.681169
  3 15.693467 0.000000 0.000000 0.000000 0.000000 -1.746595
  4 22.146629 -0.000001 0.000000 0.065284 -0.106426 0.449824
  5 0.000008 -0.000006 -5.615750 -0.054745 3.043228 0.230452
  6 15.693467 0.000000 0.000000 0.000000 0.000000 -1.511870
  7 22.146629 0.000000 0.000000 0.013990 0.111772 1.129882
  8 1.384163 -0.004728 0.000002 -0.444924 -0.194250 0.130944
  9 5.939814 -0.004730 0.000000 -0.092920 -0.072890 -0.256333
 10 5.939809 -0.003975 0.000000 -0.096257 -0.084384 -0.035839
 11 4.991439 -0.003975 0.000000 -0.087221 0.060282 0.042820
 12 4.991436 -0.001575 0.000000 0.000000 -0.000000 0.000000
 13 1.977383 0.000000 0.000000 0.414578 0.120734 0.116613
 14 0.000005 0.001585 -3.638375 -0.000010 1.082999 3.140787
 15 8.842831 0.000000 0.000001 -0.254158 0.122786 -0.678285
 16 9.341934 0.000000 -0.000001 0.000000 -0.000000 -1.219252
 17 9.664095 0.000000 -0.000002 2.840602 0.149923 0.479130
 18 3.723787 2.768019 -0.397315 -0.000000 -3.141591 -1.570795
 19 2.863741 -0.721067 0.000003 0.000000 -0.000000 -0.000001
 20 -0.000093 0.001563 3.638375 -0.000004 -1.283501 3.140819
 21 8.842828 -0.000005 0.000001 0.159296 -0.407707 -0.115281
 22 9.341935 -0.000122 -0.000005 -0.000004 -0.000003 -1.292975
 23 9.664116 -0.000102 -0.000016 -3.820567 -0.067332 -0.376860
 24 6.829862 -0.000027 0.000010 0.001239 0.000002 0.000002
 25 7.919295 -0.636940 0.610559 -1.520271 -0.091529 1.564913
 26 2.515643 0.482260 0.379709 1.593356 0.004970 0.082571
time 4
  0 -0.074360 0.074360 19.381422 0.004219 -0.850358 -1.574247
  1 -0.221344 -3.234473 9.745319 -1.570795 -1.570451 0.000000
  2 -0.000008 0.000010 5.615750 0.105849 3.248295 -0.575136
  3 15.693467 0.000000 0.000000 0.000000 0.000000 -1.940942
  4 22.146629 -0.000001 0.000000 0.090372 -0.120282 0.515514
  5 0.000008 -0.000006 -5.615750 -0.053690 3.025396 0.457273
  6 15.693467 0.000000 0.000000 0.000000 0.000000 -1.645673
  7 22.146629 0.000000 0.000000 -0.041010 0.121350 0.886898
  8 1.384163 -0.004728 0.000002 -0.444924 -0.194250 0.130944
  9 5.939814 -0.004730 0.000000 -0.091034 -0.079218 -0.325109
 10 5.939809 -0.003975 0.000000 -0.096023 -0.088314 -0.077048
 11 4.991439 -0.003975 0.000000 -0.087221 0.060282 0.042820
 12 4.991436 -0.001575 0.000000 0.000000 -0.000000 0.000000
 13 1.977383 0.000000 0.000000 0.405841 0.144052 0.132347
 14 0.000005 0.001585 -3.638375 -0.000010 1.082999 3.140787
 15 8.842831 0.000000 0.000001 -0.327717 0.126756 -0.492620
 16 9.341934 0.000000 -0.000001 0.000000 -0.000000 -1.219252
 17 9.664095 0.000000 -0.000002 2.840602 0.149923 0.479130
 18 3.723787 2.768019 -0.397315 -0.000000 -3.141591 -1.570795
 19 2.863741 -0.721067 0.000003 0.000000 -0.000000 -0.000001
 20 -0.000093 0.001563 3.638375 -0.000004 -1.283501 3.140819
 21 8.842828 -0.000005 0.000001 0.192705 -0.420910 0.071265
 22 9.341935 -0.000122 -0.000005 -0.000004 -0.000003 -1.292975
 23 9.664116 -0.000102 -0.000016 -3.820567 -0.067332 -0.376860
 24 6.829862 -0.000027 0.000010 0.001239 0.000002 0.000002
 25 7.919295 -0.636940 0.610559 -1.520271 -0.091529 1.564913
 26 2.515643 0.482260 0.379709 1.593356 0.004970 0.082571
time 5
  0 -0.074360 0.074360 17.384373 0.005177 -0.985585 -1.575494
  1 0.020851 -3.351664 9.745319 -1.570795 -1.570451 0.000000
  2 -0.000008 0.000010 5.615750 0.125024 3.257211 -0.539376
  3 15.693467 0.000000 0.000000 0.000000 0.000000 -2.062231
  4 22.146629 -0.000001 0.000000 0.109853 -0.130416 0.537149
  5 0.000008 -0.000006 -5.615750 0.593670 2.964614 0.593116
  6 15.693467 0.000000 0.000000 0.000000 0.000000 -1.904883
  7 22.146629 0.000000 0.000000 0.073671 -0.571355 -0.353001
  8 1.384163 -0.004728 0.000002 -0.444924 -0.194250 0.130944
  9 5.939814 -0.004730 0.000000 -0.089768 -0.082826 -0.364802
 10 5.939809 -0.003975 0.000000 -0.095830 -0.090604 -0.100827
 11 4.991439 -0.003975 0.000000 -0.087221 0.060282 0.042820
 12 4.991436 -0.001575 0.000000 0.000000 -0.000000 0.000000
 13 1.977383 0.000000 0.000000 0.399841 0.157139 0.141161
 14 0.000005 0.001585 -3.638375 -0.000010 1.082999 3.140787
 15 8.842831 0.000000 0.000001 -0.372484 0.141885 -0.388261
 16 9.341934 0.000000 -0.000001 0.000000 -0.000000 -1.219252
 17 9.664095 0.000000 -0.000002 2.840602 0.149923 0.479130
 18 3.723787 2.768019 -0.397315 -0.000000 -3.141591 -1.570795
 19 2.863741 -0.721067 0.000003 0.000000 -0.000000 -0.000001
 20 -0.000093 0.001563 3.638375 -0.000004 -1.283501 3.140819
 21 8.842828 -0.000005 0.000001 0.211532 -0.439848 0.177711
 22 9.341935 -0.000122 -0.000005 -0.000004 -0.000003 -1.292975
 23 9.664116 -0.000102 -0.000016 -3.820567 -0.067332 -0.376860
 24 6.829862 -0.000027 0.000010 0.001239 0.000002 0.000002
 25 7.919295 -0.636940 0.610559 -1.520271 -0.091529 1.564913
 26 2.515643 0.482260 0.379709 1.593356 0.004970 0.082571
time 6
  0 -0.074360 0.074360 16.105364 0.452155 -1.112734 -2.031565
  1 -0.947929 -2.461012 9.745319 -1.570795 -1.570451 0.000000
  2 -0.000008 0.000010 5.615750 0.156568 3.079083 -0.615306
  3 15.693467 0.000000 0.000000 0.000000 0.000000 -1.888087
  4 22.146629 -0.000001 0.000000 -0.084876 -0.159579 0.271448
  5 0.000008 -0.000006 -5.615750 1.097406 2.976502 0.603565
  6 15.693467 0.000000 0.000000 0.000000 0.000000 -1.738323
  7 22.146629 0.000000 0.000000 -0.304103 -0.193061 -0.501951
  8 1.384163 -0.004728 0.000002 -0.445746 -0.202692 0.135081
  9 5.939814 -0.004730 0.000000 -0.105383 -0.003068 -0.208352
 10 5.939809 -0.003975 0.000000 -0.098089 -0.064489 0.022586
 11 4.991439 -0.003975 0.000000 -0.086149 0.070625 0.161846
 12 4.991436 -0.001575 0.000000 0.000000 -0.000000 0.000000
 13 1.977383 0.000000 0.000000 0.436420 -0.034219 0.057459
 14 0.000005 0.001585 -3.638375 -0.398939 1.210282 2.765167
 15 8.842831 0.000000 0.000001 0.159267 -0.084904 -0.678285
 16 9.341934 0.000000 -0.000001 0.000000 -0.000000 -1.219252
 17 9.664095 0.000000 -0.000002 2.840602 0.149923 0.479130
 18 3.723787 2.768019 -0.397315 -0.000000 -3.141591 -1.570795
 19 2.863741 -0.721067 0.000003 0.000000 -0.000000 -0.000001
 20 -0.000093 0.001563 3.638375 0.260101 -1.274135 2.891447
 21 8.842828 -0.000005 0.000001 -0.092381 -0.024469 0.205202
 22 9.341935 -0.000122 -0.000005 -0.000004 -0.000003 -1.292975
 23 9.664116 -0.000102 -0.000016 -3.820567 -0.067332 -0.376860
 24 6.829862 -0.000027 0.000010 0.001239 0.000002 0.000002
 25 7.919295 -0.636940 0.610559 -1.520271 -0.091529 1.564913
 26 2.515643 0.482260 0.379709 1.593356 0.004970 0.082571
time 7
  0 -0.074360 0.074360 13.928806 1.075545 -1.083031 -2.665386
  1 -2.119840 -1.269569 9.745319 -1.570795 -1.570451 0.000000
  2 -0.000008 0.000010 5.615750 0.171620 2.866634 -0.707150
  3 15.693467 0.000000 0.000000 0.000000 0.000000 -1.661728
  4 22.146629 -0.000001 0.000000 -0.310078 -0.205804 -0.036348
  5 0.000008 -0.000006 -5.615750 1.035853 3.010823 0.245887
  6 15.693467 0.000000 0.000000 0.000000 0.000000 -1.724230
  7 22.146629 0.000000 0.000000 -0.169510 -0.045096 -0.266313
  8 1.384163 -0.004728 0.000002 -0.446592 -0.211055 0.139164
  9 5.939814 -0.004730 0.000000 -0.107220 0.092641 -0.018707
 10 5.939809 -0.003975 0.000000 -0.096450 -0.033473 0.171291
 11 4.991439 -0.003975 0.000000 -0.083329 0.082478 0.301284
 12 4.991436 -0.001575 0.000000 0.000000 -0.000000 0.000000
 13 1.977383 0.000000 0.000000 0.392315 -0.255748 -0.038441
 14 0.000005 0.001585 -3.638375 -1.111469 1.232474 2.052945
 15 8.842831 0.000000 0.000001 0.650173 0.080413 -1.128338
 16 9.341934 0.000000 -0.000001 0.000000 -0.000000 -1.219252
 17 9.664095 0.000000 -0.000002 2.840602 0.149923 0.479130
 18 3.723787 2.768019 -0.397315 -0.000000 -3.141591 -1.570795
 19 2.863741 -0.721067 0.000003 0.000000 -0.000000 -0.000001
 20 -0.000093 0.001563 3.638375 0.532957 -1.240348 2.631817
 21 8.842828 -0.000005 0.000001 -0.491815 0.308872 -0.112663
 22 9.341935 -0.000122 -0.000005 -0.000004 -0.000003 -1.292975
 23 9.664116 -0.000102 -0.000016 -3.820567 -0.067332 -0.376860
 24 6.829862 -0.000027 0.000010 0.001239 0.000002 0.000002
 25 7.919295 -0.636940 0.610559 -1.520271 -0.091529 1.564913
 26 2.515643 0.482260 0.379709 1.593356 0.004970 0.082571
time 8
  0 -0.074360 0.074360 11.191279 1.416674 -0.960398 -3.014942
  1 -2.819080 -0.125003 9.745319 -1.570795 -1.570451 0.000000
  2 -0.000008 0.000010 5.615750 0.171141 2.703845 -0.776177
  3 15.693467 0.000000 0.000000 0.000000 0.000000 -1.486517
  4 22.146629 -0.000001 0.000000 -0.400488 -0.249215 -0.262570
  5 0.000008 -0.000006 -5.615750 0.915911 3.083877 -0.074691
  6 15.693467 0.000000 0.000000 0.000000 0.000000 -1.738323
  7 22.146629 0.000000 0.000000 0.049866 -0.101458 -0.102854
  8 1.384163 -0.004728 0.000002 -0.444924 -0.194250 0.130944
  9 5.939814 -0.004730 0.000000 -0.096123 0.165315 0.128646
 10 5.939809 -0.003975 0.000000 -0.092111 -0.009971 0.285563
 11 4.991439 -0.003975 0.000000 -0.080067 0.091227 0.408343
 12 4.991436 -0.001575 0.000000 0.000000 -0.000000 0.000000
 13 1.977383 0.000000 0.000000 0.269368 -0.374868 -0.075088
 14 0.000005 0.001585 -3.638375 -1.538969 1.082154 1.606189
 15 8.842831 0.000000 0.000001 0.839189 0.456568 -1.323473
 16 9.341934 0.000000 -0.000001 0.000000 -0.000000 -1.219252
 17 9.664095 0.000000 -0.000002 2.840602 0.149923 0.479130
 18 3.723787 2.768019 -0.397315 -0.000000 -3.141591 -1.570795
 19 2.863741 -0.721067 0.000003 0.000000 -0.000000 -0.000001
 20 -0.000093 0.001563 3.638375 0.774175 -1.178917 2.405839
 21 8.842828 -0.000005 0.000001 -0.756505 0.342744 -0.550719
 22 9.341935 -0.000122 -0.000005 -0.000004 -0.000003 -1.292975
 23 9.664116 -0.000102 -0.000016 -3.820567 -0.067332 -0.376860
 24 6.829862 -0.000027 0.000010 0.001239 0.000002 0.000002
 25 7.919295 -0.636940 0.610559 -1.520271 -0.091529 1.564913
 26 2.515643 0.482260 0.379709 1.593356 0.004970 0.082571
time 9
  0 -0.074360 0.074360 8.588385 1.462791 -0.934256 -3.062400
  1 -2.565166 0.851590 9.745319 -1.570795 -1.570451 0.000000
  2 -0.000008 0.000010 5.615750 0.176894 2.692916 -0.772630
  3 15.693467 0.000000 0.000000 0.000000 0.000000 -1.457849
  4 22.146629 -0.000001 0.000000 -0.088054 -0.255508 -0.287408
  5 0.000008 -0.000006 -5.615750 0.907378 3.100654 -0.124158
  6 15.693467 0.000000 0.000000 0.000000 0.000000 -1.738323
  7 22.146629 0.000000 0.000000 0.028600 -0.083438 -0.265487
  8 1.384163 -0.004728 0.000002 -0.438323 -0.101995 0.086872
  9 5.939814 -0.004730 0.000000 -0.093169 0.177540 0.153702
 10 5.939809 -0.003975 0.000000 -0.091312 -0.023957 0.306551
 11 4.991439 -0.003975 0.000000 -0.079415 0.092689 0.426649
 12 4.991436 -0.001575 0.000000 0.000000 -0.000000 0.000000
 13 1.977383 0.000000 0.000000 0.169263 -0.291084 -0.052084
 14 0.000005 0.001585 -3.638375 -1.577701 0.819849 1.560458
 15 8.842831 0.000000 0.000001 1.259405 0.769883 -0.936073
 16 9.341934 0.000000 -0.000001 0.000000 -0.000000 -1.219252
 17 9.664095 0.000000 -0.000002 2.849391 0.166580 0.534499
 18 3.723787 2.768019 -0.397315 -0.000000 -3.141591 -1.570795
 19 2.863741 -0.721067 0.000003 0.000000 -0.000000 -0.000001
 20 -0.000093 0.001563 3.638375 1.010311 -1.063449 2.192612
 21 8.842828 -0.000005 0.000001 -0.533807 0.445633 -0.778011
 22 9.341935 -0.000122 -0.000005 -0.000004 -0.000003 -1.292975
 23 9.664116 -0.000102 -0.000016 -3.820567 -0.067332 -0.376860
 24 6.829862 -0.000027 0.000010 0.001239 0.000002 0.000002
 25 7.919295 -0.636940 0.610559 -1.520271 -0.091529 1.564913
 26 2.515643 0.482260 0.379709 1.593356 0.004970 0.082571
time 10
  0 -0.074360 0.074360 7.421570 1.416674 -0.960398 -3.014942
  1 -1.994836 1.648489 9.745319 -1.570795 -1.570451 0.000000
  2 -0.000008 0.000010 5.615750 0.186961 2.710077 -0.738308
  3 15.693467 0.000000 0.000000 0.000000 0.000000 -1.486517
  4 22.146629 -0.000001 0.000000 0.262331 -0.249215 -0.227666
  5 0.000008 -0.000006 -5.615750 0.915911 3.083877 -0.074691
  6 15.693467 0.000000 0.000000 0.000000 0.000000 -1.738323
  7 22.146629 0.000000 0.000000 -0.065266 -0.076899 -0.469902
  8 1.384163 -0.004728 0.000002 -0.435808 -0.004818 0.041421
  9 5.939814 -0.004730 0.000000 -0.096123 0.165315 0.128646
 10 5.939809 -0.003975 0.000000 -0.092111 -0.009971 0.285563
 11 4.991439 -0.003975 0.000000 -0.080067 0.091227 0.408343
 12 4.991436 -0.001575 0.000000 0.000000 -0.000000 0.000000
 13 1.977383 0.000000 0.000000 0.103737 -0.164166 -0.033213
 14 0.000005 0.001585 -3.638375 -1.559294 0.593835 1.590562
 15 8.842831 0.000000 0.000001 1.811148 0.872564 -0.221631
 16 9.341934 0.000000 -0.000001 0.000000 -0.000000 -1.219252
 17 9.664095 0.000000 -0.000002 2.840602 0.149923 0.479130
 18 3.723787 2.768019 -0.397315 -0.000000 -3.141591 -1.570795
 19 2.863741 -0.721067 0.000003 0.000000 -0.000000 -0.000001
 20 -0.000093 0.001563 3.638375 1.144630 -0.950105 2.078808
 21 8.842828 -0.000005 0.000001 -0.263672 0.547793 -0.867357
 22 9.341935 -0.000122 -0.000005 -0.000004 -0.000003 -1.292975
 23 9.664116 -0.000102 -0.000016 -3.820567 -0.067332 -0.376860
 24 6.829862 -0.000027 0.000010 0.001239 0.000002 0.000002
 25 7.919295 -0.636940 0.610559 -1.520271 -0.091529 1.564913
 26 2.515643 0.482260 0.379709 1.593356 0.004970 0.082571
time 11
  0 -0.074360 0.074360 9.867393 1.416674 -0.960398 -3.014942
  1 -1.686233 2.070377 9.745319 -1.570795 -1.570451 0.000000
  2 -0.000008 0.000010 5.615750 0.201534 2.585349 -0.707917
  3 15.693467 0.000000 0.000000 0.000000 0.000000 -1.486517
  4 22.146629 -0.000001 0.000000 0.172893 -0.265249 -0.192043
  5 0.000008 -0.000006 -5.615750 0.922431 3.027313 -0.000299
  6 15.693467 0.000000 0.000000 0.000000 0.000000 -1.738323
  7 22.146629 0.000000 0.000000 -0.146890 -0.133691 -0.485146
  8 1.384163 -0.004728 0.000002 -0.435808 0.006986 0.035905
  9 5.939814 -0.004730 0.000000 -0.096123 0.165315 0.128646
 10 5.939809 -0.003975 0.000000 -0.093020 0.151198 0.270605
 11 4.991439 -0.003975 0.000000 -0.080067 0.091227 0.408343
 12 4.991436 -0.001575 0.000000 0.000000 -0.000000 0.000000
 13 1.977383 0.000000 0.000000 0.033000 -0.154606 -0.032914
 14 0.000005 0.001585 -3.638375 -1.559965 0.563326 1.590082
 15 8.842831 0.000000 0.000001 1.617445 0.909460 0.033001
 16 9.341934 0.000000 -0.000001 0.000000 -0.000000 -1.219252
 17 9.664095 0.000000 -0.000002 2.894231 -0.008696 0.038472
 18 3.723787 2.768019 -0.397315 -0.000000 -3.141591 -1.570795
 19 2.863741 -0.721067 0.000003 0.000000 -0.000000 -0.000001
 20 -0.000093 0.001563 3.638375 1.159395 -0.934330 2.066920
 21 8.842828 -0.000005 0.000001 -0.328184 0.205255 -0.902948
 22 9.341935 -0.000122 -0.000005 -0.000004 -0.000003 -1.292975
 23 9.664116 -0.000102 -0.000016 -3.820567 -0.067332 -0.376860
 24 6.829862 -0.000027 0.000010 0.001239 0.000002 0.000002
 25 7.919295 -0.636940 0.610559 -1.520271 -0.091529 1.564913
 26 2.515643 0.482260 0.379709 1.593356 0.004970 0.082571
time 12
  0 -0.074360 0.074360 12.268339 1.416674 -0.960398 -3.014942
  1 -1.526072 2.187568 9.745319 -1.570795 -1.570451 0.000000
  2 -0.000008 0.000010 5.615750 0.214381 2.487752 -0.685579
  3 15.693467 0.000000 0.000000 0.000000 0.000000 -1.486517
  4 22.146629 -0.000001 0.000000 0.029015 -0.274929 -0.166878
  5 0.000008 -0.000006 -5.615750 0.930389 2.983788 0.058180
  6 15.693467 0.000000 0.000000 0.000000 0.000000 -1.738323
  7 22.146629 0.000000 0.000000 -0.200310 -0.174519 -0.452821
  8 1.384163 -0.004728 0.000002 -0.435808 -0.004818 0.041421
  9 5.939814 -0.004730 0.000000 -0.096123 0.165315 0.128646
 10 5.939809 -0.003975 0.000000 -0.095527 0.276544 0.258481
 11 4.991439 -0.003975 0.000000 -0.080067 0.091227 0.408343
 12 4.991436 -0.001575 0.000000 0.000000 -0.000000 0.000000
 13 1.977383 0.000000 0.000000 -0.005368 -0.096672 -0.034458
 14 0.000005 0.001585 -3.638375 -1.559294 0.593835 1.590562
 15 8.842831 0.000000 0.000001 1.345591 0.958474 0.096898
 16 9.341934 0.000000 -0.000001 0.000000 -0.000000 -1.219252
 17 9.664095 0.000000 -0.000002 2.836339 -0.141012 -0.392163
 18 3.723787 2.768019 -0.397315 -0.000000 -3.141591 -1.570795
 19 2.863741 -0.721067 0.000003 0.000000 -0.000000 -0.000001
 20 -0.000093 0.001563 3.638375 1.144630 -0.950105 2.078808
 21 8.842828 -0.000005 0.000001 -0.461082 -0.061800 -0.834711
 22 9.341935 -0.000122 -0.000005 -0.000004 -0.000003 -1.292975
 23 9.664116 -0.000102 -0.000016 -3.820567 -0.067332 -0.376860
 24 6.829862 -0.000027 0.000010 0.001239 0.000002 0.000002
 25 7.919295 -0.636940 0.610559 -1.520271 -0.091529 1.564913
 26 2.515643 0.482260 0.379709 1.593356 0.004970 0.082571
time 13
  0 -0.074360 0.074360 10.697627 1.416674 -0.960398 -3.014942
  1 -1.705765 1.996156 9.745319 -1.570795 -1.570451 0.000000
  2 -0.000008 0.000010 5.615750 0.202013 2.570968 -0.707054
  3 15.693467 0.000000 0.000000 0.000000 0.000000 -1.486517
  4 22.146629 -0.000001 0.000000 0.116882 -0.266913 -0.190409
  5 0.000008 -0.000006 -5.615750 0.923390 3.021081 0.007946
  6 15.693467 0.000000 0.000000 0.000000 0.000000 -1.738323
  7 22.146629 0.000000 0.000000 -0.149203 -0.138203 -0.460811
  8 1.384163 -0.004728 0.000002 -0.435808 -0.004818 0.041421
  9 5.939814 -0.004730 0.000000 -0.096123 0.165315 0.128646
 10 5.939809 -0.003975 0.000000 -0.093268 0.169115 0.268879
 11 4.991439 -0.003975 0.000000 -0.080067 0.091227 0.408343
 12 4.991436 -0.001575 0.000000 0.000000 -0.000000 0.000000
 13 1.977383 0.000000 0.000000 0.034737 0.167270 -0.018773
 14 0.000005 0.001585 -3.638375 -1.559294 0.593835 1.590562
 15 8.842831 0.000000 0.000001 1.501797 0.902752 -0.036636
 16 9.341934 0.000000 -0.000001 0.000000 -0.000000 -1.219252
 17 9.664095 0.000000 -0.000002 2.246418 -0.182372 -0.354169
 18 3.723787 2.768019 -0.397315 -0.000000 -3.141591 -1.570795
 19 2.863741 -0.721067 0.000003 0.000000 -0.000000 -0.000001
 20 -0.000093 0.001563 3.638375 1.144630 -0.950105 2.078808
 21 8.842828 -0.000005 0.000001 -0.375898 0.159820 -0.876766
 22 9.341935 -0.000122 -0.000005 -0.000004 -0.000003 -1.292975
 23 9.664116 -0.000102 -0.000016 -3.820567 -0.067332 -0.376860
 24 6.829862 -0.000027 0.000010 0.001239 0.000002 0.000002
 25 7.919295 -0.636940 0.610559 -1.520271 -0.091529 1.564913
 26 2.515643 0.482260 0.379709 1.593356 0.004970 0.082571
time 14
  0 -0.074360 0.074360 8.027416 1.416674 -0.960398 -3.014942
  1 -1.994836 1.648489 9.745319 -1.570795 -1.570451 0.000000
  2 -0.000008 0.000010 5.615750 0.186961 2.710077 -0.738308
  3 15.693467 0.000000 0.000000 0.000000 0.000000 -1.486517
  4 22.146629 -0.000001 0.000000 0.262331 -0.249215 -0.227666
  5 0.000008 -0.000006 -5.615750 0.915911 3.083877 -0.074691
  6 15.693467 0.000000 0.000000 0.000000 0.000000 -1.738323
  7 22.146629 0.000000 0.000000 -0.065266 -0.076899 -0.469902
  8 1.384163 -0.004728 0.000002 -0.435808 -0.004818 0.041421
  9 5.939814 -0.004730 0.000000 -0.096123 0.165315 0.128646
 10 5.939809 -0.003975 0.000000 -0.092111 -0.009971 0.285563
 11 4.991439 -0.003975 0.000000 -0.080067 0.091227 0.408343
 12 4.991436 -0.001575 0.000000 0.000000 -0.000000 0.000000
 13 1.977383 0.000000 0.000000 0.116421 0.495280 0.039285
 14 0.000005 0.001585 -3.638375 -1.559294 0.593835 1.590562
 15 8.842831 0.000000 0.000001 1.811148 0.872564 -0.221631
 16 9.341934 0.000000 -0.000001 0.000000 -0.000000 -1.219252
 17 9.664095 0.000000 -0.000002 1.481506 -0.081535 -0.208683
 18 3.723787 2.768019 -0.397315 -0.000000 -3.141591 -1.570795
 19 2.863741 -0.721067 0.000003 0.000000 -0.000000 -0.000001
 20 -0.000093 0.001563 3.638375 1.144630 -0.950105 2.078808
 21 8.842828 -0.000005 0.000001 -0.263672 0.547793 -0.867357
 22 9.341935 -0.000122 -0.000005 -0.000004 -0.000003 -1.292975
 23 9.664116 -0.000102 -0.000016 -3.820567 -0.067332 -0.376860
 24 6.829862 -0.000027 0.000010 0.001239 0.000002 0.000002
 25 7.919295 -0.636940 0.610559 -1.520271 -0.091529 1.564913
 26 2.515643 0.482260 0.379709 1.593356 0.004970 0.082571
end
