version 1
nodes
  0 "Bip01"  -1
  1 "Bip01 Pelvis"   0
  2 "Bip01 L Leg"   1
  3 "Bip01 L Leg1"   2
  4 "Bip01 L Foot"   3
  5 "Bip01 L Toe0"   4
  6 "Bip01 R Leg"   1
  7 "Bip01 R Leg1"   6
  8 "Bip01 R Foot"   7
  9 "Bip01 R Toe0"   8
 10 "Bip01 Spine"   1
 11 "Bip01 Spine1"  10
 12 "Bip01 Spine2"  11
 13 "Bip01 Spine3"  12
 14 "Bip01 Neck"  13
 15 "Bip01 L Arm"  14
 16 "Bip01 L Arm1"  15
 17 "Bip01 L Arm2"  16
 18 "Bip01 L Hand"  17
 19 "Bip01 L Finger0"  18
 20 "Bip01 L Finger01"  19
 21 "Bip01 R Arm"  14
 22 "Bip01 R Arm1"  21
 23 "Bip01 R Arm2"  22
 24 "Bip01 R Hand"  23
 25 "Bip01 R Finger0"  24
 26 "Bip01 R Finger01"  25
 27 "Bip01 Head"  14
 28 "Dummy08"  27
 29 "Bone02"  28
end
skeleton
time 0
  0 -0.190447 0.190447 2.833593 0.000000 0.000000 -1.570922
  1 0.000000 0.000000 0.000000 -1.570795 -1.570787 0.000000
  2 -0.000005 0.000007 3.713254 0.004259 3.182534 -0.146104
  3 18.045725 0.000000 0.000000 0.000000 0.000000 -0.339755
  4 17.597599 0.000000 0.000000 0.001570 -0.041150 0.193669
  5 3.793089 6.407220 0.000000 0.000000 0.000000 1.570796
  6 0.000005 -0.000003 -3.713254 -0.001376 -3.167983 -0.147788
  7 18.045723 0.000000 0.000000 0.000000 0.000000 -0.343074
  8 17.597597 0.000000 0.000000 -0.002591 0.026320 0.195258
  9 3.793089 6.407220 0.000000 0.000000 0.000000 1.570796
 10 1.293670 0.684478 -0.000001 -0.000004 -0.000001 0.114185
 11 5.309685 -0.003834 0.000000 0.000000 0.000000 -0.069778
 12 4.826790 -0.004591 0.000000 0.000000 0.000000 -0.095944
 13 5.792767 -0.005304 0.000000 0.000000 0.000000 0.017444
 14 6.662317 -0.001453 0.000000 0.000000 -0.000001 0.471000
 15 -3.112024 1.517254 4.341910 -0.000013 -1.370798 2.669809
 16 4.827231 0.000000 0.000001 0.083286 1.147370 0.083049
 17 11.139763 0.000000 0.000000 0.000000 0.000000 -0.200000
 18 10.314597 0.000000 -0.000001 -1.570000 -0.226765 -0.000012
 19 1.646738 0.449549 -1.702246 0.287460 0.372853 0.611087
 20 0.928312 0.000000 -0.000002 0.000000 0.000000 0.000000
 21 -2.869898 1.399663 -4.140396 -0.000014 1.370795 2.669783
 22 4.972047 0.000000 0.000001 -0.083401 -1.147329 0.082967
 23 11.585354 0.000000 0.000001 0.000000 0.000000 -0.871586
 24 10.127057 0.000000 0.000000 1.569752 0.000000 -0.000035
 25 1.533671 0.109715 1.664490 -0.233255 -0.412980 0.435684
 26 0.928313 0.000000 0.000000 0.000000 0.000000 0.000000
 27 2.046985 -0.000002 0.000000 0.000000 0.000000 -0.262391
 28 1.038630 0.548043 -0.144017 -0.000001 0.000001 -1.830755
 29 -0.064003 -0.023521 0.026161 0.000000 0.000000 0.000000
time 1
  0 -0.190447 0.190447 5.521175 0.000000 0.055932 -1.570922
  1 0.539079 0.000000 0.000000 -1.570795 -1.570787 0.000000
  2 -0.000005 0.000007 3.713254 0.011447 3.181004 -0.325980
  3 18.045725 0.000000 0.000000 0.000000 0.000000 -0.730548
  4 17.597599 0.000000 0.000000 0.017667 -0.037085 -0.001284
  5 3.793089 6.407220 0.000000 0.000000 0.000000 1.570796
  6 0.000005 -0.000003 -3.713254 0.000442 -3.167983 -0.075258
  7 18.045723 0.000000 0.000000 0.000000 0.000000 -0.225424
  8 17.597597 0.000000 0.000000 -0.010440 0.024249 -0.158753
  9 3.793089 6.407220 0.000000 0.000000 0.000000 1.570796
 10 1.293670 0.684478 -0.000001 -0.000004 -0.000001 0.114185
 11 5.309685 -0.003834 0.000000 0.000000 0.000000 -0.119142
 12 4.826790 -0.004591 0.000000 0.000000 0.000000 -0.157856
 13 5.792767 -0.005304 0.000000 0.000000 0.000000 -0.040546
 14 6.662317 -0.001453 0.000000 0.000000 -0.000001 0.471000
 15 -3.112024 1.517254 4.341910 -0.000013 -1.370798 2.669809
 16 4.827231 0.000000 0.000001 -0.588599 0.782713 -0.690375
 17 11.139763 0.000000 0.000000 0.000000 0.000000 -0.581655
 18 10.314597 0.000000 -0.000001 -1.570000 -0.226765 -0.000012
 19 1.646738 0.449549 -1.702246 0.287460 0.372853 0.611087
 20 0.928312 0.000000 -0.000002 0.000000 0.000000 0.000000
 21 -2.869898 1.399663 -4.140396 -0.000014 1.370795 2.669783
 22 4.972047 0.000000 0.000001 0.609233 -0.800387 -0.660404
 23 11.585354 0.000000 0.000001 0.000000 0.000000 -1.021713
 24 10.127057 0.000000 0.000000 1.569752 0.000000 -0.000035
 25 1.533671 0.109715 1.664490 -0.233255 -0.412980 0.435684
 26 0.928313 0.000000 0.000000 0.000000 0.000000 0.000000
 27 2.046985 -0.000002 0.000000 0.000000 0.000000 -0.153483
 28 1.038630 0.548043 -0.144017 -0.000001 0.000001 -1.809003
 29 -0.064003 -0.023521 0.026161 0.000000 0.000000 0.000000
time 2
  0 -0.190447 0.190447 8.950968 0.000000 0.122000 -1.570922
  1 1.058626 0.000000 0.000000 -1.570795 -1.570787 0.000000
  2 -0.000005 0.000007 3.713254 0.018828 3.177848 -0.518684
  3 18.045725 0.000000 0.000000 0.000000 0.000000 -1.133883
  4 17.597599 0.000000 0.000000 0.031001 -0.026812 -0.202505
  5 3.793089 6.407220 0.000000 0.000000 0.000000 1.570796
  6 0.000005 -0.000003 -3.713254 0.002355 -3.167792 -0.007189
  7 18.045723 0.000000 0.000000 0.000000 0.000000 -0.112555
  8 17.597597 0.000000 0.000000 -0.017415 0.019791 -0.517434
  9 3.793089 6.407220 0.000000 0.000000 0.000000 1.570796
 10 1.293670 0.684478 -0.000001 -0.000004 -0.000001 0.114185
 11 5.309685 -0.003834 0.000000 0.000000 0.000000 -0.166930
 12 4.826790 -0.004591 0.000000 0.000000 0.000000 -0.218047
 13 5.792767 -0.005304 0.000000 0.000000 0.000000 -0.097229
 14 6.662317 -0.001453 0.000000 0.000000 -0.000001 0.471000
 15 -3.112024 1.517254 4.341910 -0.000013 -1.370798 2.669809
 16 4.827231 0.000000 0.000001 -0.769507 0.302064 -1.029481
 17 11.139763 0.000000 0.000000 0.000000 0.000000 -0.964501
 18 10.314597 0.000000 -0.000001 -1.570000 -0.226765 -0.000012
 19 1.646738 0.449549 -1.702246 0.287460 0.372853 0.611087
 20 0.928312 0.000000 -0.000002 0.000000 0.000000 0.000000
 21 -2.869898 1.399663 -4.140396 -0.000014 1.370795 2.669783
 22 4.972047 0.000000 0.000001 0.821340 -0.327072 -0.971191
 23 11.585354 0.000000 0.000001 0.000000 0.000000 -1.168833
 24 10.127057 0.000000 0.000000 1.569752 0.000000 -0.000035
 25 1.533671 0.109715 1.664490 -0.233255 -0.412980 0.435684
 26 0.928313 0.000000 0.000000 0.000000 0.000000 0.000000
 27 2.046985 -0.000002 0.000000 0.000000 0.000000 -0.048575
 28 1.038630 0.548043 -0.144017 -0.000001 0.000001 -1.785944
 29 -0.064003 -0.023521 0.026161 0.000000 0.000000 0.000000
time 3
  0 -0.190447 0.190447 12.212786 0.000000 0.185224 -1.570922
  1 1.289102 0.000000 0.000000 -1.570795 -1.570787 0.000000
  2 -0.000005 0.000007 3.713254 0.025154 3.173737 -0.704780
  3 18.045725 0.000000 0.000000 0.000000 0.000000 -1.447646
  4 17.597599 0.000000 0.000000 0.037212 -0.017002 -0.359437
  5 3.793089 6.407220 0.000000 0.000000 0.000000 1.570796
  6 0.000005 -0.000003 -3.713254 0.002738 -3.167696 0.011379
  7 18.045723 0.000000 0.000000 0.000000 0.000000 -0.067494
  8 17.597597 0.000000 0.000000 -0.021241 0.015531 -0.761660
  9 3.793089 6.407220 0.000000 0.000000 0.000000 1.570796
 10 1.293670 0.684478 -0.000001 -0.000004 -0.000001 0.114185
 11 5.309685 -0.003834 0.000000 0.000000 0.000000 -0.187754
 12 4.826790 -0.004591 0.000000 0.000000 0.000000 -0.245696
 13 5.792767 -0.005304 0.000000 0.000000 0.000000 -0.124740
 14 6.662317 -0.001453 0.000000 0.000000 -0.000001 0.471000
 15 -3.112024 1.517254 4.341910 -0.000013 -1.370798 2.669809
 16 4.827231 0.000000 0.000001 -0.818728 -0.147353 -1.262786
 17 11.139763 0.000000 0.000000 0.000000 0.000000 -1.272432
 18 10.314597 0.000000 -0.000001 -1.570000 -0.226765 -0.000012
 19 1.646738 0.449549 -1.702246 0.287460 0.372853 0.611087
 20 0.928312 0.000000 -0.000002 0.000000 0.000000 0.000000
 21 -2.869898 1.399663 -4.140396 -0.000014 1.370795 2.669783
 22 4.972047 0.000000 0.000001 0.891578 0.022605 -1.139100
 23 11.585354 0.000000 0.000001 0.000000 0.000000 -1.241798
 24 10.127057 0.000000 0.000000 1.569752 0.000000 -0.000035
 25 1.533671 0.109715 1.664490 -0.233255 -0.412980 0.435684
 26 0.928313 0.000000 0.000000 0.000000 0.000000 0.000000
 27 2.046985 -0.000002 0.000000 0.000000 0.000000 -0.005920
 28 1.038630 0.548043 -0.144017 -0.000001 0.000001 -1.762922
 29 -0.064003 -0.023521 0.026161 0.000000 0.000000 0.000000
time 4
  0 -0.190447 0.190447 14.958963 0.000000 0.240889 -1.570922
  1 1.191443 0.000000 0.000000 -1.570795 -1.570787 0.000000
  2 -0.000005 0.000007 3.713254 0.030905 3.168191 -0.901274
  3 18.045725 0.000000 0.000000 0.000000 0.000000 -1.680222
  4 17.597599 0.000000 0.000000 0.039316 -0.011111 -0.476747
  5 3.793089 6.407220 0.000000 0.000000 0.000000 1.570796
  6 0.000005 -0.000003 -3.713254 0.001781 -3.167792 -0.030412
  7 18.045723 0.000000 0.000000 0.000000 0.000000 -0.103282
  8 17.597597 0.000000 0.000000 -0.022923 0.012888 -0.886726
  9 3.793089 6.407220 0.000000 0.000000 0.000000 1.570796
 10 1.293670 0.684478 -0.000001 -0.000004 -0.000001 0.114185
 11 5.309685 -0.003834 0.000000 0.000000 0.000000 -0.176871
 12 4.826790 -0.004591 0.000000 0.000000 0.000000 -0.235289
 13 5.792767 -0.005304 0.000000 0.000000 0.000000 -0.118428
 14 6.662317 -0.001453 0.000000 0.000000 -0.000001 0.471000
 15 -3.112024 1.517254 4.341910 -0.000013 -1.370798 2.669809
 16 4.827231 0.000000 0.000001 -0.844513 -0.282237 -1.343734
 17 11.139763 0.000000 0.000000 0.000000 0.000000 -1.298992
 18 10.314597 0.000000 -0.000001 -1.570000 -0.226765 -0.000012
 19 1.646738 0.449549 -1.702246 0.287460 0.372853 0.611087
 20 0.928312 0.000000 -0.000002 0.000000 0.000000 0.000000
 21 -2.869898 1.399663 -4.140396 -0.000014 1.370795 2.669783
 22 4.972047 0.000000 0.000001 0.933117 0.238267 -1.232902
 23 11.585354 0.000000 0.000001 0.000000 0.000000 -1.229206
 24 10.127057 0.000000 0.000000 1.569752 0.000000 -0.000035
 25 1.533671 0.109715 1.664490 -0.233255 -0.412980 0.435684
 26 0.928313 0.000000 0.000000 0.000000 0.000000 0.000000
 27 2.046985 -0.000002 0.000000 0.000000 0.000000 -0.037113
 28 1.038630 0.548043 -0.144017 -0.000001 0.000001 -1.741170
 29 -0.064003 -0.023521 0.026161 0.000000 0.000000 0.000000
time 5
  0 -0.190447 0.190447 17.087934 0.000000 0.288995 -1.570922
  1 0.640645 0.000000 0.000000 -1.570795 -1.570787 0.000000
  2 -0.000005 0.000007 3.713254 0.036656 3.158725 -1.167298
  3 18.045725 0.000000 0.000000 0.000000 0.000000 -1.869533
  4 17.597599 0.000000 0.000000 0.039392 -0.009991 -0.583351
  5 3.793089 6.407220 0.000000 0.000000 0.000000 1.570796
  6 0.000005 -0.000003 -3.713254 -0.000993 -3.167792 -0.135667
  7 18.045723 0.000000 0.000000 0.000000 0.000000 -0.227742
  8 17.597597 0.000000 0.000000 -0.023137 0.012494 -0.884082
  9 3.793089 6.407220 0.000000 0.000000 0.000000 1.570796
 10 1.293670 0.684478 -0.000001 -0.000004 -0.000001 0.114185
 11 5.309685 -0.003834 0.000000 0.000000 0.000000 -0.122238
 12 4.826790 -0.004591 0.000000 0.000000 0.000000 -0.173069
 13 5.792767 -0.005304 0.000000 0.000000 0.000000 -0.067455
 14 6.662317 -0.001453 0.000000 0.000000 -0.000001 0.471000
 15 -3.112024 1.517254 4.341910 -0.000013 -1.370798 2.669809
 16 4.827231 0.000000 0.000001 -0.949533 -0.167862 -1.316868
 17 11.139763 0.000000 0.000000 0.000000 0.000000 -1.062052
 18 10.314597 0.000000 -0.000001 -1.570000 -0.226765 -0.000012
 19 1.646738 0.449549 -1.702246 0.287460 0.372853 0.611087
 20 0.928312 0.000000 -0.000002 0.000000 0.000000 0.000000
 21 -2.869898 1.399663 -4.140396 -0.000014 1.370795 2.669783
 22 4.972047 0.000000 0.000001 1.013102 0.310825 -1.267485
 23 11.585354 0.000000 0.000001 0.000000 0.000000 -1.094189
 24 10.127057 0.000000 0.000000 1.569752 0.000000 -0.000035
 25 1.533671 0.109715 1.664490 -0.233255 -0.412980 0.435684
 26 0.928313 0.000000 0.000000 0.000000 0.000000 0.000000
 27 2.046985 -0.000002 0.000000 0.000000 0.000000 -0.165080
 28 1.038630 0.548043 -0.144017 -0.000001 0.000001 -1.721982
 29 -0.064003 -0.023521 0.026161 0.000000 0.000000 0.000000
time 6
  0 -0.190447 0.190447 18.681732 0.000000 0.331411 -1.570922
  1 -0.230476 0.000000 0.000000 -1.570795 -1.570787 0.000000
  2 -0.000005 0.000007 3.713254 0.039914 3.146007 -1.485896
  3 18.045725 0.000000 0.000000 0.000000 0.000000 -2.037620
  4 17.597599 0.000000 0.000000 0.038505 -0.011963 -0.688994
  5 3.793089 6.407220 0.000000 0.000000 0.000000 1.570796
  6 0.000005 -0.000003 -3.713254 -0.004342 -3.167505 -0.271224
  7 18.045723 0.000000 0.000000 0.000000 0.000000 -0.397263
  8 17.597597 0.000000 0.000000 -0.022560 0.013460 -0.807538
  9 3.793089 6.407220 0.000000 0.000000 0.000000 1.570796
 10 1.293670 0.684478 -0.000001 -0.000004 -0.000001 0.114185
 11 5.309685 -0.003834 0.000000 0.000000 0.000000 -0.038704
 12 4.826790 -0.004591 0.000000 0.000000 0.000000 -0.076718
 13 5.792767 -0.005304 0.000000 0.000000 0.000000 0.012772
 14 6.662317 -0.001453 0.000000 0.000000 -0.000001 0.471000
 15 -3.112024 1.517254 4.341910 -0.000013 -1.370798 2.669809
 16 4.827231 0.000000 0.000001 -1.068709 -0.116121 -1.334195
 17 11.139763 0.000000 0.000000 0.000000 0.000000 -0.813899
 18 10.314597 0.000000 -0.000001 -1.570000 -0.226765 -0.000012
 19 1.646738 0.449549 -1.702246 0.287460 0.372853 0.611087
 20 0.928312 0.000000 -0.000002 0.000000 0.000000 0.000000
 21 -2.869898 1.399663 -4.140396 -0.000014 1.370795 2.669783
 22 4.972047 0.000000 0.000001 1.119542 0.286934 -1.295415
 23 11.585354 0.000000 0.000001 0.000000 0.000000 -0.876553
 24 10.127057 0.000000 0.000000 1.569752 0.000000 -0.000035
 25 1.533671 0.109715 1.664490 -0.233255 -0.412980 0.435684
 26 0.928313 0.000000 0.000000 0.000000 0.000000 0.000000
 27 2.046985 -0.000002 0.000000 0.000000 0.000000 -0.355523
 28 1.038630 0.548043 -0.144017 -0.000001 0.000001 -1.706690
 29 -0.064003 -0.023521 0.026161 0.000000 0.000000 0.000000
time 7
  0 -0.190447 0.190447 19.877083 0.000000 0.369914 -1.570922
  1 -1.183630 0.000000 0.000000 -1.570795 -1.570787 0.000000
  2 -0.000005 0.000007 3.713254 -3.102114 0.008085 1.349222
  3 18.045725 0.000000 0.000000 0.000000 0.000000 -2.168528
  4 17.597599 0.000000 0.000000 0.037009 -0.015712 -0.772859
  5 3.793089 6.407220 0.000000 0.000000 0.000000 1.570796
  6 0.000005 -0.000003 -3.713254 -0.008360 -3.166452 -0.423798
  7 18.045723 0.000000 0.000000 0.000000 0.000000 -0.588879
  8 17.597597 0.000000 0.000000 -0.021554 0.015038 -0.697822
  9 3.793089 6.407220 0.000000 0.000000 0.000000 1.570796
 10 1.293670 0.684478 -0.000001 -0.000004 -0.000001 0.114185
 11 5.309685 -0.003834 0.000000 0.000000 0.000000 0.052472
 12 4.826790 -0.004591 0.000000 0.000000 0.000000 0.028982
 13 5.792767 -0.005304 0.000000 0.000000 0.000000 0.101679
 14 6.662317 -0.001453 0.000000 0.000000 -0.000001 0.471000
 15 -3.112024 1.517254 4.341910 -0.000013 -1.370798 2.669809
 16 4.827231 0.000000 0.000001 -1.175375 -0.108972 -1.392740
 17 11.139763 0.000000 0.000000 0.000000 0.000000 -0.581795
 18 10.314597 0.000000 -0.000001 -1.570000 -0.226765 -0.000012
 19 1.646738 0.449549 -1.702246 0.287460 0.372853 0.611087
 20 0.928312 0.000000 -0.000002 0.000000 0.000000 0.000000
 21 -2.869898 1.399663 -4.140396 -0.000014 1.370795 2.669783
 22 4.972047 0.000000 0.000001 1.203704 0.221294 -1.344095
 23 11.585354 0.000000 0.000001 0.000000 0.000000 -0.640309
 24 10.127057 0.000000 0.000000 1.569752 0.000000 -0.000035
 25 1.533671 0.109715 1.664490 -0.233255 -0.412980 0.435684
 26 0.928313 0.000000 0.000000 0.000000 0.000000 0.000000
 27 2.046985 -0.000002 0.000000 0.000000 0.000000 -0.565698
 28 1.038630 0.548043 -0.144017 -0.000001 0.000001 -1.696575
 29 -0.064003 -0.023521 0.026161 0.000000 0.000000 0.000000
time 8
  0 -0.190447 0.190447 20.779453 0.000000 0.406194 -1.570922
  1 -2.019593 0.000000 0.000000 -1.570795 -1.570787 0.000000
  2 -0.000005 0.000007 3.713254 -3.105278 0.017647 1.099961
  3 18.045725 0.000000 0.000000 0.000000 0.000000 -2.252757
  4 17.597599 0.000000 0.000000 0.034956 -0.020045 -0.821357
  5 3.793089 6.407220 0.000000 0.000000 0.000000 1.570796
  6 0.000005 -0.000003 -3.713254 -0.012282 -3.164729 -0.589946
  7 18.045723 0.000000 0.000000 0.000000 0.000000 -0.793825
  8 17.597597 0.000000 0.000000 -0.020268 0.016774 -0.576121
  9 3.793089 6.407220 0.000000 0.000000 0.000000 1.570796
 10 1.293670 0.684478 -0.000001 -0.000004 -0.000001 0.114185
 11 5.309685 -0.003834 0.000000 0.000000 0.000000 0.136042
 12 4.826790 -0.004591 0.000000 0.000000 0.000000 0.126214
 13 5.792767 -0.005304 0.000000 0.000000 0.000000 0.184501
 14 6.662317 -0.001453 0.000000 0.000000 -0.000001 0.471000
 15 -3.112024 1.517254 4.341910 -0.000013 -1.370798 2.669809
 16 4.827231 0.000000 0.000001 -1.251321 -0.117823 -1.470625
 17 11.139763 0.000000 0.000000 0.000000 0.000000 -0.376671
 18 10.314597 0.000000 -0.000001 -1.570000 -0.226765 -0.000012
 19 1.646738 0.449549 -1.702246 0.287460 0.372853 0.611087
 20 0.928312 0.000000 -0.000002 0.000000 0.000000 0.000000
 21 -2.869898 1.399663 -4.140396 -0.000014 1.370795 2.669783
 22 4.972047 0.000000 0.000001 1.246868 0.152919 -1.398308
 23 11.585354 0.000000 0.000001 0.000000 0.000000 -0.431138
 24 10.127057 0.000000 0.000000 1.569752 0.000000 -0.000035
 25 1.533671 0.109715 1.664490 -0.233255 -0.412980 0.435684
 26 0.928313 0.000000 0.000000 0.000000 0.000000 0.000000
 27 2.046985 -0.000002 0.000000 0.000000 0.000000 -0.764862
 28 1.038630 0.548043 -0.144017 -0.000001 0.000001 -1.692920
 29 -0.064003 -0.023521 0.026161 0.000000 0.000000 0.000000
time 9
  0 -0.190447 0.190447 21.365408 0.000000 0.440606 -1.570922
  1 -2.632893 0.000000 0.000000 -1.570795 -1.570787 0.000000
  2 -0.000005 0.000007 3.713254 -3.108345 0.023384 0.935730
  3 18.045725 0.000000 0.000000 0.000000 0.000000 -2.285929
  4 17.597599 0.000000 0.000000 0.032522 -0.024183 -0.827305
  5 3.793089 6.407220 0.000000 0.000000 0.000000 1.570796
  6 0.000005 -0.000003 -3.713254 -0.016300 -3.162144 -0.770543
  7 18.045723 0.000000 0.000000 0.000000 0.000000 -1.008986
  8 17.597597 0.000000 0.000000 -0.018784 0.018391 -0.458335
  9 3.793089 6.407220 0.000000 0.000000 0.000000 1.570796
 10 1.293670 0.684478 -0.000001 -0.000004 -0.000001 0.114185
 11 5.309685 -0.003834 0.000000 0.000000 0.000000 0.201885
 12 4.826790 -0.004591 0.000000 0.000000 0.000000 0.203141
 13 5.792767 -0.005304 0.000000 0.000000 0.000000 0.251399
 14 6.662317 -0.001453 0.000000 0.000000 -0.000001 0.471000
 15 -3.112024 1.517254 4.341910 -0.000013 -1.370798 2.669809
 16 4.827231 0.000000 0.000001 -1.286504 -0.130758 -1.534945
 17 11.139763 0.000000 0.000000 0.000000 0.000000 -0.219903
 18 10.314597 0.000000 -0.000001 -1.570000 -0.226765 -0.000012
 19 1.646738 0.449549 -1.702246 0.287460 0.372853 0.611087
 20 0.928312 0.000000 -0.000002 0.000000 0.000000 0.000000
 21 -2.869898 1.399663 -4.140396 -0.000014 1.370795 2.669783
 22 4.972047 0.000000 0.000001 1.253443 0.105781 -1.428807
 23 11.585354 0.000000 0.000001 0.000000 0.000000 -0.278701
 24 10.127057 0.000000 0.000000 1.569752 0.000000 -0.000035
 25 1.533671 0.109715 1.664490 -0.233255 -0.412980 0.435684
 26 0.928313 0.000000 0.000000 0.000000 0.000000 0.000000
 27 2.046985 -0.000002 0.000000 0.000000 0.000000 -0.932112
 28 1.038630 0.548043 -0.144017 -0.000001 0.000001 -1.693363
 29 -0.064003 -0.023521 0.026161 0.000000 0.000000 0.000000
time 10
  0 -0.190447 0.190447 21.400566 0.000000 0.470929 -1.570922
  1 -3.003998 0.000000 0.000000 -1.570795 -1.570787 0.000000
  2 -0.000005 0.000007 3.713254 -3.109207 0.025297 0.870426
  3 18.045725 0.000000 0.000000 0.000000 0.000000 -2.268341
  4 17.597599 0.000000 0.000000 0.029987 -0.027737 -0.788415
  5 3.793089 6.407220 0.000000 0.000000 0.000000 1.570796
  6 0.000005 -0.000003 -3.713254 -0.020031 -3.158602 -0.966848
  7 18.045723 0.000000 0.000000 0.000000 0.000000 -1.228638
  8 17.597597 0.000000 0.000000 -0.017481 0.019653 -0.366132
  9 3.793089 6.407220 0.000000 0.000000 0.000000 1.570796
 10 1.293670 0.684478 -0.000001 -0.000004 -0.000001 0.114185
 11 5.309685 -0.003834 0.000000 0.000000 0.000000 0.244204
 12 4.826790 -0.004591 0.000000 0.000000 0.000000 0.252926
 13 5.792767 -0.005304 0.000000 0.000000 0.000000 0.296517
 14 6.662317 -0.001453 0.000000 0.000000 -0.000001 0.471000
 15 -3.112024 1.517254 4.341910 -0.000013 -1.370798 2.669809
 16 4.827231 0.000000 0.000001 -1.231292 -0.193562 -1.453998
 17 11.139763 0.000000 0.000000 0.000000 0.000000 -0.200000
 18 10.314597 0.000000 -0.000001 -1.570000 -0.226765 -0.000012
 19 1.646738 0.449549 -1.702246 0.287460 0.372853 0.611087
 20 0.928312 0.000000 -0.000002 0.000000 0.000000 0.000000
 21 -2.869898 1.399663 -4.140396 -0.000014 1.370795 2.669783
 22 4.972047 0.000000 0.000001 1.236193 0.094841 -1.418992
 23 11.585354 0.000000 0.000001 0.000000 0.000000 -0.200000
 24 10.127057 0.000000 0.000000 1.569752 0.000000 -0.000035
 25 1.533671 0.109715 1.664490 -0.233255 -0.412980 0.435684
 26 0.928313 0.000000 0.000000 0.000000 0.000000 0.000000
 27 2.046985 -0.000002 0.000000 0.000000 0.000000 -1.055089
 28 1.038630 0.548043 -0.144017 -0.000001 0.000001 -1.694705
 29 -0.064003 -0.023521 0.026161 0.000000 0.000000 0.000000
time 11
  0 -0.190447 0.190447 20.525539 0.000000 0.491558 -1.570922
  1 -3.250099 0.000000 0.000000 -1.570795 -1.570787 0.000000
  2 -0.000005 0.000007 3.713254 -3.107674 0.023862 0.900794
  3 18.045725 0.000000 0.000000 0.000000 0.000000 -2.195318
  4 17.597599 0.000000 0.000000 0.027275 -0.031048 -0.706426
  5 3.793089 6.407220 0.000000 0.000000 0.000000 1.570796
  6 0.000005 -0.000003 -3.713254 -0.023475 -3.152955 -1.219489
  7 18.045723 0.000000 0.000000 0.000000 0.000000 -1.492699
  8 17.597597 0.000000 0.000000 -0.016492 0.020344 -0.311188
  9 3.793089 6.407220 0.000000 0.000000 0.000000 1.570796
 10 1.293670 0.684478 -0.000001 -0.000004 -0.000001 0.123326
 11 5.309685 -0.003834 0.000000 0.000000 0.000000 0.265500
 12 4.826790 -0.004591 0.000000 0.000000 0.000000 0.278524
 13 5.792767 -0.005304 0.000000 0.000000 0.000000 0.322408
 14 6.662317 -0.001453 0.000000 0.000000 -0.000001 0.471000
 15 -3.112024 1.517254 4.341910 -0.000013 -1.370798 2.669809
 16 4.827231 0.000000 0.000001 -1.177842 -0.293726 -1.326319
 17 11.139763 0.000000 0.000000 0.000000 0.000000 -0.254452
 18 10.314597 0.000000 -0.000001 -1.570000 -0.226765 -0.000012
 19 1.646738 0.449549 -1.702246 0.287460 0.372853 0.611087
 20 0.928312 0.000000 -0.000002 0.000000 0.000000 0.000000
 21 -2.869898 1.399663 -4.140396 -0.000014 1.370795 2.669783
 22 4.972047 0.000000 0.000001 1.207340 0.118973 -1.369127
 23 11.585354 0.000000 0.000001 0.000000 0.000000 -0.186918
 24 10.127057 0.000000 0.000000 1.569752 0.000000 -0.000035
 25 1.533671 0.109715 1.664490 -0.233255 -0.412980 0.435684
 26 0.928313 0.000000 0.000000 0.000000 0.000000 0.000000
 27 2.046985 -0.000002 0.000000 0.000000 0.000000 -1.148445
 28 1.038630 0.548043 -0.144017 -0.000001 0.000001 -1.696863
 29 -0.064003 -0.023521 0.026161 0.000000 0.000000 0.000000
time 12
  0 -0.190447 0.190447 19.068464 0.000000 0.504096 -1.570922
  1 -3.425886 0.000000 0.000000 -1.570795 -1.570787 0.000000
  2 -0.000005 0.000007 3.713254 -3.104798 0.020516 0.981112
  3 18.045725 0.000000 0.000000 0.000000 0.000000 -2.090978
  4 17.597599 0.000000 0.000000 0.024182 -0.034188 -0.604489
  5 3.793089 6.407220 0.000000 0.000000 0.000000 1.570796
  6 0.000005 -0.000003 -3.713254 -0.025771 -3.144723 -1.539133
  7 18.045723 0.000000 0.000000 0.000000 0.000000 -1.816889
  8 17.597597 0.000000 0.000000 -0.015618 0.020797 -0.275200
  9 3.793089 6.407220 0.000000 0.000000 0.000000 1.570796
 10 1.293670 0.684478 -0.000001 -0.000004 -0.000001 0.133605
 11 5.309685 -0.003834 0.000000 0.000000 0.000000 0.276021
 12 4.826790 -0.004591 0.000000 0.000000 0.000000 0.291753
 13 5.792767 -0.005304 0.000000 0.000000 0.000000 0.338250
 14 6.662317 -0.001453 0.000000 0.000000 -0.000001 0.471000
 15 -3.112024 1.517254 4.341910 -0.000013 -1.370798 2.669809
 16 4.827231 0.000000 0.000001 -1.139487 -0.372784 -1.189539
 17 11.139763 0.000000 0.000000 0.000000 0.000000 -0.312618
 18 10.314597 0.000000 -0.000001 -1.570000 -0.226765 -0.000012
 19 1.646738 0.449549 -1.702246 0.287460 0.372853 0.611087
 20 0.928312 0.000000 -0.000002 0.000000 0.000000 0.000000
 21 -2.869898 1.399663 -4.140396 -0.000014 1.370795 2.669783
 22 4.972047 0.000000 0.000001 1.177094 0.150667 -1.297918
 23 11.585354 0.000000 0.000001 0.000000 0.000000 -0.205037
 24 10.127057 0.000000 0.000000 1.569752 0.000000 -0.000035
 25 1.533671 0.109715 1.664490 -0.233255 -0.412980 0.435684
 26 0.928313 0.000000 0.000000 0.000000 0.000000 0.000000
 27 2.046985 -0.000002 0.000000 0.000000 0.000000 -1.221620
 28 1.038630 0.548043 -0.144017 -0.000001 0.000001 -1.699775
 29 -0.064003 -0.023521 0.026161 0.000000 0.000000 0.000000
time 13
  0 -0.190447 0.190447 17.212938 0.000000 0.511566 -1.570922
  1 -3.546983 0.000000 0.000000 -1.570795 -1.570787 0.000000
  2 -0.000005 0.000007 3.713254 -3.102114 0.016308 1.081545
  3 18.045725 0.000000 0.000000 0.000000 0.000000 -1.976471
  4 17.597599 0.000000 0.000000 0.020912 -0.037085 -0.496969
  5 3.793089 6.407220 0.000000 0.000000 0.000000 1.570796
  6 0.000005 -0.000003 -3.713254 3.116149 -0.005598 1.270658
  7 18.045723 0.000000 0.000000 0.000000 0.000000 -2.144484
  8 17.597597 0.000000 0.000000 -0.014678 0.021349 -0.245736
  9 3.793089 6.407220 0.000000 0.000000 0.000000 1.570796
 10 1.293670 0.684478 -0.000001 -0.000004 -0.000001 0.144051
 11 5.309685 -0.003834 0.000000 0.000000 0.000000 0.280946
 12 4.826790 -0.004591 0.000000 0.000000 0.000000 0.298522
 13 5.792767 -0.005304 0.000000 0.000000 0.000000 0.348673
 14 6.662317 -0.001453 0.000000 0.000000 -0.000001 0.471000
 15 -3.112024 1.517254 4.341910 -0.000013 -1.370798 2.669809
 16 4.827231 0.000000 0.000001 -1.112292 -0.437716 -1.050221
 17 11.139763 0.000000 0.000000 0.000000 0.000000 -0.369313
 18 10.314597 0.000000 -0.000001 -1.570000 -0.226765 -0.000012
 19 1.646738 0.449549 -1.702246 0.287460 0.372853 0.611087
 20 0.928312 0.000000 -0.000002 0.000000 0.000000 0.000000
 21 -2.869898 1.399663 -4.140396 -0.000014 1.370795 2.669783
 22 4.972047 0.000000 0.000001 1.150484 0.186302 -1.219728
 23 11.585354 0.000000 0.000001 0.000000 0.000000 -0.237427
 24 10.127057 0.000000 0.000000 1.569752 0.000000 -0.000035
 25 1.533671 0.109715 1.664490 -0.233255 -0.412980 0.435684
 26 0.928313 0.000000 0.000000 0.000000 0.000000 0.000000
 27 2.046985 -0.000002 0.000000 0.000000 0.000000 -1.281985
 28 1.038630 0.548043 -0.144017 -0.000001 0.000001 -1.703406
 29 -0.064003 -0.023521 0.026161 0.000000 0.000000 0.000000
time 14
  0 -0.190447 0.190447 14.966776 0.000000 0.515478 -1.570922
  1 -3.656362 0.000000 0.000000 -1.570795 -1.570787 0.000000
  2 -0.000005 0.000007 3.713254 -3.099527 0.011241 1.195438
  3 18.045725 0.000000 0.000000 0.000000 0.000000 -1.854320
  4 17.597599 0.000000 0.000000 0.017236 -0.039811 -0.383869
  5 3.793089 6.407220 0.000000 0.000000 0.000000 1.570796
  6 0.000005 -0.000003 -3.713254 3.118540 -0.012395 0.996830
  7 18.045723 0.000000 0.000000 0.000000 0.000000 -2.403474
  8 17.597597 0.000000 0.000000 -0.013573 0.022178 -0.207413
  9 3.793089 6.407220 0.000000 0.000000 0.000000 1.570796
 10 1.293670 0.684478 -0.000001 -0.000004 -0.000001 0.154782
 11 5.309685 -0.003834 0.000000 0.000000 0.000000 0.282703
 12 4.826790 -0.004591 0.000000 0.000000 0.000000 0.301609
 13 5.792767 -0.005304 0.000000 0.000000 0.000000 0.356106
 14 6.662317 -0.001453 0.000000 0.000000 -0.000001 0.471000
 15 -3.112024 1.517254 4.341910 -0.000013 -1.370798 2.669809
 16 4.827231 0.000000 0.000001 -1.094553 -0.494053 -0.911516
 17 11.139763 0.000000 0.000000 0.000000 0.000000 -0.423625
 18 10.314597 0.000000 -0.000001 -1.570000 -0.226765 -0.000012
 19 1.646738 0.449549 -1.702246 0.287460 0.372853 0.611087
 20 0.928312 0.000000 -0.000002 0.000000 0.000000 0.000000
 21 -2.869898 1.399663 -4.140396 -0.000014 1.370795 2.669783
 22 4.972047 0.000000 0.000001 1.127123 0.225879 -1.135674
 23 11.585354 0.000000 0.000001 0.000000 0.000000 -0.278841
 24 10.127057 0.000000 0.000000 1.569752 0.000000 -0.000035
 25 1.533671 0.109715 1.664490 -0.233255 -0.412980 0.435684
 26 0.928313 0.000000 0.000000 0.000000 0.000000 0.000000
 27 2.046985 -0.000002 0.000000 0.000000 0.000000 -1.336057
 28 1.038630 0.548043 -0.144017 -0.000001 0.000001 -1.707721
 29 -0.064003 -0.023521 0.026161 0.000000 0.000000 0.000000
time 15
  0 -0.190447 0.190447 12.212786 0.000000 0.516634 -1.570922
  1 -3.746208 0.000000 0.000000 -1.570795 -1.570787 0.000000
  2 -0.000005 0.000007 3.713254 -3.097418 0.005025 1.327114
  3 18.045725 0.000000 0.000000 0.000000 0.000000 -1.718589
  4 17.597599 0.000000 0.000000 0.012876 -0.042489 -0.258186
  5 3.793089 6.407220 0.000000 0.000000 0.000000 1.570796
  6 0.000005 -0.000003 -3.713254 3.119880 -0.014979 0.870485
  7 18.045723 0.000000 0.000000 0.000000 0.000000 -2.501419
  8 17.597597 0.000000 0.000000 -0.011891 0.023460 -0.140244
  9 3.793089 6.407220 0.000000 0.000000 0.000000 1.570796
 10 1.293670 0.684478 -0.000001 -0.000004 -0.000001 0.166517
 11 5.309685 -0.003834 0.000000 0.000000 0.000000 0.282178
 12 4.826790 -0.004591 0.000000 0.000000 0.000000 0.302182
 13 5.792767 -0.005304 0.000000 0.000000 0.000000 0.361878
 14 6.662317 -0.001453 0.000000 0.000000 -0.000001 0.471000
 15 -3.112024 1.517254 4.341910 -0.000013 -1.370798 2.669809
 16 4.827231 0.000000 0.000001 -1.085332 -0.544007 -0.775436
 17 11.139763 0.000000 0.000000 0.000000 0.000000 -0.474993
 18 10.314597 0.000000 -0.000001 -1.570000 -0.226765 -0.000012
 19 1.646738 0.449549 -1.702246 0.287460 0.372853 0.611087
 20 0.928312 0.000000 -0.000002 0.000000 0.000000 0.000000
 21 -2.869898 1.399663 -4.140396 -0.000014 1.370795 2.669783
 22 4.972047 0.000000 0.000001 1.106392 0.271811 -1.041477
 23 11.585354 0.000000 0.000001 0.000000 0.000000 -0.330260
 24 10.127057 0.000000 0.000000 1.569752 0.000000 -0.000035
 25 1.533671 0.109715 1.664490 -0.233255 -0.412980 0.435684
 26 0.928313 0.000000 0.000000 0.000000 0.000000 0.000000
 27 2.046985 -0.000002 0.000000 0.000000 0.000000 -1.389050
 28 1.038630 0.548043 -0.144017 -0.000001 0.000001 -1.712610
 29 -0.064003 -0.023521 0.026161 0.000000 0.000000 0.000000
time 16
  0 -0.190447 0.190447 8.833776 0.000000 0.514945 -1.570922
  1 -3.847774 0.000000 0.000000 -1.570795 -1.570787 0.000000
  2 -0.000005 0.000007 3.713254 -3.095884 -0.002529 1.484445
  3 18.045725 0.000000 0.000000 0.000000 0.000000 -1.561188
  4 17.597599 0.000000 0.000000 0.007299 -0.045142 -0.111045
  5 3.793089 6.407220 0.000000 0.000000 0.000000 1.570796
  6 0.000005 -0.000003 -3.713254 3.117392 -0.012203 0.973122
  7 18.045723 0.000000 0.000000 0.000000 0.000000 -2.346460
  8 17.597597 0.000000 0.000000 -0.009154 0.025274 -0.037808
  9 3.793089 6.407220 0.000000 0.000000 0.000000 1.570796
 10 1.293670 0.684478 -0.000001 -0.000004 -0.000001 0.180094
 11 5.309685 -0.003834 0.000000 0.000000 0.000000 0.279534
 12 4.826790 -0.004591 0.000000 0.000000 0.000000 0.300462
 13 5.792767 -0.005304 0.000000 0.000000 0.000000 0.366508
 14 6.662317 -0.001453 0.000000 0.000000 -0.000001 0.471000
 15 -3.112024 1.517254 4.341910 -0.000013 -1.370798 2.669809
 16 4.827231 0.000000 0.000001 -1.083511 -0.587919 -0.644607
 17 11.139763 0.000000 0.000000 0.000000 0.000000 -0.522858
 18 10.314597 0.000000 -0.000001 -1.570000 -0.226765 -0.000012
 19 1.646738 0.449549 -1.702246 0.287460 0.372853 0.611087
 20 0.928312 0.000000 -0.000002 0.000000 0.000000 0.000000
 21 -2.869898 1.399663 -4.140396 -0.000014 1.370795 2.669783
 22 4.972047 0.000000 0.000001 1.088523 0.327798 -0.929955
 23 11.585354 0.000000 0.000001 0.000000 0.000000 -0.394550
 24 10.127057 0.000000 0.000000 1.569752 0.000000 -0.000035
 25 1.533671 0.109715 1.664490 -0.233255 -0.412980 0.435684
 26 0.928313 0.000000 0.000000 0.000000 0.000000 0.000000
 27 2.046985 -0.000002 0.000000 0.000000 0.000000 -1.445055
 28 1.038630 0.548043 -0.144017 -0.000001 0.000001 -1.718063
 29 -0.064003 -0.023521 0.026161 0.000000 0.000000 0.000000
time 17
  0 -0.190447 0.190447 4.778965 0.000000 0.510410 -1.570922
  1 -3.945433 0.000000 0.000000 -1.570795 -1.570787 0.000000
  2 -0.000005 0.000007 3.713254 0.045761 3.153466 -1.470396
  3 18.045725 0.000000 0.000000 0.000000 0.000000 -1.379446
  4 17.597599 0.000000 0.000000 -0.000078 -0.047430 0.063594
  5 3.793089 6.407220 0.000000 0.000000 0.000000 1.570796
  6 0.000005 -0.000003 -3.713254 3.113853 -0.004545 1.241230
  7 18.045723 0.000000 0.000000 0.000000 0.000000 -2.002710
  8 17.597597 0.000000 0.000000 -0.004982 0.027503 0.090246
  9 3.793089 6.407220 0.000000 0.000000 0.000000 1.570796
 10 1.293670 0.684478 -0.000001 -0.000004 -0.000001 0.196048
 11 5.309685 -0.003834 0.000000 0.000000 0.000000 0.274717
 12 4.826790 -0.004591 0.000000 0.000000 0.000000 0.296471
 13 5.792767 -0.005304 0.000000 0.000000 0.000000 0.370266
 14 6.662317 -0.001453 0.000000 0.000000 -0.000001 0.471000
 15 -3.112024 1.517254 4.341910 -0.000013 -1.370798 2.669809
 16 4.827231 0.000000 0.000001 -1.087388 -0.625959 -0.521041
 17 11.139763 0.000000 0.000000 0.000000 0.000000 -0.566518
 18 10.314597 0.000000 -0.000001 -1.570000 -0.226765 -0.000012
 19 1.646738 0.449549 -1.702246 0.287460 0.372853 0.611087
 20 0.928312 0.000000 -0.000002 0.000000 0.000000 0.000000
 21 -2.869898 1.399663 -4.140396 -0.000014 1.370795 2.669783
 22 4.972047 0.000000 0.000001 1.076301 0.395690 -0.796168
 23 11.585354 0.000000 0.000001 0.000000 0.000000 -0.474301
 24 10.127057 0.000000 0.000000 1.569752 0.000000 -0.000035
 25 1.533671 0.109715 1.664490 -0.233255 -0.412980 0.435684
 26 0.928313 0.000000 0.000000 0.000000 0.000000 0.000000
 27 2.046985 -0.000002 0.000000 0.000000 0.000000 -1.505824
 28 1.038630 0.548043 -0.144017 -0.000001 0.000001 -1.724032
 29 -0.064003 -0.023521 0.026161 0.000000 0.000000 0.000000
time 18
  0 -0.190447 0.190447 0.325704 0.000000 0.504719 -1.570922
  1 -4.050905 0.000000 0.000000 -1.570795 -1.570787 0.000000
  2 -0.000005 0.000007 3.713254 0.044419 3.163410 -1.269189
  3 18.045725 0.000000 0.000000 0.000000 0.000000 -1.188873
  4 17.597599 0.000000 0.000000 -0.009103 -0.048696 0.259370
  5 3.793089 6.407220 0.000000 0.000000 0.000000 1.570796
  6 0.000005 -0.000003 -3.713254 -0.028832 -3.149413 -1.495935
  7 18.045723 0.000000 0.000000 0.000000 0.000000 -1.503566
  8 17.597597 0.000000 0.000000 0.001680 0.029850 0.254975
  9 3.793089 6.407220 0.000000 0.000000 0.000000 1.570796
 10 1.293670 0.684478 -0.000001 -0.000004 -0.000001 0.213811
 11 5.309685 -0.003834 0.000000 0.000000 0.000000 0.268759
 12 4.826790 -0.004591 0.000000 0.000000 0.000000 0.291356
 13 5.792767 -0.005304 0.000000 0.000000 0.000000 0.373879
 14 6.662317 -0.001453 0.000000 0.000000 -0.000001 0.471000
 15 -3.112024 1.517254 4.341910 -0.000013 -1.370798 2.669809
 16 4.827231 0.000000 0.000001 -1.097255 -0.659148 -0.403951
 17 11.139763 0.000000 0.000000 0.000000 0.000000 -0.606393
 18 10.314597 0.000000 -0.000001 -1.570000 -0.226765 -0.000012
 19 1.646738 0.449549 -1.702246 0.287460 0.372853 0.611087
 20 0.928312 0.000000 -0.000002 0.000000 0.000000 0.000000
 21 -2.869898 1.399663 -4.140396 -0.000014 1.370795 2.669783
 22 4.972047 0.000000 0.000001 1.075063 0.471385 -0.643607
 23 11.585354 0.000000 0.000001 0.000000 0.000000 -0.564405
 24 10.127057 0.000000 0.000000 1.569752 0.000000 -0.000035
 25 1.533671 0.109715 1.664490 -0.233255 -0.412980 0.435684
 26 0.928313 0.000000 0.000000 0.000000 0.000000 0.000000
 27 2.046985 -0.000002 0.000000 0.000000 0.000000 -1.570054
 28 1.038630 0.548043 -0.144017 -0.000001 0.000001 -1.730444
 29 -0.064003 -0.023521 0.026161 0.000000 0.000000 0.000000
time 19
  0 -0.190447 0.190447 -3.600197 0.000000 0.503118 -1.570922
  1 -4.168096 0.000000 0.000000 -1.570795 -1.570787 0.000000
  2 -0.000005 0.000007 3.713254 0.042502 3.171060 -1.115065
  3 18.045725 0.000000 0.000000 0.000000 0.000000 -1.050173
  4 17.597599 0.000000 0.000000 -0.017899 -0.048696 0.439407
  5 3.793089 6.407220 0.000000 0.000000 0.000000 1.570796
  6 0.000005 -0.000003 -3.713254 -0.026058 -3.161091 -1.115785
  7 18.045723 0.000000 0.000000 0.000000 0.000000 -1.051511
  8 17.597597 0.000000 0.000000 0.010107 0.031014 0.439381
  9 3.793089 6.407220 0.000000 0.000000 0.000000 1.570796
 10 1.293670 0.684478 -0.000001 -0.000004 -0.000001 0.230100
 11 5.309685 -0.003834 0.000000 0.000000 0.000000 0.266043
 12 4.826790 -0.004591 0.000000 0.000000 0.000000 0.289857
 13 5.792767 -0.005304 0.000000 0.000000 0.000000 0.379921
 14 6.662317 -0.001453 0.000000 0.000000 -0.000001 0.471000
 15 -3.112024 1.517254 4.341910 -0.000013 -1.370798 2.669809
 16 4.827231 0.000000 0.000001 -1.116345 -0.689444 -0.284498
 17 11.139763 0.000000 0.000000 0.000000 0.000000 -0.649632
 18 10.314597 0.000000 -0.000001 -1.570000 -0.226765 -0.000012
 19 1.646738 0.449549 -1.702246 0.287460 0.372853 0.611087
 20 0.928312 0.000000 -0.000002 0.000000 0.000000 0.000000
 21 -2.869898 1.399663 -4.140396 -0.000014 1.370795 2.669783
 22 4.972047 0.000000 0.000001 1.087749 0.532842 -0.501190
 23 11.585354 0.000000 0.000001 0.000000 0.000000 -0.640169
 24 10.127057 0.000000 0.000000 1.569752 0.000000 -0.000035
 25 1.533671 0.109715 1.664490 -0.233255 -0.412980 0.435684
 26 0.928313 0.000000 0.000000 0.000000 0.000000 0.000000
 27 2.046985 -0.000002 0.000000 0.000000 0.000000 -1.630644
 28 1.038630 0.548043 -0.144017 -0.000001 0.000001 -1.737239
 29 -0.064003 -0.023521 0.026161 0.000000 0.000000 0.000000
time 20
  0 -0.190447 0.190447 -9.037863 0.000000 0.511833 -1.570922
  1 -4.293100 0.000000 0.000000 -1.570795 -1.570787 0.000000
  2 -0.000005 0.000007 3.713254 0.057359 3.165131 -1.388621
  3 18.045725 0.000000 0.000000 0.000000 0.000000 -1.543674
  4 17.597599 0.000000 0.000000 -0.018609 -0.059139 0.668171
  5 3.793089 6.407220 0.000000 0.000000 0.000000 1.570796
  6 0.000005 -0.000003 -3.713254 -0.035720 -3.157454 -1.389419
  7 18.045723 0.000000 0.000000 0.000000 0.000000 -1.545004
  8 17.597597 0.000000 0.000000 0.010651 0.037641 0.667879
  9 3.793089 6.407220 0.000000 0.000000 0.000000 1.570796
 10 1.293670 0.684478 -0.000001 -0.000004 -0.000001 0.246188
 11 5.309685 -0.003834 0.000000 0.000000 0.000000 0.265337
 12 4.826790 -0.004591 0.000000 0.000000 0.000000 0.290981
 13 5.792767 -0.005304 0.000000 0.000000 0.000000 0.388496
 14 6.662317 -0.001453 0.000000 0.000000 -0.000001 0.471000
 15 -3.112024 1.517254 4.341910 -0.000013 -1.370798 2.669809
 16 4.827231 0.000000 0.000001 -1.105008 -0.702294 -0.192349
 17 11.139763 0.000000 0.000000 0.000000 0.000000 -0.719151
 18 10.314597 0.000000 -0.000001 -1.570000 -0.226765 -0.000012
 19 1.646738 0.449549 -1.702246 0.287460 0.372853 0.611087
 20 0.928312 0.000000 -0.000002 0.000000 0.000000 0.000000
 21 -2.869898 1.399663 -4.140396 -0.000014 1.370795 2.669783
 22 4.972047 0.000000 0.000001 1.077848 0.552228 -0.435450
 23 11.585354 0.000000 0.000001 0.000000 0.000000 -0.707607
 24 10.127057 0.000000 0.000000 1.569752 0.000000 -0.000035
 25 1.533671 0.109715 1.664490 -0.233255 -0.412980 0.435684
 26 0.928313 0.000000 0.000000 0.000000 0.000000 0.000000
 27 2.046985 -0.000002 0.000000 0.000000 0.000000 -1.596978
 28 1.038630 0.548043 -0.144017 -0.000001 0.000001 -1.744382
 29 -0.064003 -0.023521 0.026161 0.000000 0.000000 0.000000
time 21
  0 -0.190447 0.190447 -14.475529 0.000000 0.459191 -1.570922
  1 -4.558733 0.000000 0.000000 -1.570795 -1.570787 0.000000
  2 -0.000005 0.000007 3.713254 -3.065979 -0.017732 1.564083
  3 18.045725 0.000000 0.000000 0.000000 0.000000 -1.941295
  4 17.597599 0.000000 0.000000 -0.017113 -0.075668 0.824417
  5 3.793089 6.407220 0.000000 0.000000 0.000000 1.570796
  6 0.000005 -0.000003 -3.713254 3.093955 0.012302 1.563006
  7 18.045723 0.000000 0.000000 0.000000 0.000000 -1.942798
  8 17.597597 0.000000 0.000000 0.009579 0.048134 0.824023
  9 3.793089 6.407220 0.000000 0.000000 0.000000 1.570796
 10 1.293670 0.684478 -0.000001 -0.000004 -0.000001 0.288609
 11 5.309685 -0.003834 0.000000 0.000000 0.000000 0.254544
 12 4.826790 -0.004591 0.000000 0.000000 0.000000 0.280376
 13 5.792767 -0.005304 0.000000 0.000000 0.000000 0.395783
 14 6.662317 -0.001453 0.000000 0.000000 -0.000001 0.471000
 15 -3.112024 1.517254 4.341910 -0.000013 -1.370798 2.669809
 16 4.827231 0.000000 0.000001 -0.800637 -0.464012 -0.561471
 17 11.139763 0.000000 0.000000 0.000000 0.000000 -0.822379
 18 10.314597 0.000000 -0.000001 -1.570000 -0.226765 -0.000012
 19 1.646738 0.449549 -1.702246 0.287460 0.372853 0.611087
 20 0.928312 0.000000 -0.000002 0.000000 0.000000 0.000000
 21 -2.869898 1.399663 -4.140396 -0.000014 1.370795 2.669783
 22 4.972047 0.000000 0.000001 0.875952 0.362790 -0.744326
 23 11.585354 0.000000 0.000001 0.000000 0.000000 -0.807715
 24 10.127057 0.000000 0.000000 1.569752 0.000000 -0.348867
 25 1.533671 0.109715 1.664490 -0.233255 -0.412980 0.435684
 26 0.928313 0.000000 0.000000 0.000000 0.000000 0.000000
 27 2.046985 -0.000002 0.000000 0.000000 0.000000 -1.423030
 28 1.038630 0.548043 -0.144017 -0.000001 0.000001 -1.751788
 29 -0.064003 -0.023521 0.026161 0.000000 0.000000 0.000000
time 22
  0 -0.190447 0.190447 -22.444523 0.000000 0.318606 -1.570922
  1 -5.945494 0.000000 0.000000 -1.570795 -1.570787 0.000000
  2 -0.000005 0.000007 3.713254 -3.017671 0.001296 1.257000
  3 18.045725 0.000000 0.000000 0.000000 0.000000 -2.410455
  4 17.597599 0.000000 0.000000 -0.001827 -0.123769 0.844731
  5 3.793089 6.407220 0.000000 0.000000 0.000000 1.570796
  6 0.000005 -0.000003 -3.713254 3.062768 0.000336 1.254029
  7 18.045723 0.000000 0.000000 0.000000 0.000000 -2.412964
  8 17.597597 0.000000 0.000000 -0.000282 0.078627 0.844146
  9 3.793089 6.407220 0.000000 0.000000 0.000000 1.570796
 10 1.293670 0.684478 -0.000001 -0.000004 -0.000001 0.490891
 11 5.309685 -0.003834 0.000000 0.000000 0.000000 0.247065
 12 4.826790 -0.004591 0.000000 0.000000 0.000000 0.276870
 13 5.792767 -0.005304 0.000000 0.000000 0.000000 0.466211
 14 6.662317 -0.001453 0.000000 0.000000 -0.000001 0.471000
 15 -3.112024 1.517254 4.341910 -0.000013 -1.370798 2.669809
 16 4.827231 0.000000 0.000001 -0.785248 -0.330149 -0.841332
 17 11.139763 0.000000 0.000000 0.000000 0.000000 -0.916777
 18 10.314597 0.000000 -0.000001 -1.570000 -0.226765 -0.000012
 19 1.646738 0.449549 -1.702246 0.287460 0.372853 0.611087
 20 0.928312 0.000000 -0.000002 0.000000 0.000000 0.000000
 21 -2.869898 1.399663 -4.140396 -0.000014 1.370795 2.669783
 22 4.972047 0.000000 0.000001 1.008925 0.366168 -0.967304
 23 11.585354 0.000000 0.000001 0.000000 0.000000 -1.333091
 24 10.127057 0.000000 0.000000 1.569752 0.000000 -0.279085
 25 1.533671 0.109715 1.664490 -0.233255 -0.412980 0.435684
 26 0.928313 0.000000 0.000000 0.000000 0.000000 0.000000
 27 2.046985 -0.000002 0.000000 0.000000 0.000000 -1.471754
 28 1.038630 0.548043 -0.144017 -0.000001 0.000001 -1.759446
 29 -0.064003 -0.023521 0.026161 0.000000 0.000000 0.000000
time 23
  0 -0.190447 0.190447 -23.159388 0.000000 0.185757 -1.570922
  1 -6.410352 0.000000 0.000000 -1.570795 -1.570787 0.000000
  2 -0.000005 0.000007 3.713254 -3.004253 0.013249 1.267981
  3 18.045725 0.000000 0.000000 0.000000 0.000000 -2.468710
  4 17.597599 0.000000 0.000000 0.003091 -0.137839 0.779991
  5 3.793089 6.407220 0.000000 0.000000 0.000000 1.570796
  6 0.000005 -0.000003 -3.713254 3.054254 -0.007226 1.263871
  7 18.045723 0.000000 0.000000 0.000000 0.000000 -2.471427
  8 17.597597 0.000000 0.000000 -0.003531 0.087482 0.779209
  9 3.793089 6.407220 0.000000 0.000000 0.000000 1.570796
 10 1.293670 0.684478 -0.000001 -0.000004 -0.000001 0.592408
 11 5.309685 -0.003834 0.000000 0.000000 0.000000 0.208259
 12 4.826790 -0.004591 0.000000 0.000000 0.000000 0.234846
 13 5.792767 -0.005304 0.000000 0.000000 0.000000 0.467726
 14 6.662317 -0.001453 0.000000 0.000000 -0.000001 0.471000
 15 -3.112024 1.517254 4.341910 -0.000013 -1.370798 2.669809
 16 4.827231 0.000000 0.000001 -0.751005 -0.097484 -1.065273
 17 11.139763 0.000000 0.000000 0.000000 0.000000 -0.897715
 18 10.314597 0.000000 -0.000001 -1.570000 -0.226765 -0.000012
 19 1.646738 0.449549 -1.702246 0.287460 0.372853 0.611087
 20 0.928312 0.000000 -0.000002 0.000000 0.000000 0.000000
 21 -2.869898 1.399663 -4.140396 -0.000014 1.370795 2.669783
 22 4.972047 0.000000 0.000001 1.047370 0.330050 -1.012164
 23 11.585354 0.000000 0.000001 0.000000 0.000000 -1.315043
 24 10.127057 0.000000 0.000000 1.569752 0.000000 -0.247783
 25 1.533671 0.109715 1.664490 -0.233255 -0.412980 0.435684
 26 0.928313 0.000000 0.000000 0.000000 0.000000 0.000000
 27 2.046985 -0.000002 0.000000 0.000000 0.000000 -1.618688
 28 1.038630 0.548043 -0.144017 -0.000001 0.000001 -1.767272
 29 -0.064003 -0.023521 0.026161 0.000000 0.000000 0.000000
time 24
  0 -0.190447 0.190447 -20.741344 0.000000 0.185757 -1.570922
  1 -6.410352 0.000000 0.000000 -1.570795 -1.570787 0.000000
  2 -0.000005 0.000007 3.713254 -3.029557 -0.005015 1.406460
  3 18.045725 0.000000 0.000000 0.000000 0.000000 -2.338767
  4 17.597599 0.000000 0.000000 0.002609 -0.112109 0.789782
  5 3.793089 6.407220 0.000000 0.000000 0.000000 1.570796
  6 0.000005 -0.000003 -3.713254 3.070517 0.004548 1.404179
  7 18.045723 0.000000 0.000000 0.000000 0.000000 -2.340954
  8 17.597597 0.000000 0.000000 -0.003267 0.071033 0.789614
  9 3.793089 6.407220 0.000000 0.000000 0.000000 1.570796
 10 1.293670 0.684478 -0.000001 -0.000004 -0.000001 0.592408
 11 5.309685 -0.003834 0.000000 0.000000 0.000000 0.208259
 12 4.826790 -0.004591 0.000000 0.000000 0.000000 0.234846
 13 5.792767 -0.005304 0.000000 0.000000 0.000000 0.467726
 14 6.662317 -0.001453 0.000000 0.000000 -0.000001 0.471000
 15 -3.112024 1.517254 4.341910 -0.000013 -1.370798 2.669809
 16 4.827231 0.000000 0.000001 -0.751005 -0.097484 -1.065273
 17 11.139763 0.000000 0.000000 0.000000 0.000000 -0.897715
 18 10.314597 0.000000 -0.000001 -1.570000 -0.226765 -0.000012
 19 1.646738 0.449549 -1.702246 0.287460 0.372853 0.611087
 20 0.928312 0.000000 -0.000002 0.000000 0.000000 0.000000
 21 -2.869898 1.399663 -4.140396 -0.000014 1.370795 2.669783
 22 4.972047 0.000000 0.000001 1.082412 0.273500 -1.057088
 23 11.585354 0.000000 0.000001 0.000000 0.000000 -1.269781
 24 10.127057 0.000000 0.000000 1.569752 0.000000 -0.212990
 25 1.533671 0.109715 1.664490 -0.233255 -0.412980 0.435684
 26 0.928313 0.000000 0.000000 0.000000 0.000000 0.000000
 27 2.046985 -0.000002 0.000000 0.000000 0.000000 -1.618688
 28 1.038630 0.548043 -0.144017 -0.000001 0.000001 -1.775242
 29 -0.064003 -0.023521 0.026161 0.000000 0.000000 0.000000
time 25
  0 -0.190447 0.190447 -17.963917 0.000000 0.172152 -1.570922
  1 -5.879086 0.000000 0.000000 -1.570795 -1.570787 0.000000
  2 -0.000005 0.000007 3.713254 0.094453 3.154709 -1.564124
  3 18.045725 0.000000 0.000000 0.000000 0.000000 -2.199771
  4 17.597599 0.000000 0.000000 -0.003830 -0.095361 0.808678
  5 3.793089 6.407220 0.000000 0.000000 0.000000 1.570796
  6 0.000005 -0.000003 -3.713254 -0.059445 -3.151423 -1.565701
  7 18.045723 0.000000 0.000000 0.000000 0.000000 -2.201643
  8 17.597597 0.000000 0.000000 0.000806 0.060422 0.808501
  9 3.793089 6.407220 0.000000 0.000000 0.000000 1.570796
 10 1.293670 0.684478 -0.000001 -0.000004 -0.000001 0.535037
 11 5.309685 -0.003834 0.000000 0.000000 0.000000 0.174885
 12 4.826790 -0.004591 0.000000 0.000000 0.000000 0.195159
 13 5.792767 -0.005304 0.000000 0.000000 0.000000 0.413702
 14 6.662317 -0.001453 0.000000 0.000000 -0.000001 0.471000
 15 -3.112024 1.517254 4.341910 -0.000013 -1.370798 2.669809
 16 4.827231 0.000000 0.000001 -0.736497 0.084547 -1.056522
 17 11.139763 0.000000 0.000000 0.000000 0.000000 -0.813899
 18 10.314597 0.000000 -0.000001 -1.570000 -0.226765 -0.000012
 19 1.646738 0.449549 -1.702246 0.287460 0.372853 0.611087
 20 0.928312 0.000000 -0.000002 0.000000 0.000000 0.000000
 21 -2.869898 1.399663 -4.140396 -0.000014 1.370795 2.669783
 22 4.972047 0.000000 0.000001 1.035148 0.061297 -1.074281
 23 11.585354 0.000000 0.000001 0.000000 0.000000 -1.215494
 24 10.127057 0.000000 0.000000 1.569752 0.000000 -0.179452
 25 1.533671 0.109715 1.664490 -0.233255 -0.412980 0.435684
 26 0.928313 0.000000 0.000000 0.000000 0.000000 0.000000
 27 2.046985 -0.000002 0.000000 0.000000 0.000000 -1.455887
 28 1.038630 0.548043 -0.144017 -0.000001 0.000001 -1.783284
 29 -0.064003 -0.023521 0.026161 0.000000 0.000000 0.000000
time 26
  0 -0.190447 0.190447 -15.209927 0.000000 0.156324 -1.570922
  1 -5.234535 0.000000 0.000000 -1.570795 -1.570787 0.000000
  2 -0.000005 0.000007 3.713254 0.080842 3.160159 -1.403732
  3 18.045725 0.000000 0.000000 0.000000 0.000000 -2.052982
  4 17.597599 0.000000 0.000000 -0.008013 -0.082630 0.806802
  5 3.793089 6.407220 0.000000 0.000000 0.000000 1.570796
  6 0.000005 -0.000003 -3.713254 -0.050643 -3.154965 -1.404885
  7 18.045723 0.000000 0.000000 0.000000 0.000000 -2.054580
  8 17.597597 0.000000 0.000000 0.003379 0.052394 0.806578
  9 3.793089 6.407220 0.000000 0.000000 0.000000 1.570796
 10 1.293670 0.684478 -0.000001 -0.000004 -0.000001 0.475138
 11 5.309685 -0.003834 0.000000 0.000000 0.000000 0.140063
 12 4.826790 -0.004591 0.000000 0.000000 0.000000 0.153709
 13 5.792767 -0.005304 0.000000 0.000000 0.000000 0.357310
 14 6.662317 -0.001453 0.000000 0.000000 -0.000001 0.471000
 15 -3.112024 1.517254 4.341910 -0.000013 -1.370798 2.669809
 16 4.827231 0.000000 0.000001 -0.722283 0.273130 -1.029831
 17 11.139763 0.000000 0.000000 0.000000 0.000000 -0.726580
 18 10.314597 0.000000 -0.000001 -1.570000 -0.226765 -0.000012
 19 1.646738 0.449549 -1.702246 0.287460 0.372853 0.611087
 20 0.928312 0.000000 -0.000002 0.000000 0.000000 0.000000
 21 -2.869898 1.399663 -4.140396 -0.000014 1.370795 2.669783
 22 4.972047 0.000000 0.000001 0.989509 -0.153722 -1.063149
 23 11.585354 0.000000 0.000001 0.000000 0.000000 -1.161417
 24 10.127057 0.000000 0.000000 1.569752 0.000000 -0.149249
 25 1.533671 0.109715 1.664490 -0.233255 -0.412980 0.435684
 26 0.928313 0.000000 0.000000 0.000000 0.000000 0.000000
 27 2.046985 -0.000002 0.000000 0.000000 0.000000 -1.286075
 28 1.038630 0.548043 -0.144017 -0.000001 0.000001 -1.791313
 29 -0.064003 -0.023521 0.026161 0.000000 0.000000 0.000000
time 27
  0 -0.190447 0.190447 -12.530157 0.000000 0.139073 -1.570922
  1 -4.515763 0.000000 0.000000 -1.570795 -1.570787 0.000000
  2 -0.000005 0.000007 3.713254 0.069628 3.164653 -1.251746
  3 18.045725 0.000000 0.000000 0.000000 0.000000 -1.899143
  4 17.597599 0.000000 0.000000 -0.010117 -0.072625 0.787769
  5 3.793089 6.407220 0.000000 0.000000 0.000000 1.570796
  6 0.000005 -0.000003 -3.713254 -0.043373 -3.157741 -1.252651
  7 18.045723 0.000000 0.000000 0.000000 0.000000 -1.900635
  8 17.597597 0.000000 0.000000 0.004665 0.046122 0.787691
  9 3.793089 6.407220 0.000000 0.000000 0.000000 1.570796
 10 1.293670 0.684478 -0.000001 -0.000004 -0.000001 0.416645
 11 5.309685 -0.003834 0.000000 0.000000 0.000000 0.106055
 12 4.826790 -0.004591 0.000000 0.000000 0.000000 0.113250
 13 5.792767 -0.005304 0.000000 0.000000 0.000000 0.302206
 14 6.662317 -0.001453 0.000000 0.000000 -0.000001 0.471000
 15 -3.112024 1.517254 4.341910 -0.000013 -1.370798 2.669809
 16 4.827231 0.000000 0.000001 -0.702665 0.454309 -0.983800
 17 11.139763 0.000000 0.000000 0.000000 0.000000 -0.641293
 18 10.314597 0.000000 -0.000001 -1.570000 -0.226765 -0.000012
 19 1.646738 0.449549 -1.702246 0.287460 0.372853 0.611087
 20 0.928312 0.000000 -0.000002 0.000000 0.000000 0.000000
 21 -2.869898 1.399663 -4.140396 -0.000014 1.370795 2.669783
 22 4.972047 0.000000 0.000001 0.938996 -0.357479 -1.026985
 23 11.585354 0.000000 0.000001 0.000000 0.000000 -1.111468
 24 10.127057 0.000000 0.000000 1.569752 0.000000 -0.122693
 25 1.533671 0.109715 1.664490 -0.233255 -0.412980 0.435684
 26 0.928313 0.000000 0.000000 0.000000 0.000000 0.000000
 27 2.046985 -0.000002 0.000000 0.000000 0.000000 -1.120128
 28 1.038630 0.548043 -0.144017 -0.000001 0.000001 -1.799331
 29 -0.064003 -0.023521 0.026161 0.000000 0.000000 0.000000
time 28
  0 -0.190447 0.190447 -9.948047 0.000000 0.120311 -1.570922
  1 -3.765740 0.000000 0.000000 -1.570795 -1.570787 0.000000
  2 -0.000005 0.000007 3.713254 0.059659 3.168478 -1.105153
  3 18.045725 0.000000 0.000000 0.000000 0.000000 -1.738700
  4 17.597599 0.000000 0.000000 -0.010573 -0.064738 0.755010
  5 3.793089 6.407220 0.000000 0.000000 0.000000 1.570796
  6 0.000005 -0.000003 -3.713254 -0.037059 -3.160134 -1.105895
  7 18.045723 0.000000 0.000000 0.000000 0.000000 -1.740098
  8 17.597597 0.000000 0.000000 0.004995 0.041132 0.754965
  9 3.793089 6.407220 0.000000 0.000000 0.000000 1.570796
 10 1.293670 0.684478 -0.000001 -0.000004 -0.000001 0.360211
 11 5.309685 -0.003834 0.000000 0.000000 0.000000 0.073261
 12 4.826790 -0.004591 0.000000 0.000000 0.000000 0.074225
 13 5.792767 -0.005304 0.000000 0.000000 0.000000 0.249094
 14 6.662317 -0.001453 0.000000 0.000000 -0.000001 0.471000
 15 -3.112024 1.517254 4.341910 -0.000013 -1.370798 2.669809
 16 4.827231 0.000000 0.000001 -0.670125 0.624170 -0.915629
 17 11.139763 0.000000 0.000000 0.000000 0.000000 -0.558949
 18 10.314597 0.000000 -0.000001 -1.570000 -0.226765 -0.000012
 19 1.646738 0.449549 -1.702246 0.287460 0.372853 0.611087
 20 0.928312 0.000000 -0.000002 0.000000 0.000000 0.000000
 21 -2.869898 1.399663 -4.140396 -0.000014 1.370795 2.669783
 22 4.972047 0.000000 0.000001 0.874637 -0.546274 -0.964933
 23 11.585354 0.000000 0.000001 0.000000 0.000000 -1.066626
 24 10.127057 0.000000 0.000000 1.569752 0.000000 -0.099668
 25 1.533671 0.109715 1.664490 -0.233255 -0.412980 0.435684
 26 0.928313 0.000000 0.000000 0.000000 0.000000 0.000000
 27 2.046985 -0.000002 0.000000 0.000000 0.000000 -0.960159
 28 1.038630 0.548043 -0.144017 -0.000001 0.000001 -1.807265
 29 -0.064003 -0.023521 0.026161 0.000000 0.000000 0.000000
time 29
  0 -0.190447 0.190447 -7.506566 0.000000 0.100037 -1.570922
  1 -3.000092 0.000000 0.000000 -1.570795 -1.570787 0.000000
  2 -0.000005 0.000007 3.713254 0.050649 3.172016 -0.962156
  3 18.045725 0.000000 0.000000 0.000000 0.000000 -1.571726
  4 17.597599 0.000000 0.000000 -0.009863 -0.058433 0.710721
  5 3.793089 6.407220 0.000000 0.000000 0.000000 1.570796
  6 0.000005 -0.000003 -3.713254 -0.031128 -3.162240 -0.962775
  7 18.045723 0.000000 0.000000 0.000000 0.000000 -1.573113
  8 17.597597 0.000000 0.000000 0.004550 0.037187 0.710735
  9 3.793089 6.407220 0.000000 0.000000 0.000000 1.570796
 10 1.293670 0.684478 -0.000001 -0.000004 -0.000001 0.306439
 11 5.309685 -0.003834 0.000000 0.000000 0.000000 0.041987
 12 4.826790 -0.004591 0.000000 0.000000 0.000000 0.037029
 13 5.792767 -0.005304 0.000000 0.000000 0.000000 0.198475
 14 6.662317 -0.001453 0.000000 0.000000 -0.000001 0.471000
 15 -3.112024 1.517254 4.341910 -0.000013 -1.370798 2.669809
 16 4.827231 0.000000 0.000001 -0.615559 0.778543 -0.818929
 17 11.139763 0.000000 0.000000 0.000000 0.000000 -0.480530
 18 10.314597 0.000000 -0.000001 -1.570000 -0.226765 -0.000012
 19 1.646738 0.449549 -1.702246 0.287460 0.372853 0.611087
 20 0.928312 0.000000 -0.000002 0.000000 0.000000 0.000000
 21 -2.869898 1.399663 -4.140396 -0.000014 1.370795 2.669783
 22 4.972047 0.000000 0.000001 0.787381 -0.716889 -0.872184
 23 11.585354 0.000000 0.000001 0.000000 0.000000 -1.026331
 24 10.127057 0.000000 0.000000 1.569752 0.000000 -0.079310
 25 1.533671 0.109715 1.664490 -0.233255 -0.412980 0.435684
 26 0.928313 0.000000 0.000000 0.000000 0.000000 0.000000
 27 2.046985 -0.000002 0.000000 0.000000 0.000000 -0.807697
 28 1.038630 0.548043 -0.144017 -0.000001 0.000001 -1.815043
 29 -0.064003 -0.023521 0.026161 0.000000 0.000000 0.000000
time 30
  0 -0.190447 0.190447 -5.240872 0.000000 0.078696 -1.570922
  1 -2.242256 0.000000 0.000000 -1.570795 -1.570787 0.000000
  2 -0.000005 0.000007 3.713254 0.042311 3.175267 -0.822025
  3 18.045725 0.000000 0.000000 0.000000 0.000000 -1.398815
  4 17.597599 0.000000 0.000000 -0.008266 -0.053467 0.656367
  5 3.793089 6.407220 0.000000 0.000000 0.000000 1.570796
  6 0.000005 -0.000003 -3.713254 -0.025675 -3.164250 -0.822564
  7 18.045723 0.000000 0.000000 0.000000 0.000000 -1.400115
  8 17.597597 0.000000 0.000000 0.003544 0.034091 0.656547
  9 3.793089 6.407220 0.000000 0.000000 0.000000 1.570796
 10 1.293670 0.684478 -0.000001 -0.000004 -0.000001 0.256082
 11 5.309685 -0.003834 0.000000 0.000000 0.000000 0.012724
 12 4.826790 -0.004591 0.000000 0.000000 0.000000 0.002215
 13 5.792767 -0.005304 0.000000 0.000000 0.000000 0.151032
 14 6.662317 -0.001453 0.000000 0.000000 -0.000001 0.471000
 15 -3.112024 1.517254 4.341910 -0.000013 -1.370798 2.669809
 16 4.827231 0.000000 0.000001 -0.528511 0.912151 -0.686262
 17 11.139763 0.000000 0.000000 0.000000 0.000000 -0.407016
 18 10.314597 0.000000 -0.000001 -1.570000 -0.226765 -0.000012
 19 1.646738 0.449549 -1.702246 0.287460 0.372853 0.611087
 20 0.928312 0.000000 -0.000002 0.000000 0.000000 0.000000
 21 -2.869898 1.399663 -4.140396 -0.000014 1.370795 2.669783
 22 4.972047 0.000000 0.000001 0.667404 -0.865142 -0.741559
 23 11.585354 0.000000 0.000001 0.000000 0.000000 -0.989603
 24 10.127057 0.000000 0.000000 1.569752 0.000000 -0.061109
 25 1.533671 0.109715 1.664490 -0.233255 -0.412980 0.435684
 26 0.928313 0.000000 0.000000 0.000000 0.000000 0.000000
 27 2.046985 -0.000002 0.000000 0.000000 0.000000 -0.664898
 28 1.038630 0.548043 -0.144017 -0.000001 0.000001 -1.822617
 29 -0.064003 -0.023521 0.026161 0.000000 0.000000 0.000000
time 31
  0 -0.190447 0.190447 -3.190028 0.000000 0.056287 -1.570922
  1 -1.523484 0.000000 0.000000 -1.570795 -1.570787 0.000000
  2 -0.000005 0.000007 3.713254 0.034068 3.178040 -0.685004
  3 18.045725 0.000000 0.000000 0.000000 0.000000 -1.221377
  4 17.597599 0.000000 0.000000 -0.006010 -0.049621 0.593594
  5 3.793089 6.407220 0.000000 0.000000 0.000000 1.570796
  6 0.000005 -0.000003 -3.713254 -0.020318 -3.165877 -0.685505
  7 18.045723 0.000000 0.000000 0.000000 0.000000 -1.222698
  8 17.597597 0.000000 0.000000 0.002158 0.031665 0.593945
  9 3.793089 6.407220 0.000000 0.000000 0.000000 1.570796
 10 1.293670 0.684478 -0.000001 -0.000004 -0.000001 0.210128
 11 5.309685 -0.003834 0.000000 0.000000 0.000000 -0.014004
 12 4.826790 -0.004591 0.000000 0.000000 0.000000 -0.029579
 13 5.792767 -0.005304 0.000000 0.000000 0.000000 0.107783
 14 6.662317 -0.001453 0.000000 0.000000 -0.000001 0.471000
 15 -3.112024 1.517254 4.341910 -0.000013 -1.370798 2.669809
 16 4.827231 0.000000 0.000001 -0.400290 1.018697 -0.511415
 17 11.139763 0.000000 0.000000 0.000000 0.000000 -0.339879
 18 10.314597 0.000000 -0.000001 -1.570000 -0.226765 -0.000012
 19 1.646738 0.449549 -1.702246 0.287460 0.372853 0.611087
 20 0.928312 0.000000 -0.000002 0.000000 0.000000 0.000000
 21 -2.869898 1.399663 -4.140396 -0.000014 1.370795 2.669783
 22 4.972047 0.000000 0.000001 0.506506 -0.985401 -0.565746
 23 11.585354 0.000000 0.000001 0.000000 0.000000 -0.955534
 24 10.127057 0.000000 0.000000 1.569752 0.000000 -0.044085
 25 1.533671 0.109715 1.664490 -0.233255 -0.412980 0.435684
 26 0.928313 0.000000 0.000000 0.000000 0.000000 0.000000
 27 2.046985 -0.000002 0.000000 0.000000 0.000000 -0.534550
 28 1.038630 0.548043 -0.144017 -0.000001 0.000001 -1.829964
 29 -0.064003 -0.023521 0.026161 0.000000 0.000000 0.000000
time 32
  0 -0.190447 0.190447 -1.420443 0.000000 0.033435 -1.570922
  1 -0.886746 0.000000 0.000000 -1.570795 -1.570787 0.000000
  2 -0.000005 0.000007 3.713254 0.026016 3.180526 -0.552551
  3 18.045725 0.000000 0.000000 0.000000 0.000000 -1.043346
  4 17.597599 0.000000 0.000000 -0.003348 -0.046773 0.524827
  5 3.793089 6.407220 0.000000 0.000000 0.000000 1.570796
  6 0.000005 -0.000003 -3.713254 -0.015152 -3.167217 -0.553100
  7 18.045723 0.000000 0.000000 0.000000 0.000000 -1.044701
  8 17.597597 0.000000 0.000000 0.000526 0.029870 0.525334
  9 3.793089 6.407220 0.000000 0.000000 0.000000 1.570796
 10 1.293670 0.684478 -0.000001 -0.000004 -0.000001 0.169882
 11 5.309685 -0.003834 0.000000 0.000000 0.000000 -0.037382
 12 4.826790 -0.004591 0.000000 0.000000 0.000000 -0.057404
 13 5.792767 -0.005304 0.000000 0.000000 0.000000 0.069912
 14 6.662317 -0.001453 0.000000 0.000000 -0.000001 0.471000
 15 -3.112024 1.517254 4.341910 -0.000013 -1.370798 2.669809
 16 4.827231 0.000000 0.000001 -0.234007 1.092394 -0.300863
 17 11.139763 0.000000 0.000000 0.000000 0.000000 -0.281293
 18 10.314597 0.000000 -0.000001 -1.570000 -0.226765 -0.000012
 19 1.646738 0.449549 -1.702246 0.287460 0.372853 0.611087
 20 0.928312 0.000000 -0.000002 0.000000 0.000000 0.000000
 21 -2.869898 1.399663 -4.140396 -0.000014 1.370795 2.669783
 22 4.972047 0.000000 0.000001 0.306467 -1.071875 -0.347312
 23 11.585354 0.000000 0.000001 0.000000 0.000000 -0.923914
 24 10.127057 0.000000 0.000000 1.569752 0.000000 -0.028081
 25 1.533671 0.109715 1.664490 -0.233255 -0.412980 0.435684
 26 0.928313 0.000000 0.000000 0.000000 0.000000 0.000000
 27 2.046985 -0.000002 0.000000 0.000000 0.000000 -0.420427
 28 1.038630 0.548043 -0.144017 -0.000001 0.000001 -1.836987
 29 -0.064003 -0.023521 0.026161 0.000000 0.000000 0.000000
time 33
  0 -0.190447 0.190447 0.009288 0.000000 0.010760 -1.570922
  1 -0.359386 0.000000 0.000000 -1.570795 -1.570787 0.000000
  2 -0.000005 0.000007 3.713254 0.018636 3.182056 -0.428843
  3 18.045725 0.000000 0.000000 0.000000 0.000000 -0.871771
  4 17.597599 0.000000 0.000000 -0.000661 -0.044704 0.454094
  5 3.793089 6.407220 0.000000 0.000000 0.000000 1.570796
  6 0.000005 -0.000003 -3.713254 -0.010369 -3.168175 -0.429518
  7 18.045723 0.000000 0.000000 0.000000 0.000000 -0.873297
  8 17.597597 0.000000 0.000000 -0.001189 0.028568 0.454662
  9 3.793089 6.407220 0.000000 0.000000 0.000000 1.570796
 10 1.293670 0.684478 -0.000001 -0.000004 -0.000001 0.136836
 11 5.309685 -0.003834 0.000000 0.000000 0.000000 -0.056613
 12 4.826790 -0.004591 0.000000 0.000000 0.000000 -0.080268
 13 5.792767 -0.005304 0.000000 0.000000 0.000000 0.038767
 14 6.662317 -0.001453 0.000000 0.000000 -0.000001 0.471000
 15 -3.112024 1.517254 4.341910 -0.000013 -1.370798 2.669809
 16 4.827231 0.000000 0.000001 -0.055743 1.132988 -0.084010
 17 11.139763 0.000000 0.000000 0.000000 0.000000 -0.233078
 18 10.314597 0.000000 -0.000001 -1.570000 -0.226765 -0.000012
 19 1.646738 0.449549 -1.702246 0.287460 0.372853 0.611087
 20 0.928312 0.000000 -0.000002 0.000000 0.000000 0.000000
 21 -2.869898 1.399663 -4.140396 -0.000014 1.370795 2.669783
 22 4.972047 0.000000 0.000001 0.091034 -1.123438 -0.111489
 23 11.585354 0.000000 0.000001 0.000000 0.000000 -0.895022
 24 10.127057 0.000000 0.000000 1.569752 0.000000 -0.013097
 25 1.533671 0.109715 1.664490 -0.233255 -0.412980 0.435684
 26 0.928313 0.000000 0.000000 0.000000 0.000000 0.000000
 27 2.046985 -0.000002 0.000000 0.000000 0.000000 -0.326711
 28 1.038630 0.548043 -0.144017 -0.000001 0.000001 -1.843650
 29 -0.064003 -0.023521 0.026161 0.000000 0.000000 0.000000
end
