version 1
nodes
  0 "Bip01"  -1
  1 "Bip01 Pelvis"   0
  2 "Bip01 L Leg"   1
  3 "Bip01 L Leg1"   2
  4 "Bip01 L Foot"   3
  5 "Bip01 L Toe0"   4
  6 "Bip01 R Leg"   1
  7 "Bip01 R Leg1"   6
  8 "Bip01 R Foot"   7
  9 "Bip01 R Toe0"   8
 10 "Bip01 Spine"   1
 11 "Bip01 Spine1"  10
 12 "Bip01 Spine2"  11
 13 "Bip01 Spine3"  12
 14 "Bip01 Neck"  13
 15 "Bip01 L Arm"  14
 16 "Bip01 L Arm1"  15
 17 "Bip01 L Arm2"  16
 18 "Bip01 L Hand"  17
 19 "Bip01 L Finger0"  18
 20 "Bip01 L Finger01"  19
 21 "Bip01 R Arm"  14
 22 "Bip01 R Arm1"  21
 23 "Bip01 R Arm2"  22
 24 "Bip01 R Hand"  23
 25 "Bip01 R Finger0"  24
 26 "Bip01 R Finger01"  25
 27 "Bip01 Head"  14
 28 "Dummy08"  27
 29 "Bone02"  28
end
skeleton
time 0
  0 0.235347 -0.235347 2.884376 0.000000 0.000000 -1.570922
  1 -4.211066 0.144536 0.000000 -1.570795 -1.570787 0.000000
  2 -0.000005 0.000007 3.713254 -0.086894 3.067791 -0.078031
  3 18.045725 0.000000 0.000000 0.000000 0.000000 -0.234821
  4 17.597599 0.000000 0.000000 -0.075849 0.080150 0.163289
  5 3.793089 6.407220 0.000000 0.000000 0.000000 1.570796
  6 0.000005 -0.000003 -3.713254 0.195119 -3.103562 0.722469
  7 18.045723 0.000000 0.000000 0.000000 0.000000 -1.470676
  8 17.597597 0.000000 0.000000 -0.111902 -0.040011 -0.289657
  9 3.793089 6.407220 0.000000 0.000000 0.000000 1.570796
 10 1.293670 0.684478 -0.000001 -0.065339 0.024448 0.357582
 11 5.309685 -0.003834 0.000000 -0.000012 -0.034875 0.191871
 12 4.826790 -0.004591 0.000000 -0.078176 0.006879 0.086946
 13 5.792767 -0.005304 0.000000 0.000000 0.000000 0.087207
 14 6.662317 -0.001453 0.000000 0.000000 -0.000001 0.471000
 15 -3.112024 1.517254 4.341910 -0.000013 -1.370798 2.669809
 16 4.827231 0.000000 0.000001 -1.206975 -0.873091 -1.541159
 17 11.139763 0.000000 0.000000 0.000000 0.000000 -0.287109
 18 10.314597 0.000000 -0.000001 -1.570000 0.000000 -0.069778
 19 1.646738 0.449549 -1.702246 0.154002 0.442277 0.277235
 20 0.928312 0.000000 -0.000002 0.000000 0.000000 0.000000
 21 -2.869898 1.399663 -4.140396 -0.000014 1.370795 2.669783
 22 4.972047 0.000000 0.000001 1.158529 0.580463 -1.574188
 23 11.585354 0.000000 0.000001 0.000000 0.000000 -1.290208
 24 10.127057 0.000000 0.000000 1.569752 0.000000 -0.069778
 25 1.533671 0.109715 1.664490 -0.233255 -0.412980 0.435684
 26 0.928313 0.000000 0.000000 0.000000 0.000000 0.000000
 27 2.046985 -0.000002 0.000000 0.148765 0.043160 -0.967081
 28 1.038630 0.548043 -0.144017 -0.000001 0.000001 -1.849906
 29 -0.064003 -0.023521 0.026161 0.000000 0.000000 0.000000
time 1
  0 0.235348 4.320768 5.321950 0.000000 0.006491 -1.570922
  1 -3.660268 0.105472 0.000000 -1.570795 -1.570787 0.000000
  2 -0.000005 0.000007 3.713254 -0.081239 3.061671 -0.005341
  3 18.045725 0.000000 0.000000 0.000000 0.000000 -0.172855
  4 17.597599 0.000000 0.000000 -0.096433 0.053641 -0.131268
  5 3.793089 6.407220 0.000000 0.000000 0.000000 1.570796
  6 0.000005 -0.000003 -3.713254 0.197894 -3.161091 0.435115
  7 18.045723 0.000000 0.000000 0.000000 0.000000 -1.522329
  8 17.597597 0.000000 0.000000 -0.116321 -0.024389 -0.394875
  9 3.793089 6.407220 0.000000 0.000000 0.000000 1.570796
 10 1.293670 0.684478 -0.000001 -0.066089 0.022338 0.325574
 11 5.309685 -0.003834 0.000000 -0.000012 -0.034875 0.145622
 12 4.826790 -0.004591 0.000000 -0.078291 0.005345 0.067390
 13 5.792767 -0.005304 0.000000 0.000000 0.000000 0.068271
 14 6.662317 -0.001453 0.000000 0.000000 -0.000001 0.471000
 15 -3.112024 1.517254 4.341910 -0.000013 -1.370798 2.669809
 16 4.827231 0.000000 0.000001 -1.299896 -0.652851 -1.383989
 17 11.139763 0.000000 0.000000 0.000000 0.000000 -0.294538
 18 10.314597 0.000000 -0.000001 -1.570000 0.000000 -0.069778
 19 1.646738 0.449549 -1.702246 0.154002 0.442277 0.277235
 20 0.928312 0.000000 -0.000002 0.000000 0.000000 0.000000
 21 -2.869898 1.399663 -4.140396 -0.000014 1.370795 2.669783
 22 4.972047 0.000000 0.000001 1.237740 0.343645 -1.451862
 23 11.585354 0.000000 0.000001 0.000000 0.000000 -1.248024
 24 10.127057 0.000000 0.000000 1.569752 0.000000 -0.069778
 25 1.533671 0.109715 1.664490 -0.233255 -0.412980 0.435684
 26 0.928313 0.000000 0.000000 0.000000 0.000000 0.000000
 27 2.046985 -0.000002 0.000000 0.148679 0.052819 -0.947664
 28 1.038630 0.548043 -0.144017 -0.000001 0.000001 -1.822953
 29 -0.064003 -0.023521 0.026161 0.000000 0.000000 0.000000
time 2
  0 0.235348 8.876884 8.907997 0.000000 0.013783 -1.570922
  1 -2.789148 0.031251 0.000000 -1.570795 -1.570787 0.000000
  2 -0.000005 0.000007 3.713254 -0.063603 3.046946 0.196886
  3 18.045725 0.000000 0.000000 0.000000 0.000000 -0.066808
  4 17.597599 0.000000 0.000000 -0.110274 0.002107 -0.523049
  5 3.793089 6.407220 0.000000 0.000000 0.000000 1.570796
  6 0.000005 -0.000003 -3.713254 0.175891 -3.234893 0.049486
  7 18.045723 0.000000 0.000000 0.000000 0.000000 -1.590934
  8 17.597597 0.000000 0.000000 -0.118729 -0.004469 -0.549679
  9 3.793089 6.407220 0.000000 0.000000 0.000000 1.570796
 10 1.293670 0.684478 -0.000001 -0.067031 0.019294 0.280072
 11 5.309685 -0.003834 0.000000 -0.000012 -0.034875 0.075524
 12 4.826790 -0.004591 0.000000 -0.078439 0.002900 0.036346
 13 5.792767 -0.005304 0.000000 0.000000 0.000000 0.038850
 14 6.662317 -0.001453 0.000000 0.000000 -0.000001 0.471000
 15 -3.112024 1.517254 4.341910 -0.000013 -1.370798 2.669809
 16 4.827231 0.000000 0.000001 -1.331026 -0.334064 -1.237495
 17 11.139763 0.000000 0.000000 0.000000 0.000000 -0.304069
 18 10.314597 0.000000 -0.000001 -1.570000 0.000000 -0.069778
 19 1.646738 0.449549 -1.702246 0.154002 0.442277 0.277235
 20 0.928312 0.000000 -0.000002 0.000000 0.000000 0.000000
 21 -2.869898 1.399663 -4.140396 -0.000014 1.370795 2.669783
 22 4.972047 0.000000 0.000001 1.274097 0.003299 -1.323938
 23 11.585354 0.000000 0.000001 0.000000 0.000000 -1.194087
 24 10.127057 0.000000 0.000000 1.569752 0.000000 -0.069778
 25 1.533671 0.109715 1.664490 -0.233255 -0.412980 0.435684
 26 0.928313 0.000000 0.000000 0.000000 0.000000 0.000000
 27 2.046985 -0.000002 0.000000 0.147042 0.067003 -0.914358
 28 1.038630 0.548043 -0.144017 -0.000001 0.000001 -1.793494
 29 -0.064003 -0.023521 0.026161 0.000000 0.000000 0.000000
time 3
  0 0.239254 13.429092 13.080000 0.000000 0.021430 -1.570922
  1 -1.660207 -0.050783 0.000000 -1.570795 -1.570787 0.000000
  2 -0.000005 0.000007 3.713254 -0.045008 3.036906 0.382350
  3 18.045725 0.000000 0.000000 0.000000 0.000000 -0.012931
  4 17.597599 0.000000 0.000000 -0.100261 -0.045994 -0.839475
  5 3.793089 6.407220 0.000000 0.000000 0.000000 1.570796
  6 0.000005 -0.000003 -3.713254 0.115431 -3.303813 -0.415313
  7 18.045723 0.000000 0.000000 0.000000 0.000000 -1.672869
  8 17.597597 0.000000 0.000000 -0.117014 0.020659 -0.722478
  9 3.793089 6.407220 0.000000 0.000000 0.000000 1.570796
 10 1.293670 0.684478 -0.000001 -0.068020 0.015579 0.224860
 11 5.309685 -0.003834 0.000000 -0.000012 -0.034875 -0.010382
 12 4.826790 -0.004591 0.000000 -0.078488 -0.000084 -0.001974
 13 5.792767 -0.005304 0.000000 0.000000 0.000000 0.002723
 14 6.662317 -0.001453 0.000000 0.000000 -0.000001 0.471000
 15 -3.112024 1.517254 4.341910 -0.000013 -1.370798 2.669809
 16 4.827231 0.000000 0.000001 -1.287150 0.035954 -1.071749
 17 11.139763 0.000000 0.000000 0.000000 0.000000 -0.315001
 18 10.314597 0.000000 -0.000001 -1.570000 0.000000 -0.069778
 19 1.646738 0.449549 -1.702246 0.154002 0.442277 0.277235
 20 0.928312 0.000000 -0.000002 0.000000 0.000000 0.000000
 21 -2.869898 1.399663 -4.140396 -0.000014 1.370795 2.669783
 22 4.972047 0.000000 0.000001 1.238746 -0.392551 -1.153131
 23 11.585354 0.000000 0.000001 0.000000 0.000000 -1.132455
 24 10.127057 0.000000 0.000000 1.569752 0.000000 -0.069778
 25 1.533671 0.109715 1.664490 -0.233255 -0.412980 0.435684
 26 0.928313 0.000000 0.000000 0.000000 0.000000 0.000000
 27 2.046985 -0.000002 0.000000 0.142777 0.083821 -0.871522
 28 1.038630 0.548043 -0.144017 -0.000001 0.000001 -1.762323
 29 -0.064003 -0.023521 0.026161 0.000000 0.000000 0.000000
time 4
  0 0.239254 17.985209 17.259815 0.000000 0.029878 -1.570922
  1 -0.398450 -0.156255 0.000000 -1.570795 -1.570787 0.000000
  2 -0.000005 0.000007 3.713254 -0.032356 3.032412 0.500907
  3 18.045725 0.000000 0.000000 0.000000 0.000000 -0.088774
  4 17.597599 0.000000 0.000000 -0.079930 -0.076033 -0.975727
  5 3.793089 6.407220 0.000000 0.000000 0.000000 1.570796
  6 0.000005 -0.000003 -3.713254 0.017279 -3.339710 -0.949782
  7 18.045723 0.000000 0.000000 0.000000 0.000000 -1.766830
  8 17.597597 0.000000 0.000000 -0.106724 0.052355 -0.874982
  9 3.793089 6.407220 0.000000 0.000000 0.000000 1.570796
 10 1.293670 0.684478 -0.000001 -0.068817 0.011408 0.164190
 11 5.309685 -0.003834 0.000000 -0.000012 -0.034875 -0.103315
 12 4.826790 -0.004591 0.000000 -0.078406 -0.003308 -0.042984
 13 5.792767 -0.005304 0.000000 0.000000 0.000000 -0.036186
 14 6.662317 -0.001453 0.000000 0.000000 -0.000001 0.471000
 15 -3.112024 1.517254 4.341910 -0.000013 -1.370798 2.669809
 16 4.827231 0.000000 0.000001 -1.138077 0.404611 -0.826105
 17 11.139763 0.000000 0.000000 0.000000 0.000000 -0.327055
 18 10.314597 0.000000 -0.000001 -1.570000 0.000000 -0.069778
 19 1.646738 0.449549 -1.702246 0.154002 0.442277 0.277235
 20 0.928312 0.000000 -0.000002 0.000000 0.000000 0.000000
 21 -2.869898 1.399663 -4.140396 -0.000014 1.370795 2.669783
 22 4.972047 0.000000 0.000001 1.049072 -0.784701 -0.836745
 23 11.585354 0.000000 0.000001 0.000000 0.000000 -1.064247
 24 10.127057 0.000000 0.000000 1.569752 0.000000 -0.069778
 25 1.533671 0.109715 1.664490 -0.233255 -0.412980 0.435684
 26 0.928313 0.000000 0.000000 0.000000 0.000000 0.000000
 27 2.046985 -0.000002 0.000000 0.135065 0.101337 -0.826440
 28 1.038630 0.548043 -0.144017 -0.000001 0.000001 -1.730168
 29 -0.064003 -0.023521 0.026161 0.000000 0.000000 0.000000
time 5
  0 0.235347 22.545231 20.865393 0.000000 0.038681 -1.570922
  1 0.855495 -0.253914 0.000000 -1.570795 -1.570787 0.000000
  2 -0.000005 0.000007 3.713254 -0.019320 3.029352 0.617569
  3 18.045725 0.000000 0.000000 0.000000 0.000000 -0.293744
  4 17.597599 0.000000 0.000000 -0.054910 -0.095702 -0.944432
  5 3.793089 6.407220 0.000000 0.000000 0.000000 1.570796
  6 0.000005 -0.000003 -3.713254 -0.079056 -3.324202 -1.449586
  7 18.045723 0.000000 0.000000 0.000000 0.000000 -1.858400
  8 17.597597 0.000000 0.000000 -0.079285 0.088587 -0.889542
  9 3.793089 6.407220 0.000000 0.000000 0.000000 1.570796
 10 1.293670 0.684478 -0.000001 -0.069408 0.007142 0.102517
 11 5.309685 -0.003834 0.000000 -0.000012 -0.034875 -0.194292
 12 4.826790 -0.004591 0.000000 -0.078209 -0.006376 -0.082009
 13 5.792767 -0.005304 0.000000 0.000000 0.000000 -0.073705
 14 6.662317 -0.001453 0.000000 0.000000 -0.000001 0.471000
 15 -3.112024 1.517254 4.341910 -0.000013 -1.370798 2.669809
 16 4.827231 0.000000 0.000001 -0.810974 0.687485 -0.407364
 17 11.139763 0.000000 0.000000 0.000000 0.000000 -0.340300
 18 10.314597 0.000000 -0.000001 -1.570000 0.000000 -0.069778
 19 1.646738 0.449549 -1.702246 0.154002 0.442277 0.277235
 20 0.928312 0.000000 -0.000002 0.000000 0.000000 0.000000
 21 -2.869898 1.399663 -4.140396 -0.000014 1.370795 2.669783
 22 4.972047 0.000000 0.000001 0.478813 -1.029322 -0.129670
 23 11.585354 0.000000 0.000001 0.000000 0.000000 -0.989463
 24 10.127057 0.000000 0.000000 1.569752 0.000000 -0.069778
 25 1.533671 0.109715 1.664490 -0.233255 -0.412980 0.435684
 26 0.928313 0.000000 0.000000 0.000000 0.000000 0.000000
 27 2.046985 -0.000002 0.000000 0.124294 0.117682 -0.787021
 28 1.038630 0.548043 -0.144017 -0.000001 0.000001 -1.697750
 29 -0.064003 -0.023521 0.026161 0.000000 0.000000 0.000000
time 6
  0 0.239253 27.097439 23.334219 0.000000 0.048107 -1.570922
  1 1.976623 -0.347667 0.000000 -1.570795 -1.570787 0.000000
  2 -0.000005 0.000007 3.713254 -0.005806 3.027822 0.738459
  3 18.045725 0.000000 0.000000 0.000000 0.000000 -0.550216
  4 17.597599 0.000000 0.000000 -0.027608 -0.106802 -0.836501
  5 3.793089 6.407220 0.000000 0.000000 0.000000 1.570796
  6 0.000005 -0.000003 -3.713254 2.991976 -6.151463 1.248938
  7 18.045723 0.000000 0.000000 0.000000 0.000000 -2.035527
  8 17.597597 0.000000 0.000000 0.031115 0.114701 -0.155285
  9 3.793089 6.407220 0.000000 0.000000 0.000000 1.570796
 10 1.293670 0.684478 -0.000001 -0.069711 0.003043 0.043923
 11 5.309685 -0.003834 0.000000 -0.000012 -0.034875 -0.274693
 12 4.826790 -0.004591 0.000000 -0.077979 -0.008929 -0.114597
 13 5.792767 -0.005304 0.000000 0.000000 0.000000 -0.105908
 14 6.662317 -0.001453 0.000000 0.000000 -0.000001 0.471000
 15 -3.112024 1.517254 4.341910 -0.000013 -1.370798 2.669809
 16 4.827231 0.000000 0.000001 -0.314006 0.754204 0.190163
 17 11.139763 0.000000 0.000000 0.000000 0.000000 -0.354456
 18 10.314597 0.000000 -0.000001 -1.570000 0.000000 -0.069778
 19 1.646738 0.449549 -1.702246 0.154002 0.442277 0.277235
 20 0.928312 0.000000 -0.000002 0.000000 0.000000 0.000000
 21 -2.869898 1.399663 -4.140396 -0.000014 1.370795 2.669783
 22 4.972047 0.000000 0.000001 -0.205931 -0.903271 0.719427
 23 11.585354 0.000000 0.000001 0.000000 0.000000 -0.908383
 24 10.127057 0.000000 0.000000 1.569752 0.000000 -0.069778
 25 1.533671 0.109715 1.664490 -0.233255 -0.412980 0.435684
 26 0.928313 0.000000 0.000000 0.000000 0.000000 0.000000
 27 2.046985 -0.000002 0.000000 0.111714 0.131258 -0.759827
 28 1.038630 0.548043 -0.144017 -0.000001 0.000001 -1.665835
 29 -0.064003 -0.023521 0.026161 0.000000 0.000000 0.000000
time 7
  0 0.239253 31.653557 24.787388 0.000000 0.058333 -1.570922
  1 2.855556 -0.410169 0.000000 -1.570795 -1.570787 0.000000
  2 -0.000005 0.000007 3.713254 0.003012 3.027631 0.817562
  3 18.045725 0.000000 0.000000 0.000000 0.000000 -0.822495
  4 17.597599 0.000000 0.000000 -0.003779 -0.110210 -0.704458
  5 3.793089 6.407220 0.000000 0.000000 0.000000 1.570796
  6 0.000005 -0.000003 -3.713254 2.978104 -6.168980 1.137090
  7 18.045723 0.000000 0.000000 0.000000 0.000000 -2.011548
  8 17.597597 0.000000 0.000000 0.111849 0.040205 0.669699
  9 3.793089 6.407220 0.000000 0.000000 0.000000 1.570796
 10 1.293670 0.684478 -0.000001 -0.069775 -0.000516 -0.007606
 11 5.309685 -0.003834 0.000000 -0.000012 -0.034875 -0.336859
 12 4.826790 -0.004591 0.000000 -0.077749 -0.010654 -0.136888
 13 5.792767 -0.005304 0.000000 0.000000 0.000000 -0.129307
 14 6.662317 -0.001453 0.000000 0.000000 -0.000001 0.471000
 15 -3.112024 1.517254 4.341910 -0.000013 -1.370798 2.669809
 16 4.827231 0.000000 0.000001 0.065489 0.582471 0.690377
 17 11.139763 0.000000 0.000000 0.000000 0.000000 -0.369033
 18 10.314597 0.000000 -0.000001 -1.570000 0.000000 -0.069778
 19 1.646738 0.449549 -1.702246 0.154002 0.442277 0.277235
 20 0.928312 0.000000 -0.000002 0.000000 0.000000 0.000000
 21 -2.869898 1.399663 -4.140396 -0.000014 1.370795 2.669783
 22 4.972047 0.000000 0.000001 -0.428326 -0.570728 1.150892
 23 11.585354 0.000000 0.000001 0.000000 0.000000 -0.823456
 24 10.127057 0.000000 0.000000 1.569752 0.000000 -0.069778
 25 1.533671 0.109715 1.664490 -0.233255 -0.412980 0.435684
 26 0.928313 0.000000 0.000000 0.000000 0.000000 0.000000
 27 2.046985 -0.000002 0.000000 0.099565 0.141142 -0.747826
 28 1.038630 0.548043 -0.144017 -0.000001 0.000001 -1.635142
 29 -0.064003 -0.023521 0.026161 0.000000 0.000000 0.000000
time 8
  0 0.235347 36.213581 25.717104 0.000000 0.069537 -1.570922
  1 3.437605 -0.453139 0.000000 -1.570795 -1.570787 0.000000
  2 -0.000005 0.000007 3.713254 0.003396 3.027631 0.819651
  3 18.045725 0.000000 0.000000 0.000000 0.000000 -1.103679
  4 17.597599 0.000000 0.000000 0.012648 -0.109577 -0.570952
  5 3.793089 6.407220 0.000000 0.000000 0.000000 1.570796
  6 0.000005 -0.000003 -3.713254 2.996185 -6.146772 1.280646
  7 18.045723 0.000000 0.000000 0.000000 0.000000 -1.508927
  8 17.597597 0.000000 0.000000 0.116994 0.020758 0.480177
  9 3.793089 6.407220 0.000000 0.000000 0.000000 1.570796
 10 1.293670 0.684478 -0.000001 -0.069695 -0.003417 -0.048856
 11 5.309685 -0.003834 0.000000 -0.000012 -0.034875 -0.374652
 12 4.826790 -0.004591 0.000000 -0.077667 -0.011349 -0.145751
 13 5.792767 -0.005304 0.000000 0.000000 0.000000 -0.141163
 14 6.662317 -0.001453 0.000000 0.000000 -0.000001 0.471000
 15 -3.112024 1.517254 4.341910 -0.000013 -1.370798 2.669809
 16 4.827231 0.000000 0.000001 0.209511 0.324701 0.976276
 17 11.139763 0.000000 0.000000 0.000000 0.000000 -0.382558
 18 10.314597 0.000000 -0.000001 -1.570000 0.000000 -0.069778
 19 1.646738 0.449549 -1.702246 0.154002 0.442277 0.277235
 20 0.928312 0.000000 -0.000002 0.000000 0.000000 0.000000
 21 -2.869898 1.399663 -4.140396 -0.000014 1.370795 2.669783
 22 4.972047 0.000000 0.000001 -0.398158 -0.248240 1.379469
 23 11.585354 0.000000 0.000001 0.000000 0.000000 -0.741746
 24 10.127057 0.000000 0.000000 1.569752 0.000000 -0.069778
 25 1.533671 0.109715 1.664490 -0.233255 -0.412980 0.435684
 26 0.928313 0.000000 0.000000 0.000000 0.000000 0.000000
 27 2.046985 -0.000002 0.000000 0.090776 0.146838 -0.748321
 28 1.038630 0.548043 -0.144017 -0.000001 0.000001 -1.606439
 29 -0.064003 -0.023521 0.026161 0.000000 0.000000 0.000000
time 9
  0 0.239253 40.765789 26.049145 0.000000 0.081719 -1.570922
  1 3.711051 -0.472671 0.000000 -1.570795 -1.570787 0.000000
  2 -0.000005 0.000007 3.713254 -0.012898 3.028396 0.674467
  3 18.045725 0.000000 0.000000 0.000000 0.000000 -1.386125
  4 17.597599 0.000000 0.000000 0.015867 -0.109139 -0.462518
  5 3.793089 6.407220 0.000000 0.000000 0.000000 1.570796
  6 0.000005 -0.000003 -3.713254 3.037034 -6.113461 1.546959
  7 18.045723 0.000000 0.000000 0.000000 0.000000 -0.923936
  8 17.597597 0.000000 0.000000 0.114867 0.030521 0.076510
  9 3.793089 6.407220 0.000000 0.000000 0.000000 1.570796
 10 1.293670 0.684478 -0.000001 -0.069551 -0.005394 -0.077483
 11 5.309685 -0.003834 0.000000 -0.000012 -0.034875 -0.383760
 12 4.826790 -0.004591 0.000000 -0.077749 -0.010822 -0.139115
 13 5.792767 -0.005304 0.000000 0.000000 0.000000 -0.139523
 14 6.662317 -0.001453 0.000000 0.000000 -0.000001 0.471000
 15 -3.112024 1.517254 4.341910 -0.000013 -1.370798 2.669809
 16 4.827231 0.000000 0.000001 0.197528 0.120119 1.098617
 17 11.139763 0.000000 0.000000 0.000000 0.000000 -0.391879
 18 10.314597 0.000000 -0.000001 -1.570000 0.000000 -0.069778
 19 1.646738 0.449549 -1.702246 0.154002 0.442277 0.277235
 20 0.928312 0.000000 -0.000002 0.000000 0.000000 0.000000
 21 -2.869898 1.399663 -4.140396 -0.000014 1.370795 2.669783
 22 4.972047 0.000000 0.000001 -0.261936 -0.036278 1.499884
 23 11.585354 0.000000 0.000001 0.000000 0.000000 -0.679624
 24 10.127057 0.000000 0.000000 1.569752 0.000000 -0.069778
 25 1.533671 0.109715 1.664490 -0.233255 -0.412980 0.435684
 26 0.928313 0.000000 0.000000 0.000000 0.000000 0.000000
 27 2.046985 -0.000002 0.000000 0.088708 0.147941 -0.751108
 28 1.038630 0.548043 -0.144017 -0.000001 0.000001 -1.580444
 29 -0.064003 -0.023521 0.026161 0.000000 0.000000 0.000000
time 10
  0 0.235346 45.325809 25.705385 0.000000 0.094968 -1.570922
  1 3.546983 -0.453139 0.000000 -1.570795 -1.570787 0.000000
  2 -0.000005 0.000007 3.713254 -0.065520 3.048381 0.175895
  3 18.045725 0.000000 0.000000 0.000000 0.000000 -1.764228
  4 17.597599 0.000000 0.000000 -0.004869 -0.110210 -0.391281
  5 3.793089 6.407220 0.000000 0.000000 0.000000 1.570796
  6 0.000005 -0.000003 -3.713254 -0.051983 -3.333583 -1.304430
  7 18.045723 0.000000 0.000000 0.000000 0.000000 -0.640025
  8 17.597597 0.000000 0.000000 0.106259 0.053262 -0.125443
  9 3.793089 6.407220 0.000000 0.000000 0.000000 1.570796
 10 1.293670 0.684478 -0.000001 -0.069551 -0.005394 -0.077483
 11 5.309685 -0.003834 0.000000 -0.000012 -0.034875 -0.365127
 12 4.826790 -0.004591 0.000000 -0.077946 -0.009132 -0.117419
 13 5.792767 -0.005304 0.000000 0.000000 0.000000 -0.124843
 14 6.662317 -0.001453 0.000000 0.000000 -0.000001 0.471000
 15 -3.112024 1.517254 4.341910 -0.000013 -1.481961 2.669809
 16 4.827231 0.000000 0.000001 0.095092 -0.006341 1.033071
 17 11.139763 0.000000 0.000000 0.000000 0.000000 -0.392229
 18 10.314597 0.000000 -0.000001 -1.570000 0.000000 -0.069778
 19 1.646738 0.449549 -1.702246 0.154002 0.442277 0.277235
 20 0.928312 0.000000 -0.000002 0.000000 0.000000 0.000000
 21 -2.869898 1.399663 -4.140396 -0.000014 1.478114 2.669783
 22 4.972047 0.000000 0.000001 -0.060504 0.107068 1.463457
 23 11.585354 0.000000 0.000001 0.000000 0.000000 -0.651222
 24 10.127057 0.000000 0.000000 1.569752 0.000000 -0.069778
 25 1.533671 0.109715 1.664490 -0.233255 -0.412980 0.435684
 26 0.928313 0.000000 0.000000 0.000000 0.000000 0.000000
 27 2.046985 -0.000002 0.000000 0.094739 0.144227 -0.755512
 28 1.038630 0.548043 -0.144017 -0.000001 0.000001 -1.557913
 29 -0.064003 -0.023521 0.026161 0.000000 0.000000 0.000000
time 11
  0 0.239253 49.878021 24.638947 0.000000 0.109818 -1.570922
  1 3.277444 -0.429701 0.000000 -1.570795 -1.570787 0.000000
  2 -0.000005 0.000007 3.713254 -0.112965 3.126597 -0.650797
  3 18.045725 0.000000 0.000000 0.000000 0.000000 -2.228416
  4 17.597599 0.000000 0.000000 -0.048902 -0.098915 -0.340358
  5 3.793089 6.407220 0.000000 0.000000 0.000000 1.570796
  6 0.000005 -0.000003 -3.713254 0.008382 -3.340284 -0.995064
  7 18.045723 0.000000 0.000000 0.000000 0.000000 -0.751300
  8 17.597597 0.000000 0.000000 0.085993 0.082098 -0.008035
  9 3.793089 6.407220 0.000000 0.000000 0.000000 1.570796
 10 1.293670 0.684478 -0.000001 -0.069551 -0.005394 -0.077483
 11 5.309685 -0.003834 0.000000 -0.000012 -0.034875 -0.330576
 12 4.826790 -0.004591 0.000000 -0.078176 -0.006783 -0.087345
 13 5.792767 -0.005304 0.000000 0.000000 0.000000 -0.102835
 14 6.662317 -0.001453 0.000000 0.000000 -0.000001 0.471000
 15 -3.112024 1.517254 4.341910 -3.141488 -1.418687 5.811284
 16 4.827231 0.000000 0.000001 -0.165168 -0.085314 0.673050
 17 11.139763 0.000000 0.000000 0.000000 0.000000 -0.375200
 18 10.314597 0.000000 -0.000001 -1.570000 0.000000 -0.069778
 19 1.646738 0.449549 -1.702246 0.154002 0.442277 0.277235
 20 0.928312 0.000000 -0.000002 0.000000 0.000000 0.000000
 21 -2.869898 1.399663 -4.140396 -3.141393 1.430800 -0.471595
 22 4.972047 0.000000 0.000001 0.263148 0.224190 1.110314
 23 11.585354 0.000000 0.000001 0.000000 0.000000 -0.694945
 24 10.127057 0.000000 0.000000 1.569752 0.000000 -0.069778
 25 1.533671 0.109715 1.664490 -0.233255 -0.412980 0.435684
 26 0.928313 0.000000 0.000000 0.000000 0.000000 0.000000
 27 2.046985 -0.000002 0.000000 0.108612 0.134253 -0.725667
 28 1.038630 0.548043 -0.144017 -0.000001 0.000001 -1.539589
 29 -0.064003 -0.023521 0.026161 0.000000 0.000000 0.000000
time 12
  0 0.239252 54.434132 22.787327 0.000000 0.126358 -1.570922
  1 2.937590 -0.398450 0.000000 -1.570795 -1.570787 0.000000
  2 -0.000005 0.000007 3.713254 -0.091207 3.209881 -1.422050
  3 18.045725 0.000000 0.000000 0.000000 0.000000 -2.535500
  4 17.597599 0.000000 0.000000 -0.090704 -0.062839 -0.302612
  5 3.793089 6.407220 0.000000 0.000000 0.000000 1.570796
  6 0.000005 -0.000003 -3.713254 0.071425 -3.327361 -0.668391
  7 18.045723 0.000000 0.000000 0.000000 0.000000 -1.035428
  8 17.597597 0.000000 0.000000 0.050705 0.107502 0.228259
  9 3.793089 6.407220 0.000000 0.000000 0.000000 1.570796
 10 1.293670 0.684478 -0.000001 -0.069551 -0.005394 -0.077483
 11 5.309685 -0.003834 0.000000 -0.000012 -0.034875 -0.287894
 12 4.826790 -0.004591 0.000000 -0.078373 -0.004123 -0.053259
 13 5.792767 -0.005304 0.000000 0.000000 0.000000 -0.077172
 14 6.662317 -0.001453 0.000000 0.000000 -0.000001 0.471000
 15 -3.112024 1.517254 4.341910 -3.141584 -1.264943 5.811380
 16 4.827231 0.000000 0.000001 -0.553651 -0.131354 0.254834
 17 11.139763 0.000000 0.000000 0.000000 0.000000 -0.351443
 18 10.314597 0.000000 -0.000001 -1.570000 0.000000 -0.069778
 19 1.646738 0.449549 -1.702246 0.154002 0.442277 0.277235
 20 0.928312 0.000000 -0.000002 0.000000 0.000000 0.000000
 21 -2.869898 1.399663 -4.140396 -3.141393 1.282385 -0.471787
 22 4.972047 0.000000 0.000001 0.664851 0.236658 0.637218
 23 11.585354 0.000000 0.000001 0.000000 0.000000 -0.768540
 24 10.127057 0.000000 0.000000 1.569752 0.000000 -0.069778
 25 1.533671 0.109715 1.664490 -0.233255 -0.412980 0.435684
 26 0.928313 0.000000 0.000000 0.000000 0.000000 0.000000
 27 2.046985 -0.000002 0.000000 0.126750 0.117367 -0.663145
 28 1.038630 0.548043 -0.144017 -0.000001 0.000001 -1.526178
 29 -0.064003 -0.023521 0.026161 0.000000 0.000000 0.000000
time 13
  0 0.235346 58.994156 19.838018 0.000000 0.144764 -1.570922
  1 2.546953 -0.359386 0.000000 -1.570795 -1.570787 0.000000
  2 -0.000005 0.000007 3.713254 3.084752 6.184103 1.310885
  3 18.045725 0.000000 0.000000 0.000000 0.000000 -2.553162
  4 17.597599 0.000000 0.000000 -0.108525 -0.019704 -0.267474
  5 3.793089 6.407220 0.000000 0.000000 0.000000 1.570796
  6 0.000005 -0.000003 -3.713254 0.126623 -3.295294 -0.344335
  7 18.045723 0.000000 0.000000 0.000000 0.000000 -1.357807
  8 17.597597 0.000000 0.000000 0.002554 0.118803 0.451297
  9 3.793089 6.407220 0.000000 0.000000 0.000000 1.570796
 10 1.293670 0.684478 -0.000001 -0.069551 -0.005394 -0.077483
 11 5.309685 -0.003834 0.000000 -0.000012 -0.034875 -0.239671
 12 4.826790 -0.004591 0.000000 -0.078488 -0.001198 -0.016328
 13 5.792767 -0.005304 0.000000 0.000000 0.000000 -0.048997
 14 6.662317 -0.001453 0.000000 0.000000 -0.000001 0.471000
 15 -3.112024 1.517254 4.341910 -3.141488 -1.512426 5.811284
 16 4.827231 0.000000 0.000001 -0.952353 -0.362232 -0.511765
 17 11.139763 0.000000 0.000000 0.000000 0.000000 -0.330278
 18 10.314597 0.000000 -0.000001 -1.570000 0.000000 -0.069778
 19 1.646738 0.449549 -1.702246 0.154002 0.442277 0.277235
 20 0.928312 0.000000 -0.000002 0.000000 0.000000 0.000000
 21 -2.869898 1.399663 -4.140396 -3.141393 1.521330 -0.471595
 22 4.972047 0.000000 0.000001 1.217473 0.494713 -0.220574
 23 11.585354 0.000000 0.000001 0.000000 0.000000 -0.831851
 24 10.127057 0.000000 0.000000 1.569752 0.000000 -0.069778
 25 1.533671 0.109715 1.664490 -0.233255 -0.412980 0.435684
 26 0.928313 0.000000 0.000000 0.000000 0.000000 0.000000
 27 2.046985 -0.000002 0.000000 0.145448 0.093007 -0.574553
 28 1.038630 0.548043 -0.144017 -0.000001 0.000001 -1.518472
 29 -0.064003 -0.023521 0.026161 0.000000 0.000000 0.000000
time 14
  0 0.239252 63.546368 15.837896 0.000000 0.165305 -1.570922
  1 2.093814 -0.312510 0.000000 -1.570795 -1.570787 0.000000
  2 -0.000005 0.000007 3.713254 3.095583 6.178749 1.205010
  3 18.045725 0.000000 0.000000 0.000000 0.000000 -2.348341
  4 17.597599 0.000000 0.000000 -0.110756 0.018806 -0.229590
  5 3.793089 6.407220 0.000000 0.000000 0.000000 1.570796
  6 0.000005 -0.000003 -3.713254 0.166611 -3.250496 -0.040981
  7 18.045723 0.000000 0.000000 0.000000 0.000000 -1.601511
  8 17.597597 0.000000 0.000000 -0.051846 0.106969 0.524956
  9 3.793089 6.407220 0.000000 0.000000 0.000000 1.570796
 10 1.293670 0.684478 -0.000001 -0.069551 -0.005394 -0.077483
 11 5.309685 -0.003834 0.000000 -0.000012 -0.034875 -0.185437
 12 4.826790 -0.004591 0.000000 -0.078455 0.001942 0.024131
 13 5.792767 -0.005304 0.000000 0.000000 0.000000 -0.017853
 14 6.662317 -0.001453 0.000000 0.000000 -0.000001 0.471000
 15 -3.112024 1.517254 4.341910 -0.000013 -1.370798 2.669809
 16 4.827231 0.000000 0.000001 -0.878462 -0.387507 -1.187614
 17 11.139763 0.000000 0.000000 0.000000 0.000000 -0.302457
 18 10.314597 0.000000 -0.000001 -1.570000 0.000000 -0.069778
 19 1.646738 0.449549 -1.702246 0.154002 0.442277 0.277235
 20 0.928312 0.000000 -0.000002 0.000000 0.000000 0.000000
 21 -2.869898 1.399663 -4.140396 -0.000014 1.370795 2.669783
 22 4.972047 0.000000 0.000001 1.061758 0.540001 -1.120590
 23 11.585354 0.000000 0.000001 0.000000 0.000000 -0.920136
 24 10.127057 0.000000 0.000000 1.569752 0.000000 -0.069778
 25 1.533671 0.109715 1.664490 -0.233255 -0.412980 0.435684
 26 0.928313 0.000000 0.000000 0.000000 0.000000 0.000000
 27 2.046985 -0.000002 0.000000 0.161001 0.061734 -0.471803
 28 1.038630 0.548043 -0.144017 -0.000001 0.000001 -1.515943
 29 -0.064003 -0.023521 0.026161 0.000000 0.000000 0.000000
time 15
  0 0.239252 68.102486 11.142441 0.000000 0.188425 -1.570922
  1 1.566454 -0.261727 0.000000 -1.570795 -1.570787 0.000000
  2 -0.000005 0.000007 3.713254 3.095583 6.178749 1.204767
  3 18.045725 0.000000 0.000000 0.000000 0.000000 -2.064930
  4 17.597599 0.000000 0.000000 -0.102517 0.053251 -0.192531
  5 3.793089 6.407220 0.000000 0.000000 0.000000 1.570796
  6 0.000005 -0.000003 -3.713254 0.192824 -3.190191 0.288698
  7 18.045723 0.000000 0.000000 0.000000 0.000000 -1.649035
  8 17.597597 0.000000 0.000000 -0.108208 0.049160 0.213321
  9 3.793089 6.407220 0.000000 0.000000 0.000000 1.570796
 10 1.293670 0.684478 -0.000001 -0.069551 -0.005394 -0.077483
 11 5.309685 -0.003834 0.000000 -0.000012 -0.034875 -0.123089
 12 4.826790 -0.004591 0.000000 -0.078291 0.005549 0.069793
 13 5.792767 -0.005304 0.000000 0.000000 0.000000 0.017486
 14 6.662317 -0.001453 0.000000 0.000000 -0.000001 0.471000
 15 -3.112024 1.517254 4.341910 -0.000013 -1.370798 2.669809
 16 4.827231 0.000000 0.000001 -0.912530 -0.320362 -1.213954
 17 11.139763 0.000000 0.000000 0.000000 0.000000 -0.280031
 18 10.314597 0.000000 -0.000001 -1.570000 0.000000 -0.069778
 19 1.646738 0.449549 -1.702246 0.154002 0.442277 0.277235
 20 0.928312 0.000000 -0.000002 0.000000 0.000000 0.000000
 21 -2.869898 1.399663 -4.140396 -0.000014 1.370795 2.669783
 22 4.972047 0.000000 0.000001 1.066709 0.384509 -1.217488
 23 11.585354 0.000000 0.000001 0.000000 0.000000 -0.989254
 24 10.127057 0.000000 0.000000 1.569752 0.000000 -0.069778
 25 1.533671 0.109715 1.664490 -0.233255 -0.412980 0.435684
 26 0.928313 0.000000 0.000000 0.000000 0.000000 0.000000
 27 2.046985 -0.000002 0.000000 0.169919 0.026432 -0.374131
 28 1.038630 0.548043 -0.144017 -0.000001 0.000001 -1.517370
 29 -0.064003 -0.023521 0.026161 0.000000 0.000000 0.000000
time 16
  0 0.235346 72.662506 5.997752 0.000000 0.216346 -1.570922
  1 0.937529 -0.199225 0.000000 -1.570795 -1.570787 0.000000
  2 -0.000005 0.000007 3.713254 3.091462 6.180566 1.245970
  3 18.045725 0.000000 0.000000 0.000000 0.000000 -1.764377
  4 17.597599 0.000000 0.000000 -0.085837 0.081075 -0.158033
  5 3.793089 6.407220 0.000000 0.000000 0.000000 1.570796
  6 0.000005 -0.000003 -3.713254 0.198468 -3.128928 0.595058
  7 18.045723 0.000000 0.000000 0.000000 0.000000 -1.586515
  8 17.597597 0.000000 0.000000 -0.109956 -0.045139 -0.349786
  9 3.793089 6.407220 0.000000 0.000000 0.000000 1.570796
 10 1.293670 0.684478 -0.000001 -0.069551 -0.005394 -0.077483
 11 5.309685 -0.003834 0.000000 -0.000012 -0.034875 -0.049985
 12 4.826790 -0.004591 0.000000 -0.077897 0.009684 0.122621
 13 5.792767 -0.005304 0.000000 0.000000 0.000000 0.058554
 14 6.662317 -0.001453 0.000000 0.000000 -0.000001 0.471000
 15 -3.112024 1.517254 4.341910 -0.000013 -1.370798 2.669809
 16 4.827231 0.000000 0.000001 -0.951472 -0.279514 -1.163635
 17 11.139763 0.000000 0.000000 0.000000 0.000000 -0.260339
 18 10.314597 0.000000 -0.000001 -1.570000 0.000000 -0.069778
 19 1.646738 0.449549 -1.702246 0.154002 0.442277 0.277235
 20 0.928312 0.000000 -0.000002 0.000000 0.000000 0.000000
 21 -2.869898 1.399663 -4.140396 -0.000014 1.370795 2.669783
 22 4.972047 0.000000 0.000001 1.085893 0.250977 -1.217752
 23 11.585354 0.000000 0.000001 0.000000 0.000000 -1.050256
 24 10.127057 0.000000 0.000000 1.569752 0.000000 -0.069778
 25 1.533671 0.109715 1.664490 -0.233255 -0.412980 0.435684
 26 0.928313 0.000000 0.000000 0.000000 0.000000 0.000000
 27 2.046985 -0.000002 0.000000 0.171255 -0.006822 -0.312778
 28 1.038630 0.548043 -0.144017 -0.000001 0.000001 -1.522295
 29 -0.064003 -0.023521 0.026161 0.000000 0.000000 0.000000
time 17
  0 0.239252 77.214714 0.735873 0.000000 0.253960 -1.570922
  1 0.199225 -0.125004 0.000000 -1.570795 -1.570787 0.000000
  2 -0.000005 0.000007 3.713254 3.084752 6.184103 1.312878
  3 18.045725 0.000000 0.000000 0.000000 0.000000 -1.433694
  4 17.597599 0.000000 0.000000 -0.061070 0.102886 -0.123307
  5 3.793089 6.407220 0.000000 0.000000 0.000000 1.570796
  6 0.000005 -0.000003 -3.713254 0.197415 -3.118399 0.648243
  7 18.045723 0.000000 0.000000 0.000000 0.000000 -1.594846
  8 17.597597 0.000000 0.000000 -0.084496 -0.083639 -0.677733
  9 3.793089 6.407220 0.000000 0.000000 0.000000 1.570796
 10 1.293670 0.684478 -0.000001 -0.069551 -0.005394 -0.077483
 11 5.309685 -0.003834 0.000000 -0.000012 -0.034875 0.035740
 12 4.826790 -0.004591 0.000000 -0.077158 0.014429 0.183937
 13 5.792767 -0.005304 0.000000 0.000000 0.000000 0.106433
 14 6.662317 -0.001453 0.000000 0.000000 -0.000001 0.471000
 15 -3.112024 1.517254 4.341910 -0.000013 -1.370798 2.669809
 16 4.827231 0.000000 0.000001 -1.009562 -0.278833 -1.103078
 17 11.139763 0.000000 0.000000 0.000000 0.000000 -0.243239
 18 10.314597 0.000000 -0.000001 -1.570000 0.000000 -0.069778
 19 1.646738 0.449549 -1.702246 0.154002 0.442277 0.277235
 20 0.928312 0.000000 -0.000002 0.000000 0.000000 0.000000
 21 -2.869898 1.399663 -4.140396 -0.000014 1.370795 2.669783
 22 4.972047 0.000000 0.000001 1.119697 0.170214 -1.201152
 23 11.585354 0.000000 0.000001 0.000000 0.000000 -1.102724
 24 10.127057 0.000000 0.000000 1.569752 0.000000 -0.069778
 25 1.533671 0.109715 1.664490 -0.233255 -0.412980 0.435684
 26 0.928313 0.000000 0.000000 0.000000 0.000000 0.000000
 27 2.046985 -0.000002 0.000000 0.167937 -0.028503 -0.338263
 28 1.038630 0.548043 -0.144017 -0.000001 0.000001 -1.530337
 29 -0.064003 -0.023521 0.026161 0.000000 0.000000 0.000000
time 18
  0 0.239252 81.770828 -4.100212 0.000000 0.303667 -1.570922
  1 -0.601581 -0.042970 0.000000 -1.570795 -1.570787 0.000000
  2 -0.000005 0.000007 3.713254 3.075742 6.189841 1.406752
  3 18.045725 0.000000 0.000000 0.000000 0.000000 -1.041936
  4 17.597599 0.000000 0.000000 -0.026138 0.116591 -0.086842
  5 3.793089 6.407220 0.000000 0.000000 0.000000 1.570796
  6 0.000005 -0.000003 -3.713254 0.185936 -3.183682 0.318999
  7 18.045723 0.000000 0.000000 0.000000 0.000000 -1.758209
  8 17.597597 0.000000 0.000000 -0.111737 -0.045770 -0.525195
  9 3.793089 6.407220 0.000000 0.000000 0.000000 1.570796
 10 1.293670 0.684478 -0.000001 -0.069551 -0.005394 -0.077483
 11 5.309685 -0.003834 0.000000 -0.000012 -0.034875 0.132837
 12 4.826790 -0.004591 0.000000 -0.075976 0.019739 0.252948
 13 5.792767 -0.005304 0.000000 0.000000 0.000000 0.160437
 14 6.662317 -0.001453 0.000000 0.000000 -0.000001 0.471000
 15 -3.112024 1.517254 4.341910 -0.000013 -1.370798 2.669809
 16 4.827231 0.000000 0.000001 -1.088445 -0.278663 -1.032894
 17 11.139763 0.000000 0.000000 0.000000 0.000000 -0.225509
 18 10.314597 0.000000 -0.000001 -1.570000 0.000000 -0.069778
 19 1.646738 0.449549 -1.702246 0.154002 0.442277 0.277235
 20 0.928312 0.000000 -0.000002 0.000000 0.000000 0.000000
 21 -2.869898 1.399663 -4.140396 -0.000014 1.370795 2.669783
 22 4.972047 0.000000 0.000001 1.161004 0.091945 -1.181588
 23 11.585354 0.000000 0.000001 0.000000 0.000000 -1.157500
 24 10.127057 0.000000 0.000000 1.569752 0.000000 -0.069778
 25 1.533671 0.109715 1.664490 -0.233255 -0.412980 0.435684
 26 0.928313 0.000000 0.000000 0.000000 0.000000 0.000000
 27 2.046985 -0.000002 0.000000 0.167636 -0.020195 -0.558147
 28 1.038630 0.548043 -0.144017 -0.000001 0.000001 -1.541039
 29 -0.064003 -0.023521 0.026161 0.000000 0.000000 0.000000
time 19
  0 0.235345 86.330849 -8.307372 0.000000 0.367424 -1.570922
  1 -1.394574 0.031251 0.000000 -1.570795 -1.570787 0.000000
  2 -0.000005 0.000007 3.713254 3.065583 6.197873 1.520304
  3 18.045725 0.000000 0.000000 0.000000 0.000000 -0.590438
  4 17.597599 0.000000 0.000000 0.017160 0.115301 -0.054998
  5 3.793089 6.407220 0.000000 0.000000 0.000000 1.570796
  6 0.000005 -0.000003 -3.713254 0.124615 -3.275862 -0.243783
  7 18.045723 0.000000 0.000000 0.000000 0.000000 -1.991481
  8 17.597597 0.000000 0.000000 -0.119273 0.046674 -0.157242
  9 3.793089 6.407220 0.000000 0.000000 0.000000 1.570796
 10 1.293670 0.684478 -0.000001 -0.069551 -0.005394 -0.077483
 11 5.309685 -0.003834 0.000000 -0.000012 -0.034875 0.233049
 12 4.826790 -0.004591 0.000000 -0.074383 0.025108 0.324142
 13 5.792767 -0.005304 0.000000 0.000000 0.000000 0.216144
 14 6.662317 -0.001453 0.000000 0.000000 -0.000001 0.471000
 15 -3.112024 1.517254 4.341910 -0.000013 -1.370798 2.669809
 16 4.827231 0.000000 0.000001 -1.175316 -0.226581 -0.952296
 17 11.139763 0.000000 0.000000 0.000000 0.000000 -0.204275
 18 10.314597 0.000000 -0.000001 -1.570000 0.000000 -0.069778
 19 1.646738 0.449549 -1.702246 0.154002 0.442277 0.277235
 20 0.928312 0.000000 -0.000002 0.000000 0.000000 0.000000
 21 -2.869898 1.399663 -4.140396 -0.000014 1.370795 2.669783
 22 4.972047 0.000000 0.000001 1.194112 -0.044644 -1.159652
 23 11.585354 0.000000 0.000001 0.000000 0.000000 -1.223049
 24 10.127057 0.000000 0.000000 1.569752 0.000000 -0.069778
 25 1.533671 0.109715 1.664490 -0.233255 -0.412980 0.435684
 26 0.928313 0.000000 0.000000 0.000000 0.000000 0.000000
 27 2.046985 -0.000002 0.000000 0.166343 -0.011685 -0.785133
 28 1.038630 0.548043 -0.144017 -0.000001 0.000001 -1.554006
 29 -0.064003 -0.023521 0.026161 0.000000 0.000000 0.000000
time 20
  0 0.235345 90.886963 -12.315307 0.000000 0.441229 -1.570922
  1 -1.984436 0.085940 0.000000 -1.570795 -1.570787 0.000000
  2 -0.000005 0.000007 3.713254 -0.081431 3.221355 -1.554309
  3 18.045725 0.000000 0.000000 0.000000 0.000000 -0.217307
  4 17.597599 0.000000 0.000000 0.054678 0.095802 -0.057789
  5 3.793089 6.407220 0.000000 0.000000 0.000000 1.570796
  6 0.000005 -0.000003 -3.713254 0.030767 -3.338082 -0.881422
  7 18.045723 0.000000 0.000000 0.000000 0.000000 -2.240401
  8 17.597597 0.000000 0.000000 -0.059382 0.102985 0.257654
  9 3.793089 6.407220 0.000000 0.000000 0.000000 1.570796
 10 1.293670 0.684478 -0.000001 -0.069551 -0.005394 -0.077483
 11 5.309685 -0.003834 0.000000 -0.000012 -0.034875 0.313976
 12 4.826790 -0.004591 0.000000 -0.072774 0.029410 0.382680
 13 5.792767 -0.005304 0.000000 0.000000 0.000000 0.261656
 14 6.662317 -0.001453 0.000000 0.000000 -0.000001 0.471000
 15 -3.112024 1.517254 4.341910 -0.000013 -1.370798 2.669809
 16 4.827231 0.000000 0.000001 -1.235697 -0.126503 -0.902065
 17 11.139763 0.000000 0.000000 0.000000 0.000000 -0.182620
 18 10.314597 0.000000 -0.000001 -1.570000 0.000000 -0.069778
 19 1.646738 0.449549 -1.702246 0.154002 0.442277 0.277235
 20 0.928312 0.000000 -0.000002 0.000000 0.000000 0.000000
 21 -2.869898 1.399663 -4.140396 -0.000014 1.370795 2.669783
 22 4.972047 0.000000 0.000001 1.200146 -0.221051 -1.159323
 23 11.585354 0.000000 0.000001 0.000000 0.000000 -1.290208
 24 10.127057 0.000000 0.000000 1.569752 0.000000 -0.069778
 25 1.533671 0.109715 1.664490 -0.233255 -0.412980 0.435684
 26 0.928313 0.000000 0.000000 0.000000 0.000000 0.000000
 27 2.046985 -0.000002 0.000000 0.164792 -0.004931 -0.969913
 28 1.038630 0.548043 -0.144017 -0.000001 0.000001 -1.568819
 29 -0.064003 -0.023521 0.026161 0.000000 0.000000 0.000000
time 21
  0 0.235345 95.443085 -15.850571 0.000000 0.509610 -1.570922
  1 -1.984436 0.085940 0.000000 -1.570795 -1.570787 0.000000
  2 -0.000005 0.000007 3.713254 3.095200 6.179036 1.196944
  3 18.045725 0.000000 0.000000 0.000000 0.000000 -0.855667
  4 17.597599 0.000000 0.000000 0.068443 0.035968 -0.599090
  5 3.793089 6.407220 0.000000 0.000000 0.000000 1.570796
  6 0.000005 -0.000003 -3.713254 0.178187 -3.474200 -0.952642
  7 18.045723 0.000000 0.000000 0.000000 0.000000 -2.240401
  8 17.597597 0.000000 0.000000 -0.101975 -0.102120 0.174585
  9 3.793089 6.407220 0.000000 0.000000 0.000000 1.570796
 10 1.293670 0.684478 -0.000001 -0.069551 -0.005394 -0.077483
 11 5.309685 -0.003834 0.000000 -0.000012 -0.034875 0.313976
 12 4.826790 -0.004591 0.000000 -0.072774 0.029410 0.382680
 13 5.792767 -0.005304 0.000000 0.000000 0.000000 0.261656
 14 6.662317 -0.001453 0.000000 0.000000 -0.000001 0.471000
 15 -3.112024 1.517254 4.341910 -0.811483 -1.284406 3.460595
 16 4.827231 0.000000 0.000001 -1.213612 -0.091952 -1.106841
 17 11.139763 0.000000 0.000000 0.000000 0.000000 -0.182620
 18 10.314597 0.000000 -0.000001 -1.570000 0.000000 -0.069778
 19 1.646738 0.449549 -1.702246 0.154002 0.442277 0.277235
 20 0.928312 0.000000 -0.000002 0.000000 0.000000 0.000000
 21 -2.869898 1.399663 -4.140396 0.867734 1.267009 3.514234
 22 4.972047 0.000000 0.000001 1.186222 -0.264650 -1.381576
 23 11.585354 0.000000 0.000001 0.000000 0.000000 -1.290208
 24 10.127057 0.000000 0.000000 1.569752 0.000000 -0.069778
 25 1.533671 0.109715 1.664490 -0.233255 -0.412980 0.435684
 26 0.928313 0.000000 0.000000 0.000000 0.000000 0.000000
 27 2.046985 -0.000002 0.000000 0.164792 -0.004931 -0.969913
 28 1.038630 0.548043 -0.144017 -0.000001 0.000001 -1.585058
 29 -0.064003 -0.023521 0.026161 0.000000 0.000000 0.000000
time 22
  0 0.235346 99.999199 -18.948322 0.000000 0.575500 -1.570922
  1 -1.984436 0.085940 0.000000 -1.570795 -1.570787 0.000000
  2 -0.000005 0.000007 3.713254 3.130376 6.169569 0.886752
  3 18.045725 0.000000 0.000000 0.000000 0.000000 -1.263974
  4 17.597599 0.000000 0.000000 0.070902 0.027424 -0.433693
  5 3.793089 6.407220 0.000000 0.000000 0.000000 1.570796
  6 0.000005 -0.000003 -3.713254 0.485367 -3.635875 -0.725988
  7 18.045723 0.000000 0.000000 0.000000 0.000000 -2.240401
  8 17.597597 0.000000 0.000000 -0.222384 -0.386218 0.349410
  9 3.793089 6.407220 0.000000 0.000000 0.000000 1.570796
 10 1.293670 0.684478 -0.000001 -0.069551 -0.005394 -0.077483
 11 5.309685 -0.003834 0.000000 -0.000012 -0.034875 0.313976
 12 4.826790 -0.004591 0.000000 -0.072774 0.029410 0.382680
 13 5.792767 -0.005304 0.000000 0.000000 0.000000 0.261656
 14 6.662317 -0.001453 0.000000 0.000000 -0.000001 0.471000
 15 -3.112024 1.517254 4.341910 -1.226326 -1.030038 3.844387
 16 4.827231 0.000000 0.000001 -1.195051 -0.035530 -1.401666
 17 11.139763 0.000000 0.000000 0.000000 0.000000 -0.182620
 18 10.314597 0.000000 -0.000001 -1.570000 0.000000 -0.069778
 19 1.646738 0.449549 -1.702246 0.154002 0.442277 0.277235
 20 0.928312 0.000000 -0.000002 0.000000 0.000000 0.000000
 21 -2.869898 1.399663 -4.140396 1.150751 1.109380 3.777884
 22 4.972047 0.000000 0.000001 1.182354 -0.301894 -1.565295
 23 11.585354 0.000000 0.000001 0.000000 0.000000 -1.290208
 24 10.127057 0.000000 0.000000 1.569752 0.000000 -0.069778
 25 1.533671 0.109715 1.664490 -0.233255 -0.412980 0.435684
 26 0.928313 0.000000 0.000000 0.000000 0.000000 0.000000
 27 2.046985 -0.000002 0.000000 0.164792 -0.004931 -0.969913
 28 1.038630 0.548043 -0.144017 -0.000001 0.000001 -1.602280
 29 -0.064003 -0.023521 0.026161 0.000000 0.000000 0.000000
time 23
  0 0.239252 104.551407 -22.385927 0.000000 0.575500 -1.570922
  1 -2.253975 0.144536 0.000000 -1.570795 -1.570787 0.000000
  2 -0.000005 0.000007 3.713254 -3.090613 6.158478 0.612516
  3 18.045725 0.000000 0.000000 0.000000 0.000000 -1.885637
  4 17.597599 0.000000 0.000000 0.094173 0.003762 -0.083868
  5 3.793089 6.407220 0.000000 0.000000 0.000000 1.570796
  6 0.000005 -0.000003 -3.713254 0.566682 -3.779842 -0.621363
  7 18.045723 0.000000 0.000000 0.000000 0.000000 -2.240401
  8 17.597597 0.000000 0.000000 -0.392328 -0.457538 0.423344
  9 3.793089 6.407220 0.000000 0.000000 0.000000 1.570796
 10 1.293670 0.684478 -0.000001 -0.069551 -0.005394 -0.077483
 11 5.309685 -0.003834 0.000000 -0.000012 -0.034875 0.313976
 12 4.826790 -0.004591 0.000000 -0.068669 0.038039 0.504541
 13 5.792767 -0.005304 0.000000 0.000000 0.000000 0.261656
 14 6.662317 -0.001453 0.000000 0.000000 -0.000001 0.471000
 15 -3.112024 1.517254 4.341910 -0.507757 -1.342873 3.166543
 16 4.827231 0.000000 0.000001 -1.268883 -0.155778 -1.185601
 17 11.139763 0.000000 0.000000 0.000000 0.000000 -0.365669
 18 10.314597 0.000000 -0.000001 -1.570000 0.000000 -0.069778
 19 1.646738 0.449549 -1.702246 0.154002 0.442277 0.277235
 20 0.928312 0.000000 -0.000002 0.000000 0.000000 0.000000
 21 -2.869898 1.399663 -4.140396 -0.523290 1.329953 2.159067
 22 4.972047 0.000000 0.000001 1.250813 -0.093713 -1.102014
 23 11.585354 0.000000 0.000001 0.000000 0.000000 -1.290208
 24 10.127057 0.000000 0.000000 1.569752 0.000000 -0.069778
 25 1.533671 0.109715 1.664490 -0.233255 -0.412980 0.435684
 26 0.928313 0.000000 0.000000 0.000000 0.000000 0.000000
 27 2.046985 -0.000002 0.000000 0.160699 -0.036878 -0.898086
 28 1.038630 0.548043 -0.144017 -0.000001 0.000001 -1.620089
 29 -0.064003 -0.023521 0.026161 0.000000 0.000000 0.000000
time 24
  0 0.235345 109.111427 -21.139795 0.000000 0.575500 -1.570922
  1 -2.496170 0.187506 0.000000 -1.570795 -1.570787 0.000000
  2 -0.000005 0.000007 3.713254 -3.072976 6.132565 0.732531
  3 18.045725 0.000000 0.000000 0.000000 0.000000 -2.114725
  4 17.597599 0.000000 0.000000 0.123351 -0.022041 0.265180
  5 3.793089 6.407220 0.000000 0.000000 0.000000 1.570796
  6 0.000005 -0.000003 -3.713254 0.595477 -3.891071 -0.538652
  7 18.045723 0.000000 0.000000 0.000000 0.000000 -2.240401
  8 17.597597 0.000000 0.000000 -0.537373 -0.461660 0.479936
  9 3.793089 6.407220 0.000000 0.000000 0.000000 1.570796
 10 1.293670 0.684478 -0.000001 -0.069551 -0.005394 -0.077483
 11 5.309685 -0.003834 0.000000 -0.000012 -0.034875 0.313976
 12 4.826790 -0.004591 0.000000 -0.063513 0.046129 0.626512
 13 5.792767 -0.005304 0.000000 0.000000 0.000000 0.261656
 14 6.662317 -0.001453 0.000000 0.000000 -0.000001 0.471000
 15 -3.112024 1.517254 4.341910 1.070890 -1.170704 1.634348
 16 4.827231 0.000000 0.000001 -1.327091 -0.299853 -0.902065
 17 11.139763 0.000000 0.000000 0.000000 0.000000 -0.548787
 18 10.314597 0.000000 -0.000001 -1.570000 0.000000 -0.069778
 19 1.646738 0.449549 -1.702246 0.154002 0.442277 0.277235
 20 0.928312 0.000000 -0.000002 0.000000 0.000000 0.000000
 21 -2.869898 1.399663 -4.140396 -1.249720 0.959806 1.484696
 22 4.972047 0.000000 0.000001 1.341086 0.093956 -0.702233
 23 11.585354 0.000000 0.000001 0.000000 0.000000 -1.290208
 24 10.127057 0.000000 0.000000 1.569752 0.000000 -0.069778
 25 1.533671 0.109715 1.664490 -0.233255 -0.412980 0.435684
 26 0.928313 0.000000 0.000000 0.000000 0.000000 0.000000
 27 2.046985 -0.000002 0.000000 0.146267 -0.076391 -0.765716
 28 1.038630 0.548043 -0.144017 -0.000001 0.000001 -1.638054
 29 -0.064003 -0.023521 0.026161 0.000000 0.000000 0.000000
time 25
  0 0.235346 113.667549 -19.049887 0.000000 0.513077 -1.570922
  1 -2.250069 0.156255 0.000000 -1.570795 -1.570787 0.000000
  2 -0.000005 0.000007 3.713254 -3.084095 6.115067 0.945448
  3 18.045725 0.000000 0.000000 0.000000 0.000000 -2.098399
  4 17.597599 0.000000 0.000000 0.133719 -0.032922 0.398001
  5 3.793089 6.407220 0.000000 0.000000 0.000000 1.570796
  6 0.000005 -0.000003 -3.713254 0.504691 -3.845986 -0.621120
  7 18.045723 0.000000 0.000000 0.000000 0.000000 -2.192225
  8 17.597597 0.000000 0.000000 -0.533778 -0.317856 0.543843
  9 3.793089 6.407220 0.000000 0.000000 0.000000 1.570796
 10 1.293670 0.684478 -0.000001 -0.069551 -0.005394 -0.077483
 11 5.309685 -0.003834 0.000000 -0.000012 -0.034875 0.288606
 12 4.826790 -0.004591 0.000000 -0.065828 0.042785 0.574743
 13 5.792767 -0.005304 0.000000 0.000000 0.000000 0.205036
 14 6.662317 -0.001453 0.000000 0.000000 -0.000001 0.471000
 15 -3.112024 1.517254 4.341910 1.070890 -1.170704 1.634348
 16 4.827231 0.000000 0.000001 -1.288736 -0.064209 -0.868023
 17 11.139763 0.000000 0.000000 0.000000 0.000000 -0.548787
 18 10.314597 0.000000 -0.000001 -1.570000 0.000000 -0.069778
 19 1.646738 0.449549 -1.702246 0.154002 0.442277 0.277235
 20 0.928312 0.000000 -0.000002 0.000000 0.000000 0.000000
 21 -2.869898 1.399663 -4.140396 -1.249720 0.959806 1.484696
 22 4.972047 0.000000 0.000001 1.299856 -0.110525 -0.657901
 23 11.585354 0.000000 0.000001 0.000000 0.000000 -1.290208
 24 10.127057 0.000000 0.000000 1.569752 0.000000 -0.069778
 25 1.533671 0.109715 1.664490 -0.233255 -0.412980 0.435684
 26 0.928313 0.000000 0.000000 0.000000 0.000000 0.000000
 27 2.046985 -0.000002 0.000000 0.149412 -0.071460 -0.679731
 28 1.038630 0.548043 -0.144017 -0.000001 0.000001 -1.655780
 29 -0.064003 -0.023521 0.026161 0.000000 0.000000 0.000000
time 26
  0 0.235346 118.223663 -16.467777 0.000000 0.448343 -1.570922
  1 -1.945372 0.113285 0.000000 -1.570795 -1.570787 0.000000
  2 -0.000005 0.000007 3.713254 -3.104511 6.100246 1.190628
  3 18.045725 0.000000 0.000000 0.000000 0.000000 -2.029457
  4 17.597599 0.000000 0.000000 0.140614 -0.043803 0.506846
  5 3.793089 6.407220 0.000000 0.000000 0.000000 1.570796
  6 0.000005 -0.000003 -3.713254 0.420027 -3.783766 -0.702086
  7 18.045723 0.000000 0.000000 0.000000 0.000000 -2.144122
  8 17.597597 0.000000 0.000000 -0.491861 -0.186004 0.609913
  9 3.793089 6.407220 0.000000 0.000000 0.000000 1.570796
 10 1.293670 0.684478 -0.000001 -0.069551 -0.005394 -0.077483
 11 5.309685 -0.003834 0.000000 -0.000012 -0.034875 0.262294
 12 4.826790 -0.004591 0.000000 -0.068357 0.038554 0.511927
 13 5.792767 -0.005304 0.000000 0.000000 0.000000 0.146339
 14 6.662317 -0.001453 0.000000 0.000000 -0.000001 0.471000
 15 -3.112024 1.517254 4.341910 1.070890 -1.170704 1.634348
 16 4.827231 0.000000 0.000001 -1.235286 0.181647 -0.802827
 17 11.139763 0.000000 0.000000 0.000000 0.000000 -0.548787
 18 10.314597 0.000000 -0.000001 -1.570000 0.000000 -0.069778
 19 1.646738 0.449549 -1.702246 0.154002 0.442277 0.277235
 20 0.928312 0.000000 -0.000002 0.000000 0.000000 0.000000
 21 -2.869898 1.399663 -4.140396 -1.249720 0.959806 1.484696
 22 4.972047 0.000000 0.000001 1.240138 -0.327072 -0.592556
 23 11.585354 0.000000 0.000001 0.000000 0.000000 -1.290208
 24 10.127057 0.000000 0.000000 1.569752 0.000000 -0.069778
 25 1.533671 0.109715 1.664490 -0.233255 -0.412980 0.435684
 26 0.928313 0.000000 0.000000 0.000000 0.000000 0.000000
 27 2.046985 -0.000002 0.000000 0.153720 -0.063243 -0.600398
 28 1.038630 0.548043 -0.144017 -0.000001 0.000001 -1.672822
 29 -0.064003 -0.023521 0.026161 0.000000 0.000000 0.000000
time 27
  0 0.235346 122.779770 -13.823165 0.000000 0.386631 -1.570922
  1 -1.628956 0.070315 0.000000 -1.570795 -1.570787 0.000000
  2 -0.000005 0.000007 3.713254 -3.128186 6.091353 1.429200
  3 18.045725 0.000000 0.000000 0.000000 0.000000 -1.927418
  4 17.597599 0.000000 0.000000 0.143656 -0.053638 0.578587
  5 3.793089 6.407220 0.000000 0.000000 0.000000 1.570796
  6 0.000005 -0.000003 -3.713254 0.353158 -3.722887 -0.766228
  7 18.045723 0.000000 0.000000 0.000000 0.000000 -2.098989
  8 17.597597 0.000000 0.000000 -0.434971 -0.084487 0.675880
  9 3.793089 6.407220 0.000000 0.000000 0.000000 1.570796
 10 1.293670 0.684478 -0.000001 -0.069551 -0.005394 -0.077483
 11 5.309685 -0.003834 0.000000 -0.000012 -0.034875 0.237214
 12 4.826790 -0.004591 0.000000 -0.070590 0.034348 0.451338
 13 5.792767 -0.005304 0.000000 0.000000 0.000000 0.090384
 14 6.662317 -0.001453 0.000000 0.000000 -0.000001 0.471000
 15 -3.112024 1.517254 4.341910 1.070890 -1.170704 1.634348
 16 4.827231 0.000000 0.000001 -1.161337 0.409802 -0.715841
 17 11.139763 0.000000 0.000000 0.000000 0.000000 -0.548787
 18 10.314597 0.000000 -0.000001 -1.570000 0.000000 -0.069778
 19 1.646738 0.449549 -1.702246 0.154002 0.442277 0.277235
 20 0.928312 0.000000 -0.000002 0.000000 0.000000 0.000000
 21 -2.869898 1.399663 -4.140396 -1.249720 0.959806 1.484696
 22 4.972047 0.000000 0.000001 1.160308 -0.528094 -0.506197
 23 11.585354 0.000000 0.000001 0.000000 0.000000 -1.290208
 24 10.127057 0.000000 0.000000 1.569752 0.000000 -0.069778
 25 1.533671 0.109715 1.664490 -0.233255 -0.412980 0.435684
 26 0.928313 0.000000 0.000000 0.000000 0.000000 0.000000
 27 2.046985 -0.000002 0.000000 0.157425 -0.054935 -0.525470
 28 1.038630 0.548043 -0.144017 -0.000001 0.000001 -1.688749
 29 -0.064003 -0.023521 0.026161 0.000000 0.000000 0.000000
time 28
  0 0.235346 127.335899 -11.342621 0.000000 0.329099 -1.570922
  1 -1.320353 0.027345 0.000000 -1.570795 -1.570787 0.000000
  2 -0.000005 0.000007 3.713254 -0.009544 3.335811 -1.494108
  3 18.045725 0.000000 0.000000 0.000000 0.000000 -1.807864
  4 17.597599 0.000000 0.000000 0.143656 -0.061890 0.616699
  5 3.793089 6.407220 0.000000 0.000000 0.000000 1.570796
  6 0.000005 -0.000003 -3.713254 0.292698 -3.656647 -0.821643
  7 18.045723 0.000000 0.000000 0.000000 0.000000 -1.997349
  8 17.597597 0.000000 0.000000 -0.361311 -0.000287 0.700021
  9 3.793089 6.407220 0.000000 0.000000 0.000000 1.570796
 10 1.293670 0.684478 -0.000001 -0.069551 -0.005394 -0.077483
 11 5.309685 -0.003834 0.000000 -0.000012 -0.034875 0.213854
 12 4.826790 -0.004591 0.000000 -0.072396 0.030285 0.394829
 13 5.792767 -0.005304 0.000000 0.000000 0.000000 0.038248
 14 6.662317 -0.001453 0.000000 0.000000 -0.000001 0.471000
 15 -3.112024 1.517254 4.341910 1.070890 -1.170704 1.634348
 16 4.827231 0.000000 0.000001 -1.059253 0.612597 -0.600501
 17 11.139763 0.000000 0.000000 0.000000 0.000000 -0.548787
 18 10.314597 0.000000 -0.000001 -1.570000 0.000000 -0.069778
 19 1.646738 0.449549 -1.702246 0.154002 0.442277 0.277235
 20 0.928312 0.000000 -0.000002 0.000000 0.000000 0.000000
 21 -2.869898 1.399663 -4.140396 -1.249720 0.959806 1.484696
 22 4.972047 0.000000 0.000001 1.052940 -0.706432 -0.391842
 23 11.585354 0.000000 0.000001 0.000000 0.000000 -1.290208
 24 10.127057 0.000000 0.000000 1.569752 0.000000 -0.069778
 25 1.533671 0.109715 1.664490 -0.233255 -0.412980 0.435684
 26 0.928313 0.000000 0.000000 0.000000 0.000000 0.000000
 27 2.046985 -0.000002 0.000000 0.160527 -0.046965 -0.455711
 28 1.038630 0.548043 -0.144017 -0.000001 0.000001 -1.703179
 29 -0.064003 -0.023521 0.026161 0.000000 0.000000 0.000000
time 29
  0 0.235346 131.892014 -9.092552 0.000000 0.276457 -1.570922
  1 -1.015656 -0.007813 0.000000 -1.570795 -1.570787 0.000000
  2 -0.000005 0.000007 3.713254 -0.029960 3.334090 -1.299217
  3 18.045725 0.000000 0.000000 0.000000 0.000000 -1.680741
  4 17.597599 0.000000 0.000000 0.141425 -0.068511 0.629464
  5 3.793089 6.407220 0.000000 0.000000 0.000000 1.570796
  6 0.000005 -0.000003 -3.713254 0.227933 -3.574038 -0.882392
  7 18.045723 0.000000 0.000000 0.000000 0.000000 -1.785593
  8 17.597597 0.000000 0.000000 -0.256765 0.069435 0.652735
  9 3.793089 6.407220 0.000000 0.000000 0.000000 1.570796
 10 1.293670 0.684478 -0.000001 -0.069551 -0.005394 -0.077483
 11 5.309685 -0.003834 0.000000 -0.000012 -0.034875 0.192486
 12 4.826790 -0.004591 0.000000 -0.073874 0.026522 0.343214
 13 5.792767 -0.005304 0.000000 0.000000 0.000000 -0.009340
 14 6.662317 -0.001453 0.000000 0.000000 -0.000001 0.471000
 15 -3.112024 1.517254 4.341910 1.070890 -1.170704 1.634348
 16 4.827231 0.000000 0.000001 -0.919049 0.783224 -0.447444
 17 11.139763 0.000000 0.000000 0.000000 0.000000 -0.548787
 18 10.314597 0.000000 -0.000001 -1.570000 0.000000 -0.069778
 19 1.646738 0.449549 -1.702246 0.154002 0.442277 0.277235
 20 0.928312 0.000000 -0.000002 0.000000 0.000000 0.000000
 21 -2.869898 1.399663 -4.140396 -1.249720 0.959806 1.484696
 22 4.972047 0.000000 0.000001 0.909292 -0.856052 -0.241192
 23 11.585354 0.000000 0.000001 0.000000 0.000000 -1.290208
 24 10.127057 0.000000 0.000000 1.569752 0.000000 -0.069778
 25 1.533671 0.109715 1.664490 -0.233255 -0.412980 0.435684
 26 0.928313 0.000000 0.000000 0.000000 0.000000 0.000000
 27 2.046985 -0.000002 0.000000 0.162983 -0.039513 -0.391975
 28 1.038630 0.548043 -0.144017 -0.000001 0.000001 -1.715667
 29 -0.064003 -0.023521 0.026161 0.000000 0.000000 0.000000
time 30
  0 0.235346 136.448120 -7.084678 0.000000 0.228440 -1.570922
  1 -0.726585 -0.042970 0.000000 -1.570795 -1.570787 0.000000
  2 -0.000005 0.000007 3.713254 -0.047596 3.328926 -1.124880
  3 18.045725 0.000000 0.000000 0.000000 0.000000 -1.550650
  4 17.597599 0.000000 0.000000 0.137775 -0.073550 0.623608
  5 3.793089 6.407220 0.000000 0.000000 0.000000 1.570796
  6 0.000005 -0.000003 -3.713254 0.173882 -3.493248 -0.932474
  7 18.045723 0.000000 0.000000 0.000000 0.000000 -1.577749
  8 17.597597 0.000000 0.000000 -0.149334 0.099849 0.611012
  9 3.793089 6.407220 0.000000 0.000000 0.000000 1.570796
 10 1.293670 0.684478 -0.000001 -0.069551 -0.005394 -0.077483
 11 5.309685 -0.003834 0.000000 -0.000012 -0.034875 0.172947
 12 4.826790 -0.004591 0.000000 -0.075040 0.022986 0.295964
 13 5.792767 -0.005304 0.000000 0.000000 0.000000 -0.052942
 14 6.662317 -0.001453 0.000000 0.000000 -0.000001 0.471000
 15 -3.112024 1.517254 4.341910 1.070890 -1.170704 1.634348
 16 4.827231 0.000000 0.000001 -0.728274 0.917342 -0.243893
 17 11.139763 0.000000 0.000000 0.000000 0.000000 -0.548787
 18 10.314597 0.000000 -0.000001 -1.570000 0.000000 -0.069778
 19 1.646738 0.449549 -1.702246 0.154002 0.442277 0.277235
 20 0.928312 0.000000 -0.000002 0.000000 0.000000 0.000000
 21 -2.869898 1.399663 -4.140396 -1.249720 0.959806 1.484696
 22 4.972047 0.000000 0.000001 0.717839 -0.973496 -0.042850
 23 11.585354 0.000000 0.000001 0.000000 0.000000 -1.290208
 24 10.127057 0.000000 0.000000 1.569752 0.000000 -0.069778
 25 1.533671 0.109715 1.664490 -0.233255 -0.412980 0.435684
 26 0.928313 0.000000 0.000000 0.000000 0.000000 0.000000
 27 2.046985 -0.000002 0.000000 0.164878 -0.032578 -0.333543
 28 1.038630 0.548043 -0.144017 -0.000001 0.000001 -1.726465
 29 -0.064003 -0.023521 0.026161 0.000000 0.000000 0.000000
time 31
  0 0.235346 141.004242 -5.283842 0.000000 0.181133 -1.570922
  1 -0.433607 -0.082034 0.000000 -1.570795 -1.570787 0.000000
  2 -0.000005 0.000007 3.713254 -0.063123 3.322233 -0.963759
  3 18.045725 0.000000 0.000000 0.000000 0.000000 -1.418778
  4 17.597599 0.000000 0.000000 0.134074 -0.077323 0.604163
  5 3.793089 6.407220 0.000000 0.000000 0.000000 1.570796
  6 0.000005 -0.000003 -3.713254 0.131502 -3.417053 -0.952303
  7 18.045723 0.000000 0.000000 0.000000 0.000000 -1.379468
  8 17.597597 0.000000 0.000000 -0.052110 0.097995 0.574337
  9 3.793089 6.407220 0.000000 0.000000 0.000000 1.570796
 10 1.293670 0.684478 -0.000001 -0.069551 -0.005394 -0.077483
 11 5.309685 -0.003834 0.000000 -0.000012 -0.034875 0.153771
 12 4.826790 -0.004591 0.000000 -0.076025 0.019487 0.249685
 13 5.792767 -0.005304 0.000000 0.000000 0.000000 -0.095692
 14 6.662317 -0.001453 0.000000 0.000000 -0.000001 0.471000
 15 -3.112024 1.517254 4.341910 1.070890 -1.170704 1.634348
 16 4.827231 0.000000 0.000001 -0.460495 1.013251 0.037543
 17 11.139763 0.000000 0.000000 0.000000 0.000000 -0.548787
 18 10.314597 0.000000 -0.000001 -1.570000 0.000000 -0.069778
 19 1.646738 0.449549 -1.702246 0.154002 0.442277 0.277235
 20 0.928312 0.000000 -0.000002 0.000000 0.000000 0.000000
 21 -2.869898 1.399663 -4.140396 -1.249720 0.959806 1.484696
 22 4.972047 0.000000 0.000001 0.454601 -1.057396 0.227820
 23 11.585354 0.000000 0.000001 0.000000 0.000000 -1.290208
 24 10.127057 0.000000 0.000000 1.569752 0.000000 -0.069778
 25 1.533671 0.109715 1.664490 -0.233255 -0.412980 0.435684
 26 0.928313 0.000000 0.000000 0.000000 0.000000 0.000000
 27 2.046985 -0.000002 0.000000 0.166429 -0.025711 -0.276190
 28 1.038630 0.548043 -0.144017 -0.000001 0.000001 -1.736280
 29 -0.064003 -0.023521 0.026161 0.000000 0.000000 0.000000
time 32
  0 0.235347 145.560364 -3.654886 0.000000 0.135872 -1.570922
  1 -0.144536 -0.117191 0.000000 -1.570795 -1.570787 0.000000
  2 -0.000005 0.000007 3.713254 -0.083539 3.318982 -0.813328
  3 18.045725 0.000000 0.000000 0.000000 0.000000 -1.283640
  4 17.597599 0.000000 0.000000 0.138231 -0.079295 0.572181
  5 3.793089 6.407220 0.000000 0.000000 0.000000 1.570796
  6 0.000005 -0.000003 -3.713254 0.128537 -3.383359 -0.802347
  7 18.045723 0.000000 0.000000 0.000000 0.000000 -1.243127
  8 17.597597 0.000000 0.000000 -0.016327 0.103478 0.546281
  9 3.793089 6.407220 0.000000 0.000000 0.000000 1.570796
 10 1.293670 0.684478 -0.000001 -0.069551 -0.005394 -0.077483
 11 5.309685 -0.003834 0.000000 -0.000012 -0.034875 0.135372
 12 4.826790 -0.004591 0.000000 -0.076813 0.016095 0.205588
 13 5.792767 -0.005304 0.000000 0.000000 0.000000 -0.136782
 14 6.662317 -0.001453 0.000000 0.000000 -0.000001 0.471000
 15 -3.112024 1.517254 4.341910 1.070890 -1.170704 1.634348
 16 4.827231 0.000000 0.000001 -0.133510 1.053589 0.378137
 17 11.139763 0.000000 0.000000 0.000000 0.000000 -0.548787
 18 10.314597 0.000000 -0.000001 -1.570000 0.000000 -0.069778
 19 1.646738 0.449549 -1.702246 0.154002 0.442277 0.277235
 20 0.928312 0.000000 -0.000002 0.000000 0.000000 0.000000
 21 -2.869898 1.399663 -4.140396 -1.249720 0.959806 1.484696
 22 4.972047 0.000000 0.000001 0.136828 -1.093514 0.553231
 23 11.585354 0.000000 0.000001 0.000000 0.000000 -1.290208
 24 10.127057 0.000000 0.000000 1.569752 0.000000 -0.069778
 25 1.533671 0.109715 1.664490 -0.233255 -0.412980 0.435684
 26 0.928313 0.000000 0.000000 0.000000 0.000000 0.000000
 27 2.046985 -0.000002 0.000000 0.167679 -0.019160 -0.220770
 28 1.038630 0.548043 -0.144017 -0.000001 0.000001 -1.745412
 29 -0.064003 -0.023521 0.026161 0.000000 0.000000 0.000000
time 33
  0 0.235347 150.116470 -2.170466 0.000000 0.097191 -1.570922
  1 0.093753 -0.148442 0.000000 -1.570795 -1.570787 0.000000
  2 -0.000005 0.000007 3.713254 -0.102421 3.312958 -0.676744
  3 18.045725 0.000000 0.000000 0.000000 0.000000 -1.143159
  4 17.597599 0.000000 0.000000 0.141628 -0.080439 0.528076
  5 3.793089 6.407220 0.000000 0.000000 0.000000 1.570796
  6 0.000005 -0.000003 -3.713254 0.120884 -3.351483 -0.665870
  7 18.045723 0.000000 0.000000 0.000000 0.000000 -1.100194
  8 17.597597 0.000000 0.000000 0.019209 0.105490 0.505657
  9 3.793089 6.407220 0.000000 0.000000 0.000000 1.570796
 10 1.293670 0.684478 -0.000001 -0.069551 -0.005394 -0.077483
 11 5.309685 -0.003834 0.000000 -0.000012 -0.034875 0.119672
 12 4.826790 -0.004591 0.000000 -0.077388 0.013123 0.167026
 13 5.792767 -0.005304 0.000000 0.000000 0.000000 -0.171788
 14 6.662317 -0.001453 0.000000 0.000000 -0.000001 0.471000
 15 -3.112024 1.517254 4.341910 1.070890 -1.170704 1.634348
 16 4.827231 0.000000 0.000001 0.157588 1.036909 0.682676
 17 11.139763 0.000000 0.000000 0.000000 0.000000 -0.548787
 18 10.314597 0.000000 -0.000001 -1.570000 0.000000 -0.069778
 19 1.646738 0.449549 -1.702246 0.154002 0.442277 0.277235
 20 0.928312 0.000000 -0.000002 0.000000 0.000000 0.000000
 21 -2.869898 1.399663 -4.140396 -1.249720 0.959806 1.484696
 22 4.972047 0.000000 0.000001 -0.148147 -1.081689 0.845441
 23 11.585354 0.000000 0.000001 0.000000 0.000000 -1.290208
 24 10.127057 0.000000 0.000000 1.569752 0.000000 -0.069778
 25 1.533671 0.109715 1.664490 -0.233255 -0.412980 0.435684
 26 0.928313 0.000000 0.000000 0.000000 0.000000 0.000000
 27 2.046985 -0.000002 0.000000 0.168497 -0.013193 -0.174519
 28 1.038630 0.548043 -0.144017 -0.000001 0.000001 -1.754089
 29 -0.064003 -0.023521 0.026161 0.000000 0.000000 0.000000
time 34
  0 0.235347 154.672577 -0.807143 0.000000 0.063757 -1.570922
  1 0.312510 -0.179693 0.000000 -1.570795 -1.570787 0.000000
  2 -0.000005 0.000007 3.713254 -0.120154 3.304448 -0.549830
  3 18.045725 0.000000 0.000000 0.000000 0.000000 -0.995109
  4 17.597599 0.000000 0.000000 0.144442 -0.080853 0.472212
  5 3.793089 6.407220 0.000000 0.000000 0.000000 1.570796
  6 0.000005 -0.000003 -3.713254 0.111413 -3.322958 -0.537925
  7 18.045723 0.000000 0.000000 0.000000 0.000000 -0.947770
  8 17.597597 0.000000 0.000000 0.052354 0.104938 0.452018
  9 3.793089 6.407220 0.000000 0.000000 0.000000 1.570796
 10 1.293670 0.684478 -0.000001 -0.069551 -0.005394 -0.077483
 11 5.309685 -0.003834 0.000000 -0.000012 -0.034875 0.106055
 12 4.826790 -0.004591 0.000000 -0.077782 0.010510 0.133424
 13 5.792767 -0.005304 0.000000 0.000000 0.000000 -0.202185
 14 6.662317 -0.001453 0.000000 0.000000 -0.000001 0.471000
 15 -3.112024 1.517254 4.341910 1.070890 -1.170704 1.634348
 16 4.827231 0.000000 0.000001 0.379435 0.987380 0.916856
 17 11.139763 0.000000 0.000000 0.000000 0.000000 -0.548787
 18 10.314597 0.000000 -0.000001 -1.570000 0.000000 -0.069778
 19 1.646738 0.449549 -1.702246 0.154002 0.442277 0.277235
 20 0.928312 0.000000 -0.000002 0.000000 0.000000 0.000000
 21 -2.869898 1.399663 -4.140396 -1.249720 0.959806 1.484696
 22 4.972047 0.000000 0.000001 -0.369691 -1.041147 1.073492
 23 11.585354 0.000000 0.000001 0.000000 0.000000 -1.290208
 24 10.127057 0.000000 0.000000 1.569752 0.000000 -0.069778
 25 1.533671 0.109715 1.664490 -0.233255 -0.412980 0.435684
 26 0.928313 0.000000 0.000000 0.000000 0.000000 0.000000
 27 2.046985 -0.000002 0.000000 0.169057 -0.007903 -0.134515
 28 1.038630 0.548043 -0.144017 -0.000001 0.000001 -1.762586
 29 -0.064003 -0.023521 0.026161 0.000000 0.000000 0.000000
time 35
  0 0.235347 159.228699 0.419457 0.000000 0.036191 -1.570922
  1 0.492203 -0.199225 0.000000 -1.570795 -1.570787 0.000000
  2 -0.000005 0.000007 3.713254 -0.136544 3.293738 -0.432682
  3 18.045725 0.000000 0.000000 0.000000 0.000000 -0.839415
  4 17.597599 0.000000 0.000000 0.146698 -0.080439 0.405413
  5 3.793089 6.407220 0.000000 0.000000 0.000000 1.570796
  6 0.000005 -0.000003 -3.713254 0.099455 -3.297783 -0.418028
  7 18.045723 0.000000 0.000000 0.000000 0.000000 -0.784987
  8 17.597597 0.000000 0.000000 0.083965 0.102886 0.385776
  9 3.793089 6.407220 0.000000 0.000000 0.000000 1.570796
 10 1.293670 0.684478 -0.000001 -0.069551 -0.005394 -0.077483
 11 5.309685 -0.003834 0.000000 -0.000012 -0.034875 0.094882
 12 4.826790 -0.004591 0.000000 -0.078028 0.008353 0.105842
 13 5.792767 -0.005304 0.000000 0.000000 0.000000 -0.227079
 14 6.662317 -0.001453 0.000000 0.000000 -0.000001 0.471000
 15 -3.112024 1.517254 4.341910 1.070890 -1.170704 1.634348
 16 4.827231 0.000000 0.000001 0.528566 0.927895 1.076739
 17 11.139763 0.000000 0.000000 0.000000 0.000000 -0.548787
 18 10.314597 0.000000 -0.000001 -1.570000 0.000000 -0.069778
 19 1.646738 0.449549 -1.702246 0.154002 0.442277 0.277235
 20 0.928312 0.000000 -0.000002 0.000000 0.000000 0.000000
 21 -2.869898 1.399663 -4.140396 -1.249720 0.959806 1.484696
 22 4.972047 0.000000 0.000001 -0.521848 -0.990871 1.231124
 23 11.585354 0.000000 0.000001 0.000000 0.000000 -1.290208
 24 10.127057 0.000000 0.000000 1.569752 0.000000 -0.069778
 25 1.533671 0.109715 1.664490 -0.233255 -0.412980 0.435684
 26 0.928313 0.000000 0.000000 0.000000 0.000000 0.000000
 27 2.046985 -0.000002 0.000000 0.169402 -0.003580 -0.101703
 28 1.038630 0.548043 -0.144017 -0.000001 0.000001 -1.771179
 29 -0.064003 -0.023521 0.026161 0.000000 0.000000 0.000000
time 36
  0 0.235347 163.784821 1.435113 0.000000 0.017429 -1.570922
  1 0.613300 -0.210944 0.000000 -1.570795 -1.570787 0.000000
  2 -0.000005 0.000007 3.713254 -0.150442 3.281595 -0.331568
  3 18.045725 0.000000 0.000000 0.000000 0.000000 -0.684018
  4 17.597599 0.000000 0.000000 0.148270 -0.079295 0.332254
  5 3.793089 6.407220 0.000000 0.000000 0.000000 1.570796
  6 0.000005 -0.000003 -3.713254 0.096011 -3.280170 -0.311125
  7 18.045723 0.000000 0.000000 0.000000 0.000000 -0.618002
  8 17.597597 0.000000 0.000000 0.102582 0.100184 0.309095
  9 3.793089 6.407220 0.000000 0.000000 0.000000 1.570796
 10 1.293670 0.684478 -0.000001 -0.069551 -0.005394 -0.077483
 11 5.309685 -0.003834 0.000000 -0.000012 -0.034875 0.087204
 12 4.826790 -0.004591 0.000000 -0.078176 0.006879 0.086946
 13 5.792767 -0.005304 0.000000 0.000000 0.000000 -0.244209
 14 6.662317 -0.001453 0.000000 0.000000 -0.000001 0.471000
 15 -3.112024 1.517254 4.341910 1.070890 -1.170704 1.634348
 16 4.827231 0.000000 0.000001 0.613969 0.879558 1.169851
 17 11.139763 0.000000 0.000000 0.000000 0.000000 -0.548787
 18 10.314597 0.000000 -0.000001 -1.570000 0.000000 -0.069778
 19 1.646738 0.449549 -1.702246 0.154002 0.442277 0.277235
 20 0.928312 0.000000 -0.000002 0.000000 0.000000 0.000000
 21 -2.869898 1.399663 -4.140396 -1.249720 0.959806 1.484696
 22 4.972047 0.000000 0.000001 -0.610342 -0.949444 1.323544
 23 11.585354 0.000000 0.000001 0.000000 0.000000 -1.290208
 24 10.127057 0.000000 0.000000 1.569752 0.000000 -0.069778
 25 1.533671 0.109715 1.664490 -0.233255 -0.412980 0.435684
 26 0.928313 0.000000 0.000000 0.000000 0.000000 0.000000
 27 2.046985 -0.000002 0.000000 0.169531 -0.000608 -0.079184
 28 1.038630 0.548043 -0.144017 -0.000001 0.000001 -1.780144
 29 -0.064003 -0.023521 0.026161 0.000000 0.000000 0.000000
end
