version 1
nodes
  0 "Bip01"  -1
  1 "Bip01 Pelvis"   0
  2 "Bip01 L Thigh"   1
  3 "Bip01 L Calf"   2
  4 "Bip01 L Foot"   3
  5 "Bip01 R Thigh"   1
  6 "Bip01 R Calf"   5
  7 "Bip01 R Foot"   6
  8 "Bip01 Spine"   1
  9 "Bip01 Spine1"   8
 10 "Bip01 Spine2"   9
 11 "Bip01 Spine3"  10
 12 "Bip01 Neck"  11
 13 "Bip01 Head"  12
 14 "Bip01 R Clavicle"  12
 15 "Bip01 R UpperArm"  14
 16 "Bip01 R Forearm"  15
 17 "Bip01 R Hand"  16
 18 "Bone05"  13
 19 "Bone06"  18
 20 "Bip01 L Clavicle"  12
 21 "Bip01 L UpperArm"  20
 22 "Bip01 L Forearm"  21
 23 "Bip01 L Hand"  22
 24 "Bip01 R Finger0"  17
 25 "MP5_model"  24
 26 "Shotgun"  17
end
skeleton
time 0
  0 0.058149 -0.058149 28.042778 0.000000 0.000000 -2.033483
  1 -0.526041 0.000001 9.745319 -1.570795 -1.570451 0.000000
  2 -0.000008 0.000010 5.615750 2.908517 5.952426 2.577577
  3 15.693467 0.000000 0.000000 0.000000 0.000000 -0.487181
  4 22.146629 -0.000001 0.000000 0.114975 -0.144029 -0.143086
  5 0.000008 -0.000006 -5.615750 -2.929512 0.242268 -3.087012
  6 15.693467 0.000000 0.000000 0.000000 0.000000 -0.481923
  7 22.146629 0.000000 0.000000 0.274883 0.248011 0.484955
  8 1.384163 -0.004728 0.000002 -0.372556 -0.003468 0.086554
  9 5.939814 -0.004730 0.000000 0.000000 -0.000000 0.000000
 10 5.939809 -0.003975 0.000000 0.000000 -0.000000 0.000000
 11 4.991439 -0.003975 0.000000 0.000000 -0.000000 0.000000
 12 4.991436 -0.001575 0.000000 0.000000 -0.000000 0.000000
 13 1.977383 0.000000 0.000000 0.835682 0.294312 0.196082
 14 0.000005 0.001585 -3.638375 -0.000010 1.284242 3.140787
 15 8.842831 0.000000 0.000001 0.953784 -0.539097 -2.198040
 16 9.341934 0.000000 -0.000001 0.000000 -0.000000 -0.994817
 17 11.164141 0.000000 -0.000002 1.806860 0.075060 0.649532
 18 3.723787 2.768019 -0.397315 -3.141505 -0.000098 1.570883
 19 2.863741 -0.721067 0.000003 0.000000 -0.000000 -0.000001
 20 -0.000093 0.001563 3.638375 -0.000004 -1.284184 3.140819
 21 8.842828 -0.000005 0.000001 -0.415029 -0.110695 -0.914648
 22 9.341935 -0.000122 -0.000005 -0.000004 -0.000003 -0.853015
 23 11.160255 -0.000102 -0.000016 -4.515761 0.471470 -0.520807
 24 6.829862 -0.000027 0.000010 0.001239 0.000002 0.000002
 25 7.919295 -0.636940 0.610559 -1.520271 -0.091529 1.564913
 26 2.515643 0.482260 0.379709 1.593356 0.004970 0.082571
time 1
  0 0.396782 -0.396782 27.683758 0.015628 -0.072434 -1.997626
  1 -0.526041 0.000001 9.745319 -1.570795 -1.565670 0.000000
  2 -0.000008 0.000010 5.615750 2.923665 5.973709 2.567798
  3 15.693467 0.000000 0.000000 0.000000 0.000000 -0.681030
  4 22.146629 -0.000001 0.000000 0.087680 -0.117166 -0.022491
  5 0.000008 -0.000006 -5.615750 -2.967479 0.236515 3.032058
  6 15.693467 0.000000 0.000000 0.000000 0.000000 -0.724418
  7 22.146629 0.000000 0.000000 0.225412 0.215471 0.536104
  8 1.384163 -0.004728 0.000002 -0.391633 -0.012069 0.148233
  9 5.939814 -0.004730 0.000000 0.000000 -0.000000 0.011335
 10 5.939809 -0.003975 0.000000 0.000000 -0.000000 0.004709
 11 4.991439 -0.003975 0.000000 0.000000 -0.000000 0.013441
 12 4.991436 -0.001575 0.000000 0.000000 -0.000000 -0.001527
 13 1.977383 0.000000 0.000000 0.821261 0.248745 0.155401
 14 0.000005 0.001585 -3.638375 -0.000010 1.284064 3.142321
 15 8.842831 0.000000 0.000001 0.811449 -0.630004 -2.167335
 16 9.341934 0.000000 -0.000001 0.000000 -0.000000 -1.086150
 17 11.164141 0.000000 -0.000002 1.802334 0.086494 0.635690
 18 3.723787 2.768019 -0.397315 -3.141505 -0.000098 1.570883
 19 2.863741 -0.721067 0.000003 0.000000 -0.000000 -0.000001
 20 -0.000093 0.001563 3.638375 -0.000004 -1.284070 3.142257
 21 8.842828 -0.000005 0.000001 -0.422966 0.175026 -0.418173
 22 9.341935 -0.000122 -0.000005 -0.000004 -0.000003 -1.415281
 23 11.160255 -0.000102 -0.000016 -4.170270 0.585965 -0.428029
 24 6.829862 -0.000027 0.000010 0.001239 0.000002 0.000002
 25 7.919295 -0.636940 0.610559 -1.520271 -0.091529 1.564913
 26 2.515643 0.482260 0.379709 1.593356 0.004970 0.082571
time 2
  0 0.720692 -0.720692 27.504248 0.026558 -0.158242 -1.903094
  1 -0.526041 0.000001 9.745319 -1.570795 -1.560213 0.000000
  2 -0.000008 0.000010 5.615750 2.963742 6.032574 2.599340
  3 15.693467 0.000000 0.000000 0.000000 0.000000 -0.816191
  4 22.146629 -0.000001 0.000000 0.039036 -0.087640 0.077711
  5 0.000008 -0.000006 -5.615750 -3.028361 0.192319 2.834477
  6 15.693467 0.000000 0.000000 0.000000 0.000000 -0.968637
  7 22.146629 0.000000 0.000000 0.151685 0.152969 0.555022
  8 1.384163 -0.004728 -0.007811 -0.399588 -0.020670 0.212406
  9 5.939814 -0.004730 0.000000 0.000000 -0.000000 0.023181
 10 5.939809 -0.003975 0.000000 0.000000 -0.000000 0.009418
 11 4.991439 -0.003975 0.000000 0.000000 -0.000000 0.026881
 12 4.991436 -0.001575 0.000000 0.000000 -0.000000 -0.003351
 13 1.977383 0.000000 0.000000 0.714893 0.168636 0.071899
 14 0.000005 0.001585 -3.638375 -0.000010 1.283886 3.144047
 15 8.842831 0.000000 0.000001 0.547917 -0.718446 -1.846989
 16 9.341934 0.000000 -0.000001 0.000000 -0.000000 -1.265485
 17 11.164141 0.000000 -0.000002 1.819965 0.072613 0.462233
 18 3.723787 2.768019 -0.397315 -3.141505 -0.000098 1.570883
 19 2.863741 -0.721067 0.000003 0.000000 -0.000000 -0.000001
 20 -0.000093 0.001563 3.638375 -0.000004 -1.283842 3.144079
 21 8.842828 -0.000005 0.000001 -0.378482 0.347023 -0.274336
 22 9.341935 -0.000122 -0.000005 -0.000004 -0.000003 -1.686635
 23 11.160255 -0.000102 -0.000016 -3.382314 0.576490 -0.123838
 24 6.829862 -0.000027 0.000010 0.001239 0.000002 0.000002
 25 7.919295 -0.636940 0.610559 -1.520271 -0.091529 1.564913
 26 2.515643 0.482260 0.379709 1.593356 0.004970 0.082571
time 3
  0 1.096133 -1.096133 27.436932 0.025887 -0.246222 -1.779513
  1 -0.526041 0.000001 9.745319 -3.141477 -1.554539 1.570684
  2 -0.000008 0.000010 5.615750 3.020117 6.099204 2.655137
  3 15.693467 0.000000 0.000000 0.000000 0.000000 -0.916850
  4 22.146629 -0.000001 0.000000 -0.014507 -0.063045 0.165102
  5 0.000008 -0.000006 -5.615750 -3.086750 0.121279 2.624050
  6 15.693467 0.000000 0.000000 0.000000 0.000000 -1.206709
  7 22.146629 0.000000 0.000000 0.081117 0.086108 0.556583
  8 1.384163 -0.004728 -0.019530 -0.398306 -0.030197 0.277798
  9 5.939814 -0.004730 0.000000 0.000000 -0.000000 0.035347
 10 5.939809 -0.003975 0.000000 0.000000 -0.000000 0.014127
 11 4.991439 -0.003975 0.000000 0.000000 -0.000000 0.040433
 12 4.991436 -0.001575 0.000000 0.000000 -0.000000 -0.005302
 13 1.977383 0.000000 0.000000 0.576209 0.084554 -0.008416
 14 0.000005 0.001585 -3.638375 -0.000010 1.283708 3.146060
 15 8.842831 0.000000 0.000001 0.303899 -0.707357 -1.511816
 16 9.341934 0.000000 -0.000001 0.000000 -0.000000 -1.373339
 17 11.164141 0.000000 -0.000002 1.841227 0.060756 0.283144
 18 3.723787 2.768019 -0.397315 -3.141505 -0.000098 1.570883
 19 2.863741 -0.721067 0.000003 0.000000 -0.000000 -0.000001
 20 -0.000093 0.001563 3.638375 -0.000004 -1.283729 3.145996
 21 8.842828 -0.000005 0.000001 -0.307049 0.512738 -0.167891
 22 9.341935 -0.000122 -0.000005 -0.000004 -0.000003 -1.936062
 23 11.160255 -0.000102 -0.000016 -2.586699 0.357822 0.086574
 24 6.829862 -0.000027 0.000010 0.001239 0.000002 0.000002
 25 7.919295 -0.636940 0.610559 -1.520271 -0.091529 1.564913
 26 2.515643 0.482260 0.379709 1.593356 0.004970 0.082571
time 4
  0 1.508382 -1.508382 27.504248 0.014190 -0.324041 -1.657657
  1 -0.526041 0.000001 9.745319 -3.141525 -1.548744 1.570828
  2 -0.000008 0.000010 5.615750 3.078314 6.151645 2.721575
  3 15.693467 0.000000 0.000000 0.000000 0.000000 -0.992042
  4 22.146629 -0.000001 0.000000 -0.057656 -0.046043 0.241250
  5 0.000008 -0.000006 -5.615750 -3.126155 0.044390 2.415252
  6 15.693467 0.000000 0.000000 0.000000 0.000000 -1.430538
  7 22.146629 0.000000 0.000000 0.027133 0.035671 0.555573
  8 1.384163 -0.004728 -0.027343 -0.389747 -0.041233 0.343084
  9 5.939814 -0.004730 0.000000 0.000000 -0.000000 0.047747
 10 5.939809 -0.003975 0.000000 0.000000 -0.000000 0.018964
 11 4.991439 -0.003975 0.000000 0.000000 -0.000000 0.054228
 12 4.991436 -0.001575 0.000000 0.000000 -0.000000 -0.007168
 13 1.977383 0.000000 0.000000 0.459841 0.031984 -0.059105
 14 0.000005 0.001585 -3.638375 -0.000010 1.283530 3.147881
 15 8.842831 0.000000 0.000001 0.119283 -0.640203 -1.205531
 16 9.341934 0.000000 -0.000001 0.000000 -0.000000 -1.465538
 17 11.164141 0.000000 -0.000002 1.864226 0.052804 0.107301
 18 3.723787 2.768019 -0.397315 -3.141505 -0.000098 1.570883
 19 2.863741 -0.721067 0.000003 0.000000 -0.000000 -0.000001
 20 -0.000093 0.001563 3.638375 -0.000004 -1.283577 3.147914
 21 8.842828 -0.000005 0.000001 -0.246691 0.634292 -0.112663
 22 9.341935 -0.000122 -0.000005 -0.000004 -0.000003 -2.118891
 23 11.160255 -0.000102 -0.000016 -1.963207 0.096401 0.083569
 24 6.829862 -0.000027 0.000010 0.001239 0.000002 0.000002
 25 7.919295 -0.636940 0.610559 -1.520271 -0.091529 1.564913
 26 2.515643 0.482260 0.379709 1.593356 0.004970 0.082571
time 5
  0 2.031055 -2.031055 27.571564 0.000000 -0.381276 -1.570987
  1 -0.526041 0.000001 9.745319 -3.141525 -1.542900 1.570828
  2 -0.000008 0.000010 5.615750 3.114076 6.178873 2.783604
  3 15.693467 0.000000 0.000000 0.000000 0.000000 -1.043830
  4 22.146629 -0.000001 0.000000 -0.075192 -0.032642 0.302757
  5 0.000008 -0.000006 -5.615750 -3.141303 6.270813 2.217959
  6 15.693467 0.000000 0.000000 0.000000 0.000000 -1.632630
  7 22.146629 0.000000 0.000000 -0.004795 0.011266 0.570174
  8 1.384163 -0.004728 -0.031249 -0.375941 -0.054174 0.407098
  9 5.939814 -0.004730 0.000000 0.000000 -0.000000 0.060339
 10 5.939809 -0.003975 0.000000 0.000000 -0.000000 0.023886
 11 4.991439 -0.003975 0.000000 0.000000 -0.000000 0.068377
 12 4.991436 -0.001575 0.000000 0.000000 -0.000000 -0.008991
 13 1.977383 0.000000 0.000000 0.408578 0.064489 -0.060151
 14 0.000005 0.001585 -3.638375 -0.000010 1.283530 3.149799
 15 8.842831 0.000000 0.000001 0.075951 -0.559633 -1.048180
 16 9.341934 0.000000 -0.000001 0.000000 -0.000000 -1.521297
 17 11.164141 0.000000 -0.000002 1.882909 0.049981 0.000000
 18 3.723787 2.768019 -0.397315 -3.141505 -0.000098 1.570883
 19 2.863741 -0.721067 0.000003 0.000000 -0.000000 -0.000001
 20 -0.000093 0.001563 3.638375 -0.000004 -1.283501 3.149640
 21 8.842828 -0.000005 0.000001 -0.253428 0.680820 -0.141136
 22 9.341935 -0.000122 -0.000005 -0.000004 -0.000003 -2.190377
 23 11.160255 -0.000102 -0.000016 -1.568798 -0.049904 -0.000013
 24 6.829862 -0.000027 0.000010 0.001239 0.000002 0.000002
 25 7.919295 -0.636940 0.610559 -1.520271 -0.091529 1.564913
 26 2.515643 0.482260 0.379709 1.593356 0.004970 0.082571
time 6
  0 2.737767 -2.737768 27.594002 -0.007383 -0.404031 -1.535514
  1 -0.526041 0.000001 9.745319 -3.141525 -1.537105 1.570828
  2 -0.000008 0.000010 5.615750 3.123376 6.195746 2.819843
  3 15.693467 0.000000 0.000000 0.000000 0.000000 -1.073921
  4 22.146629 -0.000001 0.000000 -0.088428 -0.015368 0.347596
  5 0.000008 -0.000006 -5.615750 -3.138906 6.249338 2.018269
  6 15.693467 0.000000 0.000000 0.000000 0.000000 -1.831273
  7 22.146629 0.000000 0.000000 -0.015118 0.007675 0.619487
  8 1.384163 -0.004728 -0.039062 -0.358967 -0.069232 0.468671
  9 5.939814 -0.004730 0.000000 0.000000 -0.000000 0.073016
 10 5.939809 -0.003975 0.000000 0.000000 -0.000000 0.028957
 11 4.991439 -0.003975 0.000000 0.000000 -0.000000 0.082973
 12 4.991436 -0.001575 0.000000 0.000000 -0.000000 -0.010858
 13 1.977383 0.000000 0.000000 0.390999 0.120685 -0.062640
 14 0.000005 0.001585 -3.638375 -0.000010 1.283530 3.151524
 15 8.842831 0.000000 0.000001 0.131049 -0.489399 -1.022927
 16 9.341934 0.000000 -0.000001 0.000000 -0.000000 -1.538751
 17 11.164141 0.000000 -0.000002 1.904803 0.050451 -0.041336
 18 3.723787 2.768019 -0.397315 -3.141505 -0.000098 1.570883
 19 2.863741 -0.721067 0.000003 0.000000 -0.000000 -0.000001
 20 -0.000093 0.001563 3.638375 -0.000004 -1.283501 3.151557
 21 8.842828 -0.000005 0.000001 -0.335936 0.647131 -0.253309
 22 9.341935 -0.000122 -0.000005 -0.000004 -0.000003 -2.145855
 23 11.160255 -0.000102 -0.000016 -1.403185 -0.097450 -0.048177
 24 6.829862 -0.000027 0.000010 0.001239 0.000002 0.000002
 25 7.919295 -0.636940 0.610559 -1.520271 -0.091529 1.564913
 26 2.515643 0.482260 0.379709 1.593356 0.004970 0.082571
time 7
  0 3.584351 -3.584351 27.526686 -0.008150 -0.400209 -1.532159
  1 -0.526041 0.000001 9.745319 -3.141525 -1.531479 1.570828
  2 -0.000008 0.000010 5.615750 3.122226 6.218946 2.832210
  3 15.693467 0.000000 0.000000 0.000000 0.000000 -1.087722
  4 22.146629 -0.000001 0.000000 -0.118116 0.007896 0.378382
  5 0.000008 -0.000006 -5.615750 -3.130373 6.252597 1.811484
  6 15.693467 0.000000 0.000000 0.000000 0.000000 -2.019272
  7 22.146629 0.000000 0.000000 -0.013313 0.012218 0.688452
  8 1.384163 -0.004728 -0.050781 -0.340833 -0.086037 0.526745
  9 5.939814 -0.004730 0.000000 0.000000 -0.000000 0.085629
 10 5.939809 -0.003975 0.000000 0.000000 -0.000000 0.034369
 11 4.991439 -0.003975 0.000000 0.000000 -0.000000 0.098148
 12 4.991436 -0.001575 0.000000 0.000000 -0.000000 -0.012681
 13 1.977383 0.000000 0.000000 0.368052 0.130518 -0.092317
 14 0.000005 0.001585 -3.638375 -0.000010 1.283530 3.153442
 15 8.842831 0.000000 0.000001 0.209678 -0.419507 -1.039571
 16 9.341934 0.000000 -0.000001 0.000000 -0.000000 -1.536819
 17 11.164141 0.000000 -0.000002 1.935591 0.052851 -0.063674
 18 3.723787 2.768019 -0.397315 -3.141505 -0.000098 1.570883
 19 2.863741 -0.721067 0.000003 0.000000 -0.000000 -0.000001
 20 -0.000093 0.001563 3.638375 -0.000004 -1.283501 3.153379
 21 8.842828 -0.000005 0.000001 -0.439486 0.554804 -0.399028
 22 9.341935 -0.000122 -0.000005 -0.000004 -0.000003 -2.029624
 23 11.160255 -0.000102 -0.000016 -1.356372 -0.109295 -0.063109
 24 6.829862 -0.000027 0.000010 0.001239 0.000002 0.000002
 25 7.919295 -0.636940 0.610559 -1.520271 -0.091529 1.564913
 26 2.515643 0.482260 0.379709 1.593356 0.004970 0.082571
time 8
  0 4.467741 -4.467741 27.504248 -0.006232 -0.391958 -1.543184
  1 -0.526041 0.000001 9.745319 -3.141525 -1.526022 1.570828
  2 -0.000008 0.000010 5.615750 3.114076 6.242723 2.840455
  3 15.693467 0.000000 0.000000 0.000000 0.000000 -1.089571
  4 22.146629 -0.000001 0.000000 -0.148365 0.033701 0.397272
  5 0.000008 -0.000006 -5.615750 -3.123279 6.267649 1.621668
  6 15.693467 0.000000 0.000000 0.000000 0.000000 -2.149926
  7 22.146629 0.000000 0.000000 -0.006600 0.017314 0.745295
  8 1.384163 -0.004728 -0.058594 -0.323496 -0.104086 0.580363
  9 5.939814 -0.004730 0.000000 0.000000 -0.000000 0.098072
 10 5.939809 -0.003975 0.000000 0.000000 -0.000000 0.039973
 11 4.991439 -0.003975 0.000000 0.000000 -0.000000 0.114030
 12 4.991436 -0.001575 0.000000 0.000000 -0.000000 -0.014463
 13 1.977383 0.000000 0.000000 0.348578 0.126545 -0.122292
 14 0.000005 0.001585 -3.638375 -0.000010 1.283530 3.155167
 15 8.842831 0.000000 0.000001 0.298925 -0.350026 -1.075919
 16 9.341934 0.000000 -0.000001 0.000000 -0.000000 -1.525694
 17 11.164141 0.000000 -0.000002 1.965011 0.055486 -0.068829
 18 3.723787 2.768019 -0.397315 -3.141505 -0.000098 1.570883
 19 2.863741 -0.721067 0.000003 0.000000 -0.000000 -0.000001
 20 -0.000093 0.001563 3.638375 -0.000004 -1.283501 3.155200
 21 8.842828 -0.000005 0.000001 -0.531777 0.417771 -0.541474
 22 9.341935 -0.000122 -0.000005 -0.000004 -0.000003 -1.870427
 23 11.160255 -0.000102 -0.000016 -1.389878 -0.100835 -0.052366
 24 6.829862 -0.000027 0.000010 0.001239 0.000002 0.000002
 25 7.919295 -0.636940 0.610559 -1.520271 -0.091529 1.564913
 26 2.515643 0.482260 0.379709 1.593356 0.004970 0.082571
time 9
  0 5.240708 -5.240708 27.571564 -0.004890 -0.401599 -1.550758
  1 -0.526041 0.000001 9.745319 -3.141525 -1.520855 1.570828
  2 -0.000008 0.000010 5.615750 3.103434 6.259979 2.866436
  3 15.693467 0.000000 0.000000 0.000000 0.000000 -1.084663
  4 22.146629 -0.000001 0.000000 -0.163882 0.056511 0.409299
  5 0.000008 -0.000006 -5.615750 -3.118581 6.278962 1.472021
  6 15.693467 0.000000 0.000000 0.000000 0.000000 -2.177212
  7 22.146629 0.000000 0.000000 -0.001467 0.020169 0.757968
  8 1.384163 -0.004728 -0.062500 -0.308892 -0.122717 0.628625
  9 5.939814 -0.004730 0.000000 0.000000 -0.000000 0.110259
 10 5.939809 -0.003975 0.000000 0.000000 -0.000000 0.045982
 11 4.991439 -0.003975 0.000000 0.000000 -0.000000 0.130714
 12 4.991436 -0.001575 0.000000 0.000000 -0.000000 -0.016159
 13 1.977383 0.000000 0.000000 0.329052 0.128805 -0.163819
 14 0.000005 0.001585 -3.638375 -0.000010 1.283530 3.156797
 15 8.842831 0.000000 0.000001 0.392285 -0.285885 -1.113990
 16 9.341934 0.000000 -0.000001 0.000000 -0.000000 -1.515901
 17 11.164141 0.000000 -0.000002 1.983010 0.056474 -0.058710
 18 3.723787 2.768019 -0.397315 -3.141505 -0.000098 1.570883
 19 2.863741 -0.721067 0.000003 0.000000 -0.000000 -0.000001
 20 -0.000093 0.001563 3.638375 -0.000004 -1.283501 3.156830
 21 8.842828 -0.000005 0.000001 -0.599518 0.257883 -0.663056
 22 9.341935 -0.000122 -0.000005 -0.000004 -0.000003 -1.697302
 23 11.160255 -0.000102 -0.000016 -1.463208 -0.081320 -0.029877
 24 6.829862 -0.000027 0.000010 0.001239 0.000002 0.000002
 25 7.919295 -0.636940 0.610559 -1.520271 -0.091529 1.564913
 26 2.515643 0.482260 0.379709 1.593356 0.004970 0.082571
time 10
  0 5.756020 -5.756021 28.087654 -0.003260 -0.464045 -1.558812
  1 -0.526041 0.000001 9.745319 -3.141525 -1.520855 1.570828
  2 -0.000008 0.000010 5.615750 3.088477 6.272442 2.960389
  3 15.693467 0.000000 0.000000 0.000000 0.000000 -1.053220
  4 22.146629 -0.000001 0.000000 -0.169490 0.071122 0.410083
  5 0.000008 -0.000006 -5.615750 -3.119252 6.279729 1.463201
  6 15.693467 0.000000 0.000000 0.000000 0.000000 -1.885019
  7 22.146629 0.000000 0.000000 0.002313 0.020905 0.663474
  8 1.384163 -0.004728 -0.062500 -0.301856 -0.144497 0.671265
  9 5.939814 -0.004730 0.000000 0.000000 -0.000000 0.122169
 10 5.939809 -0.003975 0.000000 0.000000 -0.000000 0.052310
 11 4.991439 -0.003975 0.000000 0.000000 -0.000000 0.148331
 12 4.991436 -0.001575 0.000000 0.000000 -0.000000 -0.017431
 13 1.977383 0.000000 0.000000 0.306052 0.156890 -0.229346
 14 0.000005 0.001585 -3.638375 -0.000010 1.283530 3.158139
 15 8.842831 0.000000 0.000001 0.487845 -0.237077 -1.140773
 16 9.341934 0.000000 -0.000001 0.000000 -0.000000 -1.517966
 17 11.164141 0.000000 -0.000002 1.979431 0.054592 -0.035226
 18 3.723787 2.768019 -0.397315 -3.141505 -0.000098 1.570883
 19 2.863741 -0.721067 0.000003 0.000000 -0.000000 -0.000001
 20 -0.000093 0.001563 3.638375 -0.000004 -1.283501 3.158173
 21 8.842828 -0.000005 0.000001 -0.642987 0.101365 -0.758620
 22 9.341935 -0.000122 -0.000005 -0.000004 -0.000003 -1.538920
 23 11.160255 -0.000102 -0.000016 -1.535963 -0.060056 -0.008845
 24 6.829862 -0.000027 0.000010 0.001239 0.000002 0.000002
 25 7.919295 -0.636940 0.610559 -1.520271 -0.091529 1.564913
 26 2.515643 0.482260 0.379709 1.593356 0.004970 0.082571
time 11
  0 5.866444 -5.866444 28.962767 0.000000 -0.535870 -1.570987
  1 -0.526041 0.000001 9.745319 -3.141525 -1.520855 1.570828
  2 -0.000008 0.000010 5.615750 3.074383 6.275319 -3.176592
  3 15.693467 0.000000 0.000000 0.000000 0.000000 -0.991544
  4 22.146629 -0.000001 0.000000 -0.168817 0.072605 0.423156
  5 0.000008 -0.000006 -5.615750 -3.119635 6.279345 1.486976
  6 15.693467 0.000000 0.000000 0.000000 0.000000 -1.391184
  7 22.146629 0.000000 0.000000 0.007672 0.020015 0.452355
  8 1.384163 -0.004728 -0.062500 -0.263048 -0.166727 0.519691
  9 5.939814 -0.004730 0.000000 0.000000 -0.000000 0.128220
 10 5.939809 -0.003975 0.000000 0.000000 -0.000000 0.072403
 11 4.991439 -0.003975 0.000000 0.000000 -0.000000 0.199315
 12 4.991436 -0.001575 0.000000 0.000000 -0.000000 -0.018195
 13 1.977383 0.000000 0.000000 0.254631 0.179736 -0.199470
 14 0.000005 0.001585 -3.638375 -0.000010 1.283530 3.159002
 15 8.842831 0.000000 0.000001 0.488132 -0.310665 -1.057841
 16 9.341934 0.000000 -0.000001 0.000000 -0.000000 -1.542015
 17 11.164141 0.000000 -0.000002 1.943959 0.049981 0.000000
 18 3.723787 2.768019 -0.397315 -3.141505 -0.000098 1.570883
 19 2.863741 -0.721067 0.000003 0.000000 -0.000000 -0.000001
 20 -0.000093 0.001563 3.638375 -0.000004 -1.283501 3.158940
 21 8.842828 -0.000005 0.000001 -0.604871 0.105007 -0.807793
 22 9.341935 -0.000122 -0.000005 -0.000004 -0.000003 -1.424170
 23 11.160255 -0.000102 -0.000016 -1.568798 -0.049904 -0.000013
 24 6.829862 -0.000027 0.000010 0.001239 0.000002 0.000002
 25 7.919295 -0.636940 0.610559 -1.520271 -0.091529 1.564913
 26 2.515643 0.482260 0.379709 1.593356 0.004970 0.082571
time 12
  0 5.660319 -5.660320 29.568611 0.000000 -0.535870 -1.570987
  1 -0.526041 0.000001 9.745319 -3.141525 -1.520855 1.570828
  2 -0.000008 0.000010 5.615750 3.067480 6.268033 -3.058287
  3 15.693467 0.000000 0.000000 0.000000 0.000000 -0.906393
  4 22.146629 -0.000001 0.000000 -0.153599 0.061714 0.456295
  5 0.000008 -0.000006 -5.615750 -3.119635 0.000481 1.301186
  6 15.693467 0.000000 0.000000 0.000000 0.000000 -0.847427
  7 22.146629 0.000000 0.000000 0.013031 0.017437 -0.002024
  8 1.384163 -0.004728 -0.062500 -0.197765 -0.170194 0.222536
  9 5.939814 -0.004730 0.000000 0.000000 -0.000000 0.128156
 10 5.939809 -0.003975 0.000000 0.000000 -0.000000 0.068035
 11 4.991439 -0.003975 0.000000 0.000000 -0.000000 0.188429
 12 4.991436 -0.001575 0.000000 0.000000 -0.000000 -0.018619
 13 1.977383 0.000000 0.000000 0.172526 0.191109 0.016480
 14 0.000005 0.001585 -3.638375 -0.000010 1.283530 3.159290
 15 8.842831 0.000000 0.000001 0.327717 -0.598857 -0.716355
 16 9.341934 0.000000 -0.000001 0.000000 -0.000000 -1.642941
 17 11.164141 0.000000 -0.000002 1.783914 0.043205 0.102146
 18 3.723787 2.768019 -0.397315 -3.141505 -0.000098 1.570883
 19 2.863741 -0.721067 0.000003 0.000000 -0.000000 -0.000001
 20 -0.000093 0.001563 3.638375 -0.000004 -1.283501 3.159323
 21 8.842828 -0.000005 0.000001 -0.427119 0.346841 -0.748147
 22 9.341935 -0.000122 -0.000005 -0.000004 -0.000003 -1.398242
 23 11.160255 -0.000102 -0.000016 -1.537303 -0.059041 -0.007570
 24 6.829862 -0.000027 0.000010 0.001239 0.000002 0.000002
 25 7.919295 -0.636940 0.610559 -1.520271 -0.091529 1.564913
 26 2.515643 0.482260 0.379709 1.593356 0.004970 0.082571
time 13
  0 5.314324 -5.314324 29.568611 -0.030776 -0.428523 -1.485564
  1 -0.526041 0.000001 9.745319 -3.141525 -1.520855 1.570828
  2 -0.000008 0.000010 5.615750 3.085313 6.220576 -3.042468
  3 15.693467 0.000000 0.000000 0.000000 0.000000 -0.824087
  4 22.146629 -0.000001 0.000000 -0.074556 0.032642 0.495382
  5 0.000008 -0.000006 -5.615750 -3.121553 6.267265 1.618121
  6 15.693467 0.000000 0.000000 0.000000 0.000000 -0.215742
  7 22.146629 0.000000 0.000000 0.020251 0.004206 -0.039583
  8 1.384163 -0.004728 -0.062500 -0.133352 -0.151060 -0.090902
  9 5.939814 -0.004730 0.000000 0.000000 -0.000000 0.126686
 10 5.939809 -0.003975 0.000000 0.000000 -0.000000 0.059235
 11 4.991439 -0.003975 0.000000 0.000000 -0.000000 0.166208
 12 4.991436 -0.001575 0.000000 0.000000 -0.000000 -0.018831
 13 1.977383 0.000000 0.000000 0.084421 0.196845 0.249758
 14 0.000005 0.001585 -3.638375 -0.000010 1.283530 3.159578
 15 8.842831 0.000000 0.000001 -0.040080 -0.795183 -0.098046
 16 9.341934 0.000000 -0.000001 0.000000 -0.000000 -1.791099
 17 11.164141 0.000000 -0.000002 1.538030 0.065132 0.257369
 18 3.723787 2.768019 -0.397315 -3.141505 -0.000098 1.570883
 19 2.863741 -0.721067 0.000003 0.000000 -0.000000 -0.000001
 20 -0.000093 0.001563 3.638375 -0.000004 -1.283501 3.159515
 21 8.842828 -0.000005 0.000001 -0.171843 0.614989 -0.577065
 22 9.341935 -0.000122 -0.000005 -0.000004 -0.000003 -1.431578
 23 11.160255 -0.000102 -0.000016 -1.505616 -0.067953 -0.015491
 24 6.829862 -0.000027 0.000010 0.001239 0.000002 0.000002
 25 7.919295 -0.636940 0.610559 -1.520271 -0.091529 1.564913
 26 2.515643 0.482260 0.379709 1.593356 0.004970 0.082571
time 14
  0 5.027222 -5.027222 29.501295 -0.043145 -0.338198 -1.441366
  1 -0.526041 0.000001 9.745319 -3.141525 -1.520855 1.570828
  2 -0.000008 0.000010 5.615750 3.089053 6.188460 -3.053781
  3 15.693467 0.000000 0.000000 0.000000 0.000000 -0.759637
  4 22.146629 -0.000001 0.000000 -0.027669 0.009287 0.508651
  5 0.000008 -0.000006 -5.615750 2.981575 0.097407 1.498576
  6 15.693467 0.000000 0.000000 0.000000 0.000000 -0.303369
  7 22.146629 0.000000 0.000000 0.211761 0.172585 -0.052164
  8 1.384163 -0.004728 -0.062500 -0.111300 -0.128777 -0.247090
  9 5.939814 -0.004730 0.000000 0.000000 -0.000000 0.122169
 10 5.939809 -0.003975 0.000000 0.000000 -0.000000 0.052310
 11 4.991439 -0.003975 0.000000 0.000000 -0.000000 0.148331
 12 4.991436 -0.001575 0.000000 0.000000 -0.000000 -0.018916
 13 1.977383 0.000000 0.000000 0.050000 0.194188 0.355069
 14 0.000005 0.001585 -3.638375 -0.000010 1.283530 3.159578
 15 8.842831 0.000000 0.000001 -0.278263 -0.801002 0.281511
 16 9.341934 0.000000 -0.000001 0.000000 -0.000000 -1.869708
 17 11.164141 0.000000 -0.000002 1.392721 0.099905 0.360183
 18 3.723787 2.768019 -0.397315 -3.141505 -0.000098 1.570883
 19 2.863741 -0.721067 0.000003 0.000000 -0.000000 -0.000001
 20 -0.000093 0.001563 3.638375 -0.000004 -1.283501 3.159515
 21 8.842828 -0.000005 0.000001 -0.010981 0.723979 -0.454255
 22 9.341935 -0.000122 -0.000005 -0.000004 -0.000003 -1.441209
 23 11.160255 -0.000102 -0.000016 -1.568798 -0.049904 -0.000013
 24 6.829862 -0.000027 0.000010 0.001239 0.000002 0.000002
 25 7.919295 -0.636940 0.610559 -1.520271 -0.091529 1.564913
 26 2.515643 0.482260 0.379709 1.593356 0.004970 0.082571
time 15
  0 4.828459 -4.828459 29.456419 -0.036337 -0.310492 -1.470704
  1 -0.526041 0.000001 9.745319 -3.141525 -1.520855 1.570828
  2 -0.000008 0.000010 5.615750 3.067289 6.186926 -3.061451
  3 15.693467 0.000000 0.000000 0.000000 0.000000 -0.738509
  4 22.146629 -0.000001 0.000000 -0.037689 0.005748 0.507278
  5 0.000008 -0.000006 -5.615750 3.014748 0.076028 1.461284
  6 15.693467 0.000000 0.000000 0.000000 0.000000 -0.365811
  7 22.146629 0.000000 0.000000 0.158567 0.154473 -0.106527
  8 1.384163 -0.004728 -0.062500 -0.120851 -0.117477 -0.263053
  9 5.939814 -0.004730 0.000000 0.000000 -0.000000 0.115287
 10 5.939809 -0.003975 0.000000 0.000000 -0.000000 0.048560
 11 4.991439 -0.003975 0.000000 0.000000 -0.000000 0.137985
 12 4.991436 -0.001575 0.000000 0.000000 -0.000000 -0.019001
 13 1.977383 0.000000 0.000000 0.079421 0.181052 0.351385
 14 0.000005 0.001585 -3.638375 -0.000010 1.283530 3.159673
 15 8.842831 0.000000 0.000001 -0.316143 -0.817773 0.318816
 16 9.341934 0.000000 -0.000001 0.000000 -0.000000 -1.868176
 17 11.164141 0.000000 -0.000002 1.368827 0.114115 0.401614
 18 3.723787 2.768019 -0.397315 -3.141505 -0.000098 1.570883
 19 2.863741 -0.721067 0.000003 0.000000 -0.000000 -0.000001
 20 -0.000093 0.001563 3.638375 -0.000004 -1.283539 3.159707
 21 8.842828 -0.000005 0.000001 -0.019010 0.715784 -0.474955
 22 9.341935 -0.000122 -0.000005 -0.000004 -0.000003 -1.410243
 23 11.160255 -0.000102 -0.000016 -1.712872 -0.004896 0.031399
 24 6.829862 -0.000027 0.000010 0.001239 0.000002 0.000002
 25 7.919295 -0.636940 0.610559 -1.520271 -0.091529 1.564913
 26 2.515643 0.482260 0.379709 1.593356 0.004970 0.082571
time 16
  0 4.629696 -4.629696 29.321785 -0.030105 -0.284611 -1.502054
  1 -0.526041 0.000001 9.745319 -3.141525 -1.520855 1.570828
  2 -0.000008 0.000010 5.615750 3.036416 6.180694 -3.093663
  3 15.693467 0.000000 0.000000 0.000000 0.000000 -0.745338
  4 22.146629 -0.000001 0.000000 -0.041242 0.002178 0.507082
  5 0.000008 -0.000006 -5.615750 3.089724 0.033461 1.436646
  6 15.693467 0.000000 0.000000 0.000000 0.000000 -0.430726
  7 22.146629 0.000000 0.000000 0.074630 0.088135 -0.162452
  8 1.384163 -0.004728 -0.062500 -0.132675 -0.107129 -0.269312
  9 5.939814 -0.004730 0.000000 0.000000 -0.000000 0.108256
 10 5.939809 -0.003975 0.000000 0.000000 -0.000000 0.044959
 11 4.991439 -0.003975 0.000000 0.000000 -0.000000 0.127918
 12 4.991436 -0.001575 0.000000 0.000000 -0.000000 -0.018958
 13 1.977383 0.000000 0.000000 0.131263 0.160094 0.348397
 14 0.000005 0.001585 -3.638375 -0.000010 1.283530 3.159673
 15 8.842831 0.000000 0.000001 -0.347805 -0.838309 0.325225
 16 9.341934 0.000000 -0.000001 0.000000 -0.000000 -1.854053
 17 11.164141 0.000000 -0.000002 1.365722 0.123667 0.433499
 18 3.723787 2.768019 -0.397315 -3.141505 -0.000098 1.570883
 19 2.863741 -0.721067 0.000003 0.000000 -0.000000 -0.000001
 20 -0.000093 0.001563 3.638375 -0.000004 -1.283577 3.159707
 21 8.842828 -0.000005 0.000001 -0.038391 0.699668 -0.504737
 22 9.341935 -0.000122 -0.000005 -0.000004 -0.000003 -1.377945
 23 11.160255 -0.000102 -0.000016 -1.861733 0.046204 0.057074
 24 6.829862 -0.000027 0.000010 0.001239 0.000002 0.000002
 25 7.919295 -0.636940 0.610559 -1.520271 -0.091529 1.564913
 26 2.515643 0.482260 0.379709 1.593356 0.004970 0.082571
time 17
  0 4.423572 -4.423572 29.097399 -0.024257 -0.260466 -1.535322
  1 -0.526041 0.000001 9.745319 -3.141525 -1.520855 1.570828
  2 -0.000008 0.000010 5.615750 3.000558 6.169477 -3.142941
  3 15.693467 0.000000 0.000000 0.000000 0.000000 -0.771730
  4 22.146629 -0.000001 0.000000 -0.039783 -0.001059 0.507082
  5 0.000008 -0.000006 -5.615750 -3.124525 6.280687 1.376442
  6 15.693467 0.000000 0.000000 0.000000 0.000000 -0.613777
  7 22.146629 0.000000 0.000000 0.017600 0.019708 -0.142066
  8 1.384163 -0.004728 -0.062500 -0.146360 -0.097417 -0.266872
  9 5.939814 -0.004730 0.000000 0.000000 -0.000000 0.101012
 10 5.939809 -0.003975 0.000000 0.000000 -0.000000 0.041422
 11 4.991439 -0.003975 0.000000 0.000000 -0.000000 0.118113
 12 4.991436 -0.001575 0.000000 0.000000 -0.000000 -0.018916
 13 1.977383 0.000000 0.000000 0.197210 0.134889 0.343268
 14 0.000005 0.001585 -3.638375 -0.000010 1.283530 3.159578
 15 8.842831 0.000000 0.000001 -0.370953 -0.864596 0.302459
 16 9.341934 0.000000 -0.000001 0.000000 -0.000000 -1.829071
 17 11.164141 0.000000 -0.000002 1.378827 0.128655 0.458224
 18 3.723787 2.768019 -0.397315 -3.141505 -0.000098 1.570883
 19 2.863741 -0.721067 0.000003 0.000000 -0.000000 -0.000001
 20 -0.000093 0.001563 3.638375 -0.000004 -1.283615 3.159515
 21 8.842828 -0.000005 0.000001 -0.066632 0.675448 -0.541065
 22 9.341935 -0.000122 -0.000005 -0.000004 -0.000003 -1.344090
 23 11.160255 -0.000102 -0.000016 -2.015093 0.102493 0.075375
 24 6.829862 -0.000027 0.000010 0.001239 0.000002 0.000002
 25 7.919295 -0.636940 0.610559 -1.520271 -0.091529 1.564913
 26 2.515643 0.482260 0.379709 1.593356 0.004970 0.082571
time 18
  0 4.232171 -4.232171 28.873011 -0.018696 -0.237364 -1.570221
  1 -0.526041 0.000001 9.745319 -3.141525 -1.520855 1.570828
  2 -0.000008 0.000010 5.615750 2.963358 6.154042 -3.200559
  3 15.693467 0.000000 0.000000 0.000000 0.000000 -0.807512
  4 22.146629 -0.000001 0.000000 -0.034773 -0.003842 0.505448
  5 0.000008 -0.000006 -5.615750 -3.108322 6.281358 1.138021
  6 15.693467 0.000000 0.000000 0.000000 0.000000 -1.427540
  7 22.146629 0.000000 0.000000 0.042138 0.012893 0.267408
  8 1.384163 -0.004728 -0.062500 -0.161593 -0.088128 -0.256848
  9 5.939814 -0.004730 0.000000 0.000000 -0.000000 0.093619
 10 5.939809 -0.003975 0.000000 0.000000 -0.000000 0.038034
 11 4.991439 -0.003975 0.000000 0.000000 -0.000000 0.108512
 12 4.991436 -0.001575 0.000000 0.000000 -0.000000 -0.018789
 13 1.977383 0.000000 0.000000 0.268894 0.108765 0.333310
 14 0.000005 0.001585 -3.638375 -0.000010 1.283530 3.159578
 15 8.842831 0.000000 0.000001 -0.381380 -0.897385 0.250997
 16 9.341934 0.000000 -0.000001 0.000000 -0.000000 -1.794963
 17 11.164141 0.000000 -0.000002 1.403878 0.129878 0.477412
 18 3.723787 2.768019 -0.397315 -3.141505 -0.000098 1.570883
 19 2.863741 -0.721067 0.000003 0.000000 -0.000000 -0.000001
 20 -0.000093 0.001563 3.638375 -0.000004 -1.283653 3.159515
 21 8.842828 -0.000005 0.000001 -0.100964 0.643033 -0.581565
 22 9.341935 -0.000122 -0.000005 -0.000004 -0.000003 -1.309124
 23 11.160255 -0.000102 -0.000016 -2.173239 0.162842 0.084935
 24 6.829862 -0.000027 0.000010 0.001239 0.000002 0.000002
 25 7.919295 -0.636940 0.610559 -1.520271 -0.091529 1.564913
 26 2.515643 0.482260 0.379709 1.593356 0.004970 0.082571
time 19
  0 4.011322 -4.011322 28.626184 -0.013614 -0.215477 -1.606461
  1 -0.526041 0.000001 9.745319 -3.141525 -1.520855 1.570828
  2 -0.000008 0.000010 5.615750 2.928843 6.135922 3.023664
  3 15.693467 0.000000 0.000000 0.000000 0.000000 -0.843792
  4 22.146629 -0.000001 0.000000 -0.027482 -0.005960 0.501134
  5 0.000008 -0.000006 -5.615750 -3.116280 6.279058 1.312115
  6 15.693467 0.000000 0.000000 0.000000 0.000000 -1.617038
  7 22.146629 0.000000 0.000000 0.025441 0.021673 0.420214
  8 1.384163 -0.004728 -0.062500 -0.178011 -0.079024 -0.240142
  9 5.939814 -0.004730 0.000000 0.000000 -0.000000 0.086034
 10 5.939809 -0.003975 0.000000 0.000000 -0.000000 0.034710
 11 4.991439 -0.003975 0.000000 0.000000 -0.000000 0.099098
 12 4.991436 -0.001575 0.000000 0.000000 -0.000000 -0.018661
 13 1.977383 0.000000 0.000000 0.338157 0.085051 0.316480
 14 0.000005 0.001585 -3.638375 -0.000010 1.283530 3.159482
 15 8.842831 0.000000 0.000001 -0.373058 -0.936609 0.170169
 16 9.341934 0.000000 -0.000001 0.000000 -0.000000 -1.753260
 17 11.164141 0.000000 -0.000002 1.436561 0.128419 0.493259
 18 3.723787 2.768019 -0.397315 -3.141505 -0.000098 1.570883
 19 2.863741 -0.721067 0.000003 0.000000 -0.000000 -0.000001
 20 -0.000093 0.001563 3.638375 -0.000004 -1.283691 3.159419
 21 8.842828 -0.000005 0.000001 -0.138434 0.602788 -0.623619
 22 9.341935 -0.000122 -0.000005 -0.000004 -0.000003 -1.273196
 23 11.160255 -0.000102 -0.000016 -2.336747 0.225391 0.084662
 24 6.829862 -0.000027 0.000010 0.001239 0.000002 0.000002
 25 7.919295 -0.636940 0.610559 -1.520271 -0.091529 1.564913
 26 2.515643 0.482260 0.379709 1.593356 0.004970 0.082571
time 20
  0 3.797837 -3.797837 28.424236 -0.008917 -0.194720 -1.643947
  1 -0.526041 0.000001 9.745319 -3.141525 -1.520855 1.570828
  2 -0.000008 0.000010 5.615750 2.899888 6.117707 2.970073
  3 15.693467 0.000000 0.000000 0.000000 0.000000 -0.873385
  4 22.146629 -0.000001 0.000000 -0.019181 -0.007775 0.493944
  5 0.000008 -0.000006 -5.615750 -3.130278 6.277524 1.557150
  6 15.693467 0.000000 0.000000 0.000000 0.000000 -1.696645
  7 22.146629 0.000000 0.000000 0.003836 0.030974 0.468701
  8 1.384163 -0.004728 -0.062500 -0.195371 -0.069920 -0.217921
  9 5.939814 -0.004730 0.000000 0.000000 -0.000000 0.078428
 10 5.939809 -0.003975 0.000000 0.000000 -0.000000 0.031450
 11 4.991439 -0.003975 0.000000 0.000000 -0.000000 0.089852
 12 4.991436 -0.001575 0.000000 0.000000 -0.000000 -0.018577
 13 1.977383 0.000000 0.000000 0.396894 0.067221 0.291385
 14 0.000005 0.001585 -3.638375 -0.000010 1.283530 3.159290
 15 8.842831 0.000000 0.000001 -0.337856 -0.980420 0.055958
 16 9.341934 0.000000 -0.000001 0.000000 -0.000000 -1.705895
 17 11.164141 0.000000 -0.000002 1.472612 0.125455 0.507292
 18 3.723787 2.768019 -0.397315 -3.141505 -0.000098 1.570883
 19 2.863741 -0.721067 0.000003 0.000000 -0.000000 -0.000001
 20 -0.000093 0.001563 3.638375 -0.000004 -1.283729 3.159323
 21 8.842828 -0.000005 0.000001 -0.177196 0.555077 -0.665429
 22 9.341935 -0.000122 -0.000005 -0.000004 -0.000003 -1.236304
 23 11.160255 -0.000102 -0.000016 -2.506668 0.288448 0.073554
 24 6.829862 -0.000027 0.000010 0.001239 0.000002 0.000002
 25 7.919295 -0.636940 0.610559 -1.520271 -0.091529 1.564913
 26 2.515643 0.482260 0.379709 1.593356 0.004970 0.082571
time 21
  0 3.562266 -3.562266 28.289604 -0.004890 -0.174570 -1.682201
  1 -0.526041 0.000001 9.745319 -3.141525 -1.520855 1.570828
  2 -0.000008 0.000010 5.615750 2.879274 6.102943 2.926547
  3 15.693467 0.000000 0.000000 0.000000 0.000000 -0.891454
  4 22.146629 -0.000001 0.000000 -0.010955 -0.009923 0.484728
  5 0.000008 -0.000006 -5.615750 3.138141 6.276278 1.747925
  6 15.693467 0.000000 0.000000 0.000000 0.000000 -1.885544
  7 22.146629 0.000000 0.000000 -0.010831 0.041258 0.421500
  8 1.384163 -0.004728 -0.062500 -0.213360 -0.060631 -0.191085
  9 5.939814 -0.004730 0.000000 0.000000 -0.000000 0.070651
 10 5.939809 -0.003975 0.000000 0.000000 -0.000000 0.028254
 11 4.991439 -0.003975 0.000000 0.000000 -0.000000 0.080736
 12 4.991436 -0.001575 0.000000 0.000000 -0.000000 -0.018492
 13 1.977383 0.000000 0.000000 0.443841 0.049764 0.257576
 14 0.000005 0.001585 -3.638375 -0.000010 1.283530 3.159290
 15 8.842831 0.000000 0.000001 -0.264967 -1.025394 -0.096898
 16 9.341934 0.000000 -0.000001 0.000000 -0.000000 -1.654266
 17 11.164141 0.000000 -0.000002 1.507663 0.122208 0.521707
 18 3.723787 2.768019 -0.397315 -3.141505 -0.000098 1.570883
 19 2.863741 -0.721067 0.000003 0.000000 -0.000000 -0.000001
 20 -0.000093 0.001563 3.638375 -0.000004 -1.283729 3.159227
 21 8.842828 -0.000005 0.000001 -0.215220 0.500537 -0.705356
 22 9.341935 -0.000122 -0.000005 -0.000004 -0.000003 -1.198597
 23 11.160255 -0.000102 -0.000016 -2.683769 0.349474 0.050519
 24 6.829862 -0.000027 0.000010 0.001239 0.000002 0.000002
 25 7.919295 -0.636940 0.610559 -1.520271 -0.091529 1.564913
 26 2.515643 0.482260 0.379709 1.593356 0.004970 0.082571
time 22
  0 3.289887 -3.289887 28.222288 -0.001246 -0.155290 -1.721318
  1 -0.526041 0.000001 9.745319 -3.141525 -1.520855 1.570828
  2 -0.000008 0.000010 5.615750 2.865660 6.092014 2.897882
  3 15.693467 0.000000 0.000000 0.000000 0.000000 -0.898141
  4 22.146629 -0.000001 0.000000 -0.001982 -0.014460 0.478388
  5 0.000008 -0.000006 -5.615750 3.122418 6.276853 1.935344
  6 15.693467 0.000000 0.000000 0.000000 0.000000 -2.077291
  7 22.146629 0.000000 0.000000 -0.030687 0.047644 0.327098
  8 1.384163 -0.004728 -0.062500 -0.231785 -0.050866 -0.160749
  9 5.939814 -0.004730 0.000000 0.000000 -0.000000 0.062853
 10 5.939809 -0.003975 0.000000 0.000000 -0.000000 0.025079
 11 4.991439 -0.003975 0.000000 0.000000 -0.000000 0.071733
 12 4.991436 -0.001575 0.000000 0.000000 -0.000000 -0.018365
 13 1.977383 0.000000 0.000000 0.485104 0.028805 0.217293
 14 0.000005 0.001585 -3.638375 -0.000010 1.283530 3.159002
 15 8.842831 0.000000 0.000001 -0.141858 -1.065372 -0.297485
 16 9.341934 0.000000 -0.000001 0.000000 -0.000000 -1.600239
 17 11.164141 0.000000 -0.000002 1.537714 0.119903 0.538222
 18 3.723787 2.768019 -0.397315 -3.141505 -0.000098 1.570883
 19 2.863741 -0.721067 0.000003 0.000000 -0.000000 -0.000001
 20 -0.000093 0.001563 3.638375 -0.000004 -1.283804 3.159035
 21 8.842828 -0.000005 0.000001 -0.251121 0.439896 -0.742256
 22 9.341935 -0.000122 -0.000005 -0.000004 -0.000003 -1.160446
 23 11.160255 -0.000102 -0.000016 -2.869008 0.406496 0.014919
 24 6.829862 -0.000027 0.000010 0.001239 0.000002 0.000002
 25 7.919295 -0.636940 0.610559 -1.520271 -0.091529 1.564913
 26 2.515643 0.482260 0.379709 1.593356 0.004970 0.082571
time 23
  0 2.973338 -2.973339 28.154970 0.001246 -0.136095 -1.761009
  1 -0.526041 0.000001 9.745319 -3.141525 -1.520855 1.570828
  2 -0.000008 0.000010 5.615750 2.857510 6.079934 2.867011
  3 15.693467 0.000000 0.000000 0.000000 0.000000 -0.903832
  4 22.146629 -0.000001 0.000000 0.009123 -0.020390 0.468518
  5 0.000008 -0.000006 -5.615750 3.107269 6.282030 2.149798
  6 15.693467 0.000000 0.000000 0.000000 0.000000 -2.135009
  7 22.146629 0.000000 0.000000 -0.050261 0.048626 0.243072
  8 1.384163 -0.004728 -0.062500 -0.250330 -0.040624 -0.127920
  9 5.939814 -0.004730 0.000000 0.000000 -0.000000 0.054970
 10 5.939809 -0.003975 0.000000 0.000000 -0.000000 0.021947
 11 4.991439 -0.003975 0.000000 0.000000 -0.000000 0.062785
 12 4.991436 -0.001575 0.000000 0.000000 -0.000000 -0.018280
 13 1.977383 0.000000 0.000000 0.523367 0.009983 0.174273
 14 0.000005 0.001585 -3.638375 -0.000010 1.283530 3.159002
 15 8.842831 0.000000 0.000001 0.040654 -1.090015 -0.559291
 16 9.341934 0.000000 -0.000001 0.000000 -0.000000 -1.540683
 17 11.164141 0.000000 -0.000002 1.565660 0.117738 0.555787
 18 3.723787 2.768019 -0.397315 -3.141505 -0.000098 1.570883
 19 2.863741 -0.721067 0.000003 0.000000 -0.000000 -0.000001
 20 -0.000093 0.001563 3.638375 -0.000004 -1.283842 3.158940
 21 8.842828 -0.000005 0.000001 -0.284161 0.374521 -0.775638
 22 9.341935 -0.000122 -0.000005 -0.000004 -0.000003 -1.121851
 23 11.160255 -0.000102 -0.000016 -3.062862 0.456806 -0.032699
 24 6.829862 -0.000027 0.000010 0.001239 0.000002 0.000002
 25 7.919295 -0.636940 0.610559 -1.520271 -0.091529 1.564913
 26 2.515643 0.482260 0.379709 1.593356 0.004970 0.082571
time 24
  0 2.612620 -2.612620 28.110094 0.003547 -0.117336 -1.800989
  1 -0.526041 0.000001 9.745319 -3.141525 -1.520855 1.570828
  2 -0.000008 0.000010 5.615750 2.859140 6.061431 2.808818
  3 15.693467 0.000000 0.000000 0.000000 0.000000 -0.915214
  4 22.146629 -0.000001 0.000000 0.021574 -0.025744 0.436882
  5 0.000008 -0.000006 -5.615750 3.087518 0.005658 2.469609
  6 15.693467 0.000000 0.000000 0.000000 0.000000 -1.827225
  7 22.146629 0.000000 0.000000 -0.066789 0.057682 0.185311
  8 1.384163 -0.004728 -0.062500 -0.268803 -0.029721 -0.093606
  9 5.939814 -0.004730 0.000000 0.000000 -0.000000 0.047044
 10 5.939809 -0.003975 0.000000 0.000000 -0.000000 0.018836
 11 4.991439 -0.003975 0.000000 0.000000 -0.000000 0.053911
 12 4.991436 -0.001575 0.000000 0.000000 -0.000000 -0.018152
 13 1.977383 0.000000 0.000000 0.560630 -0.001341 0.132795
 14 0.000005 0.001585 -3.638375 -0.000010 1.283530 3.158811
 15 8.842831 0.000000 0.000001 0.266688 -1.085360 -0.872463
 16 9.341934 0.000000 -0.000001 0.000000 -0.000000 -1.472533
 17 11.164141 0.000000 -0.000002 1.596554 0.114115 0.571825
 18 3.723787 2.768019 -0.397315 -3.141505 -0.000098 1.570883
 19 2.863741 -0.721067 0.000003 0.000000 -0.000000 -0.000001
 20 -0.000093 0.001563 3.638375 -0.000004 -1.283880 3.158748
 21 8.842828 -0.000005 0.000001 -0.313971 0.305686 -0.805175
 22 9.341935 -0.000122 -0.000005 -0.000004 -0.000003 -1.082959
 23 11.160255 -0.000102 -0.000016 -3.265044 0.497697 -0.092336
 24 6.829862 -0.000027 0.000010 0.001239 0.000002 0.000002
 25 7.919295 -0.636940 0.610559 -1.520271 -0.091529 1.564913
 26 2.515643 0.482260 0.379709 1.593356 0.004970 0.082571
time 25
  0 2.215095 -2.215095 28.087654 0.005081 -0.098576 -1.840872
  1 -0.526041 0.000001 9.745319 -3.141525 -1.520855 1.570828
  2 -0.000008 0.000010 5.615750 2.871988 6.037080 2.728861
  3 15.693467 0.000000 0.000000 0.000000 0.000000 -0.921332
  4 22.146629 -0.000001 0.000000 0.034025 -0.032733 0.378513
  5 0.000008 -0.000006 -5.615750 3.090203 0.028859 2.746951
  6 15.693467 0.000000 0.000000 0.000000 0.000000 -1.421918
  7 22.146629 0.000000 0.000000 -0.050938 0.075364 0.170710
  8 1.384163 -0.004728 -0.062500 -0.287010 -0.018288 -0.058815
  9 5.939814 -0.004730 0.000000 0.000000 -0.000000 0.039118
 10 5.939809 -0.003975 0.000000 0.000000 -0.000000 0.015768
 11 4.991439 -0.003975 0.000000 0.000000 -0.000000 0.045038
 12 4.991436 -0.001575 0.000000 0.000000 -0.000000 -0.018025
 13 1.977383 0.000000 0.000000 0.598630 -0.000050 0.097692
 14 0.000005 0.001585 -3.638375 -0.000010 1.283530 3.158811
 15 8.842831 0.000000 0.000001 0.489567 -1.042919 -1.189748
 16 9.341934 0.000000 -0.000001 0.000000 -0.000000 -1.397721
 17 11.164141 0.000000 -0.000002 1.630079 0.109316 0.586240
 18 3.723787 2.768019 -0.397315 -3.141505 -0.000098 1.570883
 19 2.863741 -0.721067 0.000003 0.000000 -0.000000 -0.000001
 20 -0.000093 0.001563 3.638375 -0.000004 -1.283918 3.158748
 21 8.842828 -0.000005 0.000001 -0.340089 0.234210 -0.830947
 22 9.341935 -0.000122 -0.000005 -0.000004 -0.000003 -1.043993
 23 11.160255 -0.000102 -0.000016 -3.474215 0.527082 -0.161623
 24 6.829862 -0.000027 0.000010 0.001239 0.000002 0.000002
 25 7.919295 -0.636940 0.610559 -1.520271 -0.091529 1.564913
 26 2.515643 0.482260 0.379709 1.593356 0.004970 0.082571
time 26
  0 1.788122 -1.788123 28.065216 0.005944 -0.079555 -1.880660
  1 -0.526041 0.000001 9.745319 -3.141525 -1.520855 1.570828
  2 -0.000008 0.000010 5.615750 2.891355 6.011195 2.651781
  3 15.693467 0.000000 0.000000 0.000000 0.000000 -0.908385
  4 22.146629 -0.000001 0.000000 0.046514 -0.044682 0.304195
  5 0.000008 -0.000006 -5.615750 3.128841 0.064236 2.880014
  6 15.693467 0.000000 0.000000 0.000000 0.000000 -1.187669
  7 22.146629 0.000000 0.000000 -0.006036 0.099585 0.206983
  8 1.384163 -0.004728 -0.062500 -0.304733 -0.006194 -0.024608
  9 5.939814 -0.004730 0.000000 0.000000 -0.000000 0.031171
 10 5.939809 -0.003975 0.000000 0.000000 -0.000000 0.012678
 11 4.991439 -0.003975 0.000000 0.000000 -0.000000 0.036165
 12 4.991436 -0.001575 0.000000 0.000000 -0.000000 -0.017898
 13 1.977383 0.000000 0.000000 0.639367 0.018326 0.074488
 14 0.000005 0.001585 -3.638375 -0.000010 1.283530 3.158715
 15 8.842831 0.000000 0.000001 0.669400 -0.966455 -1.470111
 16 9.341934 0.000000 -0.000001 0.000000 -0.000000 -1.318579
 17 11.164141 0.000000 -0.000002 1.665235 0.103481 0.599605
 18 3.723787 2.768019 -0.397315 -3.141505 -0.000098 1.570883
 19 2.863741 -0.721067 0.000003 0.000000 -0.000000 -0.000001
 20 -0.000093 0.001563 3.638375 -0.000004 -1.283994 3.158652
 21 8.842828 -0.000005 0.000001 -0.362331 0.161641 -0.853120
 22 9.341935 -0.000122 -0.000005 -0.000004 -0.000003 -1.005101
 23 11.160255 -0.000102 -0.000016 -3.687885 0.543044 -0.237193
 24 6.829862 -0.000027 0.000010 0.001239 0.000002 0.000002
 25 7.919295 -0.636940 0.610559 -1.520271 -0.091529 1.564913
 26 2.515643 0.482260 0.379709 1.593356 0.004970 0.082571
time 27
  0 1.368512 -1.368512 28.065216 0.005848 -0.060448 -1.920064
  1 -0.526041 0.000001 9.745319 -3.141525 -1.520855 1.570828
  2 -0.000008 0.000010 5.615750 2.914365 5.984735 2.585822
  3 15.693467 0.000000 0.000000 0.000000 0.000000 -0.869259
  4 22.146629 -0.000001 0.000000 0.059787 -0.062621 0.215301
  5 0.000008 -0.000006 -5.615750 -3.103911 0.098557 2.982591
  6 15.693467 0.000000 0.000000 0.000000 0.000000 -0.977407
  7 22.146629 0.000000 0.000000 0.047779 0.130652 0.258133
  8 1.384163 -0.004728 -0.062500 -0.321828 0.006430 0.008009
  9 5.939814 -0.004730 0.000000 0.000000 -0.000000 0.023309
 10 5.939809 -0.003975 0.000000 0.000000 -0.000000 0.009546
 11 4.991439 -0.003975 0.000000 0.000000 -0.000000 0.027254
 12 4.991436 -0.001575 0.000000 0.000000 -0.000000 -0.017813
 13 1.977383 0.000000 0.000000 0.682735 0.066501 0.076729
 14 0.000005 0.001585 -3.638375 -0.000010 1.283530 3.158523
 15 8.842831 0.000000 0.000001 0.795378 -0.866923 -1.702455
 16 9.341934 0.000000 -0.000001 0.000000 -0.000000 -1.236506
 17 11.164141 0.000000 -0.000002 1.701181 0.096940 0.612397
 18 3.723787 2.768019 -0.397315 -3.141505 -0.000098 1.570883
 19 2.863741 -0.721067 0.000003 0.000000 -0.000000 -0.000001
 20 -0.000093 0.001563 3.638375 -0.000004 -1.284070 3.158460
 21 8.842828 -0.000005 0.000001 -0.381066 0.089528 -0.872184
 22 9.341935 -0.000122 -0.000005 -0.000004 -0.000003 -0.966357
 23 11.160255 -0.000102 -0.000016 -3.902417 0.544905 -0.315130
 24 6.829862 -0.000027 0.000010 0.001239 0.000002 0.000002
 25 7.919295 -0.636940 0.610559 -1.520271 -0.091529 1.564913
 26 2.515643 0.482260 0.379709 1.593356 0.004970 0.082571
time 28
  0 0.919455 -0.919455 28.065216 0.004986 -0.040994 -1.958797
  1 -0.526041 0.000001 9.745319 -3.141525 -1.520855 1.570828
  2 -0.000008 0.000010 5.615750 2.936129 5.957603 2.539037
  3 15.693467 0.000000 0.000000 0.000000 0.000000 -0.798691
  4 22.146629 -0.000001 0.000000 0.075155 -0.086369 0.113661
  5 0.000008 -0.000006 -5.615750 -3.045906 0.130482 -3.214227
  6 15.693467 0.000000 0.000000 0.000000 0.000000 -0.780788
  7 22.146629 0.000000 0.000000 0.111578 0.167275 0.318374
  8 1.384163 -0.004728 -0.062500 -0.338173 0.019477 0.038080
  9 5.939814 -0.004730 0.000000 0.000000 -0.000000 0.015447
 10 5.939809 -0.003975 0.000000 0.000000 -0.000000 0.006414
 11 4.991439 -0.003975 0.000000 0.000000 -0.000000 0.018269
 12 4.991436 -0.001575 0.000000 0.000000 -0.000000 -0.017686
 13 1.977383 0.000000 0.000000 0.729156 0.140849 0.107999
 14 0.000005 0.001585 -3.638375 -0.000010 1.283530 3.158427
 15 8.842831 0.000000 0.000001 0.876399 -0.756301 -1.893955
 16 9.341934 0.000000 -0.000001 0.000000 -0.000000 -1.154100
 17 11.164141 0.000000 -0.000002 1.737179 0.089882 0.624616
 18 3.723787 2.768019 -0.397315 -3.141505 -0.000098 1.570883
 19 2.863741 -0.721067 0.000003 0.000000 -0.000000 -0.000001
 20 -0.000093 0.001563 3.638375 -0.000004 -1.284108 3.158364
 21 8.842828 -0.000005 0.000001 -0.395925 0.019327 -0.888466
 22 9.341935 -0.000122 -0.000005 -0.000004 -0.000003 -0.927984
 23 11.160255 -0.000102 -0.000016 -4.113981 0.532666 -0.390791
 24 6.829862 -0.000027 0.000010 0.001239 0.000002 0.000002
 25 7.919295 -0.636940 0.610559 -1.520271 -0.091529 1.564913
 26 2.515643 0.482260 0.379709 1.593356 0.004970 0.082571
time 29
  0 0.492483 -0.492483 28.042778 0.002876 -0.020671 -1.996571
  1 -0.526041 0.000001 9.745319 -3.141525 -1.520855 1.570828
  2 -0.000008 0.000010 5.615750 2.950415 5.930088 2.519383
  3 15.693467 0.000000 0.000000 0.000000 0.000000 -0.690207
  4 22.146629 -0.000001 0.000000 0.093551 -0.114534 0.000517
  5 0.000008 -0.000006 -5.615750 -2.984161 0.158189 -3.130440
  6 15.693467 0.000000 0.000000 0.000000 0.000000 -0.587617
  7 22.146629 0.000000 0.000000 0.186715 0.206814 0.381829
  8 1.384163 -0.004728 -0.062500 -0.353648 0.032815 0.064650
  9 5.939814 -0.004730 0.000000 0.000000 -0.000000 0.007649
 10 5.939809 -0.003975 0.000000 0.000000 -0.000000 0.003239
 11 4.991439 -0.003975 0.000000 0.000000 -0.000000 0.009190
 12 4.991436 -0.001575 0.000000 0.000000 -0.000000 -0.017559
 13 1.977383 0.000000 0.000000 0.780577 0.222497 0.157891
 14 0.000005 0.001585 -3.638375 -0.000010 1.283530 3.158235
 15 8.842831 0.000000 0.000001 0.925279 -0.644721 -2.056185
 16 9.341934 0.000000 -0.000001 0.000000 -0.000000 -1.072826
 17 11.164141 0.000000 -0.000002 1.772704 0.082495 0.636931
 18 3.723787 2.768019 -0.397315 -3.141505 -0.000098 1.570883
 19 2.863741 -0.721067 0.000003 0.000000 -0.000000 -0.000001
 20 -0.000093 0.001563 3.638375 -0.000004 -1.284146 3.158268
 21 8.842828 -0.000005 0.000001 -0.407277 -0.047869 -0.902457
 22 9.341935 -0.000122 -0.000005 -0.000004 -0.000003 -0.890129
 23 11.160255 -0.000102 -0.000016 -4.319322 0.507567 -0.460351
 24 6.829862 -0.000027 0.000010 0.001239 0.000002 0.000002
 25 7.919295 -0.636940 0.610559 -1.520271 -0.091529 1.564913
 26 2.515643 0.482260 0.379709 1.593356 0.004970 0.082571
time 30
  0 0.058149 -0.058149 28.042778 0.000000 0.000000 -2.033483
  1 -0.526041 0.000001 9.745319 -3.141525 -1.520855 1.570828
  2 -0.000008 0.000010 5.615750 2.948497 5.903724 2.537503
  3 15.693467 0.000000 0.000000 0.000000 0.000000 -0.532567
  4 22.146629 -0.000001 0.000000 0.115274 -0.144876 -0.126745
  5 0.000008 -0.000006 -5.615750 -2.922033 0.178609 -3.035723
  6 15.693467 0.000000 0.000000 0.000000 0.000000 -0.387399
  7 22.146629 0.000000 0.000000 0.274093 0.245463 0.443080
  8 1.384163 -0.004728 -0.062500 -0.368228 0.046312 0.086607
  9 5.939814 -0.004730 0.000000 0.000000 -0.000000 0.000000
 10 5.939809 -0.003975 0.000000 0.000000 -0.000000 0.000000
 11 4.991439 -0.003975 0.000000 0.000000 -0.000000 0.000000
 12 4.991436 -0.001575 0.000000 0.000000 -0.000000 -0.017431
 13 1.977383 0.000000 0.000000 0.835682 0.294312 0.213509
 14 0.000005 0.001585 -3.638375 -0.000010 1.283530 3.158139
 15 8.842831 0.000000 0.000001 0.953115 -0.539576 -2.197562
 16 9.341934 0.000000 -0.000001 0.000000 -0.000000 -0.994817
 17 11.164141 0.000000 -0.000002 1.806860 0.075060 0.649532
 18 3.723787 2.768019 -0.397315 -3.141505 -0.000098 1.570883
 19 2.863741 -0.721067 0.000003 0.000000 -0.000000 -0.000001
 20 -0.000093 0.001563 3.638375 -0.000004 -1.284184 3.158173
 21 8.842828 -0.000005 0.000001 -0.415029 -0.110695 -0.914648
 22 9.341935 -0.000122 -0.000005 -0.000004 -0.000003 -0.853015
 23 11.160255 -0.000102 -0.000016 -4.515761 0.471414 -0.520807
 24 6.829862 -0.000027 0.000010 0.001239 0.000002 0.000002
 25 7.919295 -0.636940 0.610559 -1.520271 -0.091529 1.564913
 26 2.515643 0.482260 0.379709 1.593356 0.004970 0.082571
end
